<?xml version="1.0" encoding="utf-8"?>
<!-- Generator: Adobe Illustrator 23.0.0, SVG Export Plug-In . SVG Version: 6.00 Build 0)  -->
<svg version="1.0" id="Layer1" xmlns="http://www.w3.org/2000/svg" xmlns:xlink="http://www.w3.org/1999/xlink" x="0px" y="0px"
	 width="500px" height="500px" viewBox="0 0 500 500" enable-background="new 0 0 500 500" xml:space="preserve">
<rect fill="none" width="500" height="500"/>
<path id="users" fill="#FFFFFF" enable-background="new    " d="M249,353.6h2v7.7h-2V353.6z M249,372.9h2v-7.7h-2V372.9z M249,349.7
	h2V342h-2V349.7z M249,338.1h2v-7.7h-2V338.1z M249,326.5h2v-7.7h-2V326.5z M249,314.9h2v-7.7h-2V314.9z M249,384.6h2v-7.7h-2V384.6
	z M250,390.6l-5.5-5.5l-1.4,1.4l6.9,6.9l6.9-6.9l-1.4-1.4L250,390.6z M169.6,315.4l-1.3-1.6l-6.1,4.8l1.3,1.6L169.6,315.4z
	 M160.6,322.6l-1.3-1.6l-6.1,4.8l1.3,1.6L160.6,322.6z M178.7,308.1l-1.3-1.6l-6.1,4.8l1.3,1.6L178.7,308.1z M187.8,300.9l-1.3-1.6
	l-6.1,4.8l1.3,1.6L187.8,300.9z M196.9,293.7l-1.3-1.6l-6.1,4.8l1.3,1.6L196.9,293.7z M206,286.4l-1.3-1.6l-6.1,4.8l1.3,1.6
	L206,286.4z M151.5,329.9l-1.3-1.6l-6.1,4.8l1.3,1.6L151.5,329.9z M141,329.9l-2-0.2l-1.1,9.7l9.7,1.1l0.2-2l-7.7-0.9L141,329.9z
	 M148.8,227.9l0.4-2l-7.5-1.7l-0.4,2L148.8,227.9z M137.5,225.3l0.4-2l-7.5-1.7l-0.4,2L137.5,225.3z M160.1,230.5l0.4-2l-7.5-1.7
	l-0.4,2L160.1,230.5z M171.4,233.1l0.4-2l-7.5-1.7l-0.4,2L171.4,233.1z M182.8,235.7l0.4-2l-7.5-1.7l-0.4,2L182.8,235.7z
	 M194.1,238.3l0.4-2l-7.5-1.7l-0.4,2L194.1,238.3z M126.1,222.8l0.4-2l-7.5-1.7l-0.4,2L126.1,222.8z M119.5,214.6l-1.1-1.7l-8.3,5.2
	l5.2,8.3l1.7-1.1l-4.1-6.6L119.5,214.6z M299.2,150.1l-1.8-0.9l-3.4,7l1.8,0.9L299.2,150.1z M304.3,139.7l-1.8-0.9l-3.4,7l1.8,0.9
	L304.3,139.7z M294.2,160.6l-1.8-0.9l-3.4,7l1.8,0.9L294.2,160.6z M289.1,171.1l-1.8-0.9l-3.4,7l1.8,0.9L289.1,171.1z M284.1,181.5
	l-1.8-0.9l-3.4,7l1.8,0.9L284.1,181.5z M279.1,192l-1.8-0.9l-3.4,7l1.8,0.9L279.1,192z M309.3,129.2l-1.8-0.9l-3.4,7l1.8,0.9
	L309.3,129.2z M311,123.4l2.6,7.3l1.9-0.7l-3.2-9.2L303,124l0.7,1.9L311,123.4z M358.8,226.2l-0.4-2l-7.5,1.7l0.4,2L358.8,226.2z
	 M370.1,223.6l-0.4-2l-7.5,1.7l0.4,2L370.1,223.6z M347.4,228.8l-0.4-2l-7.5,1.7l0.4,2L347.4,228.8z M336.1,231.4l-0.4-2l-7.5,1.7
	l0.4,2L336.1,231.4z M324.8,234l-0.4-2l-7.5,1.7l0.4,2L324.8,234z M313.5,236.5l-0.4-2l-7.5,1.7l0.4,2L313.5,236.5z M381.4,221
	l-0.4-2l-7.5,1.7l0.4,2L381.4,221z M387,218.7l-4.1,6.6l1.7,1.1l5.2-8.3l-8.3-5.2l-1.1,1.7L387,218.7z M336.4,320.2l1.3-1.6
	l-6.1-4.8l-1.3,1.6L336.4,320.2z M345.5,327.4l1.3-1.6l-6.1-4.8l-1.3,1.6L345.5,327.4z M327.3,313l1.3-1.6l-6.1-4.8l-1.3,1.6
	L327.3,313z M318.3,305.7l1.3-1.6l-6.1-4.8l-1.3,1.6L318.3,305.7z M309.2,298.5l1.3-1.6l-6.1-4.8l-1.3,1.6L309.2,298.5z
	 M300.1,291.2l1.3-1.6l-6.1-4.8l-1.3,1.6L300.1,291.2z M354.6,334.7l1.3-1.6l-6.1-4.8l-1.3,1.6L354.6,334.7z M359.9,337.6l-7.7,0.9
	l0.2,2l9.7-1.1l-1.1-9.7l-2,0.2L359.9,337.6z"/>
</svg>
