<?xml version="1.0" encoding="utf-8"?>
<!-- Generator: Adobe Illustrator 23.0.0, SVG Export Plug-In . SVG Version: 6.00 Build 0)  -->
<svg version="1.0" id="Layer1" xmlns="http://www.w3.org/2000/svg" xmlns:xlink="http://www.w3.org/1999/xlink" x="0px" y="0px"
	 width="500px" height="500px" viewBox="0 0 500 500" enable-background="new 0 0 500 500" xml:space="preserve">
<rect fill="none" width="500" height="500"/>
<path id="sections" opacity="0.1" fill="#FFFFFF" enable-background="new    " d="M223.5,43c17.6-2.3,35.4-2.3,53,0
	c11.7,1.5,23.5-1.6,32.9-8.7c3-2.3,6.3-4.2,9.9-5.6c23-9.5,49.4,1.4,58.9,24.3c9.5,23-1.4,49.4-24.3,58.9
	c-23,9.5-49.4-1.4-58.9-24.3c-6.8-16.5-22.8-27.4-40.6-27.8c-2.9-0.1-5.7-0.1-8.6,0C228,60.2,212,71.1,205.2,87.6
	c-1.5,3.5-3.4,6.8-5.6,9.9c-15,19.9-43.3,23.8-63.1,8.8s-23.8-43.3-8.8-63.1s43.3-23.8,63.1-8.8C200,41.4,211.8,44.5,223.5,43z
	 M473.5,240.1c19-16,21.5-44.5,5.4-63.5c-16-19-44.5-21.5-63.5-5.4s-21.5,44.5-5.4,63.5c2.4,2.9,5.3,5.5,8.4,7.7
	c14.5,10.3,21.6,28.3,18,45.8c-0.6,2.8-1.2,5.6-1.9,8.4c-4.4,17.3-18.5,30.4-36.1,33.4c-24.5,4.2-41,27.5-36.8,52s27.5,41,52,36.8
	s41-27.5,36.8-52c-0.6-3.7-1.8-7.4-3.3-10.9c-4.8-10.7-5.2-22.9-1.2-34c6.1-16.7,10.1-34,11.8-51.7
	C458.8,258.5,464.5,247.7,473.5,240.1z M101.7,329.9c-17.6-3-31.8-16.1-36.1-33.4c-0.7-2.8-1.3-5.6-1.9-8.4
	c-3.6-17.5,3.5-35.4,18-45.8c20.3-14.4,25-42.6,10.6-62.9s-42.6-25-62.9-10.6s-25,42.6-10.6,62.9c2.2,3.1,4.8,5.9,7.7,8.4
	c9,7.6,14.7,18.4,15.8,30.1c1.7,17.7,5.7,35.1,11.8,51.7c4.1,11,3.6,23.2-1.2,34c-10.2,22.7,0,49.4,22.7,59.6
	c8.6,3.8,18.1,4.9,27.3,3.1c11.5-2.3,23.5,0,33.4,6.4c14.9,9.7,30.9,17.4,47.8,23c11.2,3.7,20.4,11.7,25.8,22.1
	c11.4,22.1,38.6,30.8,60.7,19.4s30.8-38.6,19.4-60.7s-38.6-30.8-60.7-19.4c-3.4,1.7-6.5,3.9-9.4,6.4c-13.3,11.9-32.4,14.8-48.6,7.4
	c-2.6-1.2-5.2-2.4-7.7-3.7c-15.9-8.1-25.5-24.8-24.5-42.6C140.3,354,124.2,333.8,101.7,329.9z"/>
<path id="users" opacity="0.15" fill="#FFFFFF" enable-background="new    " d="M249,353.6h2v7.7h-2V353.6z M249,372.9h2v-7.7h-2
	V372.9z M249,349.7h2V342h-2V349.7z M249,338.1h2v-7.7h-2V338.1z M249,326.5h2v-7.7h-2V326.5z M249,314.9h2v-7.7h-2V314.9z
	 M249,384.6h2v-7.7h-2V384.6z M250,390.6l-5.5-5.5l-1.4,1.4l6.9,6.9l6.9-6.9l-1.4-1.4L250,390.6z M169.6,315.4l-1.3-1.6l-6.1,4.8
	l1.3,1.6L169.6,315.4z M160.6,322.6l-1.3-1.6l-6.1,4.8l1.3,1.6L160.6,322.6z M178.7,308.1l-1.3-1.6l-6.1,4.8l1.3,1.6L178.7,308.1z
	 M187.8,300.9l-1.3-1.6l-6.1,4.8l1.3,1.6L187.8,300.9z M196.9,293.7l-1.3-1.6l-6.1,4.8l1.3,1.6L196.9,293.7z M206,286.4l-1.3-1.6
	l-6.1,4.8l1.3,1.6L206,286.4z M151.5,329.9l-1.3-1.6l-6.1,4.8l1.3,1.6L151.5,329.9z M141,329.9l-2-0.2l-1.1,9.7l9.7,1.1l0.2-2
	l-7.7-0.9L141,329.9z M148.8,227.9l0.4-2l-7.5-1.7l-0.4,2L148.8,227.9z M137.5,225.3l0.4-2l-7.5-1.7l-0.4,2L137.5,225.3z
	 M160.1,230.5l0.4-2l-7.5-1.7l-0.4,2L160.1,230.5z M171.4,233.1l0.4-2l-7.5-1.7l-0.4,2L171.4,233.1z M182.8,235.7l0.4-2l-7.5-1.7
	l-0.4,2L182.8,235.7z M194.1,238.3l0.4-2l-7.5-1.7l-0.4,2L194.1,238.3z M126.1,222.8l0.4-2l-7.5-1.7l-0.4,2L126.1,222.8z
	 M119.5,214.6l-1.1-1.7l-8.3,5.2l5.2,8.3l1.7-1.1l-4.1-6.6L119.5,214.6z M299.2,150.1l-1.8-0.9l-3.4,7l1.8,0.9L299.2,150.1z
	 M304.3,139.7l-1.8-0.9l-3.4,7l1.8,0.9L304.3,139.7z M294.2,160.6l-1.8-0.9l-3.4,7l1.8,0.9L294.2,160.6z M289.1,171.1l-1.8-0.9
	l-3.4,7l1.8,0.9L289.1,171.1z M284.1,181.5l-1.8-0.9l-3.4,7l1.8,0.9L284.1,181.5z M279.1,192l-1.8-0.9l-3.4,7l1.8,0.9L279.1,192z
	 M309.3,129.2l-1.8-0.9l-3.4,7l1.8,0.9L309.3,129.2z M311,123.4l2.6,7.3l1.9-0.7l-3.2-9.2L303,124l0.7,1.9L311,123.4z M358.8,226.2
	l-0.4-2l-7.5,1.7l0.4,2L358.8,226.2z M370.1,223.6l-0.4-2l-7.5,1.7l0.4,2L370.1,223.6z M347.4,228.8l-0.4-2l-7.5,1.7l0.4,2
	L347.4,228.8z M336.1,231.4l-0.4-2l-7.5,1.7l0.4,2L336.1,231.4z M324.8,234l-0.4-2l-7.5,1.7l0.4,2L324.8,234z M313.5,236.5l-0.4-2
	l-7.5,1.7l0.4,2L313.5,236.5z M381.4,221l-0.4-2l-7.5,1.7l0.4,2L381.4,221z M387,218.7l-4.1,6.6l1.7,1.1l5.2-8.3l-8.3-5.2l-1.1,1.7
	L387,218.7z M336.4,320.2l1.3-1.6l-6.1-4.8l-1.3,1.6L336.4,320.2z M345.5,327.4l1.3-1.6l-6.1-4.8l-1.3,1.6L345.5,327.4z M327.3,313
	l1.3-1.6l-6.1-4.8l-1.3,1.6L327.3,313z M318.3,305.7l1.3-1.6l-6.1-4.8l-1.3,1.6L318.3,305.7z M309.2,298.5l1.3-1.6l-6.1-4.8
	l-1.3,1.6L309.2,298.5z M300.1,291.2l1.3-1.6l-6.1-4.8l-1.3,1.6L300.1,291.2z M354.6,334.7l1.3-1.6l-6.1-4.8l-1.3,1.6L354.6,334.7z
	 M359.9,337.6l-7.7,0.9l0.2,2l9.7-1.1l-1.1-9.7l-2,0.2L359.9,337.6z"/>
<g id="all_x5F_relations" opacity="0.15">
	<path fill-rule="evenodd" clip-rule="evenodd" fill="#FFFFFF" d="M349.5,136.6l-1.3,0.7l-1.1-2.2l1.4-0.6L349.5,136.6z
		 M346.7,130.5l-1.4,0.6l1,2.2l1.4-0.6L346.7,130.5z M345.1,126.5l-1.4,0.5l0.9,2.3l1.4-0.6L345.1,126.5z M354.6,145.8l-1.3,0.8
		c0.4,0.7,0.8,1.4,1.3,2.1l1.3-0.8C355.4,147.2,355,146.5,354.6,145.8z M352.4,142.1l-1.3,0.7c0.4,0.7,0.8,1.4,1.2,2.1l1.3-0.8
		C353.2,143.5,352.8,142.8,352.4,142.1z M350.4,138.3L349,139c0.3,0.7,0.8,1.4,1.1,2.1l1.3-0.7C351.1,139.7,350.7,139.1,350.4,138.3
		z M361.8,156.6l-1.2,0.9l1.5,1.9l1.2-0.9L361.8,156.6z M359.3,153.1l-1.2,0.9l1.4,2l1.2-0.9L359.3,153.1z M356.9,149.5l-1.3,0.8
		l1.3,2l1.2-0.8L356.9,149.5z M370.1,166.5l-1.1,1l1.7,1.7l1.1-1L370.1,166.5z M367.2,163.3l-1.1,1l1.6,1.8l1.1-1L367.2,163.3z
		 M364.5,160l-1.2,0.9l1.6,1.9l1.1-1L364.5,160z M379.4,175.4l-1,1.1c0.6,0.5,1.2,1.1,1.8,1.6l1-1.1
		C380.6,176.5,380,176,379.4,175.4z M376.2,172.6l-1,1.1c0.6,0.6,1.2,1.1,1.8,1.6l1-1.1C377.4,173.7,376.8,173.1,376.2,172.6z
		 M373.1,169.6l-1.1,1.1c0.6,0.6,1.2,1.1,1.7,1.7l1-1.1C374.3,170.7,373.7,170.2,373.1,169.6z M389.6,183.4l-0.9,1.2l2,1.4l0.8-1.2
		L389.6,183.4z M386.1,180.9l-0.9,1.2l1.9,1.5l0.9-1.2L386.1,180.9z M382.7,178.2l-0.9,1.2l1.9,1.5l0.9-1.2L382.7,178.2z"/>
	<path fill-rule="evenodd" clip-rule="evenodd" fill="#FFFFFF" d="M223.4,101.5l-0.3,1.5l-2.4-0.5l0.3-1.5L223.4,101.5z M216.9,99.9
		l-0.4,1.4l2.4,0.6l0.4-1.5L216.9,99.9z M212.7,98.7l-0.4,1.4l2.3,0.7l0.4-1.4L212.7,98.7z M233.8,103.3l-0.2,1.5
		c0.8,0.1,1.6,0.2,2.4,0.3l0.2-1.5C235.3,103.5,234.5,103.4,233.8,103.3z M229.5,102.7l-0.2,1.5c0.8,0.1,1.6,0.3,2.4,0.4l0.2-1.5
		C231.1,103,230.3,102.8,229.5,102.7z M225.3,101.9l-0.3,1.5c0.8,0.2,1.6,0.3,2.4,0.4l0.3-1.5C226.8,102.2,226.1,102.1,225.3,101.9z
		 M246.6,104.3v1.5h2.4v-1.5H246.6z M242.3,104.1l-0.1,1.5l2.4,0.1l0.1-1.5L242.3,104.1z M238.1,103.8l-0.1,1.5l2.4,0.2l0.1-1.5
		L238.1,103.8z M259.6,104l0.1,1.5l2.4-0.2l-0.1-1.5L259.6,104z M255.3,104.3l0.1,1.5l2.4-0.1l-0.1-1.5L255.3,104.3z M251,104.4v1.5
		h2.4v-1.5H251z M272.4,102.3l0.3,1.5c0.8-0.1,1.6-0.3,2.4-0.4l-0.3-1.5C274,102.1,273.2,102.2,272.4,102.3z M268.1,103.1l0.2,1.5
		c0.8-0.1,1.6-0.2,2.4-0.4l-0.2-1.5C269.7,102.8,268.9,103,268.1,103.1z M263.9,103.6l0.2,1.5c0.8-0.1,1.6-0.2,2.4-0.3l-0.2-1.5
		C265.5,103.4,264.7,103.5,263.9,103.6z M285,99.4l0.4,1.4l2.3-0.7l-0.4-1.4L285,99.4z M280.8,100.5l0.4,1.5l2.4-0.6l-0.4-1.4
		L280.8,100.5z M276.6,101.5l0.3,1.5l2.4-0.5L279,101L276.6,101.5z"/>
	<path fill-rule="evenodd" clip-rule="evenodd" fill="#FFFFFF" d="M117.3,178.2l0.9,1.2l-1.9,1.5l-0.9-1.2L117.3,178.2z M112,182.3
		l0.9,1.2l1.9-1.5l-0.9-1.2L112,182.3z M108.5,184.8l0.8,1.2l2-1.4l-0.9-1.2L108.5,184.8z M125.2,171.2l1,1.1
		c0.6-0.6,1.2-1.1,1.7-1.7l-1.1-1.1C126.4,170.2,125.8,170.7,125.2,171.2z M122,174.2l1,1.1c0.6-0.5,1.2-1.1,1.8-1.6l-1-1.1
		C123.2,173.1,122.6,173.7,122,174.2z M118.8,177l1,1.1c0.6-0.5,1.2-1.1,1.8-1.6l-1-1.1C120,176,119.4,176.5,118.8,177z M134,161.8
		l1.1,1l1.6-1.9l-1.2-0.9L134,161.8z M131.2,165l1.1,1l1.6-1.8l-1.1-1L131.2,165z M128.3,168.2l1.1,1l1.7-1.7l-1.1-1L128.3,168.2z
		 M141.8,151.5l1.2,0.8l1.3-2l-1.3-0.8L141.8,151.5z M139.4,155l1.2,0.9l1.4-2l-1.2-0.9L139.4,155z M136.8,158.4l1.2,0.9l1.5-1.9
		l-1.2-0.9L136.8,158.4z M148.5,140.4l1.3,0.7c0.4-0.7,0.8-1.4,1.1-2.1l-1.3-0.7C149.3,139,148.9,139.7,148.5,140.4z M146.4,144.2
		l1.3,0.8c0.4-0.7,0.8-1.4,1.2-2.1l-1.3-0.7C147.2,142.8,146.8,143.5,146.4,144.2z M144.2,147.9l1.3,0.8c0.5-0.7,0.8-1.4,1.3-2.1
		l-1.3-0.8C145,146.5,144.7,147.2,144.2,147.9z M154,128.7l1.4,0.6l0.9-2.3l-1.4-0.5L154,128.7z M152.3,132.7l1.4,0.6l1-2.2
		l-1.4-0.6L152.3,132.7z M150.5,136.6l1.3,0.7l1.1-2.2l-1.4-0.6L150.5,136.6z"/>
	<path fill-rule="evenodd" clip-rule="evenodd" fill="#FFFFFF" d="M111.1,309h1.5v2.4h-1.5V309z M111,315.7l1.5,0.1l0.1-2.4h-1.5
		L111,315.7z M110.8,320l1.5,0.1l0.2-2.4l-1.5-0.1L110.8,320z M110.6,298.5l1.5-0.1c-0.1-0.8-0.1-1.6-0.2-2.4l-1.5,0.2
		C110.5,296.9,110.5,297.7,110.6,298.5z M110.9,302.8l1.5-0.1c0-0.8-0.1-1.6-0.2-2.4l-1.5,0.1C110.9,301.2,110.9,302,110.9,302.8z
		 M111.1,307.1h1.5c0-0.8-0.1-1.6-0.1-2.4l-1.5,0.1C111.1,305.5,111.1,306.3,111.1,307.1z M108.7,285.7l1.5-0.3l-0.5-2.4l-1.5,0.3
		L108.7,285.7z M109.5,289.9l1.5-0.2l-0.4-2.4l-1.5,0.3L109.5,289.9z M110.1,294.2l1.5-0.2l-0.3-2.4l-1.5,0.2L110.1,294.2z
		 M105.6,273.2l1.4-0.4l-0.8-2.3l-1.4,0.5L105.6,273.2z M106.8,277.3l1.4-0.4l-0.7-2.3l-1.4,0.4L106.8,277.3z M107.8,281.4l1.5-0.3
		l-0.6-2.4l-1.5,0.4L107.8,281.4z M101.1,261l1.4-0.6c-0.3-0.7-0.6-1.5-1-2.2l-1.4,0.6C100.5,259.5,100.8,260.3,101.1,261z
		 M102.7,265l1.4-0.5c-0.3-0.8-0.6-1.5-0.9-2.3l-1.4,0.6C102.1,263.5,102.4,264.3,102.7,265z M104.2,269l1.4-0.5
		c-0.2-0.8-0.6-1.5-0.8-2.3l-1.4,0.5C103.6,267.5,103.9,268.3,104.2,269z M95.4,249.4l1.3-0.7l-1.2-2.1l-1.3,0.8L95.4,249.4z
		 M97.4,253.2l1.3-0.7l-1.1-2.2l-1.3,0.7L97.4,253.2z M99.3,257.1l1.4-0.6l-1-2.2l-1.3,0.7L99.3,257.1z"/>
	<path fill-rule="evenodd" clip-rule="evenodd" fill="#FFFFFF" d="M209.6,395.3l0.9-1.2l1.9,1.5l-0.9,1.2L209.6,395.3z M214.7,399.6
		l1-1.1l-1.9-1.6l-1,1.1L214.7,399.6z M217.9,402.5l1-1.1l-1.8-1.6l-1,1.1L217.9,402.5z M201,389.2l0.8-1.3c-0.7-0.4-1.3-0.9-2-1.3
		l-0.8,1.3C199.7,388.3,200.3,388.8,201,389.2z M204.6,391.6l0.9-1.2c-0.7-0.5-1.3-0.9-2-1.4l-0.8,1.2
		C203.3,390.7,203.9,391.2,204.6,391.6z M208,394.2l0.9-1.2c-0.6-0.5-1.3-1-2-1.4l-0.9,1.2C206.7,393.2,207.4,393.7,208,394.2z
		 M189.8,382.7l0.7-1.3l-2.2-1.1l-0.7,1.3L189.8,382.7z M193.6,384.7l0.7-1.3l-2.1-1.2l-0.7,1.3L193.6,384.7z M197.3,386.9l0.8-1.3
		l-2.1-1.3l-0.8,1.3L197.3,386.9z M178,377.4l0.5-1.4l-2.3-0.8l-0.5,1.4L178,377.4z M182,379l0.6-1.4l-2.2-0.9l-0.6,1.4L182,379z
		 M185.9,380.8l0.6-1.4l-2.2-1l-0.6,1.4L185.9,380.8z M165.8,373.3l0.4-1.4c-0.8-0.2-1.6-0.5-2.3-0.6l-0.4,1.5
		C164.2,372.9,165,373.1,165.8,373.3z M169.9,374.5l0.4-1.4c-0.8-0.3-1.5-0.5-2.3-0.7l-0.4,1.4C168.4,374,169.1,374.3,169.9,374.5z
		 M174,375.9l0.5-1.4c-0.8-0.3-1.5-0.5-2.3-0.8l-0.5,1.4C172.5,375.4,173.2,375.6,174,375.9z M153.1,370.5l0.2-1.5l-2.4-0.4
		l-0.2,1.5L153.1,370.5z M157.4,371.3l0.3-1.5l-2.4-0.5l-0.3,1.5L157.4,371.3z M161.6,372.2l0.3-1.5l-2.4-0.6l-0.3,1.5L161.6,372.2z
		"/>
	<path fill-rule="evenodd" clip-rule="evenodd" fill="#FFFFFF" d="M338.4,372.2l-0.3-1.5l2.4-0.6l0.3,1.5L338.4,372.2z M345,370.8
		l-0.3-1.5l-2.4,0.5l0.3,1.5L345,370.8z M349.2,370.2l-0.2-1.5l-2.4,0.4l0.2,1.5L349.2,370.2z M328.3,375.1l-0.5-1.4
		c-0.8,0.3-1.5,0.5-2.3,0.8l0.5,1.4C326.8,375.6,327.5,375.4,328.3,375.1z M332.4,373.8l-0.4-1.4c-0.8,0.2-1.6,0.4-2.3,0.7l0.4,1.4
		C330.9,374.3,331.6,374,332.4,373.8z M336.5,372.7l-0.4-1.5c-0.8,0.2-1.6,0.4-2.3,0.6l0.4,1.4C335,373.1,335.8,372.9,336.5,372.7z
		 M316.2,379.8l-0.6-1.4l-2.2,1l0.6,1.4L316.2,379.8z M320.2,378.1l-0.6-1.4l-2.2,0.9l0.6,1.4L320.2,378.1z M324.2,376.5l-0.5-1.4
		l-2.3,0.8l0.5,1.4L324.2,376.5z M304.7,385.7l-0.8-1.3l-2.1,1.3l0.8,1.3L304.7,385.7z M308.5,383.6l-0.7-1.3l-2.1,1.2l0.7,1.3
		L308.5,383.6z M312.3,381.6l-0.7-1.3l-2.2,1.1l0.7,1.3L312.3,381.6z M293.9,392.7l-0.9-1.2c-0.7,0.5-1.3,0.9-2,1.4l0.9,1.2
		C292.6,393.7,293.2,393.2,293.9,392.7z M297.4,390.3l-0.8-1.2c-0.7,0.4-1.3,0.9-2,1.4l0.9,1.2C296.1,391.2,296.7,390.7,297.4,390.3
		z M301,387.9l-0.8-1.3c-0.7,0.4-1.4,0.9-2,1.3l0.8,1.3C299.7,388.8,300.3,388.3,301,387.9z M283.8,400.9l-1-1.1l-1.8,1.6l1,1.1
		L283.8,400.9z M287.1,398.1l-1-1.1l-1.9,1.6l1,1.1L287.1,398.1z M290.4,395.4l-0.9-1.2l-1.9,1.5l0.9,1.2L290.4,395.4z"/>
	<path fill-rule="evenodd" clip-rule="evenodd" fill="#FFFFFF" d="M400.7,257.1l-1.4-0.6l1-2.2l1.3,0.7L400.7,257.1z M403.7,251.1
		l-1.3-0.7l-1.1,2.2l1.3,0.7L403.7,251.1z M405.8,247.4l-1.3-0.8l-1.2,2.1l1.3,0.7L405.8,247.4z M396.6,266.8l-1.4-0.5
		c-0.3,0.8-0.6,1.5-0.8,2.3l1.4,0.5C396,268.3,396.4,267.6,396.6,266.8z M398.2,262.8l-1.4-0.6c-0.3,0.7-0.6,1.5-0.9,2.3l1.4,0.5
		C397.6,264.3,397.9,263.5,398.2,262.8z M399.9,258.8l-1.4-0.6c-0.4,0.7-0.6,1.5-1,2.2l1.4,0.6C399.2,260.3,399.5,259.6,399.9,258.8
		z M392.8,279.1l-1.5-0.4l-0.6,2.4l1.5,0.3L392.8,279.1z M393.9,275l-1.4-0.4l-0.7,2.3l1.4,0.4L393.9,275z M395.2,270.9l-1.4-0.5
		l-0.8,2.3l1.4,0.4L395.2,270.9z M390.2,291.8l-1.5-0.2l-0.3,2.4l1.5,0.2L390.2,291.8z M390.9,287.6l-1.5-0.3l-0.4,2.4l1.5,0.2
		L390.9,287.6z M391.8,283.4l-1.5-0.3l-0.5,2.4l1.5,0.3L391.8,283.4z M389,304.7l-1.5-0.1c0,0.8-0.1,1.6-0.1,2.4h1.5
		C388.9,306.3,388.9,305.5,389,304.7z M389.2,300.4l-1.5-0.1c-0.1,0.8-0.1,1.6-0.2,2.4l1.5,0.1C389.1,302,389.1,301.2,389.2,300.4z
		 M389.6,296.1l-1.5-0.2c-0.1,0.8-0.2,1.6-0.2,2.4l1.5,0.1C389.5,297.7,389.5,296.9,389.6,296.1z M389.1,317.6l-1.5,0.1l0.2,2.4
		l1.5-0.1L389.1,317.6z M388.9,313.3h-1.5l0.1,2.4l1.5-0.1L388.9,313.3z M388.9,309h-1.5v2.4h1.5V309z"/>
	<path fill-rule="evenodd" clip-rule="evenodd" fill="#FFFFFF" d="M337.9,367.4l0.1-1.5l2.5,0.2l-0.1,1.5L337.9,367.4z M344.8,367.9
		l0.1-1.5l-2.5-0.2l-0.1,1.5L344.8,367.9z M349.2,368.3l0.1-1.5l-2.5-0.2l-0.1,1.5L349.2,368.3z M327,366.6l0.1-1.5l-2.5-0.2
		l-0.1,1.5L327,366.6z M331.4,366.9l0.1-1.5l-2.5-0.2l-0.1,1.5L331.4,366.9z M335.9,367.2l0.1-1.5l-2.5-0.2l-0.1,1.5L335.9,367.2z
		 M313.7,365.7l0.1-1.5l-2.5-0.1l-0.1,1.5L313.7,365.7z M318.1,366l0.1-1.5l-2.5-0.2l-0.1,1.5L318.1,366z M322.5,366.3l0.1-1.5
		l-2.5-0.2l-0.1,1.5L322.5,366.3z M300.3,365l0.1-1.5l-2.5-0.1l-0.1,1.5L300.3,365z M304.7,365.2l0.1-1.5l-2.5-0.1l-0.1,1.5
		L304.7,365.2z M309.2,365.5l0.1-1.5l-2.5-0.1l-0.1,1.5L309.2,365.5z M286.9,364.5V363l-2.5-0.1v1.5L286.9,364.5z M291.4,364.7
		l0.1-1.5l-2.5-0.1l-0.1,1.5L291.4,364.7z M295.8,364.8l0.1-1.5l-2.5-0.1l-0.1,1.5L295.8,364.8z M273.5,364.1v-1.5H271v1.5H273.5z
		 M278,364.2v-1.5l-2.5-0.1v1.5L278,364.2z M282.4,364.4v-1.5l-2.5-0.1v1.5L282.4,364.4z M260.2,363.9v-1.5h-2.5v1.5H260.2z
		 M264.6,364v-1.5h-2.5v1.5H264.6z M269.1,364v-1.5h-2.5v1.5H269.1z M246.8,363.9v-1.5h-2.5v1.5H246.8z M251.2,363.9v-1.5h-2.5v1.5
		H251.2z M255.7,363.9v-1.5h-2.5v1.5H255.7z M233.4,364v-1.5h-2.5v1.5H233.4z M237.9,363.9v-1.5h-2.5v1.5H237.9z M242.3,363.9v-1.5
		h-2.5v1.5H242.3z M220,364.3v-1.5l-2.5,0.1v1.5L220,364.3z M224.5,364.2v-1.5l-2.5,0.1v1.5L224.5,364.2z M228.9,364.1v-1.5h-2.5
		v1.5H228.9z M206.7,364.7l-0.1-1.5l-2.5,0.1l0.1,1.5L206.7,364.7z M211.1,364.6l-0.1-1.5l-2.5,0.1l0.1,1.5L211.1,364.6z
		 M215.5,364.4v-1.5L213,363v1.5L215.5,364.4z M193.3,365.3l-0.1-1.5l-2.5,0.1l0.1,1.5L193.3,365.3z M197.7,365.1l-0.1-1.5l-2.5,0.1
		l0.1,1.5L197.7,365.1z M202.2,364.9l-0.1-1.5l-2.5,0.1l0.1,1.5L202.2,364.9z M179.9,366.1l-0.1-1.5l-2.5,0.2l0.1,1.5L179.9,366.1z
		 M184.4,365.8l-0.1-1.5l-2.5,0.2l0.1,1.5L184.4,365.8z M188.8,365.6l-0.1-1.5l-2.5,0.1l0.1,1.5L188.8,365.6z M166.6,367l-0.1-1.5
		l-2.5,0.2l0.1,1.5L166.6,367z M171,366.7l-0.1-1.5l-2.5,0.2l0.1,1.5L171,366.7z M175.4,366.4l-0.1-1.5l-2.5,0.2l0.1,1.5
		L175.4,366.4z M153.2,368.1l-0.1-1.5l-2.5,0.2l0.1,1.5L153.2,368.1z M157.7,367.7l-0.1-1.5l-2.5,0.2l0.1,1.5L157.7,367.7z
		 M162.1,367.4l-0.1-1.5l-2.5,0.2l0.1,1.5L162.1,367.4z"/>
	<path fill-rule="evenodd" clip-rule="evenodd" fill="#FFFFFF" d="M344.9,138.2l-1.5,0.2L343,136l1.5-0.2L344.9,138.2z M343.9,131.3
		l-1.5,0.2l0.3,2.5l1.5-0.2L343.9,131.3z M343.3,126.9l-1.5,0.2l0.3,2.5l1.5-0.2L343.3,126.9z M346.5,149l-1.5,0.2l0.4,2.5l1.5-0.2
		L346.5,149z M345.8,144.6l-1.5,0.2l0.4,2.5l1.5-0.2L345.8,144.6z M345.2,140.2l-1.5,0.2l0.4,2.5l1.5-0.2L345.2,140.2z M348.6,162.2
		l-1.5,0.2l0.4,2.5l1.5-0.3L348.6,162.2z M347.9,157.8l-1.5,0.2l0.4,2.5l1.5-0.2L347.9,157.8z M347.2,153.4l-1.5,0.2l0.4,2.5
		l1.5-0.2L347.2,153.4z M350.9,175.4l-1.5,0.3l0.5,2.4l1.5-0.3L350.9,175.4z M350.2,171l-1.5,0.3l0.4,2.4l1.5-0.3L350.2,171z
		 M349.4,166.6l-1.5,0.3l0.4,2.4l1.5-0.3L349.4,166.6z M353.4,188.5l-1.5,0.3l0.5,2.4l1.5-0.3L353.4,188.5z M352.6,184.2l-1.5,0.3
		l0.5,2.4l1.5-0.3L352.6,184.2z M351.8,179.8l-1.5,0.3l0.5,2.4l1.5-0.3L351.8,179.8z M356,201.7l-1.5,0.3l0.5,2.4l1.5-0.3L356,201.7
		z M355.1,197.3l-1.5,0.3l0.5,2.4l1.5-0.3L355.1,197.3z M354.3,192.9l-1.5,0.3l0.5,2.4l1.5-0.3L354.3,192.9z M358.8,214.7l-1.5,0.3
		l0.5,2.4l1.5-0.3L358.8,214.7z M357.9,210.4l-1.5,0.3l0.5,2.4l1.5-0.3L357.9,210.4z M356.9,206l-1.5,0.3l0.5,2.4l1.5-0.3L356.9,206
		z M361.7,227.8l-1.5,0.3l0.6,2.4l1.5-0.3L361.7,227.8z M360.7,223.5l-1.5,0.3l0.6,2.4l1.5-0.3L360.7,223.5z M359.8,219.1l-1.5,0.3
		l0.5,2.4l1.5-0.3L359.8,219.1z M364.8,240.8l-1.5,0.4l0.6,2.4l1.5-0.4L364.8,240.8z M363.8,236.5l-1.5,0.3l0.6,2.4l1.5-0.4
		L363.8,236.5z M362.8,232.2l-1.5,0.3l0.6,2.4l1.5-0.3L362.8,232.2z M368.1,253.8l-1.5,0.4l0.6,2.4l1.5-0.4L368.1,253.8z M367,249.5
		l-1.5,0.4l0.6,2.4l1.5-0.4L367,249.5z M365.9,245.2l-1.5,0.4l0.6,2.4l1.5-0.4L365.9,245.2z M371.5,266.7l-1.4,0.4l0.6,2.4l1.4-0.4
		L371.5,266.7z M370.3,262.4l-1.4,0.4l0.6,2.4l1.4-0.4L370.3,262.4z M369.2,258.1l-1.5,0.4l0.6,2.4l1.5-0.4L369.2,258.1z
		 M375.1,279.6l-1.4,0.4l0.7,2.4l1.4-0.4L375.1,279.6z M373.9,275.3l-1.4,0.4l0.7,2.4l1.4-0.4L373.9,275.3z M372.7,271.1l-1.4,0.4
		l0.7,2.4l1.4-0.4L372.7,271.1z M378.8,292.5l-1.4,0.4l0.7,2.4l1.4-0.4L378.8,292.5z M377.5,288.2l-1.4,0.4l0.7,2.4l1.4-0.4
		L377.5,288.2z M376.3,283.9l-1.4,0.4l0.7,2.4l1.4-0.4L376.3,283.9z M382.7,305.3l-1.4,0.4l0.7,2.4l1.4-0.4L382.7,305.3z M381.3,301
		l-1.4,0.4l0.7,2.4l1.4-0.4L381.3,301z M380.1,296.8l-1.4,0.4l0.7,2.4l1.4-0.4L380.1,296.8z M386.7,318.1l-1.4,0.5l0.8,2.4l1.4-0.5
		L386.7,318.1z M385.3,313.8l-1.4,0.5l0.8,2.4l1.4-0.5L385.3,313.8z M384,309.6l-1.4,0.4l0.8,2.4l1.4-0.5L384,309.6z"/>
	<path fill-rule="evenodd" clip-rule="evenodd" fill="#FFFFFF" d="M116,309.6l1.4,0.4l-0.8,2.4l-1.4-0.5L116,309.6z M113.9,316.2
		l1.4,0.5l0.8-2.4l-1.4-0.5L113.9,316.2z M112.6,320.4l1.4,0.5l0.8-2.4l-1.4-0.5L112.6,320.4z M119.2,299.1l1.4,0.4l0.7-2.4
		l-1.4-0.4L119.2,299.1z M117.9,303.4l1.4,0.4l0.7-2.4l-1.4-0.4L117.9,303.4z M116.6,307.6l1.4,0.4l0.7-2.4l-1.4-0.4L116.6,307.6z
		 M123,286.3l1.4,0.4l0.7-2.4l-1.4-0.4L123,286.3z M121.8,290.6l1.4,0.4l0.7-2.4l-1.4-0.4L121.8,290.6z M120.5,294.8l1.4,0.4
		l0.7-2.4l-1.4-0.4L120.5,294.8z M126.7,273.4l1.4,0.4l0.7-2.4l-1.4-0.4L126.7,273.4z M125.5,277.7l1.4,0.4l0.7-2.4l-1.4-0.4
		L125.5,277.7z M124.3,282l1.4,0.4l0.7-2.4l-1.4-0.4L124.3,282z M130.2,260.5l1.5,0.4l0.6-2.4l-1.5-0.4L130.2,260.5z M129,264.8
		l1.4,0.4l0.6-2.4l-1.4-0.4L129,264.8z M127.9,269.1l1.4,0.4l0.6-2.4l-1.4-0.4L127.9,269.1z M133.5,247.6l1.5,0.4l0.6-2.4l-1.5-0.4
		L133.5,247.6z M132.4,251.9l1.5,0.4l0.6-2.4l-1.5-0.4L132.4,251.9z M131.3,256.2l1.5,0.4l0.6-2.4l-1.5-0.4L131.3,256.2z
		 M136.7,234.6l1.5,0.3l0.6-2.4l-1.5-0.3L136.7,234.6z M135.6,238.9l1.5,0.4l0.6-2.4l-1.5-0.3L135.6,238.9z M134.6,243.2l1.5,0.4
		l0.6-2.4l-1.5-0.4L134.6,243.2z M139.7,221.5l1.5,0.3l0.5-2.4l-1.5-0.3L139.7,221.5z M138.7,225.9l1.5,0.3l0.6-2.4l-1.5-0.3
		L138.7,225.9z M137.7,230.2l1.5,0.3l0.6-2.4l-1.5-0.3L137.7,230.2z M142.5,208.4l1.5,0.3l0.5-2.4L143,206L142.5,208.4z
		 M141.6,212.8l1.5,0.3l0.5-2.4l-1.5-0.3L141.6,212.8z M140.7,217.1l1.5,0.3l0.5-2.4l-1.5-0.3L140.7,217.1z M145.2,195.3l1.5,0.3
		l0.5-2.4l-1.5-0.3L145.2,195.3z M144.4,199.7l1.5,0.3l0.5-2.4l-1.5-0.3L144.4,199.7z M143.5,204.1l1.5,0.3l0.5-2.4l-1.5-0.3
		L143.5,204.1z M147.8,182.2l1.5,0.3l0.5-2.4l-1.5-0.3L147.8,182.2z M147,186.6l1.5,0.3l0.5-2.4l-1.5-0.3L147,186.6z M146.1,190.9
		l1.5,0.3l0.5-2.4l-1.5-0.3L146.1,190.9z M150.2,169l1.5,0.3l0.4-2.4l-1.5-0.3L150.2,169z M149.4,173.4l1.5,0.3l0.4-2.4l-1.5-0.3
		L149.4,173.4z M148.6,177.8l1.5,0.3l0.5-2.4l-1.5-0.3L148.6,177.8z M152.4,155.8l1.5,0.2l0.4-2.5l-1.5-0.2L152.4,155.8z
		 M151.7,160.2l1.5,0.2l0.4-2.5l-1.5-0.2L151.7,160.2z M151,164.6l1.5,0.3l0.4-2.5l-1.5-0.2L151,164.6z M154.5,142.6l1.5,0.2
		l0.4-2.5l-1.5-0.2L154.5,142.6z M153.8,147l1.5,0.2l0.4-2.5l-1.5-0.2L153.8,147z M153.1,151.4l1.5,0.2l0.4-2.5l-1.5-0.2
		L153.1,151.4z M156.4,129.4l1.5,0.2l0.3-2.5l-1.5-0.2L156.4,129.4z M155.8,133.8l1.5,0.2l0.3-2.5l-1.5-0.2L155.8,133.8z
		 M155.1,138.2l1.5,0.2l0.3-2.5l-1.5-0.2L155.1,138.2z"/>
	<path fill-rule="evenodd" clip-rule="evenodd" fill="#FFFFFF" d="M221.7,106.1l-0.8,1.3l-2.1-1.3l0.8-1.3L221.7,106.1z
		 M215.8,102.6l-0.8,1.3l2.1,1.3l0.8-1.3L215.8,102.6z M212,100.4l-0.8,1.3l2.1,1.3l0.8-1.3L212,100.4z M231.2,111.6l-0.7,1.3
		l2.2,1.2l0.7-1.3L231.2,111.6z M227.3,109.4l-0.7,1.3l2.2,1.2l0.7-1.3L227.3,109.4z M223.5,107.1l-0.8,1.3l2.2,1.2l0.8-1.3
		L223.5,107.1z M242.9,118.1l-0.7,1.3l2.2,1.2l0.7-1.3L242.9,118.1z M239,116l-0.7,1.3l2.2,1.2l0.7-1.3L239,116z M235.1,113.8
		l-0.7,1.3l2.2,1.2l0.7-1.3L235.1,113.8z M254.6,124.6l-0.7,1.3l2.2,1.2l0.7-1.3L254.6,124.6z M250.7,122.4l-0.7,1.3l2.2,1.2
		l0.7-1.3L250.7,122.4z M246.8,120.3l-0.7,1.3l2.2,1.2l0.7-1.3L246.8,120.3z M266.4,130.8l-0.7,1.3l2.2,1.1l0.7-1.3L266.4,130.8z
		 M262.5,128.8l-0.7,1.3l2.2,1.2l0.7-1.3L262.5,128.8z M258.6,126.7l-0.7,1.3l2.2,1.2l0.7-1.3L258.6,126.7z M278.3,137l-0.7,1.3
		l2.2,1.1l0.7-1.3L278.3,137z M274.3,134.9l-0.7,1.3l2.2,1.1l0.7-1.3L274.3,134.9z M270.4,132.9l-0.7,1.3l2.2,1.1l0.7-1.3
		L270.4,132.9z M302.3,148.8l-0.6,1.4l2.2,1.1l0.6-1.4L302.3,148.8z M298.3,146.9l-0.7,1.4l2.2,1.1l0.6-1.4L298.3,146.9z
		 M294.3,144.9l-0.7,1.3l2.2,1.1l0.7-1.3L294.3,144.9z M314.4,154.5l-0.6,1.4l2.3,1l0.6-1.4L314.4,154.5z M310.4,152.6l-0.6,1.4
		l2.3,1l0.6-1.4L310.4,152.6z M306.4,150.7l-0.6,1.4l2.2,1.1l0.6-1.4L306.4,150.7z M326.6,160l-0.6,1.4l2.3,1l0.6-1.4L326.6,160z
		 M322.5,158.2l-0.6,1.4l2.3,1l0.6-1.4L322.5,158.2z M318.5,156.4l-0.6,1.4l2.3,1l0.6-1.4L318.5,156.4z M290.3,142.9l-0.7,1.3
		l2.2,1.1l0.7-1.3L290.3,142.9z M286.3,141l-0.7,1.3l2.2,1.1l0.7-1.3L286.3,141z M282.3,139l-0.7,1.3l2.2,1.1l0.7-1.3L282.3,139z
		 M338.8,165.4l-0.6,1.4l2.3,1l0.6-1.4L338.8,165.4z M334.8,163.7l-0.6,1.4l2.3,1l0.6-1.4L334.8,163.7z M330.7,161.9l-0.6,1.4l2.3,1
		l0.6-1.4L330.7,161.9z M351.1,170.7l-0.6,1.4l2.3,1l0.6-1.4L351.1,170.7z M347,169l-0.6,1.4l2.3,1l0.6-1.4L347,169z M343,167.2
		l-0.6,1.4l2.3,1l0.6-1.4L343,167.2z M363.5,175.8l-0.6,1.4l2.3,0.9l0.6-1.4L363.5,175.8z M359.4,174.1l-0.6,1.4l2.3,0.9l0.6-1.4
		L359.4,174.1z M355.3,172.4l-0.6,1.4l2.3,1l0.6-1.4L355.3,172.4z M375.9,180.8l-0.5,1.4l2.3,0.9l0.5-1.4L375.9,180.8z M371.8,179.1
		l-0.6,1.4l2.3,0.9l0.5-1.4L371.8,179.1z M367.7,177.5l-0.6,1.4l2.3,0.9l0.6-1.4L367.7,177.5z M388.4,185.6l-0.5,1.4l2.3,0.9
		l0.5-1.4L388.4,185.6z M384.3,184l-0.5,1.4l2.3,0.9l0.5-1.4L384.3,184z M380.1,182.4l-0.5,1.4l2.3,0.9l0.5-1.4L380.1,182.4z"/>
	<path fill-rule="evenodd" clip-rule="evenodd" fill="#FFFFFF" d="M119.9,182.4l0.5,1.4l-2.3,0.9l-0.5-1.4L119.9,182.4z
		 M113.4,184.9l0.5,1.4l2.3-0.9l-0.5-1.4L113.4,184.9z M109.3,186.4l0.5,1.4l2.3-0.9l-0.5-1.4L109.3,186.4z M130,178.4l0.6,1.4
		l2.3-0.9l-0.6-1.4L130,178.4z M125.9,180l0.5,1.4l2.3-0.9l-0.6-1.4L125.9,180z M121.8,181.7l0.5,1.4l2.3-0.9l-0.5-1.4L121.8,181.7z
		 M142.5,173.4l0.6,1.4l2.3-1l-0.6-1.4L142.5,173.4z M138.3,175.1l0.6,1.4l2.3-0.9l-0.6-1.4L138.3,175.1z M134.2,176.7l0.6,1.4
		l2.3-0.9l-0.6-1.4L134.2,176.7z M154.8,168.2l0.6,1.4l2.3-1l-0.6-1.4L154.8,168.2z M150.7,169.9l0.6,1.4l2.3-1L153,169L150.7,169.9
		z M146.6,171.6l0.6,1.4l2.3-1l-0.6-1.4L146.6,171.6z M167.1,162.9l0.6,1.4l2.3-1l-0.6-1.4L167.1,162.9z M163,164.7l0.6,1.4l2.3-1
		l-0.6-1.4L163,164.7z M158.9,166.4l0.6,1.4l2.3-1l-0.6-1.4L158.9,166.4z M179.3,157.4l0.6,1.4l2.3-1l-0.6-1.4L179.3,157.4z
		 M175.2,159.2l0.6,1.4l2.3-1l-0.6-1.4L175.2,159.2z M171.2,161l0.6,1.4l2.3-1l-0.6-1.4L171.2,161z M191.4,151.8l0.6,1.4l2.2-1.1
		l-0.6-1.4L191.4,151.8z M187.4,153.7l0.6,1.4l2.3-1l-0.6-1.4L187.4,153.7z M183.3,155.5l0.6,1.4l2.3-1l-0.6-1.4L183.3,155.5z
		 M203.5,146l0.7,1.3l2.2-1.1l-0.7-1.3L203.5,146z M199.5,147.9l0.6,1.4l2.2-1.1l-0.7-1.4L199.5,147.9z M195.5,149.8l0.6,1.4
		l2.2-1.1l-0.6-1.4L195.5,149.8z M215.5,140.1l0.7,1.3l2.2-1.1l-0.7-1.3L215.5,140.1z M211.5,142.1l0.7,1.3l2.2-1.1l-0.7-1.3
		L211.5,142.1z M207.5,144l0.7,1.3l2.2-1.1l-0.7-1.3L207.5,144z M227.4,134l0.7,1.3l2.2-1.1l-0.7-1.3L227.4,134z M223.5,136.1
		l0.7,1.3l2.2-1.1l-0.7-1.3L223.5,136.1z M219.5,138.1l0.7,1.3l2.2-1.1l-0.7-1.3L219.5,138.1z M239.3,127.8l0.7,1.3l2.2-1.2
		l-0.7-1.3L239.3,127.8z M235.3,129.9l0.7,1.3l2.2-1.2l-0.7-1.3L235.3,129.9z M231.4,132l0.7,1.3l2.2-1.1l-0.7-1.3L231.4,132z
		 M262.8,115l0.7,1.3l2.2-1.2l-0.7-1.3L262.8,115z M258.9,117.2l0.7,1.3l2.2-1.2L261,116L258.9,117.2z M255,119.3l0.7,1.3l2.2-1.2
		l-0.7-1.3L255,119.3z M251.1,121.5l0.7,1.3l2.2-1.2l-0.7-1.3L251.1,121.5z M247.1,123.6l0.7,1.3l2.2-1.2l-0.7-1.3L247.1,123.6z
		 M243.2,125.7l0.7,1.3l2.2-1.2l-0.7-1.3L243.2,125.7z M274.4,108.4l0.8,1.3l2.2-1.2l-0.8-1.3L274.4,108.4z M270.5,110.6l0.7,1.3
		l2.2-1.2l-0.7-1.3L270.5,110.6z M266.7,112.8l0.7,1.3l2.2-1.2l-0.7-1.3L266.7,112.8z M285.9,101.6l0.8,1.3l2.1-1.3l-0.8-1.3
		L285.9,101.6z M282.1,103.9l0.8,1.3l2.1-1.3l-0.8-1.3L282.1,103.9z M278.3,106.1l0.8,1.3l2.1-1.3l-0.8-1.3L278.3,106.1z"/>
	<path fill-rule="evenodd" clip-rule="evenodd" fill="#FFFFFF" d="M396.5,254.5l-1.1-1l1.7-1.8l1.1,1L396.5,254.5z M401.3,249.4
		l-1.1-1l-1.7,1.8l1.1,1L401.3,249.4z M404.4,246.2l-1.1-1l-1.7,1.8l1.1,1L404.4,246.2z M389.1,262.5l-1.1-1l-1.7,1.8l1.1,1
		L389.1,262.5z M392.2,259.2l-1.1-1l-1.7,1.8l1.1,1L392.2,259.2z M395.2,255.9l-1.1-1l-1.7,1.8l1.1,1L395.2,255.9z M380.1,272.4
		l-1.1-1l-1.7,1.9l1.1,1L380.1,272.4z M383.1,269.1l-1.1-1l-1.7,1.8l1.1,1L383.1,269.1z M386.1,265.8l-1.1-1l-1.7,1.8l1.1,1
		L386.1,265.8z M371.3,282.4l-1.1-1l-1.6,1.9l1.1,1L371.3,282.4z M374.2,279.1l-1.1-1l-1.6,1.9l1.1,1L374.2,279.1z M377.2,275.7
		l-1.1-1l-1.6,1.9l1.1,1L377.2,275.7z M362.5,292.5l-1.1-1l-1.6,1.9l1.1,1L362.5,292.5z M365.4,289.1l-1.1-1l-1.6,1.9l1.1,1
		L365.4,289.1z M368.3,285.8l-1.1-1l-1.6,1.9l1.1,1L368.3,285.8z M353.9,302.7l-1.2-1l-1.6,1.9l1.2,1L353.9,302.7z M356.8,299.3
		l-1.1-1l-1.6,1.9l1.2,1L356.8,299.3z M359.6,295.9l-1.1-1l-1.6,1.9l1.1,1L359.6,295.9z M345.4,313.1l-1.2-0.9l-1.6,1.9l1.2,0.9
		L345.4,313.1z M348.2,309.6l-1.2-1l-1.6,1.9l1.2,0.9L348.2,309.6z M351,306.2l-1.2-1l-1.6,1.9l1.2,1L351,306.2z M337,323.5
		l-1.2-0.9l-1.5,2l1.2,0.9L337,323.5z M339.8,320l-1.2-0.9L337,321l1.2,0.9L339.8,320z M342.6,316.6l-1.2-0.9l-1.6,1.9l1.2,0.9
		L342.6,316.6z M328.8,334.1l-1.2-0.9l-1.5,2l1.2,0.9L328.8,334.1z M331.5,330.5l-1.2-0.9l-1.5,2l1.2,0.9L331.5,330.5z M334.3,327
		l-1.2-0.9l-1.5,2l1.2,0.9L334.3,327z M320.7,344.7l-1.2-0.9l-1.5,2l1.2,0.9L320.7,344.7z M323.3,341.1l-1.2-0.9l-1.5,2l1.2,0.9
		L323.3,341.1z M326,337.6l-1.2-0.9l-1.5,2l1.2,0.9L326,337.6z M304.8,366.3l-1.2-0.9l-1.4,2l1.2,0.9L304.8,366.3z M307.4,362.6
		l-1.2-0.9l-1.4,2l1.2,0.9L307.4,362.6z M310,359l-1.2-0.9l-1.5,2l1.2,0.9L310,359z M312.7,355.4l-1.2-0.9l-1.5,2l1.2,0.9
		L312.7,355.4z M315.3,351.8l-1.2-0.9l-1.5,2l1.2,0.9L315.3,351.8z M318,348.3l-1.2-0.9l-1.5,2l1.2,0.9L318,348.3z M297.1,377.2
		l-1.2-0.9l-1.4,2l1.2,0.9L297.1,377.2z M299.6,373.5l-1.2-0.9l-1.4,2l1.2,0.9L299.6,373.5z M302.2,369.9L301,369l-1.4,2l1.2,0.9
		L302.2,369.9z M289.5,388.2l-1.2-0.8l-1.4,2.1l1.2,0.8L289.5,388.2z M292,384.5l-1.2-0.8l-1.4,2.1l1.2,0.8L292,384.5z M294.5,380.8
		l-1.2-0.9l-1.4,2l1.2,0.9L294.5,380.8z M282,399.3l-1.2-0.8l-1.4,2.1l1.3,0.8L282,399.3z M284.5,395.6l-1.2-0.8l-1.4,2.1l1.2,0.8
		L284.5,395.6z M286.9,391.9l-1.2-0.8l-1.4,2.1l1.2,0.8L286.9,391.9z"/>
	<path fill-rule="evenodd" clip-rule="evenodd" fill="#FFFFFF" d="M396.5,254.5l-1.1-1l1.7-1.8l1.1,1L396.5,254.5z M401.3,249.4
		l-1.1-1l-1.7,1.8l1.1,1L401.3,249.4z M404.4,246.2l-1.1-1l-1.7,1.8l1.1,1L404.4,246.2z M389.1,262.5l-1.1-1l-1.7,1.8l1.1,1
		L389.1,262.5z M392.2,259.2l-1.1-1l-1.7,1.8l1.1,1L392.2,259.2z M395.2,255.9l-1.1-1l-1.7,1.8l1.1,1L395.2,255.9z M380.1,272.4
		l-1.1-1l-1.7,1.9l1.1,1L380.1,272.4z M383.1,269.1l-1.1-1l-1.7,1.8l1.1,1L383.1,269.1z M386.1,265.8l-1.1-1l-1.7,1.8l1.1,1
		L386.1,265.8z M371.3,282.4l-1.1-1l-1.6,1.9l1.1,1L371.3,282.4z M374.2,279.1l-1.1-1l-1.6,1.9l1.1,1L374.2,279.1z M377.2,275.7
		l-1.1-1l-1.6,1.9l1.1,1L377.2,275.7z M362.5,292.5l-1.1-1l-1.6,1.9l1.1,1L362.5,292.5z M365.4,289.1l-1.1-1l-1.6,1.9l1.1,1
		L365.4,289.1z M368.3,285.8l-1.1-1l-1.6,1.9l1.1,1L368.3,285.8z M353.9,302.7l-1.2-1l-1.6,1.9l1.2,1L353.9,302.7z M356.8,299.3
		l-1.1-1l-1.6,1.9l1.2,1L356.8,299.3z M359.6,295.9l-1.1-1l-1.6,1.9l1.1,1L359.6,295.9z M345.4,313.1l-1.2-0.9l-1.6,1.9l1.2,0.9
		L345.4,313.1z M348.2,309.6l-1.2-1l-1.6,1.9l1.2,0.9L348.2,309.6z M351,306.2l-1.2-1l-1.6,1.9l1.2,1L351,306.2z M337,323.5
		l-1.2-0.9l-1.5,2l1.2,0.9L337,323.5z M339.8,320l-1.2-0.9L337,321l1.2,0.9L339.8,320z M342.6,316.6l-1.2-0.9l-1.6,1.9l1.2,0.9
		L342.6,316.6z M328.8,334.1l-1.2-0.9l-1.5,2l1.2,0.9L328.8,334.1z M331.5,330.5l-1.2-0.9l-1.5,2l1.2,0.9L331.5,330.5z M334.3,327
		l-1.2-0.9l-1.5,2l1.2,0.9L334.3,327z M320.7,344.7l-1.2-0.9l-1.5,2l1.2,0.9L320.7,344.7z M323.3,341.1l-1.2-0.9l-1.5,2l1.2,0.9
		L323.3,341.1z M326,337.6l-1.2-0.9l-1.5,2l1.2,0.9L326,337.6z M312.7,355.4l-1.2-0.9l-1.5,2l1.2,0.9L312.7,355.4z M315.3,351.8
		l-1.2-0.9l-1.5,2l1.2,0.9L315.3,351.8z M318,348.3l-1.2-0.9l-1.5,2l1.2,0.9L318,348.3z M304.8,366.3l-1.2-0.9l-1.4,2l1.2,0.9
		L304.8,366.3z M307.4,362.6l-1.2-0.9l-1.4,2l1.2,0.9L307.4,362.6z M310,359l-1.2-0.9l-1.5,2l1.2,0.9L310,359z M289.5,388.2
		l-1.2-0.8l-1.4,2.1l1.2,0.8L289.5,388.2z M292,384.5l-1.2-0.8l-1.4,2.1l1.2,0.8L292,384.5z M294.5,380.8l-1.2-0.9l-1.4,2l1.2,0.9
		L294.5,380.8z M297.1,377.2l-1.2-0.9l-1.4,2l1.2,0.9L297.1,377.2z M299.6,373.5l-1.2-0.9l-1.4,2l1.2,0.9L299.6,373.5z M302.2,369.9
		L301,369l-1.4,2l1.2,0.9L302.2,369.9z M282,399.3l-1.2-0.8l-1.4,2.1l1.3,0.8L282,399.3z M284.5,395.6l-1.2-0.8l-1.4,2.1l1.2,0.8
		L284.5,395.6z M286.9,391.9l-1.2-0.8l-1.4,2.1l1.2,0.8L286.9,391.9z"/>
	<path fill-rule="evenodd" clip-rule="evenodd" fill="#FFFFFF" d="M213,391.9l1.2-0.8l1.4,2.1l-1.2,0.8L213,391.9z M216.9,397.6
		l1.2-0.8l-1.4-2.1l-1.2,0.8L216.9,397.6z M219.4,401.3l1.3-0.8l-1.4-2.1l-1.2,0.8L219.4,401.3z M206.9,382.9l1.2-0.9l-1.4-2
		l-1.2,0.9L206.9,382.9z M209.4,386.6l1.2-0.8l-1.4-2.1l-1.2,0.8L209.4,386.6z M211.9,390.2l1.2-0.8l-1.4-2.1l-1.2,0.8L211.9,390.2z
		 M199.2,371.9l1.2-0.9l-1.4-2l-1.2,0.9L199.2,371.9z M201.8,375.6l1.2-0.9l-1.4-2l-1.2,0.9L201.8,375.6z M204.3,379.2l1.2-0.9
		l-1.4-2l-1.2,0.9L204.3,379.2z M191.4,361l1.2-0.9l-1.5-2L190,359L191.4,361z M194,364.6l1.2-0.9l-1.4-2l-1.2,0.9L194,364.6z
		 M196.6,368.3l1.2-0.9l-1.4-2l-1.2,0.9L196.6,368.3z M183.5,350.2l1.2-0.9l-1.5-2l-1.2,0.9L183.5,350.2z M186.2,353.8l1.2-0.9
		l-1.5-2l-1.2,0.9L186.2,353.8z M188.8,357.4l1.2-0.9l-1.5-2l-1.2,0.9L188.8,357.4z M175.5,339.6l1.2-0.9l-1.5-2l-1.2,0.9
		L175.5,339.6z M178.1,343.1l1.2-0.9l-1.5-2l-1.2,0.9L178.1,343.1z M180.8,346.7l1.2-0.9l-1.5-2l-1.2,0.9L180.8,346.7z M167.3,329
		l1.2-0.9l-1.5-2l-1.2,0.9L167.3,329z M170,332.5l1.2-0.9l-1.5-2l-1.2,0.9L170,332.5z M172.7,336l1.2-0.9l-1.5-2l-1.2,0.9L172.7,336
		z M159,318.5l1.2-0.9l-1.6-1.9l-1.2,0.9L159,318.5z M161.7,322l1.2-0.9l-1.6-1.9l-1.2,0.9L161.7,322z M164.5,325.5l1.2-0.9l-1.5-2
		l-1.2,0.9L164.5,325.5z M150.5,308.1l1.2-1l-1.6-1.9l-1.2,1L150.5,308.1z M153.4,311.5l1.2-0.9l-1.6-1.9l-1.2,1L153.4,311.5z
		 M156.1,315l1.2-0.9l-1.6-1.9l-1.2,0.9L156.1,315z M142,297.8l1.1-1l-1.6-1.9l-1.1,1L142,297.8z M144.8,301.2l1.2-1l-1.6-1.9
		l-1.1,1L144.8,301.2z M147.7,304.6l1.2-1l-1.6-1.9l-1.2,1L147.7,304.6z M133.3,287.6l1.1-1l-1.6-1.9l-1.1,1L133.3,287.6z
		 M136.2,291l1.1-1l-1.6-1.9l-1.1,1L136.2,291z M139.1,294.4l1.1-1l-1.6-1.9l-1.1,1L139.1,294.4z M124.5,277.6l1.1-1l-1.6-1.9
		l-1.1,1L124.5,277.6z M127.4,280.9l1.1-1l-1.6-1.9l-1.1,1L127.4,280.9z M130.3,284.2l1.1-1l-1.6-1.9l-1.1,1L130.3,284.2z
		 M115.5,267.6l1.1-1l-1.7-1.8l-1.1,1L115.5,267.6z M118.5,270.9l1.1-1l-1.7-1.8l-1.1,1L118.5,270.9z M121.5,274.2l1.1-1l-1.7-1.9
		l-1.1,1L121.5,274.2z M106.5,257.7l1.1-1l-1.7-1.8l-1.1,1L106.5,257.7z M109.5,261l1.1-1l-1.7-1.8l-1.1,1L109.5,261z M112.5,264.3
		l1.1-1l-1.7-1.8l-1.1,1L112.5,264.3z M97.3,248l1.1-1l-1.7-1.8l-1.1,1L97.3,248z M100.4,251.2l1.1-1l-1.7-1.8l-1.1,1L100.4,251.2z
		 M103.4,254.4l1.1-1l-1.7-1.8l-1.1,1L103.4,254.4z"/>
	<path fill-rule="evenodd" clip-rule="evenodd" fill="#FFFFFF" d="M163.9,138.7l-1.5,0.1l-0.1-2.5l1.5-0.1L163.9,138.7z
		 M163.6,131.8l-1.5,0.1l0.1,2.5l1.5-0.1L163.6,131.8z M163.4,127.3h-1.5l0.1,2.5h1.5L163.4,127.3z M164.5,149.6l-1.5,0.1l0.2,2.5
		l1.5-0.1L164.5,149.6z M164.2,145.2l-1.5,0.1l0.2,2.5l1.5-0.1L164.2,145.2z M164,140.7l-1.5,0.1l0.1,2.5l1.5-0.1L164,140.7z
		 M165.4,163l-1.5,0.1l0.2,2.5l1.5-0.1L165.4,163z M165.1,158.6l-1.5,0.1l0.2,2.5l1.5-0.1L165.1,158.6z M164.8,154.1l-1.5,0.1
		l0.2,2.5l1.5-0.1L164.8,154.1z M166.6,176.4l-1.5,0.1l0.2,2.5l1.5-0.2L166.6,176.4z M166.2,171.9l-1.5,0.1l0.2,2.5l1.5-0.1
		L166.2,171.9z M165.8,167.5l-1.5,0.1l0.2,2.5l1.5-0.1L165.8,167.5z M168.1,189.7l-1.5,0.2l0.3,2.5l1.5-0.2L168.1,189.7z
		 M167.6,185.2l-1.5,0.2l0.3,2.5l1.5-0.2L167.6,185.2z M167.1,180.8l-1.5,0.2l0.3,2.5l1.5-0.2L167.1,180.8z M169.8,203l-1.5,0.2
		l0.3,2.5l1.5-0.2L169.8,203z M169.1,198.6l-1.5,0.2l0.3,2.5l1.5-0.2L169.1,198.6z M168.6,194.1l-1.5,0.2l0.3,2.5l1.5-0.2
		L168.6,194.1z M171.7,216.2l-1.5,0.2l0.4,2.5l1.5-0.2L171.7,216.2z M171,211.8l-1.5,0.2l0.4,2.5l1.5-0.2L171,211.8z M170.4,207.4
		l-1.5,0.2l0.3,2.5l1.5-0.2L170.4,207.4z M173.8,229.5l-1.5,0.3c0.1,0.8,0.3,1.6,0.4,2.5l1.5-0.3C174.1,231.1,174,230.3,173.8,229.5
		z M173.1,225.1l-1.5,0.2l0.4,2.5l1.5-0.3L173.1,225.1z M172.4,220.7l-1.5,0.2l0.4,2.5l1.5-0.2L172.4,220.7z M176.3,242.6l-1.5,0.3
		l0.5,2.4l1.5-0.3L176.3,242.6z M175.5,238.3l-1.5,0.3l0.5,2.4l1.5-0.3L175.5,238.3z M174.6,233.9l-1.5,0.3l0.5,2.4l1.5-0.3
		L174.6,233.9z M179,255.8l-1.5,0.3l0.5,2.4l1.5-0.3L179,255.8z M178,251.4l-1.5,0.3l0.5,2.4l1.5-0.3L178,251.4z M177.1,247.1
		l-1.5,0.3c0.2,0.8,0.3,1.6,0.5,2.4l1.5-0.3C177.4,248.7,177.3,247.9,177.1,247.1z M181.9,268.9l-1.5,0.3l0.6,2.4l1.5-0.3
		L181.9,268.9z M180.9,264.5l-1.5,0.3c0.2,0.8,0.4,1.6,0.6,2.4l1.5-0.3C181.2,266.1,181,265.3,180.9,264.5z M179.9,260.2l-1.5,0.3
		l0.5,2.4l1.5-0.3L179.9,260.2z M185,281.9l-1.5,0.4c0.2,0.8,0.4,1.6,0.6,2.4l1.5-0.4C185.4,283.5,185.2,282.7,185,281.9z
		 M184,277.5l-1.5,0.4l0.6,2.4l1.5-0.4L184,277.5z M182.9,273.2l-1.5,0.3l0.6,2.4l1.5-0.4L182.9,273.2z M188.5,294.8l-1.4,0.4
		l0.6,2.4l1.4-0.4L188.5,294.8z M187.3,290.5l-1.4,0.4l0.6,2.4l1.4-0.4L187.3,290.5z M186.2,286.2l-1.5,0.4l0.6,2.4l1.5-0.4
		L186.2,286.2z M192.1,307.7l-1.4,0.4l0.7,2.4l1.4-0.4L192.1,307.7z M190.9,303.5l-1.4,0.4l0.7,2.4l1.4-0.4L190.9,303.5z
		 M189.6,299.2l-1.4,0.4c0.2,0.8,0.5,1.6,0.7,2.4l1.4-0.4C190.1,300.8,189.8,300,189.6,299.2z M196,320.6l-1.4,0.4l0.8,2.4l1.4-0.5
		L196,320.6z M194.6,316.3l-1.4,0.4l0.8,2.4l1.4-0.4L194.6,316.3z M193.4,312l-1.4,0.4l0.7,2.4l1.4-0.4L193.4,312z M200.1,333.3
		l-1.4,0.5l0.8,2.4l1.4-0.5L200.1,333.3z M198.7,329.1l-1.4,0.5l0.8,2.4l1.4-0.5L198.7,329.1z M197.4,324.8l-1.4,0.5l0.8,2.4
		l1.4-0.5L197.4,324.8z M204.5,346l-1.4,0.5l0.8,2.4l1.4-0.5L204.5,346z M203,341.8l-1.4,0.5l0.8,2.4l1.4-0.5L203,341.8z
		 M201.5,337.6l-1.4,0.5l0.8,2.4l1.4-0.5L201.5,337.6z M209.1,358.6l-1.4,0.5l0.9,2.3l1.4-0.5L209.1,358.6z M207.5,354.4l-1.4,0.5
		l0.9,2.3l1.4-0.5L207.5,354.4z M206,350.2l-1.4,0.5l0.9,2.3l1.4-0.5L206,350.2z M213.9,371.1l-1.4,0.6l0.9,2.3l1.4-0.6L213.9,371.1
		z M212.2,366.9l-1.4,0.5l0.9,2.3l1.4-0.6L212.2,366.9z M210.7,362.8l-1.4,0.5l0.9,2.3l1.4-0.5L210.7,362.8z M218.9,383.5l-1.4,0.6
		l1,2.3l1.4-0.6L218.9,383.5z M217.3,379.4l-1.4,0.6l0.9,2.3l1.4-0.6L217.3,379.4z M215.6,375.2l-1.4,0.6l0.9,2.3l1.4-0.6
		L215.6,375.2z M224.3,395.8l-1.4,0.6l1,2.3l1.4-0.6L224.3,395.8z M222.5,391.7l-1.4,0.6l1,2.3l1.4-0.6L222.5,391.7z M220.7,387.6
		l-1.4,0.6l1,2.3l1.4-0.6L220.7,387.6z"/>
	<path fill-rule="evenodd" clip-rule="evenodd" fill="#FFFFFF" d="M284.4,375.2l1.4,0.6l-0.9,2.3l-1.4-0.6L284.4,375.2z
		 M281.8,381.7l1.4,0.6l0.9-2.3l-1.4-0.6L281.8,381.7z M280.1,385.8l1.4,0.6l1-2.3l-1.4-0.6L280.1,385.8z M288.5,365.1l1.4,0.5
		l0.9-2.3l-1.4-0.5L288.5,365.1z M286.8,369.2l1.4,0.5l0.9-2.3l-1.4-0.5L286.8,369.2z M285.2,373.4l1.4,0.6l0.9-2.3l-1.4-0.6
		L285.2,373.4z M278.3,389.9l1.4,0.6l1-2.3l-1.4-0.6L278.3,389.9z M276.5,394l1.4,0.6l1-2.3l-1.4-0.6L276.5,394z M274.8,398.1
		l1.4,0.6l1-2.3l-1.4-0.6L274.8,398.1z M293.2,352.5l1.4,0.5l0.9-2.3l-1.4-0.5L293.2,352.5z M291.6,356.7l1.4,0.5l0.9-2.3l-1.4-0.5
		L291.6,356.7z M290,360.9l1.4,0.5l0.9-2.3l-1.4-0.5L290,360.9z M297.6,339.9l1.4,0.5l0.8-2.4l-1.4-0.5L297.6,339.9z M296.2,344.1
		l1.4,0.5l0.8-2.4l-1.4-0.5L296.2,344.1z M294.7,348.3l1.4,0.5l0.8-2.4l-1.4-0.5L294.7,348.3z M301.9,327.2l1.4,0.5l0.8-2.4
		l-1.4-0.5L301.9,327.2z M300.5,331.4l1.4,0.5l0.8-2.4l-1.4-0.5L300.5,331.4z M299.1,335.7l1.4,0.5l0.8-2.4l-1.4-0.5L299.1,335.7z
		 M305.9,314.4l1.4,0.4l0.7-2.4l-1.4-0.4L305.9,314.4z M304.6,318.7l1.4,0.4l0.8-2.4l-1.4-0.4L304.6,318.7z M303.3,322.9l1.4,0.5
		l0.8-2.4l-1.4-0.4L303.3,322.9z M309.7,301.5l1.4,0.4c0.2-0.8,0.5-1.6,0.7-2.4l-1.4-0.4C310.2,300,309.9,300.8,309.7,301.5z
		 M308.4,305.8l1.4,0.4l0.7-2.4l-1.4-0.4L308.4,305.8z M307.2,310.1l1.4,0.4l0.7-2.4l-1.4-0.4L307.2,310.1z M313.2,288.6l1.5,0.4
		l0.6-2.4l-1.5-0.4L313.2,288.6z M312.1,292.9l1.4,0.4l0.6-2.4l-1.4-0.4L312.1,292.9z M310.9,297.2l1.4,0.4l0.6-2.4l-1.4-0.4
		L310.9,297.2z M316.5,275.6l1.5,0.4l0.6-2.4l-1.5-0.3L316.5,275.6z M315.4,280l1.5,0.4l0.6-2.4l-1.5-0.4L315.4,280z M314.4,284.3
		l1.5,0.4c0.2-0.8,0.4-1.6,0.6-2.4l-1.5-0.4C314.8,282.7,314.6,283.5,314.4,284.3z M319.6,262.6l1.5,0.3l0.5-2.4l-1.5-0.3
		L319.6,262.6z M318.6,266.9l1.5,0.3c0.2-0.8,0.4-1.6,0.6-2.4l-1.5-0.3C319,265.3,318.8,266.1,318.6,266.9z M317.5,271.2l1.5,0.3
		l0.6-2.4l-1.5-0.3L317.5,271.2z M322.4,249.5l1.5,0.3c0.2-0.8,0.3-1.6,0.5-2.4l-1.5-0.3C322.7,247.8,322.6,248.7,322.4,249.5z
		 M321.4,253.8l1.5,0.3l0.5-2.4l-1.5-0.3L321.4,253.8z M320.5,258.2l1.5,0.3l0.5-2.4l-1.5-0.3L320.5,258.2z M324.9,236.3l1.5,0.3
		l0.5-2.4l-1.5-0.3L324.9,236.3z M324.1,240.7l1.5,0.3l0.5-2.4l-1.5-0.3L324.1,240.7z M323.2,245.1l1.5,0.3l0.5-2.4l-1.5-0.3
		L323.2,245.1z M327.2,223.1l1.5,0.2l0.4-2.5l-1.5-0.2L327.2,223.1z M326.5,227.5l1.5,0.3l0.4-2.5l-1.5-0.2L326.5,227.5z
		 M325.7,231.9l1.5,0.3c0.2-0.8,0.3-1.6,0.4-2.5l-1.5-0.3C326,230.3,325.9,231.1,325.7,231.9z M329.3,209.9l1.5,0.2l0.3-2.5
		l-1.5-0.2L329.3,209.9z M328.7,214.3l1.5,0.2l0.4-2.5l-1.5-0.2L328.7,214.3z M327.9,218.7l1.5,0.2l0.4-2.5l-1.5-0.2L327.9,218.7z
		 M331.1,196.6l1.5,0.2l0.3-2.5l-1.5-0.2L331.1,196.6z M330.5,201l1.5,0.2l0.3-2.5l-1.5-0.2L330.5,201z M329.9,205.4l1.5,0.2
		l0.3-2.5l-1.5-0.2L329.9,205.4z M332.7,183.3l1.5,0.2l0.3-2.5l-1.5-0.2L332.7,183.3z M332.2,187.7l1.5,0.2l0.3-2.5l-1.5-0.2
		L332.2,187.7z M331.7,192.1l1.5,0.2l0.3-2.5l-1.5-0.2L331.7,192.1z M334,169.9l1.5,0.1l0.2-2.5l-1.5-0.1L334,169.9z M333.6,174.4
		l1.5,0.1l0.2-2.5l-1.5-0.1L333.6,174.4z M333.2,178.8l1.5,0.2l0.2-2.5l-1.5-0.1L333.2,178.8z M335.1,156.6l1.5,0.1l0.2-2.5
		l-1.5-0.1L335.1,156.6z M334.8,161l1.5,0.1l0.2-2.5l-1.5-0.1L334.8,161z M334.4,165.5l1.5,0.1l0.2-2.5l-1.5-0.1L334.4,165.5z
		 M335.9,143.2l1.5,0.1l0.1-2.5l-1.5-0.1L335.9,143.2z M335.6,147.6l1.5,0.1l0.2-2.5l-1.5-0.1L335.6,147.6z M335.3,152.1l1.5,0.1
		l0.2-2.5l-1.5-0.1L335.3,152.1z M336.5,129.8h1.5l0.1-2.5h-1.5L336.5,129.8z M336.3,134.3l1.5,0.1l0.1-2.5l-1.5-0.1L336.3,134.3z
		 M336.1,138.7l1.5,0.1l0.1-2.5l-1.5-0.1L336.1,138.7z"/>
	<path fill-rule="evenodd" clip-rule="evenodd" fill="#FFFFFF" d="M160.7,358.7l0.4,1.4l-2.4,0.7l-0.4-1.4L160.7,358.7z M154,360.5
		l0.4,1.4l2.4-0.7l-0.4-1.4L154,360.5z M149.7,361.7l0.4,1.5l2.4-0.7l-0.4-1.5L149.7,361.7z M171.2,355.7l0.4,1.4l2.4-0.7l-0.4-1.4
		L171.2,355.7z M166.9,357l0.4,1.4l2.4-0.7l-0.4-1.4L166.9,357z M162.6,358.2l0.4,1.4l2.4-0.7l-0.4-1.4L162.6,358.2z M184,351.8
		l0.4,1.4l2.4-0.8l-0.5-1.4L184,351.8z M179.7,353.1l0.4,1.4l2.4-0.7l-0.4-1.4L179.7,353.1z M175.5,354.4l0.4,1.4l2.4-0.7l-0.4-1.4
		L175.5,354.4z M196.8,347.7l0.5,1.4l2.4-0.8l-0.5-1.4L196.8,347.7z M192.5,349.1l0.5,1.4l2.4-0.8l-0.5-1.4L192.5,349.1z
		 M188.3,350.4l0.5,1.4l2.4-0.8l-0.5-1.4L188.3,350.4z M209.4,343.3l0.5,1.4l2.4-0.8l-0.5-1.4L209.4,343.3z M205.2,344.8l0.5,1.4
		l2.4-0.8l-0.5-1.4L205.2,344.8z M201,346.3l0.5,1.4l2.4-0.8l-0.5-1.4L201,346.3z M222,338.7l0.5,1.4l2.3-0.9l-0.5-1.4L222,338.7z
		 M217.8,340.3l0.5,1.4l2.3-0.9l-0.5-1.4L217.8,340.3z M213.7,341.8l0.5,1.4l2.4-0.8L216,341L213.7,341.8z M234.5,333.9l0.6,1.4
		l2.3-0.9l-0.6-1.4L234.5,333.9z M230.4,335.5l0.5,1.4l2.3-0.9l-0.6-1.4L230.4,335.5z M226.2,337.1l0.5,1.4l2.3-0.9l-0.5-1.4
		L226.2,337.1z M246.9,328.8l0.6,1.4c0.8-0.3,1.5-0.6,2.3-1l-0.6-1.4C248.5,328.2,247.7,328.5,246.9,328.8z M242.8,330.5l0.6,1.4
		l2.3-0.9l-0.6-1.4L242.8,330.5z M238.7,332.2l0.6,1.4l2.3-0.9l-0.6-1.4L238.7,332.2z M259.2,323.5l0.6,1.4l2.3-1l-0.6-1.4
		L259.2,323.5z M255.1,325.3l0.6,1.4l2.3-1l-0.6-1.4L255.1,325.3z M251.1,327.1l0.6,1.4l2.3-1l-0.6-1.4L251.1,327.1z M271.4,318
		l0.6,1.4l2.3-1.1l-0.6-1.4L271.4,318z M267.4,319.8l0.6,1.4l2.3-1.1l-0.6-1.4L267.4,319.8z M263.3,321.7l0.6,1.4
		c0.8-0.3,1.5-0.7,2.3-1l-0.6-1.4C264.9,321,264.1,321.4,263.3,321.7z M283.5,312.2l0.7,1.3l2.2-1.1l-0.7-1.3L283.5,312.2z
		 M279.5,314.2l0.6,1.4c0.8-0.3,1.5-0.7,2.2-1.1l-0.7-1.4C281,313.5,280.3,313.8,279.5,314.2z M275.5,316.1l0.6,1.4l2.3-1.1
		l-0.6-1.4L275.5,316.1z M295.5,306.3l0.7,1.3c0.7-0.4,1.5-0.8,2.2-1.1l-0.7-1.3C297,305.5,296.3,305.9,295.5,306.3z M291.5,308.2
		l0.7,1.3l2.2-1.1l-0.7-1.3L291.5,308.2z M287.6,310.2l0.7,1.3l2.2-1.1l-0.7-1.3L287.6,310.2z M307.4,300l0.7,1.3l2.2-1.2l-0.7-1.3
		L307.4,300z M303.5,302.1l0.7,1.3l2.2-1.2l-0.7-1.3L303.5,302.1z M299.5,304.2l0.7,1.3l2.2-1.2l-0.7-1.3L299.5,304.2z M319.2,293.6
		l0.7,1.3l2.2-1.2l-0.7-1.3L319.2,293.6z M315.3,295.8l0.7,1.3l2.2-1.2l-0.7-1.3L315.3,295.8z M311.4,297.9l0.7,1.3
		c0.7-0.4,1.5-0.8,2.2-1.2l-0.7-1.3C312.8,297.1,312.1,297.5,311.4,297.9z M330.8,287l0.8,1.3l2.1-1.3l-0.8-1.3L330.8,287z
		 M327,289.2l0.7,1.3l2.1-1.3l-0.8-1.3L327,289.2z M323.1,291.4l0.7,1.3l2.2-1.2l-0.7-1.3L323.1,291.4z M342.4,280.1l0.8,1.3
		l2.1-1.3l-0.8-1.3L342.4,280.1z M338.5,282.4l0.8,1.3l2.1-1.3l-0.8-1.3L338.5,282.4z M334.7,284.7l0.8,1.3l2.1-1.3l-0.8-1.3
		L334.7,284.7z M353.7,273l0.8,1.3l2.1-1.3l-0.8-1.3L353.7,273z M349.9,275.4l0.8,1.3l2.1-1.3l-0.8-1.3L349.9,275.4z M346.2,277.7
		l0.8,1.3l2.1-1.3l-0.8-1.3L346.2,277.7z M365,265.7l0.8,1.3l2.1-1.4l-0.8-1.2L365,265.7z M361.2,268.2l0.8,1.3l2.1-1.4l-0.8-1.3
		L361.2,268.2z M357.5,270.6l0.8,1.3l2.1-1.4l-0.8-1.3L357.5,270.6z M376.1,258.2l0.9,1.2l2-1.4l-0.9-1.2L376.1,258.2z M372.4,260.8
		l0.8,1.2l2-1.4l-0.8-1.2L372.4,260.8z M368.7,263.3l0.8,1.2l2.1-1.4l-0.8-1.2L368.7,263.3z M387.1,250.6l0.9,1.2l2-1.5l-0.9-1.2
		L387.1,250.6z M383.4,253.1l0.9,1.2l2-1.4l-0.9-1.2L383.4,253.1z M379.8,255.7l0.9,1.2l2-1.4l-0.9-1.2L379.8,255.7z M397.9,242.7
		l0.9,1.2l2-1.5l-0.9-1.2L397.9,242.7z M394.3,245.3l0.9,1.2l2-1.5l-0.9-1.2L394.3,245.3z M390.7,247.9l0.9,1.2l2-1.5l-0.9-1.2
		L390.7,247.9z"/>
	<path fill-rule="evenodd" clip-rule="evenodd" fill="#FFFFFF" d="M123.2,312.4l1.3,0.7l-1.2,2.2l-1.3-0.7L123.2,312.4z
		 M119.9,318.5l1.3,0.7l1.2-2.2l-1.3-0.7L119.9,318.5z M117.9,322.5l1.3,0.7l1.2-2.2l-1.3-0.7L117.9,322.5z M128.5,302.8l1.3,0.7
		l1.2-2.2l-1.3-0.7L128.5,302.8z M126.3,306.7l1.3,0.7l1.2-2.2l-1.3-0.7L126.3,306.7z M124.2,310.6l1.3,0.7l1.2-2.2l-1.3-0.7
		L124.2,310.6z M135.1,291.1l1.3,0.8l1.3-2.1l-1.3-0.8L135.1,291.1z M132.9,295l1.3,0.7l1.2-2.2l-1.3-0.8L132.9,295z M130.7,298.9
		l1.3,0.7l1.2-2.2l-1.3-0.7L130.7,298.9z M142,279.6l1.3,0.8l1.3-2.1l-1.3-0.8L142,279.6z M139.7,283.5l1.3,0.8l1.3-2.1l-1.3-0.8
		L139.7,283.5z M137.4,287.3l1.3,0.8l1.3-2.1l-1.3-0.8L137.4,287.3z M149.1,268.2l1.3,0.8l1.3-2.1l-1.3-0.8L149.1,268.2z M146.7,272
		l1.3,0.8l1.3-2.1l-1.3-0.8L146.7,272z M144.3,275.8l1.3,0.8l1.3-2.1l-1.3-0.8L144.3,275.8z M156.4,257l1.3,0.8l1.4-2.1l-1.2-0.8
		L156.4,257z M153.9,260.7l1.3,0.8l1.4-2.1l-1.3-0.8L153.9,260.7z M151.5,264.4l1.3,0.8l1.3-2.1l-1.3-0.8L151.5,264.4z M163.9,245.8
		l1.2,0.9l1.4-2l-1.2-0.9L163.9,245.8z M161.4,249.5l1.2,0.8l1.4-2.1l-1.2-0.8L161.4,249.5z M158.9,253.2l1.2,0.8l1.4-2.1l-1.2-0.8
		L158.9,253.2z M171.6,234.8l1.2,0.9c0.5-0.7,0.9-1.4,1.4-2l-1.2-0.9C172.6,233.5,172.1,234.2,171.6,234.8z M169,238.5l1.2,0.9
		l1.4-2l-1.2-0.9L169,238.5z M166.5,242.1l1.2,0.9l1.4-2l-1.2-0.9L166.5,242.1z M179.6,224l1.2,0.9l1.5-2L181,222L179.6,224z
		 M176.9,227.6l1.2,0.9l1.5-2l-1.2-0.9L176.9,227.6z M174.2,231.2l1.2,0.9l1.5-2l-1.2-0.9L174.2,231.2z M187.7,213.3l1.2,0.9l1.5-2
		l-1.2-0.9L187.7,213.3z M184.9,216.9l1.2,0.9l1.5-2l-1.2-0.9L184.9,216.9z M182.2,220.4l1.2,0.9c0.5-0.7,1-1.3,1.5-2l-1.2-0.9
		C183.2,219.1,182.7,219.7,182.2,220.4z M196,202.8l1.2,0.9l1.6-1.9l-1.2-0.9L196,202.8z M193.2,206.3l1.2,0.9
		c0.5-0.7,1-1.3,1.6-1.9l-1.2-0.9C194.2,205,193.7,205.6,193.2,206.3z M190.4,209.8l1.2,0.9l1.5-2l-1.2-0.9L190.4,209.8z
		 M204.5,192.4l1.2,1c0.5-0.6,1.1-1.3,1.6-1.9l-1.1-1C205.5,191.1,205,191.7,204.5,192.4z M201.6,195.9l1.2,1l1.6-1.9l-1.2-1
		L201.6,195.9z M198.8,199.3l1.2,0.9l1.6-1.9l-1.2-1L198.8,199.3z M213.2,182.2l1.1,1l1.6-1.9l-1.1-1L213.2,182.2z M210.3,185.6
		l1.1,1l1.6-1.9l-1.1-1L210.3,185.6z M207.4,189l1.1,1l1.6-1.9l-1.1-1L207.4,189z M222.1,172.2l1.1,1l1.7-1.8l-1.1-1L222.1,172.2z
		 M219.1,175.5l1.1,1l1.7-1.8l-1.1-1L219.1,175.5z M216.1,178.8l1.1,1c0.5-0.6,1.1-1.2,1.7-1.9l-1.1-1
		C217.2,177.6,216.7,178.2,216.1,178.8z M231.2,162.3l1.1,1l1.7-1.8l-1.1-1L231.2,162.3z M228.1,165.5l1.1,1l1.7-1.8l-1.1-1
		L228.1,165.5z M225.1,168.8l1.1,1l1.7-1.8l-1.1-1L225.1,168.8z M240.4,152.5l1.1,1l1.8-1.8l-1.1-1L240.4,152.5z M237.3,155.8l1.1,1
		l1.7-1.8l-1.1-1L237.3,155.8z M234.3,159l1.1,1l1.7-1.8l-1.1-1L234.3,159z M249.9,143l1.1,1.1l1.8-1.8l-1.1-1.1L249.9,143z
		 M246.7,146.2l1.1,1.1l1.8-1.8l-1.1-1.1L246.7,146.2z M243.6,149.3l1.1,1.1l1.8-1.8l-1.1-1.1L243.6,149.3z M259.5,133.7l1,1.1
		l1.8-1.7l-1-1.1L259.5,133.7z M256.3,136.7l1,1.1l1.8-1.7l-1-1.1L256.3,136.7z M253.1,139.8l1,1.1l1.8-1.7l-1-1.1L253.1,139.8z
		 M269.3,124.5l1,1.1l1.8-1.7l-1-1.1L269.3,124.5z M266,127.5l1,1.1l1.8-1.7l-1-1.1L266,127.5z M262.8,130.5l1,1.1l1.8-1.7l-1-1.1
		L262.8,130.5z M279.2,115.4l1,1.1l1.9-1.6l-1-1.1L279.2,115.4z M275.9,118.4l1,1.1l1.8-1.7l-1-1.1L275.9,118.4z M272.6,121.4l1,1.1
		l1.8-1.7l-1-1.1L272.6,121.4z M289.4,106.7l1,1.1l1.9-1.6l-1-1.1L289.4,106.7z M286,109.6l1,1.1l1.9-1.6l-1-1.1L286,109.6z
		 M282.6,112.5l1,1.1l1.9-1.6l-1-1.1L282.6,112.5z"/>
</g>
</svg>
