<?xml version="1.0" encoding="utf-8"?>
<!-- Generator: Adobe Illustrator 23.0.0, SVG Export Plug-In . SVG Version: 6.00 Build 0)  -->
<svg version="1.0" id="Layer1" xmlns="http://www.w3.org/2000/svg" xmlns:xlink="http://www.w3.org/1999/xlink" x="0px" y="0px"
	 width="500px" height="500px" viewBox="0 0 500 500" enable-background="new 0 0 500 500" xml:space="preserve">
<rect fill="none" width="500" height="500"/>
<path fill="none" stroke="#FFFFFF" stroke-width="2" stroke-miterlimit="10" d="M387.2,321.5C367.5,261,353,198.9,344,135.9
	 M350.3,367.9c-63.4-5.8-127.2-6-190.6-0.9 M401.1,255c-10,20.5-14.3,43.3-12.3,66 M350.1,369.5c-22.6,3.1-43.9,12.4-61.6,26.7
	 M281,402.8l9.8,0.3l0.1-2l-7.7-0.3l0.3-7.7l-2-0.1L281,402.8z M149.7,367.9l7.5,6.3l1.3-1.5l-5.9-5l5-5.9l-1.6-1.3L149.7,367.9z
	 M342.6,126l-5.9,7.8l1.6,1.2l4.7-6.2l6.2,4.7l1.2-1.6L342.6,126z M405.8,246.2l-9.4,2.5l0.5,2l7.5-2l2,7.5l2-0.5L405.8,246.2z"/>
<path opacity="0.5" fill="#85CBDA" enable-background="new    " d="M457.7,270.2c-1.7,17.7-5.7,35.1-11.8,51.7
	c-4.1,11-3.6,23.2,1.2,34c1.6,3.5,2.7,7.1,3.3,10.9c4.2,24.5-12.3,47.8-36.8,52s-47.8-12.3-52-36.8s12.3-47.8,36.8-52
	c17.6-3,31.8-16.1,36.1-33.4c0.7-2.8,1.3-5.6,1.9-8.4c3.6-17.5-3.5-35.4-18-45.8c-3.1-2.2-5.9-4.8-8.4-7.7
	c-16-19-13.6-47.5,5.4-63.5s47.5-13.6,63.5,5.4s13.6,47.5-5.4,63.5C464.5,247.7,458.8,258.5,457.7,270.2z"/>
</svg>
