<?xml version="1.0" encoding="utf-8"?>
<!-- Generator: Adobe Illustrator 23.0.0, SVG Export Plug-In . SVG Version: 6.00 Build 0)  -->
<svg version="1.0" id="Layer1" xmlns="http://www.w3.org/2000/svg" xmlns:xlink="http://www.w3.org/1999/xlink" x="0px" y="0px"
	 width="500px" height="500px" viewBox="0 0 500 500" enable-background="new 0 0 500 500" xml:space="preserve">
<rect fill="none" width="500" height="500"/>
<path id="contractor_2_" fill="#FFFFFF" d="M118.7,324.1l-1.8-0.9c42-81.2,98.2-152.7,167.2-212.6l1.3,1.5
	C216.7,171.8,160.6,243.1,118.7,324.1z M393.6,247.8l-1.2-1.6c-73.6,53.7-155.6,92.5-243.8,115.3l0.5,1.9
	C237.5,340.6,319.8,301.7,393.6,247.8z M157,136l-2-0.3c-9,62.8-23.6,125.2-43.2,185.5l1.9,0.6C133.4,261.4,148,198.9,157,136z
	 M340.3,368l0.2-2c-63.3-5.2-127.5-4.9-190.8,0.9l0.2,2C213,363.1,277,362.9,340.3,368z M212.1,395.4
	c-17.9-14.4-39.3-23.8-62.1-26.9l-0.3,2c22.4,3.1,43.5,12.3,61.1,26.5L212.1,395.4z M99.8,254.6l-1.8,0.9
	c9.9,20.3,14.2,43,12.2,65.5l2,0.2C114.2,298.2,109.9,275.2,99.8,254.6z M219,402.8l-0.3-9.8l-2,0.1l0.3,7.7l-7.7,0.3l0.1,2
	L219,402.8z M350.3,367.9l-6.3-7.5l-1.5,1.3l5,5.9l-5.9,5l1.3,1.5L350.3,367.9z M401,241l-9.6-1.5l-0.3,2l7.6,1.2l-1.2,7.6l2,0.3
	L401,241z M292.4,104.8l-9.7-0.8l-0.2,2l7.7,0.6l-0.6,7.7l2,0.2L292.4,104.8z M157.4,126l-7.8,5.9l1.2,1.6l6.2-4.7l4.7,6.2l1.6-1.2
	L157.4,126z M94.2,246.2l-2.5,9.4l2,0.5l2-7.5l7.5,2l0.5-2L94.2,246.2z"/>
<path opacity="0.5" fill="#85CBDA" enable-background="new    " d="M139.1,376.8c-1,17.8,8.6,34.5,24.5,42.6
	c2.5,1.3,5.1,2.5,7.7,3.7c16.3,7.4,35.3,4.5,48.6-7.4c2.8-2.5,6-4.7,9.4-6.4c22.1-11.4,49.3-2.7,60.7,19.4
	c11.4,22.1,2.7,49.3-19.4,60.7c-22.1,11.4-49.3,2.7-60.7-19.4c-5.4-10.5-14.7-18.4-25.8-22.1c-16.8-5.6-32.9-13.3-47.8-23
	c-9.9-6.4-21.9-8.7-33.4-6.4c-9.2,1.8-18.7,0.8-27.3-3.1c-22.7-10.2-32.9-36.9-22.7-59.6c4.8-10.7,5.2-22.9,1.2-34
	c-6.1-16.7-10.1-34-11.8-51.7c-1.1-11.7-6.8-22.5-15.8-30.1c-2.9-2.4-5.5-5.3-7.7-8.4c-14.4-20.3-9.7-48.4,10.6-62.9
	s48.4-9.7,62.9,10.6s9.7,48.4-10.6,62.9c-14.5,10.3-21.6,28.3-18,45.8c0.6,2.8,1.2,5.6,1.9,8.4c4.4,17.3,18.5,30.4,36.1,33.4
	C124.2,333.8,140.3,354,139.1,376.8z"/>
</svg>
