<?xml version="1.0" encoding="utf-8"?>
<!-- Generator: Adobe Illustrator 23.0.0, SVG Export Plug-In . SVG Version: 6.00 Build 0)  -->
<svg version="1.0" id="Layer1" xmlns="http://www.w3.org/2000/svg" xmlns:xlink="http://www.w3.org/1999/xlink" x="0px" y="0px"
	 width="500px" height="500px" viewBox="0 0 500 500" enable-background="new 0 0 500 500" xml:space="preserve">
<rect fill="none" width="500" height="500"/>
<path id="developer_2_" fill="#FFFFFF" d="M158.7,360.9l-0.5-1.9c87.9-24,169.4-64,242.2-118.7l1.2,1.6
	C328.6,296.7,246.9,336.8,158.7,360.9z M405.4,245.8l-1.4-1.4c-44,45.9-84.2,95.9-119.7,148.6l1.7,1.1
	C321.4,341.5,361.5,291.6,405.4,245.8z M391.8,186.4c-59.4-22.2-117.2-49.8-171.9-81.9l-1,1.7c54.8,32.1,112.8,59.7,172.3,82
	L391.8,186.4z M389.3,311c-0.2-22.6,5.9-44.9,17.4-64.3l-1.7-1c-11.7,19.8-17.8,42.4-17.7,65.3H389.3z M392.6,185
	c-18.8-12.5-33.9-30-43.6-50.4l-1.8,0.9c9.8,20.8,25.1,38.5,44.3,51.2L392.6,185z M344.2,125.8l-3.9,8.9l1.8,0.8l3.1-7.1l7.1,3.1
	l0.8-1.8L344.2,125.8z M210.8,100.3l2.4,9.5l2-0.5l-1.9-7.5l7.5-1.9l-0.5-2L210.8,100.3z M148.8,362.5l8.4,4.9l1-1.7l-6.7-3.9
	l3.9-6.7l-1.7-1L148.8,362.5z M279.6,401.9l9.6-2l-0.4-2l-7.6,1.6l-1.6-7.6l-2,0.4L279.6,401.9z M388.8,321l6.3-7.4l-1.5-1.3l-5,5.9
	l-5.9-5l-1.3,1.5L388.8,321z"/>
<path opacity="0.5" fill="#85CBDA" enable-background="new    " d="M457.7,270.2c-1.7,17.7-5.7,35.1-11.8,51.7
	c-4.1,11-3.6,23.2,1.2,34c1.6,3.5,2.7,7.1,3.3,10.9c4.2,24.5-12.3,47.8-36.8,52s-47.8-12.3-52-36.8s12.3-47.8,36.8-52
	c17.6-3,31.8-16.1,36.1-33.4c0.7-2.8,1.3-5.6,1.9-8.4c3.6-17.5-3.5-35.4-18-45.8c-3.1-2.2-5.9-4.8-8.4-7.7
	c-16-19-13.6-47.5,5.4-63.5s47.5-13.6,63.5,5.4s13.6,47.5-5.4,63.5C464.5,247.7,458.8,258.5,457.7,270.2z"/>
</svg>
