<?xml version="1.0" encoding="utf-8"?>
<!-- Generator: Adobe Illustrator 23.0.0, SVG Export Plug-In . SVG Version: 6.00 Build 0)  -->
<svg version="1.0" id="Layer1" xmlns="http://www.w3.org/2000/svg" xmlns:xlink="http://www.w3.org/1999/xlink" x="0px" y="0px"
	 width="500px" height="500px" viewBox="0 0 500 500" enable-background="new 0 0 500 500" xml:space="preserve">
<rect fill="none" width="500" height="500"/>
<path fill="#FFFFFF" d="M214,394.1c-35.4-52.6-75.5-102.5-119.4-148.4l1.4-1.4c43.9,45.9,84.2,95.9,119.6,148.6L214,394.1z
	 M281.1,106.2l-1-1.7c-54.7,32.1-112.6,59.6-171.9,81.9l0.7,1.9C168.4,166,226.3,138.4,281.1,106.2z M95,245.7l-1.7,1
	c11.5,19.5,17.5,41.7,17.4,64.3h2C112.9,288.1,106.7,265.5,95,245.7z M152.8,135.4l-1.8-0.9c-9.7,20.4-24.7,37.9-43.6,50.4l1.1,1.7
	C127.7,173.9,143,156.2,152.8,135.4z M155.8,125.8l-8.9,3.9l0.8,1.8l7.1-3.1l3.1,7.1l1.8-0.8L155.8,125.8z M289.2,100.3l-9.5-2.4
	l-0.5,2l7.5,1.9l-1.9,7.5l2,0.5L289.2,100.3z M111.2,321l7.4-6.3l-1.3-1.5l-5.9,5l-5-5.9l-1.5,1.3L111.2,321z M220.4,401.9l2-9.6
	l-2-0.4l-1.6,7.6l-7.6-1.6l-0.4,2L220.4,401.9z"/>
<path opacity="0.5" fill="#85CBDA" enable-background="new    " d="M139.1,376.8c-1,17.8,8.6,34.5,24.5,42.6
	c2.5,1.3,5.1,2.5,7.7,3.7c16.3,7.4,35.3,4.5,48.6-7.4c2.8-2.5,6-4.7,9.4-6.4c22.1-11.4,49.3-2.7,60.7,19.4
	c11.4,22.1,2.7,49.3-19.4,60.7c-22.1,11.4-49.3,2.7-60.7-19.4c-5.4-10.5-14.7-18.4-25.8-22.1c-16.8-5.6-32.9-13.3-47.8-23
	c-9.9-6.4-21.9-8.7-33.4-6.4c-9.2,1.8-18.7,0.8-27.3-3.1c-22.7-10.2-32.9-36.9-22.7-59.6c4.8-10.7,5.2-22.9,1.2-34
	c-6.1-16.7-10.1-34-11.8-51.7c-1.1-11.7-6.8-22.5-15.8-30.1c-2.9-2.4-5.5-5.3-7.7-8.4c-14.4-20.3-9.7-48.4,10.6-62.9
	s48.4-9.7,62.9,10.6s9.7,48.4-10.6,62.9c-14.5,10.3-21.6,28.3-18,45.8c0.6,2.8,1.2,5.6,1.9,8.4c4.4,17.3,18.5,30.4,36.1,33.4
	C124.2,333.8,140.3,354,139.1,376.8z"/>
</svg>
