<?xml version="1.0" encoding="utf-8"?>
<!-- Generator: Adobe Illustrator 23.0.0, SVG Export Plug-In . SVG Version: 6.00 Build 0)  -->
<svg version="1.0" id="Layer1" xmlns="http://www.w3.org/2000/svg" xmlns:xlink="http://www.w3.org/1999/xlink" x="0px" y="0px"
	 width="500px" height="500px" viewBox="0 0 500 500" enable-background="new 0 0 500 500" xml:space="preserve">
<rect fill="none" width="500" height="500"/>
<path fill="#FFFFFF" d="M275.3,399.4l-0.9-0.4c37.2-83.2,58-171.6,61.9-262.7h1C333.4,227.5,312.6,316.1,275.3,399.4z M225.6,399
	c-37.2-83.2-58-171.6-61.9-262.7h-1c3.9,91.2,24.7,179.7,62,263.1L225.6,399z M220.8,401.6c-34.9-53-74.7-103.4-118.2-149.6
	l-0.7,0.7c43.5,46.2,83.2,96.5,118.1,149.5L220.8,401.6z M398.2,252.7l-0.7-0.7c-43.5,46.3-83.3,96.6-118.2,149.6l0.8,0.6
	C315,349.2,354.7,298.9,398.2,252.7z M398.2,252.7l-0.7-0.7c-43.5,46.3-83.3,96.6-118.2,149.6l0.8,0.6
	C315,349.2,354.7,298.9,398.2,252.7z M340.4,371.7l-0.2-1c-22.3,4.9-42.9,15.9-59.5,31.6l0.7,0.7
	C297.8,387.5,318.2,376.6,340.4,371.7z M219.3,402.4c-16.6-15.8-37.2-26.7-59.5-31.6l-0.2,1c22.2,4.9,42.6,15.8,59.1,31.4
	L219.3,402.4z M350.1,369.5l-7.8-5.8l-1.2,1.6l6.2,4.6l-4.6,6.2l1.6,1.2C344.3,377.3,350.1,369.5,350.1,369.5z M337.1,126.3L330,133
	l1.4,1.5l5.6-5.3l5.3,5.6l1.5-1.4L337.1,126.3z M162.9,126.3l-6.7,7.1l1.5,1.4l5.3-5.6l5.6,5.3l1.4-1.5L162.9,126.3z M149.9,369.5
	l5.8,7.8l1.6-1.2l-4.6-6.2l6.2-4.6l-1.2-1.6L149.9,369.5z M404.7,245.1l-9.8,0.2v2l7.7-0.2l0.2,7.7h2L404.7,245.1z M95.3,245.1
	l-0.2,9.8h2l0.2-7.7l7.7,0.2v-2L95.3,245.1z"/>
<path opacity="0.5" fill="#85CBDA" enable-background="new    " d="M139.1,376.8c-1,17.8,8.6,34.5,24.5,42.6
	c2.5,1.3,5.1,2.5,7.7,3.7c16.3,7.4,35.3,4.5,48.6-7.4c2.8-2.5,6-4.7,9.4-6.4c22.1-11.4,49.3-2.7,60.7,19.4
	c11.4,22.1,2.7,49.3-19.4,60.7c-22.1,11.4-49.3,2.7-60.7-19.4c-5.4-10.5-14.7-18.4-25.8-22.1c-16.8-5.6-32.9-13.3-47.8-23
	c-9.9-6.4-21.9-8.7-33.4-6.4c-9.2,1.8-18.7,0.8-27.3-3.1c-22.7-10.2-32.9-36.9-22.7-59.6c4.8-10.7,5.2-22.9,1.2-34
	c-6.1-16.7-10.1-34-11.8-51.7c-1.1-11.7-6.8-22.5-15.8-30.1c-2.9-2.4-5.5-5.3-7.7-8.4c-14.4-20.3-9.7-48.4,10.6-62.9
	s48.4-9.7,62.9,10.6s9.7,48.4-10.6,62.9c-14.5,10.3-21.6,28.3-18,45.8c0.6,2.8,1.2,5.6,1.9,8.4c4.4,17.3,18.5,30.4,36.1,33.4
	C124.2,333.8,140.3,354,139.1,376.8z"/>
</svg>
