<?xml version="1.0" encoding="utf-8"?>
<!-- Generator: Adobe Illustrator 23.0.0, SVG Export Plug-In . SVG Version: 6.00 Build 0)  -->
<svg version="1.0" id="Layer1" xmlns="http://www.w3.org/2000/svg" xmlns:xlink="http://www.w3.org/1999/xlink" x="0px" y="0px"
	 width="500px" height="500px" viewBox="0 0 500 500" enable-background="new 0 0 500 500" xml:space="preserve">
<rect fill="none" width="500" height="500"/>
<path id="manufacturer_2_" fill="#FFFFFF" d="M220.2,390.5c-36.1-83.9-55.8-172.8-58.4-264.1l2-0.1C166.4,217.4,186,306,222,389.7
	L220.2,390.5z M158.4,126.1l-2-0.3c-8.5,62.8-22.4,125.4-41.5,185.9l1.9,0.6C135.9,251.7,149.9,189.1,158.4,126.1z M279,102.6
	l-0.5-1.9c-22,5.2-45,4.3-66.6-2.6l-0.6,1.9c12.5,4,25.6,6.1,38.7,6.1C259.7,105.9,269.4,104.8,279,102.6z M156.7,126.2l-1.9-0.7
	c-8,21.1-21.7,39.7-39.4,53.7l1.2,1.6C134.7,166.5,148.6,147.7,156.7,126.2z M382.5,182.8C323.3,160,265.7,132,211.3,99.4l-1,1.7
	c54.5,32.6,112.2,60.7,171.5,83.5L382.5,182.8z M225.2,399.2l3.5-9.1l-1.9-0.7l-2.8,7.2l-7.2-2.8l-0.7,1.9L225.2,399.2z
	 M112.8,321.5l8.7-4.4l-0.9-1.8l-6.9,3.5l-3.5-6.9l-1.8,0.9L112.8,321.5z M288.4,98.9l-8.6-4.5l-0.9,1.8l6.9,3.6l-3.6,6.9l1.8,0.9
	L288.4,98.9z M108,185.8l9.6,1.8l0.4-2l-7.6-1.4l1.4-7.6l-2-0.4L108,185.8z M391.5,187.3l-4-8.9l-1.8,0.8l3.2,7.1l-7.1,3.2l0.8,1.8
	L391.5,187.3z"/>
<path opacity="0.5" fill="#85CBDA" enable-background="new    " d="M223.5,43c17.6-2.3,35.4-2.3,53,0c11.7,1.5,23.5-1.6,32.9-8.7
	c3-2.3,6.3-4.2,9.9-5.6c23-9.5,49.4,1.4,58.9,24.3c9.5,23-1.4,49.4-24.3,58.9c-23,9.5-49.4-1.4-58.9-24.3
	c-6.8-16.5-22.8-27.4-40.6-27.8c-2.9-0.1-5.7-0.1-8.6,0C228,60.2,212,71.1,205.2,87.6c-1.5,3.5-3.4,6.8-5.6,9.9
	c-15,19.9-43.3,23.8-63.1,8.8s-23.8-43.3-8.8-63.1s43.3-23.8,63.1-8.8C200,41.4,211.8,44.5,223.5,43z"/>
</svg>
