<?xml version="1.0" encoding="utf-8"?>
<!-- Generator: Adobe Illustrator 23.0.0, SVG Export Plug-In . SVG Version: 6.00 Build 0)  -->
<svg version="1.0" id="Layer1" xmlns="http://www.w3.org/2000/svg" xmlns:xlink="http://www.w3.org/1999/xlink" x="0px" y="0px"
	 width="500px" height="500px" viewBox="0 0 500 500" enable-background="new 0 0 500 500" xml:space="preserve">
<rect fill="none" width="500" height="500"/>
<path id="supplier_1_" fill="#FFFFFF" d="M123.4,315.3l-1.8-0.9C164.7,233.7,221.9,163,291.7,104l1.3,1.5
	C223.4,164.4,166.3,234.9,123.4,315.3z M338.1,126.4l-2-0.1c-2.6,91.1-22.2,179.7-58.2,263.4l1.8,0.8
	C315.9,306.6,335.5,217.7,338.1,126.4z M289.7,101.1l-1-1.7c-54.4,32.6-112,60.6-171.2,83.4l0.7,1.9
	C177.5,161.9,235.2,133.8,289.7,101.1z M288.7,99.9L288,98c-21.5,6.9-44.6,7.8-66.6,2.6l-0.5,1.9c9.5,2.2,19.3,3.4,29,3.4
	C263.1,105.9,276.1,103.9,288.7,99.9z M384.6,179.2c-17.8-14-31.4-32.5-39.4-53.7l-1.9,0.7c8.1,21.5,22,40.3,40.1,54.6L384.6,179.2z
	 M211.6,98.9l4.6,8.6l1.8-0.9l-3.6-6.9l6.9-3.6l-0.9-1.8L211.6,98.9z M108.5,187.3l8.9,4l0.8-1.8l-7.1-3.2l3.2-7.1l-1.8-0.8
	L108.5,187.3z M117.8,323.6l9.3-3l-0.6-1.9l-7.4,2.3l-2.3-7.4l-1.9,0.6L117.8,323.6z M274.8,399.2l9.2-3.2l-0.7-1.9l-7.3,2.6
	l-2.6-7.3l-1.9,0.7L274.8,399.2z M392,185.8l-1.9-9.6l-2,0.4l1.5,7.6l-7.6,1.5l0.4,2L392,185.8z"/>
<path opacity="0.5" fill="#85CBDA" enable-background="new    " d="M223.5,43c17.6-2.3,35.4-2.3,53,0c11.7,1.5,23.5-1.6,32.9-8.7
	c3-2.3,6.3-4.2,9.9-5.6c23-9.5,49.4,1.4,58.9,24.3c9.5,23-1.4,49.4-24.3,58.9c-23,9.5-49.4-1.4-58.9-24.3
	c-6.8-16.5-22.8-27.4-40.6-27.8c-2.9-0.1-5.7-0.1-8.6,0C228,60.2,212,71.1,205.2,87.6c-1.5,3.5-3.4,6.8-5.6,9.9
	c-15,19.9-43.3,23.8-63.1,8.8s-23.8-43.3-8.8-63.1s43.3-23.8,63.1-8.8C200,41.4,211.8,44.5,223.5,43z"/>
</svg>
