<?xml version="1.0" encoding="utf-8"?>
<!-- Generator: Adobe Illustrator 23.0.0, SVG Export Plug-In . SVG Version: 6.00 Build 0)  -->
<svg version="1.0" id="Layer_1" xmlns="http://www.w3.org/2000/svg" xmlns:xlink="http://www.w3.org/1999/xlink" x="0px" y="0px"
	 viewBox="0 0 100 100" enable-background="new 0 0 100 100" xml:space="preserve">
<rect y="-0.1" fill="#0F204B" width="100.5" height="100.1"/>
<path fill="#FFB612" d="M85.7,22.3l-3.1-2.2l-3.1,2.2l1.2-3.6l-3.1-2.2h3.8l1.2-3.6l1.2,3.6h3.8l-3.1,2.2L85.7,22.3z M12.4,38.6
	l-0.7-2.1L11,38.6H8.7l1.8,1.3L9.9,42l1.8-1.3l1.8,1.3l-0.7-2.1l1.8-1.3C14.6,38.6,12.4,38.6,12.4,38.6z M29.1,44.8l-0.7-2.1
	l-0.7,2.1h-2.3l1.8,1.3l-0.7,2.1l1.8-1.3l1.8,1.3l-0.7-2.1l1.8-1.3H29.1z M37.4,53.7l-0.7-2.1L36,53.7h-2.3l1.8,1.3l-0.7,2.1
	l1.8-1.3l1.8,1.3L37.8,55l1.8-1.3H37.4z M45.1,60.9L44.4,63h-2.3l1.8,1.3l-0.7,2.1l1.8-1.3l1.8,1.3l-0.7-2.1l1.8-1.3h-2.3L45.1,60.9
	z M68.8,71.9l-0.7-2.1l-0.7,2.1h-2.3l1.8,1.3l-0.7,2.1L68,74l1.8,1.3l-0.7-2.1l1.8-1.3H68.8z M44.7,76.1L44,74l-0.7,2.1H41l1.8,1.3
	l-0.7,2.1l1.8-1.3l1.8,1.3L45,77.4l1.8-1.3H44.7z M61.5,82.3l-0.7-2.1l-0.7,2.1h-2.3l1.8,1.3L59,85.8l1.8-1.3l1.8,1.3L62,83.6
	l1.8-1.3C63.8,82.3,61.5,82.3,61.5,82.3z"/>
<g>
	<path opacity="0.2" enable-background="new    " d="M10.4,74.3V25.8c0-12.1,8.2-22.7,19.8-25.8H0v100h30.2
		C18.5,96.9,10.4,86.3,10.4,74.3z"/>
	<path opacity="0.1" fill="#FFFFFF" enable-background="new    " d="M89.6,25.8v48.5c0,12.1-8.2,22.7-19.8,25.8H100V0H69.8
		C81.5,3.1,89.6,13.7,89.6,25.8z"/>
</g>
</svg>
