<?xml version="1.0" encoding="utf-8"?>
<!-- Generator: Adobe Illustrator 23.0.0, SVG Export Plug-In . SVG Version: 6.00 Build 0)  -->
<svg version="1.0" id="svg548" xmlns:svg="http://www.w3.org/2000/svg"
	 xmlns="http://www.w3.org/2000/svg" xmlns:xlink="http://www.w3.org/1999/xlink" x="0px" y="0px" viewBox="0 0 100 100"
	 enable-background="new 0 0 100 100" xml:space="preserve">
<rect id="rect552" fill="#BF0A30" width="100" height="100"/>
<path id="path558" fill="#002868" d="M8.8,49.7l41.3,27.9l41.6-28L50.1,22.4L8.8,49.7z"/>
<path id="path2508" fill="#FFFFFF" d="M19.1,49.8l31.1,21l31.3-21L50.1,29.2L19.1,49.8z"/>
<path id="flowRoot2413" fill="#002868" d="M33.2,48.9H35l0.3,1h1.1l-1.7-4.7h-1.1l-1.7,4.7h1L33.2,48.9z M34.1,46.2L34.1,46.2
	l0.6,1.9h-1.2L34.1,46.2z M37,49.9h1V48h1c0.3,0,0.6,0.1,0.7,0.2c0.1,0.1,0.1,0.4,0.1,0.7c0,0.2,0,0.4,0,0.6c0,0.1,0,0.3,0.1,0.4H41
	v-0.1c-0.1,0-0.2-0.1-0.2-0.2c0-0.1,0-0.4,0-0.7c0-0.4-0.1-0.7-0.2-0.9c-0.1-0.2-0.2-0.3-0.4-0.3c0.2-0.1,0.4-0.2,0.5-0.4
	s0.2-0.4,0.2-0.7c0-0.1,0-0.3-0.1-0.5s-0.2-0.4-0.4-0.5c-0.2-0.2-0.5-0.2-0.9-0.3H37V49.9z M37.9,47.2V46h1.2c0.3,0,0.5,0.1,0.6,0.2
	c0.1,0.1,0.1,0.3,0.1,0.4c0,0.2-0.1,0.4-0.2,0.5c-0.1,0.1-0.3,0.1-0.6,0.1H37.9z M42.8,48.3l0.5-0.5l1.5,2.1h1.3l-2-2.8l1.9-1.9
	h-1.3l-1.8,1.9v-1.9h-1v4.7h1v-1.6H42.8z M47.4,48.9h1.7l0.3,1h1.1l-1.7-4.7h-1.1L46,49.9h1L47.4,48.9z M48.3,46.2L48.3,46.2
	l0.6,1.9h-1.2L48.3,46.2z M54,48.4L54,48.4l-1.9-3.3h-1v4.7H52v-3.3l0,0l1.9,3.3h1v-4.7H54V48.4z M55.6,48.4c0,0.2,0,0.4,0.1,0.7
	c0.1,0.2,0.3,0.4,0.6,0.6c0.3,0.2,0.7,0.3,1.3,0.3c0.2,0,0.4,0,0.7-0.1s0.6-0.2,0.8-0.4s0.4-0.6,0.4-1s-0.1-0.7-0.4-0.9
	c-0.2-0.2-0.5-0.3-0.9-0.4l-1.1-0.3c-0.1,0-0.2-0.1-0.3-0.1c-0.1-0.1-0.2-0.2-0.2-0.4s0.1-0.4,0.3-0.4c0.2-0.1,0.4-0.1,0.5-0.1
	c0.4,0,0.7,0.1,0.8,0.3s0.2,0.3,0.2,0.4h0.9c0-0.2-0.1-0.4-0.2-0.6c-0.1-0.2-0.3-0.4-0.6-0.6c-0.3-0.2-0.6-0.3-1.1-0.3
	s-0.9,0.1-1.1,0.3c-0.3,0.2-0.4,0.4-0.5,0.6c-0.1,0.2-0.1,0.4-0.1,0.6c0,0.5,0.2,0.8,0.5,1s0.6,0.3,1,0.4l0.5,0.1
	c0.3,0.1,0.5,0.1,0.6,0.2c0.2,0.1,0.2,0.2,0.2,0.4s-0.1,0.4-0.3,0.5s-0.4,0.1-0.7,0.1c-0.4,0-0.7-0.1-0.8-0.3s-0.2-0.3-0.2-0.5
	L55.6,48.4L55.6,48.4z M61.2,48.9H63l0.3,1h1.1l-1.7-4.7h-1.1l-1.7,4.7h1L61.2,48.9z M62.1,46.2L62.1,46.2l0.6,1.9h-1.2L62.1,46.2z
	 M64.7,48.4c0,0.2,0,0.4,0.1,0.7c0.1,0.2,0.3,0.4,0.6,0.6c0.3,0.2,0.7,0.3,1.3,0.3c0.2,0,0.4,0,0.7-0.1c0.3-0.1,0.6-0.2,0.8-0.4
	c0.2-0.2,0.4-0.6,0.4-1s-0.1-0.7-0.4-0.9c-0.2-0.2-0.5-0.3-0.9-0.4l-1.1-0.3c-0.1,0-0.2-0.1-0.3-0.1c-0.1-0.1-0.2-0.2-0.2-0.4
	S65.8,46,66,46c0.2-0.1,0.4-0.1,0.5-0.1c0.4,0,0.7,0.1,0.8,0.3c0.1,0.2,0.2,0.3,0.2,0.4h0.9c0-0.2-0.1-0.4-0.2-0.6
	c-0.1-0.2-0.3-0.4-0.6-0.6c-0.3-0.2-0.6-0.3-1.1-0.3s-0.9,0.1-1.1,0.3c-0.3,0.2-0.4,0.4-0.5,0.6c-0.1,0.2-0.1,0.4-0.1,0.6
	c0,0.5,0.2,0.8,0.5,1s0.6,0.3,1,0.4l0.5,0.1c0.3,0.1,0.5,0.1,0.6,0.2c0.2,0.1,0.2,0.2,0.2,0.4s-0.1,0.4-0.3,0.5
	c-0.2,0.1-0.4,0.1-0.7,0.1c-0.4,0-0.7-0.1-0.8-0.3c-0.1-0.2-0.2-0.3-0.2-0.5L64.7,48.4L64.7,48.4z"/>
<path fill="#002868" d="M52.4,58.8l-2.2,1.6L48,58.8l0.8,2.5l-2.2,1.6h2.7l0.8,2.5l0.8-2.5h2.7l-2.2-1.6L52.4,58.8z M45.3,58.8
	l-2.2-1.6l-2.2,1.6l0.8-2.5l-2.2-1.6h2.7l0.8-2.5l0.8,2.5h2.7l-2.2,1.6L45.3,58.8z M59.6,58.8l-2.2-1.6l-2.2,1.6l0.8-2.5l-2.2-1.6
	h2.7l0.8-2.5l0.8,2.5h2.7l-2.2,1.6L59.6,58.8z M52.4,40l-2.2-1.6L48,40l0.8-2.5l-2.2-1.6h2.7l0.8-2.5l0.8,2.5h2.7l-2.2,1.6L52.4,40z
	"/>
<path fill="#FFFFFF" d="M52,25.6l-1.2,0.9l0.5,1.4L50,27l-1.2,0.9l0.5-1.4L48,25.6h1.5l0.5-1.4l0.5,1.4H52z M48.2,70.7l-1.4,0.5
	L45.9,70v1.5L44.5,72l1.4,0.5V74l0.9-1.2l1.4,0.5l-0.9-1.2L48.2,70.7z M54.3,69.9l-0.9,1.2L52,70.7l0.9,1.2L52,73.1l1.4-0.5l0.9,1.2
	v-1.5l1.4-0.5l-1.4-0.5L54.3,69.9z M79.4,46.1v1.5l0.9-1.2l1.4,0.5l-0.9-1.2l0.9-1.2L80.3,45l-0.9-1.2v1.5L78,45.6L79.4,46.1z
	 M73.5,42.1v1.5l0.9-1.2l1.4,0.5l-0.9-1.2l0.9-1.2L74.4,41l-0.9-1.2v1.5L72,41.6L73.5,42.1z M69.8,38.8l-0.9-1.2l0.9-1.2l-1.4,0.5
	l-0.9-1.2v1.5L66,37.6l1.4,0.5v1.5l0.9-1.2L69.8,38.8z M62.9,33.9l0.9-1.2l-1.4,0.5L61.5,32v1.5L60.1,34l1.4,0.5V36l0.9-1.2l1.4,0.5
	L62.9,33.9z M57,29.9l0.9-1.2l-1.4,0.5L55.6,28v1.5L54.2,30l1.4,0.5V32l0.9-1.2l1.4,0.5L57,29.9z M21.7,52.6L20.3,53l-0.9-1.2v1.5
	L18,53.8l1.4,0.5v1.5l0.9-1.2l1.4,0.5l-0.9-1.2L21.7,52.6z M27,56.1l-1.4,0.5l-0.9-1.2v1.5l-1.4,0.5l1.4,0.5v1.5l0.9-1.2l1.4,0.5
	l-0.9-1.2L27,56.1z M32.3,59.6l-1.4,0.5L30,58.9v1.5l-1.4,0.5l1.4,0.5v1.5l0.9-1.2l1.4,0.5L31.4,61L32.3,59.6z M37.6,63.4l-1.4,0.5
	l-0.9-1.2v1.5l-1.4,0.5l1.4,0.5v1.5l0.9-1.2l1.4,0.5l-0.9-1.2L37.6,63.4z M42.9,66.9l-1.4,0.5l-0.9-1.2v1.5l-1.4,0.5l1.4,0.5v1.5
	l0.9-1.2l1.4,0.5L42,68.3L42.9,66.9z M16.4,48.8L15,49.2L14.1,48v1.5L12.6,50l1.4,0.5V52l0.9-1.2l1.4,0.5L15.5,50L16.4,48.8z
	 M20.9,43.6L20,44.8l-1.4-0.5l0.9,1.2l-0.9,1.2l1.4-0.5l0.9,1.2v-1.5l1.4-0.5l-1.4-0.5V43.6z M26.9,39.6L26,40.9l-1.4-0.5l0.9,1.2
	l-0.9,1.2l1.4-0.5l0.9,1.2V42l1.4-0.5L26.9,41V39.6z M32.9,37.2v-1.5L32,36.9l-1.4-0.5l0.9,1.2l-0.9,1.2l1.4-0.5l0.9,1.2V38l1.4-0.5
	L32.9,37.2z M38.9,33.4v-1.5L38,33.1l-1.4-0.5l0.9,1.2L36.6,35l1.4-0.5l0.9,1.2v-1.5l1.4-0.5L38.9,33.4z M44.8,30.4l1.4-0.5
	l-1.4-0.5v-1.5l-0.9,1.2l-1.4-0.5l0.9,1.2L42.5,31l1.4-0.5l0.9,1.2V30.4z M86.2,49.5V48l-0.9,1.2l-1.4-0.5l0.9,1.2l-0.9,1.2l1.4-0.5
	l0.9,1.2v-1.5l1.4-0.5L86.2,49.5z M80.9,51.8L80,53l-1.4-0.5l0.9,1.2l-1,1.3l1.4-0.5l0.9,1.2v-1.5l1.4-0.5l-1.4-0.5L80.9,51.8z
	 M75.6,55.3l-0.9,1.2L73.3,56l0.9,1.2l-0.9,1.2l1.4-0.5l0.9,1.2v-1.5l1.4-0.5l-1.4-0.5V55.3z M65,62.6l-0.9,1.2l-1.4-0.5l0.9,1.2
	l-0.9,1.2l1.4-0.5l0.9,1.2v-1.5l1.4-0.5L65,63.9V62.6z M59.6,66.2l-0.9,1.2l-1.4-0.5l0.9,1.2l-0.9,1.2l1.4-0.5l0.9,1.2v-1.5L61,68
	l-1.4-0.5V66.2z M70.3,58.9l-0.9,1.2L68,59.6l0.9,1.2L68,62l1.4-0.5l0.9,1.2v-1.5l1.4-0.5l-1.4-0.5V58.9z"/>
<g>
	<path opacity="0.2" enable-background="new    " d="M10.4,74.3V25.8c0-12.1,8.2-22.7,19.8-25.8H0v100h30.2
		C18.5,96.9,10.4,86.3,10.4,74.3z"/>
	<path opacity="0.1" fill="#FFFFFF" enable-background="new    " d="M89.6,25.8v48.5c0,12.1-8.2,22.7-19.8,25.8H100V0H69.8
		C81.5,3.1,89.6,13.7,89.6,25.8z"/>
</g>
</svg>
