<?xml version="1.0" encoding="utf-8"?>
<!-- Generator: Adobe Illustrator 23.0.0, SVG Export Plug-In . SVG Version: 6.00 Build 0)  -->
<svg version="1.0" id="Layer_1" xmlns="http://www.w3.org/2000/svg" xmlns:xlink="http://www.w3.org/1999/xlink" x="0px" y="0px"
	 viewBox="0 0 100 100" enable-background="new 0 0 100 100" xml:space="preserve">
<rect y="32.5" fill="#FFFFFF" width="100" height="34.9"/>
<rect fill="#002868" width="100" height="32.5"/>
<rect y="67.5" fill="#002868" width="100" height="32.5"/>
<path fill="#BF0A30" d="M61,40.7c-3.8-10.8-14.1-18.6-26.3-18.6c-15.4,0-28,12.5-28,27.9s12.5,27.9,27.9,27.9
	c12.1,0,22.5-7.8,26.4-18.7L34.7,50L61,40.7z"/>
<circle fill="#FFD700" cx="34.7" cy="50" r="14"/>
<g>
	<path opacity="0.2" enable-background="new    " d="M10.4,74.3V25.8c0-12.1,8.2-22.7,19.8-25.8H0v100h30.2
		C18.5,96.9,10.4,86.3,10.4,74.3z"/>
	<path opacity="0.1" fill="#FFFFFF" enable-background="new    " d="M89.6,25.8v48.5c0,12.1-8.2,22.7-19.8,25.8H100V0H69.8
		C81.5,3.1,89.6,13.7,89.6,25.8z"/>
</g>
</svg>
