<?xml version="1.0" encoding="utf-8"?>
<!-- Generator: Adobe Illustrator 23.0.0, SVG Export Plug-In . SVG Version: 6.00 Build 0)  -->
<svg version="1.0"
	 id="svg2" inkscape:version="0.91 r13725" sodipodi:docname="Flag_of_Connecticut.svg" xmlns:cc="http://creativecommons.org/ns#" xmlns:dc="http://purl.org/dc/elements/1.1/" xmlns:inkscape="http://www.inkscape.org/namespaces/inkscape" xmlns:rdf="http://www.w3.org/1999/02/22-rdf-syntax-ns#" xmlns:sodipodi="http://sodipodi.sourceforge.net/DTD/sodipodi-0.dtd" xmlns:svg="http://www.w3.org/2000/svg"
	 xmlns="http://www.w3.org/2000/svg" xmlns:xlink="http://www.w3.org/1999/xlink" x="0px" y="0px" viewBox="0 0 100 100"
	 enable-background="new 0 0 100 100" xml:space="preserve">
<g>
	<path id="path14" fill="#0C2D83" d="M0,0h100v100H0V0L0,0z"/>
	<path id="strip_yellow" fill="#FFD300" d="M88.1,64.3l3.5-2.9c0,0-0.9,0.1-2.1-0.3c-3.7-1-7.2,0.2-10.3,1.5
		c-0.6,0.3-1.1,0.5-1.5,0.6L77,60.6c0,0-1.3-0.9-4.3,0.1c-2.7,0.9-3.4,2.4-3.2,2.8c0.2,0.4,1.5,2.8,1.5,2.8v0.1
		c-1.1,0.5-2.6,1.1-4.4,1.6c-5.1,1.6-6.3,2.3-10.8,5.6l1.2,2.9l2.5,0.8c0,0,0.6,0.2,1.1,0.2h0.1c0.9-0.6,1.7-1.1,2.5-1.6
		c-2.1,2.4-3.2,1.5-5.5,0.8s-4.8-1.9-7.1-2.4s-7.9-0.9-11.3-1.1c-3.2-0.1-4.3-1.4-4.4-2.4c0,0,1-0.3,3.1-0.1
		c2.1,0.2,2.2,0.2,2.6-0.5c0.1-0.2,0.2-0.4,0.3-0.5c0.2-0.1,0.3-0.3,0.3-0.6c0-0.8-0.5-1.9-6.2-1.9c-1.9,0-3.3-0.1-4.4-0.2l1.7-4.3
		c0.5-1.4-1.8-1.6-1.8-1.6c-2.2,0-3.9,0-4.9-0.2c-2.1-0.5-3.7-0.7-6.8-0.5s-5.6,0.2-9.8-1.1c0.4,1.6,3.5,3.8,3.5,3.8l-4.9,2.3
		L9,65.8c4.2,1.2,6.7,1.2,9.8,1.1c2.4-0.1,3.9,0,5.4,0.2l-1.1,3.5c2,2,3.3,3.1,9.5,3.7l-1.2,1.5l0.3,0.1c2.2,3.1,3.5,4.1,8.7,4.2
		S48,80.2,52,82s5.8,2.5,9,1.5c0,0,0.1,0.2,0.6-1.2c0.6-1.5,0.8-4.4,1.4-5c0.5-0.4,1.1-1.4,1.4-1.8c1.2-0.5,2.5-1,4.5-1.6
		c5.1-1.6,7.7-3.1,7.1-4.5L75.1,67c0,0,1.1-0.7,1.6-0.5l1,2.3l0,0c0.7,0.3,1.4,0.5,3.6-0.1s8.5-1.7,11.8-1.5
		C91.5,66,88.1,64.3,88.1,64.3z"/>
	<path id="white_strip" fill="#FFFFFF" d="M31.7,63.8l-1.2,3.3c-2.1-0.2-3-0.6-3.8-0.9c-0.6-0.2-1.4-0.9-1.7-1.6l2.5-0.1
		C29.5,64.8,31.2,65.2,31.7,63.8z M30.4,67.1L30.4,67.1L30.4,67.1L30.4,67.1z M73.2,64.4c0.1-0.4-0.5-0.3-1.1-0.1
		c-1,0.4-1.9,0.8-2.2,0.3c0.5,0.9,0.6,1,0.8,1.6C70.8,66.3,73.1,65.1,73.2,64.4z M69.9,64.6L69.9,64.6L69.9,64.6L69.9,64.6z
		 M77.3,62.7c-0.1-0.2-0.1-0.4-0.2-0.7L77.3,62.7z M77.3,62.7c0,0.1,0.1,0.3,0.1,0.5L77.3,62.7z M37.6,70.8c-1.1-0.2-2.1-0.1-2.6,0
		l-0.2,0.1c-0.2,2.5,4.3,2.5,4.3,2.5l1.2-2.7C40,70.9,39.3,71,37.6,70.8z M56.9,77.7c-2.3-0.7-4.8-1.9-7.1-2.4s-7.9-0.9-11.3-1.1
		c-3.4-0.2-4.4-1.6-4.4-2.7c0-0.1,0-0.2,0.1-0.3l0.6-1l0.1-0.1c0.4-0.5,1.4-0.4,3.1-0.2c1.1,0.2,1.8,0.2,2.3,0.1v-0.1
		c0-0.8-0.5-1.6-6.1-1.6s-6.9-0.5-8.1-1.1c-0.7-0.3-1.6-1.2-1.6-1.9l0.4-1.2c0.1-0.5,0.9-0.8,3.2-0.5c1.6,0.2,2.8,0.5,3.5-0.1l0,0
		c0.1-1-1.3-0.9-1.3-0.9l0,0c-2.2,0-3.9,0-4.9-0.2c-2.1-0.5-3.7-0.7-6.8-0.5c-2.9,0.1-5.2,0.2-8.8-0.8c0.7,0.9,2.5,2.2,2.5,2.2
		L8.8,65c4.2,1.2,6.7,1.2,9.8,1.1c2.5-0.1,4.1,0,5.7,0.3l-0.9,3c2.1,2.2,3.2,3.4,9.6,4L31.9,75c2.2,3.1,3.5,4.1,8.7,4.2
		C45.6,79,48,79,52,80.8s6,2.4,9.1,1.5l2.9-6.9l-0.9,1.3C61.4,79,59.3,78.3,56.9,77.7z M87.9,64.4l2.4-1.9c-0.1,0-0.3-0.1-0.5-0.1
		c-3.7-1-7.2,0.2-10.3,1.5c-3.1,1.3-3.5,1-3.9,0.6l-0.8-1.6c0,0,0.1-0.7,0.7-1s0.7-0.3,0.7-0.3s-0.7-0.9-3.3,0
		c-2.6,0.9-2.8,2.1-2.7,2.3c0,0,0.5-0.1,1-0.3s1.8-0.9,2.1-0.1c0.4,0.9,0.4,1.1,0.4,1.1c0.6,1.5-2,2.9-7.2,4.4
		c-5.1,1.6-6.2,2.2-10.7,5.5l0.7,2l2.4,0.7c3.2-2.3,4.7-3,9.1-4.4c5.1-1.6,7.7-3.1,7.1-4.5L74.3,66c0,0,0.9-0.8,1.5-0.6l1,2.1l0,0
		c0.7,0.3,1.4,0.5,3.6-0.1s7.3-1.7,10.7-1.5L87.9,64.4z M77.4,63.2L77.4,63.2c-0.7,0.2-0.4,0.1-0.8,0.3c-0.5,0-1,0.2-1-0.3
		c0.3-0.6,1.5-1.1,1.5-1"/>
	<path id="letters" d="M25.9,69.2c-0.2,0.3-0.3,0.8,0.1,1c0.1,0,0.2,0.1,0.3,0.1l-0.1-0.6l0.4,0.2v0.3c0.2-0.1,0.3-0.2,0.4-0.3
		c0.2-0.3,0.2-0.8-0.1-1C26.6,68.6,26.2,68.8,25.9,69.2l-0.4-0.3c0.4-0.5,1.1-0.8,1.7-0.4s0.6,1.1,0.2,1.6c-0.2,0.3-0.5,0.5-0.7,0.6
		v0.5L26.3,71v-0.2c-0.2,0-0.4-0.1-0.6-0.2c-0.6-0.4-0.6-1.1-0.2-1.6L25.9,69.2 M29.1,69.3h0.5l-0.4,1.2c-0.1,0.3-0.2,0.7,0.2,0.7
		c0.4,0,0.5-0.3,0.6-0.6l0.4-1.2h0.5l-0.4,1.3c-0.2,0.5-0.5,0.9-1.2,0.9c-0.6-0.1-0.8-0.5-0.6-1L29.1,69.3 M32.2,71.7h-0.5l0.5-2.2
		h0.5L32.2,71.7 M34.1,76.2l-0.4-0.3l1.1-1.6L34.4,74l0.2-0.3l1.1,0.8l-0.2,0.3l-0.4-0.3L34.1,76.2 M37.1,75.7l-0.2,0.4H37
		c0.2,0.1,0.5,0.1,0.6-0.2c0.1-0.3,0-0.4-0.3-0.4h-0.1L37.1,75.7l-0.5-0.1L37,75l0.6,0.2c0.5,0.1,0.7,0.4,0.4,0.9
		c-0.1,0.3-0.4,0.5-0.8,0.4l0.2,1.1l-0.5-0.2l-0.1-1l0,0l-0.4,0.8L36,77.1l0.8-1.5L37.1,75.7 M39.9,76.5L39.6,77h0.6l-0.1-0.9l0,0
		L39.9,76.5l-0.4-0.1l0.6-0.9h0.4l0.3,2.4h-0.5l-0.1-0.5l-0.8-0.1l-0.3,0.5h-0.5l0.9-1.4L39.9,76.5 M42.4,75.6h0.3l0.9,1.7l0,0
		l0.3-1.5h0.5L44,78.1h-0.3l-0.9-1.7l0,0L42.4,78h-0.5L42.4,75.6 M46.8,76.5c-0.1-0.1-0.2-0.2-0.3-0.2s-0.3,0.1-0.4,0.2
		c-0.1,0.4,0.9,0.3,0.7,1.1c-0.1,0.5-0.5,0.7-1,0.7c-0.3,0-0.5-0.2-0.6-0.5l0.4-0.2c0,0.2,0.1,0.4,0.3,0.4s0.3-0.1,0.4-0.3
		c0.1-0.2-0.1-0.3-0.3-0.4c-0.3-0.2-0.5-0.3-0.4-0.7c0.1-0.4,0.5-0.7,0.9-0.6c0.2,0,0.5,0.2,0.6,0.3L46.8,76.5 M48.5,78.6l-0.4-0.1
		l0.7-1.9l-0.5-0.1l0.1-0.4l1.4,0.3l-0.1,0.4l-0.5-0.1L48.5,78.6 M50.7,76.7l0.4,0.2l-0.5,1.2c-0.1,0.3-0.2,0.7,0.1,0.8
		c0.4,0.1,0.5-0.2,0.6-0.5l0.5-1.2l0.4,0.2l-0.5,1.3c-0.2,0.5-0.6,0.8-1.2,0.6c-0.6-0.2-0.7-0.7-0.4-1.3L50.7,76.7 M53.1,79.9
		l0.6,0.2l-0.2,0.4l-1-0.4l0.9-2.2l0.4,0.2L53.1,79.9 M55.1,81.1l-0.4-0.2l0.8-2.2l0.4,0.2L55.1,81.1 M57,81.6l-0.5-0.1l0.5-1.8
		l-0.5-0.1l0.1-0.4l1.4,0.3v0.3l-0.5-0.1L57,81.6 M58.9,74.1c-0.1-0.1-0.3-0.1-0.4,0c-0.1,0.1-0.2,0.2-0.1,0.4
		c0.2,0.3,0.9-0.3,1.3,0.4c0.2,0.4,0.1,0.8-0.3,1.1c-0.3,0.2-0.6,0.1-0.9,0l0.1-0.4c0.1,0.1,0.4,0.2,0.5,0.1
		c0.2-0.1,0.2-0.3,0.1-0.4c0-0.4-0.2-0.3-0.4-0.3c-0.3,0-0.6,0-0.8-0.3s-0.1-0.8,0.3-0.9c0.2-0.1,0.5-0.2,0.7-0.1L58.9,74.1
		 M59.7,73l0.4-0.2l0.6,1.2c0.1,0.3,0.3,0.6,0.7,0.4c0.3-0.2,0.2-0.6,0-0.8l-0.6-1.2l0.4-0.2l0.7,1.2c0.3,0.5,0.3,1-0.3,1.3
		s-1,0-1.2-0.5L59.7,73 M63.4,71.7c-0.1-0.1-0.3-0.1-0.4,0c-0.1,0.1-0.2,0.2-0.1,0.4c0.2,0.4,0.9-0.2,1.3,0.5
		c0.2,0.4,0.1,0.9-0.4,1.1c-0.3,0.1-0.6,0.1-0.8-0.1l0.1-0.4c0.1,0.1,0.4,0.2,0.5,0.1c0.2-0.1,0.2-0.3,0.1-0.4
		c-0.1-0.2-0.3-0.2-0.5-0.2c-0.3,0-0.6,0-0.7-0.4c-0.2-0.4,0-0.8,0.3-0.9c0.2-0.1,0.5-0.1,0.7,0L63.4,71.7 M65.9,72.7l-0.4,0.2
		L64.8,71l-0.4,0.2l-0.1-0.4l1.3-0.5l0.1,0.4l-0.4,0.2L65.9,72.7 M67.5,72.1l-0.4,0.1L66.3,70l0.4-0.1L67.5,72.1 M67.6,69.5l0.3-0.1
		l1.7,1.1l0,0L69.1,69l0.4-0.2l0.8,2.3L70,71.3l-1.7-1.1l0,0l0.5,1.5l-0.4,0.2L67.6,69.5 M71,68.8l0.2,0.5l0.7-0.3l0.2,0.4l-0.7,0.3
		l0.3,0.6l0.7-0.3l0.2,0.4l-1.1,0.5l-0.9-2.2l1.1-0.5l0.2,0.4L71,68.8 M74.2,69.3l-0.4,0.2L73,67.7l-0.4,0.2l-0.2-0.3l1.2-0.7
		l0.2,0.3l-0.4,0.2L74.2,69.3"/>
	<rect id="rect2397" x="47.1" y="18.6" fill="#129612" width="6.8" height="4.7"/>
	<path id="white_back" fill="#FFFFFF" d="M77,28.6c-0.5-1.2-1.7-2.4-2.7-3.2c-1-0.7-2.2-0.7-3.3-1.6c-1.2-0.9-2-2.2-3.1-3.2
		c-0.7-0.7-1.5-1.4-2.4-1.4c-0.8,0-1.6,0.7-1.6,1.6c-0.1,1.5,0.1,1.8,0.9,2.6c-0.9,1.3-2.4,2.1-4.7,2.1s-5.2-1.1-6-3h0.1l-2.5,0.7
		c-0.6,0-3.3,0.1-3.6-1.2l0,0c-0.1,0.1-0.2,0.2-0.3,0.3c0-0.1,0-0.3,0-0.5v-0.1h-0.4c-0.4,2.2-4.1,3.6-6.3,3.7
		c-2.2-0.2-3.8-1.1-5.1-2.6c0.5-0.1,1.1-1.2,1-2.1c0-0.7-0.7-1.4-1.4-1.6c-0.5-0.1-0.9-0.1-1.3,0.1l0,0l0,0
		c-0.4,0.1-0.9,0.5-1.3,0.8c-1.1,0.9-1.6,2.5-2.7,3.3c-1.8,1.4-4,2.2-6,3.4c-0.7,0.4-1,1.4-1,2c0,0.8,1.1,1.4,1.9,1.4
		s1.8-0.9,2.1-1.4c0.6,0.2,1.6,0.9,2,1.6c0.9,1.5,1.9,3.1,1.8,4.9c-0.1,1.9-1.2,4.5-2.2,5.2c1.5,0.8,2.8,2,2.9,3.7
		c-0.1,1.8-1.9,3-3.4,3.9c-0.8,0.4-1.8,0-2.4-0.3c-3,5.3,1.7,11.6,7.4,12.9c0.6-1,1.6-2.4,2.4-2.7c2.3,0.6,4.1,2.6,5.6,4.6
		c-0.2,1-0.8,1.5-1.9,2.2c1.8,1.8,4.6,2.4,6.9,3.5c1.3,0.6,2.1,1.4,3.5,3.1c1.4-1.6,2.2-2.2,3.1-2.6c2.7-1.2,5.7-2.1,8.1-3.9
		c-1.2-1-2.2-1.9-1.8-2.8c0.8-1.8,3.8-3,6.2-3c0.8,0.4,1.4,1.3,2.1,1.9c1.6-0.6,2.7-1.2,4-2.1c2.6-1.8,3.4-4.1,3.8-6.8
		c0.1-0.9-0.3-1.8-0.5-2.6c-0.2-0.6,0-1.4-0.6-1.6c-1.3-0.1-3.3,0-4.5-0.2c-1-0.8-1.5-2.4-1.2-3.7c0.9-0.8,2.6-1.9,3.1-3.2
		c-1.6-1.3-2.9-4.6-2-7.7c0.6-2.3,3.3-4.5,4.7-3.5c-0.1,0.6,0.7,1.3,1.5,1.3C76.6,30.7,77.4,29.6,77,28.6z"/>
	<g id="greens">
		<path fill="#129612" d="M41.5,32c0.3-0.3,0.6-0.5,1-0.5c-0.4-0.5-0.7-1.9-0.5-2.6c0.1,0.3,0.2,0.4,0.4,0.3c0-0.3,0.3-0.4,0.6-0.5
			c0.1,0.1,0.2,0.4,0,0.7c0.1-0.2,0.4-0.3,0.6-0.1c0.2,0.2,0.3,0.7-0.1,1.1c0.4,0.2,1.1-0.1,1.3-0.9c0.2,0.2,0.2,0.3,0.1,0.6
			c0.3-0.2,0.7-0.1,1,0.2c0,0.4-0.3,0.8-0.6,0.8c0.2,0,0.3,0.2,0.4,0.5c-0.6-0.2-1.1-0.1-1.5,0.3c0.5,0.2,0.6,0.4,0.7,0.7
			c0,0.3-0.3,0.4-0.4,0.4c0.2,0,0.4,0.2,0.4,0.5c-0.2,0.1-0.4,0-0.7-0.1c-0.1,0.2-0.1,0.3,0,0.6c-0.7-0.2-1.2-1.3-1.4-2.1
			c-0.4-0.1-0.7,0-0.9,0.4C41.6,32.5,41.4,32.2,41.5,32L41.5,32L41.5,32z M39.3,32.9c-0.1-0.4-0.4-0.7-0.7-0.6
			c0.5-0.4,1.3-1.5,1.2-2.2c-0.2,0.2-0.3,0.3-0.4,0.2c0-0.3-0.1-0.5-0.3-0.6c-0.2,0.1-0.3,0.3-0.3,0.6c0-0.2-0.2-0.4-0.5-0.2
			c-0.2,0.2-0.4,0.5-0.3,1c-0.4,0-0.9-0.4-0.9-1.1c-0.3,0.1-0.3,0.2-0.3,0.5c-0.2-0.3-0.6-0.3-1-0.1c-0.1,0.4,0,0.9,0.3,0.9
			c-0.2,0-0.3,0-0.4,0.3c0.6,0,0.9,0.2,1.3,0.7c-0.5,0-0.7,0.1-0.8,0.4c0,0.3,0.1,0.4,0.3,0.5c-0.2-0.1-0.4,0-0.5,0.3
			c0.2,0.2,0.4,0.2,0.6,0.1c0.1,0.2,0,0.3-0.1,0.5c0.7,0,1.5-0.8,1.9-1.4c0.4,0,0.6,0.2,0.7,0.6C39.1,33.3,39.4,33.1,39.3,32.9
			L39.3,32.9L39.3,32.9z M40.1,43.4c-0.3-0.2-0.7-0.4-1.1-0.2c0.4-0.6,0.6-1.9,0.3-2.5c-0.1,0.3-0.2,0.3-0.4,0.4
			c-0.1-0.2-0.4-0.3-0.7-0.3c-0.1,0.2-0.2,0.4,0,0.7c-0.1-0.2-0.4-0.2-0.6,0c-0.1,0.3-0.2,0.7,0.2,1c-0.4,0.2-1.2,0.1-1.5-0.5
			c-0.3,0.3-0.3,0.4,0,0.6c-0.3-0.1-0.8,0.1-1.1,0.4c0,0.4,0.4,0.7,0.8,0.7c-0.2,0.1-0.4,0.2-0.4,0.5c0.6-0.3,1.2-0.3,1.7,0
			c-0.5,0.2-0.7,0.5-0.7,0.8c0,0.2,0.3,0.3,0.5,0.2c-0.3,0-0.4,0.2-0.4,0.5c0.3,0.1,0.5,0,0.7-0.2c0.1,0.1,0.1,0.3,0.1,0.6
			c0.8-0.4,1.2-1.4,1.4-2.3c0.4-0.2,0.8-0.1,1.1,0.2C40.1,43.9,40.3,43.6,40.1,43.4L40.1,43.4L40.1,43.4z M42.6,40
			c0.3,0.2,0.7,0.3,0.9,0.1c-0.2,0.6-0.2,1.8,0.2,2.3c0-0.3,0-0.3,0.3-0.4c0.1,0.2,0.4,0.3,0.6,0.3c0.1-0.1,0.1-0.4-0.1-0.6
			c0.1,0.2,0.4,0.2,0.5-0.1s0.1-0.7-0.3-0.9c0.3-0.2,0.9-0.2,1.3,0.4c0.1-0.2,0.2-0.3,0-0.5c0.3,0.1,0.7-0.1,0.8-0.4
			c-0.1-0.3-0.4-0.6-0.7-0.6c0.2-0.1,0.3-0.2,0.2-0.5c-0.5,0.3-0.9,0.3-1.4,0.1c0.4-0.2,0.4-0.5,0.4-0.8c-0.1-0.2-0.3-0.2-0.5-0.2
			c0.2,0,0.3-0.2,0.3-0.5c-0.3,0-0.4,0.1-0.5,0.3c-0.2-0.1-0.2-0.2-0.2-0.5c-0.6,0.4-0.7,1.4-0.7,2.2c-0.3,0.2-0.6,0.1-0.9-0.1
			C42.5,39.5,42.4,39.8,42.6,40L42.6,40L42.6,40z M49.4,44.6c-0.3-0.3-0.6-0.5-0.9-0.4c0.4-0.5,0.7-1.8,0.4-2.4
			c-0.1,0.3-0.2,0.3-0.4,0.3c-0.1-0.3-0.3-0.4-0.5-0.5c-0.1,0.1-0.2,0.4,0,0.7c-0.1-0.2-0.4-0.3-0.5-0.1c-0.2,0.2-0.3,0.6,0,1
			c-0.4,0.1-1-0.1-1.2-0.8c-0.2,0.2-0.2,0.3-0.1,0.6c-0.2-0.2-0.7-0.1-0.9,0.2c0,0.3,0.3,0.8,0.6,0.8c-0.2,0-0.3,0.1-0.3,0.4
			c0.5-0.2,1-0.1,1.4,0.3c-0.5,0.1-0.6,0.4-0.7,0.6c0,0.2,0.2,0.3,0.4,0.3c-0.2,0-0.3,0.1-0.4,0.4c0.2,0.1,0.4,0.1,0.6-0.1
			c0.1,0.1,0.1,0.3,0,0.5c0.7-0.2,1.1-1.2,1.3-1.9c0.3-0.1,0.6,0,0.9,0.4C49.3,45,49.5,44.7,49.4,44.6L49.4,44.6L49.4,44.6z
			 M51.4,45.4c0.1-0.3,0.4-0.6,0.7-0.6c-0.5-0.4-1.2-1.4-1.2-2c0.2,0.2,0.3,0.2,0.4,0.2c0-0.3,0.1-0.4,0.3-0.5
			c0.1,0.1,0.3,0.3,0.2,0.6c0-0.2,0.2-0.4,0.4-0.2c0.2,0.1,0.4,0.5,0.2,0.9c0.4,0,0.9-0.4,0.8-1c0.3,0.1,0.3,0.2,0.3,0.5
			c0.1-0.2,0.6-0.2,0.9-0.1c0.1,0.3,0,0.8-0.3,0.8c0.2,0,0.3,0,0.4,0.3c-0.5,0-0.9,0.2-1.2,0.6c0.5,0,0.6,0.1,0.8,0.4
			c0,0.2-0.1,0.3-0.3,0.4c0.2,0,0.4,0,0.5,0.3c0.1,0-0.1,0-0.3-0.1c-0.1,0.2,0,0.3,0.1,0.5c-0.6,0-1.3-0.7-1.8-1.3
			c-0.3,0-0.5,0.2-0.7,0.6C51.6,45.8,51.4,45.6,51.4,45.4L51.4,45.4L51.4,45.4z M50.7,55c0.3-0.2,0.7-0.3,1-0.2
			c-0.4-0.5-0.6-1.8-0.3-2.3c0.1,0.3,0.1,0.3,0.4,0.3c0.1-0.2,0.4-0.3,0.6-0.3c0.1,0.2,0.2,0.4,0,0.6c0.1-0.2,0.4-0.2,0.6,0
			c0.2,0.2,0.2,0.6-0.1,0.9c0.4,0.2,1.1,0.1,1.4-0.5c0.3,0.2,0.3,0.3,0,0.5c0.3-0.1,0.8,0.1,1,0.4c0,0.3-0.4,0.6-0.7,0.6
			c0.2,0.1,0.4,0.2,0.4,0.5c-0.6-0.3-1.1-0.3-1.6,0c0.5,0.2,0.6,0.4,0.7,0.7c0,0.2-0.3,0.2-0.5,0.2c0.2,0,0.4,0.2,0.4,0.5
			c-0.2,0.1-0.4,0-0.7-0.2c-0.2,0.1-0.1,0.2-0.1,0.5c-0.7-0.3-1.1-1.3-1.3-2c-0.4-0.1-0.7-0.1-1,0.2C50.7,55.4,50.5,55.1,50.7,55
			L50.7,55L50.7,55z M48.4,51.8c-0.3,0.2-0.6,0.3-0.9,0.1c0.2,0.5,0.2,1.7-0.2,2.1c0-0.3,0-0.3-0.2-0.3c-0.1,0.2-0.4,0.2-0.6,0.2
			c-0.1-0.1-0.1-0.4,0.1-0.5c-0.1,0.1-0.4,0.2-0.5-0.1c-0.1-0.2-0.1-0.6,0.3-0.8c-0.3-0.2-0.9-0.1-1.2,0.4c-0.1-0.2-0.1-0.3,0-0.5
			c-0.3,0.1-0.6-0.1-0.8-0.4c0.1-0.3,0.4-0.6,0.7-0.5C45,51.4,44.9,51.3,45,51c0.4,0.3,0.8,0.3,1.3,0.1c-0.4-0.2-0.4-0.4-0.4-0.7
			c0.1-0.2,0.3-0.2,0.5-0.2c-0.2,0-0.3-0.2-0.3-0.5c0.3,0,0.4,0.1,0.5,0.2c0.2-0.1,0.2-0.2,0.2-0.5c0.5,0.3,0.7,1.3,0.7,1.9
			c0.3,0.2,0.6,0.1,0.9-0.1C48.5,51.3,48.5,51.7,48.4,51.8L48.4,51.8L48.4,51.8z M59.5,32c-0.3-0.3-0.6-0.5-1-0.5
			c0.4-0.5,0.7-1.9,0.5-2.6c-0.1,0.3-0.2,0.4-0.4,0.3c0-0.3-0.3-0.4-0.6-0.5c-0.1,0.1-0.2,0.4,0,0.7c-0.1-0.2-0.4-0.3-0.6-0.1
			c-0.2,0.2-0.3,0.7,0.1,1.1c-0.4,0.2-1.1-0.1-1.3-0.9C56,29.9,56,30,56.1,30.3c-0.3-0.2-0.7-0.1-1,0.2c0,0.4,0.3,0.8,0.6,0.8
			c-0.2,0-0.3,0.2-0.4,0.5c0.6-0.2,1.1-0.1,1.5,0.3c-0.5,0.2-0.6,0.4-0.7,0.7c0,0.3,0.3,0.4,0.4,0.4c-0.2,0-0.4,0.2-0.4,0.5
			c0.2,0.1,0.4,0,0.7-0.1c0.1,0.2,0.1,0.3,0,0.6c0.7-0.2,1.2-1.3,1.4-2.1c0.4-0.1,0.7,0,0.9,0.4C59.4,32.5,59.6,32.2,59.5,32
			L59.5,32L59.5,32z M61.7,32.9c0.1-0.4,0.4-0.7,0.7-0.6c-0.5-0.4-1.3-1.5-1.2-2.2c0.2,0.2,0.3,0.3,0.4,0.2c0-0.3,0.1-0.5,0.3-0.6
			c0.2,0.1,0.3,0.3,0.3,0.6c0-0.2,0.2-0.4,0.5-0.2c0.2,0.2,0.4,0.5,0.3,1c0.4,0,0.9-0.4,0.9-1.1c0.3,0.1,0.3,0.2,0.3,0.5
			c0.2-0.3,0.6-0.3,1-0.1c0.1,0.4,0,0.9-0.3,0.9c0.2,0,0.3,0,0.4,0.3c-0.6,0-0.9,0.2-1.3,0.7c0.5,0,0.7,0.1,0.8,0.4
			c0,0.3-0.1,0.4-0.3,0.5c0.2-0.1,0.4,0,0.5,0.3c-0.2,0.2-0.4,0.2-0.6,0.1c-0.1,0.2,0,0.3,0.1,0.5c-0.7,0-1.5-0.8-1.9-1.4
			c-0.4,0-0.6,0.2-0.7,0.6C61.9,33.3,61.6,33.1,61.7,32.9L61.7,32.9L61.7,32.9z M60.9,43.4c0.3-0.2,0.7-0.4,1.1-0.2
			c-0.4-0.6-0.6-1.9-0.3-2.5c0.1,0.3,0.2,0.3,0.4,0.4c0.1-0.2,0.4-0.3,0.7-0.3c0.1,0.2,0.2,0.4,0,0.7c0.1-0.2,0.4-0.2,0.6,0
			c0.1,0.3,0.2,0.7-0.2,1c0.4,0.2,1.2,0.1,1.5-0.5c0.3,0.3,0.3,0.4,0,0.6c0.3-0.1,0.8,0.1,1.1,0.4c0,0.4-0.4,0.7-0.8,0.7
			c0.2,0.1,0.4,0.2,0.4,0.5c-0.6-0.3-1.2-0.3-1.7,0c0.5,0.2,0.7,0.5,0.7,0.8c0,0.2-0.3,0.3-0.5,0.2c0.3,0,0.4,0.2,0.4,0.5
			c-0.3,0.1-0.5,0-0.7-0.2c-0.1,0.1-0.1,0.3-0.1,0.6c-0.8-0.4-1.2-1.4-1.4-2.3c-0.4-0.2-0.8-0.1-1.1,0.2
			C60.9,43.9,60.7,43.6,60.9,43.4L60.9,43.4L60.9,43.4z M58.4,40c-0.3,0.2-0.7,0.3-0.9,0.1c0.2,0.6,0.2,1.8-0.2,2.3
			c0-0.3,0-0.3-0.3-0.4c-0.1,0.2-0.4,0.3-0.6,0.3c-0.1-0.1-0.1-0.4,0.1-0.6c-0.1,0.2-0.4,0.2-0.5-0.1s-0.1-0.7,0.3-0.9
			c-0.3-0.2-0.9-0.2-1.3,0.4c-0.1-0.2-0.2-0.3,0-0.5c-0.3,0.1-0.7-0.1-0.8-0.4c0.1-0.3,0.4-0.6,0.7-0.6c-0.2-0.1-0.3-0.2-0.2-0.5
			c0.5,0.3,0.9,0.3,1.4,0.1c-0.4-0.2-0.4-0.5-0.4-0.8c0.1-0.2,0.3-0.2,0.5-0.2c-0.2,0-0.3-0.2-0.3-0.5c0.3,0,0.4,0.1,0.5,0.3
			c0.2-0.1,0.2-0.2,0.2-0.5c0.6,0.4,0.7,1.4,0.7,2.2c0.3,0.2,0.6,0.1,0.9-0.1C58.5,39.5,58.6,39.8,58.4,40L58.4,40L58.4,40z"/>
		<path id="path1394" fill="#129612" d="M50.7,16.8c0,0.1-0.2,0.3-0.4,0.6c-0.3,0.3-0.4,0.5-0.5,0.8c-0.1,0.4-0.2,0.5-0.4,0.5
			c-0.1-0.1-0.3-0.3-0.3-0.6c-0.1-0.5-0.5-0.6-0.8-0.3c-0.1,0.1-0.2,0.2-0.4,0.2c-0.3,0.1-0.6,0.2-0.7,0.4c-0.1,0.1-0.1,0.2-0.1,0.2
			s0.1,0.2,0.2,0.3c0.3,0.4,0.5,0.5,1,0.5c0.3,0,0.5,0,0.5-0.1c0,0,0-0.1-0.1-0.2c-0.3-0.3-0.4-0.6-0.4-0.7c0.1-0.1,0.9,0.7,1.1,1.1
			c0,0.1,0.1,0.2,0.1,0.2c0,0.1,0,0.1,0.2,0.1s0.7-0.2,0.8-0.3c0-0.1,0.1-0.5,0.1-1.1c0-1,0.1-1.2,0.2-1.2c0.1,0,0.1,0.3,0.1,1.3
			c0,0.5,0.1,1,0.1,1c0.1,0.1,0.5,0.4,0.6,0.4s0.2-0.1,0.5-0.3c0.2-0.2,0.5-0.5,0.8-0.6c0.6-0.4,0.7-0.4,0.4,0
			c-0.1,0.1-0.2,0.3-0.2,0.3c0,0.1,0.5,0.3,0.7,0.3c0.1,0,0.2,0,0.3-0.1c0.1-0.2,0.4-1,0.5-1.4c0-0.3,0-0.3-0.2-0.1
			c-0.1,0.1-0.3,0.1-0.5,0.2c-0.2,0-0.6,0.2-0.9,0.3c-0.8,0.3-0.9,0.3-1.1-0.2c-0.1-0.1-0.2-0.4-0.2-0.5
			C51.6,17.6,50.8,16.8,50.7,16.8C50.8,16.7,50.7,16.7,50.7,16.8L50.7,16.8z"/>
		<path id="path1396" fill="#129612" d="M45.8,18.4c-0.6,0.1-1.2,0.5-1.9,1c-0.4,0.3-0.5,0.6-0.5,0.7s0.1,0.1,0.4,0.1
			c0.3,0,0.3,0,0.4,0.1c0.1,0.1,0.2,0.1,0.4,0.2c0.2,0,0.4,0.1,0.4,0.2c0.1,0.1,0.3,0.1,0.5,0.1c0.1-0.1,0.2-0.3,0.2-0.7
			c0-0.4-0.1-0.5-0.7-0.3c-0.2,0.1-0.4,0.1-0.5,0.1s-0.1,0,0-0.1c0.1-0.2,0.6-0.3,1.1-0.4c0.8-0.1,1.1-0.3,1.1-0.7v-0.2h-0.3
			C46.3,18.3,46,18.4,45.8,18.4L45.8,18.4z"/>
		<path id="path1398" fill="#129612" d="M55,18.4c0,0-0.1,0.1-0.1,0.2s0,0.2-0.1,0.2c0,0.1,0.4,0.4,0.7,0.5c0.1,0,0.6,0.1,0.9,0.1
			c0.7,0,1,0.1,1,0.2c0,0-0.3,0.1-0.8,0.1s-0.8,0-0.9,0.1c-0.1,0-0.1,0.1,0,0.3c0,0.3,0.2,0.5,0.4,0.6s0.2,0.1,0.3-0.1
			c0.1-0.1,0.2-0.1,0.5-0.2c0.2,0,0.4-0.1,0.4-0.1c0.1-0.1,0.1-0.1,0.4-0.1c0.3,0,0.4,0,0.4-0.1c0-0.2-0.7-0.9-1.5-1.3
			C56.1,18.4,55.1,18.2,55,18.4L55,18.4z"/>
		<path id="path1400" fill="#129612" d="M46.8,19.4c-0.4,0.3-0.6,0.7-0.7,1.1c0,0.1,0,0.2,0,0.3c0,0.1,0.1,0.2,0.1,0.3
			c0,0.2,0.2,0.3,0.5,0.4c0.4,0.2,0.8,0.1,1.3-0.1l0.4-0.2L48.2,21c-0.3-0.3-0.7-0.5-1.3-0.6l-0.4-0.1H47c0.5,0,0.7-0.1,0.7-0.3
			c0-0.1-0.5-0.7-0.6-0.7C47,19.2,46.9,19.3,46.8,19.4z"/>
		<path id="path1402" fill="#129612" d="M54.3,19.6c-0.3,0.3-0.4,0.6-0.4,0.6s0.1,0,0.3-0.1c0.3-0.2,0.5-0.3,0.5-0.2
			c0.1,0.1-0.1,0.2-0.6,0.5c-0.7,0.5-0.7,0.6-0.6,0.8c0.1,0.2,0.5,0.4,0.7,0.4c0.3,0,0.8-0.2,1-0.3c0.2-0.2,0.2-0.2,0.2-0.6
			c0-0.5-0.2-0.9-0.5-1.2C54.7,19.3,54.6,19.3,54.3,19.6L54.3,19.6z"/>
		<path id="path1404" fill="#129612" d="M44.2,21.3c-0.3,0.1-1.2,0.9-1.1,1.1c0,0.1,0.4,0.2,0.7,0.3c0.2,0,0.5,0.1,0.8,0.1
			c0.6,0,0.7,0,0.8,0.3c0,0.1,0.1,0.2,0.2,0.2c0.2,0,1.4-0.6,1.7-0.9c0.2-0.2,0.4-0.3,0.3-0.4c0,0-0.3-0.1-0.6-0.1
			c-0.7-0.1-0.9-0.2-1.1-0.3c-0.1-0.1-0.3-0.2-0.4-0.2C45.1,21.3,44.4,21.2,44.2,21.3L44.2,21.3z M45.8,22c0.6,0.1,0.9,0.2,0.9,0.3
			c0,0-0.1,0-0.2,0c-0.1,0-0.7-0.1-1.3-0.1S44,22.1,44,22.1c-0.1,0-0.1-0.1,0.1-0.2C44.3,21.9,45.3,21.9,45.8,22L45.8,22z"/>
		<path id="path1406" fill="#129612" d="M56.4,21.3c-0.3,0.1-0.6,0.2-0.7,0.3c-0.1,0.1-0.3,0.2-0.9,0.3C54,22,54,22,54,22
			c0,0.2,1,0.8,1.6,1.1c0.4,0.2,0.6,0.2,0.6-0.1c0.1-0.3,0.1-0.3,0.9-0.3c0.6,0,0.8,0,1-0.2c0.1-0.1,0.3-0.2,0.3-0.2
			c0-0.1-0.5-0.7-0.7-0.9c-0.1-0.1-0.3-0.1-0.3-0.2C57.2,21.3,56.6,21.2,56.4,21.3z M56.6,21.9c0.1,0,0.4,0.1,0.7,0.1
			c0.5,0.1,0.7,0.1,0.4,0.2c-0.1,0-0.7,0-1.3,0h-1.1l0.3-0.1c0.3-0.1,0.7-0.3,0.8-0.3C56.3,21.9,56.4,21.9,56.6,21.9L56.6,21.9z"/>
		
			<path id="path2348" inkscape:connector-curvature="0" sodipodi:nodetypes="ccccccccccccccccccccscscsscsccsccccscccccssccccc" fill="#129612" d="
			M36.1,59.1c0,0-0.2,0-0.4,0.1c-0.4,0.1-0.5,0.1-0.6,0.5c-0.1,0.2-0.2,0.5-0.3,0.6c-0.2,0.2-0.4,0.7-0.3,0.9c0,0.2,0.3,0.3,0.7,0.2
			c0.6-0.1,0.7-0.2,0.7,0c0,0.1-0.3,0.4-0.7,0.7s-0.5,0.6-0.5,1.2c0,0.3-0.1,0.7-0.1,0.9c-0.1,0.3-0.1,0.6-0.1,0.6
			c0.1,0.1,0.9,0.2,1.4,0.1c0.8-0.1,1.2-0.5,1.3-1.2c0.1-0.4,0.3-0.9,0.5-1.2c0.2-0.2,0.3-0.2,0.4,0c0.2,0.2,0.1,0.1-0.1,1.1
			c-0.2,1-0.1,1.4,0.2,1.6s0.6,0.2,0.7-0.1c0-0.1,0.2-0.5,0.4-0.7c0.4-0.5,0.5-0.8,0.2-1.4c-0.2-0.4-0.3-0.4-0.1-0.4
			c0,0,0.1,0.1,0.3,0.3s0.5,0.4,0.6,0.4c0.4,0,0.5-1.9,0-2.2C40,61,40,61.2,40,61.9c0,0.5,0.1,0.6,0,0.6s-0.1-0.1-0.2-0.4
			c-0.1-0.3-0.4-0.4-0.7-0.2l-0.2,0.2v1c0,0.8,0.1,0.7,0,0.7s-0.1-0.1-0.2-0.9c0-0.4-0.1-0.8-0.1-0.9c0-0.1-0.2-0.2-0.4-0.3
			s-0.4-0.1-0.6,0c-0.6,0.2-1.1,0.8-1.5,1.4c-0.2,0.4-0.2,0.5-0.3,0.4c-0.1,0-0.1,0,0-0.2c0.2-0.4,0.5-0.8,1.1-1.4
			c0.6-0.7,0.6-0.8,0.5-1.1c-0.1-0.4-0.2-0.6-0.8-0.6c-0.3,0-0.7,0-0.7-0.1s0.2-0.2,0.8-0.2s0.6,0,0.7-0.2c0.1-0.1,0.1-0.2,0.2-0.3
			c0.1-0.3-0.1-0.3-0.8-0.3C36.4,59.1,36.1,59.1,36.1,59.1L36.1,59.1z"/>
		
			<path id="path2343" inkscape:connector-curvature="0" sodipodi:nodetypes="ccccccccccccccscccscccscccccccsccccccccccscsccccc" fill="#129612" d="
			M28.3,41.2c0,0.1-0.2,0.2-0.4,0.3c-0.5,0.2-1.2,0.5-1.3,0.6c0,0.1,0.2,0.3,0.6,0.5c0.8,0.5,0.8,0.4-0.1,0.5
			c-0.7,0.1-0.8,0.2-1.3,0.7c-0.2,0.2-0.6,0.5-0.7,0.6c-0.2,0.1-0.4,0.4-0.4,0.5c0,0.2,0.2,0.3,0.6,0.7c0.5,0.4,0.9,0.6,1.2,0.6
			c0.3,0,0.6-0.2,1.2-0.6c0.3-0.2,0.6-0.5,0.8-0.6c0.3-0.1,0.3-0.1,0.4,0c0.2,0.1,0.2,0.4,0,0.6c-0.1,0.1-0.3,0.2-0.3,0.2
			c-0.1,0-0.9,0.9-1,1.2c-0.2,0.4-0.2,0.7,0,0.8s0.4,0.1,0.6,0c0.1-0.1,0.4-0.2,0.4-0.2c0.2,0,0.4-0.2,0.6-0.5
			c0.3-0.3,0.6-0.4,0.7-0.8c0-0.2,0-0.3,0-0.3c0.1-0.1,0.2,0.1,0.2,0.3c0,0.8,0.7,0.9,1,0.3c0.1-0.1,0.3-0.3,0.3-0.4
			c0.1-0.2,0.3-0.7,0.3-0.8c-0.1-0.1-0.3,0-0.5,0.1c-0.1,0.1-0.3,0.3-0.4,0.5c-0.2,0.3-0.3,0.5-0.3,0.4c0,0,0.1-0.2,0.2-0.4
			c0.1-0.4,0-0.6-0.4-0.6c-0.3,0-0.5,0.1-0.9,0.7c-0.8,1.1-0.7,0.8,0-0.3c0.2-0.3,0.2-0.6,0.2-0.8s-0.2-0.7-0.4-0.8
			c-0.3-0.2-0.8-0.2-1.5,0c-0.3,0.1-0.8,0.3-0.9,0.3c-0.2,0-0.2,0.1-0.1,0c0.2-0.3,1.2-0.7,1.9-0.7c0.5,0,0.7-0.2,0.8-0.4
			c0.2-0.4,0.3-0.6-0.2-1.1c-0.2-0.2-0.5-0.4-0.5-0.5s0.1,0,0.4,0.2c0.5,0.4,0.7,0.4,1,0.4s0.8-0.2,0.8-0.4c0-0.1-0.3-0.3-0.5-0.4
			c-0.2-0.1-0.5-0.3-0.7-0.5C29,41,28.4,41,28.3,41.2L28.3,41.2z"/>
		
			<path id="path2339" inkscape:connector-curvature="0" sodipodi:nodetypes="cccccccscccccccccccsccscccscccccccccsccccccccc" fill="#129612" d="
			M72.1,41.7c-0.1,0.1-0.4,0.1-0.6,0.3c-0.2,0.1-0.7,0.4-0.9,0.5c-0.4,0.2-0.3,0.4,0,0.6c0.3,0.2,0.8,0.2,1.3-0.2
			c0.7-0.5,0.7-0.5,0.1,0.1c-0.4,0.4-0.4,0.6-0.3,1c0.1,0.3,0.3,0.5,0.8,0.5c0.6,0,1.6,0.4,1.9,0.7s0.2,0.1-0.7-0.3
			c-0.6-0.2-1.5-0.3-1.7-0.1c-0.2,0.1-0.6,0.8-0.5,1c0,0.1,0.3,0.4,0.5,0.7c0.4,0.5,0.5,0.8,0.4,0.8c-0.1,0.1-0.1-0.1-0.6-0.7
			c-0.4-0.5-0.7-0.7-1-0.6c-0.2,0-0.1,0.1-0.1,0.4c0,0.1,0,0.4,0.1,0.5c0.1,0.4-0.2,0.2-0.4-0.2c-0.2-0.4-0.4-0.8-0.6-0.8
			s-0.1,0.5,0.1,0.8c0.1,0.1,0.2,0.3,0.3,0.4c0.1,0.3,0.4,0.6,0.6,0.6s0.4-0.2,0.5-0.6c0.1-0.6,0.3-0.7,0.4-0.1
			c0.1,0.4,0.2,0.5,0.5,0.8c0.3,0.2,0.6,0.4,0.8,0.4c0.1,0,0.2,0.1,0.3,0.2c0.2,0.2,0.3,0.2,0.5,0.1c0.2-0.1,0.3-0.4,0.2-0.7
			c-0.2-0.4-0.9-1.2-1.2-1.4c-0.2-0.1-0.4-0.3-0.3-0.5c0-0.1,0-0.2,0.1-0.2c0.2-0.1,0.5,0,1.2,0.5c0.3,0.2,0.6,0.4,0.7,0.5
			c0.3,0.2,0.7,0.2,1.1-0.1c0.4-0.2,1.1-0.9,1.1-1c0-0.2-0.2-0.4-0.5-0.6c-0.2-0.1-0.5-0.4-0.7-0.6c-0.5-0.4-0.6-0.6-1.3-0.6
			c-0.6-0.1-0.8-0.1-0.7-0.2c0-0.1,0.2-0.2,0.5-0.4c0.5-0.3,0.5-0.4,0.5-0.5c-0.1-0.1-0.6-0.3-1.2-0.6c-0.2-0.1-0.3-0.2-0.4-0.3
			C72.7,41.5,72.4,41.5,72.1,41.7L72.1,41.7z"/>
		
			<path id="path1414" inkscape:connector-curvature="0" sodipodi:nodetypes="cccccccccccccccccccccsccccccscccccccccccc" fill="#129612" d="
			M63.5,59.2c-0.2,0.1-0.2,0.1-0.1,0.4c0.1,0.3,0.3,0.5,0.8,0.5c0.5,0,0.7,0,0.7,0.1c0.1,0.1,0.1,0.1-0.4,0.1
			c-0.4,0-0.6,0.1-0.7,0.3c-0.4,0.4-0.3,0.8,0.3,1.5c0.8,0.8,1,0.7,1.1,1.6c-0.1,0.1-0.2,0-0.4-0.4c-0.4-0.7-1-1.4-1.6-1.5
			c-0.3-0.1-0.9,0.2-1,0.4c0,0.1,0,0.5-0.1,0.9c0,0.7,0,0.9-0.2,0.7c-0.1-0.1-0.1-0.1,0-0.8s0-1.1-0.2-1.2c-0.3-0.2-0.6,0-0.7,0.2
			c-0.1,0.2-0.2,0.5-0.3,0.5c0,0-0.1-0.2-0.1-0.6c0-0.3-0.1-0.7-0.1-0.7c-0.2-0.3-0.5,0.3-0.4,1.1c0,1,0.3,1.2,0.8,0.6
			c0.2-0.2,0.3-0.1,0.3-0.1c0.1,0,0.1,0-0.1,0.4c-0.3,0.6-0.2,0.9,0.2,1.4c0.2,0.2,0.3,0.5,0.4,0.7c0.1,0.3,0.5,0.3,0.8,0
			c0.2-0.2,0.2-0.3,0.3-0.6c0-0.3-0.1-0.6-0.2-1c-0.2-0.9-0.3-1.2,0.1-1.2c0.3,0,0.7,0.7,0.8,1.4c0.1,0.6,0.5,0.9,1.2,1.1
			c0.4,0.1,0.9,0.1,1.3,0c0.2-0.1,0.3-0.2,0.1-1C66,63.7,66,63.3,66,63.2c0-0.5-0.1-0.7-0.6-1.2c-0.8-0.6-0.9-0.8-0.2-0.6
			c0.7,0.2,1.1,0,1-0.4c0-0.1-0.2-0.4-0.3-0.6c-0.1-0.2-0.2-0.6-0.3-0.8c0-0.2-0.3-0.4-0.3-0.4C65.3,59.1,63.8,59.1,63.5,59.2
			L63.5,59.2z"/>
	</g>
	<g id="reds">
		<g id="path90">
			<path fill="#B400B4" d="M43.6,42.1c0.2-0.3,0.4-0.3,0.6-0.2c0.2,0.1,0.3,0.4,0,0.6c0.4,0.1,0.4,0.8-0.1,0.8
				c0.3,0.2,0.3,0.7-0.1,0.8c0.2,0.2,0.1,0.6-0.2,0.7c0,0.1-0.1,0.3-0.2,0.4c0.1,0.2,0,0.4-0.1,0.5c0,0.1-0.1,0.2-0.2,0.3
				c0,0.2-0.2,0.3-0.4,0.3s-0.4-0.2-0.4-0.4c-0.3-0.2-0.3-0.5,0-0.7c-0.4-0.1-0.4-0.5-0.2-0.7c-0.1-0.1-0.1-0.2-0.1-0.3
				c-0.2-0.1-0.3-0.3-0.2-0.5c-0.4-0.1-0.4-0.5-0.3-0.7c-0.3-0.2-0.2-0.6,0.1-0.7c0-0.2,0.1-0.4,0.4-0.5c0.1,0,0.3,0,0.4,0.2
				c0.1-0.1,0.3,0,0.4,0.1C43.2,42.1,43.4,42,43.6,42.1L43.6,42.1L43.6,42.1z M43.8,33.8c0.2-0.3,0.4-0.3,0.6-0.2
				c0.2,0.1,0.3,0.4,0,0.6c0.4,0.1,0.4,0.8-0.1,0.8c0.3,0.2,0.3,0.7-0.1,0.8c0.2,0.2,0.1,0.6-0.2,0.7c0,0.1-0.1,0.3-0.2,0.4
				c0.1,0.2,0,0.4-0.1,0.5c0,0.1-0.1,0.2-0.2,0.3c0,0.2-0.2,0.3-0.4,0.3s-0.4-0.2-0.4-0.4c-0.3-0.2-0.3-0.5,0-0.7
				c-0.4-0.1-0.4-0.5-0.2-0.7c-0.1-0.1-0.1-0.2-0.1-0.3c-0.2-0.1-0.3-0.3-0.2-0.5c-0.4-0.1-0.4-0.5-0.3-0.7
				c-0.3-0.2-0.2-0.6,0.1-0.7c0-0.2,0.1-0.4,0.4-0.5c0.1,0,0.3,0,0.4,0.2c0.1-0.1,0.3,0,0.4,0.1C43.5,33.7,43.6,33.7,43.8,33.8
				L43.8,33.8L43.8,33.8z M36.7,36.2c-0.2-0.3-0.4-0.3-0.6-0.2c-0.2,0.1-0.3,0.4,0,0.6c-0.4,0.1-0.4,0.8,0.1,0.8
				c-0.3,0.2-0.3,0.7,0.1,0.8c-0.2,0.2-0.1,0.6,0.2,0.7c0,0.1,0.1,0.3,0.2,0.4c-0.1,0.2,0,0.4,0.1,0.5c0,0.1,0.1,0.2,0.2,0.3
				c0,0.2,0.2,0.3,0.4,0.3s0.4-0.2,0.4-0.4c0.3-0.2,0.3-0.5,0-0.7c0.4-0.1,0.4-0.5,0.2-0.7c0.1-0.1,0.1-0.2,0.1-0.3
				c0.2-0.1,0.3-0.3,0.2-0.5c0.4-0.1,0.4-0.5,0.3-0.7c0.3-0.2,0.2-0.6-0.1-0.7c0-0.2-0.1-0.4-0.4-0.5c-0.1,0-0.3,0-0.4,0.2
				c-0.1-0.1-0.3,0-0.4,0.1C37.1,36.2,36.9,36.1,36.7,36.2L36.7,36.2L36.7,36.2z"/>
			<path d="M42.9,46.4c-0.3,0-0.5-0.2-0.6-0.5c-0.1-0.1-0.2-0.3-0.2-0.4c0-0.1,0-0.2,0.1-0.4C42.1,45,42,44.9,42,44.7
				c0-0.1,0-0.3,0.1-0.4c0,0,0-0.1,0-0.2c-0.2-0.1-0.2-0.3-0.2-0.5c-0.1-0.1-0.2-0.2-0.3-0.3c0-0.1,0-0.3,0-0.4
				c-0.1-0.1-0.1-0.3-0.1-0.4c0-0.2,0.1-0.3,0.2-0.4c0-0.1,0-0.2,0.1-0.3s0.3-0.2,0.4-0.2c0.2,0,0.3,0,0.5,0.1c0.1,0,0.3,0,0.4,0.1
				c0.1,0,0.2-0.1,0.4,0c0.2-0.2,0.5-0.3,0.8-0.1c0.1,0.1,0.3,0.2,0.3,0.4c0,0.1,0,0.2,0,0.3c0.1,0.1,0.2,0.3,0.2,0.5
				s-0.1,0.3-0.2,0.4c0.1,0.1,0.1,0.3,0.1,0.4c0,0.2-0.1,0.3-0.3,0.4c0,0.1,0,0.2,0,0.3c0,0.2-0.1,0.3-0.3,0.4
				c0,0.1-0.1,0.2-0.2,0.3c0,0.2,0,0.3-0.1,0.5c0,0.2-0.1,0.2-0.2,0.3C43.4,46.3,43.2,46.4,42.9,46.4z M42.4,42
				C42.3,42,42.3,42,42.4,42c-0.1,0-0.2,0-0.2,0.1v0.1v0.2L42,42.5c-0.1,0-0.1,0.1-0.1,0.2c0,0.1,0,0.1,0.1,0.2l0.2,0.1L42,43.1
				c0,0-0.1,0.1,0,0.2c0,0.1,0.1,0.1,0.2,0.2l0.2,0.1l-0.1,0.2c0,0.1,0,0.2,0.1,0.2l0.1,0.1v0.1c0,0.1,0,0.1,0.1,0.2l0.1,0.2
				l-0.2,0.1c-0.1,0-0.1,0.1-0.1,0.1c0,0.1,0.1,0.2,0.2,0.2l0.3,0.1l-0.3,0.2c-0.1,0.1-0.1,0.1-0.1,0.2c0,0.1,0,0.1,0.1,0.2l0.1,0.1
				v0.1c0,0.1,0.1,0.2,0.2,0.2c0.2,0,0.2-0.1,0.2-0.2v-0.1h0.1c0.1-0.1,0.1-0.1,0.1-0.2v-0.1l0,0c0.1-0.1,0.1-0.2,0-0.3L43.2,45
				l0.2-0.1c0.1,0,0.1-0.1,0.1-0.2v-0.2l0.1-0.1c0.1,0,0.1-0.1,0.2-0.2c0,0,0-0.1,0-0.2l-0.1,0l0.3-0.1c0.1,0,0.2-0.1,0.2-0.2
				c0-0.1,0-0.2-0.1-0.3l-0.6-0.3l0.6-0.1c0.2,0,0.2-0.1,0.2-0.2c0-0.1,0-0.2-0.2-0.3l-0.3-0.1l0.2-0.2c0.1-0.1,0.1-0.1,0.1-0.2
				c0-0.1,0-0.1-0.1-0.1c-0.1-0.1-0.3,0-0.4,0.1l-0.1,0.2l-0.2-0.1c-0.1-0.1-0.2,0-0.2,0L43,42.2l0,0c-0.1-0.1-0.2-0.1-0.2-0.1
				l-0.2,0.1L42.4,42C42.5,42.1,42.4,42,42.4,42z M37.4,40.6c-0.3,0-0.5-0.1-0.6-0.4c-0.1-0.1-0.2-0.2-0.2-0.3
				c-0.1-0.1-0.2-0.3-0.1-0.5c-0.1-0.1-0.2-0.2-0.2-0.3C36.1,39,36,38.8,36,38.7s0-0.2,0-0.3c-0.1-0.1-0.2-0.2-0.3-0.4
				c0-0.1,0-0.3,0.1-0.4c-0.1-0.1-0.2-0.2-0.2-0.4s0.1-0.4,0.2-0.5c0-0.1-0.1-0.2,0-0.3c0-0.2,0.1-0.3,0.3-0.4
				c0.3-0.1,0.6-0.1,0.8,0.1c0.1,0,0.3,0,0.4,0c0.1-0.1,0.3-0.1,0.4-0.1c0.1-0.1,0.3-0.2,0.5-0.1c0.2,0,0.3,0.1,0.4,0.2
				c0.1,0.1,0.1,0.2,0.1,0.3c0.1,0.1,0.2,0.2,0.2,0.4s0,0.3-0.1,0.4c0.1,0.1,0.1,0.3,0,0.4c0,0.1-0.1,0.3-0.3,0.3
				c0,0.2-0.1,0.4-0.2,0.5c0,0.1,0,0.1,0,0.2c0.1,0.1,0.1,0.2,0.1,0.4c0,0.1-0.1,0.3-0.2,0.4c0.1,0.1,0.1,0.2,0.1,0.4
				s-0.1,0.3-0.2,0.4C37.9,40.3,37.7,40.6,37.4,40.6z M36.3,36.1L36.3,36.1l-0.2,0.1c0,0.1,0,0.1,0.1,0.2l0.2,0.2l-0.3,0.1
				C36,36.9,36,37,36,37.1c0,0,0,0.2,0.2,0.2l0.6,0.1l-0.6,0.3c-0.1,0.1-0.1,0.2-0.1,0.3s0.1,0.1,0.2,0.2l0.3,0.1l-0.2,0.3
				c-0.1,0.1-0.1,0.2,0,0.2c0,0.1,0.1,0.2,0.2,0.2l0.1,0.1v0.2c0,0.1,0,0.1,0.1,0.2l0.2,0.1l-0.1,0.2c-0.1,0.1,0,0.2,0,0.3l0,0v0.1
				c0,0.1,0,0.1,0.1,0.2h0.1v0.1c0,0,0.1,0.2,0.2,0.2c0.1,0,0.2-0.1,0.2-0.2v-0.1l0.1-0.1c0.1,0,0.1-0.1,0.1-0.2
				c0-0.1-0.1-0.2-0.1-0.2l-0.3-0.2l0.3-0.1c0.1,0,0.2-0.1,0.2-0.2c0,0,0-0.1-0.1-0.1l-0.2-0.1l0.1-0.2c0-0.1,0.1-0.1,0.1-0.2v-0.1
				l0.1-0.1c0.1-0.1,0.1-0.2,0.1-0.2l-0.1-0.2l0.2-0.1c0.1,0,0.2-0.1,0.2-0.2c0-0.1,0-0.1,0-0.2l-0.1-0.2l0.2-0.1
				c0.1-0.1,0.1-0.1,0.1-0.2c0-0.1-0.1-0.2-0.1-0.2l-0.2-0.1v-0.2v-0.1c0,0-0.1-0.1-0.2-0.1c-0.1,0-0.2,0-0.2,0.1l-0.1,0.2l-0.2-0.1
				c0,0-0.1,0-0.2,0.1l-0.1,0.1L37,36.8c0,0-0.1-0.1-0.2,0l-0.2,0.1l-0.1-0.2C36.5,36.2,36.4,36.1,36.3,36.1z M43.2,38.1
				c-0.3,0-0.5-0.2-0.6-0.5c-0.1-0.1-0.2-0.3-0.2-0.4c0-0.1,0-0.2,0.1-0.4c-0.1-0.1-0.2-0.2-0.2-0.4c0-0.1,0-0.3,0.1-0.4
				c0,0,0-0.1,0-0.2c-0.2-0.1-0.2-0.3-0.2-0.5c-0.1-0.1-0.2-0.2-0.3-0.3c0-0.1,0-0.3,0-0.4c-0.1-0.1-0.1-0.3-0.1-0.4
				c0-0.2,0.1-0.3,0.2-0.4c0-0.1,0-0.2,0.1-0.3s0.3-0.2,0.4-0.2c0.2,0,0.3,0,0.5,0.1c0.1,0,0.3,0,0.4,0.1c0.1,0,0.2-0.1,0.4,0
				c0.2-0.2,0.5-0.3,0.8-0.1c0.1,0.1,0.3,0.2,0.3,0.4c0,0.1,0,0.2,0,0.3c0.1,0.1,0.2,0.3,0.2,0.5S45,34.9,44.9,35
				c0.1,0.1,0.1,0.3,0.1,0.4c0,0.2-0.1,0.3-0.3,0.4c0,0.1,0,0.2,0,0.3c0,0.2-0.1,0.3-0.3,0.4c0,0.1-0.1,0.2-0.2,0.3
				c0,0.2,0,0.3-0.1,0.5c0,0.2-0.1,0.2-0.2,0.3C43.6,38,43.4,38.1,43.2,38.1z M42.6,33.7L42.6,33.7c-0.1,0-0.2,0-0.2,0.1v0.1v0.2
				l-0.2,0.1c-0.1,0-0.1,0.1-0.1,0.2c0,0.1,0,0.1,0.1,0.2l0.2,0.1l-0.1,0.2c0,0-0.1,0.1,0,0.2c0,0.1,0.1,0.1,0.2,0.2l0.2,0.1
				l-0.1,0.2c0,0.1,0,0.2,0.1,0.2l0.1,0.1V36c0,0.1,0,0.1,0.1,0.2l0.1,0.2l-0.2,0.1c-0.1,0-0.1,0.1-0.1,0.1c0,0.1,0.1,0.2,0.2,0.2
				l0.3,0.1L42.9,37c-0.1,0.1-0.1,0.1-0.1,0.2c0,0.1,0.1,0.1,0.1,0.2l0.1,0.1v0.1c0,0.1,0.1,0.2,0.2,0.2c0.2,0,0.2-0.1,0.2-0.2v-0.1
				h0.1c0.1-0.1,0.1-0.1,0.1-0.2v-0.1l0,0c0.1-0.1,0.1-0.2,0-0.3l-0.1-0.2l0.2-0.1c0.1,0,0.1-0.1,0.1-0.2v-0.2l0.1-0.1
				c0.1,0,0.1-0.1,0.2-0.2c0,0,0-0.1,0-0.2l-0.2-0.3l0.3-0.1c0.1,0,0.2-0.1,0.2-0.2c0-0.1,0-0.2-0.1-0.3l-0.6-0.3l0.6-0.1
				c0.2,0,0.2-0.2,0.2-0.2c0-0.1,0-0.2-0.2-0.3L44,33.8l0.2-0.2c0.1-0.1,0.1-0.1,0.1-0.2c0-0.1,0-0.1-0.1-0.1
				c-0.1-0.1-0.3,0-0.4,0.1l0.1,0.6l-0.2-0.1c-0.1-0.1-0.2,0-0.2,0L43.4,34l-0.1-0.1c-0.1-0.1-0.2-0.1-0.2-0.1L42.8,34l-0.1-0.2
				C42.7,33.8,42.7,33.7,42.6,33.7z"/>
		</g>
		<g id="path100">
			<path fill="#B400B4" d="M57.4,42.1c-0.2-0.3-0.4-0.3-0.6-0.2c-0.2,0.1-0.3,0.4,0,0.6c-0.4,0.1-0.4,0.8,0.1,0.8
				c-0.3,0.2-0.3,0.7,0.1,0.8c-0.2,0.2-0.1,0.6,0.2,0.7c0,0.1,0.1,0.3,0.2,0.4c-0.1,0.2,0,0.4,0.1,0.5c0,0.1,0.1,0.2,0.2,0.3
				c0,0.2,0.2,0.3,0.4,0.3s0.4-0.2,0.4-0.4c0.3-0.2,0.3-0.5,0-0.7c0.4-0.1,0.4-0.5,0.2-0.7c0.1-0.1,0.1-0.2,0.1-0.3
				c0.2-0.1,0.3-0.3,0.2-0.5c0.4-0.1,0.4-0.5,0.3-0.7c0.3-0.2,0.2-0.6-0.1-0.7c0-0.2-0.1-0.4-0.4-0.5c-0.1,0-0.3,0-0.4,0.2
				c-0.1-0.1-0.3,0-0.4,0.1C57.8,42.1,57.6,42,57.4,42.1L57.4,42.1L57.4,42.1z M57.2,33.8c-0.2-0.3-0.4-0.3-0.6-0.2
				c-0.2,0.1-0.3,0.4,0,0.6c-0.4,0.1-0.4,0.8,0.1,0.8c-0.3,0.2-0.3,0.7,0.1,0.8c-0.2,0.2-0.1,0.6,0.2,0.7c0,0.1,0.1,0.3,0.2,0.4
				c-0.1,0.2,0,0.4,0.1,0.5c0,0.1,0.1,0.2,0.2,0.3c0,0.2,0.2,0.3,0.4,0.3s0.4-0.2,0.4-0.4c0.3-0.2,0.3-0.5,0-0.7
				c0.4-0.1,0.4-0.5,0.2-0.7c0.1-0.1,0.1-0.2,0.1-0.3c0.2-0.1,0.3-0.3,0.2-0.5c0.4-0.1,0.4-0.5,0.3-0.7c0.3-0.2,0.2-0.6-0.1-0.7
				c0-0.2-0.1-0.4-0.4-0.5c-0.1,0-0.3,0-0.4,0.2c-0.1-0.1-0.3,0-0.4,0.1C57.6,33.7,57.4,33.7,57.2,33.8L57.2,33.8L57.2,33.8z
				 M64.3,36.2c0.2-0.3,0.4-0.3,0.6-0.2s0.3,0.4,0,0.6c0.4,0.1,0.4,0.8-0.1,0.8c0.3,0.2,0.3,0.7-0.1,0.8c0.2,0.2,0.1,0.6-0.2,0.7
				c0,0.1-0.1,0.3-0.2,0.4c0.1,0.2,0,0.4-0.1,0.5c0,0.1-0.1,0.2-0.2,0.3c0,0.2-0.2,0.3-0.4,0.3s-0.4-0.2-0.4-0.4
				c-0.3-0.2-0.3-0.5,0-0.7c-0.4-0.1-0.4-0.5-0.2-0.7c0-0.1,0-0.2,0-0.3c-0.2-0.1-0.3-0.3-0.2-0.5c-0.4-0.1-0.4-0.5-0.3-0.7
				c-0.3-0.2-0.2-0.6,0.1-0.7c0-0.2,0.1-0.4,0.4-0.5c0.1,0,0.3,0,0.4,0.2c0.1-0.1,0.3,0,0.4,0.1C63.9,36.2,64.1,36.1,64.3,36.2
				L64.3,36.2L64.3,36.2z"/>
			<path d="M58.1,46.4c-0.3,0-0.5-0.1-0.6-0.4c-0.1-0.1-0.2-0.2-0.2-0.3c-0.1-0.1-0.2-0.3-0.1-0.5C57.1,45.1,57,45,57,44.9
				c-0.1-0.1-0.2-0.2-0.3-0.4c0-0.1,0-0.2,0-0.3c-0.1-0.1-0.2-0.2-0.3-0.4c0-0.1,0-0.3,0.1-0.4c-0.1-0.1-0.2-0.2-0.2-0.4
				s0.1-0.4,0.2-0.5c0-0.1-0.1-0.2,0-0.3c0-0.2,0.1-0.3,0.3-0.4c0.3-0.1,0.6-0.1,0.8,0.1c0.1,0,0.3,0,0.4,0c0.1-0.1,0.3-0.1,0.4-0.1
				c0.1-0.1,0.3-0.2,0.5-0.1c0.2,0,0.3,0.1,0.4,0.2c0.1,0.1,0.1,0.2,0.1,0.3c0.1,0.1,0.2,0.2,0.2,0.4s0,0.3-0.1,0.4
				c0.1,0.1,0.1,0.3,0,0.4c0,0.1-0.1,0.3-0.3,0.3c0,0.2-0.1,0.4-0.2,0.5c0,0.1,0,0.1,0,0.2c0.1,0.1,0.1,0.2,0.1,0.4
				c0,0.1-0.1,0.3-0.2,0.4c0.1,0.1,0.1,0.2,0.1,0.4s-0.1,0.3-0.2,0.4C58.6,46.2,58.4,46.4,58.1,46.4z M57.1,42L57.1,42l-0.2,0.1
				c0,0.1,0,0.1,0.1,0.2l0.2,0.2l-0.3,0.1c-0.1,0-0.2,0.2-0.2,0.3c0,0,0,0.2,0.2,0.2l0.6,0.1l-0.6,0.3c-0.1,0.1-0.1,0.2-0.1,0.3
				S56.9,44,57,44l0.3,0.1l-0.2,0.3c-0.1,0.1-0.1,0.2,0,0.2c0,0.1,0.1,0.2,0.2,0.2l0.1,0.1v0.2c0,0.1,0,0.1,0.1,0.2l0.2,0.1
				l-0.1,0.2c-0.1,0.1,0,0.2,0,0.3l0,0V46c0,0.1,0,0.1,0.1,0.2h0.1v0.1c0,0,0.1,0.2,0.2,0.2c0.1,0,0.2-0.1,0.2-0.2v-0.1l0.1-0.1
				c0.1,0,0.1-0.1,0.1-0.2c0-0.1-0.1-0.2-0.1-0.2L58,45.5l0.3-0.1c0.1,0,0.2-0.1,0.2-0.2c0,0,0-0.1-0.1-0.1L58.2,45l0.1-0.2
				c0-0.1,0.1-0.1,0.1-0.2v-0.1l0.1-0.1c0.1-0.1,0.1-0.2,0.1-0.2L58.5,44l0.2-0.1c0.1,0,0.2-0.1,0.2-0.2c0-0.1,0-0.1,0-0.2l0-0.5
				l0.2-0.1c0.1-0.1,0.1-0.1,0.1-0.2c0-0.1-0.1-0.2-0.1-0.2l-0.2-0.1v-0.2v-0.1c0,0-0.1-0.1-0.2-0.1c-0.1,0-0.2,0-0.2,0.1l-0.1,0.2
				l-0.2-0.1c0,0-0.1,0-0.2,0.1l-0.1,0.1l-0.1-0.1c0,0-0.2-0.1-0.2,0l-0.2,0.1l-0.1-0.2C57.2,42.1,57.1,42,57.1,42z M63.6,40.6
				c-0.3,0-0.5-0.2-0.6-0.5c-0.1-0.1-0.2-0.3-0.2-0.4c0-0.1,0-0.2,0.1-0.4c-0.1-0.1-0.2-0.2-0.2-0.4c0-0.1,0-0.3,0.1-0.4
				c0,0,0-0.1,0-0.2c-0.2-0.1-0.2-0.3-0.2-0.5c-0.1-0.1-0.2-0.2-0.3-0.3c0-0.1,0-0.3,0-0.4c-0.1-0.1-0.1-0.3-0.1-0.4
				c0-0.2,0.1-0.3,0.2-0.4c0-0.1,0-0.2,0.1-0.3s0.3-0.2,0.4-0.2c0.2,0,0.3,0,0.5,0.1c0.1,0,0.3,0,0.4,0.1c0.1,0,0.2-0.1,0.4,0
				c0.2-0.2,0.5-0.3,0.8-0.1c0.1,0.1,0.3,0.2,0.3,0.4c0,0.1,0,0.2,0,0.3c0.1,0.1,0.2,0.3,0.2,0.5s-0.1,0.3-0.2,0.4
				c0.1,0.1,0.1,0.3,0.1,0.4c0,0.2-0.1,0.3-0.3,0.4c0,0.1,0,0.2,0,0.3c0,0.2-0.1,0.3-0.3,0.4c0,0.1-0.1,0.2-0.2,0.3
				c0,0.2,0,0.3-0.1,0.5c0,0.2-0.1,0.2-0.2,0.3C64.1,40.4,63.9,40.6,63.6,40.6z M63.1,36.1C63.1,36.1,63,36.1,63.1,36.1
				c-0.1,0-0.2,0-0.2,0.1v0.1v0.2l-0.2,0.1c-0.1,0-0.1,0.1-0.1,0.2c0,0.1,0,0.1,0.1,0.2l0.2,0.1l-0.1,0.2c0,0-0.1,0.1,0,0.2
				c0,0.1,0.1,0.1,0.2,0.2l0.2,0.1L63,37.9c0,0.1,0,0.2,0.1,0.2l0.1,0.1v0.1c0,0.1,0,0.1,0.1,0.2l0.1,0.2l-0.2,0.1
				c-0.1,0-0.1,0.1-0.1,0.1c0,0.1,0.1,0.2,0.2,0.2l0.3,0.1l-0.3,0.2c-0.1,0.1-0.1,0.1-0.1,0.2c0,0.1,0.1,0.1,0.1,0.2l0.1,0.1V40
				c0,0.1,0.1,0.2,0.2,0.2c0.2,0,0.2-0.1,0.2-0.2v-0.1h0.1c0.1-0.1,0.1-0.1,0.1-0.2v-0.1l0,0c0.1-0.1,0.1-0.2,0-0.3l-0.1-0.2
				l0.2-0.1c0.1,0,0.1-0.1,0.1-0.2v-0.2l0.1-0.1c0.1,0,0.1-0.1,0.2-0.2c0,0,0-0.1,0-0.2l-0.2-0.3l0.3-0.1c0.1,0,0.2-0.1,0.2-0.2
				c0-0.1,0-0.2-0.1-0.3l-0.6-0.3l0.6-0.1c0.2,0,0.2-0.1,0.2-0.2c0-0.1,0-0.2-0.2-0.3l-0.3-0.1l0.2-0.2c0.1-0.1,0.1-0.1,0.1-0.2
				c0-0.1,0-0.1-0.1-0.1c-0.1-0.1-0.3,0-0.4,0.1L64.1,36l-0.2-0.1c-0.1-0.1-0.2,0-0.2,0L63.6,36l-0.1-0.1c-0.1-0.1-0.2-0.1-0.2-0.1
				l-0.2,0.1L63,35.7C63.2,36.2,63.1,36.1,63.1,36.1z M57.8,38.1c-0.3,0-0.5-0.1-0.6-0.4c-0.1-0.1-0.2-0.2-0.2-0.3
				c-0.1-0.1-0.2-0.3-0.1-0.5c-0.1-0.1-0.2-0.2-0.2-0.3c-0.1-0.1-0.2-0.2-0.3-0.4c0-0.1,0-0.2,0-0.3c-0.1-0.1-0.2-0.2-0.3-0.4
				c0-0.1,0-0.3,0.1-0.4C56.1,35,56,34.9,56,34.7s0.1-0.4,0.2-0.5c0-0.1-0.1-0.2,0-0.3c0-0.2,0.1-0.3,0.3-0.4
				c0.3-0.1,0.6-0.1,0.8,0.1c0.1,0,0.3,0,0.4,0c0.1-0.1,0.3-0.1,0.4-0.1c0.1-0.1,0.3-0.2,0.5-0.1c0.2,0,0.3,0.1,0.4,0.2
				c0.1,0.1,0.1,0.2,0.1,0.3c0.1,0.1,0.2,0.2,0.2,0.4s0,0.3-0.1,0.4c0.1,0.1,0.1,0.3,0,0.4c0,0.1-0.1,0.3-0.3,0.3
				c0,0.2-0.1,0.4-0.2,0.5c0,0.1,0,0.1,0,0.2c0.1,0.1,0.1,0.2,0.1,0.4c0,0.1-0.1,0.3-0.2,0.4c0.1,0.1,0.1,0.2,0.1,0.4
				s-0.1,0.3-0.2,0.4C58.4,37.9,58.1,38.1,57.8,38.1z M56.8,33.7L56.8,33.7l-0.2,0.1c0,0.1,0,0.1,0.1,0.2l0.2,0.2l-0.3,0.1
				c-0.1,0-0.2,0.2-0.2,0.3c0,0,0,0.2,0.2,0.2l0.6,0.1l-0.6,0.3c-0.1,0.1-0.1,0.2-0.1,0.3s0.1,0.1,0.2,0.2l0.3,0.1l-0.2,0.3
				c-0.1,0.1-0.1,0.2,0,0.2c0,0.1,0.1,0.2,0.2,0.2l0.1,0.1v0.2c0,0.1,0,0.1,0.1,0.2l0.2,0.1L57.3,37c-0.1,0.1,0,0.2,0,0.3l0,0v0.1
				c0,0.1,0,0.1,0.1,0.2h0.1v0.1c0,0,0.1,0.2,0.2,0.2c0.1,0,0.2-0.1,0.2-0.2v-0.1l0.1-0.1c0.1,0,0.1-0.1,0.1-0.2
				c0-0.1-0.1-0.2-0.1-0.2l-0.3-0.2l0.3-0.1c0.1,0,0.2-0.1,0.2-0.2c0,0,0-0.1-0.1-0.1l-0.2-0.1l0.1-0.2c0-0.1,0.1-0.1,0.1-0.2v-0.1
				l0.1-0.1c0.1-0.1,0.1-0.2,0.1-0.2l-0.1-0.2l0.2-0.1c0.1,0,0.2-0.1,0.2-0.2c0-0.1,0-0.1,0-0.2l-0.1-0.2l0.2-0.1
				c0.1-0.1,0.1-0.1,0.1-0.2c0-0.1-0.1-0.2-0.1-0.2l-0.2-0.1v-0.2v-0.1c0,0-0.1-0.1-0.2-0.1c-0.1,0-0.2,0-0.2,0.1l0.1,0.2L58,33.9
				c0,0-0.1,0-0.2,0.1l-0.1,0.1L57.5,34c0,0-0.2-0.1-0.2,0h-0.2L57,33.8C57,33.8,56.9,33.7,56.8,33.7z"/>
		</g>
		<g id="path110">
			<path fill="#B400B4" d="M47.1,54.2c-0.2-0.3-0.4-0.3-0.6-0.2c-0.2,0.1-0.3,0.4,0,0.6c-0.4,0.1-0.4,0.8,0.1,0.8
				c-0.3,0.2-0.3,0.7,0.1,0.8c-0.2,0.2-0.1,0.6,0.2,0.7c0,0.1,0.1,0.3,0.2,0.4c-0.1,0.2,0,0.4,0.1,0.5c0,0.1,0.1,0.2,0.2,0.3
				c0,0.2,0.2,0.3,0.4,0.3s0.4-0.2,0.4-0.4c0.3-0.2,0.3-0.5,0-0.7c0.4-0.1,0.4-0.5,0.2-0.7c0.1-0.1,0.1-0.2,0.1-0.3
				c0.2-0.1,0.3-0.3,0.2-0.5c0.4-0.1,0.4-0.5,0.3-0.7c0.3-0.2,0.2-0.6-0.1-0.7c0-0.2-0.1-0.4-0.4-0.5c-0.1,0-0.3,0-0.4,0.2
				c-0.1-0.1-0.3,0-0.4,0.1C47.5,54.2,47.3,54.1,47.1,54.2L47.1,54.2L47.1,54.2z M46.9,45.9c-0.2-0.3-0.4-0.3-0.6-0.2
				c-0.2,0.1-0.3,0.4,0,0.6c-0.4,0.1-0.4,0.8,0.1,0.8c-0.3,0.2-0.3,0.7,0.1,0.8c-0.2,0.2-0.1,0.6,0.2,0.7c0,0.1,0.1,0.3,0.2,0.4
				c-0.1,0.2,0,0.4,0.1,0.5c0,0.1,0.1,0.2,0.2,0.3c0,0.2,0.2,0.3,0.4,0.3s0.4-0.2,0.4-0.4c0.3-0.2,0.3-0.5,0-0.7
				c0.4-0.1,0.4-0.5,0.2-0.7c0.1-0.1,0.1-0.2,0.1-0.3c0.2-0.1,0.3-0.3,0.2-0.5c0.4-0.1,0.4-0.5,0.3-0.7c0.3-0.2,0.2-0.6-0.1-0.7
				c0-0.2-0.1-0.4-0.4-0.5c-0.1,0-0.3,0-0.4,0.2c-0.1-0.1-0.3,0-0.4,0.1C47.2,45.9,47,45.8,46.9,45.9L46.9,45.9z M53.9,48.4
				c0.2-0.3,0.4-0.3,0.6-0.2c0.2,0.1,0.3,0.4,0,0.6c0.4,0.1,0.4,0.8-0.1,0.8c0.3,0.2,0.3,0.7-0.1,0.8c0.2,0.2,0.1,0.6-0.2,0.7
				c0,0.1-0.1,0.3-0.2,0.4c0.1,0.2,0,0.4-0.1,0.5c0,0.1-0.1,0.2-0.2,0.3c0,0.2-0.2,0.3-0.4,0.3s-0.4-0.2-0.4-0.4
				c-0.3-0.2-0.3-0.5,0-0.7c-0.4-0.1-0.4-0.5-0.2-0.7c-0.1-0.1-0.1-0.2-0.1-0.3c-0.2-0.1-0.3-0.3-0.2-0.5c-0.4-0.1-0.4-0.5-0.3-0.7
				c-0.3-0.2-0.2-0.6,0.1-0.7c0-0.2,0.1-0.4,0.4-0.5c0.1,0,0.3,0,0.4,0.2c0.1-0.1,0.3,0,0.4,0.1C53.6,48.3,53.8,48.3,53.9,48.4
				L53.9,48.4L53.9,48.4z"/>
			<path d="M47.7,58.6c-0.3,0-0.5-0.1-0.6-0.4c-0.1-0.1-0.2-0.2-0.2-0.3c-0.1-0.1-0.2-0.3-0.1-0.5c-0.1-0.1-0.2-0.2-0.2-0.3
				c-0.1-0.1-0.2-0.2-0.3-0.4c0-0.1,0-0.2,0-0.3c-0.1-0.1-0.2-0.2-0.3-0.4c0-0.1,0-0.3,0.1-0.4c-0.1-0.1-0.2-0.2-0.2-0.4
				s0.1-0.4,0.2-0.5c0-0.1-0.1-0.2,0-0.3c0-0.2,0.1-0.3,0.3-0.4c0.3-0.1,0.6-0.1,0.8,0.1c0.1,0,0.3,0,0.4,0C47.7,54,47.9,54,48,54
				c0.1-0.1,0.3-0.2,0.5-0.1c0.2,0,0.3,0.1,0.4,0.2c0.1,0.1,0.1,0.2,0.1,0.3c0.1,0.1,0.2,0.2,0.2,0.4s0,0.3-0.1,0.4
				c0.1,0.1,0.1,0.3,0,0.4c0,0.1-0.1,0.3-0.3,0.3c0,0.2-0.1,0.4-0.2,0.5c0,0.1,0,0.1,0,0.2c0.1,0.1,0.1,0.2,0.1,0.4
				c0,0.1-0.1,0.3-0.2,0.4c0.1,0.1,0.1,0.2,0.1,0.4s-0.1,0.3-0.2,0.4C48.3,58.4,48,58.6,47.7,58.6z M46.7,54.2L46.7,54.2l-0.2,0.1
				c0,0.1,0,0.1,0.1,0.2l0.2,0.2l-0.3,0.1c-0.1,0-0.2,0.2-0.2,0.3c0,0,0,0.2,0.2,0.2l0.6,0.1l-0.6,0.3c-0.1,0.1-0.1,0.2-0.1,0.3
				s0.1,0.1,0.2,0.2l0.3,0.1l-0.2,0.3c-0.1,0.1-0.1,0.2,0,0.2c0,0.1,0.1,0.2,0.2,0.2l0.1,0.1v0.2c0,0.1,0,0.1,0.1,0.2l0.2,0.1
				l-0.1,0.2c0,0.1,0,0.2,0,0.3l0,0v0.1c0,0.1,0,0.1,0.1,0.2h0.1v0.1c0,0,0.1,0.2,0.2,0.2c0.1,0,0.2-0.1,0.2-0.2v-0.1l0.1-0.1
				c0.1,0,0.1-0.1,0.1-0.2c0-0.1-0.1-0.2-0.1-0.2l-0.3-0.2l0.3-0.1c0.1,0,0.2-0.1,0.2-0.2c0,0,0-0.1-0.1-0.1l0-0.6l0.1-0.2
				c0-0.1,0.1-0.1,0.1-0.2v-0.1l0.1-0.1c0.1-0.1,0.1-0.2,0.1-0.2l-0.1-0.2l0.2-0.1c0.1,0,0.2-0.1,0.2-0.2c0-0.1,0-0.1,0-0.2L48.6,55
				l0.2-0.1c0.1-0.1,0.1-0.1,0.1-0.2c0-0.1-0.1-0.2-0.1-0.2l-0.2-0.1v-0.2v-0.1c0,0-0.1-0.1-0.2-0.1c-0.1,0-0.2,0-0.2,0.1l-0.1,0.2
				l-0.2-0.1c0,0-0.1,0-0.2,0.1l-0.1,0.1l-0.1-0.1c0,0-0.2-0.1-0.2,0L47,54.5l-0.1-0.2C46.9,54.2,46.8,54.2,46.7,54.2z M53.3,52.7
				c-0.3,0-0.5-0.2-0.6-0.5c-0.1-0.1-0.2-0.3-0.2-0.4c0-0.1,0-0.2,0.1-0.4c-0.1-0.1-0.2-0.2-0.2-0.4c0-0.1,0-0.3,0.1-0.4
				c0,0,0-0.1,0-0.2c-0.2-0.1-0.2-0.3-0.2-0.5c-0.2,0.1-0.3,0-0.3-0.2c0-0.1,0-0.3,0-0.4c-0.1-0.1-0.1-0.3-0.1-0.4
				c0-0.2,0.1-0.3,0.2-0.4c0-0.1,0-0.2,0.1-0.3s0.3-0.2,0.4-0.2c0.2,0,0.3,0,0.5,0.1c0.1,0,0.3,0,0.4,0.1c0.1,0,0.2-0.1,0.4,0
				c0.2-0.2,0.5-0.3,0.8-0.1c0.1,0.1,0.3,0.2,0.3,0.4c0,0.1,0,0.2,0,0.3c0.1,0.1,0.2,0.3,0.2,0.5s-0.1,0.3-0.2,0.4
				c0.1,0.1,0.1,0.3,0.1,0.4c0,0.2-0.1,0.3-0.3,0.4c0,0.1,0,0.2,0,0.3c0,0.2-0.1,0.3-0.3,0.4c0,0.1-0.1,0.2-0.2,0.3
				c0,0.2,0,0.3-0.1,0.5c0,0.1-0.1,0.2-0.2,0.3C53.8,52.6,53.6,52.7,53.3,52.7z M52.7,48.3L52.7,48.3c-0.1,0-0.2,0-0.2,0.1v0.1v0.2
				l-0.2,0.1c-0.1,0-0.1,0.1-0.1,0.2c0,0.1,0,0.1,0.1,0.2l0.2,0.1l-0.1,0.2c0,0-0.1,0.1,0,0.2c0,0.1,0.1,0.1,0.2,0.2l0.2,0.1l-0.2,0
				c0,0.1,0,0.2,0.1,0.2l0.1,0.1v0.1c0,0.1,0,0.1,0.1,0.2l0.1,0.2l-0.2,0.1c-0.1,0-0.1,0.1-0.1,0.1c0,0.1,0.1,0.2,0.2,0.2l0.3,0.1
				L53,51.6c-0.1,0.1-0.1,0.1-0.1,0.2c0,0.1,0.1,0.1,0.1,0.2l0.1,0.1v0.1c0,0.1,0.1,0.2,0.2,0.2c0.2,0,0.2-0.1,0.2-0.2v-0.1h0.1
				c0.1-0.1,0.1-0.1,0.1-0.2v-0.1l0,0c0.1-0.1,0.1-0.2,0-0.3l-0.1-0.2l0.2-0.1c0.1,0,0.1-0.1,0.1-0.2v-0.2l0.1-0.1
				c0.1,0,0.1-0.1,0.2-0.2c0,0,0-0.1,0-0.2H54l0.3-0.1c0.1,0,0.2-0.1,0.2-0.2c0-0.1,0-0.2-0.1-0.3l-0.6-0.3l0.6-0.1
				c0.2,0,0.2-0.2,0.2-0.2c0-0.1,0-0.2-0.2-0.3l-0.3-0.1l0.2-0.2c0.1-0.1,0.1-0.1,0.1-0.2c0-0.1,0-0.1-0.1-0.1
				c-0.1-0.1-0.3,0-0.4,0.1l0.1,0.3l-0.2-0.1c-0.1-0.1-0.2,0-0.2,0l-0.1,0.1l-0.1-0.1c-0.1-0.1-0.2-0.1-0.2-0.1L53,48.5l-0.1-0.2
				C52.9,48.3,52.8,48.3,52.7,48.3z M47.5,50.3c-0.3,0-0.5-0.1-0.6-0.4c-0.1-0.1-0.2-0.2-0.2-0.3c-0.1-0.1-0.2-0.3-0.1-0.5
				c-0.1-0.1-0.2-0.2-0.2-0.3c-0.1-0.1-0.2-0.2-0.3-0.4c0-0.1,0-0.2,0-0.3c-0.1-0.1-0.2-0.2-0.3-0.4c0-0.1,0-0.3,0.1-0.4
				c-0.1-0.1-0.2-0.2-0.2-0.4s0.1-0.4,0.2-0.5c0-0.1-0.1-0.2,0-0.3c0-0.2,0.1-0.3,0.3-0.4c0.3-0.1,0.6-0.1,0.8,0.1
				c0.1,0,0.3,0,0.4,0c0.1-0.1,0.3-0.1,0.4-0.1c0.1-0.1,0.3-0.2,0.5-0.1c0.2,0,0.3,0.1,0.4,0.2c0.1,0.1,0.1,0.2,0.1,0.3
				c0.1,0.1,0.2,0.2,0.2,0.4s0,0.3-0.1,0.4c0.1,0.1,0.1,0.3,0,0.4c0,0.1-0.1,0.3-0.3,0.3c0,0.2-0.1,0.4-0.2,0.5c0,0.1,0,0.1,0,0.2
				c0.1,0.1,0.1,0.2,0.1,0.4c0,0.1-0.1,0.3-0.2,0.4c0.1,0.1,0.1,0.2,0.1,0.4s-0.1,0.3-0.2,0.4C48,50.1,47.8,50.3,47.5,50.3z
				 M46.5,45.9L46.5,45.9L46.3,46c0,0.1,0,0.1,0.1,0.2l0.2,0.2l-0.3,0.1c-0.1,0-0.2,0.2-0.2,0.3c0,0,0,0.2,0.2,0.2l0.6,0.1l-0.6,0.3
				c-0.1,0.1-0.1,0.2-0.1,0.3s0.1,0.1,0.2,0.2l0.3,0.1l-0.2,0.3c-0.1,0.1-0.1,0.2,0,0.2c0,0.1,0.1,0.2,0.2,0.2l0.1,0.1V49
				c0,0.1,0,0.1,0.1,0.2l0.2,0.1L47,49.1c-0.1,0.1,0,0.2,0,0.3l0,0v0.1c0,0.1,0,0.1,0.1,0.2h0.1v0.1c0,0,0.1,0.2,0.2,0.2
				c0.1,0,0.2-0.1,0.2-0.2v-0.1l0.1-0.1c0.1,0,0.1-0.1,0.1-0.2c0-0.1-0.1-0.2-0.1-0.2L47.5,49l0.3-0.1c0.1,0,0.2-0.1,0.2-0.2
				c0,0,0-0.1-0.1-0.1l-0.2-0.1l0.1-0.2c0-0.1,0.1-0.1,0.1-0.2V48l0.1-0.1c0.1-0.1,0.1-0.2,0.1-0.2L48,47.4l0.2-0.1
				c0.1,0,0.2-0.1,0.2-0.2c0-0.1,0-0.1,0-0.2l-0.1-0.2l0.2-0.1c0.1-0.1,0.1-0.1,0.1-0.2c0-0.1-0.1-0.2-0.1-0.2l-0.2-0.1v-0.2v-0.1
				c0,0-0.1-0.1-0.2-0.1c-0.1,0-0.2,0-0.2,0.1L47.8,46l-0.1,0c0,0-0.1,0-0.2,0.1l-0.1,0.1l-0.1-0.1c0,0-0.2-0.1-0.2,0l-0.2,0.1
				L46.7,46C46.6,45.9,46.6,45.9,46.5,45.9z"/>
		</g>
		<path fill="#961E1D" d="M48.7,43.9c0.2,0.4,0.4,0.5,0.8,0.5c0.6,0,1.4,0.4,1.8,0.7c0.5,0.4,1,1.3,1.1,1.9c0.1,0.4,0,0.8-0.2,1
			c-0.5,0.5-1.2,0.8-1.8,1.2s-1.2,0.9-1.6,1.6c-0.3,0.5-0.1,1.1,0.1,1.6c0.4,0.9,1.4,1.6,2.1,2.4c0.1,0.1,0.6,0,0.6,0.2
			c0.4,1,0.1,1.9,0.3,3c0.1,0.7,1,0.7,1.4,0.9c-0.8,0-1.7-0.1-2.4-0.4c0.2-0.2,0.3-0.3,0.3-0.6c0-0.8-0.3-1.9-0.7-2.3
			c-0.6-0.6-1.3-1.4-1.9-2c-0.4-0.5-0.7-0.8-0.8-1.3c-0.2-0.8,0.1-1.5,0.6-2.2c0.6-0.9,1.8-1.4,2.7-1.9c0.2-0.1,0.5-0.7,0.5-1.1
			c0-0.7-0.7-1.4-1-1.5c-0.4-0.1-1.3,0-1.8-0.1c-0.1,0,0-0.2-0.2-0.2s-0.4,0.1-0.5,0.4c0-0.2-0.3-0.3-0.5-0.2
			c0.3-0.4,0.7-0.6,1.2-0.7c0-0.3-0.2-0.5-0.4-0.7C48.6,44.2,48.7,44.1,48.7,43.9L48.7,43.9L48.7,43.9z M58.7,31.3
			c0.2,0.4,0.4,0.6,0.9,0.6c0.6,0,1.6,0.5,1.9,0.8c0.5,0.5,1,1.4,1.2,2.1c0.1,0.4,0,0.8-0.2,1.1c-0.6,0.5-1.3,0.9-1.9,1.3
			c-0.6,0.5-1.3,1-1.7,1.8c-0.3,0.5-0.1,1.2,0.1,1.7c0.5,0.9,1.5,1.7,2.2,2.6c0.2,0.2,0.6,0,0.7,0.3c0.4,1.1,0.1,2.1,0.3,3.3
			c0.1,0.7,1.1,0.7,1.6,0.9c-0.9,0-1.8-0.1-2.6-0.5c0.2-0.2,0.3-0.4,0.3-0.7c0-0.9-0.4-2.1-0.8-2.5c-0.7-0.7-1.5-1.5-2.1-2.2
			c-0.5-0.5-0.7-0.9-0.9-1.4c-0.2-0.9,0.1-1.6,0.6-2.4c0.6-1,1.9-1.5,2.9-2.1c0.2-0.2,0.5-0.8,0.5-1.3c0-0.7-0.7-1.6-1.1-1.6
			c-0.5-0.1-1.5,0-1.9-0.1c-0.1,0,0-0.3-0.3-0.3c-0.2,0-0.4,0.2-0.5,0.4c0-0.2-0.3-0.3-0.6-0.2c0.4-0.5,0.8-0.7,1.3-0.8
			c0-0.3-0.2-0.6-0.5-0.7C58.6,31.5,58.7,31.5,58.7,31.3L58.7,31.3L58.7,31.3z M42.2,31.3c-0.2,0.4-0.4,0.6-0.9,0.6
			c-0.6,0-1.6,0.5-1.9,0.8c-0.5,0.5-1,1.4-1.2,2.1c-0.1,0.4,0,0.8,0.2,1.1c0.6,0.5,1.3,0.9,1.9,1.3c0.6,0.5,1.3,1,1.7,1.8
			c0.3,0.5,0.1,1.2-0.1,1.7c-0.5,0.9-1.5,1.7-2.2,2.6c-0.2,0.2-0.6,0-0.7,0.3c-0.4,1.1-0.1,2.1-0.3,3.3c-0.1,0.7-1.1,0.7-1.6,0.9
			c0.9,0,1.8-0.1,2.6-0.5c-0.2-0.2-0.3-0.4-0.3-0.7c0-0.9,0.4-2.1,0.8-2.5c0.7-0.7,1.5-1.5,2.1-2.2c0.4-0.5,0.7-0.9,0.8-1.4
			c0.2-0.9-0.1-1.6-0.6-2.4c-0.6-1-1.9-1.5-2.9-2.1c-0.2-0.2-0.5-0.8-0.5-1.3c0-0.7,0.7-1.6,1.1-1.6c0.5-0.1,1.5,0,1.9-0.1
			c0.1,0,0-0.3,0.3-0.3c0.2,0,0.4,0.2,0.5,0.4c0-0.2,0.3-0.3,0.6-0.2c-0.4-0.5-0.8-0.7-1.3-0.8c0-0.3,0.2-0.6,0.4-0.7
			C42.4,31.5,42.2,31.5,42.2,31.3L42.2,31.3L42.2,31.3z"/>
	</g>
	<g id="yellows">
		<path id="path116" fill="#FFD312" d="M26.9,48.3c0.5,0.1,1,0.2,1.4,0c-2.2,4.9,1.3,9,5.9,11.2c-0.2,0.4-0.4,0.6-0.6,0.9
			C29,58.4,24.5,54,26.9,48.3L26.9,48.3L26.9,48.3z M42,63.2h-1v1.3l0,0c2,2.4,7.5,2.7,9,5.6c2.3-3.1,7.4-3.5,10.3-5.9l0,0v-0.7
			h-1.6l0,0c-1.8,2.2-6.5,2.2-8.7,4.9C47.2,65,43.6,66.1,42,63.2L42,63.2z M71.7,47.6c0.5,0,1,0,1.5,0.1c2.8,6.3-0.6,9.8-6,12.7
			c-0.3-0.4-0.7-0.8-1-1C70,58.3,75.4,53.9,71.7,47.6L71.7,47.6z M70.6,42c-0.4,0.3-0.7,0.6-1.1,0.9c-5.8-6.8-1.1-16.7,6.4-15.6
			c0.7,0.1,1.3,1.7,1,1.6C68.2,25.3,66.6,38.3,70.6,42L70.6,42L70.6,42z M53,21.7c0.1,0.5,0.4,0.8,0.7,0.7c0.3-0.1,0.4-0.7,0.4-1
			c0-0.4-0.4-1.1-0.9-1.1s-1.1,0.5-1.1,1.3c0,0.5,0,1.1,0,1.7c1,2.9,4.8,4.8,7.9,4.8c3.4,0,7.9-2.2,7.5-7.5
			c-0.3-0.3-0.5-0.5-0.8-0.8c0.6,4.4-3.6,7.1-6.7,7C57.3,26.7,52.6,24.7,53,21.7L53,21.7z M48.9,21.1c0,0.9,0,1.4-0.3,2.2
			c-0.9,1.8-2.2,4.3-7.6,4.6c-5.8,0.2-8.6-4.5-7.9-7.9c0.3-0.3,0.8-0.5,1.1-0.6c-1,3.5,2.5,7.3,6.9,7.3c3.1,0,6.8-2.7,6.4-4.8
			c-1.2,0-1.4-1.9,0.3-1.9C48.8,19.9,49,20.6,48.9,21.1L48.9,21.1z M25.3,26.3c9.7,1.9,9.9,10.9,6,16.2c-0.3-0.4-0.7-0.8-1-1.2
			c3.8-4.4,2.1-12.6-6-14.4C24.6,26.6,24.9,26.4,25.3,26.3L25.3,26.3z M64.7,23.4c0.7-0.8,0.9-1.1,1-1.8c0-0.4-0.1-1.4-0.5-1.4
			s-0.5,0.8-0.6,1.2C64.6,21.9,65.2,22.5,64.7,23.4L64.7,23.4z M74.5,29.4c0.8,0.2,1.3-0.2,1.7,0c0.3,0.2,0.3,0.4,0.2,0.6
			c-0.1,0.2-0.5,0.4-0.7,0.3C75.1,30.2,75,29.7,74.5,29.4L74.5,29.4L74.5,29.4z M35.9,22.9c-0.5-0.6-0.8-1.4-0.8-1.9s0.3-1.2,0.6-1
			c0.3,0.1,0.6,0.8,0.4,1.4C36,22,35.8,22.4,35.9,22.9L35.9,22.9z M27.3,28.9c-0.9-0.5-1.5-0.8-2.2-0.7c-0.5,0-1,0.5-0.9,1
			s0.8,0.8,1.2,0.6C26.1,29.6,26.4,29,27.3,28.9L27.3,28.9L27.3,28.9z"/>
		<path inkscape:connector-curvature="0" fill="#FFD300" d="M50.7,20.5c0.7,0,1.3,0.6,1.3,1.4c0,0.7-0.6,1.4-1.3,1.4
			s-1.3-0.6-1.3-1.4C49.3,21.1,49.9,20.5,50.7,20.5L50.7,20.5z M30.5,49.5c-0.9,0-1.6-0.7-1.6-1.5c0-0.9,0.7-1.6,1.6-1.6
			s1.6,0.7,1.6,1.6C32,48.9,31.4,49.5,30.5,49.5L30.5,49.5z M30.5,42.7c0.9,0,1.5,0.7,1.5,1.5c0,0.9-0.7,1.5-1.5,1.5S29,45,29,44.2
			S29.7,42.7,30.5,42.7L30.5,42.7z M27.6,39.1c0.8,0,1.5,0.7,1.5,1.5s-0.7,1.5-1.5,1.5s-1.5-0.7-1.5-1.5
			C26.1,39.7,26.8,39.1,27.6,39.1L27.6,39.1z M73.3,39.9c-1,0-1.8,0.8-1.8,1.8s0.8,1.8,1.8,1.8s1.8-0.8,1.8-1.8
			C75.1,40.7,74.3,39.9,73.3,39.9L73.3,39.9z M70.2,49.4c0.9,0,1.6-0.7,1.6-1.6c0-0.9-0.7-1.6-1.6-1.6s-1.6,0.7-1.6,1.6
			S69.3,49.4,70.2,49.4L70.2,49.4z M70.4,42.7c0.9,0,1.6,0.7,1.6,1.6c0,0.9-0.7,1.6-1.6,1.6s-1.6-0.7-1.6-1.6S69.5,42.7,70.4,42.7
			L70.4,42.7z M64.1,57.5c-0.7,0-1.2,0.5-1.2,1.2s0.5,1.2,1.2,1.2c0.7,0,1.2-0.5,1.2-1.2C65.3,58.1,64.8,57.5,64.1,57.5L64.1,57.5z
			 M62.1,59.1c0.7,0,1.3,0.6,1.3,1.3s-0.6,1.3-1.3,1.3s-1.3-0.6-1.3-1.3C60.8,59.7,61.4,59.1,62.1,59.1L62.1,59.1z M59.8,60.5
			c0.9,0,1.6,0.7,1.6,1.6c0,0.9-0.7,1.6-1.6,1.6c-0.9,0-1.6-0.7-1.6-1.6C58.3,61.3,59,60.5,59.8,60.5L59.8,60.5z M36.2,57.4
			c0.7,0,1.3,0.6,1.3,1.3c0,0.8-0.6,1.4-1.3,1.4s-1.3-0.6-1.3-1.4c0-0.7,1.1-1.3,1.8-1.3H36.2z M38.7,58.7c-0.8,0-1.5,0.7-1.5,1.5
			s0.7,1.5,1.5,1.5c0.9,0,1.5-0.7,1.5-1.5C40.3,59.4,39.6,58.7,38.7,58.7L38.7,58.7z M41.3,63.1c-0.8,0-1.4-0.6-1.4-1.4
			c0-0.8,0.6-1.4,1.4-1.4c0.8,0,1.4,0.6,1.4,1.4C42.6,62.5,42,63.1,41.3,63.1L41.3,63.1z"/>
	</g>
	<g id="blacks">
		<path d="M65.8,61.7c0.5,0.3,1.1,0,1.1-0.5c0-0.4-0.5-1.4-0.9-2.1l0,0c-0.1-0.2-0.2-0.3-0.6-0.3c0,0,0,0,0-0.1
			c0-0.7-0.6-1.3-1.4-1.3c-0.7,0-1.3,0.6-1.3,1.3c0,0.1,0,0.3,0.1,0.4C62.6,59,62.4,59,62.1,59c-0.8,0-1.4,0.6-1.4,1.4
			c0,0.1,0,0.2,0,0.3c-0.3-0.2-0.6-0.3-0.9-0.3c-0.9,0-1.7,0.8-1.7,1.7c0,1,0.8,1.7,1.7,1.7c0.3,0,0.5-0.1,0.7-0.2h0.1
			c0.1,0,0.3,0.6,0.3,0.5c0-0.3,0.4,0.5,0.6,1c0.3,0.4,0.3,0.6,0.8,0.6c0.4,0,0.6-0.1,0.9-0.4c0.1-1,0.4-0.5-0.1-1.7
			c-0.1-0.1-0.1-0.9,0-0.8c0.1,0.1,0.3,0.5,0.4,0.9c0.1,0.4,0.3,0.8,0.4,1.1c0.3,0.2,0.7,0.4,1.4,0.5c0.7,0,1.5-0.1,1.5-0.9
			c0-0.3-0.1-0.7-0.2-0.7c-0.1-0.1-0.2-0.4-0.2-0.8c0-0.6-0.1-0.7-0.4-0.9c-0.2-0.1-0.5-0.2-0.6-0.4C65.5,61.6,65.5,61.6,65.8,61.7z
			 M64.1,57.7c0.6,0,1.1,0.5,1.1,1.1l0,0c-0.2,0-0.4,0-0.7,0c-0.9,0-1.2,0.1-1.4,0.2c0-0.1,0-0.2,0-0.3C63,58.1,63.5,57.7,64.1,57.7
			z M65,59.2c-0.2,0.4-0.5,0.6-1,0.6c-0.3,0-0.5-0.1-0.7-0.3v-0.1l0,0C63.3,59.2,63.9,59.1,65,59.2z M59.8,63.6
			c-0.8,0-1.5-0.7-1.5-1.5s0.7-1.5,1.5-1.5c0.2,0,0.4,0.1,0.6,0.2c-0.1,0.1-0.1,0.2-0.2,0.4c-0.4,0.8-0.3,1.9,0.1,2.3
			C60.2,63.6,60,63.6,59.8,63.6z M60.7,63.3c-0.2-0.2-0.4-1-0.3-1.6c0.2-0.9,0.7-0.5,0.5,0.4c-0.1,0.3,0,0.5,0.1,0.5
			s0.2-0.2,0.2-0.4c0-0.1,0-0.2,0-0.2l0,0C61.3,62.6,61,63,60.7,63.3z M61,60.4c0-0.6,0.5-1.2,1.2-1.2c0.3,0,0.6,0.1,0.8,0.3
			c0,0.1,0.1,0.2,0.2,0.3c0.1,0.1,0.2,0.3,0.2,0.4c0,0.1,0,0.1,0,0.2c0,0.6-0.5,1.2-1.2,1.2C61.5,61.6,61,61,61,60.4z M65.6,62.1
			c0.5,0.3,0.6,0.6,0.6,1c0,0.3,0.1,0.8,0.2,1.2c0.2,0.6,0.1,0.7-0.3,0.7c-1.4,0.1-2.1-0.3-2.1-1.2c0-0.5-0.5-1.4-0.8-1.4
			c-0.4,0-0.5,0.3-0.2,1.3c0.2,0.7,0.2,1,0.1,1.3c-0.2,0.4-0.8,0.6-0.8,0.2c0-0.1-0.2-0.4-0.4-0.6c-0.4-0.4-0.5-0.9-0.1-1.5
			c0.3-0.4,0.1-0.6-0.2-0.3c0.1-0.2,0.2-0.5,0.2-0.7c0-0.1,0-0.1,0-0.2c0.1,0,0.2,0.1,0.4,0.2c0.2,0.1,0.2,0.4,0.1,1.1
			c-0.1,0.6-0.1,0.9,0.1,0.9c0.1,0,0.2-0.4,0.2-0.9c0-1,0.1-1.2,0.7-1.4c0.5-0.2,1.5,0.6,1.8,1.3c0.1,0.4,0.6,0.7,0.6,0.4
			s-0.6-1.1-1.1-1.7c-0.5-0.5-0.6-0.7-0.5-1c0.2-0.5,0.4-0.7,1-0.7c0.3,0,0.5-0.1,0.4-0.2C65,60,64.8,60,64.6,60
			c0.3-0.1,0.6-0.4,0.7-0.7c0.3,0.1,0.4,0.2,0.5,0.5c0,0.2,0.2,0.5,0.3,0.6c0.1,0.1,0.3,0.4,0.3,0.6c0.1,0.5-0.2,0.6-1.1,0.3
			C64.7,61.1,64.9,61.6,65.6,62.1z"/>
		<path d="M29.2,40.6c0-0.9-0.7-1.7-1.6-1.7S26,39.6,26,40.6c0,0.9,0.7,1.7,1.6,1.7C28.5,42.2,29.2,41.5,29.2,40.6z M27.6,42
			c-0.7,0-1.4-0.6-1.4-1.4c0-0.8,0.6-1.4,1.4-1.4c0.7,0,1.4,0.6,1.4,1.4C29,41.3,28.4,42,27.6,42z"/>
		<path d="M30.5,45.9c0.9,0,1.6-0.7,1.6-1.7c0-0.9-0.7-1.7-1.6-1.7s-1.6,0.7-1.6,1.7C28.8,45.1,29.6,45.9,30.5,45.9z M30.5,42.8
			c0.8,0,1.4,0.6,1.4,1.4c0,0.8-0.6,1.4-1.4,1.4s-1.4-0.6-1.4-1.4C29.1,43.5,29.7,42.8,30.5,42.8z"/>
		<path d="M73.3,39.7c-1.1,0-1.9,0.8-1.9,1.9c0,1.1,0.9,1.9,1.9,1.9s1.9-0.9,1.9-1.9C75.2,40.6,74.4,39.7,73.3,39.7z M73.3,43.3
			c-0.9,0-1.6-0.8-1.6-1.6c0-0.9,0.7-1.6,1.6-1.6s1.6,0.7,1.6,1.6C74.9,42.5,74.2,43.3,73.3,43.3z"/>
		<path d="M72.2,44.4c0-1-0.8-1.8-1.8-1.8s-1.7,0.8-1.7,1.8c0,0.8,0.5,1.5,1.3,1.7c-0.9,0.1-1.5,0.8-1.5,1.7c0,1,0.8,1.8,1.8,1.8
			s1.7-0.8,1.7-1.8c0-0.8-0.6-1.5-1.3-1.7C71.5,46,72.2,45.2,72.2,44.4z M71.7,47.8c0,0.8-0.7,1.5-1.5,1.5s-1.5-0.7-1.5-1.5
			s0.7-1.5,1.5-1.5S71.7,47,71.7,47.8z M70.4,45.9c-0.8,0-1.5-0.7-1.5-1.5s0.7-1.5,1.5-1.5s1.5,0.7,1.5,1.5S71.2,45.9,70.4,45.9z"/>
		<path d="M41.3,60.3c-0.3,0-0.6,0.1-0.9,0.3c0-0.1,0-0.2,0-0.3c0-0.9-0.7-1.7-1.7-1.7c-0.5,0-0.9,0.2-1.2,0.5c0-0.1,0-0.2,0-0.4
			c0-0.6-0.4-1.2-1-1.4v-0.1h-0.4v0.1c-0.7,0.2-1.5,0.7-1.5,1.4c0,0.8,0.7,1.5,1.5,1.5c0.4,0,0.7-0.1,1-0.4c0,0.2-0.1,0.3-0.1,0.5
			c0,0.9,0.7,1.7,1.6,1.7c0.4,0,0.7-0.1,1-0.3c0,0.1,0,0.1,0,0.2c0,0.8,0.7,1.5,1.5,1.5s1.5-0.7,1.5-1.5
			C42.8,61,42.1,60.3,41.3,60.3z M36.2,59.9c-0.7,0-1.2-0.5-1.2-1.2c0-0.6,0.8-1.1,1.4-1.2c0.6,0.1,1,0.6,1,1.2
			C37.4,59.4,36.8,59.9,36.2,59.9z M38.7,61.7c-0.7,0-1.4-0.6-1.4-1.4c0-0.8,0.6-1.4,1.4-1.4c0.8,0,1.4,0.6,1.4,1.4
			C40.1,61,39.5,61.7,38.7,61.7z M41.3,63c-0.7,0-1.2-0.5-1.2-1.2s0.6-1.2,1.2-1.2c0.7,0,1.3,0.6,1.3,1.2C42.5,62.4,41.9,63,41.3,63
			z"/>
		<path d="M50.7,20.3c-0.8,0-1.5,0.7-1.5,1.5s0.7,1.5,1.5,1.5s1.5-0.7,1.5-1.5C52.1,21,51.5,20.3,50.7,20.3z M50.7,23
			c-0.7,0-1.2-0.6-1.2-1.2c0-0.7,0.5-1.2,1.2-1.2s1.2,0.5,1.2,1.2C51.8,22.5,51.3,23,50.7,23z"/>
		<path d="M30.5,46.3c-0.9,0-1.7,0.8-1.7,1.7s0.8,1.7,1.7,1.7c1,0,1.7-0.7,1.7-1.7S31.4,46.3,30.5,46.3z M30.5,49.4
			c-0.8,0-1.5-0.6-1.5-1.4c0-0.8,0.7-1.5,1.5-1.5S32,47.1,32,48C31.9,48.8,31.3,49.4,30.5,49.4z"/>
		<path id="path1322" inkscape:connector-curvature="0" d="M73.1,41.5c0.1,0.1,0.5,0.3,0.8,0.4c0.8,0.2,1.2,1,0.5,1.3
			c-0.5,0.2-0.4,0.4,0.1,0.3c0.4-0.1,0.6,0,0.9,0.4c0.2,0.3,0.6,0.6,0.8,0.6c0.2,0.1,0.3,0.2,0.3,0.4c0,0.1,0.1,0.4,0.3,0.5
			c0.2,0.2,0.2,0.3-0.6,1c-0.5,0.4-1,0.8-1.2,0.8c-0.4,0-1.2-0.4-1.6-0.9c-0.2-0.2-0.5-0.4-0.6-0.4s0.1,0.3,0.4,0.7
			c0.9,0.8,1.2,1.9,0.6,2.2c-0.5,0.3-1.5-0.1-2.2-0.7c-0.3-0.2-0.5-0.4-0.5-0.3c0,0.1-0.1,0.2-0.3,0.3c-0.3,0.1-1-0.2-1-0.5
			c0-0.1-0.1-0.3-0.2-0.4c-0.1-0.1-0.3-0.5-0.4-0.9l-0.1-0.7l0.8,0.1c0.7,0.1,0.9,0.1,1.3-0.3c0.4-0.4,0.5-0.6,0.4-1
			c-0.1-0.6-0.7-1.1-1.2-1.1s-0.4-0.9,0.1-1.1c0.2-0.1,0.6-0.4,0.9-0.6C71.9,41.2,72.8,41.1,73.1,41.5L73.1,41.5z M71.6,42
			c-0.3,0.2-0.7,0.5-0.8,0.6c-0.4,0.1-0.4,0.6,0.1,0.6c0.3,0.1,0.6,0,0.9-0.3c0.5-0.4,0.7-0.5,0.7-0.3c0,0.1-0.2,0.3-0.5,0.5
			c-0.4,0.3-0.4,0.5-0.3,0.9s0.2,0.5,0.9,0.5c0.8,0,1.9,0.5,2,0.9c0,0.1-0.3,0.1-0.7-0.1c-0.4-0.2-1-0.4-1.4-0.4
			c-0.5,0-0.7,0.1-0.9,0.5c-0.2,0.4-0.2,0.5,0.1,0.9c0.5,0.7,0.8,1.3,0.6,1.3c-0.1,0-0.4-0.3-0.7-0.7c-0.4-0.5-0.6-0.7-0.9-0.7
			c-0.4,0.1-0.4,0.2-0.2,0.7c0.1,0.2,0.1,0.3-0.1,0.3c-0.1,0-0.3-0.2-0.4-0.5c-0.2-0.6-0.8-0.8-0.6-0.1c0.1,0.2,0.2,0.4,0.3,0.5
			c0.1,0,0.2,0.1,0.2,0.2c0,0.1,0.1,0.3,0.3,0.4c0.4,0.3,0.8,0,0.8-0.6c0-0.2,0.1-0.4,0.2-0.4s0.2,0.2,0.2,0.4
			c0,0.5,0.7,1.2,1.3,1.2c0.2,0,0.3,0.1,0.4,0.2c0,0.1,0.2,0.2,0.4,0.1c0.2-0.1,0.3-0.2,0.2-0.6c-0.1-0.5-1-1.5-1.3-1.5
			c-0.2,0-0.4-0.5-0.3-0.7c0.2-0.3,0.8-0.2,1.3,0.3c1,0.8,1.4,0.9,2.3,0.1c0.7-0.6,0.7-0.6,0.4-1c-0.2-0.2-0.4-0.3-0.5-0.3
			s-0.3-0.2-0.6-0.5c-0.3-0.4-0.6-0.5-1.1-0.5c-0.9,0-1-0.3-0.2-0.7c0.3-0.2,0.6-0.4,0.6-0.5s-0.6-0.5-1.2-0.6
			c-0.2-0.1-0.4-0.2-0.4-0.3C72.7,41.4,72.1,41.6,71.6,42L71.6,42z"/>
		<path id="path2346" inkscape:connector-curvature="0" d="M34.9,59c-0.4,0.7-0.9,1.7-0.9,2.1c0,0.5,0.6,0.8,1.1,0.5
			c0.3-0.1,0.4-0.1,0.2,0c-0.1,0.1-0.3,0.3-0.6,0.4c-0.4,0.1-0.4,0.3-0.4,0.9c0,0.4-0.1,0.5-0.2,0.8c0,0.1-0.1,0.4-0.1,0.7
			c0,0.7,0.6,1,1.8,0.7c0.7-0.2,0.4-0.1,0.9-0.4c0.2-0.3,0.3-0.7,0.4-1.1c0.1-0.4,0.3-0.8,0.4-0.9c0.1-0.1,0.1,0,0.1,0.1
			c-0.5,1.2-0.5,1.6-0.2,2.2c0.2,0.5,0.4,0.6,0.9,0.6c0.6,0,0.2-0.2,0.8-0.9c0.2-0.4,0.4-0.6,0.4-0.7c0.1-0.2,0.1-0.2,0.1-0.4
			c0-0.3,0.3-0.2,0.4-0.2c0.7,0,1-1.5,0.5-2.5c-0.3-0.7-0.5-0.7-0.9,0c-0.7,1-2.2,0.6-2.2-0.6c0-0.3,0.1-0.6,0.3-0.8
			s0.2-0.4,0.1-0.6c-0.1-0.2-0.5-0.3-1.5-0.4C35.3,58.6,35.1,58.7,34.9,59L34.9,59z M37.6,59.3c-0.1,0.5-0.4,0.7-1,0.6
			c-0.4-0.1-0.6,0-0.7,0.1c-0.1,0.1,0.1,0.2,0.4,0.2c0.6,0,0.9,0.2,1,0.7c0.1,0.3,0,0.5-0.5,1c-0.6,0.5-1.1,1.4-1.1,1.7
			s0.4,0,0.6-0.4c0.3-0.7,1.3-1.5,1.8-1.3c0.6,0.2,0.7,0.4,0.7,1.4c0,0.5,0.1,0.9,0.2,0.9c0.1,0,0.2-0.3,0.1-0.9
			c-0.1-0.7-0.1-1,0.1-1.1c0.4-0.3,0.7-0.2,0.7,0.2c0,0.2,0.1,0.4,0.2,0.4c0.1,0,0.2-0.2,0.1-0.5c-0.2-0.9,0.3-1.3,0.5-0.4
			c0.2,0.7-0.1,1.6-0.4,1.6c-0.1,0-0.4-0.2-0.5-0.4c-0.3-0.5-0.6-0.3-0.3,0.2s0.3,1-0.1,1.5C39.2,65,39,65.3,39,65.4
			c0,0.4-0.6,0.2-0.8-0.2c-0.1-0.3-0.1-0.7,0.1-1.3c0.2-1,0.2-1.3-0.2-1.3c-0.3,0-0.8,0.9-0.8,1.4c0,0.8-0.8,1.2-2.1,1.2
			c-0.5,0-0.5-0.1-0.3-0.7c0.1-0.4,0.2-0.9,0.2-1.2c0-0.4,0.1-0.6,0.6-1c0.7-0.5,0.9-1,0.2-0.8c-0.8,0.3-1.1,0.2-1.1-0.3
			c0-0.2,0.2-0.5,0.3-0.6s0.3-0.4,0.3-0.6c0-0.4,0.2-0.5,0.7-0.5C37,59,37.7,59,37.6,59.3L37.6,59.3z"/>
		<path id="path12" inkscape:connector-curvature="0" d="M28,41c-0.1,0.1-0.5,0.3-0.8,0.4c-0.8,0.2-1.2,1-0.5,1.3
			c0.5,0.2,0.4,0.4-0.1,0.3c-0.4-0.1-0.6,0-0.9,0.4c-0.2,0.3-0.6,0.6-0.8,0.6c-0.2,0.1-0.3,0.2-0.3,0.4c0,0.1-0.1,0.4-0.3,0.5
			c-0.2,0.2-0.2,0.3,0.6,1c0.5,0.4,1,0.8,1.2,0.8c0.4,0,1.2-0.4,1.6-0.9c0.2-0.2,0.5-0.4,0.6-0.4s-0.1,0.3-0.4,0.7
			c-0.9,0.8-1.2,1.9-0.6,2.2c0.5,0.3,1.5-0.1,2.2-0.7c0.3-0.2,0.5-0.4,0.5-0.3c0,0.1,0.1,0.2,0.3,0.3c0.3,0.1,1-0.2,1-0.5
			c0-0.1,0.1-0.3,0.2-0.4c0.1-0.1,0.3-0.5,0.4-0.9l0.1-0.7l-0.8,0.1c-0.7,0.1-0.9,0.1-1.3-0.3c-0.4-0.4-0.5-0.6-0.4-1
			c0.1-0.6,0.7-1.1,1.2-1.1s0.4-0.9-0.1-1.1c-0.2-0.1-0.6-0.4-0.9-0.6C29.1,40.7,28.3,40.6,28,41L28,41z M29.5,41.6
			c0.3,0.2,0.7,0.5,0.8,0.6c0.4,0.1,0.4,0.6-0.1,0.6c-0.3,0.1-0.6,0-0.9-0.3c-0.5-0.4-0.7-0.5-0.7-0.3c0,0.1,0.2,0.3,0.5,0.5
			c0.4,0.3,0.4,0.5,0.3,0.9s-0.2,0.5-0.9,0.5c-0.8,0-1.9,0.5-2,0.9c0,0.1,0.3,0.1,0.7-0.1c0.4-0.2,1-0.4,1.4-0.4
			c0.5,0,0.7,0.1,0.9,0.5c0.2,0.4,0.2,0.5-0.1,0.9c-0.5,0.7-0.8,1.3-0.6,1.3c0.1,0,0.4-0.3,0.7-0.7c0.4-0.5,0.6-0.7,0.9-0.7
			c0.4,0.1,0.4,0.2,0.2,0.7c-0.1,0.2-0.1,0.3,0.1,0.3s0.3-0.2,0.4-0.5c0.2-0.6,0.8-0.8,0.6-0.1c-0.1,0.2-0.2,0.4-0.3,0.5
			c-0.1,0-0.2,0.1-0.2,0.2c0,0.1-0.1,0.3-0.3,0.4c-0.4,0.3-0.8,0-0.8-0.6c0-0.2-0.1-0.4-0.2-0.4s-0.2,0.2-0.2,0.4
			c0,0.5-0.7,1.2-1.3,1.2c-0.2,0-0.3,0.1-0.4,0.2c0,0.1-0.2,0.2-0.4,0.1c-0.2-0.1-0.3-0.2-0.2-0.6c0.1-0.5,1-1.5,1.3-1.5
			c0.2,0,0.4-0.5,0.3-0.7c-0.2-0.3-0.8-0.2-1.3,0.3c-1,0.8-1.4,0.9-2.3,0.1c-0.7-0.6-0.7-0.6-0.4-1c0.2-0.2,0.4-0.3,0.5-0.3
			s0.3-0.2,0.6-0.5c0.3-0.4,0.6-0.5,1.1-0.5c0.9,0,1-0.3,0.2-0.7c-0.3-0.2-0.6-0.4-0.6-0.5s0.6-0.5,1.2-0.6c0.2-0.1,0.4-0.2,0.4-0.3
			C28.3,41,29,41.1,29.5,41.6L29.5,41.6z"/>
		<path d="M53.2,57.4L53,57.3c-0.7-0.3-1.1-1.3-1.3-2.1c-0.3-0.1-0.6,0-0.8,0.2c-0.1,0-0.1,0.1-0.2,0c-0.1,0-0.2-0.2-0.2-0.3
			s0-0.2,0.1-0.3l0,0c0.3-0.2,0.6-0.3,0.9-0.3c-0.3-0.6-0.4-1.6-0.1-2.1l0.2-0.3l0.1,0.3c0,0.2,0.1,0.2,0.2,0.2
			c0.1-0.2,0.4-0.3,0.7-0.3h0.1v0.1c0.1,0.1,0.1,0.3,0.1,0.4l0,0c0.2,0,0.3,0.1,0.4,0.2c0.2,0.3,0.2,0.6,0,0.9c0.2,0,0.4,0,0.5,0
			c0.1-0.1,0.3-0.2,0.5-0.4l0.1-0.2l0.1,0.1c0.2,0.1,0.2,0.2,0.2,0.4v0.1c0.3,0,0.6,0.2,0.9,0.4h0.1v0.1c0,0.2-0.1,0.4-0.3,0.5
			c-0.1,0-0.1,0.1-0.2,0.1c0.1,0.1,0.1,0.2,0.1,0.4v0.2L55,55.5c-0.4-0.2-0.8-0.2-1.2-0.1c0.3,0.2,0.4,0.4,0.5,0.6l0,0l0,0
			c0,0.2-0.1,0.2-0.3,0.3c0.1,0.1,0.1,0.2,0.1,0.4v0.1H54c-0.2,0.1-0.5,0-0.7-0.1c0,0,0,0.1,0,0.2V57L53.2,57.4z M51.5,54.9
			c0.1,0,0.3,0,0.4,0.1H52v0.1c0.1,0.6,0.4,1.4,1,1.8c0-0.1,0-0.2,0.2-0.4l0.1-0.1l0.1,0.1c0.2,0.2,0.3,0.2,0.4,0.2
			c0-0.1-0.1-0.2-0.2-0.2v-0.3c0.3,0,0.4,0,0.4-0.1c0-0.2-0.1-0.4-0.6-0.6H53l0.3-0.1c0.5-0.2,1-0.3,1.5-0.1c0,0-0.1-0.1-0.2-0.1
			l0.1-0.3c0.1,0,0.3,0,0.4-0.1c0.1-0.1,0.2-0.2,0.2-0.3c-0.3-0.2-0.6-0.4-0.8-0.3L54.2,54c0.1-0.1,0.1-0.1,0.1-0.1s0,0,0-0.1
			c-0.1,0.2-0.3,0.3-0.5,0.4c-0.3,0.1-0.7,0.1-0.9,0l-0.2-0.1l0.2-0.1c0.4-0.3,0.2-0.6,0.1-0.7c-0.1-0.1-0.2-0.1-0.2-0.1
			c-0.1,0-0.1,0-0.1,0.1l0,0l-0.2-0.1l0,0c0.1-0.1,0.1-0.2,0-0.4c-0.2,0-0.4,0.1-0.4,0.2v0.1H52c-0.2,0-0.3-0.1-0.3-0.1
			c-0.1,0.5,0.1,1.4,0.4,1.8l0.2,0.4L51.9,55c-0.4-0.1-0.7,0-0.9,0.2l0,0v0.1C51,55,51.2,54.9,51.5,54.9z M50.7,55.2L50.7,55.2
			L50.7,55.2z M47.2,54.4v-0.3v-0.2l0,0C47,54,46.7,54,46.5,54h-0.1v-0.1c-0.1-0.1-0.1-0.2-0.1-0.4l0,0c-0.1,0-0.3-0.1-0.3-0.3
			c-0.1-0.3,0-0.6,0.2-0.8c-0.1,0-0.2,0-0.3,0c-0.2,0-0.4,0.2-0.6,0.4L45.2,53l-0.1-0.2c-0.1,0-0.1-0.2-0.1-0.3
			c-0.2-0.1-0.5-0.3-0.6-0.5l0,0v-0.1c0-0.2,0.2-0.4,0.4-0.5c0,0,0.1,0,0.1-0.1s-0.1-0.2,0-0.4l0.1-0.2l0.1,0.1
			c0.3,0.2,0.6,0.3,0.9,0.2c-0.2-0.2-0.3-0.4-0.2-0.6l0,0c0.1-0.1,0.2-0.2,0.2-0.2c-0.1-0.1-0.1-0.3,0-0.4v-0.1h0.1
			c0.3-0.1,0.4,0.1,0.6,0.2c0,0,0-0.1,0-0.3v-0.2l0.2,0.1c0.5,0.3,0.7,1.2,0.7,2c0.2,0.1,0.5,0,0.7-0.1c0.1-0.1,0.1-0.1,0.2,0
			c0.1,0,0.1,0.1,0.1,0.2c0,0.1,0,0.3-0.1,0.4l0,0c-0.3,0.2-0.5,0.2-0.8,0.2c0.1,0.6,0.1,1.5-0.3,2L47.2,54.4z M46.7,53.5
			c-0.1,0.1-0.1,0.2-0.1,0.3c0.2,0,0.3,0,0.4-0.2v-0.1h0.1c0.1,0,0.2,0.1,0.3,0.1c0.2-0.5,0.2-1.3,0-1.7l-0.1-0.4l0.1,0.1l0,0
			c0-0.6-0.1-1.3-0.4-1.7c0,0.1-0.1,0.2-0.2,0.3l-0.1,0.1l-0.1-0.1c-0.1-0.1-0.2-0.2-0.3-0.2c0,0.2,0.1,0.2,0.2,0.2v0.3
			c-0.2,0-0.3,0-0.3,0.1c0,0.2,0,0.3,0.3,0.5l0.2,0.1l-0.2,0.1c-0.4,0.2-0.8,0.2-1.2,0l0.1,0.1l-0.1,0.3c-0.1,0-0.2,0-0.2,0.1
			c-0.1,0.1-0.2,0.2-0.3,0.3c0.1,0.2,0.4,0.4,0.6,0.3l0.1,0.2l-0.1,0.1c0.2-0.2,0.4-0.3,0.6-0.3c0.2,0,0.5,0,0.7,0.1l0.2,0.1
			l-0.2,0.1c-0.3,0.2-0.3,0.5-0.2,0.7l0.1,0.1L46.7,53.5L46.7,53.5L46.7,53.5L46.7,53.5z M47.6,51.7L47.6,51.7
			c0.2,0.2,0.6,0,0.7-0.1l0,0C48.1,51.8,47.8,51.8,47.6,51.7z M46.8,46.6l0.1-0.3c0-0.1,0-0.2,0-0.2c-0.2,0.1-0.4,0.1-0.6,0h-0.1V46
			c0-0.2,0.1-0.3,0.1-0.4c-0.1-0.1-0.2-0.2-0.2-0.3l0,0l0,0c0.1-0.2,0.2-0.5,0.5-0.6c-0.3-0.2-0.7-0.3-1.1-0.1l-0.2,0.1v-0.2
			c0-0.1,0-0.3,0.1-0.4c-0.2-0.2-0.4-0.5-0.4-0.8v-0.1l0,0c0.2-0.2,0.5-0.3,0.8-0.3c0-0.1,0.1-0.3,0.2-0.4l0.2-0.2l0.1,0.2
			c0.1,0.3,0.3,0.5,0.5,0.6c0.1,0.1,0.2,0.1,0.3,0.1c-0.2-0.4-0.1-0.7,0.1-1c0.1-0.1,0.2-0.2,0.4-0.2c0,0,0,0,0.1,0
			c0-0.2,0.1-0.3,0.2-0.4l0.1-0.1h0.1c0.2,0.1,0.5,0.2,0.6,0.4c0.1,0,0.1-0.1,0.1-0.2l0.1-0.4l0.1,0.4c0.2,0.6,0,1.7-0.3,2.3
			c0.3,0,0.5,0.2,0.8,0.5c0.1,0.1,0.1,0.3,0.1,0.4c0,0.1-0.1,0.2-0.2,0.2c-0.1,0-0.1,0-0.2-0.1c-0.2-0.2-0.4-0.4-0.7-0.3
			c-0.3,0.8-0.7,1.8-1.4,1.9L46.8,46.6z M47,45.8L47,45.8c0.2,0.2,0.2,0.3,0.2,0.5c0.5-0.3,0.9-1.1,1-1.7v-0.1h0.1
			c0.3-0.1,0.7,0,1,0.3l0,0v-0.1l0,0c-0.1-0.1-0.4-0.5-0.8-0.4l-0.4,0.1l0.2-0.3c0.3-0.4,0.5-1.3,0.5-1.9c-0.1,0.1-0.2,0.1-0.3,0.1
			h-0.1v-0.1c0-0.1-0.1-0.2-0.3-0.3c0,0.1-0.1,0.2,0,0.4l0,0l-0.2,0.1l0,0c0-0.1-0.1-0.1-0.2-0.1c0,0-0.1,0-0.1,0.1
			c-0.1,0.2-0.2,0.5,0,0.8l0.1,0.1l-0.2,0.1c-0.2,0.1-0.5,0.1-0.7-0.1c-0.2-0.1-0.4-0.3-0.5-0.6c0,0.1,0,0.1,0.1,0.2l-0.2,0.2
			C46,43,45.7,43,45.5,43.2c0,0.3,0.3,0.6,0.4,0.6v0.3c-0.1,0-0.1,0-0.2,0.1c0.5-0.1,0.9,0,1.3,0.4l0.2,0.2H47
			c-0.4,0.1-0.5,0.3-0.6,0.5c0,0.1,0.1,0.2,0.3,0.2v0.3c-0.1,0-0.1,0-0.1,0s-0.1,0.1-0.1,0.2C46.6,46,46.7,45.9,47,45.8L47,45.8z
			 M54.1,46.5c-0.8,0-1.5-0.9-1.8-1.3c-0.2,0-0.4,0.2-0.5,0.5c0,0.1-0.1,0.1-0.1,0.1c-0.1,0-0.2,0-0.3-0.1s-0.1-0.2-0.1-0.4l0,0
			c0.1-0.3,0.3-0.5,0.5-0.6c-0.5-0.5-1-1.3-1-1.9v-0.4l0.2,0.3c0.1,0.1,0.1,0.2,0.2,0.2c0-0.3,0.3-0.5,0.4-0.6h0.1h0.1
			c0.1,0.1,0.2,0.2,0.3,0.3l0,0c0.1,0,0.2-0.1,0.4,0.1c0.2,0.2,0.4,0.5,0.3,0.8c0.1,0,0.2-0.1,0.3-0.2c0.2-0.2,0.2-0.4,0.2-0.7v-0.2
			l0.2,0.1c0.2,0.1,0.3,0.2,0.3,0.3c0.2-0.1,0.5-0.1,0.8,0.1l0,0V43c0.1,0.2,0.1,0.5,0,0.7c0,0,0,0,0,0.1c0.1,0.1,0.2,0.2,0.2,0.3
			l0.1,0.2h-0.2c-0.4,0-0.7,0.1-0.9,0.4c0.3,0,0.5,0.2,0.6,0.4l0,0c0,0.1,0,0.2-0.1,0.4c0.1,0.1,0.2,0.2,0.2,0.3v0.1L54.4,46
			c-0.1,0.1-0.3,0.2-0.6,0.2c0,0,0,0.1,0.1,0.2L54.1,46.5L54.1,46.5L54.1,46.5z M52.4,45L52.4,45c0.4,0.6,1,1.1,1.4,1.3
			c0-0.1-0.1-0.2,0-0.4v-0.1h0.1c0.2,0.1,0.3,0.1,0.4,0c-0.1-0.1-0.2-0.1-0.3-0.1l0-0.3c0.2-0.1,0.2-0.2,0.2-0.2
			c-0.1-0.2-0.2-0.3-0.6-0.3h-0.3l0.1-0.2c0.3-0.4,0.6-0.7,1-0.7c0,0-0.1,0-0.2,0l-0.1-0.3c0.1,0,0.1-0.1,0.1-0.1
			c0.1-0.1,0.1-0.3,0-0.5c-0.3-0.1-0.6-0.1-0.7,0.1l-0.2-0.1c0-0.1,0-0.2,0-0.2c0,0.3-0.1,0.5-0.3,0.7s-0.4,0.3-0.6,0.3h-0.2
			l0.1-0.2c0.2-0.4-0.1-0.6-0.2-0.7c0,0-0.1-0.1-0.1,0l-0.1,0.1l0,0h-0.3l0,0c0-0.2-0.1-0.3-0.1-0.4c-0.2,0.1-0.2,0.2-0.2,0.4v0.1
			h-0.1c-0.1,0-0.2,0.1-0.3,0c0.2,0.6,0.7,1.3,1.1,1.5L52.4,45L52.4,45z M51.6,45.4C51.5,45.4,51.6,45.5,51.6,45.4
			c0.2-0.4,0.5-0.5,0.8-0.5l0,0h-0.3C51.8,44.9,51.6,45.3,51.6,45.4z M63.6,46.1L63.4,46c-0.8-0.4-1.3-1.4-1.4-2.3
			c-0.3-0.1-0.6,0-0.9,0.2c-0.1,0.1-0.3,0-0.4-0.1c-0.1-0.2-0.1-0.4,0.1-0.5c0.3-0.2,0.6-0.3,0.9-0.3c-0.3-0.7-0.5-1.8-0.1-2.3
			l0.2-0.3l0.1,0.3c0,0.2,0.1,0.2,0.2,0.2c0.1-0.2,0.4-0.3,0.7-0.3h0.1v0.1C63,40.8,63,41,63,41.2l0,0c0.2,0,0.3,0.1,0.5,0.2
			c0.2,0.4,0.2,0.7,0,1c0.2,0,0.4,0,0.6,0c0.2-0.1,0.4-0.2,0.5-0.5l0.1-0.2l0.1,0.1c0.2,0.2,0.3,0.4,0.2,0.5c0.3,0,0.7,0.2,0.9,0.5
			H66v0.1c0,0.2-0.1,0.4-0.3,0.6c-0.1,0.1-0.1,0.1-0.2,0.1c0.1,0.1,0.1,0.3,0.1,0.4v0.2l-0.2-0.1c-0.5-0.2-0.9-0.3-1.4-0.1
			c0.3,0.2,0.5,0.4,0.5,0.7l0,0l0,0c0,0.2-0.1,0.3-0.3,0.3c0.1,0.1,0.1,0.3,0.1,0.4v0.1h-0.1c-0.3,0.1-0.6,0-0.7-0.2
			c0,0,0,0.1,0,0.2c0,0,0,0.1,0,0.2L63.6,46.1z M61.7,43.4c0.1,0,0.3,0,0.4,0.1h0.1v0.1c0.1,0.8,0.5,1.6,1.1,2c0-0.2,0-0.3,0.1-0.4
			l0.1-0.1l0.1,0.1c0.2,0.2,0.4,0.3,0.5,0.2c0-0.2-0.1-0.3-0.3-0.3v-0.3c0.3,0,0.4,0,0.4-0.1c0-0.2-0.1-0.4-0.6-0.6L63.3,44l0.3-0.1
			c0.5-0.3,1-0.3,1.6-0.1c0-0.1-0.1-0.1-0.2-0.1l0.1-0.3c0.1,0,0.3,0,0.4-0.1s0.2-0.2,0.2-0.3c-0.3-0.2-0.7-0.4-0.9-0.3l-0.1-0.2
			c0.1-0.1,0.2-0.2,0.1-0.3c-0.1,0.2-0.4,0.4-0.6,0.5c-0.3,0.1-0.7,0.1-1,0L63,42.5l0.2-0.1c0.3-0.3,0.3-0.6,0.1-0.8
			c-0.1-0.1-0.2-0.1-0.2-0.1c-0.1,0-0.1,0-0.2,0.1l0,0l-0.2-0.1l0,0c0.1-0.2,0.1-0.4,0-0.4c-0.3,0-0.4,0.1-0.5,0.2v0.1h-0.1
			c-0.2,0-0.3,0-0.4-0.1c-0.1,0.6,0.1,1.6,0.4,2.1l0.2,0.3l-0.4-0.1c-0.4-0.1-0.7,0-1,0.2l0,0c0,0,0,0,0,0.1V44
			C61.2,43.5,61.5,43.4,61.7,43.4z M37.3,46.1v-0.2c0-0.1,0-0.1,0-0.2c0-0.1,0-0.2,0-0.2c-0.2,0.1-0.4,0.3-0.7,0.2h-0.1v-0.1
			c0-0.2,0-0.3,0.1-0.4c-0.1,0-0.2-0.1-0.3-0.3l0,0l0,0c0-0.3,0.2-0.5,0.5-0.7c-0.5-0.2-0.9-0.1-1.4,0.1l-0.2,0.1v-0.2
			c0-0.2,0-0.3,0.1-0.4c-0.1,0-0.2-0.1-0.2-0.1c-0.2-0.2-0.3-0.4-0.3-0.6V43h0.1c0.2-0.2,0.6-0.4,0.9-0.5c-0.1-0.2,0-0.3,0.2-0.5
			l0.1-0.1l0.1,0.2c0.1,0.3,0.4,0.4,0.5,0.5c0.2,0.1,0.4,0.1,0.6,0c-0.2-0.3-0.2-0.6,0-1c0.1-0.2,0.3-0.3,0.5-0.3l0,0
			c0-0.2,0-0.3,0.2-0.5v-0.1h0.1c0.4,0,0.6,0.1,0.7,0.3c0.1,0,0.2-0.1,0.2-0.2l0.1-0.3l0.2,0.3c0.3,0.6,0.2,1.7-0.1,2.3
			c0.3,0,0.7,0.1,0.9,0.3c0.1,0.1,0.1,0.2,0.2,0.3c0,0.1,0,0.2-0.1,0.3c0,0-0.2,0-0.3,0c-0.3-0.3-0.6-0.3-0.9-0.2
			c-0.2,0.8-0.6,1.9-1.4,2.3H37.3z M37.4,45.1L37.4,45.1c0.2,0.2,0.2,0.4,0.2,0.5c0.6-0.4,1-1.3,1.1-2v-0.1h0.1
			c0.4-0.2,0.8-0.1,1.2,0.2v-0.1v-0.1l0,0c-0.2-0.2-0.6-0.3-1-0.2l-0.4,0.1l0.2-0.3c0.3-0.5,0.5-1.5,0.4-2.1
			c-0.1,0.1-0.2,0.1-0.4,0.1h-0.1V41c-0.1-0.1-0.2-0.2-0.5-0.2c-0.1,0.1-0.1,0.2,0,0.4l0,0L38,41.3l0,0c0,0-0.1-0.1-0.2-0.1
			c-0.1,0-0.2,0-0.2,0.1c-0.1,0.2-0.2,0.5,0.1,0.8l0.2,0.1l-0.2,0.1c-0.3,0.1-0.7,0.2-1,0c-0.3-0.1-0.5-0.3-0.6-0.5
			c-0.1,0.1,0,0.1,0.1,0.3l-0.1,0.2c-0.3-0.1-0.7,0.1-0.9,0.3c0,0.1,0.1,0.2,0.2,0.3c0.1,0.1,0.3,0.2,0.4,0.1l0.1,0.3
			c-0.1,0-0.2,0.1-0.2,0.1c0.5-0.2,1-0.2,1.6,0.1l0.3,0.1l-0.3,0.1c-0.5,0.2-0.6,0.4-0.6,0.6c0,0.1,0.1,0.1,0.4,0.1v0.3
			c-0.2,0-0.3,0.1-0.3,0.3C37,45.5,37.1,45.4,37.4,45.1L37.4,45.1z M57.1,42.8v-0.4c0-0.2,0-0.2-0.1-0.2c-0.2,0.2-0.5,0.2-0.7,0.2
			h-0.1v-0.1c-0.1-0.1-0.1-0.3-0.1-0.4l0,0c-0.1,0-0.3-0.1-0.3-0.3l0,0c0-0.1-0.1-0.6,0.2-0.9c-0.1,0-0.2,0-0.3,0s-0.4,0.1-0.6,0.5
			L55,41.4l-0.1-0.2c-0.1-0.2-0.2-0.3-0.1-0.4c-0.3,0-0.5-0.3-0.7-0.5l0,0l0,0c0-0.2,0.2-0.4,0.4-0.6c0,0,0.1,0,0.1-0.1
			s-0.1-0.2,0-0.4V39l0.2,0.1c0.3,0.2,0.7,0.3,1,0.2c-0.3-0.2-0.3-0.5-0.3-0.7l0,0c0.1-0.2,0.2-0.2,0.3-0.3c-0.1-0.2,0-0.3,0-0.4
			v-0.1h0.1c0.2,0,0.4,0,0.6,0.2c0,0,0-0.1,0-0.2v-0.1v-0.2l0.2,0.1c0.7,0.5,0.8,1.7,0.8,2.2c0.3,0.1,0.6,0,0.7-0.1
			c0.1-0.1,0.2-0.1,0.2-0.1c0.1,0,0.1,0.1,0.2,0.2c0,0.1,0,0.3-0.1,0.4l0,0c-0.3,0.2-0.6,0.2-0.8,0.2c0.1,0.7,0.1,1.7-0.3,2.2
			L57.1,42.8z M56.6,41.8c-0.1,0.1-0.1,0.3-0.1,0.4c0.2,0,0.3,0,0.4-0.2v-0.1H57c0.1,0,0.2,0.1,0.3,0.1c0.2-0.6,0.2-1.4,0-1.9
			l-0.1-0.4l0.1,0.1v-0.1c0-0.7-0.1-1.5-0.5-1.9c0,0.1-0.1,0.2-0.3,0.3l-0.1,0.1l-0.1-0.1c-0.1-0.1-0.2-0.2-0.3-0.2
			c0,0.2,0.1,0.3,0.2,0.3v0.3c-0.2,0-0.3,0-0.4,0.1c0,0.2,0,0.4,0.4,0.6l0.2,0.1l-0.2,0.1c-0.5,0.2-0.9,0.2-1.3,0
			c0,0.1,0.1,0.1,0.1,0.1l-0.1,0.3c-0.1,0-0.2,0-0.3,0.1s-0.2,0.2-0.3,0.4c0.1,0.2,0.4,0.4,0.6,0.3l0.1,0.2c0,0,0,0,0,0.1
			c0.2-0.2,0.4-0.3,0.7-0.4c0.3,0,0.5,0,0.7,0.1l0.2,0.1l-0.2,0.1c-0.3,0.2-0.3,0.6-0.3,0.7l0.1,0.1c0.1,0,0.1,0,0.2-0.1l0,0
			L56.6,41.8L56.6,41.8z M57.4,39.8L57.4,39.8c0.3,0.3,0.7,0.1,0.9,0v-0.1C58,40,57.7,40,57.4,39.8z M43.8,42.8l-0.2-0.3
			c-0.4-0.5-0.4-1.6-0.3-2.2c-0.2,0-0.5,0-0.8-0.2l0,0c-0.1-0.1-0.2-0.3-0.1-0.4c0-0.1,0.1-0.2,0.2-0.2c0,0,0.1,0,0.2,0.1
			c0.1,0.1,0.4,0.3,0.7,0.1c0-0.5,0.1-1.7,0.8-2.2l0.2-0.1v0.2v0.1c0,0.1,0,0.2,0,0.2c0.2-0.2,0.4-0.2,0.6-0.2h0.1v0.1
			c0,0.1,0,0.3,0,0.4c0.1,0,0.2,0.1,0.3,0.3l0,0c0,0.3,0,0.5-0.3,0.7c0.4,0.1,0.7,0.1,1-0.2l0.2-0.1v0.2c0,0.2,0,0.3,0,0.4
			c0,0,0.1,0,0.1,0.1c0.2,0.1,0.4,0.4,0.4,0.6l0,0l0,0c-0.1,0.3-0.4,0.5-0.7,0.5c0,0.1,0,0.3-0.1,0.4L46,41.4l-0.1-0.2
			c-0.2-0.3-0.5-0.4-0.6-0.5c-0.1,0-0.2,0-0.3,0c0.3,0.3,0.2,0.8,0.2,0.9l0,0c-0.1,0.2-0.2,0.2-0.3,0.3l0,0c0,0.2,0,0.3-0.1,0.4v0.1
			h-0.1c-0.1,0-0.5,0-0.7-0.2c-0.1,0-0.1,0.1-0.1,0.2v0.4H43.8z M44.1,41.9L44.1,41.9c0.1,0.2,0.2,0.3,0.4,0.3c0-0.1,0-0.3-0.1-0.4
			l0,0l0.2-0.2l0,0c0,0,0.1,0.1,0.2,0.1c0.1,0,0.1-0.1,0.1-0.1c0-0.2,0.1-0.5-0.3-0.7l-0.2-0.1l0.2-0.1c0.2-0.1,0.4-0.2,0.7-0.1
			c0.3,0,0.5,0.2,0.7,0.4c0-0.1,0-0.1-0.1-0.2l0.1-0.2c0.2,0.1,0.5-0.1,0.6-0.3c0-0.1-0.2-0.3-0.3-0.4c-0.1-0.1-0.2-0.1-0.3-0.1
			l0-0.3c0.1,0,0.1,0,0.1-0.1c-0.4,0.2-0.8,0.2-1.3,0l-0.2-0.1l0.2-0.1c0.4-0.2,0.4-0.4,0.4-0.6c0-0.1-0.1-0.1-0.4-0.1v-0.3
			c0.1,0,0.2,0,0.2-0.3c-0.1,0-0.2,0.1-0.3,0.2l-0.1,0.1l-0.1-0.1c-0.2-0.1-0.2-0.2-0.3-0.3c-0.4,0.4-0.5,1.2-0.5,1.9v0.1l0.1-0.1
			l-0.1,0.4c-0.2,0.5-0.1,1.4,0,1.9C43.7,42,43.8,41.9,44.1,41.9L44.1,41.9z M42.6,39.9c0.2,0.1,0.6,0.3,0.8,0.1l0.1-0.1
			C43.3,40,42.9,40,42.6,39.9C42.6,39.8,42.6,39.8,42.6,39.9z M56.8,34.3v-0.2c0-0.1,0-0.1,0-0.2c0-0.1,0-0.1,0-0.2
			c-0.2,0.1-0.4,0.2-0.7,0H56v-0.1c0-0.2,0.1-0.4,0.1-0.5c-0.1-0.1-0.2-0.2-0.2-0.4l0,0l0,0c0.1-0.3,0.2-0.5,0.6-0.7
			c-0.4-0.3-0.8-0.3-1.2-0.1L55.2,32v-0.2c0-0.2,0.1-0.4,0.2-0.5c-0.2-0.2-0.4-0.5-0.4-0.8v-0.1l0,0c0.2-0.2,0.6-0.4,0.9-0.3
			c0-0.2,0-0.3,0.2-0.5l0.2-0.2l0.1,0.2c0.1,0.3,0.3,0.6,0.6,0.7c0.1,0.1,0.2,0.1,0.4,0.1c-0.2-0.4-0.1-0.8,0-1.1
			c0.1-0.1,0.3-0.2,0.4-0.2c0,0,0,0,0.1,0c0-0.2,0.1-0.4,0.2-0.5l0.1-0.1h0.1c0.1,0,0.5,0.2,0.6,0.5c0.1,0,0.1-0.1,0.2-0.3l0.1-0.4
			l0.1,0.4c0.2,0.6,0,1.8-0.4,2.5c0.3,0,0.6,0.2,0.8,0.5l0,0c0.1,0.2,0.1,0.5-0.1,0.6c-0.1,0.1-0.2,0.1-0.3,0
			c-0.2-0.2-0.4-0.5-0.7-0.4c-0.2,0.7-0.7,1.9-1.5,2.1L56.8,34.3z M56.9,33.3L56.9,33.3c0.2,0.2,0.2,0.4,0.2,0.5
			c0.5-0.3,0.9-1.2,1.1-1.9v-0.1h0.1c0.4-0.1,0.8,0,1.1,0.4c0,0,0,0,0-0.1V32c-0.3-0.3-0.6-0.5-0.8-0.4l-0.4,0.1l0.2-0.3
			c0.3-0.4,0.6-1.5,0.5-2.1c-0.1,0.1-0.2,0.1-0.4,0.1h-0.1v-0.1c0-0.1-0.1-0.3-0.4-0.3c-0.1,0.1-0.1,0.3,0,0.5l0,0l-0.2,0.1l0,0
			c0-0.1-0.1-0.1-0.2-0.1c-0.1,0-0.1,0-0.2,0.1c-0.1,0.1-0.3,0.5,0.1,0.9l0.1,0.1l-0.2,0.1c-0.2,0.1-0.5,0.1-0.8-0.1
			c-0.3-0.1-0.5-0.4-0.6-0.7c0,0.1,0,0.1,0.1,0.3L56,30.4c-0.2-0.2-0.5,0-0.8,0.2c0,0.3,0.3,0.6,0.5,0.6v0.3c-0.1,0-0.1,0-0.2,0.1
			c0.5-0.1,1,0,1.4,0.4l0.2,0.2l-0.2,0.1c-0.5,0.1-0.5,0.3-0.6,0.6c0,0.2,0.3,0.2,0.3,0.2v0.3c-0.1,0-0.2,0-0.2,0.3
			C56.5,33.6,56.6,33.5,56.9,33.3L56.9,33.3z M44.2,34.3L44,34.2c-0.8-0.2-1.3-1.4-1.5-2.1c-0.3-0.1-0.6,0.2-0.7,0.4
			c-0.1,0.1-0.2,0.1-0.3,0s-0.2-0.4-0.1-0.6l0,0c0.3-0.3,0.6-0.5,0.8-0.5c-0.3-0.7-0.6-1.9-0.4-2.5l0.1-0.4l0.1,0.4
			c0.1,0.2,0.1,0.3,0.2,0.3c0.1-0.3,0.5-0.4,0.6-0.5h0.1l0.1,0.1c0.1,0.1,0.2,0.3,0.2,0.5c0,0,0,0,0.1,0c0.2,0,0.3,0.1,0.4,0.2
			c0.2,0.3,0.3,0.7,0,1.1c0.1,0,0.2,0,0.4-0.1c0.3-0.1,0.5-0.4,0.6-0.7l0.1-0.2l0.2,0.2c0.2,0.2,0.2,0.3,0.2,0.5
			c0.3,0,0.6,0.1,0.9,0.3l0,0v0.1c0,0.3-0.2,0.7-0.4,0.8c0.1,0.1,0.2,0.3,0.2,0.5v0.2l-0.2-0.1c-0.4-0.2-0.8-0.1-1.2,0.1
			c0.4,0.2,0.5,0.4,0.6,0.7l0,0l0,0c0,0.2-0.1,0.3-0.2,0.4c0.1,0.1,0.1,0.2,0.1,0.5v0.1h-0.1c-0.3,0.2-0.5,0.1-0.7,0
			c0,0,0,0.1,0,0.2C44.2,34.2,44.2,34.2,44.2,34.3L44.2,34.3z M42.4,31.8c0.1,0,0.2,0,0.3,0h0.1v0.1c0.2,0.7,0.6,1.6,1.1,1.9
			c0-0.1,0-0.3,0.1-0.4l0.1-0.1l0.1,0.1c0.2,0.1,0.3,0.2,0.4,0.1c0-0.3-0.2-0.3-0.2-0.3V33c0,0,0.3,0,0.3-0.2
			c-0.1-0.2-0.2-0.4-0.6-0.6l-0.2-0.1L44,32c0.5-0.4,0.9-0.5,1.4-0.4c0-0.1-0.1-0.1-0.2-0.1v-0.3c0.2,0,0.4-0.3,0.5-0.6
			c-0.3-0.2-0.6-0.3-0.8-0.2l-0.2-0.2c0.1-0.1,0.1-0.2,0.1-0.3c-0.1,0.3-0.3,0.5-0.6,0.7c-0.3,0.1-0.5,0.1-0.8,0.1l-0.2-0.1l0.1-0.1
			c0.4-0.4,0.1-0.8,0.1-0.9s-0.1-0.1-0.2-0.1c-0.1,0-0.1,0.1-0.2,0.1l0,0l-0.2-0.1l0,0c0.1-0.2,0.1-0.4,0-0.5
			c-0.2,0.1-0.4,0.2-0.4,0.3v0.1h-0.1c-0.2,0-0.3,0-0.4-0.1c0,0.7,0.2,1.7,0.5,2.1l0.2,0.3l-0.4-0.1c-0.2-0.1-0.5,0.1-0.8,0.4v0.1
			c0,0,0,0,0,0.1C41.8,31.9,42.1,31.8,42.4,31.8z M64.5,34.1c-0.9,0-1.6-1-1.9-1.4c-0.2,0-0.4,0.2-0.5,0.5c0,0.1-0.1,0.1-0.1,0.1
			c-0.1,0-0.2,0-0.3-0.1s-0.2-0.3-0.1-0.4l0,0c0.1-0.3,0.3-0.6,0.6-0.7c-0.5-0.5-1.1-1.5-1.1-2.1v-0.4l0.2,0.3
			c0.1,0.1,0.1,0.2,0.2,0.2c0-0.3,0.3-0.5,0.4-0.6l0.1-0.1h0.1c0.1,0.1,0.2,0.2,0.3,0.4l0,0c0.1-0.1,0.3-0.1,0.4,0
			c0.2,0.2,0.4,0.5,0.4,0.9c0.1,0,0.2-0.1,0.3-0.2c0.2-0.2,0.3-0.5,0.3-0.8v-0.2l0.2,0.1c0.2,0.1,0.3,0.2,0.4,0.3
			c0.3-0.1,0.6-0.1,0.9,0h0.1V30c0.1,0.3,0.1,0.6-0.1,0.8c0,0,0,0,0,0.1c0.1,0.1,0.2,0.2,0.3,0.3l0.1,0.2h-0.2c-0.4,0-0.7,0.1-1,0.5
			c0.4,0,0.6,0.2,0.7,0.4l0,0c0,0.2,0,0.3-0.1,0.4c0.1,0.1,0.2,0.2,0.3,0.3v0.1v0.1c-0.2,0.2-0.4,0.2-0.6,0.2c0,0,0,0.1,0.1,0.2
			c0,0,0,0.1,0.1,0.1l0.1,0.2L64.5,34.1L64.5,34.1z M62.7,32.4L62.7,32.4L62.7,32.4c0.5,0.7,1.1,1.3,1.6,1.5c-0.1-0.1-0.1-0.2,0-0.4
			v-0.1h0.1c0.2,0.1,0.3,0.1,0.4,0c-0.1-0.2-0.2-0.2-0.3-0.1V33c0.2-0.1,0.3-0.2,0.2-0.3c-0.1-0.2-0.2-0.3-0.7-0.3h-0.3l0.1-0.2
			c0.3-0.5,0.6-0.7,1.1-0.8c-0.1-0.1-0.1-0.1-0.2,0l-0.1-0.3l0.1-0.1c0.1-0.2,0.1-0.4,0.1-0.6c-0.3-0.1-0.6-0.1-0.7,0.1L64,30.4
			c0-0.1,0-0.2,0-0.2c0,0.3-0.1,0.6-0.3,0.7c-0.2,0.2-0.4,0.3-0.7,0.3h-0.2l0.1-0.2c0.2-0.5-0.1-0.8-0.2-0.8c-0.1,0-0.1,0-0.2,0
			l-0.1,0.1l0,0h-0.3l0,0c0-0.2-0.1-0.3-0.2-0.4c-0.2,0.1-0.2,0.2-0.2,0.4v0.1h-0.1c-0.1,0.1-0.2,0.1-0.3,0c0.2,0.6,0.7,1.4,1.1,1.7
			L62.7,32.4l-0.4,0c-0.3,0-0.5,0.3-0.6,0.5l0,0V33C62.1,32.5,62.4,32.4,62.7,32.4z M61.8,33.2L61.8,33.2L61.8,33.2z M36.5,34.1
			C36.4,34.1,36.4,34.1,36.5,34.1h-0.2l0.1-0.2c0,0,0-0.1,0.1-0.1c0-0.1,0.1-0.1,0.1-0.2c-0.2,0-0.4,0-0.6-0.2v-0.1v-0.1
			c0.1-0.2,0.2-0.3,0.3-0.3c-0.3,0-0.3-0.1-0.3-0.3l0,0c0.1-0.2,0.3-0.4,0.7-0.4c-0.3-0.3-0.6-0.5-1-0.5h-0.2l0.1-0.2
			c0.1-0.2,0.2-0.3,0.3-0.3c0,0,0,0,0-0.1c-0.1-0.2-0.2-0.6-0.1-0.8v-0.1h0.1c0.3-0.1,0.6-0.1,0.9,0c0-0.2,0.1-0.2,0.4-0.3l0.2-0.1
			V30c0,0.3,0.1,0.6,0.3,0.8c0.1,0.1,0.2,0.2,0.3,0.2c-0.1-0.4,0.1-0.7,0.4-0.9c0.1-0.1,0.3-0.1,0.5,0l0,0c0.1-0.2,0.2-0.3,0.3-0.4
			h0.1l0.1,0.1c0.1,0.1,0.4,0.3,0.4,0.6c0.1,0,0.1,0,0.2-0.2l0.2-0.3v0.4c0,0.6-0.6,1.6-1.1,2.1c0.2,0.1,0.5,0.3,0.6,0.7l0,0
			c0.1,0.2-0.1,0.5-0.2,0.5c-0.1,0-0.2,0-0.2-0.1C39.2,33.2,39,33,38.8,33C38.1,33.1,37.3,34.1,36.5,34.1z M36.6,33.3L36.6,33.3
			c0.1,0.3,0,0.4,0,0.5c0.6-0.1,1.2-0.8,1.5-1.4v-0.1h0.1c0.3,0,0.6,0.1,0.8,0.6v-0.1c-0.1-0.3-0.3-0.6-0.6-0.5H38l0.3-0.3
			c0.4-0.3,1-1.1,1.1-1.7c-0.1,0-0.2,0-0.3,0H39v-0.1c0-0.2,0-0.3-0.2-0.4c-0.1,0.1-0.2,0.2-0.2,0.4l0,0h-0.3l0,0
			c0-0.1,0-0.1-0.1-0.1s-0.1,0-0.2,0c-0.1,0.1-0.4,0.3-0.2,0.8l0.1,0.2h-0.2c-0.2,0-0.5-0.1-0.7-0.3c-0.2-0.2-0.3-0.5-0.3-0.7
			c0,0,0,0.1,0,0.2l-0.2,0.1c-0.1-0.2-0.5-0.2-0.7-0.1c0,0.2,0,0.4,0.1,0.6C35.9,31,36,31,36,31l-0.1,0.3c-0.1,0-0.1,0-0.2,0
			c0.5,0,0.8,0.3,1.1,0.8l0.1,0.2h-0.3c-0.4,0-0.6,0.1-0.7,0.3c0,0.1,0,0.2,0.2,0.3L36,33.1c-0.1,0-0.2,0-0.3,0.1
			c0.1,0.1,0.2,0.1,0.4,0L36.6,33.3z M39.2,33.2L39.2,33.2L39.2,33.2z"/>
		<path d="M55.1,59.7h-8.9v-0.1c-0.1-0.2,0-0.5,0.2-0.7l0,0c0.9-0.3,1.7-0.3,2.2-0.2c0.2,0,0.4,0,0.4,0c0.1-0.2,0.2-0.3,0.2-0.4
			c0.1-0.2,0.2-0.3,0.2-0.6V44.1c0-0.3,0.2-0.5,0.5-0.5s0.5,0.2,0.5,0.5v13.5c0.1,0.2,0.1,0.5,0.1,0.6c0,0.3,0,0.3,0.2,0.3h0.1
			c1.4,0.1,2.9,0.2,4.1,0.6l0,0l0,0c0.1,0.1,0.1,0.2,0.1,0.3C55.2,59.4,55.2,59.5,55.1,59.7L55.1,59.7z M46.3,59.4h8.6
			c0,0,0,0,0-0.1l0,0c-1.2-0.4-2.7-0.5-4-0.5h-0.1c-0.5,0-0.5-0.3-0.5-0.6c0-0.1,0-0.3-0.1-0.5l0,0V44.1c0-0.1-0.1-0.2-0.3-0.2
			c-0.1,0-0.2,0.1-0.2,0.2v13.5c0,0.4-0.1,0.6-0.3,0.8c-0.1,0.1-0.2,0.2-0.2,0.4S49,59,48.5,59s-1.3,0-2.1,0.2
			C46.4,59.2,46.3,59.3,46.3,59.4z M65.6,48.7H56v-0.1c-0.1-0.2,0-0.6,0.2-0.8l0,0c1-0.3,1.8-0.3,2.4-0.3c0.2,0,0.4,0,0.5,0
			c0.1-0.2,0.2-0.3,0.3-0.4c0.1-0.2,0.2-0.3,0.2-0.7V31.5c0-0.3,0.2-0.5,0.5-0.5s0.6,0.2,0.6,0.5c0,4.9,0,9.9,0,14.9
			c0.1,0.3,0.1,0.5,0.1,0.7c0,0.3,0,0.3,0.2,0.3h0.1c1.5,0.1,3.1,0.2,4.5,0.6l0,0c0.1,0.1,0.1,0.1,0.2,0.2
			C65.8,48.4,65.8,48.5,65.6,48.7L65.6,48.7z M56.2,48.4h9.3c0-0.1,0-0.1,0-0.1s0,0,0-0.1c-1.3-0.4-2.9-0.5-4.4-0.6H61
			c-0.5,0-0.5-0.3-0.5-0.6c0-0.2,0-0.4-0.1-0.6l0,0c0-5,0-10,0-14.9c0-0.1-0.2-0.2-0.3-0.2s-0.2,0.1-0.2,0.2v14.9
			c0,0.5-0.2,0.7-0.3,0.9c-0.1,0.1-0.2,0.2-0.2,0.4l0,0l0,0c-0.1,0.2-0.3,0.2-0.7,0.2c-0.5,0-1.4,0-2.3,0.2
			C56.2,48.2,56.2,48.3,56.2,48.4z M44.9,48.7h-9.6l0,0c-0.1-0.1-0.1-0.2-0.1-0.4c0-0.1,0.1-0.2,0.2-0.2l0,0c1.4-0.4,3-0.5,4.5-0.6
			H40c0.2,0,0.2,0,0.2-0.3c0-0.2,0-0.4,0.1-0.7c0-5,0-10,0-14.9c0-0.3,0.2-0.5,0.5-0.5s0.5,0.2,0.5,0.5v14.9c0,0.4,0.1,0.5,0.2,0.7
			c0.1,0.1,0.2,0.2,0.3,0.4c0.1,0,0.3,0,0.5,0c0.6,0,1.4,0,2.4,0.3l0,0C45,48,45.1,48.4,44.9,48.7L44.9,48.7z M35.5,48.4h9.3
			c0-0.1,0-0.3-0.1-0.3c-0.9-0.3-1.7-0.3-2.3-0.2c-0.5,0-0.7,0-0.7-0.2l0,0c-0.1-0.2-0.1-0.3-0.2-0.4c-0.1-0.2-0.3-0.4-0.3-0.9V31.5
			c0-0.2-0.1-0.2-0.2-0.2c-0.1,0-0.2,0.1-0.2,0.2c0,4.9,0,9.9,0,14.9l0,0c-0.1,0.2-0.1,0.4-0.1,0.6c0,0.3,0,0.6-0.5,0.6h-0.1
			c-1.5,0.1-3.1,0.2-4.4,0.6c0,0,0,0,0,0.1C35.5,48.3,35.5,48.4,35.5,48.4z"/>
		<path d="M53.4,59.1L53.4,59.1c-0.8,0-1.7-0.1-2.5-0.4l-0.2-0.1l0.2-0.1c0.2-0.1,0.2-0.3,0.2-0.5c0-0.7-0.3-1.8-0.7-2.2
			c-0.2-0.2-0.4-0.4-0.6-0.7c-0.4-0.4-0.9-0.9-1.3-1.3c-0.5-0.5-0.7-0.8-0.8-1.4c-0.2-0.9,0.2-1.6,0.6-2.3c0.5-0.7,1.2-1.1,2-1.5
			c0.3-0.1,0.5-0.3,0.7-0.4c0.2-0.1,0.4-0.6,0.4-1c0-0.6-0.6-1.3-0.9-1.3c-0.2,0-0.4,0-0.7,0c-0.4,0-0.8,0-1.1-0.1
			c-0.1,0-0.2-0.2-0.2-0.2l0,0l0,0c-0.2,0-0.3,0.1-0.4,0.3L48,45.6l0,0c-0.1,0-0.2-0.1-0.4,0l-0.4,0.1l0.2-0.3
			c0.3-0.4,0.7-0.6,1.2-0.7c0-0.1-0.2-0.3-0.4-0.5l0.1-0.2c0.1,0,0.1,0,0.1,0s0,0,0-0.1l0.3-0.1c0.2,0.3,0.3,0.5,0.7,0.5
			c0.6,0,1.5,0.4,1.9,0.8c0.5,0.4,1,1.3,1.2,2c0.1,0.5,0,0.9-0.3,1.1c-0.4,0.3-0.8,0.6-1.1,0.8c-0.2,0.1-0.4,0.3-0.6,0.4
			c-0.6,0.4-1.2,0.9-1.5,1.6c-0.2,0.5-0.1,1.1,0.1,1.4c0.3,0.6,0.8,1,1.3,1.6c0.3,0.3,0.5,0.5,0.8,0.8c0,0,0.1,0,0.2,0
			c0.2,0,0.4,0,0.5,0.2c0.2,0.6,0.2,1.2,0.2,1.7c0,0.4,0,0.8,0.1,1.3c0.1,0.4,0.5,0.5,0.9,0.6c0.2,0,0.3,0.1,0.4,0.1L53.4,59.1z
			 M51.3,58.5c0.3,0.1,0.7,0.2,1.1,0.3c-0.2-0.1-0.4-0.3-0.5-0.6c-0.1-0.5-0.1-0.9-0.1-1.4c0-0.6,0-1.1-0.2-1.7c0,0-0.1-0.1-0.2-0.1
			c-0.1,0-0.3,0-0.4-0.1c-0.2-0.3-0.5-0.5-0.8-0.8c-0.5-0.5-1-1-1.4-1.6c-0.3-0.6-0.3-1.2-0.1-1.7c0.4-0.8,1.1-1.3,1.6-1.7
			c0.2-0.1,0.4-0.3,0.7-0.4c0.4-0.2,0.8-0.5,1.1-0.8c0.2-0.2,0.2-0.5,0.2-0.9c-0.1-0.6-0.6-1.4-1.1-1.8c-0.3-0.3-1.2-0.7-1.7-0.7
			c-0.3,0-0.5-0.1-0.7-0.2c0.1,0.1,0.1,0.3,0.1,0.4v0.1h-0.1c-0.4,0.1-0.7,0.2-0.9,0.4c0.1,0,0.2,0,0.2,0.1c0.1-0.2,0.3-0.3,0.5-0.2
			l0,0c0.2,0,0.2,0.2,0.3,0.2l0,0c0.2,0.1,0.6,0.1,1,0.1c0.3,0,0.6,0,0.8,0c0.4,0.1,1.1,0.9,1.1,1.6c0,0.5-0.3,1.1-0.6,1.3
			c-0.2,0.2-0.5,0.3-0.8,0.5c-0.7,0.4-1.5,0.8-1.9,1.5c-0.4,0.6-0.7,1.2-0.5,2.1c0.1,0.5,0.3,0.8,0.7,1.3c0.4,0.4,0.8,0.9,1.3,1.3
			c0.2,0.2,0.4,0.4,0.6,0.7c0.4,0.4,0.7,1.6,0.7,2.4C51.4,58.2,51.4,58.3,51.3,58.5z M48.6,45.4L48.6,45.4L48.6,45.4z M63.9,48
			L63.9,48c-0.9,0-1.9-0.1-2.7-0.5L61,47.4l0.2-0.1c0.2-0.2,0.3-0.3,0.3-0.6c0-0.8-0.4-2.1-0.7-2.4c-0.7-0.7-1.5-1.5-2.1-2.2
			c-0.5-0.5-0.8-0.9-0.9-1.5c-0.2-1,0.2-1.8,0.7-2.5c0.5-0.8,1.3-1.2,2.1-1.7c0.3-0.2,0.5-0.3,0.8-0.5c0.2-0.1,0.5-0.7,0.5-1.1
			c0-0.7-0.7-1.5-1-1.5c-0.2,0-0.6,0-0.9,0c-0.4,0-0.8,0-1.1-0.1c-0.1,0-0.2-0.2-0.2-0.2l0,0l0,0c-0.1,0-0.2,0-0.4,0.3L58,33.1l0,0
			c-0.1-0.1-0.2-0.1-0.4,0l-0.3,0.1l0.2-0.3c0.4-0.5,0.8-0.7,1.3-0.8c0-0.2-0.2-0.4-0.4-0.5l0.1-0.2c0.1,0.1,0.2,0,0.2,0s0,0,0-0.1
			v-0.5l0.2,0.4c0.2,0.3,0.3,0.5,0.7,0.5c0.7,0,1.6,0.5,2,0.8c0.6,0.5,1.1,1.5,1.2,2.2c0.1,0.5,0,1-0.3,1.2
			c-0.4,0.4-0.9,0.7-1.3,0.9c-0.2,0.1-0.4,0.3-0.6,0.4c-0.6,0.5-1.3,1-1.7,1.7c-0.3,0.5-0.1,1.2,0.1,1.6c0.3,0.6,0.9,1.2,1.4,1.8
			c0.3,0.3,0.5,0.6,0.8,0.9c0,0,0.1,0.1,0.3,0.1s0.4,0,0.5,0.2c0.2,0.7,0.2,1.3,0.2,1.9c0,0.5,0,0.9,0.1,1.4s0.6,0.6,1,0.7
			c0.2,0,0.3,0.1,0.4,0.1L63.9,48z M61.5,47.4c0.4,0.1,0.8,0.2,1.3,0.3c-0.3-0.1-0.5-0.3-0.6-0.7c-0.1-0.5-0.1-1-0.1-1.5
			c0-0.6,0-1.2-0.2-1.9c0,0-0.1-0.1-0.2-0.1c-0.2,0-0.3,0-0.4-0.1c-0.3-0.3-0.5-0.6-0.8-0.8c-0.6-0.6-1.1-1.2-1.5-1.8
			c-0.3-0.5-0.4-1.2-0.1-1.9c0.4-0.8,1.1-1.4,1.7-1.8c0.2-0.1,0.4-0.3,0.6-0.4c0.4-0.3,0.9-0.6,1.3-0.9c0.2-0.2,0.3-0.5,0.2-0.9
			c-0.2-0.7-0.7-1.6-1.2-2.1c-0.3-0.3-1.3-0.8-1.8-0.8c-0.4,0-0.6-0.2-0.8-0.4l0,0l0,0c0.2,0.2,0.3,0.4,0.3,0.6v0.1h-0.1
			c-0.4,0.1-0.8,0.2-1,0.5c0.1,0,0.2,0,0.3,0.1c0.1-0.2,0.3-0.3,0.5-0.3l0,0c0.2,0,0.3,0.2,0.3,0.2l0,0c0.2,0.1,0.6,0.1,1,0.1
			s0.7,0,0.9,0.1c0.4,0.1,1.2,0.9,1.2,1.7c0,0.5-0.3,1.2-0.6,1.4c-0.2,0.2-0.5,0.3-0.8,0.5c-0.8,0.4-1.6,0.9-2,1.6
			c-0.4,0.6-0.8,1.4-0.6,2.3c0.1,0.6,0.3,0.9,0.8,1.4c0.6,0.7,1.4,1.5,2.1,2.2c0.4,0.5,0.8,1.8,0.8,2.6C61.7,47,61.6,47.2,61.5,47.4
			z M37.1,48L37,47.7c0.1-0.1,0.3-0.1,0.4-0.1c0.4-0.1,1-0.2,1-0.7c0.1-0.5,0.1-1,0.1-1.4c0-0.6,0-1.3,0.2-1.9
			c0.1-0.2,0.3-0.2,0.5-0.3c0.1,0,0.2,0,0.3-0.1c0.3-0.3,0.5-0.6,0.8-0.9c0.6-0.6,1.1-1.1,1.4-1.8c0.2-0.4,0.4-1.1,0.1-1.6
			c-0.4-0.7-1-1.3-1.7-1.7c-0.2-0.1-0.4-0.3-0.6-0.4c-0.4-0.3-0.9-0.6-1.3-1c-0.3-0.2-0.4-0.7-0.3-1.2c0.2-0.8,0.7-1.7,1.2-2.2
			c0.4-0.3,1.4-0.8,2-0.8c0.4,0,0.5-0.2,0.7-0.5l0.2-0.4v0.5c0,0.1,0,0.1,0,0.1s0,0,0.1,0l0.1,0.2c-0.2,0.1-0.4,0.4-0.4,0.5
			c0.4,0.1,0.9,0.3,1.3,0.8l0.2,0.3L43,33c-0.2,0-0.4,0-0.4,0l0,0l-0.3,0.1c-0.1-0.2-0.2-0.3-0.3-0.3h-0.1l0,0c0,0.1,0,0.2-0.2,0.2
			c-0.3,0.1-0.7,0.1-1.1,0.1c-0.3,0-0.7,0-0.9,0c-0.3,0-1,0.8-1,1.5c0,0.4,0.3,1,0.5,1.1c0.2,0.2,0.5,0.3,0.8,0.5
			c0.8,0.5,1.7,0.9,2.1,1.7c0.4,0.7,0.8,1.5,0.6,2.5c-0.1,0.6-0.4,1-0.8,1.5c-0.6,0.7-1.4,1.5-2.1,2.2c-0.4,0.4-0.7,1.6-0.7,2.4
			c0,0.3,0.1,0.4,0.3,0.6l0.2,0.1l-0.2,0.1C39,47.9,38,47.9,37.1,48L37.1,48z M42.2,31.6C42,31.8,41.8,32,41.4,32
			c-0.6,0-1.5,0.5-1.9,0.8c-0.5,0.5-1,1.4-1.2,2.1c-0.1,0.4,0,0.8,0.2,0.9c0.4,0.4,0.8,0.6,1.3,0.9c0.2,0.1,0.4,0.3,0.6,0.4
			c0.7,0.5,1.4,1,1.7,1.8c0.3,0.6,0.1,1.4-0.1,1.9c-0.3,0.7-0.9,1.2-1.5,1.8c-0.3,0.3-0.5,0.6-0.8,0.8c-0.1,0.1-0.3,0.1-0.4,0.1
			c-0.2,0-0.2,0-0.2,0.1c-0.2,0.6-0.2,1.2-0.2,1.8c0,0.5,0,1-0.1,1.5c-0.1,0.3-0.3,0.6-0.6,0.7c0.4-0.1,0.9-0.1,1.3-0.3
			c-0.1-0.2-0.2-0.4-0.2-0.7c0-0.8,0.3-2.2,0.8-2.6c0.7-0.7,1.5-1.5,2.1-2.2c0.5-0.5,0.7-0.8,0.8-1.4c0.2-0.8-0.1-1.5-0.6-2.3
			c-0.4-0.7-1.3-1.2-2-1.6c-0.3-0.2-0.5-0.3-0.8-0.5S39,35.1,39,34.6c0-0.8,0.7-1.7,1.2-1.7c0.2,0,0.6,0,0.9-0.1c0.4,0,0.7,0,1-0.1
			l0,0c0-0.1,0.1-0.2,0.3-0.2s0.3,0.1,0.5,0.3c0.1-0.1,0.2-0.1,0.3-0.1c-0.3-0.3-0.6-0.4-1-0.5h-0.1v-0.1C42,32,42.1,31.7,42.2,31.6
			L42.2,31.6z"/>
		<path id="path8" inkscape:connector-curvature="0" sodipodi:nodetypes="ssccs" d="M43.9,22c0,0.1,0.3,0.2,0.9,0.2
			c0.5,0,1.2,0.1,1.5,0.1c0.5,0.1,0.6-0.1,0.4-0.2C46.5,21.9,43.9,21.8,43.9,22z"/>
		<path id="path2325" inkscape:connector-curvature="0" sodipodi:nodetypes="cccssccc" d="M55.7,22l-0.6,0.3l1.4,0.1
			c0.7,0,1.4-0.1,1.4-0.2S57.6,22,57.4,22c-0.3,0-0.6-0.1-0.8-0.1C56.4,21.8,56.1,21.9,55.7,22L55.7,22z"/>
		
			<path id="path6" inkscape:connector-curvature="0" sodipodi:nodetypes="cccccscccsccccccscccccsccccccccccccsccccccsccccccccscccccsccccsccssscccssccssscsccscscsssccscssscccscccsssccssccccccccccccccccsccccsccscccccccccsccccscccccccc" d="
			M50.4,16.6c-0.2,0.3-0.4,0.6-0.6,0.8c-0.1,0.2-0.3,0.4-0.3,0.6s0,0.2-0.2-0.1c-0.3-0.7-0.5-0.8-0.9-0.6c-0.2,0.1-0.6,0.3-0.9,0.3
			c-0.3,0-0.6,0.2-0.7,0.3c-0.1,0.1-0.5,0.2-0.9,0.3c-0.9,0.1-1.3,0.3-2.4,1.3c-0.2,0.2-0.5,0.4-0.6,0.4c-0.3,0-0.3,0.1,0.1,0.5
			c0.2,0.2,0.4,0.3,0.6,0.3c0.1,0,0.3,0,0.3,0.1s0.3,0.1,0.5,0.2c0.3,0,0.3,0-0.2,0.2c-0.4,0.1-0.8,0.4-1.2,0.8
			c-0.7,0.7-0.7,0.9-0.3,0.9c0.1,0,0.3,0.1,0.4,0.2c0.1,0.1,0.5,0.2,0.9,0.2c0.7,0,0.8,0.1,0.8,0.3c0.1,0.4,0.2,0.4,1.2,0
			s1.6-0.9,2.2-1.7c0.4-0.6,0.4-0.9,0-0.9c-0.3,0-0.4-0.7-0.3-1c0.2-0.4,0.9-0.4,1.3,0c0.3,0.3,0.4,0.3,0.9,0.1
			c0.5-0.2,0.6-0.2,1.1,0.1c0.5,0.3,0.5,0.3,0.9-0.1s0.9-0.5,1.2-0.2c0.2,0.2,0.2,1,0,1.1c-0.3,0.1-0.3,0.4,0,1s0.8,1,1.9,1.6
			c1.1,0.5,1.2,0.5,1.3,0.1c0.1-0.3,0.2-0.3,0.9-0.3c0.4,0,0.8-0.1,0.9-0.2c0.1-0.1,0.3-0.2,0.4-0.2c0.4,0,0.3-0.2-0.3-0.9
			c-0.4-0.4-0.8-0.7-1.2-0.8c-0.5-0.1-0.5-0.2-0.2-0.2c0.2,0,0.4-0.1,0.5-0.2s0.2-0.1,0.3-0.1c0.2,0,0.4-0.1,0.6-0.3
			c0.4-0.4,0.4-0.5,0.1-0.5c-0.1,0-0.4-0.2-0.6-0.4c-1-0.9-1.6-1.2-2.7-1.3c-0.1,0-0.2-0.2-0.2-0.3c-0.1-0.3-0.2-0.3-0.6-0.2
			c-0.3,0.1-0.6,0.1-0.8,0.1s-0.5,0.2-0.8,0.4c-0.5,0.3-0.7,0.3-0.7-0.2c0-0.1-0.2-0.5-0.5-0.8s-0.5-0.6-0.5-0.7
			C51.1,15.9,50.7,16.1,50.4,16.6L50.4,16.6z M51.3,17.2c0.3,0.3,0.6,0.6,0.6,0.8c0.2,0.7,0.4,0.8,1.1,0.4c0.4-0.2,0.7-0.3,0.9-0.3
			s0.4-0.1,0.5-0.2c0.3-0.3,0.3-0.1,0,0.6c-0.3,1.1,0,0.3-0.8-0.2c0,0-0.3,0.7-0.2,0.5s0.2-0.4,0.2-0.4c-0.1-0.1-1.4,0.8-1.7,1.1
			c-0.2,0.2-0.1,0.2-0.5,0S51,19.3,51,18.2c0-0.7-0.1-1.2-0.2-1.2c-0.1,0-0.2,0.5-0.2,1.2c0,1.1,0,1.1-0.4,1.2
			c-0.5,0.2-0.7,0.2-0.6,0c0.1-0.2-1.1-1.5-1.3-1.3c0,0.1,0,0.4,0.2,0.6s0.2,0.3,0.2,0.4c0,0-0.2,0-0.5,0c-0.5,0-0.6,0.1-0.9-0.3
			c-0.2-0.2-0.3-0.4-0.3-0.5c0-0.2,0.5-0.5,0.8-0.5c0.2,0,0.3-0.1,0.3-0.1c0-0.1,0.1-0.2,0.2-0.2c0.3-0.1,0.6,0.3,0.6,0.7
			c0,0.2,0.1,0.2,0.2,0.3c0.2,0.1,0.3,0.2,0.4-0.2c0.1-0.2,0.2-0.4,0.2-0.5c0,0,0.2-0.2,0.4-0.5c0.2-0.2,0.5-0.5,0.5-0.6
			C50.8,16.6,50.8,16.7,51.3,17.2L51.3,17.2z M46.8,18.6c0,0.4-0.4,0.6-1.1,0.6c-0.5,0-1.2,0.3-1.2,0.5c0,0.1,0.1,0.1,0.3,0.1
			c0.1-0.1,0.4-0.1,0.7-0.2s0.4-0.1,0.4,0.3c0,0.2-0.1,0.4-0.1,0.6c-0.1,0.2-0.6,0.3-0.6,0.1c0-0.1-0.2-0.1-0.4-0.1
			s-0.4-0.1-0.4-0.2s-0.2-0.1-0.4-0.1c-0.5,0.1-0.5-0.1-0.1-0.5c0.7-0.7,1.4-1.1,2-1.2C46.8,18.3,46.8,18.2,46.8,18.6L46.8,18.6z
			 M56,18.6c0.7,0.1,2.2,1.2,2.1,1.5c-0.1,0.1-0.1,0.1-0.3,0s-0.4,0-0.4,0.1s-0.2,0.2-0.4,0.2s-0.5,0-0.5,0.1c0,0.3-0.4,0.2-0.5-0.1
			c-0.1-0.3,0.4-0.5,0.7-0.6c0.5,0,0.9-0.1,0.9-0.1c0-0.2-0.4-0.3-1.2-0.3c-0.4,0-0.9-0.1-1.1-0.2C55.1,19,55,19,54.9,18.9
			c0,0,0-0.1,0-0.3c0.1-0.2,0.1-0.3,0.3-0.2C55.4,18.4,55.8,18.5,56,18.6L56,18.6z M47.4,19.4c0.5,0.4,0.3,0.7-0.4,0.7l-0.7,0.1
			l0.6,0.2c0.3,0.1,0.8,0.2,1,0.4l0.4,0.3l-0.5,0.2c-0.6,0.3-0.6,0.2-1.3-0.1c-0.3-0.1-0.5-0.2-0.4-0.3c0-0.1,0-0.2-0.1-0.3
			c-0.2-0.2-0.1-0.8,0.4-1.2c0.2-0.2,0.5-0.4,0.5-0.4S47.3,19.3,47.4,19.4L47.4,19.4z M55,19.6c0.3,0.3,0.5,0.7,0.4,1.4
			c0,0.3-0.6,0.5-1.1,0.5c-0.4,0-1-0.4-0.8-0.6c0-0.1,0.4-0.3,0.8-0.5c0.4-0.3,0.6-0.6,0.4-0.6c-0.1,0-0.4,0.1-0.6,0.2
			c-0.4,0.3-0.3,0.1,0.1-0.3C54.7,19.3,54.6,19.2,55,19.6L55,19.6z M45.8,21.6c0.1,0.1,0.5,0.3,1,0.4c0.8,0.1,0.8,0,0.6,0.3
			c-0.1,0.2-0.7,0.4-1.1,0.6c-0.8,0.4-0.8,0.5-0.9,0.2c-0.1-0.4-0.3-0.5-0.9-0.4c-0.5,0.1-1.4-0.1-1.4-0.4c0-0.2,0.8-0.9,1.1-1
			C44.7,21.2,45.6,21.4,45.8,21.6L45.8,21.6z M58,21.8c0.2,0.3,0.4,0.4,0.4,0.5c0,0.2-0.8,0.4-1.4,0.3c-0.5-0.1-0.8,0-0.8,0.4
			c0,0.1-0.1,0.1-0.2,0.1c-0.4-0.1-1.5-0.7-1.8-1C54,21.9,54,22,54.7,21.9c0.5,0,0.9-0.2,0.9-0.3c0.2-0.3,0.7-0.4,1.4-0.3
			C57.5,21.4,57.7,21.5,58,21.8z"/>
	</g>
	<path fill="#961E1D" d="M49.1,58.7c0.1-0.5,0.5-0.5,0.5-1.1l0,0V44.1l0,0c0-0.2,0.2-0.3,0.4-0.3l0,0l0,0c0.2,0,0.4,0.1,0.4,0.3
		c0,4.5,0,9,0,13.5c0.2,0.6-0.1,1,0.4,1c1.4,0.1,2.9,0.2,4.2,0.6c0.1,0.1,0.1,0.2,0,0.4l0,0h-8.8l0,0c-0.1-0.2,0-0.4,0.2-0.5
		C47.8,58.6,49.1,58.9,49.1,58.7L49.1,58.7L49.1,58.7z M59.2,47.6c0.2-0.5,0.5-0.5,0.5-1.2l0,0V31.5l0,0c0-0.2,0.2-0.4,0.4-0.4l0,0
		l0,0c0.2,0,0.4,0.2,0.4,0.4c0,5,0,9.9,0,14.9c0.2,0.7-0.2,1.1,0.4,1.1c1.5,0.1,3.2,0.2,4.5,0.6c0.2,0.1,0.1,0.3,0,0.4l0,0h-9.5l0,0
		c-0.1-0.2,0-0.5,0.2-0.6C57.8,47.5,59.2,47.8,59.2,47.6L59.2,47.6L59.2,47.6z M41.7,47.6c-0.2-0.5-0.5-0.5-0.5-1.2l0,0V31.5l0,0
		c0-0.2-0.2-0.4-0.4-0.4l0,0l0,0c-0.2,0-0.4,0.2-0.4,0.4c0,5,0,9.9,0,14.9c-0.2,0.7,0.1,1.1-0.4,1.1c-1.5,0.1-3.2,0.2-4.5,0.6
		c-0.2,0.1-0.1,0.3,0,0.4l0,0h9.4l0,0c0.1-0.2,0-0.5-0.2-0.6C43.1,47.5,41.8,47.8,41.7,47.6L41.7,47.6L41.7,47.6z"/>
</g>
<g>
	<path opacity="0.2" enable-background="new    " d="M10.4,74.3V25.8c0-12.1,8.2-22.7,19.8-25.8H0v100h30.2
		C18.5,96.9,10.4,86.3,10.4,74.3z"/>
	<path opacity="0.1" fill="#FFFFFF" enable-background="new    " d="M89.6,25.8v48.5c0,12.1-8.2,22.7-19.8,25.8H100V0H69.8
		C81.5,3.1,89.6,13.7,89.6,25.8z"/>
</g>
</svg>
