<?xml version="1.0" encoding="utf-8"?>
<!-- Generator: Adobe Illustrator 23.0.0, SVG Export Plug-In . SVG Version: 6.00 Build 0)  -->
<svg version="1.0" id="Layer_1" xmlns="http://www.w3.org/2000/svg" xmlns:xlink="http://www.w3.org/1999/xlink" x="0px" y="0px"
	 viewBox="0 0 100 100" enable-background="new 0 0 100 100" xml:space="preserve">
<rect fill="#FFFFFF" width="100" height="100"/>
<rect y="86.2" fill="#B71234" width="100" height="13.8"/>
<polygon fill="#B71234" points="12.6,19 13.9,23.2 18.4,23.2 14.8,25.8 16.2,30.1 12.6,27.5 9,30.1 10.3,25.8 6.7,23.2 11.2,23.2 
	"/>
<g>
	<path fill="#584528" d="M87.4,59.6c0-0.1,0-0.2-0.1-0.2c-0.1-0.1-0.3-0.1-0.4-0.2c-0.1,0-0.2-0.1-0.2-0.1L86.6,59l-0.1-0.1
		c-0.1-0.1-0.2-0.2-0.3-0.3c0,0-0.1-0.1-0.2-0.1s-0.2,0-0.3-0.1c0,0,0,0-0.1,0c0,0,0,0-0.1,0c0-0.1-0.1-0.2-0.1-0.2s0,0-0.1,0
		c0-0.1-0.1-0.1-0.1-0.2c-0.1,0-0.2,0-0.3,0c0,0-0.1,0-0.2,0c0,0-0.1,0-0.1-0.1c0,0,0-0.1-0.1-0.1c0-0.1,0-0.2-0.1-0.2
		s-0.1-0.1-0.2,0c-0.1,0-0.2,0-0.2,0.1c0,0-0.1,0-0.2,0h-0.2c-0.1-0.1-0.2-0.2-0.2-0.3c0,0-0.1,0-0.1-0.1c-0.1-0.1-0.1-0.1-0.1-0.1
		c-0.1-0.1-0.2-0.1-0.2-0.3h-0.2c0,0-0.1,0.1-0.2,0c0,0,0,0,0-0.1c0,0,0-0.1-0.1-0.1h-0.1c-0.1,0-0.2,0-0.2,0s-0.1,0-0.1,0.1
		L82,56.9h-0.1l-0.1-0.1c0,0,0,0-0.1,0s-0.1,0-0.1,0v-0.1c0-0.1,0-0.2,0-0.2l-0.1,0.1c-0.1-0.1-0.2-0.2-0.2-0.4c0,0,0,0,0-0.1h-0.1
		c-0.1,0.1-0.1,0.1-0.2,0.2c0,0-0.1,0.1-0.1,0c0,0,0,0,0-0.1s0-0.1,0-0.1s0,0-0.1,0c-0.1,0.1-0.2,0.3-0.3,0.2c0-0.1,0-0.2,0.1-0.3
		v-0.1v-0.1c0-0.1-0.1-0.2-0.1-0.2c-0.1,0-0.2,0.1-0.2,0.1s0,0.1-0.1,0.1h-0.1c0,0-0.1-0.1-0.1,0c0,0-0.1,0.1-0.2,0.1
		c0,0.1,0,0.1-0.1,0.1l-0.1,0.1L79.5,56v-0.1v-0.1c0-0.1,0-0.1-0.1-0.2c0,0-0.1-0.1-0.1-0.2v-0.1c0-0.1,0-0.2-0.2-0.3
		c0,0-0.1,0.1-0.1,0.2l-0.1,0.1c-0.1,0.1-0.1,0-0.2-0.1c0-0.1-0.1-0.1-0.1-0.2c0,0-0.1,0-0.1,0.1c0,0,0,0.1,0,0.2c0,0.1,0,0.1,0,0.2
		c0,0.1,0,0.3-0.1,0.4l-0.2-0.1v-0.1c-0.1-0.1-0.1-0.2-0.2-0.2s-0.1,0-0.1-0.1s0-0.1,0-0.2c0-0.1,0-0.1,0-0.2v-0.1
		c-0.1,0-0.1,0.1-0.2,0.1c-0.1,0.1-0.1,0.1-0.2,0.1H77v0c-0.1-0.1-0.2-0.1-0.2,0.1c-0.1,0.1-0.1,0.2-0.2,0.1l0,0h-0.1h-0.1h-0.1
		c0,0,0,0-0.1,0c0,0-1.4-0.1-3-0.2l-3-0.2l0,0c0-0.1-0.1-0.1-0.1,0c0,0,0,0-0.1,0c0,0-0.1,0-0.1-0.1l-0.2-0.1h-0.2l0,0l0,0l-0.1-0.1
		l-0.2,0.1l-0.1,0.1H69l0-0.1l-0.1-0.1l-0.1,0.1h-0.2l-0.1-0.2h-0.2v0.1l-0.1,0.1h-0.1L68,54.5l-0.2,0.1l-0.2-0.1l-0.1-0.2h-0.1
		h-0.1l-0.1-0.1L67,54.1l-0.2,0.2h-0.1h-0.1l-0.1,0.1l-0.1,0.3h-0.5v-0.3v-0.1l-0.1,0.1h-0.1h-0.4l-0.1-0.1l-0.1-0.1L65,54.1
		l-0.2,0.3h-0.1h-0.1l-0.1-0.1l0.1-0.3l-0.1,0.1l-0.1,0.2l-0.1,0.1h-0.1v-0.1v-0.1V54h-0.1l-0.2,0.1l-0.3,0.2v-0.1L63.3,54l-0.1,0.1
		l-0.1,0.2L63,54.1L62.9,54h-0.1h-0.1l-0.3,0.3l-0.3,0.1H62c0,0-3.8,0.5-6,0.5s-1.9-0.4-2-0.4s0,0,0-0.1s0-0.1,0-0.1s0-0.1-0.1-0.1
		l0,0l0,0c-0.1,0-0.1,0-0.2,0c-0.4-0.1-0.6,0.2-0.8,0.3h-0.1c0,0,0,0.1-0.1,0.1c0,0,0,0-0.1,0.1c0,0-1,0-4.4-0.2h-0.4l0,0
		c-0.2,0.1-0.3-0.2-0.5-0.2c-0.2,0.1-0.3-0.1-0.3-0.2c-0.1,0-0.3,0.2-0.5,0.2c-0.2-0.2-0.4,0.1-0.7,0.1c-0.1,0-0.2-0.3-0.2-0.2
		c-0.2,0.2-0.1-0.3-0.3-0.3c0,0.1-0.2,0.2-0.2,0c0-0.1-0.1-0.1-0.1-0.1c-0.1,0-0.1,0.2-0.2,0.2c-0.2,0.2-0.5-0.1-0.5,0.2
		c-0.1,0.2-0.3,0.2-0.5,0.2c0-0.4-0.3-0.1-0.5,0c-0.2,0.2-0.4,0-0.6,0c-0.1,0-0.3,0-0.3-0.2c0.1-0.1,0-0.4-0.1-0.2
		c-0.1,0,0,0.1-0.2,0.1c-0.2,0.2,0-0.3-0.3-0.2c-0.1,0.3-0.4,0.3-0.7,0.3c-0.2,0-0.4,0.1-0.6,0.1l0,0h-1l-1.1,0.2
		c-0.6,0.1-1.2,0.3-1.2,0.3c-0.1,0-0.2,0-0.3,0.1c-0.1,0-7.6,1.7-7.6,1.7L29,56.5h-0.1h-0.1l-0.3-0.1l-0.2-0.1l-0.1-0.1h-0.1
		l-0.2,0.1h-0.1h-0.2l-0.3,0.1h-0.1H27l-0.1,0.1h-0.1v-0.1v-0.2h-0.1l0.3-0.1l-0.2,0.2h-0.1l-0.1-0.1l-0.1-0.1h-0.1l0,0L26,56.5l0,0
		h-0.1h-0.1h-0.1l-0.1,0.1l-0.1,0.2l-0.1,0.1l-0.4,0h-0.1l-0.1-0.1l-0.3,0.1L24.4,57h-0.1l-0.2-0.2L24,56.7h-0.1h-0.1l-0.1,0.1h-0.2
		v0.1V57l0.1,0.2l-0.1,0.1l-0.2,0.1v0.1l-0.1,0.1h-0.1h-0.2h-0.2h-0.1l-0.3,0.1h-0.2H22l-0.1,0.1h-0.2l-0.1-0.1l-0.2-0.2l-0.1,0.1
		L21,57.9h-0.2v-0.2l-0.1-0.1l-0.1,0.1l-0.1,0.1h-0.1v-0.1v-0.1h-0.1l-0.1,0.1l-0.1,0.2H20l-0.1-0.1l-0.1-0.2v-0.1h-0.1v0.1v0.1v0.1
		V58l-0.1,0.1h-0.1L19.4,58l-0.1-0.2h-0.1V58l0,0l-0.4,0.4h-0.3l-0.1-0.3h-0.1v0.1l-0.1,0.3h-0.1h-0.2l-0.1,0.1h-0.1v-0.1l-0.1-0.1
		l-0.1,0.1l-0.1,0.2l-0.3,0.2h-0.3l-0.6,0.4H16h0l-0.4,0.2l-0.2,0.1l-0.3,0.1h-0.2h-0.1h-0.2l-0.3,0.1l-0.5,0.1h-0.1
		c-0.2,0.1-0.4,0.2-0.6,0.3c-0.1,0-0.2,0-0.3,0.1c-0.1,0-0.1,0-0.1,0.1s-0.1,0.1-0.1,0.2c0.1,0.1,0.5,0.1,0.8,0.1c0.1,0,0.2,0,0.3,0
		c1.1,0,1.9-0.1,2.9,0.1c0.2,0,0.3,0.1,0.5,0c0.4,0,0.8,0,1.2,0c0.1,0,0.2,0,0.3,0h0.6c0.3,0,0.5,0,0.8,0c0.4,0.2,0.8,0.1,1.2,0.2
		c0,0,0.2,0,0.7,0c0.1,0,0.2,0,0.3,0c1.4-0.1,2.7-0.2,4.1-0.3c0.2,0,0.5-0.1,0.7-0.1h0.6c0.1,0,0.2,0,0.4,0c0.3,0,0.5,0,0.8,0
		c1.4,0.1,2.6,0.1,4,0.2c0.1,0,0.2,0,0.4,0c1.2,0,2.2,0.1,3.3,0.1c0.2,0,0.5,0,0.7,0c0.3,0,0.5,0,0.8,0.1h0.1
		c0.8,0.1,1.7,0.1,2.5,0.2c0.1,0,0.3,0,0.4,0c0.1,0,0.3,0,0.4,0c0.2,0,0.3-0.1,0.4,0c0.1,0,0.2,0,0.3,0c0.3-0.1,0.7,0,1,0s0.7,0,1,0
		c0.2,0,0.4,0,0.7,0c0.1,0,0.2,0,0.3,0s0.2,0,0.2,0c0.4,0,0.9-0.1,1.3-0.1c0.3-0.1,0.7-0.1,1-0.1c0.4,0,0.8-0.1,1.2-0.1
		c0.7,0,1.3-0.1,2-0.1c0.5,0,1.2-0.1,1.5-0.1c0.9,0,1.9-0.2,2.6-0.2c0.2,0,0.4,0,0.6,0c0.3,0,0.6,0,0.9,0c0.5-0.1,1.1-0.1,1.7-0.1
		c0.1,0,0.2,0,0.3,0c0.2,0,0.3,0,0.5,0c0.5,0,1.1-0.1,1.6-0.1h0.1c0.1,0,0.2,0,0.3,0c0.6,0,1.4,0,2,0c1,0.1,2,0.1,3,0.1
		c1.1,0,2.3,0,3.3,0.2c2,0.1,3.5,0,5.3,0.2c0.2,0,0.4,0,0.7,0c0,0,0.5,0,0.6,0c1.1,0,2.4-0.1,3-0.1c0.4,0,0.7,0,0.7,0
		c1.8-0.1,3.1-0.3,4.9-0.3c0.7-0.1,1.4,0.1,2.1,0.1c0.1,0,0.1,0,0.2,0s0.2,0,0.3,0c0.2,0,0.3,0,0.5-0.1
		C87.4,60.1,87.4,59.9,87.4,59.6L87.4,59.6z"/>
	<path fill="#008542" d="M84.7,58.5c-0.4,0-0.5-0.5-0.9-0.4c-0.6,0-0.8-0.7-1.4-0.7c-0.3,0-0.6,0.2-0.9,0c-0.4-0.1-0.5-0.7-0.9-0.5
		c-0.3,0.1-0.7,0-0.9-0.3c-0.2,0.4-0.4,0.3-0.7,0c-0.2-0.2-0.2-0.9-0.5-0.4c-0.4,0.4-0.8,0-1-0.3c-0.5-0.5-1.2,0.1-1.7-0.1
		c-2.1-0.3-4.3-0.1-6.4-0.6c-0.6,0-1.1-0.2-1.6-0.2c-0.4-0.2-0.9-0.4-1.2,0c-0.7,0.4-1.2-0.6-1.8-0.3c-0.4,0.2-0.9,0.1-1.3,0.3
		c-0.4,0-0.5-0.6-0.8-0.2c-2.5,0.5-5,0.7-7.5,0.7c-0.6,0-1.3-0.3-1.5-0.8c-0.4,0.4-0.9,0.5-1.4,0.4c-1.5-0.1-3.1-0.2-4.6-0.2
		c-0.1-0.4-0.7-0.2-1-0.3c-0.4,0.2-0.9,0-1.3-0.3l0,0c-0.5,0.1-0.8,0.5-1.3,0.4c-0.4-0.1-0.8,0.2-1.3-0.1s-1-0.2-1.5-0.1
		c-2.9,0.2-5.8,1.1-8.7,1.7c-1.1,0.2-2.2,0.6-3.3,0.6c-0.5-0.2-1.1-0.4-1.7-0.2c-0.8-0.1-1.5,0.1-2.1,0.5c-0.4,0.4-1-0.2-1.4,0.1
		c-0.5,0.6-1.4,0.8-2.2,0.8c-0.3-0.1-0.6,0.3-1,0.1c-0.5-0.3-1,0-1.5,0.2c-0.5,0.6-1.5,0.4-2.2,0.8c-0.4,0.2-0.8,0.4-1.3,0.5
		C15.3,60,15.4,60,16.1,60c1.7,0.3,3.4,0,5.1,0.3c2.9,0.1,5.8-0.6,8.7-0.3c3.4,0.2,6.8,0.2,10.2,0.6c5.2,0,10.4-0.7,15.5-0.9
		c5.1-0.5,10.1-0.1,15.2,0.1c2.9,0,5.7,0.3,8.6,0c2.4-0.2,4.7-0.4,7.1-0.2C85.9,59.1,85.1,59.1,84.7,58.5z"/>
	<path fill="#584528" d="M77.2,54.8c0-0.1-0.1-0.6-0.1-0.7c0-0.1,0-0.1,0-0.2v-0.2l0,0c0,0,0-0.1-0.1-0.1c0,0-0.1-0.1-0.1-0.2v-0.1
		c0,0,0-0.3-0.1-0.3l-0.1-0.1c0-0.1-0.2-0.2-0.1-0.3v-0.1c0-0.1-0.1-0.1-0.1-0.2c0,0-0.1-0.1-0.1-0.2L76.3,52l-0.1-0.1
		c-0.1,0-0.1-0.4-0.2-0.4l-0.1-0.1c0,0-0.1-0.2-0.2-0.3V51c0,0-0.1-0.2-0.1-0.3v-0.1c0-0.1,0-0.1-0.1-0.2l-0.1-0.3V50
		c0-0.1,0-0.1,0-0.2c0-0.1-0.1-0.3-0.1-0.4l0,0c0,0-0.1-0.1,0-0.1l0,0c0,0,0,0,0-0.1c0,0,0,0,0-0.1c0,0,0-0.1-0.1-0.2
		c0-0.1,0-0.1-0.1-0.2c0,0,0-0.1,0.1-0.1l0,0v-0.1c0-0.1,0-0.1-0.1-0.2c0-0.1,0-0.8-0.1-0.9v-0.1c0-0.1-0.1-0.4-0.1-0.5s0-0.2,0-0.3
		c0,0,0.1-0.2,0-0.3s0-0.7-0.1-0.7c0-0.1,0-0.2,0-0.3c-0.1-0.1-0.2-0.4-0.2-0.4c0-0.1-0.1-0.3-0.1-0.4c0-0.1,0-0.2-0.1-0.3
		c0-0.1-0.1-0.2-0.1-0.2c0-0.1,0-0.4,0-0.4c-0.1-0.1-0.1-0.1-0.1-0.2c0-0.1-0.1-0.1-0.1-0.1v-0.1c0,0-0.1-0.4-0.2-0.6l-0.1-0.3
		c0-0.1-0.1-0.3-0.1-0.4c0-0.1-0.1-0.1-0.1-0.2c0,0,0,0,0-0.1s-0.1-0.2-0.1-0.2s0.1,0,0.1-0.1c0.1-0.1,0.1-0.2,0.2-0.3
		c0-0.1-0.1-0.4,0-0.5c0,0-0.1-0.3-0.2-0.4c0,0,0-0.1-0.1-0.1l-0.1-0.3c0,0-0.1-0.2-0.2-0.3l-0.1-0.1c0-0.1-0.1-0.4-0.3-0.5
		c-0.1-0.1-0.3-0.4-0.3-0.4s-0.1,0-0.1-0.1l-0.1-0.1l-0.2-0.2c-0.1-0.1-0.2-0.2-0.3-0.3c0-0.1-0.2-0.2-0.2-0.2
		c-0.1-0.1-0.1-0.3-0.3-0.3c-0.1-0.1-0.2-0.3-0.3-0.3h-0.1c-0.1-0.1-0.3-0.4-0.3-0.5c0,0,0-0.1-0.1-0.1c-0.1-0.1-0.1-0.2-0.2-0.2
		c-0.1-0.1-0.2-0.1-0.2-0.2c0,0-0.1-0.1-0.2-0.1c0,0-0.1,0-0.1-0.1c0,0-0.1-0.2-0.2-0.3l-0.1-0.1h-0.1c-0.1-0.1-0.3-0.2-0.3-0.4
		L69,34.7c-0.1,0-0.3-0.1-0.4-0.2c0,0-0.3-0.1-0.3-0.2c-0.1-0.1-0.4-0.2-0.4-0.2c-0.1-0.1,0-0.1-0.1-0.1s-0.2,0-0.2-0.1
		c-0.2-0.1-0.3-0.2-0.5-0.2c0,0-0.1-0.1-0.2-0.1l-0.2-0.1c-0.1-0.1-0.4-0.1-0.4-0.1s0,0,0-0.1V33c0,0,0-0.1-0.1-0.1H66l-0.1-0.1
		c0-0.1-0.1-0.1-0.1-0.1c-0.1,0-0.2,0-0.3,0c0,0,0,0-0.1,0c0,0-0.4-0.2-0.5-0.3c-0.1,0-0.7-0.2-0.7-0.2c-0.1,0-0.3-0.1-0.3-0.1
		c-0.1,0-0.1-0.1-0.2-0.1h-0.1c-0.1,0-0.4-0.1-0.5-0.1s-0.6,0-0.7-0.1h-0.1H62c-0.2,0-0.4-0.1-0.6-0.1c-0.1,0-0.1,0-0.2-0.1h-0.1H61
		h-0.1c-0.2,0-0.7,0-0.7,0c-0.1,0-0.2,0-0.4,0c-0.1,0-0.5,0.1-0.7,0c-0.1,0-0.4,0.1-0.5,0c-0.1,0-0.6,0-0.7,0.1h-0.1
		c-0.1,0-0.1,0.1-0.2,0.1c-0.1,0-0.1,0-0.2,0.1h-0.2c-0.1,0-0.1,0-0.2,0h-0.2C56.6,32,56.2,32,56.2,32c-0.1,0-0.5,0.1-0.6,0.1
		s-0.3,0.1-0.4,0.1c-0.1,0-0.1,0-0.2,0c-0.1,0-0.1,0-0.2,0h-0.1c-0.1,0-0.5,0.1-0.6,0.1s-0.1,0-0.2,0s-0.1,0-0.2,0.1c0,0,0,0-0.1,0
		s-0.4,0-0.5,0s-0.2,0-0.3,0s-0.1,0-0.2,0c-0.1,0-0.5,0-0.6,0c-0.2,0-0.4,0-0.7,0c-0.1,0-0.1,0-0.2,0c-0.1,0-0.4-0.1-0.4-0.1h-0.1
		c-0.1,0-0.1,0-0.1,0c-0.1,0-0.2-0.1-0.3-0.1s-0.6-0.3-0.7-0.3c-0.1,0-0.1,0-0.1-0.1s-0.3,0-0.3-0.1c0,0-0.1-0.1,0-0.1l0,0
		c0,0,0,0,0-0.1h-0.2c-0.1,0-0.2-0.1-0.2-0.2c-0.1-0.1-0.4-0.1-0.4-0.1c0-0.1,0,0,0-0.1s-0.1-0.1-0.1,0c-0.1,0-0.1,0-0.2,0
		c0,0,0,0-0.1,0s-0.1,0-0.2-0.1l-0.1-0.1c-0.1,0-0.2,0.1-0.3,0.1v-0.1c0,0-0.3-0.1-0.5-0.1c-0.1,0-0.1-0.2-0.2-0.2
		c-0.1,0-0.1,0.1-0.2,0c-0.1,0-0.2-0.1-0.2-0.1c-0.1,0-0.5,0-0.6,0h-0.1c-0.1,0-0.1-0.1-0.2-0.1c-0.1,0-0.8,0-1,0
		c-0.1,0-0.3,0.1-0.4,0c0,0,0-0.1-0.1-0.1l0,0c0,0-0.2,0.2-0.2,0.1c0,0-0.3,0.1-0.4,0c0,0,0,0-0.1,0s-0.2,0.1-0.3,0.1h-0.1
		c0,0-0.2,0-0.3,0c0,0-0.3,0.1-0.3,0c-0.1,0-0.2,0-0.3,0.1h-0.1h-0.1c-0.1,0-0.3,0.1-0.3,0.1c-0.1,0-0.1,0.1-0.2,0.1H41
		c-0.1,0-0.1,0.1-0.2,0.1c-0.1,0-0.2,0.1-0.2,0.1c-0.1,0-0.2,0.1-0.3,0.2l-0.1,0.1c-0.2,0.1-0.4,0.2-0.6,0.4c0,0-0.1,0.1-0.2,0.1
		c-0.1,0-0.1,0-0.1,0s-0.1,0-0.1,0.1L39.1,32l0,0l0,0l0,0l0,0c0,0-0.1,0.1-0.2,0.1h-0.1c-0.1,0-0.1,0-0.2,0.1
		c-0.1,0-0.2,0.1-0.2,0.1l-0.1,0.2c0,0-0.2,0-0.2,0.1c0,0-0.1,0.1-0.2,0.1l-0.1,0.1c0,0-0.1,0.1-0.2,0.1h-0.1
		c-0.1,0.1-1.1,0.6-1.2,0.6c0,0-0.2,0.1-0.2,0s-0.2,0-0.2,0.1l0,0l0,0h-0.2l-0.1,0.1l-0.1,0.1l0,0h-0.1c0,0-0.8,0.4-0.9,0.5
		c-0.1,0.1-0.8,0.5-0.9,0.5c-0.1,0,0,0.1-0.1,0.1h-0.1l0,0c-0.1,0.1-0.2,0.2-0.3,0.3l0,0L33,35.3c-0.1,0-0.2,0-0.2,0.1s0,0.1,0,0.1
		c-0.1,0-0.1,0-0.2,0c-0.1,0-0.1,0.1,0,0.1c0,0,0,0-0.1,0.1c0,0.1-0.1,0.1-0.1,0.2c0,0,0,0.1-0.1,0.1s-0.1,0-0.2,0.1
		c-0.1,0.1-0.2,0.1-0.3,0.1c0,0,0,0-0.1-0.1s0-0.1-0.1-0.1c-0.1-0.1-0.1-0.1-0.1-0.2h-0.1c-0.1-0.1-0.2-0.1-0.3-0.2H31
		c-0.1,0-0.2,0-0.3,0c-0.1,0.1-0.2,0.1-0.2,0.2c-0.1,0.1-0.2,0.1-0.3,0.2c0,0,0,0-0.1,0.1c0,0.1-0.1,0.2-0.1,0.2l-0.1,0.1
		c0,0.1-0.1,0.1-0.1,0.2c0,0-0.1,0.1-0.1,0.2c0,0.1,0,0.1,0,0.1s-0.1,0-0.1,0.1c0,0-0.1,0.1-0.2,0.1s-0.1,0-0.2,0h-0.1
		c-0.1,0-0.1,0.1-0.2,0.1s-0.2-0.1-0.4-0.2c-0.1-0.1-0.2-0.1-0.2-0.2c-0.1,0-0.1-0.1-0.2-0.1L28,36.6c-0.1,0-0.2-0.1-0.3-0.1
		c-0.1,0-0.1,0-0.2,0.1l-0.1,0.1c-0.1,0.1-0.2,0.2-0.2,0.3c0,0,0,0.1-0.1,0.1v0.1v0.1c0,0.1-0.1,0.2-0.1,0.2c0,0.1,0,0.2,0,0.3v0.1
		V38v0.1c0,0.1,0.1,0.3,0.1,0.4L27,38.6c-0.1,0.1-0.2,0.2-0.3,0.4l0,0l-0.1,0.1l-0.1,0.1c0,0.1-0.1,0.1-0.1,0.2
		c-0.1,0.1-0.1,0.2-0.2,0.3c-0.1,0.2-0.2,0.4-0.3,0.7c0,0-0.1,0-0.1,0.1s-0.1,0.1-0.1,0.2c0,0.1-0.1,0.1-0.1,0.2L25.5,41
		c0,0.1-0.1,0.1-0.1,0.2c0,0.1-0.1,0.1-0.1,0.2v0.1c0,0.1,0.1,0.1,0.1,0.2c0,0.1,0.1,0.1,0.1,0.1h0.1v0.1V42c0,0,0.1,0.1,0,0.1
		c0,0,0-0.1-0.1,0c0,0.1,0,0.2,0.1,0.2v0.1c0,0.1,0,0.2-0.1,0.2c0,0.1-0.1,0.1-0.1,0.2v0.1c0,0.1-0.1,0.1-0.1,0.2
		c-0.1,0.1-0.1,0.1-0.2,0.2c-0.1,0.1-0.1,0.2-0.2,0.3l0,0c0,0.1-0.1,0.1-0.2,0.2c0,0.1,0,0.1-0.1,0.1s-0.1,0-0.1,0.1
		s-0.1,0.1-0.1,0.2l-0.1,0.1c-0.1,0.1-0.2,0.2-0.3,0.3c0,0.1-0.1,0.2-0.1,0.2c-0.1,0.1-0.1,0.2-0.2,0.3s-0.1,0.1-0.2,0.2
		c0,0.1,0,0.1-0.2,0.2c0,0-0.1,0-0.1,0.1l-0.1,0.1L22.8,46l-0.1,0.1c0,0.1,0,0.2,0.1,0.2s0.1,0.1,0.2,0.1s0.1,0.1,0.2,0.1
		s0.1,0,0.1,0l0,0c0,0,0,0,0.1,0s0.1,0,0.1,0s0,0-0.1,0l0,0c0,0,0,0-0.1,0l0,0l0,0v0.1l0,0c0,0,0-0.1-0.1,0c0,0.1,0,0.1,0,0.2
		c0,0,0,0,0.1,0.1c0,0,0.1,0,0.1,0.1c0.1,0.1,0.3,0.2,0.5,0.2c0.1,0,0.2,0,0.2,0.1c0.1,0,0.1,0,0.2,0s0.1,0,0.2,0s0.1,0,0.2,0h0.1
		h0.1c0.1,0,0.1,0.1,0.1,0.1s0.1,0,0.1,0.1c0.1,0.1,0.1,0.1,0.2,0.2c0,0,0,0,0.1,0l0,0c0,0,0,0,0-0.1v-0.1c0,0,0-0.1-0.1-0.1
		c0,0,0,0,0-0.1l0.1-0.1c0.1,0,0.2-0.1,0.4-0.1c0,0,0.1,0,0.1-0.1c0.1-0.1,0.2-0.1,0.3-0.2l0.1-0.1c0.1-0.1,0.2-0.1,0.3-0.2
		c0.1,0,0.1-0.1,0.2,0c0,0,0,0,0,0.1c0,0.2-0.1,0.3-0.3,0.4h0.1c0,0,0,0-0.1,0c-0.1,0.1-0.2,0.1-0.2,0.2l0,0l-0.1,0.1v0.2
		c0,0,0,0.1,0.1,0.1c0,0,0,0,0.1,0c0,0,0,0,0.1,0v0.1l0,0c-0.1,0-0.2,0-0.3-0.1c0-0.1-0.1-0.2-0.2-0.2c0,0.1,0,0.2,0,0.3
		c0,0-0.1,0-0.1-0.1c0,0-0.1,0-0.1-0.1h-0.1c0,0-0.1,0,0,0.1s0.1,0.1,0.2,0.2c0,0,0,0.1,0,0.2c0,0.1,0,0.1-0.1,0.1c0,0,0,0,0,0.1
		s0,0.1,0.1,0.2v0.1v0.1H26c0,0.1,0,0.1,0.1,0.1c0.1,0.1,0.2,0.1,0.4,0.1c0,0,0.1,0,0.2,0s0.1,0,0.2,0H27c0.1,0,0.1,0,0.2,0
		c0,0,0.1,0,0.2,0s0.1,0,0.1,0h0.1c0.1,0,0.2-0.1,0.2-0.1c0.1,0,0.1,0,0.1,0s0.1-0.1,0.2-0.1s0.1,0,0.1-0.1l0.1-0.1
		c0.1,0,0.2-0.1,0.3-0.1c0.1,0,0.1,0,0.1,0c0.1-0.1,0.1-0.2,0.2-0.2s0.1,0,0.1,0c0.1,0,0.1,0,0.2-0.1h0.1h0.1h0.1c0,0,0,0,0.1,0h0.1
		c0,0,0.1,0.1,0.1,0c0,0,0-0.1,0.1-0.1s0.1,0,0.2,0s0.1,0,0.1,0l0,0c0,0,0,0,0.1,0h0.1l0,0l0,0l0,0c0.1,0,0.1,0.1,0.1,0.1v0.1
		c0,0,0,0,0-0.1c0,0,0.1-0.1,0.1,0c0,0,0.1,0,0.1,0.1s0,0.1,0.1,0.1h0.1c0.1,0,0.1,0,0,0.1c0,0.1,0,0.1,0,0.2c0,0.1,0,0.1,0,0.1
		l0.1-0.1c0-0.1,0-0.1,0-0.1s0,0,0,0.1s0,0.1,0,0.1c0-0.1,0-0.2,0.1-0.2c0,0,0,0,0.1,0c0,0.1,0,0.1,0.1,0.2c0,0,0,0,0-0.1
		s0.1-0.1,0.1-0.1l0,0c0-0.1,0-0.2,0-0.3s0-0.1,0.1,0h0.1v0.1c0,0.1,0,0.1,0,0.1l0,0c0-0.1,0-0.1,0-0.2V48c0,0,0-0.1,0.1-0.1
		c0,0,0,0,0.1,0l0,0v-0.1v-0.1l0,0c0,0-0.1,0-0.1-0.1c0,0,0,0,0-0.1h0.1h0.1c0,0.1,0,0.2,0,0.2c0,0.1,0,0.1,0,0.1l0,0
		c0-0.1,0-0.2,0-0.2c-0.1-0.1,0-0.2,0-0.2c0.1,0,0.1,0,0.1,0.2v0.1l0,0c0,0,0,0,0-0.1s0-0.1,0.1-0.1h0.1v-0.1v-0.3
		c0-0.1,0-0.1,0-0.1l0.1,0.1c0,0,0,0.1,0.1,0.1l0,0l0,0L32.3,47c0,0-0.1-0.1,0-0.2v-0.1c0-0.1,0-0.1,0-0.1l0.1,0.1
		c0,0.1,0.1,0.1,0.1,0.2V47l0,0c0,0,0,0,0-0.1s0-0.1,0-0.2c-0.1-0.1-0.1-0.2,0-0.2s0.1-0.1,0.1,0c0.1,0,0.1,0.1,0.1,0.2
		c0,0.1,0,0.1,0.1,0.1c0,0,0,0,0.1,0c0,0,0-0.1,0-0.2c0,0,0,0,0-0.1v-0.1v-0.1c0-0.1,0-0.1-0.1-0.1h-0.1c0-0.1,0-0.1,0-0.2
		c0,0,0.1,0,0.1,0.1c0,0,0,0,0,0.1l0,0h0.1c0,0,0,0,0,0.1c0,0,0,0.1,0.1,0.1c0,0,0,0,0-0.1s0-0.2,0-0.2h0.1v0.1c0,0.1,0,0.1,0.1,0.1
		s0-0.2,0-0.2V46v-0.1l0,0h-0.1c0,0,0,0,0.1-0.1h0.1c0.1,0,0.1,0.1,0.1,0.1l0,0V46v0.1l0,0c0,0,0,0,0,0.1c0,0,0,0.1,0.1,0
		s0.1,0,0.1-0.1V46h0.1h0.1v-0.1l0,0c0,0,0,0,0.1,0l0,0v-0.1c0-0.2,0-0.2,0.2-0.2v0.1c0,0.1,0,0.1,0,0.1s0.1,0,0.1-0.1s0-0.2,0-0.2
		l0,0c0,0,0,0,0.1,0c0,0,0,0,0.1,0v0.1c0,0.1,0,0.1,0.1,0.1c0,0,0.1,0,0-0.1c0-0.1,0-0.1,0-0.2c0,0,0,0,0.1,0s0.1,0,0.2-0.1l0,0
		c0-0.1,0.1-0.1,0.1-0.1c0.1,0,0.2-0.1,0.2-0.2c0,0,0,0,0.1,0c0,0,0.1,0,0.1,0.1c0,0,0.1,0,0.1-0.1h0.1c0,0,0,0,0-0.1c0,0,0,0,0-0.1
		c0,0,0.1,0,0.1-0.1h0.1c0.1,0,0.1,0,0.2,0c0,0,0,0,0.1,0h0.1c0,0,0,0,0-0.1v-0.1c0,0,0.2,0,0.1,0.1c0,0,0,0,0.1,0s0.1,0,0.1-0.1
		h0.1h0.1c0-0.1,0.1-0.1,0.2-0.2l0.1,0.1H37h0.1c0.1,0,0.1,0,0.1,0l0.1-0.1c0,0,0.1,0,0.2,0.1h0.1l0.1-0.1h0.1h0.1H38
		c0.1,0,0.2,0,0.2,0.1l0.1,0.1c0,0,0,0,0,0.1s-0.1,0.1-0.1,0.2c0,0.1,0,0.1,0,0.1s0,0,0,0.1l0.1,0.1l0,0l-0.1,0.1c0,0.1,0,0.2,0,0.2
		c0,0.2-0.1,0.3-0.2,0.5c0,0.1-0.1,0.2-0.1,0.3c0,0-0.1,0.1-0.1,0.2v0.1c0,0.1,0,0.1,0,0.1c0,0.1,0,0.2,0,0.3s0,0.2-0.1,0.3
		c0,0.1,0,0.2-0.1,0.2c0,0.1,0,0.2-0.1,0.3c0,0.1,0,0.2-0.1,0.3c0,0.1,0,0.2-0.1,0.2c0,0.1-0.1,0.2-0.2,0.4c0,0.1,0,0.2-0.1,0.2v0.1
		c0,0.1-0.1,0.2-0.1,0.3s0,0.3-0.1,0.3c0,0.1-0.1,0.2-0.2,0.3l0,0c-0.1,0.1-0.1,0.2-0.2,0.3l0,0l-0.1,0.1c-0.1,0.1-0.1,0.1-0.1,0.2
		c0,0.1,0,0.1-0.1,0.2l0,0c-0.1,0.1-0.1,0.2-0.2,0.2c0,0-0.1,0-0.1,0.1c0,0,0,0-0.1,0.1l0,0v0.1c-0.2,0.2-0.3,0.3-0.5,0.5
		c0,0.1-0.1,0.1-0.2,0.2c0,0.1-0.1,0.1-0.1,0.1c0.1,1.2,0.1,1.2,0.1,1.3l-0.1,0.1c-0.1,0.1-0.1,0.1-0.2,0.2c0,0.1-0.1,0.1-0.1,0.2
		c0,0.1-0.1,0.1-0.1,0.2c0,0.1-0.1,0.2-0.1,0.3c-0.1,0.1-0.1,0.1-0.1,0.2c0,0.1-0.1,0.1-0.1,0.2c-0.1,0.1-0.2,0.2-0.3,0.3
		s-0.6,0.2-0.8,0.2c0,0-0.5,0-0.6,0s-0.2,0.1-0.4,0.1l-0.8,0.3c-0.1,0.1-0.4,0.3-0.5,0.3c0,0-0.3,0.2-0.4,0.2c0,0,0,0,0,0.1
		s-0.3,0.2-0.4,0.3l-0.3,0.2v0.3l-0.2,0.2c0,0,0.2-0.1,0.3-0.1c0.1,0,0.1-0.1,0.2-0.1c0.2,0,0.4-0.1,0.6-0.2c0,0,0,0.1-0.1,0.1
		c-0.1,0.1-0.2,0.2-0.3,0.3c0,0,0.2,0.1,0.4,0c0.1,0,0.5-0.1,0.6-0.2c0,0,0.2,0,0.1,0.1c0,0-0.1,0.1-0.1,0.2c0,0,0,0.1-0.1,0.1
		c0,0,0,0.1,0.1,0.1l0.1-0.1c0.2,0,0.3-0.1,0.5-0.1c0.1,0,0.4,0,0.4,0.1c0.1,0,0.3,0.1,0.3,0.1s0.4,0,0.5,0s0.3,0,0.4-0.1
		c0.1-0.1,0.1-0.1,0.2-0.1c0.1,0,0.2,0,0.2,0s0.1,0,0.1-0.1c0.2,0,0.2-0.1,0.4,0.1c0.2,0,0.3,0,0.5-0.1c0.1,0,0.1,0,0.2,0h0.5
		c0.1,0,0.2,0,0.4,0.1l0.1-0.1c0.1,0,0.1-0.1,0.2-0.1c0.1,0,0.1-0.1,0.1-0.1c0.1,0,0.3-0.3,0.5-0.3H37v-0.1c0-0.1,0.2-0.1,0.2-0.1
		s0,0,0-0.1c0,0,0.1-0.1,0.2-0.1c0,0,0,0,0.1,0l0,0c0,0,0,0,0-0.1c0.1-0.1,0.2,0,0.2,0V56c0,0,0.1-0.1,0.2,0c0,0,0.1-0.2,0.2-0.3
		l0.3-0.1c0,0,0.1-0.1,0.2-0.1c0-0.1,0.1-0.2,0.1-0.3c0,0.1,0.1,0.1,0.1,0.1s0.1-0.1,0.1-0.2V55H39h0.1c0,0,0,0,0-0.1
		c0,0,0-0.1,0.1-0.1s0.1,0,0.1,0c0.1-0.1,0.1-0.2,0.2-0.2c0.1-0.1,0.1-0.1,0.2-0.2c0,0,0.1,0,0.1-0.1c0.1-0.1,0.1-0.1,0.1-0.2
		c0-0.1,0.1-0.1,0.1-0.2c0,0,0,0,0.1,0h0.1c0-0.1,0.1-0.1,0.1-0.2v-0.1c0,0,0.1-0.1,0.2-0.1c0,0,0.1-0.1,0.2-0.1h0.1l0.1-0.2
		c0,0,0,0,0.1,0s0.2,0,0.2-0.2c0-0.1,0-0.1,0.1-0.1s0.1,0,0.1,0s0-0.1,0.1-0.1l0.1-0.1c0.1-0.1,0.1-0.1,0.1-0.1s0-0.1,0.1-0.1h0.1
		c0.1,0,0.1,0,0.1,0s0.1,0,0.1-0.1c0,0,0-0.1,0.1-0.1c0,0,0,0,0.1-0.1c0.1,0,0.1-0.1,0.1-0.1s0,0,0.1-0.1v-0.1h0.2
		c0-0.1,0.1-0.1,0.1-0.2c0.1-0.1,0.2-0.2,0.3-0.2l0,0v-0.1c0-0.1,0-0.2,0-0.2c0.1,0,0.2,0,0.2-0.1c0,0,0-0.1,0.1-0.1
		c0.1-0.1,0.1-0.1,0.2-0.1c0.1,0,0.1,0,0.1,0v-0.1c0,0,0,0,0.1,0s0.1,0,0.1,0v-0.1c0-0.1,0-0.2,0.1-0.1h0.1c0,0,0.2-0.1,0.2-0.2
		c0,0,0-0.1,0.1-0.1c0,0,0.1-0.1,0.2-0.1c0.1,0,0.1,0,0.1,0v-0.1c0.1-0.1,0.2-0.3,0.3-0.4c0-0.1,0-0.1,0.1-0.1s0.1,0,0.1-0.1
		s0.1-0.2,0.1-0.2s0,0,0-0.1s0.1-0.1,0.1-0.2c0,0,0.1-0.1,0.1,0v-0.1c0-0.1,0-0.1,0.1-0.2c0.1-0.1,0.2-0.2,0.3-0.3c0,0,0,0,0-0.1
		c0.1,0.1,0.3,0.1,0.3,0.3c0,0,0,0.1,0.1,0.1s0.1,0.1,0.2,0.1v0.1c0,0.1,0.1,0.1,0.1,0.1c0,0.1,0,0.4,0.2,0.3h0.1l0,0l0.1,0.1
		c0,0,0.2,0.1,0.3,0.2c0,0,0.1,0.2,0.3,0.3h0.1l0.3,0.5c0.1,0,0.2,0.2,0.2,0.2s0.1,0,0.1,0.1c0.1,0,0.5,0.3,0.6,0.4
		c0.1,0,0.1,0.1,0.2,0.2c0.1,0.1,0.3,0.3,0.4,0.4c0,0,0.2,0.1,0.1,0.1c0,0-0.1,0,0,0.1s0.2,0.2,0.3,0.2s0.1,0,0.2,0.1
		c0.1,0.1,0.1,0.2,0.2,0.3c0,0,0,0.1,0.1,0.1c0.1,0.2,0,0.3-0.1,0.5c0,0-0.4,0-0.5,0s-0.3,0-0.4,0c-0.1,0-0.2,0-0.2,0
		c-0.1,0-0.1,0-0.1,0.1c0,0-0.3,0.1-0.4,0.1c-0.1,0-0.1,0.1-0.2,0.1l-0.3,0.2c0,0,0,0-0.1,0.1c0,0,0,0.1-0.1,0.1c0,0-0.1,0-0.1,0.1
		c-0.1,0.2-0.6,0.7-0.7,0.8c-0.1,0.1-0.1,0.1-0.1,0.2l0.2-0.1c0.1-0.1,0.2-0.1,0.3-0.1l0,0l0,0c-0.1,0.1-0.2,0.2-0.3,0.3
		s-0.1,0.1-0.2,0.2l0,0c0,0,0,0,0.1,0c0.1-0.1,0.3-0.2,0.5-0.2h0.1c0,0,0,0.1-0.1,0.1c-0.1,0.1-0.3,0.1-0.4,0.2c0,0,0,0.1,0.1,0.1
		s0.2-0.1,0.3-0.1l0,0v0.1l0,0h0.1v-0.1c0,0,0-0.1,0.1-0.1H48c0.2-0.1,0.4-0.1,0.6,0c0.1,0,0.5,0,0.6,0s0.7-0.1,0.8-0.1s0.1,0,0.2,0
		c0.2,0,0.4,0,0.5,0c0,0,0.1,0,0.1,0.1c0.1,0.1,0.3,0,0.3,0c0.1,0,0.4,0,0.4,0h0.1h0.1l0,0c0,0,0,0,0,0.1h0.1c0.1,0,0-0.1,0.2-0.1
		h0.1c0,0,0-0.1,0.1,0c0.1,0,0.1,0.1,0.2,0c0.1,0,0.1,0.1,0.1-0.1c0,0,0.1,0,0.1-0.1c0.1,0,0.2,0,0.3-0.1c0.1,0,0.1,0,0.1-0.1
		c0,0,0.1-0.1,0.1-0.2c0,0,0.2-0.1,0.1-0.2c0-0.1,0.4-0.9,0.4-1c0,0,0,0,0-0.1c0,0,0.2-0.3,0.1-0.4l0.2-0.3c0,0,0.1,0,0-0.1
		c0,0,0.1-0.3,0.1-0.4V52h0.1v-0.3c0,0,0.1-0.2,0.1-0.3v-0.1v-0.1c0,0,0,0,0-0.2c0-0.1-0.1-0.4-0.2-0.4c-0.1-0.1-0.2-0.3-0.2-0.3
		v-0.1v-0.1c0,0,0-0.1-0.1-0.1l0,0c0,0-0.3-0.4-0.3-0.5v-0.1c0,0-0.1-0.3-0.1-0.4l0,0c0-0.1,0-0.1-0.1-0.1s-0.2-0.4-0.3-0.5l0,0
		l-0.1-0.1l0,0c0-0.1,0-0.1,0-0.1l0,0v-0.1c0-0.1-0.1-0.3-0.1-0.4v-0.3v-0.1l0,0c0,0,0,0.1,0.1,0.1l0,0l0,0l0,0l0,0l0,0
		c0,0,0,0,0.1,0c0,0,0.7,0.1,0.8,0.1s0.1,0,0.1,0c0.1,0,0.1,0,0.1,0l0,0h0.2c0.1,0,0.1-0.1,0.2,0h0.1c0,0,0,0,0.1,0h0.1l0,0l0,0l0,0
		c0,0,0-0.1,0.1-0.1c0,0,0,0,0.1,0l0,0c0,0,0.1,0.1,0.2,0.1l0.3,0.1c0,0,0-0.1,0.1-0.1c0,0,0,0,0.1,0c0,0,0.1,0.1,0.1,0.2
		c0,0,0.1-0.1,0.2,0c0.1,0,0.5,0.2,0.5,0.3s0,0.1,0.1,0.1s0.1-0.2,0.1-0.2c0-0.2,0.2,0,0.2,0.1c0,0,0.2-0.2,0.2-0.3c0,0,0,0,0.1,0
		c0,0,0,0.1,0,0.2c0,0,0.3-0.3,0.4-0.2l0,0h0.1l0.1,0.1l0,0c0,0-0.1,0.1,0,0.1c0,0.1,0,0.2,0,0.3l0,0c0,0.1,0,0.1,0,0.1l0,0l0,0
		l-0.1,0.1l0,0v0.1c0,0,0,0,0,0.1c0,0,0,0.1-0.1,0.1c0,0,0,0,0.1,0.1s0.1,0,0.1,0s0,0,0,0.1s0,0.3,0,0.4c0,0,0,0.1,0,0s0.1,0,0.1,0
		l0,0c0,0,0,0,0,0.1v0.1c0,0.1,0,0.1,0,0.1s0,0.1-0.1,0.1l0,0c0,0.1,0,0.3,0.1,0.4v0.1c0,0.1,0,0.1,0,0.2v0.1c0,0.1,0,0.2,0,0.3
		c0,0,0,0,0,0.1s0,0.1,0,0.2c0,0,0,0,0,0.1s0,0.1,0,0.2c0,0.1,0.1,0.1,0.1,0.2c0,0.1,0,0.2,0,0.3V52c0,0.1,0,0.1,0,0.1s0,0,0,0.2
		c0,0.1,0,0.1,0,0.2v0.1v0.1l0,0c0,0,0,0,0,0.1s0.1,0.1,0,0.1c0,0.1,0,0.1,0,0.1s0,0,0,0.1v0.1v0.1h0.1l0,0c0,0,0,0,0,0.1
		c0,0.2,0,0.2-0.1,0.2c0,0,0,0.1-0.1,0.1c0,0,0,0,0,0.1l0,0c0,0,0,0,0,0.1c0,0,0,0-0.1,0.1c0,0,0,0-0.1,0s-0.1,0-0.2,0h-0.1l0,0
		c0,0-0.1,0-0.5,0h-0.3c-0.2,0-0.5,0.1-0.7,0.1h-0.1h-0.1c-0.1,0-0.2,0-0.3,0.1c-0.1,0-0.3,0.1-0.4,0.2c0,0-0.1,0.1-0.2,0.1
		c0,0-0.1,0.1-0.2,0.1c-0.2,0.2-0.5,0.2-0.6,0.5c-0.1,0-0.2,0.1-0.2,0.2c0,0.1-0.1,0.1-0.1,0.2c0,0.1-0.1,0.2,0,0.2h0.1
		c0.1-0.1,0.1-0.2,0.2-0.3l0,0c0,0.1,0,0.1,0,0.1l-0.1,0.1c-0.1,0.1-0.1,0.1-0.1,0.2c0.1,0,0.2-0.1,0.2-0.2c0.1-0.1,0.3-0.2,0.4-0.1
		c0,0.1-0.1,0.3-0.2,0.3l0,0c0,0,0,0,0.1,0l0.1-0.1c0.1-0.1,0.1-0.1,0.2-0.2c0,0,0.1,0,0.1,0.1s-0.1,0.2-0.2,0.3c0,0,0,0,0.1,0
		s0.2-0.1,0.2-0.2h0.1c0.1,0,0.2,0,0.3,0.1c0,0,0,0,0,0.1c0,0-0.1,0.1-0.1,0.2c0,0,0,0,0.1,0s0.1,0,0.1-0.1c0,0,0.1,0,0.1-0.1l0,0
		c0,0,0.1,0,0.1,0.1c0.1,0,0.2,0,0.3,0s0.1,0,0.1,0.1c0.1,0,0.1,0.1,0.1,0.1s0,0,0.2,0c0.1,0,0.1,0,0.2,0l0,0c0.1,0,0.1,0,0.2,0
		c0.1,0,0.2-0.1,0.3,0c0.9,0,0.2-0.3,1,0v-0.1h0.1c0,0,0.1,0,0.2,0c0,0,0.1,0,0.1-0.1c0.1,0,0.2-0.1,0.3-0.1h0.2c0.1,0,0.2,0,0.2,0
		c0.1,0,0.1-0.1,0.2,0c0.1,0,0.2,0,0.3,0s0.1,0,0.2,0h0.1c0.1,0,0.1,0,0.2,0c0.1,0,0.2,0,0.3,0s0.1,0,0.2,0h0.2h0.1h0.1
		c0,0,0.1,0,0.1-0.1c0,0,0.1-0.1,0.2,0c0,0,0.1,0,0.1-0.1s0.1-0.1,0.1,0c0,0,0,0,0.1,0.1c0.1,0,0.1,0,0.1,0c-0.2,0-0.2-0.1-0.1-0.2
		c0-0.1,0.1-0.2,0.1-0.3s0.1-0.1,0.1-0.2l0.1-0.1c0-0.1,0.1-0.1,0.1-0.1l0.1-0.1c0-0.1,0.1-0.1,0.1-0.2l0.1-0.1
		c0-0.1,0.3-0.3,0.3-0.4c0.1,0,0.1-0.1,0.2-0.1h0.1v-0.1c0-0.1,0.1-0.2,0.1-0.3l0.1-0.1h0.1c0,0,0,0,0-0.1s0-0.1,0-0.1l0.1-0.1
		c0-0.1,0-0.1,0-0.1l0.1-0.1c0,0,0.2-0.1,0.2-0.2l0.1-0.1c0,0,0-0.1,0.1-0.1s0.1-0.1,0.1-0.1v-0.1c0.1,0.1,0.1,0.1,0.2,0.1v-0.1
		l0.1-0.2c0,0,0.1-0.1,0.2-0.1h0.1c0,0,0,0,0-0.1l-0.1-0.1c0,0,0,0,0-0.1s0-0.1,0.1,0c0,0,0,0,0,0.1c0,0,0,0.1,0.1,0.1
		c0,0,0,0,0.1,0c0.1-0.1,0.1-0.1,0.2-0.2c0-0.1,0-0.1,0-0.2c0-0.1,0-0.1,0.2-0.1h0.1v-0.1c0-0.1,0-0.1,0.1-0.1l0,0c0,0,0,0,0.1-0.1
		s0.2-0.2,0.3-0.3l0.1-0.1h0.1c0,0,0,0,0-0.1s0.2-0.1,0.2,0c0.1-0.1,0.2-0.1,0.3-0.2c0,0,0-0.1,0.1-0.1l0.1-0.1
		c0.1-0.1,0.2-0.1,0.2-0.2c0-0.1,0.2-0.3,0.3-0.3c0,0,0.1,0,0.1,0.1v-0.1c0-0.1,0-0.1,0-0.1H67c0.1,0,0.1-0.1,0.2-0.1
		c0,0,0.2-0.2,0.3-0.2c0.1,0,0.2,0,0.1,0.1c0,0.1,0,0.3,0,0.3c0,0.1,0,0.1,0.1,0.1c0,0,0,0.1,0.1,0.1v0.1c0,0.1,0,0.1,0.1,0.1
		c0,0,0.2,0.1,0.1,0.2c0,0.1,0,0.1,0,0.2c0.1,0.1,0.2,0.3,0.2,0.3V51c0,0.1,0,0.1,0.1,0.1c0,0,0.1,0,0.2,0.1c0,0,0,0.1,0.1,0.2
		c0.1,0,0.2,0,0.2,0c0,0.1,0.1,0.1,0.2,0.1c0,0,0.1,0.1,0.1,0.2l0,0c0-0.1,0.1,0,0.2,0.1l0.1,0.1c0.1,0,0.1,0,0.2,0.1c0,0,0,0,0.1,0
		c0,0,0,0,0.1,0c0,0,0,0,0,0.1l0,0c0.1,0,0.1,0,0.2,0l0,0c0,0,0-0.1,0.1-0.1c0,0,0,0,0,0.1s0,0.1,0,0.1c0.1,0,0.2,0.1,0.3,0.1
		c0,0,0,0,0.1,0s0.1,0,0.1,0.1v0.1c0,0,0.3,0.1,0.4,0.1h0.1c0.1,0,0.2,0,0.3,0.1h0.1c0.1,0,0.1,0,0.1,0.1c0,0,0,0,0.1,0s0.1,0,0.2,0
		H72c0.1,0,0.1,0,0.2,0l0,0c0,0,0,0,0.1,0h0.2c0,0,0,0.1,0.1,0h0.1h0.1c0.1,0.1,0.3,0.1,0.4,0.2l0,0l0,0l0.1,0.1l0,0c0,0,0,0,0.1,0
		v0.1c0,0,0,0.1,0.1,0l0.1,0.2c0,0.1,0,0.1-0.1,0.2l0,0l0,0l-0.1,0.1c0,0,0,0.1-0.1,0.1s-0.1,0-0.1,0s0,0.1-0.2,0.1
		c-0.1,0-0.6,0.1-0.7,0.1s-0.3,0-0.4,0.1c0,0-0.3,0.1-0.3,0.2h-0.1c-0.1,0-0.1,0.1-0.2,0.1c0,0-0.1,0.1-0.2,0.1c0,0-0.2,0.1-0.2,0.2
		c0,0,0,0.1-0.1,0.1c-0.1,0.1-0.2,0.1-0.2,0.2c-0.1,0.1-0.2,0.2-0.3,0.3c0,0,0,0-0.1,0.1s0,0.3,0,0.2l0,0h0.1
		c0.1-0.1,0.4-0.1,0.4-0.1v0.1c-0.1,0.1-0.1,0.1-0.1,0.2c0,0-0.1,0-0.1,0.1c-0.1,0.1-0.1,0.1-0.1,0.2c0,0.1,0.1,0.1,0.1,0
		c0,0,0,0,0.1-0.1c0.1,0,0.2-0.1,0.2-0.1h0.1H71h0.1c0,0.1,0,0.1-0.1,0.1c-0.1,0.1-0.2,0.1-0.3,0.2c0,0.1,0,0.1,0.1,0
		s0.2-0.1,0.3-0.1c0.1,0,0.2,0,0.2-0.1c0.1,0,0.2,0,0.3,0c0.1,0,0.1,0,0.2,0s0.3,0.1,0.5,0.1h0.1c0,0,0.1,0,0.3,0c0.1,0,0.2,0,0.3,0
		h0.1c0.1,0,0.5-0.1,0.7,0c0.1,0,0.2,0,0.2,0c0.2,0,0.2,0,0.2,0s0.1,0,0.2,0s0.1,0,0.1,0l0,0v0.1l0,0c0,0,0-0.1,0.1-0.1v0.1l0,0
		c0,0,0-0.1,0.1-0.1h0.1c0,0,0.2-0.1,0.3-0.1l0.1-0.1c0.1,0,0.2-0.1,0.2-0.2l0.1-0.1l0.3-0.2L76,56c0,0,0.3-0.2,0.4-0.3
		c0.1,0,0.1-0.1,0.2-0.1l0.1-0.1c0.1,0,0.1-0.1,0.2-0.1l0.1-0.1c0,0,0.2,0,0.1,0c0-0.1,0-0.1,0-0.2C77.1,55.1,77.2,54.9,77.2,54.8
		C77.2,54.9,77.2,54.8,77.2,54.8L77.2,54.8L77.2,54.8z"/>
	<path fill="#B71234" d="M28.5,46.2L28.5,46.2C28.5,46.1,28.5,46.2,28.5,46.2c-0.1,0-0.2,0-0.2,0c-0.1-0.1-0.1,0-0.2,0s-0.1,0-0.2,0
		h-0.1h-0.1h-0.1h-0.1l0,0c0,0-0.1,0-0.1,0.1c-0.1,0.1-0.1,0.1-0.1,0.1c0,0.1,0,0.1,0,0.2v0.1c0,0,0,0.1-0.1,0.1v0.1
		c0,0,0,0.1-0.1,0.1c0,0,0,0-0.1,0.1c0,0.1-0.1,0.1-0.1,0.1l-0.1,0.1l0,0l-0.1,0.1v0.1c0,0.1,0.1,0.1,0.2,0.1H27h0.1
		c0.1,0,0.2-0.1,0.2-0.1l0,0c0,0,0,0,0.1,0c0,0,0,0,0.1,0c0,0,0,0,0-0.1v-0.1l0,0l0,0c0.1-0.1,0.1-0.1,0.2-0.2c0,0,0-0.1,0.1-0.1
		c0,0,0,0,0.1-0.1c0,0,0-0.1,0.1-0.1l0.1-0.1c0,0,0,0,0.1,0l0,0c0,0,0,0,0-0.1s0-0.1,0-0.1s0,0,0-0.1c0,0,0,0,0-0.1
		c0.1,0,0.1-0.1,0.1-0.1C28.5,46.4,28.5,46.3,28.5,46.2C28.6,46.2,28.6,46.2,28.5,46.2L28.5,46.2z"/>
	<path fill="#BD8A5E" d="M33.4,45.7L33.4,45.7c-0.1,0-0.1,0.1-0.1,0.2s0.1,0.2,0.1,0.2h0.1c0,0,0,0,0-0.2
		C33.5,45.9,33.5,45.8,33.4,45.7L33.4,45.7z M30.4,46.5c0,0,0,0,0-0.2v-0.1h-0.1c-0.1,0-0.1,0-0.1-0.1s0-0.1-0.1-0.1L30,46.1
		c0,0.1,0,0.1,0.1,0.1s0.1,0.1,0.1,0.1v0.1C30.3,46.5,30.3,46.5,30.4,46.5L30.4,46.5L30.4,46.5z M30.6,47.1L30.6,47.1
		c-0.1,0-0.1,0-0.2-0.1c0,0,0,0,0-0.1c0.1-0.1,0.1-0.1,0.1-0.2c0-0.1-0.1-0.1-0.1-0.1c-0.1,0-0.1,0-0.1,0.1s0,0.1-0.1,0.2
		c-0.1,0.1-0.1,0.1,0,0.2v0.1c0,0.1,0.1,0.2,0.1,0.3h0.1v-0.1C30.6,47.2,30.6,47.2,30.6,47.1c0.1,0.1,0.1,0.1,0.1,0
		S30.7,47,30.6,47.1L30.6,47.1z M28.9,44.4h-0.1c-0.1,0-0.1,0-0.1,0s0,0,0-0.1s0-0.1,0-0.2V44c0,0,0-0.1-0.1-0.1
		c0-0.1-0.1-0.1-0.2-0.1s-0.1,0-0.1,0s0-0.1-0.1-0.1c0,0,0-0.1-0.1-0.1c0,0,0,0-0.1,0h-0.1c0,0,0,0-0.1,0l0,0l0,0c0,0,0,0.1-0.1,0.1
		l-0.1,0.1l-0.1,0.1c0,0,0,0-0.1,0.1v0.1c-0.1,0-0.1,0.1-0.2,0.1h-0.1c-0.1,0-0.1,0-0.2,0h-0.1l0,0c0,0,0,0-0.1-0.1c0,0,0,0-0.1,0
		c0,0-0.1,0.1-0.2,0.1c-0.1,0.1-0.2,0.1-0.2,0.1c-0.1,0-0.1-0.1,0-0.2V44h-0.1C26,44,26,44,26,43.9s0-0.1-0.1-0.1s-0.1,0.1-0.1,0.2
		c0,0.1,0,0.1-0.2,0.2c-0.1,0.1-0.1,0.1-0.2,0.2c0,0,0,0,0,0.1v0.1c0,0.1-0.1,0.1-0.2,0.1s-0.1,0-0.1,0.1S25,44.9,24.9,45
		c0,0,0,0-0.1,0.1c0,0,0,0.1-0.1,0.1h-0.1c0,0-0.1,0.1-0.1,0.2c0,0,0,0,0,0.1c-0.1,0.1-0.1,0.1-0.1,0.2v0.1l0,0l0,0h0.1
		c0.1,0,0.2,0,0.2,0h0.1c0.1,0,0.2-0.1,0.2-0.1l0.1-0.1c0.1,0,0.1,0,0.2-0.1s0.1-0.1,0.2-0.1h0.1c0.1,0.1,0.1,0.1,0,0.2
		c-0.1,0.1-0.1,0.2-0.1,0.2c0,0.1,0.1,0.1,0.1,0.1h0.1c0.1,0,0.2,0,0.2,0c0.1,0,0.2,0,0.2,0.1c0.1,0.1,0.1,0.1,0.2,0
		c0,0,0.1,0,0.1-0.1c0.1,0,0.1,0,0.2,0.2l0.1,0.1c0,0,0,0,0.1,0c0,0,0,0,0-0.1c0,0,0-0.1-0.1-0.1c-0.1-0.1-0.1-0.1,0-0.1h0.1
		c0.1,0,0.2,0.1,0.2,0c0.1-0.1,0.1-0.1,0.2-0.2c0.1,0,0.2,0.1,0.3,0.2l0.1,0.1c0,0,0,0,0.1,0c0,0,0,0,0-0.1s-0.1-0.1-0.2-0.2
		c-0.1,0-0.1-0.1-0.1-0.2c0-0.1,0.1-0.1,0.2-0.1h0.1c0,0,0.1,0,0.1-0.1c0.1-0.1,0.1-0.2,0.1-0.3c0,0,0-0.1-0.1-0.1s-0.1-0.1-0.1-0.1
		s0,0,0.1-0.1c0.1,0,0.2,0,0.2-0.1s0.1-0.1,0.3,0c0.1,0,0.1,0,0.1,0C29,44.6,29,44.5,28.9,44.4L28.9,44.4z M30.1,46.7L30.1,46.7
		c-0.1-0.2-0.2-0.1-0.2,0s0,0.2-0.1,0.2c0,0,0,0-0.1-0.1l-0.1-0.1c0-0.1,0-0.1,0.1-0.1l0,0h0.1c0,0,0-0.1,0-0.2v-0.1
		c0,0,0-0.1-0.1-0.2c-0.1-0.1-0.1,0-0.1,0.2c0,0.1,0,0.1,0,0.1h-0.1h-0.1c0,0,0,0,0,0.1s0,0.1,0,0.2c0,0.1,0.1,0.2,0.1,0.3
		s0.1,0.2,0.1,0.3h0.1v-0.1v-0.1h0.1C30,47,30,47,30,47c0,0.1,0,0.1,0.1,0.1s0.1,0,0.1-0.1l0,0c0,0,0,0,0-0.1
		C30.1,46.9,30.1,46.8,30.1,46.7L30.1,46.7z M28.9,42.3L28.9,42.3l-0.1-0.1c-0.1,0-0.1,0-0.1,0s0,0,0,0.1s0.1,0.1,0.1,0.1
		c0.1,0,0.1,0,0.1,0.1c0,0,0,0.1-0.2,0.3s-0.3,0.3-0.5,0.3H28c-0.1,0-0.2,0-0.2,0h-0.1c-0.1,0-0.1,0-0.2,0c-0.1,0.1-0.1,0.1-0.2,0
		L27.2,43c0,0,0,0-0.1,0v-0.1h0.1l0,0c0,0,0,0-0.1-0.1L27,42.7c0-0.1,0-0.1-0.1-0.2c-0.1-0.1-0.1-0.1-0.2,0l0,0l0,0
		c-0.1,0-0.1,0.1,0,0.1c0.1,0.1,0.1,0.2,0.1,0.3c0,0,0,0.1-0.1,0.1c-0.1,0.1-0.1,0.1,0,0.1c0.1,0.1,0.1,0.1,0.2,0.2c0,0,0,0,0.1,0
		c0,0,0.1,0,0.1,0.1l0.1,0.1c0,0,0.1,0,0.1,0.1c0,0,0,0,0.1,0h0.1l-0.1-0.1c0,0,0,0-0.1,0v-0.1c0,0,0,0,0.1,0h0.1l0.1,0.1
		c0,0,0,0,0.1,0.1h0.1c0.1-0.1,0.1-0.1,0.2,0c0,0,0.1,0,0.1,0.1v0.1c0,0.1,0.1,0.1,0.1,0.1v-0.1c0,0-0.1-0.1,0-0.1h0.1
		c0,0,0,0,0,0.1v0.1c0,0,0.1,0,0.1-0.1s0,0,0-0.1h0.1c0,0,0.1,0,0.1-0.1c0,0,0.1,0,0.1-0.1l0,0v-0.1v-0.1c0-0.1,0-0.1,0.1-0.1
		l0.1-0.1c0-0.1,0-0.2-0.1-0.2C28.9,42.4,28.9,42.4,28.9,42.3L28.9,42.3z M23.5,45.8C23.5,45.7,23.4,45.7,23.5,45.8
		C23.2,45.9,23,46,23,46s0,0,0,0.1c0.1,0.1,0.1,0.1,0.1,0l0.1-0.1C23.5,45.9,23.6,45.8,23.5,45.8z M27.8,38.3c0.1,0,0.2-0.1,0.2-0.1
		c0.1,0,0.1-0.1,0.2-0.1c0.1-0.1,0.2-0.2,0.3-0.3c0,0,0-0.1-0.1-0.1c0,0-0.1,0-0.1-0.1c-0.1-0.1-0.1-0.1-0.2-0.1c0,0-0.1,0-0.1-0.1
		c-0.1-0.1-0.1-0.1-0.1,0v0.1c0,0,0,0.1,0,0.2c0,0,0,0.1,0,0.2c0,0.1,0,0.1,0,0.2C27.9,38.2,27.9,38.2,27.8,38.3
		C27.8,38.2,27.8,38.3,27.8,38.3L27.8,38.3z M37.7,41.6c0-0.1-0.1-0.2-0.1-0.2s-0.1,0-0.1-0.1c-0.1,0-0.1,0-0.1,0s0,0,0,0.1v0.1v0.1
		h-0.1c-0.1,0-0.1,0-0.1,0v-0.1v-0.1v-0.1l0,0l0,0c0,0,0,0,0,0.1v0.1v0.1c0,0-0.1,0-0.1-0.1s0,0-0.1,0l0,0v0.1c0,0.1,0,0.1,0,0.1
		c-0.1,0.1-0.2,0.1-0.3,0.1c0,0-0.1,0-0.1,0.1L36.5,42c0,0,0,0-0.1,0l0,0c0,0,0,0,0,0.1c0,0,0,0.1-0.1,0.2c0,0.1-0.1,0.1-0.1,0.2
		l0,0c0,0,0,0-0.1,0c0,0,0,0-0.1,0v-0.1c0-0.1,0-0.2-0.1-0.2c0,0,0,0-0.1,0l0,0v0.1c0,0.1,0.1,0.2,0.1,0.3c0.1,0.1,0.1,0.3,0.2,0.4
		v0.1v0.1v0.1c0,0,0,0.1,0.1,0.1c0,0.1,0.1,0.1,0.1,0.2l0.1,0.1v0.1c0,0,0,0,0.1,0s0.1,0,0-0.2c0-0.1,0-0.1,0-0.2v-0.1h0.1v0.1v0.1
		l0.1,0.1l0,0c0,0,0-0.1-0.1-0.3v-0.1c0-0.1,0-0.1,0-0.1l0,0c0,0,0,0,0.1,0c0,0,0,0,0,0.1s0,0.1,0,0.1s0,0,0-0.1s0-0.1,0.1-0.1
		c0,0,0,0,0.1,0c0,0,0,0,0-0.1v-0.1H37h0.1c0,0,0,0,0.1,0s0.1,0,0.2,0.1c0,0.1,0.1,0.1,0.1,0c0.1,0,0.1-0.1,0.1-0.2v-0.1l0,0
		c0,0,0,0,0.1,0.1c0,0.1,0.1,0.2,0.2,0.1c0,0,0,0,0-0.2c0-0.1,0-0.2-0.1-0.3c0-0.1,0-0.2-0.1-0.2c-0.1-0.1-0.1-0.2,0-0.2
		c0,0,0,0,0.1,0c0,0,0,0,0.1,0c0,0,0,0,0,0.1c0,0,0,0.1,0,0.2c0,0.2,0,0.2,0.1,0.2h0.1c0,0,0-0.1,0-0.2c0-0.1,0-0.2,0-0.2
		c0-0.1,0-0.1,0-0.2v-0.1c0-0.1-0.1-0.2-0.2-0.2C37.8,41.8,37.7,41.7,37.7,41.6L37.7,41.6z M30.6,36.5
		C30.6,36.5,30.7,36.5,30.6,36.5c0.1,0.1,0.1,0.2,0.1,0.2c0,0.1,0,0.1,0.1,0.1s0.2,0,0.2,0.1c0.1,0.1,0.2,0.1,0.2,0c0,0,0,0,0.1,0
		s0.1,0,0.1,0.1s0,0.1,0,0.2c0,0,0,0.1,0,0.2v0.1c0,0,0,0,0.1,0s0.1,0,0.1,0c0,0.1,0.1,0.1,0.1,0.1s0,0,0.1,0c0,0,0.1-0.1,0.2-0.1
		l0.1,0.1c0,0,0,0,0,0.1h0.1c0,0,0-0.1,0-0.2c0-0.1,0-0.2,0-0.3s0-0.2,0-0.2s0,0-0.1,0l0,0c0,0,0,0,0,0.1s-0.1,0.1-0.2,0
		c-0.1,0-0.1-0.1-0.1-0.2c0-0.1,0-0.2-0.1-0.2h-0.1c-0.1-0.1-0.1-0.1-0.2-0.2c-0.1-0.1-0.1-0.1-0.2-0.2c0,0-0.1,0-0.2,0.1h-0.1
		c0,0,0,0,0-0.1c0,0,0-0.1-0.1-0.1c0,0,0,0-0.1,0.1l-0.1,0.1h-0.1c-0.1,0-0.1,0-0.1,0C30.6,36.4,30.6,36.5,30.6,36.5z M27.8,38.3
		L27.8,38.3L27.8,38.3L27.8,38.3z M23.3,46.2c-0.1,0-0.1,0-0.1,0S23.2,46.3,23.3,46.2c0.1,0.1,0.1,0.1,0.2,0.1
		C23.5,46.3,23.5,46.3,23.3,46.2z M24.9,44.4c0,0,0.1-0.1,0.2-0.1c0,0,0.1-0.1,0.1-0.2c0.1-0.1,0.2-0.3,0.3-0.4
		c0-0.1,0.1-0.1,0.1-0.2c0.1-0.1,0.1-0.1,0.1-0.2l0.1-0.1c0.1-0.1,0.2-0.2,0.2-0.4c0-0.1,0-0.1,0-0.2c0-0.1,0-0.1,0-0.1s0,0-0.1,0
		l-0.1,0.1c-0.1,0.3-0.2,0.5-0.4,0.7l-0.2,0.2c0,0.1-0.1,0.1-0.1,0.1C25,43.7,25,43.7,25,43.8c0,0.1-0.1,0.2-0.1,0.2
		C24.9,44.3,24.9,44.3,24.9,44.4L24.9,44.4L24.9,44.4z M28.1,47.1L28,47.2c0,0-0.1,0.1-0.1,0.2c0,0-0.1,0.1-0.1,0.2v0.1
		c0,0.1,0,0.1-0.1,0.2L27.6,48l-0.1,0.1c-0.1,0-0.1,0.1-0.1,0.1l0,0c0,0,0.1,0,0.2,0l0.1-0.1c0.1-0.1,0.2-0.2,0.3-0.3
		c0,0,0-0.1-0.1-0.1s-0.1-0.1,0-0.2l0.1-0.1c0,0,0-0.1,0.1-0.1c0,0,0,0,0.1-0.1C28.2,47.2,28.2,47.2,28.1,47.1
		C28.2,47.1,28.2,47,28.1,47.1L28.1,47.1z M30.7,43l0.1,0.1c0,0,0.1,0,0.1-0.1s-0.1-0.1-0.2-0.2c-0.1,0-0.1,0-0.1,0S30.6,43,30.7,43
		L30.7,43z M52.4,52.1c0-0.1-0.1-0.1-0.2-0.2c0,0-0.1-0.1-0.1,0H52c0,0,0,0,0-0.1l-0.1-0.1l-0.1-0.1c0-0.1-0.1-0.2-0.1-0.3l-0.1-0.1
		c-0.1-0.2,0-0.3-0.1-0.5c0-0.1,0-0.1-0.1-0.2c0-0.1,0-0.2,0-0.2l0.1-0.1c0,0,0.1,0,0.1-0.1L51.5,50c0,0,0,0-0.1,0
		c-0.1-0.1,0-0.2,0.1-0.1h0.1c0,0,0,0,0-0.1c0,0,0,0-0.1,0s-0.1,0-0.1,0.1c-0.1,0-0.1,0.1-0.2,0.1c0,0-0.1,0-0.1-0.1v-0.1
		c0-0.1,0-0.1-0.1-0.1s-0.1,0-0.2,0v0.1c0,0.1,0,0.1,0,0.2c0,0,0,0.2,0,0.3s-0.1,0-0.2,0v-0.1c0-0.1,0-0.1,0-0.1s0,0,0.1-0.1
		c0,0,0,0,0-0.1s-0.1-0.2-0.1-0.2c-0.1,0-0.1,0-0.2-0.1c-0.1-0.1-0.1-0.1-0.2,0c0,0,0,0,0,0.2v0.1l0.1,0.1l0.1,0.1v0.1
		c-0.1,0.3-0.2,0.1-0.3,0c0-0.1,0-0.2-0.1-0.2l-0.1-0.1c0-0.1-0.1-0.1-0.1-0.1c0,0.1-0.1,0.1-0.1,0.2c0,0.1,0,0.1-0.1,0.1
		c-0.1,0.1-0.1,0.1,0,0.2l0.1,0.1c0.1,0.1,0.1,0.1,0.1,0.2c0,0.1,0,0.1-0.1,0.1s-0.1,0-0.1,0s0,0.1,0,0.2c0.1,0.1,0.1,0.2,0,0.2
		c0,0,0,0-0.1,0c0,0,0,0-0.1,0v0.1c0,0.1,0,0.2,0,0.2c-0.1,0.1-0.1,0.2,0,0.3c0.1,0,0.2,0,0.1-0.1v-0.1c0-0.1,0.1-0.1,0.2-0.1
		s0.1,0,0.1,0.1c0.1,0.1,0.1,0.1,0,0.2c0,0.1,0,0.1,0,0.2c0,0,0,0.1,0,0.2V52h0.1c0.1,0,0.1,0,0.1-0.1c0,0,0,0,0.1,0s0.1,0,0.2,0.2
		c0.1,0.1,0.1,0.1,0.1,0.2c0,0,0,0.1-0.1,0.1s-0.1,0,0,0.1s0,0,0,0.1s0,0.1,0,0.1s-0.1,0-0.1,0.1s0,0.1,0.1,0.2c0,0,0,0,0.1,0l0,0
		c0.1,0,0.1-0.1,0.2-0.1c0.1-0.1,0.1,0,0.2,0.1c0,0,0.1,0,0.1,0.1c0.1,0.1,0.2,0.2,0.3,0.3c0,0-0.1,0.1,0,0.1c0,0.1,0,0.1,0.1,0.2
		c0.1,0,0.1,0,0.1-0.1l0.1-0.1l0.1-0.1c0-0.1,0-0.1,0.1-0.1h0.1v-0.1v-0.1c0.1-0.2,0.2-0.3,0.4-0.1c0,0.1,0,0.2,0,0.2h-0.1
		c-0.1,0-0.1,0.1-0.1,0.1l0.1,0.1c0,0,0,0,0.1,0c0,0,0,0,0-0.1s0-0.1,0.1-0.1s0.1-0.2,0.1-0.5C52.4,52.3,52.4,52.2,52.4,52.1
		L52.4,52.1z M72.2,47.7L72.2,47.7c-0.1,0.1-0.1,0.1-0.1,0.2V48l0,0c0.1,0,0.1-0.1,0.1-0.1C72.3,47.7,72.3,47.7,72.2,47.7L72.2,47.7
		z M49.5,50.8L49.5,50.8C49.4,50.7,49.4,50.7,49.5,50.8C49.4,50.8,49.4,50.8,49.5,50.8L49.5,50.8c-0.1,0.2-0.1,0.2-0.1,0.3
		c0,0,0,0,0.1,0h0.1l0,0V51C49.5,50.9,49.5,50.9,49.5,50.8L49.5,50.8z M75.1,52.1C75.1,52.1,75,52.1,75.1,52.1
		c-0.2,0-0.2-0.1-0.2-0.1s0,0,0-0.1l-0.1-0.1c-0.1-0.1-0.1-0.1-0.2-0.2c-0.1,0-0.1-0.1-0.1-0.1c0-0.2,0-0.2,0.1-0.2h0.1
		c0.1,0.1,0.1,0.2,0.2,0.2c0.1,0.1,0.1,0.2,0.2,0.2l0,0c0,0,0-0.1-0.1-0.2l-0.1-0.1c0-0.1-0.1-0.2-0.2-0.2c0,0,0,0-0.1,0
		s-0.1,0-0.2,0c0,0,0,0,0-0.1s0.2-0.1,0.2-0.1l0,0c0,0,0,0,0-0.1c-0.1-0.1-0.2-0.1-0.2-0.1s-0.1,0-0.1-0.1l-0.1-0.1l-0.1-0.1
		c0,0,0,0,0.1-0.1c0.1,0,0.2,0,0.2,0h0.1v-0.1h-0.1c-0.1,0-0.1,0-0.2-0.1h-0.1l0,0c0,0,0,0,0,0.1s0,0.1-0.1,0.1c0,0,0,0-0.1,0
		c0,0-0.1-0.1-0.1-0.2c0-0.1,0.1-0.1,0.1-0.2H74h0.1c0,0,0,0,0-0.1v-0.1c0,0,0,0,0.1,0h0.1c0.1,0,0.2-0.1,0.1-0.1l-0.1-0.1v-0.1
		c0-0.1,0-0.1-0.1-0.1c-0.1-0.1-0.2-0.1-0.2,0v0.1c0,0.1,0,0.1,0,0.1h-0.1c0,0,0,0-0.1,0h-0.1c-0.1-0.1,0-0.2,0-0.2
		c0.1,0,0.1-0.1-0.1-0.2c-0.2-0.2-0.2-0.2-0.2-0.3v-0.1h0.1c0.1,0,0.1-0.1,0.1-0.1c0-0.1,0-0.1-0.1-0.1s-0.1,0-0.1,0.1
		c0,0,0,0-0.1,0c0,0,0,0-0.1,0v-0.1c0-0.1,0-0.1,0-0.1s0,0,0.1,0s0.2-0.1,0.2-0.1c0.1,0,0.1,0.1,0.2,0.2c0.1,0.1,0.2,0.2,0.3,0.3
		c0.1,0,0.1-0.1,0.1-0.1C74,48.7,74,48.7,74,48.6v-0.1c0-0.1,0-0.1,0-0.1s0-0.1-0.1-0.1v-0.1l0,0h-0.1h-0.1c0,0-0.1,0-0.1-0.1
		C73.5,48,73.5,48,73.5,48l0,0c0,0,0,0,0,0.1v0.1h-0.1c0,0-0.1,0-0.1-0.1c-0.1-0.2-0.1-0.2-0.2-0.2s0,0-0.1,0s0,0-0.1,0
		s-0.1,0-0.1,0s-0.1,0-0.1-0.1c-0.1,0-0.1-0.1-0.1-0.1c0-0.1,0-0.1,0.1-0.1c-0.1-0.1-0.1-0.1-0.2,0s-0.1,0.1,0,0.3
		c0.1,0.1,0.1,0.1,0,0.2c0,0,0,0,0,0.2c0,0.1,0.1,0.1,0.1,0.2c0.2,0.3,0.1,0.6-0.1,0.2l-0.1-0.1c0-0.1-0.1-0.2-0.2-0.2
		c0-0.1-0.1-0.2-0.1-0.2l0,0c-0.1,0-0.1,0-0.1,0.1s0,0.2,0.1,0.3s0.1,0.2,0.2,0.3c0,0.3,0,0.3-0.2,0.3c0-0.1-0.1-0.1-0.1-0.1h0.1
		c0,0,0,0,0-0.1S72,48.8,72,48.8s0,0-0.1,0c0,0,0,0,0,0.1s0,0.1,0,0.1s-0.1,0-0.1-0.1s0-0.1,0-0.2c0-0.1,0-0.1,0-0.2
		c-0.1-0.1-0.1-0.2-0.1-0.2h-0.1c0,0,0,0,0,0.1c0,0,0,0.1,0,0.2v0.1c0,0,0,0,0,0.1c0,0,0.1,0,0.1,0.1c0,0,0,0.1,0.1,0.1
		c0.1,0.1,0.2,0.2,0.2,0.3c0,0.2-0.1,0.2-0.3,0.1c0-0.1-0.1-0.2-0.1-0.2h-0.1c-0.1,0-0.1-0.1-0.1-0.2c0-0.1,0.1-0.1,0.1-0.2l0,0
		c0,0-0.1,0-0.2,0.1c-0.1,0-0.1,0.1-0.2,0.1c0,0,0,0-0.1,0.1c0,0,0,0,0,0.1c0,0,0,0,0,0.1c0,0,0,0.1,0.1,0.1
		c0.1,0.1,0.1,0.1,0.1,0.1c0,0.1,0,0.1,0,0.1c0,0.1,0,0.2-0.1,0.2s-0.1,0-0.1,0c0,0.3-0.2,0.4-0.3,0c0-0.1,0-0.1,0-0.2
		c0-0.3,0.1-0.1-0.1-0.3c0,0,0-0.1-0.1-0.1c0,0-0.1,0-0.1,0.1v0.1c0,0.1,0,0.2-0.1,0.2s-0.1,0.1-0.1,0.3c0,0.1,0,0.2,0.1,0.3
		c0,0.1,0.1,0.2,0.1,0.3c0,0,0,0.1,0.1,0.1c0.1,0.1,0.1,0.2,0.1,0.3s0,0.1,0,0.2c0,0.1,0,0.1,0,0.1s0,0,0.1,0s0,0,0,0h0.1
		c0,0,0,0,0,0.3c0,0.2,0,0.2,0.1,0.3c0.1,0,0.1,0,0.1,0c0-0.1,0.1-0.1,0.1-0.2c0-0.1,0-0.1,0-0.2c0-0.2,0-0.2,0-0.3
		c0.1-0.2,0.2-0.1,0.2,0c0,0,0,0.1-0.1,0.1c0,0-0.1,0.1,0,0.2c0,0.1,0,0.1,0,0.2c0,0.2,0,0.2,0.1,0.2s0.1-0.1,0.1-0.1s0,0,0.1,0
		s0.1,0,0.1,0.1s0,0.1,0.1,0.1c0,0,0,0,0.1,0c0,0,0,0,0-0.1c0,0,0,0,0.1,0c0,0,0.1,0,0.1,0.1c0,0,0.1,0,0.1,0.1c0,0,0,0,0.1,0
		c0,0,0,0,0-0.1s0-0.1,0-0.2c0-0.1,0-0.1,0.1-0.1s0.1,0,0.1,0.2c0,0.1,0,0.2,0,0.3s0,0.1,0,0.2c0,0.1,0.1,0.1,0.1,0.1
		c0-0.1,0-0.3,0-0.4v-0.1c0-0.1,0-0.1,0.1-0.1s0.1,0.1,0.1,0.3s0,0.3,0.1,0.3s0.1-0.1,0.1-0.2c0-0.1,0-0.2,0-0.3H73
		c0.1,0,0,0,0.1,0.3c0,0.1,0,0.2,0,0.3c0,0,0.1,0.1,0.1,0c0.1,0,0.1,0,0.2,0c0,0,0,0,0.1,0c0,0,0,0,0-0.2c0-0.1,0-0.1,0.1-0.2
		c0,0,0.1-0.1,0.1-0.2c0-0.1,0-0.1,0.1-0.1h0.1c0.1,0.1,0.1,0.2,0,0.3c-0.1,0.2,0,0.5,0,0.6H74c0,0,0,0,0-0.1s0-0.1,0-0.2
		c0-0.1,0.1-0.1,0.1,0c0.1,0,0.1,0.1,0,0.2c0,0.1,0,0.3,0.1,0.4c0,0,0,0,0.1,0c0,0,0,0,0.1-0.1v-0.1h0.1l0,0c0,0,0.1,0,0.1-0.1
		c0,0,0.1-0.2,0.1,0c0,0.1,0.1,0.1,0.1,0.1s0,0,0-0.1C75,52.3,75,52.2,75.1,52.1C75,52.1,75.1,52.2,75.1,52.1L75.1,52.1z M34.9,44
		C34.9,43.9,34.9,43.9,34.9,44c0.1-0.1,0.1-0.1,0.1-0.2v-0.1c0,0-0.1-0.1-0.1-0.2v-0.1l-0.1-0.1c-0.1-0.1-0.1-0.1-0.1-0.1
		s0,0,0.1-0.1c0.1,0,0.1-0.1,0-0.2c-0.1-0.1-0.1-0.1-0.2-0.1c-0.2-0.1-0.3-0.2-0.4-0.5c0-0.1,0-0.2-0.1-0.2c-0.1-0.1-0.1-0.2,0-0.3
		s0-0.2,0-0.2l0,0L34,41.5l-0.1-0.1l-0.1-0.1v-0.1c0-0.1,0-0.1,0-0.2c0-0.1-0.1-0.1-0.2-0.1h-0.1c-0.1,0-0.1,0-0.2,0h-0.1l0,0
		c0,0,0-0.1-0.1-0.1c-0.1-0.2-0.2-0.3-0.3-0.5c-0.1-0.1-0.1-0.2-0.1-0.3c0,0,0-0.1-0.1-0.1l0,0c0,0,0,0,0,0.1s0,0.1,0,0.1v0.1v0.1
		c0,0.1,0,0.1-0.1,0.2c-0.1,0.1-0.1,0.1-0.2,0.2v0.1c0,0.1,0,0.1-0.1,0c-0.1,0-0.2,0-0.3,0h-0.1l-0.1-0.1c0,0,0,0,0-0.1l-0.1-0.1
		c-0.1,0-0.1,0-0.3-0.2c-0.1-0.1-0.2-0.1-0.2-0.1v0.1c0.1,0.1,0,0.2,0,0.2c-0.1,0-0.1,0-0.2-0.1s-0.1-0.1-0.1-0.1h-0.1h-0.1v-0.1
		c0-0.1,0-0.1,0.1-0.1h0.1c0,0,0,0,0.1,0L31,40l0,0c0,0-0.1,0-0.1-0.1c-0.1,0-0.1,0-0.1,0c-0.1,0-0.1,0-0.2,0c0,0,0,0,0-0.1V40h0.1
		c0.1,0,0.1,0,0.1-0.1v-0.1c0-0.1,0-0.1,0-0.2c0-0.1,0-0.1,0-0.2c0-0.1,0-0.1,0.1-0.1s0.1,0,0.1,0.1c0.1,0.1,0.1,0.1,0.2,0h0.1
		c0,0,0.1,0,0.1,0.1l0.1,0.1c0,0,0.1,0,0.1-0.1c0,0,0.1-0.1,0.2-0.1s0.1-0.1,0.2-0.1c0,0,0,0,0-0.1s-0.1-0.1-0.2-0.1s-0.1,0-0.1,0
		s-0.1,0-0.1-0.1c0,0-0.1,0-0.1-0.1c0,0,0,0-0.1-0.1c0,0,0,0-0.1-0.1c0-0.1-0.1-0.2-0.2-0.2H31c-0.1,0-0.1,0-0.1-0.1v-0.1
		c-0.1,0-0.1-0.1-0.1-0.1c0-0.1,0-0.1-0.1-0.1s-0.1-0.1-0.1-0.2c0-0.1,0-0.1,0-0.2v-0.1l-0.1-0.1c-0.1-0.1-0.1-0.1-0.1-0.2
		c0,0,0,0,0-0.1v-0.1c0,0,0-0.1,0.1-0.1l0.1-0.1v-0.1c0-0.1,0-0.1,0-0.2c0,0-0.1,0-0.2,0.2c0,0.1-0.1,0.1-0.1,0.2h-0.1v0.1
		c0,0.1,0,0.1,0,0.1v0.1v0.1c0,0.1,0,0.1,0.1,0.2c0.1,0.1,0.1,0.2,0.1,0.3V38c0.1,0.1,0.1,0.1,0,0.2c0,0-0.1,0.1-0.1,0.2l-0.1,0.1
		l0,0c0,0.1,0,0.1-0.1,0.1s-0.1,0-0.1-0.1v-0.1c0.1-0.1,0.1-0.1,0-0.2s-0.1-0.1-0.1-0.1V38c0-0.1,0-0.2,0-0.3s-0.2,0-0.2,0.1
		c0,0,0,0,0,0.1s0,0.1,0,0.2l-0.1,0.1c0,0.1,0,0.1-0.1,0.2c0,0-0.1,0-0.1,0.1c0,0,0,0,0,0.1v0.1c0,0,0,0-0.1,0s-0.1,0-0.1-0.1
		s0.1-0.2,0.1-0.3c0,0,0,0,0-0.1v-0.1V38c0-0.1,0.1-0.2,0-0.2s-0.1-0.1-0.1,0c0,0,0,0,0,0.1s-0.1,0.2-0.1,0.2
		c-0.1,0.1-0.2,0.1-0.2-0.1v-0.1c0-0.1-0.1,0-0.1,0.1v0.1c0,0,0,0.1,0,0.2v0.1l0,0c0,0.1-0.1,0.1-0.2,0.2h-0.1c0,0,0-0.1-0.1-0.1
		s-0.1,0-0.1,0.2c0,0.1,0,0.2,0,0.3s0,0.1,0,0.2v0.1c-0.1,0.1-0.1,0-0.2,0c-0.1-0.1-0.1-0.1-0.2-0.1c0,0.1-0.1,0.1,0,0.3
		c0,0.1,0,0.1,0,0.2c0,0.1,0,0.1-0.1,0.1s-0.1,0-0.1-0.1s0-0.2,0-0.2s-0.1,0-0.1,0.1s0,0.1,0,0.2c0,0.1,0,0.2,0,0.3v0.2l-0.1,0.1
		l-0.1,0.1c0,0.1-0.1,0.1-0.1,0.1s0,0,0,0.1s0,0.2,0.1,0.3c0,0.1,0,0.1,0,0.2v0.1c0,0,0,0,0.2,0h0.1h0.1c0.1,0,0.1,0.1,0.1,0.1
		s0.1,0.1,0.1,0v-0.1c0-0.1,0-0.1,0.1-0.1h0.1c0.1,0.1,0.2,0.1,0.1-0.2c0-0.3,0-0.4,0-0.4l0,0h0.1c0.1,0,0.2,0,0.2-0.2
		c0-0.1,0-0.1,0-0.2c0-0.1,0-0.1,0-0.1s0,0,0.1-0.1c0,0,0,0,0.1-0.1l0,0c0,0,0,0-0.1-0.1c0-0.1,0-0.2,0-0.3s0.1-0.1,0.1-0.1
		s0.1,0,0.1-0.1v-0.1c0-0.1,0.1-0.1,0.1-0.1c0.1,0,0.1,0,0.1,0.1v0.1c0,0,0,0-0.1,0.1c-0.1,0-0.1,0.1-0.1,0.2c0,0,0,0.1-0.1,0.1
		c0,0,0,0.1-0.1,0.1c0,0,0,0.1,0.1,0.1c0.1,0.1,0.1,0.1,0.1,0.3c0,0.1,0,0.3,0.1,0.4c0,0.1,0,0.1,0,0.1s0,0-0.1,0h-0.1
		c0,0,0,0,0-0.1s-0.1-0.1-0.1,0v0.1v0.1l0.1,0.1c0.1,0.1,0.1,0.1,0.1,0.1c0,0.1-0.1,0.1-0.1,0.1s0,0-0.1,0c0,0-0.1,0.1,0,0.1l0,0
		l0.1,0.1l0,0c0.1,0,0.1,0,0.2,0.1s0.1,0.1,0.1,0.1s0,0,0,0.1s0,0.1-0.1,0.1h-0.1c-0.1,0-0.1,0-0.1,0l-0.1-0.1
		c0-0.1-0.1-0.1-0.2,0.1c0,0.1,0,0.1-0.1,0.1s-0.1,0-0.1-0.1c0,0-0.1,0-0.1-0.1c-0.1,0-0.1,0.1-0.1,0.1s0,0,0,0.1h0.1
		c0.1,0,0.1,0,0.2,0.1c0.1,0,0.1,0,0.2,0h0.1c0.1,0,0.1,0,0.2,0H29c0.1,0,0.1,0,0.1,0s0,0,0-0.1v-0.1l0.1-0.1c0.1,0,0.1,0,0.2-0.1
		c0.2-0.1,0.2-0.2,0.3-0.1c0.1,0,0.1,0,0.1,0c0.1,0,0.1-0.1,0.2,0c0.1,0,0.1,0,0.2,0c0,0,0,0,0.1,0c0,0,0,0,0.1,0.1
		c0,0.1,0,0.1,0.1,0.1l0,0v0.1v0.1l0,0c0,0,0.1,0.1,0,0.1s-0.1,0-0.1-0.1s-0.1-0.1-0.1-0.1l0,0c0,0,0,0.1,0.1,0.2l0.1,0.1
		c0,0.1,0.1,0.1,0.2,0.2c0.1,0,0.1,0.1,0.1,0.1c0.1,0,0.1,0.1,0.2,0.1h0.1c0.1,0,0.1,0,0.1,0h0.1c0,0,0.1,0.1,0.2,0.1c0,0,0,0,0.1,0
		c0,0,0.1-0.1,0.1,0l0.1,0.1c0,0,0,0.1,0.1,0.1c0,0,0.1,0.1,0.1,0.2c0,0,0,0-0.1,0c0,0,0,0-0.1,0c0,0-0.1,0-0.1,0.1s0.1,0.1,0.1,0.1
		c0.1,0.1,0.1,0.2,0.1,0.3v0.1c0,0,0,0,0,0.1s0,0.1-0.1,0.1c0,0,0,0-0.1,0c0,0-0.2,0-0.2-0.1v-0.2c0-0.1-0.1-0.1-0.2-0.2
		c0,0,0,0-0.1,0s0,0,0,0c0,0.1,0.1,0.2,0.1,0.3s0.1,0.1,0,0.2l0,0l0.1,0.2c0.1,0.2,0.1,0.3,0,0.3s-0.2-0.1-0.2-0.2c0,0,0,0-0.1,0
		s-0.1,0,0,0.1c0,0.1,0,0.2,0.1,0.2c0,0.1,0,0.1,0,0.1s-0.1,0-0.1-0.1L31,44.2c-0.1-0.2-0.2-0.3-0.3-0.2h-0.1c-0.1,0-0.1,0-0.1,0
		s0,0-0.1-0.1L30.3,44c0,0,0,0.1,0.2,0.2c0.1,0.1,0.1,0.1,0.2,0.2l0.1,0.1h0.1H31c0.1,0,0.1,0,0.1,0.1s0.1,0.1,0.1,0.1l0,0
		c0,0,0,0,0.1,0s0.1,0,0.1,0.1v0.1c0,0.1,0,0.1-0.1,0.1h-0.1c0,0,0,0,0-0.1c-0.2-0.1-0.4,0.1-0.4-0.1v-0.1c0,0,0,0-0.1,0
		c0,0,0,0-0.1,0s-0.1,0-0.1-0.1l-0.1-0.1h-0.1c0,0,0,0-0.1,0s-0.1,0-0.2,0c-0.1-0.1-0.2-0.1-0.2,0c0,0,0,0.1,0.1,0.1l0.1,0.1
		c0.1,0,0.1,0.1,0.2,0.2V45c0,0,0,0,0,0.1c0,0,0,0.1,0,0.2v0.1l0.1,0.1c0,0,0,0,0.1,0s0.1,0,0.2,0h0.1c0.1-0.1,0.2-0.1,0.1,0.1
		c0,0.1,0,0.2,0.1,0.3H31l0,0c0,0,0,0,0-0.1s0.1-0.2,0.1-0.2s0.1,0,0.1,0.1l0.1,0.1c0,0,0.1,0.1,0.1,0.2v0.1c0,0-0.1,0-0.2-0.1
		c0,0,0,0-0.1-0.1l0,0c0,0,0,0,0,0.1v0.1l0,0h0.1c0.1,0.1,0.1,0.1,0.1,0.3c0,0.1,0,0.2,0,0.2c0,0.1,0.1,0.2,0.1,0.3
		c0,0,0,0.1,0.1,0.1c0.1,0.1,0.1,0.1,0.2-0.1c0,0,0-0.1,0.1-0.1c0,0,0,0,0-0.1v-0.1c0,0-0.1,0-0.1-0.1l-0.1-0.1v-0.2
		c0-0.1,0-0.2-0.1-0.3c0,0,0,0,0-0.1h0.1h0.1c0,0,0.1,0,0.1,0.1V46c0,0.1,0,0.1,0,0.2v0.1v0.1h0.1l0,0c0,0,0,0,0.1,0
		c0.1,0,0.1,0,0.1,0c0,0.1,0.1,0.1,0.1,0.1c0.1-0.1,0-0.1,0-0.3c0-0.1,0-0.1,0-0.2v-0.1H32c0,0,0,0,0.1,0c0,0,0,0.1,0.1,0.1
		c0,0.1,0.1,0.1,0.1,0.1s0,0,0-0.1s0.1-0.1,0.1,0s0.1,0,0.1,0s0,0,0-0.1s0-0.2,0-0.2c0-0.2,0-0.2,0-0.2h0.1l0.1,0.1
		c0,0.1,0.1,0.3,0.1,0.4c0,0,0.1,0,0.1-0.1l0.1-0.1l0.1-0.1v-0.1c0-0.1-0.1-0.2-0.1-0.3v-0.1c0-0.1,0-0.2,0-0.2v-0.1v-0.1v-0.1h0.1
		h0.1c0,0,0.1,0.1,0.2,0.1c0.1,0,0.2,0,0.2,0c0.1,0,0.1,0,0.1-0.1c0,0,0,0,0.1,0h0.1v0.1L34,45c0,0,0,0.1,0.1,0.1h0.1l0,0
		c0-0.1,0-0.2-0.1-0.3c0-0.1-0.1-0.2-0.1-0.3l0,0.6c0-0.1,0-0.1,0.1-0.2l0.1-0.1v-0.1c0-0.1,0-0.2,0-0.3s-0.1-0.2-0.1-0.3
		c0,0,0-0.1,0.1-0.1s0.1,0.1,0.1,0.2c0,0.1,0,0.1,0.1,0.2v0.1c0,0.1,0,0.3,0.1,0.4c0.1,0.1,0.1,0.2,0.2,0.2c0,0,0,0,0.1,0V45v-0.1
		v-0.1v-0.1c0-0.1,0-0.1,0.1-0.2c0,0,0,0,0-0.1c-0.1-0.1-0.1-0.2-0.1-0.4C34.8,43.9,34.8,43.9,34.9,44C34.9,43.9,35,43.9,34.9,44
		c0.1,0,0.1,0.1,0.2,0.1c0,0,0.1,0,0.1,0.1l0.1,0.1c0,0,0,0,0.1,0l0,0c0,0,0-0.1-0.1-0.2C34.8,44,34.9,44,34.9,44L34.9,44z M30.4,39
		c-0.1,0-0.1,0-0.1,0c-0.1,0-0.1,0-0.1,0s0-0.1,0.1-0.1s0.1,0,0.2,0c0.1,0.1,0.1,0.1,0.1,0.2l0,0c0,0,0.1,0,0.1,0.1h-0.1
		c0,0-0.1,0-0.1-0.1C30.5,39.1,30.5,39,30.4,39L30.4,39z M30.8,45.7h-0.1l0,0c0,0,0,0-0.1,0c0,0-0.1,0-0.1-0.1c0,0,0-0.1,0.1-0.1
		c0,0,0,0,0.1,0c0,0,0,0,0.1,0c0,0,0,0,0.1,0.1C30.9,45.5,30.9,45.6,30.8,45.7L30.8,45.7z M35.3,39.4c0-0.3,0-0.3,0-0.3V39l0,0
		c0.1,0,0.1,0,0.1,0.2C35.4,39.3,35.4,39.4,35.3,39.4c0.1,0.1,0.1,0.1,0.1,0.2c0,0.1,0,0.1,0,0.2c0,0.1,0.1,0.2,0.1,0.3
		c0,0.2,0,0.2,0.1,0.3c0,0,0,0,0.1,0v-0.1v-0.1c0-0.1,0-0.1,0-0.2c0-0.1,0-0.1,0-0.1c0.1,0,0.1,0,0.1,0.1v0.1c0,0,0,0,0,0.1v0.1
		c0,0.1,0.1,0.1,0.1,0.1s0-0.1,0-0.2c-0.1-0.2-0.1-0.4-0.1-0.7v-0.2c0-0.1,0-0.1,0.1-0.1s0.1,0.1,0.2,0.2c0,0,0,0,0,0.1
		c0,0,0,0.1,0.1,0.2c0,0.1,0,0.2,0.1,0.2c0,0,0,0,0.1,0c0,0,0,0,0-0.1s0-0.2-0.1-0.3c0-0.1,0-0.2,0-0.3l0,0h0.1c0.1,0,0.1,0,0.1,0
		v0.1c0,0.1,0.1,0.1,0.1-0.1v-0.1h0.1h0.1h0.1V39c0-0.1,0-0.1,0.2-0.3l0.1-0.1v-0.1c0-0.1,0-0.2,0-0.3s0.1-0.1,0.2-0.1h0.1
		c0,0,0,0,0-0.1l0,0h0.1c0.1,0,0.1,0,0.1,0s0,0,0-0.1c-0.1-0.1-0.1-0.2-0.2-0.3c-0.1-0.1-0.1-0.1,0-0.2v-0.1v-0.1l-0.1-0.1
		c0,0-0.1,0-0.1-0.1c-0.1-0.1-0.2-0.1-0.3-0.2c0,0,0,0-0.1,0c0,0-0.1,0-0.2,0c0-0.1,0-0.1,0-0.1c0-0.1,0.1-0.1,0.1-0.2
		c0-0.1,0.1-0.2,0.2-0.3c0,0,0.1-0.1,0.1-0.2c0-0.1,0.1-0.1,0.1-0.2c0-0.1,0.1-0.1,0.1-0.2l0.1-0.1v-0.1c0-0.1,0.1-0.1,0.1-0.2
		c0,0,0-0.1,0.1-0.2l0.1-0.2v-0.1l-0.1-0.1l0,0l-0.1,0.1c-0.1,0.1-0.1,0.2-0.1,0.2c0,0.1,0,0.1-0.1,0.4c0,0.1-0.1,0.1-0.1,0.2
		c0,0,0,0.1-0.1,0.1c0,0,0,0-0.1,0l0,0v-0.1c0-0.1,0-0.1-0.1-0.2c0,0,0-0.1-0.1-0.1l0,0c0,0,0,0-0.1,0c0,0-0.1,0-0.1-0.1
		c-0.1-0.1-0.2,0-0.2,0.2s0,0.2-0.1,0.2s-0.1,0-0.1-0.1s-0.1-0.1-0.1,0S36,35.6,36,35.7l-0.1,0.1c0,0.1,0,0.1-0.1,0.1
		s-0.1,0-0.1-0.1c0,0,0-0.1-0.1-0.1c0,0,0-0.1-0.1-0.1c0,0,0-0.1-0.1-0.1l-0.1,0.1c0,0.1,0,0.1,0,0.2c0,0.1,0,0.1,0,0.2
		c0,0,0,0.1-0.1,0.1h-0.1l0,0c0,0,0-0.1-0.1-0.1c0,0,0,0-0.1,0h-0.1c0-0.1,0-0.2,0-0.3s0-0.2,0-0.4c0-0.1-0.1-0.2-0.1-0.2s0,0,0,0.5
		c0,0.3,0,0.5,0,0.5c0,0.1,0,0.1-0.1,0.2c0,0.1-0.1,0.2-0.1,0.2c0,0.1,0,0.1,0,0.2v0.1c0,0.1,0,0.1,0,0.2c0,0,0,0.1-0.1,0.1
		s-0.1,0-0.1,0c-0.1-0.1,0-0.1,0-0.1v-0.1c0-0.1,0-0.1,0-0.2c0-0.2-0.1-0.4-0.1-0.4s-0.1,0-0.1,0.1c0,0,0,0.1,0,0.2v0.1v0.1
		c0.1,0.1,0.1,0.1,0,0.2c-0.1,0.1-0.2,0-0.2-0.1v-0.1h-0.1c-0.1,0.1-0.1,0.2,0,0.3c0,0.1,0,0.2,0,0.3s0,0.2,0,0.2v0.1v0.1
		c0,0,0,0,0,0.1V38l-0.1,0.1c-0.1,0.1-0.1,0.1,0,0.1c0,0.1,0,0.2,0,0.2s0,0.1-0.1,0.1c0,0-0.1,0.1-0.1,0.2c-0.1,0.1-0.1,0.2-0.1,0.3
		s0.1,0.1,0.2,0c0-0.1,0-0.1,0.1-0.1c0,0,0,0,0.1,0c0.1,0.1,0.1,0,0.2-0.1v-0.1h0.1c0.1,0,0.1,0,0.1,0s0.1,0.1,0,0.3v0.2v0.1
		c0,0.1,0,0.1,0.1,0.3s0,0.2,0,0.2s0,0,0.1,0l0.1-0.1c0-0.1,0-0.1,0.1-0.1s0.1,0,0.1,0v0.1c-0.1,0.1-0.1,0.1,0,0.1c0,0,0,0,0.1,0
		l0.1-0.1C35.3,39.7,35.3,39.7,35.3,39.4L35.3,39.4z M30.4,43.5C30.4,43.6,30.4,43.6,30.4,43.5c0.2,0,0.2-0.1,0-0.2
		C30.1,43.1,30.3,43.5,30.4,43.5L30.4,43.5z M64.3,45.7C64.3,45.3,64.4,45.6,64.3,45.7c0.1,0,0.2-1.1,0.1-1.1c0.4,0,0.2,2.3,0.4,2.2
		c0.1-0.1,0.2-1.8,0.1-2C65,45.2,65,45.6,65,46c0.2-0.3,0.2-0.7,0.1-1c-0.1-0.4-0.1-1,0-1.4c0,0.4,0,2.3,0.3,2.4
		c-0.2-0.1,0.2-3,0.2-3c0-0.1,0.1,0.9,0.2,0.6c0-0.3,0.1-0.5,0.1-0.8c0,0.4,0.1,0.8,0.1,1.1c0,0.1,0.1-1.2,0-1.2
		c0.1,0,0.1,0.6,0.1,0.8c0.3-0.4,0.3-0.8,0.3-1.3l0.2,0.4c0.1-0.1,0.1-0.8,0.1-1c0,0.1,0,1,0.1,1s0.2-1,0.2-1c0.4,0.2,0,1.7,0.3,2
		c0,0,0.3-0.4,0.2-0.4c-0.1-0.3-0.2-0.6-0.2-0.9c0.1,0.1,0-1.1,0-1.1c0.1,0.1,0.2,0.2,0.2,0.4c0.1,0.1,0.2-0.7,0.2-0.8
		s0-0.2,0.1-0.3c0.1,0.1,0.1,0.2,0.2,0.4c0-0.1,0-0.2,0.1-0.3c0.1,0.2,0.2,1.1,0.5,1.1c-0.2,0,0.1-2.1-0.1-2.2
		c0.3,0.3,0.4,2.5,0.6,1.7c0,0.1,0-1,0-0.6c0-0.2-0.3-1.5-0.3-1.5c0.1,0.1,0.2,0.2,0.2,0.4c0.1-0.1-0.1-0.7-0.1-0.9
		c0.4,0.7,1.1,1.4,1.1,2.2c0,0.1,0,0.2,0.1,0.3c0.2,0.1-0.4-1.8-0.4-1.7c0-0.2-0.1-0.5-0.2-0.7c0-0.1,0-0.1,0,0l0.3,0.6
		c0.6,0.6,0,0.3,0.1,0.5s0.2,0.2,0.3,0c0-0.2-0.5-1.3-0.3-1.5c0.1-0.1,0.6,1.6,0.8,1.6c0.1-0.2,0.1-0.3-0.1-0.5
		c-0.2-0.3-0.4-1.3-0.4-1.3c0,0.1,0.3,1.3,0.5,1.3c0.1,0-0.4-2-0.5-2c0.1,0.1,0.2,0.3,0.2,0.4c0-0.2,0-0.3,0-0.4
		c0.3,0.5,0.4,1,0.7,1.5c-0.1-0.2-0.5-2.6-1-2.5c-0.1,0-0.6,0.1-0.2,0.3c-0.1-0.3-0.2-0.6-0.3-0.9c0,0.1,0,0.2,0,0.4
		c0,0-0.4-0.8-0.4-0.7c-0.1,0,0.3,0.6,0.1,0.6c0.1,0-0.6-1.2-0.6-0.9c0.1,0.2,0.1,0.4,0.2,0.5c-0.1-0.2-0.3-0.3-0.4-0.5
		c0,0.2,0.1,0.5,0.2,0.7c0,0-0.6-1.2-0.5-1c0,0,0.2,1,0.3,1.1c0,0.1-1-1.4-1-1.1c0.1,0.3,0.2,0.5,0.4,0.8c-0.1-0.1-1.2-0.8-1.2-0.7
		c0-0.2,1.2,1.4,1.1,1.4c0,0.1-0.4-0.8-0.5-0.8c-0.2,0,0.6,1.1,0.5,1.3c-0.1-0.1-0.3-0.3-0.4-0.5c-0.1,0-0.1-0.1-0.1-0.2
		c0-0.3-0.7-1-1-1.1c0.1,0,0.8,1.5,0.9,1.5c-0.1,0-0.6-0.9-0.7-0.8c-0.1,0.1,0.5,1,0.5,1c-0.1,0-0.5-0.6-0.6-0.6
		c-0.2,0.1,1.2,1.4,1,1.6c-0.2,0.2-0.7-0.6-0.8-0.6c0,0.2,0.1,0.3,0.2,0.5c0-0.1-0.6-0.2-0.2,0.1c0.1,0.1,0.2,0.3,0.3,0.4
		c0,0-0.4-0.2-0.2,0c0.1,0.2,0.2,0.4,0.3,0.6c0-0.1-0.7-1.3-0.7-1.3c-0.2-0.2-0.4-0.5-0.6-0.7c0.3,0.1,0.9,2.1,0.8,2.1
		c0,0-0.3-0.7-0.5-0.6c0,0.1,0.1,0.3,0.1,0.4c0-0.4-0.5-0.9-0.6-1.3c-0.1-0.3-0.3-0.5-0.5-0.8c0.2,0.2,0.4,0.3,0.6,0.5l-0.2-0.7
		c0.2,0.1,0.4,0.2,0.6,0.3c-0.1-0.2-0.2-0.5-0.3-0.6c0.1,0.5,0.3,0,0.4-0.1c-0.1-0.2-0.2-0.4-0.5-0.4c0.1,0.1,0.1,0.3,0.2,0.4
		c-0.2,0.2-0.4-0.7-0.4-0.7l0.3,0.2c-0.1-0.2-0.7-1.1-0.7-1.2c0,0.2,0.1,0.4,0.1,0.6c0.3,0-0.8-0.7-0.3-0.2c0.1,0.2,0.1,0.5,0.2,0.7
		c-0.1-0.2-0.3-0.5-0.3-0.8c0-0.4-0.3,0.4-0.1,0.6c-0.1-0.2-0.2-0.4-0.3-0.7c0-0.1-0.5-0.1-0.1,0.5c0.3,0.4-0.4-0.2-0.4-0.6
		c0-0.1-0.4-0.5-0.5-0.5s0.6,1.3,0.5,1.1c0.2,0.8,0.1,0,0,0.3c0,0,0.4,0.6,0.3,0.6c0,0-0.5-0.5-0.5-0.3c0.1,0.2,0.2,0.4,0.3,0.6
		c0.1-0.1-0.9-0.9-0.9-1c0,0.1,0.9,1.3,0.8,1.4c-0.1-0.1-0.3-0.2-0.4-0.2c0.1,0.3,0.3,0.5,0.4,0.8c-0.1-0.1-0.3-0.3-0.4-0.4
		c-0.1,0.3,0.7,0.8,0.7,1.1c0-0.2-1-0.6-0.5,0c-0.1-0.1,0.5,1,0.3,1l-0.2-0.6c0,0.1,0,0.1-0.1,0c0,0-0.4-0.9-0.3-0.9
		c0.1,0.4,0.1,1.1,0.4,1.1c0,0.3,0,0.6,0.1,0.9c0.1-0.1,0.1-0.1,0.1-0.2c0.2,0.1,0.3,0.8,0.3,1c0,0.3,0.5,1.2,0.2,1.1
		c-0.1,0,0.1,0.5,0.2,0.4c0,0,0.2-0.7,0.2-0.6c0,0,0.4,1,0.2,1.2c0,0.1-0.1,0.2-0.2,0.3c0.3,0-0.2-1.3-0.2-0.6c0,0.1,0,0.2-0.1,0.2
		c-0.1,0.1-0.2-0.7-0.4-0.7c-0.2,0,0.4,1.1,0.2,1.2c0,0-0.2-0.7-0.3-0.7c-0.2,0,0.2,1.2,0.1,1.1C64,43,64,42.8,63.9,42.7
		c-0.1,0,0.1,0.5,0,0.5s-0.1-0.8-0.4-0.8c-0.1-0.4-0.1-0.8-0.2-1.1l0,0c-0.1,0.2,0,0.4,0,0.6c0,0.3,0.1,0.5,0.1,0.8l0,0
		c0,0.2,0.5,0.7,0.5,0.9c0,0.1,0,0.1-0.1,0.1c0.1,0-0.4-0.9-0.4-0.7c0.1,0.3,0.1,0.5,0.1,0.8c0,0-0.3-0.7-0.4-0.7
		c-0.1,0,0.2,1.1,0.2,1.1c-0.1-0.2-0.3-0.4-0.5-0.6c-0.1,0,0.3,0.8,0.3,0.8c-0.1-0.2-0.3-0.3-0.4-0.5c0.1,0.2,0.2,0.5,0.2,0.7
		c-0.2-0.2-0.3-0.5-0.4-0.8c-0.1-0.3-0.3-0.6-0.4-0.8v-0.1c-0.1-0.2-0.2-0.5-0.2-0.8c0.2-0.1,0.2,0.3,0.2,0.4c0,0.1,0.1,0.1,0.2,0
		c0.1,0.2,0.1,0.4,0.2,0.6c0,0.1,0.1,0.2,0.2,0.1c0.1-0.1-0.1-0.3-0.1-0.5c-0.1-0.3-0.1-0.6-0.2-0.9c0.2-0.1,0.1,0.3,0.2,0.3
		c0.2,0.3,0.2,0.6,0.4,0.9c0.2-0.1,0-0.2,0-0.4c0-0.3-0.1-0.6-0.2-0.9c0.1-0.2,0.2,0.2,0.2,0.3c-0.1,0.6,0-1.2-0.1-1.4
		c0.1-0.1,1,1.8,0.7,1.1c0-0.5-0.1-1-0.3-1.4c-0.1-0.1,0-0.4,0.1-0.2c0.1,0.4,0.4,0.7,0.4,1.1c0,0.3-0.1,0.5,0,0.8
		c0-0.1,0.1-0.2,0.1-0.3c0-0.6,0.3,0.5,0-0.8c0-0.1-0.2-0.4-0.1-0.4c0.1,0.2,0.2,0.5,0.3,0.7c0-0.1,0.1-0.1,0.1-0.2
		c-0.1-0.4-0.4-0.7-0.6-1c-0.1-0.4,0-0.9-0.1-1.4c0,0,0-0.1-0.1-0.1c-0.3,0.2,0.2,0.9-0.1,1c-0.1-0.2-0.2-0.5-0.3-0.7
		c-0.3,0.1,0.1,0.9,0,1.1c-0.1-0.1-0.1-0.5-0.2-0.3c-0.1,0.2,0,0.5-0.1,0.7c-0.3,0-0.1-0.4-0.2-0.5c0-0.1-0.1-0.5-0.2-0.3
		c0,0.4,0,0.7,0.2,1.1c0,0.1,0.1,0.4,0.1,0.5s-0.3-1.2-0.4-1.2c-0.1,0.2,0,0.4,0,0.6c0.1,0.3,0.2,0.6,0.2,0.9c0,0-0.4-1.2-0.5-1.3
		s0.1,0.2-0.1,0.2c0.1,0.4,0.3,0.9,0.3,1.3c-0.3-0.3-0.3-0.7-0.4-1c-0.1-0.1,0,0.7,0,0.6c-0.1,0-0.1,0.2,0,0.5
		c-0.1,0.1-0.1,0.2-0.1,0.4L61.5,42c0-0.1,0-0.1-0.1-0.1c0-0.1,0-0.1-0.1-0.2c0-0.1,0-0.1-0.1-0.1l0,0c0-0.2-0.2-0.9-0.1,0.7
		c0,0,0,0.1,0,0.3c-0.1,0-0.1-0.4-0.2-0.2c0,0.2,0,0.4,0.1,0.7c0,0,0,0,0.1,0c-0.2,0.2-0.1-0.8-0.3-0.9c-0.3-0.1,0.3,1.5,0.1,1.6
		c-0.1-0.1-0.2-0.3-0.2-0.4c-0.1-0.3-0.1-0.5-0.2-0.8c0.1,0.2-0.1,1.3,0.1,1.6c-0.1-0.4-0.3-0.9-0.4-1.3c-0.1,0-0.1,0,0,0.1
		c0,0.1,0,0.1,0,0.2c0,0-0.1,0.1,0,0.1c0.1,0.2,0.4,1.3,0.2,1.2c-0.1-0.3-0.2-0.6-0.4-0.9c0.2,0.1,0.1,1.8-0.2,2.1
		c0,0.1,0.1-0.5,0-0.4c0.1-0.2-0.3-0.7-0.2-0.9c0,0.1-0.2,1.2-0.1,1.2c0,0-0.1-0.1-0.1-0.2c0-0.4,0.2,1.7,0.3,1.4
		c0-0.3,0.1-0.5,0.1-0.8c0,0.4,0.1,0.7,0.2,1.1c0,0.1,0-1,0.3-1c0.2,0-0.2-1-0.1-1c0.1,0.2,0.7,1.6,0.7,1.6c0.1-0.2,0.1-0.3,0-0.5
		c-0.1-0.4-0.2-0.8-0.3-1.3c0.2,0.3,0.6,1.2,0.8,1.6c-0.1-0.1-0.4,0.1-0.3,0.4c-0.1-0.1,0,0.6,0,0.4c0,0.1-0.4-0.6-0.4-0.4
		c0.1,0.2,0.1,0.4,0.2,0.6l-0.4-0.8c0-0.1-0.1-0.2-0.2-0.3c-0.1,0.1,0.6,1.4,0.6,1.4c-0.1-0.2-0.2-0.4-0.4-0.5
		c0.1,0.2,0.1,0.4,0.1,0.6c-0.1,0-0.3-0.1-0.3-0.3c-0.1,0,0.2,0.6,0.2,0.6s-0.6-0.2-0.3,0.2l-0.3-0.7c-0.1,0.1,0.3,1.1,0.2,1.1
		c-0.1-0.2-0.2-0.5-0.3-0.7c0-0.1,0.2,1.1,0.1,1.1c0-0.1-0.1-0.2-0.2-0.3c-0.2,0,0.1,0.8,0,0.8c-0.1-0.1-0.1-0.3-0.1-0.4
		c-0.4,0.8-0.1-1.5-0.2-1.6c-0.1-0.1-0.3,2.5-0.1,2.6c-0.2-0.2-0.2-2-0.4-2c0,0-0.1,1.9,0,2c-0.1-0.1-0.3-0.9-0.3-0.9
		c0.6,0-0.6,1-0.2,0.5c0,0.2,0,0.4,0,0.6c0,0-0.2-0.4-0.2-0.2c-0.1,0.3-0.3,0.6-0.4,0.9c0,0.3,0.3-0.5,0.4-0.4c0,0.1-0.2,0.9-0.3,1
		s-0.1,0.2,0,0.4c0.1,0.1,0.2,0.1,0.3-0.1c0,0-0.3,0.6-0.1,0.6c0.1-0.1,0.1-0.2,0.2-0.3c0.2,0.2-0.2,1.8-0.2,1.8
		c0.2,0.1,0.4-1,0.4-1c0,0.1,0,1.2-0.1,1.2c0.2-0.1,0.3-1.1,0.3-1.3c0-0.1,0,0.8,0,0.8c0-0.2,0.1-0.5,0.1-0.7c0.1,0-0.2,1.9-0.2,2.1
		c0,0.1,0,0.2,0,0.3c0.2,0.2,0.2-0.9,0.2-0.9c0,0.1,0.1,0.5,0.1,0.6c0.2-0.4,0.3-1.1,0.1-1.5c0,0.2-0.1,0.4-0.1,0.6
		c-0.1,0.1,0.1-1.2,0.2-0.9c0,0,0,0.9,0.2,0.9s0-1.2,0-1.1c-0.2-0.4-0.4-1.8-0.2-2.3c0-0.1,0.3,1.2,0.4,1.2c0-0.3,0-0.6,0.1-1
		c0.1,0,0.3,1.1,0.5,0.9c0.1-0.2,0-0.3-0.1-0.5c0,0.1,0,0.3-0.1,0.4c0,0-0.3-0.9-0.1-0.9c0.1,0.1,0.2,0.2,0.2,0.4
		c0.1,0.2,0.1,0.5,0.1,0.8c0.1,0.1,0.3-1.3,0.2-1.2c0,0.1,0,0.2-0.1,0.2c0,0-0.2-0.9-0.1-0.9c0,0,0.5,0.7,0.5,0.5c0,0-0.5-1-0.4-1.2
		c-0.1,0.1,1,1.7,0.5,2c0,0-0.2-0.7-0.3-0.6c0,0.1,0,0.2,0,0.3s-0.1,1.2,0.1,1.4c-0.1-0.1,0.2-0.7,0.2-0.9c0,0,0,1,0.1,1
		s0.1-1.3,0.1-1.3c0.2,0.1,0.1,0.6,0.1,0.8c0.1-1.1-0.6-2.4-0.3-3.3c0,0,0.3,1.8,0.4,2c0.1,0.3,0,1.9,0.2,2.1
		c-0.2-0.1,0.3-2.9-0.1-2.9c0.1,0.2,0.2,0.4,0.2,0.6c0.2-0.1-0.3-1.8-0.2-1.8c0.1,0.1,0.2,0.3,0.3,0.4c0.1-0.2,0.1-0.5,0.1-0.7
		c0,0,0.1,0.4,0.1,0.5c0,0,0-0.6,0.1-0.6c0.1,0.2,0.1,0.3,0.1,0.5c0,0,0-0.8,0.1-0.8c0.2,0.1-0.1,0.8,0.1,1c0,0,0.2-1.3,0.1-1.4
		c-0.1-0.1-0.1-0.2-0.1-0.3c0.1-0.1,0.2,0.6,0.3,0.6c0.2,0-0.1-1,0-1c0.2,0,0.2,0.8,0.3,0.9c0.1,0.1-0.2-1.4-0.2-1.3
		c0.1,0.1,0.2,0.2,0.2,0.3c0.2,0.1,0.3,1.7,0.4,1.7c0,0,0.1-2.4,0-2.5c0.1,0.3,0.2,0.6,0.2,0.8c0.1,0.1,0.1,0.2,0.1,0.2
		c0,0.2,0.1,0.3,0.2,0.2c0-0.3-0.1-0.5,0-0.8c0-0.3,0-0.7,0-1c0,0,0.3,0.7,0.4,0.8L64.3,45.7z M68.1,40.4c-0.1,0.5-0.6-1.1-0.3-1.1
		c0.1,0,0.1,1,0.3,0.9C68.2,40.3,68.2,40.3,68.1,40.4L68.1,40.4z M67.9,38.4C67.9,38.1,67.9,38.7,67.9,38.4L67.9,38.4z M68,39.2
		C68,39.2,68.1,38.9,68,39.2L68,39.2z M68,38.1c0.1,0,0.1,0,0.2,0c-0.1,0,0.4,1.4,0.4,1.5c-0.1,0.1-0.4-0.7-0.4-0.8
		c0.1-0.2,0-0.4-0.1-0.5C67.9,38.2,67.9,38.1,68,38.1L68,38.1z M67.6,35.2c0,0,0.1,0.1,0.2,0.3c0.1,0.1,0.1,0.3,0.2,0.5
		C67.9,36,67.5,35.3,67.6,35.2L67.6,35.2z M67.5,40c0.1-0.2,0.2,0.5,0.2,0.4C67.6,40.5,67.4,40.1,67.5,40L67.5,40z M67.1,36.9
		c-0.1,0-0.4-0.3-0.3-0.3l0,0c0.1,0,0.2,0.1,0.2,0.1C67.1,36.8,67.1,36.9,67.1,36.9L67.1,36.9z M66.8,41.4c-0.1-0.2-0.1-0.4,0-0.6
		C66.8,41,66.9,41.6,66.8,41.4L66.8,41.4z M66.9,39.9C66.7,39.9,66.9,39.8,66.9,39.9C66.9,39.8,67,39.8,66.9,39.9
		C67,39.9,66.9,39.9,66.9,39.9L66.9,39.9z M67,41.1c0-0.1,0-0.2,0-0.3C67.1,40.7,67.1,41.2,67,41.1L67,41.1z M67.3,40.4
		c0,0.1,0,0.2,0.1,0.3c0,0,0.1,0.1,0.1,0.2c0,0.1-0.4-0.7-0.2-0.7C67.3,40.2,67.3,40.3,67.3,40.4L67.3,40.4z M67.3,39.2
		c0,0.1-0.2-0.3-0.1-0.3C67.2,38.9,67.3,39,67.3,39.2L67.3,39.2z M66.7,37.5L66.7,37.5c0.3,0.3,0.4,0.5,0.5,0.8
		C67.1,38.3,66.6,37.5,66.7,37.5L66.7,37.5z M66.7,38.8C66.9,38.8,66.6,38.8,66.7,38.8L66.7,38.8z M66.5,41.1L66.5,41.1
		c0.1,0.1,0.1,0.2,0,0.4c0,0-0.1,0-0.1-0.1C66.4,41.2,66.4,41.1,66.5,41.1L66.5,41.1z M66.2,41.2c-0.1-0.2-0.1-0.4-0.1-0.5
		C66.2,40.8,66.3,41,66.2,41.2L66.2,41.2z M66.1,39.5L66.1,39.5c0.2,0.1,0.2,0.2,0.1,0.3C66.1,39.8,66,39.5,66.1,39.5L66.1,39.5z
		 M65.2,35.8c0.1,0,0.2,0.1,0.2,0.2C65.2,36,65.2,35.9,65.2,35.8L65.2,35.8z M64.8,44.3c0,0.1-0.1-0.5,0-0.4l0,0
		C64.8,44,64.8,44.1,64.8,44.3L64.8,44.3z M64.9,42.6c-0.1,0.4-0.2-0.6-0.1-0.4C64.9,42.4,64.9,42.5,64.9,42.6L64.9,42.6z
		 M65.5,41.5c0,0.6-0.3-1.4-0.4-1.4c0.1,0,0.1,0,0.1,0.1C65.4,40.6,65.5,41,65.5,41.5L65.5,41.5z M65,38.6c0.2,0.2,0.3,0.5,0.3,0.8
		C65.1,39.1,65,38.9,65,38.6L65,38.6z M65.6,39.3c0.1-0.4-0.6-1.3-0.6-1.9c0,0,0.5,1.3,0.6,1.5C65.5,39.1,65.6,39.2,65.6,39.3
		L65.6,39.3z M65.9,41.4c0-0.1,0-0.2,0-0.3C65.9,41.2,65.9,41.2,65.9,41.4L65.9,41.4z M66,41.8C66,41.9,66,42.2,66,41.8
		C66,41.8,66,41.8,66,41.8L66,41.8z M65.9,39.9C66.3,39.8,65.4,39.9,65.9,39.9L65.9,39.9z M65,37.1c0.2,0,0.6,0.9,0.6,1.1
		c0.1,0.2,0.1,0.5,0.2,0.8c0,0-0.5-1-0.5-1.2C65.3,37.7,64.8,37.1,65,37.1L65,37.1z M64.8,37.6C65,37.4,64.8,38.4,64.8,37.6
		L64.8,37.6L64.8,37.6z M65,40.6c-0.1-0.1-0.2-0.2-0.1-0.3C64.9,40.4,65,40.5,65,40.6L65,40.6z M64.5,38c0.2,0.1,0.3,0.3,0.4,0.5
		C64.9,38.6,64.4,38,64.5,38L64.5,38z M64.4,38.3c0.2,0.1,0.6,1.2,0.6,1.2C64.7,39.5,64.4,38.3,64.4,38.3L64.4,38.3z M64.7,39.9
		c0,0-0.2-0.3-0.1-0.3C64.8,39.5,64.8,40.1,64.7,39.9z M63.9,37.8L63.9,37.8C64,38,64,38.2,64,38.3C63.9,38.3,63.8,37.8,63.9,37.8
		L63.9,37.8z M64.2,40.2c0.1,0.6-0.4-1.2-0.3-1.2c0.4,0,0.4,1.5,0.5,1.6C64.3,40.5,64.2,40.4,64.2,40.2L64.2,40.2z M64.4,39.9
		C64.4,40,64.4,40,64.4,39.9c-0.2-0.3,0-0.7-0.2-1C64.1,39,64.1,39,64,39.1c-0.1-0.2-0.1-0.3,0-0.5C64.5,38.8,64.5,39.5,64.4,39.9
		L64.4,39.9z M64.5,40.2c-0.2,0.2,1,1,0.7,1.5l-0.3-0.2C64.9,41.3,64.3,40.3,64.5,40.2L64.5,40.2z M58.1,51.2
		C57.7,51.8,58.4,50.6,58.1,51.2z M58.3,51.1C58.4,51,58.5,50.7,58.3,51.1z M58.5,51.5c0,0-0.2-0.7,0.1-0.7
		C58.6,51,58.6,51.3,58.5,51.5L58.5,51.5z M59,50.6C59,51.2,59,50.6,59,50.6z M58.8,50.7c0-0.2,0.1-0.5,0.1-0.7l0,0
		c0,0.1,0,0.2,0,0.4s-0.1,0.5-0.1,0.7C58.8,51.2,58.8,51.1,58.8,50.7L58.8,50.7z M59.1,51.5c0,0.3-0.1,0.5-0.1,0.8
		C58.9,52,59.1,50.8,59.1,51.5z M59.1,52.4c0-0.1,0-0.2,0-0.3C59.2,52.2,59.2,52.3,59.1,52.4z M59.4,50.3c0-0.1-0.1-0.2-0.1-0.3
		s0-0.1,0-0.2C59.5,49.8,59.5,50.4,59.4,50.3z M60.1,50.1c0,0.1-0.2-0.5-0.1-0.5c0,0.1,0.1,0.1,0.1,0.2S60.1,50,60.1,50.1L60.1,50.1
		z M60.8,49.3c-0.1,0-0.1-0.1-0.1-0.2l0,0C60.7,49.2,60.8,49.3,60.8,49.3z M61.4,42.5c0,0.1,0,0.1,0,0.2
		C61.4,42.6,61.4,42.6,61.4,42.5L61.4,42.5L61.4,42.5z M61.3,42.1c0-0.1-0.1-0.2-0.1-0.3C61.3,41.9,61.3,42,61.3,42.1L61.3,42.1z
		 M61.7,45c0-0.1-0.1-1.3-0.3-1.4l0.2,2c-0.1-0.2-0.2-0.4-0.2-0.6c0-0.2-0.2,0.2-0.1,0.2C61.1,45.2,61,44,61,44
		c0.1,0.2,0.1,0.4,0.2,0.5c0,0,0-1.7-0.1-1.7c0.1,0,0.1,0.1,0.1,0.2c0,0.1,0,0.1,0.1,0.1c0,0.1,0,0.2,0,0.2s0,0,0-0.1
		c0.1,0.2,0.3,0.4,0.4,0.7c0,0.1,0-0.1,0-0.3c0-0.1,0-0.1,0-0.2c0.1,0,0.1-0.1,0.1-0.1c0-0.1,0-0.3,0-0.4
		C61.8,43.2,61.8,45.2,61.7,45L61.7,45z M61.9,47.7C61.8,47.4,61.8,47.4,61.9,47.7C62,47.9,62,47.9,61.9,47.7z M62.4,47.4
		c-0.1,0-0.2-0.1-0.1-0.2C62.3,47.3,62.4,47.4,62.4,47.4z M62.7,44.5c-0.1-0.2-0.2-0.3-0.4-0.5c-0.1,0,0.1,0.8,0.1,0.9
		c-0.2-0.2-0.3-0.4-0.3-0.6c0,0.1,0,0.2-0.1,0.4c-0.1,0-0.2-0.9-0.1-0.9c0,0.1,0.1,0.1,0.1,0.2c0.2-0.1-0.3-1.2-0.3-1.2
		C62,43,62.8,44.4,62.7,44.5L62.7,44.5z M63.6,45.4c0-0.1-0.1-0.1,0-0.2C63.6,44.8,63.8,45.5,63.6,45.4L63.6,45.4z M63.9,43.4
		C63.8,43.4,63.9,42.8,63.9,43.4C64,43.3,64,43.4,63.9,43.4z M64.2,44.5C64.2,44.4,64.3,44.1,64.2,44.5L64.2,44.5z M64.2,42.8
		c-0.1,0-0.1-0.1,0-0.3c0-0.1,0-0.2,0.1-0.3C64.3,42.4,64.3,42.6,64.2,42.8L64.2,42.8z M57.8,41.6c0,0-0.2-0.9,0-1s0.2-0.3,0.3,0.1
		c0-0.2-0.1-0.9-0.2-0.9c-0.2,0-0.2-0.1-0.2-0.2l0.5,0.1c0.1-0.1,0.2-0.7,0.1-0.7c0.3,0,0.3,1.6,0.6,1.4c-0.1,0.1-0.1-1.2-0.1-1.2
		c0.1,0.2,0.2,0.3,0.3,0.5c0.1-0.1-0.4-1.7-0.4-1.7c0.1,0.2,0.3,0.4,0.4,0.6c0-0.2,0-0.3,0-0.5c-0.1,0.1,0-0.7,0-0.7
		s-0.8-0.3-0.5-0.6c0.1-0.1,0.8,0.8,0.9,1c0.1-1-1.2-1.4-1.2-2.2c0,0.3,0.5,0.8,0.3,1.1c0.1-0.2-1.1-1.8-1.1-2
		c0,0.2,0.4,1.7,0.4,1.3c0,0.1,0.1,0.2,0.1,0.2c0.2,0.2,0.3,0.5,0.4,0.8c0,0.1-0.3-0.3-0.3-0.3c-0.2,0.1-1.2-3-1.3-2.9
		s0.6,1.6,0.5,1.6c-0.2,0-0.6-1.2-0.8-1.4c-0.1-0.2-0.3-0.3-0.5-0.4c0,0.1,0.8,1.1,0.6,1.3c-0.2,0.1-0.5-1.1-0.7-0.9
		c0,0,0.3,0.7,0.1,0.7s-0.6-1.2-0.7-1.3c-0.4-0.4,0.4,0.8,0,0.5c-0.1-0.2-0.2-0.4-0.3-0.6c0,0.2,0,0.5,0,0.7
		c-0.1-0.1-0.3-0.3-0.4-0.4c-0.1,0,0,0.4,0,0.5c-0.1-0.1-0.7-0.4-0.7-0.5c0,0.2,0,0.4,0.1,0.6c0.2,0.4-0.4-0.1-0.4-0.2
		c0,0.1,0,0.7-0.1,0.3c-0.1-0.2-0.2-0.3-0.3-0.5c0.1,0,0.2,0,0.2-0.1L53,33.4c-0.2,0.2,0,1-0.2,1c-0.1-0.1-0.2-0.2-0.2-0.3l-0.2,0.2
		c-0.1-0.1-0.3-0.3-0.3-0.5c0-0.1,0-0.1-0.1-0.1c0,0-0.4-0.3-0.2,0.1c0.1,0.2,0.1,0.5,0.1,0.7c-0.1-0.2-0.3-0.3-0.4-0.4
		c0,0.2,0,0.4,0.1,0.5c0.2,0.3-0.4-0.1-0.3-0.1c-0.1,0-0.8,0.4-0.3,0.4c0.1,0-0.8-1.3-0.8-1.1c0.1,0.1,0.2,0.3,0.3,0.5
		c-0.1,0-0.2-0.1-0.3-0.2c0,0.1,0,0.2,0,0.3c-0.1,0.1-0.3-0.5-0.3-0.5s-0.1,0-0.1,0.1c-0.1,0.1-0.1,0.2,0,0.2
		c-0.1-0.1-0.2,1.2,0.1,1.2c-0.1-0.1-0.1-0.2-0.2-0.3c0-0.1-0.1-0.3-0.2-0.4c0-0.2-0.1-0.4-0.2-0.5c0,0.3-0.1,0.5-0.2,0.7
		c-0.1-0.3-0.1-0.6,0-0.8l0.1,0.1c0.3-0.3-0.3-0.3-0.3-0.3c0-0.1,0.3-1.3,0.2-1.3c-0.1,0.2-0.2,0.3-0.3,0.4c-0.1,0-0.2,0-0.3,0.1
		c-0.4,0.4,0.4-0.7,0.3-0.7c0,0-0.5,0.6-0.6,0.3c0,0.2-0.6,0.5-0.7,0.5c0-0.1-0.3-0.4,0.2-0.9c-0.2,0.2-1.1-0.4-1-0.4
		c-0.1,0-0.1,0.1-0.2,0.1c0,0-0.8,0.6-0.7,0.7c-0.1-0.2-0.2-0.3-0.2-0.5c0.3,0.1-0.7,0.2-0.2,0.1c0.1-0.1,0.2-0.2,0.1-0.3
		c-0.2,0.2-0.3,0.3-0.4,0.5c0-0.1-0.1-0.2-0.1-0.3c-0.1,0.1-0.2,0.2-0.2,0.3c-0.2,0,0.3-0.8,0.3-0.8c0,1.3-1.5,0.6-1,0.4
		c0.1-0.1,0.1-0.2,0.2-0.3c0-0.2-1.1,1.4-1,1.4c-0.1-0.1-0.3-0.2-0.4-0.4c0,0.2-0.1,0.6-0.2,0.8c0,0.2-0.1,0.3-0.2,0.5
		c-0.2,0.1,0.5-2,0.5-2c-0.2,0.1-0.3,0.2-0.5,0.4c-0.4,0.2,0.1,1.2-0.5,0.8c0,0.1-0.2,1.1-0.2,1.1c0-0.2,0-0.4-0.1-0.6
		c0,0.1-0.1,0.2-0.1,0.4c0,0.1-0.1,0.2-0.2,0.3c-0.1,0-0.4-0.2-0.3-0.3c0-0.1,0-0.2,0-0.3c-0.1-0.4,0.1,1.1,0,1.1
		c-0.3,0-0.2-1.4-0.4-1.1c0.1-0.2,0,1.3-0.1,1.3c0.2,0-0.4-0.6-0.4-0.6c0,0.1,0,0.9-0.1,0.6c0,0.2,0-1.3-0.1-1.3
		c-0.3,0,0.1,2.1,0,2.1c0.5,0-1-0.4-0.6-0.2c0-0.1-0.1-0.2-0.1-0.2c0,0.2,0,0.5-0.1,0.7c-0.1-0.1-0.1-0.2-0.2-0.3
		c0,0.2,0.1,0.4,0.1,0.7c0.1-0.1-0.5-0.6-0.5-0.5c0,0.6,0.4,2.2,0.6,2.8c0-0.2,0.1-0.3,0.1-0.5c0,0,0.3,1,0.3,1.2
		c0-0.1,0-0.7,0.1-0.7c0,0.2,0.1,0.5,0.2,0.7c0,0,0.1-0.8,0.2-0.7c0,0.3,0,0.7,0,1c0,0.2,0.2-1,0.2-1c0.1,0,0.2,1.1,0.1,1
		c0,0,0.1-0.5,0.2-0.1c0-0.1-0.1-0.7,0-0.7c0.2,0,0.2,0.8,0.2,0.9c0.4,0,0.1-0.6,0.3-0.6c0.3,0-0.1,1,0.2,1c0-0.1,0-0.2,0-0.3
		c0.3-0.3,1.5,2.3,1.4,2.3c0,0-0.1,0-0.1-0.1c-0.2-0.7-0.7-1.4-1.2-1.9c0.2,0.6,1.2,1.9,0.9,2.5c-0.1,0-0.2-0.1-0.2-0.3
		s0-0.3-0.2-0.3c-0.1,0.1,0.2,1,0.2,1c0-0.1-0.6-0.8-0.6-0.9c0,0.1,0.3,1.1,0.2,1.1c-0.1-0.1-0.2-0.3-0.3-0.4
		c-0.6,0.4,0.3,0.4-0.2,0.4c-0.2,0-1-1-1-1.1c0,0.3,0.9,1.3,0.7,1.5c-0.2-0.1-0.3-0.3-0.4-0.4c-0.4,0,0.4,0.9,0.1,0.9
		c-0.1,0-0.3-0.3-0.3,0.1l-0.2,0.8c0,0-0.4-0.5-0.2-0.6c0.4-0.2-0.1-0.2-0.1-0.3c-0.1-0.2-0.2-0.3-0.4-0.4c0,0,0.4,1.2,0.5,1.3
		c0,0-0.5-0.3-0.5-0.2l0.3,1.1c-0.1-0.1-0.2-0.2-0.3-0.3c-0.1,0,0.2,0.7,0,0.7c0.2,0-0.7-0.5-0.3,0c0.1,0.2,0.2,0.5,0.1,0.7
		c-0.2,0-0.2-0.8-0.5-0.8c-0.1,0,0.4,1.2,0.2,1.2c-0.1,0-0.3-0.8-0.4-1c0.1,0.2,0.2,1.9-0.1,1.9c-0.2,0-0.2-0.9-0.4-0.9
		c-0.1,0,0.3,1.1,0.1,1.1c-0.4,0-0.2-0.2-0.2,0.5c0,0.2-0.3-0.2-0.3-0.2c-0.2,0.3-0.4,2.2-0.4,2.3c-0.1-0.4,0.2,1.1-0.1,0.9
		c0-0.1-0.5-1-0.5-1.1c0.1,0.2,0.2,0.5,0.2,0.7c-0.2,0.2-0.3-0.5-0.4-0.5c-0.2,0,0.2,0.9,0,0.9c0.2,0-0.8,0.2-0.4,0.3
		c0-0.3-0.1-0.5-0.2-0.7c-0.1-0.1,0.2,0.7-0.1,0.8c-0.2,0.1-0.5,0.6-0.5,0.6c-0.2-0.1-0.4-0.3-0.6-0.4c0,0.1,0.1,0.1,0.1,0.2
		c0.2,0.4,0.4,0.7,0.7,1c-0.3,0.1,0.1-0.9,0.1-0.9c0,0.3,0.1,0.5,0,0.8c-0.1-0.2,0.3-0.4,0.3-0.6c0-0.1,0-0.1,0.1-0.1
		c0.2,0,0.2,1.1,0.3,0.9c0.1-0.3-0.1-0.9,0.3-0.9c0.2,0,0.4,1.1,0.5,1.2c0-0.3-0.1-0.8,0-1c0,0,0,0.9,0,1.1c0,0.2,0.3-1.3,0.3-1.3
		c0.1,0.1,0.1,0.3,0.2,0.4c0-0.2,0-0.4,0.1-0.6c0.1,0.1,0.2,0.2,0.2,0.3c0-0.2,0-0.5,0.1-0.7c0,0.2,0.1,0.5,0.1,0.7
		c0-0.2,0-0.3,0.1-0.5c0.1-0.1,0.5-0.9,0.5-0.9c0,0.2,0.1,0.4,0.1,0.6c0-0.2,0.1-0.3,0.1-0.5c0,0.2,0.1,0.3,0.1,0.4
		c0.2-0.6-0.1-0.8,0.4-0.5l0.1-0.8c0.4,0.1,0-0.6-0.1-0.6c0.1,0-0.1,0.6-0.2,0.3c0,0.2-0.1,0.3-0.2,0.3c-0.1,0-0.2-0.4-0.2-0.5
		c0.1,0.3,0,1.4-0.3,1.4c-0.1-0.2-0.1-0.3-0.2-0.5c0,0-0.5,0.7-0.4,0.7c-0.2,0-0.4-0.6-0.2-0.8c-0.1,0.1,0.4,0.1,0.1-0.3
		c-0.1,0-0.1,0.1-0.2,0.2c0.5-0.2,1-0.5,1-0.5c0,0.1-0.2-1.2,0-1.1c0.1,0.1,0.2,1.2,0.2,1.4l0.1-1.2c0.1,0,0.3,1.4,0.2,1.4
		c0.1-0.1,0.1-2.1,0.3-1.9c0,0.1,0.1,0.3,0.2,0.4c0.1,0,0.1-0.9,0.1-0.8c0.1,0.1,0.1,0.3,0.2,0.4c0.1,0,0.2-0.4,0.3-0.5
		c0,0,0.2,0.4,0.3,0.2c0-0.2,0-0.5,0-0.7c0.2,0.2,0.4,0.4,0.5,0.6c-0.7,0,0.5-1,0.4-0.7c0,0-0.5-0.8-0.3-0.8c0.3,0,0.4,0.6,0.5,0.6
		c0.2,0-0.1-0.6,0-0.6c0.4-0.2,0-0.1,0.3-0.1c0.7,0.1,0-1,0.3-1c0.1,0.1,0.2,0.3,0.2,0.5c0-0.1,0.7,1.5,0.7,1.6c0,0-0.8,0.1-0.5,0.5
		c-0.1-0.2-0.2-1.4-0.4-1.4c0.1,0,0.3,1.9-0.3,1.6c-0.1-0.2-0.2-0.4-0.2-0.5c-0.1-0.1,0.1,0.9,0.1,0.8c0-0.3-0.4,0.9-0.6,0.4
		c0,0.1,0,0.7,0,0.8c0.1-0.3,0.5-0.4,0.5-0.3c0-0.2,0-0.5,0.1-0.7c-0.1,0,0.2,0.7,0.2,0.7c0-0.2,0-0.4,0.1-0.6
		c0,0.1,0.1,0.2,0.2,0.3c0.1,0-0.1-0.8,0-0.8c0.1,0.2,0.1,0.3,0.2,0.5c0,0,0-0.6,0.1-0.5c0.2,0.3,0.3,0.5,0.4,0.8
		c-0.3-0.1,0.1-1.1,0-0.9c0-0.1,0,1,0.2,0.6c-0.1,0.3,0-1.1,0.1-1.1c0,0,0.3,0.4,0.4,0.2c0-0.1,0-0.3,0-0.4c0.1-0.1,0.6,0.2,0.5,0.4
		c0,0.1,0-0.9,0-0.8c0-0.3,0.1-0.3,0.2,0.1c0,0.1,0.1,0.3,0.1,0.4c0,0-0.1-0.9,0-1c0.1,0.1,0.2,0.2,0.2,0.2v-0.9
		c0.1,0.1,0.2,0.2,0.2,0.3c0.3,0.8-0.1-0.8,0-0.7c0,0.1,0.1,0.2,0.1,0.3c0-0.2,0-0.4,0-0.6c-0.2,0.2,0.8,0.4,0.4,0.2
		c-0.1-0.2-0.1-1.3-0.1-1.3c-0.1,0.1-0.9,1.4-0.9,1.4c-0.1-0.1-0.2-0.2-0.3-0.4c0.2,0-0.3,1.3-0.3,1.3c-0.1-0.1-0.1-0.2-0.3-0.3
		c0,0,0.1,0.9,0,0.8c-0.1-0.1-0.3-1.2-0.6-1.2c0,0,0.5,1.5,0.3,1.5l-0.4-0.5c-0.1-0.2-0.8-1.7-0.5-1.9c0.2-0.1,0.2,0.9,0.5,0.7
		c0.2-0.1-0.1-1.3,0.1-1.2l0.5,1.1c0-0.1-0.6-1.5-0.4-1.5c0.1,0.1,0.2,0.2,0.2,0.4c0.1,0.1,0.1-0.5,0-0.5c0.2-0.1,0.3,0.7,0.3,0.7
		c0,0.3,0.6,0,0.6,0.2c0-0.2-0.7-0.8-0.6-0.9c-0.1,0.1,1.2,0.6,0.6-0.1c-0.1-0.1,0.8,0.1,0.8,0.6c0,0-0.2-0.7-0.3-0.8
		c-0.1-0.2-0.2-0.3-0.1-0.5c0.1,0.1,0.2,0.2,0.2,0.3c0.1-0.1,0.1-0.3,0-0.5c-0.2-0.2-0.3-0.4-0.3-0.7c0-0.2,0.7,1,0.8,1
		c-0.1,0-0.5-1.4-0.5-1.4c0.2,0.2,0.3,0.4,0.5,0.6l-0.2-0.6c0.2,0.1,0.3,0.2,0.5,0.3c-0.1,0-0.5-0.9-0.5-0.9c0.1-0.1,0.1-0.1,0-0.1
		c-0.1-0.2,0.7,0.1,0.3-0.3c-0.1-0.1-0.1-0.2,0-0.2c0.1-0.3,0.5,0.4,0.6,0.4c0,0.2-0.6-1.3-0.8-1c0.1-0.1,0.9,0.5,0.9,0.5
		c-0.1-0.1-0.2-0.2-0.2-0.4c-0.1,0.2-0.2-0.7,0-0.5c-0.2-0.1-0.3-0.2-0.5-0.3c0.1-0.1,0.3-0.1,0.4,0c0.4-0.5-0.3-0.3-0.2-0.5
		c0,0.1,0.1,0.4,0,0.4c-0.2,0-0.3-1-0.3-1c0,0.2,0.1,0.3,0.2,0.4c-0.2-0.1,0.8,0.6,0.7,0.5c-0.1-0.2-0.2-0.4-0.1-0.5
		c0.1,0.2,0.2,0.4,0.3,0.7c0.1-0.1,0.1-0.2,0-0.4s-0.1-0.5,0-0.7c0,0,0.7,1.3,0.8,1.4l-0.2-0.9c-0.2,0,0.5,0.2,0.1-0.1
		c-0.1-0.1-0.5-0.8-0.5-0.9c0-0.2,0.3,0.2,0.2,0.2c0-0.1,0-0.2,0-0.3c0.2,0.2,0.3,0.4,0.3,0.6c0,0.2,0.1,0.3,0.1,0.5
		c0.1-0.5-0.5-1.1-0.4-1.4c0.1-0.5,0.5,0.6,0.5,0.6c0,0.1,0.1,0.1,0.1,0.1c0.1,0.2,0.3,0.3,0.4,0.5l0.1-0.1c0,0-0.6-0.7-0.3-0.7
		c0.1,0.1,0.1,0.1,0.2,0.2c0.2-0.1-0.5-0.9-0.6-0.9c-0.2-0.1,0.4-0.2,0.4-0.2c0.3,0.1,0.9,1.2,0.7,1.3c-0.6,0.4,0.1,0.1,0.1,0.8
		c0,0-0.3-0.7-0.1-0.6c0.1,0.1,0.2,0.2,0.2,0.3c0.2,0.4,0.1-0.5,0.1-0.6c0.1,0.1,0.1,0.2,0.2,0.2v-0.9c0.1-0.1,0.5,0.6,0.4,0.6
		c-0.1-0.1,0.5,1.1,0.6,1.1c0.1-0.1-0.7-1.7-0.6-1.7c0.1,0,0.2,0.4,0.3,0.2c0.2-0.5-1.2-0.8,0.2-0.6c0-0.1,0-0.2,0.1-0.3
		c0.1,0,0.5,0.7,0.5,0.8c0,0.2,0.6,1.3,0.8,1.2c-0.2,0.2-0.5-0.3-0.6-0.3c0,0.1,0,0.2-0.1,0.2c-0.3-0.2-0.2-1.2-0.5-1.3
		c0.2,0.1,0.4,2.5,0.5,2.5c-0.1-0.1-0.2-0.3-0.2-0.4c0,0-0.1,1.1-0.1,0.7c0-0.2-0.1-0.4-0.3-0.6c-0.1,0.5,0.3,0.8-0.1,1.3
		c0.2-0.2-0.3-1.1-0.3-1.4c0.1,0.4,0.1,1.7-0.3,1.9c1-0.5-1-0.1-0.2-0.1c-0.1,0,0.1-1,0-1.2c0-0.1,0-0.2-0.1-0.3c0,0.3,0,0.5,0,0.8
		c-0.1,0-0.1-0.3-0.1-0.4c0.1,0-0.1,0.4-0.2,0.3c0-0.3-0.1-0.5,0-0.8c0,0.1,0.1,0.2,0.1,0.2c0.3-0.2-0.1-0.7-0.2-1
		c0,0.1-0.1,1.5-0.2,1.5c-0.1,0-0.4-1.2-0.5-1.3s0.4,1.9,0.3,1.9c0,0-0.5-1.1-0.6-1c-0.3,0.2,0.4,1.2,0.1,1.3c0,0-0.6-1.4-0.7-1.3
		c0,0.2,0.7,1.4,0.4,1.6c-0.6,0.2,0.1,0.5,0.1,1.1c0,0.1-0.3-0.4-0.4-0.2c0,0,0.2,1.2,0.2,1.4c0.1,0.6,0.3,1.1,0.3,1.8
		c0-0.1,0.2-0.7,0.3-0.7s-0.1,1,0.1,1c0.1,0,0.1-1,0.2-1.1c0,0,0,1.3,0.1,1.4c0,0,0.2-0.8,0.1-0.8c0,0,0.4-0.1,0.3-0.3
		c0.1,0.5-0.4,1.1,0.1,0.7c0.1-0.1-0.1-0.5,0.2-0.5c0.2,0-0.1,1.1,0.2,1.1c0.1,0,0-1.3,0.2-1.2c0.1,0.1-0.1,0.8,0,0.8l0.1,0.1
		c0,0.5,0.2-1,0.3-1v1c0-0.3,0.1-0.6,0.2-0.9c0.1-0.1,0,1.2,0,1.2c0.1-0.1,0.1-0.2,0.1-0.4c0,0,0.2-0.8,0.3-0.8
		c0.3,0.1-0.4,0.9-0.2,1.1c0.2,0.2,0.5-1,0.6-1s-0.2,1-0.1,1c0,0,0.3-0.1,0.3,0c0-0.3,0-0.6,0.1-0.9c0.1-0.1,0.1,1.2,0.1,1.2
		c0.2,0,0.3-1.4,0.3-1.4c0,0.3,0.1,0.6,0.2,1c0.4,0.4,0.4-1,0.5-0.9c0.2,0.1,0.1,1,0.1,1s0.4-1.2,0.4-1.1c0,0.3-0.1,0.6-0.1,0.8
		c0.1-0.3,0.3-0.5,0.4-0.8c0,0-0.2,0.7-0.2,0.8c0.2-0.2,0.3-0.5,0.5-0.7c0.1-0.3,0.2-0.5,0.2-0.8c0,0.3,0.1,0.5,0.1,0.8
		c0.1,0,0-1.1,0.2-1.1c0.1,0,0,1.1,0.1,1.1c0.2,0,0.5-1,0.6-1.1c-0.1,0,0.3,1.3,0.1,1.3c0.1,0,0.4-1.3,0.4-1.2c0,0.3,0,0.5-0.1,0.8
		c0.1,0.1,0.5-1,0.6-1.1s-0.2,0.7-0.1,0.7c0.2-0.1,0.3-1.1,0.6-1.1c0.2,0-0.1,1.2,0,1.2c0.3,0,0-1.1,0.2-1.2c0,0.1,0,0.2,0.1,0.2
		c0.1-0.3,0.1-0.6,0.1-0.9c0,0.1-0.1,0.6-0.2,0.6c0,0-0.1,0-0.2,0c-0.1,0,0-1.2-0.1-1.3l-0.3,1.3c-0.1-0.2-0.1-0.5-0.1-0.7
		c0,0.1-0.1,0.3-0.1,0.4c-0.1,0.1-0.3-0.9-0.3-0.8c0.1,0.1-0.4,1.1-0.3,1.1c-0.1-0.1-0.1-0.7-0.1-0.8c0,0.1-0.1,1-0.2,1
		c-0.4-0.1,0.3-1.8,0-2.2C54,42.4,54,42.1,54,41.9c0,0.1,0.1,0.4,0.2,0.4c0,0,0.1,0,0.1,0.1c0,0.2,0.1,0.3,0.2,0.4c0-0.3,0-0.6,0-1
		c-0.1,0,0.3,0.9,0.3,1c0-0.2-0.2-1.7-0.3-1.7c0.1,0.1,0.3,0.3,0.4,0.5c0.1,0.1,0-1.1-0.1-1.1c0.4,0,0.4,1.3,0.5,1.3s0.1-1,0-1.1
		c-0.1-0.2-0.1-0.4-0.1-0.6c0.1-0.1,0.2-0.1,0.2,0s0.2,0.8,0.2,0.9c0-0.2,0-0.4,0-0.6c0.4,0,0.1,0.8,0.3,0.8c0.1,0,0.1-1.3,0.1-1.2
		c0.1,0.1,0.1,0.2,0.1,0.2c0,0.2,0,0.5,0.2,0.6c0-0.1,0-0.2,0.1-0.3c0.1,0,0.2,0.7,0.2,0.8c0-0.2,0-0.5,0.1-0.7
		c0-0.1,0.1,1.3,0.2,1.2c0-0.1,0.2-1.7,0.2-1.7s0.3,0.7,0.2,0.8c0-0.2-0.1,1,0.2,0.8C57.8,41.7,57.8,41.7,57.8,41.6L57.8,41.6z
		 M58.7,38.7c0.1,0.1,0.1,0.3,0,0.4C58.4,39.1,58.6,38.2,58.7,38.7z M58.4,37.1c0.4,0,0.5,0.8,0.5,0.8l-0.4-0.4
		C58.4,37.4,58.4,37.3,58.4,37.1L58.4,37.1z M58.3,37.7c0.2-0.1,0.1,0.6,0.1,0.5C58.3,38,58.2,37.9,58.3,37.7L58.3,37.7z M58.1,37
		C58.2,36.9,57.9,37.1,58.1,37L58.1,37z M39.7,37.9c-0.2,0-0.2-1-0.1-1.1C39.6,36.7,39.9,37.9,39.7,37.9L39.7,37.9z M39.9,37.3
		c-0.1-0.1-0.1-0.3,0-0.4C40,36.9,40.1,37.4,39.9,37.3L39.9,37.3z M40,36.3c-0.1,0-0.2-0.3-0.1-0.4c0,0,0,0,0.1,0
		C40.1,35.9,40.1,36.1,40,36.3L40,36.3z M40.6,37c0,0-0.3-0.6-0.1-0.6C40.6,36.5,40.6,36.7,40.6,37L40.6,37z M37.2,52.5
		c-0.1-0.1-0.1-0.2,0-0.4C37.3,52.3,37.3,52.4,37.2,52.5z M38,51.9c-0.1-0.2-0.1-0.4,0-0.5l0,0C38.1,51.6,38.1,51.8,38,51.9L38,51.9
		z M38.1,50.7c-0.1,0.6-0.2-0.3-0.1-0.4l0,0C38.1,50.4,38.2,50.6,38.1,50.7L38.1,50.7z M40.5,45.9c-0.2-0.1-0.3-0.3-0.4-0.5
		C40.4,45.2,40.5,45.9,40.5,45.9z M42.4,46.1c0-0.1-0.1-0.2,0-0.3c0,0,0,0,0.1,0C42.6,45.9,42.6,46.7,42.4,46.1L42.4,46.1z
		 M45.8,33.2C46,33.2,45.7,33.2,45.8,33.2L45.8,33.2z M45.8,32.6c0.1,0,0,0.4-0.1,0.4C45.6,33,45.6,32.6,45.8,32.6L45.8,32.6z
		 M45.5,32.6C45.5,32.6,45.6,32.6,45.5,32.6C45.6,32.7,45.5,32.7,45.5,32.6C45.5,32.7,45.4,32.7,45.5,32.6
		C45.4,32.6,45.5,32.6,45.5,32.6L45.5,32.6z M45.4,33C45.6,33,45.1,33,45.4,33z M45.2,32.6c0.1,0.1,0.1,0.2,0,0.4
		C45.1,32.8,45.1,32.7,45.2,32.6L45.2,32.6z M45.1,33.4c0.1,0.1,0.1,0.2,0,0.3C45,33.7,45,33.5,45.1,33.4L45.1,33.4z M44.7,32.7
		C44.7,32.6,44.8,32.6,44.7,32.7C45.5,32.4,44.2,33.6,44.7,32.7z M44.7,33.6C45,33.6,44.5,33.6,44.7,33.6L44.7,33.6z M44.3,33.1
		c0.2-0.4,0.3-0.5,0.3-0.2s-0.1,0.6-0.2,0.9C44.2,33.6,44.2,33.3,44.3,33.1L44.3,33.1z M44.6,37.1C44.6,37.5,44.6,36.6,44.6,37.1z
		 M44.3,34.1C44.2,34.1,44.2,34,44.3,34.1L44.3,34.1C44.3,34,44.3,34,44.3,34.1L44.3,34.1z M44,33.5C44.1,33.5,44.1,33.5,44,33.5
		c0.2,0.1,0.1,0.3,0,0.4C43.9,33.9,43.9,33.6,44,33.5L44,33.5z M43.9,32.9L43.9,32.9c0.2,0.1-0.2,0.7-0.2,0.8
		C43.6,33.4,43.7,33.1,43.9,32.9L43.9,32.9z M43.8,39.1L43.8,39.1C44.3,39.4,43.4,39.2,43.8,39.1L43.8,39.1z M43.4,34
		c0.1,0.2,0.1,0.4,0,0.6C43.3,34.4,43.3,34.2,43.4,34L43.4,34z M43.3,37.5c0.2,0,0,0.5-0.1,0.4c0-0.1,0-0.2,0-0.2
		C43.3,37.6,43.3,37.5,43.3,37.5L43.3,37.5z M43.1,33.8c0.1-0.2,0-0.4,0.1-0.6l0.1,0.2c0.1,0.1,0.1,0.2,0.1,0.3
		C43.4,33.8,43,34.2,43.1,33.8L43.1,33.8z M43.1,38.3c-0.1,0.3-0.1,0.3-0.2,0C43,38.1,43,38,43.1,38.3L43.1,38.3z M43,39.9
		c-0.2-0.2-0.2-0.4-0.1-0.5C43.1,39.5,43.1,40.3,43,39.9z M43,37c0.1-0.4,0.2,0.6,0.1,0.6C43,37.4,43,37.2,43,37L43,37z M42.9,35.8
		c0.2,0.2,0.2,0.4,0.1,0.6C42.9,36.2,42.8,36,42.9,35.8L42.9,35.8z M42.7,34.8L42.7,34.8C43.3,34.5,42,35.4,42.7,34.8L42.7,34.8z
		 M42.6,33.6c0.1,0.2,0,0.3-0.1,0.5C42.5,34.1,42.3,33.6,42.6,33.6z M42.4,35.8c0.1-0.2,0.2-0.4,0.2-0.6c0.3,0-0.2,0.9-0.2,0.9
		c0,0.1,0,0.1-0.1,0.1C42.2,36.4,42.3,36,42.4,35.8z M42.1,34.5C42.3,34.5,42,34.5,42.1,34.5z M42,34.8C42.3,34.8,41.7,34.8,42,34.8
		L42,34.8z M40.9,36.9c-0.1,0.2-0.1,0.2-0.2,0.1c0-0.1,0.1-0.2,0.2-0.3l0,0C40.9,36.7,40.9,36.8,40.9,36.9L40.9,36.9z M41.1,36.8
		c0-0.3-0.1-0.6-0.2-0.9c0,0.1,0,0.6-0.1,0.6c-0.1-0.3-0.1-0.5-0.1-0.8c0-0.1,0.1-0.1,0.1-0.1s0.1,0,0.1,0.1s0.1,0.1,0.1,0.2
		C41.4,36.3,41,36.6,41.1,36.8L41.1,36.8z M41.6,37.9c-0.2,0-0.1-0.4-0.1-0.4C41.7,37.6,41.8,37.8,41.6,37.9L41.6,37.9z M42,39.8
		c0-0.1,0-0.2,0-0.4c0.2,0,0.2,0.7,0.2,0.7C42.1,40,42.1,39.9,42,39.8z M42.3,37.9c0.2,0.1-0.6,0.4-0.2-0.1c0,0-0.1-0.6-0.1-0.7
		c0.1,0.5-0.5-0.4-0.4-0.4c0,0.1-0.1,0.5-0.2,0.5c0.1,0-0.3-1.9-0.2-1.8c0.1,0.2,0.1,0.4,0.1,0.6c0.1-0.2,0.1-0.4,0.2-0.6
		c0,0.2,0.1,0.3,0.2,0.5c0-0.2,0.1-0.4,0.2-0.6c0.1,0,0,1,0.2,1c0.1-0.1,0.1-1.3,0.3-1.3c-0.3,0,0.1,2.1,0.2,2.4l0.2-1.1
		c-0.4,0.2,0.9,1.8,0.2,1.7c0,0,0,0.2-0.1,0.2c-0.1,0.1-0.1,0.1-0.1,0.2c0.1,0.2,0,0.3-0.1,0.5c-0.2,0,0.1-1.4,0.1-1.7
		c0,0.2-0.1,0.5-0.2,0.7C42.4,37.7,42.4,37.8,42.3,37.9C42.4,37.9,42.4,38,42.3,37.9L42.3,37.9z M42.5,40
		C42.1,39.6,42.6,40.1,42.5,40z M42.9,40.6c-0.5,0.2,0-0.5-0.3-0.5C42.8,40.3,42.9,40.4,42.9,40.6z M43,40.2L43,40.2
		c0.3,0,0.2,0.6,0.2,0.6C43.2,40.7,42.8,40.2,43,40.2z M43.4,41.3c-0.1,0-0.3-0.2-0.2-0.3l0,0C43.2,41,43.5,41.3,43.4,41.3z
		 M43.3,39.4c-0.1-0.4,0.4,0.5,0.4,0.7C43.6,40.5,43,38.4,43.3,39.4z M43.8,45c-0.2,0-0.2-0.1-0.1-0.3C43.8,44.7,43.8,44.8,43.8,45z
		 M43.9,44.5c-0.2,0-0.2-0.1-0.1-0.3C43.8,44.3,43.9,44.4,43.9,44.5z M43.9,44c-0.1-0.1-0.1-0.2-0.1-0.2
		C43.7,43.3,44.4,44.7,43.9,44L43.9,44z M44.1,39.5C44,39.2,44,39,44.1,39l0,0c0.2-0.1,0.2,1,0.1,0.9C44.2,39.8,44.2,39.7,44.1,39.5
		L44.1,39.5z M44.5,38.4c0-0.1-0.2,0.7-0.1,0.6c-0.1,0.1-0.4-0.8-0.4-0.7s-0.2,0.6-0.2,0.3c0,0,0-1.4,0.1-1.4s0.3,1,0.4,1.1
		c0-0.1,0.1-1.2-0.1-1.1c0.1-0.1,0.3,0.4,0.3,0.4C44.8,38,44.5,38.5,44.5,38.4L44.5,38.4z M44.8,40c-0.2,0-0.3-1-0.2-0.9
		C44.8,39.3,44.9,39.6,44.8,40C44.9,39.9,44.9,40,44.8,40L44.8,40z M45.1,40.7C45.2,40.5,44.9,40.8,45.1,40.7L45.1,40.7z M45.1,38.8
		C45,38.9,45,39,45,39.2c-0.5-0.1-0.5-1.1-0.5-1.7C44.5,37.1,45.5,38.9,45.1,38.8L45.1,38.8z M45.2,38.2c0-0.1-0.1-0.1,0-0.2
		c0.1-0.2,0.4,0.5,0.3,0.7C45.4,38.6,45.3,38.4,45.2,38.2L45.2,38.2z M45.8,39.7C45.8,39.8,45.7,39.8,45.8,39.7
		c-0.3,0-0.6-0.9-0.4-0.9c0.3,0,0.1,0.6,0.2,0.7c0.1-0.1,0.2-0.2,0.2-0.4C46,39.3,46,39.5,45.8,39.7L45.8,39.7z M46.1,33
		C46.1,32.9,46.1,32.9,46.1,33c0.1-0.1,0.2-0.1,0.2,0C46.2,33.1,46.1,33.1,46.1,33z M46.2,33.7C46.1,34.1,46,33.8,46.2,33.7
		C46.2,33.4,46.3,33.5,46.2,33.7z M46.4,32.7c-0.2,0.2,0-0.4,0.1-0.2C46.5,32.6,46.5,32.7,46.4,32.7L46.4,32.7z M48.9,33.2
		C49,33.1,49.3,33,48.9,33.2C48.7,33.5,48.7,33.4,48.9,33.2z M48.4,33.4C48.6,33.4,48.1,33.3,48.4,33.4z M48.3,33.1
		C48.6,33,48.2,33.5,48.3,33.1C48.2,33.1,48.2,33.1,48.3,33.1z M48,33.5C48.1,33.4,48.1,33.7,48,33.5C47.9,33.5,48,33.5,48,33.5
		L48,33.5z M47.9,35.4C48,35.4,48.1,35.3,47.9,35.4c0.1-0.1,0-0.2,0.1-0.2c0.6,0,0.4,1.1,0.2,1.3c-0.1,0.1-0.7-0.7-0.7-0.7
		c0.2-0.2,0.5,0.5,0.7,0.4C48.4,36,47.5,35.3,47.9,35.4L47.9,35.4z M47.6,35.2L47.6,35.2C48,35.5,47.3,35.3,47.6,35.2L47.6,35.2z
		 M47.8,34.9c-0.2,0-0.4-0.1-0.5-0.3C47.4,34.6,47.8,34.9,47.8,34.9L47.8,34.9z M47.4,33.5C47.6,33.2,47.2,33.9,47.4,33.5z
		 M46.7,33.2l-0.1-0.8c-0.1-0.1,0.9,0.3,0.6,0.3C47,32.8,46.8,33,46.7,33.2z M46.9,33.9C46.6,33.9,47.2,33.9,46.9,33.9L46.9,33.9z
		 M47.2,32.9c0.3-0.1,0,0.5-0.1,0.4C47,33.2,47,33,47.2,32.9L47.2,32.9z M47.4,34.1c0.4,0.1,0.3,0.1-0.1,0.2
		C47.1,34.2,47.1,34.1,47.4,34.1L47.4,34.1z M47.2,37.4C46.9,36.9,47.6,38,47.2,37.4L47.2,37.4z M48.4,38.3c-0.3,0-0.5-0.7-0.5-0.7
		C48.2,37.7,48.4,37.9,48.4,38.3C48.5,38.2,48.5,38.3,48.4,38.3z M48.4,37.5c0,0-0.7-0.4-0.8-0.5s0-0.8-0.1-0.8
		C48.1,36.5,48.7,37.8,48.4,37.5L48.4,37.5z M48.8,37.1L48.8,37.1c-0.2,0.1-0.3-0.1-0.2-0.2C48.6,36.8,48.8,37,48.8,37.1L48.8,37.1z
		 M48.8,34c-0.1-0.1-0.1-0.2,0.1-0.3l0,0C48.9,33.8,48.9,33.9,48.8,34z M48.9,34.7C48.6,34.7,49.4,34.7,48.9,34.7z M49.1,37.2
		C49,37.2,49.1,36.8,49.1,37.2z M50.6,34.3C50.6,34.3,50.7,34.3,50.6,34.3c0.2,0.3,0.3,0.5,0.3,0.6C50.9,35,50.4,34.3,50.6,34.3
		L50.6,34.3z M50.1,35.9C50.5,35.8,49.7,36,50.1,35.9L50.1,35.9z M49.7,36.1C50.1,36.1,49.3,36.1,49.7,36.1z M49.6,35.8
		c0,0.2-0.1,0.2-0.3,0.2C49.4,35.9,49.5,35.8,49.6,35.8C49.6,35.7,49.6,35.7,49.6,35.8L49.6,35.8z M49.5,35.3
		C49.8,35.3,48.9,35.3,49.5,35.3L49.5,35.3z M49.3,36.4C48.9,36,49.7,36.8,49.3,36.4L49.3,36.4z M50,37.3c-0.2-0.3-0.7-0.2-0.5-0.8
		c0.2,0,0.4,0,0.6,0c0,0,0-0.1,0.1-0.1c0.3,0-0.5,0.5-0.5,0.2c0,0.2,0.5,0.4,0.5,0.6C50.2,37.4,50.1,37.4,50,37.3L50,37.3z
		 M50.4,37.8c-0.1,0.2-0.3-0.3-0.2-0.3S50.4,37.6,50.4,37.8L50.4,37.8z M50.6,35.8c-0.1,0-0.3-0.5-0.3-0.6l0,0
		C50.4,35.1,50.7,35.7,50.6,35.8L50.6,35.8z M50.7,37C50.7,37.1,50.7,37.1,50.7,37c-0.2,0-0.3-0.2-0.1-0.2
		C50.6,36.9,50.7,36.9,50.7,37L50.7,37z M50.3,37.3C50.6,37.1,50.1,37.5,50.3,37.3L50.3,37.3z M50.6,38.2c-0.1-0.1-0.2-0.2-0.1-0.3
		C50.8,37.9,50.9,38.5,50.6,38.2L50.6,38.2z M50.6,35c-0.3-0.6-0.1-0.2-0.3-0.2c-0.1-0.1-0.1-0.2,0-0.3c0,0,0,0,0.1,0
		c0.2,0,0.6,0.8,0.6,0.9C50.9,35.5,50.8,35.4,50.6,35L50.6,35z M49.1,42.6L49.1,42.6C49.1,42.2,49.3,42.6,49.1,42.6L49.1,42.6z
		 M49.3,42.6c-0.1-0.3-0.1-0.5,0-0.8C49.6,41.9,49.5,43.1,49.3,42.6L49.3,42.6z M49.7,42.4c0,0,0-0.9,0.1-0.9
		C49.9,41.5,49.8,42.4,49.7,42.4L49.7,42.4z M49.8,43c-0.1,0-0.1-0.1,0-0.2c0,0,0.1,0,0.1,0.1C49.9,43,49.9,43,49.8,43L49.8,43z
		 M50.2,42.3c0,0-0.4-1-0.2-1.1C50,41.2,50.3,42.2,50.2,42.3L50.2,42.3z M50.3,41.6c-0.1-0.5-0.1-0.8,0-0.8c0.3,0,0.1,1.2,0.1,1.2
		C50.3,41.8,50.3,41.7,50.3,41.6L50.3,41.6z M50.7,40.9c-0.2-0.6-0.3-0.8-0.3-0.8l0,0C50.8,40,50.7,40.9,50.7,40.9L50.7,40.9z
		 M50.7,40.1c-0.3-0.7,0-0.3,0-0.3c0.1,0.2,0.1,0.3,0.2,0.5C51,40.6,50.7,40.1,50.7,40.1z M51.7,46.6c0,0.1-0.1,0.2-0.1,0.4
		c0,0-0.1-0.7,0.1-0.7C51.7,46.3,51.7,46.4,51.7,46.6L51.7,46.6z M52.5,42.2C52.2,42.5,52.8,42,52.5,42.2L52.5,42.2z M52.8,43.8
		c-0.1-0.2-0.1-0.4,0-0.6C52.9,43.4,52.9,43.6,52.8,43.8L52.8,43.8z M53.3,34.2C53.4,34.2,53.4,34.2,53.3,34.2
		c0.3,0,0.3,0.5,0.3,0.5C53.5,34.6,53.4,34.4,53.3,34.2L53.3,34.2z M53.1,44.2c-0.1-0.1-0.1-0.3,0-0.4l0,0
		C53.2,43.9,53.2,44,53.1,44.2L53.1,44.2z M53.3,44.7L53.3,44.7c-0.1-0.2-0.1-0.2,0-0.2C53.3,44.4,53.4,44.7,53.3,44.7L53.3,44.7z
		 M53.7,44c0,0.3,0,0.5-0.1,0.8c0,0-0.7-2.2-0.5-2.2c0,0,0.3,0.6,0.3,0.3c0-0.1,0-0.1,0.1-0.1c0.1,0.1,0.1,0.3,0.2,0.4
		C53.8,43.2,53.8,43.9,53.7,44L53.7,44z M54.3,42.8c0.1,0,0,2.1-0.3,2.1c-0.1,0-0.3-2.6,0-2.6C54.1,42.4,54.2,42.6,54.3,42.8
		L54.3,42.8z M54.6,41.8c-0.1,0.1-0.2-0.3-0.1-0.3C54.6,41.6,54.7,41.7,54.6,41.8L54.6,41.8z M55,34.6L55,34.6
		C54.9,34.5,54.9,34.5,55,34.6C55,34.4,55,34.6,55,34.6L55,34.6z M55.8,40.3c-0.1-0.2-0.1-0.5,0-0.7C56,39.5,55.8,40.3,55.8,40.3
		L55.8,40.3z M56.1,40c0,0.1-0.1,0.2-0.1,0.4c-0.1-0.2-0.1-0.5,0-0.7C56.1,39.8,56.1,39.9,56.1,40L56.1,40z M56.8,40.5
		c-0.1,0-0.2-0.7-0.1-0.7C56.8,40,56.8,40.3,56.8,40.5L56.8,40.5z M57.3,36.8c-0.1-0.1-0.2-0.1-0.1-0.2
		C57.4,36.7,57.5,36.8,57.3,36.8L57.3,36.8z M58,38.1c-0.2-0.1-0.4-0.3-0.4-0.6C57.8,37.7,58,37.9,58,38.1L58,38.1z M57.9,37.3
		c0.5,0.8-0.5-0.2-0.3-0.3C57.8,37,57.9,37.1,57.9,37.3L57.9,37.3z M57.5,36.2c0.1-0.1,0.3,0.4,0.1,0.4
		C57.5,36.5,57.4,36.4,57.5,36.2z M57.7,40.5c-0.1-0.2-0.1-0.4,0-0.6C57.9,39.9,57.8,40.6,57.7,40.5L57.7,40.5z M64,49.1
		c0-0.3-0.2-0.4-0.2-0.1c0,0.1,0,0.3-0.1,0.4c-0.1,0.1-0.1,0.1-0.1-0.2c0-0.2,0-0.4-0.1-0.4s-0.1-0.1-0.1-0.2s0-0.2-0.1-0.3l0,0
		c-0.1,0-0.1,0.1,0,0.4c0.1,0.5,0.1,0.8,0,0.9c-0.1,0.1-0.1,0-0.1-0.4c0-0.3,0-0.5-0.1-0.5s0,0.2,0,0.4s0,0.4-0.1,0.4
		s-0.1,0.2-0.1,0.4v0.4v-0.4c0-0.5-0.2-0.5-0.2,0c0,0.2,0,0.4-0.1,0.4c0,0-0.1,0,0-0.2c0-0.1,0-0.2,0-0.3c-0.1-0.2-0.2,0.2-0.1,0.5
		c0,0.2,0,0.3-0.1,0.3c-0.1,0.1-0.1,0.2-0.1,0.3c0,0.2-0.2,0.3-0.3,0.1c0-0.1-0.1,0-0.2,0.1c-0.1,0.2-0.1,0.4-0.1,1
		c0,0.5,0,0.7,0.1,0.6c0.1-0.1,0.1-0.4,0.1-0.7c0-0.4,0-0.6,0.1-0.6s0.1,0.2,0.1,0.5c0,0.2,0,0.4,0,0.5c0.1,0.2,0.2-0.1,0.1-0.6
		c0-0.4,0-0.5,0.1-0.4s0.1,0.3,0.1,0.4c0,0.2,0,0.3,0.1,0.3s0.1-0.2,0.1-0.4s0-0.4,0.1-0.6l0.1-0.2v0.2c0,0.3,0.2,0.1,0.2-0.2
		c0-0.2,0-0.3,0.1-0.3s0.1,0.1,0,0.2c-0.1,0.3,0,0.5,0.2,0.2c0-0.1,0.1-0.1,0.1-0.2c0-0.2,0-0.7,0.1-0.7s0.1,0.1,0,0.3
		c0,0.3,0,0.3,0.1,0.3s0.2-0.1,0.2-0.4v-0.4v0.4c0,0.4,0.1,0.6,0.2,0.3c0-0.1,0.1-0.4,0.2-0.6c0.1-0.2,0.1-0.4,0-0.5
		C64,49.3,64,49.2,64,49.1L64,49.1z M62.9,42.4c0-0.1,0-0.2-0.1-0.2C62.7,42.3,62.8,42.6,62.9,42.4z M69.8,42.7L69.8,42.7L69.8,42.7
		L69.8,42.7z M70.4,45.1c0-0.6,0-0.9,0-0.8c0,0.1,0.1,0.5,0.1,1s0,0.8,0.1,0.7c0-0.3,0.1-0.6,0.1-1c0-0.5,0-0.8,0.1-0.8
		c0,0.3,0.1,0.6,0,1c0,0.7,0,0.9,0.1,0.9s0.1-0.2,0.1-0.7c0-0.1,0.1-0.2,0.1-0.2c0.1-0.1,0.1-0.2,0.1-0.8c0-0.4,0-0.7,0-0.7
		s0.1,0.3,0.1,0.6s0,0.6,0.1,0.6s0.3-0.8,0.2-1.2c0-0.2-0.1-0.3-0.1-0.1c0,0.3-0.1,0.2-0.1-0.1c0-0.2,0-0.3,0-0.2
		c0.1,0,0.1,0,0.1-0.2v-0.2l0.1,0.2c0.1,0.2,0.1,0.5,0.1,0.7c0,0.3,0.1,0.5,0.1,0.5c0.1,0,0.1-0.4,0.1-0.6c0-0.2-0.1-0.4-0.1-0.5
		c0-0.2,0-0.2,0-0.1c0.1,0.5,0.1,0.5,0.2,0.4c0.1-0.3,0.1-0.7,0.1-1c0-0.5,0-0.8,0-0.8c0,0.2,0.1,0.4,0.1,0.7c0,0.8,0.1,1.2,0.2,1.2
		s0.1-0.7,0-0.8s-0.1-0.2,0-0.5c0-0.1,0.1-0.3,0.1-0.4c0,0,0.1,0.2,0.1,0.4s0,0.4,0.1,0.5s0.1,0,0-0.4c0-0.2,0-0.4-0.1-0.6
		c-0.1-0.1-0.1-0.2-0.1-0.3c0-0.3-0.2-0.1-0.2,0.1c0,0.2,0,0.2-0.1,0.2c-0.1-0.1-0.1-0.3,0-0.7c0-0.1,0-0.2,0-0.2
		c-0.1,0-0.2,0.2-0.2,0.3c0,0.2,0,0.2-0.1,0.1s-0.1,0-0.1,0.4c0,0.2,0,0.4-0.1,0.6c-0.1,0.1-0.1,0.1,0-0.2c0-0.3,0-1.2-0.2-1.7
		c0-0.2,0-0.3,0-0.2c0.1,0,0.1,0,0.1,0l-0.1-0.1c0,0,0,0-0.1,0c0,0-0.1,0.1-0.1,0.2c0,0.1,0,0.2-0.1,0.3c0,0-0.1,0.1,0,0.1
		c0.1,0.1,0.1,0.2,0.1,0.4s0.1,0.4,0.1,0.5c0,0.2,0,0.2-0.1,0c-0.1-0.1-0.1-0.1-0.1,0s0,0.1-0.1,0c-0.1-0.2-0.3-0.1-0.2,0.1
		c0.1,0.2,0.1,1.6,0,1.7c0,0-0.1-0.2,0-0.6c0-0.4,0-0.6,0-0.6c-0.1,0-0.2-0.4-0.2-0.8c0-0.3-0.1-0.4-0.2-0.2s-0.1,0.4,0.1,1
		c0.2,0.5,0.2,0.6,0.1,0.9c0,0.3-0.1,0.6,0,0.9v0.6l0.1-0.6c-0.1-0.3-0.1-0.6,0-0.9c0.1-0.4,0.1-0.6-0.1-1.1
		c-0.1-0.2-0.1-0.4-0.2-0.6c-0.1-0.1-0.1,0.3,0,0.5c0.1,0.3,0.2,1.7,0.1,1.8c-0.1,0-0.1,0,0-0.2c0-0.1,0-0.2,0-0.2s-0.1-0.1-0.1-0.2
		c-0.1-0.2-0.2-0.2-0.2,0c0,0.3,0,0.5-0.1,0.8c-0.1,0.5-0.1,0.6,0,0.7c0.1,0.2,0.2,1.2,0.1,1.5c-0.1,0.1-0.1,0.3,0,0.5
		s0.1,0.2,0.1-0.1C70.4,45.9,70.4,45.5,70.4,45.1L70.4,45.1z M71.5,41.9L71.5,41.9c0,0.1,0,0.2,0,0.3s0,0,0-0.1
		C71.5,42,71.5,42,71.5,41.9z M71.3,41.9c0,0,0.1,0.2,0.1,0.4c0,0.1,0,0.3,0,0.3l-0.1-0.1c0-0.1,0-0.3,0-0.4S71.3,41.9,71.3,41.9
		L71.3,41.9z M71,44.4L71,44.4c0,0.1,0,0.2,0,0.3s0,0,0-0.1C71,44.5,71,44.4,71,44.4L71,44.4z M70.9,44.7L70.9,44.7
		c0,0.1,0,0.2,0,0.3s0,0,0-0.1C70.9,44.8,70.9,44.7,70.9,44.7z M70.1,44.7c-0.1-0.3-0.1-0.5-0.1-1c0-0.4,0-0.6,0-0.6
		s-0.1,0.1-0.1,0.2s0,0,0-0.2s-0.1-0.4-0.1-0.4c-0.1,0-0.1,0.7,0,1.4c0,0.3,0,0.5,0,0.6c0,0-0.1,0-0.1-0.2s0-0.3-0.1-0.5
		s-0.1-0.3-0.1,0.5c0,0.3-0.1,0.3-0.1,0c0-0.2,0-0.4-0.1-0.6l-0.1-0.3v0.5c0,0.2,0,0.4,0,0.6c0,0.1-0.1,0.3-0.1,0.4
		c0,0.3,0,0.4-0.1,0.3c-0.1-0.2-0.1-0.4-0.1-0.6c0-0.2,0-0.4-0.1-0.6c-0.1-0.1-0.1-0.1-0.1,1V46l-0.1-0.6c0-0.4-0.1-0.6-0.1-0.6
		c-0.1,0-0.1,0.1-0.1,0.6c0,0.4,0,0.6-0.1,0.7s-0.1-0.1-0.1-0.4c0-0.7,0-0.8-0.1-0.7C68,45.2,68,45.4,68,45.5v0.4l-0.1-0.3l0.1-0.4
		v0.4c0,0.5-0.1,0.6-0.2,0.7c-0.1,0.1-0.1-0.1,0-0.4c0.1-0.1,0.1-0.3,0-0.4c-0.1-0.3-0.2-0.3-0.2,0c0,0.1,0,0.2,0,0.3
		c0,0-0.1,0.3-0.1,0.6s0,0.5-0.1,0.5c0,0-0.1-0.4,0-0.9c0-0.3,0-0.6,0-0.9c-0.1-0.1-0.2,0.1-0.2,0.5c0,0.6-0.1,0.8-0.1,0.3
		c0-0.2,0-0.4-0.1-0.6c-0.1-0.1-0.1-0.1-0.1,0.1c0.1,0.7,0.1,0.9,0.1,0.8c-0.1-0.3-0.2-0.1-0.2,0.3c0,0.4,0,0.4-0.1,0.2
		c0-0.1,0-0.2,0-0.3c0,0,0-0.1-0.1-0.1s-0.1-0.1-0.1-0.2c0-0.1,0-0.2,0-0.2l-0.1-0.1c0-0.1,0,0.1,0,0.4c0,0.4,0,0.5-0.1,0.4
		c-0.1,0-0.1,0,0,0.5c0,0.3,0,0.5,0,0.5s-0.1-0.2-0.1-0.5s-0.1-0.5-0.1-0.6c0,0-0.1,0.1,0,0.4c0,0.3,0,0.5,0,0.5S66,47.3,66,47.1
		s0-0.3-0.1-0.2s-0.1,0.6,0,0.7c0.1,0.1,0.1,0.1,0,0.2c-0.1,0.1-0.1,0-0.1-0.2s-0.1-0.3-0.1-0.3s0,0.1,0,0.2c0,0.1,0,0.3,0,0.3
		s-0.1-0.1-0.1-0.2c0-0.1,0-0.2-0.1-0.2s-0.1,0.1,0,0.5c0.1,0.2,0.1,0.3,0.1,0.5c0,0.1-0.2-0.4-0.2-0.7c0-0.1,0-0.2-0.1-0.2
		s-0.1,0.1,0,0.3c0,0.1,0,0.3,0.1,0.4c0,0,0,0.1-0.1,0.1s-0.1,0.1-0.1,0c0,0,0-0.1,0-0.2c0-0.1,0-0.1-0.1-0.2
		c-0.1-0.1-0.2,0.3-0.1,0.4c0,0.1,0,0.1,0,0.1s-0.1,0-0.1-0.1s0-0.1-0.1-0.2c0,0-0.1,0.1-0.1,0.4c0,0.2,0,0.4-0.1,0.6
		c-0.1,0.1-0.1,0,0-0.3c0-0.2,0-0.4,0-0.5c-0.1-0.1-0.1-0.1-0.1,0c-0.1,0.2-0.1,0.8,0,1.8c0.1,0.8,0.2,1,0.2,0.3c0-0.2,0-0.4,0-0.5
		s0-0.2,0-0.3c0-0.3,0.2-0.2,0.2,0.2c0,0.3,0.1,0.6,0.2,0.4c0-0.1,0-0.4,0-0.8c0-0.8,0.1-1,0.1-0.3c0,0.4,0,0.4,0.1,0.2
		c0-0.2,0.1-0.2,0.2-0.2s0.1,0,0.1-0.2c-0.1-0.2,0.1-0.3,0.1-0.1c0,0.1,0.1,0.1,0.1-0.1c0.1-0.2,0.1-0.2,0.1,0.1
		c0,0.2,0,0.3,0.1,0.5c0,0.2,0.1,0.2,0.1,0c0-0.1,0.1-0.2,0.1-0.3c0-0.2,0-0.2,0.1,0.1S66,49.2,66,49c0-0.1,0-0.2,0.1-0.3
		s0.1-0.2,0.1-0.3c0-0.2,0-0.3,0.1-0.5c0-0.1,0,0,0,0.4s0,0.6,0,0.6c0.1,0,0.1-0.1,0.1-0.5c0-0.3,0-0.5,0.1-0.5c0,0,0.1,0.2,0.1,0.4
		c0,0.3,0.1,0.5,0.2,0.2c0-0.2,0.1-0.3,0.1-0.5c0-0.5,0.2-0.2,0.2,0.4c0,0.6,0.2,0.7,0.2,0.2c0-0.3,0-0.3,0-0.1
		c0,0.3,0.2,0.3,0.2,0.1c0-0.1,0-0.1,0.1,0c0,0.1,0.1-0.2,0.1-0.6v-0.7v0.9c0,0.7,0,0.9,0.1,0.8c0.1-0.1,0.2-0.7,0.2-1.4
		c0-0.4,0-0.5,0.1-0.5s0.1,0,0,0.1s0,0.7,0.1,0.7c0,0,0.1-0.2,0.1-0.4c0-0.3,0-0.3,0.1-0.3c0.1,0.1,0.1,0.7-0.1,1.5
		c-0.1,0.4,0.1,0.2,0.2-0.3c0.1-0.4,0.1-0.8,0.1-1.1v-0.7l0.1,0.7c0.1,0.7,0.2,0.7,0.2,0.1c0-0.2,0-0.2,0,0.1s0,0.3,0.1,0.2
		s0.1-0.1,0.1,0s0,0.1,0.1,0.2c0.1,0,0.3-0.7,0.2-1.2c0-0.2,0-0.5,0-0.7c0.1-0.2,0.1-0.2,0.1,0.1c0,0.2,0,0.4,0,0.6v0.4l0.2-0.1
		c0.2-0.1,0.2-0.1,0.2-0.4c-0.1-0.7-0.1-1.2-0.1-1.1s0.1,0.1,0.1,0.5v0.3l0.1-0.2C70.3,45.7,70.2,45.1,70.1,44.7L70.1,44.7z
		 M66.5,47.2c0-0.1-0.1-0.2-0.1-0.3c0-0.2,0-0.3,0-0.3s0.1,0.1,0.1,0.3C66.5,47,66.5,47.1,66.5,47.2z M67,46.9c0,0.1,0,0.3,0,0.4
		c0,0.1,0,0.1-0.1,0.1s0-0.7,0.1-0.7l0,0C67,46.6,67,46.7,67,46.9z M67.3,47.8c0,0.1,0,0,0-0.2c0-0.1,0-0.1,0-0.2l0,0
		C67.3,47.6,67.3,47.7,67.3,47.8L67.3,47.8z M69,46.7c0,0.1,0,0,0-0.2c0-0.1,0-0.2,0-0.3l0,0C69.1,46.4,69.1,46.6,69,46.7L69,46.7z
		 M69.2,47.2c-0.1,0.1-0.1-0.1,0-0.3c0,0,0,0,0.1-0.1c0,0,0,0,0,0.1C69.3,47,69.3,47.1,69.2,47.2L69.2,47.2z M69.7,46.7
		c0,0.1-0.1-0.1,0-0.4c0-0.4,0.1-0.6,0.1-0.5s0,0.2,0,0.4C69.8,46.3,69.7,46.5,69.7,46.7L69.7,46.7z"/>
</g>
<path fill="#584528" d="M11.6,65.3h-0.8c-0.9,0-1.6,0.7-1.6,1.6v3.5c0,0.9,0.7,1.6,1.6,1.6h0.8c0.9,0,1.6-0.7,1.6-1.6V70H12v0.4
	c0,0.2-0.2,0.4-0.4,0.4h-0.8c-0.2,0-0.4-0.2-0.4-0.4v-3.5c0-0.2,0.2-0.4,0.4-0.4h0.8c0.2,0,0.4,0.2,0.4,0.4v0.4h1.2v-0.4
	C13.3,66,12.5,65.3,11.6,65.3z M15.4,65.3l-1.8,6.8h1.2l0.3-1.2H17l0.3,1.2h1.2l-1.8-6.8H15.4z M15.5,69.6l0.6-2.3l0.6,2.3H15.5z
	 M20.2,65.3H19v6.8h3.7v-1.2h-2.4v-5.6H20.2z M23,65.3h1.2v6.8H23V65.3z M25.1,72.1h1.2v-2.9h2.4V68h-2.4v-1.5h2.4v-1.2H25v6.8H25.1
	z M32,65.3h-0.8c-0.9,0-1.6,0.7-1.6,1.6v3.5c0,0.9,0.7,1.6,1.6,1.6H32c0.9,0,1.6-0.7,1.6-1.6v-3.5C33.7,66,32.9,65.3,32,65.3z
	 M32.4,70.4c0,0.2-0.2,0.4-0.4,0.4h-0.8c-0.2,0-0.4-0.2-0.4-0.4v-3.5c0-0.2,0.2-0.4,0.4-0.4H32c0.2,0,0.4,0.2,0.4,0.4V70.4z
	 M36.9,65.3h-2.5v6.8h1.2v-2.9h1.2c0.2,0,0.4,0.2,0.4,0.4V72h1.2v-2.4c0-0.4-0.1-0.7-0.4-1c0.2-0.3,0.4-0.6,0.4-1v-0.7
	C38.6,66,37.8,65.3,36.9,65.3z M37.3,67.6c0,0.2-0.2,0.4-0.4,0.4h-1.2v-1.5h1.2c0.2,0,0.4,0.2,0.4,0.4V67.6z M42.2,69.2l-1.6-3.9
	h-1.2v6.8h1.2v-3.9l1.6,3.9h1.2v-6.8h-1.2V69.2z M44.3,65.3h1.2v6.8h-1.2V65.3z M47.7,65.3l-1.8,6.8h1.2l0.3-1.2h1.8l0.3,1.2h1.2
	L49,65.3H47.7z M47.8,69.6l0.6-2.3l0.6,2.3H47.8z M59,65.3h-2.5v6.8h1.2v-2.9H59c0.2,0,0.4,0.2,0.4,0.4V72h1.2v-2.4
	c0-0.4-0.1-0.7-0.4-1c0.2-0.3,0.4-0.6,0.4-1v-0.7C60.6,66,59.9,65.3,59,65.3z M59.4,67.6c0,0.2-0.2,0.4-0.4,0.4h-1.2v-1.5H59
	c0.2,0,0.4,0.2,0.4,0.4V67.6z M61.4,65.3v6.8h3.7v-1.2h-2.4v-1.6h2.4V68h-2.4v-1.5h2.4v-1.2h-2.4H61.4z M68.4,65.3H66v6.8h1.2v-2.9
	h1.2c0.9,0,1.6-0.7,1.6-1.6v-0.7C70,66,69.3,65.3,68.4,65.3z M68.8,67.6c0,0.2-0.2,0.4-0.4,0.4h-1.2v-1.5h1.2c0.2,0,0.4,0.2,0.4,0.4
	V67.6z M73.7,70.4c0,0.2-0.2,0.4-0.4,0.4h-0.8c-0.2,0-0.4-0.2-0.4-0.4v-5.2h-1.2v5.2c0,0.9,0.7,1.6,1.6,1.6h0.8
	c0.9,0,1.6-0.7,1.6-1.6v-5.2h-1.2V70.4z M78.2,65.3h-2.5v6.8h2.5c0.9,0,1.6-0.7,1.6-1.6v-0.8c0-0.4-0.1-0.7-0.4-1
	c0.2-0.3,0.4-0.6,0.4-1V67C79.8,66,79.1,65.3,78.2,65.3z M78.6,70.4c0,0.2-0.2,0.4-0.4,0.4H77v-1.6h1.2c0.2,0,0.4,0.2,0.4,0.4V70.4z
	 M78.6,67.6c0,0.2-0.2,0.4-0.4,0.4H77v-1.5h1.2c0.2,0,0.4,0.2,0.4,0.4V67.6z M81.8,65.3h-1.2v6.8h3.7v-1.2h-2.5V65.3z M84.7,65.3
	h1.2v6.8h-1.2V65.3z M90.8,67.3v-0.4c0-0.9-0.7-1.6-1.6-1.6h-0.8c-0.9,0-1.6,0.7-1.6,1.6v3.5c0,0.9,0.7,1.6,1.6,1.6h0.8
	c0.9,0,1.6-0.7,1.6-1.6V70h-1.2v0.4c0,0.2-0.2,0.4-0.4,0.4h-0.8c-0.2,0-0.4-0.2-0.4-0.4v-3.5c0-0.2,0.2-0.4,0.4-0.4h0.8
	c0.2,0,0.4,0.2,0.4,0.4v0.4H90.8z"/>
<g>
	<path opacity="0.2" enable-background="new    " d="M10.4,74.3V25.8c0-12.1,8.2-22.7,19.8-25.8H0v100h30.2
		C18.5,96.9,10.4,86.3,10.4,74.3z"/>
	<path opacity="0.1" fill="#FFFFFF" enable-background="new    " d="M89.6,25.8v48.5c0,12.1-8.2,22.7-19.8,25.8H100V0H69.8
		C81.5,3.1,89.6,13.7,89.6,25.8z"/>
</g>
</svg>
