<?xml version="1.0" encoding="utf-8"?>
<!-- Generator: Adobe Illustrator 23.0.0, SVG Export Plug-In . SVG Version: 6.00 Build 0)  -->
<svg version="1.0" id="Layer_1" xmlns="http://www.w3.org/2000/svg" xmlns:xlink="http://www.w3.org/1999/xlink" x="0px" y="0px"
	 width="100px" height="100px" viewBox="0 0 100 100" enable-background="new 0 0 100 100" xml:space="preserve">
<g>
	<path id="path14" fill="#0C2D83" d="M0,0h100v100H0V0L0,0z"/>
	<path fill="#FFFFFF" d="M91.1,65.9C91.1,65.9,91.1,65.9,91.1,65.9l-0.1-0.1c-1.4-0.8-2.8-1.5-2.8-1.5l1.6-1.3l0.6-0.5c0,0,0,0,0,0
		l1.3-1.1c0,0-0.9,0.1-2.1-0.3c-3.7-1-7.2,0.2-10.3,1.5c-0.6,0.3-1.1,0.5-1.5,0.6L77,60.6c0,0-1.3-0.9-4.3,0.1
		c-2.7,0.9-3.4,2.4-3.2,2.8c0.1,0.2,0.4,0.7,0.7,1.3c-0.1,0-0.2-0.1-0.3-0.2c0.5,0.9,0.6,1,0.8,1.6c0,0,0.1,0,0.2-0.1
		c0,0.1,0.1,0.2,0.1,0.2v0.1c-1.1,0.5-2.6,1.1-4.4,1.6c-5.1,1.6-6.3,2.3-10.8,5.6l0.3,0.7c-0.1,0.1-0.2,0.1-0.3,0.2l0.6,1.8
		c-1.9-0.7-3.9-1.6-5.8-2c-2.3-0.5-7.9-0.9-11.3-1.1c0,0-0.1,0-0.1,0l1.1-2.5c-0.3,0.2-0.1,0.2,0.3-0.5c0.1-0.2,0.2-0.4,0.3-0.5
		c0.2-0.1,0.3-0.3,0.3-0.6c0-0.8-0.5-1.9-6.2-1.9c-1.9,0-3.3-0.1-4.4-0.2l1.7-4.3c0.5-1.4-1.8-1.6-1.8-1.6c-2.2,0-3.9,0-4.9-0.2
		c-2.1-0.5-3.7-0.7-6.8-0.5c-3.1,0.2-5.6,0.2-9.8-1.1c0.2,0.6,0.7,1.3,1.3,1.9c-0.2,0-0.3-0.1-0.5-0.1c0.6,0.8,2,1.9,2.4,2.1
		l-4.6,2.2L9,65.8c4.2,1.2,6.7,1.2,9.8,1.1c2.3-0.1,3.8,0,5.3,0.2l-0.7,2.3c0,0,0,0,0.1,0.1l-0.4,1.1c2,2,3.3,3.1,9.3,3.7L31.9,75
		c0,0,0,0.1,0.1,0.1l-0.6,0.7l0.3,0.1c2.2,3.1,3.5,4.1,8.7,4.2C45.6,80.2,48,80.2,52,82s5.8,2.5,9,1.5c0,0,0.1,0.2,0.6-1.2
		c0.3-0.8,0.5-1.9,0.7-2.9l1-2.5c0.4-0.5,0.8-1.1,1-1.4c1.2-0.5,2.5-1,4.5-1.6c5.1-1.6,7.7-3.1,7.1-4.5L75.1,67c0,0,0.7-0.4,1.2-0.5
		l0.5,1c0.1,0.1,0.3,0.1,0.4,0.1l0.5,1.2c0.7,0.3,1.4,0.5,3.6-0.1c2.2-0.6,8.5-1.7,11.8-1.5C92.6,66.8,91.8,66.3,91.1,65.9z"/>
	<g id="greens">
		<path id="path1400" fill="#129612" d="M46.8,19.4c-0.4,0.3-0.6,0.7-0.7,1.1c0,0.1,0,0.2,0,0.3c0,0.1,0.1,0.2,0.1,0.3
			c0,0.2,0.2,0.3,0.5,0.4c0.4,0.2,0.8,0.1,1.3-0.1l0.4-0.2L48.2,21c-0.3-0.3-0.7-0.5-1.3-0.6l-0.4-0.1H47c0.5,0,0.7-0.1,0.7-0.3
			c0-0.1-0.5-0.7-0.6-0.7C47,19.2,46.9,19.3,46.8,19.4z"/>
		<path id="path1402" fill="#129612" d="M54.3,19.6c-0.3,0.3-0.4,0.6-0.4,0.6s0.1,0,0.3-0.1c0.3-0.2,0.5-0.3,0.5-0.2
			c0.1,0.1-0.1,0.2-0.6,0.5c-0.7,0.5-0.7,0.6-0.6,0.8c0.1,0.2,0.5,0.4,0.7,0.4c0.3,0,0.8-0.2,1-0.3c0.2-0.2,0.2-0.2,0.2-0.6
			c0-0.5-0.2-0.9-0.5-1.2C54.7,19.3,54.6,19.3,54.3,19.6L54.3,19.6z"/>
	</g>
	<g>
		<path fill="#FFFFFF" d="M54.1,22.5C54.1,22.5,54.1,22.5,54.1,22.5h0.1H54.1z"/>
		<path fill="#FFFFFF" d="M77,28.6c-0.5-1.2-1.7-2.4-2.7-3.2c-1-0.7-2.2-0.7-3.3-1.6c-1.2-0.9-2-2.2-3.1-3.2
			c-0.7-0.7-1.5-1.4-2.4-1.4c-0.8,0-1.6,0.7-1.6,1.6c-0.1,1.5,0.1,1.8,0.8,2.5c0,0,0,0,0,0.1c0,0,0,0,0-0.1c0,0,0,0,0.1,0.1
			c-0.9,1.3-2.4,2.1-4.7,2.1c-2.3,0-6.7-3-6.4-3.1c0.3-0.1,0-2.1-0.5-2.1s-4.4-0.4-5.4-0.3c-1.6,0-4.6,5.3-6.7,5.4
			c-2.2-0.2-3.8-1.1-5.1-2.6c0.5-0.1,1.1-1.2,1-2.1c0-0.7-0.7-1.4-1.4-1.6c-0.5-0.1-0.9-0.1-1.3,0.1c-0.4,0.1-0.9,0.5-1.3,0.8
			c-1.1,0.9-1.6,2.5-2.7,3.3c-1.8,1.4-4,2.2-6,3.4c-0.7,0.4-1,1.4-1,2c0,0.8,1.1,1.4,1.9,1.4c0.7,0,1.5-0.6,1.9-1.2
			c0.1,0,0.1,0,0.2,0c0,0-0.1,0-0.1-0.1c0,0,0.1-0.1,0.1-0.1c0.6,0.2,1.6,0.9,2,1.6c0.9,1.5,1.9,3.1,1.8,4.9
			c-0.1,1.9-1.2,4.5-2.2,5.2c0.6,0.3,1.1,0.6,1.5,1.1c0.3,0.3,0.6,0.7,0.8,1c0.3,0.5,0.5,1,0.5,1.6c-0.1,1.8-1.9,3-3.4,3.9
			c-0.8,0.4-1.8,0-2.4-0.3c-3,5.3,1.7,11.6,7.4,12.9c0-0.1,0.1-0.2,0.1-0.2c0,0,0,0,0.1,0c0.2-0.3,0.4-0.5,0.6-0.9c0,0,0,0-0.1,0
			c0.5-0.7,1.1-1.4,1.7-1.6c2.3,0.6,4.1,2.6,5.6,4.6c-0.1,0.3-0.1,0.5-0.2,0.7H41v0.2c-0.3,0.5-0.8,0.8-1.5,1.3
			c1.8,1.8,4.6,2.4,6.9,3.5c1.3,0.6,2.1,1.4,3.5,3.1c1.4-1.6,2.2-2.2,3.1-2.6c2.7-1.2,5.7-2.1,8.1-3.9c-0.3-0.2-0.6-0.5-0.8-0.7
			v-0.6h-0.6c-0.4-0.5-0.6-1-0.4-1.5c0.8-1.8,3.8-3,6.2-3c0.8,0.4,1.4,1.3,2.1,1.9c1.6-0.6,2.7-1.2,4-2.1c2.6-1.8,3.4-4.1,3.8-6.8
			c0.1-0.9-0.3-1.8-0.5-2.6c-0.2-0.6,0-1.4-0.6-1.6c-0.3,0-0.7,0-1.1,0c0,0,0,0,0-0.1c-0.5-0.1-1-0.1-1.5-0.1c0,0,0,0.1,0.1,0.1
			c-0.7,0-1.4,0-2-0.1c-1-0.8-1.5-2.4-1.2-3.7c0.9-0.8,2.6-1.9,3.1-3.2c-1.6-1.3-2.9-4.6-2-7.7c0.6-2.3,3.3-4.5,4.7-3.5
			c-0.1,0.6,0.7,1.3,1.5,1.3C76.6,30.7,77.4,29.6,77,28.6z"/>
	</g>
	<g id="blacks">
		<g>
			<path fill="#129612" d="M76.8,45.4c-0.2-0.1-0.3-0.4-0.3-0.5c0-0.2-0.1-0.3-0.3-0.4c-0.2,0-0.6-0.3-0.8-0.6
				c-0.3-0.4-0.5-0.5-0.9-0.4c-0.5,0.1-0.6-0.1-0.1-0.3c0.2-0.1,0.3-0.3,0.3-0.4c0.3-0.3,0.5-0.7,0.5-1.2c0-1-0.8-1.9-1.9-1.9
				c-1.1,0-1.9,0.8-1.9,1.9c-0.3,0.2-0.7,0.5-0.9,0.6c-0.2,0.1-0.3,0.2-0.4,0.4c-0.8,0.1-1.4,0.9-1.4,1.8c0,0.5,0.2,0.9,0.5,1.2
				l-0.1,0l0.1,0.7c0,0,0,0.1,0,0.1c-0.4,0.3-0.7,0.8-0.7,1.4c0,1,0.8,1.8,1.8,1.8c0.8,0,1.4-0.5,1.6-1.3c0.7,0.5,1.5,0.7,1.9,0.5
				c0.6-0.3,0.3-1.4-0.6-2.2c-0.3-0.4-0.5-0.7-0.4-0.7c0.1,0,0.4,0.2,0.6,0.4c0.4,0.5,1.2,0.9,1.6,0.9c0.2,0,0.7-0.4,1.2-0.8
				C77,45.7,77,45.6,76.8,45.4z"/>
			<path fill="#129612" d="M42.1,60.6c0,0-0.1-0.1-0.2-0.1c-0.1,0-0.1-0.1-0.2-0.1c-0.1-0.1-0.3-0.1-0.5-0.1c-0.2,0-0.3,0-0.5,0.1
				c0,0-0.1,0-0.1,0.1c-0.1,0-0.2,0.1-0.3,0.2c0-0.1,0-0.2,0-0.3c0-0.9-0.7-1.7-1.7-1.7c-0.4,0-0.7,0.1-0.9,0.3
				c0-0.1-0.1-0.1-0.3-0.2c0,0,0,0,0,0c0-0.5-0.3-1-0.8-1.3c0,0,0,0,0,0h0c-0.1,0-0.1-0.1-0.2-0.1v-0.1h-0.4v0.1
				c-0.7,0.2-1.5,0.7-1.5,1.4c0,0.2,0.1,0.4,0.1,0.6c-0.4,0.7-0.7,1.5-0.7,1.8c0,0.5,0.5,0.7,1,0.5c0.1,0,0.1,0,0.2,0
				c-0.1,0.1-0.3,0.3-0.5,0.3c-0.4,0.1-0.4,0.3-0.4,0.9c0,0.4-0.1,0.5-0.2,0.8c0,0.1-0.1,0.4-0.1,0.7c0,0.6,0.4,0.8,1.1,0.8
				c0,0,0,0,0.1,0c1.1,0,1.8-0.3,2-0.8c0,0.2,0.1,0.4,0.2,0.6c0.2,0.5,0.4,0.6,0.9,0.6c0.2,0,0.2,0,0.3,0c0.2,0.1,0.4,0.1,0.4-0.2
				c0-0.1,0.2-0.4,0.4-0.6c0.3-0.4,0.4-0.8,0.3-1.1c0-0.1,0-0.1,0-0.2c0.1-0.1,0.3,0,0.3,0c0,0,0,0,0.1,0c0.1,0.1,0.2,0.1,0.2,0.1
				c0.1,0,0.2-0.1,0.3-0.2c0.2,0.1,0.4,0.1,0.5,0.1c0.7,0,1.4-0.6,1.5-1.3c0.1-0.1,0.1-0.3,0.1-0.4C42.7,61.2,42.5,60.8,42.1,60.6z"
				/>
			<path fill="#129612" d="M66.6,63.7c-0.1-0.1-0.2-0.4-0.2-0.8c0-0.6-0.1-0.7-0.4-0.9c-0.2-0.1-0.5-0.2-0.6-0.4
				c0.1,0,0.1,0,0.4,0.1c0.5,0.3,1.1,0,1.1-0.5c0-0.4-0.5-1.4-0.9-2.1c-0.1-0.2-0.2-0.3-0.6-0.3c0,0,0,0,0-0.1
				c0-0.7-0.6-1.3-1.4-1.3c-0.7,0-1.3,0.6-1.3,1.3c0,0.1,0,0.3,0.1,0.4C62.6,59,62.4,59,62.1,59c-0.8,0-1.4,0.6-1.4,1.4
				c0,0.1,0,0.2,0,0.3c-0.3-0.2-0.6-0.3-0.9-0.3c-0.9,0-1.7,0.8-1.7,1.7c0,1,0.8,1.7,1.7,1.7c0.3,0,0.5-0.1,0.7-0.2h0.1
				c0.1,0,0.3,0.6,0.3,0.5c0-0.1,0-0.1,0.1,0c0,0.1,0.1,0.3,0.2,0.4c0.1,0.2,0.2,0.4,0.3,0.6c0.3,0.4,0.3,0.6,0.8,0.6
				c0.4,0,0.6-0.1,0.9-0.4c0.1-1,0.4-0.5-0.1-1.7c-0.1-0.1-0.1-0.8,0-0.8c0.2,0.3,0.4,0.7,0.4,1.1c0,0.2,0.1,0.4,0.3,0.6
				c0,0.1,0.1,0.2,0.1,0.3c0.3,0.2,0.7,0.4,1.4,0.5c0.7,0,1.5-0.1,1.5-0.9C66.8,64.1,66.7,63.7,66.6,63.7z"/>
		</g>
		<path fill="#129612" d="M31.5,46.6c0.1-0.1,0.3-0.5,0.4-0.9l0.1-0.7l-0.1,0c0.1-0.3,0.2-0.6,0.2-0.9c0-0.7-0.5-1.4-1.1-1.6
			c0.1-0.3,0-0.7-0.4-0.9c-0.2-0.1-0.6-0.4-0.9-0.6c-0.2-0.1-0.3-0.2-0.5-0.3c0-0.1,0-0.2,0-0.2c0-0.9-0.7-1.7-1.6-1.7
			c-0.9,0-1.6,0.7-1.6,1.7c0,0.5,0.2,0.9,0.5,1.2c-0.2,0.3-0.2,0.7,0.2,0.9c0.5,0.2,0.4,0.4-0.1,0.3c-0.4-0.1-0.6,0-0.9,0.4
			c-0.2,0.3-0.6,0.6-0.8,0.6c-0.2,0.1-0.3,0.2-0.3,0.4c0,0.1-0.1,0.4-0.3,0.5c-0.2,0.2-0.2,0.3,0.6,1c0.5,0.4,1,0.8,1.2,0.8
			c0.4,0,1.2-0.4,1.6-0.9c0.2-0.2,0.5-0.4,0.6-0.4c0.1,0-0.1,0.3-0.4,0.7c-0.9,0.8-1.2,1.9-0.6,2.2c0.3,0.2,0.9,0.1,1.5-0.2
			c0,0.9,0.8,1.6,1.7,1.6c1,0,1.7-0.7,1.7-1.7C32.2,47.4,31.9,46.9,31.5,46.6z"/>
		<path fill="#129612" d="M57.8,22.7c-0.1-0.1-0.3-0.2-0.4-0.3c-0.1-0.1-0.2-0.3-0.3-0.4c-0.1-0.1-0.3-0.1-0.3-0.2
			c-0.1,0-0.2,0-0.4,0c-0.3-0.1-0.2-0.1,0-0.1c0.2,0,0.4-0.1,0.5-0.2c0.1-0.1,0.2-0.1,0.3-0.1c0.2,0,0.4-0.1,0.6-0.3
			c0.4-0.4,0.4-0.5,0.1-0.5c-0.1,0-0.4-0.2-0.6-0.4c-0.9-0.8-1.5-1.1-2.4-1.3c0,0-0.1,0-0.1,0c-0.1,0-0.1,0-0.2,0
			c-0.1,0-0.2-0.2-0.2-0.3c-0.1-0.3-0.2-0.3-0.6-0.2c-0.3,0.1-0.6,0.1-0.8,0.1c-0.2,0-0.5,0.2-0.8,0.4c-0.5,0.3-0.7,0.3-0.7-0.2
			c0-0.1-0.2-0.5-0.5-0.8c-0.3-0.3-0.5-0.6-0.5-0.7c0-0.7-0.4-0.5-0.7,0c-0.2,0.3-0.4,0.6-0.6,0.8c-0.1,0.2-0.3,0.4-0.3,0.6
			c0,0.2,0,0.2-0.2-0.1c-0.3-0.7-0.5-0.8-0.9-0.6c-0.2,0.1-0.6,0.3-0.9,0.3s-0.6,0.2-0.7,0.3c-0.1,0.1-0.5,0.2-0.9,0.3
			c-0.9,0.1-1.3,0.3-2.4,1.3c-0.2,0.2-0.5,0.4-0.6,0.4c-0.3,0-0.3,0.1,0.1,0.5c0.2,0.2,0.4,0.3,0.6,0.3c0.1,0,0.3,0,0.3,0.1
			c0,0.1,0.3,0.1,0.5,0.2c0.3,0,0.3,0-0.2,0.2c-0.4,0.1-0.8,0.4-1.2,0.8c-0.7,0.7-0.7,0.9-0.3,0.9c0.1,0,0.3,0.1,0.4,0.2
			c0.1,0.1,0.5,0.2,0.9,0.2c0.7,0,0.8,0.1,0.8,0.3c0.1,0.4,0.2,0.4,1.2,0c1-0.4,1.6-0.9,2.2-1.7c0.4-0.6,0.4-0.9,0-0.9
			c0,0,0,0-0.1,0l-0.1-0.1c-0.1-0.2-0.2-0.7-0.1-0.9c0.2-0.4,0.8-0.4,1.2,0c-0.3,0.4-0.5,0.8-0.5,1.3c0,1.1,1,2,2,2s2-1,2-2
			c-0.1-0.5-0.2-0.9-0.5-1.3c0.4-0.3,0.8-0.4,1.1-0.1c0.2,0.2,0.2,1,0,1.1c-0.3,0.1-0.3,0.4,0,1s0.8,1,1.9,1.6
			c1.1,0.5,1.2,0.5,1.3,0.1C56,24,56.1,24,56.8,24c0.4,0,0.8-0.1,0.9-0.2c0.1-0.1,0.3-0.2,0.4-0.2C58.5,23.6,58.4,23.4,57.8,22.7z"
			/>
	</g>
	<g>
		<path fill="#961E1D" d="M65.3,36.6c0-0.1,0-0.2,0-0.3c0-0.2-0.2-0.3-0.3-0.4c-0.1-0.1-0.2-0.1-0.3-0.1c0,0.1,0,0.1-0.1,0.1
			c-0.1,0-0.2,0.1-0.3,0.3c-0.2-0.1-0.4,0-0.5,0c-0.1-0.1-0.3-0.2-0.4-0.1c-0.1-0.2-0.2-0.2-0.3-0.2c0,0,0-0.1,0-0.1
			c0,0-0.1,0-0.1,0c-0.1,0-0.3,0.1-0.4,0.2c-0.1,0.1-0.1,0.2-0.1,0.3c-0.1,0.1-0.2,0.2-0.2,0.4c0,0.1,0,0.3,0.1,0.4
			c0,0.1,0,0.3,0,0.4c0.1,0.1,0.2,0.2,0.3,0.3c0,0.2,0,0.4,0.2,0.5c0,0.1,0,0.2,0,0.2c-0.1,0.1-0.1,0.3-0.1,0.4
			c0,0.2,0.1,0.3,0.2,0.4c-0.1,0.2-0.1,0.3-0.1,0.4c0,0.1,0.1,0.3,0.2,0.4c0.1,0.3,0.3,0.5,0.6,0.5c0.3,0,0.5-0.2,0.7-0.5
			c0.1-0.1,0.2-0.1,0.2-0.3c0.1-0.2,0.1-0.3,0.1-0.5c0.1-0.1,0.2-0.2,0.2-0.3c0.2-0.1,0.3-0.2,0.3-0.4c0-0.1,0-0.2,0-0.3
			c0.2-0.1,0.3-0.2,0.3-0.4c0-0.1,0-0.3-0.1-0.4c0.1-0.1,0.2-0.2,0.2-0.4C65.5,36.9,65.4,36.7,65.3,36.6z"/>
		<path fill="#961E1D" d="M52,48.7c-0.2,0.2-0.2,0.4,0,0.6c-0.1,0.1-0.1,0.3,0,0.5c0,0.1,0.1,0.2,0.2,0.2c0,0,0.1,0.1,0.1,0.1
			c-0.1,0.2,0,0.4,0.2,0.5c0,0.1,0,0.1,0,0.1c-0.1,0.1-0.1,0.3-0.1,0.4c0,0.2,0.1,0.3,0.2,0.4c0,0,0,0,0,0c0,0,0,0,0,0
			c-0.1,0.2-0.1,0.3-0.1,0.4c0,0.1,0.1,0.3,0.2,0.4c0.1,0.3,0.3,0.5,0.6,0.5s0.5-0.1,0.7-0.4c0.1-0.1,0.2-0.2,0.2-0.3
			c0.1-0.2,0.1-0.3,0.1-0.5c0.1-0.1,0.2-0.2,0.2-0.3c0.2-0.1,0.3-0.2,0.3-0.4c0-0.1,0-0.2,0-0.3c0.2-0.1,0.3-0.2,0.3-0.4
			c0-0.1,0-0.3-0.1-0.4c0.1-0.1,0.2-0.2,0.2-0.4s-0.1-0.4-0.2-0.5c0-0.1,0-0.2,0-0.3c0-0.2-0.2-0.3-0.3-0.4
			c-0.3-0.2-0.6-0.1-0.8,0.1c-0.2-0.1-0.3,0-0.4,0c-0.1-0.1-0.3-0.1-0.4-0.1C52.9,48,52.8,48,52.6,48c-0.1,0-0.3,0.1-0.4,0.2
			c-0.1,0.1-0.1,0.2-0.1,0.3C52,48.5,52,48.6,52,48.7z"/>
		<path fill="#961E1D" d="M35.7,31.3C35.7,31.3,35.7,31.3,35.7,31.3C35.7,31.3,35.7,31.3,35.7,31.3C35.7,31.3,35.7,31.3,35.7,31.3z"
			/>
		<path fill="#961E1D" d="M54.6,53.9L54.6,53.9c0-0.3,0-0.4-0.2-0.5l-0.1-0.1l-0.1,0.2c-0.2,0.2-0.4,0.3-0.5,0.4c-0.1,0-0.3,0-0.5,0
			c0.2-0.3,0.2-0.6,0-0.9c-0.1-0.1-0.2-0.2-0.4-0.2c0-0.1,0-0.3-0.1-0.4v-0.1h-0.1c-0.3,0-0.6,0.1-0.7,0.3c-0.1,0-0.2,0-0.2-0.2
			l-0.1-0.3l-0.2,0.3c-0.3,0.5-0.2,1.5,0.1,2.1c-0.2,0-0.3,0-0.5,0.1c-0.2-0.2-0.4-0.4-0.6-0.6v-4.5c0,0,0.1,0,0.1-0.1
			c0.2-0.1,0.4-0.3,0.6-0.4c0.3-0.2,0.7-0.5,1.1-0.8c0.3-0.2,0.4-0.6,0.3-1.1c-0.1-0.5-0.4-1-0.7-1.4c0.1-0.3,0.3-0.5,0.5-0.5
			c0.3,0.4,1,1.3,1.8,1.3l-0.2-0.1c0,0,0,0,0,0c0.1,0,0.1,0,0.2,0c0-0.1-0.1-0.2-0.1-0.2c0.2,0,0.3-0.1,0.4-0.2l0.1-0.1v-0.1
			c0-0.1-0.1-0.2-0.2-0.3c0.1-0.2,0.1-0.3,0.1-0.4c-0.1-0.2-0.3-0.4-0.6-0.4c0.2-0.3,0.5-0.4,0.9-0.4h0.2l-0.1-0.2
			c0-0.1-0.1-0.2-0.2-0.3c0-0.1,0-0.1,0-0.1c0.1-0.2,0.1-0.5,0-0.7v-0.1c-0.3-0.2-0.6-0.2-0.8-0.1c0-0.1-0.1-0.2-0.3-0.3l-0.2-0.1
			v0.2c0,0.1,0,0.2,0,0.2c0,0-0.1,0-0.1,0c0,0.1,0,0.3,0,0.4c0,0,0,0.1-0.1,0.1c-0.1,0.1-0.2,0.2-0.3,0.2c0.1-0.3-0.1-0.6-0.3-0.8
			c-0.2-0.2-0.3-0.1-0.4-0.1c-0.1-0.1-0.2-0.2-0.3-0.3h-0.1h-0.1c-0.1,0.1-0.4,0.3-0.4,0.6c-0.1,0-0.1-0.1-0.2-0.2l-0.2-0.3v0.4
			c0,0.6,0.5,1.4,1,1.9c-0.2,0.1-0.3,0.3-0.4,0.5c0,0,0-0.1-0.1-0.1c-0.2-0.2-0.5-0.4-0.9-0.6v-0.4c0-0.3-0.2-0.5-0.5-0.5
			c-0.3,0-0.5,0.2-0.5,0.5v0.2c-0.1,0-0.1,0-0.1,0C49.1,44.1,49,44,48.9,44c0,0-0.1-0.1-0.1-0.2c0.3-0.6,0.4-1.6,0.3-2.2l-0.1-0.4
			l-0.1,0.4c0,0.1,0,0.2-0.1,0.2c-0.1-0.2-0.4-0.3-0.6-0.4H48l-0.1,0.1c-0.1,0.1-0.2,0.2-0.2,0.4c-0.1,0-0.1,0-0.1,0
			c-0.2,0-0.3,0.1-0.4,0.2c-0.2,0.3-0.3,0.6-0.1,1c-0.3-0.1-0.7-0.3-0.8-0.8c0,0,0,0,0,0l-0.1-0.1L46,42.5c-0.1,0.1-0.2,0.3-0.2,0.4
			c-0.3,0-0.6,0.1-0.8,0.3v0.1c0,0.3,0.2,0.6,0.4,0.8c-0.1,0.1-0.1,0.3-0.1,0.4v0.2l0.2-0.1c0.4-0.2,0.8-0.1,1.1,0.1
			c-0.3,0.1-0.4,0.4-0.5,0.6c0,0.1,0.1,0.2,0.2,0.3c0,0,0,0.1,0,0.1c0,0,0,0-0.1,0c-0.2,0.1-0.3,0.2-0.3,0.4c-0.1,0.1,0,0.2,0,0.3
			c-0.1,0.1-0.2,0.3-0.2,0.5c0,0.2,0.1,0.3,0.2,0.4c-0.1,0.1-0.1,0.3-0.1,0.4c0.1,0.2,0.2,0.3,0.3,0.4c0,0.1,0,0.2,0,0.3
			c0.1,0.2,0.2,0.3,0.3,0.4c0,0.1,0.1,0.2,0.2,0.3c-0.1,0.2,0,0.4,0.1,0.5c0,0.1,0,0.2,0,0.2c0,0,0,0-0.1,0
			c-0.2-0.1-0.3-0.3-0.5-0.2H46v0.1c-0.1,0.1-0.1,0.3,0,0.4c0,0-0.1,0.1-0.2,0.2c-0.1,0.2,0,0.4,0.2,0.6c-0.3,0.1-0.6,0-0.9-0.2
			L45,50.7l-0.1,0.2c-0.1,0.2,0,0.3,0,0.4c0,0.1-0.1,0.1-0.1,0.1c-0.2,0.1-0.4,0.3-0.4,0.5V52c0,0.1,0.1,0.1,0.2,0.2c0,0,0,0,0,0
			c0.1,0.1,0.3,0.2,0.4,0.3c0,0.1,0,0.3,0.1,0.3l0.1,0.2l0.1-0.2c0,0,0.1-0.1,0.1-0.1c0,0,0.3-0.2,0.3-0.2c0,0,0.1,0,0.1,0
			c0.1,0,0.2,0,0.3,0c-0.2,0.2-0.3,0.5-0.2,0.8c0,0.2,0.2,0.3,0.3,0.3c0,0.2,0,0.3,0.1,0.4V54c-0.2,0.1-0.3,0.2-0.3,0.4
			c-0.1,0.1,0,0.2,0,0.3c-0.1,0.1-0.2,0.3-0.2,0.5c0,0.2,0.1,0.3,0.2,0.4C46,55.7,46,55.9,46,56c0.1,0.2,0.2,0.3,0.3,0.4
			c0,0.1,0,0.2,0,0.3c0.1,0.2,0.2,0.3,0.3,0.4c0,0.1,0.1,0.2,0.2,0.3c-0.1,0.2,0,0.4,0.1,0.5c0,0.1,0.1,0.2,0.2,0.3
			c0.1,0.2,0.2,0.3,0.3,0.4c0,0,0-0.1,0-0.1v-0.1h-0.1c-0.1-0.1-0.1-0.1-0.1-0.2v-0.1c0-0.1,0-0.2,0-0.3c0,0.1,0.1,0.2,0.2,0.3
			c0,0.2,0.2,0.3,0.4,0.3v0.1c0,0,0,0.1,0,0.1c0.3,0,0.5-0.2,0.6-0.4c0.1-0.1,0.2-0.2,0.2-0.4c0-0.2,0-0.3-0.1-0.4
			c0.1-0.1,0.2-0.3,0.2-0.4c0-0.2,0-0.3-0.1-0.4c0-0.1,0-0.1,0-0.2c0.1-0.1,0.2-0.3,0.2-0.5c0.2,0,0.3-0.2,0.3-0.3
			c0.1-0.1,0.1-0.3,0-0.4c0.1-0.1,0.1-0.2,0.1-0.4c0-0.2-0.1-0.3-0.2-0.4c0,0,0-0.1,0-0.1c0.1,0.1,0.3,0.3,0.4,0.4v3
			c0,0.3-0.1,0.4-0.2,0.6c0,0.1-0.1,0.2-0.2,0.4c0,0-0.2,0-0.4,0c-0.2,0-0.5-0.1-0.9-0.1c0,0,0,0,0-0.1c0,0,0,0-0.1,0
			c-0.1,0-0.2,0-0.3,0c0,0,0.1,0.1,0.1,0.1c-0.3,0-0.7,0.1-1.1,0.2c-0.2,0.2-0.2,0.4-0.2,0.5c0,0.1,0,0.1,0,0.2v0.1h8.9
			c0.1-0.2,0.1-0.3,0-0.3c0-0.1,0-0.1-0.1-0.2c0,0,0,0,0,0c0,0,0-0.1-0.1-0.1c-0.4-0.1-0.9-0.2-1.4-0.3l0-0.1
			c-0.1,0-0.2-0.1-0.4-0.1c-0.4-0.1-0.8-0.2-0.9-0.6c-0.1-0.5-0.1-0.9-0.1-1.3c0-0.1,0-0.3,0-0.4c0.2,0.4,0.5,0.8,0.9,1l0.2,0.1
			l0.1-0.4v-0.1c0-0.1,0-0.2,0-0.2c0.3,0.2,0.5,0.3,0.7,0.2c0,0,0-0.1,0-0.1c0,0,0,0,0,0h0.1v-0.1c0-0.2,0-0.3-0.1-0.4
			c0,0,0,0,0.1-0.1c0.1-0.1,0.2-0.1,0.2-0.3c-0.1-0.2-0.2-0.4-0.5-0.6c0.4-0.1,0.8-0.1,1.2,0.1l0.2,0.1v-0.2c0-0.2,0-0.3-0.1-0.4
			c0.1,0,0.1-0.1,0.2-0.1c0.2-0.1,0.3-0.3,0.3-0.5v-0.1h-0.1C55.2,54.1,54.9,53.9,54.6,53.9z M50.4,45.9
			C50.4,45.9,50.5,45.9,50.4,45.9c0.4,0,1,0.7,1,1.3c0,0.4-0.2,0.9-0.4,1c-0.2,0.1-0.4,0.2-0.6,0.3V45.9z M48.5,53.9
			C48.5,53.9,48.5,53.9,48.5,53.9C48.5,53.9,48.5,53.9,48.5,53.9c-0.2-0.1-0.4,0-0.5,0.1c-0.1,0-0.3,0-0.4,0.1c0,0-0.1,0-0.1,0
			c0.3-0.4,0.3-1,0.3-1.5c0.1,0.5,0.3,0.8,0.8,1.2c0,0,0.1,0.1,0.1,0.1C48.6,53.9,48.6,53.9,48.5,53.9z M49.4,52.8
			c-0.1-0.1-0.2-0.3-0.3-0.5c-0.2-0.3-0.3-0.9-0.1-1.4c0.1-0.2,0.2-0.4,0.4-0.6V52.8z M49.4,49.1c-0.4,0.3-0.8,0.6-1.1,1
			c-0.2,0.4-0.5,0.8-0.6,1.3c0,0-0.1,0-0.1-0.1c0-0.4-0.1-0.7-0.2-1c0,0,0,0,0.1,0c0.3,0,0.5-0.2,0.7-0.4c0.1-0.1,0.2-0.2,0.2-0.4
			s0-0.3-0.1-0.4c0.1-0.1,0.2-0.3,0.2-0.4c0-0.2,0-0.3-0.1-0.4c0-0.1,0-0.1,0-0.2c0.1-0.1,0.2-0.3,0.2-0.5c0.2,0,0.3-0.2,0.3-0.3
			c0.1-0.1,0.1-0.3,0-0.4c0.1-0.1,0.1-0.2,0.1-0.4s-0.1-0.3-0.2-0.4c0-0.1,0-0.2-0.1-0.3c0.2,0.1,0.4,0.1,0.7,0.1V49.1z M51,58.3
			c0,0-0.1,0.1-0.1,0.2l0,0c0,0-0.1,0-0.1,0h-0.1c-0.2,0-0.2,0-0.2-0.3c0-0.1,0-0.4-0.1-0.6v-1.8c0.4,0.4,0.7,1.5,0.7,2.2
			C51.1,58.1,51.1,58.2,51,58.3z"/>
		<path fill="#961E1D" d="M66,42.9L66,42.9L66,42.9c-0.3-0.4-0.7-0.6-1-0.6c0.1-0.1,0-0.3-0.2-0.5l-0.1-0.1l-0.1,0.2
			c-0.1,0.3-0.3,0.4-0.5,0.5c-0.2,0-0.4,0-0.6,0c0.2-0.3,0.2-0.6,0-1c-0.2-0.1-0.3-0.2-0.5-0.2c0-0.2,0-0.4-0.1-0.5v-0.1h-0.1
			c-0.3,0-0.6,0.1-0.7,0.3c-0.1,0-0.2,0-0.2-0.2l-0.1-0.3l-0.2,0.3c-0.4,0.5-0.2,1.6,0.1,2.3c-0.2,0-0.4,0.1-0.6,0.1
			c-0.2-0.2-0.3-0.3-0.4-0.5c0-1.8,0-3.7,0-5.5c0.2-0.1,0.5-0.3,0.7-0.4c0.4-0.2,0.8-0.4,1.1-0.8c0.3-0.2,0.4-0.7,0.3-1.2
			c-0.1-0.5-0.3-1.1-0.7-1.6c0.1-0.3,0.3-0.4,0.5-0.4c0.1,0.1,0.2,0.3,0.3,0.4c0,0,0,0,0,0c0,0,0.1,0.1,0.1,0.1
			c0.3,0.4,0.7,0.8,1.2,0.9c0.1,0,0.2,0,0.3,0l0.6-0.2L65,33.7c-0.1,0-0.1-0.1-0.1-0.1c0,0,0,0,0,0c0,0,0.1,0,0.1-0.1
			c0,0,0-0.1-0.1-0.1c0.2,0,0.3,0,0.5-0.2v-0.1V33c-0.1-0.1-0.2-0.2-0.3-0.3c0.1-0.1,0.1-0.2,0.1-0.4c-0.1-0.2-0.3-0.4-0.7-0.4
			c0.1-0.1,0.1-0.1,0.2-0.2c0.2-0.1,0.4-0.1,0.6-0.1c0-0.1-0.1-0.1-0.1-0.2c0.1,0,0.2,0,0.3,0h0.2l-0.1-0.2
			c-0.1-0.1-0.2-0.2-0.3-0.3c0-0.1,0-0.1,0-0.1c0.2-0.2,0.2-0.5,0.1-0.8v-0.1h-0.1c-0.3-0.1-0.6-0.1-0.9,0c-0.1-0.1-0.2-0.2-0.4-0.3
			l-0.2-0.1v0.2c0,0.3-0.1,0.6-0.3,0.8c-0.1,0.1-0.2,0.2-0.3,0.2c0-0.4-0.2-0.7-0.4-0.9c-0.1-0.1-0.3-0.1-0.4,0
			c-0.1-0.2-0.2-0.3-0.3-0.4H62l-0.1,0.1c-0.1,0.1-0.4,0.3-0.4,0.6c-0.1,0-0.1-0.1-0.2-0.2l-0.2-0.3V30c0,0.2,0.1,0.4,0.2,0.7
			c0.2,0.5,0.6,1.1,0.9,1.4c-0.2,0.1-0.4,0.3-0.5,0.5c0,0-0.1-0.1-0.1-0.1c-0.2-0.2-0.5-0.4-0.9-0.5c0-0.2,0-0.3,0-0.5
			c0-0.3-0.3-0.5-0.6-0.5c-0.3,0-0.5,0.2-0.5,0.5v0.1c-0.2-0.2-0.4-0.4-0.7-0.4c0.4-0.7,0.6-1.9,0.4-2.5l-0.1-0.4l-0.1,0.4
			c0,0.1-0.1,0.2-0.1,0.2c0,0,0,0,0,0c0,0,0,0,0,0c0,0,0,0.1-0.1,0.1c-0.1-0.3-0.5-0.5-0.6-0.5h-0.1l-0.1,0.1c0,0,0,0.1-0.1,0.1
			c0,0,0,0,0,0c-0.1,0.1-0.1,0.2-0.1,0.4c-0.1,0-0.1,0-0.1,0c-0.1,0-0.3,0.1-0.4,0.2c-0.1,0.1-0.3,1.1-0.4,1
			c-0.3-0.1-0.5-0.4-0.6-0.7l-0.1-0.2l-0.2,0.2c-0.2,0.2-0.2,0.3-0.2,0.5c-0.3-0.1-0.7,0.1-0.9,0.3v0.1c0,0.3,0.2,0.6,0.4,0.8
			c-0.1,0.1-0.2,0.3-0.2,0.5V32l0.1-0.1c0.4-0.2,0.8-0.2,1.2,0.1c-0.4,0.2-0.5,0.4-0.6,0.7c0,0.2,0.1,0.3,0.2,0.4
			c0,0.1-0.1,0.3-0.1,0.5v0.1h0.1c0.1,0,0.1,0,0.1,0.1c0,0,0,0.1,0,0.1c-0.1,0.1,0,0.2,0,0.3c-0.1,0.1-0.2,0.3-0.2,0.5
			s0.1,0.3,0.2,0.4c-0.1,0.1-0.1,0.3-0.1,0.4c0.1,0.2,0.2,0.3,0.3,0.4c0,0.1,0,0.2,0,0.3c0.1,0.2,0.2,0.3,0.3,0.4
			c0,0.1,0.1,0.2,0.2,0.3c-0.1,0.2,0,0.4,0.1,0.5c0,0.1,0.1,0.2,0.2,0.3c0.1,0.3,0.3,0.4,0.6,0.4s0.6-0.2,0.7-0.4
			c0.1-0.1,0.2-0.2,0.2-0.4c0-0.2,0-0.3-0.1-0.4c0.1-0.1,0.2-0.3,0.2-0.4c0-0.2,0-0.3-0.1-0.4c0-0.1,0-0.1,0-0.2
			c0.1-0.1,0.2-0.3,0.2-0.5c0.2,0,0.3-0.2,0.3-0.3c0.1-0.1,0.1-0.3,0-0.4c0.1-0.1,0.1-0.2,0.1-0.4s-0.1-0.3-0.2-0.4
			c0-0.1,0-0.2-0.1-0.3c-0.1-0.1-0.2-0.2-0.4-0.2c-0.2-0.1-0.4,0-0.5,0.1c-0.1,0-0.3,0-0.4,0.1c0.1-0.1,0.2-0.3,0.3-0.4l0.2,0.2
			c0.2-0.3,0.3-0.3,0.4-0.3c0,0,0.1,0.2,0.2,0.2c0.2,0.1,0.4,0.1,0.7,0.1v3.6c-0.5,0.3-1,0.7-1.3,1.2c-0.4,0.6-0.6,1.1-0.7,1.7
			c0,0-0.1,0-0.1,0c0-0.5-0.1-1.7-0.8-2.2l0,0c0,0,0-0.1-0.1-0.1c0,0,0,0,0,0l-0.1,0v0.2v0.1c0,0,0,0.1,0,0.1c0,0,0,0,0,0
			c0,0-0.1-0.1-0.1-0.1c-0.1-0.1-0.2-0.2-0.4-0.2c0,0,0,0.1,0,0.1c0,0,0,0,0,0h-0.1v0.1c0,0.1-0.1,0.2,0,0.4c0,0,0,0-0.1,0.1
			c-0.1,0.1-0.2,0.1-0.2,0.3c0,0.2,0,0.5,0.3,0.7c0,0,0,0,0,0c0,0,0,0,0,0c-0.1,0-0.2,0-0.2,0c-0.2,0-0.5-0.1-0.7-0.2L54.6,39v0.2
			c-0.1,0.2,0,0.3,0,0.4c0,0.1-0.1,0.1-0.1,0.1c-0.2,0.2-0.4,0.4-0.4,0.6c0.2,0.2,0.4,0.5,0.7,0.5c-0.1,0.1,0,0.2,0.1,0.4l0.1,0.2
			l0.1-0.2c0.2-0.4,0.5-0.5,0.6-0.5s0.2,0,0.3,0c-0.3,0.3-0.2,0.8-0.2,0.9c0,0.2,0.2,0.3,0.3,0.3c0,0.1,0,0.3,0.1,0.4v0.1h0.1
			c0.1,0,0.1,0,0.2,0c0,0,0,0.1,0,0.1c-0.1,0.1-0.2,0.3-0.2,0.5c0,0.2,0.1,0.3,0.2,0.4c-0.1,0.1-0.1,0.3-0.1,0.4
			c0.1,0.2,0.2,0.3,0.3,0.4c0,0.1,0,0.2,0,0.3c0.1,0.2,0.2,0.3,0.3,0.4c0,0.1,0.1,0.2,0.2,0.3c-0.1,0.2,0,0.4,0.1,0.5
			c0,0.1,0.1,0.2,0.2,0.3c0.1,0.2,0.1,0.1,0.1,0c0,0,1,0.2,1.2,0c0.1-0.1,0.2-0.2,0.2-0.4c0-0.2,0-0.3-0.1-0.4
			c0.1-0.1,0.2-0.3,0.2-0.4c0-0.2,0-0.3-0.1-0.4c0-0.1,0-0.1,0-0.2c0.1-0.1,0.2-0.3,0.2-0.5c0.2,0,0.3-0.2,0.3-0.3
			c0.1-0.1,0.1-0.3,0-0.4c0,0,0,0,0,0c0,0,0.1,0.1,0.1,0.1v3.3c0,0.4-0.1,0.5-0.2,0.7c-0.1,0.1-0.2,0.2-0.3,0.4c-0.1,0-0.3,0-0.5,0
			c-0.6,0-1.4,0-2.4,0.3c0,0,0,0.1-0.1,0.1c0,0,0,0,0,0c-0.2,0.1-0.3,0.4-0.2,0.6H56c0,0,0,0.1,0,0.1v0.1h9.6
			c0.2-0.2,0.2-0.3,0.2-0.5c-0.1-0.1-0.1-0.1-0.2-0.2c-0.6-0.2-1.2-0.3-1.9-0.4l0,0c-0.1,0-0.2-0.1-0.4-0.1c-0.4-0.1-0.9-0.2-1-0.7
			c-0.1-0.5-0.1-0.9-0.1-1.4c0-0.3,0-0.6,0-1c0.2,0.5,0.4,0.9,0.8,1.2c0.2,0.2,0.3,0.3,0.6,0.4c0,0,0,0,0,0l0.1,0l-0.1-0.4
			c0-0.1,0-0.2,0.1-0.2c0.2,0.2,0.4,0.3,0.7,0.2c0-0.1,0-0.1,0-0.2h0v-0.1c0-0.1,0-0.1,0-0.2c0.1,0,0.1-0.1,0.1-0.2c0,0,0,0,0-0.1
			c0.1,0,0.1-0.1,0.1-0.2c0-0.3-0.2-0.5-0.4-0.7c0.4-0.1,0.9-0.1,1.3,0.2c0,0,0-0.1,0-0.1c0,0,0,0,0,0l0.2,0.1V44
			c0-0.1,0-0.3-0.1-0.4c0.1,0,0.1,0,0.2-0.1C65.9,43.3,66,43.1,66,42.9z M60.7,33.3c0.1,0,0.1,0,0.2,0c0,0,0.1,0,0.1,0
			c0.3,0.3,0.7,0.9,0.7,1.4c0,0.5-0.3,1.1-0.5,1.3c-0.2,0.1-0.3,0.2-0.5,0.3C60.7,35.3,60.7,34.3,60.7,33.3z M58.4,41.8
			c-0.1,0-0.3,0-0.4,0.1c-0.1,0-0.2,0-0.3,0c0.1-0.4,0.1-0.9,0-1.4c0.1,0.1,0.1,0.3,0.2,0.4C58,41.2,58.2,41.5,58.4,41.8
			C58.4,41.8,58.4,41.8,58.4,41.8z M59.6,41.3c-0.2-0.3-0.5-0.6-0.6-0.9c-0.1-0.3-0.3-0.7-0.2-1.1c0-0.1,0.1-0.3,0.1-0.4
			c0.2-0.4,0.4-0.7,0.7-0.9V41.3z M61.2,47.3L61,47.4c-0.2,0-0.2,0-0.2-0.3c0-0.2,0-0.4-0.1-0.7c0-0.7,0-1.5,0-2.2
			c0,0,0.1,0.1,0.1,0.1c0.3,0.3,0.7,1.5,0.7,2.3C61.5,46.9,61.4,47.1,61.2,47.3z M65.5,48.2C65.5,48.2,65.5,48.2,65.5,48.2
			C65.5,48.2,65.5,48.2,65.5,48.2C65.5,48.2,65.5,48.2,65.5,48.2z"/>
		<path fill="#961E1D" d="M37.3,41.6c-0.2,0.3-0.4,0.8-0.6,0.7c-0.1,0-0.2-0.1-0.3-0.2c0,0-0.1-0.1-0.1-0.1c0,0,0,0,0,0
			c-0.1-0.1-0.1-0.1-0.2-0.2c-0.1,0.1,0,0.1,0,0.1l0,0l0.1,0.2c0,0,0,0,0,0c0,0,0,0,0,0l0,0c0-0.1-0.1-0.1-0.1-0.2L36,42
			c-0.1,0.1-1,0.9-1.1,1h-0.1v0.1c0,0.2,0.1,0.4,0.3,0.6c0,0,0.1,0.1,0.2,0.1c-0.1,0.1-0.1,0.2-0.1,0.4v0.2l0.2-0.1
			c0.5-0.2,0.9,0.3,0.9,0.6c0.1,0.2,0.2,0.3,0.3,0.3c-0.1,0.1-0.1,0.2-0.1,0.4v0.1h0.1c0.1,0,0.2,0,0.2,0c0.2,0,0.3,0,0.5-0.1
			c0,0,0,0.1,0,0.1c0,0.1,0,0.1,0,0.2v0.2h0.3c0.4-0.2,0.7-0.6,0.9-1c0,0.1,0,0.2,0,0.4c0,0.4,0,0.9-0.1,1.4c0,0.5-0.6,0.6-1,0.7
			c-0.1,0-0.3,0-0.4,0.1l0,0.1c-0.6,0.1-1.1,0.2-1.6,0.3c-0.1,0-0.2,0.1-0.2,0.2c0,0.2,0,0.3,0.1,0.4h9.6c0.2-0.3,0.1-0.7-0.2-0.8
			c-1-0.3-1.8-0.3-2.4-0.3c-0.2,0-0.4,0-0.5,0c-0.1-0.2-0.2-0.3-0.3-0.4c-0.1-0.2-0.2-0.3-0.2-0.7V43c0.1-0.1,0.2-0.2,0.2-0.2
			c0,0,0,0,0,0c0,0,0,0.1,0,0.1c0,0,0,0,0,0c0,0.1,0,0.3,0,0.4c0,0,0,0,0.1,0.1c0,0.1,0.1,0.2,0.2,0.3c0,0.2,0,0.3,0.1,0.4
			c0,0,0,0.1,0.1,0.1c0,0.1,0,0.2,0,0.2C42,44.4,42,44.6,42,44.7c0,0.2,0.1,0.3,0.2,0.4c-0.1,0.2-0.1,0.3-0.1,0.4s0.1,0.3,0.2,0.4
			c0.1,0.3,0.3,0.5,0.6,0.5c0.3,0,0.5-0.1,0.7-0.5c0.1-0.1,0.2-0.1,0.2-0.3c0.1-0.2,0.1-0.3,0.1-0.5c0.1-0.1,0.2-0.2,0.2-0.3
			c0.2-0.1,0.3-0.2,0.3-0.4c0-0.1,0-0.2,0-0.3c0.2-0.1,0.3-0.2,0.3-0.4c0-0.1,0-0.3-0.1-0.4c0.1-0.1,0.2-0.2,0.2-0.4
			c0-0.2-0.1-0.4-0.2-0.5c0,0,0,0,0,0c0,0,0.1,0,0.1,0h0.1v-0.1c0.1-0.1,0.1-0.2,0.1-0.4c0.1-0.1,0.2-0.1,0.3-0.3
			c0-0.1,0.1-0.6-0.2-0.9c0.1,0,0.2,0,0.3,0c0.1,0.1,0.4,0.2,0.6,0.5l0.1,0.2l0.1-0.3c0.1-0.1,0.1-0.3,0.1-0.4
			c0.3,0,0.6-0.2,0.7-0.5c0-0.2-0.2-0.5-0.4-0.6c0-0.1-0.1-0.1-0.1-0.1c0-0.1,0-0.2,0-0.4v-0.2L46.2,39c-0.3,0.3-0.6,0.3-1,0.2
			c0.3-0.2,0.3-0.4,0.3-0.7c-0.1-0.2-0.2-0.3-0.3-0.3c0-0.1,0-0.3,0-0.4v-0.1h-0.1c-0.2,0-0.4,0-0.6,0.2c0,0,0-0.1,0-0.2v-0.1v-0.2
			l-0.2,0.1c-0.7,0.5-0.8,1.7-0.8,2.2c-0.1,0.1-0.2,0.1-0.3,0.1c0,0,0,0,0,0c0-0.6-0.3-1.1-0.6-1.7c-0.3-0.5-0.7-0.8-1.2-1.1v-3.9
			c0,0,0.1,0,0.1,0c0.3,0,0.5,0,0.7,0c0,0,0,0,0.1-0.1c0,0,0.1,0.1,0.1,0.2l0.3-0.1c0,0,0.1,0,0.2,0c0,0,0,0,0,0
			c0.1,0.1,0.1,0.2,0.2,0.4c0,0-0.1,0-0.1,0c-0.2-0.1-0.3-0.1-0.5-0.1c-0.1,0-0.3,0.1-0.4,0.2C42,33.6,42,33.7,42,33.8
			c-0.1,0.1-0.2,0.2-0.2,0.3c-0.1,0.2-0.1,0.4,0.1,0.6c-0.1,0.2-0.1,0.6,0.3,0.7c-0.1,0.2,0,0.4,0.2,0.5c0,0.1,0,0.1,0,0.1
			c-0.1,0.1-0.1,0.3-0.1,0.4c0,0.2,0.1,0.3,0.2,0.4c0,0,0,0,0,0c0,0,0,0,0,0c-0.1,0.2-0.1,0.3-0.1,0.4c0,0.1,0.1,0.3,0.2,0.4
			c0.1,0.3,0.3,0.5,0.6,0.5c0.2,0,0.4-0.1,0.7-0.5c0.1-0.1,0.2-0.1,0.2-0.3c0.1-0.2,0.1-0.3,0.1-0.5c0.1-0.1,0.2-0.2,0.2-0.3
			c0.2-0.1,0.3-0.2,0.3-0.4c0-0.1,0-0.2,0-0.3c0.2-0.1,0.3-0.2,0.3-0.4c0-0.1,0-0.3-0.1-0.4c0.1-0.1,0.2-0.2,0.2-0.4
			s-0.1-0.4-0.2-0.5c0-0.1,0-0.1,0-0.2H45v-0.1c0-0.3,0-0.4-0.1-0.5c0.1-0.1,0.2-0.2,0.2-0.4c-0.1-0.2-0.1-0.3-0.3-0.5
			c0-0.1-0.1-0.2-0.2-0.3c0.4-0.2,0.7-0.2,1.1,0l0.2,0.1V32c0-0.2-0.1-0.4-0.2-0.5c0.2-0.1,0.4-0.5,0.4-0.8v-0.1
			c-0.1-0.1-0.2-0.1-0.2-0.1c0-0.1,0-0.1,0-0.2c-0.2-0.2-0.5-0.3-0.7-0.3c0-0.1-0.1-0.1-0.2-0.2l0,0c0-0.1-0.1-0.2-0.2-0.3
			c-0.2,0.6-0.6,0.9-1,0.9c0.2-0.3,0.1-0.6,0-0.9c0-0.1-0.1-0.2-0.1-0.3c-0.1-0.1-0.3-0.1-0.4-0.1c0-0.1,0-0.2-0.1-0.3
			c0-0.1-0.1-0.2-0.1-0.3c0,0,0,0-0.1,0l0,0h-0.1c-0.1,0.1-0.5,0.2-0.6,0.5c0,0-0.1,0-0.1-0.1c0,0,0,0,0,0c0,0,0-0.1-0.1-0.2
			l-0.1-0.4l-0.1,0.4c-0.1,0.4,0,1.2,0.2,1.9l-0.2,0.3c-0.2,0.2-0.3,0.4-0.5,0.5c0-0.3-0.2-0.5-0.5-0.5c-0.3,0-0.5,0.2-0.5,0.5
			c0,0.1,0,0.1,0,0.2c-0.5,0.2-1,0.4-1.2,0.6c0.5-0.5,1.1-1.5,1.1-2.1v-0.4L40,30.2c-0.1,0.2-0.1,0.2-0.2,0.2c0,0,0,0,0,0
			c0-0.1,0-0.2,0-0.3c0,0,0,0-0.1,0.1c-0.1-0.2-0.3-0.3-0.3-0.4l-0.1-0.1h-0.1c0,0,0,0,0,0.1c0,0,0,0-0.1-0.1
			c-0.1,0-0.1,0.1-0.2,0.2c0,0-0.1-0.1-0.1-0.1c-0.1,0.1-0.1,0.1-0.2,0.2c0.1,0,0.1,0,0.2,0.1c0,0.1,0,0.1,0,0.2
			c0-0.1-0.1-0.2-0.2-0.3c0,0,0,0,0,0c0,0,0,0-0.1,0c-0.1,0-0.2,0-0.3,0.1c0,0,0,0,0,0c0,0,0,0-0.1,0c-0.1,0-0.1,0-0.2,0
			c-0.1,0.1-0.4,0.3-0.2,0.8c0.1,0.1,0.1,0.1,0.2,0.1c0,0,0,0.1,0,0.1c0,0-0.1,0-0.1,0l-0.1-0.2c0,0,0,0,0,0c0,0-0.1-0.1-0.1-0.1
			c-0.2-0.2-0.3-0.5-0.3-0.8v-0.2l-0.2,0.1c-0.3,0.1-0.5,0.5-0.6,0.4c0,0-0.9,0.2-0.9,0.3c0,0.2,0,0.6,0,0.7c0.1,0,0.2,0,0.2,0
			c-0.1,0-0.1,0-0.2,0c0,0-0.1,0.1-0.1,0.2l-0.1,0.2h0.2c0.4,0,0.1,1.4,0,1.5c0.1,0.1,0.2,0.1,0.3,0v0c0.1-0.2,0.4-0.1,0.5,0
			c-0.1-0.1-0.2,0-0.3,0l-0.1,0c0,0-0.1,0-0.1,0v0.1v0.1c0,0,0,0,0,0c0,0,0,0,0,0.1c0.2,0.2,0.4,0.4,0.4,0.4l-0.1,0.2h0.1
			c0,0,0,0,0.1,0c0.1,0,0.2,0,0.3,0c0.6-0.2,1.2-0.8,1.8-1c-0.3,0.5-0.6,1-0.7,1.5c-0.1,0.5,0,1,0.3,1.2c0.1,0.1,0.1,0.1,0.2,0.1
			c-0.1,0-0.1,0-0.2,0c-0.2-0.1-0.4,0-0.5,0.1c-0.1,0-0.3,0-0.4,0.1c-0.1,0-0.3,0-0.4,0c-0.2-0.2-0.4-0.2-0.6-0.2
			c-0.1,0-0.1,0-0.2,0.1c-0.2,0.1-0.3,0.2-0.3,0.4c-0.1,0.1,0,0.2,0,0.3c-0.1,0.1-0.2,0.3-0.2,0.5s0.1,0.3,0.2,0.4
			c-0.1,0.1-0.1,0.3-0.1,0.4c0.1,0.2,0.2,0.3,0.3,0.4c0,0.1,0,0.2,0,0.3c0,0.1,0.1,0.3,0.3,0.4c0,0.1,0.1,0.2,0.2,0.3
			c-0.1,0.2,0,0.4,0.1,0.5c0,0.1,1.3,0.4,1.5,0.3c0.1-0.1,0.2-0.2,0.2-0.4c0-0.2,0-0.3-0.1-0.4c0.1-0.1,0.2-0.3,0.2-0.4
			c0-0.2,0-0.3-0.1-0.4c0-0.1,0-0.1,0-0.2c0.1-0.1,0.2-0.3,0.2-0.5c0.2,0,0.3-0.2,0.3-0.3c0.1-0.1,0.1-0.3,0-0.4
			c0.1-0.1,0.1-0.2,0.1-0.4c0-0.2-0.1-0.3-0.2-0.4c0-0.1,0-0.2-0.1-0.2c0.3,0.2,0.6,0.4,0.9,0.6c0.2,0.1,0.4,0.3,0.6,0.4
			c0.1,0,0.1,0.1,0.2,0.1c0,1.7,0,3.3,0,5c-0.3,0.3-0.5,0.6-0.8,0.8c-0.1,0-0.2,0-0.3,0c0.2-0.5,0.3-1.2,0.2-1.8
			c0-0.2-0.1-0.4-0.1-0.6c0,0,0,0,0,0.1l-0.2-0.3L39,40.8c0,0.1-0.1,0.2-0.2,0.2c0,0,0,0,0,0c-0.1-0.2-0.3-0.3-0.7-0.3H38v0.1
			L37.3,41.6z M45.3,40.6C45.3,40.6,45.3,40.6,45.3,40.6C45.3,40.6,45.3,40.6,45.3,40.6C45.3,40.6,45.3,40.6,45.3,40.6z M43.1,40.5
			c0-0.1,0-0.1,0-0.2c0.1,0,0.1,0,0.2,0c-0.1,0.4-0.1,1,0,1.5c-0.1,0-0.2,0-0.2,0c-0.1-0.1-0.3-0.1-0.4-0.1c-0.1,0-0.1-0.1-0.2-0.1
			C42.8,41.2,43,40.9,43.1,40.5z M41.3,38.2c0.2,0.2,0.4,0.4,0.5,0.7c0.3,0.5,0.1,1.2-0.1,1.6c-0.1,0.2-0.2,0.5-0.4,0.7V38.2z
			 M38.9,41.1C38.9,41.1,38.9,41.1,38.9,41.1C38.9,41.1,38.9,41.1,38.9,41.1C38.9,41.1,38.9,41.1,38.9,41.1z M40.3,46.5
			c-0.1,0.3-0.1,0.5-0.1,0.7c0,0.2,0,0.3-0.1,0.3c0,0-0.1,0-0.1,0h-0.1c-0.3,0-0.5,0-0.8,0.1c0,0,0,0,0,0c0.2-0.1,0.4-0.1,0.6-0.2
			c-0.2-0.2-0.3-0.4-0.3-0.7c0-0.9,0.4-2.1,0.8-2.5c0,0,0.1-0.1,0.1-0.1C40.3,44.8,40.3,45.6,40.3,46.5z M40.3,36.4
			c-0.1-0.1-0.2-0.1-0.3-0.2c-0.1-0.1-0.3-0.2-0.4-0.2c-0.2-0.2-0.5-0.8-0.5-1.2c0-0.4,0.2-0.8,0.5-1.1c0,0,0.1-0.1,0.1-0.1
			c0.2-0.2,0.4-0.3,0.5-0.3c0,0,0.1,0,0.1,0C40.3,34.2,40.3,35.3,40.3,36.4z"/>
	</g>
</g>
<g>
	<path opacity="0.2" enable-background="new    " d="M10.4,74.3V25.8c0-12.1,8.2-22.7,19.8-25.8H0v100h30.2
		C18.5,96.9,10.4,86.3,10.4,74.3z"/>
	<path opacity="0.1" fill="#FFFFFF" enable-background="new    " d="M89.6,25.8v48.4c0,12.1-8.2,22.7-19.8,25.8H100V0H69.8
		C81.5,3.1,89.6,13.7,89.6,25.8z"/>
</g>
</svg>
