<?xml version="1.0" encoding="utf-8"?>
<!-- Generator: Adobe Illustrator 23.0.0, SVG Export Plug-In . SVG Version: 6.00 Build 0)  -->
<svg version="1.0"
	 id="svg24" xmlns:cc="http://creativecommons.org/ns#" xmlns:dc="http://purl.org/dc/elements/1.1/" xmlns:rdf="http://www.w3.org/1999/02/22-rdf-syntax-ns#" xmlns:svg="http://www.w3.org/2000/svg"
	 xmlns="http://www.w3.org/2000/svg" xmlns:xlink="http://www.w3.org/1999/xlink" x="0px" y="0px" viewBox="0 0 100 100"
	 enable-background="new 0 0 100 100" xml:space="preserve">
<rect id="rect2" fill="#FFFFFF" width="100" height="100"/>
<rect y="62.6" fill="#E81B39" width="100" height="18.2"/>
<rect id="b" y="35.2" fill="#E81B39" width="100" height="18.2"/>
<path id="t" fill="#E81B39" d="M15.6,12.5l-2,6.3H6.9l5.4,3.9l-2,6.3l5.4-3.9l5.4,3.9l-2-6.3l5.4-3.9h-6.6L15.6,12.5z"/>
<path id="path1023" fill="#E81B39" d="M50,12.5l-2,6.3h-6.6l5.4,3.9l-2,6.3l5.4-3.9l5.4,3.9l-2-6.3l5.4-3.9h-7L50,12.5z"/>
<path id="path1051" fill="#E81B39" d="M84.4,12.5l-2,6.3h-6.6l5.4,3.9l-2,6.3l5.4-3.9L90,29l-2-6.3l5.4-3.9h-6.6L84.4,12.5z"/>
<g>
	<path opacity="0.2" enable-background="new    " d="M10.4,74.3V25.8c0-12.1,8.2-22.7,19.8-25.8H0v100h30.2
		C18.5,96.9,10.4,86.3,10.4,74.3z"/>
	<path opacity="0.1" fill="#FFFFFF" enable-background="new    " d="M89.6,25.8v48.5c0,12.1-8.2,22.7-19.8,25.8H100V0H69.8
		C81.5,3.1,89.6,13.7,89.6,25.8z"/>
</g>
</svg>
