<?xml version="1.0" encoding="utf-8"?>
<!-- Generator: Adobe Illustrator 23.0.0, SVG Export Plug-In . SVG Version: 6.00 Build 0)  -->
<svg version="1.0"
	 id="svg2" inkscape:version="0.48.1 " sodipodi:docname="Flag_of_Delaware.svg" sodipodi:version="0.32" xmlns:cc="http://creativecommons.org/ns#" xmlns:dc="http://purl.org/dc/elements/1.1/" xmlns:inkscape="http://www.inkscape.org/namespaces/inkscape" xmlns:rdf="http://www.w3.org/1999/02/22-rdf-syntax-ns#" xmlns:sodipodi="http://sodipodi.sourceforge.net/DTD/sodipodi-0.dtd" xmlns:svg="http://www.w3.org/2000/svg"
	 xmlns="http://www.w3.org/2000/svg" xmlns:xlink="http://www.w3.org/1999/xlink" x="0px" y="0px" viewBox="0 0 100 100"
	 enable-background="new 0 0 100 100" xml:space="preserve">
<g id="path92">
	<path fill="#76A1A0" d="M0,100h100V0H0V100z"/>
</g>
<g id="g4742" transform="matrix(1.327434,0,0,1.31406,-152.6165,-177.4317)">
	<g id="path516">
		<path fill="#FFFFFF" d="M130.6,199c0-0.4-0.1-0.4-0.3-0.4h-0.1v-0.2c0.2,0,0.4,0,0.8,0c0.2,0,0.5,0,0.7,0c0.9,0,1.5,0.6,1.5,1.3
			s-0.5,1.3-1.4,1.3c-0.2,0-0.5,0-0.8,0c-0.4,0-0.6,0-0.8,0l0,0h0.1c0.2,0,0.3-0.1,0.3-0.4V199z M131.4,200.5c0,0.4,0.1,0.4,0.4,0.4
			c0.4,0,0.6-0.4,0.6-1.1c0-0.8-0.2-1.1-0.7-1.1c-0.2,0-0.2,0-0.2,0.2v1.6"/>
	</g>
	<g id="path518">
		<path fill="#FFFFFF" d="M135.5,200.2h-0.2c0-0.2-0.1-0.4-0.4-0.4h-0.1v0.6c0,0.3,0.1,0.5,0.5,0.5c0.5,0,0.6-0.2,0.8-0.7h0.2v0.9
			c-0.4,0-1,0-1.9,0c-0.4,0-0.6,0-0.8,0V201h0.1c0.2,0,0.3-0.1,0.3-0.4V199c0-0.4-0.1-0.4-0.3-0.4h-0.1v-0.2c0.2,0,0.4,0,0.8,0
			c0.9,0,1.4,0,1.7,0v0.8h-0.2c-0.1-0.4-0.3-0.5-0.8-0.5c-0.3,0-0.3,0-0.3,0.1v0.8h0.1c0.3,0,0.4-0.2,0.4-0.4h0.2V200.2"/>
	</g>
	<g id="path520">
		<path fill="#FFFFFF" d="M138.9,198.4h0.2v0.9H139c-0.1-0.3-0.3-0.7-0.7-0.7s-0.8,0.3-0.8,1.2c0,0.8,0.3,1.1,0.7,1.1
			c0.5,0,0.7-0.4,0.8-0.7h0.2v1H139l-0.1-0.2c-0.2,0.2-0.5,0.3-1,0.3c-0.7,0-1.3-0.5-1.3-1.4s0.6-1.4,1.4-1.4c0.4,0,0.7,0.1,0.9,0.3
			L138.9,198.4"/>
	</g>
	<g id="path522">
		<path fill="#FFFFFF" d="M141.5,200.2h-0.2c0-0.2-0.1-0.4-0.4-0.4h-0.1v0.6c0,0.3,0.1,0.5,0.5,0.5c0.5,0,0.6-0.2,0.8-0.7h0.2v0.9
			c-0.4,0-1,0-1.9,0c-0.4,0-0.6,0-0.8,0V201h0.1c0.2,0,0.3-0.1,0.3-0.4V199c0-0.4-0.1-0.4-0.3-0.4h-0.1v-0.2c0.2,0,0.4,0,0.8,0
			c0.9,0,1.4,0,1.7,0v0.8H142c-0.1-0.4-0.3-0.5-0.8-0.5c-0.3,0-0.3,0-0.3,0.1v0.8h0.1c0.3,0,0.4-0.2,0.4-0.4h0.2L141.5,200.2"/>
	</g>
	<g id="path524">
		<path fill="#FFFFFF" d="M145.2,198.4c0.1,0,0.3,0,0.6,0c0.2,0,0.4,0,0.6,0v0.2h-0.1c-0.2,0-0.3,0.1-0.3,0.4v1.5
			c0,0.4,0.1,0.4,0.3,0.4h0.1v0.2c-0.2,0-0.4,0-0.7,0c-0.4,0-0.6,0-0.8,0V201c0.2,0,0.3-0.1,0.3-0.4v-1.5l0,0l-0.9,2.1h-0.2
			l-0.9-2.1l0,0v1.4c0,0.5,0.1,0.5,0.4,0.5v0.2c-0.1,0-0.2,0-0.5,0s-0.4,0-0.5,0V201c0.2,0,0.4-0.1,0.4-0.5V199
			c0-0.4-0.1-0.4-0.3-0.4h-0.1v-0.2c0.2,0,0.3,0,0.6,0c0.2,0,0.4,0,0.6,0l0.7,1.7L145.2,198.4"/>
	</g>
	<g id="path526">
		<path fill="#FFFFFF" d="M146.9,199c0-0.4-0.1-0.4-0.3-0.4h-0.1v-0.2c0.2,0,0.4,0,0.8,0c0.3,0,0.6,0,0.8,0c0.7,0,1,0.3,1,0.6
			c0,0.4-0.4,0.6-0.9,0.7l0,0c0.6,0.1,1,0.3,1,0.7s-0.3,0.7-1.1,0.7c-0.3,0-0.5,0-0.9,0s-0.6,0-0.8,0V201h0.1c0.2,0,0.3-0.1,0.3-0.4
			L146.9,199L146.9,199z M147.7,200.6c0,0.2,0.1,0.3,0.3,0.3c0.3,0,0.4-0.2,0.4-0.5s-0.2-0.6-0.6-0.6h-0.2v0.8H147.7z M147.7,199.6
			h0.2c0.3,0,0.5-0.2,0.5-0.5s-0.2-0.5-0.5-0.5c-0.1,0-0.2,0-0.2,0.1V199.6"/>
	</g>
	<g id="path528">
		<path fill="#FFFFFF" d="M151.5,200.2h-0.2c0-0.2-0.1-0.4-0.4-0.4h-0.1v0.6c0,0.3,0.1,0.5,0.5,0.5c0.5,0,0.6-0.2,0.8-0.7h0.2v0.9
			c-0.4,0-1,0-1.9,0c-0.4,0-0.6,0-0.8,0V201h0.1c0.2,0,0.3-0.1,0.3-0.4V199c0-0.4-0.1-0.4-0.3-0.4h-0.1v-0.2c0.2,0,0.4,0,0.8,0
			c0.9,0,1.4,0,1.7,0v0.8H152c-0.1-0.4-0.3-0.5-0.8-0.5c-0.3,0-0.3,0-0.3,0.1v0.8h0.1c0.3,0,0.4-0.2,0.4-0.4h0.2L151.5,200.2"/>
	</g>
	<g id="path530">
		<path fill="#FFFFFF" d="M153.8,200.5c0,0.4,0.1,0.4,0.3,0.4h0.1v0.2c-0.2,0-0.4,0-0.8,0c-0.4,0-0.6,0-0.8,0V201h0.1
			c0.2,0,0.3-0.1,0.3-0.4V199c0-0.4-0.1-0.4-0.3-0.4h-0.1v-0.2c0.2,0,0.4,0,0.8,0c0.3,0,0.6,0,0.9,0c0.7,0,1,0.3,1,0.7
			s-0.2,0.6-0.6,0.7l0.8,1c0.1,0.2,0.2,0.2,0.3,0.2v0.2c-0.1,0-0.2,0-0.4,0s-0.3,0-0.5,0l-0.8-1.2h-0.2v0.5H153.8z M153.8,199.7
			c0,0,0.1,0,0.2,0c0.3,0,0.5-0.2,0.5-0.5c0-0.4-0.2-0.5-0.5-0.5c-0.1,0-0.2,0-0.2,0.2V199.7"/>
	</g>
	<g id="path532">
		<path fill="#FFFFFF" d="M157.8,198.3h0.2c0,0.1,0,0.1,0,0.2c0,0.1,0,0.1,0.2,0.1h1.8v0.2c-0.4,0.9-0.8,1.9-0.9,2.8
			c-0.1,0.5-0.1,0.8-0.5,0.8c-0.2,0-0.4-0.2-0.4-0.4c0-0.6,0.8-1.8,1.4-2.7h-1.3c-0.3,0-0.4,0.1-0.5,0.6h-0.2L157.8,198.3"/>
	</g>
	<g id="path534">
		<path fill="#FFFFFF" d="M160.6,201.9c0.3-0.2,0.6-0.4,0.6-0.9c-0.1,0-0.1,0.1-0.2,0.1c-0.2,0-0.4-0.2-0.4-0.4
			c0-0.3,0.2-0.4,0.4-0.4c0.4,0,0.5,0.3,0.5,0.7c0,0.5-0.4,0.9-0.9,1.1L160.6,201.9"/>
	</g>
	<g id="path536">
		<path fill="#FFFFFF" d="M163.9,198.8h0.2c0.4,0,0.8,0,1-0.1h0.2v1.9c0,0.3,0,0.4,0.5,0.4v0.2c-0.2,0-0.5,0-0.9,0s-0.7,0-0.9,0V201
			c0.5,0,0.5-0.1,0.5-0.4v-1.2c0-0.3,0-0.3-0.5-0.3v-0.3"/>
	</g>
	<g id="path538">
		<path fill="#FFFFFF" d="M166.9,198.3h0.2c0,0.1,0,0.1,0,0.2c0,0.1,0,0.1,0.2,0.1h1.8v0.2c-0.4,0.9-0.8,1.9-0.9,2.8
			c-0.1,0.5-0.1,0.8-0.5,0.8c-0.2,0-0.4-0.2-0.4-0.4c0-0.6,0.8-1.8,1.4-2.7h-1.3c-0.3,0-0.4,0.1-0.5,0.6h-0.2L166.9,198.3"/>
	</g>
	<g id="path540">
		<path fill="#FFFFFF" d="M170.8,201.2c-0.7,0-1.2-0.4-1.2-1c0-0.4,0.2-0.7,0.7-0.9c-0.5-0.3-0.6-0.6-0.6-1c0-0.6,0.4-1,1.2-1
			c0.7,0,1.1,0.4,1.1,0.8c0,0.3-0.2,0.6-0.6,0.8c0.4,0.3,0.7,0.6,0.7,1.1C172,200.7,171.5,201.2,170.8,201.2z M171.4,198.3
			c0-0.4-0.3-0.7-0.6-0.7c-0.4,0-0.6,0.2-0.6,0.5s0.3,0.5,0.9,0.8C171.3,198.7,171.4,198.5,171.4,198.3z M170.5,199.4
			c-0.3,0.2-0.4,0.5-0.4,0.8c0,0.5,0.2,0.8,0.7,0.8s0.7-0.3,0.7-0.6C171.5,199.9,171.2,199.7,170.5,199.4"/>
	</g>
	<g id="path542">
		<path fill="#FFFFFF" d="M172.9,198.3h0.2c0,0.1,0,0.1,0,0.2c0,0.1,0,0.1,0.2,0.1h1.8v0.2c-0.4,0.9-0.8,1.9-0.9,2.8
			c-0.1,0.5-0.1,0.8-0.5,0.8c-0.2,0-0.4-0.2-0.4-0.4c0-0.6,0.8-1.8,1.4-2.7h-1.3c-0.3,0-0.4,0.1-0.5,0.6h-0.2L172.9,198.3"/>
	</g>
</g>
<g id="g3864" transform="translate(-0.422207,0.257486)">
	<g id="path94">
		<path fill="#F0DC82" d="M96.1,49.7L50.4,21L4.7,49.7l45.7,28.7L96.1,49.7"/>
	</g>
	<g id="path96">
		<path fill="#3F863F" d="M43.7,54.8h14.6c0,0-3.4,2.5-7.1,2.5C47.5,57.2,44.8,56,43.7,54.8"/>
	</g>
	<g id="path98">
		<path fill="#3F863F" d="M61.2,54.4c0,0-0.1-0.6-0.2-1c0-0.4,0.1-0.6,0-1s-0.3-1.1-0.4-1.5c-0.1-0.4-0.1-0.7-0.1-0.7
			S60,50.1,60,49.8c-0.1-0.3,0-0.3,0.2-1.1c0.3-0.8,0.6-1.6,0.5-2.4c0,0,0.2-0.2,0.4-0.8c0,0,0.9,0.4,1.4-0.1
			c0.4-0.5,0.7-0.8,0.9-1.7c0.2-1,0-0.6-0.3-0.2c-0.3,0.4-1.2,0.7-1.6,0.3c0,0-0.1-1-0.4-1.6c-0.3-0.6-0.3-0.8-0.3-0.8
			s-0.1,0.2-0.4,0.5c-0.3,0.3-0.5,0.3-0.1,0.7s0.8,1.1,0.8,1.1s-0.3,0-0.5,0.7c-0.2,0.6,0.1,1.4,0.1,1.4S59,45.3,58.3,44
			c0,0,0.4-0.6,0.2-1.8s-0.3-1.5-0.3-1.5s0.5-0.6,1.1-1.4s0.4-1.1,0.6-1.3c0.2-0.2,0.2-0.2,0.2-0.2s-0.7-0.5,0.1-0.6
			c0.7-0.1,1.2,0,1.7,0c0.4,0,0.7-0.3,1-0.3s0.4-0.2,0.4-0.2s0.3,0.8,0.8,1.2c0,0,0.8-0.7,1.4-1.1c0,0,0.5,0.5,1.6,0.9
			s1.3,0.5,1.2,0.8c-0.1,0.3,0,0.1,0,0.1s0.5,1.1,0.2,2.5c-0.2,1.4-0.3,2.1-0.3,2.1s0.4,0.2,0.5,1s1.4,2.7,1.4,2.7s-0.7-0.4-1.3,0
			c-0.6,0.4-0.3,1.1-0.3,1.1s-0.3-0.5-0.7-1.3c-0.4-0.8-0.7-1.3-0.7-1.3s-0.5,0.3-0.1,1.5s1.3,2.9,1,3.1c-0.3,0.2-0.9,0.3-0.9,0.3
			s0.3,1,0.3,2.4c0,0.1,0-0.2,0-0.2l-1.3,2.6c0,0-0.4,0-0.7-0.1c-0.4,0-0.7-0.4-0.7-0.4v-0.1c0,0,0.2-0.2,0-1
			c-0.1-0.8-0.7-2.1-0.7-2.1s0,0.6-0.3,1.3c-0.3,0.8-0.3,1.1-0.2,1.6c0,0-0.7,1.2-2.5,0.3L61.2,54.4"/>
	</g>
	<g id="path100">
		<path fill="#FFFFFF" d="M56.8,55.7c0.3,0,0.5-0.1,0.6-0.2c0.2-0.1,0.3-0.3,0.5-0.5C57.6,55.3,57.2,55.5,56.8,55.7"/>
	</g>
	<g id="path102">
		<path fill="#FFFFFF" d="M44.6,55.6c0.2,0.2,0.4,0.4,0.6,0.5c0,0,0.1,0,0.4,0C45.3,56,44.9,55.8,44.6,55.6"/>
	</g>
	<g id="path104">
		<path fill="#FFFFFF" d="M57.6,48.7C55,49.5,54.7,49.3,53,49s-3.2-0.4-4.7-0.1c-1.5,0.3-1.9,0.5-4.5,0.2c-0.4,0.4-0.8,1-1.3,2.1
			s0.2,2.3,1.4,3.6H58c0.5-0.8,0.9-2.1,1-3.4C59.1,50.3,58.2,49.3,57.6,48.7"/>
	</g>
	<g id="path106">
		<path fill="#FFFFFF" d="M36.7,35.6c0,0-0.1,0-0.2-0.6c-0.1-0.6,0.3,0,0.3,0l0.4-0.5c0,0,0,0.1-0.2-0.3c-0.2-0.4,0.4-1.1,0.9-1.1
			c0,0-1.5,0.3-2.1,0.6s-1,0.8-0.7,1.1c0.2,0.3,0.6,0.8,0.8,1.2"/>
	</g>
	<g id="path108">
		<path fill="#FFFFFF" d="M64.3,33.7c0,0-0.1,0.3,0,0.3c0.2,0,0.5,0.1,0.3,0.5c-0.1,0.3-0.3,0.6-0.2,0.8c0.1,0.1,0.1,0.2,0.1,0.2
			s0.1-0.3,0.2-0.5s0.1-0.1,0.2-0.1c0.2,0,0.3-0.1,0.2,0.3c-0.1,0.3-0.2,0.6-0.3,0.6c-0.1,0-0.3,0-0.3,0s0,0.2,0.2,0.2
			c0.3,0,0.8,0.4,0.8,0.4s0.6-0.2,0.6-0.5c0.1-0.3,0.3-0.8,0.1-1.2c-0.2-0.4-0.3-0.5-0.9-0.7C65,33.6,64.3,33.7,64.3,33.7"/>
	</g>
	<g id="path114">
		<path fill="#FFFFFF" d="M64.1,62.9l0.7-0.5l0.5,0.2l2.1-0.2v0.1c-0.2,0.1,0,0.4,0,0.6c0,0.4,0,0.8,0.3,1c0.1,0.2,0.1,0.4,0.2,0.6
			s0.2,0.5,0.1,0.7c0.1,0.4-0.3,0.7-0.4,1c-0.1,0-0.1-0.2-0.2-0.3c-0.2-0.5-0.8-1-1.4-1.1l-0.2-0.1L65.7,65l0,0
			c-0.5,0.8-1.6,0.9-2,1.7c-0.5-0.8-0.2-1.7,0.3-2.5C64.2,63.8,64.3,63.3,64.1,62.9"/>
	</g>
	<g id="path124">
		<path fill="#006FFF" d="M43.6,49.1c2.8,0.3,3.2,0.2,4.7-0.1s3-0.2,4.7,0.1s2.1,0.5,4.8-0.3c-0.8-0.5-0.6-0.5-1.2-1.4
			c-0.6-1,0.5-2.1,0.5-2.1c-1.4,0.4-2.2,0.4-4.3,0s-3-0.3-4.5,0.1c-1.5,0.3-1.9,0.4-3.9,0.3C44.6,46.7,45,47.9,43.6,49.1"/>
	</g>
	<g id="path132">
		<path fill="#FFB93C" d="M57,45.2c-1.4,0.4-2.2,0.4-4.3,0s-3-0.3-4.5,0.1c-1.5,0.3-1.9,0.4-3.9,0.3c0,0-1.8-3-1.2-4s1-2.5,2.6-2.5
			s7.9-0.1,9.3,0.1c1.5,0.2,2.6,1.8,2.8,3.2C58,43.7,57.6,44.2,57,45.2"/>
	</g>
	<g id="path134">
		<path fill="#4F3636" d="M34.6,59.2L34.3,59c0,0,0.1-0.9-0.3-2.3c-0.4-1.5-1.1-3.3-0.6-4.5c0.4-1.2,0.8-3.2,0.9-4.1
			c0.1-0.9,0.1-1.8,0.1-2.1s0.2-0.7,0.2-0.7s1,0,1.6-0.3c0.6-0.2,0.9-0.4,0.9-0.4s0.1,0.2,1,0.2s1.7-0.1,1.7-0.1l0.2,0.5
			c0,0-0.3,0.8,0.1,1c0.4,0.2,0.6,0.5,0.6,0.5s0.3,0.4,0.2,1.8c-0.1,1.5-0.1,1-0.2,1.7c-0.1,1,0,1-0.2,1.7s-0.4,0.9-0.1,2.2
			c0.3,1.4,0.5,1.6,0.5,2.8c0,1.3,0.1,2.2,0,2.6c-0.2,0.4-0.3,0.4-0.3,0.4l0.1-0.1c-0.6,0.3-2,0.1-2,0.1s-0.4-0.2-0.4-0.7
			s0.3-0.9,0-1.9S37.9,56,38,55.2c0-0.8,0-1-0.3-1.7c-0.2-0.7-0.2-1.9-0.3-2.2c-0.1-0.4-0.2-0.6-0.2-0.6s-0.1,0.8-0.3,1
			c-0.2,0.3-0.1,0.4-0.4,0.8c-0.2,0.4-0.2,0.7-0.2,0.9c0,0.1,0,0.5,0,0.5s0.3,0.4,0.4,1.3c0.1,0.9,0.1,0.5,0.2,1.7
			c0.1,1.2,0.6,2.6,0.3,2.6c-0.2,0-0.2,0.1-0.2,0.1C35.8,59.5,35.1,59.3,34.6,59.2"/>
	</g>
	<g id="path136">
		<path fill="#A8393A" d="M34.7,45.1c-0.6-0.2-0.8-0.7-0.9-1.3c0,0,0,0.2-0.8,0.1c-0.8-0.1-1,0-1.3-0.8c-0.3-0.9-1-2.8-1-3
			s-0.1-0.4,0-0.6c0.1-0.3,0-0.5,0.3-0.5s0.4-0.1,0.4-0.1s0,0.2-0.1,0.5s-0.1,0.3,0.1,0.6s0.4,0.5,0.4,0.5s0.1-0.3,0.3-0.5
			c0.2-0.2,0.6-0.5,0.6-0.5l0.2,1.2c0,0,0.3-0.5,0.4-1.2c0.1-0.6,0.3-1.5,0.2-1.7c0-0.3,0-0.5,0.4-0.5c0.4-0.1,0.5,0,0.6-0.2
			s0.3-0.1,0.6-0.3s0.7-0.5,0.7-0.5s0,0.2,0.4,0.6c0.4,0.5,0.5,0.5,0.6,0.7c0.2,0.1,0.5,0.1,0.6-0.1c0.1-0.2,0.3-0.5,0.3-0.7
			c0-0.3,0.1-0.4,0.1-0.4s0.5,0.3,0.9,0.4c0.5,0.1,0.6,0,0.7,0.2c0.2,0.2,0.2,0.4,0.5,0.3c0.3-0.1,0.6,0,0.8,0.5
			c0.3,0.5,0.3,0.6,0.5,0.8s0.2,0.1,0.4,0.6c0.1,0.5,0.7,1.4,0.8,1.8c0.1,0.4,0.1,0.9,0.1,0.9v1.3l0.8,1.3c0,0,0.1-0.2-0.3,0.2
			c-0.4,0.4-0.6,0.8-1.2,1.2c-0.6,0.4-0.9,0.5-0.9,0.5s-0.2-0.3-0.5-0.6c-0.2-0.3-0.3-0.5-0.6-0.6l-0.1-0.5l0.7-0.6
			c0.6-0.1,0.9,0,0.5-0.6s-0.6-0.7-0.7-1.1c0.1-0.4,0.1-0.4,0.1-0.4s-0.4,0.5-0.1,0.8c0.3,0.3,0.3,0.5,0.3,0.8s0,0.5,0,0.5l-0.6,0.7
			c0,0-2.2,0.2-2.9-0.2C36.7,44.3,37.3,44.9,34.7,45.1"/>
	</g>
	<g id="path138">
		<path fill="#863F3F" d="M54.5,54.8c0-0.2,0.2-0.4,0.1-0.6c0.1-0.3,0.2-0.6,0.1-0.8c-0.5-0.6-0.4-1.3-0.2-1.9
			c0.1,0.1,0.1,0.3,0.2,0.5c0.1,0.7,0,1.5,0.6,2c0.2,0,0.3,0.1,0.5,0.1c-0.1-0.5-0.7-0.6-0.7-1.1c-0.2-0.8,0-1.8-0.6-2.5
			c-0.4-0.1-0.9,0-1.3,0c-0.8,0-1.8,0.3-2.7,0c-0.5-0.4-1.3-0.1-1.8-0.3c-0.5-0.1-0.1-0.6-0.5-0.8c-0.2,0.1-0.1,0.3-0.3,0.4
			c-0.3,0.2-0.8,0.1-1.1-0.1l0,0c-0.1,0.1-0.1,0.3-0.1,0.4c0.1,0.2,0.5,0.2,0.2,0.5c-0.2,0.2-0.4,0.3-0.6,0.4c-0.1,0.1,0,0.2,0,0.3
			c0,0.2,0.1,0.3,0.2,0.4c0.4,0.1,0.9-0.1,1.2,0.1c0.3,0.1,0.5,0.4,0.6,0.6c0.2,0.5,0.3,1.1,0.9,1.3c0,0.5,0,1-0.5,1.2
			c-0.1,0.1-0.1,0.2-0.2,0.2h0.7c0.3-0.3,0.1-0.6,0.3-0.9c0.1,0,0.2,0.2,0.2,0.3c0.2,0.2-0.2,0.4-0.2,0.7h0.6c0-0.2,0.2-0.4,0.1-0.6
			c-0.1-0.3-0.2-0.6-0.1-0.9c0.4-0.1,0.8-0.1,1.2-0.1l0.1,0.1c0.2-0.2,0.5-0.3,0.8-0.4c0.1,0.2,0,0.4,0.1,0.6
			c-0.1,0.4-0.3,0.8-0.7,1c0,0,0,0.1-0.1,0.2h0.7V55c0.2-0.5,0.8-0.6,0.9-1.2c0-0.1,0.2-0.1,0.3-0.1c0.1,0.1,0.3,0.1,0.4,0.2
			c0.1,0.4,0,0.8-0.3,1.1h-0.1h1.1"/>
	</g>
	<g id="path140">
		<path fill="#863F3F" d="M40.5,59.9l0.6,0.3c0,0-0.4,0.6-1.2,0.7c-0.8,0.1-1.4,0-1.4,0s-0.3-0.1-0.2-0.5s0.1-0.5,0.1-0.5
			C39.4,60.1,40.2,60,40.5,59.9"/>
	</g>
	<g id="path142">
		<path fill="#863F3F" d="M36.9,59.8l0.3,0.8l-1.6-0.7c0,0,0,0-0.5,0.3c-0.4,0.3-1,0.2-1.3,0.3c-0.4,0.1-0.6,0.2-0.7,0.5l-0.6-0.4
			c0-0.3-0.3-0.2,0.2-0.4c0.6-0.2,0.6-0.3,1-0.5s0.7-0.5,0.7-0.5c0.7,0.2,2.4,0.4,2.4,0.4"/>
	</g>
	<g id="path144">
		<path fill="#3C2E2E" d="M36.8,60.4l-4.6-23.5l1.5-0.3l-0.2-1.2c0-0.5-0.5-0.8-0.9-0.8s-0.8,0.3-0.9,0.6h-0.2
			c-0.2-0.2-0.4-0.3-0.7-0.3c-0.5,0-0.9,0.4-0.9,0.9c0,0.1,0,0.2,0,0.3l0.2,1.1l1.7-0.3L36.2,60L36.8,60.4"/>
	</g>
	<g id="path146">
		<path fill="#3C2E2E" d="M65.1,60c0,0,0.5-1.6,0.8-2.1s0.2-0.2,0.4-0.2c0.3,0,0.1-0.2,0.1-0.2s-0.3-0.3-0.4-0.4
			c0,0-0.3-0.3-0.6,0.1c-0.3,0.4-0.4,0.4-0.6,0.6c-0.2,0.2-0.2,0.1-0.2,0.1l-1.3,2.4L63,60.7L62.7,61c0,0,1-0.6,1.4-0.8
			C64.4,59.9,65,59.9,65.1,60"/>
	</g>
	<g id="path148">
		<path fill="#3C2E2E" d="M39.1,32.7c-0.1,0-0.3,0-0.6,0.1c-0.2-0.2-0.4-0.5-0.5-0.7c-0.1-0.3-0.1-0.4-0.7-0.3
			c-0.6,0.1-2.5,0.6-2.8,0.8s-0.2,0.2-0.2,0.4s0.1,0.3,0.2,0.6c-0.1,0-0.2,0.1-0.3,0.1c-0.9,0.4-1.2,0.6-0.9,1
			c0.3,0.3,0.6,0.3,0.9,0.2c0.3,0,0.7-0.1,0.7-0.1s0-0.5,0.3-0.7s0.6-0.5,1.1-0.6s1.2-0.3,1.4-0.3s0.5-0.1,0.6,0.2
			c0.2,0.3,0.2,0.6,0.2,0.6c0.9-0.3,0.3,0,0.9-0.3C40.1,33.4,39.8,32.7,39.1,32.7"/>
	</g>
	<g id="path150">
		<path fill="#3C2E2E" d="M63.1,33.8c-0.8-0.1-1-0.1-1.4-0.4c-0.3-0.3-0.1-0.8,0.4-0.9c0.5,0,1.2-0.1,1.2-0.1s0-0.2,0.4-0.2
			c0.4,0,1.2,0.1,1.8,0.3c0.5,0.2,0.9,0.2,0.9,0.2l-1.8,0.7c0,0,0.3,0,1.1,0.1c0.8,0,0.9-0.1,1.5,0.2s1.5,1.3,0.7,1.6
			s-1.1,0.3-1.3,0.3c-0.2,0-0.1-0.4-0.1-0.7s-0.1-1.1-1-1.1c-0.9-0.1-1.2-0.2-1.6-0.1C63.5,33.8,63.1,33.8,63.1,33.8"/>
	</g>
	<g id="path154">
		<path fill="#FFE2D1" d="M31.3,38.8c0,0,0.2-0.9,0.4-1.1c0.2-0.2,0.1-0.2,0.3-0.3s0.3-0.1,0.6,0s0.7-0.1,0.5,0.6
			c0,0.1,0,0.5-0.1,0.6c0,0.2,0,0.4-0.1,0.6c0,0.2-0.3,0.4-0.3,0.4v-0.1c0,0-0.5,0.4-0.7,0.7c-0.1,0.2-0.2,0.4-0.2,0.4
			s-0.3-0.3-0.4-0.5c-0.2-0.2-0.2-0.3-0.1-0.4c0.1-0.2,0.2-0.4,0.2-0.4C31.4,38.9,31.4,38.8,31.3,38.8"/>
	</g>
	<g id="path156">
		<path fill="#FFE2D1" d="M36.2,36.8c0.4,0.5,0.5,0.5,0.6,0.7c0.2,0.1,0.5,0.1,0.6-0.1c0.1-0.2,0.3-0.5,0.3-0.7
			c0-0.3,0.1-0.4,0.1-0.4v-0.1c0,0,0.2,0.1,0.4,0.1s0.5,0,0.5-0.2c0-0.3,0-0.5-0.2-0.5c0.1-0.1,0.2-0.2,0.3-0.3c0-0.2,0-0.2,0.1-0.2
			s0.2,0,0-0.3s-0.3-0.5-0.3-0.7s-0.3-0.7-0.7-0.7c-0.4,0.1-1.1,0.7-0.9,1.1c0.2,0.4,0.2,0.3,0.2,0.3l-0.4,0.5c0,0-0.4-0.6-0.3,0
			c0.1,0.6,0.2,0.6,0.2,0.6s-0.5,0.2-0.6,0.3s-0.1,0.2,0,0.3C36.2,36.4,36.2,36.7,36.2,36.8L36.2,36.8"/>
	</g>
	<g id="path158">
		<path fill="#FFE2D1" d="M70.5,47.4c0,0,0.3,0.4,0.2,0.7c-0.1,0.4-0.2,0.5-0.4,0.7c0,0,0,0.3-0.2,0.3c-0.2,0.1-0.6,0.2-0.7,0.1
			c-0.2-0.2-0.3-0.3-0.2-0.4c0.1-0.1,0.1-0.2,0.1-0.2h-0.2v-0.3H69c0,0-0.2-0.4-0.3-0.5c-0.1-0.2-0.3-0.5-0.3-0.5s0.2-0.6,0.5-0.6
			s0.6-0.1,1.2,0.2L70,47.2l0.3,0.4L70.5,47.4"/>
	</g>
	<g id="path160">
		<path fill="#FFE2D1" d="M60.7,46.3c0,0-0.3-0.9-0.3-1.4s0.1-0.6,0.2-0.9c0.2-0.3,0.3-0.3,0.3-0.3s-0.2,0.1-0.2,0.5s0.1,0.8,0,1
			s0,0.2,0,0.2l0.4,0.2C61.1,45.5,61,46,60.7,46.3"/>
	</g>
	<g id="path162">
		<path fill="#FFE2D1" d="M63.5,36.7v-0.3c0,0-0.3,0-0.5-0.1s-0.1-0.1,0-0.3v-0.3l0.1-0.1c0,0-0.1,0-0.2,0c0-0.1-0.1-0.4-0.1-0.4
			s-0.3,0-0.3-0.2s0.1-0.2,0.3-0.4c0.1-0.1,0.2-0.1,0.1-0.3c0-0.2,0-0.2,0-0.3s0.1-0.3,0.1-0.3h1.2c0,0-0.1,0.3,0,0.3
			c0.2,0,0.5,0.1,0.3,0.5c-0.1,0.3-0.3,0.6-0.2,0.8c0.1,0.1,0.1,0.2,0.1,0.2s0.1-0.3,0.2-0.5s0.1-0.1,0.2-0.1c0.2,0,0.3-0.1,0.2,0.3
			c-0.1,0.3-0.2,0.6-0.3,0.6c-0.1,0-0.3,0-0.3,0s0,0.2,0.2,0.2c0.3,0,0.8,0.4,0.8,0.4L65.3,37l-1.4,1.1l-0.5-0.7L63.5,36.7"/>
	</g>
	<g id="path164">
		<path fill="#FFE2D1" d="M41,46.5l-1-1.4l-0.1,0.7c0,0,0.1,0.3,0.4,0.4c0.3,0.1,0.7,0.5,0.7,0.5L41,46.5"/>
	</g>
	<g id="path166">
		<path fill="#46B3B3" d="M33.3,60.7c0.7-0.3,1.2-0.1,1.8-0.5s0.4-0.4,1.5,0.1s7.7,5.1,14,4.7s12.4-4.1,13.2-4.6s1.6-0.7,3,0.6
			c-2.9,2-8.7,6.7-16.4,6.5c-7.7-0.1-14.6-5.1-16.2-6.3L33.3,60.7L33.3,60.7"/>
	</g>
	<g id="path168">
		<path fill="#FFFFFF" d="M63.9,60.6c-0.1,0-6.5,4.3-13.4,4.7c-5.4,0.3-10.9-2.9-13.2-4.2c-0.4-0.2-0.7-0.4-0.9-0.5l-0.3-0.1
			c-0.5-0.2-0.5-0.2-0.6-0.1c-0.1,0-0.1,0.1-0.3,0.2c-0.4,0.2-0.8,0.3-1.1,0.3c-0.1,0-0.2,0-0.3,0l0.4,0.1l0,0l0,0
			c0.8,0.6,8,6.1,16.1,6.3c7,0.1,12.5-3.8,15.5-5.9l0.5-0.3C65.2,59.9,64.6,60.2,63.9,60.6"/>
	</g>
	<g id="path170">
		<path fill="#FFFFFF" d="M36.9,63.1c0,0.1,0,0.2,0,0.4c0.1,0.2,0.3,0.4,0.3,0.7c0.2,0.4,0.2,0.8,0.1,1.2c-0.2,0.4-0.7,0.5-0.9,0.8
			c-0.2-0.4-0.1-1-0.6-1.3c-0.2,0-0.3-0.3-0.5-0.4c0,0.1-0.2,0.1-0.2,0.2c-0.5,0.3-0.9,0.4-1.3,0.8c-0.4,0.2-1,0.3-1.4,0l-0.2-0.3
			c1.2-0.2,0.5-1.9,1.8-1.9c0.1-0.1,0.2-0.2,0.2-0.3c0-0.2-0.1-0.4-0.2-0.6l0,0"/>
	</g>
	<g id="path172">
		<path fill="#FFD93C" d="M34,62.4c-0.8-0.2-1.5-0.5-2.3-0.6c-0.1,0-0.1,0-0.1,0.1l0.1,0.1l0,0c0.2,0.2,0.3,0.6,0.2,0.9
			c-0.1,0.2-0.2,0.5-0.4,0.5c-0.4,0.2-0.8,0.1-1.2-0.1c-0.4-0.4-0.7-1-0.6-1.6c0.1-0.4,0.4-0.8,0.8-1.1l0.5-0.2
			c-0.7-0.5-1.1-1.3-1-2.2c0.1-0.3,0.2-0.6,0.5-0.7c0.4-0.2,0.9-0.3,1.4-0.1c0.4,0.2,0.7,0.6,0.9,1c0,0.3-0.2,0.8-0.6,0.9
			c-0.2,0-0.4,0-0.5,0c0.1,0.3,0.5,0.7,0.8,0.8l0.7,0.5l1,0.4l2.8,1.8c0,0,0,0,0,0.1"/>
	</g>
	<g id="path174">
		<path fill="#FFD93C" d="M66.5,61c0,0,0.8,0.1,1.6-0.4c0.4-0.2,0.9-0.6,1.1-1.1c0.2,0,0.2-0.2,0.2-0.3c-0.2-0.1-0.4,0.1-0.6-0.1
			c-0.3,0-0.5-0.2-0.6-0.4c-0.2-0.3,0-0.8,0.2-0.9c0.7-0.4,1.2-0.7,2-0.1c0.3,0.4,0.6,0.9,0.5,1.5c0,0.5-0.4,0.9-0.7,1.2
			c0.1,0.1,0.3,0.1,0.4,0.2c0.6,0.2,1.3,0.7,1.3,1.4c0.2,0.4-0.2,0.8-0.4,1.1c-0.3,0.4-0.9,0.5-1.3,0.4c-0.3-0.1-0.5-0.3-0.7-0.5
			c-0.1-0.3,0-0.7,0.2-1c-0.5,0-0.9,0.2-1.5,0.2c-0.3,0-0.6,0.2-1,0.2c0,0-1.1,0.2-1.8,0.3c-0.7,0.1-0.8-0.2-0.8-0.2"/>
	</g>
	<g id="path176">
		<path fill="#FFD93C" d="M60.9,62c-0.8,0-1.7-0.2-2.3,0.4c-0.2,0.2-0.1,0.3-0.2,0.5c-0.5,0.1-0.9-0.3-1.1-0.7
			c-0.1-0.3,0-0.6,0.2-0.8c-0.1-0.1-0.2,0.1-0.3,0.1c-0.5,0.2-0.6,0.7-0.6,1.2c-0.1,0.1-0.2,0.1-0.3,0.1s-0.2-0.2-0.2-0.2
			c-0.1,0-0.1,0-0.1,0.1c-0.1,0-0.2,0-0.3-0.1c-0.2-0.4-0.3-0.9,0-1.3c-0.2,0-0.3,0.2-0.4,0.3c-0.2,0.4-0.4,0.9-0.1,1.3
			c0.1,0.1,0.4,0,0.4,0.2c-0.2,0.3-0.5,0.4-0.9,0.4c-0.3-0.1-0.5-0.4-0.6-0.6c0.1,0.3-0.2,0.6-0.4,0.8l0,0c-0.1,0-0.1,0.1-0.2,0.1
			c0-0.4-0.2-0.7-0.3-1.1c-0.1-0.3-0.2-0.7,0-1c-0.4,0-0.8-0.1-1.1-0.2c-0.3-0.1-0.5-0.4-0.6-0.7c0.7,0,1.2-0.4,1.8-0.3
			c0.1,0,0.1,0.1,0.1,0.2h0.1c0-0.3-0.4-0.5-0.4-0.8c-0.1-0.2,0.1-0.4,0.2-0.6c0.1-0.1-0.1-0.2,0.1-0.2c0.2,0.2,0.4,0.3,0.6,0.5
			c0.2,0,0.1-0.4,0.4-0.5c0.2-0.1,0.2-0.4,0.3-0.6c0.5,0.2,0.6,0.9,0.8,1.4c0.4,0.4,0.8,0.4,1.4,0.3c0.1,0,0.3,0.1,0.4,0.1
			c-0.3-0.4-0.3-0.9-0.4-1.4c0-0.3-0.2-0.5-0.3-0.7c0.2-0.1,0.6-0.1,0.8,0c0.4,0.1,0.8,0.2,1,0.5c0-0.1,0-0.2,0.1-0.3
			c0.2-0.2,0.4-0.4,0.6-0.4l0,0c0.1-0.1,0.2,0,0.2-0.1c0.2,0,0.5-0.2,0.6-0.4c0.1,0,0.1,0,0.1,0c0,0.2,0.1,0.4,0.1,0.5
			c0,0.2-0.1,0.3,0,0.5c0.1,0,0.1-0.2,0.2-0.2c0.3,0.4,0.1,0.7,0.1,1.1h0.2c0.2,0,0.2-0.3,0.3-0.4l0.1,0.1c0.1,0.4-0.1,1,0.1,1.4
			c0.1,0.1,0.2,0.4,0.4,0.3l0.9,0.3v0.1"/>
	</g>
	<g id="path178">
		<path fill="#FFD93C" d="M51.3,61.7c0,0.1,0,0.2,0.1,0.3c0.3-0.2,0.6-0.3,0.9-0.3c-0.2,0.4-0.2,0.8-0.1,1.2
			c0.1,0.1,0.2-0.1,0.4-0.1S53,62.9,53,63c0.1,0.2,0,0.4,0,0.5c-0.1,0.2-0.3,0.3-0.5,0.3c-0.3,0-0.7-0.1-0.9-0.4
			c-0.2,0-0.3,0.4-0.6,0.4c-0.2-0.2-0.3-0.3-0.5-0.4c-0.3,0.1-0.7,0.7-1.2,0.4c-0.2,0-0.3-0.2-0.4-0.4c0-0.2-0.1-0.3,0-0.5
			c0.1-0.1,0.2-0.2,0.4-0.2c0,0.1,0.1,0.1,0.2,0.2c0.2-0.2,0.3-0.5,0.2-0.8c0-0.3-0.6-0.3-0.4-0.7c0.3,0,0.7,0,1,0.2
			c0.1-0.1,0.1-0.2,0.1-0.3c0.2-0.1,0.3-0.4,0.5-0.5C51,61.3,51.2,61.5,51.3,61.7"/>
	</g>
	<g id="path180">
		<path fill="#FFD93C" d="M40,62.1l-1.9-1c0,0-0.5,0.1,0.2,0c0.6-0.1,1.3,0,2.1-0.3c0.7-0.3,0.9-0.9,1-1.3c0.1-0.4,0.1-0.4,0-0.4
			S41,58.9,41,58.9l0.1-0.4c0.2-0.1,0.3-0.2,0.5-0.2c0.2-0.1,0.4,0.1,0.6,0.1c-0.1-0.2-0.1-0.5-0.1-0.8c0.1-0.2-0.1-0.5,0.1-0.5
			c0.2,0.2,0.5,0.2,0.7,0.2c0.2,0.1,0.3,0.3,0.4,0.5c0.4-0.2,0.9-0.5,1.4-0.4c-0.3,0.5-0.1,1-0.1,1.5l0,0l-0.1,0.3
			c-0.2,0.2-0.3,0.5-0.4,0.7h0.4c0.5-0.2,1-0.2,1.4-0.6c0.3-0.3,0.4-0.7,0.2-1.1c0.1-0.2,0.2,0.1,0.4,0c0.3,0.2,0.5,0.5,0.6,0.8
			c0.4-0.1,0.7-0.2,0.9-0.6h0.1c-0.2,0.5,0.3,1-0.1,1.5c0.7,0.1,1.2,0.7,1.9,0.9c0.1,0.1,0.2,0,0.2,0.1c-0.4,0.5-1,0.8-1.6,0.7
			c0.4,0.7-0.4,1.2-0.3,1.9c-0.5,0-0.9-0.6-1-1c-0.3,0-0.5,0.4-0.8,0.4c-0.2,0-0.5,0-0.6-0.1c-0.1-0.4,0.4-0.8,0.1-1.2
			c-0.2-0.2-0.4-0.4-0.7-0.3c0,0.2,0.1,0.4,0,0.7c-0.1,0,0,0.2-0.1,0.2l0,0c-0.1,0.2-0.2,0.2-0.4,0.3c-0.2,0-0.4,0.1-0.6,0
			c0-0.2,0-0.5-0.1-0.7c-0.1-0.5-0.7-0.3-1-0.4c0,0.2,0.1,0.4,0.1,0.6c-0.1,0.3-0.2,0.6-0.6,0.8c-0.1,0-0.4,0.1-0.5-0.1l0.1-0.2
			C41.8,62,40.7,62,40,62.1L40,62.1"/>
	</g>
	<g id="path182">
		<path fill="#FFD93C" d="M54.4,38.6c-0.6,0.7-0.7-0.5-1.2-0.5c-0.5,0.1-0.5-0.5-1-0.6c-0.7,0.1-1-0.6-1.7-0.5
			c-0.4,0-0.6,0.2-0.8,0.4c-0.6-0.2-1.1,0.1-1.5,0.6c-0.5-0.1-0.8,0.3-1.1,0.5"/>
	</g>
	<g id="path184">
		<path fill="#FFD93C" d="M54.3,38.8C54.3,38.8,54.3,38.7,54.3,38.8l0.1-0.2L54.3,38.8"/>
	</g>
	<g id="path186">
		<path d="M54.4,38.9l-0.2-0.1l0.1-0.2l0.2,0.1L54.4,38.9L54.4,38.9C54.4,38.8,54.4,38.8,54.4,38.9z"/>
	</g>
	<g id="path188">
		<path fill="#FFD93C" d="M53.1,38.2c-0.5,0.1-0.5-0.5-1-0.6c-0.7,0.1-1-0.6-1.7-0.5c-0.4,0-0.6,0.2-0.8,0.4
			c-0.6-0.2-1.1,0.1-1.5,0.6c-0.5-0.1-0.8,0.3-1.1,0.5c-0.1,0-0.3,0-0.4,0c0,0,0.8,0.6,1.1,1c0.3,0.5,1.2,1.5,1.9,1.7
			c0.2,0.2,0.5,0.3,0.8,0.3s0.7,0.2,0.9,0c0.3,0.1,0.6-0.1,1.2-0.7c0.6-0.6,1.4-1,1.4-1l0.5-1.1C53.8,39.3,53.7,38.1,53.1,38.2"/>
	</g>
	<g id="path190">
		<path d="M50.9,41.8c-0.1,0-0.2,0-0.3,0s-0.2,0-0.3,0c-0.3,0-0.6-0.1-0.8-0.4c-0.7-0.2-1.7-1.2-1.9-1.7c-0.3-0.5-1-1-1-1l0.1-0.2
			l0,0c0.1,0,0.2,0,0.3,0c0,0,0.1,0,0.1-0.1c0.3-0.2,0.6-0.5,1-0.5c0.5-0.5,1-0.7,1.5-0.6c0.1,0,0.1-0.1,0.2-0.1
			c0.2-0.1,0.4-0.3,0.7-0.2c0.4-0.1,0.7,0.1,1,0.2c0.2,0.1,0.5,0.3,0.8,0.2l0,0l0,0c0.3,0,0.4,0.2,0.5,0.3c0.1,0.2,0.2,0.3,0.4,0.2
			l0,0c0.3,0,0.5,0.2,0.6,0.5c0.1,0.1,0.2,0.3,0.3,0.3s0.1,0,0.2-0.1l0.2,0.1L54,39.8l0,0c0,0-0.8,0.4-1.3,1
			c-0.5,0.5-0.9,0.8-1.2,0.7C51.2,41.8,51,41.8,50.9,41.8z M47,38.7c0.3,0.2,0.6,0.5,0.8,0.8c0.3,0.4,1.2,1.4,1.8,1.6l0,0l0,0
			c0.2,0.2,0.4,0.3,0.7,0.3c0.1,0,0.2,0,0.3,0c0.2,0,0.4,0.1,0.5,0v-0.1h0.1c0.2,0,0.5,0,1.1-0.6c0.5-0.6,1.2-0.9,1.4-1L54,39l0,0
			c-0.2,0-0.3-0.2-0.5-0.4c-0.1-0.2-0.2-0.4-0.4-0.4l0,0c-0.4,0.1-0.5-0.1-0.7-0.3c-0.1-0.1-0.2-0.2-0.3-0.3
			c-0.4,0.1-0.6-0.1-0.9-0.2c-0.3-0.1-0.5-0.3-0.8-0.2l0,0l0,0c-0.2,0-0.4,0.1-0.5,0.2c-0.1,0.1-0.1,0.1-0.2,0.1l0,0h-0.1
			c-0.4-0.2-0.9,0-1.4,0.5l0,0h-0.1c-0.4,0-0.6,0.2-0.9,0.4l-0.1,0.1L47,38.7L47,38.7L47,38.7z"/>
	</g>
	<g id="path192">
		<path fill="#FFD93C" d="M43.8,43.6c-0.1-0.5-0.3-0.9-0.2-1.4c0.1-0.3,0-0.6,0.2-0.8c0.1-0.4,0.3-0.7,0.6-1l0,0c0,0,0-0.1,0.1-0.2
			l0,0c0.1-0.2,0.3-0.3,0.6-0.4l0,0v-0.1l0,0l0.1-0.1c0.1,0,0.1,0,0.1-0.1c0.4-0.1,0.8,0,1.1,0l-0.1,0.1c-0.1-0.2-0.2-0.1-0.4-0.1
			c-0.2,0.1-0.5,0.1-0.7,0.2c-0.2,0.1-0.3,0.2-0.5,0.4s-0.4,0.5-0.6,0.7c0,0.1-0.2,0.3-0.2,0.4c-0.3,0.5-0.2,1.3-0.1,1.8"/>
	</g>
	<g id="path194">
		<path fill="#FFD93C" d="M48,56.4c-4.8-0.9-4.8-4.7-4.8-5.5c0-0.2,0-0.5,0-0.7c0.1,0.4,0.5,0.6,0.9,0.6c0.5,0,0.9-0.4,0.9-0.9
			S44.6,49,44.2,49c0.6-0.2,1.1-0.9,1.2-2.1c0.1-1.3-1.1-2.1-1.3-2.3c0.1,0,0.1,0,0.2,0c0.4,0,0.8-0.3,0.8-0.8
			c0-0.4-0.3-0.8-0.8-0.8c-0.1,0-0.3,0-0.4,0.1c-0.1-0.5-0.2-1.3,0.1-1.8c-0.1-0.1,0.2-0.3,0.2-0.4c0.2-0.2,0.4-0.5,0.6-0.7
			c0.2-0.1,0.3-0.2,0.5-0.4c0.2-0.1,0.5-0.2,0.7-0.2s0.3-0.1,0.4,0.1l0.1-0.1v0.1c0,0.4,0.3,0.7,0.7,0.7s0.7-0.3,0.7-0.7
			c0-0.2-0.1-0.4-0.3-0.6c-0.4-0.9-1.3-0.8-2.1-0.8c-1.5,0.4-2.5,1.7-2.9,3c0,0-0.4,1.4,0,2.1c0.3,0.7,0.9,1.4,0.9,1.4l0,0l0,0
			c-0.2,0.1-0.6,0.2-0.6,0.6c-0.1,0.3,0,0.6,0.2,0.8s0.4,0.3,0.7,0.2c0.1-0.1,0.2-0.2,0.3-0.2c0.1,0.6,0,1.2-0.2,1.7
			c-0.2-0.1-0.4-0.5-0.7-0.3c-0.3,0.1-0.4,0.3-0.5,0.6c0,0.3,0,0.5,0.2,0.7c0.1,0,0.1,0.1,0.2,0.2c-0.6,0.3-1,0.8-1.2,1.5
			c-0.2-0.2-0.5-0.2-0.7-0.5H41c0.1,0.8-0.5,1.6,0.1,2.3v0.1c-0.2,0-0.4,0.1-0.6,0.1v0.1c0.9,0.3,0.6,1.6,1.6,1.8v0.1
			c-0.2-0.1-0.7-0.1-0.9,0.1c-0.1,0,0,0.1,0,0.1c0.1,0.2,0.3,0.2,0.5,0.3c0.5,0.3,0.8,1,1.4,1.1c0,0.3,0.1,0.5,0.2,0.7
			c0.3,0.1,0.7,0.4,1.1,0.2c0-0.1,0.3-0.2,0.3-0.4c0.1-0.1-0.1-0.2,0.1-0.2c1.2,0.1,2.1,1.1,3.4,1.1h0.4l0.2-1.1L48,56.4"/>
	</g>
	<g id="path196">
		<path d="M48.6,57.7l-0.5-0.1c-0.7,0-1.3-0.3-1.9-0.5c-0.5-0.2-0.9-0.4-1.4-0.5v0.1c0,0.2-0.1,0.2-0.2,0.3l-0.1,0.1l0,0l0,0
			c-0.3,0.2-0.7,0-0.9-0.1c-0.1,0-0.2-0.1-0.2-0.1l0,0l0,0c-0.2-0.2-0.3-0.4-0.3-0.7c-0.4-0.1-0.6-0.4-0.9-0.7
			c-0.2-0.2-0.3-0.4-0.5-0.5l0,0c0,0-0.1-0.1-0.2-0.1C41.2,55,41,55,41,54.9l0,0l0,0c0-0.1,0-0.2,0.1-0.2c0.1-0.1,0.3-0.2,0.5-0.2
			c-0.2-0.2-0.3-0.5-0.5-0.7c-0.2-0.3-0.3-0.7-0.7-0.8h-0.1l0.1-0.3h0.1c0.1,0,0.1,0,0.2,0c0.1,0,0.2,0,0.3-0.1
			c-0.3-0.4-0.2-0.9-0.1-1.4c0.1-0.3,0.1-0.6,0.1-0.9v-0.1h0.4l0,0c0.1,0.1,0.2,0.1,0.3,0.2c0.1,0,0.2,0.1,0.2,0.1
			c0.2-0.6,0.6-1,1-1.3l0,0l0,0c-0.2-0.2-0.2-0.5-0.2-0.8l0,0c0.1-0.3,0.3-0.6,0.6-0.7c0.3-0.1,0.6,0.1,0.7,0.2
			c0.2-0.4,0.2-0.8,0.2-1.3c0,0-0.1,0.1-0.2,0.1c-0.3,0.1-0.6,0-0.9-0.2c-0.2-0.3-0.3-0.7-0.2-1s0.4-0.4,0.6-0.6l0,0
			c-0.2-0.2-0.6-0.7-0.9-1.3c-0.3-0.8,0-2.1,0-2.2c0.4-1.3,1.4-2.7,3-2.9h0.2c0.8,0,1.6,0,2.1,0.9c0.2,0.2,0.3,0.4,0.3,0.6
			c0,0.5-0.4,0.8-0.8,0.8c-0.4,0-0.7-0.3-0.8-0.6l0,0L46.3,40c-0.1-0.1-0.1-0.1-0.2-0.1H46c-0.1,0-0.1,0-0.2,0.1
			c-0.2,0-0.3,0.1-0.4,0.1c-0.1,0.1-0.2,0.1-0.2,0.2c-0.1,0.1-0.1,0.1-0.2,0.2c-0.1,0.1-0.2,0.2-0.3,0.4c-0.1,0.1-0.2,0.2-0.2,0.3
			s-0.1,0.1-0.1,0.2l-0.1,0.1l0,0v0.1c-0.2,0.4-0.2,1.1-0.1,1.6c0.1,0,0.2,0,0.3,0c0.5,0,0.9,0.4,0.9,0.9c0,0.4-0.3,0.8-0.7,0.9
			c0.4,0.4,1.1,1.1,1,2.1c-0.1,1.2-0.6,1.8-1,2c0.4,0.2,0.6,0.5,0.6,0.9c0,0.6-0.5,1-1,1c-0.3,0-0.6-0.1-0.8-0.3v0.1v0.1
			c0,1.7,0.6,4.6,4.7,5.3l0.8,0.1L48.6,57.7z M48.1,57.4h0.3l0.1-0.8h-0.2l0,0H48c-4.3-0.9-5-3.9-5-5.6v-0.1c0-0.2,0-0.4,0-0.6h0.2
			c0.1,0.3,0.4,0.5,0.7,0.5c0.4,0,0.8-0.3,0.8-0.8c0-0.4-0.3-0.7-0.7-0.8V49c0.7-0.2,1-0.9,1.1-2c0.1-1.2-1.1-2.1-1.2-2.2l0.1-0.2
			c0.1,0,0.1,0,0.2,0c0.4,0,0.7-0.3,0.7-0.6c0-0.4-0.3-0.7-0.7-0.7c-0.1,0-0.2,0-0.3,0.1l-0.2,0.1v-0.2c-0.1-0.6-0.2-1.3,0.1-1.9
			c0-0.1,0.1-0.2,0.1-0.3c0,0,0,0,0-0.1l0,0l0.1-0.1c0.1-0.1,0.2-0.2,0.3-0.3s0.2-0.3,0.4-0.4c0.1-0.1,0.2-0.1,0.2-0.2
			c0.1-0.1,0.2-0.1,0.3-0.2c0.1-0.1,0.3-0.1,0.5-0.2c0.1,0,0.2,0,0.2-0.1l0,0H46c0.1,0,0.2,0,0.3,0.1l0.3-0.3l-0.1,0.4
			c0,0,0,0,0,0.1c0,0.3,0.3,0.6,0.6,0.6s0.6-0.3,0.6-0.6c0-0.2-0.1-0.4-0.2-0.5l0,0l0,0c-0.4-0.8-1.1-0.8-1.9-0.7h-0.2
			c-1.4,0.2-2.4,1.5-2.7,2.7c0,0-0.3,1.3,0,2s0.9,1.3,0.9,1.3l0.1,0.1l0,0l0.1,0.1L43.5,45c-0.2,0.1-0.4,0.2-0.5,0.4s0,0.5,0.1,0.7
			c0.2,0.2,0.4,0.2,0.6,0.2l0.1-0.1c0.1,0,0.1-0.1,0.1-0.1l0.2-0.1v0.2c0.1,0.6,0,1.2-0.3,1.8l-0.1,0.2l0.1-0.2c0,0-0.1,0-0.1-0.1
			c-0.2-0.2-0.3-0.3-0.5-0.2c-0.3,0.1-0.4,0.3-0.4,0.5s0,0.4,0.1,0.6c0.1,0,0.1,0.1,0.1,0.1l0,0l0.2,0.1L43,49.2
			c-0.5,0.2-0.9,0.7-1.1,1.4l-0.1,0.2l-0.2-0.2c-0.1-0.1-0.2-0.1-0.3-0.2c-0.1,0-0.2-0.1-0.3-0.2c0,0.3,0,0.5-0.1,0.8
			c-0.1,0.5-0.2,0.9,0.2,1.3l0,0v0.3H41c-0.1,0-0.3,0-0.4,0l0,0c0.3,0.2,0.5,0.5,0.6,0.9c0.2,0.4,0.3,0.8,0.8,0.9h0.1v0.4L42,54.7
			c-0.2-0.1-0.6-0.1-0.8,0l0,0l0,0c0,0.1,0.1,0.1,0.2,0.1c0.1,0,0.2,0.1,0.3,0.1c0.2,0.1,0.4,0.3,0.6,0.5c0.2,0.3,0.5,0.5,0.8,0.6
			h0.1v0.1c0,0.2,0.1,0.4,0.2,0.6c0.1,0,0.2,0.1,0.2,0.1c0.2,0.1,0.5,0.2,0.7,0.1c0-0.1,0.1-0.1,0.1-0.1c0.1-0.1,0.1-0.1,0.1-0.1
			l0,0l0,0l0,0c-0.1-0.2,0-0.3,0.1-0.3l0,0l0,0c0.6,0,1.1,0.3,1.6,0.5C46.9,57.2,47.4,57.4,48.1,57.4z"/>
	</g>
	<g id="path200">
		<path fill="#FFD93C" d="M53.7,56.6L53.7,56.6L53.7,56.6c0.3,0,0.2,0.2,0.2,0.3l0,0c0,0.1,0,0.2,0,0.2l0,0h-0.1v0.2
			c-0.1,0.1,0.2,0.2,0.3,0.2c0,0.3,0.5,0.5,0.2,0.7c-0.6,0.1-1.2,0.3-1.6,0.8c-0.7,0.5-1.2,1.4-2.1,1.4c-0.5,0-1-0.3-1.4-0.7
			c-0.1-0.3-0.3-0.6-0.2-0.9c0.1-0.2,0.3-0.3,0.6-0.3s0.4,0.2,0.6,0.3c0.1-0.1,0-0.2,0-0.3c-0.1-0.2-0.3-0.4-0.5-0.5s-0.4,0-0.6,0.1
			c-0.2,0.1-0.2,0.2-0.4,0.2c-0.2-0.3-0.5-0.5-0.6-0.9l0.1-0.2c0.1-0.1,0.2-0.4,0.4-0.3c0.1-0.1-0.1-0.3,0-0.3c0,0,0,0,0-0.1
			c0,0,0-0.1,0-0.2l-0.1-0.2c0,0,0.3-0.2,0.5-0.2s0.1,0,0.4,0.1c0.2,0.1,0.4,0.1,0.5,0.1s0,0,0.1-0.2c0-0.2,0-0.4,0.2-0.5
			c0.1-0.1,0.2-0.1,0.2-0.1s0,0,0.1,0.2c0.1,0.1,0.3,0.1,0.4,0.3c0.1,0.2,0.2,0.3,0.2,0.3s0-0.2,0.1-0.4s0.1-0.3,0.3-0.3
			c0.1,0,0.2-0.1,0.2-0.1s0.1,0.1,0.1,0.4c0,0.3,0.1,0.5,0.2,0.5c0.1-0.1,0.1,0,0.2,0c0,0,0.1,0.1,0.2-0.2c0.1-0.3,0.1-0.5,0.3-0.4
			c0.1,0.1,0.3,0.2,0.3,0.4s0,0.4,0.1,0.4s0.2,0,0.3,0s0.2,0,0.3,0C53.5,56.6,53.7,56.6,53.7,56.6"/>
	</g>
	<g id="path202">
		<path d="M50.6,60.6C50.5,60.6,50.5,60.6,50.6,60.6c-0.6,0-1.1-0.3-1.5-0.7l0,0v-0.1c-0.1-0.3-0.3-0.6-0.1-0.9
			c0.1-0.2,0.2-0.4,0.7-0.4c0.2,0,0.4,0.1,0.5,0.2v-0.1c-0.1-0.2-0.2-0.3-0.4-0.4c-0.1-0.1-0.3,0-0.5,0.1h-0.1l-0.1,0.1
			c-0.1,0.1-0.1,0.1-0.3,0.2h-0.1v-0.1c-0.1-0.1-0.1-0.2-0.2-0.2c-0.2-0.2-0.4-0.4-0.4-0.8l0,0l0.1-0.3l0,0l0.1-0.1
			c0.1-0.1,0.2-0.2,0.3-0.2v-0.1c0,0,0,0,0-0.1l0,0v-0.1v-0.1l-0.1-0.3h0.1c0,0,0.3-0.2,0.5-0.2s0.2,0,0.3,0.1c0,0,0.1,0,0.1,0.1
			c0.1,0.1,0.3,0.1,0.3,0.1l0,0v-0.1v-0.1c0-0.2,0.1-0.4,0.2-0.5c0.1-0.1,0.2-0.1,0.2-0.1l0.2-0.1v0.2c0,0,0,0,0.1,0.1l0.1,0.1
			c0.1,0.1,0.2,0.1,0.3,0.3l0,0c0,0,0-0.1,0.1-0.1c0.1-0.2,0.2-0.3,0.3-0.4c0.1,0,0.1-0.1,0.1-0.1h0.1l0.1,0.1c0,0,0.1,0.1,0.1,0.5
			c0,0.2,0,0.3,0.1,0.3s0.1,0,0.1,0s0,0,0.1,0c0,0,0,0,0-0.1v-0.1c0.1-0.2,0.1-0.3,0.2-0.4c0,0,0.1,0,0.2,0l0,0
			c0.1,0.1,0.3,0.2,0.3,0.5c0,0.1,0,0.1,0,0.2v0.1c0.1,0,0.2,0,0.2,0c0.1,0,0.1,0,0.2,0h0.1c0.1,0,0.2-0.1,0.2-0.1l0,0l0,0
			c0,0,0.1,0,0.2,0c0,0,0.1,0,0.1,0.1c0.1,0.1,0.1,0.2,0,0.3l0,0l0.1,0.2H54c0,0,0,0,0,0.1l0.2,0.1h-0.3v0.1c0,0,0.1,0,0.1,0.1
			c0,0,0.1,0,0.1,0.1l0,0v0.1c0,0.1,0.1,0.1,0.1,0.2c0.1,0.1,0.2,0.3,0.1,0.4c0,0.1-0.1,0.2-0.2,0.2l0,0l0,0
			c-0.6,0.1-1.2,0.3-1.5,0.8l0,0c-0.2,0.1-0.4,0.3-0.6,0.5C51.7,60.2,51.2,60.6,50.6,60.6z M49.2,59.8c0.4,0.4,0.8,0.6,1.3,0.6
			c0.6,0,1-0.4,1.5-0.8c0.2-0.2,0.4-0.4,0.6-0.5c0.4-0.5,0.9-0.8,1.6-0.9l0,0c0,0-0.1-0.1-0.1-0.2c-0.1-0.1-0.1-0.2-0.2-0.3l0,0
			c-0.1,0-0.3-0.1-0.2-0.3v-0.2l-0.2-0.1l0.2-0.1l0,0h0.1l0,0v-0.1v-0.1l0,0v-0.1l0,0l0,0l0,0l0,0l0,0l0,0c0,0-0.2,0-0.2,0.1
			c-0.1,0-0.1,0-0.2,0h-0.1c-0.1,0-0.3,0.1-0.4,0c-0.2-0.1-0.2-0.2-0.1-0.4c0,0,0-0.1,0-0.2c0-0.1-0.1-0.2-0.2-0.3l0,0
			c0,0,0,0.1-0.1,0.2v0.1c-0.1,0.2-0.1,0.3-0.2,0.3c-0.1,0-0.1,0-0.2-0.1l0,0c-0.1,0-0.1,0.1-0.2,0c-0.1,0-0.2-0.1-0.2-0.6
			c0-0.1,0-0.2,0-0.2s0,0-0.1,0s-0.1,0.1-0.2,0.2c-0.1,0.2-0.1,0.3-0.1,0.3v0.3l-0.2-0.2c0,0-0.1-0.1-0.2-0.3c0-0.1-0.1-0.1-0.2-0.2
			c-0.1,0-0.1-0.1-0.2-0.1l-0.1-0.1c0,0-0.1,0-0.1,0.1c-0.1,0-0.1,0.2-0.1,0.3V56c0,0.1,0,0.1,0,0.1c0,0.1,0,0.1-0.1,0.2
			c-0.1,0-0.1,0-0.2,0c0,0,0,0-0.1,0s-0.2,0-0.4-0.1c-0.1,0-0.1-0.1-0.1-0.1c-0.1,0-0.1,0-0.1,0c-0.1,0-0.2,0.1-0.3,0.1v0.1
			c0,0.1,0,0.1,0,0.1l0.1,0.1l0,0l0,0c0,0.1,0.1,0.3,0,0.4L48.9,57h-0.1c-0.1,0-0.1,0-0.2,0.1l-0.1,0.1l-0.1,0.2
			c0,0.2,0.2,0.4,0.4,0.6c0.1,0.1,0.1,0.1,0.1,0.2c0,0,0,0,0.1-0.1c0,0,0.1-0.1,0.2-0.1l0,0h0.1c0.2-0.1,0.4-0.2,0.6-0.1
			c0.3,0.1,0.5,0.3,0.6,0.6l0,0l0,0v0.1c0,0.1,0,0.2-0.1,0.3L50.3,59l-0.1-0.1C50,59,50,59,49.9,59c-0.1-0.1-0.2-0.2-0.4-0.2
			c-0.3,0-0.4,0.1-0.5,0.2l0,0C48.9,59.2,49.1,59.5,49.2,59.8L49.2,59.8z M48.6,56.7L48.6,56.7L48.6,56.7z M48.6,56.7L48.6,56.7
			L48.6,56.7L48.6,56.7z M48.6,56.7L48.6,56.7L48.6,56.7L48.6,56.7z M48.6,56.5L48.6,56.5L48.6,56.5L48.6,56.5L48.6,56.5L48.6,56.5
			C48.7,56.6,48.6,56.5,48.6,56.5z"/>
	</g>
	<g id="path206">
		<path fill="#FFD93C" d="M60.7,52.1c-0.2,0-0.2,0.2-0.4,0.2c0.2-0.6,0.1-1.1,0-1.7c-0.1-0.2-0.1-0.6-0.4-0.4
			c-0.1,0.1-0.2,0.1-0.2,0.1c-0.1-0.5-0.2-0.9-0.6-1.2c-0.2-0.1-0.4-0.1-0.5-0.3c0.1-0.2,0.2-0.4,0.2-0.6c0-0.1-0.1-0.2-0.2-0.3
			c-0.1-0.2-0.4-0.3-0.6-0.3c-0.1,0-0.2,0.3-0.3,0.3l-0.2-0.5c-0.1-0.3,0-0.8,0-1.1c0.3,0,0.5,0.2,0.7,0l0,0l0,0
			c0.1-0.2,0.2-0.3,0.2-0.5c0-0.4-0.2-0.7-0.5-0.8l0,0c0.3-0.2,0.5-0.5,0.7-0.8c0.4-0.6,0.4-2.3-0.2-3.5c-0.3-0.5-0.7-1.1-1.1-1.5
			c-0.8-0.5-1.7-0.8-2.7-0.4c0,0-0.5-0.1-0.8,0.7l0,0c-0.1,0.1-0.2,0.3-0.2,0.4c0,0.4,0.3,0.7,0.7,0.7s0.7-0.3,0.7-0.7
			c0-0.1,0-0.2-0.1-0.4l0,0c1,0.2,1.5,0.6,2.3,2c0.6,1.1,0.3,1.9,0.1,2.2c-0.1-0.1-0.2-0.1-0.4-0.1c-0.4,0-0.8,0.3-0.8,0.8
			c0,0.4,0.3,0.7,0.6,0.8c-0.2,0.1-0.3,0.3-0.3,0.4c-0.2,0.3-0.4,0.9-0.2,1.7c0.1,1.2,0.8,1.6,1.2,1.8c-0.5,0-1,0.5-1,1
			c0,0.6,0.5,1,1,1c0.3,0,0.6-0.1,0.8-0.3c1,2.5-1.1,5-4.6,6l0.3,0.7c0.2-0.1,0.5,0,0.7,0c0.7-0.2,1.5-0.6,2.3-0.3
			c0.2,0.1,0.1,0.2,0.2,0.3c0.4,0,1.1,0.1,1.4-0.4c0.2-0.3,0.1-0.5,0-0.8L58.2,56c0.2-0.1,0.4-0.1,0.6-0.2c0.5-0.2,0.6-0.7,1-1
			c-0.2-0.2-0.4,0-0.6,0c-0.1-0.1-0.3-0.1-0.3-0.2c0.7-0.2,1.7-0.6,1.8-1.4C60.8,52.9,61.1,52.5,60.7,52.1"/>
	</g>
	<g id="path208">
		<path d="M53.7,57.5l-0.4-0.9h0.1c2.1-0.6,3.8-1.8,4.4-3.1c0.4-0.8,0.5-1.7,0.2-2.5c-0.2,0.2-0.5,0.2-0.7,0.2
			c-0.6,0-1.2-0.5-1.2-1.2c0-0.5,0.3-0.9,0.8-1.1c-0.4-0.3-0.8-0.8-1-1.7c-0.1-0.8,0-1.4,0.3-1.8c0.1-0.1,0.1-0.2,0.2-0.3
			c-0.3-0.1-0.5-0.5-0.5-0.8c0-0.5,0.4-0.9,0.9-0.9c0.1,0,0.2,0,0.3,0.1c0.2-0.3,0.3-1.1-0.2-2c-0.7-1.3-1.3-1.7-2-1.9
			c0,0.1,0,0.1,0,0.2c0,0.5-0.4,0.8-0.8,0.8c-0.5,0-0.8-0.4-0.8-0.8c0-0.2,0.1-0.4,0.2-0.5c0.3-0.8,0.8-0.8,0.9-0.8
			c0.8-0.3,1.8-0.2,2.8,0.4l0,0c0.5,0.4,0.8,1,1.2,1.6c0.6,1.3,0.5,3,0.2,3.7c-0.1,0.3-0.3,0.5-0.6,0.7c0.3,0.2,0.5,0.5,0.5,0.9
			c0,0.2-0.1,0.4-0.2,0.6v0.1c-0.1,0.2-0.3,0.1-0.5,0.1c-0.1,0-0.1,0-0.2,0c0,0.3-0.1,0.7,0,0.9c0,0,0.1,0.2,0.1,0.3
			c0.1-0.1,0.2-0.2,0.3-0.2c0.3,0,0.6,0.1,0.7,0.4c0.1,0.1,0.2,0.3,0.2,0.4c0.1,0.2,0,0.3-0.1,0.5c0,0,0,0.1-0.1,0.1
			c0.1,0.1,0.2,0.1,0.4,0.2h0.1c0.4,0.3,0.5,0.7,0.6,1.2l0,0l0,0l0,0c0.1-0.1,0.2-0.1,0.3,0c0.2,0.1,0.2,0.3,0.2,0.4v0.1l0,0
			c0,0.2,0,0.3,0,0.4c0,0.3,0.1,0.7,0,1c0.1,0,0.1-0.1,0.2-0.1h0.1l0,0c0.3,0.3,0.2,0.7,0.2,0.9c0,0.1,0,0.2-0.1,0.3
			C60.6,54,60,54.5,59,54.8c0,0,0.1,0,0.1,0.1c0.1,0,0.1,0,0.2,0c0.1,0,0.3-0.1,0.4,0.1l0.1,0.1l0.1-0.1c-0.1,0.1-0.2,0.2-0.3,0.4
			c-0.2,0.2-0.4,0.5-0.7,0.6c-0.1,0-0.2,0-0.2,0c-0.1,0-0.1,0-0.2,0c0.3,0.4,0.2,0.8,0,0.9c-0.2,0.5-0.8,0.4-1.2,0.4
			c-0.1,0-0.2,0-0.3,0h-0.1l0,0c-0.1-0.1-0.1-0.1-0.1-0.2c0-0.1,0-0.1,0-0.1c-0.5-0.2-1.1,0-1.6,0.1c-0.2,0.1-0.4,0.1-0.6,0.2
			c-0.1,0-0.3,0-0.4,0c-0.1,0-0.2,0-0.3,0L53.7,57.5z M53.6,56.7l0.2,0.5c0.1,0,0.2,0,0.3,0s0.3,0,0.4,0c0.2,0,0.4-0.1,0.6-0.2
			c0.6-0.2,1.2-0.4,1.8-0.1C57,57,57,57.1,57,57.2l0,0c0.1,0,0.1,0,0.2,0c0.4,0,0.8,0,1-0.3c0.1-0.2,0.1-0.4,0-0.7L58,56l0.2-0.1
			c0.1-0.1,0.3-0.1,0.4-0.1c0.1,0,0.1,0,0.2,0c0.3-0.1,0.4-0.3,0.6-0.5c0.1-0.1,0.1-0.2,0.2-0.3c0,0,0,0-0.1,0s-0.2,0-0.3,0l0,0
			c0,0-0.1,0-0.1-0.1c-0.1,0-0.2-0.1-0.2-0.2v-0.1H59c1-0.3,1.6-0.7,1.7-1.3c0-0.1,0-0.2,0.1-0.3c0.1-0.3,0.1-0.5-0.1-0.7l-0.1,0.1
			c-0.1,0.1-0.1,0.1-0.2,0.2l-0.2,0.1l0.1-0.2c0.1-0.4,0.1-0.8,0.1-1.2c0-0.1,0-0.3,0-0.4v-0.1c0-0.1,0-0.2-0.1-0.2c0,0,0,0-0.1,0
			c-0.1,0.1-0.1,0.1-0.2,0.1h-0.1l-0.2,0.1v-0.2c-0.1-0.4-0.2-0.9-0.5-1.1h-0.1c-0.2-0.1-0.4-0.1-0.5-0.3l0,0v-0.1
			c0-0.1,0.1-0.2,0.1-0.2c0.1-0.1,0.1-0.2,0.1-0.3s-0.1-0.2-0.2-0.3c-0.1-0.2-0.3-0.3-0.5-0.3L58,48.1c-0.1,0.1-0.1,0.2-0.2,0.2
			l-0.1,0.1L57.4,48c0,0-0.2-0.5-0.2-0.6c-0.1-0.3-0.1-0.8,0-1.1v-0.1h0.1c0.1,0,0.3,0,0.4,0.1c0.2,0.1,0.2,0.1,0.2,0l0,0l0,0
			c0.1-0.2,0.2-0.3,0.2-0.5c0-0.3-0.2-0.6-0.4-0.7l0,0l0,0l0,0V45l0.1-0.1c0.3-0.3,0.5-0.5,0.6-0.7c0.3-0.6,0.4-2.2-0.1-3.4
			c-0.3-0.5-0.7-1.1-1.1-1.5c-0.9-0.6-1.8-0.7-2.5-0.4l0,0l0,0c0,0-0.4-0.1-0.7,0.6l0,0c-0.1,0.1-0.1,0.2-0.1,0.4
			c0,0.3,0.3,0.6,0.6,0.6s0.6-0.3,0.6-0.6c0-0.1,0-0.2-0.1-0.3l-0.1-0.1l0.2-0.1l0,0c1.1,0.2,1.6,0.7,2.4,2c0.6,1.1,0.3,2,0.1,2.3
			l-0.1,0.1l-0.1-0.1c-0.1,0-0.2-0.1-0.3-0.1c-0.4,0-0.7,0.3-0.7,0.6s0.2,0.6,0.5,0.6l0.3,0.1L57,45.1c-0.1,0.1-0.2,0.2-0.3,0.4l0,0
			c-0.2,0.3-0.3,0.9-0.2,1.6c0.1,1.1,0.8,1.5,1.1,1.7V49c-0.5,0-0.9,0.4-0.9,0.9s0.4,0.9,0.9,0.9c0.3,0,0.5-0.1,0.7-0.3l0.1-0.1
			l0.1,0.2c0.4,1,0.3,2-0.1,2.9C57.4,54.9,55.8,56.1,53.6,56.7z"/>
	</g>
	<g id="path212">
		<path fill="#E2C89A" d="M63.5,55.6c-0.3,0.9,0.2,1.8-0.1,2.7c-0.2,0.6-0.2,1.3-0.2,1.9c-0.1,0.3-0.3,0.6-0.5,0.8
			c-0.4,0-0.8,0-1.2-0.2c0.2-0.7,0.2-1.5,0.2-2.2c-0.1-0.5-0.3-0.9-0.4-1.5c0-0.6,0.2-1.2-0.3-1.7v-0.7c0.6,0.4,1.6,0.4,2.2,0
			c0.2-0.1,0.2-0.2,0.4-0.2C63.8,54.9,63.5,55.3,63.5,55.6"/>
	</g>
	<g id="path214">
		<path fill="#E2C89A" d="M64.5,57.8c0-0.7,0.1-1,0-1.4s-0.2-1-0.1-1.2c0.1-0.3,0.2-0.4,0.2-0.4s0.3,0.4,0.7,0.4
			c0.4,0,0.7,0.1,0.7,0.1s-0.3,0.6-0.5,0.8c-0.2,0.3-0.2,0.6-0.4,0.6c-0.2,0.1-0.5,0.2-0.4,0.3s0.5,0.1,0.3,0.3
			C65,57.5,64.5,57.8,64.5,57.8"/>
	</g>
	<g id="path216">
		<path fill="#E2C89A" d="M68.1,60.7c0,0-0.6-0.3-1-0.6c-0.5-0.3-0.5-1-0.4-1.4s0.2-1.7,0.2-2.2s0-0.3,0.2-0.9
			c0.1-0.5-0.1-0.8-0.1-0.8s-0.5,1-0.7,1.4S65.9,56.9,66,57c0.2,0.1,0.4,0.4,0.4,0.4s0.2,0.2-0.1,0.2c-0.3,0-0.1-0.3-0.4,0.2
			s-0.8,2.1-0.8,2.1c0.5,0.1,1,0.4,1.6,1C66.7,61,67.8,60.8,68.1,60.7"/>
	</g>
	<g id="path218">
		<path fill="#E2C89A" d="M59.9,49.6c0,0,0.8,0.4,1.4,0.4c0.6,0.1,1.3,0.2,1.4,0.1c0.1,0,0.1,0,0.1,0s0.1-0.5,0.2-1.1
			c0.1-0.5,0.3-1.7,0.4-2.3c0.1-0.6,0.5-1.6,0.5-1.6h0.4c0,0,0.2,0.5,0.3,1.7c0.1,1.2,0.2,2.3,0.3,2.8c0.1,0.5,0,0.7,0.3,0.7
			c0.3-0.1,1.3-0.2,1.8-0.3s1.1-0.3,1.1-0.3s0.1,0.2-0.2,0.3c-0.3,0.1-0.7,0.2-0.7,0.2s-1.3,0.3-1.7,0.3c-0.3,0.1-0.7,0.2-0.8-0.6
			c-0.1-0.8-0.4-3.5-0.4-3.9s-0.2-0.8-0.2-0.8s-0.4,1-0.6,2.5c-0.2,1.5-0.4,2.4-0.4,2.4s-0.1,0.2-0.6,0.1c-0.5-0.1-1.3-0.1-1.9-0.3
			c0,0-0.4-0.1-0.5-0.2C60,49.9,59.9,49.6,59.9,49.6"/>
	</g>
	<g id="path220">
		<path fill="#E2C89A" d="M64,43.9v0.6c0,0-0.1,0.2-0.2,0.1c-0.1-0.1-0.3-0.2-0.2-0.3C63.7,44.1,64.1,43.8,64,43.9l-0.1-0.2
			l-0.6,0.4c0,0-0.2,0.6-0.4,0.9h-0.1c0,0,1.4,0.3,1.8,0.3l-0.1-0.5l-0.3-0.2l-0.1-0.7"/>
	</g>
	<g id="path222">
		<path fill="#E2C89A" d="M61.8,37.2c0,0,0.2,1.6,0.4,2.5s1.2,3.1,1.5,3.5s0.6,0.9,0.7,1.2c0.1,0.2,0.2,0.7,0.3,1
			c0.1,0.3,0.4,1.3,0.5,1.6c0.1,0.4,1.1,0,1.6-0.1c0.6-0.1,0.3-0.1,0.3-0.5c0-0.3-0.1-0.6-0.1-0.6c0.1-0.1,0.1-0.2,0-0.6
			c-0.1-0.4,0-0.3-0.3-1l-1.9,0.4c0,0-1.2-1.7-1.5-2.4c-0.3-0.6-1-2.5-1.1-3.6s-0.1-1.2-0.1-1.2"/>
	</g>
	<g id="path224">
		<path fill="#E2C89A" d="M64.2,43.7c1.2-1.2,2.3-3.1,2.5-6.1l-0.2-0.2c-0.3,3.5-1.1,4.7-2.3,6.1"/>
	</g>
	<g id="path226">
		<path fill="#E2C89A" d="M64.3,43.3c0-0.1,0.2-1.7,0.2-2.6c0-0.8-0.1-3-0.1-3l-0.2,0.1c0,0,0,0.1,0,0.3s0,0.9,0.1,1.8
			c0.1,0.9-0.2,3.3-0.2,3.3"/>
	</g>
	<g id="path228">
		<path fill="#E2C89A" d="M62.2,40l-0.6,0.2c0,0-0.5-0.9-0.8-1.5c-0.4-0.7-0.6-0.8-0.6-0.8l-0.3-0.4c0.1-0.1,0.2-0.1,0.2-0.1
			s0,0.2,0.2,0.4s0.4,0.4,0.7,1s0.7,1.1,0.7,1.1l0.4-0.1"/>
	</g>
	<g id="path230">
		<path fill="#E2C89A" d="M64.1,38.6c-0.2,0-0.2,0.1-0.5,0.5s-0.7,0.6-1.1,0.8v-0.3c0.3-0.2,0.4-0.2,0.8-0.6
			c0.3-0.4,0.5-0.6,0.8-0.7"/>
	</g>
	<g id="path232">
		<path fill="#E2C89A" d="M66.1,40.5c0,0,0.5,0.1,0.9-0.4s0.8-1,1-1.2s0.3-0.3,0.3-0.3s0.3-0.2,0-0.4c0,0-0.2,0.2-0.3,0.4
			c-0.2,0.2-0.3,0.4-1,1.1c-0.6,0.7-0.7,0.5-0.7,0.5"/>
	</g>
	<g id="path234">
		<path fill="#E2C89A" d="M64.4,38.2l1.6,2v-0.1l-0.1,0.3v0.1l-1.5-1.9"/>
	</g>
	<g id="path236">
		<path fill="#B8C5B8" d="M65.1,57.3c0,0,0.2-0.1,0.5-0.4c0.2-0.3,0.3,0,0.3,0l1.1-2.3l2.6-5.3L69.3,49L66,55.1c0,0-0.2,0.4-0.3,0.7
			c-0.2,0.3-0.2,0.1-0.3,0.4c-0.1,0.3,0,0.4-0.3,0.5s-0.3,0.4-0.2,0.5C65.1,57.2,65.1,57.3,65.1,57.3"/>
	</g>
	<g id="path238">
		<path fill="#B8C5B8" d="M70.1,47.3l1-1.7l0.2,0.2l-1,1.9C70.3,47.8,70.3,47.6,70.1,47.3"/>
	</g>
	<g id="path240">
		<path fill="#B8C5B8" d="M61,45.5l-0.4-0.1c0,0,0.1-0.2,0-0.7c0-0.5,0.1-0.8,0.2-1c0.1-0.3,0.4,0.1,0.4,0.1s0.3,0.3,0.9,0.1
			c0.7-0.3,1.1-0.8,1.1-0.8s0,0.9-0.2,1.4c-0.3,0.5-0.7,1.2-1.2,1.2C61.4,45.7,61,45.5,61,45.5"/>
	</g>
	<g id="path242">
		<path fill="#B8C5B8" d="M66.4,33.6c0,0,0.9,0,1.7,0c0.8,0,0-1-0.6-1.1c-0.7-0.2-1,0.2-1.5,0.3l-1.5,0.6c0,0,0.6,0.1,0.8,0.1
			S66.4,33.6,66.4,33.6"/>
	</g>
	<g id="path250">
		<path fill="#3F863F" d="M50.6,43.6c0.6-0.5,0.9-0.9,1.2-1.4s1.3-1,1.3-0.1c-0.1,0.9-0.4,2.1,0.6,1.4c1.1-0.7,1.7-1.2,1.8-0.4
			s0,0.8-0.2,1s-0.4,0.4-0.4,0.4s0-0.5,0-0.9c0-0.3-0.1-0.5-0.7,0.1c-0.6,0.6-1,0.8-1.3,0.8c-0.4-0.1-0.4,0-0.4,0l-0.3,0.3L52,44.6
			l0.3-0.4c0,0-0.3-0.2-0.1-1c0.2-0.7,0.4-1.5-0.1-0.8C51.6,43.1,51.6,43.3,50.6,43.6"/>
	</g>
	<g id="path252">
		<path fill="#FFD93C" d="M53.7,43.5c0.4-0.2,0.7-0.4,0.9-0.6c0.3-0.5,0.5-1,0.8-1.6c0.4-0.8-0.5-0.7-0.9-0.4s-0.9,0.7-1.5,1.3
			C53,43,52.7,44.2,53.7,43.5"/>
	</g>
	<g id="path254">
		<path fill="#FFD93C" d="M47.8,41.7L47.8,41.7L47.8,41.7"/>
	</g>
	<g id="path256">
		<path fill="#FFD93C" d="M47.5,41.4L47.5,41.4L47.5,41.4"/>
	</g>
	<g id="path258">
		<path fill="#FFD93C" d="M47.8,41.6L47.8,41.6L47.8,41.6"/>
	</g>
	<g id="path260">
		<path fill="#FFD93C" d="M47.8,41.7C47.7,41.7,47.7,41.7,47.8,41.7C47.7,41.7,47.7,41.7,47.8,41.7"/>
	</g>
	<g id="path262">
		<path fill="#FFD93C" d="M47.5,41.7L47.5,41.7L47.5,41.7L47.5,41.7"/>
	</g>
	<g id="path264">
		<path fill="#FFD93C" d="M47.5,41.8L47.5,41.8C47.5,41.7,47.5,41.7,47.5,41.8"/>
	</g>
	<g id="path266">
		<path fill="#FFD93C" d="M47.6,41.8L47.6,41.8"/>
	</g>
	<g id="path268">
		<path fill="#FFD93C" d="M47.7,42.5c-0.1-0.3-0.8-1-0.9-1.1c-0.1,0-0.2,0-0.2,0c0-0.1-0.2,0-0.2-0.1c-0.1,0.1-0.2-0.1-0.3,0l0,0
			l-0.1,0h-0.1l0,0l-0.3,0.2l0,0c-0.1,0.1-0.4,0.3-0.4,0.5l0,0c-0.1,0-0.1,0.1-0.2,0.1c0,0.1-0.1,0.1,0,0.2h-0.1l0.1,0.1l0,0h0.1
			v0.1l0,0L45,42.6h0.1H45h0.1c0,0-0.1,0.1,0,0.2c0,0.2,0,0.1,0,0.2l0,0c0,0.1,0.2,0,0.2,0.1c0.1,0,0.2,0.2,0.2,0V43
			c0.5,0.1,0.8,0.3,1,0.6c0.3,0.4,0.4,0.2,0.4,0.6c0,0.4,0,0.6,0,0.6s0.3,0.1,0.8-0.2s0.6-0.4,0.9-0.9C48.3,43.4,47.8,43,47.7,42.5"
			/>
	</g>
	<g id="path270">
		<path d="M34.1,62.5c-0.8-0.2-1.5-0.5-2.3-0.6c-0.1,0-0.1,0-0.1,0.1l0.1,0.1l0,0c0.2,0.2,0.3,0.6,0.2,0.9c-0.1,0.2-0.2,0.5-0.4,0.5
			c-0.4,0.2-0.8,0.1-1.2-0.1C30.1,63.3,30,63.2,30,63l0,0l0,0c0.1,0.1,0.3,0.2,0.5,0.3c0.4,0,0.8,0,1-0.3c0-0.1,0.1-0.2,0.1-0.4
			c-0.1-0.1,0-0.3-0.2-0.5c0-0.1-0.1-0.1-0.1-0.1l0,0c-0.1,0-0.1-0.1-0.2-0.1c-0.2,0-0.4,0.1-0.6,0.2c-0.2-0.3,0.3-0.3,0.4-0.5
			c0.2-0.1,0.5-0.2,0.8-0.1l0.4,0.1l0,0c0.1,0,0.2,0.1,0.3,0h-0.1c0.1,0-0.1,0-0.2-0.1c-0.2,0-0.5-0.1-0.7-0.1
			c-0.3,0-0.6,0.1-0.8,0.2c0-0.2,0.4-0.3,0.6-0.4c0.3-0.1,0.5,0,0.8,0l0,0c0.2,0.1,0.4,0,0.5,0.1c0,0,0,0.1,0.1,0h0.1
			c0.1,0.1,0.2,0.2,0.4,0.2c0.5,0.3,1,0.3,1.5,0.4c0.1-0.1,0.3-0.1,0.5,0c0,0,0,0.1-0.1,0.1c0,0,0,0-0.1,0l0.1,0.3
			c0.2,0.2,0.6,0.1,0.7,0.3c-0.4,0-0.9-0.1-1.4-0.1l-0.1,0.1"/>
	</g>
	<g id="path272">
		<path d="M32.3,60.4c0.1,0,0.1,0.1,0.2,0.1l0,0c0.1-0.1,0.2,0.1,0.3,0.1l0,0c0.1,0,0.3,0.1,0.4,0.2l-0.7-0.5
			c-0.3-0.1-0.7-0.5-0.8-0.8c0.1-0.1,0.4,0,0.5,0c0.4-0.1,0.6-0.6,0.6-0.9v-0.1l-0.2,0.1c-0.1,0-0.2,0-0.2,0.1l0,0
			c-0.1,0.1-0.3,0.2-0.4,0.2s-0.2,0.1-0.1,0.2c0.1,0,0.3,0,0.4-0.1c0.1,0,0.2-0.2,0.3-0.2l0,0C32.3,59,32,59,31.7,59.1
			c-0.1-0.1-0.3-0.1-0.3-0.3h-0.1l0,0c-0.1,0,0-0.1-0.1-0.1c0-0.1,0-0.2-0.1-0.2H31c0,0.1-0.1,0.2,0,0.3c0,0,0,0-0.1,0H31
			c0,0.1,0,0.1,0.1,0.2c-0.1,0.1,0.1,0.1,0.1,0.2l0,0l0.1,0.1l0,0l0.3,0.4c0.1,0,0.1,0.2,0.1,0.2C31.9,60,32.1,60.2,32.3,60.4
			L32.3,60.4"/>
	</g>
	<g id="path274">
		<path d="M31.3,59.6c0.1,0.1,0.1,0.3,0.3,0.3c0,0.2,0.3,0.2,0.3,0.4c-0.4-0.2-0.7-0.6-0.9-1c0-0.2-0.2-0.3,0-0.5
			C31.2,59.1,31.1,59.4,31.3,59.6"/>
	</g>
	<g id="path276">
		<path d="M64.7,62.5c0,0,0.2,0.4,0.9,0.2c0.7-0.1,1.8-0.3,1.8-0.3c0.4,0,0.6-0.2,1-0.2c0.5,0,1-0.3,1.5-0.2c-0.2,0.3-0.3,0.6-0.2,1
			c0.1,0.3,0.4,0.5,0.7,0.5c0.4,0.1,1,0,1.3-0.4c0.2-0.3,0.6-0.7,0.4-1.1c0-0.7-0.7-1.2-1.3-1.4c-0.2-0.1-0.3-0.1-0.4-0.2
			c0.3-0.3,0.7-0.7,0.7-1.2c0.1-0.5-0.2-1-0.5-1.5c-0.7-0.5-1.3-0.3-2,0.1c-0.1,0.3-0.4,0.6-0.2,1c0.1,0.2,0.4,0.4,0.6,0.4
			c0.2,0.1,0.4,0,0.6,0.1c0,0.1-0.1,0.3-0.2,0.3c-0.2,0.5-0.7,0.8-1.1,1.1c-1,0.3-1.6,0.3-1.6,0.3l-0.6,0.6c0.9-0.2,1.8-0.5,2.5-1
			l0,0c0.3-0.2,0.6-0.4,0.8-0.7c0.2-0.1,0.3-0.4,0.4-0.6c0-0.3,0.1-0.6-0.2-0.8c-0.1,0-0.1,0.1-0.1,0.2c0,0,0.1,0.1,0,0.2
			c0,0.1,0,0.1-0.1,0.2C69.3,59,69.2,59,69.1,59v-0.1c0.2-0.1,0.3-0.3,0.3-0.6c-0.1,0-0.1-0.1-0.2-0.1c-0.1,0.1,0,0.2,0,0.3
			c-0.1,0.1-0.2,0.3-0.4,0.2l0,0c-0.1-0.1-0.2,0-0.2,0s-0.2-0.2-0.3-0.3c0-0.3,0.2-0.7,0.5-0.9c0.5-0.2,1.1-0.1,1.5,0.3
			c0.1,0.1,0.3,0.4,0.4,0.6c0.1,0.3,0.1,0.7-0.1,0.9l0,0l-0.3,0.3c0-0.1,0.1-0.2,0.1-0.3l0,0c-0.1-0.1,0.1-0.4,0-0.5l0,0
			c0-0.3-0.1-0.6-0.2-0.8c0,0-0.1,0-0.1,0.1c0.1,0.6,0.1,1.3-0.3,1.7c0,0.1-0.1,0.2-0.1,0.3c0-0.1-0.2,0.1-0.2,0.2
			c0.1,0.2,0.4,0,0.6,0.1c0,0.1,0.1,0,0.2,0.1c0.5,0.2,1.2,0.5,1.3,1.1l0,0l0.1,0.1c0.1,0.4-0.1,0.7-0.4,1c-0.2,0-0.2,0.2-0.4,0.2
			c-0.3,0-0.7,0.1-0.9-0.1c-0.2-0.3-0.3-0.6-0.1-0.8l0.1-0.1l0,0c0.1-0.1,0.3-0.1,0.4-0.2c0.2,0.1,0.2,0.2,0.3,0.3
			c0,0.1,0,0.2,0,0.4c0.2,0,0.1-0.2,0.1-0.2c0-0.2-0.1-0.4-0.2-0.5c-0.6-0.3-1.1-0.1-1.7,0c-0.2,0-0.4,0.1-0.7,0.1l0,0
			C68.1,62,67.8,62,67.7,62c-0.3,0.1-0.7,0.2-1,0.2c-0.2,0.1-0.6,0.1-0.8,0.2c-0.3,0-0.8,0-1,0L64.7,62.5"/>
	</g>
	<g id="path278">
		<path d="M71.5,62.3L71.5,62.3L71.5,62.3L71.5,62.3c-0.2,0.3-0.3,0.6-0.5,0.7c-0.1-0.1-0.2-0.1-0.1-0.2c0.3-0.4,0.6-0.8,0.4-1.3
			v-0.1C71.5,61.7,71.6,62,71.5,62.3"/>
	</g>
	<g id="path280">
		<path d="M69.3,61.6c-0.1,0.1-0.4,0.1-0.5,0.1c-0.7,0-1.5,0.3-2.3,0.4c-0.2,0-0.4,0.1-0.7,0.1c-0.1,0-0.2,0.1-0.2,0
			c0.3,0,0.6-0.1,0.8-0.2C67.4,61.8,68.4,61.5,69.3,61.6L69.3,61.6"/>
	</g>
	<g id="path282">
		<path d="M62.4,61.1c-0.2-0.1-0.5-0.1-0.8-0.2c-0.2,0-0.4-0.1-0.6-0.2c-0.3-0.4-0.4-1-0.2-1.5h-0.1l0,0c-0.1,0-0.3,0.1-0.4,0.2
			c0,0-0.1,0.1,0,0.2c0,0.1-0.1,0.1-0.2,0.1c-0.4-0.4,0.1-0.8-0.1-1.2l0,0c-0.1,0.1-0.3,0.1-0.3,0.3c-0.1,0.1-0.2,0.2-0.2,0.1
			c-0.1-0.3,0.1-0.5,0.2-0.7c0.2-0.3,0-0.5,0.1-0.7l0,0c0,0.1-0.3,0.1-0.3,0.2c-0.2,0-0.3,0.2-0.5,0c0.1-0.1,0.2,0,0.2-0.1
			c0.2,0,0.5-0.2,0.6-0.4c0.1,0,0.1,0,0.1,0c0,0.2,0.1,0.4,0.1,0.5s-0.1,0.3,0,0.5c0.1,0,0.1-0.2,0.2-0.2c0.3,0.4,0.1,0.7,0.1,1.1
			h0.2c0.2,0,0.2-0.3,0.3-0.4l0.1,0.1c0.1,0.4-0.1,1,0.1,1.4c0.1,0.1,0.2,0.4,0.4,0.3L62.4,61.1L62.4,61.1"/>
	</g>
	<g id="path284">
		<path d="M60.9,62c-0.8,0-1.7-0.2-2.3,0.4c-0.2,0.2-0.1,0.3-0.2,0.5c-0.5,0.1-0.9-0.3-1.1-0.7c-0.1-0.3,0-0.6,0.2-0.8
			c-0.1-0.1-0.2,0.1-0.3,0.1c-0.5,0.2-0.6,0.7-0.6,1.2c-0.1,0.1-0.2,0.1-0.3,0.1s-0.2-0.2-0.2-0.2c-0.1,0-0.1,0-0.1,0.1
			c-0.1,0-0.2,0-0.3-0.1c-0.2-0.4-0.3-0.9,0-1.3c-0.2,0-0.3,0.2-0.4,0.3c-0.2,0.4-0.4,0.9-0.1,1.3c0.1,0.1,0.4,0,0.4,0.2
			c-0.2,0.3-0.5,0.4-0.9,0.4c-0.3-0.1-0.5-0.4-0.6-0.6c0.1,0.3-0.2,0.6-0.4,0.8l0,0c-0.1,0-0.1,0.1-0.2,0.1c0-0.4-0.2-0.7-0.3-1.1
			c-0.1-0.3-0.2-0.7,0-1c-0.4,0-0.8-0.1-1.1-0.2c-0.3-0.1-0.5-0.4-0.6-0.7c0.7,0,1.2-0.4,1.8-0.3c0.1,0,0.1,0.1,0.1,0.2h0.1
			c0-0.3-0.4-0.5-0.4-0.8c-0.1-0.2,0.1-0.4,0.2-0.6c0.1-0.1-0.1-0.2,0.1-0.2c0.2,0.2,0.4,0.3,0.6,0.5c0.2,0,0.1-0.4,0.4-0.5
			c0.2-0.1,0.2-0.4,0.3-0.6c0.5,0.2,0.6,0.9,0.8,1.4c0.4,0.4,0.8,0.4,1.4,0.3c0.1,0,0.3,0.1,0.4,0.1c-0.3-0.4-0.3-0.9-0.4-1.4
			c0-0.3-0.2-0.5-0.3-0.7c0.2-0.1,0.6-0.1,0.8,0c0.4,0.1,0.8,0.2,1,0.5c0-0.1,0-0.2,0.1-0.3c0.2-0.2,0.4-0.4,0.6-0.4
			c-0.2,0.1-0.2,0.1-0.4,0.2l0,0c-0.2,0.1-0.2,0.4-0.2,0.5c0.1,0.1,0.2,0.3,0.2,0.4c0,0.1-0.2,0.2-0.2,0.2c-0.4,0.1-0.2-0.4-0.4-0.5
			l0,0H58c-0.3-0.4-0.8-0.7-1.3-0.6c0.2,0.3,0.4,0.8,0.3,1.1c0,0.1,0,0.2,0.1,0.4s0.2,0.4,0.3,0.7c0.2,0.2,0.3,0.3,0.5,0.5
			c-0.2,0.1-0.3-0.2-0.5-0.2l0,0h-0.1c0,0,0,0,0-0.1h-0.1l0,0c-0.1,0-0.2,0-0.2-0.1c-0.4-0.1-0.8,0-1.1-0.1l0,0
			c-0.3,0-0.5-0.2-0.7-0.4c-0.4-0.3-0.3-0.9-0.6-1.2c-0.1,0.2-0.2,0.4-0.5,0.5c-0.1,0.1,0,0.2,0,0.3l0,0c0,0.1,0.1,0.2,0,0.3
			c-0.1,0.2-0.3,0.1-0.4,0l0,0c-0.2,0.1-0.1-0.2-0.3-0.2l0,0l-0.1-0.1l0,0h-0.1l0,0c0,0,0.1-0.1,0-0.1l-0.1,0.2c0,0.1,0,0.3,0.1,0.5
			s0.5,0.4,0.3,0.8c-0.1,0.1-0.2,0-0.3-0.1l0,0c-0.2-0.2-0.5-0.1-0.7-0.1c-0.2,0.1-0.5,0.2-0.7,0.3c0-0.1-0.2,0-0.1,0l0,0l0,0h0.1
			c0,0-0.1,0,0,0l0,0l0,0c0.1,0.1,0.2,0.2,0.3,0.2c-0.1,0,0-0.1-0.1-0.1c0.1-0.1,0.2,0.1,0.3,0.1c0.2,0.2,0.5,0.1,0.7,0.2
			c0,0,0.1,0.1,0,0.1c0.2,0.1,0.3,0,0.5,0.1c-0.1,0.1-0.1,0.2-0.2,0.1c-0.6,0.4,0.1,1.1,0.2,1.6c0.1,0,0.2-0.2,0.2-0.2
			c0-0.2,0.1-0.4,0.1-0.5s0.2-0.2,0.3-0.1c0,0.1,0,0.1,0,0.2c0.1,0.2,0.2,0.5,0.4,0.6c0.3,0.1,0.5,0.1,0.7-0.1
			c0-0.1-0.1-0.1-0.2-0.2c-0.3-0.2-0.4-0.6-0.3-0.9l0,0c0-0.4,0.4-0.7,0.8-0.8c0.4,0,0.6-0.3,1-0.3c0.1,0,0,0.1,0,0.1
			c-0.3,0.1-0.5,0.3-0.6,0.5l0,0c-0.2,0-0.1,0.2-0.2,0.3c-0.1,0.3-0.1,0.7,0.2,0.8c0-0.1,0.1-0.1,0.1-0.2c0.2-0.2,0.2,0.2,0.4,0.2
			c0.2-0.3-0.1-0.5,0.2-0.9c0.3-0.5,0.9-0.5,1.4-0.4c0.3,0.5-0.4,0.2-0.5,0.5c0,0.1-0.1,0.3,0,0.3c0.1,0.2,0.3,0.5,0.6,0.6
			c0.1-0.2,0-0.3,0.1-0.5c0.5-0.8,1.6-0.6,2.4-0.5l0.5,0.1L60.9,62"/>
	</g>
	<g id="path286">
		<path d="M39.6,61.8c0.2,0.1,0.2-0.1,0.4-0.2c0.3,0,0.6,0.2,0.8,0c0,0,0,0,0,0.1c0.3-0.1,0.6,0,0.9,0.1c0.2,0.2,0.6,0.3,0.6,0.5
			c-0.1,0-0.2,0-0.2,0l0,0c-0.1-0.1-0.2-0.1-0.2-0.2c0,0.1-0.1,0-0.1,0l0,0l0,0l0,0h-0.1c0,0,0,0,0-0.1c-0.2,0.1-0.3-0.1-0.5,0
			c0.3,0.1,0.6,0.2,0.9,0.4v0.1h0.1c0,0.1,0.2,0.2,0.1,0.3C41.8,62,40.7,62,40,62l0,0"/>
	</g>
	<g id="path288">
		<path d="M57.7,58.9c0.3,0.5,0.7,1.2,1.3,1.5c-0.1,0-0.2,0-0.3-0.1c0-0.1-0.2-0.1-0.3-0.2c-0.2-0.2-0.4-0.5-0.5-0.7
			c-0.3-0.2-0.4-0.6-0.6-0.8C57.4,58.5,57.6,58.8,57.7,58.9"/>
	</g>
	<g id="path290">
		<path d="M59.3,60c0.2,0.2,0.3,0.4,0.5,0.6c0-0.2-0.1-0.2-0.1-0.4c-0.1-0.2-0.1-0.4-0.1-0.6c0.1,0.4,0.2,1.1,0.7,1.3
			c0-0.2-0.1-0.4-0.1-0.6h0.1c-0.1,0.2,0.1,0.4,0.2,0.6c0.2,0.1,0.4,0.3,0.6,0.3c-0.1,0.2-0.3,0-0.5,0c-0.1-0.1-0.2,0-0.3-0.1
			c-0.4-0.1-0.7,0-1.2,0.1H59c0.3-0.2,0.7-0.2,1-0.2c0-0.1-0.1-0.2-0.2-0.2c0,0.1-0.1,0-0.2-0.1c-0.1-0.1-0.3-0.2-0.4-0.4l0,0
			C59.1,60.2,59,60,59,59.9c-0.1-0.3-0.1-0.5,0-0.8C59.1,59.4,59.2,59.7,59.3,60"/>
	</g>
	<g id="path292">
		<path d="M54.7,59.9l0.3,0.3l0,0c0.3,0.4,1.1,0.4,1.5,0.3c0,0,0,0,0,0.1c-0.3,0.1-0.5,0-0.8,0.1l-0.1,0.1v-0.1
			c-0.1,0.1-0.4,0.1-0.6,0.2c0,0.1-0.1,0.1-0.2,0.3l0,0c-0.1,0-0.2,0.2-0.3,0.3l0,0c-0.1,0.1-0.2,0.3-0.2,0.4c0,0.2,0.1,0.4,0,0.5
			c-0.2,0-0.1-0.3-0.2-0.4c0-0.2,0.2-0.3,0.1-0.5l0,0l0.1-0.1l0,0c0.1,0,0.1-0.1,0.1-0.1c0.1-0.2,0.3-0.2,0.3-0.4
			c-0.2,0.1-0.5,0.2-0.7,0.2c-0.2-0.1-0.2,0-0.3-0.1l0,0c0.1-0.1,0.5,0,0.7-0.1c0.1-0.1,0.3,0,0.4-0.2v0.1c0,0,0.1,0,0.1-0.1
			c-0.1,0-0.2-0.1-0.3-0.1c0-0.1-0.1,0-0.2-0.1c-0.2-0.1-0.3-0.2-0.5-0.2c0-0.1-0.2-0.1-0.2-0.1c-0.1-0.1,0-0.1,0-0.1
			c0.1,0.1,0.3,0.2,0.4,0.2c0.4,0.2,0.9,0.5,1.3,0.3c-0.2,0-0.3-0.3-0.4-0.3c0-0.1,0-0.1-0.1-0.1l0,0C54.8,60.2,54.7,60,54.7,59.9
			L54.7,59.9L54.7,59.9L54.7,59.9"/>
	</g>
	<g id="path294">
		<path d="M58,61.4C58,61.5,57.9,61.5,58,61.4h-0.2C57.8,61.3,57.9,61.3,58,61.4"/>
	</g>
	<g id="path296">
		<path d="M50.3,61.6c0,0.1,0,0.2-0.1,0.3c-0.3-0.2-0.6-0.2-1-0.2C49,62,49.6,62,49.6,62.4c0,0.2,0,0.6-0.2,0.8
			c-0.1-0.1-0.1-0.1-0.2-0.2c-0.2-0.1-0.3,0.1-0.4,0.2c-0.1,0.2,0,0.3,0,0.5c0.1,0.1,0.2,0.4,0.4,0.4c0.5,0.3,0.8-0.2,1.2-0.4
			c0.2,0.1,0.4,0.2,0.5,0.4c0.2,0,0.3-0.4,0.6-0.4c0.2,0.2,0.6,0.4,0.9,0.4c0.2,0,0.4-0.2,0.5-0.3c0-0.2,0.1-0.4,0-0.5
			c-0.1-0.2-0.3-0.2-0.4-0.2c-0.1,0-0.2,0.2-0.4,0.1c-0.1-0.4,0-0.8,0.1-1.2c-0.3,0-0.6,0.1-0.9,0.3c-0.1-0.1-0.1-0.2-0.1-0.3
			c-0.1-0.2-0.3-0.4-0.5-0.6C50.6,61.2,50.5,61.4,50.3,61.6L50.3,61.6l0.4-0.3c0.2,0,0.2,0.1,0.3,0.2c0,0.2,0.1,0.5,0.1,0.8
			c0.1,0.2,0.1,0,0.2,0c0.2-0.2,0.5-0.4,0.8-0.5c0,0.4-0.3,0.9,0,1.2v0.2c-0.3-0.1-0.2-0.5-0.3-0.7c-0.3,0.1,0,0.4-0.1,0.6
			c0,0.1,0.1,0.2,0.2,0.3H52l0,0l0.1,0.1c0.1-0.1-0.1-0.3,0.2-0.3l0,0c0,0,0.2-0.2,0.3,0c0.1,0,0.1,0.1,0.1,0.1
			c-0.1,0-0.2-0.2-0.3,0c0.1,0.1,0.2,0.3,0.2,0.4c-0.2,0.1-0.4,0.3-0.7,0.2c-0.1,0-0.3,0-0.4-0.1c0-0.2-0.3-0.4-0.3-0.7
			c-0.1-0.1-0.1,0-0.2,0c0,0.2,0,0.2,0.1,0.4l0,0c0.3,0.2-0.2,0.4-0.3,0.6c-0.2,0-0.2-0.1-0.3-0.2c-0.1-0.3,0.2-0.5,0.1-0.8
			c-0.2-0.1-0.3,0.3-0.5,0.2c-0.1,0-0.1,0.1-0.2,0.1c-0.1,0.3-0.3,0.5-0.6,0.6l0.1,0.1c-0.2,0-0.2,0-0.4,0c-0.1,0-0.2-0.2-0.2-0.3
			s0.1-0.2,0.1-0.4c0.1-0.1,0.3,0,0.3,0.2c0,0.1,0.1,0.1,0.2,0c0,0,0-0.1,0.1-0.1l0,0c0.1-0.1,0.2-0.3,0.2-0.4
			c0.1-0.3,0-0.6-0.3-0.8l-0.1-0.1c0.2-0.1,0.5,0,0.7,0.1c0.2,0,0.2,0.4,0.5,0.2C50.4,62,50.4,61.8,50.3,61.6L50.3,61.6"/>
	</g>
	<g id="path298">
		<path d="M38.3,61.2c0.8-0.1,1.4,0.1,2.1-0.2c0.6-0.2,1-0.8,1-1.5c0.1,0,0.2-0.1,0.3,0c0.1,0.2,0.1,0.2,0.2,0.3v0.1h0.2
			c0.1-0.1-0.1-0.3,0-0.4c-0.1-0.1-0.1-0.1-0.2-0.2c-0.2-0.2-0.6-0.4-0.9-0.4c0-0.2,0.2-0.2,0.3-0.3c0.1,0,0.1-0.1,0.2,0
			c0,0,0,0.1,0.1,0h0.1l0,0h0.1l0,0h0.1c0.1,0,0.2,0.2,0.3,0.3c0.1,0,0.1,0,0.2-0.1c-0.4-0.4-0.4-1-0.3-1.5c0.2,0.2,0.6-0.1,0.8,0.3
			c0.2,0.1,0.1,0.4,0.3,0.5l0.1-0.1l0,0c0.1-0.1,0.2-0.3,0.4-0.2c0.1,0,0.2-0.1,0.3-0.1s0.2-0.1,0.3,0c0,0-0.1,0-0.1,0.1
			s-0.1,0.1-0.1,0.1l0,0c-0.1-0.1-0.2,0-0.2,0.1l0,0c0,0.1-0.1,0.1-0.1,0.1h0.1c-0.2,0.3-0.1,0.5-0.1,0.8c0.1,0.2,0,0.5-0.1,0.6
			c0,0.1-0.1,0.1-0.1,0.1s0,0.1,0.1,0.1c0.1,0.1,0.1-0.1,0.2-0.1v0.1c-0.1,0,0,0.1-0.1,0.1c-0.1,0.2-0.4,0.2-0.5,0.5
			c0.2,0.2,0.3-0.1,0.5-0.1c0.8-0.1,1.8-0.2,2.3-1c0.2-0.2,0.1-0.5,0.2-0.7c0.2,0.1,0.4,0.3,0.5,0.5c0.1,0.1,0,0.1,0,0.2l0,0
			c-0.1,0.1-0.5,0.3-0.4,0.5c0.1,0,0.1-0.2,0.3-0.2c0.1-0.1,0.4-0.2,0.6-0.3c0.1,0,0.2-0.1,0.3-0.1s0.2-0.2,0.2,0s0,0.2,0,0.4
			c-0.1-0.1,0.1-0.3-0.2-0.2l0,0c0,0,0,0.2,0,0.3s0,0.1,0,0.2l0,0c0.1,0,0.2-0.2,0.2-0.2c0.1,0-0.1,0.2,0,0.2c-0.1,0,0,0.1-0.1,0.1
			l0,0c-0.2,0.2-0.8,0.3-0.6,0.7c0.1,0.1,0.2,0.4,0.4,0.2c0.2-0.1,0.1-0.2,0.1-0.4l0,0c0.3-0.1,0.8,0.1,1,0.2l0,0
			c0.1,0.2,0.4,0.2,0.5,0.3l0,0l0.8,0.3c-0.3,0.1-0.5,0.3-0.8,0.3c-0.1,0.1-0.2,0-0.3,0.1l0,0c-0.2,0.1-0.5,0.1-0.7,0
			c-0.1,0-0.1,0.1-0.2,0.1c0,0.1,0.2,0.2,0.2,0.3l0,0c-0.2,0.1,0,0.3-0.1,0.5c-0.1,0.4-0.3,0.5-0.3,0.9c0,0.1,0.1,0.1,0.1,0.1
			c0.2-0.1,0-0.3,0.1-0.5c0.1,0,0.1-0.1,0.1-0.2l0.1-0.2c0-0.1,0-0.2,0.1-0.2c0.1,0.4-0.1,0.7-0.3,1c0.1,0,0,0.1,0,0.1
			c-0.1,0.1,0,0.2,0,0.3c-0.4-0.2-0.7-0.7-0.7-1.2c-0.2-0.1-0.3,0.1-0.4,0.2l0,0c-0.1,0-0.1,0.1-0.1,0.1l0,0c0.1,0,0-0.1,0.1-0.1
			c-0.1-0.1-0.2,0-0.2,0c-0.2,0.1-0.4,0.2-0.6,0.1c0-0.1,0.1-0.2,0.2-0.3l0,0c0.1-0.2,0.1-0.4,0-0.7c-0.2-0.4-0.7-0.4-1-0.5
			c0-0.1-0.1-0.1-0.1-0.1l0,0c0,0-0.1,0-0.1-0.1l0,0h-0.1l0,0c-0.1-0.1-0.2-0.1-0.2-0.1c-0.1,0-0.2,0-0.2,0c0,0.1-0.2,0.1-0.2,0.1
			s0-0.1-0.1-0.1c0,0-0.1,0.1-0.1,0c-0.1,0,0,0-0.1,0.1c0,0.2,0.2,0.2,0.3,0.3c0.1,0,0.2-0.1,0.2-0.1c0.1,0.1,0.3,0.3,0.2,0.5
			c-0.1,0.1-0.1,0.4-0.1,0.5c-0.1,0.2-0.3,0.3-0.1,0.5c-0.1,0-0.1,0.1-0.1,0.1c0-0.3-0.2-0.5-0.2-0.8c-0.1,0-0.2-0.2-0.4-0.2
			c-0.4-0.2-0.9,0-1.5-0.1c-0.1,0.1,0,0.1,0,0.1h0.1l0,0c0.4,0.1,0.5,0.4,0.6,0.6c0,0.1-0.1,0.2-0.2,0.3c0.1-0.1,0-0.3,0-0.3
			c-0.1,0.2-0.2,0.3-0.4,0.5c-0.1,0.1-0.1,0.1,0,0.1l0,0c0,0.1-0.3-0.1-0.3,0.1c0.1,0.2,0.4,0.1,0.5,0.1c0.3-0.1,0.5-0.4,0.6-0.8
			c0-0.2-0.1-0.4-0.1-0.6c0.3,0,0.9-0.1,1,0.4c0.1,0.2,0.1,0.5,0.1,0.7c0.2,0.1,0.4,0.1,0.6,0c0.2-0.1,0.2-0.2,0.4-0.3l0,0
			c0.1,0,0.1-0.1,0.1-0.2c0-0.2,0-0.5,0-0.7c0.2-0.1,0.5,0.1,0.7,0.3c0.2,0.4-0.3,0.8-0.1,1.2c0.2,0.1,0.4,0.2,0.6,0.1
			c0.3,0,0.5-0.4,0.8-0.4c0.2,0.4,0.5,1,1,1c0-0.7,0.7-1.2,0.3-1.9c0.6,0,1.2-0.2,1.6-0.7c0-0.2-0.2-0.1-0.2-0.1
			c-0.7-0.2-1.2-0.7-1.9-0.9c0.4-0.4-0.1-1,0.1-1.5c0,0-0.1-0.1-0.1,0c-0.2,0.3-0.6,0.5-0.9,0.6c0-0.3-0.3-0.7-0.6-0.8
			c-0.2,0.1-0.3-0.2-0.4,0c0.2,0.4,0.1,0.8-0.2,1.1c-0.4,0.4-0.9,0.5-1.4,0.6h-0.4c0.1-0.2,0.2-0.5,0.4-0.7l0.1-0.3l0,0
			c0-0.5-0.2-1,0.1-1.5c-0.5-0.1-1,0.1-1.4,0.4c-0.1-0.2-0.2-0.4-0.4-0.5c-0.2,0-0.5,0-0.7-0.2c-0.2,0,0,0.3-0.1,0.5
			c0,0.2-0.1,0.6,0.1,0.8c-0.2,0-0.4-0.1-0.6-0.1c-0.2,0.1-0.3,0.2-0.5,0.2l-0.1,0.4c0,0,0.3,0.1,0.4,0.2c0.1,0,0.1,0,0,0.4
			s-0.2,1-0.9,1.3s-1.5,0.2-2.1,0.3s-0.2,0-0.2,0L38.3,61.2"/>
	</g>
	<g id="path300">
		<path d="M43,59.4L43,59.4c-0.1,0,0,0.3-0.1,0.3c0,0,0,0,0.1,0c0-0.2,0.2,0,0.2-0.2c0.1,0,0.1-0.1,0.1-0.2l0,0
			c0.1-0.1,0.1-0.2,0.1-0.2c0.1-0.1,0.1-0.3,0.2-0.5l0,0c0.1,0,0.1-0.1,0.2-0.1c0.1,0.1,0,0.1,0,0.2c-0.2,0,0,0.2-0.2,0.2
			c0.1,0-0.1,0.1,0,0.1s-0.1,0,0,0.1c0,0.1-0.2,0.2-0.1,0.3c-0.1,0.3-0.4,0.4-0.6,0.7c-0.3,0.2-0.4,0.4-0.7,0.4
			c0.1,0.2,0.4,0.1,0.7,0.1s0.7,0,1,0.1c0,0.2-0.1-0.1-0.2,0.1l0,0h-0.2l0,0c-0.1,0.1-0.1,0-0.2,0c-0.2,0-0.5,0-0.7,0l-0.1,0.1
			c-0.1-0.1-0.1,0.1-0.2,0c0,0,0-0.1-0.1,0h-0.1c0,0.1,0.1,0,0.1,0c-0.4,0-0.3,0.1-0.6,0.1c-0.1,0.1-0.2,0-0.2,0.1L41.3,61
			c0,0.1-0.1,0-0.2,0.1c0.4,0.1,0.8,0.2,1.1,0.4c0.1,0.2,0.4,0.2,0.2,0.4c-0.1-0.2-0.4-0.4-0.6-0.5c-0.4-0.1-0.9-0.3-1.3-0.2
			c-0.2,0-0.4,0-0.7,0c-0.1-0.1,0.1-0.1,0.1-0.2c0.3,0,0.6-0.2,0.8-0.2c0.2-0.1,0.4-0.2,0.5-0.3c0-0.1,0.3-0.1,0.2-0.3
			c0.2-0.2-0.2-0.3,0-0.5h0.1c0.1,0.2,0.1,0.2,0,0.5l-0.1,0.2c0,0.1-0.1,0-0.1,0.1c0,0,0,0-0.1,0.1c0.1,0.1,0.2,0,0.3-0.1
			c0,0,0,0,0,0.1v-0.1c-0.1,0-0.1-0.1,0-0.1c0.3-0.2,0.7-0.4,0.7-0.8c0,0,0,0,0.1,0h-0.1c0.1,0,0-0.1,0.1-0.1c0,0,0-0.1-0.1-0.1
			c0,0,0,0,0.1,0l0,0c-0.1,0,0,0,0,0l-0.1-0.1l0,0c0-0.1-0.1-0.1-0.2-0.2c0.1,0,0,0,0.1-0.1c0.1,0,0.2,0.1,0.3,0.2
			c0.1,0.2,0.1,0.2,0.1,0.4c0.1,0,0.1-0.1,0.1-0.2c0.1-0.1,0.1-0.2,0.1-0.3c0-0.2,0-0.3,0-0.5h-0.1c0.1-0.1-0.2-0.3,0-0.3
			C43.1,58.6,43.1,59.2,43,59.4"/>
	</g>
	<g id="path302">
		<path d="M46.2,59.6c0,0.2-0.2,0.2-0.2,0.3l0,0c-0.1,0.1-0.1,0.2-0.1,0.2c-0.1,0.1-0.1,0.1-0.1,0.2c0.1,0.1,0.2-0.1,0.3-0.1
			c0.2-0.2,0.4-0.3,0.6-0.4c-0.1,0.2-0.4,0.2-0.5,0.4c-0.2,0.1-0.4,0.2-0.5,0.3c0.2,0.2,0.4,0.2,0.6,0.4l0,0
			c0.2,0.2,0.4,0.4,0.3,0.6c-0.3,0-0.1-0.2-0.3-0.3c-0.1-0.2-0.4-0.2-0.5-0.5h-0.1l0,0c-0.1-0.1-0.3-0.2-0.5-0.2l-0.1-0.1
			c0-0.1,0-0.1,0.1-0.2c0.2,0,0.3-0.1,0.4-0.1c0.2-0.2,0.2-0.4,0.3-0.6l0,0C45.9,59.7,46,59.5,46.2,59.6"/>
	</g>
	<g id="path304">
		<path d="M47.5,60.4C47.5,60.4,47.5,60.5,47.5,60.4c-0.1,0.1-0.2,0.1-0.2,0C47.4,60.4,47.5,60.4,47.5,60.4"/>
	</g>
	<g id="path306">
		<path d="M42.1,60.8L42.1,60.8C42,60.7,42,60.8,42.1,60.8L42.1,60.8L42.1,60.8L42.1,60.8"/>
	</g>
	<g id="path308">
		<path d="M48.9,61.1c-0.2,0.1-0.5,0-0.6,0l0,0h-0.1l0,0c-0.2-0.1-0.6-0.1-0.9,0h-0.1c0,0.2,0.3,0.4,0.4,0.5
			c0.1,0.2,0.2,0.3,0.2,0.5h-0.1c-0.1-0.1-0.2-0.4-0.2-0.4l-0.2-0.1l0,0c-0.1,0-0.1-0.1-0.2-0.1l0,0c-0.1-0.1-0.2-0.2-0.4-0.3l0,0
			c-0.1,0-0.1-0.1-0.3-0.1c0-0.1,0,0,0-0.1c0.2-0.2,0.5,0.1,0.7-0.1C47.9,60.7,48.4,61,48.9,61.1"/>
	</g>
	<g id="path318">
		<path d="M55.3,41.1L55.3,41.1L55.3,41.1L55.3,41.1L55.3,41.1L55.3,41.1"/>
	</g>
	<g id="path340">
		<path d="M54.8,41.3L54.8,41.3L54.8,41.3L54.8,41.3L54.8,41.3"/>
	</g>
	<g id="path348">
		<path d="M54.9,42L54.9,42L54.9,42L54.9,42"/>
	</g>
	<g id="path354">
		<path d="M56.8,43.9L56.8,43.9L56.8,43.9"/>
	</g>
	<g id="path358">
		<path d="M37.8,34.1c0.2-0.2,0.3-0.3,0.4-0.4c0.1-0.1,0.1,0,0.1,0v0.2c0,0-0.1,0-0.3,0.1C37.9,34,37.8,34.1,37.8,34.1"/>
	</g>
	<g id="path360">
		<path d="M38.1,34.1c0.2-0.1,0.4,0.1,0.2,0.1S38,34.2,38.1,34.1L38.1,34.1"/>
	</g>
	<g id="path362">
		<path d="M38.5,35C38.4,34.8,38.6,34.8,38.5,35L38.5,35"/>
	</g>
	<g id="path366">
		<path d="M36.5,33.8L36.5,33.8L36.5,33.8L36.5,33.8"/>
	</g>
	<g id="path370">
		<path d="M35.9,33.8L35.9,33.8C35.8,34,35.8,33.7,35.9,33.8"/>
	</g>
	<g id="path372">
		<path d="M36,34.4L36,34.4L36,34.4L36,34.4C36,34.3,36,34.3,36,34.4"/>
	</g>
	<g id="path376">
		<path d="M36.7,34.6L36.7,34.6L36.7,34.6L36.7,34.6L36.7,34.6"/>
	</g>
	<g id="path396">
		<path d="M36.4,34.8L36.4,34.8h0.2H36.4"/>
	</g>
	<g id="path404">
		<path d="M35.4,35.1L35.4,35.1L35.4,35.1L35.4,35.1"/>
	</g>
	<g id="path408">
		<path d="M35.5,34.9L35.5,34.9L35.5,34.9C35.5,34.8,35.5,34.9,35.5,34.9"/>
	</g>
	<g id="path412">
		<path d="M63.6,34.2c0,0-0.2-0.1-0.4-0.1S63,34.2,63,34.2l0.1,0.1l0.2-0.1H63.6"/>
	</g>
	<g id="path414">
		<path d="M63.2,34.5c0.1-0.1,0.2,0,0.2,0c0.1,0,0.1,0.1,0.1,0.1s0,0-0.1,0S63.2,34.7,63.2,34.5L63.2,34.5"/>
	</g>
	<g id="path426">
		<path d="M66.2,35.8c-0.1,0-0.1,0.1-0.2,0.1C66.1,35.9,66.1,35.8,66.2,35.8"/>
	</g>
	<g id="path428">
		<path d="M64.9,34.5L64.9,34.5L64.9,34.5L64.9,34.5"/>
	</g>
	<g id="path512">
		<path fill="#46B3B3" d="M34.2,62.5c0.1,0.2,0.2,0.4,0.1,0.6c-0.1,0,0,0.1-0.1,0.1c0,0.1-0.1,0.1-0.2,0.2l0,0
			c-0.2,0.3-0.8,0.1-0.8,0.5c0,0.3-0.2,0.3-0.2,0.6c-0.2,0.2-0.3,0.5-0.5,0.6c0.2,0.1,0.6,0.3,0.8,0.2l0,0c0.2,0,0.3-0.1,0.4-0.1
			c0.1,0.1,0.2-0.1,0.3-0.1c0-0.1,0.1-0.1,0.1-0.2c0.2-0.3,0.7-0.3,0.9-0.6l0,0c0.1-0.1,0.2-0.2,0.3-0.4c0.1,0,0.1,0,0.1,0.1
			c0,0.2,0,0.4,0.1,0.6c0.3,0.3,0.8,0.5,0.8,1c0,0.1,0.1,0.1,0.2,0.1c0.2-0.2,0.7-0.5,0.7-0.9c0-0.2-0.1-0.5-0.1-0.7
			c-0.2-0.2-0.1-0.4-0.3-0.6l0,0c-0.1,0,0-0.1-0.1-0.1c0,0,0.1,0,0.1-0.1l0,0c-0.1,0,0,0,0,0c-0.1-0.1,0-0.3,0-0.4l0.1,0.1
			c-0.1,0.2,0,0.3,0,0.5c0.1,0.2,0.3,0.4,0.3,0.7c0.2,0.4,0.2,0.8,0.1,1.2c-0.2,0.4-0.7,0.5-0.9,0.8c-0.2-0.4-0.1-1-0.6-1.3
			c-0.2,0-0.3-0.3-0.5-0.4c0,0.1-0.2,0.1-0.2,0.2c-0.5,0.3-0.9,0.4-1.3,0.8c-0.4,0.2-1,0.3-1.4,0l-0.2-0.3c1.2-0.2,0.5-1.9,1.8-1.9
			c0.1-0.1,0.2-0.2,0.2-0.3c0-0.2-0.1-0.4-0.2-0.6"/>
	</g>
	<g id="path514">
		<path fill="#46B3B3" d="M64,63c0.2,0.3,0.1,0.8,0,1.1c-0.5,0.7-0.8,1.7-0.3,2.5c0.4-0.8,1.6-0.9,2-1.7l0,0l0.1-0.1l0.2,0.1
			c0.6,0.1,1.1,0.7,1.4,1.1c0.1,0.1,0.1,0.3,0.2,0.3c0.2-0.4,0.5-0.6,0.4-1c0.1-0.2,0-0.5-0.1-0.7s-0.2-0.4-0.2-0.6
			c-0.3-0.3-0.3-0.7-0.3-1c0-0.2-0.1-0.5,0-0.6L67,62.6c0,0.6-0.1,1.1,0.4,1.8c0.2,0.4,0.3,1.1,0,1.4c-0.1-0.1-0.2,0.1-0.2,0
			c0-0.4-0.5-0.4-0.7-0.7l0,0c-0.1,0-0.2-0.2-0.3-0.2l0,0c-0.2,0-0.2-0.2-0.3-0.2v-0.1l0,0c-0.1,0,0.1,0,0,0l-0.1-0.1l0,0
			c-0.1,0,0-0.3-0.2-0.2c-0.1,0.1-0.1,0.2-0.1,0.3l-0.1,0.1h0.1c0,0,0,0-0.1,0c0,0,0.1,0.1,0,0.2c-0.1,0-0.1,0.1-0.2,0.1l0,0
			c-0.2,0.2-0.3,0.4-0.6,0.5c-0.2,0.1-0.3,0.2-0.5,0.4c-0.2,0-0.1,0.1-0.2,0.2l0,0c-0.2,0-0.1,0.1-0.2,0.2c-0.2-0.5-0.1-0.7,0-1.1
			c0.1-0.2,0.2-0.4,0.3-0.6l0,0h0.1c-0.1-0.1,0.2-0.4,0.2-0.6c0.3-0.5-0.4-1,0.4-1.3L64,63"/>
	</g>
	<g id="path594">
		<path d="M38.7,61.1C38.6,61.1,38.6,61.1,38.7,61.1c-0.1,0-0.3-0.2-0.3-0.6c0.1-0.2,0.1-0.4,0.1-0.5c-0.1-0.1-0.4-0.3-0.4-0.7
			c0-0.1,0-0.3,0.1-0.4c0.1-0.3,0.2-0.7-0.1-1.5c-0.3-1.1-0.4-1.4-0.3-2.2c0-0.7,0-0.9-0.2-1.4c0-0.1-0.1-0.2-0.1-0.3
			c-0.1-0.5-0.2-1.1-0.2-1.6c0-0.3,0-0.5-0.1-0.7c0-0.1-0.1-0.3-0.1-0.4c0,0.3-0.1,0.7-0.3,0.8c-0.1,0.1-0.1,0.2-0.2,0.4
			c0,0.1-0.1,0.3-0.2,0.5c-0.2,0.4-0.2,0.7-0.2,0.8s0,0.5,0,0.6c0.1,0.1,0.3,0.5,0.4,1.3c0,0.4,0.1,0.5,0.1,0.7s0.1,0.4,0.1,1
			c0.1,0.5,0.1,1,0.2,1.4c0.1,0.8,0.2,1.1,0.1,1.3H37c-0.1,0-0.1,0-0.1,0l0.3,0.8v0.1h-0.1l-0.3-0.8l0,0c-0.1,0-0.2,0-0.3,0
			c0,0-0.1,0-0.1-0.1c0,0,0-0.1,0.1-0.1s0.2,0,0.4,0l0,0c0,0,0.1,0,0.2,0c0-0.1-0.1-0.6-0.1-1.1c-0.1-0.4-0.2-1-0.2-1.4
			c-0.1-0.7-0.1-0.8-0.1-1c0-0.1,0-0.3-0.1-0.7c-0.1-0.8-0.4-1.2-0.4-1.2l0,0l0,0c0-0.2,0-0.4,0-0.5c-0.1-0.2,0-0.5,0.2-0.9
			c0.1-0.2,0.1-0.3,0.2-0.4c0-0.1,0.1-0.3,0.2-0.4c0.2-0.3,0.3-1,0.3-1v-0.2l0.1,0.2c0,0,0.1,0.2,0.2,0.6c0,0.1,0.1,0.4,0.1,0.7
			c0,0.5,0.1,1.1,0.2,1.5c0,0.1,0.1,0.2,0.1,0.3c0.2,0.5,0.2,0.7,0.2,1.5s0,1.1,0.3,2.1c0.2,0.8,0.2,1.2,0.1,1.6
			c0,0.1-0.1,0.2-0.1,0.4c0,0.3,0.1,0.5,0.3,0.6l0,0h0.2c0.6,0.1,1.1,0.2,1.7-0.1h0.1c0,0,0.1-0.1,0.2-0.3c0.1-0.3,0.1-0.7,0.1-1.4
			c0-0.3,0-0.7,0-1.2c0-0.8-0.1-1.2-0.2-1.7c-0.1-0.3-0.2-0.6-0.3-1.1c-0.2-1.1-0.1-1.4,0-1.9c0-0.1,0.1-0.2,0.1-0.3
			c0.1-0.4,0.1-0.6,0.1-0.9c0-0.2,0-0.4,0.1-0.8c0-0.3,0.1-0.4,0.1-0.5c0-0.2,0.1-0.3,0.1-1.2c0.1-1.4-0.2-1.8-0.2-1.8
			s-0.2-0.3-0.6-0.5c-0.4-0.2-0.2-0.9-0.2-1.1L39.7,45c-0.2,0-0.9,0.2-1.7,0.1c-0.6,0-0.9-0.1-1-0.2c-0.1,0-0.4,0.2-0.8,0.3
			c-0.5,0.2-1.3,0.3-1.5,0.3c-0.1,0.1-0.2,0.4-0.2,0.7c0,0.1,0,0.1,0,0.2c0,0.4,0,1.1-0.1,1.8c0,0,0,0.1-0.1,0.1c0,0-0.1,0-0.1-0.1
			c0.1-0.7,0.1-1.4,0.1-1.8c0-0.1,0-0.1,0-0.2c0-0.3,0.2-0.8,0.2-0.8l0,0l0,0c0,0,1,0,1.5-0.3c0.6-0.2,0.9-0.4,0.9-0.4H37v0.1l0,0
			c0,0,0.1,0.1,0.9,0.2c0.9,0,1.7-0.1,1.7-0.1h0.1l0.3,0.6l0,0c0,0-0.2,0.7,0.1,0.9c0.4,0.2,0.7,0.5,0.7,0.5s0.3,0.4,0.2,1.9
			c-0.1,1-0.1,1.1-0.1,1.3c0,0.1,0,0.2-0.1,0.5c-0.1,0.4-0.1,0.6-0.1,0.8c0,0.3,0,0.4-0.1,0.9c0,0.1-0.1,0.2-0.1,0.3
			c-0.1,0.5-0.2,0.7,0,1.9c0.1,0.5,0.2,0.8,0.3,1.1c0.1,0.6,0.2,0.9,0.2,1.8c0,0.4,0,0.8,0,1.2c0,0.7,0,1.2-0.1,1.5
			c-0.1,0.2-0.1,0.3-0.2,0.3l0.5,0.2c0,0,0.1,0.1,0,0.1c0,0-0.1,0.1-0.1,0L40.5,60l0,0c-0.6,0.2-1.2,0.1-1.7,0.1h-0.1
			c0,0.1-0.1,0.2-0.1,0.5C38.5,60.9,38.7,61,38.7,61.1C38.7,60.9,38.7,61,38.7,61.1L38.7,61.1z M33.2,60.9L33.2,60.9l-0.7-0.4l0,0
			c0-0.1,0-0.1-0.1-0.1c0,0-0.1-0.1,0-0.1c0-0.1,0.1-0.1,0.4-0.2c0.6-0.2,0.6-0.3,1-0.5c0.2-0.1,0.5-0.3,0.6-0.4l-0.2-0.1l0,0
			c0,0,0.1-0.9-0.3-2.3c-0.1-0.3-0.1-0.6-0.2-0.8c-0.4-1.3-0.8-2.7-0.4-3.7c0.3-0.8,0.5-2,0.7-2.8c0,0,0-0.1,0.1-0.1
			c0,0,0.1,0,0.1,0.1c-0.2,0.8-0.4,2-0.7,2.8c-0.3,0.9,0.1,2.4,0.4,3.6c0.1,0.3,0.2,0.6,0.2,0.8c0.3,1.3,0.3,2.1,0.3,2.3l0.2,0.1
			c0,0,0,0,0.1,0c0.4,0.2,1,0.3,1.5,0.3c0,0,0.1,0,0.1,0.1c0,0,0,0.1-0.1,0.1c-0.4-0.1-1.1-0.2-1.5-0.3c-0.1,0.1-0.4,0.3-0.7,0.4
			c-0.4,0.2-0.5,0.2-1,0.5c-0.1,0-0.2,0.1-0.3,0.1c0,0,0.1,0.1,0.1,0.2l0.6,0.3C33.3,60.8,33.3,60.9,33.2,60.9
			C33.3,60.9,33.2,60.9,33.2,60.9z"/>
	</g>
	<g id="path596">
		<path d="M36.7,60.4l-3.8-19.6v0.1l-0.3-1.3c-0.1,0.1-0.2,0.1-0.2,0.2l3.9,20.3h-0.2L33,44l0,0c-0.1,0-0.2,0-0.3,0
			c-0.6,0-0.8-0.1-1.1-0.8c-0.3-0.9-1-2.8-1-3v-0.1c0-0.2-0.1-0.3,0-0.6c0-0.1,0.1-0.2,0.1-0.2c0-0.1,0-0.3,0.3-0.3
			c0.2,0,0.3-0.1,0.3-0.1c0-0.1,0.2-0.9,0.4-1.2l0.1-0.1L31.7,37L30,37.3l-0.2-1.2c0-0.1,0-0.2,0-0.3c0-0.6,0.5-1,1-1
			c0.3,0,0.5,0.1,0.7,0.3h0.1c0.2-0.4,0.5-0.7,1-0.7s1,0.4,1,0.9l0.2,1.3l-1.5,0.3l0.1,0.4c0.1,0,0.2,0,0.3,0.1h0.1
			c0.1,0,0.1,0,0.2,0c0.1,0,0.3,0,0.4,0.1c0.1,0.1,0.1,0.2,0,0.4c0,0.1,0,0.4-0.1,0.6c0,0.2,0,0.4-0.2,0.6c0,0.2-0.2,0.3-0.2,0.4
			l0.1,0.8c0.1-0.2,0.2-0.5,0.3-0.9c0.1-0.7,0.3-1.5,0.2-1.7c-0.1-0.3,0.1-0.5,0.5-0.6c0.1,0,0.2,0,0.3-0.1c0.1,0,0.2,0,0.2-0.1
			c0.1-0.2,0.2-0.2,0.3-0.2s0.2,0,0.3-0.1c0.2-0.1,0.5-0.4,0.7-0.5c-0.2-0.3-0.4-0.7-0.6-1c0-0.1-0.1-0.1-0.1-0.2
			C35,34.8,35,34.7,35,34.5c0.1-0.3,0.4-0.6,0.8-0.8c0.5-0.2,1.7-0.5,2-0.6h0.1l0,0c0.5-0.1,0.8,0.5,0.8,0.7s0.1,0.4,0.3,0.7
			c0.1,0.1,0.1,0.2,0.1,0.3S39,34.9,39,34.9l0,0l0,0l0,0V35c0,0.1-0.1,0.2-0.2,0.3c0.1,0.1,0.1,0.3,0.1,0.4v0.1c0,0.1,0,0.2-0.1,0.2
			c-0.1,0.1-0.4,0.1-0.5,0.1s-0.1,0-0.2,0c0.2,0.1,0.5,0.3,0.8,0.3c0.1,0,0.2,0,0.3,0.1c0.2,0,0.3,0,0.5,0.2l0.1,0.1
			c0.1,0.1,0.2,0.2,0.3,0.1c0.4-0.1,0.7,0,0.9,0.5c0.1,0.1,0.1,0.2,0.1,0.3c0.2,0.3,0.2,0.4,0.3,0.5l0.1,0.1
			c0.1,0.1,0.2,0.2,0.3,0.6c0.1,0.2,0.2,0.6,0.4,0.9c0.2,0.4,0.4,0.7,0.4,0.9c0.1,0.4,0,0.8,0,0.8v1.4l0.7,1.2l0.1,0.1v0.2l-0.1-0.2
			c0,0-0.1,0.1-0.2,0.2L43,44.9c-0.3,0.4-0.5,0.7-1.1,1.1c-0.6,0.4-0.9,0.5-0.9,0.5h-0.1v-0.1c0,0-0.2-0.3-0.5-0.6v-0.1
			c-0.2-0.3-0.3-0.4-0.5-0.6L40,45c0.2,0.2,0.3,0.3,0.5,0.6v0.1c0.2,0.2,0.3,0.4,0.4,0.5c0.1-0.1,0.4-0.2,0.8-0.5
			c0.5-0.3,0.8-0.7,1-1l0.1-0.1c0.1-0.1,0.2-0.2,0.2-0.2l-0.7-1.2v-1.5c0,0,0.1-0.4,0-0.8c0-0.2-0.2-0.5-0.4-0.9
			c-0.2-0.3-0.4-0.7-0.4-1c-0.1-0.4-0.2-0.4-0.3-0.5l-0.1-0.1c-0.2-0.2-0.2-0.2-0.3-0.5c0-0.1-0.1-0.2-0.1-0.3
			c-0.3-0.5-0.5-0.5-0.7-0.5c-0.3,0.1-0.4,0-0.5-0.2l0,0c-0.3,0.4-0.6,1.3-0.8,2l0,0c-0.1,0.3-0.2,0.4-0.3,0.4
			c-0.2,0-0.3-0.1-0.5-0.3l-0.1-0.1c-0.2-0.2-0.4-0.4-0.5-0.6c0,0.2,0,0.5-0.1,0.8c-0.1,1.1-0.1,1.7-0.1,2.3c0,0.2,0,0.5,0,0.8
			c0,1.1-0.1,2.1-0.1,2.1h-0.2c0,0,0.1-1,0.1-2.1c0-0.3,0-0.6,0-0.8c0-0.7,0-1.2,0.1-2.4c0-0.3,0.1-0.6,0.1-0.8
			c-0.1,0.1-0.2,0.3-0.3,0.4c-0.2,0.2-0.3,0.3-0.4,0.3c-0.2,0-0.4-0.1-0.6-0.4c-0.3-0.3-0.4-0.5-0.6-0.7c-0.1-0.1-0.1-0.2-0.2-0.3
			c-0.2-0.2-0.5-0.5-0.6-0.5s-0.1,0.1-0.2,0.1c-0.1,0-0.2,0-0.3,0c-0.3,0.1-0.4,0.2-0.4,0.5s-0.1,1.1-0.2,1.8
			c-0.1,0.5-0.3,0.9-0.4,1.1l0.6,3.3c0.1,0,0.1-0.1,0.1-0.1h0.2c0.1,0.7,0.4,1.1,0.8,1.2V45c-0.3,0-0.6-0.4-0.8-1h-0.1l3.2,16.3
			L36.7,60.4z M31,39.1L31,39.1c-0.2,0-0.2,0.1-0.2,0.2c0,0.1,0,0.2-0.1,0.3c-0.1,0.2-0.1,0.3,0,0.4v0.1c0,0.2,0.7,2.2,1,3
			c0.3,0.7,0.4,0.7,0.9,0.7c0.1,0,0.2,0,0.3,0l-0.7-3.5c-0.2,0.3-0.4,0.4-0.7,0.3c-0.3,0-0.5-0.4-0.7-0.6l-0.1-0.1
			C30.8,39.8,30.9,39.3,31,39.1z M31.2,39c-0.1,0.3-0.2,0.7-0.1,0.9l0.1,0.1c0.2,0.2,0.4,0.5,0.6,0.6c0.2,0,0.3,0,0.6-0.4l0,0
			l-0.1-0.3c0,0,0,0-0.1,0.1c-0.2,0.2-0.3,0.5-0.3,0.5l-0.1,0.1l-0.1-0.1c0,0-0.1-0.2-0.4-0.5l0,0c-0.2-0.3-0.3-0.3-0.1-0.7
			c0.1-0.1,0.1-0.3,0.1-0.3C31.3,39,31.2,39,31.2,39z M31.4,38.8L31.4,38.8c0,0.1,0.1,0.3-0.1,0.6c-0.1,0.2-0.1,0.2,0.1,0.5l0,0
			c0.1,0.2,0.2,0.3,0.3,0.4c0.1-0.1,0.2-0.3,0.3-0.4c0.2-0.2,0.6-0.5,0.6-0.5l0.1-0.1v0.1l0,0c0.1-0.1,0.1-0.1,0.1-0.2L32.4,39
			l0.1-0.1l0.4,0.2C33,39,33,38.9,33,38.7c0,0-0.1-0.1-0.2-0.1c-0.2,0-0.3-0.1-0.3-0.1l-0.1-0.1l0.1-0.1c0,0,0.1-0.1,0.2-0.1
			l0.1,0.1c0,0,0,0,0.1,0s0.2,0.1,0.2,0.1c0-0.1,0.1-0.2,0.1-0.3l-0.6-0.3h0.3c0,0,0.1,0,0.2,0l0,0c0.1,0,0.1,0,0.2,0.1
			c0-0.1,0-0.2,0-0.2c0-0.1-0.1-0.1-0.3-0.1c-0.1,0-0.2,0-0.3,0h-0.1c-0.3-0.1-0.3-0.1-0.5,0c-0.1,0.1-0.1,0.1-0.2,0.2l-0.1,0.1
			C31.7,37.9,31.5,38.5,31.4,38.8z M37.3,38.1L37.3,38.1c0.1,0.4,0.4,0.7,0.6,0.9H38c0.1,0.1,0.2,0.2,0.3,0.2s0.2-0.1,0.2-0.3l0,0
			c0.2-0.7,0.5-1.6,0.8-2c-0.1-0.1-0.2-0.1-0.4-0.1c-0.1,0-0.2,0-0.3-0.1c-0.4-0.1-0.7-0.3-0.9-0.4c0,0.1,0,0.2-0.1,0.3
			c0,0.2-0.1,0.3-0.2,0.5c0,0.1-0.1,0.2-0.1,0.2c0,0.1-0.1,0.2-0.2,0.2l0,0C37.3,37.7,37.3,37.9,37.3,38.1z M34.6,37
			c0.1,0.1,0.4,0.3,0.6,0.6c0.1,0.1,0.1,0.2,0.2,0.3c0.1,0.2,0.2,0.4,0.5,0.7s0.4,0.4,0.5,0.4s0.2-0.1,0.3-0.2
			c0.3-0.3,0.4-0.6,0.4-0.6c0-0.3-0.1-0.5-0.1-0.5c-0.1,0-0.2,0-0.2-0.1c-0.2-0.1-0.3-0.2-0.7-0.7L36,36.8c0,0,0,0-0.1-0.1
			c0,0-0.1-0.1-0.1-0.2c0-0.1-0.1-0.2-0.1-0.2c-0.1,0.1-0.4,0.3-0.6,0.4c-0.1,0.1-0.2,0.1-0.3,0.1C34.7,36.9,34.6,36.9,34.6,37
			L34.6,37z M36.3,36.7c0.4,0.4,0.4,0.5,0.6,0.7c0.1,0.1,0.2,0.1,0.3,0.1s0.1-0.1,0.1-0.1c0-0.1,0.1-0.2,0.1-0.3
			c0.1-0.1,0.2-0.3,0.2-0.5c0-0.3,0.1-0.4,0.1-0.4v-0.1l0,0V36c0,0,0.2,0.1,0.3,0.1c0.2,0,0.3,0,0.4,0c0,0,0,0,0-0.1v-0.1
			c0-0.2,0-0.3-0.1-0.4h-0.2l0.2-0.1c0.1-0.1,0.2-0.2,0.2-0.3V35c0-0.1,0-0.1,0.1-0.2l0,0l0,0c0,0,0-0.1-0.1-0.1
			c-0.2-0.2-0.3-0.5-0.3-0.7c0-0.1-0.2-0.7-0.6-0.6c0,0,0,0-0.1,0c-0.2,0.1-0.5,0.3-0.7,0.6c0.2,0,0.2,0.2,0.2,0.3
			c0.1,0.2,0.2,0.3,0.2,0.3h0.1v0.1l-0.4,0.5l-0.1-0.1c-0.1-0.1-0.2-0.2-0.2-0.2V35c0.1,0.4,0.1,0.5,0.2,0.5l0,0v0.1l0,0
			c0.1-0.1,0.1-0.2,0.1-0.2l0.1,0.1c0,0-0.1,0.1-0.1,0.2c0,0.1-0.1,0.1-0.2,0.1l0,0c0,0-0.1,0-0.1-0.1c-0.1,0-0.3,0.1-0.4,0.2
			c-0.1,0-0.1,0.1-0.1,0.2C36.2,36.3,36.3,36.7,36.3,36.7L36.3,36.7z M31.8,36.8l0.1,0.6c0,0,0.1,0,0.2-0.1c0.1,0,0.1,0,0.2-0.1
			l-0.1-0.5l1.5-0.3l-0.2-1.1c0-0.4-0.4-0.8-0.9-0.8c-0.4,0-0.7,0.2-0.8,0.6l0,0h-0.2l0,0c-0.3,0-0.6-0.1-0.8-0.1
			c-0.5,0-0.9,0.4-0.9,0.9c0,0.1,0,0.2,0,0.3l0.2,1L31.8,36.8z M36,36.4C36,36.4,36.1,36.4,36,36.4c0,0,0-0.1,0-0.2
			c0-0.1-0.1-0.3,0.1-0.4c0.1,0,0.3-0.1,0.4-0.2c0-0.1-0.1-0.3-0.1-0.5c0-0.1-0.1-0.3,0-0.3s0.2,0,0.4,0.2l0.3-0.3
			c0,0-0.1-0.1-0.2-0.3c-0.1-0.2,0-0.3,0.1-0.6c0.1-0.1,0.2-0.3,0.3-0.4c-0.5,0.1-1.2,0.3-1.5,0.5c-0.4,0.2-0.7,0.5-0.7,0.7
			c0,0.1,0,0.2,0,0.3s0.1,0.1,0.1,0.2c0.2,0.3,0.5,0.6,0.6,1h0.1v0.1l0,0l0,0C36,36.2,36,36.3,36,36.4z M39.7,44.6
			c-0.1-0.1,0-0.2,0-0.3c0.1-0.1,0.2-0.2,0.4-0.2s0.4-0.1,0.4-0.1l0,0c0,0,0-0.2,0-0.5v-0.1c0-0.2-0.1-0.4-0.3-0.6
			c-0.3-0.4,0.1-0.9,0.1-0.9l0.1-0.1V42l0,0c0,0,0,0.1,0.1,0.4c0.1,0.2,0.1,0.3,0.3,0.5c0.1,0.1,0.2,0.3,0.4,0.5
			c0.2,0.3,0.2,0.4,0.2,0.5S41.2,44,41,44c-0.1,0-0.2,0-0.4,0.1l0,0c0,0-0.2,0.1-0.5,0.1c-0.2,0-0.3,0.1-0.3,0.1v0.1L39.7,44.6z
			 M40.3,42.2c-0.1,0.1-0.2,0.4,0,0.5c0.3,0.3,0.3,0.5,0.3,0.7v0.1c0,0.2,0,0.4,0,0.5c0.1,0,0.2,0,0.3-0.1c0.1,0,0.2,0,0.2-0.1
			c0,0,0-0.1-0.2-0.4c-0.2-0.2-0.3-0.4-0.4-0.5c-0.2-0.2-0.3-0.3-0.3-0.6C40.3,42.3,40.3,42.2,40.3,42.2z"/>
	</g>
	<g id="path598">
		<path d="M62.5,61c-0.4,0-0.7-0.1-1-0.2h-0.1v-0.1c0.2-0.7,0.2-1.3,0.2-2v-0.1c0-0.2-0.1-0.5-0.2-0.7c-0.1-0.2-0.2-0.5-0.2-0.7
			s0-0.3,0-0.4c0-0.4,0-0.9-0.3-1.2l0,0v-0.9H61l0.1-0.3c0-0.1-0.1-0.6-0.2-1c0-0.2,0-0.3,0-0.5s0-0.3,0-0.5s-0.1-0.4-0.2-0.6
			c-0.1-0.3-0.2-0.7-0.2-0.9c-0.1-0.3-0.1-0.5-0.1-0.7c-0.2,0-0.5-0.1-0.6-0.4c-0.1-0.3-0.1-0.3,0.1-0.8c0-0.1,0.1-0.2,0.1-0.3
			s0.1-0.3,0.1-0.4c0.2-0.6,0.5-1.3,0.4-2l0,0l0,0c0,0,0.2-0.2,0.3-0.7v-0.1h0.1c0,0,0.9,0.4,1.3-0.1l0.1-0.1
			c0.4-0.5,0.6-0.7,0.8-1.6c0-0.1,0-0.3,0.1-0.4l0,0c-0.1,0.1-0.1,0.2-0.2,0.3c-0.2,0.2-0.6,0.4-1,0.4c-0.3,0-0.5-0.1-0.7-0.2l0,0
			l0,0c0,0-0.1-1-0.4-1.6c-0.2-0.3-0.2-0.5-0.3-0.7c-0.1,0.1-0.2,0.2-0.4,0.4L60.1,42c-0.1,0.1-0.2,0.1-0.2,0.2
			c0,0.1,0.1,0.2,0.2,0.3c0.4,0.4,0.8,1.1,0.8,1.1l0.1,0.1h-0.1c0,0-0.3,0.1-0.4,0.6c-0.2,0.6,0.1,1.4,0.1,1.4v0.1h-0.1
			c-0.1,0-1.6-0.5-2.3-1.8l0,0l0,0c0,0,0.3-0.5,0.3-1.7s-0.3-1.5-0.3-1.5l-0.1-0.1v-0.1c0,0,0.5-0.6,1.1-1.4c0.4-0.5,0.4-0.8,0.5-1
			c0-0.1,0.1-0.2,0.2-0.3c0.1-0.1,0.1-0.1,0.2-0.2c-0.1-0.1-0.3-0.3-0.2-0.4c0-0.1,0.2-0.2,0.4-0.2c0.5-0.1,0.8,0,1.1,0
			c0.2,0,0.4,0,0.5,0c0.2,0,0.4-0.1,0.6-0.2c0.2-0.1,0.3-0.1,0.4-0.2c0.3,0,0.4-0.1,0.4-0.1l0.1-0.1v0.1c0,0,0.3,0.7,0.7,1.1
			c0.2-0.2,0.9-0.7,1.3-1h0.1l0,0c0,0,0.5,0.5,1.6,0.9c0.9,0.3,1.2,0.5,1.3,0.7c0,0.1,0,0.2,0,0.3c0,0,0,0,0,0.1
			c0.1,0.1,0.5,1.2,0.2,2.5c-0.2,1.2-0.3,1.9-0.3,2c0.1,0.1,0.4,0.4,0.5,1c0.1,0.7,1.2,2.4,1.4,2.7l0.8-1.4l0.3,0.3l-0.8,1.6
			c0,0.1,0.3,0.4,0.2,0.8v0.1c-0.1,0.3-0.2,0.5-0.3,0.7c0,0.1,0,0.3-0.2,0.4h-0.1c-0.2,0.1-0.4,0.1-0.5,0.1L67,54.7
			c0.1,0.1,0.2,0.4,0.1,0.9L67,55.8c0,0.2,0,0.2,0,0.5v0.2c0,0.1,0,0.3,0,0.5c0,0.6-0.1,1.4-0.2,1.7c-0.1,0.4-0.1,1,0.4,1.3
			s1,0.6,1,0.6l-0.1,0.1c0,0-0.6-0.3-1-0.6c-0.5-0.3-0.5-1.1-0.4-1.5c0.1-0.3,0.1-1.1,0.2-1.7c0-0.1,0-0.2,0-0.3
			c-0.1,0.2-0.3,0.4-0.5,0.5c0.1,0.1,0.1,0.1,0.1,0.1l0.1,0.2c0,0.1-0.1,0.1-0.2,0.1s-0.2-0.1-0.2-0.1c0,0.1-0.1,0.2-0.1,0.3
			c-0.3,0.5-0.8,2.1-0.8,2.1h-0.1c0-0.1,0.5-1.6,0.8-2.2c0.1-0.3,0.2-0.3,0.3-0.4c0.1,0,0.1,0,0.1,0h0.1h0.1l0,0c0,0,0,0-0.1-0.1
			s-0.3-0.3-0.4-0.4l0,0v-0.1c0,0-0.1-0.1-0.2-0.1l0,0h-0.1c-0.1,0.1-0.1,0.2-0.2,0.2c-0.2,0.2-0.3,0.3-0.4,0.4l-0.1,0.1
			c-0.1,0.1-0.2,0.1-0.2,0.1l-1.3,2.3l0,0l0,0l0,0c-0.1,0.3-0.3,0.6-0.5,0.8l0,0l0,0C62.6,61,62.6,61,62.5,61z M61.6,60.7
			c0.3,0.1,0.6,0.2,1.1,0.1c0.2-0.2,0.3-0.5,0.4-0.7c-0.1-0.5,0-1.3,0.2-1.9c0.2-0.4,0.1-0.9,0.1-1.3c-0.1-0.4-0.1-0.9,0-1.3
			c0-0.1,0.1-0.2,0.1-0.3c0.1-0.2,0.2-0.4,0.1-0.7c0,0-0.1,0-0.1,0.1c0,0-0.1,0.1-0.2,0.1c-0.6,0.4-1.5,0.4-2.1,0.1v0.5
			c0.3,0.4,0.3,0.8,0.3,1.3c0,0.1,0,0.3,0,0.4c0,0.2,0.1,0.5,0.2,0.7c0.1,0.2,0.2,0.5,0.2,0.7v0.1C61.8,59.4,61.8,60.1,61.6,60.7z
			 M63.6,54.4L63.6,54.4c0.2,0.3,0.1,0.6,0,0.9c0,0.1-0.1,0.2-0.1,0.3l0,0c-0.1,0.4-0.1,0.8,0,1.3s0.1,0.9-0.1,1.4
			c-0.1,0.5-0.2,1.1-0.2,1.6l1.2-2.1l0,0c0-0.3,0-0.6,0-0.8s0-0.4,0-0.6c0-0.1,0-0.2,0-0.2c-0.1-0.4-0.1-0.8,0-1
			c0.1-0.3,0.2-0.4,0.2-0.4v-0.1l0,0c0,0,0.1-0.2,0-1c-0.1-0.5-0.4-1.4-0.5-1.8c0,0.2-0.1,0.6-0.3,1C63.6,53.6,63.5,53.9,63.6,54.4
			L63.6,54.4z M64.7,54.8c0,0.1-0.1,0.2-0.1,0.3c-0.1,0.2,0,0.6,0,0.9c0,0.1,0,0.2,0,0.3c0,0.2,0,0.4,0,0.7c0,0.2,0,0.4,0,0.7
			c0,0,0.1,0,0.1-0.1c0.1,0,0.1-0.1,0.1-0.1c0.1,0,0.1-0.1,0.2-0.1l0,0c0,0,0-0.1-0.1-0.2c-0.1-0.1-0.2-0.2-0.1-0.3
			c0-0.2,0.2-0.3,0.3-0.3c0.2,0,0.2,0,0.2-0.1s0-0.2,0.1-0.3c0.1-0.2,0.1-0.2,0.2-0.2c0,0,0.1-0.1,0.1-0.2c0.1-0.2,0.2-0.4,0.2-0.5
			c-0.1,0-0.3,0-0.6,0C65.1,55.1,64.8,54.9,64.7,54.8z M66.1,55.2c-0.1,0.1-0.2,0.4-0.3,0.6C65.7,56,65.6,56,65.6,56
			s-0.1,0.1-0.1,0.2c0,0.1-0.1,0.2-0.1,0.2c0,0.1,0,0.2-0.3,0.3c-0.1,0-0.2,0.1-0.2,0.2c0,0.1,0,0.1,0.1,0.2
			c0.1,0.1,0.1,0.1,0.2,0.2l0.1-0.1c0,0,0-0.1,0.1-0.1c0-0.1,0.1-0.1,0.1-0.1l0,0c0.1-0.1,0.2-0.2,0.3-0.2c0,0,0.1,0,0.1,0.1
			l0.1-0.1c0,0,0,0,0-0.1c0,0,0-0.1,0.1-0.1l0.9-1.9l2.6-5.3l0,0c-0.1-0.1-0.1-0.1-0.2-0.2L66.1,55.2C66.1,55.1,66.1,55.2,66.1,55.2
			L66.1,55.2L66.1,55.2z M66,56.9c0.1,0,0.2,0.1,0.2,0.2c0.3-0.2,0.5-0.4,0.4-0.8c-0.1-0.4,0.1-0.9,0.2-1.1c0-0.1,0-0.2,0-0.3
			l-0.7,1.5c0.1,0,0.2,0,0.4,0h0.1v0.1c0,0.1,0,0.2-0.1,0.2c-0.1,0.1-0.2,0.1-0.5,0V56.9L66,56.9z M66.3,56.6c0.1,0,0.2,0,0.2,0l0,0
			C66.4,56.6,66.3,56.6,66.3,56.6z M67,55.3L67,55.3c-0.1,0.2-0.2,0.6-0.2,1l0,0c0-0.2,0-0.2,0.1-0.5l0.1-0.2
			C67,55.5,67,55.4,67,55.3z M64.7,54.6L64.7,54.6c0,0,0.3,0.3,0.7,0.4c0.2,0,0.5,0,0.6,0.1l0,0l1.3-2.5h-0.1c0-0.1,0-0.4,0-0.5
			c-0.2-1.4-0.3-1.7-0.3-1.7v-0.1H67c0,0,0.5-0.1,0.9-0.3c0.2-0.1-0.3-1.2-0.5-1.9c-0.2-0.4-0.4-0.9-0.5-1.3H67
			c0.1,0.4,0.3,0.8,0.5,1.3c0.5,1.2,0.8,1.9,0.5,2c-0.3,0.2-0.7,0.2-0.8,0.3c0.1,0.2,0.2,0.6,0.3,1.7c0,0.1,0,0.2,0,0.3l1.8-3.4
			c0,0,0-0.1,0.1-0.1c0,0,0,0,0-0.1h-0.1v-0.3H69l0,0c0,0-0.2-0.4-0.3-0.5c0-0.1-0.1-0.2-0.2-0.3c0,0.2,0,0.4,0,0.4l-0.1,0.1
			c0,0-0.3-0.5-0.7-1.3C67.4,46,67,45.5,67,45.5l0.1-0.1c0,0,0.4,0.5,0.7,1.3c0.2,0.4,0.4,0.8,0.5,1c0-0.2,0.1-0.6,0.4-0.8
			c0.4-0.3,0.9-0.2,1.2-0.1c-0.4-0.6-1.2-2-1.3-2.6c-0.1-0.7-0.4-0.9-0.4-0.9l0,0l0,0c0,0,0.1-0.7,0.3-2.1c0.2-1.1-0.1-2-0.2-2.3
			l0,0c-0.1,0,0-0.1,0-0.3c0-0.1,0-0.1,0-0.1c-0.1-0.1-0.4-0.3-1.2-0.6c-0.9-0.3-1.5-0.8-1.6-0.9c-0.5,0.3-1.3,1-1.3,1h-0.1H64
			c-0.4-0.3-0.6-0.9-0.7-1.1c-0.1,0-0.2,0.1-0.4,0.1c-0.1,0-0.3,0.1-0.4,0.1c-0.2,0.1-0.4,0.2-0.6,0.2c-0.2,0-0.3,0-0.5,0
			c-0.3,0-0.7,0-1.1,0c-0.2,0-0.3,0.1-0.3,0.1c0,0.1,0.1,0.2,0.2,0.3h0.1v0.1c0,0-0.1,0.1-0.3,0.3c-0.1,0-0.1,0.1-0.1,0.2
			c0,0.2-0.1,0.5-0.5,1c-0.5,0.6-1,1.2-1.1,1.3c0.1,0.1,0.3,0.6,0.3,1.6s-0.2,1.6-0.3,1.7c0.6,1,1.6,1.5,2,1.6
			c-0.1-0.3-0.2-0.9,0-1.3c0.1-0.4,0.3-0.6,0.4-0.7c-0.1-0.2-0.5-0.7-0.8-1c-0.2-0.2-0.3-0.3-0.2-0.5c0-0.1,0.1-0.2,0.2-0.3l0.1-0.1
			c0.3-0.2,0.4-0.5,0.4-0.5l0.1-0.2v0.2c0,0,0.1,0.2,0.3,0.8c0.3,0.5,0.4,1.4,0.4,1.6c0.2,0.1,0.4,0.2,0.5,0.1c0.4,0,0.8-0.2,1-0.4
			c0.1-0.1,0.1-0.2,0.2-0.2c0.1-0.1,0.2-0.2,0.2-0.2c0.1,0,0.1,0.1,0,0.7c-0.2,1-0.4,1.2-0.8,1.7l-0.1,0.1c-0.4,0.5-1.1,0.3-1.4,0.2
			c-0.1,0.4-0.3,0.6-0.3,0.7c0.1,0.7-0.2,1.4-0.4,2c0,0.1-0.1,0.3-0.1,0.4c0,0.1-0.1,0.2-0.1,0.3c0.1,0.7,0.1,0.7,0.1,0.9
			c0.1,0.2,0.4,0.3,0.5,0.3h0.1v0.1c0,0,0,0.3,0.1,0.7c0,0.2,0.1,0.6,0.2,0.9c0.1,0.2,0.1,0.4,0.2,0.6c0.1,0.2,0,0.4,0,0.6
			c0,0.1,0,0.3,0,0.4c0,0.4,0.2,1,0.2,1l0,0l-0.1,0.3c0.6,0.3,1.5,0.3,2-0.1l0,0c0.1,0,0.1-0.1,0.1-0.1s0.1-0.1,0.2-0.1h-0.1
			c-0.1-0.6-0.1-0.9,0.2-1.6c0.3-0.7,0.3-1.3,0.3-1.3h0.2c0,0.1,0.5,1.3,0.7,2.1C64.9,54.4,64.8,54.6,64.7,54.6L64.7,54.6z
			 M69.3,48.6h0.2v0.1c0,0,0,0.1-0.1,0.2c0,0,0,0.1,0.2,0.3c0.1,0.1,0.4,0,0.6,0h0.1c0.1,0,0.1-0.2,0.1-0.2l0,0l0,0
			c0.2-0.2,0.2-0.3,0.3-0.7v-0.1c0.1-0.2-0.1-0.5-0.1-0.6l-0.1,0.3l0,0c0,0,0,0.3,0,0.5c0,0.1,0,0.2-0.1,0.2s-0.1,0-0.2,0l0,0
			c-0.1,0-0.1-0.1-0.1-0.2c0,0,0-0.1,0-0.2c0-0.1-0.1-0.2-0.2-0.3c0,0.1-0.1,0.2-0.1,0.2c-0.1,0.1-0.2,0.2-0.2,0.3L69.3,48.6z
			 M69.6,47.6L69.6,47.6c0.1,0.1,0.3,0.3,0.4,0.5c0,0.1,0.1,0.2,0.1,0.2l0,0h0.1h0.1c0,0,0,0,0-0.1c0-0.2,0-0.4,0-0.5l0,0
			c0-0.3-0.2-0.4-0.2-0.4H70l0,0l-0.1-0.1l0.1-0.1l0.1,0.1l0.1-0.1C70,47,69.4,46.6,68.9,47c-0.2,0.1-0.3,0.3-0.3,0.4
			c0.1,0.1,0.2,0.3,0.3,0.4c0.1,0.1,0.2,0.3,0.2,0.5c0.1-0.1,0.2-0.3,0.3-0.4C69.5,47.8,69.6,47.6,69.6,47.6L69.6,47.6z M70.2,47.3
			c0,0,0.1,0.1,0.2,0.2l0.9-1.7l-0.1-0.1L70.2,47.3z"/>
	</g>
	<g id="path600">
		<path d="M64.1,51.6h-0.2c0,0,0.1-1.1,0.1-1.9h0.2C64.3,50.5,64.1,51.6,64.1,51.6z M65,50.8c-0.1,0-0.2,0-0.3-0.1
			c-0.1-0.1-0.2-0.3-0.3-0.6c-0.1-0.9-0.4-3.5-0.4-3.9c0-0.2-0.1-0.4-0.1-0.5c-0.1,0.4-0.3,1.2-0.5,2.3c-0.2,1.5-0.4,2.4-0.4,2.4
			l0,0c0,0-0.2,0.2-0.7,0.1c-0.2,0-0.4-0.1-0.7-0.1c-0.4,0-0.8-0.1-1.2-0.2l0.1-0.1c0.3,0.1,0.8,0.2,1.1,0.2s0.5,0,0.7,0.1
			c0.4,0.1,0.5,0,0.5,0c0-0.1,0.2-1,0.4-2.4c0.2-1.5,0.6-2.5,0.6-2.5v-0.1h-0.1c-0.1,0.2-0.3,1.1-0.4,1.6c-0.1,0.6-0.3,1.8-0.4,2.3
			c-0.1,0.5-0.2,1.1-0.2,1.1v0.1h-0.1c0,0,0,0-0.1,0s-0.3,0-1.4-0.1c-0.6-0.1-1.4-0.4-1.4-0.4l0.1-0.1c0,0,0.8,0.4,1.4,0.4
			c1.1,0.1,1.3,0.1,1.4,0.1c0,0,0,0,0.1,0c0-0.2,0.1-0.6,0.1-1c0.1-0.5,0.3-1.7,0.4-2.3c0.1-0.5,0.4-1.4,0.5-1.6
			c-0.5-0.1-0.9-0.2-1-0.2v-0.2c0,0,1.2,0.3,1.7,0.3l0,0c0-0.1-0.1-0.3-0.1-0.4L64,44.8v-0.4l0,0v-0.1v0.5c0,0-0.1,0.1-0.2,0.2
			c0,0-0.1,0-0.2,0c-0.1-0.1-0.3-0.2-0.3-0.3s0-0.1,0.1-0.1c0.1-0.1,0.3-0.3,0.4-0.4h-0.1l-0.6,0.3l0.1-0.5l0.6-0.4
			c-0.1-0.1-0.2-0.2-0.2-0.3c-0.3-0.4-1.1-2.2-1.4-3.2l-0.6,0.2v-0.1c0,0-0.5-0.9-0.8-1.5S60.3,38,60.3,38v-0.1c0,0,0.3,0.1,0.6,0.8
			c0.3,0.6,0.7,1.3,0.8,1.5l0.5-0.1c0-0.1,0-0.1,0-0.1l-0.4,0.1V40c0,0-0.3-0.6-0.7-1.1c-0.3-0.6-0.5-0.8-0.7-1
			c-0.3-0.2-0.2-0.4-0.2-0.4h0.2h-0.1h0.1c0,0,0,0.2,0.2,0.3c0.2,0.2,0.4,0.4,0.7,1c0.3,0.5,0.5,0.9,0.6,1.1l0.3-0.1
			c-0.2-0.9-0.3-2.4-0.3-2.4h0.2c0,0,0.2,1.6,0.4,2.5s1.2,3.1,1.4,3.4c0.1,0.2,0.3,0.4,0.4,0.6l0.1,0.1l0,0c0.1,0.2,0.2,0.4,0.3,0.5
			c0,0.1,0.1,0.2,0.1,0.3l0,0l0.1,0.4c0,0.1,0,0.2,0.1,0.2c0.1,0.3,0.4,1.3,0.5,1.6c0.1,0.2,0.6,0.1,1.1-0.1c0.2,0,0.3-0.1,0.5-0.1
			s0.3-0.1,0.3-0.1s0,0,0-0.1s0-0.1,0-0.3c0-0.3,0-0.5-0.1-0.6c-0.2,0-0.9,0.1-1.2,0.2c-0.1,0-0.1,0-0.2,0.1c-0.1,0-0.2,0.1-0.3,0
			c-0.1,0-0.1-0.1-0.2-0.2c-0.1-0.1-0.1-0.3-0.2-0.5c-0.1-0.3-0.2-0.6-0.3-0.9c-0.2-0.2-1.2-1.7-1.4-2.3c-0.3-0.7-1-2.6-1.1-3.6
			C62,37.4,62,37.2,62,37.2h0.2c0,0,0,0.2,0.1,1.2c0,0.3,0.1,0.7,0.2,1h0.1c0.2-0.1,0.4-0.2,0.6-0.5c0.3-0.4,0.5-0.6,0.8-0.7
			c0-0.1,0-0.1,0-0.1v-0.3h0.2v0.3c0,0.2,0,1,0.1,1.8c0,0.9-0.1,2.9-0.2,3.2l0.1,0.1c0,0,0,0,0-0.1c0-0.2,0.2-1.7,0.2-2.5
			s-0.1-3-0.1-3h0.2c0,0,0,0.2,0,0.4l0,0l1.5,1.9c0.2-0.7,0.3-1.6,0.4-2.7h0.2c-0.3,3.5-1.1,4.7-2.3,6.1l0,0c1.4-1.5,2.2-3.4,2.3-6
			h0.2c-0.1,1-0.2,1.8-0.4,2.6c0.1,0,0.2-0.1,0.6-0.5s0.6-0.7,0.7-0.9c0.1-0.1,0.2-0.2,0.2-0.3c0.2-0.2,0.3-0.4,0.3-0.4l0.1,0.1
			c0,0-0.2,0.2-0.4,0.4c-0.1,0.1-0.1,0.2-0.2,0.3c-0.1,0.2-0.4,0.4-0.7,0.9c-0.3,0.4-0.6,0.5-0.7,0.5v0.1c0.2,0,0.5-0.1,0.7-0.4
			c0.1-0.1,0.2-0.3,0.3-0.4c0.3-0.3,0.5-0.6,0.6-0.8c0.2-0.1,0.3-0.3,0.3-0.3l0.1,0.1c0,0-0.1,0.1-0.3,0.3c-0.1,0.1-0.4,0.4-0.6,0.7
			c-0.1,0.1-0.2,0.3-0.3,0.4c-0.3,0.4-0.7,0.4-0.9,0.4c-0.4,1.2-1,2.2-1.8,3c0.2,0.3,0.4,0.6,0.4,0.7l1.6-0.3
			c0.1-0.1,0.5-0.8,0.5-1.3c0-0.1,0-0.3,0-0.5c0-0.5,0-1.1,0.1-1.3c0.1-0.4,0.2-0.9,0.2-0.9h0.2c0,0-0.1,0.6-0.2,0.9
			c-0.1,0.3-0.1,0.8-0.1,1.3c0,0.2,0,0.3,0,0.5c0,0.4-0.3,1-0.5,1.3h0.1v0.1c0.2,0.5,0.2,0.6,0.3,0.7c0,0.1,0,0.1,0.1,0.3
			c0.1,0.4,0.1,0.5,0,0.7c0,0.1,0.1,0.3,0.1,0.6c0,0.1,0,0.2,0,0.2c0,0.1,0,0.1,0,0.2c0,0.1-0.1,0.1-0.4,0.2c-0.1,0-0.3,0.1-0.5,0.1
			c-0.6,0.1-1.1,0.3-1.3,0c-0.1-0.3-0.5-1.4-0.5-1.6l0,0c-0.1,0-0.1,0-0.2,0c0.1,0.2,0.2,0.7,0.3,1.6c0.1,0.6,0.1,1.1,0.2,1.6
			s0.1,0.9,0.1,1.2c0,0.1,0,0.2,0,0.3c0,0.2,0,0.3,0.1,0.3h0.1c0.1,0,0.2,0,0.4-0.1c0.4-0.1,1-0.2,1.4-0.3c0.5-0.1,1.1-0.3,1.1-0.3
			v0.2c0,0-0.6,0.2-1.1,0.3c-0.3,0.1-0.9,0.2-1.4,0.3c-0.2,0-0.3,0.1-0.4,0.1s-0.2,0-0.2,0c-0.1-0.1-0.1-0.2-0.1-0.4
			c0-0.1,0-0.2,0-0.3c0-0.3-0.1-0.7-0.1-1.2s-0.1-1-0.2-1.6c-0.1-1-0.2-1.5-0.3-1.6h-0.1v0.1c0,0,0.1,0.4,0.2,0.8
			c0,0.4,0.3,3,0.4,3.9c0,0.3,0.1,0.4,0.2,0.5s0.2,0,0.4,0h0.1c0.3,0,1.6-0.3,1.7-0.3v0.2c-0.1,0-1.3,0.3-1.7,0.3h-0.1
			C65.2,50.7,65.1,50.8,65,50.8z M64.9,44.5c0.1,0.2,0.2,0.5,0.3,0.8c0.1,0.2,0.1,0.3,0.2,0.5c0,0.1,0.1,0.1,0.1,0.2
			c0,0,0.1,0,0.2,0s0.1-0.1,0.2-0.1c0.3,0,1.2-0.2,1.2-0.2c0-0.1,0-0.2-0.1-0.5c0-0.1-0.1-0.2-0.1-0.3s-0.1-0.2-0.2-0.7L64.9,44.5z
			 M63.9,44c-0.1,0.1-0.3,0.2-0.3,0.3s0.1,0.2,0.2,0.2l0,0c0,0,0,0,0.1-0.1V44z M64.3,44.5L64.3,44.5C64.3,44.5,64.3,44.4,64.3,44.5
			L64.3,44.5z M64.4,38.8c0,0.7,0.1,1.5,0.1,2c0,0.6-0.1,1.8-0.1,2.3c0.6-0.7,1.1-1.5,1.4-2.6L64.4,38.8z M62.6,39.9
			c0.3,0.9,0.6,1.7,0.8,2.2c0.1,0.2,0.3,0.6,0.6,1c0.1-0.6,0.2-2.3,0.1-3c0-0.5,0-1-0.1-1.3c-0.1,0-0.2,0.1-0.4,0.4
			C63.3,39.5,63,39.7,62.6,39.9z M64.4,38.6l1.5,1.8c0,0,0,0,0-0.1L64.4,38.6C64.4,38.5,64.4,38.5,64.4,38.6z M62.5,39.6
			C62.6,39.7,62.6,39.7,62.5,39.6c0.4-0.1,0.7-0.3,1-0.6s0.4-0.4,0.5-0.5v-0.1c-0.2,0.1-0.4,0.3-0.7,0.6
			C63,39.4,62.9,39.5,62.5,39.6L62.5,39.6z M69.9,49c-0.2,0-0.3-0.1-0.5-0.2l0.1-0.1C69.6,48.8,69.8,48.9,69.9,49
			c0.2-0.1,0.4-0.1,0.4-0.1v0.2C70.4,49,70.2,48.9,69.9,49C70,49,70,49,69.9,49z M69.5,48.7l-0.2-0.4l0.1-0.1L69.5,48.7L69.5,48.7z
			 M69.7,48.5L69.7,48.5L69.4,48l0.1-0.1l0.2,0.4c0.1,0,0.3,0,0.3,0v0.2C70,48.5,69.9,48.5,69.7,48.5z M60.6,46.4l-0.2-0.6h0.2
			l0.2,0.6H60.6z M61,45.6l-0.5-0.1v-0.1c0,0,0.1-0.2,0-0.7c0-0.5,0.1-0.8,0.2-1.1c0-0.1,0.1-0.1,0.2-0.1c0.2,0,0.4,0.2,0.4,0.2
			l-0.1,0.1c0-0.1-0.2-0.2-0.3-0.1c0,0,0,0-0.1,0.1c-0.1,0.2-0.3,0.5-0.2,1c0,0.3,0,0.6,0,0.7L61,45.6L61,45.6z M60.6,41.4
			c0,0-0.2-0.6-0.2-1.5h0.2c0,0.9,0.2,1.4,0.2,1.4L60.6,41.4z M65.6,36.8h-0.2l0.1-0.5C65.3,36.2,65,36,64.8,36
			c-0.1,0-0.2-0.1-0.3-0.1c0-0.1,0-0.1,0-0.2l0,0l-0.1-0.1c0,0,0-0.1-0.1-0.2c-0.1-0.1,0-0.4,0.1-0.8c0-0.1,0-0.2,0-0.2
			c0-0.1-0.2-0.1-0.3-0.1l0,0c-0.1,0-0.1-0.1-0.1-0.1c0-0.1,0-0.1,0-0.2h-1c0,0.1-0.1,0.2-0.1,0.2c0,0.1,0,0.2,0,0.3s0,0.2-0.1,0.3
			c0,0,0,0-0.1,0.1s-0.2,0.2-0.2,0.3l0,0c0,0,0.1,0.1,0.2,0.1h0.1v0.1c0,0.1,0,0.3,0.1,0.4c0,0,0.1,0.1,0.2,0.1v0.2H63v0.3
			c0,0.1,0,0.1,0,0.1l0,0l0,0c0,0,0,0,0.1,0c0.1,0.1,0.3,0.1,0.4,0.1h0.1v0.3h-0.2v-0.2c-0.1,0-0.3,0-0.4-0.1
			c-0.2-0.1-0.1-0.2-0.1-0.3v-0.1v-0.3c0,0,0,0,0-0.1s-0.1-0.3-0.1-0.4c-0.1,0-0.2,0-0.2-0.1c0,0,0-0.1,0-0.2
			c0.1-0.2,0.2-0.3,0.3-0.4l0.1-0.1l0,0c0,0,0,0,0-0.1c-0.1-0.2,0-0.3,0-0.4c0-0.1,0.1-0.3,0.1-0.3l0,0l1.4-0.1l-0.1,0.1
			c0,0.1-0.1,0.1,0,0.2l0,0l0,0c0.1,0,0.3,0.1,0.4,0.2c0,0.1,0,0.2,0,0.3c-0.1,0.2-0.2,0.6-0.2,0.7c0,0,0,0,0.1,0.1
			c0-0.1,0.1-0.2,0.2-0.4c0.1-0.1,0.1-0.2,0.2-0.1c0,0,0,0,0.1,0l0,0c0.1,0,0.2,0,0.2,0c0.1,0.1,0,0.2,0,0.3s-0.1,0.2-0.1,0.3
			c0,0.2-0.1,0.3-0.2,0.4l0,0c0.3,0.1,0.7,0.4,0.7,0.4l0,0L65.6,36.8z M64.8,35.7L64.8,35.7L64.8,35.7L64.8,35.7z"/>
	</g>
	<g>
		<path d="M67.6,32.3c-0.5-0.1-0.8,0.1-1.1,0.2c-0.1,0.1-0.3,0.2-0.4,0.2v0.2c0.1-0.1,0.3-0.1,0.4-0.2c0.3-0.2,0.6-0.3,1-0.2
			c0.4,0.2,0.9,0.7,0.9,0.9c0,0.1-0.2,0.1-0.3,0.1c-0.8,0-1.7,0-1.7,0v0.2c0,0,0.9,0,1.7,0c0.4,0,0.5-0.1,0.5-0.4
			C68.7,33,68.1,32.4,67.6,32.3z"/>
		<path d="M65.6,33.8c-0.6-0.2-1.3-0.1-1.3-0.1v0.2c0,0,0.7-0.1,1.2,0.1c0.6,0.2,0.8,0.3,0.9,0.6s0,0.7-0.1,1
			c-0.1,0.1-0.1,0.1-0.1,0.2c-0.1,0.2-0.5,0.3-0.5,0.5c0.1,0,0.6-0.2,0.7-0.5c0-0.1,0-0.1,0-0.2c0.1-0.3,0.2-0.8,0.1-1.1
			C66.4,34.1,66.2,34,65.6,33.8z"/>
		<path d="M56.1,36.9C56.3,36.9,56.4,36.8,56.1,36.9L56.1,36.9z"/>
		<path d="M38.1,32.1c0.1,0.3,0.3,0.6,0.5,0.8C38.4,32.7,38.3,32.4,38.1,32.1c0-0.3-0.1-0.4-0.7-0.3c0.1,0,0.2,0,0.3,0
			C37.9,31.8,37.9,31.9,38.1,32.1z"/>
		<path d="M39.8,33.1c0,0.2-0.1,0.4-0.3,0.5c-0.3,0.1-0.3,0.1-0.3,0.1s-0.1,0-0.5,0.1c0-0.1-0.1-0.3-0.2-0.5
			C38.3,32.9,38,33,37.8,33c0,0-0.2,0-0.4,0.1c-0.3,0-0.7,0.1-1,0.2c-0.4,0.1-0.7,0.3-1,0.5c-0.1,0-0.1,0.1-0.2,0.1
			c-0.3,0.2-0.3,0.6-0.3,0.7c-0.1,0-0.4,0.1-0.6,0.1h-0.1c-0.3,0-0.5,0.1-0.7-0.2c-0.1-0.1-0.1-0.2-0.1-0.2c0.1-0.2,0.4-0.3,1-0.6
			c0.1,0,0.2-0.1,0.3-0.1h0.1v-0.1c0-0.2-0.1-0.3-0.1-0.4c-0.1-0.1-0.1-0.1-0.1-0.2v-0.1c-0.1-0.1-0.1-0.1,0.1-0.2
			c0.3-0.2,2.1-0.7,2.7-0.8c-0.6,0-2.5,0.6-2.8,0.8c-0.2,0.1-0.2,0.3-0.2,0.4v0.1c0,0,0.1,0.1,0.1,0.2c0,0.1,0.1,0.2,0.1,0.3
			c-0.1,0-0.2,0.1-0.3,0.1c-0.7,0.3-1,0.5-1.1,0.7c-0.1,0.2,0,0.3,0.1,0.4c0.2,0.2,0.4,0.3,0.6,0.3c0.1,0,0.1,0,0.2-0.1h0.1
			c0.3,0,0.7-0.1,0.7-0.1H35v-0.1c0,0,0-0.4,0.3-0.7c0.1,0,0.1,0,0.2-0.1c0.2-0.2,0.5-0.4,0.9-0.5c0.3,0,0.7-0.1,1-0.2
			c0.2,0,0.3-0.1,0.4-0.1c0.2,0,0.4,0,0.5,0.2c0.1,0.3,0.2,0.6,0.2,0.6v0.1h0.1C39,34,39.1,34,39.1,34c0.1,0,0.1,0,0.5,0
			c0.2-0.2,0.4-0.4,0.3-0.7C39.9,33.2,39.8,33.2,39.8,33.1z"/>
		<path d="M39.8,33.1C39.8,33.1,39.8,33.1,39.8,33.1c0-0.2-0.3-0.4-0.6-0.3c0,0,0,0-0.1,0C39.4,32.8,39.7,32.9,39.8,33.1z"/>
		<path d="M39.1,32.8C39.1,32.8,39.1,32.8,39.1,32.8C39.1,32.8,39.1,32.8,39.1,32.8C39.1,32.8,39.1,32.8,39.1,32.8z"/>
		<path d="M38.6,32.9c0.2,0,0.4-0.1,0.5-0.1C39,32.8,38.8,32.8,38.6,32.9z"/>
	</g>
	<g>
		<path fill="#FFFFFF" d="M47.9,34.4c0,0,0,0-0.2-0.1c-0.2-0.1-0.2-0.1-0.3,0c-0.1,0.1-0.7-0.4-0.5-0.1c0.1,0.1,0.2,0.3,0.6,0.3
			C47.8,34.4,47.9,34.4,47.9,34.4z"/>
		<path fill="#FFFFFF" d="M47.7,34.8c0.3-0.1,0.4-0.1,0.4-0.1s0,0-0.2-0.1s-0.2-0.1-0.3,0s-0.7-0.4-0.5-0.1
			C47.2,34.7,47.4,34.8,47.7,34.8z"/>
		<path fill="#FFFFFF" d="M49,34.9c-0.1,0.1-0.7-0.4-0.5-0.1c0.1,0.1,0.3,0.3,0.6,0.3c0.3-0.1,0.4-0.1,0.4-0.1s0,0-0.2-0.1
			C49.1,34.8,49.1,34.8,49,34.9z"/>
		<path fill="#FFFFFF" d="M50.2,34.9c-0.1,0.1-0.7-0.4-0.5-0.1c0.1,0.1,0.3,0.3,0.6,0.3c0.3-0.1,0.4-0.1,0.4-0.1s0,0-0.2-0.1
			C50.3,34.8,50.3,34.8,50.2,34.9z"/>
		<path fill="#FFFFFF" d="M51.2,34.7c0,0,0,0-0.2-0.1c-0.2-0.1-0.2-0.1-0.3,0c-0.1,0.1-0.7-0.4-0.5-0.1c0.1,0.1,0.2,0.3,0.6,0.3
			C51.1,34.7,51.2,34.7,51.2,34.7z"/>
		<path fill="#FFFFFF" d="M51.8,35.1c0.3-0.1,0.4-0.1,0.4-0.1s0,0-0.2-0.1c-0.2-0.1-0.2-0.1-0.3,0c-0.1,0.1-0.7-0.4-0.5-0.1
			C51.4,35,51.5,35.1,51.8,35.1z"/>
		<path fill="#FFFFFF" d="M52.1,34.6c-0.2-0.1-0.2-0.1-0.3,0c-0.1,0.1-0.7-0.4-0.5-0.1c0.1,0.1,0.3,0.3,0.6,0.3
			c0.3-0.1,0.4-0.1,0.4-0.1S52.3,34.7,52.1,34.6z"/>
		<path fill="#FFFFFF" d="M52.9,34.9c-0.1,0.1-0.7-0.4-0.5-0.1c0.1,0.1,0.3,0.2,0.6,0.3c0.3-0.1,0.4-0.1,0.4-0.1s0,0-0.2-0.1
			C53,34.8,53,34.8,52.9,34.9z"/>
		<path fill="#FFFFFF" d="M69.2,59.8c0,0,0,0.1-0.1,0.1C69.2,59.9,69.2,59.8,69.2,59.8z"/>
		<path fill="#FFFFFF" d="M69.1,59.9C69.1,59.9,69.1,59.9,69.1,59.9C69.1,59.9,69.1,59.9,69.1,59.9C69.1,59.9,69.1,59.9,69.1,59.9z"
			/>
		<path fill="#FFFFFF" d="M69.5,59.2L69.5,59.2l-0.1-0.1c-0.1,0-0.2,0-0.3,0s-0.2,0.1-0.3,0c-0.3,0-0.5-0.2-0.6-0.4
			c-0.1-0.1-0.1-0.2-0.1-0.3c-0.2,0.2-0.3,0.6-0.1,0.9c0.2,0.3,0.4,0.4,0.7,0.4c0.2,0,0.3,0,0.4,0h0.1c0,0,0,0,0,0.1
			c0-0.1,0.1-0.1,0.1-0.2C69.4,59.5,69.5,59.3,69.5,59.2z"/>
		<path fill="#FFFFFF" d="M68.3,58.2c0.6-0.3,1.1-0.6,1.9-0.1c0.2,0.4,0.4,0.7,0.5,1.1c0,0,0,0,0-0.1c0.1-0.5-0.2-1-0.5-1.4
			c-0.7-0.5-1.1-0.3-1.7,0.1l-0.1,0.1c-0.1,0.1-0.2,0.3-0.3,0.5c0,0,0-0.1,0.1-0.1L68.3,58.2z"/>
		<path fill="#FFFFFF" d="M68,60.9c0.4-0.2,0.8-0.6,1.1-0.9c-0.3,0.3-0.7,0.5-1,0.7c-0.6,0.3-1.1,0.4-1.4,0.4c0,0,0,0-0.1,0
			c0,0,0,0,0.1,0.1C67,61.2,67.5,61.1,68,60.9z"/>
		<path fill="#FFFFFF" d="M35.1,60.4c0.1-0.1,0.2-0.1,0.2-0.1c0.3-0.2,0.4-0.2,1,0.1c0.1,0,0.2,0.1,0.3,0.1c0.2,0.1,0.5,0.3,0.9,0.5
			c2.3,1.3,7.7,4.5,13,4.2c6.7-0.4,13.1-4.6,13.2-4.6c0.8-0.6,1.6-0.7,2.8,0.4c0,0,0,0,0,0v-0.1c-1.3-1.3-2-1-2.7-0.5
			c-0.1,0-6.5,4.2-13.3,4.6c-5.3,0.3-10.8-2.9-13.1-4.2c-0.4-0.2-0.7-0.4-0.9-0.5c-0.1-0.1-0.2-0.1-0.3-0.1
			c-0.6-0.3-0.6-0.3-0.8-0.1c-0.1,0-0.1,0.1-0.2,0.1c-0.4,0.2-0.7,0.3-1,0.3c-0.2,0-0.5,0.1-0.8,0.2l0.2,0.1c0.2,0,0.3-0.1,0.5-0.1
			C34.4,60.7,34.7,60.6,35.1,60.4z"/>
		<path fill="#FFFFFF" d="M67.1,63.2c0,0.1,0,0.2,0,0.2s0,0.1,0,0.2c0,0.3,0,0.6,0.2,0.8c0,0.1,0.1,0.2,0.1,0.3
			c0,0.1,0.1,0.2,0.1,0.3v0.1c0.1,0.2,0.1,0.4,0,0.6c0,0.1,0,0.2-0.1,0.3c0,0,0.1,0.1,0.1,0.2c0,0,0,0,0,0.1c0-0.1,0.1-0.2,0.2-0.2
			c0.1-0.2,0.3-0.4,0.2-0.6c0.1-0.2,0-0.4,0-0.5v-0.1c-0.1-0.1-0.1-0.2-0.2-0.3c0-0.1-0.1-0.2-0.1-0.2c-0.3-0.2-0.3-0.6-0.3-0.9
			c0-0.1,0-0.1,0-0.2c0-0.1,0-0.1,0-0.2c0-0.1,0-0.1,0-0.2c-0.1,0-0.1,0-0.2,0C67.1,63,67.1,63.1,67.1,63.2z"/>
		<path fill="#FFFFFF" d="M66,64.8l-0.2-0.2l-0.2,0.3c-0.1,0.2-0.2,0.3-0.4,0.4l0.1,0.1c0.5,0.1,1.1,0.6,1.3,1.1
			c0.1,0,0.1,0,0.1,0.1c0.1,0.1,0.1,0.2,0.2,0.2H67v-0.1c0.1-0.1,0.1-0.2,0.2-0.3c0.1-0.1,0.2-0.2,0.2-0.4c0,0,0,0,0,0
			C67.2,65.5,66.5,64.9,66,64.8z"/>
		<polygon fill="#FFFFFF" points="65.2,65.3 65.2,65.3 65.2,65.3 		"/>
		<path fill="#FFFFFF" d="M71.8,62.4c-0.1,0.1-0.1,0.2-0.2,0.3c0,0.1-0.1,0.1-0.1,0.2c-0.2,0.4-0.8,0.4-1.2,0.4
			c-0.3-0.1-0.5-0.3-0.6-0.5c-0.1-0.3,0-0.6,0.1-1c-0.3,0-0.5,0.1-0.9,0.3c-0.2,0-0.4,0.1-0.7,0.1c-0.1,0-0.3,0.1-0.4,0.1
			s-0.3,0.1-0.5,0.1c0,0-1.1,0.2-1.8,0.3c-0.6,0.1-0.7-0.2-0.7-0.2h-0.1c0.5-0.3,0.9-0.6,1.3-0.9c0.2-0.2,0.4-0.3,0.6-0.5
			c-0.1-0.1-0.1-0.1-0.2-0.1c-0.2,0.1-0.4,0.2-0.6,0.4c-2.9,2.1-8.3,6-15.2,6c-0.1,0-0.2,0-0.3,0C45,67.3,40,64.8,37,63
			c-1.5-0.9-2.5-1.7-2.7-2l-0.7-0.2c-0.1,0-0.3,0.1-0.4,0.1L33,61.1l1,0.4c0.3,0.2,1.2,1,2.7,1.9c0,0.1,0,0.2,0,0.3v0.1
			c0.1,0.1,0.1,0.2,0.2,0.3c0.1,0.2,0.2,0.3,0.2,0.4c0.2,0.3,0.2,0.6,0.1,1v0.1c0,0-0.1,0.1-0.1,0.1c0.1-0.1,0.2-0.2,0.3-0.3v-0.1
			c0.1-0.4,0.1-0.7-0.1-1.1c0-0.1-0.1-0.3-0.2-0.4c0-0.1-0.1-0.2-0.1-0.3v-0.1c0-0.1,0-0.1,0-0.2c3,1.9,8,4.3,13.4,4.4
			c0.1,0,0.2,0,0.3,0c5.6,0,10.1-2.5,12.6-4.1c0.2,0.3,0.1,0.8,0,1.1C63,65,62.4,66.1,63,67.1l0.1,0.1l0.1-0.1
			c0.2-0.4,0.6-0.7,1-0.9c0.4-0.2,0.8-0.4,1-0.8v-0.1c-0.1,0.1-0.3,0.2-0.5,0.3c-0.4,0.2-0.8,0.4-1,0.8c-0.5-0.9,0.1-1.9,0.4-2.3
			c0.2-0.3,0.2-0.9,0-1.2c0.2-0.1,0.4-0.2,0.6,0c0,0,0.2,0.3,0.9,0.2c0.6-0.1,1.4-0.2,1.7-0.3c0,0,0,0.1,0,0.1c0.1,0,0.2,0,0.3-0.1
			c0.1,0,0.3-0.1,0.4-0.1c0.3,0,0.6,0,0.8-0.1c0.2,0,0.4-0.1,0.6-0.1c-0.1,0.2-0.2,0.6-0.1,0.9c0.1,0.3,0.3,0.5,0.7,0.6
			c0.5,0,1.1-0.1,1.4-0.5c0-0.1,0.1-0.1,0.1-0.2C71.7,63.1,71.9,62.7,71.8,62.4C71.8,62.4,71.8,62.4,71.8,62.4z"/>
		<path fill="#FFFFFF" d="M70,60.3L70,60.3c0.2,0.2,0.2,0.2,0.3,0.3c0.2-0.3,0.4-0.6,0.4-1c0-0.1,0-0.3,0-0.4c0,0.5-0.3,0.7-0.6,1
			L70,60.3z"/>
		<path fill="#FFFFFF" d="M36.3,65.8C36.3,65.8,36.3,65.7,36.3,65.8c0,0,0,0.1,0,0.2c0,0.1,0,0.2,0.1,0.3c0,0,0,0,0.1,0l-0.1-0.1
			C36.3,66.1,36.3,65.9,36.3,65.8z"/>
		<path fill="#FFFFFF" d="M36.5,66.3l0.1-0.1c0-0.1,0.1-0.1,0.1-0.1C36.6,66.1,36.5,66.2,36.5,66.3L36.5,66.3z"/>
		<path fill="#FFFFFF" d="M34.3,63c0,0,0-0.1,0-0.1C34.3,62.9,34.3,62.9,34.3,63z"/>
		<path fill="#FFFFFF" d="M36.3,65.7C36.3,65.7,36.3,65.7,36.3,65.7C36.3,65.7,36.3,65.7,36.3,65.7z"/>
		<path fill="#FFFFFF" d="M31.8,61.9c-0.1,0-0.2,0-0.2,0c-0.1,0-0.1,0.1-0.1,0.1L31.8,61.9c0.2,0.3,0.3,0.7,0.2,0.9
			c-0.1,0-0.1,0.1-0.1,0.1c0,0.2-0.1,0.4-0.3,0.4c-0.4,0.1-0.8,0.1-1.1-0.1c-0.5-0.4-0.7-0.9-0.6-1.5c0.1-0.4,0.4-0.8,0.8-1
			l-0.1-0.1c-0.4,0.2-0.7,0.6-0.8,1.1c-0.1,0.7,0.1,1.2,0.6,1.7c0.3,0.2,0.8,0.3,1.2,0.1c0.2-0.1,0.3-0.3,0.4-0.5
			c0.1,0,0.1-0.1,0.1-0.1C32.2,62.6,32.1,62.2,31.8,61.9L31.8,61.9z"/>
		<path fill="#FFFFFF" d="M70.3,60.9L70.3,60.9c0.5,0.2,1.4,0.6,1.5,1.5c0.1-0.2,0.1-0.3,0-0.5c0-0.8-0.9-1.2-1.3-1.3h-0.1
			c0,0-0.1,0-0.1,0c-0.1,0.1-0.1,0.2-0.2,0.2C70.2,60.8,70.2,60.9,70.3,60.9z"/>
		<path fill="#FFFFFF" d="M30.9,60.6v-0.2c-0.7-0.4-1-1.2-0.9-2.1c0-0.1,0.1-0.1,0.1-0.2c0.1-0.2,0.2-0.4,0.4-0.5
			c0.5-0.2,0.9-0.2,1.3-0.1c0.3,0.2,0.7,0.6,0.8,1c0,0.3-0.1,0.7-0.5,0.8H32c-0.1,0-0.3,0-0.4,0h-0.1v0.1c0.1,0.4,0.5,0.8,0.9,0.9
			l0.1-0.1c-0.3-0.1-0.7-0.4-0.8-0.7c0.1,0,0.2,0,0.3,0h0.1c0.4-0.2,0.6-0.6,0.6-1c-0.1-0.5-0.5-0.9-0.9-1.1
			c-0.4-0.2-0.9-0.1-1.4,0.1c-0.2,0.2-0.3,0.4-0.4,0.6c0,0.1-0.1,0.1-0.1,0.2C29.8,59.3,30.1,60.1,30.9,60.6z"/>
		<path fill="#FFFFFF" d="M31.8,61.9c0.4,0.1,0.9,0.2,1.3,0.3C32.7,62.1,32.3,62,31.8,61.9z"/>
		<path fill="#FFFFFF" d="M34.3,63C34.3,63,34.3,63,34.3,63C34.3,63,34.3,63,34.3,63C34.3,63,34.3,63,34.3,63z"/>
		<path fill="#FFFFFF" d="M34.2,62.7c0,0,0,0.1,0.1,0.2C34.2,62.8,34.2,62.7,34.2,62.7L34.2,62.7z"/>
		<path fill="#FFFFFF" d="M35.9,65c-0.2,0-0.3-0.2-0.4-0.3c0,0,0-0.1-0.1-0.1c0,0,0,0-0.1,0l0.1,0.1c0.1,0,0.1,0.1,0.1,0.2
			C35.6,65,35.7,65.1,35.9,65c0.2,0.2,0.3,0.4,0.4,0.7C36.2,65.4,36.2,65.2,35.9,65z"/>
		<path fill="#FFFFFF" d="M33.1,64.5c0.2-0.5,0.3-0.9,0.9-0.9c0.1-0.1,0.3-0.2,0.3-0.4c0-0.1,0-0.1,0-0.2c0,0.1-0.1,0.2-0.2,0.3
			c-0.7,0-0.9,0.6-1,1c-0.2,0.4-0.3,0.8-0.8,0.9h-0.1l0.2,0.2C32.8,65.2,33,64.9,33.1,64.5z"/>
		<path fill="#FFFFFF" d="M36.7,66.1c0,0,0.1,0,0.1-0.1c0.1-0.1,0.2-0.2,0.3-0.3c0,0-0.1,0.1-0.1,0.1C36.9,65.9,36.8,66,36.7,66.1z"
			/>
		<path fill="#FFFFFF" d="M35.2,64.7c-0.1,0.1-0.2,0.1-0.3,0.2c-0.3,0.2-0.7,0.4-1,0.7c-0.4,0.2-1,0.3-1.4,0l-0.1-0.2
			c0,0-0.1,0-0.1,0.1l0.2,0.2c0.4,0.2,0.9,0.1,1.3,0c0.3-0.3,0.7-0.5,1-0.7c0.1,0,0.2-0.1,0.3-0.1c0-0.1,0.1-0.1,0.1-0.1
			s0.1,0,0.1-0.1v-0.1C35.3,64.6,35.2,64.6,35.2,64.7z"/>
		<path fill="#FFFFFF" d="M35.7,62.8l-1.6-0.3c0,0.1,0.1,0.1,0.1,0.2l1.5,0.3V62.8z"/>
		<path fill="#FFFFFF" d="M48.7,27.3c-0.1,0-0.1,0-0.2-0.1C48.5,27.3,48.6,27.3,48.7,27.3z"/>
		<path fill="#FFFFFF" d="M47.7,30l-0.6,0.8L47.7,30C47.7,30,47.7,30,47.7,30z"/>
		<polygon fill="#FFFFFF" points="46.1,33.2 47,33.6 46.1,33.2 		"/>
		<path fill="#FFFFFF" d="M46.1,33.2l0.9,0.4v0l0,0l0,0v0.1c0,0,0.5,0.3,0.8,0.5c0.1,0,0.1,0.1,0.2,0.1c0,0,0,0,0,0.1
			c0.1,0.1,0.3,0.3,0.6,0.3c0.3-0.1,0.4-0.1,0.4-0.1s0,0-0.2-0.1c-0.2-0.1-0.2-0.1-0.3,0c0,0-0.1,0-0.1,0v-0.1c0,0,0.1,0,0.2-0.1
			c0.2-0.1,0.2-0.1,0.5,0c0.1,0,0.2,0.1,0.2,0.1c0.2,0.1,0.3,0.1,0.4,0c0,0-0.1,0-0.1,0.1c-0.1,0.1-0.7-0.4-0.5-0.1
			c0.1,0.2,0.3,0.3,0.6,0.3c0.3-0.1,0.4-0.1,0.4-0.1s0,0-0.2-0.1c-0.1,0-0.1-0.1-0.2-0.1c0,0,0.1,0,0.1,0c0,0,0.1-0.1,0.1-0.1
			c0.1,0,0.1-0.1,0.1-0.1c0,0,0.1,0,0.2,0.1c0,0,0-0.1-0.1-0.1c0,0,0,0,0,0c0.1-0.1,0.1-0.1,0.3,0c0.1,0,0.1,0.1,0.2,0.1
			c-0.2,0.2-0.2,0.1-0.4,0l0.1,0.1c0.2,0.1,0.3,0.2,0.6,0l0.1-0.1c0,0,0,0,0,0c0,0,0.1,0,0.1-0.1c0,0,0.1,0,0.2,0.1l0.1,0.1
			c0.1,0.1,0.1,0.1,0.2,0.1s0.2,0,0.3-0.1c0.1,0,0.2-0.1,0.3-0.1c0,0,0,0,0,0c0,0-0.1,0-0.1,0c0,0-0.1,0-0.1,0c0,0,0,0,0,0
			c0.4-0.2,0.4-0.3,0.7-0.1c0.3,0.2,0.3,0.2,0.5,0.1c0,0,0,0.1-0.1,0.1c-0.1,0-0.2,0.1-0.3,0.1c0.1,0,0.2,0,0.4-0.1c0,0,0-0.1,0-0.1
			c0,0,0,0,0.1,0c0.1,0,0.1,0,0.1-0.1c0,0,0,0,0.1,0.1c0,0.1,0.1,0.1,0.1,0.1c-0.1-0.1-0.2-0.1-0.1,0.1c0.2,0.1,0.3,0.3,0.6,0.3
			c0.3-0.1,0.4-0.1,0.4-0.1s0,0-0.2-0.1s-0.2-0.1-0.3,0c0,0-0.2,0-0.3-0.1c0,0,0,0,0,0h0.1c0,0,0.1-0.1,0.1-0.1c0.1,0.1,0.1,0,0.1,0
			s0.4-0.1,0.3-0.7l-0.2,0v-0.1l-0.8,0l-0.1-0.2h1.4l-0.2-0.1c0,0-0.9-0.6-0.4-2V31l-1,0.5c0-0.2,0.1-0.4,0.2-0.6l0.1-0.1H53
			c0,0-0.2-0.7,0.1-1.1l0.1-0.1h-0.3c0,0-0.2-0.7,0.1-1.1l0.3-0.1h-0.8v-0.9h-0.2v0.2c-0.1,0-0.1,0-0.3-0.1c-0.3-0.1-0.6,0-0.6,0
			h-0.1l0.1,0.1c0,0,0,0.1,0.3,0.2c0.1,0.1,0.1,0.1,0.2,0.1c0.1,0,0.2,0.1,0.3,0.1v0.3h-0.6c0,0,0,0,0,0.1h-0.1c0,0-0.1,0.1-0.1,0.8
			h-0.1c0,0-0.2-0.7,0.1-1.1l0.1-0.1h-0.3h-0.4v-0.2v-1h-0.2V27l-0.2,0c0,0-0.1,0-0.1-0.1c-0.3-0.1-0.6,0-0.6,0h-0.1l0.1,0.1
			c0,0,0,0,0.2,0.2c0.1,0.1,0.2,0.1,0.2,0.1c0.1,0,0.2,0.1,0.3,0.1v0.7h-0.5h-0.1c0,0-0.1,0.2-0.1,1c0,0.1,0,0.1,0,0.2
			c0,0.1-0.2,0.5-0.2,1.1h0v0.1c0,0-0.1-0.8,0.1-1.3l0.1-0.1h-0.3c0,0,0-0.2,0-0.4c0-0.2,0-0.4,0.1-0.6c0-0.1,0.1-0.2,0.1-0.2
			l0.1-0.1h-0.8v-0.9h-0.2V27l-0.2,0c0,0-0.1,0-0.1,0c-0.3-0.1-0.6,0-0.6,0h-0.1l0.1,0.1c0.1,0,0.1,0,0.3,0.1
			c0.1,0.1,0.2,0.1,0.2,0.1c0.1,0,0.1,0,0.2,0c0,0,0,0-0.1,0c-0.1,0-0.1-0.1-0.2-0.1c0-0.1-0.1-0.1-0.1-0.1c0,0,0,0,0,0l0.6,0.3v0
			v0.4h-0.5c0,0-0.2,0.3-0.2,1.4c0,0.1-0.1,0.3-0.1,0.7L47.7,30c0,0,0,0.1,0,0.1l-1.2,1.4l0.5-0.7l-1.2,1.5l-0.3,0.4h-0.1l-0.1,0.1
			L46.1,33.2L46.1,33.2z M50.3,27.2c-0.1,0-0.1-0.1-0.2-0.1c0,0,0,0,0,0l0.5,0.2C50.5,27.3,50.4,27.2,50.3,27.2z M52.8,28.6
			c-0.2,0.4-0.1,0.8-0.1,1h0C52.6,29.3,52.6,28.9,52.8,28.6L52.8,28.6z M52.9,29.8c-0.2,0.3-0.1,0.8-0.1,1h-0.1
			C52.7,30.5,52.7,30.1,52.9,29.8L52.9,29.8z M52.8,33.4l0.1,0.2l0,0L52.8,33.4z M51.2,30.9V31h-0.1C51.2,30.9,51.2,30.9,51.2,30.9
			v-0.2h0.1c0,0.1,0,0.1,0,0.2H51.2z M49.3,33.3L49.3,33.3h1.2v0.2l-1.7,0v-0.2H49.3z M52,33.6v-0.2h0.6l0.1,0.2L52,33.6z
			 M50.7,33.6v-0.3h0.6l0.2,0.3L50.7,33.6z M53.7,31.8c0,0,0,0.1,0,0.1C53.7,31.8,53.7,31.8,53.7,31.8z M47.2,33.3h1.4v0.2l-1.5,0
			L47.2,33.3z M48.2,34.3c0,0-0.2-0.1-0.4-0.2c-0.1-0.1-0.3-0.2-0.4-0.3c0.2,0.1,0.3,0.2,0.5,0.3C48,34.2,48.1,34.2,48.2,34.3
			C48.2,34.3,48.2,34.3,48.2,34.3z M49.2,34.3c-0.1,0-0.1-0.1-0.2-0.1c0,0-0.1,0-0.1-0.1c0.1,0,0.2,0,0.4,0.1c0.1,0,0.2,0.1,0.2,0.1
			c0,0,0,0,0,0C49.3,34.4,49.3,34.4,49.2,34.3z M51.8,34.4c-0.2,0.1-0.3,0.1-0.3,0c-0.1-0.1-0.1-0.1-0.2-0.2c0,0-0.1,0-0.1-0.1
			c0.1-0.1,0.1-0.1,0.3,0.1c0.3,0.1,0.2,0.2,0.4,0.1C51.9,34.4,51.8,34.4,51.8,34.4z M53.7,34.4C53.7,34.4,53.7,34.4,53.7,34.4
			c-0.1-0.1-0.1-0.2-0.2-0.2c0.1,0,0.1,0,0.3,0.1c0,0,0,0,0,0C53.8,34.4,53.7,34.4,53.7,34.4z M53.1,33.6L53,33.4L53.1,33.6
			L53.1,33.6z M51.8,33.6l-0.3,0l-0.1-0.3l0.4,0l0,0L51.8,33.6z M54.1,33.3L54.1,33.3c-0.2-0.2-0.4-0.5-0.4-1.2
			C53.7,32.7,54,33.1,54.1,33.3z M52.8,31.6c0-0.2,0-0.4,0.1-0.5H53C52.9,31.3,52.8,31.5,52.8,31.6z M51.4,29.4c0,0,0,0.1,0,0.3
			c-0.1,0-0.2,0.3-0.2,0.7C51.2,30.2,51.1,29.8,51.4,29.4z M48.2,28C48.2,28,48.2,28,48.2,28C48.2,28,48.2,28,48.2,28L48.2,28z
			 M48.1,29.1C48.1,29.1,48.1,29.1,48.1,29.1L48.1,29.1C48.1,29.1,48.1,29.1,48.1,29.1z"/>
		<path fill="#FFFFFF" d="M65.4,33.7C65.4,33.7,65.3,33.7,65.4,33.7c-0.7,0-0.9-0.1-0.9-0.1h-0.3c0.2,0,0.4,0,0.6,0.1
			c0.2,0,0.4,0,0.6,0.1c0.4,0,0.7,0.2,0.8,0.4C66.1,34,65.9,33.8,65.4,33.7z"/>
		<path fill="#FFFFFF" d="M63,33.7C63.1,33.7,63.1,33.7,63,33.7c0.1,0,0.6,0,0.9-0.1c0,0-0.1,0-0.1,0C63.5,33.6,63.2,33.7,63,33.7z"
			/>
		<path fill="#FFFFFF" d="M63.9,33.6c0.1,0,0.2,0,0.3,0l0.2-0.1C64.2,33.5,64,33.5,63.9,33.6z"/>
		<path fill="#FFFFFF" d="M66.5,35.7C66.5,35.7,66.6,35.7,66.5,35.7c0.1,0,0-0.1,0-0.1C66.5,35.6,66.5,35.7,66.5,35.7z"/>
		<path fill="#FFFFFF" d="M66.6,35.7c0.1,0,0.2,0,0.4-0.1C66.8,35.7,66.7,35.7,66.6,35.7C66.6,35.7,66.6,35.7,66.6,35.7z"/>
		<path fill="#FFFFFF" d="M61.7,33.3c-0.1-0.1-0.1-0.1-0.1-0.2C61.6,33.2,61.6,33.2,61.7,33.3z"/>
		<path fill="#FFFFFF" d="M63,33.7C63,33.7,63,33.7,63,33.7c-0.7-0.1-1-0.1-1.3-0.4C62,33.6,62.2,33.6,63,33.7z"/>
		<path fill="#FFFFFF" d="M52.2,34.3C52.3,34.2,52.3,34.2,52.2,34.3C52.3,34.2,52.3,34.2,52.2,34.3z"/>
		<path fill="#FFFFFF" d="M52.8,34.5C52.8,34.5,52.8,34.4,52.8,34.5C52.8,34.4,52.8,34.5,52.8,34.5z"/>
		<path fill="#FFFFFF" d="M66.5,35c0-0.2-0.1-0.5-0.3-0.8c0.1,0.2,0.2,0.4,0.2,0.6C66.4,34.9,66.4,34.9,66.5,35
			c-0.1,0.2-0.1,0.4,0,0.6c0-0.1,0-0.2,0-0.4C66.5,35.1,66.5,35.1,66.5,35z"/>
		<path fill="#FFFFFF" d="M61.6,32.9c0-0.2,0.2-0.3,0.4-0.3c0.5,0,1.2-0.1,1.2-0.1h0.1v-0.1c0.1,0,0.1,0,0.3,0h0.1
			c0.4,0.1,1.1,0.2,1.6,0.3c0.2,0.1,0.4,0.1,0.6,0.2l0.5-0.2v-0.2c0,0-0.4,0-0.9-0.2S64.2,32,63.8,32h-0.1c-0.2,0-0.3,0-0.4,0.1
			c-0.1,0-0.1,0.1-0.1,0.1c-0.1,0-0.7,0.1-1.1,0.1c-0.3,0-0.5,0.2-0.6,0.4c0,0.1,0,0.3,0.1,0.4C61.6,33.1,61.6,33,61.6,32.9z"/>
		<path fill="#FFFFFF" d="M52.3,34.2c0,0,0.1,0,0.2,0.1c0,0,0,0,0,0c-0.1,0-0.1,0,0,0.1c0.1,0.2,0.2,0.3,0.6,0.3
			c0.3-0.1,0.4-0.1,0.4-0.1s0,0-0.2-0.1c-0.2-0.1-0.2-0.1-0.3,0c0,0-0.2,0-0.3-0.1c0,0,0,0,0,0c0,0-0.1-0.1-0.2-0.1
			C52.5,34.2,52.4,34.2,52.3,34.2z"/>
		<path fill="#FFFFFF" d="M65.2,33.2l0.8-0.3c0,0-0.1,0-0.1,0l-1,0.3C65,33.2,65.1,33.2,65.2,33.2z"/>
		<path fill="#FFFFFF" d="M67,35.6c0.2,0,0.4-0.1,0.8-0.2c0.2-0.1,0.3-0.2,0.3-0.3c0,0,0-0.1,0-0.1c-0.1,0.1-0.1,0.1-0.3,0.1
			C67.5,35.4,67.2,35.5,67,35.6z"/>
		<path fill="#FFFFFF" d="M64.8,33.6c0.1,0,0.3,0.1,0.5,0.1c0.1,0,0.2,0,0.3,0c0.3,0,0.5,0,0.6,0c0.3,0,0.5,0,0.9,0.2
			c0.4,0.3,0.8,0.7,1,1.1c0.1-0.1,0.1-0.2,0.1-0.3c0-0.4-0.6-1-1.1-1.3c-0.4-0.2-0.6-0.2-1-0.2c-0.1,0-0.3,0-0.5,0
			c-0.1,0-0.3,0-0.4,0l-0.9,0.3C64.5,33.5,64.6,33.6,64.8,33.6z"/>
	</g>
</g>
<g>
	<path opacity="0.2" enable-background="new    " d="M10.4,74.3V25.8c0-12.1,8.2-22.7,19.8-25.8H0v100h30.2
		C18.5,96.9,10.4,86.3,10.4,74.3z"/>
	<path opacity="0.1" fill="#FFFFFF" enable-background="new    " d="M89.6,25.8v48.5c0,12.1-8.2,22.7-19.8,25.8H100V0H69.8
		C81.5,3.1,89.6,13.7,89.6,25.8z"/>
</g>
</svg>
