<?xml version="1.0" encoding="utf-8"?>
<!-- Generator: Adobe Illustrator 23.0.0, SVG Export Plug-In . SVG Version: 6.00 Build 0)  -->
<svg version="1.0" id="Layer_1" xmlns="http://www.w3.org/2000/svg" xmlns:xlink="http://www.w3.org/1999/xlink" x="0px" y="0px"
	 width="100px" height="100px" viewBox="0 0 100 100" enable-background="new 0 0 100 100" xml:space="preserve">
<g id="path92">
	<path fill="#76A1A0" d="M0,100h100V0H0V100z"/>
</g>
<g id="g4742" transform="matrix(1.327434,0,0,1.31406,-152.6165,-177.4317)">
	<g id="path516">
		<path fill="#FFFFFF" d="M130.6,199c0-0.4-0.1-0.4-0.3-0.4h-0.1v-0.2c0.2,0,0.4,0,0.8,0c0.2,0,0.5,0,0.7,0c0.9,0,1.5,0.6,1.5,1.3
			s-0.5,1.3-1.4,1.3c-0.2,0-0.5,0-0.8,0c-0.4,0-0.6,0-0.8,0l0,0h0.1c0.2,0,0.3-0.1,0.3-0.4V199z M131.4,200.5c0,0.4,0.1,0.4,0.4,0.4
			c0.4,0,0.6-0.4,0.6-1.1c0-0.8-0.2-1.1-0.7-1.1c-0.2,0-0.2,0-0.2,0.2v1.6"/>
	</g>
	<g id="path518">
		<path fill="#FFFFFF" d="M135.5,200.2h-0.2c0-0.2-0.1-0.4-0.4-0.4h-0.1v0.6c0,0.3,0.1,0.5,0.5,0.5c0.5,0,0.6-0.2,0.8-0.7h0.2v0.9
			c-0.4,0-1,0-1.9,0c-0.4,0-0.6,0-0.8,0V201h0.1c0.2,0,0.3-0.1,0.3-0.4V199c0-0.4-0.1-0.4-0.3-0.4h-0.1v-0.2c0.2,0,0.4,0,0.8,0
			c0.9,0,1.4,0,1.7,0v0.8h-0.2c-0.1-0.4-0.3-0.5-0.8-0.5c-0.3,0-0.3,0-0.3,0.1v0.8h0.1c0.3,0,0.4-0.2,0.4-0.4h0.2V200.2"/>
	</g>
	<g id="path520">
		<path fill="#FFFFFF" d="M138.9,198.4h0.2v0.9H139c-0.1-0.3-0.3-0.7-0.7-0.7s-0.8,0.3-0.8,1.2c0,0.8,0.3,1.1,0.7,1.1
			c0.5,0,0.7-0.4,0.8-0.7h0.2v1H139l-0.1-0.2c-0.2,0.2-0.5,0.3-1,0.3c-0.7,0-1.3-0.5-1.3-1.4c0-0.9,0.6-1.4,1.4-1.4
			c0.4,0,0.7,0.1,0.9,0.3L138.9,198.4"/>
	</g>
	<g id="path522">
		<path fill="#FFFFFF" d="M141.5,200.2h-0.2c0-0.2-0.1-0.4-0.4-0.4h-0.1v0.6c0,0.3,0.1,0.5,0.5,0.5c0.5,0,0.6-0.2,0.8-0.7h0.2v0.9
			c-0.4,0-1,0-1.9,0c-0.4,0-0.6,0-0.8,0V201h0.1c0.2,0,0.3-0.1,0.3-0.4V199c0-0.4-0.1-0.4-0.3-0.4h-0.1v-0.2c0.2,0,0.4,0,0.8,0
			c0.9,0,1.4,0,1.7,0v0.8H142c-0.1-0.4-0.3-0.5-0.8-0.5c-0.3,0-0.3,0-0.3,0.1v0.8h0.1c0.3,0,0.4-0.2,0.4-0.4h0.2L141.5,200.2"/>
	</g>
	<g id="path524">
		<path fill="#FFFFFF" d="M145.2,198.4c0.1,0,0.3,0,0.6,0c0.2,0,0.4,0,0.6,0v0.2h-0.1c-0.2,0-0.3,0.1-0.3,0.4v1.5
			c0,0.4,0.1,0.4,0.3,0.4h0.1v0.2c-0.2,0-0.4,0-0.7,0c-0.4,0-0.6,0-0.8,0V201c0.2,0,0.3-0.1,0.3-0.4v-1.5l0,0l-0.9,2.1h-0.2
			l-0.9-2.1l0,0v1.4c0,0.5,0.1,0.5,0.4,0.5v0.2c-0.1,0-0.2,0-0.5,0s-0.4,0-0.5,0V201c0.2,0,0.4-0.1,0.4-0.5V199
			c0-0.4-0.1-0.4-0.3-0.4h-0.1v-0.2c0.2,0,0.3,0,0.6,0c0.2,0,0.4,0,0.6,0l0.7,1.7L145.2,198.4"/>
	</g>
	<g id="path526">
		<path fill="#FFFFFF" d="M146.9,199c0-0.4-0.1-0.4-0.3-0.4h-0.1v-0.2c0.2,0,0.4,0,0.8,0c0.3,0,0.6,0,0.8,0c0.7,0,1,0.3,1,0.6
			c0,0.4-0.4,0.6-0.9,0.7l0,0c0.6,0.1,1,0.3,1,0.7c0,0.4-0.3,0.7-1.1,0.7c-0.3,0-0.5,0-0.9,0s-0.6,0-0.8,0V201h0.1
			c0.2,0,0.3-0.1,0.3-0.4L146.9,199L146.9,199z M147.7,200.6c0,0.2,0.1,0.3,0.3,0.3c0.3,0,0.4-0.2,0.4-0.5c0-0.3-0.2-0.6-0.6-0.6
			h-0.2v0.8H147.7z M147.7,199.6h0.2c0.3,0,0.5-0.2,0.5-0.5s-0.2-0.5-0.5-0.5c-0.1,0-0.2,0-0.2,0.1V199.6"/>
	</g>
	<g id="path528">
		<path fill="#FFFFFF" d="M151.5,200.2h-0.2c0-0.2-0.1-0.4-0.4-0.4h-0.1v0.6c0,0.3,0.1,0.5,0.5,0.5c0.5,0,0.6-0.2,0.8-0.7h0.2v0.9
			c-0.4,0-1,0-1.9,0c-0.4,0-0.6,0-0.8,0V201h0.1c0.2,0,0.3-0.1,0.3-0.4V199c0-0.4-0.1-0.4-0.3-0.4h-0.1v-0.2c0.2,0,0.4,0,0.8,0
			c0.9,0,1.4,0,1.7,0v0.8H152c-0.1-0.4-0.3-0.5-0.8-0.5c-0.3,0-0.3,0-0.3,0.1v0.8h0.1c0.3,0,0.4-0.2,0.4-0.4h0.2L151.5,200.2"/>
	</g>
	<g id="path530">
		<path fill="#FFFFFF" d="M153.8,200.5c0,0.4,0.1,0.4,0.3,0.4h0.1v0.2c-0.2,0-0.4,0-0.8,0c-0.4,0-0.6,0-0.8,0V201h0.1
			c0.2,0,0.3-0.1,0.3-0.4V199c0-0.4-0.1-0.4-0.3-0.4h-0.1v-0.2c0.2,0,0.4,0,0.8,0c0.3,0,0.6,0,0.9,0c0.7,0,1,0.3,1,0.7
			s-0.2,0.6-0.6,0.7l0.8,1c0.1,0.2,0.2,0.2,0.3,0.2v0.2c-0.1,0-0.2,0-0.4,0s-0.3,0-0.5,0l-0.8-1.2h-0.2v0.5H153.8z M153.8,199.7
			c0,0,0.1,0,0.2,0c0.3,0,0.5-0.2,0.5-0.5c0-0.4-0.2-0.5-0.5-0.5c-0.1,0-0.2,0-0.2,0.2V199.7"/>
	</g>
	<g id="path532">
		<path fill="#FFFFFF" d="M157.8,198.3h0.2c0,0.1,0,0.1,0,0.2s0,0.1,0.2,0.1h1.8v0.2c-0.4,0.9-0.8,1.9-0.9,2.8
			c-0.1,0.5-0.1,0.8-0.5,0.8c-0.2,0-0.4-0.2-0.4-0.4c0-0.6,0.8-1.8,1.4-2.7h-1.3c-0.3,0-0.4,0.1-0.5,0.6h-0.2L157.8,198.3"/>
	</g>
	<g id="path534">
		<path fill="#FFFFFF" d="M160.6,201.9c0.3-0.2,0.6-0.4,0.6-0.9c-0.1,0-0.1,0.1-0.2,0.1c-0.2,0-0.4-0.2-0.4-0.4
			c0-0.3,0.2-0.4,0.4-0.4c0.4,0,0.5,0.3,0.5,0.7c0,0.5-0.4,0.9-0.9,1.1L160.6,201.9"/>
	</g>
	<g id="path536">
		<path fill="#FFFFFF" d="M163.9,198.8h0.2c0.4,0,0.8,0,1-0.1h0.2v1.9c0,0.3,0,0.4,0.5,0.4v0.2c-0.2,0-0.5,0-0.9,0s-0.7,0-0.9,0V201
			c0.5,0,0.5-0.1,0.5-0.4v-1.2c0-0.3,0-0.3-0.5-0.3v-0.3"/>
	</g>
	<g id="path538">
		<path fill="#FFFFFF" d="M166.9,198.3h0.2c0,0.1,0,0.1,0,0.2s0,0.1,0.2,0.1h1.8v0.2c-0.4,0.9-0.8,1.9-0.9,2.8
			c-0.1,0.5-0.1,0.8-0.5,0.8c-0.2,0-0.4-0.2-0.4-0.4c0-0.6,0.8-1.8,1.4-2.7h-1.3c-0.3,0-0.4,0.1-0.5,0.6h-0.2L166.9,198.3"/>
	</g>
	<g id="path540">
		<path fill="#FFFFFF" d="M170.8,201.2c-0.7,0-1.2-0.4-1.2-1c0-0.4,0.2-0.7,0.7-0.9c-0.5-0.3-0.6-0.6-0.6-1c0-0.6,0.4-1,1.2-1
			c0.7,0,1.1,0.4,1.1,0.8c0,0.3-0.2,0.6-0.6,0.8c0.4,0.3,0.7,0.6,0.7,1.1C172,200.7,171.5,201.2,170.8,201.2z M171.4,198.3
			c0-0.4-0.3-0.7-0.6-0.7c-0.4,0-0.6,0.2-0.6,0.5s0.3,0.5,0.9,0.8C171.3,198.7,171.4,198.5,171.4,198.3z M170.5,199.4
			c-0.3,0.2-0.4,0.5-0.4,0.8c0,0.5,0.2,0.8,0.7,0.8s0.7-0.3,0.7-0.6C171.5,199.9,171.2,199.7,170.5,199.4"/>
	</g>
	<g id="path542">
		<path fill="#FFFFFF" d="M172.9,198.3h0.2c0,0.1,0,0.1,0,0.2s0,0.1,0.2,0.1h1.8v0.2c-0.4,0.9-0.8,1.9-0.9,2.8
			c-0.1,0.5-0.1,0.8-0.5,0.8c-0.2,0-0.4-0.2-0.4-0.4c0-0.6,0.8-1.8,1.4-2.7h-1.3c-0.3,0-0.4,0.1-0.5,0.6h-0.2L172.9,198.3"/>
	</g>
</g>
<g id="g3864" transform="translate(-0.422207,0.257486)">
	<g id="path94">
		<path fill="#F0DC82" d="M96.1,49.7L50.4,21L4.7,49.7l45.7,28.7L96.1,49.7"/>
	</g>
	<g id="path96">
		<path fill="#3F863F" d="M43.7,54.8h14.6c0,0-3.4,2.5-7.1,2.5C47.5,57.2,44.8,56,43.7,54.8"/>
	</g>
	<g id="path104">
		<path fill="#FFFFFF" d="M57.6,48.7C55,49.5,54.7,49.3,53,49c-1.7-0.3-3.2-0.4-4.7-0.1c-1.5,0.3-1.9,0.5-4.5,0.2
			c-0.4,0.4-0.8,1-1.3,2.1s0.2,2.3,1.4,3.6H58c0.5-0.8,0.9-2.1,1-3.4C59.1,50.3,58.2,49.3,57.6,48.7"/>
	</g>
	<g id="path124">
		<path fill="#006FFF" d="M43.6,49.1c2.8,0.3,3.2,0.2,4.7-0.1c1.5-0.3,3-0.2,4.7,0.1c1.7,0.3,2.1,0.5,4.8-0.3
			c-0.8-0.5-0.6-0.5-1.2-1.4c-0.6-1,0.5-2.1,0.5-2.1c-1.4,0.4-2.2,0.4-4.3,0c-2.1-0.4-3-0.3-4.5,0.1c-1.5,0.3-1.9,0.4-3.9,0.3
			C44.6,46.7,45,47.9,43.6,49.1"/>
	</g>
	<g id="path132">
		<path fill="#FFB93C" d="M57,45.2c-1.4,0.4-2.2,0.4-4.3,0c-2.1-0.4-3-0.3-4.5,0.1c-1.5,0.3-1.9,0.4-3.9,0.3c0,0-1.8-3-1.2-4
			s1-2.5,2.6-2.5s7.9-0.1,9.3,0.1c1.5,0.2,2.6,1.8,2.8,3.2C58,43.7,57.6,44.2,57,45.2"/>
	</g>
	<g id="path138">
		<path fill="#863F3F" d="M54.5,54.9c0,0,0.2-0.5,0.1-0.7c0.1-0.3,0.2-0.6,0.1-0.8c-0.5-0.6-0.4-1.3-0.2-1.9
			c0.1,0.1,0.1,0.3,0.2,0.5c0.1,0.7,0,1.5,0.6,2c0.2,0,0.3,0.1,0.5,0.1c-0.1-0.5-0.7-0.6-0.7-1.1c-0.2-0.8,0-1.8-0.6-2.5
			c-0.4-0.1-0.9,0-1.3,0c-0.8,0-1.8,0.3-2.7,0c-0.5-0.4-1.3-0.1-1.8-0.3c-0.5-0.1-0.1-0.6-0.5-0.8c-0.2,0.1-0.1,0.3-0.3,0.4
			c-0.3,0.2-0.8,0.1-1.1-0.1l0,0c-0.1,0.1-0.1,0.3-0.1,0.4c0.1,0.2,0.5,0.2,0.2,0.5c-0.2,0.2-0.4,0.3-0.6,0.4c-0.1,0.1,0,0.2,0,0.3
			c0,0.2,0.1,0.3,0.2,0.4c0.4,0.1,0.9-0.1,1.2,0.1c0.3,0.1,0.5,0.4,0.6,0.6c0.2,0.5,0.3,1.1,0.9,1.3c0,0.5,0,1-0.5,1.2
			c-0.1,0.1-0.1,0.2-0.2,0.2h0.7c0.3-0.3,0.1-0.6,0.3-0.9c0.1,0,0.2,0.2,0.2,0.3c0.2,0.2-0.2,0.4-0.2,0.7h0.6c0-0.2,0.2-0.4,0.1-0.6
			c-0.1-0.3-0.2-0.6-0.1-0.9c0.4-0.1,0.8-0.1,1.2-0.1l0.1,0.1c0.2-0.2,0.5-0.3,0.8-0.4c0.1,0.2,0,0.4,0.1,0.6
			c-0.1,0.4-0.3,0.8-0.7,1c0,0,0,0.1-0.1,0.2h0.7V55c0.2-0.5,0.8-0.6,0.9-1.2c0-0.1,0.2-0.1,0.3-0.1c0.1,0.1,0.3,0.1,0.4,0.2
			c0.1,0.4-0.3,1.1-0.3,1.1h-0.1L54.5,54.9L54.5,54.9z"/>
	</g>
	<g>
		<path fill="#FFD93C" d="M60.7,52.1c-0.1,0-0.2,0.1-0.2,0.1c-0.1,0-0.1,0.1-0.2,0.1c0-0.1,0-0.2,0.1-0.3c0-0.2,0-0.4,0-0.6l0,0
			c0-0.1,0-0.3,0-0.4v-0.1c0-0.1,0-0.2-0.1-0.2c-0.1-0.2-0.1-0.6-0.4-0.4l-0.1,0.1c-0.1-0.4-0.2-0.7-0.4-0.9
			c-0.1-0.1-0.1-0.2-0.3-0.2C59,49,58.9,49,58.8,49v-0.1c0.1-0.2,0.2-0.3,0.1-0.5c0-0.1-0.1-0.2-0.2-0.3l0,0l0,0
			c-0.1-0.3-0.4-0.4-0.7-0.4c-0.1,0-0.2,0.1-0.3,0.2c0-0.1-0.1-0.3-0.1-0.3c-0.1-0.2,0-0.6,0-0.9c0.1,0,0.1,0,0.2,0
			c0.2,0,0.4,0.1,0.5-0.1v-0.1c0.1-0.2,0.2-0.4,0.2-0.6c0-0.4-0.2-0.7-0.5-0.9c0,0,0,0,0.1-0.1c0.3-0.2,0.4-0.4,0.5-0.6
			c0.3-0.4,0.4-1.4,0.2-2.3c-0.1-0.5-0.2-1-0.4-1.4C58,40,57.7,39.4,57.2,39c-1-0.6-2-0.7-2.8-0.4c-0.1,0-0.2,0-0.4,0.1
			c-0.1-0.1-0.1-0.2-0.2-0.2c-0.1-0.3-0.3-0.5-0.6-0.5c-0.2,0.1-0.3,0-0.4-0.2c-0.1-0.1-0.2-0.3-0.5-0.3c-0.3,0.1-0.6-0.1-0.8-0.2
			c-0.3-0.1-0.6-0.3-1-0.2c-0.3-0.1-0.5,0.1-0.7,0.2c-0.1,0-0.1,0.1-0.2,0.1c-0.5-0.1-1,0.1-1.5,0.6c-0.4,0-0.7,0.3-1,0.5
			c0,0.1-0.1,0.1-0.1,0.1c-0.4-0.2-1-0.2-1.5-0.2c-1.5,0.4-2.5,1.7-2.9,3c0,0-0.3,1.1-0.1,1.8c0,0.2,0,0.3,0.1,0.5
			c0.3,0.5,0.6,1,0.8,1.2c-0.2,0.1-0.5,0.2-0.5,0.6c0,0.1,0,0.2,0,0.3c0,0.3,0.1,0.6,0.2,0.8c0.3,0.2,0.6,0.3,0.9,0.2h0.1
			c0,0.4-0.1,0.8-0.3,1.2c-0.1,0-0.1-0.1-0.2-0.1c-0.1-0.1-0.3-0.2-0.5-0.1c-0.3,0.1-0.4,0.3-0.5,0.6c0,0.1,0,0.1,0,0.2l0,0
			c0,0.3,0,0.6,0.2,0.8l-0.1,0.1c-0.1,0-0.1,0.1-0.1,0.1l0,0c-0.1,0.1-0.2,0.1-0.2,0.2c0,0,0,0.1-0.1,0.1c-0.2,0.2-0.3,0.4-0.4,0.7
			c0,0-0.1-0.1-0.2-0.1c-0.1-0.1-0.2-0.1-0.3-0.2h-0.1l-0.1-0.1H41v0.1l0,0l0,0l0,0c0,0.1,0,0.3,0,0.4c0,0,0,0,0,0.1s0,0.2-0.1,0.4
			c-0.1,0.3-0.1,0.5-0.1,0.7c0,0.3,0,0.6,0.1,0.8c-0.2,0-0.3,0.1-0.5,0.1v0.1l0,0h-0.1V53h0.1c0.4,0.1,0.5,0.5,0.7,0.8
			c0.2,0.2,0.3,0.5,0.5,0.7c-0.2,0-0.4,0.1-0.5,0.2c-0.1,0-0.1,0.1-0.1,0.2c0,0.1,0.1,0.1,0.3,0c0.1,0.1,0.2,0.1,0.4,0.2
			c0.4,0.2,0.7,0.7,1.1,1c0.1,0.1,0.2,0.1,0.3,0.1c0,0.3,0.1,0.5,0.2,0.7c0.2,0.1,0.4,0.2,0.6,0.2c0.2,0.1,0.4,0.1,0.6,0l0.1-0.1
			c0.1-0.1,0.2-0.1,0.2-0.3v-0.1c0.5,0.1,0.9,0.3,1.4,0.5c0.6,0.2,1.2,0.5,1.9,0.5l0,0c0,0.3,0.2,0.5,0.4,0.7c0.1,0,0.1,0.1,0.2,0.2
			v0.1h0.1c0.2-0.1,0.2-0.1,0.3-0.2l0.1-0.1h0.1c0.2-0.1,0.4-0.2,0.5-0.1c0.2,0.1,0.3,0.2,0.4,0.4v0.1c-0.1-0.1-0.3-0.2-0.5-0.2
			c0,0,0,0-0.1,0l0,0c-0.1,0-0.1,0-0.1,0h-0.1c-0.2,0-0.3,0.1-0.4,0.3v0.1c-0.2,0.3,0,0.6,0.1,0.9v0.1c0.4,0.4,0.9,0.7,1.5,0.7
			s1.1-0.4,1.4-0.8c0.2-0.2,0.4-0.4,0.6-0.5c0.3-0.5,0.9-0.7,1.5-0.8c0.1,0,0.2-0.1,0.2-0.2v-0.1c0.2-0.2-0.2-0.4-0.2-0.7H54l0,0
			c0.2,0,0.4,0,0.6,0c0.7-0.2,1.4-0.6,2.2-0.3c0,0,0,0.1,0.1,0.1H57l0,0c0,0.1,0,0.1,0.1,0.2c0.4,0,1.1,0.1,1.4-0.4
			c0.1-0.1,0.1-0.2,0.1-0.3c0.1-0.2,0.1-0.5-0.1-0.8c0.1,0,0.1,0,0.2,0c0,0,0.1,0,0.2,0c0.3-0.1,0.5-0.4,0.7-0.6
			c0.1-0.2,0.2-0.3,0.3-0.4l-0.1,0.1L59.7,55c0,0,0,0,0-0.1c0-0.1,0.1-0.1,0.1-0.1c-0.2-0.2-0.4,0-0.6,0c0,0,0,0-0.1,0
			c0.9-0.3,1.5-0.8,1.6-1.4c0.1-0.1,0.1-0.2,0.1-0.3V53v-0.1C60.9,52.6,61,52.4,60.7,52.1z M57.8,53.5c-0.6,1.2-2.2,2.4-4.1,3l0,0
			c0,0,0-0.1,0.1-0.1c-0.1,0-0.2,0-0.3,0s-0.2,0-0.3,0S53,56.2,53,56c0-0.2-0.2-0.3-0.3-0.4c-0.2-0.1-0.2,0-0.3,0.2l0,0
			c-0.1,0-0.2,0-0.2,0c-0.1,0.1-0.1,0.2-0.2,0.4c-0.1,0-0.2-0.2-0.2-0.5c0-0.3-0.1-0.4-0.1-0.4s-0.1,0.1-0.2,0.1
			c-0.2,0-0.2,0.1-0.3,0.3l0,0c-0.1,0.1-0.1,0.2-0.2,0.3c0,0-0.1-0.1-0.1-0.2c-0.1-0.2-0.3-0.2-0.4-0.3c-0.1-0.2-0.1-0.2-0.1-0.2
			s-0.1,0-0.2,0.1c-0.1,0-0.1,0.1-0.2,0.2l0,0c-0.1,0.1-0.2,0.3-0.2,0.5c-0.1,0-0.2,0-0.4-0.1c-0.3-0.1-0.2-0.1-0.4-0.1
			s-0.5,0.2-0.5,0.2v0.1l0,0l0,0h-0.3c-4.1-0.7-4.7-3.6-4.7-5.3v-0.1v-0.1c0.2,0.2,0.5,0.3,0.8,0.3c0.5,0,1-0.4,1-1
			c0-0.4-0.2-0.7-0.6-0.9c0.4-0.2,0.9-0.8,1-2c0.1-1-0.6-1.7-1-2.1c0.4-0.1,0.7-0.5,0.7-0.9c0-0.3-0.2-0.6-0.5-0.8
			c-0.1-0.2-0.3-0.3-0.6-0.3h-0.1c-0.1-0.5-0.1-1.1,0.1-1.4v-0.1l0.1-0.1c0-0.1,0.1-0.1,0.1-0.2c0-0.1,0.1-0.2,0.2-0.3
			c0.1-0.2,0.2-0.3,0.3-0.4c0.1-0.1,0.1-0.1,0.2-0.2c0-0.1,0.1-0.1,0.2-0.2c0.1,0,0.2-0.1,0.4-0.1c0.1-0.1,0.1-0.1,0.2-0.1h0.1
			c0.1,0,0.1,0,0.2,0.1l0.3,0.2c0.1,0.3,0.4,0.6,0.8,0.6c0.3,0,0.5-0.2,0.7-0.4c0.4,0.4,1,0.9,1.4,1c0.2,0.3,0.5,0.4,0.8,0.4
			c0.1,0,0.2,0,0.3,0s0.2,0,0.3,0s0.2,0,0.5-0.2c0.2,0,0.3,0,0.5-0.2c0.2-0.1,0.5-0.3,0.8-0.6c0.1-0.1,0.3-0.3,0.4-0.4
			c0.1-0.1,0.2-0.2,0.3-0.2c0.1,0.2,0.4,0.4,0.7,0.4h0.1h0.1c0.2,0,0.4-0.1,0.5-0.2c0.2-0.1,0.3-0.3,0.3-0.5c0-0.1,0-0.2-0.1-0.3
			c0.6,0.2,1.2,0.6,1.9,1.9c0.5,0.9,0.4,1.7,0.2,2c-0.1-0.1-0.2-0.1-0.3-0.1c-0.5,0-0.9,0.4-0.9,0.9c0,0.3,0.2,0.7,0.5,0.8
			c-0.1,0.1-0.1,0.2-0.2,0.3c-0.3,0.4-0.4,1-0.3,1.8c0.2,0.9,0.6,1.4,1,1.7c-0.5,0.2-0.8,0.6-0.8,1.1c0,0.7,0.6,1.2,1.2,1.2
			c0.2,0,0.5,0,0.7-0.2C58.3,51.8,58.2,52.7,57.8,53.5z"/>
	</g>
	<g id="path256">
		<path fill="#FFD93C" d="M47.5,41.4L47.5,41.4L47.5,41.4"/>
	</g>
	<g>
		<path fill="#FFD93C" d="M62.4,61.1l-1-0.6c-0.2,0.1-0.3-0.1-0.4-0.3c-0.1-0.4,0-0.8,0-1.1L60.9,59c0-0.1,0-0.2,0-0.2l-0.1-0.1
			c-0.1,0.1-0.1,0.4-0.3,0.4h-0.1c0-0.2,0.1-0.5-0.1-0.7c0-0.1,0-0.3-0.2-0.4C60,58,60,58.1,60,58.1V58c0-0.1-0.1-0.3-0.1-0.5l0,0
			c0-0.1-0.1-0.2-0.1-0.3c0,0,0,0-0.1,0c-0.1,0.2-0.4,0.4-0.6,0.4c0,0.1-0.1,0-0.2,0.1c0.2,0.2,0.3,0,0.5,0c0-0.1,0.3-0.1,0.3-0.2
			c0,0.1,0,0.1,0,0.2c-0.1,0.1-0.3,0.2-0.5,0.2c0,0.1-0.1,0-0.2,0.1c-0.1,0-0.2,0.1-0.4,0.2l0,0c-0.1,0-0.1,0.1-0.1,0.1
			s-0.1,0-0.1,0.1c-0.1,0.1-0.1,0.2-0.1,0.3c-0.2-0.3-0.6-0.4-1-0.5c-0.2-0.1-0.6-0.1-0.8,0c0.1,0.2,0.3,0.4,0.3,0.7
			c0.1,0.5,0.1,1,0.4,1.4c-0.1,0-0.3-0.1-0.4-0.1c-0.6,0.1-1,0.1-1.4-0.3c-0.2-0.5-0.3-1.2-0.8-1.4c0,0.1-0.1,0.2-0.1,0.3
			s-0.1,0.2-0.2,0.3l0,0c-0.1,0-0.1,0.1-0.2,0.1c0,0-0.1,0-0.1,0.1c-0.1,0.1,0,0.2,0,0.2s0,0.1-0.1,0.1c-0.2-0.2-0.4-0.3-0.6-0.5
			c-0.2,0,0,0.1-0.1,0.2c-0.1,0.2-0.3,0.4-0.2,0.6c0,0.1,0,0.2,0.1,0.2c0,0,0,0,0,0.1s0.2,0.2,0.2,0.3s0.1,0.1,0.1,0.2h-0.1
			c0-0.1,0-0.2-0.1-0.2c-0.6-0.1-1.1,0.3-1.8,0.3c0.1,0.3,0.3,0.6,0.6,0.7c0.3,0.1,0.7,0.2,1.1,0.2C53,61.8,53,61.9,53,62.1
			c-0.1,0.2,0,0.4,0.1,0.6c0.1,0.4,0.3,0.7,0.3,1.1c0.1,0,0.1-0.1,0.2-0.1c0.2-0.2,0.5-0.5,0.4-0.8c0.1,0.1,0.1,0.2,0.2,0.4
			c0,0.1,0.1,0.1,0.2,0.1l0,0c0.1,0,0.1,0.1,0.2,0.1c0.4,0,0.7-0.1,0.9-0.4c0-0.2-0.3-0.1-0.4-0.2c-0.3-0.4-0.1-0.9,0.1-1.3
			c0,0,0.1-0.1,0.2-0.2l0,0c0.1,0,0.1,0,0.2,0c-0.2,0.4-0.2,0.8,0,1.1c0,0.1,0.1,0.3,0.2,0.3c0-0.1,0-0.1,0.1-0.1l0,0
			c0-0.1,0-0.1,0.1-0.1c0,0,0.1,0.2,0.2,0.2h0.1l0,0l0,0c0.1,0,0.1,0,0.2-0.1c0-0.5,0.1-1,0.6-1.2c0,0,0,0,0.1,0s0.1,0,0.2,0
			c-0.2,0.2-0.2,0.5-0.2,0.7c0.2,0.3,0.4,0.6,0.8,0.7l0,0l0,0c0.1,0,0.2,0,0.3,0c0.1-0.2,0-0.3,0.2-0.5c0.6-0.6,1.5-0.4,2.3-0.4H61
			l0,0L62.4,61.1L62.4,61.1z"/>
		<path fill="#FFD93C" d="M52.6,62.8c-0.2,0-0.3,0.2-0.4,0.1c-0.1-0.2-0.1-0.5,0-0.7c0-0.1,0-0.1,0-0.2l0,0c0-0.1,0.1-0.2,0.1-0.3
			c-0.3,0-0.6,0.1-0.9,0.3c-0.1-0.1-0.1-0.2-0.1-0.3c-0.1-0.2-0.3-0.4-0.4-0.9c-0.2,0.1-0.3,0.4-0.5,0.5c0,0.1,0,0.2-0.1,0.3
			c0,0-0.1,0-0.1-0.1l0,0c0-0.2-0.2-0.1-0.2-0.1c-0.1,0-0.2-0.1-0.3-0.1c0.1,0,0.1-0.1,0.2-0.1h-0.1c0.1-0.1,0.2-0.2,0.3-0.3
			c0-0.1-0.1,0-0.2-0.1c-0.6-0.2-1.1-0.6-1.6-0.8c0-0.3-0.2-0.7-0.1-1c0,0-0.1-0.1-0.1,0l0,0c0-0.2-0.1-0.4,0-0.6H48
			c-0.2,0.4-0.5,0.5-0.9,0.6c-0.1-0.3-0.3-0.6-0.6-0.8c-0.2,0.1-0.3-0.2-0.4,0c0.2,0.4,0.1,0.8-0.2,1.1c-0.4,0.4-0.9,0.4-1.4,0.6
			c0,0,0-0.1,0.1-0.1l0.1-0.3c0-0.5-0.2-1,0.1-1.5c-0.1,0-0.2,0-0.3,0c0-0.2,0-0.4,0.2-0.6c-0.5-0.1-1,0.2-1.4,0.4
			c-0.1-0.2-0.2-0.4-0.4-0.5c-0.2,0-0.5,0-0.7-0.2c-0.1,0-0.1,0.1-0.1,0.2l0,0c-0.1,0.3-0.1,0.7,0,1.1c-0.2,0-0.4-0.2-0.5-0.1
			c-0.2,0-0.3,0.1-0.5,0.2L41,58.9l0,0l0,0c0,0,0.2,0.1,0.3,0.2h-0.1l-0.1,0.4c0,0,0.1,0,0.3,0.1c-0.1,0.4-0.3,0.9-1,1.2
			c-0.8,0.3-1.5,0.2-2.1,0.3c-0.1,0-0.1,0-0.2,0l0.2,0.1v0.5h0.2c0,0,0.4,0,0.6-0.1l0.9,0.5c0.3,0,0.7-0.1,1,0
			c0.4,0.1,0.8,0.2,1.1,0.5L42,62.7c0.1,0.2,0.4,0.1,0.5,0.1c0.2-0.1,0.5-0.3,0.5-0.2c0,0.1-0.4,0.3-0.6,0.5c-0.1,0.1-0.1,0.1,0,0.1
			c0,0.1-0.3-0.1-0.3,0.1c0.1,0.2,0.4,0.1,0.5,0.1c0.3-0.1,0.5-0.4,0.6-0.8c0-0.2-0.1-0.4-0.1-0.6c0.3,0,0.9-0.1,1,0.4v0.1l0,0
			c0.1,0.2,0.1,0.4,0.1,0.6c0.2,0.1,0.4,0.1,0.6,0c0.2-0.1,0.2-0.2,0.4-0.3c0.1,0,0.1-0.1,0.1-0.2c0-0.2,0-0.5,0-0.7
			c0.2-0.1,0.4,0.1,0.6,0.2c-0.1,0.2-0.2,0.4-0.1,0.7c0,0,0.1,0,0.1,0.1c-0.1,0.2-0.1,0.4,0,0.5c0.2,0.1,0.4,0.2,0.6,0.1
			c0.3,0,0.5-0.4,0.8-0.4v0.1c0,0.1,0.1,0.1,0.1,0.2c0.2,0.4,0.5,0.7,0.9,0.7c0-0.7,0.7-1.2,0.3-1.9c0.3,0,0.5,0,0.8-0.1l0.1,0.1
			c-0.1,0-0.1,0-0.2,0l0.1,0.1c0.1,0.1,0.1,0.1,0.2,0.2c0,0.1,0,0.2,0,0.3c0,0,0,0.1-0.1,0.1c-0.1-0.1-0.2-0.1-0.2-0.2
			c-0.2,0-0.3,0.1-0.4,0.2c0,0.1,0,0.2,0,0.2s0,0.1-0.1,0.1c-0.1,0.2,0,0.3,0,0.5l0,0c0,0,0,0,0,0.1c0,0.1,0.1,0.3,0.2,0.3
			c0.1,0,0.1,0,0.2,0c0.5,0.3,0.8-0.2,1.2-0.4c0,0,0.1,0,0.1,0.1v0.1c0.1,0.1,0.1,0.2,0.3,0.2c0,0,0,0,0-0.1c0,0,0,0,0.1,0.1
			c0.2,0,0.3-0.4,0.6-0.4v0.1c0.1,0.1,0.2,0.1,0.3,0.1c0.2,0.1,0.4,0.2,0.6,0.2c0.2,0,0.4-0.2,0.5-0.3c0-0.1,0-0.2,0-0.2
			s0.1,0,0.1-0.1s0.1-0.3,0-0.5C53,62.9,52.8,62.8,52.6,62.8z"/>
		<path fill="#FFD93C" d="M38.1,61.1L38.1,61.1L38.1,61.1z"/>
	</g>
	<g id="path318">
		<path d="M55.3,41.1L55.3,41.1L55.3,41.1L55.3,41.1L55.3,41.1L55.3,41.1"/>
	</g>
	<g id="path340">
		<path d="M54.8,41.3L54.8,41.3L54.8,41.3L54.8,41.3L54.8,41.3"/>
	</g>
	<g id="path348">
		<path d="M54.9,42L54.9,42L54.9,42L54.9,42"/>
	</g>
	<g id="path354">
		<path d="M56.8,43.9L56.8,43.9L56.8,43.9"/>
	</g>
	<g>
		<path d="M43.3,44.5L43.3,44.5C43.3,44.5,43.3,44.4,43.3,44.5z"/>
	</g>
	<g>
		<path fill="#FFFFFF" d="M69.1,59.9L69.1,59.9L69.1,59.9L69.1,59.9z"/>
		<path fill="#FFD93C" d="M72.1,62c0-0.7-0.7-1.2-1.3-1.4c-0.2-0.1-0.3-0.1-0.4-0.2c0,0,0-0.1,0.1-0.1c0.3-0.3,0.6-0.7,0.6-1.1
			c0.1-0.5-0.2-1-0.5-1.5c-0.3-0.2-0.5-0.3-0.7-0.3c-0.2-0.1-0.4-0.1-0.6,0c-0.1,0-0.3,0-0.4,0.1s-0.1,0.1-0.2,0.2
			c-0.1,0-0.1,0.1-0.2,0.1c-0.1,0.1-0.6,1.2-0.4,1.5c0.2,0.3,0.4,0.4,0.7,0.4c0.2,0,0.3,0,0.4,0c-0.2,0.4-0.6,0.7-1,0.9
			c-0.3,0.2-0.6,0.3-0.8,0.3C66.9,61,66.7,61,66.7,61l0,0c-0.1,0-0.2,0-0.2,0l-1.9,1.5c0,0,0.1,0.2,0.4,0.2c0.1,0,0.3,0.1,0.6,0
			c0.7-0.1,1.8-0.3,1.8-0.3c0.4,0,0.6-0.2,1-0.2c0.2,0,0.4-0.1,0.6-0.1s0.4-0.1,0.7-0.1c-0.2,0.3-0.3,0.7-0.2,1
			c0.2,0.2,0.4,0.4,0.7,0.5c0.1,0,0.3,0,0.4,0c0.4,0,0.8-0.1,1.1-0.4C71.9,62.8,72.3,62.4,72.1,62z"/>
		<path fill="#FFD93C" d="M34.2,61l-1-0.4l-0.7-0.5c-0.2-0.1-0.5-0.3-0.7-0.6c0.1,0,0.1,0,0.2,0h0.1l0,0h0.1
			c0.4-0.1,0.6-0.6,0.6-0.9v-0.1l0,0v-0.1c-0.2-0.4-0.5-0.8-0.9-1c-0.3-0.1-0.5-0.1-0.7-0.1s-0.5,0.1-0.8,0.2l-0.1,0.1
			c-0.1,0.1-0.1,0.1-0.2,0.2C30,57.9,30,58,29.9,58.1c0,0.1-0.1,0.1-0.1,0.2c-0.1,0.9,0.2,1.7,0.9,2.2l-0.3,0.1
			c-0.4,0.3-0.7,0.7-0.8,1.1c-0.1,0.5,0.1,1,0.4,1.4L29.9,63c0,0.2,0.1,0.3,0.4,0.4c0.2,0.1,0.4,0.2,0.6,0.2s0.4,0,0.6-0.1
			c0.2,0,0.3-0.3,0.4-0.5c0.1,0,0.1-0.1,0.1-0.1c0.1-0.3,0-0.7-0.3-1c0.4,0.1,0.8,0.2,1.2,0.3s0.7,0.2,1.1,0.3l0.1,0.1l0.1-0.1
			c0.2,0,0.3,0,0.5,0l2.2,0.4c0-0.1,0-0.1,0-0.1L34.2,61z"/>
		<path fill="#FFFFFF" d="M71.8,62.4c-0.1,0.1-0.1,0.2-0.2,0.3c0,0.1-0.1,0.1-0.1,0.2c-0.2,0.4-0.8,0.4-1.2,0.4
			c-0.3-0.1-0.5-0.3-0.6-0.5c-0.1-0.3,0-0.6,0.1-1c-0.3,0-0.5,0.1-0.9,0.3c-0.2,0-0.4,0.1-0.7,0.1c-0.1,0-0.3,0.1-0.4,0.1
			s-0.3,0.1-0.5,0.1c0,0,0,0-0.1,0l-1.9,0.2l-0.5-0.2c0.5-0.3,0.8-0.5,1.2-0.8c0.1-0.1,0.2-0.1,0.3-0.2c0.2-0.2,0.3-0.3,0.5-0.4
			c-0.6-0.5-1-0.8-1.4-0.9c-0.6-0.3-1.1,0-1.6,0.3c-0.1,0-6.5,4.2-13.3,4.6c-0.5,0-1.1,0-1.6,0c-0.2,0-0.3,0-0.5,0s-0.3,0-0.5-0.1
			c-0.2,0-0.4-0.1-0.6-0.1c-0.1,0-0.3-0.1-0.4-0.1c-0.3-0.1-0.5-0.1-0.8-0.2c-0.1,0-0.2,0-0.3-0.1c-4.5-1.2-8.4-3.8-9.2-4.2
			c-1.1-0.5-0.9-0.5-1.5-0.1c-0.6,0.4-1.1,0.2-1.8,0.5l0.2,0.1c-0.1,0-0.2,0.1-0.3,0.1L33,61.1l1,0.4c0.2,0.1,0.8,0.6,1.8,1.3
			L34,62.4c0.1,0.2,0.2,0.4,0.2,0.6c0,0.1-0.1,0.2-0.2,0.3c-0.9,0-0.9,0.7-1.1,1.3c-0.2,0.2-0.3,0.4-0.4,0.5c-0.1,0-0.2,0.1-0.3,0.1
			l0.2,0.3c0.4,0.3,1,0.2,1.4,0c0.4-0.4,0.8-0.5,1.3-0.8c0-0.1,0.2-0.1,0.2-0.2c0.1,0,0.2,0,0.2,0.1c-0.1,0-0.1,0-0.1,0s0,0-0.1,0
			l0.1,0.1c0.1,0,0.1,0.1,0.1,0.2c0.1,0.1,0.2,0.2,0.4,0.1c0.1,0.1,0.2,0.3,0.2,0.3l0.4,1c0,0,0.5-0.5,0.7-0.8v0.1
			c0.1-0.1,0.1-0.1,0.2-0.2v-0.1c0.1-0.4,0.1-0.7-0.1-1.1c0-0.1-0.1-0.3-0.2-0.4c0-0.1-0.1-0.2-0.1-0.3v-0.1c0-0.1,0-0.1,0-0.2
			c3,1.9,8,4.3,13.4,4.4c0.1,0,0.2,0,0.3,0c5.6,0,10.1-2.5,12.6-4.1c0.2,0.3,0.1,0.8,0,1.1C63,65,62.4,66.1,63,67.1v0.2l0.1-0.1
			c0.1-0.2,0.2-0.3,0.4-0.5c0.1,0,0.1,0.1,0.1,0.1c0.1-0.2,0.2-0.3,0.3-0.4c0.1,0,0.1-0.1,0.2-0.1c0.4-0.2,0.7-0.3,0.9-0.6
			c0.1-0.1,0.2-0.1,0.3-0.2c0.5,0.1,1.1,0.6,1.3,1.1c0.1,0,0.1,0,0.1,0.1c0.1,0.1,0.1,0.2,0.2,0.2H67v-0.1c0.1-0.1,0.1-0.2,0.2-0.3
			s0.2-0.2,0.2-0.3c0.1,0.1,0.1,0.3,0.2,0.3c0.1-0.2,0.4-0.5,0.4-0.8c0-0.1,0-0.1,0-0.2c0,0,0-0.1,0-0.2c0.1-0.2,0-0.4-0.1-0.6
			c0-0.1-0.1-0.2-0.1-0.3c0-0.1,0-0.1,0-0.1c-0.1-0.1-0.1-0.2-0.1-0.3c-0.3-0.3-0.3-0.7-0.3-1v-0.1c0.1,0,0.1,0,0.2-0.1
			c0.1,0,0.3-0.1,0.4-0.1c0.3,0,0.6,0,0.8-0.1c0.2,0,0.4-0.1,0.6-0.1c-0.1,0.2-0.2,0.6-0.1,0.9c0.1,0.3,0.3,0.5,0.7,0.6
			c0.5,0,1.1-0.1,1.4-0.5c0-0.1,0.1-0.1,0.1-0.2C71.7,63.1,71.9,62.7,71.8,62.4z"/>
		<g>
			<path fill="none" d="M64.1,51.9c0,0.2-0.1,0.6-0.3,1c-0.2,0.7-0.3,1-0.2,1.5c0.2,0.3,0.1,0.6,0,0.9c0,0.1-0.1,0.2-0.1,0.3
				c-0.1,0.4-0.1,0.8,0,1.3c0.1,0.5,0.1,0.9-0.1,1.4c-0.1,0.5-0.2,1.1-0.2,1.6l0,0l1.2-2.1c0-0.3,0-0.6,0-0.8c0-0.2,0-0.4,0-0.6
				c0-0.1,0-0.2,0-0.2c-0.1-0.4-0.1-0.8,0-1l0,0c0-0.1,0-0.1,0.1-0.2c0.1-0.2,0.1-0.2,0.1-0.2v-0.1c0,0,0.1-0.2,0-1
				C64.5,53.2,64.2,52.3,64.1,51.9z"/>
			<path fill="none" d="M63.3,43.9c0-0.1,0-0.1,0.1-0.2c0.1-0.4,0.1-0.5,0.1-0.6l0,0c0-0.1-0.1,0.1-0.3,0.3c0,0.3-0.1,0.8-0.2,1.1
				c-0.2,0.4-0.6,0.9-0.9,1.1c0.2,0,0.3-0.1,0.4-0.2c0.1-0.1,0.1-0.2,0.2-0.2v-0.1l0,0l0.1-0.1l0,0l0,0c0.1-0.2,0.2-0.3,0.3-0.5l0,0
				l0.1-0.5L63.3,43.9z"/>
			<path fill="none" d="M63.3,60.3l0.3-0.7c-0.1,0.3-0.3,0.6-0.5,0.8c-0.1,0.2-0.3,0.5-0.4,0.6l0.3-0.3L63.3,60.3z"/>
			<path fill="#FFFFFF" d="M70.7,48.2c0-0.1,0-0.2,0-0.2S70.7,48.1,70.7,48.2z"/>
			<path fill="#3F863F" d="M70.5,47.4l0.8-1.6l-0.1-0.1l-0.1-0.1L71,45.5l-0.8,1.4c-0.2-0.3-1.3-2-1.4-2.7c-0.1-0.6-0.4-0.9-0.5-1
				c0-0.1,0.1-0.8,0.3-2c0.3-1.3-0.2-2.8-0.2-2.9l0,0c0-0.1-0.1-0.2-0.3-0.2c0.1-0.1,0.1-0.2,0-0.1c-0.2-0.1-2.4-1.1-2.5-1.2
				l0.2-0.5c0.2,0,0.5-0.2,0.6-0.5c0-0.1,0-0.1,0-0.2c0-0.1,0-0.1,0.1-0.2c0,0.1,0.5,0.1,0.5,0.2c0.2,0,0.4-0.1,0.8-0.2
				c0.1-0.1,0.2-0.1,0.2-0.2c0.1-0.1,0.2-0.3,0.1-0.4v-0.1c0-0.3-0.3-0.7-0.7-1c0.2,0,0.4,0,0.6,0c0.4,0,0.5-0.1,0.5-0.4
				c0.1-0.3-0.5-0.9-1-1c-0.5-0.1-0.8,0.1-1.1,0.2c0,0-0.1,0-0.1,0.1v-0.1c0,0-0.4,0-0.9-0.2c-0.5-0.2-1.2-0.3-1.6-0.3h-0.1
				c-0.2,0-0.3,0-0.4,0.1c-0.1,0-0.1,0.1-0.1,0.1c-0.1,0-0.7,0.1-1.1,0.1c-0.3,0-0.5,0.2-0.6,0.4c0,0.1,0,0.2,0.1,0.3
				c0,0.1,0,0.2,0.1,0.4c0.4,0.3,0.6,0.3,1.3,0.4c0,0.1-0.1,0.2-0.1,0.2c0,0.1,0,0.1,0,0.2v0.1c0,0.1,0,0.1,0,0.2l0,0
				c0,0-0.1,0-0.1,0.1c-0.2,0.2-0.3,0.5-0.3,0.5v0.1c0,0,0,0,0.1,0.1v-0.1c0.1,0,0.2,0.1,0.2,0.1l0.1,1.1c0,0.1,0.2,0.4,0,0.4
				c-0.1,0.1-0.2,0.1-0.4,0.2c-0.2,0.1-0.4,0.2-0.6,0.2c-0.1,0-0.3,0-0.5,0c-0.3,0-0.6-0.1-1.1,0c-0.2,0-0.4,0.1-0.4,0.2
				c-0.2,0.1,0,0.4,0.1,0.5L59.9,38c-0.1,0.1-0.2,0.2-0.2,0.3c-0.1,0.2-0.1,0.5-0.5,1c-0.6,0.8-1.1,1.4-1.1,1.4v0.1l0.1,0.1
				c0,0,0,0,0,0.1c0,0.2,0.1,0.6,0.3,1.3v0.1c0,1.2-0.3,1.7-0.3,1.7c0.7,1.3,2.2,1.8,2.3,1.8h-0.1c0,0,0.1,2.1-0.2,2.9
				c-0.1,0.4-0.2,0.6-0.2,0.8c0-0.1,0-0.3-0.1-0.5l0,0c-0.2,0.5-0.2,0.5-0.1,0.8c0,0.1,0,0.1,0.1,0.1h-0.1h-0.1c0,0,0.3,0.1,0.7,0.2
				c0,0.2,0,0.4,0.1,0.7c0,0.2,0.1,0.6,0.2,0.9c0.1,0.2,0.2,0.4,0.2,0.6s0,0.3,0,0.5c0,0.2,0,0.3,0,0.5c0.1,0.4,0.2,0.9,0.2,1v0.1
				L61,54.6l0,0v0.1h-0.1v0.9c0.3,0.3,0.3,0.8,0.3,1.2c0,0.1,0,0.2,0,0.4s0.1,0.5,0.2,0.7c0.1,0.2,0.2,0.5,0.2,0.7v0.1
				c0,0.7,0,1.3-0.2,2v0.1h0.1c0.3,0.2,0.7,0.2,1,0.2l0,0l0,0c0.1,0,0.1,0,0.2,0c0.2-0.2,0,0,0,0s1-0.6,1.4-0.8
				c0.3-0.3,0.9-0.3,1-0.2c0,0,1,0.3,1.6,0.9c0,0.1,1.1-0.1,1.4-0.2l0.1-0.1c0,0-0.5-0.3-1-0.6c-0.5-0.3-0.5-0.9-0.4-1.3
				c0.1-0.3,0.2-1.1,0.2-1.7c0-0.2,0-0.4,0-0.5v-0.2c0-0.2,0-0.3,0-0.4s0.1-0.2,0.1-0.3c0.1-0.5,0-0.8-0.1-0.9l2.6-5.2
				c0.1,0,0.3,0,0.5-0.1h0.1c0.2-0.1,0.4-0.9,0.5-1.3c0,0,0-0.1,0-0.2l0,0l0,0C70.7,47.7,70.5,47.4,70.5,47.4z M60.3,42.6
				c-0.4-0.4-0.2-0.4,0.1-0.7c0.1-0.1,0.4-0.5,0.4-0.5s0,0.2,0.3,0.8c0.2,0.4,0.3,1.1,0.4,1.4c-0.1,0-0.2,0-0.2,0.1
				c0,0-0.1-0.1-0.3-0.2C60.8,43.3,60.6,42.9,60.3,42.6z M64.6,54.7L64.6,54.7c0,0.1-0.1,0.2-0.1,0.3c0,0.1,0,0.1-0.1,0.2l0,0
				c-0.1,0.2-0.1,0.6,0,1c0,0,0,0.1,0,0.2c0,0.2,0,0.4,0,0.6c0,0.2,0,0.5,0,0.8l-1.2,2.1l0,0c0-0.5,0.1-1.1,0.2-1.6
				c0.2-0.5,0.2-0.9,0.1-1.4c-0.1-0.5-0.1-0.9,0-1.3c0-0.1,0.1-0.2,0.1-0.3c0.1-0.3,0.2-0.6,0-0.9c-0.1-0.5,0-0.8,0.2-1.5
				c0.2-0.4,0.3-0.8,0.3-1c0.1,0.4,0.4,1.3,0.5,1.8C64.7,54.5,64.6,54.7,64.6,54.7z M67.7,46.9c0.4,0.8,0.7,1.3,0.7,1.3l0.1-0.1
				c0,0,0-0.2,0-0.4c0.1,0.1,0.2,0.2,0.2,0.3c0.1,0.1,0.3,0.5,0.3,0.5h0.1v0.1h0.2c0,0,0,0.1-0.1,0.2c-0.1,0.1,0,0.1,0.1,0.3
				l-1.8,3.3c0-0.1,0-0.2,0-0.2c-0.1-1.1-0.2-1.5-0.3-1.7c0.1-0.1,0.5-0.1,0.8-0.3c0.1,0,0.1-0.1,0.1-0.3c0-0.1,0-0.1,0-0.1l0,0
				c0-0.1,0-0.2-0.1-0.3v-0.1l0,0c-0.1-0.3-0.3-0.7-0.5-1.2c-0.2-0.5-0.4-0.9-0.5-1.2c0.1,0,0.1,0,0.1-0.1c0.1,0,0.2-0.1,0.2-0.1
				s0,0,0-0.1s0-0.1,0-0.3c0-0.1,0-0.1,0-0.1C67.5,46.4,67.6,46.6,67.7,46.9z"/>
		</g>
	</g>
</g>
<g>
	<path opacity="0.2" enable-background="new    " d="M10.4,74.3V25.8c0-12.1,8.2-22.7,19.8-25.8H0v100h30.2
		C18.5,96.9,10.4,86.3,10.4,74.3z"/>
	<path opacity="0.1" fill="#FFFFFF" enable-background="new    " d="M89.6,25.8v48.4c0,12.1-8.2,22.7-19.8,25.8H100V0H69.8
		C81.5,3.1,89.6,13.7,89.6,25.8z"/>
</g>
<path fill="#A8393A" d="M42.9,44.4l-0.7-1.2v-1.4c0,0,0.1-0.4,0-0.8c0-0.2-0.2-0.5-0.4-0.9c-0.2-0.3-0.3-0.7-0.4-0.9
	c-0.1-0.4-0.2-0.5-0.3-0.6L41,38.5c-0.1-0.1-0.1-0.2-0.3-0.5c0-0.1,0-0.2-0.1-0.3c-0.2-0.5-0.5-0.6-0.9-0.5c-0.1,0.1-0.2,0-0.3-0.1
	L39.3,37c-0.2-0.2-0.3-0.2-0.5-0.2c-0.1-0.1-0.2-0.1-0.3-0.1c-0.2,0-0.3-0.1-0.4-0.1c0.1,0,0.2-0.1,0.2-0.2l0,0c0,0,0.1,0,0.1-0.1
	c0.1,0,0.1-0.1,0.1-0.2V36c0-0.1,0-0.3-0.1-0.4c0.1-0.1,0.1-0.1,0.2-0.2c0,0,0.1,0,0-0.1v-0.1c0,0,0.1,0,0.1-0.1s0-0.2-0.1-0.3
	c-0.1-0.2-0.2-0.3-0.2-0.4c0.3-0.1,0.3-0.1,0.3-0.1c0.1,0,0.1,0,0.5,0c0.2-0.2,0.4-0.4,0.3-0.7c0-0.1-0.1-0.1-0.1-0.2c0,0,0,0,0,0.1
	v-0.1c0,0,0,0,0.1,0.1c0-0.1-0.1-0.2-0.3-0.3C39,33,38.9,33,38.7,33c-0.1,0-0.3,0-0.6,0.1c-0.1-0.2-0.2-0.2,0,0l0,0
	c-0.2-0.2-0.5-1-0.8-1c-0.1,0-0.2,0-0.4,0h-0.1c-0.4,0-1.1,0.2-1.7,0.4c-0.5,0.1-0.9,0.3-1,0.4c-0.3,0.2-0.2,0.2-0.2,0.4
	s0.1,0.3,0.2,0.6c-0.1,0-0.2,0.1-0.3,0.1c-0.6,0.3-1,0.5-1,0.7l0,0l0,0l0,0c0,0.1,0,0.1,0,0.2c-0.2-0.1-0.4-0.2-0.6-0.2
	c-0.5,0-0.8,0.7-0.8,0.7H31c0.1,0-0.2-0.3-0.5-0.3c-0.5,0-1,0.4-1,1c0,0.1,0,0.2,0,0.3l0.2,1.2l1.7-0.3l0.1,0.6L31.4,38
	c-0.2,0.2-0.4,1.1-0.4,1.1l0,0v0.1c0,0-0.1,0.1-0.3,0.1c-0.3,0-0.3,0.2-0.3,0.3c0,0-0.1,0.1-0.1,0.2c-0.1,0.3,0,0.4,0,0.6v0.1
	c0,0.2,0.7,2.1,1,3c0.3,0.7,0.5,0.8,1.1,0.8c0.1,0,0.2,0,0.3,0l1,5.4v0.1c-0.2,0.8-0.4,2-0.7,2.8c-0.4,1,0,2.4,0.4,3.7
	c0.1,0.2,0.1,0.5,0.2,0.8c0.4,1.4,0.3,2.3,0.3,2.3l0.2,0.1c-0.1,0.1-0.4,0.3-0.6,0.4c-0.4,0.2-0.4,0.3-1,0.5
	c-0.3,0.1-0.4,0.1-0.4,0.2c-0.1,0,0,0.1,0,0.1l0,0c0,0,0.1,0.1,0.1,0.2l0.6,0.4c0,0,0-0.1,0.1-0.1l0,0c0.1,0,0.1-0.1,0.2-0.1
	L32.9,61c0.1-0.1,0.3-0.2,0.5-0.2c0.3-0.1,0.9,0,1.3-0.3c0.5-0.3,0.5-0.3,0.5-0.3l1.1,0.5l0,0l0,0l0.5,0.2v-0.1l0,0v-0.1l-0.3-0.8
	c0,0,0,0,0.1,0h0.1v-0.1c0,0,0,0,0.1,0c0.3,0-0.2-1.4-0.3-2.6c-0.1-1.2-0.1-0.8-0.2-1.7c-0.1-0.9-0.4-1.3-0.4-1.3s0-0.4,0-0.5
	c0-0.2,0-0.5,0.2-0.9c0.2-0.3,0.2-0.4,0.3-0.6l0,0c0-0.1,0.1-0.1,0.1-0.2l0,0c0.1-0.1,0.2-0.5,0.3-0.7c0,0.1,0,0.1,0,0.2
	c0.1,0.2,0.1,0.4,0.1,0.7c0,0.5,0.1,1.1,0.2,1.6c0,0.1,0.1,0.2,0.1,0.3c0.2,0.5,0.2,0.7,0.2,1.4c-0.1,0.8,0,1.1,0.3,2.2
	c0.3,0.8,0.2,1.2,0.1,1.5c-0.1,0.1-0.1,0.3-0.1,0.4c0,0.3,0.1,0.4,0.3,0.6c0,0,0,0,0,0.1s0,0.2-0.1,0.5c-0.1,0.4,0.2,0.5,0.2,0.5
	c0.1,0.1,0.2,0.2,0.2,0.2c0-0.1-0.1-0.1-0.1-0.2c0.2,0,0.7,0.1,1.3,0c0.8-0.1,1.2-0.7,1.2-0.7l-0.2-0.1c0.1-0.3,0.1-0.8,0.1-1.5
	c0-0.4,0-0.8,0-1.2c0-0.9-0.1-1.2-0.2-1.8c-0.1-0.3-0.2-0.6-0.3-1.1c-0.2-1.2-0.1-1.4,0-1.9c0-0.1,0.1-0.2,0.1-0.3
	c0.1-0.5,0.1-0.6,0.1-0.9c0-0.2,0-0.4,0.1-0.8c0.1-0.3,0.1-0.4,0.1-0.5c0-0.2,0-0.3,0.1-1.3c0.1-1.5-0.2-1.9-0.2-1.9l0,0
	c0-0.1-0.1-0.2-0.1-0.2s-0.2-0.3-0.6-0.5c-0.1,0-0.1-0.1-0.2-0.2c0-0.2,0.1-0.5,0.1-0.5l-0.1-0.1v-0.1c0.2,0.1,0.3,0.3,0.4,0.5
	c0.3,0.3,0.5,0.6,0.5,0.6v0.1h0.1c0,0,0.3-0.1,0.9-0.5c0.6-0.4,0.8-0.7,1.1-1.1v-0.2c0.1-0.1,0.2-0.2,0.2-0.2l-0.1-0.1
	C42.8,44.5,42.9,44.5,42.9,44.4l0.1,0.3L42.9,44.4L42.9,44.4z M33.1,37.6L33.1,37.6C33,37.8,33,37.8,33,37.9c0,0.3-0.1,1.1-0.2,1.7
	c0,0.2-0.1,0.4-0.1,0.5l0,0c0,0.1-0.1,0.2-0.1,0.3v0.1l0,0l-0.1-0.8c0-0.1,0.2-0.2,0.2-0.4c0.2-0.2,0.2-0.4,0.2-0.6
	c0.1-0.2,0.1-0.5,0.1-0.6C33.1,37.9,33.1,37.8,33.1,37.6c-0.2,0-0.4,0-0.5,0s-0.1,0-0.2,0h-0.1c-0.1-0.1-0.2-0.1-0.3-0.1l-0.1-0.4
	l1.5-0.3l-0.2-1.3c0-0.1,0-0.2-0.1-0.3c0.1,0.1,0.3,0.1,0.4,0.1c0.1,0,0.1,0,0.2-0.1h0.1c0.3,0,0.7-0.1,0.7-0.1h0.1V35
	c0,0,0,0,0-0.1c0,0.1,0,0.1,0.1,0.2V35c0.2,0.3,0.6,0.8,0.8,1.2h0.1c0,0.1,0,0.2,0,0.2c0,0.1,0,0.2,0,0.2c0-0.1-0.7,0.1-0.9,0.2
	C34.6,37,34.5,37,34.4,37s-0.2,0-0.3,0.2c0,0.1-0.1,0.1-0.2,0.1C33.8,37.4,33.2,37.5,33.1,37.6L33.1,37.6z M36.5,45L36.5,45
	C36.5,45,36.4,45,36.5,45c-0.2,0.2-0.4,0.2-0.7,0.3c-0.6,0.3-1.6,0.3-1.6,0.3s0,0,0,0.1h-0.1c0,0-0.2,0.5-0.2,0.8c0,0.1,0,0.1,0,0.2
	c0,0.2,0,0.4,0,0.6l-0.6-3h0.1c0.1,0.2,0.1,0.3,0.2,0.5c0,0.1,0.1,0.2,0.1,0.2s0,0.1,0.1,0.1c0,0.1,0.1,0.1,0.2,0.2l0,0
	c0.1,0.1,0.2,0.1,0.3,0.2C36.9,45.2,36.3,44.6,36.5,45C36.6,44.9,36.6,44.9,36.5,45C36.6,44.9,36.6,44.9,36.5,45z M40.5,44.2
	c-0.1,0.1-0.2,0.1-0.3,0.1c0-0.1,0-0.3,0-0.5v-0.1c0-0.1,0-0.3-0.1-0.5c0.1,0.1,0.2,0.3,0.4,0.6c0.1,0.2,0.2,0.3,0.2,0.3
	C40.6,44.1,40.6,44.2,40.5,44.2z"/>
<path fill="#FFFFFF" d="M53.8,34.8l-0.2-0.2c0.1-0.1,0.3-0.2,0.2-0.7h-0.2v-0.1h-0.8l-0.1-0.2h1.4H54c0,0-0.9-0.6-0.4-2v-0.3l-1,0.5
	c0-0.2,0.1-0.4,0.2-0.6l0.1-0.1h-0.3l-0.1-0.6c0-0.2,0.1-0.3,0.2-0.5l0.1-0.1h-0.3v-0.1v-0.4c0-0.2,0-0.4,0.2-0.5l0.3-0.1h-0.8v-0.9
	H52V28c-0.1,0-0.1,0-0.3-0.1c-0.3-0.1-0.6,0-0.6,0H51V28c0,0,0,0.1,0.3,0.2c0.1,0.1,0.1,0.1,0.2,0.1s0.2,0.1,0.3,0.1v0.3h-0.6
	c0,0,0,0,0,0.1h-0.1c0,0,0,0.1-0.1,0.3l-0.2,0.1c0-0.2,0-0.5,0.2-0.7l0.1-0.1h-0.3h-0.4v-0.2v-1h-0.2v0.1H50c0,0-0.1,0-0.1-0.1
	c-0.3-0.1-0.6,0-0.6,0h-0.1l0.1,0.1c0,0,0,0,0.2,0.2c0.1,0.1,0.2,0.1,0.2,0.1c0.1,0,0.2,0.1,0.3,0.1v0.7h-0.5h-0.1
	c0,0-0.1,0.2-0.1,1H49c0-0.1,0-0.2,0-0.4s0-0.4,0.1-0.6c0-0.1,0.1-0.2,0.1-0.2l0.1-0.1h-0.8v-0.9h-0.2v0.1h-0.2H48
	c-0.3-0.1-0.6,0-0.6,0h-0.1l0.1,0.1c0.1,0,0.1,0,0.3,0.1c0.1,0.1,0.2,0.1,0.2,0.1H48c-0.1,0-0.1-0.1-0.2-0.1v-0.1l0.5,0.3v0.4h-0.5
	c0,0-0.2,0.3-0.2,1.4c0,0.1-0.1,0.3-0.1,0.7l0,0L47.3,30l-2.5,3l0.1,0.1l0,0l0.8,0.4l0.9,0.4V34c0,0,0,0,0.1,0v0.5
	c-0.2-0.1-0.3-0.1-0.2,0s0.2,0.2,0.4,0.3l0.1,0.1c-0.2-0.1-0.5-0.3-0.4-0.1c0.1,0.2,0.3,0.3,0.6,0.3c0.1,0,0.1,0,0.1,0l0.7,0.1
	c0.1,0.1,0.3,0.3,0.6,0.3c0.3-0.1,0.4-0.1,0.4-0.1s0,0-0.1,0h0.5c0.1,0.1,0.2,0.1,0.4,0.1c0.3-0.1,0.4-0.1,0.4-0.1s0,0-0.1,0h0.7
	c0.1,0.1,0.2,0.1,0.4,0.1c0.3-0.1,0.4-0.1,0.4-0.1l0,0h0.5c0.1,0,0.2,0.1,0.3,0.1c0.3-0.1,0.4-0.1,0.4-0.1s0,0-0.1,0l0.7-0.2h0.1
	C54,35,54.1,35,54.1,35S54.1,35,53.8,34.8C53.9,34.8,53.9,34.8,53.8,34.8z"/>
</svg>
