<?xml version="1.0" encoding="utf-8"?>
<!-- Generator: Adobe Illustrator 23.0.0, SVG Export Plug-In . SVG Version: 6.00 Build 0)  -->
<svg version="1.0"
	 id="svg2" xmlns:cc="http://creativecommons.org/ns#" xmlns:dc="http://purl.org/dc/elements/1.1/" xmlns:rdf="http://www.w3.org/1999/02/22-rdf-syntax-ns#" xmlns:svg="http://www.w3.org/2000/svg"
	 xmlns="http://www.w3.org/2000/svg" xmlns:xlink="http://www.w3.org/1999/xlink" x="0px" y="0px" viewBox="0 0 100 100"
	 enable-background="new 0 0 100 100" xml:space="preserve">
<g>
	<polygon fill="none" points="31.4,50.1 0,29.2 0,71 	"/>
	<g>
		<polygon fill="none" points="100,71 100,29.2 68.6,50.1 		"/>
		<path fill="#A80534" d="M50,62.5"/>
		<g>
			<polygon fill="#A80534" points="99.8,29.3 100,29.2 100,4.4 99.4,4.8 99.8,4.8 			"/>
			<polygon fill="#A80534" points="0,4.4 0,4.8 0.6,4.8 			"/>
			<polygon fill="#A80534" points="0,71.3 -0.2,71.4 -0.2,96.2 0.4,95.8 0,95.8 			"/>
			<polygon fill="#A80534" points="99.8,96.2 99.8,95.8 99.2,95.8 			"/>
			<polygon fill="#A80534" points="99.8,29.3 99.8,4.8 99.4,4.8 50,37.7 0.6,4.8 0,4.8 0,29.2 31.4,50.1 31,50.4 31.2,50.5 0,71.3 
				0,95.8 0.4,95.8 49.8,62.9 99.2,95.8 99.8,95.8 99.8,71.4 68.4,50.5 68.8,50.2 68.6,50.1 			"/>
		</g>
	</g>
</g>
<g id="g8987" transform="matrix(1,0,0,0.9999734,0,0.00665281)">
	<path id="path4024" fill="#FFFFFF" d="M71.1,50.2c0.2,8.9-6.3,17.2-14.7,19.9c-8.2,2.6-17.4,0-23.1-6.5
		c-12.5-14.7,1.3-36.8,19.7-34C63.2,31.2,71.1,39.8,71.1,50.2z"/>
	<path id="path10946" fill="#FFE03F" d="M37,44.1c0.2,0.3,0.2,0.9-0.2,0.6c0-0.3-0.1-0.5-0.3-0.6c0.1,0-0.4,0.6-0.4,0.6
		s2.6,0.3,2.4-0.1c-0.1-0.2-0.4,0.1-0.5-0.5c0,0.2-0.1,0.3-0.2,0.5c-0.3,0.1-0.6-0.6-0.5-0.8C37.1,44,37,44,37,44.1z"/>
	<path id="path10950" fill="#FFE03F" d="M56.8,44.2C56.9,44.5,56.9,43.9,56.8,44.2z"/>
	<path id="path10952" fill="#FFE03F" d="M40.5,44.3c0,0.6-0.8-0.2-0.5,0.2c-0.2,0.2-0.6,0-0.9,0.2c-0.2-0.2-0.3-0.1-0.4,0.1
		c0.1,0.6,2.4-0.3,2.2-0.5C40.8,44.2,40.6,44.2,40.5,44.3z"/>
	<path id="path10964" fill="#FFE03F" d="M41.1,44.7C40.9,45.1,41.3,45.2,41.1,44.7C41.2,44.7,41.1,44.5,41.1,44.7z"/>
	<path id="path11042_1_" fill="#FFE03F" d="M52.2,48L52.2,48"/>
	<path id="path11098" fill="#FFE03F" d="M50.5,49c-0.6,0.1,0.5,0.4,0.3,0C50.7,49,50.6,49,50.5,49z"/>
	<path id="path11112" fill="#FFE03F" d="M48.2,49.3c-0.1,0.3-0.1,0.9,0,1c0.1-0.3,0-1.3,0.2-0.6C48.6,49.7,48.7,49,48.2,49.3
		L48.2,49.3z"/>
	<path id="path11128" fill="#FFE03F" d="M54.8,49.6C54.6,49.9,54.8,50.3,54.8,49.6C55,49.7,54.9,49.5,54.8,49.6z"/>
	<path id="path11162" fill="#FFE03F" d="M65.3,50.1C65.5,50.4,65.4,49.8,65.3,50.1z"/>
	<path id="path11264" fill="#FFE03F" d="M41.8,55.9C41.6,56.6,42.3,55.7,41.8,55.9z"/>
	<path id="path11310" fill="#FFE03F" d="M41.9,57.8C42,58.3,41.9,57.4,41.9,57.8z"/>
	<path id="path11322" fill="#FFE03F" d="M41.7,59.1c-0.9,1.5-4.9,1.2-6,0.4c-0.3,0.2-0.2,1-0.3,1.5c0.4,0.1,0.9,0.2,0.7,0.7
		c0.6,0.3,4.3,0.5,4.3-0.4c0.5-0.1,1.3,0,1.4-0.6C42.6,60.6,42,59.4,41.7,59.1z"/>
	<path id="path8112" fill="#7D4802" d="M68.1,42.4c-0.2,0.3-1.7,0.5-2.1,0.7c-0.7,0.3-1.4,1.2-2.2,1.5c-0.5,0.2-4,1.5-3.9,2.4
		c0.1,0.5,2.3-0.8,2.5-0.4c0,0.2-0.1,0.4-0.2,0.5c0.4,0.3,1-0.3,1.4-0.4c0.1-0.3,0.3-0.5,0.6-0.6c0.2,0,0.4,0.1,0.6,0.2
		c0.4-0.1,1,0,1.6-0.2c0.9-0.2,1.1-0.4,1.9-0.8c0.3,0.2,0.8,0.2,1,0.1C69,44.6,68.7,42.8,68.1,42.4z"/>
	<path id="path8196" fill="#7D4802" d="M40.3,45.2c-3,0-3.2,2.5-0.1,2.4c0.6,0,2.1-0.1,2.3-1C42.6,45.8,40.7,44.9,40.3,45.2z
		 M40.9,45.4c0.2,0.1,0,0.5-0.2,0.2C40.3,45.7,40.2,45.1,40.9,45.4z M40,45.5c0.5,0,0.2,0.8,0.1,0.3c0,0-0.7,0.1-0.5-0.3
		C39.7,45.5,39.9,45.4,40,45.5z M39.5,45.6C40,46,39.4,46,39.3,46c0.1-0.4-0.7,0.3-0.5-0.2C38.8,45.6,39.4,45.3,39.5,45.6z
		 M41.3,45.6c0.2,0.2,0.2,0.4,0,0.6c-0.3,0.1,0.1-0.8-0.4-0.5C40.9,45.6,41.2,45.4,41.3,45.6z M42,45.6c0.5,0.5-0.9,0.1-0.3-0.1
		C41.8,45.5,41.9,45.6,42,45.6z M38.6,45.8c0.1,0.3,0.1,0.6-0.1,0.2c-0.2,0.2-0.1,0.7-0.5,0.4C37.9,46.2,38.3,45.5,38.6,45.8z
		 M40.6,45.9C40.6,46.3,40.1,45.7,40.6,45.9L40.6,45.9z M42.3,46.2c0.1,0.2,0.1,0.4-0.1,0.6c0.1-0.1,0.1-0.7-0.2-0.7
		C42.2,45.9,42.3,46,42.3,46.2z M40.8,46.2C41,46.7,40.5,46.6,40.8,46.2C40.6,46.1,40.7,46,40.8,46.2z M39.9,46.2
		c0.4,0.3-0.4,1-0.2,0.3C39.7,46.3,39.5,45.9,39.9,46.2z M41.3,46.4c0.4,0.4-0.7,0.6-0.2,0.3C41.3,46.7,40.9,46,41.3,46.4z
		 M38.6,46.6c-0.5,0.2,1.1,0.4,1,0.4c0.2,0.4-0.7,0.5-0.7,0c-0.1,0.4-0.9,0.3-0.8-0.1C38.1,46.6,38.6,46.6,38.6,46.6z M40.7,46.7
		c0.3,0.3-0.2,0.7-0.5,0.6C40,47.2,40.6,46.7,40.7,46.7z M42,46.7c0.5,0.3-0.4,0.7-0.4,0.4s0.1-0.4,0.2-0.1
		C41.9,46.9,41.9,46.8,42,46.7L42,46.7z"/>
	<path id="path7928" fill="#7D4802" d="M42.4,31.8C41.9,32.1,43.1,31.9,42.4,31.8L42.4,31.8z"/>
	<path id="path7940" fill="#7D4802" d="M41,32.5c-0.6,0.2,1.2,0.3,1.2,0C42.2,32.2,41.1,32.4,41,32.5z"/>
	<path id="path8522" fill="#7D4802" d="M54,58.5"/>
	<g id="g11082" transform="matrix(0.2178903,0,0,0.2178903,276.33896,151.52104)">
		<path id="path8556_1_" fill="#7D4802" d="M-1050.2-400.1"/>
	</g>
	<path id="path5447" fill="#015941" d="M50.5,30.8c-0.3,0-0.4,0.1-0.5,0.3c0.2,0.4,0.9-0.2,1.1-0.3C50.9,30.8,50.7,30.8,50.5,30.8z"
		/>
	<path id="path5449" fill="#015941" d="M50.3,31.3c-0.1,0-0.2,0-0.4,0c-0.3,0.4,1.2,0.1,1.4,0.1C51,31.4,50.7,31.2,50.3,31.3z"/>
	<path id="path5509" fill="#015941" d="M41.2,44.8c0.1,0.3-0.2,0.7-0.3,0.1c-0.4-0.1,0.5,0.3,0.7,0.3c0.5,0.1,0.4,0,0.9,0
		c-0.3,0-0.4-0.2-0.5-0.4C41.7,45.4,41.2,44.2,41.2,44.8z"/>
	<path id="path5511" fill="#015941" d="M40.6,44.8C40.7,45,40.8,44.5,40.6,44.8z"/>
	<path id="path5513" fill="#015941" d="M39.8,45C39.6,45.4,40.3,44.9,39.8,45L39.8,45z"/>
	<path id="path5519" fill="#015941" d="M41.8,45.5c0.1,0.2,0.4,0.5,0.2,0.1C42,45.6,41.8,45.4,41.8,45.5z"/>
	<path id="path5523" fill="#015941" d="M42.3,46.5C42.1,46.9,42.4,46.9,42.3,46.5C42.5,46.3,42.3,46.4,42.3,46.5z"/>
	<path id="path5527" fill="#015941" d="M37.7,46.6c-0.2,0.2-0.6,0.9,0,0.5c0.2,0.1,0.2,0.7,0.4,0.1C37.9,47,38,46.3,37.7,46.6z"/>
	<path id="path5529" fill="#015941" d="M42,46.9C41.8,47.2,41.8,47.4,42,46.9C42.1,46.9,42,46.7,42,46.9z"/>
	<path id="path5539" fill="#015941" d="M38.4,47.4c-0.1,0.5,0.2,0.2,0.4,0.2c0.1,0.2,0.2,0.2,0.2-0.1C38.9,47.4,38.6,47.3,38.4,47.4
		z"/>
	<path id="path5639" fill="#015941" d="M54.7,50.1C54.5,50.6,55.2,50,54.7,50.1z"/>
	<path id="path5657" fill="#015941" d="M48.5,63.1c-0.2-0.2-0.5,2-0.5,1.9c0.4,0.1,0.7-1.2,0.8-1.2c0.2,0.2-0.2,0.9,0,1.1
		c0.3,0.4,0.7-1.4,0.7-1.4c-0.1,0.4-0.1,0.9-0.1,1.3c0.7,0.1,0.4-1.5,0.8-1.4c0.4,0-0.5,1.6,0.1,1.3c0-0.3,0.2-0.5,0.4-0.6
		c0.4,0,0.3,1.2-0.5,0.9c0.1,0.2,0,0.4-0.2,0.4c0-0.2-0.1-0.4-0.3-0.5c0.2-0.1,0,1.4-0.1,1.5c-0.5,1.1-2.4,1.4-2.4,2.9
		c0.2,0,1.8-2,2.1-1.7c0.3,0.4-1.5,1.4-1.1,1.8c0.2,0.2,1.1-0.5,0.7,0.1c0.1,0,0.8-0.2,0.7-0.4c0,0.2,0.1,0.3,0.2,0.4
		c0,0,1-1.9,1.4-1.5c-0.2,0.4-0.7,1-0.7,1.4c0.1,0,1.1-0.5,0.8-0.6c0.2,0.1-0.2,0.9,0.4,0.7c0.5-0.2-0.1-1.2,0.7-1.2
		c-0.2,0.4-0.5,1,0,1.1c0.6,0.2,0.3-1.1,0.9-1.1c0,2,0.2,0,0.8-0.4c0,0.4-0.2,0.8-0.2,1.2c0.6-0.3,0.6-1,1-1.2
		c0.7,0.1,0.4,1.2,1.1,0.4c0.2-0.2,0-1.7,0.3-1.8c0,0,0,1.6,0.1,1.9c0.5-0.1,1.1-0.4,1.3-0.7c0.6,0.2,3.8-2,3.5-2.5
		c-0.3,1.4,0.6-0.8,0.6-0.8c0.5,0,0.1,0.5,0.2,0.7c0.3,0.3,0.8-1.4,0.8-1.3c0.3-0.1,0.2,0.3,0.6,0c0.1-0.1,0-1,0-1
		c0.6,0,0.7,0.7,1.1-0.4c0.5,0.5,0.7-1.1,0.4-1c0.2-0.1,0.4-0.1,0.6,0.1c0.2-0.2,0.5-0.5,0.1-0.6c0-0.4-0.4-1.3,0.3-1.2
		c0,0.3,0.2,0.4,0.4,0.5c0.3-0.1-0.1-1.1,0-1.3c-1.1,0-0.2-0.7-0.5-1s-0.4-0.2-0.8-0.4c0.8-1.3-1.4-0.4-1.8-0.4
		c-0.1-0.4,0.3-0.7-0.1-0.9c0.4-1.5-1.2-0.1-1.5-0.3c-0.3-0.3,0.5-1.2,0.2-1.6c-0.3-0.1-0.4-0.1-0.5,0.2c-0.3,0.1,0-1.4-0.4-1.4
		c-0.3-0.1-0.3,0.7-0.7,0.7c-0.2,0,0-0.8-0.1-1c-0.4-0.5-0.7,1.3-0.9,1.3c0.5,0.2,0.2-1.9,0.2-1.4c-0.1,0.5-0.1,1.1-0.1,1.6
		c-0.2-0.3-0.3-0.7-0.4-1c-0.4-0.1-0.5,0.9-0.2,0.8c0,0,0.3,1.1,0.1,1c-0.2-0.3-0.5-1.1-1-1.1c-0.2,0.3,0.1,1.2-0.6,0.8
		c0.1,0.3,0.2,1.6-0.3,0.9c0.2,0-0.7,1.3-0.6,1.1c0,0.1-0.5,0.3-0.7,0.5s0.2,1,0.2,0.9c0.1-0.3,0.1-0.6,0-0.9
		c0.3-0.3,0.9,0.5,0.4,0.4c-0.2,0.3,0.4,0.2,0.5,0.1c0.1,0.1-0.3,1.1-0.3,1.1c0.4,0,0.3-0.6,0.6-0.7c0.2-0.1-0.1,1-0.7,1
		c-0.6,0-1.2-1.2-1.5-1.6c-0.3,0.5-0.3,0.9-0.8,0.5c0,0.4-0.2,0.7-0.5,0.8c0.5-0.1-2.6,1-2.7,1.1c-0.5,0.4-0.9,2.5-1.4,2.2
		c0.3,0.2-0.6,0.5-0.6,0.7"/>
	<path id="path6" fill="#007CC2" d="M40.2,48.1c-2,0.6-3.1-0.6-3.7,1.5c-0.6,2.1-0.6,4-0.7,6.2c-0.1,1.5-0.9,3.4,0.7,4.1
		c0.5,0.2,3.7,0.2,3.7-0.3c2.6-0.4,1.6-3.5,1.4-5.5C41.5,53.5,40.8,47.9,40.2,48.1z M40.2,48.5c-0.3,0.4-1.8,0.7-2.3,0.4
		C38,48.9,39.8,48.6,40.2,48.5z"/>
	<path id="path18" fill="#7D4802" d="M36.7,37.9c-0.5,0.3-0.1,0.8-0.2,1.2c0.4,0.3,0.3,1,0.4,1.4c-0.1,0-1.3,4.6-1.3,5.2
		c0.1,0,0.2-0.1,0.3-0.1c0.4,0.2-0.1,0.9,0.1,1.1c0,0,0.9,1.5,0.9,1.4c0.2,1.2-0.8,3.3-0.9,4.6c-0.2,1.8-0.1,3.7-0.4,5.5
		c-0.1,0.5-0.6,2.4-0.4,2.6c0.1,0.2,0.7,0.7,0.9,0.3c-1.5-0.4-0.3-4.5-0.2-5.8c0.1-2.1,0.1-4.9,1.1-6.9c1.2,0.2,2.1-0.2,3.3-0.2
		c0.1-0.2,0.1-0.4,0.1-0.6c0,0-7,0.8-3.5-2c0.2-0.1-1.5,0-1-0.6c1,0.2,2.3-0.2,3.2,0.1c-0.5,0-1,0.2-1.4,0.2
		c0.5,0.2,1.9,0.1,2.4-0.1c0.1,0,1.2-0.6,0.9-0.8c0,0-1.5,0.6-1.7,0.6c0.1,0,0.5-0.2,0.5-0.2c-0.3,0.3-3.6,0.1-4-0.1
		c0.4,0.2,0.7-0.6,0.4-0.5c0,0.2,0,0.3-0.2,0.3c0,0,0.3-0.5,0.8,0.3c0.4,0,0.4-0.1,0-0.2c0-0.2,0.3-0.4,0.1-0.5c0.3,0,0.6,0,0.2,0.2
		c0,0.3,0.6,0.8,0.6,0.5c-0.6-0.3-0.1-0.5,0.2-0.6c-0.3,0.1,1,0.5,1,0.5c0.1-0.4,0.4,0.4,0.7-0.1c0.2,0.3,0.7-0.1,0.1-0.1
		c0.3-0.4,0.7,0.4,0.8-0.2c-0.5,0.3,0.5-0.1,0.4,0c0.8-0.4-1.8-2.5-1.8-2.8c0,0.1,0.7-1.4,0.8-1.5c-0.2-0.4-0.4-0.8,0.1-0.8
		C40.2,37.8,37.5,37.9,36.7,37.9L36.7,37.9z M37.3,43.1c0.2,0.3,0.8,0.8,0.8,1c-0.8-0.2-2.4,0.3-2-0.8
		C36.4,42.5,36.8,42.6,37.3,43.1z"/>
	<path id="path20" fill="#7D4802" d="M39.1,39.5c-0.3,0.2,0.4,0.6,0.2,0C39.3,39.5,39.2,39.5,39.1,39.5z"/>
	<path id="path38" fill="#7D4802" d="M40.6,49.3c0.1,0.1,0.6,1.5,0.6,1.5C41.1,50.2,40.9,49.7,40.6,49.3L40.6,49.3L40.6,49.3z"/>
	<path id="path40" fill="#7D4802" d="M37.2,49.9c-0.9,3-0.2,6.2-1,9.3c0.9-1.8,0.6-4.1,0.7-6C36.9,52.8,36.9,50.2,37.2,49.9z"/>
	<path id="path42" fill="#7D4802" d="M40.2,51.4c0,1.1-0.5,2.9,0,3.9c0-1.8,0.2-3.6,0-5.4C40.2,50.5,40.2,51,40.2,51.4z"/>
	<path id="path44" fill="#7D4802" d="M37.7,50.5c-0.1,0.6-0.8,3.4-0.3,4C37.2,54.2,37.7,50.6,37.7,50.5z"/>
	<path id="path46" fill="#7D4802" d="M39.3,50.8c0.8,2.6,0.7,5.7,0.7,8.4C40,56.6,40.3,53.3,39.3,50.8
		C39.4,50.8,39.2,50.6,39.3,50.8z"/>
	<path id="path48" fill="#7D4802" d="M40.8,51.6c0.5,1.2,0.5,3.1,0.5,4.5c0,0.7,0.3,2.3,0.2,2.8C41.4,57,42.1,53.2,40.8,51.6
		L40.8,51.6L40.8,51.6z"/>
	<path id="path50" fill="#7D4802" d="M38.6,51.7c0.3,0.7,0.9,7.1,0.5,7.3C39.4,58.8,39.1,51.7,38.6,51.7z"/>
	<path id="path74" fill="#7D4802" d="M36.1,53.7c0.1,1.5,0,3.3-0.3,4.8C36.2,57.3,36.6,54.9,36.1,53.7
		C36.2,53.6,36.1,53.7,36.1,53.7z"/>
	<path id="path76" fill="#7D4802" d="M38.1,54.1c0,1.1-0.6,4,0,4.9c0-1.8,0.3-3.4,0.1-5.2C38.1,53.8,38.2,54.1,38.1,54.1z"/>
	<path id="path80" fill="#7D4802" d="M40.6,54.6c0,0.9,0.8,3.3,0.3,4.1C41.6,57.7,40.6,55.6,40.6,54.6z"/>
	<path id="path88" fill="#7D4802" d="M37.4,56.1c0,0.6-0.6,3.2-0.1,3.6c-0.1-0.1,0-3.6,0.2-4C37.4,55.8,37.4,56,37.4,56.1z"/>
	<path id="path96" fill="#7D4802" d="M42,60.5c-0.5,0.8-1.7,0.8-2.5,1c-0.7,0.2-0.9,0.4-1.8,0.3c-0.4,0-1.2-0.4-1.6-0.2
		c1.2-0.7,1.2,1.4,1.4,1.6c0.6,0.7,2.6,1,3.2,0.2c-0.1-0.2-2.3-1.1-2-1.3c0.3,0,0.5-0.2,0.7-0.4c0.5-0.1,2.1,1,2.9,0.7
		c1.5-0.5-0.8-0.9-1.1-1.3c0.5,0,0.8-0.4,1-0.8C42.2,60.4,42.1,60.5,42,60.5z M41.1,61.4c0.5,0.2,1.1,0.3,1.6,0.6
		c0,0.6-2.8,0.1-2.9-0.1C40.3,61.9,40.7,61,41.1,61.4z M38,62c0.2,0.1,2.4,1.2,2.4,1.3c-0.5,0.4-2.2,0.4-2.6-0.1
		C37.5,63,37.3,61.6,38,62z"/>
	<path id="path26" fill="#AF0536" d="M40.4,45.7c0.1,0.2,0.6,0.7,0.3,1.1c0.2,0.2,0.6-0.3,0.4-0.5c0.3,0.2,0.1-0.8-0.1-0.5
		c0-0.3-0.2,0.1-0.2-0.2C40.6,45.7,40.5,45.6,40.4,45.7z"/>
	<path id="path28" fill="#AF0536" d="M39.9,45.8c-0.1-0.3,0,1-0.2,1.1C40.7,48.4,40.8,44.6,39.9,45.8z"/>
	<path id="path30" fill="#AF0536" d="M38.7,45.9c0.1,0.4,0,0.1-0.2,0.1c0.1,0.2-0.2,0.7,0.2,0.5c-0.3,0.2,1.3,0.9,1-0.3
		C39.5,45.5,38.8,46.1,38.7,45.9L38.7,45.9z"/>
	<path id="path32" fill="#AF0536" d="M41.5,46c0-0.1,0,1.7,0.3,0.8c-0.1,0.5,0.4-0.1,0.3-0.1c0.1,0.5,0.4-0.4,0.2-0.5
		C42.5,46.1,41.4,45.6,41.5,46z"/>
	<path id="path112" fill="#AF0536" d="M41.8,59.3c-0.1,0,0.4,1.5-0.4,1.3c-0.1,0-0.2-0.9,0.4-0.5c0.1-0.8-0.8,0-1.2-0.2
		c-0.3,0.2-1.3,0.5-1.7,0.5c-1.4,0.2-2-0.6-3.1-0.8c-0.3,0.1,0.8,0.9-0.1,0.9c-0.6,0.4,1.2,0,0.8,0c0.1,0,0.2,0.9,0.4,1
		c0.4,0.3,2.3,0.3,2.5-0.1c0,0,1.2,0.6,1.2-0.5c0.4-0.2,1.3,0,1.3-0.6C42.4,60.3,42.1,59.5,41.8,59.3L41.8,59.3z"/>
	<path id="path6780" fill="#DE9C5F" d="M39,39.5c-0.3,1.6-1,0.2-1.4,0c-0.1,0,0.5,2.8,1.1,2c-0.1-0.1-0.1-0.3-0.1-0.4
		c0.2-0.1,0.6,0.2,0.8,0c0.2-0.3,0.1-0.8,0.3-1.2C39.5,39.7,39.3,39,39,39.5z M39.3,39.6c0.1,0.2,0.1,0.3-0.1,0.2
		C39,39.7,39.1,39.6,39.3,39.6L39.3,39.6z"/>
	<path id="path6782" fill="#DE9C5F" d="M40.6,61.3c-0.2,0.2-0.3,0.6-0.7,0.5c-0.1,0.3,2.8,0.8,2.7,0.2C42.2,61.9,41,61.1,40.6,61.3z
		"/>
	<path id="path6784" fill="#DE9C5F" d="M37.6,62.1c-0.9,2.2,2.8,1.1,2.8,1.1C40.3,62.9,37.6,62.1,37.6,62.1z"/>
	<path id="path8862_1_" fill="#82C1E4" d="M49.8,30.5"/>
	<path id="path8870" fill="#82C1E4" d="M42.7,31.8c-0.2,0.4-1.1,0.1-1.3,0.6c0.5,0,1.1,0.2,1.6,0.1c-0.1-0.1-0.2-0.2-0.2-0.4
		l0.6,0.3C43.5,32.3,42.8,31.4,42.7,31.8z"/>
	<path id="path8998" fill="#82C1E4" d="M40.6,49.6c0.1,0.5,0.4,1.2,0.6,1.6C41.2,50.5,40.6,49.6,40.6,49.6z"/>
	<path id="path9000_1_" fill="#82C1E4" d="M40,55.4c0.2-1.7,0.2-3.7,0-5.4l0,0l0,0"/>
	<path id="path9002" fill="#82C1E4" d="M37,50.4c-0.3,0.8-0.9,9.2-0.6,9.3c0-0.2,0.1-0.6-0.1-0.3c0.2-1.8,0.5-3.5,0.6-5.3
		c0-1-0.3-3.4,0.3-4.2C37.1,50.1,37,50.3,37,50.4z"/>
	<path id="path9004" fill="#82C1E4" d="M37.5,50.9c-0.3,1.1-0.4,2.7-0.1,3.8c-0.1-0.3,0.5-4.3,0.2-4.4
		C37.6,50.4,37.5,50.7,37.5,50.9z"/>
	<path id="path9006" fill="#82C1E4" d="M39,50.6c0.4,3.1,0.5,6.2,0.7,9.3c0.8-0.2,1.5-0.9,2.2-1c-0.9-0.4-0.6-0.7-0.7-2.2
		c0-1.7-0.1-3.4-0.5-5c-0.3,1,0.3,2.7,0.4,3.7c0.1,1.3-0.1,2.7,0.2,4c-0.4,0.2-0.9,0.3-1.3,0.2c-0.6-1.8-0.3-4-0.4-5.9
		C39.5,52.8,39,50.9,39,50.6z"/>
	<path id="path9082" fill="#82C1E4" d="M36,54.1c0,1.4,0.1,3.6-0.2,4.9c0.4-1.6,0.5-3.5,0.3-5.1C36,54,36.1,54.1,36,54.1z"/>
	<path id="path9084" fill="#82C1E4" d="M38,54.6c-0.2,1.6-0.3,3.5-0.1,5.1c0.5,0,0.3-5,0.2-5.6C38,54.2,38,54.4,38,54.6z"/>
	<path id="path9088" fill="#82C1E4" d="M40.4,55.2c0,0.6-0.1,3.8,0.4,4.1c0.4-1-0.8-4.1-0.3-4.6C40.4,54.9,40.4,55,40.4,55.2z"/>
	<path id="path9108" fill="#82C1E4" d="M37.3,55.7c-0.2,1.4-0.1,2.8-0.2,4.2C37.3,60,37.3,55.7,37.3,55.7z"/>
	<path id="path22" fill="#7D4802" d="M55,49.4c0,0,0.1,0.8,0.2,0.8c0.3,0.2,0.9-2.3,0.7-2.5c0.3,0.4,0.1,2.1,0.1,2.6
		c0-0.1,0.1-2.9,0.2-2.9c0.1,0.9,0,1.9,0.2,2.8c0.3-0.7-0.5-2.9,0-3.4c0.1,1.1,0.1,2.3,0.3,3.4c0.5,0-1.1-4.3,0.7-4
		c0.5,0.1,1.1,1.8,1.1,2.3c0,0.4-1,1.5-0.9,1.8l1.1-1.3c0.3,0.9,0.6,1-0.3,1.4c-0.7,0.3-2.8-0.2-3.5-0.2c-1.4-0.1-2.6-0.3-3.9-0.9
		c-0.3-0.1-2.1-1.3-2.5-1.1c1,0.9,2.5,1.3,3.5,2.2c1.2,1,0.4,0.8,2,0.9c0.9,0.1,5.7,0.1,5.7,0c0.2,0.1,0.4-0.2,0.5,0.2
		c0.3-0.3,0.5-0.1,0.7,0c0.1-0.3,0.2-0.3,0.4-0.1c0.2-0.5,1.1-0.1,1.1-0.8c0.4-0.1,1.2,1,1.8,0.6c0.7,0.3,5.5,0.1,5-1.3
		c-0.1-0.4-4.9,0.4-5.7,0.4c-1,0-1.1,0.3-1.3-0.6c0-0.3,0.1-1,0.4-1.1c0.4,0,0.6,1.1,0.9,1.3c0.6,0.4,0.8,0.2,1.6,0.2
		c0,0.1,0.6-0.2,0.7,0.1c0.5-0.6,2-0.6,2.7-0.6c0,0.2,0.1,0.3,0.3,0.3c0.3-0.5-0.3-0.1,0.2-0.7C68.2,50,65.3,41,65.4,41
		c0.3,0.2-2.5,6.4-2.8,7.1c-0.7-0.4-0.1-1.3-0.9-0.1c-0.1,0.3-0.1,0.8-0.2,1.1c-0.1,0.3-0.8,0.5-0.7,0.1c0,0,0.6-1,0.5-1
		c-0.1,0.1-0.6,0.9-0.7,0.9c-0.6,0-0.6-1.5-0.6-1.8c-0.4,0.2-0.4-0.1-0.7,0.2c-0.1,0.1,0.1,0.6-0.2,0.7c-1.1,0.5-1.2-1.2-1.6-2.3
		c0.1-0.1,0.2-0.2,0.3-0.3c-0.2-0.3-0.9-0.5-1-1.3c-0.1-0.6,0.5-0.9,0.4-1.3c-0.2-0.3-0.7,0.2-1.1-0.5C56,42,56.4,40.3,56,40.1
		C55.8,40,56.1,41,56.1,41c-0.3,1.7-1.8,2.8-3.1,3.9c-0.9,0.8-3.1,3.2-4.2,3.4c2.2-0.5,4.8-3.9,6.4-5.3c0.3,0-1.4,1.5-1,1.5
		c-0.5,1.6-2.3,3.4-3.5,4.6c0.5,0.5,4.1-5.6,4.7-4.7c0.7,1.1-1.9,2.2-1.9,2.6c-0.1,0.6,0.5,0-0.1,1c-0.4,0.6-1.1,1.3-1.7,1.7
		c0.4,0.4,1.2-1,1.4-1.3c0.7-0.9,0.9-1.3,2.1-1.3c-0.2,1-0.6,2-0.8,3.1c0.3-0.2,0.9-2.4,0.9-2.9c-0.2,1-0.4,1.9-0.6,2.9 M65.6,42.9
		c0.7,2.1,1.6,4.1,2.6,6.1c-2,0.8-2.4,0.4-2.6-1.5c-0.2-1.5-0.9-3.8-0.3-5.3C65.5,42.4,65.5,42.7,65.6,42.9z M55.7,43.1
		c0.1,0.5-0.4,0.9-0.8,0.8c0.3-0.4,0.6-1,0.8-1.3C55.7,42.8,55.7,43,55.7,43.1z M64.7,43.8c-0.1,0.3,0,5.7-1,5.9
		C62.3,47.9,63.9,45.3,64.7,43.8z M57,44.3c0-0.1,0.6,2.6-0.4,1.7c-0.3-0.3-0.3-1.7-0.1-2C56.7,44,56.9,44.1,57,44.3z M56.3,44.5
		c0,0.3-0.3,0.4-0.4,0.7c-0.1-0.2,0-1.2,0.4-1C56.3,44.3,56.3,44.4,56.3,44.5z M65.3,45.7c0.1,1.2,0.3,2.4,0.3,3.6
		c0.1,0-0.5-4.7-0.5-4.9C65.3,44.8,65.3,45.3,65.3,45.7z M55.3,45.7c0,0.5-0.2,0.9-0.8,0.9c0.3-0.5,0.6-1.3,0.9-1.5
		C55.3,45.3,55.3,45.5,55.3,45.7z M65,46.3c0,0.7,0.6,3.4-0.5,3.3c0,0,0.4-3.8,0.5-4.1C65,45.7,65,46,65,46.3z M65.2,46.4
		c0,1,0.2,2,0.2,3c-0.5-0.2-0.2-3.4-0.2-3.7C65.2,46,65.2,46.2,65.2,46.4z M55.5,48.2c-0.1,0.2-0.1,1-0.3,0.9
		c0.1-0.6,0.2-1.1,0.4-1.7C55.6,47.6,55.6,47.9,55.5,48.2z M59.4,48.5c-0.1,0.4-0.1,1.2-0.2,1.3c-0.3-0.5-0.4-1.1,0.2-1.5
		C59.4,48.4,59.4,48.5,59.4,48.5z M61.3,49.6c1.3,0.6,0.3,1.6,0.1,1.3c0.2,0,0.3-0.1,0.4-0.2c-0.1-0.4-0.9,0.1-0.9,0
		s0.9-0.7,0.3-0.7c-0.1,0.2-0.2,0.3-0.4,0.4c-0.1,0,0.5-0.6,0.2-0.7c-0.2,0-0.4,0.6-0.4,0.7v-0.7c-0.2-0.2-0.2,0.8-0.2,0.8
		s-0.3-1.1-0.5-0.5c0.1,0.2,0.2,0.4,0.3,0.6c-0.1-0.2-0.3-0.3-0.5-0.4c-0.4,0,0.3,0.5,0.3,0.5c-0.2,0.2-0.8-0.6-0.7,0
		c0,0.1,0.7,0.2,0.7,0.3c-0.1,0.3-0.8-0.2-0.7-0.6C59.2,49.5,60.7,49.3,61.3,49.6z"/>
	<path id="path13362" fill="#CF7419" d="M68.1,42.4c0,0-3.5,1.1-3.2,1.6c0-0.1,0-0.3,0-0.4c0.1,0.3-5.5,3-5,3.5
		c0.4-0.2,0.9-0.6,1.4-0.6c0.2-0.6,1.2-0.4,1.2-1c0.3-0.1,0.9-0.2,1.2-0.2c0.3,0,0,0.8,0.6,0.6c0.6-0.3-0.6-0.6,0-1
		c0.5-0.3,1.4,0.1,1.6,0c0.4-0.4-0.1-1,1-1.1c1.6-0.1-0.3,1,0,1.4c0.2-0.1,1.4-1.1,1.5-0.9c-0.5-0.9-0.2-0.2-0.1-1.1
		c0-0.2,0.6,0.1,0.5-0.3C68.6,42.8,68.2,42.1,68.1,42.4z"/>
	<path id="path13364" fill="#CF7419" d="M36.4,42.7c-0.2,0.4-0.4,0.8-0.5,1.1c0.1,0,2.3,0.3,2.3,0.3c0.1-0.3-1.4-1.4-1.6-1.6
		C36.5,42.6,36.5,42.6,36.4,42.7z"/>
	<path id="path13374" fill="#CF7419" d="M40.9,44.2c0,0.5-0.6,0.3-0.6,0.7c-0.2,0-0.3,0-0.4-0.1c0,0,0.7,0.7,0.7-0.1
		C41,45,41.3,44,40.9,44.2z"/>
	<path id="path13378" fill="#CF7419" d="M40.9,44.9C40.9,45.2,41.2,45.4,40.9,44.9C41.1,44.9,41,44.7,40.9,44.9z"/>
	<path id="path13382" fill="#CF7419" d="M55.4,44.9c-0.1,0.2-0.4,2.2-0.9,1.9c0.2,0.1,1.9-0.7,1.9-0.7c0-0.1-0.6,0.1-0.4-0.3
		c-0.1,0.2-0.2,0.8-0.6,0.6C55.1,46,55.6,45.4,55.4,44.9L55.4,44.9z"/>
	<path id="path13386" fill="#CF7419" d="M35.7,45.2c0.1,0.5,3.8,0.3,4-0.1C39.5,45.6,35.7,44.8,35.7,45.2z"/>
	<path id="path13404" fill="#CF7419" d="M53.7,46.8c-0.9,0.2,0.5,0.5,0.5-0.1C54,46.7,53.9,46.8,53.7,46.8z"/>
	<path id="path13414" fill="#CF7419" d="M40.8,47.2c0.1,0.3,0.6,0.5,0.4,0C41.1,47.1,40.9,47.1,40.8,47.2z"/>
	<path id="path13416" fill="#CF7419" d="M55.6,47.3c-0.1,0.8-0.1,2.1-0.4,2.9c0.2-0.3,0.7-2.8,0.4-3.1V47.3z"/>
	<path id="path13420" fill="#CF7419" d="M61.9,47.3c0,0.5-0.7,1.7-0.2,1.7c0,0.3-1.9,0.5-2.3,0.7c-0.5,0.2-0.5,0.6-1.1,0.8
		c-0.4,0.1-1.7-0.1-2-0.1c-1.5-0.1-3.1,0-4.5-0.6c0,0-3.4-1.6-3.4-1.5c2.3,0.9,3.9,1.9,6.4,2.1c0.9,0.1,2.2,0.2,3.1,0.1
		c1.6-0.2,0.8-0.4,2-1c1.3-0.7,2.1,0.7,3.2,1c0.5,0.1,6.2-0.5,6.2-0.5c0-0.3-4.8,0.2-5.3,0.2C61.3,50.4,62,49.3,61.9,47.3
		c0.3-0.1,1-0.1,0.4-0.2C62.2,47.3,61.9,47.2,61.9,47.3z"/>
	<path id="path13422" fill="#CF7419" d="M39.9,47.5c-0.7,0.3,0.2,0.2,0.3,0C40.2,47.5,40,47.5,39.9,47.5z"/>
	<path id="path13440_1_" fill="#CF7419" d="M65.5,48.7L65.5,48.7"/>
	<path id="path13520_1_" fill="#CF7419" d="M47.5,54"/>
	<g>
		<path fill="#015941" d="M42.3,37.3C42.3,37.3,42.3,37.3,42.3,37.3C42.3,37.3,42.3,37.3,42.3,37.3z"/>
		<path fill="#015941" d="M42,36.5c0,0,0.1-0.1,0.1-0.1C42,36.3,42,36.3,42,36.5z"/>
		<path fill="#015941" d="M41.3,35.6C41.3,35.6,41.3,35.6,41.3,35.6C41.3,35.6,41.3,35.6,41.3,35.6z"/>
		<path fill="#015941" d="M45.3,39C45.3,39,45.3,39,45.3,39C45.3,39,45.3,39,45.3,39C45.3,39,45.3,39,45.3,39z"/>
		<path fill="#015941" d="M52.5,32.7c0.3-0.1-1.7-0.4-1.6-0.4C51.3,32.7,51.9,32.9,52.5,32.7z"/>
		<path fill="#015941" d="M48.6,49.1C48.7,49.1,48.7,49.1,48.6,49.1C48.7,49.1,48.7,49.1,48.6,49.1z"/>
	</g>
	<path id="path15173" fill="#FBBA66" d="M58.3,67.9C58.4,68.2,58.4,67.6,58.3,67.9z"/>
	<path id="path364" fill="#3D663D" d="M61.6,66L61.6,66z"/>
	<path id="path370" fill="#3D663D" d="M65.1,62.8L65.1,62.8"/>
	<path id="path372" fill="#3D663D" d="M64.1,64L64.1,64"/>
	<path id="path382" fill="#3D663D" d="M59.3,67.5L59.3,67.5"/>
	<path id="path390" fill="#3D663D" d="M67.6,59L67.6,59z"/>
	<path id="path2352" fill="#FFB900" d="M24.2,50c0-10.8,7-20.7,17.2-24.3c10.3-3.7,22-0.3,28.8,8.3c6.7,8.4,7.4,20.6,1.7,29.7
		c-5.7,9.1-16.7,13.8-27.2,11.6C32.9,72.8,24.2,62.1,24.2,50h6.2c0,18,23.3,26.5,34.8,12.6c11.6-14-1.2-35.4-18.9-31.9
		c-9.1,1.8-16,10-16,19.3H24.2"/>
	<g id="g7333">
		<g id="g7283">
			<g id="g7236">
				<g id="g2647" transform="matrix(1.094915,0,0,1.094915,-1.123011,-1.1143784)">
					<g id="g2608">
						<g id="g2581">
							<g id="g2542">
								<g id="g2495">
									<g id="g2491">
										<path id="path2354" fill="#A80534" d="M24.2,46.7c0-9.4,6.1-18.1,15-21.2c8.8-3.1,18.8-0.3,24.7,6.8
											c6.1,7.3,6.9,18,1.9,26.2c-4.8,7.8-14.2,12-23.3,10.3C32,66.8,24.2,57.4,24.2,46.7h-1.1c0,9.7,6.3,18.7,15.4,22.1
											c9.2,3.5,19.9,0.6,26.3-6.9s7.3-18.6,2.3-27.1c-5-8.6-15.2-13.2-24.9-11.3c-10.9,2.2-19,12-19,23.2L24.2,46.7"/>
										<path id="path2356" fill="#A80534" d="M28.7,46.7c0-16.5,21.3-24.2,31.8-11.5c10.6,12.7-1,32.4-17.3,29.2
											C34.9,62.7,28.7,55.2,28.7,46.7h-0.9c0,7.8,5,15,12.4,17.7c7.5,2.7,16,0.3,21-5.8C72,45.2,60,25.1,43.1,28.2
											c-8.8,1.6-15.3,9.5-15.3,18.5H28.7"/>
									</g>
								</g>
							</g>
						</g>
					</g>
				</g>
			</g>
		</g>
	</g>
</g>
<g>
	<path opacity="0.2" enable-background="new    " d="M10.4,74.3V25.8c0-12.1,8.2-22.7,19.8-25.8H0v100h30.2
		C18.5,96.9,10.4,86.3,10.4,74.3z"/>
	<path opacity="0.1" fill="#FFFFFF" enable-background="new    " d="M89.6,25.8v48.5c0,12.1-8.2,22.7-19.8,25.8H100V0H69.8
		C81.5,3.1,89.6,13.7,89.6,25.8z"/>
</g>
<g>
	<path fill="#015941" d="M49.7,30.8c0.4,0,0.9-0.3,0.9-0.5c-0.1-0.1-2,0-2.1,0c-0.9,0.1-2.1,0.1-2.9,0.4c-0.1,0,0.3,0.7,0.2,0.7
		c0.1-0.1-2.1-1.2-2.3-0.1c0,0.1,0.8,0.9,0.7,1c-0.2,0.2-0.7-1.1-1.1-0.8l0.1,0.1c0,0.1,0.1,0.2,0.2,0.3l0.1,0.3
		c-0.2-0.2-0.3-0.3-0.5-0.4c-0.2,0-0.1,0.6-0.5,0.7c-0.4,0.2-2.3-0.1-2.5,0.5c0-0.2,1.5-0.1,2-0.2c0,0.1,0,0.9-0.3,1.3
		c0.2,0.1,0.2,0.2,0.3,0.2c0.2,0.2,0.3,0.2,0.4,0.3c-0.3,0.2-0.8,0.6-0.9,0.6c0.4,0.1,0,0.3-0.1,0.4c0.1,0,0.5,0.5,0.6,0.1
		c-0.1,0.2-0.1,0.3-0.3,0.4c0.2,0,0.4,0,0.6-0.1c-0.1,0.1-0.1,0.3-0.2,0.4c0.2,0.1,0.4,0.5,0.2,0.5c-0.1,0.2-0.1,0.3,0,0.4
		c0-0.1,0.3-0.6,0.4-0.5c0.1,0.3-0.6,1.2-0.3,1.4c0,0,0.4-0.9,0.5-0.9c0.1,0,0.1,1,0.3,1.1c0-0.1,0-0.3,0.1-0.4
		c0.1,0.1,0.2,0.2,0.2,0.4c0,0,0-0.2,0-0.4l0.1,0.2c0,0.4,0,0.6,0.1,0.4c0,0.2,0.1,0.2,0.1,0.1c0,0.1,0,0.2,0.1,0.4
		c-0.2,0.7-0.7,1.6-0.4,1.9c0.1-0.4,0.3,0.5,0.3,0.5c0-0.1,0.1-0.2,0.1-0.3c0.1,0.1,0.2,0.9,0.3,0.8c0.2-0.1-0.1-0.6,0.3-0.2
		c0-0.1,0-0.2,0.1-0.3c0.1,0.1,0.1,0.2,0.2,0.4c-0.2-0.2,0-0.8,0.1-1.3c0,0,0,0,0,0c0,0.2,0.1,0.4,0.2,0c0.1,0,0.1,0,0.2,0
		c0,0.6-0.2,1.5-0.1,1.5c0.1-0.4,0.1-1.1,0.4-1.3c0.1,0.3,0.4,1.1,0.4,0.6c0,0,0.5-0.2,1.1-0.5c0.2,1,0.6,2.3,0.6,2.8
		c0,1.2,0.1,2.4,0.1,3.6c0,0.9-0.1,1.8-0.1,2.8c0,0.2-0.1,1.5-0.2,2.5c0,0.1-0.1,0.3,0,0.3c0,0,0,0,0,0c0,0.5,0,0.9,0,1
		c0.1,0,0.1-0.5,0.1-1.1c0.2-0.2,0.4-0.6,0.4-0.6c0.1-0.1-0.2,1.4,0.4,0.8c-0.2-0.5,0-3.8,0.2-4c-0.8,0-0.4-3.9-0.4-4.3
		c0-0.7,0.3-3.2,0.3-4.5c0.1-0.5,0.3-0.9,0.6-0.5c0.1-0.1,0.1-0.2,0.2-0.3c0,0.1,0,0.2,0,0.2c0,0,0-0.1,0-0.3c0-0.1,0-0.1,0-0.2
		c0.1,0,0.4,0.1,0.4,0.2C49.3,39.2,50,41.1,50,41c0.1-0.2-0.1-0.7-0.2-1.1c0.1,0.2,0.3,0.4,0.3-0.1c0,0,0-0.1,0-0.3
		c0.1,0.4-0.1,1,0.2,1l0.5-0.6c0-0.1,0-0.2,0-0.3c0.1,0,0-0.1,0-0.3c0,0,0.1,0,0.2,0.2c0-0.2,0-0.4,0-0.6c0.1,0.1,0.2,0.3,0.2,0.4
		c0.1-0.1,0.1-0.3,0.1-0.5c0,0.2,0.1,0.3,0.3,0.2c0-0.1,0-0.2,0-0.3c0.3,0.2,0.7,0,0.7-0.4c0,0,0,0-0.1,0c0-0.1,0-0.3,0-0.3
		c0,0,0.3,0.4,0.4,0.5c0.1,0-0.2-1-0.2-1c0.2,0.1,0.3,0.2,0.5,0.3c0-0.1-0.1-0.2-0.2-0.3c0.9,0.3-0.5-1-0.1-0.9
		c0.3,0,0.4,0.6,0.7,0.7c0.1,0-0.3-0.8-0.3-0.8c0-0.1,0.5,0.3,0.5,0.2c0.2-0.2-0.3-0.7,0.1-1c-0.2-0.1-0.4-0.2-0.7-0.4
		c0.1,0.1,0.3,0.1,0.5,0.2c-0.2-0.2-0.3-0.4-0.5-0.6c0.2,0.1,0.4,0.2,0.6,0.2c0,0-0.4-0.6-0.3-0.6c0.2,0.1,0.3,0.1,0.4,0
		c-0.2-0.1-0.4-0.2-0.6-0.3c0.1-0.2,0.2-0.3,0.4-0.4c-0.4,0-0.9,0.1-0.7-0.2c-0.2,0-0.1-0.2,0.4-0.1c-0.1-0.4-0.9-0.5-1.1-0.5
		c-0.3,0.1-0.7,0-0.4-0.1c0,0-0.9-0.7-0.9-0.7c-0.1-0.2,0.7,0,0.7,0c0.4-0.3-1.5-1-1.9-0.8c0,0.2-0.3-0.7-0.4-0.8
		c0.1-0.1,0.2-0.1,0.3-0.1c0,0.1,0,0.1,0.1,0.2 M49.9,30.5 M43.8,39.8C43.5,40.1,44.1,39.1,43.8,39.8L43.8,39.8z"/>
</g>
</svg>
