<?xml version="1.0" encoding="utf-8"?>
<!-- Generator: Adobe Illustrator 23.0.0, SVG Export Plug-In . SVG Version: 6.00 Build 0)  -->
<svg version="1.0" id="Layer_1" xmlns="http://www.w3.org/2000/svg" xmlns:xlink="http://www.w3.org/1999/xlink" x="0px" y="0px"
	 viewBox="0 0 100 100" enable-background="new 0 0 100 100" xml:space="preserve">
<g>
	<path fill="#FFFFFF" d="M0,0h100v100H0V0z"/>
	<path fill="#B50027" d="M-0.1,66.7H100V100H-0.1V66.7z"/>
	<path fill="#B50027" d="M-0.1,0H100v33.3H-0.1V0z"/>
	<path fill="#002D56" d="M0,0h53.3v66.7H0V0z"/>
</g>
<g>
	<g>
		<path fill-rule="evenodd" clip-rule="evenodd" fill="#FFFFFF" d="M27.8,15.7l1.8-1.2h-2.2l-0.6-2.1l-0.7,2h-2.2l1.7,1.3l-0.7,2
			l1.8-1.2l1.7,1.3L27.8,15.7z"/>
	</g>
	<g>
		<path fill-rule="evenodd" clip-rule="evenodd" fill="#FFFFFF" d="M19.3,17.2l1-1.9l-1.9,1l-1.5-1.5l0.3,2.1l-1.9,1l2.1,0.3
			l0.3,2.1l1-1.9l2.1,0.3L19.3,17.2z"/>
	</g>
	<g>
		<path fill-rule="evenodd" clip-rule="evenodd" fill="#FFFFFF" d="M12.5,22.5v-2.2l-1.3,1.8l-2.1-0.6l1.3,1.7L9.1,25l2-0.7l1.3,1.7
			v-2.2l2-0.7L12.5,22.5z"/>
	</g>
	<g>
		<path fill-rule="evenodd" clip-rule="evenodd" fill="#FFFFFF" d="M9,30.4l-1-1.9l-0.3,2.1L5.5,31l1.9,0.9L7.1,34l1.5-1.6l1.9,0.9
			l-1-1.9l1.5-1.6L9,30.4z"/>
	</g>
	<g>
		<path fill-rule="evenodd" clip-rule="evenodd" fill="#FFFFFF" d="M9.4,39l-1.8-1.2l0.7,2l-1.7,1.3L8.9,41l0.7,2l0.6-2.1l2.2-0.1
			l-1.8-1.2l0.6-2.1L9.4,39z"/>
	</g>
	<g>
		<path fill-rule="evenodd" clip-rule="evenodd" fill="#FFFFFF" d="M13.9,46.4l-2.1-0.2l1.6,1.5l-0.9,2l1.9-1.1l1.6,1.5L15.6,48
			l1.9-1.1l-2.1-0.2L15,44.6L13.9,46.4z"/>
	</g>
	<g>
		<path fill-rule="evenodd" clip-rule="evenodd" fill="#FFFFFF" d="M21.3,50.8l-2,0.8l2.1,0.5l0.1,2.2l1.2-1.8l2.1,0.5l-1.4-1.7
			l1.2-1.8l-2,0.8l-1.4-1.7L21.3,50.8z"/>
	</g>
	<g>
		<path fill-rule="evenodd" clip-rule="evenodd" fill="#FFFFFF" d="M29.9,51.4L28.5,53l2.1-0.5l1.1,1.8l0.2-2.1l2.1-0.5l-2-0.8
			l0.2-2.1l-1.4,1.6l-2-0.8L29.9,51.4z"/>
	</g>
	<g>
		<path fill-rule="evenodd" clip-rule="evenodd" fill="#FFFFFF" d="M37.8,47.8l-0.5,2.1l1.6-1.4l1.8,1.1l-0.8-2l1.6-1.4l-2.1,0.2
			l-0.8-2l-0.5,2.1L36,46.7L37.8,47.8z"/>
	</g>
	<g>
		<path fill-rule="evenodd" clip-rule="evenodd" fill="#FFFFFF" d="M43.1,41l0.5,2.1l0.8-2l2.2,0.1l-1.7-1.4l0.8-2L43.9,39l-1.7-1.4
			l0.5,2.1l-1.8,1.2L43.1,41z"/>
	</g>
	<g>
		<path fill-rule="evenodd" clip-rule="evenodd" fill="#FFFFFF" d="M42.1,24.3l2,0.7l-1.2-1.8l1.3-1.7l-2.1,0.6L41,20.4l-0.1,2.2
			l-2.1,0.6l2,0.7l0,2.1L42.1,24.3z"/>
	</g>
	<g>
		<path fill-rule="evenodd" clip-rule="evenodd" fill="#FFFFFF" d="M36,18.2l2.1-0.3l-1.9-1l0.4-2.1L35,16.3l-1.9-1l0.9,1.9
			l-1.6,1.5l2.1-0.3l0.9,1.9L36,18.2z"/>
	</g>
	<g>
		<path fill-rule="evenodd" clip-rule="evenodd" fill="#FFFFFF" d="M44.6,32.6l1.4,1.6L45.8,32l2-0.9l-2.1-0.4l-0.2-2.1l-1.1,1.9
			L42.3,30l1.4,1.6l-1.1,1.9L44.6,32.6z"/>
	</g>
	<g>
		<path fill-rule="evenodd" clip-rule="evenodd" fill="#EED000" d="M17.7,44.8h-0.6v-0.1c0,0,0,0,0.1,0h0.1l0,0c0,0,0,0,0-0.1v-1
			c0,0,0,0,0-0.1c0,0,0,0-0.1,0c0,0,0,0-0.1,0H17v-0.1h0.6v0.1c0,0,0,0-0.1,0h-0.1l0,0c0,0,0,0,0,0.1v1c0,0,0,0,0,0.1l0,0
			C17.6,44.7,17.6,44.7,17.7,44.8C17.7,44.7,17.7,44.7,17.7,44.8L17.7,44.8L17.7,44.8z"/>
		<path fill="#EED000" d="M17.8,44.9H17v-0.2h0.1h0.1l0,0l0,0v-1l0,0l0,0c0,0,0,0-0.1,0c0,0,0,0-0.1,0h-0.1v-0.2h0.7v0.2h-0.1
			c0,0,0,0-0.1,0c0,0,0,0-0.1,0l0,0l0,0v1l0,0l0,0c0,0,0,0,0.1,0h0.1h0.1v0.2H17.8z M17.3,44.7h0.2c0,0,0,0-0.1-0.1v-0.1v-1v-0.1
			c0,0,0,0,0-0.1h-0.2c0,0,0.1,0,0.1,0.1c0,0,0,0,0,0.1v1C17.3,44.6,17.3,44.7,17.3,44.7L17.3,44.7z"/>
	</g>
	<g>
		<path fill-rule="evenodd" clip-rule="evenodd" fill="#EED000" d="M19.4,43.5L19.4,43.5c-0.1,0-0.1,0-0.2,0c0,0,0,0,0,0.1
			c0,0,0,0.1,0,0.2v1h-0.1l-0.8-1.1v0.7c0,0.1,0,0.1,0,0.2v0.1c0,0,0,0,0.1,0h0.1v0.1h-0.6v-0.1c0,0,0,0,0.1,0h0.1c0,0,0,0,0-0.1
			c0,0,0-0.1,0-0.2v-0.7v-0.1v-0.1c0,0-0.1,0-0.1-0.1h-0.1v-0.1h0.4l0.8,1.1v-0.7c0-0.1,0-0.1,0-0.2v-0.1c0,0,0,0-0.1,0h-0.1v-0.1
			L19.4,43.5L19.4,43.5L19.4,43.5L19.4,43.5z"/>
		<path fill="#EED000" d="M19.2,44.9H19l-0.8-1v0.5c0,0.1,0,0.1,0,0.2v0.1c0,0,0,0,0.1,0s0.1,0,0.1,0h0.1v0.2h-0.7v-0.2h0.1
			c0,0,0,0,0.1,0h0.1c0,0,0,0,0-0.1c0,0,0-0.1,0-0.2v-0.7c0,0,0,0,0-0.1l0,0c0,0,0,0-0.1,0h-0.1h-0.1v-0.2h0.5l0.7,0.9v-0.5
			c0-0.1,0-0.1,0-0.2v-0.1c0,0,0,0-0.1,0h-0.1h-0.1v-0.2h0.7v0.2h-0.1c0,0,0,0-0.1,0h-0.1c0,0,0,0,0,0.1c0,0,0,0.1,0,0.2v1.1H19.2z
			 M19.1,44.8L19.1,44.8L19.1,44.8l-0.8-1.2h-0.2c0,0,0.1,0,0.1,0.1c0,0,0,0.1,0.1,0.1l0,0v-0.1L19.1,44.8z M18.1,44.7h0.2
			c0,0,0,0-0.1,0C18.2,44.7,18.2,44.6,18.1,44.7L18.1,44.7L18.1,44.7C18.2,44.7,18.2,44.7,18.1,44.7L18.1,44.7z M19,43.5
			C19,43.5,19.1,43.5,19,43.5c0.1,0,0.1,0.1,0.1,0.1l0,0l0,0c0-0.1,0-0.1,0.1-0.1l0,0H19z"/>
	</g>
	<g>
		<path fill-rule="evenodd" clip-rule="evenodd" fill="#EED000" d="M21.5,44.2C21.4,44.2,21.4,44.2,21.5,44.2c-0.1,0-0.1,0-0.1,0
			l0,0c0,0,0,0,0,0.1v0.1c0,0.1,0,0.1,0,0.2c0,0,0,0,0,0.1c-0.1,0-0.2,0.1-0.3,0.1c-0.1,0-0.2,0-0.3,0c-0.1,0-0.2,0-0.3,0
			c-0.1,0-0.2-0.1-0.2-0.1c-0.1-0.1-0.1-0.1-0.1-0.2c0-0.1-0.1-0.2-0.1-0.3s0-0.2,0.1-0.3c0-0.1,0.1-0.2,0.1-0.2
			c0.1-0.1,0.1-0.1,0.2-0.2c0.1,0,0.2-0.1,0.3-0.1c0.1,0,0.1,0,0.2,0s0.1,0,0.2,0.1v-0.1h0.1v0.5h-0.1c0-0.1,0-0.1-0.1-0.2
			c0-0.1,0-0.1-0.1-0.1l-0.1-0.1c0,0-0.1,0-0.2,0s-0.1,0-0.2,0s-0.1,0.1-0.1,0.1c0,0.1-0.1,0.1-0.1,0.2c0,0.1,0,0.2,0,0.3
			s0,0.2,0,0.2c0,0.1,0.1,0.1,0.1,0.2c0,0.1,0.1,0.1,0.2,0.1s0.1,0,0.2,0s0.1,0,0.2,0c0,0,0.1,0,0.1-0.1v-0.1v-0.1v-0.1v-0.1l0,0H21
			h-0.1V44L21.5,44.2L21.5,44.2L21.5,44.2L21.5,44.2z"/>
		<path fill="#EED000" d="M20.8,44.9c-0.1,0-0.2,0-0.3-0.1c-0.1,0-0.2-0.1-0.2-0.2c-0.1-0.1-0.1-0.1-0.2-0.2c0-0.1-0.1-0.2-0.1-0.3
			s0-0.2,0.1-0.3c0-0.1,0.1-0.2,0.2-0.3s0.1-0.1,0.2-0.2c0.1,0,0.2-0.1,0.3-0.1c0.1,0,0.2,0,0.2,0h0.1l0,0h0.2v0.6h-0.2l0,0
			c0-0.1,0-0.1,0-0.2c0,0,0-0.1-0.1-0.1l-0.1-0.1h-0.1c-0.1,0-0.1,0-0.2,0l-0.1,0.1c0,0-0.1,0.1-0.1,0.2c0,0.1,0,0.2,0,0.3
			s0,0.2,0,0.2c0,0.1,0,0.1,0.1,0.2c0,0.1,0.1,0.1,0.1,0.1c0.1,0,0.1,0,0.2,0s0.1,0,0.1,0H21c0,0,0,0,0-0.1v-0.1v-0.1c0,0,0,0,0-0.1
			l0,0c0,0,0,0-0.1,0h-0.1h-0.1v-0.2h0.7v0.2l0,0c0,0,0,0-0.1,0l0,0l0,0l0,0v0.1c0,0.1,0,0.1,0,0.2c0,0,0,0,0,0.1l0,0l0,0
			c-0.1,0-0.2,0.1-0.3,0.1C21,44.9,20.9,44.9,20.8,44.9z M20.5,43.5c-0.1,0-0.1,0.1-0.2,0.1c-0.1,0.1-0.1,0.1-0.1,0.2
			c0,0.1,0,0.2,0,0.3s0,0.2,0.1,0.3c0,0.1,0.1,0.2,0.1,0.2c0.1,0.1,0.1,0.1,0.2,0.1c0,0,0,0,0.1,0l0,0c-0.1,0-0.1-0.1-0.2-0.2
			c0-0.1-0.1-0.1-0.1-0.2c0-0.1,0-0.2,0-0.3s0-0.2,0-0.3C20.3,43.7,20.4,43.7,20.5,43.5C20.4,43.6,20.5,43.5,20.5,43.5z M21.1,44.2
			C21.1,44.2,21.1,44.3,21.1,44.2c0.1,0.1,0.1,0.1,0.1,0.2v0.1v0.1v0.1l0,0l0,0l0,0c0,0,0.1,0,0.1-0.1l0,0c0,0,0-0.1,0-0.2v-0.1
			v-0.1c0,0,0,0,0.1-0.1L21.1,44.2L21.1,44.2z M21,43.5C21.1,43.5,21.1,43.5,21,43.5c0.1,0.1,0.2,0.2,0.2,0.2s0,0,0,0.1v-0.3v0.1
			l0,0C21.1,43.5,21.1,43.5,21,43.5z"/>
	</g>
	<g>
		<path fill-rule="evenodd" clip-rule="evenodd" fill="#EED000" d="M22.8,43.6c0.1,0.1,0.1,0.1,0.1,0.2c0,0.1,0.1,0.2,0.1,0.3
			s0,0.2-0.1,0.3s-0.1,0.2-0.1,0.2c-0.1,0.1-0.1,0.1-0.2,0.1s-0.2,0.1-0.3,0.1c-0.1,0-0.2,0-0.3-0.1c-0.1,0-0.2-0.1-0.2-0.2
			c-0.1-0.1-0.1-0.1-0.1-0.2c0-0.1,0-0.2,0-0.3s0-0.2,0.1-0.3c0-0.1,0.1-0.2,0.1-0.2c0.1-0.1,0.1-0.1,0.2-0.1s0.2-0.1,0.3-0.1
			c0.1,0,0.2,0,0.3,0.1C22.7,43.5,22.8,43.5,22.8,43.6L22.8,43.6z M22.7,44.6c0-0.1,0.1-0.1,0.1-0.2c0-0.1,0-0.2,0-0.3s0-0.2,0-0.3
			s0-0.1-0.1-0.2c0-0.1-0.1-0.1-0.1-0.1c-0.1,0-0.1,0-0.2,0s-0.1,0-0.2,0.1c-0.1,0-0.1,0.1-0.1,0.1c0,0.1-0.1,0.1-0.1,0.2
			c0,0.1,0,0.2,0,0.2c0,0.1,0,0.2,0,0.3s0,0.1,0.1,0.2c0,0.1,0.1,0.1,0.1,0.1c0.1,0,0.1,0,0.2,0s0.1,0,0.2,0
			C22.6,44.7,22.6,44.6,22.7,44.6L22.7,44.6z"/>
		<path fill="#EED000" d="M22.4,44.9c-0.1,0-0.2,0-0.3-0.1c-0.1,0-0.2-0.1-0.2-0.2c-0.1-0.1-0.1-0.2-0.1-0.2c0-0.1-0.1-0.2-0.1-0.3
			s0-0.2,0.1-0.3c0-0.1,0.1-0.2,0.2-0.2c0.1-0.1,0.1-0.1,0.2-0.2c0.2-0.1,0.4-0.1,0.6,0c0.1,0,0.2,0.1,0.2,0.2l0,0
			c0.1,0.1,0.1,0.2,0.2,0.3c0,0.1,0.1,0.2,0.1,0.3s0,0.2-0.1,0.3c0,0.1-0.1,0.2-0.2,0.2c-0.1,0.1-0.1,0.1-0.2,0.2
			C22.5,44.9,22.5,44.9,22.4,44.9z M22.1,43.5c-0.1,0-0.1,0.1-0.2,0.1c-0.1,0.1-0.1,0.1-0.1,0.2c0,0.1,0,0.2,0,0.3s0,0.2,0,0.3
			s0.1,0.2,0.1,0.2c0.1,0.1,0.1,0.1,0.2,0.1L22,44.6c0-0.1-0.1-0.1-0.1-0.2c0-0.1,0-0.2,0-0.3s0-0.2,0-0.3s0-0.2,0.1-0.2
			C22,43.6,22,43.5,22.1,43.5z M22.7,44.6c0,0.1-0.1,0.1-0.1,0.1C22.7,44.7,22.7,44.6,22.7,44.6c0.1,0,0.2-0.1,0.2-0.2
			c0-0.1,0-0.2,0-0.3s0-0.2,0-0.3s-0.1-0.2-0.1-0.2l0,0c-0.1-0.1-0.1-0.1-0.2-0.1l0.1,0.1c0,0.1,0.1,0.1,0.1,0.2c0,0.1,0,0.2,0,0.3
			s0,0.2,0,0.3C22.8,44.4,22.8,44.5,22.7,44.6z M22.4,43.5c-0.1,0-0.1,0-0.2,0l-0.1,0.1c0,0.1-0.1,0.1-0.1,0.2c0,0.1,0,0.2,0,0.2
			c0,0.1,0,0.2,0,0.2c0,0.1,0,0.1,0.1,0.2l0.1,0.1c0,0,0.1,0,0.2,0s0.1,0,0.2,0l0.1-0.1l0,0c0-0.1,0.1-0.1,0.1-0.2
			c0-0.1,0-0.2,0-0.2c0-0.1,0-0.2,0-0.2c0-0.1,0-0.1-0.1-0.2l-0.1-0.1C22.5,43.5,22.4,43.5,22.4,43.5z"/>
	</g>
	<g>
		<path fill-rule="evenodd" clip-rule="evenodd" fill="#EED000" d="M24.6,44.1c0,0.1,0,0.2-0.1,0.3c0,0.1-0.1,0.2-0.2,0.2
			c-0.1,0.1-0.2,0.1-0.2,0.1c-0.1,0-0.2,0-0.3,0h-0.6v-0.1c0,0,0,0,0.1,0h0.1l0,0c0,0,0,0,0-0.1v-1c0,0,0,0,0-0.1l0,0c0,0,0,0-0.1,0
			c0,0,0,0-0.1,0v-0.1h0.6c0.1,0,0.2,0,0.2,0c0.1,0,0.2,0.1,0.2,0.1c0.1,0.1,0.1,0.1,0.2,0.2C24.5,43.9,24.6,44,24.6,44.1L24.6,44.1
			z M24.3,44.1c0-0.1,0-0.2,0-0.3s-0.1-0.1-0.1-0.2c0-0.1-0.1-0.1-0.2-0.1s-0.1,0-0.2,0h-0.1h-0.1v1.1c0,0.1,0,0.1,0.1,0.1
			c0,0,0.1,0,0.2,0s0.2,0,0.2,0c0.1,0,0.1-0.1,0.2-0.1c0-0.1,0.1-0.1,0.1-0.2C24.3,44.3,24.3,44.2,24.3,44.1L24.3,44.1z"/>
		<path fill="#EED000" d="M23.8,44.9h-0.6v-0.2h0.1c0,0,0,0,0.1,0l0,0l0,0l0,0v-1l0,0l0,0c0,0,0,0-0.1,0c0,0,0,0-0.1,0h-0.1v-0.2
			h0.7c0.1,0,0.2,0,0.3,0c0.1,0,0.2,0.1,0.2,0.1c0.1,0.1,0.2,0.1,0.2,0.2c0,0.1,0.1,0.2,0.1,0.4l0,0c0,0.1,0,0.2-0.1,0.3
			c0,0.1-0.1,0.2-0.2,0.2c-0.1,0.1-0.2,0.1-0.3,0.1C24,44.8,23.9,44.9,23.8,44.9z M23.4,44.7h0.2l0,0c-0.1,0-0.1-0.1-0.1-0.2v-1.1
			h-0.2c0,0,0,0,0.1,0.1v0.1v1C23.5,44.6,23.5,44.7,23.4,44.7L23.4,44.7z M23.7,43.5v1v0.1h0.1c0.1,0,0.1,0,0.2,0s0.1-0.1,0.1-0.1
			s0.1-0.1,0.1-0.2c0-0.1,0-0.1,0-0.2c0-0.1,0-0.2,0-0.2c0-0.1-0.1-0.1-0.1-0.2L24,43.6c-0.1,0-0.1,0-0.2,0
			C23.8,43.5,23.7,43.5,23.7,43.5L23.7,43.5z M24.1,43.5c0.1,0,0.1,0.1,0.2,0.1c0.1,0.1,0.1,0.1,0.1,0.2c0,0.1,0,0.2,0,0.3
			s0,0.2,0,0.3s-0.1,0.1-0.1,0.2c0,0,0,0-0.1,0.1c0,0,0.1,0,0.1-0.1c0.1,0,0.1-0.1,0.2-0.2c0-0.1,0.1-0.2,0.1-0.3s0-0.2-0.1-0.3
			c0-0.1-0.1-0.2-0.2-0.2S24.1,43.5,24.1,43.5L24.1,43.5z"/>
	</g>
	<g>
		<path fill-rule="evenodd" clip-rule="evenodd" fill="#EED000" d="M27.2,43.5L27.2,43.5c-0.1,0-0.1,0-0.1,0s0,0-0.1,0
			c0,0,0,0,0,0.1c0,0.2-0.1,0.3-0.2,0.5s-0.1,0.4-0.2,0.6h-0.1l-0.3-1.1l-0.4,1.1h-0.1c-0.1-0.2-0.1-0.5-0.2-0.7s-0.1-0.4-0.1-0.5
			c0,0,0,0,0-0.1l0,0c0,0,0,0-0.1,0c0,0,0,0-0.1,0v-0.1h0.6v0.1h-0.1h-0.1l0,0l0,0c0,0.1,0,0.2,0.1,0.3c0,0.1,0.1,0.3,0.2,0.6l0.3-1
			h0.1l0.3,1.1c0-0.2,0.1-0.3,0.1-0.4c0-0.1,0.1-0.2,0.1-0.3s0-0.1,0-0.1s0,0,0-0.1c0,0,0,0,0-0.1h-0.1v-0.1L27.2,43.5L27.2,43.5z"
			/>
		<path fill="#EED000" d="M26.7,44.9h-0.2L26.2,44l-0.3,0.9h-0.2l-0.4-1.2l0,0l0,0l0,0l0,0h-0.1v-0.2h0.7v0.2h-0.1h-0.1l0,0l0,0
			c0,0.1,0,0.1,0.1,0.3c0,0.1,0.1,0.2,0.1,0.4l0.3-0.9h0.2l0.3,0.9c0-0.1,0-0.2,0.1-0.2c0-0.1,0.1-0.2,0.1-0.3s0-0.1,0-0.1l0,0l0,0
			h-0.1h-0.1v-0.2h0.6v0.2h-0.1l0,0l0,0l0,0c0,0,0,0,0,0.1c0,0.2-0.1,0.3-0.2,0.5C26.8,44.4,26.8,44.6,26.7,44.9L26.7,44.9z
			 M26.6,44.8L26.6,44.8c0,0,0-0.1,0.1-0.1l-0.4-1.1l0,0v0.1L26.6,44.8z M25.8,44.8L25.8,44.8l0.1-0.2v-0.1
			c-0.1-0.3-0.1-0.5-0.2-0.6c0-0.1-0.1-0.2-0.1-0.3l0,0l0,0c0,0,0,0,0-0.1h-0.2l0,0c0,0,0,0,0.1,0.1c0,0,0,0,0,0.1L25.8,44.8z
			 M26.9,43.5C26.9,43.5,27,43.5,26.9,43.5c0.1,0.1,0.1,0.1,0.1,0.2v-0.1c0,0,0,0,0.1-0.1l0,0C27.1,43.5,26.9,43.5,26.9,43.5z"/>
	</g>
	<g>
		<path fill-rule="evenodd" clip-rule="evenodd" fill="#EED000" d="M28.6,44.4v0.4h-1.2v-0.1c0,0,0,0,0.1,0h0.1l0,0c0,0,0,0,0-0.1
			v-1c0,0,0,0,0-0.1l0,0c0,0,0,0-0.1,0h-0.1v-0.1h1.1v0.3h-0.1c0,0,0-0.1-0.1-0.2c0-0.1-0.1-0.1-0.1-0.1s0,0-0.1,0H28h-0.2V44H28
			c0.1,0,0.1,0,0.1,0s0,0,0.1,0c0,0,0,0,0-0.1v-0.1h0.1v0.5h-0.1v-0.1v-0.1c0,0,0,0-0.1,0H28h-0.2v0.4v0.1c0,0,0,0,0,0.1
			c0,0,0,0,0.1,0H28h0.1h0.1h0.1c0,0,0,0,0.1,0l0.1-0.1C28.5,44.5,28.5,44.4,28.6,44.4L28.6,44.4L28.6,44.4L28.6,44.4z"/>
		<path fill="#EED000" d="M28.6,44.9h-1.3v-0.2h0.1c0,0,0,0,0.1,0l0,0l0,0l0,0v-1l0,0l0,0c0,0,0,0-0.1,0c0,0,0,0-0.1,0h-0.1v-0.2
			h1.2v0.4h-0.2l0,0c0,0,0-0.1-0.1-0.1c0-0.1-0.1-0.1-0.1-0.1s0,0-0.1,0h-0.1h-0.2V44h0.1c0.1,0,0.1,0,0.1,0l0,0c0,0,0,0,0-0.1v-0.1
			l0,0H28v0.7h-0.2v-0.1v-0.1v-0.1l0,0c0,0,0,0-0.1,0h-0.1v0.4v0.1l0,0l0,0h0.1h0.1h0.1c0,0,0,0,0.1,0l0,0l0.1-0.1
			c0-0.1,0.1-0.1,0.1-0.1l0,0h0.2L28.6,44.9z M28.3,44.7h0.2v-0.2l0,0C28.4,44.6,28.4,44.7,28.3,44.7C28.4,44.7,28.3,44.7,28.3,44.7
			z M27.6,44.7h0.2l0,0c0,0,0,0-0.1-0.1v-0.1v-1.1h-0.2c0,0,0.1,0,0.1,0.1c0,0,0,0,0,0.1V44.7C27.6,44.6,27.6,44.7,27.6,44.7
			L27.6,44.7z M28.1,44.1L28.1,44.1c0.1,0.1,0.1,0.1,0.1,0.1V44C28.2,44,28.2,44,28.1,44.1C28.1,44,28.1,44.1,28.1,44.1L28.1,44.1z
			 M28.2,43.5C28.3,43.5,28.3,43.5,28.2,43.5c0.1,0.1,0.1,0.1,0.1,0.2v-0.2H28.2z"/>
	</g>
	<g>
		<path fill-rule="evenodd" clip-rule="evenodd" fill="#EED000" d="M30.6,43.8L30.6,43.8C30.5,43.8,30.5,43.7,30.6,43.8
			c-0.1-0.1-0.1-0.1-0.2-0.2c0,0,0-0.1-0.1-0.1c0,0,0,0-0.1,0c0,0,0,0-0.1,0H30h-0.1v1.1c0,0,0,0,0,0.1l0,0c0,0,0,0,0.1,0h0.1v0.1
			h-0.7v-0.1c0,0,0,0,0.1,0h0.1l0,0c0,0,0,0,0-0.1v-1.1h-0.1c0,0,0,0-0.1,0h-0.1c0,0,0,0-0.1,0c0,0,0,0-0.1,0.1c0,0,0,0.1-0.1,0.1
			v0.1h-0.1v-0.4h1.2L30.6,43.8L30.6,43.8L30.6,43.8z"/>
		<path fill="#EED000" d="M30.4,44.9h-0.8v-0.2h0.1c0,0,0,0,0.1,0h0.1l0,0l0,0v-1.1c0,0,0,0-0.1,0h-0.1l0,0c0,0,0,0-0.1,0.1v0.1v0.1
			l0,0h-0.2v-0.5h1.3v0.5h-0.2l0,0c0,0,0,0,0-0.1v-0.1c0,0,0,0-0.1-0.1l0,0c0,0,0,0-0.1,0h-0.1l0,0v1.1l0,0l0,0c0,0,0,0,0.1,0h0.1
			h0.1L30.4,44.9L30.4,44.9z M29.9,44.7h0.2c0,0,0,0-0.1-0.1v-0.1v-1.1h-0.1v1.1C29.9,44.6,29.9,44.7,29.9,44.7L29.9,44.7z
			 M29.4,43.5v0.2v-0.1c0,0,0-0.1,0.1-0.1l0,0C29.5,43.5,29.4,43.5,29.4,43.5z M30.4,43.5L30.4,43.5c0.1,0.1,0.1,0.1,0.1,0.1v0.1
			v-0.2C30.5,43.5,30.4,43.5,30.4,43.5z"/>
	</g>
	<g>
		<path fill-rule="evenodd" clip-rule="evenodd" fill="#EED000" d="M32.2,44.8h-0.4c-0.1-0.1-0.2-0.2-0.2-0.3
			c-0.1-0.1-0.1-0.2-0.2-0.3h-0.1v0.4c0,0,0,0,0,0.1l0,0c0,0,0,0,0.1,0h0.1v0.1h-0.6v-0.1c0,0,0,0,0.1,0h0.1l0,0c0,0,0,0,0-0.1v-1
			c0,0,0,0,0-0.1l0,0c0,0,0,0-0.1,0c0,0,0,0-0.1,0v-0.1h0.6c0.1,0,0.1,0,0.2,0s0.1,0,0.1,0.1l0.1,0.1c0,0,0,0.1,0,0.2
			c0,0.1,0,0.1,0,0.1s0,0.1-0.1,0.1l-0.1,0.1c0,0-0.1,0-0.1,0.1c0.1,0.1,0.1,0.2,0.2,0.2c0,0.1,0.1,0.1,0.2,0.2l0.1,0.1
			c0,0,0,0,0.1,0C32.1,44.7,32.1,44.7,32.2,44.8C32.1,44.7,32.2,44.7,32.2,44.8L32.2,44.8L32.2,44.8L32.2,44.8z M31.7,43.8
			c0-0.1,0-0.2-0.1-0.2c0,0-0.1-0.1-0.2-0.1h-0.2v0.6h0.1c0.1,0,0.2,0,0.2-0.1C31.6,43.9,31.7,43.9,31.7,43.8L31.7,43.8z"/>
		<path fill="#EED000" d="M32.2,44.9h-0.5l0,0c-0.1-0.1-0.2-0.2-0.2-0.3c-0.1-0.1-0.1-0.2-0.2-0.3h-0.1v0.4l0,0l0,0l0,0
			c0,0,0,0,0.1,0h0.1v0.2h-0.7v-0.2h0.1c0,0,0,0,0.1,0l0,0l0,0l0,0v-1l0,0l0,0l0,0c0,0,0,0-0.1,0c0,0,0,0-0.1,0h-0.1v-0.2h0.7
			c0.1,0,0.1,0,0.2,0s0.1,0,0.2,0.1l0.1,0.1c0,0,0,0.1,0,0.2c0,0.1,0,0.1,0,0.2c0,0,0,0.1-0.1,0.1l-0.1,0.1c0,0,0,0-0.1,0
			c0,0.1,0.1,0.1,0.1,0.2c0,0.1,0.1,0.1,0.2,0.2c0,0,0,0.1,0.1,0.1c0,0,0,0,0.1,0l0,0c0,0,0,0,0.1,0h0.1
			C32.2,44.8,32.2,44.9,32.2,44.9z M31.8,44.7H32c0,0,0,0-0.1,0H31.8c-0.1-0.2-0.1-0.3-0.2-0.3c0-0.1-0.1-0.1-0.2-0.2l0,0h-0.1
			c0.1,0.1,0.2,0.2,0.2,0.3C31.7,44.5,31.8,44.6,31.8,44.7z M31,44.7h0.2c0,0,0,0,0-0.1v-0.1v-1.1H31c0,0,0,0,0.1,0.1v0.1v1
			C31.1,44.6,31.1,44.7,31,44.7L31,44.7z M31.6,43.5L31.6,43.5c0.1,0.1,0.2,0.2,0.2,0.3s0,0.2-0.1,0.3l0,0c0,0,0,0,0.1,0
			c0,0,0.1,0,0.1-0.1c0,0,0-0.1,0.1-0.1v-0.1v-0.1c0,0,0-0.1-0.1-0.1C31.7,43.5,31.7,43.5,31.6,43.5L31.6,43.5z M31.3,44L31.3,44
			c0.1,0,0.2,0,0.3-0.1c0,0,0.1-0.1,0.1-0.2l0,0c0-0.1,0-0.1-0.1-0.2c0,0-0.1-0.1-0.2-0.1h-0.1C31.3,43.4,31.3,44,31.3,44z"/>
	</g>
	<g>
		<path fill-rule="evenodd" clip-rule="evenodd" fill="#EED000" d="M33.6,43.5L33.6,43.5c-0.1,0-0.1,0-0.2,0c0,0,0,0,0,0.1
			c0,0,0,0.1,0,0.2v0.6c0,0.1,0,0.1,0,0.2c0,0.1-0.1,0.1-0.1,0.1c-0.1,0-0.1,0.1-0.2,0.1c-0.1,0-0.1,0-0.2,0c-0.1,0-0.2,0-0.2,0
			c-0.1,0-0.1-0.1-0.2-0.1l-0.1-0.1c0,0,0-0.1,0-0.2v-0.8c0,0,0,0,0-0.1l0,0c0,0,0,0-0.1,0c0,0,0,0-0.1,0v-0.1h0.6v0.1
			c0,0,0,0-0.1,0c0,0,0,0-0.1,0l0,0c0,0,0,0,0,0.1v0.8v0.1v0.1l0.1,0.1c0,0,0.1,0,0.2,0c0.1,0,0.1,0,0.2,0l0.1-0.1
			c0,0,0-0.1,0.1-0.1v-0.1v-0.6c0-0.1,0-0.1,0-0.2v-0.1h-0.1h-0.1v-0.1L33.6,43.5L33.6,43.5L33.6,43.5L33.6,43.5z"/>
		<path fill="#EED000" d="M32.9,44.9c-0.1,0-0.2,0-0.2,0c-0.1,0-0.1-0.1-0.2-0.1c-0.1,0-0.1-0.1-0.1-0.1c0-0.1,0-0.1,0-0.2v-0.8l0,0
			l0,0l0,0c0,0,0,0-0.1,0h-0.1v-0.2h0.7v0.2h-0.1c0,0,0,0-0.1,0c0,0,0,0-0.1,0l0,0l0,0v0.8v0.1v0.1c0,0,0,0.1,0.1,0.1
			c0,0,0.1,0,0.2,0c0.1,0,0.1,0,0.2,0c0,0,0.1,0,0.1-0.1v-0.1v-0.1v-0.6c0-0.1,0-0.1,0-0.2v-0.1c0,0,0,0-0.1,0H33h-0.1v-0.2h0.7v0.2
			h-0.1c0,0,0,0-0.1,0h-0.1c0,0,0,0,0,0.1c0,0,0,0.1,0,0.2v0.6c0,0.1,0,0.2-0.1,0.2c0,0.1-0.1,0.1-0.1,0.2C33,44.9,33,45,32.9,45
			C33,44.9,33,44.9,32.9,44.9z M32.4,43.5L32.4,43.5C32.5,43.6,32.5,43.6,32.4,43.5l0.1,0.9v0.1c0,0,0,0.1,0.1,0.1l0.1,0.1
			c0.1,0,0.1,0,0.2,0c-0.1,0-0.1,0-0.1,0c-0.1,0-0.1-0.1-0.1-0.1s0-0.1-0.1-0.1v-0.1v-0.8v-0.1c0,0,0,0,0-0.1L32.4,43.5L32.4,43.5z
			 M33.2,43.5C33.2,43.5,33.3,43.5,33.2,43.5C33.3,43.5,33.3,43.6,33.2,43.5L33.2,43.5L33.2,43.5c0.1,0,0.1,0,0.2,0l0,0H33.2z"/>
	</g>
	<g>
		<path fill-rule="evenodd" clip-rule="evenodd" fill="#EED000" d="M34.6,44.2L34.6,44.2l0.1,0.2c0,0.1,0,0.2-0.1,0.3
			s-0.2,0.1-0.3,0.1s-0.1,0-0.2,0c-0.1,0-0.1,0-0.2-0.1v0.1h-0.1v-0.5h0.1c0,0.1,0,0.1,0.1,0.2l0.1,0.1l0.1,0.1c0,0,0.1,0,0.2,0h0.1
			h0.1c0,0,0,0,0-0.1v-0.1C34.6,44.4,34.6,44.4,34.6,44.2l-0.1,0c0,0-0.1,0-0.1-0.1c-0.1,0-0.1,0-0.1-0.1c-0.1,0-0.1-0.1-0.2-0.1
			c0-0.1-0.1-0.1-0.1-0.2c0-0.1,0-0.1,0-0.1l0.1-0.1l0.1-0.1c0.1,0,0.1,0,0.2,0c0.1,0,0.1,0,0.2,0c0.1,0,0.1,0,0.1,0.1v-0.1h0.1v0.5
			h-0.1c0-0.1,0-0.1,0-0.2c0,0,0-0.1-0.1-0.1l-0.1-0.1h-0.1c-0.1,0-0.1,0-0.2,0.1l-0.1,0.1c0,0.1,0,0.1,0,0.1l0.1,0.1
			c0,0,0.1,0,0.1,0.1c0,0,0.1,0,0.1,0.1C34.5,44,34.5,44.1,34.6,44.2C34.6,44.1,34.6,44.1,34.6,44.2L34.6,44.2z"/>
		<path fill="#EED000" d="M34.3,44.9c-0.1,0-0.1,0-0.2,0H34V45h-0.2v-0.6H34l0,0c0,0.1,0,0.1,0.1,0.2c0,0,0,0.1,0.1,0.1l0.1,0.1h0.1
			h0.1c0,0,0,0,0.1,0c0,0,0,0,0-0.1v-0.1v-0.1l-0.1-0.1c0,0-0.1,0-0.1-0.1c-0.1,0-0.1,0-0.1-0.1c-0.1,0-0.2-0.1-0.2-0.2
			C34,43.9,34,43.8,34,43.7s0-0.1,0-0.2c0-0.1,0.1-0.1,0.1-0.1s0.1-0.1,0.2-0.1c0.1,0,0.3,0,0.4,0h0.1l0,0H35v0.6h-0.2l0,0
			c0-0.1,0-0.1,0-0.1s0-0.1-0.1-0.1l-0.1-0.1h-0.1h-0.1v0.1v0.1l0.1,0.1c0,0,0.1,0,0.1,0.1c0,0,0.1,0,0.1,0.1c0,0,0.1,0,0.1,0.1
			l0.1,0.1l0,0l0.1,0.1c0,0,0,0.1,0,0.2c0,0.1-0.1,0.3-0.2,0.3C34.5,44.8,34.4,44.9,34.3,44.9z M33.9,44.6L33.9,44.6
			c0.1,0,0.1,0.1,0.2,0.1C34,44.7,34,44.7,33.9,44.6L33.9,44.6c0-0.1,0-0.1,0-0.2V44.6L33.9,44.6z M34,43.5L34,43.5
			C33.9,43.5,33.9,43.6,34,43.5l-0.1,0.2c0,0.1,0,0.1,0.1,0.2c0,0,0.1,0.1,0.2,0.1c0,0,0.1,0,0.1,0.1c0.1,0,0.1,0,0.1,0.1
			c0.1,0,0.1,0.1,0.2,0.1c0,0.1,0.1,0.1,0.1,0.2v0.1c0,0,0,0,0,0.1l0,0c0.1-0.1,0.1-0.2,0.1-0.3v-0.1c0,0,0-0.1-0.1-0.1
			c0,0-0.1,0-0.1-0.1c0,0-0.1,0-0.1-0.1c0,0-0.1,0-0.1-0.1c0,0-0.1,0-0.1-0.1c-0.1,0-0.1-0.1-0.1-0.1s-0.1-0.1-0.1-0.2
			C33.9,43.6,34,43.6,34,43.5z M34.5,43.5L34.5,43.5c0.1,0.1,0.1,0.2,0.1,0.2l0,0L34.5,43.5L34.5,43.5L34.5,43.5L34.5,43.5z"/>
	</g>
	<g>
		<path fill-rule="evenodd" clip-rule="evenodd" fill="#EED000" d="M36.1,43.8L36.1,43.8C36.1,43.8,36.1,43.7,36.1,43.8
			C36,43.7,36,43.6,36,43.6s0-0.1-0.1-0.1c0,0,0,0-0.1,0c0,0,0,0-0.1,0h-0.1h-0.1v1.1c0,0,0,0,0,0.1l0,0c0,0,0,0,0.1,0h0.1v0.1H35
			v-0.1c0,0,0,0,0.1,0h0.1l0,0c0,0,0,0,0-0.1v-1.1h-0.1c0,0,0,0-0.1,0h-0.1c0,0,0,0-0.1,0c0,0,0,0-0.1,0.1c0,0,0,0.1-0.1,0.1v0.1
			h-0.1v-0.4h1.2v0.4H36.1z"/>
		<path fill="#EED000" d="M35.9,44.9h-0.8v-0.2h0.1c0,0,0,0,0.1,0h0.1l0,0l0,0v-1.1c0,0,0,0-0.1,0h-0.1l0,0c0,0,0,0-0.1,0.1v0.1v0.1
			l0,0h-0.2v-0.5h1.3v0.5H36l0,0c0,0,0,0,0-0.1v-0.1c0,0,0,0-0.1-0.1l0,0c0,0,0,0-0.1,0h-0.1l0,0v1.1l0,0l0,0c0,0,0,0,0.1,0h0.1H36
			L35.9,44.9L35.9,44.9z M35.4,44.7h0.2c0,0,0,0-0.1-0.1v-0.1v-1.1h-0.1v1.1C35.5,44.6,35.5,44.7,35.4,44.7
			C35.5,44.7,35.4,44.7,35.4,44.7z M35,43.5v0.2v-0.1C35,43.6,35,43.5,35,43.5L35,43.5C35.1,43.5,35,43.5,35,43.5z M35.9,43.5
			C36,43.5,36,43.5,35.9,43.5C36,43.6,36,43.6,35.9,43.5l0.1,0.2L35.9,43.5C36,43.5,35.9,43.5,35.9,43.5z"/>
	</g>
	<g>
		<path fill="#EED000" d="M26.7,27.2L26.7,27.2c0,0,0.2,0.1,0.2,0.3c0.2,0,0.2,0.1,0.2,0.2c0,0-0.2,0-0.2,0.1s0,0.2,0.1,0.3
			c0,0,0.2,0.1,0.3-0.1c0.1-0.3,0.2-0.4,0.2-0.4c0-0.1,0.2-0.3,0.4-0.4c0.1,0,0.1,0,0.2,0c0,0,0.2,0,0.2,0.2c0,0.1,0,0.2-0.1,0.2
			s-0.2,0-0.2,0h-0.1l-0.1,0.1c0,0-0.1,0.2-0.1,0.3c0,0.1-0.1,0.4-0.4,0.5h-0.8c-0.3,0-0.4-0.4-0.4-0.5S26,27.7,26,27.7
			c0-0.1-0.1-0.1-0.1-0.1s0,0-0.1,0c0,0-0.1,0.1-0.2,0c-0.1,0-0.1-0.1-0.1-0.2s0.2-0.2,0.2-0.2c0.1,0,0.1,0,0.2,0
			c0.2,0,0.4,0.3,0.4,0.4c0,0,0,0.1,0.2,0.4c0.1,0.3,0.3,0.1,0.3,0.1c0.1-0.1,0.1-0.2,0.1-0.3c0-0.1-0.2-0.1-0.2-0.1
			c0-0.2,0-0.3,0.2-0.2C26.5,27.3,26.7,27.2,26.7,27.2L26.7,27.2L26.7,27.2z"/>
	</g>
	<g>
		<path fill-rule="evenodd" clip-rule="evenodd" fill="#EED000" d="M27.7,36.2h-1.9l0.2-7.5h1.5L27.7,36.2z"/>
		<path fill="#002D56" d="M28,36.5h-2.5l0.2-8h2L28,36.5z M26.1,35.9h1.3L27.2,29h-0.9L26.1,35.9z"/>
	</g>
	<g>
		<path fill-rule="evenodd" clip-rule="evenodd" fill="#EED000" d="M27.7,40.4h-2V37h2V40.4z"/>
	</g>
	<g>
		<path fill="#EED000" d="M25.6,36.6h2.1c0.1,0,0.3,0.1,0.3,0.2c0,0.1-0.1,0.2-0.3,0.2h-2.1c-0.1,0-0.3-0.1-0.3-0.2
			C25.4,36.7,25.5,36.6,25.6,36.6z"/>
	</g>
	<g>
		<path fill-rule="evenodd" clip-rule="evenodd" fill="#EED000" d="M25.8,36.2h1.8c0.1,0,0.2,0.1,0.2,0.2l0,0c0,0.1-0.1,0.2-0.2,0.2
			h-1.8c-0.1,0-0.2-0.1-0.2-0.2l0,0C25.5,36.3,25.6,36.2,25.8,36.2z"/>
	</g>
	<g>
		<path fill="#EED000" d="M26.1,28.5h1.2c0.1,0,0.2,0.1,0.2,0.1c0,0.1-0.1,0.1-0.2,0.1h-1.2c-0.1,0-0.2-0.1-0.2-0.1
			S26,28.5,26.1,28.5z"/>
		<path fill="#002D56" d="M27.3,29h-1.2c-0.2,0-0.4-0.1-0.4-0.3c0-0.2,0.2-0.3,0.4-0.3h1.2c0.2,0,0.4,0.1,0.4,0.3
			C27.7,28.8,27.5,29,27.3,29z"/>
	</g>
	<g>
		<path fill-rule="evenodd" clip-rule="evenodd" fill="#EED000" d="M16.5,40.8h20.7v0.7H16.5V40.8z"/>
	</g>
	<g>
		<path fill="#EED000" d="M15.6,41.5h22.5v0.7H15.6V41.5z"/>
	</g>
	<g>
		<path fill-rule="evenodd" clip-rule="evenodd" fill="#EED000" d="M17.1,25.6h19.3V26H17.1V25.6z"/>
	</g>
	<g>
		<path fill-rule="evenodd" clip-rule="evenodd" fill="#EED000" d="M32.8,25.6c-1-2.4-3.3-4.1-6-4.1s-5,1.7-6,4.1h-2.4
			c1.1-3.7,4.5-6.4,8.4-6.4c4,0,7.3,2.7,8.4,6.4H32.8z"/>
	</g>
	<g>
		<path fill-rule="evenodd" clip-rule="evenodd" fill="#EED000" d="M17.6,26.1c0,0,0.3,0.2,0.6,0.8h17.2c0,0,0.3-0.7,0.7-0.8H17.6z"
			/>
	</g>
	<g>
		<path fill-rule="evenodd" clip-rule="evenodd" fill="#EED000" d="M21.9,27c0,0,1.6,2.7,4.8,2.7s4.8-2.6,4.8-2.6l0.9,1.3
			c0,0,0.3,0.4-0.3,1c-2.2,1.9-3.9,2.3-5.4,2.3c-2.2-0.1-4-0.9-5.4-2.3c-0.2-0.2-0.3-0.5-0.2-0.7L21.9,27z"/>
	</g>
	<g>
		<path fill="#EED000" d="M18.1,26.9h17.3c0.1,0,0.1,0.1,0.1,0.1l0,0c0,0.1,0,0.1-0.1,0.1H18.1C18,27.1,18,27,18,27l0,0
			C18,26.9,18.1,26.9,18.1,26.9z"/>
	</g>
	<g>
		<path fill="#EED000" d="M19.7,27.2L19.7,27.2c0,0,0.2,0.1,0.2,0.3c0.2,0,0.2,0.1,0.2,0.2c0,0-0.2,0-0.2,0.1s0,0.2,0.1,0.3
			c0,0,0.2,0.1,0.3-0.1s0.2-0.4,0.2-0.4c0-0.1,0.2-0.3,0.4-0.4c0.1,0,0.1,0,0.2,0c0,0,0.2,0,0.2,0.2s0,0.2-0.1,0.2s-0.2,0-0.2,0
			h-0.1l-0.1,0.1c0,0-0.1,0.2-0.1,0.3c0,0.1-0.1,0.4-0.4,0.5h-0.8c-0.3,0-0.4-0.4-0.4-0.5S19,27.7,19,27.7c0-0.1-0.1-0.1-0.1-0.1
			s0,0-0.1,0c0,0-0.1,0.1-0.2,0c-0.1,0-0.1-0.1-0.1-0.2s0.2-0.2,0.2-0.2c0.1,0,0.1,0,0.2,0c0.2,0,0.4,0.3,0.4,0.4c0,0,0,0.1,0.2,0.4
			s0.3,0.1,0.3,0.1c0.1-0.1,0.1-0.2,0.1-0.3c0-0.1-0.2-0.1-0.2-0.1c0-0.2,0-0.3,0.2-0.2C19.5,27.2,19.7,27.2,19.7,27.2L19.7,27.2
			L19.7,27.2z"/>
	</g>
	<g>
		<path fill-rule="evenodd" clip-rule="evenodd" fill="#EED000" d="M20.6,36.2h-1.9l0.3-7.5h1.4L20.6,36.2z"/>
	</g>
	<g>
		<path fill-rule="evenodd" clip-rule="evenodd" fill="#EED000" d="M20.7,40.4h-2V37h2V40.4z"/>
	</g>
	<g>
		<path fill-rule="evenodd" clip-rule="evenodd" fill="#EED000" d="M18.6,36.6h2.1c0.1,0,0.3,0.1,0.3,0.2l0,0c0,0.1-0.1,0.2-0.3,0.2
			h-2.1c-0.1,0-0.3-0.1-0.3-0.2l0,0C18.4,36.7,18.5,36.6,18.6,36.6L18.6,36.6z"/>
	</g>
	<g>
		<path fill-rule="evenodd" clip-rule="evenodd" fill="#EED000" d="M18.8,36.2h1.8c0.1,0,0.2,0.1,0.2,0.2l0,0c0,0.1-0.1,0.2-0.2,0.2
			h-1.8c-0.1,0-0.2-0.1-0.2-0.2l0,0C18.5,36.3,18.6,36.2,18.8,36.2z"/>
	</g>
	<g>
		<path fill="#EED000" d="M19,28.5h1.2c0.1,0,0.2,0.1,0.2,0.1c0,0.1-0.1,0.1-0.2,0.1H19c-0.1,0-0.2-0.1-0.2-0.1
			C18.9,28.6,18.9,28.5,19,28.5L19,28.5z"/>
	</g>
	<g>
		<path fill-rule="evenodd" clip-rule="evenodd" fill="#EED000" d="M18.2,40.4h2.9v0.4h-2.9V40.4z"/>
	</g>
	<g>
		<path fill="#EED000" d="M33.9,27.2L33.9,27.2c0,0,0.2,0.1,0.2,0.3c0.2,0,0.2,0.1,0.2,0.2c0,0-0.2,0-0.2,0.1s0,0.2,0.1,0.3
			c0,0,0.2,0.1,0.3-0.1c0.1-0.3,0.2-0.4,0.2-0.4c0-0.1,0.2-0.3,0.4-0.4c0.1,0,0.1,0,0.2,0c0,0,0.2,0,0.2,0.2c0,0.1,0,0.2-0.1,0.2
			s-0.2,0-0.2,0h-0.1L35,27.7c0,0-0.1,0.2-0.1,0.3c0,0.1-0.1,0.4-0.4,0.5h-0.8c-0.3,0-0.4-0.4-0.4-0.5s-0.1-0.3-0.1-0.3
			c0-0.1-0.1-0.1-0.1-0.1s0,0-0.1,0c0,0-0.1,0.1-0.2,0c-0.1,0-0.1-0.1-0.1-0.2s0.2-0.2,0.2-0.2c0.1,0,0.1,0,0.2,0
			c0.2,0,0.4,0.3,0.4,0.4c0,0,0,0.1,0.2,0.4c0.1,0.3,0.3,0.1,0.3,0.1c0.1-0.1,0.1-0.2,0.1-0.3c0-0.1-0.2-0.1-0.2-0.1
			c0-0.2,0-0.3,0.2-0.2C33.7,27.3,33.9,27.2,33.9,27.2L33.9,27.2L33.9,27.2z"/>
	</g>
	<g>
		<path fill-rule="evenodd" clip-rule="evenodd" fill="#EED000" d="M34.9,36.2H33l0.3-7.5h1.4L34.9,36.2z"/>
	</g>
	<g>
		<path fill-rule="evenodd" clip-rule="evenodd" fill="#EED000" d="M35,40.4h-2V37h2.1L35,40.4z"/>
	</g>
	<g>
		<path fill="#EED000" d="M32.9,36.6H35c0.1,0,0.3,0.1,0.3,0.2c0,0.1-0.1,0.2-0.3,0.2h-2.1c-0.1,0-0.3-0.1-0.3-0.2
			C32.7,36.7,32.8,36.6,32.9,36.6z"/>
	</g>
	<g>
		<path fill-rule="evenodd" clip-rule="evenodd" fill="#EED000" d="M33,36.2h1.8c0.1,0,0.2,0.1,0.2,0.2l0,0c0,0.1-0.1,0.2-0.2,0.2
			H33c-0.1,0-0.2-0.1-0.2-0.2l0,0C32.8,36.3,32.9,36.2,33,36.2z"/>
	</g>
	<g>
		<path fill="#EED000" d="M33.3,28.5h1.2c0.1,0,0.2,0.1,0.2,0.1c0,0.1-0.1,0.1-0.2,0.1h-1.2c-0.1,0-0.2-0.1-0.2-0.1
			S33.2,28.5,33.3,28.5z"/>
	</g>
	<g>
		<path fill-rule="evenodd" clip-rule="evenodd" fill="#EED000" d="M25.2,40.4h2.9v0.4h-2.9V40.4z"/>
	</g>
	<g>
		<path fill-rule="evenodd" clip-rule="evenodd" fill="#EED000" d="M14.4,35.1c-0.5-0.4-1-0.3-1-0.3s0.4-0.5,1-0.3
			c0.4,0.2,0.7,0.7,1.7,0.1c1-0.6,1.3-0.9,2.2-1.2c0.9-0.3,1.6-0.4,1.8-0.4c0.2-0.1,0.5-0.2,0.7-1.2c0-0.2,0.9,1.9,0.9,1.9
			s-0.1,0.7-1,1.1c-0.9,0.4-2.3,0.6-3.2,1.3c-0.3,0.2-0.8,0.6-1.1,1.1c-0.8,1.1-1.6,1.2-1.6,1.2s0.7-0.6,0.9-1.5
			c0-0.2,0-0.9,0.3-1.2c-0.3,0.3-1.1-0.3-1-0.2C15,35.6,14.9,35.5,14.4,35.1L14.4,35.1z"/>
		<path fill="#002D56" d="M14,38.9l0.7-0.6c0,0,0.7-0.6,0.8-1.3c0,0,0-0.1,0-0.2c0-0.2,0-0.4,0.1-0.6c-0.2,0-0.4-0.2-0.7-0.3l0,0
			v-0.1l0,0l-0.1-0.1c0,0-0.2-0.2-0.5-0.4l0,0c-0.4-0.3-0.8-0.2-0.8-0.2l-0.6,0.1l0.4-0.5c0.2-0.2,0.7-0.6,1.3-0.3
			c0.1,0,0.2,0.1,0.3,0.2c0.3,0.2,0.5,0.4,1.1,0c0.2-0.1,0.4-0.2,0.5-0.3c0.6-0.4,1-0.7,1.7-0.9c0.6-0.2,1.1-0.3,1.4-0.4
			c0.1,0,0.3-0.1,0.3-0.1c0.2-0.1,0.4-0.1,0.5-1c0-0.1,0.1-0.2,0.2-0.2c0.2,0,0.3,0.2,0.4,0.4s0.2,0.4,0.3,0.7
			c0.2,0.5,0.4,0.9,0.4,0.9v0.1v0.1c0,0-0.2,0.8-1.1,1.3c-0.3,0.1-0.7,0.3-1.1,0.4c-0.7,0.2-1.5,0.5-2,0.9l-0.1,0.1
			c-0.3,0.2-0.7,0.6-1,0.9c-0.8,1.2-1.7,1.3-1.7,1.4L14,38.9z M15.8,35.7l0.4,0.4C16,36.2,16,36.6,16,36.8c0,0.1,0,0.2,0,0.3
			c0,0.2-0.1,0.3-0.2,0.5c0.1-0.1,0.2-0.3,0.3-0.4c0.3-0.4,0.8-0.8,1.1-1l0.1-0.1c0.6-0.5,1.4-0.7,2.1-0.9c0.4-0.1,0.8-0.2,1.1-0.4
			c0.6-0.3,0.8-0.7,0.8-0.8c-0.2-0.4-0.4-0.9-0.6-1.2c-0.2,0.5-0.5,0.7-0.7,0.8c-0.1,0-0.2,0.1-0.4,0.1c-0.3,0.1-0.8,0.2-1.4,0.3
			c-0.7,0.2-1,0.4-1.6,0.9c-0.2,0.1-0.3,0.2-0.5,0.3c-0.5,0.3-0.9,0.4-1.2,0.3c0.1,0.1,0.2,0.2,0.2,0.2
			C15.6,35.7,15.8,35.7,15.8,35.7z M14.8,35.8L14.8,35.8L14.8,35.8z"/>
	</g>
	<g>
		<path fill-rule="evenodd" clip-rule="evenodd" fill="#EED000" d="M32.8,31.9c0,0,0.1,0.8,1.8,1.3c1.7,0.4,1.9,1,2.2,1.1
			s1,0.6,1.7,0.4c0.3-0.1,1.1-0.3,1.2-0.3c0,0-0.2,0.5-0.3,0.5c-0.6,0.7-0.8,0.8-1,0.9C38.1,36,38,36,37.7,36.1c0,0,0.3,0.4,0.3,1
			s0.9,1.2,0.9,1.2s-1.1-0.3-1.5-0.9c-0.5-0.6-1.3-1.2-1.5-1.3c-0.3-0.1-1.8-0.6-2.1-0.8c-0.3-0.1-1.3-0.6-1.4-1.4
			C32.2,33,32.8,31.9,32.8,31.9L32.8,31.9z"/>
		<path fill="#002D56" d="M38.9,38.5c0,0-1.2-0.3-1.7-1c-0.5-0.6-1.2-1.1-1.4-1.3c-0.2-0.1-0.9-0.3-1.4-0.5
			c-0.3-0.1-0.6-0.2-0.7-0.2c-0.1,0-1.4-0.6-1.6-1.6c-0.1-0.9,0.5-2,0.5-2l0.4-0.6l0.1,0.7c0,0,0.2,0.7,1.6,1.1
			c1.3,0.3,1.8,0.7,2.1,1c0.1,0.1,0.1,0.1,0.2,0.1c0,0,0.1,0.1,0.2,0.1c0.3,0.2,0.8,0.5,1.4,0.3c0.1,0,0.4-0.1,0.7-0.2
			c0.5-0.1,0.6-0.1,0.7,0l0,0l0,0c0.1,0.1,0,0.3-0.1,0.5c0,0-0.1,0.2-0.2,0.3c-0.6,0.7-0.8,0.8-1,0.9h-0.1c-0.2,0.1-0.3,0.2-0.4,0.2
			c0.1,0.2,0.2,0.4,0.2,0.8c0,0.4,0.6,0.9,0.8,1L38.9,38.5z M32.9,32.5c-0.1,0.4-0.3,0.9-0.2,1.3c0.1,0.7,0.9,1.1,1.2,1.2
			c0.1,0,0.4,0.1,0.7,0.2c0.7,0.2,1.2,0.4,1.4,0.5c0.3,0.2,1.1,0.7,1.6,1.4c0.1,0.1,0.2,0.3,0.4,0.4c-0.1-0.2-0.1-0.3-0.1-0.5
			c0-0.5-0.3-0.8-0.3-0.8l-0.3-0.4h0.5c0.2,0,0.3,0,0.6-0.2h0.1c0.2-0.1,0.4-0.2,0.9-0.8l0,0c-0.2,0.1-0.5,0.1-0.7,0.2
			c-0.7,0.2-1.4-0.1-1.8-0.3c-0.1,0-0.1-0.1-0.1-0.1c-0.1,0-0.2-0.1-0.3-0.2c-0.3-0.2-0.7-0.6-1.9-0.9
			C33.6,33.2,33.1,32.8,32.9,32.5z M39.3,34.8L39.3,34.8L39.3,34.8z"/>
	</g>
	<g>
		<path fill="#EED000" d="M17.1,32.6c-1.1-0.4-0.8-0.7-0.8-0.7c0.3-0.5,0.6-1.1,2-1.6c1.8-0.7,3.7-0.4,3.2,0.4
			c-0.3,0.5-0.8,1.4-0.8,1.4s-0.2-0.6-1.2-0.2c-1,0.4-1.3,0.5-1.4,0.7C18,32.9,18,33.1,18.8,33C18.3,33.1,17.8,32.9,17.1,32.6
			L17.1,32.6z"/>
		<path fill="#002D56" d="M18.4,33.2c-0.4,0-0.9-0.2-1.3-0.4H17c-0.6-0.2-0.9-0.5-1-0.8c0-0.1,0-0.3,0.1-0.3
			c0.3-0.5,0.7-1.2,2.1-1.7s3-0.5,3.5,0c0.2,0.2,0.2,0.5,0,0.8c-0.3,0.5-0.8,1.4-0.8,1.4l-0.3,0.5l-0.2-0.5
			c-0.1-0.1-0.3-0.3-0.9-0.1c-0.3,0.1-1.2,0.4-1.2,0.6v0.1c0.1,0,0.2,0,0.4,0l0.1,0.5C18.7,33.2,18.6,33.2,18.4,33.2z M16.5,32
			c0,0.1,0.2,0.2,0.7,0.4h0.1c0.2,0.1,0.4,0.2,0.5,0.2c0-0.1,0-0.1,0-0.2c0.1-0.3,0.4-0.5,1.5-0.9c0.6-0.2,1-0.1,1.3,0
			c0.2-0.3,0.5-0.8,0.7-1.1c0.1-0.1,0-0.2,0-0.2c-0.3-0.3-1.5-0.4-2.9,0.1C17.1,30.9,16.8,31.5,16.5,32L16.5,32z"/>
	</g>
	<g>
		<path fill="#EED000" d="M34.3,31.8c0.2,0.1,0.6,0.2,0.8,0.4c1,0.7,0.8,1.4,0.6,1.4c-0.3,0,2,0,2.3-0.2c0.3-0.1,0.4-0.3,0.2-0.7
			s-1.4-2.5-3.5-2.9s-2.9,0.5-2.7,0.8c0.2,0.3,0.9,1.2,1,1.6C33.1,31.7,33.5,31.6,34.3,31.8L34.3,31.8z"/>
		<path fill="#002D56" d="M35.7,33.7c-0.2,0-0.2,0-0.3-0.1s-0.1-0.2-0.1-0.2c0-0.1,0.1-0.1,0.2-0.2c0,0,0,0,0-0.1s0-0.4-0.7-0.9
			c-0.2-0.1-0.5-0.3-0.7-0.3c-0.6-0.2-1-0.1-1.2,0.2c0,0.1-0.1,0.1-0.2,0.1c-0.1,0-0.2-0.1-0.2-0.2c0-0.2-0.5-0.8-0.7-1.1
			c-0.1-0.2-0.2-0.3-0.2-0.4c-0.1-0.2-0.1-0.3,0.1-0.5c0.3-0.5,1.3-0.9,2.9-0.5c2,0.4,3.3,2.4,3.6,3c0.2,0.4,0.1,0.7-0.3,1
			c-0.1,0-0.2,0.1-1.3,0.2C36.1,33.7,35.8,33.7,35.7,33.7z M33.7,31.4c0.2,0,0.4,0,0.7,0.1l0,0c0.2,0.1,0.6,0.2,0.8,0.4
			c0.8,0.6,0.9,1.1,0.9,1.3c0.6,0,1.6-0.1,1.7-0.2c0.2,0,0.2,0,0.1-0.3c0,0-1.2-2.4-3.3-2.8c-1.5-0.3-2.1,0.1-2.3,0.2
			c-0.1,0.1-0.1,0.2-0.2,0.2c0,0.1,0.1,0.2,0.2,0.3c0.3,0.4,0.5,0.7,0.6,1C33.1,31.5,33.3,31.4,33.7,31.4z"/>
	</g>
	<g>
		<g>
			<path fill-rule="evenodd" clip-rule="evenodd" fill="#002D56" d="M33.3,31.4l-0.4-0.6l0.1,0.6h-0.2l-0.2-1.1h0.2l0.5,0.7l0.3-0.9
				h0.2l0.2,1.1h-0.2l-0.1-0.6l-0.2,0.7L33.3,31.4z"/>
		</g>
		<g>
			<path fill-rule="evenodd" clip-rule="evenodd" fill="#002D56" d="M34.9,30.9c0,0.2-0.1,0.3-0.2,0.4c-0.1,0.1-0.2,0.1-0.3,0.1
				s-0.2-0.1-0.3-0.2s-0.1-0.2,0-0.4v-0.1c0-0.2,0.1-0.3,0.2-0.4c0.1-0.1,0.2-0.1,0.3-0.1s0.2,0.1,0.3,0.2
				C35,30.6,35,30.7,34.9,30.9L34.9,30.9z M34.7,30.9L34.7,30.9c0-0.2,0-0.3,0-0.3c0-0.1-0.1-0.1-0.1-0.1c-0.1,0-0.1,0-0.2,0.1
				c0,0.1-0.1,0.2-0.1,0.3l0,0c0,0.1,0,0.3,0,0.3c0,0.1,0.1,0.1,0.1,0.1c0.1,0,0.1,0,0.2-0.1C34.6,31.1,34.7,31,34.7,30.9L34.7,30.9
				z"/>
		</g>
		<g>
			<path fill-rule="evenodd" clip-rule="evenodd" fill="#002D56" d="M35.8,31.4c-0.1,0.2-0.2,0.3-0.3,0.3s-0.2,0-0.3,0l-0.3-0.2
				l0.5-1l0.3,0.2c0.1,0.1,0.2,0.2,0.2,0.3C35.9,31.1,35.9,31.2,35.8,31.4L35.8,31.4z M35.6,31.3L35.6,31.3c0.1-0.1,0.1-0.2,0.1-0.3
				c0-0.1,0-0.1-0.1-0.2h-0.1l-0.4,0.7l0.1,0.1c0.1,0,0.1,0,0.2,0C35.5,31.5,35.5,31.4,35.6,31.3L35.6,31.3z"/>
		</g>
		<g>
			<path fill-rule="evenodd" clip-rule="evenodd" fill="#002D56" d="M36.4,31.5l-0.2,0.2l0.2,0.2L36.3,32l-0.2-0.2L35.9,32l0.3,0.3
				l-0.1,0.1L35.6,32l0.8-0.8l0.5,0.4l-0.1,0.1L36.4,31.5z"/>
		</g>
		<g>
			<path fill-rule="evenodd" clip-rule="evenodd" fill="#002D56" d="M36.5,33.2L36.4,33c0.2-0.1,0.3-0.2,0.3-0.2
				c0.1-0.1,0.1-0.1,0-0.2l0,0l-0.4,0.3l-0.1-0.2l0.9-0.6l0.2,0.4c0.1,0.1,0.1,0.2,0,0.2c0,0.1-0.1,0.1-0.1,0.1h-0.1
				c-0.1,0-0.1,0-0.2,0c-0.1,0-0.1,0-0.1-0.1c0,0.1,0,0.2-0.1,0.2C36.8,33,36.7,33.1,36.5,33.2L36.5,33.2z M37.1,32.6L37.1,32.6
				C37.1,32.5,37.1,32.5,37.1,32.6c0.1-0.1,0.1-0.2,0.1-0.2v-0.1L37,32.4v0.1L37.1,32.6C37,32.6,37,32.6,37.1,32.6z"/>
		</g>
		<g>
			<path fill-rule="evenodd" clip-rule="evenodd" fill="#002D56" d="M33.6,34.5l-0.2-0.1l0.1-0.3l-0.3-0.2L33,34.1L32.8,34l0.9-0.7
				l0.2,0.1L33.6,34.5z M33.5,34l0.1-0.4l-0.3,0.3L33.5,34z"/>
		</g>
		<g>
			<path fill-rule="evenodd" clip-rule="evenodd" fill="#002D56" d="M34.8,34.1L34.6,34l-0.4,0.8L34,34.7l0.4-0.8l-0.2-0.1l0.1-0.1
				L34.8,34.1L34.8,34.1z"/>
		</g>
		<g>
			<path fill-rule="evenodd" clip-rule="evenodd" fill="#002D56" d="M35.3,34.1l-0.4,1L34.6,35l0.4-1L35.3,34.1z"/>
		</g>
		<g>
			<path fill-rule="evenodd" clip-rule="evenodd" fill="#002D56" d="M36.1,35.1c-0.1,0.2-0.2,0.3-0.3,0.3c-0.1,0.1-0.2,0.1-0.3,0
				s-0.2-0.1-0.2-0.2c0-0.1,0-0.3,0.1-0.4v-0.1c0.1-0.1,0.2-0.2,0.3-0.3s0.2-0.1,0.4,0c0.1,0.1,0.2,0.1,0.2,0.3
				C36.2,34.8,36.2,34.9,36.1,35.1L36.1,35.1z M35.9,35L35.9,35c0.1-0.2,0.1-0.2,0.1-0.3s0-0.1-0.1-0.2c-0.1,0-0.1,0-0.2,0
				c0,0-0.1,0.1-0.2,0.3l0,0c-0.1,0.1-0.1,0.2-0.1,0.3s0,0.1,0.1,0.1s0.1,0,0.2,0C35.8,35.2,35.8,35.1,35.9,35L35.9,35z"/>
		</g>
		<g>
			<path fill-rule="evenodd" clip-rule="evenodd" fill="#002D56" d="M36.8,35.6l0.3-0.6l0.1,0.1L36.8,36h-0.1l-0.1-0.9l-0.3,0.6
				l-0.1-0.1l0.5-0.9l0.1,0.1L36.8,35.6z"/>
		</g>
		<g>
			<path fill-rule="evenodd" clip-rule="evenodd" fill="#002D56" d="M18.2,31.9L18,32l-0.8-0.8l0.2-0.1l0.5,0.5l-0.2-0.7l0.1-0.1
				l0.5,0.5l-0.2-0.7l0.2-0.1l0.3,1.1l-0.1,0.1L18,31.2L18.2,31.9z"/>
		</g>
		<g>
			<path fill-rule="evenodd" clip-rule="evenodd" fill="#002D56" d="M19,30.4l0.3,1l-0.2,0.1l-0.3-1L19,30.4z"/>
		</g>
		<g>
			<path fill-rule="evenodd" clip-rule="evenodd" fill="#002D56" d="M20.2,30.9c0,0.1,0,0.2-0.1,0.3c-0.1,0.1-0.2,0.1-0.3,0.1
				c-0.1,0-0.1,0-0.2,0s-0.1,0-0.1,0v-0.2h0.1c0.1,0,0.1,0,0.2,0s0.1,0,0.2-0.1v-0.1v-0.1c0,0-0.1,0-0.2-0.1c-0.1,0-0.1-0.1-0.2-0.1
				c0,0-0.1-0.1-0.1-0.2s0-0.2,0.1-0.2c0.1-0.1,0.1-0.1,0.3-0.1c0.1,0,0.1,0,0.2,0h0.1v0.2h-0.1H20c-0.1,0-0.1,0-0.1,0v0.1v0.1
				c0,0,0.1,0,0.2,0.1c0.1,0,0.2,0.1,0.2,0.1C20.2,30.8,20.2,30.9,20.2,30.9L20.2,30.9z"/>
		</g>
		<g>
			<path fill-rule="evenodd" clip-rule="evenodd" fill="#002D56" d="M23.6,30.2c0,0.1-0.1,0.1-0.1,0.1c-0.1,0-0.1,0-0.2,0
				c0,0-0.1,0-0.1-0.1c0,0,0,0-0.1-0.1l0.1-0.1c0,0,0,0,0.1,0.1c0,0,0,0,0.1,0h0.1c0,0,0,0,0.1-0.1l0.4-0.7l0.2,0.1L23.6,30.2z"/>
		</g>
		<g>
			<path fill-rule="evenodd" clip-rule="evenodd" fill="#002D56" d="M24.8,30.6c0,0.1-0.1,0.2-0.2,0.2s-0.2,0-0.3,0
				c-0.1,0-0.2-0.1-0.2-0.2s0-0.2,0-0.3l0.3-0.7l0.2,0.1l-0.3,0.7c0,0.1,0,0.1,0,0.1s0,0.1,0.1,0.1s0.1,0,0.1,0l0.1-0.1l0.3-0.7
				l0.2,0.1L24.8,30.6z"/>
		</g>
		<g>
			<path fill-rule="evenodd" clip-rule="evenodd" fill="#002D56" d="M26,30.9c0,0.1-0.1,0.2-0.1,0.2c-0.1,0-0.2,0.1-0.3,0
				c-0.1,0-0.1,0-0.2,0s-0.1,0-0.1-0.1v-0.2c0,0,0.1,0,0.1,0.1c0.1,0,0.1,0,0.2,0s0.1,0,0.2,0c0,0,0-0.1,0.1-0.1v-0.1
				c0,0-0.1-0.1-0.2-0.1s-0.1-0.1-0.2-0.1c0-0.1,0-0.1,0-0.2s0.1-0.2,0.1-0.2c0.1,0,0.2-0.1,0.3-0.1c0.1,0,0.1,0,0.2,0h0.1v0.2h-0.1
				H26c-0.1,0-0.1,0-0.1,0s0,0-0.1,0.1v0.1c0,0,0.1,0.1,0.2,0.1s0.1,0.1,0.2,0.2C26,30.7,26,30.8,26,30.9L26,30.9z"/>
		</g>
		<g>
			<path fill-rule="evenodd" clip-rule="evenodd" fill="#002D56" d="M27,30.3h-0.2v0.9h-0.2v-0.9h-0.2v-0.2h0.7L27,30.3z"/>
		</g>
		<g>
			<path fill-rule="evenodd" clip-rule="evenodd" fill="#002D56" d="M27.7,30.1l0.1,1.1h-0.2l-0.1-1.1H27.7z"/>
		</g>
		<g>
			<path fill-rule="evenodd" clip-rule="evenodd" fill="#002D56" d="M29,30.9C29,30.9,28.9,30.9,29,30.9C28.9,31,28.8,31,28.8,31
				c-0.1,0-0.3,0-0.4,0c-0.1-0.1-0.2-0.2-0.2-0.3l0,0c0-0.2,0-0.3,0-0.4c0.1-0.1,0.2-0.2,0.3-0.2c0.1,0,0.1,0,0.1,0h0.1l0.1,0.2
				h-0.1h-0.1c-0.1,0-0.1,0.1-0.2,0.2c0,0.1,0,0.2,0,0.3l0,0c0,0.1,0.1,0.2,0.1,0.3c0.1,0,0.1,0.1,0.2,0c0,0,0.1,0,0.1-0.1
				c0,0,0.1,0,0.1-0.1H29z"/>
		</g>
		<g>
			<path fill-rule="evenodd" clip-rule="evenodd" fill="#002D56" d="M29.3,29.7l0.1,0.3l0.3-0.1l0.1,0.1l-0.3,0.1l0.1,0.3l0.4-0.2
				l0.1,0.1l-0.6,0.3l-0.5-1l0.6-0.3l0.1,0.1L29.3,29.7z"/>
		</g>
		<g>
			<path fill-rule="evenodd" clip-rule="evenodd" fill="#002D56" d="M17.8,34.9c0.1,0.2,0.1,0.3,0.1,0.4c0,0.1-0.1,0.2-0.2,0.3
				l-0.3,0.2l-0.5-1l0.3-0.2c0.1-0.1,0.3-0.1,0.4,0C17.6,34.7,17.7,34.7,17.8,34.9L17.8,34.9z M17.6,35L17.6,35
				c-0.1-0.1-0.1-0.2-0.2-0.2s-0.1,0-0.2,0h-0.1l0.4,0.7l0.1-0.1c0.1,0,0.1-0.1,0.1-0.1C17.7,35.3,17.6,35.2,17.6,35L17.6,35z"/>
		</g>
		<g>
			<path fill-rule="evenodd" clip-rule="evenodd" fill="#002D56" d="M18.8,34.5c0.1,0.2,0.1,0.3,0,0.4c0,0.1-0.1,0.2-0.2,0.2
				s-0.2,0-0.3,0c-0.2,0-0.3-0.1-0.3-0.2v-0.1c-0.1-0.1-0.1-0.3-0.1-0.4c0-0.1,0.1-0.2,0.2-0.3s0.2,0,0.3,0
				C18.6,34.2,18.7,34.3,18.8,34.5L18.8,34.5z M18.5,34.6L18.5,34.6c-0.1-0.2-0.1-0.2-0.2-0.3c0-0.1-0.1-0.1-0.2,0
				c-0.1,0-0.1,0.1-0.1,0.1c0,0.1,0,0.2,0.1,0.3l0,0c0.1,0.1,0.1,0.2,0.2,0.3c0,0,0.1,0,0.2,0s0.1-0.1,0.1-0.1
				C18.6,34.8,18.6,34.7,18.5,34.6L18.5,34.6z"/>
		</g>
		<g>
			<path fill-rule="evenodd" clip-rule="evenodd" fill="#002D56" d="M19.6,34.8l-0.5-0.5l0.2,0.6L19.2,35l-0.4-1l0.2-0.1l0.6,0.6
				l0.1-0.9l0.1-0.1l0.4,1L20,34.6L19.8,34L19.6,34.8L19.6,34.8z"/>
		</g>
		<g>
			<path fill-rule="evenodd" clip-rule="evenodd" fill="#002D56" d="M21.1,23.9V24c0,0,0,0.1-0.1,0.2s-0.2,0.2-0.4,0.2
				c-0.1,0-0.3,0-0.5-0.1l0,0c-0.1-0.1-0.2-0.2-0.3-0.4c0-0.1,0-0.3,0.1-0.4c0-0.1,0.1-0.1,0.1-0.1l0.1-0.1l0.2,0.1
				c0,0-0.1,0-0.1,0.1l-0.1,0.1c-0.1,0.1-0.1,0.2,0,0.3c0,0.1,0.1,0.2,0.2,0.3l0,0c0.1,0.1,0.2,0.1,0.3,0.1c0.1,0,0.2,0,0.2-0.1
				l0.1-0.1V24L21.1,23.9z"/>
		</g>
		<g>
			<path fill-rule="evenodd" clip-rule="evenodd" fill="#002D56" d="M21.7,22.5c0.1,0.1,0.2,0.3,0.2,0.4s0,0.3-0.1,0.4
				s-0.2,0.2-0.4,0.2c-0.1,0-0.3-0.1-0.4-0.2l0,0c-0.1-0.1-0.2-0.3-0.2-0.4s0-0.3,0.1-0.4s0.2-0.2,0.4-0.1
				C21.4,22.2,21.5,22.3,21.7,22.5L21.7,22.5z M21.5,22.7L21.5,22.7c-0.1-0.1-0.2-0.2-0.3-0.2c-0.1,0-0.1,0-0.2,0.1
				s-0.1,0.1-0.1,0.2s0.1,0.2,0.2,0.3l0,0c0.1,0.1,0.2,0.2,0.3,0.2c0.1,0,0.1,0,0.2-0.1s0.1-0.1,0-0.2
				C21.6,22.9,21.6,22.8,21.5,22.7L21.5,22.7z"/>
		</g>
		<g>
			<path fill-rule="evenodd" clip-rule="evenodd" fill="#002D56" d="M22.7,21.7l-0.4-0.6l0.2-0.1l0.7,1l-0.1,0.1l-0.9-0.3l0.4,0.6
				l-0.2,0.1l-0.7-1l0.1-0.1L22.7,21.7z"/>
		</g>
		<g>
			<path fill-rule="evenodd" clip-rule="evenodd" fill="#002D56" d="M24.3,21.1c0.1,0.1,0.1,0.2,0,0.3c-0.1,0.1-0.1,0.2-0.3,0.2
				c-0.1,0-0.1,0.1-0.2,0.1s-0.1,0-0.2,0l-0.1-0.2c0,0,0.1,0,0.2,0s0.1,0,0.2-0.1c0.1,0,0.1-0.1,0.2-0.1v-0.1c0,0,0-0.1-0.1-0.1
				c0,0-0.1,0-0.2,0s-0.2,0-0.2,0c-0.1,0-0.1-0.1-0.2-0.2c0-0.1,0-0.2,0-0.3c0-0.1,0.1-0.2,0.3-0.2c0.1,0,0.1,0,0.2-0.1
				c0.1,0,0.1,0,0.1,0l0.1,0.2H24h-0.1c-0.1,0-0.1,0.1-0.1,0.1v0.1c0,0,0,0.1,0.1,0.1c0,0,0.1,0,0.2,0s0.2,0,0.3,0
				C24.2,21,24.2,21,24.3,21.1L24.3,21.1z"/>
		</g>
		<g>
			<path fill-rule="evenodd" clip-rule="evenodd" fill="#002D56" d="M25.3,20.1L25,20.2l0.3,1L25,21.3l-0.3-1l-0.3,0.1v-0.2l0.8-0.2
				L25.3,20.1z"/>
		</g>
		<g>
			<path fill-rule="evenodd" clip-rule="evenodd" fill="#002D56" d="M26,19.8h0.3l0.1,1.2h-0.3L26,19.8z"/>
		</g>
		<g>
			<path fill-rule="evenodd" clip-rule="evenodd" fill="#002D56" d="M27.8,20h-0.3l-0.1,1h-0.3l0.1-1H27v-0.2l0.8,0.1V20z"/>
		</g>
		<g>
			<path fill-rule="evenodd" clip-rule="evenodd" fill="#002D56" d="M29.1,21.1c0,0.1-0.1,0.2-0.2,0.2s-0.2,0-0.3,0
				c-0.2,0-0.3-0.1-0.3-0.2s0-0.2,0-0.3l0.2-0.8l0.3,0.1l-0.2,0.8c0,0.1,0,0.1,0,0.2l0.1,0.1c0.1,0,0.1,0,0.2,0L29.1,21.1l0.1-0.8
				l0.2,0.1L29.1,21.1z"/>
		</g>
		<g>
			<path fill-rule="evenodd" clip-rule="evenodd" fill="#002D56" d="M30.6,21l-0.2-0.1l-0.5,0.9l-0.2-0.1l0.5-0.9L30,20.7l0.1-0.2
				l0.7,0.4L30.6,21z"/>
		</g>
		<g>
			<path fill-rule="evenodd" clip-rule="evenodd" fill="#002D56" d="M31.3,21.2l0.2,0.2l-0.7,1l-0.2-0.2L31.3,21.2z"/>
		</g>
		<g>
			<path fill-rule="evenodd" clip-rule="evenodd" fill="#002D56" d="M32.4,23c-0.1,0.1-0.3,0.2-0.4,0.2c-0.1,0-0.3,0-0.4-0.1
				s-0.2-0.2-0.1-0.4c0-0.1,0.1-0.3,0.2-0.4l0,0c0.1-0.1,0.3-0.2,0.4-0.2c0.1,0,0.3,0,0.4,0.1c0.1,0.1,0.2,0.2,0.1,0.4
				C32.6,22.7,32.5,22.8,32.4,23L32.4,23z M32.2,22.8L32.2,22.8c0.1-0.1,0.2-0.2,0.2-0.3c0-0.1,0-0.1-0.1-0.2s-0.1-0.1-0.2-0.1
				c-0.1,0-0.2,0.1-0.3,0.2l0,0c-0.1,0.1-0.2,0.2-0.2,0.3c0,0.1,0,0.1,0.1,0.2s0.1,0.1,0.2,0C32,23,32.1,22.9,32.2,22.8z"/>
		</g>
		<g>
			<path fill-rule="evenodd" clip-rule="evenodd" fill="#002D56" d="M33.1,24.1l0.6-0.4l0.1,0.2l-1,0.7l-0.1-0.1l0.3-0.9L32.4,24
				l-0.1-0.2l1-0.7l0.1,0.1L33.1,24.1z"/>
		</g>
		<g>
			<path fill-rule="evenodd" clip-rule="evenodd" fill="#EED000" d="M30.7,32.9L30.7,32.9C30.8,33,30.8,33,30.7,32.9
				c0.1,0.1,0.1,0.1,0.1,0.2v0.1c0,0,0,0-0.1,0v0.1v0.1v0.1v0.1v-0.1l0.1,0.1c0,0.1,0.4,0.2,0.5,0.3c0.3,0.1,0.2,0.7,0.3,0.8
				c0,0.1,0.1,0.8,0.1,1s-0.1,0.8-0.2,1c0,0.1,0,0.2,0,0.4h-0.1v0.2c0,0.1,0,0.2,0,0.2c0,0.2-0.2,0.2-0.2,0.2s0,0.5,0,0.7
				c0,0.1,0,0.2,0,0.5c0,0.4-0.1,0.8-0.1,0.8s-0.2,0.7-0.2,0.8s0,0.2,0,0.3s0,0.2,0,0.2h-1.3c0,0,0-0.1,0.1-0.2c0,0,0.1-0.1,0.2-0.1
				s0.1-0.1,0.1-0.2c0.1-0.1,0-0.4,0-0.5c0-0.2-0.1-0.5-0.1-0.7s-0.1-0.4-0.1-0.6c-0.1-0.2-0.1-0.6-0.1-0.7c0,0,0,0,0-0.1
				c0,0,0-0.1-0.1-0.2c-0.1-0.2-0.1-0.5-0.1-0.7s-0.1-0.4-0.1-0.5v-0.1l-0.2,0.1L29,36.7c0,0-0.1,0.1-0.2,0.1
				c-0.2,0-0.3-0.2-0.4-0.5c0-0.3,0-0.5,0.4-0.5H29h0.1H29v0.1c-0.1,0-0.1,0-0.1,0L29,36c0,0,0,0,0.2-0.1v-0.1c0-0.1,0-0.1,0-0.2
				c0-0.1,0-0.5,0-0.7s0-0.2,0-0.4c0-0.1,0-0.4,0.1-0.5s0.4-0.2,0.4-0.2s0.2,0,0.2-0.1c0,0,0-0.1,0.1-0.1c-0.1,0-0.1-0.2-0.2-0.2
				v-0.2c0,0,0-0.2-0.1-0.2c0-0.1,0-0.2,0-0.2h-0.1h-0.1h-0.1h-0.1c0,0-0.1-0.1,0-0.2c0.1-0.1,0.2-0.2,0.3-0.2l0,0l0,0
				c0,0-0.1-0.1-0.1-0.2c0-0.1,0.3-0.2,0.3-0.2c0.1,0,0.4,0,0.4,0c0.1,0,0.1,0,0.2,0s0.3,0,0.4,0.1c0.1,0,0.2,0.1,0.2,0.2
				c0,0.1,0.2,0.2,0.3,0.2c0.1,0.1,0.2,0.2,0.2,0.3c0.1,0.1,0,0.1,0,0.1c-0.1,0.1-0.7-0.1-0.6-0.1l0,0l0,0L30.7,32.9L30.7,32.9z"/>
			<path fill="#EED000" d="M30.9,40.8h-1.3c0,0,0,0-0.1,0c0,0,0-0.1,0.1-0.2c0-0.1,0.1-0.1,0.2-0.1c0,0,0,0,0.1-0.1v-0.1
				c0-0.1,0-0.3,0-0.5s-0.1-0.5-0.1-0.7c0-0.1-0.1-0.4-0.1-0.6c-0.1-0.2-0.1-0.7-0.1-0.7s0,0,0-0.1v-0.1c0,0,0-0.1,0-0.2
				c-0.1-0.2-0.1-0.4-0.1-0.6v-0.1c0-0.2-0.1-0.4-0.1-0.5l0,0l0,0h-0.2L29,36.4c-0.1,0.1-0.1,0.1-0.2,0.1c-0.2,0-0.4-0.2-0.4-0.5
				c0-0.1,0-0.3,0.1-0.4c0.1-0.1,0.2-0.1,0.4-0.1h0.2h0.1h0.1l0,0v0.1l0,0c0,0,0,0,0.1,0v-0.1l0,0v-0.1c0-0.1,0-0.6,0-0.7
				c0-0.1,0-0.3,0-0.4v-0.1c0-0.1,0-0.3,0.1-0.4c0.1-0.2,0.4-0.2,0.5-0.2s0.1,0,0.1,0s0,0,0-0.1C30,33.4,30,33.4,30,33.3l0,0
				c0,0,0-0.1,0-0.2l0,0l0,0c0,0,0-0.1-0.1-0.2v-0.1h-0.1h-0.1h-0.1c0,0,0,0-0.1,0l0,0l0,0l-0.1-0.1c0,0,0-0.1,0.1-0.1
				c0.1-0.1,0.2-0.1,0.3-0.2l0,0c0-0.1-0.1-0.1-0.1-0.2v-0.1C29.8,32,30,32,30,32c0.1,0,0.2,0,0.3,0l0,0v0.1V32l0,0c0,0,0.1,0,0.2,0
				l0,0c0.1,0,0.2,0,0.3,0c0,0,0,0,0.1,0s0.2,0.1,0.3,0.2c0,0,0.1,0.1,0.2,0.2l0.1,0.1c0.1,0.1,0.2,0.2,0.2,0.3l0,0v0.1h-0.1l0,0
				c-0.1,0-0.5,0-0.6,0l0,0l0,0c0,0.1,0,0.1,0,0.2l0,0l0,0l0,0c0,0,0,0,0,0.1l0,0l0,0v0.1l0,0l0,0l0.1,0.1c0,0.1,0.3,0.1,0.4,0.2
				c0.1,0,0.1,0,0.1,0.1c0.2,0.1,0.3,0.5,0.3,0.7v0.1c0,0.1,0.2,0.9,0.2,1s0,0.3-0.1,0.6c0,0.2-0.1,0.3-0.1,0.4c0,0,0,0.1,0,0.2v0.2
				c0,0,0,0,0,0.1c0,0,0,0-0.1,0v0.1l0,0l0,0c0,0.1,0,0.1,0,0.1s0,0,0,0.1s-0.1,0.2-0.2,0.2c0,0.1,0,0.5,0,0.6l0,0
				c0,0.1,0,0.1,0,0.5s-0.1,0.8-0.1,0.8s-0.2,0.7-0.2,0.8s0,0.1,0,0.2c0,0,0,0,0,0.1C30.9,40.6,30.9,40.7,30.9,40.8L30.9,40.8z
				 M29.7,40.7h1.2v-0.1c0,0,0,0,0-0.1s0-0.1,0-0.2c0-0.1,0.2-0.8,0.2-0.8s0.1-0.4,0.1-0.8c0-0.3,0-0.4,0-0.5l0,0c0-0.1,0-0.5,0-0.7
				v-0.1l0,0c0,0,0.1,0,0.1-0.1c0,0,0,0,0-0.1v-0.1v-0.2c0,0,0,0,0.1,0v-0.1c0-0.1,0-0.2,0-0.2c0-0.1,0-0.2,0.1-0.4
				c0-0.2,0.1-0.5,0.1-0.6s-0.1-0.9-0.1-0.9v-0.1c0-0.2,0-0.5-0.2-0.6c0,0-0.1,0-0.1-0.1c-0.2-0.1-0.4-0.1-0.4-0.2l0,0l0,0v-0.1l0,0
				l0,0v-0.1v-0.1v-0.1h0.1l0,0l0,0c0,0,0,0,0-0.1l0,0l0,0l0,0l0,0l-0.1-0.1l0,0V33v-0.1h0.1c0,0,0,0,0.1,0s0.5,0.1,0.5,0.1l0,0l0,0
				l0,0c0-0.1-0.1-0.2-0.2-0.3c0,0,0,0-0.1-0.1S31,32.5,31,32.4c0-0.1-0.1-0.1-0.2-0.2c0,0,0,0-0.1,0s-0.2,0-0.3,0l0,0
				c-0.1,0-0.1,0-0.2,0l0,0c-0.1,0-0.2,0-0.3,0c-0.1,0-0.2,0-0.2,0.1l0,0c0,0.1,0.1,0.2,0.1,0.2l0,0v0.1l0,0c0,0,0,0-0.1,0.1l0,0
				c0,0-0.2,0.1-0.2,0.2l0,0l0,0h0.1h0.1h0.1H30V33v0.1c0,0,0,0.1,0.1,0.2l0,0l0,0c0,0.1,0,0.1,0,0.2l0,0c0,0,0,0.1,0.1,0.1h0.1v0.1
				l-0.1,0.1c0,0.1-0.1,0.1-0.2,0.1s-0.4,0.1-0.4,0.2c0,0.1,0,0.2-0.1,0.4v0.1c0,0.1,0,0.2,0,0.4c0,0.1,0,0.6,0,0.6
				c0,0.1,0,0.1,0,0.1l0,0l-0.1,0.1l0,0c-0.1,0.1-0.2,0.1-0.2,0.1l0,0l0,0l-0.1-0.2h0.1l0,0c0,0,0,0,0.1,0l0,0h-0.1H29l0,0
				c-0.1,0-0.2,0-0.3,0.1c0,0.1-0.1,0.1,0,0.3c0,0.2,0.2,0.4,0.3,0.4c0.1,0,0.1,0,0.2,0l0.2-0.2l0.3-0.1v0.1c0,0.1,0.1,0.3,0.1,0.5
				v0.1c0,0.2,0,0.4,0.1,0.5c0,0.1,0,0.1,0,0.2v0.1v0.1c0,0,0,0.5,0.1,0.7s0.1,0.5,0.1,0.7c0,0.1,0.1,0.5,0.1,0.6s0.1,0.4,0,0.6v0.1
				c0,0.1-0.1,0.2-0.2,0.2s-0.1,0.1-0.1,0.1C29.7,40.6,29.7,40.7,29.7,40.7z M30.6,33.1L30.6,33.1L30.6,33.1L30.6,33.1z M31.4,32.9
				L31.4,32.9L31.4,32.9z"/>
		</g>
	</g>
	<g>
		<path fill="#002D56" d="M30.2,34.5h-0.3c0-0.3,0-0.5,0.1-0.7c-0.1,0-0.1-0.1-0.2-0.1l0.2-0.2c0,0.1,0.1,0.1,0.1,0.1h0.1v0.1
			c0,0,0,0.1,0,0.2C30.3,34,30.2,34.2,30.2,34.5z"/>
	</g>
	<g>
		<path fill="#002D56" d="M29.7,37.8h-0.3v-0.2l0,0c0,0,0,0,0-0.1c0-0.2,0-0.6,0-0.8c0-0.1,0.1-0.3,0.2-0.5c0.1-0.1,0.1-0.3,0.2-0.4
			c0-0.1,0-0.5,0-0.6c0,0,0-0.1,0-0.2h0.3c0,0.1,0,0.2,0,0.2l0,0c0,0,0,0.5,0,0.6S30,36,29.9,36.3c-0.1,0.2-0.2,0.4-0.2,0.5
			c0,0.2,0,0.6,0,0.7C29.7,37.6,29.7,37.7,29.7,37.8L29.7,37.8z"/>
	</g>
	<g>
		<path fill="none" d="M29.3,36.2c0,0.1,0.1,0.3,0.1,0.5s0,0.5,0,0.7c0,0.1,0.1,0.2,0.1,0.2l0.1,0.1c0,0,0,0.5,0.1,0.7
			s0.1,0.5,0.1,0.6s0.1,0.5,0.1,0.7s0.1,0.4,0,0.5s-0.1,0.2-0.1,0.2c-0.1,0-0.1,0-0.1,0.1c-0.1,0.1-0.1,0.2-0.1,0.2h1.2
			c0,0,0-0.1,0-0.2s-0.1-0.2-0.1-0.3s0.2-0.8,0.2-0.8s0.1-0.5,0.1-0.8s-0.1-0.4,0-0.5c0-0.1,0.1-0.7,0.1-0.7s0.2-0.1,0.2-0.2
			c0-0.2,0.1-0.7,0.1-0.8s0.2-0.9,0.2-1s-0.1-0.9-0.1-1s0-0.5-0.3-0.6c-0.1-0.1-0.5-0.3-0.5-0.4l-0.1-0.1"/>
	</g>
	<g>
		<path fill="#002D56" d="M29.4,35.5H29l0,0c0,0,0,0,0-0.1s0-0.6,0-0.7c0,0,0-0.8,0.1-0.9c0.1-0.1,0.3-0.2,0.7-0.3l0,0l0,0l0,0l0,0
			l0.3,0.2L30,33.8l-0.1,0.1c-0.2,0-0.4,0.1-0.5,0.2c0,0.1-0.1,0.6-0.1,0.7c0,0.1,0,0.6,0,0.6C29.4,35.4,29.4,35.5,29.4,35.5
			L29.4,35.5z"/>
	</g>
	<g>
		<path fill="#002D56" d="M31.1,37.7L31.1,37.7c-0.2-0.2-0.2-0.4-0.2-0.5s0-0.2,0-0.3l0,0c0,0-0.1,0-0.1-0.1s-0.1-0.2-0.3-0.5
			c-0.1-0.1-0.1-0.2-0.1-0.3c-0.2-0.2-0.2-0.6-0.2-0.7l0,0h0.3c0,0,0,0,0,0.1s0,0.4,0.1,0.5c0,0,0.1,0.1,0.2,0.3
			c0.1,0.1,0.2,0.4,0.2,0.4l0,0c0.1,0,0.1,0.1,0.2,0.2c0.1,0.2,0.1,0.3,0.1,0.4v0.1h0.1l0.1,0.3L31.1,37.7z"/>
	</g>
	<g>
		<path fill="#002D56" d="M30.4,34.8h-0.3c0-0.1,0-0.1,0-0.1l0,0c0-0.1,0-0.7,0-0.9v-0.1c0-0.2,0.1-0.2,0.2-0.2s0.2-0.1,0.2-0.1l0,0
			l0.2,0.2c0,0.1-0.2,0.2-0.4,0.2v0.1C30.3,34,30.3,34.6,30.4,34.8C30.4,34.7,30.4,34.7,30.4,34.8L30.4,34.8z"/>
	</g>
	<g>
		<path fill="#002D56" d="M31.4,37.1h-0.1c-0.1,0-0.1-0.1-0.3,0c-0.1,0-0.1,0-0.2,0L30.7,37l0.1-0.5l0,0v-0.2v-0.2v-0.2v-0.3v-0.3
			l-0.1-0.5l-0.1-0.3c0-0.1,0-0.2,0.1-0.2s0.2,0,0.2,0.1l0.1,0.3l0,0l0.1,0.5l0,0v0.3l0,0v0.3l0,0V36l0,0v0.2l0,0v0.2v0.3
			c0.1,0,0.3,0.1,0.4,0.1c0.1,0.1,0.1,0.2,0,0.2C31.5,37.1,31.4,37.1,31.4,37.1z"/>
	</g>
	<g>
		<path fill="#002D56" d="M31,36.1L31,36.1c-1.1-0.7-1.5-1.8-1.7-2.3l0,0l0,0l0,0v-0.1l0,0v-0.1h0.2c0,0,0.1,0,0.2,0.1l0,0l0,0l0,0
			c0.1,0.3,0.5,1.5,1.5,2.1h0.1L31,36.1z"/>
	</g>
	<g>
		<path fill="#002D56" d="M31,35.7c-0.9-0.5-1.3-1.5-1.4-2l0.3-0.1c0.2,0.5,0.5,1.4,1.3,1.8h0.1v0.2L31,35.7L31,35.7z"/>
	</g>
	<g>
		<path fill="#002D56" d="M30.2,36.3c-0.1,0-0.2,0-0.3,0L30,36c0.2,0,0.3,0,0.5,0l0.1,0.3C30.4,36.3,30.3,36.3,30.2,36.3z"/>
	</g>
	<g>
		<path fill="#002D56" d="M30.4,40.8h-0.3c0-0.2,0.1-0.3,0.2-0.4v-0.6v-1.1c0-0.2,0-0.5-0.1-0.6c0,0,0-0.1-0.1-0.7h0.3
			c0.1,0.6,0.1,0.7,0.1,0.7c0,0.1,0.1,0.5,0.1,0.6v0.5v0.6v0.8l-0.1,0.1C30.5,40.6,30.4,40.6,30.4,40.8z"/>
	</g>
	<g>
		<path fill="#002D56" d="M28.8,36.6L28.8,36.6c-0.2,0-0.5-0.1-0.4-0.7c0-0.4,0.3-0.3,0.4-0.3h0.1l0,0l0.3,0.2
			c-0.1,0.1-0.2,0.1-0.3,0.1h-0.1l0,0c0,0.1,0,0.3,0.1,0.4l0.1-0.1l0,0l0.2,0.2l0,0l0,0L28.8,36.6C28.9,36.6,28.9,36.6,28.8,36.6z"
			/>
	</g>
	<g>
		<path fill-rule="evenodd" clip-rule="evenodd" fill="#EED000" d="M28.8,35.5c-0.1-1.6-0.1-3,0.2-4c-0.7,1-0.4,4-0.4,4H28.8z"/>
	</g>
	<g>
		<path fill="#002D56" d="M29,35.9v-0.4l0,0c0,0,0,0,0.1,0v-0.1l0.3,0.1l-0.1,0.1c0,0,0,0.1-0.1,0.1C29.2,35.9,29.1,35.9,29,35.9z"
			/>
	</g>
	<g>
		<path fill="#002D56" d="M29.2,36.3l-0.3-0.1c0.1-0.2,0-0.4,0-0.5l0.3-0.1C29.2,35.7,29.3,36,29.2,36.3z"/>
	</g>
	<g>
		<path fill="#002D56" d="M28.9,35.8L28.9,35.8L28.9,35.8l-0.1-0.1v-0.2h0.1H29c0,0,0.1,0,0.1,0.1c0,0,0,0.1,0,0.2
			c0,0,0,0.1-0.1,0.1C29,35.8,28.9,35.8,28.9,35.8z"/>
	</g>
	<g>
		<path fill="#002D56" d="M28.7,36.6c-0.2,0-0.4-0.2-0.5-0.6c0-0.2,0-0.4,0.1-0.5s0.3-0.1,0.4-0.1v0.2c-0.1,0-0.2,0-0.2,0
			s0,0.2,0,0.3c0,0.2,0.2,0.4,0.3,0.4c0.1,0,0.1,0,0.1,0l0.2,0.2C28.9,36.5,28.8,36.6,28.7,36.6L28.7,36.6z"/>
	</g>
	<g>
		<path fill="#002D56" d="M28.6,36.4L28.6,36.4c-0.1-0.2-0.2-0.3-0.2-0.6c0-0.1,0.1-0.2,0.2-0.2l0,0h0.2v0.2h-0.2l0,0
			c0,0.3,0,0.4,0,0.4l0.1,0.1L28.6,36.4z"/>
	</g>
	<g>
		<path fill="#002D56" d="M29.8,32.9h-0.2h-0.1c-0.1,0-0.1,0-0.1,0s0,0-0.1,0h-0.1l0,0c-0.1-0.1-0.1-0.3,0-0.4
			c0.1-0.1,0.2-0.1,0.2-0.1l0,0c0.1,0,0.1,0,0.2,0l-0.1,0.3h0.1l0,0c0,0-0.1,0.1-0.2,0.1l0,0c0,0,0,0,0.1,0h0.1h0.3L29.8,32.9
			L29.8,32.9z"/>
	</g>
	<g>
		<rect x="29.6" y="32.6" fill="#002D56" width="0.1" height="0.1"/>
	</g>
	<g>
		<path fill="#002D56" d="M30.1,33.6H30c-0.2,0-0.2-0.2-0.2-0.2l0,0c0,0,0-0.1-0.1-0.2l0,0c0-0.1,0-0.2-0.1-0.2c0-0.1,0-0.2,0-0.2
			l0.2,0.1h-0.1h0.1V33c0,0,0,0.1,0.1,0.2l0,0l0,0c0,0.1,0,0.1,0,0.1l0,0c0,0,0,0.1,0.1,0.1s0.2,0,0.2,0l0.1,0.2
			C30.3,33.6,30.2,33.6,30.1,33.6z"/>
	</g>
	<g>
		<path fill="#002D56" d="M30.1,33.3L30.1,33.3C30.1,33.3,30,33.3,30.1,33.3c-0.1,0-0.1,0-0.1,0l-0.1-0.2c0.1,0,0.1,0,0.1,0l0,0
			c0.1,0,0.1,0,0.1,0l0,0V33.3C30.2,33.3,30.2,33.3,30.1,33.3L30.1,33.3L30.1,33.3z M30.2,33.3L30.2,33.3L30.2,33.3z"/>
	</g>
	<g>
		<path fill="#002D56" d="M30.1,33.4c-0.1,0-0.1,0-0.1,0v-0.2c0.1,0,0.1,0,0.1,0l0.1,0.2H30.1z"/>
	</g>
	<g>
		<path fill="#002D56" d="M30.3,32.8c-0.1,0-0.1,0-0.1,0l-0.1-0.2c0.1,0,0.2,0,0.3,0L30.3,32.8z"/>
	</g>
	<g>
		<path fill="#002D56" d="M30,33.2L30,33.2L30,33.2c-0.1,0-0.1-0.1-0.1-0.1V33l0,0v-0.1v-0.1H30c0,0.1,0,0.2,0,0.2l0,0
			C30,33,30,33,30,33.2L30,33.2L30,33.2L30,33.2c0-0.1,0-0.1,0.1-0.1l0,0l0.1-0.1c0,0,0,0,0.1,0v0.1v0.1h-0.1
			C30.1,33.1,30.1,33.1,30,33.2L30,33.2C30.1,33.1,30,33.2,30,33.2z"/>
	</g>
	<g>
		<path fill="#002D56" d="M29.8,32.8v-0.2V32.8v-0.2l0,0c0,0,0.2-0.1,0.3,0L30,32.8C29.9,32.8,29.9,32.8,29.8,32.8L29.8,32.8z"/>
	</g>
	<g>
		<path fill="#002D56" d="M29.8,32.8C29.8,32.8,29.8,32.8,29.8,32.8c0.2,0,0.2,0,0.2,0S29.9,32.8,29.8,32.8
			C29.8,32.8,29.8,32.8,29.8,32.8z"/>
		<path fill="#002D56" d="M29.9,32.9L29.9,32.9h-0.1l0,0l0,0l0,0H29.9c0,0,0,0,0.1,0s0.1,0.1,0.1,0.1l0,0l0,0
			C30,32.9,29.9,32.9,29.9,32.9z"/>
	</g>
	<g>
		<path fill="#002D56" d="M30.1,33.6H30l0,0l0.1-0.2c0.1,0,0.2,0,0.2,0l0.1,0.2C30.3,33.6,30.2,33.6,30.1,33.6z"/>
	</g>
	<g>
		<path fill="#002D56" d="M31.3,32.9c-0.2,0-0.5-0.1-0.6-0.1h-0.1c-0.2-0.1-0.7-0.2-0.9-0.1c-0.1,0-0.1,0-0.1,0
			c-0.1,0-0.1-0.1-0.1-0.1l0,0l0,0c0,0-0.1-0.1-0.1-0.2c0-0.1-0.1-0.1-0.1-0.2v-0.1c0.1-0.1,0.3-0.2,0.3-0.2l0,0c0.1,0,0.2,0,0.4,0
			l0,0V32l0,0v-0.1l0,0h0.1h0.1c0.1,0,0.2,0,0.3,0c0,0,0,0,0.1,0s0.3,0.1,0.3,0.2c0,0,0.1,0.1,0.2,0.2c0,0,0.1,0,0.1,0.1
			c0.1,0.1,0.2,0.2,0.3,0.3c0,0.1,0.1,0.1,0.1,0.2c0,0.1-0.1,0.1-0.1,0.1C31.4,32.9,31.3,32.9,31.3,32.9z M30.8,32.7
			c0.1,0,0.3,0.1,0.4,0.1c0-0.1-0.1-0.2-0.2-0.3c0,0,0,0-0.1,0c-0.1-0.1-0.2-0.1-0.2-0.2c0,0-0.1-0.1-0.2-0.1c0,0,0,0-0.1,0
			s-0.2,0-0.3,0c-0.1,0-0.2,0-0.2,0l0,0l0,0c-0.2,0-0.3,0-0.3,0c-0.1,0-0.1,0.1-0.2,0.1c0,0.1,0.1,0.1,0.1,0.2c0,0,0.1,0.1,0.1,0.2
			l0,0C30.1,32.4,30.8,32.6,30.8,32.7L30.8,32.7z M31.3,32.7L31.3,32.7L31.3,32.7z M29.7,32L29.7,32L29.7,32z"/>
	</g>
	<g>
		<path fill="#002D56" d="M30.7,38.4c-0.2,0-0.4-0.1-0.4-0.1l0.2-0.3c0,0,0.2,0.1,0.5,0c0,0,0,0,0.1,0l0,0c0,0,0,0,0.1,0l0,0l0,0
			c0.1,0,0.2,0,0.2,0.1s0.1,0.1-0.1,0.2l0,0l0,0l0,0l-0.1,0.1C31,38.4,30.9,38.4,30.7,38.4z"/>
	</g>
	<g>
		<path fill="#002D56" d="M30,38.5c-0.2,0-0.4-0.1-0.4-0.1l0.1-0.3c0,0,0.3,0.1,0.6,0l0.2,0.3C30.3,38.4,30.1,38.5,30,38.5z"/>
	</g>
	<g>
		<path fill="#002D56" d="M30.1,32.8C30.1,32.8,30.2,32.8,30.1,32.8c0.2,0,0.2,0,0.2,0S30.3,32.8,30.1,32.8
			C30.2,32.8,30.1,32.8,30.1,32.8z"/>
		<path fill="#002D56" d="M30.3,32.9L30.3,32.9L30.3,32.9c-0.2,0-0.2-0.1-0.2-0.1s0-0.1,0.1-0.1S30.3,32.8,30.3,32.9
			C30.4,32.9,30.4,32.9,30.3,32.9z"/>
	</g>
	<g>
		<path fill="#002D56" d="M30.2,36.5c-0.1,0-0.3,0-0.4-0.1l0.1-0.3c0.2,0.1,0.5,0,0.6,0l0.1,0.3C30.5,36.5,30.3,36.5,30.2,36.5z"/>
	</g>
	<g>
		<path fill-rule="evenodd" clip-rule="evenodd" fill="#EED000" d="M32.5,40.4h2.9v0.4h-2.9V40.4z"/>
	</g>
</g>
<g>
	<path opacity="0.2" enable-background="new    " d="M10.4,74.3V25.8c0-12.1,8.2-22.7,19.8-25.8H0v100h30.2
		C18.5,96.9,10.4,86.3,10.4,74.3z"/>
	<path opacity="0.1" fill="#FFFFFF" enable-background="new    " d="M89.6,25.8v48.5c0,12.1-8.2,22.7-19.8,25.8H100V0H69.8
		C81.5,3.1,89.6,13.7,89.6,25.8z"/>
</g>
</svg>
