<?xml version="1.0" encoding="utf-8"?>
<!-- Generator: Adobe Illustrator 23.0.0, SVG Export Plug-In . SVG Version: 6.00 Build 0)  -->
<svg version="1.0" id="Layer_1" xmlns="http://www.w3.org/2000/svg" xmlns:xlink="http://www.w3.org/1999/xlink" x="0px" y="0px"
	 viewBox="0 0 100 100" enable-background="new 0 0 100 100" xml:space="preserve">
<rect fill="#FEFEFE" width="100" height="100"/>
<g>
	<path fill="#012169" d="M20.1,0c0,0.1,0,0.2,0,0.3c0,4.6,0,9.3,0,13.9c0,0.1,0,0.2,0,0.2c-0.1,0.1-0.1,0-0.1-0.1
		C15.3,9.6,10.6,4.9,6,0.2c0,0-0.1-0.1-0.1-0.2C10.5,0,15.3,0,20.1,0z"/>
	<path fill="#012169" d="M43.9,0c-0.2,0.3-0.4,0.4-0.5,0.6c-4.5,4.6-9,9.1-13.6,13.7c-0.1,0.1-0.1,0.1-0.2,0.2c-0.1-0.1,0-0.2,0-0.3
		c0-4.6,0-9.3,0-13.9c0-0.1,0-0.2,0-0.3C34.3,0,39.1,0,43.9,0z"/>
	<path fill="#C7102E" d="M49.6,0c0,0.1-0.1,0.1-0.2,0.2C44,5.6,38.7,11,33.3,16.4c-0.2,0.2-0.3,0.2-0.5,0.2c-1,0-2,0-3,0
		c-0.1,0-0.2,0.1-0.2-0.1s0.1-0.3,0.2-0.3c3.3-3.4,6.7-6.7,10-10.1c2-2,3.9-3.9,5.9-5.9c0.1-0.1,0.1-0.1,0.2-0.2C47,0,48.3,0,49.6,0
		z"/>
	<path fill="#012169" d="M0,5.8c0.9,0.9,1.7,1.7,2.6,2.6c2.7,2.7,5.4,5.4,8,8.1l0.1,0.1c0,0.1-0.1,0.1-0.1,0.1c-3.5,0-7,0-10.5,0H0
		C0,13,0,9.4,0,5.8z"/>
	<path fill="#012169" d="M0,33.3c0.1,0,0.1,0,0.2,0c3.5,0,6.9,0,10.4,0c0.1,0,0.1,0,0.2,0c0,0.1,0,0.1-0.1,0.2
		c-3.5,3.5-7,7.1-10.6,10.6L0,44.2C0,40.6,0,37,0,33.3z"/>
	<path fill="#C7102E" d="M0.1,0c0.5,0.6,1.1,1.1,1.6,1.7c4.9,4.9,9.8,9.8,14.6,14.7c0,0,0.1,0.1,0.2,0.2c0,0.1-0.1,0.1-0.1,0.1
		c-1.1,0-2.3,0-3.4,0c-0.1,0-0.2,0-0.3-0.2C8.4,12.3,4.2,8.1,0,3.9l0,0c0-1.2,0-2.4,0-3.6C0,0.2,0,0,0.1,0z"/>
	<g>
		<path fill="none" d="M33.1,33.4L33.1,33.4C33.1,33.3,33.2,33.3,33.1,33.4C33.1,33.3,33.1,33.3,33.1,33.4L33.1,33.4z"/>
		<path fill="none" d="M30,36.1c-0.1-0.1-0.2-0.2-0.3-0.3c0,0.2,0,0.3,0,0.5c0,4.3,0,8.6,0,13c0,0.2,0,0.4,0,0.6c0.1,0,0.2,0,0.3,0
			c4.4,0,8.9,0,13.3,0c0.1,0,0.3,0,0.4,0c-0.1-0.1-0.2-0.2-0.3-0.3C38.9,45.1,34.4,40.6,30,36.1z"/>
		<path fill="#C7102E" d="M100,50c-12.6,0-37.5,0-50.1,0c-0.2,0-0.3-0.1-0.3-0.5c0-1,0-2,0-3c0-0.2,0-0.3-0.2-0.5
			c-4.1-4.2-8.3-8.3-12.4-12.5c-0.1-0.1-0.2-0.1-0.3-0.1c-1.2,0-2.3,0-3.5,0h-0.1l0,0l0,0c5.5,5.5,10.9,11,16.4,16.5
			c0,0.1,0,0.1-0.1,0.1c-1.8,0-3.7,0-5.5,0h-0.1c-0.1,0-0.1-0.1-0.2-0.1c-0.1,0-0.3,0-0.4,0c-4.4,0-8.9,0-13.3,0c-0.1,0-0.2,0-0.3,0
			c0,0,0,0.1-0.1,0.1c-0.6,0-1.2,0-1.7,0c-0.2,0-0.1-0.2-0.1-0.3c0-1.8,0-3.6,0-5.5c0-4.6,0-9.2,0-13.8c0-0.4,0.1-0.4,0.2-0.4
			c7.2,0,14.5,0,21.7,0c0-1.5,0-3,0-4.5c0-0.4,0.1-0.5,0.3-0.5c12.6,0,37.5,0,50.1,0V12.5l0,0v-0.2c-12.5,0-37.3,0-49.8,0
			c-0.1,0-0.2,0-0.3,0s-0.2,0-0.2,0.1c-0.1,0.1-0.1,0.3-0.1,0.4c0,1.3,0,2.5,0,3.8c0,0.8,0,1.6,0,2.3c0,0.8,0,0.8-0.5,0.8
			c-6.9,0-13.9,0-20.8,0c-0.1,0-0.1,0-0.2,0c-0.2,0-0.2-0.1-0.3-0.5c0-0.1,0-0.3,0-0.4c0-3.4,0-6.9,0-10.3c0-2.7,0-5.3,0-8
			c0-0.2,0-0.5-0.1-0.7c-1.9,0-3.8,0-5.7,0c-0.1,0.2-0.1,0.5-0.1,0.8c0,6.1,0,12.1,0,18.2c0,0.8,0,0.8-0.5,0.8c-6.9,0-13.9,0-20.8,0
			c-0.1,0-0.2,0-0.4,0c-0.1,0-0.2,0-0.2,0.2c0,3.3,0,6.7,0,10C0.1,30,0.3,30,0.5,30c6.3,0,12.7,0,19,0c0.7,0,1.4,0,2.1,0
			c0.3,0,0.3,0.1,0.3,0.5c0,6.2,0,12.4,0,18.6c0,0.5,0,0.5-0.3,0.5c-0.5,0-1,0-1.5,0c-0.1,0-0.3,0-0.4,0c-3.2,0-6.3,0-9.5,0
			c-1.5,0-2.9-0.1-4.4,0c-0.6,0-1.2,0-1.8,0c0.1,0,0.2-0.1,0.3-0.2c3-3,5.9-6,8.9-9c2.2-2.2,4.3-4.4,6.5-6.6
			c0.1-0.1,0.4-0.2,0.3-0.6c-0.1-0.4-0.3-0.2-0.5-0.2c-0.9,0-1.9,0-2.8,0c-0.2,0-0.4,0.1-0.7,0.3C10.9,38.8,5.6,44.2,0.3,49.5
			C0.2,49.6,0.1,49.8,0,50c0,4.2,0,8.3,0,12.5c29.2,0,70.7,0,100,0V50z"/>
		<path fill="#012169" d="M0,62.5c0,4.2,0,8.3,0,12.5c29.2,0,70.7,0,100,0V62.6v-0.2C70.8,62.5,29.3,62.5,0,62.5z"/>
		<path fill="#FEFEFE" d="M28,49.8c-0.2,0-0.3-0.1-0.3-0.5c0-0.1,0-0.2,0-0.4c0-6,0-12,0-17.9c0-0.9,0-0.9,0.5-0.9
			c6.9,0,13.9,0,20.8,0c0.1,0,0.3,0,0.4,0c0.1,0,0.2,0,0.2-0.1c0,0,0,0,0-0.1c-7.2,0-14.5,0-21.7,0c-0.2,0-0.2,0.1-0.2,0.4
			c0,4.6,0,9.2,0,13.8c0,1.8,0,3.6,0,5.5c0,0.2,0,0.4,0.1,0.3c0.6,0,1.2,0,1.7,0c0,0,0-0.1,0.1-0.1c0,0,0,0-0.1,0
			C29,49.8,28.5,49.8,28,49.8z"/>
		<path fill="#FEFEFE" d="M50.3,49.8c-0.1,0-0.2,0-0.3,0c-0.2,0-0.3,0-0.3-0.5c0-0.8,0-1.5,0-2.3s-0.1-1.2-0.5-1.6c-4-4-8-8-12-12
			c-0.2-0.2-0.4-0.3-0.6-0.3c-1,0-2,0-3,0c-0.1,0-0.1,0-0.2,0c-0.1,0-0.2,0-0.2,0.2c0.1,0,0.1,0,0.1,0c1.2,0,2.3,0,3.5,0
			c0.1,0,0.2,0,0.3,0.1c4.1,4.2,8.3,8.4,12.4,12.5c0.1,0.1,0.2,0.2,0.2,0.5c0,1,0,2,0,3c0,0.4,0,0.5,0.3,0.5c12.6,0,37.5,0,50.1,0
			v-0.2C87.5,49.8,62.8,49.8,50.3,49.8z"/>
		<path fill="#FEFEFE" d="M33.3,33.7c0.2,0.2,0.4,0.4,0.6,0.6c2.5,2.5,5,5.1,7.6,7.6c1.8,1.8,3.6,3.7,5.4,5.5
			c0.8,0.8,1.6,1.6,2.3,2.4c-0.1,0-0.1,0-0.2,0c-1.8,0-3.5,0-5.3,0c-0.1,0-0.1,0-0.2,0c0.1,0,0.1,0.1,0.2,0.1h0.1c1.8,0,3.7,0,5.5,0
			c0,0,0.1,0,0.1-0.1C44,44.3,38.5,38.8,33,33.3C33.1,33.5,33.2,33.6,33.3,33.7z"/>
		<rect x="100" y="50" fill="#012169" width="0" height="12.5"/>
		<rect x="100" y="12.5" fill="#012169" width="0" height="12.5"/>
		<rect x="100" y="62.6" fill="#012169" width="0" height="12.3"/>
		<rect x="100" y="62.5" fill="#012169" width="0" height="0.2"/>
		<path fill="#012169" d="M0,87.4C0.2,87.7,0.2,87.7,0,87.4c0,4.2,0,8.4,0,12.6c29.2,0,70.7,0,100,0V87.8v-0.2v-0.2
			C70.8,87.4,29.3,87.4,0,87.4z"/>
		<rect x="100" y="37.5" fill="#012169" width="0" height="12.3"/>
		<rect x="100" y="49.8" fill="#012169" width="0" height="0.2"/>
		<path fill="#012169" d="M49.7,32.9c0,0.5-0.1,0.6-0.4,0.6c-0.2,0-0.3,0-0.5,0c-3.2,0-6.5,0-9.7,0c2.4,2.4,4.7,4.8,7.1,7.2
			c1,1,2,2,3,3c0.2,0.2,0.2,0.2,0.2-0.2c0-1.7,0-3.4,0-5.1c0-0.1,0-0.3,0-0.4c0-0.5,0.1-0.6,0.3-0.6c0.1,0,0.2,0,0.3,0
			c12.5,0,37.3,0,49.9,0V25.1c-12.5,0-37.2,0-49.7,0c-0.1,0-0.2,0-0.4,0s-0.3,0.1-0.3,0.5c0,1.2,0,2.5,0,3.7c0,0.2,0,0.4-0.1,0.6
			l0,0c0.1,0.1,0.1,0.3,0.1,0.4C49.7,31.3,49.7,32.1,49.7,32.9z"/>
		<path fill="#012169" d="M49.6,30c0.1-0.2,0.1-0.4,0.1-0.6c0-1.2,0-2.5,0-3.7c0-0.4,0-0.5,0.3-0.5c0.1,0,0.2,0,0.4,0
			c12.5,0,37.2,0,49.7,0V25c-12.6,0-37.5,0-50.1,0c-0.2,0-0.3,0.1-0.3,0.5C49.6,27,49.6,28.5,49.6,30L49.6,30L49.6,30z"/>
		<path fill="#012169" d="M50.1,37.3c-0.1,0-0.2,0-0.3,0c-0.3,0-0.3,0.2-0.3,0.6c0,0.1,0,0.3,0,0.4c0,1.7,0,3.4,0,5.1
			c0,0.4,0,0.5-0.2,0.2c-1-1-2-2-3-3c-2.4-2.4-4.7-4.8-7.1-7.2c3.2,0,6.5,0,9.7,0c0.2,0,0.3,0,0.5,0c0.3,0,0.3-0.1,0.4-0.6
			c0-0.8,0-1.6,0-2.5c0-0.2,0-0.3-0.1-0.4l0,0c0,0.9,0,1.9,0,2.8c0,0.4-0.1,0.5-0.3,0.5c-3.4,0-6.8,0-10.2,0c-0.1,0-0.2,0-0.3,0.1
			c3.6,3.6,7.2,7.2,10.7,10.8c0-2.1,0-4.2,0-6.3c0-0.4,0.1-0.5,0.3-0.5c12.6,0,37.5,0,50.1,0v-0.2C87.5,37.3,62.7,37.3,50.1,37.3z"
			/>
		<path fill="#012169" d="M49.6,30L49.6,30L49.6,30L49.6,30z"/>
		<rect x="100" y="25.1" fill="#012169" width="0" height="12.2"/>
		<rect x="100" y="25" fill="#012169" width="0" height="0.2"/>
		<rect x="100" y="37.3" fill="#012169" width="0" height="0.2"/>
	</g>
	<path fill="#012169" d="M5.8,50c0.9-0.9,1.8-1.9,2.8-2.8c3.8-3.8,7.6-7.6,11.4-11.4c0.1-0.1,0.1-0.1,0.2-0.2c0,4.8,0,9.6,0,14.4
		c-0.1,0-0.1,0-0.2,0c-4.6,0-9.3,0-13.9,0C5.9,50,5.8,50,5.8,50z"/>
	<path fill="#012169" d="M29.5,50c0-4.8,0-9.6,0-14.4c0.3,0.3,0.6,0.6,0.9,0.9c4.4,4.5,8.8,8.9,13.3,13.4c0.1,0.1,0.1,0.1,0.1,0.2
		c-0.1,0-0.1,0-0.2,0c-4.6,0-9.3,0-13.9,0C29.7,50,29.6,50,29.5,50z"/>
	<path fill="#012169" d="M49.6,16.7c-3.6,0-7.1,0-10.7,0v-0.1C42.4,13,46,9.4,49.6,5.8c0,2.3,0,4.5,0,6.7
		C49.6,13.9,49.6,15.3,49.6,16.7z"/>
</g>
<g>
	<path opacity="0.2" enable-background="new    " d="M10.4,74.3V25.8c0-12.1,8.2-22.7,19.8-25.8H0v100h30.2
		C18.5,96.9,10.4,86.3,10.4,74.3z"/>
	<path opacity="0.1" fill="#FFFFFF" enable-background="new    " d="M89.6,25.8v48.5c0,12.1-8.2,22.7-19.8,25.8H100V0H69.8
		C81.5,3.1,89.6,13.7,89.6,25.8z"/>
</g>
</svg>
