<?xml version="1.0" encoding="utf-8"?>
<!-- Generator: Adobe Illustrator 23.0.0, SVG Export Plug-In . SVG Version: 6.00 Build 0)  -->
<svg version="1.0" id="Layer_1" xmlns="http://www.w3.org/2000/svg" xmlns:xlink="http://www.w3.org/1999/xlink" x="0px" y="0px"
	 width="100px" height="100px" viewBox="0 0 100 100" enable-background="new 0 0 100 100" xml:space="preserve">
<g id="g3485" transform="matrix(0.92981285,0,0,0.92981285,88.032992,-105.73582)">
	<rect id="rect3447" x="-94.6" y="113.7" fill="#FFFFFF" width="107.4" height="107.5"/>
	<rect id="rect3443" x="-14.5" y="113.7" fill="#D80025" width="27.4" height="107.5"/>
	<rect id="rect3445" x="-94.6" y="113.7" fill="#0A1F62" width="27.4" height="107.5"/>
	<g id="g3465" transform="matrix(1.1692089,0,0,1.1692089,-506.19136,40.746418)">
		<g id="g3471">
			<g id="g3477" transform="matrix(0.65772783,0,0,0.60728359,233.21583,151.84926)">
				<path id="rect3408" fill="#D80025" d="M243.4-46.7c-1,0-1.9,0.8-1.9,1.9v4.9c0,1,0.8,1.9,1.9,1.9h2.2c1,0,1.9-0.8,1.9-1.9v-4.9
					c0-1-0.8-1.9-1.9-1.9H243.4z M244.5-45.4c0.6,0,1.1,0.5,1.1,1.1v4c0,0.6-0.5,1.1-1.1,1.1s-1.1-0.5-1.1-1.1v-4
					C243.4-45,243.9-45.4,244.5-45.4z"/>
				<path id="rect3410" fill="#D80025" d="M237.5-46.6L237.5-46.6c0.3,0.3,0.5,0.6,0.5,1v6.7c0,0.4-0.2,0.7-0.5,0.9v0.1h2.8v-0.2
					c-0.2-0.2-0.4-0.5-0.4-0.8v-6.7c0-0.3,0.2-0.6,0.4-0.8v-0.2H237.5z"/>
				<path id="path3455" fill-rule="evenodd" clip-rule="evenodd" fill="#D80025" d="M259.8-46.6l-3.7,7.7c0,0,0,0.6-0.8,0.8h1.9
					c0,0-0.3-0.2-0.2-0.5c0.1-0.2,0.3-0.6,0.3-0.6h3.8l0.4,0.7c0,0-0.2,0.4-0.5,0.4h3.3c0,0-0.4-0.2-0.6-0.6
					C263.5-39.1,259.8-46.6,259.8-46.6L259.8-46.6z M259.3-43.2l1.4,3.2h-2.9C257.7-40.1,259.3-43.2,259.3-43.2z"/>
				<path id="path3459" fill-rule="evenodd" clip-rule="evenodd" fill="#D80025" d="M256.9-46.6C256.8-46.6,256.8-46.6,256.9-46.6
					L256.9-46.6L256.9-46.6z M256.8-46.6H255c0.4,0.4,0.2,0.7,0.2,0.7l-0.8,3l-1.4-3.7h-0.2l-1.7,3.7c0,0-0.6-2.5-0.6-2.8
					s0.2-0.6,0.3-0.8h-2.9c0.6,0.4,0.6,0.7,0.6,0.7l1.8,7.9c0,0,1.5-4.1,1.7-4.6c0.1-0.4,0.4,0.1,0.4,0.1l1.7,4.7c0,0,2-7.6,2.2-8.3
					C256.5-46.5,256.7-46.6,256.8-46.6z"/>
			</g>
		</g>
	</g>
	<path id="path4210" stroke="#FF0000" d="M12.3,190.6c0-0.1-0.1-0.2-0.2-0.1c-0.1,0-0.2,0.1-0.2,0.2c0,0.1,0.1,0.1,0.2,0.1
		S12.3,190.7,12.3,190.6z"/>
	<path fill="#0A1F62" d="M-19,163.5c0-0.1,0-0.1-0.1-0.2h-0.1c-0.4-0.1-1.3-0.1-2-0.2c-0.3,0-0.6,0-0.8,0c-0.2,0-0.4,0-0.5,0
		c0.2,0,0.4-0.1,0.7-0.1c0.3,0,0.6-0.1,0.8-0.1c0.1,0,0.2-0.1,0.3-0.1c0.1-0.1,0.3-0.1,0.3-0.2l0.1-0.1c0-0.1,0.1-0.1,0.1-0.2v-0.1
		c0-0.1-1.2-2.6-1.2-2.6s0,0-0.1-0.1c-0.1-0.1-0.2-0.1-0.3-0.2v-0.1c0,0-5,0.1-5.4,0.2c-1.5,0.3-7.2,3-7.7,3.1
		c-0.2,0-0.6,0.1-0.7,0.1c-0.1,0-0.2,0-0.3,0H-36h-0.1c-0.2,0-0.3,0.1-0.5,0.2c0,0,0,0.1-0.1,0.1l-0.1,0.1c-0.1,0.2-0.3,0.3-0.5,0.5
		c-0.1,0.1-0.2,0.2-0.3,0.3c-0.1,0.1-2.5,2.1-2.7,2.3l-0.8,0.8l-0.1-0.5v-0.1c0-0.1-1.8-1.9-1.9-1.9c0,0,0,0-0.1,0h-0.1
		c-0.1,0-0.3,0-0.5,0c-0.4,0.1-0.9,0.2-1.1,0.2c0,0,0,0-0.1,0c0,0,0.1-0.2,0.3-0.5c0.2-0.2,0.4-0.5,0.5-0.6v-0.1v-0.1v-0.1
		c-0.1-0.1-0.1-0.3-0.2-0.4l-2-2.2l-0.9,0.1c-0.4,0.1-1,0.2-1.7,0.4l-0.2-0.2l-1.8,0.8c-0.3,0.1-4.6,2.2-4.6,2.2l-3.4,2.4h-0.1h-0.1
		c-0.1,0-0.2,0.1-0.2,0.1c-0.1,0-0.7-1.2-0.7-1.2c0-0.1,0.1-0.2,0.2-0.3c0.1-0.1,0.1-0.1,0.1-0.2c0.3-0.4,0.7-0.6,1.7-1.1
		c0.5-0.2,1.2-0.7,1.9-1.1c0.7-0.4,1.4-0.8,1.8-1.1c0.1-0.1,0.2-0.1,0.3-0.2c0,0,0.1,0,0.1-0.1c0,0,0,0,0.1-0.1
		c0.1-0.1,0.5-4.3,0.4-4.5c-0.1-0.3-0.3-0.5-0.7-0.6h-0.1c-0.2,0-0.4-0.1-0.6-0.1c-0.1,0-0.1,0-0.2,0c-0.2-0.1-0.3-0.1-0.4-0.1
		c-0.2,0-2.3,0.7-2.4,0.8l-0.1,0.1c0,0,0,0.1-0.1,0.1v0.1v0.1v0.1v0.1v0.1c0,0.1,0.8,1.3,0.9,1.4c0,0,0,0,0,0
		c0.1,0.1,0.1,0.2,0.2,0.2c0,0,0,0.1,0,0.1s-0.1,0.1-0.3,0.2c-0.1,0.1-0.3,0.2-0.5,0.3c-0.6,0.3-4.3,3-4.5,3.3
		c-0.1,0.1-0.1,0.2-0.1,0.3c-0.1,0.2-0.1,0.3-0.1,0.4c0,0.2,1.1,2.8,1.2,2.9c0,0,0,0,0.1,0.1c0,0.1,0.1,0.1,0.1,0.2
		c0,0,0.1,0.1,0.1,0.1c0,0,0,0-0.1,0.1c0,0,0,0-0.1,0.1c0,0,0,0-0.1,0.1c-0.1,0.1-0.3,0.2-0.4,0.4c-0.2,0.1-1.3,1.8-1.3,1.8
		c0,0.2,0,0.4,0.1,0.6c0,0.1,0.1,0.2,0.1,0.3c0,0,1,2.6,1,2.7c0.1,0,0.1,0,0.2,0.1h0.1c0.1,0,1.7-0.3,1.7-0.3s1.8,2.2,1.9,2.3
		l0.1,0.1c0,0,0,0,0.1,0c0,0,0,0,0.1,0c0.1,0,0.2,0,0.4,0c0.2,0,0.5-0.1,0.7-0.2c0.5-0.2,6.6-3.6,7.5-4.2c0.2-0.2,0.4-0.3,0.7-0.5
		c0.4-0.3,0.8-0.6,1.1-0.8c0,0,3-1.6,3.1-1.6c0,0,0,0,0.1,0c0,0.1-0.1,0.3-0.3,0.8c-0.2,0.5-0.4,0.9-0.4,1h-0.1
		c-0.2,0-0.7,0.1-1.2,0.1c-1.3,0.1-2,0.3-2.7,0.9c-0.1,0.1-0.3,0.2-0.3,0.4c0,0.1,2.5,3.1,2.5,3.2c0.1,0,0.2,0,0.3,0
		c0.2,0,0.4-0.1,0.6-0.2c0.5-0.2,4.2-3,4.3-3.2c0.9-1,1.7-2,2.3-2.9c0.2-0.3,0.3-0.5,0.5-0.7c0.1-0.1,0.1-0.2,0.2-0.3
		c0.7-1.3,1.9-3.7,2-3.7l0.1-0.3l0.8,0.5c0.2,0.1,0.3,0.2,0.5,0.3c0.1,0,0.1,0.1,0.2,0.1c0.1,0,0.1,0,0.2,0.1c0.1,0,2.3,0.1,2.7,0.1
		c0.3,0,0.5-0.1,0.8-0.1c0.5-0.1,0.8-0.1,1.1-0.2c0.5-0.1,0.8-0.3,1.4-0.6c0.9-0.5,2.1-0.9,3-1c0.4-0.1,0.7-0.1,0.8,0
		c0,0.1,0,0.1-0.1,0.1c0,0,0,0-0.1,0c-0.1,0.1-0.3,0.3-0.5,0.5c-0.4,0.4-0.5,0.5-0.8,0.6c-0.1,0-0.1,0-0.2,0c-0.1,0-0.1,0-0.2,0
		c-0.3,0-0.6,0.1-0.9,0.2c-0.1,0-0.2,0-0.3,0.1c-0.3,0.1-0.6,0.2-1,0.3c-1,0.3-4.8,2.2-4.9,2.4c0,0.1,0.6,1.4,0.7,1.6
		c0.2,0.4,0.3,0.8,0.3,0.8s0,0-0.1,0c-0.1,0-0.2,0-0.4-0.1c0,0-0.1,0-0.1-0.1c-0.1,0-0.2-0.1-0.3-0.2c0,0-2.6-1.3-2.7-1.3
		c-0.1,0-0.1,0-0.2,0c-0.1,0-0.2,0-0.3,0.1c0,0,0,0-0.1,0.1c0,0-1.3,2.1-1.5,2.5c0,0.1,0,0.1,0,0.1c0,0.1,0.2,0.3,0.4,0.6
		c0.2,0.2,1.9,2.5,2.1,2.5h0.1c0.2,0.1,2.4,0.9,2.4,0.9l0.1,0c0.1,0,0.1,0,0.1,0v-0.1c0,0,0,0,0,0c0,0,4.9-0.1,5.4-0.1l0.9,0.1
		l-0.4,0.3c-0.1,0.1-0.2,0.2-0.3,0.2c-0.2,0.2-0.4,0.4-0.6,0.6c-0.1,0.1-0.2,0.2-0.2,0.3c0.1,0,0.2-0.1,0.3-0.1
		c0.1-0.1,0.2-0.1,0.4-0.2c0.1,0,0.1-0.1,0.2-0.1c0.1-0.1-0.3,1.2-0.3,1.3c0,0,0,0,0,0.1v0.1c0,0,0,0,0.1,0c0,0,0,0,0.1,0
		c0.1,0,0.2-0.1,0.3-0.1c0.8-0.5,6.2-0.4,6.4-0.6c0,0,0-0.1,0.1-0.1c0-0.1,0.1-0.1,0.1-0.2c0,0,0-0.1,0.1-0.1
		c0.1-0.2-0.3-3.8-0.4-3.8c0,0,0,0-0.1-0.1c-0.2-0.2-0.5-0.3-1-0.5c-0.5-0.2-5.6-0.6-5.6-0.6l0.3-0.4l0.1-0.1
		c0.1-0.1,0.1-0.1,0.1-0.2c0.1-0.1,0.1-0.2,0-0.4c0-0.1-0.1-0.1-0.2-0.2c0,0-0.9-0.7-1-0.8c0,0-0.1,0-0.1-0.1c0,0,0,0,0-0.1
		c0,0,0,0,0.1-0.1c0.1-0.1,0.3-0.1,0.5-0.2c0.5-0.2,1.2-0.4,1.6-0.5l0.6-0.1l0.5,0.6c0.1,0.1,0.2,0.2,0.2,0.2
		c0.2,0.2,0.5,0.5,0.6,0.6c0,0,0.1,0,0.1,0.1c0,0,0.1,0,0.1,0.1c0.2,0.1,0.4,0.2,0.6,0.2h0.1c0.1,0,0.1,0,0.2,0
		c0.1,0,4.3-1.2,4.4-1.2c0,0,0,0,0.1,0l0.1-0.1l0.1-0.1c0.1-0.1,0.2-0.2,0.2-0.3c0-0.1,0.1-0.1,0.1-0.2s0-0.2,0-0.3
		C-18.3,166.3-18.9,163.6-19,163.5z"/>
</g>
<g>
	<path opacity="0.2" enable-background="new    " d="M10.4,74.3V25.8c0-12.1,8.2-22.7,19.8-25.8H0v100h30.2
		C18.5,96.9,10.4,86.3,10.4,74.3z"/>
	<path opacity="0.1" fill="#FFFFFF" enable-background="new    " d="M89.6,25.8v48.4c0,12.1-8.2,22.7-19.8,25.8H100V0H69.8
		C81.5,3.1,89.6,13.7,89.6,25.8z"/>
</g>
<path fill="#69310B" d="M72.5,35.1c-0.2-0.2-3-1.5-3.2-1.6c-0.4-0.2-13.9-4.8-14.6-4.8c-0.1,0-0.7,0-1,0.1C52.4,29,52,29.2,51.3,30
	c-0.7,0.7-0.7,4.9-0.7,4.9c0,0,0,0.1,0,0.1c-0.1,0.3-2.7,0.5-2.7,0.5l0,0c0,0-1.1-3.6-1.5-4c-0.6-0.5-1.9-1.1-2.6-1.3
	c-0.7-0.2-1-0.2-2.1-0.1c-1.4,0.1-8.7,1.6-8.7,1.7c0,0-3.6,0.7-4.7,1.1l0,0l0,0c-0.2,0.1-0.4,0.2-0.5,0.2c0,0,0,0.1,0,0.2
	c0.1,0.1,0.8,0.1,1.4,0c0.1,0,0.2,0.1,0.3,0.1c-0.4,0.2-0.4,0.3-0.2,0.4c0.2,0.1,1.8,0.3,2,0.4c0.3,0.2,0.7,0.1,1.4-0.1
	c0.2,0,0.4,0.1,0.6,0.1c0,0,0,0.1,0.1,0.1c0.2,0.1,0.3,0.1,0.7,0c0.2,0,0.4,0.1,0.6,0.1c-0.2,0.1-0.2,0.2-0.2,0.3
	c0,0.2,0.7,0.2,1.3-0.1c0.1,0,5.2,2.4,5.1,2.6c-0.1,0.6-0.1,0.6,0,0.9c0.2,0.4,0.3,0.4,0.3,0c0-0.1,0-0.2,0.1-0.2
	c0.1,0.3,0.1,0.6,0.3,0.9c0,0.3,0.7,1.5,1,1.8c0.1,0.1,0.2,0.2,0.3,0.2c0,0,0.1-0.3,0.1-0.6c0-0.1,0-0.2,0-0.2c0,0,0,0,0,0
	c0,0.5,0.2,1.1,0.6,1.4c0.4,0.4,0.6,0.4,0.5,0.1c-0.1-0.4-0.2-0.7-0.2-1c0.1,0.1,0.2,0.1,0.3,0.2c0,0.2,0,0.3,0.1,0.5
	c0.2,0.6,0.4,0.9,0.8,1c0.2,0,0.4,0.1,0.4,0c0,0-0.1-0.3-0.3-0.7c0-0.1-0.1-0.2-0.1-0.3c0,0,0.1,0.1,0.1,0.1c0,0.2,0.1,0.3,0.2,0.5
	c0.4,0.9,0.8,1.3,1.4,1.2c0.4,0,2.9,1.1,3.1,1.3c0.3,0.2,0.8,0.4,2.8,0.7c0.7,0.1,1.5,0.4,1.6,0.7c0,0,0,0.1-0.1,0.2
	c0.1-0.1,0.3-0.2,0.5-0.2c-0.1,0-0.2-0.2-0.3-0.4c-0.2-0.4-0.2-0.4-0.1-0.4c0.2,0,0.3,0.2,0.4,0.6c0,0.1,0.1,0.2,0.1,0.1
	c0.1-0.3-0.3-0.7-0.7-0.9c-0.2-0.1-0.5-0.2-0.6-0.3l0.2-0.4c0.1,0,0.3,0,0.4,0c0.6-0.1,1.1,0.7,1,1.4c0,0.3,0-1.3-0.5-1.5
	c-0.2-0.1-0.3-0.3-0.3-0.6c0-0.1,0-0.2,0-0.3c0.2-0.1,0.4-0.3,0.7-0.4c0,0,0,0,0,0c0.1,0,0.2-0.1,0.3-0.1c0.1,0.2,2.8-0.3,2.9-0.5
	c0,0,0-0.1-0.1-0.3c0.1,0,0.1-0.1,0.2-0.1c0.3,0.3,0.5,0.4,0.5,0.2c0,0-0.2-0.2-0.4-0.4c0-0.1-0.1-0.3-0.3-0.5c0,0,0.1,0.1,0.1,0.1
	c0.4,0.4,0.7,0.7,0.7,0.7c0,0,0-0.1,0-0.2c0-0.3-1.9-2-3-2.8l-0.3-0.2c0,0,0-0.1,0.3-0.5c0.1,0,1.8-2,1.8-2.1c0.2,0,0.4,0,0.8,0
	c0.1,0,6.9-0.1,7.5-0.1c0.5,0.2,0.9,0.3,1.1,0.3c0.5,0,0.5-0.1,0.2-0.3c0.2,0,0.5,0,0.7,0c0.3,0.1,0.6,0.2,0.7,0.2
	c0.4,0.1,0.7,0.1,0.7,0.1c0.1,0,0.2-0.1,0.2-0.1s0.1-0.1,0.1-0.2c0,0,0-0.1,0-0.1l0.4-0.1c0.7,0.2,1,0.2,1.1,0c0-0.1,0-0.1-0.2-0.2
	l0.7-0.2c0.4,0.1,0.7,0.2,0.7,0.2C72.6,35.4,72.6,35.2,72.5,35.1z"/>
</svg>
