<?xml version="1.0" encoding="utf-8"?>
<!-- Generator: Adobe Illustrator 23.0.0, SVG Export Plug-In . SVG Version: 6.00 Build 0)  -->
<svg version="1.0" id="svg2" xmlns:svg="http://www.w3.org/2000/svg"
	 xmlns="http://www.w3.org/2000/svg" xmlns:xlink="http://www.w3.org/1999/xlink" x="0px" y="0px" width="100px" height="100px"
	 viewBox="0 0 100 100" enable-background="new 0 0 100 100" xml:space="preserve">
<g id="path25">
	<path fill="#64B4FF" d="M58.9,58c0,0,1.8,3.4,2.3,3.4s2.3,0.1,2.9,0.1s1.5-0.3,2.5-0.1c1,0.1,1.5,0.1,2.1,0
		c0.5-0.1,1.9,0.1,2.5,0.1c1-1,2.4-3.5,2.4-3.5H58.9"/>
</g>
<path fill="#B4B4B4" d="M79.4,72.7c-0.3-0.3-0.4-1.1-0.9-1.3c0,0,0,0.4-0.1-0.2c-0.6-2-1.5-2.7-2-2.9c-0.6-1.6-1.8-1.6-2.4-1.5
	c-0.8-1.3-3.1-1.2-3.7-1.1l0.1,0.2h-0.1l-3.5-0.8l-2.4-0.4L64,65.1l-0.4,1.4l1.8,2.3l-3.6,2.9l2.6,2.4l1.8,0.9h0.6
	c0.7,0.1,1.8,0,2.4,0c0.9,0,1.9,0.5,3,0.5c0.8,0,2.2-0.3,3.1-0.5h0.3l0.1-0.1c0.1,0,0.1,0,0.2,0c0.6,0,2.4,0.4,3,0.3
	c0.6-0.1,1.4-0.8,1.4-1.3C80.3,73.3,79.6,72.9,79.4,72.7z"/>
<g id="g4096" transform="matrix(0.99573473,0,0,0.99573473,2.1326346,0.25592027)">
	<g id="flowRoot3297" transform="matrix(1.0602198,0,0,1.0602198,422.75305,250.58507)">
		<g id="path4080">
			<path fill="#002768" d="M-367.6-161.1v-0.3h0.3c0.2,0,0.3,0,0.3-0.1c0.1,0,0.1-0.2,0.1-0.4v-2.5c0-0.2,0-0.3-0.1-0.4
				c-0.1,0-0.2-0.1-0.3-0.1h-0.3v-0.3h2v0.3h-0.3c-0.2,0-0.3,0-0.3,0.1c-0.1,0-0.1,0.2-0.1,0.4v2.5c0,0.2,0,0.3,0.1,0.4
				c0.1,0,0.2,0.1,0.3,0.1h0.3v0.3H-367.6z"/>
		</g>
		<g id="path4082">
			<path fill="#002768" d="M-365.3-165.1h2v0.3h-0.3c-0.2,0-0.3,0-0.3,0.1c-0.1,0-0.1,0.2-0.1,0.4v2.9h1c0.3,0,0.5,0,0.7-0.1
				c0.2-0.1,0.3-0.1,0.3-0.3c0.1-0.1,0.1-0.2,0.1-0.4c0-0.1,0-0.3,0-0.5v-0.1h0.3v1.7h-3.7v-0.3h0.2c0.2,0,0.3,0,0.3-0.1
				c0.1,0,0.1-0.2,0.1-0.4v-2.5c0-0.2,0-0.3-0.1-0.4s-0.2-0.1-0.3-0.1h-0.2V-165.1L-365.3-165.1z"/>
		</g>
		<g id="path4084">
			<path fill="#002768" d="M-361.2-165.1h2v0.3h-0.3c-0.2,0-0.3,0-0.3,0.1c-0.1,0-0.1,0.2-0.1,0.4v2.9h1c0.3,0,0.5,0,0.7-0.1
				c0.2-0.1,0.3-0.1,0.3-0.3c0.1-0.1,0.1-0.2,0.1-0.4c0-0.1,0-0.3,0-0.5v-0.1h0.3v1.7h-3.7v-0.3h0.2c0.2,0,0.3,0,0.3-0.1
				c0.1,0,0.1-0.2,0.1-0.4v-2.5c0-0.2,0-0.3-0.1-0.4c-0.1,0-0.2-0.1-0.3-0.1h-0.2C-361.2-164.8-361.2-165.1-361.2-165.1z"/>
		</g>
		<g id="path4086">
			<path fill="#002768" d="M-357.1-161.1v-0.3h0.3c0.2,0,0.3,0,0.3-0.1c0.1,0,0.1-0.2,0.1-0.4v-2.5c0-0.2,0-0.3-0.1-0.4
				c-0.1,0-0.2-0.1-0.3-0.1h-0.3v-0.3h2v0.3h-0.3c-0.2,0-0.3,0-0.3,0.1c-0.1,0-0.1,0.2-0.1,0.4v2.5c0,0.2,0,0.3,0.1,0.4
				c0.1,0,0.2,0.1,0.3,0.1h0.3v0.3H-357.1z"/>
		</g>
		<g id="path4088">
			<path fill="#002768" d="M-350.7-161.1h-0.5l-2.5-3.5v2.7c0,0.2,0,0.3,0.1,0.4c0.1,0,0.2,0.1,0.3,0.1h0.3v0.3h-1.8v-0.3h0.2
				c0.2,0,0.3,0,0.3-0.1c0.1,0,0.1-0.2,0.1-0.4v-2.5c0-0.2,0-0.3-0.1-0.4c-0.1,0-0.2-0.1-0.3-0.1h-0.2v-0.3h1.3l2.3,3.2v-2.5
				c0-0.2,0-0.3-0.1-0.4c-0.1,0-0.2-0.1-0.3-0.1h-0.3v-0.3h1.8v0.3h-0.2c-0.2,0-0.3,0-0.3,0.1c-0.1,0-0.1,0.2-0.1,0.4L-350.7-161.1
				L-350.7-161.1L-350.7-161.1z"/>
		</g>
		<g id="path4090">
			<path fill="#002768" d="M-349.1-163.1c0,0.5,0.1,1,0.4,1.3c0.3,0.3,0.6,0.5,1.1,0.5s0.8-0.2,1.1-0.5c0.3-0.3,0.4-0.8,0.4-1.3
				c0-0.5-0.1-1-0.4-1.3c-0.3-0.3-0.6-0.5-1.1-0.5s-0.8,0.2-1.1,0.5C-349-164.1-349.1-163.7-349.1-163.1z M-349.7-163.1
				c0-0.3,0.1-0.6,0.2-0.9c0.1-0.3,0.3-0.5,0.5-0.7c0.2-0.2,0.4-0.3,0.7-0.4c0.3-0.1,0.5-0.1,0.8-0.1s0.6,0,0.8,0.1
				c0.2,0.1,0.5,0.2,0.7,0.4c0.2,0.2,0.4,0.4,0.5,0.7c0.1,0.3,0.2,0.6,0.2,0.9s-0.1,0.6-0.2,0.9s-0.3,0.5-0.5,0.7s-0.4,0.3-0.7,0.4
				c-0.3,0.1-0.5,0.1-0.8,0.1s-0.6,0-0.8-0.1c-0.3-0.1-0.5-0.2-0.7-0.4s-0.4-0.4-0.5-0.7C-349.7-162.5-349.7-162.8-349.7-163.1z"/>
		</g>
		<g id="path4092">
			<path fill="#002768" d="M-345-161.1v-0.3h0.3c0.2,0,0.3,0,0.3-0.1c0.1,0,0.1-0.2,0.1-0.4v-2.5c0-0.2,0-0.3-0.1-0.4
				c-0.1,0-0.2-0.1-0.3-0.1h-0.3v-0.3h2v0.3h-0.3c-0.2,0-0.3,0-0.3,0.1c-0.1,0-0.1,0.2-0.1,0.4v2.5c0,0.2,0,0.3,0.1,0.4
				c0.1,0,0.2,0.1,0.3,0.1h0.3v0.3H-345z"/>
		</g>
		<g id="path4094">
			<path fill="#002768" d="M-342.6-161.1v-1.7h0.3c0.1,0.4,0.2,0.8,0.5,1c0.3,0.3,0.6,0.4,1,0.4c0.3,0,0.5-0.1,0.7-0.2
				s0.3-0.3,0.3-0.5s-0.1-0.3-0.2-0.5c-0.1-0.1-0.4-0.2-0.7-0.3l-0.5-0.1c-0.5-0.1-0.9-0.3-1.1-0.4c-0.2-0.2-0.3-0.4-0.3-0.7
				s0.1-0.6,0.4-0.8c0.3-0.2,0.6-0.3,1.1-0.3c0.2,0,0.4,0,0.6,0.1c0.2,0.1,0.4,0.2,0.6,0.3l0.2-0.4h0.3v1.5h-0.3
				c-0.1-0.4-0.2-0.7-0.4-0.9c-0.2-0.2-0.5-0.3-0.9-0.3c-0.3,0-0.5,0.1-0.7,0.2c-0.2,0.1-0.2,0.3-0.2,0.5s0.1,0.3,0.2,0.4
				c0.1,0.1,0.3,0.2,0.6,0.2l0.6,0.1c0.5,0.1,0.9,0.2,1.1,0.4s0.3,0.4,0.3,0.8c0,0.4-0.1,0.7-0.4,0.9s-0.6,0.3-1.1,0.3
				c-0.3,0-0.5,0-0.7-0.1c-0.2-0.1-0.4-0.2-0.6-0.4l-0.2,0.4L-342.6-161.1L-342.6-161.1z"/>
		</g>
	</g>
	<g id="seal" transform="matrix(1.2568522,0,0,1.2568522,12.793801,17.081243)">
		<path fill="#64B4FF" d="M10.8,33.7H8.1c0,0,1.5,1.6,1.4,1.7c0.3-0.1,1.9,0.1,2.2,0v-0.1c0.1,0,0.1,0,0.2,0L10.8,33.7z"/>
		<g id="rock">
			<path fill="#B4B4B4" d="M38.7,37.1c0-0.3-0.3-0.5-0.5-0.7c-0.1,0-0.2-0.1-0.2-0.1c-0.1-0.1-0.1-0.3-0.2-0.4
				c-0.1-0.3-0.3-0.6-0.5-0.7v-0.1c-0.5-1.5-1.1-2-1.6-2.3l-0.1-0.1c-0.2-0.8-0.7-1.1-1.1-1.2c-0.3-0.1-0.6-0.1-0.8-0.1
				c-0.6-1.1-2.4-1-3.1-0.9l0,0c0,0,0,0-0.1,0l0.1,0.2h-0.1l-2.8-0.6v0.1l-0.6,1.4l1.3,0.2L27,34.4l-2,2.2l0.9,0.9l1.4,0.7h0.5
				c0.6,0.1,1.4,0,1.9,0c0.7,0,1.5,0.4,2.4,0.4c0.5,0,1.4-0.2,2-0.3c0.1,0,0.2,0,0.3,0s0.1,0,0.2-0.1h0.2l0.1-0.1c0.1,0,0.1,0,0.2,0
				c0.5,0,1.9,0.3,2.4,0.2c0.2,0,0.3-0.1,0.5-0.2C38.3,37.8,38.7,37.4,38.7,37.1z M33.4,31.5C33.4,31.4,33.4,31.4,33.4,31.5
				C33.4,31.4,33.4,31.4,33.4,31.5z"/>
			<g>
				<path d="M29.9,34.4v-1l-0.2-0.1c-0.1,0.2-0.2,0.2-0.3,0.2h-0.1v0.2h0.2v0.7c0,0.1,0,0.1-0.1,0.1h-0.1v0.2h0.8v-0.2H30
					C29.9,34.5,29.9,34.5,29.9,34.4z"/>
				<path d="M31.7,34.3c0-0.2-0.1-0.3-0.3-0.4c0.1,0,0.2-0.1,0.2-0.2c0-0.2-0.3-0.3-0.5-0.4c-0.3,0-0.6,0.1-0.6,0.4
					c0,0.1,0.1,0.2,0.2,0.3c-0.1,0-0.2,0.1-0.2,0.3c0,0.4,0.4,0.4,0.6,0.4C31.4,34.7,31.7,34.6,31.7,34.3z M31,34.6
					c-0.1,0-0.3,0-0.3-0.2c0-0.1,0.1-0.2,0.2-0.2h0.2c0.2,0.1,0.2,0.1,0.2,0.2C31.3,34.6,31.1,34.6,31,34.6z M31.2,33.9l-0.3-0.1
					c-0.1,0-0.1-0.1-0.1-0.1c0-0.1,0.1-0.1,0.2-0.1c0.2,0,0.3,0.1,0.3,0.2C31.3,33.8,31.3,33.9,31.2,33.9z"/>
				<path d="M32.9,34.4c0-0.3-0.2-0.4-0.4-0.4c-0.1,0-0.2,0-0.3,0.1c0-0.2,0.1-0.3,0.3-0.3h0.1c-0.1,0-0.1,0-0.1,0.1
					c0,0,0.1,0.1,0.2,0.1c0.1,0,0.2-0.1,0.2-0.2c0-0.2-0.2-0.3-0.4-0.3c-0.5,0-0.7,0.3-0.7,0.7s0.2,0.6,0.6,0.6
					C32.6,34.8,32.9,34.7,32.9,34.4z M32.4,34.6c-0.1,0-0.2,0-0.2-0.2c0-0.2,0.1-0.3,0.2-0.2c0.1,0,0.2,0,0.2,0.2
					C32.6,34.5,32.5,34.6,32.4,34.6z"/>
				<path d="M34.3,34.3c0-0.2-0.1-0.3-0.3-0.4c0.1,0,0.2-0.1,0.2-0.2c0-0.2-0.3-0.3-0.5-0.4c-0.3,0-0.6,0.1-0.6,0.4
					c0,0.1,0.1,0.2,0.2,0.3c-0.1,0-0.2,0.1-0.2,0.3c0,0.4,0.4,0.4,0.6,0.4C34,34.7,34.3,34.6,34.3,34.3z M33.6,34.6
					c-0.1,0-0.3,0-0.3-0.2c0-0.1,0.1-0.2,0.2-0.2h0.2c0.2,0.1,0.2,0.1,0.2,0.2C33.9,34.6,33.7,34.6,33.6,34.6z M33.9,33.9l-0.3-0.1
					c-0.1,0-0.1-0.1-0.1-0.1c0-0.1,0.1-0.1,0.2-0.1C33.9,33.6,34,33.7,33.9,33.9C34,33.8,34,33.9,33.9,33.9z"/>
				<path d="M31.9,36.8v-1v-0.1h-0.2C31.6,36,31.5,36,31.4,36h-0.1v0.2h0.2v0.7c0,0.1,0,0.1-0.1,0.1h-0.1v0.2h0.8v-0.2H32
					C31.9,36.9,31.9,36.9,31.9,36.8z"/>
				<path d="M33.4,36.3c0.1,0,0.2-0.1,0.2-0.2c0-0.3-0.3-0.3-0.5-0.4c-0.3,0-0.6,0.1-0.6,0.4c0,0.1,0.1,0.2,0.2,0.3
					c-0.1,0-0.2,0.1-0.2,0.3c0,0.4,0.4,0.4,0.6,0.4c0.3,0,0.6-0.1,0.6-0.4C33.7,36.5,33.6,36.4,33.4,36.3z M33,36
					c0.2,0,0.3,0.1,0.2,0.3c0.1-0.1,0.1,0,0,0l-0.3-0.1c-0.1,0-0.1-0.1-0.1-0.1C32.8,36,32.9,36,33,36z M33,37c-0.1,0-0.3,0-0.3-0.2
					c0-0.1,0.1-0.2,0.2-0.2h0.2c0.2,0.1,0.2,0.1,0.2,0.2C33.3,37,33.1,37,33,37z"/>
				<path d="M34.6,36.8v-1v-0.1h-0.3C34.2,36,34.1,36,34,36v0.2h0.2v0.7c0,0.1,0,0.1-0.1,0.1H34v0.2h0.8v-0.2L34.6,36.8
					C34.6,36.9,34.6,36.9,34.6,36.8z"/>
				<path d="M36,36.3c0.1,0,0.2-0.1,0.2-0.2c0-0.3-0.3-0.3-0.5-0.4c-0.3,0-0.6,0.1-0.6,0.4c0,0.1,0.1,0.2,0.2,0.3
					c-0.1,0-0.2,0.1-0.2,0.3c0,0.4,0.4,0.4,0.6,0.4c0.3,0,0.6-0.1,0.6-0.4C36.3,36.5,36.2,36.4,36,36.3z M35.6,36
					c0.2,0,0.3,0.1,0.2,0.3l-0.3-0.1c-0.1,0-0.1-0.1-0.1-0.1C35.4,36,35.5,36,35.6,36z M35.6,37c-0.1,0-0.3,0-0.3-0.2
					c0-0.1,0.1-0.2,0.2-0.2h0.2c0.2,0.1,0.2,0.1,0.2,0.2C35.9,37,35.7,37,35.6,37z"/>
			</g>
		</g>
		<g id="shield">
			<g id="path124">
				<path d="M15.7,40L15.7,40c-1.4-4.8-0.6-8.4,0.3-10.5c1.1-2.5,2.7-4.1,3.5-4.3h0.1v0.1c0.6,2.2,3.7,3.2,4.4,3.2l0,0l0,0
					c0.3,0.9,2.1,3.2,4.3,3.2h0.1h0.1v0.1c-0.1,0.4-1,2.3-3,4.2C23.7,37.7,20.6,39.8,15.7,40L15.7,40z M19.5,25.4
					c-0.8,0.3-2.4,1.8-3.4,4.2c-0.9,2.2-1.7,5.7-0.3,10.4c4.8-0.3,7.9-2.3,9.7-4c1.9-1.8,2.8-3.6,2.9-4.1l0,0
					c-2.3,0-4.1-2.3-4.4-3.3C22.9,28.6,20.1,27.5,19.5,25.4z"/>
			</g>
			<g id="path126">
				<path fill="#FFFFFF" d="M23.8,29c0.3,0.8,1.1,4.4,2.6,5.6c-0.6,0.6-4.2,4.7-10.1,4.9c-1.9-6,0.5-10.3,1.3-11.7
					C19.4,29.2,23,28.9,23.8,29"/>
			</g>
			<g id="path128">
				<path fill="#002768" d="M19.3,25.9c1,2.1,3.5,2.8,4.5,3c0.3,1.6,3.4,3.5,4.1,3.3c-0.1,0.9-1.7,2.6-2.3,3.1l-8.7-6.4
					C17.1,28.3,18.7,25.9,19.3,25.9"/>
			</g>
			<g id="g130">
				<g id="path132">
					<path fill="#BE0A2F" d="M24.7,35.4l0.5,0.3c-0.4,0.3-1.3,1-1.6,1.2L24.7,35.4"/>
				</g>
				<g id="path134">
					<path fill="#BE0A2F" d="M16.7,29.5l0.7,0.5l-1.6,2.2C16.1,31,16.1,30.8,16.7,29.5"/>
				</g>
				<g id="path136">
					<path fill="#BE0A2F" d="M17.9,30.4l0.9,0.6l-3.2,4.5c-0.1-0.6,0-1.3,0-1.9L17.9,30.4"/>
				</g>
				<g id="path138">
					<path fill="#BE0A2F" d="M19.2,31.4l0.9,0.6l-4.3,6c-0.1-0.5-0.2-1.1-0.2-1.5L19.2,31.4"/>
				</g>
				<g id="path140">
					<path fill="#BE0A2F" d="M22,33.4l0.9,0.6l-3.6,5c-0.2,0.1-1.3,0.3-1.6,0.4L22,33.4"/>
				</g>
				<g id="path142">
					<path fill="#BE0A2F" d="M20.6,32.4l0.8,0.6l-4.6,6.4c-0.1,0.1-0.4,0-0.7,0.1c0-0.2-0.2-0.5-0.2-0.6L20.6,32.4"/>
				</g>
				<g id="path144">
					<path fill="#BE0A2F" d="M23.4,34.4l0.9,0.6l-1.9,2.7c-0.2,0.1-1.6,0.8-2,0.9L23.4,34.4"/>
				</g>
			</g>
			<g>
				<polygon fill="#FFFFFF" points="18.7,28.3 18.8,28.6 18.9,28.3 19.2,28.3 18.9,28.1 19,27.8 18.8,28 18.5,27.8 18.6,28.1 
					18.3,28.3 				"/>
				<polygon fill="#FFFFFF" points="20.1,28.2 20.2,28.5 20.3,28.2 20.6,28.2 20.3,28 20.4,27.7 20.1,27.9 19.9,27.7 20,28 
					19.7,28.2 				"/>
				<polygon fill="#FFFFFF" points="19.1,29.4 19.2,29.1 19,29.3 18.7,29.1 18.8,29.4 18.5,29.6 18.9,29.6 19,29.9 19.1,29.6 
					19.4,29.6 				"/>
				<polygon fill="#FFFFFF" points="20.4,29.5 20.5,29.8 20.6,29.5 20.9,29.5 20.6,29.3 20.7,29 20.4,29.2 20.2,29 20.3,29.3 
					20,29.5 				"/>
				<polygon fill="#FFFFFF" points="21.9,29.5 22,29.8 22.1,29.5 22.4,29.5 22.1,29.3 22.2,29 21.9,29.2 21.7,29 21.8,29.3 
					21.5,29.5 				"/>
				<polygon fill="#FFFFFF" points="23.9,30.9 24,31.2 24.1,30.9 24.4,30.9 24.1,30.7 24.2,30.4 24,30.6 23.7,30.4 23.8,30.7 
					23.5,30.9 				"/>
				<polygon fill="#FFFFFF" points="22.5,31.3 22.6,31 22.9,31 22.6,30.8 22.7,30.5 22.4,30.7 22.2,30.5 22.3,30.8 22,31 22.4,31 
									"/>
				<polygon fill="#FFFFFF" points="21.1,30.8 21.2,30.5 21,30.7 20.7,30.5 20.8,30.8 20.5,31 20.9,31 21,31.3 21.1,31 21.4,31 				
					"/>
				<polygon fill="#FFFFFF" points="22.9,32.2 23,31.9 22.8,32.1 22.5,31.9 22.6,32.2 22.3,32.4 22.7,32.4 22.8,32.7 22.9,32.4 
					23.2,32.4 				"/>
				<polygon fill="#FFFFFF" points="24.2,32.3 24.3,32.6 24.4,32.3 24.7,32.3 24.4,32.1 24.5,31.8 24.2,32 24,31.8 24.1,32.1 
					23.8,32.3 				"/>
				<polygon fill="#FFFFFF" points="25.5,32.2 25.6,32.5 25.7,32.2 26,32.2 25.7,32 25.8,31.7 25.5,31.9 25.3,31.7 25.4,32 
					25.1,32.2 				"/>
				<polygon fill="#FFFFFF" points="24.7,33.5 24.8,33.2 24.5,33.4 24.2,33.2 24.3,33.5 24,33.7 24.4,33.7 24.5,34 24.6,33.7 
					24.9,33.7 				"/>
				<polygon fill="#FFFFFF" points="26.1,33.5 26.3,33.5 26.1,33.4 26.2,33 25.9,33.2 25.6,33 25.7,33.3 25.4,33.5 25.8,33.5 
					26,33.8 				"/>
			</g>
		</g>
		<g id="sun">
			<path fill="#FFE60F" d="M48,25.9c0,0-0.6,0.1-0.8,0.3c-0.2,0.2,0.3-0.5,0.6-0.7c0.2-0.2,0.4-0.9,0.4-0.9s-0.5,0.2-0.8,0.5
				l-0.1,0.1l-0.1,0.1l0,0c0,0,0,0,0.1-0.1l0,0c0.3-0.3,0.4-0.9,0.4-0.9s-0.6,0.2-0.8,0.5c-0.2,0.2-0.7-0.3-0.7-0.3
				s-0.2-0.2-0.1-0.3c0.1-0.2,0.1-0.8,0.1-0.8s-0.4-0.2-0.3-0.3c0.2-0.4,0.2-1.1,0.2-1.1s-0.4,0.1-0.5,0.3c-0.1,0.2,0.2-0.6,0.2-0.6
				l0.1-0.8c0,0-0.6,0.3-0.8,0.7c0-0.2,0-0.4,0-0.4s-0.5,0.4-0.5,0.7c0,0-0.1,0.4-0.3,1c0-0.3-0.1-0.6-0.1-0.6s-0.3,0.4-0.4,0.8
				c0,0,0,0.2-0.1,0.3c0-0.3-0.2-0.7-0.2-0.7s-0.3,0.3-0.4,0.5c0,0.2-0.1,0,0-0.2c0-0.3-0.2-0.9-0.2-0.9s-0.2,0.1-0.3,0.3
				c0-0.2,0-0.3,0.1-0.4c0-0.3-0.2-0.8-0.2-0.8s-0.2,0.2-0.2,0.4c0-0.3,0-0.4,0-0.5c0-0.4-0.3-0.7-0.3-0.7s-0.2,0.2-0.2,0.6
				c0-0.1,0-0.3,0-0.4c0-0.3-0.4-0.9-0.4-0.9s-0.3,0.5-0.3,0.9c0,0,0,0.3,0,0.7c-0.1-0.3-0.4-0.6-0.4-0.6s-0.2,0.5-0.1,1
				c0,0.1,0,0.4,0.1,0.7c-0.1-0.3-0.5-0.7-0.5-0.7s0,0.9,0,1.3v0.1c-0.1-0.3-0.3-0.5-0.3-0.5s-0.1,0.6,0,1.2
				c-0.1-0.3-0.3-0.6-0.3-0.6s-0.1,0.5,0,0.8c-0.1-0.3-0.1-0.5-0.2-0.6c-0.1-0.4-0.6-0.8-0.6-0.8s0,0.4,0.1,0.7
				c-0.1-0.2-0.2-0.5-0.3-0.6c-0.1-0.3-0.8-0.9-0.8-0.9s-0.1,0.4,0,0.6v0.1c-0.3-0.5-0.9-0.8-0.9-0.8s0.1,0.9,0.3,1.3
				c0.1,0.2,0.2,0.5,0.3,0.6l0,0l0,0c-0.1-0.2-0.8-0.5-0.8-0.5s0.1,0.8,0.3,1.1c0,0,0.1,0.1,0.2,0.3C37,24.3,36.4,24,36.4,24
				s0.4,1,0.6,1.3c-0.2-0.2-0.6-0.2-0.6-0.2s0.4,0.8,0.6,1.1c0.2,0.2-0.6-0.1-0.6-0.1s0.3,0.8,0.8,1.2c0.4,0.4,0.1,1-0.1,0.8
				c-0.3-0.2-0.9-0.2-0.9-0.2s0.1,0.6,0.4,0.8c0.1,0.1,0.6,1.4,0.6,1.4s-0.2,0.7-0.3,0.7c-0.3-0.1-1.5-0.1-1.5-0.1l-0.3,0.7
				c0,0,0.6,0.3,1.1,0.4c-0.3,0.1-0.7,0.3-0.7,0.3s0.7,0.2,1,0.2l0.2,0.1c0,0,6.2,0.1,6.2,0h2.6c0.3,0,0.7-0.1,0.9-0.2
				c0.3,0,0.7-0.6,0.7-0.6s-0.3-0.2-0.5-0.2c0.2-0.1,0.5-0.6,0.5-0.6s-0.4-0.1-0.6-0.1c0.1-0.1,0.2-0.1,0.3-0.1
				c0.2-0.1,0.5-0.6,0.5-0.6s-0.3-0.1-0.4,0c0.4-0.3,0.9-1,0.9-1s-0.6,0.1-0.8,0.2c0.1-0.1,0.2-0.2,0.2-0.2c0.3-0.2,0.6-0.9,0.6-0.9
				s-0.3,0-0.6,0.1c0.1-0.1,0.1-0.1,0.2-0.1c0.2-0.2,0.5-0.9,0.5-0.9s-0.5,0-0.8,0.1c0.1-0.1,0.2-0.2,0.4-0.4
				C47.8,26.6,48,25.9,48,25.9z"/>
		</g>
		<g id="grass">
			<g>
				<path fill="#3F863F" d="M19,40.9C19,40.9,19,40.8,19,40.9L19,40.9L19,40.9z"/>
			</g>
		</g>
		<g>
			<path fill="#3F863F" d="M15.3,37.9L15.3,37.9c0-0.4-0.1-0.8-0.1-0.9v-0.1c0-0.2-0.1-1.4-0.1-1.5c0,0,0,0-0.1,0
				c0-0.7,0-1.4,0.1-2.2c-0.1-0.4-0.2-1.9-1.4-2.5l0,0l0,0l0,0l0,0c0,0,0,0-0.1,0c-0.2,0.1-0.3,0.5-0.4,1c-0.5-0.8-1.9-1.9-2.7-1.8
				l0,0h-0.1c-0.2,0.6,0.2,2,0.7,2.6c-0.2,0-0.4-0.1-0.6-0.1h-0.1v0.1c0,0.1,0,0.1,0,0.2l0,0c0,0.9,0.6,1.7,1.2,2.1V35v0.1l0,0
				c0.2,0.8,2,1.7,3,2c-0.4,0.1-0.9,0.2-1,0.4c0,0,0,0,0,0.1l0,0c0,0,0,0.1,0.1,0.1l0,0c0,0.1,0.1,0.1,0.1,0.2l0,0
				c0.4,0.4,1.3,0.8,1.5,0.8l0,0l0,0l0.1-0.1v-0.1l0,0C15.4,38.3,15.3,38.1,15.3,37.9z"/>
			<g>
				<path fill="#3F863F" d="M30.1,40c-0.3-0.1-0.8-0.1-1.2,0c-0.1,0-0.2,0-0.3,0c-0.4,0-1-0.2-1.3-0.7c-0.1-0.2-0.1-0.4-0.2-0.7
					c0-0.4-0.2-0.9-0.5-1.2c-0.2-0.1-0.3-0.2-0.4-0.3c-0.2-0.2-0.4-0.4-0.9-0.9v0.1v0.1c0,0,0,0-0.1-0.1c0,0-0.1,0.1-0.1,0.2l0,0
					c-0.1,0.2-0.2,0.8-0.1,1.1l0,0c-0.4-0.2-0.7-0.3-1-0.3h-0.1v0.1v0.1h-0.1c0,0.5,0.1,0.9,0.2,1.2c-0.4-0.2-0.8-0.3-1.2-0.4
					c-0.2-0.1-0.5-0.1-0.7-0.2H22v0.1c0,0.4,0.1,0.7,0.3,0.9c-0.2,0-0.4,0-0.5,0c-0.7,0-1.3,0.2-2,1.1v0.1h0.1
					c0.2,0,0.5,0.1,0.7,0.1c-0.1,0.1-0.3,0.2-0.5,0.4v0.1h0.1c0.5,0.3,1.1,0.4,1.6,0.4c0.6,0,1.2-0.2,1.8-0.6
					c-0.2,0.3-0.4,0.5-0.6,0.7c0,0,0,0.1-0.1,0.1c-0.1,0.1-0.1,0.2-0.2,0.3l-0.1,0.1h0.1C23,42,23.2,42,23.4,42s0.3,0,0.5,0
					c0.1,0,0.3,0,0.6-0.1c0.6-0.1,0.8-0.3,1.1-0.5c0.3-0.2,0.5-0.4,1-0.5c1.6-0.3,2.3-0.1,2.6,0c0,0,0,0,0.1,0.1l0,0h0.1
					c0,0,0,0.1,0.1,0.1c0,0,0.1,0,0.1,0.1c0.2,0.2,0.5,0.6,0.8,0.2c0.1-0.1,0.1-0.2,0.1-0.3c0.1-0.1,0.1-0.2,0.1-0.3
					C30.6,40.5,30.3,40.2,30.1,40z"/>
			</g>
		</g>
		<g id="ribbon">
			<g id="path591">
				<path fill="#BE0A2F" d="M8.8,31c-0.2,0-0.3,0-0.4,0H8.3h0.1c0,0,1-0.4,0.9-0.9c-0.1-0.3,0.2-0.8,0.4-1c0.1-0.1,0.2-0.3,0.2-0.4
					c0-0.1-0.1-0.2-0.3-0.3C9.4,28.3,9.1,28,9,27.7s-0.1-0.5-0.1-0.8c0-0.1,0-0.2,0-0.3c0-0.3-0.1-0.6-0.1-0.8
					c-0.1-0.4-0.1-0.6,0.1-1.1c0.3-0.6,1.9-0.9,2.5-0.9l0,0c0.9,0,1.9,0.2,2.9,0.6c1.4,0.6,2,0.5,2.1,0.4c0.1-0.1,0.1-0.3-0.1-0.6
					c-0.2-0.3-0.7-0.7-2.5-1.3c-2.6-1-3.1-1.5-4.2-2.5c-1.1-1.1-0.9-2.6-0.7-2.9c0.3-0.5,0.8-0.6,1.3-0.7c0.2,0,0.3-0.1,0.5-0.1
					c0.2-0.1,0.5-0.2,0.7-0.2c0.4-0.2,0.7-0.3,1.1-0.3l0,0c0.3,0,0.6,0.1,0.9,0.2c0.3,0.1,0.7,0.3,1.1,0.3c0.6,0,0.6-0.3,0.7-0.4
					v-0.1l0.1,0.1c0.1,0.1,0.1,0.1,0.1,0.2l0,0l0,0c-0.1,0.8-1,0.8-1.3,0.7l0,0c-0.2,0-0.3-0.1-0.5-0.1C13.3,17,13,17,12.8,17
					s-0.4,0-0.5,0.2c-0.1,0.1-0.1,0.2-0.1,0.4c0.1,0.8,0.9,1.1,1.7,1.4c0.2,0.1,0.4,0.1,0.5,0.2c0.2,0.1,0.4,0.2,0.6,0.3
					c1,0.4,2.6,1,3.7,1.9c1.4,1.1,1.1,2.8,0.8,3.3c-0.4,0.8-1.5,1.3-2,1.5c-0.1,0.1-0.2,0.1-0.2,0.1c-0.4,0.3-0.6,0.7-0.9,1
					c-0.2,0.3-0.4,0.6-0.6,0.7c-0.4,0.3-1.5,0.5-2.7,0.1c-1.6-0.7-2.4-0.9-2.6-0.9c-0.2,0-0.3,0.1-0.4,0.2c0,0.1,0,0.2,0,0.3
					c0.1,0.1,0.2,0.2,0.4,0.3c0.3,0.1,0.6,0.3,0.5,0.8c0,0.3-0.2,0.4-0.4,0.5c-0.1,0.1-0.2,0.2-0.3,0.3c-0.2,0.2-0.2,0.4-0.3,0.6
					c0,0.1,0,0.2-0.1,0.2C9.8,30.9,9.2,31,8.8,31z M11.6,15.6c-0.2,0-0.3-0.1-0.5-0.1c-0.2-0.1-0.3-0.2-0.6-0.2c-0.2,0-0.4,0-0.6,0
					c-0.5,0-1,0-1-0.5c-0.2-0.9,0.2-2,1-3c1.4-1.7,3.7-3,5.8-3.2c1.4-0.1,2.3,0,2.8,0.1c-0.5-0.2-0.7-0.3-1-0.5
					c-1.8-1.3-1.2-2.6-1-2.8c0.3-0.5,1.4-0.8,2.7-1.1c0.6-0.1,1.2-0.3,1.7-0.5c1.3-0.5,2.4-0.9,3-1.2c0.4-0.2,0.7-0.3,0.9-0.3
					c0.2-0.1,0.5,0,0.7,0.1c0.3,0.2,0.6,0.7,0.7,1.4c0,0.3,0.1,0.6,0.2,0.7c0.1,0.3,0.1,0.5,0,0.8c-0.1,0.2-0.1,0.3-0.3,0.4h0.1
					c0.1,0,0.3-0.1,0.6-0.2h0.1v0.1c-0.1,0.3-0.2,0.4-0.5,0.6l-0.1,0.1l-0.1,0.1c-0.3,0.3-0.6,0.5-1,0.5c-0.7-0.1-0.7-0.4-0.8-0.7
					c0-0.1,0-0.2,0.1-0.3c-0.1,0-0.1,0.1-0.2,0.1c-1.7,1.1-4.2,1.6-4.5,1.7c-0.1,0-0.2,0-0.2,0c-0.2,0-0.4,0.1-0.5,0.1L19,7.9
					c0,0,0.1,0.1,0.2,0.1c0.6,0.2,0.8,0.4,1,0.8c0.1,0.2,0,0.4-0.1,0.7c-0.1,0.2-0.2,0.4-0.2,0.6c0,0.4,0,0.7,0,0.9
					c0,0.2,0,0.4,0,0.5c-0.1,0.4-0.4,0.8-1.9,0.5c-3.1-0.7-4.8,1.3-5.4,2c0.3-0.2,0.5-0.3,0.7-0.3l0,0c0.3,0,0.4,0.1,0.5,0.2
					c0.1,0.1,0.1,0.1,0.2,0.2c0.2,0.1,0.6,0.1,1-0.2l0,0l0,0c0,0,0,0,0.1,0s0.1,0,0.3,0.1v0.1c-0.2,0-0.3,0.2-0.5,0.4
					c-0.2,0.2-0.5,0.5-0.8,0.5l0,0c-0.3,0-0.4-0.1-0.5-0.2s-0.2-0.2-0.4-0.2c-0.2,0-0.4,0.2-0.5,0.4c-0.1,0.2-0.3,0.4-0.5,0.5
					C11.7,15.6,11.7,15.6,11.6,15.6z"/>
			</g>
			<g id="text">
				<g id="state">
					<g id="path597">
						<path d="M10.5,25.2c-0.1-0.1-0.1-0.1-0.2-0.1c-0.1,0-0.2,0.1-0.2,0.2c0,0.1,0.1,0.1,0.2,0.2h0.1c0.2,0,0.3,0.1,0.4,0.3
							c0,0.2-0.1,0.4-0.3,0.5c-0.2,0-0.4-0.1-0.4-0.3l0.2-0.1c0,0.1,0.1,0.2,0.3,0.2c0.1,0,0.2-0.1,0.2-0.3c0-0.1-0.1-0.2-0.3-0.2
							h-0.1c-0.2,0-0.3-0.1-0.3-0.3c0-0.2,0.1-0.4,0.3-0.4c0.1,0,0.3,0,0.4,0.1L10.5,25.2"/>
					</g>
					<g id="path599">
						<path d="M11.6,26.2h-0.2l0.1-1.1h-0.3V25H12v0.1h-0.3L11.6,26.2"/>
					</g>
					<g id="path601">
						<path d="M12.4,26.1l-0.2,0.2L12,26.2l1-1l0.1,1.5L13,26.6v-0.4L12.4,26.1z M12.9,25.5l-0.4,0.4l0.4,0.2V25.5"/>
					</g>
					<g id="path603">
						<path d="M13.8,26.9h-0.2l0.4-1.1l-0.3-0.1v-0.1l0.7,0.2v0.1l-0.3-0.1L13.8,26.9"/>
					</g>
					<g id="path605">
						<path d="M14.9,25.9l0.7,0.1v0.1H15v0.4l0.5,0.1v0.1L15,26.6L14.9,27l0.5,0.1v0.1l-0.7-0.1L14.9,25.9"/>
					</g>
				</g>
				<g id="sovereignty">
					<g id="path608">
						<path d="M17.8,24.3c-0.1,0.1-0.1,0.1-0.1,0.2c0,0.1,0.1,0.2,0.2,0.1c0.1,0,0.1-0.1,0.1-0.2v-0.1c0-0.2,0.1-0.3,0.3-0.3
							c0.2,0,0.4,0.1,0.4,0.3c0,0.2,0,0.3-0.2,0.4l-0.1-0.1c0.1,0,0.2-0.1,0.1-0.3c0-0.1-0.1-0.2-0.3-0.1c-0.1,0-0.1,0.1-0.2,0.2
							v0.1c0,0.1-0.1,0.3-0.2,0.3c-0.2,0-0.3-0.1-0.4-0.2C17.6,24.4,17.6,24.3,17.8,24.3L17.8,24.3"/>
					</g>
					<g id="path610">
						<path d="M17.3,22.8c0.3-0.2,0.6-0.1,0.8,0.1c0.2,0.3,0.1,0.6-0.1,0.8c-0.3,0.2-0.6,0.1-0.8-0.1C17,23.3,17.1,23,17.3,22.8
							L17.3,22.8z M17.4,22.9c-0.2,0.1-0.3,0.4-0.1,0.6c0.1,0.2,0.4,0.2,0.6,0.1c0.2-0.1,0.2-0.4,0.1-0.6
							C17.9,22.8,17.6,22.8,17.4,22.9"/>
					</g>
					<g id="path612">
						<path d="M17,22.2l-0.7,0.4l-0.1-0.1l1.1-0.6L17,23.1L16.7,23L17,22.2"/>
					</g>
					<g id="path614">
						<path d="M15.9,22.4l-0.5-0.3l0.1-0.1l0.4,0.2L16,22l-0.4-0.2l0.1-0.1l0.4,0.2l0.2-0.4l-0.4-0.2l0.1-0.1l0.5,0.3L15.9,22.4"/>
					</g>
					<g id="path616">
						<path d="M14.9,20.7l0.2,0.1l0.1,0.6h0.1l0.2-0.4l0.1,0.1l-0.4,1L15,21.9c-0.1,0-0.2-0.1-0.2-0.2c-0.1-0.1-0.1-0.2,0-0.3
							c0.1-0.1,0.2-0.2,0.4-0.2L14.9,20.7z M15.2,21.5L15.2,21.5c-0.2-0.1-0.3-0.1-0.4,0c-0.1,0.2,0.1,0.2,0.2,0.3l0,0L15.2,21.5"/>
					</g>
					<g id="path618">
						<path d="M14.3,21.6l-0.5-0.2v-0.1l0.4,0.2l0.1-0.3L13.9,21v-0.1l0.4,0.2l0.2-0.4l-0.4-0.2v-0.1l0.5,0.2L14.3,21.6"/>
					</g>
					<g id="path620">
						<path d="M13.7,20.2l0.1,0.1l-0.4,1l-0.1-0.1L13.7,20.2"/>
					</g>
					<g id="path622">
						<path d="M12.2,20.2L12.2,20.2c0.1-0.3,0.4-0.4,0.7-0.3c0.3,0.1,0.4,0.5,0.3,0.7c-0.1,0.3-0.5,0.4-0.8,0.3
							c-0.2-0.1-0.3-0.2-0.3-0.4h0.1c0,0.1,0.1,0.2,0.2,0.3c0.2,0.1,0.5,0,0.6-0.2c0.1-0.2,0-0.5-0.2-0.6s-0.4,0-0.5,0.1l0.3,0.1
							v0.1L12.2,20.2"/>
					</g>
					<g id="path624">
						<path d="M11.6,20.5l-0.2-1.2L10.9,20l-0.1-0.1l0.6-0.9l0.2,1.2l0.5-0.7l0.1,0.1L11.6,20.5"/>
					</g>
					<g id="path626">
						<path d="M11.1,18.6l0.1,0.1l-0.8,0.6l0.2,0.2l-0.1,0.1L10,19l0.1-0.1l0.2,0.2L11.1,18.6"/>
					</g>
					<g id="path628">
						<path d="M9.8,18.7l-0.1-0.1l0.3-0.4L9.6,18l-0.1-0.1l0.7,0.1l0.4-0.2v0.1l-0.4,0.2L9.8,18.7"/>
					</g>
				</g>
				<g id="national">
					<g id="path631">
						<path d="M9.9,13.7l1.2-0.2L10.4,13l0.1-0.1l1,0.7l-1.2,0.2l0.7,0.5l-0.1,0.1L9.9,13.7"/>
					</g>
					<g id="path633">
						<path d="M11.6,12.9l0.1,0.3l-0.1,0.1l-0.4-1.2l1.2,0.5l-0.1,0.1L12,12.5L11.6,12.9z M11.4,12.3l0.2,0.5l0.3-0.3L11.4,12.3"/>
					</g>
					<g id="path635">
						<path d="M12.8,12.2l-0.1,0.1l-0.6-0.8l-0.2,0.2l-0.1-0.1l0.5-0.4l0.1,0.1l-0.2,0.2L12.8,12.2"/>
					</g>
					<g id="path637">
						<path d="M13.5,11.8l-0.1,0.1l-0.6-1l0.1-0.1L13.5,11.8"/>
					</g>
					<g id="path639">
						<path d="M14.7,10.6c0.1,0.3,0,0.7-0.3,0.8c-0.3,0.1-0.7,0-0.8-0.3s0-0.7,0.3-0.8C14.2,10.1,14.6,10.3,14.7,10.6L14.7,10.6z
							 M14.6,10.6c-0.1-0.2-0.4-0.4-0.6-0.3c-0.2,0.1-0.3,0.4-0.2,0.6s0.4,0.3,0.6,0.3C14.6,11.1,14.7,10.9,14.6,10.6"/>
					</g>
					<g id="path641">
						<path d="M15.1,9.8l1,0.7l-0.2-0.8H16l0.2,1.2l-1-0.7l0.2,0.8h-0.1L15.1,9.8"/>
					</g>
					<g id="path643">
						<path d="M16.9,10.5l-0.1,0.3h-0.2l0.6-1.2l0.5,1.2h-0.2l-0.1-0.3H16.9L16.9,10.5z M17.2,9.9L17,10.4h0.4L17.2,9.9"/>
					</g>
					<g id="path645">
						<path d="M18.2,10.8l0.3,0.1V11L18,10.9l0.2-1.1h0.1L18.2,10.8"/>
					</g>
				</g>
				<g id="union">
					<g id="path648">
						<path d="M17.9,5.8l0.2,0.7c0,0.2,0.1,0.4,0.4,0.3c0.2-0.1,0.2-0.3,0.2-0.4l-0.2-0.7h0.1l0.2,0.8c0.1,0.3-0.1,0.5-0.3,0.6
							C18.2,7,18,6.8,17.9,6.6l-0.2-0.8L17.9,5.8"/>
					</g>
					<g id="path650">
						<path d="M19.2,5.4l1.2,0.7l-0.2-0.9h0.1l0.3,1.3l-1.2-0.7l0.2,0.9h-0.1L19.2,5.4"/>
					</g>
					<g id="path652">
						<path d="M21.4,6.1h-0.1L20.9,5H21L21.4,6.1"/>
					</g>
					<g id="path654">
						<path d="M23,4.7c0.1,0.3,0,0.7-0.3,0.9S22,5.7,21.8,5.3c-0.2-0.3-0.1-0.7,0.3-0.9C22.4,4.3,22.8,4.4,23,4.7z M22.8,4.8
							c-0.1-0.2-0.4-0.3-0.7-0.2C21.9,4.7,21.8,5,22,5.3c0.1,0.2,0.4,0.3,0.7,0.2C22.9,5.3,23,5,22.8,4.8"/>
					</g>
					<g id="path656">
						<path d="M23.1,3.8l1.3,0.4L24,3.5l0.1-0.1l0.6,1.2l-1.3-0.4L23.8,5h-0.1L23.1,3.8"/>
					</g>
				</g>
			</g>
		</g>
		<g id="eagle">
			<g id="claws">
				<g>
					<path d="M23.3,29.4c0,0-0.1,0-0.2-0.1C23.2,29.4,23.2,29.4,23.3,29.4z"/>
					<path d="M23.3,29.4c0.2,0,0.3-0.2,0.3-0.4C23.5,29.2,23.4,29.4,23.3,29.4z"/>
				</g>
			</g>
			<path fill="#785A3C" d="M43.9,13.2C43.9,13.1,43.9,13.1,43.9,13.2c0-0.3-0.2-0.7-0.5-0.9l0,0c0.1-0.1,0-0.2,0-0.3l0.1-0.1
				c0.1-0.2,0-0.5-0.6-0.9c-1.2-0.8-5.7-2.8-8.2-3.2c-0.3,0-0.6-0.1-0.9-0.1c-2-0.3-3.2-0.5-4.6,0.2c-0.7,0.3-1,0.6-1.3,0.8
				c-0.2,0.1-0.4,0.2-0.6,0.4c-0.4-0.4-1.2-0.9-2.2-1.2c-0.7-0.3-1.6-0.5-2.7-0.3c-0.7,0.1-1.2,0.4-1.5,0.8
				c-0.2,0.4-0.3,0.7-0.1,1.1c0.4,0.9,0.7,1.8,0.9,2.7c0.2,0.7,0.5,1.1,0.7,1.4c0.1,0.1,0.1,0.2,0.2,0.3c0.2,0.4,0.2,1.9,0.1,2.4
				c-0.3-0.1-2.2-0.4-3-0.5c0,0,0,0-0.1,0c0,0,0.7-0.2,0.8-0.3l0.1-0.1v-0.1c-1.3,0-2-1.9-3.6-1.6c-0.1,0-0.1,0-0.2,0
				c-0.2-0.1-1.1-0.5-1.8-0.1h-0.1c-0.3,0.1-0.6,0.4-0.8,0.8v0.1h0.1c0,0,0.3,0,0.4,0c0.2,0,0.4,0.1,0.5,0.1s0.1,0.2,0.2,0.3
				c0.1,0.2,0.3,0.6,0.6,0.8c0.1,0.1,0.2,0.1,0.3,0.2H16c-0.2,0-1.1-0.1-1.1-0.1c0.1,0.5,0.2,1.2,1.7,1.6c0.3,0,1.4,1.2,1.7,1.6
				c0,0.1,0.1,0.2,0.2,0.3C19,20,19.7,21,20.7,22l0,0c0.2,0.2,0.4,0.3,0.5,0.5c0.8,0.7,1.6,1.2,2.4,1.6c-0.4,0.1-0.5,1.7,0.1,2.5
				c0.1,0.2,0.2,0.3,0.4,0.4c-0.1,0.2,0,0.6-0.1,0.9l0,0c-0.2,0-0.6-0.2-0.8-0.3c-0.2-0.2-0.7-0.2-0.9,0c-0.1,0.1-0.1,0.1-0.1,0.2
				c-0.2,0.1-0.3,0.3-0.3,0.5c0.1-0.2,0.2-0.3,0.3-0.3c0,0.2,0.2,0.4,0.4,0.3c0.3-0.1,0.6-0.1,0.7,0.1c0,0.1-0.1,0.2-0.2,0.2
				L23,28.7c-0.1,0.1-0.1,0.2-0.2,0.3c-0.1,0.1-0.1,0.2-0.1,0.3c-0.1,0.2-0.1,0.3-0.1,0.4c0.1-0.2,0.2-0.2,0.2-0.3
				c0.3,0.1,0.5-0.1,0.6-0.4c0.1-0.4,0.2-0.4,0.5-0.5c0.1,0,0.2,0,0.3,0c0.1,0,0.2,0.1,0.3,0.2l0.1,0.1c0,0,0,0,0,0.1l0.1,0.1
				c0.1,0.2,0.4,0.2,0.6,0.2c0.1,0,0.1,0,0.2-0.1c0.1,0,0.3,0,0.3,0.3c0.1-0.2,0-0.5-0.3-0.6l0,0c0.1-0.1,0.1-0.2,0-0.3
				s-0.2-0.1-0.4-0.1c-0.1,0-0.2,0-0.3,0c-0.2-0.1-0.2-0.1-0.5-0.5c-0.1-0.1-0.1-0.1-0.2-0.2c0,0.1,0.1-0.2,0.2-0.4
				c0,0,1.5,0.3,1.8,0.2c0.2-0.2,0.4-0.7,0.4-0.8v-0.1c0.2,0.6,0.4,1.5,0.5,1.7c0.1,0.1,0.4,0.2,0.5,0.2v0.1c0,0.3-0.1,1.2-0.2,1.3
				c-0.2,0-0.6-0.2-0.8-0.3c-0.2-0.2-0.7-0.2-0.9,0c-0.1,0.1-0.1,0.2-0.1,0.2c-0.2,0.1-0.3,0.3-0.2,0.5c0.1-0.2,0.3-0.2,0.4-0.2
				l0.1,0.1c0.1,0.1,0.2,0.2,0.4,0.1c0.2-0.1,0.5-0.1,0.6,0l0,0c0,0.1,0,0.4-0.2,0.6c-0.1,0.1-0.2,0.3-0.2,0.4
				c0,0.1,0.1,0.2,0.1,0.2l0.1,0.1c0,0.1-0.1,0.3-0.1,0.3c0.1-0.2,0.2-0.2,0.2-0.3c0.1,0,0.3,0,0.3-0.1c0.1,0,0.2-0.2,0.2-0.4
				c0.1-0.3,0.1-0.4,0.1-0.5c0,0,0.1-0.1,0.2-0.1c0.3-0.1,0.7,0,0.9,0.1c0.6,0.2,1.3,0.1,1.3,0.1c0-0.1,0.3-0.1,0.4,0.2
				c0-0.2-0.4-0.6-0.5-0.7C29.4,30,29,30,28.9,30h-0.1c-0.2,0-0.6,0.1-0.9-0.3c-0.1-0.1-0.1-0.2-0.1-0.3c0-0.3,0.2-0.5,0.2-0.7
				c0.1,0.1,0.4,0.2,0.8,0.2c0.1,0,0.2,0,0.2-0.1h0.1c0.4-0.1,0.4-0.5,0.4-0.8c0-0.1,0-0.2,0-0.4c0-0.1,0-0.6-0.2-1
				c0.9,0.9,2.6,2.8,2.9,3.3c0.2,0.1,0.3,0.1,0.4,0.1s0.1,0,0.1-0.1c0.1,0.1,0.4,0.2,0.5,0.1c0.1-0.1,0.1-0.1,0.1-0.1
				c0.2,0.2,0.5,0.3,0.7,0.2c0,0,0.1,0,0.1-0.1c0.1,0,0.1-0.1,0.1-0.1c0.1,0.1,0.2,0.2,0.3,0.2c0.1,0.1,0.2,0.1,0.2,0.1
				c0.2,0,0.3-0.1,0.3,0c0.2,0.1,0.4,0.2,0.6,0.1c0.1,0,0.2-0.1,0.2-0.2c0.1,0.2,0.3,0.3,0.5,0.2c0.1-0.1,0.2-0.2,0.2-0.5
				c-0.1-0.6-1.9-4.7-3.7-6.8h0.1l0.3,0l0,0l0.1-0.1c0.1-0.1,0-0.3-0.1-0.5v-0.1l0.1-0.1c0.1-0.2-0.1-0.8-0.5-1.2
				c0.1-0.2,0.1-0.3,0-0.5l0,0c0.2-0.1,0.2-0.4,0.1-0.7c0.1-0.1,0.1-0.3,0.1-0.4l0,0c0.6,0.5,1.3,1.1,1.4,1.2h0.1
				c0.2,0.1,0.4,0.1,0.6,0.1c0.1-0.1,0.1-0.3,0-0.5c0.1,0,0.1,0,0.2-0.1l0,0c0.2,0.2,0.3,0.3,0.5,0.4c0.3,0.2,0.5,0.4,0.7,0.2
				c0.2-0.1,0.1-0.4,0.1-0.6l0,0c0.1-0.1,0.2-0.3-0.1-0.8c0.1-0.1,0.1-0.2,0-0.4c0,0,0,0,0.1,0c0.2-0.1,0-0.7-0.1-0.9
				c-0.2-0.2-0.9-1.3-1.5-2c0.2,0,0.3-0.1,0.4-0.2l0,0c0.3-0.1,0.4-0.4,0.4-0.6c0.4,0.2,1.1,0.3,1.3-0.1c0,0,0,0,0.1,0
				c0.1-0.1,0.2-0.2,0.2-0.4c0,0,0-0.1,0-0.2l0,0c0.8,0.3,1.3,0.5,1.7,0.2c0.1-0.1,0.1-0.1,0.2-0.2c0.1,0,0.1-0.1,0.1-0.1
				c0.1-0.1,0.1-0.3,0.1-0.4c0.6,0.3,1.7,0.6,2.3,0.6c0.4,0.1,0.6,0,0.6-0.2c0.2-0.1,0.2-0.2,0.1-0.4l0,0c0.7,0.2,0.9,0.1,1-0.1
				c0,0,0.1,0,0.1-0.1c0.1-0.1,0.1-0.2,0-0.4C43.9,13.4,43.9,13.3,43.9,13.2L43.9,13.2z"/>
		</g>
	</g>
</g>
<g>
	<path opacity="0.2" enable-background="new    " d="M10.4,74.2V25.8c0-12.1,8.2-22.7,19.8-25.8H0v99.9h30.2
		C18.5,96.8,10.4,86.2,10.4,74.2z"/>
	<path opacity="0.1" fill="#FFFFFF" enable-background="new    " d="M89.6,25.8v48.5c0,12.1-8.2,22.7-19.8,25.8H100V0H69.8
		C81.5,3.1,89.6,13.7,89.6,25.8z"/>
</g>
</svg>
