<?xml version="1.0" encoding="utf-8"?>
<!-- Generator: Adobe Illustrator 23.0.0, SVG Export Plug-In . SVG Version: 6.00 Build 0)  -->
<svg version="1.0"
	 id="svg8" inkscape:version="0.91 r13725" sodipodi:docname="drawing.svg" xmlns:cc="http://creativecommons.org/ns#" xmlns:dc="http://purl.org/dc/elements/1.1/" xmlns:inkscape="http://www.inkscape.org/namespaces/inkscape" xmlns:rdf="http://www.w3.org/1999/02/22-rdf-syntax-ns#" xmlns:sodipodi="http://sodipodi.sourceforge.net/DTD/sodipodi-0.dtd" xmlns:svg="http://www.w3.org/2000/svg"
	 xmlns="http://www.w3.org/2000/svg" xmlns:xlink="http://www.w3.org/1999/xlink" x="0px" y="0px" viewBox="0 0 100 100"
	 enable-background="new 0 0 100 100" xml:space="preserve">
<sodipodi:namedview  bordercolor="#666666" borderopacity="1.0" fit-margin-bottom="0" fit-margin-left="0" fit-margin-right="0" fit-margin-top="0" id="base" inkscape:current-layer="layer1" inkscape:cx="317.94689" inkscape:cy="-171.70357" inkscape:document-units="mm" inkscape:guide-bbox="true" inkscape:pageopacity="0.0" inkscape:pageshadow="2" inkscape:snap-global="false" inkscape:window-height="851" inkscape:window-maximized="1" inkscape:window-width="1440" inkscape:window-x="0" inkscape:window-y="1" inkscape:zoom="0.4061262" pagecolor="#ffffff" showgrid="false" showguides="true">
	<sodipodi:guide  id="guide3391" orientation="1,0" position="440.14576,204.74756"></sodipodi:guide>
	<sodipodi:guide  id="guide3483" orientation="1,0" position="32.944857,-22.412788"></sodipodi:guide>
</sodipodi:namedview>
<defs>
	
	
		<inkscape:perspective  id="perspective175" inkscape:persp3d-origin="334.99998 : 153 : 1" inkscape:vp_x="0 : 229.5 : 1" inkscape:vp_y="0 : 1000 : 0" inkscape:vp_z="669.99997 : 229.5 : 1" sodipodi:type="inkscape:persp3d">
		</inkscape:perspective>
	
		<inkscape:perspective  id="perspective2985" inkscape:persp3d-origin="0.49999997 : 0.33333333 : 1" inkscape:vp_x="0 : 0.5 : 1" inkscape:vp_y="0 : 1000 : 0" inkscape:vp_z="0.99999995 : 0.5 : 1" sodipodi:type="inkscape:persp3d">
		</inkscape:perspective>
</defs>
<g id="layer1" transform="translate(-327.04501,-4.7448405)" inkscape:groupmode="layer" inkscape:label="Layer 1">
	<path id="path828" inkscape:connector-curvature="0" fill="none" stroke="#000000" stroke-width="0.2646" d="M365.8-172.3
		L365.8-172.3L365.8-172.3L365.8-172.3L365.8-172.3"/>
	<g id="g3485" transform="matrix(0.92981285,0,0,0.92981285,88.032992,-105.73582)">
		<path id="path4347" inkscape:connector-curvature="0" fill-rule="evenodd" clip-rule="evenodd" fill="#0A1F62" d="M318.6,166.5
			l7.8-2.3l3.5,0.1v2.3l-4.9-0.2l-4.2,2l-1.8-0.3L318.6,166.5z"/>
		
			<path id="path4345" inkscape:connector-curvature="0" fill-rule="evenodd" clip-rule="evenodd" fill="#0A1E65" stroke="#000000" stroke-width="0.2822" d="
			M290.5,167.1l5.9-3.2l0.6,2.5l-6.1,3.4l0.8,2.3l4.4-3.1l6.4-3l3.3,2.5l-6.8,1.8l-8.9,6.6l-1-3l2-1.8l0.1-1l-0.8-1.8L290.5,167.1z"
			/>
		<rect id="rect3447" x="257.1" y="118.8" fill="#FFFFFF" width="107.4" height="107.5"/>
		<rect id="rect3443" x="337.2" y="118.8" fill="#D80025" width="27.4" height="107.5"/>
		<rect id="rect3445" x="257.1" y="118.8" fill="#0A1F62" width="27.4" height="107.5"/>
		<path id="path871" inkscape:connector-curvature="0" fill="#69310B" d="M315.9,149.7c-0.1,0-0.2,0-0.2,0l0,0c-0.3,0-0.6,0-0.9,0.1
			c-1.4,0.2-1.8,0.4-2.6,1.3c-0.8,0.8-0.9,1.3-0.7,2.8c0.1,1.3,0.1,2-0.1,2.6c-0.1,0.3-0.2,0.3-0.6,0.3c-0.3,0-0.9,0-1.4,0.1
			l-0.9,0.1l-0.3-0.7c-0.2-0.5-0.3-1-0.4-1.4c-0.1-0.8-0.5-1.8-0.9-2.2c-0.6-0.5-2-1.2-2.8-1.4c-0.7-0.2-1.1-0.2-2.3-0.1
			c-1.5,0.1-3.1,0.3-3.1,0.5c0,0.1,1.1,0.3,1.8,0.2l0.7-0.1h-0.6c-0.3,0-0.7,0-0.9,0c-0.3,0-0.3-0.1-0.1-0.2
			c0.4-0.2,2.1-0.4,3.1-0.3c1.3,0.1,2,0.3,3.1,1c0.8,0.5,1,0.6,1.3,1.1c0.4,0.6,0.6,1.3,0.6,2c0,0.4,0.3,1.3,0.7,2
			c0.2,0.3,0.3,0.6,0.3,0.7c0,0.3-0.4,0.3-0.6,0c-0.1-0.1-0.2-0.2-0.3-0.1c-0.2,0.1-0.1,0.3,0,0.3s0.2,0.1,0.2,0.3
			c0.1,0.3,0.1,0.4-0.1,0.6c-0.2,0.3-0.2,0.3,0,0.5c0.4,0.3,0.3,2.3-0.1,2.1c0,0-0.2,0.1-0.3,0.2c-0.2,0.3-0.4,0.4-0.5,0.2
			c0-0.1-0.1-0.1-0.3,0.1c-0.2,0.2-0.2,0.2-0.4,0c-0.2-0.1-0.3-0.1-0.4,0s-0.3,0.1-0.3,0.1c-0.2-0.1,0,0.8,0.2,1.3
			c0.4,1,0.9,1.4,1.5,1.3c0.4,0,1.4,0.3,1.9,0.6c0.2,0.1,0.5,0.3,0.7,0.4c0.2,0.1,0.5,0.2,0.7,0.4c0.3,0.2,0.9,0.4,3,0.7
			c0.8,0.1,1.6,0.4,1.7,0.7c0,0,0,0.1-0.1,0.2c0.1-0.1,0.3-0.2,0.5-0.2c-0.1,0-0.2-0.2-0.3-0.4c-0.2-0.4-0.2-0.4-0.1-0.4
			c0.2,0,0.3,0.2,0.4,0.6c0,0.1,0.1,0.2,0.1,0.1c0.1-0.3-0.3-0.8-0.7-1c-0.2-0.1-0.5-0.2-0.6-0.3s-0.2-0.2-0.3-0.1
			c0,0,0.2,0.3,0.4,0.6c0.5,0.5,0.6,0.7,0.1,0.4c-0.2-0.1-0.6-0.2-0.9-0.3c-0.8-0.2-1.4-0.5-1.8-0.9c-0.2-0.2-0.3-0.3-0.2-0.1
			c0.1,0.1,0.2,0.3,0.3,0.4c0.3,0.3,0.1,0.4-0.2,0.1c-0.2-0.1-0.4-0.2-0.5-0.1c-0.1,0.1-0.3,0-0.6-0.4c-0.2-0.3-0.4-0.5-0.4-0.6
			s0-0.1-0.1-0.1s-0.1,0.1,0,0.2c0.1,0.1,0.1,0.2,0.1,0.3c-0.1,0.1-0.3-0.3-0.5-0.8c-0.1-0.4-0.2-0.5-0.2-0.2c0,0.4-0.2,0.3-0.2-0.2
			c0-0.4-0.2-0.6-0.2-0.3c0,0.2,0,0.2-0.1,0c-0.1-0.3,0.2-1,0.6-1.5c0.5-0.5,1.2-1,1.6-1c0.5,0,0.8,0.2,1.1,0.6
			c0.3,0.5,0.6,0.8,1.2,1.2c0.3,0.2,0.7,0.6,0.9,0.8c0.3,0.4,0.4,0.8,0.3,1s-0.8,0-1-0.3s-1.2-1.1-1.1-0.9c0.1,0.2-0.1,0.2-0.2,0
			c-0.2-0.2-0.1,0,0,0.3c0.1,0.1,0.2,0.2,0.3,0.2c0.1,0,0.1,0.1,0.1,0.2c0,0.3,0.3,0.6,0.6,0.5c0.1,0,0.3,0,0.4,0.1s0.3,0.1,0.6,0.1
			c0.3,0,0.5,0,0.5,0.1s-0.1,0.1-0.5,0.1c-0.3,0-0.3,0-0.1,0.1c0.1,0.1,0.4,0.1,0.6,0.1c0.6-0.1,1.2,0.8,1.1,1.5
			c0,0.3,0,0.3,0.1,0.1c0.3-0.5-0.1-1.5-0.6-1.7c-0.2-0.1-0.3-0.3-0.3-0.6c-0.1-0.8-0.3-1-1.3-1.7c-0.5-0.3-1-0.8-1.1-1
			c-0.2-0.4-0.7-1.4-1-2.3c-0.1-0.3-0.3-0.7-0.5-1s-0.3-0.5-0.3-0.5s0.2-0.2,0.4-0.3c0.2-0.1,0.4-0.3,0.4-0.3c0-0.1,0.1-0.1,0.1-0.1
			c0.2,0,0.7-0.7,0.7-1c0-0.2,0-0.3,0.1-0.3s0.1-0.1,0.1-0.5c0-0.3,0-0.5,0.1-0.5s0.1-0.1,0.2-0.1c0-0.1-0.1-0.1-0.2-0.1
			c-0.2,0-0.3,0.1-0.2,0.2c0.2,0.7,0.2,0.7,0,0.7c-0.1,0-0.2,0-0.2,0.2c0,0.3-0.1,0.6-0.2,0.6s-0.2,0.1-0.2,0.3
			c-0.1,0.1-0.1,0.2-0.2,0.2c0,0-0.1,0-0.2,0.1c0,0.1-0.1,0.2-0.2,0.2s-0.8,0.6-0.8,0.7c0,0,0.1,0.2,0.2,0.2c0.2,0.2,0.6,1,0.9,1.8
			c0.1,0.4,0.2,0.8,0.2,0.8s-0.1,0-0.2-0.1c-0.4-0.1-0.7-0.1-1.3,0.2c-0.7,0.4-1.4,1.1-1.6,1.7l-0.2,0.5l-0.1-0.5
			c-0.1-0.3-0.2-0.4-0.2-0.4c-0.1,0.1-0.2-0.5-0.1-0.9c0-0.2,0.1-0.8,0.1-1.3c0-0.7,0-0.9-0.2-1.1c-0.2-0.2-0.2-0.2,0-0.5
			c0.1-0.1,0.2-0.3,0.2-0.3c-0.1-0.1,1.2-0.3,1.8-0.3c0.4,0,0.4,0,0.2-0.2c-0.2-0.1-0.2-0.2,0.2-0.4c1-0.7,1.2-1.5,1-3.8
			c-0.2-1.4-0.1-1.7,0.6-2.5c0.8-1,1.3-1.3,2.8-1.5c2-0.2,2.7,0,8.2,1.8c2.3,0.8,2.6,0.9,2.5,1c0,0-0.2,0.1-0.3,0.1
			c-0.4,0-2.3-0.5-3-0.9c-0.5-0.3-0.8-0.3-1.4-0.3c-0.5,0-1-0.1-1.3-0.2c-0.3-0.1-0.7-0.1-1.1-0.1c-0.3,0-0.9,0-1.1-0.1
			c-0.3-0.1-0.6-0.1-0.9,0c-0.2,0.1-0.3,0.1-0.2,0.1c0.1,0,0.3,0,0.5,0s0.8,0,1.3,0.1c0.6,0,1.3,0.1,1.6,0.2s0.9,0.2,1.3,0.2
			c0.5,0,0.9,0.1,1.1,0.2c0.4,0.2,2.5,0.9,3,1s0.9-0.2,0.7-0.4c-0.2-0.2-1.7-0.7-5-1.8C318.3,150,317.1,149.7,315.9,149.7
			L315.9,149.7z M315.8,151.1c-0.2,0-0.2,0.2,0.1,0.4c0.2,0.2,0.2,0.2,0.1,0.4c-0.1,0.1-0.1,0.2,0,0.2c0.3,0,0.2-0.4,0-0.6
			C315.8,151.3,315.8,151.2,315.8,151.1C316,151.1,315.9,151.1,315.8,151.1L315.8,151.1L315.8,151.1z M315,151.2L315,151.2
			c-0.1,0-0.1,0.1-0.1,0.1c0,0.1,0.1,0.3,0.3,0.4c0.6,0.6,0.2,0.7-0.5,0.2c-0.4-0.3-0.6-0.3-0.6-0.2c-0.1,0.1,0,0.2,0.2,0.5
			c0.4,0.4,0.4,0.6,0.1,0.5c-0.9-0.2-0.9-0.2-0.8,0c0,0.1,0.1,0.3,0.1,0.4c0,0.1,0.1,0.2,0.1,0.2c0.1,0,0.1-0.1,0-0.2
			c0-0.1-0.1-0.2-0.1-0.3c-0.1-0.1,0-0.2,0.1-0.1c0.3,0.1,0.9,0.1,1,0c0-0.1-0.1-0.3-0.2-0.4c-0.4-0.5-0.3-0.5,0.3,0
			c0.5,0.4,0.8,0.4,0.8,0c0-0.1-0.1-0.3-0.3-0.5c-0.3-0.3-0.4-0.4-0.1-0.3c0.2,0.1,0.2,0.1,0.1-0.1
			C315.2,151.3,315.1,151.2,315,151.2L315,151.2z M298.3,151.8L298.3,151.8c-0.1,0-1.1,0.2-2.4,0.3s-2.5,0.3-2.8,0.4
			c-0.5,0.2-0.7,0.4-0.6,0.6c0.1,0.2,2.1,0,4-0.4c0.4-0.1,1.1-0.2,1.5-0.4c0.8-0.2,0.8-0.2,0.5-0.2c-0.2,0-0.3-0.1-0.3-0.1
			C298.3,152,298.3,151.9,298.3,151.8L298.3,151.8L298.3,151.8z M301.6,151.8c-0.2,0-0.4,0-0.5,0.1s0.1,0.1,0.4,0.1s0.5,0,0.5,0.1
			s0,0.1,0.1,0.1s0.2-0.1,0.2-0.2c0-0.1-0.1-0.2-0.5-0.2C301.7,151.8,301.7,151.8,301.6,151.8L301.6,151.8z M314.5,151.6l0.3,0.3
			c0.3,0.3,0.3,0.3,0.3,0.2c0,0-0.1-0.1-0.3-0.3L314.5,151.6L314.5,151.6z M317.1,151.6c-0.1,0-0.2,0-0.2,0.1
			c-0.2,0.1-0.2,0.1,0.2,0.3c1.8,0.6,2.9,1.2,4,1.7c1.3,0.7,1.4,0.8,1.5,0.6c0.2-0.3-0.6-0.8-3.3-1.9c-0.8-0.3-1.5-0.6-1.6-0.6
			s-0.3,0-0.5-0.1C317.2,151.6,317.1,151.6,317.1,151.6L317.1,151.6z M303.2,152c-0.1,0-0.2,0-0.3,0.1c-0.2,0.1-0.2,0.1-0.1,0.1
			s0.2,0,0.2,0.1s0.2,0.1,0.4,0.1c0.2,0,0.4,0.1,0.4,0.1s0.2,0.1,0.4,0.1c0.2,0,0.4,0.1,0.4,0.2c0,0.1,0,0.2,0.1,0.2
			c0.2,0,0.1-0.3-0.2-0.4c-0.2-0.1-0.3-0.1-0.3-0.2c0,0-0.2-0.1-0.4-0.1c-0.2,0-0.4-0.1-0.3-0.2C303.3,152,303.3,152,303.2,152
			L303.2,152z M299.6,152.1c-0.1,0-0.3,0-0.5,0.1c-0.4,0.1-1.4,0.4-2.3,0.6c-1.6,0.4-2,0.5-2,0.7c0,0.1,0.1,0.1,0.2,0.1
			c0.3,0.1,0.6,0,2-0.4c0.8-0.2,1.9-0.6,2.5-0.7c0.7-0.2,1-0.3,0.7-0.3c-0.2,0-0.3-0.1-0.3-0.1C299.7,152.1,299.6,152.1,299.6,152.1
			L299.6,152.1z M318.8,151.7L318.8,151.7c-0.2,0.1-0.2,0.1,1.2,0.7c0.7,0.3,1.7,0.8,2.2,1.1c0.9,0.5,1.5,0.6,1.5,0.3
			c0-0.2-0.4-0.5-1.8-1.2c-0.6-0.3-1.3-0.6-1.6-0.6c-0.3,0-0.7-0.1-1-0.2C319.1,151.7,318.9,151.7,318.8,151.7z M301.1,152.3
			c-0.5,0-1.7,0.3-3.4,0.9c-1.3,0.4-1.4,0.5-1.2,0.7c0.2,0.2,0.4,0.2,1.1-0.1c0.3-0.1,0.8-0.3,1.1-0.4s1.1-0.3,1.7-0.6
			c1-0.4,1.1-0.4,0.8-0.5C301.3,152.3,301.2,152.3,301.1,152.3L301.1,152.3z M313.7,152.1C313.6,152.1,313.6,152.1,313.7,152.1
			c-0.1,0.1,0.1,0.2,0.2,0.3c0.4,0.2,0.5,0.1,0.2-0.1C313.9,152.2,313.8,152.1,313.7,152.1z M316.6,152.1c-0.1,0-0.1,0-0.1,0
			c-0.1,0.1,0.2,0.2,0.9,0.5c0.6,0.2,1.7,0.7,2.4,1.1s1.5,0.7,1.6,0.7c0.3,0.1,0.3,0,0.4-0.1c0-0.2-2-1.2-3.1-1.6
			c-0.5-0.2-1.2-0.4-1.5-0.6C316.9,152.1,316.7,152.1,316.6,152.1L316.6,152.1z M321.6,152.1c-0.1,0,0.3,0.3,0.9,0.6
			s1.1,0.6,1.3,0.7l0,0c0.2,0.2,1.2,0.1,1.2-0.1c0-0.1-0.6-0.3-1.3-0.5s-1.4-0.5-1.5-0.6C321.9,152.1,321.7,152.1,321.6,152.1
			L321.6,152.1L321.6,152.1z M302.1,152.6c-0.2,0-0.6,0.2-1.5,0.5c-0.8,0.3-1.6,0.5-1.8,0.6c-0.8,0.2-1.3,0.6-0.9,0.7
			c0.1,0,0.3,0,0.5,0c0.4,0,4.3-1.5,3.9-1.5C302.3,152.8,302.2,152.7,302.1,152.6C302.3,152.6,302.2,152.5,302.1,152.6L302.1,152.6z
			 M292.1,152.8c-0.5,0-4.9,1.4-5.2,1.6c0,0,0,0.1,0,0.2c0.2,0.2,1.4,0,2.1-0.2c0.8-0.3,2-0.7,2.7-0.8c0.6-0.1,0.7-0.3,0.2-0.3
			c-0.3,0-0.3,0-0.1-0.1C292.1,153,292.2,152.8,292.1,152.8L292.1,152.8z M303.4,152.8c-0.2,0-1.6,0.5-3.3,1.2
			c-0.3,0.1-0.5,0.2-0.5,0.2s-0.2,0.1-0.4,0.2l-0.4,0.2l0.2,0.2c0.3,0.3,0.5,0.2,2.2-0.7c0.8-0.4,1.6-0.8,1.9-0.8
			c0.6-0.1,0.8-0.3,0.3-0.2c-0.2,0-0.2,0-0.1-0.1C303.5,152.9,303.5,152.8,303.4,152.8L303.4,152.8L303.4,152.8z M315.9,152.5
			L315.9,152.5c-0.2,0.1-0.1,0.1,0.2,0.3c0.5,0.2,2,1,3.2,1.6c0.8,0.5,1.3,0.6,1.4,0.2C320.8,154.3,316.5,152.4,315.9,152.5
			L315.9,152.5z M315.3,152.8L315.3,152.8c-0.4,0.1-0.3,0.1,0.3,0.4c0.4,0.2,1.1,0.6,1.7,1c0.6,0.3,1.2,0.7,1.3,0.7
			c0.4,0.1,0.4,0.1,0.5,0c0.2-0.2,0-0.4-1-0.9C316.9,153.3,315.7,152.8,315.3,152.8L315.3,152.8z M293.7,153.4h-0.1
			c-0.2,0-0.7,0.1-1.4,0.2c-1.3,0.3-2.2,0.5-3.1,0.9c-0.8,0.3-0.9,0.4-0.6,0.6c0.4,0.2,1.9-0.1,3.2-0.5c0.7-0.2,1.5-0.5,2-0.6
			s0.7-0.2,0.7-0.3s-0.1-0.1-0.3-0.1c-0.2,0.1-0.3,0.1-0.2,0C293.9,153.4,293.8,153.4,293.7,153.4L293.7,153.4z M305.2,153.1
			L305.2,153.1c-0.1,0-0.1,0.1,0,0.1s0,0.1,0,0.1c-0.2,0-0.1,0.2,0.2,0.3c0.4,0.1,0.4,0.1,0.2,0c-0.1-0.1-0.2-0.2-0.2-0.3
			C305.3,153.2,305.2,153.1,305.2,153.1L305.2,153.1z M303.8,153.3c-0.1,0-0.1,0-0.2,0c-0.7,0.1-3.5,1.4-3.5,1.7
			c0,0.1,0.1,0.1,0.2,0.2c0.2,0.2,0.6,0,1.5-0.5c0.4-0.2,1.1-0.5,1.5-0.7c1-0.3,1-0.3,0.9-0.6C304.1,153.4,304,153.3,303.8,153.3
			L303.8,153.3z M314.3,153.1c-0.2,0-0.3,0-0.3,0.1s0.1,0.2,0.2,0.2c0.3,0.1,2,1,2.7,1.4c0.7,0.5,1.3,0.6,1.3,0.2
			c0-0.2-0.3-0.5-1.8-1.3c-1-0.6-1.4-0.7-1.8-0.7C314.4,153.1,314.3,153.1,314.3,153.1L314.3,153.1z M296.1,153.7
			c-0.1,0-0.4,0.1-0.8,0.2c-1,0.3-0.9,0.3-0.8,0.1c0.1-0.1,0.1-0.2,0.1-0.2c-0.6,0-3.7,1.1-4,1.4c-0.2,0.1-0.2,0.2,0.1,0.3
			c0.4,0.2,0.8,0.1,1.7-0.2c0.5-0.2,1.4-0.5,2.2-0.8c0.8-0.3,1.4-0.6,1.5-0.6C296.2,153.8,296.2,153.7,296.1,153.7L296.1,153.7z
			 M313.3,153.4L313.3,153.4c-0.1,0.1-0.1,0.2,0,0.3c0.2,0.3,0.2,0.3-0.2,0.3c-0.3,0-0.4,0.1-0.1,0.3c0.1,0.1,0.1,0.2,0.1,0.2
			c0,0.1-0.1,0.1-0.1,0.1c-0.1-0.1-0.2,0.2-0.1,0.3h0.1c0-0.1,0.1-0.1,0.2-0.1c0.2,0.1,0.2-0.3,0-0.6c-0.2-0.2-0.2-0.2,0.1-0.2
			c0.2,0.1,0.3,0,0.3-0.2c0-0.1-0.1-0.3-0.1-0.4C313.4,153.5,313.3,153.5,313.3,153.4c0.1,0.1,0.2,0.1,0.3,0.2
			c0.1,0.1,0.1,0.1,0.2,0C313.8,153.5,313.5,153.3,313.3,153.4L313.3,153.4z M325.7,153.2h-0.1c-0.2,0-0.4,0.1-0.4,0.1
			s0.2,0.1,0.4,0.2c0.3,0.1,0.6,0.2,0.8,0.3c0.8,0.3,3.2,1.2,4.2,1.5c0.6,0.2,1.8,0.6,2.6,1s1.6,0.6,1.7,0.6c0.2,0,0.2-0.2,0.1-0.3
			c-0.2-0.2-1.9-1.1-2.5-1.3c-0.3-0.1-0.7-0.3-0.9-0.4c-0.4-0.2-3.3-1.2-4.7-1.6C326.5,153.3,326.1,153.2,325.7,153.2L325.7,153.2z
			 M305.7,153.8C305.6,153.8,305.7,153.8,305.7,153.8c0.1,0.2,0,0.2-0.1,0.2c-0.2,0-0.2,0.2,0,0.3s0.2,0.1,0.2-0.2
			C305.8,154,305.8,153.9,305.7,153.8L305.7,153.8z M304.7,153.9h-0.1c-0.1,0-0.5,0.1-0.8,0.2c-0.7,0.2-1.4,0.5-2.2,1
			c-0.5,0.3-0.7,0.5-0.5,0.7s0.8-0.1,2-0.7c0.5-0.3,1-0.5,1.3-0.6c0.5-0.1,0.5-0.1,0.5-0.4C304.8,153.9,304.8,153.9,304.7,153.9
			L304.7,153.9z M314,153.7L314,153.7c-0.2,0.1-0.1,0.3,0.4,0.6c0.3,0.2,0.9,0.6,1.3,0.9l0,0c0.5,0.4,0.9,0.5,1.1,0.5
			c0.4,0,0.4-0.2,0-0.6C316.4,154.8,314.3,153.7,314,153.7L314,153.7L314,153.7z M296.3,154.1c-0.2,0-0.5,0.1-1.1,0.3
			c-2.2,0.8-2.5,1-2.2,1.2s0.7,0.1,2.4-0.6c1.8-0.7,2.3-1,1.5-0.8C296.6,154.3,296.4,154.3,296.3,154.1
			C296.5,154.2,296.4,154.1,296.3,154.1L296.3,154.1z M324.8,153.7c-0.1,0-0.2,0-0.3,0.1c-0.6,0.2-0.7,0.3-0.4,0.4
			c0.2,0,0.6,0.2,1.1,0.4c0.8,0.3,2,0.8,6,2.1c1.7,0.6,2.3,0.7,2.4,0.4c0.1-0.2-0.8-0.6-3.7-1.5c-1.5-0.5-3.3-1.1-3.9-1.4
			C325.4,153.7,325.1,153.6,324.8,153.7L324.8,153.7z M297.6,154.4c-0.2,0-0.6,0.2-1.8,0.7c-1.3,0.5-1.6,0.7-1.6,0.9
			s0.9,0.2,1.5-0.1c2.1-0.8,2.8-1.1,2.8-1.2c0-0.1-0.1-0.1-0.4-0.1C297.9,154.6,297.7,154.5,297.6,154.4
			C297.7,154.5,297.7,154.4,297.6,154.4L297.6,154.4z M306,154.3c0,0-0.1,0,0,0.1c0,0.1,0,0.1-0.1,0.1s0,0.1,0.1,0.3
			c0.2,0.2,0.3,0.3,0.1,0.4c-0.1,0.2-0.1,0.2,0.1,0.4s0.2,0.3,0.2,0.5s0,0.3,0.2,0.4c0.2,0.1,0.2,0.2,0.1,0.2
			c-0.2,0.2-0.1,0.5,0,0.5s0.1,0,0.1,0.1v0.2c0,0.2,0.2,0.1,0.3-0.1c0-0.1,0-0.1-0.1-0.1c-0.1,0.1-0.1,0-0.1-0.2s0-0.3-0.1-0.3
			c-0.2,0-0.2,0-0.1-0.2s0.1-0.2-0.1-0.3c-0.2-0.2-0.2-0.2,0-0.3c0.1-0.1,0.1-0.2,0.1-0.2c-0.1,0-0.2-0.1-0.3-0.2
			c-0.2-0.2-0.2-0.2,0-0.4s0.2-0.2-0.1-0.4c-0.3-0.2-0.3-0.2-0.1-0.3c0.1-0.1,0.1-0.1,0-0.2C306.1,154.4,306,154.3,306,154.3
			L306,154.3z M305.3,154.5c-0.1,0-0.1,0-0.2,0c-0.6,0-1.6,0.4-1.9,0.7c-0.4,0.3-0.5,0.6-0.5,0.7c0.1,0.1,0.6,0.1,0.7,0
			c0.1-0.2,0.9-0.6,1.5-0.7c0.7-0.1,1.1-0.3,0.6-0.3c-0.3,0-0.3,0-0.1-0.2C305.4,154.5,305.4,154.5,305.3,154.5L305.3,154.5z
			 M313.9,154.3C313.9,154.3,313.8,154.3,313.9,154.3c-0.1,0-0.1,0-0.1,0c-0.3,0.1-0.1,0.4,0.3,0.8c0.2,0.2,0.6,0.6,0.9,0.8
			c0.3,0.3,0.5,0.5,0.8,0.4c0.3,0,0.3-0.1,0.3-0.2c0-0.3-0.5-0.8-1.2-1.3C314.3,154.5,314,154.4,313.9,154.3L313.9,154.3z
			 M323.4,154.2c-0.1,0-0.1,0-0.2,0s-0.2,0-0.2,0.1c0,0,0.3,0.2,0.7,0.4c0.4,0.1,1,0.4,1.5,0.6c2.7,1.1,5.1,2.1,5.7,2.2
			c0.4,0.1,0.7,0.1,0.8,0.1c0.1,0,0.2-0.1,0.2-0.1s0.1-0.1,0.1-0.2c0-0.3-0.3-0.4-2.1-1c-2-0.7-4.3-1.5-4.8-1.7
			C324.5,154.4,323.8,154.2,323.4,154.2L323.4,154.2z M298.8,155c-0.2,0-0.7,0.1-1.4,0.4c-1.4,0.5-1.7,0.7-1.5,0.9
			c0.1,0.1,0.8-0.1,2.3-0.5c1.3-0.4,1.9-0.7,1.2-0.6c-0.3,0-0.4,0-0.4-0.1C299,155,298.9,155,298.8,155z M322.6,154.5
			c-0.1,0-0.1,0-0.1,0c-0.1,0-0.2,0-0.2,0.1c0.1,0.1,2,1.1,2.2,1.1c0.1,0,0.7,0.3,1.3,0.6s1.5,0.7,2,0.9c0.7,0.3,1.1,0.4,1.4,0.4
			c0.9,0,0.5-0.3-1.5-1.1c-1.1-0.4-2.2-0.9-2.4-1C323.8,154.9,322.9,154.5,322.6,154.5L322.6,154.5z M321.8,154.7
			C321.7,154.7,321.7,154.7,321.8,154.7c-0.3,0.1-0.3,0.1,0.5,0.7c0.5,0.3,1.5,0.9,2.2,1.3c1.3,0.7,1.8,0.8,2,0.5
			c0.1-0.1,0-0.2-0.6-0.6c-0.4-0.2-1-0.5-1.4-0.7c-0.4-0.1-1.1-0.5-1.6-0.8C322.4,154.9,322,154.7,321.8,154.7L321.8,154.7z
			 M305.7,155.2c-0.4,0-1.7,0.4-2,0.6c-0.3,0.2-0.4,0.5-0.2,0.7c0.1,0.1,0.5,0,1.2-0.3c0.3-0.1,0.6-0.2,0.8-0.3
			c0.2,0,0.3-0.1,0.3-0.2c0-0.1,0-0.2,0.1-0.3s0.1-0.2,0-0.2S305.8,155.2,305.7,155.2L305.7,155.2z M321.1,154.9L321.1,154.9
			c-0.1,0.1,0,0.2,0.1,0.3c0.2,0.2,1.7,1.4,1.7,1.5c0.1,0.2,0.7,0.5,1,0.6c0.4,0.1,0.4,0.1,0.6,0c0.3-0.1,0.2-0.2-0.5-0.6
			c-0.4-0.2-0.9-0.5-1.3-0.8C321.7,155.2,321.3,154.9,321.1,154.9L321.1,154.9z M313.5,155.2c-0.1,0-0.1,0.1-0.1,0.3
			c0,0.1,0.3,0.6,0.7,1c0.5,0.5,0.8,0.7,0.9,0.7c0.5-0.1,0.2-0.7-0.8-1.6C313.9,155.3,313.6,155.2,313.5,155.2z M319.9,155
			L319.9,155c0,0,0.3,0.3,0.6,0.6s0.9,0.8,1.3,1.1s0.8,0.6,0.9,0.7c0.2,0.1,0.3,0.1,0.4,0.1c0.2-0.1,0.1-0.3-0.5-0.9
			c-1.2-1.1-1.9-1.5-2.3-1.6C320.1,155,320,155,319.9,155L319.9,155L319.9,155z M300,155.5c-0.3,0-0.7,0.1-1.4,0.4
			c-1,0.3-1.2,0.5-1.2,0.6s0.1,0.2,0.3,0.2c0.3,0.1,1,0,2-0.4c0.9-0.4,1.2-0.6,0.8-0.5c-0.1,0-0.2,0-0.2-0.1
			C300.3,155.6,300.2,155.5,300,155.5L300,155.5z M319.3,155.1h-0.1c-0.2,0-0.4,0.1-0.4,0.1s0.4,0.4,0.8,0.7c0.4,0.4,1,0.8,1.2,1
			c0.4,0.4,0.9,0.4,0.9,0.1c0-0.2-0.3-0.5-1.3-1.4C319.8,155.2,319.6,155.1,319.3,155.1L319.3,155.1z M318.5,155.4
			c-0.1,0,0.1,0.3,0.3,0.6c0.2,0.3,0.4,0.7,0.4,0.9c0,0.1,0.2,0.3,0.4,0.4c0.7,0.3,1,0.1,0.6-0.4
			C319.7,156.4,318.6,155.4,318.5,155.4L318.5,155.4z M302.1,155.8c0,0-0.1,0-0.2,0c-0.2,0.1-0.5,0.1-0.8,0.2
			c-0.5,0.1-2,0.6-2.2,0.9c-0.1,0.1-0.1,0.2,0,0.3c0.2,0.2,0.6,0.1,2-0.4c1.2-0.5,1.6-0.8,1.3-0.7C302.1,156,302.1,156,302.1,155.8
			C302.2,155.8,302.2,155.8,302.1,155.8L302.1,155.8z M317.9,155.5h-0.1h-0.4l0.4,0.6c0.4,0.6,0.7,1.4,0.6,1.4c0,0-0.2-0.2-0.3-0.5
			c-0.1-0.3-0.4-0.7-0.5-0.8c-0.2-0.3-0.3-0.3-0.7-0.3c-0.2,0-0.4,0.1-0.4,0.2c0,0.1,0.2,0.3,0.4,0.6c0.4,0.5,0.8,1.3,0.9,1.7
			c0,0.2,0,0.2-0.2-0.3c-0.4-0.8-1.2-1.8-1.3-1.6c-0.1,0.1-0.2,0.2-0.4,0.2l-0.3,0.1l0.4,0.5c0.6,0.7,1,1.5,1,1.8
			c0,0.2-0.1,0.1-0.2-0.2c-0.2-0.5-0.9-1.5-1.2-1.8c-0.1-0.1-0.2-0.1-0.4,0.1c-0.1,0.1-0.2,0.2-0.2,0.3c0,0,0.3,0.4,0.6,0.8
			c0.3,0.4,0.7,0.9,0.8,1.1c0.1,0.2,0.2,0.5,0.3,0.5c0.1,0,0.2,0,0.3-0.1c0.1-0.1,0.3-0.2,0.4-0.2s0.3-0.2,0.4-0.4s0.2-0.3,0.2-0.3
			c0.2,0,0.5-0.4,0.5-0.7c0-0.2,0.1-0.3,0.3-0.4c0.2-0.1,0.3-0.3,0.3-0.4c0-0.3-0.3-1.1-0.7-1.6
			C318.2,155.6,318.1,155.5,317.9,155.5L317.9,155.5z M313.1,155.8l-0.1,0.3c-0.1,0.3,0,0.4,0.4,0.8c0.3,0.3,0.6,0.6,0.7,0.8
			c0.3,0.3,0.3,0.3,0.5,0.1s0-0.5-0.8-1.3L313.1,155.8L313.1,155.8z M306,156L306,156c-0.5,0-1.7,0.4-1.9,0.6
			c-0.3,0.2-0.3,0.6-0.1,0.7c0.2,0.1,0.4,0.1,0.7-0.1c0.2-0.1,0.6-0.3,0.8-0.4c0.5-0.2,0.5-0.2,0.6-0.5
			C306.2,156.1,306.2,156,306,156L306,156z M302.8,156.2c-0.1,0-0.5,0.2-1.3,0.5c-1.1,0.5-1.4,0.7-1.3,0.9c0.2,0.3,1.5-0.1,2.6-0.7
			c0.5-0.3,0.6-0.5,0.1-0.4c-0.3,0.1-0.3,0.1-0.1-0.1C302.8,156.3,302.8,156.2,302.8,156.2L302.8,156.2z M307.1,156.2
			c-0.1,0-0.1,0-0.1,0.1s0.1,0.1,0.2,0.1s0.2,0,0.2-0.1C307.4,156.3,307.3,156.3,307.1,156.2C307.2,156.2,307.1,156.2,307.1,156.2
			L307.1,156.2z M303.5,156.7c-0.3,0-0.6,0.3-0.5,0.5c0,0.1,0.2,0.2,0.4,0.1c0.3,0,0.3-0.1,0.3-0.4
			C303.7,156.7,303.7,156.7,303.5,156.7z M306.3,156.8c-0.3,0-1.3,0.5-1.5,0.7c-0.2,0.3-0.3,0.6-0.1,0.7c0.1,0,0.1,0.1,0.1,0.1
			s0.3-0.2,0.6-0.4s0.7-0.4,0.8-0.5c0.2-0.1,0.2-0.2,0.2-0.4C306.4,156.9,306.3,156.8,306.3,156.8z M312.9,156.7
			c-0.1,0-0.1,0.1-0.2,0.2c-0.1,0.2,0.1,0.4,0.6,1c0.4,0.4,0.7,0.7,0.8,0.7c0.2,0,0.2-0.5,0-0.8C313.9,157.5,313,156.7,312.9,156.7
			L312.9,156.7z M310.7,157L310.7,157c0.1,0,0,0.1-0.1,0.2c-0.1,0.1-0.1,0.1-0.1,0C310.5,157.1,310.6,157,310.7,157L310.7,157z
			 M310.2,157c0.1,0,0.1,0,0.1,0.1s-0.1,0.1-0.1,0.1s-0.1,0-0.1-0.1S310.1,157,310.2,157L310.2,157z M302.6,157.2L302.6,157.2
			c-0.1,0-0.2,0-0.4,0.1c-0.5,0.2-0.8,0.4-0.7,0.6c0.1,0.2,0.7,0.1,1.1-0.1c0.3-0.1,0.3-0.2,0.2-0.3
			C302.7,157.4,302.7,157.3,302.6,157.2C302.7,157.2,302.6,157.2,302.6,157.2z M309.4,157c0.1,0,0.1,0,0,0.1c0,0.1-0.1,0.1-0.1,0.1
			s0,0,0-0.1C309.3,157.1,309.3,157,309.4,157L309.4,157z M308.8,157.1L308.8,157.1c0.1,0.1,0.1,0.1,0.1,0.1s0,0.1-0.1,0.1
			C308.8,157.3,308.7,157.2,308.8,157.1C308.7,157.1,308.7,157.1,308.8,157.1L308.8,157.1z M303.9,157.5L303.9,157.5
			c-0.4,0-0.7,0.4-0.4,0.6c0.1,0.1,0.3,0.1,0.5,0.1c0.3,0,0.4-0.1,0.4-0.3s0-0.3-0.3-0.3C304,157.6,304,157.5,303.9,157.5
			L303.9,157.5z M310.2,157.4c0.1,0,0.1,0,0.1,0.1s0,0.1-0.1,0.1s-0.1,0-0.1-0.1S310.1,157.4,310.2,157.4z M309.2,157.5
			c0.1,0,0.1,0,0,0.1c-0.2,0.2-0.3,0.2-0.2,0C309,157.6,309.1,157.5,309.2,157.5L309.2,157.5L309.2,157.5z M312.5,157.4
			C312.5,157.4,312.4,157.4,312.5,157.4c-0.4,0.1-0.3,0.4,0.3,1.1c0.6,0.7,0.9,0.8,0.9,0.4C313.7,158.6,312.8,157.5,312.5,157.4
			L312.5,157.4z M306.5,157.6L306.5,157.6c-0.3,0-0.7,0.2-1.1,0.4c-0.3,0.2-0.3,0.5-0.2,0.6c0.1,0.1,0.3,0.1,0.7-0.2
			c0.2-0.2,0.5-0.3,0.6-0.4c0.1,0,0.3-0.2,0.3-0.2C306.8,157.7,306.7,157.6,306.5,157.6L306.5,157.6z M309.7,157.5L309.7,157.5
			c0.1,0.1,0.1,0.2,0,0.2s-0.1,0-0.1,0C309.5,157.6,309.6,157.5,309.7,157.5C309.6,157.5,309.6,157.5,309.7,157.5L309.7,157.5z
			 M301.2,157.8L301.2,157.8c-0.1,0-0.1,0-0.2,0s-0.2,0.2-0.2,0.3c0,0.3,0.1,0.3,0.3,0C301.2,157.9,301.2,157.8,301.2,157.8
			L301.2,157.8z M307.5,157.6L307.5,157.6c-0.2,0.1-0.2,0.2-0.2,0.2C307.3,158,307.5,157.9,307.5,157.6
			C307.6,157.7,307.5,157.6,307.5,157.6L307.5,157.6z M303.1,157.9c0,0-0.1,0.1-0.2,0.2c-0.3,0.3-0.3,0.5-0.1,0.7
			c0.1,0.1,0.3,0.1,0.5,0c0.4-0.1,0.6-0.3,0.3-0.3C303.4,158.5,303.2,158.3,303.1,157.9C303.1,157.9,303.1,157.9,303.1,157.9
			L303.1,157.9z M311.8,157.9C311.8,157.9,311.7,157.9,311.8,157.9c-0.2,0.1-0.3,0.2-0.3,0.2s0.3,0.5,0.7,0.9c0.7,0.8,1,1,1,0.6
			c0-0.1-0.3-0.6-0.7-1C312.1,158.1,311.9,157.9,311.8,157.9L311.8,157.9z M307,158.1c-0.1,0-0.2,0-0.3,0.1
			c-0.6,0.2-1.1,0.6-0.9,0.9c0.2,0.2,0.5,0,0.9-0.4C307.1,158.3,307.2,158.1,307,158.1z M301.5,158.3c-0.3,0-0.3,0.1-0.4,0.4
			c-0.1,0.6-0.1,0.6,0,1c0.2,0.4,0.3,0.4,0.3,0c0-0.1,0.1-0.3,0.1-0.4s0.1-0.2,0.1-0.3s0.1-0.3,0.2-0.4s0.2-0.3,0.2-0.3
			S301.8,158.3,301.5,158.3C301.6,158.3,301.6,158.3,301.5,158.3L301.5,158.3z M314.8,158.1c0,0-0.1,0-0.1,0.1
			c-0.3,0.2-0.2,0.4,0.1,0.7c0.2,0.2,0.5,0.6,0.7,1c0.4,0.7,0.7,0.8,0.9,0.5c0.1-0.3-0.4-1.3-1-1.8
			C315.1,158.2,314.9,158.1,314.8,158.1L314.8,158.1z M304.5,158.4c-0.2,0-0.6,0.5-0.8,1c-0.1,0.3-0.1,1,0.1,1.3
			c0.1,0.1,0.2,0.1,0.4,0.1c0.3,0,0.3,0,0.3-0.5c0-0.4,0.3-1.3,0.5-1.4c0.1-0.1,0.1-0.5,0-0.5C304.8,158.4,304.6,158.4,304.5,158.4
			L304.5,158.4L304.5,158.4z M307.4,158.4C307.4,158.4,307.3,158.4,307.4,158.4c-0.3,0-0.9,0.8-0.8,0.9c0,0.1,0.2,0.1,0.3,0.1
			c0.2,0,0.3-0.1,0.4-0.5C307.5,158.4,307.5,158.4,307.4,158.4L307.4,158.4z M311.3,158.3L311.3,158.3c0,0,0.1,0.3,0.3,0.6
			s0.4,0.8,0.5,1c0.2,0.5,0.6,0.6,0.6,0.2c0-0.2-0.2-0.5-0.7-1C311.6,158.6,311.3,158.3,311.3,158.3L311.3,158.3z M307.7,158.6
			c-0.2,0-0.4,0.4-0.3,0.6c0,0.1,0.1,0,0.2-0.2C307.9,158.7,307.9,158.6,307.7,158.6L307.7,158.6z M302.3,158.8
			c-0.1,0-0.3,0.2-0.4,0.7c-0.2,0.6-0.2,1.2,0,1.7c0.1,0.2,0.2,0.4,0.2,0.4s0.1-0.3,0.2-0.7s0.2-0.9,0.4-1.1l0.3-0.4l-0.3-0.3
			C302.5,158.8,302.4,158.8,302.3,158.8L302.3,158.8z M305.2,158.9c-0.1,0-0.2,0.1-0.4,0.5c-0.3,0.6-0.3,1.2-0.1,1.6
			c0.3,0.5,0.6,0.3,0.5-0.3c0-0.2,0.1-0.6,0.1-1c0.1-0.6,0.2-0.7,0-0.7C305.4,158.9,305.3,158.9,305.2,158.9L305.2,158.9z
			 M314.3,158.9c-0.4,0-0.4,0.4,0,1.1c0.2,0.3,0.5,0.8,0.7,1l0,0c0.3,0.4,0.7,0.5,0.7,0.1C315.7,160.3,314.7,158.8,314.3,158.9
			L314.3,158.9z M303.4,159.2c-0.2,0-0.6,0.5-0.8,1c-0.4,0.9-0.3,1.6,0.2,2.1c0.1,0.1,0.2,0.2,0.3,0.2c0,0,0.1-0.3,0.1-0.6
			s0.1-0.7,0.1-0.9C303.4,160.8,303.5,159.2,303.4,159.2L303.4,159.2z M305.8,159.4c-0.4,0-0.5,1.5-0.2,2.1c0.1,0.3,0.1,0.3,0.4,0.1
			c0.1-0.1,0.2-0.3,0.2-0.7c0-0.3,0-0.7,0.1-0.9c0.1-0.4,0-0.7-0.1-0.5c-0.1,0.1-0.1,0.1-0.1,0C306,159.4,305.9,159.4,305.8,159.4
			L305.8,159.4L305.8,159.4z M307.6,159.5c-0.1,0-0.1,0-0.2,0.1c-0.2,0.2-0.3,1.2-0.3,1.7c0,0.2,0.1,0.3,0.2,0.3s0.2-0.2,0.2-0.9
			c0-0.5,0.1-0.9,0.1-1C307.8,159.6,307.7,159.5,307.6,159.5L307.6,159.5z M307,159.6C307,159.6,306.9,159.6,307,159.6
			c-0.3,0-0.4,0.1-0.5,0.3c-0.1,0.4-0.1,1.5,0,1.7c0.2,0.4,0.5-0.1,0.5-1c0-0.4,0.1-0.8,0.1-0.9C307.2,159.7,307.2,159.6,307,159.6
			L307,159.6z M307.9,159.7c-0.2,0-0.2,0.9-0.1,1.3c0.1,0.4,0.2,0.1,0.2-0.6C308,160,308,159.7,307.9,159.7L307.9,159.7z
			 M313.8,159.6l-0.3,0.2c-0.1,0.1-0.3,0.3-0.3,0.3s0.2,0.3,0.3,0.6c0.2,0.3,0.4,0.6,0.4,0.8c0.1,0.2,0.2,0.2,0.3,0.2
			c0.2,0,0.2-0.1,0.2-0.4c0-0.4-0.2-1-0.6-1.4V159.6L313.8,159.6z M316.9,160.2l-0.3,0.3c-0.1,0.2-0.3,0.3-0.4,0.3
			c-0.3,0,0,0.2,0.6,0.4c1.1,0.4,2,1,2.8,1.7c0.4,0.4,0.7,0.7,0.8,0.7c0,0,0-0.1,0-0.2c0-0.3-2-2.2-3.2-3L316.9,160.2L316.9,160.2z
			 M312.8,160.4c0,0-0.1,0-0.1,0.1s0.2,0.4,0.4,0.8c0.2,0.4,0.4,0.7,0.5,0.7c0.3,0,0.2-0.3-0.2-0.9
			C313.2,160.6,312.9,160.4,312.8,160.4L312.8,160.4z M312.4,160.7c-0.1,0-0.1,0,0,0.2c0.1,0.1,0.2,0.4,0.3,0.6
			c0.1,0.4,0.3,0.5,0.3,0.2C313.1,161.5,312.5,160.6,312.4,160.7z M303.5,160.9l-0.1,0.1c-0.3,0.8-0.1,1.7,0.5,2.2
			c0.4,0.4,0.6,0.4,0.5,0.1c-0.2-0.6-0.3-1-0.2-1.6c0.1-0.8,0.1-0.8-0.1-0.7c-0.1,0-0.3,0-0.4-0.1
			C303.7,160.9,303.6,160.9,303.5,160.9L303.5,160.9z M304.6,161.4L304.6,161.4c-0.2,0.2-0.1,1,0,1.6c0.2,0.6,0.4,1,0.9,1.1
			c0.2,0,0.4,0.1,0.4,0c0,0-0.1-0.3-0.3-0.7c-0.2-0.5-0.3-0.8-0.3-1.3s0-0.6-0.2-0.5c-0.1,0-0.3,0-0.4-0.1
			C304.7,161.4,304.6,161.4,304.6,161.4L304.6,161.4z M307.7,161.6c0,0,0.1,0.1,0.1,0.3c0,0.4-0.2,0.4-0.2,0
			C307.7,161.7,307.7,161.6,307.7,161.6z M316.5,161.5c-0.2,0-0.3,0-0.3,0.1s0,0.1-0.2,0.1c-0.1,0,0,0.1,0.4,0.2
			c0.3,0.1,0.7,0.2,0.8,0.1c0.4-0.1,0.3-0.4-0.1-0.5C316.9,161.6,316.6,161.5,316.5,161.5L316.5,161.5z M306.9,162
			c0,0,0.1,0,0.1,0.1c0,0.2-0.1,0.2-0.1,0.1C306.8,162.2,306.8,162.1,306.9,162L306.9,162L306.9,162z M315.2,161.9
			C315.2,161.9,315.1,161.9,315.2,161.9c-0.2,0.1-0.2,0.2,0.3,0.4c0.6,0.3,0.7,0.3,0.9,0.1c0.2-0.2,0.2-0.2-0.1-0.2
			c-0.2,0-0.5-0.1-0.6-0.2C315.5,161.9,315.3,161.9,315.2,161.9L315.2,161.9z M317.9,161.9l0.3,0.3c0.2,0.2,0.6,0.6,1,1
			c0.6,0.6,1,0.9,1,0.6c0-0.1-1.5-1.4-2-1.7L317.9,161.9L317.9,161.9z M314.4,162L314.4,162c-0.1,0.1,0.4,0.6,0.6,0.7
			c0.3,0.1,0.5,0.1,0.6,0C315.7,162.6,314.6,162,314.4,162L314.4,162z M307.4,162.3c0.1,0,0.1,0.1,0.1,0.2c0,0.1,0,0.2-0.1,0.2
			s-0.1-0.1-0.1-0.2S307.3,162.3,307.4,162.3z M317.8,162.2l0.2,0.2l0.2,0.2H318c-0.1,0-0.3-0.1-0.4-0.1c-0.2-0.1-0.3-0.1,0.7,0.9
			c0.7,0.7,1.1,0.9,1.3,0.6c0.1-0.1-1-1.4-1.4-1.6L317.8,162.2L317.8,162.2z M314.2,162.4c-0.1,0-0.1,0.1-0.1,0.3s0.1,0.3,0.2,0.4
			c0.1,0,0.3,0,0.4,0c0.2-0.1,0.2-0.1-0.1-0.4C314.4,162.4,314.2,162.4,314.2,162.4L314.2,162.4z M306.9,162.8c0,0,0.1,0.1,0.1,0.2
			c0.1,0.3-0.1,0.3-0.2,0.1C306.8,162.8,306.8,162.8,306.9,162.8L306.9,162.8z M317.1,162.6c0,0,0,0,0,0.1c0.1,0.2-0.1,0.3-0.2,0.1
			c0-0.1-0.1-0.1-0.2-0.1s0.2,0.4,0.7,0.8c0.5,0.5,0.8,0.8,1,0.8c0.1,0,0.2-0.1,0.2-0.1c0-0.1-0.9-1.1-1.3-1.5
			C317.2,162.7,317.1,162.6,317.1,162.6L317.1,162.6z M307.8,163c0.1,0,0.2,0.2,0.2,0.4s-0.1,0.2-0.2-0.1
			C307.8,163.2,307.8,163.1,307.8,163C307.8,163.1,307.8,163.1,307.8,163z M316.4,162.9c-0.2,0-0.1,0.1,0.3,0.7
			c0.3,0.4,0.6,0.7,0.7,0.8c0.2,0.2,0.4,0.2,0.4,0C317.8,164.1,316.6,162.9,316.4,162.9L316.4,162.9z M315.9,163.1
			c0,0,0,0.1,0.1,0.2c0.1,0.1,0.2,0.3,0.1,0.3c0,0,0,0.2,0.1,0.3s0.2,0.3,0.2,0.3c0,0.1,0.1,0.2,0.1,0.3c0.1,0.2,0.4,0.2,0.5,0
			c0.1-0.1-0.7-1.1-1-1.3C316,163.2,316,163.1,315.9,163.1C316,163.1,315.9,163.1,315.9,163.1L315.9,163.1z M316,163.5
			c-0.1,0-0.1,0.1-0.1,0.1c0,0.1,0,0.1,0.1,0.1s0.1-0.1,0.1-0.1C316.1,163.5,316.1,163.5,316,163.5z M307.1,163.7
			c0,0,0.1,0.1,0.1,0.2c0.1,0.1,0.1,0.3,0.1,0.3C307.3,164.2,307.1,163.9,307.1,163.7L307.1,163.7L307.1,163.7z M307.5,163.7
			c0.1,0,0.2,0.1,0.2,0.2c0.1,0.1,0.1,0.2,0,0.2C307.7,164.2,307.5,163.9,307.5,163.7C307.5,163.8,307.5,163.7,307.5,163.7
			L307.5,163.7z M315.6,163.6L315.6,163.6c0,0,0,0.2,0.1,0.3c0.1,0.2,0.1,0.2-0.1,0.1c-0.3-0.1-0.3-0.1,0,0.3
			c0.2,0.3,0.6,0.4,0.6,0.2C316.1,164.4,315.7,163.7,315.6,163.6L315.6,163.6L315.6,163.6L315.6,163.6z M308.3,164.1l0.2,0.2
			c0.1,0.1,0.2,0.2,0.2,0.2c0,0.1-0.1,0-0.2-0.2L308.3,164.1L308.3,164.1z M313.2,164.3c0,0,0,0,0,0.1s0.1,0.2,0.1,0.2
			c0.1,0,0.1,0,0.1,0.1c-0.1,0.2-0.2,0.2-0.3,0C313.1,164.6,313.1,164.5,313.2,164.3L313.2,164.3L313.2,164.3z M310.9,165.2
			c0,0,0,0.1,0.1,0.2c0.1,0.1,0.2,0.2,0.2,0.2c0.1,0,0.1-0.1-0.1-0.3C311,165.3,311,165.2,310.9,165.2z"/>
		<path id="path3384" inkscape:connector-curvature="0" fill="#0A1E65" d="M296.2,160.8L296.2,160.8c-0.2,0-0.5,0-0.7,0h-0.1
			c-0.2,0-0.3,0.1-0.5,0.1c-0.1,0-0.2,0.1-0.3,0.1c-0.1,0.1-0.3,0.2-0.4,0.3s-0.3,0.2-0.4,0.3l-0.1,0.1c0,0,0,0.1-0.1,0.1l0,0v0.1
			v0.1v0.1v0.1v0.1c0,0.1,0.1,0.2,0.1,0.3l0.1,0.1c0,0,0,0.1,0.1,0.1c0,0,0,0,0,0.1c0.1,0.1,0.2,0.2,0.2,0.3
			c0.2,0.3,0.4,0.5,0.5,0.6s0.1,0.2,0.1,0.2s-0.1,0.1-0.3,0.2c-0.1,0.1-0.3,0.2-0.5,0.3c-0.6,0.3-1.2,0.6-1.8,1
			c-0.4,0.2-0.7,0.4-1,0.6c-0.5,0.3-0.8,0.6-1,0.7c-0.2,0.2-0.5,0.7-0.7,1c-0.1,0.1-0.1,0.2-0.1,0.3c-0.1,0.2-0.1,0.3-0.1,0.4
			c0,0.2,0,0.3,0,0.6c0,0.1,0,0.2,0,0.3c0,0.2,0,0.4,0.1,0.6c0,0.1,0,0.2,0,0.2v0.1l0,0c0,0.1,0,0.1,0.1,0.2l0,0
			c0,0.1,0.1,0.2,0.2,0.2l0,0l0,0c0,0,0.1,0,0.1,0.1l0,0l0,0c0,0,0,0,0.1,0.1s0.2,0.1,0.3,0.2c0.2,0.2,0.4,0.3,0.5,0.5l0,0
			c0.1,0.1,0.1,0.2,0.1,0.2s0,0-0.1,0.1c0,0,0,0-0.1,0.1c0,0,0,0-0.1,0.1s-0.3,0.2-0.4,0.4c-0.2,0.1-0.3,0.3-0.5,0.5
			s-0.3,0.4-0.4,0.5c-0.1,0.2-0.2,0.3-0.3,0.4v0.1c0,0.1,0,0.1-0.1,0.2v0.1c0,0.2,0,0.4,0.1,0.6c0,0.1,0.1,0.2,0.1,0.3
			c0,0,0,0.1,0.1,0.2c0,0,0,0.1,0.1,0.1c0.1,0.1,0.1,0.3,0.2,0.5c0.1,0.3,0.1,0.5,0.2,0.8c0,0.1,0,0.1,0,0.2c0,0.1,0,0.1,0,0.2
			c0,0.1,0.1,0.2,0.1,0.3s0.1,0.2,0.1,0.2c0,0.1,0.1,0.1,0.1,0.1s0.1,0,0.1,0.1c0.1,0,0.1,0,0.2,0.1l0,0h0.1c0.1,0,0.2,0,0.4,0
			c0.1,0,0.1,0,0.2,0c0.2,0,0.3-0.1,0.5-0.1l0.6-0.2l0.7,0.8c0.1,0.1,0.2,0.2,0.3,0.3c0.2,0.2,0.4,0.5,0.5,0.6s0.1,0.2,0.1,0.2
			c0,0.1,0.1,0.1,0.1,0.2c0.1,0.1,0.1,0.1,0.2,0.2l0.1,0.1c0,0,0,0,0.1,0c0,0,0,0,0.1,0s0.2,0,0.4,0l0,0c0.2,0,0.5-0.1,0.7-0.2
			c0.5-0.2,1.2-0.4,1.7-0.7c0.2-0.1,0.3-0.2,0.5-0.2c0.1,0,0.1-0.1,0.2-0.1c0.1-0.1,0.3-0.2,0.4-0.2c0.4-0.2,1-0.6,1.3-0.8
			c0.4-0.2,0.8-0.4,1.2-0.7c0.6-0.4,1.3-0.9,2.2-1.5c0.2-0.2,0.4-0.3,0.7-0.5c0.4-0.3,0.8-0.6,1.1-0.8l0.1-0.1l0,0
			c0.4-0.3,0.7-0.5,0.8-0.6c0.2-0.1,0.4-0.2,0.6-0.3c0.1-0.1,0.3-0.1,0.4-0.2c0.2-0.1,0.4-0.2,0.5-0.2s0.2-0.1,0.3-0.1
			c0.1,0,0.1,0,0.2-0.1h0.1c0,0,0,0,0.1,0c0,0,0,0,0.1,0l0,0l0,0l0,0l0,0l0,0c0,0.1-0.1,0.3-0.3,0.8c-0.2,0.5-0.4,0.9-0.4,1h-0.1
			l0,0c-0.2,0-0.7,0.1-1.2,0.1c-1.3,0.1-2,0.3-2.7,0.9c-0.1,0.1-0.3,0.2-0.3,0.4c0,0.1-0.1,0.2-0.1,0.2l0,0c0,0.1-0.1,0.2-0.1,0.3
			v0.1c0,0,0,0,0,0.1s0.3,0.4,0.7,0.6l0.1,0.1c0.1,0.1,0.3,0.2,0.5,0.4s0.4,0.4,0.6,0.6c0.2,0.2,0.4,0.4,0.5,0.5l0,0
			c0.2,0.1,0.3,0.2,0.3,0.3l0,0l0,0c0.1,0,0.2,0,0.3,0c0.2,0,0.4-0.1,0.6-0.2c0.5-0.2,1.1-0.5,1.6-0.7c0.1-0.1,0.2-0.1,0.4-0.2
			c0.1-0.1,0.2-0.2,0.3-0.2c0.3-0.2,0.6-0.6,1-0.9c0.1-0.1,0.2-0.2,0.3-0.4c0.1-0.1,0.1-0.1,0.2-0.2c0.2-0.2,0.4-0.4,0.5-0.6
			c0.9-1,1.7-2,2.3-2.9c0.2-0.3,0.3-0.5,0.5-0.7c0.1-0.1,0.1-0.2,0.2-0.3c0.7-1.3,1.2-2.1,1.4-2.5c0.1-0.1,0.1-0.2,0.2-0.3
			c0-0.1,0.1-0.1,0.1-0.2c0-0.1,0.1-0.1,0.1-0.2v-0.1c0-0.1,0-0.2,0.1-0.3c0,0,0-0.1,0.1-0.1l0.1-0.3l0.8,0.5
			c0.2,0.1,0.3,0.2,0.5,0.3c0.1,0,0.1,0.1,0.2,0.1l0,0c0.1,0,0.1,0,0.2,0.1c0.1,0,0.3,0.1,0.5,0.1c0.1,0,0.2,0,0.3,0
			c0.1,0,0.3,0,0.4,0c0.6,0,1.1,0,1.5,0c0.3,0,0.5-0.1,0.8-0.1c0.5-0.1,0.8-0.1,1.1-0.2c0.5-0.1,0.8-0.3,1.4-0.6
			c0.9-0.5,2.1-0.9,3-1c0.4-0.1,0.7-0.1,0.8,0l0,0l0,0c0,0.1,0,0.1-0.1,0.1c0,0,0,0-0.1,0c-0.1,0.1-0.3,0.3-0.5,0.5
			c-0.4,0.4-0.5,0.5-0.8,0.6c-0.1,0-0.1,0-0.2,0s-0.1,0-0.2,0c-0.3,0-0.6,0.1-0.9,0.2c-0.1,0-0.2,0-0.3,0.1c-0.3,0.1-0.6,0.2-1,0.3
			c-1,0.3-2.1,0.8-3.2,1.3c-0.3,0.1-0.6,0.3-0.8,0.4c-0.1,0.1-0.3,0.1-0.4,0.2c-0.3,0.2-0.4,0.3-0.5,0.5c0,0.1,0,0.1,0,0.2
			c0,0.1,0.1,0.2,0.2,0.4c0.1,0.1,0.1,0.2,0.2,0.4l0,0c0.1,0.2,0.2,0.4,0.3,0.6l0,0c0.2,0.4,0.3,0.8,0.3,0.8l0,0l0,0l0,0l0,0
			c0,0,0,0-0.1,0s-0.2,0-0.4-0.1c0,0-0.1,0-0.1-0.1c-0.1,0-0.2-0.1-0.3-0.2l0,0c0,0-0.1,0-0.1-0.1c-0.2-0.1-0.4-0.2-0.6-0.3
			c0,0-0.1,0-0.1-0.1l0,0c-0.2-0.1-0.3-0.1-0.5-0.2c0,0-0.1,0-0.1-0.1c-0.3-0.1-0.5-0.2-0.8-0.3l0,0c-0.3-0.1-0.4-0.2-0.5-0.2
			s-0.1,0-0.2,0s-0.2,0-0.3,0.1c0,0,0,0-0.1,0.1c0,0,0,0-0.1,0.1c0,0,0,0.1-0.1,0.1l-0.1,0.1c-0.3,0.6-1,1.8-1.2,2.2
			c0,0.1,0,0.1,0,0.1c0,0.1,0.2,0.3,0.4,0.6c0.2,0.2,0.4,0.5,0.7,0.8l0,0c0.2,0.2,0.4,0.5,0.5,0.7l0,0c0.2,0.2,0.3,0.4,0.4,0.6
			c0,0.1,0.1,0.1,0.1,0.2l0,0l0,0c0.1,0.1,0.2,0.2,0.4,0.2h0.1c0.2,0.1,0.9,0.3,1.4,0.5l1,0.4l0.6-0.4c0.2-0.1,0.4-0.2,0.5-0.3
			c0.2-0.1,0.3-0.1,0.4-0.1s0.3,0,0.6,0.1c0.3,0,0.7,0.1,1.1,0.2c0.8,0.1,1.9,0.3,2.4,0.3l0.9,0.1l-0.4,0.3
			c-0.1,0.1-0.2,0.2-0.3,0.2c-0.2,0.2-0.4,0.4-0.6,0.6c-0.1,0.1-0.2,0.2-0.2,0.3l0,0l0,0l0,0l0,0l0,0c0.1,0,0.2-0.1,0.3-0.1
			c0.1-0.1,0.2-0.1,0.4-0.2c0.1,0,0.1-0.1,0.2-0.1c0.2-0.1,0.5-0.2,0.6-0.2s0.1,0,0.2,0l0,0l0,0l0,0c-0.1,0.1-0.2,0.2-0.4,0.4
			c-0.1,0.1-0.2,0.2-0.3,0.3c-0.1,0.1-0.1,0.1-0.1,0.2c0,0.1-0.1,0.1-0.1,0.2c-0.1,0.1-0.2,0.3-0.2,0.4c0,0,0,0,0,0.1v0.1l0,0
			c0,0,0,0,0.1,0c0,0,0,0,0.1,0s0.2-0.1,0.3-0.1c0.8-0.5,2.3-0.6,3.6-0.3h0.1l0,0c0.2,0,0.5,0.1,0.9,0.1l0,0c0.1,0,0.3,0,0.4,0
			c0.2,0,0.3,0,0.5,0c0.4-0.1,0.7-0.2,0.9-0.4c0,0,0-0.1,0.1-0.1c0-0.1,0.1-0.1,0.1-0.2l0,0c0,0,0-0.1,0.1-0.1
			c0.1-0.2,0.1-0.3,0.2-0.4v-0.1l0,0v-0.1l0,0c0-0.1,0-0.1,0-0.2v-0.1l0,0v-0.1l0,0V179l0,0v-0.1l0,0l0,0c0-0.2-0.1-0.3-0.1-0.5
			c0-0.1-0.1-0.2-0.1-0.4l0,0c-0.1-0.4-0.2-0.8-0.2-1c0-0.1,0-0.2,0-0.2v-0.1v-0.1v-0.1l0,0c0,0,0-0.1-0.1-0.1c0,0,0-0.1-0.1-0.1
			c0,0,0,0-0.1-0.1c-0.2-0.2-0.5-0.3-1-0.5s-1.3-0.3-1.9-0.4c-0.3,0-0.5-0.1-0.7-0.1l0,0c-0.1,0-0.2,0-0.3,0c-0.1,0-0.1,0-0.2,0
			s-0.1,0-0.2,0s-0.1,0-0.2,0s-0.1,0-0.2,0s-0.3,0-0.5-0.1l0,0l0,0c-0.1,0-0.2,0-0.3,0c-0.1,0-0.2,0-0.3,0H324l0.3-0.4l0.1-0.1l0,0
			c0.1-0.1,0.1-0.1,0.1-0.2c0.1-0.1,0.1-0.2,0-0.4c0-0.1-0.1-0.1-0.2-0.2l-0.1-0.1l-0.1-0.1l-0.1-0.1l-0.1-0.1l-0.1-0.1
			c-0.2-0.1-0.4-0.2-0.5-0.3c0,0-0.1,0-0.1-0.1c0,0,0,0,0-0.1l0,0l0,0l0,0l0,0c0,0,0,0,0.1-0.1s0.3-0.1,0.5-0.2
			c0.5-0.2,1.2-0.4,1.6-0.5l0.6-0.1l0.5,0.6c0.1,0.1,0.2,0.2,0.2,0.2c0.2,0.2,0.5,0.5,0.6,0.6c0,0,0.1,0,0.1,0.1l0,0
			c0,0,0.1,0,0.1,0.1l0,0c0.2,0.1,0.4,0.2,0.6,0.2h0.1c0.1,0,0.1,0,0.2,0s0.2,0,0.3,0c0,0,0,0,0.1,0c0.2-0.1,0.3-0.1,0.4-0.2
			c0.3-0.1,0.5-0.2,0.7-0.3c0.5-0.2,0.9-0.3,1.4-0.4c0.5-0.1,0.8-0.2,1-0.2s0.3-0.1,0.4-0.1c0,0,0,0,0.1,0c0,0,0,0,0.1,0l0.1-0.1
			l0.1-0.1c0.1-0.1,0.2-0.2,0.2-0.3s0.1-0.1,0.1-0.2c0-0.1,0-0.2,0-0.3s0-0.1,0-0.2c0-0.2,0-0.4-0.1-0.6c0-0.1,0-0.2-0.1-0.3
			c0-0.1-0.1-0.2-0.1-0.3s-0.1-0.2-0.1-0.3l0,0c0-0.1-0.1-0.2-0.1-0.3c-0.1-0.2-0.1-0.4-0.1-0.5s0-0.3-0.1-0.4c0-0.1,0-0.1-0.1-0.2
			l0,0l0,0h-0.1c-0.4-0.1-1.3-0.1-2-0.2c-0.3,0-0.6,0-0.8,0c-0.3,0-0.5,0-0.6,0s-0.1,0-0.1,0l0,0l0,0l0,0c0,0,0,0,0.1,0
			c0,0,0,0,0.1,0c0.2,0,0.4-0.1,0.7-0.1c0.3,0,0.6-0.1,0.8-0.1c0.1,0,0.2-0.1,0.3-0.1c0.1-0.1,0.3-0.1,0.3-0.2l0.1-0.1
			c0-0.1,0.1-0.1,0.1-0.2l0,0v-0.1l0,0c0-0.1,0-0.1,0-0.2V167c0-0.1,0-0.1-0.1-0.2c-0.1-0.2-0.2-0.4-0.3-0.7l0,0
			c-0.2-0.4-0.4-0.8-0.6-1.1c-0.1-0.1-0.2-0.3-0.2-0.3s0,0-0.1-0.1s-0.2-0.2-0.4-0.2l0,0h-0.1h-0.1c-0.1,0-0.2,0-0.3-0.1
			c-0.1,0-0.1,0-0.2,0s-0.1,0-0.2,0s-0.3,0-0.5,0c-0.3,0-0.7,0-1.2,0s-0.8,0-1.2,0c-0.1,0-0.2,0-0.3,0c-0.4,0-0.8,0.1-1.2,0.2
			c-2,0.4-4.4,1.3-6.1,2.4c-0.5,0.3-1.1,0.6-1.6,0.7c-0.2,0-0.3,0.1-0.5,0.1c-0.1,0-0.1,0-0.2,0s-0.2,0-0.3,0h-0.1l0,0l0,0h-0.1l0,0
			l0,0c-0.2,0-0.3,0.1-0.5,0.2l0,0l0,0c0,0,0,0.1-0.1,0.1l0,0l-0.1,0.1c-0.1,0.2-0.3,0.3-0.5,0.5l0,0c-0.1,0.1-0.2,0.2-0.3,0.3l0,0
			c-0.1,0.1-0.2,0.2-0.3,0.3l0,0c-0.1,0.1-0.2,0.2-0.3,0.3c0,0,0,0-0.1,0.1c0,0-0.1,0-0.1,0.1l-0.1,0.1c0,0,0,0-0.1,0.1L313,170
			c0,0,0,0-0.1,0s-0.1,0.1-0.2,0.1s-0.2,0.1-0.3,0.2c-0.1,0.1-0.2,0.2-0.3,0.3c-0.2,0.2-0.5,0.4-0.7,0.6l-0.8,0.8l-0.1-0.5v-0.1
			c0-0.1-0.1-0.2-0.1-0.2l0,0c-0.1-0.2-0.2-0.3-0.4-0.4c0,0-0.1,0-0.1-0.1l0,0c0,0-0.1,0-0.1-0.1l0,0c-0.1-0.1-0.1-0.1-0.2-0.2
			c-0.1-0.1-0.2-0.1-0.2-0.2c-0.1-0.1-0.2-0.1-0.2-0.2c-0.2-0.3-0.5-0.5-0.6-0.5c0,0,0,0-0.1,0h-0.1c-0.1,0-0.3,0-0.5,0l0,0
			c-0.4,0.1-0.9,0.2-1.1,0.2c0,0,0,0-0.1,0l0,0l0,0c0,0,0.1-0.2,0.3-0.5c0.2-0.2,0.4-0.5,0.5-0.6v-0.1v-0.1v-0.1l0,0
			c-0.1-0.1-0.1-0.3-0.2-0.4l-0.1-0.1l-0.1-0.1l-0.1-0.1c0,0-0.1,0-0.1-0.1c-0.1,0-0.1-0.1-0.2-0.2c-0.2-0.2-0.4-0.4-0.6-0.6
			c-0.1-0.1-0.1-0.1-0.1-0.2l-0.7-0.8l-0.9,0.1c-1.1,0.2-3,0.7-4.6,1.4c-0.4,0.2-0.8,0.3-1.2,0.5c0,0-0.1,0-0.1,0.1
			c-0.3,0.1-0.5,0.3-0.8,0.4c-0.1,0-0.2,0.1-0.3,0.1c-0.3,0.2-0.6,0.4-0.9,0.6c-0.3,0.2-0.5,0.3-0.7,0.5c-0.2,0.1-0.3,0.2-0.4,0.3
			c-0.4,0.3-0.8,0.6-1.1,0.8l0,0c-0.4,0.2-0.7,0.4-1,0.6c-0.2,0.1-0.4,0.2-0.6,0.3l0,0h-0.1h-0.1c-0.1,0-0.2,0.1-0.2,0.1
			c-0.1,0-0.1,0-0.2,0s-0.2-0.1-0.3-0.1c0,0-0.1,0-0.1-0.1c0,0-0.1-0.1-0.1-0.2l0,0c0-0.1,0-0.2,0-0.3v-0.1c0-0.1,0-0.1,0-0.2v-0.1
			v-0.1c0-0.1,0.1-0.2,0.2-0.3s0.1-0.1,0.1-0.2c0.3-0.4,0.7-0.6,1.7-1.1c0.5-0.2,1.2-0.7,1.9-1.1c0.7-0.4,1.4-0.8,1.8-1.1
			c0.1-0.1,0.2-0.1,0.3-0.2c0,0,0.1,0,0.1-0.1c0,0,0,0,0.1-0.1s0.1-0.2,0.1-0.2c0-0.1,0-0.1,0.1-0.2c0-0.1,0-0.2,0-0.2l0,0l0,0
			c0-0.1,0-0.2,0-0.3s0-0.2,0-0.4c0-0.1,0-0.1,0-0.2c0-0.5,0.1-1.2,0.2-1.7c0-0.2,0.1-0.4,0.1-0.5s0-0.2,0-0.3c0-0.2,0-0.3-0.1-0.5
			c-0.1-0.3-0.3-0.5-0.7-0.6h-0.1c-0.2,0-0.4-0.1-0.6-0.1c-0.1,0-0.1,0-0.2,0C296.4,160.8,296.3,160.8,296.2,160.8L296.2,160.8z
			 M296.6,161L296.6,161l0.1,0.1c0,0.1,0.1,0.4,0.2,0.8c0.1,0.6,0.2,1,0.1,1l0,0l0,0c-0.1-0.1-0.2-0.3-0.3-0.8
			c-0.1-0.3-0.1-0.5-0.2-0.7c0-0.1,0-0.2,0-0.2C296.5,161.1,296.5,161.1,296.6,161C296.5,161.1,296.6,161,296.6,161L296.6,161z
			 M296.9,161.1L296.9,161.1C296.9,161.1,297,161.1,296.9,161.1c0.1,0,0.1,0,0.1,0s0,0,0.1,0c0,0,0,0,0,0.1v0.1
			c0,0.1,0.1,0.4,0.1,0.7c0,0.1,0,0.1,0,0.2c0,0.1,0,0.2,0,0.3s0,0.1,0,0.1l0,0l0,0c0,0-0.1-0.1-0.1-0.3c0-0.1,0-0.2-0.1-0.3l0,0
			c0-0.2-0.1-0.4-0.1-0.6C296.9,161.3,296.9,161.2,296.9,161.1L296.9,161.1L296.9,161.1L296.9,161.1z M296,161.1
			C296,161.1,296.1,161.1,296,161.1c0.1,0,0.1,0,0.1,0l0.1,0.1c0,0,0,0,0,0.1l0,0v0.1c0,0.1,0,0.1,0,0.2l0,0l0,0l0,0c0,0,0,0-0.1,0
			c0,0,0,0-0.1,0c0,0-0.1,0-0.1-0.1c0,0,0,0,0-0.1s-0.1-0.2-0.1-0.3C295.9,161.2,295.9,161.1,296,161.1L296,161.1L296,161.1
			L296,161.1z M295.6,161.1L295.6,161.1c0,0,0.1,0.1,0.2,0.1c0,0,0,0.1,0.1,0.1v0.1v0.1l0,0v0.1v0.1l0,0l0,0l0,0l0,0l0,0h-0.1
			c-0.1,0-0.2-0.1-0.2-0.3c-0.1-0.3-0.1-0.3-0.1-0.4C295.5,161.1,295.5,161.1,295.6,161.1C295.5,161.1,295.6,161.1,295.6,161.1
			L295.6,161.1z M297.5,161.2L297.5,161.2L297.5,161.2L297.5,161.2c0.2,0.1,0.3,0.4,0.3,0.5s0,0.2,0,0.3l0,0c0,0.1,0,0.1-0.1,0.2
			l0,0l0,0l0,0l0,0c0,0,0-0.1,0-0.2l0,0c0-0.2,0-0.4,0-0.6C297.4,161.4,297.4,161.3,297.5,161.2
			C297.4,161.2,297.5,161.2,297.5,161.2L297.5,161.2z M295,161.2L295,161.2C295.1,161.2,295.1,161.2,295,161.2
			c0.1,0,0.2,0.1,0.2,0.1c0.1,0.1,0.1,0.1,0.2,0.3c0,0.1,0.1,0.2,0.1,0.3s0,0.2,0,0.2s0,0,0,0.1s0,0.2,0,0.2l0,0l0,0
			c0,0,0,0-0.1-0.1l0,0c0-0.1-0.1-0.2-0.1-0.3s-0.1-0.1-0.1-0.2c-0.1-0.1-0.1-0.3-0.1-0.3v-0.1C294.9,161.3,295,161.3,295,161.2
			C295,161.3,295,161.2,295,161.2L295,161.2z M294.5,161.4C294.6,161.4,294.6,161.4,294.5,161.4c0.1,0,0.1,0.1,0.1,0.1
			s0.1,0.1,0.2,0.2c0.1,0.1,0.2,0.2,0.2,0.4c0.1,0.2,0.2,0.4,0.3,0.6v0.1c0,0.1,0,0.1,0,0.2c0,0.1-0.1,0.1-0.2,0c0,0-0.1,0-0.1-0.1
			l-0.1-0.1c0,0-0.1-0.1-0.1-0.2c-0.1-0.2-0.2-0.4-0.3-0.5c-0.1-0.1-0.1-0.3-0.2-0.3c0-0.1,0-0.1,0-0.2l0,0
			C294.4,161.5,294.5,161.5,294.5,161.4C294.5,161.5,294.5,161.5,294.5,161.4C294.5,161.5,294.5,161.5,294.5,161.4L294.5,161.4
			L294.5,161.4z M294.2,161.8L294.2,161.8L294.2,161.8C294.2,161.8,294.3,161.8,294.2,161.8c0.1,0,0.1,0.1,0.1,0.1
			c0.1,0.1,0.1,0.2,0.2,0.4c0,0.1,0.1,0.1,0.1,0.2c0.1,0.2,0.1,0.3,0.2,0.4c0,0.1,0,0.1,0,0.1v0.1c-0.1,0.1-0.1,0.1-0.2,0
			c-0.1,0-0.2-0.1-0.3-0.3l0,0c-0.1-0.1-0.2-0.3-0.2-0.4c-0.1-0.1-0.1-0.2-0.1-0.3c0,0,0,0,0-0.1l0,0l0,0v-0.1l0,0v-0.1l0,0
			C294.1,161.8,294.1,161.8,294.2,161.8L294.2,161.8L294.2,161.8z M293.9,162.3L293.9,162.3C293.9,162.3,293.9,162.4,293.9,162.3
			c0.1,0.1,0.2,0.2,0.3,0.4c0.1,0.1,0.1,0.2,0.1,0.3v0.1l0,0l0,0l0,0c0,0,0,0-0.1,0l0,0l0,0h-0.1c-0.1,0-0.1-0.1-0.2-0.2l0,0
			c0,0-0.1-0.1-0.1-0.2c0-0.1,0-0.1,0-0.2v-0.1l0,0C293.8,162.4,293.8,162.4,293.9,162.3C293.8,162.3,293.8,162.3,293.9,162.3
			L293.9,162.3z M296.2,163L296.2,163L296.2,163L296.2,163c0.1,0.1,0.1,0.1,0.1,0.1c0,0.1,0,0.1,0.1,0.2v0.1l0,0v0.1l0,0
			c0,0,0,0-0.1,0l0,0c0,0-0.1-0.2-0.1-0.3C296.1,163.1,296.1,163.1,296.2,163C296.1,163,296.1,163,296.2,163
			C296.1,163,296.2,163,296.2,163L296.2,163L296.2,163z M295.8,163.1L295.8,163.1c0.1,0.1,0.2,0.2,0.2,0.4c0,0.1,0,0.1-0.1,0.1l0,0
			c0,0-0.1,0-0.1-0.1l0,0C295.8,163.5,295.7,163.2,295.8,163.1L295.8,163.1L295.8,163.1L295.8,163.1z M295.4,163.2L295.4,163.2
			C295.4,163.2,295.5,163.2,295.4,163.2c0.1,0,0.1,0.1,0.2,0.1c0,0,0.1,0.1,0.1,0.2v0.1v0.1c0,0.1,0,0.1,0,0.1l0,0
			c0,0-0.1-0.1-0.2-0.2c0-0.1-0.1-0.1-0.1-0.2c0,0,0,0,0-0.1C295.4,163.4,295.4,163.3,295.4,163.2
			C295.4,163.3,295.4,163.2,295.4,163.2L295.4,163.2z M295,163.4C295.1,163.4,295.1,163.4,295,163.4c0.1,0.1,0.2,0.2,0.2,0.3
			s0.1,0.2,0.1,0.2l0,0l0,0l0,0c0,0,0,0,0,0.1l0,0h-0.1l0,0C295,163.9,294.8,163.5,295,163.4C294.9,163.4,295,163.4,295,163.4
			L295,163.4L295,163.4L295,163.4L295,163.4z M294.5,163.5c0,0,0.2,0.1,0.3,0.3c0.1,0.2,0.1,0.3,0.1,0.4l0,0c0,0-0.1-0.1-0.4-0.5
			C294.5,163.6,294.5,163.5,294.5,163.5L294.5,163.5L294.5,163.5z M329,164.4L329,164.4L329,164.4L329,164.4
			C329,164.4,329.1,164.4,329,164.4c0.1,0,0.1,0,0.2,0l0,0c0,0,0.1,0,0.1,0.1l0.1,0.1c0.1,0.1,0.1,0.1,0.2,0.2l0,0l0,0l0,0v0.1l0,0
			c-0.1,0.1-0.2,0.1-0.3-0.1l-0.1-0.1c0,0,0,0-0.1-0.1s-0.2-0.1-0.2,0l0,0c0,0,0,0,0,0.1v0.1c0.1,0.1,0.2,0.2,0.3,0.4
			c0.2,0.2,0.3,0.3,0.3,0.4c0,0,0,0,0,0.1s0,0.2-0.1,0.4c0,0,0,0,0,0.1c0,0,0,0,0,0.1l-0.1,0.1c0,0,0,0-0.1,0.1
			c-0.1,0-0.1,0.1-0.2,0c-0.1,0-0.1,0-0.2-0.1c0,0-0.1,0-0.1-0.1c-0.1,0-0.1-0.1-0.2-0.1l-0.1-0.1l0,0V166c0-0.1,0-0.1,0-0.2l0,0
			l0,0l0,0c0,0,0,0,0.1,0l0,0c0,0,0.1,0,0.1,0.1l0,0l0.1,0.1c0.1,0.1,0.2,0.2,0.3,0.2h0.1l0,0c0,0,0-0.1,0-0.2l0,0c0,0,0,0,0-0.1
			l0,0l0,0c0,0,0,0,0-0.1c0,0-0.1-0.1-0.2-0.2c-0.1-0.1-0.2-0.2-0.2-0.3l0,0c-0.1-0.1-0.1-0.2-0.1-0.3s0-0.1,0-0.2c0,0,0,0,0-0.1
			l0,0l0,0l0.1-0.1h0.1l0,0C328.8,164.4,328.9,164.4,329,164.4C328.9,164.4,329,164.4,329,164.4L329,164.4z M327.7,164.4h0.1h0.1
			l0,0l0,0l0,0l0,0c0,0.1-0.2,0.1-0.3,0.1c-0.1,0-0.1,0-0.2,0.1l0,0v0.1c0,0.1,0,0.3,0,0.6c0,0.1,0,0.2,0,0.3s0,0.2,0,0.2
			c0,0.1,0,0.2-0.1,0.2h-0.1l0,0l0,0l0,0l0,0l0,0l0,0c0,0,0-0.1-0.1-0.2v-0.1c0-0.1,0-0.2,0-0.4c0-0.1,0-0.2,0-0.3s0-0.2-0.1-0.2
			c0-0.1-0.1-0.1-0.1-0.1l0,0c0,0-0.1-0.1-0.2-0.1l-0.3-0.1h0.4c0.2,0,0.5-0.1,0.6-0.1h0.1C327.6,164.4,327.6,164.4,327.7,164.4
			L327.7,164.4z M325.8,164.6L325.8,164.6C325.9,164.6,325.9,164.6,325.8,164.6c0.1,0.1,0.1,0.2,0.2,0.3c0,0.1,0,0.1,0.1,0.2
			c0,0.1,0,0.2,0.1,0.3c0.1,0.3,0.1,0.4,0.1,0.6c0,0.1,0,0.2,0,0.2l0,0l0,0l0,0l0,0c0,0,0,0-0.1,0l0,0c0-0.1-0.1-0.2-0.1-0.4
			c0-0.1,0-0.1,0-0.2l0,0c0-0.1-0.1-0.2-0.1-0.2l0,0c0-0.1-0.1-0.1-0.2-0.1l0,0c-0.1,0-0.1,0-0.2,0.1c-0.1,0-0.1,0.1-0.1,0.1l0,0
			v0.1v0.1v0.1c0,0.1,0,0.2,0,0.3l0,0c0,0,0,0.1-0.1,0.1s-0.1,0-0.2-0.1c0-0.1,0-0.1-0.1-0.2c0-0.1,0-0.2-0.1-0.4
			c-0.1-0.3-0.1-0.7-0.2-0.8c0-0.1,0-0.2,0-0.2l0,0l0,0l0,0l0,0l0,0c0,0,0.1,0.1,0.1,0.2c0,0.1,0,0.1,0.1,0.1l0,0c0,0,0.1,0,0.1,0.1
			c0.1,0,0.1,0,0.2,0s0.1,0,0.2,0h0.1l0,0l0,0l0,0c0-0.1,0-0.1,0-0.2C325.8,164.8,325.8,164.7,325.8,164.6L325.8,164.6L325.8,164.6
			L325.8,164.6z M295.6,164.7c0,0,0.1,0,0.2,0s0.1,0,0.2,0.1c0.1,0,0.1,0,0.1,0.1l0.1,0.1l0,0c0,0,0,0,0,0.1s0,0.1,0,0.2v0.1l0,0
			c0,0.1,0,0.2,0,0.3v0.1c0,0.1,0.1,0.1,0.1,0.2c0.1,0.1,0.1,0.2,0.1,0.2l0,0c0,0.1,0,0.1-0.1,0.2h-0.1c-0.1,0-0.1,0-0.2-0.1l0,0
			l-0.1-0.1c0,0,0,0-0.1-0.1l-0.1-0.1c-0.1-0.1-0.1-0.1-0.2-0.1l0,0c0,0,0,0-0.1,0l0,0v0.1c0,0.1,0,0.2,0,0.4c0,0.1,0,0.1,0,0.2
			c0,0,0,0,0,0.1v0.1l0,0l0,0l0,0l0,0c0,0,0,0-0.1-0.1s-0.1-0.2-0.2-0.3c-0.2-0.3-0.3-0.7-0.4-0.9c0-0.1-0.1-0.2-0.1-0.3
			C294.7,165.2,295.4,164.7,295.6,164.7L295.6,164.7L295.6,164.7z M323.4,165h0.1l0,0l0,0l0,0l0,0l0,0l0,0l0,0l0,0l0,0l0,0l0,0l0,0
			c0,0,0,0,0,0.1l0,0l0,0h-0.1l0,0l0,0c0,0-0.1,0-0.2,0c-0.2,0-0.3,0-0.3,0l0,0l0,0l0,0c0,0,0,0,0,0.1v0.1c0,0.1,0,0.1,0,0.2
			c0,0.1,0.1,0.3,0.2,0.4c0.1,0.2,0.2,0.3,0.2,0.4l0.1,0.1c0,0,0,0,0.1,0c0,0,0,0,0.1,0h0.1h0.1c0,0,0,0,0.1-0.1l0,0v-0.1v-0.1l0,0
			c0-0.1-0.1-0.2-0.2-0.2h-0.1l0,0l0,0l0,0c0-0.1,0.1-0.2,0.4-0.3c0.1,0,0.2,0,0.2,0c0.1,0,0.1,0,0.2,0s0.1,0.1,0,0.1l0,0l0,0
			c0,0-0.1,0.1-0.1,0.2c0,0.1,0,0.2,0,0.3s0,0.2-0.1,0.3c0,0,0,0.1-0.1,0.1l-0.1,0.1c-0.1,0.1-0.3,0.2-0.3,0.2s0,0-0.1,0h-0.1
			c0,0-0.1,0-0.1-0.1c0,0,0,0-0.1,0l-0.1-0.1l-0.1-0.1c-0.2-0.2-0.3-0.5-0.4-0.8c0-0.1-0.1-0.2-0.1-0.3s0-0.1,0-0.1
			c0-0.1,0-0.2,0.1-0.2c0,0,0-0.1,0.1-0.1l0,0l0,0l0,0h0.1C323.1,165,323.2,165,323.4,165C323.3,165,323.3,165,323.4,165L323.4,165
			L323.4,165z M295.5,165.1L295.5,165.1c-0.1,0-0.2,0-0.2,0.1l-0.1,0.1c0,0.1-0.1,0.1-0.1,0.2l0,0v0.1c0,0,0,0.1,0.1,0.1
			c0.1,0.1,0.2,0.1,0.4-0.2c0.2-0.2,0.2-0.2,0.1-0.3l0,0C295.7,165.1,295.7,165.1,295.5,165.1C295.6,165.1,295.6,165.1,295.5,165.1
			L295.5,165.1L295.5,165.1z M321.8,165.4L321.8,165.4C321.9,165.4,321.9,165.4,321.8,165.4c0,0,0.1,0,0.1,0.1l0,0
			c0,0.1,0.1,0.2,0.2,0.3c0,0.1,0.1,0.2,0.1,0.3c0.1,0.2,0.2,0.4,0.3,0.6c0.1,0.3,0.2,0.5,0.2,0.6l0,0c0,0,0,0,0,0.1c0,0,0,0,0,0.1
			l0,0l0,0c0,0,0,0-0.1,0l0,0h-0.1c0,0,0,0-0.1,0l-0.1-0.1c0-0.1-0.2-0.5-0.3-0.9c-0.1-0.3-0.2-0.5-0.2-0.7
			C321.8,165.5,321.8,165.4,321.8,165.4L321.8,165.4L321.8,165.4z M294,165.5L294,165.5c0.1,0,0.2,0.1,0.3,0.3
			c0,0.1,0.1,0.2,0.1,0.3c0.1,0.2,0.1,0.3,0.1,0.4l0,0c0.1,0.2,0.1,0.3,0.1,0.5l0,0c0,0.1,0,0.1,0,0.2l0,0c0,0,0,0,0,0.1l0,0
			c0,0,0,0.1-0.1,0.1c0,0,0,0.1-0.1,0.1c0,0,0,0-0.1,0.1l0,0c-0.1,0-0.2,0.1-0.2,0.1c-0.1,0-0.2,0-0.2,0s0,0-0.1,0s-0.1,0-0.1-0.1
			l0,0c0,0,0,0,0-0.1l0,0c0,0,0,0-0.1-0.1l0,0c0,0,0-0.1-0.1-0.1c-0.1-0.1-0.2-0.3-0.2-0.5c-0.1-0.2-0.2-0.4-0.2-0.5s0-0.1,0-0.1
			l0,0c0,0,0-0.1,0.1-0.1l0,0c0,0,0,0,0.1,0l0,0c0,0,0,0,0.1,0.1c0,0,0,0.1,0.1,0.1c0,0,0.1,0.1,0.1,0.2c0,0.1,0.1,0.1,0.1,0.2
			c0.1,0.1,0.1,0.2,0.2,0.3c0,0.1,0.1,0.1,0.1,0.2c0.1,0.1,0.2,0.2,0.3,0.2l0,0c0.1,0,0.1,0,0.2-0.1c0,0,0,0,0-0.1c0,0,0,0,0-0.1
			V167c0,0,0,0,0-0.1v-0.1l0,0c0-0.1-0.1-0.2-0.1-0.4c-0.1-0.3-0.2-0.6-0.3-0.7C294.1,165.7,294.1,165.7,294,165.5L294,165.5
			L294,165.5C293.8,165.6,293.8,165.6,294,165.5C293.9,165.6,293.9,165.5,294,165.5C293.9,165.5,293.9,165.5,294,165.5L294,165.5z
			 M320.8,165.9c0.1,0,0.2,0,0.2,0.1l0,0c0.1,0.1,0.1,0.1,0.2,0.2c0,0.1,0,0.2,0.1,0.3c0,0.1,0,0.2,0.1,0.3l0,0
			c0,0.1,0.1,0.2,0.1,0.3s0.1,0.1,0.1,0.2c0.1,0.1,0.1,0.2,0.2,0.3s0.1,0.2,0.1,0.2v0.1l0,0l0,0h-0.1c-0.1,0-0.3-0.2-0.4-0.4
			l-0.1-0.1c-0.1-0.1-0.1-0.2-0.2-0.2c0,0,0,0-0.1,0s-0.1,0-0.2,0.1c-0.2,0.1-0.2,0.2-0.1,0.5c0,0.1,0.1,0.2,0.1,0.3s0,0.1,0,0.2
			l0,0l0,0l0,0l0,0l0,0l0,0l0,0l-0.1-0.1l0,0c0,0,0-0.1-0.1-0.1c-0.1-0.2-0.2-0.4-0.3-0.6c-0.1-0.1-0.1-0.2-0.2-0.3l0,0
			c0-0.1-0.1-0.2-0.1-0.3v-0.1c0-0.1,0-0.1,0-0.2l0,0l0,0c0,0,0,0,0.1-0.1c0.1,0,0.1-0.1,0.2-0.1s0.1-0.1,0.2-0.1h0.1h0.1h0.1
			C320.7,165.9,320.7,165.9,320.8,165.9L320.8,165.9L320.8,165.9L320.8,165.9z M320.9,166.2C320.8,166.2,320.8,166.2,320.9,166.2
			L320.9,166.2c-0.1,0-0.2,0-0.2,0c-0.1,0-0.1,0-0.2,0l0,0l0,0l0,0l-0.1,0.1l0,0l0,0v0.1c0,0,0,0,0,0.1l0,0l0,0l0,0l0,0h0.1l0,0l0,0
			c0,0,0,0,0.1,0s0.1-0.1,0.2-0.1l0.1-0.1c0.1-0.1,0.1-0.2,0.1-0.3l0,0C321,166.3,321,166.2,320.9,166.2L320.9,166.2L320.9,166.2z
			 M292,166.7h0.1h0.1c0,0,0.1,0.1,0.2,0.1c0.1,0.1,0.2,0.2,0.3,0.4c0,0.1,0.1,0.1,0.1,0.2c0,0.1,0.1,0.2,0.1,0.3v0.1
			c0,0.1,0,0.1,0,0.1v0.1l0,0c0,0.1-0.1,0.2-0.2,0.3l0,0c-0.1,0.1-0.3,0.2-0.4,0.2s-0.2,0-0.2,0c-0.1,0-0.2-0.1-0.3-0.2l-0.1-0.1
			c0,0,0,0-0.1-0.1c0,0-0.1-0.1-0.1-0.2c-0.1-0.1-0.1-0.3-0.2-0.5c0-0.1,0-0.2,0-0.3s0-0.1,0-0.2c0-0.1,0-0.1,0-0.1s0,0,0-0.1
			c0.1-0.2,0.3-0.3,0.5-0.3C291.8,166.7,291.9,166.7,292,166.7L292,166.7L292,166.7z M329,166.9L329,166.9L329,166.9
			c0.1,0.1,0.1,0.1,0.1,0.1v0.1c0,0.1,0,0.1,0,0.2v0.1c0,0.1,0,0.2-0.1,0.2c0,0.1-0.1,0.1-0.1,0.1s-0.1,0-0.1-0.1c0,0,0-0.1-0.1-0.2
			v-0.1C328.7,167.2,328.8,167,329,166.9C328.9,166.9,328.9,166.9,329,166.9C328.9,166.9,328.9,166.9,329,166.9L329,166.9z
			 M328.4,166.9c0.1,0,0.2,0,0.2,0.1c0,0,0,0.1,0,0.2v0.1c0,0.1,0,0.1,0,0.2c0,0.2-0.1,0.3-0.1,0.3s0,0-0.1,0c0,0,0,0-0.1,0l0,0l0,0
			c0,0,0-0.1,0-0.2c0-0.1,0-0.2,0-0.3s0-0.1,0-0.2C328.3,167,328.3,167,328.4,166.9C328.3,166.9,328.3,166.9,328.4,166.9
			L328.4,166.9z M327.8,166.9L327.8,166.9C327.8,166.9,327.9,166.9,327.8,166.9c0.1,0,0.1,0.2,0.1,0.4s0,0.4-0.1,0.4l0,0l0,0
			c0,0,0,0-0.1,0c0,0,0-0.1-0.1-0.1l0,0c0,0,0,0,0-0.1l0,0c0-0.1,0-0.1,0-0.2c0-0.2,0-0.3,0-0.3l0,0
			C327.7,166.9,327.8,166.9,327.8,166.9L327.8,166.9z M329.5,166.9L329.5,166.9L329.5,166.9C329.5,166.9,329.6,167,329.5,166.9
			c0.1,0.1,0.1,0.2,0.1,0.4s0,0.3-0.1,0.3l0,0c0,0,0,0-0.1,0c0,0,0,0-0.1,0l0,0l0,0c0,0,0,0,0-0.1l0,0l0,0c0-0.1,0-0.1,0-0.2
			c0-0.1,0-0.2,0-0.2C329.4,167,329.4,167,329.5,166.9C329.4,166.9,329.4,166.9,329.5,166.9L329.5,166.9z M291.9,167
			C291.9,167,291.8,167,291.9,167c-0.1,0-0.2,0-0.2,0.1l0,0l0,0c0,0.1-0.1,0.1-0.1,0.2v0.1c0,0.1,0,0.1,0,0.2c0,0.1,0,0.1,0.1,0.2
			c0,0.1,0.1,0.2,0.1,0.3l0.1,0.1c0,0,0.1,0.1,0.2,0.1h0.1l0,0l0,0h0.1c0.1,0,0.1-0.1,0.1-0.1l0,0c0,0,0,0,0-0.1V168
			c0-0.1,0-0.1,0-0.2c0-0.1-0.1-0.3-0.2-0.4c0-0.1-0.1-0.1-0.1-0.2C292.1,167.1,292,167,291.9,167L291.9,167L291.9,167z M330,167
			c0.1,0,0.1,0,0.1,0.1l0,0v0.1c0,0.1,0,0.1,0,0.2c0,0.1,0,0.1-0.1,0.1l0,0l0,0l0,0l0,0C329.8,167.5,329.8,167.2,330,167
			C329.9,167.1,329.9,167,330,167C329.9,167,329.9,167,330,167L330,167z M330.4,167.1C330.5,167.1,330.5,167.1,330.4,167.1
			c0.1,0,0.1,0.1,0.1,0.2c0,0.1,0,0.1-0.1,0.1l0,0l0,0l0,0c0,0,0,0,0-0.1C330.4,167.3,330.4,167.3,330.4,167.1L330.4,167.1
			L330.4,167.1z M327.4,167.2L327.4,167.2L327.4,167.2c0.1,0.1,0.1,0.1,0.1,0.1c0,0.1,0,0.2,0,0.3c0,0.2-0.1,0.3-0.1,0.3l0,0l0,0
			c-0.1-0.1-0.1-0.4,0-0.5l0,0C327.3,167.3,327.3,167.2,327.4,167.2C327.3,167.2,327.4,167.2,327.4,167.2L327.4,167.2L327.4,167.2z
			 M326.9,167.7L326.9,167.7l0.1,0.1c0,0.1,0,0.2-0.1,0.2h-0.1l0,0c0,0,0,0,0-0.1c0,0,0,0,0-0.1c0,0,0,0,0-0.1l0,0
			C326.8,167.7,326.8,167.7,326.9,167.7C326.8,167.7,326.9,167.7,326.9,167.7L326.9,167.7z M306.8,168.5
			C306.8,168.5,306.9,168.5,306.8,168.5c0,0,0.1,0.1,0,0.1c0,0.1-0.1,0.2-0.2,0.2l0,0l0,0c0,0,0,0,0-0.1
			C306.6,168.6,306.7,168.5,306.8,168.5L306.8,168.5L306.8,168.5L306.8,168.5z M306.2,168.6L306.2,168.6c0.1,0,0.2,0,0.2,0.1
			c0,0,0,0,0,0.1c0,0,0,0.1,0,0.2v0.1c0,0,0,0.1-0.1,0.1l0,0c0,0,0,0-0.1,0l0,0l0,0l0,0l0,0l0,0l0,0l0,0l0,0l0,0l0,0l0,0
			c0,0,0,0,0-0.1V169l0,0v-0.1l0,0l0,0C306.1,168.6,306.1,168.6,306.2,168.6L306.2,168.6L306.2,168.6z M329,168.6L329,168.6
			C329.1,168.6,329.1,168.6,329,168.6C329.1,168.7,329.1,168.7,329,168.6C329.1,168.7,329.1,168.7,329,168.6
			c0.1,0.1,0.1,0.2,0.1,0.3s0,0.2,0,0.4c0,0.3,0,0.5,0.1,0.7l0,0v0.1l0,0c0,0,0.1,0,0.1,0.1c0.1,0,0.2,0,0.3,0c0.1,0,0.2,0,0.2,0
			h0.1c0.1,0,0.1,0,0.2,0.1v0.1l0,0c0,0.1-0.3,0.1-0.7,0.1h-0.7v-1c0-0.3,0-0.5,0-0.6l0,0c0-0.1,0-0.2,0-0.2
			C329,168.7,329,168.6,329,168.6L329,168.6z M327.4,168.6C327.4,168.6,327.4,168.7,327.4,168.6L327.4,168.6
			C327.4,168.7,327.4,168.7,327.4,168.6C327.5,168.7,327.5,168.7,327.4,168.6c0.1,0.1,0.1,0.2,0.1,0.3s0,0.3,0,0.4
			c0,0.1,0,0.2,0,0.3c0,0.2-0.1,0.4-0.1,0.6c0,0.1,0,0.2-0.1,0.3c0,0,0,0,0,0.1l0,0l0,0v0.1c0,0,0,0-0.1,0.1c0,0,0,0-0.1,0
			s-0.1-0.1-0.2-0.2c0-0.1-0.1-0.1-0.1-0.2l-0.2-0.4l-0.1,0.5c0,0.2-0.1,0.3-0.1,0.4l0,0l0,0c0,0,0,0-0.1,0l0,0l0,0
			c0-0.1-0.1-0.1-0.2-0.3c0,0,0-0.1-0.1-0.1c0-0.1-0.1-0.2-0.1-0.3c-0.2-0.5-0.3-0.8-0.4-1v-0.1l0,0c0,0,0,0,0-0.1c0,0,0,0,0.1,0
			s0.2,0.2,0.4,0.5c0.1,0.1,0.1,0.2,0.2,0.3c0,0,0,0.1,0.1,0.1l0,0l0,0l0,0c0,0,0,0,0-0.1v-0.1c0-0.1,0.1-0.3,0.1-0.5
			c0-0.1,0-0.2,0.1-0.2l0,0l0,0l0,0c0,0,0,0,0.1,0l0,0l0,0c0,0,0,0,0,0.1s0.1,0.1,0.1,0.2l0.2,0.4l0.1-0.4c0-0.1,0-0.1,0.1-0.2
			c0,0,0,0,0-0.1l0,0v-0.1C327.3,168.7,327.3,168.7,327.4,168.6C327.3,168.7,327.3,168.7,327.4,168.6
			C327.3,168.7,327.3,168.7,327.4,168.6C327.3,168.7,327.3,168.7,327.4,168.6C327.3,168.7,327.3,168.7,327.4,168.6
			C327.4,168.7,327.4,168.6,327.4,168.6L327.4,168.6L327.4,168.6z M330.9,168.7L330.9,168.7C330.9,168.7,331,168.7,330.9,168.7
			c0,0.1,0.1,0.1,0.1,0.1c0,0.1,0,0.2,0,0.3s0,0.2,0,0.4v0.8l0.5,0.1h0.1c0.1,0,0.2,0,0.3,0.1c0,0,0.1,0,0.1,0.1c0,0,0,0,0,0.1
			c0,0,0,0,0,0.1l0,0l0,0l0,0l0,0l-0.1,0.1c-0.1,0-0.2,0-0.3,0c-0.2,0-0.4,0-0.6-0.1c-0.1,0-0.1,0-0.2,0h-0.1l0,0h-0.1
			c0,0,0-0.3,0-0.6l0,0c0-0.1,0-0.2,0-0.4C330.8,169,330.9,168.6,330.9,168.7L330.9,168.7z M328.1,168.7L328.1,168.7
			C328.1,168.7,328.2,168.7,328.1,168.7c0.1,0.1,0.1,0.2,0.1,0.2c0,0.1,0,0.2,0.1,0.4c0,0.4,0.1,0.8,0.1,1c0,0.1,0,0.2,0,0.2l0,0
			l0,0l0,0l0,0l0,0c0,0,0,0-0.1,0s-0.1,0-0.1,0l0,0v-0.1c0-0.2-0.1-0.4-0.1-1C328.1,169,328.1,168.8,328.1,168.7
			C328,168.8,328,168.7,328.1,168.7L328.1,168.7L328.1,168.7L328.1,168.7z M305.6,168.8L305.6,168.8
			C305.6,168.8,305.7,168.8,305.6,168.8c0.1,0,0.1,0,0.1,0l0,0c0,0,0,0,0.1,0.1s0.1,0.3,0.1,0.4c-0.1,0.2-0.3,0.2-0.3,0v-0.1v-0.1
			V169C305.4,168.8,305.5,168.8,305.6,168.8L305.6,168.8z M305.1,168.8L305.1,168.8L305.1,168.8L305.1,168.8c0.1,0,0.1,0,0.1,0l0,0
			c0.1,0.1,0.1,0.3,0.1,0.5c0,0.1,0,0.1,0,0.2l0,0h-0.1c0,0,0,0,0-0.1v-0.1c0-0.1-0.1-0.1-0.1-0.2C305.1,169,305.1,169,305.1,168.8
			L305.1,168.8L305.1,168.8C305,168.9,305,168.8,305.1,168.8C305,168.8,305,168.8,305.1,168.8C305,168.8,305,168.8,305.1,168.8
			C305,168.8,305,168.8,305.1,168.8L305.1,168.8L305.1,168.8z M304.6,168.9h0.1l0,0l0,0c0,0,0,0,0.1,0c0,0,0,0,0,0.1
			c0.1,0.1,0.1,0.2,0.1,0.4c0,0.1,0,0.1,0,0.1l0,0l0,0c0,0-0.1,0.1-0.1,0c0,0,0,0-0.1,0s-0.1-0.1-0.2-0.2c-0.1-0.2-0.1-0.3-0.1-0.3
			v-0.1l0,0l0,0C304.5,169,304.5,168.9,304.6,168.9C304.5,168.9,304.5,168.9,304.6,168.9L304.6,168.9z M304,169.1L304,169.1
			c0.1,0,0.2,0.2,0.2,0.4v0.1v0.1l0,0c0,0,0,0-0.1,0l0,0c0,0,0,0-0.1,0l-0.1-0.1l0,0l0,0v-0.1c0-0.1,0-0.1,0-0.2c0,0,0,0,0-0.1
			c0,0,0,0,0-0.1C303.9,169.1,304,169.1,304,169.1L304,169.1z M303.5,169.2L303.5,169.2c0.1,0,0.1,0.1,0.1,0.1s0,0,0,0.1l0,0v0.1
			l0,0c0,0.1,0,0.1,0,0.2v0.1l0,0l0,0l0,0h-0.1l0,0c0,0,0,0-0.1,0c0,0,0,0-0.1,0c0,0,0,0,0-0.1v-0.1v-0.1l0,0c0-0.1,0-0.2,0-0.2l0,0
			C303.4,169.3,303.5,169.2,303.5,169.2L303.5,169.2z M302.9,169.5C303,169.5,303,169.5,302.9,169.5c0.1,0,0.1,0,0.1,0.1l0,0
			c0,0,0.1,0.1,0.1,0.2v0.1v0.1l0,0l0,0l0,0l0,0l0,0l0,0c0,0,0,0,0-0.1v-0.1v-0.1C302.8,169.6,302.8,169.6,302.9,169.5
			C302.9,169.6,302.9,169.6,302.9,169.5L302.9,169.5L302.9,169.5L302.9,169.5L302.9,169.5L302.9,169.5L302.9,169.5z M323.2,169.5
			c0.1,0,0.2,0,0.2,0.1l0,0l0,0l0,0c0,0,0,0-0.1,0.1c0,0-0.1,0.1-0.2,0.1c0,0-0.1,0-0.2,0.1c-0.2,0.1-0.4,0.2-0.4,0.3l0,0
			c0,0.1,0,0.2,0.2,0.2c0,0,0,0,0.1,0h0.1c0.1,0,0.2,0,0.3,0.1l0,0l0,0c0,0,0,0,0,0.1s-0.1,0.1-0.2,0.2c-0.1,0.1-0.2,0.2-0.2,0.3
			s0,0.1,0.1,0.2l0,0c0.1,0,0.3,0,0.6-0.1c0.1,0,0.2,0,0.2,0l0,0l0,0l0,0v0.1c0,0,0,0.1-0.1,0.1c0,0,0,0-0.1,0
			c-0.1,0.1-0.2,0.1-0.3,0.2c-0.2,0.1-0.4,0.2-0.6,0.2c-0.1,0-0.2,0-0.2,0l0,0l0,0v-0.1c0-0.1,0-0.1-0.1-0.2l0,0
			c0-0.2-0.1-0.4-0.2-0.6c-0.1-0.4-0.2-0.9-0.2-1l0,0l0,0c0.1-0.1,0.3-0.2,0.8-0.3C323,169.6,323.1,169.5,323.2,169.5L323.2,169.5
			L323.2,169.5z M302.5,169.7L302.5,169.7C302.5,169.8,302.5,169.8,302.5,169.7c0.1,0,0.1,0.1,0.1,0.1s0,0,0,0.1c0,0,0,0,0,0.1
			s0,0.1-0.1,0.1h-0.1c0,0,0,0-0.1-0.1l0,0C302.4,169.9,302.4,169.8,302.5,169.7C302.4,169.7,302.4,169.7,302.5,169.7L302.5,169.7z
			 M307.3,169.8C307.4,169.8,307.4,169.8,307.3,169.8C307.4,169.8,307.4,169.8,307.3,169.8C307.4,169.8,307.4,169.8,307.3,169.8
			C307.4,169.8,307.4,169.8,307.3,169.8C307.4,169.8,307.4,169.8,307.3,169.8C307.4,169.8,307.4,169.8,307.3,169.8
			C307.4,169.8,307.4,169.8,307.3,169.8C307.4,169.8,307.4,169.8,307.3,169.8C307.4,169.8,307.4,169.9,307.3,169.8
			C307.4,169.9,307.4,169.9,307.3,169.8C307.4,169.9,307.4,169.9,307.3,169.8c0,0.1,0,0.1,0,0.1l0,0c0,0,0,0-0.1,0l0,0h-0.1l0,0
			c-0.1,0-0.1,0-0.2,0.1c-0.2,0.1-0.3,0.2-0.4,0.2c0,0,0,0,0,0.1s0,0.1,0,0.2l0,0c0,0,0,0,0,0.1c0.1,0.1,0.2,0.1,0.3,0.1h0.1
			c0,0,0,0,0.1,0c0,0,0,0,0.1,0l0,0l0,0h0.1l0,0l0,0l0,0l0,0l0,0l0,0c0,0,0,0-0.1,0l0,0c0,0,0,0-0.1,0s-0.1,0-0.2,0l0,0
			c-0.1,0-0.1,0.1-0.1,0.2c0,0,0,0,0,0.1s0,0.1,0,0.2c0,0,0,0,0,0.1l0,0l0,0c0,0,0,0,0.1,0.1l0,0c0,0,0.1,0,0.2,0s0.2,0,0.3,0
			c0.3-0.1,0.4-0.1,0.5,0l0,0c0,0,0,0,0,0.1l0,0c0,0,0,0.1-0.1,0.1l0,0c-0.1,0-0.2,0.1-0.3,0.1c-0.1,0-0.3,0.1-0.4,0.1
			c-0.4,0.1-0.5-0.1-0.7-0.9L306,170l0.2-0.1c0.1-0.1,0.4-0.2,0.7-0.2c0.1,0,0.1,0,0.2,0C307.3,169.8,307.3,169.8,307.3,169.8
			L307.3,169.8z M302,169.9L302,169.9h0.1c0,0,0,0,0,0.1l0,0c0,0.1-0.1,0.1-0.1,0.1c-0.1,0-0.1,0-0.1-0.1l0,0l0,0l0,0l0,0l0,0
			C301.9,169.9,302,169.9,302,169.9L302,169.9L302,169.9z M304.6,169.9L304.6,169.9c0.1,0,0.1,0,0.1,0c0,0.1-0.2,0.2-0.7,0.6
			c-0.5,0.3-0.9,0.6-1.3,0.9s-0.9,0.6-1.6,1.2c-0.2,0.1-0.3,0.2-0.5,0.4c-0.2,0.1-0.3,0.2-0.4,0.3s-0.3,0.2-0.4,0.3
			c-0.3,0.2-0.5,0.3-0.8,0.5c-0.4,0.2-0.9,0.5-1.5,0.8c-1.2,0.6-1.7,0.9-1.8,0.9c0,0,0,0-0.1,0l0,0l0,0l0,0c0,0,0-0.5,0-1v-0.9h-0.4
			c-0.1,0-0.1,0-0.2,0h-0.1l0,0h-0.1l0,0l0,0c0,0,0,0,0.1-0.1l0.1-0.1c0.1-0.1,0.3-0.2,0.5-0.3c0.4-0.2,0.9-0.6,1.1-0.8
			c0.2-0.1,0.6-0.4,1-0.6c0.1-0.1,0.3-0.2,0.4-0.2c0.3-0.2,0.6-0.3,0.8-0.4c0.1-0.1,0.2-0.1,0.3-0.1c0.1,0,0.2-0.1,0.2-0.1
			c0.1,0,0.2,0,0.3-0.1c0.1,0,0.2,0,0.3-0.1c0.7-0.1,1.6-0.3,2.4-0.4c0.6-0.1,1.4-0.2,1.7-0.3C304.2,170,304.5,170,304.6,169.9
			L304.6,169.9L304.6,169.9z M301.6,170L301.6,170C301.7,170.1,301.7,170.1,301.6,170C301.6,170.1,301.6,170.1,301.6,170
			c-0.2,0.1-0.2,0.1-0.1,0H301.6z M321.4,170.2L321.4,170.2L321.4,170.2L321.4,170.2L321.4,170.2
			C321.5,170.3,321.5,170.3,321.4,170.2C321.5,170.3,321.5,170.3,321.4,170.2c0.1,0,0.1,0.1,0.1,0.1l0,0l0,0l0,0l0,0l0,0l0,0
			c0,0.1,0,0.1,0.1,0.2l0,0c0.1,0.3,0.1,0.6,0.2,0.8l0,0c0,0.1,0,0.2,0,0.3c0,0.2,0,0.3,0,0.4v0.1l0,0c-0.1,0.2-0.4,0.1-0.6-0.3
			l-0.3-0.5v0.6c0,0.1,0,0.2,0,0.3l0,0l0,0c0,0.2,0,0.3,0,0.4v0.1c0,0-0.1,0-0.2-0.2c-0.1-0.1-0.2-0.3-0.4-0.5
			c-0.2-0.3-0.4-0.5-0.5-0.7c-0.1-0.1-0.1-0.2-0.1-0.2c-0.1-0.1-0.1-0.2,0-0.2l0,0c0,0,0.1,0,0.1,0.1l0,0c0.1,0.1,0.2,0.2,0.3,0.3
			l0.5,0.5v-0.7c-0.1-0.8,0-0.9,0.4-0.3c0.2,0.2,0.3,0.3,0.3,0.4l0,0c0,0,0-0.2,0-0.4s-0.1-0.5-0.1-0.5
			C321.3,170.3,321.3,170.3,321.4,170.2C321.3,170.2,321.3,170.2,321.4,170.2L321.4,170.2L321.4,170.2L321.4,170.2L321.4,170.2z
			 M312.9,170.3h0.1c0,0,0.1,0,0.1,0.1l0.1,0.1c0,0,0,0,0.1,0.1l0.1,0.1l0.1,0.1l0.1,0.1l0,0l0,0c0,0,0,0-0.1,0c0,0-0.1,0-0.2,0
			s-0.2,0-0.3,0l0,0c0,0,0,0,0,0.1l0,0l0,0l0,0c0,0,0,0,0.1,0.1l0,0l0,0l0,0l0,0l0,0c0,0,0,0,0,0.1l0,0c-0.1,0-0.1,0-0.2-0.1l0,0
			l-0.1-0.1l0,0l-0.1-0.1c-0.1-0.1-0.1-0.1-0.1-0.2l0,0c0-0.1-0.1-0.2-0.1-0.2v-0.1l0,0c0,0,0,0,0-0.1l0,0c0,0,0-0.1,0.1-0.1l0,0
			l0,0l0,0l0,0h0.1l0,0C312.8,170.3,312.8,170.3,312.9,170.3L312.9,170.3L312.9,170.3L312.9,170.3z M312.9,170.4L312.9,170.4
			L312.9,170.4c-0.1,0-0.1,0.1-0.1,0.1v0.1l0,0c0,0,0,0,0,0.1l0,0c0.1,0.1,0.2,0,0.3-0.1v-0.1C313.1,170.5,313.1,170.4,312.9,170.4
			C313,170.4,313,170.4,312.9,170.4L312.9,170.4L312.9,170.4z M305.5,170.6L305.5,170.6c0.1,0,0.1,0.1,0.1,0.2v0.1v0.1
			c0,0.2-0.1,0.5-0.1,0.8l-0.1,0.7l0.3-0.2c0.1-0.1,0.2-0.1,0.3-0.1c0.1,0,0.1,0,0.2-0.1c0,0,0,0,0.1,0l0,0v0.1c0,0,0,0,0,0.1
			c0,0,0,0,0,0.1c0,0,0,0-0.1,0.1s-0.2,0.2-0.4,0.3c-0.3,0.2-0.6,0.3-0.6,0.3l0,0l0,0l0,0c0,0,0,0,0-0.1s0-0.3,0-0.7l0,0
			c0-0.2,0-0.3,0.1-0.5c0-0.1,0-0.2,0-0.3c0-0.2,0-0.3,0-0.4V171l0,0c-0.1,0-0.2,0.1-0.3,0.1c-0.1,0.1-0.2,0.1-0.2,0.1
			c-0.1,0-0.1,0.1-0.2,0.1c0,0,0,0-0.1,0l0,0l0,0l0,0c0,0,0,0,0-0.1C304.3,171.1,305.2,170.6,305.5,170.6L305.5,170.6z M290.8,170.7
			L290.8,170.7L290.8,170.7C290.8,170.7,290.9,170.8,290.8,170.7c0.1,0,0.1,0.1,0.1,0.1l0,0c0,0,0,0,0,0.1l0,0l0,0l0,0l0,0l0,0
			c0,0-0.1,0-0.1-0.1C290.8,170.8,290.8,170.8,290.8,170.7c0,0,0,0,0-0.1C290.8,170.8,290.7,170.8,290.8,170.7L290.8,170.7
			C290.7,170.8,290.7,170.8,290.8,170.7C290.8,170.8,290.8,170.7,290.8,170.7L290.8,170.7z M312,171L312,171L312,171
			c0.1,0,0.1,0.1,0.2,0.1c0,0,0,0,0.1,0.1l0.1,0.1c0,0,0,0.1,0.1,0.1c0,0,0,0.1,0.1,0.1v0.1c0,0.1,0.1,0.1,0.1,0.2v0.1
			c0,0.1,0,0.1,0,0.2c0,0.1,0,0.2,0,0.2c0,0.1-0.1,0.2-0.1,0.3l0,0l0,0c-0.2,0.1-0.5,0.1-0.7,0c0,0,0,0-0.1-0.1s-0.1-0.1-0.2-0.2
			l-0.1-0.1c-0.1-0.1-0.1-0.2-0.1-0.3l0,0l0,0l0,0l0,0l0,0l0,0c0.1,0,0.2,0.1,0.3,0.2c0.1,0.1,0.1,0.1,0.2,0.2c0,0,0.1,0,0.1,0.1
			c0.1,0.1,0.2,0.1,0.2,0.1l0,0v-0.1l0,0c0,0,0-0.1,0-0.2l0,0l0,0c0,0,0-0.1,0-0.2l0,0c0-0.1-0.1-0.2-0.1-0.2s0-0.1-0.1-0.1l0,0
			c0-0.1-0.1-0.1-0.1-0.2l0,0C311.9,171.2,311.9,171.1,312,171L312,171C312,171.1,312,171,312,171L312,171z M290.5,171.4
			c0,0,0.2,0.1,0.3,0.2c0,0,0.1,0.1,0.1,0.2l0.1,0.1c0,0.1-0.1,0.1-0.2,0l0,0c-0.1,0-0.1-0.1-0.2-0.2c0-0.1-0.1-0.1-0.1-0.2
			C290.4,171.4,290.4,171.4,290.5,171.4L290.5,171.4L290.5,171.4z M329.5,171.4L329.5,171.4C329.6,171.4,329.6,171.4,329.5,171.4
			c0.1,0,0.1,0,0.1,0.1c0,0,0,0,0.1,0.1c0,0.1,0.1,0.1,0.1,0.2c0,0.1,0.1,0.2,0.1,0.3s0,0.1,0,0.2c0,0.2,0,0.3,0,0.4
			c0,0.1,0,0.2-0.1,0.2c0,0,0,0-0.1,0c0,0,0,0-0.1,0c0,0,0,0-0.1-0.1l0,0l0,0c-0.1-0.2-0.1-0.6-0.2-0.9
			C329.4,171.6,329.4,171.5,329.5,171.4C329.4,171.4,329.5,171.4,329.5,171.4L329.5,171.4z M328.5,171.4L328.5,171.4
			C328.6,171.5,328.6,171.5,328.5,171.4c0.1,0,0.1,0,0.1,0.1c0,0,0,0,0,0.1s0.1,0.3,0.1,0.5s0,0.3,0,0.6c0,0.2,0,0.3,0,0.4v0.1l0,0
			c0,0,0,0-0.1,0s-0.1-0.1-0.2-0.4c0-0.1,0-0.3-0.1-0.5c0-0.4,0-0.6,0-0.7C328.4,171.5,328.4,171.5,328.5,171.4
			C328.4,171.5,328.4,171.5,328.5,171.4L328.5,171.4L328.5,171.4z M330,171.5L330,171.5h0.1l0.1,0.1l0,0c0,0,0,0.1,0.1,0.2
			c0,0,0,0.1,0,0.2c0,0.1,0,0.1,0,0.2c0,0.1,0,0.2,0,0.2c0,0.1,0,0.1,0,0.1l0,0l0,0h-0.1h-0.1c0,0-0.1,0-0.1-0.1l0,0c0,0,0,0,0-0.1
			l0,0c0,0,0-0.1,0-0.2V172c0-0.2-0.1-0.3-0.1-0.5v-0.1C329.9,171.6,329.9,171.5,330,171.5L330,171.5L330,171.5z M331.2,171.5
			c0.1,0,0.2,0,0.2,0.1c0,0,0.1,0.1,0.1,0.2c0,0.1,0,0.2,0.1,0.2c0,0.2,0,0.3,0,0.3l0,0c0,0,0,0-0.1,0c0,0,0,0-0.1,0h-0.1l0,0
			c0-0.1-0.1-0.2-0.1-0.5C331.1,171.7,331.1,171.6,331.2,171.5L331.2,171.5C331.1,171.6,331.1,171.5,331.2,171.5L331.2,171.5
			L331.2,171.5z M329,171.5L329,171.5L329,171.5L329,171.5C329,171.5,329,171.6,329,171.5C329,171.6,329,171.6,329,171.5
			c0.1,0.1,0.1,0.1,0.1,0.1l0,0c0,0,0,0,0,0.1c0,0,0,0.1,0.1,0.2l0,0l0,0l0,0c0,0.1,0.1,0.2,0.1,0.4v0.1l0,0c0,0.1,0,0.2,0,0.2l0,0
			c0,0.1,0,0.1,0,0.2l0,0v0.1v0.1l0,0h-0.1l0,0l0,0l-0.1-0.1c0-0.1-0.1-0.1-0.1-0.2c0-0.1,0-0.2,0-0.2c0-0.1,0-0.1,0-0.2l0,0
			c0-0.1,0-0.1,0-0.2c0-0.1,0-0.1,0-0.2l0,0v-0.1l0,0C328.9,171.7,328.9,171.6,329,171.5L329,171.5
			C328.9,171.6,328.9,171.6,329,171.5L329,171.5C328.9,171.6,329,171.6,329,171.5C329,171.6,329,171.6,329,171.5L329,171.5
			L329,171.5L329,171.5L329,171.5z M330.7,171.5L330.7,171.5c0.1,0,0.1,0,0.2,0.1l0,0l0,0l0,0l0,0v0.1c0,0.1,0.1,0.3,0.1,0.4v0.1
			l0,0c0,0,0,0,0,0.1l0,0l0,0l0,0l0,0c0,0,0,0-0.1,0s-0.2-0.1-0.2-0.3c0-0.1-0.1-0.2-0.1-0.3C330.5,171.6,330.5,171.6,330.7,171.5
			L330.7,171.5z M328.1,171.6L328.1,171.6c0.1,0.1,0.1,0.1,0.1,0.2c0,0.1,0.1,0.2,0.1,0.4c0,0.3,0.1,0.6,0.1,0.7c0,0.1,0,0.2,0,0.2
			s0,0-0.1,0l0,0l-0.1-0.1v-0.1l0,0c0-0.1,0-0.1,0-0.2l0,0c0-0.2,0-0.5,0-0.7C328,171.8,328,171.7,328.1,171.6
			C328,171.6,328,171.6,328.1,171.6L328.1,171.6L328.1,171.6z M327.6,171.6C327.7,171.6,327.7,171.6,327.6,171.6
			C327.7,171.6,327.7,171.6,327.6,171.6c0.1,0,0.1,0,0.1,0c0,0.1,0.1,0.2,0.1,0.5c0,0.1,0,0.3,0,0.5l0,0c0,0.1,0.1,0.3,0.1,0.4
			c0,0.1,0.1,0.2,0.1,0.2l0,0c0,0,0,0,0,0.1l0,0l0,0c-0.1,0-0.1-0.1-0.2-0.2c-0.1-0.1-0.1-0.2-0.2-0.2l0,0c-0.1-0.3-0.2-0.6-0.2-0.9
			v-0.1l0,0c0-0.1,0-0.1,0-0.1l0,0C327.4,171.6,327.4,171.6,327.6,171.6L327.6,171.6L327.6,171.6L327.6,171.6z M331.8,171.6
			L331.8,171.6C331.8,171.6,331.9,171.6,331.8,171.6C331.9,171.6,331.9,171.6,331.8,171.6C331.9,171.6,331.9,171.6,331.8,171.6
			c0.1,0,0.1,0.1,0.1,0.1l0,0l0,0l0,0l0,0l0,0l0,0l0,0c0,0,0,0,0,0.1l0,0v0.1v0.1c0,0,0,0.1-0.1,0.1l0,0l0,0l0,0c0,0,0,0-0.1,0l0,0
			C331.8,172.2,331.6,171.7,331.8,171.6L331.8,171.6L331.8,171.6L331.8,171.6z M303.6,171.7c0,0,0.1,0,0.1,0.1
			c0.1,0.1,0.2,0.3,0.3,0.5l0,0c0,0.1,0.1,0.1,0.1,0.2c0.3,0.6,0.4,1.1,0.3,1.1l0,0c0,0-0.1-0.1-0.2-0.2c-0.1-0.1-0.2-0.3-0.3-0.4
			l0,0c-0.1-0.2-0.2-0.3-0.3-0.5c-0.1-0.2-0.2-0.3-0.2-0.4l0,0c0-0.1,0-0.1-0.1-0.1v-0.1C303.4,171.8,303.4,171.7,303.6,171.7
			C303.5,171.7,303.5,171.7,303.6,171.7L303.6,171.7z M332.4,171.7L332.4,171.7c0,0,0.1,0,0.1,0.1v0.1v0.1l0,0l0,0h-0.1l0,0l0,0
			c0,0,0,0,0-0.1c0,0,0,0,0-0.1V171.7C332.3,171.8,332.3,171.7,332.4,171.7L332.4,171.7L332.4,171.7z M327,171.7L327,171.7
			L327,171.7C327,171.8,327.1,171.8,327,171.7c0.1,0.2,0.2,0.4,0.2,0.6c0,0.1,0,0.2,0.1,0.2c0,0.2,0.1,0.3,0,0.4l0,0
			c0,0-0.1,0-0.2-0.1s-0.2-0.2-0.2-0.7c0-0.1,0-0.2,0-0.3C326.9,172,326.9,171.9,327,171.7C327,171.8,327,171.8,327,171.7L327,171.7
			C327,171.8,327,171.8,327,171.7C327,171.8,327,171.8,327,171.7L327,171.7L327,171.7z M309.8,171.8c0.1,0,0.1,0,0.1,0.1l0,0l0,0
			v0.1l0,0l0,0c0,0-0.1,0-0.2-0.1C309.7,171.9,309.7,171.8,309.8,171.8C309.7,171.8,309.7,171.8,309.8,171.8
			C309.7,171.8,309.7,171.8,309.8,171.8C309.7,171.8,309.8,171.8,309.8,171.8L309.8,171.8L309.8,171.8z M326.6,171.8l0.1,0.1v0.1
			l0,0v0.1c0,0.1,0,0.1,0,0.2l0,0v0.1c0,0.1,0,0.1,0,0.1l0,0l0,0l0,0c0,0,0-0.1-0.1-0.1c0-0.1-0.1-0.3,0-0.5l0,0
			C326.6,171.9,326.6,171.9,326.6,171.8L326.6,171.8C326.5,171.8,326.5,171.8,326.6,171.8L326.6,171.8L326.6,171.8L326.6,171.8z
			 M309.1,172.1L309.1,172.1h0.1l0,0h0.1l0,0h0.1l0,0c0,0,0,0,0.1,0l0,0l0,0l0,0l0,0l0,0l0,0l0,0l0,0v0.1c0,0-0.1,0.1-0.2,0.1h-0.1
			c-0.1,0-0.2,0-0.3,0h-0.1c-0.1,0-0.1,0-0.2-0.1l0,0l0,0l0,0l0,0l0,0l0,0c0,0,0.1-0.1,0.2-0.1C309,172.1,309.1,172.1,309.1,172.1
			L309.1,172.1z M302.7,172.4L302.7,172.4c0.1,0,0.1,0,0.2,0l0,0c0,0,0.1,0,0.1,0.1l0,0l0,0l0,0l0,0c0,0,0,0,0,0.1l0,0
			c0,0,0,0.1,0.1,0.1v0.1v0.1c0,0,0,0,0,0.1c0,0,0,0,0,0.1v0.1c0,0,0,0,0,0.1l0.1,0.1c0,0,0,0.1,0.1,0.1l0.1,0.1
			c0.2,0.2,0.3,0.3,0.3,0.3v0.1l0,0c-0.1,0.1-0.1,0.1-0.2,0c-0.1,0-0.1-0.1-0.2-0.2l-0.1-0.1c-0.1-0.1-0.2-0.1-0.2-0.1l0,0
			c0,0,0,0-0.1,0h-0.1h-0.1l0,0v0.1v0.1c0,0.1,0,0.3,0.1,0.3l0,0l0,0c0,0,0,0,0,0.1v0.1v0.1c0,0.1,0,0.2,0,0.2l0,0l0,0
			c-0.1,0-0.2-0.1-0.3-0.3c-0.1-0.1-0.2-0.3-0.3-0.5c-0.1-0.2-0.2-0.5-0.3-0.7V173v-0.1c0-0.1,0-0.1,0-0.1v-0.1l0,0l0,0
			c0.1-0.1,0.2-0.1,0.3-0.2C302.3,172.5,302.5,172.4,302.7,172.4L302.7,172.4z M310.8,172.4L310.8,172.4h0.1c0,0,0,0,0.1,0
			c0.1,0.1,0.2,0.2,0.3,0.3c0.1,0.1,0.1,0.2,0.2,0.3c0,0.1,0,0.1,0.1,0.2l0,0c0,0,0,0,0,0.1l0,0c0,0,0,0,0,0.1l0,0
			c0,0.1,0,0.1,0,0.2c0,0,0,0,0,0.1s0,0.1-0.1,0.2c0,0,0,0,0,0.1c0,0,0,0-0.1,0.1l0,0l0,0c0,0-0.1,0-0.1,0.1l-0.1,0.1h-0.1H311h-0.1
			c0,0,0,0-0.1,0l0,0l0,0c0,0,0,0-0.1-0.1l-0.1-0.1c0-0.1-0.1-0.1-0.1-0.2c0-0.1,0-0.1-0.1-0.2l0,0v-0.1v-0.1v-0.1
			c0-0.1,0-0.1,0-0.2v-0.1l0,0c0,0,0,0,0-0.1s0.1-0.2,0.2-0.3c0.1,0,0.1-0.1,0.2-0.1C310.7,172.4,310.7,172.4,310.8,172.4
			L310.8,172.4L310.8,172.4z M308.5,172.5L308.5,172.5c0.1,0,0.2,0,0.3,0l0,0h0.1l0,0h0.1c0.1,0,0.3,0,0.3,0.1l0,0l0,0v0.1l0,0l0,0
			c0,0,0,0-0.1,0s-0.3,0-0.5,0c-0.3,0-0.6-0.1-0.6-0.2l0,0c0,0,0,0,0.1,0C308.3,172.5,308.4,172.5,308.5,172.5L308.5,172.5z
			 M302.6,172.8L302.6,172.8c-0.1,0-0.2,0.1-0.3,0.1c-0.1,0.1-0.2,0.2-0.2,0.3v0.1l0,0l0,0c0.1,0.1,0.3,0.1,0.5-0.1c0,0,0,0,0.1-0.1
			s0.1-0.1,0.1-0.2l0,0v-0.1c0,0,0,0,0-0.1l0,0C302.7,172.8,302.6,172.8,302.6,172.8L302.6,172.8z M310.8,172.8L310.8,172.8
			L310.8,172.8C310.7,172.8,310.7,172.8,310.8,172.8c-0.1,0-0.1,0-0.1,0.1l0,0c0,0,0,0,0,0.1v0.1v0.1c0,0.1,0,0.1,0.1,0.2
			c0,0,0,0.1,0.1,0.1c0,0,0,0.1,0.1,0.1l0,0h0.1h0.1h0.1c0,0,0,0,0.1-0.1l0,0v-0.1c0,0,0,0,0-0.1c0,0,0,0,0-0.1l0,0l0,0l0,0l0,0l0,0
			l0,0c0,0,0,0,0-0.1c0,0,0,0,0-0.1l0,0c0,0,0,0,0-0.1l0,0c0,0,0,0,0-0.1c0,0,0,0-0.1-0.1l0,0l0,0l0,0
			C310.9,172.9,310.9,172.9,310.8,172.8C310.9,172.9,310.8,172.9,310.8,172.8C310.8,172.9,310.8,172.8,310.8,172.8L310.8,172.8
			L310.8,172.8z M308,172.9C308.1,172.9,308.1,172.9,308,172.9c0.2,0,0.5,0.1,0.7,0.1s0.3,0,0.4,0.1h0.1l0,0l0,0l0,0c0,0,0,0-0.1,0
			c0,0-0.1,0-0.2,0c0,0-0.1,0-0.2,0s-0.1,0-0.2,0s-0.1,0-0.2,0l0,0c-0.1,0-0.2,0-0.3-0.1c-0.1,0-0.1-0.1-0.1-0.1l0,0l0,0
			C308,173,308,173,308,172.9C308,173,308,172.9,308,172.9L308,172.9L308,172.9L308,172.9L308,172.9z M322.8,173L322.8,173
			L322.8,173c0.1,0,0.1,0,0.2,0.1c0,0,0.1,0,0.1,0.1c0,0,0,0,0.1,0s0.1,0.1,0.2,0.1l0.1,0.1c0.1,0.1,0.1,0.1,0.1,0.1l-0.1,0.1
			c0,0,0,0-0.1,0s-0.3,0-0.3,0c-0.1-0.2-0.2-0.3-0.2-0.5C322.8,173.1,322.8,173.1,322.8,173C322.8,173.1,322.8,173,322.8,173
			L322.8,173L322.8,173L322.8,173L322.8,173L322.8,173z M322.3,173c0,0,0.1,0,0.1,0.1l0.1,0.1c0.1,0.2,0.2,0.4,0.3,0.5l0,0v0.1
			c0,0,0,0,0,0.1l0,0l0,0l0,0h-0.1c0,0,0,0-0.1,0c0,0-0.1,0-0.1-0.1c-0.1,0-0.1-0.1-0.1-0.2c-0.1-0.1-0.1-0.2-0.1-0.2l0,0
			c-0.1-0.1-0.1-0.2,0-0.3C322.2,173.1,322.3,173.1,322.3,173L322.3,173L322.3,173z M321.8,173.2L321.8,173.2L321.8,173.2
			C321.9,173.3,321.9,173.3,321.8,173.2c0.1,0,0.1,0.1,0.2,0.1c0.2,0.1,0.3,0.4,0.4,0.6c0,0,0,0,0,0.1l0,0c0,0,0,0,0,0.1
			s-0.1,0.2-0.1,0.2l0,0h-0.1c0,0-0.1,0-0.1-0.1s-0.1-0.1-0.1-0.1s0-0.1-0.1-0.1l0,0c0,0,0,0,0-0.1s-0.1-0.1-0.1-0.1l0,0
			C321.6,173.5,321.6,173.4,321.8,173.2C321.7,173.3,321.7,173.3,321.8,173.2L321.8,173.2L321.8,173.2z M308,173.4h0.1
			c0.1,0,0.1,0,0.2,0s0.3,0.1,0.3,0.1l0,0h0.1l0,0l0,0l0,0l0,0h-0.1c-0.1,0-0.3,0-0.5,0H308l0,0c0,0,0,0-0.1,0l0,0
			C308,173.6,307.9,173.5,308,173.4C307.9,173.5,307.9,173.4,308,173.4C307.9,173.4,307.9,173.4,308,173.4L308,173.4z M321.3,173.5
			c0,0,0.1,0,0.1,0.1c0,0,0,0,0,0.1c0.1,0.1,0.1,0.2,0.2,0.3c0.1,0.2,0.2,0.4,0.2,0.5l-0.1,0.1l0,0l0,0c0,0,0,0-0.1,0l0,0
			c0,0,0,0-0.1-0.1l0,0c0-0.1-0.1-0.1-0.2-0.2c-0.1-0.2-0.2-0.3-0.2-0.4c0-0.1,0-0.1,0-0.2l0,0l0,0
			C321.2,173.6,321.2,173.5,321.3,173.5L321.3,173.5z M301.1,173.6h0.1l0,0c0,0,0.1,0,0.1,0.1l0.1,0.1c0,0,0,0.1,0.1,0.1
			c0,0.1,0,0.1,0,0.2l0,0c0,0,0,0,0,0.1l0,0c0,0.1,0,0.1-0.1,0.2c0,0-0.1,0.1-0.1,0.2c-0.1,0.2-0.3,0.3-0.4,0.4l0,0c0,0,0,0,0,0.1
			s0,0.2,0.1,0.4c0,0.1,0.1,0.1,0.1,0.2l0,0c0,0.1,0.1,0.2,0.1,0.2l0,0l0,0l0,0v0.1l0,0l0,0l0,0l0,0l0,0l0,0l0,0c0,0,0,0-0.1,0
			c-0.1-0.1-0.2-0.3-0.4-0.5c-0.2-0.3-0.4-0.7-0.5-0.9l-0.2-0.4l0.2-0.2l0.1-0.1c0,0,0.1,0,0.1-0.1c0,0,0.1,0,0.1-0.1
			c0,0,0.1,0,0.1-0.1c0.1,0,0.2-0.1,0.2-0.1h0.1C301,173.6,301,173.6,301.1,173.6L301.1,173.6L301.1,173.6z M323.8,173.7
			L323.8,173.7L323.8,173.7c0.1,0,0.2,0,0.2,0.1c0.1,0.1,0.2,0.2,0.2,0.3v0.1c0,0.1,0,0.1,0,0.1l0,0l0,0l0,0c0,0,0,0-0.1,0
			c0,0-0.1-0.1-0.2-0.1c0,0-0.1,0-0.1-0.1c-0.1-0.1-0.1-0.2-0.1-0.3C323.6,173.8,323.6,173.8,323.8,173.7
			C323.7,173.8,323.7,173.8,323.8,173.7C323.7,173.8,323.7,173.8,323.8,173.7C323.7,173.7,323.7,173.7,323.8,173.7L323.8,173.7z
			 M320.8,173.8L320.8,173.8L320.8,173.8c0.1,0,0.1,0,0.1,0.1c0.1,0.1,0.2,0.2,0.3,0.3c0.1,0.1,0.1,0.2,0.1,0.2v0.1c0,0,0,0,0,0.1
			l0,0l0,0c0,0,0,0-0.1,0s-0.2-0.1-0.3-0.3c-0.1-0.1-0.1-0.2-0.2-0.2c0-0.1-0.1-0.1-0.1-0.2l0,0c0,0,0,0,0-0.1l0,0
			C320.7,173.8,320.7,173.8,320.8,173.8L320.8,173.8L320.8,173.8z M307.8,173.8c0,0,0.1,0,0.2,0s0.1,0,0.2,0.1
			c0.1,0,0.2,0.1,0.2,0.1l0,0l0,0c0,0,0,0,0,0.1c0,0-0.1,0.1-0.2,0.1s-0.1,0-0.2,0h-0.1l0,0l0,0c-0.1-0.1-0.1-0.1-0.1-0.2l0,0l0,0
			C307.7,173.8,307.7,173.8,307.8,173.8L307.8,173.8L307.8,173.8L307.8,173.8z M300.9,174C300.8,174,300.8,174,300.9,174
			c-0.1,0-0.2,0-0.2,0s0,0-0.1,0l0,0l0,0c-0.1,0.1-0.2,0.2-0.2,0.3v0.1c0,0,0,0.1,0.1,0.1l0.1,0.1l0,0c0.1,0,0.1-0.1,0.3-0.2
			l0.1-0.1v-0.1v-0.1C301,174.1,301,174.1,300.9,174l0.1-0.1c0,0,0,0-0.1,0l0,0C301,174,300.9,174,300.9,174L300.9,174z M294.8,174
			C294.9,174,294.9,174,294.8,174C294.9,174,294.9,174,294.8,174c0.1,0.1,0.1,0.1,0.2,0.2v0.1v0.1v0.1v0.1c0,0,0,0,0,0.1l0,0l0,0
			l0,0l-0.1-0.1c0-0.1,0-0.1-0.1-0.2v-0.1C294.8,174.1,294.8,174.1,294.8,174C294.8,174.1,294.8,174,294.8,174L294.8,174L294.8,174
			L294.8,174z M295.3,174L295.3,174L295.3,174C295.4,174,295.4,174,295.3,174c0.1,0.1,0.1,0.1,0.1,0.1l0,0c-0.1,0.1-0.1,0.1-0.1,0.1
			s0,0,0-0.1C295.3,174.1,295.3,174.1,295.3,174C295.2,174,295.3,174,295.3,174L295.3,174z M323.3,174c0,0,0.1,0.1,0.2,0.2l0.1,0.1
			c0.1,0.1,0.1,0.1,0.2,0.2l0.1,0.1l0,0l0,0l0,0h-0.1l0,0l0,0l0,0c0,0-0.1,0-0.1-0.1c-0.1-0.1-0.3-0.3-0.3-0.5c0,0,0,0,0-0.1l0,0
			C323.3,174.1,323.3,174.1,323.3,174L323.3,174L323.3,174L323.3,174z M294.3,174.1L294.3,174.1L294.3,174.1
			c0.1,0.1,0.2,0.2,0.2,0.3c0,0,0,0.1,0.1,0.1v0.1v0.1v0.1c0,0.1-0.1,0.1-0.1,0.1h-0.1l0,0c0-0.1-0.1-0.1-0.1-0.2
			c0-0.1-0.1-0.2-0.1-0.3l0,0C294.2,174.2,294.2,174.1,294.3,174.1L294.3,174.1L294.3,174.1z M320.3,174.1L320.3,174.1
			c0.1,0,0.1,0,0.1,0s0.1,0.1,0.2,0.1c0.1,0.1,0.1,0.1,0.1,0.2l0,0l0,0l0,0l0,0h-0.1l0,0l0,0h-0.1h-0.1l0,0c0,0-0.1,0-0.1-0.1
			C320,174.2,320,174.2,320.3,174.1C320.2,174.1,320.3,174.1,320.3,174.1L320.3,174.1z M322.9,174.2L322.9,174.2c0,0,0.1,0,0.2,0.1
			l0.1,0.1c0.1,0.1,0.2,0.3,0.3,0.4v0.1l0,0c0,0,0,0,0,0.1h-0.1h-0.1c-0.1,0-0.2-0.1-0.3-0.3l-0.1-0.1c0,0,0-0.1-0.1-0.1
			c0-0.1,0-0.1-0.1-0.1c0,0,0,0,0-0.1l0,0l0,0C322.8,174.3,322.8,174.3,322.9,174.2L322.9,174.2L322.9,174.2z M307.7,174.2
			L307.7,174.2c0.1,0,0.1,0,0.1,0.1l0,0c0,0.1,0,0.1-0.1,0.2c-0.1,0-0.2,0-0.2,0l0,0c0,0,0,0,0-0.1
			C307.5,174.3,307.6,174.2,307.7,174.2L307.7,174.2z M293.9,174.3L293.9,174.3C294,174.3,294,174.3,293.9,174.3L293.9,174.3
			C294,174.3,294,174.3,293.9,174.3c0.1,0.1,0.2,0.2,0.2,0.4c0,0.1,0.1,0.2,0.1,0.3s0,0.1,0,0.2l0,0c0,0,0,0,0,0.1l0,0l0,0
			c0,0,0,0-0.1,0l0,0l0,0l0,0c0,0,0,0,0-0.1l0,0v-0.1c-0.1-0.2-0.1-0.3-0.1-0.4c0-0.1,0-0.1,0-0.2v-0.1
			C293.8,174.3,293.8,174.3,293.9,174.3L293.9,174.3L293.9,174.3L293.9,174.3z M322.5,174.5L322.5,174.5c0,0,0.1,0,0.2,0.1l0,0
			c0,0,0,0.1,0.1,0.1c0,0.1,0.1,0.1,0.1,0.2l0,0l0,0l0,0l0,0c0,0,0,0-0.1,0h-0.1c0,0,0,0-0.1,0l0,0h-0.1l0,0v-0.1l0,0c0,0,0,0,0-0.1
			C322.4,174.6,322.4,174.5,322.5,174.5C322.4,174.5,322.4,174.5,322.5,174.5L322.5,174.5L322.5,174.5z M293.4,174.6L293.4,174.6
			c0.1,0,0.1,0,0.1,0s0,0,0.1,0l0.1,0.1v0.1c0,0.1,0,0.1,0,0.2c0,0,0,0,0,0.1l0,0c0,0,0,0,0,0.1l0,0c0,0,0,0,0,0.1
			c0,0,0,0.1-0.1,0.1l0,0l0,0c0,0,0,0-0.1,0c0,0,0,0-0.1-0.1c0,0,0-0.1-0.1-0.1l0,0c0,0,0-0.1-0.1-0.1l0,0c0-0.1-0.1-0.2-0.1-0.3
			l0,0l0,0v-0.1C293.3,174.7,293.3,174.7,293.4,174.6C293.3,174.7,293.4,174.6,293.4,174.6L293.4,174.6L293.4,174.6z M322.1,174.7
			C322.1,174.7,322.2,174.7,322.1,174.7C322.2,174.8,322.2,174.8,322.1,174.7C322.1,174.8,322.1,174.8,322.1,174.7
			c-0.1,0.1-0.1,0.1-0.1,0.1l0,0l0,0C322,174.7,322.1,174.7,322.1,174.7L322.1,174.7L322.1,174.7z M295.2,174.8
			c0.1,0,0.1,0.2,0.1,0.9c0,0.1,0,0.2-0.1,0.2l0,0l0,0l0,0l0,0l0,0c0-0.1,0-0.3,0-0.5C295.1,175.2,295.1,175,295.2,174.8
			C295.1,174.9,295.1,174.9,295.2,174.8L295.2,174.8L295.2,174.8L295.2,174.8L295.2,174.8L295.2,174.8z M308.9,174.8L308.9,174.8
			h0.1l0,0c0.1,0,0.2,0.1,0.2,0.1s0,0,0.1,0.1s0.1,0.3,0.1,0.4c0,0.1,0,0.3,0,0.4v0.1v0.1c0,0.1-0.1,0.2-0.1,0.3
			c-0.1,0.1-0.2,0.2-0.3,0.3l0,0h-0.1l0,0l-0.1-0.1l0,0c0-0.1-0.1-0.2-0.2-0.3s-0.2-0.3-0.2-0.5c0-0.1-0.1-0.2-0.1-0.2
			c-0.1-0.2-0.1-0.3-0.1-0.4c0-0.1,0.1-0.2,0.4-0.3C308.7,174.8,308.8,174.7,308.9,174.8C308.7,174.8,308.8,174.8,308.9,174.8
			L308.9,174.8C308.8,174.8,308.8,174.8,308.9,174.8L308.9,174.8z M293,175L293,175c0.1,0.1,0.1,0.1,0.1,0.2c0.1,0.2,0.1,0.3,0,0.4
			l0,0l0,0c0,0-0.1,0-0.1-0.1c0,0,0-0.1-0.1-0.1C292.8,175.3,292.8,175.2,293,175C292.9,175,293,175,293,175L293,175z M306.1,175.1
			L306.1,175.1L306.1,175.1C306.2,175.1,306.2,175.1,306.1,175.1c0.1,0,0.1,0.1,0.1,0.1l0,0l0,0l0,0l0,0l0,0
			C306.1,175.2,306.1,175.2,306.1,175.1C306,175.2,306.1,175.1,306.1,175.1L306.1,175.1z M305.5,175.1L305.5,175.1
			c0.1,0,0.1,0,0.2,0.1l0,0l0,0l0,0c0,0,0,0,0,0.1v0.1c0,0.1-0.1,0.1-0.1,0.1s0,0-0.1,0l0,0l0,0c0,0,0,0-0.1,0l0,0l0,0
			c0,0,0-0.1-0.1-0.1C305.4,175.3,305.4,175.2,305.5,175.1C305.4,175.1,305.4,175.1,305.5,175.1L305.5,175.1z M294.8,175.2
			L294.8,175.2L294.8,175.2L294.8,175.2L294.8,175.2c0.1,0.1,0.1,0.1,0.1,0.2c0,0.1,0,0.2,0,0.3s0,0.2,0,0.2c0,0.1-0.1,0.2-0.1,0.2
			s0,0-0.1-0.1l0,0c0,0,0-0.1,0-0.2c0-0.1,0-0.2,0-0.3s0-0.1,0-0.2c0,0,0,0,0-0.1C294.7,175.2,294.7,175.2,294.8,175.2L294.8,175.2
			L294.8,175.2z M308.7,175.2C308.6,175.2,308.6,175.2,308.7,175.2C308.6,175.2,308.6,175.2,308.7,175.2c-0.1,0-0.1,0-0.1,0.1
			c0,0,0,0.1,0,0.2c0,0.1,0,0.1,0,0.2v0.1c0,0.1,0.1,0.2,0.1,0.3s0.1,0.1,0.1,0.1l0,0c0,0,0.1-0.1,0.1-0.2c0.1-0.2,0.1-0.3-0.1-0.5
			l-0.1-0.1c0,0,0,0-0.1-0.1l0,0C308.8,175.2,308.7,175.2,308.7,175.2L308.7,175.2L308.7,175.2L308.7,175.2L308.7,175.2z
			 M304.8,175.2C304.8,175.2,304.9,175.2,304.8,175.2c0.2,0,0.2,0.1,0.3,0.1l0.1,0.1v0.1v0.1l0,0l0,0l0,0l0,0l0,0l0,0c0,0,0,0-0.1,0
			c0,0-0.1,0-0.2-0.1c-0.1,0-0.1-0.1-0.1-0.1c-0.1-0.1-0.2-0.2-0.2-0.3l0,0c0,0,0,0,0-0.1l0,0C304.7,175.2,304.7,175.2,304.8,175.2
			L304.8,175.2L304.8,175.2z M307.5,175.4L307.5,175.4L307.5,175.4L307.5,175.4L307.5,175.4c0.1,0.2,0.2,0.3,0.3,0.5l0,0
			c0.2,0.5,0.5,1.1,0.5,1.3c0,0,0,0,0,0.1v0.1c0,0-0.1,0.1-0.2,0l0,0c0,0-0.1,0-0.1-0.1l-0.1-0.1c-0.1-0.1-0.2-0.2-0.3-0.3
			c-0.1-0.2-0.3-0.3-0.4-0.3h-0.1l0,0c0,0,0,0,0,0.1s0,0.3,0.1,0.5s0.2,0.5,0.2,0.6l0,0c0,0,0,0,0,0.1l0,0c0,0-0.1,0-0.1-0.1
			c0,0-0.1-0.1-0.1-0.2c0,0,0-0.1-0.1-0.1c-0.1-0.2-0.2-0.6-0.3-0.9c-0.1-0.2-0.1-0.3-0.1-0.4v-0.1c0-0.1,0-0.1,0-0.2h0.1h0.1
			c0,0,0.1,0.1,0.2,0.1l0,0c0.1,0.1,0.2,0.2,0.3,0.3c0.2,0.3,0.5,0.5,0.5,0.5l0,0l0,0l0,0l0,0c0-0.1,0-0.3-0.1-0.6s-0.2-0.5-0.2-0.6
			l0,0C307.4,175.4,307.4,175.4,307.5,175.4C307.4,175.4,307.4,175.4,307.5,175.4C307.4,175.4,307.4,175.4,307.5,175.4
			C307.4,175.4,307.4,175.4,307.5,175.4L307.5,175.4z M292.5,175.4L292.5,175.4C292.5,175.4,292.6,175.4,292.5,175.4
			c0.1,0,0.1,0,0.1,0.1l0,0v0.1c0,0,0,0,0,0.1v0.1v0.1l0,0c0,0,0,0-0.1,0l0,0l0,0l0,0l0,0l0,0c-0.1-0.1-0.2-0.3-0.1-0.4
			C292.4,175.4,292.5,175.4,292.5,175.4L292.5,175.4L292.5,175.4z M304.2,175.4L304.2,175.4L304.2,175.4c0.1,0,0.1,0.1,0.2,0.1
			c0,0,0.1,0,0.1,0.1c0.1,0.1,0.1,0.1,0.2,0.2c0,0,0,0.1,0.1,0.1l0,0c0,0,0,0,0,0.1v0.1c-0.1,0.1-0.3,0-0.5-0.1
			c-0.1-0.1-0.1-0.1-0.1-0.2l0,0l0,0l0,0l0,0l0,0l0,0l0,0C304.1,175.4,304.1,175.4,304.2,175.4C304.1,175.4,304.1,175.4,304.2,175.4
			L304.2,175.4L304.2,175.4z M294.4,175.4L294.4,175.4L294.4,175.4L294.4,175.4c0.1,0.1,0.1,0.2,0.1,0.3v0.1l0,0c0,0.1,0,0.2,0,0.2
			l0,0l0,0c0,0.1,0,0.1-0.1,0.2l0,0l0,0l0,0l0,0l0,0c0,0,0,0,0-0.1s0-0.1,0-0.2c0-0.1,0-0.3,0-0.4
			C294.3,175.5,294.3,175.4,294.4,175.4L294.4,175.4L294.4,175.4L294.4,175.4z M297.8,175.5L297.8,175.5L297.8,175.5L297.8,175.5
			c0.1,0,0.1,0,0.1,0.1l0,0l0,0c0,0,0,0,0,0.1l0,0l0,0c0,0-0.1,0-0.1,0.1l-0.1,0.1c-0.1,0-0.1,0.1-0.2,0.1c-0.3,0.2-0.4,0.3-0.4,0.5
			c0,0,0,0,0,0.1l0,0l0,0l0,0c0,0.1,0.1,0.1,0.3,0.1c0.1,0,0.2,0,0.2,0c0.1,0,0.1,0.1,0.1,0.1s0,0,0,0.1l0,0l0,0l0,0
			c0,0-0.1,0-0.1,0.1c-0.1,0-0.1,0.1-0.2,0.1l0,0l0,0c0,0,0,0,0,0.1c0,0,0,0,0,0.1c0,0,0,0,0,0.1l0,0c0,0,0,0.1,0.1,0.1l0.1,0.1l0,0
			h0.1c0.1,0,0.2-0.1,0.3-0.1c0.2-0.1,0.3-0.2,0.4-0.2h0.1h0.1l0,0l0,0l0,0l0,0c0,0,0,0.1-0.1,0.1c0,0,0,0-0.1,0.1
			c0,0-0.1,0.1-0.2,0.1s-0.1,0.1-0.2,0.1s-0.1,0.1-0.2,0.1h-0.1c0,0-0.1,0-0.1,0.1c-0.1,0.1-0.2,0.1-0.2,0.1s0,0-0.1-0.1
			s-0.2-0.2-0.3-0.4c-0.2-0.3-0.3-0.6-0.5-0.9c0-0.1-0.1-0.2-0.1-0.2v-0.1c0,0,0,0,0-0.1l0,0l0,0l0,0l0.1-0.1
			c0.1-0.1,0.2-0.1,0.3-0.2c0.1-0.1,0.3-0.1,0.4-0.2l0,0c0.1,0,0.1-0.1,0.2-0.1C297.7,175.5,297.7,175.5,297.8,175.5L297.8,175.5z
			 M294,175.6L294,175.6c0.1,0.1,0.1,0.3,0.1,0.5v0.4l-0.1-0.4c0-0.1,0-0.2,0-0.2l0,0v-0.1l0,0C293.9,175.7,293.9,175.6,294,175.6
			L294,175.6z M303.6,175.6L303.6,175.6C303.7,175.6,303.7,175.6,303.6,175.6L303.6,175.6c0.1,0,0.1,0,0.1,0l0,0l0,0
			c0.2,0.1,0.3,0.5,0.3,0.6c-0.1,0.1-0.1,0.1-0.3,0c0,0,0,0-0.1-0.1l0,0l-0.1-0.1c-0.1-0.1-0.1-0.1-0.1-0.2c-0.1-0.1,0-0.2,0-0.3
			l0,0C303.6,175.6,303.6,175.6,303.6,175.6L303.6,175.6L303.6,175.6z M293.6,175.7c0,0,0.1,0.1,0.1,0.2l0,0v0.1c0,0.1,0,0.1,0,0.1
			l0,0c0,0.1,0,0.2,0,0.2l0,0c0,0,0,0,0,0.1l0,0c0,0-0.1,0-0.1-0.1c0,0,0,0,0-0.1s-0.1-0.3-0.1-0.4
			C293.5,175.9,293.5,175.8,293.6,175.7L293.6,175.7L293.6,175.7z M292.1,175.8c0.1,0,0.1,0,0.1,0.1v0.1v0.1c0,0.1-0.1,0.2-0.2,0.2
			l0,0c0,0,0,0-0.1,0l0,0c-0.1-0.1-0.1-0.3,0-0.4l0,0C292,175.8,292.1,175.8,292.1,175.8L292.1,175.8z M303.1,175.8L303.1,175.8
			c0.1,0,0.2,0.1,0.3,0.3c0.1,0.1,0.1,0.2,0.1,0.2v0.1c0,0,0,0-0.1,0l0,0l0,0c0,0-0.1,0-0.1-0.1c0,0,0,0-0.1-0.1l0,0
			C303.1,176.1,303.1,176,303.1,175.8C303,175.9,303,175.9,303.1,175.8C303.1,175.9,303.1,175.8,303.1,175.8L303.1,175.8
			L303.1,175.8L303.1,175.8z M293.2,176L293.2,176L293.2,176L293.2,176C293.3,176,293.3,176,293.2,176c0.1,0.1,0.1,0.1,0.1,0.2
			c0,0,0,0,0,0.1l0,0c0,0,0,0.1,0,0.2c0,0.1,0,0.3,0,0.3l0,0l0,0c0,0-0.1,0-0.1-0.1c0,0,0,0,0-0.1v-0.1c0-0.1,0-0.2,0-0.3
			C293.1,176.1,293.1,176,293.2,176L293.2,176L293.2,176L293.2,176z M292.8,176.1L292.8,176.1L292.8,176.1
			C292.9,176.1,292.9,176.1,292.8,176.1C292.9,176.2,292.9,176.2,292.8,176.1C292.9,176.2,292.9,176.2,292.8,176.1
			c0.1,0.1,0.1,0.1,0.1,0.1l0,0l0,0l0,0l0,0l0,0l0,0c0,0,0,0,0,0.1l0,0v0.1c0,0.1,0,0.2-0.1,0.2l0,0c0,0-0.1,0-0.2-0.1
			c0,0,0,0,0-0.1l0,0v-0.1c0,0,0,0,0-0.1l0,0C292.6,176.4,292.7,176.2,292.8,176.1L292.8,176.1L292.8,176.1L292.8,176.1L292.8,176.1
			z M291.6,176.2L291.6,176.2h0.1l0,0l0,0l0,0v0.1c0,0,0,0,0,0.1l0,0c0,0-0.1,0.1-0.1,0c0,0,0,0-0.1-0.1c0,0,0,0,0-0.1v-0.1l0,0
			C291.5,176.3,291.5,176.2,291.6,176.2C291.5,176.2,291.6,176.2,291.6,176.2L291.6,176.2z M314.8,176.2L314.8,176.2L314.8,176.2
			C314.9,176.2,314.9,176.2,314.8,176.2c0.1,0,0.1,0,0.1,0l0,0l0,0c0,0,0,0,0.1,0l0,0c0,0,0,0,0.1,0l0,0c0,0,0,0,0.1,0.1l0,0
			c0,0,0,0,0.1,0.1l0,0l0.1,0.1c0.1,0.1,0.1,0.1,0.1,0.2c0.1,0.2,0.2,0.4,0.3,0.5c0,0.1,0.1,0.2,0.1,0.2l0,0c0,0.1,0,0.1,0,0.1
			l-0.1,0.1l0,0c0,0,0,0-0.1-0.1c0,0-0.1-0.1-0.2-0.2l0,0c-0.1-0.1-0.1-0.2-0.2-0.3s-0.1-0.2-0.2-0.3c-0.1-0.2-0.3-0.4-0.4-0.6
			C314.8,176.3,314.7,176.2,314.8,176.2C314.7,176.2,314.7,176.2,314.8,176.2L314.8,176.2L314.8,176.2z M302.8,176.3L302.8,176.3
			L302.8,176.3L302.8,176.3C302.8,176.3,302.9,176.3,302.8,176.3C302.9,176.3,302.9,176.3,302.8,176.3c0.1,0,0.1,0,0.1,0l0.1,0.1
			v0.1c0,0.1-0.1,0.1-0.1,0.1s0,0-0.1,0c0,0,0,0-0.1,0l0,0l0,0C302.6,176.4,302.7,176.3,302.8,176.3
			C302.7,176.3,302.8,176.3,302.8,176.3L302.8,176.3z M292.4,176.4L292.4,176.4L292.4,176.4L292.4,176.4L292.4,176.4L292.4,176.4
			C292.4,176.4,292.5,176.4,292.4,176.4c0.1,0,0.1,0.1,0.1,0.1c0,0.1,0.1,0.1,0.1,0.2c0,0.1,0,0.2-0.1,0.2h-0.1c0,0,0-0.1-0.1-0.1
			v-0.1C292.3,176.5,292.3,176.5,292.4,176.4C292.3,176.4,292.4,176.4,292.4,176.4L292.4,176.4z M305.5,176.4
			C305.5,176.4,305.6,176.4,305.5,176.4c0.1,0.1,0.1,0.1,0.2,0.1c0.1,0.1,0.1,0.1,0.2,0.2l0,0c0.2,0.2,0.3,0.5,0.5,0.7
			c0.1,0.1,0.1,0.3,0.2,0.4c0,0.1,0.1,0.2,0,0.3v0.1c0,0,0,0-0.1,0c0,0,0-0.1-0.1-0.1l-0.1-0.1c-0.1,0-0.1-0.1-0.2,0
			c0,0-0.1,0-0.2,0.1c0,0,0,0-0.1,0c0,0-0.1,0-0.1,0.1c-0.1,0.1-0.1,0.2-0.2,0.2c0,0.1-0.1,0.2-0.1,0.3l0,0l0,0l0,0
			c0,0-0.1,0-0.1-0.2c0-0.1,0-0.2,0-0.4c0-0.1,0-0.2,0-0.3s0-0.2,0-0.4C305.3,176.5,305.3,176.4,305.5,176.4L305.5,176.4
			L305.5,176.4z M291.3,176.4c0.1,0,0.1,0.1,0.2,0.1c0,0,0.1,0.1,0.1,0.2c0,0.1,0.1,0.2,0.1,0.3s0,0.2,0,0.2l0,0c0,0.1,0,0.1,0,0.1
			l0,0l0,0c0,0,0,0-0.1-0.1l0,0c-0.1-0.1-0.2-0.3-0.2-0.4c0-0.1,0-0.1,0-0.1c0-0.1,0-0.1,0-0.2l0,0
			C291.2,176.5,291.2,176.5,291.3,176.4C291.2,176.5,291.2,176.5,291.3,176.4C291.2,176.5,291.2,176.5,291.3,176.4L291.3,176.4
			L291.3,176.4z M296,176.5L296,176.5L296,176.5L296,176.5C296.1,176.6,296.1,176.6,296,176.5C296.1,176.6,296.1,176.6,296,176.5
			L296,176.5c0.1,0.1,0.1,0.1,0.1,0.1s0,0,0,0.1c0,0,0,0.1,0,0.2l0,0c0,0.1,0,0.1,0,0.2l0,0c0,0.1,0,0.2,0,0.3l0,0
			c0,0.1,0,0.2,0,0.3s0,0.2,0,0.4c0,0.4,0,0.6,0,0.7c0,0,0,0.1-0.1,0.1l0,0l0,0h-0.1c-0.1-0.1-0.2-0.2-0.3-0.4
			c0-0.1-0.1-0.1-0.1-0.2c0-0.1-0.1-0.1-0.1-0.1c0-0.1-0.1-0.1-0.1-0.1l0,0l0,0l0,0l0,0v0.1l0,0c0,0.1,0,0.3,0,0.4
			c0,0.2,0,0.3-0.1,0.4c0,0.1,0,0.1-0.1,0.2l0,0l0,0c0,0,0,0-0.1-0.1c0,0,0,0-0.1-0.1c-0.1-0.2-0.3-0.4-0.5-0.7
			c-0.3-0.4-0.6-0.9-0.6-1l0,0l0,0h0.1h0.1c0,0,0,0,0.1,0c0,0,0.1,0,0.1,0.1c0.1,0,0.1,0.1,0.2,0.2c0,0.1,0.1,0.1,0.1,0.2l0.2,0.4
			v-0.5c0-0.1,0-0.2,0-0.2c0-0.1,0-0.1,0-0.2s0-0.1,0.1-0.1l0,0l0,0c0,0,0,0,0.1,0l0,0l0,0l0,0l0,0c0,0,0.1,0,0.1,0.1
			c0.1,0.1,0.1,0.1,0.2,0.2l0.3,0.4v-0.6c0-0.2,0.1-0.4,0.1-0.5C295.9,176.6,295.9,176.5,296,176.5L296,176.5L296,176.5L296,176.5
			L296,176.5z M292,176.7c0.1,0,0.1,0,0.1,0.1l0,0l0,0v0.1H292c0,0,0,0-0.1,0l0,0c0,0,0,0,0-0.1C291.9,176.8,291.9,176.7,292,176.7
			L292,176.7L292,176.7z M315.9,176.7L315.9,176.7L315.9,176.7c0.1,0,0.1,0.1,0.3,0.2l0.1,0.1c0.1,0.1,0.2,0.2,0.2,0.3
			s0.1,0.1,0.1,0.2l0,0c0,0,0,0.1-0.1,0.1l0,0l0,0l0,0l0,0l0,0l0,0l-0.1-0.1c0-0.1-0.1-0.1-0.2-0.2l-0.1-0.1l0,0c0,0,0,0,0-0.1l0,0
			c0,0,0,0,0-0.1l0,0l0,0l0,0C315.9,176.8,315.9,176.8,315.9,176.7C315.9,176.8,315.9,176.8,315.9,176.7
			C315.9,176.8,315.9,176.8,315.9,176.7L315.9,176.7L315.9,176.7L315.9,176.7L315.9,176.7L315.9,176.7z M290.8,176.8
			C290.8,176.8,290.9,176.8,290.8,176.8c0.1,0.1,0.2,0.2,0.3,0.3c0.1,0.1,0.1,0.2,0.1,0.3c0.1,0.2,0,0.3-0.1,0.3c0,0,0,0-0.1,0l0,0
			c0,0,0,0-0.1-0.1c0,0,0,0-0.1-0.1c-0.1-0.2-0.2-0.4-0.2-0.5C290.7,177,290.7,176.9,290.8,176.8
			C290.8,176.9,290.8,176.9,290.8,176.8L290.8,176.8L290.8,176.8z M305.5,177v0.4c0,0.1,0,0.2,0,0.2l0,0l0,0c0,0,0,0.1,0.1,0.1l0,0
			h0.1c0,0,0,0,0.1,0c0.1-0.1,0-0.3-0.1-0.4L305.5,177L305.5,177z M316.8,177.1L316.8,177.1c0.1,0,0.1,0,0.2,0.1l0,0l0,0l0,0h-0.1
			C316.8,177.2,316.8,177.2,316.8,177.1L316.8,177.1C316.7,177.2,316.7,177.2,316.8,177.1C316.7,177.1,316.7,177.1,316.8,177.1
			L316.8,177.1L316.8,177.1z M290.4,177.2c0.1,0,0.2,0.1,0.3,0.3c0,0.1,0.1,0.2,0.1,0.2c0,0.1,0,0.1,0,0.1l0,0c0,0-0.1,0-0.1-0.1
			l0,0c0,0-0.1-0.1-0.1-0.2c0,0,0-0.1-0.1-0.1l0,0L290.4,177.2C290.3,177.4,290.3,177.3,290.4,177.2
			C290.4,177.3,290.4,177.3,290.4,177.2C290.4,177.3,290.4,177.2,290.4,177.2L290.4,177.2z M317.4,177.4L317.4,177.4h0.1
			c0.1,0,0.3,0.1,0.5,0.2c0.3,0.1,0.8,0.3,1,0.4c0.1,0,0.2,0.1,0.3,0.1c0,0,0.1,0,0.1,0.1l0,0c0,0,0,0,0,0.1c0,0,0,0,0,0.1l0,0l0,0
			c0,0,0,0-0.1,0h-0.1c-0.1,0-0.1,0-0.2-0.1c-0.4-0.2-1.3-0.6-1.5-0.7c0,0,0,0-0.1,0C317.4,177.5,317.3,177.5,317.4,177.4
			C317.3,177.4,317.3,177.4,317.4,177.4C317.3,177.4,317.3,177.4,317.4,177.4C317.3,177.4,317.3,177.4,317.4,177.4L317.4,177.4
			L317.4,177.4z M290.1,177.6C290.2,177.6,290.2,177.6,290.1,177.6c0.1,0,0.1,0.1,0.2,0.1c0,0,0,0,0,0.1s0,0.1-0.1,0.1
			s-0.2-0.1-0.2-0.2C290,177.7,290.1,177.7,290.1,177.6L290.1,177.6L290.1,177.6L290.1,177.6z M316.9,177.6c0,0,0.1,0,0.2,0
			s0.1,0,0.2,0.1c0.1,0,0.2,0.1,0.3,0.1c0.1,0,0.2,0.1,0.3,0.1c0.5,0.2,1.1,0.5,1.2,0.5c0,0,0.1,0.1,0,0.1c0,0,0,0-0.1,0
			s-0.1,0-0.3-0.1c-0.1,0-0.1,0-0.2-0.1c-0.2-0.1-0.4-0.1-0.6-0.3c-0.3-0.1-0.5-0.2-0.7-0.3C317.1,177.7,317,177.6,316.9,177.6
			C316.9,177.7,316.8,177.7,316.9,177.6C316.8,177.7,316.8,177.7,316.9,177.6C316.8,177.7,316.8,177.7,316.9,177.6
			C316.8,177.6,316.8,177.6,316.9,177.6L316.9,177.6L316.9,177.6z M316.4,178c0.1,0,0.1,0,0.2,0h0.1c0.1,0,0.1,0,0.2,0
			c0.2,0.1,0.5,0.2,0.7,0.2c0.2,0.1,0.3,0.1,0.5,0.2c0,0,0.1,0,0.1,0.1l0,0c0.1,0,0.1,0.1,0.2,0.1c0,0,0,0,0.1,0.1l0,0l0,0v0.1l0,0
			l0,0c-0.1,0-0.2-0.1-0.7-0.3c-0.2-0.1-0.4-0.2-0.6-0.3s-0.4-0.2-0.6-0.2C316.5,178,316.4,177.9,316.4,178L316.4,178L316.4,178
			L316.4,178c-0.1-0.1-0.1-0.1-0.2-0.1l0,0l0,0l0,0l0,0l0,0C316.3,178,316.3,178,316.4,178C316.3,178,316.4,178,316.4,178L316.4,178
			L316.4,178z M326.2,179L326.2,179L326.2,179c0.1,0,0.1,0,0.1,0.1c0,0,0,0.1,0.1,0.1c0,0.1,0,0.1,0,0.2l0,0l-0.1,0.1l0,0l0,0l0,0
			l0,0l0,0c0,0,0-0.1-0.1-0.1c0-0.1,0-0.2,0-0.2C326.1,179.1,326.1,179.1,326.2,179C326.1,179,326.1,179,326.2,179L326.2,179
			L326.2,179z M327.3,179C327.4,179,327.4,179,327.3,179C327.4,179.1,327.4,179.1,327.3,179c0.1,0.2,0.2,0.4,0.2,0.6
			c0,0.3,0.1,0.6,0.1,0.7v0.1c0,0,0,0,0,0.1l-0.1,0.1h-0.1l0,0l0,0c0,0,0-0.1-0.1-0.1c0-0.1,0-0.2-0.1-0.5c0-0.3,0-0.5,0-0.7
			C327.2,179.2,327.3,179.1,327.3,179C327.3,179.1,327.3,179.1,327.3,179L327.3,179L327.3,179z M326.8,179L326.8,179
			c0.1,0,0.1,0,0.2,0.3c0,0.1,0.1,0.4,0.1,0.7s0,0.4,0,0.5H327c0,0,0,0-0.1,0c0,0,0,0-0.1,0c0,0,0-0.1-0.1-0.1
			c0-0.1-0.1-0.2-0.1-0.3s0-0.2,0-0.4c0-0.1,0-0.2,0-0.2C326.6,179.2,326.7,179.1,326.8,179C326.7,179,326.7,179,326.8,179
			L326.8,179L326.8,179z M327.9,179.1L327.9,179.1c0.1,0,0.2,0.2,0.3,0.5c0,0.2,0,0.4,0,0.6c0,0.1,0,0.1,0,0.2l0,0
			c0,0.1,0,0.2,0,0.2l0,0v0.1l0,0l0,0l0,0c0,0-0.1,0-0.1-0.1l0,0l0,0c0-0.1,0-0.1,0-0.3s0-0.3-0.1-0.5c0-0.3,0-0.4,0-0.5
			C327.8,179.1,327.8,179.1,327.9,179.1L327.9,179.1L327.9,179.1z M325.6,179.1L325.6,179.1C325.7,179.1,325.7,179.1,325.6,179.1
			c0.1,0,0.1,0,0.1,0.1l0,0l0,0c0,0,0,0,0,0.1l0,0l0,0v0.1h-0.1l0,0h-0.1l0,0l0,0l0,0c0,0,0,0,0-0.1c0,0,0,0,0-0.1l0,0
			C325.5,179.1,325.5,179.1,325.6,179.1L325.6,179.1L325.6,179.1z M328.5,179.2L328.5,179.2c0.1,0,0.4,1.2,0.3,1.5l0,0l0,0
			c0,0,0,0,0,0.1l0,0c-0.1,0.1-0.2,0-0.3-0.3v-0.1v-0.1c0-0.1,0-0.3,0-0.4l0,0c0-0.2,0-0.3,0-0.4c0-0.1,0-0.1,0-0.2
			C328.4,179.3,328.4,179.3,328.5,179.2L328.5,179.2C328.4,179.3,328.4,179.2,328.5,179.2C328.4,179.2,328.5,179.2,328.5,179.2
			L328.5,179.2L328.5,179.2z M325.1,179.2c0,0,0.1,0,0.1,0.1l0,0c0,0,0,0,0,0.1l0,0c0,0,0,0,0,0.1l0,0l0,0h-0.1c0,0,0,0-0.1,0l0,0
			l0,0v-0.1l0,0l0,0C325,179.3,325,179.3,325.1,179.2L325.1,179.2L325.1,179.2L325.1,179.2z M329,179.3L329,179.3
			C329,179.3,329.1,179.3,329,179.3c0.1,0.1,0.1,0.1,0.1,0.1s0.1,0.1,0.1,0.2v0.1v0.1v0.1c0,0.3,0.1,0.6,0.1,0.7c0,0,0,0,0,0.1
			s-0.2,0.2-0.3,0c-0.1-0.1-0.1-0.6-0.2-0.9l0,0c0-0.1,0-0.3,0-0.3s0,0,0-0.1C328.9,179.3,328.9,179.3,329,179.3
			C328.9,179.3,329,179.3,329,179.3L329,179.3L329,179.3z M329.7,179.4L329.7,179.4L329.7,179.4c0.2,0,0.2,0.2,0.2,0.4
			c0,0.1,0,0.2,0,0.4c0,0.1,0,0.1,0,0.2c0,0.4-0.2,0.5-0.3,0.1c-0.1-0.2-0.1-0.5-0.1-0.7C329.5,179.7,329.6,179.5,329.7,179.4
			L329.7,179.4C329.6,179.5,329.6,179.5,329.7,179.4C329.6,179.4,329.6,179.4,329.7,179.4L329.7,179.4z M324.7,179.5L324.7,179.5
			c0.1,0,0.1,0,0,0.1c0,0.1-0.1,0.1-0.2,0.1c0,0,0,0-0.1,0l0,0l0,0l0,0C324.6,179.5,324.6,179.5,324.7,179.5
			C324.6,179.5,324.6,179.5,324.7,179.5C324.6,179.5,324.6,179.5,324.7,179.5L324.7,179.5L324.7,179.5z M330.2,179.8L330.2,179.8
			C330.2,179.8,330.3,179.8,330.2,179.8L330.2,179.8c0.1,0.1,0.1,0.2,0.2,0.2l0,0c0,0.1,0,0.1,0.1,0.2v0.1l0,0l0,0l0,0
			c0,0,0,0,0,0.1c0,0,0,0,0,0.1l0,0l0,0l0,0l0,0c0,0,0-0.1-0.1-0.1l0,0l0,0c0-0.1,0-0.2,0-0.3C330.1,179.9,330.1,179.9,330.2,179.8
			C330.2,179.9,330.2,179.9,330.2,179.8L330.2,179.8L330.2,179.8L330.2,179.8z M326.3,179.8L326.3,179.8
			C326.3,179.9,326.4,179.9,326.3,179.8c0.1,0,0.1,0.1,0.1,0.1c0,0.1,0.1,0.2,0.1,0.3s0,0.1,0,0.2v0.1c-0.1,0.2-0.2,0.1-0.3-0.1
			c0-0.1,0-0.2,0-0.2c0-0.1,0-0.1,0-0.1C326.2,179.9,326.2,179.8,326.3,179.8L326.3,179.8z M325.8,180L325.8,180L325.8,180
			L325.8,180C325.9,180,325.9,180,325.8,180c0.1,0,0.1,0,0.1,0l0,0v0.1c0,0.1,0,0.2,0,0.2c0,0.1-0.2,0.2-0.2,0.1
			c0-0.1-0.1-0.1-0.1-0.2v-0.1V180l0,0l0,0C325.7,180.1,325.7,180,325.8,180C325.7,180,325.7,180,325.8,180
			C325.7,180,325.8,180,325.8,180L325.8,180L325.8,180L325.8,180z M325.3,180.2C325.4,180.2,325.4,180.2,325.3,180.2
			C325.4,180.2,325.4,180.3,325.3,180.2c0.1,0,0.1,0.1,0.1,0.1s0,0,0,0.1l0,0l0,0l0,0v0.1c0,0,0,0,0,0.1h-0.1c-0.1,0-0.1,0-0.1-0.1
			v-0.1v-0.1C325.2,180.3,325.2,180.3,325.3,180.2C325.3,180.3,325.3,180.2,325.3,180.2L325.3,180.2L325.3,180.2z M324.9,180.6
			L324.9,180.6c0.1,0.1,0.1,0.1-0.1,0.2c-0.1,0.1-0.2,0.1-0.2,0l0,0v-0.1C324.7,180.7,324.7,180.6,324.9,180.6
			C324.8,180.6,324.8,180.6,324.9,180.6C324.8,180.6,324.9,180.6,324.9,180.6L324.9,180.6z"/>
		<g id="g3465" transform="matrix(1.1692089,0,0,1.1692089,-506.19136,40.746418)">
			<g id="g3471">
				<g id="g3477" transform="matrix(0.65772783,0,0,0.60728359,233.21583,151.84926)">
					<path id="rect3408" inkscape:connector-curvature="0" fill="#D80025" d="M700.8-39.5c-1,0-1.9,0.8-1.9,1.9v4.9
						c0,1,0.8,1.9,1.9,1.9h2.2c1,0,1.9-0.8,1.9-1.9v-4.9c0-1-0.8-1.9-1.9-1.9H700.8z M701.9-38.2c0.6,0,1.1,0.5,1.1,1.1v4
						c0,0.6-0.5,1.1-1.1,1.1s-1.1-0.5-1.1-1.1v-4C700.8-37.8,701.3-38.2,701.9-38.2z"/>
					<path id="rect3410" inkscape:connector-curvature="0" fill="#D80025" d="M694.9-39.4L694.9-39.4c0.3,0.3,0.5,0.6,0.5,1v6.7
						c0,0.4-0.2,0.7-0.5,0.9v0.1h2.8v-0.2c-0.2-0.2-0.4-0.5-0.4-0.8v-6.7c0-0.3,0.2-0.6,0.4-0.8v-0.2H694.9z"/>
					<path id="path3455" inkscape:connector-curvature="0" fill-rule="evenodd" clip-rule="evenodd" fill="#D80025" d="M717.2-39.4
						l-3.7,7.7c0,0,0,0.6-0.8,0.8h1.9c0,0-0.3-0.2-0.2-0.5c0.1-0.2,0.3-0.6,0.3-0.6h3.8l0.4,0.7c0,0-0.2,0.4-0.5,0.4h3.3
						c0,0-0.4-0.2-0.6-0.6S717.2-39.4,717.2-39.4L717.2-39.4z M716.7-36l1.4,3.2h-2.9C715.1-32.9,716.7-36,716.7-36z"/>
					<path id="path3459" inkscape:connector-curvature="0" fill-rule="evenodd" clip-rule="evenodd" fill="#D80025" d="M714.3-39.4
						C714.2-39.4,714.2-39.4,714.3-39.4L714.3-39.4L714.3-39.4z M714.2-39.4h-1.8c0.4,0.4,0.2,0.7,0.2,0.7l-0.8,3l-1.4-3.7h-0.2
						l-1.7,3.7c0,0-0.6-2.5-0.6-2.8s0.2-0.6,0.3-0.8h-2.9c0.6,0.4,0.6,0.7,0.6,0.7l1.8,7.9c0,0,1.5-4.1,1.7-4.6
						c0.1-0.4,0.4,0.1,0.4,0.1l1.7,4.7c0,0,2-7.6,2.2-8.3C713.9-39.3,714.1-39.4,714.2-39.4z"/>
				</g>
			</g>
		</g>
		<path id="path4210" inkscape:connector-curvature="0" stroke="#FF0000" d="M364,195.7c0-0.1-0.1-0.2-0.2-0.1
			c-0.1,0-0.2,0.1-0.2,0.2s0.1,0.1,0.2,0.1S364,195.8,364,195.7z"/>
		<path id="path4314" inkscape:connector-curvature="0" fill="#FFFFFF" d="M291.5,175.4c0.2-0.2,0.3-0.4,0.4-0.4s0-0.6-0.1-0.6
			c0,0-0.1,0.1-0.2,0.2c-0.1,0.1-0.2,0.2-0.2,0.2c-0.1,0-0.4-0.8-0.5-1.1c-0.1-0.4-0.2-0.4-0.4-0.3c-0.2,0.1-0.1,0.2,0.2,1.3
			c0.1,0.4,0.3,0.9,0.3,1C291,175.9,291.1,175.9,291.5,175.4L291.5,175.4z M292.6,174.3c0-0.1-0.1-0.5-0.3-1.1
			c-0.3-1-0.4-1.1-0.6-0.9c-0.1,0.1,0,0.3,0.2,1.1c0.2,0.6,0.3,1,0.4,1C292.3,174.6,292.5,174.5,292.6,174.3z M294,173.2
			c0.2-0.2,0.3-0.4,0.3-0.5c0-0.3-0.1-0.6-0.3-0.6c-0.1,0-0.2-0.1-0.2-0.3c0-0.3-0.2-0.5-0.4-0.5c-0.2,0-0.9,0.4-0.9,0.5
			c0,0,0.1,0.4,0.2,0.9c0.1,0.4,0.2,0.9,0.3,1v0.2l0.3-0.2C293.5,173.6,293.8,173.4,294,173.2z M293.3,172.9
			c-0.1-0.2-0.1-0.2,0.1-0.3c0.1-0.1,0.2-0.1,0.3-0.1c0.2,0.1,0.2,0.1,0.1,0.3C293.6,173.1,293.4,173.2,293.3,172.9L293.3,172.9z
			 M293.1,172.2c-0.1-0.1-0.1-0.2,0-0.3c0.2-0.1,0.4,0,0.2,0.2C293.2,172.2,293.2,172.2,293.1,172.2L293.1,172.2z M295.9,172
			c0.1-0.1,0-0.5-0.2-0.5c-0.1,0-0.2,0.1-0.3,0.2c-0.2,0.2-0.4,0.2-0.4,0s0-0.2,0.1-0.3s0.2-0.2,0.2-0.3c0.1-0.2-0.1-0.3-0.3-0.2
			c-0.1,0.1-0.2,0.1-0.2,0.1c-0.2,0-0.1-0.3,0.2-0.5c0.2-0.2,0.3-0.2,0.2-0.4c0-0.2-0.1-0.2-0.3,0c-0.1,0.1-0.4,0.2-0.5,0.3
			c-0.2,0.1-0.3,0.2-0.3,0.4s0.5,1.7,0.5,1.8C294.8,172.6,295.7,172.1,295.9,172L295.9,172z M296.6,171.2c-0.1-0.5,0.2-0.7,0.5-0.2
			c0.1,0.1,0.1,0.1,0.2,0.1c0.2-0.1,0.2-0.2,0-0.4c-0.1-0.2-0.2-0.2-0.1-0.5c0.1-0.4-0.1-0.8-0.3-0.9c-0.2-0.1-0.7,0-0.9,0.2
			c-0.2,0.1-0.2,0.2-0.1,0.7c0.1,0.3,0.2,0.7,0.2,0.9c0.1,0.4,0.2,0.5,0.4,0.4C296.6,171.5,296.6,171.4,296.6,171.2L296.6,171.2z
			 M296.4,170.3c0,0-0.1-0.2-0.1-0.3s0-0.2,0.2-0.3c0.4-0.2,0.6,0.1,0.2,0.5C296.5,170.3,296.5,170.4,296.4,170.3L296.4,170.3z
			 M303.8,167.9c0-0.2-0.2-0.6-0.4-0.7c-0.1,0-0.3-0.1-0.5-0.1c-0.3,0-0.5-0.1-0.3-0.2c0.1,0,0.3-0.1,0.5-0.1c0.4,0,0.5,0,0.4-0.2
			s-0.4-0.2-0.9,0c-0.4,0.2-0.5,0.5-0.4,0.8c0.1,0.1,0.2,0.2,0.4,0.2c0.6,0,0.6,0,0.7,0.2c0.2,0.3-0.1,0.4-0.6,0.3
			c-0.1,0-0.2,0-0.2,0.2c0,0.1,0,0.2,0,0.3c0.1,0.1,0.5,0,0.8,0C303.5,168.4,303.8,168.1,303.8,167.9L303.8,167.9z M298.7,170.1
			c0-0.1-0.1-0.4-0.2-0.7c-0.2-0.6-0.2-0.8,0.1-0.9c0.1-0.1,0.2-0.2,0.1-0.3l-0.1-0.2l-0.7,0.4c-0.6,0.3-0.8,0.5-0.6,0.6
			c0,0,0.1,0,0.2,0c0.3-0.1,0.4,0,0.5,0.6c0.2,0.7,0.3,0.9,0.4,0.8C298.7,170.4,298.7,170.3,298.7,170.1L298.7,170.1z M300,169.6
			c0-0.1-0.4-1.7-0.5-1.8s-0.3,0.1-0.3,0.2c0,0,0.1,0.3,0.2,0.7c0.1,0.3,0.2,0.7,0.3,0.9c0.1,0.3,0.1,0.3,0.2,0.2
			C299.9,169.7,300,169.6,300,169.6L300,169.6z M302,168.6c-0.1-0.2-0.1-0.2-0.5,0s-0.5,0.2-0.6,0s0-0.4,0.4-0.5
			c0.2-0.1,0.3-0.1,0.2-0.3c0-0.1-0.1-0.1-0.4-0.1c-0.4,0.1-0.4,0.1-0.4-0.1c0-0.1,0.1-0.2,0.4-0.3c0.4-0.1,0.4-0.1,0.3-0.3
			s-0.1-0.2-0.7,0.1l-0.6,0.3l0.1,0.3c0,0.2,0.1,0.5,0.2,0.8c0.2,0.9,0.1,0.9,0.9,0.5C302.1,168.7,302.1,168.7,302,168.6L302,168.6z
			"/>
		<path id="path3910" inkscape:connector-curvature="0" fill="#FFFFFF" d="M330,177.4c-0.1-1-0.2-1.1-0.4-1.1
			c-0.2,0-0.2,0.1-0.1,0.5c0.1,0.2,0.1,0.4,0,0.4c-0.1,0.1-0.4-0.2-0.6-0.7c-0.2-0.3-0.2-0.3-0.4-0.3h-0.2l0.1,1
			c0.1,0.8,0.1,1,0.2,1c0.2,0.1,0.3,0,0.2-0.5c0-0.5,0.1-0.6,0.3-0.2c0.3,0.4,0.6,0.7,0.8,0.7C330.1,178.3,330.1,178.2,330,177.4
			L330,177.4z M327.7,178.3c0-0.1,0-0.5-0.1-1.1l-0.2-1h-0.2c-0.2,0-0.2,0-0.2,0.3c0,0.4,0.2,1.7,0.3,1.8c0,0,0.1,0.1,0.2,0.1
			C327.6,178.4,327.7,178.3,327.7,178.3L327.7,178.3z M326.8,178.2c0-0.1-0.1-0.5-0.5-1.2c-0.4-0.8-0.5-1-0.7-0.9
			c-0.1,0-0.2,0.2-0.4,0.9c-0.3,1.1-0.3,1.3-0.1,1.2c0.1,0,0.2-0.1,0.3-0.2c0.1-0.2,0.1-0.2,0.4-0.1c0.2,0,0.4,0.2,0.5,0.3
			C326.6,178.3,326.8,178.4,326.8,178.2z M325.7,177.4c-0.1-0.1-0.1-0.5,0-0.5s0.3,0.3,0.2,0.4C325.9,177.5,325.9,177.5,325.7,177.4
			L325.7,177.4z M324.2,177.3c0-0.8,0-0.9,0.4-0.9c0.2,0,0.2,0,0.2-0.2s-0.1-0.2-0.2-0.2s-0.5-0.1-0.8-0.1s-0.6-0.1-0.7,0
			c-0.2,0.1-0.1,0.3,0.3,0.4l0.3,0.1v0.8c0,0.9,0.1,1,0.3,1C324.3,178,324.3,178,324.2,177.3L324.2,177.3z M322.8,176.7
			c0-0.6-0.1-1.1-0.1-1.1s-0.1,0-0.2,0c-0.2,0-0.2,0-0.1,0.5c0,0.3,0,0.5,0,0.5s-0.2-0.3-0.4-0.6c-0.4-0.6-0.6-0.7-0.7-0.5
			c0,0.1,0,0.5,0,1c0,0.8,0.1,0.9,0.2,1s0.2,0.1,0.3,0.1c0.1,0,0.1-0.1,0-0.5c0-0.2,0-0.4,0-0.4s0.2,0.2,0.4,0.5
			c0.3,0.5,0.4,0.6,0.6,0.5h0.2L322.8,176.7L322.8,176.7z M320.2,177.2c0.1-0.1,0.1-1.9,0-2c0,0-0.1-0.1-0.2,0
			c-0.2,0-0.2,0.1-0.2,0.6c0,1.4,0,1.4,0.1,1.5C320.1,177.3,320.2,177.3,320.2,177.2L320.2,177.2z M319,175.8
			c-0.2-1-0.4-1.2-0.6-1.2c-0.1,0-0.1,0-0.6,0.9c-0.4,0.8-0.4,0.9,0,0.8c0.4,0,0.8,0.1,0.9,0.4c0.1,0.1,0.3,0.2,0.4,0.1
			C319.2,176.8,319.1,176.3,319,175.8L319,175.8z M318.3,176c-0.2-0.1-0.2-0.2,0-0.5s0.3-0.2,0.3,0.2
			C318.6,176,318.6,176.1,318.3,176L318.3,176z M317.1,175.9c0-0.1,0.1-0.5,0.1-0.9c0.1-0.7,0.1-0.8-0.1-0.9s-0.2-0.1-0.5,0.2
			c-0.3,0.2-0.4,0.3-0.5,0.2c0,0-0.1-0.3-0.2-0.6c-0.1-0.4-0.1-0.5-0.3-0.6c-0.1-0.1-0.2-0.1-0.2,0c-0.1,0.2-0.3,1.7-0.3,1.8
			c0.1,0.2,0.3,0.1,0.4-0.2c0.1-0.4,0.2-0.4,0.3,0.1c0.1,0.3,0.1,0.5,0.2,0.5c0,0,0.2-0.1,0.3-0.3c0.1-0.2,0.3-0.3,0.4-0.3
			s0.2,0.3,0.1,0.7c0,0.2,0,0.3,0.1,0.4C316.9,176.2,317.1,176.2,317.1,175.9L317.1,175.9z"/>
	</g>
</g>
<g>
	<path opacity="0.2" enable-background="new    " d="M10.4,74.3V25.8c0-12.1,8.2-22.7,19.8-25.8H0v100h30.2
		C18.5,96.9,10.4,86.3,10.4,74.3z"/>
	<path opacity="0.1" fill="#FFFFFF" enable-background="new    " d="M89.6,25.8v48.5c0,12.1-8.2,22.7-19.8,25.8H100V0H69.8
		C81.5,3.1,89.6,13.7,89.6,25.8z"/>
</g>
</svg>
