<?xml version="1.0" encoding="utf-8"?>
<!-- Generator: Adobe Illustrator 23.0.0, SVG Export Plug-In . SVG Version: 6.00 Build 0)  -->
<svg version="1.0" id="Layer_1" xmlns="http://www.w3.org/2000/svg" xmlns:xlink="http://www.w3.org/1999/xlink" x="0px" y="0px"
	 viewBox="0 0 100 100" enable-background="new 0 0 100 100" xml:space="preserve">
<rect id="rect1526" fill="#000F5D" width="100" height="100"/>
<path fill="#D59F0F" d="M61.7,27.3L60,25.9h2.1l0.7-2.1l0.6,2.1h2.1L64,27.3l0.6,2l-1.8-1.2l-1.7,1.2L61.7,27.3z M70.4,37.6l1.7-1.2
	l1.8,1.2l-0.6-2l1.7-1.3h-2.1l-0.6-2.1l-0.7,2.1h-2.1l1.7,1.3L70.4,37.6z M79.9,46.3h-2.1l-0.6-2.1l-0.7,2.1h-2.1l1.7,1.3l-0.6,2
	l1.7-1.2l1.8,1.2l-0.6-2L79.9,46.3z M67.7,49.4L67,47.3l-0.7,2.1h-2.1l1.7,1.3l-0.6,2l1.7-1.2l1.8,1.2l-0.6-2l1.7-1.3L67.7,49.4z
	 M75.9,59.6l-0.6-2.1l-0.7,2.1h-2.1l1.7,1.3l-0.6,2l1.7-1.2l1.8,1.2l-0.6-2l1.7-1.3H75.9z M68.4,69.9l-0.6-2.1L67,69.9h-2.1l1.7,1.3
	l-0.6,2l1.7-1.2l1.8,1.2l-0.6-2l1.7-1.3H68.4z M62.6,61.3L62,59.2l-0.7,2.1h-2.1l1.7,1.3l-0.6,2l1.7-1.2l1.8,1.2l-0.6-2l1.7-1.3
	H62.6z M57.2,76.3l-0.6-2.1l-0.7,2.1h-2.1l1.7,1.3l-0.6,2l1.7-1.2l1.8,1.2l-0.6-2l1.7-1.3H57.2z M43.7,76.3l-0.6-2.1l-0.7,2.1h-2.1
	l1.7,1.3l-0.6,2l1.7-1.2l1.8,1.2l-0.6-2l1.7-1.3H43.7z M41.1,61.3H39l-0.6-2.1l-0.7,2.1h-2.1l1.7,1.3l-0.6,2l1.7-1.2l1.8,1.2l-0.6-2
	L41.1,61.3z M32.6,69.9L32,67.8l-0.7,2.1h-2.1l1.7,1.3l-0.6,2L32,72l1.8,1.2l-0.6-2l1.7-1.3H32.6z M25.2,59.6l-0.6-2.1l-0.7,2.1
	h-2.1l1.7,1.3l-0.6,2l1.7-1.2l1.8,1.2l-0.6-2l1.7-1.3H25.2z M22.9,48.4l1.8,1.2l-0.6-2l1.7-1.3h-2.1l-0.6-2.1l-0.7,2.1h-2.1l1.7,1.3
	l-0.6,2L22.9,48.4z M36,49.4h-2.1l-0.6-2.1l-0.7,2.1h-2.1l1.7,1.3l-0.6,2l1.7-1.2l1.8,1.2l-0.6-2L36,49.4z M26.2,37.6l1.7-1.2
	l1.8,1.2l-0.6-2l1.7-1.3h-2.1L28,32.2l-0.7,2.1h-2.1l1.7,1.3L26.2,37.6z M35.6,29.3l1.7-1.2l1.8,1.2l-0.6-2l1.7-1.3h-2.1l-0.6-2.1
	L36.8,26h-2.1l1.7,1.3L35.6,29.3z M48.4,25.8l1.7-1.2l1.8,1.2l-0.6-2l1.7-1.3h-2.1l-0.6-2.1l-0.7,2.1h-2.1l1.7,1.3L48.4,25.8z
	 M60.7,29.5l-6.3,9l0.4,0.3l6.3-9L60.7,29.5z M70.1,36.1L70,35.6l-14.6,5.6l0.2,0.4l0.6-0.2c-0.4,0.3-1.1,1.1-1.5,1.6
	c0.2-0.4,0.3-0.9,0.2-1.4c-0.4-1.3,0.5-1.3,0.4-2.4c-3.5,1.6,0.3,3.5-2.7,7.1h-0.1h1.2c2.5-1.9,1.4-3.3,2.4-4.9L70.1,36.1z
	 M73.5,46.4l-17.8-2.1l-0.1,0.5l17.8,2.1L73.5,46.4z M50.8,66.3l-0.6-2.1l-0.7,2.1h-2.1l1.7,1.3l-0.6,2l1.7-1.2l1.8,1.2l-0.6-2
	l1.7-1.3H50.8z M48.5,33.8l-0.8,2.8l2.5-1.7l2.5,1.7l-0.8-2.8l2.3-1.9h-3l-1-2.9l-1,2.9h-3L48.5,33.8z M46.3,46.4h2.1
	c-2.8-2.8-0.4-3.7-2-6.7C46.4,42,43.9,43.1,46.3,46.4C46.3,46.3,46.3,46.4,46.3,46.4z M53.9,37.7c-2.1,0.1-3.7,1.1-4.3,3.2
	c0.1-0.8-0.3-1.2-0.7-2.3c0.1,0.9-0.7,2.2-1,3.4s0.3,3.2,1.2,4.4h2.8C55.1,42.8,50.1,40.6,53.9,37.7z M52,54.2
	c0.1-3.4,0.9-4.4,2.2-5.9c-2.7,0-5.7,0-8.1,0c1.4,1.4,2.1,2.5,2.2,5.9C49.5,54.2,50.8,54.2,52,54.2z M50.1,62.5l1.1,3.3l0.6-9.9
	c-1.1,0-2.2,0-3.3,0l0.6,9.9L50.1,62.5z M49.2,69.8l0.3,5.8c0,0,0.1,1.4,0.6,1.8l0,0c0.5-0.4,0.6-1.8,0.6-1.8l0.3-5.8l-0.9-0.6
	L49.2,69.8z M54.9,46.8h-9.4v0.9h9.4V46.8z M52.6,54.6h-5v1.1h5V54.6z M26.7,46.9l17.8-2.1l-0.1-0.5l-17.8,2.1L26.7,46.9z
	 M44.9,41.3l-14.6-5.6l-0.2,0.4l14.6,5.6L44.9,41.3z M45.8,38.5l-6.3-9l-0.4,0.3l6.3,9L45.8,38.5z M49.9,35.7V39h0.5v-3.3H49.9z
	 M47,29.6l-0.8-2.2l0.8-0.3c0.3-0.1,0.6-0.1,0.8,0s0.4,0.3,0.5,0.7c0.1,0.4,0.2,0.7,0.1,0.9c-0.1,0.3-0.3,0.4-0.6,0.6L47,29.6z
	 M46.5,27.6l0.6,1.6l0.5-0.2c0.2-0.1,0.4-0.2,0.4-0.4c0.1-0.2,0-0.4-0.1-0.7c-0.1-0.3-0.2-0.4-0.4-0.5s-0.4-0.1-0.6,0L46.5,27.6z
	 M45.5,31l-1.4-1.3h0.1h0.1l2,0.4l0.2-0.2l-1.7-1.6l-0.2,0.2l1.4,1.3h-0.1h-0.1l-2-0.4l-0.2,0.2l1.7,1.6L45.5,31z M45.1,31.7l-2.1-1
	L42.9,31l2.1,1.1L45.1,31.7z M50.4,28.3L50,28.9l-0.3-0.1l1.3-2.1l0.3,0.1l0.4,2.4l-0.3-0.1l-0.1-0.7L50.4,28.3z M50.6,28l0.7,0.1
	L51.1,27L50.6,28z M49.3,26.6H49l0.2,2.3h0.3L49.3,26.6z M52.2,29.5l1.1-1.6V28v0.1l-0.1,2l0.3,0.2l1.3-1.9l-0.2-0.2l-1.1,1.6v-0.1
	v-0.1l0.1-2l-0.3-0.2l-1.3,2L52.2,29.5z M53.7,30.6l2.4-0.5l0.2,0.3l-1.5,2L54.6,32l0.5-0.6l-0.5-0.8l-0.7,0.2L53.7,30.6z
	 M54.9,30.6l0.4,0.6l0.7-0.8L54.9,30.6z"/>
<g>
	<path opacity="0.2" enable-background="new    " d="M10.4,74.3V25.8c0-12.1,8.2-22.7,19.8-25.8H0v100h30.2
		C18.5,96.9,10.4,86.3,10.4,74.3z"/>
	<path opacity="0.1" fill="#FFFFFF" enable-background="new    " d="M89.6,25.8v48.5c0,12.1-8.2,22.7-19.8,25.8H100V0H69.8
		C81.5,3.1,89.6,13.7,89.6,25.8z"/>
</g>
</svg>
