<?xml version="1.0" encoding="utf-8"?>
<!-- Generator: Adobe Illustrator 23.0.0, SVG Export Plug-In . SVG Version: 6.00 Build 0)  -->
<svg version="1.0" id="Layer_1" xmlns="http://www.w3.org/2000/svg" xmlns:xlink="http://www.w3.org/1999/xlink" x="0px" y="0px"
	 width="50px" height="50px" viewBox="0 0 50 50" enable-background="new 0 0 50 50" xml:space="preserve">
<g>
	<g id="path148">
		<path fill="#003776" d="M0,50h50V0H0V50z"/>
	</g>
	<g id="g20711" transform="matrix(0.95532414,-0.0098063,0.0098063,0.95532414,3.1527458,25.790869)">
		<g id="path150">
			<path fill="#FFB32B" d="M23,12.2c-6.2,0.1-11.4-2.6-11.4-2.6s0,0.8-0.6,1.3c-0.5,0.4-1.3,0.6-2.1,0.2c-0.8-0.5-1.1-1.8-1.2-2.2
				C7.6,8.1,8,7.5,8.4,7.1C8.9,6.7,9.7,6.7,10.3,7c0.5,0.2,0.6,1.3,0.3,1.7C10.3,9,10,9.1,9.5,9C9.1,8.9,9.2,8.3,9.2,8.3
				s0.1,0.1,0.2,0.2s0.4,0.1,0.7-0.1c0.2-0.2-0.1-0.8-0.5-0.8c-0.2,0-0.5,0.3-0.5,0.3s0-0.2-0.2-0.3C8.8,7.5,8.6,7.5,8.6,7.5
				s0,0.2,0.1,0.3c0.1,0.1,0,0.4-0.2,0.5C8.4,8.5,8.4,9,8.6,9.2c0.1,0.2,0.7,0.3,0.7,0.3s0,0.4,0.1,0.6c0.1,0.3,0.6,0.4,0.6,0.4
				s0.1-0.3,0-0.4c-0.1-0.1,0.2-0.5,0.8-1c0.6-0.5,0.6-1.1,0.4-1.7c-0.1-0.7-1.1-1.2-1.7-1.3C8.5,6,8.4,6.2,8.4,6.2s0,0,0-0.2
				c0,0-0.3-0.3-0.4-0.3C7.6,5.7,7.4,5.9,7.4,5.9C7.2,5.9,7.1,6,7.2,6.3c0.1,0.3,0.5,0.1,0.5,0.1l0-0.1c0,0,0,0.3-0.2,0.6
				C7.3,7.1,6.2,8.6,6.3,9.4c0.1,1,0.5,1.3,0.7,1.6c0.2,0.3,0.4,0.6,0.3,0.8c-0.1,0.2-0.1,0.4-0.1,0.4s6.6,4.1,16.2,4.1
				c6,0.3,14.7-3.9,14.7-3.9s0-0.2-0.1-0.4c0-0.2,0.1-0.5,0.3-0.8c0.2-0.3,0.6-0.6,0.7-1.6c0.1-0.8-1-2.3-1.2-2.6
				c-0.2-0.3-0.2-0.6-0.2-0.6l0,0.1c0,0,0.4,0.2,0.5-0.1c0.1-0.3,0-0.3-0.2-0.5c0,0-0.3-0.2-0.6-0.1c-0.1,0-0.4,0.3-0.4,0.3
				c0,0.2,0,0.2,0,0.2s-0.1-0.3-1.1-0.2c-0.6,0.1-1.6,0.5-1.8,1.2c-0.2,0.6-0.2,1.2,0.4,1.7c0.6,0.5,0.9,0.9,0.8,1s0,0.4,0,0.4
				s0.5-0.1,0.6-0.4c0.1-0.2,0.1-0.6,0.1-0.6s0.6,0,0.7-0.3c0.1-0.2,0.2-0.8,0.1-0.9c-0.1-0.1-0.2-0.4-0.1-0.6
				c0.1-0.1,0.1-0.3,0.1-0.3s-0.1,0-0.3,0.1c-0.1,0.1-0.2,0.3-0.2,0.3s-0.3-0.3-0.5-0.3c-0.4,0-0.7,0.6-0.5,0.8
				c0.2,0.2,0.5,0.2,0.7,0.2c0.1-0.1,0.2-0.2,0.2-0.2s0,0.7-0.4,0.7c-0.5,0.1-0.8,0-1.1-0.3C34.3,8.2,34.5,7.2,35,7
				c0.6-0.3,1.4-0.2,1.9,0.2c0.4,0.4,0.8,1.1,0.7,1.8c-0.1,0.4-0.4,1.7-1.3,2.2c-0.7,0.4-1.6,0.1-2-0.3c-0.5-0.5-0.5-1.2-0.5-1.2
				S29.1,12.1,23,12.2"/>
		</g>
		<g id="path152">
			<path fill="#EF1439" d="M23.2,15.6c-4.9,0-10.5-2-11.2-2.2c-0.7-0.2-3.2-1.5-3.2-1.5s1.1,0.3,2.1,0.1c0.6-0.1,0.8-0.5,1-0.8
				s0.3-0.7,0.3-0.7s5.2,2.1,11.2,2.3c5.6,0,10.1-2.1,10.1-2.1s0.1,0.4,0.3,0.7c0.2,0.3,0.4,0.7,1,0.8c1,0.3,2.1,0,2.1,0
				s-2.6,1.2-3.2,1.4C33,13.7,28.1,15.7,23.2,15.6"/>
		</g>
		<g id="path154">
			<path fill="#FFB32B" d="M13,11.9c0-0.1,0-0.1,0-0.2c0-0.1-0.1-0.1-0.2-0.1c-0.1,0-0.2,0-0.3,0.1c0,0.1,0.1,0.2,0.2,0.3
				c0.3,0.2,0.7,0.4,0.5,0.9c-0.1,0.4-0.6,0.5-1,0.4c-0.4-0.1-0.7-0.4-0.5-0.9l0.5,0.2c-0.1,0.2,0,0.3,0.2,0.4c0.1,0,0.3,0,0.3-0.1
				c0.1-0.3-0.3-0.3-0.6-0.6c-0.1-0.1-0.2-0.4-0.1-0.6c0.2-0.5,0.6-0.5,0.9-0.4c0.4,0.1,0.7,0.4,0.5,0.9L13,11.9"/>
		</g>
		<g id="path156">
			<path fill="#FFB32B" d="M14.2,12l-0.5-0.2l0.1-0.4l1.6,0.5l-0.1,0.4l-0.5-0.2l-0.5,1.7l-0.5-0.1L14.2,12"/>
		</g>
		<g id="path158">
			<path fill="#FFB32B" d="M14.7,14l1.2-1.9l0.6,0.1l0.2,2.2l-0.5-0.1l0-0.4l-0.7-0.2l-0.2,0.4L14.7,14L14.7,14z M16.1,13.5l0-0.9
				l0,0l-0.5,0.8L16.1,13.5"/>
		</g>
		<g id="path160">
			<path fill="#FFB32B" d="M17.6,12.9l-0.5-0.1l0.1-0.4l1.6,0.3l-0.1,0.4L18.1,13l-0.3,1.7l-0.5-0.1L17.6,12.9"/>
		</g>
		<g id="path162">
			<path fill="#FFB32B" d="M18.5,14.9l0.3-2.1l1.4,0.2l-0.1,0.4l-0.9-0.1l-0.1,0.4l0.8,0.1l-0.1,0.4L19,14.1l-0.1,0.4l0.9,0.1
				L19.7,15L18.5,14.9"/>
		</g>
		<g id="path164">
			<path fill="#FFB32B" d="M20.9,14.1c0-0.7,0.4-1.1,1-1c0.6,0,0.9,0.5,0.9,1.2s-0.4,1.1-1,1C21.2,15.3,20.9,14.8,20.9,14.1
				L20.9,14.1z M21.9,13.5c-0.3,0-0.4,0.3-0.5,0.7c0,0.3,0,0.7,0.4,0.7c0.3,0,0.4-0.3,0.5-0.7C22.3,13.9,22.2,13.5,21.9,13.5"/>
		</g>
		<g id="path166">
			<path fill="#FFB32B" d="M23.5,15.3l-0.5,0l0-2.1l1.3,0l0,0.4l-0.8,0l0,0.5l0.7,0l0,0.4l-0.7,0L23.5,15.3"/>
		</g>
		<g id="path168">
			<path fill="#FFB32B" d="M25.2,15.2L25,13.1l0.5-0.1l0.2,2.1L25.2,15.2"/>
		</g>
		<g id="path170">
			<path fill="#FFB32B" d="M26.5,12.9c0.6-0.1,1.1,0.1,1.2,0.9c0.1,0.8-0.2,1.1-0.8,1.2l-0.8,0.1L25.8,13L26.5,12.9z M26.5,14.6
				l0.2,0c0.3,0,0.5-0.3,0.4-0.7c-0.1-0.4-0.4-0.6-0.6-0.6l-0.2,0L26.5,14.6"/>
		</g>
		<g id="path172">
			<path fill="#FFB32B" d="M28,14.8l0.2-2.2l0.6-0.1l1.2,1.9l-0.6,0.1l-0.2-0.4l-0.7,0.2l0,0.4L28,14.8z M29,13.7l-0.4-0.8l0,0
				l0,0.9L29,13.7"/>
		</g>
		<g id="path174">
			<path fill="#FFB32B" d="M30.1,14.3l-0.6-2.1l0.5-0.1l0.2,0.8l0.6-0.2l-0.2-0.8l0.5-0.1l0.6,2.1L31.2,14L31,13.2l-0.6,0.2l0.2,0.8
				L30.1,14.3"/>
		</g>
		<g id="path176">
			<path fill="#FFB32B" d="M31.5,12.8c-0.2-0.7,0-1.2,0.5-1.4c0.6-0.2,1,0.1,1.2,0.8c0.2,0.7,0,1.2-0.5,1.4
				C32.2,13.7,31.7,13.5,31.5,12.8L31.5,12.8z M32.2,11.8c-0.3,0.1-0.3,0.5-0.2,0.8c0.1,0.3,0.3,0.6,0.6,0.5
				c0.3-0.1,0.3-0.5,0.2-0.8C32.7,12.1,32.5,11.7,32.2,11.8"/>
		</g>
	</g>
	<g id="g19623" transform="matrix(1.0398117,0,0,1.0398117,-5.9014328,-15.880969)">
		<path d="M36.9,26.3c3.6,3,4.8,8,3.4,12.3c-0.3,0.8-0.6,1.5-1.1,2.3c-0.3,0.6-0.7,1.1-1.2,1.7c-2.9,3.3-7.5,4.6-11.4,3.3
			c-3-0.8-5.9-3.3-7.1-6.4c-1-2.3-1.2-5.2-0.5-7.6c1-4.1,5.1-7.7,9.4-8.2C31.4,23.4,34.5,24.4,36.9,26.3"/>
		<path fill="#FFE835" d="M36.7,26.9c3.5,2.9,4.7,7.7,3.3,11.9c-0.3,0.8-0.6,1.5-1.1,2.2c-0.3,0.6-0.7,1.1-1.2,1.6
			c-2.8,3.2-7.3,4.4-11.1,3.2c-2.9-0.8-5.7-3.2-6.9-6.2c-1-2.2-1.2-5-0.5-7.3c1-4,5-7.4,9.1-7.9C31.4,24.1,34.4,25,36.7,26.9"/>
		<g id="path236">
			<path d="M30.4,24.7C30.5,24.7,30.5,24.8,30.4,24.7c0.1,0.2,0.1,0.4,0,0.5c-0.1,0-0.1-0.1-0.2-0.2s-0.2-0.2-0.3-0.2
				c-0.1,0-0.2,0.1-0.3,0.2c0,0.1,0,0.1,0.1,0.2c0.3,0.1,0.7,0.1,0.7,0.5c0,0.2-0.1,0.4-0.3,0.5c-0.3,0.2-0.6-0.2-0.8,0.1
				c-0.1,0,0-0.2-0.1-0.2c0-0.1-0.1-0.3,0-0.4c0.1,0.1,0.2,0.3,0.3,0.4c0.2,0,0.3,0.1,0.5,0c0.1-0.1,0.1-0.1,0.1-0.2
				c-0.3-0.2-0.8-0.1-0.8-0.6c0-0.2,0.1-0.3,0.2-0.4C29.9,24.7,30.2,24.7,30.4,24.7L30.4,24.7"/>
		</g>
		<g id="path242">
			<path d="M32.3,25.1c0,0.1,0,0.3,0,0.4c-0.1,0-0.1-0.1-0.1-0.1c0-0.1,0-0.2-0.1-0.2s-0.3-0.1-0.4,0c0,0.1-0.1,0.3,0,0.4
				c0.1,0,0.3,0,0.3-0.2l0,0c0,0.2,0,0.4-0.2,0.6c-0.1-0.1,0-0.4-0.2-0.3c-0.1,0.1-0.1,0.3-0.1,0.4c0.1,0.1,0.3,0.2,0.5,0.2
				c0.1-0.1,0.1-0.2,0.2-0.2c0,0.1-0.1,0.2-0.2,0.4c-0.4-0.1-0.8-0.2-1.3-0.2v-0.1c0.1-0.1,0.2,0,0.3-0.1c0.1-0.3,0.2-0.7,0.2-1
				c0-0.1-0.2-0.1-0.2-0.2C31.5,24.9,31.9,25,32.3,25.1"/>
		</g>
		<g id="path246">
			<path d="M28.1,25.1c0,0.1,0.1,0.2,0,0.3c-0.2,0-0.2-0.4-0.4-0.2c0,0.3,0.1,0.6,0.2,0.9c0.1,0.1,0.4,0,0.2,0.2
				c-0.3,0-0.5,0.1-0.8,0.2c0,0-0.1-0.1,0-0.1c0.4-0.1,0.1-0.5,0.1-0.8c0-0.1-0.1-0.3-0.1-0.4c-0.1,0-0.2,0-0.2,0.1
				c-0.1,0.1,0,0.3-0.2,0.3c0-0.1-0.1-0.3-0.1-0.4c0.4-0.1,0.7-0.2,1.1-0.3L28.1,25.1"/>
		</g>
		<g>
			<path d="M33.5,25.4C33.5,25.4,33.5,25.5,33.5,25.4C33.6,25.4,33.5,25.4,33.5,25.4z"/>
			<path d="M33.9,26.9v-1.3c-0.1,0-0.2-0.1-0.3-0.1l0,0c-0.1,0.1-0.1,0.2-0.2,0.2c0,0.2,0,0.5,0,0.7c-0.1-0.1-0.3-0.1-0.4-0.2
				c0-0.1,0.1-0.2,0.2-0.2c-0.1,0.1-0.2,0.1-0.3,0.2c-0.1,0.2-0.3,0.1-0.4,0.2c0.2,0.1,0.4,0.2,0.6,0.2L33,26.5
				c-0.1-0.1-0.1-0.2,0-0.2c0.2,0.1,0.4,0.1,0.6,0.2v0.1c-0.1,0.2-0.2,0-0.3,0.1v0.1c0.2,0.1,0.4,0.3,0.7,0.3
				C34.1,27,33.9,27,33.9,26.9z"/>
			<path d="M33.5,25.3L33.5,25.3L33.5,25.3z"/>
			<path d="M33.4,25.7c-0.1,0.1-0.2,0.2-0.3,0.3C33.2,25.9,33.3,25.8,33.4,25.7L33.4,25.7z"/>
		</g>
		<g>
			<path d="M25.6,27.2c0.1-0.1,0.3-0.2,0.4-0.2c0,0,0.1,0,0.1-0.1c0,0-0.1,0-0.2,0c-0.1-0.1-0.1-0.1-0.1-0.2v0.1
				C25.7,27,25.5,27.1,25.6,27.2z"/>
			<path d="M26.8,26.4c-0.3-0.2-0.6-0.6-0.9-0.9c-0.2,0.1-0.4,0.2-0.4,0.2c0,0.2,0.2,0,0.3,0.1V26l0.3,0.3c-0.1,0.1-0.2,0.1-0.3,0.2
				v0.2c0.1-0.2,0.3-0.2,0.5-0.3c0.2,0.2-0.1,0.3-0.1,0.4c0.2,0,0.4-0.2,0.6-0.2c0-0.1,0.2-0.1,0.2-0.2C27,26.4,26.9,26.4,26.8,26.4
				z"/>
			<path d="M25.7,25.9c0,0.2,0,0.4,0,0.6h0.1L25.7,25.9L25.7,25.9z"/>
		</g>
		<g id="path288">
			<path d="M35.5,26.5L35.5,26.5c-0.1,0.1-0.2,0-0.3,0.1l-0.5,0.8c0.1,0.2,0.2,0.2,0.3,0.3c0.1,0,0.2,0,0.3-0.1c0,0,0.1,0.1,0,0.1
				c-0.3,0.6-0.7-0.2-1-0.2c-0.1-0.1-0.3-0.1-0.3-0.3c0.1,0,0.2,0.1,0.3,0c0.2-0.2,0.3-0.5,0.5-0.7c0-0.1-0.2-0.2-0.1-0.3
				C35,26.2,35.3,26.3,35.5,26.5"/>
		</g>
		<g id="path296">
			<path d="M24.7,26.6c-0.2,0.1-0.3-0.2-0.4-0.1L24,26.7c0,0.1,0.2,0.2,0.2,0.4c0.2,0,0.2-0.3,0.2-0.4l0,0l0.3,0.4
				c0,0,0,0.1-0.1,0.1s-0.2-0.1-0.3-0.1c-0.1,0-0.2,0.1-0.1,0.2c0.1,0.1,0.1,0.2,0.2,0.3c0.2-0.1,0.4-0.1,0.5-0.3
				c0-0.1-0.1-0.2,0-0.3c0.1,0,0.1,0.1,0.1,0.1c0,0.1,0.1,0.2,0.1,0.3c-0.3,0.2-0.7,0.4-1,0.7c-0.1,0-0.1,0-0.1-0.1s0.1-0.1,0.1-0.2
				l-0.5-0.7c-0.1-0.1-0.3,0.1-0.4,0V27c0.4-0.3,0.7-0.5,1.1-0.8C24.6,26.2,24.6,26.4,24.7,26.6"/>
		</g>
		<g id="path302">
			<path d="M37,30.3c0.5,0.7,0.8,1.6,1.1,2.4v0.1c1,3.5-0.3,7.4-3.3,9.6c-2.7,2-6.7,2.2-9.6,0.4c-3-1.9-4.7-5.3-4.2-8.9
				c0.4-2.8,2.3-5.5,4.9-6.7c1.4-0.8,3.1-1,4.8-0.9C33.2,26.8,35.6,28.2,37,30.3"/>
		</g>
		<g id="path308">
			<path fill="#EF1439" d="M37.4,31.3c1.5,3.1,1,7-1.2,9.6c-2,2.4-5.2,3.5-8.2,2.9c-0.9-0.1-1.7-0.5-2.4-0.9l0,0
				c-2-1.1-3.5-3.1-4.1-5.2c-1-3.5,0.1-7.2,3-9.4c1.8-1.4,4.1-2,6.4-1.7C33.5,27.1,36.2,28.8,37.4,31.3"/>
		</g>
		<g id="path310">
			<path d="M37.6,32.1c0.4,1.1,0.6,2.3,0.5,3.6c0,0.6-0.1,1.1-0.2,1.6c-0.6,2.4-2.4,4.8-4.8,5.8c-2.2,1.1-5.2,1-7.4-0.2
				c-2.7-1.4-4.5-4.2-4.6-7.2c-0.1-2,0.4-3.9,1.6-5.5c2.1-2.8,5.4-4.1,8.7-3.4C34.1,27.5,36.7,29.5,37.6,32.1"/>
		</g>
		<g id="path320">
			<path fill="#FFD9C5" d="M25.2,30.6c0,0,0,0.1,0.1,0.1c0.1,0.1-0.1,0.2-0.1,0.3l-0.1,0.1c0.1,0,0.1,0,0.2,0c0.3,0.1,0,0.3,0.3,0.4
				c0.1,0,0.2,0,0.2,0.1c-0.2,0.1-0.4,0.4-0.7,0.3c-0.1-0.1-0.2-0.2-0.2-0.4l0,0c0,0,0,0.2,0.1,0.1v-0.5c-0.1,0-0.2,0-0.3,0V31
				c0,0,0,0,0-0.1l-0.1-0.1c-0.1-0.1,0.1-0.1,0.1-0.2c0-0.2,0.1-0.3,0.1-0.5h0.1l0,0c0,0-0.1,0,0,0.1v0.1c0.1,0.1,0.2-0.1,0.2,0.1
				l0,0l0,0C25,30.5,25.1,30.5,25.2,30.6C25.2,30.6,25.1,30.6,25.2,30.6L25.2,30.6"/>
		</g>
		<g id="path336">
			<path fill="#FFFFFF" d="M25.5,36c-0.1-0.1-0.1-0.2-0.2-0.3c0,0.1,0,0.2,0,0.3c0-0.2-0.1-0.3-0.1-0.5C25.3,35.7,25.4,35.8,25.5,36
				L25.5,36"/>
		</g>
		<g id="path340">
			<path fill="#EFAE0E" d="M35.7,30.2L35.7,30.2L35.7,30.2c-0.1,0-0.2,0-0.3,0c-0.2-0.1-0.5-0.1-0.7,0c-0.1,0-0.1,0.2-0.2,0.1
				c0-0.1,0.2-0.2,0.2-0.3c-0.2,0.1-0.3,0.3-0.4,0.4c-0.1,0-0.1-0.1,0-0.2c0.1-0.2,0.3-0.3,0.4-0.4c0.3-0.1,0.5,0.3,0.9,0.2
				L35.7,30.2"/>
		</g>
		<path d="M23.6,28.2c-0.1,0-0.1-0.1-0.2-0.1s-0.2,0-0.3,0.1c-0.1-0.1,0.2-0.2,0.1-0.4c0-0.2-0.2-0.3-0.4-0.3
			c-0.4,0.1-0.7,0.5-1,0.8v0.1c0.1,0,0.1-0.1,0.2-0.1c0.2,0.2,0.4,0.4,0.6,0.6c0.1,0.1,0,0.3,0,0.4s0.1,0.1,0.1,0.1
			c0.1-0.2,0.3-0.4,0.5-0.6c0,0,0.1-0.1,0-0.1h-0.1c-0.1,0.1-0.2-0.1-0.3-0.2c0-0.1,0.1-0.2,0.1-0.2c0.2-0.1,0.3,0.2,0.5,0.2
			c0.1,0,0.2,0,0.3-0.1c0.1-0.1,0.1-0.3,0.1-0.4C23.6,28,23.7,28.2,23.6,28.2z M22.9,28.2c0,0-0.1,0.1-0.1,0.2
			c-0.1-0.1-0.3-0.3-0.4-0.4c0-0.1,0.1-0.2,0.2-0.2s0.2,0,0.3,0.1C23,28,23,28.1,22.9,28.2z"/>
		<path d="M37.6,28.3c-0.1-0.3-0.4-0.5-0.7-0.7c-0.3-0.1-0.5,0.1-0.7,0.3c-0.2,0.1-0.2,0.4-0.1,0.6c0.1,0.4,0.5,0.8,0.9,0.8
			c0.3,0,0.6-0.2,0.7-0.5C37.7,28.6,37.7,28.5,37.6,28.3z M37.4,28.5c-0.2,0.2-0.4,0.5-0.8,0.4c-0.1,0-0.2-0.2-0.2-0.2
			c-0.1-0.2,0-0.4,0.1-0.5c0.2-0.2,0.4-0.4,0.6-0.3c0.2,0.1,0.3,0.2,0.3,0.3C37.5,28.3,37.4,28.4,37.4,28.5z"/>
		<g id="path420">
			<path d="M21.9,29c-0.1,0.1-0.2-0.1-0.3,0c-0.2,0-0.3,0.2-0.3,0.4c0,0.3,0.3,0.5,0.5,0.7c0.1,0,0.2,0,0.4,0
				c0.1-0.1,0.2-0.2,0.2-0.3c0-0.1-0.2-0.2-0.3-0.2c-0.1,0-0.2,0.2-0.3,0.1l0.4-0.6c0.2,0.1,0.4,0.2,0.4,0.5c0,0.4-0.2,0.7-0.5,0.9
				c-0.3,0.2-0.7-0.1-0.9-0.3c-0.2-0.2-0.1-0.5,0-0.8c0-0.3,0.5-0.4,0.3-0.7l0,0C21.5,28.7,21.8,28.9,21.9,29"/>
		</g>
		<g id="path436">
			<path d="M39,30.1c0,0.1-0.2,0.3-0.3,0.3c0-0.1,0.2-0.2,0.1-0.4c-0.1-0.1-0.2-0.2-0.2-0.3c-0.2,0-0.3,0.1-0.4,0.2
				c0,0.1,0.1,0.2,0.1,0.2c0.1,0.1,0.2,0,0.2,0c-0.1,0.1-0.3,0.2-0.5,0.3c-0.1-0.1,0.3-0.3,0-0.4h-0.1c-0.1,0.1-0.2,0.1-0.3,0.2
				c0,0.1,0,0.2,0,0.3h-0.1c-0.1-0.2-0.3-0.5-0.4-0.7c0.1-0.1,0.2,0.2,0.4,0.1l0.7-0.4c0.1-0.1-0.1-0.3,0.1-0.3L39,30.1"/>
		</g>
		<g id="path442">
			<path fill="#FFFFFF" d="M27.2,29.5c-0.4,0.1-0.5,0.5-0.8,0.7c-0.1-0.1,0-0.2,0-0.3c0.1-0.3,0.3-0.5,0.5-0.7
				C27,29.3,27.1,29.4,27.2,29.5"/>
		</g>
		<g id="path454">
			<path fill="#FFFFFF" d="M27.3,29.7c0,0.3-0.2,0.5-0.4,0.6c0-0.1,0-0.4,0.1-0.5C27,29.7,27.2,29.5,27.3,29.7"/>
		</g>
		<g id="path478">
			<path fill="#C5792C" d="M30.2,30.7c0-0.2,0-0.4,0-0.5V30.7L30.2,30.7"/>
		</g>
		<g id="path494">
			<path d="M35.1,30.5c-0.1,0.1-0.2,0.1-0.2,0.1s0,0-0.1-0.1C34.9,30.5,34.9,30.5,35.1,30.5c-0.1-0.1-0.3-0.1-0.3-0.1
				C34.9,30.4,35.1,30.4,35.1,30.5"/>
		</g>
		<g id="path498">
			<path d="M35.4,30.4L35.4,30.4L35.4,30.4C35.3,30.5,35.3,30.5,35.4,30.4C35.4,30.5,35.3,30.5,35.4,30.4c-0.2,0.1-0.1,0.1-0.2,0.2
				c0-0.1-0.1-0.1,0-0.2C35.3,30.4,35.4,30.4,35.4,30.4"/>
		</g>
		<g id="path508">
			<path d="M34.6,30.6L34.6,30.6C34.5,30.7,34.6,30.6,34.6,30.6L34.6,30.6"/>
		</g>
		<g id="path512">
			<path fill="#86E2FF" d="M28.7,30.9c-0.1,0-0.2,0-0.3,0c-0.1-0.1-0.1-0.1-0.1-0.2C28.4,30.6,28.6,30.7,28.7,30.9"/>
		</g>
		<g id="path514">
			<path fill="#86E2FF" d="M34.3,30.7c0.1,0.2,0.4,0.1,0.3,0.3c-0.1,0.2-0.2,0.2-0.4,0.3c-0.1-0.1-0.2-0.4-0.2-0.6
				C34,30.6,34.2,30.6,34.3,30.7L34.3,30.7"/>
		</g>
		<g id="path524">
			<path d="M34.8,30.8L34.8,30.8L34.8,30.8C34.8,30.7,34.8,30.8,34.8,30.8"/>
		</g>
		<g id="path530">
			<path d="M24.7,30.9C24.6,30.9,24.6,30.8,24.7,30.9C24.6,30.8,24.7,30.9,24.7,30.9"/>
		</g>
		<g id="path538">
			<path fill="#EFAE0E" d="M34.8,31.4c0.1,0.1,0.2,0.2,0.2,0.3c-0.1-0.1-0.3,0-0.4-0.1c0-0.2,0-0.4,0.1-0.5L34.8,31.4"/>
			<g id="path540">
				<path fill="#EFAE0E" d="M35.3,31.6L35.3,31.6c0.1-0.2,0-0.4,0-0.5c-0.2,0.1-0.1,0.4-0.3,0.5h0.1H35.3L35.3,31.6"/>
			</g>
			<g id="path542">
				<path fill="#EF1439" d="M35.1,31.9c0-0.1,0-0.1,0-0.2l0,0"/>
			</g>
			<g id="path546">
				<path d="M25,31.5c0-0.1,0-0.2,0-0.3C25.1,31.3,25.1,31.4,25,31.5"/>
			</g>
			<g id="path552">
				<path fill="#FFD9C5" d="M24.2,31.3c0,0.1,0,0.1-0.1,0.2c0,0,0.1,0,0,0.1h0.1c0,0.1-0.1,0.1-0.1,0.1s0.1,0,0.1-0.1l0,0
					c-0.1,0.2-0.2,0.4-0.4,0.6c0,0.3,0.1,0.5,0,0.8l0,0l0,0c0.1-0.3-0.2-0.7,0.2-0.9v0.4c0,0,0-0.1-0.1-0.1c0,0.1,0,0.2,0.1,0.2
					c0.1,0.3-0.2,0.4-0.3,0.6c-0.1,0.1-0.1,0.1-0.2,0c-0.3-0.5,0.1-1,0.2-1.5C24,31.5,24.1,31.4,24.2,31.3"/>
			</g>
			<g id="path570">
				<path fill="#FFD9C5" d="M34.5,31.9c-0.1,0-0.1,0-0.2,0C34.3,31.8,34.5,31.9,34.5,31.9c-0.2-0.1-0.3,0-0.4,0
					c0,0.2-0.1,0.3-0.1,0.5l-0.2,0.3c-0.1,0-0.2,0.1-0.3,0.1l0.1-0.1c0-0.1,0,0-0.1-0.1c-0.1,0-0.1,0-0.2,0.1l-0.1,0.1
					c-0.1,0.2,0,0.4,0.1,0.6c0,0.1,0.1,0.1,0.1,0.1c0.2-0.1,0.4-0.2,0.5-0.4c0.1-0.3,0.3-0.5,0.4-0.8c0-0.1,0.1-0.2,0.2-0.1l0,0
					c0-0.1-0.1,0-0.2-0.1h0.1l0,0c-0.1,0-0.2,0-0.2,0C34.5,31.9,34.5,32,34.5,31.9L34.5,31.9"/>
			</g>
			<g id="path584">
				<path d="M25,31.7"/>
			</g>
			<g id="path590">
				<path fill="#FFD9C5" d="M24.9,34.7c0.1-0.2,0.2-0.5,0.4-0.7c0.3-0.2,0.7-0.3,0.9-0.6c0-0.5,0-1-0.2-1.4
					c-0.1-0.1-0.2-0.3-0.4-0.3v0.1c0,0.1-0.1,0.3,0,0.5c0.1,0.3,0.2,0.6,0.2,0.9c-0.3,0.5-0.9,0.6-1.1,1.1c0,0.2-0.2,0.3-0.1,0.5
					v0.1h0.1h0.1C24.9,34.8,24.9,34.8,24.9,34.7L24.9,34.7"/>
			</g>
			<g id="path616">
				<path fill="#EF1439" d="M35.2,32L35.2,32L35.2,32C35.2,31.9,35.2,32,35.2,32"/>
			</g>
			<g id="path632">
				<path d="M34.5,32.2L34.5,32.2L34.5,32.2C34.4,32.2,34.4,32.2,34.5,32.2"/>
			</g>
			<g id="path652">
				<path d="M22.7,32.5L22.7,32.5L22.7,32.5L22.7,32.5L22.7,32.5"/>
			</g>
			<g id="path658">
				<path d="M22.5,32.6L22.5,32.6L22.5,32.6L22.5,32.6"/>
			</g>
			<g id="path666">
				<path fill="#FFD9C5" d="M36.4,32.8c0,0.1,0,0.2,0.1,0.3h0.1v0.1c0.2,0.4,0.1,1,0.5,1.3c0,0.1-0.2,0.1-0.1,0.2c0,0,0,0.1,0,0.2
					c0,0,0-0.1-0.1-0.1c-0.1,0.1,0.2,0.3,0,0.2c0-0.1-0.1-0.2-0.1-0.3v0.2l0,0c-0.1-0.3-0.1-0.8-0.3-1.1c-0.1-0.1-0.2-0.3-0.2-0.5
					l0,0c0-0.2-0.3-0.3-0.2-0.4C36.2,32.8,36.3,32.7,36.4,32.8"/>
			</g>
			<g id="path672">
				<path fill="#86E2FF" d="M25.5,33.5c0,0,0-0.2,0-0.3l0.3-0.4v0.3L25.5,33.5"/>
			</g>
			<g id="path676">
				<path fill="#36E218" d="M23.4,32.9L23.4,32.9L23.4,32.9L23.4,32.9"/>
			</g>
			<g id="path682">
				<path fill="#86E2FF" d="M35.8,36.8c0.1-0.7,0.1-1.5,0.1-2.2c0-0.3-0.5-0.7-0.1-1c0-0.2,0.1-0.4,0.1-0.6c0.1,0,0.1,0.1,0.2,0.2
					c0,0.5,0.4,0.8,0.4,1.3c0,0.2,0.1,0.3,0.2,0.5c-0.2,0.6-0.4,1.2-0.5,1.8L35.8,36.8"/>
			</g>
			<g id="path694">
				<path d="M35.2,33.2L35.2,33.2L35.2,33.2L35.2,33.2"/>
			</g>
			<g id="path776">
				<path d="M20.6,34.4c0,0.3-0.1,0.7-0.1,1.1l0,0c-0.2,0-0.3,0.1-0.4,0c0-0.1,0.2-0.1,0.3-0.2c0-0.1,0-0.2-0.1-0.3h-0.9
					c-0.2,0-0.1,0.4-0.3,0.2c0-0.3,0-0.6,0.1-0.8c0.2-0.1,0.1,0.2,0.2,0.3c0.3,0,0.5,0.1,0.9,0c0-0.1,0.1-0.2,0-0.2
					c-0.1-0.1-0.3-0.2-0.2-0.3C20.3,34.2,20.7,34.2,20.6,34.4"/>
			</g>
			<g id="path814">
				<path d="M24.7,34.6L24.7,34.6L24.7,34.6"/>
			</g>
			<g id="path818">
				<path fill="#36E218" d="M32.1,34.6L32.1,34.6L32.1,34.6L32.1,34.6"/>
			</g>
			<g id="path820">
				<path fill="#FFD9C5" d="M37.1,34.6L37.1,34.6L37.1,34.6L37.1,34.6"/>
			</g>
			<g id="path822">
				<path d="M24.8,34.9"/>
			</g>
			<path d="M40.2,34.6c-0.1-0.1-0.3-0.2-0.3-0.2c-0.3-0.1-0.7,0-0.9,0.2c-0.3,0.3-0.2,0.8-0.1,1.2c0.1,0.1,0.2,0.2,0.4,0.3
				c0.3,0,0.6,0.1,0.8-0.2C40.3,35.5,40.4,35,40.2,34.6z M40,35.5c-0.2,0.2-0.6,0.1-0.9,0c-0.1-0.1-0.2-0.2-0.2-0.3
				c0-0.2,0-0.2,0.1-0.3c0.2-0.2,0.6-0.2,0.8-0.1c0.1,0,0.2,0.1,0.3,0.2C40.1,35.2,40.1,35.4,40,35.5z"/>
			<g id="path882">
				<path fill="#866E3F" d="M35.9,38.1c0.1-0.8,0.4-1.6,0.6-2.4l0.2-0.5c0.1,0.1,0,0.2,0,0.3c-0.3,0.8-0.4,1.6-0.7,2.4
					C36,38,36,38,35.9,38.1L35.9,38.1"/>
			</g>
			<g id="path884">
				<path fill="#B9B9B9" d="M36,38.1C36,38.1,36,38.2,36,38.1c0.1,0,0.2,0.1,0.3,0.1c0,0.3,0,0.6-0.2,0.8L36,39.1L35.9,39
					c-0.1,0.1-0.2,0-0.2,0.2c-0.2-0.1-0.2-0.3-0.2-0.5c0-0.2,0.1-0.4,0.2-0.6C35.8,38.1,36,38.1,36,38.1c-0.1,0.2-0.1,0.3-0.1,0.4
					l0,0C35.9,38.4,35.9,38.3,36,38.1L36,38.1"/>
			</g>
			<g id="path896">
				<path fill="#EFAE0E" d="M35,35.7c0.1,0.3,0.1,1.1,0,1c-0.2,0.3,0.1,0.5,0,0.5c-0.1,0.1,0,0.5-0.1,0.4l0,0c-0.1,0,0,0.1,0,0.2
					c0,0.1,0.1,0.1,0.2,0.1c0.1,0,0.5-0.2,0.5-0.2c-0.1,0.1,0.1-0.4,0.1-0.5c0-0.1,0.1-0.5,0.1-0.5v-0.3c0-0.4,0-0.9-0.1-1.3
					c0.1,0.2,0.1,0.4,0.2,0.6l0,0c0.1-0.3,0-0.7,0.1-1.1c-0.2-0.1-0.3-0.3-0.4-0.4c0.2,0,0.2,0.3,0.4,0.2c0-0.1-0.1-0.2-0.1-0.3
					c0-0.1-0.2-0.1-0.1-0.2c0.1,0,0.1,0.1,0.1,0.1c0-0.2-0.3-0.1-0.3-0.3c0-0.1,0.1,0,0.1,0v-0.1c-0.4,0-0.8,0-1.2,0
					c-0.2-0.1-0.1,0.2-0.2,0.3c0,0,0.1-0.1,0.1,0c-0.1,0.1-0.2,0.3-0.3,0.4c0,0.6-0.1,1.2,0,1.8c0,0.2,0,1.2,0,1.3
					c0.1,0.1,0,0,0,0.1v0.2c0.1,0.2,0.2,0.2,0.4,0.2c0.1,0,0.2-0.1,0.2-0.2c0-0.1,0-0.6,0-0.6s0-0.5,0-0.7c0-0.1,0.1-0.6,0.1-1l0,0
					c-0.1,0.2-0.1-0.2,0.2-0.5c0,0,0,0.1,0.1,0.2L35,35.7"/>
			</g>
			<g id="path900">
				<path fill="#86E2FF" d="M35,36.7c0-0.3,0.1-0.6,0-1v-0.1l0,0c-0.1,0.4-0.1,0.7-0.2,1.1H35"/>
			</g>
			<g id="path926">
				<path fill="#FFFFFF" d="M24.3,36H24c0-0.2,0.1-0.4,0.1-0.5C24.2,35.7,24.3,35.8,24.3,36"/>
			</g>
			<g id="path928">
				<path fill="#FFFFFF" d="M24,36c-0.1-0.1,0-0.2,0-0.3l0.1-0.2C24,35.7,24,35.9,24,36"/>
			</g>
			<g id="path930">
				<path fill="#FFFFFF" d="M25.3,36H25c0-0.2,0.2-0.4,0.2-0.5L25.3,36"/>
			</g>
			<g id="path942">
				<path d="M20.6,35.8c0,0.3,0.1,0.6,0.1,0.8c-0.1,0-0.1,0-0.1-0.1c0,0,0,0,0-0.1c-0.1,0-0.3,0-0.4,0c-0.1,0.2,0,0.4,0,0.6
					c0.1,0,0.3,0,0.5-0.1c0-0.1,0-0.2,0.1-0.2c0.1,0.3,0.1,0.5,0.1,0.8c0,0-0.1,0.1-0.1,0c-0.1-0.1-0.1-0.1-0.2-0.2
					c-0.3,0.1-0.6,0.1-0.9,0.2c-0.1,0,0,0.2-0.2,0.2c-0.1-0.2-0.1-0.6-0.2-0.8c0,0,0.1-0.1,0.1,0s0.1,0.2,0.2,0.2s0.3-0.1,0.4,0
					c0.1,0,0-0.1,0-0.2c-0.1-0.1,0-0.3-0.1-0.4c-0.2,0-0.4,0-0.5,0.1c0,0.1,0,0.2-0.1,0.2s-0.1-0.1-0.1-0.1c0-0.2-0.1-0.5-0.1-0.8
					c0.2-0.1,0.1,0.1,0.2,0.2c0.3,0,0.7-0.1,1-0.2C20.5,35.9,20.4,35.7,20.6,35.8"/>
			</g>
			<g id="path978">
				<path d="M38.9,36.6c0.3,0.1,0.7,0.1,1,0.2c0.1,0,0.1-0.2,0.2-0.2c0,0.3-0.1,0.5-0.1,0.8c0,0-0.1,0-0.1-0.1c0-0.1,0-0.1-0.1-0.2
					c-0.2,0-0.3-0.1-0.5-0.1c-0.1,0.2-0.1,0.3-0.1,0.5c0.1,0.1,0.2,0.1,0.3,0.1s0.3,0,0.4-0.1l0,0c0,0.3-0.1,0.5-0.2,0.8
					c-0.1,0,0-0.2-0.2-0.3c-0.3-0.1-0.6-0.2-0.9-0.2c-0.1,0-0.1,0.2-0.2,0.2v-0.1c0.1-0.2,0.1-0.5,0.2-0.7c0.1,0,0,0.3,0.2,0.2
					c0.1-0.1,0.3,0.2,0.3,0l0.1-0.4c-0.1-0.1-0.3-0.1-0.4-0.1c-0.1,0-0.1,0.1-0.2,0.1l0,0l0.2-0.7h0.1
					C38.9,36.5,38.8,36.6,38.9,36.6"/>
			</g>
			<g id="path986">
			</g>
			<g id="path998">
				<path d="M37.3,37.2L37.3,37.2L37.3,37.2L37.3,37.2"/>
			</g>
			<g id="path1016">
				<path fill="#36E218" d="M22.7,37.7L22.7,37.7L22.7,37.7L22.7,37.7"/>
			</g>
			<g id="path1022">
				<path d="M21,38c0.1,0.4,0.3,0.8,0.4,1.1c-0.1,0-0.2,0.3-0.4,0.2c0.1-0.1,0.3-0.3,0.1-0.4c-0.1-0.1-0.1-0.4-0.3-0.3
					c-0.1,0-0.2,0.1-0.2,0.1c0,0.1,0.1,0.2,0.1,0.3c0.1,0,0.2-0.1,0.2,0.1c-0.2,0.1-0.3,0.2-0.5,0.2c-0.1-0.1,0.1-0.1,0.2-0.2
					c-0.1-0.1,0-0.3-0.2-0.2C20.3,39,19.8,39,20,39.3c0,0.1,0.1,0.2,0.2,0.3c0.1,0.1,0.3,0,0.3,0.1c-0.1,0.1-0.3,0-0.4,0.1
					c-0.2-0.4-0.4-0.9-0.5-1.3c0,0,0-0.1,0.1,0c0,0.1,0.1,0.2,0.2,0.2c0.3-0.1,0.7-0.2,0.9-0.4c0-0.1-0.1-0.2,0-0.3
					C20.9,37.8,20.9,37.9,21,38"/>
			</g>
			<g id="path1030">
				<path d="M35.3,37.9L35.3,37.9L35.3,37.9C35.2,37.9,35.3,37.9,35.3,37.9"/>
			</g>
			<g id="path1034">
				<path fill="#866E3F" d="M35.2,38.2c0,0.2,0,0.4-0.1,0.6c0,0,0,0,0,0.1c0,0-0.1,0.1-0.1,0.2c-0.1-0.1-0.2-0.2-0.2-0.2
					c0-0.1,0-0.2,0-0.3c0.1-0.1,0.1-0.1,0.1-0.2v-0.5C35,38.1,35,38.3,35.2,38.2"/>
			</g>
			<g id="path1064">
				<path fill="#C5792C" d="M37.3,38.5L37.3,38.5L37.3,38.5L37.3,38.5L37.3,38.5"/>
			</g>
			<g id="path1068">
				<path fill="#36E218" d="M32.7,38.5L32.7,38.5L32.7,38.5L32.7,38.5"/>
			</g>
			<g id="path1072">
			</g>
			<g id="path1102">
				<path fill="#36E218" d="M24.2,38.8L24.2,38.8C24.2,38.7,24.2,38.7,24.2,38.8"/>
			</g>
			<g id="path1148">
				<path d="M24,38.9C23.9,38.9,24,38.9,24,38.9"/>
			</g>
			<path d="M39.5,38.9c-0.4,0.1-0.8,0-1.3,0l-0.3,0.6v0.1c0.1,0.1,0.1-0.1,0.2-0.1c0.2,0.1,0.3,0.3,0.4,0.4c0.1,0.3,0.4,0.4,0.2,0.7
				h0.1l0.3-0.6c-0.1-0.1-0.2,0.1-0.3,0.1c0-0.1-0.1-0.1-0.1-0.2c0.1-0.2,0.1-0.4,0.3-0.6c0.1,0,0.2,0,0.2,0.1c0,0.1,0,0.1,0,0.2
				h0.1c0.1-0.2,0.2-0.5,0.3-0.8C39.6,38.7,39.5,38.8,39.5,38.9z M38.6,39.8l-0.4-0.5v-0.1c0.2,0.1,0.5,0.1,0.7,0.1
				C38.8,39.5,38.8,39.7,38.6,39.8z"/>
			<g id="path1170">
				<path d="M34.6,39.4L34.6,39.4L34.6,39.4L34.6,39.4L34.6,39.4"/>
			</g>
			<g id="path1370">
				<path d="M22.3,40.7c0.1,0.1,0.1,0.3,0.2,0.3v0.1c-0.1,0.1-0.2,0.2-0.4,0.3c0-0.1,0.1-0.2,0.1-0.4c0-0.2-0.1-0.3-0.3-0.4
					c-0.1,0-0.2,0-0.2,0.1c0,0.4,0.5,0.9-0.1,1.2c-0.2,0.1-0.4,0-0.5-0.1c-0.2-0.2-0.2-0.4-0.4-0.6c-0.1,0-0.1,0-0.1,0v-0.1
					c0.2-0.1,0.3-0.3,0.5-0.3c0.1,0.1-0.1,0.2-0.1,0.3c0,0.2,0,0.5,0.3,0.6c0.1,0,0.1,0,0.2,0s0.1-0.1,0.1-0.2
					c-0.1-0.3-0.3-0.6-0.1-0.9c0.1-0.1,0.3-0.2,0.5-0.1C22.1,40.4,22.3,40.5,22.3,40.7"/>
			</g>
			<path d="M38.4,40.7c-0.1-0.2-0.3-0.3-0.3-0.5c-0.3-0.1-0.6,0.2-0.8,0.4c-0.2,0.2-0.4,0.5-0.6,0.7c0.1,0.1,0.2-0.1,0.3-0.1
				l0.7,0.6c0.2,0.1-0.1,0.3,0,0.4C38,41.8,38.7,41.3,38.4,40.7z M38,41.7c-0.3-0.2-0.6-0.4-0.9-0.7c0-0.2,0.2-0.2,0.3-0.3
				c0.3-0.1,0.6,0.2,0.8,0.5C38.3,41.4,38.1,41.6,38,41.7z"/>
			<g id="path1504">
				<path d="M35,41L35,41"/>
			</g>
			<g id="path1516">
				<path d="M24,41L24,41L24,41L24,41"/>
			</g>
			<g id="path1632">
				<path d="M22.9,41.5c0.3,0.3,0.5,0.6,0.8,0.8c-0.1,0.1-0.1,0.3-0.3,0.4c-0.1-0.1,0.1-0.2,0-0.4c-0.1-0.1-0.1-0.1-0.2-0.1
					l-0.6,0.7c0,0.1,0.1,0.2,0,0.3c-0.3-0.1-0.4-0.4-0.6-0.6v-0.1c0.1,0,0.2,0.1,0.3,0.1c0.2-0.2,0.5-0.4,0.7-0.6
					c-0.1-0.1-0.1-0.1-0.2-0.2c-0.1,0-0.3,0.1-0.4,0C22.5,41.6,22.7,41.5,22.9,41.5"/>
			</g>
			<g id="path1704">
				<path d="M36.3,41.7c0,0.1-0.1,0.2-0.1,0.3l0.7,0.7c0.1,0.1,0.3-0.2,0.3,0l-0.6,0.5c0,0-0.1,0-0.1-0.1c0-0.1,0.1-0.2,0.1-0.3
					L36,42.1c-0.1-0.1-0.3,0.2-0.3,0C35.9,42.1,36.1,41.8,36.3,41.7L36.3,41.7"/>
			</g>
			<g id="path1854">
				<path d="M32.9,42.7L32.9,42.7L32.9,42.7L32.9,42.7"/>
			</g>
			<path d="M24.6,43c-0.2-0.1-0.4-0.3-0.5-0.5c-0.1,0.1,0.1,0.2,0.1,0.3c-0.3,0.2-0.5,0.3-0.8,0.5c-0.1,0.1-0.3-0.1-0.4,0
				c0.1,0.1,0.3,0.3,0.5,0.4c0.1,0,0-0.1,0-0.2c0,0,0-0.1,0.1-0.1l0.5,0.4L24,43.9c-0.1,0.1-0.1,0-0.2,0s-0.1,0-0.1,0.1
				c0.3,0.2,0.5,0.4,0.8,0.5c0.1-0.1-0.1-0.2-0.1-0.3C24.4,43.8,24.6,43.4,24.6,43z M24.1,43.7c-0.2-0.1-0.3-0.2-0.4-0.3
				c0.1-0.2,0.3-0.3,0.5-0.4C24.2,43.2,24.1,43.4,24.1,43.7z"/>
			<g id="path1912">
				<path d="M34.6,43.1c0.1,0.1,0.2,0.2,0.2,0.3c-0.1,0-0.2-0.2-0.4-0.1c-0.1,0.1-0.2,0.1-0.3,0.2c0,0.1,0.1,0.3,0.2,0.4
					c0.1,0,0.2-0.1,0.2-0.2c0-0.1-0.1-0.2,0.1-0.3c0.1,0.2,0.2,0.4,0.3,0.5c-0.1,0.1-0.2-0.2-0.3-0.1c-0.1,0-0.1,0-0.2,0.1
					c0,0.2,0.1,0.3,0.2,0.4c0.1,0.1,0.2-0.1,0.3,0.1c-0.3,0.2-0.5,0.3-0.8,0.4c-0.1-0.1,0.2-0.2,0.1-0.4c-0.2-0.3-0.3-0.6-0.5-0.8
					c-0.1,0-0.2,0.1-0.3,0v-0.1C33.9,43.5,34.3,43.3,34.6,43.1"/>
			</g>
			<g id="path1926">
				<path d="M26.3,43.9c0,0.1,0,0.3-0.1,0.4c-0.1,0-0.1-0.1-0.1-0.2c0-0.1,0-0.2-0.1-0.2s-0.2-0.1-0.3,0.1c-0.1,0.3-0.3,0.5-0.3,0.8
					c0.1,0.1,0.1,0.1,0.1,0.2c-0.2,0-0.5-0.2-0.7-0.3c0,0-0.1-0.1,0-0.1c0,0,0.1,0,0.2,0c0,0,0,0,0.1,0c0.2-0.3,0.3-0.6,0.5-0.9
					c-0.1-0.2-0.2-0.1-0.4,0h-0.1v-0.1c0.1-0.1,0.2-0.2,0.3-0.3C25.6,43.6,26,43.7,26.3,43.9"/>
			</g>
			<g id="path1948">
				<path d="M27.8,44.3c0.1,0.1,0.1,0.3,0,0.4h-0.1c-0.1-0.1-0.1-0.3-0.2-0.3s-0.2-0.1-0.4-0.1c0,0.1-0.2,0.3-0.1,0.4
					c0.2,0.2,0.2-0.3,0.4-0.1c-0.1,0.2-0.1,0.3-0.2,0.5c-0.2,0,0-0.3-0.2-0.3s-0.1,0.3-0.2,0.4c0.1,0.1,0.3,0.2,0.5,0.1
					c0.1-0.1,0.2-0.2,0.3-0.2v0.1c-0.1,0.1-0.1,0.3-0.2,0.4c-0.4,0-0.8-0.2-1.2-0.3c0,0-0.1-0.1,0-0.1s0.3,0,0.3-0.2
					c0.1-0.3,0.2-0.5,0.2-0.8c-0.1-0.1-0.3-0.1-0.2-0.2C27,44.1,27.4,44.3,27.8,44.3"/>
			</g>
			<path d="M33.3,44.2c-0.4-0.4-0.9-0.2-1.2-0.1c-0.2,0.1-0.4,0.3-0.4,0.6c0,0.3,0.1,0.7,0.5,0.8c0.5,0,0.9-0.1,1.2-0.5
				C33.6,44.8,33.4,44.5,33.3,44.2z M32.9,45.2c-0.1,0.1-0.2,0.1-0.3,0.2c-0.2,0-0.3-0.1-0.3-0.2c-0.1-0.2-0.2-0.5-0.1-0.8
				c0.1-0.1,0.2-0.2,0.3-0.2s0.2,0,0.2,0.1C32.8,44.6,33,44.9,32.9,45.2z"/>
			<path fill="#86E2FF" d="M32.1,34.4c0.1,0,0.1,0,0.2-0.1c-0.1,0-0.3,0-0.3-0.1"/>
			<g>
				<g>
					<path fill="#E8DAAD" d="M32.7,36.2v-1.5C32.6,35.2,32.7,35.7,32.7,36.2z"/>
				</g>
			</g>
			<g id="path2140">
				<path fill="#36E218" d="M30.8,35L30.8,35L30.8,35L30.8,35"/>
			</g>
			<g>
				<path d="M30,32.8L30,32.8L30,32.8L30,32.8z"/>
			</g>
			<g id="path2256">
				<path fill="#36E218" d="M32.2,37.2L32.2,37.2L32.2,37.2L32.2,37.2"/>
			</g>
			<g id="path2344">
				<path fill="#FFFFFF" d="M29.7,44.4l0.2,0.6h0.6L30,45.4l0.2,0.6l-0.5-0.3L29.2,46l0.2-0.6L28.9,45h0.6L29.7,44.4"/>
			</g>
			<g id="path2348">
				<path fill="#FFFFFF" d="M29.7,44.4l0.2,0.6h0.6L30,45.4l0.2,0.6l-0.5-0.3L29.2,46l0.2-0.6L28.9,45h0.6L29.7,44.4"/>
			</g>
		</g>
	</g>
	<g>
		<path opacity="0.2" enable-background="new    " d="M5.2,37.2V12.9c0-6,4.1-11.4,9.9-12.9H0v50h15.1C9.3,48.5,5.2,43.2,5.2,37.2z"
			/>
		<path opacity="0.1" fill="#FFFFFF" enable-background="new    " d="M44.8,12.9v24.3c0,6.1-4.1,11.4-9.9,12.9H50V0H34.9
			C40.8,1.5,44.8,6.8,44.8,12.9z"/>
	</g>
	<g>
		<path fill="#86E2FF" d="M19,14.5c-0.1,0.1-0.1,0.1-0.1,0.2c0.1,0.1,0,0.1,0.1,0.3l0,0l0,0c0,0-0.1,0-0.6,0.4c-0.1,0.1,0,0.1,0,0.2
			l0.1,0.1c0.3-0.4,0.6-0.6,0.9-1C19.3,14.6,19.1,14.5,19,14.5z"/>
		<path fill="#86E2FF" d="M27.4,13.3c0.3,0.1,0.5,0.3,0.9,0.4c0-0.1-0.1-0.2,0-0.3c0.1-0.1,0.3-0.1,0.5-0.1c-1-0.4-2-0.6-3-0.7
			C26.3,12.7,26.9,13,27.4,13.3z"/>
		<path fill="#86E2FF" d="M17.4,18.7c0.2,0,0.5,0,0.6,0c0-0.1,0-0.2,0-0.3c0.2-0.4,0.2-1.1,0.6-1.4l-0.1-1.3l-0.1-0.1
			c-0.8,0.9-1.3,1.8-1.6,2.8C17,18.6,17.2,18.7,17.4,18.7z"/>
		<g>
			<path fill="#86E2FF" d="M33.1,17.7c-0.2-0.5-0.5-1.1-0.8-1.5c-0.9-1.2-2-2.1-3.2-2.7c-0.1,0.1-0.3,0.2-0.5,0.3
				c0.3,0.1,0.6,0,0.9,0.2c0,0.5,0.1,1,0.1,1.4c-0.5,0.6-1.4,0.2-2,0c-0.1,0.2,0,0.4,0,0.8c0,0,0,0.1-0.1,0.1
				c-0.1-0.2,0-0.5-0.3-0.7c-0.1-0.1-0.2,0-0.3,0.1c-0.2,0.3-0.5,0.5-0.9,0.9c-0.2,0.2-0.6,0.1-0.9,0.4c0.2,0.1,0.4-0.2,0.6-0.1
				c0.1,0.1-0.1,0.2-0.1,0.3c-0.1,0-0.1,0.2-0.2,0.2c-0.4,0.1,0.1,0.3,0,0.5c0.2,0.2,0.2,0.4,0.3,0.7c-0.1,0-0.2,0-0.3,0
				c-0.2,0-0.4-0.2-0.4-0.2c-0.3,0.1-0.7,0.3-1.1,0.3c-0.4,0-0.7-0.2-1-0.4c-0.5,0.4-0.8,0.8-1.4,1.2c0.1,0.1,0.2,0.2,0.3,0.4h5.7
				c0,0.1,0,0.1,0,0.1c0.2,0.1,0.2-0.1,0.4-0.1l0.2,0.1v-0.1c0.1-0.1,0.1-0.2,0.2-0.3c0.1,0.1,0.2,0.2,0.3,0.3
				c-0.3,0.3-0.4,0.8-0.5,1.2c0,0.5,0.1,1.3,0.1,1.8h0.9l0.1-0.3c-0.1-0.6,0-1.3,0-1.9c0.1-0.3,0.3-0.5,0.3-0.8
				c-0.2-0.2,0-0.4-0.2-0.5l-0.2,0.2c-0.1,0-0.2,0.2-0.4,0.1c-0.1,0-0.2-0.1-0.1-0.2c-0.2-0.2-0.1-0.5-0.1-0.8
				c0.1-0.1,0.1-0.3,0.2-0.4c0-0.3,0.1-0.8,0.4-0.8L29,17.2c-0.1,0-0.1-0.2-0.2-0.2c-0.3,0.1-0.4,0.3-0.8,0.4
				c-0.1,0.1-0.2,0.2-0.3,0.3c0-0.1,0.1-0.2,0.1-0.3c0.4-0.5,1-1,1.5-1.1c0.1-0.3,0.4-0.3,0.6-0.6c0.2-0.2,0.3,0.2,0.5,0
				c0.1,0.1,0.1,0.2,0.1,0.3c0.1,0,0.2,0,0.2,0.1H31c0,0,0.1,0,0.1,0.1c0.1,0.4-0.5,0.5-0.5,1c0.1,0.1,0.1,0.1,0.2,0.2
				c0.1,0.2,0.4,0.2,0.5,0.4c0.2,0.2,0.2,0.4,0.3,0.6c0,0.1,0.2,0.2,0.2,0.3c-0.2,0.3,0.1,0.5,0.2,0.8c0.1,0.4,0,0.9,0.4,1.1
				c0.1,0.1,0.1,0.2,0.1,0.4c-0.1,0.2-0.1,0.3-0.3,0.4L32,22c-0.1,0.3-0.1,0.5-0.2,0.9h0.4v-0.1c0.1-0.1,0.1-0.3,0.1-0.4
				c0.4-0.2,0-0.9,0.4-1V21c0.1-0.1,0.1-0.2,0.1-0.4c-0.3-0.3,0.2-0.5,0-0.8c0.2-0.1,0-0.4,0.2-0.5V19c0.1-0.1,0.1-0.3,0.3-0.3
				C33.3,18.3,33.2,18,33.1,17.7z"/>
			<path fill="#86E2FF" d="M24,15.4c0,0.1-0.1,0.1-0.1,0.2c-0.2,0.3-0.1,0.8,0.1,0.9s0.4,0.1,0.4,0.3c0.1,0,0.3,0,0.3-0.1H25
				c-0.1,0-0.1-0.1-0.2-0.1c-0.4-0.2-0.3-0.5-0.3-0.8C24.4,15.6,24.2,15.4,24,15.4z"/>
			<path fill="#86E2FF" d="M22.6,17.8h0.1c0.3,0.3,0.6,0.5,1,0.5c0.1,0.1,0.4,0,0.5,0c-0.1-0.1,0-0.1,0-0.2h-0.1
				c0.4-0.4-0.3-0.1-0.3-0.4c-0.3-0.3,0.2-0.4,0.2-0.6h-0.1V17c-0.2-0.1-0.2-0.3-0.3-0.4c0.1-0.1,0.2,0,0.3,0c0.1,0,0.1,0.1,0.2,0.1
				c-0.1,0-0.1-0.1-0.1-0.1c-0.2-0.1-0.4,0-0.6-0.1c-0.2-0.2-0.4-0.4-0.5-0.8c0-0.4-0.2-0.9-0.1-1.3c0,0,0-0.1,0.1-0.1
				c0,0.3,0,0.5,0.1,0.9c0-0.1,0-0.2,0.1-0.2c0.1,0.1,0,0.4,0.1,0.5h0.1c0,0,0.1,0.1,0.1,0.2c0.1,0.1,0.2,0.1,0.2,0.1
				c0.2-0.1,0.1-0.3,0.2-0.4c0.1-0.4,0-0.9,0.1-1.3c0.1,0.2,0.1,0.5,0.1,0.8c-0.1,0.3,0.2,0.1,0.3,0.3c0,0.1,0.2,0.1,0.2,0
				c0.1-0.1,0.1-0.3,0.2-0.4c0,0.3-0.3,0.5-0.2,0.9c0,0.1,0.1,0.1,0.1,0.2l0,0c0,0.1,0,0.1,0.1,0.2c0.1,0.2,0.4,0.3,0.6,0.3
				c0.1,0,0.1-0.1,0.2-0.2c0-0.4,0.1-0.8,0.1-1.1c0.1,0.4,0,0.9,0.1,1.3c0.1-0.1,0.3-0.1,0.4-0.2c0.3-0.4,0.2-1,0.2-1.5l0.1-0.1
				c0.1,0.1,0.1,0.3,0.1,0.4c0.1,0.2,0,0.4,0.1,0.6c0.1,0,0.1,0,0.1-0.1c0.2-0.3,0.3-0.7,0.1-1L26,14.2c-1.1-0.7-2.9-0.7-4,0.3
				l0.5,0.5c0.1,0.3-0.2,0.5-0.4,0.8c-0.1,0-0.2,0.1-0.3,0.1c0-0.2,0.2-0.3,0.1-0.5c-0.2,0.1-0.3,0.5-0.6,0.4
				c-0.4-0.2-0.8-0.5-1-0.9c-0.1-0.2,0-0.5,0.1-0.6c0.3-0.4,0.5-0.7,0.9-1c-0.8,0.4-1.5,0.9-2.1,1.5c0.3,0.2,0.3,0.4,0.3,0.5
				c0-0.1,0-0.1,0.1-0.1c0,0,0.1,0,0.2,0c0.2-0.1,0.4,0.1,0.5,0.2c0,0.2,0.2,0.1,0.3,0.2c0,0.2-0.1,0.4-0.3,0.6
				c0.1,0.1,0,0.2-0.1,0.3c0.2,0.3,0.6,0.3,0.9,0.6c0.1,0.5,0.2,1.1,0.2,1.6c-0.2,0.3-0.5,0.4-0.8,0.5c0.2,0.6-0.1,1.3-0.1,2.1
				l0.1,0.2l-0.1,0.1c0.1,0.2,0.1,0.4,0.2,0.6h0.9c0-1,0.4-2.2-0.4-2.9C21.6,18.8,22.1,18.3,22.6,17.8z"/>
			<path fill="#86E2FF" d="M24.5,15.8c0,0,0.1,0.1,0.1,0.1C24.6,15.9,24.5,15.8,24.5,15.8C24.5,15.8,24.5,15.8,24.5,15.8z"/>
		</g>
		<path fill="#86E2FF" d="M19.1,15.4v1.1c0.1,0,0,0.2,0.2,0.3c0.1-0.2,0.3,0,0.4-0.1c0.1-0.3-0.3-0.1-0.3-0.3c0,0,0-0.1,0-0.2v-0.1
			c0,0,0,0-0.1-0.1c-0.1-0.1,0.1-0.1,0.1-0.2c0-0.1,0-0.3,0-0.4C19.4,15.5,19.3,15.4,19.1,15.4z"/>
		<path fill="#86E2FF" d="M19.6,15.4L19.6,15.4C19.6,15.4,19.6,15.5,19.6,15.4C19.5,15.5,19.5,15.4,19.6,15.4z"/>
	</g>
	<path fill="#36E218" d="M30.5,27.4l-0.1-0.3c0,0-0.1-0.2-0.1-0.4c0-0.1-0.1-0.4-0.1-0.4l0,0c-0.2-0.4-0.6-0.4-1-0.4
		c0,0-0.1,0-0.2,0c0,0,0,0-0.1,0c0-0.1-0.2-0.2-0.3-0.3l0,0l0,0l0,0c0,0-0.1-0.2-0.1-0.4c0-0.2,0.1-0.3,0.4-0.5l0,0l0,0l0,0
		c0.1-0.1,0-0.1,0-0.1s-0.4-0.4-0.5-0.6c0-0.1,0-0.4,0-0.6l0,0c0.1-0.2,0.1-0.3,0.1-0.5c0.1-0.4,0.1-0.8,0-1.2L28,22h-0.1
		c0,0-0.5-0.1-0.6-0.5c-0.1-0.5,0,0-0.1,0.3c0.1,0-0.1,0.3-0.1,0.3l0,0c-0.1,0-0.4-0.1-0.6-0.1c0.1,0.1,0.1,0.2,0,0.3
		c0,0-0.1,0-0.1,0.1c0.1,0.1-0.3,0.3-0.4,0.4c-0.1,0-0.1,0.1-0.2,0.1c0,0.2-0.9,0-1,0c0-0.1-0.2,0-0.3,0c0,0-0.8,0-1.3-0.1
		c-0.1,0-0.2,0-0.2,0c-0.2,0-0.1,0-0.3,0c-0.2,0-0.3,0-0.3,0c-0.2,0-0.3,0.1-0.3,0.1s0,0,0,0.1c0,0,0,0.1-0.1,0.3
		c0,0.2-0.3,0.6-0.4,0.7c-0.1,0.1,0,0.3,0,0.3s0.1,0.1,0.2,0.3l0,0v0.5v0.1l0,0v0.1h-0.1c0,0-0.2,0-0.3,0.1c0,0-0.4-0.1-0.5,0
		c0,0-0.1,0-0.2,0c-0.2,0.1-0.3,0.1-0.3,0.1c-0.2,0-0.4-0.1-0.6-0.1c0,0.1-0.4-0.8-0.5-0.9c-0.1,0-0.5-0.1-0.6-0.2l-0.2-0.1
		c0,0.1-0.2,0-0.2,0.1c-0.2,0.3-0.1,0.2-0.2,0.2c0,0.1-0.3,0.1-0.4,0.1c0,0.1-0.4,0.2-0.5,0.3c0.3,0.8,1.1,1.5,1.9,2.3
		c0,0,0.5,0.6,1.4,1c0.8,0.5,1.4,0.8,1.4,0.8c1,0.4,2.2,0.6,3.5,0.6c0.5-0.1,1.1,0,1.6-0.2c0.1,0,0.2-0.1,0.3-0.1
		c0.6-0.1,1-0.4,2-0.8c1-0.5,1.6-1.1,1.6-1.1L30.5,27.4z"/>
	<g>
		<path fill="#FFFFFF" d="M21.6,25.3c0-0.1,0-0.3-0.2-0.4c-0.1-0.3-0.2-0.5-0.3-0.8l-0.2-0.9c0-0.2-0.1-0.4-0.1-0.6
			c0,0.1,0,0.3,0.1,0.5V23l-0.3-1l0,0c0-0.1,0-0.2,0-0.3l0,0l-0.1-0.5l0.1-0.8v-0.1c0-0.3,0.1-0.5,0-0.9h-0.1
			c-0.1,0.3-0.2,0.5-0.4,0.9L20,20.1h-0.1V20v-0.1c0.1-0.3,0.2-0.5,0.5-0.8l0,0l0.1-0.1c0,0,0,0-0.1-0.1c0-0.1,0.1-0.2,0.3-0.2
			c0.1-0.2,0-0.3,0-0.3c0.2-0.2,0.4-0.5,0.2-0.9c-0.1-0.2-0.1-0.4,0-0.6v-0.1c-0.2,0.2-0.4,0.4-0.8,0.4c-0.2-0.1-0.3-0.3-0.4-0.5
			c-0.6,0.2-0.3,1-0.3,1.4v0.6c0,0.5,0,1,0,1.5l0,0c0-0.1,0-0.3,0-0.4c-0.1-0.3,0-0.6-0.1-0.9c-0.2,0.2-0.3,0.5-0.3,0.8
			c-0.2,0.5,0,1,0,1.5l0,0v0.5c0.1,1,0.2,2,0.2,3c0.2,0.1,0.2,0.2,0.2,0.2c0-0.1,0.3,0.3,0.3,0.3l0.5,0.1c0,0.1,0.1,0.1,0.1,0.1
			c0.2,0.1,0.6,0,0.6-0.1l0,0h0.3l0,0C21.4,25.3,21.5,25.3,21.6,25.3z"/>
		<path fill="#FFFFFF" d="M20.8,22.6c0-0.1,0-0.3-0.1-0.5C20.8,22.3,20.8,22.4,20.8,22.6z"/>
	</g>
</g>
<path fill="#E8DAAD" d="M27.7,20.1c-0.3,0-0.5,0-0.7,0c-0.3-0.1-0.6-0.2-0.8-0.3l0.1,0.1L26,20.1l-2.1-0.2c-0.3-0.1-0.5-0.2-0.7-0.3
	l-0.1,0.1L23,19.8c-0.2,0-0.5,0.1-0.7,0.2L22,20c0,0,0,0.1,0,0.1c0,0,0,0.3-0.1,0.5h0.2c0,0,0.5,0,0.6,0l0.2,0.2l0.4,0.1h0.1
	l1.7,0.5h0.4c0,0,0.6-0.2,0.7-0.3c0.1-0.1,0.5-0.2,0.9-0.1s0.4,0.5,0.5,0.6c0,0,0.1,0.1,0.2,0.1l0,0l0,0c0.1,0,0.2,0.1,0.2,0.1
	l0.1,0v-1.2v-0.4C28.1,20.2,28,20.1,27.7,20.1z"/>
<path fill="#C5792C" d="M27.1,21.6c0-0.2,0-0.3,0-0.4c0,0-0.2-0.1-0.2-0.1c0,0-0.2,0-0.2,0c0,0-0.1,0-0.1,0.1c0,0,0,0,0,0
	c0,0,0,0,0,0c0,0,0,0,0,0c-0.3,0.1-0.6,0.2-0.8,0.4c-0.1,0.1-0.2,0.1-0.2,0.2c-0.1,0-0.3,0.1-0.5,0c-0.1,0-0.1-0.1-0.2-0.2
	c-0.2-0.1-0.4-0.4-0.6-0.3c-0.2,0-0.3-0.2-0.5-0.2c-0.3-0.2-0.6-0.3-0.9-0.4c-0.2,0-0.4-0.2-0.6-0.1L22,20.6c0,0.7-0.1,1.5-0.1,2.2
	c0,0,2.7-0.1,2.7,0c0,0,0,0.2,0.1,0.3c0.1,0,0.4,0,0.6-0.2c0,0,0.4-0.2,0.6-0.2v-0.1c0.3-0.1,0.3-0.1,0.3-0.4c0-0.2,0.1-0.2,0.1-0.2
	c0.1,0,0.2,0,0.2-0.1c0.1,0,0.3,0,0.3,0c0.1,0,0.1,0,0.1,0C27.1,21.9,27.1,21.8,27.1,21.6z"/>
<path fill="#FFFFFF" d="M28.7,13.9c-0.4-0.2-0.8-0.4-1.1-0.4c-1.4-0.8-2.9-1.2-4.5-0.8c-0.2,0.1-0.4,0.2-0.6,0.2
	c-0.8,0.4-1.7,0.9-2,1.8c-0.1,0.2,0,0.3,0.1,0.5c0.2,0.2,0.5,0.4,0.7,0.5c0.1-0.5,0.4-0.9,0.8-1.2c1-0.8,2.6-0.8,3.7-0.3
	c0.2,0,0.5,0.2,0.7,0.3c0,0,0.6,0.1,0.8,0.3c0,0,0.1,0,0.1,0.1c0.3,0.2,0.6,0.3,0.9,0.4c0.3,0,0.7,0.1,0.9-0.2c0-0.4,0-0.8,0-1.1
	L28.7,13.9z"/>
<path fill="#866E3F" d="M29.9,24c-0.1,0-0.2,0-0.3,0c-0.1,0-0.2-0.1-0.2-0.2v0.9c0,0,0,0,0,0c0,0.1-0.1,0.2-0.1,0.3c0,0,0,0.1,0,0.1
	l0,0c0,0,0,0,0,0c0,0,0,0.1,0,0.1c0,0-0.1,0.1-0.1,0.1c-0.1,0.1-0.1,0.2-0.2,0.2c0,0-0.1,0.1-0.1,0.1c0,0,0,0.1,0,0.1
	c0,0,0.3,0.1,0.3,0.1c0,0,0.5-0.5,0.5-0.5s0.2-0.6,0.2-0.7c0,0,0-0.1,0-0.1C29.8,24.3,29.7,24.1,29.9,24z"/>
<path fill="#FFD9C5" d="M30.7,16.5c0.2-0.2,0.2-0.5,0.3-0.7c-0.1-0.1-0.3-0.2-0.4-0.1c-0.1,0-0.2,0.1-0.4,0.2
	c-0.1,0-0.1,0.1-0.1,0.2c0,0,0,0,0,0c0,0,0,0.1,0,0.2c0,0,0,0,0,0c0,0.1,0.2,0.4,0.3,0.5c0.1,0.1,0.1,0.1,0.1,0
	c0,0.1,0.1-0.1,0.1-0.1c0,0,0,0,0,0C30.6,16.7,30.6,16.6,30.7,16.5C30.7,16.5,30.7,16.5,30.7,16.5z"/>
</svg>
