<?xml version="1.0" encoding="utf-8"?>
<!-- Generator: Adobe Illustrator 23.0.0, SVG Export Plug-In . SVG Version: 6.00 Build 0)  -->
<svg version="1.0"
	 id="svg2" xmlns:cc="http://creativecommons.org/ns#" xmlns:dc="http://purl.org/dc/elements/1.1/" xmlns:rdf="http://www.w3.org/1999/02/22-rdf-syntax-ns#" xmlns:svg="http://www.w3.org/2000/svg"
	 xmlns="http://www.w3.org/2000/svg" xmlns:xlink="http://www.w3.org/1999/xlink" x="0px" y="0px" width="100px" height="100px"
	 viewBox="0 0 100 100" enable-background="new 0 0 100 100" xml:space="preserve">
<g id="path176">
	<path fill="#000066" d="M0,100h100V0H0V100z"/>
</g>
<path id="path14" d="M-2497.3,1884.7L-2497.3,1884.7L-2497.3,1884.7z"/>
<path id="path18" d="M-465.6-902.5v3.1"/>
<g id="path14921">
	<path fill="#E6AD05" d="M50.7,69.4c11.5,0,20.8-9.3,20.8-20.8s-9.3-20.8-20.8-20.8s-20.8,9.4-20.8,20.8
		C29.8,60.1,39.2,69.4,50.7,69.4"/>
</g>
<g id="path14937">
	<path fill="#FFFFFF" d="M51,69.1c11.1,0,20.2-9,20.2-20.1s-9-20.1-20.2-20.1c-11.1,0-20.1,9-20.1,20.1S39.8,69.1,51,69.1"/>
</g>
<g>
	<g id="path15439">
		<path fill="#21205F" d="M39.4,60.8c0.6,0.6,0.6,0.6,0.6,0.6c0.5,0.4,0.2,1-0.1,1.3c-0.3,0.4-0.9,0.8-1.4,0.4
			c-0.6-0.5-0.6-0.5-0.6-0.5C39.4,60.8,39.4,60.8,39.4,60.8"/>
	</g>
	<g id="path15447">
		<path fill="#21205F" d="M44.2,63.9c0.8,0.3,0.8,0.3,0.8,0.3c0.6,0.2,0.5,0.9,0.3,1.3s-0.6,1.1-1.1,0.9c-0.8-0.3-0.8-0.3-0.8-0.3
			C44.2,63.9,44.2,63.9,44.2,63.9"/>
	</g>
	<g id="path15451">
		<path fill="#21205F" d="M47.9,65c0.8,0.1,0.8,0.1,0.8,0.1c0.7,0.1,0.7,0.8,0.7,1.2c-0.1,0.5-0.3,1.2-0.9,1.1
			c-0.8-0.1-0.8-0.1-0.8-0.1C47.9,65,47.9,65,47.9,65"/>
	</g>
	<g id="path17459">
		<path fill="#21205F" d="M45.6,30.5c0.8-0.2,0.8-0.2,0.8-0.2c0.6-0.2,0.9,0.4,1,0.9c0.1,0.4,0.2,1.2-0.4,1.4
			c-0.8,0.2-0.8,0.2-0.8,0.2C45.6,30.5,45.6,30.5,45.6,30.5"/>
	</g>
	<g id="path14923">
		<path fill="#FFFFFF" d="M38.4,62.5c0.3,0.2,0.3,0.2,0.3,0.2c0.2,0.2,0.6-0.1,0.8-0.3c0.4-0.5,0.3-0.7,0.2-0.8
			c-0.3-0.2-0.3-0.2-0.3-0.2C38.4,62.5,38.4,62.5,38.4,62.5"/>
	</g>
	<g id="path14925">
		<path fill="#FFFFFF" d="M43.9,65.9c0.3,0.1,0.3,0.1,0.3,0.1c0.3,0.1,0.6-0.2,0.7-0.6c0.3-0.7,0.1-0.8-0.1-0.8
			c-0.4-0.2-0.4-0.2-0.4-0.2C43.9,65.9,43.9,65.9,43.9,65.9"/>
	</g>
	<g id="path14927">
		<path fill="#FFFFFF" d="M48.1,67c0.4,0.1,0.4,0.1,0.4,0.1c0.3,0,0.5-0.4,0.5-0.7c0.1-0.7-0.2-0.8-0.3-0.8c-0.4,0-0.4,0-0.4,0
			C48.1,67,48.1,67,48.1,67"/>
	</g>
	<g id="path14929">
		<path fill="#FFFFFF" d="M46.4,32.3c0.4-0.1,0.4-0.1,0.4-0.1c0.3-0.1,0.3-0.5,0.2-0.9c-0.2-0.7-0.4-0.7-0.6-0.6
			c-0.3,0.1-0.3,0.1-0.3,0.1C46.4,32.3,46.4,32.3,46.4,32.3"/>
	</g>
	<g id="path14931">
		<path fill="#FFFFFF" d="M62,36.2c0.3,0.3,0.3,0.3,0.3,0.3c0.2,0.2,0.6,0,0.8-0.3c0.4-0.5,0.3-0.7,0.2-0.8
			c-0.2-0.3-0.2-0.3-0.2-0.3C62,36.2,62,36.2,62,36.2"/>
	</g>
	<g id="polygon14933">
		<polygon fill="#FFFFFF" points="59.5,32.7 58.9,33.4 58.9,33.4 59.3,33.7 59.6,32.7 		"/>
	</g>
	<g id="polygon14935">
		<polygon fill="#FFFFFF" points="58.7,63.7 59,64.7 59,64.7 59.4,64.4 		"/>
	</g>
	<g id="polygon15441">
		<polygon fill="#21205F" points="41.2,62.3 39.9,64.2 39.9,64.2 39.6,64 40.9,62.1 		"/>
	</g>
	<g id="polygon15443">
		<polygon fill="#21205F" points="42.6,63.2 43,63.4 41.2,65 41,64.9 41.6,62.5 42,62.8 41.4,64.5 41.4,64.5 		"/>
	</g>
	<g id="polygon15449">
		<polygon fill="#21205F" points="46.2,66 46.1,66.5 47.1,66.8 46.9,67.2 45.6,66.9 46.1,64.6 47.4,64.9 47.4,65.3 47.4,65.3 
			46.4,65.1 46.3,65.6 47.2,65.8 47.1,66.2 		"/>
	</g>
	<g id="path15453">
		<path fill="#21205F" d="M50.8,65.3c0.4-0.1,0.4-0.1,0.4-0.1c0.3,1.3,0.4,1.4,0.4,1.7l0,0c0-0.3,0.1-0.5,0.2-1.7
			c0.4-0.1,0.4-0.1,0.4-0.1c0.3,1.3,0.3,1.4,0.4,1.7l0,0c0.1-0.2,0.1-0.4,0.2-1.7c0.4,0,0.4,0,0.4,0c-0.4,2.3-0.4,2.3-0.4,2.3
			c-0.3,0.1-0.3,0.1-0.3,0.1c-0.3-1.1-0.3-1.3-0.4-1.8l0,0c-0.1,0.4-0.1,0.6-0.2,1.8c-0.3,0-0.3,0-0.3,0
			C50.8,65.3,50.8,65.3,50.8,65.3"/>
	</g>
	<g id="polygon15455">
		<polygon fill="#21205F" points="54.1,66.2 54.3,66.8 55.3,66.6 55.4,67 54,67.3 53.5,65 54.9,64.7 54.9,65.1 54.9,65.1 54,65.3 
			54,65.8 55,65.6 55,66 		"/>
	</g>
	<g id="polygon15457">
		<polygon fill="#21205F" points="57.7,64.7 57.9,65.1 57.1,65.4 57.5,66.3 57.5,66.3 57.1,66.4 56.3,64.3 57.5,63.8 57.6,64.2 
			56.8,64.5 57,65 		"/>
	</g>
	<g id="polygon15459">
		<polygon fill="#21205F" points="59.2,65.5 58.9,65.7 58.3,63.4 58.7,63.2 60.4,64.9 60,65.1 59.7,64.7 59.1,65 		"/>
	</g>
	<g id="polygon15461">
		<polygon fill="#21205F" points="59.6,62.6 60,62.4 61,63.9 61,63.9 61.8,63.4 62.1,63.8 61,64.5 		"/>
	</g>
	<g id="polygon15463">
		<polygon fill="#21205F" points="61.1,61.6 61.3,61.3 62.6,62.8 62.6,62.8 63.3,62.2 63.6,62.5 62.6,63.3 		"/>
	</g>
	<g id="path15465">
		<path fill="#21205F" d="M39.2,35.7c0.4,0.4,0.4,0.8,0.1,1.2c-0.1,0.2-0.3,0.3-0.6,0.2c-0.2,0-0.3-0.1-0.5-0.3
			c-1.1-1.1-1.1-1.1-1.1-1.1c0.3-0.3,0.3-0.3,0.3-0.3c1.1,1.1,1.1,1.1,1.1,1.1c0.2,0.2,0.4,0.2,0.6,0.1c0.2-0.2,0.2-0.4,0-0.6
			C38,34.9,38,34.9,38,34.9c0.3-0.3,0.3-0.3,0.3-0.3C39.2,35.7,39.2,35.7,39.2,35.7"/>
	</g>
	<g id="polygon15467">
		<polygon fill="#21205F" points="39.5,34.4 40.5,35.7 40.2,35.9 38.8,34.1 39.1,33.8 40.7,34.7 40.7,34.7 39.7,33.4 39.7,33.4 
			40,33.2 41.4,35 41.1,35.3 		"/>
	</g>
	<g id="polygon15469">
		<polygon fill="#21205F" points="41,32.6 42.2,34.5 42.2,34.5 41.9,34.8 40.7,32.8 		"/>
	</g>
	<g id="polygon15471">
		<polygon fill="#21205F" points="43.4,33.9 43.1,34 42.2,32.3 41.7,32.6 41.5,32.2 42.8,31.6 43.1,31.9 42.6,32.2 		"/>
	</g>
	<g id="polygon15473">
		<polygon fill="#21205F" points="44.3,32.4 44.5,32.9 45.5,32.6 45.6,33 44.3,33.4 43.5,31.3 44.8,30.8 45,31.2 45,31.2 44,31.6 
			44.2,32 45,31.7 45.2,32.1 		"/>
	</g>
	<g id="path15475">
		<path fill="#21205F" d="M48.8,29.9c0.4-0.1,0.4-0.1,0.4-0.1c0.3,1.3,0.3,1.4,0.3,1.7l0,0c0.1-0.3,0.1-0.5,0.2-1.7
			c0.4,0,0.4,0,0.4,0c0.3,1.3,0.3,1.4,0.3,1.7l0,0c0.1-0.2,0.1-0.4,0.3-1.7c0.4,0,0.4,0,0.4,0c-0.4,2.4-0.4,2.4-0.4,2.4
			c-0.4,0-0.4,0-0.4,0C50.1,31,50,30.8,50,30.4l0,0c0,0.4,0,0.6-0.2,1.8c-0.4,0-0.4,0-0.4,0C48.8,29.9,48.8,29.9,48.8,29.9"/>
	</g>
	<g id="polygon15477">
		<polygon fill="#21205F" points="52.2,31.3 52.2,31.8 53.2,31.9 53.1,32.4 51.7,32.2 51.9,29.9 53.3,30.1 53.3,30.4 53.3,30.4 
			52.3,30.3 52.2,30.8 53.2,30.9 53.1,31.3 		"/>
	</g>
	<g id="path15479">
		<path fill="#21205F" d="M55,32.1c-0.1,0.1-0.1,0.4,0.3,0.4c0.2,0.1,0.4,0.1,0.4-0.2c0.1-0.2-0.1-0.3-0.3-0.4s-0.2-0.1-0.2-0.1
			c-0.3-0.2-0.5-0.3-0.4-0.8c0.1-0.2,0.3-0.7,0.9-0.4c0.6,0.1,0.6,0.6,0.5,0.9C56,31.3,56,31.3,56,31.3c0-0.1,0.1-0.3-0.3-0.4
			c-0.2,0-0.3,0-0.4,0.2c-0.1,0.2,0.1,0.2,0.1,0.3c0.4,0.3,0.4,0.3,0.4,0.3c0.2,0.1,0.4,0.3,0.3,0.7c-0.2,0.7-0.8,0.6-0.9,0.5
			c-0.7-0.2-0.6-0.7-0.6-0.9C55,32.1,55,32.1,55,32.1"/>
	</g>
	<g id="polygon15481">
		<polygon fill="#21205F" points="57.1,33.5 56.8,33.4 57.5,31.6 57,31.4 57.1,31 58.5,31.6 58.4,32 57.9,31.8 		"/>
	</g>
	<g id="polygon15483">
		<polygon fill="#21205F" points="58.2,34 57.9,33.9 59.6,32.2 60,32.4 59.5,34.7 59.1,34.5 59.2,34 58.6,33.7 		"/>
	</g>
	<g id="polygon15485">
		<polygon fill="#21205F" points="61.1,33.8 60.1,35.2 59.8,35 61.2,33.1 61.5,33.3 61.1,35.1 61.1,35.1 62.1,33.8 62.1,33.8 
			62.4,34 61,35.9 60.7,35.7 		"/>
	</g>
	<g id="path15487">
		<path fill="#21205F" d="M63.1,34.5c0.6,0.6,0.6,0.6,0.6,0.6c0.5,0.4,0.1,1-0.2,1.3c-0.3,0.4-0.9,0.8-1.4,0.4
			c-0.6-0.6-0.6-0.6-0.6-0.6C63.1,34.5,63.1,34.5,63.1,34.5"/>
	</g>
	<g>
		<polygon fill="#21205F" points="42.4,65.6 42.7,65.8 43.7,63.7 43.3,63.5 		"/>
	</g>
	<g id="path17453">
		<path fill="#FFFFFF" d="M63,35.1c0.3,0.2,0.3,0.2,0.3,0.2c0.1,0.2,0.2,0.2,0.1,0.4c0,0.2-0.2,0.3-0.3,0.5
			c-0.1,0.1-0.3,0.2-0.4,0.3c-0.2,0.1-0.4,0.1-0.6-0.1C62,36.1,62,36.1,62,36.1C63,35.1,63,35.1,63,35.1"/>
	</g>
	<g id="polygon17455">
		<polygon fill="#FFFFFF" points="58.8,33.4 59.5,32.7 59.5,32.7 59.3,33.7 		"/>
	</g>
	<g id="polygon17457">
		<polygon fill="#FFFFFF" points="59,64.7 58.7,63.7 58.7,63.7 59.5,64.4 		"/>
	</g>
</g>
<path fill="#E6AD05" d="M25.9,41.8c0.2,0.2,0.3,0.5,0.2,0.8c-0.1,0.2-0.2,0.3-0.3,0.4c-0.2,0.1-0.4,0.2-0.7,0.2
	c-0.6,0-1.3-0.1-2.1-0.2c-0.8-0.2-0.8-0.2-0.8-0.2c-0.6-0.1-1.1-0.3-1.6-0.6c-0.5-0.2-0.8-0.4-1.1-0.7c-0.1-0.2-0.2-0.4-0.1-0.6
	c0.1-0.2,0.3-0.4,0.7-0.5C19.8,40,19.8,40,19.8,40c2.5,0.6,2.5,0.6,2.5,0.6c0.1,0,0.1,0.1,0.1,0.1s0,0,0,0.1
	c-0.1,0.1-0.1,0.1-0.1,0.1c-0.2-0.1-0.2-0.1-0.2-0.1c-0.4-0.1-0.8-0.2-1.2-0.2c-0.5,0-0.8,0.1-1.1,0.2c-0.1,0.1-0.2,0.2-0.2,0.3
	c-0.1,0.1,0,0.2,0.1,0.2c0.1,0,0.2,0.1,0.3,0.2c5.5,1.3,5.5,1.3,5.5,1.3c0.2,0.1,0.3,0.1,0.3,0c0.1-0.1,0.1-0.1,0.2-0.2
	c0-0.1,0-0.3-0.1-0.4c-0.1-0.2-0.2-0.3-0.3-0.4c-0.3-0.2-0.7-0.4-1.1-0.5c-0.7-0.2-0.7-0.2-0.7-0.2s-0.1,0-0.1-0.1c0,0,0,0,0-0.1
	c0.1,0,0.1,0,0.1,0c0.7,0.2,0.7,0.2,0.7,0.2C25.2,41.3,25.7,41.5,25.9,41.8z M25,38.1c0,0,0,0-1.6-0.6c-0.3-0.1-0.7-0.2-1-0.3
	c-0.3-0.1-0.4-0.1-0.7-0.1s-0.4,0.1-0.6,0.1c-0.2,0-0.3,0.1-0.4,0.2c-0.1,0.1-0.1,0.2-0.2,0.4c0.1,0,0.1-0.1,0.2-0.1
	c0.1-0.1,0.2-0.1,0.4,0c0,0,0,0,5.4,1.9c0.1,0.1,0.1,0.1,0.2,0.2c0.1,0.1,0.1,0.1,0.1,0.2s-0.1,0.1-0.2,0.2c-0.1,0-0.3,0-0.5-0.1
	l-5.2-1.9c-0.1,0-0.2-0.1-0.3-0.2c-0.1,0-0.1-0.1-0.1-0.2c-0.1,0.2,0,0.5,0.2,0.8c0.3,0.4,0.8,0.8,1.7,1.1c0,0,0,0,1.8,0.7
	c0.6,0.2,1.1,0.3,1.6,0.3c0.4,0,0.6-0.1,0.8-0.2c0.2-0.1,0.3-0.2,0.4-0.4c0-0.3,0-0.6-0.2-0.9C26.5,38.8,25.9,38.4,25,38.1z
	 M28.9,35.4C28.9,35.4,28.9,35.4,28.9,35.4c-0.6,1.4-0.6,1.4-0.6,1.4c0,0.1,0,0.1,0,0.1h-0.1v-0.1c0,0,0,0,0-0.1
	c0.1-0.2,0.1-0.2,0.1-0.2c-5.5-2.8-5.5-2.8-5.5-2.8c5.1,3.5,5.1,3.5,5.1,3.5c0.1,0.1,0.1,0.1,0.1,0.1c0,0.1,0,0.1,0,0.1
	c-0.1,0.3-0.1,0.3-0.1,0.3c-0.1,0-0.1,0-0.1,0v0.1c-0.4,0.7-0.4,0.7-0.4,0.7h-0.1c0-0.1,0-0.1,0-0.1c0-0.1,0-0.2-0.1-0.2
	c-0.1-0.1-0.1-0.2-0.3-0.2l-5.3-2.6c-0.2,0.2-0.2,0.2-0.2,0.2h-0.1c0,0,0,0-0.1,0c0-0.1,0-0.1,0.1-0.1c0.6-1.1,0.6-1.1,0.6-1.1
	c3.8,1.5,3.8,1.5,3.8,1.5c-3.3-2.4-3.3-2.4-3.3-2.4c0.6-1.1,0.6-1.1,0.6-1.1c0.1,0,0,0,0,0.1c-0.1,0.2-0.1,0.2-0.1,0.2
	c5.7,3,5.7,3,5.7,3c0.2-0.3,0.2-0.3,0.2-0.3H28.9z M27.6,37.7C27.6,37.7,27.6,37.7,27.6,37.7C22,35.4,22,35.4,22,35.4
	c5,2.5,5,2.5,5,2.5c0.2,0.1,0.3,0.1,0.3,0.1s0.1,0,0.2-0.1C27.6,37.7,27.6,37.7,27.6,37.7z M27.5,32.1c0.3,0.2,0.3,0.2,0.3,0.2
	c-0.9-0.9-1.6-1.5-2-1.9C25.2,30,25.2,30,25.2,30C26.1,30.9,26.9,31.6,27.5,32.1z M23.6,31.3v0.1c0,0,0,0,0,0.1c0.1,0,0.1,0,0.1,0
	l0.1-0.1c0,0,0,0,0.1-0.2L25,32c0.7,0.4,2,1.2,4.4,2.5c0.1,0.1,0.1,0.1,0.2,0.1c0,0,0,0,0.2-0.3c0,0,0,0-0.1-0.1c0,0,0,0-2.3-2.1
	c-0.4-0.2-1.3-0.7-3.2-1.8C24.3,30.3,24.3,30.3,23.6,31.3z M28.9,35.2C28.9,35.2,28.9,35.2,28.9,35.2L28.9,35.2
	c0.1,0.1,0.1,0.1,0.5-0.3c0-0.1,0-0.1,0-0.1c0-0.1,0-0.1,0-0.1c-0.1,0-0.1,0-0.1,0s0,0-0.2,0.1c0,0.1-0.1,0.2-0.2,0.1c0,0,0,0-0.1,0
	c0,0,0,0.1,0.1,0.1C29,35,29,35.1,28.9,35.2z M30.8,32.8c0,0,0,0-5.3-3.8c0,0,0,0,0.1-0.3c0.1-0.1,0.1-0.1,0.1-0.1l-0.1-0.1
	c0,0,0,0-0.1,0c0,0,0,0,0,0.1c0,0,0,0-0.7,0.9c0,0,0,0,1,0.9c0.6,0.4,1.9,1.3,4.4,3.2c0,0,0,0-0.2,0.2v0.1c0,0,0,0,0.1,0
	c0,0.1,0,0.1,0,0.1c0.1,0,0.1-0.1,0.1-0.1s0,0,0.8-1.2c0.1,0,0.1,0,0-0.1C31,32.6,31,32.6,30.8,32.8z M28.6,34.8
	c0.1,0.1,0.2,0.1,0.2,0.1c0-0.1-0.1-0.1-0.1-0.2L25,32c-0.9-0.5-0.9-0.5-0.9-0.5C28.6,34.8,28.6,34.8,28.6,34.8z M32.4,30.5
	c0.1,0.4,0.1,0.7-0.2,0.9c-0.2,0.2-0.3,0.2-0.6,0.3c-0.3,0-0.5-0.1-0.8-0.2c-0.5-0.2-0.9-0.5-1.3-0.9c-1.4-1.3-1.4-1.3-1.4-1.3
	c-0.7-0.6-1.1-1.2-1.2-1.7c-0.1-0.4,0-0.7,0.2-0.9c0.1-0.1,0.2-0.2,0.3-0.2c0.1-0.1,0.3-0.1,0.4-0.1c0.2,0.1,0.3,0.1,0.6,0.2
	c0.2,0.1,0.4,0.2,0.6,0.3c0.5,0.3,0.8,0.5,1,0.8c1.2,1.1,1.2,1.1,1.2,1.1C31.9,29.4,32.3,30,32.4,30.5z M32.1,31.1
	c0-0.1-0.1-0.2-0.1-0.3C27.9,27,27.9,27,27.9,27c-0.1-0.1-0.3-0.2-0.4-0.2s-0.2,0-0.2,0.1c-0.1,0.1-0.1,0.1-0.1,0.2
	c0,0.1,0.1,0.3,0.2,0.4l4,3.6c0.2,0.2,0.3,0.2,0.4,0.3c0.1,0,0.2,0,0.2-0.1C32.1,31.2,32.1,31.1,32.1,31.1z M30.7,23.8
	c0,0,0.1-0.1,0.1-0.2c0.1-0.1,0.1-0.1,0.1-0.1c0-0.1,0-0.1,0-0.1h-0.1c0,0,0,0-0.6,0.5c-0.1,0-0.1,0.1-0.1,0.1s0,0,0.1,0.1
	c0,0,0,0,0.1,0c0,0,0,0,0.1-0.1c0.1,0,0.1-0.1,0.2,0c0,0,0.1,0.1,0.2,0.2l2.8,3.3c0,0,0,0-3.8-3.2c0,0,0,0-0.9,0.8h-0.1
	c0,0.1,0,0.1,0.1,0.1c0.1,0,0.1,0,0.1,0s0,0,0.2-0.2c0,0,0,0,3.8,4.5c0.1,0.1,0.2,0.2,0.2,0.3c0,0,0,0.1-0.1,0.2v0.1v0.1
	c0,0,0,0,0.1,0c0,0,0,0,0.6-0.5c0-0.1,0.1-0.1,0.1-0.1s0-0.1-0.1-0.1c0,0,0,0-0.1,0c0,0,0,0-0.2,0.1c-0.1,0-0.1,0-0.2,0
	c-0.1,0-0.2-0.1-0.3-0.2c0,0,0,0-3.5-4.2c0,0,0,0,4.8,3.9c0,0,0,0,0.6-0.4c0,0,0,0-4-4.6C30.8,24,30.8,23.9,30.7,23.8z M35.3,21.1
	c0-0.1-0.1-0.2-0.1-0.4c0,0,0-0.1,0.1-0.2v-0.1c0,0,0,0-0.1,0c0,0,0,0-0.6,0.4c-0.1,0-0.1,0.1,0,0.1c0,0.1,0,0.1,0.1,0.1
	c0,0,0,0,0.1,0c0.1-0.1,0.1,0,0.2,0l0.1,0.1c0,0,0.1,0,0.1,0.1c0,0,0,0,1.8,3.5c0,0,0,0-2.8-3.5c0,0,0,0,0.2-0.1c0,0,0,0,0-0.1h-0.1
	c0,0,0,0-1.2,0.7C33,21.8,33,21.8,33,21.8v0.1c0.1,0,0.1,0,0.1,0s0,0,0.1,0c0,0,0,0,0.2-0.1c0,0,0,0,0.3,0.3c0,0,0,0,1.8,3.7
	c0,0,0,0-2.7-3.5c0,0,0,0,0.2-0.2c0.1,0,0.1,0,0.1,0V22C33,22,33,22,33,22s0,0-0.1,0c0,0,0,0-1.2,0.7c0,0.1,0,0.1,0,0.1
	c0,0.1,0.1,0.1,0.1,0.1s0,0,0.2-0.1l3.7,4.6c0.2,0.2,0.2,0.3,0.3,0.3h0.1c0,0,0,0,0.3-0.2c0.1,0,0.1,0,0.1-0.1c0,0-0.1-0.2-0.2-0.4
	c0,0,0,0-2.3-4.6c0,0,0,0,3.2,4c0,0,0,0,0.3,0.4c0,0.1,0,0.1,0.1,0c0,0,0,0,0.3-0.2v-0.1c0,0-0.1-0.2-0.2-0.4
	C37.7,26.1,37.7,26.1,35.3,21.1z M40.2,22.5h-0.1c0,0,0,0,0,0.1c0,0,0,0,0.1,0.2c0.1,0.2,0.2,0.6,0.3,1c0.1,0.3,0.1,0.5,0.1,0.8
	c0,0.3,0,0.4-0.1,0.6c-0.1,0.1-0.2,0.2-0.3,0.3c0,0,0,0-0.1,0.1c0,0,0,0-1.3-2.8c0,0,0,0,0-0.1c0,0,0-0.1,0.1-0.1
	c0-0.1,0.2,0,0.3,0.1c0.3,0.1,0.5,0.4,0.7,0.8c0,0,0,0,0.1,0.3v-0.1c0,0,0,0,0-0.1c0,0,0,0-1.3-3c-0.1,0-0.1,0-0.1,0s0,0-0.1,0v0.1
	c0,0,0,0,0.1,0.3c0.2,0.4,0.3,0.7,0.2,1c0,0.2-0.1,0.3-0.2,0.4c0,0,0,0-1.3-2.8c0,0,0,0,0.3-0.1c0.1-0.1,0.2-0.2,0.3-0.1
	c0.2,0.1,0.4,0.3,0.7,0.6c0.4,0.4,0.6,0.8,0.8,1.2c0.1,0,0.1,0.1,0.1,0.1c0.1,0,0.1,0,0.1,0l0.1-0.1c0,0,0,0-1.1-2.3
	c0,0,0,0-2.3,1.1c-0.1,0-0.1,0.1,0,0.1c0,0,0,0,0.1,0.1c0,0,0,0,0.2-0.2l2.7,5.9c0,0,0,0-0.2,0.1C39,26,39,26,39,26
	c0,0.1,0,0.1,0,0.1s0,0,0,0.1c0.1,0,0.1,0,0.1-0.1c0,0,0,0,2.3-1C41.4,25.1,41.4,25.1,40.2,22.5C40.2,22.5,40.2,22.5,40.2,22.5z
	 M41.7,23.4c0.7-0.3,0.7-0.3,0.7-0.3C42,23.3,41.8,23.3,41.7,23.4C41.7,23.4,41.7,23.4,41.7,23.4z M44,24c0,0,0,0-0.2,0.1
	c0,0,0,0-2.8-5.9c0,0,0,0-0.4,0.2l1.1,5.6c0,0.3,0,0.5,0,0.6c-0.1,0.1-0.1,0.1-0.2,0.2c0,0,0,0-0.1,0.1c0,0,0,0,0,0.1h0.1
	c0,0,0,0,0.8-0.2c0-0.1,0-0.1,0-0.1c0-0.1,0-0.1,0-0.1s0,0-0.1,0c0,0-0.1,0-0.2-0.1c-0.1-0.1-0.1-0.1-0.2-0.3c0,0,0,0,0-0.1
	c0,0,0,0-0.2-0.7c0,0,0,0,0.1,0c0-0.1-0.1-0.7-0.7-3.4l1.4,3.1c0,0,0,0,0.5,1.2c0,0,0,0-0.2,0.1c-0.1,0-0.1,0.1-0.1,0.1s0,0,0,0.1
	c0.1,0,0.1,0,0.1,0s0,0,1.3-0.4C44,24.1,44.1,24.1,44,24C44.1,24,44.1,24,44,24z M46.2,20.8h-0.1c0,0,0,0-0.1,0c0,0,0,0,0,0.1
	c0,0.1,0.1,0.4,0.1,0.8c0,0.4,0,0.9-0.1,1.2c0,0.3-0.1,0.5-0.2,0.6c-0.1,0.1-0.2,0.1-0.3,0.2c0,0,0,0-0.2,0.1
	c0.3-0.1,0.8-0.2,1.4-0.3C46.7,23.5,46.7,23.5,46.2,20.8z M44.3,17.4c0,0,0,0,0.1,0c0,0,0,0,0-0.1c0,0,0,0-0.1,0c0,0,0,0-1.5,0.3
	v0.1c0,0,0,0.1,0.1,0.1c0,0,0,0,0.3-0.1l1.3,6c0,0,0,0-0.3,0.1c-0.1,0.1-0.1,0.1-0.1,0.1c0.1,0,0.1,0.1,0.1,0.1s0,0,0.1,0
	c0,0,0,0,1-0.2c0-0.1-0.1-0.6-1.3-6.3C44,17.5,44,17.5,44.3,17.4z M45.3,23.8C45.3,23.8,45.3,23.8,45.3,23.8
	C45.3,23.8,45.3,23.8,45.3,23.8C45.3,23.8,45.3,23.8,45.3,23.8z M47.9,16.8c0,0,0.1,0,0.2,0c0,0,0.1,0,0.1,0.1c0,0,0.1,0.1,0.2,0.3
	c0.1,0.4,0.2,0.7,0.4,1.2c0.1,0.5,0.1,0.7,0.2,0.9c0,0,0,0,0,0.2c0,0.1,0,0.1,0,0.1s0.1,0.1,0.1,0h0.1v-0.1c0,0,0,0-0.3-2.8
	C48.9,16.7,48.9,16.7,47.9,16.8z M46,19.8c0,0.1,0,0.1,0.1,0.1c0,0.1,0,0.1,0.1,0.1v-0.1c0,0,0,0,0-0.1c0,0,0,0,0-0.1
	c0-0.1,0-0.4,0.1-0.9c0-0.5,0.1-0.9,0.2-1.3c0-0.2,0.1-0.3,0.2-0.4c0,0,0-0.1,0.2-0.1l0.8,6.3c0,0,0,0-0.4,0.1c-0.1,0-0.1,0-0.1,0
	s0,0,0,0.1s0.1,0.1,0.1,0.1s0,0,1.6-0.2c0.1-0.1,0.1-0.1,0.1-0.1c0-0.1,0-0.1-0.1-0.1c0,0,0,0-0.3,0c0,0,0,0-0.7-6.4
	c-0.4,0-1,0.1-1.9,0.2C46,17,46,17,46,19.8z M47.9,16.8C47.9,16.8,47.9,16.8,47.9,16.8C47.9,16.8,47.9,16.8,47.9,16.8
	C47.9,16.8,47.9,16.8,47.9,16.8z M51.4,16.6c0,0-0.1,0-0.1,0.1c0,0,0.1,0,0.1,0.1c0,0,0,0,0.2,0c0,0,0,0-0.1,3c0,0,0,0-0.6,0
	c0,0,0,0,0.1-3c0,0,0,0,0.2,0c0.1,0,0.1,0,0.1-0.1c0,0,0,0-0.1-0.1c0,0,0,0-1.3,0c-0.1,0-0.1,0.1-0.1,0.1s0,0,0.1,0.1c0,0,0,0,0.3,0
	c0,0,0,0-0.2,6.4l-0.3-0.1c-0.1,0.1-0.1,0.1-0.1,0.1c0,0.1,0,0.1,0.1,0.1c0,0,0,0,1.4,0.1c0-0.1,0-0.1,0.1-0.1l-0.1-0.1
	c0,0,0,0-0.2,0c0,0,0,0,0.1-3.3c0,0,0,0,0.6,0c0,0,0,0-0.1,3.3c0,0,0,0-0.2,0c0,0,0,0-0.1,0v0.1v0.1c0.1,0,0.1,0,0.1,0s0,0,1.3,0.1
	c0,0,0.1,0,0.1-0.1c0-0.1,0-0.1,0-0.1h-0.1c0,0,0,0-0.3-0.1c0,0,0,0,0.2-6.4c0,0,0,0,0.3,0c0.1,0,0.1,0,0.1-0.1c0,0,0,0-0.1-0.1
	C52.8,16.6,52.8,16.6,51.4,16.6z M57.3,21.6c-0.2,0.9-0.5,1.6-0.8,1.9s-0.6,0.4-0.9,0.3c-0.2-0.1-0.4-0.2-0.5-0.3
	c-0.2-0.2-0.2-0.4-0.3-0.8c-0.1-0.4-0.1-1,0.1-1.5c0.4-1.9,0.4-1.9,0.4-1.9c0.2-0.9,0.4-1.5,0.8-1.9c0.2-0.2,0.5-0.3,0.8-0.3
	c0.1,0.1,0.3,0.1,0.4,0.2c0.1,0.1,0.2,0.2,0.3,0.4c0.1,0.1,0.1,0.3,0.1,0.6c0.1,0.2,0.1,0.4,0.1,0.7c-0.1,0.4-0.2,0.7-0.2,1
	C57.3,21.6,57.3,21.6,57.3,21.6z M57.2,17.8c0-0.2,0-0.3-0.1-0.4c0-0.1-0.1-0.1-0.2-0.1c-0.1-0.1-0.1,0-0.2,0.1
	c-0.1,0.1-0.2,0.2-0.2,0.3c0,0.1-1.1,5.4-1.1,5.4c0,0.2,0,0.4,0.1,0.5c0,0.1,0.1,0.1,0.2,0.2c0.1,0,0.1,0,0.2-0.1
	c0.1-0.1,0.1-0.2,0.2-0.3C57.2,17.8,57.2,17.8,57.2,17.8z M59.1,17.7C59.1,17.8,59,17.8,59.1,17.7c-0.1,0.1-0.1,0.2,0,0.2
	c0,0,0,0,0.2,0.1l-0.5,1.7c-0.1,0-0.1,0-0.1,0.1c-0.2,0.6-0.3,1.1-0.4,1.5l-0.9,2.8c0,0,0,0-0.3-0.1c0,0,0,0-0.1,0v0.1
	c0,0,0,0,0,0.1c0,0,0,0,0.1,0c0,0,0,0,1.4,0.4c0,0,0,0,0.1,0c0-0.1,0-0.1,0-0.1v-0.1c0,0,0,0-0.3-0.1c0,0,0,0,0.9-3
	c0.2,0,0.2,0.1,0.3,0.3c0.1,0.3,0,0.7-0.1,1.1c0,0,0,0-0.1,0.3c-0.1,0.1-0.1,0.1,0,0.1c0,0.1,0.1,0.1,0.1,0c0,0,0,0,1-3.2
	c0.1-0.1,0.1-0.1,0-0.1c0,0,0,0,0-0.1h-0.1c0,0.1,0,0.1,0,0.1s0,0-0.1,0.2c-0.2,0.5-0.4,0.8-0.6,1c-0.1,0.1-0.3,0.2-0.4,0.2
	c0,0,0,0,0.9-3c0,0,0,0,0.2,0.1c0.1,0,0.2,0,0.3,0.1c0,0,0.1,0.1,0.1,0.2c0.1,0.1,0.1,0.5,0.1,0.9c-0.1,0.4-0.1,0.9-0.2,1.2
	c-0.1,0-0.1,0.1-0.1,0.1c0,0.1,0,0.1,0.1,0.1c0.1,0,0.1,0,0.1-0.1c0,0,0,0,0.7-2.3C61.4,18.5,61.4,18.5,59.1,17.7z M63.9,26.9h-0.1
	c0,0,0,0-0.2-0.1c0,0,0,0,1-4.4c0,0,0,0,0.9-0.8c0.3-0.3,0.5-0.4,0.6-0.5c0.1-0.1,0.2-0.1,0.3-0.1c0,0,0,0,0.3,0.2v-0.1
	c0,0,0.1,0,0-0.1c0,0,0,0-0.9-0.5c-0.1-0.1-0.1-0.1-0.1,0h-0.1v0.1c0,0,0,0,0.2,0.1c0.1,0.1,0.1,0.1,0.1,0.2c0,0,0,0.1-0.1,0.2
	c-0.1,0.1-0.1,0.2-0.3,0.3c0,0,0,0-2,1.7c0,0,0,0,1.5-2.9c0,0,0,0,0.3,0.3c0.1-0.1,0.1-0.1,0.1-0.1c0.1,0,0-0.1,0-0.1s0,0-1.3-0.7
	c0-0.1-0.1-0.1-0.1-0.1c0,0.1,0,0.1-0.1,0.1v0.1H64c0,0,0,0,0.2,0.1l-3,5.7c0,0,0,0-0.2-0.1h-0.2v0.1c0,0,0,0,1.3,0.7
	c0.1,0.1,0.1,0.1,0.1,0.1c0-0.1,0.1-0.1,0.1-0.1s0,0,0-0.1h-0.1c0,0,0,0-0.2-0.2c0,0,0,0,1.4-2.7c0,0,0,0-0.7,3.1c0,0,0,0-0.2-0.1
	c0,0,0,0-0.1,0.1c0,0,0,0,0.1,0.1c0,0,0,0,1.2,0.7c0.1,0,0.1,0,0.1,0S63.8,27,63.9,26.9C63.9,27,63.9,27,63.9,26.9z M67.6,26.4
	c0-0.1-0.1-0.1-0.1-0.1h-0.1c0,0,0,0-0.2,0.2c-0.2,0.2-0.4,0.5-0.7,0.8c-0.2,0.1-0.4,0.3-0.6,0.4c-0.3,0.1-0.5,0.2-0.6,0.2
	c-0.2,0-0.3,0-0.4-0.1c0,0,0,0-0.1-0.1c0,0,0,0,1.8-2.5c0-0.1,0.1-0.1,0.1-0.1c0-0.1,0.1,0,0.1,0c0.1,0,0.1,0.1,0.1,0.3
	c0,0.3-0.1,0.7-0.4,1c0,0,0,0-0.2,0.3c0,0,0,0,0,0.1h0.1c0,0,0,0,1.9-2.7c0,0,0,0,0-0.1c0,0,0-0.1-0.1,0c0,0,0,0-0.2,0.3
	c-0.2,0.4-0.5,0.6-0.7,0.7c-0.1,0-0.3,0-0.4-0.2c0,0,0,0,1.8-2.5c0,0,0,0,0.2,0.2c0.1,0.1,0.2,0.2,0.2,0.3c0.1,0.1,0,0.4-0.1,0.8
	c-0.2,0.5-0.3,0.9-0.6,1.3c-0.1,0-0.1,0.1-0.1,0.1s0,0,0.1,0c0,0,0,0,1.4-2c0,0,0,0-2.1-1.4h-0.1c0,0,0,0,0,0.1c0,0,0,0,0.3,0.2
	l-3.7,5.2c0,0,0,0-0.2-0.1c0,0,0,0,0,0.1c0,0,0,0,0,0.1c-0.1,0-0.1,0-0.1,0c0.1,0.1,0.1,0.1,0.1,0.1s0,0,2,1.4
	C66,28.7,66,28.7,67.6,26.4z M72,25.4c0.1-0.1,0.2,0,0.3,0c0.1,0,0.1,0.1,0.1,0.1l0.1-0.1c0-0.1,0-0.1,0-0.1s0,0-0.6-0.5
	c0-0.1-0.1-0.1-0.1-0.1s0,0,0,0.1c-0.1,0-0.1,0-0.1,0.1c0,0,0,0,0.2,0.1c0,0,0.1,0.1,0,0.2c0,0,0,0.1-0.1,0.2l-3,3.5
	c0,0,0,0,2.5-4.3c0,0,0,0-0.9-0.7c-0.1,0-0.1,0-0.1,0s0,0,0,0.1c0,0,0,0,0.2,0.2c0,0,0,0-3.9,4.5c-0.1,0.1-0.2,0.1-0.3,0.2
	c0,0-0.1,0-0.2-0.1H66c-0.1,0-0.1,0-0.1,0.1c0,0,0,0,0.1,0c0,0,0,0,0.6,0.6c0.1,0,0.1,0,0.1,0h0.1c0-0.1,0-0.1,0-0.1s0,0-0.1-0.2
	c-0.1,0-0.1-0.1-0.1-0.2s0.1-0.2,0.2-0.3c0,0,0,0,3.6-4.2c0,0,0,0-3.2,5.3c0,0,0,0,0.6,0.4c0,0,0,0,4-4.6
	C71.9,25.5,71.9,25.4,72,25.4z M74.3,27.3c0,0,0,0,0.1,0.1c0,0.1,0,0.1,0,0.2c0,0.1,0,0.2-0.1,0.4c-0.2,0.3-0.4,0.6-0.7,1
	c-0.3,0.3-0.5,0.6-0.6,0.7c0,0,0,0-0.1,0.1c-0.1,0-0.1,0-0.1,0.1c0,0,0,0,0,0.1c0.1,0,0.1,0,0.1,0s0.1,0,0.1-0.1c0,0,0,0,2-1.9
	c0,0,0,0-1.9-2.1c0,0,0,0-2,1.9c0,0,0,0.1-0.1,0.1c0,0,0,0.1,0.1,0.1c0.1,0,0.1,0,0.1,0s0,0,0.2,0c0-0.2,0.3-0.3,0.7-0.6
	c0.4-0.3,0.8-0.4,1.1-0.6c0.2-0.1,0.3-0.1,0.4-0.1c0,0,0.1,0,0.2,0.1L68.9,31c0,0,0,0-0.3-0.3v-0.1c-0.1,0-0.1,0.1-0.1,0.1
	c0,0.1,0,0.1,0,0.1s0,0,1.1,1.2h0.1v-0.1c0,0,0,0-0.2-0.3C69.5,31.6,69.5,31.6,74.3,27.3z M71.9,34.4c-0.2,0-0.4-0.1-0.5-0.3
	c-0.1-0.1-0.2-0.2-0.1-0.3c0-0.1,0.1-0.2,0.2-0.3c0,0,0,0,5-3.5c0,0,0,0,0,0.3h0.1c0,0,0,0,0.1,0c0,0,0,0,0-0.1c0,0,0,0-0.8-1.2
	c-0.1,0-0.1,0-0.1,0c-0.1,0-0.1,0-0.1,0.1c0,0,0,0,0.2,0.2l-4.6,3c-0.3,0.3-0.5,0.5-0.6,0.7c0,0.3,0.1,0.6,0.3,0.9
	c0.3,0.3,0.5,0.4,0.7,0.5c0.3,0.1,0.5,0,0.8-0.2C72.3,34.3,72,34.4,71.9,34.4z M76.7,31.3c0,0,0.1-0.1,0.1-0.1
	C76.7,31.2,76.7,31.2,76.7,31.3c-4.2,2.9-4.2,2.9-4.2,2.9c0,0,0,0,0,0c0.1,0,0.1-0.1,0.2-0.1C76.7,31.3,76.7,31.3,76.7,31.3z
	 M77.2,31.2c0,0.1,0,0.1,0.1,0.1c0,0,0,0,0.1,0c0-0.1,0-0.1,0-0.1s0,0-0.4-0.6c0,0,0,0-0.1,0v0.1c0,0,0,0,0,0.1
	C77,30.9,77,30.9,77,31c0,0.1-0.1,0.1-0.2,0.2c0.1,0,0.1,0,0.2-0.1C77.1,31.1,77.1,31.2,77.2,31.2z M74.8,36.5c0,0,0,0,0.6-0.3
	c0.1-0.1,0.1-0.1,0.1-0.1c0-0.1,0-0.1,0-0.1v-0.1c0,0,0,0-0.1,0.1c0,0,0,0-0.6,0.3c-0.4,0.2-0.8,0.3-1.2,0.4c-0.2,0-0.3,0-0.5-0.1
	c-0.1-0.1-0.2-0.2-0.3-0.3c-0.1,0-0.1-0.1,0-0.2c0,0,0.1-0.1,0.2-0.2c0,0,0,0,5-2.8c0.1,0,0.2-0.1,0.3-0.1c0.1,0.1,0.1,0.1,0.2,0.2
	c0,0,0,0.1,0.1,0.1c0-0.1,0-0.1-0.1-0.2c-0.1-0.2-0.3-0.3-0.5-0.4c-0.3,0-0.7,0-1.2,0.2c-0.6,0.2-1.1,0.4-1.6,0.7c0,0,0,0-0.7,0.4
	s-1.3,0.9-1.7,1.3c-0.2,0.2-0.4,0.4-0.4,0.6c0,0.3,0,0.4,0.1,0.6c0.2,0.2,0.4,0.3,0.7,0.4C73.7,37,74.2,36.8,74.8,36.5z M77,35
	c0,0,0,0-0.3,0.1c0,0.1-0.1,0.1-0.1,0.1c0,0.1,0,0.1,0,0.1c0.1,0,0.1,0.1,0.1,0.1s0.1,0,0.1-0.1c0,0,0,0,2.3-1.3c0,0,0,0-0.7-0.1
	c0-0.1,0.1-0.1,0.1-0.2c-0.1,0.2-0.3,0.4-0.6,0.7C77.6,34.6,77.3,34.8,77,35z M78.5,33.7c0-0.1,0.1-0.1,0.1-0.2c0-0.1,0-0.1,0-0.2
	C78.6,33.4,78.6,33.5,78.5,33.7z M78.2,37.3c-0.3,0-0.7,0-1.2,0c0,0,0,0,3-1.2c0,0,0,0,0.1,0.3c0.1,0,0.1,0,0.1,0
	c0.1,0,0.1-0.1,0.1-0.1s0,0-0.6-1.3c0-0.1,0-0.1-0.1-0.1c-0.1,0-0.1,0-0.1,0c0,0.1,0,0.1,0,0.1s0,0,0.1,0.3l-6,2.5c0,0,0,0-0.1-0.2
	c0-0.1,0-0.1-0.1-0.1c0,0.1,0,0.1,0,0.1s0,0,0.6,1.4h0.1c0.1-0.1,0.1-0.1,0-0.1c0,0,0,0-0.1-0.3c0,0,0,0,2.8-1.2c0,0,0,0-2.5,1.9
	c0,0,0,0-0.1-0.3h-0.1c0,0,0,0.1-0.1,0.1c0,0,0,0,0.5,1.2c0,0,0,0,0.1,0c0.1,0,0.1,0,0.1,0v-0.1c0,0,0,0-0.1-0.2
	C74.6,40,74.6,40,78.2,37.3z M80.6,37.5c0,0,0,0,0.1,0.2h0.1c0,0,0.1,0,0.1-0.1c0,0,0,0-0.4-1c0-0.1,0-0.1,0-0.1c-0.1,0-0.1,0-0.1,0
	c-0.1,0-0.1,0-0.1,0.1c0,0,0,0,0.1,0.2c0,0.1,0,0.1-0.1,0.2c-0.1,0.1-0.1,0.1-0.2,0.2c0,0,0,0,0,0c0.1,0,0.2,0,0.2,0.1
	C80.4,37.3,80.5,37.4,80.6,37.5z M80.1,37.2c-0.1,0-0.3,0-0.6,0c-1.2,0-1.2,0-1.2,0c0,0-0.1,0.1-0.1,0.1c1.5,0,1.5,0,1.5,0
	C79.9,37.3,80,37.3,80.1,37.2z M81.9,41.4c0,0,0,0-0.2-0.7c-0.1-0.1-0.1-0.1-0.1-0.1c-0.1,0-0.1,0.1-0.1,0.1s0,0,0,0.2
	c0,0.1,0,0.1-0.1,0.2c-0.1,0-0.2,0.1-0.3,0.1c0,0-0.1,0.1-0.2,0.1c0,0,0,0-1.8,0.1c0.4,0,1.1,0,2.1-0.1c0.3-0.1,0.5,0,0.6,0.1
	C81.8,41.5,81.9,41.5,81.9,41.4C82,41.5,81.9,41.4,81.9,41.4z M78.5,41.4c0.2,0,0.4,0,0.6,0C78.8,41.4,78.6,41.4,78.5,41.4
	C78.5,41.4,78.5,41.4,78.5,41.4z M81.4,40.4C81.4,40.4,81.4,40.4,81.4,40.4c0.1,0,0.1,0,0.1-0.1c0,0,0,0-0.4-1.4
	c0-0.1,0-0.1-0.1-0.1c0,0.1,0,0.1,0,0.1s-0.1,0,0,0.1c0,0,0,0,0,0.2c0,0,0,0-2.9,1.5l-2.9,0.6c0,0,0,0-0.1-0.4H75c0,0,0,0-0.1,0V41
	c0,0,0,0,0.4,1.5c0.1,0.1,0.1,0.1,0.1,0.1s0,0,0.1,0c0-0.1,0-0.1,0-0.1s0,0-0.1-0.3c0,0,0,0,3-0.8c0,0,0,0,0.1,0
	c0,0,0.4-0.2,2.8-1.4C81.3,40,81.3,40,81.4,40.4z"/>
<g>
	<path opacity="0.2" enable-background="new    " d="M10.4,74.3V25.8c0-12.1,8.2-22.7,19.8-25.8H0v100h30.2
		C18.5,96.9,10.4,86.3,10.4,74.3z"/>
	<path opacity="0.1" fill="#FFFFFF" enable-background="new    " d="M89.6,25.8v48.5c0,12.1-8.2,22.7-19.8,25.8H100V0H69.8
		C81.5,3.1,89.6,13.7,89.6,25.8z"/>
</g>
<path fill="#D88F28" d="M51.1,43.7c-0.4,0-0.2,0.3-0.2,0.3s0,0-0.3,0.1c0-0.7,0-1.5,0-1.5s0.5-1.3,1.1-1.4c0.6-0.1,1.1-1.2,1.1-1.2
	s0,0-1.2,0.3c0,0-1-0.4-1.4-1c-0.2-0.3-0.4-0.6-0.6-0.8c0.1-0.3-0.2-0.3-0.2-0.6c0,0,0,0-0.1,0v-0.1c0,0,0-0.1,0-0.3
	c-0.1,0-0.1-0.1-0.2-0.2l0.2,0.1c0.4-0.1,0.4-0.4,0.3-0.7c0-0.1,0-0.1,0-0.2s0-0.1,0-0.1c0.1-0.1,0.1-0.1,0.1-0.2l0,0l0,0l0,0
	l0.3-0.3c0.1-0.1,0-0.3-0.1-0.4c0-0.1-0.1-0.2-0.1-0.4l0,0c0.1-0.2,0.1-0.4,0.1-0.5s0-0.1,0-0.2h-0.1c0.2-0.1-0.2-1.1-0.4-1.1
	c-0.7-0.1-1.4-0.3-2.2,0.2c-0.4,0.3-0.5,0.7-0.6,1.1c0,0.2,0,0.3,0.1,0.4l-0.1,0.1c0.1,0.1,0.1,0.1,0.1,0.2v0.1v0.2
	c-0.1,0.4-0.1,0.9,0,1.2L47,37c0,0.1,0,0.2-0.1,0.3s-0.2,0.2-0.3,0.3h-0.1v0.1c-0.7,0.5-0.9,1.1-1.1,1.8c-0.1,0.3-0.5,1.9-0.4,2
	c0,0,0.7,0.8,0.8,1c0,0.1,0.1,0.2,0.1,0.2c0,0.1,0.2,1.4,0.2,1.5v0.1l0,0l0,0l0,0c-0.1,0.2-0.1,0.4,0,0.6c0,0.1-0.1,0.2-0.2,0.3
	c-0.1,0.1-0.2,0.2-0.3,0.3l-0.1,0.1c-0.1,0.1-0.2,0.3-0.3,0.5c0,0.1,0,0.2-0.1,0.3c0,0.1-0.1,0.2-0.1,0.3c0,0.3,0.2,4.6,0.1,4.6
	c0,0.3-0.1,0.4-0.1,0.7c0,0,0,0,0.1,0v0.5c0,0,0,0,0,0.3c0,0.1,0.2,0.1,0.3,0.1s0.2,0,0.2,0.1c0,0.3-0.3,2.5-0.2,2.5
	c0,0-0.1,1.1,0,1.3c0,0.4,0.4,2.8,0.3,2.9c0,0.2,0.1,0.2,0.2,0.2c0,0.2-0.2,2-0.1,2.3c0.1,0.1,0.3,0.2,0.6,0.3l0,0h0.1l0.4,0.1l0,0
	c0.2,0.1,0.5,0.1,0.8,0.2c0,0,0,0,0.1,0c0,0,0.1,0,0.1,0.1c0.2,0,0.5,0.1,0.8,0.1c0.1,0,0.1,0,0.2,0.1c0.3-0.1,0.6-0.3,0.6-0.6
	c0-0.1-0.1-0.2-0.1-0.2h0.1h0.7c0.2,0,0.7-0.8,0.7-0.8c0-0.1,0.1-0.1,0.1-0.1s-1.4-0.7-1.7-1.3c0-0.1-0.1-0.1-0.1-0.2l0,0v-0.1
	c-0.1-0.6,0.3-1.6,0.5-2.5c0.3-1.1,0.3-1.6,0.7-2.5s0.1-1.9,0.1-1.9s0,0,0-0.1c0.1,0,0.1-0.1,0.2-0.1c0-0.1,0-0.3,0-0.4
	c0-0.1,0.1-0.2,0.2-0.4c0,0,0-3.3-0.2-4.6c-0.1-0.9-0.3-1.4-0.3-1.9c0,0,0,0,0.1,0c0,0,0,0,0,0.1c0,0,0,0,0.3,0v0.1H51l0,0
	c0.1,0,0.2,0.1,0.4,0.1l0,0l0,0l0,0c0,0,0,0,0.2-0.2h0.1c0.1,0,0-0.2,0.1-0.3c0,0,0,0,0.2,0c0.1-0.2,0.1-0.3,0.1-0.4
	c0.1,0,0.1-0.1,0.2-0.1c0,0,0,0-0.1-1.1C52.3,43.6,51.5,43.6,51.1,43.7z M47.6,56.5c0-0.3,0-0.7,0-1.1c0,0,0,0,0-0.4v-0.2
	c0.2-0.3,0.2-0.7,0.3-1c0.1-0.1,0.1-0.1,0.1-0.2c0.2,0,0.6-0.2,0.6-0.2v0.1c0,0.4-0.3,1.3-0.3,1.3c-0.2,0.6-0.5,3.5-0.5,3.6v0.1
	c0,0.2,0,0.6,0,0.9v0.1l-0.1,0.4h-0.1C47.5,58.6,47.5,57.6,47.6,56.5z M48,61.1c-0.1-0.1-0.2-0.2-0.3-0.3c0-0.1,0-0.2-0.1-0.3
	l0.2-0.2c0,0.1,0,0.1,0,0.1s0,0,0.7,0.8c0,0,0,0,0.6,0.5C49.1,61.8,48.2,61.3,48,61.1z"/>
<path fill="#2B3636" d="M56.7,47.6c-0.2-1.5-0.3-2.6-0.2-4.3l0,0v-0.1c0-0.6,0-1.2,0.1-1.9v-0.1l0,0c0-0.2,0-0.3,0-0.5l0,0
	c0.1-0.4,0.1-0.8,0-1.3c0-0.7-0.2-1.2-0.3-1.5c-0.1-0.2-0.1-0.4-0.2-0.6l-0.3-0.4h-0.1c0-0.1,0-0.3-0.1-0.4l0.3-0.3
	c0-0.2,0-0.4-0.2-0.5c0.2-0.7,0.1-1.2-0.2-1.7c0-0.1-0.1-0.1-0.1-0.1l-0.1-0.1l-0.1,0.1l-0.1-0.1h0.1c0-0.1-0.2-0.2-0.3-0.3h-0.1
	v0.1c-0.2,0-0.4-0.1-0.7-0.1H54c0,0-0.1,0-0.2,0h-0.1h-0.1c-0.1,0-0.1,0-0.2,0.1c-0.4,0-0.7,0.2-0.6,0.6c0,0,0,0,0,0.1h-0.1
	l-0.2,0.8c0.1,0,0.1,0.1,0,0.2c0,0,0,0.1,0,0.2c-0.1,0.1-0.1,0.3-0.1,0.4V36v0.1h0.1c0.1,0,0.1,0.1,0.2,0.2c0,0,0,0.1,0.1,0.1l0,0
	c0,0.1,0.1,0.1,0.1,0.1v0.1c-0.1,0.2-0.2,0.5,0.2,0.7l0.2-0.1l0.1,0.1c0,0.1,0,0.1,0,0.3c0,0,0,0,0.1,0c-0.1,0.2-0.3,0.6-0.3,0.7
	l-0.5,1.3v0.7l-0.8,0.6c0,0-0.3,0.1-0.4,0.1s-1.1-0.2-1.2-0.2c-0.1,0-1-0.2-1.1-0.2s-0.5-0.4-0.5-0.4s-0.3-0.4-0.4-0.4
	c-0.1-0.1-0.9-0.2-0.9-0.2l-0.6,0.1c0,0-0.1,0.1,0,0.2c0.1,0.1-0.1,0.4-0.1,0.4l-0.1,0.3c0,0.1,0.1,0.1,0.2,0.1C47,40.8,47,41,47,41
	s-0.2,0.2-0.3,0.2s0,0,0,0.1s0,0,0.1,0s0.1-0.1,0.2-0.2c0.1,0,0.1,0,0.2,0c0.1,0,0.9,0.2,1.1,0.2c0.3,0,0.6,0.1,0.6,0.2
	c0,0,0.1,0.1,0.1,0.2c0,0.1,0,0.1-0.1,0.2c0,0,0,0,0.1,0.1c0,0.1,0,0.2,0,0.2s1.2,0.5,1.6,0.6c0.4,0.1,1.1-0.1,1.1-0.1
	s0.5-0.1,0.5,0h0.1c0,0.2,0,0.5,0,0.9c-0.4,0-0.9,0-0.9,0l-0.7,0.3l0.1,0.4c0,0.1,0.3,0.1,0.3,0.1l0.1-0.3c0,0,0.3,0,0.4,0
	c0.1,0,0.4,0.3,0.4,0.3s0,0.5,0,0.6s0.2,0.1,0.4,0.2c0,0,0,0-0.1,0c0,0,0,0,0,0.6h-0.1V46c-0.1,0.5-0.1,0.9-0.1,1.4
	c-0.1,3.7-0.2,6.9,0.2,10.4c0.1,0.1,0.1,0.3,0.1,0.4c0.1,0.5-0.1,2.1,0,2.2c0,0.1-0.1,0.1-0.1,0.2h-0.1c0,0.1-0.1,0.2-0.2,0.4l0,0
	c-0.1,0-0.3,0.1-0.5,0.2c-0.3,0.1-0.8,0.2-0.8,0.2s0.4,0.4,0.5,0.3c0.2,0,0.7,0.1,1.3,0.1c0.2,0,0.4-0.1,0.5-0.2c0,0,0,0,0,0.1
	c-0.1,0-0.1,0.1-0.3,0.1c-0.1,0-0.1,0.1-0.2,0.1c-0.1,0-0.2,0-0.3,0c0,0.1,0,0.1,0,0.2l-0.1,0.1c-0.1,0-0.2,0.2-0.3,0.3l-0.1,0.1
	v0.2c0,0,0,0,0,0.3c0.3,0,0.7,0.1,0.7,0.1l2.5-0.4l0.1-0.1c0.2,0,0.4,0,0.7-0.2c0-0.1,0-0.3,0-0.4c0-0.2,0.1-0.4,0-0.6
	c0.1,0,0.1,0,0.2-0.1c0,0,0.1-1,0-2.6c0,0,0,0,0-0.1s0.1-3.9,0.2-4.6l0,0c0.1-0.4,0.2-0.8,0.3-1.3C57,51.3,57,49.8,56.7,47.6z"/>
<path fill-rule="evenodd" clip-rule="evenodd" fill="#396F4A" d="M17.9,51.6c0,0-0.5-0.1-0.6-0.1c0.2-0.8,0.1-0.9,0.6-1.1
	c0.6-0.2-0.1-0.2,0.8-0.2l0.4-0.4c0.2,0.1,0.1,0.2,0.3,0.2c0.1,0,0.2,0,0.4,0c0.1-0.1,0.1-0.2,0.4-0.2c0.3,0.3,0.6,0.5,1,0.5v-0.6
	c0.1,0,0.1-0.9,0.6-1.5c0.4-0.3,0.2-0.7,0.6-0.8c0.1,0.2,0.2,0.2,0.4,0.3v0.4c0.2-0.2,0.1-0.1,0.2-0.3l0.5,0.6
	c0.3,0.4,0.2,0.5,0.2,0.7c0.3,0.2,0.3,0.2,0.2,0.9c-0.1,0.4,0,0.8-0.1,1.1c-0.6,0.2-0.2,0.1-0.5,0.3c-0.2,0.1-0.2,0-0.3,0.2
	c0,0.1,0,0.1-0.1,0.2l-0.4-0.1c-0.1-0.1-0.3-0.4-0.3-0.5v-0.1c0-0.1-0.8-0.6-0.9-0.7v0.3c0.5,0.3,0.2,0.1,0.6,0.4l0.3,0.3
	c0.3,0.3,0.1,0.3,0.1,0.3c-0.7-0.1-0.6,0.1-0.6,0.3c-0.3,0.1-0.3,0-0.4-0.1c-0.1-0.1-0.3-0.1-0.4-0.2c-0.3-0.2-0.5-0.3-0.9-0.3
	s-0.7,0-1.1,0C18.1,51.5,18.3,51.5,17.9,51.6z M20.9,58.9c1.2,0.3,1.7,0.7,2.1,0.8l0.2,0.2c-0.2,0.2-0.4,0.4-0.7,0.5l0.2,0.4
	l0.2,0.1c0.6,0.1,1-0.1,1.4-0.4c0.3-0.2,0.3-0.2,0.5-0.4c0.4-0.6,0.7-0.5,0.9-1.3c-0.1,0,0,0-0.1,0.1L25.5,59
	c-0.1,0.2,0-0.7,0.3-1.2c0.5-0.7,1-1.4,1.7-1.8c0.6-0.3,0.6-0.1,0.8-0.5c0.1-0.1,0-0.1,0.2-0.2c-0.3-0.5,0.1-0.5-0.9-0.5
	c-0.3,0,0,0-0.4,0c-0.6,0.2-0.3-0.1-0.7,0.2l-0.3-0.1c-0.1,0.2,0,0.2-0.1,0.4H26c-0.2,0.2-0.1,0.1-0.2,0.2v0.1
	c-0.2,0.2-0.1,0-0.3,0.2l0.2,0.5c-0.1,0.1-0.1,0-0.2,0.1c-0.4,0.2-0.2,0-0.5,0.6c-0.2,0-0.2,0-0.3,0.1c0,0.1-0.1,0.6-0.1,0.6
	l-0.3-0.9c-0.1-0.1,0.1,0-0.1-0.1c-0.1,0-0.1,0-0.1,0s0-0.1,0-0.2c0-0.2,0-0.1,0.2-0.2c0.3-0.3,0.7-0.4,0.8-0.6
	c0.3-0.4,0,0.1,0.4-0.4l0.3-0.2c-0.1-0.3,0.1-0.4,0.1-0.4c0.2-0.3-0.1-0.7-0.3-0.9c0,0,0,0-0.1-0.1c-0.2-0.3,0.2-0.2-0.5-0.3
	c-0.4,0-0.1-0.2-0.4-0.2c-1.5,0.1-1.1-0.2-1.9-0.6c-0.3-0.1-0.6-0.1-0.8-0.2c-0.2,0-0.1-0.1-0.3-0.1c-0.2,0.2-0.4,0-0.6,0.4
	l-0.3,0.7c0,0.1,0.1,0.1,0.1,0.1s-0.2,0.2-1,0.2h-0.6c-0.3,0.3-0.6,0.2-0.8,0.7c-0.3,0.5-0.4-0.2-0.3,1.2h0.3c0.3-0.3,1.1-0.4,0.5,0
	c0.3,0.1,0.8-0.4,1.3-0.4l1.4,0.4c0,0.4-0.1,0.6,0.1,0.7l0.4,0.2c0.3,0.1,0.3,0.1,0.5,0c0.1-0.1,0.1,0.3,0.2,0.5
	c0,0.1,0.1,0.1,0.1,0.2H23c0.1,0.1,0,0,0.1,0.1c0.1,0.2-0.1,0.1,0.1,0.3c0,0,0.2,0.2,0.3,0.3c0,0-0.1,0-0.2,0
	c0.4,0.5,0.4,0.9,0.5,1.2l0.5,1.3c-0.3-0.1-0.2-0.2-0.5-0.4s0-0.7-0.2-1.2C23.5,58.4,23.1,58,23,58c-0.3-0.2-0.5-0.3-0.9-0.4
	c-0.2,0-0.4-0.2-1-0.4c-0.2,0-0.5-0.1-0.5-0.1c-0.1,0-0.3,0.1-0.5,0.1c-0.2,0-0.2-0.1-0.4,0.1c-0.6,0.5-0.8,0-1.1,0.4l-0.5,0.6
	c-0.4,0.4-0.4,0.1-0.4,0.7C17.7,59.6,19.3,58.5,20.9,58.9z M23.6,51.4c-0.1,0.1-0.4,0.3-0.4,0.4c-0.1,0.1,0.3,0.6,0.2,0.7l-0.2,0.1
	l0.2,0.4c0.2-0.1,0.2-0.1,0.3-0.2c1.1-1.3,2.7-0.4,2.7-0.4l0.2-0.1c0-0.2-0.2,0.1-0.1-0.4c0.2,0,0.3,0.2,0.5,0.5h0.3
	c0.1-0.2,0-0.1,0.1-0.4c0.2-0.4-0.4-0.6-0.7-0.8l-0.5-0.4c-0.2,0-0.1,0.1-0.3,0c-0.4-0.1-0.4-0.1-0.7-0.2l-0.1,0.1
	c-0.7-0.2-0.7-0.1-0.8,0.1c-0.1,0.1-0.3,0.4-0.4,0.4C23.7,51.3,23.8,51.2,23.6,51.4z M21.9,52.1c0.1,0,0.1,0.1,0.1,0.1
	c0.4,0.1,0.4,0.1,0.8,0.3l0.3,0.2C23.2,51.6,22.1,51.9,21.9,52.1z M27.8,63.7c-0.1,0.6-0.1,0.1-0.2,0.6c-0.1,0.4-0.2,0.2,0.1,0.6
	c0.1-0.1,0.3-0.3,0.3-0.3c0.6-0.6,0.1-0.5,1.6-0.8c0.1-0.6-0.6-0.8-1-0.5c-0.2,0.1-0.1,0-0.3,0.1c-0.3,0.1,0,0-0.2,0.2
	C27.9,63.6,27.9,63.6,27.8,63.7z M66.9,66.6l-0.2-0.3c0,0.3-0.1,1.1-0.1,1.3C66.8,67.3,67,66.9,66.9,66.6z M38.3,69.4
	c0,0.1,0.1,0.2,0.1,0.3L38.3,69.4C38.3,69.3,38.3,69.4,38.3,69.4z M38.2,69.2C38.2,69.2,38.3,69.3,38.2,69.2V69V69.2z M38.1,76
	c0.3-0.2,0.6-0.3,0.9-0.4c-0.2-0.1-0.7,0-1,0.1c-0.5,0.2-0.6,0.3-0.9,0.2c0.5-0.4,1.5-0.7,2.2-0.3l0.6,0.3l-0.2-2.1
	c0,0,0.1,0,0.1,0.3c0,0.5-0.1,0.9,0.3,1.5c0.1,0.2,0.2,0.3,0.4,0.4H41l-0.7-0.6c-0.1-0.4-0.1-0.8,0-1.2c0.1-1.1,0.3-1.1-0.2-2.1
	c-0.5-1.1-1-1.4-1.6-2.3c0,0,0-0.1-0.1-0.1l0.3,0.8c0.3,0.4,0.5,0.8,0.7,1.3c0.2,0.6,0.2,1.2,0.2,1.9c0,0.3,0,0.7,0,1
	s0.1,0.5,0.1,0.8c-0.4-0.2-0.6-0.4-0.9-0.4l-0.1-0.2l-0.1-0.2c-0.1-0.2-0.2-0.4-0.2-0.8c0-0.7,0.3-1.8,0.3-2.7
	c0-0.4-0.1-0.5-0.3-0.7c-0.1-0.2-0.2-0.4-0.3-0.6L38,71.4c-0.1,0.5-0.2,1.1-0.2,1.6c-0.3,1.5,0,1.1,0,1.6c-0.1-0.1-0.4-0.3-0.6-0.4
	c-0.8-0.4-0.6-2.2-0.6-2.8c0-0.8-0.3-1.1-0.5-1.8c0-0.1-0.1-0.2-0.1-0.2c0.1-0.5,0.2-1.3,0-1.8c0,0.3-0.1,0.7-0.1,1
	c-0.1,0.1-0.1,0.2-0.1,0.3c0,0,0-0.1-0.1-0.1c-0.1-0.1-0.1-0.3-0.1-0.5l-0.1-0.4v0.8c0.1,0.2,0,0,0.1,0.3c0,0.2,0,0.2,0.1,0.3
	c0.1,0.4,0.2,0.8,0.3,1.2c0.1,0.4,0,0.9-0.1,1.4c0,0.6,0,0.9,0.1,1.4L34.4,73l-0.6-0.7c-0.4-0.6-0.1-0.3-0.6-0.4
	c-1.4-0.2-1.6,0.3-2.2,0.7c-0.3,0.2-0.6,0.4-1.1,0.4l-1.1,0.4c1.3,0.2,1.3,0.2,2.3-0.1c0.9-0.2,1.7-1.8,3.1-0.4
	c-0.2,0.1-0.1,0-0.3,0.1c0,0-0.6,0.3-0.8,0.6c0,0,0,1,0.2,0.7c0.2-0.2,0.6-0.5,0.9-0.6c0.4-0.2,0.9-0.3,1.3-0.1
	c0.1,0.1,0.2,0.1,0.3,0.1c-0.1,0.1-0.2,0.2-0.3,0.3c-0.1,0-0.3,0.1-0.5,0.1c-0.6,0.2-0.8,0.5-1.3,0.8l-1.4-0.2l-2-0.2
	c0.1,0.1,0.2,0.1,0.3,0.2l0.7,0.5c0.1,0.1,0.9,0.6,1,0.7c0.2,0.1,0.8,0.1,1.1,0.1c0.8-0.1,1.1-0.4,1.6-0.7c0.3-0.1,0.5-0.3,0.8-0.4
	c0.1-0.1,0.3-0.1,0.4-0.2c0.1,0,0.1,0,0.2-0.1l0.2-0.1c0,0-0.1,0-0.1,0l0.2-0.1c0.3,0.1,0.7,0.3,0.9,0.4l0.1,0.3
	c-0.8,0.1-1.5,0.6-2,1.1c-1.6,1.5-2,1.2-4.1,2.1c0.1,0-0.1,0.1,0.2,0.1l2.1-0.1c1.7-0.2,2-0.8,3.3-1.7C37.7,76.3,37.8,76.2,38.1,76z
	 M38,69c-0.1,0.3,0,0.6,0.1,0.9l0.1-1.4C38.1,68.7,38.1,68.7,38,69z M46.8,80c-0.1,0-0.8,0.4-0.9,0.5c-0.2,0.9-0.6,2-1,2.9
	c0.4-0.7,0.7-0.9,1.2-1.5c0.4-0.4,0.7-1,0.8-1.6C47,79.9,46.9,80.1,46.8,80z M55.4,80.8c-0.1-0.1-0.1-0.3-0.2-0.3L54,80.1
	c-0.4-0.2-0.6-0.6-0.8-0.6c0.4,1,1.1,0.9,1.6,1.6c0.2,0,0.3,0.1,0.5,0.1h0.2c0.3-0.1,0.1,0,0.2-0.2C55.5,81,55.5,80.9,55.4,80.8z
	 M58.7,81.3c-0.1-0.1-0.4-0.2-0.6-0.2l-0.2,0.1c0.2,0.1,0.6,0.4,0.8,0.5c0.5,0.3,0.3,0.2,0.7,0.6c0-0.4-0.1-0.3-0.2-0.6
	C58.9,81.6,58.9,81.4,58.7,81.3z M43.9,80.4c0,0.1-0.1,0.2-0.1,0.3v0.1c0,0,0,0,0.1,0c0.1-0.2,0.2-0.4,0.2-0.7
	C43.9,80.2,43.9,80.3,43.9,80.4z M55.7,80.6l-0.1,0.1c0,0.1,0,0.2,0.3,0.3c0-0.2,0.1-0.1-0.1-0.3L55.7,80.6z M34.3,72.6
	c0.2,0.3,0.2,0.2,0.5,0.2c-0.1-1.4,0.7-1.9,0.7-2.3l-0.2-0.9c-0.1,0.1,0,0-0.2,0.1c-0.7,0.6-1.2,1.5-1,2.5
	C34.1,72.4,34.2,72.5,34.3,72.6z M29.4,70.2l0.4-0.1H30c0.1,0,0.1,0,0.1,0c0.2,0,0.5,0,0.7,0c0.2,0.1,0.4,0.3,0.5,0.4
	c0.1,0.1,0.1,0.1,0.2,0.2c-0.9,0.1-0.9,0.4-1.3,0.4l-1.4,0.2c0,0,0.3,0.1,0.3,0.2c0.6,0.3,0.9,0.6,2-0.1l0.7-0.4
	c0.8,0.5,0.3,0.5,1,0.7l0.2,0.1c0.5,0.1,0.2,0.1,0.3-0.1c-0.9-2,1.1-2.1,0.7-4.2c-0.3,0.4-0.2,1.2-0.9,1.9c-0.9,1-0.6,1.1-0.6,1.9
	c-0.7-0.5-1.2-0.7-0.7-1.7c0.1-0.3,0.9-1.3-0.1-1.8L31.6,69c-0.3,0.6-0.2,0.5-0.3,1.2l-0.4-1c0.2-0.5,0.1-1-0.1-1.3l-0.2,1.7
	l-0.3-0.2c-0.1-0.1-0.1-0.2-0.1-0.4c0-0.1,0-0.2,0-0.2c0-0.1,0-0.3,0.1-0.6l0.1-0.3l0.1-0.1c0.1-0.1,0.1-0.3,0.1-0.5
	c0.2-0.2,0.3-0.2,0.4-0.3c0.1,0,0.1,0,0.2,0c0.3,0.1,0.5,0.2,0.7,0.2c0,0,0,0-0.1,0c0.4,0.3,0.7,0.2,1.2,0.2
	c0.1-0.8-0.4-0.9-0.8-1.3c-0.4-0.3-0.4-0.1-0.8-0.2l-0.8-0.1l-0.2,0.3h-0.3c-0.3,0.5-0.4,0.4-0.5,0.8c-0.1,0.3,0,0.3,0,0.5
	c0,0.2-0.1,0-0.1,0.6h0.1c0,0.3,0.1,0.7,0.2,0.9l-0.2-0.3c-0.1-0.1-0.4-0.5-0.5-0.6c-0.3-0.5-0.1-1,0-1.5c0.1-0.3,0.3-0.8,0.4-1.1
	c0.2-0.1,0.1-0.1,0.3-0.2c0-0.1,0.2-0.2,0.3-0.3c0,0,0,0-0.1,0c0.2-0.1,0.3-0.3,1.1-0.4l1.6-0.1c0,0,0.1,0,0.1-0.2
	c0-0.6-1.2-0.9-2-0.6c-0.2,0-0.1,0.1-0.2,0.1c-0.2,0.1-0.4,0-0.5,0.1l-0.6,0.7c0,0-0.6,0.1-0.9,0.7c-0.1,0.2-0.2,0.3-0.2,0.5
	c0,0.3,0.1,0.1-0.2,0.5c0.1,0.1,0.2,0.1,0.2,0.2c0,0.1,0,0.2,0,0.3c0.1,0.2,0.2,0.5,0.2,0.7c-0.4-0.3-0.2-0.3-0.6-0.7
	c-0.3-0.5-0.1-0.7-0.2-1.3l-0.2,0.4c0,0.1,0,0.1-0.1,0.1l-0.4-0.5c-0.4-0.5,0.1-1.3,0.1-2.1l-0.1,0.1v-0.1c0-0.2,0.3-0.6,0.2-0.3
	c0.2-0.5,1.9-1.4,2.6-1.1c-0.1-0.2,0.2-0.2,0.7-0.4c0-0.4-0.4-0.4-0.7-0.7c-0.3-0.3-1-0.3-1.2-0.3l-0.5-0.2
	c-0.1,0.2-0.1,0.2-0.3,0.5l-0.8,0.8C27,61.3,27,61.1,26.8,61s-0.4-0.1-0.5-0.3c-0.1-0.2,0.2-0.9,0.4-1.2c0.7-1,0.9-0.8,2.1-0.8
	l0.1-0.3c-0.1-0.1-0.2-0.3,0.4-0.2c0-0.2-0.1-0.3-0.3-0.4c-0.3-0.3-0.6-0.5-1-0.5c-0.9,0-0.5,0.1-0.8,0.2c-0.3,0.2,0.1-0.2-0.4,0.2
	l-0.2,0.1c-0.1,0.1-0.1,0.1-0.2,0.2c-0.1,0.3,0,0.1-0.1,0.3c-0.1,0.1-0.1,0.1-0.2,0.3c-0.3,0.4,0.1,0-0.3,0.5l0.2,0.4L25.6,60
	c-0.4,0.2-0.5-0.2-0.7,0.5c0,0.1,0,0.1,0,0.2c-0.1,0.3-0.5,0.4-0.7,0.6c-0.1,0.2-0.8-0.1-1.2-0.2l-0.3,0.2l-0.3-0.1
	c-0.5,0.2-0.1,0.3-1,0.1c-0.2,0.6-0.1,0.4-0.5,0.7l0.1,0.4c-0.1,0.1-0.1,0.1-0.2,0.2c-0.3,0.4-0.4,0.8-0.4,1
	c-0.3,0.5-0.1,0.6,0.2,1.4c0.2,0,1.4-1.8,1.9-2.1l2.3-0.3c0,0.1,0,0,0.1-0.2c0.3,0.2,0,0.2,0.6,0.1c-0.2,0.7,0.1,0.5,0.6,0.6h0.1
	c0.1,0.2,0.4,0.6,0.5,0.8h0.2c0,0,0,0,0,0c-0.1,0.4-0.1,0.9-0.1,1c-0.2-0.2-0.5-0.6-0.5-0.8h0.1c-0.1-0.2-0.4-0.6-0.5-0.8
	c0,0.5,0.1,0.7-0.3,0.7l-1.5-0.2c0.2,0.4,0.5,0.4,0.5,0.4c0.2,0.1,0.1,0.3,0.7,0.2c0.3-0.1,0.2,0,0.4,0H26c0.3,0.1,0.3,0.2,0.5,0.5
	c0,0,0,0-0.1,0c-0.4-0.3-0.7,0-1.3-0.3c-0.2-0.1-0.8-0.2-1-0.2c-0.1,0-0.1,0.1-0.3,0.1s-0.2,0-0.4,0.1c-0.2,0.1,0,0.1-0.3,0.1
	c-0.3,0.1-0.2,0-0.4,0.2c-0.5,0.5,0,0.3-0.4,0.8c-0.3,0.1-0.2,0.1-0.5,0.2c0,0.3,0,0.2-0.1,0.4c-0.3,0.7,0.1,0.2-0.4,1.1h0.6v-0.1
	c0.1,0,0.2,0,0.2,0s0.9-0.9,1.3-1.2c0.1,0,0.1-0.1,0.2-0.1l1.8-0.4l1.3,0.3c-0.1,0.1,0,0.1-0.3,0.1c-0.5,0.1-0.6,0.3-0.8,0.5
	l-0.2,0.1c0.5,0,0.6-0.3,1-0.4l1.3,0.1l1.4,1.9c-0.2-0.1-0.4-0.3-0.7-0.4c0-0.1-0.1-0.1-0.1,0c-0.1-0.2-0.1-0.3-0.3-0.4l-0.6,0.1
	l-1.5-0.1c-0.3,0.5,0.1-0.1-0.5,0.5c-0.8,0.8-0.4,0.2-1,0.8c-0.2,0.2-0.1,0.2-0.2,0.3L24,69.2l0.2,0.5c-0.1,0.1-0.4,0.2-0.5,0.3
	c0,1-0.3,0.5,0.3,1.3l0.2-0.2c0.2-0.2,0.1,0,0.1-0.2c0,0,0.6-0.8,1-1.3c0.4-0.5,1.7-1.1,2.4-1.2c0.2,0,0.5,0,0.8,0
	c0.2,0,0.4,0.1,0.5,0.1c0.5,0.1,0.5,0.2,0.8,0.5c-0.2,0.2,0,0.2-0.3,0.2h-0.1c-0.1,0-0.2,0-0.3,0c-0.1,0-0.2,0-0.2,0s0,0.1-0.1,0.1
	c-0.2,0-0.3,0.1-0.5,0.1c-0.3,0.1-0.4,0.3-0.5,0.5c0,0-0.1,0-0.2,0.1l-0.2,0.1c-0.2,0.1-0.3,0.3-0.6,0.8l0.2,0.4
	c0,0.1,0,0.2-0.1,0.3c-0.1,0-0.1,0.1-0.2,0.3c-0.2,0.8-0.3,0.2,0.1,1c0.1,0.3-0.1,0.2,0,0.5l0.7,0.9c0.1-0.1,0.2-0.2,0.6-0.4
	c0-0.2-0.1-0.5-0.1-0.8c0-0.6,0.1-1.5,0.3-1.9C28.6,70.7,29,70.3,29.4,70.2z M44.2,79.3c-0.1,0.3-0.6,1.1-0.6,1.2
	c-0.2,0.1-0.4,0.5-0.6,0.6c-0.2,0.2-0.3,0.3-0.6,0.5c-0.1,0.1-1.5,0.7-1.6,0.7c0.2-0.3,0.1-0.2,0.3-0.3c1.6-1,1.2-2.4,1.7-3.1
	c0.4-0.5,1.5-1,2-1.1l-0.5,0.6c0,0,0,0,0,0l0,0l-0.1,0.1c-0.2,0.2-0.3,0.4-0.5,0.6c0,0,0,0.1,0,0.1l0.6-0.8l0,0l0,0
	c0.2-0.1,0.3-0.2,0.5-0.4c0.2-0.2,0.5-0.4,0.6-0.5l-1-0.1c-0.4,0-0.2,0-0.3-0.1c-0.4-0.3-1.2,0.1-1.5,0.3c-0.3,0.1-0.4,0.3-0.6,0.5
	l1.7-0.8l-1.2,1.3c-0.2,0.5-0.6,1.1-0.9,1.5c-0.5,0.6-2.5,1.7-3.1,1.8v-0.4c0-0.1,0.6-0.7,0.7-0.8c0.5-0.5,0.7-0.8,1.1-1.5
	c0.9-1.6,1.5-1.6,2.6-2.1l-0.3-0.3c-0.4-0.3-0.6-0.4-0.7-0.5c0,0.1,0.1,0.1,0.1,0.2L40.2,77c-0.1,0.1-0.5,0.4-0.6,0.6
	c-0.2,0.1-0.2,0.2-0.3,0.3c-0.1,0.1-0.2,0.2-0.3,0.3c-0.6,0.7-2.2,1.3-3.4,1.3c0.8-0.3,0.8-0.2,1.4-0.7c0.3-0.2,0.4-0.3,0.6-0.5
	c0.4-0.5,1-1.3,1.5-1.6c0.4-0.2,0.7-0.4,1.1-0.5l0.4-0.1c0.1,0.1,0.2,0.1,0.4,0c0.4,0,0,0,0.3-0.1h0.2c-0.2-0.3-0.2-0.3-0.4-1
	c-0.3-1.6,0.1-2.2,0-3.3l-0.3-1.5c0.2,0,0.4,0.3,0.5,0.5c1,1.6,0.6,3.2,1,4.3l0.7,1.4c-0.2-0.1-0.6-0.5-0.7-0.7l-0.6-0.9
	c0.1,0.8,0.7,1.5,1.3,1.8c0.6,0.3,0.7,0.2,1.3,0.3c1,0.2,0.2,0.1,1.5,0.1c-0.2-0.6-0.7-0.9-1.1-1.2c-0.5-0.4-0.7-0.7-1-1.3
	c-0.3-0.4-0.4-1.1-0.4-1.8L43,70.8c0.7,0.3,0.9,1.8,1.5,2.7c0.2,0.4,0.4,0.5,0.6,0.8c0.4,0.6,0.8,2.4,1.4,2.7l1,0.4
	c-0.7,0.5-0.7,0.4-1.3,0.3C45,77.6,44.6,78.4,44.2,79.3z M43.6,79.3l-0.4,0.5C43.6,79.4,43.5,79.5,43.6,79.3z M53.1,76
	c0.3-0.2,0.5-0.3,0.8-0.5c0.3-0.2,0.5-0.3,0.8-0.5c1.3-1.2,0.6-1.6,2.1-3.8c0.1-0.1,0.2-0.2,0.2-0.3l-1.3,1.5
	c-0.4,0.6-0.8,1.1-1.3,1.5c-0.8,0.6-1.8,0.9-2.4,1.7c-0.2,0.2-0.3,0.6-0.5,0.9c-0.4,0.8-0.8,0.8-1.6,1.2c-1.4,0.6-2.4,1.1-3.6,1.9
	c-0.5,0.3-1.3,0.7-2,0.7l-0.2,0.6c0.6,0,1.1-0.3,1.6-0.5c0.1-0.1,0.6-0.4,0.8-0.5c0.3-0.2,0.5-0.3,0.8-0.5l1.7-0.9
	c0.5-0.3,1.3-0.6,1.8-0.8C52.3,77.3,51.8,76.9,53.1,76z M48.3,76.7c-0.1,0.2,0.1,0.4,0.2,0.7c-0.5,0-0.5,0-0.9,0.1
	c-0.2,0.1-0.5,0.3-0.7,0.4l-0.7,1.5c0.1,0,0.8-0.5,0.9-0.5c0.2-0.2,0.2-0.8,0.4-1c0.2-0.2,0.8-0.1,1.2-0.1l1.1-0.2
	c-0.5-0.2-0.7,0-0.9-1.5c-0.3-2.3-0.6-2.2-2.2-3.8c-0.3-0.3-0.2-0.3-0.6-0.6c0.1,1.1,0.9,2.1,1.3,2.8C47.9,75.3,48,75.9,48.3,76.7z
	 M44.7,71c-0.3,0.3-0.2,1.2-0.3,1.7c0,0.5-0.1,0.4,0.1,0.8c0.2,0.2,0.4,0.4,0.5,0.5C45.2,73.4,44.8,71.7,44.7,71z M44,76.4
	c0.1,0.1,0.2,0.2,0.4,0.3C44.3,76.6,44.1,76.5,44,76.4z M43.9,75.2c-0.2-0.2-0.1-0.1-0.3-0.4c-0.1,0-0.2-0.1-0.3,0.4
	c-0.1,0.2,0,0.4,0,0.6c0,0.4,0.1,0.9,0.5,0.9c-0.4-0.8-0.4-0.4-0.1-1.6c0,0.1,0,0,0,0.1c0,0.2-0.1,0.3-0.1,0.4
	c-0.1,0.4,0.1,0.6,0.4,0.8v0v-0.1C43.9,75.8,44.4,75.8,43.9,75.2z M50.3,78.1c0.2,0.1,0.5,0.3,0.9,0.5l0.9,0.6v-0.6
	C51.4,78.2,50.9,77.6,50.3,78.1z M64.4,72.4c-0.2,0.4-0.7,1.5-0.7,1.9l2.5-0.2c0.4,0.8,0.3,0.9,0.9,1c0.5,0,1.4,0,1.7-0.2
	c-0.5-0.3-0.8-0.6-1.1-1c-0.6-0.9-0.8-0.7-1.2-0.9c0.3-0.1,0.2-0.1,0.5-0.2c0.5-0.4,0.4-0.1,1.1-0.1c0.2,0,0.4-0.1,0.6,0.1
	c0.4,0.2,0.7,0.8,1,1.1l0.5,0.3c-0.1-0.3-0.3,0-0.8-1.3c-0.2-0.5-0.6-0.8-1.1-0.8c-0.4,0-1.1,0.1-1.4,0.3l-0.4,0.3
	c-0.2,0.1-0.2,0.2-0.4,0.3c0.2-0.9,0.5-2.6,0.7-3.3c0.2-0.6,0.9-2.6,0.8-3.3l-0.5,0.9c-0.5,1-1.3,1.6-1.6,2.7
	c-0.4,1.5,0.7,2.3-0.5,3.4c-0.2,0.2-0.6,0.5-0.9,0.5l0.5-1.6c0.2-0.5,0.4-0.9,0.6-1.5c0.2-0.7,0.1-1.2,0.1-1.9c0-0.3,0.1-1.7,0-1.8
	c-0.5,0.8-0.7,1-0.9,1.9c0,0.2-0.1,2.6-0.1,2.8l0.6-1.6L64.4,72.4z M71.1,75.3c0.2-0.1,0.1,0,0.2-0.1H69c-0.2,0-0.7,0.2-1,0.2
	c-1,0.2-2-0.3-2.9-0.6c-1-0.3-1.8-0.1-2.5,0.2c-0.1,0-0.2,0.1-0.3,0.1c-0.5,0.2-0.8,0.5-1,0.5c1.1-1.7,0.8-1.3,1.5-3.1
	c0.1-0.3,0.3-0.7,0.4-1.1c-0.8,0.7-0.9,1.2-1.4,2c-0.3,0.5-0.1,0.1-0.3,0.7c-0.2,0.6-0.4,1.2-0.7,1.5c-0.4,0.3-1,0.6-1.6,0.6
	l0.1-0.3L58.5,76c-0.2,0.2-0.2,0.2-0.5,0.3c-0.3,0.1-1.1,0.3-1.4,0.2c0.3-0.1,2.6-1.1,2.8-1.2c0.3-0.2,0.5-0.4,0.8-0.6
	c0.5-0.5,0.7-0.8,1.1-1.6l1-1.5l0.4-0.2c0.1-0.1,0.1-0.1,0.2-0.1c0.1-0.1,0,0,0.1-0.1l0.1-0.1c0.1-0.2,0.2-0.2,0.3-0.5l0.6-2.3
	c-0.1,0.1-0.4,0.7-0.5,0.8c-0.4,0.6-1.5,2-1.6,2.6l0.2-0.1c-0.6,0.4-1.2,0.7-1.8,1.2c-0.3,0.3-0.3,0.4-0.5,0.5
	c0.2-0.5,0-1.3,0.1-2.2c0.1-0.3,0.2-0.7,0.3-1.1l-0.5,0.8c-0.5,0.9-0.9,2.7-0.7,3c-0.2,0.1-0.3,0.2-0.6,0.4c-2.3,1.2-2,1.8-2.7,2.3
	C55.5,76.9,55,77,54.5,77l0.2-0.2c0.1-0.1,0.1-0.1,0.2-0.1c0.7-0.6,0.3-0.3,1.1-0.8c2.1-1.3,1.7-3.9,2.1-4.9
	c0.1-0.2,0.1-0.3,0.1-0.5l-0.6,1.2c-0.5,1.1-1.6,2.2-2.2,3c-0.3,0.4-0.4,0.7-0.7,1.1c-0.5,0.8-0.9,1.2-2,1.4
	c-0.8,0.1-0.5,0.1-1.3,0.4l0.7,0.1l0.4,2.2c0.1,0.1,0.1,0.3,0.2,0.4c0.1,0.2,0.2,0.3,0.3,0.5c0.2,0.3,0.4,0.5,0.7,0.7
	c0.1,0.1,0.2,0.2,0.4,0.2c0.6,0.3,0.7,0.5,1.2,0.9c0-0.7-0.4-1.2-0.5-1.4c-0.1,0-1.3-0.9-1.6-1.2c-0.2-0.3-0.3-0.6-0.4-1
	c-0.1-0.5-0.2-0.6-0.4-1.1c0.3-0.1,1.1-0.2,1.5-0.2c1.3,0,1.2,1.1,2.1,2.3c0.3,0.4,0.4,0.3,0.4,0.4c0.4,0.2,0.4,0.2,0.9,0.4
	c0.3,0.1,0.9,0.1,1.1,0.3h0.3L58,80.6c-0.2-0.1-0.4-0.3-0.5-0.4c-1.2-1.1-1.5-2.5-3.1-2.7c0.2-0.1,1.5-0.3,1.7-0.3
	c0.6-0.1,0.9,0.4,1.1,0.9c0.4,0.8,0.1,1.4,0.2,1.6c0.1,0.2,0.8,0.8,1.1,0.9l-0.4-2.4c-0.1-0.4-0.7-0.8-1-1c-0.4-0.3-0.3-0.1-0.4-0.3
	c1.4,0.2,0.8-0.2,1.5,0.7c0.6,0.7,1.6,0.7,2.6,0.8c1.3,0.1,1.9,1.1,3.1,1.5l-1-1.2c-1-1-1.6-0.5-2.8-1.5c-0.5-0.4-0.8-0.4-1.6-0.6
	c1.3-0.2,1.1-0.3,2,0.3c2,1.3,3.3,0.7,5.4,0.5c0.2,0,1,0,1.2-0.1L67,77.2C66.6,77,65.7,77,65.3,77c-1.6-0.1-2.1-0.7-3.3-0.9
	c-0.5-0.1-1.4-0.1-1.8,0.1l1.5,0.5c0.2,0.1,0.4,0.2,0.7,0.3c0.2,0.1,0.7,0.1,0.8,0.2l-1.8-0.4c-0.3-0.1-0.5-0.2-0.9-0.3
	c-0.6-0.1-0.4,0-0.7-0.2l-0.2-0.1l1.6-0.3c0.5-0.1,0.9-0.3,1.4-0.4c1.4-0.3,1.8,0.1,2.9,0.5c1.6,0.6,3,0.4,4.4-0.4
	c0.4-0.2,0.5-0.3,0.7-0.3l-0.2,0.1c-0.2,0.1-0.3,0.1-0.4,0.3l1.5-0.1c0.3,0,0.3,0,0.5-0.1c-0.8,0-0.6-0.1-1.1-0.2H71.1z M82.5,55.2
	L82,54.6c-0.9-0.9-2.2-0.1-2.3,0l-0.2,0.5c-0.1,0.2,0.1,0.2-0.3,0.2v0.3l-0.6,0.3L78.5,56h0.2v0.3l0.6-0.3c-0.1,0.1-0.3,0.3-0.5,0.4
	c0.2,0.1,0.4,0.1,0.5,0.2c0,0,0.1-0.1,0.1-0.1c0.2-0.1,0,0.1,0.2,0c0.1,0,0,0,0.2-0.1c0.1,0,0.3,0.1,0.4,0.1c0.3,0,0.1-0.1,0.4,0
	c0.3,0.1,0.4,0.2,0.8,0.3c0.4,0.1,0.5,0.1,0.7,0.4c0.1,0.2,0.2,0.4,0.2,0.8l-0.2,0.2L82,58l-0.1,0L81.7,58c0,0,0,0,0,0.1
	c-0.6-0.2-1.1-0.4-1.8-0.3c-0.9,0.1-0.8,0.1-1.5,0.4l-0.1,0h0l-0.2,0.2c-1.1,0.6-1.1,1.2-1.3,1.4v-0.1c-0.1,0.2-0.3,0.4-0.3,0.6
	l-0.2,0.2l0,0.2c0,0,0.1,0,0.2-0.1l0-0.1c0.1-0.2,0.1-0.1,0.2-0.2c0-0.1,0.1-0.2,0.1-0.3h0.3l0.3-0.3c0.4-0.3,0.3,0.1,0.8-0.3
	c0.4,0.1,0.4,0,0.6,0.1c0.8,0.3,0.2-0.2,1.1,0.4c0.1,0.1,0.2,0.3,0.2,0.5c0,0.2,0,0.2,0,0.3c0,0.2,0,0,0,0.2l0.2,0.7l-0.1,0.2
	c0.4,0.7,0.1,0.7,0.2,0.9c0.1,0.3,0.2,0.1,0,0.5c-0.3,0.5-0.2,0.3-0.3,0.6l-0.6,0.1c-0.4-0.1-0.2-0.3-0.5-0.3L78.9,63l0.3-0.1
	c0-0.1-0.1-0.1-0.1-0.2c0,0-0.1,0-0.1,0c-0.1-0.2,0-0.2,0-0.3c-0.7-1.5-0.9-1.5-1.5-1.1c-0.2,0.1-0.4,0.3-0.6,0.4
	c0.2-0.1,0.3-0.1,0.5-0.2c-0.4,0.3-0.6,0.4-0.8,0.5c-0.2,0.2-0.3,0.4-0.3,0.4l-0.1,0.4c0,0,0,0,0,0c0,0,0.4-0.3,0.6-0.4
	c0,0,0.1,0,0.1,0l0-0.1c0.6,0,0.9-0.1,1.2,0.3c0.2,0.2,0.3,0.2,0.5,0.4s0.1,0.3,0.4,0.5c0,0.2,0.2,0.5,0.3,0.7
	c0.2,0.3,0.3,0.3,0.3,1.2L79,65.7v-0.2l-0.2-0.3c0,0.1,0,0.1,0,0.2c-0.3-0.5-0.4-1-0.9-1.1c0.1-0.1,0-0.1,0.1-0.1
	c0,0-0.1-0.1-0.1-0.1c0,0.1,0,0.1-0.2,0.1C77.5,64,77.1,64,76.8,64c-0.1,0-0.3,0-0.3-0.1c-0.3,0-0.2,0.1-0.3-0.1
	c-0.4,0-0.8-0.1-0.8-0.1s-0.1,0.3-0.3,0.5c0.1-0.1,0.3-0.1,0.4-0.1c-0.1,0.1-0.2,0.2-0.3,0.2c0.2,0,0.3,0,0.5,0c0,0,0,0,0,0
	c0.4,0,0.4-0.1,0.9-0.1c0.5,0.1,0.3,0,0.8,0.6c0.1,0.1,0.2,0.4,0.2,0.5c0,0.2-0.1,0.2-0.2,0.4l-0.2-0.2c-0.1-0.1,0-0.1-0.1-0.3
	c0,0,0,0,0,0c0,0-0.1,0-0.1,0c0,0,0,0,0,0.1c-0.4-0.1-1-0.4-1.5-0.2c-0.1,0.1-0.2,0.1-0.4,0.1c-0.1,0-0.2,0.1-0.2,0.1c0,0,0,0,0,0
	v0.1h0.1c-0.3,0.1-0.3,0.1-0.5,0.4c-0.2,0.1-0.5,0.2-0.6,0.3c-0.2,0-0.3,0-0.5,0c0,0,0,0,0,0c0,0,0,0,0,0h0
	c-0.1,0.1-0.2,0.1-0.3,0.2v-0.1c0,0,0,0,0,0c0,0,0,0,0,0l0,0c0,0,0,0,0,0c-0.1,0-0.1,0.1-0.2,0.1c0,0,0,0,0,0l0,0
	c-0.1,0-0.1,0.1-0.2,0.1c-0.1,0.2-0.2-0.1-0.2,0.8l0.3-0.3l0-0.1l0,0l0.5-0.5c0.1,0.1,0.1,0.1,0.1,0.1c0-0.1,0-0.1,0.1-0.1
	c0.3-0.3,0,0.1,0.3-0.1c0.2-0.1,0-0.1,0.4-0.1c0.2,0,0.1,0,0.3-0.1c0.7-0.4,0.3-0.1,0.8,0c0.2,0.1,1,0.4,1.1,0.7
	c0.2,0.5,0,0.7,0.2,1.1c0.2,0.4,0.1,0.3,0,0.6c-0.1,0.2,0,0.4-0.1,0.6L76.3,69l0,0c0,0,0,0,0,0l-0.4-0.1c0.2-0.1,0.2,0,0.2-0.1
	c0,0,0-0.1,0-0.1c0-0.1-0.1-0.1-0.1-0.2c0,0,0,0,0,0c0,0.2-0.1,0.2-0.1,0.2v-0.1l-0.1-0.3c0-0.1-0.1-0.1-0.1-0.2
	c-0.3-0.3-0.8-0.6-1.6-0.7c-0.2,0-0.4,0-0.5,0c0,0.1-0.1,0.1,0.1,0.1c-0.1,0.1-0.6,0.1-0.9,0.3c-0.1,0.1-0.3,0.3-0.5,0.5
	c0.2-0.1,0.5-0.2,0.8-0.2c0.1,0,0.2,0,0.3,0c0.2-0.1,0-0.1,0.2-0.1l1.3,0.5c0.3,0.2,0.3-0.2,0.6,0.3c0.1,0.3,0.2,0.2,0.3,0.3
	c0.4,0.4,0.3,0.3,0.4,0.7c0,0.1,0,0.3,0.1,0.4c0,0.2,0.1,0.1,0,0.4c0,0.1-0.1,0.4-0.1,0.5c-0.1,0.2,0,0.1-0.1,0.2
	c-0.3,0.5-0.2,0.1-0.4,0.3c-0.1,0.1,0,0.2-0.2,0.3c-0.1,0.1-0.2,0-0.3-0.1c-0.1,0-0.1,0-0.1,0l0-0.1C75,71.6,75,71.5,75,71.3
	l0.1,0.4L75,70.8l-0.2-0.6l0,0l-0.2-0.1c0.1,0.1,0.1,0,0.1,0.1l-0.3-0.3c0,0-0.1,0-0.1-0.1l-0.1-0.1c-0.2-0.1-0.3-0.2-0.4-0.2
	c-0.5-0.2,0-0.1-0.7-0.3l0,0c-0.1,0-0.2-0.1-0.3-0.1c-0.3,0-0.5,0-0.8,0c-0.4,0.1-0.9,0.3-0.9,0.3c0,0-0.1,0-0.2,0.1c0,0,0,0,0,0
	l0.6-0.1c-0.5,0.2-0.7,0.2-1.1,0.5c-0.2,0.2-0.3,0.3-0.5,0.4l-0.4,0.3c-0.1,0.1,0,0-0.1,0.1l1.5-0.1c0.4-0.1,0.8-0.4,1.3-0.3
	c-0.9,0.5-0.4,0.3-0.8,0.6c-1.3,1-1.9,0.2-3,0.6c-0.2,0-0.3,0-0.5,0.1c-0.1,0-0.1-0.1-0.1-0.1c-0.1,0-0.2,0.1-0.3,0.1
	c0,0,0,0.1-0.1,0.1c-0.2-0.3,0.2-0.4-0.1-1.7l-0.1-1.5c0.2,0.1,0.6,0.9,0.7,1.1l0,0.3c0.1,0.1,0.1,0.3,0.1,0.4c0,0.2,0,0.6,0,0.8
	l0,0c0.1,0,0.1,0,0.2-0.1c0.5-0.4,0.2-0.3,0.7-0.4c0,0,0.1,0,0.1-0.1l0.1-0.2c0,0,0,0-0.1,0c0.1-0.3,0.1-0.4,0.1-0.6
	c0,0,0-0.1,0-0.1c0-0.1,0-0.1,0-0.2c0-0.3-0.2-0.6-0.2-0.9c-0.1-0.5,0-1.5,0.4-1.8c0.2,0.4,0.7,2.1,0.4,2.7l0.1,0.3
	c0.1-0.1,0.1-0.2,0.2-0.3c0.2-0.1,0.2-0.1,0.3-0.4c0.1-0.1,0.1-0.1,0.1-0.2c0.1-0.4,0.2-0.9,0.2-1.3c0.1-0.4,0.1-0.7,0-0.9
	c0,0.1,0,0.1,0,0.2c-0.1-0.1,0-0.1-0.2-0.2c-0.4-0.3-1.2-0.6-1.4-1.6l0.5,0.4c0.5,0.4,1,0.3,1.1,0.7l0.2,0.1l0.1-0.3
	c-0.1-0.2-0.1-0.4,0-0.5l0.1,0.1c0.1-0.4,0-0.3-0.1-0.6c0-0.1,0-0.1,0-0.1c-0.2-0.2-0.5-0.3-0.9-0.6C69.6,64,69,63.2,69,63.2
	c0,0,0-0.1,0-0.2l-0.1,0c-0.1-0.1,0-0.1,0-0.2H70c0.3,0,0.4,0.1,0.7,0.1s0.4,0.1,0.5,0.2c0.3,0.4,0.5,0.7,0.6,1
	c0.2,0.5,0.5,1,0.6,1.3l0.3,0.2l0.3-0.4c0-0.1,0-0.1,0.1-0.2c0-0.2,0-0.4,0-0.6c0-0.2-0.1-0.5-0.2-0.7c-0.1-0.1-0.1-0.2-0.2-0.3v0.1
	c0.1,0.4,0,0.2,0,0.3c-0.2-0.4-0.4-0.7-0.4-0.9h0.1c0-0.1-0.1-0.1-0.1-0.2c-0.5-0.5-0.4-0.6-0.6-0.7c-0.1,0-0.1-0.1-0.2-0.1
	c-0.1,0-0.2,0-0.2,0c0-0.1,0.1-0.1,0.1-0.2l0,0l0,0c0.1-0.1,0.2-0.2,0.4-0.2c0.6-0.1,0.7,0.1,1,0.3c0.2,0.1,0.2,0,0.4,0.4
	c0.1,0.3,0.2,0.3,0.5,0.5c0.4-0.2,0.5-0.3,0.9-0.2c0,0,0.2,0.1,0.3,0.2c0,0,0-0.1,0-0.1c0-0.5-0.1-1-0.2-1.4c-0.2-0.6-0.3-1-0.5-1.2
	L74,59.6c-0.3-0.4-0.5-0.4-0.6-0.6c0,0,0,0,0,0c-0.1,0-0.2-0.1-0.4-0.2c-0.1,0-0.1,0-0.2,0v0l-0.5-0.1c-0.1,0-0.1,0-0.2,0l-0.1,0
	c0,0,0,0,0,0c0,0,0,0,0,0c-0.1,0-0.1-0.1-0.2-0.2c0,0,0,0-0.1,0c-0.1,0-0.3-0.3-0.3-0.7c0.1-0.1,0.2-0.1,0.2-0.1
	c0.1-0.1-0.2,0,0.2-0.1c0.5-0.1,1.1-0.4,1.4,0l0.1-0.3c0.5,0.2,0.7,0.2,0.8,0.6c0.5,0,0.5,0.2,0.7,0.5c0.3,0.4,0.3,0.9,0.4,1.5
	c0.1,0.4,0.2,0.9,0.2,1.2c0.1-0.1,0.1-0.3,0.2-0.5l0-0.1c-0.1-0.4,0-0.4,0.1-0.4c0-0.1,0-0.3,0-0.4l-0.6-2c0,0-0.1,0-0.1-0.1
	l0.1-0.3c1.3,0,0.9,0,1.2,0.4c0.1,0.1,0.2,0.1,0.2,0.2l0.2,1.1l0.1-0.5c0-0.8,0-0.3,0.1-0.6c0.1-0.3,0,0,0-0.2c0,0,0,0,0,0L76.8,57
	h0l0,0l0-0.1c-0.9-0.9-0.6-0.6-1.6-0.9l0.2-0.3l-0.6-0.1l0.8-0.5c0,0,0.5,0,0.7,0.2c0.2,0,0.4,0.1,0.5,0.3c0,0,0,0,0,0c0,0,0,0,0,0
	c0,0,0-0.2,0-0.3c-0.3-0.3-0.2-0.2-0.3-0.7l-0.1-0.2l0-0.1c-0.6-1-1.3-1.5-2.6-1.3c0,0,0.1-0.1,0.1-0.1l-0.1-0.2c0,0-0.1,0-0.2,0
	c-0.2-0.7-0.2-0.4,0-0.7c0-0.1,0.1-0.1,0.1-0.2l1,0.3l0.2-0.2c0.5,0.3,0.2,0.1,0.7,0.2c0.9,0.1,0.6,0.2,1,0.6
	c0.2,0.2,0.3,0.3,0.5,0.4c0,0.1,0.1,0.3,0.1,0.5l0-0.6c0,0,0,0,0,0h-0.1c-0.1-0.3-0.3-0.5-0.3-0.9c0.2-0.2,0.3-0.2,0.4-0.4l-0.4-0.5
	c-0.2-0.3-0.3-0.2-0.4-0.4c0,0,0,0,0,0c-0.3,0-0.6-0.2-1-0.2c-0.3,0-1.1,0.1-1.2,0c0,0,0-0.1-0.1-0.2l0,0l-0.2-0.5
	c0.3-0.2,0.2,0,0.4-0.1c0.1-0.1,0.1-0.2,0.2-0.3c0.1-0.1,0.7-0.3,1-0.3c0.1,0,0.5,0,0.6,0.1c0.2,0.1,0.3,0,0.6,0.2
	c0.5,0.5,0.2,0.1,0.5,0.3c0.2,0.1,0.1,0.1,0.2,0.3c0.1,0.2,0.3,0.4,0.4,0.5c0.1,0.1,0.1,0.2,0.2,0.3l0-0.6c-0.4-0.4-1-0.8-0.9-1.7
	c0.2-0.7,0.2-0.5,0.5-0.7c0.4-0.2,0.4-0.3,0.4-0.5c0.1-0.3,0.3-0.4,0.5-0.4c0.3,0.5,1,0.1,0.7,0.7l0.5,0.1l0.2,0.8
	c0.1,0.7-0.3,0.6-0.4,0.6l0.1,0.3c-0.2,0.4-0.1,0.3-0.4,0.6c-0.2,0.2-0.2,0.2-0.4,0.5c-0.1,0.1-0.2,0.1-0.2,0.1c0.1,0,0.1,0,0.2-0.1
	c0,0.1,0,0.2,0,0.2c0.1-0.1,0.3-0.2,0.4-0.3h-0.1c0.3-0.3,0.5-0.6,0.9-0.6c0.3,0,0.4-0.1,0.6-0.1c0.4,0,0.3,0.1,0.5,0.1
	c0.1,0,0.7-0.2,1,0.2c0.2,0.4,0.6,0.6,0.5,1l-0.5,0.3L80.4,51c-0.6,0.1-1.2,0.5-1.4,0.8h-0.1h-0.1c0,0,0,0.1,0,0.1c0,0,0-0.1,0-0.1
	l0.2,0.1c-0.1,0-0.2,0-0.2,0.1c0,0,0,0,0,0.1c0-0.1,0.1-0.1,0.2-0.2c0.3,0,1.2,0.1,1.4,0.6c0,0.3-0.1,0.3-0.1,0.5
	c-0.3,0.1-0.4,0-0.6,0.1c0,0,0,0,0,0l0.8-0.1c0-0.1,0-0.1,0-0.1c0.2-0.2,0.1-0.1,0.3-0.2c0.2-0.1-0.1,0,0.1-0.1l0.3,0.2l0.2-0.1
	c0.4,0.3,1,0.4,1.1,0.9C82.7,54.1,83,55,82.5,55.2z M77.2,51.4c-0.1-0.1-0.2-0.2-0.3-0.3c0,0,0,0,0,0.1c0.1,0.1,0,0,0.1,0.1
	C77.1,51.4,77.1,51.4,77.2,51.4z M78.4,64.5L78.4,64.5L78.4,64.5L78.4,64.5C78.4,64.5,78.4,64.5,78.4,64.5z M78.7,51
	c0-0.1-0.1-0.1-0.2-0.1c0,0.1,0,0.2,0,0.2C78.5,51.1,78.6,51,78.7,51z"/>
</svg>
