<?xml version="1.0" encoding="utf-8"?>
<!-- Generator: Adobe Illustrator 23.0.0, SVG Export Plug-In . SVG Version: 6.00 Build 0)  -->
<svg version="1.0"
	 id="svg2" xmlns:cc="http://creativecommons.org/ns#" xmlns:dc="http://purl.org/dc/elements/1.1/" xmlns:rdf="http://www.w3.org/1999/02/22-rdf-syntax-ns#" xmlns:svg="http://www.w3.org/2000/svg"
	 xmlns="http://www.w3.org/2000/svg" xmlns:xlink="http://www.w3.org/1999/xlink" x="0px" y="0px" viewBox="0 0 100 100"
	 enable-background="new 0 0 100 100" xml:space="preserve">
<g id="rect10">
	<rect fill-rule="evenodd" clip-rule="evenodd" fill="#00447B" width="100" height="100"/>
</g>
<g>
	<path fill="#FEFEFE" d="M27,53.3c3.1-5.5,5.6-11.4,7.4-17.4c0.6-2,1.1-3.9,1.7-5.9c0.1-0.2,0.1-0.3,0.2-0.5
		c0.5-1.3,2.4-1.8,3.5-0.9c0.3,0.2,0.4,0.5,0.5,0.8c0.9,2.4,1.5,4.9,2.1,7.4c0.3,1,0.5,2,0.7,3c0.1,0.1,0.1,0.2,0.2,0.3
		c0,0.1,0.1,0.2,0.1,0.2c0.5,1.4,0.9,2.8,1.5,4.1c0.1,0.3,0.3,0.5,0.4,0.7c0.6,1,1.5,1.1,2.5,0.5c0.1-0.1,0.1-0.1,0.2-0.2
		c0.7-0.6,0.9-1.4,1.1-2.2c0.3-1.2,0.5-2.5,0.4-3.8c0-0.8-0.3-1.5-0.5-2.3c-0.4-1.5-0.8-3-1.1-4.5c-0.1-0.7-0.1-1.3-0.2-2
		c0.1-1.4,0.3-2.8,0.6-4.1c0.1-0.5,0.3-1,0.5-1.4c0.6-1,1.9-1.5,2.9-1.1c0.9-0.1,1.5,0.4,1.9,1c0.1,0.2,0.2,0.4,0.4,0.5
		c0.2,0.2,0,0.5,0,0.7c0,0.1,0,0.3,0,0.4s-0.1,0.2-0.2,0.2c-0.1-0.1,0-0.3-0.1-0.4v-0.1c0,0.2,0,0.3,0,0.4c0,0.2,0.1,0.4-0.1,0.5
		c-0.1,0-0.1-0.1-0.1-0.2c0-0.2-0.1-0.4,0-0.7l0,0c0,0,0,0-0.1,0s-0.1-0.1-0.1-0.1c0,0.1,0.1,0.2,0.1,0.3c0,0.1,0,0.1,0,0.2
		s0,0.2-0.1,0.3c-0.1,0-0.1,0-0.1,0.1s0,0.1-0.1,0.1s-0.1-0.1-0.2-0.1c-0.1,0.1,0,0.2,0,0.3c0,0.1,0,0.1-0.1,0.1
		c-0.2-0.1-0.2-0.3-0.4-0.5c0,0.2,0.1,0.3,0.1,0.4c0.1,0.1,0.1,0.3,0.1,0.4c0,0.2,0.1,0.4,0,0.6c-0.1,0.1-0.1,0.1-0.2,0.1
		c-0.3,0-0.5,0-0.7,0.3c0,0.1-0.1,0.1-0.2,0.2c-0.1,0.1,0,0.1,0,0.2s0.1,0.2-0.1,0.3c-0.3-0.2-0.4-0.6-0.5-1l0,0
		c0,0.2,0.2,0.4,0,0.5s-0.3-0.2-0.4-0.3c-0.1-0.2-0.2-0.3-0.3-0.5c0.1,0.2,0.2,0.3,0.2,0.4c0.1,0.3-0.1,0.5-0.4,0.7
		c0,0.3-0.2,0.7-0.6,0.7c-0.1,0.3-0.1,0.6-0.1,0.9c0.2,1.1,0.6,2.2,1.1,3.2c1.6,3.1,2.6,6.4,3.2,9.8c0.2,0.9,0.3,1.7,0.5,2.6
		c0,0.2,0,0.3-0.1,0.4c-0.1,0.1-0.2,0.3-0.1,0.5c0.1,0.2,0.3,0.2,0.5,0.2c0.4,0,0.8-0.3,1-0.8c0.2-0.6,0.2-1.2,0.1-1.9
		c-0.1-0.6-0.2-1.3-0.2-1.9c0-0.4,0.1-0.9,0.2-1.3c0.7-3.2,1.3-6.4,2.1-9.6c0.1-0.2,0.1-0.5,0.1-0.7c0.2-0.8,0.5-1.6,0.8-2.4
		c0.1-0.2,0.1-0.4,0.3-0.5c0.1-0.1,0.1-0.2,0.2-0.3c0.1-0.2,0.2-0.3,0.4-0.3c1.1-0.5,2.4,0,2.9,1.1s0.8,2.3,1.2,3.4
		c1.6,5,3.7,9.8,6.3,14.5c1.1,2,2.4,3.8,3.7,5.6c0.1,0.2,0.2,0.4,0.4,0.6c0.3,0.3,0.6,0.8,0.9,1.1c0.4,0.6,0.8,1.1,1.3,1.7
		c0,0.1,0.1,0.1,0.1,0.2c0.1,0.1,0.1,0.3,0,0.4c-0.1,0.1-0.3,0.1-0.4,0.1c-0.2,0-0.5-0.2-0.7-0.3c0,0.2,0.2,0.3,0,0.5
		c-0.2,0.1-0.3,0-0.5,0c-0.1-0.1-0.3-0.1-0.4-0.2C74.1,57,74,57,73.7,56.9c-0.3-0.1-0.4-0.4-0.6-0.5c-0.9-0.9-1.5-2.1-2.2-3.2
		c-0.7-1,1.6,2.5,2.1,3c0.1,0.2,0.3,0.3,0.1,0.5c-0.1,0.2-0.4,0.3-0.6,0.2s-0.4-0.2-0.6-0.4c-1.4-1.6-2.8-4.1-1.8-2.5
		c0.5,0.7,1.8,2.9,1.4,2.8c-0.5,0-0.8-0.4-1.1-0.7c-0.7-0.9-1.3-1.8-1.7-2.8c-0.4-0.9-0.2-0.2-0.1,0c0,0.1,0.1,0.3,0,0.4
		c-0.1,0.1-1.3-0.6-1.6-1c-0.2-0.3-0.4-0.5-0.8-0.6s-0.7-0.6-0.9-0.9c0.1,0.1,0.2,0.3,0.3,0.4c0.1,0.1,0.1,0.2,0,0.3
		S65.4,52,65.3,52c-0.1,0-0.2-0.1-0.2-0.1c-0.1-0.1-0.2-0.2-0.4,0c-0.2,0.2-0.4,0-0.6-0.1c-0.2-0.2-0.3-0.5-0.5-0.8
		c0.1,0.2,0.3,0.4,0.1,0.5c-0.2,0.2-0.4,0-0.6-0.1c-0.2-0.1-0.3-0.3-0.4-0.6c0,0,0,0.1,0.1,0.1c0,0.1,0.2,0.3,0,0.4
		c-0.2,0.1-0.3,0-0.4-0.1c-0.3-0.4-0.5-0.8-0.8-1.2s-0.5-0.9-0.7-1.4c0-0.1-0.1-0.3-0.2-0.4c-0.1,0.2,0,0.4,0,0.6
		c0,0.7,0,1.3,0.1,1.9c0,0.2,0,0.4-0.1,0.7c-0.1,0.2-0.1,0.4-0.1,0.7c0,0.2,0,0.4-0.2,0.5c-0.1,0-0.1,0.1-0.1,0.2
		c0.1,0.4-0.2,0.8-0.2,1.2s-0.2,0.8-0.5,1.1c-0.1-0.1-0.1-0.2-0.1-0.3s0-0.1,0.1-0.1c0.1-0.1,0-0.3,0.1-0.5c0.1-0.1,0-0.3,0-0.4
		c0-0.1-0.1-0.3-0.1-0.4c0.1-0.1,0.1-0.1,0.1-0.3c0,0.1,0,0.1,0,0.2c-0.1,0.1-0.1,0.1-0.2,0.1h-0.1c-0.2-0.3-0.2-0.7-0.4-1
		c0-0.1,0-0.2-0.2-0.2l-0.1,0.1c-0.1,0.2,0.1,0.4,0,0.6L58.6,53c-0.2-0.2-0.2-0.4-0.3-0.6c0-0.1,0-0.3-0.2-0.2H58
		c-0.1-0.1-0.1-0.2-0.2-0.4c0,0.2,0.1,0.3,0.1,0.4c0,0.2-0.1,0.3-0.3,0.1c0,0.1,0.1,0.3,0,0.4l-0.1,0.1c-0.2-0.2-0.3-0.5-0.4-0.7
		c0,0.2,0.1,0.3,0.1,0.4c0,0.1-0.1,0.1-0.1,0.1c-0.3-0.2-0.4-0.5-0.6-0.7c-0.4-0.5-0.5-1-0.7-1.6c0-0.1-0.1-0.2-0.1-0.3v-0.1
		c-0.1-0.2-0.1-0.4-0.1-0.5s-0.1-0.2-0.1-0.4c0-0.1,0-0.1-0.1-0.2c-0.1,0-0.2,0-0.4,0c0.2,0.2,0.3,0.3,0.4,0.6
		c0.1,0.8,0.3,1.5,0.4,2.3c0,0.2,0.1,0.4-0.3,0.3c-0.1-0.1-0.2-0.2-0.2-0.3s-0.1-0.2-0.2-0.2c0,0-0.1-0.1-0.1-0.2
		c0-0.1-0.1-0.2-0.2-0.3c-0.1-0.1-0.2-0.2-0.2-0.3s-0.1-0.2-0.1-0.2c0-0.1,0-0.1-0.1-0.1l-0.1-0.1c-0.1-0.1-0.1-0.2-0.1-0.3
		s-0.1-0.2-0.2-0.2c-0.1-0.1-0.2-0.1-0.2-0.2c0-0.1-0.1-0.1-0.2-0.1c-0.1,0,0,0.1,0,0.1c0.3,0.4,0.4,0.9,0.6,1.3V51
		c0,0.2,0.1,0.4,0.2,0.6c0,0.1,0.1,0.3,0.1,0.4c0.1,0.4,0.2,0.8,0.2,1.2c0,0.1-0.1,0.1-0.2,0.1c-0.1,0-0.1,0-0.2-0.1
		c-0.1,0-0.1,0.1-0.2,0.1H54c0-0.1,0-0.1-0.1-0.2c0,0.2,0.1,0.3,0,0.5c0,0,0,0.1-0.1,0.1c-0.1,0.1-0.1,0.1-0.2,0.2h-0.1
		c-0.1-0.1-0.1-0.1-0.1-0.2c0-0.1-0.1,0-0.1,0h-0.1c-0.1-0.2-0.1-0.4-0.2-0.6c0,0.1,0,0.1-0.1,0.2c0,0,0,0.1-0.1,0.1
		c-0.1,0.1,0,0.2-0.1,0.3c0,0.1,0,0.1-0.1,0.1c0,0-0.1,0-0.1,0.1c-0.1,0-0.1,0-0.1,0c-0.1,0-0.1-0.1-0.2-0.1
		c-0.1-0.1-0.1-0.1-0.2-0.2c-0.1-0.1-0.1-0.2-0.1-0.3c-0.1-0.6,0.1-1.2,0.2-1.7c0.1-0.7,0.2-1.4,0.1-2c0-0.2-0.1-0.2-0.2-0.1
		c0-0.8,0-0.7,0-0.6c0,0.1-0.1,0.3-0.1,0.4c0,0.1,0,0.3-0.1,0.4c0,0.1,0,0.2,0,0.3c0,0.2-0.1,0.3-0.1,0.5s-0.1,0.3-0.1,0.5
		c0,0.1-0.1,0.2-0.1,0.3c-0.1,0.3-0.2,0.6-0.4,0.9c-0.4,0.3-0.6,0.7-1,0.9H50c-0.1-0.1-0.1-0.1-0.2,0c-0.1,0-0.1,0-0.1-0.1
		c-0.1-0.1,0-0.2-0.1-0.2l-0.1-0.1c0,0,0,0,0-0.1l0,0c-0.1,0.1-0.1,0.3-0.2,0.2c-0.1-0.1-0.1,0-0.2,0H49c0-0.1,0-0.1,0-0.2
		c0-0.1,0-0.1-0.1,0c-0.1,0-0.1,0-0.2,0c-0.1,0-0.1,0-0.2,0h-0.1c-0.1,0-0.2,0.1-0.3,0s0-0.3,0-0.4C48,52.3,48,52.4,48,52.5h-0.1
		c-0.1,0-0.1-0.1-0.1-0.1s0,0-0.1-0.1h-0.1c0,0-0.1,0.1-0.2,0.1c-0.1,0-0.1,0.1-0.2,0.1h-0.1c-0.1-0.2,0-0.3,0.1-0.4
		c0.2-0.3,0.3-0.6,0.5-0.9c0.1-0.2,0.3-0.4,0.4-0.6c0-0.1,0.1-0.2,0.1-0.2v-0.1c0.1-0.1,0.1-0.1,0.2-0.2l0.1-0.1l0.1-0.1
		c-0.1-0.1-0.1,0-0.2,0c0,0.1-0.1,0.1-0.1,0.2l-0.1,0.1c-0.1,0.1-0.2,0.2-0.3,0.2c0,0-0.1,0-0.1,0.1v0.1c0,0,0,0.1-0.1,0.1
		c-0.1,0.1-0.2,0.2-0.3,0.2c-0.1,0.1-0.2,0.2-0.2,0.3c0,0,0,0-0.1,0.1L47,51.4v0.1c0,0.1-0.1,0.1-0.2,0.1c-0.1,0-0.2,0-0.2-0.1
		c0.1-0.4,0.4-0.7,0.7-1c0.3-0.4,0.5-0.8,0.9-1c0.1,0,0.1-0.2,0-0.3c0,0,0,0-0.1,0s-0.1,0-0.2,0.1c-0.1,0.1-0.1,0.2-0.2,0.3
		c-0.1,0.1-0.2,0.1-0.2,0.2c0,0,0,0.1-0.1,0.1c-0.1,0.1-0.2,0.2-0.3,0.3s-0.2,0.3-0.4,0.4c-0.3,0.4-0.6,0.7-1.1,0.9h-0.1
		c-0.3-0.1-0.5-0.1-0.8,0l0,0c0,0,0,0,0,0.1c-0.1,0.1-0.2,0.2-0.3,0c-0.1-0.1-0.2-0.2-0.1-0.4v-0.1L44.2,51c0-0.1,0-0.2,0.1-0.2
		c0,0,0.1-0.1,0-0.1l-0.1,0.1h-0.1c-0.1,0-0.1-0.1-0.2-0.1l-0.1-0.1c0-0.2,0.1-0.3,0.2-0.4c0.1-0.1,0-0.1-0.1-0.1s-0.1,0-0.1-0.1
		s0.1-0.2,0.1-0.3c-0.2,0.1-0.3,0.4-0.6,0.6c-0.1,0-0.1,0-0.1-0.1c-0.1-0.2-0.2-0.4-0.1-0.6H43c-0.1,0.1-0.1,0.2-0.1,0.2v0.1
		c-0.1,0.1-0.1,0.3-0.2,0.3h-0.1c-0.2-0.1-0.1,0-0.2,0.1c-0.2,0.3-0.2,0.6-0.4,0.8h-0.1c-0.1-0.2,0-0.4,0.1-0.6
		c-0.1,0.1-0.1,0.3-0.2,0.4c-0.1,0.1-0.1,0.3-0.3,0.2c-0.1,0-0.1,0.2-0.2,0.3h-0.1c-0.1-0.1,0-0.3-0.2-0.3c-0.1-0.2,0.1-0.4,0.1-0.6
		c0,0.2-0.3,0.4-0.1,0.6c0.1,0.1,0,0.3,0,0.4c0,0.1-0.1,0.2,0.1,0.3c0,0,0,0,0.1,0.1c0,0.2,0,0.5-0.1,0.7H41c-0.1,0,0-0.3-0.2-0.2
		h-0.1c-0.2,0.1-0.1,0.3-0.2,0.5c-0.1,0.1-0.1,0-0.2,0c-0.1,0-0.2,0.1-0.3,0s-0.1-0.2,0-0.3c0-0.5,0-1-0.1-1.5
		c-0.1-0.3-0.1-0.6,0-0.9c0.1-0.3,0.2-0.7,0.3-1c0-0.1,0-0.2-0.1-0.3c0,0.1-0.1,0.2-0.1,0.3c-0.2,0.2-0.3,0.5-0.4,0.7
		c-0.4,0.7-0.7,1.4-1.1,2.1c-0.1,0.1-0.2,0.3-0.3,0.4c-0.1,0.1-0.2,0.2-0.3,0.2c-0.6-0.2-1.1,0.2-1.7,0.1c-0.1,0-0.2,0-0.3-0.1
		s-0.3,0.1-0.4,0.2c-0.1,0-0.2,0.1-0.3,0s-0.1-0.2-0.2-0.1c-0.1,0.1-0.2,0.2-0.4,0.1c-0.2-0.1-0.6,0.5-1,0.8
		c-0.1,0.1-0.2,0.1-0.3,0.1c-0.1-0.1,0-0.2,0-0.3c0.4-0.7,0.2-0.4-0.3,0.4c-0.2,0.3-0.5,0.6-0.8,0.9c-0.1,0.1-0.3,0.2-0.4,0.1
		c-0.1-0.1,0-0.3,0.1-0.4c0.7-1.3,0.8-1.6,0.2-0.4c-0.6,1.2-1.4,2.2-2.1,3.3c-0.2,0.3-0.5,0.6-0.7,0.8c-0.1,0.1-0.2,0.2-0.4,0.2
		c-0.2,0-0.3,0-0.4-0.1s0-0.2,0.1-0.3c1.4-1.6,0.1-0.1-0.4,0.3c-0.3,0.2-0.4,0.3-0.6,0.1s-0.2-0.4,0-0.7c0.3-0.4,1.2-1.5-0.2,0
		c-0.2,0.2-0.3,0.4-0.5,0.6c-0.2,0.2-0.5,0.2-0.7,0.1C26,58,26,57.8,26.3,57.5c1-1,0.2-0.1-0.4,0.4c-0.1,0.1-0.3,0.2-0.5,0.2
		c-0.1,0-0.3-0.1-0.3-0.2c-0.1-0.1,0-0.2,0.1-0.3c0.2-0.2,0.6-0.5,0,0c-0.2,0.2-0.4,0.3-0.6,0.4c-0.1,0-0.2,0-0.3-0.1
		c-0.1-0.1,0-0.2,0-0.3c0,0,0-0.1,0.1-0.1c1-1.3,1.8-2.7,2.7-4.1C26.9,53.4,26.9,53.4,27,53.3z"/>
	<path fill="#FEFEFE" d="M59.6,54.9c0.9-0.1,1.7-0.4,2.5-0.4c0.3,0,0.6,0,0.9,0.1c-0.8,0.4-1.7,0.5-2.5,0.9c0.1,0.1,0.4,0.2,0.6,0.3
		c0.1,0.1,0.3,0.1,0.3,0.2c0,0.2-0.2,0.2-0.3,0.3c-0.1,0-0.2,0.1-0.3,0.1c-0.1,0.2-0.3,0.1-0.5,0.2c-0.1,0-0.2,0.1-0.3,0.1
		s-0.2,0.1-0.4,0.1c0,0-0.1,0-0.1,0.1h-0.1c-0.1,0-0.2,0-0.3-0.1c0.2,0.1,0.3,0.2,0.4,0.2c0.5,0.4,0.8,0.8,1,1.4
		c0,0.1,0.1,0.3,0.1,0.4v0.1c0,0.3,0,0.5,0,0.8v0.1c-0.1,0.4-0.4,0.7-0.7,1c-0.2,0.1-0.5-0.6-0.2-0.9c0.1-0.1,0.1-0.2,0.2-0.4
		c0.1-0.1,0.1-0.2,0-0.2s-0.1,0-0.2,0.1c-0.3,0.5-0.5,1-0.9,1.4c0,0-0.1,0.1-0.2,0.1c0,0,0,0-0.1,0h0.1c0,0.1-2.5,0-2.6-0.1
		c0-0.1,0-0.1,0.1-0.2c0.1-0.1-0.1-0.1-0.1-0.2c0,0,0,0-0.1-0.1s-0.3,0-0.3-0.2c0,0,0-0.1,0.1-0.1s0.1-0.1,0.2-0.1
		c0.5-0.2,0.5-0.2,0.4-0.7c0-0.2-0.1-0.5-0.1-0.7c0,0.3,0.1,0.6,0.1,0.9c0,0.3-0.1,0.4-0.4,0.4c-0.1,0-0.2,0-0.3-0.1
		s-0.2-0.2-0.3-0.2c-0.6-0.4-0.7-0.4-1,0.2c-0.1,0.2-0.4-0.6-0.2-1c0.1-0.2,0.3-0.2,0.5-0.2c0.3,0.1,0.3,0,0.2-0.3s-0.2-0.5-0.2-0.8
		c-0.1-0.4,0-0.6,0.4-0.6c0.1,0,0.2-0.1,0.2-0.2c0.1-0.4,0.2-0.8,0.3-1.2c0-0.5-0.1-1-0.4-1.5c-0.4-0.5-0.5-1.1-0.1-1.7
		c0.1-0.1,0.1-0.2,0.2-0.3c0.1-0.2,0.1-0.3,0.2-0.5c0,0,0-0.1,0.1-0.1c0,0,0.1,0,0.1-0.1c0.4-0.2,0.6-0.1,0.9,0.2
		c0.5,0.7,0.8,1.5,0.5,2.4c-0.2,0.6,0.1,1,0.4,1.4c0.3,0.4,0.7,0.4,1.1,0.3c0.2-0.1,0.4-0.1,0.5-0.1c-0.3,0-0.6,0.1-0.9,0
		c-0.2-0.1-0.4-0.1-0.3-0.3c0-0.2,0.2-0.2,0.4-0.3c0.3-0.1,0.6-0.1,0.9-0.1C59.3,54.9,59.5,54.8,59.6,54.9z"/>
	<path fill="#FEFEFE" d="M40.7,54.4c0.1,0,0.2,0,0.2,0c0.4-0.2,0.8-0.1,1.2,0s0.1,0.4,0,0.5c0.2,0.1,0.3,0,0.5,0.1
		c0.2,0,0.4,0,0.4,0.2c0.1,0.2-0.1,0.3-0.3,0.4c-0.4,0.3-0.8,0.4-1.3,0.6c-0.3,0-0.5-0.1-0.8-0.1h-0.1C40.4,56,40.4,56,40.3,56
		c-0.2-0.1-0.4-0.1-0.6-0.2c-0.1,0-0.3-0.1-0.3-0.2c0-0.1,0.2-0.2,0.3-0.3c0.2-0.1,0.5-0.2,0.8-0.4c-0.8-0.1-1.5-0.2-2.3-0.3v-0.1
		c0.2-0.1,0.5-0.1,0.8-0.1s0.5,0,0.8,0C40.2,54.4,40.5,54.4,40.7,54.4z"/>
	<path fill="#FEFEFE" d="M41,56.7c0.2-0.2,0.4-0.3,0.6-0.5c1-0.2,1.8-0.9,2.3-1.7c0.2-0.3,0.3-0.5,0.3-0.8c0-0.5,0-0.9,0.2-1.4
		c0.3-0.4,0.6-0.7,1.2-0.7c0.3,0,0.4,0.1,0.4,0.4c0,0.1,0,0.2,0,0.4v0.1c0,0.1-0.1,0.1-0.1,0.2c0,0.4,0.1,0.7,0,1.1
		c-0.1,0.2-0.1,0.3-0.3,0.5c-0.1,0.1-0.2,0.3-0.2,0.5c0,0.1,0,0.2,0,0.3c0,0.6,0,1-0.7,1.3c-0.5,0.2-1,0.7-1.4,1
		c-0.2,0.2-0.4,0.4-0.6,0.7c-0.6,0.7-0.3,1.1,0.5,1.3c0.6,0.2,1.2-0.5,1.1-0.4c-0.5,0.2-0.9,0.3-1.4,0c-0.3-0.2-0.4-0.4-0.1-0.8
		c0.1-0.2,0.3-0.3,0.4-0.5c0.1,0,0,0.1,0.1,0.2c0.2,0,0.3,0,0.5-0.1c0.5-0.3,1-0.5,1.6-0.8s0.8-0.2,0.8,0.5c0,0.6-0.2,1.2-0.5,1.7
		c-0.1,0.1-0.3,0.2,0,0.4c0.1,0.1,0,0.2,0,0.4c-0.1,0.1-0.1,0.1-0.2,0c-0.4,0-0.5-0.2-0.5-0.4s0-0.3,0-0.5c0-0.1,0,0.2,0,0.4
		c0,0.1,0.1,0.2,0,0.4c0,0.1,0,0.1,0,0.1s0.1,0,0.1,0.1c0,0-0.3,0.8-0.3,0.9c-0.1,0.1-0.9-0.1-1.1-0.1c0,0.1,0,0.3-0.1,0.4
		c-0.1,0.1-0.3,0.1-0.4,0c-0.1-0.1-0.1-0.2-0.2-0.3c0-0.1,0-0.3-0.2-0.3s-0.1,0.2-0.1,0.3s-0.1,0.1-0.2,0.1h-0.1c-0.1,0-0.2,0-0.3,0
		H42c-0.1,0-0.2,0-0.3-0.1c-0.2-0.1-0.5-0.1-0.6-0.3v-0.1c0-0.1,0-0.3,0-0.4v-0.1c0-0.1,0.1-0.2,0-0.3c-0.1,0-0.1,0-0.2-0.1v-0.1
		c0-0.1,0-0.1,0.1-0.2c0-0.1,0.1-0.2,0-0.3c-0.2-0.1-0.2,0.1-0.2,0.2c-0.1,0.2-0.1,0.4-0.2,0.6c0,0.1-0.4-0.8-0.4-0.9
		c0-0.2-0.1-0.5,0.1-0.7c0.1-0.2,0.1-0.4,0.2-0.6c0-0.1,0.1-0.2,0.1-0.2c0.1-0.1,0.2-0.2,0.2-0.3C40.7,56.8,40.8,56.7,41,56.7z"/>
	<path fill="#FEFEFE" d="M52.3,60.7C52.4,60.7,52.4,60.8,52.3,60.7c0.2,0.3-0.1,0.4-0.1,0.6c0,0,0,0.1-0.1,0.1H52
		c0,0.1,0.1,0,0.1,0.1v0.1c-0.1,0.1,0,0.2,0.1,0.2c0,0.1-3.5,0.8-3.9,0.5c-0.2-0.1-0.3-0.2-0.5-0.2c-0.1,0-0.1,0.1-0.1,0.2
		c-0.1,0.1-0.5-0.4-0.4-0.4l0,0c0-0.1-0.2-0.2-0.2-0.3c0.1-0.3,0-0.5-0.1-0.8c0,0,0-0.1,0.1-0.1l0,0c0,0-0.1,0-0.1-0.1
		s0-0.2,0.1-0.2c0.2,0.1,0.4,0.1,0.5,0.2c0,0.1,0.1,0.2,0.2,0.2c0.7-0.1,0.6,0.1,0.8-0.8c0.1-0.5,0.4-1,0.5-1.6c0-0.2,0-0.4,0-0.6
		c0-0.1,0-0.3-0.2-0.3c0.2,0.7-0.1,1.3-0.3,2c-0.1,0.3-0.1,0.5-0.2,0.8c-0.1,0.3-0.2,0.4-0.5,0.2c-0.3-0.1-0.5-0.4-0.5-0.7
		c-0.1-0.5-0.3-0.9-0.3-1.4c0-0.1,0-0.1-0.1-0.2c-0.2,0.5-0.6,0.9-1.1,1.1c0-0.1,0.1-0.2,0.1-0.3c0.4-0.6,0.8-1.2,1.3-1.7
		c0.1-0.2,0.3-0.4,0.5-0.5c0.1,0,0.2-0.1,0.3,0s0,0.1,0,0.2c0,0.6-0.3,1.2-0.3,1.8c0,0.1,0,0.2,0.1,0.2s0.1-0.1,0.1-0.2
		c-0.1-0.6,0.2-1.1,0.3-1.7c0-0.2,0.2-0.2,0.3-0.3c0.4-0.2,0.7-0.4,1-0.7c0.4-0.3,0.6-0.7,0.6-1.2c0-0.4,0-0.8,0.1-1.3
		c0.1-0.6,0.4-1,0.9-1.4c0.1-0.1,0.3-0.2,0.3-0.4c0.2-0.2,0.3-0.5,0.4-0.8c0.1-0.1,0.1-0.2,0.1-0.3s0.1-0.3,0.1-0.4
		c0.1-0.2,0.1-0.3,0.1-0.5c0-0.1,0-0.2,0-0.3c0.1-0.2,0.1-0.3,0.1-0.5c0.1-0.1,0.1-0.3,0.1-0.4c0.1-0.1,0.1-0.2,0.2-0.3
		c0.3,0.1,0.1,0.3,0.1,0.4c0,0.1,0,0.1,0,0.2c0,0.1,0,0.2,0,0.2c0,0.1-0.1,0.3-0.1,0.4c0,0.1,0,0.2-0.1,0.3c0,0.1-0.1,0.3-0.1,0.4
		v0.1c-0.1,0.5-0.1,1-0.2,1.5c0.5,0.9,0.2,1.8-0.1,2.7c-0.1,0.1-0.1,0.3-0.2,0.4c-0.1,0-0.1,0-0.1-0.1c0-0.2,0-0.3,0-0.5
		c-0.1,0.2-0.2,0.4-0.2,0.6c0,0.3,0.1,0.7-0.1,1c0,0.1,0,0.1,0.1,0.2c0.2,0.2,0.3,0.5,0.6,0.7c0.3,0.3,0.4,0.6,0.3,0.9
		c0,0.5-0.1,1-0.3,1.5c0,0.1-0.1,0.2,0,0.4c0.2-0.4,0.4-0.9,0.4-1.4c0-0.2,0-0.5,0-0.7s0.1-0.2,0.2-0.1c0.1,0.1,0.2,0.2,0.3,0.3
		c0.4,0.7,0.2,1.8,0.2,1.4c0-0.1,0-0.2-0.1-0.3c-0.1,0-0.1,0.1-0.2,0.2c-0.2,0.5-0.5,1-0.7,1.5C51.8,61,51.6,61,51.4,61
		c-0.2,0-0.3-0.2-0.3-0.3c-0.1-0.5,0-1.1,0.1-1.6c0.1-0.3,0.1-0.6,0.2-0.9c0-0.1,0-0.2-0.1-0.2s-0.1,0.1-0.1,0.1
		c-0.1,0.9-0.4,1.7-0.2,2.6c0,0.2,0.1,0.4,0.3,0.5c0.3,0.1,0.6,0.1,0.8-0.2C52.1,60.9,52.3,60.9,52.3,60.7z"/>
</g>
<g>
	<path opacity="0.2" enable-background="new    " d="M10.4,74.3V25.8c0-12.1,8.2-22.7,19.8-25.8H0v100h30.2
		C18.5,96.9,10.4,86.3,10.4,74.3z"/>
	<path opacity="0.1" fill="#FFFFFF" enable-background="new    " d="M89.6,25.8v48.5c0,12.1-8.2,22.7-19.8,25.8H100V0H69.8
		C81.5,3.1,89.6,13.7,89.6,25.8z"/>
</g>
<g>
	<path fill="#FEFEFE" d="M79.8,63.6c-0.3-0.5-1-2.7-1.1-3.3c0-0.4-0.1-0.8-0.4-1.1C78.2,59.5,76,61,76,61.1c0,0,0,0-0.1,0
		c-0.1,0.1-0.2,0.1-0.3,0.2c0.3,0.4,0,0-0.1,0c-0.1,0.1-1.8,1.2-1.9,1.3c-0.1,0.1-1.1,1.1-1.2,1.3c-0.1,0.1-0.2,0.3-0.1,0.4
		c0,0.2,0.5,1.1,0.5,1.1c-0.1,0-0.1,0.1-0.1,0.2h-0.1c-3,1.6-6.1,2.6-9.3,3.6c-3.3,1-6.7,1.5-10.1,1.8c-1.7,0.2-3.3,0.2-4.9,0.1
		c-1.5-0.1-2.9-0.1-4.4-0.3c-1.1-0.2-2.3-0.4-3.4-0.6c-4.7-0.8-9.1-2.2-13.2-4.5c0,0,0,0,0-0.1c0,0,0.1,0,0.1,0.1
		c0-0.3,0.3-1.4,0.5-1.6c0.1,0,0.1-0.2,0-0.3c-0.3-0.3-0.7-0.6-1.1-0.9c0,0,0,0,0,0c0,0,0-0.1,0-0.1c-0.1-0.1-0.2-0.1-0.3-0.2
		c-0.1-0.1-4.4-2.5-4.6-2.6c-0.1-0.1-0.3-0.1-0.3,0.1c0,0.2-0.1,0.5-0.1,0.7c-0.1,0.9-0.3,1.7-0.9,2.3c-0.2,0.2-0.4,0.5-0.5,0.8
		c-0.2,0.5,1.4,1.3,1.5,1.4c0.3-0.3,0.2-0.3,0.1,0.2c-0.1,0.3-0.2,0.7-0.3,1c-0.3,1-0.3,1.1,0.6,1.8c1.1,0.9,2.3,1.5,3.6,2.2
		c2.3,1.3,4.8,2.1,7.3,3c4.1,1.4,8.3,2.1,12.5,2.4c2.7,0.2,5.4,0.3,8.1,0.1c2.4-0.2,4.6-0.4,6.9-0.9c3.4-0.8,6.8-1.7,10.1-3
		c2.8-1.1,5.5-2.3,8-4.1c0.5-0.3,0.5-0.5,0.4-1c-0.1-0.2-0.1-0.4-0.2-0.6c-0.1-0.4-0.3-0.8-0.3-1.2C78.5,65,80.1,64,79.8,63.6z
		 M27.4,64.1C27.4,64.1,27.4,64.1,27.4,64.1C27.4,64.1,27.4,64.1,27.4,64.1C27.4,64.1,27.4,64.1,27.4,64.1z"/>
	<path d="M35.8,52.7c0,0,0.1,0.1,0.2,0c0.4-0.2,0.9,0.1,1.2-0.3c0.1-0.1,0.2,0,0.3,0c0.3,0.2,0.5,0.1,0.7-0.2
		c0.3-0.5,0.5-0.9,0.8-1.4c0.2-0.4,0.4-0.9,0.7-1.3c0.1-0.2,0.2-0.3,0.3-0.4c0.1-0.1,0.2-0.2,0.3-0.1c0.1,0.1,0.2,0.2,0.2,0.3
		c0,0.3-0.1,0.5-0.2,0.8c-0.2,0.5-0.2,1,0,1.6c0.1,0.3,0.1,0.6,0.1,0.9c0,0.2,0,0.4,0,0.6c0.1,0,0.1,0.1,0.1,0.2
		c0.1,0.2,0.2,0.5,0.4,0.7c0.1,0.2,0.3,0.3,0.1,0.5c-0.1,0-0.1,0-0.2,0c-0.2-0.3-0.4-0.6-0.6-1c-0.1-0.3-0.2-0.6-0.1-1
		c0.1-0.3,0.1-0.5,0-0.8c-0.2-0.6-0.2-1.2,0-1.8c0.1-0.2,0.1-0.5,0.2-0.8c-0.2,0.2-0.3,0.3-0.4,0.5c-0.4,0.8-0.8,1.5-1.2,2.3
		c-0.1,0.2-0.2,0.4-0.4,0.6c-0.2,0.2-0.5,0.3-0.8,0.1c-0.1,0-0.1-0.1-0.2-0.1c-0.3,0.2-0.6,0.2-1,0.2c-0.5,0-1,0.2-1.6,0.2
		c-0.2,0-0.4,0.1-0.5,0.2c-0.3,0.3-0.6,0.7-1.1,0.7c-0.1,0-0.2,0.1-0.2,0.2c-0.2,0.3-0.4,0.5-0.7,0.7C32.1,54.9,32,55,31.9,55
		c-0.4-0.1-0.5,0.2-0.6,0.4c-0.6,0.9-1.1,1.8-1.9,2.6c-0.3,0.4-0.7,0.6-1.2,0.3c-0.1,0-0.1,0-0.2,0c-0.5,0.2-0.6,0.2-0.9-0.3
		c-0.1,0.1-0.2,0.2-0.3,0.3c-0.3,0.2-0.6,0.2-0.9-0.1c-0.1-0.1-0.2-0.1-0.3,0c-0.2,0.2-0.5,0.2-0.7,0c-0.1-0.1-0.2-0.1-0.4,0
		c-0.1,0-0.1,0.1-0.2,0.1c-0.2,0-0.4,0.1-0.6-0.1c-0.1-0.2,0-0.4,0.1-0.6c1-1.3,1.8-2.6,2.7-3.9c0.1-0.1,0.1-0.3,0.3-0.3
		c-0.9,1.5-1.7,2.9-2.7,4.3c-0.1,0.1-0.2,0.2-0.1,0.4c0.1,0.1,0.3,0.1,0.5,0c0.5-0.4,1.8-1.6,0.7-0.4c-0.1,0.1-0.1,0.2,0.1,0.3
		c0.3,0.2,0.4,0,0.6-0.2c1.1-1,0.8-0.8,0.3-0.3c-0.1,0.1-0.2,0.2-0.1,0.4s0.3,0.2,0.5,0.1c0.1-0.1,0.2-0.1,0.2-0.2
		c2-2,1.5-1.4,0.8-0.6c-0.1,0.1-0.2,0.2-0.2,0.3c-0.1,0.2-0.1,0.4,0,0.5c0.2,0.2,0.3,0.1,0.5-0.1c0.3-0.3,2.3-2.3,0.4,0
		c0.3,0.3,0.5,0.1,0.7-0.1c0.4-0.4,0.7-0.8,1-1.3c0.9-1.3,2.7-4.1,1.7-2c0.2,0.1,0.3-0.1,0.5-0.2c0.8-0.6,1.5-1.6,1.1-0.7
		c0.5-0.3,1.3-1.1,1.4-1c0.1,0,0.1,0,0.2,0c0.1-0.1,0.7-0.6,0.4,0C35.5,52.7,35.8,52.6,35.8,52.7z"/>
	<path d="M59.6,54.9C59.5,55,59.4,55,59.3,55c-0.1-0.2,0.1-0.2,0.2-0.3c0.3-0.4,0.5-0.9,0.4-1.5c0-0.1,0-0.2,0.1-0.3
		c0.2-0.1,0-0.3,0-0.5s-0.1-0.4,0.2-0.3c0.1,0,0.1-0.1,0.1-0.2c0-0.4,0.1-0.7,0.2-1c0.1-0.4,0-0.8-0.1-1.2c-0.1-0.6,0-1.2-0.1-1.7
		c0-0.1,0-0.2,0.1-0.2s0.2,0,0.2,0.1c0.1,0.1,0.1,0.3,0.2,0.4c0.3,0.8,0.8,1.6,1.3,2.4c0.1,0.2,0.3,0.4,0.6,0.4
		c-0.1-0.2,0.2-0.1,0.4,0c0.2,0.1,0.4,0.2,0.5,0.1c0.1-0.1-0.1-0.3-0.1-0.4c0-0.1,0.2,0.2,0.4,0.4c0.1,0.1,0.5,0.6,0.7,0.5
		c0.2-0.1,0-0.2,0.1-0.3c0.2,0.1,0.3,0.3,0.5,0.4c0.1,0.1,0.2,0.1,0.3,0c0.1-0.1,0-0.2-0.1-0.3c-0.1-0.2,0-0.2,0.3,0.1
		c0.2,0.2,0.4,0.4,0.8,0.4c0.2,0,0.7,0.8,1,0.9c0.2,0.1,0.4,0.2,0.5,0.5c0.1,0.1,0.2,0.2,0.3,0.3c0.1,0,0.2,0,0.3,0
		c0.1-0.1,0-0.1,0-0.2c-0.3-0.9,0.3,0,1,1.3c0.3,0.6,0.7,1.1,1.2,1.6c0.2,0.3,0.5,0.4,0.8,0.5c0.1,0-2.8-5.7-2.3-4.7
		c0.7,1.3,1.5,2.6,2.5,3.8c0.2,0.2,0.4,0.5,0.6,0.7c0.1,0.1,0.3,0.2,0.4,0.3c0.2,0,0.4,0,0.5-0.2s-0.1-0.3-0.2-0.4
		c-0.3-0.4,0.6,0.4,0.6,0.5c0.2,0.1,0.4,0.3,0.6,0.2s-0.1-0.3,0-0.4c0.2,0.1,0.4,0.2,0.6,0.4c0.1,0.1,0.3,0.1,0.4,0s0-0.2-0.1-0.3
		s-0.1-0.1,0-0.2c0.1-0.1,1.2-0.1,1.1-0.2c-0.6-0.8-1.1-1.5-1.7-2.3c-0.2-0.2-0.3-0.4-0.4-0.6c0.2,0,0.3,0.2,0.4,0.4
		c0.6,0.8,1.2,1.5,1.8,2.3c0.1,0.1,0.2,0.3,0.3,0.4c0.1,0.2,0.1,0.4-0.1,0.5c-0.1,0.1-0.3,0.2-0.5,0.1c-0.2-0.1-0.5-0.3-0.6,0.1
		c0,0-0.1,0.1-0.1,0c-0.6-0.2-1.2,0.4-1.7-0.1c-0.1-0.1-0.2,0-0.2,0c-0.4,0.2-0.7,0.3-1.1,0c-0.1,0-0.1-0.1-0.2-0.1
		C71,57,70.5,56.5,70.1,56c-0.6-0.7-1.1-1.4-1.4-2.2c-0.1-0.2-0.2-0.3-0.4-0.2c-0.3,0.1-0.5-0.1-0.7-0.4c-0.1-0.2-0.3-0.4-0.5-0.5
		c-0.3-0.1-0.5-0.3-0.6-0.6c-0.1-0.2-0.2-0.2-0.3-0.2c-0.4-0.2-0.9,0-1.3-0.3c-0.1,0-0.2,0-0.2,0c-0.2,0.1-0.4,0.1-0.5,0
		c-0.4-0.4-0.9-0.3-1.4-0.4c-0.4,0-0.6-0.3-0.8-0.6c-0.4-0.7-0.8-1.4-1.1-2c-0.1,0-0.1-0.1-0.1-0.2c0,0.1,0,0.2,0,0.3
		c-0.1,0.6,0.1,1.1,0.1,1.7c0,0.2,0,0.4-0.1,0.7c-0.1,0.2-0.1,0.5-0.1,0.8c0,0.2,0.2,0.5-0.2,0.5c0,0-0.1,0.1,0,0.1
		c0.1,0.5-0.2,1-0.3,1.5C60,54.3,59.7,54.6,59.6,54.9z"/>
	<path fill="#010101" d="M54.1,32c0.1-0.1,0.1-0.1,0.2-0.1c0,3.2,0.5,6.3,0.9,9.4c0.7-3.3,1.4-6.6,2.3-9.9c0.2-0.7,0.4-1.4,0.7-2.1
		c0.1-0.4,0.3-0.7,0.6-1c0.1,0,0.1,0,0.1,0.1c-0.5,0.9-0.8,1.9-1.1,2.9c-0.4,1.6-0.8,3.3-1.1,4.9c-0.4,2-0.9,4.1-1.3,6.1
		c0,0.1,0,0.3-0.2,0.2c-0.2-0.7-0.2-1.4-0.3-2.2c-0.2-1.4-0.4-2.9-0.5-4.3C54,34.8,54,33.6,54,32.4C54,32.2,54,32.1,54.1,32z"/>
	<path fill="#090402" d="M48,45.5c-1,1-2,0.9-2.8-0.3c-0.4-0.6-0.6-1.3-0.9-2c-0.4-1-0.7-1.9-1-2.9c0-0.1,0-0.1,0.1-0.1
		c0.6,1.3,1.1,2.6,1.6,3.9c0.2,0.4,0.3,0.8,0.6,1.1c0.6,0.7,1.3,0.9,2.1,0.4C47.9,45.5,47.9,45.5,48,45.5z"/>
	<path fill="#010202" d="M51.8,24.1c-1.7-0.2-3,0.7-3.3,2.5c-0.3,1.2-0.5,2.5-0.6,3.8c0,0.1,0,0.2-0.1,0.3c-0.1-1.4,0.2-2.7,0.4-4
		c0.1-0.6,0.3-1.2,0.6-1.7c0.6-0.9,1.8-1.3,2.8-1.1C51.8,24,51.8,24,51.8,24.1z"/>
	<path fill="#060503" d="M55.3,29.7c0-1,0.2-1.9,0.6-2.7c0-0.1,0.1-0.2,0.1-0.4c0.2-0.2,0.3-0.5,0.7-0.6c-0.4,0.6-0.7,1.1-0.9,1.7
		C55.7,28.2,55.3,29.6,55.3,29.7z"/>
	<path fill="#080804" d="M54.9,25.7c0-0.1,0-0.2,0-0.3c0-0.1,0-0.2,0.1-0.3c0.1-0.2,0.1-0.5,0.4-0.8C55.1,25.2,54.9,26.3,54.9,25.7z
		"/>
	<path fill="#050402" d="M55.6,27.1c0,0.2-0.2,0.4-0.3,0.6c-0.1-0.5,0-1,0.1-1.4c0-0.1,0-0.2,0.1-0.3c0.1-0.3,0.2-0.5,0.4-0.7
		C55.8,25.8,55.6,26.4,55.6,27.1z"/>
	<path fill="#EEB152" d="M61.6,56.7c0,0.1-0.1,0.1-0.2,0.1c-0.1,0-0.2,0-0.4,0c-0.1,0-0.1,0-0.2,0c-0.1,0-0.1,0-0.2-0.1
		c-0.1-0.1-0.2-0.1-0.3-0.2v-0.1c0.1-0.1,0.3,0,0.4-0.1c0.1,0.1,0.3,0.1,0.4,0.2C61.3,56.6,61.5,56.5,61.6,56.7z"/>
	<path fill="#E3A64A" d="M61.6,56.7c-0.1-0.1-0.3-0.1-0.4-0.2c0.1-0.1,0.1-0.1,0.2-0.2c0.2-0.1,0.3,0,0.3,0.2v0.1
		C61.7,56.7,61.7,56.7,61.6,56.7z"/>
	<path fill="#F1D118" d="M54.2,25.7c0-0.1,0.1-0.2,0.1-0.3c0,0.2,0.1,0.3,0,0.4C54.4,25.9,54.1,25.9,54.2,25.7z"/>
	<path d="M54.3,25.2c-0.1-0.2,0-0.4,0.1-0.7C54.4,24.8,54.4,25,54.3,25.2z"/>
	<path fill="#726A14" d="M54.5,25.7c0.1,0.1,0,0.4,0.1,0.5c0,0.1-0.1,0.1-0.1,0c-0.1-0.1-0.1-0.1-0.1-0.2c0,0,0-0.1,0.1-0.1
		C54.5,25.8,54.5,25.8,54.5,25.7z"/>
	<path fill="#764828" d="M40.7,55.9c-0.2,0-0.3,0.2-0.5,0.3c0.1-0.1,0.2-0.2,0.2-0.3C40.5,55.9,40.6,55.8,40.7,55.9z"/>
	<path fill="#FEE963" d="M54.5,25.9V26c0,0.1-0.2-0.2-0.2-0.3C54.4,25.8,54.4,25.9,54.5,25.9z"/>
	<path fill="#01325A" d="M60.6,48.8c0-0.1,0-0.2,0-0.4c0.1,0.1,0.1,0.2,0.1,0.2C60.7,48.7,60.6,48.7,60.6,48.8z"/>
	<path fill="#212E38" d="M58.8,28.4C58.8,28.3,58.7,28.3,58.8,28.4c0-0.2,0-0.3,0.2-0.3C58.9,28.2,58.9,28.3,58.8,28.4z"/>
	<path fill="#012847" d="M54.7,25.4C54.7,25.4,54.6,25.3,54.7,25.4c-0.1-0.1,0-0.3,0-0.2C54.8,25.2,54.7,25.3,54.7,25.4z"/>
	<path fill="#542B14" d="M61.7,56.5c-0.1-0.1-0.2-0.2-0.3-0.2C61.6,56.2,61.7,56.2,61.7,56.5z"/>
	<path fill="#191919" d="M43.3,40.1c0-0.1-0.1-0.2-0.1-0.3C43.3,39.8,43.3,39.9,43.3,40.1L43.3,40.1z"/>
	<path fill="#BE7B1F" d="M55.6,26c0,0.1-0.1,0.2-0.1,0.3c0,0,0-0.1-0.1-0.1C55.4,26.1,55.4,26,55.6,26z"/>
	<path fill="#141414" d="M43.3,40.1L43.3,40.1C43.4,40.1,43.4,40.2,43.3,40.1c0.1,0.1,0.1,0.2,0,0.2C43.3,40.3,43.3,40.2,43.3,40.1z
		"/>
	<path fill="#CEBD52" d="M54.7,26.1c0-0.1,0-0.2,0-0.3c0,0,0,0,0.1-0.1C54.7,25.8,54.7,26,54.7,26.1L54.7,26.1z"/>
	<path fill="#592002" d="M55.1,42.6c0.2-0.3,0.2-0.6,0.2-0.9c0.4-2.2,0.9-4.3,1.4-6.5c0.3-1.2,0.6-2.5,0.9-3.7c0-0.1,0-0.1,0.1-0.2
		c-0.1,0.9-0.4,1.9-0.6,2.8c-0.6,2.8-1.2,5.7-1.8,8.5c-0.1,0.6,0.1,1.1,0.1,1.7c0.1,0.7,0.2,1.4,0,2.1c-0.1,0.5-0.3,0.8-0.8,1.1
		c-0.2,0.1-0.3,0.1-0.5,0.1s-0.4-0.1-0.5-0.3s0-0.4,0.2-0.5s0.1-0.2,0.1-0.3c-0.2-1.1-0.4-2.1-0.6-3.2c-0.4-2.2-1-4.3-1.8-6.3
		c-0.5-1.2-1.1-2.4-1.7-3.7c-0.3-0.7-0.5-1.3-0.6-2.1c-0.1-0.4,0-0.8,0-1.1c0-0.3,0.2-0.3,0.4-0.2c0.2,0.1,0.3,0.1,0.3-0.1
		c0.1-0.4,0.1-0.4,0.5-0.2c0.3-0.4,0.1-0.7-0.1-1c-0.1-0.1-0.2-0.2-0.1-0.3c0.1-0.1,0.2,0.1,0.3,0.1c0.2,0.3,0.3,0.6,0.6,1
		c0-0.3-0.1-0.5-0.2-0.7c0-0.1-0.1-0.2,0-0.2s0.1,0.1,0.2,0.2c0.1,0.4,0.3,0.7,0.5,1.1c0.1,0,0.1,0.1,0.2,0.1
		c0.1,0.1,0.2,0.2,0.3,0.3c0.2,0.1,0.4,0.2,0.6,0c0,0,0.1,0,0.1-0.1c0.1,0,0.1,0,0.2,0c0.1,0.5,0.5,1.7,0.5,1.8
		c-0.1,0.1-0.2-0.1-0.3-0.1c-0.1-0.1-0.5-1.1-1.1-1.1c-0.4,0-0.8-0.4-1.2-0.7c-0.1-0.1-0.1-0.2-0.3-0.2c-0.1,0.6,0.1,1.2,0.2,1.8
		c0.1-0.1,0.1-0.3,0.1-0.4c0-0.2,0.1-0.3,0.3-0.4c0.2,0,0.3,0.1,0.4,0.2c0.2,0.4-0.1,0.8-0.2,0.4l0,0c0,0,0,0,0,0.1
		c0.1,0.4,0.2,1.5-0.2,0.2C51,32,52.1,36,52.4,37.6c0,0.1,0.1,0.3,0.1,0.4v0.1c-0.1,0.1-0.1,0-0.1-0.1c0,0.1,0.1,0.2,0.1,0.3
		c0.5,2.1,1.1,4.1,1.4,6.2c0.1,0.5,0.2,1.1,0.3,1.6c0,0.1,0,0.2,0.1,0.3c0.2,0.3,0.1,0.5-0.1,0.7c-0.1,0.1-0.2,0.2-0.1,0.3
		c0.1,0.1,0.2,0.1,0.3,0.1c0.4-0.1,0.6-0.4,0.7-0.7c0.2-0.5,0.2-1.1,0.1-1.6c-0.1-0.7-0.2-1.4-0.2-2.1C55.1,42.8,55,42.7,55.1,42.6z
		"/>
	<path fill="#1B1208" d="M54.1,50.2c-0.2-0.3-0.3-0.6-0.4-0.9c-0.1-0.2-0.1-0.3-0.3-0.4c-0.1-0.1-0.2-0.1-0.1-0.2
		c0-0.1,0.2-0.1,0.3-0.1s0.3,0,0.2,0.2c0,0-0.1,0-0.1,0.1c0.3,0.4,0.5,0.9,0.7,1.3c0.3,0.5,0.5,1,0.8,1.5c0.1,0.1,0.1,0.2,0.2,0.4
		c0,0.1-0.1,0.2-0.2,0.2c-0.2,0-0.3-0.2-0.4-0.3c-0.2-0.4-0.4-0.8-0.5-1.2C54.2,50.6,54.2,50.4,54.1,50.2z"/>
	<path fill="#A09FA3" d="M52.9,30.1c-0.3,0.3-0.5,0.1-0.8,0c0,0,0-0.1-0.1-0.1c0-0.1-0.1-0.1-0.1-0.1s-0.1,0-0.1-0.1
		c-0.1,0-0.1-0.1-0.1-0.1c0.1-0.1,0-0.2,0-0.3c0-0.1,0-0.1,0-0.2c0.1,0,0.1-0.1,0.2-0.1c0.1,0,0.1,0,0.2-0.1c0.1,0,0.2-0.1,0.3-0.1
		c0.2,0,0.3,0.1,0.4,0.2c0.1,0.1,0.1,0.2,0.2,0.3c0.1,0.3,0,0.4-0.2,0.6C52.8,30,52.8,30,52.9,30.1z"/>
	<path fill="#F3F3F3" d="M56.1,51.2c-0.1,0.2-0.4,0.1-0.4,0.4l0,0c-0.1,0-0.1,0-0.1-0.1c0.1-0.5-0.1-1-0.2-1.5
		c-0.1-0.4-0.1-0.9-0.2-1.3v-0.1c0-0.1,0-0.1,0.1-0.1c0,0,0.1,0,0.1,0.1c0.1,0.1,0.1,0.3,0.1,0.4c0.1,0.1,0,0.3,0.2,0.4v0.1
		c0,0.2,0.1,0.3,0.1,0.5c0.1,0.3,0.2,0.6,0.3,0.9C56.1,50.9,56.2,51,56.1,51.2z"/>
	<path fill="#070706" d="M48.3,49.1c0.2,0.1,0.2,0.2,0.1,0.3c-0.7,0.5-1.1,1.3-1.7,1.9c0,0,0,0,0,0.1s-0.1,0.2-0.2,0.3
		c0.1,0,0.2,0,0.2,0c0.1,0.3-0.1,0.4-0.3,0.5C46,52,46,51.8,46.3,51.4c0.4-0.5,0.7-0.9,1.1-1.4c0.1-0.1,0.2-0.3,0.3-0.4
		C47.9,49.5,48.2,49.4,48.3,49.1z"/>
	<path fill="#070402" d="M47.8,51.2c-0.1,0.1-0.2,0.3-0.3,0.4c-0.4,0.7-0.9,1.2-1.3,1.8l-0.1,0.1c-0.2-0.1-0.1-0.3-0.1-0.4
		c0.4-0.5,0.9-1,1.3-1.5c0.1-0.1,0.2-0.2,0.2-0.3c0.1-0.1,0.2-0.2,0.3-0.4l0.1-0.1c0.1-0.1,0.1-0.2,0.2-0.2h0.1c0,0,0.1,0,0,0.1
		C48,50.8,47.9,51.1,47.8,51.2z"/>
	<path fill="#0A0907" d="M52.2,52.6c-0.1-0.1-0.2-0.2-0.2-0.3c-0.1-0.3,0-0.5,0-0.8c0.1-0.6,0.2-1.2,0.3-1.8c0-0.1,0.1-0.2,0.1-0.4
		l0,0h-0.1c0,0,0-0.1-0.1-0.1c0-0.1,0-0.1,0-0.2c0.1-0.1,0-0.3,0.2-0.4c0.2,0.9,0,1.7-0.1,2.6C52.2,51.6,52.2,52.1,52.2,52.6z"/>
	<path fill="#0A0908" d="M54.6,52.6L54.6,52.6c-0.1-0.5-0.2-1-0.3-1.4c0-0.1,0-0.1,0.1-0.1c0.1,0.1,0.1,0.3,0.2,0.5
		c0.1,0.4,0.2,0.8,0.3,1.3l0,0c-0.1-0.3,0-0.5,0.3-0.5l0,0c-0.4,0.6-0.3,1.1,0.1,1.6c-0.2,0-0.3-0.2-0.3-0.3
		c-0.1-0.2-0.2-0.5-0.4-0.8C54.6,52.9,54.7,52.7,54.6,52.6z"/>
	<path fill="#5E280B" d="M72.7,54.5c-0.8-0.9-1.5-1.9-2.1-2.9c0,0,0.1,0,0.1-0.1C71.4,52.5,72.1,53.5,72.7,54.5
		C72.8,54.5,72.8,54.5,72.7,54.5z"/>
	<path fill="#EF9730" d="M47.5,51.3c-0.4,0.6-1,1.2-1.5,1.8c-0.1,0-0.1,0-0.1-0.1v-0.1c0-0.1,0.1-0.2,0.1-0.3
		c0.1-0.1,0.2-0.3,0.4-0.3c0.1-0.1,0.4-0.2,0.3-0.4c0-0.2,0.1-0.2,0.2-0.3c0-0.1,0.1-0.1,0.1-0.2c0,0,0.1,0,0.1-0.1l0,0
		c0,0,0,0,0.1,0c0,0,0-0.1,0.1-0.1c0-0.1,0.1-0.1,0.2-0.1C47.5,51.1,47.5,51.2,47.5,51.3z"/>
	<path fill="#090908" d="M55.2,48.5c0.2,0.8,0.3,1.6,0.5,2.4c0,0.1,0.1,0.3-0.1,0.4c0,0.1-0.1,0.1-0.1,0.1c-0.1,0-0.2,0-0.2-0.1
		v-0.1c0-0.1,0-0.2,0.1-0.2c0.3,0.2,0.2,0,0.2-0.1c-0.1-0.7-0.2-1.4-0.3-2c0-0.1,0-0.2,0-0.3C55.1,48.6,55,48.6,55.2,48.5z"/>
	<path fill="#F89B30" d="M55.4,51.5c0-0.1,0.1-0.1,0.2-0.1l0.1,0.1c0,0,0,0,0,0.1c-0.1,0.1-0.2,0.3-0.2,0.4c0,0,0,0.1-0.1,0.1
		c-0.4-0.6-0.7-1.2-1-1.9c0-0.1-0.1-0.2,0.1-0.2c0.1,0.1,0.2,0.2,0.2,0.3c0.1,0.1,0.1,0.1,0.1,0.2c0,0.1,0.1,0.2,0.2,0.3
		c0,0,0.1,0.1,0.1,0.2c0.1,0.1,0.1,0.3,0.2,0.4c0,0,0,0,0,0.1C55.3,51.6,55.3,51.6,55.4,51.5z"/>
	<path fill="#A3A1A3" d="M52,29c-0.1,0.1-0.1,0-0.2,0c0.2-0.4,0.5-0.4,0.9-0.3c0.1,0.2,0.2,0.4,0.4,0.7l0,0l0,0c0,0.2,0,0.4,0,0.5
		C53,30,53,30,52.9,30c0-0.3,0-0.6-0.2-0.9c-0.1-0.1-0.1-0.2-0.2-0.2C52.4,28.8,52.2,28.8,52,29z"/>
	<path fill="#DC8F35" d="M54.5,50c-0.1,0-0.1,0.1-0.1,0.2c-0.3-0.5-0.5-1.1-0.9-1.5c0.1-0.1,0.2,0,0.3,0s0.1,0.2,0.2,0.2
		c0.1,0.1,0.1,0.2,0.2,0.3c0.1,0.1,0.2,0.1,0.1,0.3v0.1c0,0,0,0,0.1,0c0,0,0,0,0.1,0C54.4,49.8,54.4,49.9,54.5,50z"/>
	<path fill="#612C10" d="M36.7,52.4"/>
	<path fill="#653115" d="M72.7,54.5C72.8,54.5,72.8,54.5,72.7,54.5c0.5,0.4,0.8,0.9,1.1,1.5C73.4,55.6,73.1,55,72.7,54.5z"/>
	<path fill="#101010" d="M56.1,51.2c-0.2-0.4-0.4-0.9-0.4-1.3c0-0.1-0.1-0.1,0.1-0.1c0.2,0.6,0.4,1.1,0.7,1.6
		C56.3,51.4,56.2,51.3,56.1,51.2z"/>
	<path fill="#131314" d="M46,51.6c-0.1,0-0.2,0-0.2-0.1c0.4-0.2,0.7-0.6,1.1-0.9c0,0,0.1,0,0.1,0.1C46.7,51,46.4,51.3,46,51.6z"/>
	<path fill="#F1F1F1" d="M40.8,53.4c0,0.2,0.1,0.4-0.1,0.6c-0.2-0.2-0.3-0.4-0.4-0.7c0.1-0.1,0.1-0.3,0.2-0.3c0,0,0,0.1,0.1,0.1
		C40.8,53.1,40.6,53.3,40.8,53.4z"/>
	<path fill="#E4E4E4" d="M48.3,49.1c0.1,0.1,0,0.3-0.1,0.3c-0.2,0-0.3,0.2-0.4,0.3c-0.1,0-0.1,0-0.1-0.1s0.1-0.1,0.2-0.2
		c0-0.1,0.1-0.2,0.2-0.2C48.1,49.1,48.2,49,48.3,49.1L48.3,49.1z"/>
	<path fill="#0E0D0B" d="M55.2,48.5c0,0.1,0,0.1-0.1,0.2c-0.1-0.1,0-0.2-0.2-0.3c-0.1-0.1-0.3-0.1-0.2-0.3C54.8,48,55,48,55.1,48
		s0.1,0.1,0.1,0.1c0,0.1,0,0.1-0.1,0.1C55,48.3,55.2,48.4,55.2,48.5L55.2,48.5z"/>
	<path fill="#0D0D0D" d="M51.1,52.2C51,52.2,51,52.2,51.1,52.2c0-0.4,0.2-0.7,0.3-0.9c0.1,0,0.1,0,0.1,0.1
		C51.5,51.7,51.4,52,51.1,52.2z"/>
	<path fill="#A6A5A9" d="M59.5,53.7c0-0.1,0-0.2-0.1-0.3c-0.1-0.2-0.1-0.4-0.2-0.6c0-0.1,0.1-0.1,0.2-0.1l0,0
		c0.1,0.2,0.1,0.4,0.2,0.7C59.6,53.6,59.7,53.7,59.5,53.7z"/>
	<path fill="#E3E1E0" d="M46.9,51.5c0,0.1-0.1,0.2-0.2,0.3c-0.1,0.1-0.2,0.1-0.4,0.1c0.1-0.2,0.2-0.3,0.4-0.4
		C46.8,51.5,46.8,51.5,46.9,51.5z"/>
	<path fill="#EC9C40" d="M48.3,50.4L48.3,50.4c-0.1,0.1-0.1,0.1-0.2,0.2l0,0c-0.1,0-0.1,0-0.2,0v-0.1c0.1-0.1,0.2-0.2,0.3-0.3
		C48.3,50.2,48.3,50.3,48.3,50.4z"/>
	<path fill="#1F1F1F" d="M48.4,49.9c0-0.2,0.1-0.2,0.2-0.2c0.1,0,0.2,0.1,0.2,0.1c0,0.1-0.1,0.2-0.3,0.2
		C48.5,50,48.4,49.9,48.4,49.9z"/>
	<path fill="#D5D5D5" d="M47.7,49.7C47.7,49.7,47.8,49.7,47.7,49.7c0,0.2-0.1,0.3-0.2,0.4c-0.1,0-0.1,0-0.1-0.1s0.1-0.1,0.2-0.2
		L47.7,49.7C47.6,49.6,47.7,49.6,47.7,49.7z"/>
	<path fill="#604628" d="M47.9,50.8L47.9,50.8c-0.2,0.1-0.3,0.3-0.4,0.2v-0.1c0.1-0.1,0.1-0.3,0.3-0.3
		C47.9,50.7,47.9,50.7,47.9,50.8z"/>
	<path fill="#3F2E1A" d="M55.3,51.4c-0.1-0.1-0.2-0.2-0.2-0.4c0,0,0-0.1,0.1-0.1c0.1,0.1,0.1,0.2,0.2,0.3
		C55.2,51.3,55.3,51.4,55.3,51.4z"/>
	<path fill="#1E1E1E" d="M52.4,48.6c-0.1,0.1,0,0.3-0.1,0.4c-0.1-0.1-0.1-0.3-0.2-0.4c0,0,0,0,0-0.1C52.2,48.5,52.3,48.4,52.4,48.6z
		"/>
	<path fill="#3F3F3F" d="M51.6,50.5c0-0.1,0-0.3,0.1-0.4c0.1,0,0.1,0,0.1,0.1c0,0.2,0,0.4-0.1,0.5C51.6,50.6,51.7,50.5,51.6,50.5z"
		/>
	<path fill="#121212" d="M51.6,50.5c0,0.1,0,0.1,0.1,0.2c0.1,0.2,0.1,0.3-0.1,0.4c-0.1,0-0.1,0-0.1-0.1
		C51.6,50.8,51.6,50.6,51.6,50.5z"/>
	<path fill="#A09FA3" d="M40.6,51.4c0.1,0.2,0,0.3-0.1,0.5C40.4,51.7,40.5,51.6,40.6,51.4z"/>
	<path fill="#BC7624" d="M47.9,50.8c-0.1-0.1-0.1-0.1-0.1-0.2l0,0v-0.1c0,0,0,0,0.1,0c0,0,0.1,0,0.1,0.1C48,50.6,48,50.7,47.9,50.8z
		"/>
	<path fill="#A96A21" d="M54.1,50.2c0.2,0.1,0.2,0.3,0.3,0.5c0,0.1,0,0.1-0.1,0.1c0,0-0.1,0-0.1-0.1C54.2,50.5,54.1,50.4,54.1,50.2
		L54.1,50.2z"/>
	<path fill="#D4872D" d="M48.4,49.9c0.1,0,0.1-0.1,0.2,0c0,0.1-0.1,0.1-0.1,0.2l-0.1,0.1c-0.1,0-0.1,0-0.2-0.1
		C48.3,49.9,48.3,49.9,48.4,49.9z"/>
	<path fill="#554738" d="M47.5,50.9L47.5,50.9c0,0.2,0,0.2-0.1,0.3l-0.1,0.1c0,0,0,0-0.1,0l0,0C47.2,51.1,47.3,50.9,47.5,50.9z"/>
	<path fill="#ECA616" d="M52.5,27.6C52.5,27.6,52.5,27.5,52.5,27.6c0.1,0,0.2,0.1,0.2,0.2c-0.1,0.1-0.1,0.1-0.1,0.2
		C52.6,28,52.6,27.8,52.5,27.6z"/>
	<path fill="#AAA9AC" d="M40.6,52.9c-0.1,0.1,0,0.3-0.2,0.3c-0.1,0-0.1-0.1,0-0.1C40.5,53.1,40.4,52.8,40.6,52.9z"/>
	<path d="M55.6,49.2c-0.2-0.1-0.1-0.3-0.2-0.4c0-0.1-0.1-0.1,0.1-0.1C55.5,48.9,55.5,49.1,55.6,49.2z"/>
	<path d="M51.8,49.3c0-0.2,0.1-0.3,0.1-0.5c0.1,0,0.1,0,0.1,0.1S52.1,49.2,51.8,49.3C51.9,49.4,51.9,49.4,51.8,49.3z"/>
	<path fill="#B07229" d="M48.3,50c0.1,0,0.1,0.1,0.2,0.1c0,0.1,0,0.2-0.1,0.2C48.2,50.3,48.2,50.2,48.3,50
		C48.2,50.1,48.2,50,48.3,50z"/>
	<path fill="#1C1C1C" d="M46.9,50.6L46.9,50.6c0-0.2,0.1-0.3,0.3-0.4l0,0C47.2,50.4,47.2,50.6,46.9,50.6z"/>
	<path fill="#2A1F13" d="M54.1,50.2c0.1,0.2,0.2,0.3,0.2,0.5v0.1C54.2,50.6,54,50.5,54.1,50.2z"/>
	<path fill="#E8E8E9" d="M59.3,53.8c0.1,0.1,0,0.3,0.1,0.4l-0.1,0.1C59.3,54.1,59.2,54,59.3,53.8z"/>
	<path fill="#CFCFD1" d="M59.3,52.9c0.1,0.2,0.2,0.4,0.2,0.6C59.3,53.3,59.3,53.1,59.3,52.9C59.2,52.9,59.3,52.9,59.3,52.9z"/>
	<path fill="#F4F4F5" d="M52.4,53c0,0.1,0,0.2,0,0.4c0,0,0,0-0.1,0c0-0.2-0.1-0.3-0.1-0.5C52.3,52.9,52.3,53,52.4,53z"/>
	<path d="M54.2,50.8L54.2,50.8C54.3,50.7,54.3,50.7,54.2,50.8c0.2,0,0.3,0.2,0.2,0.3c0,0,0,0.1-0.1,0.1C54.3,51.1,54.2,51,54.2,50.8
		z"/>
	<path fill="#151515" d="M47.6,49.8c0,0.1-0.1,0.2-0.1,0.3s-0.1,0.2-0.2,0.1l0,0C47.3,50,47.3,49.8,47.6,49.8z"/>
	<path fill="#3F3F3F" d="M55.7,49.7C55.7,49.7,55.7,49.8,55.7,49.7c-0.2-0.1-0.3-0.2-0.2-0.4C55.7,49.4,55.7,49.6,55.7,49.7z"/>
	<path fill="#434343" d="M55.4,48.7C55.4,48.7,55.4,48.8,55.4,48.7c-0.1,0-0.2-0.1-0.2-0.3c0,0,0-0.1,0.1-0.2
		C55.4,48.4,55.4,48.6,55.4,48.7z"/>
	<g>
		<path fill="#FEDC00" d="M54.6,25.3c-0.1,0.2-0.1,0.3-0.1,0.4c0.1,0.1-0.1,0.4,0.1,0.5c0.1,0,0.1-0.1,0.1-0.1c0-0.1,0-0.2,0-0.3
			c0,0,0-0.1,0-0.1c0-0.1,0-0.2,0-0.3C54.7,25.3,54.7,25.3,54.6,25.3z"/>
		<path fill="#FEDC00" d="M54.7,25.7L54.7,25.7c0.2-0.1,0.2-0.2,0.2-0.3C54.8,25.5,54.7,25.5,54.7,25.7z"/>
		<path fill="#FEDC00" d="M54.9,25.4c0.1-0.1,0.1-0.2,0.1-0.3C54.8,25.2,54.8,25.3,54.9,25.4z"/>
		<path fill="#FEDC00" d="M52.9,27.8C52.9,27.7,52.9,27.7,52.9,27.8C52.9,27.7,52.9,27.8,52.9,27.8C52.9,27.8,52.9,27.8,52.9,27.8z"
			/>
		<path fill="#FEDC00" d="M52.9,27.8C52.9,27.8,52.9,27.8,52.9,27.8C52.9,27.8,52.9,27.8,52.9,27.8c0-0.1-0.1-0.2-0.1-0.2
			c-0.1-0.1-0.1-0.5-0.3-0.4c-0.3,0.1,0.1,0.3,0.1,0.5c0.1,0,0.1,0.2,0.2,0.2C52.8,28,52.9,27.8,52.9,27.8z"/>
		<path fill="#FEDC00" d="M53.5,26.2c0,0.2,0.1,0.3,0.1,0.2C53.5,26.4,53.6,26.3,53.5,26.2z"/>
	</g>
	<path fill="#632E13" d="M67.2,52c0.1,0.1,0.2,0.2,0.1,0.4C67.2,52.3,67.2,52.2,67.2,52C67.1,52,67.1,52,67.2,52z"/>
	<path fill="#FCE3C5" d="M54.9,50.9c-0.2,0-0.2-0.2-0.2-0.3c0.1,0,0.1,0,0.1,0.1c0,0,0,0,0.1,0.1C54.9,50.8,55,50.8,54.9,50.9z"/>
	<path d="M54.9,50.9c0-0.1-0.1-0.1,0-0.2C55,50.8,55,50.8,54.9,50.9C55,50.9,55,51,54.9,50.9C55,51,55,50.9,54.9,50.9z"/>
	<path fill="#383838" d="M51.5,50.9C51.6,51,51.6,51,51.5,50.9c0.2,0.2,0.1,0.3,0,0.4c0,0,0-0.1-0.1-0.1
		C51.5,51.1,51.5,51,51.5,50.9z"/>
	<path d="M51.8,49.3C51.9,49.3,51.9,49.3,51.8,49.3c0.2,0.2,0.2,0.3,0.1,0.5c-0.1,0-0.1,0-0.1-0.1C51.8,49.6,51.8,49.5,51.8,49.3z"
		/>
	<path fill="#584632" d="M54.9,50.6C54.9,50.6,54.8,50.6,54.9,50.6c-0.1-0.2-0.1-0.3-0.2-0.3C54.9,50.3,54.9,50.5,54.9,50.6z"/>
	<path fill="#FEF6C5" d="M52.9,27.5c0,0.1,0,0.3,0,0.2C52.9,27.6,52.9,27.6,52.9,27.5z"/>
	<path fill="#FBFBFB" d="M47.1,53c0-0.1,0-0.3,0.1-0.4c0,0,0,0,0.1,0C47.2,52.7,47.1,52.8,47.1,53L47.1,53z"/>
	<path fill="#A7A6AA" d="M59.8,52.6C59.8,52.7,59.8,52.7,59.8,52.6c-0.1,0.1-0.1,0-0.2,0c0-0.1,0-0.1,0-0.1
		C59.8,52.5,59.8,52.6,59.8,52.6z"/>
	<path fill="#663318" d="M67,51.8"/>
	<path fill="#7A654E" d="M54.1,49.3C54,49.2,54,49.1,54,49C54.1,49,54.2,49.1,54.1,49.3z"/>
	<path d="M48.3,49.1c-0.1-0.1-0.2,0-0.3,0.1c0-0.1,0.1-0.2,0.2-0.2C48.4,49,48.4,49,48.3,49.1z"/>
	<path fill="#FEEF91" d="M53.8,26.2C53.8,26.1,53.9,26.1,53.8,26.2C54,26.2,53.9,26.2,53.8,26.2z"/>
	<path fill="#1D170F" d="M55.3,48.3c0,0.1,0,0.1-0.1,0.2l0,0c0-0.1-0.1-0.1-0.1-0.2C55.1,48.3,55.1,48.3,55.3,48.3
		C55.3,48.2,55.3,48.2,55.3,48.3z"/>
	<path fill="#581F01" d="M67,51.8C67.1,51.8,67.1,51.8,67,51.8C67.1,51.8,67.1,51.9,67,51.8c0.1,0.1,0.1,0.1,0,0.2
		C67.1,52,67.1,51.9,67,51.8z"/>
	<path fill="#1B1B1B" d="M47.7,49.7L47.7,49.7c0-0.1,0-0.2,0.2-0.2C47.8,49.5,47.8,49.6,47.7,49.7z"/>
	<path fill="#764932" d="M51.7,29.1c0.1,0.1,0.1,0.1,0,0.2C51.6,29.3,51.6,29.2,51.7,29.1z"/>
	<path d="M52,48.9C52,48.9,51.9,48.9,52,48.9c0-0.2,0-0.3,0.1-0.3h0.1C52.1,48.8,52.1,48.9,52,48.9z"/>
	<path fill="#31271B" d="M48.1,50.5c0-0.1,0.1-0.2,0.2-0.2C48.3,50.5,48.2,50.6,48.1,50.5C48.1,50.6,48.1,50.6,48.1,50.5z"/>
	<path d="M51.8,49.8L51.8,49.8c0.1,0.2,0.1,0.3,0,0.3c0,0,0-0.1-0.1-0.1C51.8,49.9,51.8,49.8,51.8,49.8z"/>
	<path fill="#FEFEFE" d="M54.3,49.7C54.3,49.7,54.1,49.7,54.3,49.7C54.3,49.6,54.3,49.6,54.3,49.7C54.3,49.6,54.3,49.7,54.3,49.7
		L54.3,49.7z"/>
	<path d="M47.9,50.5L47.9,50.5L47.9,50.5C47.8,50.4,47.9,50.4,47.9,50.5C47.9,50.4,47.9,50.4,47.9,50.5z"/>
	<path d="M54.3,49.7C54.3,49.7,54.3,49.6,54.3,49.7C54.4,49.6,54.4,49.7,54.3,49.7C54.4,49.7,54.3,49.7,54.3,49.7L54.3,49.7
		L54.3,49.7z"/>
	<path d="M47.8,50.5L47.8,50.5L47.8,50.5C47.8,50.5,47.7,50.5,47.8,50.5z"/>
	<path d="M47.1,51.3C47,51.3,47.1,51.3,47.1,51.3C47.2,51.3,47.2,51.3,47.1,51.3L47.1,51.3L47.1,51.3z"/>
	<path fill="#C1C1C1" d="M47.1,51.3L47.1,51.3C47.1,51.2,47.2,51.2,47.1,51.3C47.2,51.2,47.2,51.2,47.1,51.3
		C47.2,51.3,47.2,51.3,47.1,51.3C47.2,51.3,47.2,51.3,47.1,51.3z"/>
	<path fill="#C1C1C1" d="M47.1,51.3L47.1,51.3C47.1,51.4,47.1,51.4,47.1,51.3C47,51.4,47.1,51.3,47.1,51.3z"/>
	<path fill="#03457C" d="M32.3,71.5c-0.6,0-1.1-0.4-1-0.9c0-0.6,0.4-0.9,0.9-0.9c0.6,0,1,0.4,1,0.9C33.1,71.2,32.8,71.5,32.3,71.5z"
		/>
	<path fill="#03457B" d="M56.6,74.1c-0.6,0-0.9-0.3-0.9-0.9c0-0.5,0.4-0.9,1-0.9c0.5,0,0.9,0.4,0.9,0.9
		C57.6,73.8,57.2,74.1,56.6,74.1z"/>
	<path fill="#03457B" d="M64.5,70.6c0.5,0,0.8,0.3,0.8,0.7c0.1,0.5-0.1,0.8-0.6,1c-0.3,0.1-0.6,0.3-0.8,0.2
		c-0.3-0.1-0.2-0.4-0.3-0.7c-0.1-0.2-0.1-0.5-0.2-0.7c-0.2-0.3,0-0.3,0.2-0.4C63.9,70.7,64.2,70.5,64.5,70.6z"/>
	<path fill="#05477D" d="M69.1,70c-0.1-0.4-0.3-0.7-0.3-1h0.1c0.2,0.5,0.4,1.1,0.6,1.7c-0.6-0.3-1-0.6-1.6-0.8
		c0.1,0.5,0.3,0.8,0.4,1.3c-0.2,0-0.2-0.2-0.2-0.3c-0.1-0.3-0.3-0.7-0.4-1c0-0.1-0.2-0.2,0-0.3c0.1-0.1,0.3-0.1,0.4,0
		C68.4,69.6,68.8,69.8,69.1,70z"/>
	<path fill="#05467C" d="M29,70.4c-0.2-0.6-0.3-1.2-0.5-1.8c-0.2,0.4-0.4,0.8-0.6,1.2c-0.2-0.1,0-0.2,0-0.3c0.2-0.4,0.3-0.7,0.5-1.1
		c0.1-0.1,0-0.3,0.2-0.3s0.2,0.2,0.3,0.3c0.1,0.4,0.2,0.7,0.3,1.1c0.2-0.3,0.3-0.7,0.5-0.9h0.1C29.6,69.3,29.3,69.8,29,70.4z"/>
	<path fill="#05467C" d="M34.6,72.5c-0.2-0.6-0.4-1.1-0.7-1.7c-0.2,0.4-0.3,0.8-0.5,1.2c-0.1-0.1-0.1-0.1-0.1-0.2
		c0.2-0.4,0.3-0.8,0.5-1.3c0-0.1,0-0.2,0.2-0.2c0.1,0,0.2,0.1,0.3,0.2c0.1,0.3,0.2,0.6,0.4,1c0,0.1,0,0.1,0.1,0.2
		c0.2-0.3,0.2-0.7,0.5-0.9C35,71.4,34.8,71.9,34.6,72.5z"/>
	<path fill="#05467C" d="M43.1,72.8c-0.1-0.3-0.4-0.4-0.7-0.4c-0.1,0-0.2,0-0.3,0.1c0,0.1,0.1,0.2,0.2,0.3c0.1,0.1,0.3,0.2,0.4,0.3
		c0.2,0.2,0.5,0.3,0.4,0.6C42.9,74,42.6,74,42.3,74c-0.4,0-0.7-0.2-0.7-0.6c0.2,0.2,0.4,0.4,0.6,0.4c0.2,0,0.4,0,0.4-0.2
		c0.1-0.2-0.1-0.2-0.2-0.3c-0.2-0.1-0.4-0.3-0.6-0.4c-0.3-0.2-0.2-0.5,0.1-0.6c0.3-0.2,0.7-0.1,1,0.1C43.1,72.4,43.1,72.6,43.1,72.8
		z"/>
	<path fill="#05477D" d="M59.5,72.9c0-0.4-0.1-0.7-0.1-1.1c0.2,0.5,0.2,1.1,0.4,1.8c-0.5-0.4-0.9-0.8-1.4-1.2c0,0.5,0.2,0.9,0.1,1.3
		c-0.2-0.4-0.2-0.8-0.3-1.2v-0.1c0-0.1-0.2-0.3,0-0.4s0.3,0,0.4,0.2C58.9,72.5,59.2,72.7,59.5,72.9z"/>
	<path fill="#05477D" d="M48.4,74.3c-0.3,0.3-0.9,0.4-1.2,0.1c-0.3-0.2-0.4-0.6-0.3-1c0.1-0.4,0.5-0.6,0.9-0.6c0.2,0,0.6,0,0.6,0.4
		c-0.3-0.3-0.6-0.4-0.9-0.1c-0.2,0.2-0.2,0.8-0.1,1C47.5,74.4,47.8,74.5,48.4,74.3z"/>
	<path fill="#05467C" d="M71.6,69.6c-0.3,0.4-0.8,0.6-1.2,0.4c-0.3-0.1-0.6-0.6-0.5-1s0.5-0.8,0.9-0.8c0.2,0,0.2,0,0.4,0.3
		c-0.3-0.2-0.6-0.2-0.8,0.1c-0.2,0.2,0,0.8,0.2,1s0.5,0.2,0.8,0C71.4,69.6,71.5,69.6,71.6,69.6C71.6,69.5,71.6,69.5,71.6,69.6z"/>
	<path fill="#05467C" d="M73.4,68.9c-0.7,0.5-0.7,0.5-1.1-0.3c-0.1-0.2-0.3-0.5-0.4-0.7c-0.1-0.1-0.1-0.1,0-0.2
		c0.3-0.1,0.5-0.3,0.8-0.4c0.1-0.1,0.2,0,0.3,0.1c-0.3,0-0.6,0-0.7,0.3c0,0.1,0.1,0.4,0.3,0.4c0.1,0.1,0.3-0.2,0.5-0.1
		c-0.1,0.2-0.4,0.2-0.4,0.3c0,0.2,0.1,0.3,0.2,0.5C73,69.2,73.1,68.8,73.4,68.9C73.4,68.8,73.4,68.9,73.4,68.9z"/>
	<path fill="#06487D" d="M50,73.7c-0.5-0.1-0.6,0.1-0.5,0.5c0.1,0.5,0.5,0.1,0.8,0.3c-0.4,0.1-0.8,0-1.2,0c-0.1,0-0.1-0.1-0.1-0.2
		c0-0.5,0-0.9,0-1.4c0-0.1,0-0.2,0.2-0.2c0.3,0,0.6,0,0.9,0c0.2,0,0.2,0.1,0.2,0.3c-0.2-0.2-0.5-0.3-0.7-0.2
		c-0.2,0.1-0.1,0.3-0.1,0.5C49.5,73.7,49.9,73.5,50,73.7z"/>
	<path fill="#04467C" d="M54.8,74.3c-0.8,0.3-1.4-0.1-1.4-0.9c0.1-0.7,0.8-0.9,1.4-0.7c0.1,0,0.1,0.1,0.1,0.3
		c-0.1,0-0.1-0.1-0.2-0.1c-0.2-0.2-0.4-0.2-0.7,0c-0.2,0.2-0.3,0.7-0.2,1s0.3,0.4,0.6,0.4C54.6,74.2,54.7,74.2,54.8,74.3
		C54.8,74.2,54.8,74.2,54.8,74.3z"/>
	<path fill="#04467C" d="M66.5,69.9c-0.4,0.2-0.4,0.2-0.3,0.6c0.2,0.4,0.4,0,0.6,0.1c0,0.1,0,0.1-0.1,0.1c-0.3,0.1-0.4,0.2-0.3,0.5
		s0.2,0.3,0.4,0.2c0.1,0,0.1-0.1,0.1,0.1c-0.8,0.3-0.8,0.3-1-0.5c-0.1-0.3-0.2-0.5-0.3-0.8c-0.1-0.1,0-0.2,0.1-0.2
		c0.2-0.1,0.4-0.1,0.6-0.2C66.5,69.8,66.5,69.8,66.5,69.9z"/>
	<path fill="#06477D" d="M37.8,72.7c-0.1,0.2,0,0.4,0.2,0.4c0.2,0.1,0.3-0.1,0.4-0.3c0.1-0.3,0.2-0.6,0.3-0.9c0-0.2,0.1-0.3,0.3-0.2
		c0.2,0.1,0.1,0.2,0,0.3c-0.1,0.3-0.2,0.7-0.3,1s-0.5,0.4-0.9,0.2c-0.2-0.1-0.4-0.3-0.3-0.5c0-0.1,0-0.3,0.2-0.2
		C37.9,72.5,37.8,72.7,37.8,72.7z"/>
	<path fill="#05477D" d="M61.1,71.6c-0.2,0-0.3,0.1-0.3,0.3c0,0.5,0.4,0.3,0.6,0.3c0,0.1,0,0.1,0,0.1C61,72.5,61,72.5,61.1,73
		c0,0.1,0.2,0.3-0.1,0.3c-0.2,0-0.3,0-0.3-0.2c-0.1-0.4-0.1-0.8-0.3-1.2c-0.1-0.2,0-0.3,0.2-0.3C60.8,71.6,60.9,71.6,61.1,71.6
		C61.1,71.5,61.1,71.6,61.1,71.6z"/>
	<path fill="#06487D" d="M45.3,72.6C45.2,72.7,45.2,72.7,45.3,72.6c-0.3,0.2-0.5,0-0.6,0.2c-0.1,0.1-0.1,0.3-0.1,0.5
		c0,0.3-0.1,0.5-0.1,0.8c0,0.2-0.1,0.2-0.2,0.2c-0.2,0-0.2-0.1-0.1-0.2c0-0.4,0.1-0.7,0.1-1.1c0-0.3,0-0.4-0.3-0.4
		c-0.1,0-0.2,0-0.3-0.1C44.2,72.4,44.7,72.5,45.3,72.6z"/>
	<path fill="#05477D" d="M27,68.9c0,0.1-0.1,0.2-0.2,0.2c-0.3,0.1-0.5-0.1-0.7-0.3c-0.2-0.2-0.2-0.4-0.1-0.6
		c0.1-0.3,0.3-0.6,0.5-0.9c0.1-0.1,0.2-0.1,0.3-0.1c0.2,0.1,0,0.2,0,0.2c-0.1,0.2-0.2,0.4-0.3,0.6c-0.1,0.2-0.3,0.5-0.1,0.7
		C26.5,69.1,26.8,69,27,68.9L27,68.9z"/>
	<path fill="#04467C" d="M40.8,73.4c-0.1,0.3-0.4,0.3-0.7,0.3c-0.3-0.1-0.5-0.2-0.6-0.5c0-0.4,0.1-0.8,0.2-1.2
		c0-0.1,0.2-0.1,0.3-0.1s0.1,0.1,0,0.2c-0.1,0.3-0.1,0.6-0.2,0.8c0,0.2,0,0.5,0.2,0.6C40.4,73.6,40.6,73.6,40.8,73.4
		C40.8,73.3,40.9,73.4,40.8,73.4z"/>
	<path fill="#094A7F" d="M45.8,72.9c0.1-0.1-0.1-0.2,0.1-0.3c0.2-0.1,0.3,0,0.3,0.2c0,0.5-0.1,1-0.1,1.4c0,0.2-0.1,0.1-0.2,0.1
		c-0.1,0-0.2,0-0.2-0.2C45.8,73.8,45.8,73.4,45.8,72.9z"/>
	<path fill="#06477D" d="M31,69.3c-0.1,0.2-0.1,0.4-0.2,0.5c-0.1,0.3-0.3,0.6-0.4,0.9c-0.1,0.2-0.1,0.2-0.3,0.1
		c-0.2-0.1-0.1-0.1-0.1-0.3c0.2-0.4,0.4-0.8,0.5-1.3c0-0.1,0-0.2,0.2-0.1C30.9,69.3,30.9,69.3,31,69.3z"/>
	<path fill="#06477D" d="M62.5,71.1c0.2,0,0.1,0.1,0.2,0.2c0.1,0.4,0.2,0.9,0.4,1.3c0,0.1,0,0.2-0.1,0.2s-0.2,0.1-0.2-0.1
		C62.7,72.2,62.6,71.7,62.5,71.1C62.2,71.1,62.4,71.2,62.5,71.1z"/>
	<path fill="#195687" d="M27,68.9c0.1-0.4,0.4-0.8,0.7-1.1C27.5,68.2,27.4,68.7,27,68.9L27,68.9z"/>
	<path fill="#145284" d="M40.8,73.4L40.8,73.4c0-0.5,0.1-0.9,0.2-1.4C41.1,72.6,41,73,40.8,73.4z"/>
	<path fill="#235D8D" d="M61.1,71.6L61.1,71.6c0.1-0.1,0.4-0.4,0.5,0.1C61.4,71.7,61.3,71.6,61.1,71.6z"/>
	<path fill="#2E6592" d="M66.5,69.9C66.5,69.9,66.4,69.9,66.5,69.9c0.3-0.3,0.3-0.3,0.4,0C66.8,70,66.6,69.9,66.5,69.9z"/>
	<path fill="#346995" d="M67,71.5C67,71.5,66.9,71.5,67,71.5c0-0.2,0.2-0.2,0.4-0.3C67.3,71.5,67.1,71.4,67,71.5z"/>
	<path fill="#135184" d="M54.8,74.3C54.8,74.2,54.7,74.2,54.8,74.3c0-0.1,0.1-0.2,0.2-0.3C55,74.2,54.9,74.2,54.8,74.3z"/>
	<path fill="#145184" d="M73.4,68.9C73.3,68.9,73.3,68.9,73.4,68.9c0-0.1,0.1-0.2,0.2-0.2C73.5,68.8,73.5,68.9,73.4,68.9z"/>
	<path fill="#265F8E" d="M71.6,69.6C71.6,69.6,71.5,69.5,71.6,69.6c0-0.1,0-0.2,0-0.3C71.7,69.4,71.7,69.5,71.6,69.6z"/>
	<path fill="#0C0C0C" d="M56.6,52.9c0-0.2-0.1-0.4-0.3-0.5c-0.2,0-0.2-0.3-0.1-0.4c0.1-0.1,0.1-0.2,0-0.3
		C56.5,51.9,56.7,52.4,56.6,52.9z"/>
	<path fill="#F0B352" d="M60.6,56.9c-0.4-0.1-0.7,0-1.1-0.2c0,0,0.1,0,0.1-0.1c0.1,0,0.3-0.1,0.4-0.1c0.1,0,0.2,0,0.2,0
		c0.1,0.1,0.2,0,0.3,0.1c0,0.1,0.1,0.1,0.1,0.1C60.9,56.9,60.8,56.9,60.6,56.9z"/>
	<path fill="#D8D7D9" d="M55.9,60.8c-0.1-0.1-0.1-0.2-0.1-0.4c0.1-0.1,0.2-0.1,0.3-0.1v0.1c0.1,0.1,0.1,0.2,0.1,0.3s0,0.1-0.1,0.2
		C56.1,60.9,56,60.8,55.9,60.8z"/>
	<path fill="#A5A2A4" d="M59.4,56.7c-0.1,0.1,0.1,0.2,0.1,0.3c-0.2,0-0.3-0.2-0.5-0.2c-0.1,0-0.1-0.1-0.1-0.2c0-0.1,0.1,0,0.2,0
		C59.2,56.7,59.3,56.7,59.4,56.7z"/>
	<path fill="#A88A7B" d="M60.6,58.9c0.1,0.1,0,0.2,0.2,0.2c0.1,0.1,0,0.1,0,0.2c-0.1,0.1-0.1,0.2,0,0.3v0.1c0,0.1-0.1,0.1-0.2,0.1
		C60.6,59.5,60.6,59.2,60.6,58.9z"/>
	<path fill="#261E16" d="M55.4,52c0-0.2,0.1-0.3,0.3-0.4C55.6,51.8,55.5,51.9,55.4,52C55.4,52.1,55.4,52.1,55.4,52z"/>
	<path fill="#B17530" d="M60.6,59.8L60.6,59.8c0.1-0.2,0.2-0.3,0.3-0.3C60.9,59.7,60.8,59.8,60.6,59.8L60.6,59.8z"/>
	<path fill="#814717" d="M60.6,58.3c0,0.1,0.1,0.3-0.1,0.4c0-0.1-0.1-0.3-0.1-0.4C60.5,58.4,60.6,58.4,60.6,58.3z"/>
	<path fill="#B0ACAD" d="M56.1,60.3c-0.1,0-0.2,0-0.3,0.1c-0.1,0-0.1-0.1,0-0.1C55.8,60.4,56,60.2,56.1,60.3z"/>
	<path fill="#ABAAAE" d="M56.2,60.7c-0.1-0.1-0.1-0.2-0.1-0.3C56.2,60.4,56.3,60.6,56.2,60.7C56.4,60.7,56.3,60.7,56.2,60.7z"/>
	<path fill="#6C3717" d="M60.3,56.6c-0.1,0-0.2,0-0.3,0l0,0l0,0c0.1,0,0.2-0.1,0.4-0.1C60.4,56.4,60.3,56.5,60.3,56.6
		C60.3,56.5,60.3,56.6,60.3,56.6z"/>
	<path fill="#1F1A14" d="M55.4,52C55.4,52.1,55.4,52.1,55.4,52c0.1,0.2,0,0.3-0.1,0.3l0,0l-0.1-0.1C55.3,52.2,55.4,52.2,55.4,52
		C55.4,52.1,55.4,52,55.4,52z"/>
	<path fill="#A37752" d="M60,56.5C60,56.5,60,56.6,60,56.5c-0.1,0.1-0.2,0.2-0.4,0.1C59.8,56.6,59.9,56.6,60,56.5z"/>
	<path fill="#A09FA3" d="M56.5,60.4C56.4,60.4,56.4,60.3,56.5,60.4v-0.2h0.1C56.5,60.3,56.5,60.3,56.5,60.4z"/>
	<path fill="#A5713E" d="M58.9,60.8"/>
	<path fill="#ABAAAD" d="M58.2,60.5c0.2,0,0.3,0,0.4,0C58.5,60.6,58.4,60.6,58.2,60.5z"/>
	<path fill="#ADACAF" d="M57,60.5L57,60.5C57,60.4,57,60.4,57,60.5L57,60.5C57.1,60.5,57.1,60.5,57,60.5z"/>
	<path fill="#FEFEFE" d="M55.1,42.6c0.1,0.9,0.2,1.7,0.3,2.6c0.1,0.5,0,1-0.1,1.5c-0.1,0.4-0.4,0.7-0.8,0.8c-0.2,0-0.4,0.1-0.5-0.1
		c-0.1-0.2,0-0.4,0.2-0.5c0.1-0.1,0.2-0.1,0.3-0.2c-0.3-0.1-0.2-0.3-0.3-0.5c-0.4-2.6-0.9-5.2-1.6-7.7c0-0.1,0-0.2-0.1-0.3v-0.1
		c0.1,0,0.1-0.1,0.1-0.2c-0.3-1.8-1.4-6.2-1.1-6.6c0.4,1.1,0.4,0.2,0.3-0.2c0-0.2-0.1-0.3-0.3-0.3s-0.2,0.2-0.2,0.4
		c0,0.1,0,0.2,0,0.2c0,0.1,0,0.3-0.1,0.3S51,31.6,51,31.5c-0.1-0.4-0.2-0.9-0.2-1.4c0-0.2,0-0.4,0.1-0.7c0.3,0.5,0.7,0.7,1.1,1
		c0.2,0.2,0.5,0.3,0.8,0.2c0.2,0,0.3,0,0.3,0.2c0.1,0.4,0.1,0.8,0.5,1c0.1,0.2,0.3,0.2,0.5,0.2c0,1.5,0,2.9,0.2,4.4
		c0.2,1.9,0.5,3.9,0.7,5.8C55.1,42.3,55.1,42.4,55.1,42.6z"/>
	<path fill="#FCD602" d="M54.7,26.1L54.7,26.1C54.7,26.4,54.6,26.2,54.7,26.1L54.7,26.1z"/>
	<path fill="#FBD403" d="M54.5,26c0.1,0.1,0,0.1,0,0.2C54.4,26.3,54.4,26.1,54.5,26z"/>
	<path fill="#F1B60D" d="M53.1,29.4L53.1,29.4c0-0.1,0.1,0.2,0.1,0.4C53.1,29.7,53.2,29.5,53.1,29.4z"/>
	<path fill="#EDAD0F" d="M53.8,31.7"/>
	<path fill="#EDA811" d="M53.5,30.4"/>
	<path fill="#084476" d="M41.5,56.1C41.5,56.2,41.6,56.2,41.5,56.1c-0.1,0.3-0.3,0.4-0.5,0.6c-0.3-0.1-0.4,0.1-0.5,0.3h-0.1
		c-0.1,0-0.1-0.1-0.1-0.1c0-0.3,0.3-0.4,0.4-0.6c0.1-0.1,0.1-0.2,0.1-0.3C41,56,41.2,56.1,41.5,56.1z"/>
	<path fill="#ECAF51" d="M39.8,58c0.1-0.2,0.2-0.1,0.2,0.1C39.9,58.4,39.7,58.3,39.8,58z"/>
	<path fill="#E9AC4D" d="M60.6,56.9c0.1-0.1,0.2-0.1,0.1-0.2c0.1,0,0.2,0,0.2,0c0.1,0.1,0.3-0.1,0.3,0.1c-0.1,0.1-0.1,0.1-0.2,0.2
		C61,56.8,60.8,57.1,60.6,56.9z"/>
	<path fill="#A56A29" d="M60.3,56.6C60.3,56.5,60.3,56.5,60.3,56.6c0.1,0.1,0.3,0,0.4,0.1C60.5,56.6,60.4,56.7,60.3,56.6z"/>
	<path fill="#E8922D" d="M52,50.7C52,50.7,52,50.6,52,50.7c0-0.1,0-0.2,0.1-0.3c0-0.1,0.1-0.2,0.1-0.3s0.1-0.3,0.1-0.5
		c0-0.1,0-0.1,0.1-0.1s0.1,0.1,0.1,0.2c-0.1,0.9-0.2,1.8-0.4,2.7l0,0c-0.2-0.4,0-0.7,0-1.1C51.9,51,51.9,50.8,52,50.7z"/>
	<path fill="#110D09" d="M52,50.7c0,0.5-0.1,1.1,0,1.6h-0.1C51.7,51.8,51.8,51.2,52,50.7z"/>
	<path fill="#6B402C" d="M52.8,60.1c0-0.1,0-0.3-0.1-0.4c0-0.1,0-0.2,0.1-0.3C52.8,59.7,52.8,59.9,52.8,60.1z"/>
	<path fill="#DCDBDD" d="M54.9,54.5c0-0.1-0.1-0.2-0.1-0.4C54.9,54.2,54.9,54.3,54.9,54.5z"/>
	<path fill="#D5D4D5" d="M54.6,52.6c0.1,0.1,0,0.2,0.1,0.3c0,0-0.1,0.1-0.1,0C54.5,52.9,54.6,52.8,54.6,52.6z"/>
	<path fill="#C6C6C8" d="M51.5,55.3L51.5,55.3c0,0.2,0,0.3,0,0.3C51.4,55.5,51.4,55.4,51.5,55.3z"/>
	<g>
		<path fill="#A09FA3" d="M56.6,58.2c0,0,0-0.1-0.1-0.1s-0.1,0.1-0.1,0.2c0,0.3,0.1,0.7,0.1,1c0,0.2,0.1,0.3,0,0.4
			c-0.2,0.1-0.3,0.1-0.5,0c-0.2-0.1-0.4-0.3-0.6-0.4c-0.5-0.3-0.6-0.3-0.9,0.2c-0.1,0.2-0.3-0.2-0.2-0.6c0.1-0.3,0.3-0.4,0.6-0.3
			c0.4,0.1,0.4,0.1,0.3-0.3c-0.1-0.3-0.2-0.7-0.3-1c-0.1-0.2-0.1-0.5,0.2-0.4c0.4,0.1,0.4-0.1,0.5-0.4c0-0.2,0.1-0.3,0.1-0.5
			c0.2-0.7,0.2-1.4-0.3-2c-0.2-0.1-0.3-0.2-0.1-0.5c-0.1-0.2-0.1-0.5-0.3-0.7c-0.1-0.1-0.1-0.2-0.1-0.3c0,0,0-0.1-0.1-0.1
			c0-0.1-0.1-0.1-0.1-0.1c0,0-0.1,0.1-0.1,0.2c0-0.1,0-0.2-0.1-0.3c-0.1-0.1-0.1-0.1-0.1,0.2c0,0,0,0,0,0.1c0,0,0,0-0.1,0
			c0,0,0,0,0,0c-0.1-0.1-0.1-0.3-0.2-0.5c-0.1,0.4,0,0.6,0,0.9c0,0.1,0,0.1,0,0.2c0,0,0,0,0,0c0,0,0,0.1,0,0.1l0,0c0,0,0,0,0,0
			c0,0,0,0.1,0,0.1c0-0.1,0-0.2-0.1-0.3c0,0-0.1,0-0.1,0c0,0,0,0,0,0c0,0,0,0,0,0c0,0,0,0,0,0c0,0,0,0,0,0c0,0,0,0,0,0
			c-0.1,0-0.1,0.1-0.1,0.2c0,0.2,0,0.4,0.1,0.6c-0.1-0.2-0.1-0.4-0.2-0.6c-0.1-0.2-0.2,0.3-0.2,0.5c0-0.2-0.1-0.1-0.1,0
			c0.1,0,0.1,0,0.1,0v0c0,0,0,0.1,0,0.1c0,0,0,0,0,0c0,0.1,0,0.3,0,0.4c0,0.1,0,0.1,0,0.2c0-0.3-0.1-0.5-0.1-0.7
			c-0.1-0.3-0.7-0.8-0.8-0.7c0.1,0.1,0,0.2,0.1,0.3c-0.1,0,0-0.1-0.1-0.2h-0.1c0,0.1-0.1,0.1-0.1,0c-0.1,0-0.1-0.1-0.2-0.1
			c0,0,0,0.1,0,0.1c0-0.1-0.1-0.2-0.1-0.3c0-0.1-0.1-0.2-0.1-0.3c0-0.1-0.1-0.2-0.2-0.3h-0.1v0.1c0.3,0.6,0.3,1.2,0.1,1.8
			c-0.1,0.4-0.3,0.7-0.4,1.1V55c0.1-0.2,0.2-0.4,0-0.4c-0.1,0-0.2,0.2-0.2,0.3c-0.1,0.3,0,0.6-0.1,0.9c-0.2,0.5,0.1,0.9,0.4,1.2
			l0.1,0.1c0.3,0.3,0.4,0.7,0.3,1.1c-0.1,0.4-0.1,0.9-0.3,1.3c0,0.1,0,0.2,0.1,0.3c0.2,0.1,0.3-0.1,0.3-0.2c0.2-0.5,0.3-1,0.3-1.5
			c0-0.1,0-0.3,0.1-0.3c0.2,0,0.2,0.1,0.3,0.2c0,0.1,0.1,0.1,0.1,0.2c0.3,0.6,0.4,1.2,0.6,1.8c-0.3-0.3-0.3-0.6-0.4-0.9
			c-0.1-0.1-0.1-0.2-0.2-0.2c-0.1,0-0.1,0.1-0.2,0.2c0,0.1-0.1,0.2-0.1,0.3c-0.1,0.4-0.4,0.8-0.6,1.2c-0.1,0.1-0.2,0.2-0.4,0.2
			c-0.1,0-0.2-0.1-0.2-0.3s0-0.4,0-0.7c0.1-0.5,0.2-1,0.3-1.5c0-0.1,0.1-0.3-0.1-0.3c-0.1,0-0.2,0.2-0.2,0.3c0,0.4-0.1,0.9-0.2,1.3
			c-0.1,0.4-0.1,0.8,0,1.2c0.1,0.5,0.5,0.7,1,0.5c0.3-0.1,0.4-0.3,0.5-0.5c0-0.1-0.1-0.3,0.2-0.3c0,0,0.1-0.1,0.1-0.2
			c0,0.3-0.1,0.7,0,0.7c0.1,0,0.2-0.2,0.2-0.5c0,0.3-0.1,0.7-0.1,1c0,0.1-0.1,0.3,0.1,0.3c0.1,0.1,0.2-0.1,0.2-0.2
			c0.1-0.3,1.7-1.8,1.7-2c-0.1,0.2,0.2,0.4,0.2,0.1c0.1,0.1,0.3,0,0.3-0.1c0,0.1-0.1,0.6,0.1,0.6c0.2,0,0.2-0.2,0.2-0.3
			c0.1,0,0.1,0.1,0.2,0.1c0.2,0,0.3-0.1,0.5-0.1c0.1,0,0.3-0.2,0.3-0.4C56.7,59,56.7,58.6,56.6,58.2z M54.5,53.3
			C54.5,53.3,54.5,53.3,54.5,53.3C54.5,53.3,54.5,53.3,54.5,53.3C54.5,53.3,54.5,53.3,54.5,53.3z M54.5,53.1
			C54.5,53.1,54.4,53.1,54.5,53.1C54.4,53.1,54.4,53.1,54.5,53.1C54.5,53.1,54.5,53.1,54.5,53.1z M54.7,52.8c0-0.1,0-0.1-0.1-0.2
			C54.7,52.7,54.7,52.7,54.7,52.8z M52.2,53.2C52.2,53.2,52.2,53.1,52.2,53.2C52.2,53.1,52.2,53.2,52.2,53.2z M52.3,53.7
			c-0.1-0.1,0-0.3-0.1-0.4C52.3,53.4,52.3,53.5,52.3,53.7c0.1,0.1,0,0.3,0.1,0.5C52.3,54.1,52.3,53.9,52.3,53.7z M53,59.8
			c0,0,0,0.1,0,0.2C53,59.9,53,59.8,53,59.8S53,59.8,53,59.8z M54,54.2c0.1,0.2,0,0.5,0.1,0.8C54,54.8,54.1,54.5,54,54.2z"/>
		<path fill="#A09FA3" d="M53.8,51.7c-0.1,0.1-0.1,0.2,0.1,0.2C53.9,51.8,53.9,51.7,53.8,51.7z"/>
	</g>
	<path fill="#FDFDFD" d="M43.2,57.9c-0.1,0-0.1-0.1-0.1-0.2c0.6-0.6,1.3-1,1.9-1.5c0.1-0.1,0.2-0.1,0.3,0s0.2,0.3,0.3,0.4l-0.1,0.1
		c-0.7,0.2-1.3,0.6-2,0.9C43.4,57.8,43.2,57.7,43.2,57.9z"/>
	<path fill="#EC952F" d="M46,53.4c0.4-0.6,1-1.2,1.4-1.8c-0.1,0.4-0.5,0.7-0.6,1.2c-0.1,0.1-0.2,0.1-0.2,0.2
		c-0.2,0.2-0.5,0.5-0.7,0.7c-0.1,0.1-0.1,0-0.2-0.1c0-0.1,0-0.2,0.1-0.2C45.9,53.5,46,53.5,46,53.4z"/>
	<path fill="#A19FA2" d="M45.5,60.2c-0.2,0.3-0.3-0.1-0.4-0.1c-0.1,0-0.1,0-0.2,0c-0.1-0.1,0-0.1-0.1-0.2c0.1-0.1,0.1-0.2,0-0.4
		c0.1-0.3,0.2-0.2,0.2,0c0,0.2,0.1,0.4,0.3,0.6l0,0l0,0C45.4,60.2,45.4,60.2,45.5,60.2z"/>
	<path fill="#2D2925" d="M45.8,53.7L45.8,53.7c0.1,0.2,0,0.3-0.1,0.4c0,0,0,0.1-0.1,0.1s-0.1,0-0.2,0.1c0-0.2,0.1-0.3,0.2-0.4
		C45.7,53.8,45.8,53.7,45.8,53.7z"/>
	<path fill="#CECED0" d="M45.7,54.2C45.7,54.1,45.8,54.1,45.7,54.2c0.2,0.1,0.2,0.4,0,0.6C45.7,54.5,45.7,54.3,45.7,54.2z"/>
	<path fill="#A19FA2" d="M45.9,59.4c0.2,0.1,0.2,0.3,0.1,0.5c-0.2,0-0.1-0.2-0.2-0.2C45.9,59.6,45.8,59.5,45.9,59.4z"/>
	<path fill="#EAEAEA" d="M47.1,53L47.1,53c0,0.1,0,0.2,0,0.4C47,53.2,47,53.1,47.1,53z"/>
	<path fill="#614F3C" d="M46.6,53.1c0-0.2,0.1-0.2,0.2-0.2C46.8,52.9,46.7,53,46.6,53.1z"/>
	<path fill="#A19FA2" d="M45.6,59.8L45.6,59.8c-0.1-0.1-0.1-0.2,0-0.2C45.7,59.7,45.6,59.8,45.6,59.8z"/>
	<path fill="#EEEEEE" d="M46.7,53.4c0-0.1,0-0.2,0-0.2c0.1,0,0.1,0.1,0,0.1C46.7,53.3,46.7,53.3,46.7,53.4z"/>
	<g>
		<path fill="#A09FA3" d="M51.2,52c-0.3,0.3-0.7,0.6-1,0.9c-0.1,0-0.1,0.1-0.1,0.1s0,0,0-0.1c0-0.1,0-0.2-0.1-0.3
			c0,0.1-0.1,0.2-0.1,0.3c-0.1,0-0.1,0-0.1,0v-0.1c-0.1,0,0.1-0.2-0.1-0.2c-0.1,0.1-0.1,0.1-0.1,0.2c0-0.1,0-0.1,0-0.2
			c0-0.1,0.1-0.3,0-0.3c-0.2,0-0.1,0.2-0.2,0.3c-0.1,0-0.1,0.2-0.2,0.1c-0.2-0.2-0.1,0.1-0.2,0.1c0,0-0.1,0-0.1,0
			c0-0.1,0.1-0.3,0-0.4c-0.1,0.1-0.1,0.1-0.1,0.2c-0.1,0-0.1-0.1-0.2-0.1l-0.1,0.1c-0.2-0.4-0.3,0.2-0.3,0.1c-0.1-0.2,0.1-0.4,0-0.6
			c-0.1,0.1-0.1,0.3-0.2,0.5c-0.1,0-0.1-0.1-0.1-0.1c-0.1,0-0.1,0-0.1,0c-0.1-0.1,0-0.2-0.1-0.2c-0.1,0-0.1,0.1-0.1,0.1
			c-0.1,0-0.1,0-0.1,0c0,0,0,0,0,0c-0.2-0.2-0.2,0-0.2,0.1c-0.1,0.1-0.1,0.2-0.1,0.3c-0.1,0.1-0.1,0.2-0.1,0.3c-0.1-0.1,0-0.2,0-0.3
			c0-0.1,0-0.2,0-0.3c-0.1-0.2,0-0.3,0.1-0.4c0.2-0.4,0.4-0.6,0.5-1c-0.2,0-0.3,0.2-0.4,0.4c-0.2,0.4-0.5,0.7-0.6,1.1
			c0,0.1-0.1,0.2-0.2,0.3c-0.2,0.3-0.5,0.5-0.7,0.8c0,0.1-0.1,0.2-0.1,0.3c0,0.2,0,0.3,0,0.5c-0.1-0.1,0-0.3-0.1-0.4
			c-0.1-0.1-0.2,0-0.3,0c-0.2,0.1-0.2,0.3-0.2,0.5c0,0.3,0.1,0.6,0,0.9c0,0.2,0,0.3-0.2,0.4c-0.7,0.3-1.2,0.8-1.8,1.2
			c-0.3,0.3-0.7,0.7-0.9,1.1c-0.2,0.3-0.1,0.6,0.1,0.8s0.5,0.4,0.9,0.4c0.4,0,1.2-0.7,1.1-0.7c-0.2,0.1-0.5,0.2-0.7,0.3
			c-0.3,0.2-0.6,0.1-0.9-0.1c-0.3-0.2-0.3-0.4-0.1-0.7c0.2-0.1,0.3-0.2,0.4-0.4c0.6-0.5,1.3-1,1.9-1.4c0.1-0.1,0.1-0.1,0.2-0.1
			c0.2-0.1,0.2,0.1,0.3,0.2c0.1,0.1,0,0.2-0.1,0.2c-0.7,0.3-1.3,0.8-2,1c-0.1,0.1-0.2,0.2-0.1,0.3c0.2,0,0.3,0,0.8,0
			c0.4-0.2,0.7-0.4,1.1-0.6c0.2-0.1,0.5-0.2,0.7-0.3c0.3-0.1,0.4,0,0.4,0.3c0,0.6-0.1,1.1-0.4,1.6c-0.2,0.4-0.3,0.8-0.2,1.2
			c0.1,0.1,0.1,0.1,0.2,0.1c0.1-0.1,0.1-0.2,0.1-0.3c0-0.1,0-0.2,0.1-0.2c0,0,0,0.1,0,0.1c0.1,0.1,0.3,0.1,0.3-0.1
			c0,0,0-0.1,0.1-0.2c0.2-0.1,0.1,0,0.1,0.1c0,0.2,0,0.5,0,0.7c0.1,0.1,0.1,0.3,0.3,0.3c0.2-0.3,0.1-0.6,0.1-0.9
			c0-0.1-0.1-0.3,0-0.5c0.1,0,0.1,0.1,0.1,0.1c0,0.3,0,0.6,0,0.9c0,0.1,0,0.1,0.1,0.2c0.2,0.2,0.4,0.2,0.6,0.3
			c0.1,0.1,0.2,0.2,0.3,0.2c0.5,0.1,0.7,0,0.8-0.5c0.1-0.3,0.2-0.7,0.3-1c0.2-0.4,0.3-0.8,0.3-1.2c0-0.2,0-0.3-0.1-0.4
			c0-0.1-0.1-0.1-0.2-0.1C49,57.8,49,57.9,49,58c0.1,0.3,0,0.5,0,0.7c-0.2,0.6-0.4,1.2-0.6,1.8c0,0.2-0.2,0.2-0.4,0.1
			c-0.3-0.1-0.4-0.3-0.5-0.6c-0.1-0.4-0.3-0.8-0.3-1.3c0-0.1-0.1-0.3-0.2-0.3c-0.2,0-0.2,0.1-0.3,0.2c-0.1,0.3-0.4,0.5-0.7,0.7
			c0.4-0.6,0.8-1.1,1.3-1.7c0.1-0.2,0.2-0.3,0.4-0.4c0.1-0.1,0.2-0.1,0.2,0.1c-0.1,0.3-0.1,0.6-0.2,0.9c-0.1,0.2-0.1,0.5-0.1,0.8
			c0.1,0.1,0.1,0.2,0.2,0.2c0.2,0,0.2-0.1,0.2-0.2c-0.1-0.5,0.2-0.9,0.2-1.4c0-0.3,0.1-0.5,0.4-0.6c0.4-0.1,0.7-0.3,1-0.6
			c0.4-0.4,0.6-0.8,0.6-1.3c0-0.2,0-0.5,0-0.7c0-0.8,0.3-1.4,0.9-1.9c0.1-0.1,0.3-0.2,0.3-0.4C51.3,52,51.3,52,51.2,52z M47.9,53
			C47.9,53,47.9,53,47.9,53C47.9,53,47.9,53,47.9,53C47.9,53,47.9,53,47.9,53z M48.6,53C48.6,53,48.6,52.9,48.6,53
			C48.7,52.9,48.6,53,48.6,53z"/>
		<path fill="#A09FA3" d="M50.7,51.6c-0.1,0-0.1,0.1-0.1,0.1c-0.1,0.2-0.2,0.4-0.2,0.7c0.2-0.3,0.3-0.5,0.4-0.7
			C50.8,51.7,50.8,51.6,50.7,51.6z"/>
		<path fill="#A09FA3" d="M49.9,52.4c0.2-0.2,0.2-0.3,0.2-0.4C49.9,52.1,49.9,52.2,49.9,52.4z"/>
		<path fill="#A09FA3" d="M48,52.1c0-0.1,0.1-0.1,0-0.2C47.9,52,47.8,52,48,52.1L48,52.1z"/>
	</g>
	<path fill="#F89B30" d="M52,36.3c-0.8-1.4-1.7-2.8-2.3-4.3c-0.2-0.5-0.3-1-0.3-1.6c0-0.2,0-0.5,0.4-0.2c0.2,0.2,0.3,0.1,0.4-0.3
		c0-0.1-0.1-0.2,0.1-0.3c0.2,0,0.2,0.1,0.2,0.2c0.3,1.7,1,3.4,1.4,5.1C52,35.3,52,35.8,52,36.3C52.1,36.3,52.1,36.3,52,36.3z"/>
	<path fill="#E4E3E5" d="M52.8,29.1c0.2,0.3,0.3,0.6,0.2,0.9l0,0c-0.2,0-0.3,0.1-0.5-0.1c0.2-0.1,0.4,0,0.5-0.2
		C52.9,29.5,52.8,29.3,52.8,29.1C52.7,29.1,52.7,29.1,52.8,29.1z"/>
	<path fill="#D78126" d="M51.5,31.2c0-0.1,0-0.1,0.1-0.1C51.8,31.5,51.6,31.5,51.5,31.2z"/>
	<path fill="#A09FA3" d="M52.1,29.9V30c-0.1-0.1-0.2-0.2-0.3-0.3h0.1C52,29.8,52.1,29.9,52.1,29.9z"/>
	<path fill="#D17E25" d="M51.7,31.1C51.6,31.1,51.6,31.1,51.7,31.1c-0.1,0-0.2-0.1-0.2-0.2C51.6,30.9,51.6,31,51.7,31.1z"/>
	<path fill="#A78A7A" d="M52.6,38C52.6,38.1,52.6,38.1,52.6,38c-0.2,0-0.2-0.1-0.1-0.2c0-0.1,0.1,0.1,0.1,0.1
		C52.6,37.9,52.7,38,52.6,38z"/>
	<path fill="#683419" d="M52.6,38c0-0.1,0-0.1,0-0.2v-0.1C52.7,37.8,52.7,37.9,52.6,38L52.6,38C52.6,38.2,52.6,38.1,52.6,38z"/>
	<path fill="#B2651B" d="M52,36.3C52.1,36.2,52.1,36.2,52,36.3c0.1,0,0.2,0.1,0.1,0.2C52.1,36.4,52.1,36.3,52,36.3z"/>
	<path fill="#F8F8F8" d="M45.9,52.5L45.9,52.5c0-0.2,0-0.3,0.1-0.4c0.1-0.2,0.1-0.3,0-0.5c0.2-0.2,0.5-0.5,0.7-0.7
		c0.1-0.1,0.2-0.2,0.2-0.3c0.2-0.1,0.3-0.2,0.3-0.4c0.1,0,0.2-0.1,0.2-0.1s0,0,0.1,0.1c-0.3,0.4-0.6,0.8-0.9,1.2
		c-0.1,0.1-0.2,0.2-0.2,0.3c-0.2,0.2-0.2,0.4,0.1,0.6c-0.1,0.1-0.2,0.3-0.4,0.4c-0.1,0.1-0.1,0.2-0.2,0.1
		C45.8,52.7,45.8,52.5,45.9,52.5z"/>
	<path fill="#B4B3B6" d="M46,52.1c-0.1,0.1,0,0.2-0.1,0.3C45.7,52.3,45.8,52.1,46,52.1C45.9,52,46,52.1,46,52.1z"/>
	<g>
		<path fill="#A09FA3" d="M46,51.4c-0.2-0.1-0.4,0-0.4-0.3c-0.2,0-0.3,0.3-0.5,0.3c-0.1,0.1-0.1,0.1-0.2,0.1c0,0,0-0.1,0-0.3
			c0,0.1-0.1,0.1-0.1,0.2c0,0,0,0,0,0c-0.1-0.1-0.1-0.2,0-0.3c0.1-0.1,0.1-0.1-0.1-0.1c-0.3,0.3-0.4,0.8-0.6,1.2
			C44,52.3,44,52.4,44,52.5c-0.1-0.1,0-0.1,0-0.2c0,0,0,0,0,0c0.2-0.4,0.3-0.8,0.6-1.2c-0.1,0.1-0.2,0.2-0.3,0.2
			c0.1-0.1,0.1-0.2,0.2-0.3c0.1-0.2-0.2,0-0.3,0.1c0,0,0-0.1,0-0.1c0.1-0.1,0-0.4-0.1-0.3c0-0.1-0.2-0.8-0.4-0.5
			c-0.1,0-0.2,0.1-0.2,0.2c0-0.1,0.1-0.2,0.1-0.3c0.1-0.2,0.1-0.2-0.1-0.2c0-0.1,0.1-0.2,0.1-0.3c0-0.1-0.1,0-0.1,0s0,0-0.1,0
			c0,0,0,0,0-0.1c0,0,0,0,0,0c0,0,0,0-0.1,0c-0.1,0.2-0.1,0.3-0.2,0.4c0,0.1,0,0.1,0,0.1c0,0,0,0,0,0c-0.1,0.1-0.1,0.2,0,0.3
			c-0.1,0.1-0.1,0.2-0.2,0.3c0-0.1,0.1-0.2,0.1-0.3c0-0.1,0-0.2-0.1-0.3c-0.3,0.4-0.4,0.8-0.5,1.2h-0.1c0-0.3,0.2-0.5,0.2-0.9
			c-0.3,0.3-0.3,0.7-0.5,1c-0.1,0,0-0.2-0.1-0.2c-0.1,0-0.1,0.1-0.1,0.2c0,0.1-0.1,0.2-0.1,0.3c-0.1,0.1-0.1,0.3-0.1,0.5
			c0,0.2,0,0.5-0.1,0.7c-0.1,0.1-0.1,0.3-0.1,0.4c0-0.1,0-0.1,0-0.1c0-0.1,0-0.2,0-0.3c0-0.1,0-0.1,0-0.2c0-0.1,0-0.2-0.1-0.2
			c-0.2,0-0.2,0.1-0.2,0.2c0,0-0.1,0.1-0.1,0.2c0-0.1,0-0.1,0-0.2c-0.1,0.1-0.1,0.3-0.1,0.4v0.1c0,0,0,0,0,0c0,0,0-0.1,0-0.1
			c0,0-0.1,0.1-0.1,0.2c0-0.1,0-0.1,0-0.2c0.1-0.1,0.1-0.3,0.1-0.4c0-0.1,0-0.2,0-0.2c-0.1,0-0.1,0-0.1,0.1
			c-0.1,0.2-0.2,0.4-0.2,0.6c0,0,0,0.1,0,0.2c0,0.1,0,0.2,0.1,0.2l0.1-0.1v0.1c0,0.2,0,0.3,0,0.5s0.2,0.3,0.2,0.5c0.3,0,0.7-0.1,1,0
			c0.1,0,0.3,0,0.3,0.1c0,0.1-0.1,0.1-0.2,0.2c0,0-0.1,0.1-0.1,0.2c0.1,0.1,0.2,0.1,0.3,0.1c0.2,0,0.5,0,0.8,0.1
			c-0.3,0.3-0.6,0.5-1,0.6c-0.2,0.1-0.4,0.1-0.6,0.3c0,0.1,0.1,0.1,0.3,0.1c1.2-0.2,1.9-1,2.5-2c0.1-0.2,0.1-0.4,0.1-0.6
			c0-0.3,0-0.7,0.1-1c0.2-0.6,0.6-1,1.1-1c0.3-0.1,0.5,0,0.5,0.3c0,0.1,0,0.1,0.1,0.1c0.2-0.1,0.2-0.3,0.1-0.5
			C46.2,51.4,46.1,51.4,46,51.4z"/>
		<path fill="#A09FA3" d="M41.4,51.3c0-0.3,0.2-0.5,0.2-1c-0.3,0.4-0.3,0.7-0.4,1c-0.1,0-0.1,0.1,0,0.1
			C41.3,51.4,41.3,51.3,41.4,51.3z"/>
		<path fill="#A09FA3" d="M41.4,52C41.3,52,41.3,52.2,41.4,52c0.2-0.1,0.2-0.2,0.2-0.4c-0.1-0.1,0.1-0.3-0.2-0.3
			C41.3,51.5,41.3,51.7,41.4,52z"/>
		<path fill="#A09FA3" d="M40.7,51.9c-0.1,0.2-0.2,0.5-0.1,0.8C40.7,52.4,40.8,52.2,40.7,51.9z"/>
		<path fill="#A09FA3" d="M41,52.3c0.1-0.2,0.2-0.4,0.1-0.6C40.9,52,40.9,52,41,52.3z"/>
		<path fill="#A09FA3" d="M44.7,51"/>
		<path fill="#A09FA3" d="M43.8,49.7c0.1,0,0.1,0,0.1-0.1c-0.1-0.1-0.1,0-0.2,0C43.7,49.7,43.8,49.7,43.8,49.7z"/>
		<path fill="#A09FA3" d="M40.8,51.6c0,0,0,0.1,0.1,0C40.8,51.5,40.7,51.5,40.8,51.6z"/>
		<path fill="#A09FA3" d="M40.9,51.6C40.9,51.5,40.8,51.5,40.9,51.6L40.9,51.6z"/>
	</g>
	<path fill="#D6D5D7" d="M58.3,54.2c0.1,0.1,0.2,0.2,0.2,0.4C58.3,54.4,58.4,54.3,58.3,54.2z"/>
	<path fill="#CFCFD1" d="M59,53.6C58.9,53.6,58.9,53.5,59,53.6C58.9,53.5,58.9,53.4,59,53.6C59,53.5,59,53.5,59,53.6L59,53.6z"/>
	<path fill="#D7D7D8" d="M59,54.1c0-0.1-0.1-0.2,0-0.3C59.1,53.9,59.1,54,59,54.1z"/>
	<path fill="#C7C7C9" d="M57.6,54.4c-0.1-0.1-0.1-0.2-0.1-0.3C57.5,54.2,57.6,54.3,57.6,54.4z"/>
	<path fill="#EFEFF0" d="M57.3,54.6c-0.1,0-0.1-0.1-0.1-0.2c0,0,0,0,0.1,0C57.3,54.5,57.3,54.5,57.3,54.6z"/>
	<path fill="#E1E0E2" d="M57.3,54.9c0.2,0.1,0.1,0.1,0.1,0.2C57.3,55,57.4,55,57.3,54.9z"/>
	<g>
		<path fill="#A09FA3" d="M59.4,52"/>
		<path fill="#A09FA3" d="M59.3,52.9c-0.1-0.5-1.7-0.6-1.7-0.6c0,0,0,0,0,0c0,0,0-0.1-0.1-0.1c0,0,0,0.1,0,0.1c0,0,0,0,0,0
			c-0.1-0.2-0.5-0.7-0.5-0.6c0,0.1,0.1,0.2,0.1,0.3c0,0,0,0,0,0c0,0,0,0,0,0c0,0.2,0.1,0.4,0.2,0.6c-0.1-0.2-0.1-0.4-0.3-0.5
			c-0.2-0.2-0.3-0.5-0.6-0.7c-0.2-0.1-0.3-0.2-0.4-0.2c-0.2,0.1-0.4,0.1-0.4,0.4c0.2-0.1,0.5-0.2,0.7,0c0.6,0.3,1,1.6,0.7,2.2
			c-0.3,0.7,0.1,1.3,0.5,1.8c0.1,0.2,0.3,0.3,0.5,0.3c0.6,0,1.1-0.3,1.6-0.3c-0.1-0.1-0.3-0.1-0.4-0.1c-0.4,0-0.7,0-1-0.1
			c-0.2,0-0.3-0.1-0.3-0.2c0-0.1,0.2-0.2,0.3-0.2c0.4,0,0.7-0.1,1-0.1c0.1-0.1,0.1-0.2,0.2-0.3c-0.1,0,0-0.2-0.2-0.4
			c0-0.1,0-0.3,0-0.5v-0.1c0,0,0-0.1,0-0.1c0,0,0.1,0.1,0.1,0.1c0,0,0,0.1,0,0.1v0.1c0,0.1,0,0.3,0.2,0.5c0.2-0.1,0-0.3,0.1-0.5
			c0.1-0.1,0.1-0.2,0-0.3C59.5,53.3,59.5,53,59.3,52.9z M57.4,52.9C57.4,52.9,57.4,52.9,57.4,52.9C57.4,52.9,57.4,52.9,57.4,52.9
			C57.4,52.9,57.4,52.9,57.4,52.9C57.4,52.9,57.4,52.9,57.4,52.9C57.4,52.9,57.4,52.9,57.4,52.9L57.4,52.9z M57.4,53
			C57.4,53,57.4,53,57.4,53C57.4,53,57.4,53,57.4,53z M59,53.1c-0.1-0.3-0.1-0.7-0.1-0.7c0,0,0,0.1,0,0.1C58.9,52.7,59,52.9,59,53.1
			z"/>
		<path fill="#A09FA3" d="M59.8,51.5"/>
		<path fill="#A09FA3" d="M59.1,48.6c0.1,0.3,0.1,0.6,0.3,0.8C59.4,49.1,59.3,48.8,59.1,48.6z"/>
		<path fill="#A09FA3" d="M59.4,52.8c0.1,0,0.2,0.2,0.2,0s0-0.4-0.2-0.5C59.3,52.5,59.4,52.6,59.4,52.8z"/>
	</g>
	<path fill="#EC942E" d="M55.2,52.2C55.2,52.2,55.2,52.3,55.2,52.2c-0.3,0.1-0.1,0.5-0.3,0.7c-0.3-0.6-0.3-1.2-0.5-1.8
		c0-0.1-0.1-0.3-0.1-0.4c0,0,0,0,0.1-0.1c0.2,0.4,0.4,0.9,0.6,1.3C55,52.1,55.1,52.3,55.2,52.2z"/>
	<path fill="#050505" d="M52.7,29.6c0,0.2-0.2,0.2-0.2,0.2c-0.2,0-0.3-0.2-0.4-0.4c0-0.1,0-0.2,0.2-0.2
		C52.6,29.2,52.6,29.4,52.7,29.6z"/>
	<path fill="#E1E0E2" d="M52,29c0.1-0.3,0.3-0.3,0.6-0.2c-0.1,0.1-0.2,0-0.3,0.1C52.2,28.9,52.1,28.9,52,29z"/>
	<path fill="#F8F8F8" d="M52.3,28.9c0.1-0.1,0.2-0.1,0.3-0.1c0,0.1,0.1,0.1,0.1,0.2l-0.1,0.1C52.6,29.1,52.5,28.9,52.3,28.9z"/>
	<path fill="#ABA8AA" d="M52.1,29.9c-0.1,0-0.1-0.1-0.1-0.1c0.1,0,0.1-0.1,0.2,0L52.1,29.9z"/>
	<path fill="#D48529" d="M55.2,48.2c0.1,0.1,0.1,0.1,0.1,0.2c0,0,0,0-0.1,0.1c-0.1-0.1-0.1-0.2-0.3-0.2C55,48.1,55.1,48.2,55.2,48.2
		z"/>
	<path fill="#D38429" d="M47.4,51.1c0-0.1,0-0.1,0.1-0.2c0.1,0,0.2,0,0.3-0.1c-0.1,0.1-0.1,0.3-0.3,0.4
		C47.5,51.2,47.5,51.2,47.4,51.1z"/>
	<path fill="#C07825" d="M46,53.4C46,53.5,45.9,53.5,46,53.4c-0.1-0.1-0.3-0.3-0.1-0.5c0,0,0,0.1,0.1,0.1C46,53.2,45.8,53.3,46,53.4
		z"/>
	<path fill="#7B4C17" d="M52.3,49.6C52.3,49.6,52.3,49.5,52.3,49.6c-0.2-0.1-0.2-0.2-0.1-0.2c0,0,0.1-0.2,0.1,0
		C52.4,49.4,52.4,49.5,52.3,49.6z"/>
	<path fill="#111111" d="M52.3,49.3L52.3,49.3v0.2C52.2,49.5,52.2,49.4,52.3,49.3C52.2,49.4,52.2,49.3,52.3,49.3
		C52.2,49.3,52.3,49.3,52.3,49.3z"/>
	<path fill="#1B1105" d="M45.9,52.9c-0.1,0.2,0,0.4,0,0.6c0,0.1-0.1,0.1-0.1,0.2l-0.1,0.1c0.2-0.4-0.1-0.8,0-1.2
		c0.1,0,0.1,0.2,0.2,0.2C45.9,52.9,45.9,52.9,45.9,52.9z"/>
	<path fill="#715535" d="M46,52.8c-0.2,0-0.1-0.2-0.2-0.2c0-0.1,0-0.2,0.1-0.1C45.9,52.5,45.9,52.6,46,52.8c0-0.1,0-0.2,0.1-0.2
		C46.1,52.7,46,52.8,46,52.8z"/>
	<path d="M47.2,51.3L47.2,51.3C47.2,51.3,47.3,51.2,47.2,51.3C47.3,51.3,47.3,51.3,47.2,51.3z"/>
	<path fill="#FAE2C5" d="M55.4,51.5C55.4,51.7,55.4,51.7,55.4,51.5c-0.2,0.1-0.2,0-0.1-0.1C55.3,51.5,55.4,51.6,55.4,51.5z"/>
	<path fill="#FEFEFE" d="M54.3,49.7L54.3,49.7L54.3,49.7L54.3,49.7L54.3,49.7z"/>
	<path fill="#FDDC11" d="M55.7,26.8c-0.2,0.1-1-0.8-1.1-1c-0.1,0-0.1,0-0.2,0c0,0.1,0,0.1,0,0.1c-0.1,0.1-0.5,0.3-0.6,0.2
		c0,0.1-0.1,0.5-0.1,0.2c-0.1,0-0.1,0-0.1,0c0,0.1-0.3,0.8-0.3,0.8c0-0.1,0-0.2-0.1-0.2c-0.1,0-0.1,0-0.1,0c0,0-0.1,0-0.1,0
		c-0.2,0.1-0.1,0.3-0.1,0.4v0.1c0.1,0.1,0.1,0.3,0,0.3c0,0-0.1,0.2-0.2,0.2c-0.1,0,0,0.1,0,0.2c0,0.2,0,0.4,0,0.6
		c0,0.3,0.1,0.5,0.3,0.8c0-0.1,0.1-0.1,0.1-0.1c0,0,0,0-0.1,0.1c0,0.2,0,0.3,0,0.5c0.1,0.5,0.3,1.8,0.3,1.9c0.1,0.3,0.3,0.3,0.5,0.3
		c0.1,0,0.1,0,0.2-0.1c0.5-0.3,0.5-0.9,0.8-1.3c0.1-0.1,0.2-0.3,0.2-0.4c0,0,0,0,0,0c0,0,0,0,0,0c0-0.2,0.2-1.4,0.2-1.5
		c0.1-0.6,0.3-1.1,0.5-1.7C55.7,27.1,55.8,26.9,55.7,26.8z"/>
	<path fill="#FBFCFC" d="M32.7,70.5c0,0.2,0,0.4-0.2,0.6c-0.1,0.2-0.3,0.3-0.5,0.2c-0.2-0.1-0.3-0.2-0.3-0.4c0-0.3,0-0.5,0.2-0.7
		c0.1-0.2,0.3-0.3,0.5-0.2C32.6,70,32.8,70.2,32.7,70.5z"/>
	<path fill="#FAFCFC" d="M57.2,73.3c0,0.3-0.1,0.6-0.4,0.6c-0.3,0.1-0.4-0.2-0.5-0.4c-0.1-0.2-0.1-0.5-0.1-0.7
		c0.1-0.2,0.2-0.4,0.4-0.4s0.4,0.1,0.5,0.3C57.1,73,57.1,73.2,57.2,73.3z"/>
	<path fill="#FAFCFC" d="M64.3,70.7c0.4,0,0.7,0.4,0.7,0.8s-0.2,0.6-0.6,0.7c-0.1,0-0.2,0-0.2-0.1c-0.1-0.4-0.2-0.7-0.3-1.1
		C63.8,70.8,64,70.7,64.3,70.7z"/>
	<path fill="#ACAAAE" d="M52.2,61.8c-0.1,0-0.2,0-0.3,0c0.1-0.1,0.1-0.1,0.2-0.2c0.1-0.1,0.1-0.3,0.3-0.2c0,0.1,0,0.1,0,0.2
		C52.3,61.6,52.4,61.7,52.2,61.8z"/>
	<path fill="#AEA9AA" d="M52.2,61.8c0-0.1,0.1-0.1,0.1-0.2C52.3,61.8,52.2,61.9,52.2,61.8z"/>
	<path fill="#C0C0C2" d="M52.1,61.3c0-0.2,0.2-0.3,0.2-0.5c0.1,0.1,0.1,0.2,0.1,0.3C52.3,61.2,52.3,61.4,52.1,61.3z"/>
	<path fill="#F4F3F4" d="M52.1,61.3c0.2,0,0.2-0.2,0.3-0.2c0,0.1,0,0.1,0,0.2c-0.1,0-0.1,0.2-0.3,0.2v-0.1
		C52.1,61.5,52.1,61.4,52.1,61.3C52.1,61.4,52.1,61.4,52.1,61.3z"/>
	<path fill="#C1C1C3" d="M55.9,60.8"/>
	<path fill="#A09FA3" d="M55.4,60.7C55.3,60.8,55.3,60.8,55.4,60.7C55.3,60.8,55.3,60.7,55.4,60.7C55.3,60.7,55.3,60.6,55.4,60.7
		C55.3,60.7,55.3,60.7,55.4,60.7z"/>
	<path fill="#AF742E" d="M60.7,59.3c0,0.1,0,0.2,0,0.3C60.6,59.5,60.6,59.4,60.7,59.3z"/>
	<path fill="#865D47" d="M52.8,38.3c0,0.2,0.1,0.3,0.1,0.4C52.7,38.6,52.7,38.6,52.8,38.3z"/>
	<path fill="#F7B955" d="M42.7,61.6c-0.1,0-0.2,0-0.2-0.1c-0.2-0.1-0.4-0.2-0.6-0.3c-0.2,0-0.3-0.1-0.4-0.2c0-0.1,0.1-0.1,0.1-0.1
		h0.1c0.1,0.1,0.3,0,0.4,0.1c0,0,0,0,0.1,0c0.1,0.1,0.2,0,0.3,0.1C42.6,61.3,42.7,61.5,42.7,61.6z"/>
	<path fill="#121212" d="M44.8,52.6c0.1-0.4,0.3-0.6,0.7-0.7C45.4,52.2,45.4,52.7,44.8,52.6L44.8,52.6z"/>
	<path fill="#F5B754" d="M43.3,61.2"/>
	<path fill="#C1C1C4" d="M44.8,61"/>
	<path fill="#ADACAF" d="M44.9,59.5"/>
	<path fill="#ADACAF" d="M45.1,59.6c-0.1-0.2-0.1-0.4,0-0.6C45.1,59.2,45.1,59.4,45.1,59.6z"/>
	<path fill="#916C59" d="M41,60.5c-0.1-0.1,0-0.3,0-0.4C41.1,60.2,41,60.3,41,60.5z"/>
	<path fill="#FEFEFE" d="M44.9,59.9c0.2,0,0,0.1,0.1,0.2C44.8,60,44.8,59.9,44.9,59.9z"/>
	<path fill="#804616" d="M41,60c0-0.1,0-0.3,0-0.4C41.1,59.7,41.1,59.9,41,60z"/>
	<path fill="#8A501C" d="M42.6,61.2c-0.1-0.1-0.2,0-0.3-0.1c0.1,0,0.2,0,0.2-0.1C42.6,61,42.6,61.1,42.6,61.2z"/>
	<path fill="#874D1A" d="M41.7,61C41.6,61,41.6,61,41.7,61c-0.2,0.1-0.2,0.1-0.2,0C41.6,60.9,41.7,60.9,41.7,61z"/>
	<path fill="#AEADB0" d="M44.4,60.6"/>
	<path fill="#8F5723" d="M40.8,59.6c-0.1,0-0.1,0.1-0.2,0.1c0-0.1,0-0.2,0.1-0.3C40.7,59.5,40.8,59.5,40.8,59.6z"/>
	<path fill="#996A42" d="M40.8,59.3c0-0.1,0-0.2,0-0.3C40.9,59.1,40.9,59.2,40.8,59.3z"/>
	<path fill="#111111" d="M44.8,52.6L44.8,52.6c0.1,0.1,0.1,0.2,0.1,0.3C44.8,52.8,44.8,52.7,44.8,52.6z"/>
	<path fill="#9C6A3C" d="M42.2,61.1c-0.1,0-0.3,0.1-0.4-0.1C42,61,42.1,60.9,42.2,61.1z"/>
	<path fill="#111111" d="M51.7,53.9c-0.1-0.4-0.2-0.8,0-1.3C52.1,53.1,51.6,53.5,51.7,53.9z"/>
	<path fill="#AEACAE" d="M46.8,61.9c-0.1-0.2-0.1-0.4-0.1-0.6c0.1,0,0.1,0,0.1,0.1s0,0.2,0.1,0.2c0,0.2,0.3,0.2,0.2,0.4
		c0,0-0.1,0-0.1,0.1c0,0,0,0-0.1,0C46.9,62.1,46.9,62,46.8,61.9z"/>
	<path fill="#A5A4A8" d="M46.9,61.6c-0.2,0-0.1-0.1-0.1-0.2c0-0.1,0-0.2-0.1-0.3c0-0.1,0-0.2,0.1-0.3C46.9,61.1,47.1,61.3,46.9,61.6
		z"/>
	<path fill="#BDBBBC" d="M47.6,62.3"/>
	<path fill="#C0BFC2" d="M49.5,62.4c-0.2,0.1-0.3,0.1-0.4,0v-0.1C49.3,62.3,49.4,62.3,49.5,62.4z"/>
	<path fill="#F2F0EE" d="M49.7,62.5"/>
	<path fill="#312A21" d="M52.2,49.5c0,0.1,0,0.1,0.1,0.2c0,0.1-0.1,0.3-0.1,0.4c-0.1,0,0-0.1-0.1-0.2C52.1,49.8,52.1,49.6,52.2,49.5
		z"/>
	<path fill="#CAC9CB" d="M52.1,61.4C52.1,61.4,52.1,61.5,52.1,61.4c-0.1,0.1-0.3,0-0.3-0.1C52,61.2,52,61.3,52.1,61.4z"/>
	<path fill="#C4C3C6" d="M49.8,62.5"/>
	<path fill="#111010" d="M52.1,49.9c0,0.1,0,0.1,0.1,0.2c0,0.1,0,0.2-0.1,0.3L52,50.3C52,50.1,52,50,52.1,49.9z"/>
	<path d="M52,50.3L52,50.3c0,0.2,0.1,0.3,0,0.4C51.9,50.5,52,50.4,52,50.3z"/>
	<path fill="#BD9A7E" d="M47.6,62.3L47.6,62.3c-0.1-0.1-0.2-0.2,0-0.3C47.6,62.1,47.6,62.2,47.6,62.3z"/>
	<path fill="#B6B5B9" d="M48.7,62C48.6,61.9,48.6,61.9,48.7,62l-0.1-0.2C48.7,61.8,48.7,61.8,48.7,62C48.7,61.9,48.7,61.9,48.7,62z"
		/>
	<path fill="#AFAEB1" d="M51.2,61.8C51.2,61.9,51.1,61.9,51.2,61.8c-0.1,0.1-0.2,0.1-0.2,0C51,61.8,51.1,61.8,51.2,61.8
		C51.1,61.8,51.2,61.8,51.2,61.8z"/>
	<path fill="#9D999C" d="M46,60.2c0,0.2,0.1,0.3,0,0.6C46,60.6,46,60.4,46,60.2z"/>
	<path fill="#A09FA3" d="M45.7,60.6c0-0.2,0-0.3,0-0.5C45.8,60.3,45.9,60.4,45.7,60.6z"/>
	<path fill="#A19FA2" d="M46.5,60.6c0-0.1,0-0.3,0-0.4c0.1,0.1,0,0.2,0.1,0.3C46.6,60.6,46.6,60.7,46.5,60.6
		C46.5,60.7,46.5,60.7,46.5,60.6z"/>
	<path fill="#A09FA3" d="M45.3,60.5"/>
	<path fill="#A09FA3" d="M46.1,60.9C46.1,61,46.1,61,46.1,60.9c0.1,0.1,0.1,0.2,0,0.2S46,61.1,46,61C46,61,46,61,46.1,60.9z"/>
	<path fill="#FAFAFA" d="M46.7,61.1c0.1,0.1,0.2,0.1,0.1,0.3c0,0,0,0-0.1-0.1C46.7,61.3,46.7,61.2,46.7,61.1z"/>
	<path fill="#A09FA3" d="M46.5,59.4c0.1,0.2,0,0.3,0,0.4C46.5,59.7,46.5,59.6,46.5,59.4z"/>
	<path fill="#BF8748" d="M52.1,63.3"/>
	<path fill="#905829" d="M48.5,62.8c-0.1,0-0.1,0.1-0.2,0.1c0-0.1,0-0.1,0-0.2C48.4,62.8,48.4,62.7,48.5,62.8z"/>
	<path fill="#B27630" d="M41.9,61.3c0.2,0.1,0.4,0.1,0.6,0.3C42.3,61.5,42.1,61.5,41.9,61.3z"/>
	<path fill="#C7C7C7" d="M45.2,52.2C45.2,52.2,45.3,52.3,45.2,52.2c0.1,0.2,0,0.2,0,0.2C45.1,52.4,45.1,52.3,45.2,52.2
		C45.1,52.3,45.1,52.2,45.2,52.2z"/>
	<g>
		<path fill="#F2B452" d="M40.1,58.1C40,58.1,40,58.1,40.1,58.1C39.9,58.4,39.9,58.4,40.1,58.1z"/>
		<g>
			<path fill="#F2B452" d="M63.3,58.8c0.1-0.1,0.2-0.2,0.1-0.3c-0.1-0.2-0.2,0-0.3,0c-0.2,0.1-0.3,0.2-0.5,0.3c0,0-0.1,0-0.1,0.1
				c0,0,0,0,0-0.1c0.2-0.3,0.3-0.6,0.5-0.9c0.1-0.1,0.1-0.2,0-0.2c0-0.1,0-0.1-0.1-0.1c-0.1,0-0.1,0-0.2,0c0,0.1-0.1,0.2-0.1,0.3
				c-0.1,0-0.1-0.1-0.1-0.1c0.1-0.1,0.1-0.2,0-0.2c0.1-0.3,0-0.5,0.2-0.8c0,0-0.1,0-0.1,0c0,0,0,0,0,0c0,0,0.1,0,0.1-0.1
				c0.1,0,0.3-0.1,0.5-0.2c0.1,0,0.3-0.1,0.2-0.3c-0.1-0.2-0.3,0-0.4,0c-0.4,0.1-0.8,0.4-1.3,0.4c-0.1,0-0.1,0-0.1-0.1
				c-0.1,0.1-0.1,0.1-0.2,0.1l-0.1,0.1c0,0-0.1,0-0.1,0.1c-0.1,0-0.2,0-0.2,0c0.1,0.1,0.1,0.1,0.2,0.1c0,0,0,0,0,0
				c0,0.2,0.7,0.2,0.9,0.1c0,0,0,0.1,0,0.1c-0.2,0.1-0.9,0-1-0.1c-0.1-0.2-0.3,0-0.6-0.3c-0.3,0-0.6-0.1-1-0.1h-0.1
				c-0.2,0.2,0,0.2,0.1,0.3c0.4,0.4,0.8,0.9,1,1.4c0,0,0,0,0.1,0c-0.1,0.2,0.1,0.3-0.1,0.3c0,0.1,0,0.1,0,0.1c0,0.1,0.2,0.6,0.2,0.7
				c0,0.1,0,0.2,0,0.3c0.1-0.1,0.1,0.1,0,0.2c-0.2,0.3-0.5,0.6-0.7,0.9c0,0-0.1,0.1-0.1,0.1c0,0,0-0.1,0-0.1c-0.2,0-0.1-0.7,0.2-1.2
				c0-0.1,0.1-0.2,0-0.3c0-0.1-0.1-0.2-0.2-0.2c-0.1,0-0.1,0.1-0.2,0.2c-0.1,0.4-0.3,0.8-0.6,1.1c-0.1,0.2-0.2,0.3-0.2,0.4
				c-0.1,0.1-2.8,0.1-2.8,0.1s-0.2,0.1-0.2,0c-0.1-0.1-0.1-0.2-0.1-0.3c0-0.1-0.1-0.1-0.1-0.2c0-0.1,0-0.1,0-0.1
				c-0.2-0.1-0.5-0.3-0.5-0.6c-0.2,0.1-0.2,0-0.4-0.2c0,0.3-0.2,0.4-0.2-0.1c-0.1,0.1-1.3,1-1.5,0.8c0,0.4,0,0.7-0.2,1.1
				c0-0.3,0.2-1.2,0-1.3c-0.1,0.2-0.1,0.5-0.2,0.7c-0.1,0,0-0.1-0.1-0.2c-0.2,0.2-0.2,0.3-0.2,0.5c0,0.1,0,0.1,0,0.2
				c0,0.1,0,0.2,0,0.3c0,0.1,0,0.1,0,0.2c0,0.1,0,0.1,0,0.2c0,0.1-4.2,0.3-4.8,0.1c0,0,0,0.1,0,0.2c0,0.1-0.9-1.9-0.8-2
				c0-0.8,0-0.8-0.3-1.2c-0.2,0.5-0.1,1-0.1,1.4c-0.1,0-0.1,0.1-0.1,0.2c0,0.1,0,0.2-0.1,0.2l-0.1,0.1C46,60.8,46,60.6,46,60.5
				c0-0.4,0-0.7,0-1.1c-0.1,0.1-0.2,0.1-0.3,0.2c0,0.1,0,0.1,0,0.2c0,0.1,0,0.1-0.1,0.1c0,0.2-0.2,0-0.2,0.1c0-0.1-0.1-0.1-0.1,0
				s0,0.2,0,0.3c-0.2,0.2-1.8,1.1-1.8,1.1c0.1,0.2-2.5-0.8-2.5-0.8v-0.1c0-0.1,0.1-0.3,0-0.4c0-0.1,0-0.1,0-0.1c0-0.1,0-0.3,0-0.4
				c-0.1,0-0.3-0.1-0.2-0.2l0.1-0.1c0-0.1,0-0.2,0-0.3c-0.2-0.1-0.3-0.2-0.4,0.1c-0.1,0.3-0.8-0.7-0.8-1c0-0.1,0.1,0,0.2,0H40
				c0.1-0.2,0.2-0.4,0.2-0.6c0.1-0.1,0.2-0.1,0.2-0.2c0.1-0.1,0.2-0.2,0.2-0.3c0.2,0,0.3-0.2,0.4-0.3c-0.4-0.2-0.5,0-0.5,0.3
				c-0.1,0-0.1,0-0.2,0c0,0,0,0,0,0c0.1-0.2,0.3-0.3,0.3-0.5c0.1-0.2,0.2-0.3,0-0.4c0-0.1,0-0.1,0-0.1c-0.3-0.1-0.3,0.2-0.5,0.3
				c-0.1,0.2-0.3,0.4-0.5,0.6c0,0-0.1,0-0.1,0c-0.2-0.2-0.3-0.5-0.3-0.9c-0.1-0.1-0.2-0.1-0.3-0.1c-0.1,0,0,0.1,0,0.2
				c0,0.1,0.1,0.2,0.1,0.3c0,0.2,0,0.2-0.1,0.1c0,0.1,0,0.2-0.1,0c-0.2-0.1-0.4,0.2-0.5,0.2c-0.1-0.4-0.5-0.6-0.8-0.8
				c-0.1-0.1-0.2-0.1-0.3,0c-0.1,0.1,0,0.2,0.1,0.2c0.1,0.1,0.2,0.1,0.3,0.2c0.1,0.1,0.2,0.1,0.2,0.2c0,0,0,0,0,0
				c0-0.1-0.1-0.1-0.2-0.1c0.1,0.1,0.1,0.1,0.1,0.2c0,0-0.1,0-0.1,0c-0.1,0.1-0.2,0.4-0.2,0.4c0,0-0.1,0-0.1,0c0,0,0,0.1,0,0.1
				c-0.2,0.1-0.2,0.3-0.1,0.7c0,0.1,0,0.2-0.1,0.2c0,0-0.1,0-0.1,0c-0.1,0.2-0.3,0.3-0.5,0.4c-0.2,0.2,0.2,1.9,0,1.9
				c0,0-0.1-0.1-0.2,0c-0.1,0.1,0,0.2,0.1,0.3c0.2,0.1,0.4,0.2,0.6,0.3c0.3,0.1,0.5,0.3,0.4,0.6c0,0,0,0.1,0.1,0.1c0,0-0.1,0-0.1,0
				c0,0.1,0,0.1,0,0.2c0,0.1,0,0.2,0,0.4c0,0,0-0.1,0-0.1c0,0.2,0.1,0.3,0.1,0.4c0.1,0,0,0.1,0.1,0.1c0,0-0.1,0-0.1,0.1
				c0,0.1-0.3,0-0.2,0.2c0,0.2,0.2,0.2,0.3,0.2c0.1,0,0.1,0,0.2,0c0.2,0.1,0.3,0.3,0.5,0.4c-0.1-0.1-0.2-0.3-0.3-0.4c0,0,0,0,0,0
				c0.1,0.1,0.2,0.2,0.3,0.3c0.2,0.2,0.9,0.6,1,0.7c0.2,0,0.3,0.2,0.4,0.3c0.5,0.3,1.1,0.6,1.6,0.9c0.3,0.2,0.6,0.4,1,0.6
				c0.1,0.1,0.2,0.1,0.3,0.1c0.1,0,0.1,0,0.2,0c-0.1,0-0.1,0-0.1,0.1c0.8,0.5,1.7,0.9,2.6,1.1c0.1,0,0.1,0,0.2,0
				c0.1,0,0.3,0.1,0.4,0.1c0.1,0.1,1.7,0.3,2.1,0.3c0.1,0,0.3,0,0.5,0c0.1,0.1,3.7-0.3,3.9-0.3c0,0,0,0,0,0c0.3,0,0.5,0,0.8-0.1
				c0.2,0,0.4,0,0.6,0c0.1-0.1,0.3,0,0.4-0.1c0.6-0.2,3.6-1.8,4.1-2.1v-0.1c-0.1,0-0.1,0-0.2,0l0,0c0.1,0,0.2,0,0.3-0.1
				c0,0,0,0,0,0.1c0.1,0,0.2-0.1,0.3-0.2c0.2-0.1,0.8-0.5,0.9-0.5c0.1-0.1,1.7-1.1,2.1-1.4c0.2-0.1,0.2-0.2,0.2-0.3
				c0-0.2-0.2-0.2-0.3-0.2c0,0-0.1,0-0.1,0c0,0,0,0-0.1,0c0.1-0.2,1-1.1,0.9-1.5c-0.1,0-0.1,0-0.2,0.1c0,0,0.1,0,0.1-0.1
				c0.1-0.2,0.2-0.2,0.3-0.3c0.2-0.1,0.4-0.2,0.4-0.6c-0.2,0.1-0.3,0.2-0.5,0.3c-0.1,0-0.1,0-0.1-0.1C62.4,59.9,63,59,63.3,58.8z
				 M62.5,56.9C62.5,56.9,62.5,56.9,62.5,56.9C62.5,56.9,62.5,56.9,62.5,56.9C62.5,56.9,62.5,56.9,62.5,56.9z M37.5,61.1 M46.6,60.4
				c0,0,0-0.1,0-0.2c0,0.1,0,0.1,0.1,0.2C46.6,60.4,46.6,60.4,46.6,60.4z M62.2,57C62.2,57,62.2,57,62.2,57C62.2,57,62.2,57,62.2,57
				C62.2,57,62.2,57,62.2,57z"/>
		</g>
	</g>
</g>
</svg>
