<?xml version="1.0" encoding="utf-8"?>
<!-- Generator: Adobe Illustrator 23.0.0, SVG Export Plug-In . SVG Version: 6.00 Build 0)  -->
<svg version="1.0" id="svg1" xmlns:svg="http://www.w3.org/2000/svg"
	 xmlns="http://www.w3.org/2000/svg" xmlns:xlink="http://www.w3.org/1999/xlink" x="0px" y="0px" viewBox="0 0 100 100"
	 enable-background="new 0 0 100 100" xml:space="preserve">
<g id="path76473">
	<path fill="#002A86" d="M0,100h100V0H0V100z"/>
</g>
<g id="path76474">
	<path d="M45.8,72.3c2.4,0.6,6.2,0.4,6.2,0.4s1.2-0.1,1.5-0.2c0.1-0.1,1.8-0.5,1.9-0.6c0,0,1.6-0.6,2-0.8c1.3-0.5,2.6-1.5,3.8-2.4
		l0.6-0.5c0.6-0.8,1.2-1.1,1.8-1.9c1.8-2.3,2.7-4.4,3.2-6.8c0,0,0.5-2.8,0.4-4c0,0,0-1.8-0.3-3c-0.5-2-1.1-3.9-2.3-5.7
		c-0.9-1.5-2-2.7-3.2-3.8c-2.8-2.3-5.7-3.8-9.7-4.2c-1.2-0.1-3.3,0-3.7,0.1c-1.5,0.1-3,0.7-4.4,1.2c-2.8,1.2-5.4,3.2-7.3,5.9
		c-1.7,2.5-2.7,5.4-3,8.4c-0.1,2.5,0.1,4.8,0.9,7.2c0.9,2,1.9,4.1,3.5,5.7c2,2.3,4.7,3.7,6.5,4.3L45.8,72.3"/>
</g>
<g id="path76475">
	<path fill="#FFD90F" d="M45.9,72.1c0.9,0.2,2.3,0.4,3.4,0.4c1.4,0.1,3,0,4.6-0.4c1.3-0.3,2.4-0.7,3.8-1.4c0.6-0.4,1.7-1,1.7-1
		c1.6-1.1,3.5-3.1,3.5-3.1c0.9-1.1,1.7-2.1,2.3-3.4c1.3-2.6,1.8-5,1.9-7.7c0,0-0.1-2.7-0.7-4.5c-0.6-2.4-2.8-5.9-3.5-6.4
		c-2.1-2.3-4.4-3.9-7.1-4.8c-1.9-0.7-3.8-0.9-6-0.9L48,39.2c-2.9,0.3-5.2,1.4-7.7,3c-4.1,2.8-6.3,7.2-6.8,11.7
		c-0.3,2.4-0.1,4.3,0.6,6.6c0.9,2.5,2,4.9,4,6.8c1.3,1.5,3.7,3,3.7,3C42.4,70.8,45.9,72.1,45.9,72.1"/>
</g>
<g id="path76476">
	<path d="M50,39.6c1.2-0.1,1.9-0.2,4.2,0.4c0.8,0.1,3.5,1.4,4.2,1.8c1.6,0.6,4.6,3.9,4.6,3.9c0.2,0.1,2,2.9,2.1,3.1
		c0.4,0.9,0.9,1.8,1.1,2.7c0.3,1.4,0.4,2.8,0.5,4.4c0.1,1.8-0.4,3.8-1,5.4c-0.6,1.5-1.4,2.9-2.3,4.3h-0.1c-1,1.1-1.8,2.3-3.1,3.1
		c0.1,0.1,0.2,0.2,0.2,0.3c-0.2,0.3-0.9,0.3-0.9,0.3c-0.4-0.1-1,0.6-1.5,0.9c-2,1.3-5,1.9-5,1.9c-1.5,0.1-4.5,0-4.5,0
		c-1.2-0.1-3.9-0.9-4.8-1.4c-1-0.5-2-1.1-3.1-1.5c-1.6-1.3-2.9-2.8-4.1-4.4c-1.2-2.1-2.3-4.4-2.5-6.9c-0.1-1.2-0.1-3.4-0.1-3.5
		c0.2-2.5,1.2-5,2.5-7.2c0.7-1.3,3.8-4.1,3.8-4.1c0.4-0.3,2.5-1.7,2.7-1.7C46.8,39.3,50,39.6,50,39.6"/>
</g>
<g id="path76477">
	<path fill="#FFD90F" d="M64,47.3c-0.4-0.6-0.9-1.3-1.1-1.5c-0.1-0.2-0.4-0.4-0.6-0.6c-0.5-0.6-3-2.9-4.3-3.5c-3.3-1.6-5-1.8-5-1.8
		c-1.1-0.1-3.3-0.2-3.7-0.1c-3.3,0-6.8,1.9-7.2,2.2c0,0-3.6,2.4-5.1,4.6c0.2,0.3,0.4,0.6,0.6,0.9c0.5,0.1,0.6,0.6,0.8,1
		c0.1,0.2,0.3,0.5,0.4,0.4c0.6-0.6,1-1.3,1.6-1.9l0.2-0.1c0.7,0.2,0.5,1,0.8,1.5c0.7,0.5,1,1.3,1.5,2c0.3-0.3,0.5-0.5,0.8-0.8
		c0.5,0,0.8-0.7,1.3-0.5c0.9,0.5,0.5,1.5,0.9,2.2c0.3,0.3,0.5,0.6,0.6,1c1.1-0.9,2.7-1.1,4.1-1c0.9-0.1,1.7-0.6,2.6-0.5
		c1.3-0.1,2.1-1.3,3.4-1.2c0.7,0.2,1.5-0.1,2.2-0.3c0.9-0.9,2.3-0.5,3.3-0.9c0.8,0,1.2-0.8,2-0.9L64,47.3"/>
</g>
<g id="path76478">
	<path fill="#FFFFFF" d="M41.8,46.3c0.1-0.2,0.2-0.1,0.3-0.3l0.2,0.3c-0.2,0.5-0.5,0-0.8,0.1c-0.3,0.2-0.6,0.3-0.9,0.2
		c0,0-0.1,0,0,0c-0.4-0.1-0.7-0.1-1.1,0.1c-0.2-0.1-0.5-0.3-0.7-0.1c-0.2,0.1-0.3,0-0.5,0.1c0.1-0.2,0.3-0.3,0.5-0.4l0,0
		c0.2-0.1,0.6-0.5,0.9-0.1c0.2,0,0.3-0.2,0.5-0.1c0.1,0.4,0.4,0.1,0.6,0.1c0.1-0.1,0.2-0.1,0.4-0.1l0.1,0.1c0.1,0,0.2-0.1,0.3-0.2
		C41.6,46.2,41.6,46.4,41.8,46.3"/>
</g>
<g id="path76479">
	<path fill="#1691FF" d="M66.5,55.9c0,1.3,0,2.6-0.4,3.8c-0.5,1.9-1.3,3.6-2.4,5.2c-0.3-0.2-0.5,0.1-0.8-0.2l-0.1,0.1
		c-0.6-0.1-1.4,0-1.9-0.6c-0.3-0.2-0.7-0.5-0.6-1c-0.6-0.7-1.6-0.7-2.5-1c-0.1-0.1-0.2-0.3-0.2-0.4c-0.5-0.8-0.4-1.9-1.2-2.6
		c0.3-0.3,0.7-0.2,1-0.3c0.2-0.1,0.3-0.3,0.2-0.5c-0.1-0.1-0.2-0.3-0.4-0.3c-0.7-0.1-1.2,0.5-1.8,0.7h-0.3c0.4-0.3,0.9-0.6,1.3-0.6
		c0.2-0.1,0.3-0.3,0.4-0.4c0.1-0.2-0.2-0.3-0.3-0.4c-0.9,0-1.6,0.5-2.3,1.1l-0.4-0.1c-1-0.5-2.2-0.6-3.2-1.1c0,0,0.4,0.2,0.6,0.1
		c0.1,0,0.9-0.4,1.2-0.4c0.2,0,1.1,0,1.4,0.1c0.3,0.1,0.8,0.1,1.2,0.2c0.5,0.1,0.9-0.1,1-0.3c0.1-0.1,0.4-0.3,0.8-0.3
		c0.4,0,1.6-0.1,2.1-0.1c0.3,0,0.4,0.1,0.9,0.2c0.5,0,1.1,0.1,1.2-0.1c0.1-0.1,0.6-0.4,1.3-0.3c0.4,0,1.1,0.1,1.5,0.1
		c0.4,0.1,1-0.2,1.5-0.2C65.6,56.2,66.5,55.9,66.5,55.9"/>
</g>
<g id="path76480">
	<path fill="#A8EFFF" d="M66.4,55.4c0-0.7-0.1-1.4-0.1-2.1c-0.3,0.1-0.6,0-0.7,0.1s-0.1,0-0.2,0h-1.6c-0.9,0.2-1.9-0.1-2.8,0
		c-1.3,0.1-2.5,0.1-3.7,0.2c-0.7-0.3-1.3,0-2-0.1c-1.4-0.2-2.7,0.3-4,0.1c-0.5,0-0.9,0.3-1.3,0.2c-0.7-0.5-1.5-0.1-2.2,0
		c-0.3-0.1-0.6-0.3-0.9-0.2c-0.1,0.2-0.4,0-0.5,0.2l0.1,0.2c0,0.6,0.5,0.6,0.9,0.7c0.3,0.2,0.4,0.4,0.5,0.7c0.4,0.1,0.7,0.4,1.1,0.7
		c0,0,2.8,0.1,3,0s3.1-0.2,4.1-0.1c1,0.1,2-0.3,2.7-0.2c0.6,0,3.4-0.2,3.9-0.1c0.5,0.1,2,0.1,2.2,0C65.2,55.4,66.4,55.4,66.4,55.4"
		/>
</g>
<g id="path76481">
	<path fill="#FFFFFF" d="M55.3,58.8c-0.1,0-0.2-0.1-0.2-0.1"/>
</g>
<g id="path76482">
	<path fill="#A2D100" d="M55,58.7c-0.7,0.5-1.2,1.2-1.6,1.8c0,0.1,0,0.2,0.1,0.2c0.5-0.2,0.7-0.8,1.1-1.2c0.2-0.5,0.5-0.3,0.7-0.8
		H55"/>
</g>
<g id="path76483">
	<path fill="#A81800" d="M46.7,67.1c-0.2,0-0.5,0.1-0.7,0.1c-0.8,0-1.7-0.2-2.5-0.5c0.5-0.5,1.4-0.7,2-1.2c0.1-0.2,0.2-0.5,0.2-0.7
		c0.4,0.6,0.7,1.4,0.9,2.1L46.7,67.1"/>
</g>
<g id="path76484">
	<path fill="#A2D100" d="M46.9,67.1c0.1,0,0.1,0,0.2,0c-0.5-0.8-0.6-1.9,0-2.7c0.2-0.1,0.4,0.1,0.5,0.1l0.6-1.7h-0.1
		c-0.1,0-0.4,0.1-0.4,0h-1.3c-0.4,0-0.9,0-1.4,0c-0.5-0.1-1.1,0.3-1.4-0.2c0-0.5-0.2-0.9-0.2-1.3c0-0.2,0.2-0.3,0.3-0.4
		c0,0.1,0.2,0.1,0.2,0.1c0.3,0.2,0.9,0,1.4,0c0.7-0.1,1.5-0.1,2.1-0.1c0-0.4-0.5-0.7-0.2-1c0.3-0.1,0.7-0.3,0.9-0.1l0.9,1.3
		c0.1-0.2,0.3-0.5,0.5-0.8c0.3-0.4,0.4-0.9,0.7-1.3c0.3,0.1,0.9-0.2,0.9,0.4c-0.3,0.5-0.4,1-0.8,1.5c0.2,0,0.7,0,0.9,0
		c0.4,0.1,0.8-0.2,1.2-0.2c0.1-0.4,0.3-0.8,0.6-1.1s0.6-0.6,0.9-0.9l-0.3-0.1c-0.3,0-0.6-0.2-0.9-0.3c-0.8-0.1-1.5-0.5-2.3-0.8
		c-0.5-0.8-1.4-0.6-2.1-0.8c-0.3-0.1-0.5-0.1-0.8-0.2h-0.4c0.1,0.3-0.4,0.6-0.2,1c-0.2,0.3-0.6,0.4-0.8,0.4c-0.1,0-0.2,0.2-0.2,0.2
		c0.3,0.1,0.5,0.1,0.7,0.1c0.6,0.3,1.4,0,1.9,0.5c0,0.2-0.1,0.3-0.2,0.4c-0.4-0.1-0.5,0.2-1,0.2c-0.8-0.4-1.5,0.2-2.3-0.2
		c-0.7,0.3-1.1-0.2-1.8,0.1c-0.5,0.2-0.9-0.2-1.4-0.2c0.2,0.4,0.1,0.7,0.3,1.1c-0.1,0.2-0.2,0.3-0.4,0.3c0.1,0.1,0.2,0.1,0.2,0.1
		c0.1,0.1,0.3,0.2,0.3,0.4c0,0.1-0.1,0.2-0.2,0.3c-0.4,0.1-0.9,0.2-1.2,0c-0.1-0.1-0.3-0.2-0.2-0.3s0.1-0.1,0.2-0.1
		c0.1,0,0.2-0.2,0.1-0.2c0-0.2-0.2-0.2-0.3-0.3c-0.5-0.4,0.1-0.8,0-1.2c-0.1,0-0.2,0.1-0.3,0c-0.1,0.4-0.1,0.8,0.1,1.2
		c-0.1,0.2-0.3,0.3-0.5,0.3c0.1,0.2,0.5,0.2,0.4,0.5c-0.4,0.2-1-0.1-1.4,0c-0.1-0.1-0.2-0.2-0.2-0.4c0.1-0.2,0.3-0.2,0.5-0.2
		c0-0.4-0.4-0.4-0.5-0.7c0-0.3,0-0.5,0.2-0.8h-0.8c0.1,0.3,0.3,0.7,0.1,1s-0.5,0.3-0.7,0.4c0.1,0,0.3,0,0.4,0c0.2,0,0.2,0.2,0.4,0.3
		c0.1,0.2,0,0.5-0.1,0.6c-0.2,0.1-0.5,0-0.6,0.1c-0.4-0.1-0.7-0.2-1.1-0.1c-0.2-0.1-0.3-0.3-0.3-0.5c0.2-0.2,0.5-0.3,0.7-0.4
		c0.1-0.2-0.2-0.2-0.2-0.3c-0.2-0.1-0.3-0.4-0.2-0.6c0.1-0.3,0.4-0.5,0.6-0.7c-0.2,0-0.4,0-0.6,0.1c-0.1,0-0.2,0.1-0.4,0
		c-0.3-0.1-0.6,0.1-0.9,0l0,0l-0.1-0.1c-0.1-0.2,0-0.5,0.2-0.6c0.3-0.2,0.9-0.2,1.3-0.2c0.1,0,0.1-0.2,0-0.2l0,0
		c-0.2-0.2-0.5,0-0.6-0.2c-0.3-0.2-0.6-0.7-0.5-1.1c0.1-0.3,0.5-0.3,0.5-0.7c-0.7,0-1.3,0-2,0.1c-0.2,2,0.4,3.8,0.8,5.6
		c0.1,0.2,0.3,0.1,0.5,0.2c2.1,0.2,4.3,0.4,6.3,1c0.4,0.4,1.1,0.8,1.3,1.4c0.6-0.1,1.1-0.2,1.7,0c0.2,0.1,0.4,0.1,0.5,0.2l0,0
		c0.1,0.1,0.2,0.1,0.3,0.2c0.7,0.7,0.9,1.7,1.2,2.6L46.9,67.1"/>
</g>
<g id="path76485">
	<path fill="#E8D9A8" d="M47.1,56c-0.2-0.3-0.4-0.7-0.6-1c-0.1-0.2-0.3-0.3-0.5-0.2l0,0c-0.3-0.6-0.8-1.3-1.6-1.4
		c-0.3-0.3-0.2-0.8-0.4-1.1c-0.3-0.5-0.5-1-0.8-1.5L43,50.4c0.3-0.4,0.8-0.6,1.2-0.9l0.3,0.2c0.1,0.1,0.2,0.2,0.3,0.3
		c0,1.1,0.8,1.9,1.2,2.8c0,0.2,0,0.3,0.1,0.5l0.1,0.3c0.5,0.2,0.3,1.2,1.1,1c0.1,0.1,0.3,0.1,0.4,0.2c0.1,0.4,0.4,0.8,0.8,0.9
		c0.3,0.2,0.5,0.4,0.8,0.6c-0.5-0.1-1.2-0.3-1.8-0.3H47.1"/>
</g>
<g id="path76486">
	<path fill="#E8D9A8" d="M58.4,49.9C58.4,49.9,58.5,49.9,58.4,49.9c0.2,0.1,0.2,0.1,0.3,0.1c0.1,0,0.2,0.1,0.2,0l0.1,0.1V50
		c0.6,0.4,1.3-0.3,1.7,0.4c0,0.2-0.1,0.3-0.1,0.4v-0.1c-0.1,0-0.2,0-0.2,0l0,0c-0.1,0.2-0.3-0.1-0.3,0.2c-0.1-0.1-0.3-0.1-0.4-0.1
		l0,0l0,0l-0.1-0.1c-0.1,0-0.2-0.1-0.3,0l-0.1-0.1l-0.1,0.1c0,0,0,0,0-0.1H59c0,0-0.1,0,0-0.1l0,0l-0.2-0.1v0.1
		c-0.1,0-0.2,0.1-0.2-0.1c0,0.1,0.1,0.1,0,0.2l-0.1-0.2c-0.1,0-0.2,0-0.2,0.1c-0.1,0.2-0.1,0-0.2,0v0.1L58,50.5l0,0l-0.1,0.1
		c0-0.1-0.2-0.1-0.2-0.1l0,0c-0.1,0-0.1,0.1-0.2,0l0,0l0,0c-0.1-0.2-0.3,0.1-0.2-0.2h-0.1l-0.1-0.1c-0.1,0.1-0.1-0.2-0.2,0h-0.1
		c0,0,0,0,0-0.1l-0.1,0.1c0,0,0,0,0-0.1l0,0c-0.1,0-0.2,0-0.2,0l0,0c0,0,0,0,0-0.1c-0.1,0-0.2-0.1-0.2,0.1c-0.2,0-0.2,0.1-0.3,0
		c-0.1,0.1-0.2,0.1-0.3,0.1c-0.2-0.2-0.4,0.1-0.7,0l0,0c-0.1,0-0.2,0.1-0.2,0c0,0.1-0.1,0.1,0,0.2c-0.3,0.4-0.8,0.4-1.3,0.4
		c-0.5,0.1-0.6,0-0.9,0.2c0.7-0.1,0.4,0.2,0.7,0.1c0.2,0,0.3,0.2,0.5,0.1c0.3,0.1,0.6-0.3,0.8,0.1c0,0.3-0.4,0.3-0.6,0.3
		c-0.4-0.1-0.8-0.2-1.2-0.1c-0.2,0.1-0.2,0.1-0.4,0c0,0-0.2,0-0.3-0.1h-0.4c-0.4-0.1-0.5-0.1-1,0c-0.4-0.1-0.7,0.2-1,0
		c-0.4,0.1-1,0.1-1.3,0.1c-0.3-0.1-0.6,0.2-0.9,0.3c-0.3,0.1-0.6,0.4-0.9,0.6l-0.4,0.1v-0.2c1.3-1.4,3.5-0.9,5-1.3
		c0.9-0.6,2-0.1,2.9-0.6c1-0.4,1.9-1.3,3.2-0.9c0.1,0,0.3,0,0.4-0.1c0.1,0.2,0.3,0.2,0.5,0.2L58.4,49.9"/>
</g>
<g id="path76487">
	<path fill="#E8D9A8" d="M58.6,49.7c0.3-0.1,0.7-0.3,1.1-0.3c0.4-0.2,0.7-0.4,1.2-0.4c0.1,0.1,0.3,0,0.4,0l0,0
		c0.2-0.2,0.6-0.1,0.8-0.2h0.4v0.1c0.2-0.2,0.6,0,0.8-0.3c0.2-0.4,0.7-0.4,1-0.6l-0.2-0.4c-0.2,0-0.5,0.2-0.7,0.3
		c-0.9,0.8-2.1,0.9-3.3,1.1c-0.9-0.1-1.5,0.8-2.4,0.9V50h0.1c0-0.1,0.1-0.1,0.2-0.2c0.1,0-0.1,0.1,0,0.1l0.1-0.1v0.1L58.6,49.7"/>
</g>
<g id="path76488">
	<path fill="#A81800" d="M54.6,53.2c0.8,0,1.6,0.1,2.3,0c0.3,0.1,0.4,0.1,0.7,0.2c1,0,2.2-0.2,3.3-0.2c1-0.2,1.8,0.2,2.7,0
		c0.9-0.1,1.7,0,2.6,0v-0.1c-0.1-1.8-0.9-3.5-1.8-5.1h-0.3c-0.4,0.2-0.7,0.3-1,0.6c-0.1,0.1-0.1,0.1-0.2,0.1
		c-0.1-0.1-0.1,0.1-0.2,0.1c-0.4-0.1-0.9,0.1-1.4,0.2c-0.2,0.1-0.5,0.1-0.7,0.1c-0.6,0-1,0.5-1.7,0.5c-0.2,0-0.3,0.2-0.4,0.3
		l0.2,0.1c0.2-0.1,0.3,0,0.5,0c0,0.1,0,0.1,0.1,0.1l0.1-0.1l0.1,0.1c0.1,0,0-0.1,0-0.1h0.2v0.1l0.1-0.1v0.1l0,0
		c0.1,0,0.3-0.1,0.5,0.1l0,0c0-0.1,0.2,0,0.2,0l0.1,0.1l0,0c0.3,0.1,0,0.4,0.1,0.6c-0.4,0.1-0.6,0.2-1.1,0.1
		c-0.4-0.1-0.7-0.2-1.2-0.2l-0.1-0.1l-0.1,0.1c-0.8,0.3-1.4-0.7-2.3-0.4c-0.2,0.1-0.5,0.1-0.8,0.1c-0.2,0.1-0.5,0.2-0.7,0.5
		c-0.5,0.2-1.1,0.1-1.5,0.3c0.4,0.4,1.5-0.5,1.4,0.5c-0.7,0.5-1.5-0.2-2.3,0.2c0,0-0.6-0.2-0.9-0.2c-0.7,0-1.1,0.3-1.9,0.2
		c-0.5,0-0.9,0.2-1.5,0.1c-0.5,0.2-0.9,0.5-1.3,0.8L46.2,53v0.3l0.2,0.2c0.3,0,0.5-0.2,0.9-0.1c0.8,0.5,1.6-0.3,2.4,0
		c0.5,0.4,1-0.2,1.6-0.1c0.7,0.2,1.3,0.1,2,0c0,0,0.2-0.7,0.3-0.8s0.6-0.3,0.8-0.4c0.2-0.1,1.1-0.6,1.4-0.6c0.4,0,2.2-0.1,2.7,0
		s1.3,0.1,1.2,0.2c-0.1,0.1-0.4,0.7-0.6,0.5C58.8,52,58.7,52,58,52c-0.8,0-0.8,0-1.4,0.1c-0.6,0.1-1-0.1-1.4,0.3
		C54.8,52.7,54.6,53.2,54.6,53.2"/>
</g>
<g id="path76489">
	<path fill="#A89982" d="M44.7,49.6c0.3,0.2,0.3,0.5,0.4,0.7c0.1,0.8,0.5,1.5,1.1,2.1c0,0,0.1-0.1,0-0.1c-0.1-0.5-0.6-0.8-0.7-1.3
		c-0.4-0.6,0-1.4-0.7-1.8c-0.1,0.1-0.2,0.1-0.4,0.2L44.7,49.6"/>
</g>
<g id="path76490">
	<path fill="#A89982" d="M42.9,50.6c0,0-0.1,0.1-0.1,0.2h-0.1c0-0.1-0.1-0.1-0.1-0.2c-0.5-0.5-0.6-1.2-1.3-1.6
		c-0.8-0.4-0.2-1.4-0.9-1.8l-0.2,0.3l0.1,0.4c0.1,0.2,0.1,0.4,0.2,0.5c0.5,0.7,1.6,1.2,1.6,2.1c0.1,1.1,1.6,1.5,1.6,2.6
		c0.1,0.2,0,0.5,0.2,0.7c0.7,0,0.9,0.8,1.6,1c-0.2-0.5-0.7-0.9-1.2-1c-0.6-0.4-0.3-1.2-0.8-1.7c-0.2-0.4-0.4-0.7-0.6-1.1V50.6"/>
</g>
<g id="path76491">
	<path fill="#E8D9A8" d="M40,47.5l-0.9,1V49c-0.1,0.3,0,0.6,0.1,0.9c0.7,0.7,0.5,1.8,1.3,2.4c0.2,0.3,0.4,0.7,0.4,1
		c1,0.4,2.2,0.5,3.1,1.2c0.4,0.1,0.7,0.2,1,0.4c0.3-0.3,0.4,0.2,0.7,0v-0.1c-0.2,0.1-0.2-0.2-0.4-0.2c-0.6,0-0.8-1-1.5-0.9
		c-0.4-0.2-0.3-0.7-0.4-1c-0.1-1.1-1.6-1.4-1.5-2.6c-0.3-0.9-1.3-1.3-1.7-2.1c0-0.1,0-0.2-0.1-0.3L40,47.5"/>
</g>
<g id="path76492">
	<path fill="#A89982" d="M39,48.7L38.8,49c-0.1,0.1-0.2,0-0.3,0.1c-0.5-0.3-0.5-0.9-0.7-1.3c-0.5-0.1-0.7-0.7-1-1
		c-0.1,0.1-0.1,0.3-0.2,0.4c0,0.1,0.1,0.3,0.1,0.4c0.4,0.4,0.7,0.6,1.1,1c0.2,0.2,0.2,0.5,0.3,0.7c0.5,0,0.3,0.6,0.4,1
		c0,1.2,1.8,1.5,1.7,2.8c0,0.2,0.2,0.4,0.1,0.6c-0.1,0-0.1,0-0.2-0.1c-0.4,0-0.8,0.1-1.2,0.1L38.3,53c-0.6-0.3-1.2,0.2-1.7,0.5h0.3
		c0.1,0,0.1,0,0.2-0.1c0.2-0.1,0.4-0.2,0.6-0.2c0.3,0,0.5,0.1,0.8,0.1c0.5,0.1,0.4,0.6,0.8,0.8c0.5,0,0.8,0.5,1.2,0.6
		c0-0.3-0.4-0.5-0.6-0.8c0.2-0.2,0.2,0.1,0.3,0.1c0-0.3,0.4,0,0.5-0.1l0,0l0.1-0.1c0.7-0.1,1.6,0,2.1,0.8c0.2,0.1,0.4-0.1,0.6,0
		c0.6,0,0.8,0.8,1.2,1.1h0.1v-0.3c0.4-0.7-0.7-0.4-1-0.8l0,0l0,0c-0.1-0.2-0.4-0.2-0.6-0.4c-0.4-0.1-0.6-0.3-1-0.4l0,0
		c-0.3,0.1-0.8-0.1-1-0.2c-0.2,0-0.4-0.1-0.5-0.2c-0.1-0.7-0.5-1.2-1-1.8c0-1-1.1-1.7-0.8-2.6L39,48.7"/>
</g>
<g id="path76493">
	<path fill="#E8D9A8" d="M37.2,54.7c-0.1,0-0.1,0-0.2,0c-0.4,0-0.2,0.6-0.6,0.5l-0.2,0.2c-0.7,0-1.3,0-1.9,0l-0.1,0.1
		c-0.1-0.3-0.1-0.7,0-1c0.6-0.2,1.2-0.2,1.6-0.7c-0.5-0.4-1.1-0.2-1.6,0c0.3-2.3,1.1-4.5,2.2-6.5c0,0.4,0.6,0.5,0.7,0.9
		c0.8,0.1,0.5,1.1,1.2,1.3c0.1,0.4,0,0.9,0.2,1.2c0.3,0.8,1.3,1,1.5,1.8c0,0.2,0,0.4,0.1,0.6c-0.6,0.1-1.3,0.2-1.7-0.4
		c-0.3-0.1-0.6-0.2-0.8,0c-0.4,0.1-0.7,0.4-1.1,0.7l-0.2,0.2h0.4h0.2c0.2,0,0.5-0.2,0.7-0.2c0.4,0,0.8-0.1,1.1,0.2
		c0.2,0.8,1.2,0.5,1.5,1.2c0.2,0.1,0.5,0.3,0.7,0.1c0-0.1-0.2-0.1-0.2-0.2c0-0.2-0.1-0.5-0.3-0.6c0.8-0.1,1.8-0.2,2.3,0.6
		c0.1,0.2,0.3,0.1,0.4,0.2c-0.3,0.9-1.5,0.3-2.1,0.5l-2.3,0.1l-0.2,0.1c-0.1-0.1-0.2-0.2-0.3-0.2c-0.4,0.1-0.4-0.3-0.6-0.4
		L37.2,54.7"/>
</g>
<g id="path76494">
	<path fill="#008600" d="M37.4,55.1c0.2,0.1,0.2,0.4,0.4,0.5s0.5-0.1,0.6,0.3c-0.2,0.5,0.4,1-0.2,1.3c-0.6-0.3-0.9,0.6-1.4,0.1
		c-0.2,0-0.5,0-0.6-0.2s-0.4-0.5-0.3-0.8c0-0.3,0.6-0.4,0.5-0.7c0.1-0.4,0.6-0.3,0.6-0.7c0,0,0.1-0.1,0.2-0.1L37.4,55.1"/>
</g>
<g id="path76495">
	<path fill="#FFFFFF" d="M60.5,50.7L60.5,50.7L60.5,50.7"/>
</g>
<g id="path76496">
	<path fill="#A89982" d="M35.5,53.8c-0.4,0.4-0.8,0.4-1.4,0.5c-0.3-0.7,0.5-0.4,0.8-0.6C35.2,53.6,35.3,53.8,35.5,53.8"/>
</g>
<g id="path76497">
	<path fill="#A2D100" d="M40,57.9L40,57.9c-0.4-0.1-0.1-0.6-0.3-0.7c-0.2,0.1,0,0.4-0.1,0.5c-0.1,0.3-0.5,0.1-0.5,0.3
		c0.2,0,0.5,0,0.7,0L40,57.9"/>
</g>
<g id="path76498">
	<path fill="#008600" d="M43.8,57.3c0.1,0,0.2-0.1,0.2-0.1c0.2-0.1,0.3-0.2,0.3-0.4c0.5-0.3,0-0.7,0-1.1c-0.2-0.2-0.4-0.5-0.6-0.8
		c-0.7-0.6-0.5,0.7-1.2,0.7c-0.6,0.5,0.2,0.8,0.1,1.3c0,0.2,0.1,0.4,0.3,0.3c0.1,0,0.1,0.1,0.1,0.1H43.8"/>
</g>
<g id="path76499">
	<path fill="#A81800" d="M43.6,57.8c0.1,0,0.2-0.1,0.1-0.3h-0.4c0,0.1,0,0.2,0,0.2L43.6,57.8"/>
</g>
<g id="path76500">
	<path fill="#A81800" d="M45.6,58c0-0.1,0-0.2-0.1-0.2L45.4,58H45.6"/>
</g>
<g id="path76501">
	<path fill="#008600" d="M45.3,58.1c-0.6,0.3-1.1-0.3-1.7-0.1h-0.3c-0.2,0.2-0.5,0.1-0.8,0.1c-0.2-0.1-0.3,0.1-0.5,0h-0.5
		c-0.3,0.1-0.7,0.2-1,0.1c-0.2,0-0.3-0.2-0.4-0.3L39.8,58c-0.3,0-0.6,0.1-0.9,0l-0.1-0.1h-0.1V58c-0.3-0.1-0.9,0-1.2-0.2h-0.6
		c-0.5,0-1,0-1.4,0.3c-0.1,0.1-0.1,0.3,0,0.3c0.7,0,1.1,0,1.7-0.2c0.1,0.1,0.2,0,0.2,0.1c0.3,0.1,0.6,0,0.8,0.2v-0.1h1.1
		c0.1,0,0.2,0.1,0.2,0c0.2-0.1,0.2,0,0.4-0.2c0,0.1,0.1,0.1,0.1,0.2h0.2c0.2,0,0.5-0.2,0.7,0c0,0,0,0,0,0.1c0.1,0,0.2,0,0.2-0.1
		c0.2-0.1,0.6,0,0.8,0.2c0.4-0.4,1,0.3,1.3,0.1c0.7-0.3,1.4,0.1,2-0.2c0.8,0.4,1.5-0.3,2.2,0.2c0.3,0,0.8,0,1-0.2
		c-0.4-0.3-1-0.1-1.4-0.3c-0.4,0-0.8-0.1-1.2-0.2L45.3,58.1"/>
</g>
<g id="path76502">
	<path fill="#A81800" d="M41.9,58C41.9,57.9,41.9,57.9,41.9,58l-0.2-0.2c0,0.1,0,0.1-0.1,0.1"/>
</g>
<g id="path76503">
	<path fill="#008600" d="M42.1,57.8c0.1-0.1,0.3-0.1,0.4-0.2c0.1-0.4,0-1-0.2-1.4l-0.5,0.1c-0.2,0.1-0.3,0.3-0.4,0.5
		c0.1,0.2,0.1,0.4,0.1,0.6c0.1,0,0.1,0.1,0.1,0.2v0.1L42.1,57.8"/>
</g>
<g id="path76504">
	<path fill="#A81800" d="M37.5,57.8c-0.1-0.1-0.1-0.1-0.1-0.2c-0.2,0-0.2,0.1-0.2,0.2H37.5"/>
</g>
<g id="path76505">
	<path fill="#008600" d="M46.7,55.6c0.1,0.3,0.5,0.7,0.1,1.1v0.6c-0.3,0.2-0.8,0.1-1,0.5c-0.1-0.4-0.9,0-0.8-0.7
		c-0.1-0.2-0.5-0.2-0.2-0.5C44.7,56.3,45,56.1,45,56c0.1-0.3-0.1-0.6,0.1-0.9c0-0.1,0.2-0.1,0.2,0c0.1,0.1,0.2,0.2,0.4,0.1
		c0.2-0.2,0.3-0.3,0.5-0.1S46.6,55.4,46.7,55.6"/>
</g>
<g id="path76506">
	<path fill="#A2D100" d="M42.4,55.7c-0.1,0.2-0.2,0.2-0.3,0.4c-0.3,0-0.6,0-0.8,0.3c0,0.1-0.1,0.2-0.1,0.2c-0.4-0.1-0.7-0.5-1.1-0.4
		c-0.2,0.1-0.4,0.5-0.6,0.4c-0.2-0.2-0.2-0.4-0.5-0.5c-0.2,0-0.4,0.1-0.5,0.2c0.1-0.2,0-0.3,0-0.5c0-0.1,0.2,0.1,0.2-0.1
		C40,55.7,41.3,55.6,42.4,55.7"/>
</g>
<g id="path76507">
	<path fill="#A2D100" d="M44.8,55.9L44.8,55.9C44.7,56.1,44.7,55.9,44.8,55.9C44.7,55.9,44.8,55.9,44.8,55.9"/>
</g>
<g id="path76508">
	<path fill="#008600" d="M39.7,56.8c0.1,0.2-0.1,0.3-0.2,0.4c-0.1,0.2,0.1,0.4-0.1,0.6c-0.2,0.1-0.3-0.1-0.4,0.2
		c0-0.2-0.5-0.1-0.3-0.4c-0.1-0.3,0-0.6,0-0.9c0.1-0.1,0.2-0.2,0.4-0.3C39.3,56.3,39.4,56.7,39.7,56.8"/>
</g>
<g id="path76509">
	<path fill="#008600" d="M41.3,57.1c0.1,0.3-0.6,0.2-0.3,0.7c-0.2,0.1-0.5,0.1-0.6,0.2c-0.1-0.2-0.4-0.2-0.4-0.3
		c0.1-0.1,0.1-0.3,0-0.4c-0.2-0.1,0-0.3,0-0.5c0.2-0.1,0.3-0.4,0.5-0.3C40.7,56.5,41.2,56.7,41.3,57.1"/>
</g>
<g id="path76510">
	<path fill="#FFFFFF" d="M64.8,56.7L64.8,56.7L64.8,56.7L64.8,56.7L64.8,56.7C65,56.7,64.8,56.7,64.8,56.7L64.8,56.7L64.8,56.7
		L64.8,56.7C64.8,56.6,64.7,56.7,64.8,56.7"/>
</g>
<g id="path76511">
	<path fill="#FFFFFF" d="M64.6,56.8h-0.2l0,0c0,0,0-0.1-0.1,0c0,0.1-0.1,0-0.2,0l0,0c0.1-0.1,0.1,0,0.2-0.1c0,0.1,0,0.1,0.1,0.1
		C64.4,56.7,64.5,56.7,64.6,56.8C64.6,56.7,64.7,56.8,64.6,56.8"/>
</g>
<g id="path76512">
	<path fill="#FFFFFF" d="M63,56.7c0,0-0.1,0.1-0.2,0.1c-0.1-0.1-0.2,0-0.3,0.1l-0.1-0.1l0,0C62.5,56.9,62.9,56.7,63,56.7"/>
</g>
<g id="path76513">
	<path fill="#FFFFFF" d="M62.2,56.8L62.2,56.8c-0.2-0.1-0.4,0-0.5,0.1l0,0c-0.3,0.2-0.9-0.1-1.3,0.2c-0.1,0-0.2,0-0.2,0
		c0.4,0,0.7-0.2,1-0.1c0.2,0,0.5,0,0.6-0.1v-0.1c0,0,0,0,0.1,0v-0.1C62,56.8,62.1,56.8,62.2,56.8"/>
</g>
<g id="path76514">
	<path fill="#FFFFFF" d="M63.5,56.8L63.5,56.8L63.5,56.8L63.5,56.8L63.5,56.8L63.5,56.8c0.2,0,0.3,0,0.4-0.1
		C63.9,56.7,63.8,56.9,63.5,56.8L63.5,56.8c0,0-0.2-0.1-0.3-0.1v-0.1C63.4,56.7,63.5,56.7,63.5,56.8"/>
</g>
<g id="path76515">
	<path fill="#A2D100" d="M45.3,57.7c-0.1,0.2-0.4,0.2-0.6,0.2c-0.3-0.1-0.5-0.2-0.9-0.2c-0.1-0.4,0.4-0.2,0.6-0.5l0.2-0.4
		C45.1,57.1,44.7,57.7,45.3,57.7"/>
</g>
<g id="path76516">
	<path fill="#A2D100" d="M38.5,57.3c-0.1,0.1-0.1,0.2-0.1,0.4c0.1,0.1,0.2,0.2,0.3,0.2V58c-0.4-0.1-1,0-1.2-0.5
		c0.2-0.4,0.6,0.1,0.8-0.3C38.4,57.1,38.4,57.2,38.5,57.3"/>
</g>
<g id="path76517">
	<path fill="#354600" d="M56.7,57.5c-0.1,0.4-0.6,0.3-0.9,0.5c-1.1,0.6-1.9,1.4-2.6,2.5c0,0.2,0,0.4,0.2,0.5s0.4-0.1,0.6-0.3
		c0.6-1.3,1.8-2,3-2.5c0.2,0.1,0.5,0,0.5,0.2c-0.2,0.4-0.6,0.2-0.9,0.4c-1,0.6-1.9,1.8-2.7,2.6c-0.1,0.2-0.3,0.5-0.5,0.6
		c-0.7-0.2-1.3-0.2-2.1-0.3c-0.2,0.4-0.5,0.7-0.9,1c-0.1-0.4-0.5-0.6-0.6-0.9c0.2-0.3,0.3-0.6,0.6-0.8c0.8,0.1,1.6-0.1,2.3-0.3
		c0.4-1.2,1.5-2.2,2.5-3C55.7,57.6,56.2,57.2,56.7,57.5"/>
</g>
<g id="path76518">
	<path fill="#A2D100" d="M41.5,57.8c-0.2,0.3-0.4,0.3-0.8,0.2c0.2,0.1,0.4-0.1,0.5-0.2c0.1-0.1-0.1-0.3,0.1-0.4
		C41.5,57.5,41.4,57.7,41.5,57.8"/>
</g>
<g id="path76519">
	<path fill="#A2D100" d="M43.1,57.8c-0.1,0.1-0.4,0.1-0.5,0.1c0.2-0.1,0.1-0.3,0.2-0.4C42.8,57.6,43.2,57.5,43.1,57.8"/>
</g>
<g id="path76520">
	<path fill="#FFFFFF" d="M59.7,57.7L59.7,57.7c-0.2,0.1-0.5,0.1-0.8,0.1C59,57.6,59.3,57.7,59.7,57.7L59.7,57.7"/>
</g>
<g id="path76521">
	<path fill="#FFFFFF" d="M60,58.6L60,58.6C60,58.6,60,58.7,60,58.6L60,58.6L60,58.6c0.3,0.1,0.4-0.1,0.6,0v0.1h-0.1l0,0h-0.2v0.1
		c0,0,0,0-0.1,0c-0.1,0.1,0,0,0,0l-0.1-0.1v0.1v-0.1C60.2,58.8,60,58.7,60,58.6c-0.1-0.1-0.3,0-0.2-0.1C59.9,58.5,60,58.6,60,58.6"
		/>
</g>
<g id="path76522">
	<path fill="#008600" d="M37.9,59.9c0.2-0.1,0.5-0.1,0.6-0.3s0-0.4-0.1-0.7c-0.1-0.5-0.7-0.4-0.9-0.2c-0.2,0.1-0.4,0.5-0.4,0.7
		c0.1,0.2,0.3,0.3,0.4,0.4L37.9,59.9"/>
</g>
<g id="path76523">
	<path fill="#008600" d="M37.3,60.2c-0.2,0.1-0.4,0.1-0.5,0.3c-0.1,0.1,0,0.2,0.1,0.3c0.6-0.2,1.1,0.3,1.6,0
		c0.1-0.2-0.1-0.3-0.1-0.5c-0.1,0-0.3,0-0.4,0L37.3,60.2"/>
</g>
<g id="path76524">
	<path fill="#A81800" d="M37.4,60.2c0.1-0.1,0.1-0.1,0.1-0.2h0.2c-0.1,0.1-0.1,0.1,0,0.2H37.4"/>
</g>
<g id="path76525">
	<path fill="#FFFFFF" d="M59.7,58.7c-0.1,0.3-0.5,0.2-0.7,0.2c-0.2-0.1-0.5,0-0.6,0c0.1-0.1,0.1-0.1,0.2-0.1l0,0
		c0.1-0.1,0.2-0.1,0.2-0.1c0.1-0.2,0.2,0.2,0.4,0c0,0,0,0,0,0.1c0.1,0.1,0.1,0,0.2,0C59.4,58.8,59.6,58.7,59.7,58.7L59.7,58.7
		L59.7,58.7L59.7,58.7"/>
</g>
<g id="path76526">
	<path fill="#008600" d="M40.1,60c0.1,0,0.2,0,0.3,0s0.1-0.1,0.1-0.2c-0.4-0.2,0-0.7-0.2-1c-0.1-0.1-0.3,0-0.4,0v-0.1
		c-0.2,0-0.3,0.2-0.5,0.2c-0.5,0.4,0.1,0.6,0.3,1L40.1,60"/>
</g>
<g id="path76527">
	<path fill="#008600" d="M40.1,60.4c0.1,0.1,0.2,0.2,0.3,0.2c-0.4,0-0.8,0-1.1-0.1c0.1-0.1,0.2-0.1,0.3-0.1L40.1,60.4"/>
</g>
<g id="path76528">
	<path fill="#A81800" d="M39.7,60.3c0,0,0.1-0.1,0.1-0.2V60h0.3v0.1c0,0.1,0,0.1,0,0.2H39.7"/>
</g>
<g id="path76529">
	<path fill="#008600" d="M41.8,59.9c0.1-0.1,0.2-0.1,0.3-0.1c-0.2-0.2-0.1-0.6-0.2-0.9c-0.2-0.1-0.4-0.3-0.7-0.2
		c-0.3,0-0.2,0.3-0.3,0.4c-0.4,0.4,0.1,0.5,0.3,0.8H41.8"/>
</g>
<g id="path76530">
	<path fill="#008600" d="M41.3,60.5c0,0.1-0.1,0.1-0.2,0.2c0.1,0.1,0.2,0.1,0.3,0.1c0.3-0.1,0.8,0.1,0.9-0.2c-0.1,0-0.1-0.1-0.2-0.1
		c-0.1,0-0.1,0-0.2-0.1L41.3,60.5"/>
</g>
<g id="path76531">
	<path fill="#A81800" d="M41.8,60.3c-0.1,0-0.1-0.1-0.1-0.2h-0.3c0,0.1,0,0.1,0,0.2H41.8"/>
</g>
<g id="path76532">
	<path fill="#A81800" d="M51,59.1c-0.1,0.9-0.9,1.5-1.2,2.3c-0.3,0.2-0.4,0.6-0.4,0.9c0,0.1-0.1,0.2-0.2,0.4c-0.1,0.7-0.4,1.3-0.6,2
		c-0.2-0.1-0.5-0.2-0.7-0.2c0.3-0.7,0.5-1.6,0.9-2.3c0.2-0.4,0.3-0.8,0.6-1.1c0.1-0.6,0.6-1.1,0.8-1.7C50.1,58.8,50.7,59.2,51,59.1"
		/>
</g>
<g id="path76533">
	<path fill="#A89982" d="M52.9,63.8c-0.1-0.2-0.2-0.3-0.3-0.4c-0.3,0.1-0.4,0.5-0.7,0.3c-0.2,0.1-0.5,0-0.7,0
		c-0.2-0.3-0.5-0.6-0.6-1l0.7-0.8l0,0c0.2-0.3,0.6,0,0.9-0.1c0.4,0.1,0.9,0.1,1.2,0.3c0.2,0,1,0.1,1,0.1s0.2,0,0.3,0
		c0,0.2-0.3,0.3-0.2,0.5c0.2,0.3,0.4,0.5,0.5,0.9c-0.1,0.1-0.4,0-0.5,0.1c-0.4,0-0.9,0-1.2,0L52.9,63.8"/>
</g>
<g id="path76534">
	<path fill="#A2D100" d="M52.9,64c0.1,0.3,0,0.7-0.1,1.1c-0.3,0.5-0.6,0.7-1.1,1c-0.7,0.2-1.3,0-1.9-0.3c0-0.1-0.1-0.2,0-0.2
		c0.4,0,0.7-0.3,0.9-0.4c-0.2-0.4-0.4-0.8-0.7-1.2c-0.2,0-0.4,0-0.5-0.1c0-0.2,0.1-0.3,0.2-0.5c-0.1-0.2-0.3-0.5-0.4-0.5
		c-0.2,0.7-0.5,1.4-0.6,2.1c0.2,0.1,0.6-0.1,0.7,0.2c0,0.8-0.6,1.5-1.2,2h0.6c0.2,0.1,0.7-0.1,0.9,0.2l0,0c0.2,0.2,0.2,0.5,0.3,0.7
		c0.2-0.1,0.4,0.1,0.6,0c0.1-0.2,0-0.5,0.3-0.7s0.6-0.2,0.8-0.3c0.2,0,0.4-0.1,0.4,0c0.6-0.1,1.3,0.2,1.9,0.2c1.4,0.2,2.7,0.1,4-0.4
		c0.8-0.1,2-0.7,2.8-0.1c-0.3,0.4-0.8,0.8-1.2,1.3v0.1c0.1,0.2,0.3,0.5,0.5,0.4c1.2-0.7,2.1-1.9,3-2.9c0.2-0.2,0.3-0.4,0.3-0.6
		c0,0,0,0.1-0.1,0.1c-0.1-0.1-0.2,0-0.2-0.1l-0.1,0c-0.5-0.2-1.1-0.1-1.6-0.3c-0.3,0.1-0.7,0.2-0.9,0.2l0,0c-0.2,0.1-0.5,0-0.6-0.1
		c-0.4-0.4-1.1,0.2-1.4-0.4c-0.3-0.5,0.4-0.3,0.3-0.7c0.2-0.4,0.5-0.1,0.8-0.2l0.1-0.1h0.1l0.2-0.1v-0.1c-0.1-0.2-0.4-0.2-0.6-0.3
		c-0.7-0.2-1.2-0.4-1.9-0.5c-0.6,0.3-1.1,0.1-1.7,0.2c-0.1-0.1-0.2,0-0.2-0.1h-0.1c-0.1,0-0.2-0.1-0.2-0.2c0.2-0.2,0.2-0.4,0.2-0.6
		c0.1-0.1,0.3-0.2,0.4-0.3c-0.1-0.6,0.8-0.7,0.8-1.3c-0.1-0.2-0.3-0.5-0.5-0.7c-0.9,0.9-1.8,1.8-2.5,2.7c0.4,0.1,0.7,0.1,1.1,0.2
		c0.1,0,0.1,0.2,0.1,0.3c-0.1,0.1-0.1,0.2-0.2,0.2c0,0.4,0.6,0.7,0.4,1.2c-0.2,0.1-0.6,0.1-0.7,0.1c-0.3,0.1-0.5,0-0.8,0.1
		c0-0.1-0.2,0-0.4,0L52.9,64"/>
</g>
<g id="path76535">
	<path fill="#008600" d="M59.8,63.5c-0.2,0.1-0.5,0-0.6,0.1c-0.2,0-0.2,0.2-0.2,0.3c-0.1,0.1-0.2,0.2-0.3,0.2
		c-0.1,0.2,0.1,0.2,0.2,0.3c0.8-0.2,1.5,0.6,2.4,0.2c-0.2,0-0.2-0.3-0.3-0.2c-0.3-0.2-0.7-0.5-0.8-0.9H59.8"/>
</g>
<g id="path76536">
	<path fill="#FFFFFF" d="M63.5,59.6c0.2-0.1,0.4-0.2,0.6-0.1c0.1,0,0.4,0.3,0.6,0.1c0.2-0.1,0.3-0.1,0.5-0.1c-0.2,0.2-0.4,0-0.6,0.2
		l0,0c-0.1,0.1-0.2,0.1-0.4,0c-0.1-0.1-0.3-0.2-0.5-0.1c-0.2,0.1-0.4,0.2-0.6,0.1c-0.2-0.4-0.7-0.1-1.1-0.1c0.4,0,0.8-0.3,1.1,0.1
		L63.5,59.6"/>
</g>
<g id="path76537">
	<path fill="#A81800" d="M49,61.1c0.1,0.3-0.2,0.4-0.2,0.7h-0.1c-0.3-0.4-0.5-0.8-1-1.1c-0.1-0.2-0.2-0.5-0.2-0.8
		C48.3,59.3,48.5,60.7,49,61.1"/>
</g>
<g id="path76538">
	<path fill="#FFFFFF" d="M59.4,60.2L59.4,60.2c0.1,0.2,0.4,0.2,0.6,0.1c0.2-0.3,0.6,0.3,0.9,0c0-0.1-0.1-0.1-0.1-0.1
		c0.1,0.1,0.3,0.1,0.4,0l0.1-0.1c0.1,0.2-0.2,0.1-0.3,0.3c-0.3,0.1-0.6,0.2-0.9-0.1c-0.2,0.1-0.5,0.3-0.8,0.1
		c-0.1-0.4-0.3-0.1-0.5-0.1c-0.1,0.1-0.3,0.1-0.4,0.1c0.3-0.2,0.4-0.2,0.7-0.3C59.2,60.1,59.4,60,59.4,60.2"/>
</g>
<g id="path76539">
	<path fill="#008600" d="M57.5,62.2c-0.6,0.2-1.1,0.1-1.7,0.2l-0.2-0.1c0.3-0.2,0.1-0.8,0.5-0.9c0.2-0.1,0.1-0.3,0.2-0.5
		c0.2-0.2,0.5-0.4,0.6-0.7C56.9,60.9,57.3,61.5,57.5,62.2"/>
</g>
<g id="path76540">
	<path fill="#354600" d="M48.6,62l-0.3,0.6c-0.4-0.2-0.9,0-1.3,0c-1,0-1.8,0-2.7,0.1c0.1-0.4,0-0.8,0-1.2l-0.1-0.3
		c0.4,0,0.9,0,1.4-0.1c0.6-0.1,1.4,0,2,0h0.2C48.1,61.2,48.3,61.6,48.6,62"/>
</g>
<g id="path76541">
	<path fill="#FFFFFF" d="M44,62.5L44,62.5c0-0.5-0.3-0.9-0.2-1.4C44.1,61.5,44.1,62.1,44,62.5"/>
</g>
<g id="path76542">
	<path fill="#FFFFFF" d="M63.3,61.2C63.3,61.3,63.4,61.2,63.3,61.2c-0.2,0-0.4,0.5-0.8,0.3c-0.2-0.1-0.5-0.1-0.6-0.1
		c-0.2,0.1-0.4,0.1-0.5,0.1c0.3,0.1,0.6-0.1,0.8-0.2c0.2,0.2,0.5,0.1,0.8,0C63.1,61.3,63.2,61.2,63.3,61.2"/>
</g>
<g id="path76543">
	<path fill="#FFFFFF" d="M63.5,61.2L63.5,61.2L63.5,61.2"/>
</g>
<g id="path76544">
	<path fill="#FFFFFF" d="M63.7,61.3C63.7,61.4,63.6,61.3,63.7,61.3L63.7,61.3C63.6,61.3,63.6,61.2,63.7,61.3"/>
</g>
<g id="path76545">
	<path fill="#E86F00" d="M37,61.8c1.4,0.2,3,0.4,4.4,0.8c0.1,0.1,0.1,0.2,0.1,0.3c-0.4,0.2-1,0.4-1.5,0.4c-0.1,0.1-0.1,0.3,0,0.4
		c0.4,0.4,1,0.5,1.4,0.8c1.1,0.2,1.9-0.9,3.2-0.5c0.3,0.1,0.7,0.2,0.9,0.6c-0.2,0.2-0.1,0.6-0.3,0.8c-0.7,0.4-1.4,0.8-2.1,1.1
		c-1-0.2-2.2-0.4-3.1-0.1c-0.2-0.1-0.4,0.2-0.5,0.2c-0.3,0.2-0.5,0.2-0.7,0.5h-0.1c-1.4-1.6-2.8-3.2-3.5-5.1L35,61.4
		C35.7,61.7,36.4,61.8,37,61.8"/>
</g>
<g id="path76546">
	<path fill="#A81800" d="M51.5,64.8c-0.1,0.2-0.3,0.2-0.4,0.3c-0.4-0.7-0.9-1.5-1.2-2.2l-0.4-0.5l0.1-0.5
		C50.4,62.9,50.8,63.9,51.5,64.8"/>
</g>
<g id="path76547">
	<path fill="#FFFFFF" d="M60.7,62.8L60.7,62.8C60.8,62.9,60.8,62.8,60.7,62.8c0.2-0.1,0.2,0,0.3-0.1C61,62.7,60.9,62.9,60.7,62.8
		C60.7,62.8,60.8,62.9,60.7,62.8c-0.2,0.2-0.4-0.5-0.8-0.3c-0.2-0.1-0.4,0.2-0.6-0.1c0.2,0.1,0.5-0.1,0.7-0.1
		C60.4,62.4,60.4,62.9,60.7,62.8"/>
</g>
<g id="path76548">
	<path fill="#FFFFFF" d="M62.9,62.8L62.9,62.8l0.2-0.1C63.1,62.9,63,62.9,62.9,62.8L62.9,62.8c-0.1-0.1-0.2,0.1-0.2,0c0,0,0,0,0,0.1
		c-0.2-0.1-0.2,0-0.4,0L62.2,63c0-0.3,0.3-0.2,0.5-0.2C62.7,62.9,62.9,62.9,62.9,62.8"/>
</g>
<g id="path76549">
	<path fill="#A81800" d="M42.5,63.5c0.1,0.2,0.2,0.4,0.4,0.5c-0.3,0.2-0.8,0.3-1.2,0.4c-0.5-0.2-1.1-0.4-1.5-0.8
		c0.5,0,0.8-0.2,1.3-0.3c0.2-0.1,0.3-0.2,0.3-0.5C42.1,63,42.3,63.3,42.5,63.5"/>
</g>
<g id="path76550">
	<path fill="#A89982" d="M49.8,63.7l0.1-0.2l0.1,0.1L49.8,63.7"/>
</g>
<g id="path76551">
	<path fill="#A89982" d="M52.3,65.4c-0.5,0.5-1.2,0.7-1.8,0.4l-0.3-0.1c0.4-0.1,0.8-0.2,1.1-0.4c0.4-0.2,0.5-0.7,0.9-0.9
		c0.1-0.2,0.3-0.4,0.4-0.6C52.8,64.3,52.7,64.9,52.3,65.4"/>
</g>
<g id="path76552">
	<path fill="#A2D100" d="M51.5,64.4l-0.3-0.5h0.7L51.5,64.4"/>
</g>
<g id="path76553">
	<path fill="#3C5858" d="M52.3,64c-0.2,0.3-0.4,0.5-0.7,0.7c0.1-0.2,0.4-0.5,0.6-0.7C52.3,64,52.3,63.9,52.3,64"/>
</g>
<g id="path76554">
	<path fill="#A89982" d="M48.8,65c0,0.7-0.6,1.4-1,2l-0.5,0.1c0.1-0.2-0.2-0.4-0.2-0.6c-0.2-0.7-0.2-1.4,0.1-2
		C47.7,64.6,48.2,64.9,48.8,65"/>
</g>
<g id="path76555">
	<path fill="#3C5858" d="M49.3,65.1c0.1,0.7-0.6,1.2-1,1.7c0.3-0.5,0.8-1,0.8-1.7C49.1,65.1,49.2,65,49.3,65.1"/>
</g>
<g id="path76556">
	<path fill="#E8D9A8" d="M60.5,66.7c-0.4,0.5-0.9,0.8-1.2,1.3c0,0.4,0.5,0.7,0.8,1c-1.2,0.6-2.8,0-4.1,0.3c-1.2,0.3-2.3,0.5-3.6,0.3
		c-0.1-0.6,0.4-1.5-0.4-1.7c-0.3-0.2-0.8,0.2-1-0.4c1.4-0.8,3,0.3,4.3,0c1.7,0.1,3.3-0.9,4.9-0.8C60.3,66.6,60.4,66.6,60.5,66.7"/>
</g>
<g id="path76557">
	<path fill="#E8D9A8" d="M47.1,67.3c0.2,0.1,0.5-0.2,0.6,0.1l0.1-0.1c0.5-0.1,1,0,1.6,0c-0.2,0.4-0.9,0.5-1,1.1
		c-0.2,0.4-0.3,0.8-0.4,1.3c-0.6-0.4-1.6,0.1-2.2-0.3c-1.6-0.3-3.1-0.4-4.6-0.3c-0.1,0.1-0.3,0-0.4-0.1c0-0.2,0.2-0.4,0.3-0.5l0,0
		c0.1-0.2,0.4-0.4,0.4-0.6c-0.4-0.5-0.7-0.6-1.1-1C42.6,65.8,44.6,68.1,47.1,67.3"/>
</g>
<g id="path76558">
	<path fill="#A81800" d="M40,66.8c0.4,0.3,0.8,0.6,1.1,1l-0.7,0.9l-1.5-1.4c0.3-0.2,0.6-0.5,1-0.5C39.9,66.8,39.9,66.9,40,66.8
		C40,66.9,40,66.8,40,66.8"/>
</g>
<g id="path76559">
	<path fill="#A81800" d="M49.8,67.8l-0.5-0.1c0.2-0.1,0.3-0.2,0.4-0.4C49.7,67.4,49.9,67.6,49.8,67.8"/>
</g>
<g id="path76560">
	<path fill="#A81800" d="M51.2,68c0,0-0.3,0-0.3-0.1v-0.4C50.9,67.5,51.2,67.9,51.2,68"/>
</g>
<g id="path76561">
	<path fill="#E8D9A8" d="M48.9,67.9c-0.2,0.3-0.4,0.5-0.4,0.9c-0.1,0.2,0,0.4-0.2,0.5c0.1,0.2-0.2,0.2-0.1,0.4c-0.1,0.1,0,0.2,0,0.4
		c0.2,0.2,0.5,0.2,0.9,0.2c0.6-0.2,1.5-0.1,2.6,0.3c0.5-0.1,0.5-0.7,0.6-1.1c-0.1-0.4,0.2-0.8-0.1-1.2c-0.2-0.2-0.4-0.1-0.7-0.2
		c0,0-0.1,0.3-0.5,0.3s-1.1-0.2-1.1-0.2L48.9,67.9"/>
</g>
<g id="path76562">
	<path fill="#A2D100" d="M47.7,69.7c0.3,0.1,0.2,0.6,0.5,0.5c0.6,0.3,1-0.1,1.8,0c0.2-0.1,1.1,0.3,1.6,0.4c0.3-0.1,0.5-0.2,0.6-0.5
		l0.1-0.4c1,0.2,2.3,0.1,3.4-0.2c1-0.2,2.1-0.2,3.1-0.1L58,70c-1.2,0.8-2.4,1.3-4.1,1.8c-1.8,0.5-3.7,0.2-5.4,0.2
		c-1.9-0.2-3.7-0.8-5.4-1.7c-0.7-0.2-1.5-0.8-2-1c1.7-0.1,3.2,0,4.8,0.5L47.7,69.7"/>
</g>
<g id="path76570">
	<path fill="#FFFFFF" d="M46.7,41.2c-0.2,0-0.5,0-0.7,0.1c0,0-0.1,0-0.2,0c-0.1,0.1-0.1,0.3-0.1,0.4c0,0.2,0.2,0.2,0.4,0.2
		c0.1,0,0.3,0,0.4,0c0.1,0,0.2-0.2,0.3-0.2c0.3-0.1,0.7-0.1,1,0c0.2,0,0.4,0.1,0.5,0s0.2-0.1,0.3-0.2c0.2-0.1,0.3,0,0.5,0
		c0.1,0,0.2,0,0.3-0.1c0,0,0.1,0.1,0.2,0c0.1,0,0.2,0,0.4,0l0,0c0.1,0.1,0.1-0.2,0.2,0l0,0c0.1,0,0.2,0,0.3,0s0-0.1,0.1-0.1
		s0.2-0.1,0.3-0.1c0.1-0.1,0.3,0,0.4,0c0.1,0,0.1-0.1,0.1-0.1c0.1,0,0.2,0,0.3,0v0.1h0.1c0,0.1,0,0.1,0.1,0.1c0.2,0,0.5,0.1,0.6-0.1
		c0,0,0.1,0,0.2,0c0.1,0,0.2,0.1,0.3,0c0,0,0,0,0-0.1c0.2,0,0.3,0,0.4,0.1c0.3,0.1,0.7,0.3,1,0.2c0.1,0,0.2-0.1,0.2-0.2
		c0-0.1,0-0.2,0-0.2c-0.1-0.2-0.3-0.3-0.5-0.3c0,0,0-0.1-0.1-0.1c-0.3,0-0.6,0-0.8-0.1v-0.1c-0.2-0.1-0.5-0.1-0.7-0.1
		c-0.2,0.1-0.4,0.2-0.6,0.3c-0.2,0-0.4-0.1-0.6-0.1c-0.2,0-0.4,0.1-0.5,0.2c0,0-0.2,0.1-0.2,0s-0.1-0.1-0.2-0.1c-0.2,0-0.3,0-0.5,0
		c-0.1,0-0.1,0-0.2,0c0-0.1-0.1-0.2-0.1-0.3c-0.2-0.1-0.4-0.1-0.6-0.1l-0.1,0.1c-0.1,0.1-0.2,0.1-0.3,0.1l0,0
		C48.5,40.9,48.2,41,48,41s-0.4,0-0.5,0C47.2,40.9,46.9,40.9,46.7,41.2"/>
</g>
<g id="path76571">
	<path fill="#FFFFFF" d="M46.5,42.8c-0.2,0-0.3-0.1-0.4,0c-0.1,0.1,0,0.2,0,0.2c0.1,0.1,0.3,0.1,0.4,0.1c0.2,0.4,0.7,0.5,1,0.4
		c0.1,0,0.2-0.3,0.4-0.3c0.3,0,0.6,0.1,1,0.1c0.3,0.1,0.7,0.1,1-0.1c0.2-0.1,0.3,0.1,0.4,0.1c0,0,0,0.1,0.1,0.1c0.2,0,0.4,0,0.6,0
		c0.2,0,0.3,0.1,0.5,0c0.1,0,0.2-0.1,0.2-0.2c0,0,0.1,0,0.2,0c0.1,0,0.2-0.1,0.3,0c0-0.1,0.1,0,0.2-0.1l0,0c0.3,0.1,0.6,0,0.9,0.1
		c0.2,0,0.3,0.1,0.5,0c0.1,0,0.2-0.2,0.2-0.3c-0.1-0.2-0.4-0.1-0.6-0.2c-0.2,0-0.3,0-0.5,0c-0.1-0.1-0.3-0.1-0.4-0.2
		c-0.2-0.1-0.3-0.2-0.4-0.3c-0.2-0.1-0.4-0.1-0.6,0.1l0,0c-0.1,0.1-0.3,0.1-0.5,0.1c-0.1,0-0.2-0.1-0.4-0.1h-0.1
		c-0.1,0-0.1,0.1-0.2,0.1c-0.1,0-0.2-0.1-0.2,0L50,42.5c-0.2,0.1-0.4,0.2-0.6,0.1c0,0,0,0,0-0.1h-0.1c-0.1-0.2-0.4-0.2-0.5-0.2l0,0
		c-0.2,0-0.3,0.1-0.5,0s-0.3-0.2-0.5-0.1c0,0-0.1,0-0.1,0.1c-0.1,0-0.1,0-0.2,0c-0.2-0.1-0.4-0.1-0.5,0
		C46.7,42.7,46.5,42.7,46.5,42.8C46.5,42.9,46.5,42.8,46.5,42.8"/>
</g>
<g id="path76572">
	<path fill="#FFFFFF" d="M54.3,44.4c-0.2-0.1-0.5-0.2-0.7,0c-0.1,0.2-0.2,0.5,0.1,0.6c0,0,0.1,0,0.2,0c0.2,0,0.5,0.1,0.7-0.1v-0.1
		c0.2,0,0.4,0,0.6,0c0.1,0,0.2,0.2,0.4,0.2c0.1,0,0.1,0.1,0.2,0.1c0.1,0,0.2,0,0.2,0c0-0.1,0-0.1,0.2-0.2c0.1,0,0.2,0,0.4,0
		s0.3,0.1,0.5,0.2c0.1,0,0.2,0,0.3-0.1c0,0,0.1,0,0.2,0v-0.1c0.1,0,0.1,0,0.2,0l0.1,0.1c0.1,0,0.2,0,0.3,0c0.2,0.1,0.3,0,0.4-0.1
		c0.1,0,0.2-0.1,0.2-0.1c0.1,0,0.2,0,0.2,0c0.1,0,0.2,0,0.2,0s0-0.1,0.1-0.1c0.2,0,0.4,0,0.6,0c0.2-0.1,0.4-0.4,0.2-0.6
		c-0.2-0.2-0.5-0.1-0.7,0h-0.1v0.1c-0.2,0-0.4,0-0.6,0c-0.2,0.1-0.4,0.1-0.5,0c-0.1,0-0.2,0-0.3,0c0,0,0,0-0.1,0
		c-0.2,0-0.4,0.3-0.7,0.2c-0.1,0-0.2-0.1-0.2-0.2c0,0,0,0-0.1,0c-0.2-0.1-0.4-0.1-0.6-0.1l-0.1,0.1c-0.4,0-0.7,0-1-0.1
		c-0.1,0-0.1,0-0.2,0c-0.1,0-0.2,0-0.3,0C54.5,44.1,54.4,44.2,54.3,44.4"/>
</g>
<g id="path76573">
	<path fill="#FFFFFF" d="M60.1,46c-0.2,0-0.4-0.2-0.6,0c-0.2,0.1,0,0.3,0.1,0.4c0.1,0.1,0.2,0.1,0.4,0.2c0.2,0,0.4,0,0.6,0
		c0.1,0,0.2-0.1,0.2-0.2c0,0,0.1,0,0.2,0l0,0c0.2,0,0.4-0.1,0.6,0h0.1c0.1,0.1,0.2,0.2,0.3,0.1c0.2-0.1,0.1-0.4,0.1-0.6
		c0-0.1-0.2-0.1-0.3-0.1h-0.1c-0.2,0.1-0.3,0.1-0.5,0.1c-0.3-0.1-0.6-0.2-0.9,0L60.1,46"/>
</g>
<g id="path76574">
	<path fill="#FFFFFF" d="M59.4,47C59.5,47,59.4,46.9,59.4,47C59.4,46.9,59.4,47,59.4,47c-0.3,0-0.6,0.1-0.8,0c-0.1,0-0.2-0.1-0.4,0
		c0,0-0.1,0-0.2,0c0,0,0,0.1,0,0c-0.1,0-0.1,0,0,0c-0.2,0-0.3,0-0.4,0c-0.1-0.1-0.3-0.2-0.4-0.1L57.1,47c-0.1,0-0.2,0-0.4,0
		c-0.2-0.1-0.5,0-0.7,0.1c-0.1,0-0.2,0-0.2,0c-0.1,0-0.2-0.1-0.2-0.2c-0.2,0-0.4,0-0.6,0.1c-0.1,0-0.3,0-0.4-0.1c0,0,0,0,0-0.1
		c-0.3,0-0.8-0.1-0.8,0.3c0,0.1,0.1,0.2,0.1,0.2c0.4,0.2,0.8,0.3,1.2,0.3l0,0c0.1,0,0.2,0,0.2-0.1c0.1,0,0.2,0,0.3,0
		c0.3,0.2,0.6,0.2,0.9,0.2c0.1-0.2,0.3-0.1,0.5-0.2v0.1c0.1,0,0.1,0,0.2,0c0.2,0,0.3,0,0.5,0c0,0,0,0,0-0.1c0.1,0,0.1,0,0.2,0v-0.1
		c0.2,0,0.3,0,0.5,0c0,0,0.1,0,0.2,0c0.1,0,0.1-0.1,0.2-0.1c0,0,0.1,0,0.2,0.1c0.1,0,0.3,0,0.4,0c0.2-0.1,0.1-0.4,0.1-0.6
		C59.6,47,59.5,47,59.4,47"/>
</g>
<g id="path76575">
	<path fill="#FFFFFF" d="M53.8,48.5c-0.2,0-0.3,0-0.4,0.1c-0.2,0.1-0.4,0-0.5,0.1s-0.2,0-0.4,0c0,0.1,0,0.2,0,0.2
		c0.1,0.1,0.2,0.2,0.3,0.2c0.2,0,0.4,0,0.6,0c0.1,0,0.1-0.1,0.2-0.2c0.1-0.1,0.3,0,0.4-0.1c0.2,0.4,0.7,0.2,1.1,0.3
		c0.1-0.2,0.4-0.3,0.4-0.5c-0.1,0-0.1,0-0.2,0c-0.1-0.1-0.2-0.2-0.4-0.1c-0.2,0.1-0.5,0.2-0.7,0.1C54.1,48.7,54,48.5,53.8,48.5"/>
</g>
<g id="path76576">
	<path fill="#FFFFFF" d="M42.4,45.7l0.8-0.4l1.2,3.1l-0.8,0.5L42.4,45.7"/>
</g>
<g id="path76577">
	<path fill="#FFFFFF" d="M44,44.7l0.9,3.7l0.8-0.2l-0.8-3.7L44,44.7"/>
</g>
<g id="path76578">
	<path fill="#FFFFFF" d="M46.2,44.2l-0.1,4l0.8,0.2l0.2-4.2H46.2"/>
</g>
<g id="path76579">
	<path fill="#FFFFFF" d="M47,48.7l0.3,0.6l2.1-2.8L49,45.8L47,48.7"/>
</g>
<g id="path76580">
	<path fill="#FFFFFF" d="M47.5,49.6l0.1,0.6l2.8-1.4v-0.9L47.5,49.6"/>
</g>
<g id="path76581">
	<path fill="#FFFFFF" d="M47.7,50.5v0.6l2.8-0.8v-0.7L47.7,50.5"/>
</g>
<g id="path76582">
	<path fill="#E8D9A8" d="M53.5,53.3c0,0,0.2-0.6,0.3-0.6s1.3-0.9,2-1c0.6-0.1,1,0,1.5-0.1c0.6-0.1,2.2,0.1,2.2,0.1s-0.1,0.4-0.3,0.4
		s-0.8-0.4-1.4-0.2c-0.5,0.1-1,0-1.5,0s-1.1,0.2-1.4,0.5c-0.3,0.3-0.6,0.8-0.6,0.8L53.5,53.3"/>
</g>
<g id="path76583">
	<path fill="#FFFFFF" d="M49.4,56.1c0,0,0.2,0.2,0.4,0.3s0.6,0.4,0.7,0.4c0.1,0.1,0.7,0.2,0.9,0s1.4-0.4,1.8-0.2
		c0.4,0.1,2.1,0.5,2.3,0.3s0.5-0.6,1.1-0.5s2.3-0.1,2.5,0s1.5,0.3,1.6,0.1c0.1-0.1,0.6-0.4,1.1-0.4c0.6,0,1.2,0,1.6,0.1
		c0.4,0.1,1.2-0.1,1.5-0.1c0.3-0.1,1.1-0.1,1.3-0.2c0.1-0.1,0.1-0.3,0.1-0.3s-0.8-0.1-1.1,0c-0.3,0.1-1.6,0.3-1.8,0.1
		c-0.2-0.1-0.8-0.2-1.2-0.2s-3.1,0.1-3.3,0.1s-1.6,0.2-2,0.2s-0.8,0-1.2,0s-2,0-2.3,0s-0.9,0.1-1.2,0.1s-1.9,0.1-2,0.1
		C50,56.1,49.4,56.1,49.4,56.1"/>
</g>
<g id="path76584">
	<path fill="#FFFFFF" d="M63.8,57.2L63.8,57.2L63.8,57.2L63.8,57.2L63.8,57.2C64,57.2,63.9,57.2,63.8,57.2L63.8,57.2L63.8,57.2
		L63.8,57.2C63.8,57.1,63.8,57.2,63.8,57.2"/>
</g>
<g id="path76585">
	<path fill="#FFFFFF" d="M63.6,57.3h-0.2l0,0c0,0,0-0.1-0.1,0c0,0.1-0.1,0-0.2,0l0,0c0.1-0.1,0.1,0,0.2-0.1c0,0.1,0,0.1,0.1,0.1
		C63.4,57.2,63.5,57.2,63.6,57.3C63.7,57.2,63.8,57.3,63.6,57.3"/>
</g>
<g id="path76586">
	<path fill="#FFFFFF" d="M62.1,57.2c0,0-0.1,0.1-0.2,0.1c-0.1-0.1-0.2,0-0.3,0.1l-0.1-0.1l0,0C61.6,57.4,61.9,57.2,62.1,57.2"/>
</g>
<g id="path76587">
	<path fill="#FFFFFF" d="M61.3,57.3L61.3,57.3c-0.2-0.1-0.4,0-0.5,0.1l0,0c-0.3,0.2-0.9-0.1-1.3,0.2c-0.1,0-0.2,0-0.2,0
		c0.4,0,0.7-0.2,1-0.1c0.2,0,0.5,0,0.6-0.1v-0.1c0,0,0,0,0.1,0v-0.1C61.1,57.3,61.2,57.3,61.3,57.3"/>
</g>
<g id="path76588">
	<path fill="#FFFFFF" d="M62.6,57.3L62.6,57.3L62.6,57.3L62.6,57.3L62.6,57.3L62.6,57.3c0.2,0,0.3,0,0.4-0.1
		C63,57.2,62.9,57.4,62.6,57.3L62.6,57.3c0,0-0.2-0.1-0.3-0.1v-0.1C62.4,57.3,62.5,57.3,62.6,57.3"/>
</g>
<g id="path76589">
	<path fill="#FFFFFF" d="M58.7,58.2L58.7,58.2c-0.2,0.1-0.5,0.1-0.8,0.1C58.1,58.1,58.4,58.2,58.7,58.2L58.7,58.2"/>
</g>
<g id="path76590">
	<path fill="#FFFFFF" d="M59.1,59.1L59.1,59.1C59.1,59.1,59.1,59.2,59.1,59.1L59.1,59.1L59.1,59.1c0.3,0.1,0.4-0.1,0.6,0v0.1h-0.1
		l0,0h-0.2v0.1c0,0,0,0-0.1,0c-0.1,0.1,0,0,0,0l-0.1-0.1v0.1v-0.1C59.2,59.3,59.1,59.2,59.1,59.1c-0.1-0.1-0.3,0-0.2-0.1
		C59,59,59,59.1,59.1,59.1"/>
</g>
<g id="path76591">
	<path fill="#FFFFFF" d="M58.4,59.1c-0.1,0.3-0.5,0.2-0.7,0.2c-0.2-0.1-0.5,0-0.6,0c0.1-0.1,0.1-0.1,0.2-0.1l0,0
		c0.1-0.1,0.2-0.1,0.2-0.1c0.1-0.2,0.2,0.2,0.4,0c0,0,0,0,0,0.1c0.1,0.1,0.1,0,0.2,0C58.1,59.2,58.2,59.1,58.4,59.1L58.4,59.1
		L58.4,59.1L58.4,59.1"/>
</g>
<g id="path76592">
	<path fill="#FFFFFF" d="M62.6,60.1c0.2-0.1,0.4-0.2,0.6-0.1c0.1,0,0.4,0.3,0.6,0.1C63.9,60,64,60,64.2,60c-0.2,0.2-0.4,0-0.6,0.2
		l0,0c-0.1,0.1-0.2,0.1-0.4,0C63.1,60,62.9,60,62.8,60c-0.2,0.1-0.4,0.2-0.6,0.1C62,59.7,61.5,60,61.1,60c0.4,0,0.8-0.3,1.1,0.1
		H62.6"/>
</g>
<g id="path76593">
	<path fill="#FFFFFF" d="M58.2,60.8L58.2,60.8c0.1,0.2,0.4,0.2,0.6,0.1c0.2-0.3,0.6,0.3,0.9,0c0-0.1-0.1-0.1-0.1-0.1
		c0.1,0.1,0.3,0.1,0.4,0l0.1-0.1c0.1,0.2-0.2,0.1-0.3,0.3c-0.3,0.1-0.6,0.2-0.9-0.1c-0.2,0.1-0.5,0.3-0.8,0.1
		c-0.1-0.4-0.3-0.1-0.5-0.1C57.5,61,57.4,61,57.3,61c0.3-0.2,0.4-0.2,0.7-0.3C58,60.8,58.2,60.6,58.2,60.8"/>
</g>
<g id="path76594">
	<path fill="#FFFFFF" d="M62.4,61.7C62.4,61.8,62.5,61.7,62.4,61.7c-0.2,0-0.4,0.5-0.8,0.3c-0.2,0-0.5,0-0.6,0
		c-0.2,0.1-0.4,0.1-0.5,0.1c0.3,0.1,0.6-0.1,0.8-0.2c0.2,0.2,0.5,0.1,0.8,0C62.1,61.8,62.2,61.7,62.4,61.7"/>
</g>
<g id="path76595">
	<path fill="#FFFFFF" d="M62.5,61.7L62.5,61.7L62.5,61.7"/>
</g>
<g id="path76596">
	<path fill="#FFFFFF" d="M62.7,61.8C62.7,61.9,62.6,61.8,62.7,61.8L62.7,61.8C62.7,61.8,62.7,61.7,62.7,61.8"/>
</g>
<g id="path76597">
	<path fill="#FFFFFF" d="M61.8,63.8C61.8,63.9,61.8,63.9,61.8,63.8C61.9,63.9,61.9,63.8,61.8,63.8c0.2-0.1,0.2,0,0.3-0.1
		C62.1,63.7,62,63.9,61.8,63.8C61.8,63.8,61.9,63.9,61.8,63.8c-0.2,0.2-0.4-0.5-0.8-0.3c-0.2-0.1-0.4,0.2-0.6-0.1
		c0.2,0.1,0.5-0.1,0.7-0.1C61.5,63.4,61.5,63.9,61.8,63.8"/>
</g>
<g id="path76598">
	<path fill="#FFFFFF" d="M62.8,63.8L62.8,63.8l0.2-0.1C63,63.8,62.9,63.8,62.8,63.8L62.8,63.8c-0.1-0.1-0.2,0.1-0.2,0c0,0,0,0,0,0.1
		c-0.2-0.1-0.2,0-0.4,0L62.1,64c0-0.3,0.3-0.2,0.5-0.2C62.6,63.8,62.8,63.9,62.8,63.8"/>
</g>
<g id="path76599">
	<path fill="#FFFFFF" d="M63.2,58.4c-0.1,0.3-0.5,0.2-0.7,0.2c-0.2-0.1-0.5,0-0.6,0c0.1-0.1,0.1-0.1,0.2-0.1l0,0
		c0.1-0.1,0.2-0.1,0.2-0.1c0.1-0.2,0.2,0.2,0.4,0c0,0,0,0,0,0.1c0.1,0.1,0.1,0,0.2,0C62.9,58.6,63,58.4,63.2,58.4L63.2,58.4
		L63.2,58.4L63.2,58.4"/>
</g>
<g id="path76600">
	<path fill="#FFFFFF" d="M62.2,57.9L62.2,57.9C62,58.1,61.7,58,61.4,58C61.6,57.8,61.9,57.9,62.2,57.9L62.2,57.9"/>
</g>
<g id="path76601">
	<path fill="#FFFFFF" d="M62.5,58.9L62.5,58.9C62.6,58.9,62.6,58.9,62.5,58.9L62.5,58.9L62.5,58.9c0.3,0.1,0.4-0.1,0.6,0V59H63l0,0
		h-0.2l0,0c0,0,0,0-0.1,0c-0.1,0.1,0,0,0,0l-0.1-0.1V59v-0.1C62.7,59,62.6,59,62.5,58.9s-0.3,0-0.2-0.1
		C62.5,58.7,62.5,58.8,62.5,58.9"/>
</g>
<g id="path76602">
	<path fill="#FFFFFF" d="M62.2,58.9c-0.1,0.3-0.5,0.2-0.7,0.2c-0.2-0.1-0.5,0-0.6,0C61,59,61,59,61.1,59l0,0
		c0.1-0.1,0.2-0.1,0.2-0.1c0.1-0.2,0.2,0.2,0.4,0c0,0,0,0,0,0.1c0.1,0.1,0.1,0,0.2,0C61.9,59.1,62.1,58.9,62.2,58.9L62.2,58.9
		L62.2,58.9L62.2,58.9"/>
</g>
<g id="path76603">
	<path fill="#FFFFFF" d="M58.5,56.9c-0.1,0.3-0.5,0.2-0.7,0.2c-0.2-0.1-0.5,0-0.6,0c0.1-0.1,0.1-0.1,0.2-0.1l0,0
		c0.1-0.1,0.2-0.1,0.2-0.1c0.1-0.2,0.2,0.2,0.4,0c0,0,0,0,0,0.1c0.1,0.1,0.1,0,0.2,0C58.2,57,58.4,56.9,58.5,56.9L58.5,56.9
		L58.5,56.9L58.5,56.9"/>
</g>
<g id="path76604">
	<path fill="#FFFFFF" d="M57.9,56.7L57.9,56.7c-0.2,0.1-0.5,0.1-0.8,0.1C57.2,56.6,57.5,56.7,57.9,56.7L57.9,56.7"/>
</g>
<g id="path76605">
	<path fill="#FFFFFF" d="M58.2,57.6L58.2,57.6C58.2,57.6,58.2,57.7,58.2,57.6L58.2,57.6L58.2,57.6c0.3,0.1,0.4-0.1,0.6,0v0.1h-0.1
		l0,0h-0.2v0.1c0,0,0,0-0.1,0c-0.1,0.1,0,0,0,0l-0.1-0.1v0.1v-0.1C58.3,57.8,58.2,57.8,58.2,57.6c-0.1-0.1-0.3,0-0.2-0.1
		C58.1,57.5,58.1,57.6,58.2,57.6"/>
</g>
<g id="path76606">
	<path fill="#FFFFFF" d="M57.8,57.7c-0.1,0.3-0.5,0.2-0.7,0.2c-0.2-0.1-0.5,0-0.6,0c0.1-0.1,0.1-0.1,0.2-0.1l0,0
		c0.1-0.1,0.2-0.1,0.2-0.1c0.1-0.2,0.2,0.2,0.4,0c0,0,0,0,0,0.1c0.1,0.1,0.1,0,0.2,0C57.5,57.8,57.7,57.7,57.8,57.7L57.8,57.7
		L57.8,57.7L57.8,57.7"/>
</g>
<g id="path76607">
	<path fill="#FFFFFF" d="M60.5,61.5c-0.1,0.3-0.5,0.2-0.7,0.2c-0.2-0.1-0.5,0-0.6,0c0.1-0.1,0.1-0.1,0.2-0.1l0,0
		c0.1-0.1,0.2-0.1,0.2-0.1c0.1-0.2,0.2,0.2,0.4,0c0,0,0,0,0,0.1c0.1,0.1,0.1,0,0.2,0C60.2,61.6,60.4,61.5,60.5,61.5L60.5,61.5
		L60.5,61.5L60.5,61.5"/>
</g>
<g id="path76608">
	<path fill="#FFFFFF" d="M59.6,61L59.6,61c-0.2,0.1-0.5,0.1-0.8,0.1C58.9,60.9,59.2,61,59.6,61L59.6,61"/>
</g>
<g id="path76609">
	<path fill="#FFFFFF" d="M59.9,62L59.9,62L59.9,62L59.9,62L59.9,62c0.3,0.1,0.4-0.1,0.6,0v0.1h-0.1l0,0h-0.2v0.1c0,0,0,0-0.1,0
		c-0.1,0.1,0,0,0,0L60,62.1v0.1v-0.1C60,62.1,59.9,62.1,59.9,62c-0.1-0.1-0.3,0-0.2-0.1C59.8,61.8,59.9,61.9,59.9,62"/>
</g>
<g id="path76610">
	<path fill="#FFFFFF" d="M59.5,61.9c-0.1,0.3-0.5,0.2-0.7,0.2c-0.2-0.1-0.5,0-0.6,0c0.1-0.1,0.1-0.1,0.2-0.1l0,0
		c0.1-0.1,0.2-0.1,0.2-0.1c0.1-0.2,0.2,0.2,0.4,0c0,0,0,0,0,0.1c0.1,0.1,0.1,0,0.2,0C59.2,62,59.4,61.9,59.5,61.9L59.5,61.9
		L59.5,61.9L59.5,61.9"/>
</g>
<g id="path76611">
	<path fill="#FFFFFF" d="M63.2,60.2c-0.1,0.3-0.5,0.2-0.7,0.2c-0.2-0.1-0.5,0-0.6,0c0.1-0.1,0.1-0.1,0.2-0.1l0,0
		c0.1-0.1,0.2-0.1,0.2-0.1c0.1-0.2,0.2,0.2,0.4,0c0,0,0,0,0,0.1c0.1,0.1,0.1,0,0.2,0C62.9,60.3,63.1,60.2,63.2,60.2L63.2,60.2
		L63.2,60.2L63.2,60.2"/>
</g>
<g id="path76612">
	<path fill="#FFFFFF" d="M62.2,59.7L62.2,59.7c-0.2,0.1-0.5,0.1-0.8,0.1C61.6,59.6,61.9,59.7,62.2,59.7L62.2,59.7"/>
</g>
<g id="path76613">
	<path fill="#FFFFFF" d="M62.6,60.7L62.6,60.7L62.6,60.7L62.6,60.7L62.6,60.7c0.3,0.1,0.4-0.1,0.6,0v0.1h-0.1l0,0h-0.2v0.1
		c0,0,0,0-0.1,0c-0.1,0.1,0,0,0,0l-0.1-0.1v0.1v-0.1C62.7,60.8,62.6,60.8,62.6,60.7c-0.1-0.1-0.3,0-0.2-0.1
		C62.5,60.5,62.5,60.6,62.6,60.7"/>
</g>
<g id="path76614">
	<path fill="#FFFFFF" d="M62.2,60.7c-0.1,0.3-0.5,0.2-0.7,0.2c-0.2-0.1-0.5,0-0.6,0c0.1-0.1,0.1-0.1,0.2-0.1l0,0
		c0.1-0.1,0.2-0.1,0.2-0.1c0.1-0.2,0.2,0.2,0.4,0c0,0,0,0,0,0.1c0.1,0.1,0.1,0,0.2,0C61.9,60.9,62.1,60.7,62.2,60.7L62.2,60.7
		L62.2,60.7L62.2,60.7"/>
</g>
<g id="path76615">
	<path fill="#FFFFFF" d="M59.5,59.4c-0.1,0.3-0.5,0.2-0.7,0.2c-0.2-0.1-0.5,0-0.6,0c0.1-0.1,0.1-0.1,0.2-0.1l0,0
		c0.1-0.1,0.2-0.1,0.2-0.1c0.1-0.2,0.2,0.2,0.4,0c0,0,0,0,0,0.1c0.1,0.1,0.1,0,0.2,0C59.2,59.5,59.4,59.4,59.5,59.4L59.5,59.4
		L59.5,59.4L59.5,59.4"/>
</g>
<g id="path76616">
	<path fill="#FFFFFF" d="M58.6,58.9L58.6,58.9C58.3,59,58,59,57.8,59C57.9,58.8,58.2,58.9,58.6,58.9L58.6,58.9"/>
</g>
<g id="path76617">
	<path fill="#FFFFFF" d="M58.9,59.9L58.9,59.9L58.9,59.9L58.9,59.9L58.9,59.9c0.3,0.1,0.4-0.1,0.6,0V60h-0.1l0,0h-0.2v0.1
		c0,0,0,0-0.1,0c-0.1,0.1,0,0,0,0L59,60v0.1V60C59,60,58.9,60,58.9,59.9c-0.1-0.1-0.3,0-0.2-0.1C58.8,59.7,58.9,59.8,58.9,59.9"/>
</g>
<g id="path76618">
	<path fill="#FFFFFF" d="M58.4,59.9c-0.1,0.3-0.5,0.2-0.7,0.2c-0.2-0.1-0.5,0-0.6,0c0.1-0.1,0.1-0.1,0.2-0.1l0,0
		c0.1-0.1,0.2-0.1,0.2-0.1c0.1-0.2,0.2,0.2,0.4,0c0,0,0,0,0,0.1c0.1,0.1,0.1,0,0.2,0C58.1,60,58.3,59.9,58.4,59.9L58.4,59.9
		L58.4,59.9L58.4,59.9"/>
</g>
<g id="path76619">
	<path fill="#FFFFFF" d="M64.9,61.7c-0.1,0.3-0.5,0.2-0.7,0.2c-0.2-0.1-0.5,0-0.6,0c0.1-0.1,0.1-0.1,0.2-0.1l0,0
		c0.1-0.1,0.2-0.1,0.2-0.1c0.1-0.2,0.2,0.2,0.4,0c0,0,0,0,0,0.1c0.1,0.1,0.1,0,0.2,0C64.6,61.8,64.8,61.7,64.9,61.7L64.9,61.7
		L64.9,61.7L64.9,61.7"/>
</g>
<g id="path76620">
	<path fill="#FFFFFF" d="M64,61.2L64,61.2c-0.2,0.1-0.5,0.1-0.8,0.1C63.3,61.1,63.6,61.2,64,61.2L64,61.2"/>
</g>
<g id="path76621">
	<path fill="#FFFFFF" d="M64.3,62.1L64.3,62.1C64.3,62.1,64.3,62.2,64.3,62.1L64.3,62.1L64.3,62.1c0.3,0.1,0.4-0.1,0.6,0v0.1h-0.1
		l0,0h-0.2v0.1c0,0,0,0-0.1,0c-0.1,0.1,0,0,0,0l-0.1-0.1v0.1v-0.1C64.4,62.3,64.3,62.3,64.3,62.1c-0.1-0.1-0.3,0-0.2-0.1
		C64.2,62,64.3,62.1,64.3,62.1"/>
</g>
<g id="path76622">
	<path fill="#FFFFFF" d="M64,62.2c-0.1,0.3-0.5,0.2-0.7,0.2c-0.2-0.1-0.5,0-0.6,0c0.1-0.1,0.1-0.1,0.2-0.1l0,0
		c0.1-0.1,0.2-0.1,0.2-0.1c0.1-0.2,0.2,0.2,0.4,0c0,0,0,0,0,0.1c0.1,0.1,0.1,0,0.2,0C63.7,62.3,63.8,62.2,64,62.2L64,62.2L64,62.2
		L64,62.2"/>
</g>
<g id="path76623">
	<path fill="#FFFFFF" d="M61.7,58.3c-0.1,0.3-0.5,0.2-0.7,0.2c-0.2-0.1-0.5,0-0.6,0c0.1-0.1,0.1-0.1,0.2-0.1l0,0
		c0.1-0.1,0.2-0.1,0.2-0.1c0.1-0.2,0.2,0.2,0.4,0c0,0,0,0,0,0.1c0.1,0.1,0.1,0,0.2,0C61.4,58.4,61.5,58.3,61.7,58.3L61.7,58.3
		L61.7,58.3L61.7,58.3"/>
</g>
<g id="path76624">
	<path fill="#FFFFFF" d="M60.7,57.8L60.7,57.8c-0.2,0.1-0.5,0.1-0.8,0.1C60.1,57.7,60.4,57.8,60.7,57.8L60.7,57.8"/>
</g>
<g id="path76625">
	<path fill="#FFFFFF" d="M61.1,58.8L61.1,58.8L61.1,58.8L61.1,58.8L61.1,58.8c0.3,0.1,0.4-0.1,0.6,0v0.1h-0.1l0,0h-0.2V59
		c0,0,0,0-0.1,0c-0.1,0.1,0,0,0,0l-0.1-0.1V59v-0.1C61.2,58.9,61.1,58.9,61.1,58.8c-0.1-0.1-0.3,0-0.2-0.1
		C61,58.6,61,58.7,61.1,58.8"/>
</g>
<g id="path76626">
	<path fill="#FFFFFF" d="M60.7,58.8C60.6,59.1,60.3,59,60,59c-0.2-0.1-0.5,0-0.6,0c0.1-0.1,0.1-0.1,0.2-0.1l0,0
		c0.1-0.1,0.2-0.1,0.2-0.1c0.1-0.2,0.2,0.2,0.4,0c0,0,0,0,0,0.1c0.1,0.1,0.1,0,0.2,0C60.4,58.9,60.6,58.8,60.7,58.8L60.7,58.8
		L60.7,58.8L60.7,58.8"/>
</g>
<g id="path76627">
	<path fill="#FFFFFF" d="M65.6,58.2c-0.1,0.3-0.5,0.2-0.7,0.2c-0.2-0.1-0.5,0-0.6,0c0.1-0.1,0.1-0.1,0.2-0.1l0,0
		c0.1-0.1,0.2-0.1,0.2-0.1c0.1-0.2,0.2,0.2,0.4,0c0,0,0,0,0,0.1c0.1,0.1,0.1,0,0.2,0C65.3,58.3,65.5,58.2,65.6,58.2L65.6,58.2
		L65.6,58.2L65.6,58.2"/>
</g>
<g id="path76628">
	<path fill="#FFFFFF" d="M64.7,57.7L64.7,57.7c-0.2,0.1-0.5,0.1-0.8,0.1C64,57.6,64.3,57.7,64.7,57.7L64.7,57.7"/>
</g>
<g id="path76629">
	<path fill="#FFFFFF" d="M65,58.7L65,58.7L65,58.7L65,58.7L65,58.7c0.3,0.1,0.4-0.1,0.6,0v0.1h-0.1l0,0h-0.2v0.1c0,0,0,0-0.1,0
		c-0.1,0.1,0,0,0,0l-0.1-0.1v0.1v-0.1C65.1,58.8,65,58.8,65,58.7c-0.1-0.1-0.3,0-0.2-0.1C64.9,58.5,65,58.6,65,58.7"/>
</g>
<g id="path76630">
	<path fill="#FFFFFF" d="M64.7,58.7C64.5,59,64.2,58.9,64,59c-0.2-0.1-0.5,0-0.6,0c0.1-0.1,0.1-0.1,0.2-0.1l0,0
		c0.1-0.1,0.2-0.1,0.2-0.1c0.1-0.2,0.2,0.2,0.4,0c0,0,0,0,0,0.1c0.1,0.1,0.1,0,0.2,0C64.4,58.9,64.5,58.7,64.7,58.7L64.7,58.7
		L64.7,58.7L64.7,58.7"/>
</g>
<g id="path76631">
	<path fill="#FFFFFF" d="M66.1,57.3c-0.1,0.3-0.5,0.2-0.7,0.2c-0.2-0.1-0.5,0-0.6,0c0.1-0.1,0.1-0.1,0.2-0.1l0,0
		c0.1-0.1,0.2-0.1,0.2-0.1c0.1-0.2,0.2,0.2,0.4,0c0,0,0,0,0,0.1c0.1,0.1,0.1,0,0.2,0C65.8,57.4,66,57.3,66.1,57.3L66.1,57.3
		L66.1,57.3L66.1,57.3"/>
</g>
<g id="path76632">
	<path fill="#FFFFFF" d="M65.2,56.8L65.2,56.8c-0.2,0.1-0.5,0.1-0.8,0.1C64.5,56.7,64.8,56.8,65.2,56.8L65.2,56.8"/>
</g>
<g id="path76633">
	<path fill="#FFFFFF" d="M65.5,57.8L65.5,57.8L65.5,57.8L65.5,57.8L65.5,57.8c0.3,0.1,0.4-0.1,0.6,0v0.1H66l0,0h-0.2V58
		c0,0,0,0-0.1,0c-0.1,0.1,0,0,0,0l-0.1-0.1V58v-0.1C65.7,57.9,65.5,57.9,65.5,57.8c-0.1-0.1-0.3,0-0.2-0.1
		C65.4,57.6,65.5,57.7,65.5,57.8"/>
</g>
<g id="path76634">
	<path fill="#FFFFFF" d="M65.2,57.8c-0.1,0.3-0.5,0.2-0.7,0.2c-0.2-0.1-0.5,0-0.6,0c0.1-0.1,0.1-0.1,0.2-0.1l0,0
		c0.1-0.1,0.2-0.1,0.2-0.1c0.1-0.2,0.2,0.2,0.4,0c0,0,0,0,0,0.1c0.1,0.1,0.1,0,0.2,0C64.9,57.9,65.1,57.8,65.2,57.8L65.2,57.8
		L65.2,57.8L65.2,57.8"/>
</g>
<g id="path76635">
	<path fill="#FFFFFF" d="M65.2,60.4c-0.1,0.3-0.5,0.2-0.7,0.2c-0.2-0.1-0.5,0-0.6,0c0.1-0.1,0.1-0.1,0.2-0.1l0,0
		c0.1-0.1,0.2-0.1,0.2-0.1c0.1-0.2,0.2,0.2,0.4,0c0,0,0,0,0,0.1c0.1,0.1,0.1,0,0.2,0C64.9,60.5,65.1,60.4,65.2,60.4L65.2,60.4
		L65.2,60.4L65.2,60.4"/>
</g>
<g id="path76636">
	<path fill="#FFFFFF" d="M64.3,59.9L64.3,59.9C64.1,60,63.8,60,63.5,60C63.6,59.8,64,59.9,64.3,59.9L64.3,59.9"/>
</g>
<g id="path76637">
	<path fill="#FFFFFF" d="M64.8,61L64.8,61C64.9,61,64.9,61,64.8,61H65l0,0c0.2,0.1,0.3-0.1,0.5,0v0.1h-0.1l0,0h-0.2v0.1
		c0,0,0,0-0.1,0c-0.1,0.1,0,0,0,0L65,61.1v0.1v-0.1C65,61.1,64.9,61.1,64.8,61s-0.3,0-0.2-0.1C64.8,60.8,64.8,60.9,64.8,61"/>
</g>
<g id="path76638">
	<path fill="#FFFFFF" d="M64.3,60.9c-0.1,0.3-0.5,0.2-0.7,0.2c-0.2-0.1-0.5,0-0.6,0c0-0.1,0-0.1,0.1-0.1l0,0
		c0.1-0.1,0.2-0.1,0.2-0.1c0.1-0.2,0.2,0.2,0.4,0c0,0,0,0,0,0.1c0.1,0.1,0.1,0,0.2,0C64,61,64.2,60.9,64.3,60.9L64.3,60.9L64.3,60.9
		L64.3,60.9"/>
</g>
<g id="path76639">
	<path fill="#FFFFFF" d="M53.1,57c-0.1,0.3-0.5,0.2-0.7,0.2c-0.2-0.1-0.5,0-0.6,0c0.1-0.1,0.1-0.1,0.2-0.1l0,0
		c0.1-0.1,0.2-0.1,0.2-0.1c0.1-0.2,0.2,0.2,0.4,0c0,0,0,0,0,0.1c0.1,0.1,0.1,0,0.2,0C52.8,57.2,52.9,57,53.1,57L53.1,57L53.1,57
		L53.1,57"/>
</g>
<g id="path76640">
	<path fill="#FFFFFF" d="M54,57.9L54,57.9L54,57.9L54,57.9L54,57.9c0.3,0.1,0.4-0.1,0.6,0V58h-0.1l0,0h-0.2v0.1c0,0,0,0-0.1,0
		c-0.1,0.1,0,0,0,0L54.1,58v0.1V58C54.1,58,54,58,54,57.9c-0.1-0.1-0.3,0-0.2-0.1C53.9,57.7,54,57.8,54,57.9"/>
</g>
<g id="path76641">
	<path fill="#FFFFFF" d="M53.9,57.3c-0.1,0.3-0.5,0.2-0.7,0.2c-0.2-0.1-0.5,0-0.6,0c0.1-0.1,0.1-0.1,0.2-0.1l0,0
		c0.1-0.1,0.2-0.1,0.2-0.1c0.1-0.2,0.2,0.2,0.4,0c0,0,0,0,0,0.1c0.1,0.1,0.1,0,0.2,0C53.6,57.4,53.8,57.3,53.9,57.3L53.9,57.3
		L53.9,57.3L53.9,57.3"/>
</g>
<g id="path76642">
	<path fill="#FFFFFF" d="M54.6,57.3L54.6,57.3L54.6,57.3L54.6,57.3L54.6,57.3c0.3,0.1,0.4-0.1,0.6,0v0.1h-0.1l0,0H55v0.1
		c0,0,0,0-0.1,0c-0.1,0.1,0,0,0,0l-0.1-0.1v0.1v-0.1C54.7,57.5,54.6,57.4,54.6,57.3c-0.1-0.1-0.3,0-0.2-0.1
		C54.5,57.1,54.5,57.2,54.6,57.3"/>
</g>
<g id="path76643">
	<path fill="#FFFFFF" d="M56.4,57L56.4,57L56.4,57L56.4,57L56.4,57c0.3,0.1,0.4-0.1,0.6,0v0.1h-0.1l0,0h-0.2v0.1c0,0,0,0-0.1,0
		c-0.1,0.1,0,0,0,0l-0.1-0.1v0.1v-0.1C56.5,57.1,56.4,57.1,56.4,57c-0.1-0.1-0.3,0-0.2-0.1C56.3,56.8,56.4,56.9,56.4,57"/>
</g>
<g id="path76644">
	<path fill="#FFFFFF" d="M58.8,56.8L58.8,56.8C58.8,56.8,58.8,56.9,58.8,56.8L58.8,56.8L58.8,56.8c0.3,0.1,0.4-0.1,0.6,0v0.1h-0.1
		l0,0h-0.2V57c0,0,0,0-0.1,0c-0.1,0.1,0,0,0,0l-0.1-0.1V57v-0.1C59,57,58.8,56.9,58.8,56.8c-0.1-0.1-0.3,0-0.2-0.1
		C58.7,56.7,58.8,56.8,58.8,56.8"/>
</g>
<g id="path76645">
	<path fill="#FFFFFF" d="M65.8,56.4c-0.1,0.3-0.5,0.2-0.7,0.2c-0.2-0.1-0.5,0-0.6,0c0.1-0.1,0.1-0.1,0.2-0.1l0,0
		c0.1-0.1,0.2-0.1,0.2-0.1c0.1-0.2,0.2,0.2,0.4,0c0,0,0,0,0,0.1c0.1,0.1,0.1,0,0.2,0C65.5,56.5,65.7,56.4,65.8,56.4L65.8,56.4
		L65.8,56.4L65.8,56.4"/>
</g>
<g id="path76646">
	<path fill="#FFFFFF" d="M61.1,59.5c-0.1,0.3-0.5,0.2-0.7,0.2c-0.2-0.1-0.5,0-0.6,0c0.1-0.1,0.1-0.1,0.2-0.1l0,0
		c0.1-0.1,0.2-0.1,0.2-0.1c0.1-0.2,0.2,0.2,0.4,0c0,0,0,0,0,0.1c0.1,0.1,0.1,0,0.2,0C60.8,59.6,61,59.5,61.1,59.5L61.1,59.5
		L61.1,59.5L61.1,59.5"/>
</g>
<g id="path76647">
	<path fill="#FFFFFF" d="M64.4,63.1c-0.1,0.3-0.5,0.2-0.7,0.2c-0.2-0.1-0.5,0-0.6,0c0.1-0.1,0.1-0.1,0.2-0.1l0,0
		c0.1-0.1,0.2-0.1,0.2-0.1c0.1-0.2,0.2,0.2,0.4,0c0,0,0,0,0,0.1c0.1,0.1,0.1,0,0.2,0C64.1,63.2,64.3,63.1,64.4,63.1L64.4,63.1
		L64.4,63.1L64.4,63.1"/>
</g>
<g id="path76648">
	<path fill="#FFFFFF" d="M64.6,53.7c0.3,0.1,0.2,0.5,0.2,0.7c-0.1,0.2,0,0.5,0,0.6c-0.1-0.1-0.1-0.1-0.1-0.2l0,0
		c-0.1-0.1-0.1-0.2-0.1-0.2c-0.2-0.1,0.2-0.2,0-0.4c0,0,0,0,0.1,0c0.1-0.1,0-0.1,0-0.2C64.7,54,64.6,53.8,64.6,53.7L64.6,53.7
		L64.6,53.7L64.6,53.7"/>
</g>
<g id="path76649">
	<path fill="#FFFFFF" d="M64,55.2c0.3-0.1,0.2-0.5,0.2-0.7c-0.1-0.2,0-0.5,0-0.6c-0.1,0.1-0.1,0.1-0.1,0.2l0,0
		c-0.1,0-0.1,0.1-0.1,0.2c-0.2,0.1,0.2,0.2,0,0.4c0,0,0,0,0.1,0c0.1,0.1,0,0.1,0,0.2C64.1,54.9,64,55.1,64,55.2L64,55.2L64,55.2
		L64,55.2"/>
</g>
<g id="path76650">
	<path fill="#FFFFFF" d="M62.9,53.6c0.3,0.1,0.2,0.5,0.2,0.7c-0.1,0.2,0,0.5,0,0.6C63,54.8,63,54.8,63,54.7l0,0
		c-0.1-0.1-0.1-0.2-0.1-0.2c-0.2-0.1,0.2-0.2,0-0.4c0,0,0,0,0.1,0c0.1-0.1,0-0.1,0-0.2C63,53.9,62.9,53.7,62.9,53.6L62.9,53.6
		L62.9,53.6L62.9,53.6"/>
</g>
<g id="path76651">
	<path fill="#FFFFFF" d="M62.2,55.1c0.3-0.1,0.2-0.5,0.2-0.7c-0.1-0.2,0-0.5,0-0.6c-0.1,0.1-0.1,0.1-0.1,0.2l0,0
		c-0.1,0.1-0.1,0.2-0.1,0.2c-0.2,0.1,0.2,0.2,0,0.4c0,0,0,0,0.1,0c0.1,0.1,0,0.1,0,0.2C62.3,54.8,62.2,55,62.2,55.1L62.2,55.1
		L62.2,55.1L62.2,55.1"/>
</g>
<g id="path76652">
	<path fill="#FFFFFF" d="M60.6,53.9c0.3,0.1,0.2,0.5,0.2,0.7c-0.1,0.2,0,0.5,0,0.6c-0.1-0.1-0.1-0.1-0.1-0.2l0,0
		c-0.1-0.1-0.1-0.2-0.1-0.2c-0.2-0.1,0.2-0.2,0-0.4c0,0,0,0,0.1,0c0.1-0.1,0-0.1,0-0.2C60.7,54.2,60.6,54,60.6,53.9L60.6,53.9
		L60.6,53.9L60.6,53.9"/>
</g>
<g id="path76653">
	<path fill="#FFFFFF" d="M59.9,55.4c0.3-0.1,0.2-0.5,0.2-0.7c-0.1-0.2,0-0.5,0-0.6C60,54.2,60,54.2,60,54.3l0,0
		c-0.1,0.1-0.1,0.2-0.1,0.2c-0.2,0.1,0.2,0.2,0,0.4c0,0,0,0,0.1,0c0.1,0.1,0,0.1,0,0.2C60,55.1,59.9,55.3,59.9,55.4L59.9,55.4
		L59.9,55.4L59.9,55.4"/>
</g>
<g id="path76654">
	<path fill="#FFFFFF" d="M61.7,53.5c0.3,0.1,0.2,0.5,0.2,0.7c-0.1,0.2,0,0.5,0,0.6c-0.1-0.1-0.1-0.1-0.1-0.2l0,0
		c-0.1-0.1-0.1-0.2-0.1-0.2c-0.2-0.1,0.2-0.2,0-0.4c0,0,0,0,0.1,0c0.1-0.1,0-0.1,0-0.2C61.8,53.8,61.7,53.6,61.7,53.5L61.7,53.5
		L61.7,53.5L61.7,53.5"/>
</g>
<g id="path76655">
	<path fill="#FFFFFF" d="M61,55c0.3-0.1,0.2-0.5,0.2-0.7c-0.1-0.2,0-0.5,0-0.6c-0.1,0.1-0.1,0.1-0.1,0.2l0,0C61,54,61,54.1,61,54.1
		c-0.2,0.1,0.2,0.2,0,0.4c0,0,0,0,0.1,0c0.1,0.1,0,0.1,0,0.2C61.2,54.7,61,54.9,61,55L61,55L61,55L61,55"/>
</g>
<g id="path76656">
	<path fill="#FFFFFF" d="M59.4,53.6c0.3,0.1,0.2,0.5,0.2,0.7c-0.1,0.2,0,0.5,0,0.6c-0.1-0.1-0.1-0.1-0.1-0.2l0,0
		c-0.1-0.1-0.1-0.2-0.1-0.2c-0.2-0.1,0.2-0.2,0-0.4c0,0,0,0,0.1,0c0.1-0.1,0-0.1,0-0.2C59.5,53.9,59.4,53.8,59.4,53.6L59.4,53.6
		L59.4,53.6L59.4,53.6"/>
</g>
<g id="path76657">
	<path fill="#FFFFFF" d="M58.8,55.1c0.3-0.1,0.2-0.5,0.2-0.7c-0.1-0.2,0-0.5,0-0.6c-0.1,0.1-0.1,0.1-0.1,0.2l0,0
		c-0.1,0.1-0.1,0.2-0.1,0.2c-0.2,0.1,0.2,0.2,0,0.4c0,0,0,0,0.1,0c0.1,0.1,0,0.1,0,0.2C58.9,54.8,58.8,55,58.8,55.1L58.8,55.1
		L58.8,55.1L58.8,55.1"/>
</g>
<g id="path76658">
	<path fill="#FFFFFF" d="M58.1,54c0.3,0.1,0.2,0.5,0.2,0.7c-0.1,0.2,0,0.5,0,0.6c-0.1-0.1-0.1-0.1-0.1-0.2l0,0
		c-0.1-0.1-0.1-0.2-0.1-0.2c-0.2-0.1,0.2-0.2,0-0.4c0,0,0,0,0.1,0c0.1-0.1,0-0.1,0-0.2C58.2,54.3,58.1,54.1,58.1,54L58.1,54L58.1,54
		L58.1,54"/>
</g>
<g id="path76659">
	<path fill="#FFFFFF" d="M57.5,55.5c0.3-0.1,0.2-0.5,0.2-0.7c-0.1-0.2,0-0.5,0-0.6c-0.1,0.1-0.1,0.1-0.1,0.2l0,0
		c-0.1,0.1-0.1,0.2-0.1,0.2c-0.2,0.1,0.2,0.2,0,0.4c0,0,0,0,0.1,0c0.1,0.1,0,0.1,0,0.2C57.6,55.2,57.5,55.4,57.5,55.5L57.5,55.5
		L57.5,55.5L57.5,55.5"/>
</g>
<g id="path76660">
	<path fill="#FFFFFF" d="M56.9,53.7c0.3,0.1,0.2,0.5,0.2,0.7c-0.1,0.2,0,0.5,0,0.6C57,54.9,57,54.9,57,54.8l0,0
		c-0.1-0.1-0.1-0.2-0.1-0.2c-0.2-0.1,0.2-0.2,0-0.4c0,0,0,0,0.1,0c0.1-0.1,0-0.1,0-0.2C57,54,56.9,53.8,56.9,53.7L56.9,53.7
		L56.9,53.7L56.9,53.7"/>
</g>
<g id="path76661">
	<path fill="#FFFFFF" d="M56.2,55.2c0.3-0.1,0.2-0.5,0.2-0.7c-0.1-0.2,0-0.5,0-0.6c-0.1,0.1-0.1,0.1-0.1,0.2l0,0
		c-0.1,0.1-0.1,0.2-0.1,0.2c-0.2,0.1,0.2,0.2,0,0.4c0,0,0,0,0.1,0c0.1,0.1,0,0.1,0,0.2C56.3,54.9,56.2,55,56.2,55.2L56.2,55.2
		L56.2,55.2L56.2,55.2"/>
</g>
<g id="path76662">
	<path fill="#FFFFFF" d="M55.6,54.1c0.3,0.1,0.2,0.5,0.2,0.7c-0.1,0.2,0,0.5,0,0.6c-0.1-0.1-0.1-0.1-0.1-0.2l0,0
		c-0.1-0.1-0.1-0.2-0.1-0.2c-0.2-0.1,0.2-0.2,0-0.4c0,0,0,0,0.1,0c0.1-0.1,0-0.1,0-0.2C55.8,54.4,55.6,54.3,55.6,54.1L55.6,54.1
		L55.6,54.1L55.6,54.1"/>
</g>
<g id="path76663">
	<path fill="#FFFFFF" d="M55,55.7c0.3-0.1,0.2-0.5,0.2-0.7c-0.1-0.2,0-0.5,0-0.6c-0.1,0.1-0.1,0.1-0.1,0.2l0,0
		C55,54.7,55,54.8,55,54.8c-0.2,0.1,0.2,0.2,0,0.4c0,0,0,0,0.1,0c0.1,0.1,0,0.1,0,0.2C55.1,55.4,55,55.5,55,55.7L55,55.7L55,55.7
		L55,55.7"/>
</g>
<g id="path76664">
	<path fill="#FFFFFF" d="M54.5,53.7c0.3,0.1,0.2,0.5,0.2,0.7c-0.1,0.2,0,0.5,0,0.6c-0.1-0.1-0.1-0.1-0.1-0.2l0,0
		c-0.1-0.1-0.1-0.2-0.1-0.2c-0.2-0.1,0.2-0.2,0-0.4c0,0,0,0,0.1,0c0.1-0.1,0-0.1,0-0.2C54.7,54,54.5,53.8,54.5,53.7L54.5,53.7
		L54.5,53.7L54.5,53.7"/>
</g>
<g id="path76665">
	<path fill="#FFFFFF" d="M53.9,55.2c0.3-0.1,0.2-0.5,0.2-0.7c-0.1-0.2,0-0.5,0-0.6c-0.1,0-0.1,0-0.1,0.1l0,0
		c-0.1,0.1-0.1,0.2-0.1,0.2c-0.2,0.1,0.2,0.2,0,0.4c0,0,0,0,0.1,0c0.1,0.1,0,0.1,0,0.2C54,54.9,53.9,55.1,53.9,55.2L53.9,55.2
		L53.9,55.2L53.9,55.2"/>
</g>
<g id="path76666">
	<path fill="#FFFFFF" d="M53.3,54.2c0.3,0.1,0.2,0.5,0.2,0.7c-0.1,0.2,0,0.5,0,0.6c-0.1-0.1-0.1-0.1-0.1-0.2l0,0
		c-0.1-0.1-0.1-0.2-0.1-0.2c-0.2-0.1,0.2-0.2,0-0.4c0,0,0,0,0.1,0c0.1-0.1,0-0.1,0-0.2C53.4,54.5,53.3,54.3,53.3,54.2L53.3,54.2
		L53.3,54.2L53.3,54.2"/>
</g>
<g id="path76667">
	<path fill="#FFFFFF" d="M52.7,55.7c0.3-0.1,0.2-0.5,0.2-0.7c-0.1-0.2,0-0.5,0-0.6c-0.1,0.1-0.1,0.1-0.1,0.2l0,0
		c-0.1,0.1-0.1,0.2-0.1,0.2c-0.2,0.1,0.2,0.2,0,0.4c0,0,0,0,0.1,0c0.1,0.1,0,0.1,0,0.2C52.8,55.4,52.7,55.6,52.7,55.7L52.7,55.7
		L52.7,55.7L52.7,55.7"/>
</g>
<g id="path76668">
	<path fill="#FFFFFF" d="M52.4,53.7c0.3,0.1,0.2,0.5,0.2,0.7c-0.1,0.2,0,0.5,0,0.6c-0.1-0.1-0.1-0.1-0.1-0.2l0,0
		c-0.1-0.1-0.1-0.2-0.1-0.2c-0.2-0.1,0.2-0.2,0-0.4c0,0,0,0,0.1,0c0.1-0.1,0-0.1,0-0.2C52.5,54,52.4,53.8,52.4,53.7L52.4,53.7
		L52.4,53.7L52.4,53.7"/>
</g>
<g id="path76669">
	<path fill="#FFFFFF" d="M51.8,55.2c0.3-0.1,0.2-0.5,0.2-0.7c-0.1-0.2,0-0.5,0-0.6C51.9,54,51.9,54,51.9,54l0,0
		c-0.1,0.1-0.1,0.2-0.1,0.2c-0.2,0.1,0.2,0.2,0,0.4c0,0,0,0,0.1,0c0.1,0.1,0,0.1,0,0.2C51.9,54.9,51.8,55.1,51.8,55.2L51.8,55.2
		L51.8,55.2L51.8,55.2"/>
</g>
<g id="path76670">
	<path fill="#FFFFFF" d="M51.5,54.6c0.3,0.1,0.2,0.5,0.2,0.7c-0.1,0.2,0,0.5,0,0.6c-0.1-0.1-0.1-0.1-0.1-0.2l0,0
		c-0.1-0.1-0.1-0.2-0.1-0.2c-0.2-0.1,0.2-0.2,0-0.4c0,0,0,0,0.1,0c0.1-0.1,0-0.1,0-0.2C51.7,54.9,51.5,54.7,51.5,54.6L51.5,54.6
		L51.5,54.6L51.5,54.6"/>
</g>
<g id="path76671">
	<path fill="#FFFFFF" d="M50.9,55.9c0.3-0.1,0.2-0.5,0.2-0.7c-0.1-0.2,0-0.5,0-0.6C51,54.7,51,54.7,51,54.8l0,0c0,0,0,0.1,0,0.2
		c-0.2,0.1,0.2,0.2,0,0.4c0,0,0,0,0.1,0c0.1,0.1,0,0.1,0,0.2C51,55.6,50.9,55.8,50.9,55.9L50.9,55.9L50.9,55.9L50.9,55.9"/>
</g>
<g id="path76672">
	<path fill="#FFFFFF" d="M50.5,53.8c0.3,0.1,0.2,0.5,0.2,0.7c-0.1,0.2,0,0.5,0,0.6c-0.1-0.1-0.1-0.1-0.1-0.2l0,0
		c-0.1-0.1-0.1-0.2-0.1-0.2c-0.2-0.1,0.2-0.2,0-0.4c0,0,0,0,0.1,0c0.1-0.1,0-0.1,0-0.2C50.6,54.1,50.5,53.9,50.5,53.8L50.5,53.8
		L50.5,53.8L50.5,53.8"/>
</g>
<g id="path76673">
	<path fill="#FFFFFF" d="M49.8,55.3c0.3-0.1,0.2-0.5,0.2-0.7c-0.1-0.2,0-0.5,0-0.6c0,0,0,0-0.1,0.1l0,0c-0.1,0.1-0.1,0.2-0.1,0.2
		c-0.2,0.1,0.2,0.2,0,0.4c0,0,0,0,0.1,0c0.1,0.1,0,0.1,0,0.2C50,55,49.8,55.2,49.8,55.3L49.8,55.3L49.8,55.3L49.8,55.3"/>
</g>
<g id="path76674">
	<path fill="#FFFFFF" d="M49.4,53.6c0.3,0.1,0.2,0.5,0.2,0.7c-0.1,0.2,0,0.5,0,0.6c-0.1-0.1-0.1-0.1-0.1-0.2l0,0
		c-0.1-0.1-0.1-0.2-0.1-0.2c-0.2-0.1,0.2-0.2,0-0.4c0,0,0,0,0.1,0c0.1-0.1,0-0.1,0-0.2C49.5,53.9,49.4,53.7,49.4,53.6L49.4,53.6
		L49.4,53.6L49.4,53.6"/>
</g>
<g id="path76675">
	<path fill="#FFFFFF" d="M48.8,55.1c0.3-0.1,0.2-0.5,0.2-0.7c-0.1-0.2,0-0.5,0-0.6c-0.1,0.1-0.1,0.1-0.1,0.2l0,0
		c-0.1,0.1-0.1,0.2-0.1,0.2c-0.2,0.1,0.2,0.2,0,0.4c0,0,0,0,0.1,0c0.1,0.1,0,0.1,0,0.2C48.9,54.8,48.8,55,48.8,55.1L48.8,55.1
		L48.8,55.1L48.8,55.1"/>
</g>
<g id="path76676">
	<path fill="#1691FF" d="M49,53.7c0.3,0.1,0.2,0.5,0.2,0.7c-0.1,0.2,0,0.5,0,0.6c-0.1-0.1-0.1-0.1-0.1-0.2l0,0
		c-0.1,0-0.1-0.1-0.1-0.2c-0.2-0.1,0.2-0.2,0-0.4c0,0,0,0,0.1,0c0.1-0.1,0-0.1,0-0.2C49.1,54,49,53.8,49,53.7L49,53.7L49,53.7
		L49,53.7"/>
</g>
<g id="path76677">
	<path fill="#1691FF" d="M48.3,55.2c0.3-0.1,0.2-0.5,0.2-0.7c-0.1-0.2,0-0.5,0-0.6c0,0.1,0,0.1-0.1,0.1l0,0
		c-0.1,0.1-0.1,0.2-0.1,0.2c-0.2,0.1,0.2,0.2,0,0.4c0,0,0,0,0.1,0c0.1,0.1,0,0.1,0,0.2C48.5,54.9,48.3,55.1,48.3,55.2L48.3,55.2
		L48.3,55.2L48.3,55.2"/>
</g>
<g id="path76678">
	<path fill="#1691FF" d="M50.8,54.3c0.3,0.1,0.2,0.5,0.2,0.7c-0.1,0.2,0,0.5,0,0.6c-0.1-0.1-0.1-0.1-0.1-0.2l0,0
		c-0.1-0.1-0.1-0.2-0.1-0.2c-0.2-0.1,0.2-0.2,0-0.4c0,0,0,0,0.1,0c0.1-0.1,0-0.1,0-0.2C50.9,54.6,50.8,54.4,50.8,54.3L50.8,54.3
		L50.8,54.3L50.8,54.3"/>
</g>
<g id="path76679">
	<path fill="#1691FF" d="M50.2,55.8c0.3-0.1,0.2-0.5,0.2-0.7c-0.1-0.2,0-0.5,0-0.6c-0.1,0.1-0.1,0.1-0.1,0.2l0,0
		c-0.1,0.1-0.1,0.2-0.1,0.2c-0.2,0.1,0.2,0.2,0,0.4c0,0,0,0,0.1,0c0.1,0.1,0,0.1,0,0.2C50.3,55.5,50.2,55.7,50.2,55.8L50.2,55.8
		L50.2,55.8L50.2,55.8"/>
</g>
<g id="path76680">
	<path fill="#1691FF" d="M49.8,54.3c0.3,0.1,0.2,0.5,0.2,0.7c-0.1,0.2,0,0.5,0,0.6c-0.1-0.1-0.1-0.1-0.1-0.2l0,0
		c-0.1-0.1-0.1-0.2-0.1-0.2c-0.2-0.1,0.2-0.2,0-0.4c0,0,0,0,0.1,0c0.1-0.1,0-0.1,0-0.2C49.9,54.6,49.8,54.4,49.8,54.3L49.8,54.3
		L49.8,54.3L49.8,54.3"/>
</g>
<g id="path76681">
	<path fill="#1691FF" d="M49.2,55.8c0.3-0.1,0.2-0.5,0.2-0.7c-0.1-0.2,0-0.5,0-0.6c-0.1,0.1-0.1,0.1-0.1,0.2l0,0
		c-0.1,0.1-0.1,0.2-0.1,0.2c-0.2,0.1,0.2,0.2,0,0.4c0,0,0,0,0.1,0c0.1,0.1,0,0.1,0,0.2C49.3,55.5,49.2,55.6,49.2,55.8L49.2,55.8
		L49.2,55.8L49.2,55.8"/>
</g>
<g id="path76682">
	<path fill="#1691FF" d="M51.8,53.6c0.3,0.1,0.2,0.5,0.2,0.7c-0.1,0.2,0,0.5,0,0.6c-0.1-0.1-0.1-0.1-0.1-0.2l0,0
		c-0.1-0.1-0.1-0.2-0.1-0.2c-0.2-0.1,0.2-0.2,0-0.4c0,0,0,0,0.1,0c0.1-0.1,0-0.1,0-0.2C51.9,53.9,51.8,53.8,51.8,53.6L51.8,53.6
		L51.8,53.6L51.8,53.6"/>
</g>
<g id="path76683">
	<path fill="#1691FF" d="M51.2,55.2c0.3-0.1,0.2-0.5,0.2-0.7c-0.1-0.2,0-0.5,0-0.6c-0.1,0.1-0.1,0.1-0.1,0.2l0,0
		c-0.1,0.1-0.1,0.2-0.1,0.2c-0.2,0.1,0.2,0.2,0,0.4c0,0,0,0,0.1,0c0.1,0.1,0,0.1,0,0.2C51.3,54.8,51.2,55,51.2,55.2L51.2,55.2
		L51.2,55.2L51.2,55.2"/>
</g>
<g id="path76684">
	<path fill="#1691FF" d="M52.8,54.3c0.3,0.1,0.2,0.5,0.2,0.7c-0.1,0.2,0,0.5,0,0.6c-0.1-0.1-0.1-0.1-0.1-0.2l0,0
		c-0.1-0.1-0.1-0.2-0.1-0.2c-0.2-0.1,0.2-0.2,0-0.4c0,0,0,0,0.1,0c0.1-0.1,0-0.1,0-0.2C52.9,54.6,52.8,54.4,52.8,54.3L52.8,54.3
		L52.8,54.3L52.8,54.3"/>
</g>
<g id="path76685">
	<path fill="#1691FF" d="M52.2,55.8c0.3-0.1,0.2-0.5,0.2-0.7c-0.1-0.2,0-0.5,0-0.6c-0.1,0.1-0.1,0.1-0.1,0.2l0,0
		c-0.1,0.1-0.1,0.2-0.1,0.2c-0.2,0.1,0.2,0.2,0,0.4c0,0,0,0,0.1,0c0.1,0.1,0,0.1,0,0.2C52.3,55.5,52.2,55.7,52.2,55.8L52.2,55.8
		L52.2,55.8L52.2,55.8"/>
</g>
<g id="path76686">
	<path fill="#1691FF" d="M53.6,53.6c0.3,0.1,0.2,0.5,0.2,0.7c-0.1,0.2,0,0.5,0,0.6c-0.1-0.1-0.1-0.1-0.1-0.2l0,0
		c-0.1-0.1-0.1-0.2-0.1-0.2c-0.2-0.1,0.2-0.2,0-0.4c0,0,0,0,0.1,0c0.1-0.1,0-0.1,0-0.2C53.8,53.9,53.6,53.7,53.6,53.6L53.6,53.6
		L53.6,53.6L53.6,53.6"/>
</g>
<g id="path76687">
	<path fill="#1691FF" d="M53,55.1c0.3-0.1,0.2-0.5,0.2-0.7c-0.1-0.2,0-0.5,0-0.6c-0.1,0.1-0.1,0.1-0.1,0.2l0,0
		C53,54.1,53,54.2,53,54.2c-0.2,0.1,0.2,0.2,0,0.4c0,0,0,0,0.1,0c0.1,0.1,0,0.1,0,0.2C53.1,54.8,53,55,53,55.1L53,55.1L53,55.1
		L53,55.1"/>
</g>
<g id="path76688">
	<path fill="#1691FF" d="M54.1,54.3c0.3,0.1,0.2,0.5,0.2,0.7c-0.1,0.2,0,0.5,0,0.6c-0.1-0.1-0.1-0.1-0.1-0.2l0,0
		c-0.1-0.1-0.1-0.2-0.1-0.2c-0.2-0.1,0.2-0.2,0-0.4c0,0,0,0,0.1,0c0.1-0.1,0-0.1,0-0.2C54.2,54.6,54.1,54.4,54.1,54.3L54.1,54.3
		L54.1,54.3L54.1,54.3"/>
</g>
<g id="path76689">
	<path fill="#1691FF" d="M53.5,55.8c0.3-0.1,0.2-0.5,0.2-0.7c-0.1-0.2,0-0.5,0-0.6c-0.1,0.1-0.1,0.1-0.1,0.2l0,0
		c-0.1,0.1-0.1,0.2-0.1,0.2c-0.2,0.1,0.2,0.2,0,0.4c0,0,0,0,0.1,0c0.1,0.1,0,0.1,0,0.2C53.6,55.5,53.5,55.7,53.5,55.8L53.5,55.8
		L53.5,55.8L53.5,55.8"/>
</g>
<g id="path76690">
	<path fill="#1691FF" d="M55.3,53.6c0.3,0.1,0.2,0.5,0.2,0.7c-0.1,0.2,0,0.5,0,0.6c-0.1-0.1-0.1-0.1-0.1-0.2l0,0
		c-0.1-0.1-0.1-0.2-0.1-0.2c-0.2-0.1,0.2-0.2,0-0.4c0,0,0,0,0.1,0c0.1-0.1,0-0.1,0-0.2C55.4,53.9,55.3,53.7,55.3,53.6L55.3,53.6
		L55.3,53.6L55.3,53.6"/>
</g>
<g id="path76691">
	<path fill="#1691FF" d="M54.6,55.1c0.3-0.1,0.2-0.5,0.2-0.7c-0.1-0.2,0-0.5,0-0.6c-0.1,0.1-0.1,0.1-0.1,0.2l0,0
		c-0.1,0.1-0.1,0.2-0.1,0.2c-0.2,0.1,0.2,0.2,0,0.4c0,0,0,0,0.1,0c0.1,0.1,0,0.1,0,0.2C54.8,54.8,54.6,55,54.6,55.1L54.6,55.1
		L54.6,55.1L54.6,55.1"/>
</g>
<g id="path76692">
	<path fill="#1691FF" d="M55.6,54.3c0.3,0.1,0.2,0.5,0.2,0.7c-0.1,0.2,0,0.5,0,0.6c-0.1-0.1-0.1-0.1-0.1-0.2l0,0
		c-0.1-0.1-0.1-0.2-0.1-0.2c-0.2-0.1,0.2-0.2,0-0.4c0,0,0,0,0.1,0c0.1-0.1,0-0.1,0-0.2C55.8,54.6,55.6,54.4,55.6,54.3L55.6,54.3
		L55.6,54.3L55.6,54.3"/>
</g>
<g id="path76693">
	<path fill="#1691FF" d="M56.6,53.6c0.3,0.1,0.2,0.5,0.2,0.7c-0.1,0.2,0,0.5,0,0.6c-0.1-0.1-0.1-0.1-0.1-0.2l0,0
		c-0.1-0.1-0.1-0.2-0.1-0.2c-0.2-0.1,0.2-0.2,0-0.4c0,0,0,0,0.1,0c0.1-0.1,0-0.1,0-0.2C56.8,53.9,56.6,53.7,56.6,53.6L56.6,53.6
		L56.6,53.6L56.6,53.6"/>
</g>
<g id="path76694">
	<path fill="#1691FF" d="M56,55.1c0.3-0.1,0.2-0.5,0.2-0.7c-0.1-0.2,0-0.5,0-0.6c-0.1,0.1-0.1,0.1-0.1,0.2l0,0
		C56,54.1,56,54.1,56,54.2c-0.2,0.1,0.2,0.2,0,0.4c0,0,0,0,0.1,0c0.1,0.1,0,0.1,0,0.2C56.1,54.8,56,55,56,55.1L56,55.1L56,55.1
		L56,55.1"/>
</g>
<g id="path76695">
	<path fill="#1691FF" d="M57.6,54.3c0.3,0.1,0.2,0.5,0.2,0.7c-0.1,0.2,0,0.5,0,0.6c-0.1-0.1-0.1-0.1-0.1-0.2l0,0
		c-0.1-0.1-0.1-0.2-0.1-0.2c-0.2-0.1,0.2-0.2,0-0.4c0,0,0,0,0.1,0c0.1-0.1,0-0.1,0-0.2C57.8,54.6,57.6,54.4,57.6,54.3L57.6,54.3
		L57.6,54.3L57.6,54.3"/>
</g>
<g id="path76696">
	<path fill="#1691FF" d="M57.1,55.6c0.3-0.1,0.2-0.5,0.2-0.7c-0.1-0.2,0-0.5,0-0.6c-0.1,0.1-0.1,0.1-0.1,0.2l0,0
		c-0.1,0.1-0.1,0.2-0.1,0.2c-0.2,0.1,0.2,0.2,0,0.4c0,0,0,0,0.1,0c0.1,0.1,0,0.1,0,0.2C57.2,55.3,57,55.4,57.1,55.6L57.1,55.6
		L57.1,55.6L57.1,55.6"/>
</g>
<g id="path76697">
	<path fill="#1691FF" d="M58.5,53.6c0.3,0.1,0.2,0.5,0.2,0.7c-0.1,0.2,0,0.5,0,0.6c-0.1-0.1-0.1-0.1-0.1-0.2l0,0
		c-0.1-0.1-0.1-0.2-0.1-0.2c-0.2-0.1,0.2-0.2,0-0.4c0,0,0,0,0.1,0c0.1-0.1,0-0.1,0-0.2C58.6,53.9,58.5,53.7,58.5,53.6L58.5,53.6
		L58.5,53.6L58.5,53.6"/>
</g>
<g id="path76698">
	<path fill="#1691FF" d="M57.8,55.1c0.3-0.1,0.2-0.5,0.2-0.7c-0.1-0.2,0-0.5,0-0.6c-0.1,0.1-0.1,0.1-0.1,0.2l0,0
		c-0.1,0.1-0.1,0.2-0.1,0.2c-0.2,0.1,0.2,0.2,0,0.4c0,0,0,0,0.1,0c0.1,0.1,0,0.1,0,0.2C57.9,54.8,57.8,55,57.8,55.1L57.8,55.1
		L57.8,55.1L57.8,55.1"/>
</g>
<g id="path76699">
	<path fill="#1691FF" d="M58.9,54.3c0.3,0.1,0.2,0.5,0.2,0.7c-0.1,0.2,0,0.5,0,0.6C59,55.5,59,55.5,59,55.4l0,0c0,0,0-0.1,0-0.2
		c-0.2-0.1,0.2-0.2,0-0.4c0,0,0,0,0.1,0c0.1-0.1,0-0.1,0-0.2C59.1,54.6,58.9,54.4,58.9,54.3L58.9,54.3L58.9,54.3L58.9,54.3"/>
</g>
<g id="path76700">
	<path fill="#1691FF" d="M58.1,55.4c0.3-0.1,0.2-0.5,0.2-0.7c-0.1-0.2,0-0.5,0-0.6c-0.1,0.1-0.1,0.1-0.1,0.2l0,0
		c-0.1,0.1-0.1,0.2-0.1,0.2c-0.2,0.1,0.2,0.2,0,0.4c0,0,0,0,0.1,0c0.1,0.1,0,0.1,0,0.2C58.3,55.1,58.1,55.3,58.1,55.4L58.1,55.4
		L58.1,55.4L58.1,55.4"/>
</g>
<g id="path76701">
	<path fill="#1691FF" d="M60.1,53.6c0.3,0.1,0.2,0.5,0.2,0.7c-0.1,0.2,0,0.5,0,0.6c-0.1-0.1-0.1-0.1-0.1-0.2l0,0
		c-0.1-0.1-0.1-0.2-0.1-0.2c-0.2-0.1,0.2-0.2,0-0.4c0,0,0,0,0.1,0c0.1-0.1,0-0.1,0-0.2C60.2,53.9,60.1,53.7,60.1,53.6L60.1,53.6
		L60.1,53.6L60.1,53.6"/>
</g>
<g id="path76702">
	<path fill="#1691FF" d="M59.5,55.1c0.3-0.1,0.2-0.5,0.2-0.7c-0.1-0.2,0-0.5,0-0.6c-0.1,0.1-0.1,0.1-0.1,0.2l0,0
		c-0.1,0.1-0.1,0.2-0.1,0.2c-0.2,0.1,0.2,0.2,0,0.4c0,0,0,0,0.1,0c0.1,0.1,0,0.1,0,0.2C59.6,54.8,59.5,55,59.5,55.1L59.5,55.1
		L59.5,55.1L59.5,55.1"/>
</g>
<g id="path76703">
	<path fill="#1691FF" d="M61.4,54.2c0.3,0.1,0.2,0.5,0.2,0.7c-0.1,0.2,0,0.5,0,0.6c-0.1-0.1-0.1-0.1-0.1-0.2l0,0
		c-0.1-0.1-0.1-0.2-0.1-0.2c-0.2-0.1,0.2-0.2,0-0.4c0,0,0,0,0.1,0c0.1-0.1,0-0.1,0-0.2C61.5,54.5,61.4,54.3,61.4,54.2L61.4,54.2
		L61.4,54.2L61.4,54.2"/>
</g>
<g id="path76704">
	<path fill="#1691FF" d="M62.4,53.6c0.3,0.1,0.2,0.5,0.2,0.7c-0.1,0.2,0,0.5,0,0.6c-0.1-0.1-0.1-0.1-0.1-0.2l0,0
		c-0.1-0.1-0.1-0.2-0.1-0.2c-0.2-0.1,0.2-0.2,0-0.4c0,0,0,0,0.1,0c0.1-0.1,0-0.1,0-0.2C62.5,53.9,62.4,53.7,62.4,53.6L62.4,53.6
		L62.4,53.6L62.4,53.6"/>
</g>
<g id="path76705">
	<path fill="#1691FF" d="M61.7,55.1c0.3-0.1,0.2-0.5,0.2-0.7c-0.1-0.2,0-0.5,0-0.6c-0.1,0.1-0.1,0.1-0.1,0.2l0,0
		c-0.1,0.1-0.1,0.2-0.1,0.2c-0.2,0.1,0.2,0.2,0,0.4c0,0,0,0,0.1,0c0.1,0.1,0,0.1,0,0.2C61.9,54.8,61.7,55,61.7,55.1L61.7,55.1
		L61.7,55.1L61.7,55.1"/>
</g>
<g id="path76706">
	<path fill="#1691FF" d="M63.4,54.2c0.3,0.1,0.2,0.5,0.2,0.7c-0.1,0.2,0,0.5,0,0.6c-0.1-0.1-0.1-0.1-0.1-0.2l0,0
		c-0.1-0.1-0.1-0.2-0.1-0.2c-0.2-0.1,0.2-0.2,0-0.4c0,0,0,0,0.1,0c0.1-0.1,0-0.1,0-0.2C63.5,54.5,63.4,54.4,63.4,54.2L63.4,54.2
		L63.4,54.2L63.4,54.2"/>
</g>
<g id="path76707">
	<path fill="#1691FF" d="M62.8,55.4c0.3-0.1,0.2-0.5,0.2-0.7c-0.1-0.2,0-0.5,0-0.6c-0.1,0.1-0.1,0.1-0.1,0.2l0,0
		c-0.1,0.1-0.1,0.2-0.1,0.2c-0.2,0.1,0.2,0.2,0,0.4c0,0,0,0,0.1,0c0.1,0.1,0,0.1,0,0.2C62.9,55.1,62.8,55.3,62.8,55.4L62.8,55.4
		L62.8,55.4L62.8,55.4"/>
</g>
<g id="path76708">
	<path fill="#1691FF" d="M64.2,53.5c0.3,0.1,0.2,0.5,0.2,0.7c-0.1,0.2,0,0.5,0,0.6c-0.1-0.1-0.1-0.1-0.1-0.2l0,0
		c-0.1-0.1-0.1-0.2-0.1-0.2c-0.2-0.1,0.2-0.2,0-0.4c0,0,0,0,0.1,0c0.1-0.1,0-0.1,0-0.2C64.3,53.8,64.2,53.6,64.2,53.5L64.2,53.5
		L64.2,53.5L64.2,53.5"/>
</g>
<g id="path76709">
	<path fill="#1691FF" d="M63.6,55c0.3-0.1,0.2-0.5,0.2-0.7c-0.1-0.2,0-0.5,0-0.6c-0.1,0.1-0.1,0.1-0.1,0.2l0,0
		c-0.1,0.1-0.1,0.2-0.1,0.2c-0.2,0.1,0.2,0.2,0,0.4c0,0,0,0,0.1,0c0.1,0.1,0,0.1,0,0.2C63.7,54.7,63.6,54.9,63.6,55L63.6,55L63.6,55
		L63.6,55"/>
</g>
<g id="path76710">
	<path fill="#1691FF" d="M64.7,53.9c0.3,0.1,0.2,0.5,0.2,0.7c-0.1,0.2,0,0.5,0,0.6c-0.1-0.1-0.1-0.1-0.1-0.2l0,0
		c-0.1-0.1-0.1-0.2-0.1-0.2c-0.2-0.1,0.2-0.2,0-0.4c0,0,0,0,0.1,0c0.1-0.1,0-0.1,0-0.2C64.8,54.2,64.7,54.1,64.7,53.9L64.7,53.9
		L64.7,53.9L64.7,53.9"/>
</g>
<g id="path76711">
	<path fill="#1691FF" d="M63.9,55.6c0.3-0.1,0.2-0.5,0.2-0.7c-0.1-0.2,0-0.5,0-0.6C64,54.4,64,54.4,64,54.5l0,0v0.1
		c-0.2,0.1,0.2,0.2,0,0.4c0,0,0,0,0.1,0c0.1,0.1,0,0.1,0,0.2C64,55.3,63.9,55.4,63.9,55.6L63.9,55.6L63.9,55.6L63.9,55.6"/>
</g>
<g id="path76712">
	<path fill="#1691FF" d="M65.9,53.5c0.3,0.1,0.2,0.5,0.2,0.7c-0.1,0.2,0,0.5,0,0.6c-0.1,0-0.1,0-0.1-0.1l0,0
		c-0.1-0.1-0.1-0.2-0.1-0.2c-0.2-0.1,0.2-0.2,0-0.4c0,0,0,0,0.1,0c0.1-0.1,0-0.1,0-0.2C66,53.8,65.9,53.6,65.9,53.5L65.9,53.5
		L65.9,53.5L65.9,53.5"/>
</g>
<g id="path76713">
	<path fill="#1691FF" d="M65.2,55c0.3-0.1,0.2-0.5,0.2-0.7c-0.1-0.2,0-0.5,0-0.6c-0.1,0.1-0.1,0.1-0.1,0.2l0,0
		c-0.1,0.1-0.1,0.2-0.1,0.2c-0.2,0.1,0.2,0.2,0,0.4c0,0,0,0,0.1,0c0.1,0.1,0,0.1,0,0.2C65.3,54.7,65.2,54.9,65.2,55L65.2,55L65.2,55
		L65.2,55"/>
</g>
<g id="path76714">
	<path fill="#1691FF" d="M60.4,55.4c0.3-0.1,0.2-0.5,0.2-0.7c-0.1-0.2,0-0.5,0-0.6c-0.1,0.1-0.1,0.1-0.1,0.2l0,0
		c-0.1,0.1-0.1,0.2-0.1,0.2c-0.2,0.1,0.2,0.2,0,0.4c0,0,0,0,0.1,0c0.1,0.1,0,0.1,0,0.2C60.5,55.1,60.4,55.3,60.4,55.4L60.4,55.4
		L60.4,55.4L60.4,55.4"/>
</g>
<g id="path76715">
	<path fill="#1691FF" d="M60.8,54.8c0.3-0.1,0.2-0.5,0.2-0.7c-0.1-0.2,0-0.5,0-0.6c-0.1,0.1-0.1,0.1-0.1,0.2l0,0
		c-0.1,0.1-0.1,0.2-0.1,0.2c-0.2,0.1,0.2,0.2,0,0.4c0,0,0,0,0.1,0c0.1,0.1,0,0.1,0,0.2C61,54.5,60.8,54.7,60.8,54.8L60.8,54.8
		L60.8,54.8L60.8,54.8"/>
</g>
<g id="path76716">
	<path fill="#FFFFFF" d="M65.5,55.3c0.3-0.1,0.2-0.5,0.2-0.7c-0.1-0.2,0-0.5,0-0.6c-0.1,0.1-0.1,0.1-0.1,0.2l0,0
		c-0.1,0.1-0.1,0.2-0.1,0.2c-0.2,0.1,0.2,0.2,0,0.4c0,0,0,0,0.1,0c0.1,0.1,0,0.1,0,0.2C65.7,55,65.5,55.2,65.5,55.3L65.5,55.3
		L65.5,55.3L65.5,55.3"/>
</g>
<g id="path76717">
	<path fill="#FFFFFF" d="M65,53.7c0.3,0.1,0.2,0.5,0.2,0.7c-0.1,0.2,0,0.5,0,0.6c-0.1-0.1-0.1-0.1-0.1-0.2l0,0
		C65,54.7,65,54.6,65,54.6c-0.2-0.1,0.2-0.2,0-0.4c0,0,0,0,0.1,0c0.1-0.1,0-0.1,0-0.2C65.1,54,65,53.8,65,53.7L65,53.7L65,53.7
		L65,53.7"/>
</g>
<g id="path76718">
	<path fill="#A8EFFF" d="M61.6,57.4C61.6,57.5,61.7,57.4,61.6,57.4c-0.2,0-0.4,0.5-0.8,0.3c-0.2-0.1-0.5-0.1-0.6-0.1
		c-0.2,0.1-0.4,0.1-0.5,0.1c0.3,0.1,0.6-0.1,0.8-0.2c0.2,0.2,0.5,0.1,0.8,0C61.4,57.6,61.5,57.4,61.6,57.4"/>
</g>
<g id="path76719">
	<path fill="#A8EFFF" d="M60.7,57.9C60.7,58,60.8,57.9,60.7,57.9c-0.2,0-0.4,0.5-0.8,0.3c-0.2-0.1-0.5-0.1-0.6-0.1
		c-0.2,0.1-0.4,0.1-0.5,0.1c0.3,0.1,0.6-0.1,0.8-0.2c0.2,0.2,0.5,0.1,0.8,0C60.4,58.1,60.5,57.9,60.7,57.9"/>
</g>
<g id="path76720">
	<path fill="#A8EFFF" d="M60.5,57c-0.1,0.3-0.5,0.2-0.7,0.2c-0.2-0.1-0.5,0-0.6,0c0.1-0.1,0.1-0.1,0.2-0.1l0,0
		c0.1-0.1,0.2-0.1,0.2-0.1c0.1-0.2,0.2,0.2,0.4,0c0,0,0,0,0,0.1c0.1,0.1,0.1,0,0.2,0C60.2,57.1,60.4,57,60.5,57L60.5,57L60.5,57
		L60.5,57"/>
</g>
<g id="path76721">
	<path fill="#A8EFFF" d="M63.9,56.8C63.9,56.9,64,56.8,63.9,56.8c-0.2,0-0.4,0.5-0.8,0.3C62.9,57,62.6,57,62.5,57
		c-0.2,0.1-0.4,0.1-0.5,0.1c0.3,0.1,0.6-0.1,0.8-0.2c0.2,0.2,0.5,0.1,0.8,0C63.7,57,63.8,56.8,63.9,56.8"/>
</g>
<g id="path76722">
	<path fill="#A8EFFF" d="M63,57.3C63,57.4,63.1,57.3,63,57.3c-0.2,0-0.4,0.5-0.8,0.3c-0.2-0.1-0.5-0.1-0.6-0.1
		c-0.2,0.1-0.4,0.1-0.5,0c0.3,0.1,0.6-0.1,0.8-0.2c0.2,0.2,0.5,0.1,0.8,0C62.8,57.5,62.9,57.3,63,57.3"/>
</g>
<g id="path76723">
	<path fill="#A8EFFF" d="M62.9,56.4c-0.1,0.3-0.5,0.2-0.7,0.2c-0.2-0.1-0.5,0-0.6,0c0.1-0.1,0.1-0.1,0.2-0.1l0,0
		c0.1-0.1,0.2-0.1,0.2-0.1c0.1-0.2,0.2,0.2,0.4,0c0,0,0,0,0,0.1c0.1,0.1,0.1,0,0.2,0C62.6,56.5,62.8,56.4,62.9,56.4L62.9,56.4
		L62.9,56.4L62.9,56.4"/>
</g>
<g id="path76724">
	<path fill="#A8EFFF" d="M65.1,57.2C65.1,57.3,65.2,57.2,65.1,57.2c-0.2,0-0.4,0.5-0.8,0.3c-0.2-0.1-0.5-0.1-0.6-0.1
		c-0.2,0.1-0.4,0.1-0.5,0.1c0.3,0.1,0.6-0.1,0.8-0.2c0.2,0.2,0.5,0.1,0.8,0C64.8,57.3,64.9,57.2,65.1,57.2"/>
</g>
<g id="path76725">
	<path fill="#A8EFFF" d="M64.1,57.7C64.1,57.8,64.2,57.7,64.1,57.7c-0.2,0-0.4,0.5-0.8,0.3c-0.1,0-0.4,0-0.5,0
		c-0.2,0.1-0.4,0.1-0.5,0.1c0.3,0.1,0.6-0.1,0.8-0.2c0.2,0.2,0.5,0.1,0.8,0C63.9,57.8,64,57.7,64.1,57.7"/>
</g>
<g id="path76726">
	<path fill="#A8EFFF" d="M64,56.8c-0.1,0.3-0.5,0.2-0.7,0.2c-0.2-0.1-0.5,0-0.6,0c0.1-0.1,0.1-0.1,0.2-0.1l0,0
		c0.1-0.1,0.2-0.1,0.2-0.1c0.1-0.2,0.2,0.2,0.4,0c0,0,0,0,0,0.1c0.1,0.1,0.1,0,0.2,0C63.7,56.9,63.9,56.8,64,56.8L64,56.8L64,56.8
		L64,56.8"/>
</g>
<g id="path76727">
	<path fill="#A8EFFF" d="M65.9,58.9C65.9,59,66,58.9,65.9,58.9c-0.2,0-0.4,0.5-0.8,0.3c-0.2-0.1-0.5-0.1-0.6-0.1
		c-0.2,0.1-0.4,0.1-0.5,0.1c0.3,0.1,0.6-0.1,0.8-0.2c0.2,0.2,0.5,0.1,0.8,0C65.7,59,65.8,58.9,65.9,58.9"/>
</g>
<g id="path76728">
	<path fill="#A8EFFF" d="M65,59.4C65,59.5,65.1,59.4,65,59.4c-0.2,0-0.4,0.5-0.8,0.3c-0.2-0.1-0.5-0.1-0.6-0.1
		c-0.2,0.1-0.4,0.1-0.5,0.1c0.3,0.1,0.6-0.1,0.8-0.2c0.2,0.2,0.5,0.1,0.8,0C64.7,59.5,64.8,59.4,65,59.4"/>
</g>
<g id="path76729">
	<path fill="#A8EFFF" d="M64.8,58.5c-0.1,0.3-0.5,0.2-0.7,0.2c-0.2-0.1-0.5,0-0.6,0c0.1-0.1,0.1-0.1,0.2-0.1l0,0
		c0.1-0.1,0.2-0.1,0.2-0.1c0.1-0.2,0.2,0.2,0.4,0c0,0,0,0,0,0.1c0.1,0.1,0.1,0,0.2,0C64.5,58.6,64.7,58.5,64.8,58.5L64.8,58.5
		L64.8,58.5L64.8,58.5"/>
</g>
<g id="path76730">
	<path fill="#A8EFFF" d="M65.7,59.7C65.7,59.8,65.8,59.7,65.7,59.7c-0.2,0-0.4,0.5-0.8,0.3c-0.2,0-0.5,0-0.6,0
		c-0.2,0.1-0.4,0.1-0.5,0.1c0.3,0.1,0.6-0.1,0.8-0.2c0.2,0.2,0.5,0.1,0.8,0C65.4,59.8,65.5,59.7,65.7,59.7"/>
</g>
<g id="path76731">
	<path fill="#A8EFFF" d="M64.4,60.4C64.4,60.5,64.5,60.4,64.4,60.4c-0.2,0-0.4,0.5-0.8,0.3c-0.2-0.1-0.5-0.1-0.6-0.1
		c-0.2,0.1-0.4,0.1-0.5,0.1c0.3,0.1,0.6-0.1,0.8-0.2c0.2,0.2,0.5,0.1,0.8,0C64.2,60.6,64.3,60.4,64.4,60.4"/>
</g>
<g id="path76732">
	<path fill="#A8EFFF" d="M64.3,59.5c-0.1,0.3-0.5,0.2-0.7,0.2c-0.2-0.1-0.5,0-0.6,0c0.1-0.1,0.1-0.1,0.2-0.1l0,0
		c0.1-0.1,0.2-0.1,0.2-0.1c0.1-0.2,0.2,0.2,0.4,0c0,0,0,0,0,0.1c0.1,0.1,0.1,0,0.2,0C64,59.6,64.2,59.5,64.3,59.5L64.3,59.5
		L64.3,59.5L64.3,59.5"/>
</g>
<g id="path76733">
	<path fill="#A8EFFF" d="M62.3,59.2C62.3,59.3,62.4,59.2,62.3,59.2c-0.2,0-0.4,0.5-0.8,0.3c-0.2-0.1-0.5-0.1-0.6-0.1
		c-0.2,0.1-0.4,0.1-0.5,0c0.3,0.1,0.6-0.1,0.8-0.2c0.2,0.2,0.5,0.1,0.8,0C62.1,59.4,62.2,59.2,62.3,59.2"/>
</g>
<g id="path76734">
	<path fill="#A8EFFF" d="M61.4,59.7C61.4,59.8,61.5,59.7,61.4,59.7c-0.2,0-0.4,0.5-0.8,0.3c-0.2-0.1-0.5-0.1-0.6-0.1
		C59.8,60,59.6,60,59.5,60c0.3,0.1,0.6-0.1,0.8-0.2c0.2,0.2,0.5,0.1,0.8,0C61.2,59.9,61.3,59.8,61.4,59.7"/>
</g>
<g id="path76735">
	<path fill="#A8EFFF" d="M61.3,58.8c-0.1,0.3-0.5,0.2-0.7,0.2c-0.2-0.1-0.5,0-0.6,0c0.1-0.1,0.1-0.1,0.2-0.1l0,0
		c0.1-0.1,0.2-0.1,0.2-0.1c0.1-0.2,0.2,0.2,0.4,0c0,0,0,0,0,0.1c0.1,0.1,0.1,0,0.2,0C61,58.9,61.2,58.8,61.3,58.8L61.3,58.8
		L61.3,58.8L61.3,58.8"/>
</g>
<g id="path76736">
	<path fill="#A8EFFF" d="M60,58.9C60,59,60.1,58.9,60,58.9c-0.2,0-0.4,0.5-0.8,0.3c-0.2-0.1-0.5-0.1-0.6-0.1
		c-0.2,0.1-0.4,0.1-0.5,0.1c0.3,0.1,0.6-0.1,0.8-0.2c0.2,0.2,0.5,0.1,0.8,0C59.7,59,59.8,58.9,60,58.9"/>
</g>
<g id="path76737">
	<path fill="#A8EFFF" d="M59,59.4C59,59.5,59.1,59.4,59,59.4c-0.2,0-0.4,0.5-0.8,0.3c-0.2-0.1-0.5-0.1-0.6-0.1
		c-0.2,0.1-0.4,0.1-0.5,0.1c0.3,0.1,0.6-0.1,0.8-0.2c0.2,0.2,0.5,0.1,0.8,0C58.8,59.5,58.9,59.4,59,59.4"/>
</g>
<g id="path76738">
	<path fill="#A8EFFF" d="M58.9,58.4c-0.1,0.3-0.5,0.2-0.7,0.2c-0.2-0.1-0.5,0-0.6,0c0.1-0.1,0.1-0.1,0.2-0.1l0,0
		c0.1-0.1,0.2-0.1,0.2-0.1c0.1-0.2,0.2,0.2,0.4,0c0,0,0,0,0,0.1c0.1,0.1,0.1,0,0.2,0C58.6,58.6,58.8,58.4,58.9,58.4L58.9,58.4
		L58.9,58.4L58.9,58.4"/>
</g>
<g id="path76739">
	<path fill="#A8EFFF" d="M60.7,60.8C60.7,60.9,60.8,60.8,60.7,60.8c-0.2,0-0.4,0.5-0.8,0.3C59.7,61,59.4,61,59.3,61
		c-0.2,0.1-0.4,0.1-0.5,0.1c0.3,0.1,0.6-0.1,0.8-0.2c0.2,0.2,0.5,0.1,0.8,0C60.4,60.9,60.5,60.8,60.7,60.8"/>
</g>
<g id="path76740">
	<path fill="#A8EFFF" d="M59.4,61.3C59.4,61.4,59.5,61.3,59.4,61.3c-0.2,0-0.4,0.5-0.8,0.3c-0.2-0.1-0.5-0.1-0.6-0.1
		c-0.2,0.1-0.4,0.1-0.5,0.1c0.3,0.1,0.6-0.1,0.8-0.2c0.2,0.2,0.5,0.1,0.8,0C59.2,61.4,59.3,61.3,59.4,61.3"/>
</g>
<g id="path76741">
	<path fill="#A8EFFF" d="M58.8,60.4c-0.1,0.3-0.5,0.2-0.7,0.2c-0.2-0.1-0.5,0-0.6,0c0.1-0.1,0.1-0.1,0.2-0.1l0,0
		c0.1-0.1,0.2-0.1,0.2-0.1c0.1-0.2,0.2,0.2,0.4,0c0,0,0,0,0,0.1c0.1,0.1,0.1,0,0.2,0C58.5,60.5,58.7,60.4,58.8,60.4L58.8,60.4
		L58.8,60.4L58.8,60.4"/>
</g>
<g id="path76742">
	<path fill="#A8EFFF" d="M63,60.9C63,61,63.1,60.9,63,60.9c-0.2,0-0.4,0.5-0.8,0.3c-0.2-0.1-0.5-0.1-0.6-0.1
		c-0.2,0.1-0.4,0.1-0.5,0.1c0.3,0.1,0.6-0.1,0.8-0.2c0.2,0.2,0.5,0.1,0.8,0C62.8,61,62.9,60.9,63,60.9"/>
</g>
<g id="path76743">
	<path fill="#A8EFFF" d="M62.1,61.4C62.1,61.5,62.2,61.4,62.1,61.4c-0.2,0-0.4,0.5-0.8,0.3c-0.2-0.1-0.5-0.1-0.6-0.1
		c-0.2,0.1-0.4,0.1-0.5,0.1c0.3,0.1,0.6-0.1,0.8-0.2c0.2,0.2,0.5,0.1,0.8,0C61.9,61.5,62,61.4,62.1,61.4"/>
</g>
<g id="path76744">
	<path fill="#A8EFFF" d="M62,60.4c-0.1,0.3-0.5,0.2-0.7,0.2c-0.2-0.1-0.5,0-0.6,0c0.1-0.1,0.1-0.1,0.2-0.1l0,0
		c0.1-0.1,0.2-0.1,0.2-0.1c0.1-0.2,0.2,0.2,0.4,0c0,0,0,0,0,0.1c0.1,0.1,0.1,0,0.2,0C61.7,60.6,61.9,60.4,62,60.4L62,60.4L62,60.4
		L62,60.4"/>
</g>
<g id="path76745">
	<path fill="#A8EFFF" d="M64.8,61.5C64.8,61.6,64.9,61.5,64.8,61.5c-0.2,0-0.4,0.5-0.8,0.3c-0.2-0.1-0.5-0.1-0.6-0.1
		c-0.2,0.1-0.4,0.1-0.5,0.1c0.3,0.1,0.6-0.1,0.8-0.2c0.2,0.2,0.5,0.1,0.8,0C64.6,61.6,64.7,61.5,64.8,61.5"/>
</g>
<g id="path76746">
	<path fill="#A8EFFF" d="M63.9,62C63.9,62.1,64,62,63.9,62c-0.2,0-0.4,0.5-0.8,0.3c-0.2-0.1-0.5-0.1-0.6-0.1
		c-0.2,0.1-0.4,0.1-0.5,0.1c0.3,0.1,0.6-0.1,0.8-0.2c0.2,0.2,0.5,0.1,0.8,0C63.7,62.1,63.7,62,63.9,62"/>
</g>
<g id="path76747">
	<path fill="#A8EFFF" d="M63.8,61.1c-0.1,0.3-0.5,0.2-0.7,0.2c-0.2-0.1-0.5,0-0.6,0c0.1-0.1,0.1-0.1,0.2-0.1l0,0
		c0.1-0.1,0.2-0.1,0.2-0.1c0.1-0.2,0.2,0.2,0.4,0c0,0,0,0,0,0.1c0.1,0.1,0.1,0,0.2,0C63.5,61.2,63.6,61.1,63.8,61.1L63.8,61.1
		L63.8,61.1L63.8,61.1"/>
</g>
<g id="path76748">
	<path fill="#A8EFFF" d="M63.2,63.4C63.2,63.5,63.3,63.4,63.2,63.4c-0.2,0-0.4,0.5-0.8,0.3c-0.2-0.1-0.5-0.1-0.6-0.1
		c-0.2,0.1-0.4,0.1-0.5,0c0.3,0.1,0.6-0.1,0.8-0.2c0.2,0.2,0.5,0.1,0.8,0C63,63.6,63.1,63.4,63.2,63.4"/>
</g>
<g id="path76749">
	<path fill="#A8EFFF" d="M62.2,62.8C62.2,62.9,62.3,62.8,62.2,62.8c-0.2,0-0.4,0.5-0.8,0.3C61.2,63,60.9,63,60.8,63
		c-0.2,0.1-0.4,0.1-0.5,0.1c0.3,0.1,0.6-0.1,0.8-0.2c0.2,0.2,0.5,0.1,0.8,0C61.9,63,62,62.8,62.2,62.8"/>
</g>
<g id="path76750">
	<path fill="#A8EFFF" d="M62.2,63c-0.1,0.3-0.5,0.2-0.7,0.2c-0.2-0.1-0.5,0-0.6,0c0.1-0.1,0.1-0.1,0.2-0.1l0,0
		c0.1-0.1,0.2-0.1,0.2-0.1c0.1-0.2,0.2,0.2,0.4,0c0,0,0,0,0,0.1c0.1,0.1,0.1,0,0.2,0C61.9,63.1,62,63,62.2,63L62.2,63L62.2,63
		L62.2,63"/>
</g>
<g id="path76751">
	<path fill="#A8EFFF" d="M64.2,63.5C64.2,63.6,64.3,63.5,64.2,63.5c-0.2,0-0.4,0.5-0.8,0.3c-0.2-0.1-0.5-0.1-0.6-0.1
		c-0.2,0.1-0.4,0.1-0.5,0.1c0.3,0.1,0.6-0.1,0.8-0.2c0.2,0.2,0.5,0.1,0.8,0C64,63.7,64.1,63.5,64.2,63.5"/>
</g>
<g id="path76752">
	<path fill="#A8EFFF" d="M63.3,64.1C63.3,64.2,63.4,64.1,63.3,64.1c-0.2,0-0.4,0.5-0.8,0.3c-0.2-0.1-0.5-0.1-0.6-0.1
		c-0.2,0.1-0.4,0.1-0.5,0.1c0.3,0.1,0.6-0.1,0.8-0.2c0.2,0.2,0.5,0.1,0.8,0C63,64.2,63.1,64.1,63.3,64.1"/>
</g>
<g id="path76753">
	<path fill="#A8EFFF" d="M63.2,63.1c-0.1,0.3-0.5,0.2-0.7,0.2c-0.2-0.1-0.5,0-0.6,0c0.1-0.1,0.1-0.1,0.2-0.1l0,0
		c0.1-0.1,0.2-0.1,0.2-0.1c0.1-0.2,0.2,0.2,0.4,0c0,0,0,0,0,0.1c0.1,0.1,0.1,0,0.2,0C62.9,63.2,63,63.1,63.2,63.1L63.2,63.1
		L63.2,63.1L63.2,63.1"/>
</g>
<g id="path76754">
	<path fill="#A8EFFF" d="M54.9,57.4C54.9,57.5,55,57.4,54.9,57.4c-0.2,0-0.4,0.5-0.8,0.3c-0.2-0.1-0.5-0.1-0.6-0.1
		c-0.2,0.1-0.4,0.1-0.5,0.1c0.3,0.1,0.6-0.1,0.8-0.2c0.2,0.2,0.5,0.1,0.8,0C54.7,57.5,54.8,57.4,54.9,57.4"/>
</g>
<g id="path76755">
	<path fill="#A8EFFF" d="M53.8,57c-0.1,0.3-0.5,0.2-0.7,0.2c-0.2-0.1-0.5,0-0.6,0c0.1-0.1,0.1-0.1,0.2-0.1l0,0
		c0.1-0.1,0.2-0.1,0.2-0.1c0.1-0.2,0.2,0.2,0.4,0c0,0,0,0,0,0.1c0.1,0.1,0.1,0,0.2,0C53.5,57.1,53.7,57,53.8,57L53.8,57L53.8,57
		L53.8,57"/>
</g>
<g id="path76756">
	<path d="M42.7,68c0-0.4,0.2-0.7,0.7-0.7c0.4,0,0.7,0.2,0.7,0.7c0,0.4-0.2,0.7-0.7,0.7S42.7,68.4,42.7,68z M43.4,67.6
		c-0.2,0-0.3,0.2-0.3,0.4c0,0.2,0,0.4,0.3,0.4s0.3-0.2,0.3-0.4C43.7,67.8,43.6,67.6,43.4,67.6"/>
</g>
<g id="path76757">
	<path d="M44.8,68.9h-0.4v-1.3H45c0.2,0,0.5,0.1,0.5,0.3c0,0.2-0.1,0.3-0.3,0.3l0,0c0.2,0,0.3,0.1,0.3,0.3c0,0.1,0,0.2,0.1,0.3h-0.4
		c0-0.1,0-0.2,0-0.3c0-0.2,0-0.2-0.2-0.2h-0.1L44.8,68.9L44.8,68.9z M44.9,68.1c0.1,0,0.2,0,0.2-0.1s-0.1-0.1-0.2-0.1h-0.1v0.3h0.1"
		/>
</g>
<g id="path76758">
	<path d="M45.8,68.4c0-0.4,0.2-0.7,0.7-0.7s0.7,0.2,0.7,0.7c0,0.4-0.2,0.7-0.7,0.7C46.1,69.1,45.8,68.9,45.8,68.4z M46.5,68
		c-0.2,0-0.3,0.2-0.3,0.4c0,0.2,0,0.4,0.3,0.4c0.2,0,0.3-0.2,0.3-0.4S46.7,68,46.5,68"/>
</g>
<g id="path76759">
	<rect x="48.7" y="69.2" width="0.9" height="0.2"/>
</g>
<g id="path76760">
	<rect x="50.9" y="69.2" width="0.9" height="0.2"/>
</g>
<g id="path76761">
	<path d="M52.8,69.1v-1.3h0.6c0.3,0,0.5,0.1,0.5,0.4s-0.2,0.4-0.5,0.4h-0.2v0.5H52.8L52.8,69.1z M53.3,68.4c0.1,0,0.2-0.1,0.2-0.2
		S53.4,68,53.3,68h-0.2v0.3L53.3,68.4"/>
</g>
<g id="path76762">
	<path d="M54,69.1v-1.3h0.4v1H55V69h-1"/>
</g>
<g id="path76763">
	<path d="M55.1,68.9l0.5-1.3H56l0.5,1.3h-0.4L56,68.7h-0.5l-0.1,0.2L55.1,68.9L55.1,68.9z M56,68.4l-0.2-0.5l0,0l-0.2,0.5H56"/>
</g>
<g id="path76764">
	<path d="M56.9,67.8h-0.4v-0.2h1.1v0.2h-0.4v1h-0.4v-1"/>
</g>
<g id="path76765">
	<path d="M57.5,68.8l0.5-1.3h0.4l0.5,1.3h-0.4l-0.1-0.2H58l-0.1,0.2H57.5L57.5,68.8z M58.4,68.3l-0.2-0.5l0,0L58,68.3H58.4"/>
</g>
<g id="path76766">
	<path d="M50.1,69.3l-0.5-0.8H50l0.3,0.5l0.3-0.5H51l-0.5,0.8V70H50L50.1,69.3"/>
</g>
<g id="path3767">
	<path fill="#FFD90F" d="M20.3,34.3V28h1.9l1.3,4.8l1.2-4.8h1.9v6.3h-1.2v-5.1l-1.3,5.1h-1.3l-1.3-5.1v5.1H20.3"/>
</g>
<g id="path3765">
	<path fill="#FFD90F" d="M31.6,31.1c0,0.7,0.2,1.2,0.5,1.6c0.3,0.4,0.7,0.6,1.3,0.6s1-0.2,1.3-0.6c0.3-0.4,0.5-0.9,0.5-1.6
		s-0.2-1.2-0.5-1.6s-0.7-0.6-1.3-0.6s-1,0.2-1.3,0.6C31.7,29.9,31.6,30.4,31.6,31.1 M30.2,31.1c0-1,0.3-1.8,0.8-2.4
		c0.6-0.6,1.3-0.9,2.3-0.9c0.9,0,1.7,0.3,2.3,0.9s0.8,1.4,0.8,2.4c0,1-0.3,1.8-0.8,2.4c-0.6,0.6-1.3,0.9-2.3,0.9
		c-0.9,0-1.7-0.3-2.3-0.9C30.5,32.9,30.2,32.1,30.2,31.1"/>
</g>
<g id="path3761">
	<path fill="#FFD90F" d="M40,34.3V28h1.4l2.6,4.3V28h1.3v6.3H44L41.4,30v4.3H40"/>
</g>
<g id="path3759">
	<path fill="#FFD90F" d="M50.3,34.3v-5.2h-1.9V28h5v1.1h-1.9v5.2H50.3"/>
</g>
<g id="path3757">
	<path fill="#FFD90F" d="M59.1,29.2l-0.9,2.7H60L59.1,29.2 M58.3,27.9h1.5l2.3,6.3h-1.4L60.3,33h-2.5l-0.4,1.3H56L58.3,27.9"/>
</g>
<g id="path3753">
	<path fill="#FFD90F" d="M65.3,34.3V28h1.4l2.6,4.3V28h1.3v6.3h-1.3L66.7,30v4.3H65.3"/>
</g>
<g id="path3751">
	<path fill="#FFD90F" d="M76.7,29.2l-0.9,2.7h1.8L76.7,29.2 M75.9,27.9h1.5l2.3,6.3h-1.4L77.9,33h-2.5L75,34.3h-1.4L75.9,27.9"/>
</g>
<g>
	<path opacity="0.2" enable-background="new    " d="M10.4,74.3V25.8c0-12.1,8.2-22.7,19.8-25.8H0v100h30.2
		C18.5,96.9,10.4,86.3,10.4,74.3z"/>
	<path opacity="0.1" fill="#FFFFFF" enable-background="new    " d="M89.6,25.8v48.5c0,12.1-8.2,22.7-19.8,25.8H100V0H69.8
		C81.5,3.1,89.6,13.7,89.6,25.8z"/>
</g>
</svg>
