<?xml version="1.0" encoding="utf-8"?>
<!-- Generator: Adobe Illustrator 23.0.0, SVG Export Plug-In . SVG Version: 6.00 Build 0)  -->
<svg version="1.0" id="Layer_1" xmlns="http://www.w3.org/2000/svg" xmlns:xlink="http://www.w3.org/1999/xlink" x="0px" y="0px"
	 width="100px" height="100px" viewBox="0 0 100 100" enable-background="new 0 0 100 100" xml:space="preserve">
<g id="path162">
	<path fill="#00287E" d="M0,100h100V0H0V100z"/>
</g>
<g id="g9347" transform="matrix(1.25,0,0,1.25,-80.18497,-55.705)">
	<path fill="#006FFF" d="M114.4,97.1c-3.1-1.3-5.7-1.7-7.5-1.1v-0.3c0.2,0,0.3,0,0.5,0c0.1,0,0.1,0,0.2,0c0.7,0,1.2-0.2,1.9-0.6V95
		c-1.4,0.5-2.3,0.1-2.7,0c0.6-0.2,1.8-0.5,2.4-0.6c0.1,0,0.3-0.1,0.4-0.1c0.6-0.1,1-0.4,1-1.3v-9c0-1.6,0.3-2.2,0.6-2.4
		c0.2-0.2,0.4-0.1,0.4-0.1h0.1l-0.1-0.2c0,0,0,0,0,0l-0.4-0.6l-0.7-1.2c0,0,0,0,0,0l-0.1-0.1c-3,1-3.6-0.9-6.1-0.9s-3.2,1.9-6.1,0.9
		l-0.1,0.1c0,0,0,0,0,0l-0.7,1.2L97,81.3c0,0,0,0,0,0l-0.1,0.2H97c0,0,0.2-0.1,0.4,0.1c0.3,0.2,0.6,0.8,0.6,2.4v9
		c0,1,0.4,1.2,0.9,1.3c0.6,0.2,2.2,0.6,2.6,0.7c-0.3,0.1-0.9,0.4-2,0.2c-0.1,0-0.2,0-0.3-0.1c0,0,0,0,0,0c-0.1,0-0.3-0.1-0.4-0.1
		v0.1c0.8,0.5,1.4,0.7,2.2,0.6c0.1,0,0.2,0,0.4,0V96c-1.8-0.6-4.4-0.2-7.6,1.1v0.1c0.3-0.1,0.5-0.1,0.8-0.1
		c-0.2,0.1-0.4,0.2-0.5,0.2c1-0.2,2-0.2,2.8,0c0.7,0.2,1.4,0.6,1.8,1.2h0.1c0,0,0-0.1-0.1-0.3c0.1,0.1,0.1,0.1,0.2,0.2c0,0,0,0,0,0
		c0.1,0.1,0.1,0.1,0.2,0.2c0,0,0.4-0.6,1.1,0.1h0.1c0,0,0-0.1-0.1-0.4c0.1,0.1,0.3,0.3,0.4,0.5h1.1h0.1c0,0,0-0.1-0.1-0.3
		c0.2,0.2,0.3,0.4,0.3,0.4s-0.1-0.2-0.2-0.5c0.1,0.1,0.1,0.1,0.2,0.2c-0.1-0.2,0.4-0.7,1.1,0.2h0.1c0-0.1-0.1-0.3-0.1-0.4
		c0,0.1,0.1,0.1,0.1,0.2c-0.3-0.7,0.3-0.7,0.9,0.2c0,0,0,0,0.1-0.1c0,0,0,0,0,0.1c0,0,0-0.1,0-0.1c0.1-0.1,0.1-0.2,0.2-0.3
		c0,0,0.1-0.1,0.1-0.1c0-0.1,0.1-0.1,0.1-0.2c0,0,0,0.1-0.1,0.2c0.5-0.7,0.9-0.5,0.6,0.4c0.7-0.9,1.2,0.1,1.2,0.1s0-0.1,0.1-0.2
		c0,0,0,0.1,0,0.1h0.1h1.2c0.1-0.1,0.2-0.2,0.3-0.3c-0.1,0.1-0.1,0.2-0.1,0.2h0.1c0.6-0.7,1.2-0.1,1.2-0.1c0.1-0.1,0.2-0.2,0.3-0.3
		c0,0.1-0.1,0.2-0.1,0.2h0.1c0.1-0.1,0.1-0.2,0.2-0.2c0,0,0,0,0,0c0.3-0.3,0.7-0.6,1.1-0.8c0.9-0.4,2.1-0.5,3.4-0.2
		c-0.2-0.1-0.4-0.2-0.6-0.2C113.9,97.1,114.1,97.1,114.4,97.1L114.4,97.1z"/>
	<g id="path214">
		<path fill="#B37535" d="M86.7,95.3c0.2-0.4,0.5-1.4-0.1-1.9l-0.1,0.1v1.3l0.1,0.3"/>
	</g>
	<g>
		<path fill="none" d="M103.5,101c-7.1,0-9.6-1.4-11.5-2.2c2.3,1.8,5.9,4.7,12.2,4.5c6.3,0.2,9.4-2.7,11.7-4.5
			c-1.9,0.9-4.6,2.2-11.7,2.2L103.5,101z"/>
		<path fill="#FFFFFF" d="M119.9,98.2c-1.2-0.9-1.7-2.3-4.8-1.1c-3.9,1.4-6.3,2-10.9,1.9c-4.6,0.1-7-0.5-10.9-1.9
			c-3.9-1.4-4,0.3-5.2,1.2l-0.5,0.6c0.1,0,0.2-0.1,0.3-0.1H88c3.9,3.5,7.8,7.1,16.2,7.2c8.2-0.1,11.9-3.7,15.7-7.2h0.1
			c0.1,0,0.2,0.1,0.3,0.1L119.9,98.2z M104.2,103.3c-6.3,0.2-9.9-2.7-12.2-4.5c1.9,0.8,4.4,2.2,11.5,2.2l0.7,0
			c7.1,0,9.8-1.3,11.7-2.2C113.6,100.6,110.5,103.5,104.2,103.3z"/>
	</g>
	<g id="path314">
		<path d="M114.7,74.7c-0.4,0.6-0.8,0.1-0.5-0.3c0.1-0.1,0.2-0.2,0.3-0.2C114.8,74,115,74,115,74s-0.4,0.1-0.6,0.3
			c-0.2,0.2,0,0.2-0.1,0.3c0,0.1,0,0.1,0.1,0s0.1,0,0.2-0.1C114.7,74.4,114.8,74.6,114.7,74.7"/>
	</g>
	<g>
		<path fill="#86473F" d="M121.8,71c0.3-0.3,0.5-0.5,0.6-0.7c0.5-0.6-0.1-0.5-0.3-0.2c0,0,0,0.1-0.1,0.1c0,0,0,0,0-0.1
			c-0.1-0.1-0.4,0.1-0.5,0.2s-0.1,0.2-0.1,0.2c0,0.1,0,0.1-0.2,0.3c-0.1,0-0.1-0.2,0-0.3c0.1-0.3-0.1-0.1-0.4,0.1c0,0,0,0,0,0
			c-0.1-0.1-0.3,0-0.6,0.3c-0.1,0.1-0.2,0.1-0.3,0.2c-0.1,0-0.1-0.2,0.2-0.4c0.3-0.4,0-0.2-0.4-0.1c-0.3,0.2-0.9,0.3-1.1,0.4
			c0.1-0.1,0.3-0.3,0.7-0.5c0.7-0.5,1.8-1.2,2-1.7c0.1-0.1,0.2-0.2,0.3-0.3c0.2-0.4,0-0.7-0.2-0.2c-0.1,0.2-0.2,0.3-0.2,0.3
			c0-0.2,0-0.3-0.1-0.3c-0.1-0.1-0.2,0.1-0.3,0.3c0,0,0,0,0,0c-0.1,0-0.2-0.1-0.3-0.2c-1,0.8-0.9-0.1-0.9-0.1s-0.1,0.2-0.3,0.4
			c-0.1,0.1-0.1,0.1-0.2,0.2c0-0.1,0-0.2,0-0.2H119c0,0,0,0.1-0.1,0.2c-0.1,0-0.1,0-0.2-0.1c-0.2-0.1-0.2-0.2-0.7,0.3c0,0,0,0,0,0
			c-0.1,0-0.1,0-0.3,0.1c-0.4,0-0.7-0.7-0.8-1.1c0-0.5-0.1-0.5-0.2,0c-0.1,0.2-0.1,0.4-0.1,0.6c0-0.1,0-0.2,0-0.2c0-0.1,0-0.3,0-0.3
			s-0.1,0.2-0.1,0.3c0,0.1,0,0.2,0,0.3c0-0.1-0.1-0.2-0.1-0.3c0-0.3,0-0.4-0.1-0.4s-0.1,0.1-0.2,0.4c-0.2,0.4-0.1,1,0.2,1.8
			c-0.3-0.1-0.9-0.6-1.2-1c-0.4-0.4-0.3-0.3-0.3,0.1c0,0.1,0,0.3,0.1,0.4l0,0.1c-0.1-0.1-0.1-0.1-0.2-0.1c0.1,0.1,0.1,0.1,0.2,0.2
			l0,0.1c0,0-0.2-0.1-0.4-0.1c0-0.1,0-0.1,0-0.2v-0.1v-0.1c-0.1-0.1-0.1-0.1-0.2-0.1c0,0,0,0.1,0,0.2c0,0,0,0,0,0.1c0,0,0,0,0,0.1
			c-0.3-0.1-0.5-0.3-0.7-0.5c-0.4-0.4-0.4-0.2-0.3,0.1c0.1,0.1,0.1,0.3,0.3,0.5c-0.2-0.1-0.3-0.2-0.4-0.3c-0.2-0.2-0.3-0.3-0.4-0.2
			c0,0.1,0,0.2,0.1,0.4c0,0,0.1,0,0.1,0c-0.1-0.2-0.1-0.2-0.1-0.2s0.1,0,0.3,0.2c0.3,0.4,1.4,0.8,1.4,0.8h0.1v-0.1
			c0.1,0,0.3,0.1,0.5,0.1c1.7,0.2,2.1,0.6,2,1.2h0l0,0c0,0,0,0,0,0c-0.1,0-0.2,0-0.3,0c-0.1-0.1-0.1-0.1-0.2-0.2
			c0.1,0.1,0.1,0.1,0.1,0.2c-0.8,0-1.4-0.1-1.8-0.3c0,0,0,0-0.1,0c-0.1,0-0.1-0.1-0.1-0.1c-0.1-0.1-0.2-0.1-0.2-0.1
			c-0.2-0.1-0.3-0.2-0.3-0.3c0,0-0.1,0-0.1,0c0,0,0,0,0,0v0c-0.1,0.1,0,0.4,0,0.4c-0.3-0.1-0.7-0.3-0.9-0.5c0,0-0.1-0.1-0.1-0.1
			c-0.3-0.3-0.3,0,0,0.4c0.2,0.2,0.4,0.4,0.7,0.6c0,0,0,0,0,0c-0.2,0-0.7-0.2-0.9-0.5c-0.1,0-0.2-0.2-0.3-0.1
			c-0.1,0.1,0,0.4,0.2,0.6c0.7,0.9,1.8,1.1,2.7,1.2c0.2,0,0.4,0,0.6,0c-0.1,0.1-0.3,0.2-0.4,0.2c-0.7,0-1.1,0-1.7,0.3
			c-0.3,0.1-0.4,0.3-0.4,0.5c-0.7,0.3-0.6,1-0.5,1.3c0.1,0.2,0.4,0.3,0.6,0.4c0,0,0,0,0,0c-0.1-0.1-0.3-0.2-0.3-0.3
			c-0.1-0.3-0.2-0.7,0.1-1c0,0.1,0,0.3,0.1,0.4c0.1,0.3,0.4,0.4,0.6,0.4v0.1c0,0,0.1,0.1,0.3,0.1c0,0,0,0,0,0c0.2,0.1,0.4,0.1,0.5,0
			c0.1-0.1,0.1-0.2,0.3-0.3c0.2-0.1,0.3,0,0.2,0.2c0,0.1-0.1,0.2-0.2,0.3c0,0,0,0-0.1,0c0,0,0,0,0,0.1c-0.3,0.4-0.8,0.8-1,1.1
			c-0.3,0.3-0.3,0.3-0.3,0.5c-0.3,0.3-0.3,0.3-0.3,0.5c0,0,0,0,0,0.1c0,0.1,0.1,0.2,0.1,0.3c0.1,0.1,0.1,0.1,0.1,0.2v0
			c-0.2,0.3-0.5,0.5-0.5,0.7c0,0.1,0,0.1-0.1,0.2h0l0,0c-0.2,0.2-0.5,0.5-0.5,0.5c-0.7-0.4-1.7-1-2.1-1.3c-0.4-0.3-0.4-0.3-1.1-0.3
			c-0.6,0-0.9,0.7-0.9,1.4h0c-0.1,0.2-0.1,0.5-0.1,0.6h0.1c0-0.1,0-0.4,0.1-0.6h0c0.5,0,1-0.1,1.6-0.3l1.2,1.9c0,0-0.2-0.1-0.5,0.1
			l-0.4,0.8c-0.1,0.4-0.2,0.9-0.2,1.6c0,1.3,0,5.1,0,5.1c0.3-0.1,0.4-0.6,0.3-1.5c0.2,0,0.1-2.4,0.2-3c0.1-0.6,0.3-0.6,0.6-0.6
			c0,0,0.4,0,0.4,0c0,0,0.7,2,0.7,2l0.1,0.1v-0.6c0,0,0.1,0.1,0.2,0.3c0.3,0.5,1.8,1.4,2.5,1.8c-0.2,0.2-0.4,0.6-0.7,1.2
			c-0.3,0.8,0,1.7,0.2,2.8c0,0.1,0,0.2,0,0.4c0,0.1,0,0.2,0,0.3c0,0,0,0.1,0,0.1c0,0.2,0,0.4,0,0.6c-0.2,1.2-1.1,2.3-1.7,2.6
			c-0.6,0.3-0.7,0.8-0.7,0.8l0,0c-0.1,0.1-0.1,0.2-0.1,0.2l0.7,0.4l0.3-0.4c0.1,0,0.9-0.4,1.1-0.9c0.1-0.2,0.1-0.3,0.2-0.4
			c0.2-0.6,1.2-1.6,1.2-1.6c0.4-0.5,0.4-0.5,0.3-0.7h0.1c0,0-0.1-0.2-0.1-0.4v-0.1c0,0,0-0.6,0-0.8c0.3-0.9,0.8-1.6,1.2-2
			c0.1-0.1,0.2-0.2,0.3-0.3c0.1-0.1,0.2-0.2,0.3-0.2v0.2v0.3c0,1,0.3,1.3,0.9,2.1c0.2,0.2,0.4,0.5,0.6,0.8c0.2,0.3,0.4,0.7,0.5,1.1
			c0.1,0.3,0.1,0.5,0.1,0.8c-0.2,1.1-0.3,1.8-0.2,2.7c-0.2,0.5-0.4,0.7-0.4,0.7l0.1,0.2c-0.2,0.1-0.4,0.5-0.5,0.7l-0.1,0.4l0.9,0
			c0,0,0.1-0.3,0.1-0.4v-0.1c0.1-0.2,0.3-0.6,0.5-0.7c0,0,0.1,0,0.1-0.1c0.1,0,0.1,0,0.1-0.7c0-0.9,0-1.7,0.2-2.9
			c0.2-0.8,0.1-1,0-1.3c0-0.1-0.1-0.3-0.2-0.5c0-0.1,0-0.1-0.1-0.2c-0.3-1-0.2-1.2,0-1.7c0-0.1,0.1-0.2,0.2-0.3
			c0.3-0.7,0.5-1.4,0.5-1.4s0.1,0,0.2-0.1c0,0,0.1-0.1,0.1-0.2c0-0.3-0.1-0.6-0.3-1c-0.3-0.6-0.9-1.2-1.7-1.9
			c-1.2-1.1-1.4-2.3-1.4-2.3c0-0.1,0-0.1,0-0.2c0,0,0,0,0,0c0.1,0,0.1,0,0.2,0c0,0,0-0.1,0-0.1c0,0,0,0,0,0c0,0,0,0,0,0
			c-0.1-0.6,0.4-4.9,0.4-4.9h0.3c0,0,0,0,0,0c0-0.1,0-0.5,0.1-1.1c0-0.2,0.1-0.3,0.1-0.5c0.1-0.3,0.1-0.4,0.2-0.5
			c0.1-0.3,0.2-0.4-0.1-1.5c0-0.1,0-0.2-0.1-0.3c0.1,0,0.1,0,0.1,0v0c0.7-0.2,0.9-0.5,0.9-0.7c0.1-0.2,0.1-0.3,0.1-0.3
			s-0.6-0.3-1.3-0.3c-0.3,0-0.4-0.1-0.4-0.1c0.4-0.1,0.8-0.2,1.2-0.4C120.8,71.9,121.4,71.4,121.8,71z"/>
		<path d="M114.9,71.1c-0.9-0.1-1.3-0.4-1.6-0.6C113.6,70.8,114,71.1,114.9,71.1c1,0.2,1.5,0.4,1.8,0.6
			C116.5,71.4,116,71.2,114.9,71.1z"/>
		<path d="M113,69.9C113,70,113,70,113,69.9C113,70,113,70,113,69.9z"/>
		<path d="M113,70.1c0,0.1,0.1,0.3,0.3,0.4C113.2,70.3,113.1,70.2,113,70.1C113.1,70.1,113,70.1,113,70.1z"/>
		<path fill="#86473F" d="M100.3,78.8c-0.1-0.3-0.2-0.4-0.4-0.5c-0.1-0.2-0.3-0.2-0.5-0.2c-0.2-0.1-0.6,0.1-1,0.3
			c-0.3,0.2-0.6,0.3-0.9,0.4c-0.5,0.2-1,0.3-1.3,0.5c-0.2-0.3-0.5-0.8-0.6-1c-0.1-0.1-0.1-0.1-0.2-0.2c0-0.1,0-0.1-0.1-0.1
			c0,0,0,0,0,0c-0.1-0.1-0.2-0.2-0.3-0.5c-0.2-0.4-0.2-0.5-0.5-0.8c0,0,0,0,0,0c0-0.1-0.1-0.1-0.1-0.1c-0.2-0.2-0.6-0.6-0.8-0.9
			c0.1-0.1,0.2-0.1,0.5-0.1c0.1,0,0.2,0,0.4,0c0.3,0,0.4-0.3,0.4-0.4s0-0.1,0.1-0.2c0.1-0.1,0.1-0.1,0-0.2h0v-0.1h0c0,0,0-0.1,0-0.1
			c0-0.1,0-0.1,0-0.1c0-0.1,0-0.1,0-0.2c0,0,0-0.1,0-0.2c0-0.1-0.1-0.1-0.1-0.2v0c0,0,0,0,0,0c-0.1-0.2-0.3-0.3-0.5-0.4
			c-0.3-0.1-0.6-0.2-0.8-0.4c-0.2-0.2-0.7-0.4-1-0.6c-0.1,0-0.1-0.1-0.1-0.1c0,0,0,0,0,0c0.1,0,0.5,0,1,0c0.3,0,0.6,0,0.8,0
			c0.1,0,0.2,0,0.2,0s-0.1,0-0.2-0.1c-0.2,0-1-0.1-1-0.1v-0.1c0,0,0.1,0,0.4-0.1c0.1,0,0.2,0,0.3,0c0,0,0,0,0,0c0,0,0.1,0,0.1,0
			c0.2,0,0.3,0,0.2-0.1c0,0,0,0,0,0c0,0,0-0.1-0.1-0.1c0.2-0.1,0.5-0.2,0.8-0.3c0.8-0.4,1.2-1.1,1.4-1.4c-0.3,0.3-0.8,0.6-1.1,0.7
			c0.8-0.6,1-1.4,1-1.4c-0.1,0.1-0.2,0.2-0.3,0.3c0.1-0.2,0.2-0.4,0.2-0.4h-0.1c-0.4,0.4-1,0.8-1.3,0.9c0-0.1,0.1-0.3,0.1-0.5
			c0.1-0.3,0-0.3-0.1-0.1c0-0.1,0-0.1,0-0.1c0-0.1-0.1-0.1-0.4,0.5c-0.1,0.2-0.4,0.4-0.6,0.6c0-0.1,0-0.1,0.1-0.2
			c0.1-0.1,0.1-0.2,0.1-0.3c0,0-0.1,0.1-0.2,0.3c-0.1,0.1-0.1,0.2-0.2,0.3c-0.1,0.1-0.2,0.1-0.3,0.1c0,0,0,0,0.1,0
			c0.3-0.3,0.4-0.5,0.5-0.9c0.2-0.4,0.1-0.5-0.1-0.1c0,0,0,0,0-0.1c0.1-0.4,0-0.4,0-0.4s-0.1,0-0.3,0.4c-0.3,0.4-1,1.1-1.4,1.3
			c0-0.1,0.1-0.3,0.2-0.4c0.2-0.4,0.1-0.4-0.1-0.1c0,0.1-0.1,0.1-0.1,0.2c0,0,0-0.1,0-0.1v-0.1c0.2-0.3,0.1-0.4,0.1-0.4
			c0-0.1-0.1-0.1-0.2,0.2c-0.2,0.3-0.4,0.6-0.7,0.8c0,0-0.1,0-0.1,0c0,0,0,0,0-0.1c0-0.3-0.1-0.5-0.1-0.6c0-0.1-0.1-0.2-0.1-0.3
			c0.1-0.4,0.1-0.7,0.1-0.9c0-0.1,0-0.1,0-0.2c0-0.1,0-0.2,0-0.2s0,0.1-0.1,0.1c0-0.2,0-0.4,0-0.5c0,0,0-0.1,0-0.1c0,0,0,0,0,0
			c0,0,0,0,0,0c0-0.1-0.1-0.2-0.1-0.2s-0.1,0.1-0.1,0.2c0,0,0,0.1,0,0.1c0,0,0,0,0,0c0,0.2,0,0.4,0,0.5c0,0.1,0,0.2,0,0.4
			c0,0,0,0,0,0c-0.2,0.8-0.6,1.2-0.7,1.3c-0.1-0.4-0.2-0.6-0.3-0.6s-0.1,0-0.1,0c0,0.2-0.1,0.4-0.1,0.5c-0.1-0.1-0.3-0.4-0.4-0.8
			c0,0,0-0.1,0-0.1c0.1-0.5,0-0.9,0-1.1c0,0.3-0.1,0.5-0.2,0.7c0-0.1,0-0.2,0-0.3c0.1-0.2,0.1-0.2,0-0.1c0,0,0-0.1,0-0.1
			c0.1-0.8-0.1-1.3-0.1-1.3l-0.1-0.1v0.1c-0.1,0.9-0.4,1.4-0.8,1.7c0,0,0,0,0,0c0-0.1-0.1-0.1-0.1,0c0,0-0.1-0.1-0.1-0.2
			c0,0,0-0.1-0.1-0.1c0,0.1,0,0.3,0,0.5c-0.4,0.1-0.9-0.1-0.9-0.1v0c-0.1,0-0.1,0-0.1,0l0.1,0.1v0l0.8,0.5c0,0.1-0.1,0.2-0.1,0.3
			c0,0,0,0-0.1,0l0,0c-0.2,0.3-0.6,0.4-0.9,0.4c-0.4,0-0.6-0.1-0.6-0.1h-0.1l0,0c-0.1,0-0.1,0-0.1,0c0.1,0.2,0.2,0.3,0.4,0.4
			c0.4,0.3,1,0.4,1.7,0.4c-0.1,0.1-0.1,0.1-0.2,0.2c-0.5,0.2-1.1,0.1-1.3,0c0.6,0.8,3.2,0.4,3.2,0.4s0.1,0.1,0.4,0.3
			c-0.4-0.1-0.7-0.1-1,0.1c-0.4,0.2-0.6,0.4-0.6,0.4c0.1,0.4,0.4,0.6,0.6,0.8c0,0,0,0,0,0c0.1,0.4,0.4,0.6,0.7,0.8
			c-0.1,0.5,0,1.1,0,1.7c0.1,1-0.2,1.9-0.2,1.9l0.3-0.1c0,0.2-0.1,0.3-0.1,0.3V78l0.2-0.3c0,0.1,0,0.2,0,0.3c0,0,0,0.1,0,0.1
			c0,0.2,0.1,0.3,0.3,0.4c0.2,0.1,0.2,0.3,0.2,0.3v0.4v0.2l0.3-0.2c0,0.3,0.1,0.9,0.1,1.3c0,0.4-0.1,0.7-0.1,0.8c0,0.1,0,0.2,0,0.3
			c0,0.1,0,0.1,0,0.2c0,0.1,0,0.1,0,0.1l0,0c0,0.1,0,0.2,0,0.2v0.1l0.2-0.1c-0.1,0.4-0.3,1-0.4,1.4c-0.2,0.5-1.4,1.2-2.6,2.5
			c-0.4,0.4-0.6,0.8-0.8,1.2c0,0,0,0,0,0c0,0.1-0.1,0.1-0.1,0.2c-0.2,0.5-0.2,0.9-0.2,1.3c0,0.1,0,0.2,0,0.3c0,0.1,0,0.2,0,0.2
			c0,0.2,0,0.3,0.1,0.3c0.1,0,0.2-0.1,0.3-0.1c0,0.1,0.1,0.2,0.2,0.4c0,0,0,0.1,0,0.1c0,0.2,0,0.3,0,0.3c0.1,0,0.1,0,0.2,0
			c0.1,0.3,0.2,0.6,0.2,1c0,1-0.7,1.6-0.9,1.8c-0.1,0.1-0.1,0.3-0.1,0.4c0,0.1,0,0.2,0,0.3c0,0.1,0,0.3,0,0.4
			c-0.1,0.5,0,0.9,0.2,1.3c0,0.1,0.1,0.2,0.1,0.4c0,0.6-0.1,1.4-0.1,1.6c0,0.1,0,0.1,0,0.2c0,0,0,0,0,0v0.1c0,0.3,0,0.4,0.2,0.5
			c0.1,0.1,0.2,0.2,0.3,0.3c0,0,0,0,0,0c0,0.3,0,0.3,0.1,0.4c0.1,0.1,0.2,0.2,0.3,0.3c0.1,0.1,0.2,0.3,0.4,0.4
			c-0.2-0.4-0.2-0.5-0.2-0.6c0,0,0,0,0,0c0.3-0.1,0.3-0.4,0.4-0.5c0-0.3-0.1-0.4-0.1-0.4V98c0,0-0.1-0.1-0.2-0.2h0.1
			c0,0,0,0-0.1-0.1c0-0.1-0.1-0.1-0.1-0.2c-0.3-0.4-0.2-1.3-0.1-2.3v-0.3c0-0.8,0.1-0.9,0.7-1.4c0.2-0.1,0.4-0.3,0.6-0.5
			c1-1,1.7-2.5,1.8-2.8c0,0,0.1,0,0.1,0c0.2,0.1,0.5,0.3,0.8,0.6c0.8,0.5,0.6,0.5,0.4,1.4c-0.2,0.9-0.2,1.1,0,1.4
			c0.1,0.1,0.2,0.2,0.4,0.4c0.2,0.2,0.3,0.3,0.7,0.4c0,0,0.1,0,0.1,0c0.2,0.1,0.3,0.3,0.7,0.8c0.5,0.6,0.8,0.8,1.1,0.9
			c0.1,0.1,0.2,0.1,0.4,0.1c0,0,0,0,0,0c0.2,0.1,0.2,0.2,0.2,0.2l0.2-0.1c0,0,0,0.1,0,0.1h0.1c0,0,0,0,0-0.1l0.5-0.2
			c0-0.1-0.1-0.2-0.1-0.2c0,0,0.1,0,0.1,0.1c0-0.1-0.1-0.1-0.2-0.1c0,0,0,0,0,0c0,0,0,0,0,0c-0.2-0.1-0.4-0.1-0.7-0.1
			c-0.4-0.1-0.5-0.1-0.8-0.5c-0.1-0.1-0.1-0.1-0.2-0.2c-0.4-0.5-0.8-0.9-1.1-1.8c-0.3-0.7-0.1-1.3,0.3-2.3c0-0.2,0.1-0.4,0.2-0.6
			c0.1-0.2,0.1-0.4,0.1-0.5c0.1-0.5,0.1-0.7-0.1-1c-0.1-0.2-0.2-0.4-0.2-0.4c0.2-0.2,0.6-0.7,1.1-1.1c0.1-0.1,0.2-0.1,0.2-0.2
			c0.6-0.6,1.2-1.8,1.3-2.2c0-0.1,0.1-0.2,0.1-0.2c0.1,0,0.2,0,0.4,0c0,0,0.1,0,0.1,0c0.2,0.3,0.1,1,0,1.6C96.8,87,96.8,87,97,87.3
			c0,0,0,0,0,0c0,0.1,0,0.1,0,0.2c0,0,0.1,0.1,0.1,0.2c0,0.1-0.1,0.3-0.1,0.6c0,0.2,0,0.4,0.2,0.5c0,0.1,0.1,0.2,0.1,0.2
			c0.1,0.1,0.4,0.2,0.6,0.2v-0.1c-0.2,0-0.5-0.1-0.6-0.2c0,0,0,0,0-0.1c0.2,0.1,0.4,0.1,0.5,0.1c0,0,0-0.1,0-0.2c0,0,0.1,0,0.1,0.1
			v-1C98,86.5,98,85,98,84c0-2.9-1.1-2.6-1.1-2.6l1.2-1.9c1,0.4,1.8,0.4,2.4,0.2v-0.1C100.5,79.6,100.4,79.3,100.3,78.8z"/>
		<path d="M113,70.1C113,70,113,70,113,70.1C113,70,113,70,113,70.1z"/>
		<path d="M114.5,69.6L114.5,69.6C114.5,69.6,114.6,69.7,114.5,69.6C114.5,69.6,114.5,69.6,114.5,69.6z"/>
		<path d="M114.7,69.8c0,0-0.1-0.1-0.1-0.1C114.6,69.7,114.7,69.8,114.7,69.8C114.7,69.8,114.7,69.8,114.7,69.8z"/>
		<path d="M103.3,66.7c-0.3-0.1-0.5,0-0.6,0.1c0.1,0,0.1,0,0.2,0C103,66.7,103.1,66.7,103.3,66.7z"/>
		<path d="M102.7,66.8c-0.1,0-0.2,0-0.3,0C102.5,66.8,102.6,66.8,102.7,66.8C102.7,66.8,102.7,66.8,102.7,66.8z"/>
		<path d="M107.1,72.4C107.1,72.4,107.1,72.5,107.1,72.4C107.1,72.4,107.1,72.4,107.1,72.4L107.1,72.4z"/>
	</g>
	<g>
		<path fill="#EF1439" d="M115.2,66.7l1.7-0.5h-0.1c-0.1,0-0.1-0.1-0.2-0.1l0.1,0c-0.6-0.2-1.2-0.6-1.7-0.9
			c-0.6-0.4-1.1-0.8-1.5-1.2c0,0,0,0-0.1-0.1c0,0-0.1-0.1-0.1-0.1c-0.7-0.8-1.9-1.1-2.1-0.4c-0.1,0.7-0.3,0.9-0.3,0.9
			s-2.8-1.1-6.8-1.1s-6.8,1.1-6.8,1.1s0,0-0.1-0.1c0-0.1-0.1-0.3-0.1-0.6c0-0.1-0.1-0.1-0.1-0.1c0,0,0,0,0-0.1
			c-0.1-0.7-1.3-0.4-2.1,0.4c-0.7,0.8-2.2,1.7-3.4,2.3l0.2,0.1c0,0-0.1,0-0.1,0h-0.1l1.6,0.5c0,0.7-0.3,1.3-0.3,1.3
			c0,0,0.1,0,0.1-0.1c0,0,0,0.1,0,0.1v0.1H93c0.6-0.2,1.6-1,1.9-1.3c0,0.1,0,0.1,0.1,0.2c0.2,0.3,0.3,0.3,0.4,0.3
			c0.1,0.1,0.2,0.1,0.2,0.1c2.4-1.2,5.6-2,8.6-2s6.2,0.7,8.6,2c0,0,0.2,0,0.4-0.4c0,0,0-0.1,0.1-0.1c0,0,0-0.1,0.1-0.1
			c0-0.1,0.1-0.1,0.1-0.1c0.1,0.1,0.5,0.4,0.9,0.7c0.2,0.1,0.4,0.3,0.5,0.4c0.1,0.1,0.3,0.2,0.4,0.3c0,0,0,0,0,0c0,0,0,0,0,0
			c0.1,0,0.1,0.1,0.2,0.1C115.4,68,115.1,67.4,115.2,66.7z"/>
		<g>
			<path fill="#86473F" d="M96.4,75.5L96.4,75.5c0,0.1,0,0.2,0,0.3L96.4,75.5z"/>
			<path fill="#86473F" d="M110.6,68.8L110.6,68.8c-0.8-1-2.5-1.6-3.7-1.7c-0.2,0-0.3,0-0.4,0c-0.1,0-0.1,0-0.2,0
				c-1.1-0.1-1,1.1-0.1,1.7c0.4,0.2,0.2,0.6,0,0.9c-0.2-0.3-0.4-0.6-0.5-0.7c-0.1-0.1-0.1-0.1-0.1-0.1c-0.2-0.2-0.2-0.3-0.5-1
				c-0.3-0.8-0.9-1-1.4-1.2c-0.1,0-0.1,0-0.2,0c-0.4-0.1-0.7,0.1-0.7,0.1c-0.2-0.1-0.4-0.1-0.6-0.1c0,0,0,0,0,0
				c-0.2,0-0.4,0.2-0.4,0.4c0,0,0,0,0,0c0,0,0,0,0,0c-0.1,0.2-0.1,0.3,0,0.4c0,0,0,0,0,0h0.1c0,0,0,0.1,0,0.1c0.1,0,0.1,0,0.2,0
				c0,0,0.1,0,0.1,0c0,0.1,0.1,0.1,0.1,0.1s0.1,0,0.5,0.4c0.3,0.3,0,1-0.2,1.3c-0.7-0.5-1.2-0.9-0.9-1.8c0.1-0.3,0-0.6-0.3-0.8
				c-0.2-0.1-0.4-0.2-0.8-0.1c-0.4-0.1-1.1,0.1-2.1,0.9c-2.2,2.1-2.8,5.9-2.7,8.4l0.4-0.7l0,0c0,0.3,0,0.6,0,0.9l0.2-0.4
				c0-0.1,0-0.2,0-0.3l0,0l0,0.3c0,0.1,0,0.1,0,0.2c0,0,1.4-1.6,1.6-2c0,0,0,0.1,0,0.2l0.1,0.2c0,0,0,0,0.1,0s0.1-0.1,0.1-0.1
				c0,0,0.1-0.1,0.1-0.2c0,0,0.1-0.1,0.1-0.1c0.1-0.1,0.2-0.3,0.3-0.5c0,0,0,0,0,0l2.1-0.4c0,0,0.2-0.1,0.3-0.4l0.1,0.2
				c0,0,0.1-0.1,0.2-0.2l0.3,0.3c0,0-0.2,0.3,0.1,0.7c0,0.3,0,0.8,0,0.8s0,0.2-0.1,0.4c0,0,0,0.1,0,0.1c-0.1-0.1-0.3-0.2-0.7-0.2
				c-0.4-0.1-0.8-0.3-0.8-0.3s0,0.1,0,0.2c-0.1,0-0.1-0.1-0.1-0.1s-0.1,0.3,0.4,0.5c0.2,0-0.2,0-0.3-0.1c0,0-0.7-0.3-1.1-0.3h-0.1
				l0.1,0.1c0,0,0,0,0.1,0.1c0,0-0.1,0-0.1,0l-1.1,0.5H98l0.1,0.1c0,0,0.1,0.1,0.2,0.2c0,0,0.1,0,0.1,0.1c-0.1,0-0.2,0.1-0.2,0.3
				c-0.2,0-0.3,0.2-0.3,0.3c0,0.2,0.1,0.3,0.3,0.3c0.1,0,0.1,0,0.1,0c0,0,0.1,0,0.1,0c0.1,0,0.1,0,0.2-0.1h0c0,0,0,0,0,0v0.1
				c0,0,0,0.1,0,0.1c0,0,0,0,0,0c0,0,0,0.1-0.1,0.1c-0.3,0.2-0.8,0.6-0.8,0.6v0.1c0,0,0.3-0.1,0.6-0.2c-0.1,0.1-0.2,0.2-0.3,0.3
				c0.1,0,0.3-0.1,0.5-0.1c0.1,0,0.2-0.1,0.3-0.1h0.1c0.1,0,0.5,0.1,0.8-0.1c-0.1,0.1-0.2,0.1-0.3,0.2c0.2,0,1,0.1,1,0.1
				c0.1,0,8.2,0.2,8.2,0.2l0.6,0.1l-0.3-0.2l0.3-0.1l-0.4-0.3h0.4v0.1l0.6-0.3l-0.2-0.1l0,0l-0.2-0.1l0.1,0l-0.3-0.1v0l-0.1,0v0.1
				h-0.9l0.5-0.4l-0.2,0l0.1-0.1l-0.5-0.1v0.1h0l-1.2,0.3v-0.3h-0.7v0c0,0-0.1-0.1-0.1-0.1l-0.1,0c0.1,0,0.2-0.1,0.2-0.2
				c0,0,0.1,0,0.1,0c0.1,0,0.2,0,0.2-0.1c0,0,0.1,0,0.2,0c0.2,0,0.4-0.2,0.5-0.4c0-0.2,0-0.3,0-0.4v-0.1c0,0,0,0,0-0.1
				c0-0.1,0-0.1-0.1-0.1c0.1,0,0.3,0,0.3,0c0,0,0,0,0,0c0,0,0.1,0,0.1,0c0.3-0.1,0-0.4-0.4-0.7c0,0-0.1-0.1-0.1-0.1
				c-0.1,0-0.1-0.1-0.2-0.1c0,0,0,0,0,0c0-0.2-0.1-0.3-0.1-0.4c0,0,0-0.1,0-0.2c-0.1-0.2-0.1-0.4-0.1-0.6l0.1,0.1l0-0.2l0.2,0.2
				l0.1-0.3c0.1,0.1,3.4,1.6,3.4,1.6l0.2-0.1c0,0.1,0.1,0.1,0.1,0.1l0,0c0.1,0.5,0.3,0.8,0.3,0.8l0-0.1c0,0.1,0.1,0.1,0.1,0.1V75
				l0.1-0.4c0,0.2,0.1,0.4,0.2,0.7c0.1,0.4,0.2,0.7,0.2,0.7l0.1-0.2c0.1,0.2,0.1,0.2,0.1,0.2l0.1,0.1l0,0l0.4,0.3l0.3-0.1
				C113.2,71.9,111.4,69.8,110.6,68.8z"/>
		</g>
	</g>
</g>
<g>
	<path opacity="0.2" enable-background="new    " d="M10.4,74.3V25.8c0-12.1,8.2-22.7,19.8-25.8H0v100h30.2
		C18.5,96.9,10.4,86.3,10.4,74.3z"/>
	<path opacity="0.1" fill="#FFFFFF" enable-background="new    " d="M89.6,25.8v48.5c0,12.1-8.2,22.7-19.8,25.8H100V0H69.8
		C81.5,3.1,89.6,13.7,89.6,25.8z"/>
</g>
</svg>
