<?xml version="1.0" encoding="utf-8"?>
<!-- Generator: Adobe Illustrator 23.0.0, SVG Export Plug-In . SVG Version: 6.00 Build 0)  -->
<svg version="1.0"
	 id="svg2" inkscape:version="0.92.4 (5da689c313, 2019-01-14)" sodipodi:docname="Flag_of_Maine.svg" sodipodi:version="0.32" xmlns:cc="http://creativecommons.org/ns#" xmlns:dc="http://purl.org/dc/elements/1.1/" xmlns:inkscape="http://www.inkscape.org/namespaces/inkscape" xmlns:rdf="http://www.w3.org/1999/02/22-rdf-syntax-ns#" xmlns:sodipodi="http://sodipodi.sourceforge.net/DTD/sodipodi-0.dtd" xmlns:svg="http://www.w3.org/2000/svg"
	 xmlns="http://www.w3.org/2000/svg" xmlns:xlink="http://www.w3.org/1999/xlink" x="0px" y="0px" viewBox="0 0 100 100"
	 enable-background="new 0 0 100 100" xml:space="preserve">
<path id="path128" inkscape:connector-curvature="0" fill="#002664" d="M0,100h100V0H0V100z"/>
<g id="g3381" transform="translate(0.06139061,-384.04361)">
	<g id="path174">
		<path inkscape:connector-curvature="0" fill="#FFE84F" d="M46,407.8L46,407.8"/>
	</g>
	<g id="path204">
		<path inkscape:connector-curvature="0" fill="#FFE84F" d="M47.3,409.2L47.3,409.2L47.3,409.2"/>
	</g>
	<g id="path250">
		<path inkscape:connector-curvature="0" fill="#FFE84F" d="M52.4,412.5L52.4,412.5"/>
	</g>
	<g id="path368">
		<path inkscape:connector-curvature="0" d="M34.8,424.6L34.8,424.6L34.8,424.6"/>
	</g>
	<g id="path370">
		<path inkscape:connector-curvature="0" d="M33.6,419L33.6,419c-0.7,0.1-1.1,0.4-1.6,0.6c-0.2,0.1-0.2,0.5-0.2,0.7v0.1l0,0
			c-0.3,0.1-0.7,0.2-1,0.4c-0.7,0.3-0.8,1.1-0.8,1.8c0,0.3,0.2,0.5,0.4,0.6c0.3,0.2,0.7,0.4,1.1,0.4c0.1,0,0.3,0.1,0.3,0
			c0.3,0.1,0.3,0.5,0.4,0.7c0,0.1-0.1,0-0.1,0v0.1c-0.2,0.1-0.4,0.2-0.7,0.2c-0.5,0.2-1,0.3-1.5,0.4c-0.6,0.2-0.9,0.8-1.5,1
			c-0.6,0-0.7,0.6-1.3,0.5c-0.5,0.1-0.7,0.5-0.8,1c0,0.3-0.1,0.6,0.2,0.8c0.3,1.2,0.8,2.4,1.8,3.3c-0.9,0.9-1.8,1.8-2.2,3
			c-0.1,0.1-0.1,0.2-0.1,0.3c0,0.1,0.1,0.2,0.2,0.2c0.8-0.9,1.8-1.7,2.8-2.4l0,0c-0.1,0.3,0.2,0.4,0.3,0.7c0,0.1-0.1,0.1-0.2,0.2
			s0.1,0.3,0.2,0.4c0.1,0,0.2,0,0.3-0.1c0.1,0,0.2-0.1,0.3-0.1c0,0.1-0.1,0.1-0.1,0.2h0.1c0.1,0.9,0.2,1.8,0.1,2.6
			c-0.2,1,0.4,2,0.5,3c0.3,1.1-0.4,2.3,0,3.4c0.1,1,0.5,1.9,0.5,2.9c-0.1,0.4,0,0.8-0.1,1.2c0,0.2,0.1,0.4,0,0.6
			c-0.1-0.1-0.2,0-0.3,0c0,0.3,0,0.6,0,1c0.1,0.3,0.5,0.2,0.8,0.3c-0.1,0.3,0,0.7-0.2,1s-0.5,0.5-0.8,0.7c0,0.1-0.1,0.2-0.1,0.3
			c-0.9,0-2-0.3-2.9,0c-0.1,0-0.3,0.2-0.4,0.1c-0.3,0.2-0.7,0.5-0.5,0.5c-0.1,0.4,0.2,0.7,0.3,0.9c0.3,1.7,0.7,3.3,1.2,5
			c0,0.2,0,0.5,0.3,0.5c0.3,0.1,0.6,0,0.9,0c0.4-0.1,0.1-0.5,0.2-0.8c1.4,0,2.7,0,4,0.1c0,0.2-0.2,0.3-0.3,0.5
			c0,0.2,0.1,0.3,0.1,0.4c1.2,1,2.3,1.9,3.6,2.6c1.2,0.5,2.3,1.2,3.6,1.7c1.1,0.5,2.2,0.9,3.4,1.3c0.3,0,0.5,0.2,0.8,0.2
			c0.9,0.3,1.8,0.4,2.8,0.4c1.8,0,3.2,0,4.9-0.1c0.7-0.1,1.4-0.2,2.1-0.4c0.7-0.2,1.4-0.4,2-0.6c1.9-0.5,3.7-1.1,5.4-2.2
			c1.2-0.8,2.5-1.3,3.5-2.4c0.4-0.3,0-0.6,0-0.8c0.4,0,1,0,1.3,0l0,0c0.8-0.1,1.6-0.1,2.4-0.1c-0.1,0.3,0.1,0.4,0.3,0.6
			c0.3,0.2,0.6,0.2,0.9,0.1c0.2-0.1,0.2-0.3,0.4-0.4c0.3-1.8,0.9-3.4,1.3-5c0-0.1,0.1-0.2,0-0.2c0-0.3,0-0.5-0.2-0.7
			c-0.3-0.3-0.7-0.4-1.1-0.6c0.4-0.3,0.8-0.7,1.2-1.1c0.7-0.7,1.1-1.6,1.6-2.4c0.1,0,0.3-0.1,0.4-0.1c0.7-0.3,0.3-1.3,0.4-1.9
			c-0.1-0.5-0.2-1-0.3-1.5c0-0.1-0.1-0.2-0.2-0.3h-0.1l-1,1.5c-0.3,0.4-0.6,0.9-0.4,1.4c0.1,0.2,0.3,0.3,0.4,0.5
			c-0.4,0.9-1,2.1-2.2,2.1c-0.1,0-0.1-0.1-0.2-0.1c-0.1-0.9-0.1-1.9-0.1-2.9c0-1.2,0.2-2.6,0.1-3.7c0-0.3-0.1-0.7,0.2-0.8
			c0,0.1,0.2,0.1,0.3,0.1c0.1-0.1,0.2-0.2,0.2-0.4c0.1-0.1,0.1,0,0.2,0c0.2,0,0.3-0.3,0.3-0.5c0.1,0,0.2,0,0.3,0c0,0.1,0,0.2,0,0.3
			c0.2,0,0.1-0.2,0.2-0.3c0,0.2,0,0.4,0,0.6l0,0c0.1-0.3,0.1-0.7,0.1-1c0.1,0.1,0.2,0.3,0.3,0.5h0.1l-0.1-0.1c0-0.2-0.2-0.4-0.3-0.5
			c0.1,0,0.2,0.1,0.4,0.1c0,0,0,0-0.1,0c0.1,0,0.2,0,0.2,0l0,0c-0.2-0.1-0.6-0.2-0.8-0.3c0.1-0.2,0.2-0.4,0.2-0.6
			c-0.2-0.2,0.2-0.3,0-0.6c-0.2-0.1,0-0.3,0-0.5c-0.2-0.2,0-0.4-0.1-0.6c0-0.2,0.2-0.6,0-0.8c0.1-0.1,0.1-0.3,0.1-0.5
			c-0.2-0.2,0-0.4-0.2-0.6c0.1-0.2,0.1-0.4,0.1-0.6c0-0.1-0.1-0.1-0.1-0.1c0.1-0.3,0.5-0.2,0.8-0.3c0.3,0,0.6,0,0.9-0.1
			c0-0.4,0.1-1,0-1.4c-0.6-0.2-1.3-0.2-1.9-0.1l-0.1-0.1c0.1-0.4-0.3-0.1-0.4-0.3c0.6-0.7,0.5-1.7,0.3-2.5c-0.6-1.2-0.2-2.7-0.8-4
			c-0.2-0.4-0.7-0.7-1.1-0.8c-0.2-0.1-0.4,0-0.6-0.1c-0.1,0-0.2-0.1-0.3-0.1l-0.2-0.1c-0.2-0.4-0.7-0.6-1-0.9l-0.1-0.1
			c0.1-0.1,0.2-0.3,0.4-0.3c0.2-0.2,0.5-0.5,0.5-0.8c0.4-0.2,0.8-0.4,1.1-0.7c0,0.2-0.2,0.4-0.1,0.6c0,0.1,0.2,0.2,0.3,0.2
			c0.1,0,0.2-0.2,0.3-0.1v-0.1c-0.4-0.1,0-0.5-0.2-0.8c-0.2-0.2-0.2-0.6-0.5-0.7c-0.1-0.1-0.3-0.1-0.3-0.2c0.2-0.2,0.4,0,0.6,0.1
			c0.2,0,0.2,0,0.4-0.1c0.1-0.1,0.1-0.3,0.1-0.5c-0.1,0-0.1,0.1-0.3,0.1c-0.5,0.1-0.9-0.4-1.4-0.1c-0.1,0.1-0.3,0.2-0.2,0.3
			c-0.1,0-0.2-0.1-0.2-0.1c0-0.3,0.2-0.7,0-1c-0.7-0.3-1.6-0.5-2.4-0.4c-0.3,0.1-0.6,0.2-0.6,0.5c-0.2,0.2-0.1,0.7-0.5,0.7
			c-0.5,0.3-1.4,0.3-1.5,1.1c0.2,0.5,0.5,1.1,1,1.2c0.1,0.3,0.3,0.7,0.6,0.9c0.1,0.3,0.3,0.6,0.3,0.9c0,0.1,0.2,0.2,0.1,0.3
			c-0.4,0.1-0.7,0.3-1,0.5c-0.3,0.4-0.8,0.4-1.2,0.6c-0.3,0-0.5,0.2-0.7,0.4c-0.8,1.3-0.6,2.9-1.3,4.2c0,0.3-0.3,0.4-0.6,0.3
			c-0.1,0-0.3,0.1-0.4-0.1c-0.2-0.1-0.4,0-0.5,0.1c0.4-0.6,0.7-1.2,1-1.8c0.3-0.5,0.4-1.3,0.4-1.9c-0.1-0.2-0.1-0.4-0.2-0.5
			c-0.2-0.3-0.7-0.6-1-0.6c-0.2,0.1-0.7,0.2-0.8,0.6c0,0.1,0,0.3,0.1,0.4h-0.1c-0.8-0.5-1.5-1.3-2.2-2c-1-0.8-1.9-1.8-3.1-1.9
			c-0.6-0.2-1.3-0.3-2-0.2c-0.1,0-0.1,0.1-0.2,0.1c0.1-0.2-0.1-0.3-0.2-0.5c-0.4-0.1,0-0.5-0.3-0.7c-0.1-0.1-0.3-0.2-0.5-0.2
			c-0.2,0.1-0.2-0.2-0.4-0.3c-0.3,0-0.5,0-0.7,0.3c0,0.1,0,0.1,0,0.2c0,0-0.1-0.1-0.2-0.1c-0.2-0.1-0.3,0-0.4,0.1
			c-0.1,0.2,0,0.3-0.1,0.5h-0.2c-0.3,0-0.1,0.3-0.2,0.5c-0.3,0-0.5,0-0.8,0c-0.6,0.2-1.4,0.3-2,0.6c-0.8,0.3-1.6,1-2.2,1.6
			c-0.7,0.9-1.7,1.3-2.5,1.9c-0.2,0.1-0.5,0.3-0.7,0.1l0.1-0.1c0.1-0.3,0-0.6-0.2-0.8c-0.2-0.2-0.5-0.4-0.8-0.3s-0.6,0.4-0.8,0.7
			l-0.1-0.1c-0.2-0.6-0.5-1.2-0.9-1.7c-0.3-0.8-1.2-0.6-1.8-0.7c-0.1,0-0.2-0.1-0.3,0h-0.1c0.1-0.5,0-1,0.2-1.5c0,0,0,0,0.1,0
			c0.2-0.2,0.5-0.3,0.8-0.5c0.3-0.4,0.4-0.8,0.4-1.3c-0.3-0.7-0.6-1.3-1.1-1.9c-0.3-0.3-0.8-0.1-1.2-0.1c0,0,0,0,0-0.1l-0.2-0.2
			C33.7,419,33.6,419,33.6,419L33.6,419z M29.6,428.6c-0.1,0.6,0,1.1,0,1.7c-0.1,0.1-0.3,0.2-0.4,0.3c-0.2-0.6-0.6-1-0.8-1.6
			C28.8,429.1,29.3,429,29.6,428.6L29.6,428.6z M35.7,430.1c0.6,0,1.2,0.1,1.7,0.4l0.1-0.1c0.1,0,0,0.1,0,0.2
			c-0.2,1.3-0.3,2.7-0.4,4c0,0.5-0.2,1-0.2,1.5c-0.3-0.8-0.8-1.6-0.9-2.5c-0.1-0.4-0.2-0.7-0.2-1.1c0.1,0,0.1-0.1,0.1-0.2v-0.2
			c0.1-0.7-0.2-1.2-0.3-1.9L35.7,430.1z M39,430.3c0.3,0.6,0.7,1.2,0.7,1.9c-0.2-0.2-0.5-0.2-0.7-0.1c0,0-0.1,0.1-0.1,0
			c-0.1-0.2-0.3-0.3-0.5-0.3c0-0.4,0.1-0.8,0.2-1.2C38.9,430.6,39,430.4,39,430.3z M38.9,432.9c0.6,0.2,0.6,0.9,0.8,1.4
			c0,0.7,0,1.6-0.7,2.1l0,0l-0.2,0.1c0-0.1,0.1-0.3,0-0.4c-0.2-0.3-0.4-0.7-0.8-0.6c0.1-0.8,0.2-1.6,0.2-2.3
			C38.5,433.2,38.7,433.1,38.9,432.9L38.9,432.9z M71,435.1C71,435.1,71,435.2,71,435.1L71,435.1c-0.2,0.2-0.3,0.4-0.2,0.6
			c0.2,0.1-0.2,0.4,0.1,0.6c-0.1,0.1-0.1,0.2-0.1,0.4c0.1,0.2-0.2,0.3-0.1,0.5c0.4,0.1-0.2,0.5,0.3,0.6c-0.1,0.1-0.2,0.3-0.2,0.4
			c0.3,0.2-0.3,0.5,0,0.7c0.1,0.2-0.2,0.4,0,0.6c0,0,0.1,0,0.1,0.1c-0.1,0.1-0.2,0.3-0.1,0.5c0.3,0.1-0.1,0.4,0.1,0.6l0.1,0.1
			l-0.2,0.2l-0.1,0.2h-0.1l-0.2,0.1l-0.1-0.1l-0.2,0.1c0-0.1,0-0.1,0-0.2c0-1.7-0.1-3.5,0-5.2c0-0.1,0-0.3,0.1-0.4
			c0-0.4,0.4-0.1,0.6-0.2C70.7,435.2,70.8,435.2,71,435.1L71,435.1C70.9,435.2,70.9,435.2,71,435.1C70.9,435.1,70.9,435.1,71,435.1
			L71,435.1z M62.8,435.6c-0.4,0.8-0.3,1.7-0.6,2.6c-0.2,0.8-0.2,1.5-0.3,2.4c-0.3-0.9-0.6-2-1.4-2.7c0.5-0.2,0.9-0.7,0.9-1.2
			C61.6,436.1,62.4,436,62.8,435.6L62.8,435.6z M59.8,435.9c0.1,0,0,0.4,0,0.5c0,0.2,0.2,0.3,0.3,0.4h0.3c-0.3,0.2-0.6,0-0.9-0.1
			l-0.1-0.1l-0.1-0.2c0.3-0.1,0-0.4,0.3-0.4C59.7,435.9,59.8,435.9,59.8,435.9L59.8,435.9z M33.8,438.8c0.3,1.2,0.6,2.5,0.9,3.7
			c0.3,1.3,1,2.5,1,3.9c0.1,0.1,0,0.2,0.1,0.3l0.1,0.3c-0.1,0.6-0.3,1.3-0.6,1.8c-0.3,0.6-0.6,1.2-0.9,1.8c-0.2,0-0.5,0-0.7,0h-0.3
			c0.1-0.4-0.1-0.8-0.1-1.2c0-0.3,0.1-0.7,0-1c0.1,0,0.2,0,0.2-0.1c0-0.3,0.2-0.7,0.1-1c-0.1-0.4,0-0.8-0.2-1.2
			c-0.3-1.3-0.1-2.4-0.1-3.8C33.5,441.4,33.3,440,33.8,438.8L33.8,438.8z M62.1,443.5c0.7,0.7,1.1,1.6,1.9,2.3
			c0.1,0.3,0.4,0.4,0.6,0.7c0.1,0.3-0.1,1,0.4,1.1c0.1,0,0.2,0.1,0.3,0.1c0,0.7,0.2,1.5-0.3,2.1c0.1,0.1-0.4,0.3,0,0.3
			c0,0.1,0,0.2-0.1,0.2c-0.3,0.4-1.2,0.1-1.1,0.8c-1.4,0-2.8,0-4.1,0c-0.2,0-0.4,0.1-0.4,0.3c0,0.3,0.3,0.4,0.4,0.6
			c0.2,0.4,0.4,0.9,0.5,1.3v0.3c-0.6,0.4-1.3,0.7-1.9,1.2c-0.9,0.4-1.7,0.9-2.6,1.1c-1,0.3-2.1,0.6-3.1,0.8c-0.9,0.3-2,0.3-2.8,0.4
			c-1.5,0.1-2.9-0.3-4.2-0.5c-1.7-0.3-3.2-1.2-4.8-1.9c-0.8-0.4-1.6-0.8-2.2-1.4c-0.2-0.1-0.3-0.2-0.5-0.3l0.1-0.3
			c0.2-0.5,0.5-1,0.7-1.4c0-0.1,0-0.2,0-0.3H39l1,1c0.2,0.1,0.3,0.4,0.5,0.5c0.8,0.5,1.4,1.3,2.2,1.5c0.4,0.3,1,0.3,1.4,0.5
			c0.1-0.1,0.1,0,0.1,0c0.2,0.1,0.5,0.2,0.8,0.2c0.4,0,0.7,0.1,1.1,0.1c0.4,0.1,0.8-0.1,1.2-0.2c-0.1,0.2,0,0.3,0.2,0.4
			c0.7,0,1.2,0.9,2,0.5c0.2,0.1,0.3,0,0.5-0.1s0.1-0.3,0.3-0.2c0.2-0.2,0.4-0.3,0.5-0.5c0.2,0,0.4,0.1,0.6,0.1l0,0
			c1,0.1,2,0.1,3-0.2c1.3-0.2,2.3-1.2,3.2-2.2c0.8-0.9,1.8-1.8,2.4-2.9c0-0.1,0.1,0,0.1-0.1c0.1-0.1,0.1-0.2,0.2-0.4
			c0.8-1.5,1.2-3,1.6-4.7C62,444.1,62.2,443.9,62.1,443.5L62.1,443.5z M36.1,448.8c0.1,0.6,0.2,1.3,0.2,1.9c-0.3,0-0.7,0-1-0.1
			C35.6,450,35.8,449.4,36.1,448.8L36.1,448.8z"/>
	</g>
	<path fill="#FFE84F" d="M36,422c0.1-0.5-0.1-0.9-0.3-1.3c0,0-0.1,0.1-0.1,0c-0.1-0.1-0.1-0.3-0.2-0.4c-0.1-0.2-0.3-0.2-0.5-0.3
		v-0.1c0.2,0,0.5,0.2,0.6,0.3c-0.2-0.3-0.4-0.5-0.6-0.8c-0.3-0.2-0.7-0.1-1.2-0.2l0,0c0-0.2-0.3-0.1-0.5-0.1
		c-0.4,0.2-0.9,0.3-1.3,0.7c0.2,0,0.4-0.2,0.6-0.2c-0.1,0.1-0.4,0.2-0.6,0.3v0.1c0.2-0.1,0.4-0.3,0.7-0.3v0.1
		c-0.3,0-0.5,0.2-0.8,0.3c0,0,0,0,0,0.1v0.1l-0.1,0.1l0,0c-0.2,0.1-0.4,0.2-0.5,0.4c0-0.4,0.3-0.4,0.6-0.6c-0.6,0.1-1.2,0.4-1.6,0.8
		c-0.3,0.3-0.2,0.7-0.3,1.1c-0.1,0.2-0.1,0.4,0,0.5c0.1-0.5,0.2-1,0.6-1.3v0.1c-0.2,0.2-0.3,0.6-0.4,0.9c0,0.2-0.1,0.4,0.1,0.5
		c0-0.1,0-0.1,0-0.1c0-0.2,0-0.5,0.2-0.7l0.1,0.1c-0.1,0.2-0.1,0.4-0.1,0.6c0.1,0.1,0.1,0.3,0.2,0.3c0-0.7,0-1.3,0.5-1.9
		c0.1,0,0.1,0.1,0.2,0.1h-0.1c-0.3,0.5-0.4,1.2-0.4,1.8c0.1,0,0.2,0.1,0.3,0.1c-0.1-0.1-0.2-0.3-0.2-0.4c0.1-0.5,0.1-1,0.5-1.4
		c0.1,0,0.1,0.1,0.1,0.1c-0.1,0.3-0.3,0.6-0.3,0.9c-0.1,0.4,0,0.7,0,1c0.1,0,0.3,0,0.4,0c-0.1-0.2-0.1-0.5-0.1-0.8
		c0.1-0.6,0.6-1.2,1.2-1.4c0.7-0.1,1.5-0.2,2.1,0.4c0.2,0.4,0.2,1,0.1,1.4c0.1-0.1,0.3-0.1,0.4-0.2c-0.2-0.1,0-0.2,0-0.3
		c0.1-0.3-0.1-0.6-0.3-0.9c0.1,0.1,0.2,0.2,0.3,0.3c0.2,0.2,0.2,0.6,0.1,0.9h0.1c0.1-0.1,0-0.1,0-0.1c0.1-0.5,0-1.2-0.5-1.6
		c0-0.2-0.3-0.2-0.3-0.3c0.2,0,0.5,0.1,0.6,0.3c0.4,0.4,0.6,1.1,0.4,1.6c0-0.1,0.2-0.2,0.1-0.3c0.1-0.5,0-1.2-0.5-1.6
		c-0.1-0.1-0.4-0.1-0.4-0.3H35C35.6,420.7,36,421.3,36,422z"/>
	<g id="path378">
		<path inkscape:connector-curvature="0" fill="#FFFFFF" d="M67.6,420.3c0.2,0.3,0,0.6,0,1c-0.2,0-0.4-0.2-0.6-0.1
			c-0.1-0.1-0.3,0-0.4-0.1c-0.2,0-0.5-0.1-0.7,0l0,0c-0.5,0-0.9-0.1-1.3,0c0-0.3,0.2-0.6,0.3-0.9c0.5-0.4,1.3-0.1,1.8,0
			C67,420.1,67.3,420.2,67.6,420.3"/>
	</g>
	<g id="path386">
		<path inkscape:connector-curvature="0" fill="#FFFFFF" d="M68.5,421.6c0.2,0.1,0.4,0.2,0.5,0.3c0.1,0.1,0.3,0.3,0.2,0.4
			c0,0.2-0.3,0.1-0.2,0.3c-0.3,0.4-0.7,0.6-1.1,0.7c-0.1-0.7-0.4-1.4-1.1-1.6c-1.2-0.3-2.5-0.2-3.2,0.8c-0.1,0.2-0.1,0.3-0.1,0.5
			c-0.4-0.2-0.7-0.7-0.7-1.1c0.3-0.5,1-0.6,1.5-0.8c1-0.1,2.1,0.1,3.1,0.2L68.5,421.6"/>
	</g>
	<g id="path390">
		<path inkscape:connector-curvature="0" fill="#FFD1D1" d="M34.7,421.8c0.1,0.4,0.2,0.7,0,1.1c-0.2,0-0.3,0.2-0.4,0.3
			c-0.1,0.1,0.2,0.3,0.1,0.3c0,0.1-0.2,0.2-0.3,0.2c0,0.1-0.2,0.1-0.4,0.1s-0.5,0-0.7,0.1c0-0.1-0.1-0.2-0.2-0.2
			c-0.1,0-0.3,0.2-0.3,0.3c0-0.1,0.1-0.3-0.1-0.5h-0.1c0-0.1,0-0.2-0.1-0.3l0,0c0,0,0-0.1-0.1-0.1l-0.1,0.1c0.2-0.2-0.1-0.4,0.1-0.5
			c0-0.3,0.1-0.5,0.1-0.7c0.2-0.1,0-0.4,0.3-0.3c0.1-0.1,0.3-0.2,0.3-0.3C33.4,421.3,34.2,421.1,34.7,421.8"/>
	</g>
	<g id="path392">
		<path inkscape:connector-curvature="0" d="M33.3,422.1v0.3c-0.1,0-0.1-0.1-0.2-0.1c0,0-0.1,0,0,0.1l0,0c-0.2,0.2-0.4-0.3-0.6,0
			c0,0-0.1-0.1,0-0.2c0-0.1,0.1-0.1,0.2-0.1C32.9,422,33,422.2,33.3,422.1c-0.1,0-0.1-0.1-0.3-0.2s-0.4,0-0.6,0c0,0,0,0,0-0.1
			C32.7,421.6,33.1,421.8,33.3,422.1"/>
	</g>
	<g id="path394">
		<path inkscape:connector-curvature="0" d="M34.4,421.9c-0.2,0-0.4,0-0.5,0.1c0.2,0.1,0.4,0.1,0.6,0.3c-0.2,0.1-0.4,0.1-0.6-0.1
			v0.1c-0.1-0.1-0.1-0.2-0.1-0.4c0-0.1,0.1-0.1,0.2-0.2C34.1,421.8,34.3,421.8,34.4,421.9"/>
	</g>
	<g id="path396">
		<path inkscape:connector-curvature="0" fill="#FFE84F" d="M49.8,422.4c0,0.1-0.1,0.2-0.1,0.3c-0.1,0.3,0,0.5,0,0.8l0,0h-0.2
			c0.1-0.5-0.8-0.9-0.2-1.2C49.5,422.2,49.7,422.1,49.8,422.4"/>
	</g>
	<g id="path398">
		<path inkscape:connector-curvature="0" fill="#FFE84F" d="M50.4,422.6c0.1,0.1,0.1,0.3,0.1,0.4c-0.3,0.1-0.6,0.3-0.6,0.6
			c0.2,0.1,0.2-0.2,0.3-0.2c0.1-0.1,0.2-0.1,0.3-0.2c0.2,0,0.3,0.2,0.4,0.3c0,0.1,0,0.1,0,0.2c-0.3,0.3-0.8,0.3-1.2,0.6
			c-0.1,0.2-0.3,0.2-0.4,0.4c0-0.2-0.4-0.5-0.2-0.8c0.2-0.2,0.4-0.3,0.7-0.2c0.1,0,0.1,0.1,0.2,0.2c0,0.1,0,0.2,0.1,0.2
			c0.1-0.1,0-0.2,0-0.3c-0.1-0.1-0.2-0.2-0.3-0.3c0.1-0.3-0.2-0.8,0.3-1.1C50.2,422.5,50.4,422.5,50.4,422.6"/>
	</g>
	<g id="path402">
		<path inkscape:connector-curvature="0" fill="#FFE84F" d="M49.4,423.5c-0.2,0.1-0.4,0.2-0.5,0.5c-0.2-0.1-0.3-0.3-0.5-0.3
			c-0.1-0.1-0.3-0.1-0.5-0.1c0-0.1,0-0.3,0.2-0.3c0.4-0.1,0.6,0.4,0.9,0.6c0.1-0.2-0.3-0.4-0.4-0.6c-0.1-0.1-0.1-0.1-0.2-0.1
			c0-0.2-0.1-0.4,0.2-0.5c0.1,0,0.2-0.1,0.3,0C49.1,422.8,49.2,423.2,49.4,423.5"/>
	</g>
	<g id="path408">
		<path inkscape:connector-curvature="0" fill="#FFD1D1" d="M32.4,423.6L32.4,423.6L32.4,423.6C32.3,423.5,32.3,423.5,32.4,423.6"/>
	</g>
	<g id="path410">
	</g>
	<g id="path412">
		<path inkscape:connector-curvature="0" fill="#FFE84F" d="M54.4,424.2c1.3,0.9,2.4,2.1,3.7,3.2c0.4,0.2,0.9,0.8,1.4,0.5
			c0.1-0.1,0.1-0.2,0.2-0.3c0.1,0.2,0,0.4-0.1,0.5c-0.4,0.1-1,0.2-1.4,0.1c-0.6-0.2-1.3-0.4-1.9-0.7c-0.9,0.1-1.6,0.1-2.3-0.5
			c0-0.2,0-0.3,0.2-0.4c0.2,0,0.5-0.1,0.6-0.3v-0.1c-0.2,0.1-0.3,0.3-0.5,0.2c-0.2,0.1-0.4,0.2-0.7,0.1c-0.1,0.1-0.3,0-0.5-0.1
			c-0.2-0.2-0.3-0.5-0.2-0.7c0.3-0.6,1-0.5,1.5-0.5c0,0.1,0.1,0.1,0.2,0.1c0-0.1,0.2,0,0.3-0.1c-0.1-0.1-0.2-0.1-0.4-0.1
			c-0.7-0.6-1.4-0.9-2.3-1c-0.9,0-1.7,0.3-2.2,0.9c-0.1,0.2,0,0.4,0.1,0.6c0.1,0.1,0.3,0.2,0.5,0.1c0.1,0,0.1-0.1,0.2-0.2l0,0
			c0.2,0,0-0.2,0.1-0.3h-0.1c0,0.2-0.1,0.3-0.3,0.4c-0.1,0.1-0.3,0-0.3-0.1c0-0.2-0.1-0.4,0-0.6c0.2-0.1,0.5-0.2,0.7-0.1
			s0.4,0.3,0.4,0.6c0,0.4-0.2,0.7-0.6,0.9c-0.3,0.1-0.6,0.1-0.9,0c-0.4-0.3-0.6-0.9-0.4-1.4c0.3-0.6,1-0.9,1.6-1.1
			c0.2-0.3,0.6-0.2,0.9-0.3C52.8,423.7,53.6,423.9,54.4,424.2"/>
	</g>
	<g id="path414">
		<path inkscape:connector-curvature="0" fill="#FFE84F" d="M48.9,424.2c0.5,0.6,0.3,1.3,0,1.9c-0.1,0.2-0.4,0.3-0.6,0.3
			c-0.4,0-0.7-0.2-0.9-0.5c-0.1-0.2-0.1-0.5,0-0.7c0.2-0.3,0.6-0.3,0.9-0.3c0.1,0,0.1,0.1,0.2,0.2c0.1,0.1,0.1,0.3,0,0.4
			c0,0.1-0.1,0.1-0.2,0.2c-0.1,0-0.1,0-0.2,0c0-0.1-0.1-0.1-0.1,0c-0.1,0.1,0.1,0.1,0.2,0.2c0.1,0.1,0.2,0,0.3-0.1
			c0.2-0.2,0.2-0.4,0.2-0.6c-0.3-0.7-1.1-0.8-1.7-0.8c-1.1,0-2.1,0.4-2.8,1.1v0.1c0.1,0.1,0.3-0.1,0.5-0.1s0.5-0.1,0.7,0
			s0.2,0.4,0.2,0.6c-0.1,0.3-0.4,0.3-0.6,0.4c-0.1,0-0.2-0.1-0.4-0.1c-0.1,0.1,0.1,0.2,0.2,0.3H45c-0.3,0.8-1.3,0.4-1.9,0.6
			c-0.7,0.2-1.2,0.6-1.8,0.9c-0.6,0.2-1.2,0.3-1.9,0c-0.2-0.2-0.4-0.1-0.4-0.5c0.3,0.2,0.6-0.1,0.8,0.1c0.8-0.1,1.4-0.7,2.1-1.1
			c0.6-0.5,1.3-1.1,1.9-1.7c0.4-0.4,0.9-0.6,1.3-0.8c0.1,0,0.3-0.2,0.5-0.2c0.2-0.2,0.6-0.1,0.8-0.2c0.1,0,0.3-0.1,0.5-0.1
			C47.4,423.5,48.5,423.5,48.9,424.2"/>
	</g>
	<g id="path424">
		<path inkscape:connector-curvature="0" fill="#FFE84F" d="M53,424.4c0.3,0.1,0.6,0.3,0.9,0.4c-0.7-0.2-1.6-0.3-2.2,0.2l0,0
			l-0.3,0.2c-0.1-0.2-0.3-0.4-0.5-0.4c-0.1,0-0.2,0-0.2,0C51.3,424.3,52.3,424.1,53,424.4"/>
	</g>
	<g id="path426">
		<path inkscape:connector-curvature="0" fill="#FFD1D1" d="M33,424.4L33,424.4L33,424.4C32.9,424.4,32.9,424.4,33,424.4"/>
	</g>
	<g id="path428">
		<path inkscape:connector-curvature="0" fill="#9ED9FF" d="M46.1,424.6c0.4,0.1,0.9,0.1,1.3,0.4c-0.2,0.2-0.2,0.6-0.2,0.8
			c0.2,0.5,0.7,0.7,1.1,0.7c0.4,0,0.6-0.2,0.8-0.5c0-0.1,0.1-0.3,0.1-0.4c0.1,0.4,0.4,0.7,0.8,0.8c0.3,0.2,0.6,0,0.9-0.1
			c0.4-0.3,0.6-0.7,0.4-1.2c0.8-0.5,1.9-0.5,2.8-0.2c-0.5,0-1.1,0-1.4,0.6c-0.1,0.3-0.1,0.6,0.1,0.8c0.2,0.3,0.6,0.3,1,0.3
			c-0.1,0.2,0,0.4,0.1,0.5c0,0.1,0.2,0,0.2,0.1c0.7,0.5,1.4,0.3,2.2,0.4c0.8,0.4,1.5,0.7,2.4,0.8c0.2-0.1,0.4-0.1,0.7-0.1
			c-0.3,0.9-1.2,1.6-1.7,2.5c-0.4,0.5-0.6,1.2-0.8,1.8c-0.1,0.2-0.1,0.4-0.1,0.6c0,0.3,0,0.5-0.1,0.7c-0.3,0-0.5-0.3-0.8-0.2
			c-0.1,0-0.1-0.1-0.1-0.1c0-0.2,0.4-0.4,0.2-0.6c0-0.1-0.3-0.1-0.2-0.3c0.1-0.1,0.3-0.2,0.2-0.4c-0.3-0.5-0.8-0.5-1.2-0.8
			c0-0.1,0.1-0.2,0-0.3c-0.3-0.2-0.7-0.3-1-0.3c-0.1-0.1-0.1-0.1-0.1-0.2c0.3-0.5,1-0.4,1.2-0.8l0,0c-0.4-0.5-1-0.6-1.6-0.7
			c0.1-0.1,0.3-0.2,0.3-0.4c-0.1-0.3-0.5-0.2-0.6-0.3c-0.3,0-0.6,0-0.8-0.1c0.1-0.1,0.3-0.2,0.2-0.4c-0.4-0.3-1-0.1-1.5-0.2
			c-0.2,0-0.2-0.3-0.1-0.4c0.1-0.1,0.1-0.2,0-0.4c-0.2-0.3-0.5-0.2-0.8-0.3c-0.5,0-1.1,0.1-1.6,0c-0.3,0-0.7,0.1-1,0.3
			c-0.1,0-0.3,0-0.4,0.1c-0.2,0.1,0,0.4-0.3,0.3c-0.4,0.1-0.4,0.6-0.8,0.7c-0.3,0-0.6,0.1-0.9,0.2c-0.1,0.1-0.2,0.4-0.4,0.3
			c-0.5,0.2-0.9,0.1-1.3,0.6c0,0.1,0.1,0.2,0.2,0.3c0.3,0.1,0.7-0.1,0.9,0.3c-0.1,0.1-0.4,0.1-0.5,0.1c-0.2,0.1-0.6,0-0.6,0.4
			c0.1,0,0.1,0.1,0.1,0.2c-0.1,0.1-0.3,0.1-0.3,0.3c0.2,0.3,0.5,0.2,0.8,0.4c-0.3,0.3-0.7,0.2-0.9,0.5c0,0.1,0,0.2,0,0.3
			c-0.1,0.1-0.3,0.2-0.3,0.3c0,0.1,0.1,0.3,0.1,0.4c-0.2,0.1-0.5,0.3-0.7,0.3c-0.2,0.1-0.1,0.4-0.3,0.5s-0.4,0-0.5,0.2
			c-0.1-0.1-0.2,0.1-0.3,0.1c0.1-1.7-0.8-3-1.9-4.2c-0.3-0.4-0.5-0.8-0.6-1.3c1,0.5,2.3,0.3,3.1-0.5c0.7-0.5,1.8-0.4,2.6-0.6
			c0.2-0.1,0.3-0.3,0.4-0.5c0,0,0,0-0.1,0c0.3-0.1,0.6-0.3,0.8-0.6c0-0.3-0.1-0.6-0.4-0.7c-0.3,0-0.5,0-0.8,0
			c0.3-0.4,0.8-0.5,1.2-0.7L46.1,424.6"/>
	</g>
	<g id="path430">
		<path inkscape:connector-curvature="0" fill="#FFE84F" d="M45.9,424.6c0.8-0.2,1.9-0.3,2.5,0.3c-0.3,0-0.6-0.1-0.9,0.1
			c-0.3-0.2-0.7-0.3-1-0.3c-0.1,0-0.2,0-0.3,0L45.9,424.6"/>
	</g>
	<g id="path434">
		<path inkscape:connector-curvature="0" fill="#FFD1D1" d="M66.9,425.3L66.9,425.3c0,0.1,0,0.1,0,0.2l0,0c0.2,0.2,0,0.4,0,0.6
			c-0.2,0.7-0.5,1.4-1.1,1.9c-0.2,0.1-0.4,0.2-0.6,0.3c-0.2-0.5-0.4-1-0.4-1.5l0,0l0,0c0-0.3,0-0.9,0.2-1.3l0,0
			c0.1,0.1,0.3,0.1,0.5,0.2c0.3,0,0.8,0.1,1-0.2v-0.1c0.2,0,0.1,0.3,0.3,0.3C66.9,425.5,66.9,425.4,66.9,425.3L66.9,425.3"/>
	</g>
	<g id="path436">
		<path inkscape:connector-curvature="0" fill="#FFE84F" d="M59,436.5c-0.2,0.2-0.3,0.4-0.6,0.5c0.2,0.3,0.6,0.4,0.8,0.6
			c0.5,0.1,0.9,0.2,1.4,0s0.7-0.8,0.6-1.3c0-0.3-0.3-0.6-0.6-0.7c-0.3,0-0.5,0-0.6,0.2c-0.2,0.2-0.2,0.4-0.1,0.6
			c0.1,0.2,0.4,0.2,0.5,0.2c0-0.1,0-0.3,0-0.4c0,0,0.1,0,0.1,0.1c0.1,0.3,0,0.5-0.2,0.7c-0.2,0-0.5,0.1-0.7,0c-0.1,0-0.2,0-0.2-0.1
			l-0.3-0.2L59,436.5"/>
	</g>
	<g id="path5101">
		<path inkscape:connector-curvature="0" fill="#3C3C9E" d="M59.9,435.7c-0.2,0-0.3,0.2-0.5,0.3c-0.1-0.1-0.2-0.4-0.4-0.5
			c0,0-0.1,0-0.1,0.1l0,0h-0.3c-0.2-1.6,1.1-2.8,1.9-3.9c0.1-0.3,0.3-0.7,0.4-1.1c0.5-1.1,0.4-2.5,1.1-3.6c0.4-0.4,1-0.4,1.5-0.7
			c0,0.4-0.4,0.9-0.1,1.3c0.2,0.2,0.6,0,0.7,0.4c-0.2,1.2-0.3,2.4-0.6,3.5c-0.1,0.3-0.1,0.7-0.1,1c-0.1,1-0.4,2-0.5,3
			c-0.2,0.4-0.7,0.5-1.1,0.7l0,0l-0.3,0.4c0-0.4-0.2-0.7-0.6-0.9c-0.1-0.1-0.2,0-0.3,0c0.6-0.9,1.3-1.6,1.7-2.6l0.1-0.1
			c0.1-1.2,0.3-2.4,0.2-3.6c-0.1,0-0.1,0.1-0.1,0.2c-0.1,1.6,0.1,3.4-1,4.7l0,0c-0.3,0.5-0.7,1-1,1.4c-0.1,0-0.3,0.1-0.3,0.2"/>
	</g>
	<g id="path440">
		<path inkscape:connector-curvature="0" fill="#FFE84F" d="M39.4,426.8c0.2,0.2,0.3,0.5,0.2,0.8c-0.2,0-0.1,0.2-0.3,0.2
			c-0.1,0-0.3,0-0.3-0.2c0-0.1,0.2-0.2,0-0.2c0.1-0.1,0.1-0.2,0.1-0.2c-0.2,0-0.1,0.3-0.2,0.4c0,0.8,0.3,1.6,0.9,2.2
			c1.1,1.1,1.9,2.4,1.8,4c0,0.7-0.1,1.6-0.6,2.2c0.1,0.2-0.2,0.2-0.1,0.3c-0.3,0.2-0.3,0.6-0.7,0.7l0,0l0,0
			c-0.2,0.1-0.5,0.3-0.7,0.3l0,0c-0.7,0.2-1.5,0.1-2.1-0.4c-0.1-0.1-0.1-0.2-0.1-0.4c0,0,0,0,0.1,0c0-0.3-0.1-0.6,0.2-0.9
			c0.2-0.3,0.6-0.1,0.9-0.2c0.3,0.1,0.5,0.4,0.5,0.6c0,0.1-0.1,0.3-0.2,0.4c-0.1,0-0.3,0.1-0.4,0.1c-0.2-0.1-0.2-0.3-0.2-0.4
			s0.1-0.1,0.1-0.2c-0.1-0.1-0.1,0-0.2,0c-0.1,0.1-0.2,0.2-0.2,0.3c0.1,0,0.1,0.1,0.1,0.2c0.1,0.1,0.2,0.3,0.4,0.3s0.4-0.1,0.6-0.2
			c1-0.5,1.1-1.6,1-2.7c-0.1-0.5-0.3-1.1-0.9-1.3c-0.2,0.2-0.5,0.4-0.8,0.2c-0.3-0.2-0.3-0.5-0.3-0.8c0.1-0.2,0.3-0.4,0.5-0.4
			c0,0,0,0.1,0.1,0.1c0.1-0.1,0.3,0.1,0.4,0.1c0.1,0.1,0.1,0.3,0.3,0.2c0.2-0.1,0.4-0.2,0.6,0c0.6,0.6,0.6,1.6,0.6,2.3
			c0.2,0,0.1-0.2,0.2-0.3c0.3-1.2,0.3-2.7-0.7-3.6l-0.1,0.1c0.1,0.2,0.3,0.4,0.4,0.7c0,0,0,0.2,0.1,0.2c0.1,0.5,0.2,1.1,0.1,1.5l0,0
			c0-0.3-0.2-0.6-0.2-0.6l-0.2-0.2c0-1.1-0.6-2-1.2-2.9c-0.3-0.8-1.1-1.8-0.4-2.6c0.1-0.2,0.3-0.3,0.4-0.3
			C39,426.5,39.2,426.7,39.4,426.8"/>
	</g>
	<g id="path442">
		<path inkscape:connector-curvature="0" fill="#FFE84F" d="M60.2,427.3c0.6,2.9-2.7,4.6-2.2,7.4c0,0.3,0.2,0.6,0.3,0.9
			c-0.3,0.1-0.6,0.1-0.8,0.2c-0.1-0.2-0.4-0.5-0.4-0.6c-0.2-1,0-1.9,0.2-2.9c0.4-1.5,1.8-2.6,2.4-4c0.1-0.2,0.2-0.5,0.1-0.7
			c0-0.1,0-0.2-0.1-0.2c-0.2,0.1-0.4,0.7-0.8,0.5c-0.1-0.1-0.3-0.2-0.3-0.4c0-0.2,0-0.4,0.2-0.5c0.2-0.2,0.5-0.3,0.8-0.2
			C59.9,426.8,60.1,427,60.2,427.3"/>
	</g>
	<g>
		<path fill="#FFFFFF" d="M44.9,434.5C44.9,434.5,44.9,434.5,44.9,434.5C44.9,434.6,44.9,434.5,44.9,434.5z"/>
		<path fill="#FFFFFF" d="M51.7,431.6c-0.1,0.1,0,0.2-0.1,0.3c0.2-0.1,0.3-0.3,0.4-0.4c-0.1,0-0.2,0-0.4,0L51.7,431.6z"/>
		<path fill="#FFFFFF" d="M56.7,434.1c-0.1-0.1-0.1-0.1-0.2-0.1c-0.3-0.3-0.6,0-0.8-0.3c0-0.2,0.1-0.3,0.2-0.5
			c0.1-0.2-0.2-0.2-0.2-0.4c0-0.2,0.2-0.3,0.3-0.4c-0.2-0.5-0.8-0.5-1.1-0.8c-0.3-0.1,0.2-0.4-0.2-0.5c-0.3-0.1-0.6-0.1-0.9-0.3
			c0-0.1,0-0.2,0-0.3c0.3-0.4,0.8-0.4,1.2-0.7c0.1-0.1,0-0.1,0-0.2c-0.1,0-0.2-0.1-0.3-0.2c-0.1,0-0.2,0-0.2-0.1
			c-0.3-0.2-0.6,0-0.9-0.3c-0.1-0.2,0.2-0.2,0.3-0.4c-0.5-0.2-1,0.1-1.4-0.2c-0.1-0.1,0.1-0.3,0.2-0.4c-0.5-0.3-1.1,0-1.6-0.3
			c-0.2-0.1,0-0.4,0-0.6l-0.4,0.1c-0.4-0.1-0.9,0-1.3,0l-0.2-0.2c-0.6-0.2-1,0.1-1.6,0.2c-0.1,0.1-0.1,0.3-0.2,0.4
			c-0.2,0-0.4,0.2-0.5,0.4c-0.3,0.5-1.3,0.1-1.5,0.8c-0.3,0.1-1.4,0.5-1.4,0.6c0.1,0.1,0.3,0.1,0.4,0.1c0.2,0.1,0.7,0.2,0.7,0.4
			c-0.3,0.2-0.8,0.1-1.1,0.3l0.1,0.2c0.1,0.2-0.2,0.2-0.3,0.4l0.6,0.2c0.2,0.1-0.1,0.5-0.2,0.5c-0.3,0-0.4,0.1-0.6,0.2
			c0,0.1,0,0.8-0.1,1c0,0.1-0.1,0.1-0.2,0.1c-0.2,0.1-0.5,0.1-0.7,0.3c0,0.5-0.5,0.5-0.8,0.6c0.2,0.2,0.2,0.4,0.3,0.6
			c0-0.1,0-0.3,0.1-0.3c0.4,0.2,0.1,0.6,0.4,0.8c0.1,0,0.1-0.2,0.2-0.2c0.3,0.1,0.3,0.4,0.4,0.6c0.1,0,0.2,0.1,0.3,0
			c0,0-0.1-0.1-0.1-0.2c-0.2-0.4,0.2-0.6,0.3-0.9c0.2,0,0.2,0.1,0.3,0.2c0,0.2,0.1,0.5,0.3,0.6c0.1,0.1,0.4-0.2,0.5-0.3
			c-0.1,0-0.2,0-0.2,0c-0.1-0.1-0.2-0.1-0.2-0.3c0-0.1,0-0.2,0.1-0.3c0.3-0.1,0-0.3,0-0.5c0.1,0,0.1-0.2,0.2-0.2
			c0.2-0.1,0.4,0.1,0.5,0.2c0.1-0.1,0.1,0.1,0.2,0c0.1,0.1,0.7,0,0.8-0.1c-0.2-0.4-0.4,0.2-0.6,0c-0.3-0.1,0.1-0.4,0.1-0.5
			c-0.1,0.1-0.3,0.1-0.3,0c0,0,0-0.5,0.1-0.5c0-0.1-0.2-0.2-0.1-0.3c0.2-0.1,0.4-0.3,0.6-0.3c0.2,0.1,0.2,0.2,0.2,0.3l5.9-0.8
			c0,0,0,0,0,0c-0.1,0-0.1,0.1-0.1,0.2c0.1,0,0.1,0,0.1-0.1c0,0,0-0.1,0-0.1l0.2,0c0.1,0,0.1,0.1,0.2,0.1c0.2-0.1,0.2,0.1,0.3,0.1
			c0,0.1,0.1,0.2,0,0.3c-0.1,0.2,0,0.3,0,0.4s0.1,0.3,0,0.3v0.1c0,0.1-0.1,0-0.2,0.1c0,0.1-0.1,0.1-0.1,0.1c-0.1,0.1-0.2,0-0.3,0.1
			c0.1,0,0.2,0,0.3,0c0.4-0.1,0.6,0.6,0.9,0.1c0.1,0,0.2,0,0.3,0c0.1,0.1,0.3,0.2,0.2,0.4c-0.1,0.1-0.2,0.2-0.3,0.3h0.2
			c0,0.1,0.1,0.2,0.1,0.3c0,0.2-0.3,0.2-0.3,0.3c-0.1-0.1-0.2,0-0.2,0h-0.1c-0.2,0.1-0.4,0-0.5,0.1c0.4,0.1,0.8-0.2,1.2-0.1
			c0.2,0.1,0.4,0,0.5,0.3c-0.1,0.3,0.3,0.2,0.3,0.5c0.1-0.2,0.1-0.5,0.3-0.7c0.2,0,0.3,0.2,0.3,0.4c0.2,0.1,0.3-0.2,0.4-0.3
			c0.2,0,0.2,0.1,0.3,0.2c-0.1,0.2,0.2,0.1,0.2,0.3c0.2,0,0.4-0.1,0.5,0.1C56.7,434.8,56.7,434.4,56.7,434.1z"/>
	</g>
	<g id="path448">
		<path inkscape:connector-curvature="0" fill="#3E6F3E" d="M49.8,427.3C49.8,427.3,49.7,427.2,49.8,427.3l0.1,0.2
			c0.1,0,0.1,0.1,0.1,0.1c0,0.1-0.1,0.2-0.1,0.3c0.1,0.1,0.2,0.2,0.3,0.1s0.2,0,0.3-0.1c0,0.3,0.1,0.6,0.4,0.7c0.2-0.1,0.3,0,0.5,0
			c0.1,0.2,0.2,0.3,0.1,0.5c-0.2,0-0.3,0.3-0.3,0.4c0,0.2,0,0.4,0.1,0.5c0.2,0.2,0.5,0,0.7,0s0.3-0.3,0.4,0c0,0.2,0,0.4-0.2,0.5
			c-0.1,0.1-0.3,0.1-0.3,0.2s0,0.1,0.1,0.2s0.4-0.1,0.4,0.1c-0.1,0.2-0.5-0.1-0.6,0.2c0,0.1,0,0.2,0.1,0.2c0,0,0.1,0,0.1,0.1
			c-0.1,0-0.2,0.1-0.3,0.2c0,0.1,0.1,0.2,0.2,0.2c0.2,0.1,0.3-0.1,0.5,0.1l0,0c0,0,0.2,0,0.1-0.1c0,0,0,0,0,0.1
			c-0.1,0.1-0.3,0.1-0.4,0.2c0.2-0.1,0.1,0.2,0.3,0.1c0.1-0.1,0.2-0.1,0.2-0.2s0.1-0.3,0-0.4c-0.1,0-0.2,0.2-0.3,0.2
			c0-0.1,0.2-0.1,0.1-0.2l0.1-0.1v-0.1c0.1,0.1,0.2,0.1,0.3,0.1c0.1,0.2-0.1,0.4-0.1,0.5l0,0l0.1,0.1c-0.2,0.3-1,0-0.7,0.6
			c0.3,0.2,0.6-0.2,0.9,0.1c0.1,0.1,0.2,0.2,0.4,0.2s0.2-0.2,0.4-0.2c0,0.2,0,0.3-0.1,0.4c-0.2,0-0.3,0.1-0.4,0.2
			c-0.1,0.1,0,0.1,0.1,0.2c0.2,0,0.3,0.2,0.6,0.1c-0.3,0.2-0.8,0.2-1.2,0.3l0,0c-0.1,0.1-0.1,0.2-0.1,0.3c0.1,0.1,0.3,0.3,0.5,0.2
			c0.2,0,0.3-0.1,0.4-0.1l0,0c0.1,0,0.4,0,0.6-0.1c0,0.1,0,0.1,0.1,0.1l0,0c0.2,0.2,0.1,0.7,0.5,0.5c0,0.1,0.1,0.1,0,0.2
			s-0.2,0.2-0.1,0.3c0,0,0.1,0.1,0,0.2c-0.1,0-0.1,0.1-0.2,0.2c0.2,0.3,0.5,1,0.4,1.1c0.1,0.2-0.1,0.6,0.1,0.8c0.1,0,0.3,0,0.4,0.1
			c-0.1,0.1,0.4,0.2,0.5,0.1c0.1,0,0.2-0.4,0.4-0.2c0,0,0,0.1,0,0.2c-0.1,0,0,0.1,0,0.2c-0.1,0.2-0.3,0.6-0.2,0.6
			c0,0.4-1,0.7-0.3,1.2c-0.4,0.2-0.8,0.1-1.2,0.4c-0.2,0.3-0.5,0.3-0.9,0.4c-0.1-0.1-0.3,0-0.5-0.1c-0.3,0.2-0.6,0.4-0.9,0.4
			c-0.3,0.1-0.6,0-0.9-0.1c-0.5,0-1,0.2-1.4,0.1l-1.2-0.2c-0.5,0.2-1-0.1-1.5,0c-0.2,0-0.6,0.1-0.9-0.2c-0.7,0.1-1.2-0.2-1.8-0.3
			l0,0l0,0c-0.1,0.1-0.3-0.1-0.4-0.1c-0.3-0.1-0.8-0.6-0.7-1.2c0.3,0.1,1.2-0.5,0.8-0.6c0-0.2,0.2-0.5,0-0.6v-0.1l0,0
			c-0.1-0.1-0.2-0.2-0.3-0.3c-0.1-0.2-0.1-0.4-0.2-0.4c-0.1-0.1-0.3-0.1-0.2-0.3v-0.1c0.2,0.1,0.4-0.1,0.7,0c0,0,0.4-0.6,0.3-0.6
			c0,0-0.1,0-0.2-0.1c0.1,0,0.1-0.1,0.2-0.1c0-0.1-0.1-0.1,0-0.2c0.1,0,0.2,0,0.3-0.1c0-0.1-0.3-0.4-0.3-0.6c0.1,0,0.1,0.1,0.2,0.1
			c0.1-0.1,0.4-1.5,0.3-1.5s1.1,0.3,1.2,0.3c0.1-0.1,0.2-0.1,0.2-0.3l-0.1-0.1c0.2,0,0.3-0.4,0.3-0.6c-0.1-0.1-0.2-0.2-0.3-0.1l0,0
			c-0.1-0.1-0.4-0.8-0.4-1l0.1-0.1c0.1,0.1,0.5,0.7,0.5,0.7c0,0.1,0.1,0.2,0.2,0.2l0.3-1l0,0c-0.1-0.1-0.1-0.3-0.2-0.4
			c0.1,0,0.1-0.2,0.1-0.2c0.1,0-0.1-1.1-0.3-0.9c0,0,0.1-0.6-0.2-0.7c0,0,0.3,0,0.3-0.1c0,0.1,0.6-0.4,0.5-0.5
			c0-0.1,0.2-0.2,0.1-0.3l-0.2-0.2c0.1-0.1,0.2-0.1,0.2,0c0.1,0.1,0.6,0.5,0.8,0.4c-0.1,0.1,0.1,0,0.1-0.1c0.1,0,0.2-0.1,0.2-0.1
			c0.2,0.1,0.2-0.4,0-0.6c0,0,0.1-0.1,0-0.1c0.1,0,0.5-0.6,0.5-0.6c0.2,0.1,0.2-0.1,0.3-0.2C49.5,427.3,49.7,427.2,49.8,427.3"/>
	</g>
	<g id="path450">
		<path inkscape:connector-curvature="0" fill="#3C3C9E" d="M65.7,433.4C65.7,433.5,65.7,433.5,65.7,433.4c-0.2,0-0.4,0-0.6,0
			c-0.3,0.3-0.2,0.8-0.3,1.2h0.1C65.2,434.2,65.2,433.6,65.7,433.4L65.7,433.4"/>
	</g>
	<g id="path452">
		<path inkscape:connector-curvature="0" fill="#3C3C9E" d="M65.8,433.4c0.4-0.3,0.9-0.6,1.4-0.3c0.2,0.2,0.2,0.5,0.2,0.8
			c-0.1,0.3-0.4,0.4-0.7,0.6c0.1,0,0.1,0.2,0.2,0.1c0.2,0.2,0.3-0.1,0.5,0c0.1-0.1,0.3-0.2,0.3-0.3c-0.2-0.6,0.4-1.2-0.1-1.8
			c-0.5-0.3-1.1-0.1-1.5,0.2C65.9,432.7,65.9,433.1,65.8,433.4L65.8,433.4"/>
	</g>
	<g id="path454">
		<path inkscape:connector-curvature="0" fill="#FFFFFF" d="M65.5,433.3c-0.2,0.1-0.5,0.1-0.6-0.1c-0.1,0.2-0.3-0.1-0.4,0.1
			c-0.3,0-0.8,0-1.1-0.1c0.2-1.8,0.6-3.4,0.8-5.2c0.1,0.3,0.4,0.5,0.7,0.7c-0.3,0.3-0.3,0.8-0.3,1.2c-0.1,0.5-0.5,0.9-0.4,1.5
			c0.1,0.3-0.4,0.6-0.4,1c0.3,0.1,0.4-0.2,0.6-0.3c0,0.1,0.1,0,0.2,0l0.2-0.1c-0.1,0.4-0.2,0.7-0.2,1.1c0.1,0.1,0.3,0,0.4-0.1
			c0.2-0.1,0.4-0.2,0.6-0.4l0,0c0.3-0.2,0.4-0.6,0.6-0.9c0-0.1,0.1-0.2,0-0.4c0-0.5,0-1-0.3-1.4c-0.2-0.4,0.2-0.7,0.1-1.1
			c0.5-0.2,1-0.8,1.2-1.3c0.1,0,0.1,0.1,0.2,0.2c-0.2,1.1,0.1,2.8-0.1,3.9c0,0.2,0.1,0.6-0.2,0.8c-0.6,0.1-1.2,0.3-1.3,1
			c0,0.1,0,0.1,0,0.2L65.5,433.3"/>
	</g>
	<g id="path458">
		<path inkscape:connector-curvature="0" fill="#FFFFFF" d="M37.5,427.5c-0.5-0.1-1-0.1-1.5-0.1c0-0.2,0-0.6-0.2-0.7
			c-0.1,0,0,0.1,0,0.2s0,0.3,0,0.5l0,0c-0.1,0.1-0.3,0.1-0.5,0.2s-0.5,0.1-0.6,0.3l-0.3,0.1c0.2-0.1,0.3-0.3,0.4-0.5
			c0.3-0.4,0.2-1.3,0.9-1.3c0.2,0,0.1-0.2,0.1-0.3c-0.3-0.3-0.7-0.7-0.8-1.1c0.6,0.1,1.2,0,1.6,0.3c0.3,0.5,0.1,1.1-0.1,1.6l0.1,0.1
			c0.2-0.4,0.3-0.8,0.3-1.2l0,0c0.2,0.3,0.5,0.5,0.3,0.9c-0.1,0.2-0.3,0.4-0.3,0.7c0.2-0.1,0.3-0.3,0.4-0.5c0-0.1,0-0.2,0.1-0.2
			c0.2,0.3,0.3,0.7,0.4,1.1v0.2c0,0.3,0.2,0.7,0.3,1c-1.1-0.1-2.2-0.2-3.2,0c0-0.1-0.1-0.2,0-0.3c-0.1-0.1-0.1-0.2-0.1-0.3l0.1-0.1
			l0,0c0.8-0.4,1.6-0.3,2.5-0.2L37.5,427.5"/>
	</g>
	<g id="path460">
		<path inkscape:connector-curvature="0" fill="#FFD1D1" d="M28,428.3c0.2,0.2-0.1,0.4,0.2,0.6c0.1,0.7,0.7,1.2,0.9,1.8
			c-0.3,0.2-0.5,0.5-0.8,0.7h-0.1c-1-0.9-1.4-2.1-1.7-3.2l0,0c0.2-0.3,0.5-0.4,0.9-0.3C27.6,427.8,27.9,428.1,28,428.3"/>
	</g>
	<g id="path462">
		<path inkscape:connector-curvature="0" fill="#FFD1D1" d="M34.7,428.4c-0.1,0.3-0.5,0.4-0.7,0.6s-0.6,0.3-0.5,0.6
			c0,0.1,0.1,0.1,0.1,0.2c-0.1,0.1-0.2,0-0.3,0.1c0-0.4,0.1-0.8,0.3-1.1c0,0,0-0.1-0.1-0.1s-0.2,0.2-0.3,0.3
			c-0.1,0.3-0.1,0.5-0.1,0.8c-0.1,0-0.2-0.1-0.3-0.1c-0.2-0.4,0.2-0.9,0.5-1.2c0,0,0-0.1-0.1-0.1c-0.4,0.4-0.7,0.7-0.6,1.3
			c-0.1,0.1-0.2-0.1-0.2-0.1c-0.2-0.5,0.1-0.9,0.3-1.2c0-0.1-0.1,0-0.1,0c-0.4,0.3-0.5,0.8-0.4,1.2c0-0.2-0.3-0.5-0.1-0.8
			c0.4-1,1.6-0.7,2.4-0.8C34.7,428,34.7,428.3,34.7,428.4"/>
	</g>
	<g id="path470">
		<path inkscape:connector-curvature="0" fill="#3C3C9E" d="M65.8,429.8c0.4,0.7,0.3,1.6-0.1,2.3c-0.2,0.4-0.5,0.6-0.9,0.8
			c0.1-0.4,0.2-0.9,0.5-1.2v-0.1l0,0c0,0,0.1-0.1,0.1-0.2l0,0c0-0.1,0-0.2,0.1-0.3c0.2-0.8-0.2-1.5,0-2.3c0.2,0.1,0.2,0,0.4,0
			C66,429,65.6,429.4,65.8,429.8"/>
	</g>
	<g id="path472">
		<path inkscape:connector-curvature="0" fill="#3C3C9E" d="M65.3,428.7c-0.2,0.8,0.3,1.8-0.1,2.5c-0.1,0.2-0.1,0.5-0.3,0.6
			c-0.3,0-0.6,0.2-0.7,0.4c0.5-0.4,0.2-0.9,0.4-1.4c0.2-0.5,0.4-0.9,0.4-1.5C64.9,429.1,64.9,428.7,65.3,428.7"/>
	</g>
	<g id="path474">
	</g>
	<g id="path476">
	</g>
	<g id="path478">
	</g>
	<g id="path490">
		<path inkscape:connector-curvature="0" fill="#6F513E" d="M38.7,430.2c0,0.1-0.1,0.1-0.1,0.2c-0.1,0.5-0.2,0.9-0.3,1.3
			c-0.2,0-0.5,0.1-0.6,0.3c-0.1,0.2-0.1,0.4-0.1,0.6s0.2,0.5,0.5,0.6c-0.1,0.8-0.1,1.5-0.2,2.3c-0.3,0-0.6,0.1-0.7,0.4
			c0-0.8,0.2-1.9,0.2-2.8s0.2-1.6,0.2-2.5c0.1,0,0.1-0.1,0-0.2c-0.1,0-0.1-0.1-0.2,0c0-0.2,0.3-0.3,0.5-0.4
			C38.3,429.9,38.6,429.9,38.7,430.2"/>
	</g>
	<g id="path492">
		<path inkscape:connector-curvature="0" d="M52.3,430.1c0,0.2,0,0.4-0.2,0.4c-0.2,0.1-0.2-0.5-0.4-0.1l0,0c-0.1,0.1-0.2,0-0.3,0
			s-0.1-0.1-0.1-0.1c0.1-0.1,0.1,0.1,0.2,0c0.1-0.1,0.3-0.1,0.4-0.2c0,0,0.1,0,0.1,0.1C52.1,430.2,52.2,429.9,52.3,430.1"/>
	</g>
	<g id="path498">
		<path inkscape:connector-curvature="0" fill="#FFD1D1" d="M29.7,432.2c0,0.1,0.1,0.3,0.1,0.4c0,0,0,0.4,0.1,0.5
			c0,0.3-0.2,0.4-0.5,0.5c-0.1,0.1-0.2,0.1-0.3,0.1c0-0.1-0.2-0.1-0.2-0.2c0.1,0,0.2-0.1,0.2-0.1c0-0.1,0-0.2,0-0.2
			c0,0.1,0.1,0.2,0.2,0.2c0-0.1,0-0.2-0.1-0.2c0.1,0,0,0.1,0.1,0.1c0-0.2-0.1-0.2-0.2-0.4c0-0.1,0-0.1,0-0.1l0,0v-0.1l0,0h-0.2v-0.1
			l-0.1,0.1v0.1c0,0-0.1,0,0-0.1c0.1,0,0-0.1,0-0.1c0.2-0.2,0.4-0.3,0.6-0.5L29.7,432.2"/>
	</g>
	<g id="path502">
		<path inkscape:connector-curvature="0" fill="#FFFFFF" d="M35.5,430.1c-0.7,0-1.4,0.1-2,0.2c-1.4,0.2-2.6,0.9-3.8,1.6v0.1
			c0.1,0.2,0.1,0.3,0.2,0.5c0.1,0,0.2-0.1,0.2,0l-0.1-0.1l0.1-0.1l0.4,0.1l0,0c0.1,0,0.2,0.1,0.3,0c-0.1,0-0.2-0.1-0.2-0.2
			s-0.2-0.3-0.1-0.4c0.1,0,0.1,0.1,0.1,0.2c0.3,0.5,0.9,0.3,1.4,0.4c0.7,0.3,1.3-0.3,1.8-0.8H34c-0.1,0.1-0.3,0.3-0.5,0.5
			c0.6-0.1,1,0.4,1.6,0.1c0.1-0.2,0.4,0,0.5-0.1l0,0c0.5-0.6,0.1-1.2,0-1.9c0-0.1-0.1-0.2-0.1-0.3V430.1"/>
	</g>
	<g id="path506">
		<path inkscape:connector-curvature="0" d="M47.1,430.3c0,0.1,0,0.2,0.1,0.2h-0.1c-0.1-0.1,0-0.2-0.2-0.3c-0.1,0-0.1,0.1-0.1,0
			v-0.1C46.9,430.1,47,430.2,47.1,430.3"/>
	</g>
	<g id="path514">
	</g>
	<g id="path518">
	</g>
	<g id="path524">
	</g>
	<g id="path526">
		<path inkscape:connector-curvature="0" fill="#FFE84F" d="M59.7,431.5l-0.6,0.6h0.1c0.3-0.3,0.6-0.9,1.2-0.7
			c-0.7,1.1-1.8,2.1-1.9,3.4c-0.1,0.2,0,0.5-0.1,0.5c-0.1-0.2-0.2-0.6-0.2-0.9c-0.1-1,0.3-2.1,0.8-2.9
			C59.2,431.5,59.5,431.3,59.7,431.5"/>
	</g>
	<g id="path542">
		<path inkscape:connector-curvature="0" fill="#6F513E" d="M36.4,439.8c0.4-0.5,0.2-1.2,0.5-1.8c-0.1,0-0.2,0-0.3,0
			c-0.3-0.2-0.6-0.3-0.6-0.7c0.1-0.1,0.2-0.3,0.4-0.2c0,0.1,0.2,0.2,0.1,0.3c0,0,0.1,0,0.1,0.1c0.2,0.2,0.5,0.1,0.7,0l-0.1-0.1v0.1
			l0,0h-0.1l-0.1-0.1c0.1,0,0.1,0,0.1-0.1c-0.1-0.2-0.2-0.5-0.1-0.7c-0.3-0.8-1-2.8-1.1-3c-0.1,0-2.1-1-2.1-1s-3.4,0.4-3.6,0.5
			c0.2,0.1,0.3,0.3,0.1,0.3c0,0,0,1.3-0.2,1.4c0.1,0.1,0,1.2,0.1,1.4l0,0c-0.1,1.1,0.3,2.1,0.5,3.1c0.2,0.9-0.2,1.7-0.2,2.6
			c0.1,0.9,0.4,1.7,0.5,2.5c0.2,0.9,0,1.6,0,2.5c0,0.1,0.1,0.2,0,0.3c0.5-0.1,1.1,0.3,1.6-0.1c0.1-0.1,0.3,0,0.3-0.1
			c0.1,0,0.2,0,0.3,0c0.1,0.1-0.1-2.2-0.1-2.2c0.2-0.1,0-2,0-2.1c0.1-0.1,0.3-3.3,0.4-3.4c0.2-0.1,0.3-0.4,0.3-0.4
			c-0.1,0,0-0.3,0.2-0.3c0.1-0.3,2.4,6.9,2.4,6.9"/>
	</g>
	<g id="path552">
	</g>
	<g id="path564">
		<path inkscape:connector-curvature="0" d="M53.4,433.3c-0.1,0.1-0.2,0.3-0.2,0.4c-0.2,0-0.3,0.3-0.6,0.1l0.1-0.1l0,0h0.1
			c0.1,0,0.2-0.1,0.3-0.2c-0.1-0.2,0.2-0.3,0-0.5v-0.1C53.3,433.2,53.3,433.3,53.4,433.3"/>
	</g>
	<g id="path570">
		<path inkscape:connector-curvature="0" fill="#FFD1D1" d="M66,436.5L66,436.5c-0.2-0.1,0.2-0.5,0.2-0.5s0.3-0.8,0.2-1.2
			c-0.1-0.4,0.5-0.6,0.7-0.8c0.1-0.1,0-0.4,0-0.5c-0.1-0.1-0.1-0.3-0.3-0.3c-0.4-0.1-0.8,0.2-1.1,0.4c0,0.2-0.3,0-0.4,0.3
			c-0.3,0.6-0.6,1.3-0.6,1.9c0,0.2,0.2,0.3,0.3,0.4c0.2,0,0.2,0.1,0.3,0.1l0,0"/>
	</g>
	<g id="path580">
		<path inkscape:connector-curvature="0" fill="#3C3C9E" d="M64.4,433.3c-0.1,0.4-0.2,0.8-0.2,1.3c-0.4,0-0.7-0.1-1.2-0.1
			c0.1-0.4,0.2-0.8,0.2-1.2C63.7,433.3,64.1,433.3,64.4,433.3"/>
	</g>
	<g id="path596">
		<path inkscape:connector-curvature="0" fill="#FFFFFF" d="M64.7,433.3c0,0.1,0,0.1,0,0.2c0.1,0,0.1-0.2,0.3-0.2
			c-0.3,0.4-0.2,1-0.3,1.4c-0.1,0-0.2-0.1-0.2-0.2C64.4,434.1,64.5,433.7,64.7,433.3L64.7,433.3"/>
	</g>
	<g id="path606">
		<path inkscape:connector-curvature="0" fill="#FFFFFF" d="M41.5,434.2c0-0.2,0.1-0.3,0-0.5l0.1-0.1
			C41.7,433.9,41.6,434.1,41.5,434.2"/>
	</g>
	<g id="path622">
		<path inkscape:connector-curvature="0" d="M70,434.7c-0.1,0.2-0.3,0.2-0.4,0.2s-0.3-0.1-0.4,0c-0.1,0-0.1,0-0.1-0.1
			c-0.1-0.1,0.1-0.1,0.1-0.1c0.2,0,0.4,0.1,0.6,0s0.1-0.3,0.2-0.5C70.1,434.3,70,434.6,70,434.7"/>
	</g>
	<g id="path638">
		<path inkscape:connector-curvature="0" d="M67.7,434.9c-0.2,0.4-0.4,1-0.6,1.3l-0.1-0.1C67.2,435.8,67.3,435.3,67.7,434.9
			L67.7,434.9"/>
	</g>
	<g id="path642">
		<path inkscape:connector-curvature="0" d="M40.3,435.1c0,0.5-0.3,0.8-0.3,1.2c-0.1,0.1,0,0.2-0.1,0.3c-0.1,0.1-0.2,0.3-0.4,0.2
			c-0.2,0.2-0.4,0.1-0.6,0.2c-0.2,0-0.3,0-0.5,0l0,0c0.5,0.1,1-0.2,1.4-0.6c0.3-0.4,0.5-0.9,0.6-1.5
			C40.2,435.1,40.3,435.1,40.3,435.1"/>
	</g>
	<g id="path654">
	</g>
	<g>
		<path fill="#C5C5C5" d="M68.3,436.2c0.3,0.2,0,0.5,0.3,0.7c0,0.1,0,0.3-0.1,0.4c0,0.1,0,0.2,0.1,0.3c0.1,0.2-0.1,0.3-0.1,0.5
			c0,0.1,0.1,0.2,0.1,0.3c-0.2,0.2,0,0.4-0.1,0.6s0.1,0.3,0.1,0.5c-0.2,0.2,0.2,0.3,0,0.5c-0.3,0.2,0.1,0.5,0,0.7
			c0.2,0.1,0.1,0.3,0.2,0.5c0-0.5,0-1,0-1.5c0,0.5,0,1,0,1.5h0.1c0.1,0,0.1,0.1,0.1,0.1h0.2c0.1,0,0.2,0.1,0.2,0.2l0.1-0.1
			c0.1,0,0.2,0.1,0.3,0.2c0-0.5,0-1.1,0-1.7c0-1.6-0.1-2.8,0.1-4.4c-0.4,0.1-0.7-0.1-1.2-0.1c0,0.1,0,0.2,0,0.2s0-0.1-0.1-0.1
			c0-0.1-0.1-0.4,0.1-0.5c0,0,0,0,0-0.1h-0.3c-0.1,0.2-0.2,0.3-0.1,0.5C68.2,435.7,68.4,435.9,68.3,436.2z"/>
		<path fill="#C5C5C5" d="M74.1,445.6c0-0.7-0.2-1.3-0.4-1.9l-1.2,1.8c-0.2,0.3-0.2,0.6-0.2,0.9c0,0.1,0.2,0.2,0.3,0.3
			c0,0,0,0,0-0.1c0.2-0.2,0.6-0.1,0.8-0.1c0.1,0,0.2-0.2,0.3,0c-0.1,0.2-0.3,0.4-0.5,0.5c-0.2,0.2-0.5,0.5-0.6,0.8
			c-0.6,0.7-1.1,1.8-2.2,2.1c-0.2,0.1-0.4,0.1-0.5-0.1c0-0.1,0.1,0,0.2,0c-0.1-0.1-0.2-0.2-0.2-0.3c0-0.1,0-0.1,0-0.2
			c-0.1,0.1-0.1,0-0.2,0c-0.2,0.4-0.6,0.3-0.9,0.3c-0.2-0.2-0.3-0.6-0.2-0.4v-0.6c0-0.6,0-0.7,0-0.8c0.1-0.4-0.4-0.8,0-0.7
			c0-0.2-0.2-0.3-0.3-0.4c0,0.1-2.9-4.7-2.9-4.7c-0.1-0.2-0.3-2.7-0.2-2.6c0.4-0.6-0.3-1.1-0.5-1.7v-0.1c0.1,0,0.2,0.1,0.2,0.1
			c0-0.1,0-0.2,0.1-0.2c-0.1-0.2,0.1-0.3,0-0.5h0.4c0.2,0.2,0.4,0.4,0.4,0.7c-0.2,0.2-0.1,0.4,0,0.6c0,0.2,0.1,0.4,0,0.6
			c0,0.1-0.1,0.3-0.1,0.5c-0.2,0.4,0,0.8-0.3,1.3c-0.2-0.1,0.4,1,0.5,1.5c0.1,0.1,0,0.2,0.1,0.2c0,0.2,0.2,0.2,0.2,0.4
			c0.4,0.4,0.5,1,1,1.4c0,0.2,0,0.2,0.1,0.3c0.3,0.4,0.6,0.7,0.7,1.1c0.2-0.1,0.3-0.2,0.4-0.4c-0.1,0.1,0.2-3.1,0.2-3.2
			c-0.1,0.1-0.6-0.9-0.9-0.9c-0.1-0.2,0-0.9-0.3-1c0-0.1,0-0.3,0.1-0.4c-0.2-0.2,0-0.5,0.1-0.7c0,0-0.1-0.1-0.1-0.2
			c0-0.3,0.3-0.5,0.1-0.6c-0.1-0.2,0-0.3,0.1-0.5c-0.1,0-0.2,0-0.2-0.1c0-0.2,0.1-0.4,0.2-0.5c-0.1,0-0.1,0-0.2-0.1s0-0.3,0.1-0.4
			l-0.1-0.1c-0.1-0.2,0.1-0.3,0.1-0.4l-0.1-0.1c0,0,0.1-0.9,0.2-1l0.1-0.1c-0.1,0-0.1,0-0.2,0s-0.1-0.1-0.1-0.2
			c-0.1,0-0.7,0.3-0.4,0.1c-0.1,0-0.1,0-0.2,0c0,0-0.2,0-0.2,0.1c-0.2,0.4-0.2,0.9-0.4,1.3c-0.1,0.1-0.1,0.3-0.3,0.4
			c-0.1,0-0.2-0.1-0.3-0.2c-0.1,0.1-0.2,0.1-0.3,0.1l-0.2,0.2c-0.2-0.1-0.4-0.3-0.5-0.5c-0.1-0.3-0.1-0.7,0.1-1.1
			c-0.4,0-0.6-0.1-0.9-0.1c-0.3,0-0.6-0.1-0.9-0.1c0,0.4,0,0.7-0.1,1.1c-0.3,0.3-0.3,0.8-0.3,1.1c-0.1,0.5-0.3,1-0.3,1.5
			c-0.3,0.9-0.2,1.7-0.4,2.7c0.2,0.6,0.2,1.2,0.2,1.9c-0.2,0.4,0.3,0.7,0.5,1c0.5,0.6,0.9,1.2,1.5,1.8c0.1,0.1,0.1,0.3,0.3,0.3
			c0.1,0.1,0.1,0.2,0.2,0.2c0-0.3,0.2,0.1,0.5,0.6c0.5,0.1,1.5,1.6,1.8,2.2c0.2,0.4,0.5,0.8,0.9,1.1c0.5,0.4,1.2,0.2,1.7,0.3
			c0.4-0.1,0.8,0.2,1.1-0.1c1-0.9,2-2.1,2.5-3.3c0.1-0.2,0.3-0.2,0.5-0.2C74.3,446.9,74.1,446,74.1,445.6z"/>
		<path fill="#C5C5C5" d="M69.9,442C70,442,70,442,69.9,442c-0.2-0.3-0.2,0.2-0.5,0.1c-0.1,0-0.1-0.1-0.1-0.2l-0.2,0.2
			c-0.1,0-0.1,0-0.2,0c0.1,0.2,0.3,0.4,0.4,0c0.1,2.1,0,3.9,0.1,6.1c0,0.2,0,0.4,0.1,0.6s0.2,0.4,0.3,0.4h0.1
			c-0.1-0.8-0.1-1.4-0.1-2.2C69.8,445.2,70,443.7,69.9,442z"/>
		<path fill="#C5C5C5" d="M69.9,449.2C69.9,449.3,69.9,449.3,69.9,449.2C69.9,449.3,69.9,449.3,69.9,449.2
			C69.9,449.3,69.9,449.3,69.9,449.2z"/>
	</g>
	<g id="path660">
	</g>
	<g id="path664">
		<path inkscape:connector-curvature="0" d="M43.7,435.6c0,0.1,0,0.1,0,0.2V435.6c-0.2,0.1-0.4,0.3-0.4,0.5l0,0
			c-0.1-0.2,0-0.3,0.1-0.4C43.5,435.7,43.6,435.7,43.7,435.6"/>
	</g>
	<g id="path670">
		<path inkscape:connector-curvature="0" fill="#FFD1D1" d="M59.1,435.8c0.1,0.1,0.2,0.3,0.1,0.4c-0.3,0.1-0.5,0.4-0.7,0.6
			c-0.3,0.1-0.5,0.4-0.8,0.5c-0.1-0.2,0.1-0.3,0.1-0.5c0.2-0.1,0-0.3-0.1-0.4c-0.2-0.1-0.3,0-0.5,0c0,0.2-0.1,0.4-0.3,0.5
			c0.1-0.4,0.2-0.8,0.6-1c0.2-0.1,0.7,0,0.9-0.2c0,0,0,0.1,0.1,0.1s0.1,0,0.1-0.1C58.8,435.7,59,435.8,59.1,435.8"/>
	</g>
	<g id="path684">
	</g>
	<g id="path688">
		<path inkscape:connector-curvature="0" d="M41.9,436.8c0.3,0,0.5,0.2,0.7,0.2v0.1c-0.3,0.1-0.5-0.3-0.8-0.1
			c-0.1,0-0.2-0.1-0.3-0.2l-0.1,0.1c0-0.1-0.2,0-0.1-0.2C41.6,436.6,41.7,436.9,41.9,436.8"/>
	</g>
	<g id="path698">
		<path inkscape:connector-curvature="0" fill="#FFE84F" d="M40.9,437c0.2,0,0.3,0.2,0.4,0.4c0.2,0.3-0.3,0.6,0,0.9v0.2
			c-0.1-0.2-0.2-0.4-0.4-0.6c-0.4-0.2-0.8-0.2-1.2-0.4h-0.3l0.4-0.2l0,0c0.1-0.2,0.3-0.2,0.5-0.2l0.1-0.1l0,0
			C40.5,437,40.7,437,40.9,437C40.8,437.1,40.9,437.1,40.9,437"/>
	</g>
	<g id="path702">
		<path inkscape:connector-curvature="0" fill="#6F513E" d="M36.3,437.1C36.3,437.1,36.2,437.1,36.3,437.1L36.3,437.1
			c0.1,0.3,0.5,0.5,0.8,0.4c0.1,0,0.2-0.1,0.3-0.1c0.1,0.2-0.2,0.3-0.3,0.4c-0.3,0.1-0.6-0.1-0.8-0.2
			C36.2,437.5,36.1,437.3,36.3,437.1C36.2,437.1,36.2,437.1,36.3,437.1L36.3,437.1"/>
	</g>
	<g id="path722">
		<path inkscape:connector-curvature="0" fill="#6F513E" d="M37.8,437.6c-0.4,0.2-0.7,0.6-0.9,0.9c0.1-0.3,0-0.6,0.4-0.7
			c0.1-0.1,0.2-0.1,0.2-0.2v-0.1C37.6,437.5,37.7,437.5,37.8,437.6"/>
	</g>
	<g id="path730">
		<path inkscape:connector-curvature="0" fill="#FFE84F" d="M38.7,437.7c-0.2,0.2-0.6,0.2-0.8,0.4c-0.4,0.2-0.6,0.5-0.9,0.8
			c0.1-0.5,0.5-1.1,0.9-1.2C38.2,437.7,38.4,437.7,38.7,437.7"/>
	</g>
	<g id="path746">
		<path inkscape:connector-curvature="0" d="M38.9,438c-0.2,0.1-0.4,0.2-0.6,0.2l0,0h-0.1l0,0l0,0c0,0,0,0,0.1,0l0,0
			c0-0.1,0.1,0,0.1-0.1C38.6,438,38.7,438,38.9,438L38.9,438"/>
	</g>
	<g id="path748">
		<path inkscape:connector-curvature="0" d="M54.8,438L54.8,438"/>
	</g>
	<g>
		<path fill="#36E218" d="M42.4,434.1C42.4,434.1,42.4,434.2,42.4,434.1C42.4,434.2,42.5,434.2,42.4,434.1z"/>
		<path fill="#36E218" d="M43.7,434.9L43.7,434.9L43.7,434.9L43.7,434.9z"/>
	</g>
	<g id="path758">
		<path inkscape:connector-curvature="0" d="M39.4,438.2c0.2,0,0.4,0,0.6,0c0.2,0,0.6,0.1,0.7,0.3c0.2,0.2,0.2,0.4,0.2,0.6
			c-0.1,0.2-0.1,0.4-0.3,0.4c-0.1,0-0.1,0.1-0.2,0.1c0-0.2,0.3-0.3,0.1-0.6c0-0.2-0.1-0.4-0.3-0.5c-0.4-0.2-0.9-0.2-1.2-0.1
			l-0.2,0.1l0,0c-0.8,0.4-1.1,1.2-1.6,1.8c-0.1,0.2-0.1,0.3-0.1,0.5H37c0-0.6,0.4-1,0.7-1.5c0.3-0.4,0.6-0.7,0.9-1
			c0.1,0,0.1-0.1,0.2,0c0,0,0,0,0.1,0l0,0C39.1,438.2,39.3,438.2,39.4,438.2C39.3,438.2,39.4,438.2,39.4,438.2"/>
	</g>
	<g id="path772">
		<path inkscape:connector-curvature="0" fill="#FFE84F" d="M60.9,439.9l0.1,0.5c-0.4-0.5-0.9-1.1-1.5-1.1c-0.1-0.1-0.3-0.1-0.4,0
			c-0.1,0.1-0.2,0.2-0.3,0.3c0,0.1,0,0.4,0.2,0.4c0-0.2,0-0.3,0-0.5c0.1-0.1,0.3-0.2,0.4-0.1l0,0c-0.1,0.1,0.1,0.1,0.1,0.2
			c0,0.3-0.2,0.5-0.4,0.6c-0.2,0-0.4,0.2-0.6,0.1c-0.1-0.1-0.2-0.1-0.3-0.2c-0.1-0.2-0.2-0.3-0.1-0.6c0.2-0.4,0.6-0.7,1-0.8
			C59.9,438.4,60.5,439.3,60.9,439.9"/>
	</g>
	<g id="path834">
		<path inkscape:connector-curvature="0" fill="#6F513E" d="M49.1,442.2c0,0,0,0.2,0.1,0.2c0.1-0.1,0.1-0.3,0.1-0.5v-0.4
			c0.1,0.1,0.6-0.1,0.5,0.3v0.2h-0.1c-0.2,0.2-0.4,0.5-0.7,0.5c0-0.1,0.1-0.4,0-0.5l0,0h-0.1c0.1-0.2-0.1-0.3-0.1-0.5
			C49.3,441.4,49,441.9,49.1,442.2"/>
	</g>
	<g id="path850">
		<path inkscape:connector-curvature="0" fill="#FFE84F" d="M48.9,442.6c0.3,0,0.5-0.2,0.7-0.4c0,0.1-0.2,0.2,0,0.3
			c0.1,0,0.2,0,0.3-0.1c0,0.3-0.4,0.5-0.6,0.6c-1.1-0.1-1.9,0.9-3,0.3H46h0.1c0,0,0-0.1-0.1-0.1s-0.2,0.2-0.3,0.2
			c-0.6-0.3-1.5-0.3-1.9-1c0.1,0,0.3,0.2,0.5,0.1c0.6,0.1,0.9,0.5,1.5,0.5c0.1-0.2,0-0.4,0-0.6c0.2,0.1,0.3,0.5,0.5,0.3l0.2-0.2
			c0,0.1-0.1,0.2-0.1,0.3c0.3,0.2,0.7,0.2,1.1,0.1c0.1,0,0.2-0.3,0.3-0.1c0.1,0,0.3-0.1,0.4-0.2c0.2-0.2,0.5-0.4,0.7-0.6
			C49,442.3,48.6,442.5,48.9,442.6"/>
	</g>
	<g id="path852">
		<path inkscape:connector-curvature="0" fill="#C5C5C5" d="M69.1,442.6c0,2.4,0,4.3,0.1,6.6c0.1,0.3,0.2,0.5,0.3,0.7
			c-0.1,0.2-0.3,0.3-0.5,0.3c-0.3,0.1-0.4-0.3-0.5-0.4c0.9-0.5,0.3-1.4,0.5-2.2c0-0.8,0-1.6-0.2-2.3c0-0.9-0.1-2.1,0-3L69.1,442.6"
			/>
	</g>
	<g id="path858">
		<path inkscape:connector-curvature="0" fill="#6F513E" d="M49.6,443.3c0,0.4,0.1,0.8,0.1,1.2h-0.4c0-0.4-0.1-0.8-0.1-1.3
			c0.1,0,0.2-0.1,0.3-0.1L49.6,443.3"/>
	</g>
	<g id="path866">
	</g>
	<g id="path868">
		<path inkscape:connector-curvature="0" fill="#36E218" d="M48.8,443.3c-0.7,0.1-1.3,0.5-1.9,0.4l0.2,0.1c0.1,0,0.2,0.1,0.3,0.2
			c0.3,0,0.5,0.2,0.7,0.2l0,0l0.1-0.1c0.3,0,0.5-0.1,0.7,0L48.8,443.3L48.8,443.3"/>
	</g>
	<g id="path870">
		<path inkscape:connector-curvature="0" fill="#6F513E" d="M49,444.3c0-0.3,0-0.6-0.1-0.8l-0.1-0.2c0.1,0,0.1,0,0.2,0v0.1l0,0
			l0.1,1c-0.1,0-0.1,0-0.2,0L49,444.3"/>
	</g>
	<g id="path880">
		<path inkscape:connector-curvature="0" fill="#6F513E" d="M48.9,447c0-0.1,0-0.1,0-0.1c0.2-0.2,0.4,0.2,0.5,0c0,0,0,0.1,0,0
			c0.1,0,0.2,0,0.2,0s0,0.1,0.1,0.1c0.2-0.1,0.1,0.1,0.2,0.1L50,447c0.1,0.1,0.3,0,0.3,0.2c0.1-0.1,0.1,0.1,0.2,0v0.1l0.1-0.1
			c0,0,0.1,0,0.1,0.1c0.1,0,0.2,0,0.2,0.1c-0.1,0,0,0.1,0,0.1c0.2-0.1,0.3-0.4,0.5-0.3c0,0,0,0.1,0,0.2c0.1-0.1,0.2-0.1,0.3-0.1
			c0.1,0.1,0.3,0,0.4,0c0.1,0,0-0.1,0.1-0.1c0.1,0.2,0.3-0.1,0.5,0c0.1,0.1,0.3-0.1,0.4,0v0.1c-0.4,0.2-0.8,0.2-1.2,0.3
			c-0.4-0.2-0.6,0.2-0.9,0.2c-0.1,0.1-0.2,0.2-0.3,0.1c0,0-0.1,0-0.1,0.1c0.5,0.1,1.1-0.1,1.6-0.1c0.6-0.2,1.4,0.3,1.9-0.2
			c0.1-0.1,0.1-0.2,0.1-0.3c-0.2-0.7-0.6-1.5-1.3-1.8c-0.6-0.5-1.3-0.7-2.1-0.7c-0.3,0-0.6-0.1-0.9-0.2c-0.1,0-0.2,0-0.2,0h-0.4
			c-0.1,0-0.1,0-0.2,0c-0.3,0.1-0.6-0.2-0.9-0.2c-0.4-0.1-0.9-0.2-1.3-0.5c-0.1,0-0.2,0.1-0.3,0.1c0-0.1,0-0.1,0.1-0.1
			c-0.1-0.1-0.3-0.2-0.4-0.3c-0.1-0.2-0.3,0.1-0.4,0c-0.2,0.2-0.5,0.3-0.7,0.5c-0.3,0.2-0.7,0.3-1,0.5c-0.1,0.1-0.1,0.4,0,0.5
			c0,0.1,0.2,0.1,0.2,0.1c0.2-0.2,0.5-0.2,0.7-0.4l0.1,0.1c0,0,0,0,0,0.1c0.1-0.1,0.1,0.2,0.3,0.1c0,0.1,0.2,0.1,0.3,0.2
			c0.2,0,0.3,0.1,0.4,0.1c0.1-0.1,0.3-0.1,0.4-0.3c0,0,0.1,0.1,0.1,0v0.1c0,0.1-0.1,0.2-0.2,0.2c0.1,0.2-0.1,0.3,0,0.4
			c0,0.1,0.1,0.1,0.1,0.1c0.1,0.2,0.2,0.3,0.3,0.5c0,0.1,0,0.3,0.1,0.4c0,0.1-0.2,0.2-0.3,0.2V447c-0.4,0.2-0.8,0.2-1.2,0.3
			c-0.2,0-0.3,0.1-0.5,0.1c0,0-0.1,0,0,0.1c0.3,0.1,0.5,0.1,0.8,0.1c0.6,0,1.1,0.1,1.8,0l0,0c0,0,0.1,0,0.2,0
			c0.3-0.1,0.6-0.1,0.8-0.3c0.1,0,0.1-0.1,0.2-0.1L48.9,447"/>
	</g>
	<g id="path882">
		<path inkscape:connector-curvature="0" fill="#E2FFB3" d="M40.6,444.2c0.1,0.2,0.1,0.4,0,0.6c-0.1,0.1-0.2,0.2-0.3,0.3
			c-0.2-0.2-0.1-0.4-0.3-0.5c-0.3,0.1-0.5,0.3-0.6,0.6h0.3c0.1,0.2,0.1,0.3,0.1,0.6c0.4,1.3-0.8,2.5-0.2,3.7l0,0
			c0-0.2,0.1-0.3,0.3-0.4c0.2,0.1,0.2,0.4,0.3,0.5v-0.1c0.1-0.2,0.3-0.3,0.6-0.3c0.3,0.1,0.5,0.3,0.5,0.6c0.1-0.1,0.1-0.3,0.3-0.3
			c0.1-0.1,0.2,0,0.3,0.1c0.1,0.2,0.2,0.5,0.2,0.8l14.1-0.3c0.1-0.2,0.2-0.3,0.3-0.4s0.2-0.1,0.2,0l0.1-0.2c0.2-0.2,0.6-0.4,0.9-0.3
			c0.1,0.1,0.3,0.2,0.4,0.3c0.1,0.1-0.1,0.2,0,0.2l0.2-0.2c0.2,0,0.2,0.4,0.3,0.5c0.1-0.2,0.1-0.4,0.2-0.6c0.1-0.7,0.2-1.7-0.1-2.4
			c-0.1-0.5-0.3-0.9-0.5-1.3c0-0.1,0-0.4,0.1-0.5c0,0,0,0,0,0.1c0.3-0.1,0.5,0,0.6,0.1c-0.1-0.2-0.2-0.4-0.4-0.6s-0.3,0-0.4,0.2
			c-0.2,0-0.2-0.1-0.3-0.2c0-0.2,0-0.4,0.1-0.6c-0.4-0.3-1,0-1.5-0.1c-0.6-0.2-1.4-0.3-1.9,0c-1.1-0.2-2.1,0.4-3.2,0.2
			c-0.3,0-0.7-0.4-0.9-0.2c-0.2-0.3-0.4,0-0.7-0.1c0,0.2,0,0.3,0,0.4c0.1,0,0.3,0,0.4,0.1c0.7,0.2,1.5,0,2.2,0.4
			c0.5,0.3,1.2,0.6,1.5,1.2c0.2,0.5,0.6,0.9,0.4,1.5c-0.2,0.2-0.6,0.3-0.8,0.3c-0.9-0.2-1.9,0.2-2.9,0.1c-0.1-0.1-0.1-0.1-0.1-0.3
			h-0.1c-0.2-0.2-0.5-0.2-0.8-0.3c-0.1,0-0.2-0.2-0.3-0.1c0.1,0.1,0,0.1,0,0.2c-0.1,0-0.1-0.2-0.3-0.2c-0.1,0-0.3,0.1-0.3,0
			s0.1-0.1,0.2-0.1l-0.1-0.1l-0.1,0.1c-0.6,0.4-1.3,0.5-2.1,0.5c-0.6-0.2-1.3,0.1-1.8-0.2c-0.1-0.1-0.1-0.2,0-0.3c0,0,0.1-0.1,0.2,0
			c0.1,0,0.2-0.1,0.3-0.1c0.5-0.1,0.9-0.1,1.4-0.3c0-0.1-0.2-0.2-0.3-0.2v-0.1c0-0.1-0.1-0.2-0.2-0.2c-0.2,0.1-0.3,0.3-0.5,0.3
			c-0.2-0.2-0.2-0.5-0.3-0.7c-0.2-0.2-0.3-0.5-0.5-0.6c-0.2,0.2-0.6,0.2-0.9,0.1c-0.1-0.2-0.3-0.3-0.2-0.6c0.1-0.4,0.6-0.5,0.9-0.7
			l-0.5-0.2c-0.2,0.1-0.4,0.3-0.7,0.3c-0.1-0.1-0.3,0-0.4-0.1c-0.2,0.1-0.4,0.1-0.6,0.2c-0.1,0-0.3-0.1-0.4-0.1
			c-0.3-0.2-0.6,0.2-0.9,0.2C41.1,444.1,40.8,444.2,40.6,444.2L40.6,444.2"/>
	</g>
	<g id="path886">
		<path inkscape:connector-curvature="0" fill="#9ED9FF" d="M56.2,450.2c-0.2,0.6-0.1,1.4-0.3,2c-0.3,0.6-0.6,1.2-1.2,1.5
			c-0.6,0.3-1.2,0.6-1.9,0.7c-0.1-0.1-0.3,0-0.4,0c-0.5-0.2-1.1-0.5-1.4-1c0.2-0.1,0.3-0.1,0.5-0.2l0.1-0.1l0,0
			c0.3-0.3,0.3-0.9,0.3-1.2c-0.1-0.4-0.5-0.7-0.9-0.7c-0.5-0.1-1,0.1-1.3,0.5c-0.1,0.2-0.2,0.4-0.3,0.6c0-0.1-0.1-0.3-0.2-0.4
			c-0.3-0.3-0.8-0.5-1.2-0.5s-0.8,0.2-0.9,0.6c-0.1,0.3-0.1,0.5,0,0.8c0.2,0.3,0.5,0.4,0.9,0.5c-0.1,0.1-0.2,0.3-0.4,0.4
			c-0.4,0.3-0.9,0.3-1.3,0.5c-0.6-0.1-1.2,0.2-1.8-0.2c-0.2-0.1-0.4-0.2-0.7-0.3c-0.3-0.3-0.9-1.3-1-1.5c0.1-0.1-0.1-1.2-0.2-1.5
			L56.2,450.2"/>
	</g>
	<g id="path888">
		<path inkscape:connector-curvature="0" fill="#9ED9FF" d="M60.3,453.4c0-0.1-0.1-0.2-0.1-0.3c-0.1-0.5-0.3-0.9-0.6-1.3
			c0.7,0.1,1.4,0.2,2,0.5c0,0.2-0.9,1.1-1.1,1.3L60.3,453.4"/>
	</g>
	<g id="path892">
		<path inkscape:connector-curvature="0" fill="#9ED9FF" d="M38,452.7c0.2-0.5,0.5-0.9,0.7-1.4c-0.1,0-0.3,0.2-0.4,0
			c-0.5,0.2-1.1,0.2-1.6,0.5c0.2,0.2,0.3,0.4,0.5,0.6v-0.1c0-0.1,0.1-0.1,0.1-0.1c-0.1,0-0.2,0-0.3,0s0-0.1,0-0.1
			c0.3-0.1,0.6-0.1,0.8-0.2c-0.2,0-0.5,0.2-0.7,0.1c0.1-0.3,0.4-0.1,0.6-0.2c0.3,0,0.5-0.2,0.7-0.2c0.1,0.2-0.3,0.1-0.3,0.3
			c0.1,0,0.2-0.2,0.3-0.1s-0.1,0.1-0.2,0.2c0,0,0.1,0.1,0,0.1c-0.3,0.1-0.6,0.3-1,0.4c0.2-0.1,0.4,0,0.5-0.1c0.1,0,0.2-0.1,0.3,0
			c-0.1,0.2-0.4,0.2-0.6,0.3c0.1,0.1,0.3,0.3,0.4,0.4L38,452.7"/>
	</g>
	<g id="path898">
		<path inkscape:connector-curvature="0" fill="#FFE84F" d="M59,443.9c-0.2,0.1-0.3,0.2-0.5,0.3c-0.1,0.2-0.3,0.4-0.3,0.6
			c-0.1-0.1,0-0.2,0-0.3C58.3,444.1,58.7,443.9,59,443.9"/>
	</g>
	<g id="path904">
		<path inkscape:connector-curvature="0" fill="#FFFFFF" d="M68.6,445.3L68.6,445.3L68.6,445.3C68.6,445.2,68.6,445.3,68.6,445.3"/>
	</g>
	<g id="path916">
		<path inkscape:connector-curvature="0" fill="#FFFFFF" d="M68.1,445.9L68.1,445.9L68.1,445.9C68.2,445.9,68.1,445.9,68.1,445.9"/>
	</g>
	<g id="path924">
		<path inkscape:connector-curvature="0" d="M38.7,446.1c-0.2,0.8-0.1,1.7,0.1,2.5h-0.1c0-0.1-0.1-0.2-0.2-0.3
			c-0.2-0.7-0.1-1.2-0.1-1.9C38.5,446.3,38.5,446.1,38.7,446.1"/>
	</g>
	<g id="path938">
		<path inkscape:connector-curvature="0" d="M36.2,448.5c0.3,0.7,0.2,1.3,0.4,2.2c0,0,0.8,0,1.1,0.1c-0.1-0.1,0-0.2,0.1-0.3
			c0.2,0,0.4,0.2,0.6,0.4c0.1,0,0.4-0.1,0.5,0c-0.6-0.6-0.9-1.5-1.4-2.2c-0.3,0-0.8,0.1-1.1,0L36.2,448.5"/>
	</g>
	<g id="path944">
		<path inkscape:connector-curvature="0" d="M33.4,447C33.4,447.1,33.4,447.1,33.4,447c-0.2,0.2-0.3,0-0.5,0.1V447
			C33,447,33.2,447.1,33.4,447"/>
	</g>
	<g id="path948">
		<path inkscape:connector-curvature="0" fill="#FFFFFF" d="M65.8,448.3c0.6,0.7,0.8,1.7,1.5,2.3l-0.1,0.1c-0.3-0.1-0.3-0.5-0.5-0.7
			c-0.3-0.3-0.8-0.3-1.2-0.3h-0.1c0-0.2,0.2-0.3,0.1-0.4c0.1-0.6,0.1-1.1,0.1-1.7C65.6,447.9,65.7,448.1,65.8,448.3"/>
	</g>
	<g id="path950">
		<path inkscape:connector-curvature="0" d="M55.7,448.4c0.2-0.1,0.3-0.2,0.5-0.2c0.2,0.1,0.4,0.4,0.6,0.3c0,0.1,0,0.2,0.1,0.3
			c0.3,0,0.5-0.5,0.9-0.4c0.3,0.1,0.5,0.4,0.8,0.5l0,0c-0.5,0.1-0.8-0.9-1.3-0.2c0,0.1-0.2,0.1-0.3,0.2c-0.2,0-0.2-0.3-0.4-0.2
			c-0.1-0.1-0.3-0.3-0.5-0.3L55.7,448.4C55.7,448.4,55.7,448.5,55.7,448.4c-0.3-0.1-0.5-0.4-0.6-0.1c-0.1,0-0.1,0-0.2,0l0,0
			c-0.2-0.1-0.3,0.1-0.4,0.2l0,0c0,0.1,0,0-0.1,0c0,0,0-0.1-0.1-0.1l-0.1,0.1l0,0c0,0.1-0.1,0-0.2,0c0.2-0.1,0.5,0.1,0.6-0.2
			c0.1-0.1,0.5,0.1,0.6-0.2C55.3,448.2,55.5,448.3,55.7,448.4"/>
	</g>
	<g id="path952">
		<path inkscape:connector-curvature="0" d="M53.9,448.5L53.9,448.5C54,448.5,53.9,448.5,53.9,448.5L53.9,448.5L53.9,448.5
			L53.9,448.5c-0.1,0.1-0.1,0.2-0.2,0.1l0,0l0,0c-0.2,0-0.3-0.3-0.6-0.1c-0.2,0.1-0.4,0.5-0.7,0.3c-0.5-0.1-0.4,0.8-1,0.5
			c-0.4,0-0.8,0.2-1.2,0.1c-0.1,0-0.2,0.2-0.4,0.1c-0.1-0.1-0.3-0.2-0.4-0.2c0-0.1-0.1,0-0.1,0c-0.4,0.1-0.5-0.8-0.9-0.3
			c-0.3,0.1-0.7-0.5-1,0c-0.5,0.2-0.8-0.5-1.2-0.2c-0.2,0-0.3,0.2-0.5,0.1c0.2,0,0.4-0.1,0.5-0.2v-0.1l0,0v0.1
			c0.5-0.1,0.9,0.5,1.3,0.2c0.4-0.1,0.8,0.4,1.2,0c0.2,0.2,0.5,0.5,0.9,0.4c0.2,0.1,0.3,0.3,0.5,0.2c0.1-0.2,0.3,0,0.4,0
			c0.4,0,0.9-0.2,1.3-0.1c0.1-0.2,0.2-0.5,0.5-0.5h0.5c0.2-0.2,0.4-0.4,0.6-0.3C53.5,448.5,53.7,448.6,53.9,448.5"/>
	</g>
	<g id="path954">
		<path inkscape:connector-curvature="0" d="M44.2,448.5c0.3,0,0.5,0.3,0.7,0.3c0,0-0.1,0.1-0.1,0c-0.1,0.2-0.3,0-0.4,0
			c-0.1-0.1-0.2-0.2-0.3-0.1c-0.1,0-0.2,0.1-0.3,0c-0.2,0-0.4-0.3-0.5,0c-0.2-0.1-0.3,0.2-0.5,0.1c-0.2-0.2-0.5-0.2-0.8-0.1
			c-0.1,0.1-0.1,0.3-0.3,0.2c-0.3,0-0.5-0.3-0.8-0.2s-0.7-0.3-0.9,0.1l-0.2,0.3c-0.1-0.1,0-0.2,0.1-0.3c0.3-0.4,0.8-0.1,1.2-0.2
			c0.3,0,0.5,0.3,0.8,0.2c0.1-0.1,0.1-0.2,0.2-0.3c0.3,0,0.6-0.1,0.9,0.1c0.3,0.1,0.4-0.3,0.7-0.1C43.8,448.5,44,448.7,44.2,448.5"
			/>
	</g>
	<g id="path956">
		<path inkscape:connector-curvature="0" d="M33.3,448.7c-0.1,0.6,0,1.2,0,1.8c-0.1,0.1,0,0.4-0.2,0.3c-0.8-0.2-1.7,0.1-2.5-0.1
			h-0.3c0-0.2,0.1-0.3,0.3-0.4c0.3-0.2,0.5-0.4,0.6-0.7c0-0.3,0.1-0.6,0.1-0.9C31.9,448.7,32.7,448.7,33.3,448.7"/>
	</g>
	<g id="path984">
		<path inkscape:connector-curvature="0" fill="#9ED9FF" d="M30.2,450.9h0.2c0,0,0.6,0,1,0c1.1,0,2.1-0.1,3.2,0c0.1,0.1,1.3,0,1.7,0
			c0.6,0,1.1,0.1,1.7,0.1l0.6,0.1c0,0,0,0,0,0.1l0,0v0.1c-0.5-0.1-1,0.2-1.5,0.1c-0.9,0-1.9-0.1-3,0c-1,0-1.9,0-2.9,0.1
			c-1.3-0.1-2.7-0.1-3.9-0.1c-0.3,0.1-0.7,0.1-0.9,0.4c0,0.1,0,0.1-0.1,0.2c-0.1-0.2-0.1-0.4,0-0.6l0.2-0.1
			C27.7,450.6,29.1,450.8,30.2,450.9"/>
	</g>
	<g id="path990">
		<path inkscape:connector-curvature="0" fill="#9ED9FF" d="M71.5,451.9c0.1,0.2,0.1,0.5,0,0.7c-0.4,0.3-0.9,0.3-1.4,0.2
			c-0.1,0-0.3-0.1-0.4-0.1c0,0-0.3-0.1-0.6-0.2c0,0-0.2-0.6-0.2-0.7c0.3,0,1.6-0.1,2.3,0.3c0,0,0,0.1,0.1,0.1c0,0,0.1,0,0.1-0.1
			c-0.1-0.2-0.3-0.3-0.5-0.4c-1-0.3-2,0-3-0.1c-2.5,0.2-5,0.2-7.7,0.2c-0.1,0-0.2,0-0.3-0.1c-0.2,0-0.6,0-0.7-0.2
			c0.2-0.1,0.3-0.2,0.6-0.2c1.4,0,2.6,0,4-0.1l0,0c0.2,0.1,0.3,0.1,0.5,0.1c0.9,0,1.8,0.1,2.7-0.1c1.3,0,2.7-0.1,3.8,0.2
			C71.1,451.6,71.4,451.7,71.5,451.9"/>
	</g>
	<g id="path992">
		<path inkscape:connector-curvature="0" fill="#9ED9FF" d="M36.9,451.5c-0.3,0.1-1.2,2.2-1.2,2.2l-1.7,2.5c-1.5,0.1-3,0.2-4.5,0.2
			c-0.1,0-0.2,0.1-0.2,0v-0.1c0,0,0.2-3.5,0-3.5v-0.2c0.2-0.1,0.2-0.5,0-0.4c0-0.1,0-0.2,0.1-0.2c0.2,0-0.3-0.4-0.3-0.6
			c0.7,0,1.5,0,2.2,0c1.2-0.1,2.5,0,3.7-0.1C35.7,451.4,36.2,451.4,36.9,451.5"/>
	</g>
	<g id="path994">
		<path inkscape:connector-curvature="0" fill="#9ED9FF" d="M29.1,451.4c0,0.2,0.1,0.3,0,0.5c-0.2,0.4-0.7,0.5-1.1,0.6
			c-0.5-0.1-1-0.1-1.4-0.5c0.1-0.2,0.2-0.5,0.4-0.6c0.1,0,0.3-0.1,0.4,0c-0.2,0.1-0.4,0.1-0.6,0.2v0.1c0,0,0.1,0,0.1-0.1
			c0.3,0,0.6-0.2,1-0.2l0.1-0.1l0,0C28.4,451.4,28.7,451.4,29.1,451.4"/>
	</g>
	<g id="path1000">
		<path inkscape:connector-curvature="0" d="M36.3,451.8L36.3,451.8"/>
	</g>
	<g id="path1002">
		<path inkscape:connector-curvature="0" fill="#9ED9FF" d="M68.8,451.8c-0.1,0.3,0,4.7,0,4.7c-1.5,0.1-2.8,0.2-4.3,0.2l-0.8-1.2
			c0,0-0.2-0.4-0.4-0.6c0.1,0-0.2-0.4-0.2-0.4c0.2,0.1-0.1-0.5-0.4-0.6c-0.1-0.1-1-1.4-1-1.4s-0.3-0.4-0.5-0.5l-0.5-0.1
			c2.6,0,4.9,0,7.4-0.1L68.8,451.8"/>
	</g>
	<g id="path1006">
		<path inkscape:connector-curvature="0" fill="#9ED9FF" d="M36.6,451.9c0.3,0,0.3,0.3,0.5,0.5c1,1,2.2,1.9,3.5,2.4
			c1.7,0.8,3.3,1.8,5.2,2.1c1.6,0.2,3.2,0.7,4.8,0.3c1,0,2.1-0.3,3.1-0.5c2-0.4,3.9-1.1,5.7-2.3c0.7-0.3,1.3-0.9,2-1.3
			c0.1-0.2,0.3-0.5,0.5-0.6l0.5,0.8l1,2.1c0.6,0.8,1.1,1.7,1.6,2.5c0.1,0.4-0.4,0.6-0.6,0.9c-0.5,0.3-1,0.7-1.5,1l0,0
			c-1.5,0.8-2.8,1.8-4.4,2.2c-1.6,0.7-3.4,1.1-5.2,1.6l0,0c-2.3,0.6-4.5,0.4-7,0.3c-1.7-0.1-3.3-0.7-4.8-1.2
			c-1.7-0.6-3.2-1.5-4.9-2.2c-0.3-0.2-0.5-0.3-0.8-0.5c-0.8-0.4-1.5-1.1-2.3-1.6c-0.2-0.2-0.8-0.4-0.6-0.9c0.2,0,0.2-0.2,0.2-0.3
			c1-1.3,2.2-2.5,2.7-4c0.1-0.2,0.2-0.5,0.2-0.7c0.8,0.9,1.8,1.7,2.8,2.4c1,0.6,2,1.2,3.1,1.6c0.4,0.2,0.9,0.2,1.3,0.5
			c1.3,0.3,2.5,0.7,3.8,0.8c1.4,0.3,2.6,0.2,4,0.1c1.2-0.1,2.4-0.4,3.5-0.8c0.3,0,0.7-0.2,1-0.3c0.6-0.2,1.1-0.4,1.7-0.6
			c1.5-0.8,3.1-1.5,4.3-3c0-0.1,0.1-0.1,0-0.2c-0.2-0.1-0.2,0.2-0.3,0.3c-1.1,1.2-2.6,1.9-3.9,2.7c-1.1,0.4-2.1,0.8-3.2,1.1
			c-2.1,0.7-4.4,0.9-6.6,0.6c-1.1-0.2-2.1-0.2-3.2-0.6c-0.8-0.1-1.4-0.4-2.1-0.7c-1.1-0.3-2.1-1-3.1-1.5c-1.1-0.7-2.2-1.6-3.1-2.5
			C36.4,452.1,36.4,452,36.6,451.9C36.5,451.9,36.5,451.9,36.6,451.9"/>
	</g>
	<g id="path1012">
		<path inkscape:connector-curvature="0" fill="#9ED9FF" d="M29.3,452.3C29.2,452.3,29.2,452.3,29.3,452.3L29.3,452.3
			c0.2,1.9-0.3,3.5-0.1,5.3c-0.3,0.1-0.8,0.2-1.1-0.1c-0.3-1.5-0.8-3.1-1.1-4.6c0.3,0.2,0.9,0.2,1.2,0.2c0,0.1,0.2,0.2,0.3,0.1
			c0.2-0.1,0.3-0.1,0.4-0.2c-0.2-0.1,0.2-0.1,0-0.2c-0.5,0.2-1,0.3-1.6,0.2c-0.1-0.1-0.3-0.1-0.4-0.2l-0.1-0.4
			c0.4,0.2,0.8,0.2,1.3,0.3c0.5-0.1,1-0.2,1.2-0.6L29.3,452.3"/>
	</g>
	<g id="path1020">
	</g>
	<g id="path1030">
		<path inkscape:connector-curvature="0" fill="#9ED9FF" d="M70.2,453c0.5,0,1,0,1.3-0.2c-0.1,0.4-0.9,3.3-1,3.7l-0.2,1
			c-0.3,0.2-0.6,0.7-0.9,0.5c-0.4-0.2-0.4-0.7-0.4-1c-0.1-1.1,0-2.3-0.1-3.4c0-0.2-0.1-0.5,0-0.6c0.7,0.4,1.7,0.5,2.5,0.3v-0.1
			c-0.8,0-1.5,0.1-2.2-0.3c-0.1,0-0.2-0.1-0.3-0.1l-0.1-0.5"/>
	</g>
	<g id="path1038">
	</g>
	<g>
		<path fill="#FFE84F" d="M58.6,440.3c0-0.2-0.2-0.1-0.3-0.2c-0.2,0-0.4-0.2-0.6-0.3c-0.2-0.1-0.3-0.3-0.3-0.5
			c0-0.3-0.1-0.5,0.1-0.8c-0.1,0.1-0.2,0.1-0.2,0.2c-0.1,0.4,0,0.8,0.2,1.2c0.2,0.3,0.6,0.1,0.8,0.4c0,0,0,0,0.1,0c0,0,0,0,0,0
			C58.4,440.3,58.5,440.3,58.6,440.3z"/>
		<path fill="#FFE84F" d="M61.6,439.8c-0.4-0.8-0.6-1.6-1.2-2.1c-0.2-0.1-0.4-0.1-0.6-0.1c0.4,0.3,1,0.8,1.2,1.3
			c-0.1,0,0,0.1-0.1,0.1c-0.3-0.5-0.7-1-1.3-1.2c-0.1,0-0.2,0-0.3,0c0,0,0.1-0.1,0.3-0.3c-0.6,0-1.1,0.1-1.6,0.3
			c-0.3,0.1-0.4,0.3-0.5,0.6c0,0,0,0,0,0.1c0,0,0,0,0-0.1c-0.1,0.2-0.1,0.5-0.1,0.7c0,0.2,0.1,0.2,0.1,0.4c0.1,0.1,0.2,0.2,0.2,0.3
			c0,0,0,0,0.1,0l-0.1-0.2c-0.2-0.4,0-0.8,0.3-1.1c0.5-0.3,1.1-0.4,1.6-0.2c0.7,0.4,1.1,1.2,1.4,1.9c0,0,0.2,0.2,0,0.2
			c0.2,0.4,0.2,0.7,0.3,1.1c0,0.1-0.1,0.1-0.1,0.1c-0.1-0.1-0.1-0.2-0.1-0.3H61c0-0.4,0-0.8-0.3-1.1c-0.3-0.3-0.7-0.9-1.2-0.9
			c0.1,0.3,0.2,0.7-0.1,0.9c-0.3,0.3-0.7,0.3-1,0.1c-0.3,0.2-0.3,0.5-0.3,0.8v0.1l0.1,0.1c0.1,0.1,0.1-0.1,0.2-0.1
			c0.1-0.4,0.5-0.7,0.8-0.8c0.4-0.2,0.7,0.1,1.1,0.2c0.1,0.1,0.3,0.2,0.2,0.3c-0.2,0-0.1-0.2-0.2-0.2c-0.4-0.1-0.9-0.4-1.3-0.1
			c-0.1,0.1-0.3,0.1-0.2,0.3l-0.1,0.1v0.1c0,0.1-0.1,0.1-0.1,0.1c0,0.3,0.2,0.5,0.4,0.6h0.1c-0.3,0.5-0.1,1.3,0.2,1.8
			c0.3,0.1,0.6,0.1,0.9,0.2c-0.2-0.5-0.5-0.8-0.8-1.1l0.1-0.1c0.2,0.2,0.4,0.5,0.6,0.7c0.2,0.2,0.2,0.6,0.5,0.8c0,0.1,0.1,0.2,0,0.2
			c0,0.3,0,0.5,0,0.8c0,0.1-0.1,0-0.1,0c0-0.4,0-0.7-0.2-1.1c-0.2,0-0.5-0.1-0.8-0.1l0.1,0.1c0.1,0.1-0.2,0.1-0.2,0.1
			c-0.3,0-0.4,0.3-0.6,0.3c0.6,0.2,0.6,0.9,0.9,1.3c0.1,0.1-0.1,0.2-0.1,0.2c-0.1-0.2-0.1-0.4-0.3-0.5c-0.2-0.1-0.3-0.3-0.6-0.2
			c-0.1,0.2,0,0.3,0,0.4c0.3,0.5,0.3,1,0.5,1.5c0.2,0.6,0,1.3,0,1.9c0,0.3,0,0.6-0.1,0.8c-0.4,0.4-0.2,1.1-0.7,1.4
			c-0.1,0-0.2,0.1-0.2,0c0.4-0.4,0.6-1,0.4-1.6c-0.3,0.1-0.2,0.5-0.4,0.5c-0.1-0.2,0.1-0.4,0-0.5c0-0.1-0.2-0.2-0.3-0.3
			c-0.3-0.1-0.5,0-0.7,0.1c-0.4,0.2-0.3,0.6-0.3,0.9c0,0.1-0.1,0.1-0.1,0.1c-0.1-0.3-0.1-0.6,0-0.8c-0.5,0.4-0.4,1-0.5,1.5
			c-0.2,0.5-0.1,1-0.4,1.4c-0.6,1.1-1.9,1.7-3.2,1.8c-0.4-0.1-0.9,0-1.3-0.2c-0.7-0.2-1.1-0.9-1.3-1.5c-0.1-0.3,0-0.8,0.3-1
			c0.1-0.1,0.3-0.2,0.4-0.1c0,0,0.1,0,0.1,0.1c-0.1,0.1-0.1,0-0.2,0c-0.4,0.1-0.4,0.4-0.5,0.7c0,0.1,0,0.4,0.1,0.4h0.1
			c0.2,0.3,0.5,0.2,0.8,0.1c0.3-0.1,0.3-0.4,0.4-0.6c0-0.4,0-0.8-0.3-1.1c-0.5-0.3-0.9-0.2-1.4,0c-0.4,0.3-0.6,0.9-0.6,1.4
			c0,0.6,0.4,1.1,0.9,1.5c0.5,0.4,1.1,0.5,1.7,0.6c1.3,0.4,2.6-0.2,3.8-0.6c0.6-0.2,1.1-0.8,1.6-1.2c0.6-0.7,1.2-1.4,1.9-2.2
			c0.8-0.9,1.1-2,1.6-3c0.1-0.2,0-0.5,0.3-0.5c0.3-0.8,0.4-1.7,0.6-2.5c0.1-0.2,0.1-0.6,0.2-0.8C62.1,442.4,62.2,441.2,61.6,439.8z
			 M58.9,437.8c0,0-0.1,0-0.1,0C58.8,437.8,58.9,437.8,58.9,437.8z"/>
		<path fill="#FFE84F" d="M49.1,453.2c0.1-0.2,0.2-0.5,0.2-0.8c-0.1-0.5-0.6-0.8-1-0.9c-0.5-0.1-0.8,0-1.1,0.3
			c-0.1,0.2-0.2,0.3-0.2,0.5s0.1,0.4,0.3,0.5c0.3,0.1,0.5,0.2,0.8,0.2c0,0-0.1,0-0.1,0.1c-0.3,0.4-0.6,0.6-1,0.8
			c-0.2,0-0.4,0.2-0.5,0.2c0.7-0.1,1.5-0.3,1.7-1.1c0,0,0,0,0,0c0.1,0,0.2,0,0.2-0.1c0-0.3,0.1-0.7-0.3-0.9l0.1-0.1
			c0.1,0,0.2,0.1,0.3,0.2c0,0.2,0.1,0.5,0.1,0.7c0,0,0.1,0.2,0,0.2c0,0.3-0.2,0.6-0.4,0.8c-0.1,0.2-0.3,0.3-0.5,0.4l-0.4,0.2
			c-0.6,0.1-1.1,0.1-1.7,0.1c-0.1-0.1-0.2,0-0.3-0.1c-0.3,0-0.6-0.2-0.9-0.2c-0.4-0.3-0.8-0.4-1.1-0.8c0,0-0.1,0-0.2-0.1
			c-0.3-0.5-0.6-1.2-0.6-1.9c-0.1-0.6-0.2-1.1-0.4-1.6c-0.2,0.1-0.3,0.3-0.3,0.5c0,0.1,0,0.4,0,0.5l-0.1-0.1c0-0.4-0.1-0.9-0.5-1.2
			c-0.2,0-0.4,0.2-0.5,0.4c-0.1,0.1,0.2,0.3,0,0.4c-0.2-0.2-0.2-0.5-0.4-0.7c0-0.1-0.1-0.2-0.1-0.2c-0.1,0.1-0.1,0.3-0.2,0.4
			c0.1,0.7,0.4,1.3,0.7,1.9l-0.1,0.1c-0.5-0.8-0.7-1.7-0.9-2.6c-0.2-0.5,0.1-0.9,0.1-1.3c0.4-0.9,0.4-1.6,0.2-2.5
			c-0.1,0-0.2,0-0.3,0c-0.2-0.2,0.1-0.4,0.1-0.6c0-0.1,0.1-0.1,0.1-0.2c0-0.1-0.1-0.1-0.1-0.2c-0.1-0.1-0.3-0.2-0.4-0.2
			c-0.4,0-0.8,0.5-0.9,0.8c-0.2-0.1-0.1-0.3-0.2-0.5c-0.1-0.1-0.2-0.3-0.4-0.3c-0.1,0.3-0.2,0.6-0.2,0.9c-0.1,0.9,0.4,1.9,0.6,2.8
			c0,0.1-0.1,0.1-0.1,0.1c-0.3-0.8-0.6-1.5-0.7-2.3c0-0.5,0.1-1.2,0.3-1.7c0.1,0,0.1,0.1,0.2,0.1c0.2-0.5,0.5-1,1-1.3
			c-0.1,0.2-0.3,0.4-0.5,0.6s-0.3,0.5-0.4,0.7c0.1,0.1,0.3,0.3,0.3,0.5c0.1-0.4,0.7-0.6,0.7-1c0.4-0.3,0.4-0.8,0.7-1.1
			c0.2,0,0.4-0.3,0.4-0.3c0-0.1,0.1-0.4,0.1-0.4c0-0.1,0.1-0.3,0.1-0.4v-0.3c0,0,0-0.1,0-0.2c0-0.1,0-0.3-0.1-0.4
			c-0.5-0.1-1.1-0.1-1.4,0.2v-0.1c0.2-0.3,0.7-0.3,1-0.4c0.1,0.1,0.3,0,0.4,0.2c0.1,0.1,0.1,0,0.2,0c-0.1,0-0.1-0.1-0.1,0v-0.1
			c0-0.1,0.1-0.1,0.1-0.1c0.2,0.1,0.1-0.1,0.2-0.1c-0.3,0.1-0.7,0.1-1-0.2c-0.2-0.1-0.2-0.3-0.2-0.5c-0.1-0.2,0.1-0.3,0.2-0.4
			c0.1-0.2,0.3,0,0.4,0.1c0,0,0.1,0.1,0,0.1c-0.1,0-0.1-0.1-0.2-0.1c0,0,0,0.1,0,0.2c-0.2,0.2,0-0.2-0.2-0.2
			c-0.1,0.1-0.1,0.2-0.1,0.3c0,0.2,0.2,0.2,0.4,0.3c0.3,0,0.7,0.2,1-0.2c0.3-0.3,0.3-0.8,0.1-1.2c-0.4-0.5-1-0.6-1.5-0.6
			c-0.1,0-0.2,0.1-0.3,0.1s-0.2,0.2-0.3,0.1h-0.1c0-0.1,0-0.1,0-0.1c0,0.1-0.1,0-0.1,0.1c-0.4-0.1-0.7,0.3-1.1,0.5
			c-0.4,0.3-0.9,0.6-0.9,1.1c-0.1,0.2-0.1,0.4-0.2,0.6c-0.2,1.1-0.4,2.3-0.3,3.3c0,1.5,0.6,3.2,1.2,4.7c0.3,0.5,0.4,1.1,0.8,1.5
			c0.3,0.9,1.2,1.6,1.9,2.3c0.3,0.2,0.4,0.5,0.7,0.7c0.5,0.4,1,0.9,1.6,1.2c0.9,0.3,1.7,0.6,2.6,0.9c0.1,0.1,0.1,0,0.1,0l0.1,0.1
			c0.1-0.1,0.2,0,0.2,0c0.3,0.1,0.8,0.1,1.2,0.1c0.3-0.1,0.8-0.1,1.1-0.3c0.3-0.1,0.5-0.3,0.7-0.5c-0.3,0.3-0.6,0.6-0.9,0.7
			c-0.1,0.1-0.1,0.2,0,0.3c0.4,0,0.6-0.4,0.8-0.7c0.1-0.1,0.2-0.3,0.4-0.4c0,0.1,0,0.1,0,0.2c-0.3,0.3-0.5,0.7-0.8,1
			c0.2,0.1,0.4,0.1,0.5,0.3c0.2-0.1,0.2-0.3,0.3-0.4c0.1-0.3,0.2-0.6,0.3-0.9c0.3,0.1,0.2,0.4,0.3,0.6c0,0.2,0,0.5,0.1,0.7
			c0.1,0,0.1-0.1,0.2-0.1l0.1,0.1c0.2,0,0.3,0,0.4-0.2c-0.3-0.3-0.3-0.8-0.6-1.2h0.1c0.3,0.3,0.3,0.7,0.6,1.1c0.1,0.1,0.1,0,0.2,0
			c0.2-0.2,0.3-0.3,0.4-0.5c-0.3-0.1-0.6-0.2-0.8-0.4C49.6,454,49.4,453.5,49.1,453.2z"/>
	</g>
	<g id="path1068">
	</g>
	<g id="path1092">
	</g>
	<g id="path1130">
		<path inkscape:connector-curvature="0" fill="#FFE84F" d="M49.4,455.6c-0.2,0-0.5,0-0.6-0.1c0.2-0.3,0.3-0.6,0.4-1
			C49.3,454.9,49.2,455.3,49.4,455.6"/>
	</g>
	<g id="path1150">
		<path inkscape:connector-curvature="0" d="M63.3,455L63.3,455"/>
	</g>
	<g id="path1162">
		<path inkscape:connector-curvature="0" d="M63.4,455.4L63.4,455.4"/>
	</g>
	<g id="path1174">
	</g>
	<g id="path1186">
	</g>
	<path fill="#FFFFFF" d="M42.3,457.2c-0.6,0.4-1.1,0.8-1.7,1.2c-0.1-0.7-0.1-1.4-0.1-2.1c-0.3-0.2-0.6-0.4-1.1-0.2
		c-0.1,0.2,0,0.4,0,0.6c-0.4,0.8-0.8,1.7-1.3,2.5l-0.6,0.4c0,0,0.8,0.5,1.2,0.7c0.2,0,0.5,0.1,0.5,0.1c0-0.3,0-1,0-1.1
		c0.2-0.4,0.3-0.8,0.5-1.2c0.1,0.6,0.2,2.1,0.3,2.1c0.5-0.5,1-0.7,1.5-1.2c-0.3,0.5-0.3,1.2-0.8,1.6c-0.1,0-0.4,0.1-0.4,0.2
		c0.4,0.1,1.6,0.5,1.7,0.5c0-0.2-0.1-0.4-0.1-0.6c0.3-0.9,0.7-1.8,1.1-2.7c0.1-0.2,0.3-0.2,0.4-0.3
		C43.1,457.4,42.6,457.3,42.3,457.2z"/>
	<g id="path1202">
		<path inkscape:connector-curvature="0" d="M64,456.2L64,456.2"/>
	</g>
	<g id="path1214">
		<path inkscape:connector-curvature="0" fill="#9ED9FF" d="M33.8,456.3c-0.2,0.2-0.3,0.7-0.7,0.6c-1-0.1-2.6-0.1-3.8-0.1
			c-0.1-0.1,0-0.2,0-0.4l0.1,0.1c1,0,2,0,3-0.1C32.8,456.4,33.3,456.3,33.8,456.3"/>
	</g>
	<g id="path1218">
	</g>
	<path fill="#FFFFFF" d="M60.1,458.8c-0.4,0.5-2,1.3-2,1.3c-0.1-0.3-0.3-0.5-0.3-0.7l1.5-0.7c-0.2-0.3-0.4-0.8-0.8-0.9
		c-0.1,0.2-0.9,0.7-1.2,0.7c0-0.2-0.4-0.5,0-0.6c0.6-0.3,1.3-0.6,2.1-0.6c-0.2-0.2-0.6-0.7-0.6-0.7l0,0c-0.1-0.1-0.1-0.2-0.2-0.2
		c-0.5,0.5-1.2,0.6-1.9,0.9c-0.3,0.1-0.7,0.3-1.1,0.3c0,0,0.7,1,0.9,1.5s0.5,1,0.5,1.6c0,0.2,0,0.4,0,0.6l3.2-1.3
		c0.1,0.1,0.3-0.3,0.3-0.4C60.3,459.2,60.1,458.7,60.1,458.8z"/>
	<g id="path1226">
		<path inkscape:connector-curvature="0" d="M64.2,456.6"/>
	</g>
	<g id="path1232">
	</g>
	<g id="path1238">
	</g>
	<g id="path1252">
		<path inkscape:connector-curvature="0" d="M33.6,457.1c0.7,0.8,1.6,1.5,2.4,2.1c0.9,0.5,1.9,0.9,2.9,1.4c1.2,0.5,2.4,1.3,3.6,1.6
			c2.7,1,5.4,1.1,8.4,0.9c1.6-0.1,3.1-0.6,4.6-0.9c2-0.6,3.9-1.4,5.7-2.4c1.2-0.6,2.4-1.2,3.5-2.1l0.1,0.1c-1.6,1.3-3.5,2.1-5.3,3.1
			c-0.5,0.2-0.9,0.3-1.3,0.6c-1.6,0.6-3.1,1.1-4.8,1.4c-1.3,0.4-2.8,0.4-4.2,0.5c-1.2,0-2.4,0.1-3.7-0.2c-1.4-0.1-2.7-0.6-3.9-1.1
			c-0.5-0.2-1.1-0.4-1.6-0.8c-1.2-0.5-2.4-1.2-3.6-1.7C35.4,458.9,34.3,458.1,33.6,457.1C33.5,457.1,33.5,457.1,33.6,457.1"/>
	</g>
	<g id="path1254">
		<path inkscape:connector-curvature="0" d="M64.5,457.2"/>
	</g>
	<g>
		<path fill="#FFFFFF" d="M55.1,461.1c-0.2-0.7-0.3-1.5-0.4-2.1c0-0.1,0-0.9,0.1-1.1c-0.1,0-1.7,0.4-1.7,0.4
			c0.2,0.2,0.3,0.4,0.4,0.6c0.1,0.4,0.1,0.7,0.2,1c-0.2-0.1-0.4-0.3-0.6-0.4c-0.6-0.2-0.8-0.8-1.3-1.1c-0.2,0-1.1,0-1.2,0.2
			c0.2,0.1,0.5,0.3,0.5,0.6c0,0.2,0.2,3,0.1,3.2c0.1,0.1,0.3,0,0.4,0c0,0,1.1-0.1,1.4-0.2c-0.2-0.2-0.4-0.5-0.5-0.8
			c-0.1-0.5-0.3-0.9-0.3-1.4c0.6,0.3,1.3,0.8,1.7,1.4c0.1,0.2,0.1,0.4,0.1,0.6c0.5-0.2,1.1-0.2,1.5-0.5
			C55.4,461.3,55.2,461.3,55.1,461.1z"/>
	</g>
	<g id="path1298">
		<path inkscape:connector-curvature="0" d="M48.4,458.5L48.4,458.5"/>
	</g>
	<path fill="#FFFFFF" d="M47.2,461.8c-0.1-1.1-0.5-2.1-0.7-3.1c0.1-0.1,0.2-0.2,0.2-0.3c-0.2-0.2-1.9-0.3-2.2-0.2v0.2
		c0,0.1,0,0.1,0,0.1c-0.4,1.1-1.6,3-1.6,3c-0.1,0.1-0.3,0.1-0.3,0.2c0.1,0.1,0.3,0.1,0.5,0.2c0.5,0,0.9,0.3,1.3,0.3
		c-0.1-0.3-0.1-0.8,0.1-1.1c0.4,0,0.7,0.1,1.1,0.1c0.3,0,0.2,0.3,0.2,0.6c0,0.1-0.3,0.4-0.3,0.6c0.7-0.1,1.4,0.1,2,0
		C47.5,462.2,47.3,462,47.2,461.8z"/>
	<g id="path1332">
		<path inkscape:connector-curvature="0" fill="#9ED9FF" d="M45.4,459.4c0,0.2,0.1,0.4,0.1,0.6h-0.3
			C45.3,459.7,45.4,459.6,45.4,459.4L45.4,459.4"/>
	</g>
	<path fill="#FFFFFF" d="M49.7,461.9c0.1-1.1-0.1-1.9-0.1-3c0-0.1,0.1-0.3,0.1-0.4c-0.2,0-1.5,0.1-1.5,0.1c0.3,0.1,0.3,0.4,0.3,0.7
		c0,0.3,0,0.6,0,0.9c0,0.6,0,1.3,0,1.8l-0.2,0.4c-0.1,0.1,0,0.1,0,0.1c0.4-0.1,1.6-0.1,1.7-0.1L49.7,461.9z"/>
	<g id="path1392">
		<path inkscape:connector-curvature="0" fill="#FFD1D1" d="M33.6,427.7c0.5-0.6,1-1.1,1.1-1.9c-0.1-0.3-0.1-0.7-0.3-1
			c-0.1,0.1-0.2,0-0.2,0.1c0-0.1-0.1,0-0.2,0c-0.4,0.1-0.8,0.1-1.1,0c-0.2,0-0.3-0.1-0.5-0.2l-0.1-0.1c-0.1,0.3,0,0.5,0.1,0.8
			c0.4,0.6,0.8,1.3,0.9,2l0.1,0.3L33.6,427.7"/>
	</g>
	<g id="path1394">
		<path inkscape:connector-curvature="0" fill="#FFFFFF" d="M34.6,424.6c-0.1,0.1-0.2,0.1-0.1,0.2c0.2,0.4,0.4,1,0.2,1.4
			c-0.1,0.2-0.2,0.5-0.4,0.7c-0.2,0.3-0.5,0.5-0.7,0.8h-0.1h-0.2c-0.3-0.5-0.4-1.2-0.7-1.7s-0.7-1.1-0.5-1.6l-0.1-0.2
			c-0.1,0-0.1,0.2-0.2,0.2c-0.3,0.6-0.6,1.1-0.7,1.7c0.3,0,0.7-0.1,0.9,0.2c0.4,0.2-0.1,0.7,0.4,0.8l0.5,0.7v0.1
			c-0.1,0-0.1-0.1-0.1-0.2c-0.2-0.2-0.3-0.6-0.6-0.7c-0.1-0.2,0-0.4-0.1-0.6c-0.2-0.4-0.7-0.2-1-0.2c-0.2-0.5,0.2-0.9,0.4-1.4l0,0
			l0.2-0.4c-0.2,0-0.4,0.1-0.6,0.1c-0.6,0.4-1.6,0.1-2.1,0.8c-0.3,0.2-0.4,0.6-0.7,0.8c-0.3,0.4,0.1,0.7,0.1,1
			c-0.1,0-0.1-0.2-0.2-0.3c-0.1-0.2-0.2-0.4-0.1-0.6c0-0.2,0.2-0.4,0.3-0.5c-0.2,0-0.4,0.1-0.6,0.1c-0.3,0.3-0.7,0.5-1.1,0.5
			c-0.4,0.2-0.6,0.7-0.6,1.1c0,0.2,0,0.3,0.1,0.4c0.1-0.2,0.3-0.3,0.5-0.3c-0.2-0.3,0-0.5,0.1-0.7c0.1-0.1,0.3-0.3,0.4-0.2
			c-0.2,0.1-0.5,0.3-0.5,0.6v0.3c0.4-0.1,0.8,0,1.1,0.3c0.5,0.3,0,1,0.7,0.9c0.4,0.1,0.8-0.3,1-0.6c0.1-0.5,0.3-0.9,0.6-1.2
			c0,0.2-0.2,0.5-0.3,0.7c-0.2,0.4-0.1,0.8-0.2,1.2c0,0.4-0.1,0.8,0,1.2c0.7-0.5,1.5-0.7,2.2-1c0.1-0.1-0.1-0.2,0-0.3
			c0.3-0.4,0.7-0.9,1.3-0.8c0.2-0.1,0.7,0,1,0l0,0l0,0c0-0.1,0.1-0.1,0.2-0.3c0.5-0.5,0.4-1.2,0.9-1.6c0.1,0,0.3,0,0.4-0.1
			c0-0.3-0.4-0.5-0.6-0.7C34.9,425,34.7,424.8,34.6,424.6L34.6,424.6"/>
	</g>
	<g id="path1396">
		<path inkscape:connector-curvature="0" fill="#3C3C9E" d="M68.3,425.7c0.4,0.3,0.9,0.1,1.3,0.3c1.1,0.6,1,2.1,1,3.1
			c0.3,1.1,0.7,2.2,0.5,3.3c-0.3,1-1.3,1.3-2.1,1.4l0,0c-0.4,0-0.7,0.2-1.1,0.3c-0.1-0.3-0.1-0.6,0-0.8c0.1-0.3,0.2-0.6,0.1-0.9
			s-0.3-0.4-0.6-0.4c0.6-0.2,1.3-0.5,1.8-0.8c-0.2-0.6,0-1.2-0.2-1.7c0-0.2,0.1-0.5,0-0.7c-0.1,0.3-0.1,0.5-0.1,0.9
			c0.1,0.5,0,0.9,0.1,1.5c-0.1,0.2-0.3,0.1-0.4,0.2c-0.2,0.1-0.6,0.2-0.8,0.3c-0.2,0.1-0.5,0.1-0.7,0.2c0.2-1.4,0-2.9,0.1-4.3l0,0
			l0,0h0.1c-0.1-0.1-0.1-0.2-0.1-0.4c0.1,0,0.3,0,0.5,0c0.3-0.2,0.3-0.5,0.3-0.8c0.1-0.3,0-0.5,0.1-0.8L68.3,425.7"/>
	</g>
	<g id="path1398">
		<path inkscape:connector-curvature="0" fill="#FFFFFF" d="M66.9,424.9c0-0.1,0-0.1,0-0.1s0.1,0,0.1-0.1l0.1,0.1
			c0.3,0.2,0.6,0.5,0.9,0.8c0.2,0.5,0.1,1.2-0.1,1.7c-0.3,0.3-0.6-0.2-0.9,0c-0.1,0.5-0.6,1-1,1.2c-0.2,0.2-0.7,0-0.9,0.2
			c-0.5-0.1-0.7-0.7-1-1c-0.1-0.1-0.4,0-0.5-0.1c-0.1-0.2-0.1-0.3-0.1-0.5c0.1-0.1,0.1-0.3,0.1-0.5c0-0.7,0.8-0.9,1.3-1.2v0.1
			c-0.1,0-0.1,0.1-0.1,0.2c-0.2,0.9-0.3,2.2,0.3,2.9c0.1-0.2,0.2-0.1,0.3-0.1c0.8-0.3,1.3-1.2,1.5-1.9c0.2-0.5,0.3-1,0-1.5
			L66.9,424.9"/>
	</g>
	<g id="path1400">
		<path inkscape:connector-curvature="0" fill="#FFD1D1" d="M66.8,425L66.8,425L66.8,425c-0.2-0.1-0.3-0.2-0.4-0.2v0.1
			c0.1,0,0.2,0.1,0.3,0.2v0.1c-0.1-0.1-0.2-0.2-0.4-0.2c0,0.1,0.1,0.1,0.1,0.2l0,0c-0.1,0-0.2-0.2-0.3-0.1c0.1,0.1,0.2,0.1,0.2,0.2
			c-0.1,0-0.2-0.1-0.3-0.1v0.1h-0.1c0,0.1,0.2,0.2,0.3,0.3l0,0c-0.3,0-0.6-0.3-0.9-0.1c-0.2,0-0.4-0.2-0.5-0.4
			c0-0.4-0.2-0.7-0.4-1.1l0,0c-0.2-0.2-0.1-0.6-0.2-0.8c0.1-0.3,0-0.6,0.2-0.8c-0.2-0.1,0.1-0.2,0.2-0.3v0.1c0.2,0,0.3-0.2,0.5-0.2
			c0.2,0.1,0.1,0.3,0.3,0.4c0.2,0.1,0.4-0.1,0.5-0.1c0.3-0.2,0.6,0.1,0.8,0.1c0.1,0,0.2,0.1,0.2,0.2c-0.2,0.1,0,0.3-0.1,0.5
			c0.2,0.2,0,0.4,0,0.6c0.3-0.1,0,0.2,0.2,0.3c0.2-0.1,0.3-0.2,0.3-0.4c0.1,0.4-0.2,0.7-0.4,1c-0.1-0.1-0.1-0.2-0.2-0.2
			c-0.1,0.1,0.1,0.1,0,0.2l0,0c0,0,0,0-0.1,0C66.6,424.7,66.7,424.8,66.8,425L66.8,425"/>
	</g>
	<g id="path1402">
		<path inkscape:connector-curvature="0" d="M66.2,422.7c0,0.2-0.2,0.1-0.3,0.2c0.2,0.1,0.3-0.1,0.5,0.1c0.1,0,0.1,0,0.1,0.1
			s-0.1,0.3-0.2,0.3c-0.2,0-0.5-0.1-0.6-0.4c0-0.1,0-0.3,0.2-0.3C66,422.7,66.1,422.7,66.2,422.7"/>
	</g>
	<g id="path1404">
		<path inkscape:connector-curvature="0" d="M65.1,422.8c0.2,0.2,0.1,0.4,0,0.6c-0.2,0.1-0.5-0.1-0.6-0.2c0-0.1,0-0.1,0.1-0.1
			s0.1-0.3,0.3-0.2C64.9,422.9,64.9,422.9,65.1,422.8c-0.2,0-0.3,0-0.4,0C64.8,422.7,64.9,422.7,65.1,422.8"/>
	</g>
	<g id="path1406">
		<path inkscape:connector-curvature="0" fill="#FFFFFF" d="M65,423.2L65,423.2C65,423.1,65,423.1,65,423.2L65,423.2"/>
	</g>
	<g id="path1408">
		<path inkscape:connector-curvature="0" fill="#FFFFFF" d="M64.8,423.3L64.8,423.3L64.8,423.3"/>
	</g>
	<g id="path1410">
		<path inkscape:connector-curvature="0" d="M65.4,424.2c0.1,0,0,0.1,0.1,0.1c0-0.1,0.1-0.2,0.2-0.2s0.1,0,0.2,0v0.1
			c-0.1,0.1-0.4,0.1-0.4,0.3c-0.2,0-0.2-0.2-0.4-0.2c-0.1-0.1-0.1-0.2-0.1-0.3h0.1C65.2,424.1,65.2,424.2,65.4,424.2"/>
	</g>
	<g id="path1412">
		<path inkscape:connector-curvature="0" d="M65.9,424.7v0.1c0,0-0.2,0-0.1,0.1c-0.2,0-0.3,0.2-0.5,0c-0.1-0.1-0.2-0.3-0.3-0.2
			c-0.1,0-0.1,0-0.1-0.1c0.2-0.2,0.4-0.1,0.6-0.1C65.7,424.6,65.8,424.7,65.9,424.7"/>
	</g>
	<g id="path1414">
		<path inkscape:connector-curvature="0" fill="#FFD1D1" d="M65.6,424.8C65.6,424.8,65.5,424.9,65.6,424.8l-0.2-0.2
			C65.4,424.7,65.5,424.7,65.6,424.8"/>
	</g>
	<g id="path1416">
		<path inkscape:connector-curvature="0" fill="#FFE84F" d="M49.7,410l0.5,1.5h1.5l-1.2,0.9l0.4,1.5l-1.3-0.9l-1.3,0.9l0.4-1.5
			l-1.2-0.9H49L49.7,410"/>
	</g>
</g>
<path fill="#FFE84F" d="M52.8,23.2c-2.5-1.7-3-3.3-3-3.3s-1.6,2.2-3.3,3.5s-3.8,1.8-3.8,1.8s1,1.5,1.7,4s0.8,3.7,0.8,3.7l9.5-1.3
	c0,0,0.1-0.6,0.5-2.5c0.5-1.9,2-3.4,2-3.4S55.3,24.9,52.8,23.2z M52.3,29.1c-0.1,0.7-0.5,1.6-0.5,1.6s-0.4,0.1-0.8,0.1
	c-0.4,0-1.1-0.3-1.1-0.3l-2.5,0.6L47,27l1.4-1.1c0.9-0.8,1.6-1.2,1.6-1.2s0.5,0.7,1.5,1.4s1.7,1.3,1.7,1.3S52.4,28.3,52.3,29.1z"/>
<g>
	<path opacity="0.2" enable-background="new    " d="M10.4,74.3V25.8c0-12.1,8.2-22.7,19.8-25.8H0v100h30.2
		C18.5,96.9,10.4,86.3,10.4,74.3z"/>
	<path opacity="0.1" fill="#FFFFFF" enable-background="new    " d="M89.6,25.8v48.5c0,12.1-8.2,22.7-19.8,25.8H100V0H69.8
		C81.5,3.1,89.6,13.7,89.6,25.8z"/>
</g>
<g>
	<path fill="#FF163C" d="M57.4,32.6c-0.3-0.4-0.8-0.6-1.3-0.8c-0.1,0.1-0.5,0-1,0s-0.9,0-1.3,0.2c-0.3,0-0.5,0.1-0.8,0.1
		c0,0,0,0-0.1,0c-0.6,0.1-1.2,0.3-1.9,0.4c-0.2,0-0.3,0.1-0.5,0.2c-1.4,0.5-3,0.7-4.6,0.9h-0.1h-0.1c-0.7,0.1-1.4,0.3-2.1,0.2
		c0.2-0.3,0.3-0.6,0.3-0.9c0-0.2-0.1-0.3-0.2-0.4v0.1c-0.1,0.1-0.1-0.1-0.2-0.1h0.1l-0.1-0.1c0,0-0.1-0.1-0.1,0
		c-0.1,0-0.1-0.1-0.2-0.1c-0.5-0.1-1.4-0.1-1.8,0.4c-0.1,0.2-0.1,0.4-0.1,0.6c0.2,0.4,0.3,0.9,0.4,1.3c0.2,0.5,0.2,1.2,0.1,1.7v0.1
		c0,0.3,0,0.6-0.1,0.9c0.8,0.4,1.6,0.7,2.5,0.7c1.8,0.2,3.6-0.2,5.3-0.7c0.4-0.1,0.8-0.3,1.2-0.4c0.1,0,0.2-0.1,0.3-0.1
		s0.2-0.1,0.3-0.1h0.1c0.2-0.1,0.4-0.1,0.6-0.2c0.2-0.1,0.4-0.1,0.6-0.2h0.1l0,0c0.2,0,0.3-0.1,0.5-0.1c0.1,0,0.2,0,0.3-0.1
		c0.3-0.1,0.7-0.1,1-0.1c-0.3,0.4-0.6,1-0.8,1.4c0.4,0.2,0.8,0.3,1.2,0.3c0.3,0,0.6,0,0.9-0.1c0.2-0.1,0.4-0.3,0.4-0.6
		c0-0.1-0.1-0.2-0.1-0.4c0,0,0,0.1-0.1,0.1c0-0.4,0.1-0.7,0.3-1.1c0.1-0.2,0.2-0.5,0.3-0.7c0.5-0.4,0.9-1,1.1-1.6l0,0
		C57.8,32.9,57.6,32.7,57.4,32.6z"/>
	<g>
		<path fill="#FFFFFF" d="M53.6,35.3c-0.2-0.3-0.1-0.7-0.2-1c0-0.5-0.6-0.2-0.9-0.3v0.1c0.1,0.3,0.3,0.6,0.2,1
			c-0.1,0.1-0.2,0.1-0.3,0.1c-0.2,0-0.3-0.1-0.4-0.2c-0.1-0.4-0.4-1.1,0.1-1.5c0.2-0.1,0.4,0,0.6,0c0.2,0.1,0.3,0.4,0.5,0.3
			c0-0.3,0-0.6,0-0.9L53,32.7c-0.4,0.3-1.1,0-1.4,0.3l-0.2,0.1l-0.3,0.3c-0.2,0.5-0.3,1-0.1,1.5c0.1,0.3,0.4,0.5,0.6,0.6
			C52.1,36,53,35.7,53.6,35.3L53.6,35.3C53.5,35.3,53.6,35.3,53.6,35.3z"/>
		<path fill="#FFFFFF" d="M50.8,35.6c0-0.8-0.3-1.4-0.1-2.1c-0.5,0-0.9,0-1,0.3c0,0.2,0.2,0.1,0.2,0.2c0.1,0.5,0.2,1.1,0.3,1.6
			c0,0.3-0.1,0.5,0,0.7c0.3-0.1,0.6,0,0.9-0.2C51.3,35.9,50.8,35.8,50.8,35.6z"/>
		<path fill="#FFFFFF" d="M47,36.7c-0.2-0.6-0.3-1.4-0.3-2.1c0-0.1,0.2-0.2,0.1-0.3c-0.1,0-0.1,0-0.2-0.1c-0.4,0.2-0.8,0.1-1,0.4
			c0,0.2,0.1,0.1,0.2,0.2c0.2,0.7,0.2,1.3,0.3,2.1c0,0-0.1,0.1-0.1,0.2c0.1,0,0.1,0,0.2,0c0,0,0,0,0,0.1l0.8-0.1
			c0.1,0,0.2-0.1,0.2-0.2C47.3,36.7,47,36.8,47,36.7z"/>
		<path fill="#FFFFFF" d="M49.3,35.6c0.1-0.1,0.2-0.1,0.3-0.3c0.1-0.3,0.1-0.8-0.2-1.1c-0.6-0.5-1.5-0.2-2.2,0.1
			c-0.1,0.1-0.3,0-0.2,0.2h0.1c0.2,0.3,0.2,0.6,0.2,0.9c0.1,0.4,0.2,0.8,0.1,1.3c-0.1,0.2,0.1,0.2,0.2,0.3c0.3-0.1,0.7,0,0.7-0.3
			c-0.1-0.2,0-0.4-0.1-0.6c0-0.1-0.1-0.2,0-0.3c0.3,0.1,0.6,0.4,0.8,0.6c0,0,0,0,0.1,0l0,0c0.1,0,0.3,0.1,0.5,0s0.4-0.3,0.5-0.5
			C49.8,35.9,49.4,35.9,49.3,35.6z"/>
		<path fill="#FFFFFF" d="M56.2,33.1c-0.3-0.4-0.9-0.7-1.3-0.7c-0.4,0.1-0.8,0.3-1.1,0.6c-0.3,0.4-0.2,1.2,0,1.6
			c0.2,0.5,0.7,0.8,1.2,0.8s0.9-0.3,1.2-0.7C56.4,34.2,56.5,33.6,56.2,33.1z"/>
		<path fill="#FFFFFF" d="M45.4,35.2c-0.3-1-1.5-0.5-2.3-0.8v0.1c-0.1,0.1,0.1,0.2,0.1,0.2l0,0h-0.1l0.1,0.1
			c0.1,0.3,0.1,0.6,0.1,0.9c0,0.2,0,0.4,0,0.5c0,0.2,0,0.3,0,0.5c0,0.1-0.1,0.2-0.2,0.2c0.1,0,0,0.1,0.1,0.1h0.1c0,0,0,0,0,0.1
			c0.6,0.2,1.1,0,1.6,0c0,0,0,0,0.1-0.1c0.1,0,0.3-0.1,0.3-0.2C45.5,36.3,45.7,35.8,45.4,35.2z"/>
	</g>
	<g>
		<path fill="#FF163C" d="M43.2,32.3c-0.5-0.1-1.1,0.1-1.5,0.4c-0.1,0.3-0.1,0.5,0,0.8c0.1,0.1,0.3,0.2,0.4,0.2
			c0.1-0.2,0.2-0.4,0.4-0.6c0.5,0.3,1.1,0.1,1.5-0.1l-0.1-0.2C43.7,32.6,43.5,32.5,43.2,32.3z"/>
		<path fill="#FF163C" d="M55,34.8c0.5-0.3,0.4-0.9,0.3-1.4L55,33c-0.2,0-0.4,0.1-0.5,0.2c-0.2,0.6-0.1,1.2,0.2,1.6
			C54.8,34.9,54.9,34.8,55,34.8z"/>
		<path fill="#FF163C" d="M42.5,33.2c-0.2,0.1-0.2,0.4-0.3,0.6c0.4,0.1,0.9,0.1,1.3,0.1c0.2-0.2,0.3-0.5,0.3-0.8
			C43.4,33.3,42.9,33.4,42.5,33.2z"/>
		<path fill="#FF163C" d="M44.1,35.1c-0.1,0.5,0,1.1,0,1.6h0.4c0.2-0.1,0.3-0.3,0.4-0.5s0.1-0.6-0.1-0.8
			C44.6,35.1,44.3,35.2,44.1,35.1z"/>
		<path fill="#FF163C" d="M54.9,36.2c-0.3,0.2-0.3,0.6-0.5,0.9c0.1-0.1,0.2-0.2,0.4-0.3c0.3-0.1,0.6,0,0.8,0.3
			c0.2-0.2,0.3-0.4,0.4-0.6C55.7,36.2,55.3,36.2,54.9,36.2z"/>
		<path fill="#FF163C" d="M48.1,34.6c0,0.3,0.1,0.5,0.1,0.7c0.1,0,0.2-0.1,0.3-0.1c0.2-0.1,0.3-0.3,0.2-0.5
			C48.6,34.4,48.3,34.6,48.1,34.6z"/>
	</g>
</g>
<path fill="#36E218" d="M48.7,58.1C48.7,58.1,48.7,58.1,48.7,58.1l-0.1-0.6l-3.1-0.2c-0.1,0-1.2-0.4-1.3-0.4c-0.1,0-0.7-0.9-0.7-0.9
	s-0.1-0.8,0-0.9c0.2,0.1,0.3-0.2,0.5-0.2c0-0.1-0.1-0.5-0.1-0.5c-0.1,0-0.5-0.6-0.5-0.7c0.1-0.2-0.1-0.5-0.1-0.6
	c0-0.1-0.6-0.2-0.6-0.2l-0.2-0.1c0.1-0.1,0.2-0.1,0.3-0.2c0.3-0.1,0.7,0,0.9,0.1c-0.1-0.2-0.4-0.3-0.3-0.5h-0.1
	c-0.1,0-0.1,0.1-0.1,0c0.1-0.1,0.1-0.1,0.1-0.1V52c0.1,0,0.2,0.1,0.3,0.2c0.1-0.1,0.2-0.2,0.3-0.2l-0.1-0.2c0-0.1-0.1-0.2,0-0.3
	c-0.2,0.1-0.1-0.3-0.3-0.1v-0.1c0-0.1,0.1-0.1,0.2-0.1c0.2,0,0.2,0.2,0.2,0.3c0.1,0,0.1,0,0.1,0c0-0.1-0.2-0.3-0.2-0.4
	c0.2-0.1,0-0.2-0.1-0.3c0,0.1,0,0.1,0.1,0.2c0,0.2-0.1,0.2-0.3,0.2c-0.3-0.1-0.2-0.4-0.4-0.6c-0.1,0.1-0.2,0.2-0.3,0.2
	c-0.2-0.2-0.2-0.5-0.3-0.7c-0.1,0.1-0.2,0.3-0.3,0.3l-0.1-0.1v-0.2C42,50,42,49.8,41.3,49.7c-0.1,0.1-0.1,0.5-0.3,0.5
	c0,0.1,0,0.2,0,0.3c0,0,0.2,0.1,0.2,0s0-0.2,0-0.2c0.1-0.1,0.1-0.2,0.2-0.2c0.1,0.1,0.1,0.2,0.1,0.3h-0.1c-0.1,0.2,0.1,0.2,0.2,0.3
	c0.1,0,0.2-0.1,0.2-0.1l-0.1-0.1c0-0.1-0.1,0-0.1-0.1h0.1c0.1,0,0.2,0,0.3,0.1c-0.1,0.1,0,0.1,0,0.2c0,0.1,0,0.1,0,0.1
	c0,0.1,0,0.1-0.1,0.2c0,0,0,0,0,0.1c0,0.1-0.1,0.1-0.1,0.2v0.1l-0.1-0.1c0-0.1-0.1-0.1-0.1-0.2c-0.1,0-0.1,0-0.1,0
	c0,0.1-0.1,0.4-0.1,0.5c0.1,0.1,0.2,0.1,0.3,0.1v0.1c-0.1,0.1-0.2,0-0.3-0.1c-0.1-0.1-0.1,0-0.2,0L41,51.6c-0.1,0.2-0.2,0.2-0.3,0.3
	l0.1,0.1c0.2-0.1,0.3,0.1,0.5,0.1l-0.1,0.1c-0.2,0-0.3,0-0.5,0.1c-0.1,0.1-0.1,0.1,0,0.2c0,0.1-0.1,0.2-0.2,0.2c0-0.1,0-0.1,0-0.2
	h-0.2c0,0.1-0.1,0.2-0.1,0.2c0.3,0.1,0.8,0.2,0.9,0.6c0.1-0.1,0.1-0.2,0.1-0.2s0-0.1,0.1-0.1c0.1,0,0.1,0,0.1,0.1
	c0,0.1,0.1,0.2,0.1,0.3c0,0.1,0,0.3,0,0.3v0.2c0,0.1-0.1,0.2,0,0.3l0.1,0.6l-0.1,0.5l-0.2,0.5V56l-0.1,0.4l-0.4,0.2h-0.1v0.1
	c0,0-0.1-0.1-0.2-0.1c0,0.1,0.1,0.1,0.1,0.1s0.1,0.2,0.2,0.3c0,0.1,0,0.4-0.1,0.4c0,0,0,0.2,0,0.3c-0.2,0.1-0.2,0.3-0.2,0.4h0.1
	c0,0.1-0.1,0.1-0.1,0.1c-0.1,0-0.2-0.1-0.3,0c-0.2,0.3-0.3,0.6-0.5,0.8c-0.1,0-0.1-0.1-0.1-0.1c-0.2,0-0.2,0.3-0.3,0.4
	c0,0,0,0.6-0.1,0.7c0.2-0.1,0.4-0.2,0.6-0.2c0,0,0.1,0,0.2,0.1c0.2,0.1,0.4,0.1,0.5,0.3l0.1-0.2h0.1c0,0,0,0,0-0.1
	c0,0,0.2,0.1,0.4,0.1c0,0,0.1,0,0.2,0.1c0,0,0,0,0.1,0c0.1,0,1.4,0,1.4,0s0.1,0,0.1,0.1c0.1,0,0.5,0,0.5,0c0.2,0,0.5-0.2,0.5-0.2
	c0.1,0,0.3,0.1,0.5,0.1c0.3,0.1,0.7,0.1,1-0.2c-0.4-0.1-1.7-0.7-1.9-0.8c0,0,0.3-0.6,0.4-0.7H44c0.2,0.2,0.4,0.2,0.6,0.3
	c0.4,0,0.7,0.3,1.1,0.3c0,0,0.5-0.1,0.6-0.1c0,0,0.3,0,0.3,0.2l0.5,0.1c0.2,0,0.3-0.1,0.5-0.3c0-0.1,0.1,0,0.2,0.1
	c0.3-0.1,0.5-0.4,0.8-0.6C48.8,58.3,48.7,58.2,48.7,58.1z"/>
<path fill="#36E218" d="M58.7,58.2l-0.4-0.4c0-0.1-0.1-0.1-0.1-0.2l0,0c-0.1-0.2-0.2-0.4-0.2-0.5c0-0.1-0.1-0.3-0.2-0.5
	c0-0.1,0.1-0.1,0.1-0.2c-0.3,0-0.6-0.4-0.8-0.7c0,0,0,0,0,0c0,0,0-0.8,0-0.8s0.1-0.7,0.1-0.8c0.2-0.2,0.4-0.5,0.7-0.5
	c0,0,0.2-0.1,0.2-0.2c0,0,0.1-0.1,0.2-0.3c-0.2,0.1-0.3,0.2-0.5,0.2c-0.4-0.2,0-0.5,0-0.8c0-0.1-0.1-0.1-0.2-0.2c0,0,0,0,0,0
	c0,0-0.1,0.1-0.1,0.1s-0.1,0.3-0.1,0.4c0,0.1-0.1,0.1-0.1,0.2c-0.1-0.1-0.2,0-0.4,0.1c-0.1,0-0.1-0.1-0.1-0.1s0-0.1,0-0.2
	c0.1-0.2,0.1-0.4,0.2-0.6c0,0,0.1-0.1,0.1-0.2c0.2,0,0.3-0.4,0.4-0.4c0-0.1-0.1-0.3-0.2-0.4h-0.1c-0.2-0.2-0.7-0.2-0.7-0.2
	c-0.2-0.1-0.2-0.3-0.3-0.4c-0.1,0.2-0.3,0.2-0.5,0.2c-0.1-0.1-0.1-0.2-0.1-0.4c-0.1,0.1-0.1,0.3-0.1,0.4c-0.1,0.3,0,1.1-0.1,1.1
	c0,0-0.2,0.5-0.2,0.6c0,0,0,0.4,0,0.4c0,0.1,0,0.3,0,0.3v0.4c0.1,0,0.1,0.1,0.1,0.2c0.1-0.1,0.2,0.1,0.3,0.1
	c0.1,0.1,0.8,0.1,0.8,0.1c0,0.1,0.1,0.2,0.1,0.2c0,0.1-0.1,0.6-0.2,0.8c-0.2,0-0.4,0.1-0.4,0.3c-0.3,0.2-0.2,0.5-0.2,0.8
	c0,0.1,0,0.2,0,0.2c-0.1,0.1-0.2,0.1-0.3,0.1c-0.1,0.1-0.3,0.1-0.4,0.1c0,0,0,0,0,0c-0.1,0-1.1,0.7-1.1,0.7s-0.4,0-0.9,0
	c0,0,0,0,0,0l0,0c-1.2,0.1-3,0.2-3.1,0.2c0,0,0,0.1,0,0.2c-0.1-0.1-0.1-0.1,0-0.2h-0.2c-0.1,0.1,0,0.2,0,0.3c0,0.2,0,0.4-0.1,0.5
	l0.3-0.1c0.2,0.1,0.1,0.2,0.1,0.3h0.2c0,0.1-0.1,0.2-0.2,0.3c0,0,0,0-0.1,0l-0.1,0.2c0,0.3,0.1,0.5,0.1,0.8c0.1-0.1,0.4-0.1,0.5-0.1
	l0.7,0.1l0.8,0.2l1.2-0.2c0,0,0.8,0,1.5-0.1c0,0.1,0,0.1,0,0.1l0.1-0.1c0.1-0.1,0.1,0,0.1,0l0.1-0.1c0,0,0.1,0,0.1,0
	c0,0,0.1,0.1,0.1,0.2l0.1-0.2c0.2,0,0.3,0,0.4,0l0,0c0,0,0,0,0,0c0.1,0,0.1,0,0.2,0c0,0,0,0,0,0l0.1-0.1c0,0,0.1,0,0.2,0
	c0,0.1-0.1,0.2-0.2,0.2c0.2,0,0.4,0.1,0.6,0.1V60c-0.1,0,0-0.1,0-0.1c0.1,0,0.1,0,0.1,0.1c0.1,0,0.1-0.1,0.1-0.2
	c0.1,0,0.3,0,0.4,0.1c0,0,0,0,0,0c0,0,0,0,0,0c0.2,0,0.3,0.1,0.4,0.1c0,0,0,0,0,0.1c0.3,0.1,0.7-0.1,0.9,0.2
	c0.1-0.1,0.3-0.2,0.4-0.3c0.1,0,0.3,0,0.3-0.1C58.6,59.3,58.5,58.8,58.7,58.2z M56.1,60c-0.1-0.1-0.1-0.2-0.1-0.2c0.1,0,0.1,0,0.2,0
	C56.1,59.8,56.1,59.9,56.1,60z"/>
<path fill="#36E218" d="M58.7,58.2l-0.4-0.4c0-0.1-0.1-0.1-0.1-0.2l0,0c-0.1-0.2-0.2-0.4-0.2-0.5c0-0.1-0.1-0.3-0.2-0.5
	c0-0.1,0.1-0.1,0.1-0.2c-0.3,0-0.6-0.4-0.8-0.7c0,0,0,0,0,0c0,0,0-0.8,0-0.8s0.1-0.7,0.1-0.8c0.2-0.2,0.4-0.5,0.7-0.5
	c0,0,0.2-0.1,0.2-0.2c0,0,0.1-0.1,0.2-0.3c-0.2,0.1-0.3,0.2-0.5,0.2c-0.4-0.2,0-0.5,0-0.8c0-0.1-0.1-0.1-0.2-0.2c0,0,0,0,0,0
	c0,0-0.1,0.1-0.1,0.1s-0.1,0.3-0.1,0.4c0,0.1-0.1,0.1-0.1,0.2c-0.1-0.1-0.2,0-0.4,0.1c-0.1,0-0.1-0.1-0.1-0.1s0-0.1,0-0.2
	c0.1-0.2,0.1-0.4,0.2-0.6c0,0,0.1-0.1,0.1-0.2c0.2,0,0.3-0.4,0.4-0.4c0-0.1-0.1-0.3-0.2-0.4h-0.1c-0.2-0.2-0.7-0.2-0.7-0.2
	c-0.2-0.1-0.2-0.3-0.3-0.4c-0.1,0.2-0.3,0.2-0.5,0.2c-0.1-0.1-0.1-0.2-0.1-0.4c-0.1,0.1-0.1,0.3-0.1,0.4c-0.1,0.3,0,1.1-0.1,1.1
	c0,0-0.2,0.5-0.2,0.6c0,0,0,0.4,0,0.4c0,0.1,0,0.3,0,0.3v0.4c0.1,0,0.1,0.1,0.1,0.2c0.1-0.1,0.2,0.1,0.3,0.1
	c0.1,0.1,0.8,0.1,0.8,0.1c0,0.1,0.1,0.2,0.1,0.2c0,0.1-0.1,0.6-0.2,0.8c-0.2,0-0.4,0.1-0.4,0.3c-0.3,0.2-0.2,0.5-0.2,0.8
	c0,0.1,0,0.2,0,0.2c-0.1,0.1-0.2,0.1-0.3,0.1c-0.1,0.1-0.3,0.1-0.4,0.1c0,0,0,0,0,0c-0.1,0-1.1,0.7-1.1,0.7s-0.4,0-0.9,0
	c0,0,0,0,0,0l0,0c-1.2,0.1-3,0.2-3.1,0.2c0,0,0,0.1,0,0.2c-0.1-0.1-0.1-0.1,0-0.2h-0.2c-0.1,0.1,0,0.2,0,0.3c0,0.2,0,0.4-0.1,0.5
	l0.3-0.1c0.2,0.1,0.1,0.2,0.1,0.3h0.2c0,0.1-0.1,0.2-0.2,0.3c0,0,0,0-0.1,0l-0.1,0.2c0,0.3,0.1,0.5,0.1,0.8c0.1-0.1,0.4-0.1,0.5-0.1
	l0.7,0.1l0.8,0.2l1.2-0.2c0,0,0.8,0,1.5-0.1c0,0.1,0,0.1,0,0.1l0.1-0.1c0.1-0.1,0.1,0,0.1,0l0.1-0.1c0,0,0.1,0,0.1,0
	c0,0,0.1,0.1,0.1,0.2l0.1-0.2c0.2,0,0.3,0,0.4,0l0,0c0,0,0,0,0,0c0.1,0,0.1,0,0.2,0c0,0,0,0,0,0l0.1-0.1c0,0,0.1,0,0.2,0
	c0,0.1-0.1,0.2-0.2,0.2c0.2,0,0.4,0.1,0.6,0.1V60c-0.1,0,0-0.1,0-0.1c0.1,0,0.1,0,0.1,0.1c0.1,0,0.1-0.1,0.1-0.2
	c0.1,0,0.3,0,0.4,0.1c0,0,0,0,0,0c0,0,0,0,0,0c0.2,0,0.3,0.1,0.4,0.1c0,0,0,0,0,0.1c0.3,0.1,0.7-0.1,0.9,0.2
	c0.1-0.1,0.3-0.2,0.4-0.3c0.1,0,0.3,0,0.3-0.1C58.6,59.3,58.5,58.8,58.7,58.2z M56.1,60c-0.1-0.1-0.1-0.2-0.1-0.2c0.1,0,0.1,0,0.2,0
	C56.1,59.8,56.1,59.9,56.1,60z"/>
</svg>
