<?xml version="1.0" encoding="utf-8"?>
<!-- Generator: Adobe Illustrator 23.0.0, SVG Export Plug-In . SVG Version: 6.00 Build 0)  -->
<svg version="1.0"
	 id="svg2" inkscape:version="0.92.3 (2405546, 2018-03-11)" sodipodi:docname="Flag_of_Missouri.svg" xmlns:cc="http://creativecommons.org/ns#" xmlns:dc="http://purl.org/dc/elements/1.1/" xmlns:inkscape="http://www.inkscape.org/namespaces/inkscape" xmlns:rdf="http://www.w3.org/1999/02/22-rdf-syntax-ns#" xmlns:sodipodi="http://sodipodi.sourceforge.net/DTD/sodipodi-0.dtd" xmlns:svg="http://www.w3.org/2000/svg"
	 xmlns="http://www.w3.org/2000/svg" xmlns:xlink="http://www.w3.org/1999/xlink" x="0px" y="0px" viewBox="0 0 100 100"
	 style="enable-background:new 0 0 100 100;" xml:space="preserve">
<style type="text/css">
	.st0{fill:#AB0635;}
	.st1{fill:#FFFFFF;}
	.st2{fill:#004B8D;}
	.st3{fill-rule:evenodd;clip-rule:evenodd;fill:#004B8D;}
	.st4{fill:#0083A9;}
	.st5{fill:#C3A204;}
	.st6{fill:#CE1126;}
	.st7{fill:#9A4A23;}
	.st8{fill:#228A43;}
	.st9{opacity:0.2;enable-background:new    ;}
	.st10{opacity:0.1;fill:#FFFFFF;enable-background:new    ;}
</style>
<sodipodi:namedview  bordercolor="#666666" borderopacity="1" gridtolerance="10" guidetolerance="10" id="namedview2045" inkscape:current-layer="g5837" inkscape:cx="1200" inkscape:cy="700" inkscape:pageopacity="0" inkscape:pageshadow="2" inkscape:window-height="1017" inkscape:window-maximized="1" inkscape:window-width="1920" inkscape:window-x="-8" inkscape:window-y="-8" inkscape:zoom="0.58916667" objecttolerance="10" pagecolor="#ffffff" showgrid="false">
	</sodipodi:namedview>
<g id="g5837" transform="matrix(10.084034,0,0,10,0,-3600)">
	<g id="path82">
		<path inkscape:connector-curvature="0" class="st0" d="M0,370h9.9v-10H0V370z"/>
	</g>
	<g id="path86">
		<path inkscape:connector-curvature="0" class="st1" d="M0,370h9.9v-6.7H0V370z"/>
	</g>
	<g id="path84">
		<path class="st2" d="M0,370h9.9v-3.3H0V370z"/>
	</g>
</g>
<g id="path282">
	<path class="st1" d="M32.6,58.8L32.6,58.8L32.6,58.8"/>
</g>
<g id="path4229">
	<path class="st3" d="M77.6,42.6c4.1,15.2-5,30.9-20.2,35s-30.9-5-35-20.2l0,0c-4.1-15.2,5-30.9,20.2-35S73.5,27.4,77.6,42.6
		L77.6,42.6z"/>
</g>
<g id="path306">
	<path class="st1" d="M63.9,36.5c-0.2,0.1-0.4,0.2-0.6,0.3c-1.4,0.6-3.1,0.2-4.5,0.7c-0.1-0.3-0.4-0.6-0.7-0.7H58l0,0
		c-0.1,0-0.2,0-0.4,0c-0.1,0.3,0.2,0.5,0.1,0.7c-0.8,0.6-1.8,0.6-2.7,0.6c0.6-0.2,1.2-0.4,1.6-0.9c0-0.1,0-0.1-0.1-0.2
		c-1.3,0.4-2.7,0.6-4,0.8c-0.5-0.2-1-0.3-1.3-0.5c-0.4-0.2-0.6-0.5-0.6-0.5S50.4,37,50,37.2c-0.3,0.2-0.7,0.3-1.2,0.4
		c-0.7-0.3-1.5-0.3-2.1-0.6c-0.5-0.2-1.1-0.4-1.6-0.5h-0.3c0,0.5,0.7,0.7,1,1c0.1,0,0.2,0.1,0.3,0.2c-0.6,0-1.3-0.2-1.9-0.4
		c-0.2-0.1-0.4-0.2-0.5-0.4c-0.2-0.3,0.3-0.6-0.1-0.8c-0.2,0.1-0.4,0-0.6,0.2c-0.2,0.2-0.3,0.3-0.4,0.5c-0.7-0.5-1.6-0.5-2.4-0.6
		c-0.6,0-1.2-0.1-1.7-0.2c-0.4-0.4-1-0.6-1.3-1c-0.2,0.3,0.1,0.7,0.2,1c0.2,0.3,0.6,0.4,0.9,0.7c-0.7,0.3-1.6,0.5-2.4,0.9
		c-0.5,0-0.8,0.3-1.3,0.3c0,0.1,0,0.3,0.2,0.3l0,0c0.3,0.1,0.6,0,0.8,0.1h0.7c-0.6,0.4-1,0.8-1.6,1c0,0.1,0,0.1,0.1,0.2
		c1.8,0.2,2.9-1.2,4.3-1.7c0.7-0.3,1.6-0.4,2.4-0.1c0.7,0.2,1.5,0.2,2.1,0.6c-0.2,0.2-0.4,0.4-0.3,0.7c0,0.2,0.2,0.1,0.3,0
		c0.3-0.1,0.6-0.1,0.9-0.1c0.7,0,0.9-0.1,1.5,0c-0.4,0.6-0.9,1.3-0.5,2c0.2,0.1,0.2,0.3,0.4,0.3c0.3-0.5,0.2-1.1,0.6-1.6
		c0.3-0.4,0.8-0.6,1.2-0.6h0.2c0.1,0.6,0.4,1.2,0.8,1.7c0.3,0.2,0.7,0.3,0.8,0.6c0,0.5-0.5,0.4-0.8,0.5c-0.5,0.1-1.2,0.1-1.4,0.6
		c-1,0.3-2,0.6-3,1.1c-0.3-0.1-0.4,0.1-0.6-0.2c-0.4,0.3-0.9,0.3-1.4,0.4c-0.5-0.1-0.6-0.4-1-0.8c0.3-0.2,0.3-0.6,1-0.5l0,0
		c0.4-0.1,0.6-0.6,0.7-0.8c0-0.1-0.4-0.3-0.3-1c0.2-0.7-0.7-1.1-0.4-1.9c0-0.2-0.2-0.4-0.3-0.4c-0.2,0.1-0.5,0.1-0.5,0.4
		c-0.3,0-0.7-0.1-0.9,0.2c-0.3-0.1-0.6-0.2-0.9-0.4c-0.2,0-0.3,0.1-0.5,0.1c0,0.1,0,0.3,0,0.4c0,0-1.4,0.6-1.2,1.4
		c-1.4,0.5-2.8,1.8-2.9,3.3c-0.5,0.6-1,1.3-0.9,2.1l-0.9,1.3c-0.2,0.9-0.4,1.7-1,2.4c-0.3,0.8-0.6,1.9-0.2,2.7c-0.1,0.2,0,0.5,0,0.7
		c0.2,0,0.3,0.1,0.3,0.2c0,0.3-0.1,0.6,0.1,0.8c0.1,0,0.2,0.1,0.3,0.1c0,0.2,0,0.6,0.2,0.6c0.3,0,0,0.4,0.3,0.5s0.2,0.5,0.5,0.7
		c0.1,0.6-0.4,0.9-0.6,1.4c0,0.4-0.5,0.9-0.1,1.3c0,0,0.1,0,0.2,0l0,0c-0.4,0-1-0.2-1.4-0.3l0,0l0.1,0.1l-0.1,0.1
		c0.6,0.5,0.6,1.3,0.7,2.1c0.1,0.1,0.3,0.1,0.4,0.2c0.5,0.2,1.1,0.4,1.6,0.5c0.3,0.4,0.3,0.9,0.4,1.3c0.1,0.6,0.3,1.3,0.9,1.5
		c0.1,0.1,0.4,0,0.5,0.1l0,0c0.3,0.2,0.6,0.3,0.9,0.6c0.2-0.2,0.2-0.5,0.2-0.8C38,64.2,38,64.1,38,64c0.5,0.4,0.7,1,1.2,1.2
		c0.3-0.5-0.1-0.9-0.3-1.3c-0.3-0.2-0.7-0.4-1-0.4c-0.2-0.2-0.6-0.2-0.8-0.5c-0.1-0.4-0.2-0.7-0.3-1.1c1.1,0.1,1.7-0.1,2.6,0.1
		c-0.2,0.1-0.4,0.2-0.5,0.4c-0.3,0.9,0.7,1.6,1.2,2.2c0.5,0.4,1,0.9,1.6,1.1c0.4,0.3,0.8,0.4,1.2,0.6c1.7,0.6,3.4,1.3,5.3,1.5
		c2.1,0.4,4.5,0.1,6.7-0.4c1.7-0.6,3.6-1.2,5-2.5c0.2-0.4,0.6-0.9,0.2-1.3c-0.1-0.1,0-0.2,0-0.4c0.9-0.3,1.7-0.3,2.7-0.4
		c0.3,0.1,0.5,0,0.9,0h0.1c-0.4,0.4-0.5,1-1,1.2c-0.7,0.5-1.9,0.4-1.9,1.5c0,0.2-0.1,0.4-0.2,0.6c0,0.1,0.1,0.1,0.2,0.1
		c0.3-0.2,0.5-0.7,0.8-0.9c0.1-0.1,0-0.1,0.1-0.2c0,0.1,0.1,0,0.1,0c0.1,0.1-0.1,0.2-0.1,0.3c-0.1,0.2-0.3,0.4-0.2,0.6
		c0,0.2-0.2,0.4-0.1,0.6c0,0,0,0,0.1,0c0.1-0.1,0.2-0.2,0.2-0.4c0,0,2.7-1.6,3.1-2.2c0.2-0.3,0.4-0.6,0.5-0.9l0.1-0.3
		c0.1,0,0.2,0,0.4-0.1c0.5,0,0.8-0.3,1.3-0.3c-0.5,0.8-2,2.4-2,2.4c-4,3.9-8.8,6.3-15,6.2c-2.9,0-8.2-0.6-14.4-5.7
		c-2.1-1.8-4.3-5.6-5-6.9c-1-2.7-1.8-5.5-1.8-8.7c0-2,0.5-4,0.9-5.8c0.5-1.9,2.3-5.2,2.3-5.2c0.6-1.3,3.5-4.4,3.7-4.6
		c2.1-1.8,4.5-3.2,7-4.2c1.6-0.5,4.5-1.2,7.3-1.1s4.5,0.6,4.5,0.6c1.9,0.4,3.1,0.9,4.8,1.7c1.2,0.6,2.8,1.5,4.2,2.8
		c1.4,1,2.3,2.3,3.4,3.7s2.7,4.6,3.1,5.9c1.5,4.2,1.4,9.3-0.2,13.7c-0.6,1.4-1.1,2.8-1.9,4.1c-0.2,0.2-0.2,0.4-0.3,0.5
		c-0.3-0.7,0.6-1.2,0.3-1.8c0.1-0.1,0.1-0.1,0.2,0c0.2-0.1,0.5-0.4,0.6-0.7c0.3-0.6-0.5-0.6-0.7-1c-1.1-1.3,0.4-2.7,0.7-4
		c0.5-1,0.7-2.4,0.1-3.3c-0.2-0.6-0.4-1.1-0.9-1.5c-0.6-1-1-2-1.2-3.1c-0.3-1.2-0.7-2.4-1.5-3.4c0.1-0.7-0.7-1.1-1.2-1.6
		c-0.3-0.2-0.6-0.5-0.7-0.8c0-0.3,0.1-0.7-0.2-0.9c-0.2-0.2-0.4-0.2-0.6-0.2c-0.2,0.6-0.8,0-1.2,0s-0.9,0.1-1.2-0.3
		c-0.2-0.1-0.4,0-0.4,0.2c-0.1,0.5-0.2,1.1-0.6,1.5c-0.2,0.7,0.2,1.5-0.4,2c-0.2,0.4,0.1,0.7,0.4,1c0.7,0.2,1.4-0.2,2,0.4
		c-0.1,0.5-0.2,1.1-0.7,1.4c-1,0.2-1.6-0.7-2.4-0.9c-0.3-0.1-0.6-0.2-0.8-0.4c0,0-0.5-0.1-0.8-0.1h-0.1c-0.9-0.7-1.7-0.8-2.4-1.1
		c-0.3-0.7-0.8-0.9-1.4-1.1c-0.4-0.1-1-0.2-1.1-0.4c0-0.5,1-0.4,1.3-1.1c0.3-0.2,0.6-0.6,0.6-1.1c0.6,0.1,1.3,0.2,1.6,0.8
		c0.1,0.5,0.2,0.8,0,1.3c0,0.1,0,0.2,0.2,0.2s0.4-0.1,0.5-0.3c0.2-0.5,0.3-1.5-0.2-1.9l0,0c0.8-0.1,1.7,0,2.6,0.2
		c0.1,0,0.2-0.1,0.1-0.2L57.5,39c1.4-0.4,3-0.6,4.4-0.4c0.1,0,0.4,0.3,0.5,0.1c0.8,0.4,1.5,1,2.1,1.6c0.4,0.1,0.7,0.4,1.1,0.3l0,0
		c0.2,0.1,0.6,0,0.8-0.2c0-0.3-0.3-0.1-0.5-0.3c-0.6-0.5-1.2-0.9-1.7-1.4c1,0.3,1.9,0.8,3,0.6c0.1-0.1,0-0.2-0.1-0.2
		c-1.2-0.4-2.1-1.5-3.3-1.6c0.1-0.3,0.4-0.8,0.6-1.1L63.9,36.5"/>
</g>
<g id="path288">
	<path d="M45,62.5L45,62.5L45,62.5L45,62.5"/>
</g>
<g id="path269">
	<path class="st4" d="M49.9,37.7c1.2,0.1,1.2-0.9,1.6-0.9s0.7,0.9,1.4,0.7c0.9-0.2,0.8-1,1.4-1c0.4,0,0.5,0.5,1.1,0.6
		c0.6,0,0.8-0.6,1.2-0.6c0.3,0,0.5,0.2,1.1,0.8c0.4,0.3,0.9,0.3,1.6-0.4c0.4-0.4,0.9-0.2,1.1,0.1s0.3,0.8,0.8,1
		c0.4,0.1,0.7-0.2,1.1-0.3c0.4-0.1,1.1,0.8,1.6,0.4c0.3-0.3,0.6-0.6,0.2-1.2L64,36.7c-3.5-3.7-8.5-6.1-14.1-6.1s-10.6,2.3-14.1,6.1
		l-0.1,0.1c-0.4,0.6-0.2,0.9,0.2,1.2c0.5,0.4,1.2-0.5,1.6-0.4c0.4,0.1,0.8,0.5,1.1,0.3c0.5-0.2,0.6-0.6,0.8-1
		c0.2-0.3,0.7-0.5,1.1-0.1c0.7,0.6,1.2,0.6,1.6,0.4c0.7-0.6,0.8-0.8,1.1-0.8c0.4,0,0.5,0.7,1.2,0.6c0.6,0,0.8-0.6,1.1-0.6
		c0.5,0,0.5,0.8,1.4,1c0.8,0.2,1-0.7,1.4-0.7C48.8,36.8,48.8,37.8,49.9,37.7L49.9,37.7"/>
</g>
<g id="path301">
	<path class="st5" d="M41.6,62.9c0,0,4,2.6,8.3,2.6s8-2.2,8-2.2s1.2,1,1.2,1.4c0,0-2.9,2.9-9.3,2.9c-6.4-0.1-9.4-3.3-9.4-3.3
		L41.6,62.9"/>
</g>
<g id="path302">
	<path d="M50,67.7c-0.1,0-0.2,0-0.2,0c-3.3,0-5.7-0.9-7.2-1.7c-1.6-0.8-2.3-1.6-2.4-1.6l-0.1-0.1l1.4-1.5l0.1,0.1c0,0,4,2.5,8.2,2.5
		s7.9-2.1,7.9-2.1h0.1l0.1,0.1c0.2,0.2,1.2,1.1,1.2,1.5l0,0l0,0c0,0-0.8,0.8-2.3,1.5C55.5,67,53.2,67.7,50,67.7z M40.5,64.3
		c0.5,0.5,3.6,3.1,9.3,3.2c5.9,0.1,8.8-2.5,9.2-2.8c0-0.3-0.6-0.8-1.1-1.2c-0.5,0.3-4,2.1-8,2.1s-7.7-2.2-8.3-2.5L40.5,64.3z"/>
</g>
<g id="path316">
	<path class="st5" d="M58.1,66c0,0,0.7-0.3,1.1-1c0.4-0.7,1.3-1.8,1.8-2h-0.1c0,0,1.9,0,2.8,0.3c0.9,0.4-0.1,0.4-0.3,0.5
		c-0.2,0-0.9,0-1.4,0.3c-0.4,0.3-2.1,3-3.1,3c0,0,0.1-0.2,0.2-0.4c0.1-0.2,0.1-1,0.5-1.3C59.7,65.6,59.1,66.1,58.1,66"/>
</g>
<g id="path317">
	<path d="M58.7,67.4l0.1-0.2c0,0,0.1-0.2,0.2-0.4c0,0,0-0.1,0.1-0.2c0-0.2,0.1-0.4,0.2-0.6c-0.3,0.1-0.7,0.2-1.2,0.2V66
		c0,0,0.6-0.3,1-0.9c0.3-0.6,1.2-1.8,1.8-2l0,0c0.1,0,1.9,0,2.8,0.3c0.2,0.1,0.4,0.2,0.4,0.4s-0.3,0.2-0.6,0.3c-0.1,0-0.1,0-0.1,0
		c-0.1,0-0.1,0-0.3,0c-0.3,0-0.8,0.1-1.1,0.3c-0.1,0.1-0.4,0.4-0.7,0.8c-0.7,0.9-1.7,2.2-2.5,2.2H58.7z M59.7,65.7
		c-0.2,0.2-0.3,0.6-0.4,0.9c0,0.1,0,0.2-0.1,0.3c0,0.1-0.1,0.1-0.1,0.2c0.6-0.2,1.5-1.3,2.1-2.1c0.3-0.5,0.6-0.8,0.8-0.9
		c0.4-0.2,0.9-0.3,1.2-0.3c0.1,0,0.2,0,0.2,0h0.1c0.1,0,0.3-0.1,0.4-0.1c0,0-0.1-0.1-0.3-0.2c-0.7-0.3-2.2-0.3-2.6-0.3
		c-0.5,0.1-1.3,1.2-1.7,1.9c-0.2,0.4-0.5,0.6-0.8,0.8C59,65.9,59.4,65.7,59.7,65.7c-0.1-0.1,0-0.1,0-0.2V65.7L59.7,65.7z"/>
</g>
<g id="path318">
	<path class="st5" d="M56.8,63.1c0,0,0.2-1.6,3.4-2.1c2.4-0.4,4.1,0.5,4.2,0.7c0.1,0.1,0.2,0.7,0.1,1s-0.2,0.9-0.5,1
		c0,0,0-0.2-0.5-0.3c-0.7-0.2-1.6-0.4-2.7-0.3c-1.3,0.1-2.4,0.2-2.9,1.2c-0.2,0.4-0.1,0.5-0.1,0.5S57.2,64.3,57,64
		C56.8,63.5,56.8,63.1,56.8,63.1"/>
</g>
<g id="path319">
	<path d="M57.8,64.9L57.8,64.9c-0.1-0.1-0.6-0.5-0.8-0.8c-0.3-0.5-0.3-0.9-0.3-0.9h0.1h-0.1c0-0.1,0.3-1.7,3.5-2.2
		c2.5-0.4,4.2,0.5,4.3,0.7s0.2,0.8,0.1,1.1c0,0.1,0,0.2-0.1,0.2c-0.1,0.3-0.2,0.7-0.5,0.8l-0.2,0.1v-0.2l0,0c0,0,0-0.1-0.4-0.2
		c-0.9-0.3-1.8-0.3-2.6-0.3c-1.2,0.1-2.3,0.2-2.8,1.2c-0.2,0.3-0.1,0.4-0.1,0.4l0,0L57.8,64.9z M56.9,63.1c0,0.1,0.1,0.4,0.3,0.8
		c0.1,0.2,0.4,0.4,0.5,0.6c0-0.1,0.1-0.2,0.1-0.3c0.6-1.1,1.8-1.2,3-1.3c0.8-0.1,1.7,0,2.7,0.3c0.3,0.1,0.4,0.2,0.5,0.3
		c0.1-0.1,0.2-0.4,0.2-0.6c0-0.1,0-0.2,0.1-0.3c0.1-0.2,0-0.8-0.1-0.9c-0.1-0.1-1.7-1-4.1-0.6C57.3,61.6,56.9,63,56.9,63.1z"/>
</g>
<g id="path320">
	<path class="st5" d="M59,63.4c0,0,0.4,0.9,0.1,1.3c0,0-0.1-0.4-0.5-0.2c-0.4,0.2-0.5,0.5-0.7,0.3c-0.1-0.2,0-0.6,0.4-0.9
		C58.7,63.5,59,63.4,59,63.4"/>
</g>
<g id="path321">
	<path d="M59.1,64.9L59,64.7l-0.1-0.2c-0.1,0-0.1,0-0.2,0c-0.1,0.1-0.2,0.1-0.3,0.2c-0.2,0.1-0.3,0.3-0.5,0.1
		c-0.1-0.1-0.1-0.2-0.1-0.3c0-0.2,0.2-0.6,0.5-0.8c0.4-0.3,0.6-0.4,0.6-0.5l0.1-0.1l0.1,0.1c0,0.1,0.4,1,0.1,1.4L59.1,64.9z
		 M58.9,63.6c-0.1,0.1-0.3,0.2-0.5,0.4c-0.3,0.2-0.4,0.5-0.4,0.6v0.1l0,0l0,0c0,0,0.1-0.1,0.2-0.1c0.1-0.1,0.2-0.2,0.3-0.2
		c0.2-0.1,0.3-0.1,0.4,0c0.1,0,0.1,0.1,0.1,0.1C59.1,64.1,59,63.8,58.9,63.6z"/>
</g>
<g id="path329">
	<path class="st5" d="M41.8,65.9c0,0-0.7,0.4-1.8-0.2c0,0,0.3,1,0.6,1.2c0,0-0.6,0-1.3-0.6c-0.6-0.6-1.1-1.6-1.5-1.8
		c-0.4-0.3-1.6-0.4-2-0.8c-0.4-0.4-0.3-0.8-0.3-1.1c0-0.2-0.3-0.8-0.1-1s1-0.7,3.3-0.5c2.4,0.2,3.3,1,3.4,1c0.1,0.1,0,0.7-0.1,1
		c-0.1,0.2-0.1,1.1-0.3,1.1s-1.3,0-1.4,0c0,0-0.1-0.4,0.1-0.8c0,0,0.3-0.2,1.3,0.8c0,0-0.6-1-2.8-1.2S36,63.4,36,63.4
		s0.3-0.6,2.9-0.4c0,0,0.5,0.7,0.7,1.1c0.1,0.3,0.5,0.9,0.8,1.2C41,65.7,41.8,65.9,41.8,65.9"/>
</g>
<g id="path330">
	<path d="M41,67h-0.4c0,0-0.7,0-1.3-0.6c-0.3-0.3-0.6-0.7-0.8-1.1c-0.2-0.3-0.5-0.6-0.6-0.8c-0.2-0.1-0.5-0.2-0.8-0.3
		c-0.5-0.1-1-0.3-1.2-0.5c-0.4-0.4-0.3-0.8-0.3-1c0-0.1,0-0.1,0-0.1c0-0.1,0-0.2-0.1-0.3c-0.1-0.3-0.2-0.6,0-0.8s1.1-0.7,3.4-0.5
		c2.1,0.2,3.1,0.8,3.4,1.1l0,0c0.2,0.1,0,0.9-0.1,1.1c0,0.1,0,0.2-0.1,0.4c-0.1,0.5-0.1,0.8-0.3,0.8c-0.1,0-0.3,0-0.7,0
		c-0.3,0-0.6,0-0.7,0l-0.1,0.1v-0.2c0,0-0.1-0.5,0.1-0.9c-0.3-0.1-0.7-0.2-1.1-0.3c0.2,0.2,0.4,0.6,0.5,0.9c0.2,0.4,0.5,0.9,0.8,1.2
		c0.4,0.3,1.2,0.5,1.2,0.5h0.1V66h-0.1c0,0-0.6,0.4-1.6-0.1c0.1,0.4,0.3,0.8,0.5,0.9L41,67z M37.8,61.2c-1.5,0-2.1,0.4-2.2,0.5
		c-0.1,0.1,0,0.4,0.1,0.6c0,0.1,0.1,0.3,0.1,0.4c0,0,0,0.1,0,0.2c0,0.2,0,0.5,0.2,0.8c0.2,0.2,0.7,0.3,1.1,0.4
		c0.3,0.1,0.7,0.2,0.9,0.3c0.2,0.1,0.4,0.5,0.7,0.8c0.2,0.3,0.5,0.7,0.8,1s0.7,0.5,0.9,0.5c-0.2-0.4-0.4-0.9-0.4-1l-0.1-0.3l0.2,0.1
		c0.6,0.3,1.1,0.3,1.4,0.3c-0.3-0.1-0.7-0.3-0.9-0.5c-0.4-0.3-0.7-1-0.9-1.3c-0.1-0.3-0.5-0.8-0.6-1c-0.6,0-1-0.1-1.4,0
		c-1,0.1-1.4,0.4-1.4,0.4l-0.2-0.1c0-0.1,0.3-0.4,1.5-0.5c0.4,0,0.9,0,1.5,0h0.1c0.7,0.1,1.3,0.3,1.7,0.4c0.1,0,0.3,0.1,0.4,0.2
		c0.3,0.2,0.5,0.4,0.6,0.5c0-0.1,0.1-0.4,0.1-0.6c0-0.2,0-0.3,0.1-0.4c0.1-0.3,0.2-0.7,0.1-0.9c-0.3-0.2-1.3-0.8-3.3-1
		C38.5,61.2,38.1,61.2,37.8,61.2z M40.6,63.6c-0.1,0.2-0.1,0.5-0.1,0.6c0.1,0,0.3,0,0.7,0c0.1,0,0.3,0,0.4,0
		c-0.1-0.1-0.3-0.3-0.4-0.3c-0.1-0.1-0.3-0.2-0.5-0.3H40.6z M42.2,62.3L42.2,62.3L42.2,62.3z M42.2,62.3L42.2,62.3L42.2,62.3z"/>
</g>
<g id="path337">
	<path d="M49.9,65.1c-6.1,0-11.1-5-11.1-11.1s5-11.1,11.1-11.1S61,47.9,61,54S56,65.1,49.9,65.1z M49.9,43.1C43.9,43.1,39,48,39,54
		s4.9,10.9,10.9,10.9s11-4.9,11-10.9S56,43.1,49.9,43.1z"/>
</g>
<g id="path338">
	<path class="st5" d="M49.9,64.6c5.8,0,10.6-4.7,10.6-10.6c0-5.8-4.7-10.6-10.6-10.6c-5.8,0-10.6,4.7-10.6,10.6
		C39.4,59.8,44.1,64.6,49.9,64.6"/>
</g>
<g id="path339">
	<path d="M49.9,64.6c-5.9,0-10.6-4.8-10.6-10.6c0-5.9,4.8-10.6,10.6-10.6c5.9,0,10.6,4.8,10.6,10.6C60.6,59.9,55.8,64.6,49.9,64.6z
		 M49.9,43.5c-5.8,0-10.5,4.7-10.5,10.5s4.7,10.5,10.5,10.5S60.4,59.8,60.4,54S55.7,43.5,49.9,43.5z"/>
</g>
<g id="path366">
	<path class="st2" d="M42.3,53.8c0.1-4.1,3.4-7.4,7.5-7.5v0.1v7.4H42.3L42.3,53.8"/>
</g>
<g id="path368">
	<path class="st6" d="M49.8,61.7c-4.1-0.1-7.4-3.4-7.5-7.5h7.5V61.7L49.8,61.7"/>
</g>
<g id="path378">
	<path class="st1" d="M50.1,61.7c4.2-0.1,7.5-3.5,7.5-7.7s-3.3-7.6-7.5-7.7v0.1v15.2V61.7"/>
</g>
<g id="path383">
	<path d="M49.7,65.1l0.7-3.2c0,0,0-0.2,0-0.3l-0.1-0.1h0.2c0,0,0.6-0.1,1.2,0.2c0.1,0.1,0.3,0.2,0.5,0.3c0.5,0.3,1.3,0.8,2,0.9
		c1,0.1,1.8,0.1,1.9,0l0.1,0.2l-0.1,0.1c-1,0.6-2.3,1.4-5.1,1.8l0,0L49.7,65.1z M50.7,61.8c0,0.1,0,0.3,0,0.3L50,64.9h1
		c2.5-0.4,3.8-1,4.7-1.6c-0.4,0-1,0-1.5-0.1c-0.8-0.1-1.5-0.6-2.1-0.9c-0.2-0.1-0.4-0.2-0.5-0.3C51.2,61.8,50.9,61.8,50.7,61.8z"/>
</g>
<g id="path384">
	<path class="st5" d="M46.6,60.9c0,0,0.2-0.4,0.7-0.3c0.5,0.1,2.8,0.7,2.8,0.7s0.6,0.1,0.4,1L50,64.9c0,0-0.2,0.5-0.6,0.4
		c0,0-0.8-0.1-1.7-0.3c-0.8-0.2-1.6-0.4-1.6-0.4s-0.5-0.2-0.3-0.7L46.6,60.9"/>
</g>
<g id="path385">
	<path d="M49.4,65.5L49.4,65.5c-0.2,0-1-0.1-1.8-0.3C46.8,65,46,64.8,46,64.8l0,0c-0.2-0.1-0.5-0.4-0.4-0.9l0.9-3
		c0.1-0.2,0.3-0.5,0.8-0.3c0.5,0.1,2.7,0.7,2.8,0.7c0,0,0.3,0,0.4,0.2c0.1,0.2,0.2,0.5,0.1,0.9L50,64.9C50,65.1,49.7,65.5,49.4,65.5
		z"/>
</g>
<g id="path391">
	<path d="M38.1,39.3c0,0-0.2-0.6-0.6-0.5c-0.4,0.1-0.8,0.3-1,0.7l-0.1,0.2c0,0-0.2,0.2-0.5,0.3c-0.2,0.1-0.6,0.1-0.7,0.3
		c-0.1,0.1-0.5,0.5-0.9,0.9c-0.5,0.6-1.3,1-1.5,1.4C32.5,43,32,44.3,32,44.8s0.1,1.6,0,2.2c-0.1,1-0.2,1.7-0.6,2.8
		c-0.2,0.5-0.5,1.6-0.5,2s-0.1,2.1,0.2,2.8c0.3,0.7,0.7,1.2,0.9,1.5c0.1,0.3,0.4,1.2,0.4,1.7c0.1,0.5,0.6,1,0.8,1.3
		c0.2,0.2,0.4,0.8,0.6,1c0.1,0.2,0.2,0.3,0.3,0.5c0,0.1-0.1,0.9,0.5,1s0.8,0.2,0.8,0.2s0.2-0.2,0.4-0.3s0.6-0.3,2.8-0.2
		c1,0,1.5,0.2,1.5,0.2s0.1-0.4,0-0.5c-0.2-0.1-0.6-0.7-0.9-0.7c-0.3,0-0.1,0-0.1,0s0.4-0.8,0.3-1.8c-0.1-0.9-0.1-1-0.1-1
		S39,56.1,38.9,54c0-1,0.6-3.5,0.6-3.5s0.4,0.4,0.6,0.5c0.2,0,0.6-0.2,0.7-0.3c0.3-0.3,0.3-0.6,0.2-0.9c-0.1-0.3-0.1-0.9-0.5-1.6
		c0,0,0.6-1.2,2.4-2.7c1.8-1.5,3.2-1.8,3.2-1.8s0.3-0.4,0.1-0.6c-0.2-0.2-0.4-0.3-0.8-0.3c-0.3,0.1-0.5,0.2-0.6,0.2s-0.5,0-0.7,0
		c-0.2,0.1-0.8,0.2-1,0.3s-0.5,0.4-0.7,0.5s-1.4,0.3-1.6,0.6c0,0-1.1-0.2-1.3-0.5c0,0,0.3-0.2,0.4-0.5c0,0,0.4,0,0.5-0.1
		s0.5-0.5,0.5-0.9c0.1-0.3-0.1-0.4-0.1-0.4l-0.5-0.6c0,0,0-0.6-0.3-0.9c-0.3-0.3-0.7-0.5-0.7-0.5s0-0.5-0.3-0.7
		c-0.3-0.1-0.7-0.1-0.8,0.2L38.1,39.3"/>
</g>
<g id="path392">
	<path class="st7" d="M39,47.2c-0.4-0.1-0.7-0.1-1-0.3c-0.4-0.1-0.8-0.7-1.3-0.6c-0.2,0-0.2,0.4-0.8,0.1c-0.1-0.1-0.1-0.1-0.1-0.2
		c0.3,0.1,0.7,0,0.7-0.2c0.1-0.2-0.3-0.4-0.4-0.7c0-0.1,0.2-0.1,0.3-0.1c0.1,0.1,0.2,0.4,0.4,0.6c0.4,0.4,0.9,0.6,1.3,0.7
		c0.5,0.2,1,0.4,1.6,0.4c0.4,0,0.6,0.9,0.9,0.8c0.4-0.1,1-1.5,1.8-2.1c0.7-0.5,1.3-0.9,1.9-1.5c0-0.1,0-0.3,0.1-0.4
		c0.1,0.1,0.2,0.1,0.3,0.1c0.1-0.1,0.4-0.1,0.4-0.1c0.3-0.3,0.9-0.1,0.8-0.4c0-0.1-0.1-0.5-0.3-0.4c-0.5,0.1-0.9,0.2-1.6,0.3
		c-0.5,0.1-1,0.4-1.4,0.6c-0.8,0.4-1.6,0.7-2.2,1.3c-0.1-0.2,0.2-0.5,0-0.5c-0.5-0.1-1.5-0.4-1.2-0.8c0.5-0.7,0.7-0.9,0.4-1
		c-0.1,0-0.3,0-0.4,0c0-0.1-0.1-0.2,0.1-0.2c0.4-0.1,1,0.2,1.3-0.1c0-0.1-0.3,0-0.3-0.1s0.1-0.1,0.2-0.1c0,0.1,0,0.1,0.1,0.1
		c0.1-0.1,0.2-0.1,0.1-0.3c-0.2-0.4-0.8-0.4-1-0.9c0.1,0,0.1,0,0.1,0c0.1,0,0.1-0.1,0.1-0.1c-0.3-0.9-1.3-1.2-2.1-1.5
		c-0.1,0-0.2,0.2-0.3,0.1c-0.1-0.1,0.1-0.4-0.1-0.6c-0.1,0.1,0,0.4-0.1,0.6c-0.1,0-0.3,0-0.4,0.1c-0.1,0-0.1,0-0.2,0
		c-0.1,0-0.1-0.1-0.1-0.1c0.1-0.1,0.3-0.1,0.2-0.4c0-0.1-0.1-0.1-0.1-0.1c-0.4,0.2-0.3,0.5-0.1,0.8c-0.4-0.2-0.7,0.2-1.2,0.4
		c-0.1,0-0.3,0-0.3,0.1c-0.6,0.9-1.6,1.6-2.2,2.2c-0.4,0.3-0.5,1.4-0.7,2.2c0,0,0.1,0.8,0.1,1.3c0,0.1,0,0,0,0
		c0.7,1.3,1.5,2.5,2.8,3.3c0.7,0.1,1.1-0.1,3.3,0c0.1,0,0.4-0.6,0.4-0.5c0.1,0.8,0.6,1.3,1.2,1.6c0.1,0.1,0.4,0.1,0.4-0.2
		c0.1,0,0.2,0.1,0.3-0.1c0.1-0.3-0.1-0.6-0.2-0.8c-0.3-0.6-0.5-1.2-0.8-1.9C39.7,47.2,39.3,47.2,39,47.2"/>
</g>
<g id="path393">
	<path class="st7" d="M38.4,49.6c-1.1,0-2.2,0.4-3.3,0c-1.2-0.4-1.9-1.7-2.5-2.9c-0.2,2.2-1.1,3.6-1.1,4.9c0,0.7-0.1,1.7,0.1,2.4
		c0,0.3,0.1,0.6,0.3,0.9c0.7,1,1.1,1.8,1.2,3c0,0.5,0.5,0.7,0.7,1.1c0.2,0.4,0.3,0.9,0.7,1.2c0.1,0,0.2,0.1,0.4,0.1
		c0.1-0.1,0.3-0.1,0.5-0.1c-0.2,0.3-0.7,0.1-0.9,0.4c-0.1,0.2,0.1,0.4,0.3,0.6c0.7,0.3,1.3,0.3,2,0c0.5-0.3-0.2-0.5-0.2-1
		c0,0,0.1,0,0.1,0.1s0,0.1-0.1,0.1c0.4,0.1,0.7,0.4,1,0.5c0.7,0.1,2.4,0.2,2.3-0.1c-0.2-0.3-0.6-0.4-0.9-0.5
		c-0.3-0.1-0.5,0.2-0.8,0.1v-0.1c0.4-0.1,0.8-0.1,1-0.5c0.1-0.4,0.2-0.7,0.1-1c0-0.9-0.1-1.9-0.6-2.7c-0.4,0.4-1,0.7-1.3,1.2
		c-0.1,0.4-0.1,0.7-0.1,1.1c-0.1,0.2-0.2,0.4-0.4,0.5c-0.1,0.1,0.1,0.4,0,0.6c-0.1,0.1,0,0.5-0.4,0.6c0-0.3,0.1-0.5,0.2-0.8
		c0.1-0.3-0.2-0.6-0.1-0.9c0.1,0,0.2,0.1,0.3,0.1c0.5-1-0.1-1.8-0.7-2.5c0.5-0.1,0.7,0.9,1.1,0.8c0.7-0.1,1.1-0.7,1.4-1.3
		c0.1-0.5,0.1-1,0.1-1.6c0.1-1.3,0.1-2,0.5-3.3C39.2,50.2,38.6,49.6,38.4,49.6"/>
</g>
<g id="path399">
	<path class="st5" d="M38.6,39.4c-0.2,0.1,0.1,0.1,0.1,0.2c0.4,0.1,0.4,0,0.2-0.2C38.9,39.4,38.8,39.3,38.6,39.4"/>
</g>
<g id="path400">
	<path d="M39,39.8c-0.1,0-0.2,0-0.3-0.1h-0.1l0,0l0,0c-0.1,0-0.1-0.1-0.1-0.2c0-0.1,0.1-0.2,0.2-0.2l0,0c0.2-0.1,0.4,0,0.5,0.1
		s0.1,0.3,0,0.4C39.1,39.8,39,39.8,39,39.8z M38.8,39.6L38.8,39.6C38.9,39.6,38.9,39.5,38.8,39.6C38.9,39.5,38.8,39.5,38.8,39.6
		C38.8,39.5,38.8,39.5,38.8,39.6z"/>
</g>
<g id="path402">
	<path d="M60.2,39.6c0,0,0.5-0.1,0.7-0.1c0,0,0.2-0.4,0.8-0.2s0.9,0.5,0.9,1.1c0,0,0.5,0.2,1,0.6c0.5,0.4,0.5,0.8,0.9,1.1
		c0.3,0.3,1.5,1.3,1.8,2s0.8,1.8,0.8,2.9c0,1,0.1,1.5,0.3,2c0.1,0.4,0.9,1.5,1.1,2.9s0.1,2.6-0.2,3.5c-0.3,0.9-0.8,0.9-1.1,1.5
		L67,57.1c0,0-0.1,0.5-0.2,0.6s-0.6,1-0.8,1.2c0,0-0.3,1.1-0.6,1.5c-0.3,0.4-0.4,0.4-0.5,0.5s0,0.5-0.3,0.6c-0.2,0.1-0.4,0-0.4,0
		S63.3,61,62,61c-1.4,0-1.7,0.1-1.7,0.1s-0.1-0.1,0-0.4c0.1-0.2,0.4-0.6,0.8-0.6c0,0-0.5-1.5-0.5-2.2s0-1,0-1s0.3-1.4,0.3-3
		c0,0-0.2,0-0.3,0.2c0,0.1-0.2,0.3-0.5,0.3c-0.2,0-0.7-0.3-0.7-0.7s-0.2-0.8,0.1-1.4c0.3-0.6,0.7-0.7,0.9-1.3c0,0-0.4-1.5-2-3.8
		c-1.5-2.2-5-3.5-5-3.5s-0.2-0.2,0-0.4s0.3-0.5,0.5-0.5s0.3,0,0.4,0c0.1,0.1,0.4,0.4,0.5,0.5s0.5,0.1,0.7,0.2
		c0.2,0.1,0.2,0.2,0.3,0.2s0.5,0,0.8,0.2c0.3,0.1,1.2,0.6,1.4,0.9c0.2,0.2,0.8,0.4,0.8,0.6c0,0,0.4-0.1,0.7-0.2c0,0-0.2-0.4-0.1-0.9
		c0,0-0.4-0.1-0.7-0.3c0,0-0.8,0-1,0s-0.9-0.5-1.1-0.8c-0.1-0.3,0.1-0.5,0.2-0.6c0.1-0.1,0.6-0.5,0.6-0.5s0-0.3,0.1-0.7
		c0-0.3,1-1.1,1-1.1s0-0.6,0.1-0.7c0.1-0.1,0.4-0.2,0.6-0.2C59.7,39.3,60.1,39.3,60.2,39.6"/>
</g>
<g id="path403">
	<path class="st7" d="M59.5,45.4c-0.3,0-0.4,0.3-0.7,0.3c0-0.2-0.1-0.4-0.2-0.5c-0.9-0.5-1.6-1.2-2.7-1.4c-0.3-0.1-0.6-0.2-0.9-0.4
		c-0.2-0.1-0.4-0.4-0.7-0.6c-0.3-0.1-0.5,0.1-0.7,0.4c0,0.1-0.1,0.2,0,0.2c0.1-0.1,0.1-0.1,0.2-0.1c0.3,0.4,0.7,0.5,1.2,0.6
		c0.1,0,0.2,0.2,0.4,0.3c0.1,0.1,0.2-0.2,0.4-0.1c0,0.1-0.1,0.2-0.1,0.3c1.7,1.2,3,2.5,4,4.2c0.4-0.4,0.2-1.1,0.2-1.5
		c0.1-0.4,0.1-0.9-0.1-1.3c0-0.2-0.1-0.4-0.2-0.5C59.6,45.4,59.6,45.4,59.5,45.4"/>
</g>
<g id="path404">
	<path d="M59.8,48.8L59.8,48.8c-0.9-1.6-2.2-3-4-4.2l0,0l0,0c0,0,0-0.1,0-0.2c0-0.1,0-0.1,0-0.2c-0.1-0.1-0.2,0-0.2,0
		s-0.1,0.1-0.1,0c-0.1,0-0.1-0.1-0.2-0.2c-0.1,0-0.2,0-0.2,0c-0.6-0.1-0.9-0.3-1.2-0.6c-0.1,0-0.1,0-0.2,0.1l0,0l0,0l0,0v-0.1v-0.1
		l0,0l0,0c0.1-0.2,0.4-0.5,0.7-0.4c0.1,0.1,0.2,0.2,0.3,0.3s0.2,0.2,0.3,0.3l0,0c0.3,0.1,0.6,0.3,0.9,0.4c0.8,0.2,1.3,0.5,2,1
		c0.2,0.2,0.5,0.3,0.7,0.5l0,0c0.2,0.2,0.2,0.3,0.2,0.5c0.1,0,0.2-0.1,0.3-0.1c0.1-0.1,0.2-0.2,0.3-0.2l0,0l0,0l0,0h0.1h0.1l0,0l0,0
		c0.2,0.2,0.2,0.3,0.2,0.5c0.2,0.5,0.2,1,0.1,1.3c0,0.1,0,0.3,0,0.5C60,48,60,48.4,59.8,48.8L59.8,48.8z M55.7,44.5
		c1.8,1.3,3.1,2.6,4,4.2c0.2-0.3,0.2-0.7,0.2-1c0-0.2,0-0.3,0-0.5c0.1-0.4,0.1-0.8-0.1-1.3l0,0c0-0.2-0.1-0.4-0.2-0.5h-0.1h-0.1l0,0
		l0,0c-0.2,0-0.2,0.1-0.3,0.1c-0.1,0.1-0.2,0.1-0.3,0.1l0,0l0,0c0-0.2-0.1-0.4-0.2-0.5c-0.2-0.1-0.5-0.3-0.7-0.5
		c-0.6-0.4-1.2-0.8-2-1c-0.3-0.1-0.6-0.2-0.9-0.4l0,0c-0.1-0.1-0.2-0.2-0.3-0.3s-0.2-0.2-0.3-0.3c-0.3-0.1-0.5,0.1-0.7,0.4v0.1v0.1
		l0,0c0.1-0.1,0.2-0.1,0.2-0.1l0,0l0,0c0.2,0.3,0.6,0.5,1.2,0.6l0,0c0,0,0.1,0.1,0.2,0.1c0.1,0.1,0.1,0.1,0.2,0.2c0.1,0,0.1,0,0.1,0
		c0.1,0,0.1-0.1,0.2,0l0,0l0,0c0,0,0,0.1,0,0.2C55.8,44.4,55.7,44.5,55.7,44.5z"/>
</g>
<g id="path405">
	<path class="st7" d="M60.1,39.9c-0.1,0-0.3,0-0.4,0c0,0,0-0.1,0.1-0.1c0-0.1,0-0.1-0.1-0.1s-0.3,0-0.5,0.1s-0.1,0.5,0,0.5
		c0.1,0.1,0.4-0.2,0.6-0.2c-0.4,0.3-0.6,0.7-1,0.8c0-0.1,0-0.2-0.1-0.2C58.3,41,58,41.4,58,42c0,0.3-0.6,0.6-0.8,1
		c-0.1,0.1,0.1,0.3,0.1,0.3c0.1,0,0.3-0.4,0.4-0.2c0.1,0.1-0.1,0.2-0.1,0.3s0,0.1,0.1,0.1c0.4,0,0.7-0.1,1-0.1
		c0.2,0.3-0.5,0.1-0.6,0.4c1.2,0,1.2,0.3,1.9,0.3c0.4,0,1-0.3,1.5-0.6c0,0.9-1.6,0.3-1.3,1.2c0.1,0.3,0.5,0.3,0.8,0.2
		c0.1-0.1,0.2-0.1,0.4-0.1c-0.2,0.4-1,0.1-1,0.4c0,1,0.1,2.2,0,3.3c0,0.3-0.3,0.6-0.1,0.9c0.1,0.4,0.2,1,0.6,1.3
		c0.6-0.7,1.5-1.3,1.8-2.1c0.2-0.6,0-1.2,0.1-1.8c0.1-0.8,1-1,1.5-1.4c0.1-0.1,0.1-0.3,0.3-0.4c0.1,0,0.1,0.1,0.1,0.2
		c-0.6,0.5-1.3,0.9-1.6,1.6c-0.1,0.6-0.2,1.1,0,1.7c0,0.1,0.3-0.1,0.5,0c0.1,0.1,0.1,0.1,0.1,0.2c-0.1,0.2-0.4,0-0.6,0.1
		c-0.8,0.6-1.3,1.4-2,2.2c0,0.1,0,0.1,0,0.2c-0.6,0.7-1.5,1.4-1.3,2.5c0.1,0.4,0.4,0.3,0.7,0.3c0.1,0,0.1-0.1,0.1-0.2
		c0.4-0.1,0.5-0.5,0.9-0.6c0.5-0.1,1,0.1,1.5-0.2c1.3-0.7,2.6-1.6,3.3-3.1h0.2c0.1,0.9-0.8,1.4-1.4,1.9c-0.5,0.7-1.3,1.1-2,1.6
		c-0.1,0.1-0.4,0.1-0.6,0.1c-0.2,0.1-0.4,0-0.7,0c-0.1,0.1-0.2,0.1-0.3,0.2c-0.1,0.7-0.2,1.6,0.4,2.2c0.3,0.4,0.6,0.9,1.2,1
		c0.7-0.7,1.8-1,2.4-1.7c-0.4,1-1.6,1.1-2.1,2c-0.1,0.2-0.2,0.4-0.2,0.7c-0.1,0.6-0.3,1.3-0.1,1.9c0.1,0.1,0.2,0.2,0.2,0.4
		c0.1,0.4,0.8,0.2,1,0.7c-0.5,0.1-1.1-0.5-1.5,0.1c0.5,0.3,1.1,0.2,1.6,0.5c0.1,0.1,0.2-0.1,0.3-0.1c0-0.1,0-0.1,0-0.2
		c0.7-0.7,1-1.3,1.3-2.3c0-0.1,0.2-0.1,0.3-0.3c0.3-0.4,0.4-1,0.7-1.5c0.3-0.7,1-1.2,1.2-1.9c0.3-0.7,0.3-1.4,0.3-2.2
		c0.1-1.3-0.7-2.5-1-3.8c-0.4-1.1-0.3-2.2-0.5-3.4c-0.3-1.1-0.9-2-1.7-2.7c-0.5-0.5-0.9-1-1.3-1.6c-0.3-0.3-0.7-0.6-1.1-0.7
		c-0.1,0-0.1,0.3-0.3,0.2c-0.1-0.1,0.1-0.4-0.1-0.6h-0.1c-0.1-0.1,0-0.1,0.1-0.1l0.1,0.1c0.1-0.1,0.1-0.3,0-0.4c0,0-0.4-0.3-0.4-0.2
		c-0.2,0.1,0-0.1-0.2,0.2c0,0.1,0,0.2,0,0.3h-0.1C61.5,39.5,60.5,39.9,60.1,39.9"/>
</g>
<g id="path406">
	<path class="st7" d="M62.1,56.7c-0.3-0.3-0.8-0.7-0.9-1.1c-0.7,1.1-0.3,2.5-0.1,3.7c0.1,0.2,0.2,0.4,0.3,0.7
		c0.1,0.2,0.5,0.3,0.4,0.4c-0.1,0.3-0.4-0.3-0.7-0.1c-0.2,0.1-0.5,0.2-0.4,0.4c0.1,0.5,0.9,0.2,1.4,0.3c0.1,0.1,0.1-0.2,0.3-0.4
		c0.1-0.1,0.5-0.2,0.4-0.4c-0.4-0.9-0.3-1.8-0.2-2.8C62.6,57.2,62.3,56.9,62.1,56.7"/>
</g>
<g id="path407">
	<path d="M61.2,61c-0.3,0-0.5-0.1-0.6-0.3v-0.1c0.1-0.1,0.4-0.3,0.5-0.3c0.2-0.1,0.3,0,0.4,0.1c0.1,0.1,0.2,0.1,0.2,0.1
		s0.1,0,0.1-0.1s0-0.1-0.2-0.2c-0.1-0.1-0.2-0.1-0.3-0.3c0-0.1-0.1-0.2-0.1-0.3c-0.1-0.1-0.1-0.2-0.1-0.3c0-0.2-0.1-0.4-0.1-0.6
		c-0.2-1.1-0.4-2.2,0.2-3.2l0,0l0,0c0.1,0.4,0.4,0.7,0.7,1c0.1,0.1,0.1,0.1,0.2,0.2l0,0c0.2,0.2,0.5,0.5,0.5,0.8l0,0
		c-0.1,0.9-0.1,1.8,0.2,2.7c0.1,0.1-0.1,0.2-0.2,0.2c-0.1,0-0.2,0.1-0.2,0.1c-0.1,0.1-0.1,0.1-0.1,0.2c0,0.1-0.1,0.1-0.1,0.2
		c0,0,0,0-0.1,0c-0.2,0-0.4,0-0.5,0C61.4,60.9,61.3,61,61.2,61z M61.2,60.2L61.2,60.2c-0.3,0.1-0.5,0.2-0.5,0.3v0.1l0,0
		c0,0.3,0.4,0.3,0.8,0.3c0.2,0,0.4,0,0.6,0l0,0c0,0,0,0,0.1,0l0.1-0.1c0-0.1,0.1-0.2,0.1-0.2c0.1-0.1,0.1-0.1,0.2-0.2
		c0.2-0.1,0.2-0.1,0.2-0.2c-0.4-0.9-0.3-1.8-0.2-2.7l0,0c0-0.2-0.3-0.5-0.5-0.7l0,0c-0.1-0.1-0.1-0.1-0.2-0.2
		c-0.3-0.3-0.6-0.6-0.7-0.9c-0.6,1-0.4,2-0.1,3.1c0,0.2,0.1,0.4,0.1,0.6c0,0.1,0.1,0.2,0.1,0.3c0.1,0.1,0.1,0.2,0.2,0.3
		c0,0.1,0.2,0.2,0.3,0.2c0.1,0.1,0.2,0.1,0.2,0.2c0,0.1-0.1,0.1-0.1,0.1c-0.1,0-0.2,0-0.3-0.1C61.4,60.3,61.3,60.2,61.2,60.2z"/>
</g>
<g id="path414">
	<path d="M52.7,40.1c0,0,0.3,0.6,0.8,0.4c0.4-0.2,0.2-0.4,0.2-0.4s-0.4-0.3-0.3-0.5c0-0.2,0.1-0.4,0.5-0.3c0,0,0.1,0,0-0.1
		c0-0.1-0.1-0.2-0.1-0.3s-0.1-0.7,0.3-0.7c0.2,0,0.3,0.1,0.4,0.3c0.1,0.1,0.1,0.1,0.1,0.1s0.2-0.4,0.4-0.3c0.2,0,0.3,0.1,0.3,0.4
		c0.1,0.3,0.2,0.6,0.1,0.7c0,0,0.2-0.3,0.3-0.7s0.2-0.4,0.3-0.6c0.1-0.2,0.5-0.5,0.7-0.5c0,0,0.1,0.4,0,0.7c0,0,0.3-0.4,0.6-0.4
		c0.3,0.1,0.3,0.2,0.3,0.2s0.1-0.2,0.3-0.2s0.5,0,0.5,0.1c0,0,0.6,0.1,0.8,0c0.1-0.1,0.4-0.3,0.4-0.4c0-0.1,0-0.4,0.1-0.4
		s0.3,0.3,0.3,0.5c0,0.1-0.1,0.5-0.1,0.5s0.3,0.3,0.3,0.4c0,0.1,0,0.4-0.3,0.3c-0.3-0.1-0.4,0-0.4,0.1c0,0-0.8-0.1-0.9,0.2
		c-0.1,0.3,0,0.4,0,0.5c0.1,0.1,0,0.2-0.2,0.3c-0.3,0.1-0.2,0.4-0.5,0.5s-0.5,0.1-0.5,0.1s-0.8,0.7-1.2,0.9s-0.8,0.1-0.8,0.1
		s0,0.1-0.3,0.3C55,42,54.5,42,54.5,42s-0.1,0.2-0.3,0.3s-1.2,0.2-2.6-0.9c0,0,0.3-0.7,0.6-1C52.6,40.2,52.7,40.1,52.7,40.1"/>
</g>
<g id="path415">
	<path class="st8" d="M51.9,41.1c0,0,0.1,0.4,1,0.9c0.7,0.3,1.2,0.2,1.3,0.1c0.1-0.1,0.1-0.3,0.1-0.3s0.5,0.1,0.6,0s0.1-0.3,0.1-0.3
		s0.6,0.2,1.1-0.1s1.2-0.9,1.3-1.1c0,0,0.1,0.2,0.3,0.2c0.2-0.1,0.1-0.5,0.1-0.5s0.5,0.1,0.5-0.1c0-0.1-0.2-0.4,0-0.6
		c0.2-0.2,0.4-0.3,0.7-0.3s0.7-0.2,0.9-0.1c0,0-0.3-0.3-0.3-0.4c0-0.1,0.2-0.3,0.2-0.6c0,0-0.4,0.4-0.8,0.4c-0.3,0-0.4,0-0.5,0
		c-0.1,0.1-0.4,0.2-0.7,0.6c0,0,0.1-0.5,0.3-0.7c0,0-0.4-0.1-0.5,0.2c-0.1,0.2-0.2,0.2-0.3,0.1c-0.1-0.1,0-0.3-0.1-0.3
		s-0.5,0.5-0.7,0.6s-0.1-0.3-0.1-0.4c0-0.1,0.1-0.4,0.1-0.4s-0.3,0.1-0.4,0.4c-0.1,0.3-0.4,1.2-0.6,1.2c-0.3,0.1-0.3-0.1-0.3-0.3
		s-0.1-0.9-0.2-0.9c-0.2,0-0.4,0.6-0.4,0.6s-0.3-0.7-0.4-0.6c-0.2,0.1-0.1,0.4,0,0.6c0.1,0.2,0.1,0.5,0.1,0.6c0,0-0.5-0.1-0.5,0
		s0.4,0.5,0.3,0.8c-0.2,0.3-0.6,1-1.5,0.1L51.9,41.1"/>
</g>
<g id="path416">
	<path d="M47.4,40.3c0,0-0.5,0.3-0.9,0.4c-0.4,0-0.5-0.1-0.6-0.2c-0.1-0.3,0.5-0.4,0.3-0.7s-0.4-0.1-0.6-0.2c-0.1-0.1,0-0.4,0-0.5
		s0-0.6-0.1-0.6c-0.1-0.1-0.5,0.2-0.5,0.3c0,0-0.4-0.6-0.8-0.5c0,0,0.1,0.2,0.1,0.4s-0.2,0.4-0.2,0.6c0,0.2-0.1,0.3,0,0.4
		c0,0-0.3-0.1-0.2-0.5c0-0.4-0.2-0.9-0.4-1C43.3,38,43,37.9,42.9,38c0,0,0.2,0.7,0.1,0.8c0,0-0.5-0.5-0.7-0.6
		C42.1,38,41.9,38,41.8,38c0,0,0,0.2,0,0.3c0,0-0.4-0.1-0.5,0.1c0,0-0.1-0.1-0.4-0.1c-0.3,0-0.6,0.1-0.6,0.1S40,38.2,40.1,38
		c0-0.2,0-0.3,0-0.3s-0.6-0.2-0.7,0.5c-0.1,0.7,0.3,0.8,0.3,0.8s0,0.5,0.1,0.6s0.5,0.5,0.7,0.5c0,0,0-0.4,0.2-0.4s0.3,0.2,0.3,0.2
		c0,0.1-0.3,0.4-0.2,0.6c0.2,0.3,0.4,0.1,0.5,0.2c0.1,0.1,0,0.2,0.1,0.3c0.2,0.2,0.7,0,0.8,0.1c0.2,0.1,0.4,0.4,0.8,0.6
		c0.4,0.2,0.7,0.4,1.1,0.4c0,0-0.1,0.2,0.2,0.3s0.7,0,0.7,0s0,0.1,0.2,0.2c0.7,0.2,1.6-0.1,2.3-0.5s0.7-0.4,0.7-0.4
		s-0.3-0.4-0.5-0.7C47.6,40.6,47.4,40.3,47.4,40.3"/>
</g>
<g id="path417">
	<path class="st8" d="M47.6,40.5c0,0-0.9,0.6-1.5,0.5c-0.6-0.2-0.4-0.7-0.3-0.8c0-0.1,0.3-0.2,0.2-0.2c0,0-0.4,0.3-0.6,0.1
		c-0.2-0.2-0.1-0.3-0.1-0.5c0.1-0.1,0.2-0.4,0.1-0.7c-0.1-0.3,0,0,0,0S45.1,39,45,39.3c0,0-0.2-0.6-0.4-0.7c0,0,0,0.4-0.1,0.5
		s-0.3,0.4,0,0.9c0,0-0.5,0.1-0.7-0.3c-0.2-0.4-0.2-1.5-0.7-1.5c0,0,0.2,0.7,0,0.9c-0.1,0.1-0.3,0-0.5-0.2c-0.2-0.3-0.5-0.5-0.6-0.5
		c0,0,0.2,0.3,0.1,0.4c-0.1,0-0.6-0.2-0.7,0c0,0,0.4,0.4,0.4,0.7c0,0.2-0.1,0.3-0.1,0.3c-0.1,0,0-0.2-0.1-0.4c0-0.1-0.4-0.6-0.7-0.6
		s-0.5,0-0.7,0s-0.6-0.2-0.6-0.5c0,0-0.3,0.5,0.4,0.9c0,0-0.1,0.5,0.1,0.6c0.2,0.1,0.3-0.2,0.5-0.2s0.3,0.1,0.5,0.2
		c0.1,0.1,0.3,0.2,0.3,0.4s-0.2,0.3-0.2,0.3c0,0.1,0.4,0.1,0.6,0.1l0,0c0,0-0.2,0.3,0,0.4c0.1,0.1,0.4,0.1,0.5-0.2
		c0,0,0.3,0.6,0.9,0.9c0.6,0.3,0.9,0.3,1.4,0.2h0.1c0,0.1-0.2,0.2-0.2,0.3c0.1,0.2,0.6-0.1,0.7,0c0.1,0.1,0,0.2,0,0.3
		c0.1,0.1,0.5,0.1,1.1-0.1c0.6-0.2,1.3-0.5,1.7-0.8l-0.3-0.5L47.6,40.5"/>
</g>
<g id="path418">
	<path d="M49.9,45.2c-0.6,0-1-0.4-1.4-0.7s-1.2-0.4-1.5-0.6c-0.4-0.2-0.7-0.4-0.7-0.6c0-0.3,0.1-0.2,0.1-0.2s-0.1-0.1,0.1-0.4
		c0.1-0.2,0.4-0.1,0.4-0.1l0.1-0.2c0.1-0.1,0.3,0,0.3,0s0.1-0.1,0.1-0.2c0.1-0.1,0.4,0,0.5-0.1c0.1,0,0.2-0.1,0.3-0.3
		c0-0.2-0.1-0.7-0.4-1c-0.3-0.3-0.6-0.8-0.6-0.8c-0.1-0.2-0.1-0.4-0.1-0.6c0-0.1,0.1-0.3,0.1-0.4c0.1-0.1,0.3-0.1,0.3-0.1
		s0.5-0.7,0.8-1s0.9-0.5,0.9-0.5c0-0.1,0.3-0.4,0.7-0.4c0.3,0,0.7,0.3,0.7,0.4c0,0,0.6,0.2,0.9,0.5c0.3,0.3,0.8,1,0.8,1
		s0.2,0.1,0.3,0.1c0.1,0.1,0.1,0.2,0.1,0.4c0,0.1,0.1,0.4-0.1,0.6c0,0-0.4,0.5-0.6,0.8c-0.3,0.3-0.4,0.9-0.4,1
		c0,0.2,0.2,0.2,0.3,0.3c0.1,0,0.4,0,0.5,0.1s0.1,0.2,0.1,0.2s0.2-0.1,0.3,0s0.1,0.2,0.1,0.2s0.2-0.1,0.4,0.1
		c0.1,0.2,0.1,0.4,0.1,0.4s0.1-0.1,0.1,0.2s-0.3,0.4-0.7,0.6c-0.4,0.2-1,0.3-1.4,0.6C51,44.8,50.7,45.2,49.9,45.2"/>
</g>
<g id="path419">
	<path d="M49.9,45.2L49.9,45.2L49.9,45.2L49.9,45.2c-0.5,0-0.8-0.3-1.2-0.6c-0.1-0.1-0.2-0.1-0.2-0.2c-0.2-0.2-0.6-0.3-0.9-0.4
		c-0.2-0.1-0.5-0.1-0.6-0.2h-0.1c-0.3-0.2-0.6-0.4-0.6-0.6c0-0.1,0-0.2,0.1-0.2h0.1c0,0,0-0.2,0.1-0.3c0.1-0.2,0.3-0.1,0.4-0.1
		l0.1-0.2c0.1-0.1,0.2,0,0.3,0c0,0,0.1-0.1,0.1-0.2c0.1,0,0.2,0,0.3,0s0.2,0,0.2,0l0,0c0.1,0,0.2-0.1,0.2-0.3s-0.1-0.7-0.4-1
		c-0.3-0.3-0.6-0.8-0.6-0.8c-0.1-0.2-0.1-0.4-0.1-0.6l0,0c0-0.1,0-0.3,0.1-0.4c0.1-0.1,0.3-0.1,0.3-0.1s0.5-0.8,0.8-1
		c0.3-0.3,0.8-0.5,0.9-0.5v-0.1c0.1-0.1,0.4-0.3,0.6-0.3c0.3,0,0.5,0.2,0.6,0.3v0.1c0.1,0,0.6,0.3,0.9,0.5c0.3,0.3,0.8,1,0.8,1
		s0.2,0.1,0.3,0.1c0.1,0.1,0.1,0.3,0.1,0.4l0,0c0,0.2,0.1,0.4-0.1,0.6c0,0-0.4,0.5-0.6,0.8c-0.3,0.3-0.4,0.8-0.4,1s0.1,0.2,0.2,0.3
		l0,0c0,0,0.1,0,0.2,0c0.1,0,0.2,0,0.3,0c0.1,0.1,0.1,0.2,0.1,0.2s0.2,0,0.3,0c0,0.1,0.1,0.2,0.1,0.2s0.3-0.1,0.4,0.1
		c0.1,0.2,0.1,0.3,0.1,0.3s0,0,0.1,0c0,0,0.1,0.1,0.1,0.2c0,0.3-0.3,0.4-0.6,0.6h-0.1c-0.2,0.1-0.4,0.1-0.6,0.2
		c-0.3,0.1-0.6,0.2-0.8,0.3c-0.1,0.1-0.2,0.1-0.3,0.2C50.9,45,50.5,45.2,49.9,45.2L49.9,45.2z M46.4,43.1L46.4,43.1
		c-0.1,0-0.1,0.1-0.1,0.2c0,0.2,0.3,0.4,0.6,0.6H47c0.2,0.1,0.4,0.2,0.6,0.2c0.3,0.1,0.7,0.2,0.9,0.4c0.1,0.1,0.2,0.1,0.2,0.2
		c0.3,0.3,0.7,0.6,1.2,0.6c0.6,0,0.9-0.3,1.2-0.6c0.1-0.1,0.2-0.1,0.3-0.2c0.2-0.2,0.5-0.3,0.9-0.3c0.2-0.1,0.4-0.1,0.6-0.2H53
		c0.3-0.2,0.6-0.3,0.6-0.6c0-0.1,0-0.2-0.1-0.2h-0.1l0,0l0,0c0,0,0.1-0.1-0.1-0.3c-0.1-0.2-0.3-0.1-0.4-0.1l0,0l0,0l-0.1-0.2
		c-0.1-0.1-0.2,0-0.3,0l0,0l0,0c0,0-0.1-0.1-0.1-0.2c0,0-0.2,0-0.3,0s-0.2,0-0.2,0l0,0c-0.1,0-0.2-0.1-0.2-0.3s0.1-0.7,0.4-1
		c0.3-0.3,0.6-0.8,0.6-0.8c0.1-0.1,0.1-0.4,0.1-0.5l0,0c0-0.1,0-0.3-0.1-0.4c-0.1-0.1-0.3-0.1-0.3-0.1l0,0l0,0c0,0-0.5-0.7-0.8-1
		s-0.9-0.5-0.9-0.5l0,0l0,0v-0.1c-0.1-0.1-0.4-0.3-0.6-0.3c-0.3,0-0.5,0.2-0.6,0.3v0.1l0,0l0,0c0,0-0.6,0.2-0.9,0.5
		c-0.3,0.3-0.8,1-0.8,1l0,0l0,0c0,0-0.2,0.1-0.3,0.1c0,0-0.1,0.2-0.1,0.4c0,0,0,0,0,0.1c0,0.2-0.1,0.4,0.1,0.5c0,0,0.4,0.5,0.6,0.8
		c0.3,0.3,0.4,0.8,0.4,1s-0.1,0.2-0.2,0.3l0,0c0,0-0.1,0-0.2,0c-0.1,0-0.2,0-0.3,0c-0.1,0.1-0.1,0.2-0.1,0.2l0,0l0,0
		c0,0-0.2-0.1-0.3,0s-0.1,0.2-0.1,0.2l0,0l0,0c0,0-0.2-0.1-0.4,0.1C46.4,42.9,46.4,43.1,46.4,43.1L46.4,43.1L46.4,43.1L46.4,43.1z"
		/>
</g>
<g id="path420">
	<path class="st5" d="M49.9,38.3c-0.5,0-1.2,0.4-1.4,0.5s-0.7,0.1-0.7,0.1s0.7-0.7,0.9-1c0.3-0.3,0.6-0.3,0.7-0.3
		c0.1-0.1,0.2-0.2,0.4-0.2s0.3,0.1,0.4,0.2c0.1,0.1,0.4,0.1,0.7,0.3c0.3,0.3,0.9,0.9,0.9,0.9s-0.3,0-0.6-0.1
		C51.1,38.7,50.4,38.3,49.9,38.3"/>
</g>
<g id="path421">
	<path class="st5" d="M49.9,43.5c-0.2,0-0.5-0.2-0.8-0.3s-0.9-0.4-1-0.4s-0.4-0.2-0.3-0.3c0.1-0.1,0.3,0.1,0.6-0.4s-0.5-1.5-0.5-1.5
		s0.5,0.2,0.9,0.4s1.1,0.3,1.1,0.3s0.7-0.1,1.1-0.3c0.4-0.2,0.9-0.4,0.9-0.4s-0.8,1.1-0.5,1.5c0.3,0.5,0.5,0.2,0.6,0.4
		c0.1,0.1-0.2,0.3-0.3,0.3s-0.7,0.3-1,0.4C50.4,43.3,50.2,43.5,49.9,43.5"/>
</g>
<g id="path427">
	<path class="st5" d="M49.9,41c-0.5,0-0.9-0.2-1.3-0.4c-0.4-0.2-1.1-0.5-1.2-0.6c-0.1-0.1-0.1-0.4-0.1-0.4s0-0.4,0.2-0.4
		s0.6-0.1,1-0.2c0.4-0.1,0.9-0.4,1.4-0.4c0.4,0,1,0.4,1.4,0.4c0.4,0.1,0.7,0.2,1,0.2c0.2,0,0.2,0.4,0.2,0.4s0,0.3-0.1,0.4
		c-0.1,0.1-0.7,0.4-1.2,0.6C50.8,40.8,50.4,41,49.9,41"/>
</g>
<g id="path430">
	<path class="st5" d="M50.7,39.1l0.3,0.1v1.2l-0.3,0.2V39.1"/>
</g>
<g id="path432">
	<path class="st5" d="M51.4,39.3l0.3,0.1v0.7l-0.3,0.1V39.3"/>
</g>
<g id="path8751">
	<path class="st5" d="M52,39.5h0.3v0.4L52,40V39.5"/>
</g>
<g id="path8754">
	<path class="st5" d="M49.1,39.1l-0.3,0.1v1.2l0.3,0.2V39.1"/>
</g>
<g id="path8760">
	<path class="st5" d="M47.9,39.5h-0.3v0.4l0.3,0.1V39.5"/>
</g>
<g>
	<polygon points="56.3,55.7 56.3,55.7 56.3,55.7 56.3,55.7 	"/>
</g>
<g>
	<path class="st9" d="M10.4,74.3V25.8c0-12.1,8.2-22.7,19.8-25.8H0v100h30.2C18.5,96.9,10.4,86.3,10.4,74.3z"/>
	<path class="st10" d="M89.6,25.8v48.5c0,12.1-8.2,22.7-19.8,25.8H100V0H69.8C81.5,3.1,89.6,13.7,89.6,25.8z"/>
</g>
</svg>
