<?xml version="1.0" encoding="utf-8"?>
<!-- Generator: Adobe Illustrator 23.0.0, SVG Export Plug-In . SVG Version: 6.00 Build 0)  -->
<svg version="1.0" id="Layer_1" xmlns="http://www.w3.org/2000/svg" xmlns:xlink="http://www.w3.org/1999/xlink" x="0px" y="0px"
	 width="100px" height="100px" viewBox="0 0 100 100" enable-background="new 0 0 100 100" xml:space="preserve">
<path id="path128" fill="#002664" d="M0,99.9h100V0H0V99.9z"/>
<g id="g3381" transform="translate(0.06139061,-384.04361)">
	<path d="M34.1,450.5c-0.2,0-0.3,0-0.4,0h-0.3c0.1-0.4-0.1-0.8-0.1-1.2c0-0.3,0.1-0.7,0-1c0.1,0,0.2,0,0.2-0.1c0-0.3,0.2-0.7,0.1-1
		c-0.1-0.4,0-0.8-0.2-1.2c-0.3-1.3-0.1-2.4-0.1-3.8c0.2-0.9,0-2.3,0.5-3.5c0.3,1.2,0.6,2.5,0.9,3.7c0.3,1.3,1,2.5,1,3.9
		c0.1,0.1,0,0.2,0.1,0.3l0.1,0.3c-0.1,0.6-0.3,1.3-0.6,1.8c-0.3,0.6-0.6,1.2-0.9,1.8l2,0.1l2.6,0.3l1,1c0.2,0.1,0.3,0.4,0.5,0.5
		c0.8,0.5,1.4,1.3,2.2,1.5c0.4,0.3,1,0.3,1.4,0.5c0.1-0.1,0.1,0,0.1,0c0.2,0.1,0.5,0.2,0.8,0.2c0.4,0,0.7,0.1,1.1,0.1
		c0.4,0.1,0.8-0.1,1.2-0.2c-0.1,0.2,0,0.3,0.2,0.4c0.7,0,1.2,0.9,2,0.5c0.2,0.1,0.3,0,0.5-0.1s0.1-0.3,0.3-0.2
		c0.2-0.2,0.4-0.3,0.5-0.5c0.2,0,0.4,0.1,0.6,0.1c1,0.1,2,0.1,3-0.2c1.3-0.2,2.3-1.2,3.2-2.2c0.8-0.9,1.8-1.8,2.4-2.9
		c0-0.1,0.1,0,0.1-0.1c0.1-0.1,0.1-0.2,0.2-0.4c0.8-1.5,1.2-3,1.6-4.7c0.1-0.2,0.3-0.4,0.2-0.8c0.7,0.7,1.1,1.6,1.9,2.3
		c0.1,0.3,0.4,0.4,0.6,0.7c0.1,0.3-0.1,1,0.4,1.1c0.1,0,0.2,0.1,0.3,0.1c0,0.7,0.2,1.5-0.3,2.1c0.1,0.1-0.4,0.3,0,0.3
		c0,0.1,0,0.2-0.1,0.2c-0.3,0.4-1.2,0.1-1.1,0.8c-0.1,0-0.2,0-0.3,0h0.1l7.1,0.5h-0.1c0.4-0.3,0.8-0.7,1.2-1.1
		c0.7-0.7,1.1-1.6,1.6-2.4c0.1,0,0.3-0.1,0.4-0.1c0.7-0.3,0.3-1.3,0.4-1.9c-0.1-0.5-0.2-1-0.3-1.5c0-0.1-0.1-0.2-0.2-0.3h-0.1
		l-1,1.5c-0.3,0.4-0.6,0.9-0.4,1.4c0.1,0.2,0.3,0.3,0.4,0.5c-0.4,0.9-1,2.1-2.2,2.1c-0.1,0-0.1-0.1-0.2-0.1
		c-0.1-0.9-0.1-1.9-0.1-2.9c0-1.2,0.2-2.6,0.1-3.7c0-0.3-0.1-0.7,0.2-0.8c0,0.1,0.2,0.1,0.3,0.1c0.1-0.1,0.2-0.2,0.2-0.4
		c0.1-0.1,0.1,0,0.2,0c0.2,0,0.3-0.3,0.3-0.5c0.1,0,0.2,0,0.3,0c0,0.1,0,0.2,0,0.3c0.2,0,0.1-0.2,0.2-0.3c0,0.2,0,0.4,0,0.6
		c0.1-0.3,0.1-0.7,0.1-1c0.1,0.1,0.2,0.3,0.3,0.5h0.1l-0.1-0.1c0-0.2-0.2-0.4-0.3-0.5c0.1,0,0.2,0.1,0.4,0.1c0.1,0,0.1,0,0.1,0
		c-0.2-0.1-0.6-0.2-0.8-0.3c0.1-0.2,0.2-4,0-4.2c0.1-0.2,0.1-0.4,0.1-0.6c0-0.1-0.1-0.1-0.1-0.1c0.1-0.3,0.5-0.2,0.8-0.3
		c0.3,0,0.6,0,0.9-0.1c0-0.4,0.1-1,0-1.4c-0.6-0.2-1.3-0.2-1.9-0.1l-0.1-0.1c0.1-0.4-0.3-0.1-0.4-0.3c0.6-0.7,0.5-1.7,0.3-2.5
		c-0.6-1.2-0.2-2.7-0.8-4c-0.2-0.4-0.7-0.7-1.1-0.8c-0.2-0.1-0.4,0-0.6-0.1c-0.1,0-0.2-0.1-0.3-0.1l-0.2-0.1c-0.2-0.4-0.7-0.6-1-0.9
		l-0.1-0.1c0.1-0.1,0.2-0.3,0.4-0.3c0.2-0.2,0.5-0.5,0.5-0.8c0.4-0.2,0.8-0.4,1.1-0.7c0,0.2-0.2,0.4-0.1,0.6c0,0.1,0.2,0.2,0.3,0.2
		c0.1,0,0.2-0.2,0.3-0.1v-0.1c-0.4-0.1,0-0.5-0.2-0.8c-0.2-0.2-0.2-0.6-0.5-0.7c-0.1-0.1-0.3-0.1-0.3-0.2c0.2-0.2,0.4,0,0.6,0.1
		c0.2,0,0.2,0,0.4-0.1c0.1-0.1,0.1-0.3,0.1-0.5c-0.1,0-0.1,0.1-0.3,0.1c-0.5,0.1-0.9-0.4-1.4-0.1c-0.1,0.1-0.3,0.2-0.2,0.3
		c-0.1,0-0.2-0.1-0.2-0.1c0-0.3,0.2-0.7,0-1c-0.7-0.3-1.6-0.5-2.4-0.4c-0.3,0.1-0.6,0.2-0.6,0.5c-0.2,0.2-0.1,0.7-0.5,0.7
		c-0.5,0.3-1.4,0.3-1.5,1.1c0.2,0.5,0.5,1.1,1,1.2c0.1,0.3,0.3,0.7,0.6,0.9c0.1,0.3,0.3,0.6,0.3,0.9c0,0.1,0.2,0.2,0.1,0.3
		c-0.4,0.1-0.7,0.3-1,0.5c-0.3,0.4-0.8,0.4-1.2,0.6c-0.3,0-0.5,0.2-0.7,0.4c-0.8,1.3-0.6,2.9-1.3,4.2c0,0.3-0.3,0.4-0.6,0.3
		c-0.1,0-0.3,0.1-0.4-0.1c-0.2-0.1-0.4,0-0.5,0.1c0.4-0.6,0.7-1.2,1-1.8c0.3-0.5,0.4-1.3,0.4-1.9c-0.1-0.2-0.1-0.4-0.2-0.5
		c-0.2-0.3-0.7-0.6-1-0.6c-0.2,0.1-0.7,0.2-0.8,0.6c0,0.1,0,0.3,0.1,0.4h-0.1c-0.8-0.5-1.5-1.3-2.2-2c-1-0.8-1.9-1.8-3.1-1.9
		c-0.6-0.2-1.3-0.3-2-0.2c-0.1,0-0.1,0.1-0.2,0.1c0.1-0.2-0.1-0.3-0.2-0.5c-0.4-0.1,0-0.5-0.3-0.7c-0.1-0.1-0.3-0.2-0.5-0.2
		c-0.2,0.1-0.2-0.2-0.4-0.3c-0.3,0-0.5,0-0.7,0.3c0,0.1,0,0.1,0,0.2c0,0-0.1-0.1-0.2-0.1c-0.2-0.1-0.3,0-0.4,0.1
		c-0.1,0.2,0,0.3-0.1,0.5h-0.2c-0.3,0-0.1,0.3-0.2,0.5c-0.3,0-0.5,0-0.8,0c-0.6,0.2-1.4,0.3-2,0.6c-0.8,0.3-1.6,1-2.2,1.6
		c-0.7,0.9-1.7,1.3-2.5,1.9c-0.2,0.1-0.5,0.3-0.7,0.1l0.1-0.1c0.1-0.3,0-0.6-0.2-0.8c-0.2-0.2-0.5-0.4-0.8-0.3
		c-0.3,0.1-0.6,0.4-0.8,0.7l-0.1-0.1c-0.2-0.6-0.5-1.2-0.9-1.7c-0.3-0.8-1.2-0.6-1.8-0.7c-0.1,0-0.2-0.1-0.3,0h-0.1
		c0.1-0.5,0-1,0.2-1.5c0,0,0,0,0.1,0c0.2-0.2,0.5-0.3,0.8-0.5c0.3-0.4,0.4-0.8,0.4-1.3c-0.3-0.7-0.6-1.3-1.1-1.9
		c-0.3-0.3-0.8-0.1-1.2-0.1c0,0,0,0,0-0.1l-0.2-0.2c0.1-0.6,0-0.6,0-0.6c-0.7,0.1-1.1,0.4-1.6,0.6c-0.2,0.1-0.2,0.5-0.2,0.7v0.1
		c-0.3,0.1-0.7,0.2-1,0.4c-0.7,0.3-0.8,1.1-0.8,1.8c0,0.3,0.2,0.5,0.4,0.6c0.3,0.2,0.7,0.4,1.1,0.4c0.1,0,0.3,0.1,0.3,0
		c0.3,0.1,0.3,0.5,0.4,0.7c0,0.1-0.1,0-0.1,0v0.1c-0.2,0.1-0.4,0.2-0.7,0.2c-0.5,0.2-1,0.3-1.5,0.4c-0.6,0.2-0.9,0.8-1.5,1
		c-0.6,0-0.7,0.6-1.3,0.5c-0.5,0.1-0.7,0.5-0.8,1c0,0.3-0.1,0.6,0.2,0.8c0.3,1.2,0.8,2.4,1.8,3.3c-0.9,0.9-1.8,1.8-2.2,3
		c-0.1,0.1-0.1,0.2-0.1,0.3s0.1,0.2,0.2,0.2c0.8-0.9,1.8-1.7,2.8-2.4c-0.1,0.3,0.2,0.4,0.3,0.7c0,0.1-0.1,0.1-0.2,0.2
		c-0.1,0.1,0.1,0.3,0.2,0.4c0.1,0,0.2,0,0.3-0.1c0.1,0,0.2-0.1,0.3-0.1c0,0.1-0.1,0.1-0.1,0.2h0.1c0.1,0.9,0.2,1.8,0.1,2.6
		c-0.2,1,0.4,2,0.5,3c0.3,1.1-0.4,2.3,0,3.4c0.1,1,0.5,1.9,0.5,2.9c-0.1,0.4,0,0.8-0.1,1.2c0,0.2,0.1,0.4,0,0.6
		c-0.1-0.1-0.2,0-0.3,0c0,0.3,0,0.6,0,1c0.1,0.3,0.5,0.2,0.8,0.3c-0.1,0.3,0,0.7-0.2,1s-0.5,0.5-0.8,0.7c0,0.1-0.1,0.2-0.1,0.3
		c-0.1,0-0.1,0-0.2,0c0.2,0,0.3,0,0.3,0L34.1,450.5z M70.1,435.8c0-0.1,0-0.3,0.1-0.4c0-0.4,0.5,0,0.6,0.2c0.2,0.1-0.2,0.4,0.1,0.6
		c-0.1,0.1-0.1,0.2-0.1,0.4c0.1,0.2-0.1,3.8,0.1,4l0.1,0.1l-0.6,0.5l-0.1-0.1l-0.2,0.1c0-0.1,0-0.1,0-0.2
		C70.1,439.3,70,437.5,70.1,435.8z M61.4,436.6c0.2-0.6,1-0.7,1.4-1.1c-0.4,0.8-0.3,1.7-0.6,2.6c-0.2,0.8-0.2,1.5-0.3,2.4
		c-0.3-0.9-0.6-2-1.4-2.7C61,437.6,61.4,437.1,61.4,436.6z M59.6,435.9c0.1-0.1,0.2-0.1,0.2-0.1c0.1,0,0,0.4,0,0.5
		c0,0.2,0.2,0.3,0.3,0.4h0.3c-0.3,0.2-0.6,0-0.9-0.1l-0.1-0.1l-0.1-0.2C59.6,436.2,59.3,435.9,59.6,435.9z M38.6,430.6
		c0.3,0,0.4-0.2,0.4-0.3c0.3,0.6,0.7,1.2,0.7,1.9c-0.2-0.2-0.5-0.2-0.7-0.1c0,0-0.1,0.1-0.1,0c-0.1-0.2-0.3-0.3-0.5-0.3
		C38.4,431.4,38.5,431,38.6,430.6z M38.2,433.2c0.3,0,0.5-0.1,0.7-0.3c0.6,0.2,0.6,0.9,0.8,1.4c0,0.7,0,1.6-0.7,2.1l-0.2,0.1
		c0-0.1,0.1-0.3,0-0.4c-0.2-0.3-0.4-0.7-0.8-0.6C38.1,434.6,38.2,433.9,38.2,433.2z M35.3,450.5c0.3-0.6,0.5-1.2,0.8-1.8
		c0.1,0.6,0.2,1.3,0.2,1.9C36,450.6,35.6,450.6,35.3,450.5z M35.7,430.1c0.6,0,1.2,0.1,1.7,0.4l0.1-0.1c0.1,0,0,0.1,0,0.2
		c-0.2,1.3-0.3,2.7-0.4,4c0,0.5-0.2,1-0.2,1.5c-0.3-0.8-0.8-1.6-0.9-2.5c-0.1-0.4-0.2-0.7-0.2-1.1c0.1,0,0.1-0.1,0.1-0.2v-0.2
		c0.1-0.7-0.2-1.2-0.3-1.9L35.7,430.1z M29.6,430.3c-0.1,0.1-0.3,0.2-0.4,0.3c-0.2-0.6-0.6-1-0.8-1.6c0.4,0.1,0.9,0,1.2-0.4
		C29.5,429.2,29.6,429.7,29.6,430.3z"/>
	<g id="path390">
		<path fill="#FFD1D1" d="M34.7,421.8c0.1,0.4,0.2,0.7,0,1.1c-0.2,0-0.3,0.2-0.4,0.3c-0.1,0.1,0.2,0.3,0.1,0.3
			c0,0.1-0.2,0.2-0.3,0.2c0,0.1-0.2,0.1-0.4,0.1s-0.5,0-0.7,0.1c0-0.1-0.1-0.2-0.2-0.2c-0.1,0-0.3,0.2-0.3,0.3
			c0-0.1,0.1-0.3-0.1-0.5h-0.1c0-0.1,0-0.2-0.1-0.3l0,0c0,0,0-0.1-0.1-0.1l-0.1,0.1c0.2-0.2-0.1-0.4,0.1-0.5c0-0.3,0.1-0.5,0.1-0.7
			c0.2-0.1,0-0.4,0.3-0.3c0.1-0.1,0.3-0.2,0.3-0.3C33.4,421.3,34.2,421.1,34.7,421.8"/>
	</g>
	<g id="path408">
		<path fill="#FFD1D1" d="M32.4,423.6L32.4,423.6L32.4,423.6C32.3,423.5,32.3,423.5,32.4,423.6"/>
	</g>
	<g id="path410">
	</g>
	<g id="path5101">
		<path fill="#3C3C9E" d="M59.9,435.6c-0.2,0-0.3,0.2-0.5,0.3c-0.1-0.1-0.2-0.4-0.4-0.5c0,0-0.1,0-0.1,0.1l0,0h-0.3
			c-0.2-1.6,1.1-2.8,1.9-3.9c0.1-0.3,0.3-0.7,0.4-1.1c0.5-1.1,0.4-2.5,1.1-3.6c0.4-0.4,1-0.4,1.5-0.7c0,0.4-0.4,0.9-0.1,1.3
			c0.2,0.2,0.6,0,0.7,0.4c-0.2,1.2-0.3,2.4-0.6,3.5c-0.1,0.3-0.1,0.7-0.1,1c-0.1,1-0.4,2-0.5,3c-0.2,0.4-0.7,0.5-1.1,0.7l0,0
			l-0.3,0.4c0-0.4-0.2-0.7-0.6-0.9c-0.1-0.1-0.2,0-0.3,0c0.6-0.9,1.3-1.6,1.7-2.6l0.1-0.1c0.1-1.2,0.3-2.4,0.2-3.6
			c-0.1,0-0.1,0.1-0.1,0.2c-0.1,1.6,0.1,3.4-1,4.7l0,0c-0.3,0.5-0.7,1-1,1.4c-0.1,0-0.3,0.1-0.3,0.2"/>
	</g>
	<g id="path450">
		<path fill="#3C3C9E" d="M65.7,433.4C65.7,433.5,65.7,433.5,65.7,433.4c-0.2,0-0.4,0-0.6,0c-0.3,0.3-0.2,0.8-0.3,1.2h0.1
			C65.2,434.1,65.2,433.6,65.7,433.4L65.7,433.4"/>
	</g>
	<g id="path452">
		<path fill="#3C3C9E" d="M65.8,433.4c0.4-0.3,0.9-0.6,1.4-0.3c0.2,0.2,0.2,0.5,0.2,0.8c-0.1,0.3-0.4,0.4-0.7,0.6
			c0.1,0,0.1,0.2,0.2,0.1c0.2,0.2,0.3-0.1,0.5,0c0.1-0.1,0.3-0.2,0.3-0.3c-0.2-0.6,0.4-1.2-0.1-1.8c-0.5-0.3-1.1-0.1-1.5,0.2
			C65.9,432.7,65.9,433.1,65.8,433.4L65.8,433.4"/>
	</g>
	<g id="path454">
		<path fill="#FFFFFF" d="M65.5,433.3c-0.2,0.1-0.5,0.1-0.6-0.1c-0.1,0.2-0.3-0.1-0.4,0.1c-0.3,0-0.8,0-1.1-0.1
			c0.2-1.8,0.6-3.4,0.8-5.2c0.1,0.3,0.4,0.5,0.7,0.7c-0.3,0.3-0.3,0.8-0.3,1.2c-0.1,0.5-0.5,0.9-0.4,1.5c0.1,0.3-0.4,0.6-0.4,1
			c0.3,0.1,0.4-0.2,0.6-0.3c0,0.1,0.1,0,0.2,0l0.2-0.1c-0.1,0.4-0.2,0.7-0.2,1.1c0.1,0.1,0.3,0,0.4-0.1c0.2-0.1,0.4-0.2,0.6-0.4l0,0
			c0.3-0.2,0.4-0.6,0.6-0.9c0-0.1,0.1-0.2,0-0.4c0-0.5,0-1-0.3-1.4c-0.2-0.4,0.2-0.7,0.1-1.1c0.5-0.2,1-0.8,1.2-1.3
			c0.1,0,0.1,0.1,0.2,0.2c-0.2,1.1,0.1,2.8-0.1,3.9c0,0.2,0.1,0.6-0.2,0.8c-0.6,0.1-1.2,0.3-1.3,1c0,0.1,0,0.1,0,0.2L65.5,433.3"/>
	</g>
	<g id="path458">
		<path fill="#FFFFFF" d="M37.5,427.5c-0.5-0.1-1-0.1-1.5-0.1c0-0.2,0-0.6-0.2-0.7c-0.1,0,0,0.1,0,0.2s0,0.3,0,0.5l0,0
			c-0.1,0.1-0.3,0.1-0.5,0.2s-0.5,0.1-0.6,0.3l-0.3,0.1c0.2-0.1,0.3-0.3,0.4-0.5c0.3-0.4,0.2-1.3,0.9-1.3c0.2,0,0.1-0.2,0.1-0.3
			c-0.3-0.3-0.7-0.7-0.8-1.1c0.6,0.1,1.2,0,1.6,0.3c0.3,0.5,0.1,1.1-0.1,1.6l0.1,0.1c0.2-0.4,0.3-0.8,0.3-1.2l0,0
			c0.2,0.3,0.5,0.5,0.3,0.9c-0.1,0.2-0.3,0.4-0.3,0.7c0.2-0.1,0.3-0.3,0.4-0.5c0-0.1,0-0.2,0.1-0.2c0.2,0.3,0.3,0.7,0.4,1.1v0.2
			c0,0.3,0.2,0.7,0.3,1c-1.1-0.1-2.2-0.2-3.2,0c0-0.1-0.1-0.2,0-0.3c-0.1-0.1-0.1-0.2-0.1-0.3l0.1-0.1l0,0c0.8-0.4,1.6-0.3,2.5-0.2
			L37.5,427.5"/>
	</g>
	<g id="path460">
		<path fill="#FFD1D1" d="M28,428.3c0.2,0.2-0.1,0.4,0.2,0.6c0.1,0.7,0.7,1.2,0.9,1.8c-0.3,0.2-0.5,0.5-0.8,0.7h-0.1
			c-1-0.9-1.4-2.1-1.7-3.2l0,0c0.2-0.3,0.5-0.4,0.9-0.3C27.6,427.8,27.9,428.1,28,428.3"/>
	</g>
	<g id="path462">
		<path fill="#FFD1D1" d="M34.7,428.4c-0.1,0.3-0.5,0.4-0.7,0.6c-0.2,0.2-0.6,0.3-0.5,0.6c0,0.1,0.1,0.1,0.1,0.2
			c-0.1,0.1-0.2,0-0.3,0.1c0-0.4,0.1-0.8,0.3-1.1c0,0,0-0.1-0.1-0.1s-0.2,0.2-0.3,0.3c-0.1,0.3-0.1,0.5-0.1,0.8
			c-0.1,0-0.2-0.1-0.3-0.1c-0.2-0.4,0.2-0.9,0.5-1.2c0,0,0-0.1-0.1-0.1c-0.4,0.4-0.7,0.7-0.6,1.3c-0.1,0.1-0.2-0.1-0.2-0.1
			c-0.2-0.5,0.1-0.9,0.3-1.2c0-0.1-0.1,0-0.1,0c-0.4,0.3-0.5,0.8-0.4,1.2c0-0.2-0.3-0.5-0.1-0.8c0.4-1,1.6-0.7,2.4-0.8
			C34.7,428,34.7,428.3,34.7,428.4"/>
	</g>
	<g id="path470">
		<path fill="#3C3C9E" d="M65.8,429.8c0.4,0.7,0.3,1.6-0.1,2.3c-0.2,0.4-0.5,0.6-0.9,0.8c0.1-0.4,0.2-0.9,0.5-1.2v-0.1l0,0
			c0,0,0.1-0.1,0.1-0.2l0,0c0-0.1,0-0.2,0.1-0.3c0.2-0.8-0.2-1.5,0-2.3c0.2,0.1,0.2,0,0.4,0C66,429,65.6,429.4,65.8,429.8"/>
	</g>
	<g id="path472">
		<path fill="#3C3C9E" d="M65.3,428.7c-0.2,0.8,0.3,1.8-0.1,2.5c-0.1,0.2-0.1,0.5-0.3,0.6c-0.3,0-0.6,0.2-0.7,0.4
			c0.5-0.4,0.2-0.9,0.4-1.4c0.2-0.5,0.4-0.9,0.4-1.5C64.9,429.1,64.9,428.7,65.3,428.7"/>
	</g>
	<g id="path474">
	</g>
	<g id="path476">
	</g>
	<g id="path478">
	</g>
	<g id="path498">
		<path fill="#FFD1D1" d="M29.7,432.2c0,0.1,0.1,0.3,0.1,0.4c0,0,0,0.4,0.1,0.5c0,0.3-0.2,0.4-0.5,0.5c-0.1,0.1-0.2,0.1-0.3,0.1
			c0-0.1-0.2-0.1-0.2-0.2c0.1,0,0.2-0.1,0.2-0.1c0-0.1,0-0.2,0-0.2c0,0.1,0.1,0.2,0.2,0.2c0-0.1,0-0.2-0.1-0.2c0.1,0,0,0.1,0.1,0.1
			c0-0.2-0.1-0.2-0.2-0.4c0-0.1,0-0.1,0-0.1l0,0v-0.1l0,0h-0.2v-0.1l-0.1,0.1v0.1c0,0-0.1,0,0-0.1c0.1,0,0-0.1,0-0.1
			c0.2-0.2,0.4-0.3,0.6-0.5L29.7,432.2"/>
	</g>
	<g id="path502">
		<path fill="#FFFFFF" d="M35.5,430.1c-0.7,0-1.4,0.1-2,0.2c-1.4,0.2-2.6,0.9-3.8,1.6v0.1c0.1,0.2,0.1,0.3,0.2,0.5
			c0.1,0,0.2-0.1,0.2,0l-0.1-0.1l0.1-0.1l0.4,0.1l0,0c0.1,0,0.2,0.1,0.3,0c-0.1,0-0.2-0.1-0.2-0.2c0-0.1-0.2-0.3-0.1-0.4
			c0.1,0,0.1,0.1,0.1,0.2c0.3,0.5,0.9,0.3,1.4,0.4c0.7,0.3,1.3-0.3,1.8-0.8H34c-0.1,0.1-0.3,0.3-0.5,0.5c0.6-0.1,1,0.4,1.6,0.1
			c0.1-0.2,0.4,0,0.5-0.1l0,0C36.1,431.5,35.7,430.9,35.5,430.1c0.1,0,0-0.1,0-0.2V430.1"/>
	</g>
	<g id="path514">
	</g>
	<g id="path518">
	</g>
	<g id="path524">
	</g>
	<g id="path552">
	</g>
	<g id="path570">
		<path fill="#FFD1D1" d="M66,436.4L66,436.4c-0.2-0.1,0.2-0.5,0.2-0.5s0.3-0.8,0.2-1.2c-0.1-0.4,0.5-0.6,0.7-0.8
			c0.1-0.1,0-0.4,0-0.5c-0.1-0.1-0.1-0.3-0.3-0.3c-0.4-0.1-0.8,0.2-1.1,0.4c0,0.2-0.3,0-0.4,0.3c-0.3,0.6-0.6,1.3-0.6,1.9
			c0,0.2,0.2,0.3,0.3,0.4c0.2,0,0.2,0.1,0.3,0.1l0,0"/>
	</g>
	<g id="path580">
		<path fill="#3C3C9E" d="M64.4,433.3c-0.1,0.4-0.2,0.8-0.2,1.3c-0.4,0-0.7-0.1-1.2-0.1c0.1-0.4,0.2-0.8,0.2-1.2
			C63.7,433.3,64.1,433.3,64.4,433.3"/>
	</g>
	<g id="path596">
		<path fill="#FFFFFF" d="M64.7,433.3c0,0.1,0,0.1,0,0.2c0.1,0,0.1-0.2,0.3-0.2c-0.3,0.4-0.2,1-0.3,1.4c-0.1,0-0.2-0.1-0.2-0.2
			C64.4,434,64.5,433.7,64.7,433.3L64.7,433.3"/>
	</g>
	<g id="path654">
	</g>
	<g>
		<path fill="#C5C5C5" d="M68.3,436.1c0.3,0.2,0.4,4.3,0.3,4.5c0.2,0.1,0.8,0.7,0.8,0.8l0.1-0.1c0.1,0,0.2,0.1,0.3,0.2
			c0-0.5,0-1.1,0-1.7c0-1.6-0.1-2.8,0.1-4.4c-0.4,0.1-0.7-0.1-1.2-0.1c0,0.1,0,0.2,0,0.2s0-0.1-0.1-0.1c0-0.1-0.1-0.4,0.1-0.5
			c0,0,0,0,0-0.1h-0.3c-0.1,0.2-0.2,0.3-0.1,0.5C68.2,435.6,68.4,435.8,68.3,436.1z"/>
		<path fill="#C5C5C5" d="M74.1,445.5c0-0.7-0.2-1.3-0.4-1.9l-1.2,1.8c-0.2,0.3-0.2,0.6-0.2,0.9c0,0.1,0.6,0.6,0.4,0.7
			c-0.2,0.2,0,0.4-0.1,0.7c-0.6,0.7-1.1,1.8-2.2,2.1c-0.2,0.1-0.4,0.1-0.5-0.1c0-0.1,0.1,0,0.2,0c-0.1-0.1-0.2-0.2-0.2-0.3
			c0-0.1,0-0.1,0-0.2c-0.1,0.1-0.1,0-0.2,0c-0.2,0.4-0.6,0.3-0.9,0.3c-0.2-0.2-0.3-0.6-0.2-0.4v-0.6c0-0.6,0-0.7,0-0.8
			c0.1-0.4-0.4-0.8,0-0.7c0-0.2-0.2-0.3-0.3-0.4c0,0.1-2.9-4.7-2.9-4.7c-0.1-0.2-0.3-2.7-0.2-2.6c0.4-0.6-0.3-1.1-0.5-1.7v-0.1
			c0.1,0,0.2,0.1,0.2,0.1c0-0.1,0-0.2,0.1-0.2c-0.1-0.2,0.1-0.3,0-0.5h0.4c0.2,0.2,0.4,0.4,0.4,0.7c-0.2,0.2-0.1,0.4,0,0.6
			c0,0.2,0.1,0.4,0,0.6c0,0.1-0.1,0.3-0.1,0.5c-0.2,0.4,0,0.8-0.3,1.3c-0.2-0.1,0.4,1,0.5,1.5c0.1,0.1,0,0.2,0.1,0.2
			c0,0.2,0.2,0.2,0.2,0.4c0.4,0.4,0.5,1,1,1.4c0,0.2,0,0.2,0.1,0.3c0.3,0.4,0.6,0.7,0.7,1.1c0.2-0.1,0.3-0.2,0.4-0.4
			c-0.1,0.1,0.2-3.1,0.2-3.2c-0.1,0.1-0.6-0.9-0.9-0.9c-0.1-0.2-0.1-4.9-0.1-5l-0.1-0.1c0,0,0-1.2,0-1.3c-0.1,0-0.7,0.3-0.4,0.1
			c-0.1,0-0.1,0-0.2,0c0,0-0.2,0-0.2,0.1c-0.2,0.4-0.2,0.9-0.4,1.3c-0.1,0.1-0.1,0.3-0.3,0.4c-0.1,0-0.2-0.1-0.3-0.2
			c-0.1,0.1-0.2,0.1-0.3,0.1l-0.2,0.2c-0.2-0.1-0.4-0.3-0.5-0.5c-0.1-0.3-0.1-0.7,0.1-1.1c-0.4,0-0.6-0.1-0.9-0.1
			c-0.3,0-0.6-0.1-0.9-0.1c0,0.4,0,0.7-0.1,1.1c-0.3,0.3-0.3,0.8-0.3,1.1c-0.1,0.5-0.3,1-0.3,1.5c-0.3,0.9-0.2,1.7-0.4,2.7
			c0.2,0.6,0.2,1.2,0.2,1.9c-0.2,0.4,0.3,0.7,0.5,1c0.5,0.6,0.9,1.2,1.5,1.8c0.1,0.1,0.1,0.3,0.3,0.3c0.1,0.1,0.1,0.2,0.2,0.2
			c0-0.3,0.2,0.1,0.5,0.6c0.5,0.1,1.5,1.6,1.8,2.2c0.2,0.4,0.5,0.8,0.9,1.1c0.5,0.4,1.2,0.2,1.7,0.3c0.4-0.1,0.8,0.2,1.1-0.1
			c1-0.9,2-2.1,2.5-3.3c0.1-0.2,0.3-0.2,0.5-0.2C74.3,446.8,74.1,445.9,74.1,445.5z"/>
		<path fill="#C5C5C5" d="M69.9,441.9C70,441.9,70,441.9,69.9,441.9c-0.2-0.3-0.2,0.2-0.5,0.1c-0.1,0-0.1-0.1-0.1-0.2
			c0,0-0.1,0.6,0,0.2c0.1,2.1,0,3.9,0.1,6.1c0,0.2,0,0.4,0.1,0.6c0.1,0.2,0.2,0.4,0.3,0.4h0.1c-0.1-0.8-0.1-1.4-0.1-2.2
			C69.8,445.1,70,443.6,69.9,441.9z"/>
		<path fill="#C5C5C5" d="M69.9,449.1C69.9,449.2,69.9,449.2,69.9,449.1C69.9,449.2,69.9,449.2,69.9,449.1
			C69.9,449.2,69.9,449.2,69.9,449.1z"/>
	</g>
	<g id="path660">
	</g>
	<g id="path670">
		<path fill="#FFD1D1" d="M59.1,435.7c0.1,0.1,0.2,0.3,0.1,0.4c-0.3,0.1-0.5,0.4-0.7,0.6c-0.3,0.1-0.5,0.4-0.8,0.5
			c-0.1-0.2,0.1-0.3,0.1-0.5c0.2-0.1,0-0.3-0.1-0.4c-0.2-0.1-0.3,0-0.5,0c0,0.2-0.1,0.4-0.3,0.5c0.1-0.4,0.2-0.8,0.6-1
			c0.2-0.1,0.7,0,0.9-0.2c0,0,0,0.1,0.1,0.1s0.1,0,0.1-0.1C58.8,435.6,59,435.7,59.1,435.7"/>
	</g>
	<g id="path684">
	</g>
	<g>
		<path fill="#6F513E" d="M37.9,430c-0.2,0.1-0.5,0.2-0.5,0.4c0.1-0.1,0.1,0,0.2,0c0.1,0.1,0.1,0.2,0,0.2c0,0.9-0.2,1.6-0.2,2.5
			c0,0.9-0.2,2-0.2,2.8c0.1-0.3,0.4-0.4,0.7-0.4c0.1-0.8,0.1-1.5,0.2-2.3c-0.3-0.1-0.5-0.4-0.5-0.6c0-0.2,0-0.4,0.1-0.6
			c0.1-0.2,0.4-0.3,0.6-0.3c0.1-0.4,0.2-0.8,0.3-1.3c0-0.1,0.1-0.1,0.1-0.2C38.6,429.9,38.3,429.9,37.9,430z"/>
		<path fill="#6F513E" d="M37.4,437.3L37.4,437.3L37.4,437.3L37.4,437.3h-0.2l-0.1-0.1c0.1,0,0.1,0,0.1-0.1
			c-0.1-0.2-0.2-0.5-0.1-0.7c-0.3-0.8-1-2.8-1.1-3c-0.1,0-2.1-1-2.1-1s-3.4,0.4-3.6,0.5c0.2,0.1,0.3,0.3,0.1,0.3c0,0,0,1.3-0.2,1.4
			c0.1,0.1,0,1.2,0.1,1.4c-0.1,1.1,0.3,2.1,0.5,3.1c0.2,0.9-0.2,1.7-0.2,2.6c0.1,0.9,0.4,1.7,0.5,2.5c0.2,0.9,0,1.6,0,2.5
			c0,0.1,0.1,0.2,0,0.3c0.5-0.1,1.1,0.3,1.6-0.1c0.1-0.1,0.3,0,0.3-0.1c0.1,0,0.2,0,0.3,0c0.1,0.1-0.1-2.2-0.1-2.2
			c0.2-0.1,0-2,0-2.1c0.1-0.1,0.3-3.3,0.4-3.4c0.2-0.1,0.3-0.4,0.3-0.4c-0.1,0,0-0.3,0.2-0.3c0.1-0.3,2.4,6.9,2.4,6.9v-5.7
			c0.4-0.5,0.2-1.2,0.5-1.7c0.2-0.2,0.3-0.3,0.6-0.5c0,0,0,0-0.1,0C37.4,437.4,37.4,437.4,37.4,437.3z"/>
	</g>
	<g id="path748">
		<path d="M54.8,437.9L54.8,437.9"/>
	</g>
	<g id="path852">
		<path fill="#C5C5C5" d="M69.1,442.5c0,2.4,0,4.3,0.1,6.6c0.1,0.3,0.2,0.5,0.3,0.7c-0.1,0.2-0.3,0.3-0.5,0.3
			c-0.3,0.1-0.4-0.3-0.5-0.4c0.9-0.5,0.3-1.4,0.5-2.2c0-0.8,0-1.6-0.2-2.3c0-0.9-0.1-2.1,0-3L69.1,442.5"/>
	</g>
	<g id="path866">
	</g>
	<g id="path888">
		<path fill="#9ED9FF" d="M60.3,453.3c0-0.1-0.1-0.2-0.1-0.3c-0.1-0.5-0.3-0.9-0.6-1.3c0.7,0.1,1.4,0.2,2,0.5c0,0.2-0.9,1.1-1.1,1.3
			L60.3,453.3"/>
	</g>
	<g id="path904">
		<path fill="#FFFFFF" d="M68.6,445.2L68.6,445.2L68.6,445.2C68.6,445.1,68.6,445.2,68.6,445.2"/>
	</g>
	<g id="path916">
		<path fill="#FFFFFF" d="M68.1,445.8L68.1,445.8L68.1,445.8C68.2,445.8,68.1,445.8,68.1,445.8"/>
	</g>
	<g id="path938">
		<path d="M36.2,448.4c0.3,0.7,0.2,1.3,0.4,2.2c0,0,0.8,0,1.1,0.1c-0.1-0.1,0-0.2,0.1-0.3c0.2,0,0.4,0.2,0.6,0.4
			c0.1,0,0.4-0.1,0.5,0c-0.6-0.6-0.9-1.5-1.4-2.2c-0.3,0-0.8,0.1-1.1,0L36.2,448.4"/>
	</g>
	<g id="path1000">
		<path d="M36.3,451.7L36.3,451.7"/>
	</g>
	<g id="path1020">
	</g>
	<g id="path1038">
	</g>
	<g id="path1068">
	</g>
	<g id="path1092">
	</g>
	<g id="path1150">
		<path d="M63.3,454.9L63.3,454.9"/>
	</g>
	<g id="path1162">
		<path d="M63.4,455.3L63.4,455.3"/>
	</g>
	<g id="path1174">
	</g>
	<g id="path1186">
	</g>
	<g id="path1218">
	</g>
	<g id="path1232">
	</g>
	<g id="path1238">
	</g>
	<path fill="#9ED9FF" d="M71.9,452.8c0-0.3,0-0.5-0.2-0.7c-0.1-0.1-0.1-0.1-0.2-0.1c0-0.1,0-0.1,0-0.2c-0.1-0.2-0.4-0.3-0.7-0.5
		c-1.1-0.3-2.5-0.2-3.8-0.2c-0.3,0.1-0.5,0.1-0.8,0.1l-2.6-0.2h-0.1c-1.3,0-2.6,0-3.8,0c-0.2,0-0.4,0.1-0.4,0.3l0,0
		c0,0-0.1,0-0.1,0.1c0,0.1,0.1,0.1,0.2,0.1c0.1,0.1,0.3,0.2,0.3,0.4c0.2,0.4,0.4,0.9,0.5,1.3v0.3c-0.6,0.4-1.3,0.7-1.9,1.2
		c-0.9,0.4-1.7,0.9-2.6,1.1c-1,0.3-2.1,0.6-3.1,0.8c-0.9,0.3-2,0.3-2.8,0.4c-1.5,0.1-2.9-0.3-4.2-0.5c-1.7-0.3-3.2-1.2-4.8-1.9
		c-0.8-0.4-1.6-0.8-2.2-1.4c-0.2-0.1-0.3-0.2-0.5-0.3l0.1-0.3c0.2-0.5,0.5-1,0.7-1.4c0-0.1,0-0.2,0-0.3H39l-2.6-0.3l-2-0.1l0,0
		c-0.1,0-0.2,0-0.3,0l-2.7,0.3l0,0c-0.4,0-1,0-1,0h-0.2c-1.1-0.1-2.5-0.3-3.7,0.4l-0.2,0.1c-0.1,0.2-0.1,0.4,0,0.6
		c0.1-0.1,0.1-0.1,0.1-0.2l0.1-0.1c0,0.3,0.2,0.6,0.3,0.8c0.3,1.7,0.7,3.3,1.2,5c0,0.2,0,0.5,0.3,0.5c0.3,0.1,0.6,0,0.9,0
		c0.4-0.1,0.1-0.5,0.2-0.8c1.3,0,2.5,0,3.7,0.1c0,0.1,0,0.2-0.2,0.2c-0.1,0.3,0.1,0.5,0.3,0.7l0,0c1.2,1,2.3,1.9,3.6,2.6
		c1.2,0.5,2.3,1.2,3.6,1.7c1.1,0.5,2.2,0.9,3.4,1.3c0.3,0,0.5,0.2,0.8,0.2c0.9,0.3,1.8,0.4,2.8,0.4c1.8,0,3.2,0,4.9-0.1
		c0.7-0.1,1.4-0.2,2.1-0.4c0.7-0.2,1.4-0.4,2-0.6c1.9-0.5,3.7-1.1,5.4-2.2c1.2-0.8,2.5-1.3,3.5-2.4c0.4-0.3,0-0.6,0-0.8
		c0.4,0,1,0,1.3,0c0.8-0.1,1.6-0.1,2.4-0.1c-0.1,0.3,0.1,0.4,0.3,0.6c0.3,0.2,0.6,0.2,0.9,0.1c0.2-0.1,0.2-0.3,0.4-0.4
		c0.3-1.8,0.9-3.4,1.3-5C71.9,452.9,72,452.8,71.9,452.8z"/>
	<g id="path1392">
		<path fill="#FFD1D1" d="M33.6,427.7c0.5-0.6,1-1.1,1.1-1.9c-0.1-0.3-0.1-0.7-0.3-1c-0.1,0.1-0.2,0-0.2,0.1c0-0.1-0.1,0-0.2,0
			c-0.4,0.1-0.8,0.1-1.1,0c-0.2,0-0.3-0.1-0.5-0.2l-0.1-0.1c-0.1,0.3,0,0.5,0.1,0.8c0.4,0.6,0.8,1.3,0.9,2l0.1,0.3L33.6,427.7"/>
	</g>
	<g id="path1394">
		<path fill="#FFFFFF" d="M34.6,424.6c-0.1,0.1-0.2,0.1-0.1,0.2c0.2,0.4,0.4,1,0.2,1.4c-0.1,0.2-0.2,0.5-0.4,0.7
			c-0.2,0.3-0.5,0.5-0.7,0.8h-0.1h-0.2c-0.3-0.5-0.4-1.2-0.7-1.7c-0.3-0.5-0.7-1.1-0.5-1.6l-0.1-0.2c-0.1,0-0.1,0.2-0.2,0.2
			c-0.3,0.6-0.6,1.1-0.7,1.7c0.3,0,0.7-0.1,0.9,0.2c0.4,0.2-0.1,0.7,0.4,0.8l0.5,0.7v0.1c-0.1,0-0.1-0.1-0.1-0.2
			c-0.2-0.2-0.3-0.6-0.6-0.7c-0.1-0.2,0-0.4-0.1-0.6c-0.2-0.4-0.7-0.2-1-0.2c-0.2-0.5,0.2-0.9,0.4-1.4l0,0l0.2-0.4
			c-0.2,0-0.4,0.1-0.6,0.1c-0.6,0.4-1.6,0.1-2.1,0.8c-0.3,0.2-0.4,0.6-0.7,0.8c-0.3,0.4,0.1,0.7,0.1,1c-0.1,0-0.1-0.2-0.2-0.3
			c-0.1-0.2-0.2-0.4-0.1-0.6c0-0.2,0.2-0.4,0.3-0.5c-0.2,0-0.4,0.1-0.6,0.1c-0.3,0.3-0.7,0.5-1.1,0.5c-0.4,0.2-0.6,0.7-0.6,1.1
			c0,0.2,0,0.3,0.1,0.4c0.1-0.2,0.3-0.3,0.5-0.3c-0.2-0.3,0-0.5,0.1-0.7c0.1-0.1,0.3-0.3,0.4-0.2c-0.2,0.1-0.5,0.3-0.5,0.6v0.3
			c0.4-0.1,0.8,0,1.1,0.3c0.5,0.3,0,1,0.7,0.9c0.4,0.1,0.8-0.3,1-0.6c0.1-0.5,0.3-0.9,0.6-1.2c0,0.2-0.2,0.5-0.3,0.7
			c-0.2,0.4-0.1,0.8-0.2,1.2c0,0.4-0.1,0.8,0,1.2c0.7-0.5,1.5-0.7,2.2-1c0.1-0.1-0.1-0.2,0-0.3c0.3-0.4,0.7-0.9,1.3-0.8
			c0.2-0.1,0.7,0,1,0l0,0l0,0c0-0.1,0.1-0.1,0.2-0.3c0.5-0.5,0.4-1.2,0.9-1.6c0.1,0,0.3,0,0.4-0.1c0-0.3-0.4-0.5-0.6-0.7
			C34.9,425,34.7,424.8,34.6,424.6L34.6,424.6"/>
	</g>
	<g id="path1396">
		<path fill="#3C3C9E" d="M68.3,425.7c0.4,0.3,0.9,0.1,1.3,0.3c1.1,0.6,1,2.1,1,3.1c0.3,1.1,0.7,2.2,0.5,3.3c-0.3,1-1.3,1.3-2.1,1.4
			l0,0c-0.4,0-0.7,0.2-1.1,0.3c-0.1-0.3-0.1-0.6,0-0.8c0.1-0.3,0.2-0.6,0.1-0.9s-0.3-0.4-0.6-0.4c0.6-0.2,1.3-0.5,1.8-0.8
			c-0.2-0.6,0-1.2-0.2-1.7c0-0.2,0.1-0.5,0-0.7c-0.1,0.3-0.1,0.5-0.1,0.9c0.1,0.5,0,0.9,0.1,1.5c-0.1,0.2-0.3,0.1-0.4,0.2
			c-0.2,0.1-0.6,0.2-0.8,0.3c-0.2,0.1-0.5,0.1-0.7,0.2c0.2-1.4,0-2.9,0.1-4.3l0,0l0,0h0.1c-0.1-0.1-0.1-0.2-0.1-0.4
			c0.1,0,0.3,0,0.5,0c0.3-0.2,0.3-0.5,0.3-0.8c0.1-0.3,0-0.5,0.1-0.8L68.3,425.7"/>
	</g>
	<g id="path1398">
		<path fill="#FFFFFF" d="M66.9,424.9C66.9,424.8,66.9,424.8,66.9,424.9c0-0.1,0.1-0.1,0.1-0.2l0.1,0.1c0.3,0.2,0.6,0.5,0.9,0.8
			c0.2,0.5,0.1,1.2-0.1,1.7c-0.3,0.3-0.6-0.2-0.9,0c-0.1,0.5-0.6,1-1,1.2c-0.2,0.2-0.7,0-0.9,0.2c-0.5-0.1-0.7-0.7-1-1
			c-0.1-0.1-0.4,0-0.5-0.1c-0.1-0.2-0.1-0.3-0.1-0.5c0.1-0.1,0.1-0.3,0.1-0.5c0-0.7,0.8-0.9,1.3-1.2v0.1c-0.1,0-0.1,0.1-0.1,0.2
			c-0.2,0.9-0.3,2.2,0.3,2.9c0.1-0.2,0.2-0.1,0.3-0.1c0.8-0.3,1.3-1.2,1.5-1.9c0.2-0.5,0.3-1,0-1.5L66.9,424.9"/>
	</g>
	<g id="path1408">
		<path fill="#FFFFFF" d="M64.8,423.3L64.8,423.3L64.8,423.3"/>
	</g>
</g>
<path fill="#FFE84F" d="M52.8,23.2c-2.5-1.7-3-3.3-3-3.3s-1.6,2.2-3.3,3.5s-3.8,1.8-3.8,1.8s1,1.5,1.7,4s0.8,3.7,0.8,3.7l9.5-1.3
	c0,0,0.1-0.6,0.5-2.5c0.5-1.9,2-3.4,2-3.4S55.3,24.9,52.8,23.2z"/>
<g>
	<path opacity="0.2" enable-background="new    " d="M10.4,74.2V25.8c0-12.1,8.2-22.7,19.8-25.8H0v99.9h30.2
		C18.5,96.8,10.4,86.2,10.4,74.2z"/>
	<path opacity="0.1" fill="#FFFFFF" enable-background="new    " d="M89.6,25.8v48.5c0,12.1-8.2,22.7-19.8,25.8H100V0.1H69.8
		C81.5,3.1,89.6,13.7,89.6,25.8z"/>
</g>
<path fill="#FF163C" d="M57.4,32.6c-0.3-0.4-0.8-0.6-1.3-0.8c-0.1,0.1-0.5,0-1,0s-0.9,0-1.3,0.2c-0.3,0-0.5,0.1-0.8,0.1
	c0,0,0,0-0.1,0c-0.6,0.1-1.2,0.3-1.9,0.4c-0.2,0-0.3,0.1-0.5,0.2c-1.4,0.5-3,0.7-4.6,0.9h-0.1h-0.1c-0.7,0.1-1.4,0.3-2.1,0.2
	c0.2-0.2,0.3-1,0.3-1c0-0.1-0.3-0.2-0.3-0.3l0,0v-0.1c0,0-0.1-0.1-0.1,0c-0.1,0-0.1-0.1-0.2-0.1c-0.5-0.1-1.4-0.1-1.8,0.4
	c-0.1,0.2-0.1,0.4-0.1,0.6c0.2,0.4,0.3,0.9,0.4,1.3c0.2,0.5,0.2,1.2,0.1,1.7v0.1c0,0.3,0,0.6-0.1,0.9c0.8,0.4,1.6,0.7,2.5,0.7
	c1.8,0.2,3.6-0.2,5.3-0.7c0.4-0.1,0.8-0.3,1.2-0.4c0.1,0,1.7-0.5,1.9-0.6h0.1c0.2,0,0.3-0.1,0.5-0.1c0.1,0,0.2,0,0.3-0.1
	c0.3-0.1,0.7-0.1,1-0.1c-0.3,0.4-0.6,1-0.8,1.4c0.4,0.2,0.8,0.3,1.2,0.3c0.3,0,0.6,0,0.9-0.1c0.2-0.1,0.4-0.3,0.4-0.6
	c0-0.1-0.1-0.2-0.1-0.4c0,0,0,0.1-0.1,0.1c0-0.4,0.1-0.7,0.3-1.1c0.1-0.2,0.2-0.5,0.3-0.7c0.5-0.4,0.9-1,1.1-1.6
	C57.8,32.9,57.6,32.7,57.4,32.6z"/>
<path fill="#FFFFFF" d="M69.1,37.9c-0.1-0.1-0.3-0.2-0.5-0.3l-0.9-0.2v-0.1l0,0c0-0.4,0.2-0.7,0-1c-0.3-0.1-0.6-0.2-0.9-0.1
	c-0.5-0.1-1.3-0.4-1.8,0c-0.1,0.3-0.3,0.6-0.3,0.9c-0.1,0-0.2,0-0.3,0c-0.5,0.2-1.2,0.3-1.5,0.8c0,0.4,0.3,0.9,0.7,1.1
	c0-0.2,0-0.3,0.1-0.5c0.7-1,2-1.1,3.2-0.8c0.7,0.2,1,0.9,1.1,1.6c0.4-0.1,0.8-0.3,1.1-0.7c-0.1-0.2,0.2-0.1,0.2-0.3
	C69.4,38.2,69.2,38,69.1,37.9z"/>
<path fill="#FFD1D1" d="M66.8,40.9l0.1-0.4c0,0,0,0,0.1,0.1c0.2-0.3,0.5-0.6,0.4-1c0,0.2-0.1,0.3-0.3,0.4c-0.2-0.1,0.1-0.4-0.2-0.3
	c0-0.2,0.2-0.4,0-0.6c0.1-0.2-0.1-0.4,0.1-0.5c0-0.1-0.1-0.2-0.2-0.2c-0.2,0-0.5-0.3-0.8-0.1c-0.1,0-0.3,0.2-0.5,0.1
	c-0.2-0.1-0.1-0.3-0.3-0.4c-0.2,0-0.3,0.2-0.5,0.2v-0.1c-0.1,0.1-0.4,0.2-0.2,0.3c-0.2,0.2-0.1,0.5-0.2,0.8c0.1,0.2,0,0.6,0.2,0.8
	c0.2,0.4,0.4,0.7,0.4,1.1c0.1,0.1,0.1,0.2,0.2,0.3v0.1l0,0c-0.2,0.4-0.2,1-0.2,1.3c0,0.5,0.2,1,0.4,1.5c0.2-0.1,0.4-0.2,0.6-0.3
	c0.6-0.5,0.9-1.2,1.1-1.9c0-0.2,0.2-0.4,0-0.6C67,41.4,66.8,40.9,66.8,40.9z"/>
<path fill="#FFE84F" d="M61.7,55.7c-0.4-0.8-0.6-1.6-1.2-2.1h-0.1c0.1,0,0.2,0,0.3-0.1c0.5-0.2,0.7-0.8,0.6-1.3
	c0-0.3-0.3-0.6-0.6-0.7c-0.3,0-0.5,0-0.6,0.2c-0.2,0.2-0.2,0.4-0.1,0.6c0.1,0.2,0.4,0.2,0.5,0.2c0-0.1,0-0.3,0-0.4
	c0,0,0.1,0,0.1,0.1c0.1,0.3,0,0.5-0.2,0.7c-0.2,0-0.5,0.1-0.7,0c-0.1,0-0.2,0-0.2-0.1l-0.3-0.2l-0.1-0.2c-0.2,0.2-0.3,0.4-0.6,0.5
	c0,0,0,0,0,0l-0.1,0.1c0,0,0,0,0,0c-0.2,0.1-0.3,0.2-0.5,0.2c-0.4-0.2,0-0.5,0-0.8c0-0.1-0.1-0.1-0.2-0.2l-0.1,0.1
	c0,0-0.1,0.3-0.1,0.4c0,0.1-0.1,0.1-0.1,0.2c-0.1-0.1-0.2,0-0.4,0.1c-0.1,0-0.1-0.1-0.1-0.1s0-0.1,0-0.2c0.1-0.2,0.1-0.4,0.2-0.6
	c0,0,0.1-0.1,0.1-0.2c0.2,0,0.3-0.3,0.4-0.4l0.1,0.1c0.2-0.1,0.5-0.1,0.8-0.2c0-0.1-0.1-0.2-0.1-0.3l0-0.2c0,0.1,0.1,0.2,0.1,0.3
	c0.1,0,0-0.3,0.1-0.5c0.1-1.3,1.2-2.3,1.9-3.4c-0.3-0.1-0.5,0-0.7,0.2c0,0,0,0,0,0l0.1-0.1c-0.2-0.2-0.5,0-0.7,0c0,0,0,0,0,0
	c0,0-0.1,0-0.1,0c0.8-1.3,1.8-2.6,1.4-4.3c-0.1-0.3-0.3-0.5-0.6-0.5c-0.3-0.1-0.6,0-0.8,0.2c-0.2,0.1-0.2,0.3-0.2,0.5
	c0,0.2,0.2,0.3,0.3,0.4c0.4,0.2,0.6-0.4,0.8-0.5c0.1,0,0.1,0.1,0.1,0.2c0.1,0.2-0.1,0.3-0.2,0.1c-0.1,0.1-0.1,0.2-0.2,0.3
	c-0.5,0.3-1-0.3-1.4-0.5c-1.3-1.1-2.4-2.3-3.7-3.2c-0.8-0.3-1.6-0.5-2.5-0.7c-0.3,0.1-0.6,0-0.9,0.3c-0.1-0.1-0.1-0.1-0.2-0.2
	c0,0,0,0,0,0c0-0.1,0-0.1,0-0.2c-0.1-0.1-0.2-0.3-0.4-0.3c0,0,0-0.1,0-0.1c0,0,0,0,0,0c0-0.1,0-0.3-0.1-0.4c0-0.1-0.2-0.1-0.3-0.2
	c-0.1,0-0.1,0.1-0.2,0.2c0,0,0,0,0,0c0,0-0.1,0-0.1,0c0,0,0-0.1,0-0.1c-0.1-0.3-0.3-0.2-0.5-0.1c-0.2,0.1-0.2,0.2-0.2,0.3
	c0,0-0.1,0-0.1,0c0,0-0.1,0-0.1,0c0,0,0,0,0,0c-0.1-0.1-0.2,0-0.3,0c-0.2,0.1-0.2,0.2-0.2,0.3c0,0-0.1,0.1-0.1,0.1
	c0,0-0.1,0-0.1,0.1c-0.1,0-0.1,0-0.2,0c-0.2,0-0.2,0.2-0.2,0.3c0.1,0,0.1,0,0.2,0c0,0.1-0.1,0.1-0.1,0.2c-0.5,0-0.9,0-1,0
	c-0.2,0-0.4,0.1-0.5,0.1c-0.2,0.1-0.6,0-0.8,0.2c-0.2,0-0.4,0.2-0.5,0.2c-0.4,0.2-0.9,0.4-1.3,0.8c-0.6,0.6-1.3,1.2-1.9,1.7
	c-0.7,0.4-1.3,1-2.1,1.1c-0.1-0.1-0.2-0.1-0.4,0c0-0.1,0-0.2,0.2-0.2c0.1-0.3,0-0.6-0.2-0.8c-0.2-0.1-0.4-0.3-0.5-0.6
	c-0.1,0-0.3,0.1-0.4,0.3c-0.5,0.6-0.2,1.2,0,1.8c0.1,0.5,0.3,0.9,0.6,1.3c0.1,0.1,0.3,0.3,0.4,0.4c0.3,0.6,0.6,1.2,0.6,2l0.2,0.2
	c0,0,0,0,0,0c0,0.1,0,0.2,0,0.3c-0.1-0.2-0.2-0.5-0.4-0.6c-0.2-0.2-0.4-0.1-0.6,0c-0.2,0.1-0.2-0.1-0.3-0.2c-0.1,0-0.3-0.2-0.4-0.1
	c-0.1,0-0.1-0.1-0.1-0.1c-0.2,0-0.4,0.2-0.5,0.4c0,0.3,0,0.6,0.3,0.8c0.3,0.2,0.6,0,0.8-0.2c0.6,0.2,0.8,0.8,0.9,1.3
	c0.1,1.1,0,2.2-1,2.7c-0.2,0.1-0.4,0.2-0.6,0.2s-0.3-0.2-0.4-0.3c0-0.1,0-0.2-0.1-0.2c0-0.1,0.1-0.2,0.2-0.3c0.1,0,0.1-0.1,0.2,0
	c0,0.1-0.1,0.1-0.1,0.2c0,0.1,0,0.3,0.2,0.4c0.1,0,0.3-0.1,0.4-0.1c0.1-0.1,0.2-0.3,0.2-0.4c0-0.2-0.2-0.5-0.5-0.6
	c-0.3,0.1-0.7-0.1-0.9,0.2c-0.3,0.3-0.2,0.6-0.2,0.9c-0.1,0-0.1,0-0.1,0c0,0.2,0,0.3,0.1,0.4c0.1,0.1,0.3,0.2,0.4,0.3
	c0.1,0.3,0.2,0.5,0.2,0.5s-0.8,0.6-0.9,0.6s-0.1,0.4-0.1,0.4s0,0,0,0.1c-0.2,0.2-0.3,0.4-0.3,0.6c-0.1,0.2-0.1,0.4-0.2,0.6
	c-0.2,1.1-0.4,2.3-0.3,3.3c0,1.5,0.6,3.2,1.2,4.7c0.3,0.5,0.4,1.1,0.8,1.5c0.3,0.9,1.2,1.6,1.9,2.3c0.3,0.2,0.4,0.5,0.7,0.7
	c0.5,0.4,1,0.9,1.6,1.2c0.9,0.3,1.7,0.6,2.6,0.9c0.1,0.1,0.1,0,0.1,0l0.1,0.1c0.1-0.1,0.2,0,0.2,0c0.3,0.1,0.8,0.1,1.2,0.1
	c0.3-0.1,0.7-0.1,1-0.2l0.1,0.1c-0.1,0-0.1,0.1-0.2,0.1c-0.1,0.1-0.1,0.2,0,0.3c0.2,0,0.4-0.1,0.5-0.2l0.1,0.1
	c-0.1,0.1-0.1,0.2-0.2,0.3c0.2,0.1,0.4,0.1,0.5,0.3c0.2-0.1,0.2-0.3,0.3-0.4l0.3,0.1l0.3-0.1c0,0.1,0,0.2,0.1,0.3
	c0.1,0,0.1-0.1,0.2-0.1l0.1,0.1c0.2,0,0.3,0,0.4-0.2c-0.1-0.1-0.1-0.2-0.2-0.3l0.2,0c0,0.1,0.1,0.1,0.1,0.2c0.1,0.1,0.1,0,0.2,0
	c0.2-0.2,0.3-0.3,0.4-0.5c0,0-0.1,0-0.1,0l0.4-0.2c0.2,0.1,0.5,0.1,0.7,0.1c1.3,0.4,2.6-0.2,3.8-0.6c0.6-0.2,1.1-0.8,1.6-1.2
	c0.6-0.7,1.2-1.4,1.9-2.2c0.8-0.9,1.1-2,1.6-3c0.1-0.2,0-0.5,0.3-0.5c0.3-0.8,0.4-1.7,0.6-2.5c0.1-0.2,0.1-0.6,0.2-0.8
	C62.2,58.3,62.3,57.1,61.7,55.7z"/>
<path fill="#FFE84F" d="M36.1,37.8c0-0.4-0.1-0.8-0.3-1.2c0,0,0,0,0,0L35.4,36l0,0c0.1,0,0.1,0.1,0.1,0.1c-0.2-0.3-0.4-0.5-0.6-0.8
	c-0.3-0.2-0.7-0.1-1.2-0.2c0-0.2-0.3-0.1-0.5-0.1c-0.4,0.2-0.8,0.3-1.2,0.6l-0.1,0l-0.5,0.6c-0.5,0.1-0.9,0.4-1.2,0.7
	C30,37.2,30.1,37.6,30,38c-0.1,0.1-0.1,0.3,0,0.4l0,0.1c0,0,0,0,0.1,0c0,0,0,0,0,0c0,0,0,0,0,0c0,0,0.1,0.1,0.2,0.1
	c0,0,0,0.1,0.1,0.1c0,0,0-0.1,0-0.1c0.1,0.1,0.2,0.1,0.3,0.1c0,0.1,0.1,0.1,0.1,0.1c0,0,0,0,0-0.1c0.1,0.1,0.2,0.1,0.2,0.1
	c0,0,0.2,0.1,0.4,0.1c0,0,0,0.1,0,0.1c0.1,0,0.3,0,0.4,0c-0.1-0.2-0.1-0.5-0.1-0.8c0.1-0.6,0.6-1.2,1.2-1.4c0.7-0.1,1.5-0.2,2.1,0.4
	c0.2,0.4,0.2,1,0.1,1.4c0,0,0,0,0,0c0,0,0.1,0,0.1-0.1c0,0,0.1,0,0.1,0l0.3-0.1h0.1c0,0,0,0,0,0l0.2-0.1l0.3-0.7c0,0,0,0,0,0
	C36.1,37.9,36.1,37.9,36.1,37.8L36.1,37.8L36.1,37.8z"/>
</svg>
