<?xml version="1.0" encoding="utf-8"?>
<!-- Generator: Adobe Illustrator 23.0.0, SVG Export Plug-In . SVG Version: 6.00 Build 0)  -->
<svg version="1.0" id="Layer_1" xmlns="http://www.w3.org/2000/svg" xmlns:xlink="http://www.w3.org/1999/xlink" x="0px" y="0px"
	 viewBox="0 0 100 100" enable-background="new 0 0 100 100" xml:space="preserve">
<g>
	<path fill="#3D68C9" d="M0,100h100V0H0V100z"/>
</g>
<path fill="#ED1A3A" d="M71.6,47.6c0-0.3,0-0.6-0.1-1c0.1-0.2,0.2-0.4,0.2-0.6c0-0.3-0.1-0.5-0.3-0.7l0,0c0-0.2-0.1-0.5-0.1-0.7
	c0.1-0.2,0.1-0.3,0.1-0.5c0-0.1,0-0.2-0.1-0.3c-0.1-0.2-0.2-0.3-0.3-0.4c-0.1-0.2-0.1-0.4-0.2-0.6c0.1-0.2,0.1-0.3,0.1-0.5
	c0-0.3-0.1-0.5-0.3-0.7c-0.1-0.1-0.2-0.1-0.3-0.2C70.1,41.1,70,41,70,40.9c0.1-0.2,0.1-0.3,0.1-0.5c0-0.3-0.1-0.5-0.3-0.7
	c-0.1-0.1-0.3-0.2-0.4-0.2c-0.1-0.1-0.1-0.3-0.2-0.4c0.1-0.2,0.2-0.4,0.2-0.6c0-0.3-0.1-0.5-0.3-0.7c-0.2-0.2-0.5-0.3-0.7-0.3
	c0-0.1-0.1-0.1-0.1-0.2c0.1-0.2,0.1-0.4,0.1-0.5c0-0.3-0.1-0.5-0.3-0.7s-0.4-0.3-0.7-0.3c-0.1,0-0.1,0-0.1,0h-0.1
	c0-0.1-0.1-0.1-0.1-0.2c0.1-0.1,0.1-0.3,0.1-0.5c0-0.3-0.1-0.5-0.3-0.7s-0.5-0.3-0.8-0.3c-0.1,0-0.2,0-0.3,0.1l-0.1-0.1
	c0-0.1,0-0.2,0-0.3c0-0.6-0.5-1-1-1c-0.1,0-0.2,0-0.3,0.1c-0.1-0.1-0.2-0.2-0.3-0.2v-0.1c0,0,0,0,0-0.1l0,0c0,0,0,0,0-0.1
	c0-0.6-0.5-1-1-1c-0.2,0-0.3,0.1-0.4,0.1c-0.1,0-0.1-0.1-0.2-0.1v-0.1c0-0.3-0.1-0.5-0.3-0.7s-0.5-0.3-0.8-0.3
	c-0.2,0-0.3,0.1-0.4,0.1c-0.1-0.1-0.2-0.1-0.3-0.2c0-0.2-0.1-0.4-0.3-0.6s-0.5-0.3-0.8-0.3c-0.1,0-0.3,0-0.4,0.1
	c-0.2-0.1-0.3-0.1-0.5-0.2c-0.3,0-0.7-0.2-1.1-0.2c-0.1,0-0.2,0-0.3,0c-0.2-0.1-0.5-0.2-0.7-0.2c-0.2-0.3-0.5-0.4-0.8-0.4
	c-0.1,0-0.2,0-0.3,0.1c-0.3-0.1-0.6-0.1-0.8-0.2c-0.2-0.2-0.4-0.2-0.7-0.2c-0.1,0-0.2,0-0.2,0.1c-1.2-0.2-2.5-0.3-3.8-0.3
	c-12,0-21.8,9.5-21.8,21.2S37.9,70.3,50,70.3c10.8,0,19.8-7.7,21.5-17.8c0.1-0.2,0.2-0.4,0.2-0.6c0-0.1,0-0.2-0.1-0.2
	c0.1-0.8,0.2-1.7,0.2-2.5c0-0.2,0-0.4,0-0.6c0-0.1,0.1-0.3,0.1-0.4C71.7,47.8,71.6,47.7,71.6,47.6z M69.1,38.6c0,0.1,0,0.3-0.1,0.4
	l0,0C69.1,38.8,69.1,38.7,69.1,38.6z M65.4,34.2C65.4,34.1,65.4,34.1,65.4,34.2c0-0.1,0-0.2,0-0.2S65.4,34.1,65.4,34.2z M49.9,68
	c-10.8,0-19.6-8.6-19.6-19.1c0-3.2,0.8-6.2,2.3-8.9c0,0,0.1,0,0.1-0.1c0.1-0.1,0.2-0.3,0.2-0.5c0.2-0.3,0.4-0.6,0.6-0.9
	c0.1-0.1,0.3-0.1,0.4-0.3c0.2-0.2,0.2-0.4,0.3-0.6c0.2-0.2,0.3-0.4,0.5-0.6c0.2-0.1,0.4-0.1,0.5-0.2c0.2-0.2,0.2-0.4,0.3-0.6
	c0.6-0.7,1.3-1.3,2-1.9c0.3,0,0.5-0.1,0.7-0.3c0.1-0.1,0.2-0.3,0.2-0.4c0.2-0.2,0.4-0.3,0.7-0.5c0,0,0,0,0.1,0
	c0.4,0,0.8-0.3,0.9-0.6c0.2-0.1,0.5-0.3,0.7-0.4l0,0c0.3,0,0.6-0.2,0.8-0.4c0.3-0.2,0.7-0.3,1-0.5h0.1c0.3,0,0.6-0.1,0.8-0.3
	c0,0,0,0,0-0.1c0.3-0.1,0.7-0.3,1-0.4l0,0c0.2,0,0.3-0.1,0.5-0.1c1.7-0.4,3.4-0.7,5.2-0.7c10.8,0,19.6,8.6,19.6,19.1
	C69.6,59.4,60.8,68,49.9,68z"/>
<g>
	<path fill="#FFFFFF" d="M50,81.8c17.6,0,31.8-14.2,31.8-31.9c0-17.6-14.2-31.8-31.8-31.8S18.2,32.4,18.2,50
		C18.1,67.6,32.4,81.8,50,81.8"/>
</g>
<path fill="#3D68C9" d="M50.1,29.6c-10.8,0-19.6,8.6-19.6,19.2s8.8,19.2,19.6,19.2c10.8,0,19.6-8.6,19.6-19.2S60.9,29.6,50.1,29.6z
	 M50.1,61.9c-7.7,0-14-6.1-14-13.7s6.3-13.7,14-13.7c7.7,0,14,6.1,14,13.7S57.8,61.9,50.1,61.9z"/>
<g>
	<path fill="#FCB216" d="M50,83.3c-18.4,0-33.3-14.9-33.3-33.3S31.6,16.6,50,16.6s33.4,15,33.4,33.4C83.3,68.4,68.3,83.3,50,83.3z
		 M50,19.6c-16.7,0-30.4,13.6-30.4,30.3S33.3,80.3,50,80.3S80.4,66.7,80.4,50S66.8,19.6,50,19.6z"/>
</g>
<g>
	<path fill="#FFFFFF" d="M51.9,29.8c-0.1,0-0.2,0-0.3-0.1L51.9,29.8z"/>
</g>
<g>
	<path fill="#FFFFFF" d="M45.3,42.8l-0.2-0.1c0.1-0.3,0.4-0.6,0.7-0.8C45.7,42.3,45.5,42.6,45.3,42.8"/>
</g>
<g>
	<path fill="#FCB216" d="M44.6,44.2L44.6,44.2c-0.3-0.1-0.6-0.1-0.8-0.1l0.4,0.7c0.1-0.1,0.1-0.3,0.1-0.3c0.1-0.1,0.3-0.2,0.4-0.2
		L44.6,44.2z"/>
</g>
<g>
	<path fill="#FCB216" d="M43.5,44.7c0.1,0.3,0.3,0.7,0.6,0.9c0.1-0.2,0-0.3,0-0.6c-0.1-0.2-0.3-0.4-0.4-0.7L43.5,44.7"/>
</g>
<g>
	<path fill="#FCB216" d="M42.1,46.2c0.1-0.1,0.3-0.3,0.5,0c-0.1,0-0.1,0-0.3,0H42.1z"/>
</g>
<g>
	<path fill="#010101" d="M45.7,43.7c0.1,0.2,0.3,0.3,0.3,0.5c0.4,0.1,0.8,0.2,1.2,0.4c-0.1,0.2-0.3-0.1-0.5-0.1
		c-0.4,0-0.9-0.1-1-0.6c0-0.1-0.2,0-0.2-0.1c0.1-0.2-0.1-0.3-0.1-0.6c-0.1-0.1-0.2-0.1-0.3-0.1c-0.2,0-0.3,0.2-0.4,0.3l0.1,0.1
		c0.1-0.1,0.2-0.3,0.4-0.2c0.1,0,0.1,0.1,0.1,0.2c-0.1,0.1-0.2,0-0.3,0.1c-0.1,0-0.1-0.1-0.2-0.1c-0.1,0.1,0.1,0.1,0.2,0.2
		c0.1,0.1-0.3,0.3,0.1,0.3l0,0c0,0.1-0.1,0.1-0.1,0.1l0,0l-0.1,0.1c-0.1-0.3-0.4-0.6-0.3-1.1c0.1-0.1,0.1-0.3,0.3-0.3
		c0,0.1,0.1,0.1,0.1,0.1c0-0.1,0.1-0.1,0.1-0.1C45.5,42.9,45.7,43.4,45.7,43.7"/>
</g>
<g>
	<path fill="#FFFFFF" d="M43.4,43.5c-0.1-0.1-0.1-0.1-0.1-0.3C43.3,43.3,43.3,43.5,43.4,43.5"/>
</g>
<g>
	<path fill="#FFFFFF" d="M45.2,43.9c-0.1-0.1,0-0.2,0-0.3c0.1,0,0.1-0.1,0.1-0.1C45.5,43.7,45.3,43.9,45.2,43.9"/>
</g>
<g>
	<path fill="#FFFFFF" d="M44.1,43.9c-0.1,0.1-0.3,0-0.4,0.1l-0.1-0.1c0.1-0.1,0.1-0.1,0.2-0.1C44,43.9,44.1,43.9,44.1,43.9"/>
</g>
<g>
	<path fill="#B33636" d="M42.4,44.7c-0.1,0.1-0.3,0.1-0.4,0.3c-0.1,0.1-0.3,0.1-0.6,0.1c-0.1,0.1,0.1,0.2,0.1,0.3
		c0.1,0.3-0.1,0.6-0.2,0.8c0,0.1,0.1,0.3,0.2,0.4c0.1,0.1,0.2-0.1,0.3-0.2c0-0.1,0.3-0.3,0.1-0.4c-0.1-0.2-0.3,0-0.4-0.1l0.1-0.1
		l0,0c0.1-0.1,0.1,0.1,0.2,0c0.2,0,0.3,0.2,0.3,0.3c0.1-0.1,0.3-0.1,0.4-0.3c0.1-0.1,0-0.3,0.1-0.4c0.1,0.1,0.1,0.3,0.1,0.3
		c-0.3,0.2,0,0.4,0.1,0.7c0.1,0.5,0,0.8-0.1,1.3c-0.3,0.3-0.7,0.7-1,1c-0.3,0.1-0.4,0.4-0.6,0.7l0,0c0,0.2-0.1,0.6-0.3,0.9l0,0
		c0,0,0,0.1-0.1,0.1l0.1,0.1c0,0,0,0,0,0.1l0.1,0.1c0.5-0.6,0.8-1.1,1.3-1.7c0.3-0.1,0.5-0.3,0.7-0.6c0.1-0.1-0.1-0.2,0-0.3H43
		c0.1,0.4,0.5,0.6,0.8,0.7c0,0,0.3,0.1,0.3,0c0.1,0,0.2-0.1,0.2-0.1c-0.1-0.6,0-1.2,0.5-1.8c-0.1-0.1,0.1-0.3,0.1-0.4l-0.1-0.1
		c-0.1,0-0.1-0.1-0.1-0.1c-0.1,0.2-0.3,0.1-0.6,0.1c-0.7-0.3-1.1-1-1.5-1.7L42.4,44.7"/>
</g>
<g>
	<path fill="#010101" d="M44.8,46.2c-0.1-0.1-0.2-0.1-0.3-0.2c0.1-0.1,0-0.3,0.1-0.4c0.1,0.1-0.2,0.3,0,0.2c0,0.1,0.1,0.1,0.1,0.1
		v-0.1c0-0.3-0.2-0.6-0.1-1c-0.1,0-0.1,0-0.1,0.1c0,0.2,0.3,0.6-0.1,0.7c0,0.1-0.1,0.1-0.1,0.3c-0.1-0.1-0.1-0.1-0.1-0.3
		c0.1-0.2,0.1-0.3,0.1-0.5c-0.1-0.2-0.1-0.6,0.1-0.7c0.1-0.1,0.3-0.3,0.4-0.1l0.1,0.1c0.1,0,0.1-0.3,0.3-0.1c0.1,0,0.3-0.1,0.6,0.1
		c0.4,0.3,0.1,0.8,0.2,1.2c-0.1,0.4-0.6,0.7-1,1c-0.1-0.1-0.1,0-0.1,0l0,0c0.3-0.3,0.6-0.8,0.8-1.2c0-0.2,0-0.4,0-0.6
		c-0.1,0-0.1,0.1-0.1,0.1c0.1,0.6-0.4,0.9-0.6,1.3L44.8,46.2z"/>
</g>
<g>
	<path fill="#B33636" d="M46.4,47c-0.1-0.1-0.3-0.3-0.5-0.3c0,0.6-0.7,0.6-1,1c-0.2,0.3-0.2,0.6-0.1,1l0.2-0.1
		c0.3-0.1,0.6-0.1,0.9-0.3c-0.1-0.1-0.3-0.3-0.2-0.4c0.2,0.1,0.4,0.5,0.7,0.4c0.3,0.2,0.6,0.1,0.9,0.1c0.3,0.2,0.5,0.5,0.6,0.8
		c0.3,0.2,0.6,0.7,1,0.7c0-0.1,0-0.2-0.1-0.3c-0.6-0.2-0.9-0.8-1-1.4c-0.1-0.2-0.4-0.1-0.6-0.2c-0.1-0.3-0.3-0.6-0.6-0.8L46.4,47z"
		/>
</g>
<g>
	<path fill="#FFFFFF" d="M45.7,44.3c-0.1,0-0.1,0-0.2-0.1c0-0.1,0-0.1,0-0.1C45.6,44.1,45.6,44.2,45.7,44.3"/>
</g>
<g>
	<path fill="#ED1A3A" d="M32,46c-0.3,0.1-0.4,0.3-0.6,0.6c0,0.1-0.1,0.1-0.1,0.3c-0.1,0.4-0.2,1,0.1,1.3c0.3,0.5,0.9,0.6,1.3,0.8
		l0.1,0.1l0,0c0.3,0.2,0.8,0.3,1.1,0.4c1,0.5,2.2,0.7,3.2,1.5c0,0.2,0.2,0.1,0.3,0.3c0.3,0.8,0.1,1.5,0.1,2.2
		c-0.7-0.6-1.6-0.7-2.5-0.8c-1.2-0.2-2.6,0-3.3-1.2c-0.3-0.8-0.8-1.4-1-2.2c-0.7-1.5,0.6-2.7,1.4-3.9C32,45.4,32,45.7,32,46"/>
</g>
<g>
	<path fill="#010101" d="M42.4,45.1c0.1,0.1-0.1,0.1-0.1,0.3c-0.1-0.1-0.3,0.1-0.3-0.1c0.1,0,0.1-0.2,0.2-0.1c0,0.1,0.1,0.1,0.1,0
		C42.3,45.1,42.3,45,42.4,45.1"/>
</g>
<g>
	<path fill="#FCB216" d="M62,45.6"/>
</g>
<g>
	<path fill="#ED1A3A" d="M37.4,46.3"/>
</g>
<g>
	<g>
		<path fill="#010101" d="M52.9,45.5L52.9,45.5L52.9,45.5z"/>
	</g>
	<g>
		<path fill="#010101" d="M60,45.3"/>
	</g>
</g>
<g>
	<path fill="#010101" d="M41.9,46.2c-0.1,0.1-0.1,0.2-0.2,0.2v-0.1l0,0c0-0.1-0.1-0.1,0-0.2S41.8,46,41.9,46.2"/>
</g>
<g>
	<path fill="#010101" d="M45.7,46.3c0,0.3,0.1,0.7-0.2,0.8s-0.8,0.5-0.9,0.8c-0.1,0.3,0.1,0.7,0.1,1l-0.4,0.4
		c-0.2-0.1,0.1-0.3,0.1-0.6c0-0.6-0.1-1.1,0.2-1.6c0.1-0.1,0.2-0.3,0.2-0.4c0.2-0.1,0.5-0.1,0.6-0.3C45.5,46.4,45.6,46.4,45.7,46.3"
		/>
</g>
<g>
	<path fill="#010101" d="M60.3,46.9C60.3,47,60.3,47,60.3,46.9C60.2,46.9,60.1,46.9,60.3,46.9L60.3,46.9"/>
</g>
<g>
	<path fill="#B33636" d="M46.4,48.5c-0.1,0.1,0,0.3,0.1,0.4c0.2,0.2,0.5,0.1,0.6,0.4c0.1,0.1,0.1,0,0.1-0.1v-0.1
		c0.1,0,0.1,0.1,0.2,0.3c-0.1,0,0,0.1,0,0.1c-0.3,0.1-0.6-0.1-1-0.2c-0.3-0.2-0.3-0.6-0.5-0.8C45.9,48.4,46.2,48.4,46.4,48.5"/>
</g>
<g>
	<path fill="#ED1A3A" d="M69.3,51.5c0,0.6-0.3,0.8-0.8,1c-1.4,0.3-2.7,0.7-3.9,1.2c-0.7,0.3-1.5,0.8-1.8,1.5l-0.1-0.4
		c-0.1-0.9-0.1-1.9-0.1-2.8l0.1-0.2c0.8-0.6,1.7-0.7,2.4-1.2c0.1-0.1,0.2,0.1,0.3,0c1.1,0.1,1.9-0.8,2.8-0.9c0.6-0.3,1-0.6,1.5-1.2
		C69.7,49.4,69.5,50.4,69.3,51.5"/>
</g>
<g>
	<g>
		<path fill="#B33636" d="M42.1,49.1c0.1,0.3,0.3,0.6,0.3,0.9c-0.1,0.1-0.1,0.1-0.1,0.1c-0.1-0.3-0.5-0.5-0.4-0.8
			C41.9,49.3,42,49.2,42.1,49.1"/>
	</g>
</g>
<g>
	<path fill="#B33636" d="M38.5,53.4"/>
</g>
<g>
	<g>
		<path fill="#B33636" d="M40.3,55.8c-0.1-0.1-0.4,0-0.6-0.1C39.9,55.8,40.2,55.7,40.3,55.8"/>
	</g>
</g>
<g>
	<path fill="#ED1A3A" d="M57.3,61.3L57.3,61.3L57.3,61.3z"/>
</g>
<g>
	<path fill="#FFFFFF" d="M62.7,73.3c-0.1,0.1-0.3,0.2-0.6,0.3c-0.1-0.4-0.1-0.8-0.3-1.2C62.2,72.7,62.5,73,62.7,73.3"/>
</g>
<g>
	<path fill="#ED1A3A" d="M24.6,38.9h-1.2l-0.5-1.2L22.6,39h-1.3l1,0.7L22,41l1-0.8l1,0.7l-0.4-1.2L24.6,38.9z M23.3,39L23.3,39
		L23.3,39L23.3,39z M22.4,40.6l0.2-0.1L22.4,40.6L22.4,40.6z M23.9,40.6L23.9,40.6l-0.3-0.8l0.7-0.6l0,0l-0.7,0.6L23.9,40.6z"/>
	<path fill="#ED1A3A" d="M26.5,40.1l1-0.8h-1.2l-0.5-1.2l-0.3,1.2l-1.2,0.1l1,0.8L25,41.4l1-0.8l1,0.7L26.5,40.1z M26.7,40.9
		L26.7,40.9L26.7,40.9L26.7,40.9z M25.2,41l0.2-0.1L25.2,41L25.2,41z"/>
	<path fill="#ED1A3A" d="M27.9,40.7l1-0.8l0.9,0.6l0,0l0.1,0.1l-0.4-1.2l-0.1,0.1l0.3,0.8l0,0l-0.3-0.8l0.1-0.1l0,0l0.6-0.5l0,0
		l0.2-0.1l0,0l0.2-0.2h-1.2l-0.5-1.2l-0.3,1.2l-1.2,0.1l1,0.8L27.9,40.7z M28.2,40.4L28.2,40.4l0.2-0.1L28.2,40.4z M29.2,38.8
		L29.2,38.8L29.2,38.8L29.2,38.8z"/>
	<path fill="#ED1A3A" d="M28.5,42.4l1-0.8h-1.2l-0.5-1.2l-0.3,1.2l-1.2,0.1l1,0.7L27,43.6l1-0.8l1,0.7L28.5,42.4z M28.2,41.7
		L28.2,41.7L28.2,41.7L28.2,41.7z M28.4,42.4l0.3,0.8l0,0L28.4,42.4l0.7-0.6l0,0L28.4,42.4z M27.2,43.3l0.2-0.1L27.2,43.3L27.2,43.3
		z"/>
</g>
<g>
	<g>
		<polygon fill="#ED1A3A" points="31.8,71.4 31.3,70.2 30.9,71.5 29.7,71.5 30.7,72.3 30.4,73.5 31,73 31.4,72.7 32.3,73.3 
			32.3,73.2 32.4,73.3 32.1,72.3 32.9,71.6 32.7,71.6 33,71.4 		"/>
		<polygon fill="#ED1A3A" points="33.8,68.6 33.4,67.5 33,68.7 31.8,68.8 32.8,69.5 32.4,70.8 33.1,70.2 33.5,69.9 34.4,70.6 
			34.4,70.5 34.5,70.6 34.1,69.5 34.9,68.8 34.8,68.8 35.1,68.6 		"/>
		<polygon fill="#ED1A3A" points="37.2,67.3 36.7,66.1 36.3,67.3 35.1,67.4 36.1,68.1 35.8,69.4 36.8,68.6 37.7,69.2 37.7,69.2 
			37.8,69.3 37.4,68.1 38.3,67.5 38.2,67.5 38.4,67.3 		"/>
		<polygon fill="#ED1A3A" points="34.3,65.2 33.9,64.1 33.5,65.2 32.2,65.3 33.3,66.1 32.9,67.3 34,66.5 35,67.2 34.6,66 35.6,65.2 
					"/>
	</g>
</g>
<g>
	<path fill="#ED1A3A" d="M68.8,71.7l-0.5-1.2L68,71.8l0,0l0,0l-1.2,0.1l1,0.7L67.7,73l-0.2,0.8h0.1l0.8-0.6l1,0.7L69,72.7l1-0.8
		h-1.2V71.7z M68.5,73l-0.7,0.6l0,0L68.5,73l0.8,0.5l0,0L68.5,73z M69.1,72.6L69.1,72.6l0.5-0.5h0.1L69.1,72.6z"/>
	<path fill="#ED1A3A" d="M66.9,70.1L66.9,70.1l1-0.8h-0.3l0.1-0.1h-1.1l-0.5-1.1L66,68.5l-0.2,0.7l-1.1,0.1l0.2,0.1h-0.3l1,0.7
		l-0.1,0.4l-0.2,0.6l0.1,0.1l0.9-0.7l1,0.7L66.9,70.1z M67.4,69.5L66.8,70v-0.1L67.4,69.5L67.4,69.5z M66.3,70.4L65.6,71l0,0
		L66.3,70.4l0.8,0.5l0,0L66.3,70.4z"/>
	<polygon fill="#ED1A3A" points="64.3,68.1 63.2,68.1 62.7,66.9 62.5,67.7 62.4,68.1 61.3,68.1 61.4,68.2 61.2,68.2 62.2,68.9 
		62.1,69.2 61.8,70.1 62.9,69.4 63.9,70.1 63.5,68.9 64.5,68.1 	"/>
	<path fill="#ED1A3A" d="M65.9,65.7l-0.5-1.2l-0.3,1.2l-1.2,0.1l1,0.7v0.3l-0.3,1l1-0.8l1,0.7l-0.4-1.2l1-0.8
		C67.2,65.7,65.9,65.7,65.9,65.7z M64.3,66L64.3,66l0.6,0.4l0,0L64.3,66z M65.5,66.9L65.5,66.9l0.7,0.4v0.1L65.5,66.9z M66.1,66.4
		L66.1,66.4l0.5-0.4h0.1L66.1,66.4z"/>
</g>
<g>
	<polygon fill="#ED1A3A" points="78.8,39.1 79,39 77.8,39 77.4,38 77.4,37.9 77.3,37.9 76.9,39 75.7,39 76.7,39.8 76.4,41 
		77.4,40.3 78.4,41 78,39.8 78.9,39.1 	"/>
	<path fill="#ED1A3A" d="M75,39.5l-0.5-1.2l-0.3,1.2L73,39.6l1,0.8l-0.3,1.2l1-0.8l0.9,0.6l0,0l0.1,0.1l-0.4-1.2l0.8-0.6l0,0
		l0.2-0.2C76.3,39.5,75,39.5,75,39.5z M74,41.3L74,41.3L74,41.3L74,41.3z"/>
	<polygon fill="#ED1A3A" points="70.5,41.2 71.3,40.5 71.5,40.4 72.5,41 72.4,40.9 72.5,40.9 72.2,39.9 73,39.2 72.9,39.2 73.1,39 
		71.8,39 71.7,38.7 71.5,38.1 71.4,37.9 71.3,38.1 71,39.1 69.8,39.2 70.8,39.9 	"/>
	<g>
		<polygon fill="#ED1A3A" points="74.4,42 73.1,42 72.8,41 72.8,41 72.6,41 72.3,42 71,42.1 72.1,42.8 71.7,44.1 72.8,43.3 73.8,44 
			73.4,42.8 		"/>
	</g>
	<polygon fill="#ED1A3A" points="48.8,27.6 49.6,27.1 50.4,27.6 50.1,26.7 50.8,26.1 49.9,26.1 49.5,25.2 49.3,26.1 48.3,26.2 
		49.1,26.7 	"/>
	<polygon fill="#ED1A3A" points="53.1,26.2 52.9,25.3 52.6,26.2 51.6,26.3 52.4,26.8 52.1,27.7 52.9,27.2 53.6,27.7 53.3,26.8 
		54.1,26.2 	"/>
	<polygon fill="#ED1A3A" points="49.9,25.6 51.3,24.7 52.6,25.6 52.1,24 53.4,22.9 51.7,22.9 51.2,21.6 51.2,21.5 51.1,21.5 
		50.6,22.9 48.9,23 50.3,24 	"/>
</g>
<g>
	<g>
		<path fill="#FCB216" d="M46.3,31.1l-0.1-0.4l0.8-0.1l0.4,2.2l-0.6,0.1L46.6,31L46.3,31.1z"/>
	</g>
	<g>
		<path fill="#FCB216" d="M48,31c0-0.4,0.3-0.7,0.7-0.7s0.8,0.2,0.8,0.6c0,0.2-0.1,0.4-0.3,0.5c0.3,0.1,0.4,0.3,0.4,0.6
			c0,0.4-0.3,0.7-0.8,0.7S48,32.5,48,32.1c0-0.3,0.1-0.5,0.3-0.6C48.2,31.4,48,31.2,48,31L48,31L48,31z M48.5,32.1
			c0,0.1,0.1,0.3,0.3,0.3s0.3-0.2,0.3-0.3c0-0.1-0.1-0.3-0.3-0.3S48.4,31.9,48.5,32.1L48.5,32.1z M48.4,31c0,0.1,0.1,0.3,0.3,0.3
			S49,31.1,49,31c0-0.1-0.1-0.3-0.3-0.3S48.4,30.9,48.4,31"/>
	</g>
	<g>
		<path fill="#FCB216" d="M51,30.9l-0.1,0.3H51c0.5,0,0.8,0.4,0.8,0.8c0,0.5-0.4,0.8-1,0.8c-0.3,0-0.6-0.1-0.7-0.3l0.1-0.3
			c0.1,0.2,0.3,0.3,0.6,0.3s0.5-0.2,0.5-0.4c0-0.3-0.2-0.5-0.5-0.5c-0.1,0-0.3,0.1-0.4,0.1h-0.1l0.3-1.2l1.1,0.1V31L51,30.9z"/>
	</g>
	<g>
		<path fill="#FCB216" d="M52.4,31.2c0.1-0.3,0.5-0.6,0.8-0.4c0.4,0.1,0.6,0.4,0.6,0.8c-0.1,0.2-0.2,0.3-0.4,0.4
			c0.2,0.1,0.3,0.4,0.3,0.7c-0.1,0.4-0.6,0.6-1,0.4c-0.4-0.1-0.7-0.4-0.6-0.8c0.1-0.3,0.3-0.4,0.6-0.5
			C52.5,31.6,52.4,31.4,52.4,31.2L52.4,31.2z M52.6,32.3c-0.1,0.1,0,0.3,0.2,0.4s0.3-0.1,0.4-0.3c0.1-0.1,0-0.3-0.2-0.4
			C52.8,31.9,52.6,32.1,52.6,32.3z M52.9,31.2c-0.1,0.1,0,0.3,0.2,0.3c0.2,0.1,0.3-0.1,0.3-0.2c0.1-0.1,0-0.3-0.2-0.3
			C53.1,31,52.9,31.1,52.9,31.2"/>
	</g>
</g>
<g>
	<g>
		<path fill="#ED1A3A" d="M35.5,74.2l2-4.6l1.2,0.5l-0.9,3.3l0,0l1.8-2.9l1.2,0.5l-2,4.6l-0.6-0.3l1.7-3.8l0,0l-2.3,3.6l-0.7-0.3
			l1.1-4.1l0,0l-1.7,3.9L35.5,74.2z"/>
	</g>
	<g>
		<path fill="#ED1A3A" d="M39.6,76l1.8-4.7l0.8,0.3l-1.8,4.7L39.6,76z"/>
	</g>
	<g>
		<path fill="#ED1A3A" d="M42.7,71.8l1.1,0.3L43.7,76l0,0l1-3.6l0.7,0.2L44,77.4l-1-0.3l0.1-3.9l0,0l-1,3.7l-0.7-0.2L42.7,71.8z"/>
	</g>
	<g>
		<path fill="#ED1A3A" d="M45.9,72.7l1.1,0.1l0.4,3.8l0,0l0.6-3.7l0.7,0.1l-0.8,5l-1.1-0.1L46.4,74l0,0l-0.6,3.8l-0.7-0.1L45.9,72.7
			z"/>
	</g>
	<g>
		<path fill="#ED1A3A" d="M49.2,78l-0.1-5l2.2-0.1v1L49.9,74l0.1,1l1.3-0.1v1L49.9,76l0.1,1l1.4-0.1v1L49.2,78"/>
	</g>
	<g>
		<path fill="#ED1A3A" d="M53.3,74.1c0-0.2-0.1-0.3-0.1-0.4c-0.1-0.1-0.2-0.1-0.3-0.1c-0.2,0-0.3,0.3-0.3,0.5
			c0.1,0.3,0.3,0.5,0.6,0.6c0.5,0.1,1.2,0.1,1.4,1.5c0.1,1-0.4,1.6-1.1,1.7s-1.3-0.2-1.5-1.5l0.8-0.1c0.1,0.5,0.3,0.7,0.6,0.7
			c0.2,0,0.4-0.2,0.3-0.6c-0.1-0.7-0.6-0.5-1.3-0.8c-0.3-0.2-0.5-0.6-0.6-1.2c-0.1-1.2,0.5-1.6,1-1.7c0.6-0.1,1.2,0.2,1.3,1.5
			L53.3,74.1z"/>
	</g>
	<g>
		<path fill="#ED1A3A" d="M54.7,74.8c-0.3-1.6,0-2.6,1-2.8c1-0.2,1.7,0.6,2,2.2s0,2.6-1,2.8C55.7,77.2,55,76.4,54.7,74.8z
			 M55.8,72.9c-0.6,0.1-0.5,1-0.3,1.7c0.1,0.8,0.4,1.6,1,1.5s0.5-1,0.3-1.7C56.6,73.6,56.3,72.8,55.8,72.9"/>
	</g>
	<g>
		<path fill="#ED1A3A" d="M58.2,72.4l-0.8,0.3l-0.3-0.9l2.5-0.8l0.3,0.9L59,72.2l1.2,3.9l-0.8,0.2L58.2,72.4z"/>
	</g>
	<g>
		<path fill="#ED1A3A" d="M61.6,75.5l-1.1-5l0.9-0.4l3.2,4l-0.8,0.4l-0.6-0.8l-1,0.5l0.3,1L61.6,75.5z M62.6,73l-1.2-1.7l0,0
			l0.6,2.1L62.6,73z"/>
	</g>
</g>
<g>
	<path fill="#ED1A3A" d="M50.6,41.5c1-0.4,2.1-1,3.1-0.4c0.4,0.1,0.6-0.1,0.7-0.3c0.2-0.5,0.4-1.1,0.1-1.5c-0.4-0.3-0.9-0.6-1.6-0.8
		c-1-0.4-2,0.4-3,0.1c-1.5,0.1-3,0.4-4.4,0.5c-1.5,0.1-3.2-0.2-4.8-0.3c-0.3,0.1-0.4,0.2-0.6,0.1c-0.1-0.2-0.3,0.1-0.4-0.1
		c-0.1,0.5-0.5,1.1-0.8,1.5c-0.2,0.1-0.3,0.2-0.3,0.4c0.5,0.3,1.1,0.2,1.6,0.3c0.5,0.3,1,0.1,1.5,0.2c0.2,0,0.4,0,0.5,0.1
		c0.2,0,0.4,0.1,0.5,0.1c0.6,0.2,1.2,0.4,1.8,0.3l0.2,0.1c0.7-0.1,1.4,0.2,2.1,0c0.4-0.1,0.9-0.2,1.2-0.3
		C48.8,41.2,49.6,41.6,50.6,41.5z"/>
	<path fill="#ED1A3A" d="M64.5,43.1c-0.1-1.2-0.7-2.1-1.5-2.7c0,0.1-0.8-0.2-1.5-0.6c0,0,0,0,0,0c-0.2-0.3-0.7-0.4-0.9-0.2
		c-0.1,0-0.5,0.1-0.6,0.1c-0.6,0-1.1,0.3-1.7,0.2c-1.1-0.3-2,0.4-3,0.4c-0.2,0-0.1,0.2-0.1,0.3c-0.1,0.4-0.6,0.8-0.9,1.2
		c-0.5,0.2-0.9,0.6-1.5,0.6c-0.9-0.1-1.8,0.3-2.6,0.2c0.3,0.2,0.5,0.4,0.9,0.5c0.2,0.2,0.4,0.2,0.6,0.1c0.7-0.2,1.5,0.2,2.1-0.4
		c0.2-0.2,0.3-0.2,0.6-0.1c0.6-0.2,1.5-0.3,2.1-0.3c0.6,0.2,1.2,0.2,1.8,0.1c0.6-0.4,1.2-0.1,1.9-0.1c0.4-0.1,0.6-0.4,1-0.5
		c0.2-0.1,0.4,0,0.5-0.2c0-0.5-0.1-1-0.1-1.5c0.3,0.8,0.3,1.9,0.3,2.7c0,0.6-0.2,1.6,0.6,2.3c0.6,0.5,1.4,0.7,2,0.8l-0.1-0.5
		C64.2,44.7,64.5,43.9,64.5,43.1z"/>
</g>
<g>
	<g>
		<path fill="#FCB216" d="M63.1,52L63.1,52l0.7-0.3l0.1,1.9h-0.3l-0.1-1.4L63.1,52z"/>
	</g>
	<g>
		<path fill="#FCB216" d="M64.4,51.6c0-0.3,0.2-0.6,0.6-0.6c0.3,0,0.6,0.2,0.6,0.6c0,0.2-0.1,0.3-0.2,0.4c0.2,0.1,0.3,0.3,0.3,0.5
			c0,0.3-0.3,0.6-0.6,0.6s-0.6-0.2-0.6-0.6c0-0.2,0.1-0.4,0.3-0.5C64.5,52,64.4,51.8,64.4,51.6L64.4,51.6z M64.8,52.5
			c0,0.1,0.1,0.3,0.3,0.3c0.1,0,0.2-0.1,0.2-0.3c0-0.1-0.1-0.3-0.3-0.3C64.8,52.2,64.8,52.4,64.8,52.5L64.8,52.5z M64.8,51.6
			c0,0.1,0.1,0.3,0.2,0.3s0.2-0.1,0.2-0.3c0-0.1-0.1-0.3-0.2-0.3S64.8,51.5,64.8,51.6"/>
	</g>
	<g>
		<path fill="#FCB216" d="M66.3,52.3c0,0,0.3-0.1,0.5-0.2C67,52,67,51.8,67,51.8c-0.1,0-0.3,0.1-0.4,0.1c-0.3,0-0.6-0.3-0.6-0.6
			c0-0.4,0.3-0.7,0.6-0.7s0.7,0.3,0.7,0.6c0,0.2,0,0.6-0.1,0.8c-0.3,0.5-0.8,0.6-0.8,0.6L66.3,52.3"/>
	</g>
	<g>
		<path fill="#FCB216" d="M67.9,51.7c0.1,0.1,0.1,0.1,0.3,0.1c0.1,0,0.3-0.1,0.3-0.3c0-0.1-0.1-0.3-0.3-0.3h-0.1v-0.3h0.1
			c0.1,0,0.2-0.1,0.2-0.3c0-0.1-0.1-0.3-0.2-0.2c-0.1,0-0.1,0.1-0.1,0.1l-0.2-0.3c0.1-0.1,0.2-0.1,0.4-0.1c0.3,0,0.6,0.2,0.6,0.6
			c0,0.1-0.1,0.3-0.1,0.4c0.2,0.1,0.3,0.3,0.3,0.5c0,0.3-0.3,0.6-0.6,0.6c-0.3,0-0.5-0.1-0.6-0.3L67.9,51.7z"/>
	</g>
</g>
<g>
	<path fill="#ED1A3A" d="M66.4,51.3c0,0.1,0.1,0.3,0.2,0.3s0.2-0.1,0.2-0.3c0-0.1-0.1-0.3-0.2-0.3C66.5,51.1,66.3,51.2,66.4,51.3"/>
</g>
<g>
	<g>
		<path fill="#FCB216" d="M32,49.7L32,49.7l0.7-0.2l-0.3,1.9L32,51.3l0.2-1.4L32,49.7z"/>
	</g>
	<g>
		<path fill="#FCB216" d="M33.1,50.4c0-0.3,0.3-0.6,0.6-0.5c0.3,0,0.6,0.3,0.5,0.6c0,0.2-0.1,0.3-0.3,0.4c0.2,0.1,0.3,0.3,0.3,0.5
			c0,0.3-0.3,0.6-0.7,0.5c-0.3,0-0.6-0.3-0.6-0.6c0-0.2,0.1-0.4,0.3-0.5C33.2,50.7,33.1,50.6,33.1,50.4L33.1,50.4z M33.4,51.3
			c0,0.1,0.1,0.3,0.2,0.3c0.1,0,0.3-0.1,0.3-0.3c0-0.1-0.1-0.3-0.2-0.3C33.5,51,33.4,51.1,33.4,51.3L33.4,51.3z M33.5,50.4
			c0,0.1,0.1,0.3,0.2,0.3c0.1,0,0.2-0.1,0.3-0.3c0-0.1-0.1-0.3-0.2-0.3C33.6,50.2,33.5,50.3,33.5,50.4"/>
	</g>
	<g>
		<path fill="#FCB216" d="M35.6,52.2c0,0,0.3,0.1,0.5,0s0.3-0.1,0.3-0.1C36.3,52,36,52,36,52c-0.3-0.1-0.4-0.5-0.3-0.8
			c0.1-0.3,0.5-0.6,0.9-0.4c0.3,0.1,0.6,0.5,0.4,0.8c-0.1,0.2-0.2,0.6-0.4,0.7c-0.6,0.3-1,0.2-1,0.2L35.6,52.2"/>
	</g>
</g>
<g>
	<path fill="#ED1A3A" d="M36.1,51.3c-0.1,0.1,0,0.3,0.1,0.3c0.1,0.1,0.3-0.1,0.3-0.2c0.1-0.1,0-0.3-0.1-0.3S36.2,51.2,36.1,51.3"/>
</g>
<g>
	<path fill="#FCB216" d="M34.7,50.7L34.7,50.7l0.7-0.2l-0.3,1.9l-0.3-0.1l0.2-1.4L34.7,50.7z"/>
</g>
<g>
	<path fill="#FFFFFF" d="M59.2,49.3l0.3-0.1l0.2,0.1c0,0-0.2-0.1-0.3,0H59.2"/>
</g>
<g>
	<path fill="#ED1A3A" d="M52.7,56.1C52.7,56.1,52.7,56.1,52.7,56.1C52.7,56.1,52.7,56.1,52.7,56.1C52.7,56.1,52.7,56.1,52.7,56.1z"
		/>
	<path fill="#ED1A3A" d="M49,55.4C48.6,55.5,49.1,55.6,49,55.4L49,55.4z"/>
	<path fill="#ED1A3A" d="M54.9,58.2c0,0.1,0.1,0.2,0.1,0.3h0.1c0,0,0,0,0.1,0C55.1,58.4,55,58.3,54.9,58.2z"/>
	<path fill="#ED1A3A" d="M47.4,57.5C47.3,57.5,47.3,57.5,47.4,57.5L47.4,57.5z"/>
	<path fill="#ED1A3A" d="M56.9,58.8C56.9,58.8,57,58.8,56.9,58.8C57,58.7,56.9,58.7,56.9,58.8L56.9,58.8z"/>
	<path fill="#ED1A3A" d="M55.3,58.8c0.1,0,0.2-0.1,0.2,0c0.1-0.1,0.5-0.1,0.8-0.1C55.9,58.7,55.3,58.7,55.3,58.8
		C55.2,58.8,55.3,58.9,55.3,58.8z"/>
	<path fill="#ED1A3A" d="M55.2,58.8C54.8,58.9,55.2,58.9,55.2,58.8L55.2,58.8z"/>
	<path fill="#ED1A3A" d="M56.3,58.7c0.2,0,0.3,0,0.5,0l0,0C56.8,58.7,56.6,58.7,56.3,58.7z"/>
	<path fill="#ED1A3A" d="M54,59.8C54,59.7,53.9,59.7,54,59.8L54,59.8z"/>
	<path fill="#ED1A3A" d="M51.3,55.2c0,0.2,0,0.4,0.1,0.6c0-0.1,0-0.3,0-0.4C51.4,55.3,51.3,55.3,51.3,55.2z"/>
</g>
<g>
	<path opacity="0.2" enable-background="new    " d="M10.4,74.3V25.8c0-12.1,8.2-22.7,19.8-25.8H0v100h30.2
		C18.5,96.9,10.4,86.3,10.4,74.3z"/>
	<path opacity="0.1" fill="#FFFFFF" enable-background="new    " d="M89.6,25.8v48.5c0,12.1-8.2,22.7-19.8,25.8H100V0H69.8
		C81.5,3.1,89.6,13.7,89.6,25.8z"/>
</g>
<path fill="#ED1A3A" d="M71.6,47.6c0-0.3,0-0.6-0.1-1c0.1-0.2,0.2-0.4,0.2-0.6c0-0.3-0.1-0.5-0.3-0.7l0,0c0-0.2-0.1-0.5-0.1-0.7
	c0.1-0.2,0.1-0.3,0.1-0.5c0-0.1,0-0.2-0.1-0.3c-0.1-0.2-0.2-0.3-0.3-0.4c-0.1-0.2-0.1-0.4-0.2-0.6c0.1-0.2,0.1-0.3,0.1-0.5
	c0-0.3-0.1-0.5-0.3-0.7c-0.1-0.1-0.2-0.1-0.3-0.2C70.1,41.1,70,41,70,40.9c0.1-0.2,0.1-0.3,0.1-0.5c0-0.3-0.1-0.5-0.3-0.7
	c-0.1-0.1-0.3-0.2-0.4-0.2c-0.1-0.1-0.1-0.3-0.2-0.4c0.1-0.2,0.2-0.4,0.2-0.6c0-0.3-0.1-0.5-0.3-0.7c-0.2-0.2-0.5-0.3-0.7-0.3
	c0-0.1-0.1-0.1-0.1-0.2c0.1-0.2,0.1-0.4,0.1-0.5c0-0.3-0.1-0.5-0.3-0.7s-0.4-0.3-0.7-0.3c-0.1,0-0.1,0-0.1,0h-0.1
	c0-0.1-0.1-0.1-0.1-0.2c0.1-0.1,0.1-0.3,0.1-0.5c0-0.3-0.1-0.5-0.3-0.7s-0.5-0.3-0.8-0.3c-0.1,0-0.2,0-0.3,0.1l-0.1-0.1
	c0-0.1,0-0.2,0-0.3c0-0.6-0.5-1-1-1c-0.1,0-0.2,0-0.3,0.1c-0.1-0.1-0.2-0.2-0.3-0.2v-0.1c0,0,0,0,0-0.1l0,0c0,0,0,0,0-0.1
	c0-0.6-0.5-1-1-1c-0.2,0-0.3,0.1-0.4,0.1c-0.1,0-0.1-0.1-0.2-0.1v-0.1c0-0.3-0.1-0.5-0.3-0.7s-0.5-0.3-0.8-0.3
	c-0.2,0-0.3,0.1-0.4,0.1c-0.1-0.1-0.2-0.1-0.3-0.2c0-0.2-0.1-0.4-0.3-0.6s-0.5-0.3-0.8-0.3c-0.1,0-0.3,0-0.4,0.1
	c-0.2-0.1-0.3-0.1-0.5-0.2c-0.3,0-0.7-0.2-1.1-0.2c-0.1,0-0.2,0-0.3,0c-0.2-0.1-0.5-0.2-0.7-0.2c-0.2-0.3-0.5-0.4-0.8-0.4
	c-0.1,0-0.2,0-0.3,0.1c-0.3-0.1-0.6-0.1-0.8-0.2c-0.2-0.2-0.4-0.2-0.7-0.2c-0.1,0-0.2,0-0.2,0.1c-1.2-0.2-2.5-0.3-3.8-0.3
	c-12,0-21.8,9.5-21.8,21.2S37.9,70.3,50,70.3c10.8,0,19.8-7.7,21.5-17.8c0.1-0.2,0.2-0.4,0.2-0.6c0-0.1,0-0.2-0.1-0.2
	c0.1-0.8,0.2-1.7,0.2-2.5c0-0.2,0-0.4,0-0.6c0-0.1,0.1-0.3,0.1-0.4C71.7,47.8,71.6,47.7,71.6,47.6z M69.1,38.6c0,0.1,0,0.3-0.1,0.4
	l0,0C69.1,38.8,69.1,38.7,69.1,38.6z M65.4,34.2C65.4,34.1,65.4,34.1,65.4,34.2c0-0.1,0-0.2,0-0.2S65.4,34.1,65.4,34.2z M49.9,68
	c-10.8,0-19.6-8.6-19.6-19.1c0-3.2,0.8-6.2,2.3-8.9c0,0,0.1,0,0.1-0.1c0.1-0.1,0.2-0.3,0.2-0.5c0.2-0.3,0.4-0.6,0.6-0.9
	c0.1-0.1,0.3-0.1,0.4-0.3c0.2-0.2,0.2-0.4,0.3-0.6c0.2-0.2,0.3-0.4,0.5-0.6c0.2-0.1,0.4-0.1,0.5-0.2c0.2-0.2,0.2-0.4,0.3-0.6
	c0.6-0.7,1.3-1.3,2-1.9c0.3,0,0.5-0.1,0.7-0.3c0.1-0.1,0.2-0.3,0.2-0.4c0.2-0.2,0.4-0.3,0.7-0.5c0,0,0,0,0.1,0
	c0.4,0,0.8-0.3,0.9-0.6c0.2-0.1,0.5-0.3,0.7-0.4l0,0c0.3,0,0.6-0.2,0.8-0.4c0.3-0.2,0.7-0.3,1-0.5h0.1c0.3,0,0.6-0.1,0.8-0.3
	c0,0,0,0,0-0.1c0.3-0.1,0.7-0.3,1-0.4l0,0c0.2,0,0.3-0.1,0.5-0.1c1.7-0.4,3.4-0.7,5.2-0.7c10.8,0,19.6,8.6,19.6,19.1
	C69.6,59.4,60.8,68,49.9,68z"/>
<g>
	<path fill="#60BB48" d="M62.1,45.6L62.1,45.6C62.1,45.6,62,45.7,62.1,45.6z"/>
</g>
<path fill="#ED1A3A" d="M58.4,57.3L58.4,57.3c-0.2-0.4-0.4-0.5-0.7-0.6c-0.2,0-0.2,0-0.3-0.1h-0.1l-0.1,0.1c0,0,0,0,0,0
	c-0.1-0.2-0.2-0.3-0.3-0.3c-0.2-0.5-0.9-0.5-1.2-0.4l-0.1,0l0,0c-0.3-0.3-0.4-0.8-0.6-1.2c-0.4-0.9-0.4-1.7-1.1-2.4c0,0-0.1,0-0.1,0
	c0,0-0.1-0.1-0.1-0.1c0-0.1-0.1-0.1-0.2-0.2L53.4,52h0c-0.2-0.1-0.3-0.3-0.5-0.5c-0.1-0.1-0.2-0.3-0.4-0.3c0-0.1,0-0.1,0-0.2v-0.1
	h-0.1c0,0-0.1,0-0.1,0c0,0,0,0-0.1,0c0,0,0,0,0,0c0,0,0,0,0,0c0-0.7,0.1-1.3-0.1-2c-0.2-0.3-0.3-0.3-0.5-0.4v-0.3l0.2,0.1
	c0,0,0,0-0.1-0.1l-0.1-0.1v0c0-0.1,0-0.1-0.1-0.2c0,0-0.1,0-0.1,0c0,0,0,0,0,0c0,0,0,0,0.1,0h0.1l0,0l0.1,0.1l0.2,0.2l0.1,0.1
	c0,0,0,0-0.1,0c0,0,0.1,0,0.1,0.1l0,0c0,0,0,0,0,0c0.1,0,0.1,0.1,0.2,0.2c0.1,0.5,0.1,0.9,0.1,1.3c0,0.3,0,0.6,0,1
	c0.1,0,0.1,0,0.2-0.1c0-0.3,0-0.6,0-0.9c0-0.4,0-0.8-0.1-1.2c-0.1-0.2-0.1-0.2-0.3-0.3c-0.1,0-0.1,0-0.1-0.1c0,0,0,0,0-0.1l0,0
	c0,0,0-0.1,0.1-0.1c0.1,0,0.2,0,0.3,0c0.1,0,0.2,0,0.2,0c0.1,0,0.1,0.1,0.2,0.2c0,0.1,0.2,0.1,0.3,0.1c0.1,0,0.2,0,0.3,0h0.1v-0.1
	c0-0.1-0.1-0.2-0.1-0.3c-0.1-0.2-0.2-0.4-0.1-0.6c0.1-0.4-0.1-0.6-0.2-0.7c-0.1-0.1-0.1-0.2-0.2-0.3c0,0-0.1-0.1-0.1-0.1
	c0,0-0.1-0.1-0.1-0.1c0,0-0.1-0.1-0.1-0.1c0,0,0-0.1-0.1-0.1c-0.2-0.1-0.4,0-0.5,0.1c0.1,0,0.3-0.1,0.3-0.1s0,0.1,0.1,0.1
	c0,0,0.1,0.1,0.1,0.1c0,0-0.1,0-0.1,0c-0.2-0.1-0.5,0.1-0.6,0.2c-0.1,0-0.1,0-0.2,0.1c0-0.1,0.1-0.3,0.3-0.3c0.1,0,0.1-0.1,0.1-0.1
	c-0.1,0.1-0.1,0.1-0.2,0.1c-0.1,0-0.2,0.1-0.2,0.3c-0.1,0.1-0.1,0.3-0.1,0.4c0,0,0,0,0,0h-0.1c0,0,0.1,0,0.1,0c0,0,0,0.1,0,0.1
	c0,0,0.1,0,0.1,0c0,0.2,0,0.5,0,0.6c0,0,0-0.1-0.1-0.1c-0.1,0-0.1-0.1-0.1-0.1c0,0.1,0,0.2,0,0.2c0,0,0,0.1,0.1,0.1
	c-0.1,0-0.1,0-0.2,0c-0.2,0-0.3,0.1-0.5,0.1s-0.5,0-0.6,0.1c-0.3,0.5-0.2,0.9-0.2,1.4c0,0.3,0,0.5,0,0.8c-0.1,0.2-0.1,0.6-0.1,0.8
	v0.1c0,0,0,0,0.1,0.1c0,0,0,0.1,0,0.1c0,0.1-0.1,0.1,0,0.1c-0.1,0.3-0.2,0.5-0.3,0.9c0,0,0,0,0-0.1v0.1c0,0,0,0,0,0.1
	c-0.1,0.3-0.1,0.5,0,0.6v0.1v0.1c0,0.3,0.1,0.6,0.1,0.8c0,0.1,0,0.2,0,0.3c-0.1-0.1-0.4,0.2-0.1,0.2h0.1c0,0.2,0,0.3-0.1,0.5
	c-0.2,0.4-1.1,1.8-1.4,2.2c0,0,0,0-0.1,0.1c-0.1,0.1-0.2,0.1-0.3,0.2l0,0l0,0l0.1,0.1c0,0,0,0,0,0c-0.1,0-0.2,0-0.3,0.1
	c0,0.1,0,0.3,0,0.5c0,0.1-0.1,0.1,0,0.1c0.1,0.1,0.1,0.1,0.2,0.2h-0.1c-0.4-0.1-0.1,0.2,0.1,0.1c0,0,0,0,0.1,0
	c0.2,0.2,0.4,0.5,0.5,0.7h0.1c0.1,0,0.1,0.1,0.2,0.1c0.1,0,0.2,0.1,0.3,0.1c0,0,0.1,0,0.2-0.1c0.1-0.1-0.5-0.9-0.6-0.9l0.7-0.6
	c0.5-0.5,1-1,1.5-1.5c0,0-0.1,0.1-0.1,0.1l-0.1,0.1c0.1,0,0.1,0,0.2,0L49.9,57c-0.1,0.1-0.2,0.3-0.3,0.3c-0.1,0.1-0.2,0.2-0.3,0.3
	c0.1,0,0.1,0,0.2-0.1c0.3-0.1,1.7,0.1,1.9,0c0,0.4,0.1,1.1,0.1,1.1c0,0.2,0,0.6,0,0.6h0.1c0,0,0.1,0,0.1,0c0,0.3,0,0.8,0.3,1
	c0.2,0,0.4,0.1,0.6,0.1c0.3,0,0.5,0,0.6-0.1c0.3,0,0.4-0.1,0.6-0.1h0.1V60c0-0.3,0-0.4-0.1-0.4c-0.1,0-0.2-0.1-0.3-0.1
	c-0.3-0.1-0.6-0.2-0.8-0.3c0,0,0,0-0.1-0.1c0.1,0,0.1,0,0.2,0c0,0,0-0.1,0-0.1h0v-0.1c0-0.2-0.1-0.4-0.1-0.6c0-0.2-0.1-0.5-0.1-0.7
	c0-0.2,0-0.4,0-0.6v-0.2c0-0.2,0-0.5,0-0.7c0,0,0,0,0.1,0c0-0.1,0-0.2,0-0.2l0.1,0c0.4,0.2,0.7,0,1.1,0.1c0,0,0,0,0,0
	c-0.1-0.1-1.1,0.1-1.2,0.2c0.4,0,1.1-0.1,1.3-0.1c0.2,0.3,0.4,0.5,0.7,0.8c-0.1,0.1-0.1,0.3-0.1,0.5c0,0.2,0,0.4,0.1,0.5
	c0,0.1,0.1,0.2,0.2,0.4c-0.1-0.2-0.1-0.3-0.2-0.4c0.1-0.3,0.5-0.7,0.7-0.8c0.1-0.1,0.2-0.1,0.3-0.1c0.1,0,0.2-0.1,0.4-0.1
	c0.4,0,0.8,0.2,1.2,0.5c0,0,0,0,0.1,0.1l0.1,0.1l0.1,0.1c0,0,0.1,0,0.1,0.1v0.1h0.1c0.1-0.2-0.1-0.4-0.2-0.5c0,0,0,0-0.1-0.1
	l-0.1-0.1c0,0,0,0-0.1-0.1c0,0-0.1-0.1-0.1-0.1c0,0,0-0.1,0-0.1c0,0,0,0,0.1,0c0.3,0.1,0.5,0.2,0.6,0.4v0.1c0,0.1,0.1,0.3,0.1,0.4
	c-0.2,0.3-0.6,0.3-1,0.3c-0.3,0-0.6,0-0.9,0.1c-0.3,0.1-0.6,0.2-0.9,0.3c0.1,0.1,0.3,0.2,0.3,0.1c0.3,0,0.7-0.2,1-0.3
	c0.2-0.1,0.5-0.1,0.8-0.1c0.5,0,0.9,0,1.2-0.3C58.5,57.7,58.5,57.4,58.4,57.3z M51.9,47.9c0,0,0-0.1-0.1-0.1c0,0,0-0.1,0-0.1
	C51.8,47.8,51.8,47.9,51.9,47.9z M49.9,52.3C49.8,52.3,49.8,52.3,49.9,52.3l-0.2,0.1l0.1,0.1c0,0.1-0.1,0.5,0,0.6
	c0,0.1,0.1,0.2,0,0.2c-0.1,0.6,0.2,1.2-0.1,1.8c-0.5,0.7-1,1.4-1.5,2.2c-0.2,0.1-0.2,0.2-0.4,0.4c0,0-0.1,0-0.1-0.1
	c0.1-0.1,0.1-0.1,0.2-0.2c0,0,0,0,0.1-0.1c0.3-0.4,0.6-0.8,0.8-1.1s0.5-0.7,0.7-1.1c0.2-0.4,0.2-0.9,0.1-1.2
	c-0.1-0.2-0.1-0.5-0.1-0.7c0-0.1,0-0.2,0-0.2v-0.1c-0.1-0.1,0-0.3,0-0.4c0,0,0,0,0-0.1c0.2-0.4,0.3-0.8,0.4-1.1
	c0.1,0,0.2,0.1,0.3,0.1C50.1,51.7,50,52,49.9,52.3z M50.3,53.1C50.3,53,50.3,53,50.3,53.1c0,0,0,0.1,0.1,0.1
	C50.3,53.1,50.3,53.1,50.3,53.1z M51.2,51.2C51.2,51.2,51.2,51.2,51.2,51.2C51.2,51.2,51.2,51.2,51.2,51.2
	C51.2,51.2,51.2,51.2,51.2,51.2L51.2,51.2z M50.9,49.9c0-0.1,0-0.2,0.1-0.2c0.1,0.5-0.2,0.9,0,1.4c0,0,0,0,0,0
	C50.7,50.7,50.9,50.3,50.9,49.9z M51.7,59L51.7,59c-0.2-0.8-0.2-1.8-0.3-3c0,0,0,0,0,0c0,0,0,0,0,0c0-0.1,0-0.1,0-0.2
	c0,0.1,0,0.1,0,0.2c-0.1,0-0.3,0-0.5,0c-0.1,0-0.1,0-0.1,0c-0.1,0.1-0.2,0.3-0.3,0.4c0.1-0.2,0.2-0.4,0.3-0.6h0.1c0.1,0,0.1,0,0.1,0
	s0.2,0,0.3,0.1c0-0.1,0-0.3,0-0.5c0,0,0-0.1-0.1-0.1c0,0,0,0,0.1,0c0-0.1,0,0-0.1-0.1c-0.1-0.2-0.2-0.3-0.3-0.5c0-0.1,0-0.1,0-0.2
	c0.1,0.2,0.3,0.4,0.4,0.6c0-0.1,0-0.2,0-0.2c-0.1-0.2-0.2-0.3-0.3-0.5c0-0.1,0-0.1,0-0.2c0.2,0.4,0.5,0.7,0.7,1.1
	C51.6,56.7,51.7,57.9,51.7,59L51.7,59z M52.4,54L52.4,54C52.4,54,52.4,54,52.4,54C52.4,54,52.4,54,52.4,54z M52.1,51.5L52.1,51.5
	c0,0.1,0,0.1,0,0.1C52.1,51.6,52.1,51.6,52.1,51.5c0,0-0.1-0.1-0.1-0.2C52,51.3,52.1,51.4,52.1,51.5z M53.8,59.9
	C53.8,59.9,53.8,60,53.8,59.9c-0.2,0.1-0.4,0.2-0.5,0.2c-0.4,0-0.9,0.1-1.2-0.1c0,0,0-0.1-0.1-0.1C52.6,60.2,53.2,59.9,53.8,59.9z
	 M52.5,54C52.5,54,52.4,54,52.5,54c-0.1,0-0.1,0-0.1,0C52.5,54,52.5,54,52.5,54C52.6,54,52.5,54,52.5,54C52.6,54,52.6,54,52.5,54
	C52.6,54,52.5,54,52.5,54z M54.2,54.2c0,0.1,0.1,0.1,0.1,0.2c-0.1-0.3-0.3-0.5-0.4-0.8C54,53.8,54.1,54,54.2,54.2z M53.8,52.4
	C53.8,52.4,53.8,52.4,53.8,52.4C53.8,52.4,53.8,52.4,53.8,52.4C53.8,52.4,53.8,52.4,53.8,52.4z M53.4,52.3
	C53.3,52.3,53.3,52.3,53.4,52.3C53.3,52.3,53.3,52.3,53.4,52.3C53.3,52.3,53.3,52.3,53.4,52.3z M53.2,52.2L53.2,52.2
	C53.2,52.2,53.1,52.2,53.2,52.2C53.1,52.2,53.2,52.2,53.2,52.2z M52.6,54c0.4,0.1,0.5,0.4,0.7,0.6c0,0-0.1-0.1-0.1-0.1
	C53.1,54.3,52.9,54.1,52.6,54z M53.4,55c-0.2-0.2-0.4-0.5-0.6-0.7c0,0,0.1,0.1,0.1,0.1C53.2,54.6,53.4,54.8,53.4,55L53.4,55z
	 M53.4,54.8c0,0,0.1,0.1,0.1,0.1c0,0,0,0.1,0,0.1C53.5,54.9,53.4,54.9,53.4,54.8z M54.7,56.6c-0.2-0.2-0.3-0.3-0.4-0.5l0,0L54.2,56
	c-0.1-0.2-0.2-0.4-0.4-0.5c0-0.1-0.1-0.1-0.1-0.1c0-0.2-0.2-0.4-0.3-0.6C53.9,55.4,54.3,56,54.7,56.6C54.7,56.6,54.7,56.6,54.7,56.6
	z M55.2,56.2L55,56c0,0-0.1-0.1-0.1-0.1c-0.2-0.3-0.3-0.6-0.4-0.9c0,0,0,0,0,0C54.7,55.4,54.9,55.9,55.2,56.2
	C55.2,56.2,55.2,56.2,55.2,56.2z M55.7,56.3C55.7,56.3,55.7,56.3,55.7,56.3c0.1,0,0.1,0,0.2,0C55.8,56.3,55.7,56.3,55.7,56.3z
	 M57.1,56.9C57.1,56.9,57.1,56.9,57.1,56.9C57.1,56.9,57.1,56.9,57.1,56.9C57.1,56.9,57.1,56.9,57.1,56.9z"/>
</svg>
