<?xml version="1.0" encoding="utf-8"?>
<!-- Generator: Adobe Illustrator 23.0.0, SVG Export Plug-In . SVG Version: 6.00 Build 0)  -->
<svg version="1.0"
	 id="svg2" inkscape:version="0.48.1 " sodipodi:docname="AJAX.svg" sodipodi:version="0.32" xmlns:cc="http://creativecommons.org/ns#" xmlns:dc="http://purl.org/dc/elements/1.1/" xmlns:inkscape="http://www.inkscape.org/namespaces/inkscape" xmlns:rdf="http://www.w3.org/1999/02/22-rdf-syntax-ns#" xmlns:sodipodi="http://sodipodi.sourceforge.net/DTD/sodipodi-0.dtd" xmlns:svg="http://www.w3.org/2000/svg"
	 xmlns="http://www.w3.org/2000/svg" xmlns:xlink="http://www.w3.org/1999/xlink" x="0px" y="0px" viewBox="0 0 100 100"
	 enable-background="new 0 0 100 100" xml:space="preserve">
<sodipodi:namedview  bordercolor="#666666" borderopacity="1.0" id="base" inkscape:current-layer="g9523" inkscape:cx="274.19944" inkscape:cy="254.11873" inkscape:pageopacity="0.0" inkscape:pageshadow="2" inkscape:window-height="1004" inkscape:window-maximized="1" inkscape:window-width="1280" inkscape:window-x="-8" inkscape:window-y="-8" inkscape:zoom="0.78613281" pagecolor="#ffffff" showgrid="false">
	</sodipodi:namedview>
<defs>
	
	
		<inkscape:perspective  id="perspective188" inkscape:persp3d-origin="342.5 : 152.33333 : 1" inkscape:vp_x="0 : 228.5 : 1" inkscape:vp_y="0 : 1000 : 0" inkscape:vp_z="685 : 228.5 : 1" sodipodi:type="inkscape:persp3d">
		</inkscape:perspective>
</defs>
<g id="g9523">
	<path id="path14" d="M-2463.4,1915.1L-2463.4,1915.1L-2463.4,1915.1z"/>
	<g id="path162">
		<path fill="#00287E" d="M0,100h100V0H0V100z"/>
	</g>
	<g id="g9347" transform="matrix(1.25,0,0,1.25,-80.18497,-55.705)">
		<g id="path164">
			<path fill="#9ED9FF" d="M102,90.7h7.7h0.1c0,1.1,0,1.9,0,2.1c0,0.5,0.1,0.9-0.8,1.1s-4.7,1.2-4.7,1.2s-3.8-1-4.7-1.2
				c-0.9-0.2-0.8-0.6-0.8-1.1l0,0c0,0,0,0,0.1,0l0,0c0.1,0,0.1,0,0.2,0l0,0c0,0,0,0,0.1,0l0,0c0,0,0,0,0.1,0l0,0c0,0,0,0,0.1,0l0,0
				c0,0,0,0,0.1,0l0,0c0,0,0,0,0.1,0l0,0c0,0,0,0,0.1,0l0,0c0,0,0,0,0.1,0l0,0c0,0,0,0,0.1,0c0.4-0.1,0.7,0,1.3-0.1
				c0.6-0.1,1-0.1,1.7-0.1c0.7-0.1,1.5-0.2,1.7-0.2c0.2-0.1,0.4-0.2,1-0.3C106.2,92,106,92,106,92s-0.2,0-0.5-0.2
				c-0.3-0.1-0.2-0.2-0.6-0.2c-0.4-0.1-0.1,0.1-0.4,0s-0.4-0.1-0.4-0.1s-0.4,0-0.6-0.1c-0.2,0-0.3,0-0.4-0.1s-0.5-0.2-0.5-0.2
				S102.1,90.8,102,90.7"/>
		</g>
		<g id="path166">
			<path fill="#006FFF" d="M104.2,95.6c0.2,0,0.5,0.1,0.2,0.7s0.7,0.9,0.7,0.9l0.4-0.4c-0.4-0.4-0.4-0.5,0.1-0.9s0.8,0.5,0.8,0.5
				l0.4-0.2v-0.5c1.1,0.1,1.7,0,2.6-0.6c-1.8,0.6-2.8-0.1-2.8-0.1s2-0.5,2.7-0.7s1.2-0.4,1.2-1.3s0-6.2,0-9.1s1.1-2.6,1.1-2.6
				l-1.2-1.9c-3,1-3.6-0.9-6.1-0.9s-3.2,1.9-6.1,0.9L97,81.3c0,0,1.1-0.3,1.1,2.6s0,8.1,0,9.1c0,0.9,0.4,1.1,1.2,1.3
				C100,94.5,102,95,102,95s-1,0.7-2.8,0.1c0.9,0.6,1.6,0.7,2.6,0.6v0.5l0.4,0.2c0,0,0.2-0.9,0.8-0.5c0.5,0.4,0.5,0.5,0.1,0.9
				l0.3,0.4c0,0,1-0.4,0.7-0.9C103.7,95.7,104,95.6,104.2,95.6v-0.5c0,0-3.8-1-4.7-1.2c-0.9-0.2-0.8-0.6-0.8-1.1s0-8.1,0-8.1h11.1
				c0,0,0,7.6,0,8.1s0.1,0.9-0.8,1.1s-4.7,1.2-4.7,1.2L104.2,95.6"/>
		</g>
		<g id="path168">
			<path fill="#006FFF" d="M99.9,93.2c0.5,0,0.7-0.1,1.1-0.1c0.3,0,0.5,0,1-0.1s1.8-0.3,1.2-0.1c-0.6,0.2-0.4,0.3,0.5,0.2
				c0.9-0.1,1.5-0.1,1.5-0.3c-0.1-0.2,0-0.1-0.5,0c-0.5,0-0.6,0-0.6,0s0.2-0.2,0.5-0.2c0.4,0,0.9,0,1.1-0.1c0.2,0,0.4,0.2,0.2,0.2
				c-0.2,0-0.1,0.2,0.1,0.2s0.3,0.4-0.7,0.4c-1.1-0.1-1.4,0-2.1,0.1c-0.7,0-1.6,0-1.2-0.1s0.6-0.2-0.3,0c-0.9,0.1-0.8,0-1.5,0.1
				c-0.7,0-1.1,0-1.1,0L99.9,93.2"/>
		</g>
		<g id="path170">
			<path fill="#006FFF" d="M105.9,92c-0.5,0.1,0.7-0.1,1-0.1s0.8-0.1,0.3,0s-0.5,0.1,0,0.1c0.4,0,0.7-0.1,0.7-0.1h0.3
				c0,0,0.3,0-0.5,0.1s-1.4,0.1-1.1,0.1c0.3-0.1,0.8-0.1,0.2-0.1c-0.6,0-0.8,0-0.5,0C106.5,91.9,106.1,91.9,105.9,92"/>
		</g>
		<g id="path172">
			<path fill="#006FFF" d="M109.7,91.5c0,0,0.4,0-0.3,0c-0.7,0-0.9,0-0.9,0s-0.3,0,0.3,0.1c0.6,0.1,1.3,0.1,0.7,0.2
				c-0.6,0-0.8,0.1-0.6,0.1c0.2,0,0.3,0,0.4,0c0.2,0,0.4,0,0.4,0h0.2v0.3c0,0,0.1,0-0.4,0s-1.3,0-0.9,0s0.5,0,0.8,0
				c0.2,0,0.6,0,0.5,0"/>
		</g>
		<g id="path174">
			<path fill="#006FFF" d="M104.5,90.8c0.2,0,0.8,0.1,0.5,0.1s-0.4,0.1,0,0.1s0.8,0,0.8,0l-0.8,0.1c0,0-0.5,0-0.4,0
				C104.8,91,104.5,90.9,104.5,90.8h-0.2H104.5"/>
		</g>
		<g id="path176">
			<path fill="#006FFF" d="M107.3,93.6c0.9,0,0.7-0.1,1.7-0.3c1-0.2,0.1-0.4-0.5-0.5s1-0.2,0.8-0.2s-1.2,0-1.9,0
				c-0.7,0-0.1,0.4,0.6,0.5s-0.8,0.2-1.5,0.2c0,0,0.3,0.1-1.1,0.2s-2.4,0.1-1.8,0.2s3,0.1,1.3,0.3c-1.7,0.2-2.2,0.1-2.5,0.1
				c-0.3,0.1-1,0.2-1,0.2s0.8,0.2,0.9,0.2s-0.2-0.1,0.8-0.1s1.7-0.1,2.5-0.2s2.1-0.3,1.3-0.3c-0.8-0.1-1.3-0.2-0.6-0.2
				S107.3,93.6,107.3,93.6"/>
		</g>
		<g id="path178">
			<path fill="#35B336" d="M102.3,74.7l-0.3-0.2c0,0,0,0.3,0.2,0.7"/>
		</g>
		<g id="path180">
			<path fill="#35B336" d="M102.9,76.2c0,0-0.3-0.1-0.4-0.2s-0.4-0.1-0.4-0.1s0,0,0-0.1v-0.1c0-0.1,0-0.1-0.1-0.2
				c0-0.1-0.1-0.2-0.1-0.3c-0.2-0.3-0.3-0.3-0.8-0.4c-0.4-0.1-0.8-0.3-0.8-0.3s-0.1,0.3,0.4,0.5s1,0.4,1,0.4s0,0.2-0.4,0.2
				c-0.1,0-0.1,0-0.2,0v-0.1c0-0.1-0.1-0.2-0.2-0.2s-0.2,0.1-0.2,0.2c-0.1-0.1-0.3-0.2-0.4-0.2c-0.2-0.2-0.7-0.4-1.1-0.4
				c0,0,0.2,0.1,0.5,0.4c0.1,0.1,0.2,0.2,0.3,0.3c-0.1,0-0.2,0.1-0.2,0.2c0,0,0,0,0,0.1c-0.2,0-0.2-0.1-0.3-0.2l0,0
				c0-0.1-0.1-0.2-0.2-0.2s-0.1,0-0.2,0.1c0,0-0.1,0-0.2,0c-0.4,0-0.7,0-0.7,0s0.1,0.1,0.3,0.2c0.2,0,0.4,0,0.4,0.2
				c0,0.1,0,0.2,0,0.2l0,0c0,0,0,0,0-0.1s-0.1-0.2-0.2-0.2s-0.2,0.1-0.2,0.2v0.1h-0.1c-0.1,0-0.2,0.1-0.2,0.2s0.1,0.2,0.2,0.2
				s0.2-0.1,0.2-0.2v-0.1h0.1l0,0c0,0,0,0,0,0.1s0.1,0.2,0.2,0.2c0,0.1-0.1,0.1-0.3,0.2c-0.3,0.2-0.8,0.6-0.8,0.6s0.4-0.1,0.6-0.2
				c0.3-0.1,0.5-0.1,0.6-0.4c0.1-0.2,0.3-0.5,0.3-0.5s0,0,0.1-0.1l0,0c0,0.1,0.1,0.2,0.2,0.2s0.2-0.1,0.2-0.2c0,0,0,0,0-0.1
				c0.1,0,0.1,0.1,0.1,0.1s0,0.4-0.2,0.6S99,77.3,99,77.3s0.5,0.1,0.7-0.1c0.3-0.2,0.2-0.3,0.4-0.6c0.1-0.2,0.2-0.3,0.2-0.3
				s0,0,0.1,0v0.1c0,0.1,0.1,0.2,0.2,0.2l0,0c0,0-0.1,0-0.1,0.1c-0.3,0.2-0.6,0.5-0.6,0.5s0.2,0.2,0.6-0.2c0.4-0.3,0.5-0.5,0.7-0.6
				s0.4,0,0.4,0s-0.1,0.3-0.5,0.5s-0.7,0.6-0.7,0.6s0.3,0,0.5-0.2c0.2-0.1,0.5-0.3,0.5-0.3"/>
		</g>
		<g id="path182">
			<path fill="#35B336" d="M98.7,89.9c0.2,0,0.4,0,0.8,0.2s0.5,0.3,0.7,0.4c0.2,0,0.2,0,0.5,0.1s0.1,0.1,0.4,0.1s0.5-0.1,0.7,0
				s0.5,0.2,0.5,0.2s0.4,0.1,0.5,0.2s0.2,0,0.4,0.1c0.2,0,0.6,0.1,0.6,0.1s0.1,0,0.4,0.1s0.1-0.1,0.4,0c0.4,0.1,0.3,0.1,0.6,0.2
				c0.3,0.1,0.5,0.2,0.5,0.2s0.2,0-0.4,0.1s-0.8,0.2-1,0.3c-0.2,0.1-1,0.2-1.7,0.2c-0.7,0.1-1.1,0-1.7,0.1s-0.9,0-1.3,0.1
				s-1,0.2-1,0.2L98.7,89.9"/>
		</g>
		<g id="path184">
			<path fill="#35B336" d="M101.1,96.9c0.8,0.7,1.2,0.6,2.1,1.9c-0.4-1.1-0.5-1.4-1.1-1.9c1,0.7,1.3,0.7,2.1,1.9
				c-1.6-4.9-8.3-2.3-10.1-1.5c2.3-0.5,4.1,0.2,5,1.3c0,0-0.4-1.1-0.8-1.5c1.5,0.9,1.5,0.8,2.3,1.7c0,0-0.6-1.4-0.7-1.6
				c1.2,0.3,2.1,1.7,2.1,1.7S101.6,97.6,101.1,96.9"/>
		</g>
		<g id="path186">
			<path fill="#35B336" d="M107.2,96.9c-0.8,0.7-1.2,0.6-2.1,1.9c0.4-1.1,0.5-1.4,1.1-1.9c-1,0.7-1.3,0.7-2.1,1.9
				c1.6-4.9,8.3-2.3,10.1-1.5c-2.3-0.5-4.1,0.2-5,1.3c0,0,0.4-1.1,0.8-1.5c-1.5,0.9-1.5,0.8-2.3,1.7c0,0,0.6-1.4,0.7-1.6
				c-1.2,0.3-2.1,1.7-2.1,1.7S106.8,97.6,107.2,96.9"/>
		</g>
		<g id="path188">
			<path fill="#86473F" d="M87.6,69.5c-0.1-0.4,0-0.6,0.1-0.3c0.1,0.3,0.1,0.3,0.1,0.3"/>
		</g>
		<g id="path190">
			<path fill="#86473F" d="M98,84c0-2.9-1.1-2.6-1.1-2.6l1.2-1.9c1,0.4,1.8,0.4,2.4,0.2v-0.1c0,0-0.1-0.3-0.2-0.8
				c-0.2-0.5-0.3-0.5-0.7-0.6c-0.4,0-1.2,0.5-1.9,0.7c-0.7,0.2-1.4,0.5-1.4,0.5s-0.5-0.9-0.7-1.1S95.2,78,95,77.5s-0.2-0.5-0.6-0.9
				c-0.3-0.3-0.8-0.9-0.9-1.1c0,0,0-0.1,0.1-0.2s0.4-0.1,0.8-0.1c0.4-0.1,0.4-0.5,0.5-0.6c0.1-0.2,0-0.1,0-0.5s-0.4-0.5-0.5-0.5
				c-0.2-0.1-0.5-0.2-0.8-0.4c-0.3-0.3-1.2-0.7-1.4-0.8c-0.2-0.1,0-0.3,0.2-0.4s1.3,0,1.7,0c0.4,0,0.2-0.1,0-0.2c-0.2,0-1-0.1-1-0.1
				s0.5-0.1,1.7-0.6c1.2-0.6,1.5-1.7,1.5-1.7c-0.4,0.5-1.2,0.9-1.4,0.9c-0.2,0-0.1-0.2,0-0.6s-0.1-0.2-0.3,0.4
				c-0.3,0.5-1,0.8-1.3,0.9c-0.4,0.1-0.3,0.1,0-0.2c0.3-0.3,0.4-0.5,0.5-0.9c0.2-0.4,0.1-0.5-0.2,0c-0.3,0.5-1.3,1.2-1.5,1.4
				c-0.3,0.2-0.1-0.3,0.1-0.7c0.2-0.4,0.1-0.4-0.1-0.1s-0.4,0.6-0.7,0.8c-0.3,0.2-0.3,0.1-0.3-0.1c0-0.7-0.3-0.9-0.3-1
				c-0.1-0.1-0.2-0.2-0.1,0.1c0.1,0.4,0,0.8,0,0.9c0,0.2-0.2,0.1-0.3,0c-0.1-0.1-0.2-0.3-0.1-0.5c0.6-1.1,0.5-1.8,0.5-2.3
				s-0.2-0.1-0.2-0.1c0.1,1.9-0.9,2.4-0.9,2.4c-0.2-0.8-0.3-0.7-0.3-0.7c0,0.3-0.1,0.6-0.1,0.6s-0.8-0.9-0.7-1.8
				c0.2-0.9-0.1-1.3-0.1-1.3c-0.2,2.6-2.1,1.7-2.1,1.7l0.9,0.6c-0.3,1.2-1.9,0.6-1.9,0.6c0.5,0.9,3.3,0.5,3.3,0.5s0.3,0.3,0.8,0.7
				c0.5,0.4,1,0.7,1,0.7l-0.2,0.1c-0.7-0.5-1.3-0.5-1.7-0.3c-0.4,0.2-0.6,0.4-0.6,0.4c0.2,0.9,1.4,1,1.4,1c-0.2,0.4-0.2,1.3-0.1,2.3
				s-0.2,1.9-0.2,1.9l0.4-0.2c0,0,0,0.3,0,0.5s0.1,0.3,0.3,0.4c0.2,0.1,0.2,0.3,0.2,0.3v0.5l0.3-0.2c0,0,0.1,1,0.1,1.4
				s-0.1,0.8-0.1,0.9c0,0.2-0.1,0.6-0.1,0.6l0.3-0.1c0,0-0.3,1.2-0.5,1.7s-1.4,1.2-2.6,2.5s-0.9,2.4-1,3s0.4,0.2,0.4,0.2
				s0.6,0.9,0.6,1.9c0,1.1-0.7,1.7-0.9,1.9c-0.2,0.2,0,0.4-0.1,0.8c0,0.4,0,0.9,0.2,1.3s0,1.9,0,2.3s0,0.4,0.2,0.5s0.4,0.4,0.7,0.7
				c0.3,0.2,0.4-0.1,0.4-0.4s-0.1-0.4-0.1-0.4h0.1c0,0-0.2-0.1-0.5-0.5s-0.2-1.5-0.1-2.6s0.2-0.9,1.3-1.9c1.1-1,1.8-2.8,1.8-2.8
				s0.4,0.2,1.2,0.8c0.8,0.5,0.6,0.5,0.4,1.4s-0.2,1.1,0,1.4c0.2,0.2,0.4,0.4,0.9,0.7c0.5,0.2,0.5,0.3,1,0.9
				c0.5,0.7,0.8,0.8,1.2,0.9c0.5,0.1,0.5,0.3,0.5,0.3l0.8-0.3c-0.2-0.5-0.6-0.4-1-0.4s-0.5-0.1-1-0.7c-0.5-0.5-0.8-1-1.1-1.8
				s0-1.5,0.5-2.9s-0.2-1.9-0.2-1.9s0.6-0.7,1.2-1.3c0.6-0.5,1.3-1.9,1.3-2.3c0.1-0.4,0.1-0.4,0.6-0.3c0.5,0,0.3,1,0.2,1.7
				C96.8,87,96.8,87,97,87.3c0.2,0.2,0.1,0.4,0,1c-0.1,0.5,0.5,0.7,0.8,0.6C98,87.3,98,85.3,98,84"/>
		</g>
		<g id="path192">
			<path fill="#86473F" d="M119.4,72.3c1.4-0.2,2.6-1.4,3-2c0.5-0.6-0.1-0.5-0.3-0.2c-0.2,0.2,0,0.1-0.5,0.5
				c-0.4,0.4-0.6,0.3-0.4-0.1s-0.3,0.1-0.9,0.4c-0.5,0.4-0.6,0.2-0.2-0.2c0.3-0.4,0-0.2-0.4-0.1c-0.3,0.2-1.1,0.4-1.1,0.4
				s-0.1-0.3,0.8-0.7c0.8-0.5,2-1.4,2.2-1.8s0-0.7-0.2-0.2s-0.5,0.5-0.9,0.1c-1,0.8-0.9-0.1-0.9-0.1s-0.1,0.2-0.3,0.4
				c-0.2,0.3-0.4,0.2-0.6,0.1s-0.2-0.2-0.7,0.3s-1-0.5-1.1-1c0-0.5-0.1-0.5-0.2,0c-0.2,0.5,0,1.1,0.2,1.8c0.3,0.7-0.2,0.4-0.5,0.4
				s-1-0.6-1.3-1c-0.4-0.4-0.3-0.3-0.3,0.1c0,0.3,0.2,0.8,0.2,0.8s-1-0.4-1.4-0.8s-0.4-0.2-0.3,0.1c0.2,0.3,0.3,1,1.9,1.2
				c1.7,0.2,2.1,0.6,2,1.2c-2.1,0.2-2.8-0.6-2.9-0.8c-0.2-0.1-0.1,0.4-0.1,0.4s-0.7-0.2-1-0.6c-0.3-0.3-0.3,0,0,0.4
				c1.2,1.5,4,1.2,4,1.2s-0.5,0.3-0.8,0.5c-0.2,0.2-0.4,0.3-0.6,0.3c-0.7,0-1.1,0-1.7,0.3s-0.5,0.9-0.4,1.3s0.7,0.4,0.8,0.5
				c0.1,0.2,0.5,0.2,0.6,0.1s0.1-0.2,0.3-0.3c0.2-0.1,0.3,0,0.2,0.2c-0.1,0.3-0.9,1.1-1.3,1.5s-0.3,0.3-0.3,0.6
				c0,0.3,0.2,0.3,0.1,0.5c0,0.2,0,0.2-0.2,0.5s-0.5,0.5-0.5,0.7s-0.6,0.7-0.6,0.7c-0.7-0.4-1.7-1-2.1-1.3s-0.4-0.3-1.1-0.3
				c-0.6,0-0.9,0.7-0.9,1.4h0.1c0.5,0,1-0.1,1.6-0.3l1.2,1.9c0,0-0.2-0.1-0.5,0.1h0.1l0.4,0.4l-0.9,0.4l0,0
				c-0.1,0.4-0.2,0.9-0.2,1.6c0,1.3,0,3.1,0,4.8c0.4-0.2,0.3-0.9,0.2-1.5c0.5-0.1,0.3-0.5,0.2-0.6c-0.1,0-0.2-1.7,0-2.4
				c0.1-0.7,0.4-0.6,0.8-0.7s0.3,0.4,0.4,1s0.5,1.1,0.5,1.1v-0.4c0,0-0.1-0.4,0.3,0.2s2.7,1.9,2.7,1.9s-0.4,0.3-0.8,1.4
				s0.4,2.4,0.2,4.2c-0.2,1.2-1.1,2.3-1.7,2.6c-0.6,0.3-0.7,0.6-0.7,0.6l0.7,0.4c0,0,0.1-0.2,0.3-0.3c0.2-0.2,0-0.2,0.4-0.2
				s0.6-0.6,0.8-1.2c0.3-0.6,1.2-1.6,1.2-1.6c0.4-0.6,0.3-0.5,0.2-0.8c-0.1-0.3-0.2-0.6,0-1.2c0.4-1.5,1.9-2.5,1.9-2.5v0.6
				c0,1.3,0.4,1.4,1.4,2.9c1.1,1.5,0.8,3.4,0.7,4.3c-0.1,0.9-0.5,1.2-0.5,1.2l0.3,1c0,0,0-0.1,0.1-0.3c0.1-0.2,0.3-0.6,0.5-0.8
				c0.2-0.1,0.3,0.1,0.2-0.8c0-0.9,0-1.7,0.2-2.9c0.2-1.2,0.1-0.9-0.3-2s-0.1-1.3,0.2-2c0.3-0.7,0.5-1.4,0.5-1.4s0.3,0,0.3-0.3
				c0-0.8-0.7-1.6-1.9-2.7s-1.4-2.3-1.4-2.3l0,0c-0.2-0.6,0.2-0.3,0.2-0.3c-0.2-0.7,0.3-1.5,0.3-1.5c-0.3-0.6-0.3-0.8-0.3-0.8
				l0.3-0.2c-0.4-1.2-0.3-1.2-0.3-1.2L119,79c0-0.6,0-1.1,0-1.1h0.3c0,0,0-0.7,0.2-1.7c0.2-0.9,0.4-0.4,0-2.3
				c1.1-0.3,1.1-0.9,1.1-0.9s-0.6-0.3-1.3-0.3S118.9,72.4,119.4,72.3"/>
		</g>
		<g id="path194">
			<path fill="#86473F" d="M106.5,72.5l0.3,0.3l0.1-0.5c0,0.1,0.4,0.4,0.4,0.4l0.1-0.4l0.3,0.6l0.3-0.2c0.1,0.2,0.4,0.3,0.4,0.3
				l0.2-0.4c0,0-0.2-0.5,0.1,0c0.3,0.5,0.6,0.4,0.6,0.4l0.1-0.3l0.4,0.5l0.2-0.4c0.2,0.9,0.5,1.3,0.5,1.3l0.2-0.1
				c0.1,0.6,0.3,0.9,0.3,0.9l0.2-0.5c0,0,0.1,0.5,0.2,0.9s0.2,0.7,0.2,0.7l0.1-0.4l0.3,0.7c0.7-4.6-1.3-6.7-2.1-7.6
				c-0.7-0.9-2.4-1.5-3.6-1.6c-1.1-0.1-1,1.1-0.1,1.7c0.7,0.4-0.4,1.3-0.4,1.3s-0.1-0.2-0.3-0.4l0,0c0,0,0,0.1,0,0.3
				c0.1,0.2,0.1,0.3,0.1,0.3h-0.2c0,0,0,0.2-0.1,0.3c0,0.1,0.1,0.3,0.1,0.3l-0.3-0.3L105,71l-0.3-0.2l-0.1,0.3l-0.2-0.2l-0.2,0.2
				l-0.3-0.1l-0.2,0.3l-0.2-0.3l-0.2,0.3l-0.2-0.3v0.1l-0.1-0.2l-0.2,0.4c0,0-0.1-0.3-0.3-0.3c-0.2,0-0.2,0-0.3-0.1
				c-0.1,0-0.1-0.4-0.1-0.4l-0.2,0.1l0.2-1l0,0c-0.8-0.6-1.4-1-1.1-2c0.2-0.8-0.6-1.6-2.5,0c-2.2,2.1-2.8,5.9-2.7,8.4l0.4-0.7
				l0.2,0.2l0.3-0.7l0.2,0.1c0,0,0.6-0.5,0.7-1c0.1-0.4,0,0.1,0,0.1l0.1,0.2c0,0,0.1,0.1,0.3-0.2c0.1-0.2,0.6-1,0.6-1
				s-0.1,0.4,0.2,0.5c0,0,0.3-0.1,0.5-0.5l0.2,0.3c0,0,0.4-0.2,0.5-0.4l0.1,0.4c0,0,0.4-0.3,0.6-0.6l0.2,0.4c0,0,0.3-0.2,0.4-0.5
				l0.5,0.4c0,0-0.2,0.3,0.1,0.7c0,0.3,0,0.8,0,0.8s0,0.2-0.1,0.4c0,0.2-0.1,0.4-0.1,0.6s0.1,0.5,0.4,0.5s0.4,0.1,0.6,0.2
				c0.3,0,0.5,0,0.8-0.1c0.2-0.1,0.3-0.3,0.3-0.5s0-0.1,0-0.4s-0.1-0.6,0.1-0.6s0.3-0.1,0.4,0.3c0.2,0.4,0.2,0.3,0.2,0.6
				c0,0.4,0,0.6,0.2,0.7c0.2,0,0.1,0.1,0.5,0.1s0.5,0,0.7,0c0.3,0,0.4-0.2,0.5-0.4c0.1-0.2,0-0.3,0-0.5s0.1,0.1-0.1-0.3
				s-0.3-1-0.4-1.3C106.5,73.2,106.4,72.8,106.5,72.5"/>
		</g>
		<g id="path196">
			<path fill="#86473F" d="M102.2,77.4v-0.9l4.6-0.1v0.9L102.2,77.4"/>
		</g>
		<g id="path198">
			<path fill="#FFEF6F" d="M103,76c0,0,0.2,0.1-0.3,0.4s-0.9,0.3-0.9,0.6c0,0.3,0.1,0.3,0.1,0.3s0.2,0,0.3,0c0.2,0,0.3,0,0.4,0
				s0.2,0.1,0.4,0.1c0.2,0,0.4-0.1,0.4-0.1s0,0,0.2,0.1s0.1,0,0.3,0c0.2,0,0.4-0.1,0.4-0.1s0.3-0.3-0.1-0.6
				c-0.4-0.2-0.5-0.3-0.6-0.3s-0.1-0.2-0.1-0.3"/>
		</g>
		<g id="path200">
			<path fill="#FFEF6F" d="M105.7,76.1c0,0,0.2,0.1-0.2,0.4c-0.4,0.2-0.7,0.1-0.7,0.5c0,0.3,0.1,0.4,0.1,0.4s0.2,0,0.3,0
				c0,0,0.1,0,0.2-0.2s0.4-0.4,0.4-0.4s0.1-0.1,0,0.3c-0.1,0.3,0.1,0.4,0.1,0.4h0.2c0,0,0-0.2,0-0.3c0-0.1,0-0.3,0-0.3s0,0,0.2,0.1
				c0.1,0.1,0.1,0.1,0.2,0.3c0.1,0.2,0.1,0.2,0.1,0.2l0.3-0.1c0,0,0.3-0.3,0-0.5c-0.2-0.2-0.6-0.3-0.8-0.6"/>
		</g>
		<g id="path202">
			<path fill="#FFEF6F" d="M106.9,76.9l1.3-0.3v0.1l0.4-0.3l-0.5-0.1v0.1l-1.2,0.3"/>
		</g>
		<g id="path204">
			<path fill="#FFEF6F" d="M106.9,77.2l1.8,0.4v0.1l0.5-0.1l-0.4-0.3v0.1L107,77"/>
		</g>
		<g id="path206">
			<path fill="#FFEF6F" d="M106.9,77.1h2.3v0.1l0.4-0.2l-0.5-0.2v0.1h-2.3"/>
		</g>
		<g id="path208">
			<path fill="#FFEF6F" d="M109.7,90.7c0-2.4,0-6.1,0-6.1H98.6v5.3c0.2,0,0.4,0,0.8,0.2s0.5,0.3,0.7,0.4c0.2,0,0.2,0,0.5,0.1
				s0.1,0.1,0.4,0.1s0.5-0.1,0.7,0H109.7"/>
		</g>
		<g id="path210">
			<path fill="#86473F" d="M102.2,91.7c0.2-0.1,0.3-0.1,0.4,0c0,0,0.1-0.6,0.2-0.8c0-0.1,0.3-0.8,0.3-0.8s0,0.3,0,0.7
				c0,0.4-0.1,0.6,0.2,0.7c0.3,0.1,0.5,0,0.5,0s-0.2,0-0.2-0.4c0-0.3-0.1-1.5-0.1-1.6s0-0.4,0-0.4l0.1-0.4c0,0,0.2,0,0.4,0
				c0.2,0,0.3-0.1,0.4-0.1s0.2,0,0.2,0v-0.2c0,0-0.3,0-0.5,0s-0.5-0.1-0.5-0.1s0,0-0.1-0.2c0-0.2-0.2-0.3-0.2-0.3s0.1-0.1,0.1-0.2
				s0.1-0.2,0-0.4c-0.1-0.2-0.1-0.3-0.4-0.2c-0.2,0.1-0.2,0-0.3,0.3c-0.1,0.2,0,0.2,0,0.3c0,0.1,0,0.2,0,0.2s-0.1-0.1-0.2,0
				s-0.1,0.2-0.1,0.2h-0.2l-0.1-0.2c0,0,0-0.1-0.1-0.2c0-0.1-0.1-0.5-0.1-0.5l-0.2-0.2c0,0-0.1,0.2-0.1,0.3c0,0.1,0.1,0.3,0.1,0.5
				s0,0.6,0,0.6s0,0.2,0.2,0.3c0.2,0,0.5,0,0.5,0s0.1,0.1,0.1,0.5s0,0.1,0,0.3c0,0.2,0,0.1-0.1,0.5c0,0.4-0.2,0.9-0.2,1.1
				C102.3,91,102.2,91.7,102.2,91.7"/>
		</g>
		<g id="path212">
			<path fill="#B37535" d="M93.7,88.4L93.1,89c0,0,0.7,1,0.1,2.4c-0.5,1.4,0.1,1.9,0.1,1.9s-0.3-1,0.4-2.6
				C94.3,89.1,94.2,89.1,93.7,88.4"/>
		</g>
		<g id="path214">
			<path fill="#B37535" d="M86.7,95.3c0.2-0.4,0.5-1.4-0.1-1.9l-0.1,0.1v1.3l0.1,0.3"/>
		</g>
		<g id="path216">
			<path fill="#B37535" d="M87.6,92.6c0.3-1.3,0-1.5,0.3-3.1s0.1-3.3,0.8-3c0.7,0.2,1.5,0.7,1.4,1.7s-0.9,2.5-1.5,3.4
				c-0.7,0.9-0.9,1.4-0.9,0.9"/>
		</g>
		<g id="path218">
			<path fill="#B37535" d="M87.6,89.2c0.6-1,0-2.5,0.9-3.1c1-0.6,0.6-0.4,0.6-0.4s-1.7,0.2-1.8,2.2C87.2,89.8,87.5,89.4,87.6,89.2"
				/>
		</g>
		<g id="path220">
			<path fill="#B37535" d="M91.5,82.6c-0.9,2.6-1.3,3.5-0.8,4s1.3,0.4,2-0.6c0.7-1.1,1.1-2.6,1.2-2.9c0.1-0.4,0-0.6,0.8-0.3
				c0.8,0.3,1.7,0.7,2.2,0.8c0.4,0.1,0.9,0,0.8,1.5c0,1.5-0.3,1.3-0.2,2.1c0.1,0.8-0.1,1.4,0.4,1.6v-5.5c0,0-2.2-0.9-2.5-1.1
				s-0.8-2.6-1.5-3.9s-1.7-2.2-2.3-3.1c-0.6-1-0.7-1.5-0.2-1.3c0.4,0.2,0.9,0.8,1.7,0.9c0,0-0.4-0.4-0.6-0.6
				c-0.2-0.3-0.4-0.4-0.1-0.4s0.4,0,0.4,0.3c0,0.2,0,0.2,0.4,0.4c0.4,0.1,0.6,0,0.2-0.2C93,74.1,93,73.6,93,73.6s0.4,0.1,0.7,0.3
				c0.3,0.2,0.4,0.4,0.4,0.4l0.7-0.4c0,0-0.2-0.1-0.6-0.1s-1-0.3-1.1-0.4s-0.7-0.7-1.5-0.5s-0.9,0.4-0.9,0.4h-0.3l0.1,0.2
				c0,0-0.2,0.2-0.3,0.6c0,0.4,0.2,0.2,0.2,0.2s0.1,0.2,0.2,1c0,0.8-0.2,0.5-0.2,1.1s0,0.8,0,0.8s0.2-0.5,0.2,0c0,0.6-0.1,1,0.3,1.7
				s0.4,1.1,0.4,1.1l-0.4-0.4c0,0,0.3,0.1,0,1s0.1,0.9,0.1,0.9s0.3,0.1,0.1,0.5c-0.2,0.4,0.2,0.1,0.2,0.1S91.7,82.1,91.5,82.6"/>
		</g>
		<g id="path222">
			<path fill="#B37535" d="M88.4,72.7c0,0,0.7-0.4,1.3-0.3c0.6,0.1,0.9,0.7,0.9,0.7s-0.9,0.4-1.2,0.2C89.1,73.2,88.4,72.7,88.4,72.7
				"/>
		</g>
		<g id="path224">
			<path fill="#B37535" d="M86.3,70.9c0.8,0,1.1-0.1,1.3-0.8C87.6,70.7,87.9,70.7,86.3,70.9"/>
		</g>
		<g id="path226">
			<path fill="#B37535" d="M87.6,69.7c-0.4,0,0.9-0.3,1-0.7c0.2-0.4,0.2-0.4,0,0.1S88.4,69.7,87.6,69.7"/>
		</g>
		<g id="path228">
			<path fill="#B37535" d="M119.5,91.1c-0.8-1.3-0.7-1.5-0.8-2.5c0-0.9-0.3-1,0-1.6s1.5-1,1.7,0c0.3,1,0.6,1.5,0,2.7
				C119.9,90.9,119.8,91.6,119.5,91.1"/>
		</g>
		<g id="path230">
			<path fill="#B37535" d="M118.1,88.4c0,0-0.4-0.4-1.2,0.8c-0.7,1.2-1,1.1-1,2.1c0,0.9,0.1,1.5,0.1,1.5h0.4c0,0-0.3-1-0.1-1.5
				c0.2-0.5,0.6-1.3,1.1-1.7c0.5-0.4,0.8-0.8,0.8-0.8L118.1,88.4"/>
		</g>
		<g id="path232">
			<path fill="#B37535" d="M114.8,83.1c0,0,0.1,1.4,1.1,2.2c1,0.8,1.5,1.2,1.9,0.9c0.4-0.3,0.5-0.3,0-1.4s-0.8-1.9-0.8-2.2
				c0-0.4,0-1.3,0-1.3l0.3,0.5v-1.4l0.3,0.2c0,0-0.1-0.4-0.1-0.9s0-0.9,0-0.9l0.3,0.3c0,0-0.1-0.8-0.2-1.3s-0.1-0.3-0.1-0.3l0.4,0.2
				l0.1-1l0.2-1.2c0,0,0.1-0.1,0.2-0.9c0.1-0.7,0.1-0.9,0.1-0.9s0.2,0,0.8-0.1c0.5-0.1,1.2-0.5,1.2-0.5s-0.7-0.4-1.4-0.2
				c-0.8,0.3-0.9,0.3-0.9,0.3s-0.6-0.6-1.1-0.3c-0.5,0.3-0.8,0.6-1.3,0.7c-0.5,0-1.3,0-1.5,0.4s-0.4,0.7,0,0.9c0,0,0-0.5,0.3-0.6
				s0.7-0.2,0.7-0.2s0.8,0,1.2-0.3c0.4-0.2,0.6-0.4,0.9-0.4c0.4,0,0.7-0.1,0.4,0.4c-0.3,0.5-0.7,0.6-0.7,0.6s0.4,0.1,0.1,0.6
				s-0.6,0.6-0.7,0.8c-0.1,0.2-0.6,0.8-0.6,0.8l0.6-0.1l-1,1.5l0.5-0.2l-0.5,0.4l0.3,0.1l-0.9,1c0,0,0,0.3-0.4,0.8
				c-0.4,0.4-0.4,0.4-0.6,0.6s-0.4,0.5-0.4,0.5s-0.4,0.6-1.1,0.9s-1.6,0.5-1.6,0.5s-0.2,0.6-0.1,2.2c0,1.5,0,2.2,0,2.2
				s0.2-0.1,0.2-1.3c0-1.3-0.4-2.4,0.9-2.7c1.3-0.3,2.1-0.6,3-0.7c0.9,0,1.1,0.1,0.7,0.4c-0.4,0.2-0.6,0.3-0.6,0.3
				S114.8,82.6,114.8,83.1"/>
		</g>
		<g id="path234">
			<path fill="#B37535" d="M108.9,79.8c0,0,0-1,0.5-1s0.6,0,1.2,0.5c0.6,0.6,0.6,1,0.4,1.3l-0.6-1L108.9,79.8"/>
		</g>
		<g id="path236">
			<path fill="#B37535" d="M116.2,70.7c0,0,0.9,0,1,0.4s0.4,1.5,0.4,1.5s0.5,0.3,0.9,0.1c0.4-0.2,0.2-0.2,0.6-0.5s1.9-0.9,1.9-0.9
				s-0.4-0.1-0.1-0.4c0.2-0.3,0,0.1,0,0.1s-0.8,0.4-1.1,0.4c-0.3,0-0.3-0.2-0.1-0.3l-1,0.3c0,0-0.3,0-0.1-0.4
				c0.1-0.3,0.4-0.6,0.4-0.6s-0.6-0.2-0.7,0.4s-0.1,1.3-0.1,1.3h-0.4c0,0,0-0.4-0.1-0.9c-0.1-0.4-0.4-1.4-0.4-1.4s0.1,0.5,0,0.7
				C117,70.8,116.2,70.7,116.2,70.7"/>
		</g>
		<g id="path238">
			<path fill="#B37535" d="M113.3,69.4c0,0,0.5,0.6,0.9,0.8c0.4,0.2,1.1,0.3,1.1,0.3l-0.5-1.3l0.1,0.9
				C114.9,70.1,113.7,69.7,113.3,69.4"/>
		</g>
		<g id="path240">
			<path fill="#B37535" d="M113.1,70.9c0,0,0.7,0.4,1.1,0.6v-0.4c0,0,0.4,0.4,1.1,0.7c0.7,0.3,0.9,0.2,1.9,0.1l-0.1,0.2
				c0,0-1.1,0-1.6-0.1s-1.1-0.4-1.1-0.4l0.1,0.3c0,0-0.1,0.1-0.4,0S113,71,113.1,70.9"/>
		</g>
		<g id="path242">
			<path fill="#B37535" d="M102.3,91.6c0,0,0.1-0.7,0.2-1s0.1-0.6,0.2-0.8c0-0.2,0.1-0.3,0.1-0.4s0-0.1,0-0.3c0-0.2-0.1-0.4-0.1-0.5
				s-0.1-0.1,0.1-0.2c0.1-0.1,0.2-0.5,0.3-0.1s0.1,0.4,0.1,0.4l0.3-0.5h0.1l-0.4,0.7c0,0-0.1-0.1-0.1,0.2c0,0.3,0.1,0.5,0,0.6
				s-0.1,0.2,0,0.2s0,0.1-0.1,0.4s-0.2,0.6-0.2,0.9c0,0.2-0.1,0.6-0.1,0.6L102.3,91.6"/>
		</g>
		<g id="path244">
			<path fill="#B37535" d="M103.4,91.5c0,0,0,0.1,0-0.4s-0.1-0.9-0.1-0.9l0.1-0.3c0,0-0.1,0.1,0,0.4s0.1,0.8,0.1,0.9
				c0,0.2,0.1,0.3,0.1,0.3H103.4"/>
		</g>
		<g id="path246">
			<path fill="#B37535" d="M103.4,87.5c0,0-0.2,0-0.2-0.1c-0.1-0.1-0.1,0-0.1,0s0,0.1,0,0.2s0.1,0.2,0.1,0.2h0.2V87.5L103.4,87.5"/>
		</g>
		<g id="path248">
			<path fill="#B37535" d="M103,89.3c0,0,0.2,0.1,0.3,0c0.1,0,0.1,0,0.1,0H103l0.2,0.1l-0.4,0.2"/>
		</g>
		<g id="path250">
			<path fill="#B37535" d="M101.8,87.6c0,0,0.1,0.1,0.1,0.3s0.2,0.5,0.2,0.5s-0.3,0.1-0.3-0.1C101.8,88.1,101.8,87.6,101.8,87.6"/>
		</g>
		<g id="path252">
			<path fill="#FFFFFF" d="M102.5,69.6c0,0,0.7-1.1,0.3-1.5c-0.4-0.4-0.5-0.4-0.5-0.4s-0.1-0.1-0.1-0.2c0,0-0.1,0-0.3,0
				c-0.2,0-0.2-0.1-0.1-0.4s0.4-0.5,1-0.3c0,0,0.3-0.3,0.8-0.1c0.6,0.2,1.1,0.4,1.3,1.2c0.3,0.8,0.4,0.8,0.5,1
				c0.1,0.1,0.3,0.4,0.4,0.7l0,0c0,0,0,0.1,0,0.3c0.1,0.2,0.1,0.3,0.1,0.3h-0.2c0,0,0,0.2-0.1,0.3c0,0.1,0.1,0.3,0.1,0.3l-0.3-0.3
				l-0.1,0.4l-0.3-0.2l-0.1,0.3l-0.2-0.2l-0.2,0.2l-0.3-0.1l-0.2,0.3l-0.2-0.3l-0.2,0.3l-0.2-0.3V71l-0.1-0.2l-0.2,0.4
				c0,0-0.1-0.3-0.3-0.3c-0.2,0-0.2,0-0.3-0.1c-0.1,0-0.1-0.4-0.1-0.4l-0.2,0.1L102.5,69.6L102.5,69.6"/>
		</g>
		<g id="path254">
			<path fill="#FFFFFF" d="M106.6,73.7c0.5,0.5,1.5,1,1,1.2c0,0-0.2,0-0.4-0.1c-0.2-0.2,0,0.1,0,0.1s0,0.2-0.2,0.2
				C107,75,106.7,74.4,106.6,73.7"/>
		</g>
		<g id="path256">
			<path fill="#FFFFFF" d="M105,75.2c-0.2,0-0.7,0-0.7-0.4c0-0.2-0.1-0.2,0.1-0.3c0.2-0.1,0.2-0.2,0.3,0.1
				C104.7,74.6,105,75,105,75.2"/>
		</g>
		<g id="path258">
			<path fill="#FFFFFF" d="M101.8,86.9L101.8,86.9L101.8,86.9L101.8,86.9"/>
		</g>
		<g id="path260">
			<path fill="#FFFFFF" d="M101.8,87.7C101.8,87.6,101.8,87.6,101.8,87.7c0-0.2-0.1-0.4-0.1-0.5c0,0,0-0.1,0-0.2l-0.1,0.1l0.1,0.4
				L101.8,87.7"/>
		</g>
		<g id="path262">
			<path fill="#FFFFFF" d="M102.9,90.7h0.2c0-0.3,0-0.5,0-0.5S103,90.4,102.9,90.7"/>
		</g>
		<g id="path264">
			<path fill="#FFFFFF" d="M102.6,89.8c0-0.4,0.1-0.3,0.1-0.5s0,0.1,0-0.3s-0.1-0.5-0.1-0.5s-0.3,0-0.5,0s-0.2-0.3-0.2-0.3
				s0-0.1,0-0.3c-0.1,0.1-0.2,0.3-0.6,0.6c-0.5,0.3-0.6,0.6-0.2,0.6s0.3-0.2,0.7,0.2c0.4,0.4,0.4,0.3-0.4,0.1
				c-0.9-0.2-0.6-0.2-1-0.1s-0.6,0.1-0.3,0.3c0.3,0.1,0.6,0.3,0.2,0.4s-0.7,0.1-0.7,0.1c0.4,0.2,0.5,0.3,0.7,0.4
				c0.2,0,0.2,0,0.5,0.1s0.1,0.1,0.4,0.1s0.5-0.1,0.7,0h0.6C102.5,90.4,102.5,90.1,102.6,89.8"/>
		</g>
		<g id="path266">
			<path fill="#FFFFFF" d="M109.2,86.9c-0.4,0.1-0.7,0.2-0.8-0.2c-0.1-0.4-0.7-0.2-0.9-0.1c-0.2,0.1-0.5,0.1-0.7,0.1
				s-0.6-0.3-0.4-0.4c0.3-0.1,0.1-0.7-0.6-0.4c-0.8,0.3-1.3,0.2-0.8,0.4c0.5,0.2,0.9,0.6,0.2,0.8c-0.6,0.2-0.9,0.4-1.1,0.4
				s-0.2,0.1-0.4-0.3c-0.3-0.4-0.4-0.7-0.8-0.4c-0.4,0.3-0.3,0.6-0.5,0.7s-0.3,0.1-0.3,0.1l-0.2-0.5c0,0.1,0.1,0.3,0.1,0.4
				s0.1,0.2,0.1,0.2l0.1,0.2h0.2c0,0,0.1-0.1,0.1-0.2c0.1-0.1,0.2,0,0.2,0s0,0,0-0.2c0-0.1-0.1-0.1,0-0.3c0.1-0.2,0.1-0.2,0.3-0.3
				c0.2-0.1,0.3,0,0.4,0.2s0,0.2,0,0.4c0,0.1-0.1,0.2-0.1,0.2s0.2,0.2,0.2,0.3c0,0.2,0.1,0.2,0.1,0.2s0.2,0.1,0.5,0.1
				c0.2,0,0.5,0,0.5,0v0.2c0,0-0.1,0-0.2,0s-0.2,0.1-0.4,0.1c-0.2,0-0.4,0-0.4,0l-0.1,0.4c0,0,0,0.2,0,0.4c0,0.1,0.1,0.6,0.1,1.1
				h6.1c0-1.2,0-2.8,0-4C109.7,86.7,109.6,86.7,109.2,86.9"/>
		</g>
		<g id="path268">
			<path fill="#FFFFFF" d="M104.2,99c-4.6,0.1-7-0.5-10.9-1.9s-4,0.3-5.2,1.2l-0.5,0.6c0.1,0,0.2-0.1,0.3-0.1H88
				c3.9,3.5,7.8,7.1,16.2,7.2c8.2-0.1,11.9-3.7,15.7-7.2h0.1c0.1,0,0.2,0.1,0.3,0.1l-0.4-0.7c-1.2-0.9-1.7-2.3-4.8-1.1
				C111.2,98.5,108.8,99.1,104.2,99v2c7.1,0,9.8-1.3,11.7-2.2c-2.3,1.8-5.4,4.7-11.7,4.5c-6.3,0.2-9.9-2.7-12.2-4.5
				c1.9,0.8,5.1,2.1,12.2,2.1V99"/>
		</g>
		<g id="path270">
			<path fill="#FFB935" d="M107.6,90.7c0.1-0.1,0.2-0.3,0.2-0.5c0-0.4-0.3-0.7-0.7-0.7c-0.4,0-0.7,0.3-0.7,0.7
				c0,0.2,0.1,0.3,0.2,0.4"/>
		</g>
		<g id="path272">
			<path fill="#FFB935" d="M104.4,90.4h1.7v-0.2h-1.7V90.4z"/>
		</g>
		<g id="path274">
			<path fill="#FFB935" d="M106.1,90l-1.5-0.2v0.1L106.1,90L106.1,90"/>
		</g>
		<g id="path276">
			<path fill="#FFB935" d="M106.1,89.8l-1.5-0.7l-0.1,0.1L106.1,89.8L106.1,89.8"/>
		</g>
		<g id="path278">
			<path fill="#FFB935" d="M106.3,89.7l-1.3-0.8l-0.1,0.1L106.3,89.7L106.3,89.7"/>
		</g>
		<g id="path280">
			<path fill="#FFB935" d="M106.4,89.5l-1.3-1.4l-0.1,0.1L106.4,89.5L106.4,89.5"/>
		</g>
		<g id="path282">
			<path fill="#FFB935" d="M106.5,89.4l-0.9-1.2l-0.1,0.1L106.5,89.4L106.5,89.4"/>
		</g>
		<g id="path284">
			<path fill="#FFB935" d="M106.7,89.3l-0.7-2.1h-0.1L106.7,89.3L106.7,89.3"/>
		</g>
		<g id="path286">
			<path fill="#FFB935" d="M106.9,89.3l-0.3-1.4h-0.1L106.9,89.3L106.9,89.3"/>
		</g>
		<g id="path288">
			<path fill="#FFB935" d="M107.1,89.3l0.2-2.2h-0.1L107.1,89.3L107.1,89.3"/>
		</g>
		<g id="path290">
			<path fill="#FFB935" d="M107.3,89.3l0.3-1.4h-0.1L107.3,89.3L107.3,89.3"/>
		</g>
		<g id="path292">
			<path fill="#FFB935" d="M107.5,89.4l1.1-1.9l-0.1-0.1L107.5,89.4L107.5,89.4"/>
		</g>
		<g id="path294">
			<path fill="#FFB935" d="M107.6,89.5l0.9-1.2l-0.1-0.1L107.6,89.5L107.6,89.5"/>
		</g>
		<g id="path296">
			<path fill="#FFB935" d="M107.8,89.6l1.8-1.3l-0.1-0.1L107.8,89.6L107.8,89.6"/>
		</g>
		<g id="path298">
			<path fill="#FFB935" d="M107.8,89.8l1.3-0.7L109,89L107.8,89.8L107.8,89.8"/>
		</g>
		<g id="path300">
			<path fill="#FFB935" d="M107.9,90l1.5-0.3v-0.1L107.9,90L107.9,90"/>
		</g>
		<g id="path302">
			<path fill="#FFB935" d="M107.9,90.2l1.5-0.2v-0.1L107.9,90.2L107.9,90.2"/>
		</g>
		<g id="path304">
			<path fill="#FFB935" d="M107.9,90.4l1.4,0.3v-0.1L107.9,90.4L107.9,90.4"/>
		</g>
		<g id="path306">
			<path fill="#EF1439" d="M104.2,65.3c3,0,6.2,0.7,8.6,2c0,0,0.2,0,0.4-0.3c0.2-0.3,0.2-0.4,0.2-0.4s1.3,1.2,2,1.4
				c0,0-0.3-0.6-0.3-1.4l1.6-0.5c-1.2-0.5-2.6-1.4-3.4-2.3c-0.7-0.8-1.9-1.1-2.1-0.4c-0.1,0.7-0.3,0.9-0.3,0.9s-2.8-1.1-6.8-1.1
				s-6.8,1.1-6.8,1.1s-0.2-0.2-0.3-0.9c-0.1-0.7-1.3-0.4-2.1,0.4c-0.7,0.8-2.2,1.7-3.4,2.3l1.6,0.5c0,0.7-0.3,1.4-0.3,1.4
				c0.7-0.2,2-1.4,2-1.4s0.1,0,0.2,0.4c0.2,0.3,0.4,0.3,0.4,0.3C98,66,101.2,65.3,104.2,65.3"/>
		</g>
		<g id="path308">
			<path d="M91.3,73.2c0.4,0,0.5-0.2,0.9-0.1c0.3,0.1,0.5,0.2,0.7,0.4c0.2,0.2,0.1,0.1,0.1,0.1s-0.3-0.1-0.4,0s-0.5,0.2-0.6,0
				s-0.1-0.2-0.3-0.3c-0.2,0-0.3,0-0.5-0.1S91,73.1,91,73.1s0.4,0.1,0.6,0.1s0.3,0,0.4,0.1s0.1,0.1,0.2,0s0.2-0.2,0.2-0.1
				c0.1,0,0.2,0,0.2,0.2c-0.1,0.2,0,0.2,0,0.2s0.1,0,0.2-0.1c0.1,0,0.2,0,0.2,0s-0.4-0.2-0.6-0.3c-0.1-0.1-0.2-0.1-0.4-0.1
				C91.5,73.2,91.3,73.2,91.3,73.2"/>
		</g>
		<g id="path310">
			<path d="M94.9,73.9c-0.2,0-0.2,0-0.4,0.1c-0.2,0.1-0.4,0.1-0.4,0.1s0.2,0.1,0.3,0.1c0.2,0,0.4-0.1,0.5-0.1V73.9"/>
		</g>
		<g id="path312">
			<path d="M88.7,72.7c0.3-0.1,0.2-0.2,0.6-0.1s0.6,0,0.8,0.3c0.2,0.3-0.4,0.2-0.5,0.1C89.4,73,88.7,72.9,88.7,72.7"/>
		</g>
		<g id="path314">
			<path d="M114.7,74.7c-0.4,0.6-0.8,0.1-0.5-0.3c0.1-0.1,0.2-0.2,0.3-0.2C114.8,74,115,74,115,74s-0.4,0.1-0.6,0.3
				c-0.2,0.2,0,0.2-0.1,0.3c0,0.1,0,0.1,0.1,0s0.1,0,0.2-0.1C114.7,74.4,114.8,74.6,114.7,74.7"/>
		</g>
		<g id="path316">
			<path d="M116.2,73.7c0.3-0.2,0.5-0.4,0.7-0.4s0.3,0,0.5,0c0.2,0.1,0.2,0.1,0.2,0.1h-0.4c0,0-0.1,0.5-0.3,0.1l-0.3,0.1L116.2,73.7
				"/>
		</g>
		<g id="path318">
			<path d="M118.4,73.5c0.1-0.1,0.1-0.1,0.4-0.2s0.3-0.2,0.5-0.1c0.2,0,0.5,0.1,0.5,0.1s-0.2,0.2-0.7,0.2S118.4,73.5,118.4,73.5"/>
		</g>
		<g id="path320">
			<path d="M102.7,66.8c0.3,0.1,0.5,0.2,0.9,0.5s0.1,0.2-0.1,0.1c-0.1-0.1-0.2-0.1-0.2-0.1s-0.2,0.2-0.3,0c-0.1-0.2,0-0.2-0.1-0.2
				C102.9,67,102.7,66.8,102.7,66.8L102.7,66.8"/>
		</g>
		<g id="path322">
			<path d="M102.4,77.2c0-0.2,0-0.4,0.1-0.5s0.4-0.2,0.4-0.2s-0.2,0-0.2,0.3c-0.1,0.3-0.1,0.4-0.1,0.5h-0.2L102.4,77.2"/>
		</g>
		<g id="path324">
			<path d="M103.3,77.3c0,0,0.1-0.1,0-0.3c-0.1-0.2-0.1-0.3-0.1-0.4c0.1,0,0.1-0.1,0.1,0.1s0,0.4,0.1,0.5h-0.1V77.3"/>
		</g>
		<g id="path326">
			<path d="M101.9,77.4l0.1,0.2l0.1-0.2"/>
		</g>
		<g id="path328">
			<path d="M102.8,77.4c0,0,0.1,0.1,0.1,0.2c0,0.2,0,0.1,0,0.1s0-0.1,0.1-0.2v-0.1H102.8"/>
		</g>
		<g id="path330">
			<path d="M103.9,77.4c0,0.1,0.1,0.2,0.1,0.2s0,0,0.1-0.1s0.1-0.2,0.1-0.2L103.9,77.4"/>
		</g>
		<g id="path332">
			<path d="M104.8,77.3c0,0.1,0.1,0.2,0.1,0.2l0.1-0.2H104.8"/>
		</g>
		<g id="path334">
			<path d="M105.8,77.4l0.2,0.2l0.1-0.3L105.8,77.4"/>
		</g>
		<g id="path336">
			<path d="M106.5,77.3l0.2,0.2c0,0,0,0,0.1-0.1c0-0.1,0.1-0.2,0.1-0.2L106.5,77.3"/>
		</g>
		<g id="path338">
			<path d="M104.5,88.5l0.1-0.6h0.1L104.5,88.5"/>
		</g>
		<g id="path340">
			<path d="M104.5,88.8l-0.2,1.9l-0.1,0.2h-0.1l0.1,0.1l-0.1,0.5h0.2l0.1-0.6c0,0,0.1-0.2,0.1-0.3C104.4,90.4,104.5,88.7,104.5,88.8
				"/>
		</g>
		<g id="path342">
			<path d="M102.2,91.7c0,0,0.2-0.1,0.4,0c0.2,0.1,0,0.2-0.1,0.2C102.4,91.8,102.2,91.7,102.2,91.7"/>
		</g>
		<g id="path344">
			<path d="M103.8,91.6L103.8,91.6c0,0.1,0,0.1-0.2,0.1s-0.4-0.1-0.4-0.1"/>
		</g>
		<g id="path346">
			<path d="M96.6,96.3l-0.2-0.4l-0.5,0.5l0.1-0.1l-1-0.1c0,0,0.5,0.1,0.6,0.2s0.2,0.1,0.2,0.2l0,0L96.6,96.3"/>
		</g>
		<g id="path348">
			<path d="M87.1,98.5c0.3,0,0.8,0,0.9-0.1L87.9,99h-0.2L87.1,98.5"/>
		</g>
		<g id="path350">
			<path d="M113.2,96.8L113.2,96.8l-0.6-0.6l-0.3,0.4L113.2,96.8"/>
		</g>
		<g id="path352">
			<path d="M120,97.6l0.5,0.3l-0.1,0.2l-0.4-0.2v0.8l-0.2-0.7l-0.2-0.1L120,97.6"/>
		</g>
		<g id="path354">
			<path d="M92.8,98.3c0,0.1,0,0.1,0.1,0.2c0.1,0,0.1,0,0.2-0.1c0-0.1,0-0.2-0.1-0.2s-0.1-0.1-0.1-0.1c0-0.1,0-0.1,0-0.2
				c0.1-0.2,0.2-0.2,0.4-0.2c0.1,0,0.2,0.2,0.2,0.4L93.3,98c0-0.1,0-0.1-0.1-0.1s-0.1,0-0.1,0.1s0,0.1,0.1,0.2
				c0.1,0,0.1,0.1,0.2,0.1c0,0.1,0.1,0.2,0,0.2c-0.1,0.2-0.2,0.3-0.4,0.2C92.8,98.6,92.7,98.5,92.8,98.3L92.8,98.3"/>
		</g>
		<g id="path356">
			<path d="M93.6,97.8l0.2,0.1l-0.3,0.9l-0.2-0.1L93.6,97.8"/>
		</g>
		<g id="path358">
			<path d="M95.1,99.3c-0.1,0-0.2-0.1-0.2-0.2c-0.1,0-0.2,0-0.3,0c-0.3-0.1-0.4-0.4-0.3-0.7c0-0.1,0.1-0.2,0.3-0.3
				c0.1-0.1,0.3-0.1,0.4,0c0.3,0.1,0.4,0.4,0.4,0.7c0,0.1-0.1,0.2-0.2,0.3c0,0,0.1,0,0.1,0.1l0,0L95.1,99.3"/>
		</g>
		<g id="path360">
			<path d="M95.7,98.5l-0.2,0.6v0.1c0,0.1,0,0.1,0.1,0.1h0.1l0.1-0.1l0.2-0.6l0.2,0.1L96,99.2c0,0.1-0.1,0.2-0.1,0.2
				c-0.1,0.1-0.2,0.1-0.3,0c-0.1,0-0.2-0.1-0.2-0.2s0-0.2,0-0.3l0.2-0.6L95.7,98.5"/>
		</g>
		<g id="path362">
			<path d="M96.8,98.8l0.4,0.1v0.2L97,99l-0.1,0.2l0.3,0.1v0.2l-0.3-0.1l-0.1,0.2l0.3,0.1v0.2l-0.5-0.1l0.1-0.2l-0.3-0.1l-0.2,0.2
				L96,99.6L96.8,98.8"/>
		</g>
		<g id="path364">
			<path d="M97.6,99l0.3,0.1c0.1,0,0.2,0,0.2,0.1c0.1,0.1,0.1,0.2,0.1,0.3c0,0.1-0.1,0.2-0.1,0.2c-0.1,0-0.1,0.1-0.2,0.1l0.2,0.4
				h-0.2l-0.2-0.4l-0.1,0.4h-0.2L97.6,99"/>
		</g>
		<g id="path366">
			<path d="M98.4,99.2h0.2l-0.2,1h-0.2L98.4,99.2"/>
		</g>
		<g id="path368">
			<path d="M98.8,99.9C98.8,100,98.8,100,98.8,99.9c0.2,0.1,0.2,0.1,0.2,0s-0.1-0.2-0.1-0.2c-0.1,0-0.1-0.1-0.2-0.1
				c0-0.1-0.1-0.1,0-0.2c0-0.2,0.2-0.3,0.3-0.2c0.2,0,0.3,0.2,0.2,0.3H99c0-0.1,0-0.1-0.1-0.1s-0.1,0-0.1,0.1s0.1,0.1,0.1,0.1
				c0.1,0,0.1,0.1,0.2,0.1c0.1,0.1,0.1,0.1,0.1,0.2c0,0.2-0.2,0.3-0.4,0.3c-0.2,0-0.3-0.2-0.3-0.3L98.8,99.9"/>
		</g>
		<g id="path370">
			<path d="M99.8,100.4l0.1-1h0.2c0.1,0,0.2,0,0.3,0.1c0.1,0.1,0.1,0.2,0.1,0.3c0,0.1-0.1,0.2-0.1,0.2c-0.1,0.1-0.2,0-0.3,0l0,0v0.4
				H99.8"/>
		</g>
		<g id="path372">
			<path d="M100.7,99.4h0.5v0.2h-0.3v0.2h0.3v0.2h-0.3v0.2h0.3v0.2h-0.5V99.4"/>
		</g>
		<g id="path374">
			<path d="M101.4,99.5h0.2l0.4,0.7v-0.7h0.2v1H102l-0.4-0.7v0.7h-0.2V99.5"/>
		</g>
		<g id="path376">
			<path d="M102.5,99.5h0.2v1h-0.2V99.5"/>
		</g>
		<g id="path378">
			<path d="M102.9,99.5h0.2l0.4,0.7v-0.7h0.2v1h-0.2l-0.4-0.7v0.7h-0.2V99.5"/>
		</g>
		<g id="path380">
			<path d="M104.1,100.2C104.1,100.3,104.2,100.3,104.1,100.2c0.2,0.1,0.2,0,0.2,0c0-0.1-0.1-0.1-0.2-0.2c-0.1,0-0.1,0-0.2-0.1
				c0,0-0.1-0.1-0.1-0.2c0-0.2,0.1-0.3,0.3-0.3c0.2,0,0.3,0.1,0.3,0.3h-0.2c0-0.1-0.1-0.1-0.1-0.1c-0.1,0-0.1,0-0.1,0.1
				s0.1,0.1,0.1,0.1c0.1,0,0.1,0,0.2,0.1s0.1,0.1,0.1,0.2c0,0.2-0.1,0.3-0.3,0.3c-0.2,0-0.3-0.1-0.3-0.3L104.1,100.2"/>
		</g>
		<g id="path382">
			<path d="M104.9,99.5v0.6v0.1c0,0.1,0.1,0.1,0.1,0.1s0.1,0,0.1-0.1v-0.1v-0.6h0.2v0.6c0,0.1,0,0.2-0.1,0.3
				c-0.1,0.1-0.2,0.1-0.3,0.1c-0.1,0-0.2,0-0.3-0.1c-0.1-0.1-0.1-0.2-0.1-0.3v-0.6H104.9"/>
		</g>
		<g id="path384">
			<path d="M105.6,99.5h0.2v0.8h0.3v0.2h-0.5V99.5"/>
		</g>
		<g id="path386">
			<path d="M106.5,99.5L106.5,99.5l0.6,1h-0.2l-0.1-0.2h-0.4l-0.1,0.3h-0.2L106.5,99.5"/>
		</g>
		<g id="path388">
			<path d="M107.2,99.4h0.3l0.3,0.7l0.2-0.8h0.2l0.1,1h-0.2l-0.1-0.7l-0.2,0.8h-0.2l-0.3-0.7l0.1,0.7h-0.2L107.2,99.4"/>
		</g>
		<g id="path390">
			<path d="M109.2,99.2L109.2,99.2l0.7,0.9h-0.2l-0.1-0.2l-0.3,0.1l-0.1,0.3H109L109.2,99.2"/>
		</g>
		<g id="path392">
			<path d="M109.9,99.1h0.2l0.4,0.7l0.1-0.8h0.2l0.2,1h-0.2l-0.1-0.7l-0.1,0.8h-0.2l-0.4-0.7l0.1,0.7h-0.2V99.1"/>
		</g>
		<g id="path394">
			<path d="M112.1,99.6L112.1,99.6c0,0-0.2,0.1-0.3,0.1c-0.3,0.1-0.5-0.1-0.6-0.4s0.1-0.6,0.4-0.6c0.1,0,0.3,0,0.3,0.1v-0.1l0.5-0.1
				v0.2l-0.3,0.1l0.1,0.2l0.3-0.1v0.2l-0.3,0.1l0.1,0.2l0.3-0.1v0.2L112.1,99.6"/>
		</g>
		<g id="path396">
			<path d="M112.6,98.5l0.2-0.1l0.6,0.6l-0.2-0.7l0.2-0.1l0.3,1l-0.2,0.1l-0.6-0.6l0.2,0.7l-0.2,0.1L112.6,98.5"/>
		</g>
		<g id="path398">
			<path d="M113.9,98.1L113.9,98.1l0.8,0.8l-0.2,0.1l-0.2-0.2l-0.3,0.1v0.3l-0.2,0.1L113.9,98.1"/>
		</g>
		<g id="path400">
			<path d="M114.5,97.9l0.2-0.1l0.5,0.6v-0.8l0.2-0.1l0.4,0.9l-0.2,0.1l-0.3-0.7v0.8l-0.1,0.1l-0.5-0.6l0.3,0.7l-0.2,0.1L114.5,97.9
				"/>
		</g>
		<g id="path402">
			<path d="M93.7,101.5c0-0.2,0-0.4-0.1-0.5c-0.2-0.1-0.4,0-0.5,0.2s-0.2,0.5,0,0.6s0.3,0,0.5-0.1l0.2,0.2c-0.2,0.1-0.5,0.2-0.8,0
				c-0.4-0.2-0.5-0.6-0.3-1c0.3-0.4,0.7-0.4,1-0.2c0.1,0.1,0.2,0.2,0.2,0.2H94l0.2,0.1l-0.1,0.5L93.7,101.5"/>
		</g>
		<g id="path404">
			<path d="M94.2,102.6L94.2,102.6c0.2,0.1,0.2,0.1,0.3,0l0.4-0.6c0.1-0.1,0-0.2-0.1-0.2h-0.1l0.1-0.2l0.9,0.5l-0.1,0.1h-0.1
				c-0.1-0.1-0.2-0.1-0.2,0l-0.4,0.6c-0.1,0.1,0,0.2,0.1,0.2h0.1l-0.1,0.1L94.2,102.6L94.2,102.6"/>
		</g>
		<g id="path406">
			<path d="M95.8,103.5L95.8,103.5c0.2,0.1,0.2,0.1,0.3,0l0.3-0.7c0-0.1,0-0.1-0.1-0.2h-0.1l0.1-0.2l0.9,0.4
				c0.4,0.2,0.6,0.5,0.5,0.7s-0.3,0.2-0.5,0.2l0.1,0.3c0,0.1,0.1,0.2,0.2,0.2h0.1l-0.1,0.2l-0.6-0.3l-0.1-0.6h-0.1l-0.1,0.2
				c0,0.1,0,0.1,0.1,0.2h0.1l-0.1,0.2l-0.9-0.4L95.8,103.5"/>
		</g>
		<g id="path408">
			<path d="M99.6,104.2c0-0.2-0.1-0.3-0.3-0.4c-0.2-0.1-0.4,0.1-0.4,0.4c-0.1,0.3-0.1,0.5,0.2,0.6c0.2,0,0.3-0.1,0.4-0.2l0.2,0.1
				c-0.1,0.2-0.4,0.3-0.8,0.2c-0.4-0.1-0.7-0.4-0.6-0.9s0.5-0.6,0.9-0.5c0.2,0,0.2,0.1,0.3,0.2v-0.1h0.2l0.1,0.5L99.6,104.2"/>
		</g>
		<g id="path410">
			<path d="M101.5,104v0.2h-0.1c-0.1,0-0.1,0-0.1,0.1l-0.1,0.7c0,0.1,0.1,0.2,0.2,0.3c0.2,0,0.3,0,0.3-0.2l0.1-0.7
				c0-0.1,0-0.1-0.1-0.1h-0.1v-0.2l0.7,0.1v0.2h-0.1c-0.1,0-0.1,0-0.2,0.1l0,0.5c0,0.3-0.3,0.3-0.7,0.3c-0.6-0.1-0.6-0.3-0.6-0.5
				l0.1-0.6c0-0.1,0-0.1-0.2-0.1h-0.1v-0.2L101.5,104"/>
		</g>
		<g id="path412">
			<path d="M103,105.3L103,105.3c0.2,0,0.3,0,0.3-0.1v-0.7c0-0.1-0.1-0.1-0.2-0.1H103v-0.2h0.9l0.3,0.7l0,0l0.3-0.7h0.8v0.2h-0.1
				c-0.1,0-0.2,0-0.2,0.1v0.7c0,0.1,0.1,0.1,0.2,0.1h0.1v0.2h-0.9v-0.2h0.1c0.1,0,0.2,0,0.2-0.1v-0.8l0,0l-0.4,1h-0.2l-0.4-1l0,0
				v0.8c0,0.1,0.1,0.1,0.2,0.1h0.1v0.2h-0.8L103,105.3"/>
		</g>
		<g id="path414">
			<path d="M106.1,105l0.2-0.1c0.1,0.1,0.4,0.2,0.6,0.2s0.2-0.1,0.2-0.2s-0.1-0.1-0.3-0.1l-0.5-0.1c-0.2,0-0.3-0.1-0.4-0.3
				c0-0.2,0.2-0.5,0.5-0.5c0.1,0,0.3,0,0.3,0l0,0h0.2l0.3,0.3l-0.2,0.1c-0.1-0.1-0.3-0.2-0.5-0.2c-0.1,0-0.2,0.1-0.2,0.2
				s0.2,0.1,0.3,0.1l0.5,0.1c0.2,0,0.3,0.1,0.4,0.3c0,0.2-0.2,0.5-0.6,0.5c-0.1,0-0.2,0-0.4,0v0.1h-0.2L106.1,105"/>
		</g>
		<g id="path416">
			<path d="M108.4,104.8L108.4,104.8c0.2,0,0.3-0.1,0.2-0.2l-0.2-0.7c0-0.1-0.1-0.1-0.2-0.1h-0.1v-0.2l0.9-0.2
				c0.4-0.1,0.8-0.1,0.8,0.2c0.1,0.3-0.3,0.5-0.7,0.6H109l0.1,0.2c0,0.1,0.1,0.1,0.2,0.1h0.1v0.2l-1,0.3L108.4,104.8"/>
		</g>
		<g id="path418">
			<path d="M110.8,104.1L110.8,104.1c0.2-0.1,0.2-0.1,0.2-0.2l-0.3-0.7c0-0.1-0.1-0.1-0.2,0h-0.1l-0.1-0.2l0.9-0.3l0.1,0.2h-0.1
				c-0.1,0-0.2,0.1-0.1,0.2l0.3,0.7c0,0.1,0.1,0.1,0.2,0h0.1l0.1,0.2l-0.9,0.3L110.8,104.1"/>
		</g>
		<g id="path420">
			<path d="M113.3,102.3c-0.1-0.1-0.3-0.2-0.5-0.1s-0.2,0.4-0.1,0.6s0.3,0.4,0.5,0.3s0.2-0.3,0.2-0.4h0.3c0,0.2-0.1,0.5-0.4,0.7
				c-0.4,0.2-0.8,0.1-1-0.3s0-0.8,0.4-0.9c0.2-0.1,0.2-0.1,0.3,0v-0.1l0.2-0.1l0.4,0.3H113.3"/>
		</g>
		<g id="path422">
			<path d="M114.6,102.4L114.6,102.4c0.2-0.1,0.2-0.2,0.1-0.3l-0.4-0.6c-0.1-0.1-0.1-0.1-0.2,0H114l-0.1-0.1l1.2-0.8l0.4,0.2
				l-0.2,0.2c-0.2-0.1-0.5,0-0.7,0.1l0,0l0.2,0.3l0.1-0.1c0.1-0.1,0.1-0.1,0.1-0.2l0,0l0.2-0.1l0.3,0.5l-0.2,0.1l0,0
				c0-0.1-0.1-0.1-0.2,0l-0.1,0.1l0.2,0.3h0.1c0.3-0.2,0.4-0.3,0.4-0.6l0.2-0.1v0.5l-1.2,0.8L114.6,102.4"/>
		</g>
		<g id="path424">
			<path fill="#FFFFFF" d="M96.2,65.1l0.7-0.2l0.1,0.2l-0.4,0.1l0.1,0.3l0.4-0.1l0.1,0.2l-0.4,0.1l0.1,0.3l0.4-0.1l0.1,0.2l-0.7,0.2
				L96.2,65.1"/>
		</g>
		<g id="path426">
			<path fill="#FFFFFF" d="M98.6,65.7l-0.3-1.2l0.3-0.1c0.1,0,0.2-0.1,0.4,0c0.1,0,0.2,0.1,0.2,0.3c0,0.1,0,0.3-0.1,0.4
				s-0.2,0.1-0.4,0.2l0,0l0.1,0.5L98.6,65.7"/>
		</g>
		<g id="path428">
			<path fill="#FFFFFF" d="M99.3,64.2l0.2-0.1l0.2,1l0.4-0.1v0.2l-0.6,0.1L99.3,64.2"/>
		</g>
		<g id="path430">
			<path fill="#FFFFFF" d="M100.4,64l0.1,0.8c0,0.1,0,0.1,0.1,0.2c0,0.1,0.1,0.1,0.2,0.1s0.1-0.1,0.1-0.1c0-0.1,0-0.1,0-0.2
				l-0.1-0.8h0.2l0.1,0.8c0,0.1,0,0.2,0,0.4c-0.1,0.1-0.2,0.2-0.3,0.2c-0.1,0-0.3,0-0.4-0.1s-0.1-0.2-0.2-0.3l-0.1-0.8L100.4,64"/>
		</g>
		<g id="path432">
			<path fill="#FFFFFF" d="M101.4,63.8h0.4c0.1,0,0.2,0,0.3,0.1c0.1,0.1,0.2,0.2,0.2,0.3s0,0.2-0.1,0.3c-0.1,0.1-0.1,0.1-0.2,0.2
				l0.4,0.4h-0.3l-0.4-0.5l0.1,0.5h-0.2L101.4,63.8"/>
		</g>
		<g id="path434">
			<path fill="#FFFFFF" d="M102.5,63.7h0.2l0.1,1.3h-0.2L102.5,63.7"/>
		</g>
		<g id="path436">
			<path fill="#FFFFFF" d="M103.1,63.7h0.2c0.1,0,0.2,0,0.3,0c0.1,0.1,0.2,0.2,0.2,0.3s0,0.2-0.1,0.3c0.1,0,0.2,0.2,0.2,0.3
				c0,0.1,0,0.2-0.1,0.3c-0.1,0.1-0.2,0.1-0.4,0.1h-0.3L103.1,63.7"/>
		</g>
		<g id="path438">
			<path fill="#FFFFFF" d="M104.5,63.6v0.8c0,0.1,0,0.1,0,0.2s0.1,0.1,0.2,0.1s0.1,0,0.2-0.1c0-0.1,0-0.1,0-0.2v-0.8h0.2v0.8
				c0,0.1,0,0.2-0.1,0.3c-0.1,0.1-0.2,0.2-0.3,0.2c-0.1,0-0.2-0.1-0.3-0.2c-0.1-0.1-0.1-0.2-0.1-0.4v-0.8L104.5,63.6"/>
		</g>
		<g id="path440">
			<path fill="#FFFFFF" d="M105.6,64.6c0,0.1,0.1,0.2,0.2,0.2s0.2-0.1,0.2-0.1c0-0.1-0.1-0.2-0.2-0.2s-0.2-0.1-0.2-0.1
				c-0.1-0.1-0.1-0.2-0.1-0.3c0-0.2,0.2-0.4,0.4-0.3c0.2,0,0.4,0.2,0.3,0.4H106c0-0.1-0.1-0.1-0.1-0.1c-0.1,0-0.1,0-0.1,0.1
				s0.1,0.1,0.1,0.2c0.1,0,0.2,0.1,0.2,0.1c0.1,0.1,0.1,0.2,0.1,0.3c0,0.2-0.2,0.4-0.5,0.4c-0.2,0-0.4-0.2-0.4-0.4L105.6,64.6"/>
		</g>
		<g id="path442">
			<path fill="#FFFFFF" d="M107.9,64l-0.2,0.8c0,0.1,0,0.1,0,0.2s0.1,0.1,0.1,0.1c0.1,0,0.1,0,0.2-0.1c0-0.1,0.1-0.1,0.1-0.2
				l0.2-0.8h0.2l-0.2,0.8c0,0.1-0.1,0.2-0.2,0.3c-0.1,0.1-0.2,0.1-0.4,0.1c-0.1,0-0.2-0.1-0.3-0.2c-0.1-0.1-0.1-0.2,0-0.4l0.2-0.8
				L107.9,64"/>
		</g>
		<g id="path444">
			<path fill="#FFFFFF" d="M108.9,64.2l0.3,0.1l0.3,1l0.2-0.9l0.2,0.1l-0.3,1.3l-0.3-0.1l-0.3-1l-0.2,0.9l-0.2-0.1L108.9,64.2"/>
		</g>
		<g id="path446">
			<path fill="#FFFFFF" d="M110.5,64.6l-0.2,0.8c0,0.1,0,0.1,0,0.2s0.1,0.1,0.1,0.2c0.1,0,0.1,0,0.2,0s0.1-0.1,0.1-0.2l0.2-0.8
				l0.2,0.1l-0.2,0.8c0,0.1-0.1,0.2-0.2,0.3c-0.1,0.1-0.3,0.1-0.4,0.1s-0.2-0.1-0.3-0.2c-0.1-0.1,0-0.2,0-0.4l0.2-0.8L110.5,64.6"/>
		</g>
		<g id="path448">
			<path fill="#FFFFFF" d="M111.5,64.9l0.3,0.1v1l0.7-0.8l0.3,0.1l-0.4,1.2l-0.2-0.1l0.3-0.9l-0.6,0.8l-0.2-0.1v-1l-0.3,0.9
				l-0.2-0.1L111.5,64.9"/>
		</g>
		<g id="path450">
			<path fill="#FFFFFF" d="M98.6,83.4L98.6,83.4c0.2,0,0.3,0,0.3-0.2V82c-0.2,0-0.3,0.2-0.5,0.4l-0.2-0.1l0.3-0.6h1.3l0.3,0.5
				l-0.2,0.1c-0.1-0.2-0.2-0.4-0.5-0.4v1.2c0,0.2,0.1,0.2,0.2,0.2h0.1v0.2h-1v-0.1"/>
		</g>
		<g id="path452">
			<path fill="#FFFFFF" d="M101,81.7V82h-0.1c-0.1,0-0.1,0-0.1,0.1v1c0,0.2,0.1,0.3,0.3,0.3c0.2,0,0.3-0.1,0.3-0.4v-1
				c0-0.1,0-0.1-0.1-0.1h-0.1v-0.2h0.8V82h-0.1c-0.1,0-0.1,0-0.1,0.1v1c0,0.4-0.3,0.5-0.6,0.5c-0.6,0-0.7-0.3-0.7-0.7V82
				c0-0.1-0.1-0.1-0.2-0.1h-0.1v-0.2L101,81.7"/>
		</g>
		<g id="path454">
			<path fill="#FFFFFF" d="M102.1,83.4L102.1,83.4c0.2,0,0.3,0,0.3-0.2v-1.1c0-0.2-0.1-0.2-0.2-0.2h-0.1v-0.2h1.4l0.3,0.5l-0.2,0.1
				c-0.1-0.3-0.4-0.4-0.7-0.4h-0.1v0.6h0.1c0.1,0,0.2,0,0.2-0.2v-0.1h0.2V83h-0.2v0c0-0.1,0-0.2-0.2-0.2h-0.1v0.6h0.1
				c0.4,0,0.5-0.1,0.7-0.4l0.2,0.1l-0.3,0.6H102L102.1,83.4"/>
		</g>
		<g id="path456">
			<path fill="#FFFFFF" d="M104,83.4L104,83.4c0.2,0,0.3,0,0.3-0.2v-1.1c0-0.2-0.1-0.2-0.2-0.2H104v-0.2h0.7c0.4,0,0.8,0.1,0.9,0.5
				c0,0.2-0.2,0.4-0.5,0.4l0,0c0.4,0,0.6,0.2,0.6,0.4c0,0.5-0.5,0.5-0.8,0.5H104V83.4"/>
		</g>
		<g id="path458">
			<path fill="#FFFFFF" d="M106.8,81.7c0.6,0,0.8,0.5,0.8,1s-0.2,1-0.8,1c-0.4,0-0.8-0.3-0.8-1S106.3,81.7,106.8,81.7"/>
		</g>
		<g id="path460">
			<path fill="#FFFFFF" d="M107.8,83.4L107.8,83.4c0.2,0,0.3,0,0.3-0.2v-1.1c0-0.2-0.1-0.2-0.2-0.2h-0.1v-0.2h1
				c0.5,0,0.7,0.3,0.7,0.6c0,0.3-0.2,0.4-0.4,0.5l0.2,0.4c0.1,0.1,0.1,0.2,0.3,0.2h0.1v0.2H109l-0.4-0.8h-0.1v0.4
				c0,0.2,0.1,0.2,0.2,0.2h0.1v0.2h-1L107.8,83.4"/>
		</g>
		<g id="path462">
			<path fill="#FFFFFF" d="M94.9,99c0.1,0,0.1-0.1,0.1-0.2c0.1-0.2,0-0.4-0.2-0.4c-0.1,0-0.2,0-0.3,0c-0.1,0-0.1,0.1-0.2,0.2v0.1
				v0.2c0,0.1,0.1,0.2,0.2,0.2h0.1L94.9,99"/>
		</g>
		<g id="path464">
			<path fill="#FFFFFF" d="M96.7,99.3l0.1-0.2L96.7,99.3L96.7,99.3"/>
		</g>
		<g id="path466">
			<path fill="#FFFFFF" d="M97.8,99.5c0,0,0.1,0,0.2,0l0.1-0.1v-0.1L98,99.2h-0.1L97.8,99.5L97.8,99.5"/>
		</g>
		<g id="path468">
			<path fill="#FFFFFF" d="M100.1,99.8L100.1,99.8c0.2,0,0.2-0.1,0.2-0.1c0-0.1,0-0.1-0.1-0.1h-0.1l0,0V99.8L100.1,99.8"/>
		</g>
		<g id="path470">
			<path fill="#FFFFFF" d="M106.8,100l-0.1-0.3l-0.1,0.3H106.8"/>
		</g>
		<g id="path472">
			<path fill="#FFFFFF" d="M111.4,99.3c0,0.2,0.2,0.3,0.4,0.2c0.2,0,0.3-0.2,0.2-0.4c0-0.2-0.2-0.3-0.4-0.3
				C111.4,98.9,111.4,99.1,111.4,99.3"/>
		</g>
		<g id="path474">
			<path fill="#FFFFFF" d="M114.2,98.6l-0.2-0.3v0.3H114.2"/>
		</g>
		<g id="path476">
			<path fill="#FFFFFF" d="M96.7,103.3c0.2,0.1,0.4,0.1,0.4,0c0.1-0.2-0.1-0.3-0.3-0.4h-0.1V103.3L96.7,103.3"/>
		</g>
		<g id="path478">
			<path fill="#FFFFFF" d="M109,104.1L109,104.1c0.3-0.1,0.4-0.2,0.4-0.3c0-0.2-0.3-0.2-0.4-0.1l0,0V104.1"/>
		</g>
		<g id="path480">
			<path fill="#FFFFFF" d="M109.5,99.7l-0.1-0.3l-0.1,0.3H109.5"/>
		</g>
		<g id="path482">
			<path fill="#EF1439" d="M98.7,64.9c0.1,0,0.1,0,0.2-0.1c0.1,0,0.1-0.1,0.1-0.2s-0.1-0.1-0.2-0.1s-0.1,0-0.2,0l0,0L98.7,64.9
				L98.7,64.9"/>
		</g>
		<g id="path484">
			<path fill="#EF1439" d="M101.8,64.4c0.1,0,0.1,0,0.2-0.1v-0.1c0-0.1,0-0.1-0.1-0.1s-0.1,0-0.2,0h-0.1v0.4L101.8,64.4"/>
		</g>
		<g id="path486">
			<path fill="#EF1439" d="M103.5,64.7c0.1,0,0.1,0,0.2-0.1l0.1-0.1c0-0.1,0-0.1-0.1-0.1s-0.1,0-0.2,0h-0.1L103.5,64.7L103.5,64.7"
				/>
		</g>
		<g id="path488">
			<path fill="#EF1439" d="M103.4,64.1c0.1,0,0.1,0,0.2,0l0.1-0.1c0-0.1,0-0.1-0.1-0.1c0,0-0.1,0-0.2,0l0,0V64.1L103.4,64.1"/>
		</g>
		<g id="path490">
			<path fill="#006FFF" d="M104.8,82.5c0.2,0,0.3-0.1,0.3-0.3c0-0.2-0.1-0.3-0.3-0.3l0,0V82.5L104.8,82.5"/>
		</g>
		<g id="path492">
			<path fill="#006FFF" d="M104.8,83.4c0.2,0,0.4-0.1,0.4-0.3c0-0.2-0.2-0.3-0.4-0.3h-0.1L104.8,83.4L104.8,83.4"/>
		</g>
		<g id="path494">
			<path fill="#006FFF" d="M106.8,83.4c0.2,0,0.3-0.4,0.3-0.7S107,82,106.8,82s-0.3,0.4-0.3,0.7S106.6,83.4,106.8,83.4"/>
		</g>
		<g id="path496">
			<path fill="#006FFF" d="M108.6,82.6c0.2,0,0.4,0,0.4-0.3c0-0.2-0.2-0.3-0.4-0.3h-0.1L108.6,82.6L108.6,82.6"/>
		</g>
		<g id="path498">
			<path d="M87.7,99c-0.1,0-0.1,0-0.2-0.1s-0.3-0.3-0.4-0.4s-0.2-0.2-0.3-0.3l0,0c-0.2-0.1-0.2-0.2-0.2-0.5v-0.1
				c0.1-0.5,0.2-1.8,0-2.2c-0.2-0.4-0.3-0.8-0.2-1.3c0-0.1,0-0.3,0-0.4c0-0.2,0-0.3,0.1-0.5l0,0c0.2-0.2,0.9-0.9,0.9-1.9
				c0-0.9-0.5-1.7-0.6-1.9c-0.1,0-0.2,0.1-0.3,0.1c-0.1,0-0.1-0.2-0.1-0.4c0-0.1,0-0.3,0-0.4c0-0.6,0-1.6,1-2.6
				c0.6-0.6,1.1-1.1,1.6-1.4c0.5-0.4,0.9-0.8,1-1c0.2-0.4,0.4-1.3,0.5-1.6l-0.3,0.1v-0.1c0,0,0-0.4,0.1-0.6l0,0
				c0-0.2,0.1-0.5,0.1-0.9c0-0.3-0.1-1.1-0.1-1.4L90,79.4v-0.6c0,0,0-0.2-0.2-0.3c-0.2-0.1-0.3-0.2-0.3-0.4c0-0.2,0-0.3,0-0.4
				L89.3,78v-0.1c0,0,0.3-0.9,0.2-1.9c-0.1-0.9-0.1-1.8,0.1-2.3c-0.2,0-1.2-0.3-1.4-1.1l0,0l0,0c0,0,0.2-0.2,0.6-0.4
				c0.4-0.2,1.1-0.2,1.8,0.3h0.1c-0.1-0.1-0.5-0.4-1-0.7c-0.5-0.3-0.7-0.6-0.8-0.7c-0.3,0-2.8,0.3-3.3-0.6l-0.1-0.1h0.1
				c0,0,0.8,0.3,1.4,0.1c0.2-0.1,0.4-0.3,0.4-0.6l-0.9-0.6v-0.1c0,0,0.5,0.2,0.9,0.1c0-0.2,0-0.4,0-0.5c0.1,0,0.1,0.1,0.1,0.1
				c0,0.2,0.1,0.2,0.1,0.3c0,0,0.1,0,0.1-0.1c0.4-0.3,0.7-0.8,0.8-1.7v-0.1l0.1,0.1c0,0,0.2,0.5,0.1,1.3c-0.1,0.7,0.5,1.5,0.6,1.7
				c0-0.1,0.1-0.3,0.1-0.5l0,0l0,0c0,0,0,0,0.1,0s0.2,0.2,0.3,0.6c0.2-0.1,0.9-0.7,0.8-2.3l0,0l0,0c0-0.1,0.1-0.2,0.1-0.2
				s0.1,0.1,0.1,0.3c0,0.1,0,0.1,0,0.2c0,0.4,0,0.8-0.2,1.4c0,0,0.1,0,0.1,0.1l0,0l0,0c0.1,0.1,0.3,0.3,0.3,1c0,0,0,0,0,0.1v0.1
				c0,0,0,0,0.2-0.1c0.3-0.2,0.5-0.5,0.7-0.8c0.1-0.3,0.2-0.3,0.2-0.2c0,0,0.1,0.1-0.1,0.4v0.1c-0.1,0.2-0.2,0.5-0.2,0.5s0,0,0.1,0
				c0.3-0.2,1.2-0.9,1.5-1.4c0.2-0.4,0.3-0.4,0.3-0.4s0.1,0,0,0.4c0,0.1,0,0.1-0.1,0.2c-0.1,0.3-0.2,0.5-0.5,0.8L93,70.8
				c0,0,0,0-0.1,0.1H93h0.1c0.4-0.1,1-0.4,1.3-0.9c0.3-0.6,0.4-0.6,0.4-0.5c0,0,0,0.1,0,0.2s0,0.2-0.1,0.2c0,0.1-0.1,0.3-0.1,0.3
				s0,0,0.1,0c0.2,0,1-0.4,1.4-0.9h0.1c0,0-0.4,1.2-1.6,1.7c-0.7,0.3-1.2,0.5-1.4,0.6c0.3,0,0.7,0.1,0.8,0.1
				c0.2,0.1,0.3,0.1,0.3,0.2S94.2,72,94,72c-0.2,0-0.5,0-0.8,0c-0.4,0-0.8,0-0.9,0s-0.2,0.1-0.2,0.2c0,0,0,0.1,0.1,0.1
				s0.2,0.1,0.4,0.2c0.3,0.2,0.8,0.4,1,0.6s0.5,0.3,0.8,0.4s0.5,0.3,0.6,0.6c0,0.1,0,0.2,0,0.2c0,0.1,0,0.2-0.1,0.3
				c0,0,0,0.1-0.1,0.2c-0.1,0.2-0.1,0.5-0.5,0.5c-0.1,0-0.3,0-0.4,0c-0.2,0-0.3,0-0.4,0.1s-0.1,0.1-0.1,0.1c0.2,0.2,0.6,0.7,0.9,1
				c0.1,0.1,0.1,0.1,0.2,0.2c0.2,0.2,0.3,0.3,0.4,0.7c0.1,0.4,0.3,0.5,0.4,0.6c0.1,0,0.1,0.1,0.1,0.2c0.2,0.2,0.6,0.9,0.7,1.1l0,0
				l0,0l0,0c0.2-0.1,0.8-0.3,1.4-0.5c0.3-0.1,0.6-0.2,0.9-0.4c0.4-0.2,0.8-0.4,1-0.3l0,0c0.4,0,0.5,0,0.7,0.6
				c0.2,0.5,0.2,0.8,0.2,0.8h-0.1c0,0-0.1-0.3-0.2-0.8c-0.2-0.5-0.3-0.5-0.6-0.5l0,0c-0.2,0-0.6,0.2-1,0.3c-0.3,0.1-0.6,0.3-0.9,0.4
				c-0.6,0.2-1.2,0.4-1.3,0.4c0.1,0.1,0.1,0.3,0.2,0.7c0.1,0.2,0.1,0.4,0.2,0.6c0.1,0.3,0.1,0.4,0.1,0.7c0,0.3-0.1,0.5-0.1,0.5
				c0.1-0.1,0.1-0.1,0.2-0.2c0.1,0,0.1-0.1,0.2-0.1l0.1,0.1c-0.1,0.1-0.1,0.1-0.2,0.2s-0.3,0.2-0.3,0.3c0,0.1-0.1,0.6-0.1,0.7
				l1.3,0.6v0.1l-1.4-0.6l0,0c-0.2-0.1-1.1-0.4-1.2-0.6c-0.2-0.2-0.6-0.7-0.6-0.7l0.1-0.1c0,0,0.4,0.5,0.6,0.7
				c0.1,0.2,0.9,0.5,1.2,0.6c0-0.2,0.1-0.5,0.1-0.6s0-0.1,0.1-0.1h-0.1c0,0,0.1-0.2,0.1-0.5c0-0.2,0-0.4-0.1-0.6
				c0-0.2-0.1-0.3-0.2-0.6c-0.1-0.4-0.2-0.6-0.2-0.7l0,0l0,0c0,0-0.5-0.9-0.7-1.1c0-0.1-0.1-0.1-0.1-0.1c-0.1-0.1-0.3-0.3-0.4-0.7
				c-0.1-0.4-0.2-0.5-0.4-0.7c0,0-0.1-0.1-0.2-0.2c-0.3-0.4-1-1.1-1-1.1h0.1l0.1-0.1c0.1-0.1,0.2-0.1,0.5-0.1c0.1,0,0.2,0,0.4,0
				c0.3,0,0.4-0.3,0.4-0.4s0-0.1,0.1-0.2s0.1-0.1,0-0.2c0-0.1,0-0.1,0-0.2c0-0.3-0.2-0.4-0.5-0.5s-0.6-0.2-0.8-0.4
				c-0.2-0.2-0.7-0.4-1-0.6c-0.2-0.1-0.3-0.2-0.4-0.2s-0.1-0.1-0.1-0.2s0.1-0.2,0.3-0.3c0.1,0,0.5,0,1,0c0.3,0,0.6,0,0.8,0
				c0.1,0,0.2,0,0.2,0s-0.1,0-0.2-0.1c-0.2,0-1-0.1-1-0.1v-0.1c0,0,0.5-0.1,1.7-0.6c0.8-0.4,1.2-1.1,1.4-1.4c-0.4,0.4-1,0.7-1.3,0.7
				H95c-0.1-0.1,0-0.2,0-0.4c0-0.1,0-0.1,0.1-0.2v-0.1c0,0.1-0.1,0.2-0.3,0.5c-0.3,0.5-0.9,0.8-1.3,0.9h-0.1
				c-0.2,0.1-0.3,0.1-0.3,0.1s0-0.1,0.2-0.2l0.1-0.1c0.3-0.3,0.3-0.4,0.4-0.7c0-0.1,0-0.1,0.1-0.2s0.1-0.2,0.1-0.3
				c0,0-0.1,0.1-0.2,0.3c-0.3,0.6-1.4,1.3-1.5,1.4c0,0-0.1,0.1-0.2,0s0-0.3,0.1-0.6v-0.1c0-0.1,0.1-0.2,0.1-0.2s-0.1,0.1-0.1,0.2
				c-0.2,0.3-0.4,0.6-0.7,0.8C91.3,72,91.3,72,91.2,72c0,0,0-0.1,0-0.2c0,0,0,0,0-0.1c0-0.6-0.2-0.8-0.3-0.9l0,0l0,0l0,0v0.1
				c0.1,0.4,0,0.8,0,0.9s0,0.1-0.1,0.1s-0.2,0-0.3-0.1c-0.1-0.1-0.2-0.3-0.1-0.5c0.5-1,0.5-1.6,0.5-2.1c0-0.1,0-0.1,0-0.2
				s0-0.2,0-0.2s0,0.1-0.1,0.1c0.1,1.9-0.9,2.4-0.9,2.4l0,0l0,0c-0.1-0.4-0.2-0.6-0.2-0.6c0,0.3-0.1,0.5-0.1,0.5v0.1l0,0
				c0,0-0.9-1-0.7-1.8c0.1-0.5,0-0.9,0-1.1c-0.1,0.8-0.4,1.3-0.8,1.6c-0.4,0.2-0.8,0.2-1,0.1l0.7,0.5l0,0c-0.1,0.3-0.2,0.5-0.5,0.7
				c-0.5,0.2-1.1,0.1-1.3,0c0.6,0.8,3.2,0.4,3.2,0.4l0,0l0,0c0,0,0.3,0.3,0.8,0.7c0.5,0.4,1,0.7,1,0.7h0.1l-0.2,0.1l0,0
				c-0.7-0.5-1.3-0.5-1.7-0.3c-0.3,0.1-0.5,0.3-0.6,0.4c0.2,0.8,1.3,1,1.4,1h0.1l0,0c-0.2,0.5-0.2,1.3-0.1,2.3
				c0.1,0.8-0.1,1.6-0.1,1.8l0.3-0.2v0.1c0,0,0,0.3,0,0.5s0.1,0.3,0.2,0.4c0.2,0.1,0.2,0.3,0.2,0.4v0.5l0.3-0.2V80
				c0,0,0.1,1,0.1,1.4s-0.1,0.7-0.1,0.9l0,0c0,0.1-0.1,0.4-0.1,0.5l0.3-0.1v0.1c0,0-0.3,1.2-0.5,1.7c-0.1,0.3-0.5,0.6-1,1
				c-0.4,0.4-1,0.9-1.6,1.4c-1,1-1,1.9-1,2.6c0,0.2,0,0.3,0,0.4c0,0.2,0,0.3,0,0.3c0.1,0,0.2,0,0.3-0.1l0,0l0,0c0,0,0.6,0.9,0.6,2
				S87.3,93.8,87,94l0,0c-0.1,0.1-0.1,0.2-0.1,0.4c0,0.1,0,0.2,0,0.4c0,0.3,0,0.8,0.2,1.2c0.2,0.4,0.1,1.5,0,2.3v0.1
				c0,0.4,0,0.4,0.1,0.5l0,0c0.1,0.1,0.2,0.2,0.3,0.3c0.1,0.1,0.2,0.3,0.4,0.4C87.6,98.9,87.7,98.9,87.7,99c0.1-0.1,0.2-0.3,0.3-0.6
				c0-0.3-0.1-0.3-0.1-0.3V98c-0.1-0.1-0.2-0.2-0.5-0.5c-0.3-0.4-0.2-1.3-0.1-2.3v-0.3c0.1-0.9,0.1-1,0.8-1.5
				c0.2-0.1,0.3-0.3,0.6-0.5c1.1-1,1.8-2.7,1.8-2.8l0,0c0,0,0.2-1,0.2-1.6s0.2-1,0.2-1.1H91c0,0-0.3,0.5-0.2,1
				c0,0.5-0.2,1.4-0.2,1.6c0.1,0.1,0.5,0.3,1.2,0.8c0.6,0.4,0.6,0.5,0.5,1c0,0.1-0.1,0.3-0.1,0.4c-0.2,0.9-0.2,1.1,0,1.3
				c0.2,0.2,0.4,0.4,0.9,0.7c0.5,0.2,0.5,0.3,1.1,1c0.5,0.7,0.8,0.8,1.2,0.9c0.5,0.1,0.5,0.3,0.5,0.3h-0.1l0,0l0,0
				c0,0,0-0.2-0.4-0.2c-0.5-0.1-0.8-0.3-1.3-0.9c-0.5-0.7-0.5-0.7-1-0.9c-0.5-0.2-0.7-0.4-0.9-0.7c-0.2-0.3-0.2-0.5,0-1.4
				c0-0.2,0.1-0.3,0.1-0.5c0.1-0.5,0.1-0.5-0.5-0.9s-1-0.7-1.1-0.7c-0.1,0.3-0.8,1.8-1.8,2.8c-0.2,0.2-0.4,0.4-0.6,0.5
				c-0.6,0.5-0.7,0.6-0.7,1.4v0.3c-0.1,1-0.2,1.9,0.1,2.3C87.8,97.9,88,98,88,98v0.1c0,0,0.1,0.1,0.1,0.4C88,98.6,88,98.9,87.7,99
				C87.8,99,87.7,99,87.7,99z M90.7,70.3c-0.1,0.2-0.2,0.4-0.3,0.6c-0.1,0.2,0,0.4,0.1,0.4s0.1,0.1,0.2,0.1c0,0,0,0,0-0.1
				S90.8,70.8,90.7,70.3C90.7,70.4,90.7,70.4,90.7,70.3z M87.6,69.1c0,0.1,0,0.2,0,0.3h0.1C87.7,69.4,87.6,69.3,87.6,69.1L87.6,69.1
				z M96.5,96.2c-0.1-0.4-0.4-0.4-0.8-0.4c-0.1,0-0.1,0-0.2,0c-0.4,0-0.5-0.1-0.8-0.5c-0.1-0.1-0.1-0.1-0.2-0.2
				c-0.5-0.5-0.8-0.9-1.2-1.8C93,92.6,93.2,92,93.6,91c0.1-0.2,0.1-0.4,0.2-0.6c0.5-1.4-0.2-1.9-0.2-1.9l0,0l0,0
				c0,0,0.6-0.7,1.2-1.3c0.6-0.5,1.3-1.9,1.3-2.2c0-0.2,0.1-0.3,0.2-0.3c-0.1,0-0.5-0.1-0.7-0.3c-0.2-0.1-0.4-0.2-0.8-0.1
				c-0.4,0-1.3-0.5-1.3-0.5v-0.1c0,0,0.8,0.5,1.3,0.5c0.4,0,0.6,0,0.8,0.1c0.2,0.1,0.7,0.3,0.7,0.3l0,0c0.1,0,0.2,0,0.5,0
				c0.1,0,0.2,0,0.2,0.1c0.2,0.2,0.1,0.7,0.1,1.2c0,0.1,0,0.3-0.1,0.5c0,0.2,0,0.3,0,0.4c0,0.4-0.1,0.5,0.1,0.6
				c0.2,0.2,0.2,0.4,0.1,0.9v0.2c0,0.2,0.1,0.3,0.1,0.4c0.1,0.1,0.4,0.2,0.6,0.2v0.1c-0.2,0-0.5-0.1-0.6-0.2s-0.2-0.3-0.2-0.5v-0.2
				c0.1-0.4,0.1-0.6-0.1-0.8c0-0.3,0-0.4,0-0.8c0-0.1,0-0.2,0-0.4c0-0.1,0-0.3,0.1-0.5c0.1-0.5,0.1-1,0-1.2c0-0.1-0.1-0.1-0.2-0.1
				c-0.5,0-0.5,0-0.6,0.3c-0.1,0.4-0.7,1.7-1.4,2.3c-0.5,0.5-1.1,1.1-1.2,1.2c0.1,0.1,0.6,0.7,0.2,2c-0.1,0.2-0.2,0.4-0.2,0.6
				c-0.4,1-0.6,1.6-0.3,2.3c0.3,0.9,0.7,1.3,1.1,1.8c0.1,0.1,0.1,0.1,0.2,0.2c0.3,0.4,0.4,0.4,0.8,0.5c0.1,0,0.1,0,0.2,0
				C96,95.7,96.4,95.8,96.5,96.2L96.5,96.2z"/>
		</g>
		<g id="path500">
			<path d="M120.1,98.9l-0.3-1.1l0,0c0,0,0.4-0.3,0.5-1.2v-0.1c0.1-0.9,0.3-2.7-0.7-4.1c-0.2-0.3-0.4-0.6-0.6-0.8
				c-0.6-0.8-0.9-1.1-0.9-2.1V89c-0.3,0.2-1.4,1.1-1.8,2.5c-0.1,0.5-0.1,0.8,0,1.1v0.1c0,0.1,0,0.1,0,0.1c0.1,0.2,0.1,0.2-0.3,0.7
				c0,0-1,1-1.2,1.6c-0.1,0.1-0.1,0.2-0.2,0.4c-0.2,0.5-0.4,0.8-0.7,0.8h-0.1c-0.2,0-0.2,0-0.2,0s0,0.1-0.1,0.1l-0.3,0.4l-0.7-0.4
				l0,0c0,0,0.1-0.3,0.8-0.6c0.6-0.3,1.5-1.4,1.7-2.6c0.1-0.9,0-1.7-0.1-2.4c-0.1-0.7-0.2-1.3,0-1.9c0.3-0.9,0.6-1.3,0.8-1.4
				c-0.3-0.2-2.3-1.3-2.7-1.9c-0.1-0.2-0.2-0.3-0.2-0.3l0,0v0.6l-0.1-0.1c0,0-0.4-0.5-0.5-1.1c0-0.2-0.1-0.3-0.1-0.5s0-0.4-0.1-0.4
				c0,0-0.1,0-0.2,0s-0.2,0-0.2,0c-0.3,0-0.5,0-0.6,0.6c-0.1,0.7-0.1,2.2,0,2.4c0.1,0,0.1,0.2,0.1,0.3c0,0.1-0.1,0.3-0.3,0.3
				c0.1,0.9,0,1.4-0.3,1.5v-0.1c0.3-0.2,0.4-0.7,0.2-1.5l0,0l0,0c0.2,0,0.3-0.2,0.3-0.3c0-0.1,0-0.2-0.1-0.2
				c-0.2-0.1-0.2-1.8-0.1-2.5c0.1-0.6,0.3-0.7,0.6-0.7c0.1,0,0.1,0,0.2,0s0.2,0,0.3,0c0.1,0.1,0.1,0.3,0.2,0.5c0,0.1,0,0.3,0.1,0.5
				c0.1,0.4,0.3,0.7,0.4,0.9v-0.2c0-0.1,0-0.2,0-0.2s0.1,0,0.4,0.4c0.4,0.6,2.7,1.9,2.7,1.9h0.1h-0.1c0,0-0.4,0.3-0.8,1.4
				c-0.2,0.5-0.1,1.1,0,1.8c0.1,0.7,0.3,1.5,0.1,2.4c-0.2,1.2-1.1,2.3-1.7,2.6c-0.5,0.3-0.6,0.5-0.7,0.6l0.6,0.3l0.2-0.3l0.1-0.1
				c0-0.1,0.1-0.1,0.3-0.1h0.1c0.3,0,0.5-0.4,0.6-0.8c0-0.1,0.1-0.2,0.2-0.4c0.3-0.6,1.2-1.6,1.3-1.6c0.3-0.5,0.3-0.5,0.3-0.7v-0.1
				v-0.1c-0.1-0.3-0.1-0.6,0-1.1c0.4-1.5,1.9-2.5,1.9-2.5h0.1v0.7c0,1,0.2,1.3,0.8,2.1c0.2,0.2,0.4,0.5,0.6,0.8
				c1,1.5,0.8,3.2,0.7,4.2v0.1c-0.1,0.8-0.4,1.2-0.5,1.3l0.2,0.8c0,0,0.1-0.1,0.1-0.2v-0.1c0.1-0.2,0.3-0.6,0.5-0.7
				c0,0,0.1,0,0.1-0.1c0.1,0,0.1,0,0.1-0.7c0-0.9,0-1.7,0.2-2.9c0.2-0.9,0.1-1-0.1-1.4c-0.1-0.2-0.1-0.3-0.2-0.6
				c-0.3-1-0.2-1.2,0-1.7c0-0.1,0.1-0.2,0.2-0.3c0.3-0.7,0.5-1.4,0.5-1.4l0,0l0,0c0,0,0.1,0,0.2-0.1c0,0,0.1-0.1,0.1-0.2
				c0-0.8-0.6-1.5-1.9-2.7c-1.2-1.1-1.5-2.3-1.5-2.3l0,0c-0.1-0.2-0.1-0.4,0-0.4s0.1,0,0.2,0c-0.1-0.7,0.2-1.3,0.3-1.5
				c-0.3-0.6-0.3-0.8-0.3-0.8l0,0l0.3-0.2c-0.1-0.5-0.4-1.2-0.2-1.3l0,0L119,79c0-0.6,0-1,0-1.1l0,0h0.3c0-0.2,0-0.8,0.2-1.6
				c0.1-0.3,0.1-0.4,0.2-0.5c0.1-0.3,0.2-0.4-0.2-1.8l0,0l0,0c1-0.3,1-0.7,1-0.8c-0.1-0.1-0.6-0.3-1.2-0.3c-0.4,0-0.5-0.1-0.5-0.2
				s0.2-0.3,0.5-0.3c1.6-0.2,2.8-1.7,3-2c0.2-0.2,0.2-0.3,0.2-0.4c-0.1,0-0.3,0-0.4,0.2c-0.1,0.1-0.1,0.1-0.1,0.2s-0.1,0.1-0.4,0.4
				c-0.2,0.2-0.4,0.3-0.5,0.2c-0.1-0.1-0.1-0.2,0-0.4c0-0.1,0-0.1,0-0.1c-0.1,0-0.3,0.2-0.5,0.3c-0.1,0.1-0.3,0.2-0.4,0.3
				c-0.4,0.3-0.5,0.2-0.5,0.2c-0.1-0.1,0.1-0.3,0.2-0.4s0.1-0.2,0.1-0.2s-0.1,0-0.4,0.2s-1.1,0.4-1.1,0.4l0,0l0,0
				c0,0-0.1-0.3,0.8-0.8c0.8-0.5,2-1.4,2.1-1.8c0.1-0.2,0.1-0.4,0.1-0.4s-0.1,0-0.2,0.3c-0.1,0.2-0.2,0.4-0.4,0.4
				c-0.2,0-0.3,0-0.6-0.2c-0.3,0.3-0.6,0.4-0.8,0.3c-0.1-0.1-0.2-0.2-0.2-0.3c0,0.1-0.1,0.2-0.2,0.3c-0.1,0.2-0.4,0.3-0.6,0.1l0,0
				c-0.1-0.1-0.2-0.1-0.7,0.3c-0.1,0.1-0.3,0.2-0.5,0.1c-0.4-0.1-0.7-0.8-0.7-1.1c0-0.1,0-0.3,0-0.3s-0.1,0.2-0.1,0.3
				c-0.1,0.4-0.1,1,0.2,1.8c0.1,0.2,0.1,0.4,0,0.5s-0.2,0.1-0.4,0c-0.1,0-0.1,0-0.2,0c-0.4,0-1.2-0.9-1.4-1
				c-0.1-0.1-0.2-0.2-0.2-0.2v0.1v0.1c0,0.3,0.2,0.8,0.2,0.8v0.1h-0.1c0,0-1.1-0.4-1.4-0.8c-0.2-0.2-0.3-0.2-0.3-0.2s0,0.1,0.1,0.3
				c0,0,0,0.1,0.1,0.1c0.1,0.3,0.4,0.9,1.9,1.1c1.6,0.2,2.1,0.6,2.1,1.2l0,0l0,0c-1.9,0.2-2.7-0.5-2.9-0.7c0,0,0,0-0.1,0l0,0
				c0,0,0,0.2,0,0.4v0.1H114c0,0-0.7-0.2-1-0.6c-0.1-0.1-0.1-0.1-0.1-0.1s0,0.2,0.2,0.4c1.2,1.5,3.9,1.2,4,1.2v0.1
				c0,0-0.5,0.3-0.8,0.5c-0.2,0.2-0.4,0.3-0.7,0.3c-0.1,0-0.2,0-0.3,0c-0.5,0-0.9,0-1.4,0.3c-0.6,0.3-0.5,0.8-0.4,1.2
				c0.1,0.2,0.3,0.3,0.5,0.4c0.1,0,0.2,0.1,0.3,0.1c0.1,0.1,0.5,0.2,0.6,0.1L115,76c0.1-0.1,0.1-0.1,0.2-0.2s0.2-0.1,0.3,0
				c0.1,0.1,0,0.1,0,0.3c-0.1,0.3-0.9,1.1-1.3,1.5c-0.3,0.3-0.3,0.3-0.3,0.4v0.1c0,0.1,0,0.2,0.1,0.3c0,0.1,0.1,0.1,0.1,0.2
				c0,0.2,0,0.2-0.3,0.5c-0.1,0.1-0.1,0.2-0.2,0.3c-0.1,0.2-0.3,0.3-0.3,0.4c0,0.2-0.5,0.6-0.6,0.7l0,0l0,0
				c-0.3-0.2-0.6-0.4-0.9-0.6c-0.5-0.3-0.9-0.6-1.2-0.7c-0.1,0-0.1-0.1-0.1-0.1c-0.3-0.2-0.3-0.2-0.9-0.2c-0.7,0-0.9,1-0.9,1.4h-0.1
				c0-0.3,0.2-1.4,1-1.4c0.6,0,0.7,0.1,0.9,0.2l0.1,0.1c0.2,0.2,0.7,0.4,1.2,0.7c0.3,0.2,0.6,0.4,0.9,0.5c0.2-0.1,0.5-0.5,0.5-0.6
				s0.1-0.3,0.3-0.5c0.1-0.1,0.1-0.2,0.2-0.3c0.2-0.3,0.2-0.3,0.2-0.5c0-0.1,0-0.1-0.1-0.2c0-0.1-0.1-0.2-0.1-0.3c0-0.1,0-0.1,0-0.1
				c0-0.2,0-0.2,0.3-0.5c0.5-0.5,1.2-1.2,1.3-1.5c0.1-0.1,0-0.2,0-0.2s-0.1,0-0.2,0s-0.2,0.1-0.2,0.2l-0.1,0.1
				c-0.1,0.1-0.5,0.1-0.7-0.1c0,0-0.1-0.1-0.3-0.1c-0.2-0.1-0.5-0.2-0.6-0.4c-0.1-0.3-0.2-1,0.5-1.3c0.5-0.3,0.9-0.3,1.5-0.3
				c0.1,0,0.2,0,0.3,0c0.3,0,0.4-0.1,0.6-0.3c0.1-0.1,0.4-0.3,0.6-0.4c-0.7,0-2.8,0.1-3.8-1.2c-0.2-0.2-0.3-0.5-0.2-0.6
				c0.1-0.1,0.2,0.1,0.3,0.1c0.2,0.3,0.7,0.5,0.9,0.5c0-0.2,0-0.4,0-0.4h0.1c0,0,0,0,0.1,0c0.2,0.2,1,0.9,2.8,0.7
				c0-0.5-0.3-0.9-2-1.1c-1.5-0.2-1.8-0.8-1.9-1.1c0,0,0-0.1-0.1-0.1c-0.1-0.2-0.1-0.3-0.1-0.4c0.1-0.1,0.2,0,0.4,0.2
				c0.3,0.3,1,0.6,1.3,0.8c-0.1-0.1-0.2-0.4-0.2-0.7c0-0.1,0-0.1,0-0.1c0-0.1,0-0.2,0-0.2c0.1,0,0.1,0,0.3,0.2c0.5,0.5,1.1,1,1.3,1
				c0.1,0,0.1,0,0.2,0s0.3,0.1,0.3,0c0,0,0-0.1-0.1-0.4c-0.3-0.8-0.4-1.4-0.2-1.8c0.1-0.3,0.1-0.4,0.2-0.4s0.1,0.1,0.1,0.4
				s0.3,0.9,0.6,1.1c0.1,0.1,0.3,0,0.4-0.1c0.5-0.5,0.6-0.4,0.8-0.3l0,0c0.1,0.1,0.3,0.2,0.5-0.1c0.2-0.3,0.3-0.4,0.3-0.4h0.1
				c0,0,0,0.3,0.2,0.4c0.1,0,0.3,0,0.7-0.3l0,0l0,0c0.2,0.2,0.4,0.3,0.5,0.2c0.1,0,0.2-0.1,0.3-0.4c0.1-0.2,0.2-0.4,0.3-0.3
				c0.1,0,0.1,0.3,0,0.5c-0.2,0.5-1.3,1.4-2.2,1.9c-0.6,0.3-0.7,0.5-0.7,0.6c0.2-0.1,0.7-0.3,1-0.4c0.5-0.2,0.5-0.2,0.5-0.1
				s0,0.1-0.1,0.3c-0.2,0.2-0.2,0.3-0.2,0.3l0,0c0,0,0.1,0,0.4-0.2c0.1-0.1,0.3-0.2,0.4-0.3c0.3-0.3,0.5-0.4,0.6-0.3
				c0,0,0,0.1,0,0.2c-0.1,0.2-0.1,0.3-0.1,0.3s0.1,0,0.4-0.2c0.3-0.3,0.3-0.3,0.3-0.4c0,0,0-0.1,0.1-0.2s0.4-0.3,0.5-0.2
				c0.1,0.1,0,0.2-0.1,0.5c-0.2,0.3-1.4,1.8-3.1,2c-0.3,0-0.5,0.1-0.5,0.2c0,0,0.1,0.1,0.4,0.1c0.7,0,1.3,0.3,1.3,0.3l0,0l0,0
				c0,0,0.1,0.6-1.1,0.9c0.3,1.4,0.3,1.5,0.1,1.8c0,0.1-0.1,0.3-0.2,0.5c-0.2,0.9-0.2,1.7-0.2,1.7l0,0h-0.3c0,0.1-0.1,0.5,0,1l0,0
				l-0.3,0.1c0,0,0,0.3,0.3,1.2l0,0l-0.3,0.2c0,0.1,0,0.3,0.3,0.8l0,0l0,0c0,0-0.5,0.8-0.3,1.5V83l-0.1-0.1c0,0-0.1-0.1-0.2-0.1
				c0,0-0.1,0.1,0,0.3l0,0c0,0.1,0.3,1.2,1.4,2.3c1.3,1.2,1.9,1.9,1.9,2.8c0,0.1,0,0.2-0.1,0.3c-0.1,0.1-0.1,0.1-0.2,0.1
				c0,0.1-0.2,0.7-0.5,1.4c-0.1,0.1-0.1,0.2-0.2,0.3c-0.2,0.5-0.4,0.7,0,1.7c0.1,0.3,0.2,0.5,0.2,0.6c0.2,0.5,0.2,0.5,0.1,1.5
				c-0.2,1.2-0.3,2-0.2,2.9c0,0.7,0,0.7-0.2,0.8h-0.1c-0.2,0.1-0.4,0.5-0.5,0.7v0.1c-0.1,0.2-0.1,0.3-0.1,0.3L120.1,98.9z M111,86.7
				L111,86.7L111,86.7z M91.1,90.1L91.1,90.1c0-0.1,0.4-0.3,1-0.4c0.4-0.1,0.6-0.3,0.7-0.5C92.9,89.1,93,89,93,89
				c0.2-0.1,0.6-0.6,0.6-0.6l0.1,0.1c0,0-0.5,0.5-0.6,0.6L93,89.2c-0.1,0.2-0.3,0.4-0.8,0.5C91.6,89.9,91.1,90.1,91.1,90.1z
				 M110.7,82.4L110.7,82.4l0.8-0.4l-0.4-0.3l0.1-0.1l0.4,0.3l0,0l0.9-0.3c0-0.1,0-0.5,0.1-0.6v-0.1c0-0.1,0-0.2,0.2-0.3
				c0.1-0.1,0.3-0.2,0.4-0.3c0.1,0,0.2-0.1,0.3-0.2c0.2-0.2,0.4-0.3,0.4-0.3v0.1c0,0-0.2,0.1-0.4,0.3c-0.1,0.1-0.2,0.1-0.3,0.2
				c-0.1,0.1-0.3,0.1-0.4,0.3c-0.1,0.1-0.1,0.2-0.1,0.3c0,0,0,0.1-0.1,0.2s-0.1,0.5-0.1,0.6l0,0l-0.9,0.3l0,0L110.7,82.4z
				 M93.7,75.2c-0.1,0-0.2,0-0.2,0v-0.1c0.1,0,0.3,0,0.4,0c0,0,0,0,0.1,0c0.1-0.1,0.2-0.2,0.4-0.2c0.3-0.1,0.6-0.2,0.6-0.2v0.1
				c0,0-0.4,0.1-0.6,0.2s-0.3,0.1-0.4,0.2c0,0,0,0-0.1,0C93.9,75.2,93.8,75.2,93.7,75.2z M91.9,72.4c0,0-0.5-0.5-0.7-0.7
				c-0.2-0.1-0.6-0.2-0.6-0.2v-0.1c0,0,0.5,0.1,0.7,0.2C91.5,71.8,92,72.3,91.9,72.4L91.9,72.4z M92.2,72.3c0,0-0.1-0.1-0.2-0.4
				s0-0.3,0.1-0.4l0.1-0.1c0.2-0.2,0.7-0.4,0.7-0.5V71c0,0-0.6,0.3-0.7,0.4c-0.1,0-0.1,0.1-0.1,0.1c-0.1,0.1-0.2,0.1-0.1,0.3
				C92.2,72.2,92.3,72.3,92.2,72.3L92.2,72.3z M89.6,71L89.6,71c-0.1,0-0.2-0.1-0.2-0.1L89.6,71C89.5,70.8,89.6,70.9,89.6,71
				c0.1-0.1,0.2-0.2,0.2-0.2l0.1,0.1C89.9,70.9,89.8,71,89.6,71z M88.3,70.7c-0.1,0-0.3,0-0.4-0.1s-0.1-0.2-0.1-0.3h0.1
				c-0.2-0.2-0.4-0.2-0.4-0.2V70C87.5,70,88.1,70.2,88.3,70.7L88.3,70.7L88.3,70.7C88.4,70.6,88.3,70.7,88.3,70.7z M87.9,70.2
				c0,0.1,0,0.2,0,0.2c0.1,0.1,0.2,0.1,0.3,0.1C88.2,70.4,88.1,70.3,87.9,70.2z"/>
		</g>
		<g id="path502">
			<path d="M118.1,88.8L118.1,88.8c-0.1,0,0-0.4-0.2-0.9h0.1C118.2,88.4,118.1,88.8,118.1,88.8z M112,83.6L112,83.6
				c0-0.1,1.6-0.4,2.2-0.5s0.7-0.1,0.7-0.1v0.1c0,0-0.1,0-0.7,0.1C113.6,83.3,112,83.6,112,83.6z M113,80.3L113,80.3
				c-0.1,0,0-0.3,0.1-0.6h0.1C113,80,113,80.3,113,80.3z M113.6,79.6L113.6,79.6c-0.2,0-0.3-0.2-0.3-0.2h0.1
				C113.4,79.4,113.5,79.5,113.6,79.6c0-0.1,0.1-0.1,0.2-0.2l0.1,0.1C113.8,79.6,113.7,79.6,113.6,79.6z M114.2,78.1L114.2,78.1
				C114.1,78.1,114.1,78,114.2,78.1L114.2,78.1C114.2,78,114.2,78,114.2,78.1c0-0.1,0.1-0.1,0.3-0.3c0.3-0.3,0.4-0.5,0.4-0.5h0.1
				c0,0-0.1,0.2-0.4,0.5C114.4,78,114.3,78.1,114.2,78.1z M112.3,76.4l-0.3-0.7l-0.1,0.4l-0.1-0.1c0,0-0.2-0.2-0.3-0.7
				c-0.1-0.3-0.1-0.6-0.2-0.8l-0.2,0.5v-0.1c0,0-0.2-0.3-0.3-0.9l-0.1,0.1l0,0c0,0-0.3-0.4-0.5-1.2l-0.2,0.3l-0.4-0.5l-0.1,0.3l0,0
				c0,0-0.4,0.1-0.7-0.4l-0.2,0.5l0,0c0,0-0.3-0.1-0.4-0.3l-0.3,0.2l-0.3-0.5l-0.1,0.3l0,0c0,0-0.3-0.2-0.4-0.4l-0.1,0.4l-0.3-0.3
				c0,0.3,0,0.5,0.1,0.8c0,0.1,0,0.2,0,0.2c0,0.4,0.2,1,0.4,1.3c0,0.1,0.1,0.1,0.1,0.2s0,0.1,0,0.1l0,0v0.1c0,0.1,0,0.2,0,0.4
				c-0.1,0.2-0.3,0.4-0.5,0.4s-0.3,0-0.5,0H106c-0.3,0-0.3,0-0.4,0h-0.1c-0.3-0.1-0.3-0.3-0.3-0.7c0-0.3,0-0.3-0.1-0.5
				c0,0,0-0.1-0.1-0.2c-0.1-0.3-0.2-0.3-0.3-0.2h-0.1h-0.1c0,0,0,0.1,0,0.3c0,0.1,0,0.2,0,0.2c0,0.2,0,0.3,0,0.3v0.1
				c0,0.2-0.1,0.5-0.3,0.5l0,0c-0.2,0.1-0.5,0.1-0.7,0.1s-0.3-0.1-0.4-0.1s-0.2-0.1-0.3-0.1c-0.2,0-0.4-0.2-0.4-0.6
				c0-0.2,0-0.4,0.1-0.6l0,0c0-0.2,0.1-0.4,0.1-0.4c0-0.1,0-0.5,0-0.7c-0.3-0.3-0.2-0.6-0.1-0.7l-0.4-0.3c-0.1,0.3-0.4,0.4-0.4,0.4
				l0,0l-0.2-0.4c-0.2,0.3-0.6,0.6-0.6,0.6l0,0l-0.1-0.3c-0.1,0.2-0.5,0.4-0.5,0.4l0,0L99.7,73c-0.2,0.4-0.5,0.5-0.5,0.5l0,0l0,0
				C99,73.4,99,73.3,99,73.1c-0.1,0.2-0.4,0.7-0.5,0.9c-0.1,0.1-0.1,0.2-0.2,0.2s-0.1,0-0.1,0l0,0L98,74c-0.2,0.4-0.6,0.9-0.7,0.9
				l0,0l-0.1-0.1l-0.3,0.7l-0.2-0.2L96.4,76l0,0l0,0c-0.2-2.8,0.6-6.4,2.7-8.4c1.4-1.2,2-1,2.3-0.8s0.4,0.5,0.3,0.8
				c-0.3,1,0.3,1.4,1,1.9c0.1-0.2,0.6-1.1,0.3-1.4c-0.3-0.3-0.4-0.3-0.5-0.3l0,0l0,0c0,0-0.1-0.1-0.1-0.2c0,0-0.2,0-0.3,0
				c-0.1,0-0.1,0-0.2,0c-0.1-0.1-0.1-0.2,0-0.4c0.1-0.2,0.2-0.3,0.3-0.4c0.2-0.1,0.4-0.1,0.7,0c0.1-0.1,0.4-0.2,0.8-0.1
				c0.5,0.2,1.1,0.4,1.4,1.2c0.3,0.7,0.3,0.8,0.5,1c0,0,0,0,0.1,0.1c0.1,0.2,0.6,0.8,0.7,1c0.1-0.1,0.6-0.6,0.6-0.9
				c0-0.1-0.1-0.2-0.2-0.3c-0.5-0.3-0.8-0.9-0.7-1.3c0.1-0.2,0.2-0.5,0.8-0.4c1.2,0.1,2.9,0.7,3.6,1.6l0.1,0.1c0.8,1,2.6,3.1,2,7.5
				L112.3,76.4z M111.9,75.6l0.3,0.6c0.6-4.3-1.1-6.4-2-7.3l-0.1-0.1c-0.7-0.9-2.4-1.5-3.6-1.6c-0.4,0-0.7,0.1-0.7,0.4
				c-0.1,0.4,0.2,0.9,0.7,1.2c0.1,0.1,0.2,0.2,0.2,0.3c0,0.4-0.7,1-0.7,1l0,0l0,0c0,0-0.1-0.1-0.2-0.3c0,0,0,0.1,0,0.2
				c0.1,0.2,0.1,0.3,0.1,0.3l0,0h-0.2c0,0.1,0,0.2-0.1,0.3c0,0.1,0,0.2,0.1,0.3l-0.1,0.1l-0.3-0.2l-0.1,0.4l-0.3-0.2l-0.1,0.3
				l-0.3-0.2l-0.1,0.2l-0.3-0.1l-0.2,0.4l-0.3-0.3l-0.2,0.3l-0.2-0.3v0.1l-0.1-0.2l-0.2,0.4v-0.1c0-0.1-0.1-0.3-0.2-0.3h-0.1
				c-0.1,0-0.2,0-0.2-0.1c-0.1,0-0.1-0.2-0.1-0.3l-0.2,0.1l0.2-1c-0.8-0.6-1.3-1-1-2c0.1-0.3,0-0.6-0.2-0.7s-0.8-0.3-2.2,0.8
				c-2,1.9-2.8,5.6-2.7,8.2l0.3-0.6l0,0c0-0.1,0.1-0.4,0.1-0.7c0.1-0.9,0.3-2.4,0.7-3.3h0.1c-0.4,0.9-0.6,2.4-0.7,3.2
				c-0.1,0.4-0.1,0.7-0.1,0.7l0.1,0.1L97,75l0,0c0-0.1,0.1-0.3,0.1-0.5c0.1-0.8,0.3-2.1,0.7-2.7h0.1c-0.4,0.6-0.6,1.9-0.7,2.6
				c0,0.3-0.1,0.4-0.1,0.5l0.1,0.1c0.1-0.1,0.5-0.6,0.6-0.9c0-0.2,0.1-0.2,0.1-0.2v-0.1c0.1-0.5,0.1-0.9,0.4-1.7h0.1
				c-0.3,0.8-0.4,1.1-0.4,1.7c0,0.1,0,0.1,0,0.2l0,0c0,0,0,0.1,0,0.2l0.1,0.2c0,0,0,0,0.1,0s0.1-0.1,0.1-0.1c0.1-0.2,0.5-0.8,0.5-1
				l0.2-0.6h0.1L99,73l0,0c0,0-0.1,0.4,0.1,0.5c0.1,0,0.3-0.1,0.5-0.5l0,0l0.1-0.3h0.1L99.7,73l0.2,0.2c0.1,0,0.4-0.2,0.5-0.4v-0.1
				l0.1,0.4c0.1-0.1,0.4-0.3,0.6-0.6v-0.1l0.2,0.5c0.1-0.1,0.3-0.2,0.4-0.4l0,0l0.6,0.4l0,0c0,0-0.2,0.3,0.1,0.7l0,0l0,0
				c0,0.3,0,0.7,0,0.8l0,0l0,0c0,0,0,0.2-0.1,0.4l0,0c0,0.2-0.1,0.4-0.1,0.6c0,0.3,0.1,0.4,0.3,0.5c0.1,0,0.2,0,0.3,0.1
				c0.1,0,0.2,0.1,0.3,0.1c0.3,0,0.5,0,0.7-0.1l0,0c0.2-0.1,0.3-0.3,0.3-0.5c0-0.1,0-0.1,0-0.1c0-0.1,0-0.1,0-0.3c0-0.1,0-0.2,0-0.2
				c0-0.1,0-0.2,0-0.3l0.1-0.1h0.1c0.2,0,0.2,0,0.4,0.3c0,0.1,0.1,0.1,0.1,0.2c0.1,0.2,0.1,0.2,0.1,0.5c0,0.4,0,0.6,0.2,0.6
				c0.1,0,0.1,0,0.1,0c0.1,0,0.1,0,0.4,0h0.3c0.2,0,0.3,0,0.5,0s0.4-0.2,0.5-0.4c0.1-0.2,0-0.3,0-0.4v-0.1v-0.1l0,0
				c0,0,0-0.1-0.1-0.2c-0.2-0.4-0.3-1-0.4-1.4c0-0.1,0-0.2,0-0.2c0-0.3-0.1-0.6-0.1-0.9l0,0v-0.1l0.3,0.2l0.2-0.5v0.1
				c0,0.1,0.2,0.3,0.4,0.4l0.1-0.4l0.4,0.6l0.3-0.2l0,0c0.1,0.2,0.3,0.3,0.3,0.3l0.2-0.4c-0.1-0.2-0.1-0.2-0.1-0.2l-0.1-0.3h0.1
				l0.2,0.4c0,0,0.1,0.1,0.1,0.2c0.3,0.4,0.5,0.4,0.6,0.4l0.1-0.3l-0.3-0.8h0.1l0.3,0.8l0,0l0.4,0.4l0.2-0.3
				c-0.1-0.4-0.4-1.1-0.4-1.1h0.1c0,0,0.2,0.7,0.4,1.1l0,0v0.1c0.2,0.7,0.4,1.1,0.5,1.2l0.1-0.1c0-0.2-0.2-1.3-0.5-2h0.1
				c0.3,0.8,0.5,2,0.5,2l0,0c0,0.4,0.2,0.7,0.2,0.8l0.1-0.4l0,0c0,0,0-0.6-0.1-1.2c-0.1-0.5-0.3-1-0.3-1h0.1c0,0,0.2,0.5,0.3,1.1
				c0.1,0.4,0.1,0.8,0.1,1l0,0v0.1c0,0,0.1,0.5,0.2,0.9c0.1,0.3,0.1,0.5,0.2,0.6L111.9,75.6c-0.1-0.1-0.1-0.9-0.2-1.6s-0.2-1-0.2-1
				h0.1c0,0,0.1,0.3,0.2,1S111.9,75.5,111.9,75.6z M103.8,70.9l0.2,0.3l0.1-0.3l0.3,0.1l0.2-0.2l0.2,0.2l0.1-0.3l0.3,0.2l0.1-0.4
				l0.2,0.2c0-0.1,0-0.1,0-0.2s0.1-0.3,0.1-0.3l0,0h0.2c0-0.1,0-0.2-0.1-0.3c-0.1-0.2,0-0.3,0-0.3l0,0c-0.2-0.2-0.3-0.5-0.4-0.6
				c0,0,0,0-0.1-0.1c-0.1-0.2-0.2-0.3-0.5-1c-0.3-0.8-0.8-1-1.3-1.2c-0.4-0.2-0.7,0.1-0.7,0.1l0,0l0,0c-0.3-0.1-0.5-0.1-0.6,0
				s-0.2,0.2-0.3,0.3c-0.1,0.3,0,0.3,0,0.4h0.1c0.2,0,0.3,0,0.4,0l0,0l0,0c0,0.1,0,0.2,0.1,0.2s0.3,0.1,0.5,0.4
				c0.4,0.4-0.3,1.5-0.3,1.5l0,0l0,0l-0.2,0.9l0.2-0.1v0.1c0,0.2,0,0.3,0,0.3s0.1,0,0.2,0.1h0.1c0.1,0,0.2,0.2,0.3,0.3l0.1-0.4
				l0.1,0.2l0.1-0.1l0.2,0.3L103.8,70.9z M114.6,75.5c-0.2,0-0.3-0.1-0.3-0.1v-0.1c0,0,0.2,0.2,0.5,0l0.1-0.1c0.2-0.2,0.5-0.5,1-0.4
				v0.1c-0.5-0.1-0.7,0.1-0.9,0.3l-0.1,0.1C114.8,75.5,114.7,75.5,114.6,75.5z M118.6,74L118.6,74c0-0.1,0.2-0.1,0.6-0.1
				c0.2,0,0.4,0,0.4,0V74l0,0l0,0c0,0-0.1,0-0.4,0C118.8,74,118.6,74,118.6,74z"/>
		</g>
		<g id="path504">
			<path d="M103,77.5c-0.1,0-0.2,0-0.2-0.1h-0.1c-0.1,0-0.2,0-0.3,0h-0.1c-0.2,0-0.3,0-0.3,0l0,0l0,0c-0.1,0-0.1-0.1-0.1-0.3
				c0-0.2,0.2-0.3,0.4-0.4c0.1-0.1,0.3-0.1,0.5-0.2c0.3-0.2,0.3-0.3,0.3-0.3l0,0v-0.1c0,0,0.1,0,0.1,0.1s-0.1,0.2-0.4,0.4
				c-0.2,0.1-0.3,0.2-0.5,0.2c-0.3,0.1-0.4,0.2-0.4,0.3c0,0.2,0,0.2,0,0.3c0,0,0.2,0,0.3,0h0.1c0.1,0,0.2,0,0.3,0c0.1,0,0.1,0,0.2,0
				C102.8,77.4,102.9,77.4,103,77.5c0.2-0.1,0.4-0.2,0.4-0.2h0.1v0.1h0.1l0,0c0.1,0,0.1,0,0.2,0h0.1c0.2,0,0.3-0.1,0.4-0.1
				c0,0,0.1-0.2,0.1-0.3c0-0.1-0.1-0.2-0.2-0.2c-0.2-0.1-0.4-0.2-0.5-0.2s-0.1,0-0.1-0.1c-0.1-0.1-0.1-0.3-0.1-0.3h0.1
				c0,0.1,0.1,0.2,0.1,0.3h0.1c0.1,0,0.2,0.1,0.5,0.3c0.1,0.1,0.2,0.2,0.2,0.3c0,0.2-0.1,0.3-0.1,0.3l0,0l0,0c0,0-0.2,0-0.4,0.1
				c-0.1,0-0.1,0-0.1,0c-0.1,0-0.1,0-0.2,0l0,0c-0.1,0-0.1,0-0.1,0C103.4,77.4,103.2,77.4,103,77.5L103,77.5z M105.8,77.4
				L105.8,77.4c0,0-0.2-0.1-0.2-0.5c0-0.1,0-0.2,0-0.2s-0.3,0.2-0.3,0.4c-0.1,0.2-0.2,0.2-0.2,0.2l0,0c-0.2,0-0.3,0-0.3,0l0,0l0,0
				c0,0-0.1-0.1-0.1-0.4c0-0.2,0.2-0.3,0.4-0.4c0.1,0,0.2-0.1,0.4-0.2c0.2-0.1,0.2-0.2,0.2-0.2V76v-0.1l0.1,0.1
				c0,0.1-0.1,0.2-0.3,0.3c-0.1,0.1-0.3,0.1-0.4,0.2c-0.2,0.1-0.3,0.1-0.3,0.3c0,0.2,0,0.3,0,0.3c0.1,0,0.2,0,0.3,0
				c0,0,0.1,0,0.1-0.2c0.1-0.2,0.4-0.4,0.4-0.4h0.1c0,0,0.1,0.1,0,0.3C105.7,77.2,105.8,77.3,105.8,77.4l0.2-0.1V77
				c0-0.1,0-0.3,0-0.3l0,0l0,0c0,0,0.1,0,0.2,0.1s0.1,0.1,0.2,0.4l0,0c0,0.1,0,0.1,0,0.1l0,0c0,0,0.2,0,0.2-0.1c0,0,0.1-0.2,0.1-0.3
				c0-0.1,0-0.1-0.1-0.1s-0.1-0.1-0.2-0.1c-0.2-0.1-0.5-0.3-0.6-0.5h0.1c0.1,0.2,0.3,0.4,0.5,0.5c0.1,0,0.2,0.1,0.2,0.1
				c0.1,0.1,0.1,0.1,0.1,0.2c0,0.2-0.1,0.4-0.1,0.4l0,0l0,0c0,0-0.2,0.1-0.3,0.1c-0.1,0-0.1,0-0.1-0.2l0,0c-0.1-0.2-0.1-0.2-0.2-0.3
				l-0.1-0.1c0,0.1,0,0.2,0,0.3L105.8,77.4L105.8,77.4z M104.9,75.3c-0.2,0-0.5,0-0.6-0.5h0.1C104.5,75.2,104.7,75.2,104.9,75.3
				L104.9,75.3L104.9,75.3L104.9,75.3L104.9,75.3z M107,75.1L107,75.1c0.1-0.1,0.1-0.2,0.1-0.2c-0.1-0.1-0.1-0.1-0.1-0.2
				c0,0,0.1,0,0.1,0.1c0.1,0.1,0.4,0.1,0.4,0.1c0.1,0,0.1-0.1,0.1-0.1c0-0.1-0.3-0.4-0.6-0.6c-0.2-0.1-0.4-0.3-0.5-0.4l0.1-0.1
				c0.1,0.1,0.3,0.3,0.5,0.4c0.3,0.3,0.6,0.5,0.6,0.6s-0.1,0.1-0.2,0.2c0,0-0.2,0-0.4-0.1C107.2,74.9,107.2,75,107,75.1z
				 M100.6,72.1L100.6,72.1c-0.1,0-0.1-0.2-0.1-0.3v-0.1h0.1v0.1C100.6,71.8,100.6,72,100.6,72.1c0-0.1,0.1-0.1,0.4-0.5h0.1
				C100.8,72,100.7,72.1,100.6,72.1z M107.8,72.1c-0.1,0-0.2-0.1-0.5-0.4h0.1C107.7,72,107.8,72,107.8,72.1c0-0.1,0-0.2,0-0.3v-0.1
				h0.1v0.1C107.9,71.9,107.9,72,107.8,72.1L107.8,72.1z M108.9,71.8c-0.1,0-0.2-0.1-0.5-0.4h0.1C108.9,71.7,108.9,71.7,108.9,71.8
				c0-0.1,0-0.2,0-0.3v-0.1h0.1v0.1C109,71.6,109.1,71.7,108.9,71.8C109,71.8,108.9,71.8,108.9,71.8z M99.5,71.8L99.5,71.8
				c-0.1,0-0.1-0.2-0.1-0.3v-0.1h0.1v0.1C99.5,71.5,99.5,71.7,99.5,71.8c0-0.1,0.1-0.1,0.4-0.5h0.1C99.7,71.7,99.6,71.8,99.5,71.8z
				 M101.5,71.5L101.5,71.5c-0.1,0-0.1-0.2-0.1-0.3v-0.1h0.1v0.1C101.5,71.2,101.5,71.4,101.5,71.5c0-0.1,0.1-0.1,0.4-0.5h0.1
				C101.7,71.4,101.6,71.5,101.5,71.5z M107,71.5c-0.1,0-0.2-0.1-0.5-0.4h0.1C106.9,71.4,107,71.4,107,71.5c0-0.1,0-0.2,0-0.3v-0.1
				h0.1v0.1C107.1,71.3,107.1,71.4,107,71.5L107,71.5z M108.8,71.2c-0.1,0-0.2-0.1-0.5-0.4h0.1C108.7,71.1,108.8,71.1,108.8,71.2
				c0-0.1,0-0.2,0-0.3v-0.1h0.1v0.1C108.9,71,108.9,71.2,108.8,71.2L108.8,71.2z M99.7,71.2C99.7,71.2,99.6,71.2,99.7,71.2
				c-0.1,0-0.1-0.2-0.1-0.3v-0.1h0.1v0.1C99.6,71,99.6,71.1,99.7,71.2c0-0.1,0.1-0.1,0.4-0.5h0.1C99.8,71.1,99.7,71.2,99.7,71.2z
				 M109.5,71.1c-0.1,0-0.2-0.1-0.5-0.4h0.1C109.4,71.1,109.5,71.1,109.5,71.1c0-0.1,0-0.2,0-0.3v-0.1h0.1v0.1
				C109.6,71,109.6,71.1,109.5,71.1L109.5,71.1z M100.6,71.1L100.6,71.1c-0.1,0-0.1-0.2-0.1-0.3v-0.1h0.1v0.1
				C100.6,70.9,100.5,71,100.6,71.1c0-0.1,0.1-0.1,0.4-0.5h0.1C100.8,71.1,100.7,71.1,100.6,71.1z M107.9,71.1
				c-0.1,0-0.2-0.1-0.5-0.4h0.1C107.8,71.1,107.9,71.1,107.9,71.1c0-0.1,0-0.2,0-0.3v-0.1h0.1v0.1C108,71,108,71.1,107.9,71.1
				L107.9,71.1z M99,71.1C99,71.1,98.9,71.1,99,71.1c-0.1,0-0.1-0.2-0.1-0.3v-0.1H99v0.1C98.9,70.9,98.9,71,99,71.1
				c0-0.1,0.1-0.1,0.4-0.5h0.1C99.2,71.1,99,71.1,99,71.1z M110.1,71.1c-0.1,0-0.2-0.1-0.5-0.4h0.1C110,71,110.1,71,110.1,71.1
				c0-0.1,0-0.2,0-0.3v-0.1h0.1v0.1C110.2,71,110.2,71.1,110.1,71.1L110.1,71.1z M98.4,71.1C98.4,71.1,98.3,71.1,98.4,71.1
				c-0.1,0-0.1-0.2-0.1-0.3v-0.1h0.1v0.1C98.3,70.9,98.3,71,98.4,71.1c0-0.1,0.1-0.1,0.4-0.5h0.1C98.5,71,98.4,71.1,98.4,71.1z
				 M108.8,70.6c-0.1,0-0.2-0.1-0.5-0.4h0.1C108.7,70.6,108.8,70.6,108.8,70.6c0-0.1,0-0.2,0-0.3v-0.1h0.1v0.1
				C108.9,70.5,108.9,70.6,108.8,70.6L108.8,70.6z M99.7,70.6C99.7,70.6,99.6,70.6,99.7,70.6c-0.1,0-0.1-0.2-0.1-0.3v-0.1h0.1v0.1
				C99.6,70.4,99.6,70.6,99.7,70.6c0-0.1,0.1-0.1,0.4-0.5h0.1C99.8,70.6,99.7,70.6,99.7,70.6z M97.9,70.6
				C97.9,70.6,97.8,70.6,97.9,70.6c-0.1,0-0.1-0.2-0.1-0.3v-0.1h0.1v0.1C97.8,70.4,97.8,70.5,97.9,70.6c0-0.1,0.1-0.1,0.4-0.5h0.1
				C98.1,70.5,97.9,70.6,97.9,70.6z M110.6,70.6c-0.1,0-0.2-0.1-0.5-0.4h0.1C110.5,70.5,110.6,70.5,110.6,70.6c0-0.1,0-0.2,0-0.3
				v-0.1h0.1v0.1C110.7,70.5,110.7,70.6,110.6,70.6L110.6,70.6z M98.5,70.4L98.5,70.4c-0.1,0-0.1-0.2-0.1-0.3V70h0.1v0.1
				C98.5,70.1,98.5,70.3,98.5,70.4c0-0.1,0.1-0.1,0.4-0.5H99C98.7,70.3,98.6,70.4,98.5,70.4z M109.9,70.4c-0.1,0-0.2-0.1-0.5-0.4
				h0.1C109.9,70.3,109.9,70.3,109.9,70.4c0-0.1,0-0.2,0-0.3V70h0.1v0.1C110.1,70.2,110.1,70.3,109.9,70.4
				C110,70.4,110,70.4,109.9,70.4z M99.4,70.2L99.4,70.2c-0.1,0-0.1-0.2-0.1-0.3v-0.1h0.1v0.1C99.4,70,99.4,70.2,99.4,70.2
				c0-0.1,0.1-0.1,0.4-0.5h0.1C99.6,70.2,99.5,70.2,99.4,70.2z M109.1,70.2c-0.1,0-0.2-0.1-0.5-0.4h0.1
				C109,70.2,109.1,70.2,109.1,70.2c0-0.1,0-0.2,0-0.3v-0.1h0.1v0.1C109.2,70.1,109.2,70.2,109.1,70.2L109.1,70.2z M108.2,70.2
				c-0.1,0-0.2-0.1-0.5-0.4h0.1C108.1,70.1,108.2,70.1,108.2,70.2c0-0.1,0-0.2,0-0.3v-0.1h0.1v0.1C108.3,70,108.3,70.2,108.2,70.2
				L108.2,70.2z M100.3,70.2L100.3,70.2c-0.1,0-0.1-0.2-0.1-0.3v-0.1h0.1v0.1C100.3,70,100.3,70.1,100.3,70.2c0-0.1,0.1-0.1,0.4-0.5
				h0.1C100.5,70.1,100.4,70.2,100.3,70.2z M110.1,69.8c-0.1,0-0.2-0.1-0.5-0.4h0.1C110,69.7,110.1,69.7,110.1,69.8
				c0-0.1,0-0.2,0-0.3v-0.1h0.1v0.1C110.2,69.6,110.2,69.7,110.1,69.8C110.1,69.7,110.1,69.8,110.1,69.8z M98.3,69.8
				C98.3,69.8,98.3,69.7,98.3,69.8c-0.1,0-0.1-0.2-0.1-0.3v-0.1h0.1v0.1C98.3,69.5,98.3,69.7,98.3,69.8c0-0.1,0.1-0.1,0.4-0.5h0.1
				C98.5,69.7,98.4,69.8,98.3,69.8z M99.1,69.3C99,69.3,99,69.3,99.1,69.3C99,69.3,99,69.1,99,69v-0.1l0,0V69
				C99,69.1,99,69.2,99.1,69.3c0-0.1,0.1-0.1,0.4-0.5h0.1C99.2,69.2,99.1,69.3,99.1,69.3z M109.4,69.3c-0.1,0-0.2-0.1-0.5-0.4h0.1
				C109.3,69.2,109.4,69.2,109.4,69.3c0-0.1,0-0.2,0-0.3v-0.1h0.1V69C109.5,69.2,109.5,69.3,109.4,69.3L109.4,69.3z M99.2,68.7
				C99.2,68.7,99.1,68.7,99.2,68.7c-0.1,0-0.1-0.2-0.1-0.3v-0.1h0.1v0.1C99.1,68.5,99.1,68.7,99.2,68.7c0-0.1,0.1-0.1,0.4-0.5h0.1
				C99.4,68.7,99.2,68.7,99.2,68.7z M109.3,68.7c-0.1,0-0.2-0.1-0.5-0.4h0.1C109.2,68.7,109.3,68.7,109.3,68.7c0-0.1,0-0.2,0-0.3
				v-0.1h0.1v0.1C109.4,68.6,109.4,68.7,109.3,68.7L109.3,68.7z M115.5,68.1L115.5,68.1c-0.7-0.3-1.9-1.3-2.1-1.4
				c0,0-0.1,0.1-0.2,0.3c-0.2,0.4-0.4,0.4-0.4,0.4l0,0c-2.4-1.3-5.6-2-8.6-2l0,0c-3,0-6.2,0.8-8.6,2l0,0c0,0-0.3,0-0.4-0.4
				c-0.1-0.2-0.2-0.3-0.2-0.3c-0.2,0.2-1.4,1.2-2,1.4h-0.1V68c0,0,0.3-0.6,0.3-1.3l-1.7-0.5h0.1c1.1-0.5,2.6-1.4,3.3-2.2
				c0.5-0.6,1.3-0.9,1.8-0.8c0.2,0.1,0.3,0.2,0.4,0.4c0.1,0.6,0.2,0.8,0.3,0.9c0.3-0.1,3.1-1.1,6.8-1.1c3.7,0,6.5,1,6.8,1.1
				c0-0.1,0.2-0.3,0.3-0.9c0-0.2,0.2-0.3,0.4-0.4c0.5-0.1,1.3,0.2,1.8,0.8c0.8,0.8,2.3,1.8,3.3,2.2h0.1l-1.7,0.5
				C115.1,67.4,115.4,68,115.5,68.1L115.5,68.1z M113.4,66.6L113.4,66.6c0,0,1.3,1.1,1.9,1.4c-0.1-0.2-0.3-0.7-0.3-1.3l0,0l1.5-0.4
				c-1.1-0.5-2.5-1.4-3.3-2.2c-0.5-0.5-1.3-0.9-1.7-0.8c-0.2,0-0.3,0.2-0.3,0.3c-0.1,0.7-0.3,0.9-0.3,1l0,0l0,0c0,0-2.9-1.1-6.8-1.1
				s-6.7,1.1-6.8,1.1l0,0l0,0l0,0c-0.5,0.2-1.3,0.5-1.8,0.7c-0.1,0.1-0.3,0.1-0.4,0.2L95,65.4c-0.2,0.1-0.4,0.2-0.5,0.1l0.1,0.1
				c0.1,0.3,0.4,0.9,0.4,0.9l0,0c0,0,0.1,0.1,0.2,0.4s0.3,0.3,0.4,0.3c2.4-1.3,5.6-2,8.6-2l0,0c3,0,6.2,0.8,8.6,2c0,0,0.2,0,0.4-0.3
				C113.3,66.6,113.3,66.6,113.4,66.6L113.4,66.6z M91.7,66.2l1.5,0.4l0,0c0,0.6-0.2,1.1-0.3,1.3c0.7-0.3,1.9-1.4,1.9-1.4l0,0
				c0-0.1-0.2-0.6-0.4-0.8c0,0,0-0.1-0.1-0.1l-0.1-0.1l-0.1-0.1l0,0v-0.1c0.1-0.1,0.2-0.3,0.5-0.4c0.2-0.1,0.4-0.1,0.7-0.2
				c0.7-0.2,1.5-0.5,1.4-1.1l0,0c-0.1-0.1-0.1-0.2-0.3-0.2c-0.4-0.1-1.2,0.2-1.7,0.8S92.8,65.7,91.7,66.2z M94.5,65.4
				c0.1,0.1,0.2,0.1,0.5,0l0.1-0.1c0.1,0,0.2-0.1,0.4-0.2c0.5-0.2,1.2-0.5,1.8-0.7c-0.1-0.1-0.2-0.4-0.2-0.8c-0.1,0.6-0.8,0.8-1.5,1
				c-0.2,0.1-0.5,0.1-0.6,0.2c-0.3,0.1-0.4,0.2-0.5,0.4C94.4,65.2,94.4,65.3,94.5,65.4z M103,67.8c-0.4-0.2-0.7-0.2-0.7-0.2v-0.1
				C102.2,67.5,102.5,67.5,103,67.8L103,67.8z"/>
		</g>
		<g id="path506">
			<path d="M103.3,97.2L103.3,97.2c0-0.1,0.6-0.3,0.7-0.6c0-0.1,0-0.2,0-0.3c-0.1-0.3-0.2-0.5-0.1-0.6s0.2-0.2,0.4-0.2v0.1
				c-0.1,0-0.2,0-0.3,0.1c-0.1,0.1,0,0.3,0.1,0.5c0.1,0.1,0.1,0.3,0,0.4C103.9,97,103.3,97.2,103.3,97.2z M104.2,95.1L104.2,95.1
				L104.2,95.1c-0.1,0-3.8-1-4.7-1.2c-0.9-0.2-0.9-0.6-0.9-1.1v-0.1v-8.1h11.2v8.2c0,0.4,0,0.8-0.9,1.1
				C108,94.1,104.2,95.1,104.2,95.1z M98.7,84.7v8.2c0,0.4,0,0.8,0.8,1c0.9,0.2,4.5,1.2,4.7,1.2c0.2-0.1,3.8-1,4.7-1.2
				c0.8-0.2,0.8-0.5,0.8-1v-0.1v-8.1H98.7z M108.6,77.8L108.6,77.8l-1.7-0.5v-0.1l1.8,0.4v0.1l0.3-0.1l-0.3-0.2v0.1l-1.8-0.4l0,0V77
				h2.3v0.1l0.3-0.2l-0.3-0.1v0.1h-2.3l0,0l0,0v-0.1l1.3-0.3v0.1l0.3-0.2h-0.3v0.1l-1.3,0.3v0.1h-0.1v-0.4h-0.6v-0.1h0.7v0.4
				l1.2-0.3v-0.1l0.6,0.1l-0.5,0.4v-0.1l-1,0.2h2v-0.1l0.6,0.2l-0.6,0.3v-0.1h-1.9l1.4,0.3v-0.1l0.5,0.4L108.6,77.8z M100.7,77.5
				L100.7,77.5c0.1-0.1,0.3-0.4,0.7-0.6c0.3-0.2,0.4-0.4,0.4-0.4c-0.1,0-0.2,0-0.4,0c-0.1,0-0.2,0.1-0.3,0.2
				c-0.1,0.1-0.2,0.2-0.4,0.4c-0.4,0.3-0.6,0.2-0.7,0.2l0,0l0,0c0,0,0.3-0.3,0.6-0.5c-0.1,0-0.2-0.1-0.2-0.3c0,0,0,0,0-0.1
				c0,0,0,0-0.1,0c0,0-0.1,0.1-0.2,0.3c0,0.1-0.1,0.1-0.1,0.2c-0.1,0.1-0.1,0.2-0.3,0.4c-0.3,0.2-0.7,0.1-0.8,0.1h-0.1l0.1-0.1
				c0,0,0.5-0.3,0.7-0.5s0.2-0.5,0.2-0.5l0,0c0,0.2-0.1,0.3-0.3,0.3c-0.1,0-0.3-0.1-0.3-0.2l0,0l0,0c0,0-0.2,0.2-0.3,0.5
				c-0.1,0.3-0.3,0.3-0.6,0.4c-0.3,0.1-0.6,0.2-0.6,0.2v-0.1c0,0,0.5-0.4,0.8-0.6c0.1,0,0.1-0.1,0.1-0.1c0.1,0,0.1,0,0.1-0.1
				c-0.1,0-0.2-0.1-0.2-0.3l0,0l0,0l0,0c0,0.2-0.1,0.3-0.3,0.3c-0.2,0-0.3-0.1-0.3-0.3c0-0.1,0.1-0.3,0.3-0.3l0,0l0,0
				c0-0.2,0.1-0.3,0.3-0.3c0.1,0,0.2,0,0.2,0.1c0-0.1-0.1-0.1-0.2-0.1h-0.1c-0.2,0-0.3-0.2-0.3-0.2L98,75.4h0.1c0,0,0.4,0,0.7,0
				c0.1,0,0.1,0,0.2,0c0.1-0.1,0.1-0.1,0.2-0.1c0.2,0,0.3,0.1,0.3,0.3l0,0c0,0,0,0,0.1,0s0.1,0.1,0.2,0.1c0-0.1,0.1-0.2,0.2-0.3
				c-0.1-0.1-0.2-0.1-0.3-0.2c-0.3-0.2-0.5-0.4-0.5-0.4l-0.1-0.1h0.1c0.4,0,0.8,0.2,1.1,0.4c0.1,0.1,0.2,0.1,0.3,0.2
				c0-0.1,0.1-0.1,0.2-0.1c0.2,0,0.3,0.1,0.3,0.3c0,0,0,0,0,0.1h0.1c0.2,0,0.3-0.1,0.3-0.1c-0.1-0.1-0.5-0.3-0.9-0.4
				c-0.5-0.2-0.4-0.5-0.4-0.5l0,0l0,0c0,0,0.3,0.2,0.8,0.3c0.1,0,0.1,0,0.2,0c0.3,0.1,0.4,0.1,0.6,0.4c0.1,0.1,0.1,0.2,0.1,0.3
				c0,0.1,0.1,0.1,0.1,0.2v0.1V76c0.1,0,0.3,0.1,0.4,0.1c0.1,0.1,0.4,0.2,0.4,0.2v0.1c0,0-0.3-0.1-0.4-0.2s-0.4-0.1-0.4-0.1l0,0l0,0
				c0,0,0,0,0-0.1l0,0l0,0v-0.1c0-0.1,0-0.1-0.1-0.1l0,0c0-0.1-0.1-0.2-0.1-0.2c-0.2-0.3-0.3-0.3-0.6-0.3c-0.1,0-0.1,0-0.2,0
				c-0.3-0.1-0.6-0.2-0.7-0.3c0,0.1,0,0.3,0.4,0.4c0.5,0.2,1,0.4,1,0.5l0,0l0,0c0,0-0.1,0.2-0.4,0.2c-0.1,0-0.1,0-0.2,0l0,0l0,0
				c0,0,0,0,0-0.1s-0.1-0.2-0.2-0.2s-0.2,0-0.2,0.1l0,0l0,0c-0.1-0.1-0.3-0.2-0.4-0.2c-0.2-0.2-0.6-0.4-0.9-0.4
				c0.1,0.1,0.2,0.2,0.4,0.3c0.1,0.1,0.2,0.2,0.3,0.3l0.1,0.1h-0.1c-0.1,0-0.2,0.1-0.2,0.2l0,0v0.1h-0.1c-0.1,0-0.2-0.1-0.3-0.1
				c0,0-0.1,0-0.1-0.1l0,0l0,0l0,0c0-0.1-0.1-0.2-0.2-0.2s-0.1,0-0.2,0.1l0,0l0,0c-0.1,0-0.1,0-0.2,0c-0.2,0-0.5,0-0.6,0
				c0,0,0.1,0.1,0.2,0.1h0.1c0.1,0,0.3,0,0.3,0.2c0,0.1,0,0.2,0,0.2l0,0l0,0l0,0l0,0h-0.1v-0.1c0,0,0,0,0-0.1s-0.1-0.2-0.2-0.2
				s-0.2,0.1-0.2,0.2c0,0,0,0,0,0.1v0.1h0.1h0.1h0.1v0.1l0,0c0,0.1,0.1,0.2,0.2,0.2l0,0l0,0c0,0.1-0.1,0.1-0.1,0.2
				c0,0-0.1,0-0.1,0.1c-0.2,0.1-0.5,0.3-0.6,0.5c0.1,0,0.3-0.1,0.5-0.1c0.3-0.1,0.5-0.1,0.6-0.4s0.3-0.5,0.3-0.5s0,0,0.1-0.1
				l0.1-0.1v0.1l0,0c0,0.1,0.1,0.2,0.2,0.2s0.2-0.1,0.2-0.2c0,0,0,0,0-0.1v-0.1h0.1c0.1,0,0.1,0.1,0.1,0.1l0,0l0,0
				c0,0,0,0.4-0.2,0.6s-0.4,0.4-0.6,0.5c0.2,0,0.4,0,0.6-0.1s0.2-0.2,0.3-0.4c0-0.1,0-0.1,0.1-0.2c0.1-0.3,0.3-0.3,0.3-0.3l0,0
				c0,0,0,0,0.1,0h0.1v0.1v0.1c0,0.1,0.1,0.2,0.2,0.2l0,0V77c0,0-0.1,0-0.1,0.1c-0.3,0.2-0.5,0.4-0.6,0.5c0.1,0,0.3,0,0.5-0.2
				c0.2-0.1,0.3-0.3,0.4-0.4s0.2-0.2,0.3-0.3c0.2-0.1,0.5,0,0.5,0l0,0l0,0c0,0-0.1,0.3-0.5,0.5c-0.3,0.2-0.5,0.4-0.6,0.5
				c0.1,0,0.3-0.1,0.4-0.1c0.2-0.1,0.5-0.3,0.5-0.3v0.1c0,0-0.3,0.2-0.5,0.3C101.1,77.5,100.8,77.5,100.7,77.5L100.7,77.5z M98.3,76
				c-0.1,0-0.2,0.1-0.2,0.2s0.1,0.2,0.2,0.2s0.2-0.1,0.2-0.2c0,0,0,0,0-0.1V76H98.3C98.4,76,98.4,76,98.3,76z M104.1,77.4
				L104.1,77.4l0.7-0.1v0.1H104.1z M105.1,77.3L105.1,77.3l0.6-0.1v0.1H105.1z M106.1,77.3L106.1,77.3l0.5-0.1v0.1H106.1z
				 M102.2,76.7L102.2,76.7l-0.1-0.3h0.5v0.1h-0.4V76.7z M103.6,76.4L103.6,76.4l2-0.1v0.1H103.6z M102.2,75.2
				c-0.2-0.3-0.2-0.7-0.2-0.7v-0.1l0.3,0.2v0.1l-0.2-0.1C102.1,74.7,102.1,75,102.2,75.2L102.2,75.2z M113.4,66.6L113.4,66.6
				c-0.1,0,0.2-0.6,0.3-0.9c0,0,0-0.1,0.1-0.1c-0.1,0-0.3,0-0.5-0.1l-0.1-0.1c-0.1,0-0.2-0.1-0.4-0.2c-0.5-0.2-1.3-0.6-1.8-0.7v-0.1
				c0.6,0.2,1.3,0.5,1.8,0.7c0.1,0.1,0.3,0.1,0.4,0.2l0.1,0.1c0.3,0.1,0.4,0.2,0.5,0c0-0.1,0.1-0.2,0-0.2c0-0.1-0.2-0.2-0.5-0.4
				c-0.2-0.1-0.4-0.1-0.6-0.2c-0.7-0.2-1.5-0.5-1.5-1.2h0.1c-0.1,0.6,0.7,0.9,1.4,1.1c0.2,0.1,0.5,0.1,0.7,0.2
				c0.3,0.1,0.5,0.3,0.5,0.4v0.1l0,0c0,0.1-0.1,0.1-0.1,0.1c0,0.1-0.1,0.1-0.1,0.1c0,0.1-0.1,0.1-0.1,0.1
				C113.6,66,113.4,66.6,113.4,66.6z"/>
		</g>
		<g id="path508">
			<path d="M104.2,101c-7.3,0-10.4-1.4-12.3-2.2c-0.2-0.1-0.3-0.1-0.5-0.2c-1.6-0.6-2.1-0.4-3,0.1c-0.2,0.1-0.3,0.2-0.5,0.2v-0.1
				c0.2-0.1,0.4-0.2,0.5-0.2c0.9-0.5,1.5-0.7,3.1-0.1c0.2,0.1,0.3,0.1,0.5,0.2C93.8,99.5,96.9,100.9,104.2,101
				c7-0.1,9.7-1.4,11.6-2.2c0.3-0.1,0.5-0.2,0.7-0.3c1.6-0.7,2.2-0.4,3.1,0.1c0.2,0.1,0.3,0.2,0.5,0.2v0.1c-0.2-0.1-0.4-0.2-0.5-0.2
				c-0.9-0.4-1.5-0.7-3-0.1c-0.2,0.1-0.5,0.2-0.7,0.3C114,99.7,111.2,101,104.2,101z M103.3,99c-4.1,0-6.5-0.6-10-1.9
				c-3-1.1-3.7-0.3-4.5,0.5c-0.2,0.2-0.4,0.5-0.7,0.7v-0.1c0.3-0.2,0.5-0.4,0.7-0.7c0.8-0.9,1.5-1.7,4.6-0.6c3.8,1.4,6.2,2,10.9,1.9
				c4.6,0.1,7.1-0.5,10.9-1.9c2.6-1,3.4-0.2,4.2,0.6c0.2,0.2,0.4,0.4,0.6,0.5v0.1c-0.2-0.2-0.4-0.4-0.6-0.5
				c-0.9-0.8-1.6-1.5-4.1-0.6c-3.8,1.4-6.3,2-10.9,1.9C103.9,99,103.6,99,103.3,99z M105.1,98.8L105.1,98.8L105.1,98.8
				c0.3-0.9,0.4-1.3,0.7-1.6c-0.1,0-0.1,0.1-0.2,0.1c-0.6,0.4-0.9,0.6-1.5,1.5l0,0l0,0c-0.6-0.9-0.9-1.1-1.5-1.5
				c-0.1,0-0.1-0.1-0.2-0.1c0.3,0.3,0.5,0.7,0.8,1.6l0,0h-0.1c-0.7-0.9-1-1.1-1.5-1.4c-0.2-0.1-0.3-0.2-0.5-0.3
				c0.4,0.7,0.7,1.6,0.7,1.7h-0.1c0,0-0.9-1.3-2-1.7c0.2,0.4,0.6,1.6,0.6,1.6h-0.1c-0.7-0.7-0.8-0.8-1.6-1.3
				c-0.1-0.1-0.3-0.2-0.5-0.3c0.4,0.5,0.7,1.3,0.7,1.4h-0.1c-1-1.3-2.9-1.7-4.9-1.3v-0.1c3.2-1.3,5.8-1.7,7.6-1.1v-0.3
				c-1,0.1-1.7,0-2.6-0.6V95c1.5,0.5,2.4,0.1,2.7,0c-0.4-0.1-2-0.5-2.6-0.7C98.4,94.2,98,94,98,93v-9c0-1.6-0.3-2.2-0.6-2.4
				c-0.2-0.2-0.4-0.1-0.4-0.1h-0.1l1.2-2l0,0c1.7,0.6,2.7,0.2,3.7-0.2c0.7-0.3,1.4-0.6,2.5-0.6s1.8,0.3,2.5,0.6
				c1,0.4,1.9,0.8,3.7,0.2l0,0l1.2,2h-0.1c0,0-0.2-0.1-0.4,0.1c-0.3,0.2-0.6,0.8-0.6,2.4v9c0,1-0.5,1.2-1.2,1.3
				c-0.6,0.2-2.2,0.6-2.6,0.7c0.3,0.1,1.2,0.5,2.7,0v0.1c-1,0.6-1.6,0.7-2.6,0.6V96c1.8-0.6,4.4-0.2,7.5,1.1v0.1
				c-2.1-0.5-3.9,0-4.9,1.3h-0.1c0,0,0.3-0.9,0.7-1.4c-0.2,0.1-0.3,0.2-0.5,0.3c-0.9,0.5-1,0.6-1.6,1.3h-0.1c0,0,0.5-1.2,0.6-1.6
				c-1.1,0.4-2,1.7-2,1.7h-0.1c0,0,0.3-0.9,0.7-1.7c-0.2,0.1-0.3,0.2-0.5,0.3C106.1,97.7,105.8,97.9,105.1,98.8z M103,96.8
				c0.5,0.5,0.9,1.1,1.2,1.8c0.2-0.6,0.5-1.1,0.9-1.5c-0.1-0.1-0.5-0.2-0.7-0.5c-0.1-0.1,0-0.3,0-0.4c0.1-0.2,0.2-0.4,0.1-0.5
				s-0.2-0.1-0.3-0.1v-0.1c0.2,0,0.3,0.1,0.4,0.2s0,0.3-0.1,0.6c-0.1,0.1-0.1,0.2,0,0.3c0.1,0.3,0.5,0.5,0.6,0.5
				c0.1-0.1,0.2-0.2,0.3-0.3c-0.2-0.2-0.3-0.3-0.3-0.5s0.2-0.3,0.4-0.5c0.2-0.1,0.3-0.1,0.4-0.1c0.2,0.1,0.3,0.4,0.4,0.5
				c0.1-0.1,0.2-0.1,0.4-0.1v-0.4l0,0c0.9,0.1,1.5,0,2.3-0.4c-1.6,0.4-2.5-0.2-2.5-0.2h-0.1h0.1c0,0,2-0.5,2.7-0.7s1.1-0.4,1.1-1.3
				V84c0-1.6,0.4-2.2,0.7-2.5c0.2-0.1,0.3-0.1,0.4-0.1l-1.1-1.8c-1.7,0.6-2.7,0.2-3.7-0.2c-0.7-0.3-1.4-0.6-2.4-0.6
				s-1.8,0.3-2.4,0.6c-1,0.4-1.9,0.8-3.7,0.2L97,81.4c0.1,0,0.2,0,0.4,0.1c0.3,0.2,0.7,0.8,0.7,2.5v9c0,0.9,0.4,1.1,1.1,1.3
				c0.7,0.2,2.7,0.7,2.7,0.7h0.1h-0.1c0,0-0.9,0.6-2.5,0.2c0.8,0.4,1.4,0.5,2.3,0.4l0,0v0.5c0.1,0,0.2,0.1,0.3,0.1l0,0
				c0-0.1,0.2-0.4,0.4-0.5c0.1,0,0.3,0,0.4,0.1c0.3,0.2,0.4,0.3,0.4,0.5C103.3,96.5,103.2,96.6,103,96.8z M106.2,96.8L106.2,96.8
				c-0.5,0.5-0.6,0.8-1,1.7c0.6-0.7,0.9-1,1.3-1.2c0.2-0.1,0.4-0.3,0.7-0.5l0.1,0.1c-0.3,0.5-0.6,1.2-0.7,1.6c0.3-0.4,1.1-1.2,2-1.5
				h0.1v0.1c-0.1,0.2-0.4,1-0.6,1.4c0.5-0.6,0.7-0.7,1.5-1.2c0.2-0.1,0.4-0.2,0.7-0.4l0.1,0.1c-0.3,0.3-0.6,1-0.7,1.3
				c1-1.1,2.6-1.5,4.4-1.2c-3.2-1.3-5.8-1.5-7.6-0.8c-0.9,0.4-1.6,1.1-2,2.1c0.5-0.7,0.8-0.9,1.3-1.2C105.8,97.1,106,97,106.2,96.8z
				 M101.2,96.9c0.3,0.2,0.5,0.3,0.7,0.5c0.4,0.3,0.8,0.5,1.3,1.2c-0.4-0.9-0.5-1.2-1-1.6v-0.1c0.2,0.2,0.4,0.3,0.6,0.4
				c0.5,0.3,0.8,0.5,1.3,1.2c-0.4-1-1.1-1.7-2-2.1c-1.7-0.8-4.3-0.5-7.6,0.8c1.8-0.3,3.4,0.1,4.4,1.2c-0.1-0.3-0.4-1-0.7-1.3
				l0.1-0.1c0.3,0.2,0.5,0.3,0.7,0.4c0.8,0.5,1,0.6,1.5,1.2c-0.2-0.4-0.5-1.2-0.6-1.4v-0.1h0.1c0.9,0.3,1.6,1.1,2,1.5
				C101.7,98.1,101.4,97.4,101.2,96.9L101.2,96.9z M102.2,96.3c0.3,0.1,0.5,0.3,0.8,0.5c0.2-0.2,0.3-0.3,0.3-0.5
				c0-0.1-0.1-0.2-0.4-0.4c-0.1-0.1-0.2-0.1-0.3-0.1C102.3,95.9,102.2,96.2,102.2,96.3z M105.8,95.8c-0.1,0-0.2,0-0.2,0.1
				c-0.3,0.2-0.4,0.3-0.4,0.4s0.1,0.2,0.3,0.4c0.2-0.2,0.5-0.3,0.8-0.5c0-0.1-0.1-0.3-0.3-0.4C105.9,95.8,105.9,95.8,105.8,95.8z
				 M98.6,92.7L98.6,92.7c0-0.1,0.6-0.2,1-0.2c0.2,0,0.3,0,0.5,0s0.4,0,0.7-0.1c0.3-0.1,0.6-0.1,0.9-0.1c0.2,0,0.5,0,0.8-0.1
				c0.5-0.1,1.5-0.1,1.7-0.2h0.1c0.2-0.1,0.4-0.1,0.9-0.2c0.2,0,0.3-0.1,0.3-0.1c-0.1,0-0.2-0.1-0.4-0.1c-0.1,0-0.2-0.1-0.2-0.1
				c-0.1,0-0.2-0.1-0.4-0.1c-0.2,0-0.2,0-0.2,0s-0.1,0-0.2,0c-0.3-0.1-0.4-0.1-0.4-0.1v-0.1c0,0,0.1,0,0.4,0.1c0.1,0,0.2,0,0.2,0
				s0.1,0,0.3,0c0.3,0,0.3,0.1,0.4,0.1s0.1,0.1,0.2,0.1c0.3,0.1,0.5,0.2,0.5,0.2c0.1,0,0.1,0,0.1,0.1c0,0,0,0.1-0.4,0.2
				c-0.5,0.1-0.7,0.2-0.9,0.2c-0.1,0-0.1,0-0.1,0c-0.3,0.1-1.2,0.2-1.8,0.2c-0.3,0-0.6,0-0.8,0.1c-0.3,0-0.6,0-0.9,0.1
				c-0.3,0-0.5,0.1-0.7,0.1s-0.3,0-0.5,0C99.2,92.6,98.6,92.7,98.6,92.7z M102.7,91.8L102.7,91.8c-0.2-0.2-0.3-0.1-0.4-0.1h-0.1
				v-0.1c0,0,0.1-0.6,0.1-0.8l0,0c0,0-0.3-0.1-0.4-0.1l0,0l0,0c0,0,0,0-0.1,0s-0.3,0-0.4,0s-0.2,0-0.2,0c-0.2,0-0.2,0-0.3,0
				c0,0-0.1,0-0.2-0.1c-0.2-0.1-0.2-0.1-0.3-0.1c0,0-0.1,0-0.2,0c-0.2,0-0.3-0.1-0.6-0.3l-0.1-0.1c-0.3-0.2-0.5-0.2-0.7-0.2h-0.1
				v-0.1h0.1c0.2,0,0.4,0,0.8,0.2l0.1,0.1c0.3,0.2,0.4,0.2,0.6,0.3c0.1,0,0.1,0,0.2,0s0.2,0,0.3,0.1c0.1,0,0.1,0.1,0.2,0.1
				s0.1,0,0.2,0s0.2,0,0.2,0c0.2,0,0.3,0,0.5,0c0,0,0,0,0.1,0h0.5c0.1-0.2,0.1-0.6,0.1-0.8c0-0.2,0-0.3,0.1-0.3c0-0.1,0-0.1,0-0.2
				s0-0.1,0-0.1l0,0c0,0,0,0,0-0.2c0-0.3-0.1-0.4-0.1-0.4c-0.1,0-0.3,0-0.5,0s-0.3-0.2-0.3-0.3v-0.6c0-0.1-0.1-0.3-0.1-0.4l0,0
				c0-0.1,0-0.3,0.1-0.3v-0.1l0.2,0.2c0,0,0.1,0.4,0.1,0.5s0.1,0.2,0.1,0.2l0.1,0.2h0.2c0,0,0.1-0.1,0.1-0.2l0.1-0.1h0.1
				c0,0,0,0,0-0.1c0,0,0,0,0-0.1s0-0.1,0-0.3c0.1-0.2,0.1-0.2,0.3-0.3h0.1c0.2-0.1,0.3,0,0.4,0.2l0,0c0.1,0.1,0,0.2,0,0.3v0.1
				c0,0.1,0,0.2-0.1,0.2c0.1,0.1,0.2,0.2,0.2,0.3c0,0.1,0,0.2,0.1,0.2c0,0,0.2,0.1,0.4,0.1c0.2,0,0.5,0,0.5,0l0,0l-0.1,0.2l0,0
				c0,0-0.1,0-0.2,0h-0.1c-0.1,0-0.2,0.1-0.3,0.1c-0.2,0-0.3,0-0.4,0l-0.1,0.3l0,0c0,0,0,0.2,0,0.3c0,0.1,0.1,0.6,0.1,1h6v0.1h-6
				c0,0.2,0,0.4,0,0.5c0,0.3,0.1,0.3,0.1,0.3h0.1h-0.1c0,0-0.2,0.1-0.5,0s-0.3-0.2-0.3-0.5l0,0l-0.3-0.1
				C102.8,91.2,102.7,91.7,102.7,91.8L102.7,91.8z M102.5,91.6c0.1,0,0.1,0,0.2,0.1c0-0.2,0.1-0.6,0.1-0.7s0.3-0.8,0.3-0.8h0.1
				c0,0,0,0.3,0,0.7c0,0.1,0,0.2,0,0.3c0,0.3,0,0.4,0.2,0.4s0.3,0,0.4,0c-0.1-0.1-0.1-0.2-0.1-0.3c0-0.3-0.1-1.5-0.1-1.6
				s0-0.4,0-0.4l0.1-0.4l0,0c0,0,0.2,0,0.4,0c0.1,0,0.2,0,0.3-0.1h0.1c0.1,0,0.1,0,0.2,0v-0.1c-0.1,0-0.3,0-0.5,0
				c-0.3,0-0.5-0.1-0.5-0.1l0,0c0,0-0.1-0.1-0.1-0.2s-0.2-0.3-0.2-0.3l0,0l0,0c0,0,0.1-0.1,0.1-0.2s0-0.1,0-0.1c0-0.1,0-0.1,0-0.2
				l0,0c-0.1-0.1-0.1-0.2-0.3-0.2h-0.1c-0.2,0-0.2,0-0.2,0.2c-0.1,0.2-0.1,0.2,0,0.2c0,0,0,0,0,0.1s0,0.2,0,0.2l0,0l0,0l-0.1-0.1
				l0,0c-0.1,0.1-0.1,0.2-0.1,0.2l0,0h-0.3l-0.1-0.3c0,0,0-0.1-0.1-0.3c0-0.1-0.1-0.4-0.1-0.5L102,87c0,0.1-0.1,0.2,0,0.2l0,0
				c0,0.1,0.1,0.3,0.1,0.4v0.6c0,0,0,0.2,0.2,0.2s0.5,0,0.5,0l0,0l0,0c0,0,0.1,0.1,0.1,0.5c0,0.1,0,0.2,0,0.2l0,0c0,0,0,0,0,0.1
				s0,0.1,0,0.2s0,0.1-0.1,0.3c0,0.4-0.1,0.9-0.2,1.1c0,0.1-0.1,0.6-0.1,0.7C102.4,91.6,102.4,91.6,102.5,91.6z M102.9,90.9l0.2,0.1
				c0-0.1,0-0.1,0-0.2v-0.1h-0.2C102.9,90.8,102.9,90.9,102.9,90.9z M102.1,90.7c0.1,0,0.2,0,0.2,0.1c0,0,0,0,0-0.1H102.1z
				 M103,90.6L103,90.6c0.1-0.1,0.1-0.2,0.1-0.3C103,90.4,103,90.5,103,90.6z"/>
		</g>
		<g id="path510">
			<path d="M104.2,106c-8.5,0-12.4-3.7-16.3-7.2l0.1-0.1C91.8,102.3,95.8,105.9,104.2,106c7.9-0.2,11.5-3.5,15.4-7l0.3-0.3l0.1,0.1
				l-0.3,0.3C115.9,102.5,112.2,105.9,104.2,106z M103.6,103.4c-6,0-9.4-2.7-11.7-4.6l0,0l0.1-0.1l0,0c2.3,1.9,5.9,4.7,12.2,4.5
				c5.9,0.2,9-2.3,11.2-4.2c0.2-0.1,0.3-0.3,0.5-0.4l0.1,0.1c-0.2,0.1-0.3,0.3-0.5,0.4c-2.3,1.8-5.3,4.4-11.3,4.2
				C104,103.4,103.8,103.4,103.6,103.4z M103,67.8c-0.4-0.2-0.7-0.2-0.7-0.2v-0.1C102.2,67.5,102.5,67.5,103,67.8L103,67.8z"/>
		</g>
	</g>
</g>
<g>
	<path opacity="0.2" enable-background="new    " d="M10.4,74.3V25.8c0-12.1,8.2-22.7,19.8-25.8H0v100h30.2
		C18.5,96.9,10.4,86.3,10.4,74.3z"/>
	<path opacity="0.1" fill="#FFFFFF" enable-background="new    " d="M89.6,25.8v48.5c0,12.1-8.2,22.7-19.8,25.8H100V0H69.8
		C81.5,3.1,89.6,13.7,89.6,25.8z"/>
</g>
</svg>
