<?xml version="1.0" encoding="utf-8"?>
<!-- Generator: Adobe Illustrator 23.0.0, SVG Export Plug-In . SVG Version: 6.00 Build 0)  -->
<svg version="1.0" id="Layer_1" xmlns="http://www.w3.org/2000/svg" xmlns:xlink="http://www.w3.org/1999/xlink" x="0px" y="0px"
	 viewBox="0 0 100 100" enable-background="new 0 0 100 100" xml:space="preserve">
<path d="M0,0h100v100H0V0z"/>
<path fill="#EAAA00" d="M0,100V8.3l8.3,8.3V100h8.3V0H25v100h8.3V0h8.3v100H50V0h8.3v100h8.3V0H75v100h8.3V0h8.3v100h8.3v-8.3L8.3,0
	v16.7L91.7,100H0z"/>
<g>
	<g id="l">
		<g>
			<path fill="#FFFFFF" d="M0,50h25v50h25V75H0V50z"/>
			<path fill="#9D2235" d="M25,50h25v25H0v25h25V50z"/>
		</g>
	</g>
	<path fill="#9D2235" d="M25,96.5c1.2,0,2.1-1.4,2.1-3.2v-1.6h2.1c1.2,0,2.1-1.4,2.1-3.2s-1-3.2-2.1-3.2h-2.1v-7.1h13.3v3.1
		c0,1.8,1,3.2,2.1,3.2s2.1-1.4,2.1-3.2v-3.1h1.9c1.2,0,2.1-1.4,2.1-3.2H25V96.5z"/>
	<path fill="#FFFFFF" d="M25,96.5c-1.2,0-2.1-1.4-2.1-3.2v-1.6h-2.1c-1.2,0-2.1-1.4-2.1-3.2s1-3.2,2.1-3.2h2.1v-7.1H9.6v3.1
		c0,1.8-1,3.2-2.1,3.2c-1.2,0-2.1-1.4-2.1-3.2v-3.1H3.5c-1.2,0-2.1-1.4-2.1-3.2H25V96.5z"/>
	<path fill="#FFFFFF" d="M25,53.5c1.2,0,2.1,1.4,2.1,3.2v1.6h2.1c1.2,0,2.1,1.4,2.1,3.2s-1,3.2-2.1,3.2h-2.1v7.1h13.3v-3.1
		c0-1.8,1-3.2,2.1-3.2s2.1,1.4,2.1,3.2v3.1h1.9c1.2,0,2.1,1.4,2.1,3.2H25V53.5z"/>
	<path fill="#9D2235" d="M25,53.5c-1.2,0-2.1,1.4-2.1,3.2v1.6h-2.1c-1.2,0-2.1,1.4-2.1,3.2s1,3.2,2.1,3.2h2.1v7.1H9.6v-3.1
		c0-1.8-1-3.2-2.1-3.2c-1.2,0-2.1,1.4-2.1,3.2v3.1H3.5c-1.2,0-2.1,1.4-2.1,3.2H25V53.5z"/>
</g>
<g>
	<g id="l_1_">
		<g>
			<path fill="#FFFFFF" d="M50,0h25v50h25V25H50V0z"/>
			<path fill="#9D2235" d="M75,0h25v25H50v25h25V0z"/>
		</g>
	</g>
	<path fill="#9D2235" d="M75,46.5c1.2,0,2.1-1.4,2.1-3.2v-1.6h2.1c1.2,0,2.1-1.4,2.1-3.2s-1-3.2-2.1-3.2h-2.1v-7.1h13.3v3.1
		c0,1.8,1,3.2,2.1,3.2s2.1-1.4,2.1-3.2v-3.1h1.9c1.2,0,2.1-1.4,2.1-3.2H75V46.5z"/>
	<path fill="#FFFFFF" d="M75,46.5c-1.2,0-2.1-1.4-2.1-3.2v-1.6h-2.1c-1.2,0-2.1-1.4-2.1-3.2s1-3.2,2.1-3.2h2.1v-7.1H59.6v3.1
		c0,1.8-1,3.2-2.1,3.2s-2.1-1.4-2.1-3.2v-3.1h-1.9c-1.2,0-2.1-1.4-2.1-3.2H75V46.5z"/>
	<path fill="#FFFFFF" d="M75,3.5c1.2,0,2.1,1.4,2.1,3.2v1.6h2.1c1.2,0,2.1,1.4,2.1,3.2s-1,3.2-2.1,3.2h-2.1v7.1h13.3v-3.1
		c0-1.8,1-3.2,2.1-3.2s2.1,1.4,2.1,3.2v3.1h1.9c1.2,0,2.1,1.4,2.1,3.2H75V3.5z"/>
	<path fill="#9D2235" d="M75,3.5c-1.2,0-2.1,1.4-2.1,3.2v1.6h-2.1c-1.2,0-2.1,1.4-2.1,3.2s1,3.2,2.1,3.2h2.1v7.1H59.6v-3.1
		c0-1.8-1-3.2-2.1-3.2s-2.1,1.4-2.1,3.2v3.1h-1.9c-1.2,0-2.1,1.4-2.1,3.2H75V3.5z"/>
</g>
<g>
	<path opacity="0.2" enable-background="new    " d="M10.4,74.3V25.8c0-12.1,8.2-22.7,19.8-25.8H0v100h30.2
		C18.5,96.9,10.4,86.3,10.4,74.3z"/>
	<path opacity="0.1" fill="#FFFFFF" enable-background="new    " d="M89.6,25.8v48.5c0,12.1-8.2,22.7-19.8,25.8H100V0H69.8
		C81.5,3.1,89.6,13.7,89.6,25.8z"/>
</g>
</svg>
