<?xml version="1.0" encoding="utf-8"?>
<!-- Generator: Adobe Illustrator 23.0.0, SVG Export Plug-In . SVG Version: 6.00 Build 0)  -->
<svg version="1.0" id="Layer_1" xmlns="http://www.w3.org/2000/svg" xmlns:xlink="http://www.w3.org/1999/xlink" x="0px" y="0px"
	 viewBox="0 0 100 100" enable-background="new 0 0 100 100" xml:space="preserve">
<path fill="#BA0C2F" d="M0,0h100v100H0V0z"/>
<path fill="#D69A2D" d="M20.8,0h58.3v100H20.8V0z"/>
<path fill="#041E42" d="M25,0h50v100H25V0z"/>
<path fill="#D69A2D" d="M47.6,31.3h1.6l0.5,0.7l-0.8,0.3L47.6,31.3 M52.3,31.3h-1.6L50.2,32l0.8,0.3L52.3,31.3 M50,29.6l0.5,1.6
	L50,31.9l-0.5-0.7L50,29.6 M51.4,34.1l-1.3-1v-0.9l0.8,0.3L51.4,34.1 M48.5,34.1l1.3-1v-0.9L49,32.5L48.5,34.1"/>
<path fill="#FFFFFF" d="M33.4,38.7l1.1,0.4l0.7-1v1.2l1.1,0.4l-1,0.3v1.2l-0.7-1l-1.1,0.4l0.7-1L33.4,38.7 M31.2,42.7l1.2,0.1
	l0.5-1.1l0.3,1.2l1.2,0.1l-1,0.6l0.3,1.2L32.8,44l-1,0.6l0.5-1.1L31.2,42.7 M31.2,45.7l0.5,1.1l1.2-0.2L32,47.4l0.5,1.1l-1-0.5
	l-0.9,0.8l0.2-1.2L29.7,47l1.2-0.2L31.2,45.7 M29.5,51.6l1.1-0.4V50l0.8,0.9l1.1-0.4l-0.6,1l0.8,0.9l-1.2-0.3l-0.7,1l-0.1-1.2
	L29.5,51.6 M30.2,56.1l1-0.7l-0.3-1.1l0.9,0.7l1-0.7l-0.4,1.1l0.9,0.7h-1.2l-0.4,1.1l-0.3-1.1H30.2 M32.2,58.5l1.1,0.5l0.8-0.9
	l-0.2,1.2l1.1,0.5L33.8,60l-0.2,1.2l-0.6-1l-1.2,0.2l0.8-0.9L32.2,58.5 M34.4,62.3l1.2,0.3l0.6-1l0.1,1.2l1.2,0.3l-1.1,0.5l0.1,1.2
	l-0.8-0.9l-1.1,0.5l0.6-1L34.4,62.3 M44.5,31l0.7,1l1.2-0.3l-0.7,0.9l0.7,1l-1.1-0.4l-0.7,0.9v-1.2l-1.1-0.4l1.2-0.3L44.5,31
	 M40.3,32.7l0.9,0.8l1-0.6L41.7,34l0.9,0.8l-1.2-0.2l-0.5,1.1l-0.2-1.2l-1.2-0.2l1.1-0.6L40.3,32.7 M38.5,35.2l-0.3,1.2l1,0.6H38
	l-0.3,1.2l-0.4-1.1l-1.2,0.1l0.9-0.8l-0.4-1.1l1,0.6L38.5,35.2 M66.6,38.7l-1.1,0.4l-0.7-1v1.2l-1.1,0.4l1.1,0.4v1.2l0.7-1l1.1,0.4
	l-0.7-1L66.6,38.7 M68.8,42.7l-1.2,0.1l-0.5-1.1l-0.3,1.2L65.7,43l1,0.6l-0.3,1.2l0.9-0.8l1,0.6l-0.5-1.1L68.8,42.7 M68.8,45.7
	l-0.5,1.1l-1.2-0.2l0.9,0.8l-0.5,1.1l1.1-0.6l0.9,0.8l-0.2-1.2l1.1-0.6l-1.4,0L68.8,45.7 M70.5,51.6l-1.1-0.4l0.1-1.2l-0.8,0.9
	l-1.1-0.4l0.6,1l-0.8,0.9l1.2-0.3l0.7,1l0.1-1.2L70.5,51.6 M69.8,56.1l-1-0.7l0.3-1.1L68.2,55l-1-0.7l0.4,1.1l-0.9,0.7h1.2l0.4,1.1
	l0.3-1.1H69.8 M67.8,58.5l-1,0.5L66,58.1l0.2,1.2L65,59.8l1.2,0.2l0.2,1.2l0.6-1l1.2,0.2l-0.8-0.9L67.8,58.5 M65.6,62.3l-1.2,0.3
	l-0.6-1l-0.1,1.2L62.6,63l1.1,0.5l-0.1,1.2l0.8-0.9l1.1,0.5l-0.6-1L65.6,62.3 M55.5,31l-0.7,1l-1.2-0.3l0.7,0.9l-0.7,1l1.1-0.4
	l0.7,0.9v-1.2l1.1-0.4l-1.2-0.3L55.5,31 M59.7,32.7l-0.9,0.8l-1-0.6l0.5,1.1l-0.9,0.8l1.2-0.2l0.5,1.1l0.2-1.2l1.2-0.2l-1.1-0.6
	L59.7,32.7 M61.5,35.2l0.3,1.2l-1,0.6H62l0.3,1.2l0.4-1.1l1.2,0.1L63,36.4l0.4-1.1l-1,0.6L61.5,35.2 M37.7,66L37.7,66
	c0.1,0,0.2,0,0.2-0.1c0.1,0,0.2-0.2,0.3-0.3c0,0,0-0.1,0.1-0.1c0.2-0.2,0.3-0.4,0.5-0.6c0-0.1,0.1-0.1,0.1-0.1v-0.1l0,0
	c0.1,0.1,0.1,0.1,0.2,0.1l0.1,0.1c0,0,0.1,0,0.1,0.1s0.1,0.1,0.2,0.1l0,0h-0.1c0,0-0.1,0-0.1,0.1c-0.2,0.2-0.4,0.5-0.5,0.7
	s-0.2,0.3-0.3,0.4c0,0.1,0,0.2,0,0.2l0,0l-0.1-0.1c-0.1,0-0.1-0.1-0.2-0.1c-0.1,0-0.1-0.1-0.2-0.1C37.8,66.1,37.7,66.1,37.7,66
	 M39.5,65.7c-0.1,0.2-0.2,0.3-0.3,0.5c-0.2,0.3-0.3,0.4-0.3,0.5s0,0.2,0.1,0.3l0,0l-0.1-0.1l-0.1-0.1c-0.1,0-0.1-0.1-0.1-0.1
	l-0.1-0.1l0,0c0.1,0,0.2,0,0.3-0.1s0.2-0.2,0.4-0.5C39.2,65.9,39.3,65.8,39.5,65.7c0-0.2,0-0.2,0-0.3c0-0.1,0-0.1-0.1-0.2l0,0
	c0,0,0.1,0,0.1,0.1c0.1,0,0.1,0.1,0.2,0.1c0,0,0.1,0,0.1,0.1c0,0,0.1,0,0.1,0.1c0,0.4,0.1,0.9,0.1,1.3c0-0.1,0.1-0.1,0.1-0.2
	c0.2-0.3,0.3-0.4,0.3-0.5s0-0.2-0.1-0.3l0,0c0,0,0.1,0,0.1,0.1c0,0,0.1,0.1,0.2,0.1c0.1,0,0.1,0.1,0.2,0.1c0,0,0.1,0,0.1,0.1l0,0
	c-0.1,0-0.2,0-0.3,0.1s-0.2,0.2-0.4,0.5s-0.4,0.6-0.6,0.9l0,0C39.6,66.9,39.6,66.3,39.5,65.7 M43.1,68.1L43.1,68.1
	c-0.1,0-0.1,0-0.2,0.1c0,0.1-0.1,0.2-0.2,0.4c0,0,0,0,0,0.1v0.1c-0.1,0-0.3,0-0.4,0c-0.1,0-0.3,0-0.4-0.1c-0.1,0-0.2-0.1-0.3-0.2
	s-0.1-0.2-0.2-0.3c0-0.1-0.1-0.2-0.1-0.4c0-0.1,0-0.2,0.1-0.4c0-0.1,0.1-0.2,0.2-0.3c0.1-0.1,0.2-0.2,0.3-0.2
	c0.1-0.1,0.2-0.1,0.4-0.1c0.1,0,0.3,0,0.4,0.1c0.1,0,0.2,0.1,0.3,0.2s0.2,0.2,0.3,0.3c-0.1,0.1-0.2,0.3-0.3,0.4l0,0
	c0-0.2,0-0.3,0-0.5c0-0.1-0.1-0.2-0.2-0.2c-0.1-0.1-0.3,0-0.4,0.1c-0.1,0.1-0.3,0.3-0.4,0.5c-0.1,0.2-0.1,0.4-0.1,0.6
	s0.1,0.3,0.2,0.3c0.1,0,0.2,0,0.2,0c0.1,0,0.1-0.1,0.2-0.2c0.1-0.2,0.1-0.3,0.1-0.3c0-0.1,0-0.1-0.1-0.2l0,0c0.1,0,0.1,0.1,0.2,0.1
	c0.1,0,0.1,0.1,0.2,0.1C43,68.1,43,68.1,43.1,68.1C43,68.1,43,68.1,43.1,68.1 M43.9,69.4c0.1,0,0.2,0,0.4-0.1
	c0.1-0.1,0.2-0.3,0.3-0.6c0.1-0.3,0.1-0.5,0.1-0.6c0-0.2-0.1-0.3-0.2-0.3c-0.1,0-0.2,0-0.3,0.1s-0.2,0.3-0.3,0.6
	c-0.1,0.3-0.1,0.5-0.1,0.6C43.7,69.3,43.8,69.4,43.9,69.4L43.9,69.4z M43.3,68.3c0-0.1,0.1-0.2,0.2-0.3c0.1-0.1,0.2-0.2,0.3-0.2
	s0.2-0.1,0.3-0.1s0.2,0,0.3,0s0.2,0.1,0.3,0.2s0.2,0.2,0.2,0.3c0.1,0.1,0.1,0.2,0.1,0.4c0,0.1,0,0.3-0.1,0.4c0,0.1-0.1,0.2-0.1,0.3
	c-0.1,0.1-0.1,0.1-0.2,0.2c-0.1,0.1-0.3,0.2-0.4,0.2c-0.1,0-0.3,0-0.4,0c-0.1,0-0.2-0.1-0.3-0.2s-0.2-0.2-0.2-0.3
	c-0.1-0.1-0.1-0.2-0.1-0.4C43.3,68.6,43.3,68.5,43.3,68.3 M46.1,68.3c-0.1,0.4-0.2,0.8-0.2,1.2c0,0.2,0,0.3,0,0.3
	c0,0.1,0.1,0.1,0.1,0.1c0.1,0,0.3,0,0.4-0.1c0.1-0.1,0.2-0.3,0.2-0.6c0.1-0.3,0.1-0.5,0-0.6c0-0.1-0.1-0.2-0.3-0.3
	C46.2,68.3,46.2,68.3,46.1,68.3L46.1,68.3L46.1,68.3z M45.1,69.8L45.1,69.8c0.1-0.1,0.1-0.1,0.2-0.2c0-0.1,0.1-0.2,0.1-0.5V69
	c0.1-0.3,0.1-0.5,0.2-0.8c0-0.1,0-0.1,0-0.2c0,0,0-0.1-0.1-0.1l0,0c0.1,0,0.1,0,0.2,0.1c0.1,0,0.1,0,0.2,0c0.1,0,0.1,0,0.2,0
	c0.1,0,0.1,0,0.2,0c0.3,0.1,0.5,0.2,0.6,0.4c0.1,0.2,0.2,0.4,0.1,0.7c-0.1,0.3-0.2,0.5-0.4,0.6C46.4,70,46.2,70,45.9,70
	c0,0-0.1,0-0.2,0c-0.1,0-0.2,0-0.2-0.1h-0.1C45.3,69.8,45.2,69.8,45.1,69.8 M50.5,68.6L50.5,68.6c-0.1,0.1-0.1,0.1-0.2,0.2
	c-0.1,0.1-0.1,0.2-0.2,0.4c-0.2,0.4-0.4,0.8-0.5,1.3l0,0c-0.1-0.4-0.2-0.8-0.4-1.2c-0.2,0.4-0.3,0.8-0.5,1.2l0,0
	c-0.1-0.5-0.3-1-0.5-1.5c0-0.1-0.1-0.2-0.1-0.3L48,68.6l0,0c0,0,0,0,0.1,0s0.2,0,0.3,0s0.2,0,0.4,0h0.1l0,0h-0.1v0.1v0.1v0.1
	c0.1,0.2,0.1,0.5,0.2,0.7c0.2-0.4,0.3-0.8,0.5-1.1l0,0c0.1,0.4,0.3,0.8,0.4,1.2c0-0.1,0.1-0.2,0.1-0.4c0-0.1,0.1-0.2,0.1-0.3
	c0-0.1,0-0.1,0-0.2s0-0.1,0-0.2L50,68.5l0,0c0.1,0,0.1,0,0.2,0c0.1,0,0.1,0,0.2,0h0.1C50.4,68.6,50.5,68.6,50.5,68.6 M50.8,70.4
	L50.8,70.4c0.1-0.1,0.1-0.1,0.1-0.2s0-0.2,0-0.4l-0.1-1c0-0.1,0-0.1,0-0.2c0,0,0,0-0.1-0.1l0,0c0.1,0,0.2,0,0.3,0s0.2,0,0.3,0
	c0.2,0,0.5,0,0.7-0.1c0,0.2,0.1,0.3,0.1,0.5l0,0c-0.1-0.1-0.2-0.2-0.4-0.3c-0.1-0.1-0.2-0.1-0.4-0.1l0,0l0,0c0,0.2,0,0.5,0.1,0.7
	c0,0,0,0,0.1,0l0,0c0.1,0,0.2,0,0.3-0.1s0.1-0.1,0.1-0.2l0,0c0,0.2,0,0.5,0.1,0.7l0,0c0-0.1-0.1-0.2-0.2-0.2c-0.1,0-0.2-0.1-0.3,0
	l0,0c0,0,0,0-0.1,0c0,0.1,0,0.3,0,0.4s0,0.2,0.1,0.3c0,0.1,0.1,0.1,0.2,0.1c0.1,0,0.2-0.1,0.3-0.2s0.2-0.2,0.3-0.4l0,0
	c0,0.2-0.1,0.4-0.1,0.6c-0.3,0-0.5,0-0.8,0.1c-0.1,0-0.1,0-0.3,0C51.1,70.4,51,70.4,50.8,70.4 M54,70C54,70,54,69.9,54,70
	c0-0.1,0.1-0.2,0.1-0.2c0-0.1,0-0.2-0.1-0.5v-0.1c-0.1-0.3-0.1-0.5-0.2-0.8v-0.1l0,0c-0.1,0-0.1,0.1-0.2,0.2
	c-0.1,0.1-0.1,0.2-0.2,0.3l0,0c0-0.2,0-0.3,0-0.5c0.5-0.1,0.9-0.2,1.4-0.3c0.1,0.2,0.1,0.3,0.2,0.5l0,0c-0.1-0.1-0.2-0.2-0.3-0.2
	c-0.1-0.1-0.2-0.1-0.2-0.1l0,0c0,0,0,0,0,0.1c0,0,0,0,0,0.1c0.1,0.3,0.1,0.6,0.2,0.8c0.1,0.2,0.1,0.4,0.1,0.4c0,0.1,0.1,0.1,0.2,0.1
	l0,0c-0.1,0-0.1,0-0.2,0c-0.1,0-0.1,0-0.2,0c-0.1,0-0.1,0-0.2,0C54.1,69.9,54,70,54,70 M55.5,69.6L55.5,69.6c0-0.1,0.1-0.2,0.1-0.2
	c0-0.1,0-0.2-0.1-0.4v-0.1c-0.1-0.2-0.2-0.5-0.3-0.7c0-0.1-0.1-0.1-0.1-0.1H55l0,0c0.1,0,0.1,0,0.2-0.1c0.1,0,0.2-0.1,0.3-0.1
	s0.1,0,0.2-0.1c0.3-0.1,0.5-0.1,0.6-0.1s0.2,0.1,0.3,0.3c0,0.1,0,0.2,0,0.3c-0.1,0.1-0.2,0.2-0.3,0.3c0.1,0,0.2,0,0.3,0
	s0.2,0.1,0.2,0.2l0.1,0.1c0.2,0.2,0.3,0.3,0.4,0.3l0,0C57.2,69,57.1,69,57,69s-0.1,0-0.2,0.1c-0.1,0-0.1,0-0.1,0.1h-0.1l-0.1-0.1
	c-0.3-0.4-0.5-0.6-0.6-0.5l0,0l0,0c0,0.1,0,0.1,0.1,0.2c0.1,0.2,0.1,0.4,0.2,0.4c0,0.1,0.1,0.1,0.2,0.1l0,0c-0.1,0-0.1,0-0.2,0.1
	c-0.1,0-0.1,0-0.2,0.1c-0.1,0-0.1,0-0.2,0.1C55.6,69.5,55.6,69.6,55.5,69.6L55.5,69.6z M55.8,68.4L55.8,68.4
	C55.9,68.4,55.9,68.4,55.8,68.4c0.2,0,0.3-0.1,0.3-0.2s0-0.2,0-0.3c0-0.1-0.1-0.2-0.2-0.2c-0.1,0-0.1,0-0.2,0h-0.1c0,0,0,0-0.1,0
	L55.8,68.4 M56.7,67.4C56.7,67.4,56.7,67.3,56.7,67.4c0.1-0.1,0.2-0.1,0.2-0.1c0.1,0,0.1,0,0.1-0.1c0.1,0,0.2-0.1,0.4-0.2l0,0l0,0
	c0,0.1-0.1,0.1,0,0.2c0,0.1,0.1,0.2,0.2,0.4v0.1c0,0.1,0.1,0.2,0.1,0.3c0.1,0.2,0.2,0.3,0.3,0.4s0.2,0.1,0.3,0
	c0.1,0,0.1-0.1,0.1-0.1c0-0.1,0.1-0.1,0.1-0.2c0,0,0-0.1,0-0.2s0-0.1-0.1-0.2c0-0.1-0.1-0.1-0.1-0.2c-0.1-0.3-0.2-0.4-0.3-0.5
	s-0.2-0.1-0.3-0.1l0,0h0.1c0,0,0.1,0,0.2-0.1c0.1,0,0.1-0.1,0.2-0.1c0,0,0.1,0,0.1-0.1l0,0c-0.1,0.1-0.1,0.2-0.1,0.3
	c0,0.1,0.1,0.3,0.2,0.6c0,0.1,0.1,0.1,0.1,0.2c0.1,0.2,0.1,0.4,0.1,0.6s-0.2,0.3-0.4,0.4s-0.4,0.1-0.5,0.1c-0.1-0.1-0.3-0.2-0.4-0.4
	c-0.1-0.1-0.1-0.2-0.2-0.4c-0.1-0.3-0.2-0.4-0.3-0.5C56.9,67.4,56.8,67.4,56.7,67.4 M59.4,68c-0.1-0.2-0.1-0.3-0.2-0.5l0,0
	c0.1,0.1,0.2,0.2,0.4,0.2c0.1,0,0.2,0,0.3-0.1s0.1-0.1,0.1-0.2s0-0.2-0.1-0.3c0.1,0,0.1-0.1,0-0.1s-0.2,0-0.2,0s0,0-0.1,0
	c-0.2,0.1-0.3,0.1-0.4,0.1c-0.1,0-0.1,0-0.2-0.1c-0.1,0-0.1-0.1-0.2-0.2c-0.1-0.1-0.1-0.3-0.1-0.5s0.2-0.3,0.3-0.4s0.2-0.1,0.3-0.1
	s0.2-0.1,0.3-0.1c0,0.1,0.1,0.3,0.1,0.4l0,0c-0.1-0.1-0.2-0.2-0.3-0.2s-0.2,0-0.3,0.1C59,66,59,66.1,59,66.2s0,0.1,0.1,0.2
	c0,0.1,0.1,0.1,0.2,0.1c0.1,0,0.2,0,0.3-0.1c0.2-0.1,0.3-0.1,0.5-0.1c0.1,0,0.2,0.1,0.3,0.2c0.1,0.2,0.1,0.3,0.1,0.5
	s-0.2,0.3-0.4,0.5c-0.1,0.1-0.2,0.1-0.3,0.2C59.6,67.9,59.5,68,59.4,68 M61.4,66.8C61.3,66.8,61.3,66.8,61.4,66.8c0-0.1,0-0.2,0-0.2
	c0-0.1-0.1-0.2-0.2-0.4c0,0,0-0.1-0.1-0.1c-0.2-0.2-0.3-0.4-0.5-0.7l0,0l0,0c0,0-0.1,0.1-0.1,0.2s0,0.2,0,0.4l0,0
	c-0.1-0.2-0.1-0.3-0.2-0.5c0.4-0.3,0.8-0.6,1.1-0.8c0.1,0.1,0.3,0.2,0.4,0.3l0,0c-0.1,0-0.3-0.1-0.4-0.1c-0.1,0-0.2,0-0.2,0l0,0
	c0,0,0,0,0,0.1v0.1c0.2,0.2,0.3,0.5,0.5,0.7c0.1,0.2,0.2,0.3,0.3,0.4c0.1,0,0.1,0.1,0.2,0.1l0,0c-0.1,0-0.1,0.1-0.2,0.1
	c-0.1,0-0.1,0.1-0.2,0.1c-0.1,0-0.1,0.1-0.2,0.1C61.4,66.7,61.4,66.7,61.4,66.8 M59.8,55.4h0.3c0,0,0.3,0,0.6,0
	c0.2,0,0.5-0.1,0.6-0.1s0.2-0.1,0.2-0.1l0.2-0.1l0.1-0.1c0.2-0.1,0.4-0.3,0.5-0.5c0.3-0.4,0.4-0.8,0.2-1.3c-0.1-0.4-0.4-0.8-0.8-1.2
	c-0.3-0.2-0.5-0.4-0.8-0.6h-0.1c-0.1,0-0.2-0.1-0.4-0.1c-0.1,0-0.2,0-0.2-0.1c-0.1,0-0.1,0-0.2,0c-0.1,0-0.2,0-0.2,0
	c-0.1,0-0.1,0-0.2,0h-0.3h-0.4c-0.1,0-0.3,0-0.4,0.1c-0.5,0.1-1.1,0.3-1.6,0.4c-0.7,0.2-1.5,0.5-2.2,0.7c-0.2,0-0.3,0.1-0.5,0.1
	c-0.1,0.1-0.1,0.1-0.2,0.2c-0.3,0.4-0.6,0.7-1,1c-0.1,0.1-0.2,0.1-0.2,0.2l0.1,0.1c0.3,0.3,0.7,0.5,1.1,0.7c0.2,0.1,0.4,0.2,0.6,0.2
	c0.2,0,0.4,0.1,0.6,0.1l0.8,0h0.7l1,0.1c0,0,0.5,0.1,0.8,0.1c0.6,0.1,0.3,0.2,0,0.2h-0.8l-1-0.1c-0.2,0-0.4,0-0.7,0l-0.7-0.1
	c-0.2,0-0.5-0.1-0.7-0.1C54.4,55,54.2,55,54,54.9c-0.2-0.1-0.5-0.2-0.7-0.4c0.1,0.2,0.3,0.4,0.4,0.6c0.5,0.6,1.2,0.9,1.9,1.1
	c0.7,0.2,1.5,0.1,2.2,0c0.2,0,0.4-0.1,0.6-0.2c0.2-0.1,0.4-0.1,0.7-0.2c0.2-0.1,0.5-0.1,0.7-0.2c0.1,0,0.2,0,0.3-0.1
	C60,55.5,59.9,55.5,59.8,55.4C59.6,55.4,59.7,55.4,59.8,55.4 M42.1,55.5l-0.4,0.1h-0.4h0.1c0.2,0.1,0.3,0.1,0.4,0.2
	c0.1,0,0.2,0.1,0.2,0.1l0.2,0.1c0.1,0,0.1,0,0.3,0.1c0.1,0,0.3,0.1,0.4,0.1c0.1,0,0.3,0,0.4,0c0.6,0,1.2-0.2,1.8-0.4
	c0.6-0.3,1.1-0.6,1.6-1.1c-0.7,0.4-1.5,0.6-2.2,0.7c-0.1,0-0.2,0-0.3,0c0,0-0.5,0-0.8,0c-0.6,0-0.4-0.1,0-0.2c0,0,0.2,0,0.4-0.1
	c0.2,0,0.4-0.1,0.4-0.1h0.2h0.2c0.1,0,0.3-0.1,0.4-0.1c0.3-0.1,0.6-0.1,0.8-0.2c0.3-0.1,0.7-0.3,1-0.4l-0.1-0.1
	c-0.2-0.2-0.3-0.4-0.5-0.6c-0.1,0-0.1,0-0.2,0h-0.3c-0.2,0-0.4,0-0.5,0s-0.2,0-0.3,0c0,0-0.5-0.1-0.8-0.2c-0.6-0.2-0.3-0.2,0-0.2
	c0,0,0.2,0,0.4,0s0.4,0,0.4,0c0.1,0,0.2,0,0.2,0c0.2,0,0.3,0,0.5,0h0.2h0.1c-0.1-0.1-0.1-0.2-0.2-0.3l-0.2-0.3l-0.1-0.2
	c0,0,0,0-0.1-0.1c0-0.1-0.1-0.2-0.1-0.3l0,0c-0.6-0.1-1.1-0.2-1.7-0.3c-0.2,0-0.3-0.1-0.5-0.2c-0.2-0.1-0.3-0.1-0.5-0.2
	c-0.2-0.1-0.4-0.2-0.6-0.3h-0.1c-0.4,0-0.9-0.1-1.3-0.1c-0.4,0-0.9,0.1-1.3,0.3c-0.4,0.1-0.9,0.3-1.2,0.6c-0.4,0.3-0.7,0.6-0.7,1.1
	c0,0.4,0.2,0.9,0.5,1.2c0.3,0.4,0.7,0.6,1.2,0.7c0.4,0.1,0.8,0.2,1.2,0.3l0,0c0,0,0.1,0,0.2,0c0.1,0,0.3,0,0.5,0h0.7
	c0,0,0.2,0,0.4,0.1C42.4,55.4,42.3,55.5,42.1,55.5 M53.3,55.4l-0.2-0.2l-0.2-0.3l-0.3-0.5c0-0.1-0.1-0.1-0.1-0.2
	c-0.5,0.4-1.1,0.7-1.7,0.9c0,0.1,0,0.2,0,0.3c0,0.2,0,0.5,0,0.5s0,0,0,0.1s0,0.1-0.1,0.2c-0.1,0.2-0.2,0-0.2,0V56c0,0,0-0.2,0-0.4
	c0-0.1,0-0.2,0-0.2c-0.2,0-0.3,0.1-0.5,0.1c0,0.2,0,0.3,0,0.5s0,0.5-0.1,0.7c0,0.1,0,0.2-0.1,0.3c0,0,0,0,0,0.1c0,0,0,0.1-0.1,0.2
	c-0.1,0.2-0.2,0.3-0.3,0.5s-0.2,0.2-0.3,0.3l0,0c0,0,0-0.1,0.1-0.2l0.4-1.8l0,0c0-0.2,0-0.3,0-0.4c-0.1,0-0.3,0-0.4,0c0,0,0,0,0,0.1
	s-0.1,0.2-0.1,0.3c0-0.3-0.1-0.2-0.1-0.1s-0.1,0.1-0.1,0.1s0,0-0.1,0.1c0,0-0.1,0.1-0.2,0.1c-0.2,0.1-0.2,0-0.1-0.1c0,0,0,0,0.1-0.1
	c0-0.1,0.1-0.1,0.1-0.1s0,0,0.1-0.1c0-0.1,0.1-0.2,0.2-0.3c0-0.1,0.1-0.2,0.1-0.3c-0.4,0-0.8-0.2-1.1-0.3c-0.2-0.1-0.3-0.2-0.5-0.3
	c-0.6,0.6-1.3,1.1-2.1,1.4c-0.2,0.1-0.4,0.2-0.6,0.2c0,0.2,0,0.5,0.1,0.7s0.2,0.4,0.3,0.6l0.4,0.2c0.6,0.3,1.2,0.6,1.8,0.8
	c0.1,0,0.2,0.1,0.3,0.1c0,0,0.1,0,0.3,0.1c0.1,0,0.2,0.1,0.2,0.1c0.1,0,0.2,0.1,0.3,0.1c0.5,0.2,0.3,0.2-0.1,0.2c0,0-0.2,0-0.4-0.1
	S47.6,59,47.6,59c-0.1,0-0.2-0.1-0.2-0.1c-0.5-0.2-1-0.4-1.6-0.7c0.6,0.6,1.4,1.1,2.3,1.4c0.4,0.2,0.9,0.3,1.4,0.3s1-0.1,1.4-0.2
	c0.9-0.2,1.7-0.5,2.4-1c-0.7,0.2-1.5,0.4-2.3,0.5h-0.3c0,0-0.1,0-0.3,0s-0.4,0-0.5,0c-0.6,0-0.3-0.1,0-0.2c0,0,0.2,0,0.4-0.1
	c0.2,0,0.4-0.1,0.4-0.1h0.2c0.9-0.1,1.7-0.3,2.5-0.6l0.5-0.2c0.1-0.1,0.2-0.3,0.3-0.4c0.2-0.4,0.2-0.8,0.2-1.2
	c0-0.2-0.1-0.3-0.1-0.5C53.8,55.9,53.5,55.7,53.3,55.4 M44.4,46.3c-0.4-0.2-0.8-0.3-1.2-0.4c-0.4-0.1-0.9-0.2-1.3-0.3
	c-0.4,0-0.9,0-1.3,0.1c-0.2,0.1-0.4,0.2-0.5,0.3c-0.1,0.2-0.2,0.3-0.3,0.6c-0.1,0.4-0.1,0.9,0,1.3c0.1,0.3,0.2,0.5,0.3,0.8
	c0,0,0,0,0.1,0.1c0,0,0.1,0.1,0.1,0.2c0,0.1,0.1,0.1,0.1,0.2c0,0.1,0.1,0.1,0.1,0.2c0,0.1,0.1,0.1,0.1,0.2c0.1,0.1,0.1,0.1,0.1,0.1
	c0,0.1,0.1,0.1,0.2,0.2C41,50,41,50,41.1,50.1c0.2,0.2,0.5,0.4,0.8,0.6c0.1,0.1,0.3,0.2,0.4,0.2l0.4,0.2l0.5,0.2
	c0.2,0.1,0.3,0.1,0.5,0.1c0.4,0.1,0.8,0.2,1.2,0.2c0-0.1-0.1-0.1-0.1-0.2c0-0.1,0-0.2-0.1-0.2C44.5,51.1,44.2,51,44,51
	c-0.5-0.2-1-0.4-1.5-0.6c-0.2-0.1-0.5-0.2-0.7-0.4l-0.3-0.2c0,0-0.4-0.3-0.7-0.5c-0.5-0.4-0.2-0.3,0.1-0.1c0,0,0.2,0.1,0.4,0.2
	c0.2,0.1,0.4,0.2,0.4,0.2l0.3,0.2c0.2,0.1,0.5,0.2,0.7,0.3c0.5,0.2,0.9,0.4,1.4,0.6c0.2,0.1,0.4,0.1,0.6,0.2l0,0
	c0,0,0.1,0.2,0.2,0.4c0,0,0.1,0.2,0.3,0.5c0.1,0.1,0.2,0.3,0.3,0.4c0.1,0.1,0.1,0.2,0.1,0.2l0.1,0.2l0.1,0.1l0.1,0.1
	c0.1,0.1,0.1,0.2,0.2,0.3c0.3,0.4,0.5,0.7,0.8,1s0.7,0.5,1,0.7c0.4,0.2,0.8,0.2,1.2,0.2s0.9-0.1,1.3-0.2c0.5-0.2,1-0.5,1.5-0.9l0,0
	H52l0,0l0.1-0.1l0,0l0,0l0,0c0.1-0.1,0.2-0.2,0.4-0.3c0.3-0.3,0.6-0.6,0.9-1c0.1-0.1,0.2-0.2,0.2-0.2l0.1-0.1c0,0,0,0,0-0.1l0,0
	h-0.1c-0.1,0-0.2-0.1-0.3-0.1s-0.2-0.1-0.3-0.1h-0.2c-0.1,0-0.1,0-0.2,0c-0.2,0-0.4-0.1-0.6-0.1c-0.4,0-0.9,0.1-1.3,0.2
	c-0.2,0.1-0.4,0.1-0.6,0.2c-0.1,0-0.2,0.1-0.3,0.1s-0.2,0.1-0.3,0.1c-0.2,0-0.5,0.1-0.7,0.1l-0.3,0.1c-0.2,0-0.3,0-0.4,0
	c-0.3-0.1-0.5-0.2-0.7-0.3S47,52,46.8,51.9c-0.4-0.3-0.7-0.5-1.1-0.7c-0.2-0.1-0.4-0.1-0.7-0.1l0,0c0,0-0.1-0.1-0.2-0.1
	c0-0.1-0.1-0.2,0.1-0.3l0,0c0,0,0,0,0.1,0c-0.3-0.3-0.5-0.6-0.7-0.9c-0.1-0.2-0.2-0.3-0.3-0.5L43.9,49l-0.1-0.3
	c-0.1-0.2-0.1-0.4-0.1-0.6c0-0.2,0-0.4,0-0.6C44.3,46.9,44.4,46.6,44.4,46.3 M52.7,45.5c-0.1-0.4-0.3-0.7-0.5-1L52,44.3
	c0-0.1-0.1-0.1-0.1-0.2c0,0,0,0-0.1-0.1c0-0.1-0.1-0.1-0.2-0.2c-0.1-0.1-0.2-0.2-0.3-0.3c-0.2-0.2-0.5-0.4-0.8-0.6
	c-0.5-0.4-0.8-0.8-1.2-1.2c-0.2-0.2-0.4-0.3-0.7-0.4c-0.2-0.1-0.5,0-0.7,0.1c-0.5,0.3-0.9,0.7-1.2,1.1c-0.4,0.4-0.7,0.9-1,1.4
	c-0.1,0.2-0.2,0.4-0.3,0.7c0,0.1-0.1,0.3-0.2,0.5c0,0.2-0.1,0.3-0.1,0.4c0,0.1-0.1,0.2-0.1,0.2c0,0.1-0.1,0.1-0.1,0.2l-0.1,0.3
	c-0.1,0.2-0.1,0.4-0.1,0.5c0,0.2-0.1,0.4-0.1,0.5c-0.1,0.7,0.1,1.4,0.5,2c0.3,0.4,0.6,0.8,1,1.1c0,0,0,0,0.1,0
	c0.4,0.2,0.8,0.4,1.1,0.6c0-0.1,0.1-0.2,0.2-0.2c0.1,0,0.2,0.1,0.2,0.2l0,0V51c0,0,0,0-0.1,0v0.1c0,0,0,0,0,0.1c0,0,0.1,0,0.1,0.1
	v-0.1c0-0.1,0.1-0.2,0.2-0.2c0.1,0,0.2,0.1,0.2,0.2l0,0v0.1l0,0c0,0,0,0-0.1,0c0,0,0,0,0,0.1c0,0,0,0,0,0.1c0,0,0,0,0,0.1l0.1,0.1
	v-0.1c0-0.1,0.1-0.2,0.2-0.2c0.1,0,0.2,0.1,0.2,0.2l0,0v0.1c0,0,0,0-0.1,0v0.1l0,0l0,0c0.1,0,0.2,0,0.3,0l0.3-0.1h0.1l0,0
	c0,0,0,0-0.1,0c0,0,0,0,0-0.1l0,0c0-0.1,0.1-0.2,0.2-0.2c0.1,0,0.2,0.1,0.2,0.2c0,0,0,0,0,0.1h0.1c0,0-0.1-0.1,0-0.1v-0.1
	c0,0,0,0-0.1,0c0,0,0,0,0-0.1l0,0c0-0.1,0.1-0.2,0.2-0.2c0.1,0,0.2,0.1,0.2,0.2c0,0.1,0,0.1,0,0.2l0,0c0.1,0,0.1,0,0.2,0l0,0v-0.1
	l0,0c-0.1,0-0.1-0.1-0.1-0.2v-0.1c0,0,0,0-0.1,0c0,0,0,0,0-0.1l0,0c0-0.1,0.1-0.2,0.2-0.2c0.1,0,0.1,0.1,0.2,0.1
	c0.1-0.1,0.1-0.2,0.2-0.3c0.1-0.2,0.2-0.3,0.2-0.5c0.1-0.2,0.1-0.4,0.2-0.5l0.1-0.6c0.1-0.4,0.1-0.8,0.2-1.1c0-0.2,0-0.4,0-0.6
	c0-0.1,0-0.2,0-0.3c0,0,0-0.5-0.2-0.8c-0.1-0.1-0.1-0.2-0.1-0.3v-0.1c0,0,0.2,0.1,0.3,0.3c0,0,0.1,0.2,0.2,0.4
	c0.1,0.2,0.1,0.4,0.1,0.4v0.2v0.2c0,0.2,0,0.4,0,0.6c0,0.4-0.1,0.8-0.2,1.2l-0.1,0.6l-0.2,0.6c-0.1,0.2-0.2,0.4-0.2,0.5
	c-0.1,0.2-0.2,0.3-0.3,0.5c0.2,0,0.3-0.1,0.5-0.1c0.1,0,0.2,0,0.2,0c0.6-1,1.1-2.2,1.3-3.3C53,47,52.9,46.2,52.7,45.5 M46.8,44
	c0,0-0.1,0.2-0.2,0.4c-0.1,0.2-0.2,0.4-0.2,0.4L46.3,45c-0.2,0.3-0.3,0.6-0.4,0.9c-0.1,0.2-0.1,0.3-0.1,0.5l0,0
	c-0.1,0-0.2,0.1-0.3-0.1l0,0c0-0.2,0.1-0.3,0.2-0.5c0.1-0.3,0.3-0.6,0.4-0.9l0.1-0.3C46.2,44.6,46.5,44.2,46.8,44
	C47,43.5,47,43.7,46.8,44 M49.9,49.8c0.1,0,0.2,0.1,0.2,0.2c0,0.1,0,0.1,0,0.2c0,0,0,0.1-0.1,0.1c0,0-0.1,0-0.2,0
	c-0.1,0-0.1-0.1-0.1-0.2V50c0,0,0,0-0.1,0l0,0l0,0c0,0,0,0,0-0.1l0,0C49.7,49.9,49.8,49.8,49.9,49.8 M49.3,49.6
	c0-0.1,0.1-0.2,0.2-0.2c0.1,0,0.2,0.1,0.2,0.2c0,0.1,0,0.1,0,0.2c0,0,0,0.1-0.1,0.1c0,0-0.1,0-0.2,0C49.3,49.9,49.3,49.8,49.3,49.6
	L49.3,49.6C49.4,49.7,49.3,49.7,49.3,49.6C49.3,49.7,49.3,49.7,49.3,49.6C49.3,49.6,49.2,49.6,49.3,49.6 M49.3,50.2
	c0-0.1,0.1-0.2,0.2-0.2c0.1,0,0.2,0.1,0.2,0.2c0,0.1,0,0.1,0,0.2c0,0,0,0.1-0.1,0.1c0,0-0.1,0-0.2,0C49.3,50.5,49.3,50.4,49.3,50.2
	L49.3,50.2C49.4,50.3,49.3,50.3,49.3,50.2C49.3,50.3,49.3,50.3,49.3,50.2C49.3,50.3,49.2,50.2,49.3,50.2 M48.8,49.4
	c0-0.1,0.1-0.2,0.2-0.2c0.1,0,0.2,0.1,0.2,0.2l0,0v0.1l0,0l0,0c0,0,0,0-0.1,0c0,0,0,0,0,0.1c0,0,0,0,0,0.1c0,0-0.1,0.1-0.2,0.1
	c-0.1,0-0.1,0-0.2-0.1v-0.1C48.8,49.5,48.8,49.5,48.8,49.4 M48.8,50c0-0.1,0.1-0.2,0.2-0.2c0.1,0,0.2,0.1,0.2,0.2l0,0v0.1l0,0l0,0
	c0,0,0,0-0.1,0c0,0,0,0,0,0.1c0,0,0,0,0,0.1s-0.1,0.1-0.2,0.1c-0.1,0-0.1,0-0.2-0.1v-0.1C48.8,50.1,48.8,50.1,48.8,50 M48.3,49.6
	c0-0.1,0.1-0.2,0.2-0.2c0.1,0,0.2,0.1,0.2,0.2l0,0v0.1l0,0c0,0,0,0-0.1,0c0,0,0,0,0,0.1c0,0,0,0,0,0.1c0,0-0.1,0.1-0.2,0.1
	c-0.1,0-0.1,0-0.2-0.1v-0.1C48.3,49.7,48.3,49.7,48.3,49.6 M47.9,50c0-0.1,0.1-0.2,0.2-0.2c0.1,0,0.2,0.1,0.2,0.2l0,0v0.1l0,0l0,0
	c0,0,0,0-0.1,0v0.1c0,0,0,0,0,0.1c0,0-0.1,0.1-0.2,0.1c-0.1,0-0.1,0-0.2-0.1c0-0.1,0-0.1,0-0.1C47.9,50.1,47.9,50,47.9,50
	 M47.9,50.5C47.9,50.5,47.8,50.5,47.9,50.5C47.8,50.5,47.8,50.5,47.9,50.5C47.9,50.6,47.9,50.6,47.9,50.5c-0.1,0.1-0.2,0.2-0.3,0.2
	c-0.1,0-0.1,0-0.2-0.1v-0.1c0-0.1,0-0.1,0-0.2c0-0.1,0.1-0.2,0.2-0.2C47.8,50.2,47.9,50.3,47.9,50.5L47.9,50.5L47.9,50.5L47.9,50.5z
	 M48.2,50.7C48.3,50.7,48.3,50.7,48.2,50.7c0,0.1,0,0.1,0,0.2c0,0-0.1,0.1-0.2,0.1c-0.1,0-0.1,0-0.2-0.1v-0.1c0-0.1,0-0.1,0-0.2
	c0-0.1,0.1-0.2,0.2-0.2C48.1,50.4,48.2,50.5,48.2,50.7L48.2,50.7C48.3,50.7,48.3,50.7,48.2,50.7L48.2,50.7
	C48.3,50.7,48.3,50.7,48.2,50.7 M48.7,51L48.7,51L48.7,51L48.7,51c0,0.1,0,0.1-0.1,0.2c0,0-0.1,0.1-0.2,0.1c-0.1,0-0.1,0-0.2-0.1
	v-0.1c0-0.1,0-0.1,0-0.2c0-0.1,0.1-0.2,0.2-0.2C48.7,50.7,48.7,50.8,48.7,51L48.7,51C48.8,50.9,48.7,51,48.7,51 M48.7,50.3
	L48.7,50.3L48.7,50.3C48.7,50.4,48.7,50.4,48.7,50.3C48.7,50.4,48.7,50.4,48.7,50.3c0,0.1,0,0.1-0.1,0.2c0,0-0.1,0.1-0.2,0.1
	c-0.1,0-0.1,0-0.2-0.1v-0.1c0-0.1,0-0.1,0-0.2c0-0.1,0.1-0.2,0.2-0.2C48.7,50.1,48.7,50.2,48.7,50.3L48.7,50.3
	C48.8,50.3,48.8,50.3,48.7,50.3 M48.8,50.7c0-0.1,0.1-0.2,0.2-0.2c0.1,0,0.2,0.1,0.2,0.2l0,0v0.1l0,0c0,0,0,0-0.1,0v0.1
	c0,0,0,0,0,0.1c0,0-0.1,0.1-0.2,0.1c-0.1,0-0.1,0-0.2-0.1v-0.1C48.8,50.8,48.8,50.7,48.8,50.7 M49.2,51.4L49.2,51.4L49.2,51.4
	C49.1,51.4,49.2,51.4,49.2,51.4c0,0.1,0,0.1-0.1,0.2c0,0-0.1,0.1-0.2,0.1c-0.1,0-0.1,0-0.2-0.1v-0.1c0-0.1,0-0.1,0-0.2
	c0-0.1,0.1-0.2,0.2-0.2C49.1,51.1,49.2,51.2,49.2,51.4L49.2,51.4C49.2,51.3,49.2,51.4,49.2,51.4 M49.7,51.1
	C49.7,51.1,49.7,51.2,49.7,51.1c-0.1,0.1-0.2,0.1-0.3,0.1c0,0-0.1-0.1-0.1-0.2v-0.1c0,0,0,0-0.1,0l0,0l0,0c0,0,0,0,0-0.1l0,0
	c0-0.1,0.1-0.2,0.2-0.2c0.1,0,0.2,0.1,0.2,0.2C49.7,50.9,49.7,51,49.7,51.1 M50.1,50.8C50.1,50.8,50.1,50.9,50.1,50.8
	c-0.1,0.1-0.2,0.1-0.3,0.1c-0.1,0-0.1-0.1-0.1-0.2v-0.1c0,0,0,0-0.1,0c0,0,0,0,0-0.1l0,0c0-0.1,0.1-0.2,0.2-0.2
	c0.1,0,0.2,0.1,0.2,0.2C50.1,50.7,50.1,50.8,50.1,50.8 M50.5,50.6C50.5,50.6,50.5,50.7,50.5,50.6c-0.1,0.1-0.2,0.1-0.3,0.1
	c-0.1,0-0.1-0.1-0.1-0.2v-0.1c0,0,0,0-0.1,0c0,0,0,0,0-0.1l0,0c0-0.1,0.1-0.2,0.2-0.2c0.1,0,0.2,0.1,0.2,0.2
	C50.5,50.5,50.5,50.5,50.5,50.6 M59.8,47.1c0-0.2,0-0.5-0.1-0.7s-0.2-0.4-0.3-0.6c-0.1-0.1-0.2-0.1-0.2-0.2c0,0,0,0.1-0.1,0.1
	c-0.3,0.5-0.3,0.3-0.2-0.1c0,0,0.1-0.2,0.1-0.4c0.1-0.2,0.1-0.4,0.1-0.4c0-0.1,0-0.1,0-0.1v-0.1l0,0v-0.1c0-0.1,0-0.2,0-0.2
	c0-0.3-0.2-0.5-0.5-0.6s-0.6-0.1-0.9-0.1c-0.6,0-1.3,0.1-1.9,0.4c-0.6,0.3-1.1,0.7-1.5,1.2c-0.4,0.4-0.7,0.9-1,1.4
	c0,0.5,0,0.9-0.1,1.3c-0.2,1.1-0.6,2-1.1,2.9c0.1-0.1,0.2-0.1,0.3-0.2c0.1-0.1,0.3-0.2,0.4-0.3l1.3-1.3c0.2-0.2,0.4-0.4,0.5-0.6
	l0.2-0.2c0,0,0.3-0.3,0.6-0.6c0.2-0.1,0.2-0.2,0.3-0.2s0,0.2-0.2,0.3c0,0-0.1,0.2-0.2,0.3L55,48.5l-0.5,0.6
	c-0.2,0.2-0.4,0.4-0.6,0.6c-0.4,0.4-0.8,0.8-1.2,1.1h0.1c0.2-0.1,0.3-0.1,0.5-0.2c0.1,0,0.2-0.1,0.3-0.1c0,0,0.3-0.1,0.8-0.3
	c0.2-0.1,0.3-0.1,0.3-0.1c0.1,0-0.1,0.1-0.3,0.3c0,0-0.2,0.1-0.3,0.2c-0.2,0.1-0.4,0.2-0.4,0.2c-0.1,0-0.2,0.1-0.2,0.1
	c-0.1,0-0.2,0.1-0.3,0.1c0.1,0,0.2,0,0.3,0.1c0.2,0.1,0.4,0.1,0.7,0.2c0.1,0,0.1,0.1,0.2,0.1c0,0,0.1,0,0.1,0.1l0.1,0.1
	c0.1,0.1,0.1,0.2,0.1,0.3V52c0.7-0.2,1.3-0.5,1.8-0.9s1-0.9,1.3-1.4l0.3-0.4c0.1-0.1,0.1-0.3,0.2-0.4v-0.1v-0.1v-0.2c0,0,0,0,0-0.1
	s0-0.2,0.1-0.3c0-0.2,0.1-0.5,0.1-0.8c0.1-0.4,0.2-0.5,0.2-0.5s0,0.1,0,0.2c0,0.1,0,0.2,0,0.3c0,0,0,0.3,0,0.6c0,0.2,0,0.3,0,0.5
	c0,0.1,0,0.2,0,0.2v0.2c0,0.1,0,0.1-0.1,0.3c0,0.1-0.1,0.2-0.1,0.3s-0.1,0.2-0.1,0.2c-0.1,0.2-0.2,0.3-0.3,0.4
	c-0.3,0.5-0.8,0.9-1.2,1.3c0.5-0.2,1.1-0.3,1.7-0.4c0.2,0,0.4,0,0.6-0.1c0,0,0-0.1,0.1-0.1c0.4-0.8,0.6-1.8,0.6-2.8
	C59.8,47.6,59.8,47.4,59.8,47.1 M55.6,49.5L55.6,49.5l-0.2,0.2c0,0,0,0-0.1,0.1l-0.1,0.1h-0.1c0-0.1,0-0.1,0-0.1s0.1,0,0.1-0.1
	l0.1-0.1c0,0,0,0,0.1-0.1H55.6L55.6,49.5C55.6,49.5,55.7,49.5,55.6,49.5"/>
<path fill="#041E42" d="M50.5,51.4c-0.3,0.1-1,0.2-1.7,0.3c-0.6-0.1-1.8-0.4-1.7-0.9c0.1-0.7,1.2-2,1.8-2c0.6-0.1,1.8,1.4,2.1,1.8
	C50.7,51.1,50.8,51.1,50.5,51.4"/>
<path fill="#D69A2D" d="M50.3,51.5c-0.3,0.1-0.9,0.2-1.5,0.3c-0.5-0.1-1.5-0.4-1.5-0.8c0-0.1,1-1.8,1.6-1.9c0.6-0.1,1.6,1.5,1.9,1.6
	C50.5,51.2,50.6,51.2,50.3,51.5"/>
<g>
	<path opacity="0.2" enable-background="new    " d="M10.4,74.3V25.8c0-12.1,8.2-22.7,19.8-25.8H0v100h30.2
		C18.5,96.9,10.4,86.3,10.4,74.3z"/>
	<path opacity="0.1" fill="#FFFFFF" enable-background="new    " d="M89.6,25.8v48.5c0,12.1-8.2,22.7-19.8,25.8H100V0H69.8
		C81.5,3.1,89.6,13.7,89.6,25.8z"/>
</g>
</svg>
