<?xml version="1.0" encoding="utf-8"?>
<!-- Generator: Adobe Illustrator 23.0.0, SVG Export Plug-In . SVG Version: 6.00 Build 0)  -->
<svg version="1.0" id="Layer_1" xmlns="http://www.w3.org/2000/svg" xmlns:xlink="http://www.w3.org/1999/xlink" x="0px" y="0px"
	 viewBox="0 0 100 100" enable-background="new 0 0 100 100" xml:space="preserve">
<g>
	<rect fill="#FFFFFF" width="100" height="100"/>
</g>
<g>
	<path fill="#1F2C5C" d="M49.8,72.6c9.8-5.4,15.9-19.6,14.1-38.1H35.7C33.9,53,40,67.2,49.8,72.6"/>
</g>
<g>
	<path fill="#FFFFFF" d="M41,36l0.7,2.2H44l-1.9,1.4l0.7,2.3L41,40.6L39.1,42l0.7-2.3l-1.9-1.4h2.3L41,36"/>
</g>
<g>
	<path fill-rule="evenodd" clip-rule="evenodd" fill="#E6A300" d="M55.1,48.7C55,48.6,55,48.7,55.1,48.7L55.1,48.7z"/>
	<path fill-rule="evenodd" clip-rule="evenodd" fill="#E6A300" d="M55.5,48.8c0.2,0,0.3-0.2,0.4-0.3v-0.1v-0.1h-0.1
		c-0.1,0-0.1,0-0.1,0c0,0,0,0,0,0c0,0,0,0-0.1,0c0,0.1,0,0.2-0.1,0.3C55.5,48.7,55.5,48.7,55.5,48.8z"/>
	<path fill-rule="evenodd" clip-rule="evenodd" fill="#E6A300" d="M53,58.3L53,58.3c-0.1,0-0.1,0.1-0.1,0.1L53,58.3z"/>
	<path fill-rule="evenodd" clip-rule="evenodd" fill="#E6A300" d="M44.9,59.4c0-0.1,0.1-0.1,0-0.2c0,0,0,0,0,0.1
		S44.9,59.4,44.9,59.4z"/>
	<path fill-rule="evenodd" clip-rule="evenodd" fill="#E6A300" d="M49.9,37.7c0,0,0,0.1,0,0.2c0,0,0,0,0,0
		C49.9,37.8,49.9,37.8,49.9,37.7z"/>
	<path fill-rule="evenodd" clip-rule="evenodd" fill="#E6A300" d="M53.7,43.9c0-0.1,0-0.3-0.1-0.4c0,0,0,0.1,0,0.2v0
		c0.1,0.2,0.1,0.4,0.2,0.5C53.8,44.1,53.8,44,53.7,43.9z"/>
	<path fill-rule="evenodd" clip-rule="evenodd" fill="#E6A300" d="M44.3,45.6c0,0,0,0,0,0.1c0,0,0,0.1,0,0.1
		C44.3,45.7,44.4,45.7,44.3,45.6z"/>
	<path fill-rule="evenodd" clip-rule="evenodd" fill="#E6A300" d="M44.9,59.2c0,0,0-0.1,0-0.1c0-0.4-0.1-0.9-0.2-1.4
		C44.7,58.2,44.8,58.7,44.9,59.2z"/>
	<path fill-rule="evenodd" clip-rule="evenodd" fill="#E6A300" d="M44.9,59.6c0,0.1,0.1,0.2,0.1,0.2c0,0,0,0,0-0.1
		C45,59.6,45,59.6,44.9,59.6C44.9,59.5,44.9,59.5,44.9,59.6z"/>
	<path fill-rule="evenodd" clip-rule="evenodd" fill="#E6A300" d="M46.5,66.3c0,0.1,0.1,0.2,0.1,0.3c0.1-0.1,0.1-0.1,0.1-0.1
		C46.6,66.4,46.5,66.4,46.5,66.3z"/>
	<path fill-rule="evenodd" clip-rule="evenodd" fill="#E6A300" d="M44.7,41C44.7,41,44.7,41,44.7,41C44.7,41,44.7,41,44.7,41
		C44.7,40.9,44.7,40.9,44.7,41C44.7,40.9,44.7,40.9,44.7,41C44.7,41,44.7,41,44.7,41C44.7,41,44.7,41,44.7,41
		C44.7,41,44.7,41,44.7,41C44.7,41,44.7,41,44.7,41z"/>
	<path fill-rule="evenodd" clip-rule="evenodd" fill="#E6A300" d="M47.1,48.8C47.1,48.9,47.1,48.9,47.1,48.8L47.1,48.8
		c0.1-0.1,0.1-0.1,0.1-0.1C47.2,48.8,47.2,48.8,47.1,48.8z"/>
	<path fill-rule="evenodd" clip-rule="evenodd" fill="#E6A300" d="M47.6,56.8v0.1h0.1C47.7,56.8,47.6,56.8,47.6,56.8z"/>
	<path fill-rule="evenodd" clip-rule="evenodd" fill="#E6A300" d="M47.5,48.7L47.5,48.7l-0.1,0.2V49c0,0.1,0,0.1,0,0.1
		c0,0,0,0,0,0.1c0-0.1,0-0.1,0.1-0.2V48.7z"/>
	<path fill-rule="evenodd" clip-rule="evenodd" fill="#E6A300" d="M50.6,59.9c0,0.1,0,0.1,0,0.2C50.6,60,50.6,60,50.6,59.9z"/>
	<path fill-rule="evenodd" clip-rule="evenodd" fill="#E6A300" d="M52.6,65C52.5,65,52.6,65.1,52.6,65L52.6,65z"/>
	<path fill-rule="evenodd" clip-rule="evenodd" fill="#E6A300" d="M56.1,47.1L56,47.2c0,0-0.1,0.1-0.1,0.1c0,0,0,0,0,0c0,0,0,0,0,0
		v-0.1h-0.1h-0.1h-0.1c0,0,0,0,0,0c0-0.1,0-0.2-0.1-0.2l-0.1-0.1V47l-0.1,0.2c0,0.1,0,0.2,0.1,0.3l-0.1-0.1v0.1c-0.1,0-0.1,0-0.1,0
		v0.1v0.1c-0.1,0.2-0.1,0.4,0,0.6c0,0,0,0,0,0c0,0,0,0-0.1-0.1c-0.1,0.1-0.1,0.2,0,0.4c0,0,0,0,0-0.1c0,0,0,0,0,0c0,0,0,0,0,0
		c0,0,0,0.1,0,0.1c0.1-0.2,0.2-0.3,0-0.4c0,0,0-0.1,0-0.1c0,0,0,0,0,0.1l0.1,0.1c-0.1,0.2-0.1,0.4-0.2,0.6c-0.1,0.2-0.2,0.4-0.2,0.6
		c-0.1,0.2-0.1,0.3-0.2,0.5c0,0.2-0.1,0.3-0.1,0.5c-0.1,0.2-0.1,0.4-0.2,0.6c0,0,0,0,0,0c0,0,0,0,0,0.1c0,0,0,0,0,0c0,0,0-0.1,0-0.1
		c0,0,0,0.1-0.1,0.1c0,0,0,0,0,0.1c0-0.2,0.1-0.5,0.1-0.7c0.1-0.5,0.2-1.1,0.1-1.7c0,0,0,0,0,0c0-0.1,0-0.1,0-0.1l0.1-0.3
		c0-0.1,0-0.1,0-0.2c0,0.1,0.1,0.1,0.1,0.2c0-0.1,0-0.2,0-0.3c0.1,0.1,0.2,0.2,0.3,0.3c0-0.3-0.1-0.7-0.3-0.9
		c-0.2-0.1-0.3-0.4-0.3-0.6c0.1,0.1,0.1,0.1,0.1,0.2c0,0.1,0,0.2,0.1,0.3v-0.1c-0.2-0.5-0.2-0.9-0.3-1.4c0-0.2,0-0.5-0.1-0.8
		c-0.1-0.2-0.2-0.5-0.3-0.7c0,0.1,0,0.3,0,0.4v0.1c0,0,0,0.1,0,0.1c0,0,0-0.1,0-0.1c0-0.2,0.1-0.3,0.1-0.5c0-0.1-0.1-0.2-0.1-0.3
		c0,0,0,0,0,0c0,0.2-0.1,0.3-0.1,0.4c0-0.1-0.1-0.2-0.1-0.3c0-0.2,0-0.4,0-0.6v-0.1c-0.1-0.1-0.1-0.3-0.2-0.4
		c-0.1-0.3-0.4-0.4-0.6-0.4h-0.1c-0.1,0-0.1,0-0.1,0h-0.1h-0.1c-0.1,0-0.1,0-0.1,0h-0.1c-0.1-0.1-0.2-0.1-0.2,0c0,0,0,0,0,0v-0.1
		l-0.1-0.2v0.1c0,0.1,0.1,0.2,0.1,0.3c0,0,0,0,0,0c0,0,0,0,0,0v-0.3c0-0.1-0.1-0.1-0.1-0.2c0,0,0,0,0-0.1c0,0,0,0,0,0
		c0-0.1,0-0.1,0-0.1c0,0,0,0,0,0.1c0,0,0-0.1-0.1-0.1c0,0,0,0,0.1,0.1c0-0.1-0.1-0.1-0.1-0.2c0,0,0-0.1-0.1-0.1c0,0,0-0.1,0-0.1
		c0,0,0-0.1-0.1-0.1c0,0,0-0.1,0-0.1c0-0.1,0-0.2,0-0.3c0,0,0-0.1,0-0.1v-0.1c0-0.1,0-0.1,0-0.2c0.1-0.1,0.1-0.2,0.1-0.4
		c0-0.1,0-0.2,0-0.3c0-0.5,0-1.1-0.3-1.5c0-0.1-0.1-0.1-0.1-0.1s-0.1,0-0.1-0.1c0.2,0.1,0.2,0.2,0.3,0.3c0,0.1,0.1,0.2,0.1,0.2
		c0.1,0.4,0.2,1,0.1,1.5c0,0.1,0,0.1,0,0.2v0.4v0.1c0,0,0,0.1,0,0.1c0,0.2,0.1,0.4,0.2,0.6c0.1,0.1,0.2,0.2,0.2,0.4v-0.1
		c0-0.1,0-0.2-0.1-0.3c0-0.1-0.1-0.2-0.1-0.3c0-0.2-0.1-0.4-0.1-0.6v-0.1c0-0.1,0-0.1,0-0.2c0-0.1,0-0.1,0-0.1v-0.1
		c0-0.2,0-0.5,0-0.8c0-0.3-0.1-1.1-0.7-1.4h-0.1c-0.1,0-0.1,0-0.1,0h-0.1c-0.1,0-0.1,0-0.2,0c-0.1,0-0.2,0-0.2,0c0,0-0.1,0-0.1,0
		c0,0,0,0,0,0c0-0.1,0-0.3-0.1-0.4c0,0.1,0,0.1-0.1,0.2c0,0,0,0,0-0.1c0,0,0-0.1,0-0.1c0,0,0,0,0,0.1L49.9,38c0,0,0-0.1,0-0.1
		c0,0,0,0,0,0c0,0,0,0,0,0c0,0,0-0.1-0.1-0.1c0,0,0-0.1,0-0.1c0,0,0,0.1,0,0.1l0,0c0-0.3-0.1-0.6-0.4-0.9c0,0,0,0,0,0
		c0,0,0.1,0.1,0.1,0.1c0,0-0.1-0.1-0.1-0.1c0,0,0,0,0,0c0,0-0.1-0.1-0.1-0.1c0,0,0,0.1,0,0.1c0,0,0,0,0,0c0,0,0,0.1,0,0.1l0,0
		c0,0,0-0.1,0-0.1c0,0-0.1-0.1-0.1-0.1v0c0,0,0,0,0-0.1c0,0,0,0,0,0v-0.1c-0.1-0.1-0.3-0.2-0.5-0.2c0,0,0.1,0,0.1,0.1
		c0,0-0.1,0-0.1,0c0,0,0,0,0,0c0,0,0,0,0,0v0c0,0,0,0,0-0.1c0,0-0.1,0.1-0.1,0.1c0,0,0,0,0,0c-0.1,0.1-0.1,0.2-0.1,0.3
		c0,0,0,0,0,0.1c0,0,0.1,0.1,0.1,0.1h0c0,0,0,0.1,0,0.1h0h0c0,0,0,0,0,0v0c-0.1-0.1-0.2-0.3-0.3-0.3c0,0.1,0,0.2,0,0.2c0,0,0,0,0,0
		c0,0,0,0,0,0c0,0,0,0,0,0c0,0-0.1-0.1-0.1-0.1c-0.1,0-0.1,0.1,0,0.1c0,0,0,0.1,0.1,0.1c-0.1,0-0.1-0.1-0.2-0.1c0,0,0,0,0,0
		c0,0,0,0,0,0c0,0,0,0,0-0.1c-0.1,0.1-0.1,0.1,0,0.2c0,0.1-0.1,0.2-0.1,0.3c0,0,0,0,0,0c0,0,0,0,0,0.1c0,0.1,0.1,0.2,0.2,0.3h-0.1
		V38c0,0,0.1,0.1,0.1,0.2c0.1,0.1,0.1,0.1,0.1,0.2c0,0.1,0.1,0.2,0.2,0.2c0,0,0,0,0,0c0,0,0,0,0,0c0.1,0.1,0.1,0.2,0.2,0.2
		c0,0,0.1,0.1,0.1,0.1c0,0,0,0,0,0c0,0,0,0,0,0c0,0,0.1,0,0.1,0.1c0.1,0,0.1,0,0.1,0c-0.3,0.4-0.4,0.8-0.4,1.4c0,0.1,0,0.3,0,0.5
		l0.1,0.1l0.1-0.1V41h-0.1v0.1c0,0.1,0,0.2,0,0.3c0,0.1,0,0.1,0,0.2v0.1v0.1c-0.1,0.3-0.2,0.6-0.2,0.9c-0.1,0-0.1,0-0.2,0.1
		c-0.1,0-0.2,0.1-0.4,0.1c-0.2,0-0.3,0-0.4,0.1l-0.1,0.1c-0.1,0.1-0.2,0.3-0.3,0.4c-0.2,0.3-0.3,0.6-0.2,1c0,0.3-0.1,0.6-0.1,0.8
		c-0.1,0.1-0.1,0.3-0.1,0.4c0,0,0,0.1,0,0.1c0,0.1,0,0.1,0,0.2c0,0.1-0.1,0.2-0.1,0.4c-0.1,0.1-0.1,0.3-0.1,0.4v0.1V47v0.1L46.4,47
		c-0.1-0.1-0.3-0.1-0.5-0.2c-0.2-0.1-0.4-0.1-0.6-0.3c-0.1-0.3-0.1-0.7-0.1-1c-0.1-0.4-0.1-0.9-0.1-1.4c0-0.3,0-0.6-0.1-0.9
		c0-0.2,0-0.5-0.1-0.7v0.1c0,0.1,0,0.3,0,0.4c0,0.1,0,0.2,0,0.3c0,0,0,0.1,0,0.1c0-0.2,0-0.5-0.1-0.7c0,0,0-0.1,0-0.1
		c0-0.2,0-0.3,0-0.5c0-0.1,0-0.3,0-0.4c-0.1-0.1-0.1-0.3,0-0.5v-0.1h-0.1c0,0,0-0.1,0-0.1c0,0,0,0,0,0c0,0,0,0,0,0c0,0,0,0,0,0
		c0,0,0,0,0-0.1c0,0-0.1,0-0.1,0c0,0,0,0.1,0,0.1c-0.1,0-0.1,0.1-0.1,0.1c-0.1,0.1,0,0.1,0,0.2c0,0.1-0.1,0.2-0.1,0.4c0,0,0,0,0,0
		c0,0,0,0.1,0,0.1c-0.1,0.5-0.2,1-0.3,1.5L44,43.5l-0.1,0.4c0,0.3-0.1,0.6-0.1,1c0.1-0.1,0.1-0.1,0.1-0.1c0,0.1,0,0.1,0,0.2
		c0,0-0.1,0-0.1,0l0.1,0.1c-0.1,0-0.3,0-0.4,0c-0.1,0.1-0.1,0.2-0.1,0.3c0,0-0.1,0-0.1,0.1c0,0.1,0,0.1,0,0.2h0.1
		c-0.1,0-0.1,0-0.2,0.1c0,0,0,0.1,0.1,0.2c-0.1,0-0.1,0.1-0.1,0.1c-0.1,0-0.1,0-0.1,0.1c0,0.2,0.2,0.3,0.3,0.4c0,0.5-0.1,1-0.1,1.5
		c-0.1,1.8,0,3.6,0,5.4c0.1,1.2,0.2,2.5,0.4,3.6c0.3,1.6,0.6,3.2,1,4.7c0.4,1.4,0.9,2.8,1.4,4.2c-0.1,0.2,0.1,0.1,0.2,0.3h0.1
		c0,0,0-0.1,0-0.1c0,0,0,0,0,0.1v0.1h0.1c0,0,0,0,0,0c0.1,0.1,0.1,0.1,0.1,0.1c0,0-0.1,0,0,0.1c0-0.1,0-0.2,0-0.3
		c0-0.1-0.1-0.2,0-0.4c-0.1-0.9-0.1-1.8-0.2-2.7c0-0.3,0-0.5-0.1-0.8c-0.1-0.6-0.1-1-0.1-1.4c0-0.1,0-0.3,0-0.4c0-0.5-0.1-1-0.1-1.5
		c0-0.7-0.1-1.5-0.2-2.2c0-0.4-0.1-0.7-0.1-1.1c0-0.1,0-0.1,0-0.2s0-0.2,0-0.2c0-0.1,0-0.1,0-0.2c0-0.1,0-0.1,0-0.2
		c0-0.3,0-0.5-0.1-0.8c0-0.3-0.1-0.5-0.1-0.8c0,0,0-0.1,0-0.1c0-0.1,0-0.1,0-0.1c0-0.1,0-0.2,0-0.3c0,0,0-0.1,0-0.1
		c0-0.1,0-0.1,0-0.2c0-0.1,0-0.2,0-0.3c0,0,0,0,0,0c0-0.1,0-0.1,0-0.2c0-0.3-0.1-0.7-0.1-1c0-0.1,0-0.2,0-0.3c0-0.1,0-0.3,0-0.4
		c0-0.1,0-0.3,0-0.4c0-0.4,0-0.7-0.1-1.1c0,0,0-0.1,0-0.1c0-0.1,0-0.1,0-0.2c0.1,0.1,0.2,0.1,0.3,0.2c0.2,0.1,0.3,0.4,0.7,0.3
		c0,0,0,0,0,0c0.1,0.1,0.2,0.1,0.4,0.1c0.1,0,0.1-0.1,0.2-0.2c0,0,0,0,0-0.1c0,0,0,0-0.1,0c0,0,0-0.1,0.1-0.1c0,0,0,0,0,0.1
		c0,0,0,0,0,0c0,0,0.1-0.1,0.1-0.1v0c0,0,0,0,0,0c0,0,0,0,0,0c0,0,0.1-0.1,0.1-0.1c0,0,0,0,0,0s0,0,0-0.1l0.1-0.1v0.1h0.1v-0.1
		c0,0,0,0,0,0c0-0.1,0.1-0.1,0.1-0.2c0,0,0,0,0,0.1h0c0.1,0.2,0.1,0.4,0.1,0.6c0-0.2,0-0.3,0-0.5c0,0,0-0.1,0-0.1v-0.1v0l0.1,0.1
		v-0.1c0,0,0,0,0,0c0,0,0,0.1,0,0.1c0,0.1,0,0.2,0,0.3c0,0,0-0.1,0.1-0.2c0,0.1,0,0.3,0,0.4c0-0.1,0-0.3,0-0.5c0-0.1,0-0.2,0-0.3
		c0-0.1,0.1-0.1,0.1-0.2c0,0.2,0,0.5,0,0.7c0,0.1,0,0.2,0,0.2c0,0.1,0,0.2,0.1,0.4l0.1,0.3v0.1c0,0.1,0,0.1,0,0.2v0.1V50
		c0,0,0,0,0,0.1v0.1l0,0.1c-0.1,0-0.2-0.1-0.2,0c0,0,0,0.1,0.1,0.1c0,0,0.1,0,0.1,0c-0.4,0.4-0.3,0.9-0.4,1.3c0,0.7-0.1,1.2-0.3,1.8
		c0,0.3-0.2,0.7-0.2,1c0.1,0.3,0.1,0.6,0,0.9v0.3h0.1c0.1,0.2,0.1,0.3,0.1,0.5c0,0.1,0,0.1,0,0.2c0,0,0,0,0,0.1c0,0,0,0,0,0.1
		c0,0,0,0,0,0v0.1h0.1h0.1c0,0.1,0,0.1,0,0.2v0.1V57l0.1-0.1c0,0.2,0,0.3,0,0.5c0.1,0.4,0.3,0.9,0.2,1.3c0,0.2,0.1,0.3,0.2,0.6
		c0,0.1,0,0.1,0.1,0.2c0,0.1,0,0.1,0.1,0.2c0,0,0,0.1,0,0.1l-0.1-0.1c0,0.1,0,0.1,0,0.1s0,0.1,0.1,0.1c0,0.1,0,0.3,0,0.4
		c0,0,0,0,0,0.1c0,0,0,0,0,0.1c0,0.5,0,0.9,0.1,1.3c0,0.1,0,0.2,0,0.3c-0.2-0.6-0.2-1.3-0.2-1.9c0,0.1,0,0.2,0,0.2v0.1
		c0,0.1,0,0.1,0,0.1c-0.1,0.7,0,1.3,0.2,1.9h0c0,0,0,0,0,0c0,0.1,0,0.2,0.1,0.3h-0.1v-0.1v-0.1c0,0,0-0.1,0-0.1h-0.1
		c0,0.2,0,0.4,0.1,0.5c0,0,0,0,0,0c0,0.1,0,0.3,0.1,0.4c0,0.1,0,0.2,0,0.3c0,0.1,0,0.2-0.1,0.2c-0.1,0.2-0.1,0.3-0.2,0.3h0.1
		c0.1,0.1,0.1,0.1,0.1,0.2c0,0,0-0.1,0.1-0.1c0,0,0-0.1,0.1-0.2c0,0,0,0.1,0,0.1c0,0.1,0,0.2-0.1,0.2c0,0,0,0,0,0c0,0,0,0,0,0
		c0,0.1-0.1,0.1-0.1,0.2l-0.1-0.1v0.1v0.1c0,0.1,0,0.1,0.1,0.2c0,0,0,0.1,0,0.1l0,0v-0.1c0,0,0,0-0.1-0.1c0,0,0,0,0,0
		c-0.2,0.2-0.3,0.3-0.2,0.4c0,0,0,0,0,0c0,0.1,0,0.1,0,0.3c0,0,0,0.1,0,0.1c-0.1-0.1-0.1-0.1-0.1-0.1c-0.1,0.1-0.2,0.3-0.3,0.3
		c0,0,0,0,0,0c-0.2,0.1-0.4,0.3-0.4,0.5c0,0.2,0.1,0.5,0.1,0.7c0.1,0.1,0.2,0,0.3,0c0,0,0,0,0,0c0,0,0,0,0,0.1
		c0.1,0.1,0.3,0,0.5-0.1c0.1,0,0.2-0.1,0.3-0.2l0.1-0.1h-0.1c0.2-0.1,0.4-0.3,0.5-0.4s0.1-0.1,0.2-0.2c0.1-0.1,0.2-0.1,0.3-0.2
		c0.1-0.1,0.3-0.1,0.4-0.2l0.2-0.2l0.1-0.7v0c0.1,0,0.3,0.1,0.5,0.1c0.1,0,0.2,0.1,0.2,0.1c0.1,0,0.2,0.1,0.2,0.2
		c0,0,0.1,0.1,0.1,0.2c0,0.1,0,0.1,0.1,0.2c0.1,0.3,0.3,0.6,0.6,0.7c0.1,0,0.1,0,0.2,0.1c0.2,0.1,0.4,0.2,0.6,0c0,0,0,0,0,0
		c0,0,0.1,0,0.1,0c0.1,0.1,0.2,0.1,0.3,0.1c0.1,0,0.1,0,0.1-0.2c0,0,0,0,0.1,0c0.1-0.1,0.1-0.4,0-0.5c0.1-0.2,0-0.4-0.1-0.6
		c0-0.2-0.1-0.4-0.2-0.5c0-0.1,0-0.1,0-0.2c-0.1-0.1-0.1-0.1-0.1-0.1c0,0,0-0.1,0-0.1c0,0,0,0,0,0c0,0.1,0.1,0.1,0.1,0.1h0.1
		c-0.1,0-0.1-0.1-0.1-0.1c-0.1,0-0.1,0-0.1-0.1c-0.1-0.1,0-0.1,0-0.2s0-0.1,0-0.2l-0.1,0.1C52.5,64,52.5,64,52.4,64
		c0.3-0.2,0.4-0.6,0.4-1c0-0.1,0.1-0.3,0.1-0.5c0.1-0.3,0.1-0.5,0.2-0.8c0.1-0.3,0.2-0.6,0.2-0.9c0.1-0.1,0.1-0.1,0.1-0.2
		c0-0.1,0-0.3,0-0.4c0-0.2,0.1-0.4,0-0.6c-0.1,0-0.1,0.1-0.1,0.1c-0.1-0.1,0-0.3,0.1-0.4c0.1,0,0.1-0.1,0.1-0.1h-0.1l-0.1,0.1
		l-0.1,0.1c0.1-0.2,0.2-0.3,0.3-0.5c0-0.1,0.1-0.1,0.1-0.2l0.1-0.2l-0.2,0.1c0,0.1-0.1,0.2-0.2,0.2c0.3-0.4,0.5-0.8,0.5-1.4
		c0-0.2,0-0.3,0-0.4c0.1-0.2,0.1-0.4,0-0.6l-0.1,0.1c0,0.1,0,0.2-0.1,0.4c-0.1,0.2-0.2,0.3-0.2,0.5c0,0.1-0.1,0.1-0.1,0.2
		c-0.1,0.1-0.1,0.2,0,0.3V58c-0.1,0,0,0.1,0,0.1c0,0.1,0,0.1,0,0.2c-0.1,0.1-0.2,0.2-0.3,0.3c-0.1,0.1-0.1,0.2-0.2,0.3
		c0.1-0.1,0.2-0.3,0.2-0.4c-0.1,0.1-0.2,0.2-0.3,0.2c0-0.1,0-0.1,0-0.1c0.1-0.1,0.1-0.2,0.2-0.3c-0.2,0.1-0.3,0.3-0.4,0.4h0
		c0-0.1,0-0.1,0-0.1c0,0,0,0,0-0.1l0.1-0.1c0,0,0-0.1,0.1-0.1h0.2c0,0,0,0,0,0c0,0,0,0,0,0H53c0.2-0.3,0.3-0.7,0.3-1.2
		c0-0.1,0-0.2,0-0.4c0-0.1,0.1-0.3,0-0.4l0.5-0.1h0c0,0,0,0,0.1,0.1c0,0,0-0.1-0.1-0.1h0.1V56v-0.2v-0.1l0.1-0.3l-0.1,0.1v-0.2v-0.1
		v-0.3v-0.1v-0.3v-0.1V54C54,54,54,53.9,54,53.8c0.1,0,0.1-0.1,0.1-0.2c0.1,0,0.1-0.1,0.1-0.2c0,0,0,0,0,0c0.1-0.1,0.1-0.2,0.1-0.3
		c0,0,0,0,0,0c0,0,0.1,0,0.2-0.1c0-0.2,0.2-0.3,0.2-0.4c0-0.4-0.2-0.7-0.3-1v-0.1c0,0,0-0.1,0-0.1c0,0,0,0,0,0c0,0.1,0,0.2,0.1,0.2
		c0.2-0.7,0.4-1.3,0.6-2c0-0.1,0-0.1,0-0.2c0.1-0.1,0.1-0.1,0.1-0.2c0.1-0.1,0.1-0.1,0.1-0.2c0-0.2,0.1-0.5,0.2-0.7
		c0-0.1,0-0.1,0.1-0.2h0c0,0,0,0,0.1,0c0,0,0.1-0.1,0.1-0.2c0,0,0,0,0,0c0,0,0,0.1,0,0.1c0.1-0.3,0.2-0.6,0.3-0.9c0,0,0,0-0.1,0.1
		c0-0.1,0-0.1,0.1-0.2V47.1z M54.9,49.8C54.9,49.9,54.9,49.9,54.9,49.8c0,0.1,0,0.1,0,0.1C54.9,49.9,54.9,49.9,54.9,49.8z
		 M50.5,56.1C50.5,56.1,50.5,56,50.5,56.1C50.5,56,50.5,56.1,50.5,56.1z M52.6,65.5C52.5,65.4,52.5,65.4,52.6,65.5
		C52.6,65.4,52.6,65.4,52.6,65.5C52.6,65.5,52.6,65.5,52.6,65.5z M52.5,65.4C52.5,65.4,52.5,65.4,52.5,65.4
		C52.5,65.3,52.5,65.3,52.5,65.4C52.5,65.4,52.5,65.4,52.5,65.4C52.5,65.4,52.5,65.4,52.5,65.4z M52.4,65.1
		C52.4,65.2,52.4,65.2,52.4,65.1C52.4,65.2,52.4,65.2,52.4,65.1z M52.2,64.9C52.2,64.9,52.2,64.9,52.2,64.9
		C52.2,64.9,52.2,64.9,52.2,64.9C52.2,64.9,52.2,64.9,52.2,64.9C52.2,64.9,52.2,64.9,52.2,64.9C52.2,64.9,52.2,64.9,52.2,64.9
		C52.2,64.9,52.2,64.9,52.2,64.9z M53.2,50.2c0,0.2,0.1,0.3,0.1,0.5c0,0.1,0,0.1,0,0.2c0,0.1,0,0.1,0,0.2c0,0,0,0.1,0,0.1l-0.1-0.4
		L53,50.5c0,0,0,0,0.1,0c0,0,0,0,0-0.1c0,0-0.1,0-0.1-0.1V50v-0.1v-0.1c0,0-0.1,0-0.1,0c0,0,0,0,0,0l-0.1-0.1c0,0,0.1,0,0.1-0.1
		v-0.1c0,0,0.1,0,0.2,0c0,0,0,0,0-0.1c0,0,0,0,0,0c0-0.1,0-0.1,0-0.1c0,0.1,0,0.1,0,0.2c0,0.1,0,0.1,0,0.2
		C53.1,49.9,53.1,50,53.2,50.2z M53,48.3c0,0.1,0,0.1,0,0.2c0,0,0,0.1,0,0.1c0,0,0,0,0,0c0,0,0-0.1,0-0.1C53,48.5,53,48.4,53,48.3z
		 M47.8,65.9c-0.1,0-0.1,0.1-0.2,0.2C47.7,66,47.7,66,47.8,65.9z M47.5,66.1C47.5,66.1,47.5,66.1,47.5,66.1
		C47.6,66.1,47.6,66.1,47.5,66.1C47.5,66.1,47.5,66.1,47.5,66.1z M52.3,64.5C52.3,64.5,52.3,64.5,52.3,64.5L52.3,64.5
		C52.3,64.5,52.3,64.5,52.3,64.5C52.3,64.5,52.3,64.5,52.3,64.5C52.3,64.5,52.3,64.5,52.3,64.5C52.3,64.5,52.3,64.5,52.3,64.5z
		 M52.3,64.3C52.3,64.3,52.3,64.3,52.3,64.3c-0.1,0-0.1,0-0.2,0c0,0,0,0,0,0C52.1,64.2,52.2,64.2,52.3,64.3L52.3,64.3
		C52.3,64.2,52.3,64.2,52.3,64.3C52.3,64.2,52.3,64.2,52.3,64.3z M51.9,63.6C51.9,63.6,51.9,63.6,51.9,63.6
		C51.9,63.6,51.9,63.6,51.9,63.6L51.9,63.6z M44.3,44.9C44.3,44.9,44.2,44.9,44.3,44.9c-0.1-0.1-0.1-0.2-0.1-0.3
		c0.1,0.1,0.1,0.1,0.1,0.2C44.3,44.8,44.3,44.9,44.3,44.9z M45.7,58.9c0,0.3,0.1,0.6,0.1,0.9c0,0.1,0,0.2,0,0.4c0,0.2,0,0.4,0,0.5
		c0,0.2,0,0.4,0.1,0.6c0,0.2,0,0.4,0,0.6c0,0.1,0,0.3,0,0.4c0,0.3,0,0.6,0.1,0.9c0,0.4,0.1,0.8,0.1,1.2c0,0,0,0,0,0.1
		c0-0.1-0.1-0.3-0.1-0.4c0-0.1-0.1-0.2-0.1-0.4c-0.1-0.2-0.1-0.5-0.2-0.7c-0.1-0.2-0.1-0.4-0.2-0.7c0,0,0,0,0,0.1
		c0,0.2,0.1,0.4,0.2,0.7c0,0.1,0.1,0.2,0.1,0.3c-0.1-0.2-0.1-0.3-0.2-0.5c-0.1-0.3-0.1-0.5-0.2-0.8c0,0,0,0,0.1,0.1c0,0,0-0.1,0-0.1
		c0-0.1-0.1-0.1-0.1-0.2v-0.1c-0.2-0.6-0.3-1.2-0.4-1.9c0,0,0,0.1,0,0.1c0.1,0.7,0.2,1.3,0.4,1.9V62c0,0,0,0,0,0c0,0,0,0,0,0
		c-0.1-0.1-0.1-0.2-0.1-0.3c-0.2-0.6-0.3-1.2-0.4-1.9c-0.1-0.1,0-0.3-0.1-0.4c-0.1-0.1,0-0.3-0.1-0.4c-0.2-1-0.3-1.9-0.3-2.9
		c0-0.1,0.1-0.2,0.1-0.4c-0.1-0.8-0.1-1.7-0.2-2.5c-0.1-0.3,0-0.7-0.2-1C44,51.9,44,51.7,44,51.4c-0.2-1.5-0.1-3-0.1-4.5
		c0.1,0,0.1,0,0.2,0c0,0,0.1,0.1,0.1,0.1c0,0,0,0-0.1,0c0,1.4-0.1,3,0.1,4.5c0,0,0,0.1,0,0.2c0,0.2,0,0.4,0.1,0.6
		c0.1,0.2,0.1,0.4,0.1,0.6c0,0.1,0,0.3,0,0.4c0.1,0.7,0.1,1.6,0.2,2.5c0.1,0.1,0,0.1,0,0.2c0,0.1,0,0.1,0,0.2c0,0.5,0.1,1,0.1,1.5
		c0-0.4,0-0.9,0.2-1.3v-0.1c0,0,0-0.1,0-0.2c-0.1-0.8-0.2-1.8-0.2-2.5c0-0.1,0-0.3,0-0.4c0-0.2,0-0.4-0.1-0.6
		c-0.1-0.2-0.1-0.4-0.1-0.6c0,0,0-0.1,0-0.2c-0.2-1.5-0.2-3-0.1-4.5h0c0.2,0.2,0.3,0.4,0.5,0.6c0,0,0,0.1,0,0.1c0,0,0,0,0,0
		c0,0.3,0,0.5,0,0.7c0,0.3,0,0.5,0,0.8v0.1c0,0,0,0,0,0c0.1,1,0.1,1.8,0.2,2.8c0.1,0.2,0,0.5,0.1,0.7c0,0.5,0,0.9,0.1,1.4
		C45.4,56,45.6,57.4,45.7,58.9z M44.5,46.4C44.5,46.4,44.6,46.4,44.5,46.4C44.6,46.4,44.6,46.5,44.5,46.4c0.1,0.1,0.1,0.1,0.1,0.1
		C44.6,46.5,44.6,46.5,44.5,46.4z M44.4,45c0-0.1,0-0.2,0-0.3c0-0.1-0.1-0.1-0.2-0.2c0-0.1,0-0.1,0-0.2c0-0.1,0-0.2,0-0.2
		c0-0.1,0-0.1,0-0.2c0.1-0.4,0.1-0.9,0.2-1.4v0.1c0,0,0,0,0,0.1v0.1v0.1c0,0.1,0,0.3,0,0.4s0,0.2,0,0.3c0,0.2,0,0.3,0,0.5
		c0,0.1,0,0.2,0,0.4s0,0.4,0.1,0.6c0,0.2,0,0.3,0.1,0.5c0-0.1-0.1-0.2-0.2-0.3c-0.1,0-0.1-0.1-0.1-0.1S44.4,45.1,44.4,45z M44.7,46
		c0,0.1,0,0.1,0,0.2c0,0,0,0,0,0C44.7,46.1,44.7,46,44.7,46L44.7,46C44.7,45.9,44.7,46,44.7,46z M44.4,46.3L44.4,46.3L44.4,46.3
		C44.3,46.3,44.4,46.3,44.4,46.3C44.4,46.3,44.4,46.3,44.4,46.3z M46.5,65.6c0,0.1,0,0.1,0,0.2C46.5,65.8,46.4,65.7,46.5,65.6z
		 M46,59.6c0,0.2,0,0.5,0,0.7C46.1,60.1,46.1,59.8,46,59.6z M48.3,50.7C48.3,50.7,48.3,50.6,48.3,50.7
		C48.3,50.6,48.4,50.6,48.3,50.7C48.3,50.6,48.3,50.7,48.3,50.7C48.3,50.7,48.3,50.7,48.3,50.7z M52.7,65.5
		C52.7,65.5,52.7,65.5,52.7,65.5C52.7,65.5,52.7,65.5,52.7,65.5C52.7,65.5,52.7,65.5,52.7,65.5C52.7,65.5,52.7,65.5,52.7,65.5
		c-0.1-0.2-0.1-0.2-0.2-0.3c0,0-0.1-0.1-0.1-0.1c0,0,0,0,0,0c0,0,0-0.1,0-0.1c0.1,0,0.1,0,0.2,0c0,0,0,0.1,0.1,0.1c0,0,0-0.1,0-0.1
		c0,0,0,0,0,0c0,0,0.1-0.1,0.1-0.1c0.1,0.3,0.3,0.4,0.3,0.6c0,0.1,0,0.1-0.1,0.2c0-0.1-0.1-0.1-0.1-0.2
		C52.8,65.4,52.8,65.4,52.7,65.5z M48.2,37.9C48.2,37.9,48.3,37.9,48.2,37.9L48.2,37.9C48.2,37.9,48.2,37.9,48.2,37.9z M49.1,38.9
		C49.1,38.9,49.1,38.9,49.1,38.9C49.1,38.9,49.1,38.9,49.1,38.9C49.1,38.9,49.1,38.9,49.1,38.9z M45.1,45.5
		C45.1,45.5,45.1,45.5,45.1,45.5C45,45.4,45,45.1,45,44.9c0,0.1,0,0.3,0.1,0.4C45.1,45.4,45.1,45.4,45.1,45.5z M44.1,45.2
		c0.1,0,0.1,0,0.2,0.1c0,0.1,0,0.1,0,0.2c0,0,0.1,0,0.1,0c0,0,0,0,0,0.1c0.1,0.1,0.1,0.1,0.1,0.2c-0.1-0.1-0.1-0.2-0.1-0.2
		c0,0,0,0.1,0,0.1c0.1,0.1,0,0.2,0,0.3c0.1,0.1,0,0.2,0,0.3c0,0-0.1-0.1-0.1-0.1c0,0,0-0.1,0-0.1c0,0,0.1-0.1,0-0.2
		c0,0.1,0,0.1,0,0.2c0-0.1-0.1-0.2-0.2-0.3c0,0,0,0,0.1,0c0,0,0-0.1,0-0.1c0,0-0.1,0-0.1,0c0,0,0,0,0,0c0.1,0,0.1,0,0.2,0.1
		c0,0,0,0,0,0c0,0,0,0,0,0c0-0.1-0.1-0.2-0.2-0.2c0,0,0,0,0,0c0,0,0.1,0,0.1,0c0,0,0,0,0,0c0,0,0.1,0,0.1,0c0,0,0-0.1,0-0.1
		c0,0,0,0-0.1,0c0,0,0,0,0,0c0,0,0,0,0.1,0c0,0,0,0,0,0L44.1,45.2c0,0,0,0-0.1,0c0,0,0-0.1,0-0.1L44.1,45.2z M46.5,65.7
		C46.5,65.7,46.5,65.7,46.5,65.7c0-0.1,0-0.1,0-0.1c0,0,0,0,0,0C46.6,65.6,46.6,65.6,46.5,65.7z M47.9,47.8c0-0.1,0-0.3,0-0.4h0
		c0,0,0-0.1,0-0.1c0,0,0,0,0,0v-0.1c0,0,0,0.1,0.1,0.1c0,0,0,0.1,0,0.1h0c0,0,0,0,0,0.1c0,0,0,0,0-0.1h-0.1
		C47.9,47.5,47.9,47.7,47.9,47.8z M48.3,50.4C48.3,50.4,48.3,50.4,48.3,50.4C48.3,50.4,48.3,50.4,48.3,50.4
		C48.3,50.4,48.3,50.4,48.3,50.4z M47.5,56.3C47.5,56.2,47.5,56.2,47.5,56.3C47.5,56.2,47.5,56.2,47.5,56.3
		C47.5,56.2,47.5,56.3,47.5,56.3z M48.4,62.2C48.4,62.2,48.4,62.2,48.4,62.2C48.4,62.2,48.4,62.2,48.4,62.2
		C48.4,62.2,48.4,62.2,48.4,62.2z M48.2,65C48.2,65,48.1,65,48.2,65C48.1,65,48.2,65,48.2,65L48.2,65z M48.1,65.2c0,0.1,0,0.2,0,0.3
		c0,0.1-0.1,0.1-0.1,0.1v0c-0.1-0.1-0.1-0.1-0.1-0.1C47.9,65.4,48,65.3,48.1,65.2z M50.2,63.7c0.1-0.1,0.1-0.1,0.1-0.2
		c0.2-0.6,0.1-1.1,0.1-1.7c0-0.1,0-0.3,0-0.5c-0.1-0.5-0.1-1,0-1.6c0-0.1,0-0.2,0-0.3c0.1,0.2,0.1,0.3,0.1,0.4c0,0,0.1,0.1,0.1,0.1
		c0-0.2-0.1-0.4-0.1-0.6c-0.1-0.2-0.1-0.3-0.1-0.4c0-0.5,0-1.1,0-1.7c0-0.1,0-0.2,0-0.3c0-0.1,0.1-0.2,0-0.3c-0.1,0-0.1,0.1-0.1,0.2
		v0.1c-0.1-0.2-0.1-0.3-0.1-0.5c0,0,0-0.1,0-0.1c0.1-0.1,0-0.2,0.1-0.3c0,0,0,0,0,0c0.1,0.1,0,0.2,0,0.3c0.1,0,0-0.2,0.1-0.3
		c0.1,0,0.1,0.1,0.1,0.1c0,0,0,0,0,0c0,0.1,0,0.2,0,0.3v0l0,0l0,0c0,0.2,0,0.4,0.1,0.6l0.1,0.1l0.1-0.1c0,0.1,0,0.2,0,0.2
		c0,0.6,0,1.2,0,1.7c0,0.1,0,0.2,0.1,0.4l-0.1,0.1c-0.1,0.1-0.1,0.3-0.1,0.4c-0.1,0.6-0.1,1.1,0,1.6c0,0.2,0,0.3,0,0.5
		c0,0.6,0.1,1.1-0.1,1.7c0,0,0,0-0.1,0c-0.1,0.1-0.2,0.2-0.4,0.2L50.2,63.7z M50.3,63.9c0.1-0.1,0.2-0.1,0.3-0.1
		c0,0-0.1,0.1-0.1,0.1v0c0,0-0.1,0-0.1,0V64C50.3,64,50.3,63.9,50.3,63.9z M52.6,66.3C52.6,66.3,52.6,66.3,52.6,66.3
		C52.5,66.2,52.5,66.2,52.6,66.3c0,0,0.2,0.1,0.3,0.1C52.8,66.4,52.7,66.4,52.6,66.3z M52.6,64.3C52.6,64.3,52.6,64.3,52.6,64.3
		C52.6,64.3,52.6,64.3,52.6,64.3C52.6,64.3,52.6,64.3,52.6,64.3z M52.6,58.4C52.6,58.4,52.6,58.3,52.6,58.4
		C52.6,58.3,52.6,58.3,52.6,58.4L52.6,58.4C52.6,58.3,52.6,58.4,52.6,58.4z M55.8,47.9C55.8,47.9,55.8,47.9,55.8,47.9
		C55.8,47.9,55.8,47.9,55.8,47.9c0-0.1,0-0.1,0-0.2C55.8,47.8,55.8,47.9,55.8,47.9C55.8,47.9,55.8,47.9,55.8,47.9z M55.9,47.6
		c0-0.1,0-0.1,0-0.2c0-0.1,0-0.1,0.1-0.2c0,0,0,0.1,0,0.1C55.9,47.5,55.9,47.6,55.9,47.6z"/>
	<path fill-rule="evenodd" clip-rule="evenodd" fill="#E6A300" d="M52.6,65C52.6,65,52.6,65,52.6,65c0,0.2,0.1,0.2,0.1,0.3
		c0,0,0.1,0.1,0.1,0.1c0,0,0,0,0-0.1C52.8,65.2,52.7,65.1,52.6,65z"/>
</g>
<g>
	<path fill="#E6A300" d="M57.5,32.4c-0.1-0.1-0.1-0.2-0.2-0.3C57.3,32.3,57.5,32.5,57.5,32.4z"/>
	<path fill="#E6A300" d="M47,26.5c0.1-0.1,0.2-0.1,0.2-0.1c0.1,0,0.2-0.1,0.3-0.2c0,0,0,0-0.1,0C47.2,26.2,47.2,26.2,47,26.5z"/>
	<path fill="#E6A300" d="M57.6,32.9C57.6,32.9,57.6,32.8,57.6,32.9c-0.2-0.4-0.3-0.7-0.4-0.9c0,0,0.1,0.1,0.1,0.1
		c-0.4-0.7-0.6-1-1.2-1.8c-0.2-0.3-0.4-0.5-0.4-0.6c-0.1-0.3-1.7-1.9-3.2-3.1c-0.4-0.4-0.7-0.6-1.7-1.4c0,0-0.1-0.1-0.1-0.1
		c-0.1-0.1-0.2-0.1-0.3-0.2c-0.2-0.2-0.4-0.3-0.5-0.5c0,0,0-0.1,0.1-0.1c0.1-0.1,0.1-0.2,0.1-0.2c0,0-0.1,0.1-0.1,0.2
		c0-0.1,0.1-0.1,0.1-0.2c0,0,0,0,0,0c0,0,0-0.1,0-0.1c0,0,0,0,0,0c0-0.1,0-0.1-0.1-0.2c-0.2-0.1-0.4,0.1-0.5-0.1
		c-0.4-0.3-0.7-0.7-1.3-0.7c0,0-0.2,0-0.4,0c-0.1,0-0.3,0-0.3,0.2c-0.2,0-0.2,0-0.3,0.1c-0.1,0.2-0.1,0.4,0.1,0.6l0.1,0.1
		c0,0,0,0.1-0.1,0.2c-0.1,0.1-0.2,0.2-0.2,0.3c0,0,0,0,0,0c-0.1,0-0.2-0.3-0.4-0.2c-0.1,0.1-0.1,0.2-0.2,0.3
		c-0.2-0.2-0.3-0.1-0.4,0.1c-0.1,0.1-0.1,0.2-0.2,0.2c-0.1,0-0.1,0.1-0.1,0.2c0,0.1-0.1,0.3-0.6,0.6c-0.2,0.1-0.5,0.3-0.7,0.4
		c-0.3,0.2-0.4,0.3-0.6,0.6c-0.1,0.2-0.4,0.4-0.5,0.6c-0.3,0.3-0.3,0.4-0.3,0.6c0.1,0.3,0.9,1.4,1.4,1.8c0.2,0.2,0.3,0.3,0.3,0.3
		s0.7,0.5,1.5,1c-0.5-0.1-1-0.2-1.4,0.1c-0.2,0.1-0.5-0.1-0.8-0.1c-0.4-0.1-0.9-0.1-1.1,0.3c0,0,0,0,0,0.1c-0.1,0-0.3,0.1-0.3,0.1
		c-0.2,0.2-0.2,0.6,0,0.8s0.6,0.3,1.1,0.3s0.8-0.1,1.1-0.3c0.1-0.1,0.2-0.1,0.2-0.1c0.1,0,0.2,0.1,0.4,0.2c0.5,0.3,0.9,0.3,1.4,0
		l0.3-0.1l0.3,0.1c0.5,0.2,0.9,0.2,1.4,0c0.3-0.1,0.3-0.1,0.5,0c0.2,0.1,0.8,0.2,1,0.2c0.1,0,0.4,0,0.5-0.1l0.3-0.1l0.2,0.1
		c0.1,0,0.4,0.1,0.6,0.1c0.3,0,0.5,0,1-0.2c0.2,0,0.2,0,0.4,0.1c0.3,0.1,0.5,0.2,0.8,0.1c0.3-0.1,0.4-0.2,0.5-0.4
		c0.1-0.1,0.2-0.2,0.2-0.4c0.1-0.1,0.1-0.3,0-0.4c-0.1-0.1-0.3-0.2-0.5-0.2c-0.5-0.1-1,0-1.6,0.1c-0.3,0.2-0.6-0.2-0.9-0.2
		c-0.4,0-0.9,0-1.3,0.1c-0.2,0.1-0.4,0-0.4-0.3c0-0.4-0.3-0.8-0.5-1.2c-0.3-0.3-0.7-0.3-1-0.6c-0.2-0.1-0.3-0.3-0.5-0.3
		c-0.2,0.3-0.6,0.2-0.8,0c-0.2-0.2-0.5-0.3-0.7-0.5c-0.1-0.1-0.2-0.1-0.3-0.1c0-0.1-0.1-0.1-0.1-0.2c-0.1-0.1-0.2-0.1-0.2-0.1
		c0,0,0,0,0,0c0-0.1,0-0.3,0-0.4c0-0.1,0.1-0.2,0.2-0.2c0.3-0.2,0.4-0.3,0.5-0.5c0.1-0.1,0.1-0.1,0.1-0.2c0,0-0.1,0-0.1,0.1
		c-0.1,0-0.2,0.2-0.3,0.3s-0.2,0.3-0.4,0.4c-0.2,0.1-0.3,0.2-0.3,0.3c0,0,0-0.1,0-0.1c0.1-0.3,0.4-0.4,0.5-0.6
		c0.3-0.3,0.6-0.6,0.8-0.9c0.1-0.1,0.2-0.1,0.3-0.1c0,0,0.1,0.1,0.1,0.1c0,0,0,0.1,0,0.1c0.1,0,0.2,0,0.2-0.1c0-0.1,0.1-0.2,0.2-0.2
		c0.2-0.1,0.2-0.3,0.1-0.4s-0.1-0.1,0-0.2c0.1-0.1,0.1-0.1,0.5-0.1s0.4,0,0.5,0.1c0.1,0,0.2,0.1,0.2,0.1c0.1,0,0.3-0.1,0.3-0.2
		c0-0.2,0.1-0.1,0.8,0.4c0,0,0.1,0,0.1,0.1c1.4,1.1,2.7,2.3,4,3.5c0.5,0.6,1,1.2,1.6,1.8c0.4,0.5,0.9,1,1.3,1.6
		c0.1,0.3,0.2,0.5,0.2,0.6C57.9,33.2,57.8,33.2,57.6,32.9z M47.8,25.9c0,0.1-0.2,0.1-0.2,0.1c0-0.1,0.2-0.2,0.2-0.2
		S47.8,25.8,47.8,25.9z M47.9,25.2c0.1,0,0.1-0.1,0.2-0.1C48,25.2,48,25.3,47.9,25.2z M49.4,25C49.4,25,49.4,25,49.4,25
		c0.1,0,0,0.1,0,0.1C49.2,25.3,49.3,25.2,49.4,25z"/>
	<path fill="#E6A300" d="M46.9,26.6C46.9,26.6,46.9,26.6,46.9,26.6C47,26.6,47,26.6,46.9,26.6c0-0.1-0.1,0-0.1,0H46.9z"/>
</g>
<g>
	<path fill="#E6A300" d="M36.6,64.2C36.6,64.2,36.6,64.2,36.6,64.2C36.6,64.2,36.6,64.2,36.6,64.2z"/>
	<path fill="#E6A300" d="M36.4,63.9c0.1,0.1,0.1,0.2,0.2,0.4C36.5,64.1,36.5,64,36.4,63.9z"/>
	<path fill="#E6A300" d="M36.6,64.2c0.5,0.9,1.2,2.1,2.5,3.7C37.9,66.4,37.1,65.1,36.6,64.2z"/>
	<path fill="#E6A300" d="M33.9,56.1c0,0.1,0,0.2,0.1,0.3C34,56.3,33.9,56.2,33.9,56.1z"/>
	<path fill="#E6A300" d="M49.7,77.1L49.7,77.1L49.7,77.1C49.8,77.1,49.7,77.1,49.7,77.1L49.7,77.1z"/>
	<path fill="#E6A300" d="M34,56.4c0,0.1,0.1,0.2,0.1,0.4C34.1,56.6,34,56.5,34,56.4z"/>
	<path fill="#E6A300" d="M39.1,67.9c0.2,0.3,0.5,0.6,0.7,0.9C39.5,68.5,39.3,68.2,39.1,67.9z"/>
	<path fill="#E6A300" d="M69.6,43l0.5-0.2h-0.5c0,0-0.2,0-0.5,0.2c0,0,0,0,0,0l0,0c-0.1,0.1-0.1,0.1-0.2,0.2
		c0.2-0.5,0.5-1.1,0.8-1.7c0.3-0.6,0.4-1.1,0.2-1.5c-0.2-0.4-0.6-0.6-0.6-0.6l0,0c-0.1-0.1-0.2-0.1-0.2-0.1v0.1l-2.9,0.4
		c-2,2.1-1.2,6-0.4,11c0.6,3.9,0.8,4.6,0.2,7.1l-0.6-0.2c-0.1,0-0.4,0.1-0.7,0.4c-0.3,0.2-0.7,0.6-0.8,1.2c-0.8,4.2-0.8,6.1-4.3,9.7
		c-3.5,3.4-6.1,3.4-7.3,3.4c-0.1,0-0.1,0-0.2,0c-0.3,0-0.6,0.1-0.7,0.3c0,0,0,0,0,0c-0.3,0.3-0.2,0.9-0.1,1.1
		c-0.6,0.1-1.1,0.1-1.5,0.1V74c0,0-0.1,0-0.1,0v-0.1c-0.4,0-1,0-1.5-0.1c0.1-0.2,0.2-0.8-0.1-1.1c-0.2-0.2-0.4-0.3-0.7-0.3
		c-0.7,0-3.8-0.2-6.5-2.5c2.7,2.4,6,2.6,6.7,2.6c0.2,0,0.3,0.1,0.4,0.2c0.1,0,0.1,0.1,0.1,0.1c0,0.1,0,0.1-0.1,0.2
		c-0.1-0.3-0.2-0.5-0.6-0.5c-1.1,0-4.9-0.3-7.7-3.6c-2.7-3.3-3.7-5.4-3.9-6.4c0,0,0,0,0,0c0.1,0.3,0.2,0.7,0.6,1.4
		c-0.3-0.6-0.4-1-0.5-1.3c0.1-0.1,0.4-0.1,0.6-0.2c0.2,0,0.3-0.2,0.4-0.5c-0.1,0.2-0.2,0.3-0.2,0.3c0,0-0.1,0-0.1,0
		c0.3-0.2,0.6-1,0.2-2.3c-0.2-0.7-0.4-1.2-0.7-1.6c0.3,0.3,0.5,0.8,0.8,1.7c0.1,0.3,0.1,0.6,0.2,0.8c0-0.3-0.1-0.6-0.2-0.9
		c-0.4-1.4-0.9-2.2-1.8-2L34.6,58c-0.2-0.4-0.4-0.8-0.5-1.3c0.1,0.5,0.3,1,0.6,1.4l0,0c-0.9-1.4-1.3-3.7-0.7-7.4
		c0.7-4.5,1.5-8.1,0.1-10.3c0.9,1.4,0.9,3.3,0.7,5.6c0.3-2.8,0.3-5-1.1-6.4l-3-0.4c0,0-0.4,0.1-0.6,0.5c-0.2,0.3-0.1,0.7,0.1,1.1
		c0,0,0,0,0,0c0.6,1.2,0.6,1.2,0.1,2.2c-0.4,1-0.1,1.6,0.6,2.2c0,0,0,0-0.1-0.1c0.1,0.1,0.2,0.1,0.3,0.2l0.1-0.2
		c0,0-0.5-0.7,0.2-1.4l0.4,0.6c-0.1,1.3-0.3,3-0.8,5.7c-1.1,5.6,0.4,9.3,1.9,10l0,0c0.1,0,0.1,0.1,0.2,0.1l0.7-0.2
		c0.2,0.4,0.3,0.9,0.3,1.4l-0.7,0.3v0l-0.2,0.1c0,0-0.4,0.9-0.1,1.6c0.2,0.7,1.2,4.2,4.3,7.3c1.7,1.7,3.1,2.8,4.7,3.5
		c1.4,0.7,2.9,1.1,4.6,1.1v0.8c0,0.4,0.5,0.6,1.2,0.7c0.5,0.1,1.2,0.1,1.9,0.1V77c0,0,0.1,0,0.1,0v0.1c1.5,0,2.9-0.1,2.8-0.8v-0.7
		c3.9-0.1,6.5-1.4,9.5-4.6c3.6-3.9,4.4-8.7,4.7-10.5c0.1,0.1,0.4,0.2,0.6,0.2h0.1c0.3,0,0.5,0,0.7-0.2c0.1,0,0.2,0,0.2-0.1
		c0-0.1,0-0.1,0-0.1l0.3-0.8c0.1-0.1,0.1-0.1,0.1-0.2l0.1-0.2c0-0.1,0-0.1,0-0.1c1.1-3.1,0-8.6-0.1-8.8c-0.5-2.2-0.7-3.6-0.8-4.8
		c0.2,0,0.5,0.1,0.7,0c0,0,0,0,0,0c0.2,0,0.3,0,0.5-0.1c0.3-0.1,0.5-0.3,0.5-0.5c0.1-0.2,0-0.5-0.2-0.8C69.1,43.4,69.5,43.1,69.6,43
		z M48.1,73.6c0-0.1,0-0.1,0-0.2c0,0,0,0,0,0C48.1,73.5,48.1,73.6,48.1,73.6z M36.2,62.4C36.2,62.4,36.3,62.4,36.2,62.4
		c0.1,0,0.1,0,0.1,0C36.3,62.4,36.2,62.4,36.2,62.4z M33.8,40.1c0-0.1-0.1-0.1-0.1-0.2l0,0C33.7,40,33.8,40.1,33.8,40.1z M30.8,44.8
		c-0.1-0.1-0.2-0.2-0.2-0.4c0-0.3,0.2-0.6,0.5-0.8l0,0.1C30.8,44.1,30.7,44.5,30.8,44.8z M51.9,76.6c0.1-0.1,0.2-0.2,0.2-0.3v-0.9
		c0.1,0,0.2,0,0.3,0v0.8C52.4,76.4,52.2,76.5,51.9,76.6z M62,70.7c-1.6,1.6-3,2.7-4.6,3.4c1.4-0.7,2.8-1.8,4.2-3.3
		c0.8-0.8,1.4-1.6,1.9-2.5c0,0,0.1,0,0.1-0.1c0,0,0,0,0,0c0,0,0,0,0,0v0l0.1-0.1c0-0.1,0.1-0.1,0.1-0.2c0.1-0.1,0.1-0.1,0.1-0.2
		c0.3-0.5,0.5-1,0.7-1.4c0.1,0,0.2,0,0.2-0.1c0.1-0.1,0.2-0.4,0.1-0.4c0,0,0,0-0.1,0.1L64.7,66c0.8-1.8,1.2-3.5,1.4-4.9c0,0,0,0,0,0
		c0,0,0,0,0,0c0.1-0.3,0.1-0.5,0.1-0.8c0,0,0.2,0.1,0.4,0.1C66.3,62.3,65.5,67,62,70.7z M68.6,50.3c0,0.1,1.3,6,0.1,8.9
		c-0.1,0.1-0.2,0.3-0.2,0.4c-0.4,0.7-0.6,0.7-0.8,0.7c0.1-0.1,0.2-0.3,0.4-0.6c0-0.1,0.1-0.2,0.2-0.4c0.4-1.1,0.5-2.5,0.5-3.9
		c0-0.4,0-0.5,0-0.7c0-0.2,0-0.3,0-0.2c-0.1-0.9-0.2-1.8-0.3-2.5c0,0,0,0,0-0.1c0-0.1,0-0.3-0.1-0.4c-0.1-0.7-0.2-1.1-0.2-1.1
		c-0.4-1.8-0.6-3.1-0.7-4.2c0-0.1,0-0.1,0-0.2c0,0.1,0,0.1,0,0.2c0-0.1,0-0.2,0-0.2c0,0,0,0,0,0.1c0-0.2,0-0.3,0-0.4
		c0-0.1,0-0.1-0.1-0.1c0-0.1,0-0.2,0-0.3c0,0,0.2,0.1,0.5,0.2C68,46.6,68.2,48.1,68.6,50.3z M69.2,45.2l0.1-0.1
		c-0.1-0.1-0.1-0.1-0.2-0.2c0.1-0.2,0-0.4-0.2-0.6c0-0.3,0.1-0.6,0.2-0.8c0,0.2,0.1,0.4,0.2,0.7c0.2,0.2,0.2,0.4,0.2,0.6
		S69.4,45.1,69.2,45.2z"/>
	<path fill="#E6A300" d="M34,50.8c-0.3,2.2-0.3,3.9-0.1,5.3c-0.2-1.4-0.2-3.1,0.1-5.2c0.1-0.5,0.1-0.9,0.2-1.4
		c0.2-1.2,0.4-2.3,0.5-3.4c-0.1,1-0.3,2.1-0.5,3.3C34.1,49.9,34.1,50.3,34,50.8z"/>
	<path fill="#E6A300" d="M36.9,61.9c0.1-0.2,0.2-0.6,0.1-1.1C37.1,61.3,37,61.6,36.9,61.9z"/>
	<path fill="#E6A300" d="M40.9,69.9c-0.4-0.3-0.8-0.7-1.1-1.1C40.2,69.2,40.5,69.6,40.9,69.9z"/>
</g>
<g>
	<path opacity="0.2" enable-background="new    " d="M10.4,74.3V25.8c0-12.1,8.2-22.7,19.8-25.8H0v100h30.2
		C18.5,96.9,10.4,86.3,10.4,74.3z"/>
	<path opacity="0.1" fill="#FFFFFF" enable-background="new    " d="M89.6,25.8v48.5c0,12.1-8.2,22.7-19.8,25.8H100V0H69.8
		C81.5,3.1,89.6,13.7,89.6,25.8z"/>
</g>
</svg>
