<?xml version="1.0" encoding="utf-8"?>
<!-- Generator: Adobe Illustrator 23.0.0, SVG Export Plug-In . SVG Version: 6.00 Build 0)  -->
<svg version="1.0" id="Layer_1" xmlns="http://www.w3.org/2000/svg" xmlns:xlink="http://www.w3.org/1999/xlink" x="0px" y="0px"
	 width="100px" height="100px" viewBox="0 0 100 100" enable-background="new 0 0 100 100" xml:space="preserve">
<g id="g5837" transform="matrix(10.084034,0,0,10,0,-3600)">
	<g id="path82">
		<path fill="#AB0635" d="M0,370h9.9v-10H0V370z"/>
	</g>
	<g id="path86">
		<path fill="#FFFFFF" d="M0,370h9.9v-6.7H0V370z"/>
	</g>
	<g id="path84">
		<path fill="#004B8D" d="M0,370h9.9v-3.3H0V370z"/>
	</g>
</g>
<path fill-rule="evenodd" clip-rule="evenodd" fill="#004B8D" d="M77.6,42.6c4.1,15.2-5,30.9-20.2,35s-30.9-5-35-20.2l0,0
	c-4.1-15.2,5-30.9,20.2-35S73.5,27.4,77.6,42.6L77.6,42.6z"/>
<path fill="#FFFFFF" d="M70.8,44.4c3.1,11.5-3.8,23.3-15.2,26.4C44.1,73.9,32.3,67,29.2,55.6l0,0C26.2,44.1,33,32.3,44.4,29.2
	S67.7,32.9,70.8,44.4L70.8,44.4z"/>
<path fill="#C3A204" d="M64.5,61.7c-0.1-0.2-1.4-0.9-3.4-0.8c-0.3,0-0.6,0-0.9,0.1c-1.2,0.2-2,0.5-2.5,0.9c2.1-2,3.3-4.8,3.3-7.9
	c0-4.8-3.1-8.9-7.4-10.5c0,0,0-0.1,0-0.1c0-0.1,0-0.2-0.1-0.2h0c0-0.1-0.1-0.1-0.1-0.1c0,0,0,0,0-0.1c0-0.1,0-0.2-0.1-0.3
	c-0.2-0.2-0.4-0.1-0.4-0.1s0-0.1-0.1-0.2s-0.3,0-0.3,0s0-0.1-0.1-0.2c-0.1-0.1-0.4-0.1-0.5-0.1C51.8,42,51.8,42,51.7,42
	c0-0.1,0-0.3,0.1-0.4c1.3,0.9,2.2,0.8,2.4,0.7c0.2-0.1,0.3-0.3,0.3-0.3s0.5,0,0.6-0.1c0.3-0.2,0.3-0.3,0.3-0.3s0.4,0.1,0.8-0.1
	c0.4-0.2,1.2-0.9,1.2-0.9s0.2,0,0.5-0.1c0.3-0.1,0.2-0.4,0.5-0.5c0.2-0.1,0.3-0.2,0.2-0.3c0-0.1-0.1-0.2,0-0.5
	c0-0.1,0.1-0.1,0.2-0.2c0.1,0,0.1,0,0.2,0c0,0,0.1,0,0.1,0c0.2,0,0.4,0,0.4,0c0,0,0-0.1,0.1-0.1c0.1,0,0.3,0,0.3,0l0,0h0
	c0.3,0.1,0.3-0.2,0.3-0.3s-0.3-0.4-0.3-0.4s0.1-0.4,0.1-0.5c0-0.2-0.2-0.5-0.3-0.5c-0.1,0-0.1,0.3-0.1,0.4c0,0.1-0.3,0.3-0.4,0.4
	c-0.2,0.1-0.8,0-0.8,0c0-0.1-0.3-0.1-0.5-0.1c-0.2,0-0.3,0.2-0.3,0.2s0-0.1-0.3-0.2c-0.3,0-0.6,0.4-0.6,0.4c0.1-0.3,0-0.7,0-0.7
	c-0.2,0-0.6,0.3-0.7,0.5c-0.1,0.2-0.2,0.2-0.3,0.6c-0.1,0.4-0.3,0.7-0.3,0.7c0.1-0.1,0-0.4-0.1-0.7c0-0.3-0.1-0.4-0.3-0.4
	c-0.2-0.1-0.4,0.3-0.4,0.3s0,0-0.1-0.1c-0.1-0.2-0.2-0.3-0.4-0.3c-0.4,0-0.3,0.6-0.3,0.7c0,0.1,0.1,0.2,0.1,0.3c0.1,0.1,0,0.1,0,0.1
	c-0.4-0.1-0.5,0.1-0.5,0.3c-0.1,0.2,0.3,0.5,0.3,0.5s0.2,0.2-0.2,0.4c-0.4,0.1-0.6-0.1-0.7-0.3c0-0.1,0-0.3,0-0.4
	c0-0.1,0-0.3-0.1-0.4c0-0.2,0-0.3-0.1-0.4c-0.1,0-0.3-0.1-0.3-0.1s-0.5-0.7-0.8-1s-0.9-0.5-0.9-0.5c0-0.1-0.4-0.4-0.7-0.4
	c-0.4,0-0.7,0.3-0.7,0.4c0,0-0.6,0.2-0.9,0.5s-0.8,1-0.8,1s-0.2,0-0.3,0.1c0,0.1,0,0.1-0.1,0.2c0,0,0,0.1,0,0.1c0,0,0,0,0,0
	c0,0,0,0,0,0.1c0,0,0,0,0,0c0,0.2,0,0.4,0.1,0.6c0,0,0.1,0.1,0.1,0.2c-0.1,0.1-0.5,0.3-0.8,0.4c-0.4,0-0.5-0.1-0.6-0.2
	c-0.1-0.3,0.5-0.4,0.3-0.7c-0.2-0.3-0.4-0.1-0.6-0.2c-0.1-0.1,0-0.4,0-0.5s0-0.6-0.1-0.6c-0.1-0.1-0.5,0.2-0.5,0.3
	c0,0-0.4-0.6-0.8-0.5c0,0,0.1,0.2,0.1,0.4c0,0.2-0.2,0.4-0.2,0.6c0,0.2-0.1,0.3,0,0.4c0,0-0.3-0.1-0.2-0.5c0-0.4-0.2-0.9-0.4-1
	C43.3,38,43,37.9,42.9,38c0,0,0.2,0.7,0.1,0.8c0,0-0.5-0.5-0.7-0.6C42.1,38,41.9,38,41.8,38c0,0,0,0.2,0,0.3c0,0-0.4-0.1-0.5,0.1
	c0,0-0.1-0.1-0.4-0.1c-0.3,0-0.6,0.1-0.6,0.1S40,38.2,40.1,38c0-0.2,0-0.3,0-0.3s-0.6-0.2-0.7,0.5c-0.1,0.7,0.3,0.8,0.3,0.8
	s0,0.5,0.1,0.6c0.1,0.1,0.5,0.5,0.7,0.5c0,0,0-0.4,0.2-0.4s0.3,0.2,0.3,0.2c0,0.1-0.3,0.4-0.2,0.6c0.2,0.3,0.4,0.1,0.5,0.2
	c0.1,0.1,0,0.2,0.1,0.3c0.2,0.2,0.7,0,0.8,0.1c0.2,0.1,0.4,0.4,0.8,0.6c0.4,0.2,0.7,0.4,1.1,0.4c0,0-0.1,0.2,0.2,0.3s0.7,0,0.7,0
	s0,0.1,0.2,0.2c0.7,0.2,1.6-0.1,2.3-0.5c0.5-0.3,0.6-0.4,0.7-0.4c0,0,0,0.1,0,0.1c-0.1,0.2-0.2,0.3-0.3,0.3c-0.1,0.1-0.4,0-0.5,0.1
	c0,0.1-0.1,0.2-0.1,0.2c0,0-0.1,0-0.1,0c-0.1,0-0.1,0-0.2,0l-0.1,0.2c0,0-0.1,0-0.1,0c-0.1,0-0.2,0-0.3,0.1
	c-0.1,0.2-0.1,0.3-0.1,0.3c-0.1,0-0.1,0.1-0.1,0.2c0,0,0,0,0,0c0,0,0,0.1,0,0.1c0,0.1,0,0.1,0.1,0.2c-4.4,1.5-7.6,5.6-7.6,10.5
	c0,4.6,2.8,8.5,6.8,10.2c0,0.3,0.3,0.5,0.4,0.6c0,0,0.7,0.2,1.4,0.4c-2.3-0.4-4.3-1.4-5.2-1.9c0,0,0,0,0,0c0.1-0.2,0.3-1,0.1-1.1
	c0,0-0.1-0.1-0.1-0.1c0,0,0,0,0,0c0,0-0.1-0.1-0.1-0.1c-0.5-0.3-1.4-0.7-3.2-0.9c-2.3-0.2-3.2,0.3-3.4,0.5c0,0,0,0,0,0
	c0,0-0.1,0-0.1,0.1c-0.2,0.2,0.1,0.8,0.1,1c0,0.3-0.1,0.7,0.3,1.1c0.4,0.4,1.6,0.5,2,0.8c0.1,0,0.1,0.1,0.2,0.2
	c0.1,0.2,0.3,0.4,0.5,0.6c0.2,0.4,0.5,0.8,0.8,1.1c0.6,0.6,1.3,0.6,1.3,0.6H41l-0.3-0.2c-0.2-0.1-0.4-0.5-0.5-0.9
	c1,0.5,1.6,0.1,1.6,0.1h0.1v-0.3h-0.1c0,0-0.8-0.2-1.2-0.5c-0.3-0.3-0.6-0.8-0.8-1.2c-0.1-0.3-0.3-0.7-0.5-0.9
	c0.4,0.1,0.8,0.2,1.1,0.3c0,0,0,0,0,0c-0.1,0.2-0.1,0.4-0.1,0.6c0,0.1,0,0.1,0,0.1l-0.2,0.2l0.1,0.1c0,0,0.1,0,0.1,0.1v0l0,0
	c0.3,0.2,1,0.9,2.3,1.5c1.5,0.8,3.9,1.7,7.2,1.7c0,0,0.1,0,0.2,0c3.2,0,5.5-0.7,6.8-1.3c1.5-0.7,2.3-1.5,2.3-1.5l0.1-0.3
	c0.2-0.3,0.1-0.8,0-1.1c0.4-0.1,1-0.2,1.5-0.2c0,0,0,0,0,0c-0.6,0.4-1.3,1.4-1.6,1.9c-0.4,0.6-1,0.9-1,0.9v0.2
	c0.5,0,0.9-0.1,1.2-0.2c0,0.1,0,0.1,0,0.2c-0.1,0.1-0.1,0.3-0.1,0.4C59,66.7,59,66.8,59,66.8c-0.1,0.2-0.2,0.4-0.2,0.4l-0.1,0.2h0.1
	c0.8,0,1.8-1.3,2.5-2.2c0.3-0.4,0.6-0.7,0.7-0.8c0.3-0.2,0.8-0.3,1.1-0.3c0.2,0,0.2,0,0.3,0c0,0,0,0,0.1,0c0.3-0.1,0.6-0.1,0.6-0.3
	c0,0,0,0,0-0.1c0.2-0.1,0.3-0.5,0.4-0.7c0.1,0,0.1-0.1,0.1-0.2C64.7,62.5,64.6,61.9,64.5,61.7z"/>
<g id="path366">
	<path fill="#004B8D" d="M42.3,53.8c0.1-4.1,3.4-7.4,7.5-7.5v0.1v7.4H42.3L42.3,53.8"/>
</g>
<g id="path368">
	<path fill="#CE1126" d="M49.8,61.7c-4.1-0.1-7.4-3.4-7.5-7.5h7.5V61.7L49.8,61.7"/>
</g>
<g id="path378">
	<path fill="#FFFFFF" d="M50.1,61.7c4.2-0.1,7.5-3.5,7.5-7.7s-3.3-7.6-7.5-7.7v0.1V61.7L50.1,61.7"/>
</g>
<path fill="#9A4A23" d="M46.2,43.1c-0.2-0.2-0.4-0.3-0.8-0.3c-0.3,0.1-0.5,0.2-0.6,0.2c-0.1,0-0.5,0-0.7,0c-0.2,0.1-0.8,0.2-1,0.3
	c-0.2,0.1-0.5,0.4-0.7,0.5c-0.2,0.1-1.4,0.3-1.6,0.6c0,0-1.1-0.2-1.3-0.5c0,0,0.3-0.2,0.4-0.5c0,0,0.4,0,0.5-0.1
	c0.1-0.1,0.5-0.5,0.5-0.9c0.1-0.3-0.1-0.4-0.1-0.4l-0.5-0.6c0,0,0-0.6-0.3-0.9c-0.3-0.3-0.7-0.5-0.7-0.5s0-0.2-0.1-0.3
	c0-0.1,0-0.2,0-0.3c-0.1-0.1-0.2-0.2-0.4-0.1c-0.3,0-0.6,0-0.6,0.2l-0.1-0.2c0,0-0.2-0.6-0.6-0.5c-0.3,0.1-0.6,0.2-0.8,0.4
	c0,0,0,0,0,0c-0.2,0.1-0.3,0.3-0.3,0.4l0,0.1c0,0-0.2,0.2-0.5,0.3c-0.2,0.1-0.6,0.1-0.7,0.3c-0.1,0.1-0.5,0.5-0.9,0.9
	c-0.5,0.6-1.3,1-1.5,1.4C32.5,43,32,44.3,32,44.8c0,0.5,0.1,1.6,0,2.2c-0.1,1-0.2,1.7-0.6,2.8c-0.2,0.5-0.5,1.6-0.5,2
	s-0.1,2.1,0.2,2.8c0.3,0.7,0.7,1.2,0.9,1.5c0.1,0.3,0.4,1.2,0.4,1.7c0.1,0.5,0.6,1,0.8,1.3c0.2,0.2,0.4,0.8,0.6,1
	c0.1,0.2,0.2,0.3,0.3,0.5c0,0.1-0.1,0.9,0.5,1c0.6,0.1,0.8,0.2,0.8,0.2s0.2-0.2,0.4-0.3c0.1,0,0.2-0.1,0.3-0.1c0.1,0,0.2,0,0.3-0.1
	c0.4-0.1,1-0.1,2.2,0c1,0,1.5,0.2,1.5,0.2s0.1-0.4,0-0.5c-0.1,0-0.1-0.1-0.2-0.2c0,0,0,0,0,0c-0.1-0.1-0.2-0.2-0.3-0.2
	c-0.1-0.1-0.3-0.3-0.4-0.3c-0.1,0-0.1,0-0.1,0c0,0,0.4-0.8,0.3-1.8c-0.1-0.9-0.1-1-0.1-1S39,56.1,38.9,54c0-1,0.6-3.5,0.6-3.5
	s0.4,0.4,0.6,0.5c0.2,0,0.6-0.2,0.7-0.3c0.3-0.3,0.3-0.6,0.2-0.9c-0.1-0.3-0.1-0.9-0.5-1.6c0,0,0.6-1.2,2.4-2.7
	c1.8-1.5,3.2-1.8,3.2-1.8S46.4,43.3,46.2,43.1z"/>
<path fill="#9A4A23" d="M68.5,51.9c-0.2-1.1-0.7-2.1-1-2.6c0,0,0-0.1,0-0.1c-0.4-1.1-0.3-2.2-0.5-3.4c-0.1-0.4-0.3-0.7-0.4-1.1
	c-0.1-0.2-0.2-0.4-0.3-0.6c-0.3-0.7-1.5-1.7-1.8-2c-0.1-0.1-0.2-0.2-0.2-0.2c0,0,0,0,0,0c-0.2-0.3-0.3-0.6-0.7-0.8
	c-0.5-0.4-1-0.6-1-0.6v0l0,0c0.1-0.1,0.1-0.3,0-0.4c0,0,0,0-0.1-0.1c-0.1-0.3-0.4-0.5-0.8-0.6c-0.6-0.2-0.8,0.2-0.8,0.2
	c-0.2,0-0.7,0.1-0.7,0.1c-0.1-0.3-0.5-0.3-1-0.2c-0.2,0-0.5,0.1-0.6,0.2c-0.1,0.1-0.1,0.7-0.1,0.7s-1,0.8-1,1.1
	c-0.1,0.4-0.1,0.7-0.1,0.7s-0.5,0.4-0.6,0.5c-0.1,0.1-0.3,0.3-0.2,0.6c0.2,0.3,0.9,0.8,1.1,0.8s1,0,1,0c0.3,0.2,0.7,0.3,0.7,0.3
	c-0.1,0.5,0.1,0.9,0.1,0.9c-0.3,0.1-0.7,0.2-0.7,0.2c0-0.1,0-0.1-0.1-0.2c0-0.1-0.1-0.1-0.1-0.1c-0.2-0.1-0.5-0.3-0.7-0.5
	c-0.6-0.4-1.2-0.8-2-1c-0.3-0.1-0.6-0.2-0.9-0.4c-0.1-0.1-0.2-0.2-0.3-0.3s-0.2-0.2-0.3-0.3c-0.2-0.1-0.4,0-0.6,0.2
	c-0.2,0.1-0.3,0.3-0.4,0.5c-0.2,0.2,0,0.4,0,0.4s3.5,1.3,5,3.5c1.6,2.3,2,3.8,2,3.8c-0.2,0.6-0.6,0.7-0.9,1.3
	c-0.3,0.6-0.1,1-0.1,1.4s0.5,0.7,0.7,0.7c0.3,0,0.5-0.2,0.5-0.3c0.1-0.2,0.3-0.2,0.3-0.2c0,1.6-0.3,3-0.3,3s0,0.3,0,1
	c0,0.7,0.5,2.2,0.5,2.2c-0.4,0-0.7,0.4-0.8,0.6c-0.1,0.3,0,0.4,0,0.4S60.6,61,62,61c0.4,0,0.8,0.1,1.1,0.1c0.2,0.1,0.3,0.1,0.5,0.1
	c0.4,0.1,0.6,0.3,0.6,0.3s0.2,0.1,0.4,0c0.2-0.1,0.2-0.3,0.3-0.5c0.1-0.1,0.2-0.2,0.3-0.3c0.1-0.1,0.1-0.1,0.2-0.3
	c0.3-0.4,0.6-1.5,0.6-1.5c0,0,0-0.1,0.1-0.1c0.1,0,0.2-0.1,0.2-0.2c0.1-0.2,0.2-0.4,0.3-0.6c0.1-0.1,0.2-0.2,0.2-0.3
	c0.1-0.1,0.2-0.6,0.2-0.6v0c0,0,0,0,0,0l0.2-0.2c0.3-0.6,0.8-0.6,1.1-1.5C68.6,54.5,68.7,53.3,68.5,51.9z"/>
<g>
	<path opacity="0.2" enable-background="new    " d="M10.4,74.3V25.8c0-12.1,8.2-22.7,19.8-25.8H0v100h30.2
		C18.5,96.9,10.4,86.3,10.4,74.3z"/>
	<path opacity="0.1" fill="#FFFFFF" enable-background="new    " d="M89.6,25.8v48.4c0,12.1-8.2,22.7-19.8,25.8H100V0H69.8
		C81.5,3.1,89.6,13.7,89.6,25.8z"/>
</g>
<path fill="#0083A9" d="M49.9,37.7c1.2,0.1,1.2-0.9,1.6-0.9s0.7,0.9,1.4,0.7c0.9-0.2,0.8-1,1.4-1c0.4,0,0.5,0.5,1.1,0.6
	c0.6,0,0.8-0.6,1.2-0.6c0.3,0,0.5,0.2,1.1,0.8c0.4,0.3,0.9,0.3,1.6-0.4c0.4-0.4,0.9-0.2,1.1,0.1c0.2,0.3,0.3,0.8,0.8,1
	c0.4,0.1,0.7-0.2,1.1-0.3c0.4-0.1,1.1,0.8,1.6,0.4c0.3-0.3,0.6-0.6,0.2-1.2L64,36.7c-3.5-3.7-8.5-6.1-14.1-6.1s-10.6,2.3-14.1,6.1
	l-0.1,0.1c-0.4,0.6-0.2,0.9,0.2,1.2c0.5,0.4,1.2-0.5,1.6-0.4c0.4,0.1,0.8,0.5,1.1,0.3c0.5-0.2,0.6-0.6,0.8-1
	c0.2-0.3,0.7-0.5,1.1-0.1c0.7,0.6,1.2,0.6,1.6,0.4c0.7-0.6,0.8-0.8,1.1-0.8c0.4,0,0.5,0.7,1.2,0.6c0.6,0,0.8-0.6,1.1-0.6
	c0.5,0,0.5,0.8,1.4,1c0.8,0.2,1-0.7,1.4-0.7C48.8,36.8,48.8,37.8,49.9,37.7L49.9,37.7"/>
</svg>
