<?xml version="1.0" encoding="utf-8"?>
<!-- Generator: Adobe Illustrator 23.0.0, SVG Export Plug-In . SVG Version: 6.00 Build 0)  -->
<svg version="1.0"
	 id="svg1" xmlns:cc="http://creativecommons.org/ns#" xmlns:dc="http://purl.org/dc/elements/1.1/" xmlns:rdf="http://www.w3.org/1999/02/22-rdf-syntax-ns#" xmlns:svg="http://www.w3.org/2000/svg"
	 xmlns="http://www.w3.org/2000/svg" xmlns:xlink="http://www.w3.org/1999/xlink" x="0px" y="0px" viewBox="0 0 100 100"
	 enable-background="new 0 0 100 100" xml:space="preserve">
<rect id="rect1707" fill-rule="evenodd" clip-rule="evenodd" fill="#0033A0" width="100" height="100"/>
<path id="path4202" fill="#00843D" d="M36,39.3c-0.2,0-0.3-0.2-0.5-0.3c-0.2-0.2-0.5-0.5-0.9-1.1c-0.4-0.5-0.7-0.8-0.9-0.9
	c-0.5-0.3-1.3-0.5-2.1-0.5c-0.2,0-0.3,0-0.6,0.1c-0.2,0.1-0.3,0.1-0.5,0.2c-0.1,0.1-0.2,0.1-0.1,0.1c0.5,0.1,1,0.1,1.1,0.1
	s0.1,0,0.2,0c0.7,0.1,1.2,0.3,1.6,0.4c0.2,0.1,0.4,0.2,0.5,0.3s0.1,0.1-0.1,0.2c-0.1,0-0.2,0-0.2,0s0,0,0.2,0.2
	c0.3,0.2,0.4,0.3,0.5,0.5s0.2,0.3,0.1,0.3c0,0-0.2-0.1-0.3-0.1c-0.3,0-0.4,0-0.6-0.1c-0.2-0.1-0.3-0.1-0.4-0.1c-0.1,0-0.1,0,0.1,0.2
	c0.2,0.2,0.2,0.3,0.3,0.3c0.1,0.1,0.1,0.2,0,0.2c-0.2,0-0.5-0.2-0.6-0.3s-0.5-0.4-0.5-0.5c-0.2-0.2-0.6-0.5-0.8-0.7
	c-0.3-0.2-0.7-0.3-1.1-0.4c-0.2,0-0.5-0.1-0.6,0c0,0-0.1,0,0,0.1c0.3,0.1,0.6,0.3,0.9,0.6c0.2,0.2,0.3,0.3,0.4,0.5s0.2,0.3,0.2,0.4
	c0,0,0.1,0.1-0.1,0.1c-0.1,0-0.3,0-0.4,0s-0.4-0.1-0.5-0.2c-0.2-0.1-0.4-0.3-0.4-0.4c-0.1-0.1-0.2-0.3-0.3-0.4
	c-0.2-0.2-0.3-0.3-0.6-0.3c-0.3-0.1-0.8,0-1.2,0.1c-0.2,0.1-0.6,0.2-0.9,0.3c-0.1,0-0.2,0.1-0.2,0.1s-0.2,0.1-0.4,0.1
	c-0.2,0.1-0.4,0.1-0.5,0.2c-0.5,0.1-1.2,0.4-1.8,0.7c-0.7,0.3-1.3,0.8-1.8,1.3s-0.8,0.8-1.2,1.2c-0.4,0.4-0.8,0.9-0.7,0.9
	c-0.1,0,0.1-0.6,0.3-1.1c0.2-0.6,0.6-1.2,0.5-1.1c-0.1,0.1,0.5-0.6,1.6-1.2c0.8-0.4,2-0.7,2.7-1c0.6-0.2,0.8-0.3,1-0.5
	s0.3-0.4,0.3-0.5s0.1-0.4,0.1-0.5s0.1-0.2,0.1-0.2c0-0.1,0.1-0.3,0.2-0.5s0.5-0.5,0.5-0.5c0.1,0,0.1,0.5,0,0.8s-0.2,0.5-0.3,0.7
	c0,0.1,0,0,0,0s0.2-0.2,0.3-0.3c0.1-0.2,0.3-0.5,0.4-0.7s0.2-0.6,0.3-0.8c0.1-0.4,0.2-0.7,0.3-0.9c0.1-0.2,0.3-0.4,0.3-0.4
	s0,0.1,0,0.2c0,0.1,0,0.2,0,0.2c0,0.1,0,0.1,0.2-0.1c0.2-0.2,0.4-0.3,0.4-0.4c0.1,0,0.1,0,0.1,0.3s0,0.4-0.1,0.6l0,0
	c0,0,0.1,0,0.3-0.2c0.1-0.1,0.3-0.1,0.2,0c0,0-0.1,0.1-0.1,0.2c-0.1,0.3-0.2,0.5-0.5,0.8S29,36,28.5,36.3c-0.2,0.2-0.4,0.3-0.5,0.4
	c-0.1,0.1-0.2,0.2-0.2,0.2c0,0.1,0,0.1,0,0.1s0.5-0.1,0.7-0.2c0.2-0.1,0.4-0.2,0.6-0.3c0.3-0.3,0.5-0.4,0.8-0.9
	c0.4-0.6,0.5-1,0.3-1.4c0-0.1-0.2-0.4-0.2-0.5c-0.4-0.5-0.5-1-0.5-1.3c0-0.1,0.2-0.1,0.2,0c0,0.2,0.3,0.4,0.4,0.4c0,0,0,0,0-0.1
	c0-0.2,0-0.5,0-0.5c0-0.1,0-0.1,0-0.1c0.1,0,0.3,0.2,0.4,0.4c0,0.1,0,0.1,0,0v-0.1l0,0c0,0,0,0.1,0.1,0.1c0.2,0.4,0.2,0.7,0.2,1.1
	c0,0.3,0,0.5-0.1,0.8c-0.1,0.2-0.2,0.4-0.3,0.7c-0.1,0.3-0.1,0.3-0.3,0.5c-0.2,0.3-0.3,0.3-0.6,0.6c-0.1,0.1-0.2,0.2-0.1,0.2
	c0,0,0.3,0,0.5-0.1c0.1-0.1,0.4-0.2,0.5-0.4c0.2-0.2,0.4-0.5,0.5-0.7c0.1-0.1,0.2-0.4,0.2-0.6c0.1-0.3,0.2-0.5,0.2-0.9
	c0-0.3-0.1-0.6-0.3-1c-0.1-0.2-0.1-0.2-0.2-0.4c-0.1-0.3-0.1-0.8,0-0.7c0,0,0.1,0,0.1,0.1c0.1,0.1,0.1,0.1,0.1,0.1s0,0,0-0.1
	s0-0.2,0-0.3c0-0.1,0.1-0.1,0.1-0.2s0.1-0.1,0.1-0.1s0.2,0.1,0.3,0.2c0.1,0.2,0.1,0.2,0.2,0.2c0,0,0,0,0.2-0.4
	c0.1-0.3,0.3-0.5,0.3-0.5c0.1,0,0.1,0.8,0.1,1.1c0,0.2,0,0.2-0.2,0.7c-0.2,0.6-0.3,0.9-0.2,0.9c0.1,0,0.2-0.3,0.5-0.6
	c0.2-0.3,0.2-0.6,0.3-0.7c0-0.1,0-0.3,0-0.4c0.3-0.7,0.3-0.7,0.3-1.1c0-0.3,0.1-0.4,0.1-0.4c0-0.1,0.1-0.1,0.2,0.2
	c0.1,0.2,0.2,0.5,0.2,0.6c0,0,0,0.1,0,0.2s0,0.2,0,0.2c0,0.1,0,0.1,0,0.1s0-0.1,0.1-0.2c0-0.2,0-0.5-0.1-0.9c0-0.1-0.1-0.3-0.2-0.4
	c0,0,0-0.1-0.1-0.2c0-0.1-0.1-0.2-0.1-0.3c-0.1-0.2,0-0.2,0.2-0.1s0.3,0.3,0.5,0.5C33.9,30,34,30,34,30.2c0,0.1,0,0.1,0,0.1
	s0.1-0.1,0.1-0.2c0-0.2,0.1-0.5,0.1-1c0-0.1,0-0.2,0-0.2l0,0c0,0,0.1,0.1,0.1,0.3c0,0.3,0,0.5-0.1,0.9c-0.3,1.5,0.4,0.2,0.6-0.2
	c0.2-0.3,0.5-1,0.5-1.1c0-0.2,0-0.3-0.2-0.5c-0.1-0.1-0.1-0.1-0.3-0.5c-0.3-0.6-0.6-1.2-0.7-1.5c0-0.1,0-0.1,0.1,0
	c0,0,0.4,0.5,0.5,0.6s0.2,0.2,0.2,0.3c-0.1,0.1,0,0.1,0,0.1c0.1,0,0.1,0,0.2,0.2c0.1,0.2,0.2,0.2,0.2,0.2s0,0,0-0.1
	c0-0.2-0.1-0.5-0.2-0.8c-0.1-0.2-0.2-0.6-0.3-0.6c0,0-0.1-0.1-0.1-0.2c-0.1-0.1-0.1-0.2-0.2-0.3c-0.1-0.1-0.4-0.4-0.6-0.5
	c-0.1-0.1-0.1-0.1-0.1-0.1c0.2-0.1,0.5,0.2,1,0.8c0.1,0.2,0.2,0.3,0.3,0.4s0.1,0.1,0.1-0.1s0-0.3,0.1-0.3h0.1h0.1h0.2
	c0,0,0,0.1,0,0.5c0,0.5,0,0.5,0,0.5s0,0,0.1-0.1s0.1-0.2,0.3-0.5c0.3-0.7,0.6-1,1-1.3c0.1-0.1,0.2-0.1,0.4-0.2s0.3-0.1,0.2,0.2
	c0,0.2-0.1,0.2-0.1,0.4c-0.1,0.3-0.3,0.6-0.4,0.7c-0.1,0-0.1,0.1-0.2,0.1c-0.3,0.2-0.3,0.5-0.6,0.6c0,0-0.1,0.1-0.2,0.4
	c-0.1,0.2-0.3,0.4-0.3,0.7c0,0.1-0.1,0.1-0.1,0.1l0,0c0,0,0.1-0.1,0.3-0.4s0.4-0.5,0.6-0.7c0.1-0.1,0.4-0.2,0.5-0.3
	c0.1,0,0.2,0,0.2,0s0.1,0.1,0,0.2c-0.1,0.2-0.1,0.3-0.4,0.5c-0.2,0.3-0.4,0.4-0.9,0.9c-0.2,0.2-0.5,0.5-0.5,0.5
	c-0.2,0.2-0.3,0.3-0.6,0.9c-0.1,0.2-0.2,0.3-0.3,0.3c0,0,0,0.2-0.1,0.3c-0.5,0.3-0.5,0.8-0.8,1.3l0.2,0.6c-0.1,0.2-0.2,0.5-0.2,0.5
	l0,0c0,0,0.1,0,0.2,0c0.2,0,0.3-0.1,0.4,0c0.1,0,0.1,0,0.1,0c0.1-0.1,0.3-0.2,0.3-0.2s0,0,0,0.1c0,0,0,0.1,0,0.2
	c-0.1,0.1-0.1,0.1-0.1,0.1s0.1,0,0.2,0c0.2,0,0.2,0,0.2,0.1s0,0.2-0.2,0.4c-0.1,0.1-0.2,0.1-0.1,0.1c0.2,0.1,0.3,0.1,0.3,0.1
	s0.1,0-0.1,0.1c-0.2,0-0.3,0.1-0.4,0.2c-0.2,0.2-0.6,0.4-1.2,0.4c-0.2,0-0.3,0-0.5,0.1c-0.1,0.1-0.2,0.1-0.4,0.3
	c-0.1,0.2-0.3,0.5-0.4,0.6c-0.1,0.1-0.1,0.2-0.2,0.3s-0.2,0.2-0.2,0.3c-0.2,0.2-0.3,0.3-0.3,0.4c0,0,0,0,0.1,0
	c0.3-0.1,1-0.5,1.3-0.6c0,0,0.1-0.1,0.2-0.1c0,0,0.1-0.1,0.2-0.1c0.1,0,0.1-0.1,0.2-0.1c0.1-0.1,0.1-0.1,0.3-0.2
	c0.2-0.1,0.2-0.2,0.5-0.3c0.1-0.1,0.2-0.1,0.2-0.1c0.1-0.1,0.2-0.2,0.3-0.2c0.1-0.1,0.4-0.3,0.4-0.4c0.1-0.1,0.3-0.4,0.3-0.5
	c0,0,0-0.1,0-0.2c0-0.2,0-0.4-0.1-0.8c-0.1-0.6-0.1-1,0-1.3c0-0.2,0.2-0.3,0.2-0.3c0.1,0,0.2,0.3,0.2,0.5s0,0.4,0,1
	c0,0.4,0,0.9,0,0.9s0.1-0.1,0.2-0.2c0-0.1,0.1-0.2,0.1-0.5c0.1-0.4,0.2-0.5,0.4-0.7c0.1-0.1,0.2-0.2,0.2-0.2l0.1-0.1
	c0.2-0.1,0.3-0.4,0.4-0.5c0.1-0.3,0.1-0.4,0-0.8c0-0.2,0-0.3,0-0.4s0-0.1,0-0.4c0-0.2,0-0.7,0.1-0.8h0.1c0.1,0.1,0.2,0.4,0.3,0.7
	c0,0.1,0,0.6,0,0.7c0,0.2,0,0.2,0,0.1c0,0,0.1-0.1,0.2-0.3c0,0,0.1-0.1,0.1-0.2s0.1-0.2,0.2-0.3c0.1-0.1,0.1-0.2,0.1-0.2h0.1
	c0,0,0.1,0,0.2-0.1c0.1,0,0.1,0,0.1,0c0.1,0-0.1,0.2-0.2,0.5c0,0.1-0.1,0.2-0.1,0.3c-0.1,0.1-0.1,0.2-0.1,0.2s0,0,0.1,0s0.1,0,0.1,0
	v0.1c0.1,0.1,0.1,0.2,0,0.2s-0.2,0-0.2,0c-0.1,0-0.1,0-0.1,0.1c0.1,0,0.3-0.1,0.6-0.1c0.2,0,0.4-0.1,0.5-0.1s0.1,0,0.1,0v0.1
	c-0.1,0-0.2,0.2-0.4,0.2c-0.1,0-0.2,0-0.3,0.1c-0.2,0-0.4,0.1-0.6,0.1c-0.2,0-0.2,0-0.4,0.1c-0.1,0.1-0.2,0.1-0.2,0.2
	s-0.2,0.2-0.3,0.3c-0.2,0.2-0.4,0.4-0.5,0.5c-0.2,0.3-0.4,0.6-0.4,0.8v0.1l0,0c0,0,0.1,0,0.2-0.1c0.1-0.1,0.1-0.1,0.2-0.1
	c0.1-0.1,0.2-0.3,0.3-0.3c0.1-0.1,0.3-0.2,0.5-0.2c0,0,0.2,0,0.3-0.1c0.1,0,0.3-0.1,0.5-0.1c0.1,0,0.3,0,0.4,0c0.3,0,0.4-0.1,0.4,0
	c0,0.1-0.2,0.3-0.5,0.4c-0.1,0-0.3,0.1-0.4,0.1c-0.1,0-0.3,0.1-0.4,0.1s-0.2,0.1-0.3,0.1c-0.2,0.1-0.5,0.2-0.6,0.3s-0.1,0.1-0.1,0.1
	s0,0,0.1,0c0.2-0.1,0.6-0.2,0.7-0.2c0.2-0.1,0.4-0.1,0.6-0.1c0.3,0,0.4,0,0.3,0.1c-0.1,0.1-0.4,0.3-0.8,0.4
	c-0.3,0.1-0.8,0.2-1.1,0.3c0,0-0.2,0-0.2,0.1c-0.1,0-0.3,0.2-0.5,0.3c-0.4,0.3-0.4,0.3-0.7,0.5c-0.2,0.2-0.3,0.3-0.3,0.3
	s0,0.1,0.1,0.1c0.3-0.1,0.6-0.2,0.9-0.3c0.2-0.1,0.3-0.2,0.5-0.3c0.2-0.2,0.3-0.2,0.5-0.3c0.3-0.2,0.7-0.2,0.9-0.2s0.3,0,0.3,0
	c0.1,0,0,0.1-0.2,0.2c-0.2,0.1-0.3,0.2-0.3,0.2s-0.1,0.1,0,0.1s0.2,0.1,0.2,0.1s0,0.1-0.1,0.2c-0.1,0.1-0.4,0.3-0.4,0.3
	c-0.1-0.2,0.1,0.1,0.2,0.1c0.2,0.1,0.4,0.2,0.4,0.2s-0.1,0-0.2,0.1c-0.2,0.1-0.3,0.1-0.4,0.1c-0.1,0-0.5,0-0.8,0
	c-0.7,0-0.9-0.1-1.3,0c-0.5,0.1-0.8,0.2-1.1,0.4c-0.2,0.1-0.5,0.3-0.5,0.3s0,0.1,0.6,0.1c1,0,1.1,0,1.8-0.2c0.4-0.1,0.5-0.1,0.6-0.2
	c0.1,0,0.2,0,0.2,0s0,0-0.1,0.1s-0.1,0.2-0.1,0.2s0.1,0,0.3,0.1c0.2,0,0.3,0.1,0.3,0.1s0,0,0,0.1c-0.1,0.1-0.2,0.2-0.2,0.2
	s-0.1,0,0.3,0.1c0.1,0,0.4,0.1,0.4,0.1s0.2,0,0.2,0.1c-0.1,0.1-0.1,0.1-0.2,0.2c-0.1,0-0.3,0.1-0.4,0.1c-0.1,0-0.2,0.1-0.4,0.1
	c-0.1,0-0.3,0-0.3,0h-0.3c-0.1,0-0.2,0-0.3-0.1c-0.1,0-0.3-0.1-0.3-0.1c-0.1,0-0.3-0.1-0.4-0.1c0,0-0.3-0.1-0.4-0.2
	c-0.2-0.1-0.4-0.1-0.7-0.2c-0.6-0.1-0.8-0.2-1-0.2c-0.1,0-0.3,0-0.4,0c-0.1,0-0.3,0.1-0.4,0.1c-0.2,0.1-0.2,0.1-0.2,0.1s0,0,0.3,0
	c0.4,0,0.6,0.1,1.1,0.2c0.2,0,0.5,0.2,0.7,0.2c0.2,0.1,0.3,0.1,0.4,0.2c0,0,0.2,0.1,0.3,0.1c0.2,0.1,0.3,0.1,0.5,0.2
	c0.1,0,0.3,0.2,0.4,0.2c0.3,0.2,0.6,0.5,0.6,0.5s-0.1,0-0.1,0.1c-0.3,0.1-0.3,0-0.2,0.1s0.2,0.2,0.4,0.4c0.3,0.2,0.4,0.2,0.4,0.2
	c-0.1,0.1-0.3,0.1-0.3,0.1c-0.1,0-0.3-0.1-0.3-0.1c-0.1,0-0.1,0-0.2,0c0,0.1,0.1,0.2,0.2,0.4c0.1,0.1,0.2,0.3,0.1,0.3
	C36.2,39.3,36.1,39.3,36,39.3z"/>
<path id="path3230" fill="#121212" d="M29.5,42.6c0,0-0.1-0.1-0.2-0.2c-0.1-0.1-0.2-0.2-0.2-0.3L29,42c-0.3-0.5-1.3-1.5-1.9-1.9
	c-0.4-0.3-0.6-0.4-0.8-0.5c-0.2-0.1-0.5-0.3-0.6-0.3c0,0-0.1,0-0.1-0.1c-0.2-0.1-0.6-0.3-0.7-0.3s-0.8,0.3-1.2,0.6
	c-0.2,0.1-0.6,0.4-0.7,0.5c-0.1,0-0.2,0.1-0.3,0.2c-0.4,0.3-1.3,1.1-1.7,1.6c-0.3,0.3-0.4,0.5-0.5,0.6c-0.1,0.2-0.2,0.3-0.2,0.3
	s0,0,0-0.2c0.1-0.3,0.2-0.7,0.3-0.9v-0.1c0-0.1,0.2-0.4,0.4-0.7c0-0.1,0.1-0.2,0.1-0.3s0.1-0.2,0.1-0.2c0.1-0.1,0.6-0.5,0.8-0.6
	c0.1,0,0.4-0.2,0.5-0.3c0.5-0.3,0.8-0.4,1.5-0.7c0.1,0,0.1,0,0.1-0.1c0,0,0-0.1-0.1-0.1c0,0-0.2-0.1-0.4-0.1
	c-0.2-0.1-0.4-0.1-0.4-0.2c-0.1,0-0.3-0.1-0.8-0.3c-0.6-0.2-0.7-0.2-1-0.3c-0.2,0-0.2,0-0.4,0c-0.4,0.1-0.7,0.3-1,0.7
	c-0.2,0.3-0.5,0.5-1,0.6c0,0-0.1,0-0.2,0c-0.2,0-0.2,0-0.2-0.1c0.1-0.3,0.3-0.6,0.7-0.9c0.2-0.2,0.4-0.3,0.5-0.4
	c0.1,0,0.2-0.1,0.2-0.1s-0.1,0-0.4,0c-0.2,0-0.5,0.1-0.7,0.2c-0.3,0.1-0.8,0.5-1.1,0.8C17.5,38.7,17.2,39,17,39
	c-0.1,0.1-0.4,0.1-0.5,0.2c-0.1,0-0.1,0-0.1,0s0,0,0-0.1s0.1-0.2,0.2-0.4c0.1-0.1,0.1-0.2,0.1-0.2s-0.1,0-0.3,0.1
	c-0.1,0.1-0.3,0.1-0.5,0.1c-0.3,0-0.4,0.1-0.5,0.1s-0.1,0-0.1,0c0-0.1,0.1-0.3,0.2-0.4c0.1-0.1,0.2-0.2,0.4-0.3
	C16,38,16.1,38,16,37.9c-0.3-0.1-0.3-0.1-0.2-0.2c0.1-0.1,0.3-0.2,0.5-0.3c0.2-0.1,0.6-0.2,0.9-0.3c0.1,0,0.3-0.1,0.3-0.1h0.2
	c0.1,0,0.2,0,0.3-0.1c0.1,0,0.3,0,0.4-0.1c0.6-0.1,0.6-0.1,0.6-0.1c0-0.1-0.5-0.2-0.8-0.2s-0.9,0-1.4,0.1c-0.2,0-0.6,0.2-0.7,0.2
	c0,0-0.1,0.1-0.2,0.1c-0.3,0.1-0.5,0.4-0.9,0.9c-0.2,0.3-0.5,0.6-0.6,0.7c-0.2,0.2-0.6,0.5-0.8,0.6c-0.1,0-0.3,0.1-0.3,0.1
	c-0.1,0-0.1,0,0.1-0.3c0.1-0.1,0.1-0.2,0.1-0.2c0.1-0.2,0.1-0.2,0-0.2c0,0-0.2,0-0.3,0s-0.2,0-0.3,0s-0.2-0.1-0.2-0.1s0,0,0.4-0.3
	c0.2-0.1,0.3-0.2,0.3-0.2c0.2-0.1,0.2-0.2,0-0.2c-0.1,0-0.2-0.1-0.2-0.1s0,0,0-0.1c0.1-0.2,0.7-0.6,1.2-0.8c0.2-0.1,0.4-0.2,0.5-0.2
	s0.2-0.1,0.3-0.1c0.2-0.1,0.6-0.2,0.8-0.3c0.3-0.1,0.8-0.2,1-0.2h0.1c0,0,0-0.1-0.1-0.1c-0.2-0.1-0.3-0.1-0.6-0.1
	c-0.2,0-0.7,0.1-1.1,0.2c-0.4,0.1-0.5,0.1-0.5,0.2c-0.3,0.1-0.8,0.3-1.1,0.3c0,0-0.1,0-0.2,0c-0.4,0.1-1,0-1.3,0
	c-0.3-0.1-0.5-0.2-0.6-0.3s-0.1-0.1,0-0.1h0.1c0,0,0.1,0,0.2,0c0.1,0,0.2-0.1,0.3-0.1c0.3-0.1,0.4-0.1,0.4-0.2c0,0-0.1-0.1-0.2-0.2
	c-0.1,0-0.1-0.1-0.1-0.1s0.1-0.1,0.2-0.1c0.1,0,0.1,0,0.3-0.1c0.1,0,0.2,0,0.2,0s0-0.1-0.1-0.2c-0.1-0.1-0.1-0.2-0.1-0.2
	s0.2,0,0.3,0s0.5,0.1,0.6,0.2h0.1c0.1,0,0.1,0,0.2,0c0.1,0,0.3,0.1,0.5,0.1s0.8,0,1.2,0c0.4,0,0.4,0,0.1-0.2
	c-0.2-0.1-0.3-0.2-0.5-0.3c-0.4-0.2-0.7-0.2-1.1-0.3c-0.2,0-0.6,0-1.3,0c-0.4,0-0.5,0-0.9-0.1c-0.2,0-0.2-0.1-0.2-0.1
	c0-0.1,0.2-0.2,0.4-0.3c0.1,0,0.1-0.1,0-0.1c-0.2-0.1-0.3-0.3-0.3-0.4c0,0,0,0,0.1,0h0.1c0.1,0,0.1-0.1-0.2-0.2
	c-0.1-0.1-0.3-0.2-0.3-0.2s0,0,0-0.1c0.1-0.1,0.4-0.1,0.7,0c0.2,0.1,0.5,0.2,0.7,0.3s0.3,0.2,0.5,0.3c0.1,0.1,0.2,0.2,0.3,0.2
	c0.1,0.1,0.4,0.2,0.6,0.3c0.2,0.1,0.4,0.1,0.5,0.1c0,0,0-0.1-0.1-0.2c-0.3-0.3-0.5-0.5-0.9-0.8c-0.1-0.1-0.2-0.1-0.2-0.2
	C13.4,33,13.3,33,13.1,33c-0.3-0.1-0.6-0.2-0.9-0.2c-0.2,0-0.6-0.1-0.7-0.2c-0.1-0.1-0.3-0.2-0.3-0.3c0,0,0,0,0-0.1
	c0.1,0,0.5,0,0.7,0c0.3,0.1,0.4,0.1,0.5,0.1s0.2,0,0.1,0c0,0-0.2-0.1-0.3-0.2c-0.3-0.1-0.6-0.2-0.7-0.3c-0.3-0.1-0.5-0.2-0.7-0.3
	c-0.1-0.1-0.3-0.2-0.3-0.2s0.1,0,0.2,0c0.1,0,0.3,0,0.5,0c0.4,0,0.7,0.1,1,0.1c0.2,0,0.4,0.2,0.6,0.3c0.1,0.1,0.3,0.2,0.3,0.3
	c0,0.1,0.1,0.1,0.2,0.2c0.1,0,0.1,0,0.1,0s-0.1-0.3-0.2-0.5c-0.1-0.1-0.1-0.2-0.2-0.2c0,0,0,0-0.1,0s-0.2,0.1-0.2,0l-0.1-0.1
	c0-0.1,0-0.1-0.1-0.1s-0.2,0-0.3-0.1c-0.1,0-0.1-0.1-0.1-0.2v-0.1h-0.2c-0.2,0-0.2,0-0.2,0c-0.1,0-0.1-0.1-0.1-0.2s0.1-0.2,0.2-0.3
	c0.1,0,0.1-0.1,0-0.1c0,0-0.4,0-0.5,0h-0.1v0.1c0,0.1,0,0.1-0.1,0.2c0.1,0.4,0,0.4-0.2,0.4c-0.1,0-0.1-0.1-0.1-0.2s0-0.1,0-0.1
	s0,0-0.1,0c-0.1,0.1-0.2,0.2-0.2,0.2c-0.1,0.1-0.3,0-0.3-0.2c0-0.1,0.1-0.3,0.2-0.4l0.1-0.1l-0.1-0.1c0,0,0,0-0.1,0l-0.1,0.1
	c-0.1,0-0.1,0-0.3,0s-0.2,0-0.3-0.1c0-0.1,0-0.1,0-0.2c0.1-0.1,0.2-0.2,0.4-0.2s0.2,0,0.1-0.1c0-0.1,0-0.2,0-0.2s0-0.1-0.1-0.1
	c-0.1-0.1-0.3-0.2-0.5-0.4c-0.2-0.2-0.5-0.5-0.6-0.6c-0.3-0.3-0.4-0.6-0.3-0.6c0,0,0.3,0.1,0.4,0.1c0.3,0.1,0.5,0.2,0.8,0.5
	c0.1,0,0.1,0.1,0.2,0.2c0,0,0.2,0.2,0.3,0.3c0.3,0.3,0.5,0.5,0.6,0.5H11c0.1,0,0.3,0,0.3,0.2c0,0,0,0.1,0.1,0.1s0.1,0,0.1,0
	s0-0.1-0.1-0.2c0-0.1-0.1-0.3-0.2-0.4c-0.1-0.2-0.2-0.3-0.2-0.3h-0.1c-0.1,0.1-0.3,0.1-0.4,0.1c-0.1,0-0.1-0.1-0.1-0.2
	s0.1-0.2,0.1-0.2c0-0.1,0-0.1-0.1-0.1c-0.2,0-0.3-0.1-0.4-0.2c0-0.1,0-0.2,0-0.3c0-0.1,0-0.1-0.1-0.1s-0.4-0.2-0.5-0.2
	c0,0-0.1-0.1-0.2-0.2C9.1,27.2,9,27.1,9,27.1C9,27,9,27,9.2,27s0.4,0,0.6,0c0.3,0,0.4,0.1,0.6,0.2c0.1,0,0.1,0,0.1,0s0-0.1-0.1-0.3
	c-0.1-0.1-0.1-0.3-0.1-0.4s0-0.1-0.1-0.2c0-0.1-0.1-0.1-0.1,0c-0.1,0.1-0.2,0.2-0.3,0.3c-0.1,0.1-0.2,0.1-0.2,0.1s0-0.1,0.1-0.2
	c0-0.1,0.1-0.1,0.1-0.2l0,0H9.7c-0.1,0-0.1,0-0.1-0.1l-0.1-0.1V26c0,0,0,0-0.1,0S9.1,26,9,26c-0.1,0-0.1-0.2-0.1-0.3
	c0-0.1,0.1-0.2,0.2-0.2h0.1v-0.1c0-0.1,0-0.1,0-0.2s0.1-0.2,0.2-0.3l0,0c0,0-0.1-0.1-0.2-0.2c-0.2-0.1-0.3-0.2-0.3-0.3l-0.1-0.1
	c-0.1-0.1-0.2-0.3-0.2-0.4l0,0h0.1c0.1,0,0.4,0.1,0.6,0.2c0.2,0.1,0.3,0.2,0.5,0.4c0.2,0.2,0.2,0.2,0.2,0c0-0.1,0-0.2,0-0.3
	c0-0.1,0-0.3,0-0.3c0-0.2,0-0.2-0.1-0.1l-0.1,0.1c-0.1,0.1-0.2,0-0.3-0.1c0-0.1,0-0.1,0-0.3c0-0.1,0-0.1,0-0.1H9.4
	c-0.1,0-0.2-0.1-0.3-0.2c-0.1-0.2,0-0.4,0.3-0.5c0.1,0,0.1,0,0.1-0.1c-0.1-0.1-0.1-0.3,0-0.4s0.3-0.2,0.4-0.1c0.1,0,0.1,0.1,0.2,0.2
	l0.1,0.1h0.1c0.1-0.1,0.3-0.2,0.4-0.1c0.1,0,0.1,0.1,0.1,0.2c0,0.2-0.1,0.3-0.2,0.5v0.1c0,0,0,0.1,0.1,0.1c0.2,0.2,0.3,0.4,0.1,0.5
	c-0.1,0.1-0.2,0.1-0.3,0c-0.1,0-0.1,0-0.1,0s0,0,0,0.3c0,0.2,0,0.3,0,0.4c0,0.2,0.1,0.3,0.1,0.1c0.1-0.3,0.4-0.7,0.5-0.9
	c0.1-0.1,0.1-0.1,0.2-0.1c0,0,0,0.3,0,0.4c0,0.3-0.1,0.4-0.2,0.7c0,0.1-0.1,0.2-0.1,0.2s0,0,0.1,0s0.2,0,0.3,0.1
	c0.2,0.1,0.1,0.3-0.1,0.5c0,0-0.1,0-0.1,0.1c0,0,0,0.1,0.1,0.1c0.1,0.1,0.1,0.2,0.1,0.3c0,0.1,0,0.2-0.1,0.2c-0.1,0.1-0.4,0.2-0.6,0
	h-0.1c0,0,0,0,0,0.1c0.1,0.3,0.2,0.8,0.3,0.9s0.1,0.1,0.2-0.2c0.2-0.5,0.3-0.8,0.5-1c0.1-0.1,0.1-0.1,0.2-0.1c0,0,0,0.2,0,0.3
	c0,0.1-0.1,0.6-0.1,0.7v0.1c0,0,0.1,0,0.2-0.1c0.1-0.1,0.1-0.1,0.1-0.1v0.1c0,0.2-0.1,0.3-0.2,0.6c-0.1,0.1-0.1,0.1,0,0.1
	c0.2,0,0.3,0.2,0.3,0.3c0,0.1-0.2,0.3-0.3,0.4c-0.1,0-0.1,0.1-0.1,0.1s0.1,0,0.1,0.1c0.2,0.1,0.2,0.1,0.3,0.2s0.1,0.1,0.1,0.2
	c0,0.2,0,0.2-0.2,0.2h-0.1c0,0,0,0.1,0.2,0.5c0.1,0.2,0.2,0.3,0.2,0.3v-0.1c0-0.4,0-0.7,0.1-0.9c0.1-0.2,0.2-0.3,0.3-0.4
	c0,0,0,0,0.1,0c0,0,0.1,0.1,0.1,0.3c0,0.3,0,0.5-0.1,1.1c0,0.1,0,0.1,0.1,0.1s0.2,0,0.3,0l0.1,0.1v0.1h0.1c0.2,0,0.4,0,0.4,0.1
	s0,0.2,0,0.3c0,0.1,0,0.1,0,0.1s0,0.1,0,0.2s0,0.1,0,0.2c-0.1,0.1-0.1,0.1,0,0.2s0.1,0.1,0.1,0.2c0,0.2-0.2,0.2-0.4,0.2
	c-0.1,0-0.1,0-0.1,0s0,0.1,0.1,0.1c0.1,0.2,0.2,0.3,0.3,0.8c0.1,0.2,0.1,0.4,0.2,0.4l0,0c0,0,0-0.1,0-0.3s0-0.4,0-0.7
	c0-0.1,0-0.3,0-0.4c0-0.2,0-0.3,0-0.4c0-0.2,0.1-0.3,0.2-0.4c0.1-0.1,0.1-0.1,0.1-0.1c0.1,0,0.2,0.2,0.2,0.3c0.1,0.2,0.1,0.6,0,0.9
	c0,0.1,0,0.2,0,0.3c0,0.1,0,0.3-0.1,0.4c0,0.3-0.1,0.5,0,0.6c0,0.2,0,0.2,0.1,0.3l0.1,0.1c0.1,0.2,0.6,0.6,0.9,0.8
	c0,0,0.1,0.1,0.2,0.2c0.4,0.3,0.4,0.3,1.2,0.8c0.2,0.1,0.5,0.3,0.8,0.4c0.3,0.2,0.4,0.2,0.4,0.2s0-0.1-0.1-0.2
	c-0.1-0.1-0.2-0.2-0.2-0.3c-0.1-0.1-0.2-0.3-0.3-0.4c-0.1-0.1-0.2-0.3-0.3-0.4c-0.1-0.1-0.1-0.2-0.2-0.3c0,0-0.2-0.1-0.4-0.2
	c-0.1,0-0.2,0-0.4,0c-0.5,0-0.8-0.1-1-0.3c-0.1-0.1-0.2-0.1-0.3-0.2c-0.2,0-0.2-0.1-0.3-0.1c-0.1-0.1,0-0.1,0.1-0.1
	c0,0,0.1,0,0.1-0.1c0,0,0-0.1-0.1-0.1c-0.1-0.1-0.1-0.2-0.1-0.3s0-0.1,0.2-0.1c0.1,0,0.2,0,0.2,0v-0.1c0-0.1-0.1-0.2-0.1-0.2
	s0,0,0.1-0.1c0.1,0,0.2,0,0.4,0.2c0.1,0,0.1,0,0.1,0c0.1,0,0.1,0,0.3,0s0.2,0,0.1-0.1c-0.1-0.2-0.2-0.3-0.2-0.3s0,0-0.1,0h-0.1
	c-0.1,0-0.1,0-0.1,0c-0.1,0-0.1-0.1-0.1-0.2c0-0.1,0-0.1-0.1-0.1c0,0-0.1,0-0.1-0.1s0-0.1-0.2,0c-0.1,0-0.1,0-0.1,0
	c-0.1,0-0.1-0.1-0.1-0.2c0,0,0-0.1,0.1-0.1l0.1-0.1v-0.1c0-0.1,0-0.1,0-0.1c0-0.1,0-0.1,0-0.1c0-0.1,0-0.1,0-0.1s0,0-0.1-0.1
	s-0.1-0.2,0-0.3c0.1,0,0.1-0.1,0-0.2c0-0.1-0.1-0.2-0.2-0.3c-0.4-0.6-0.4-0.7-0.8-1.1c-0.8-0.8-0.8-0.9-1.1-1.2
	c-0.2-0.3-0.4-0.5-0.4-0.7V27h0.1c0.2,0,0.5,0.1,0.6,0.2c0.3,0.2,0.5,0.4,0.7,0.8c0.1,0.2,0.2,0.2,0.1,0c-0.1-0.2-0.1-0.3-0.3-0.5
	s-0.2-0.4-0.3-0.4H13c-0.2,0-0.4-0.1-0.5-0.3c-0.1-0.1-0.1-0.2-0.1-0.4c0,0,0,0-0.1-0.1c-0.2-0.2-0.3-0.5-0.5-0.9
	c0-0.1-0.1-0.3-0.1-0.4l0,0h0.1c0.2,0,0.5,0.1,0.7,0.3c0.1,0.1,0.3,0.3,0.4,0.4c0.1,0.2,0.4,0.6,0.4,0.9c0.1,0.2,0.2,0.4,0.3,0.4
	l0,0v-0.4c0-0.2,0-0.5,0-0.5s0,0-0.1,0s-0.2,0-0.2,0c-0.1,0-0.1-0.1-0.1-0.2s0-0.1-0.1-0.2c-0.2-0.1-0.3-0.2-0.2-0.4v-0.1v-0.1
	c0-0.1,0-0.1,0-0.2s0-0.2,0-0.2c0.1-0.1,0.2-0.2,0.3-0.1c0.1,0,0.2,0,0.2,0c0-0.1-0.1-0.1-0.3-0.2c-0.1,0-0.1-0.1-0.2-0.1
	c-0.1,0-0.3-0.2-0.4-0.2c-0.1-0.1-0.3-0.2-0.4-0.3c-0.2-0.2-0.2-0.2-0.3-0.4c-0.1-0.1-0.1-0.2-0.3-0.4c-0.1-0.1-0.1-0.1-0.1-0.1
	s0.2,0,0.3,0s0.5,0.2,0.7,0.4c0.1,0.1,0.2,0.1,0.2,0.1l0,0c0,0-0.1-0.1-0.3-0.3c-0.3-0.3-0.6-0.6-0.7-0.8c0-0.1-0.1-0.1-0.1-0.2
	s0.5,0.2,0.8,0.5c0.2,0.2,0.7,0.6,0.7,0.7l0.1,0.1c0,0,0-0.1-0.1-0.1s0-0.1,0.1,0c0.1,0,0.1,0,0.1,0s0,0,0-0.2s-0.1-0.6-0.1-0.6
	s0,0-0.1,0.1s-0.1,0.1-0.2,0.1c-0.1,0-0.2,0-0.2-0.1c0,0,0-0.1,0-0.2s0-0.2,0-0.2c0-0.1,0-0.1,0-0.1h-0.1c-0.1,0-0.1,0-0.2,0
	c-0.1,0-0.1-0.1-0.1-0.1c0-0.1,0-0.1,0-0.2s0-0.1,0-0.2c0.1-0.1,0.2-0.1,0.3-0.1s0.2,0,0.2,0v-0.1c0-0.1-0.1-0.1-0.1-0.2
	c0-0.2,0-0.2,0.1-0.3c0.1-0.1,0.3-0.1,0.5,0c0.1,0.1,0.2,0.2,0.2,0.4c0,0.1,0,0.1,0.1,0s0.2-0.1,0.3-0.1s0.2,0.1,0.3,0.1
	c0.1,0.1,0.1,0.2,0,0.3c0,0.1-0.2,0.2-0.3,0.3c-0.1,0.1-0.1,0.1,0,0.1c0.2,0.1,0.3,0.2,0.4,0.2c0.1,0.2,0.1,0.4-0.1,0.4
	c-0.1,0-0.2,0-0.4-0.1c-0.1,0-0.1-0.1-0.1,0c0,0,0,0.1,0,0.3c0,0.1,0.1,0.4,0.1,0.6s0.1,0.3,0.1,0.2l0.1-0.1c0,0,0.1,0.2,0.1,0.3
	c0,0.1,0,0.1,0,0.1s0.1,0,0.1-0.1l0.1-0.1l0.1-0.1c0,0,0,0-0.1-0.1S14,23.3,14,23.2c0-0.2,0.2-0.3,0.4-0.3c0.1,0,0.1,0,0.1,0v-0.1
	c0-0.1,0-0.2,0.1-0.3c0,0,0.1-0.1,0.2-0.1c0.1,0,0.2,0.1,0.3,0.2c0,0.1,0.1,0.1,0.1,0c0.1-0.1,0.3-0.2,0.4-0.1
	c0.1,0,0.2,0.1,0.2,0.3c0,0.1,0,0.2-0.1,0.3c-0.1,0.1-0.1,0.1,0,0.1c0.1,0.1,0.1,0.2,0.1,0.3c0,0.2-0.1,0.3-0.2,0.3h-0.1
	c-0.1,0-0.1,0-0.1,0.1c0,0.2-0.1,0.3-0.2,0.3c0,0-0.1,0-0.1,0.1c-0.1,0-0.2,0-0.2-0.1c0.1-0.4,0.1-0.5,0.1-0.6c0-0.2,0-0.2-0.1-0.2
	s-0.2,0.2-0.4,0.4c-0.1,0.1-0.1,0.2-0.1,0.2s0,0,0.1,0c0.2,0,0.3,0.1,0.3,0.1c0,0.1,0,0.1,0,0.2s0,0.1,0,0.1s0,0,0.1,0.1
	s0.2,0.1,0.1,0.3c0,0.2,0,0.2,0,0.2c-0.1,0-0.2,0.1-0.3,0.1h-0.1c0,0,0,0,0.1,0.1s0.1,0.1,0.1,0.2s0,0.1-0.1,0.2c-0.1,0-0.1,0-0.1,0
	h-0.1l0,0c0,0,0,0,0,0.2c0,0.3,0,0.3,0.1,0.3c0,0,0.2-0.2,0.3-0.3c0.2-0.3,0.6-0.7,0.7-0.8c0.1,0,0.2-0.1,0.2-0.1
	c0.1,0,0.1,0,0.2,0.1v0.1c0,0,0,0-0.1,0.1c-0.2,0.1-0.2,0.2-0.1,0.2c0.2,0.1,0.2,0.2,0,0.3c-0.1,0-0.1,0-0.1,0.1s-0.1,0.2-0.2,0.3
	c-0.1,0-0.1,0-0.1,0.1s-0.1,0.2-0.2,0.2h-0.1H15c0,0-0.1,0.2-0.3,0.5c-0.1,0.3-0.2,0.7-0.2,0.7l0.1-0.1c0.1-0.1,0.2-0.2,0.2-0.2
	s0,0,0.1-0.1c0-0.1,0.1-0.2,0.4-0.6c0.1-0.2,0.2-0.3,0.3-0.4c0-0.1,0.1-0.1,0.1-0.1c0.1,0.1,0,0.4-0.3,1c-0.1,0.3-0.5,1-0.6,1.1
	c-0.1,0.2-0.2,0.4-0.2,0.4c0,0.1,0,0.2,0.1,0.3c0,0,0.1,0.1,0.1,0.2c0.1,0.1,0.4,0.8,0.5,1c0.2,0.3,0.3,0.5,0.4,0.5c0,0,0,0,0-0.1
	s-0.1-0.4-0.1-0.5c-0.1-0.2-0.1-0.5-0.1-0.8s0-0.3-0.1-0.2c-0.1,0-0.1,0-0.2,0c-0.1,0-0.1,0-0.2-0.1c-0.1-0.1,0-0.2,0-0.4
	c0-0.1,0-0.1,0-0.1l0,0c0,0-0.1-0.1-0.2-0.2c-0.1-0.1,0-0.2,0.1-0.3c0.1,0,0.1,0,0.2,0c0.1,0,0.2,0,0.2,0s0,0,0-0.1s0-0.2,0.1-0.3
	c0.1-0.1,0.2-0.1,0.4-0.1c0.1,0,0.2,0.2,0.1,0.4v0.1H16c0.1,0,0.1,0,0.2,0s0.1,0.1,0.1,0.2s-0.1,0.2-0.2,0.3H16c0,0,0,0.1,0.1,0.1
	c0.1,0.1,0.2,0.2,0.1,0.3c0,0.1-0.1,0.1-0.2,0.2c-0.1,0.1-0.2,0-0.3-0.1s-0.1-0.1-0.1,0.2c0,0.1,0,0.3,0,0.5c0,0.3,0.1,0.4,0.1,0.3
	c0,0,0.1-0.1,0.1-0.2c0.1-0.2,0.5-0.5,0.6-0.6c0.1,0,0.1,0,0.1,0v0.1c-0.2,0.4-0.4,1-0.5,1.4c0,0.1,0,0.3,0,0.4c0,0,0,0,0.1-0.2
	c0-0.2,0.2-0.5,0.2-0.7c0.1-0.2,0.2-0.4,0.3-0.4c0,0,0,0,0.1,0.1c0.1,0.2,0.1,0.8-0.1,1.7c-0.1,0.4-0.1,0.4,0,0.6
	c0,0.2,0.2,0.4,0.3,0.6c0.2,0.3,0.3,0.5,0.4,0.5c0,0,0,0,0-0.2c0-0.1,0-0.2-0.1-0.2s0-0.1-0.1-0.2c-0.1-0.4-0.2-0.7-0.3-0.9
	c0-0.2,0-0.4,0-0.7c0-0.2,0.1-0.5,0.1-0.6c0,0,0.1,0,0.1,0.1c0.1,0.1,0.1,0.2,0.2,0.4c0.1,0.2,0.1,0.3,0.2,0.4c0,0,0.1,0,0.1-0.1
	c0.1-0.1,0.2-0.2,0.3-0.3c0.1,0,0.1,0,0.1,0.1c0,0,0,0.1,0.1,0.2s0.1,0.2,0.1,0.3v0.1h0.1c0.1-0.1,0.1-0.1,0.2-0.1s0.1,0,0.1,0.2
	c0,0.1,0,0.2,0,0.3c0,0.3-0.1,0.6-0.2,0.8c-0.2,0.3-0.2,0.5-0.3,0.8c0,0.1,0,0.2,0,0.3c0,0.2,0.1,0.4,0.1,0.6c0,0.1,0.2,0.5,0.3,0.6
	c0.1,0.1,0.2,0.4,0.4,0.5c0.3,0.3,0.6,0.5,0.9,0.6c0.2,0,0.2,0,0-0.2c-0.3-0.4-0.7-0.8-0.9-1.2c-0.1-0.3-0.1-0.3-0.2-0.6
	s-0.1-0.4-0.1-0.7s0-0.5,0.1-0.8s0.2-0.6,0.3-0.7c0,0,0.1,0,0.1,0.1s0,0.1,0.1,0c0.1-0.2,0.3-0.3,0.4-0.2c0,0,0,0,0,0.1
	c-0.1,0.1-0.1,0.2,0,0.4c0,0.2,0,0.2,0,0.3c0,0,0.1,0,0.2-0.1s0.2-0.2,0.2-0.3s0-0.1,0.1-0.1c0.1,0.1,0.2,0.2,0.2,0.4
	c0,0.1-0.1,0.3-0.1,0.5c-0.1,0.3-0.2,0.3-0.4,0.6c-0.3,0.4-0.4,0.8-0.2,1.2c0.1,0.2,0.2,0.5,0.3,0.6c0.4,0.7,0.5,0.7,0.9,1.1
	c0.2,0.2,0.6,0.4,1,0.4c0.1,0,0.1,0,0.1,0l0,0c0-0.1-0.2-0.2-0.2-0.2l-0.1-0.1c-0.1-0.1-0.3-0.2-0.6-0.4c-0.3-0.2-0.4-0.3-0.7-0.6
	c-0.3-0.3-0.4-0.4-0.5-0.8c0-0.1-0.1-0.2-0.1-0.3c-0.1-0.1-0.1-0.1,0-0.2c0.1,0,0.2,0,0.3,0.2l0.1,0.1c0,0,0,0,0-0.1s0-0.3,0-0.4
	c0,0,0-0.1,0-0.2c0-0.1,0-0.1,0-0.1l0,0c0,0,0.3,0.2,0.5,0.4c0.2,0.1,0.2,0.2,0.2,0.1c0,0,0-0.1,0-0.2c0-0.2,0-0.2,0.1-0.1
	c0.1,0.1,0.3,0.3,0.4,0.5s0.1,0.3,0.2,0.8c0.1,0.4,0.2,0.7,0.3,0.9c0.1,0.2,0.3,0.6,0.4,0.7h0.1v-0.1C22,36.2,22,35.8,22,35.5
	c0-0.2,0-0.2,0.1-0.2c0,0,0.2,0.1,0.3,0.2c0.1,0.1,0.1,0.2,0.2,0.2c0.1,0.2,0.3,0.5,0.3,0.6c0.1,0.2,0.2,0.5,0.2,0.7
	s0.2,0.4,0.4,0.6c0.2,0.2,0.4,0.3,1,0.5c0.5,0.2,0.4,0.1,0.6,0.1c0.1,0,0.2-0.1,0.3-0.1c0.4-0.1,0.6-0.2,0.7-0.2
	c0.1-0.1,0.3-0.2,0.4-0.3c0.1-0.2,0.2-0.3,0.3-0.5c0-0.2,0.1-0.5,0.2-0.7s0.2-0.5,0.4-0.7c0.1-0.1,0.3-0.3,0.4-0.3h0.1l0,0
	c0,0.1,0.1,0.1,0.1,0.3s0,0.2,0,0.4s-0.1,0.6-0.2,0.6v0.1c0,0,0.1-0.1,0.2-0.2c0.2-0.2,0.3-0.6,0.4-0.9c0,0,0-0.1,0-0.2
	c0,0,0.1-0.2,0.1-0.4s0.1-0.3,0.1-0.4c0,0,0-0.1,0.1-0.2c0.1-0.3,0.2-0.5,0.3-0.6c0.1-0.1,0.1-0.1,0.2-0.1c0,0,0,0.1,0,0.2
	c0,0.2,0,0.3,0.1,0.3c0,0,0,0,0.4-0.3c0.2-0.2,0.3-0.3,0.3-0.2v0.1c0,0.1,0,0.2,0,0.3s0,0.2,0,0.3c0,0.2,0,0.2,0.1,0.1
	c0.1-0.1,0.2-0.1,0.2-0.1c0.1,0,0.1,0,0,0.1c0,0.1-0.1,0.2-0.1,0.3c-0.1,0.3-0.2,0.4-0.4,0.7c-0.2,0.2-0.3,0.3-0.8,0.6
	c-0.1,0.1-0.2,0.1-0.2,0.1s-0.1,0.1-0.2,0.2c-0.3,0.2-0.5,0.4-0.4,0.5c0,0,0.1,0,0.2,0c0.5-0.1,0.9-0.3,1.3-0.7
	c0.1-0.1,0.4-0.5,0.6-0.9c0.1-0.1,0.2-0.3,0.2-0.4c0-0.1,0.1-0.2,0.1-0.3c0-0.2,0-0.4-0.1-0.6c0-0.1-0.1-0.2-0.1-0.2
	c-0.3-0.3-0.3-0.5-0.4-0.8s-0.1-0.6,0.1-0.7c0.1,0,0.1,0,0.1,0.1s0.1,0.2,0.2,0.3s0.2,0.2,0.2,0.1c0,0,0-0.1,0-0.2v-0.2v-0.1
	c-0.1-0.1,0-0.1,0.1-0.1s0.2,0.1,0.3,0.2c0.1,0.1,0.1,0.1,0.1,0.1s0,0,0-0.1s0-0.1,0-0.1c0.1,0,0.2,0.5,0.3,0.8
	c0,0.2,0.1,0.5,0.1,0.7c0,0.3-0.1,0.7-0.2,1c-0.2,0.5-0.5,1-1,1.5c-0.2,0.2-0.2,0.2,0.1,0.1c0.3-0.1,0.6-0.3,0.9-0.7
	c0.2-0.2,0.3-0.4,0.4-0.6c0.1-0.3,0.2-0.4,0.2-0.6c0-0.2,0-0.2,0-0.4s0-0.3,0-0.4c0-0.2-0.1-0.3-0.2-0.6c-0.2-0.3-0.2-0.4-0.3-1.1
	c0-0.1,0-0.2,0-0.2s0.1,0,0.2,0.1s0.2,0.1,0.2-0.1c0-0.1,0-0.1,0.1-0.2c0-0.1,0.1-0.2,0.1-0.2c0-0.1,0-0.1,0-0.1s0.1,0,0.2,0.1
	c0,0,0.1,0.1,0.1,0.2c0.1,0.2,0.1,0.2,0.2,0.1c0,0,0.1-0.1,0.1-0.2c0.1-0.3,0.3-0.5,0.3-0.5s0.1,0,0.1,0.2c0,0.4,0.1,0.7,0,1
	c0,0.2,0,0.2-0.1,0.5c-0.1,0.4-0.3,0.8-0.3,0.9l0,0c0,0,0.1,0,0.2-0.3c0.1-0.1,0.3-0.5,0.3-0.5v-0.1c0.1-0.2,0.1-0.4,0.1-0.5
	c-0.1-0.8-0.2-1-0.2-1.5c0-0.3,0-0.6,0.1-0.6s0.2,0.2,0.3,0.4c0.1,0.2,0.2,0.5,0.2,0.8c0,0,0,0,0.1,0c0,0,0-0.1,0-0.2
	c0-0.3-0.1-0.6-0.2-1c0-0.1-0.1-0.3-0.1-0.3s-0.1-0.2-0.1-0.3c-0.1-0.2-0.1-0.2,0-0.2s0.3,0.1,0.4,0.3c0.1,0.1,0.3,0.3,0.4,0.5h0.1
	c0,0,0.1-0.6,0.1-0.9c0-0.2,0-0.2-0.1-0.1s-0.2,0.1-0.3,0.1c-0.1-0.1-0.1-0.1-0.1-0.2s0-0.1,0-0.1l0.1-0.1c0.1-0.1,0.1-0.1,0-0.1
	c-0.2,0-0.3-0.1-0.3-0.3c0-0.1,0-0.2,0.1-0.2s0.1,0,0.2,0c0.1,0,0.1,0,0.1,0s0-0.1,0-0.2s0-0.2,0-0.2c0.1-0.1,0.1-0.2,0.3-0.2
	s0.3,0.1,0.3,0.4c0,0.1,0,0.1,0,0.1h0.1c0.1,0,0.1,0,0.2,0c0.2,0.1,0.2,0.3,0,0.5h-0.1c0,0,0,0,0,0.1c0.2,0.3,0.1,0.5-0.2,0.5
	c-0.1,0-0.1,0-0.2,0c-0.1-0.1-0.1-0.1-0.1,0.2c0,0.1,0,0.3,0,0.3c0,0.2-0.1,0.5-0.1,0.7c0,0.1,0,0.2,0,0.3c0,0.1,0,0.1,0,0.1
	s0.1,0,0.2-0.2c0.1-0.2,0.3-0.5,0.5-0.9c0-0.1,0.1-0.2,0.1-0.2s0.3-0.6,0.3-0.7c0,0,0-0.1,0-0.2v-0.1l-0.2-0.3
	c0-0.1-0.1-0.3-0.1-0.3c-0.1-0.1-0.4-0.8-0.5-1c-0.2-0.4-0.2-0.6-0.3-0.8c0-0.1,0-0.1,0-0.1h0.1c0,0,0,0.1,0.1,0.1l0.1,0.1
	c0,0,0.1,0.1,0.2,0.2c0.2,0.2,0.3,0.4,0.3,0.5s0,0.1,0,0.1l0,0c0.1,0,0.1,0.1,0.2,0.2c0.1,0.2,0.2,0.2,0.2,0.1s-0.1-0.5-0.2-0.7
	c-0.1-0.2-0.2-0.4-0.2-0.4s0,0-0.1,0s-0.1,0-0.2,0c-0.1,0-0.1-0.1-0.1-0.2c0,0,0-0.1-0.1-0.1h-0.1c-0.1,0-0.1-0.1-0.1-0.2
	s0-0.1-0.1-0.1c-0.1-0.1-0.2-0.2-0.1-0.2c0,0,0.1,0,0.1-0.1h0.1c0,0-0.1-0.1-0.2-0.2c-0.1-0.1-0.1-0.1,0-0.1
	c0.1-0.1,0.2-0.1,0.3-0.1c0.2,0.1,0.5,0.4,0.9,0.9c0.2,0.3,0.3,0.3,0.3,0.3s0-0.1,0-0.2c0-0.2,0-0.3-0.1-0.3h-0.1
	c-0.1,0-0.2,0-0.2-0.2c0-0.1,0-0.2,0.1-0.3c0.1-0.1,0.1-0.1-0.1-0.1c-0.1,0-0.2,0-0.2-0.1c-0.1-0.1-0.1-0.2-0.1-0.3
	c0-0.1,0-0.1,0.1-0.2c0.1,0,0.1-0.1,0.1-0.2s0-0.2,0-0.3c0.1-0.1,0.1-0.1,0.3-0.1c0.1,0,0.1,0,0.1,0s-0.2-0.4-0.3-0.5
	s-0.1-0.1-0.2-0.1c0,0,0,0-0.1,0.2c0,0.1-0.1,0.2-0.1,0.3l-0.1,0.1c-0.1,0-0.1,0-0.2,0h-0.1c0,0-0.1-0.2-0.1-0.3
	c0-0.1,0-0.1-0.2-0.1s-0.2,0-0.3-0.1s-0.1-0.3,0-0.4c0-0.1,0.1-0.1,0.1-0.1v-0.1c-0.1-0.1-0.1-0.1-0.1-0.2c0-0.3,0.4-0.4,0.6-0.1
	l0.1,0.1c0,0,0,0,0.1-0.1c0-0.1,0.1-0.2,0.2-0.2c0.1-0.1,0.2,0,0.3,0.1c0,0.1,0.1,0.2,0.1,0.3v0.1c0,0,0,0,0.1,0
	c0.2,0,0.4,0.1,0.4,0.3c0,0.1,0,0.2-0.2,0.3c-0.1,0-0.1,0.1,0,0.2c0,0,0.1,0.1,0.1,0.2c0.1,0.1,0.1,0.1,0.1,0c0,0,0-0.1,0-0.2
	s0.1-0.2,0.1-0.2s0,0,0.1,0.1s0.1,0.1,0.1-0.1c0-0.1,0.1-0.6,0.1-0.8c0-0.1,0-0.2,0-0.2s0,0-0.1,0c-0.2,0.1-0.4,0.1-0.5,0
	s-0.1-0.1-0.1-0.2s0-0.1,0.1-0.2s0.2-0.1,0.4-0.2c0.1,0,0.1-0.1,0-0.1c-0.2-0.1-0.3-0.3-0.3-0.5c0-0.1,0.2-0.2,0.3-0.2
	s0.2,0.1,0.3,0.2s0.1,0.1,0.1,0c0-0.2,0.1-0.3,0.2-0.4c0.2-0.2,0.4-0.1,0.5,0.1c0,0.1,0,0.1,0,0.2s0,0.1-0.1,0.2c0,0.1,0,0.1,0,0.1
	s0.1,0,0.2,0c0.2,0,0.3,0.1,0.4,0.2c0,0.1,0.1,0.1,0,0.2c0,0.2-0.2,0.2-0.4,0.2C37,22,37,22,37,22.1s0,0.3,0,0.3
	c0,0.1-0.2,0.2-0.4,0.1l-0.1-0.1c0-0.1-0.1-0.1-0.1-0.1c0,0.1-0.2,0.6-0.2,0.7s0,0.1,0.1,0.1s0.2,0,0.1,0c0,0-0.1,0.1,0,0.1l0,0
	c0.1-0.1,0.5-0.5,0.7-0.7s0.3-0.2,0.4-0.3c0.2-0.1,0.4-0.2,0.4-0.1s-0.3,0.4-1,1.1c0.1,0.1,0.1,0.1,0.1,0.1s0.1-0.1,0.3-0.2
	c0.4-0.3,0.6-0.3,0.8-0.4c0.2,0,0.2,0,0.1,0.1c-0.1,0.1-0.1,0.2-0.3,0.4c-0.1,0.2-0.4,0.5-0.6,0.6c-0.2,0.1-0.5,0.3-0.7,0.3
	c-0.1,0-0.3,0.1-0.3,0.2v0.1h0.1c0.1,0,0.2,0,0.3,0c0,0,0,0.1,0.1,0.1c0.1,0.1,0.1,0.3,0,0.5c0,0.1,0,0.1,0,0.1
	c0.1,0.1,0,0.3-0.1,0.3h-0.1c0,0-0.1,0-0.1,0.1c0.1,0.1,0,0.2-0.1,0.3c0,0-0.1,0-0.2,0L36,26l0,0c0,0,0,0.2,0,0.5c0,0.4,0,0.4,0,0.4
	s0,0,0.1,0c0,0,0.1-0.2,0.2-0.2c0,0,0-0.1,0.1-0.2c0.1-0.4,0.2-0.4,0.3-0.7c0.1-0.2,0.2-0.2,0.3-0.4c0.2-0.2,0.5-0.4,0.7-0.4
	c0.1,0,0.3-0.1,0.3,0c0,0,0,0.1,0,0.3c-0.1,0.4-0.3,0.9-0.6,1.1v0.1c0,0.1,0,0.1,0,0.2C37.3,26.9,37.2,27,37,27c-0.1,0-0.1,0-0.2,0
	c-0.1,0-0.1,0-0.1,0s-0.3,0.5-0.4,0.6C36.1,27.7,36,28,36,28l0,0c0,0,0.1-0.1,0.1-0.2c0.3-0.4,0.6-0.7,0.9-0.8
	c0.1-0.1,0.3-0.1,0.4-0.1c0,0,0,0,0.1,0.1c0,0.1-0.1,0.4-0.3,0.6c-0.1,0.1-0.1,0.1-0.1,0.2c-0.1,0.1-0.8,0.8-1.1,1.1
	c-0.2,0.1-0.4,0.4-0.5,0.5s-0.1,0.2-0.3,0.4c0,0.1-0.1,0.2-0.2,0.3c-0.1,0.2-0.2,0.3-0.2,0.4c0,0,0,0,0.1,0.1s0.1,0.1,0.1,0.2
	l-0.1,0.1c0,0,0,0,0,0.1s0,0.1,0,0.1v0.1v0.1v0.1H35c0.1,0.1,0.1,0.2,0,0.3c-0.1,0.1-0.1,0.1-0.2,0h-0.1l0,0c0,0.1-0.1,0.1-0.1,0.1
	s-0.1,0-0.1,0.1V32c0,0,0,0.1-0.1,0.1s-0.2,0-0.3,0l0,0c0,0-0.1,0.2-0.2,0.3c0,0.1-0.1,0.2,0,0.2H34c0.1,0,0.2,0,0.3,0s0.1,0,0.2,0
	c0.1-0.1,0.3-0.2,0.4-0.2H35v0.1c0,0.1,0,0.1,0,0.2c-0.1,0.1-0.1,0.1,0,0.1c0,0,0.2,0,0.3,0s0.1,0,0.1,0.1s0,0.1,0,0.2
	c0,0-0.1,0.1-0.1,0.2l-0.1,0.1l0,0c0.2,0.1,0.2,0.1,0.2,0.1s-0.1,0.1-0.3,0.1s-0.2,0.1-0.3,0.2c-0.2,0.2-0.3,0.2-0.6,0.3
	c-0.1,0-0.2,0-0.4,0c-0.3,0-0.4,0-0.6,0.1c-0.1,0.1-0.2,0.1-0.3,0.3s-0.2,0.3-0.7,1c-0.2,0.3-0.3,0.4-0.3,0.4s0.1,0,0.2,0
	c0,0,0.1-0.1,0.2-0.1c0.3-0.1,0.6-0.3,0.7-0.4c0.2-0.2,0.3-0.2,0.4-0.3c0.1-0.1,0.2-0.1,0.2-0.1c0.1-0.1,0.4-0.3,0.5-0.4
	c0.1,0,0.1-0.1,0.2-0.1c0.4-0.3,0.8-0.6,1-0.9c0.1-0.2,0.2-0.2,0.2-0.4c0-0.1,0-0.3-0.1-0.7c-0.2-1-0.1-1.5,0.1-1.7
	c0.1-0.1,0.1-0.1,0.1,0c0.1,0.1,0.2,0.4,0.2,0.5c0,0.2,0,0.4,0,1c0,0.4,0,0.8,0,0.8l0,0c0,0,0.1-0.2,0.2-0.4
	c0.1-0.2,0.1-0.5,0.2-0.6c0-0.1,0.1-0.1,0.1-0.2c0.1-0.1,0.1-0.1,0-0.1c-0.2,0-0.3,0-0.4-0.1c-0.1-0.1,0-0.2,0.1-0.3l0,0v-0.1
	c-0.1-0.2-0.1-0.3,0-0.4v-0.1c0,0,0,0,0-0.1s-0.1-0.2,0-0.3c0-0.1,0.2-0.2,0.4-0.1c0.2,0,0.2,0,0.2,0c0.1-0.1,0.1-0.1,0.3-0.1
	c0.1,0,0.1,0,0.2,0h0.1c0,0,0,0,0-0.2c0-0.3-0.1-0.4-0.1-0.5c0-0.2,0-0.5,0.1-0.7c0-0.2,0.1-0.2,0.2-0.1c0.1,0.1,0.2,0.4,0.3,0.7
	c0,0.1,0,0.3,0,0.4c0,0.3,0,0.3,0,0.3l0,0c0.2-0.3,0.4-0.7,0.4-0.7s0,0-0.1-0.1c-0.1,0-0.1-0.1-0.2-0.1c-0.1-0.2,0.1-0.4,0.3-0.5
	c0.1,0,0.1-0.1,0.1-0.1s0.1,0,0.1-0.1c0,0,0,0-0.1-0.1c-0.2-0.1-0.3-0.3-0.4-0.5c0-0.1,0.1-0.2,0.2-0.3c0.1,0,0.1,0,0-0.2
	s-0.2-0.4-0.2-0.6c0-0.1,0-0.1,0-0.1s0.1,0,0.1,0.1c0.1,0.1,0.1,0.1,0.2,0.1c0,0,0,0,0-0.1c0,0,0-0.1,0-0.2C38,26.3,38,26.2,38,26.1
	c0-0.2,0-0.2,0-0.2s0.1,0.1,0.2,0.1c0.2,0.2,0.4,0.6,0.5,1c0.1,0.2,0.1,0.2,0.2,0c0.1-0.2,0.1-0.3,0.2-0.8c0-0.2,0-0.2,0-0.2
	s0,0-0.1,0c-0.2,0.1-0.4,0.1-0.5,0c-0.1,0-0.1-0.1-0.2-0.2c0-0.1,0-0.1,0-0.2s0-0.2,0.1-0.3l0.1-0.1c0,0,0,0-0.1-0.1L38.3,25
	c-0.1-0.1-0.1-0.3,0.1-0.4c0.1,0,0.1,0,0.2,0c0.1,0,0.1,0,0.1,0s0-0.1-0.1-0.1c-0.1-0.3-0.2-0.5-0.2-0.8c0-0.2,0-0.3,0-0.3
	c0.1-0.1,0.5,0.6,0.7,1c0,0.1,0,0.1,0.1,0.1c0,0,0,0,0.1-0.3c0-0.1,0-0.3,0-0.4c0-0.3,0-0.3-0.1-0.3c-0.2,0-0.3,0-0.3-0.1v-0.1
	c0-0.1,0-0.1,0.2-0.3c0.1-0.1,0.2-0.2,0.1-0.2c0,0-0.1-0.2-0.2-0.3c0-0.1,0-0.1,0-0.2s0-0.1,0-0.2c0,0,0.1-0.1,0.3,0
	c0.1,0,0.2,0.1,0.3,0.1s0.1,0,0.1,0c0.1-0.1,0.2-0.2,0.3-0.2s0.2,0,0.3,0.2c0.1,0.1,0,0.3,0,0.4c0,0,0,0,0,0.1c0,0,0,0,0.1,0
	c0.2,0,0.4,0.2,0.3,0.4c0,0.2-0.1,0.2-0.4,0.3c-0.1,0-0.1,0,0,0.1c0,0.1,0,0.3,0,0.3c0,0.1-0.1,0.1-0.2,0.1c-0.1,0-0.2,0-0.3-0.2
	c0,0,0,0-0.1,0v0.1c0,0,0,0.1,0,0.2c0,0.3-0.1,0.7,0,0.7c0,0,0.1,0,0.2-0.2c0.3-0.3,0.5-0.4,0.8-0.5c0.1,0,0.3-0.1,0.4-0.1l0,0
	c0,0.1-0.1,0.2-0.2,0.4c-0.1,0.1-0.3,0.3-0.5,0.5c-0.1,0.1-0.1,0.1,0,0.1s0.1,0.1,0.2,0.2c0,0,0,0.1,0,0.2v0.1h0.1
	c0.2,0.1,0.3,0.3,0.2,0.4c0,0.1-0.1,0.1-0.1,0.2c-0.1,0-0.2,0-0.3,0h-0.1c0,0,0,0-0.1,0.1s-0.2,0.2-0.3,0.2h-0.1c0,0,0,0.1,0.1,0.2
	s0.1,0.2,0.1,0.2s-0.1,0-0.2,0c-0.1-0.1-0.3-0.2-0.4-0.4c0,0,0,0-0.1,0c0,0,0,0-0.1,0.2c0,0.1-0.1,0.3-0.2,0.4S39,27.2,39,27.2
	s0,0,0.2,0c0.2-0.1,0.3-0.1,0.5-0.1c0.1,0,0.5,0,0.6,0h0.1c0.1,0,0.1,0-0.1,0.1c-0.1,0.1-0.2,0.1-0.3,0.2s-0.3,0.2-0.4,0.3
	c0,0-0.1,0.1-0.2,0.1c-0.1,0-0.1,0.1-0.1,0.1s0,0,0,0.1s0,0.2,0,0.2c-0.1,0.1-0.2,0.2-0.4,0.2c-0.1,0-0.1,0-0.1,0s0,0,0.1,0.1
	s0.1,0.2,0.1,0.3c0,0.1-0.1,0.2-0.2,0.2c-0.1,0-0.2,0-0.3-0.1l-0.1-0.1c0,0-0.1,0.1-0.3,0.6c-0.1,0.2-0.2,0.4-0.2,0.4s0,0,0.1,0
	s0.1,0,0.1-0.1s0-0.1,0.1-0.1s0.1-0.1,0.2,0c0.1,0,0.1,0,0.1,0c0.1,0,0.3-0.2,0.5-0.5c0.1-0.1,0.3-0.3,0.3-0.3s0.1-0.1,0.2-0.2
	c0.1-0.1,0.2-0.2,0.2-0.2c0.3-0.2,0.5-0.3,0.8-0.4c0.2,0,0.2,0,0.2,0c0,0.1-0.2,0.3-0.3,0.5c-0.1,0.1-0.5,0.5-0.7,0.7
	c-0.1,0.1-0.2,0.2-0.3,0.2c-0.1,0.1-0.2,0.1-0.2,0.1s0,0.1,0,0.2s0,0.2,0,0.2l0,0h0.1c0.2,0,0.3,0,0.4,0.1c0.1,0.1,0.1,0.2,0,0.3
	c0,0-0.2,0.1-0.3,0.1s-0.3-0.1-0.3-0.1c-0.1-0.1-0.1-0.1-0.1,0v0.1c0.1,0.1,0.2,0.2,0.2,0.3c0,0.1,0,0.2,0,0.3h-0.1
	c-0.1,0-0.2-0.1-0.3-0.3c0-0.1-0.1-0.1-0.1-0.1v0.1c0,0.2,0,0.2-0.1,0.3c-0.1,0-0.1,0-0.2,0c-0.1-0.1-0.2-0.2-0.2-0.4v-0.1h-0.1
	c0,0-0.2,0-0.3,0c-0.3,0-0.3,0-0.2,0.1s0.2,0.2,0.2,0.2c0,0.1,0,0.1,0,0.2c-0.1,0.1-0.1,0.1-0.3,0.1c-0.1,0-0.2,0-0.2,0s0,0,0,0.1
	c0,0,0,0.1-0.1,0.1c-0.1,0.1-0.2,0.1-0.3,0.1s-0.1,0-0.1,0s0,0,0,0.1s0,0.1-0.2,0.1c-0.1,0-0.1,0-0.2-0.1l0,0
	c-0.1,0-0.4,0.6-0.3,0.7c0,0,0.1,0,0.2-0.1l0.1-0.1c0.1-0.1,0.2-0.2,0.3-0.3l0.1-0.1l0,0h0.1c0.1,0,0.1,0,0.1-0.1h0.1
	c0,0,0.3-0.1,0.4-0.1c0.1,0,0.4,0,0.6-0.1c0.1,0,0.3,0,0.4,0c0.1,0,0.3,0,0.3,0s-0.1,0.1-0.2,0.2c-0.1,0.1-0.3,0.2-0.7,0.3
	c-0.4,0.1-0.8,0.3-0.9,0.3c0,0,0,0-0.1,0s-0.2,0.1-0.2,0.1s0,0,0.1,0s0.3-0.1,0.5-0.1c0.3-0.1,0.8-0.1,0.9,0c0,0,0,0.1-0.1,0.2
	c-0.2,0.1-0.4,0.2-0.9,0.3c-0.2,0-0.6,0.1-0.7,0.2c0,0-0.1,0-0.2,0.1c-0.1,0-0.2,0.1-0.2,0.1c-0.1,0-0.2,0.1-0.3,0.2
	c-0.3,0.2-0.7,0.5-0.9,0.7c-0.2,0.1-0.2,0.2-0.1,0.2c0,0,0.4-0.1,0.5-0.2c0.1,0,0.1-0.1,0.2-0.1c0.2-0.1,0.5-0.2,0.6-0.4
	c0.2-0.2,0.3-0.2,0.5-0.3s0.3-0.1,0.5-0.2c0.2-0.1,0.3-0.1,0.5-0.1c0.1,0,0.2,0,0.2,0h0.1c0,0-0.1,0.1-0.1,0.2c0,0-0.1,0.1-0.2,0.1
	c-0.2,0.1-0.3,0.2-0.1,0.2c0.1,0,0.1,0,0.1,0.1s-0.1,0.2-0.3,0.3c-0.1,0-0.1,0.1-0.1,0.1s0,0.1,0.1,0.1s0.3,0.1,0.4,0.2
	c0.1,0,0.1,0.1,0,0.1c0,0-0.1,0.1-0.4,0.1l-0.2,0.1h-0.3c-0.2,0-0.4,0-0.6,0c-0.3,0-0.8,0-0.9,0c-0.2,0-0.6,0.1-0.8,0.1
	c-0.3,0.1-0.6,0.2-0.8,0.4C33.6,35,33.5,35,33.6,35c0,0,0.5,0.1,0.9,0.1c0.5,0,0.8,0,1.2-0.1c0.1,0,0.2-0.1,0.2-0.1s0.1,0,0.2-0.1
	c0.2-0.1,0.4-0.1,0.5-0.1s0.2,0,0.2,0.1c0,0,0,0.1-0.1,0.1c-0.1,0.1-0.1,0.1-0.1,0.2c0,0,0,0,0.2,0c0.1,0,0.2,0,0.2,0
	c0.1,0,0.2,0.1,0.2,0.2c0,0-0.1,0-0.1,0.1c-0.2,0.1-0.2,0.1-0.2,0.2c0,0,0.5,0.2,0.7,0.2c0.1,0,0.2,0,0.2,0.1c0,0,0,0,0,0.1
	c-0.1,0.1-0.4,0.2-0.8,0.3c-0.2,0-0.7,0-0.8,0s-0.2,0-0.2,0c-0.1,0-0.3,0-0.4-0.1c-0.1,0-0.1,0-0.2,0c-0.1,0-0.5-0.1-0.7-0.2
	c-0.1,0-0.2-0.1-0.3-0.1c-0.3-0.1-0.8-0.2-1.1-0.3c-0.2,0-0.4,0-0.4-0.1c0,0,0.2,0,0.6,0.1c0.1,0,0.3,0.1,0.4,0.1
	c0.4,0.1,0.5,0.1,0.6,0.2c0.3,0.1,0.6,0.2,0.9,0.3c0.7,0.2,1.4,0.2,1.9,0c0.1,0,0.3-0.1,0.3-0.1s0,0-0.7-0.3c-0.1,0-0.1,0-0.2-0.1
	v-0.1c0-0.1,0.1-0.1,0.2-0.1c0.1,0,0.1-0.1,0-0.1s-0.1-0.1-0.3-0.1s-0.3,0-0.3-0.1c0,0,0.1-0.1,0.1-0.2l0.1-0.1c0,0-0.1,0-0.2,0
	c-0.1,0-0.4,0.1-0.6,0.2c-0.2,0.1-0.6,0.2-0.8,0.2c-0.3,0-1.1,0-1.6,0h-0.1c0,0,0.2-0.2,0.4-0.3c0.6-0.4,1.3-0.5,2.2-0.5
	c0.2,0,0.4,0,0.5,0s0.2,0,0.3,0s0.4,0,0.5,0c0,0,0.1,0,0.2-0.1c0.3-0.1,0.3-0.1,0.2-0.2c-0.1,0-0.3-0.2-0.4-0.2
	c-0.2,0-0.2,0-0.1-0.1h0.1c0,0,0.1,0,0.1-0.1c0,0,0.1,0,0.1-0.1l0.1-0.1c0.1-0.1,0.1-0.1,0-0.2c-0.1,0-0.1,0-0.1-0.1s0,0,0-0.1
	s0.1-0.1,0.3-0.2c0.1-0.1,0.2-0.1,0.2-0.2l0,0c0,0-0.1,0-0.3,0s-0.2,0-0.4,0c-0.2,0.1-0.4,0.1-0.6,0.2c-0.2,0.1-0.3,0.1-0.4,0.3
	c-0.2,0.2-0.4,0.3-0.8,0.5C35,33.9,34.6,34,34.6,34s0.2-0.3,0.3-0.4c0.1,0,0.2-0.1,0.2-0.2c0.2-0.2,0.4-0.3,0.7-0.6
	c0,0,0.1-0.1,0.2-0.1c0.1-0.1,0.1-0.1,0.2-0.1c0.3-0.1,0.7-0.2,1-0.3c0.5-0.1,0.7-0.2,0.9-0.3c0.1-0.1,0.1-0.1,0.1-0.1s-0.3,0-0.5,0
	c-0.3,0-0.7,0.1-1.1,0.3c-0.1,0-0.1,0.1-0.1,0.1c-0.1,0,0-0.1,0.2-0.2c0.1-0.1,0.3-0.2,0.3-0.2s0.1,0,0.1-0.1c0.1,0,0.2-0.1,0.3-0.1
	s0.4-0.1,0.5-0.2c0.3-0.1,0.6-0.2,0.7-0.3c0.1,0,0.1-0.1,0.1-0.1c-0.1,0-0.3,0-0.8,0.1c-0.8,0.1-1.3,0.3-1.5,0.7
	c0,0.1-0.1,0.1-0.1,0.1l-0.2,0.1c0,0-0.1,0,0-0.1c0-0.2,0.1-0.3,0.2-0.5c0.1-0.2,0.2-0.3,0.5-0.6c0.2-0.2,0.4-0.4,0.4-0.4
	c0-0.1,0.2-0.2,0.3-0.2l0.1-0.1h0.2c0.2,0,0.5,0,0.5-0.1h0.1c0.2,0,0.3-0.1,0.4-0.1c0.1-0.1,0.2-0.1,0.2-0.1c0-0.1-0.1-0.1-0.6,0.1
	c-0.4,0.1-0.6,0.1-0.6,0c0,0,0,0,0.1-0.1c0.1,0,0.2-0.1,0.2-0.1v-0.1v-0.1c0,0,0-0.1-0.1,0c-0.1,0-0.1,0-0.2,0c0,0,0-0.1,0.1-0.3
	c0.1-0.1,0.2-0.4,0.2-0.5c0.1-0.2,0.1-0.3,0.1-0.3h-0.1c0,0-0.1,0.1-0.2,0.1h-0.1c0,0-0.1,0.1-0.1,0.2c-0.2,0.5-0.5,0.8-0.5,0.8
	s0,0,0-0.1s0-0.3,0-0.4c0-0.4,0-0.5-0.1-0.7s-0.1-0.3-0.2-0.3c0,0-0.1,0-0.1,0.2s0,0.5,0,0.7c0,0.3,0.1,0.4,0.1,0.6
	c0,0.1,0,0.2,0,0.3c0,0.1,0,0.2,0,0.3c0,0.2-0.1,0.2-0.1,0.3c-0.1,0.1-0.2,0.3-0.3,0.4S36,31.4,36,31.4l-0.1,0.1
	c0,0.1-0.2,0.4-0.2,0.5c0,0.1-0.1,0.4-0.2,0.5c0,0.1-0.1,0.1-0.1,0.1s-0.1-0.1-0.1-0.3s0-0.3,0-0.7c0-0.1,0-0.2,0-0.2
	c0-0.3,0-0.6,0-0.8c0-0.1-0.1-0.3-0.1-0.3s0,0-0.1,0s-0.2,0.2-0.2,0.4c0,0.2,0,0.7,0,1.1c0,0.2,0.1,0.5,0.1,0.7c0,0.3,0,0.5-0.1,0.6
	c-0.2,0.3-0.4,0.5-0.6,0.7c-0.1,0-0.1,0.1-0.2,0.2c-0.4,0.3-0.7,0.5-1.5,1c-0.4,0.2-1,0.6-1.4,0.7c-0.1,0-0.1,0.1-0.1,0.1H31
	c0,0,0.1-0.1,0.2-0.3c0.1-0.1,0.2-0.3,0.3-0.4c0-0.1,0.1-0.2,0.2-0.2s0.2-0.2,0.2-0.3c0.1-0.1,0.2-0.2,0.2-0.3
	c0.1-0.1,0.1-0.2,0.2-0.3c0-0.1,0.1-0.1,0.3-0.2h0.1H33c0.3,0,0.4,0,0.6-0.1c0.2-0.1,0.3-0.1,0.4-0.3c0.1-0.1,0.1-0.1,0.3-0.2
	c0.1,0,0.2,0,0.2-0.1c0.1,0,0-0.1-0.2-0.1c-0.1,0-0.1,0-0.1,0s0,0,0.1-0.1s0.2-0.2,0.2-0.3s0-0.1-0.2-0.1s-0.3,0-0.3,0
	s0-0.1,0.1-0.1c0.1-0.1,0.1-0.2,0.1-0.2s-0.1,0-0.2,0c-0.1,0-0.1,0.1-0.2,0.1l-0.1,0.1h-0.1c-0.1,0-0.1,0-0.4,0c-0.2,0-0.2,0-0.2,0
	s0.1-0.3,0.2-0.5l0.1-0.2v-0.2c0-0.2,0-0.4,0.1-0.6c0.1-0.4,0.4-0.6,0.7-0.7h0.1c0,0,0.2-0.3,0.3-0.6c0.4-0.6,0.3-0.6,0.9-1.1
	c0.6-0.6,0.9-0.9,1-1.1c0,0,0-0.1,0.1-0.1c0,0,0.1-0.2,0.2-0.3c0.1-0.1,0.2-0.3,0.2-0.3v-0.1c0,0-0.2,0-0.3,0.1
	c-0.3,0.1-0.6,0.4-0.9,0.7c-0.1,0.1-0.2,0.3-0.3,0.4S35.3,28,35.2,28c0,0,0-0.2,0.1-0.4c0.1-0.2,0.2-0.4,0.4-0.7
	c0.1-0.2,0.1-0.2,0.1-0.3v-0.1c0.1-0.1,0.3-0.3,0.4-0.4c0,0,0.1,0,0.2,0c0.1,0,0.1,0,0.2,0l0.1-0.1c0.1-0.1,0.2-0.3,0.3-0.5
	s0.1-0.3,0.2-0.5c0-0.2,0-0.2-0.1-0.2c-0.3,0.1-0.6,0.2-0.8,0.5c-0.2,0.2-0.4,0.6-0.6,1c-0.1,0.3-0.1,0.4-0.3,0.5
	C36,27,36,27.1,36,27c0,0,0-0.5,0-0.8c0-0.2,0-0.3,0-0.3s0,0-0.1,0h-0.1c-0.1,0-0.1,0-0.2,0c0,0,0,0.1,0,0.2s0,0.2,0,0.2l0,0
	c0,0-0.2-0.2-0.3-0.4c-0.4-0.5-0.7-0.8-0.9-0.9c-0.1,0-0.2,0-0.2,0s0,0.1,0.1,0.1c0.1,0.1,0.3,0.3,0.4,0.4c0.1,0.1,0.2,0.2,0.3,0.4
	c0,0.1,0.1,0.2,0.1,0.2c0.1,0.1,0.2,0.5,0.3,0.6c0.1,0.2,0.2,0.6,0.2,0.8c0,0.1,0,0.1,0,0.1s-0.1,0-0.2-0.2
	c-0.2-0.2-0.2-0.3-0.3-0.3S35,27.1,35,27s0-0.3-0.2-0.5c-0.1-0.2-0.3-0.5-0.4-0.5c-0.1-0.1-0.1,0,0,0.2c0,0.1,0.1,0.2,0.2,0.5
	c0.1,0.2,0.5,0.9,0.5,1.1c0.3,0.5,0.3,0.5,0.3,0.7c0,0.1,0,0.2-0.2,0.5c-0.4,0.7-0.7,1.2-0.8,1.4c-0.1,0.1-0.2,0.2-0.2,0.2
	s-0.1-0.1,0-0.2c0-0.1,0.1-0.4,0.1-0.6c0-0.1,0.1-0.4,0.1-0.6s0-0.5,0-0.5c0-0.1-0.1-0.1-0.1-0.1v0.1c0,0.5-0.1,0.9-0.1,1.1
	c0,0.1-0.1,0.2-0.1,0.2s0,0,0-0.1c-0.1-0.2-0.4-0.6-0.6-0.8c-0.1-0.1-0.2-0.1-0.1,0.1c0.1,0.2,0.3,0.7,0.3,0.8
	c0.1,0.2,0.1,0.3,0.1,0.5c0,0.3,0,0.6-0.1,0.7l0,0l0,0v-0.1c0-0.3-0.3-1.1-0.4-1.2c-0.1-0.1-0.1,0-0.1,0.2c0,0.3,0,0.7,0.1,1.6
	c0,0.3,0,0.3,0,0.5c-0.1,0.2-0.3,0.6-0.5,0.9c-0.1,0.1-0.2,0.3-0.2,0.3s0-0.1,0-0.3c0.1-0.2,0.1-0.3,0.3-0.8
	c0.1-0.4,0.2-0.5,0.2-0.9c0-0.2,0-0.7,0-0.7s0,0-0.1,0c0,0-0.1,0.2-0.2,0.4c-0.1,0.3-0.2,0.4-0.2,0.4s-0.1,0-0.1-0.2
	c-0.1-0.2-0.2-0.3-0.3-0.3c0,0,0,0,0,0.1c0,0-0.1,0.1-0.1,0.2L32,31.4v0.2c0,0.1,0,0.2,0,0.2s-0.1,0-0.2-0.1s-0.1-0.1-0.2-0.1
	c0,0,0,0.1,0,0.2c0,0.4,0.1,0.6,0.2,0.8c0.1,0.3,0.2,0.4,0.2,0.7c0,0.1,0,0.2,0,0.4c0,0.3,0,0.5-0.1,0.7c-0.1,0.3-0.3,0.7-0.5,0.9
	c-0.3,0.4-0.6,0.6-0.9,0.8c-0.2,0.1-0.5,0.2-0.5,0.1c0,0,0,0,0.1-0.2c0.4-0.4,0.7-0.8,0.9-1.2c0.2-0.4,0.3-0.6,0.4-0.9
	c0-0.2,0-0.2,0-0.5s0-0.4-0.1-0.7c0-0.2-0.2-0.5-0.2-0.6c0,0-0.1,0-0.1,0.1s0,0.1,0,0.1s0,0-0.1-0.1s-0.2-0.3-0.3-0.3h-0.1
	c0,0,0,0,0,0.1s0,0.1,0,0.3c0,0.1,0,0.2,0,0.2c0,0.1,0,0.1-0.1,0.1c-0.1-0.1-0.3-0.2-0.4-0.4l-0.1-0.1c0,0-0.1,0-0.1,0.1
	s0,0.2,0,0.4c0.1,0.2,0.2,0.5,0.4,0.7c0.2,0.3,0.3,0.5,0.4,0.7c0,0.1,0,0.1,0,0.3s0,0.3-0.1,0.5c-0.1,0.3-0.6,1-0.8,1.2
	c-0.1,0.1-0.3,0.3-0.5,0.4c-0.2,0.2-0.5,0.3-0.7,0.3s-0.4,0.1-0.4,0.1l0,0c0-0.1,0.1-0.2,0.2-0.3c0.2-0.2,0.3-0.3,0.9-0.7
	c0.3-0.2,0.6-0.5,0.7-0.7s0.2-0.3,0.3-0.5c0-0.1,0-0.1,0-0.2c0.1-0.2,0-0.2-0.2,0c-0.1,0.1-0.2,0.2-0.2,0.2s0,0,0-0.1
	s0.1-0.2,0.1-0.3s0-0.4,0-0.4s-0.1,0-0.3,0.2c-0.2,0.1-0.3,0.3-0.3,0.3c-0.1,0-0.1-0.2-0.1-0.3s0-0.1,0-0.1S29,34,29,34.1
	c-0.1,0.1-0.2,0.4-0.3,0.9c-0.2,0.6-0.3,1-0.5,1.4c-0.1,0.2-0.4,0.5-0.4,0.5s0,0,0-0.2c0.1-0.2,0.2-0.5,0.2-0.7
	c0.1-0.4,0.1-0.8,0-0.7c0,0-0.2,0.1-0.3,0.2c0,0-0.1,0.1-0.1,0.2c0,0.1-0.1,0.1-0.1,0.1c0,0.1-0.2,0.3-0.2,0.5
	c-0.1,0.2-0.2,0.5-0.2,0.6s0,0.2-0.1,0.2c-0.1,0.2-0.5,0.6-0.7,0.7c0,0-0.1,0.1-0.3,0.1c-0.1,0-0.2,0.1-0.2,0.1h-0.1
	c-0.2,0.1-0.5,0.1-1.1,0.4c-0.2,0.1-0.5,0.2-0.8,0.3c-0.4,0.2-1.1,0.5-1.5,0.8c-0.1,0-0.2,0.2-0.3,0.2c-0.1,0.1-0.2,0.2-0.2,0.2
	s-0.1,0.1-0.2,0.2c-0.1,0.1-0.1,0.1-0.2,0.3c0,0.1-0.1,0.2-0.1,0.3c-0.1,0.3-0.4,0.7-0.4,0.8s0,0.1-0.1,0.2
	c-0.1,0.2-0.2,0.5-0.2,0.6l0,0c0,0,0.1-0.1,0.2-0.3l0.1-0.1l0.1-0.1c0,0,0.1-0.1,0.2-0.2c0.1-0.1,0.8-0.8,0.8-0.9
	c0,0,0.1-0.1,0.3-0.3c0.2-0.2,0.5-0.5,0.7-0.6c0.2-0.2,0.5-0.3,0.6-0.4c0.3-0.2,0.9-0.5,1.2-0.6c0.3-0.1,0.4-0.2,1.1-0.4
	c0.1,0,0.3-0.1,0.4-0.1c0.3-0.1,0.6-0.2,0.9-0.3c0.1,0,0.3-0.1,0.3-0.1c0.8-0.3,0.8-0.3,1.1-0.3c0.2,0,0.4,0,0.6,0
	c0.1,0,0.2,0.1,0.4,0.1c0.1,0,0.3,0.2,0.3,0.2c0.1,0.1,0.2,0.3,0.3,0.4c0.1,0.2,0.4,0.4,0.6,0.5s0.5,0.2,0.6,0.1c0,0,0-0.1,0-0.3
	c-0.1-0.2-0.2-0.4-0.4-0.6c-0.3-0.3-0.7-0.6-1-0.7h-0.1c0,0,0.1,0,0.3,0c0.4,0,0.8,0.1,1.1,0.2c0.3,0.1,0.7,0.4,1.2,0.9
	c0.5,0.5,0.7,0.6,0.8,0.7c0.1,0,0.3,0.1,0.3,0.1l0,0c0-0.1-0.1-0.2-0.3-0.4c-0.2-0.3-0.2-0.3-0.1-0.3c0.1,0,0.1,0,0.3,0.1
	s0.2,0.1,0.6,0.2c0.1,0,0.2,0,0.2,0c0.1,0,0.1,0,0.1-0.1c-0.1-0.2-0.2-0.3-0.5-0.5s-0.3-0.2-0.3-0.3c0,0,0,0,0.2,0
	c0.1,0,0.2,0,0.2-0.1c0,0-0.1-0.1-0.2-0.2c-0.1-0.1-0.5-0.2-0.6-0.2h-0.1c0,0-0.2-0.1-0.5-0.1c-0.4-0.1-0.8-0.2-1-0.2h-0.2
	c-0.2,0-0.4-0.1-0.6-0.1s-0.2,0-0.2,0s0.4-0.2,0.6-0.2c0.2-0.1,0.4-0.1,0.5-0.1c0.2,0,0.7,0,1.2,0.1c0.4,0.1,1,0.3,1.2,0.5
	s0.5,0.4,0.6,0.6c0.3,0.4,0.7,0.8,0.8,1c0.3,0.3,0.6,0.5,0.8,0.6c0.1,0,0.1,0,0.1,0s0-0.1-0.1-0.1C36.1,39,36,38.9,36,38.8
	c0-0.1,0-0.2,0-0.2s0.2,0,0.4,0c0.1,0,0.2,0,0.3,0s0.1,0,0.1-0.1l-0.1-0.1c-0.4-0.2-0.5-0.3-0.6-0.4c-0.1-0.1-0.1-0.1,0.1-0.2
	c0.1,0,0.2,0,0.2-0.1l0,0c0-0.1-0.3-0.3-0.5-0.4c-0.4-0.3-0.7-0.4-0.8-0.5c-0.1,0-0.2-0.1-0.2-0.1c-0.1,0-0.6-0.2-0.6-0.2h-0.1
	c-0.1-0.1-0.6-0.2-0.7-0.2c-0.4-0.1-0.6-0.1-0.9-0.1c-0.2,0-0.3,0-0.3,0c0-0.1,0.6-0.3,1-0.3c0.1,0,0.2,0,0.2,0s-0.1,0-0.2,0
	C32.7,36,32.5,36,32.4,36c0,0,0,0,0.2,0.1c0.5,0,1.2,0.3,2.1,0.6c0.4,0.2,0.5,0.2,0.6,0.3c0.3,0.1,0.8,0.5,0.9,0.6
	c0.1,0.1,0.2,0.2,0.2,0.3c0,0,0,0-0.2,0.1c-0.1,0-0.1,0-0.1,0c-0.1,0.1,0.1,0.3,0.7,0.6c0.1,0,0.1,0.1,0.1,0.1s-0.1,0.1-0.2,0.1
	c-0.1,0-0.3,0-0.4,0c-0.1,0-0.2,0-0.2,0c-0.1,0-0.1,0-0.1,0c0,0.1,0.1,0.3,0.2,0.5c0.1,0.1,0.1,0.2,0.1,0.2s0,0-0.1,0
	s-0.2-0.1-0.4-0.1c-0.2-0.1-0.3-0.2-0.5-0.4s-0.4-0.5-0.9-1c-0.2-0.3-0.3-0.4-0.6-0.6c-0.2-0.1-0.5-0.3-0.8-0.4
	c-0.6-0.2-1.4-0.3-1.8-0.2c-0.3,0-0.6,0.1-0.7,0.2c-0.1,0,0,0.1,0.2,0.1c0.5,0.1,1,0.2,1.4,0.2c0.5,0.1,1,0.3,1.2,0.4
	c0.2,0.1,0.4,0.2,0.5,0.3s0.1,0.2-0.1,0.2c-0.1,0-0.1,0-0.1,0s0,0.1,0.1,0.1c0.3,0.2,0.4,0.3,0.5,0.5c0.1,0.1,0.1,0.3,0.1,0.3
	s0,0-0.1,0s-0.1,0-0.3-0.1c-0.5-0.1-0.5-0.1-0.7-0.2c-0.2-0.1-0.3-0.1-0.3-0.1s0,0.1,0.2,0.3c0.1,0.1,0.2,0.2,0.2,0.3s0,0.1-0.2,0.1
	c-0.2-0.1-0.3-0.1-0.5-0.2c-0.1-0.1-0.5-0.4-0.8-0.7s-0.7-0.6-1-0.7c-0.2-0.1-0.3-0.1-0.6-0.2c-0.2,0-0.5-0.1-0.5,0
	c0,0,0,0.1,0.1,0.1c0.2,0.1,0.4,0.2,0.6,0.5c0.2,0.2,0.3,0.3,0.4,0.5S31,39,31,39.2c0,0.1,0,0.1,0,0.1s-0.2,0-0.3,0
	c-0.4-0.1-0.8-0.3-1.1-0.7c-0.2-0.3-0.6-0.6-1-0.7c-0.1,0-0.5,0-0.7,0c-0.1,0-0.3,0.1-0.4,0.1c-0.2,0.1-0.6,0.2-1.2,0.4
	c-0.1,0-0.2,0.1-0.3,0.1c-0.1,0-0.2,0.1-0.3,0.1c-0.2,0.1-0.2,0.1-0.2,0.1s0,0,0.3,0.2c0.2,0.1,0.3,0.1,0.4,0.2
	c0.1,0,0.1,0.1,0.1,0.1s0.1,0,0.2,0.1c0.4,0.2,0.9,0.5,1.1,0.7s0.3,0.2,0.4,0.3s0.1,0.1,0.2,0.2c0.1,0.1,0.1,0.1,0.1,0.1
	c0,0.1,0.1,0.3,0.3,0.6c0.1,0.2,0.1,0.3,0.2,0.5C29.4,41.8,29.6,42.4,29.5,42.6C29.6,42.7,29.6,42.7,29.5,42.6z"/>
<path id="path3228" fill="#00843D" d="M29.5,42.4c0,0,0-0.3-0.1-0.3c0,0,0-0.1-0.1-0.2c-0.1-0.2-0.2-0.5-0.5-1.2
	c-0.1-0.2-0.1-0.3-0.2-0.3c0-0.1-0.1-0.1-0.2-0.2c-0.1-0.1-0.2-0.1-0.2-0.2c-0.1-0.1-0.3-0.3-0.5-0.4c-0.2-0.1-0.5-0.3-1-0.6
	c-0.3-0.1-0.4-0.2-0.8-0.4c-0.1,0-0.2-0.1-0.2-0.1c-0.1-0.1-0.1-0.1-0.4,0c-0.1,0-0.3,0.1-0.3,0.1c-0.1,0,0,0,0.2,0.2
	c0.2,0.1,0.5,0.2,0.8,0.4c0.4,0.2,0.5,0.3,1.1,0.7c0.4,0.3,0.9,0.7,1.3,1.2c0.3,0.3,0.4,0.4,0.5,0.6c0,0,0.1,0.1,0.1,0.2
	c0,0.1,0.1,0.2,0.2,0.2C29.4,42.4,29.5,42.5,29.5,42.4C29.5,42.5,29.5,42.5,29.5,42.4z"/>
<path id="path3226" fill="#00843D" d="M13.8,39.2c0.2,0,0.4-0.2,0.6-0.3c0.2-0.2,0.5-0.5,0.9-1s0.6-0.8,0.9-0.9
	c0.5-0.3,1.4-0.5,2.2-0.5c0.2,0,0.3,0,0.6,0.1c0.2,0.1,0.3,0.1,0.5,0.2c0.1,0.1,0.1,0.1,0.1,0.1c-0.5,0.1-1,0.1-1.1,0.1
	s-0.1,0-0.2,0c-0.7,0.1-1.3,0.3-1.6,0.4c-0.2,0.1-0.4,0.2-0.4,0.2c-0.1,0.1-0.1,0.1,0.1,0.2c0.1,0,0.1,0,0.2,0c0,0,0,0-0.3,0.2
	s-0.4,0.4-0.5,0.5c-0.1,0.2-0.1,0.2,0.1,0.1c0,0,0.1,0,0.2,0c0.3,0,0.4-0.1,0.6-0.1c0.2-0.1,0.2-0.1,0.3-0.1c0.1,0,0.1,0-0.1,0.3
	c-0.2,0.2-0.2,0.3-0.3,0.3c-0.1,0.1,0,0.1,0.1,0.1c0.2,0,0.4-0.1,0.5-0.2c0.1-0.1,0.5-0.4,0.6-0.5c0.2-0.2,0.6-0.5,0.9-0.7
	s0.7-0.3,1.1-0.4c0.2,0,0.6,0,0.7,0c0,0,0,0-0.1,0.1c-0.3,0.1-0.6,0.3-0.9,0.6c-0.2,0.2-0.3,0.3-0.4,0.5s-0.2,0.3-0.2,0.4
	c0,0,0,0,0.2,0c0.1,0,0.2,0,0.3,0c0.1,0,0.4-0.1,0.4-0.2c0.2-0.1,0.4-0.3,0.4-0.4c0.1-0.1,0.3-0.3,0.4-0.4c0.2-0.2,0.4-0.3,0.6-0.3
	c0.3-0.1,0.8,0,1.2,0.1c0.2,0.1,0.6,0.2,0.9,0.3c0.1,0,0.2,0.1,0.2,0.1s0.2,0.1,0.4,0.1c0.2,0.1,0.4,0.1,0.5,0.2
	c0.2,0.1,0.2,0.1,0.3,0c0.1,0,0.4-0.2,0.5-0.2c0,0,0-0.1-0.4-0.2c-0.7-0.2-0.7-0.3-1-0.5c-0.2-0.2-0.3-0.4-0.3-0.6
	c0-0.1-0.1-0.4-0.1-0.5s-0.1-0.1-0.1-0.2c0-0.1-0.2-0.4-0.3-0.6c-0.1-0.2-0.4-0.5-0.5-0.5s-0.1,0.4,0,0.8c0.1,0.3,0.2,0.5,0.3,0.7
	c0,0.1,0,0.1,0,0.1s-0.2-0.2-0.3-0.4c-0.1-0.2-0.3-0.4-0.4-0.6c-0.1-0.2-0.2-0.6-0.3-0.8c-0.1-0.4-0.2-0.7-0.3-0.9
	c-0.1-0.2-0.2-0.3-0.3-0.3c0,0,0,0,0,0.1s0,0.2,0,0.2c0,0.1-0.1,0.1-0.3-0.1c-0.2-0.2-0.3-0.3-0.4-0.3s-0.1,0-0.1,0.2
	c0,0.3,0,0.4,0.1,0.6v0.1c0,0-0.1-0.1-0.3-0.2c-0.1-0.1-0.2-0.1-0.1,0v0.1c0.1,0.3,0.2,0.5,0.5,0.8s0.4,0.4,0.9,0.7
	c0.2,0.2,0.4,0.3,0.5,0.4c0.1,0.1,0.2,0.2,0.2,0.2c0,0.1,0.1,0.1,0,0.1c0,0-0.5-0.1-0.7-0.2c-0.2-0.1-0.4-0.2-0.6-0.3
	c-0.3-0.3-0.5-0.4-0.8-1c-0.4-0.6-0.5-1-0.3-1.5c0-0.1,0.2-0.4,0.2-0.4c0.4-0.5,0.6-1.1,0.5-1.3c0-0.1-0.1,0-0.1,0.1
	c-0.1,0.1-0.4,0.4-0.4,0.4s0,0,0-0.1c0-0.2,0-0.5,0-0.5c0-0.1,0-0.1,0-0.1c-0.1,0-0.3,0.2-0.4,0.4c0,0.1-0.1,0.1-0.1,0V32l0,0
	c0,0,0,0.1-0.1,0.1c-0.2,0.4-0.2,0.7-0.2,1.1c0,0.3,0,0.5,0.1,0.8c0.1,0.2,0.2,0.4,0.3,0.7c0.1,0.3,0.1,0.3,0.3,0.5
	c0.2,0.3,0.3,0.3,0.6,0.6c0.1,0.1,0.2,0.2,0.1,0.2c0,0-0.3,0-0.5-0.1c-0.1-0.1-0.4-0.2-0.5-0.4c-0.2-0.2-0.4-0.5-0.5-0.7
	c-0.1-0.1-0.2-0.4-0.3-0.6c-0.1-0.3-0.2-0.6-0.2-0.9c0-0.3,0.1-0.6,0.2-0.9c0.1-0.2,0.1-0.3,0.2-0.4c0.1-0.3,0.1-0.8,0.1-0.8
	s-0.1,0-0.1,0.1c-0.1,0.1-0.2,0.1-0.2,0.1s0,0,0-0.2c0-0.1,0-0.1,0-0.2s-0.1-0.1-0.1-0.2s0-0.1-0.1-0.1c0,0-0.2,0.1-0.3,0.2
	c-0.1,0.2-0.1,0.2-0.2,0.2c0,0-0.1,0-0.2-0.4c-0.1-0.3-0.2-0.5-0.3-0.5c-0.1,0-0.1,0.7-0.1,1.1c0,0.2,0,0.2,0.2,0.7
	c0.2,0.6,0.3,1,0.2,1c-0.1,0-0.3-0.3-0.5-0.6s-0.3-0.6-0.3-0.7s0-0.2,0-0.3c0.1-0.9,0.1-1,0.2-1.4c0-0.3,0-0.4,0-0.4
	c0-0.1-0.1-0.1-0.2,0.2c-0.1,0.2-0.2,0.5-0.2,0.6c0,0,0,0.1,0,0.2s0,0.2,0,0.2c0,0.1,0,0.1,0,0.1s-0.1-0.1-0.1-0.2
	c0-0.2,0-0.6,0.1-0.9c0-0.1,0.1-0.3,0.1-0.4c0,0,0-0.1,0.1-0.2c0-0.1,0.1-0.2,0.1-0.3c0.1-0.2,0.1-0.2-0.1-0.1s-0.3,0.3-0.5,0.5
	c-0.1,0.1-0.1,0.1-0.1,0.3c0,0.1,0,0.1,0,0.1s-0.1-0.1-0.1-0.2c0-0.2-0.1-0.5-0.1-1c0-0.1,0-0.2,0-0.2l0,0c0,0,0,0.1,0,0.3
	c0,0.3,0,0.5,0.1,0.9c0.1,0.5,0.1,0.7,0,0.7s-0.3-0.4-0.6-0.9c-0.2-0.3-0.5-1-0.5-1.1c0-0.2,0-0.3,0.2-0.5c0.1-0.1,0.1-0.1,0.3-0.5
	c0.3-0.6,0.6-1.2,0.7-1.5c0-0.1,0-0.1-0.1,0c0,0-0.4,0.5-0.5,0.6C15,27,15,27.1,15,27.2v0.1c0,0,0,0-0.1,0s-0.1,0-0.2,0.2
	c-0.1,0.2-0.2,0.2-0.2,0.2s0,0,0-0.1c0-0.2,0.1-0.5,0.2-0.8c0.1-0.2,0.2-0.6,0.3-0.6c0,0,0.1-0.1,0.1-0.2c0.1-0.1,0.1-0.2,0.2-0.3
	c0.1-0.1,0.4-0.4,0.6-0.5c0.1-0.1,0.1-0.1,0.1-0.1c-0.2-0.1-0.5,0.2-1,0.8c-0.1,0.2-0.2,0.3-0.3,0.4s-0.1,0.1-0.1-0.1s0-0.3-0.1-0.3
	h-0.1h-0.1h-0.1c0,0,0,0.1,0,0.5c0,0.5,0,0.5,0,0.6c0,0-0.1,0-0.2-0.1c-0.1-0.1-0.1-0.2-0.3-0.5c-0.3-0.7-0.5-1-0.9-1.3
	c-0.1-0.1-0.2-0.1-0.4-0.2s-0.2,0-0.2,0.2s0,0.2,0.1,0.3c0.1,0.3,0.3,0.6,0.5,0.7c0.1,0,0.1,0,0.2,0.1c0.1,0,0.1,0,0.2,0
	c0.1,0,0.2,0.2,0.3,0.2c0.1,0.1,0.1,0.2,0.1,0.3c0,0.1,0,0.1,0.1,0.2c0,0,0.1,0.1,0.2,0.4c0.1,0.2,0.2,0.5,0.3,0.7
	c0,0.1,0,0.1,0,0.1l0,0c0,0-0.1-0.1-0.3-0.4s-0.4-0.5-0.6-0.7c-0.1-0.1-0.4-0.2-0.5-0.3c-0.1,0-0.2,0-0.2,0s0,0.1,0,0.2
	c0.1,0.2,0.1,0.2,0.4,0.5c0.2,0.3,0.4,0.4,0.9,0.9c0.2,0.2,0.4,0.5,0.5,0.5c0.2,0.2,0.3,0.3,0.6,1c0.1,0.2,0.2,0.3,0.2,0.4h0.1
	c0.1,0,0.2,0.1,0.4,0.2c0.1,0.1,0.1,0.1,0.2,0.3C16,30.8,16,30.9,16,31c0,0.2,0,0.2,0.1,0.4v0.2l0.1,0.2c0.1,0.2,0.2,0.5,0.2,0.5
	l0,0c0,0-0.1,0-0.2,0c-0.2,0-0.3-0.1-0.4,0c-0.1,0-0.1,0-0.1,0c-0.1-0.1-0.3-0.2-0.3-0.2s0,0,0,0.1c0,0,0,0.1,0.1,0.1
	c0.1,0.1,0.1,0.1,0.1,0.1s-0.1,0-0.2,0c-0.2,0-0.2,0-0.2,0.1s0.1,0.2,0.2,0.4c0.1,0.1,0.1,0.1,0,0.1c-0.2,0-0.3,0.1-0.3,0.1
	s0.1,0.1,0.2,0.1c0.2,0,0.2,0.1,0.3,0.2c0.2,0.2,0.6,0.3,1.1,0.3c0.2,0,0.3,0,0.5,0.1C17,34,17,34,17.2,34.3
	c0.1,0.2,0.3,0.5,0.4,0.6s0.1,0.2,0.2,0.3s0.2,0.2,0.2,0.3c0.2,0.2,0.3,0.3,0.3,0.4c0,0,0,0-0.1,0c-0.3-0.1-1-0.5-1.3-0.6
	c0,0-0.1-0.1-0.2-0.1c0,0-0.1-0.1-0.2-0.1S16.4,35,16.3,35c-0.1-0.1-0.1-0.1-0.3-0.2c-0.2-0.1-0.2-0.2-0.5-0.3
	c-0.1-0.1-0.2-0.1-0.2-0.1c-0.1-0.1-0.2-0.2-0.3-0.2c-0.1-0.1-0.4-0.3-0.4-0.4c-0.1-0.1-0.3-0.4-0.3-0.5c0,0,0-0.1,0-0.2
	c0-0.2,0-0.4,0.1-0.8c0.1-0.6,0.1-1,0.1-1.3c0-0.2-0.2-0.3-0.2-0.3c-0.1,0-0.2,0.3-0.2,0.5s0,0.4,0,1c0,0.4,0,0.9,0,0.9
	S14,33,13.9,32.9c0-0.1-0.1-0.2-0.1-0.5c-0.1-0.4-0.2-0.5-0.4-0.7c-0.1-0.1-0.2-0.2-0.2-0.2l-0.1-0.1c-0.2-0.1-0.3-0.4-0.4-0.5
	c-0.1-0.3-0.1-0.4-0.1-0.8c0-0.2,0.1-0.3,0.1-0.4s0-0.1,0.1-0.4c0-0.2,0-0.7-0.1-0.8h-0.1c-0.1,0.1-0.2,0.4-0.3,0.7
	c0,0.1,0,0.6,0,0.7c0,0.2,0,0.2,0,0.1c0,0-0.1-0.1-0.2-0.3c0,0-0.1-0.1-0.1-0.2s-0.1-0.2-0.2-0.3c-0.1-0.1-0.1-0.2-0.1-0.2h-0.1
	c0,0-0.1,0-0.2-0.1c-0.1,0-0.1,0-0.1,0s0.1,0.2,0.2,0.5c0,0.1,0.1,0.2,0.1,0.3c0.1,0.1,0.1,0.2,0.1,0.2s0,0-0.1,0s-0.1,0-0.2,0.1
	v0.1c-0.1,0.1,0,0.1,0.1,0.2c0.1,0,0.1,0,0.2,0.1c0.1,0,0.1,0,0,0.1c-0.1,0-0.4,0-0.6-0.1c-0.2,0-0.4-0.1-0.5-0.1s-0.1,0-0.1,0
	s0,0,0,0.1c0.1,0,0.3,0.1,0.4,0.2c0.1,0,0.2,0,0.2,0.1c0.2,0,0.4,0.1,0.6,0.1c0.2,0,0.2,0,0.4,0.1c0.1,0.1,0.1,0.1,0.2,0.2
	c0,0.1,0.2,0.2,0.3,0.3c0.2,0.2,0.4,0.4,0.5,0.5c0.2,0.3,0.4,0.6,0.4,0.8v0.1l0,0c0,0-0.1,0-0.2-0.1c-0.1-0.1-0.1-0.1-0.2-0.1
	c-0.1-0.1-0.2-0.3-0.3-0.4c-0.1-0.1-0.4-0.2-0.5-0.2c0,0-0.1,0-0.2,0c-0.1,0-0.3-0.1-0.6-0.1c-0.1,0-0.3,0-0.4,0c-0.3,0-0.3,0-0.3,0
	c0,0.1,0.2,0.2,0.5,0.3c0.1,0,0.3,0.1,0.4,0.1c0.1,0,0.3,0.1,0.3,0.1c0.1,0,0.2,0.1,0.2,0.1c0.2,0.1,0.5,0.2,0.6,0.3
	s0.1,0.1,0.1,0.2c0,0,0,0-0.1,0c-0.2-0.1-0.5-0.2-0.7-0.2c-0.2-0.1-0.5-0.1-0.7-0.1c-0.3,0-0.3,0-0.2,0.1s0.4,0.3,0.9,0.4
	c0.3,0.1,0.9,0.2,1.1,0.3c0,0,0.1,0.1,0.2,0.1c0.1,0,0.3,0.2,0.4,0.3c0.4,0.3,0.4,0.3,0.7,0.5c0.2,0.2,0.3,0.3,0.3,0.4
	c0,0,0,0.1-0.1,0c-0.3-0.1-0.6-0.2-0.9-0.3c-0.2-0.1-0.3-0.2-0.5-0.3C13.1,34,13,34,12.8,33.9c-0.3-0.2-0.6-0.3-0.9-0.3
	c-0.2,0-0.3,0-0.3,0c-0.1,0,0,0.1,0.2,0.2c0.2,0.1,0.3,0.2,0.3,0.3c0,0,0,0-0.1,0s-0.1,0.1-0.1,0.1s0.1,0.1,0.1,0.2
	c0.1,0.1,0.3,0.2,0.4,0.2l0,0c0,0,0,0-0.1,0.1c-0.2,0.1-0.5,0.2-0.5,0.2s0,0,0.1,0.1c0.2,0.1,0.4,0.1,0.6,0.1c0.1,0,0.4,0,0.7,0
	c0.7,0,1,0,1.3,0.1c0.5,0.1,0.9,0.2,1.2,0.4c0.2,0.1,0.4,0.3,0.4,0.3s0,0-0.6,0.1c-1,0-1.1,0-1.8-0.2c-0.4-0.1-0.5-0.2-0.6-0.2
	s-0.1,0-0.1,0s0,0,0,0.1c0.1,0.1,0.1,0.2,0.1,0.2s0,0-0.3,0.1c-0.2,0-0.3,0.1-0.4,0.1c0,0,0,0.1,0.1,0.1c0.1,0.1,0.2,0.2,0.1,0.3
	c0,0-0.2,0.1-0.5,0.2c-0.1,0-0.3,0.1-0.3,0.1s-0.1,0,0,0.1c0,0,0.2,0.1,0.3,0.1s0.4,0.1,0.5,0.1s0.2,0,0.4,0c0.1,0,0.3,0,0.3,0h0.1
	c0.1,0,0.2,0,0.3,0s0.2,0,0.2,0c0.1,0,0.5-0.1,0.6-0.2c0,0,0.2-0.1,0.3-0.1c0.2-0.1,0.3-0.1,0.6-0.2c0.6-0.1,0.9-0.2,1-0.2
	s0.4,0,0.5,0.1c0.1,0,0.2,0.1,0.4,0.1c0.2,0.1,0.2,0.1,0.2,0.1s0,0-0.3,0c-0.4,0-0.7,0.1-1.1,0.2c-0.2,0-0.5,0.2-0.7,0.2
	c-0.2,0.1-0.4,0.1-0.4,0.2c0,0-0.1,0.1-0.2,0.1c-0.2,0.1-0.5,0.2-0.6,0.3c-0.1,0-0.2,0.1-0.2,0.1c-0.3,0.2-0.6,0.4-0.6,0.4
	s0,0,0.1,0.1c0.3,0.1,0.3,0.1,0.2,0.2c-0.1,0.1-0.2,0.2-0.5,0.4s-0.3,0.2-0.3,0.2c0.1,0.1,0.3,0.1,0.5,0c0.1,0,0.2,0,0.2,0h0.1l0,0
	c0,0.1-0.1,0.3-0.2,0.5c-0.1,0.1-0.1,0.2,0,0.2C13.7,39.2,13.7,39.2,13.8,39.2z"/>
<path id="path3224" fill="#FFA300" d="M34.4,32.1c0.1,0,0.1-0.1,0.1-0.2s0-0.1,0.1-0.1s0.1,0,0.1,0l0.1-0.1v-0.1c0,0,0,0,0.1,0
	c0.1,0.1,0.2,0.1,0.2,0c0,0,0,0,0-0.1c0,0-0.1-0.1-0.2-0.1h-0.1c0,0,0,0,0-0.1v-0.1c0-0.1,0-0.1-0.1-0.1s-0.1,0,0-0.1
	c0.1,0,0.1-0.1,0.1-0.2v-0.1c0,0,0,0,0.1,0s0.1-0.1,0.1-0.1c0-0.1-0.1-0.1-0.2-0.1c-0.1,0-0.2,0.1-0.4,0.2c-0.2,0.2-0.2,0.3-0.3,0.6
	C34,31.5,34,31.5,34,31.7c0,0.3,0,0.4,0.2,0.4C34.3,32.1,34.3,32.1,34.4,32.1z"/>
<path id="path3222" fill="#FFA300" d="M15.7,32c0,0,0.1-0.1,0.1-0.2c0-0.2,0-0.5-0.1-0.7s-0.1-0.2-0.2-0.4c-0.2-0.2-0.3-0.3-0.4-0.3
	c-0.1,0-0.1,0-0.2,0.1c0,0,0,0,0,0.1s0.1,0.1,0.1,0.1c0.1,0,0.1,0,0,0.1v0.1c0,0,0,0,0.1,0.1c0,0,0.1,0,0,0c0,0,0,0-0.1,0
	s-0.1,0-0.1,0.1v0.1c0.1,0.1,0,0.1,0,0.1s-0.1,0.1-0.2,0.1c0,0,0,0.1,0.1,0.1c0,0,0.1,0,0.2,0h0.1c0,0,0,0,0,0.1l0.1,0.1h0.1
	c0.1,0,0.1,0,0.1,0.1s0,0.1,0,0.2C15.4,31.9,15.6,32,15.7,32C15.6,32,15.7,32,15.7,32z"/>
<path id="path3220" fill="#FFA300" d="M37.1,31.7L37.1,31.7c0-0.2,0-0.2,0.1-0.2c0.2,0,0.3-0.1,0.4-0.2v-0.1v-0.1h0.2
	c0.2,0,0.2,0,0.3,0c0.1-0.1,0-0.3-0.1-0.4s-0.2-0.1-0.2,0c-0.1,0-0.2,0.2-0.3,0.3c0,0-0.1,0.1-0.2,0.2c-0.2,0.2-0.3,0.3-0.3,0.4
	L37.1,31.7C37,31.8,37,31.8,37.1,31.7z"/>
<path id="path3218" fill="#FFA300" d="M13,31.6L13,31.6c0-0.1-0.7-0.9-0.8-1h-0.1c-0.1,0-0.3,0.2-0.3,0.3c0,0.1,0,0.1,0.3,0.1h0.2
	v0.1c0,0.1,0,0.1,0.1,0.2s0.2,0.1,0.3,0.1s0.2,0,0.1,0.1C12.7,31.6,12.9,31.7,13,31.6z"/>
<path id="path3216" fill="#FFA300" d="M36.3,31.4c0.1,0,0.2-0.1,0.3-0.1c0.1-0.1,0.4-0.4,0.5-0.5c0,0,0.1-0.1,0.1-0.2s0-0.1,0-0.3
	c0-0.2,0-0.3-0.1-0.3c-0.1-0.1-0.4-0.1-0.5,0.1c0,0.1,0,0.1-0.2,0c-0.2,0-0.2,0-0.3,0S36,30.2,36,30.2c0,0.1,0,0.2,0.1,0.3l0.1,0.1
	c0,0,0,0-0.1,0s-0.1,0-0.1,0.1s0,0.3,0.1,0.4v0.1c0,0,0,0-0.1,0s-0.1,0-0.1,0v0.1C36,31.4,36.1,31.5,36.3,31.4z"/>
<path id="path3214" fill="#FFA300" d="M13.8,31.3L13.8,31.3c0.1-0.2,0-0.3-0.1-0.3s-0.1,0,0-0.1s0.1-0.2,0.1-0.3
	c0-0.1,0-0.1-0.1-0.2h-0.1c0,0,0,0,0.1-0.1s0.1-0.1,0.1-0.2c0-0.2-0.2-0.3-0.5-0.2c-0.1,0-0.1,0-0.2,0c0,0,0-0.1-0.1-0.1
	s-0.1,0-0.2,0c-0.1,0-0.1,0-0.1,0c-0.1,0-0.1,0.1-0.1,0.2c0,0.2,0,0.5,0.2,0.7c0,0.1,0.1,0.1,0.1,0.1c0,0.1,0.2,0.2,0.3,0.3
	C13.4,31.3,13.6,31.4,13.8,31.3z"/>
<path id="path3212" fill="#FFA300" d="M38.9,31.1C38.9,31,39,31,38.9,31.1c0.1-0.2,0.1-0.4,0-0.5c0,0,0,0-0.1,0h-0.1
	c0,0-0.1,0.1-0.1,0.2S38.7,31.1,38.9,31.1C38.8,31.1,38.8,31.1,38.9,31.1z"/>
<path id="path3210" fill="#FFA300" d="M39.5,31c0.1-0.1,0.1-0.2,0-0.3c-0.1-0.2-0.3-0.3-0.4-0.2c-0.1,0.1,0,0.3,0.2,0.5
	C39.4,31,39.5,31,39.5,31z"/>
<path id="path3208" fill="#FFA300" d="M11.1,30.9c0.1-0.1,0.2-0.3,0.2-0.4s-0.1-0.1-0.2-0.1c-0.1,0-0.1,0-0.1,0s-0.1,0.2-0.1,0.3
	c0,0.1,0,0.2,0.1,0.2C11,31,11,31,11.1,30.9z"/>
<path id="path3206" fill="#FFA300" d="M10.5,30.9c0.1-0.1,0.3-0.3,0.3-0.4s-0.1-0.2-0.2-0.1c-0.1,0.1-0.3,0.3-0.3,0.4s0,0.1,0,0.1
	C10.4,30.9,10.4,30.9,10.5,30.9z"/>
<path id="path3204" fill="#121212" d="M39,30.6C39.1,30.5,39,30.5,39,30.6C39,30.5,39,30.5,39,30.6L39,30.6z"/>
<path id="path3202" fill="#FFA300" d="M10.9,30.4L10.9,30.4C10.8,30.4,10.8,30.4,10.9,30.4C10.8,30.5,10.9,30.4,10.9,30.4z"/>
<path id="path3200" fill="#FFA300" d="M40.1,30.4c0.1-0.1,0.1-0.3-0.1-0.3c0,0-0.1,0-0.2,0c-0.1,0-0.2,0-0.2,0c-0.1,0-0.1,0.1,0,0.2
	c0,0.1,0.1,0.1,0.2,0.1C39.8,30.5,40,30.5,40.1,30.4z"/>
<path id="path3198" fill="#FFA300" d="M10.2,30.3c0.1,0,0.1-0.1,0.2-0.1v-0.1c-0.1,0-0.4,0-0.5,0c-0.2,0.1-0.2,0.3,0,0.3
	C10,30.3,10.1,30.3,10.2,30.3z"/>
<path id="path3196" fill="#FFA300" d="M38.9,30.1c0.1-0.1,0.1-0.3,0-0.4s-0.3-0.1-0.3,0s0,0.1,0,0.2S38.7,30.1,38.9,30.1
	C38.7,30.2,38.8,30.2,38.9,30.1z"/>
<path id="path3194" fill="#121212" d="M39,30.1C39.1,30.1,39,30.1,39,30.1L39,30.1L39,30.1L39,30.1z"/>
<path id="path3192" fill="#FFA300" d="M11.2,30c0.1-0.1,0.1-0.1,0.1-0.2c0.1-0.2,0-0.4-0.2-0.3c-0.1,0.1-0.2,0.1-0.2,0.3
	C10.9,30,11,30.1,11.2,30C11.1,30.1,11.2,30.1,11.2,30z"/>
<path id="path3190" fill="#FFA300" d="M39.3,30.1c0.1,0,0.2-0.2,0.1-0.4c-0.1-0.1-0.2-0.1-0.3-0.1s-0.1,0-0.1,0c0,0.1,0,0.1,0,0.2
	c0,0.1,0,0.2,0.1,0.2C39.1,30.1,39.2,30.1,39.3,30.1z"/>
<path id="path3188" fill="#121212" d="M10.9,30L10.9,30C10.8,30,10.8,30,10.9,30C10.8,30,10.9,30,10.9,30z"/>
<path id="path3186" fill="#FFA300" d="M10.8,29.9c0.1,0,0.1-0.1,0.1-0.2s0-0.2-0.1-0.2c-0.1-0.1-0.4,0-0.4,0.1s0,0.3,0.2,0.3
	C10.6,30,10.7,30,10.8,29.9z"/>
<path id="path3184" fill="#00843D" d="M39,29.6c0.1-0.1,0.1-0.1,0.2-0.1c0.1,0,0.1,0,0.2,0c0.1,0,0.1,0,0.1,0s0.4-0.2,0.5-0.4
	c0.2-0.2,0.7-0.7,0.8-0.8c0.1-0.1,0.2-0.3,0.3-0.4c0,0,0,0,0-0.1c0,0-0.1,0-0.2,0c-0.3,0.1-0.3,0.1-0.7,0.5
	c-0.1,0.1-0.2,0.2-0.2,0.2s-0.2,0.2-0.3,0.3c-0.1,0.1-0.3,0.3-0.4,0.4c-0.1,0.1-0.2,0.2-0.2,0.2C38.9,29.6,38.9,29.7,39,29.6
	C38.9,29.7,39,29.7,39,29.6z"/>
<path id="path3182" fill="#00843D" d="M11,29.6c0,0,0-0.1-0.1-0.1c0,0-0.2-0.2-0.4-0.3c-0.3-0.3-0.4-0.4-0.8-0.7
	c-0.2-0.2-0.3-0.2-0.4-0.3C9.2,28.1,9,28,8.9,28s0,0.1,0.3,0.5s1.1,1,1.2,1h0.1C10.6,29.4,10.8,29.4,11,29.6
	C10.9,29.6,10.9,29.6,11,29.6z"/>
<path id="path3180" fill="#FFA300" d="M34.8,29.1c0.1-0.1,0.1-0.3,0-0.4l-0.1-0.1c-0.1,0-0.1-0.1,0.1-0.1c0.1,0,0.1-0.1,0.1-0.1
	c0.1-0.1,0.1-0.1,0.1-0.2l-0.1-0.1c-0.1,0-0.2,0-0.3,0h-0.1c0,0,0,0,0-0.1c0-0.2,0-0.4-0.2-0.5h-0.2c-0.1,0.1-0.1,0.3,0,0.5
	c0,0.1,0,0.1,0,0.1H34c-0.2-0.1-0.4,0-0.4,0.2c0,0.1,0,0.1,0.1,0.1c0.1,0.1,0.2,0.1,0.3,0.1s0.1,0,0.1,0s0,0-0.1,0.1
	s-0.2,0.2-0.3,0.2c0,0.1,0,0.2,0,0.2c0,0.1,0.1,0.1,0.2,0.1c0.1,0,0.1,0,0.1,0c0.1-0.1,0.1-0.1,0.2-0.3c0-0.1,0.1-0.1,0.1-0.1
	s0,0,0,0.1C34.4,29,34.5,29.1,34.8,29.1C34.7,29.1,34.7,29.1,34.8,29.1z"/>
<path id="path3178" fill="#FFA300" d="M16.1,29.1c0.1,0,0.1-0.1,0.1-0.2s-0.1-0.2-0.3-0.3c-0.1,0-0.1-0.1-0.1-0.1s0,0,0.1,0
	c0.1,0,0.1,0,0.2,0c0.2,0,0.2-0.2,0.1-0.3c0,0,0,0-0.1,0s-0.1,0-0.2,0c-0.1,0-0.2,0-0.1-0.1c0-0.1,0.1-0.1,0.1-0.2s0-0.2-0.1-0.3
	c-0.1-0.1-0.3,0-0.3,0.1s-0.1,0.2,0,0.3v0.1c0,0,0,0-0.1,0s-0.3,0-0.4,0c-0.1,0-0.1,0.1-0.1,0.1c0,0.1,0.1,0.2,0.2,0.3
	c0,0,0.1,0,0.1,0.1c0,0,0,0-0.1,0S15,28.7,15,28.8c-0.1,0.2,0,0.3,0.2,0.3c0.1,0,0.1,0,0.2-0.1c0.1-0.1,0.1-0.1,0.1-0.2v-0.1
	c0,0,0,0,0,0.1c0.1,0.1,0.1,0.2,0.2,0.3C15.9,29.1,16,29.1,16.1,29.1z"/>
<path id="path3176" fill="#FFA300" d="M38.4,28.9c0.1,0,0.2-0.1,0.3-0.2l0.1-0.1c0,0,0,0,0,0.1c0.1,0.1,0.2,0.2,0.3,0.2
	s0.2,0,0.2-0.1s0-0.2-0.1-0.3C39,28.3,39,28.3,39,28.3c0.2,0.1,0.2,0.1,0.3,0c0.1,0,0.2-0.1,0.3-0.1c0-0.1,0-0.1,0-0.1
	c0-0.1,0-0.2-0.1-0.2c-0.1-0.1-0.2,0-0.5,0.1c0,0-0.1,0-0.1,0s0,0-0.1-0.1s-0.1-0.2-0.3-0.3c-0.2-0.2-0.5-0.2-0.6,0
	c0,0.1,0,0.2,0.2,0.4c0.1,0.1,0.2,0.2,0.3,0.2c0.1,0.1,0.1,0.1,0,0.1s-0.2,0.1-0.3,0.1c-0.1,0.1-0.2,0.2-0.2,0.2c0,0.1,0,0.1,0,0.2
	C38,28.9,38.2,28.9,38.4,28.9z"/>
<path id="path3174" fill="#FFA300" d="M11.9,28.8c0.1,0,0.1-0.1,0.1-0.1c0-0.1-0.1-0.2-0.2-0.3c-0.1-0.1-0.3-0.1-0.4-0.1h-0.1
	c0,0,0,0,0.1,0s0.2-0.1,0.4-0.2c0.1-0.1,0.2-0.2,0.2-0.3c0-0.1,0-0.1,0-0.1c-0.2-0.2-0.6-0.1-0.8,0.2L11.1,28c0,0.1,0,0.1-0.2,0
	c-0.3-0.2-0.4-0.2-0.5,0c-0.1,0.1-0.1,0.2,0,0.3c0.1,0.1,0.2,0.1,0.3,0.1s0.2,0,0.3,0s0,0-0.1,0.2c-0.2,0.2-0.2,0.3-0.1,0.4l0.1,0.1
	c0,0,0.2,0,0.2-0.1c0.1,0,0.1-0.1,0.1-0.2l0,0c0,0,0.1,0,0.1,0.1c0.1,0.1,0.2,0.1,0.3,0.2C11.7,28.8,11.8,28.8,11.9,28.8z"/>
<path id="path3172" fill="#00843D" d="M39.1,27.9c0.2-0.1,0.3-0.1,0.4-0.1c0.1,0,0.1,0,0.2,0c0.1,0,0.3-0.1,0.3-0.1l0,0
	c0,0,0.2-0.1,0.3-0.2s0.2-0.1,0.2-0.2c0.1-0.1,0-0.1-0.3-0.1c-0.4,0-0.8,0.1-1,0.3h-0.1c0,0,0-0.1,0.1-0.2c0.1-0.3,0.2-0.5,0.2-0.6
	s0.1-0.3,0.1-0.4l0,0c0,0,0.1,0.1,0.1,0.2c0.1,0.2,0.2,0.3,0.3,0.4c0.2,0.1,0.1,0,0-0.2l-0.1-0.1c0,0-0.1-0.2-0.2-0.3
	c-0.2-0.2-0.2-0.3-0.1-0.4c0.1-0.2,0.1-0.2,0.5-0.5c0.1-0.1,0.4-0.4,0.6-0.5c0.2-0.1,0.4-0.5,0.4-0.5s-0.1,0-0.2,0
	c-0.2,0-0.4,0.2-0.6,0.3c-0.1,0.1-0.2,0.2-0.4,0.3c-0.1,0.1-0.1,0.1-0.2,0.1c0,0,0-0.1,0-0.3c0-0.3,0-0.4,0.1-0.7c0-0.2,0-0.3,0-0.4
	s-0.1-0.1-0.1-0.1s-0.1,0-0.1,0.1c0,0,0,0.1,0,0.3c0,0.4-0.1,0.9-0.1,0.9s0,0-0.1-0.2S39.2,24.3,39,24c-0.1-0.2-0.2-0.4-0.3-0.4
	c0,0-0.1,0-0.1,0.3c0,0.2,0,0.4,0.1,0.6S38.9,25,39,25c0.1,0.1,0.1,0.2,0.2,0.3c0.1,0.2,0.1,0.4,0,0.7c-0.1,0.6-0.3,1.1-0.4,1.3
	c-0.1,0.1-0.1,0.1-0.1-0.1c-0.1-0.4-0.3-0.8-0.5-1.1c-0.1-0.1-0.1-0.2-0.2-0.2c0,0,0,0,0,0.1s0,0.2,0.1,0.4c0.1,0.4,0.1,0.5,0.1,0.5
	L38,26.8c0-0.1-0.1-0.1-0.1,0s0.1,0.3,0.2,0.5c0.1,0.1,0.2,0.2,0.2,0.2s0.1,0,0.1,0.1c0.2,0.1,0.3,0.2,0.4,0.4l0,0
	C39,27.9,39,27.9,39.1,27.9z"/>
<path id="path3170" fill="#00843D" d="M11,27.7c0,0,0.1-0.1,0.1-0.2c0.1-0.1,0.1-0.1,0.3-0.2l0.1-0.1l0.1-0.1
	c0.1-0.1,0.2-0.3,0.2-0.4s0-0.1,0-0.2c0,0,0,0-0.1,0c-0.1,0.1-0.2,0.1-0.2,0.1s0-0.2,0.1-0.6c0-0.1,0-0.3,0-0.3l0,0
	c0,0-0.2,0.2-0.3,0.4C11.2,26.4,11,26.8,11,27c0,0.1,0,0.1-0.1,0.1c0,0-0.1-0.1-0.2-0.3c-0.1-0.3-0.3-1.1-0.3-1.3
	c0-0.2,0.1-0.5,0.2-0.7c0.1-0.1,0.2-0.4,0.3-0.5C11,24,11,23.9,11,23.6c0-0.2,0-0.2,0-0.2s0,0-0.1,0.1c-0.2,0.2-0.5,0.7-0.5,1
	c0,0.1-0.1,0.2-0.1,0.2c-0.1,0-0.1-0.5-0.1-1c0-0.2,0-0.3-0.1-0.3s-0.1,0-0.1,0c-0.1,0.1-0.1,0.1,0,0.3c0,0.2,0.1,0.4,0.1,0.6
	c0,0.1,0,0.5,0,0.6c0,0-0.1,0-0.3-0.2c-0.3-0.3-0.5-0.4-0.7-0.5C9,24.1,8.8,24,8.7,24s0,0.1,0.2,0.4c0.1,0.2,0.3,0.3,0.4,0.4
	c0,0,0.1,0.1,0.2,0.1c0,0,0.1,0.1,0.2,0.1c0.2,0.2,0.4,0.3,0.5,0.5c0.1,0.1,0.1,0.2-0.1,0.5c-0.2,0.4-0.3,0.6-0.3,0.6s0,0,0.1,0
	c0,0,0.2-0.1,0.2-0.2c0,0,0.1-0.1,0.1-0.2c0.1-0.2,0.1-0.2,0.2-0.1c0,0.2,0.1,0.4,0.3,0.8c0.1,0.3,0.2,0.4,0.2,0.4l0,0
	c-0.1-0.1-0.4-0.2-0.5-0.2C9.9,27,9.8,27,9.6,27s-0.3,0-0.3,0s0,0,0.1,0.1c0,0,0.1,0.1,0.2,0.2c0.2,0.2,0.4,0.3,0.6,0.4
	c0.1,0,0.2,0.1,0.2,0c0.1,0,0.2,0,0.4,0.1C10.9,27.9,10.9,27.9,11,27.7z"/>
<path id="path3168" fill="#FFA300" d="M36.9,26.9c0.2-0.1,0.3-0.2,0.4-0.3c0-0.1,0-0.2-0.1-0.2s-0.2,0-0.4,0.2
	c-0.1,0.1-0.2,0.3-0.1,0.4C36.7,27,36.8,27,36.9,26.9z"/>
<path id="path3166" fill="#FFA300" d="M13.2,26.9c0,0,0-0.1,0-0.2s-0.1-0.1-0.2-0.2c-0.1-0.1-0.2-0.2-0.3-0.2s-0.2,0-0.2,0.1
	s0.1,0.3,0.2,0.3c0.1,0.1,0.2,0.1,0.3,0.1C13.2,26.9,13.2,26.9,13.2,26.9z"/>
<path id="path3164" fill="#FFA300" d="M40.4,26.4c0,0,0.1-0.1,0.1-0.2v-0.1h0.1c0.1,0,0.1,0,0.2,0.1c0.1,0,0.1,0,0.2,0
	c0,0,0.1-0.1,0.1-0.2S41,25.8,41,25.8s-0.1-0.1-0.2-0.1c-0.1,0-0.1-0.1-0.1-0.1s0,0,0-0.1s0-0.2,0-0.3c0-0.1-0.1-0.1-0.2-0.1
	c-0.1,0-0.1,0-0.2,0.1c-0.3,0.2-0.6,0.4-0.6,0.6c0,0.1,0,0.1,0.2,0.2c0.1,0,0.1,0.1,0.1,0.1c0,0.2,0.1,0.2,0.1,0.3
	C40.2,26.4,40.3,26.5,40.4,26.4z"/>
<path id="path3162" fill="#FFA300" d="M9.7,26.3c0.1-0.1,0.1-0.1,0.1-0.1v-0.1c0,0,0-0.1,0.1-0.1c0.2-0.1,0.2-0.2,0-0.5
	c-0.1-0.1-0.2-0.2-0.4-0.3c-0.1-0.1-0.1-0.1-0.2-0.1c-0.1,0-0.1,0-0.1,0c-0.1,0.1-0.1,0.2-0.1,0.4v0.1c0,0,0,0-0.1,0
	s-0.2,0.1-0.2,0.2c-0.1,0.1-0.1,0.2,0,0.2c0,0.1,0,0.1,0.1,0.1H9c0.1,0,0.2,0,0.3-0.1h0.1c0,0,0,0,0,0.1s0,0.1,0.1,0.2
	C9.5,26.3,9.5,26.3,9.7,26.3C9.7,26.3,9.7,26.3,9.7,26.3z"/>
<path id="path3160" fill="#FFA300" d="M34.9,26.3L34.9,26.3c0-0.3-0.3-0.7-0.5-0.8c-0.1-0.1-0.3,0-0.3,0.1s0.1,0.1,0.2,0.1
	c0.1,0,0.1,0,0,0.1c0,0.1,0,0.1,0,0.2s0.1,0.1,0.2,0.1c0.1,0,0.1,0,0.1,0s0,0.1,0,0.2C34.8,26.3,34.8,26.3,34.9,26.3z"/>
<path id="path3158" fill="#FFA300" d="M15.2,26.2c0.1,0,0.1-0.2,0.1-0.2s0,0,0.1,0s0.1,0,0.2,0c0.1-0.1,0.1-0.2,0.1-0.3v-0.1
	c0,0,0,0,0.1,0s0.1,0,0.1-0.1c0.1-0.1,0-0.1-0.1-0.2c-0.1,0-0.2,0.1-0.4,0.2C15.1,25.8,15,26,15,26.2C15,26.3,15.1,26.3,15.2,26.2z"
	/>
<path id="path3156" fill="#121212" d="M10,26L10,26C9.9,26,9.9,26,10,26C9.9,26,9.9,26,10,26L10,26z"/>
<path id="path3154" fill="#FFA300" d="M39.1,26c0.1,0,0.2-0.1,0.3-0.1v-0.1c0-0.2-0.1-0.6-0.3-0.8c-0.1-0.1-0.1-0.1-0.3-0.1
	s-0.2,0-0.3,0.1s0,0.2,0.2,0.4c0.1,0.1,0.1,0.1,0,0.1s-0.2,0.1-0.2,0.2s0,0.3,0,0.3C38.8,26,39,26,39.1,26z"/>
<path id="path3152" fill="#FFA300" d="M36.3,25.9c0.1-0.1,0.1-0.2,0-0.3c-0.1-0.1,0-0.1,0.1-0.1s0.1,0,0.2,0l0.1-0.1
	c0.1-0.1,0-0.2-0.1-0.3c-0.1,0-0.1-0.1,0-0.1c0,0,0.1,0,0.1-0.1c0,0,0-0.1,0-0.2s0-0.1,0-0.2s-0.1-0.1-0.2-0.1c-0.1,0-0.2,0-0.3,0.1
	l0,0l0,0c0,0,0-0.1-0.1-0.1L36,24.3c0,0-0.1,0-0.2,0c-0.1,0-0.1,0-0.1,0s0,0,0,0.1s0,0.2,0.1,0.2c0.1,0.1,0,0.1-0.1,0.1
	s-0.2,0-0.2,0c-0.1,0-0.1,0.1-0.1,0.2s0.1,0.1,0.1,0.2c0.1,0,0.1,0.1,0,0.1s-0.1,0.1-0.2,0.1c0,0.1,0,0.1,0,0.2
	c0.1,0.1,0.2,0.1,0.3,0h0.1c0,0,0,0,0,0.1s0,0.1,0,0.1c0.1,0.1,0.2,0.1,0.3,0.1s0.1,0,0.1,0C36.1,25.9,36.2,26,36.3,25.9z"/>
<path id="path3150" fill="#FFA300" d="M11.1,25.9c0.1-0.1,0.2-0.3,0.1-0.4c0-0.1-0.1-0.2-0.2-0.2l0,0c0,0,0,0,0.1-0.1
	s0.2-0.1,0.2-0.2c0.1-0.1,0-0.2-0.1-0.2c0,0-0.1,0-0.2,0c-0.1,0-0.1,0-0.2,0c-0.1,0.1-0.2,0.2-0.3,0.5c-0.1,0.2-0.1,0.4,0,0.4
	c0,0.1,0.1,0.2,0.3,0.2C10.8,25.9,11,25.9,11.1,25.9z"/>
<path id="path3148" fill="#FFA300" d="M13.8,25.8L13.8,25.8c0.1-0.1,0.1-0.1,0.1-0.1s0,0,0.1,0c0.1,0.1,0.2,0,0.3,0v-0.1
	c0-0.1,0-0.1,0-0.1s0,0,0.1,0c0.1,0.1,0.3,0.1,0.3,0s0-0.2-0.2-0.3c-0.1,0-0.1,0-0.1,0s0,0,0.1,0c0.1-0.1,0.2-0.2,0.1-0.3
	c0-0.1-0.1-0.1-0.3-0.1c-0.1,0-0.2,0-0.2,0s0,0,0-0.1c0.1-0.1,0.1-0.2,0.1-0.2c0-0.1-0.2-0.1-0.3,0c-0.1,0-0.1,0.1-0.2,0.2l0,0
	c0,0,0,0-0.1,0c-0.1-0.1-0.3-0.1-0.4-0.1c-0.1,0-0.1,0.1-0.1,0.2s0.1,0.3,0.2,0.3h0.1l0,0c-0.1,0-0.1,0.1-0.1,0.2s0,0.1,0.1,0.2
	c0.1,0,0.1,0,0.2,0c0.1,0,0.1,0,0.1,0.1C13.6,25.7,13.6,25.8,13.8,25.8C13.6,25.9,13.7,25.9,13.8,25.8z"/>
<path id="path3146" fill="#FFA300" d="M35.2,25.1L35.2,25.1c0-0.1,0-0.2,0.1-0.3c0-0.1,0.1-0.1,0.2-0.1c0.1,0,0.1,0,0.1,0v-0.1
	c0-0.1,0-0.1,0-0.1c0-0.1,0.1-0.1,0.2-0.1c0.1,0,0.1,0,0.2,0c0.1,0,0.1,0,0.1,0v-0.2c-0.1-0.1-0.2-0.1-0.3-0.1c0,0-0.1,0.1-0.2,0.2
	c0,0,0,0-0.1,0s-0.1,0-0.2,0c-0.1,0-0.2,0-0.3,0.1c0,0,0,0,0,0.1c0,0,0,0.1,0,0.2s0,0.1,0,0.1s0,0-0.1,0c-0.2,0-0.2,0.1-0.2,0.3
	c0,0.1,0.1,0.1,0.1,0.1C35.1,25.1,35.2,25.1,35.2,25.1z"/>
<path id="path3144" fill="#FFA300" d="M14.9,25c0.1,0,0.1-0.1,0.1-0.2s0-0.2-0.1-0.2s-0.1,0-0.1-0.1s0.1-0.2,0-0.3
	c0,0-0.1,0-0.1-0.1c-0.1,0-0.3,0-0.4,0h-0.1l0,0c0-0.1-0.1-0.1-0.2-0.1c-0.1,0-0.2,0.1-0.2,0.1c0,0.1,0,0.2,0,0.2s0.1,0,0.2,0
	c0.1,0,0.2,0,0.3,0s0.1,0.1,0.1,0.2v0.1h0.1c0.2,0,0.3,0.1,0.3,0.2S14.8,24.9,14.9,25C14.8,25,14.9,25,14.9,25z"/>
<path id="path3142" fill="#00843D" d="M36.2,24.5c0-0.1,0.1-0.2,0.3-0.2c0.4-0.1,0.5-0.2,0.7-0.3c0.2-0.1,0.2-0.2,0.4-0.3
	c0.1-0.1,0.3-0.4,0.3-0.4s0-0.1,0.1-0.1c0.1-0.1,0.1-0.2,0.1-0.2c-0.1,0-0.5,0.2-0.6,0.3c0,0-0.2,0.1-0.3,0.2s-0.3,0.2-0.4,0.3
	c-0.1,0-0.1,0.1-0.2,0.1c-0.1,0-0.1,0.1-0.1,0c0,0,0.2-0.2,0.4-0.4c0.6-0.6,0.9-0.9,1.1-1.1c0.1-0.1,0-0.1-0.1-0.1s-0.3,0.2-0.4,0.3
	c0,0-0.2,0.1-0.3,0.2c-0.2,0.2-0.5,0.5-0.7,0.7c-0.1,0.1-0.1,0.1-0.1,0.1s0-0.1,0-0.2c0,0,0,0,0-0.1c0,0,0,0-0.1,0s-0.1,0-0.1,0
	s0,0,0-0.2s0-0.2,0.1-0.4c0.1-0.5,0.1-0.6,0.1-0.6l-0.2,0.1v0.1c0,0.1-0.1,0.5-0.1,0.7C36,23.5,36,23.5,36,23.5s0,0-0.1-0.1
	s-0.1-0.1-0.1,0.2c0,0.1,0,0.1,0,0.2c0,0.2,0,0.1-0.2-0.1c-0.1-0.2-0.2-0.3-0.3-0.3s-0.2,0-0.2,0s0,0.1,0.1,0.1
	c0.1,0.1,0.3,0.3,0.4,0.5c0.1,0.1,0.1,0.2,0.2,0.2c0,0,0,0,0.1,0c0.1-0.1,0.1-0.1,0.2-0.1C36.1,24,36.2,24.3,36.2,24.5
	C36.1,24.5,36.1,24.5,36.2,24.5C36.1,24.6,36.1,24.5,36.2,24.5z"/>
<path id="path3140" fill="#00843D" d="M13.8,24.4L13.8,24.4c-0.1-0.1-0.1-0.2-0.1-0.2c0-0.1,0-0.2,0.1-0.2c0.1-0.1,0.2,0,0.3,0h0.1
	c0,0,0,0,0.2-0.3c0.1-0.2,0.3-0.4,0.4-0.5c0.1,0,0.1-0.1,0-0.1h-0.2c0,0-0.2,0.2-0.3,0.3c-0.1,0.2-0.1,0.2-0.2,0.2c0,0,0,0,0-0.2
	s0-0.3-0.1-0.3c0,0,0,0-0.1,0h-0.1L13.7,23c0-0.1,0-0.2-0.1-0.4c0,0,0-0.1,0-0.2c-0.1-0.5-0.1-0.5-0.2-0.6c-0.1-0.1-0.1-0.1-0.1-0.1
	l0,0c0,0,0,0.2,0.1,0.3c0.1,0.3,0.1,0.5,0.1,0.7c0,0.1,0,0.1-0.1,0.1s-0.1,0-0.1,0.1s0,0.2,0,0.2L13.2,23c-0.1-0.2-0.3-0.3-0.6-0.6
	c-0.4-0.3-0.5-0.4-0.8-0.6c-0.1-0.1-0.1-0.1-0.1,0c0,0,0,0,0,0.1c0.1,0.2,0.4,0.5,0.9,0.9c0.4,0.4,0.6,0.6,0.6,0.6l0,0
	c0,0-0.1,0-0.3-0.2c-0.1,0-0.2-0.1-0.3-0.2s-0.2-0.1-0.3-0.2c-0.2-0.1-0.5-0.3-0.7-0.4c-0.1,0-0.2,0-0.1,0.1C12,22.9,12,23,12,23.1
	s0.1,0.1,0.2,0.3c0.2,0.2,0.5,0.5,0.8,0.6c0.1,0,0.2,0.1,0.5,0.2C13.6,24.2,13.7,24.3,13.8,24.4C13.8,24.5,13.8,24.5,13.8,24.4z"/>
<path id="path3138" fill="#FFA300" d="M34.7,23.9c0.1-0.1,0.2-0.2,0.2-0.5v-0.2H35c0.2,0,0.2,0,0.3-0.1s0.1-0.1,0.1-0.2
	s0-0.1-0.1-0.2c-0.1,0-0.2,0-0.3,0h-0.1v-0.1c0-0.1,0-0.1,0-0.2s0-0.1-0.1-0.2s-0.2-0.1-0.2,0c-0.1,0.1-0.1,0.2-0.1,0.3
	c0,0.1,0,0.1-0.1,0.1c-0.2-0.3-0.3-0.3-0.4-0.3c-0.1,0-0.2,0.1-0.2,0.3c0,0.1,0.1,0.2,0.2,0.3l0.1,0.1c0,0,0,0-0.1,0
	c-0.2,0-0.2,0.1-0.2,0.3c0,0.1,0.1,0.2,0.1,0.2c0.1,0,0.2,0.1,0.3,0c0.1,0,0.1,0,0.1,0c0,0.1,0.1,0.3,0.1,0.4h0.1
	C34.6,24,34.7,24,34.7,23.9z"/>
<path id="path3136" fill="#FFA300" d="M40.4,24C40.4,24,40.5,23.9,40.4,24c0.1-0.1,0.1-0.2,0.1-0.2c0-0.1,0-0.1-0.1-0.2v-0.1h0.1
	c0.1,0,0.2,0,0.2-0.1c0.1-0.1,0.2-0.2,0.1-0.3c-0.1-0.1-0.2-0.2-0.3-0.2h-0.1c0,0,0,0,0-0.1c0.2-0.3,0.1-0.6-0.1-0.6
	c-0.1,0-0.2,0.1-0.2,0.1c0,0.1-0.1,0.2-0.1,0.2s0,0-0.1,0c-0.1-0.1-0.3-0.2-0.4-0.2c-0.1,0-0.1,0-0.1,0s-0.1,0.1-0.1,0.2
	s0.1,0.3,0.2,0.4l0.1,0.1c0,0,0,0-0.2,0.2c-0.2,0.1-0.2,0.2-0.1,0.3l0,0h0.1c0.1,0,0.1,0,0.2-0.1c0.1,0,0.1-0.1,0.2-0.1h0.1
	c0,0,0,0,0,0.1c0.1,0.2,0.2,0.5,0.3,0.5C40.3,24,40.4,24,40.4,24z"/>
<path id="path3134" fill="#FFA300" d="M15.4,23.9c0.1,0,0.2-0.2,0.2-0.4c0-0.1,0-0.1,0-0.1s0,0,0.1,0s0.2,0,0.2,0
	c0.1,0,0.1-0.1,0.1-0.1c0-0.1,0-0.1,0-0.2s0-0.1,0-0.2l-0.1-0.1h-0.1c0,0,0,0,0.1-0.1l0.1-0.1c0-0.1,0.1-0.1,0.1-0.1
	c0-0.1,0-0.2-0.2-0.2c-0.1,0-0.2,0-0.3,0.1l-0.1,0.1c-0.1,0.1-0.1,0.1-0.1,0c0-0.2-0.1-0.3-0.2-0.3c-0.1,0-0.1,0-0.2,0
	c-0.1,0.1-0.1,0.2-0.1,0.4v0.1c0,0,0,0-0.1,0s-0.2,0-0.3,0c0,0-0.1,0-0.1,0.1c-0.1,0.2,0,0.3,0.2,0.4c0,0,0.1,0,0.2,0h0.1
	c0,0,0,0.1,0,0.2c0,0.2,0,0.3,0.1,0.4c0,0.1,0.1,0.1,0.2,0.2C15.3,23.9,15.4,23.9,15.4,23.9z"/>
<path id="path3132" fill="#FFA300" d="M9.6,23.9c0.1-0.1,0.3-0.3,0.3-0.5c0-0.1,0-0.1,0-0.1s0.1,0,0.1,0.1c0.1,0.1,0.2,0.1,0.3,0.1
	c0.2,0,0.3,0,0.3-0.2c0-0.1-0.1-0.2-0.2-0.3c-0.1-0.1-0.1-0.1-0.1-0.1s0,0,0.1-0.1c0.2-0.1,0.3-0.4,0.2-0.6c0-0.1-0.1-0.1-0.3,0
	c-0.1,0.1-0.2,0.1-0.3,0.2l0,0c0,0,0,0,0-0.1S9.9,22.1,9.8,22c-0.1,0-0.2,0-0.2,0c-0.1,0-0.1,0.1-0.1,0.2s0,0.2,0.1,0.4v0.1
	c0,0-0.1,0-0.2,0c-0.2,0-0.2,0-0.2,0C9,22.9,9,22.9,9,23c0,0.2,0.1,0.3,0.4,0.3h0.1c0,0,0,0,0,0.1C9.4,23.7,9.4,23.9,9.6,23.9
	C9.5,23.9,9.6,23.9,9.6,23.9z"/>
<path id="path3130" fill="#FFA300" d="M36.8,22.5c0.1,0,0.1-0.1,0.1-0.2c0-0.2,0-0.2-0.1-0.3c-0.1-0.1-0.1-0.1,0.1-0.1
	c0.1,0,0.4,0,0.4,0c0.1-0.1,0.1-0.2,0.1-0.3c0-0.1-0.1-0.2-0.3-0.2c-0.1,0-0.2,0-0.4,0c0,0,0,0,0-0.1c0.1,0,0.2-0.1,0.2-0.2
	s0-0.3,0-0.3c0-0.1-0.2-0.2-0.4-0.2s-0.2,0.2-0.3,0.5c0,0.1,0,0.2,0,0.2s0,0-0.1-0.1c-0.1-0.2-0.3-0.3-0.4-0.3
	c-0.1,0-0.2,0.1-0.2,0.2c0,0.2,0.2,0.4,0.5,0.4c0.1,0,0.1,0,0.1,0.1c0,0-0.1,0-0.2,0.1c-0.3,0.1-0.4,0.2-0.5,0.3
	c-0.1,0.1,0,0.2,0.1,0.3h0.1c0.1,0,0.2,0,0.3-0.1s0.2-0.1,0.3-0.2s0.1-0.1,0.1,0c0,0.2,0.1,0.4,0.2,0.5
	C36.7,22.5,36.8,22.5,36.8,22.5z"/>
<path id="path3128" fill="#FFA300" d="M13.2,22.4c0.1,0,0.1-0.1,0.2-0.1c0-0.1,0.1-0.2,0.1-0.3c0-0.1,0-0.1,0-0.1s0.1,0,0.2,0.1
	c0.1,0.1,0.4,0.3,0.4,0.3c0.1,0,0.2,0,0.3,0s0.2-0.1,0.1-0.3c0-0.1-0.2-0.2-0.5-0.3c-0.1,0-0.2-0.1-0.2-0.1s0,0,0.1,0
	s0.2-0.1,0.3-0.1c0.2-0.1,0.2-0.3,0.1-0.4c0-0.1-0.1-0.1-0.2-0.1c-0.1,0-0.3,0.1-0.4,0.3c0,0.1,0,0.1-0.1,0.1c0,0,0,0,0-0.1
	s0-0.3-0.1-0.4c0-0.1-0.1-0.2-0.2-0.2c-0.1,0-0.2,0-0.3,0.1s-0.1,0.5,0.1,0.7c0.1,0,0.1,0.1,0,0.1c0,0-0.1,0-0.3,0h-0.2h-0.1
	c-0.1,0.1-0.1,0.1-0.1,0.2c0,0.2,0.2,0.3,0.6,0.2c0.1,0,0.1,0,0.1,0s0,0-0.1,0.1c0-0.2,0-0.1,0,0s0,0.1,0,0.2
	C13,22.4,13.1,22.4,13.2,22.4z"/>
<path id="path3126" fill="#121212" d="M25.1,29.9c0,0,0,0,0.1-0.6c0.2-0.8,0.2-0.9,0.3-1.1c0-0.1,0-0.2,0.1-0.2s0-0.1,0-0.2v-0.1
	c0,0,0.3,0,0.5,0h0.1v0.1c0,0,0,0.1,0.1,0.1c0,0.1,0.2,0.5,0.3,0.7c0,0.1,0.1,0.2,0.1,0.3c0,0.1,0.1,0.2,0.1,0.2s0.1,0.2,0.1,0.3
	c0.2,0.4,0.2,0.4,0.2,0.4s-0.4,0-0.5,0l0,0c0-0.1-0.1-0.2-0.1-0.3v-0.1c0,0-0.1,0-0.2,0c-0.3,0-0.5,0-0.5,0s0,0.1-0.1,0.2
	c0,0.1-0.1,0.2-0.1,0.2s-0.1,0-0.2,0C25.3,29.9,25.2,29.9,25.1,29.9C25.2,29.9,25.1,29.9,25.1,29.9z"/>
<path id="path3124" fill="#FFA300" d="M25.5,29.8c0,0,0,0,0.1-0.2c0-0.1,0.1-0.2,0.1-0.2s0.2,0,0.3,0c0.2,0,0.3,0,0.4,0
	s0.1,0,0.2,0.1c0.1,0.2,0.1,0.3,0.1,0.3H27c0,0,0-0.1,0-0.2c-0.1-0.1-0.1-0.2-0.2-0.4c0-0.1-0.1-0.2-0.1-0.2
	c-0.1-0.1-0.2-0.6-0.3-0.7c0,0-0.1-0.2-0.1-0.3c-0.1-0.1-0.1-0.2-0.1-0.2s-0.1,0-0.2,0c-0.2,0-0.2,0-0.2,0s0,0.1-0.1,0.2
	c0,0.1-0.1,0.2-0.1,0.3c-0.1,0.4-0.4,1.4-0.4,1.5s0,0.1,0.2,0.1C25.5,29.8,25.5,29.8,25.5,29.8z"/>
<path id="path3122" fill="#121212" d="M25.8,29.1c0,0,0-0.2,0.1-0.3c0,0,0-0.1,0.1-0.2c0.1-0.2,0.1-0.4,0.1-0.4s0,0,0.1,0.2
	c0,0.1,0.1,0.2,0.2,0.4c0.1,0.2,0.1,0.3,0.1,0.3s-0.1,0-0.4,0H25.8L25.8,29.1z"/>
<path id="path3120" fill="#0033A0" d="M26.1,29c0.1,0,0.1,0,0.1-0.1C26,28.4,26,28.4,26,28.5c0,0,0,0.1-0.1,0.3
	c-0.1,0.2-0.1,0.3,0,0.3C25.9,29,26,29,26.1,29z"/>
<path id="path3118" fill="#121212" d="M24.1,29.9c-0.1,0-0.1,0-0.1,0s0,0,0-0.1c0,0,0-0.2-0.1-0.3c0-0.1-0.1-0.3-0.1-0.3
	s-0.1-0.2-0.1-0.3c-0.1-0.2-0.1-0.3-0.1-0.5c0-0.1,0-0.2-0.1-0.2c-0.1-0.3-0.1-0.4-0.1-0.4s0.4,0,0.5,0v0.1c0,0,0,0.2,0.1,0.2
	s0.1,0.2,0.1,0.3c0.1,0.3,0.2,0.7,0.2,0.8l0,0l0,0c0,0,0-0.1,0.1-0.2c0-0.1,0.1-0.3,0.1-0.4s0.1-0.2,0.1-0.3c0-0.1,0.1-0.2,0.1-0.3
	c0-0.1,0.1-0.2,0.1-0.2s0.3,0,0.4,0s0.1,0,0.1,0s0,0.1-0.1,0.2s-0.3,0.8-0.4,1c-0.1,0.3-0.1,0.4-0.2,0.5c0,0.1-0.1,0.2-0.1,0.2
	C24.4,29.9,24.4,29.9,24.1,29.9z"/>
<path id="path3116" fill="#FFA300" d="M24.3,29.8c0,0,0.1-0.1,0.3-0.6c0-0.1,0.1-0.3,0.1-0.3l0.1-0.2c0-0.1,0.1-0.2,0.1-0.4
	c0.1-0.3,0.2-0.4,0.1-0.4c0,0-0.1,0-0.2,0c-0.2,0-0.2,0-0.2,0.1c-0.1,0.2-0.1,0.3-0.1,0.4s-0.1,0.2-0.2,0.5
	c-0.1,0.2-0.2,0.5-0.2,0.5s0,0-0.1-0.1c0-0.1,0-0.2,0-0.2c0-0.1-0.1-0.6-0.2-0.9c0-0.1-0.1-0.2-0.1-0.3s0,0,0-0.1c0,0,0,0-0.2,0
	s-0.2,0-0.1,0.2c0.1,0.3,0.1,0.4,0.2,0.6c0,0.1,0.1,0.2,0.1,0.3c0,0.1,0.1,0.2,0.1,0.3c0.1,0.3,0.2,0.6,0.2,0.6s0,0,0.1,0
	C24.2,29.8,24.2,29.8,24.3,29.8L24.3,29.8z"/>
<path id="path3114" fill="#121212" d="M22.5,29.7c-0.1,0-0.2,0-0.5-0.1c-0.6-0.1-0.8-0.2-0.9-0.2s-0.1,0-0.1,0s0-0.1,0-0.3
	c0,0,0-0.1,0-0.2c0-0.2,0.1-0.6,0.2-0.9c0-0.1,0.1-0.3,0.1-0.3c0-0.1,0-0.2,0.1-0.3c0-0.1,0-0.2,0.1-0.2h0.1c0,0,0.1,0,0.2,0.1
	c0.1,0,0.2,0.1,0.3,0.1c0.2,0,0.4,0.1,0.6,0.1c0.3,0.1,0.3,0.1,0.3,0.1s-0.1,0.3-0.1,0.4l0,0c0,0-0.4-0.1-0.5-0.1
	c-0.4-0.1-0.4-0.1-0.5-0.1l-0.1,0.3c0,0,0,0,0.4,0.1c0.5,0.1,0.6,0.1,0.6,0.2c0,0-0.1,0.3-0.1,0.4c0,0,0,0-0.1,0
	c-0.2,0-0.4-0.1-0.6-0.1s-0.2,0-0.2,0s-0.1,0.3-0.1,0.4l0,0c0,0,0.4,0.1,0.7,0.2c0.1,0,0.3,0.1,0.3,0.1c0.1,0,0.1,0,0,0.2
	C22.6,29.7,22.6,29.7,22.5,29.7z"/>
<path id="path3112" fill="#FFA300" d="M22.5,29.6v-0.1c0-0.1,0-0.1-0.3-0.2c-0.4-0.1-0.7-0.2-0.7-0.2s0-0.1,0-0.3
	c0.1-0.3,0.1-0.3,0.1-0.3s0.7,0.1,0.8,0.2c0.1,0,0.1,0,0.1,0v-0.1v-0.1h-0.1c-0.1,0-0.7-0.2-0.7-0.2h-0.1c-0.1,0-0.1,0,0-0.2
	c0-0.1,0-0.2,0-0.2v-0.1c0,0,0.1,0,0.3,0c0.5,0.1,0.6,0.1,0.7,0.2c0.1,0,0.1,0,0.1,0c0-0.1,0-0.2,0-0.2s-0.1,0-0.4-0.1
	c-0.1,0-0.2,0-0.3-0.1c-0.3-0.1-0.6-0.1-0.6-0.1s0,0-0.1,0c0,0-0.1,0.2-0.1,0.4c0,0.1,0,0.2-0.1,0.3c0,0.1-0.1,0.2-0.1,0.3
	c0,0.1-0.1,0.3-0.1,0.4c-0.1,0.4-0.1,0.5-0.1,0.5s0,0,0.4,0.1C22.4,29.6,22.5,29.6,22.5,29.6z"/>
<path id="path3110" fill="#121212" d="M27.6,29.7c0,0,0-0.1-0.1-0.3c-0.1-0.2-0.3-1.1-0.4-1.5c0-0.1,0-0.2,0-0.2v-0.1
	c0,0,0.1,0,0.6-0.2c0.1,0,0.2,0,0.3-0.1c0.2-0.1,0.3-0.1,0.5,0c0.1,0,0.3,0.2,0.4,0.3c0,0.2,0.1,0.4,0.1,0.4v0.1
	c0,0.1,0.1,0.4,0,0.5c0,0.2-0.1,0.4-0.1,0.5c-0.1,0.1-0.2,0.2-0.3,0.3c0,0-0.2,0.1-0.3,0.1c-0.4,0.1-0.4,0.1-0.5,0.1
	C27.6,29.7,27.6,29.7,27.6,29.7z"/>
<path id="path3108" fill="#FFA300" d="M28.1,29.5c0.5-0.1,0.5-0.1,0.6-0.2c0.2-0.2,0.3-0.5,0.2-0.8c0-0.4-0.2-0.7-0.4-0.9
	c-0.1-0.1-0.2-0.1-0.4-0.1c-0.1,0-0.2,0-0.7,0.1c-0.3,0.1-0.3,0.1-0.3,0.1s0,0.1,0.1,0.3c0,0.2,0.1,0.4,0.1,0.5s0.1,0.3,0.1,0.3
	c0,0.1,0,0.2,0.1,0.3c0.1,0.4,0.1,0.4,0.1,0.4C27.7,29.6,27.6,29.6,28.1,29.5z"/>
<path id="path3106" fill="#121212" d="M27.9,29.2v-0.1c0-0.1-0.1-0.2-0.1-0.4c-0.2-0.7-0.2-0.8-0.2-0.8s0.4-0.1,0.5-0.1
	c0.2,0,0.3,0.1,0.5,0.3c0.1,0.2,0.2,0.6,0.1,0.8c-0.1,0.2-0.2,0.3-0.6,0.4C27.9,29.3,27.9,29.3,27.9,29.2z"/>
<path id="path3104" fill="#0033A0" d="M28.2,29.1c0.2,0,0.2-0.1,0.3-0.1c0.1-0.1,0.2-0.4,0.1-0.7c0-0.2-0.1-0.3-0.2-0.4
	s-0.2-0.1-0.3-0.1c-0.1,0-0.4,0.1-0.4,0.1s0,0,0,0.2c0,0.1,0.1,0.2,0.1,0.4c0,0.1,0.1,0.3,0.1,0.4s0,0.1,0,0.2s0,0.1,0.1,0.1
	C28,29.2,28.1,29.2,28.2,29.1z"/>
<path id="path3102" fill="#121212" d="M29.5,29.2v-0.1c0-0.1,0-0.3,0-0.4c0-0.3,0-0.5-0.1-0.8c0-0.1,0-0.2,0-0.3c0-0.4,0-0.5,0-0.5
	s0.4-0.2,0.5-0.2c0,0,0.1,0,0.3,0.2c0.1,0.1,0.3,0.3,0.4,0.4s0.3,0.3,0.4,0.5c0.1,0.1,0.2,0.3,0.3,0.3c0.1,0.1,0.1,0.1,0.1,0.2
	c0,0-0.1,0.1-0.3,0.2c-0.1,0.1-0.1,0.1-0.3-0.1c-0.1-0.1-0.1-0.1-0.1-0.1s-0.1,0-0.3,0.1c-0.2,0.1-0.3,0.1-0.3,0.1s0,0.1,0,0.2v0.2
	l0,0C29.9,29.1,29.5,29.2,29.5,29.2L29.5,29.2z"/>
<path id="path3100" fill="#FFA300" d="M29.7,29c0.1,0,0.1-0.1,0.1-0.1s0-0.1,0-0.2s0-0.2,0-0.2s0.6-0.3,0.7-0.3c0,0,0,0,0.1,0.1
	c0.2,0.2,0.2,0.2,0.2,0.2s0.1,0,0.2-0.1c0.1,0,0.1-0.1,0.1-0.1s-0.1-0.1-0.2-0.2s-0.3-0.3-0.4-0.5c-0.1-0.1-0.3-0.3-0.3-0.3
	s-0.1-0.1-0.2-0.2c-0.2-0.2-0.3-0.3-0.3-0.3s-0.4,0.1-0.4,0.2c0,0,0,0.2,0,0.7c0,0.1,0,0.4,0,0.6c0,0.5,0.1,0.8,0.1,0.8
	C29.6,29.1,29.6,29.1,29.7,29z"/>
<path id="path3098" fill="#121212" d="M29.8,28.2c0,0,0-0.1-0.1-0.5c0-0.3,0-0.4,0-0.4l0.6,0.7c0,0,0,0-0.1,0.1c0,0-0.1,0-0.2,0.1
	C30,28.2,29.9,28.2,29.8,28.2C29.9,28.2,29.9,28.2,29.8,28.2z"/>
<path id="path3096" fill="#0033A0" d="M30.1,28c0.1,0,0.1-0.1,0.1-0.1l0,0c0-0.1-0.4-0.4-0.4-0.4l0,0c0,0,0,0.5,0.1,0.6
	C29.9,28.1,30,28.1,30.1,28z"/>
<path id="path3094" fill="#121212" d="M20.2,29.1C20,29,19.9,29,19.9,28.9c0,0,0-0.2-0.1-0.3c0-0.3,0-0.4-0.1-0.8c0-0.1,0-0.3,0-0.3
	l0,0l0,0c0,0,0,0,0,0.1s-0.1,0.2-0.1,0.3c-0.1,0.1-0.1,0.3-0.1,0.3c0,0.1-0.1,0.1-0.1,0.2s-0.1,0.1-0.1,0.1s-0.1,0-0.2-0.1
	c-0.1,0-0.2-0.1-0.2-0.1s0,0,0-0.1c0,0,0-0.2,0.1-0.3c0,0,0.1-0.2,0.1-0.3c0.1-0.1,0.1-0.3,0.2-0.4c0-0.1,0.1-0.2,0.1-0.2
	s0.1-0.1,0.1-0.2s0.1-0.2,0.1-0.3c0.1-0.2,0.1-0.2,0.1-0.2s0.1,0,0.2,0.1s0.2,0.1,0.2,0.1s0,0.2,0.1,0.3c0.1,1.1,0.1,1.1,0.2,1.1
	l0,0c0.1-0.1,0.3-0.6,0.3-0.7s0.1-0.2,0.1-0.3l0,0l0.4,0.2c0,0,0,0.1-0.1,0.3c-0.1,0.1-0.1,0.3-0.2,0.4c0,0.1-0.1,0.2-0.1,0.3
	c-0.1,0.2-0.2,0.5-0.3,0.6C20.5,28.8,20.3,29.1,20.2,29.1C20.3,29.1,20.3,29.1,20.2,29.1z"/>
<path id="path3092" fill="#FFA300" d="M20.4,28.8c0.1-0.3,0.2-0.3,0.2-0.4c0,0,0.1-0.2,0.1-0.3c0.1-0.2,0.2-0.5,0.3-0.7
	c0-0.1,0-0.1,0-0.1s-0.1,0-0.1-0.1c-0.1,0-0.1,0-0.1,0s0,0.1-0.1,0.1c-0.1,0.3-0.1,0.3-0.2,0.4c0,0.1-0.1,0.3-0.2,0.5
	c0,0.1-0.1,0.2-0.1,0.2c0,0.1-0.1,0.1-0.1-0.2c0-0.2,0-0.3-0.1-0.7c0-0.1,0-0.2-0.1-0.4c0-0.2,0-0.3-0.1-0.3c0,0-0.2-0.1-0.3-0.1
	c0,0,0,0-0.1,0c0,0-0.1,0.2-0.2,0.4c-0.1,0.2-0.3,0.8-0.5,1.1c-0.1,0.2-0.1,0.3-0.1,0.3s0,0.1,0.1,0.1s0.1,0,0.2,0l0.1-0.2
	c0,0,0-0.1,0.1-0.3c0.1-0.1,0.1-0.3,0.1-0.3s0-0.1,0.1-0.2c0-0.1,0.1-0.2,0.1-0.3c0-0.1,0.1-0.1,0.1-0.1v0.1c0,0.1,0,0.2,0,0.3
	c0,0.3,0.1,0.4,0.1,0.8c0,0.2,0,0.4,0.1,0.4c0,0.1,0,0.1,0.1,0.1h0.1H20C20.3,29,20.3,28.9,20.4,28.8z"/>
<path id="path3090" fill="#121212" d="M28.8,25.7c-0.1,0-0.3-0.3-0.4-0.3c-0.1-0.1-0.2-0.1-0.2-0.1l-0.1-0.1
	c-0.2-0.1-0.3-0.2-0.4-0.3c-0.1,0-0.1-0.1-0.2-0.1c0,0-0.1-0.1-0.2-0.1s-0.1-0.1-0.2-0.1s-0.1-0.1-0.2-0.1s-0.3-0.2-0.4-0.3
	l-0.1-0.1c0,0-0.2-0.1-0.3-0.3c-0.3-0.2-0.4-0.3-0.7-0.5c-0.1,0-0.2-0.1-0.2-0.2C25,23,25,23,24.9,23c0,0-0.1,0.1-0.4,0.2
	c-0.1,0.1-0.2,0.1-0.2,0.2c-0.1,0.1-0.4,0.3-0.6,0.4c-0.1,0.1-0.2,0.2-0.3,0.2c-0.2,0.2-0.4,0.3-0.5,0.4s-0.2,0.1-0.2,0.1
	s-0.1,0.1-0.2,0.1s-0.2,0.1-0.2,0.2c-0.1,0.1-0.2,0.2-0.6,0.5c-0.1,0.1-0.6,0.4-0.6,0.4l0,0c0,0,0-0.1,0.1-0.2
	c0-0.1,0.1-0.3,0.1-0.4s0.1-0.3,0.1-0.4s0.1-0.3,0.1-0.4s0.1-0.3,0.1-0.4s0.2-0.6,0.3-1c0.1-0.4,0.3-1,0.4-1.3s0.2-0.5,0.2-0.5
	s0,0-0.3-0.2c-0.2-0.1-0.3-0.2-0.4-0.3c0,0-0.2-0.1-0.3-0.2c-0.3-0.2-0.4-0.3-0.5-0.3c-0.1-0.1-0.6-0.4-0.7-0.5
	c-0.1,0-0.2-0.1-0.3-0.2c-0.1-0.1-0.2-0.1-0.2-0.2s-0.2-0.1-0.3-0.2c-0.1-0.1-0.3-0.2-0.4-0.3c-0.4-0.3-0.6-0.4-0.6-0.4s0.3,0,2.4,0
	c2.2,0,2.4,0,2.4,0s0.1-0.2,0.1-0.4c0.1-0.2,0.1-0.4,0.1-0.4s0.1-0.3,0.2-0.5s0.2-0.7,0.4-1.1c0.1-0.4,0.3-0.9,0.4-1.1
	c0.3-0.8,0.4-1.1,0.4-1.1s0,0.1,0.3,1c0.1,0.2,0.2,0.7,0.3,0.9c0.2,0.5,0.2,0.6,0.4,1.1c0.3,0.8,0.5,1.4,0.5,1.5c0,0,0.1,0,1.3,0
	c0.7,0,1.6,0,2,0s0.9,0,1.1,0c0.4,0,0.4,0,0.4,0s-0.3,0.2-0.5,0.4c-0.1,0.1-0.2,0.2-0.4,0.3c-0.3,0.2-0.4,0.3-0.4,0.3
	s-0.4,0.3-0.5,0.3c0.1,0.2-0.3,0.5-0.4,0.5l-0.1,0.1c0,0-0.2,0.2-0.4,0.3c-0.2,0.1-0.4,0.3-0.4,0.3c-0.4,0.3-0.6,0.4-0.6,0.5
	c0,0,0,0,0.2,0.5c0.1,0.3,0.2,0.5,0.2,0.6s0.1,0.3,0.2,0.6c0.1,0.3,0.2,0.6,0.2,0.7c0.1,0.3,0.3,0.8,0.4,1.2
	c0.1,0.2,0.1,0.3,0.1,0.4c0,0,0,0.2,0.1,0.3C28.9,25.8,28.9,25.8,28.8,25.7z"/>
<path id="path3088" fill="#FFFFFF" d="M28.8,25.5c0,0,0-0.1-0.1-0.3c-0.2-0.5-0.3-0.9-0.3-1.1c0-0.1-0.1-0.3-0.1-0.4
	s-0.1-0.3-0.1-0.3c0-0.1-0.1-0.2-0.1-0.3c0-0.1-0.1-0.3-0.1-0.4s-0.1-0.3-0.1-0.4s-0.1-0.2-0.1-0.3c-0.1-0.4-0.3-0.8-0.3-0.9
	c0,0,0.1-0.1,0.5-0.4c0.3-0.2,0.5-0.4,0.6-0.4l0.1-0.1c0.1,0,0.3-0.2,0.4-0.3c0.2-0.1,0.3-0.2,0.5-0.4c0.1-0.1,0.3-0.2,0.4-0.3
	c0.1,0,0.2-0.2,0.4-0.3c0.1-0.1,0.4-0.3,0.6-0.4s0.3-0.3,0.4-0.3l0,0c0,0-0.4,0-0.9,0s-1.1,0-1.4,0s-0.9,0-1.5,0c-1,0-1,0-1-0.1
	c0,0-0.1-0.2-0.2-0.5s-0.2-0.5-0.2-0.5c-0.1-0.3-0.3-1-0.4-1.2c0-0.1-0.1-0.4-0.2-0.6c-0.1-0.2-0.1-0.4-0.2-0.5
	c0-0.1-0.1-0.2-0.1-0.2c0-0.1,0-0.1-0.1-0.2c0-0.1-0.1-0.2-0.1-0.4c-0.1,0-0.1,0-0.2,0c0,0-0.2,0.7-0.5,1.5
	c-0.1,0.2-0.2,0.5-0.2,0.6s-0.1,0.3-0.1,0.4S24,16.7,24,16.7s-0.1,0.2-0.1,0.3c-0.4,1.2-0.4,1.4-0.5,1.4c0,0-0.4,0-0.8,0
	c-1.9,0-3.8,0-3.9,0l0,0c0,0,0.4,0.3,0.6,0.4s0.1,0.1,0.5,0.4c0.2,0.1,0.4,0.3,0.4,0.3s0.1,0.1,0.2,0.1c0.1,0.1,0.6,0.4,0.7,0.5
	s0.3,0.2,0.6,0.4c0.1,0.1,0.3,0.2,0.4,0.3c0.2,0.2,0.3,0.3,0.3,0.3s0,0.1-0.1,0.2c0,0.1-0.1,0.3-0.2,0.6c-0.2,0.8-0.5,1.4-0.9,2.7
	c-0.2,0.5-0.3,0.9-0.3,0.9c0,0.1,0,0,0.4-0.2c0.1-0.1,0.3-0.2,0.4-0.3c0.1-0.1,0.3-0.2,0.4-0.3c0.1-0.1,0.3-0.2,0.4-0.3
	c0.1-0.1,0.2-0.2,0.3-0.2c0.1,0,0.2-0.1,0.2-0.1c0.2-0.2,0.4-0.3,0.5-0.4c0.1,0,0.2-0.1,0.3-0.2c0.2-0.2,0.3-0.2,0.6-0.4
	c0.1-0.1,0.2-0.2,0.3-0.2c0,0,0,0,0.1,0s0.2,0.1,0.4,0.3c0.1,0,0.2,0.1,0.3,0.2c0.2,0.2,0.5,0.3,0.5,0.4c0,0,0.1,0.1,0.2,0.1
	c0,0,0.1,0.1,0.2,0.1s0.2,0.2,0.3,0.2c0.1,0.1,0.3,0.2,0.3,0.2c0.1,0.1,0.3,0.2,0.6,0.4c0.1,0,0.2,0.1,0.2,0.2
	c0.1,0.1,0.5,0.4,0.7,0.5C28.7,25.6,28.8,25.6,28.8,25.5z"/>
<path id="path3086" fill="#121212" d="M42.1,22.5c-0.1,0-0.3-0.1-0.4-0.2c-0.5-0.3-0.8-0.8-1-1.6c-0.1-0.3-0.2-0.3-0.6-0.4
	c-0.2,0-0.3-0.1-0.4-0.1c-0.1,0-0.2,0-0.3-0.1c-0.3-0.1-0.7-0.2-1-0.3c-0.2-0.1-0.7-0.4-0.9-0.5c-0.3-0.2-0.6-0.4-0.7-0.6
	c-0.1-0.1-0.3-0.3-0.4-0.5c0-0.1-0.1-0.1-0.1-0.1s-0.1,0-0.1,0.1c-0.2,0.1-0.3,0.2-0.5,0.2s-0.2,0-0.4-0.1c-0.3-0.1-0.5-0.3-0.8-0.6
	c-0.1-0.2-0.2-0.2-0.3-0.5C34.1,17,34,16.9,34,16.8c-0.1-0.2-0.3-0.5-0.3-0.5l-0.1-0.1c0-0.1-0.1-0.2-0.2-0.3
	c-0.1-0.2-0.3-0.4-0.4-0.5c-0.1-0.1-0.2-0.2-0.2-0.3c-0.1-0.2-0.2-0.2-0.8-0.7c-0.1-0.1-0.5-0.4-0.6-0.5l-0.1-0.1
	c-0.1-0.1-0.7-0.5-0.9-0.6l-0.1-0.1c-0.1-0.1-0.5-0.3-0.8-0.4c-0.4-0.2-0.5-0.2-0.6-0.3c-0.1,0-0.2-0.1-0.2-0.1
	c-0.1,0-0.7-0.2-0.8-0.2c-0.9-0.2-1.1-0.2-1.7-0.3c-0.3,0-0.5,0-0.9,0c-0.6,0-1,0-1.6,0.1c-0.2,0-0.9,0.1-1.1,0.2
	c-0.3,0.1-0.5,0.1-0.6,0.1c-0.4,0.1-0.6,0.2-0.9,0.3c-0.1,0-0.2,0.1-0.2,0.1s-0.2,0.1-0.3,0.1c-0.4,0.2-1.2,0.6-1.6,0.9
	c-0.1,0-0.2,0.1-0.2,0.2c-0.1,0-0.1,0.1-0.2,0.1c0,0-0.1,0.1-0.2,0.1c-0.1,0.1-0.3,0.3-0.5,0.5c-0.1,0.1-0.2,0.1-0.2,0.2
	c-0.2,0.1-0.7,0.7-0.9,1c-0.1,0.1-0.2,0.2-0.2,0.2c-0.2,0.2-0.5,0.7-0.7,1.1c-0.2,0.5-0.6,0.9-0.9,1c0,0-0.1,0.1-0.2,0.1
	c-0.1,0-0.1,0-0.3,0c-0.1,0-0.2,0-0.3,0S14,18,13.9,17.9l-0.1-0.1l-0.1,0.1c-0.3,0.3-0.5,0.6-0.9,0.9l-0.1,0.1
	c-0.2,0.1-0.6,0.3-0.9,0.5c-0.5,0.2-1,0.4-1.5,0.5C9.9,20,9.8,20,9.7,20.1s-0.2,0.1-0.3,0.4c-0.1,0.4-0.2,0.7-0.4,0.9
	c-0.1,0.2-0.2,0.3-0.3,0.4C8.5,22,8.3,22.1,8,22.2c-0.1,0-0.1,0-0.1,0s0,0-0.1-0.1c0-0.1,0-0.1,0.1-0.2c0.1,0.1,0.2,0,0.3-0.3
	c0.2-0.3,0.2-0.6,0.3-1.1c0-0.3,0-0.3,0.1-0.5c0.2-0.3,0.4-0.5,0.8-0.7c0.1-0.1,0.4-0.2,0.6-0.3c0.2-0.2,0.6-0.4,0.6-0.5
	c0.4-0.3,0.7-0.6,0.8-0.8l0.1-0.1c0.2-0.2,0.3-0.4,0.4-0.6c0.1,0,0.1,0,0.1-0.1c0,0-0.4-0.1-1.1-0.3c-0.1,0-0.4-0.1-0.5-0.2
	c-0.1,0-0.2-0.1-0.3-0.2C9.9,16,10,15.6,10.3,15c0.1-0.2,0.5-0.6,0.7-0.8c0.3-0.3,0.5-0.5,0.7-0.8c0.1-0.1,0.1-0.2,0-0.3
	c-0.1-0.2-0.3-0.3-0.6-0.5c-0.4-0.3-0.8-0.4-1.4-0.6c-0.3-0.1-0.4-0.1-0.5-0.4c0-0.1-0.1-0.2-0.3-0.3c-0.4-0.5-0.4-0.4-0.4-0.6
	c0-0.2,0-0.2-0.1-0.4c0-0.1-0.1-0.2-0.4-0.3C7.9,9.9,7.7,9.8,7.6,9.8s-0.1,0-0.1-0.1c0,0,0,0,0-0.1c0.1-0.1,0.7-0.1,1,0
	s0.6,0.3,0.7,0.5c0.1,0.2,0.2,0.4,0.2,0.6c0,0.1,0,0.1,0,0.1s0.1,0,0.2,0c0.2,0,0.2,0,0.5,0.1c0.4,0.1,0.8,0.2,1.1,0.3
	s0.5,0.3,0.6,0.4c0.1,0.1,0.2,0.3,0.3,0.4c0.1,0.2,0.2,0.4,0.3,0.5c0.2,0.4,0.4,0.6,0.5,0.8s0.2,0.3,0.3,0.3c0,0,0,0,0.1,0
	c0,0,0.1-0.1,0.2-0.2c0.3-0.4,0.4-0.5,0.8-0.9c0.3-0.3,0.9-0.9,1.2-1.1c0.1-0.1,0.3-0.2,0.3-0.3c0.2-0.2,0.4-0.3,0.6-0.5
	c0.2-0.1,0.3-0.2,0.5-0.4c0.1-0.1,0.7-0.5,0.9-0.6c0,0,0.1-0.1,0.2-0.1c0.1-0.1,1-0.5,1.2-0.6c0.1,0,0.1-0.1,0.2-0.1
	s0.2-0.1,0.6-0.2c0.1,0,0.3-0.1,0.4-0.1s0.3-0.1,0.4-0.1c0.6-0.2,1-0.3,1.6-0.4c0.1,0.1,0.3,0,1.1,0c0.1,0,0.4,0,0.9-0.1
	c0.7,0,1.8,0,2.7,0.1c0.4,0.1,1.2,0.2,1.5,0.3h0.1c0.7,0.2,1.8,0.5,2.3,0.8c0.4,0.2,0.6,0.3,0.8,0.4c0.1,0,0.2,0.1,0.2,0.1
	c0.3,0.2,1,0.6,1.4,0.9c0.6,0.5,0.7,0.5,1.3,1c0.3,0.3,1.2,1.2,1.5,1.5c0.2,0.2,0.5,0.6,0.5,0.7c0,0.1,0.1,0.2,0.1,0.2
	c0.1,0,0.5-0.6,0.6-0.8c0,0,0.1-0.2,0.1-0.3c0.1-0.1,0.1-0.2,0.2-0.3s0.1-0.2,0.2-0.4c0.2-0.4,0.4-0.5,0.7-0.6
	c0.1-0.1,0.4-0.2,0.5-0.2c0.5-0.1,0.6-0.2,1.1-0.2c0.2,0,0.3,0,0.3-0.2s0.1-0.4,0.2-0.6c0.2-0.3,0.5-0.5,0.9-0.6c0.1,0,0.2,0,0.4,0
	c0.1,0,0.3,0,0.3,0c0.1,0,0.1,0,0.1,0.1c0,0,0,0.1-0.2,0.1c-0.2,0.1-0.5,0.2-0.6,0.4c-0.1,0.1-0.2,0.3-0.2,0.5c0,0.1,0,0.1,0,0.2
	c0,0-0.1,0.1-0.2,0.3c-0.3,0.3-0.4,0.4-0.5,0.5s-0.2,0.2-0.3,0.3c0,0-0.1,0-0.2,0.1c-0.4,0.1-0.7,0.2-1,0.3
	c-0.4,0.2-0.7,0.4-0.9,0.6c-0.1,0.1-0.2,0.2-0.2,0.3s0.2,0.4,0.4,0.6c0,0.1,0.2,0.2,0.2,0.2c0.2,0.2,0.4,0.4,0.7,0.7
	c0.2,0.2,0.4,0.6,0.5,0.9c0,0.2,0,0.4,0,0.5c-0.1,0.3-0.4,0.4-0.9,0.5c-0.1,0-0.2,0-0.3,0.1c-0.2,0-0.3,0.1-0.6,0.1
	c-0.1,0-0.2,0.1-0.2,0.1c0,0.1,0.3,0.5,0.5,0.9c0.1,0.1,0.4,0.4,0.6,0.6c0.2,0.2,0.7,0.6,0.9,0.7c0.1,0.1,0.5,0.3,0.5,0.3
	s0.3,0.2,0.4,0.3c0.1,0.1,0.3,0.3,0.4,0.4c0,0,0.1,0.1,0.1,0.2s0,0.1,0.1,0.4c0,0.4,0.1,0.6,0.2,0.9C41.7,22.1,41.9,22.3,42.1,22.5
	c0.1,0.1,0.1,0.1,0.1,0.2C42.2,22.6,42.2,22.6,42.1,22.5z"/>
<path id="path3084" fill="#FFA300" d="M42.2,22.5C42.2,22.5,42.2,22.4,42.2,22.5c-0.2-0.2-0.4-0.4-0.4-0.4c-0.1-0.2-0.2-0.4-0.3-0.7
	c-0.1-0.2-0.1-0.3-0.1-0.6c0-0.2,0-0.3-0.1-0.4c0-0.1-0.1-0.1-0.1-0.2c-0.1-0.1-0.3-0.4-0.5-0.5c0,0-0.1-0.1-0.3-0.1
	c-0.3-0.2-0.7-0.4-0.8-0.5L39.5,19l-0.1-0.1l-0.1-0.1c-0.2-0.1-0.7-0.7-0.9-0.9c-0.2-0.2-0.4-0.6-0.5-0.7c0-0.1-0.1-0.1-0.1-0.1
	s-0.3,0.1-0.4,0.1c0,0-0.1,0-0.2,0.1c-0.1,0.1-0.3,0.2-0.4,0.2c-0.1,0.1-0.3,0.2-0.3,0.3c0,0-0.1,0.1-0.1,0.2s-0.1,0.1-0.1,0.1
	s0.3,0.4,0.4,0.6c0.2,0.2,0.6,0.5,0.9,0.7c0.1,0.1,0.5,0.2,0.6,0.3c0,0,0.1,0.1,0.2,0.1c0.4,0.2,0.9,0.3,1.8,0.6
	c0.2,0,0.3,0.1,0.3,0.2c0.1,0.1,0.1,0.1,0.1,0.2c0.1,0.4,0.2,0.7,0.4,0.9c0.2,0.4,0.5,0.6,0.8,0.8C42,22.5,42.2,22.5,42.2,22.5z"/>
<path id="path3082" fill="#FFA300" d="M7.9,22.3c0.3-0.1,0.6-0.3,0.8-0.6c0,0,0.1-0.1,0.1-0.2c0.1-0.2,0.3-0.6,0.4-1
	c0.1-0.2,0.1-0.3,0.4-0.4c0.1,0,0.2,0,0.2-0.1c0.1,0,0.2,0,0.2,0c0.1,0,0.2,0,0.2-0.1c0.2,0,0.5-0.1,0.5-0.2h0.1c0,0,0.1,0,0.2-0.1
	c0.4-0.1,0.8-0.3,1-0.4l0.1-0.1c0,0,0.5-0.3,0.7-0.5c0.3-0.2,0.4-0.3,0.6-0.6c0.1-0.2,0.2-0.2,0.2-0.3c0,0-0.2-0.4-0.4-0.5
	c-0.1-0.1-0.3-0.2-0.5-0.3c-0.2-0.1-0.6-0.2-0.7-0.2c0,0,0,0-0.1,0.1c-0.1,0.2-0.3,0.5-0.5,0.7c-0.2,0.3-0.9,0.9-1.1,1
	c0,0-0.2,0.1-0.3,0.2c-0.3,0.2-0.4,0.3-0.6,0.4c-0.2,0.1-0.4,0.2-0.5,0.3c-0.1,0.1-0.3,0.3-0.4,0.4C8.4,20,8.4,20,8.4,20.3
	c0,0.5-0.1,0.8-0.3,1.2C8.1,22,8,22.1,7.9,22.3c-0.2,0-0.2,0-0.2,0C7.8,22.4,7.8,22.4,7.9,22.3z"/>
<path id="path3080" fill="#FFA300" d="M35.8,18.3c0.2,0,0.5-0.2,0.7-0.5c0.1-0.2,0.2-0.3,0.4-0.4c0.1-0.1,0.2-0.2,0.5-0.3
	c0.4-0.2,0.9-0.3,1.3-0.4c0.3-0.1,0.5-0.1,0.5-0.1s0,0-0.1-0.1c-0.4-0.1-0.8-0.4-1.2-1c-0.2-0.2-0.3-0.4-0.4-0.5
	c0-0.1-0.2-0.2-0.2-0.4c-0.1-0.1-0.2-0.3-0.2-0.3c0-0.1-0.1-0.2-0.1-0.2c0-0.1-0.1-0.2-0.2-0.3c-0.2-0.3-0.3-0.5-0.6-0.9
	c-0.2-0.2-0.6-0.7-0.9-0.9c-0.4-0.4-0.6-0.6-0.9-0.8c0,0-0.1-0.1-0.2-0.1c-0.1-0.1-0.3-0.3-0.6-0.5c-0.1-0.1-0.2-0.1-0.3-0.2
	c-0.2-0.1-0.4-0.3-0.7-0.5c-0.1-0.1-0.3-0.2-0.3-0.2c-0.1-0.1-0.5-0.3-0.7-0.4c-0.1,0-0.3-0.1-0.4-0.2S31,9.2,31,9.2s-0.1,0-0.2-0.1
	c-0.3-0.1-1-0.4-1.5-0.5c0,0-0.1,0-0.2-0.1c-0.2,0-0.5-0.1-0.6-0.1c0,0-0.1,0-0.2,0s-0.2,0-0.3-0.1c-0.1,0-0.2,0-0.2,0h-0.1
	c-0.1,0-0.1,0-0.2,0S27,8.2,26.8,8.2c-0.1,0-0.2,0-0.2,0C26.3,8,25.7,8,25.2,8c-0.7,0-1.3,0-1.9,0.1c-0.3,0-0.7,0.1-1.1,0.2
	c-0.4,0.1-1,0.2-1,0.2s-0.1,0-0.2,0.1c-0.1,0-0.2,0.1-0.3,0.1c-0.3,0.1-1,0.3-1.1,0.4c-0.5,0.2-1.3,0.6-1.7,0.8
	c-0.5,0.3-0.9,0.6-1.1,0.7c0,0-0.2,0.1-0.3,0.2C16,10.9,16,11,15.8,11.1c-0.1,0.1-0.2,0.1-0.2,0.2l-0.1,0.1c0,0-0.1,0-0.1,0.1
	c-0.1,0.1-0.3,0.3-0.5,0.5c-0.3,0.3-0.4,0.4-0.6,0.6c-0.1,0.1-0.2,0.2-0.3,0.3c-0.2,0.2-0.4,0.4-0.5,0.6c0,0.1-0.1,0.1-0.1,0.2
	c0,0-0.1,0.2-0.2,0.3c-0.1,0-0.2,0.1-0.2,0.2c0,0.1-0.1,0.2-0.2,0.3c-0.1,0.1-0.2,0.2-0.2,0.3S12.5,15,12.4,15
	c-0.1,0.1-0.1,0.2-0.2,0.3c-0.1,0.1-0.1,0.2-0.1,0.2s-0.1,0.1-0.2,0.2c-0.3,0.3-0.5,0.5-0.8,0.7c-0.1,0.1-0.3,0.1-0.3,0.1s0,0-0.1,0
	s0,0.1,0.7,0.2c0.4,0.1,0.9,0.2,1.1,0.3c0.2,0.1,0.4,0.2,0.5,0.3c0.1,0.1,0.3,0.3,0.4,0.4c0.2,0.3,0.4,0.4,0.6,0.5
	c0.1,0,0.3,0,0.5,0c0.3-0.1,0.6-0.3,0.9-0.7c0.1-0.2,0.1-0.2,0.3-0.5c0.1-0.1,0.2-0.3,0.2-0.3c0-0.1,0.1-0.2,0.1-0.2
	c0.1-0.1,0.2-0.3,0.3-0.4c0.1-0.1,0.1-0.2,0.2-0.2c0.1-0.1,0.2-0.3,0.3-0.4c0,0,0.1-0.1,0.2-0.2c0.2-0.2,0.8-0.8,1-1
	c0.5-0.4,0.7-0.5,0.9-0.7l0.1-0.1c0.5-0.3,1.2-0.7,1.8-0.9c0.1,0,0.2-0.1,0.2-0.1h0.1c0,0,0.1,0,0.2-0.1c0.4-0.1,0.9-0.2,1.3-0.3
	c0.7-0.1,1.3-0.2,2.1-0.2c0.5,0,1.2,0,1.5,0.1c0,0,0.1,0,0.2,0s0.5,0.1,0.7,0.1c0.1,0,0.4,0.1,0.9,0.2c0.1,0,0.2,0.1,0.3,0.1
	c0.3,0.1,0.4,0.1,0.6,0.2c0,0,0.1,0,0.2,0.1c0.1,0,0.5,0.2,0.6,0.3s0.5,0.2,0.5,0.3c0,0,0.1,0.1,0.2,0.1c0.2,0.1,0.5,0.3,0.7,0.4
	c0.1,0.1,0.2,0.1,0.2,0.2c0.1,0,0.1,0.1,0.2,0.1c0,0,0.1,0.1,0.2,0.1c0.2,0.2,0.8,0.7,1,1c0,0,0.1,0.1,0.2,0.2
	c0.1,0.1,0.2,0.3,0.4,0.5c0,0.1,0.1,0.2,0.2,0.2c0.1,0.1,0.3,0.4,0.4,0.7c0,0.1,0.1,0.2,0.2,0.3c0.1,0.3,0.2,0.4,0.3,0.6
	C34.9,18.2,35.4,18.4,35.8,18.3z"/>
<path id="path3078" fill="#121212" d="M16.2,14.6c-0.1-0.1-0.3-0.3-0.5-0.5s-0.4-0.4-0.5-0.5S15,13.4,15,13.4s0.1-0.1,0.6-0.6
	c0.2-0.2,0.4-0.3,0.5-0.3s0.2,0,0.3,0.1c0.1,0.1,0.2,0.2,0.3,0.4c0,0.1,0,0.1,0.2,0.1c0.1,0,0.3,0.1,0.4,0.2c0,0,0.1,0.1,0.1,0.2
	c0,0.1,0.1,0.1,0.1,0.2c0,0.2-0.1,0.4-0.2,0.5c-0.4,0.4-0.7,0.7-0.7,0.7C16.4,14.8,16.3,14.7,16.2,14.6z"/>
<path id="path3076" fill="#FFA300" d="M16.5,14.2c0.1,0,0.4-0.4,0.4-0.4c0-0.1,0-0.1,0-0.2c0,0-0.1-0.1-0.2-0.2h-0.1
	c-0.1,0-0.1,0-0.4,0.3c-0.1,0.1-0.2,0.2-0.2,0.2s0.2,0.3,0.3,0.3C16.4,14.2,16.4,14.2,16.5,14.2z"/>
<path id="path3074" fill="#FFA300" d="M16,13.4c0.1-0.1,0.2-0.2,0.2-0.2c0-0.1,0-0.2,0-0.2c-0.1-0.1-0.2-0.1-0.3-0.1
	c-0.1,0.1-0.4,0.4-0.4,0.4s0,0.1,0.1,0.2c0.1,0.1,0.1,0.1,0.2,0.1C15.8,13.6,15.9,13.5,16,13.4z"/>
<path id="path3072" fill="#121212" d="M33.5,14.6c-0.2-0.2-0.2-0.1-0.1-0.3c0-0.1,0.1-0.2,0.1-0.3s0-0.1,0-0.2c0,0,0-0.1,0.1-0.2
	s0-0.2,0.1-0.2c0.1-0.4,0.1-0.5,0.1-0.5s-0.1,0-0.2,0.2c-0.1,0.1-0.2,0.2-0.3,0.4c-0.1,0.1-0.2,0.3-0.3,0.3
	c-0.1,0.1-0.1,0.1-0.1,0.1l-0.3-0.3c0,0,0,0,0.4-0.4c0.2-0.3,0.3-0.4,0.8-0.9c0.1-0.1,0.2-0.2,0.2-0.2s0.3,0.2,0.3,0.3
	c0,0,0,0.3-0.1,0.5c-0.1,0.4-0.2,1-0.2,1s0,0,0.1,0c0.4-0.4,0.6-0.6,0.6-0.7c0.1-0.1,0.2-0.2,0.2-0.2l0.3,0.3c0,0-0.1,0.1-0.2,0.2
	c-0.1,0.1-0.2,0.3-0.3,0.4c-0.1,0.1-0.3,0.3-0.4,0.4c-0.1,0.1-0.3,0.3-0.4,0.4c-0.1,0.1-0.2,0.2-0.2,0.2
	C33.7,14.7,33.6,14.7,33.5,14.6z"/>
<path id="path3070" fill="#121212" d="M17.6,13.5L17.6,13.5c0-0.1-0.1-0.2-0.1-0.5c0-0.1-0.1-0.2-0.1-0.2s-0.1-0.4-0.2-0.7
	c-0.1-0.2-0.1-0.3-0.1-0.5c0-0.1,0-0.1,0-0.1l0.4-0.3c0,0,0.1,0,0.1,0.1c0.1,0,0.1,0.1,0.2,0.1c0,0,0.1,0.1,0.2,0.1
	c0.1,0.1,0.2,0.2,0.3,0.2c0.2,0.2,0.4,0.3,0.6,0.4c0.4,0.3,0.4,0.3,0.4,0.3L19,12.6c0,0-0.1,0-0.2-0.1c-0.1,0-0.1-0.1-0.1-0.1
	s-0.5,0.3-0.6,0.4c0,0,0,0.1,0,0.3c0.1,0.2,0.1,0.2-0.1,0.3c-0.1,0-0.1,0.1-0.1,0.1C17.6,13.6,17.6,13.6,17.6,13.5z"/>
<path id="path3068" fill="#FFA300" d="M17.8,12.5c0,0,0.1,0,0.1-0.1l0.1-0.1c0.1-0.1,0.1-0.1,0-0.2c0,0-0.2-0.1-0.3-0.2
	s-0.2-0.1-0.2-0.1s0,0.1,0.1,0.5C17.8,12.5,17.8,12.5,17.8,12.5z"/>
<path id="path3066" fill="#121212" d="M32.1,13.3c-0.1,0-0.1-0.1-0.2-0.1s-0.1,0-0.1-0.1s0.1-0.2,0.2-0.4c0.1-0.1,0.1-0.2,0-0.3
	c0-0.1-0.4-0.3-0.5-0.3c0,0-0.1,0.1-0.2,0.3c-0.2,0.3-0.2,0.3-0.3,0.3l-0.3-0.2c0,0,0-0.1,0.1-0.2c0.1-0.1,0.2-0.3,0.3-0.4
	c0.1-0.2,0.2-0.4,0.3-0.5c0.1-0.1,0.1-0.2,0.2-0.3c0.1-0.2,0.2-0.3,0.3-0.4c0,0,0.1,0,0.2,0.1c0,0,0,0,0.1,0c0,0,0.1,0.1,0.2,0.2
	c0.1,0.1,0.3,0.2,0.3,0.2c0.2,0.1,0.2,0.2,0.3,0.3s0.1,0.2,0,0.4c0,0.1-0.1,0.2-0.2,0.3c-0.1,0.1-0.2,0.2-0.3,0.2s-0.1,0-0.1,0.1
	s0,0.1,0,0.2c0,0.1,0,0.1-0.1,0.3c-0.2,0.2-0.2,0.3-0.2,0.4c0,0.1,0,0.1,0,0.1C32.2,13.4,32.1,13.4,32.1,13.3z"/>
<path id="path3064" fill="#FFA300" d="M32.5,12c0.2-0.1,0.2-0.3,0.1-0.4c0-0.1-0.5-0.4-0.5-0.4s0,0-0.1,0.1s-0.2,0.3-0.2,0.3
	s0.1,0.1,0.4,0.3C32.3,12.1,32.4,12.1,32.5,12z"/>
<path id="path3062" fill="#121212" d="M19.6,12.2c0,0-0.1-0.1-0.1-0.3c-0.2-0.3-0.6-1.1-0.6-1.1l0,0c0,0-0.2,0-0.4,0.2
	c-0.1,0-0.2,0-0.2,0l-0.1-0.1c0-0.1-0.1-0.1-0.1-0.1s0.3-0.2,0.9-0.5c0.5-0.3,0.6-0.3,0.6-0.3l0.1,0.3c0,0,0,0-0.1,0.1
	c-0.2,0.1-0.4,0.2-0.4,0.2s0,0.1,0.3,0.6C20,12,20,12,20,12s0,0-0.2,0.1C19.8,12.2,19.7,12.2,19.6,12.2
	C19.7,12.2,19.7,12.2,19.6,12.2z"/>
<path id="path3060" fill="#121212" d="M29.9,12.1c-0.2-0.1-0.4-0.1-0.5-0.3c-0.2-0.2-0.3-0.3-0.3-0.6c0-0.2,0-0.3,0.1-0.5
	c0.1-0.3,0.3-0.6,0.6-0.7c0.1-0.1,0.2-0.1,0.4-0.1c0.3,0,0.6,0.2,0.8,0.4c0.2,0.3,0.2,0.8,0.1,1.2c-0.1,0.3-0.4,0.5-0.6,0.6
	C30.3,12.1,30,12.1,29.9,12.1z"/>
<path id="path3058" fill="#FFA300" d="M30.2,11.7c0.3-0.1,0.5-0.4,0.5-0.8c0-0.2-0.1-0.4-0.3-0.6c-0.1,0-0.1,0-0.2,0s-0.2,0-0.2,0
	c-0.1,0.1-0.3,0.2-0.4,0.4s-0.1,0.5,0,0.7c0,0.1,0.2,0.2,0.3,0.2C30,11.7,30.1,11.7,30.2,11.7z"/>
<path id="path3056" fill="#121212" d="M21.2,11.5c0,0-0.1-0.2-0.1-0.4c-0.4-1.2-0.4-1.2-0.4-1.2h-0.1c-0.1,0-0.2,0.1-0.3,0.1
	c-0.2,0.1-0.2,0.1-0.2-0.1C20,9.8,20,9.8,20,9.8s0.3-0.1,0.6-0.2c0.3-0.1,0.6-0.2,0.7-0.2s0.1,0,0.2-0.1c0.1,0,0.1,0,0.1,0.2
	c0,0.1,0,0.1,0,0.2c0,0-0.1,0-0.2,0.1C21.2,9.9,21,9.9,21,9.9s0,0.1,0.2,0.7c0.1,0.2,0.1,0.4,0.2,0.5c0,0.1,0.1,0.2,0.1,0.3
	s0,0.1,0,0.1C21.6,11.4,21.3,11.5,21.2,11.5C21.3,11.5,21.3,11.5,21.2,11.5z"/>
<path id="path3054" fill="#121212" d="M28,11.3c-0.1,0-0.1,0-0.2,0c0,0-0.2-0.1-0.4-0.1c-0.3-0.1-0.4-0.1-0.4-0.1V11
	c0,0,0.1-0.2,0.1-0.3c0.1-0.6,0.4-1.5,0.4-1.5l0,0c0,0,0.1,0,0.2,0c0.2,0,0.3,0.1,0.6,0.2c0.3,0.1,0.5,0.2,0.6,0.3
	c0,0.1,0,0.1,0,0.2c0,0.2,0,0.2,0,0.2s-0.1,0.1-0.1,0.2l-0.1,0.1l0,0c0.1,0.2,0.1,0.3,0.1,0.5c0,0.1,0,0.1-0.1,0.2
	c-0.1,0.1-0.2,0.2-0.3,0.3c-0.1,0-0.1,0-0.2,0C28.1,11.3,28.1,11.3,28,11.3z"/>
<path id="path3052" fill="#FFA300" d="M28.3,10.9c0.1,0,0.1-0.1,0.1-0.2c0-0.1,0-0.2,0-0.3c0,0-0.1-0.1-0.4-0.1
	c-0.2-0.1-0.3-0.1-0.3,0l-0.1,0.4c0,0,0.1,0.1,0.4,0.1C28.1,11,28.2,11,28.3,10.9z"/>
<path id="path3050" fill="#FFA300" d="M28.5,10.1c0.2-0.1,0.2-0.3,0-0.4c0,0-0.3-0.1-0.5-0.1c0,0-0.1,0-0.1,0.1v0.1v0.1
	c0,0.1,0,0.1,0,0.1s0,0.1,0.2,0.1C28.3,10.1,28.4,10.1,28.5,10.1z"/>
<path id="path3048" fill="#121212" d="M22.5,11.2c0,0,0-0.2-0.1-0.3c0-0.2-0.1-0.4-0.1-0.5c-0.1-0.3-0.1-0.4-0.1-0.6
	c0-0.1,0-0.3-0.1-0.4c0-0.2,0-0.2,0-0.3c0,0,0.1,0,0.2,0s0.2,0,0.2,0s0.1,0,0.1,0.1c0,0,0,0.2,0.1,0.4c0,0.2,0.1,0.3,0.1,0.3
	s0,0.1,0,0.2c0,0.1,0,0.2,0.1,0.4c0,0.3,0.1,0.3,0.1,0.3s0.1,0,0.2,0c0.5-0.1,0.7-0.1,0.7-0.1v0.1v0.1V11c0,0,0,0-0.6,0.1
	c-0.1,0-0.2,0-0.3,0C23,11.1,22.5,11.2,22.5,11.2L22.5,11.2z"/>
<path id="path3046" fill="#121212" d="M24.2,10.9c0,0,0-0.1,0-0.2c0-0.1,0-0.6,0-1c0-0.6,0-0.8,0-0.8s0.2,0,0.7,0c0.7,0,0.7,0,0.7,0
	v0.3c0,0-0.1,0-0.3,0c-0.2,0-0.4,0-0.5,0c-0.2,0-0.2,0-0.2,0c0,0.1,0,0.4,0,0.4s0.1,0,0.5,0c0.2,0,0.5,0,0.5,0l0,0v0.2V10l0,0
	c0,0-0.2,0-0.5,0s-0.4,0-0.5,0c0,0,0,0,0,0.2s0,0.2,0,0.3c0,0,0.1,0,0.5,0c0.5,0,0.5,0,0.6,0c0,0,0,0,0,0.2c0,0.1,0,0.2,0,0.2
	s-0.1,0-0.2,0C25.2,10.9,24.4,10.9,24.2,10.9C24.3,10.9,24.2,10.9,24.2,10.9z"/>
<path id="path3044" fill="#FFA300" d="M39.6,16.5c0.2-0.1,0.3-0.3,0.3-0.5c0-0.2-0.1-0.5-0.2-0.6c0-0.1-0.1-0.1-0.1-0.1
	s-0.2-0.3-0.3-0.4c0,0-0.1-0.1-0.1-0.2c-0.1-0.1-0.1-0.2-0.2-0.2c0,0-0.2-0.2-0.3-0.3s-0.3-0.3-0.3-0.3c-0.1-0.2-0.3-0.4-0.4-0.6
	c-0.1-0.2-0.2-0.5-0.2-0.7c0-0.1,0-0.2-0.1-0.1c0,0-0.2,0.4-0.4,0.7c-0.1,0.1-0.1,0.2-0.1,0.2c-0.1,0.1-0.3,0.4-0.3,0.5
	C37,14,37,14,37,14s0,0.1,0.1,0.1c0.1,0.1,0.4,0.6,0.6,0.9c0.2,0.3,0.4,0.6,0.6,0.8c0.2,0.2,0.4,0.4,0.6,0.5
	c0.2,0.1,0.3,0.2,0.6,0.1C39.5,16.6,39.6,16.6,39.6,16.5z"/>
<path id="path3042" fill="#FFA300" d="M10.8,16.4c0.1,0,0.4-0.2,0.5-0.3c0.2-0.2,0.6-0.6,0.7-0.8c0.1-0.1,0.2-0.3,0.3-0.4
	c0.1-0.1,0.2-0.3,0.4-0.6c0.1-0.1,0.1-0.2,0.2-0.2C13,14,13,14,13,14s0-0.1-0.1-0.1c-0.1-0.1-0.3-0.4-0.4-0.6c0,0-0.1-0.2-0.1-0.3
	c-0.2-0.3-0.3-0.5-0.3-0.5c0-0.1-0.1,0-0.1,0.2c0,0.1,0,0.2,0,0.3s-0.1,0.4-0.2,0.4l-0.1,0.1c0,0.1-0.2,0.3-0.3,0.4
	c0,0.1-0.2,0.2-0.3,0.3s-0.2,0.2-0.2,0.2s-0.1,0.1-0.2,0.2c-0.3,0.3-0.4,0.5-0.6,0.8c0,0.1-0.1,0.3-0.1,0.4
	c-0.1,0.3,0.1,0.6,0.4,0.6C10.5,16.4,10.7,16.4,10.8,16.4z"/>
<path id="path3040" fill="#FFA300" d="M38.3,13.1c0.1-0.1,0.2-0.2,0.4-0.4c0.4-0.3,0.8-0.5,1.4-0.6c0.1,0,0.3-0.1,0.3-0.1
	c0.1,0,0.2-0.1,0.2-0.3c0.1-0.1,0.2-0.3,0.4-0.5l0.1-0.1c0,0,0,0-0.4,0c-0.3,0-0.5,0-0.8,0.1c-0.1,0-0.2,0-0.2,0
	c-0.2,0-0.6,0.2-0.8,0.3c-0.4,0.2-0.7,0.5-0.8,0.8c0,0.1,0,0.3,0,0.5C38.1,12.9,38.2,13.1,38.3,13.1C38.1,13.2,38.2,13.2,38.3,13.1z
	"/>
<path id="path3038" fill="#FFA300" d="M11.9,13c0.1-0.3,0.1-0.6,0-0.8s-0.3-0.4-0.5-0.6c-0.2-0.1-0.5-0.3-0.7-0.3
	c-0.3-0.1-0.6-0.2-0.9-0.2c-0.4,0-1-0.1-1,0c0,0,0,0.1,0.1,0.2c0.2,0.3,0.3,0.3,0.3,0.4c0.1,0.1,0.2,0.2,0.2,0.3c0,0,0.1,0,0.3,0.1
	c0.2,0,0.6,0.2,0.8,0.3s0.4,0.2,0.7,0.4c0.1,0.1,0.4,0.3,0.5,0.4C11.9,13.2,11.9,13.2,11.9,13z"/>
<path id="path3036" fill="#FFA300" d="M41.2,11.1c0.1,0,0.1-0.1,0.2-0.1c0,0,0-0.1,0-0.2c0-0.2,0.1-0.4,0.2-0.5
	c0.1-0.1,0.2-0.2,0.4-0.3c0,0,0.1-0.1,0.2-0.1c0.3-0.1,0.3-0.1,0-0.1c-0.5,0-0.9,0.1-1.2,0.3c-0.2,0.1-0.2,0.2-0.3,0.4
	c-0.1,0.1-0.1,0.2-0.1,0.4s0,0.2,0,0.2s0.1,0,0.3,0C41.1,11.1,41.1,11.1,41.2,11.1z"/>
<path id="path3032" fill="#FFA300" d="M9.4,11L9.4,11c0-0.1,0-0.4-0.1-0.5c-0.1-0.2-0.1-0.2-0.1-0.3C9,10,8.8,9.9,8.5,9.8
	C8.3,9.7,8.1,9.7,7.8,9.7c-0.2,0-0.2,0-0.2,0s0,0,0.2,0.1C7.9,9.9,8.1,10,8.2,10c0.2,0.1,0.3,0.3,0.4,0.4c0,0.1,0.1,0.2,0.1,0.3
	C8.7,10.9,8.8,11,9,11C9,11,9.2,11,9.4,11C9.4,11,9.4,11,9.4,11z"/>
<g>
	<path opacity="0.2" enable-background="new    " d="M10.4,74.3V25.8c0-12.1,8.2-22.7,19.8-25.8H0v100h30.2
		C18.5,96.9,10.4,86.3,10.4,74.3z"/>
	<path opacity="0.1" fill="#FFFFFF" enable-background="new    " d="M89.6,25.8v48.5c0,12.1-8.2,22.7-19.8,25.8H100V0H69.8
		C81.5,3.1,89.6,13.7,89.6,25.8z"/>
</g>
</svg>
