<?xml version="1.0" encoding="utf-8"?>
<!-- Generator: Adobe Illustrator 23.0.0, SVG Export Plug-In . SVG Version: 6.00 Build 0)  -->
<svg version="1.0" id="Layer_1" xmlns="http://www.w3.org/2000/svg" xmlns:xlink="http://www.w3.org/1999/xlink" x="0px" y="0px"
	 width="100px" height="100px" viewBox="0 0 100 100" enable-background="new 0 0 100 100" xml:space="preserve">
<g id="rect172">
	<rect x="50" fill-rule="evenodd" clip-rule="evenodd" fill="#BF0A30" width="50" height="50"/>
</g>
<g id="rect603">
	<rect x="50" y="50" fill-rule="evenodd" clip-rule="evenodd" fill="#FFFFFF" width="50" height="50"/>
</g>
<g id="rect170">
	<rect fill-rule="evenodd" clip-rule="evenodd" fill="#002868" width="50" height="100"/>
</g>
<path fill="#FFCA00" d="M44.9,27.7l4-0.1l-0.2-0.2c-0.4-0.4-0.8-0.6-1.1-0.9c-1.1-0.9-2-1.7-4.2-2.9c0.8-1.3,0.7-1.3,0.7-1.4v-0.1
	c-2.6-1.8-5.6-3.1-8.9-3.9c-0.1,0-0.2,0-0.2-0.1c-0.1,0-0.2,0-0.3-0.1c-10-2.4-22-0.7-28,3.7H6.6l0.1,0.4l0.7,1.2
	c-2.3,1.4-3.3,2-4.3,2.9c-0.4,0.3-0.7,0.6-1.1,0.9l-0.2,0.2l4,0.1C5.7,28.1,5,32,4.9,32.3l-0.1,0.3l0.1-0.2c1.9-1.3,3.2-2.1,4.9-2.8
	c0.9-0.4,1.9-0.7,3.2-1.1c0.2-0.1,0.4-0.1,0.5-0.2h0.1c0.1-0.2,0.2-0.3,0.1-0.3c0.2-0.5-0.3-1.1-0.6-1.6c-0.1-0.1-0.2-0.2-0.2-0.2
	c3.1-1.4,7.6-2.3,12.7-2.3c4.9,0,9.3,0.9,12.3,2.3c-0.1,0.1-0.1,0.2-0.2,0.3c-0.4,0.5-0.9,1.2-0.7,1.7c0,0.1,0.1,0.1,0.1,0.2
	c0,0,0,0.1,0.1,0.1l0,0c0.1,0.1,0.3,0.2,0.5,0.2c3.8,1.1,5.2,2,8.1,3.9l0.2,0.1l-0.1-0.1C45.8,32.4,45,28.5,44.9,27.7z"/>
<g id="path678">
	<path fill-rule="evenodd" clip-rule="evenodd" fill="#FFCA00" d="M6.3,57.6h2L8.2,49l3.8,8.7h2.1V45h-2v8l-3.6-8H6.3V57.6z"/>
</g>
<g id="path680">
	<path fill-rule="evenodd" clip-rule="evenodd" fill="#FFCA00" d="M42.7,49h2.1v-1.1c-0.1-0.7-0.3-1.6-1-2.3c-0.5-0.5-1-0.8-1.8-1
		c-0.6-0.2-2.1-0.2-2.9,0.3c-0.9,0.5-1.7,1.4-2.2,2.9c-0.7,2.5-0.4,5.5,0.1,7s1.3,2.4,2.4,2.9c0.7,0.2,1.8,0.4,2.9,0.1
		c1.2-0.4,1.7-1.2,2.2-2c0.3-0.6,0.6-1.6,0.6-2.8h-2.2c0,0.4-0.1,0.9-0.2,1.4c-0.3,0.6-0.6,1-1.6,1c-0.6,0-1.1-0.3-1.4-0.7
		c-0.5-0.5-0.6-1.5-0.6-1.8c-0.1-1.3-0.2-2.7,0.2-4.1c0.1-0.6,0.4-1.1,0.8-1.3c0.6-0.3,1.3-0.3,1.6-0.2c0.5,0.1,0.9,0.5,1.1,1
		C42.7,48.5,42.7,48.7,42.7,49z"/>
</g>
<g id="polygon693">
	<path fill-rule="evenodd" clip-rule="evenodd" fill="#FFFFFF" d="M30.4,58l-4.8-3.7L20.8,58l1.9-5.8l-5-3.6l6,0.1l1.8-5.9l1.7,5.8
		h6.1l-4.9,3.5L30.4,58z"/>
</g>
<g>
	<path fill="#002868" d="M11.9,21c-0.1-0.1-0.3-0.2-0.4-0.1c-0.1,0-0.2,0.2-0.2,0.3l0.5,2.6L9.7,22c-0.1-0.1-0.3-0.1-0.4,0
		c-0.1,0.1-0.2,0.3-0.1,0.4c0.7,1.2,1.6,3.1,1.7,3.2c0.1,0.1,0.2,0.2,0.3,0.2c0,0,0,0,0.1-0.1c0.2-0.1,0.3-0.2,0.2-0.4
		c0,0,0-0.1-0.9-1.7l1.4,1.3c0.1,0,0.3,0.1,0.4,0c0.2,0,0.2-0.2,0.2-0.3l-0.3-1.8l0.9,1.5c0.1,0.1,0.3,0.2,0.4,0.1
		c0.1-0.1,0.2-0.3,0.1-0.4L11.9,21z"/>
	<path fill="#002868" d="M22.8,22.2h-1.3c0.1-0.1,0.3-0.3,0.4-0.5l0.7-0.6c0.2-0.2,0.3-0.6,0.3-1s-0.2-0.7-0.4-0.9h-0.1
		c-0.4-0.2-0.9-0.1-1.2,0.1c-0.2,0.1-0.5,0.4-0.5,1c0,0.2,0.1,0.3,0.3,0.3s0.3-0.1,0.3-0.3s0.1-0.4,0.2-0.5c0.1-0.2,0.4-0.2,0.6-0.1
		c0.1,0.1,0.2,0.2,0.2,0.4c0,0.2,0,0.4-0.1,0.5l-0.7,0.6c-0.3,0.3-0.6,0.8-0.6,1.3c0,0.2,0.1,0.3,0.3,0.3h1.6c0.2,0,0.3-0.1,0.3-0.3
		S23,22.2,22.8,22.2z"/>
	<path fill="#002868" d="M24.9,19c-0.1,0-0.1,0-0.1,0c-0.3-0.1-0.7-0.1-1,0c-0.4,0.2-0.5,0.5-0.6,0.9c0,0.5,0,1.5,0.1,1.9
		c0.1,0.3,0.2,0.5,0.5,0.8c0.1,0,0.1,0,0.1,0c0.1,0.1,0.3,0.1,0.5,0.1s0.3,0,0.4-0.1c0.3-0.1,0.5-0.4,0.6-0.8s0.1-1.6,0-2
		C25.3,19.5,25.2,19.2,24.9,19z M24.8,21.5c-0.1,0.3-0.2,0.4-0.3,0.5c0,0-0.1,0.1-0.3,0c-0.1-0.1-0.2-0.2-0.2-0.5
		c-0.1-0.3-0.1-1.2-0.1-1.6c0.1-0.3,0.1-0.4,0.3-0.5c0.1,0,0.2-0.1,0.4,0c0.1,0.1,0.1,0.2,0.2,0.4C24.9,20.2,24.9,21.2,24.8,21.5z"
		/>
	<path fill="#002868" d="M32.7,19.2c-0.2,0.2-0.4,0.4-0.7,0.5c-0.2,0.1-0.3,0.2-0.2,0.4c0.1,0.2,0.2,0.3,0.4,0.2
		c0.1,0,0.2-0.1,0.3-0.1l-0.4,2.5c0,0.2,0.1,0.4,0.3,0.4c0.1,0,0.3-0.1,0.4-0.4l0.5-3.3c0-0.1-0.1-0.2-0.2-0.3
		C32.9,19.1,32.8,19.1,32.7,19.2z"/>
	<path fill="#002868" d="M36.4,20.4c0-0.1-0.1-0.2-0.2-0.2c-0.6-0.2-1.5-0.5-1.6-0.5c-0.2,0-0.3,0-0.4,0.2c0,0.2,0,0.3,0.2,0.4
		c0,0,0.1,0,1.2,0.3c-0.6,0.8-1.2,1.6-1.6,2.5c-0.1,0.1-0.1,0.3,0.2,0.4c0.1,0,0.2-0.1,0.3,0c0.4-1,1-1.8,1.8-2.8
		C36.4,20.6,36.4,20.5,36.4,20.4z"/>
	<path fill="#002868" d="M39.3,21.6c0-0.2-0.1-0.3-0.2-0.3l-1.5-0.8c-0.1-0.1-0.3-0.1-0.4,0.1c-0.1,0.1-0.1,0.3,0.1,0.4l1,0.5
		c-0.7,0.6-1.4,1.3-2,2.2c-0.1,0.1,0,0.3,0.1,0.4s0.1,0.1,0.2,0.1c0.1,0,0.2,0,0.4,0.1c0.6-1,1.4-1.8,2.2-2.4
		C39.3,21.8,39.3,21.7,39.3,21.6z"/>
	<path fill="#002868" d="M41.5,22.5l-1-0.6c-0.1-0.1-0.3,0-0.4,0.1l-0.9,1.2c-0.1,0.2-0.1,0.3,0,0.4c0,0.1,0.2,0.1,0.3,0.1
		c0.6-0.1,0.8,0.1,0.9,0.4c0,0.3,0,0.5-0.2,0.7C40,24.9,39.9,25,39.7,25c-0.4,0-0.6-0.1-0.7-0.7c0-0.2-0.1-0.3-0.3-0.3
		s-0.3,0.1-0.3,0.3c0.1,0.9,0.5,1.3,1.3,1.3c0.4,0,0.7-0.1,0.9-0.3c0.3-0.4,0.4-0.8,0.3-1.3c0-0.1,0-0.1,0-0.1
		c-0.1-0.5-0.5-0.8-0.9-0.9l0.4-0.4l0.8,0.4c0.1,0.1,0.3,0,0.4-0.1C41.7,22.8,41.6,22.6,41.5,22.5z"/>
	<path fill="#002868" d="M14.3,19.9c-0.1,0-0.2,0.1-0.2,0.1C14,20.1,14,20.1,14,20.1v0.1c0,0.3,0,1.1-0.1,3.6c0,0.2,0.1,0.3,0.3,0.3
		s0.3-0.1,0.4-0.4c0-0.3,0-0.6,0-1l1-0.3c0.2,0.3,0.4,0.6,0.6,0.9c0.1,0.2,0.3,0.2,0.4,0.1c0.2-0.1,0.2-0.3,0.1-0.4
		C14.6,19.8,14.6,19.8,14.3,19.9z M14.7,22.1c0-0.4,0-0.7,0-1.1c0.2,0.2,0.4,0.6,0.6,0.9L14.7,22.1z"/>
	<path fill="#002868" d="M27.1,20.2c0,0-0.3,0-0.7,0v-0.7c0-0.1-0.1-0.2-0.2-0.2S26,19.4,26,19.5v0.7h-0.1c-0.1,0-0.2,0.1-0.2,0.2
		s0.1,0.2,0.2,0.2H26v1.3c0,0.2,0,0.4,0.2,0.6s0.4,0.2,0.6,0.2s0.3-0.1,0.2-0.3c0-0.1-0.1-0.2-0.2-0.2c-0.2,0-0.3,0-0.3,0
		c-0.1,0-0.1-0.1-0.1-0.3v-1.3c0.4,0,0.7,0,0.7,0c0.1,0,0.2-0.1,0.2-0.2C27.3,20.3,27.2,20.2,27.1,20.2z"/>
	<path fill="#002868" d="M28,20.3v-0.7c0-0.1-0.1-0.2-0.2-0.2s-0.2,0.1-0.2,0.2l-0.1,2.9c0,0.1,0.1,0.2,0.2,0.2s0.2-0.1,0.2-0.2
		l0.1-1.8c0.4,0,0.6,0,0.7,0.1c0.2,0.2,0.2,0.7,0.1,1.8c0,0.1,0.1,0.2,0.2,0.2s0.2-0.1,0.2-0.1c0.1-1.3,0.1-1.8-0.2-2.1
		C28.7,20.3,28.4,20.3,28,20.3z"/>
	<path fill="#002868" d="M18.5,19c-0.2,0-0.3,0-0.4,0.2l-0.6,1.6l-1.2-1.2c-0.1-0.1-0.3-0.1-0.4,0c-0.1,0.1-0.1,0.3,0,0.4l1.4,1.4
		l0,0v0.1l0.3,1.4c0,0.2,0.1,0.3,0.3,0.3c0.2,0,0.3-0.2,0.3-0.3l-0.3-1.5l0.8-2C18.7,19.2,18.7,19.1,18.5,19z"/>
</g>
<path fill="#FFCA00" d="M45.3,73.2c0.1-0.7,0.8-4.5,0.9-4.8l0.1-0.2l-0.2,0.1c-2.9,1.9-4.3,2.7-8.1,3.8c-0.4,0.1-0.6,0.3-0.7,0.5
	c-0.2,0.4,0.1,0.8,0.4,1.3c0.2,0.3,0.5,0.6,0.5,0.8c-3,1.5-7.5,2.4-12.6,2.4c-5,0-9.6-0.8-12.7-2.1c0.1-0.1,0.1-0.1,0.2-0.3
	c0.3-0.5,0.8-1.1,0.6-1.6l0,0c0-0.1,0-0.1-0.1-0.2l0,0c0,0,0,0-0.1-0.1s-0.3-0.2-0.5-0.3c-3.8-1.1-5.2-1.9-8.1-3.8l-0.2-0.1l0.1,0.2
	c0,0.1,0.1,0.3,0.2,0.7c0.2,1.2,0.7,3.4,0.8,4.1l-4,0.1L2,73.9c0.2,0.1,0.3,0.2,0.5,0.3c0.2,0.2,0.4,0.3,0.5,0.5
	c1,0.8,1.9,1.6,4.3,2.9h0.1l-0.7,1.2l-0.1,0.4h0.1c4.2,3,11.2,4.7,18.5,4.7c6.8,0,13.9-1.5,19-4.9h0.1v-0.1c0-0.1,0-0.2-0.8-1.5
	c2.2-1.2,3.1-2,4.2-2.9c0.1-0.1,0.2-0.1,0.3-0.2c0.4-0.2,0.7-0.5,1-0.8l0.2-0.2L45.3,73.2z"/>
<g>
	<path fill="#002868" d="M27.2,81.8h-1.3c0.1-0.2,0.3-0.3,0.4-0.4l0.7-0.5c0.2-0.3,0.4-0.7,0.3-1.1c-0.1-0.3-0.2-0.6-0.5-0.8h-0.1
		c-0.4-0.1-1.4-0.3-1.7,0.9c-0.1,0.2,0,0.4,0.2,0.4c0.2,0.1,0.4,0,0.4-0.2c0.2-0.5,0.4-0.5,0.9-0.4c0.1,0.1,0.2,0.2,0.2,0.4
		c0,0.2-0.1,0.4-0.2,0.6l-0.7,0.5c-0.3,0.3-0.7,0.7-0.7,1.3c0,0.2,0.1,0.3,0.3,0.3l1.8-0.4c0.2,0,0.3-0.1,0.3-0.3
		S27.4,81.8,27.2,81.8z"/>
	<path fill="#002868" d="M24.4,79.2c-0.2-0.1-0.3,0-0.4,0.1c-0.2,0.3-0.2,0.4-0.5,0.5c-0.1,0.1-0.2,0.2-0.1,0.4
		c0.1,0.1,0.2,0.2,0.4,0.1c0-0.1,0.1-0.1,0.1-0.1l-0.1,2.3c0,0.1,0.1,0.3,0.3,0.3c0.2,0,0.3-0.1,0.4-0.2l0.1-3.1
		C24.6,79.4,24.5,79.2,24.4,79.2z"/>
	<path fill="#002868" d="M21.1,81.8l-1.4-0.2c0.1-0.8,0.5-3.1,0.5-3.1c0-0.2-0.1-0.3-0.3-0.3c-0.1,0-0.3,0.1-0.3,0.3
		c-0.1,0.2-0.6,3.2-0.6,3.4l-0.1,0.3l2,0.3c0.1,0,0.3-0.1,0.5-0.3C21.4,82,21.3,81.8,21.1,81.8z"/>
	<path fill="#002868" d="M18.4,77.9c-0.2,0-0.4,0.1-0.4,0.3l-0.5,3.5c0,0.2,0.1,0.4,0.3,0.4c0.1,0,0.3-0.1,0.4-0.3l0.5-3.5
		C18.7,78.1,18.6,77.9,18.4,77.9z"/>
	<path fill="#002868" d="M14.6,78.5c0.2-0.4,0.2-0.9,0-1.3c-0.3-0.3-0.7-0.4-1-0.5c-0.2-0.1-0.3-0.1-0.4-0.2l-0.3-0.2l-1.4,3.6
		c0,0.2,0,0.3,0.2,0.4h0.1c0.1,0,0.2-0.1,0.2-0.2l0.6-1.4c0.4,0.2,0.7,0.3,1.1,0.4C14.1,79.1,14.4,78.9,14.6,78.5z M14.1,78.2
		c-0.1,0.2-0.2,0.3-0.4,0.3c-0.3,0-0.5-0.1-0.9-0.3l0.4-1.1h0.1c0.3,0.1,0.6,0.2,0.8,0.4C14.2,77.7,14.2,78,14.1,78.2z"/>
	<path fill="#002868" d="M33.4,78c-0.1,0-0.3,0.1-0.3,0.2c-0.1,0.4-0.3,0.6-0.5,0.8c-0.1,0.1-0.1,0.3,0,0.4s0.3,0.1,0.4,0
		c0.1,0,0.1-0.1,0.2-0.2l0.5,2.6c0,0.2,0.2,0.3,0.3,0.3c0.2,0,0.3-0.2,0.4-0.3l-0.7-3.5C33.7,78.1,33.5,78,33.4,78z"/>
	<path fill="#002868" d="M36.2,77.6c0-0.1,0-0.2-0.1-0.3c-0.1,0-0.2,0-0.3,0c-0.7,0.2-1.6,0.6-1.7,0.6c-0.1,0.1-0.2,0.2-0.2,0.4
		c0.1,0.1,0.2,0.2,0.4,0.2c0,0,0.1,0,1.3-0.4c0,1,0,2.1,0.1,3.2c0,0.2,0.1,0.3,0.3,0.3s0.3-0.2,0.3-0.5
		C36.1,79.9,36.1,78.7,36.2,77.6z"/>
	<path fill="#002868" d="M38.9,76.7c0-0.1,0-0.2-0.1-0.3c-0.1,0-0.2,0-0.3,0l-1.7,0.7c-0.2,0.1-0.3,0.2-0.2,0.4
		c0.1,0.2,0.2,0.3,0.4,0.2l1.2-0.5c-0.1,1.2-0.1,2.3,0.1,3.2c0,0.1,0.2,0.2,0.3,0.2c0.2,0,0.3-0.2,0.4-0.4
		C38.8,79.3,38.8,78,38.9,76.7z"/>
	<path fill="#002868" d="M41,76.8c-0.3-0.1-0.5-0.2-0.9,0c-0.1,0.1-0.2,0.2-0.3,0.3c0-0.1,0-0.2,0-0.3c0-0.3,0-0.5,0.3-0.7
		c0.3-0.1,0.4,0,0.5,0.2c0.1,0.1,0.3,0.2,0.4,0.1c0.1-0.1,0.2-0.3,0.1-0.4c-0.2-0.5-0.7-0.6-1.2-0.5l-0.1,0.1
		c-0.5,0.4-0.6,0.7-0.6,1.2c0,0.6,0.1,1.1,0.4,1.6c0.1,0.4,0.5,0.8,0.9,0.9c0.1,0.1,0.3,0.1,0.4,0.1c0.2,0,0.4-0.1,0.6-0.3
		c0.2-0.3,0.3-0.8,0.3-1.1C41.7,77.4,41.4,77,41,76.8z M41,78.7c-0.1,0.1-0.2,0.1-0.4,0c-0.1,0-0.4-0.2-0.5-0.5
		c0-0.6,0.2-0.8,0.3-0.8c0.1-0.1,0.2-0.1,0.4,0c0.2,0.2,0.3,0.4,0.4,0.7C41.2,78.3,41.1,78.6,41,78.7z"/>
	<path fill="#002868" d="M28.8,80.2c0,0-0.2,0-0.6,0v-0.8c0-0.1-0.1-0.2-0.2-0.2s-0.2,0.1-0.2,0.2v0.8c-0.1,0-0.2,0-0.2,0
		c-0.1,0-0.2,0.1-0.2,0.2s0.1,0.2,0.2,0.2s0.2,0,0.2,0l0.1,1.2c0,0.2,0,0.4,0.2,0.6s0.3,0.2,0.5,0.2c0,0,0.1,0,0.1-0.1
		c0.1,0,0.2-0.1,0.2-0.2s-0.1-0.2-0.2-0.2c-0.2,0-0.3,0-0.3,0s-0.1-0.1-0.1-0.3l-0.1-1.3c0.3,0,0.6,0,0.6,0.1c0.1,0,0.2-0.1,0.2-0.2
		C29,80.3,28.9,80.2,28.8,80.2z"/>
	<path fill="#002868" d="M30.4,80.1c-0.3-0.2-0.6-0.2-0.9-0.1l-0.1-0.6c0-0.1-0.1-0.2-0.2-0.2S29,79.3,29,79.4l0.3,2.9
		c0,0.1,0.1,0.2,0.2,0.2c0.2,0,0.3-0.1,0.2-0.2l-0.2-1.8c0.4-0.1,0.6-0.1,0.7,0c0.2,0.1,0.3,0.6,0.4,1.7c0,0.1,0.1,0.2,0.2,0.2
		c0.2,0,0.3-0.1,0.1-0.3C30.9,80.9,30.7,80.4,30.4,80.1z"/>
	<path fill="#002868" d="M11.5,75.5c-0.1,0-0.1,0-0.2,0h-0.1l-0.1,0.1c-0.2,0.2-0.8,0.8-2.6,2.7c-0.1,0.1-0.1,0.3,0,0.4
		s0.3,0.1,0.4,0c0.2-0.2,0.5-0.5,0.7-0.8l1,0.5c0,0.3-0.1,0.7-0.2,1c0,0.2,0.1,0.4,0.3,0.4s0.3-0.1,0.3-0.3c0.1-0.4,0.1-0.8,0.2-1.1
		l0,0c0.1-0.1,0.1-0.2,0-0.2C11.8,75.7,11.7,75.6,11.5,75.5z M10.7,77.8L10,77.5c0.3-0.3,0.6-0.6,0.8-0.9
		C10.9,76.9,10.8,77.3,10.7,77.8z"/>
	<path fill="#002868" d="M17,79.8c0.2-0.3,0.4-0.5,0.5-0.9c0.2-0.6-0.2-1.1-0.7-1.3c-0.2-0.1-0.5-0.1-0.8-0.2
		c-0.1,0-0.3-0.1-0.4-0.1l-0.3-0.1l-0.1,0.3c-0.9,3.5-0.9,3.5-0.9,3.6c0,0.2,0.1,0.3,0.3,0.3c0.1,0,0.2-0.1,0.2-0.2
		c0.1-0.1,0.2-0.8,0.4-1.5l1.1,0.2c0.1,0.1,0.2,0.2,0.2,0.2c0,0.2-0.1,0.8-0.2,1.4c0,0.2,0.1,0.4,0.3,0.4c0.2,0,0.3-0.1,0.4-0.3
		c0-0.4,0.2-1.3,0.1-1.6C17.1,79.9,17.1,79.8,17,79.8z M16.6,79.4l-0.1-0.1L15.4,79c0.1-0.4,0.2-0.7,0.3-1h0.1
		c0.3,0.1,0.6,0.1,0.8,0.2c0,0,0.4,0.2,0.3,0.6C16.9,79.1,16.8,79.3,16.6,79.4z"/>
</g>
<g>
	<path opacity="0.2" enable-background="new    " d="M10.4,74.3V25.8c0-12.1,8.2-22.7,19.8-25.8H0v100h30.2
		C18.5,96.9,10.4,86.3,10.4,74.3z"/>
	<path opacity="0.1" fill="#FFFFFF" enable-background="new    " d="M89.6,25.8v48.5c0,12.1-8.2,22.7-19.8,25.8H100V0H69.8
		C81.5,3.1,89.6,13.7,89.6,25.8z"/>
</g>
</svg>
