<?xml version="1.0" encoding="utf-8"?>
<!-- Generator: Adobe Illustrator 23.0.0, SVG Export Plug-In . SVG Version: 6.00 Build 0)  -->
<svg version="1.0" id="Layer_1" xmlns="http://www.w3.org/2000/svg" xmlns:xlink="http://www.w3.org/1999/xlink" x="0px" y="0px"
	 width="100px" height="100px" viewBox="0 0 100 100" enable-background="new 0 0 100 100" xml:space="preserve">
<path fill="#002A86" d="M100,99.9H0V0h100V99.9z"/>
<g>
	<path fill="#FCD213" d="M84.7,67.3L84,66.2l0.1,1.3c0,0.2-0.1,0.2-0.1,0.3c-0.1,0.1-0.3,0.1-0.6,0.1c-0.1-0.2-0.4-0.3-0.6-0.3v-0.1
		c-0.1-0.2-0.3-0.4-0.6-0.4c-0.3,0-0.6,0.1-0.9,0.3c-0.4,0-0.7,0.2-0.9,1c-0.2,0.8,0.3,1.6,1.2,1.9l0.1-0.3c0,0,0,0,0.1,0l0,0
		l0.1-0.3c0.3,0,0.7,0,0.8-0.3c0,0,0,0,0-0.1c0,0.2,0,0.4,0,0.7c0,0.6-0.9,1.2-1.5,1.4c-0.1-0.4-0.4-0.7-0.9-1
		c-0.1-0.4-0.5-0.6-0.8-0.7c-0.1,0-0.1-0.1-0.2-0.1c-0.2-0.5-0.6-0.5-0.9-0.5C78.3,69,78.2,69,78.1,69c-0.3-0.8-1-1.2-2-1.2
		c-1.1,0-1.8,0.8-2.2,1.3c-0.1,0-0.3,0.1-0.4,0.2c0.1-0.2,0.4-0.6,0.8-0.9l0.3-0.2l-0.2-0.3c-0.3-0.2-0.6-0.4-1-0.3
		c-0.1-0.3-0.3-0.5-0.6-0.6l-0.1-0.1L72.6,67c-0.2,0.1-0.4,0.4-0.6,0.9c-0.2,0-0.3,0-0.4,0.1c-0.3,0.2-0.4,0.5-0.5,0.8L71,69.1h0.4
		c0.5,0.1,0.6,0.3,0.6,0.4s0,0.3,0,0.5c-0.3-0.5-0.9-0.8-1.8-1.1c-1.4-0.5-2.4-0.2-4,1.3c-6.6,6.9-13.3,6.9-16.2,6.9
		s-9.6,0-16.2-6.9c-1.6-1.5-2.5-1.8-4-1.3c-0.9,0.3-1.5,0.6-1.8,1.1c-0.1-0.2-0.1-0.3,0-0.5c0-0.1,0.1-0.3,0.6-0.4H29l-0.1-0.4
		c-0.1-0.3-0.2-0.7-0.5-0.8c-0.2,0-0.3,0-0.5,0c-0.2-0.5-0.3-0.8-0.6-0.9l-0.1-0.1L27.1,67c-0.4,0.2-0.5,0.4-0.6,0.6
		c-0.4-0.1-0.8,0.1-1,0.3l-0.3,0.3l0.3,0.2c0.4,0.3,0.7,0.7,0.8,0.9c-0.1-0.1-0.3-0.1-0.4-0.2c-0.4-0.5-1.1-1.3-2.2-1.3
		c-1,0-1.7,0.5-2,1.2c-0.1,0-0.2,0.1-0.3,0.1c-0.3,0-0.7-0.1-0.9,0.5c-0.1,0-0.1,0.1-0.2,0.1c-0.3,0.1-0.6,0.3-0.8,0.7
		c-0.5,0.3-0.8,0.6-0.9,1c-0.7-0.1-1.5-0.7-1.5-1.4c0-0.3,0-0.5,0-0.7c0,0,0,0,0,0.1c0.2,0.2,0.5,0.3,0.8,0.3l0.2,0.6
		c0.9-0.3,1.4-1.1,1.2-1.9c-0.2-0.8-0.5-1-0.9-1c-0.2-0.2-0.6-0.4-0.9-0.3c-0.2,0-0.5,0.2-0.6,0.4v0.1c-0.2,0-0.4,0.1-0.6,0.3
		c-0.3,0-0.5,0-0.6-0.1c0,0-0.1-0.1-0.1-0.3l0.1-1.3L15,67.3c-0.3,0.4-0.2,1.1,0.2,1.5c0.2,0.2,0.4,0.3,0.6,0.3
		c-0.1,2.4,1,3.2,2.2,3.5c0,0.2,0.1,0.3,0.2,0.4C18,73.3,18,73.6,18,74c0.1,0.2,0.2,0.4,0.4,0.5c0,0.3,0,0.5,0.1,0.7l0.1,0.1
		c-0.1,0.4,0,0.7,0.1,0.9c0.2,0.2,0.5,0.4,0.8,0.3c1,1.3,2,1.8,3.5,1.8c1.4,0,1.7-0.2,2.2-0.4c0,0,0.1,0,0.1-0.1
		c0.7-0.4,1-0.5,1.6-0.4h0.2l0.1-0.1c0.2-0.1,0.3-0.4,0.3-0.6c0.1,0.2,0.2,0.4,0.5,0.4c0.3,0.1,0.6,0.1,0.8-0.1
		c0.2-0.2,0.3-0.4,0.3-0.8c0-0.4-0.2-0.9-0.5-1.1c-0.2-0.2-0.5-0.3-0.8-0.3s-0.6,0.1-0.8,0.3l0,0c-0.1-0.1-0.3-0.2-0.4-0.3
		c0-1.3-0.5-2.7-1.8-3.3c0.2-0.4,0.3-0.9,0.2-1.2c0,0,0-0.1-0.1-0.2c1.2,0.2,1.9,0.8,2.8,1.7l0.4,0.4c1.4,1.5,3.6,3.7,6.4,5.5
		l0.3,0.2c3,1.9,6.7,4.3,15.1,4.4c8.4-0.1,12.1-2.5,14.9-4.5l0.3-0.2c2.8-1.8,5-4,6.4-5.5l0.5-0.2c0.9-0.9,1.7-1.5,2.8-1.7
		c0,0-0.1,0.1-0.1,0.2c-0.1,0.4,0,0.9,0.2,1.2c-1.3,0.6-1.9,2-1.8,3.3c-0.2,0.1-0.3,0.2-0.4,0.3l0,0c-0.2-0.1-0.5-0.2-0.8-0.3
		c-0.3,0-0.6,0.1-0.8,0.3c-0.3,0.3-0.5,0.7-0.5,1.1c0,0.4,0.1,0.7,0.3,0.8c0.2,0.2,0.5,0.2,0.8,0.1c0.2-0.1,0.4-0.2,0.5-0.4
		c0,0.2,0.2,0.5,0.3,0.6l0.1,0.1h0.2c0.5-0.1,0.9,0,1.6,0.4l0.1,0.1c0.5,0.3,0.7,0.4,2.2,0.4s2.5-0.5,3.5-1.8c0.3,0,0.6-0.1,0.8-0.3
		c0.2-0.3,0.2-0.6,0.1-0.9c0,0,0.1,0,0.1-0.1c0.1-0.2,0.2-0.4,0.1-0.7c0.2-0.1,0.3-0.3,0.4-0.5c0.1-0.3,0-0.7-0.2-1
		c0.1-0.1,0.2-0.3,0.2-0.4c1.2-0.3,2.3-1.1,2.2-3.5c0.2,0,0.4-0.1,0.6-0.3C84.9,68.5,85,67.8,84.7,67.3z M21.7,71
		c-0.3,0.3-0.3,0.5-0.3,0.7c-0.2,0.1-0.4,0.2-0.5,0.4c-0.1,0.1-0.1,0.3-0.1,0.5c-0.2,0.4-0.3,0.8-0.1,1.2c-0.2,0.6-0.2,1.4,0.2,2.1
		c0.3,0.5,0.7,0.8,1.2,0.9c0.8,0.1,1.5,0,1.9-0.4c0.4-0.4,0.6-0.9,0.6-1.5c0-0.7-0.1-1.1-0.4-1.4s-0.7-0.3-0.8-0.3
		c-0.4,0-0.7,0.2-0.9,0.5c-0.2,0.3-0.2,0.6-0.1,0.9s0.4,0.5,0.8,0.5c0.1,0,0.1,0,0.2,0c0,0.1-0.1,0.2-0.1,0.3
		c-0.1,0.2-0.4,0.3-0.6,0.3c-0.8-0.1-1.1-0.6-1.1-1.4c0-0.5,0.2-1.1,0.6-1.4c0.3-0.2,0.7-0.3,1.2-0.3c1.3,0.2,1.9,0.6,1.9,2.2
		c0,1.6-0.8,2.4-2.3,2.4s-3-1.3-3-3.7c0-1.5,0.5-2.5,1.4-3c0.1,0.1,0.1,0.3,0.1,0.3L21.7,71z M76.3,72.6c0.1,0,0.2,0,0.3,0
		c0.4,0,0.7,0.1,0.9,0.3c0.4,0.3,0.6,1,0.6,1.4c0.1,0.8-0.3,1.3-1.1,1.4c-0.2,0-0.4-0.1-0.6-0.3c0-0.1-0.1-0.2-0.1-0.3
		c0.1,0,0.1,0,0.2,0c0.3,0,0.6-0.2,0.8-0.5c0.1-0.3,0.1-0.7-0.1-0.9c-0.2-0.3-0.5-0.5-0.9-0.5c-0.1,0-0.5,0-0.8,0.3
		s-0.4,0.7-0.4,1.4c0,0.7,0.2,1.2,0.6,1.5c0.5,0.4,1.1,0.5,1.9,0.4c0.5-0.1,1-0.4,1.2-0.9c0.4-0.7,0.4-1.5,0.2-2.1
		c0.2-0.4,0.2-0.9-0.1-1.2c0-0.2,0-0.4-0.1-0.5c-0.1-0.2-0.3-0.3-0.5-0.4c0.1-0.2,0-0.5-0.2-0.7v-0.1c0.1-0.1,0.1-0.2,0.2-0.4
		c0.9,0.6,1.4,1.5,1.4,3c0,2.4-1.5,3.7-3,3.7s-2.3-0.8-2.3-2.4C74.4,73.1,75.1,72.8,76.3,72.6z"/>
	<path fill="#EF2C30" d="M69.8,70.2c-1-0.9-1.5-0.5-3,0.6l-0.1,0.1l0,0c-5.3,6.1-12.7,7-16.6,7s-11.3-0.9-16.6-7l0,0l-0.1-0.1
		c-1.6-1.1-2.1-1.4-3-0.6c-0.8,0.7-0.8,1.7,0,2.8l0,0c4.9,5.7,12.2,9,19.8,9s14.9-3.3,19.8-9l0,0C70.6,71.9,70.6,70.9,69.8,70.2z"/>
	<g id="path4388">
		<path fill="#FFD12B" d="M50,26.1l0.3,1h1l-0.8,0.6l0.3,1L50,28.1l-0.9,0.6l0.3-1l-0.8-0.6h1L50,26.1"/>
	</g>
	<g id="path4390">
		<path fill="#FFD12B" d="M47.8,30.3l-0.1,0.9l-0.9,0.2l0.8,0.3v0.9l0.6-0.7l0.8,0.3l-0.5-0.8l0.6-0.7l-0.9,0.2L47.8,30.3"/>
	</g>
	<g id="path4392">
		<path fill="#FFD12B" d="M44.7,31.9l0.3,0.8l-0.7,0.6h0.9l0.3,0.8l0.2-0.9l0.9-0.1l-0.7-0.5l0.2-0.9l-0.7,0.6L44.7,31.9"/>
	</g>
	<g id="path4394">
		<path fill="#FFD12B" d="M42.5,34.6l0.6,0.7L42.7,36l0.8-0.4l0.6,0.6L44,35.4l0.8-0.4L44,34.9L43.8,34l-0.4,0.8L42.5,34.6"/>
	</g>
	<g id="path4396">
		<path fill="#FFD12B" d="M52.2,30.3l0.1,0.9l0.9,0.2l-0.8,0.3v0.9L51.7,32l-0.8,0.3l0.5-0.8l-0.6-0.7l0.9,0.2L52.2,30.3"/>
	</g>
	<g id="path4398">
		<path fill="#FFD12B" d="M55.3,31.9L55,32.7l0.7,0.6h-0.9l-0.3,0.8l-0.2-0.9l-0.9-0.1l0.7-0.5l-0.2-0.9l0.7,0.6L55.3,31.9"/>
	</g>
	<g id="path4400">
		<path fill="#FFD12B" d="M57.5,34.6l-0.6,0.7l0.4,0.8l-0.8-0.4l-0.6,0.6l0.1-0.9L55.2,35l0.9-0.2l0.1-0.9l0.4,0.8L57.5,34.6"/>
	</g>
	<g id="path4402">
		<path fill="#FFD12B" d="M45.8,26.8l0.6,0.7l0.8-0.3L46.7,28l0.5,0.7l-0.9-0.2l-0.5,0.7v-0.9L45,28l0.8-0.3V26.8"/>
	</g>
	<g id="path4404">
		<path fill="#FFD12B" d="M42.1,28.9l0.8,0.5l0.7-0.6l-0.2,0.9l0.7,0.5l-0.9,0.1L43,31.1l-0.3-0.8h-0.9l0.7-0.6L42.1,28.9"/>
	</g>
	<g id="path4406">
		<path fill="#FFD12B" d="M39.4,32.1l0.9,0.2l0.5-0.8l0.1,0.9l0.9,0.2L40.9,33l0.1,0.9l-0.6-0.7l-0.8,0.3l0.5-0.8L39.4,32.1"/>
	</g>
	<g id="path4408">
		<path fill="#FFD12B" d="M54.2,26.8l-0.6,0.7l-0.8-0.3l0.5,0.8l-0.5,0.7l0.9-0.2l0.5,0.7v-0.9L55,28l-0.8-0.3V26.8"/>
	</g>
	<g id="path4410">
		<path fill="#FFD12B" d="M57.9,28.9l-0.8,0.5l-0.7-0.6l0.2,0.9l-0.7,0.5l0.9,0.1l0.2,0.9l0.3-0.8h0.9l-0.7-0.6L57.9,28.9"/>
	</g>
	<g id="path4412">
		<path fill="#FFD12B" d="M60.6,32.1l-0.9,0.2l-0.5-0.8l-0.1,0.9l-0.9,0.2L59,33l-0.1,0.9l0.6-0.7l0.8,0.3L60,32.8L60.6,32.1"/>
	</g>
	<g id="path4414">
		<path fill="#FFFFFF" d="M34.4,75.8l0.9-1.3l-0.2,1.8l0.4,0.3l1.3-1.8l-0.4-0.3l-0.9,1.3l0.2-1.8l-0.4-0.3L34,75.5L34.4,75.8"/>
	</g>
	<g id="path4416">
		<path fill="#FFFFFF" d="M37.3,77c0-0.2,0-0.4,0.1-0.6c0.1-0.2,0.3-0.4,0.4-0.4c0.2-0.1,0.3-0.1,0.5,0s0.3,0.2,0.3,0.4
			s0,0.4-0.1,0.6s-0.3,0.4-0.4,0.4c-0.2,0.1-0.3,0.1-0.5,0C37.5,77.3,37.4,77.2,37.3,77L37.3,77z M39.1,76.3
			c-0.1-0.2-0.2-0.4-0.5-0.6s-0.5-0.2-0.8-0.1s-0.5,0.3-0.7,0.6c-0.2,0.4-0.2,0.7-0.2,1c0.1,0.2,0.2,0.4,0.5,0.6
			c0.3,0.1,0.5,0.2,0.8,0.1s0.5-0.3,0.7-0.6C39.1,76.9,39.2,76.6,39.1,76.3L39.1,76.3z"/>
	</g>
	<g id="path4418">
		<path fill="#FFFFFF" d="M41.3,77.6c0.1,0.1,0.1,0.2,0,0.3c0,0.1-0.1,0.2-0.2,0.2c-0.1,0-0.1,0-0.2-0.1l-0.5-0.2l0.2-0.6l0.5,0.2
			C41.2,77.5,41.3,77.5,41.3,77.6L41.3,77.6z M40.3,76.7l-0.9,2l0.4,0.2l0.3-0.8l0.4,0.2c0.1,0.1,0.2,0.1,0.2,0.2c0,0.1,0,0.2,0,0.3
			L40.6,79c0,0.1,0,0.1-0.1,0.2v0.1l0.5,0.2v-0.1c0,0,0-0.1,0-0.2c0,0,0-0.1,0.1-0.2l0.1-0.1c0.1-0.1,0.1-0.3,0.1-0.3
			c0-0.1-0.1-0.2-0.1-0.2c0.1,0,0.2,0,0.3-0.1s0.2-0.2,0.2-0.3c0-0.1,0.1-0.2,0.1-0.2s0-0.1,0-0.2s-0.1-0.2-0.1-0.2
			s-0.2-0.1-0.3-0.2L40.3,76.7"/>
	</g>
	<g id="path4420">
		<path fill="#FFFFFF" d="M42.8,77.7l1.7,0.5l-0.1,0.4l-0.6-0.2l-0.5,1.7L42.9,80l0.5-1.7l-0.6-0.2L42.8,77.7"/>
	</g>
	<g id="path4422">
		<path fill="#FFFFFF" d="M45.4,80.7l-0.5-0.1l0.4-2.2l0.5,0.1l-0.1,0.8l0.9,0.2l0.1-0.8l0.5,0.1l-0.5,2.1h-0.5l0.2-1l-0.9-0.2
			L45.4,80.7"/>
	</g>
	<g id="path4424">
		<path fill="#FFFFFF" d="M51.3,79.5c0.1,0.1,0.1,0.3,0.1,0.5s0,0.3-0.1,0.4c-0.1,0.2-0.2,0.3-0.4,0.3h-0.4l-0.1-1.4h0.4
			C51.1,79.3,51.2,79.3,51.3,79.5L51.3,79.5z M50,78.9l0.1,2.2h1c0.3,0,0.6-0.2,0.7-0.4c0.1-0.2,0.2-0.5,0.1-0.8
			c0-0.1,0-0.2-0.1-0.4c-0.1-0.2-0.1-0.2-0.2-0.4c-0.1-0.1-0.2-0.2-0.4-0.3c-0.1,0-0.2,0-0.3,0L50,78.9"/>
	</g>
	<g id="path4426">
		<path fill="#FFFFFF" d="M54.1,79.9L53.5,80l0.1-0.9L54.1,79.9z M53.4,80.9l0.1-0.5l0.8-0.1l0.2,0.4l0.5-0.1l-1.1-2.1l-0.5,0.1
			L53,81L53.4,80.9L53.4,80.9z"/>
	</g>
	<g id="path4428">
		<path fill="#FFFFFF" d="M56.1,80.4l-0.6-2.1l0.4-0.1l0.3,0.9l0.6-1.1l0.6-0.2l-0.6,1.1l1.3,1l-0.6,0.2l-0.9-0.7l-0.1,0.3l0.2,0.7
			H56.1"/>
	</g>
	<g id="path4430">
		<path fill="#FFFFFF" d="M59.3,78.7c-0.2-0.1-0.3-0.2-0.4-0.5c-0.1-0.2-0.1-0.4-0.1-0.6s0.2-0.3,0.3-0.4c0.2-0.1,0.3-0.1,0.5,0
			s0.3,0.2,0.4,0.5s0.1,0.4,0.1,0.6c0,0.2-0.2,0.3-0.3,0.4C59.6,78.8,59.4,78.8,59.3,78.7L59.3,78.7z M59.8,76.9
			c-0.2-0.1-0.5-0.1-0.8,0.1c-0.3,0.1-0.5,0.3-0.6,0.5c-0.1,0.3-0.1,0.6,0.1,1c0.2,0.4,0.4,0.6,0.7,0.7c0.2,0.1,0.5,0.1,0.8-0.1
			c0.3-0.1,0.5-0.3,0.6-0.5c0.1-0.3,0.1-0.6-0.1-1C60.3,77.2,60.1,77,59.8,76.9L59.8,76.9z"/>
	</g>
	<g id="path4432">
		<path fill="#FFFFFF" d="M60.7,76.2l1.6-0.9l0.2,0.3l-0.6,0.3l0.9,1.6l-0.4,0.2l-0.9-1.6l-0.6,0.3L60.7,76.2"/>
	</g>
	<g id="path4434">
		<path fill="#FFFFFF" d="M64.7,75.3l-0.5,0.3L64,74.8L64.7,75.3z M64.5,76.5L64.4,76l0.7-0.5l0.4,0.3l0.4-0.3L64,74.1l-0.4,0.3
			l0.6,2.3L64.5,76.5z"/>
	</g>
	<path fill="#C39A9A" d="M47.4,49.8c0-0.3-0.2-0.5-0.4-0.7c-0.3,0-0.5-0.1-0.8-0.1s-0.5,0-0.8,0c-0.1,0-0.1,0-0.2,0.1
		c-0.3,0-0.5-0.1-0.7-0.1c-0.1,0-0.2-0.1-0.4-0.2l0,0c-0.3-0.2-0.6-0.5-0.9-0.8c-0.1-0.1-0.1-0.1-0.2-0.1c-0.3-0.3-0.6-0.6-0.9-0.9
		L42,46.7c-0.1-0.1-0.2-0.2-0.3-0.3s-0.3-0.3-0.4-0.4c-1.1-1.3-2.2-2.4-3-2.7c-0.1,0-0.1-0.1-0.2-0.1c-0.5,0-1.3-0.1-2.1,0
		c-0.7,0-1.5,0.1-1.8,0.2l-0.3,0.1c-2.1,0.8-3,1.2-3.1,1.5c0,0,0,0,0,0.1c-1.2,0.7-4.5,3.2-5.8,4.4c-1.3,1.1-3.4,3.2-4.1,4
		c-0.3,0.4-0.4,0.8-0.2,1c0.2,0.2,0.7,0.1,1.3-0.3c0,0.2,0.1,0.3,0.2,0.4c0.3,0.2,0.8,0,1.8-0.6c0,0.2,0,0.4,0.2,0.5
		c0.4,0.3,1.2,0,2-0.5c0,0.2,0.1,0.3,0.2,0.4c0.4,0.3,1.1,0.1,2-0.5c0,0.1,0.1,0.2,0.1,0.2c0.3,0.3,1.1,0.2,1.8-0.2
		c0.4-0.2,0.8-0.5,1.3-0.7c0.4-0.2,0.9-0.4,1.2-0.7c-0.1,0.2-0.1,0.3,0,0.5c0,0.1,0,0.1,0,0.3v0.1h0.1c0.4,0.1,0.7,0,1-0.2
		c0,0.1,0,0.3,0,0.4c0.1,0.2,0.3,0.2,0.5,0.2c0.3,0,0.7-0.1,1-0.3c0,0.1,0,0.3,0.1,0.3c0.2,0.2,0.4,0.2,0.7,0.1h0.1
		c0.3,0,0.5,0,0.7-0.1c0,0.1,0,0.3,0.1,0.4c0.2,0.2,0.5,0.1,0.7,0.1c0.4-0.1,0.8-0.3,1.1-0.5v0.1C39,54,39.2,54,39.4,54h0.1
		c0.2,0,0.3-0.1,0.5-0.1c0,0.1,0,0.2,0.1,0.2c0.1,0.1,0.3,0.2,0.5,0.2c0.1,0,0.4,0,0.6-0.1c0,0.2,0.1,0.3,0.1,0.4
		c0.1,0.1,0.2,0.1,0.4,0.1c0.1,0,0.3-0.1,0.4-0.2c0,0.1,0,0.3,0.1,0.3c0.2,0.2,0.4,0.1,0.5,0.1c0.3-0.1,0.5-0.2,0.6-0.3
		c0,0.1,0.1,0.3,0.1,0.3c0.1,0.1,0.2,0.1,0.3,0.1s0.2,0,0.3,0h0.1c0.4-0.1,0.8-0.1,1.3-0.7c0.3-0.3,1.2-1.6,1.7-2.8
		C47.4,50.9,47.5,50.2,47.4,49.8z"/>
	<g id="path4580">
		<polygon points="66.3,43.3 66.4,43.3 66.4,43.3 		"/>
	</g>
	<path fill="#C39A9A" d="M79.2,51.3c0.1,0.1,0.2,0,0.2-0.1c0.2-0.4-0.3-1-0.4-1.1c-1.2-1.1-4.1-3.3-6.2-4.6c-2.2-1.4-3.9-2-6.3-2.6
		c-1.7-0.4-3.5-0.1-4.5,0.3c-1,0.5-3.2,2.8-3.8,3.7c-0.5,0.8-1.8,1.7-2.5,2.2l-0.2,0.1c-0.4,0.5-1.4,3.3-1.9,4.6
		c-0.1,0.3-0.2,0.6-0.3,0.7c0,0.4,0.2,0.6,0.4,0.8c0.1,0.1,0.2,0.1,0.3,0.1c0.2,0.1,0.4,0.1,0.7-0.1c0,0.1,0.1,0.1,0.2,0.1
		c0.1,0.1,0.2,0.1,0.4,0.1c0,0,0,0,0.1,0c0.3,0,0.5-0.1,0.7-0.6c0.1,0.2,0.3,0.4,0.6,0.4h0.1c0.1,0,0.1,0.1,0.2,0.1
		c0.4,0.1,0.6-0.3,0.6-0.7c0.2,0.3,0.5,0.5,0.8,0.5c0.1,0,0.1,0,0.1,0c0.1,0,0.1,0,0.2,0c0.3,0,0.5-0.2,0.5-0.4
		c0.1,0.1,0.2,0.1,0.4,0.1h0.1h0.1c0.4,0,0.7-0.2,0.8-0.6c0.2,0.1,0.3,0.2,0.5,0.2l0,0h0.1c0.1,0,0.2,0,0.3,0c0.4,0,0.6-0.2,0.8-0.7
		c0.3,0.1,0.5,0.1,0.8,0c0.2-0.1,0.4-0.4,0.5-0.7c0.5,0.5,0.9,0.7,1.1,0.6c0.1,0,0.2-0.1,0.3-0.2c0.1-0.2,0.1-0.4,0.1-0.8v-0.1
		c0.1,0,0.1,0.1,0.2,0.1c0.2,0.1,0.5,0.2,0.7,0.2c0.1,0,0.2-0.1,0.2-0.2c0-0.2,0-0.5,0-0.8c0.2,0.1,0.3,0.2,0.5,0.2
		c0.2,0.1,0.3,0.1,0.5,0.1s0.3-0.1,0.4-0.2c0.1-0.2,0.2-0.4,0.1-0.6c0.3,0.2,0.6,0.3,0.9,0.5c0.5,0.2,0.9,0.4,1.2,0.4
		c0.2,0,0.7,0,0.9-0.3c0.1-0.1,0.1-0.2,0.1-0.4h0.1c0.3,0.2,0.6,0.3,1,0.3c0,0,0,0,0.1,0c0,0,0,0,0.1,0l0,0h0.1h0.1
		c0.6-0.1,0.8-0.5,0.8-0.9c0.6,0.5,1.2,0.8,1.9,0.8c0.4,0,0.6-0.1,0.7-0.3c0.1-0.1,0.1-0.1,0.1-0.2c0.1-0.2,0.1-0.3,0.1-0.5
		c0.7,0.4,1.8,0.9,2.6,1.4c0.5,0.2,0.6,0.2,0.7,0c0,0,0.1,0,0.1-0.1C79.5,51.9,79.4,51.6,79.2,51.3L79.2,51.3z"/>
	<g>
		<path fill="#20D942" d="M30.3,55.4C30.3,55.4,30.4,55.5,30.3,55.4C30.4,55.4,30.3,55.4,30.3,55.4L30.3,55.4z"/>
	</g>
	<g>
		<path fill="#20D942" d="M30.3,55.4C30.3,55.4,30.4,55.5,30.3,55.4C30.4,55.4,30.3,55.4,30.3,55.4L30.3,55.4z"/>
		<path fill="#20D942" d="M46.6,69.8c-0.2-0.4-0.5-0.9-1.2-1.4c-0.1-0.1-0.2-0.2-0.3-0.2C45,68.1,45,68.1,45,68
			c-0.2-0.2-0.4-0.4-0.8-0.7c-0.2-0.2-0.5-0.4-0.8-0.6c-0.6-0.5-1.3-1-1.8-1.3c-0.4-0.3-0.7-0.6-1-1c-0.1-0.1-0.2-0.2-0.3-0.3
			c-0.1-0.5-0.2-1.1-0.1-1.4c0-0.2,0-0.4-0.1-0.5c0-0.1-0.1-0.1-0.2-0.1c-0.1,0-0.2,0.1-0.2,0.3c-0.1,0.3-0.1,0.7-0.1,1.1
			c-0.1-0.1-0.3-0.2-0.4-0.4c0-0.1,0-0.3-0.1-0.5c0-0.3-0.1-0.5-0.1-0.9c0-0.5,0.1-1.3,0.2-1.8c0-0.2,0.1-0.5,0.1-0.6
			c0-0.2,0-0.5-0.1-0.9c-0.1-0.5-0.2-1-0.1-1.4l0.2-0.6l-0.6,0.5c-0.3,0.4-0.6,0.8-0.7,1.2c-0.3-0.7-0.7-1.3-1-1.7l-0.2-0.2
			l-0.1,0.3c-0.1,0.4-0.1,1.1,0,1.8c-0.5-0.6-1.2-1.3-1.6-1.4H35h-0.1c-0.3,0.4-0.1,0.7,0.1,0.9v0.1c0.1,0.1,0.2,0.2,0.3,0.4
			c0.2,0.3,0.4,0.6,0.6,0.8c0.1,0.4,0.2,0.7,0.5,1.2c0.1,0.2,0.3,0.5,0.5,0.8c0.1,0.2,0.2,0.3,0.3,0.4c-0.4-0.2-0.9-0.5-1.4-0.7
			c-0.1-0.2-0.2-0.3-0.3-0.5c-0.3-0.5-0.8-1.8-1.2-2.9c-0.2-0.6-0.4-1.2-0.6-1.5l-0.1-0.3c-0.3-0.8-0.6-1.4-1.1-2.1l-0.1-0.2
			l-0.1,0.2c0,0,0,0,0,0.1c0,0,0,0-0.1-0.1c-0.1,0.2-0.1,0.3-0.1,0.5v0.1c0,0.1,0,0.2-0.1,0.4c-0.2-0.3-0.4-0.6-0.5-0.7l-0.1-0.5
			L31,53.7c-0.2,0.6-0.3,1.1-0.3,1.7c-0.3-0.2-0.6-0.4-0.7-0.6l-0.3-0.6v0.7c0,0.8,0.5,2.1,1.7,3.2c0.6,0.6,1,0.9,1.3,1.2
			c-0.2-0.1-0.5-0.3-0.8-0.4c-0.1,0-0.1,0-0.2-0.1c-1.5-0.7-3.6-1.7-4.9-1.8h-0.2v0.2c-0.1,0.4,0.3,0.9,0.7,1.3
			c-0.4-0.1-0.7-0.1-1-0.3l0,0l-0.2-0.1v0.3c0.1,0.6,0.6,1.1,1.4,1.6h-0.1c-0.2,0-0.3,0.1-0.5,0.1c-0.1,0-0.1,0-0.2,0.1l0,0
			c-0.1,0-0.1,0-0.1,0.1l-0.5,0.1l0.4,0.2c0.2,0.1,0.4,0.2,0.6,0.3c0.4,0.3,0.8,0.5,1.5,0.6c1,0.1,2-0.2,2.6-0.4
			c0.7-0.2,1.6-0.3,2-0.1c0.1,0,0.2,0.1,0.3,0.1c0.3,0.1,0.8,0.3,1.3,0.5c0.2,0.3,0.4,0.7,0.7,1.1c-0.4-0.3-1.2-0.6-1.8-0.6
			c-0.8,0-1.4,0.3-2,0.5c-0.3,0.1-0.4,0.2-0.5,0.3C31.1,63,31,63,30.9,63.1c0,0-0.1,0-0.1,0.1c-0.1,0.1-0.2,0.1-0.3,0.1l-0.5,0
			l0.5,0.3c0.2,0.1,0.6,0.4,1.1,0.4c-0.5,0.5-0.8,1-0.9,1.4l-0.1,0.4l0.4-0.2c0.7-0.4,1.5-0.7,1.9-0.8c0.1,0,0.2-0.1,0.4-0.1
			c0.6-0.1,1.6-0.3,2-0.7h0.1c0.2,0,0.3,0,0.5,0.1l0.1,0.1c0.5,0.8,1.1,1.2,1.6,1.5c0.2,0.1,0.3,0.2,0.5,0.3
			c-0.8-0.1-1.6-0.2-1.8,0.2c-0.1,0.2-0.2,0.3-0.3,0.5c-0.2,0.2-0.3,0.5-0.5,0.7l-0.4,0.4l0.7-0.1c0.2-0.1,0.4-0.2,0.7-0.3
			c0.2-0.1,0.4-0.2,0.6-0.3c0.5-0.2,1.3-0.3,1.5-0.2s0.3,0,0.4-0.2c0.1-0.3-0.1-0.5-0.3-0.6c0.1-0.1,0.1-0.2,0.1-0.3
			C39,65.7,39,65.3,39,65c0,0,0,0.1,0.1,0.1c0.5,0.6,1.9,2.1,3.1,3c1,0.8,1.5,1.1,1.7,1.3c0.2,0.4,0.6,0.7,1,1
			c0.2,0.1,0.3,0.3,0.5,0.4c0.2,0.2,0.5,0.3,0.6,0.3s0.1,0,0.2,0C46.9,70.6,46.8,70.3,46.6,69.8z M30.3,55.4L30.3,55.4
			C30.3,55.4,30.4,55.4,30.3,55.4C30.4,55.5,30.3,55.4,30.3,55.4z"/>
	</g>
	<polygon fill="#FFFFFF" points="65.4,60.3 64.4,58.9 59.4,60.7 60,61.4 54.3,64.7 53.5,64.5 50.6,66.4 52.5,69.3 55.5,67.5 
		55.7,66.7 61.1,63.4 61.6,64.2 65.6,60.6 	"/>
	<path fill="#C39A9A" d="M59.3,64.5c0-0.3,0-0.6-0.1-1c-0.3-0.8-1.4-1-1.8-1c-0.4-0.1-1.5,0-2,0.1c-0.3,0-0.4,0.1-0.6,0.1
		c-0.1,0-0.2,0.1-0.3,0.1c0,0-0.1,0-0.1-0.1c-0.1-0.2-0.1-0.3-0.1-0.3c0-0.1,0.1-0.2,0.2-0.3c0.1-0.1,0.2-0.3,0.3-0.5v-0.1
		c0-0.8,0.3-1.7,0.1-3.1c-0.2-1-0.4-1.6-0.9-1.9c-0.4-0.2-0.9-0.2-1.5,0c-1.4,0.5-7-0.1-7.1-0.1s-0.3,0.1-0.4,0.1
		c-0.6,0.1-1.2,0.2-1.7,1.5c-0.2,0.4-0.4,0.9-0.5,1.4c-0.3,0.8-0.6,1.7-0.8,2.3c-0.1,0.3-0.2,0.5-0.2,0.6c-0.1,0.3-0.3,0.7-0.7,1
		l0,0c-0.6,0.3-1,0.5-1.5,0.7c-0.4,0.2-1.7,0.8-1.8,1.8c0,0.9,0.4,1.6,1.1,1.9c0.3,0.3,0.7,0.5,1,0.5c0.2,0,0.3-0.1,0.4-0.2
		c0.3,0.1,0.7,0.2,1,0.1c0.2-0.1,0.3-0.2,0.3-0.4v-0.1h-0.1c-0.3-0.2-0.5-0.7-0.5-1.1c0.3-0.3,0.6-0.7,0.9-1
		c0.2-0.2,0.5-0.5,0.7-0.7c0,0.1,0,0.2,0,0.3c0,0.5,0,0.9,0,1.3c0,0.2,0.2,0.4,0.4,0.4c0.1,0,0.3-0.1,0.4-0.3c0-0.1,0.1-0.2,0.1-0.3
		v0.2l0.2-0.1c0.2-0.1,0.5-0.4,0.8-0.7c-0.1,0.4-0.1,0.8-0.1,1.4v0.2l0.2-0.1c0.3-0.1,0.6-0.3,0.9-0.6c-0.1,0.5-0.1,0.8,0,1l0.1,0.2
		l0.2-0.1c0.2-0.1,0.7-0.4,1.1-0.8c0,0.3,0,0.5,0,0.8v0.3l0.3-0.1c0.4-0.3,0.7-0.7,0.9-1.1c0,0.1,0.1,0.3,0.2,0.3
		c0.3,0.2,0.6-0.1,1-0.7c0.4-0.5,0.8-0.9,1.1-1.5h0.1h0.1c0.5-0.2,0.9-0.4,1.1-0.8c0.1,0,0.2-0.1,0.3-0.1c0.1-0.1,0.3-0.3,0.3-0.5
		c0.2,0.1,0.3,0.2,0.5,0.2v0.1c0,0.2,0,0.4-0.1,0.5c0,0.2-0.1,0.3-0.1,0.6v0.3l0.2-0.2c0,0,0.1,0,0.1-0.1c0,0.1,0,0.1,0,0.2
		c0,0,0.4-0.3,0.6-0.4c0.2,0,0.3,0.1,0.5,0.1s0.5-0.1,0.8-0.3c0.2,0,0.5,0.2,0.7,0.4s0.4,0.4,0.4,0.5s0,0.3,0.3,0.4
		c-0.1,0.3-0.4,0.6-0.7,0.7l0.1,0.3h0.1l0,0c0.3,0,0.5-0.1,0.7-0.2c0.1,0.1,0.2,0.1,0.5,0.1c0.2,0,0.7-0.4,0.8-0.5
		c0.3,0,0.7-0.1,1-0.4l0,0c0.1-0.1,0.2-0.2,0.3-0.3C58.9,65.5,59.2,65.1,59.3,64.5z"/>
	<g>
		<path d="M48.5,39.3c0-0.1-0.1-0.2-0.2-0.3l-0.2-0.1C48.3,39,48.4,39.2,48.5,39.3z"/>
		<g>
			<path fill="none" d="M48.6,40.4L48.6,40.4L48.6,40.4z"/>
		</g>
	</g>
	<path fill="#EF2C30" d="M47.8,39.6c-0.4,0.2-0.8,0.5-1.2,0.8c-0.2,0.1-0.4,0.2-0.6,0.3c-0.1,0.1-0.2,0.1-0.3,0.2
		c-0.6-0.6-1.3-1.5-1.8-2.1c-0.3-0.3-0.5-0.6-0.7-0.8c-0.9-1-2.3-2.3-3.3-3c-0.8-0.6-1.4-0.8-1.9-1c-0.2-0.1-0.3-0.1-0.5-0.2
		c-0.5-0.2-0.7-0.1-0.9,0.1c-0.2,0.1-0.3,0.4-0.3,0.6c-0.1,0.2-0.4,0.6-0.8,1c-0.2-0.1-0.2-0.2-0.4-0.2c-0.1,0-0.1,0-0.3-0.1
		c-0.4-0.1-0.9,0.1-1.3,0.6C33.3,36,33.3,36,33.2,36s-0.2-0.1-0.3-0.2c-0.4-0.4-1.2-0.7-2-0.6l-0.5,0.1l0.3,0.1l-0.3,0.1l0.4,0.2
		c0.4,0.1,0.7,0.6,1,1c0.1,0.2,0.2,0.3,0.3,0.4c-0.5,0.2-1,0.6-1.5,1c0,0,0.9,0.3,1.2,0.4c0.1,0,1.5-0.1,1.6-0.1
		c0.2-0.1,0.3-0.2,0.5-0.3c0.3-0.2,0.7,0.1,1.2,0.4c0,0,0.1,0.1,0.2,0.1c0.6,0.4,1.8,0.2,2.2-0.1c0.1-0.1,0.2-0.2,0.2-0.4
		c0.1-0.1,0.2-0.9,0.2-0.9v-0.1c0-0.1,0.1-0.2,0.1-0.3c0.2,0.2,5.1,5.1,5.6,5.5c0.2,0.2,0.4,0.3,0.5,0.4c0.2,0.1,0.4,0.2,0.7,0.2
		l0,0h0.1h0.4l-0.1-0.1c0.1,0,2.4-1.4,2.5-1.5c0.3-0.2,0.6-0.3,0.8-0.5C48.7,40.7,48.1,39.4,47.8,39.6z"/>
	<path fill="#EF2C30" d="M69.7,36.5c0,0-1.4,0.5-1.6,0.5c0.1-0.2,0.2-0.3,0.3-0.5c0.3-0.5,0.6-0.9,0.5-1.4V35v-0.3v-0.1l-0.3,0.3
		c-0.4,0.4-1.5,1.5-2.4,1.5c-0.1,0-0.1,0-0.1,0c-0.4-0.2-1-0.4-1.4-1.1c-0.3-0.6-0.6-0.8-0.8-1v-0.1c-0.2-0.1-0.4-0.2-0.6-0.2
		c-0.4,0-1.4,0-3.4,0.3c-1.6,0.2-3.7,2.1-5,3.4c-0.2,0.2-0.3,0.4-0.5,0.5c-1.1,1-2,1.2-2.8,1.2l1,1.4h0.1c2,0,4.4-1.8,5.3-2.5
		c1.4-1.1,2.9-1.8,4.2-1.8c0.2,0,0.4,0,0.6,0c-0.1,0.2-0.2,1.5-0.2,1.7c0.2,0.6,0.5,0.7,0.9,0.7h0.1c0.1,0,3.6-0.1,4.1-0.4
		c0-0.1,0.1-0.1,0.2-0.2c0.7-0.4,1.5-1,1.8-1.5V36.5L69.7,36.5z"/>
	<path fill="#FF163C" d="M55.1,49.5c-0.8,0.3-1.3,0.4-1.8,0.3c-0.5-0.1-0.9-0.5-1.1-0.7l-0.3-0.5L51.4,49c-0.5,0.3-1,0.6-1.6,0.6
		s-1.6-0.4-1.8-0.7l-0.6-0.6L47.1,49c-0.6,1-1.3,2.4-1.6,3.4c-0.3,1-1.1,5.6,1.1,8.3l0.3,0.4l0.5-0.2c1.5-0.8,5.6-3,7.3-7.1
		c1-2.3,1.2-3.3,1.3-3.6l0.3-1.1L55.1,49.5z"/>
	<g id="path5010">
		<path fill="#FFFFFF" d="M45.4,57.8c0.7-2,1.3-3.6,1.7-4.8c-0.2-0.1-0.9-0.3-0.9-0.3c-0.3,0.7-0.7,1.8-1.1,3.2
			C45.2,56.5,45.3,57.1,45.4,57.8"/>
	</g>
	<g id="path5014">
		<path fill="#FFFFFF" d="M45.8,58.9c0.1,0.3,0.2,0.6,0.4,0.8c0.9-2.9,1.6-5,2.2-6.4l-0.7-0.2C47.3,54.2,46.5,56.7,45.8,58.9"/>
	</g>
	<g id="path5018">
		<path fill="#FFFFFF" d="M48.9,53.5c-0.5,1.2-1.5,4.4-2.3,7c0,0.1,0.1,0.1,0.1,0.2l0.2,0.3l0.3-0.2l0,0c1-3.2,1.9-5.5,2.5-7
			C49.5,53.5,48.9,53.5,48.9,53.5"/>
	</g>
	<g id="path5022">
		<path fill="#FFFFFF" d="M48.9,59.7c0.8-2.6,1.5-4.6,2.1-6c-0.2-0.1-0.8-0.1-0.8-0.1c-0.5,1.2-1.4,4.1-2.1,6.5
			C48.3,60.1,48.6,59.9,48.9,59.7"/>
	</g>
	<g id="path5026">
		<path fill="#FFFFFF" d="M51.5,53.8c-0.4,1-1.1,3.2-1.8,5.4c0.3-0.2,0.6-0.4,0.9-0.6c0.7-2,1.2-3.7,1.7-4.8
			C52,53.7,51.5,53.8,51.5,53.8"/>
	</g>
	<g id="path5030">
		<path fill="#FFFFFF" d="M52.9,53.8c-0.3,0.8-0.9,2.3-1.4,4c0.4-0.4,0.8-0.7,1.1-1.1c0.4-1.2,0.7-2.2,1-3
			C53.4,53.5,52.9,53.8,52.9,53.8"/>
	</g>
	<g id="path5040">
		<path fill="#002A86" d="M54.3,53.5C54.4,53.5,54.4,53.5,54.3,53.5C54.4,53.5,54.4,53.4,54.3,53.5c1.2-2.7,1.5-3.6,1.5-3.7
			c-0.9,0.3-1.6,0.5-2.4,0.3c-0.8-0.2-1.3-0.6-1.5-0.9c-0.7,0.4-1.2,0.7-2.1,0.7s-2.1-0.5-2.5-0.8c-0.5,0.9-1.4,2.5-1.8,3.4
			C46.4,52.9,50.8,54.3,54.3,53.5L54.3,53.5z"/>
	</g>
</g>
<g>
	<path opacity="0.2" enable-background="new    " d="M10.4,74.2V25.8c0-12.1,8.2-22.7,19.8-25.8H0v99.9h30.2
		C18.5,96.8,10.4,86.2,10.4,74.2z"/>
	<path opacity="0.1" fill="#FFFFFF" enable-background="new    " d="M89.6,25.8v48.5c0,12.1-8.2,22.7-19.8,25.8H100V0H69.8
		C81.5,3.1,89.6,13.7,89.6,25.8z"/>
</g>
<path fill="#FDE012" d="M64.4,34.8l3.6-6.2l-0.2-0.3L63,27.8l-0.2-0.3l0.8-4.8l-0.3-0.3l-4.6,1.4l-0.3-0.2l-1-4.8H57l-3.9,2.9h-0.3
	l-2.6-4.1l-0.4-0.1l-2.6,4.1L47,21.7l-3.9-2.9l-0.4,0.1l-1,4.8l-0.2,0.1l-4.7-1.3l-0.3,0.3l0.8,4.9l-0.2,0.2l-4.8,0.4l-0.2,0.3
	l3.7,6.5l0.3-0.2c0,0,2.4-11.5,13.6-11.5s14.2,10.9,14.2,10.9L64.4,34.8z"/>
<path fill="#FFFFFF" d="M54.9,48.8L54.9,48.8c0.1-0.1,0.2-0.1,0.2-0.1c0.1,0,0.2,0,0.2,0l0.5,0.3l-0.2-0.4c0-0.1,0-0.1,0-0.2
	c0-0.1,0.1-0.2,0-0.3l0,0L55.5,48c0.2-0.5-0.1-0.7-0.3-0.9C55.1,47,55,47,55,46.9c-0.1-0.1-0.1-0.1-0.1-0.3c0-0.4-0.2-1.2-0.3-1.5
	c0,0,0,0,0-0.1c0-0.1-0.1-0.2-0.1-0.3c-0.1-0.3-0.3-0.5-0.3-0.8c0-0.4-0.1-1.1-0.4-1.8c0.1,0,0.2,0,0.4-0.1c0.1,0,0.1,0,0.2-0.1
	l0.5-0.1l-0.5-0.2c-0.4-0.1-1-0.6-1.4-1.1l-0.3-0.4c-0.7-0.7-1.8-1.9-2.1-2.2c-0.4-0.4-0.7-0.4-0.9-0.5c0,0-0.1,0-0.1-0.1
	c-0.1-0.1-0.2-0.2-0.4-0.3c-0.3-0.1-0.8,0-1.1,0.2c-0.5-0.3-0.9-0.5-1.6-0.3c-0.5,0.2-0.8,0.4-0.9,0.7c-0.2,0.2-0.3,0.4-0.3,0.7
	c0,0.5,0.2,0.9,0.4,1.1c0-0.1,0.1-0.3,0.1-0.4c0.1,0.1,0.1,0.1,0.2,0.2l0.2,0.3l0.1-0.3c0.1-0.4,0.1-0.7,0.3-0.8
	c0.5,0.1,1,0,1.3,0.5c0.1,0.2,0.3,0.4,0.5,0.6c-0.4-0.2-1-0.4-1.6-0.4l-0.1,0.3h0.1c-0.2,0-0.3,0-0.5,0c0.6,0.3,1.8,0.9,2.3,1.3l0,0
	c-0.2-0.1-0.4-0.1-0.2,0.3c0.1,0.4,0.9,1.4,1,1.8c0.1,0.4,0.3,0.9,0.2,1.2c-0.1,0.2-0.3,0.8-0.7,1.2l0,0h-0.2v0.2l0,0
	c-0.1,0.1-0.2,0.1-0.3,0.1c0,0.3,0.7,0.2,0.5,0.4c-0.1,0.1-0.2,0.2-0.2,0.2l-0.2,0.1c-0.2,0.1-0.3,0.2-0.5,0.3l0,0
	c-0.6,0.3-0.9,0.7-0.9,1.1c0.2-0.1,0.3-0.1,0.4-0.1v0.2c-0.3,0.3-0.8,0.7-1,0.9c0.3,0.1,0.5,0.2,0.8,0.2c0.3,0.1,0.6,0.1,1,0
	c0.1,0.2,0.3,0.2,0.5,0.1l0.1,0.1c0.1,0.1,0.2,0,0.4,0c0,0.1,0,0.3-0.1,0.4c0.1,0,0.2,0,0.3-0.1L49,49.7l0.4-0.1
	c0.3-0.1,0.6-0.2,0.8-0.4c0,0.2,0.1,0.3,0.2,0.4c0,0,0,0.1,0.1,0.1l0.2,0.3l0.2-0.2c0.1-0.1,0.3-0.2,0.5-0.4
	c0.2-0.1,0.4-0.2,0.5-0.4c0.2,0.4,0.8,0.8,1.2,0.9l0.3,0.1v-0.3c0-0.1,0-0.2,0-0.4l0,0c0.2,0.3,0.5,0.5,0.9,0.5h0.3l-0.1-0.3
	c0-0.1,0-0.2,0-0.3l0,0h0.1c0.3,0.1,0.5,0.2,0.8,0l0.2-0.1l-0.2-0.2C55,49,55,49,54.9,48.8z M48.6,40.4L48.6,40.4L48.6,40.4
	L48.6,40.4z"/>
</svg>
