<?xml version="1.0" encoding="utf-8"?>
<!-- Generator: Adobe Illustrator 23.0.0, SVG Export Plug-In . SVG Version: 6.00 Build 0)  -->
<svg version="1.0" id="Layer_1" xmlns="http://www.w3.org/2000/svg" xmlns:xlink="http://www.w3.org/1999/xlink" x="0px" y="0px"
	 width="100px" height="100px" viewBox="0 0 100 100" enable-background="new 0 0 100 100" xml:space="preserve">
<path id="path82" fill="#002A86" d="M0,100h100V0H0V100z"/>
<g>
	<path fill="#FFCC00" d="M35.1,43.7c-0.3-0.1-0.3,0.1-0.2,0.2C35,43.9,34.9,43.7,35.1,43.7z"/>
	<path fill="#FFCC00" d="M67,46.9c-0.4-0.3-0.4-0.1-0.3-0.1v0.1C66.8,46.9,66.9,46.8,67,46.9z"/>
	<path fill="#FFCC00" d="M37.3,50.1c-0.1-0.1-0.4,0-0.6,0h-0.4C36.6,50.2,36.9,50.2,37.3,50.1z"/>
	<path fill="#FFCC00" d="M36.2,50.1c-0.7-0.4-1.6-0.1-2.4-0.1c0.4,0,0.8,0,1.2,0C35.4,49.9,35.8,50,36.2,50.1z"/>
	<path fill="#FFCC00" d="M36.3,50.1C36.2,50.1,36.2,50.1,36.3,50.1C36.2,50.1,36.2,50.1,36.3,50.1L36.3,50.1z"/>
	<path fill="#FFCC00" d="M57.4,53.3L57.4,53.3C57.4,53.3,57.3,53.3,57.4,53.3z"/>
	<path fill="#FFCC00" d="M52.2,52.8L52.2,52.8C52.2,52.8,52.1,52.8,52.2,52.8c-0.1,0.1-0.1,0.1-0.1,0.2
		C52.2,52.9,52.3,52.9,52.2,52.8z"/>
	<path fill="#FFCC00" d="M52.2,52.6L52.2,52.6C52.2,52.7,52.1,52.6,52.2,52.6C52.1,52.6,52.2,52.7,52.2,52.6
		C52.2,52.7,52.2,52.7,52.2,52.6z"/>
	<path fill="#FFCC00" d="M52.2,52.6L52.2,52.6L52.2,52.6z"/>
	<path fill="#FFCC00" d="M57.4,53.2C57.4,53.2,57.4,53.1,57.4,53.2C57.4,53.1,57.4,53.1,57.4,53.2C57.4,53.1,57.4,53.2,57.4,53.2z"
		/>
	<path fill="#FFCC00" d="M53.1,51.5c0-0.2-0.2-0.2-0.2-0.4c-0.3-0.2-0.4-0.2-0.8-0.2c-0.1,0.1-0.1,0.3,0,0.3l0.1-0.1l0.1,0.1
		c0.1,0,0,0.1,0,0.1c0,0.1,0,0-0.1,0c0,0.1,0,0.1,0,0.2C52.5,51.4,52.8,51.4,53.1,51.5z"/>
	<path fill="#FFCC00" d="M52.2,51.7c0-0.1,0-0.1,0-0.2C52.2,51.5,52.2,51.6,52.2,51.7z"/>
	<path fill="#FFCC00" d="M52.2,51.9C52.2,51.9,52.1,52,52.2,51.9L52.2,51.9z"/>
	<path fill="#FFCC00" d="M52.2,51.7L52.2,51.7L52.2,51.7z"/>
	<path fill="#FFCC00" d="M52.2,52c0-0.1,0-0.1,0-0.2c0,0,0,0,0-0.1C52.2,51.8,52.2,51.9,52.2,52z"/>
	<path fill="#FFCC00" d="M52.2,52.4c0-0.1,0-0.1-0.1-0.2L52.2,52.4z"/>
	<path fill="#FFCC00" d="M52.2,52.5L52.2,52.5L52.2,52.5z"/>
	<path fill="#FFCC00" d="M31.3,55.6L31.3,55.6L31.3,55.6z"/>
	<path fill="#FFCC00" d="M41.1,63.8c0.2-0.3-0.2-0.1-0.2-0.3v0.1C41,63.6,41,63.8,41.1,63.8z"/>
</g>
<g id="g1778">
	<path id="path342" fill="#FFFFFF" d="M47.3,44.8L47.3,44.8L47.3,44.8L47.3,44.8"/>
	<path id="path368" fill="#002A86" d="M44.6,45.4C44.6,45.4,44.5,45.4,44.6,45.4L44.6,45.4L44.6,45.4L44.6,45.4"/>
	<path id="path590" fill="#002A86" d="M46.8,53.5L46.8,53.5L46.8,53.5L46.8,53.5L46.8,53.5"/>
	<path id="path600" fill="#002A86" d="M54,53.9L54,53.9c-0.2,0.1-0.2,0-0.3,0c0-0.1,0-0.1,0.1-0.1C53.8,53.8,53.9,53.8,54,53.9"/>
	<path id="path620" fill="#C8C8C8" d="M41.3,54.8c0.2-0.1,0.3,0,0.5-0.1c0.6,0,1.1,0.1,1.7,0.1c0.3,0.2,0.7,0.1,0.9,0.4
		c0.3-0.1,0.6,0.2,0.9,0.1c0.1,0,0.4-0.1,0.5-0.1c0.1,0.1,0,0.2,0.1,0.2c0,0.2,0.1,0.3,0,0.6c-0.5,0.1-0.1,0.7-0.4,0.9
		c-0.1,0.2,0,0.5-0.2,0.7c0,0.3-0.1,0.7-0.1,1c0,0,0,0-0.1,0c0,0.1,0,0.1,0.1,0.1c-0.2,0.2,0,0.4-0.1,0.6c0,0.3-0.1,0.6,0,0.9l0,0
		c0,0.4,0.1,1,0.1,1.5c0.2,0.5,0,1.1,0.2,1.6c0.1,0,0,0.1,0.1,0.1c0,0.1,0.3,0.1,0.4,0.3c0,0.1-0.1,1.4-0.2,1.5c0,0.5-0.1,0.8,0,1.3
		c-0.5-0.1-0.9-0.1-1.2-0.4h-0.1c0-0.1-0.1,0-0.2-0.1c-0.1,0-0.3,0-0.3-0.1c-0.4,0-0.7-0.5-1.1-0.5c-0.1-0.1-0.2,0-0.2-0.1
		c-0.2-0.1-1.1-0.4-1.1-0.7c-0.1,0-0.1-0.1-0.2-0.1c0-0.1,0-0.1,0-0.2c0.8,0,1.7-0.3,2.5-0.6c0.2-0.2-0.3-0.7-0.4-0.8
		c0-0.2-0.1-0.4-0.2-0.6c0.1-0.2-0.3-0.6,0.1-0.6c0-0.2,0.4-0.3,0.1-0.6c0-0.1-0.1-0.3-0.2-0.4c0.1-0.1-0.1-0.2,0.1-0.3
		c0-0.1,0.1-0.2,0.1-0.3c0.2-0.2,0-0.3,0.2-0.4c0,0,1-2.2,1-2.3c-0.4-0.3-1.2-0.1-1.6-0.5c-0.2,0-0.3,0-0.4-0.1
		c-0.2-0.1-0.9-0.2-1.1-0.2c-0.3,0-0.5,0.3-0.8,0.3c0-0.1,0-0.2,0.1-0.2c0-0.2,0.5-0.3,0.6-0.3c0-0.2,0.2-0.2,0.3-0.4
		c0-0.2-0.2-0.1-0.3-0.2l0,0c0.1,0,0.1-0.1,0.1-0.1c0.4-0.4-1.3-0.5-1.3-0.5c0-0.4-0.5,0.2-0.5-0.4c0.1-0.1,0.1-0.3,0.2-0.3
		c0.4-0.3,0.7,0.2,1.2,0.1L41.3,54.8"/>
	<path id="path638" fill="#C8C8C8" d="M53.5,60.7c-0.1,0.2-0.2,0.5-0.3,0.7c0.1,0.1,0.2,0,0.2,0.2c0.1,0,0.3,4.3,0.5,4.5
		c-0.1,0-0.1,0-0.1,0.1c0.1,0.1,0.3,0.2,0.2,0.3c0.9-0.2,1.7-0.5,2.5-0.8c0.2-0.2,0.5-0.3,0.8-0.3c0.2-0.1,0.4-0.2,0.6-0.3V65
		c-0.3,0-0.4-0.5-0.7-0.3c-0.3,0-0.6-0.3-0.8-0.5c-0.3,0-0.6,0-0.9-0.1c-0.3-0.4,0.4-0.4,0.3-0.7c0.1-0.2,0.9-0.3,0.7-0.7
		c-0.1,0-0.1-0.2-0.1-0.3l0,0c0.1,0,0.1-0.2,0.2-0.2c0.3-0.5-0.3-0.1-0.4-0.3c0-0.3,0.7-0.8,0.7-0.5c0.3,0,0.5,0.1,0.8,0.1
		c0.2,0.1,0.3,0.1,0.5,0.1c0-0.1,0-0.1,0.1-0.2c-0.1-0.2,0-0.4-0.1-0.6c0.1-0.1-0.1-0.1-0.1-0.2c-0.4,0-1,0-1.4,0.1
		c-0.1,0.2-0.4,0-0.5,0.2c-0.3-0.1-0.7-0.1-1-0.3c0-0.1,0-0.2,0-0.3c0.2-0.1,0.2-0.4,0.3-0.5c0.1,0,0.1,0,0.2,0
		c0.2,0.1,0.1,0.3,0.2,0.4c0.3,0,1.2-0.1,1.5-0.3c0.1-0.3-0.2-0.2-0.2-0.4c-0.1-0.1-0.2-0.2-0.3-0.2c-0.1-0.2-0.4-0.1-0.4-0.3
		c0.2-0.4,0.4-0.4,0.4-0.8c-0.4-0.2-1-0.4-1.5-0.3c-0.1-0.1-0.3-0.1-0.3-0.2l0,0v-0.1c0,0,0,0,0.1,0c0-0.5-1.5-0.5-1.8-0.6
		c-0.8-0.2-1.4-0.2-2-0.8c-0.2,0,0-0.2-0.1-0.3c0,0.3,0.1,0.9,0.2,1.1c-0.1,0.1-0.3,0.3-0.3,0.5c-0.3,0.6-1.7,1.7-1.3,2.1
		c0.2-0.1,0.8,0.2,1,0c0.5,0.1,0.9-0.1,1.3,0.1c0,0.1,0.1,0.1,0.1,0.2h1.3c0.2,0.1,0.6-0.1,0.6,0.2c-0.1,0.1-0.1,0.1-0.2,0.1
		C54,60.3,53.6,60.6,53.5,60.7"/>
</g>
<g>
	<path opacity="0.2" enable-background="new    " d="M10.4,74.3V25.8c0-12.1,8.2-22.7,19.8-25.8H0v100h30.2
		C18.5,96.9,10.4,86.3,10.4,74.3z"/>
	<path opacity="0.1" fill="#FFFFFF" enable-background="new    " d="M89.6,25.8v48.5c0,12.1-8.2,22.7-19.8,25.8H100V0H69.8
		C81.5,3.1,89.6,13.7,89.6,25.8z"/>
</g>
<path fill="#FFCC00" d="M50.5,31.4C40.1,31.3,31.6,39.6,31.4,50c-0.2,10.3,8.2,18.9,18.5,19c10.4,0.1,18.9-8.2,19.1-18.6
	C69.2,40.1,60.9,31.5,50.5,31.4z M49.9,68.3c-9.8-0.1-17.6-8.3-17.4-18.2s8.2-17.8,17.9-17.7c9.8,0.1,17.6,8.3,17.4,18.2
	C67.7,60.5,59.7,68.4,49.9,68.3z"/>
<path fill="#FFCC00" d="M50.3,25.6c-13.6,0-24.7,11-24.7,24.7c0,13.6,11,24.7,24.7,24.7C63.9,75,75,64,75,50.3
	C74.9,36.6,63.9,25.6,50.3,25.6z M50.3,73.1c-12.2,0-22.1-10.2-22.1-22.8s9.9-22.8,22.1-22.8s22.1,10.2,22.1,22.8
	C72.3,62.9,62.5,73.1,50.3,73.1z"/>
<g>
	<path fill="#FFCC00" d="M41.3,59.2c0.2,0,1.1,0.1,1.1,0.1l1-0.4v-0.7l-0.2-0.3c0,0-0.3-0.3-0.2-0.5s-0.8-0.1-0.8-0.1L41,57.2
		l-0.5-0.6c0,0,0.3-0.9,0.3-1h-0.1L40,55.5c0,0-0.8,0.4-0.9,0.4c-0.1,0,0.1-1.3,0.2-1.8h0.1c0.1,0.1,0.1,0.3,0.1,0.5
		c0.1,0,0.1,0.1,0.1,0.2c0.1-0.3-0.1-0.6,0-0.9c0.1-0.1,0-0.3,0-0.4s-0.7-1.2-0.8-1.3c0.1-0.1,0.1-0.2,0.1-0.4c-0.4,0-0.7,0-1.1,0
		c-0.1,0-0.2,0.2-0.4,0.1c-0.2-0.3,0.3-0.1,0.3-0.3s0.1-0.3,0-0.4L37.5,51c-0.2,0-0.3,0-0.5,0.1c-0.2,0.2,0,0.5-0.2,0.6
		c-0.3,0-0.7-0.1-1,0v0.1c-0.3,0.2-0.5,0.6-0.7,0.9c0,0.1,0,0.3-0.1,0.3c0,0.1,0,0.2,0.1,0.2s0.2,0,0.3,0c0,0.2,0,0.4,0.1,0.6l0,0
		c0,0.3-0.1,0.6,0,0.9c0.4-0.1,0.7,0,1.1-0.1c0.4-0.3,0.6,0.3,1,0.2c0.2-0.1,0.5-0.1,0.7,0.1c0.1,0,0.3,0.2,0.4,0.1v-0.2
		c0.1,0.3-0.3,1.5-0.3,1.6c0.1,0,0.2,0,0.3,0c-0.1,0.1-0.2,0.1-0.4,0.2l0,0c-0.1,0-2,0.4-2,0.4c0-0.1-0.1,0-0.2-0.1
		C36,56.8,36,56.9,36,57c0,0-0.3-0.1-0.5-0.2c-0.1,0-0.3,0-0.4,0c0,0.3-0.1,1,0,1.3c0.2,0,0.4,0,0.7,0c0,0,0,0,0,0.1
		c0.1,0.1,0.3,0.6,0.5,1.1c0,0.1,0,0.1,0,0.2c0.1,0,0.1,0.1,0.2,0.1c0.1,0.2,0.2,0.5,0.3,0.7c-0.1-0.1-0.2,0-0.3,0
		c0.2,0.3,0.4,0.5,0.5,0.7c0.1,0,0.1,0.2,0.2,0.2c0.1,0.2,0.3,0.3,0.4,0.5c0.5,0.5,1,0.9,1.4,1.2c0,0,0,0,0,0.1s0.1,0.2,0.2,0.2V63
		c0.1,0.1,0.1,0.1,0.2,0.2c0.2,0.2,1.6,0.6,1.7,0.6c0.1,0,0.4-0.4,0.6-0.8c0,0.1,0,0.1,0.1,0.2c0.1,0,0.2,0,0.2-0.1
		c0.1,0,0.2-0.1,0.2,0c0.1-0.2,0-0.3,0-0.5c-0.2,0-0.2-0.2-0.4-0.1c-0.1-0.1-1-2.8-1-2.8l0,0C40.9,59.6,41.1,59.2,41.3,59.2z"/>
</g>
<path fill="#FFCC00" d="M52.2,61.6v-0.2c0.3-0.4,0.9-0.6,1.3-0.8l0.3-0.1c-0.5-0.1-0.9-0.1-1.6-0.1L52,60.5c0,0.1-0.1,0.2,0,0.3
	c-0.1,0.1-0.3,0.2-0.4,0.3c-0.9,0.1-1.8,0-2.7,0.1c0,0.2,0,0.3,0,0.5c0.1,0.2-0.1,0.3-0.2,0.5c0,0.1,0.1,0.2-0.1,0.2
	c-0.1,0.3,0.1,0.2,0.3,0.2c-0.2,0,0-0.3,0.1-0.3c0.2-0.1,0.5-0.1,0.7,0.1h0.1c-0.1,0.1-0.2,0.1-0.2,0.2c0.5,0,1.1-0.1,1.6-0.1
	c-0.1,0-0.3-0.1-0.4-0.1c-0.2,0-0.4-0.1-0.6-0.1v-0.1c0.3-0.2,0.6,0,1-0.1c0.3,0.3,0.7,0.2,0.3,0.6c0,0,0.2,0.1,0.2,0
	c0.2,0,0.2,0.2,0.2,0.3c-0.2,0.1-0.5,0-0.7,0.2c0.6,0,1.4,0.2,0.8-0.4c0.1-0.4,0-0.6,0.1-0.8c-0.1-0.1,0.1-0.2,0-0.3
	C52.1,61.7,52.1,61.6,52.2,61.6z"/>
<path fill="#FFCC00" d="M46.4,49.8C46.4,49.9,46.5,49.9,46.4,49.8L46.4,49.8z"/>
<path fill="#FFCC00" d="M51.9,63.9c-0.1-0.1,0-0.7-0.4-0.3v0c-0.2,0-0.5,0.1-0.7,0.1c0,0,0,0,0-0.1c0,0,0,0,0,0.1
	c-0.1,0-0.1,0-0.1,0c0,0.1-0.6,0.5-0.6,0.4c0,0-0.1-0.1-0.2-0.1c0-0.1-0.1-0.1-0.1-0.1c0,0,0,0,0,0c-0.2-0.2-0.6-0.4-0.8-0.5
	c0-0.1,0-0.1,0-0.2c-0.2,0-0.8-0.4-0.9-0.3c0,0,0,0,0,0.1c-0.1,0-0.3-0.1-0.5-0.2c0-0.4,0.1-0.7,0.4-1c0.1,0,0.2-0.1,0.3-0.1
	c0.1-0.3,0.5,0,0.1-0.5c-0.1-0.2,0-1.4,0-1.7c0.1-0.1,0.1-0.3,0.2-0.3c0-0.1-0.1-0.8,0.1-0.8c0.1-0.1,0.3-0.2,0.4-0.4
	c0.1,0,0.1-0.2,0.2-0.2c0-0.1,0.4-0.6,0.3-0.7c0,0-0.1,0-0.1,0l1.1-1c0,0,0,0,0,0c-0.1,0.2-0.2,0.4-0.3,0.7
	c-0.1,0.1-0.3,0.2-0.4,0.3c-0.2,0.1-0.2,0.3-0.4,0.4c-0.1,0.4-0.5,0.5-0.7,0.8c-0.1,0-0.1,0.2-0.2,0.2c0,0.1-0.1,0.3,0.1,0.3
	c0.2,0.1,0-0.1,0.2-0.1c0.1,0,0.1,0.1,0.1,0.2c0.1-0.2,0.2-0.2,0.3-0.3c0,0,0,0.1,0.1,0.1c0.1-0.1,0.1-0.1,0.1-0.2
	c0.1,0,0.1,0,0.1,0v-0.1c-0.2,0,0-0.1,0-0.2c0.2-0.2,0.5-0.2,0.7-0.5c0.2-0.1,0.3-0.2,0.4-0.3c0.2-0.2,0.4-0.4,0.4-0.7c0,0,0,0,0,0
	c0.1-0.2,0.2-0.4,0.2-0.5c0,0,0.1-0.1,0.1-0.1c0-0.1-0.1-0.1-0.1-0.1l-0.1-0.3c0-0.2,0-0.4-0.1-0.5c0-0.3-0.1-0.6-0.1-0.9
	c0-0.1,0-0.2-0.1-0.3c0.2-0.3-0.5-0.5-0.6-0.6c-0.1,0.1-0.1,0.1-0.1,0.2l-0.3-0.1c0-0.1,0-0.1,0-0.2c0,0,0,0,0.1,0
	c0,0-0.1,0-0.1-0.1c0,0,0,0,0,0l0.1-0.7c0,0,0,0,0,0c0.2,0.1,0.1-0.2,0.2-0.2c0-0.1,0-0.2,0-0.3c-0.1,0-0.2,0-0.3,0c0,0,0,0,0,0
	l-0.1-0.1c0-0.1,0.4-0.2,0.5-0.2c0.1-0.1,0-0.2,0.1-0.3c0,0-0.1,0-0.1,0l0.1-0.4c0.1,0,0.1,0,0.2,0c0.4,0-0.1-0.7-0.4-0.7
	c0,0.1,0,0.1,0,0.2L49,50v-0.1c-0.1-0.1-0.2,0-0.2,0c-0.1,0-0.1,0.1-0.1,0.1l-0.4,0.5c-0.1-0.1-0.3-0.2-0.3,0.1
	c-0.3,0.3,0,0.9,0.1,1.2c0,0,0,0,0,0l0,0.8l0,0c0-0.1,0-0.1-0.1-0.1c0,0-0.1,0.1-0.1,0.1l-0.4,0c0,0,0-0.1,0-0.1
	c-0.1,0-0.2,0-0.3-0.1c-0.2,0-0.5,0-0.7,0.2c0,0,0,0.1,0,0.2l-0.1,0c0,0,0,0,0,0c0-0.2-0.2-0.1-0.3-0.1c0.1,0,0.1,0.1,0.1,0.2
	L46,52.9c-0.1-0.1-0.1-0.2-0.2-0.2l0-0.2c0.1-0.1,0.1-0.2,0.1-0.3c0.1-0.1,0-0.2,0.1-0.3c-0.1-0.2,0.2-0.4,0.1-0.7c0,0-0.1,0-0.1,0
	l0.3-0.9c0.1,0,0.3,0.1,0.3,0l-0.2-0.2c0-0.1,0.1-0.1,0.2-0.3c0,0,0,0-0.1-0.1l0.1-0.2c0.1-0.1,0.1-0.1,0.1-0.1V49c0,0,0,0,0,0
	l0-0.1l-0.1-0.1c0,0,0.1,0,0.1,0c0-0.2-0.1-0.1-0.2-0.1c0-0.1,0-0.1,0-0.1c0.2,0,0.1-0.3,0.3-0.3c0.2-0.1,0.1,0.1,0.2,0.2
	c0.1-0.2-0.1-0.2-0.1-0.3c-0.1,0.1-0.3,0.1-0.4,0.2c-0.3,0.1-0.4,0.3-0.6,0.4c0,0.1-0.1,0.3,0,0.5c0,0,0,0,0.1,0c0,0.1,0,0.2,0,0.3
	c-0.1,0-0.2,0.1-0.2,0.2c-0.1,0.1-0.2,0.3-0.1,0.5c-0.1,0.3-0.1,0.5-0.2,0.8c-0.2,0.1-0.1,0.4-0.3,0.5c0.1,0.1-0.1,0.1,0,0.2
	c-0.2,0.1-0.2,0.3-0.2,0.4c-0.3,0.4-0.5,1-0.4,1.5c0.1,0.1,0.1,0.3,0.2,0.4c0.1,0.1,0.1,0,0.2,0c0.1,0.1,0.2,0.2,0.2,0.3
	c0,0,0,0,0,0v0.1h0.1c0.2,0.3,0.5-0.1,0.7,0.2c0.1,0,0.2-0.1,0.3,0c0,0.5-0.4,1.4,0.4,0.9c-0.3,0.2-0.6,0.4-0.8,0.5
	c0,0.1-0.2,0.9-0.3,0.9c0,0.2,0,1.4-0.2,1.4c0,0.3,0,0.7,0,1c-0.1,0.2,0,0.5,0,0.7c0.1,0.1,0,0.6,0,0.6c-0.1,0.3-0.2,1.4,0.1,1.7
	c0,0,0.1,0.6,0.2,0.7c0,0.1,0.4,0.2,0.5,0.2c0,0.1,0.2,0.2,0.2,0.3c0.2,0.3,0.6,0.4,1,0.3l0.1,0.1c0,0.4,0.1,1.1-0.1,1.5
	c0.2,0.2,0,0.4,0.1,0.5c-0.2,0.2,0,0.4-0.1,0.7c0.1,0.1,0.2,0.1,0.3,0.1c0.1-0.1,0.1-0.2,0.1-0.3l1.1-0.5c0,0.1,0,0.2,0,0.3
	c0.1,0,0.1,0.1,0.1,0.1v-0.1c0.1,0,0.1-0.1,0.1-0.1l0.5,0.4c-0.1,0.1-0.3,0.2-0.2,0.4c0.1,0,0.2-0.1,0.2-0.2
	c0.1-0.1,0.2-0.3,0.3-0.3c0.1,0,0.2,0.1,0.2,0.2c0.1,0,0.1,0,0.1,0c0.1,0.1,0.1,0.2,0.1,0.2v-0.2c0.2,0,0.7,0.2,1,0.2
	c0,0.1,0,0.1,0,0.2c0.1,0.1,0.3,0.1,0.4,0c0-0.4,0-0.6,0-1.1c0.2,0,0.2,0.1,0.2,0.1c0.2-0.7,0-1.3,0.1-2
	C51.9,64.1,51.7,63.9,51.9,63.9z"/>
<path fill="#FFCC00" d="M66.1,44.8L66,44.4c-0.1-0.1,0-0.4-0.2-0.5c-0.1,0-0.2,0.1-0.3,0.1c-0.1-0.1,0-0.2,0-0.3
	c-0.1-0.2-0.5-0.2-0.6-0.5c0,0-0.1,0.1-0.1,0.2c-0.2,0.2-0.4,0.2-0.6,0.1c-0.1,0.1-0.2,0.1-0.3,0.2c0,0-0.1,0.1-0.1,0.1L62.9,44
	c-0.1-0.1-0.3-0.2-0.4-0.2l-0.1,0.1l-0.2-0.1c0,0,0,0,0-0.1c0-0.1-0.1-0.2-0.1-0.2c-0.2-0.1-0.3-0.2-0.5-0.2c-0.3-0.1-0.6,0-0.9,0
	s-0.5,0.1-0.7,0.3c-0.1,0.1-0.2,0.1-0.3,0c-0.4,0-0.7,0.1-1.1,0.2c-0.3,0.1-0.2,0.3-0.3,0.5l-0.1,0.1c-0.2,0-0.3,0.1-0.5,0.2
	c-0.2,0-0.2,0.2-0.2,0.4l-0.6,0.5c-0.2-0.1-0.5,0-0.5,0c0.2,0,0.3,0,0.3,0.2c-0.1,0-1.6,0.2-1.3,0c0.1-0.2,0.2-0.1,0.3-0.2
	c-1.3,0-2.7-0.2-4,0c-0.4-0.1-0.9,0-1.3-0.1c-0.2,0.2-0.5,0-0.8,0.1c0,0.1,0,0.2-0.1,0.3c-0.7,0.2-2.2,0.1-2.1,0.1
	c-0.6,0-2.6-0.2-2.6-0.2c0.1,0,0.1,0.3,0,0.3c-0.2,0-0.5,0-0.7,0c-0.2,0-0.4,0-0.5,0c-0.3-0.2,0.3-0.2,0.2-0.3
	c-0.2-0.1-1.2-0.3-1.3-0.1c-0.4,0-5.9-1-6.1-1.1c0-0.5-0.5-0.2-0.8-0.4c-0.1,0-0.2,0-0.2,0.1l-0.3-0.2c-0.1-0.1-0.2-0.2-0.2-0.3
	c-0.1,0.3-0.2,0.5-0.3,0.8c-0.2,0.1-0.3,0.8-0.3,1c-0.2,0.3-0.2,0.5-0.3,0.9l-0.1,0.5c-0.4,0.2-0.2,0.2-0.4,0.6c0,0.1,0,0.8-0.1,0.9
	c0.2,0.2-0.1,0.7,0.1,0.9c0.1,0,0.2,0,0.3,0L34,50l3.3,0.1c0,0,6.9-0.2,7.4-0.2l-0.2-0.1l0.1-0.4c0.2,0,0.3-0.1,0-0.2l0.2-1.1
	c0.2,0,0.2-0.1,0,0l0.9-0.3c0,0,0.1,0,0.1,0c0.5,0,1.1,0,1.6,0l0.9,0.3c-0.1,0-0.1,0-0.2,0v0.1c1.1-0.1,2.1,0.1,3.4-0.1
	c-0.3,0-0.5-0.1-0.8-0.1l1.6-0.1c-0.1,0-0.2,0-0.3,0.2c0.3,0.1,0.7,0,1-0.1c0,0,0.1-0.1,0.1-0.1l0.7,0.2c-0.3,0.1-0.5,0.2-0.5,0.4
	c0.1,0.1,0.3,0.1,0.4,0.1c0.3-0.2,0.8-0.1,1.1-0.1c0,0,0.1,0,0.1,0l0.5,0.4c-0.1,0-0.2,0.1-0.2,0.2c0,0,0.1,0,0.1,0.1
	c0.5-0.1,0.8,0.1,1.2-0.1c0-0.1,2.6-0.2,2.9,0.1c0.2,0,0.3-0.1,0.4-0.2l0.3,0c0,0,0,0,0.1,0c0,0,0,0,0,0l0.1,0c0.2,0,0.4,0.2,0.4,0
	c0.1,0,0.1-0.2,0.2-0.2h0l0.8-1c0,0,0.1,0,0.2,0c0.1-0.1,0.5,0,0.5-0.2c0.1-0.2,0.3-0.1,0.4-0.2v-0.1c-0.1-0.1-0.3-0.1-0.4-0.1
	c-0.1,0.1-0.1,0.2-0.2,0.3c-0.1,0-0.1,0-0.2,0l0.5-0.6c0.2,0,0.3,0.2,0.5,0.1C63,47,63,47,63,46.9c0.1,0,0.1-0.1,0.2-0.2
	c0.1,0,0.2,0,0.3,0c-0.1,0.1-0.1,0.2-0.2,0.2V47c0.1,0.2,0.5,0,0.7,0.1c0-0.2,0.3-0.1,0.5-0.2c0-0.2,0.2-0.4,0.4-0.4
	s0.2-0.2,0.4-0.2c0.1-0.1,0.3-0.1,0.2-0.2c0,0,0.1-0.2,0.1-0.4c0,0,0,0,0.1,0c0-0.4,0.5-0.2,0.6-0.5C66.2,45.1,66.2,44.9,66.1,44.8z
	"/>
<g>
	<polygon fill="none" points="44.5,44.2 44.5,44.2 44.5,44.2 	"/>
	<path fill="#C8C8C8" d="M62.9,42.4c-0.2,0.1-0.5,0-0.6,0.2l-3.7-0.9c-0.2-0.1-0.4-0.2-0.7-0.3c-0.3-0.1-0.7-0.1-0.9-0.3
		c-0.4-0.1-0.8-0.4-1.2-0.3c-0.4,0.3-0.9,0.3-1.3,0.4c0,0.1,0.2,0.1,0.3,0.2c0,0,0,0,0.1,0l-0.9,0.1c0,0,0,0,0,0
		c-0.2-0.2-0.5-0.4-0.8-0.6c-0.3-0.1-2.1-1.6-2.8-1.7c-0.1,0.1-0.3,0.1-0.4,0.2c-0.4,0.1-0.7,0.5-1.1,0.6c0,0.1,0.1,0.1,0.2,0.2
		l-0.6,0.1c-0.4-0.1-0.8-0.2-1.1-0.4c-0.2-0.1-0.4-0.1-0.6-0.2c-0.2-0.1-0.5,0.1-0.6,0.2c-0.1,0.1-0.3,0.3-0.5,0.3
		c-0.3,0.2-3.5,1.3-4,1.4c-0.6,0.2-1.2,0.4-1.8,0.6c-0.3,0.2-0.6,0.2-0.9,0.4c-0.5,0-1,0-1.6-0.1c-0.5-0.2-1-0.3-1.6-0.3
		c-0.3,0.1-0.8-0.1-0.9,0.4c0,0.3-0.2,0.5,0.1,0.6c0.2,0.1,0.1,0.3,0.2,0.4c0.4,0.1,0.7,0.2,1.1,0.2l0.4,0.4c0.2,0,0.1,0.1,0.2,0.2
		c0.1,0,0,0.2,0.2,0.2c0.2,0.2,0.6,0.6,0.7,0.6c0.7,0.1,1.2,0,1.8,0.1c0.5,0,1.1,0,1.6-0.1c0.3,0.1,0.5-0.1,0.8-0.2
		c0.1,0,0.1,0,0.1,0V45c0,0.1,0.1,0.1,0.2,0.1c0.1-0.1,0-0.2,0-0.2c0.2,0,0.4-0.1,0.5-0.1c0.1-0.1,1-0.3,1.8-0.6l0.1,0c0,0,0,0,0,0
		c0,0,0,0,0,0c0,0,0,0,0,0c0.2,0.1,0.3,0.1,0.5,0c0.1-0.1,0.1-0.1,0.2-0.2c0,0,0.1,0,0.1,0c0,0.1,0,0.2,0.1,0.4
		c0.1-0.1,0-0.2,0.1-0.2V44c0,0,0.1-0.1,0.2-0.1c0.3,0,0.7-0.1,0.9,0.1c0.1,0.1,0.1,0.3,0.1,0.5c0,0.1,0,0.1,0,0.2
		c0,0.1,0.1,0.1,0.2,0.1c0.3-0.2,0-0.6,0.2-0.9c0.2-0.2,0.4,0,0.5-0.1c0.1,0,0.3,0,0.4,0c0.1,0,5.9,0,6.4,0l0.1,0.1
		c0.1,0.3,0.1,0.5,0.1,0.8c0.1-0.2,0-0.3,0-0.5c0-0.1,0.1-0.1,0.1-0.1c0.1-0.1,0-0.1,0.1-0.2c0.5-0.1,1-0.1,1.6-0.1h0.1v0.9l0.1,0.1
		c0.2-0.1,0.1-0.3,0.1-0.4c0-0.2,0-0.4,0.1-0.6c0.5-0.1,0.9-0.1,1.4-0.1c0.1,0,0.2-0.2,0.4-0.2l2.9-0.6c0.1,0,0.2,0,0.3,0
		c0.3-0.1,0.7,0.1,1-0.1c0.5-0.1,0.8-0.3,1.3-0.4c0,0,0.1,0,0.1,0C63.7,42.4,63.3,42.3,62.9,42.4z"/>
	<path fill="#C8C8C8" d="M64.4,42.4C64.4,42.4,64.4,42.4,64.4,42.4c-0.1,0-0.2,0-0.3,0C64.2,42.4,64.3,42.4,64.4,42.4z"/>
	<path fill="#C8C8C8" d="M65,42.3c-0.2,0-0.4,0-0.6,0.1C64.7,42.4,64.9,42.5,65,42.3c0.2,0.1,0.3,0.2,0.4,0.1
		C65.4,42.3,65.1,42.3,65,42.3z"/>
</g>
<path fill="#FFCC00" d="M63.2,40.9c0.2,0,0.4,0,0.5,0c-0.1-0.1-0.2-0.2-0.3-0.3c-0.5-0.2-0.8-0.5-1.3-0.7c-0.2-0.1-0.3-0.1-0.5-0.2
	c-0.6-0.1-1-0.5-1.6-0.6c0,0,0,0,0,0c-0.1-0.1-0.1-0.1-0.2-0.2c0.1-0.1,0.1-0.2,0.1-0.4c0.1-0.1,0-0.2,0.1-0.3
	c0-0.2,0.1-0.4,0.1-0.6c0-0.1-0.3-0.2-0.4-0.3c-0.3-0.1-0.5-0.2-0.8-0.3c-0.5-0.1-1-0.4-1.5-0.5c-0.5-0.1-2.2-0.6-2.4-0.7
	c-0.3,0-0.5-0.1-0.7-0.1c0-0.1,0-0.2-0.1-0.3c0.1-0.3,0.2-0.5,0.2-0.8c0.1,0,0.1-0.2,0.1-0.2c0-0.1,0-0.3,0.1-0.3
	c-0.1-0.1,0.1-0.1,0-0.2c-0.6-0.2-1.2-0.3-1.7-0.2c-1.3-0.1-2.6-0.2-3.9-0.1c-1,0-1.9,0-2.8,0.3c-0.2,0-0.1,0.2-0.1,0.3
	c0.2,0.3,0.2,0.7,0.3,1c0.1,0,0,0.1,0.1,0.2c0.2,0,0.3,0,0.5-0.1l0.2,0.4c-0.1,0-0.2,0-0.3,0v0.1c0.1,0.1,0.2,0.1,0.2,0.2l-0.1,0.2
	c0,0,0,0-0.1,0c-0.1,0-0.3,0-0.4,0.1c-0.9,0.2-3.9,0.8-4.4,1c-0.6,0.3-1.1,0.4-1.7,0.8c-0.1,0.1-0.3,0.2-0.2,0.4
	c0.1,0.1,0,0.3,0.2,0.4c0.1,0.2,0.1,0.3,0.2,0.4l-0.1,0.1c0,0,0,0-0.1,0c-0.3,0.2-0.5,0.3-0.8,0.4c-0.6,0.1-1,0.4-1.6,0.5
	c-0.1,0-0.3,0.1-0.4,0.1c-0.1,0.1-0.4,0-0.5,0.2c0.2,0.1,0.5,0.1,0.8,0.1c0.2,0,0.3,0.1,0.5,0v0.1c0.1,0,0.1,0.1,0.2,0
	c0.1,0.2-0.1,0.2-0.2,0.4s-0.2,0.4-0.3,0.5c-0.1,0-0.1,0.1-0.1,0.2c0.1-0.1,0.3-0.1,0.4-0.2c0.4-0.3,0.9-0.3,1.3-0.5
	c0.1-0.1,0.3-0.1,0.5-0.2c0.5-0.1,1-0.3,1.5-0.5c0.2,0,0.4-0.1,0.6-0.2c0-0.1-0.1-0.1-0.2-0.1c-0.1,0-0.2-0.1-0.3-0.1
	c0.1-0.1,0.2-0.2,0.4-0.2c0.2,0.1,0.4,0.1,0.5,0c0-0.2-0.2-0.2-0.4-0.4c0,0-0.1,0-0.1,0c-0.1-0.1-0.1-0.1-0.2-0.2
	c0.1,0,0.2-0.1,0.3-0.2c0.5-0.2,3.3-0.8,4.2-1.1c0.5-0.3,1.2-0.4,1.6-0.8c0-0.2-0.1-0.2-0.2-0.3l0.1-0.2c0,0,0,0,0,0
	c0.2,0,0.1-0.1,0.1-0.2c-0.1,0,0-0.2-0.1-0.2c0-0.2-0.2-0.3-0.2-0.5c0,0-0.1,0-0.1,0l0-0.6c0.5-0.1,2.8-0.2,3.4-0.1
	c0.6,0,1.2,0.1,1.8,0.2c-0.1,0.1-0.1,0.3-0.2,0.5c0,0-0.1,0-0.1,0.1c0,0,0.1,0.1,0,0.1c-0.1,0.1-0.1,0.3-0.2,0.4
	c-0.1,0.1-0.1,0.3-0.1,0.5l0.1-0.1c0,0,0,0,0.1,0.1c0,0,0,0,0,0c-0.1,0.1,0,0.2,0.1,0.3c0.2,0,0.1,0.2,0.3,0.2
	c0.7,0.3,4.2,1.2,4.7,1.3c0.2,0.1,0.3,0.1,0.5,0.2c0,0,0,0,0,0c-0.1,0.1-0.1,0.2-0.2,0.3c-0.1,0-0.1,0-0.2,0
	c-0.1,0.1-0.1,0.2-0.2,0.2c0,0.1,0,0.2,0,0.3c0.1,0,0.2,0.1,0.3,0c0,0,0.1,0,0.1,0c0.1,0.1,0.3,0.2,0.5,0.3c-0.1,0-0.1,0-0.2,0
	c0.2,0.1,0.5,0.2,0.7,0.3c0.3,0,0.4,0.2,0.6,0.2c0.1,0,0.2,0.1,0.3,0.1c0.2,0.1,0.3,0.1,0.4,0.2c0.2,0,0.4,0.1,0.6,0.2
	c0.3,0.1,0.6,0.2,0.9,0.4c0.1,0.1,0.2,0.1,0.4,0.2c0.1,0,0.3,0.1,0.4,0.2c0.1,0.1,0.2,0.1,0.3,0.2c-0.1-0.1-0.1-0.2-0.2-0.3
	c0-0.1-0.2-0.1-0.2-0.3c-0.1,0-0.1-0.2-0.2-0.2c-0.1,0-0.1-0.1-0.1-0.2C62.5,40.8,62.8,40.9,63.2,40.9z"/>
<g>
	<path fill="#FFCC00" d="M66.6,52.1c0,0.1,0.2,0.1,0.2,0.3c0.1,0.1,0.1,0,0.2-0.1c0-0.3,0.2-0.6,0-0.8c-0.3-0.1,0-0.3-0.1-0.4
		c0-0.1-0.1-0.2-0.2-0.2l0,0l-0.1,0c-0.3-0.1-0.7-0.1-0.7,0l0.3-1.7c0,0.1,0,0.2,0.2,0.3c0.1,0,0.2-0.1,0.3,0
		c-0.1,0.1-0.1,0.3-0.1,0.4c0.1,0,0-0.1,0.1-0.1c0.2-0.1,0.1,0.2,0.3,0.3c0.1-0.8,0-1.5,0-2.3h-0.1c0-0.3-0.1-0.5-0.1-0.8
		c-0.1,0-0.1,0-0.2,0c-0.2,0.1,0.1,0.4-0.2,0.4c-0.2,0.3-0.2-0.1-0.4-0.1c-0.2,0.2-0.7-0.2-0.7,0.3c-0.3,0-0.3,0.2-0.3,0.4
		c0,0,0-0.1-0.1-0.1v0.1c0,0,0,0,0,0c0,0-0.1,0.1-0.1,0.1c0,0-1-0.3-1.1-0.3c0,0.1,0,0.2,0.1,0.2c0,0.5-0.2,0.1-0.4,0.3
		c0,0.3-0.2,0-0.3,0.1v0.2c0,0,0,0,0.1,0v0.1c-0.1,0.3-0.3-0.1-0.4-0.1v0.1c-0.1,0.1-0.1,0.2,0,0.3c-0.1,0.1-0.1,0.2-0.2,0.4
		c-0.2-0.1-0.2-0.2-0.2-0.3c-0.3,0-0.4,0.3-0.5,0.4c0,0-0.2-0.2-0.3-0.1c-0.1,0.1,0.1,0.5-0.1,0.5c0,0.3,0.3,0.3,0.5,0.4
		c0,0,0,0,0,0c-0.1,0.1-0.1,0.1-0.2,0.2c-0.1,0-0.1-0.1-0.3-0.2c-0.2,0.1-0.9-0.2-0.9,0.2c0-0.1,0.5,0.2,0.8,0.3
		c-0.1,0.1-0.2,0.1-0.2,0.1c0,0-0.1,0-0.1,0c-0.7-0.4-3.9-0.3-4.5-0.3c-0.5,0-1.4-0.2-1.9,0.1c-0.1,0-0.3,0.1-0.2,0.2
		c-0.1,0,0,0.1-0.1,0.2c0,0.1,0,0.2,0,0.4c0,0-0.1,0-0.2,0v-0.4c-0.1-0.1-0.2-0.1-0.4-0.1c0,0.2,0,0.3,0,0.5
		c-0.5-0.1-1.1-0.1-1.1-0.1l-0.3,0.6L52.1,53c0,0,0,0,0,0c0,0-0.1,0.1,0,0.1l0.1,0.1c0,0.1,0.1,0.1,0.1,0.2c0.2,0.1,0,0.3,0.2,0.4
		c0.2,0,0.5,0,0.7,0.1l0.6,0.2c0.1,0,0.1,0.1,0.2,0.1l3.3,0.2c0,0,0,0,0,0c0.3,0.1,0.7,0.1,0.6-0.1c0-0.1,0-0.2,0.1-0.2
		c0-0.3,0.1-0.2-0.1-0.3l0-1.1c0,0,0.1,0,0.1,0c0,0-0.1,0-0.1,0l0-0.6l1.3,0.1c0,0-0.1,0-0.1,0.1c-0.1,0-0.2-0.1-0.4-0.1
		c0,0.1,0,0.1,0.1,0.1c0.2,0.1,1.6,0.2,1.6,0.2c0.1,0,0.4,0.1,0.5-0.1c0.3-0.3,0.8-0.2,1.2-0.2l0.1,0.3c-0.1,0-0.2,0-0.3,0
		c0.1,0.1,0.1,0.2,0.2,0.2c0,0.1,0.1,0.1,0.2,0.2l0,0.1l0.5,1.6l-1.3,0.3c0-0.1,0.2-0.1,0.1-0.2c0-0.2-0.9-0.1-1-0.4
		c-0.2,0.1-0.4-0.1-0.6,0c0,0.1-0.1,0.1-0.1,0.3h0.2c0.1,0.1-0.2,0.1-0.2,0.2c-0.1,0.2-0.2,0.3-0.4,0.3c0-0.1,0-0.1,0-0.1
		c-0.1-0.1-0.2,0.1-0.4,0c-0.1-0.1-0.1,0-0.2,0.1c-0.3-0.1-1.3,0.4-1.4,0.3c0-0.1-0.1-0.1-0.2-0.1c-0.1,0-0.2,0-0.2,0.1
		c0.1,0.4-0.4,0.3-0.6,0.5c0,0-0.2,0-0.2,0.1c0.1,0.2,0.3,0,0.5,0.1c-0.1,0.2-0.3,0.2-0.5,0.3v0.1c-0.1,0.1-0.3,0.1-0.4,0.2
		c0,0.1,0.1,0.1,0.1,0.2c0,0.1-0.1,0.1-0.1,0.1c-0.1,0.1-0.1,0.3-0.2,0.3c0.1,0.2-0.3,0.3-0.1,0.5c0.1,0,0.1-0.1,0.2-0.1
		c0-0.1,0.2,0,0.2-0.2c0.1-0.1,0.3-0.1,0.5-0.1c0,0,0,0,0,0c-0.1,0-0.2,0-0.3,0.1c0.1,0,0.2,0,0.3-0.1c0.1,0.2,0.3,0.4,0.4,0.6
		c-0.1,0.1-0.1,0.3-0.3,0.4c0,0.2,0.1,0.3,0.1,0.4c0.2,0,0.4,0.1,0.5,0.2c0,0.1,0.1,0.2,0.1,0.3l0.1,0.1c-0.1,0,0,0.1,0,0.1
		c-0.1,0.1,0,0.3,0,0.4c-0.1,0.3-0.4-0.2-0.6,0.1c-0.2,0.4-0.7,0.2-1,0.3c0-0.1-0.2-0.1-0.2-0.2c-0.1-0.1-0.1-0.1-0.2-0.1
		c-0.1,0.1-0.1,0.2,0,0.3c0.1,0.1,0.3,0.1,0.5,0.1c0.3,0.2,0.7-0.1,1-0.1c0.1-0.1,0.2-0.1,0.4-0.1c0.2,0.1,0.4,0,0.5-0.1l0.3,0.1
		v0.4c0.1,0,0,0.2,0.1,0.2c0,0.3,0.3,1,0.3,1.2c-0.1,0-0.2,0.1-0.3,0.2c-0.1,0-0.2,0-0.3-0.1c-0.1-0.1-0.2,0-0.3,0
		c-0.1,0.1-0.3,0.2-0.4,0.3l-0.1,0.1c-0.1,0.2,0.1,0.6,0,0.8c0,0.1,0.2,0.1,0.1,0.2c0,0-0.1,0.2-0.2,0.1c-0.3-0.1-0.6,0.1-0.8,0.3
		c0,0,0,0.1,0.1,0.1c0.1,0.3,0.4,0.1,0.6,0.2c0.1,0.1,0.1,0.2,0.2,0.2c0.2,0.1,0.3,0.1,0.5,0.1c0,0,0,0,0.1,0c0,0.1,0.3,0,0.3,0.2
		c0.1,0.1,0.2,0.3,0.3,0.2c0,0,0.1-0.1,0.2,0c0,0.1,0.1,0,0.2,0c0,0,0-0.1,0-0.1c0.1,0,0.2-0.1,0.3-0.1c0,0,0,0,0,0
		c0.2,0.1,0.3,0,0.4-0.1c0.1,0,0-0.2,0-0.2c0.2-0.2,2-1.6,2.2-1.9c0.1,0,0.1-0.1,0.2-0.1c0.1-0.2,0.2-0.2,0.4-0.3
		c-0.2,0-0.4-0.1-0.6-0.2c-0.2-0.2-0.6,0-0.8-0.1l0.1-0.3c0.1,0,0.2-0.1,0.3-0.1c0.1-0.3,0.1-0.7,0-1l0.1-0.3l0,0c0,0,0.1,0,0.1,0.1
		c0,0,0.1,0,0.1,0l0.1,0c0,0.1,0.2,0.1,0,0.2v0.1c0.1,0,0.1,0.1,0.2,0.1c0.1-0.1,0.4,0,0.6,0c0.3-0.1,0.6-0.1,0.9-0.1
		c0.1,0,0.1-0.2,0.3-0.2c0.1-0.3,1-1.7,1-1.9c0.1-0.1,0.1-0.2,0.2-0.3c0-0.1-0.1-0.1-0.2-0.1c-0.3-0.3,0.4-0.2,0.2-0.5
		c-0.3-0.1-0.4,0-0.5,0.1l-0.3-0.1c0-0.2,0-0.3,0-0.5l0.6-0.7c0.1,0,0.3,0,0.4,0c0.1-0.1,0.1-0.2,0-0.3c-0.1,0-0.1,0-0.1,0l0.1-0.1
		c0.2,0,0.4,0,0.5,0c0,0.1,0.1,0.2,0.1,0.3c0,0,0,0,0,0v0.5l0.1,0.1c0.2,0,0-0.2,0.2-0.3c0-0.5,0.4-0.9,0.4-1.4
		c0.1,0,0.2-0.2,0.2-0.3c0-0.2,0.2-0.4,0-0.5c-0.3,0.1-0.4-0.2-0.6-0.3l0.1-0.8c0.1,0,0.2-0.1,0.2-0.1c0.2,0,0.1,0.3,0.3,0.2
		c0.2,0,0.1-0.4,0-0.5c-0.1,0.1-0.3-0.1-0.4,0c0,0.1-0.1,0.1-0.1,0.2l0.1-0.8C66.5,52,66.5,52,66.6,52.1z"/>
	<path fill="#FFCC00" d="M60.8,54.1C60.7,53.9,60.7,54.1,60.8,54.1L60.8,54.1z"/>
</g>
</svg>
