<?xml version="1.0" encoding="utf-8"?>
<!-- Generator: Adobe Illustrator 23.0.0, SVG Export Plug-In . SVG Version: 6.00 Build 0)  -->
<svg version="1.0"
	 id="svg166" inkscape:version="0.91 r13725" sodipodi:docname="Flag_of_North_Carolina.svg" xmlns:cc="http://creativecommons.org/ns#" xmlns:dc="http://purl.org/dc/elements/1.1/" xmlns:inkscape="http://www.inkscape.org/namespaces/inkscape" xmlns:rdf="http://www.w3.org/1999/02/22-rdf-syntax-ns#" xmlns:sodipodi="http://sodipodi.sourceforge.net/DTD/sodipodi-0.dtd" xmlns:svg="http://www.w3.org/2000/svg"
	 xmlns="http://www.w3.org/2000/svg" xmlns:xlink="http://www.w3.org/1999/xlink" x="0px" y="0px" viewBox="0 0 100 100"
	 enable-background="new 0 0 100 100" xml:space="preserve">
<sodipodi:namedview  bordercolor="#666666" borderopacity="1" gridtolerance="10" guidetolerance="10" id="namedview56" inkscape:current-layer="svg166" inkscape:cx="278.25906" inkscape:cy="179.2277" inkscape:pageopacity="0" inkscape:pageshadow="2" inkscape:window-height="1018" inkscape:window-maximized="1" inkscape:window-width="1920" inkscape:window-x="-8" inkscape:window-y="-8" inkscape:zoom="1.044" objecttolerance="10" pagecolor="#ffffff" showgrid="false">
	</sodipodi:namedview>
<g id="rect172">
	<rect fill-rule="evenodd" clip-rule="evenodd" fill="#BF0A30" width="100" height="50"/>
</g>
<g id="rect603">
	<rect y="50" fill-rule="evenodd" clip-rule="evenodd" fill="#FFFFFF" width="100" height="50"/>
</g>
<g id="rect170">
	<rect fill-rule="evenodd" clip-rule="evenodd" fill="#002868" width="50" height="100"/>
</g>
<g id="path607">
	<path fill-rule="evenodd" clip-rule="evenodd" fill="#FFCA00" d="M7.5,23.5c-3.1,1.7-3.7,2.5-5.4,3.8l3.8,0.1c0,0.4-0.9,4.8-1,5.1
		c2.9-1.9,4.2-2.8,8.1-3.9c1.6-0.4-0.1-2-0.3-2.4c-1.1,0.5-1.9,1-2.7,1.7"/>
	<path fill="#002868" d="M4.8,32.7l0.1-0.3c0.1-0.3,0.8-4.2,0.9-4.9l-4-0.1L2,27.2c0.4-0.3,0.7-0.6,1.1-0.9c1-0.9,2-1.6,4.4-3
		l0.1,0.2c-2.4,1.3-3.3,2.1-4.3,2.9c-0.3,0.2-0.5,0.4-0.8,0.7L6,27.3v0.1c0,0.3-0.7,3.8-0.9,4.8c2.8-1.9,4.2-2.7,7.9-3.7
		c0.3-0.1,0.5-0.2,0.6-0.4c0.1-0.4-0.3-1-0.6-1.5c-0.1-0.1-0.2-0.3-0.2-0.3c-0.9,0.4-1.7,1-2.5,1.7L10,27.8c0.9-0.8,1.7-1.3,2.7-1.8
		h0.1v0.1c0,0.1,0.1,0.2,0.3,0.4c0.3,0.5,0.8,1.1,0.6,1.6c-0.1,0.2-0.3,0.4-0.7,0.5c-3.8,1.1-5.2,1.9-8.1,3.9L4.8,32.7z"/>
</g>
<g id="path628">
	<path fill-rule="evenodd" clip-rule="evenodd" fill="#FFCA00" d="M10.1,27.8c5.8-5.3,25.1-5.2,30.5,0.2c0.2-0.1,3.6-5.9,3.5-5.9
		C33.6,14.7,14.7,16,6.7,21.8l0.1,0.3L10.1,27.8z"/>
	<path fill="#002868" d="M40.6,28.1L40.6,28.1c-2.5-2.5-8.3-4.1-15-4.1c-6.8,0-12.7,1.5-15.3,3.9L10.1,28l-3.4-5.8l-0.1-0.4h0.1
		c8.1-6,27-7,37.4,0.3l0,0v0.1c0,0.1,0.1,0.1-1.7,3C40.8,28,40.7,28.1,40.6,28.1L40.6,28.1z M25.3,23.8c0.1,0,0.2,0,0.3,0
		c6.8,0,12.5,1.6,15.1,4.1c0.5-0.6,3.1-5.1,3.4-5.7C33.6,15,15,16,6.9,21.9L7,22.2l3.2,5.5C12.9,25.3,18.6,23.8,25.3,23.8z"/>
</g>
<g id="path613">
	<path fill="#002868" d="M11.2,25.8c-0.1,0-0.2-0.1-0.3-0.2s-1-2-1.7-3.2c-0.1-0.1,0-0.3,0.1-0.4s0.3-0.1,0.4,0l2.1,1.8l-0.5-2.6
		c0-0.1,0.1-0.3,0.2-0.3c0.1-0.1,0.3,0,0.4,0.1l1.8,3c0.1,0.1,0,0.3-0.1,0.4s-0.3,0-0.4-0.1l-0.9-1.5l0.3,1.8c0,0.1,0,0.3-0.2,0.3
		c-0.1,0.1-0.3,0-0.4,0l-1.4-1.3c0.9,1.6,0.9,1.7,0.9,1.7c0.1,0.2,0,0.3-0.2,0.4C11.2,25.8,11.2,25.8,11.2,25.8z"/>
</g>
<g id="path618">
	<path fill="#002868" d="M21.2,22.8c-0.2,0-0.3-0.1-0.3-0.3c0-0.5,0.3-1,0.6-1.3l0,0l0.7-0.6c0.1-0.1,0.1-0.3,0.1-0.5
		s-0.1-0.3-0.2-0.4c-0.2-0.1-0.5-0.1-0.6,0.1c-0.1,0.1-0.2,0.3-0.2,0.5s-0.1,0.3-0.3,0.3c-0.2,0-0.3-0.1-0.3-0.3
		c0-0.6,0.3-0.9,0.5-1c0.3-0.2,0.8-0.3,1.2-0.1h0.1c0.2,0.2,0.4,0.5,0.4,0.9s-0.1,0.8-0.3,1l0,0l-0.7,0.6c-0.1,0.2-0.3,0.4-0.4,0.5
		h1.3c0.2,0,0.3,0.1,0.3,0.3c0,0.2-0.1,0.3-0.3,0.3H21.2L21.2,22.8z"/>
</g>
<g id="path621">
	<path fill="#002868" d="M24.4,22.7c-0.2,0-0.4,0-0.5-0.1c0,0,0,0-0.1,0c-0.3-0.3-0.4-0.5-0.5-0.8c-0.1-0.4-0.1-1.4-0.1-1.9l0,0
		c0.1-0.4,0.2-0.7,0.6-0.9c0.3-0.1,0.7-0.1,1,0c0,0,0,0,0.1,0c0.3,0.2,0.4,0.5,0.5,0.8l0,0c0.1,0.4,0.1,1.6,0,2s-0.3,0.7-0.6,0.8
		C24.7,22.7,24.6,22.7,24.4,22.7z M24.2,22c0.2,0.1,0.3,0,0.3,0c0.1-0.1,0.2-0.2,0.3-0.5c0.1-0.3,0.1-1.3,0-1.7
		c-0.1-0.2-0.1-0.3-0.2-0.4c-0.2-0.1-0.3,0-0.4,0l0,0c-0.2,0.1-0.2,0.2-0.3,0.5c0,0.4,0,1.3,0.1,1.6C24,21.8,24.1,21.9,24.2,22z
		 M24.1,19.1L24.1,19.1L24.1,19.1z"/>
</g>
<g id="path629">
	<path fill="#002868" d="M32.4,23.1L32.4,23.1c-0.2,0-0.3-0.2-0.3-0.4l0.4-2.5c-0.1,0-0.2,0.1-0.3,0.1c-0.2,0.1-0.3,0-0.4-0.2
		s0-0.3,0.2-0.4c0.3-0.1,0.5-0.3,0.7-0.5c0.1-0.1,0.2-0.1,0.4-0.1c0.1,0.1,0.2,0.2,0.2,0.3l-0.5,3.3C32.7,23,32.5,23.1,32.4,23.1z"
		/>
</g>
<g id="path630">
	<path fill="#002868" d="M34.2,23.5L34.2,23.5c-0.3-0.1-0.3-0.3-0.2-0.4c0.4-0.9,1-1.7,1.6-2.5c-1.1-0.3-1.2-0.3-1.2-0.3
		c-0.2-0.1-0.2-0.2-0.2-0.4c0.1-0.2,0.2-0.2,0.4-0.2c0.1,0,1,0.3,1.6,0.5c0.1,0,0.2,0.1,0.2,0.2s0,0.2-0.1,0.3
		c-0.8,1-1.4,1.8-1.8,2.8C34.4,23.4,34.3,23.5,34.2,23.5z"/>
</g>
<g id="path631">
	<path fill="#002868" d="M36.6,24.2c-0.1,0-0.1,0-0.2-0.1c-0.1-0.1-0.2-0.3-0.1-0.4c0.6-0.9,1.3-1.6,2-2.2l-1-0.5
		c-0.2-0.1-0.2-0.3-0.1-0.4c0.1-0.2,0.3-0.2,0.4-0.1l1.5,0.8c0.1,0,0.2,0.1,0.2,0.3c0,0.1,0,0.2-0.1,0.3c-0.8,0.6-1.6,1.4-2.2,2.4
		C36.8,24.2,36.7,24.2,36.6,24.2z"/>
</g>
<g id="path632">
	<path fill="#002868" d="M39.7,25.6c-0.8,0-1.2-0.4-1.3-1.3c0-0.2,0.1-0.3,0.3-0.3s0.3,0.1,0.3,0.3c0.1,0.6,0.3,0.7,0.7,0.7
		c0.2,0,0.3-0.1,0.5-0.2c0.2-0.2,0.2-0.4,0.2-0.7c-0.1-0.3-0.3-0.5-0.9-0.4c-0.1,0-0.3,0-0.3-0.1c-0.1-0.1-0.1-0.2,0-0.4l0.9-1.2
		c0.1-0.1,0.3-0.2,0.4-0.1l1,0.6c0.1,0.1,0.2,0.3,0.1,0.4c-0.1,0.1-0.3,0.2-0.4,0.1l-0.8-0.4L40,23c0.4,0.1,0.8,0.4,0.9,0.9
		c0,0,0,0,0,0.1c0.1,0.5,0,0.9-0.3,1.3C40.4,25.5,40.1,25.6,39.7,25.6z"/>
</g>
<g id="path614">
	<path fill="#002868" d="M14.2,24.1L14.2,24.1c-0.2,0-0.3-0.1-0.3-0.3c0.1-2.5,0.1-3.3,0.1-3.6l0,0v-0.1c0,0,0,0,0.1-0.1
		c0,0,0.1-0.1,0.2-0.1c0.3-0.1,0.3-0.1,2.4,3.1c0.1,0.1,0.1,0.3-0.1,0.4c-0.1,0.1-0.3,0.1-0.4-0.1c-0.5-0.7-1.1-1.7-1.5-2.3
		c0,0.8-0.1,1.9-0.1,2.7C14.5,24,14.4,24.1,14.2,24.1z"/>
</g>
<g id="path615">
	<path fill="#002868" d="M14.3,22.8c-0.1,0-0.3-0.1-0.3-0.2c0-0.2,0-0.3,0.2-0.4l1.4-0.4c0.2,0,0.3,0,0.4,0.2c0,0.2,0,0.3-0.2,0.4
		L14.3,22.8L14.3,22.8z"/>
</g>
<g id="path678">
	<path fill-rule="evenodd" clip-rule="evenodd" fill="#FFCA00" d="M6.3,57.6h2L8.2,49l3.8,8.7h2.1V45h-2v8l-3.6-8H6.3V57.6z"/>
</g>
<g id="path680">
	<path fill-rule="evenodd" clip-rule="evenodd" fill="#FFCA00" d="M42.7,49h2.1v-1.1c-0.1-0.7-0.3-1.6-1-2.3c-0.5-0.5-1-0.8-1.8-1
		c-0.6-0.2-2.1-0.2-2.9,0.3c-0.9,0.5-1.7,1.4-2.2,2.9c-0.7,2.5-0.4,5.5,0.1,7s1.3,2.4,2.4,2.9c0.7,0.2,1.8,0.4,2.9,0.1
		c1.2-0.4,1.7-1.2,2.2-2c0.3-0.6,0.6-1.6,0.6-2.8h-2.2c0,0.4-0.1,0.9-0.2,1.4c-0.3,0.6-0.6,1-1.6,1c-0.6,0-1.1-0.3-1.4-0.7
		c-0.5-0.5-0.6-1.5-0.6-1.8c-0.1-1.3-0.2-2.7,0.2-4.1c0.1-0.6,0.4-1.1,0.8-1.3c0.6-0.3,1.3-0.3,1.6-0.2c0.5,0.1,0.9,0.5,1.1,1
		C42.7,48.5,42.7,48.7,42.7,49z"/>
</g>
<g id="polygon693">
	<path fill-rule="evenodd" clip-rule="evenodd" fill="#FFFFFF" d="M30.4,58l-4.8-3.7L20.8,58l1.9-5.8l-5-3.6l6,0.1l1.8-5.9l1.7,5.8
		h6.1l-4.9,3.5L30.4,58z"/>
</g>
<g id="path668">
	<path d="M10.2,27.9"/>
</g>
<g id="path679">
	<path fill="#002868" d="M13.6,28.4l-0.2-0.1l0.1-0.1c0,0-0.1-0.2-0.8-0.2c-0.2,0-0.4,0-0.6,0.1c-0.3,0-0.5,0-0.7,0.1
		c-0.6,0.1-1,0.2-1.3-0.1l0.1-0.1c0.2,0.2,0.6,0.1,1.1,0c0.3,0,0.5-0.1,0.8-0.1c0.2,0,0.4,0,0.6-0.1c0.6,0,0.9,0.2,1,0.3
		C13.8,28.1,13.7,28.2,13.6,28.4z"/>
</g>
<g id="path685">
	<path fill-rule="evenodd" clip-rule="evenodd" fill="#FFCA00" d="M43.3,23.7c3.1,1.7,3.7,2.5,5.4,3.8l-3.8,0.1c0,0.4,0.9,4.8,1,5.1
		c-2.9-1.9-4.2-2.8-8.1-3.9c-1.6-0.4,0.2-2,0.3-2.5c1.1,0.5,2,1,2.6,1.8"/>
	<path fill="#002868" d="M46,32.8l-0.2-0.1c-2.9-1.9-4.3-2.8-8.1-3.9c-0.4-0.1-0.6-0.3-0.7-0.5c-0.2-0.5,0.3-1.2,0.7-1.7
		c0.1-0.2,0.2-0.3,0.3-0.4v-0.1h0.1c1.2,0.5,2,1.1,2.6,1.8L40.6,28c-0.6-0.6-1.4-1.2-2.5-1.7c-0.1,0.1-0.1,0.2-0.3,0.4
		c-0.3,0.4-0.8,1.1-0.7,1.5c0.1,0.2,0.2,0.3,0.5,0.4c3.8,1.1,5.1,1.9,7.9,3.7c-0.2-1-0.9-4.5-0.9-4.8v-0.1l3.6-0.1
		c-0.3-0.2-0.6-0.5-0.8-0.7c-1-0.9-1.9-1.6-4.3-2.9l0.1-0.2c2.4,1.3,3.3,2.1,4.4,3c0.3,0.3,0.7,0.5,1.1,0.9l0.2,0.2l-4,0.1
		c0.1,0.8,0.9,4.6,0.9,4.9L46,32.8z"/>
</g>
<g id="path689">
	<path d="M40.7,28"/>
</g>
<g id="path690">
	<path fill="#002868" d="M37.2,28.6c-0.1-0.1-0.1-0.2-0.1-0.3c0.1-0.2,0.5-0.4,1-0.4S39,28,39.4,28h0.1c0.1,0,0.1,0,0.2,0
		c0.3,0,0.6,0.1,0.9-0.1l0.1,0.2c-0.3,0.1-0.6,0.1-1,0.1c-0.1,0-0.1,0-0.2,0h-0.1C39,28.1,38.5,28,38.1,28c-0.5,0-0.7,0.1-0.8,0.3
		v0.1L37.2,28.6z"/>
</g>
<g id="path622">
	<path fill="#002868" d="M27.1,20.6L27.1,20.6c0,0-0.6,0-1.2,0c-0.1,0-0.2-0.1-0.2-0.2s0.1-0.2,0.2-0.2c0.6,0,1.2,0,1.2,0
		c0.1,0,0.2,0.1,0.2,0.2C27.3,20.5,27.2,20.6,27.1,20.6z"/>
</g>
<g id="path624">
	<path fill="#002868" d="M27.7,22.7L27.7,22.7c-0.1,0-0.2-0.1-0.2-0.2l0.1-2.9c0-0.1,0.1-0.2,0.2-0.2s0.2,0.1,0.2,0.2l-0.1,2.9
		C27.9,22.6,27.8,22.7,27.7,22.7z"/>
</g>
<g id="path627">
	<path fill="#002868" d="M29,22.8L29,22.8c-0.1,0-0.2-0.1-0.2-0.2c0.1-1.1,0.1-1.6-0.1-1.8c-0.1-0.1-0.3-0.1-0.8-0.1l0,0
		c-0.1,0-0.2-0.1-0.2-0.2s0.1-0.2,0.2-0.2c0.4,0,0.8,0,1.1,0.3c0.3,0.3,0.3,0.8,0.2,2.1C29.2,22.7,29.1,22.8,29,22.8z"/>
</g>
<g id="path661">
	<path fill="#002868" d="M26.8,22.7c-0.2,0-0.4,0-0.6-0.2S26,22.1,26,21.9v-2.4c0-0.1,0.1-0.2,0.2-0.2s0.2,0.1,0.2,0.2v2.4
		c0,0.2,0,0.3,0.1,0.3c0,0,0.1,0,0.3,0c0.1,0,0.2,0.1,0.2,0.2C27.1,22.6,27,22.7,26.8,22.7z"/>
</g>
<g id="path616">
	<path fill="#002868" d="M17.9,23.2c-0.2,0-0.3-0.1-0.3-0.3l-0.3-1.5L15.9,20c-0.1-0.1-0.1-0.3,0-0.4s0.3-0.1,0.4,0l1.5,1.5
		c0,0,0.1,0.1,0.1,0.2l0.3,1.6C18.2,23,18.1,23.2,17.9,23.2L17.9,23.2z"/>
</g>
<g id="path617">
	<path fill="#002868" d="M17.6,21.7h-0.1c-0.2-0.1-0.2-0.2-0.2-0.4l0.8-2.1c0.1-0.2,0.2-0.2,0.4-0.2c0.2,0.1,0.2,0.2,0.2,0.4
		l-0.8,2.1C17.9,21.6,17.8,21.7,17.6,21.7z"/>
</g>
<g id="path671">
	<path fill-rule="evenodd" clip-rule="evenodd" fill="#FFCA00" d="M7.6,77.5c-3.1-1.7-3.7-2.4-5.4-3.7L6,73.7c0-0.3-0.9-4.7-1-5
		c2.9,1.9,4.2,2.7,8.1,3.8c1.6,0.4-0.1,2-0.3,2.4c-1.1-0.5-1.9-1-2.7-1.7"/>
	<path fill="#002868" d="M7.6,77.6c-2.4-1.3-3.3-2-4.4-2.9c-0.3-0.3-0.7-0.5-1.1-0.8l-0.2-0.2l4-0.1c-0.1-0.8-0.9-4.6-1-4.8
		l-0.1-0.2L5,68.7c2.9,1.9,4.3,2.7,8.1,3.8c0.4,0.1,0.6,0.3,0.7,0.5c0.2,0.5-0.3,1.1-0.6,1.6c-0.1,0.2-0.2,0.3-0.3,0.4v0.1h-0.1
		c-1-0.4-1.8-1-2.7-1.7l0.1-0.2c0.8,0.7,1.6,1.2,2.5,1.7c0.1-0.1,0.1-0.2,0.2-0.3c0.3-0.4,0.8-1,0.6-1.4c-0.1-0.2-0.2-0.3-0.6-0.4
		c-3.8-1-5.1-1.8-7.9-3.7c0.2,1,0.9,4.4,0.9,4.7v0.1L2.3,74c0.3,0.2,0.6,0.5,0.8,0.7c1,0.8,1.9,1.6,4.3,2.9H7.6z"/>
</g>
<g id="path683">
	<path fill-rule="evenodd" clip-rule="evenodd" fill="#FFCA00" d="M10.3,73.2c5.8,5.2,25.1,5.1,30.5-0.2c0.2,0.1,3.6,5.8,3.5,5.7
		c-10.5,7.2-29.4,6-37.4,0.3L7,78.7L10.3,73.2z"/>
	<path fill="#002868" d="M25.3,83.9c-7.3,0-14.3-1.7-18.5-4.7H6.7l0.1-0.4l3.4-5.6l0.1,0.1C13,75.5,18.9,77,25.7,77s12.5-1.6,15-4
		l0,0h0.1c0,0,0.2,0.1,1.9,2.9s1.7,2.9,1.7,3V79h-0.1C39.2,82.4,32.1,83.9,25.3,83.9z M7,79c8.1,5.8,26.8,6.8,37.1-0.3
		c-0.3-0.6-2.9-5-3.4-5.5c-2.5,2.4-8.3,3.9-15.1,4c-6.8,0-12.6-1.4-15.4-3.8L7,78.8L7,79z"/>
</g>
<g id="path686">
	<path d="M10.2,73.3"/>
</g>
<g id="path687">
	<path fill="#002868" d="M12.9,73.4c-0.2,0-0.4,0-0.6-0.1c-0.3,0-0.5,0-0.8-0.1c-0.5-0.1-0.9-0.2-1.1,0l-0.1-0.1
		c0.2-0.2,0.7-0.2,1.3-0.1c0.2,0,0.5,0,0.7,0.1c0.2,0,0.4,0,0.6,0.1c0.7-0.1,0.8-0.2,0.8-0.2s0-0.1-0.1-0.1l0.1-0.1
		c0.1,0.1,0.1,0.2,0.1,0.3C13.8,73.2,13.5,73.3,12.9,73.4z"/>
</g>
<g id="path693">
	<path fill-rule="evenodd" clip-rule="evenodd" fill="#FFCA00" d="M43.5,77.3c3.1-1.7,3.7-2.4,5.4-3.7l-3.8-0.1c0-0.3,0.9-4.7,1-5
		c-2.9,1.9-4.2,2.7-8.1,3.8c-1.6,0.4,0.2,2,0.3,2.4c1.1-0.5,2-1,2.6-1.7"/>
	<path fill="#002868" d="M43.5,77.4l-0.1-0.2c2.4-1.3,3.3-2,4.3-2.9c0.3-0.2,0.5-0.4,0.8-0.7l-3.6-0.1v-0.1c0-0.3,0.7-3.7,0.9-4.7
		c-2.8,1.8-4.2,2.6-7.9,3.7c-0.3,0.1-0.5,0.2-0.5,0.4c-0.1,0.4,0.3,1,0.7,1.4c0.1,0.1,0.2,0.3,0.3,0.3c1.1-0.5,1.9-1,2.5-1.7
		l0.1,0.1c-0.6,0.7-1.5,1.2-2.6,1.8h-0.1v-0.1c0-0.1-0.1-0.2-0.3-0.4c-0.4-0.5-0.9-1.1-0.7-1.6c0.1-0.2,0.3-0.4,0.7-0.5
		c3.8-1.1,5.2-1.9,8.1-3.8l0.2-0.1l-0.1,0.2c-0.1,0.3-0.8,4.1-0.9,4.8l4,0.1l-0.2,0.2c-0.4,0.3-0.7,0.6-1.1,0.8
		C46.8,75.3,45.9,76.1,43.5,77.4z"/>
</g>
<g id="path694">
	<path d="M40.7,73.1"/>
</g>
<g id="path695">
	<path fill="#002868" d="M38.2,73.2c-0.5,0-0.9-0.1-1-0.4c0-0.1,0-0.2,0.1-0.3l0.1,0.1c-0.1,0.1-0.1,0.1,0,0.1
		c0,0.1,0.3,0.2,0.8,0.3c0.4,0,0.9-0.1,1.3-0.1l0,0c0.1,0,0.1,0,0.2,0c0.4,0,0.7-0.1,1,0.1l-0.1,0.2c-0.3-0.1-0.6-0.1-0.9-0.1
		c-0.1,0-0.1,0-0.2,0l0,0C39.1,73.1,38.7,73.2,38.2,73.2z"/>
</g>
<g id="path646">
	<path fill="#002868" d="M25.4,82.8c-0.2,0-0.3-0.1-0.3-0.3c0-0.6,0.4-1,0.7-1.3l0.7-0.5c0.1-0.2,0.2-0.4,0.2-0.6s-0.1-0.3-0.2-0.4
		c-0.5-0.1-0.7-0.1-0.9,0.4c0,0.2-0.2,0.3-0.4,0.2c-0.2,0-0.3-0.2-0.2-0.4c0.3-1.2,1.3-1,1.7-0.9h0.1c0.3,0.2,0.4,0.5,0.5,0.8
		c0.1,0.4-0.1,0.8-0.3,1.1l0,0l-0.7,0.5l0,0c-0.1,0.1-0.3,0.2-0.4,0.4h1.3c0.2,0,0.3,0.1,0.3,0.3c0,0.2-0.1,0.3-0.3,0.3L25.4,82.8
		L25.4,82.8z"/>
</g>
<g id="path657">
	<path fill="#002868" d="M24.1,82.8L24.1,82.8c-0.2,0-0.3-0.2-0.3-0.3l0.1-2.3c0,0-0.1,0-0.1,0.1c-0.2,0.1-0.3,0-0.4-0.1
		c-0.1-0.2,0-0.3,0.1-0.4c0.3-0.1,0.3-0.2,0.5-0.5c0.1-0.1,0.2-0.2,0.4-0.1c0.1,0,0.2,0.2,0.2,0.3l-0.1,3.1
		C24.4,82.7,24.3,82.8,24.1,82.8z"/>
</g>
<g id="path676">
	<path fill="#002868" d="M20.9,82.5L20.9,82.5l-2-0.3l0.1-0.3c0-0.2,0.5-3.2,0.6-3.4c0-0.2,0.2-0.3,0.3-0.3c0.2,0,0.3,0.1,0.3,0.3
		c0,0-0.4,2.3-0.5,3.1l1.4,0.2c0.2,0,0.3,0.2,0.3,0.4C21.2,82.4,21,82.5,20.9,82.5z"/>
</g>
<g id="path675">
	<path fill="#002868" d="M17.8,82.1C17.8,82.1,17.7,82.1,17.8,82.1c-0.2,0-0.3-0.2-0.3-0.4l0.5-3.5c0-0.2,0.2-0.3,0.4-0.3
		c0.2,0,0.3,0.2,0.3,0.4l-0.5,3.5C18.1,82,17.9,82.1,17.8,82.1z"/>
</g>
<g id="path672">
	<path fill="#002868" d="M11.8,80.3h-0.1c-0.2-0.1-0.2-0.2-0.2-0.4l1.4-3.6l0.3,0.2c0.1,0.1,0.2,0.1,0.4,0.2c0.3,0.1,0.7,0.2,1,0.5
		l0,0l0,0c0.2,0.4,0.2,0.9,0,1.3s-0.5,0.6-0.9,0.6l0,0l0,0c-0.4-0.1-0.7-0.2-1.1-0.4l0,0L12,80.1C12,80.2,11.9,80.3,11.8,80.3z
		 M12.8,78.2C12.8,78.2,12.9,78.2,12.8,78.2c0.4,0.2,0.6,0.3,0.9,0.3c0.2,0,0.3-0.1,0.4-0.3c0.1-0.2,0.1-0.5,0-0.7
		c-0.2-0.2-0.5-0.3-0.8-0.4h-0.1L12.8,78.2z"/>
</g>
<g id="path654">
	<path fill="#002868" d="M34,82.1c-0.1,0-0.3-0.1-0.3-0.3l-0.5-2.6c-0.1,0.1-0.1,0.2-0.2,0.2c-0.1,0.1-0.3,0.1-0.4,0
		c-0.1-0.1-0.1-0.3,0-0.4c0.2-0.2,0.4-0.4,0.5-0.8c0-0.1,0.2-0.2,0.3-0.2s0.3,0.1,0.3,0.3l0.7,3.5C34.3,81.9,34.2,82.1,34,82.1
		L34,82.1z"/>
</g>
<g id="path655">
	<path fill="#002868" d="M36,81.6c-0.2,0-0.3-0.1-0.3-0.3c-0.1-1.1-0.1-2.2-0.1-3.2c-1.2,0.4-1.3,0.4-1.3,0.4
		c-0.2,0-0.3-0.1-0.4-0.2c0-0.2,0.1-0.3,0.2-0.4c0.1,0,1-0.4,1.7-0.6c0.1,0,0.2,0,0.3,0c0.1,0.1,0.1,0.2,0.1,0.3
		c-0.1,1.1-0.1,2.3,0.1,3.5C36.3,81.4,36.2,81.6,36,81.6L36,81.6z"/>
</g>
<g id="path656">
	<path fill="#002868" d="M38.6,80.6c-0.1,0-0.3-0.1-0.3-0.2c-0.2-0.9-0.2-2-0.1-3.2L37,77.7c-0.2,0.1-0.3,0-0.4-0.2
		c-0.1-0.2,0-0.3,0.2-0.4l1.7-0.7c0.1,0,0.2,0,0.3,0c0.1,0.1,0.1,0.2,0.1,0.3l0,0c-0.1,1.3-0.1,2.6,0.1,3.5
		C38.9,80.4,38.8,80.6,38.6,80.6L38.6,80.6z"/>
</g>
<g id="path677">
	<path fill="#002868" d="M40.9,79.4c-0.1,0-0.3,0-0.4-0.1c-0.4-0.1-0.8-0.5-0.9-0.9c-0.3-0.5-0.4-1-0.4-1.6l0,0
		c0-0.5,0.1-0.8,0.6-1.2l0.1-0.1c0.5-0.1,1,0,1.2,0.5c0.1,0.1,0,0.3-0.1,0.4s-0.3,0-0.4-0.1c-0.1-0.2-0.2-0.3-0.5-0.2
		c-0.3,0.2-0.3,0.4-0.3,0.7c0,0.1,0,0.2,0,0.3c0.1-0.1,0.2-0.2,0.3-0.3l0,0c0.4-0.2,0.6-0.1,0.9,0l0,0c0.4,0.2,0.7,0.6,0.8,1.2l0,0
		c0,0.3-0.1,0.8-0.3,1.1l0,0C41.3,79.3,41.1,79.4,40.9,79.4z M40.1,78.2c0.1,0.3,0.4,0.5,0.5,0.5l0,0c0.2,0.1,0.3,0.1,0.4,0
		c0.1-0.1,0.2-0.4,0.2-0.6c-0.1-0.3-0.2-0.5-0.4-0.7c-0.2-0.1-0.3-0.1-0.4,0C40.3,77.4,40.1,77.6,40.1,78.2L40.1,78.2z"/>
</g>
<g id="path706">
	<path fill="#002868" d="M27.6,80.6c-0.1,0-0.2-0.1-0.2-0.2s0.1-0.2,0.2-0.2c0.6,0,1.2,0,1.2,0c0.1,0,0.2,0.1,0.2,0.2
		s-0.1,0.2-0.2,0.2C28.8,80.5,28.2,80.5,27.6,80.6L27.6,80.6z"/>
</g>
<g id="path709">
	<path fill="#002868" d="M28.6,82.6c-0.2,0-0.3,0-0.5-0.2s-0.2-0.4-0.2-0.6l-0.1-2.4c0-0.1,0.1-0.2,0.2-0.2s0.2,0.1,0.2,0.2l0.1,2.4
		c0,0.2,0.1,0.3,0.1,0.3s0.1,0,0.3,0c0.1,0,0.2,0.1,0.2,0.2s-0.1,0.2-0.2,0.2C28.7,82.6,28.6,82.6,28.6,82.6z"/>
</g>
<g id="path707">
	<path fill="#002868" d="M29.5,82.5c-0.1,0-0.2-0.1-0.2-0.2L29,79.4c0-0.1,0.1-0.2,0.2-0.2s0.2,0.1,0.2,0.2l0.3,2.9
		C29.8,82.4,29.7,82.5,29.5,82.5L29.5,82.5z"/>
</g>
<g id="path708">
	<path fill="#002868" d="M30.8,82.4c-0.1,0-0.2-0.1-0.2-0.2c-0.1-1.1-0.2-1.6-0.4-1.7c-0.1-0.1-0.3-0.1-0.8,0
		c-0.1,0-0.2-0.1-0.3-0.2c0-0.1,0.1-0.2,0.2-0.3c0.4-0.1,0.8-0.1,1.1,0.1c0.3,0.3,0.5,0.8,0.5,2C31.1,82.3,31,82.4,30.8,82.4
		C30.9,82.4,30.9,82.4,30.8,82.4z"/>
</g>
<g id="path659">
	<path fill="#002868" d="M10.8,79.8L10.8,79.8c-0.2,0-0.3-0.2-0.3-0.4c0.2-1,0.3-2.1,0.4-2.8c-0.6,0.6-1.4,1.5-2,2.1
		c-0.1,0.1-0.3,0.1-0.4,0c-0.1-0.1-0.1-0.3,0-0.4c1.8-1.9,2.4-2.5,2.6-2.7l0,0l0.1-0.1h0.1c0.1,0,0.1,0,0.2,0c0.2,0.1,0.3,0.2-0.4,4
		C11.1,79.7,11,79.8,10.8,79.8z"/>
</g>
<g id="path660">
	<path fill="#002868" d="M11,78.5h-0.1l-1.3-0.6c-0.2-0.1-0.2-0.3-0.1-0.4c0.1-0.2,0.3-0.2,0.4-0.1l1.3,0.6c0.2,0.1,0.2,0.3,0.1,0.4
		C11.3,78.4,11.1,78.5,11,78.5z"/>
</g>
<g id="path673">
	<path fill="#002868" d="M14.6,81.4c-0.2,0-0.3-0.1-0.3-0.3c0-0.1,0-0.1,0.9-3.6l0.1-0.3l0.3,0.1c0.1,0,0.3,0.1,0.4,0.1
		c0.3,0.1,0.6,0.1,0.8,0.2c0.5,0.2,0.9,0.7,0.7,1.3c-0.1,0.4-0.3,0.7-0.6,1c-0.1,0.1-0.3,0.1-0.4-0.1c-0.1-0.1-0.1-0.3,0.1-0.4
		s0.3-0.3,0.3-0.6c0.1-0.4-0.3-0.6-0.3-0.6c-0.2-0.1-0.5-0.1-0.8-0.2h-0.1c-0.4,1.3-0.8,3-0.9,3.2C14.8,81.3,14.7,81.4,14.6,81.4
		L14.6,81.4z"/>
</g>
<g id="path674">
	<path fill="#002868" d="M16.6,81.9L16.6,81.9c-0.2,0-0.3-0.2-0.3-0.4c0.1-0.6,0.2-1.2,0.2-1.4l0,0c0,0-0.1-0.1-0.2-0.2L15,79.6
		c-0.2,0-0.3-0.2-0.2-0.4c0-0.2,0.2-0.3,0.4-0.2l1.3,0.3l0,0c0.4,0.2,0.6,0.5,0.6,0.7l0,0c0.1,0.3-0.1,1.2-0.1,1.6
		C16.9,81.8,16.8,81.9,16.6,81.9z M16.5,80.2L16.5,80.2L16.5,80.2z M16.5,80.1L16.5,80.1L16.5,80.1z"/>
</g>
<g>
	<path opacity="0.2" enable-background="new    " d="M10.4,74.3V25.8c0-12.1,8.2-22.7,19.8-25.8H0v100h30.2
		C18.5,96.9,10.4,86.3,10.4,74.3z"/>
	<path opacity="0.1" fill="#FFFFFF" enable-background="new    " d="M89.6,25.8v48.5c0,12.1-8.2,22.7-19.8,25.8H100V0H69.8
		C81.5,3.1,89.6,13.7,89.6,25.8z"/>
</g>
</svg>
