<?xml version="1.0" encoding="utf-8"?>
<!-- Generator: Adobe Illustrator 23.0.0, SVG Export Plug-In . SVG Version: 6.00 Build 0)  -->
<svg version="1.0"
	 id="svg2" sodipodi:version="0.32" xmlns:cc="http://web.resource.org/cc/" xmlns:dc="http://purl.org/dc/elements/1.1/" xmlns:inkscape="http://www.inkscape.org/namespaces/inkscape" xmlns:rdf="http://www.w3.org/1999/02/22-rdf-syntax-ns#" xmlns:sodipodi="http://inkscape.sourceforge.net/DTD/sodipodi-0.dtd" xmlns:svg="http://www.w3.org/2000/svg"
	 xmlns="http://www.w3.org/2000/svg" xmlns:xlink="http://www.w3.org/1999/xlink" x="0px" y="0px" viewBox="0 0 100 100"
	 enable-background="new 0 0 100 100" xml:space="preserve">
<path id="path82" fill="#002A86" d="M0,100h100V0H0V100z"/>
<g>
	<path fill="#FFCC00" d="M52.9,30.7c0.2,0,0.2-0.1,0.4-0.2c0-0.1,0.1-0.1,0.1-0.3c-0.1-0.7-1-0.4-1.2-1c0-0.2,0.1-0.3,0.3-0.3
		c0.2-0.1,0.5,0.1,0.6,0.2c0.1,0.1,0.2,0.2,0.2,0.3c0.1,0,0-0.1,0.1-0.1c0-0.2,0.1-0.3,0-0.4c-0.3,0.1-0.5-0.3-0.7-0.2
		c-0.1,0-0.2,0-0.2,0c-0.2-0.1-0.4-0.1-0.5,0.1c-0.1,0.3-0.1,0.5,0,0.7c0.2,0.2,0.5,0.3,0.8,0.4c0.1,0.1,0.2,0.1,0.4,0.3
		c0,0.1-0.1,0.2-0.2,0.3c-0.2,0.1-0.3,0.1-0.5,0c-0.3-0.1-0.4-0.4-0.6-0.5c-0.1,0.1-0.2,0.3-0.1,0.5C52.2,30.4,52.4,30.8,52.9,30.7z
		"/>
	<path fill="#FFCC00" d="M46.9,30c0.2,0.1,0.1,0.3,0.1,0.4c0,0-0.1,0.1-0.1,0.2h0.3c0.3,0,0.5-0.1,0.7-0.1c0.3-0.1,0.6,0,0.8-0.2
		c-0.1-0.1,0-0.2-0.1-0.3c0,0.1,0,0.1-0.1,0.1c0,0.2-0.3,0.1-0.5,0.2c-0.2,0-0.4,0.2-0.6,0c0-0.2-0.1-0.5,0.1-0.6
		c0.1-0.1,0.3,0,0.4,0.1c0.1,0.1,0.1,0,0.1-0.1c0-0.1,0-0.3-0.1-0.3c-0.2,0.1-0.3,0.2-0.5,0.2c-0.1-0.1-0.1-0.3-0.2-0.3
		c0-0.2,0-0.4,0.1-0.4c0.2-0.1,0.5-0.1,0.8-0.1c0.2,0,0.2,0.3,0.4,0.3V29h0.1c0-0.1,0-0.2,0-0.3c-0.1-0.1-0.4,0.1-0.8,0
		c-0.3,0.1-0.8,0-1.1,0.1C46.8,29.2,47,29.6,46.9,30z"/>
	<path fill="#FFCC00" d="M54.8,29.1c0.1,0,0.1,0.1,0.1,0.2c-0.1,0.2,0,0.4-0.1,0.6c-0.2,0.1-0.1,0.3-0.2,0.4c0,0.2-0.1,0.4-0.3,0.5
		v0.1c0.3,0,0.5,0.2,0.8,0.1c0-0.1,0-0.2-0.1-0.2c0-0.2,0-0.5,0.2-0.8c0-0.1,0-0.2,0.1-0.3v-0.1c0-0.1,0-0.3,0.2-0.3
		s0.2,0.2,0.3,0.4c0.1,0.1,0.1-0.1,0.2-0.1c0-0.1,0.1-0.3-0.1-0.3c-0.6-0.1-1.1-0.3-1.5-0.5l-0.1,0.1c0,0.1-0.1,0.3,0,0.4
		C54.4,29.3,54.6,29,54.8,29.1z"/>
	<path fill="#FFCC00" d="M44,29.8c0.1,0,0.1,0.2,0.2,0.3c0.2,0.2,0.1,0.4,0.2,0.5c0,0.2,0.1,0.3,0.1,0.5c0,0.1-0.1,0.2-0.2,0.3
		c0.1,0,0.2,0,0.3,0c0.1-0.1,0.3-0.1,0.4-0.2h-0.1c-0.3-0.1-0.2-0.5-0.3-0.7c0-0.2,0.1-0.2,0.2-0.2c0.1,0,0.3-0.1,0.5-0.1
		c0.1,0,0.1,0.1,0.1,0.2c0.2,0.1,0.1,0.3,0.1,0.5c0,0.1-0.1,0-0.1,0.1c0.3,0,0.5,0,0.7-0.2c0-0.1-0.3-0.2-0.2-0.4
		c-0.1-0.3-0.2-0.4-0.2-0.6c-0.2-0.2-0.1-0.4-0.2-0.5c0,0,0-0.1,0.1-0.2c-0.2-0.1-0.4,0.1-0.5,0.1c0,0.1,0.1,0.2,0.2,0.3
		c0,0.1,0.2,0.3,0,0.5c-0.3,0-0.5,0.2-0.7,0.2c-0.3-0.1-0.2-0.5-0.2-0.7C44.2,29.5,44,29.6,44,29.8C43.9,29.7,44,29.7,44,29.8z"/>
	<path fill="#FFCC00" d="M55.9,31.3c0.1,0.2,0.4,0.2,0.6,0.2c0-0.1-0.1-0.2,0-0.3c0.1-0.2,0.2-0.2,0.4-0.1c0.1,0,0.2,0.1,0.3,0.1
		c0,0.2,0,0.3,0,0.4c-0.1,0.1-0.2,0.1-0.3,0.1c0,0.1,0.2,0.1,0.3,0.2c0.2-0.1,0.4,0.2,0.6,0.1v-0.1c0-0.1-0.1-0.1-0.1-0.1
		c-0.2-0.4-0.1-0.8-0.1-1.1c-0.1,0-0.1,0-0.1-0.1c0.2-0.1-0.1-0.2,0-0.4c0.1,0,0.1-0.2,0.1-0.3c0-0.1-0.2-0.2-0.3-0.2
		c-0.1,0-0.2,0.1-0.2,0.2c-0.2,0.2-0.3,0.3-0.4,0.5c-0.2,0.3-0.4,0.5-0.5,0.7C56.1,31.2,55.9,31.1,55.9,31.3z"/>
	<path fill="#FFCC00" d="M56.6,31.5c0,0-0.1,0-0.1,0C56.5,31.5,56.5,31.5,56.6,31.5C56.5,31.5,56.5,31.5,56.6,31.5z"/>
	<path fill="#FFCC00" d="M41.5,30.7C41.5,30.7,41.6,30.8,41.5,30.7c0-0.2,0.3-0.2,0.4-0.3c0.1,0,0.1,0.1,0.2,0.2
		c0,0.2,0.1,0.3,0.1,0.4c0.2,0.1,0.1,0.3,0.2,0.4c0.2,0.2,0.1,0.5,0.1,0.7c0,0,0,0,0.1,0c0.1,0,0.2,0,0.2-0.1
		c0.2-0.1,0.3-0.1,0.4-0.2h-0.1c-0.1,0-0.3-0.1-0.2-0.2l-0.1-0.1c0-0.3-0.2-0.5-0.2-0.8c-0.2-0.1-0.1-0.2-0.2-0.3
		c0-0.1,0-0.2,0.1-0.3c0.2-0.1,0.4,0.1,0.6,0l0-0.3c-0.5,0-1,0.3-1.5,0.5c-0.1,0-0.2,0.1-0.2,0.2C41.5,30.5,41.4,30.7,41.5,30.7z"/>
	<path fill="#FFCC00" d="M59.2,32.5c-0.1-0.1-0.1-0.4,0-0.6c0.1,0,0-0.3,0.2-0.3c0-0.3,0.2-0.3,0.2-0.5c0.1-0.1,0.2-0.2,0.3-0.1
		c0,0.1,0.1,0.1,0.1,0.2c0.2,0.1,0,0.3,0.1,0.4c0.2,0.1,0.2-0.2,0.3-0.2c0.1-0.1,0.1-0.2,0.1-0.3c-0.3-0.2-0.7-0.3-1-0.5
		c-0.1,0.2-0.1,0.3-0.2,0.3c0,0.2-0.1,0.3-0.2,0.5c0,0.2-0.2,0.3-0.2,0.5c-0.1,0.2-0.4,0.2-0.6,0.2v0.1
		C58.6,32.4,58.9,32.6,59.2,32.5L59.2,32.5z"/>
	<path fill="#FFCC00" d="M59.1,30.3c-0.1,0-0.2,0.1-0.3,0.2c0,0.2-0.1,0.2-0.1,0.4c0,0,0.1-0.1,0.2-0.1c0-0.2,0.2-0.1,0.3-0.2
		c0.1,0,0.1,0.1,0.3,0C59.4,30.5,59.2,30.5,59.1,30.3z"/>
	<path fill="#FFCC00" d="M60.6,32.9c-0.1,0.2-0.4,0.1-0.5,0.2c0.1,0.1,0.2,0.2,0.3,0.2c0.2,0.2,0.5,0.3,0.7,0.5
		c0.3,0.1,0.4,0.4,0.7,0.3c0.1-0.1,0.1-0.2,0.2-0.2c0-0.2,0.3-0.2,0.2-0.4c-0.2,0-0.3,0.1-0.4,0.2c-0.2,0.1-0.4-0.1-0.6-0.2
		c-0.1-0.2-0.3-0.1-0.2-0.3c0.1-0.1,0.2-0.3,0.4-0.4c0.3,0,0.1,0.4,0.2,0.5l0.1-0.1c0.1-0.2,0.2-0.4,0.3-0.6c-0.1-0.2-0.3,0.1-0.4,0
		c-0.1,0-0.2-0.1-0.2-0.2c0-0.1,0-0.2,0.1-0.2c0.1-0.1,0.1-0.2,0.2-0.2c0.2,0.1,0.3,0.2,0.5,0.3c0,0.2,0.2,0.2,0.1,0.4
		c-0.1,0,0,0.1-0.1,0.1c0,0.1-0.1,0.2,0,0.2c0.3,0,0.4-0.4,0.5-0.5c0-0.2-0.2-0.3-0.3-0.3c-0.3-0.1-0.6-0.4-0.9-0.6
		c-0.2,0-0.3-0.2-0.3,0c-0.1,0.1,0.2,0.1,0.1,0.3C61,32.2,60.9,32.6,60.6,32.9z"/>
	<path fill="#FFCC00" d="M37.4,33.6c0,0.1,0.2,0.2,0.2,0.3c0.1,0.1,0.1,0.1,0.2,0.2c0.1,0.1,0.1,0.3,0.1,0.5H38l0.1-0.1
		c0.2-0.1,0.4-0.2,0.5-0.3c-0.1-0.1-0.3,0-0.4-0.2c0-0.1-0.1-0.2-0.2-0.3c0,0,0-0.1,0.1-0.2c0.1-0.1,0.3-0.1,0.4-0.1
		c0-0.2-0.2-0.2-0.2-0.4c-0.2-0.1-0.2,0.3-0.4,0.3c-0.2-0.1-0.3-0.3-0.4-0.4c-0.1-0.1,0-0.1,0-0.2c0.1-0.1,0.2-0.1,0.3-0.2
		c0.2-0.2,0.5-0.1,0.7-0.1l-0.3-0.1c-0.2-0.1-0.3,0.2-0.5,0.2c-0.3,0.2-0.6,0.4-0.8,0.6v0.1C37.2,33.2,37.2,33.4,37.4,33.6z"/>
	<path fill="#FFCC00" d="M46.1,34.3c0.2,0.3,0.2,0.7,0.3,1c0.1,0,0,0.1,0.1,0.2c0.3,0,0.6-0.1,0.9-0.2c0.6-0.1,1.4-0.2,2.1-0.2
		s1.1-0.1,1.7,0c0.9,0,1.9,0.2,2.7,0.3c0.1,0.1,0.2,0.1,0.3,0.1c0.1-0.3,0.2-0.5,0.2-0.8c0.1,0,0.1-0.2,0.1-0.2c0-0.1,0-0.3,0.1-0.3
		c-0.1-0.1,0.1-0.1,0-0.2c-0.6-0.2-1.2-0.3-1.7-0.2c-1.3-0.1-2.6-0.2-3.9-0.1c-1,0-1.9,0-2.8,0.3C46,34,46.1,34.2,46.1,34.3z"/>
	<path fill="#FFCC00" d="M35.8,35.8c0.3,0.1,0.7,0.1,1,0c0.1-0.1,0.2-0.1,0.2-0.2c-0.2,0-0.3,0.1-0.5,0.1s-0.3-0.1-0.5-0.2
		c-0.1-0.1-0.2-0.2-0.3-0.3c-0.1-0.2-0.2-0.5-0.1-0.7c0.1-0.1,0.1-0.3,0.3-0.3c0.2,0,0.4,0,0.5,0.1c0,0,0.1,0,0.1,0.1
		c0.3,0.1,0.4,0.4,0.5,0.6c0.2,0.1,0,0.3,0.1,0.4c-0.1,0-0.1,0-0.1,0c0,0.1,0.1,0,0.2,0c0-0.2,0-0.5,0-0.7S37,34.4,37,34.2
		c-0.2-0.1-0.3-0.2-0.3-0.2c-0.2,0-0.5,0-0.7,0c-0.4,0.2-0.9,0.6-0.7,1.2C35.3,35.5,35.6,35.6,35.8,35.8z"/>
	<path fill="#FFCC00" d="M64.3,36.6c0,0.1,0.1,0.1,0.2,0.2c0.3,0.1,0.8,0.1,1.1-0.1c0.2-0.2,0.4-0.4,0.4-0.6
		c0.2-0.1,0.1-0.4,0.1-0.5c-0.1,0-0.1-0.1-0.1-0.2c-0.1,0-0.1-0.2-0.2-0.2c0-0.1-0.2-0.1-0.3-0.3c-0.4-0.2-0.9,0-1.2,0.2
		c-0.3,0.3-0.4,0.9-0.2,1.3C64.2,36.4,64.2,36.6,64.3,36.6z"/>
	<path fill="#FFCC00" d="M52.5,36.3c-0.1,0.1-0.1,0.3-0.1,0.5l0.1-0.1c0-0.3,0.4-0.3,0.6-0.6c0.2-0.1,0.3-0.1,0.3-0.3
		c-0.2,0-0.5-0.2-0.7,0c0,0,0.1,0.1,0,0.1C52.6,36,52.6,36.2,52.5,36.3z"/>
	<path fill="#FFCC00" d="M48.1,36.4c0-0.2-0.2-0.3-0.2-0.5c-0.2-0.2-0.6,0-1-0.1v0.1c0.3,0.3,0.7,0.4,0.9,0.7l0.1,0.1
		c0.1,0,0.1,0.1,0.2,0.1c0.2,0,0.1-0.1,0.1-0.2C48.1,36.6,48.2,36.4,48.1,36.4z"/>
	<path fill="#FFCC00" d="M59.3,39.3c0.2,0.1,0.3,0.1,0.4-0.1c0.1-0.3,0.2-0.4,0.2-0.6c0.1-0.1,0-0.2,0.1-0.3c0-0.2,0.1-0.4,0.1-0.6
		c0-0.1-0.3-0.2-0.4-0.3c-0.3-0.1-0.5-0.2-0.8-0.3c-0.5-0.1-1-0.4-1.5-0.5c-0.5-0.1-1-0.3-1.6-0.4c-0.1-0.1-0.2,0-0.2-0.2
		c-0.2,0-0.4,0-0.6-0.1c-0.4,0-0.8-0.3-1.1,0c-0.2,0.1-0.2,0.2-0.4,0.2c-0.2,0.2-0.5,0.3-0.7,0.5c-0.1,0-0.1,0.2-0.2,0.2
		c-0.1,0.1,0,0.2,0.1,0.3c0.2,0,0.1,0.2,0.3,0.2c0.7,0.3,1.4,0.5,2.1,0.6c0.1,0.1,0.1,0,0.2,0.1c0.2,0.1,0.5,0.1,0.7,0.2
		c0.6,0,1.2,0.3,1.7,0.4c0.2,0.1,0.3,0.1,0.5,0.2c0.3,0,0.5,0.1,0.7,0.2C59,39.1,59.2,39.1,59.3,39.3z"/>
	<path fill="#FFCC00" d="M40.5,39c0.1,0.3,0.2,0.5,0.4,0.7c0.2,0,0.3,0,0.5-0.1c0,0-0.1,0-0.1,0.1c0.1,0.1,0.3,0,0.4,0.1
		c0.4,0,0.8,0.4,1.1,0.2c0-0.2-0.2-0.2-0.4-0.4c-0.2-0.1-0.5-0.1-0.7,0c-0.1,0-0.2,0-0.3,0c0.3-0.1,0.7-0.2,1-0.4
		c0.5-0.2,1-0.3,1.5-0.4c0.9-0.3,1.8-0.4,2.7-0.7c0.5-0.3,1.2-0.4,1.6-0.8c0-0.2-0.2-0.3-0.3-0.4c-0.2-0.2-0.4-0.3-0.6-0.5
		c-0.1,0-0.2-0.1-0.3-0.1s-0.3,0-0.4,0.1c-0.9,0.2-2,0.4-2.9,0.6c-0.5,0.1-1,0.2-1.5,0.4c-0.6,0.3-1.1,0.4-1.7,0.8
		c-0.1,0.1-0.3,0.2-0.2,0.4C40.4,38.7,40.3,38.9,40.5,39z"/>
	<path fill="#FFCC00" d="M65.6,37.6c0,0.1,0,0.1,0,0.2c0.1,0.2,0.3,0.1,0.3,0.3c0.1,0,0.1,0.2,0.3,0.2c0.1-0.1-0.1-0.2,0-0.3
		c0-0.2,0.1-0.2,0.2-0.3c0,0.1,0.1-0.1,0.2,0c0.1,0.2,0,0.3,0,0.5c0.3,0.1,0.4-0.2,0.6-0.3c0-0.1,0.1-0.1,0.1-0.2
		c-0.2,0-0.4,0.1-0.5-0.1c-0.1-0.1,0.1-0.2,0.2-0.3c0.1-0.2,0.2,0,0.3,0c0,0,0,0.1,0.1,0.1c0.1,0.1,0.2,0.1,0.1,0.2
		c0.4,0.2-0.1,0.4,0,0.6h0.1c0.2-0.2,0.3-0.2,0.4-0.4c-0.2-0.2-0.4-0.5-0.6-0.7c-0.2-0.3-0.3-0.5-0.3-0.5c0,0.1,0,0.1,0,0.2
		c-0.4,0.3-0.6,0.6-1,0.8C65.9,37.8,65.8,37.6,65.6,37.6z"/>
	<path fill="#FFCC00" d="M32.2,39c0.3,0.2,0.5,0.3,0.8,0.5c0.2,0,0.1,0.3,0.3,0.4c0.2,0.1,0.2-0.2,0.3-0.3c0.1-0.1,0.1-0.2,0.2-0.3
		c0-0.1,0.2-0.2,0.2-0.3c0,0,0-0.1,0-0.1c0.1-0.2-0.1-0.2-0.1-0.3c-0.1-0.1-0.1-0.2-0.3-0.2c0,0,0,0.2,0.1,0.2c0.1,0.2,0,0.3,0,0.5
		c-0.1,0.1-0.1,0.3-0.3,0.3c-0.2-0.2-0.5-0.3-0.8-0.5c-0.2-0.1-0.3-0.3-0.3-0.5c-0.1,0.1-0.1,0,0,0c-0.1-0.1-0.1-0.1-0.2-0.1
		c-0.1,0.1-0.2,0.4-0.3,0.5c0,0.1-0.2,0.1-0.1,0.2C31.9,39.1,32,38.9,32.2,39z"/>
	<path fill="#FFCC00" d="M57.6,39.3c0,0.1,0,0.2,0,0.3c0.1,0,0.2,0.1,0.3,0c0.3-0.1,0.6-0.1,0.8-0.2c-0.3-0.1-0.6-0.3-0.9-0.3
		C57.7,39.2,57.7,39.3,57.6,39.3z"/>
	<path fill="#FFCC00" d="M61.6,39.7c-0.6-0.1-1-0.5-1.6-0.6c-0.1,0.1-0.2,0.3-0.3,0.5c-0.4,0.1-0.9,0.2-1.4,0.3
		c0.2,0.1,0.5,0.2,0.7,0.3c0.3,0,0.4,0.2,0.6,0.2c0.1,0,0.2,0.1,0.3,0.1c0.2,0.1,0.3,0.1,0.4,0.2c0.2,0,0.4,0.1,0.6,0.2
		c0.3,0.1,0.6,0.2,0.9,0.4c0.1,0.1,0.2,0.1,0.4,0.2c0.1,0,0.3,0.1,0.4,0.2c0.1,0.1,0.2,0.1,0.3,0.2c-0.1-0.1-0.1-0.2-0.2-0.3
		c0-0.1-0.2-0.1-0.2-0.3c-0.1,0-0.1-0.2-0.2-0.2c-0.1,0-0.1-0.1-0.1-0.2c0.3-0.1,0.6,0,1,0c0.2,0,0.4,0,0.5,0
		c-0.1-0.1-0.2-0.2-0.3-0.3c-0.5-0.2-0.8-0.5-1.3-0.7C61.9,39.8,61.8,39.8,61.6,39.7z"/>
	<path fill="#FFCC00" d="M37.7,40.5c-0.1,0.1-0.4,0-0.5,0.2c0.2,0.1,0.5,0.1,0.8,0.1c0.2,0,0.3,0.1,0.5,0v0.1c0.1,0,0.1,0.1,0.2,0
		c0.1,0.2-0.1,0.2-0.2,0.4s-0.2,0.4-0.3,0.5c-0.1,0-0.1,0.1-0.1,0.2c0.1-0.1,0.3-0.1,0.4-0.2c0.4-0.3,0.9-0.3,1.3-0.5
		c0.1-0.1,0.3-0.1,0.5-0.2c0.5-0.1,1-0.3,1.5-0.5c0.2,0,0.4-0.1,0.6-0.2c0-0.1-0.1-0.1-0.2-0.1c-0.4-0.2-0.8-0.2-1.2-0.3
		c-0.3,0-0.3-0.5-0.5-0.5c-0.3,0.2-0.5,0.3-0.8,0.4c-0.6,0.1-1,0.4-1.6,0.5C38,40.4,37.8,40.5,37.7,40.5z"/>
	<path fill="#FFCC00" d="M31.2,41.6c0.1,0.1,0.3,0.2,0.4,0.4c0.2,0.1,0.2,0.3,0.2,0.4c0.1,0,0.1-0.1,0.2-0.1
		c0.1-0.1,0.1-0.3,0.2-0.3c0,0,0-0.1,0-0.2c-0.1,0-0.1,0.1-0.2,0.1c-0.1,0.1-0.2-0.1-0.3-0.2c-0.1-0.2,0.1-0.2,0.1-0.3
		c0-0.1,0-0.1,0-0.1c0.1-0.1,0.2-0.3,0.4-0.2c0.2,0,0,0.2,0.1,0.3h0.1c0.1-0.1,0.2-0.1,0.2-0.2c0.1-0.1,0.1-0.3,0.2-0.4
		c0.1,0,0.1-0.1,0.1-0.2c-0.2,0-0.4,0.2-0.7,0.1c-0.5-0.2-0.9-0.1-1.6-0.1c0,0.1-0.1,0.2-0.1,0.3C30.7,41.2,31,41.3,31.2,41.6z"/>
	<path fill="#FFCC00" d="M67.9,41.7c0,0.1,0.1,0.3,0.1,0.4c0.1,0,0.1,0.2,0.2,0.3c0.1,0.1,0.1,0,0.1,0c0.1-0.1,0.1-0.2,0.1-0.3
		c0.2-0.1,0.3-0.2,0.5-0.2c0.1-0.1,0.2-0.2,0.3-0.2c0.3,0.2-0.1,0.3-0.1,0.5c-0.1,0.3-0.4,0.6-0.5,0.9c0,0.1,0,0.2,0.1,0.2
		c0.4-0.1,0.7-0.3,1.1-0.4c0.2-0.1,0.5-0.2,0.7,0c0,0,0.1,0.1,0.1,0c0-0.3-0.2-0.4-0.2-0.6c-0.1-0.1-0.1-0.2-0.2-0.2
		c-0.2,0-0.1,0.1-0.1,0.2c-0.1,0.3-0.4,0.3-0.7,0.4c-0.1,0-0.1-0.1-0.1-0.1c0-0.1,0-0.2,0.1-0.2c0-0.2,0.2-0.2,0.2-0.4
		c0.1-0.1,0.1-0.2,0.2-0.3c0.1-0.2,0.2-0.4,0.1-0.5c0-0.1-0.1-0.1-0.1-0.2c0-0.2-0.2,0-0.4-0.1v0.2c-0.1,0.2-0.3,0.2-0.5,0.3
		c-0.1,0.2-0.4,0.2-0.6,0.3C68.2,41.8,68,41.6,67.9,41.7z"/>
	<path fill="#FFCC00" d="M29.8,43.8c0.2,0.2,0.5,0.2,0.7,0.3c0.3,0.1,0.6,0.2,0.7,0.4c0.3,0,0.1-0.5,0.3-0.6
		c0.1-0.2,0.1-0.3,0.2-0.4c0-0.1,0-0.3,0.1-0.3v-0.3c-0.2-0.1-0.5-0.2-0.7-0.2c0,0.2,0.2,0.1,0.3,0.3c-0.1,0.1,0.1,0.2,0.1,0.3
		c-0.2,0.2-0.1,0.5-0.3,0.6c-0.2,0-0.4,0-0.6-0.1c-0.1,0-0.1-0.1-0.1-0.2c0.1-0.2,0.3-0.2,0.5-0.3c0-0.1-0.1-0.1-0.1-0.1
		c-0.2,0-0.4-0.2-0.7-0.1c0.1,0.1,0.3,0.2,0.2,0.4c0,0-0.1,0.1-0.2,0.1c-0.2,0-0.3-0.1-0.4-0.2c0-0.2,0.1-0.5,0.2-0.7
		c0.2-0.2,0.4-0.1,0.6-0.2c-0.2-0.1-0.4-0.2-0.5-0.3c-0.1,0-0.1,0.1-0.1,0.2c-0.2,0.3-0.2,0.7-0.4,0.9c0,0.1-0.1,0.1-0.1,0.2
		c-0.1,0.1,0,0.3-0.1,0.3C29.5,44,29.6,43.8,29.8,43.8z"/>
	<path fill="#FFCC00" d="M63.2,44.2c-0.2-0.2-0.4-0.4-0.7-0.4L62.3,44c-0.1,0-0.1-0.1-0.1-0.2c0-0.1-0.1-0.2-0.1-0.2
		c-0.2-0.1-0.3-0.2-0.5-0.2c-0.3-0.1-0.6,0-0.9,0s-0.5,0.1-0.7,0.3c-0.1,0.1-0.2,0.1-0.3,0c-0.4,0-0.7,0.1-1.1,0.2
		c-0.3,0.1-0.2,0.4-0.3,0.6c-0.2,0-0.4,0.1-0.6,0.2c-0.3,0-0.1,0.5-0.2,0.7c0,0.2-0.2,0.3-0.2,0.5c0.1,0.2,0.2,0.3,0.3,0.3
		c0.5,0.2,0.8-0.4,1.2-0.4c0-0.2,0.1-0.3,0.1-0.5c0.2-0.2-0.2-0.3-0.1-0.5c0-0.1,0.2,0,0.2-0.1c0.2-0.1,0-0.4,0.2-0.5
		c0.2-0.3,0.5-0.2,0.7-0.3c0.1,0,0.1-0.1,0.2-0.1c0-0.1,0.2-0.1,0.3-0.2c0.3,0.1,0.5,0,0.7,0c0.2,0.1,0.3,0.1,0.5,0.1
		c0.1,0,0.1,0.1,0.2,0.1c0.1,0,0.1,0.1,0.1,0.1c0.2,0,0.2,0.2,0.3,0.2c0.1,0,0.1,0,0.2,0.1c0,0,0,0-0.1,0c-0.1,0.1-0.1,0.2-0.2,0.2
		v0.3c0.1,0.1,0.2,0.1,0.2,0.2c0,0.1,0,0.3-0.1,0.3c-0.2,0-0.4,0-0.5,0.2l-0.1-0.1c0-0.2,0.1-0.3,0.3-0.4c-0.1-0.1,0-0.2-0.1-0.3
		c-0.3,0.1-0.6-0.2-0.9-0.1c-0.1,0-0.2,0.1-0.3,0c0.2-0.3,0.6-0.1,0.9-0.1c0.2-0.1,0.5,0.1,0.6-0.1C62,44.1,61.9,44,61.7,44
		c0-0.1-0.1-0.1-0.1-0.2c-0.2,0-0.4,0-0.5,0.1c-0.1,0-0.1-0.1-0.2-0.1c-0.2-0.1-0.4,0-0.5,0.1c-0.1,0.2-0.3,0.1-0.5,0.2
		c0,0.2-0.2,0.1-0.3,0.2c0,0.1,0,0.1,0,0.2c-0.1,0.1-0.1,0.1-0.2,0.1c-0.3,0.1,0,0.3-0.1,0.5c0,0.1-0.2,0.1-0.2,0.2
		c0.2,0.1,0.1,0.3,0.1,0.5c-0.3,0.2-0.1,0.3-0.5,0.3c0,0.3,0.4,0.3,0.5,0.4c-0.2,0.2-0.4,0.3-0.6,0.4c-0.1-0.1,0-0.2-0.1-0.3
		c-0.1,0-0.2,0-0.3,0.1c0,0.1,0,0.2,0.1,0.2c0,0-0.2,0.5-0.2,0.5c-0.1,0-0.1-0.1-0.2-0.1c-0.2,0.1-0.1,0.4-0.3,0.4
		c-0.3-0.2-0.5,0.2-0.7,0.4c0,0.2,0.2,0,0.3,0.1c0.1,0.1,0.1,0.3,0,0.4c-0.1,0.2-0.3,0.2-0.2,0.4h0.1c0.2-0.3,0.3,0.2,0.6,0.1
		c0.2-0.2,0.5-0.4,0.8-0.4c0.1,0.3-0.3,0.3-0.2,0.5h0.1c0.3,0.3,0.7-0.2,1,0.1c0.3,0,0.3-0.4,0.8-0.2c0.1-0.1,0.5,0.3,0.5,0
		c0.1,0,0.1-0.2,0.2-0.2h-0.1c-0.1-0.1,0.2-0.6,0.4-0.6v-0.1c-0.3,0-0.4,0-0.6,0.1c-0.2,0-0.4-0.1-0.6-0.1c-0.2,0.2,0,0.3-0.1,0.5
		c-0.1,0-0.1,0.2-0.2,0.2c-0.4-0.4-1,0-0.6-0.7c0,0.5,0.8-0.3,0.8-0.3c0.2-0.1,0.4,0.1,0.6,0c0.1,0,0.3,0.1,0.4,0
		c0.2,0,0-0.4,0.3-0.4c0-0.1,0-0.2,0-0.2c0.1-0.1,0.1-0.2,0.2-0.3c0.2,0,0.6-0.3,0.8,0c0.3-0.1,0.4,0.2,0.7,0.1C63,47,63,47,63,46.9
		c0.1,0,0.3-0.3,0.3-0.3c-0.1-0.1,0.1-0.1,0.2-0.2c0.1-0.2,0.3-0.1,0.4-0.3c0.2-0.1,0.3,0,0.4,0.1c0,0,0-0.2,0.1-0.2
		c0.1-0.4,0.5-0.4,0.8-0.4c0-0.1,0.1-0.1,0.2-0.1c0,0,0.1,0.1,0.1,0.2c0.1,0,0.1,0.1,0.2,0c0-0.4,0.5-0.2,0.6-0.5
		c-0.1-0.1-0.1-0.3-0.2-0.4L66,44.4c-0.1-0.1,0-0.4-0.2-0.5c-0.1,0-0.2,0.1-0.3,0.1c-0.1-0.1,0-0.2,0-0.3c-0.1-0.2-0.5-0.2-0.6-0.5
		c0,0-0.1,0.1-0.1,0.2c-0.2,0.2-0.4,0.2-0.6,0.1c-0.1,0.1-0.2,0.1-0.3,0.2c-0.1,0.2-0.3,0.2-0.5,0.3C63.4,44.1,63.3,44.1,63.2,44.2z
		 M62.7,44.8c-0.1,0,0-0.1-0.1-0.1c0-0.1,0-0.1,0-0.2h0C62.7,44.6,62.7,44.6,62.7,44.8c0-0.1,0-0.1,0.1-0.1
		C62.7,44.7,62.7,44.7,62.7,44.8z M62.9,44.5C62.9,44.5,63,44.5,62.9,44.5C63,44.5,62.9,44.5,62.9,44.5z"/>
	<path fill="#FFCC00" d="M35.1,43.7c-0.3-0.1-0.3,0.1-0.2,0.2C35,43.9,34.9,43.7,35.1,43.7z"/>
	<path fill="#FFCC00" d="M34,46.6c0.5-0.1,1,0.1,1.5,0.2c0.1,0.1,0.3,0.1,0.4,0.2c0.2,0,0.4,0.2,0.6,0.2c0,0.1,0.4,0.3,0.5,0.4
		c0.1,0.4,0.4,0.2,0.6,0.4c0.1,0,0.1,0.2,0.2,0.2c0,0.3,0.3,0,0.4,0.2c0,0.1,0.2,0.2,0.2,0.3l0.2,0.2c1.3,0.3,3.4,1.2,4.7,0.3
		c0-0.1,0.1-0.2,0.1-0.3c-0.4-0.5-1.1-0.9-1.7-0.7c0-1.2-2.3-0.5-2.7-0.9c0.1-0.3-0.3-0.9-0.4-1.1c-0.3-0.1-0.7-0.1-1,0.1
		c-0.3,0-0.7-0.2-1,0c-0.4-0.1-0.1-0.6-0.4-0.8c-0.1,0-0.2-0.1-0.3-0.2c-0.3,0-0.7,0.4-0.6,0c0.3-0.3,1.1-0.2,1.1,0.3
		c0.3,0.3,0.3,0.6,0.9,0.4c0.1-0.1,0.2-0.1,0.2-0.3c-0.2-0.1-0.3-0.3-0.5-0.4c-0.1-0.3-0.4-0.5-0.6-0.6c0-0.5-0.5-0.2-0.8-0.4
		c-0.4,0-0.2,0.6-0.7,0.6c-0.1-0.2,0.2-0.3,0.2-0.5c0.1-0.2-0.2-0.3-0.2-0.5c-0.1,0.3-0.2,0.5-0.3,0.8c-0.2,0.1-0.3,0.8-0.3,1
		C34.1,46,34.1,46.2,34,46.6C34,46.5,34,46.5,34,46.6z"/>
	<path fill="#FFCC00" d="M70.5,43.9c-0.4,0.2-0.7,0.3-1.1,0.4c-0.3,0.2-0.4-0.1-0.6-0.2c-0.2,0.2,0,0.5,0,0.7c0.1,0.2,0,0.3,0.1,0.4
		c0.1,0.1,0,0.2,0.1,0.2c0.1,0.2,0.1,0.4,0.1,0.6c0.2,0.1,0.4,0.1,0.6,0c0.1-0.1,0.4,0,0.3-0.2c-0.2,0-0.5,0-0.6-0.2
		c-0.2-0.1-0.1-0.3-0.2-0.4c0-0.1,0-0.2,0-0.3c0.1,0,0.2-0.1,0.3-0.1c0.2,0.1,0.3-0.1,0.4,0.1c0.1,0.2-0.1,0.3-0.2,0.4
		c0.2,0.1,0.4,0,0.6,0c0.1-0.1,0.2-0.1,0.3-0.2c-0.1-0.1-0.3,0-0.4-0.2c0-0.2,0.1-0.2,0.2-0.3c0,0,0.1,0.1,0.1,0
		c0.4-0.2,0.2,0.4,0.4,0.5c0.2,0.4-0.4,0.4-0.4,0.7c0.2,0.1,0.5-0.1,0.7-0.1c0.2-0.2,0-0.4,0-0.6c-0.1-0.1,0-0.3-0.1-0.5
		c0.1-0.2-0.1-0.4-0.1-0.6c-0.1-0.1-0.1-0.2-0.4-0.3C70.5,43.7,70.5,43.8,70.5,43.9z"/>
	<path fill="#FFCC00" d="M50.4,47.9c0.3-0.2,0.7,0,1-0.2c0.6,0.1,0.9-0.3,1.4-0.4c0.5,0.1,1.9-0.1,2.3-0.3c0.4-0.2,0.9-1.1,1.6-0.7
		c0.2-0.1,0.2-0.3,0.3-0.4c0-0.1,0-0.2,0-0.2c-0.2-0.1-0.5,0-0.6,0c0.2,0,0.3,0,0.3,0.2c-0.1,0-1.6,0.2-1.3,0
		c0.1-0.2,0.2-0.1,0.3-0.2c-1.3,0-2.7-0.2-4,0c-0.4-0.1-0.9,0-1.3-0.1c-0.2,0.2-0.5,0-0.8,0.1c0,0.1,0,0.2-0.1,0.3
		c-0.7,0.2-1.6-0.1-2.3,0.1c0.1,0,0.2,0,0.3,0.1c0,0.1,0,0.2,0,0.2c-1,0.4-2.7,0.1-3.9,0.1c-0.6,0-1.6,0.2-1.6-0.3
		c0.4-0.1,1.1,0,1.6,0c-0.3-0.2,0.3-0.2,0.2-0.3c-0.2-0.1-1.2-0.3-1.3-0.1c-0.5,0-4.5-0.2-4.5,0c0.2,0.2,1-0.1,1,0.5
		c0.1,0,0.1,0.2,0.1,0.3c0.2,0.1,1.2,0,1.2,0.4c-0.1,0.1-0.4,0.1-0.6,0.1c0.8,0,1.5,0.6,2.3,0.6c0.3,0.3,1,0.1,1.4,0.1
		c0.8,0,1.6,0.1,2.4,0.1C47.3,47.9,48.9,47.9,50.4,47.9z"/>
	<path fill="#FFCC00" d="M44.8,46.2C44.8,46.2,44.8,46.2,44.8,46.2c-0.2,0-0.5,0-0.7,0c-0.2,0-0.4,0-0.5,0c0,0,0.1,0,0.1,0.1
		C44.1,46.2,44.4,46.2,44.8,46.2z"/>
	<path fill="#FFCC00" d="M45.6,46.2l0.1-0.1c0.4,0,0.7-0.1,1.1-0.1c-0.2,0-0.4,0-0.6-0.1c0,0,0.1,0,0.1-0.1c0.3-0.1,0.7-0.2,1-0.2
		c-0.7,0-1.4,0-2.1,0l-0.4,0.3c0.1,0,0.2,0.1,0.2,0.2c0,0-0.1,0.1-0.2,0.1C45.1,46.2,45.3,46.3,45.6,46.2z"/>
	<path fill="#FFCC00" d="M29.2,46.3c0.1,0.2,0.4,0.3,0.7,0.2c0.2-0.2,0.2-0.5,0.4-0.7c0.1-0.2,0.2-0.2,0.3-0.4
		c0.2-0.1,0.3,0,0.4,0.1c0,0.2,0,0.3,0,0.5c-0.1,0.2-0.4,0.4-0.6,0.5c0,0-0.2,0-0.2,0.1c0.2,0,0.5,0.2,0.7,0
		c-0.2-0.1,0.1-0.2,0.1-0.4c0,0,0.1-0.1,0.1-0.2c0.1-0.1,0-0.3,0.1-0.3v-0.1c-0.2-0.2-0.2-0.4-0.5-0.5c-0.2-0.1-0.4,0-0.6,0.1
		c0,0.1-0.1,0.2-0.2,0.3c-0.1,0.2-0.2,0.5-0.4,0.6c-0.1,0.1-0.2,0-0.3-0.1c0,0-0.1-0.1-0.1-0.2C29.1,46,29.1,46.1,29.2,46.3z"/>
	<path fill="#FFCC00" d="M29.4,45.3c0.2-0.2,0.3-0.2,0.5-0.3c-0.2-0.1-0.4-0.1-0.5,0C29.4,45.1,29.4,45.2,29.4,45.3
		c-0.1,0-0.1,0.1-0.2,0.2C29.3,45.4,29.3,45.3,29.4,45.3z"/>
	<path fill="#FFCC00" d="M29.2,45.5c-0.1,0.1-0.1,0.2-0.1,0.3C29.2,45.7,29.2,45.6,29.2,45.5C29.2,45.5,29.2,45.5,29.2,45.5z"/>
	<path fill="#FFCC00" d="M64.5,46.3c0.1,0.3-0.3,0-0.4,0.3c-0.1,0,0.1-0.1,0-0.2c-0.3-0.2-0.3,0.2-0.5,0.1c-0.1,0.1-0.1,0.1-0.1,0.2
		c-0.1,0.1-0.1,0.2-0.2,0.2V47c0.1,0.2,0.5,0,0.7,0.1c0-0.2,0.3-0.1,0.5-0.2c0-0.2,0.2-0.4,0.4-0.4s0.2-0.2,0.4-0.2
		c0.1-0.1,0.3-0.1,0.2-0.2c-0.1-0.1-0.2,0-0.2-0.2c0,0-0.1,0,0-0.2c-0.2,0-0.2,0.1-0.3,0.2l-0.2-0.1c-0.2,0.1-0.3,0-0.4,0.2
		C64.4,46.1,64.4,46.3,64.5,46.3z"/>
	<path fill="#FFCC00" d="M57.3,47.3c0.1-0.2,0.3-0.2,0.4-0.3c-0.1-0.1,0.2-0.1,0.1-0.2c0.2-0.2,0.5-0.2,0.7-0.4
		c-0.7,0-1.4,0.1-2.1,0.1c-0.1,0.1-0.4,0-0.5,0.2c0,0.2,0.2,0.2,0.3,0.3c0.1,0,0.3,0,0.6,0.4c-0.4-0.1-0.8,0-1.2,0.1
		c-0.2,0.2-1.1,0.1-1.4,0.1c-0.5,0.1-1.2,0.3-1.7,0.3c-0.1,0.2-0.4,0.1-0.5,0.3c0.3,0.1,0.7,0,1-0.1c0.2-0.2,0.5,0,0.7-0.2
		c0.1,0,0.4-0.1,0.6,0.1c-0.2,0.2-1,0.2-1,0.6c0.1,0.1,0.3,0.1,0.4,0.1c0.3-0.2,0.8-0.1,1.1-0.1c0.1,0.1,0.3,0,0.5,0
		c0.2-0.2,0.4-0.3,0.6-0.4c0.1-0.2,0.2-0.2,0.3-0.3C56.3,47.7,57.1,47.3,57.3,47.3z"/>
	<path fill="#FFCC00" d="M65.8,52.5c0.2,0,0.3,0.2,0.5,0c0-0.1-0.1-0.1-0.1-0.2c0.1-0.1,0.1-0.2,0.2-0.3c0.1,0,0.1,0,0.2,0.1
		c0,0.1,0.2,0.1,0.2,0.3c0.1,0.1,0.1,0,0.2-0.1c0-0.3,0.2-0.6,0-0.8c-0.3-0.1,0-0.3-0.1-0.4c0-0.3-1-0.4-1.1-0.3c-0.4,0-0.7,0.3-1,0
		c-0.3-0.1-0.5,0-0.7,0.2c-0.2,0-0.3,0.2-0.4,0.3c-0.1-0.1-0.1-0.2-0.2-0.3c0-0.1-0.1-0.2,0-0.3c0.2,0,0.3-0.1,0.4-0.2
		c0.3,0,0.5,0.1,0.8-0.1c-0.1-0.2,0.1-0.3,0.2-0.4c0.1-0.4-0.4-0.3-0.5-0.5c0.4,0,0.2-0.2,0.4-0.4c0.1,0,0.2,0.1,0.3,0.2
		c0.1,0,0.3,0.1,0.4-0.1c0-0.1,0-0.2,0.1-0.3c0,0,0.4,0.5,0.4,0.1c0.2,0,0.1,0.2,0.3,0.4c0.1,0,0.2-0.1,0.3,0
		c-0.1,0.1-0.1,0.3-0.1,0.4c0.1,0,0-0.1,0.1-0.1c0.2-0.1,0.1,0.2,0.3,0.3c0.1-0.8,0-1.5,0-2.3h-0.1c0-0.3-0.1-0.5-0.1-0.8
		c-0.1,0-0.1,0-0.2,0c-0.2,0.1,0.1,0.4-0.2,0.4c-0.2,0.3-0.2-0.1-0.4-0.1c-0.2,0.2-0.7-0.2-0.7,0.3c-0.4,0-0.2,0.5-0.5,0.5
		c0,0-1-0.3-1.1-0.3c0,0.1,0,0.2,0.1,0.2c0,0.5-0.2,0.1-0.4,0.3c0,0.3-0.2,0-0.3,0.1v0.2c0,0,0,0,0.1,0c0,0,0,0.1,0,0.1
		c-0.1,0.3-0.3-0.1-0.4-0.1v0.1c-0.1,0.1-0.1,0.2,0,0.3c-0.1,0.1-0.1,0.2-0.2,0.4c-0.2-0.1-0.2-0.2-0.2-0.3c-0.3,0-0.4,0.3-0.5,0.4
		c0,0-0.2-0.2-0.3-0.1c-0.1,0.1,0.1,0.5-0.1,0.5c0,0.3,0.3,0.3,0.5,0.4c0,0.1,0,0.1-0.1,0.2c-0.2,0-0.2-0.1-0.4-0.2
		c-0.2,0.1-0.9-0.2-0.9,0.2c0-0.1,0.9,0.4,1,0.4c0,0.1,0,0.1,0,0.1c-0.2-0.1-0.4-0.1-0.6-0.1c-0.7-0.4-2-0.1-2.8-0.3
		c-0.6-0.1-1.1,0-1.7,0c-0.5,0-1.4-0.2-1.9,0.1c-0.1,0-0.3,0.1-0.2,0.2c-0.1,0,0,0.1-0.1,0.2c0.1,0.4-0.1,0.7,0,1
		c-0.1,0-0.1,0.1,0,0.2c0.1,0,0.3,0.1,0.3-0.1c0.1-0.1,0.5,0,0.6,0.1c0-0.1,0.1-0.1,0.1-0.2c-0.2-0.2-0.6,0.1-0.8-0.2
		c0-0.3-0.1-0.6,0-0.9c0,0,0.1,0,0.1,0c0.5-0.2,0.8,0.2,1.3,0.2c0.2-0.1,0.5,0.1,0.8,0.1c0.2,0.1,0.5,0.1,0.7,0.2
		c0.2,0,0.3,0.1,0.5,0.1c0.3,0.2,2,0.1,2.4,0c-0.2-0.1-0.4-0.1-0.5-0.2c-0.7-0.1-1.5,0.5-2.1,0c-0.5,0,0.5-0.3,0.6-0.3
		c0.3-0.2,0.7,0.1,1-0.1c0.1,0.1,0.4-0.1,0.6-0.1c0,0,0.1,0,0.1,0c0,0,0.1,0,0.1,0c0.1-0.1,0.3,0,0.4,0c0.1,0.1,0.4,0,0.5,0.1
		c0,0.1-0.1,0.1-0.2,0.2c-0.1-0.1-0.1,0.7-0.1,0.5c0,0.2,0.2,0-0.1,0.3c-0.3,0-0.4,0.2-0.7,0.1c-0.2,0.2-0.5,0-0.6,0.2
		c-0.1,0-0.2-0.1-0.4-0.1c0,0.1,0,0.1,0.1,0.1c0.2,0.1,1.6,0.2,1.6,0.2c0.1,0,0.4,0.1,0.5-0.1c0.4-0.3,0.9-0.1,1.4-0.2
		c0.1-0.2,0.2-0.2,0.2-0.4c0,0-1.2-0.5-0.5-0.5c0.2-0.2,1.1-0.4,1.3-0.4c0.1,0.1,0.1,0.1,0.1,0.2c0.1,0,0.1,0,0.1,0
		c0,0.1,0,0.2-0.1,0.2c0,0.1,0,0.1,0.1,0.2c-0.1,0.2-0.5,0.1-0.7,0.2c0,0.1-0.2,0.1-0.2,0.3c0.2,0,1.1,0,1.1,0c0,0-0.1,0.4-0.1,0.5
		c0.1,0.1,0.3,0.1,0.4,0.1c0.2,0.1,0.6,0,0.8-0.1c0-0.1-0.1-0.1-0.1-0.2c0.1-0.1,0-0.3,0.2-0.3c0.2,0.1,0.8,0,0.4,0.4
		c0.1,0.1,0.1,0.2,0.1,0.3C65.7,52.8,65.6,52.6,65.8,52.5z M63.3,50.2c-0.2,0-0.3,0.1-0.4,0.2c0,0.1-0.2,0.1-0.3,0.2
		c-0.1-0.1-0.4,0-0.1-0.3c0.2,0,0.4,0,0.5-0.2c0,0,0.4-0.7,0.1-0.7c-0.1-0.1-0.1-0.4,0-0.5c0.1-0.1,0.2-0.2,0.2-0.3c0,0,0,0,0,0
		c0.2-0.1,0.5,0,0.6-0.2c0.1,0-0.1-0.2,0.1-0.3c0.2,0.1,0.3,0,0.5,0c0,0.2,0.1,0.4,0,0.6c-0.3,0.1-0.1,0.4-0.3,0.4
		c0,0-0.1-0.1,0-0.1c-0.1-0.2-0.2-0.1-0.3-0.1c-0.1,0.2,0,0.3-0.2,0.4c0,0.1-0.1,0.3,0,0.4c0.1,0.4,0.5,0,0.7,0.3
		c-0.2-0.1-0.3,0.1-0.4,0.1C63.8,50,63.5,50,63.3,50.2z"/>
	<path fill="#FFCC00" d="M65.5,52.8c0,0.1,0,0.1,0,0.2C65.5,52.9,65.5,52.8,65.5,52.8C65.5,52.8,65.5,52.8,65.5,52.8z"/>
	<path fill="#FFCC00" d="M67,46.9c-0.4-0.3-0.4-0.1-0.3-0.1c0,0,0,0.1,0,0.1C66.8,46.9,66.9,46.8,67,46.9z"/>
	<path fill="#FFCC00" d="M66.7,54.6c0-0.2,0.2-0.4,0-0.5c-0.4,0.1-0.5-0.5-0.9-0.5c-0.1-0.1-0.2-0.3,0-0.3c0.2-0.2,0.5-0.3,0.7-0.4
		c0.2,0,0.1,0.3,0.3,0.2c0.2,0,0.1-0.4,0-0.5c-0.1,0.1-0.3-0.1-0.4,0c-0.1,0.4-0.5,0.3-0.7,0.5C65.6,53,65.5,53,65.5,53
		c0,0.1,0,0.2,0,0.2c-0.2,0-0.1,0.1-0.1,0.2c0.1-0.2-1.4,0.5-1.3,0.5c0-0.2,0-0.5,0-0.7C64,53.2,64,53.1,64,53
		c-0.1-0.1-0.1-0.1-0.2-0.1c0.1,0.4,0.1,0.6,0.1,1c0.4,0.1,0,0.5,0,0.6c0.1,0.1,0.3-0.1,0.4,0c0,0.1,0.1,0.2,0.1,0.3
		c-0.1,0.1,0.1,0.4-0.1,0.5c-0.1,0-0.1-0.1-0.2-0.2c-0.1,0-0.1,0-0.2,0.1c0,0.2,0.3,0.1,0.3,0.3c0.1,0.1,0.1,0.2,0.2,0.3
		c0.2,0,0.2,0.2,0.3,0.2c0,0.2,0.3,0.1,0.5,0.1c0.1-0.1,0.1-0.2,0-0.3c-0.1,0-0.1-0.1-0.2,0c-0.1-0.2-0.2-0.1-0.3-0.1
		c0,0,0-0.1-0.1-0.1c0.1-0.1,0-0.2,0.1-0.2c0.1,0.3,0.8,0.3,1,0.3c0-0.2-0.1-0.5,0.2-0.6c0,0.1,0,0,0.1,0.1c0,0.3,0.1,0.4,0,0.6
		c-0.1,0-0.1,0.2-0.2,0.2v0.5l0.1,0.1c0.2,0,0-0.2,0.2-0.3c0-0.5,0.4-0.9,0.4-1.4C66.6,54.9,66.7,54.7,66.7,54.6z"/>
	<path fill="#FFCC00" d="M71,47c-0.4,0.1-0.8,0.2-1.3,0.2c-0.1-0.1-0.1-0.2-0.3-0.2c-0.1,0.2,0,0.5,0,0.7c0.1,0.1,0,0.2,0.1,0.3
		c0,0.2,0,0.4,0.2,0.6c0.2,0.2,0.5,0.1,0.6,0.1c0.2-0.1,0.3-0.3,0.4-0.4c0.1,0,0.2,0.1,0.3,0.1c0.2,0,0.4,0,0.5-0.2
		c0.3-0.2,0.1-0.5,0.1-0.8c0.1-0.3-0.2-0.4-0.1-0.7C71.3,46.5,71.3,46.8,71,47z"/>
	<path fill="#FFCC00" d="M37.8,48.8c0-0.1,0.1-0.1,0.1-0.2c0-0.2-0.5-0.2-0.6-0.3c-0.2,0-0.5,0-0.7,0.2h-0.1c0-0.2-0.1-0.3,0-0.6
		c-0.2-0.4-0.6-0.4-1-0.4c-0.2,0.1-0.3-0.1-0.5-0.1c-0.2-0.3-0.8-0.4-1.1-0.3c-0.4,0.2-0.2,0.2-0.4,0.6c0,0.1,0,0.8-0.1,0.9
		c0.2,0.2-0.1,0.7,0.1,0.9c0.3,0,0.5,0,0.8,0c0-0.1,0.2,0,0.2-0.2c0.2-0.2,2.7,0.5,2.7-0.1c-0.1,0-0.2,0-0.2,0
		C36.7,48.9,37.7,48.8,37.8,48.8z"/>
	<path fill="#FFCC00" d="M62,47.4c0-0.1,0.2-0.1,0.1-0.2c-0.1,0-0.3,0-0.5,0.1c-0.1,0-0.1,0.2-0.2,0.2c-0.2,0.2,0.2,0.2,0.2,0.4
		c0.1,0,0.1,0,0.2,0c0.1-0.1,0.5,0,0.5-0.2c0.1-0.2,0.3-0.1,0.4-0.2v-0.1c-0.1-0.1-0.3-0.1-0.4-0.1c-0.1,0.1-0.1,0.2-0.2,0.3
		c-0.1,0-0.2,0-0.3-0.1L62,47.4L62,47.4z"/>
	<path fill="#FFCC00" d="M44.8,48.2c-0.4,0-0.8-0.2-1-0.1c-0.3,0-0.6-0.1-0.9,0c0,0.1,0,0.1,0,0.1c0.8,0.1,1.7,0,2.5,0
		C45.2,48.2,45,48.1,44.8,48.2z"/>
	<path fill="#FFCC00" d="M46.9,48.5c0.1-0.2-0.1-0.2-0.1-0.3c-0.1,0.1-0.3,0.1-0.4,0.2c-0.3,0.1-0.4,0.3-0.6,0.4
		c0,0.1-0.1,0.3,0,0.5c0.3,0,0.4-0.5,0.8-0.5c0-0.2-0.1-0.1-0.2-0.1c0-0.1,0-0.1,0-0.1c0.2,0,0.1-0.3,0.3-0.3
		C46.9,48.2,46.8,48.4,46.9,48.5z"/>
	<path fill="#FFCC00" d="M51.5,48.2c-1.1-0.2-2.3-0.1-3.4,0v0.1C49.2,48.2,50.2,48.4,51.5,48.2L51.5,48.2z"/>
	<path fill="#FFCC00" d="M56.2,48.4c-0.2,0.2-0.3,0.3-0.6,0.4c0,0.2-0.3,0.2-0.4,0.4c0,0,0.1,0,0.1,0.1c0.5-0.1,0.8,0.1,1.2-0.1
		c0-0.1,0-0.1,0-0.2c-0.2-0.2,0.1-0.2,0.1-0.4C56.5,48.5,56.4,48.4,56.2,48.4z"/>
	<path fill="#FFCC00" d="M46.5,49c-0.1,0-0.2,0-0.3,0c-0.1,0.1,0,0.2-0.1,0.2v0.3c0.1,0,0.1,0,0.1,0.1c0.2,0,0.2-0.2,0.3-0.2V49z"/>
	<path fill="#FFCC00" d="M44,49.3c0.5,0.3,0.8,0,1.3,0.1C44.9,49.3,44.4,49.2,44,49.3z"/>
	<path fill="#FFCC00" d="M71.6,49.6c-0.2-0.1-0.1,0.2-0.3,0.2h-1.2c-0.1-0.1-0.2-0.2-0.3-0.4c-0.1,0-0.2,0.1-0.2,0.1
		c-0.1,0.2,0,0.5,0,0.8c0.3,0.2,0.1-0.2,0.4-0.2c0.2,0,0.4,0,0.5,0.1c0,0.1,0,0.1,0,0.2c0,0.4-0.5,0.3-0.8,0.4
		c-0.1,0.1-0.2,0.3-0.2,0.5c0.1,0.1,0.1,0.1,0.2,0.2c0.1,0,0.3,0.1,0.4,0c0,0-0.1,0-0.1-0.1c-0.1,0,0,0,0-0.1c0.3-0.1,0.5,0,0.7-0.2
		l0.1,0.1c0.2,0.1,0.5,0.2,0.7,0c0-0.1,0.1-0.2,0.1-0.3C71.6,50.5,71.8,50,71.6,49.6z"/>
	<path fill="#FFCC00" d="M40.7,49.8c-0.7,0.1-1.4,0-2.1-0.1c-0.1,0-0.2,0.1-0.2,0.2c0.5-0.1,0.9,0,1.4,0c0.4,0.1,0.9,0,1.4,0
		c0.1,0,0.1,0.1,0.2,0c0.7,0,1.2-0.1,1.8,0c0.5-0.1,1,0,1.5,0l-0.2-0.1c-0.2,0-0.5-0.1-0.6,0C43.2,49.6,41.4,49.7,40.7,49.8z"/>
	<path fill="#FFCC00" d="M46,49.6c-0.2,0-0.4,0-0.4,0.2c-0.1,0.1-0.2,0.3-0.1,0.5c-0.1,0.3-0.1,0.5-0.2,0.8
		c-0.2,0.1-0.1,0.4-0.3,0.5c0.1,0.1-0.1,0.1,0,0.2c-0.2,0.1-0.2,0.3-0.2,0.4c-0.3,0.4-0.5,1-0.4,1.5c0.1,0.1,0.1,0.3,0.2,0.4
		c0.1,0.1,0.2,0,0.3,0C45,54.2,45,54,45.1,54c0.1-0.1,0.2-0.3,0.1-0.4c0,0,0.1-0.1,0.2-0.2c0-0.1,0-0.3,0.1-0.4
		c0.2,0,0.1-0.2,0.2-0.3c0-0.2,0.2-0.3,0.1-0.5c0.1-0.1,0-0.2,0.1-0.3c-0.1-0.2,0.2-0.4,0.1-0.7c-0.1,0-0.2,0.1-0.3,0
		c0-0.2,0-0.3,0.1-0.4c0.3,0.1,0.1-0.4,0.3-0.5c0.1,0,0.3,0.1,0.3,0l-0.2-0.2c0-0.1,0.1-0.1,0.2-0.3C46.4,49.7,46.2,49.8,46,49.6z"
		/>
	<path fill="#FFCC00" d="M46.4,49.8C46.4,49.9,46.5,49.9,46.4,49.8L46.4,49.8z"/>
	<path fill="#FFCC00" d="M48.8,49.9c-0.1,0-0.1,0.1-0.1,0.2c0.1,0.1,0,0.2,0.2,0.3c0,0,0.1,0,0.2-0.1c0,0,0-0.2-0.1-0.2v-0.2
		C48.9,49.8,48.8,49.9,48.8,49.9z"/>
	<path fill="#FFCC00" d="M37.3,50.1c-0.1-0.1-0.4,0-0.6,0h-0.4C36.6,50.2,36.9,50.2,37.3,50.1z"/>
	<path fill="#FFCC00" d="M36.2,50.1c-0.7-0.4-1.6-0.1-2.4-0.1c0.4,0,0.8,0,1.2,0C35.4,49.9,35.8,50,36.2,50.1z"/>
	<path fill="#FFCC00" d="M36.3,50.1C36.2,50.1,36.2,50.1,36.3,50.1C36.2,50.1,36.2,50.1,36.3,50.1L36.3,50.1z"/>
	<path fill="#FFCC00" d="M29.2,51.7c0-0.2-0.3-0.1-0.3-0.3c0-0.1,0-0.3,0.1-0.4h1c0.1,0,0.2,0,0.3,0c0.1,0,0.1,0.2,0.2,0.2
		c0,0,0,0.1,0.1,0.1c0.2-0.2,0.1-0.5,0.1-0.7c0-0.1-0.1-0.3-0.1-0.4c-0.3-0.1-0.2,0.2-0.3,0.3c-0.5,0.2-1,0.1-1.4,0.1l-0.1-0.1
		c0-0.2,0-0.3,0.1-0.5c0.1-0.1,0.2,0,0.2-0.1c-0.2,0-0.3,0-0.4,0c-0.1,0.6,0,1.2,0,1.8C28.8,51.8,29,51.7,29.2,51.7z"/>
	<path fill="#FFCC00" d="M50.5,50.9c0.4,0-0.1-0.7-0.4-0.7c0,0.2,0.1,0.4,0,0.6C50.2,50.8,50.4,50.9,50.5,50.9
		C50.5,50.9,50.5,50.9,50.5,50.9z"/>
	<path fill="#FFCC00" d="M48.3,51.6C48.4,51.7,48.4,51.7,48.3,51.6C48.4,51.7,48.4,51.7,48.3,51.6z"/>
	<path fill="#FFCC00" d="M48.4,50.8c0.1,0,0.2,0.1,0.2,0.2c0.1,0,0.2,0,0.2-0.1c-0.1-0.1-0.2-0.2-0.3-0.3c0,0-0.5-0.4-0.5,0
		c-0.3,0.3,0,0.9,0.1,1.2c0-0.1,0.1-0.3,0.2-0.2c0,0,0-0.1,0-0.1c-0.4,0,0-0.6,0-0.7H48.4z"/>
	<path fill="#FFCC00" d="M50.3,51.6c0.1-0.1,0-0.2,0.1-0.3c-0.4,0-0.7,0-0.7-0.5c-0.2,0-0.3,0.1-0.5,0.1c-0.1,0.3,0.1,0.4,0,0.6
		c-0.4,0.1,0,0.5-0.3,0.7c0.1,0,0.1,0,0.1,0c0.1,0.1,0.3,0.1,0.4,0.1c0-0.1,0.1-0.2,0.2-0.1c0.1,0,0.1-0.1,0.1-0.1
		c-0.1-0.1-0.3,0-0.4-0.2c-0.1,0-0.1-0.1-0.1-0.1c-0.2-0.2,0.3-0.3,0.5-0.1c0,0.2,0.2,0.5,0,0.7c0,0,0.2,0,0.2-0.1
		c0.1,0,0,0.2,0.1,0.2c0.2,0.1,0.1-0.2,0.2-0.2c0-0.1,0-0.2,0-0.3c-0.1,0-0.2,0-0.3,0C49.6,51.7,50.2,51.7,50.3,51.6z"/>
	<path fill="#FFCC00" d="M57.4,53.3c0,0,0-0.1,0-0.1C57.4,53.3,57.3,53.3,57.4,53.3z"/>
	<path fill="#FFCC00" d="M52.2,52.8C52.2,52.8,52.2,52.8,52.2,52.8c0,0-0.1,0-0.1,0.1c0,0,0,0,0,0.1C52.2,52.9,52.3,52.9,52.2,52.8z
		"/>
	<path fill="#FFCC00" d="M52.2,52.6v0.1C52.2,52.7,52.1,52.6,52.2,52.6c-0.1,0,0,0.1,0,0.1C52.2,52.7,52.2,52.7,52.2,52.6z"/>
	<path fill="#FFCC00" d="M52.2,52.6C52.2,52.6,52.2,52.6,52.2,52.6C52.2,52.6,52.2,52.6,52.2,52.6z"/>
	<path fill="#FFCC00" d="M55.6,53.6c-0.1,0-0.1,0.1-0.1,0.2c0.2,0,0.3-0.1,0.5,0c0.1-0.1,0-0.1,0-0.2c0.1,0,0.1,0,0.1,0
		c0,0,0.1,0,0.1,0.1c0,0,0,0,0-0.1c0,0-0.1,0-0.1-0.1c0,0.1-0.1,0-0.1,0c0-0.1-0.1-0.1-0.1-0.2c-0.1,0-0.5,0.1-0.5,0.3
		c0.1-0.1,0.4-0.1,0.5,0C55.9,53.7,55.7,53.6,55.6,53.6z"/>
	<path fill="#FFCC00" d="M56.2,53.7c0,0.1,0,0.1,0,0.2C56.3,53.8,56.2,53.8,56.2,53.7z"/>
	<path fill="#FFCC00" d="M57.4,53.2C57.4,53.2,57.4,53.1,57.4,53.2c0-0.1,0-0.1,0-0.1C57.4,53.1,57.4,53.2,57.4,53.2z"/>
	<path fill="#FFCC00" d="M56,53.1c0.1-0.2,0.4-0.1,0.6-0.1c0.1,0.1,0.1,0.4,0.1,0.6l-0.1,0.1c0,0.1,0.2,0,0.2,0.1
		c0.1,0.2-0.2,0.2-0.3,0.3c0.2,0.2,0.4-0.1,0.6-0.1c0.2,0,0.2,0.2,0.2,0.3c0.3,0.1,0.6,0.1,0.9,0.1c0.2-0.1,0.4,0.1,0.6,0l-0.4-0.1
		c-0.2-0.1-0.4,0.1-0.5-0.1c0-0.1,0-0.2,0.1-0.2c0-0.3,0.4,0,0.6-0.3c-0.2,0-1.1,0.2-1.1-0.2c0,0.1-0.1,0.1-0.1,0.2
		c-0.1,0.1-0.2,0.1-0.3,0.1c-0.1-0.1-0.2-0.1-0.2-0.2c0.2-0.2,0-0.4,0-0.5c0.3,0,0-0.5,0.5,0c0,0,0,0,0-0.1c0.1,0,0.1-0.1,0.2-0.1
		c0-0.1-0.2-0.1-0.2-0.2c0.2,0,0.4,0,0.6-0.1c-0.1-0.1-0.4,0-0.6-0.1c0-0.2,0.4,0,0.4-0.2c-0.1-0.1-0.3-0.1-0.5-0.1
		c0,0,0.1,0.2,0,0.2c0,0.2-0.2,0.1-0.3,0.2c0.1,0.1,0.2,0.1,0.3,0.1c0.1,0.1,0,0.2,0,0.2c-0.4-0.1-1.7,0.1-2-0.2
		c0.1-0.1,0.1-0.2,0.2-0.2c0,0,0.1-0.1,0-0.2c0.1-0.1,0-0.2,0-0.3c-0.2,0.1-0.1,0.3-0.2,0.5c-0.1-0.1-0.3,0-0.5,0v0.1h0.1
		c0,0.1,0.1,0.1,0.1,0.2c-0.2,0.3-0.6,0-0.9,0.1c-0.2-0.1-0.3-0.1-0.4-0.1c0-0.1,0-0.2,0-0.2c0.1,0,0.1,0.1,0.2,0.1
		c0.1-0.1,0.2-0.2,0.3-0.2c-0.1,0-0.2,0-0.3-0.1c0-0.1,0.1-0.1,0.1-0.1v-1.4c-0.1-0.1-0.2-0.1-0.4-0.1c0,0.4,0,0.9,0,1.4l0.1,0.1
		c-0.2,0.2-0.5-0.1-0.7,0.1c-0.1,0.1,0,0.2-0.1,0.3c0.1,0.1-0.1,0.2,0,0.3c-0.2,0.4-0.6,0.2-0.8,0c0,0-0.1,0.1,0,0.1
		c0.1,0,0.1,0.2,0.2,0.3c0.2,0.1,0,0.3,0.2,0.4c0.4,0,0.7,0.1,1.1,0.1c0.1,0.1,0.2,0.2,0.4,0.2c0.2-0.2,0.4,0,0.6-0.1
		c-0.1-0.1-0.2-0.1-0.3-0.2c0.3-0.2,0.6-0.1,0.9-0.1c0-0.3,0-0.5,0-0.7c0.3-0.5,0.6,0.3,0.7,0.3C56,53.3,56,53.2,56,53.1z"/>
	<path fill="#FFCC00" d="M56.2,53.7C56.2,53.7,56.2,53.7,56.2,53.7C56.2,53.7,56.2,53.7,56.2,53.7z"/>
	<path fill="#FFCC00" d="M53.1,51.5c0-0.2-0.2-0.2-0.2-0.4c-0.3-0.2-0.4-0.2-0.8-0.2c-0.1,0.1-0.1,0.3,0,0.3l0.1-0.1l0.1,0.1
		c0.1,0,0,0.1,0,0.1c0,0.1,0,0-0.1,0c0,0.1,0,0.1,0,0.2C52.5,51.4,52.8,51.4,53.1,51.5z"/>
	<path fill="#FFCC00" d="M36.7,53.3c0.6-0.1,1,0.1,1.6-0.1c0-0.1,0.2-0.1,0.2-0.3c0.1-0.1,0.1-0.3,0.2-0.4c0-0.2,0.2-0.4,0.2-0.6
		c-0.4,0-0.7,0-1.1,0c-0.1,0-0.2,0.2-0.4,0.1c-0.2-0.3,0.3-0.1,0.3-0.3s0.1-0.3,0-0.4l-0.2-0.2c-0.2,0-0.3,0-0.5,0.1
		c-0.2,0.2,0,0.5-0.2,0.6c-0.3,0-0.7-0.1-1,0v0.1c-0.3,0.2-0.5,0.6-0.7,0.9c0,0.1,0,0.3-0.1,0.3c0,0.1,0,0.2,0.1,0.2
		C35.5,53.4,36.2,53.4,36.7,53.3z"/>
	<path fill="#FFCC00" d="M52.2,51.7c0-0.1,0-0.1,0-0.2C52.2,51.5,52.2,51.6,52.2,51.7z"/>
	<path fill="#FFCC00" d="M52.2,51.9C52.2,51.9,52.1,52,52.2,51.9L52.2,51.9z"/>
	<path fill="#FFCC00" d="M52.2,51.7C52.2,51.7,52.2,51.7,52.2,51.7C52.2,51.7,52.2,51.7,52.2,51.7z"/>
	<path fill="#FFCC00" d="M52.2,52c0-0.1,0-0.1,0-0.2c0,0,0,0,0-0.1C52.2,51.8,52.2,51.9,52.2,52z"/>
	<path fill="#FFCC00" d="M30.7,54c0,0.1,0.1,0.1,0.2,0.1c-0.1-0.3-0.1-0.6-0.2-0.8c-0.2-0.1-0.1,0.2-0.3,0.2c-0.1,0-0.2-0.1-0.3-0.1
		c-0.1-0.3-0.1-0.6,0-0.8c0.3-0.3,0.4,0.2,0.6,0.1c0.1-0.2,0-0.4,0-0.6c-0.2,0,0-0.3-0.2-0.2c-0.1,0.1-0.2,0.2-0.2,0.3
		c-0.2,0.1-0.4,0.3-0.6,0.3c-0.3,0.2-0.6,0.3-0.9,0.5c0,0.1-0.1,0.2,0,0.3c0,0.4,0.6,0.3,0.9,0.4C30,53.8,30.3,53.9,30.7,54z"/>
	<path fill="#FFCC00" d="M70.2,52.3c-0.2,0-0.3-0.1-0.4-0.2c0,0,0,0.1-0.1,0.1c-0.1,0.2-0.1,0.5-0.1,0.7c0.1,0,0.1-0.1,0.2-0.2
		c0.1,0,0.2,0,0.3,0.1c0,0.1,0.1,0.1,0,0.2c0.1,0.2-0.1,0.3,0,0.4c-0.1,0.1-0.2,0.2-0.3,0.2c-0.1,0-0.1-0.1-0.2-0.2
		c-0.1,0,0,0.1-0.1,0.2c0,0.2-0.3,0.4-0.1,0.6c0.2,0.1,0.3-0.2,0.5-0.2c0.5-0.2,1.1-0.1,1.6-0.4c0-0.1,0-0.3,0-0.4
		c-0.1-0.1-0.3-0.3-0.4-0.3C70.8,52.7,70.5,52.5,70.2,52.3z"/>
	<path fill="#FFCC00" d="M52.2,52.4c0-0.1,0-0.1-0.1-0.2L52.2,52.4z"/>
	<path fill="#FFCC00" d="M52.2,52.5l0-0.1C52.2,52.4,52.2,52.5,52.2,52.5z"/>
	<path fill="#FFCC00" d="M62,52.4L62,52.4c0.1,0.1,0.1,0.2,0.2,0.2c0.1,0.2,0.4,0.3,0.4,0.6c0.2-0.2,0,0.3,0.2,0.3
		c0,0.3,0.2,0.4,0.2,0.7c0.1,0,0,0.2,0.1,0.2c0,0.1,0.1,0.2,0,0.3c0,0.1,0.1,0.9,0,1c0.1,0.3-0.1,0.6,0,0.9c-0.1,0,0,0.1-0.1,0.1
		c0,0.1,0,0.1,0,0.1v0.1c-0.1,0.2-0.1,0.4-0.1,0.7c0.2,0.1,0.3,0,0.5,0c0,0,0-0.1,0.1-0.1c0.2-0.3,0-0.7,0.1-1.1
		c0.2-0.1,0-0.2,0.2-0.3c0.1,0,0.2,0,0.2,0.1c0.1,0.1,0.1,0.2,0,0.3c0,0.4,0,0.7,0,1.1c0,0.1,0.1,0,0.2,0c0-0.4,0-0.7,0-1.1
		c0-0.2,0-0.3,0-0.5c-0.1-0.2-0.3,0-0.5,0c-0.1,0.1-0.2,0.2-0.3,0.1c0.1-0.2,0-0.3,0.1-0.4c-0.1-0.2,0-0.3,0-0.5
		c-0.2-0.2-0.2-0.5-0.2-0.7c-0.3-0.1,0-0.4-0.2-0.6c0-0.1,0-0.3-0.1-0.4c-0.1,0-0.1-0.1-0.1-0.2c-0.1-0.1-0.3-1-0.5-1
		C62.4,52.5,62.1,52.4,62,52.4z"/>
	<path fill="#FFCC00" d="M48.2,54.2L48.2,54.2c0.2-0.4,0-0.9,0-1.4c-0.2,0-0.1-0.3-0.2-0.3C47.6,52.8,48,53.9,48.2,54.2z"/>
	<path fill="#FFCC00" d="M38.1,53.9c-0.9-0.1-1.8,0.1-2.7,0c0,0.3-0.1,0.6,0,0.9c0.4-0.1,0.7,0,1.1-0.1c0.4-0.3,0.6,0.3,1,0.2
		c0.2-0.1,0.5-0.1,0.7,0.1c0.1,0,0.3,0.2,0.4,0.1v-0.9c0.2-0.2,0.6-0.1,0.8-0.1c0.1,0.1,0.1,0.3,0.1,0.5c0.1,0,0.1,0.1,0.1,0.2
		c0.1-0.3-0.1-0.6,0-0.9c0.1-0.1,0-0.3,0-0.4s0-0.1-0.1-0.1c-0.1-0.2-0.3-0.3-0.3-0.5c-0.1,0-0.1-0.1,0.1-0.3c-0.1,0-0.2,0-0.2,0
		c-0.2,0.2-0.3,0.6-0.5,0.8C38.5,53.7,38.3,53.9,38.1,53.9z"/>
	<path fill="#FFCC00" d="M50.1,53.2c0,0-0.1,0.1-0.1,0.1c0.1,0.1,0.2,0,0.3,0.1C50.2,53.3,50.2,53.2,50.1,53.2z"/>
	<path fill="#FFCC00" d="M48.7,52.5c-0.1,0.4-0.2,0.7,0,0.6C48.6,53,48.7,52.8,48.7,52.5z"/>
	<path fill="#FFCC00" d="M49.6,53.3C49.6,53.3,49.6,53.3,49.6,53.3C49.6,53.4,49.6,53.4,49.6,53.3c-0.1,0.2-0.1,0.3-0.2,0.4
		c0,0-0.7,1.2,0,0.5c0.3-0.1,0.2-0.5,0.5-0.5c0.1-0.1,0-0.2,0-0.4c0,0,0,0,0.1,0c0,0-0.1,0-0.1-0.1C49.8,53.2,49.7,53.2,49.6,53.3z"
		/>
	<path fill="#FFCC00" d="M48.8,53.1C48.9,53.1,48.8,53,48.8,53.1L48.8,53.1z"/>
	<path fill="#FFCC00" d="M51.4,56.1c-0.1-0.2-0.3,0-0.4-0.1c-0.2-0.1,0.2-0.1,0.2-0.2c0-0.2,0-0.5-0.1-0.6c0-0.3-0.1-0.6-0.1-0.9
		c0-0.1,0-0.2-0.1-0.3c0.2-0.3-0.5-0.5-0.6-0.6c-0.2,0.2-0.2,0.5-0.2,0.7c-0.1,0.1,0,0.3-0.1,0.4c0,0.2,0,0.5,0,0.7
		c0.1,0,0.1,0.1,0.1,0.1c0.1,0.1,0.2,0,0.3,0.1c-0.2,0.1-0.4,0.2-0.5,0.4c0.1,0-0.1,0.2,0.1,0.2c0.1,0,0.2,0,0.3-0.1
		c0,0.1-0.1,0.1-0.2,0.1c0,0.2-0.2,0.1-0.2,0.3c0,0-0.1,0.2,0,0.2c0,0,0.1-0.1,0.2-0.2c0.4,0,0.8-0.1,1.1,0
		C51.3,56.3,51.3,56.2,51.4,56.1z"/>
	<path fill="#FFCC00" d="M49.1,53.4c0-0.1-0.2-0.1-0.3-0.3c-0.1,0-0.1,0-0.1,0c0.2,0.7,0.1,0.4,0.5,0.4c0,0,0,0,0.1-0.1
		C49.2,53.4,49.2,53.4,49.1,53.4z"/>
	<path fill="#FFCC00" d="M49.4,53.3c-0.1,0.1-0.1,0.1-0.1,0.1c0.1,0,0.2,0,0.3-0.1C49.5,53.3,49.5,53.3,49.4,53.3z"/>
	<path fill="#FFCC00" d="M47.2,66.7c0.1,0.1,0.2,0.1,0.3,0.1c0.1-0.1,0.1-0.3,0.1-0.4c0,0,0,0,0-0.1c0.1,0,0.1-0.1,0-0.2h-0.1
		l0.1-0.1c0-0.1,0-0.9,0-0.9c0-0.9-0.4-2.5,0.3-3.2c0.1,0,0.2-0.1,0.3-0.1c0.1-0.3,0.5,0,0.1-0.5c-0.1-0.2-0.6-0.2-0.7-0.4
		c0.1-0.1,0-0.3,0.1-0.4c0-0.1,0.1-0.1,0.1-0.2c0.3,0,0.5-0.4,0.5-0.7c0.1-0.1,0.1-0.3,0.2-0.3c0-0.1-0.1-0.8,0.1-0.8
		c0.1-0.1,0.3-0.2,0.4-0.4c0.1,0,0.1-0.2,0.2-0.2c0-0.1,0.4-0.6,0.3-0.7c-0.1,0.1-0.1,0-0.2,0c-0.1-0.1-0.1-0.1-0.1-0.2
		c0.2-0.2,0.2-0.5,0.4-0.7c0-0.6,0-1.2,0-1.7c-0.1-0.1-1,0.4-1.4,0.2c-0.5-0.3-0.2-1-0.8-1.3c0-0.3,0.2-0.7,0.1-1
		c-0.1,0.1-0.1,0,0,0c-0.1,0-0.2,0-0.3-0.1c-0.2,0-0.5,0-0.7,0.2c-0.1,0.1,0.1,0.3,0,0.3c-0.1,0,0-0.1-0.1-0.1
		c0-0.2-0.2-0.1-0.3-0.1c0.6,0.4-0.3,1.9-0.5,1.7c-0.1-0.1,0.3-0.4,0.3-0.5c0.1,0,0.1,0,0.1,0c0.1-0.1,0.1-0.2,0.1-0.3
		c0.1,0,0-0.1,0.1-0.2c0-0.1,0-0.1,0-0.2c-0.1-0.1-0.3-0.6-0.5-0.4c0,0,0,0.1,0.1,0.1c0.1,0.1,0.1,0.2,0.1,0.3
		c-0.2,0.2-0.1,0.5-0.3,0.6c0.1,0.1,0,0.1,0,0.2c-0.2,0.1-0.3,0.4-0.6,0.4v0.1h0.1c0.2,0.3,0.5-0.1,0.7,0.2c0.1,0,0.2-0.1,0.3,0
		c0,0.5-0.4,1.4,0.4,0.9c-0.3,0.2-0.6,0.4-0.8,0.5c0,0.1-0.2,0.9-0.3,0.9c0,0.2,0,1.4-0.2,1.4c0,0.3,0,0.7,0,1c-0.1,0.2,0,0.5,0,0.7
		c0.1,0.1,0,0.6,0,0.6c-0.1,0.3-0.2,1.4,0.1,1.7c0,0,0.1,0.6,0.2,0.7c0,0.1,0.4,0.2,0.5,0.2c0,0.1,0.2,0.2,0.2,0.3
		c0.2,0.3,0.6,0.4,1,0.3l0.1,0.1c0,0.4,0.1,1.1-0.1,1.5c0.2,0.2,0,0.4,0.1,0.5c-0.2,0.2,0,0.4-0.1,0.6V66.7z M47.3,54.1
		c0,0.2,0,0.4-0.1,0.6C47.2,54.5,47.2,54.3,47.3,54.1z"/>
	<path fill="#FFCC00" d="M60.8,54.1C60.7,53.9,60.7,54.1,60.8,54.1L60.8,54.1z"/>
	<path fill="#FFCC00" d="M61.4,56.4c0.1,0,0.1,0.1,0.2,0.1c0-0.1,0.2-0.3,0-0.4c0.2-0.2,0-0.3,0.3,0c0.3,0,0.1,0.2,0.2,0.3l0.2-0.1
		c0-0.5,0.3,0,0.5-0.1c0.1-0.2-0.2-0.1-0.2-0.3c-0.2-0.4,0.2-0.2-0.1-0.6c0-0.1-0.4-0.3-0.5-0.4c0-0.2-0.2,0-0.3-0.1
		c-0.1-0.2,0.2-0.1,0.1-0.3c0-0.2-0.9-0.1-1-0.4c-0.2,0.1-0.4-0.1-0.6,0c0,0.1-0.1,0.1-0.1,0.3h0.2c0.1,0.1-0.2,0.1-0.2,0.2
		c-0.1,0.2-0.2,0.3-0.4,0.3c0-0.1,0-0.1,0-0.1c-0.1-0.1-0.2,0.1-0.4,0c-0.1-0.1-0.1,0-0.2,0.1c-0.3-0.1-0.4,0.2-0.6,0.2
		c-0.1,0.3-0.5,0.3-0.7,0.5c-0.2-0.1,0-0.3-0.1-0.4c0-0.1-0.1-0.1-0.2-0.1s-0.2,0-0.2,0.1c0.1,0.4-0.4,0.3-0.6,0.5
		c0,0-0.2,0-0.2,0.1c0.1,0.2,0.3,0,0.5,0.1c-0.1,0.2-0.3,0.2-0.5,0.3v0.1c-0.1,0.1-0.3,0.1-0.4,0.2c0,0.1,0.1,0.1,0.1,0.2
		c0,0.1-0.1,0.1-0.1,0.1c-0.1,0.1-0.1,0.3-0.2,0.3c0.1,0.2-0.3,0.3-0.1,0.5c0.1,0,0.1-0.1,0.2-0.1c0-0.1,0.2,0,0.2-0.2
		c0.1-0.1,0.3-0.1,0.5-0.1c0,0,0,0,0,0c-0.1,0-0.2,0-0.3,0.1c0.2-0.1,0.5,0,0.6-0.2s-0.1-0.3-0.1-0.4c0-0.1,0-0.1,0.1-0.1
		c0-0.1,0.1-0.1,0.2-0.2c0.1-0.1,0.1-0.4,0.4-0.4c0.2-0.2,0.4,0.1,0.6-0.1h0.1c-0.1,0.2,0.1,0.1,0.2,0.2c0.1,0,0.1,0.1,0.1,0.2h-0.1
		c-0.1,0-0.1-0.1-0.1-0.1h-0.2c-0.2,0.2-0.3-0.1-0.5-0.1c-0.3-0.1-0.3,0.3-0.5,0.4c-0.1,0.1,0.1,0.2-0.1,0.2v0.2
		c0.3-0.1,0.6-0.2,0.9-0.1c0.1,0.1,0.4,0.1,0.5-0.1c0.1-0.1,0.2-0.2,0.4-0.2c-0.1-0.1,0-0.1,0-0.1c-0.1-0.2,0.2-0.1,0.2-0.3
		c0-0.1,0.2,0,0.2,0.1l-0.1,0.1c-0.1,0.1,0,0.2,0.1,0.2c0.1,0.1,0,0.1,0,0.2c0.2,0.1,0.5,0.3,0.7,0.1c0.1-0.3,0.4-0.1,0.6-0.2
		c0.1,0,0.1-0.3,0.3-0.3C61.1,56.5,61.3,56.2,61.4,56.4z"/>
	<path fill="#FFCC00" d="M31.3,55.6C31.3,55.6,31.3,55.6,31.3,55.6C31.3,55.6,31.3,55.6,31.3,55.6z"/>
	<path fill="#FFCC00" d="M31.6,56.3c-0.1-0.2-0.1-0.5-0.2-0.6c0,0-0.1-0.1-0.1-0.1c0,0.1,0.1,0.2,0,0.4c-0.1,0.1-0.2,0.2-0.3,0.2
		s-0.3,0.1-0.4-0.1c-0.1-0.3,0.2-0.3,0.2-0.5c-0.2,0-0.5,0-0.7,0.2c0,0.1,0.2,0,0.2,0.1c0.1,0.1,0.2,0.2,0.2,0.3
		c-0.1,0.1-0.2,0.2-0.4,0.2c-0.2,0-0.3-0.1-0.3-0.2c-0.1,0-0.2-0.1-0.2,0c0.1,0.2,0,0.4,0.1,0.6c0.1-0.1,0.1,0.1,0.2,0.1
		c0.1,0,0.1-0.1,0.1-0.1c0.3-0.4,0.8-0.4,1.3-0.5C31.4,56.3,31.5,56.4,31.6,56.3z"/>
	<path fill="#FFCC00" d="M31.3,55.3c0,0.1,0,0.1,0,0.1V55.3c-0.1-0.2-0.2-0.4-0.2-0.6c-0.1-0.1-0.2,0-0.1,0.1
		c-0.1,0.1-0.3,0.1-0.4,0.2c0.1,0.2,0.4,0.1,0.5,0.3c0.1,0,0.1,0.2,0.2,0.2c0,0,0,0.1,0,0.1C31.3,55.5,31.4,55.4,31.3,55.3z"/>
	<path fill="#FFCC00" d="M70.7,55.2c-0.2-0.1-0.6-0.1-0.7,0.1c-0.3,0.2-0.3,0.6-0.5,0.8c-0.1,0.1-0.2,0.1-0.3,0.1
		c-0.2-0.2,0-0.3-0.1-0.5c0.2-0.2,0.2-0.4,0.5-0.5c0.2-0.1,0.4,0,0.5-0.2c-0.2-0.2-0.6-0.2-1.3,0c-0.1,0-0.1,0-0.1,0.1
		c0.2,0,0.1,0.1,0.1,0.2c-0.3,0.3-0.3,0.7-0.3,1c0.1,0.1,0.2,0.3,0.3,0.3c0.1,0,0.1,0,0.1,0.1h0.3c0.2,0,0.4-0.1,0.5-0.3
		c0.1-0.1,0.2-0.2,0.2-0.3c0.2-0.1,0.1-0.3,0.3-0.4c0.1,0,0.2-0.1,0.3,0c0.1,0,0.2,0.1,0.1,0.2c0,0.1,0,0.3-0.2,0.4
		c-0.1,0.1-0.5,0.1-0.5,0.3c0.3,0.1,0.5,0.2,0.7,0.2c0.1,0,0-0.1,0-0.2c0,0,0.1-0.1,0-0.1l0.1-0.1c0.1-0.1,0.2-0.1,0.2-0.2
		C70.9,55.8,71.1,55.4,70.7,55.2z"/>
	<path fill="#FFCC00" d="M29.6,55.3c0.1-0.1,0.3-0.1,0.3-0.3c-0.1-0.1-0.3,0-0.5-0.1c-0.2,0-0.2,0.2-0.2,0.3c0.1,0.1,0,0.3,0.1,0.3
		c0,0.1,0.2,0.2,0.1,0.3l0.1,0.1c0.1-0.1,0.1-0.2,0-0.2C29.6,55.6,29.5,55.4,29.6,55.3z"/>
	<path fill="#FFCC00" d="M53.4,60.8c-0.1,0.1-0.2,0.1-0.3,0.2C53.3,61,53.4,60.8,53.4,60.8z"/>
	<path fill="#FFCC00" d="M49.1,62.6c0,0-0.1,0-0.2,0C49,62.6,49,62.6,49.1,62.6z"/>
	<path fill="#FFCC00" d="M41.2,55.7C41.1,55.8,41.2,55.8,41.2,55.7L41.2,55.7z"/>
	<path fill="#FFCC00" d="M40.3,55.6c-0.2-0.1-0.4,0-0.6,0.1c0,0.1,0,0.2-0.1,0.3c0,0-0.1,0.1-0.1,0h-0.1c0,0.3-0.4,0.2-0.5,0.3
		c-0.1-0.1-0.1-0.2-0.1-0.3c-0.1,0-0.1-0.1-0.1-0.1L38.6,56c0,0.2-0.2,0.3-0.2,0.4c0.3,0,0.5-0.1,0.7-0.1c0.2-0.2,0.6,0,0.8-0.2
		c0.2,0.1,0.4-0.1,0.6-0.1c-0.1-0.3,0.2-0.1,0.3-0.3c0.1,0.1,0.1,0,0.3,0c-0.1,0-0.2,0-0.3-0.1C40.6,55.6,40.5,55.7,40.3,55.6z"/>
	<path fill="#FFCC00" d="M41.1,55.7c0.1,0,0.1,0,0.1,0C41.1,55.7,41.1,55.7,41.1,55.7z"/>
	<path fill="#FFCC00" d="M37.2,57c-0.1,0.1-0.1-0.1-0.2-0.1L36.9,57c0,0.1,0,0.1,0,0.2c0.1,0,0.3-0.2,0.4,0c0-0.2,0.2-0.3,0.4-0.4
		c0.2,0,0.5,0,0.6-0.2v-0.1c-0.1,0-0.2,0-0.3,0c-0.1,0.1-0.2,0.1-0.3,0.1c-0.1,0.2-0.3,0-0.4,0.1c0,0,0,0,0,0
		C37.3,56.7,37.3,56.8,37.2,57L37.2,57z"/>
	<path fill="#FFCC00" d="M37.3,56.5c0-0.1,0.1-0.1,0.1-0.2C37.3,56.3,37.3,56.4,37.3,56.5z"/>
	<path fill="#FFCC00" d="M37.3,56.5c0,0.1,0,0.1,0,0.2C37.3,56.6,37.3,56.5,37.3,56.5z"/>
	<path fill="#FFCC00" d="M64.2,57.7c-0.1,0.1-0.2,0.1-0.2,0.2c0,0.2-0.1,0.3-0.2,0.4c-0.1,0-0.1,0.2-0.2,0.2c0,0.2,0,0.3-0.1,0.4
		c-0.4,0.1-0.1,0.4-0.2,0.6c-0.3,0.3-0.7,0.3-1.1,0.2c-0.1,0-0.2,0.1-0.3,0c0-0.4,0.7-0.1,0.8-0.2c0,0,0-0.1,0.1-0.1
		c0-0.1,0.4-0.8,0.5-0.9c0-0.1,0.2-0.2,0.2-0.3c0.2-0.1,0.1-0.3,0.1-0.5h-0.2c-0.5,0.4-0.8-0.2-1.3-0.2c-0.1-0.1,0-0.2,0-0.3
		c-0.3-0.1-0.3,0.2-0.5,0.4c0.1-0.3-0.2-0.4-0.1-0.7c-0.1-0.1-0.1-0.1-0.1-0.2c-0.1-0.1-0.2,0-0.5-0.4c0,0.1,0.2,0.5,0.1,0.6
		c0.1,0.1,0,0.3,0.2,0.4c0,0-0.5,0.4-0.5,0.4c-0.1,0,0.7,0.4,0.7,0.4c0.1,0,0.2-0.2,0.3,0c-0.1,0.1-0.2,0.2-0.3,0.2
		c-0.5,0-0.9-0.4-1.4-0.2V58c0.1-0.1,0.2-0.3,0.1-0.5c-0.5-0.1-0.8-0.3-1.1-0.6c-0.1-0.1-0.3,0-0.4,0c0,0-0.1,0-0.1,0.1
		c-0.1,0-0.1,0.2-0.2,0.3c0,0.2-0.2,0.4-0.3,0.5c-0.2-0.1-0.4-0.1-0.7-0.1c-0.3,0.1-0.2,0.4-0.5,0.5c0,0.2,0.1,0.3,0.1,0.4
		c0.2,0,0.4,0.1,0.5,0.2c0,0.1,0.1,0.2,0.1,0.3l0.1,0.1c-0.1,0,0,0.1,0,0.1c-0.1,0.1,0,0.3,0,0.4c-0.1,0.3-0.4-0.2-0.6,0.1
		c-0.2,0.4-0.7,0.2-1,0.3c0-0.1-0.2-0.1-0.2-0.2c-0.1-0.1-0.1-0.1-0.2-0.1c-0.1,0.1-0.1,0.2,0,0.3c0.1,0.1,0.3,0.1,0.5,0.1
		c0.3,0.2,0.7-0.1,1-0.1c0.1-0.1,0.2-0.1,0.4-0.1c0.2,0.1,0.4-0.1,0.6-0.1c0.2-0.1,0.1-0.3,0.1-0.5c0-0.2,0.2-0.1,0.2-0.3
		c0.1,0,0.1,0.1,0.2,0.1c0.1,0.2,0,0.5-0.1,0.6l0.1,0.1c-0.1,0.2-0.2,0.1-0.3,0.1v0.4c0.1,0,0,0.2,0.1,0.2c0,0.3,0.1,0.4,0.1,0.6
		c0.1,0,0.2,0,0.3,0c0.3-0.2,0.6,0,0.9,0.1c0.4,0.1,0.7-0.2,1-0.3c0.2,0,0.3,0.2,0.4,0.3c0.1,0,0.2-0.1,0.3-0.1
		c0.1-0.3,0.1-0.8,0-1.1c-0.4,0-0.7,0.2-1-0.1c0-0.2-0.2-0.2-0.2-0.3c-0.4-0.1-0.6,0.2-0.9,0.2c-0.2-0.1-0.2-0.4-0.3-0.6
		c0.1-0.1,0.2,0.1,0.3,0.1c0.1,0.1,0.1,0.2,0.2,0.2c0.3,0,0.6-0.2,0.9-0.1c0.1,0.1,0.3,0.1,0.3,0.3c0.2,0.3,0.6-0.2,0.9,0.1
		c0.1,0,0.2-0.1,0.2-0.1c0,0.2,0.2,0.2,0,0.3v0.1c0.1,0,0.1,0.1,0.2,0.1c0.1-0.1,0.4,0,0.6,0c0.3-0.1,0.6-0.1,0.9-0.1
		c0.1,0,0.1-0.2,0.3-0.2c0.1-0.3,0.2-0.4,0.3-0.7c0.1-0.1,0.2-0.2,0.2-0.3c0.1,0,0.1-0.1,0.2-0.2v-0.1c0-0.1,0.1-0.1,0.1-0.1
		c0-0.2,0.2-0.3,0.2-0.5c0.1-0.1,0.1-0.2,0.2-0.3c0-0.1-0.1-0.1-0.2-0.1c-0.3-0.3,0.4-0.2,0.2-0.5C64.5,57,64.4,57.5,64.2,57.7z"/>
	<path fill="#FFCC00" d="M50.6,57.2c0-0.1,0-0.2,0-0.3c-0.3-0.1-0.5,0.2-0.7,0.3c-0.2,0.1-0.2,0.3-0.4,0.4c-0.1,0.4-0.5,0.5-0.7,0.8
		c-0.1,0-0.1,0.2-0.2,0.2c0,0.1-0.1,0.3,0.1,0.3c0.2,0.1,0-0.1,0.2-0.1c0.1,0,0.1,0.1,0.1,0.2c0.1-0.2,0.2-0.2,0.3-0.3
		c0,0,0,0.1,0.1,0.1c0.1-0.1,0.1-0.1,0.1-0.2c0.1,0,0.1,0,0.1,0v-0.1c-0.2,0,0-0.1,0-0.2c0.2-0.2,0.5-0.2,0.7-0.5
		c0.2-0.1,0.3-0.2,0.4-0.3c0.2-0.2,0.4-0.4,0.4-0.7c0.1-0.1-0.1,0-0.2,0V57C50.8,57.1,50.8,57.3,50.6,57.2c0,0.3-0.3,0.3-0.4,0.5
		c0,0.1-0.1,0.2-0.2,0.2v-0.1C50.2,57.5,50.4,57.4,50.6,57.2z"/>
	<path fill="#FFCC00" d="M36.3,57.8c0-0.1-0.2-0.2-0.2-0.2c0.2-0.2,0.5,0,0.6-0.2c0,0-0.2,0-0.1-0.1c0-0.1,0.1-0.1,0.1-0.1
		c-0.1-0.1-0.3-0.2-0.3,0l-0.1-0.1V57c0.1-0.2-0.1-0.1-0.2-0.2c-0.2,0.1,0,0.5-0.1,0.7c-0.1,0.1-0.3,0.1-0.4,0.2
		c-0.1,0-0.2-0.3-0.2-0.4c0.2-0.1,0-0.3,0.1-0.5c-0.1,0-0.3,0-0.4,0c0,0.3-0.1,1,0,1.3c0.3,0,0.8,0.1,1.1-0.1l-0.1-0.1
		C36.1,57.8,36.2,57.9,36.3,57.8z"/>
	<path fill="#FFCC00" d="M35.6,56.9c0,0.1,0.1,0.1,0,0.2c0,0.7,0.2-0.1,0.3-0.2c0-0.2-0.2,0-0.4-0.1C35.6,56.8,35.5,56.9,35.6,56.9z
		"/>
	<path fill="#FFCC00" d="M32.5,58.8c0.1-0.1,0.1-0.2,0-0.4c0-0.1-0.1-0.2-0.2-0.2c-0.1,0-0.1,0-0.1,0.1c-0.1,0.1-0.3,0.1-0.4,0.2
		c-0.1,0.1-0.2,0.1-0.3,0s-0.1-0.3-0.1-0.4c0-0.1,0-0.2,0.1-0.2c0.2-0.2,0.4-0.2,0.5-0.3c0,0,0.1-0.1,0-0.2c0-0.2-0.1-0.2-0.2-0.1
		c-0.1,0.1-0.2,0-0.3,0.1c0.1,0,0.1,0.1,0.2,0.1c0,0.4-0.5,0.2-0.6,0.6c-0.2-0.1-0.5-0.3-0.7-0.1c-0.2,0.1-0.2,0.3-0.2,0.5
		c0.1,0,0,0.2,0.1,0.2c0.1,0.2,0.2,0.4,0.3,0.6c0.1,0,0.1,0.2,0.1,0.2c0,0.1,0.1,0,0.2,0c0-0.1,0.1-0.3,0.2-0.3
		C31.6,59.1,32,58.6,32.5,58.8z"/>
	<path fill="#FFCC00" d="M38.6,57.4c0.4,0,0.7,0.1,1-0.1c-0.3,0-1,0-1.2,0c0,0-0.1,0.1-0.2,0.1c0,0.2,0.1,0.2,0.1,0.4
		C38.3,57.7,38.4,57.5,38.6,57.4z"/>
	<path fill="#FFCC00" d="M37.6,59.2c0.1-0.1,0,0.2,0.2,0.1c-0.1,0,0.5-0.5,0.5-0.5c0-0.4-0.2-0.7-0.6-0.7c-0.1,0.1-0.2,0.2-0.2,0.3
		c-0.1,0.1-0.4,0.1-0.6,0.3c-0.1-0.1-0.2-0.4,0.1-0.4c0-0.3,0.2-0.3,0.4-0.6c0.1,0,0.2,0,0.4-0.1c-0.2,0-0.6,0.1-0.8,0.3
		c-0.1,0-0.1,0.2-0.2,0.2c-0.1,0.2-0.3,0.4-0.2,0.7c0.4-0.1,0.6,0.3,0.8,0.5c0.1-0.2,0-0.3,0-0.5h0.1C37.5,58.9,37.6,59,37.6,59.2z"
		/>
	<path fill="#FFCC00" d="M41.1,57.6c0.1,0.2,0.2,0.1,0.3,0.1c0.2,0.1,0.4-0.1,0.6-0.1c-0.1,0-0.1,0-0.1,0c0-0.1-0.1-0.2,0-0.3
		c0,0.1,0.1-0.1,0.2,0c0.2,0.2,0.4,0.1,0.6,0.1c0-0.1,0.2-0.1,0.2-0.2c0,0-0.1-0.1-0.1,0c-0.2,0.1-0.3-0.1-0.5-0.1
		c-0.2-0.1-0.5,0-0.8,0c-0.1,0.1,0,0.1-0.1,0.2c-0.1,0-0.4,0.2-0.4-0.1c-0.1,0-0.2,0.1-0.3,0.2c0,0,0.1,0,0.1,0
		C41,57.3,41,57.6,41.1,57.6z"/>
	<path fill="#FFCC00" d="M38.2,57.4C38.2,57.4,38.2,57.4,38.2,57.4c-0.2,0-0.3,0.1-0.4,0.2c0,0,0,0,0,0
		C37.9,57.5,38.1,57.5,38.2,57.4z"/>
	<path fill="#FFCC00" d="M40.6,57.4C40.6,57.4,40.7,57.4,40.6,57.4c-0.1,0-0.3-0.1-0.5-0.1c-0.1-0.1-0.3-0.1-0.4-0.1
		c0,0-0.1,0-0.1,0.1c0.1,0,0.2,0,0.3,0C40.1,57.3,40.4,57.5,40.6,57.4z"/>
	<path fill="#FFCC00" d="M68.6,57.2c-0.1,0.1,0,0.1,0,0.1C68.6,57.3,68.6,57.3,68.6,57.2z"/>
	<path fill="#FFCC00" d="M69.8,58c-0.3-0.2-0.8-0.3-1.1-0.6c0,0,0-0.1-0.1-0.1c0,0.1,0,0.1,0,0.2c-0.1,0.2-0.3,0.4-0.2,0.6
		c0.2,0,0.2-0.1,0.4-0.1c0,0.1,0.2,0.1,0.2,0.2c0.1-0.1,0.1,0.1,0.1,0.2c-0.1,0.2-0.4,0.1-0.6,0.2c-0.2,0-0.2-0.1-0.2-0.2
		c0,0-0.1,0-0.2,0c0,0.1,0,0.1-0.1,0.2c-0.1,0.1-0.1,0.2-0.1,0.3c-0.2,0.1-0.2,0.3-0.2,0.5c0.1,0,0.2,0,0.3-0.1
		c0.2-0.2,0.6-0.2,0.8-0.3c0.1,0.1,0.3-0.1,0.4,0c0,0.1,0.1,0.1,0.1,0.2c0.1,0.1,0.1,0.4,0.2,0.5h-0.1c0,0,0,0.1,0,0.2
		c0.1,0.1,0.2-0.1,0.2-0.2c0.1-0.1,0.1-0.4,0.2-0.5c0-0.3-0.3,0.1-0.4-0.1c-0.1-0.1-0.1-0.2-0.1-0.2c-0.1,0,0.1-0.2-0.1-0.2
		c0-0.1-0.1-0.3,0.1-0.4c0.2,0.1,0.3,0.1,0.4,0.2c0,0,0.1,0.1,0.1,0.2c0.1,0,0.1-0.1,0.2-0.1c0.1-0.2,0.2-0.4,0.3-0.6
		C70.2,57.6,70,58.1,69.8,58z"/>
	<path fill="#FFCC00" d="M68.6,57.2C68.6,57.1,68.5,57.1,68.6,57.2L68.6,57.2z"/>
	<path fill="#FFCC00" d="M41.3,58.2c-0.2,0-0.3,0.1-0.5,0c-0.1-0.2-0.1-0.3-0.2-0.5c-0.6,0-0.7,0.4-1.2-0.1c-0.4,0-0.5,0.3-0.6,0.4
		c-0.3,0.1-0.1,0.1-0.6,0.1v0.2c0.1,0.1,0.1,0.3,0.2,0.4c0.1-0.1,0.2,0,0.4-0.2c0.3,0.2,0.3-0.2,0.6-0.2c0.1,0.1,0.2,0.2,0.1,0.3
		c0,0,0.2,0,0.2-0.1l-0.1-0.1c0.2-0.4,0.2-0.2,0.4,0c0.1,0,0.2,0,0.2,0.1c0.3-0.1,0.1-0.3,0.2-0.4c0.3,0.2,0,0.4,0.1,0.7
		c0.1,0.1,0.3,0.2,0.5,0.1C41.1,58.6,41.4,58.5,41.3,58.2z"/>
	<path fill="#FFCC00" d="M43.2,57.8C43.2,57.8,43.2,57.8,43.2,57.8C43.3,57.8,43.3,57.8,43.2,57.8L43.2,57.8z"/>
	<path fill="#FFCC00" d="M43.4,58.4c-0.2-0.2-0.5-0.2-0.6-0.1C42.9,58.5,43.2,58.3,43.4,58.4z"/>
	<path fill="#FFCC00" d="M43.6,59.2c0-0.1,0-0.2-0.1-0.2c-0.1-0.5-0.5-0.2-1-0.5c-0.2,0.1,0,0.3-0.1,0.4c-0.1,0-0.1-0.1-0.2-0.1
		c0,0.1,0,0.1,0,0.2c0.1,0.1,0.1,0.3,0.2,0.3c-0.2-0.4,0.4-0.2,0.5-0.4c0,0-0.1-0.1,0-0.2c0.1,0,0.2,0,0.2,0.1
		c0,0.2,0.2,0.3,0.2,0.5C43.3,59.3,43.4,59.3,43.6,59.2C43.5,59.3,43.7,59.3,43.6,59.2z"/>
	<path fill="#FFCC00" d="M42.3,58.7C42.2,58.7,42.2,58.7,42.3,58.7C42.3,58.8,42.3,58.8,42.3,58.7z"/>
	<path fill="#FFCC00" d="M42.2,58.8C42.2,58.8,42.2,58.8,42.2,58.8C42.2,58.8,42.2,58.8,42.2,58.8L42.2,58.8z"/>
	<path fill="#FFCC00" d="M39.4,60L39.4,60C39.3,59.9,39.4,60,39.4,60z"/>
	<path fill="#FFCC00" d="M40,59.2c0-0.2,0.2-0.2,0.2-0.4c-0.3-0.1-0.4,0.4-0.6,0.2c-0.1,0.1-0.1,0.2-0.1,0.3c-0.1,0.1,0,0.2-0.1,0.3
		c0,0.1-0.1,0.2,0,0.3C39.5,59.6,39.7,59.4,40,59.2z"/>
	<path fill="#FFCC00" d="M40.8,59.2c-0.2,0-0.3-0.1-0.4-0.2c-0.4,0.2-0.1,0.7-0.2,1c0.5,0.2,0.6,0,0.6-0.4
		C40.9,59.5,40.9,59.3,40.8,59.2z"/>
	<path fill="#FFCC00" d="M37,59.3c-0.1-0.2-0.3-0.2-0.6-0.1c-0.1,0.1-0.1,0.2-0.1,0.3c0.1,0,0.1,0.1,0.2,0.1
		C36.7,59.5,37,59.5,37,59.3z"/>
	<path fill="#FFCC00" d="M48.5,59.9C48.6,59.9,48.5,60,48.5,59.9l0.1,0.2c0.1,0,0.2,0,0.3,0C48.8,60.1,48.7,60,48.5,59.9
		c0.1-0.1,0.2-0.2,0.3-0.3c0.1,0,0.1-0.1,0.2-0.1c0-0.1-0.2-0.1-0.2-0.2C48.6,59.4,48.4,59.7,48.5,59.9L48.5,59.9z"/>
	<path fill="#FFCC00" d="M68.1,60.7c-0.1-0.2-0.2-0.4-0.4-0.6c0-0.2-0.3-0.3-0.2-0.5c-0.2-0.1-0.2,0.2-0.6,0.5c0,0,0,0.2-0.1,0.2
		c0.1,0.1,0,0,0.1,0.1c0.1-0.1,0.2-0.1,0.3-0.1s0.1,0.1,0.2,0.1c0,0.1,0.1,0.2,0,0.3c-0.1,0.1-0.2,0.3-0.3,0.4c-0.1,0-0.1,0-0.2,0
		c-0.2-0.1-0.1-0.3-0.1-0.4c-0.1-0.1-0.1,0-0.2,0c0,0.3-0.3,0.5-0.3,0.8c0.2,0,0.2-0.1,0.4-0.1c0.3,0,0.7,0.1,1.1,0.2
		c0.1,0,0.4,0.2,0.6,0c-0.1-0.1,0.1-0.1,0.1-0.3C68.4,61.1,68.3,60.9,68.1,60.7z"/>
	<path fill="#FFCC00" d="M33,59.7C33,59.6,32.9,59.7,33,59.7L33,59.7z"/>
	<path fill="#FFCC00" d="M33.3,60.2C33.2,60,33,60,33,59.7c0,0.1-0.1,0.1-0.2,0.2c-0.2,0.1-0.4,0-0.5,0c0,0.3,0.2,0.4,0.3,0.6
		c0.2,0.1,0.1-0.3,0.3-0.3c0,0,0.1,0,0.2,0c0.1,0,0.2,0.2,0.3,0.3c0.2,0.1,0,0.3,0,0.5c-0.1,0-0.1,0.1-0.1,0.1
		c-0.3,0.3-0.7,0.5-1.1,0.5c-0.1-0.1-0.2-0.1-0.2-0.3c-0.1-0.1-0.1-0.2-0.2-0.2c0-0.1-0.1-0.2,0-0.3c0-0.1,0.2-0.2,0.2-0.4
		c-0.2-0.1-0.4,0.1-0.6,0.2c0,0,0,0,0,0.1c0.5-0.1,0.2,0.5,0.3,0.7c0.1,0.2,0.3,0.3,0.5,0.4c0.2,0.1,0.5,0,0.7,0
		c0.1-0.1,0.3-0.2,0.4-0.3c0.1-0.1,0.1-0.3,0.2-0.3c0-0.3,0.2-0.5,0-0.8C33.4,60.4,33.4,60.2,33.3,60.2z"/>
	<path fill="#FFCC00" d="M40.6,61.7c0-0.5-0.3-0.3-0.7-0.1c-0.2,0-0.5,0.1-0.7-0.1c0.2-0.4,0.6,0.1,0.8-0.2c0-0.1-0.1,0-0.2-0.1
		c-0.1,0-0.3-0.2-0.3,0h-0.1c-0.1-0.1-0.2-0.3-0.1-0.4c-0.1-0.3,0.2-0.5,0.1-0.8c-0.1,0-0.1,0-0.1,0c-0.1,0.2-0.3,0.4-0.5,0.4
		c0.1,0,0,0.2,0.1,0.2c0.2,0.3-0.1,1,0,1.1C39,61.9,40.4,61.8,40.6,61.7z"/>
	<path fill="#FFCC00" d="M38.1,59.7c-0.1,0-0.2,0.1-0.3,0.1c0,0.4,0.4,0.6,0.4,1c0.2,0,0.1,0.2,0.2,0.3c0.1,0,0,0.3,0.2,0.3
		c0.1-0.1,0-0.1,0-0.1c0.1-0.1,0-0.2,0.1-0.2c0.1-0.2,0-0.4,0.1-0.7C38.3,60.5,38.6,59.9,38.1,59.7z"/>
	<path fill="#FFCC00" d="M41.5,61.7c0.2,0.1,0.5,0,0.7-0.1c-0.1,0-0.3,0-0.4,0.1c-0.2-0.1-0.6,0-0.7-0.2c0-0.3,0.2-0.6,0.2-0.9
		c-0.1-0.1,0.1-0.1,0.1-0.2c0.1-0.1,0.2-0.1,0.3-0.1c0-0.2,0-0.5-0.2-0.2c-0.2,0-0.1,0.2-0.2,0.2c0,0-0.1,0.1,0,0.2
		c-0.1,0,0,0.1-0.1,0.2c0,0.1-0.1,0.3-0.2,0.5C41,61.7,41.1,61.7,41.5,61.7z"/>
	<path fill="#FFCC00" d="M37.2,61.2c0.1,0.2,0.3,0.4,0.5,0.5c0.4-0.2-0.1-0.4-0.1-0.6c-0.1-0.2,0-0.3,0-0.4c0.1,0,0.2-0.2,0.3-0.1
		c0-0.1,0.1-0.2,0-0.2c0-0.1,0-0.2-0.1-0.2c-0.1-0.3-0.4-0.2-0.7-0.1c0,0.2-0.1,0.2-0.2,0.3c-0.1,0-0.1-0.1-0.1-0.1
		c-0.1-0.2-0.2,0-0.3,0c0.2,0.3,0.4,0.5,0.5,0.7C37.1,61,37.1,61.2,37.2,61.2z"/>
	<path fill="#FFCC00" d="M42.4,60.5c-0.2,0-0.2,0.1-0.4,0.2c-0.1,0.2-0.3,0.1-0.4,0c-0.2,0,0,0.2-0.1,0.3c0.2-0.1,0.3,0.2,0.4,0
		c0.1,0,0.1,0.1,0.1,0.2C42.4,61.3,42.2,60.7,42.4,60.5z"/>
	<path fill="#FFCC00" d="M42.4,60.5C42.3,60.4,42.4,60.5,42.4,60.5L42.4,60.5z"/>
	<path fill="#FFCC00" d="M48,60.7c1-0.1,2.2,0.1,3.3,0c0-0.4-1.3-0.1-1.6-0.2c-0.6-0.1-1.2,0-1.7,0C47.9,60.5,48,60.6,48,60.7z"/>
	<path fill="#FFCC00" d="M59.8,64.2h-0.3c-0.2-0.1-0.1-0.3-0.3-0.4c-0.3,0.1-0.5-0.2-0.7-0.2c-0.3,0-0.5,0.2-0.7,0
		c0-0.4,0.5-0.1,0.7-0.2c0.2,0,0.2,0.2,0.4,0.2c0.1,0,0.3,0.1,0.4,0.2c0.1,0.1,0.2,0,0.3,0c0.3-0.3,0.7-0.5,1.1-0.4
		c0.2-0.1,0.3-0.3,0.5-0.4c0.2-0.2,0.4-0.4,0.6-0.7c0.1,0,0.1-0.1,0.2-0.1c0.1-0.2,0.2-0.2,0.4-0.3c-0.2,0-0.4-0.1-0.6-0.2
		c-0.3-0.2-0.7,0.1-0.9-0.2c-0.2-0.1-0.2,0.2-0.4,0.3c-0.1,0.1-0.4,0.1-0.5,0.1c-0.3-0.3-0.7-0.3-1-0.1c-0.3-0.1-0.4,0.1-0.6,0.2
		c-0.1,0-0.2,0-0.3-0.1c-0.1-0.1-0.2,0-0.3,0c-0.1,0.1-0.3,0.2-0.4,0.3l-0.1,0.1c-0.1,0.2,0.1,0.6,0,0.8c0,0.1,0.2,0.1,0.1,0.2
		c0,0-0.1,0.2-0.2,0.1c-0.3-0.1-0.6,0.1-0.8,0.3c0,0,0,0.1,0.1,0.1c0.1,0.3,0.4,0.1,0.6,0.2c0.1,0.1,0.1,0.2,0.2,0.2
		c0.2,0.1,0.3,0.1,0.5,0.1c0,0,0,0,0.1,0c0,0.1,0.3,0,0.3,0.2c0.1,0.1,0.2,0.3,0.3,0.2c0,0,0.1-0.1,0.2,0c0,0.1,0.1,0,0.2,0
		c0.1-0.1,0-0.1-0.1-0.2c0.1-0.1,0-0.1,0-0.2s0-0.1,0.1-0.1c0.1,0,0.2,0.2,0.3,0.3c0.2,0.1,0.3,0,0.4-0.1
		C59.7,64.4,59.7,64.3,59.8,64.2L59.8,64.2z"/>
	<path fill="#FFCC00" d="M41.1,63.8c0.2-0.3-0.2-0.1-0.2-0.3v0.1C41,63.6,41,63.8,41.1,63.8z"/>
	<path fill="#FFCC00" d="M42.2,63.1c0.1-0.2,0-0.3,0-0.5c-0.2,0-0.2-0.2-0.4-0.1c-0.1-0.1-0.1-0.3-0.1-0.4c-0.3-0.1-0.5,0-0.7,0.2
		c0,0.1,0,0.2,0,0.3c0.1,0,0.1-0.1,0.2-0.1c0.3,0-0.3,0.5-0.3,0.4v0.6c0.2-0.2,0.1-0.3,0.4-0.3c0.1-0.1,0.1-0.2,0.1-0.4
		c0,0,0.1-0.4,0.2-0.3c0.2,0.2,0,0.5,0.2,0.7c0.1,0,0.2,0,0.2-0.1C42.1,63.1,42.2,63,42.2,63.1z"/>
	<path fill="#FFCC00" d="M39.9,62.9c0-0.2,0-0.4,0-0.6c-0.3,0-0.5-0.1-0.9,0c-0.3,0,0,0.2-0.1,0.4c0.1,0.1,0.1,0.1,0.1,0.2
		c0,0.1,0.1,0.2,0.2,0.2v-0.3c0,0,0.1,0,0.1-0.1c0.1,0,0.2,0,0.2,0.1c0.1,0,0.1,0.1,0.1,0.1c0,0,0,0,0,0c0-0.1,0-0.1,0.1-0.1
		c-0.1,0,0-0.1,0-0.1C39.9,62.7,39.8,62.9,39.9,62.9z"/>
	<path fill="#FFCC00" d="M39.6,63.1c0,0,0-0.1,0-0.2C39.5,63,39.6,63,39.6,63.1z"/>
	<path fill="#FFCC00" d="M50.8,62.4C50.8,62.4,50.8,62.4,50.8,62.4c-0.2,0-0.4-0.1-0.6-0.1c0,0,0-0.1,0-0.1c0.3-0.2,0.6,0,1-0.1
		c0.3,0.3,0.7,0.2,0.3,0.6c0,0,0.2,0.1,0.2,0c0.2,0,0.2,0.2,0.2,0.3c-0.2,0.1-0.5,0-0.7,0.2c0.6,0,1.4,0.2,0.8-0.4
		c0.1-0.4,0-0.6,0.1-0.8c-0.1-0.1,0.1-0.2,0-0.3c0,0,0-0.1,0.1-0.1v-0.2c0.3-0.4,0.9-0.6,1.3-0.8l0.3-0.1c-0.5-0.1-0.9-0.1-1.6-0.1
		L52,60.5c0,0.1-0.1,0.2,0,0.3c-0.1,0.1-0.3,0.2-0.4,0.3c-0.9,0.1-1.8,0-2.7,0.1c0,0.2,0,0.3,0,0.5c0.1,0.2-0.1,0.3-0.2,0.5
		c0,0.1,0.1,0.2-0.1,0.2c-0.1,0.3,0.1,0.2,0.3,0.2c-0.2,0,0-0.3,0.1-0.3c0.2-0.1,0.5-0.1,0.7,0.1c0,0,0.1,0,0.1,0
		c-0.1,0.1-0.2,0.1-0.2,0.2c0.5,0,1.1-0.1,1.6-0.1C51.1,62.5,50.9,62.4,50.8,62.4z"/>
	<path fill="#FFCC00" d="M48.3,62.8C48.2,62.7,48.2,62.8,48.3,62.8L48.3,62.8z"/>
	<path fill="#FFCC00" d="M50,65c0.1,0.2,0,0.4,0,0.6c-0.4,0.8-0.4,0.3-0.8-0.1c0-0.2-0.1-0.8,0.1-1l-0.1-0.1c0.1-0.1,0-0.2,0.1-0.3
		h-0.1c0-0.1,0.1-0.1,0.1-0.2c-0.1,0.1-0.3-0.1-0.4-0.2c0-0.2,0.1-0.2,0-0.4c-0.2,0-0.8-0.4-0.9-0.3c0,0.4,0.1,0.8,0.1,1.2
		c0.2,0,0,0.3,0.2,0.3c0,0.2,0,0.5-0.1,0.6c0,0.1,0.1,0.1,0.1,0.1c-0.1,0.2,0.1,0.2,0.1,0.4c0.1-0.1,0-0.3,0.2-0.4
		c0,0.2,0,0.4,0,0.5c0,0.2,0.1,0.4,0.1,0.6c0.1,0,0.1,0.1,0.1,0.1v-0.1c0.1,0,0.1-0.2,0.2-0.2V66c-0.1-0.1-0.1-0.3-0.1-0.4
		c0,0,0.1-0.1,0-0.1v-0.9c0.1,0,0,0.2,0.1,0.2c0.1,0.1,0.1,0.2,0,0.3c0,0.3,0,0.5,0,0.7c0.1,0.2,0.3,0.3,0.4,0.4
		c0.4,0.4-0.4,0.4-0.2,0.8c0.1,0,0.2-0.1,0.2-0.2c0.1-0.1,0.2-0.3,0.3-0.3c0.1,0,0.2,0.1,0.2,0.2c0.1,0,0.1,0,0.1,0
		c0.1,0.1,0.1,0.2,0.1,0.2v-0.2c-0.1,0-0.1-0.1-0.2-0.2c0-0.1,0-0.3,0.1-0.4c0-0.1,0.1-0.2,0-0.3c0.1,0,0.1-0.1,0.1-0.2
		C50.3,65.4,50.1,65.1,50,65C50.1,65,50.1,65,50,65z"/>
	<path fill="#FFCC00" d="M42.8,63.3l-0.1,0.1c0,0.1,0.1,0.3,0.2,0.2c0.1,0,0.3-0.1,0.3-0.2c0,0,0-0.1,0-0.3C43.1,63,43,63,43,63.1
		c0,0.1,0.1,0.1,0.1,0.1L43,63.4C42.9,63.4,42.8,63.4,42.8,63.3z"/>
	<path fill="#FFCC00" d="M51.5,66c0-0.1,0-0.1,0.1-0.1c0.1,0.1,0.1,0.2,0.1,0.2c0.2-0.7,0-1.3,0.1-2c0.1,0-0.1-0.2,0.1-0.2
		c-0.1-0.1,0-0.7-0.4-0.3v0.8l-0.1,0.1c-0.4-0.2,0.1-0.6-0.1-0.8c-0.1,0-0.1,0-0.2,0c0,0,0,0.7,0,0.7c0,0.7-0.1,1.5,0,2.3
		c0,0-0.1,0.1,0,0.1c0,0.1,0,0.2,0,0.3c0.1,0.1,0.3,0.1,0.4,0C51.5,66.7,51.5,66.5,51.5,66z"/>
	<path fill="#FFCC00" d="M50.8,64.1c-0.1,0.1,0.1,0.3-0.2,0.4c0,0.5,0.1,1,0,1.3c-0.1,0-0.1,0.1-0.1,0.2c0.1,0.1,0.2,0.2,0.3,0.2
		v-0.1c0.1-0.1,0.1-0.4,0.1-0.5c-0.1-0.1,0-0.3-0.1-0.4V64.1z"/>
	<path fill="#FFCC00" d="M50.8,63.7c0,0.1,0,0.3,0,0.4C50.8,64,50.9,63.8,50.8,63.7z"/>
	<path fill="#FFCC00" d="M49.8,64c-0.1,0.1-0.2,0.2-0.3,0.2c-0.1,0.4-0.2,1.4,0.2,1.5c0.2,0,0.1-0.2,0.2-0.3c-0.1-0.2,0.1-0.4,0-0.6
		C50,64.5,50,64.1,49.8,64z"/>
	<path fill="#FFCC00" d="M39.7,67.3c0.1,0,0.1-0.3,0.3-0.2c-0.1-0.2-0.3-0.1-0.4-0.3c-0.4-0.1-0.7,0.4-1.1,0.5
		c-0.1,0-0.1-0.1-0.1-0.2c0.1-0.1,0-0.3,0.1-0.4c0-0.2,0-0.4,0-0.6c-0.2-0.1-0.3-0.4-0.4-0.5c-0.1,0,0,0.1,0,0.3
		c-0.1,0-0.1,0.2-0.2,0.3c0,0.2-0.2,0.3-0.2,0.4c-0.2,0.2-0.2,0.6-0.6,0.5v0.1c0.1,0,0.1,0.1,0.2,0.1c0.1,0.2,0.2,0.1,0.3,0.2
		c0-0.1-0.1-0.1-0.1-0.2c0.1-0.1,0.1-0.2,0.2-0.3c0-0.1,0.2-0.1,0.2-0.3c0.1-0.1,0.1-0.3,0.3-0.3c0.1,0.2,0,0.5,0,0.7
		c-0.2,0.2,0,0.4-0.2,0.6c-0.1,0.1,0.1,0.1,0.1,0.2c0.2-0.1,0.4-0.2,0.6-0.4c0.2,0,0.2-0.1,0.3-0.2c0.1,0,0.2-0.2,0.3-0.1
		c-0.1,0.1-0.1,0.2-0.2,0.3c-0.1,0.1-0.2,0.2-0.2,0.3c-0.2,0.2-0.3,0.5-0.6,0.4c-0.1,0.1,0,0.1,0,0.2c0.2,0,0.4,0.3,0.7,0.3
		c0.1-0.1,0-0.3,0-0.4c0.1-0.1,0.1-0.1,0.2-0.2c0-0.2,0.2-0.2,0.3-0.4C39.5,67.5,39.7,67.5,39.7,67.3z"/>
	<path fill="#FFCC00" d="M62.6,66.7c0-0.3,0-0.6,0-0.9h-0.2c-0.4,0.2-0.7,0.4-1,0.7c-0.2,0.2,0.1,0.2,0.1,0.4
		c0.1,0.1,0.1,0.2,0.2,0.3c0.1-0.2,0-0.3,0-0.5s0.2-0.2,0.2-0.3c0.2-0.1,0.2-0.3,0.4-0.2c0.1,0.6,0,1,0.1,1.5c0,0.2,0.2,0.1,0.2,0.3
		c0.1,0,0.2,0,0.4,0c0.2-0.3-0.2-0.5-0.2-0.8C62.6,67.1,62.6,66.9,62.6,66.7z"/>
	<path fill="#FFCC00" d="M60.6,67.9c-0.2,0-0.3,0.3-0.5,0.4c-0.2-0.1,0-0.2-0.1-0.3c0.1-0.2-0.1-0.4,0.1-0.5c0.2-0.4,0.5,0,0.8,0
		c0.1,0,0-0.1,0-0.2c-0.2-0.1-0.3-0.1-0.5-0.2c-0.2,0-0.5,0.2-0.6,0.4c-0.2,0.1-0.2,0.5-0.1,0.7c-0.1,0.3,0.2,0.3,0.2,0.5
		s0.3,0.3,0.5,0.4c0.4,0.2,0.8-0.1,1-0.4c0.1-0.2,0.1-0.4,0-0.6C61.2,67.9,60.9,67.8,60.6,67.9z"/>
	<path fill="#FFCC00" d="M41.4,67.9c-0.4-0.4-0.5,0.2-0.9,0.5c-0.3,0.2-0.6,0.7-1,0.7c0,0.1,0,0.2,0.1,0.2c0.2,0.1,0.3,0.2,0.5,0.2
		c0.2-0.1,0-0.2,0-0.3c0-0.2,0.1-0.2,0.2-0.3c0.2-0.1,0.3,0.1,0.4,0.1c0,0.1,0.2,0.1,0.2,0.2c0,0.1,0,0.2-0.1,0.3
		c0,0.2-0.2,0.1-0.2,0.2c0.2,0.1,0.3,0.2,0.5,0.3c0.1,0,0.2,0.1,0.3,0c-0.1-0.1,0-0.2-0.1-0.2c0-0.1-0.1-0.2,0-0.3
		C41.3,68.9,41.4,68.4,41.4,67.9z"/>
	<path fill="#FFCC00" d="M59.5,69.3c0-0.2-0.2-0.2-0.3-0.3c-0.1,0-0.3-0.1-0.2-0.2c0.1-0.2,0-0.3,0-0.4c-0.2-0.3-0.6-0.3-0.9,0.1
		c-0.2,0.1-0.2,0.3-0.3,0.4c0,0.2,0,0.3,0.1,0.4c0,0,0.1,0.1,0.2,0.1c0.1,0,0.1,0.1,0.1,0.2c-0.1,0.2,0,0.4,0,0.6
		c0.1,0,0.1,0.2,0.2,0.1c0.1,0.1,0.3,0,0.4,0.1c0.2-0.1,0.5-0.2,0.6-0.4c0.1-0.1,0.1-0.3,0.2-0.4C59.6,69.5,59.6,69.3,59.5,69.3z"/>
	<path fill="#FFCC00" d="M44,69c-0.4-0.2-0.8-0.3-1.1-0.4c0,0.1-0.1,0.2,0,0.2c0,0.1,0,0.2-0.1,0.3c0,0.3-0.2,0.3-0.2,0.6
		c-0.1,0.2-0.2,0.4-0.3,0.6c-0.1,0.1-0.3-0.1-0.2,0.1c0.2,0.2,0.5,0.2,0.7,0.2c0-0.4,0-0.7,0.2-0.9c0.1-0.1,0.2,0.1,0.3,0.1
		c0,0.1,0.2,0.1,0.1,0.2c0.1,0.3-0.3,0.5-0.1,0.8c0,0.1,0.1,0.3,0.2,0.2c0.1,0.1,0.3,0,0.4,0c0.1,0,0.2-0.1,0.1-0.2h-0.1
		c0,0-0.2,0-0.2-0.1c0-0.1,0-0.1,0.1-0.2c0-0.2,0.1-0.4,0-0.5c0-0.1,0.1-0.1,0.2-0.1c0.2,0,0.2-0.1,0.3-0.2c0-0.1,0-0.3,0-0.4
		C44.2,69.2,44.2,69,44,69z"/>
	<path fill="#FFCC00" d="M57.2,70.2c-0.1-0.1,0-0.2-0.1-0.2c0-0.3-0.2-0.5-0.2-0.8c0-0.4-0.4-0.2-0.5,0c0.1,0.2-0.2,0.2-0.1,0.4
		c0.1,0.1,0.2-0.1,0.3,0c0.2,0.1,0.1,0.3,0.2,0.4c0,0.3,0.2,0.5,0.1,0.8c0,0.1-0.1,0.1,0,0.2c0.3-0.1,0.6-0.2,0.8-0.3
		c-0.1-0.1-0.2,0-0.3-0.1C57.3,70.5,57.2,70.4,57.2,70.2z"/>
	<path fill="#FFCC00" d="M45.6,69.3c-0.3,0-0.7,0-0.9,0.2c-0.2,0.1-0.2,0.4-0.3,0.6c-0.1,0.3-0.1,0.6,0,0.9c0.1,0.2,0.2,0.2,0.3,0.4
		c0.2,0,0.3,0.1,0.4,0.1c0.2,0.2,0.4,0.1,0.6,0.1c0.2-0.1,0.4-0.1,0.4-0.3c-0.2-0.2-0.4,0.2-0.7,0.1c-0.2-0.1-0.4-0.2-0.5-0.4
		c-0.1-0.2,0-0.3,0-0.5c0.1-0.1-0.1-0.3,0.1-0.3v-0.1c0.1-0.1,0.1-0.2,0.2-0.3v-0.1c0.1-0.2,0.3-0.1,0.4-0.2
		c0.2,0.1,0.4,0.1,0.5,0.3c0.1,0.1,0.1,0.3,0.2,0.4c0.1,0.1,0.2,0,0.2,0c0.1-0.2,0.1-0.3,0.1-0.5h-0.2
		C46.3,69.6,46.1,69.4,45.6,69.3z"/>
	<path fill="#FFCC00" d="M54.7,69.7c-0.2-0.2-0.4,0-0.6-0.1c-0.2,0-0.3,0-0.4,0.1c0.1,0,0.1,0.1,0.1,0.1c0.1,0,0.2-0.1,0.2-0.1
		c0.1-0.1,0.1,0.2,0.2,0.2c0,0.2,0.1,0.5-0.1,0.6c0,0.1-0.1,0.2,0,0.2c0.2-0.1,0.5-0.1,0.6-0.2c-0.1,0-0.1-0.1-0.2-0.1
		c0-0.2-0.1-0.3-0.1-0.5c0-0.1,0-0.1,0.1-0.2C54.6,69.7,54.6,69.8,54.7,69.7z"/>
	<path fill="#FFCC00" d="M48.6,70c0,0.1,0.2,0.1,0.2,0.2c0,0.2,0,0.4,0,0.6c0,0-0.1,0.1-0.1,0.1c0,0,0.1,0,0.1,0c0,0.2,0,0.4,0,0.6
		s-0.3,0.1-0.2,0.3H49c0.1,0,0.3,0.1,0.4,0l-0.2-0.1c-0.1-0.1-0.2-0.2-0.1-0.4c0.1-0.1-0.1-0.3,0.1-0.4c-0.1-0.1,0-0.3,0-0.5v-0.1
		c0.1,0,0.3-0.1,0.3-0.2C49.2,70,48.9,69.9,48.6,70z"/>
	<path fill="#FFCC00" d="M48.7,70.9c-0.2-0.1-0.4-0.1-0.7-0.1C48.2,70.8,48.4,70.9,48.7,70.9z"/>
	<path fill="#FFCC00" d="M47.9,70.5L47.9,70.5l0.1-0.3c0-0.2,0.2-0.2,0.2-0.3c-0.3-0.2-0.5-0.1-0.7-0.2c0,0.2,0.1,0.3,0.1,0.4
		c0.1,0.2-0.1,0.5,0,0.8c-0.1,0.1,0,0.3-0.1,0.5c0,0.1-0.1,0.1-0.1,0.1c-0.1,0-0.2,0.1-0.1,0.2c0.2,0,0.5,0,0.7,0v-0.1
		c0,0,0-0.1-0.1-0.2c0-0.2,0-0.4,0.1-0.6C47.9,70.8,47.9,70.6,47.9,70.5z"/>
	<path fill="#FFCC00" d="M53.6,70.5c-0.1-0.2-0.4-0.1-0.5-0.3c-0.1-0.1,0-0.1,0-0.2c0.1-0.1,0.3,0.1,0.4,0c-0.1-0.1-0.3-0.1-0.5-0.1
		s-0.3,0.2-0.2,0.4c0.2,0.2,0.3,0.2,0.5,0.3c0.1,0.1,0,0.1,0,0.2c-0.1,0.1-0.3,0-0.4,0v0.1c0.1,0,0.2,0,0.2,0.1c0.2,0,0.4,0,0.5-0.1
		c0.1,0,0.1-0.1,0.1-0.2C53.7,70.6,53.7,70.5,53.6,70.5z"/>
	<path fill="#FFCC00" d="M52.2,71.1c-0.1,0-0.1-0.1-0.1-0.2c0.1-0.1-0.1-0.2,0-0.3c0-0.1,0.1-0.1,0.1-0.1c-0.1,0-0.1,0-0.1,0v-0.4
		C52,70,51.8,70,51.6,70.2c0,0.1-0.2,0.1-0.1,0.2c0.1,0,0.1,0.1,0.2,0.1c0.2,0.1,0.1,0.5,0.2,0.7c-0.1,0.2,0.1,0.3,0,0.5
		c0,0.1-0.2,0-0.2,0.2c0.2,0,0.5,0,0.7,0c0.1,0,0-0.1,0-0.1C52.2,71.7,52.2,71.3,52.2,71.1z"/>
</g>
<g id="g1778">
	<path id="path134" fill="#002A86" d="M57.2,30.3c0,0.2,0,0.4-0.1,0.5c-0.1,0-0.2,0-0.3-0.1c-0.1-0.2,0.2-0.4,0.3-0.5
		C57.2,30.2,57.2,30.3,57.2,30.3"/>
	<path id="path202" fill="#002A86" d="M65.8,35.6c0,0.2,0.1,0.4,0,0.5c-0.2,0.3-0.5,0.5-0.9,0.6c-0.2,0-0.4-0.2-0.5-0.3
		c-0.1-0.2,0-0.4,0.1-0.5c0.2-0.3,0.6-0.6,1-0.6C65.6,35.4,65.8,35.4,65.8,35.6"/>
	<path id="path250" fill="#C8C8C8" d="M51.7,39.8c0.1,0.2,0.3,0.3,0.5,0.4c0,0.1,0.2,0.1,0.2,0.2c0.2,0.2,0.4,0.4,0.7,0.5
		c0.3,0.2,0.6,0.4,0.8,0.6c0.2,0.1,0.3,0.2,0.5,0.3c0.1,0.1,0.2,0.1,0.3,0.2c0.2,0.1,0.4,0.2,0.6,0.3c0.1,0.1,0.3,0.3,0.4,0.3
		c-0.2,0.2-0.5,0.1-0.7,0.1c0,0,0.2-0.1,0.2-0.2c-0.1-0.1-0.3,0-0.3-0.2c-0.7-0.1-1.5,0-2.1,0c-0.3-0.1-0.7,0.2-1,0
		c-0.2,0-0.4,0.1-0.5,0.2c0,0.1,0.1,0.1,0.1,0.1c0.3,0,0.6-0.1,1,0c0.6-0.1,1.1-0.2,1.6-0.1c-0.2,0.1-0.4,0.2-0.7,0.2
		c-0.4,0.1-0.7-0.2-1,0c0,0,0,0.1,0.1,0.1c0.5,0,1,0.2,1.5,0c0.2-0.1,0.4,0,0.6,0c0.5,0,0.9-0.1,1.4,0c0.3-0.1,0.6-0.1,0.8-0.2
		c0-0.1-0.1-0.1-0.1-0.1c-0.1-0.1-0.2-0.1-0.4-0.1c-0.4-0.1-0.7-0.4-0.9-0.7c0-0.3-0.4-0.1-0.5-0.3c-0.1-0.1-0.3-0.1-0.3-0.2
		c0.4-0.1,0.9-0.1,1.3-0.4c0.4-0.1,0.8,0.2,1.2,0.3c0.2,0.2,0.6,0.2,0.9,0.3c0.3,0.1,0.5,0.2,0.8,0.3c0.2,0.1,0.4,0.2,0.6,0.3
		c0.6,0.3,1.2,0.3,1.8,0.5c0.4,0,0.8,0.2,1.2,0.1c0.1-0.2,0.4-0.1,0.6-0.2c0.5-0.1,1,0,1.5,0c0.2-0.1,0.4-0.1,0.6-0.1
		c0.1,0,0.4,0,0.4,0.1c-0.1,0.1-0.2,0-0.3,0c-0.3,0.1-0.7-0.1-1.1,0c-0.5,0.1-0.8,0.3-1.3,0.4c-0.3,0.2-0.7,0-1,0.1
		c-0.6,0-1.1,0-1.6,0.2c-0.5,0.1-0.9,0.2-1.4,0.3c-0.2,0-0.3,0.3-0.5,0.3c-0.5,0-0.9,0-1.4,0.1c-0.1,0.2-0.1,0.4-0.1,0.6
		c0,0.1,0.1,0.3-0.1,0.4l-0.1-0.1v-0.9h-0.1c-0.6,0-1.1,0-1.6,0.1c-0.1,0.1,0,0.1-0.1,0.2c0,0-0.1,0-0.1,0.1c0,0.2,0.1,0.3,0,0.5
		l0,0c0-0.3,0-0.5-0.1-0.8l-0.1-0.1c-0.5,0-1.1,0-1.6,0c0,0-0.1,0.1,0,0.1c-0.1,0.1-0.1,0.3-0.1,0.5c-0.1,0-0.1,0.2-0.1,0.3
		c-0.1,0,0-0.2-0.1-0.2c-0.1-0.1,0-0.3-0.1-0.5v-0.1c-0.3-0.2-0.6,0-1-0.1c-0.2,0-0.4,0-0.6,0.1c0,0.1,0.1,0.2-0.1,0.3
		c-0.1,0.2,0.1,0.4-0.1,0.5l0,0h-0.1c0-0.2-0.2-0.3-0.1-0.5l0.1-0.1c-0.2-0.1,0-0.3-0.1-0.4c-0.4-0.1-1,0-1.3,0
		c-0.2,0.1,0.1,0.3-0.2,0.4c0,0.2,0.1,0.5-0.1,0.6c-0.2-0.1-0.1-0.3-0.2-0.4c0-0.2,0.1-0.4-0.1-0.5c-0.3-0.1-0.6,0-0.9,0
		c-0.1,0.1-0.3-0.1-0.5,0.1c-0.2,0.3,0.1,0.7-0.2,0.9c-0.1,0-0.2,0-0.2-0.1s0-0.1,0-0.2c0-0.2,0-0.4-0.1-0.5
		c-0.2-0.2-0.6-0.1-0.9-0.1c-0.1,0-0.2,0.1-0.2,0.1v0.2c-0.1,0,0,0.1-0.1,0.2c-0.1-0.2-0.2-0.3-0.1-0.5c0,0,0,0-0.1,0
		c0,0.1-0.1,0.2-0.2,0.3c-0.2,0.1-0.3,0.1-0.5,0L44,44.3c0-0.2,0.2-0.1,0.3-0.2c0-0.1-0.1-0.2,0-0.3c0.1,0,0.1,0,0.2,0
		c0,0.1,0,0.3,0,0.4c0.2-0.1,0-0.6,0.3-0.4c0,0.1,0,0.2,0,0.2s0.1,0,0.1-0.1v-0.2c0.1,0,0.2,0,0.2,0l0.1,0.1c0,0,0.1,0,0.1-0.1V44
		c-0.4,0-0.8,0-1.2,0c-0.1,0.1-0.3,0.1-0.4,0.1c0-0.1-0.1-0.2-0.2-0.2c-0.1,0.1-0.2,0.2-0.3,0.1c-0.1-0.2,0.2-0.2,0.1-0.4
		c0.1-0.1,0-0.3,0.2-0.2c0.4,0.1,0.7,0,1-0.2c0.4-0.2,0.7,0.2,1,0.1c0.4-0.3,0.8,0.3,1.2-0.1c0.3-0.3,0.8,0.1,1.1-0.1
		c0.6-0.3,1.2,0.2,1.8,0.1c0,0.2,0.1,0.2,0.2,0.2c0.7,0,1.4,0.1,2.1-0.1c0.3-0.1,0.5,0.2,0.8,0.1c0.6,0,1.3,0,2,0.1
		c0.1,0,0.2,0,0.4,0v-0.1c-0.2-0.1-0.4,0-0.6-0.1c-0.5,0.1-0.9-0.1-1.4,0l0,0c-0.7,0-1.3,0-1.9,0.1v-0.1c0.2,0,0.5-0.1,0.7-0.1
		l0.1-0.1c-0.2-0.1-0.4,0-0.6-0.1c-0.4,0-0.8,0.2-1.1,0c-0.3-0.1-0.4,0-0.7,0.1c-0.4,0-0.7,0-1.1-0.2v-0.1c0.5-0.2,1,0.2,1.5,0
		c0.1,0,0.3,0,0.4-0.1c-0.2-0.3-0.5,0-0.7-0.1c-0.2,0-0.5,0-0.8-0.1c-0.3,0.1-0.6,0-0.8,0.2c0,0.1,0,0.2-0.1,0.2c0-0.1-0.1,0-0.1,0
		c-0.2,0-0.5,0.1-0.7-0.1c0.1,0,0.2-0.1,0.2-0.1v-0.1c-0.5,0-1.1-0.2-1.5,0c-0.4,0.1-0.7-0.1-1,0.1c-0.6-0.1-1,0.3-1.6,0.2
		c-0.1,0.1-0.2,0-0.3,0.2v0.2c-0.1,0,0,0.1-0.1,0.1c-0.1,0.1-0.2,0.2-0.2,0.3s0.1,0.1,0,0.2c0.1,0.1,0,0.2,0.1,0.2
		c-0.1,0-0.1,0-0.2-0.1c-0.1,0-0.3-0.1-0.4,0.1c-0.1,0.1-0.1,0.4,0,0.5s-0.1,0.1,0,0.1c-0.1,0-0.1,0.1-0.1,0.2
		c0.1,0,0.2,0.1,0.1,0.2c-0.1,0-0.2,0-0.2-0.1v-0.1c-0.3,0.1-0.5,0.4-0.9,0.3c-0.5,0.1-1.1,0.1-1.6,0.1c-0.6-0.1-1.1,0-1.8-0.1
		c-0.1,0-0.2-0.1-0.3-0.1c-0.1-0.2-0.2-0.3-0.4-0.5c-0.2,0-0.1-0.2-0.2-0.2c-0.1-0.1,0-0.2-0.2-0.2l-0.4-0.4c-0.4,0-0.7-0.1-1.1-0.2
		c-0.1-0.1,0-0.3-0.2-0.4l0,0c-0.3-0.1-0.1-0.3-0.1-0.6c0.1-0.5,0.6-0.3,0.9-0.4c0.6,0,1.1,0.1,1.6,0.3c0.6,0.1,1.1,0.1,1.6,0.1
		c0.3-0.2,0.6-0.2,0.9-0.4c0.6-0.2,1.2-0.4,1.8-0.6c0.5-0.1,1.1,0.3,1.6-0.1c0.4-0.4,0.9-0.3,1.3-0.7c0.4-0.1,0.8-0.4,1.1-0.6
		c0.2,0,0.4-0.2,0.5-0.3s0.4-0.3,0.6-0.2c0.2,0.1,0.4,0.1,0.6,0.2c0.4,0.3,1,0.3,1.4,0.6c0.2,0.1,0.5,0.1,0.7,0.4
		c0.3,0.1,0.5,0.2,0.8,0.3c0,0,0.1,0,0.1-0.1c-0.1-0.1-0.2-0.2-0.4-0.3c-0.1-0.2-0.3-0.1-0.4-0.3c-0.2,0-0.3-0.2-0.5-0.3
		c-0.1-0.1-0.2-0.1-0.2-0.2c0.4-0.1,0.7-0.5,1.1-0.6c0.1-0.1,0.3-0.1,0.4-0.2C51,39.3,51.4,39.7,51.7,39.8"/>
	<path id="path266" fill="#002A86" d="M31.7,41c0.1,0.2-0.2,0.2-0.2,0.4c-0.2,0-0.3-0.2-0.4-0.4C31.3,40.8,31.5,40.9,31.7,41"/>
	<path id="path272" fill="#002A86" d="M56.5,41.5c-0.1,0.3,0,0.6,0.3,0.8h-0.1c-0.1-0.2-0.4-0.3-0.3-0.6c0.1-0.2-0.3-0.2-0.2-0.4
		C56.4,41.3,56.4,41.5,56.5,41.5"/>
	<path id="path284" fill="#002A86" d="M57.4,42.9c0.1,0,0,0.1,0.1,0.2c-0.1,0-0.2-0.1-0.2-0.2c0-0.2-0.3-0.3-0.3-0.5
		C57.1,42.5,57.1,42.8,57.4,42.9"/>
	<path id="path286" fill="#FFFFFF" d="M46.8,42.8C46.8,42.9,46.7,42.9,46.8,42.8c-0.2,0.1-0.3,0.2-0.4,0.2c-0.2,0-0.5-0.1-0.7,0
		c-0.2,0-0.4,0-0.7-0.1v-0.1c0.4-0.1,0.8,0.2,1.2-0.1C46.4,42.6,46.6,42.7,46.8,42.8"/>
	<path id="path290" fill="#FFFFFF" d="M44.4,42.8c0,0.2-0.2,0.2-0.2,0.3c-0.3,0.1-0.6,0-0.9,0.2h-0.2c0-0.1,0-0.2,0-0.3
		C43.5,42.8,43.9,43,44.4,42.8L44.4,42.8"/>
	<path id="path312" fill="#FFFFFF" d="M44.1,44.3L44.1,44.3L44.1,44.3L44.1,44.3"/>
	<path id="path334" fill="#FFFFFF" d="M43.6,44.5L43.6,44.5L43.6,44.5C43.6,44.4,43.6,44.4,43.6,44.5"/>
	<path id="path336" fill="#FFFFFF" d="M44.1,44.4C44.1,44.4,44.1,44.5,44.1,44.4L44.1,44.4L44.1,44.4"/>
	<path id="path338" fill="#FFFFFF" d="M43.8,44.5L43.8,44.5L43.8,44.5L43.8,44.5L43.8,44.5L43.8,44.5L43.8,44.5L43.8,44.5"/>
	<path id="path342" fill="#FFFFFF" d="M47.3,44.8L47.3,44.8L47.3,44.8L47.3,44.8"/>
	<path id="path360" fill="#002A86" d="M60.5,45.3c0.2,0.1,0.5-0.2,0.4,0.2c0,0.1-0.1,0.2-0.2,0.2C60.8,45.5,60.6,45.3,60.5,45.3
		c-0.4-0.1-0.4,0.4-0.8,0.3c-0.2,0-0.1,0.4-0.3,0.3c0-0.1,0-0.2,0-0.3c0.2-0.2,0.5-0.2,0.7-0.4C60.3,45.2,60.5,45.1,60.5,45.3"/>
	<path id="path368" fill="#002A86" d="M44.6,45.4C44.6,45.4,44.5,45.4,44.6,45.4L44.6,45.4L44.6,45.4L44.6,45.4"/>
	<path id="path378" fill="#FFFFFF" d="M48.7,45.5C48.7,45.5,48.6,45.5,48.7,45.5L48.7,45.5L48.7,45.5"/>
	<path id="path380" fill="#002A86" d="M41.7,45.8C41.8,45.8,41.8,45.9,41.7,45.8V46c-0.5,0-0.9,0-1.5,0c-0.1,0,0-0.1,0-0.1
		c0.2-0.1,0.5-0.2,0.8-0.1C41.2,45.8,41.5,45.8,41.7,45.8"/>
	<path id="path382" fill="#002A86" d="M53.9,45.8c0.1,0.1,0.2,0,0.3,0.1c0,0.1-0.1,0.1-0.2,0.2c-0.7,0-1.5,0.1-2.2-0.1
		c0-0.2,0.2-0.1,0.3-0.1C52.7,45.8,53.3,45.8,53.9,45.8"/>
	<path id="path388" fill="#002A86" d="M51.8,46.1L51.8,46.1c-0.3,0.3-0.8,0.1-1.2,0.2c-0.1,0-0.2,0-0.3-0.1
		c-0.1-0.2,0.1-0.1,0.2-0.2C50.9,45.9,51.4,46.2,51.8,46.1"/>
	<path id="path402" fill="#002A86" d="M42.6,46.8C42.6,46.9,42.5,46.9,42.6,46.8c-0.4,0.1-0.7,0.1-1,0.1c-0.1,0-0.2,0-0.3-0.1
		c0.1-0.1,0.3,0,0.4-0.1C42.1,46.8,42.3,46.7,42.6,46.8"/>
	<path id="path404" fill="#002A86" d="M38.3,47c0.1,0.3-0.3,0.2-0.4,0.5c-0.1,0-0.1,0.2-0.2,0.2c-0.2-0.2-0.5-0.2-0.8-0.2v-0.1
		c0.3-0.2,0.7,0.1,1-0.2C38.1,47.2,38.1,46.9,38.3,47L38.3,47"/>
	<path id="path420" fill="#002A86" d="M71.4,47.4c0,0.2,0.1,0.4-0.1,0.6c-0.1,0.1-0.2,0-0.3,0c-0.2-0.1-0.2-0.4-0.2-0.5
		C70.9,47.3,71.2,47.2,71.4,47.4"/>
	<path id="path422" fill="#002A86" d="M70.5,47.6c-0.1,0.2,0.1,0.5-0.2,0.6c-0.1,0.1-0.2,0-0.4-0.1c0-0.1-0.1-0.1-0.2-0.2
		c0.1-0.1-0.1-0.3,0-0.4C70,47.4,70.4,47.3,70.5,47.6"/>
	<path id="path426" fill="#002A86" d="M35.5,47.7L35.5,47.7c0.2,0.1,0.1,0.3,0.2,0.4c0,0,0,0-0.1,0c-0.1,0.1,0.1,0.1,0.1,0.2
		c-0.1,0.1,0.1,0.4-0.1,0.3c0.1-0.3-0.2-0.4-0.2-0.7c-0.3-0.1-0.7,0-0.9,0.2c0,0.1-0.1,0.2-0.2,0.3c-0.2,0.1-0.5,0-0.6,0.2
		c-0.1,0-0.1,0-0.1-0.1s0.1-0.1,0.2-0.2c0.1-0.1,0.4,0,0.4-0.2c0.1-0.2,0.2-0.3,0.5-0.4C35,47.7,35.3,47.4,35.5,47.7"/>
	<path id="path430" fill="#002A86" d="M65.1,48.2c-0.1,0.2,0.1,0.4-0.1,0.6l0,0c0-0.3,0-0.7-0.2-0.9v-0.1
		C64.9,47.8,64.9,48.1,65.1,48.2"/>
	<path id="path486" fill="#002A86" d="M46.1,50.1c0,0.1-0.1,0.2-0.1,0.2C45.8,50.4,46.1,50.1,46.1,50.1C46,50.1,46,50.1,46.1,50.1"
		/>
	<path id="path490" fill="#002A86" d="M71.5,50.3c0,0.2,0,0.4-0.2,0.6c-0.1,0-0.2,0-0.2-0.1c-0.1-0.2-0.2-0.4-0.1-0.6
		C71.1,50.2,71.4,50.1,71.5,50.3"/>
	<path id="path496" fill="#002A86" d="M63.2,50.4L63.2,50.4L63.2,50.4L63.2,50.4L63.2,50.4"/>
	<path id="path502" fill="#002A86" d="M61.9,50.7C61.9,50.8,61.9,50.8,61.9,50.7L61.9,50.7L61.9,50.7L61.9,50.7"/>
	<path id="path526" fill="#002A86" d="M45.7,51.9c-0.1,0.1-0.1,0.3-0.2,0.3c0.1-0.2,0.1-0.5,0.1-0.7C45.9,51.5,45.7,51.7,45.7,51.9"
		/>
	<path id="path560" fill="#002A86" d="M53.4,52.7C53.4,52.8,53.4,52.8,53.4,52.7c-0.3,0.2-0.2-0.2-0.1-0.2
		C53.3,52.6,53.4,52.6,53.4,52.7"/>
	<path id="path570" fill="#002A86" d="M29.9,53.2c0,0.1,0,0.1-0.1,0.1c-0.2-0.1-0.3,0-0.4-0.1c0-0.2,0.2-0.2,0.4-0.3
		C29.9,53,29.8,53.1,29.9,53.2"/>
	<path id="path576" fill="#002A86" d="M53.4,53C53.4,53,53.4,53.1,53.4,53C53.3,53.1,53.2,53.1,53.4,53C53.3,53,53.3,53,53.4,53
		C53.3,53,53.4,52.9,53.4,53"/>
	<path id="path578" fill="#002A86" d="M53.8,53c0,0.1,0,0.2-0.1,0.2c-0.1,0-0.1-0.1-0.1-0.2C53.7,52.9,53.8,53,53.8,53"/>
	<path id="path580" fill="#002A86" d="M71,53.2c0,0.1-0.2,0.1-0.3,0.2c-0.1,0-0.3,0.1-0.3-0.1c0-0.1,0-0.2,0.1-0.3
		C70.7,52.9,70.8,53.1,71,53.2"/>
	<path id="path582" fill="#002A86" d="M55,53.3c-0.3,0.1-0.5,0-0.8-0.1c0-0.4,0.3-0.2,0.7-0.2C55,53.1,55,53.2,55,53.3"/>
	<path id="path588" fill="#002A86" d="M53.3,53.4c0.1,0,0.2,0,0.2-0.1c0.1,0,0,0.1,0,0.2c-0.2,0.1-0.3,0-0.4-0.1
		c-0.1,0.1-0.2,0.1-0.3,0.1s-0.2,0-0.2-0.2c0.1-0.1,0.2-0.1,0.2-0.1C53,53.5,53.2,53.2,53.3,53.4"/>
	<path id="path590" fill="#002A86" d="M46.8,53.5L46.8,53.5L46.8,53.5L46.8,53.5L46.8,53.5"/>
	<path id="path592" fill="#002A86" d="M55,53.8L55,53.8c-0.1-0.1-0.1-0.2,0-0.3C55.1,53.5,55,53.7,55,53.8"/>
	<path id="path594" fill="#002A86" d="M54.7,53.5c0,0.1,0,0.1,0,0.2C54.5,53.7,54.6,53.4,54.7,53.5"/>
	<path id="path596" fill="#002A86" d="M54,53.6C54,53.6,54,53.5,54,53.6C54.1,53.6,54.1,53.6,54,53.6c0,0-0.1,0.1-0.2,0v-0.1
		C53.9,53.6,53.9,53.6,54,53.6"/>
	<path id="path600" fill="#002A86" d="M54,53.9L54,53.9c-0.2,0.1-0.2,0-0.3,0c0-0.1,0-0.1,0.1-0.1C53.8,53.8,53.9,53.8,54,53.9"/>
	<path id="path606" fill="#002A86" d="M37.4,54c0,0.2,0,0.2,0,0.4c-0.2,0-0.5,0.2-0.6,0c0-0.2,0-0.3,0.1-0.4
		C37.1,54,37.3,54,37.4,54"/>
	<path id="path608" fill="#002A86" d="M36.4,54.1c-0.1,0.1,0,0.4-0.1,0.5c-0.2,0-0.5,0-0.7,0c-0.2-0.2-0.1-0.5,0.1-0.6
		C35.9,54.1,36.3,53.9,36.4,54.1"/>
	<path id="path610" fill="#002A86" d="M38.2,54.3v0.6C38.1,55,38,54.8,38,54.8c0.1-0.2-0.2-0.5,0.1-0.7C38.1,54.1,38,54.2,38.2,54.3
		"/>
	<path id="path620" fill="#C8C8C8" d="M41.3,54.8c0.2-0.1,0.3,0,0.5-0.1c0.6,0,1.1,0.1,1.7,0.1c0.3,0.2,0.7,0.1,0.9,0.4
		c0.3-0.1,0.6,0.2,0.9,0.1c0.1,0,0.4-0.1,0.5-0.1c0.1,0.1,0,0.2,0.1,0.2c0,0.2,0.1,0.3,0,0.6c-0.5,0.1-0.1,0.7-0.4,0.9
		c-0.1,0.2,0,0.5-0.2,0.7c0,0.3-0.1,0.7-0.1,1c0,0,0,0-0.1,0c0,0.1,0,0.1,0.1,0.1c-0.2,0.2,0,0.4-0.1,0.6c0,0.3-0.1,0.6,0,0.9l0,0
		c0,0.4,0.1,1,0.1,1.5c0.2,0.5,0,1.1,0.2,1.6c0.1,0,0,0.1,0.1,0.1c0,0.1,0.3,0.1,0.4,0.3c0,0.1-0.1,1.4-0.2,1.5c0,0.5-0.1,0.8,0,1.3
		c-0.5-0.1-0.9-0.1-1.2-0.4h-0.1c0-0.1-0.1,0-0.2-0.1c-0.1,0-0.3,0-0.3-0.1c-0.4,0-0.7-0.5-1.1-0.5c-0.1-0.1-0.2,0-0.2-0.1
		c-0.2-0.1-1.1-0.4-1.1-0.7c-0.1,0-0.1-0.1-0.2-0.1c0-0.1,0-0.1,0-0.2c0.8,0,1.7-0.3,2.5-0.6c0.2-0.2-0.3-0.7-0.4-0.8
		c0-0.2-0.1-0.4-0.2-0.6c0.1-0.2-0.3-0.6,0.1-0.6c0-0.2,0.4-0.3,0.1-0.6c0-0.1-0.1-0.3-0.2-0.4c0.1-0.1-0.1-0.2,0.1-0.3
		c0-0.1,0.1-0.2,0.1-0.3c0.2-0.2,0-0.3,0.2-0.4h0.1c0,0.3,0.1,0.7,0,1c0.1,0.1,0.1,0.3,0.3,0.3c0.1-0.1,0.4-0.2,0.4-0.4
		c0.1-0.1,0.1-0.3,0.1-0.4c-0.1-0.2-0.1-0.4-0.1-0.6c0.1,0.2,0.4,0,0.3,0.3c0.1,0.1,0.2,0,0.2-0.1c0.1,0,0.1-0.2,0.1-0.2l0,0
		c0.1,0,0-0.1,0-0.2c-0.2-0.1,0.1-0.3-0.1-0.3c0-0.2-0.2-0.4-0.2-0.6c0-0.2,0.2,0,0.2-0.1c0-0.2,0.5-0.4-0.1-0.7
		c0-0.1-0.2-0.2-0.2-0.3c-0.4-0.3-1.2-0.1-1.6-0.5c-0.2,0-0.3,0-0.4-0.1c-0.2-0.1-0.9-0.2-1.1-0.2c-0.3,0-0.5,0.3-0.8,0.3
		c0-0.1,0-0.2,0.1-0.2c0-0.2,0.5-0.3,0.6-0.3c0-0.2,0.2-0.2,0.3-0.4c0-0.2-0.2-0.1-0.3-0.2l0,0c0.1,0,0.1-0.1,0.1-0.1
		c0.4-0.4-1.3-0.5-1.3-0.5c0-0.4-0.5,0.2-0.5-0.4c0.1-0.1,0.1-0.3,0.2-0.3c0.4-0.3,0.7,0.2,1.2,0.1L41.3,54.8"/>
	<path id="path634" fill="#FFFFFF" d="M51.4,55.5L51.4,55.5L51.4,55.5L51.4,55.5"/>
	<path id="path638" fill="#C8C8C8" d="M53.5,60.7c-0.1,0.2-0.2,0.5-0.3,0.7c0.1,0.1,0.2,0,0.2,0.2c0.1,0,0.2,0.2,0.2,0.2
		c0,0.1,0,0.1-0.1,0.1l-0.1-0.1v0.1h0.2c0.1,0.1,0.2,0,0.2,0.1c-0.1,0.2,0,0.5,0,0.8l0,0c0,0.1,0,0.1,0,0.1c0,0.3,0.2,2-0.1,2.2
		c0.1,0.1,0,0.2,0.1,0.2c0,0.2-0.1,0.6,0.1,0.8c-0.1,0-0.1,0-0.1,0.1c0.1,0.1,0.3,0.2,0.2,0.3c0.9-0.2,1.7-0.5,2.5-0.8
		c0.2-0.2,0.5-0.3,0.8-0.3c0.2-0.1,0.4-0.2,0.6-0.3V65c-0.3,0-0.4-0.5-0.7-0.3c-0.3,0-0.6-0.3-0.8-0.5c-0.3,0-0.6,0-0.9-0.1
		c-0.3-0.4,0.4-0.4,0.3-0.7c0.1-0.2,0.9-0.3,0.7-0.7c-0.1,0-0.1-0.2-0.1-0.3l0,0c0.1,0,0.1-0.2,0.2-0.2c0.3-0.5-0.3-0.1-0.4-0.3
		c0-0.3,0.7-0.8,0.7-0.5c0.3,0,0.5,0.1,0.8,0.1c0.2,0.1,0.3,0.1,0.5,0.1c0-0.1,0-0.1,0.1-0.2c-0.1-0.2,0-0.4-0.1-0.6
		c0.1-0.1-0.1-0.1-0.1-0.2c-0.4,0-1,0-1.4,0.1c-0.1,0.2-0.4,0-0.5,0.2c-0.3-0.1-0.7-0.1-1-0.3c0-0.1,0-0.2,0-0.3
		c0.2-0.1,0.2-0.4,0.3-0.5c0.1,0,0.1,0,0.2,0c0.2,0.1,0.1,0.3,0.2,0.4c0.3,0,1.2-0.1,1.5-0.3c0.1-0.3-0.2-0.2-0.2-0.4
		c-0.1-0.1-0.2-0.2-0.3-0.2c-0.1-0.2-0.4-0.1-0.4-0.3c0.2-0.4,0.4-0.4,0.4-0.8c-0.4-0.2-1-0.4-1.5-0.3c-0.1-0.1-0.3-0.1-0.3-0.2l0,0
		v-0.1c0,0,0,0,0.1,0c0-0.5-1.5-0.5-1.8-0.6c-0.8-0.2-1.4-0.2-2-0.8c-0.2,0,0-0.2-0.1-0.3c0,0.3,0.1,0.9,0.2,1.1
		c-0.1,0.1-0.3,0.3-0.3,0.5c-0.3,0.6-1,1.1-1.4,1.5l0.2-0.5l0,0c-0.1,0.1,0,0.2,0,0.2s0-0.1,0.1,0c0,0.1,0,0.1,0,0.2H50L49.9,59
		c0.2,0.3-0.4,0.2,0,0.6c0.2-0.1,0.8,0.2,1,0c0.5,0.1,0.9-0.1,1.3,0.1c0,0.1,0.1,0.1,0.1,0.2h1.3c0.2,0.1,0.6-0.1,0.6,0.2
		c-0.1,0.1-0.1,0.1-0.2,0.1C54,60.3,53.6,60.6,53.5,60.7"/>
	<path id="path694" fill="#002A86" d="M31.1,58.3c0,0.2,0.1,0.3,0,0.4c-0.1,0.1-0.2,0.2-0.4,0.2c-0.1-0.1-0.1-0.2-0.2-0.3
		s-0.1-0.3,0-0.4c0.1-0.1,0.2-0.1,0.3-0.1L31.1,58.3"/>
	<path id="path700" fill="#002A86" d="M58.6,58.3c0,0.1-0.1,0.3,0,0.4c-0.1,0.1,0.1,0.3-0.1,0.3c0,0.1-0.2,0-0.2,0.2
		c-0.1,0.1-0.1,0.3-0.2,0.4c-0.1-0.1,0-0.3-0.2-0.4c-0.2-0.2,0.1-0.3,0.2-0.4c0.1,0,0.1,0,0.2,0C58.4,58.6,58.5,58.5,58.6,58.3
		L58.6,58.3"/>
	<path id="path712" fill="#002A86" d="M59.9,59.1c-0.1,0.1-0.2,0.2-0.3,0.2c-0.1-0.1-0.2-0.2-0.1-0.3c0.1,0,0.2-0.3,0.4-0.1
		L59.9,59.1"/>
	<path id="path766" fill="#002A86" d="M68,61.2c-0.1,0.1-0.3,0-0.5,0c-0.1-0.1,0-0.2,0-0.3c0.1,0,0.1-0.2,0.2-0.1
		C68,60.9,68,61,68,61.2"/>
	<path id="path780" fill="#002A86" d="M50.7,61.7C50.7,61.8,50.6,61.8,50.7,61.7c-0.3,0.1-0.7,0.2-0.8,0c0-0.1,0.2-0.1,0.3-0.1
		C50.3,61.5,50.5,61.6,50.7,61.7"/>
	<path id="path822" fill="#002A86" d="M48.5,63.4c0,0.1,0,0.2,0,0.2l0,0C48.5,63.6,48.4,63.5,48.5,63.4"/>
	<path id="path920" fill="#002A86" d="M61,68.2c0.1,0.1,0,0.2,0.1,0.3c0,0.1,0.1,0.1,0,0.2c-0.1,0.2-0.3,0.2-0.6,0.2
		c-0.1-0.1-0.2-0.2-0.2-0.3c0-0.1,0-0.2,0-0.3C60.6,68.2,60.9,68,61,68.2"/>
	<path id="path926" fill="#002A86" d="M41.1,68.3c0,0.2,0,0.5-0.2,0.6s-0.3-0.1-0.3-0.2C40.6,68.5,40.8,68.4,41.1,68.3
		C41.1,68.2,41.1,68.3,41.1,68.3"/>
	<path id="path928" fill="#002A86" d="M58.6,68.5c0.2,0.1,0,0.4,0,0.5c-0.1,0-0.1,0.1-0.1,0.1c-0.1-0.1-0.5-0.2-0.3-0.5
		C58.3,68.5,58.4,68.3,58.6,68.5"/>
	<path id="path936" fill="#002A86" d="M43.9,69.2c0,0.1,0.1,0.3,0,0.3c-0.2,0.2-0.4,0-0.5,0c-0.1-0.1-0.2-0.1-0.1-0.2
		c0-0.1,0.1-0.2,0.2-0.4C43.5,69,43.7,69.2,43.9,69.2"/>
	<path id="path940" fill="#002A86" d="M59.2,69.5c0.1,0.1,0,0.3-0.1,0.4c0,0.1-0.2,0.1-0.3,0.1c-0.1-0.1-0.2-0.1-0.2-0.2
		s0.1-0.2,0-0.3C58.8,69.2,59.1,69.4,59.2,69.5"/>
	<path id="path982" fill="#002A86" d="M41.3,38.3l-0.5,0.2l0.1,0.2l0.5-0.2l0.1,0.2L41,38.9l0.1,0.2l0.5-0.2l0.1,0.2L41,39.4
		l-0.4-0.9L41.3,38.3L41.3,38.3"/>
	<path id="path984" fill="#002A86" d="M42.6,38.8l-0.2-0.1c-0.1,0.1-0.2,0.1-0.2,0.2c-0.1,0-0.5,0.1-0.6-0.3
		c-0.2-0.4,0.1-0.6,0.3-0.7c0.1,0,0.5-0.1,0.6,0.3c0.1,0.2,0.1,0.3,0,0.4L42.6,38.8L42.6,38.8z M42.2,38.4L42.2,38.4
		C42.3,38.4,42.3,38.4,42.2,38.4c0-0.4-0.2-0.4-0.3-0.4s-0.2,0.2-0.1,0.4c0.1,0.3,0.3,0.3,0.4,0.2c0,0,0.1,0,0.1-0.1L42.2,38.4
		L42.2,38.4"/>
	<path id="path986" fill="#002A86" d="M43.5,38.1c0.1,0.2,0,0.4-0.3,0.5c-0.1,0-0.2,0-0.3,0s-0.1-0.1-0.1-0.2l-0.2-0.6l0.2-0.1
		l0.2,0.6c0,0.1,0.1,0.2,0.2,0.1c0.1,0,0.2-0.1,0.1-0.2l-0.2-0.6l0.2-0.1L43.5,38.1"/>
	<path id="path988" fill="#002A86" d="M43.8,38.3l-0.2,0.1l0.1-1.1l0.2-0.1l0.6,0.9l-0.2,0.1L44.2,38l-0.4,0.1V38.3z M43.9,38
		l0.2-0.1l-0.2-0.4l0,0V38"/>
	<path id="path990" fill="#002A86" d="M44.9,37.9l0.5-0.1V38l-0.7,0.2l-0.3-1l0.2-0.1L44.9,37.9"/>
	<path id="path992" fill="#002A86" d="M45.8,37.9L45.6,38l-0.3-1l0.2-0.1L45.8,37.9"/>
	<path id="path994" fill="#002A86" d="M46.4,37.8l-0.2,0.1L46,37.1l-0.3,0.1V37l0.8-0.2V37h-0.3L46.4,37.8"/>
	<path id="path996" fill="#002A86" d="M47.3,37.5l-0.2,0.1L47,37.2l-0.5-0.5l0.2-0.1L47,37l0.1-0.5l0.2-0.1l-0.1,0.7L47.3,37.5"/>
	<path id="path998" fill="#002A86" d="M47.3,34.1l0.5-0.1c0.2,0,0.3,0.1,0.3,0.2c0,0.1-0.1,0.2-0.1,0.2c0.1,0,0.2,0.1,0.2,0.2
		c0,0.1,0,0.2-0.1,0.2c0,0.1-0.1,0.1-0.3,0.1L47.5,35L47.3,34.1z M47.7,34.8H48c0.1,0,0.2-0.1,0.1-0.2c0-0.1-0.1-0.1-0.2-0.1h-0.3
		L47.7,34.8z M47.6,34.4h0.2c0.1,0,0.1-0.1,0.1-0.1c0-0.1-0.1-0.1-0.2-0.1h-0.2L47.6,34.4"/>
	<path id="path1000" fill="#002A86" d="M49.1,34l-0.5,0.1v0.2l0.5-0.1v0.2l-0.5,0.1v0.3l0.5-0.1v0.2L48.3,35l-0.1-1l0.7-0.1L49.1,34
		"/>
	<path id="path1002" fill="#002A86" d="M49.6,34.8h-0.2v-1h0.7V34h-0.5v0.2H50v0.2h-0.4V34.8"/>
	<path id="path1004" fill="#002A86" d="M50.7,33.8c0.1,0,0.5,0.1,0.5,0.5c0,0.5-0.4,0.5-0.5,0.5s-0.5-0.1-0.5-0.5
		C50.2,33.8,50.6,33.8,50.7,33.8z M50.7,34.6c0.1,0,0.3-0.1,0.3-0.3c0-0.3-0.1-0.4-0.3-0.4c-0.1,0-0.3,0.1-0.3,0.3
		S50.6,34.6,50.7,34.6"/>
	<path id="path1006" fill="#002A86" d="M51.4,33.8l0.5,0.1c0.3,0,0.3,0.2,0.3,0.3s-0.1,0.2-0.2,0.2c0.1,0,0.1,0.1,0.1,0.3
		c0,0.1,0,0.2,0,0.2l0,0h-0.2c0,0,0-0.1,0-0.2c0-0.1,0-0.2-0.1-0.2h-0.2v0.4h-0.2L51.4,33.8z M51.8,34.3c0.1,0,0.2,0,0.2-0.1
		s0-0.1-0.1-0.1h-0.3v0.3L51.8,34.3"/>
	<path id="path1008" fill="#002A86" d="M53.1,34.2l-0.5-0.1v0.2l0.5,0.1v0.2l-0.5-0.1v0.3l0.5,0.1v0.2L52.4,35l0.1-1L53.1,34.2
		L53.1,34.2"/>
	<path id="path1010" fill="#002A86" d="M53.9,37.2h-0.2l0.2-0.8l-0.3-0.1v-0.2l0.8,0.2v0.2l-0.3-0.1L53.9,37.2"/>
	<path id="path1012" fill="#002A86" d="M54.6,36.9l-0.1,0.4h-0.2l0.2-1h0.2l-0.1,0.4l0.4,0.1l0.1-0.4l0.2,0.1l-0.2,1l-0.2-0.1L55,37
		L54.6,36.9"/>
	<path id="path1014" fill="#002A86" d="M56.3,37l-0.5-0.1l-0.1,0.2l0.5,0.1v0.2l-0.5-0.1l-0.1,0.2l0.5,0.2v0.2l-0.7-0.2l0.3-1
		l0.7,0.2L56.3,37"/>
	<path id="path1016" fill="#002A86" d="M56.9,37.8l0.5,0.2l-0.1,0.2L56.6,38l0.4-1l0.2,0.1L56.9,37.8"/>
	<path id="path1018" fill="#002A86" d="M57.6,38.2l-0.2-0.1l0.7-0.8l0.2,0.1v1.1l-0.2-0.1v-0.2L57.7,38L57.6,38.2z M57.8,37.9L58,38
		v-0.4l0,0L57.8,37.9"/>
	<path id="path1020" fill="#002A86" d="M58.6,37.5l0.2,0.1c-0.1,0.6-0.1,0.6-0.1,0.7l0,0c0.1-0.1,0.1-0.2,0.4-0.6l0.2,0.1
		c-0.1,0.5-0.1,0.6-0.1,0.7l0,0c0.1-0.1,0.1-0.2,0.4-0.6l0.2,0.1l-0.6,0.8L59,38.7c0.1-0.5,0.1-0.6,0.1-0.8l0,0
		c-0.1,0.2-0.1,0.2-0.4,0.7l-0.2-0.1L58.6,37.5"/>
</g>
<g>
	<path opacity="0.2" enable-background="new    " d="M10.4,74.3V25.8c0-12.1,8.2-22.7,19.8-25.8H0v100h30.2
		C18.5,96.9,10.4,86.3,10.4,74.3z"/>
	<path opacity="0.1" fill="#FFFFFF" enable-background="new    " d="M89.6,25.8v48.5c0,12.1-8.2,22.7-19.8,25.8H100V0H69.8
		C81.5,3.1,89.6,13.7,89.6,25.8z"/>
</g>
<path fill="#FFCC00" d="M50.5,31.4c-10.4-0.1-18.9,8.2-19.1,18.6C31.2,60.3,39.6,68.9,49.9,69c10.4,0.1,18.9-8.2,19.1-18.6
	C69.2,40.1,60.9,31.5,50.5,31.4z M49.9,68.3c-9.8-0.1-17.6-8.3-17.4-18.2s8.2-17.8,17.9-17.7c9.8,0.1,17.6,8.3,17.4,18.2
	C67.7,60.5,59.7,68.4,49.9,68.3z"/>
<path fill="#FFCC00" d="M50.3,25.6c-13.6,0-24.7,11-24.7,24.7c0,13.6,11,24.7,24.7,24.7c13.6,0,24.7-11,24.7-24.7
	C74.9,36.6,63.9,25.6,50.3,25.6z M50.3,73.1c-12.2,0-22.1-10.2-22.1-22.8c0-12.6,9.9-22.8,22.1-22.8c12.2,0,22.1,10.2,22.1,22.8
	C72.3,62.9,62.5,73.1,50.3,73.1z"/>
</svg>
