<?xml version="1.0" encoding="utf-8"?>
<!-- Generator: Adobe Illustrator 23.0.0, SVG Export Plug-In . SVG Version: 6.00 Build 0)  -->
<svg version="1.0" id="Layer_1" xmlns="http://www.w3.org/2000/svg" xmlns:xlink="http://www.w3.org/1999/xlink" x="0px" y="0px"
	 width="100px" height="100px" viewBox="0 0 100 100" enable-background="new 0 0 100 100" xml:space="preserve">
<g>
	<path fill="#002A86" d="M0,100h100V0H0V100z"/>
</g>
<g>
	<g>
		<path fill="#EFAE0E" d="M51,27.5l1.6-1.1h-2L50,24.6l-0.5,1.8h-1.9l1.6,1.1l-0.6,1.9l1.6-1.2l1.6,1.2L51,27.5"/>
	</g>
	<g>
		<path fill="#EFAE0E" d="M36.8,32.1l1.5-1.2l-2,0.1l-0.7-1.8L35.1,31l-1.9,0.1l1.5,1.1L34.2,34l1.6-1.2l1.6,1.1L36.8,32.1"/>
	</g>
	<g>
		<path fill="#EFAE0E" d="M28.2,45.3l2-0.2l-1.7-1l0.4-1.8l-1.4,1.2l-1.7-1l0.8,1.8l-1.5,1.3l2-0.2l0.7,1.8L28.2,45.3"/>
	</g>
	<g>
		<path fill="#EFAE0E" d="M30,59.7l1.5-1.4l-1.9,0.3l-0.8-1.7l-0.4,1.9l-2,0.2l1.7,0.9l-0.4,1.9l1.5-1.4l1.7,1L30,59.7"/>
	</g>
	<g>
		<path fill="#EFAE0E" d="M40,69.8l0.3-1.9l-1.4,1.4l-1.7-0.9l0.9,1.7l-1.4,1.3l1.9-0.3l0.8,1.8l0.4-2l1.9-0.3L40,69.8"/>
	</g>
	<g>
		<path fill="#EFAE0E" d="M45.7,28.1L45.5,28l-0.2-0.1l-0.5-0.1h-0.5l-0.4,0.1L43.5,28h-0.4l0.6-0.3l0.7-0.4l0.7-0.5l0.3-0.3
			l0.2-0.2h0.1l0.2-0.1l0.1-0.1l0.1-0.1v-0.2v-0.2L46,25.5l-0.1-0.1l-0.2-0.1h-0.1l-0.1,0.1l-0.1,0.1v0.2v0.1l0.1,0.1l0.1,0.1l0,0
			L45,26.7l-0.5,0.4l-0.6,0.3l-0.6,0.3l-1.2,0.5l-1.2,0.4l0.2-0.1l0.2-0.2l0.9-0.4l0.7-0.4l0.3-0.3l0.3-0.3l0.3-0.3l0.2-0.3V26
			l0.1-0.4l-0.4,0.1l-0.3,0.1H43L42.7,26l-0.6,0.4l-0.5,0.5l-0.4,0.5l-0.3,0.5l-0.3,0.5l-0.2,0.3l-0.1,0.1l-0.1-0.1l-0.1-0.1v-0.2
			l0.1-0.2l0.2-0.5l0.1-0.5h0.1l0.1-0.1l0.1-0.1l0.1-0.1v-0.1l0.1-0.2l-0.1-0.1l-0.1-0.1h-0.2l-0.1,0.1l-0.1,0.1l-0.1,0.1v0.1
			l0.1,0.1l0.1,0.1l0.1,0.1l-0.1,0.5l-0.2,0.5L40,28.6L39.7,29l-1.2,0.7v-0.1v-0.2l0.1-0.4l0.1-0.2l0.2-0.2l0.4-0.3l0.1-0.2l0.1-0.3
			l0.1-0.4v-0.6l-0.1,0.1L39.3,27l-0.4,0.3L38.4,28l-0.2,0.2L38,28.4v0.2v0.2l0.1,0.2l0.1,0.3l0.1,0.2v0.2v0.4l-0.4,0.3l-0.1,0.1
			v0.1v0.1l0,0H38l0.2-0.1l0.5-0.3l0.4-0.1h0.4l0.2,0.1l0.2,0.1l0.2,0.1l0.1,0.2H40v0.1V31l0.1,0.1l0.1,0.1l0.2,0.1h0.2l0.2-0.1
			l0.1-0.1l0.1-0.2v-0.2l-0.1-0.1l-0.1-0.1l-0.1-0.1h-0.2l-0.1,0.1L40,30.3l-0.3-0.2L39.4,30h-0.3l0.6-0.3l0.3-0.1h0.3l0.3,0.1
			l0.3,0.1l0.4,0.3l0.5,0.2l0.3,0.1h0.3h0.3l0.3-0.1l0.5-0.2l0.2-0.1h0.2l-0.1-0.2l-0.3-0.2L43,29.1L42.6,29l-0.4-0.1h-0.4L41.5,29
			l-0.4,0.2l-0.4,0.1l-0.4,0.1L40,29.3l0.5-0.3l0.4-0.2l1.3-0.5h0.3l0.4,0.1l0.3,0.2l0.3,0.2l0.5,0.3l0.5,0.1l0.5,0.1l0.5-0.1
			l0.5-0.1l0.4-0.2l0.4-0.3l0.3-0.3h-0.3l-0.4-0.1L46,28.3L45.7,28.1"/>
	</g>
	<g>
		<path fill="#EFAE0E" d="M33.4,35.1h-0.3l-0.3,0.1l-0.4,0.3l-0.3,0.3l-0.3,0.3l-0.3,0.4l-0.3,0.2l0.3-0.6l0.3-0.8l0.3-0.8l0.1-0.4
			v-0.3l0.1-0.1l0.1-0.1l0.1-0.1v-0.1l-0.1-0.2L32.3,33l-0.2-0.1L32,33h-0.2l-0.1,0.1l-0.1,0.1v0.2l0.1,0.1l0.1,0.1l0.1,0.1h0.2l0,0
			L32,34.5l-0.2,0.6l-0.3,0.6l-0.3,0.6l-0.7,1.2l-0.7,1l0.2-0.6l0.4-0.9l0.3-0.7l0.1-0.4l0.1-0.4v-0.4l-0.1-0.4l-0.1-0.4l-0.2-0.4
			l-0.2,0.3l-0.2,0.3L29.9,35l-0.1,0.3L29.5,36l-0.1,0.7v0.7V38l0.1,0.5l0.1,0.4V39h-0.1l-0.1-0.1l-0.1-0.1l-0.1-0.2L29.1,38
			l-0.2-0.5l0.1-0.1l0.1-0.1v-0.1v-0.1L29,37l-0.1-0.1h-0.2L28.6,37h-0.2l-0.1,0.1v0.1l0.1,0.1l0.1,0.1l0.1,0.1h0.1h0.1l0.2,0.4
			l0.1,0.5l0.1,0.6v0.5L28.7,41l-0.1-0.1l-0.1-0.1l-0.1-0.3v-0.3l0.1-0.3l0.1-0.5v-0.2l-0.1-0.3l-0.2-0.4L28,38v0.2l-0.1,0.2
			l-0.1,0.5l-0.2,0.6v0.3v0.3l0.1,0.2l0.1,0.2l0.2,0.1l0.3,0.1l0.1,0.1l0.1,0.1l0.2,0.3l-0.1,0.5v0.1v0.1l0,0h0.1l0.1-0.1l0.1-0.2
			l0.2-0.5l0.2-0.3l0.4-0.3l0.2-0.1l0.2-0.1h0.2l0.2,0.1v0.1l0.1,0.1l0.1,0.1l0.1,0.1H31l0.1-0.1l0.1-0.1l0.1-0.1v-0.2l-0.1-0.1
			l-0.1-0.1H31h-0.1l-0.2,0.1l-0.1,0.1l-0.1,0.1l-0.3-0.1h-0.3l-0.3,0.1l-0.3,0.2l0.2-0.6l0.2-0.2l0.3-0.2l0.3-0.1l0.3-0.1l0.5-0.1
			l0.6-0.1l0.3-0.1l0.3-0.2l0.2-0.2l0.2-0.3L33,38l0.1-0.1l0.1-0.1L33,37.7l-0.3-0.1H32l-0.3,0.1L31.1,38l-0.3,0.3l-0.2,0.3L30.4,39
			l-0.3,0.3L30,39.4l-0.3,0.2l0.2-0.5l0.2-0.4l0.8-1.2l0.3-0.2l0.3-0.1l0.4-0.1h0.3l0.5-0.1l0.5-0.2l0.4-0.3l0.4-0.3l0.3-0.4
			l0.2-0.4l0.1-0.4v-0.5l-0.3,0.3L34,35l-0.4,0.1H33.4"/>
	</g>
	<g>
		<path fill="#EFAE0E" d="M27.9,48.3l-0.2,0.2l-0.1,0.2l-0.2,0.5l-0.1,0.4v0.9l-0.1,0.4L27,50.2l-0.2-0.8l-0.3-0.8l-0.2-0.3L26.1,48
			l0.1-0.1v-0.1l-0.1-0.1L26,47.4l-0.2-0.1h-0.2h-0.1l-0.1,0.1l-0.1,0.1v0.2l0.1,0.2l0.1,0.1l0.1,0.1h0.2h0.1L26,48v0.1l0.3,0.6
			l0.2,0.6l0.2,0.6l0.1,0.7l0.2,1.3l0.1,1.3L27,52.9l-0.1-0.3l-0.1-0.9L26.6,51l-0.2-0.3l-0.2-0.3L26,50.1l-0.3-0.3l-0.3-0.3
			L25,49.3l-0.1,0.3v0.3l0.1,0.7l0.3,0.7l0.3,0.6l0.4,0.5l0.4,0.5l0.4,0.4l0.3,0.3v0.1H27h-0.1l-0.2-0.1l-0.2-0.1l-0.4-0.3L26,53.1
			L25.7,53v-0.1v-0.2l-0.1-0.1l-0.1-0.1l-0.1-0.1h-0.1l-0.1,0.1L25,52.6v0.2V53l0.1,0.1l0.1,0.1h0.1h0.1l0.1-0.1l0.1-0.1l0.4,0.3
			l0.5,0.3L27,54l0.3,0.4l0.4,1.4h-0.1l-0.2-0.1l-0.3-0.2l-0.2-0.2l-0.1-0.2l-0.2-0.5l-0.2-0.2l-0.3-0.2L25.7,54h-0.4l0.1,0.1
			l0.1,0.2l0.2,0.5l0.2,0.5l0.1,0.3l0.2,0.2l0.2,0.1h0.2h0.3l0.3-0.1h0.2l0.2,0.1l0.3,0.1l0.2,0.5l0.1,0.1l0.1,0.1h0.1l0.1-0.1
			l0.1-0.1v-0.2l-0.2-0.5l0.1-0.4l0.1-0.4l0.1-0.2l0.1-0.1l0.2-0.1l0.2-0.1l0.1,0.1l0.1,0.1h0.2h0.1l0.1-0.1l0.1-0.1v-0.2L29.6,54
			l-0.1-0.2l-0.2-0.1h-0.2H29l-0.1,0.1l-0.1,0.1v0.2v0.1l-0.3,0.2l-0.3,0.2L28,54.9l-0.1,0.3l-0.2-0.6v-0.3l0.1-0.3l0.1-0.3l0.2-0.3
			l0.4-0.3l0.3-0.5l0.2-0.3l0.1-0.3l0.1-0.3v-0.3V51v-0.2l0.1-0.2L29,50.7l-0.3,0.2l-0.5,0.4L28,51.6l-0.1,0.3l-0.1,0.4v0.3l0.1,0.4
			v0.4l-0.1,0.4l-0.2,0.3l-0.2-1l-0.1-1.4l0.1-0.3l0.2-0.3l0.3-0.3l0.3-0.3l0.4-0.4l0.3-0.5l0.2-0.5l0.1-0.5v-0.5L29,47.8l-0.2-0.4
			L28.5,47l-0.1,0.3l-0.1,0.3L28.1,48L27.9,48.3"/>
	</g>
	<g>
		<path fill="#EFAE0E" d="M31.5,62.1l-0.1,0.3v0.2l0.1,0.5l0.2,0.4l0.2,0.3l0.3,0.4l0.1,0.3L32,64.1l-0.7-0.5l-0.7-0.5L30.2,63
			l-0.3-0.1v-0.2l-0.1-0.1l-0.1-0.1h-0.1h-0.2l-0.1,0.1l-0.1,0.1v0.2v0.2l0.1,0.1l0.1,0.1h0.2h0.1l0.1-0.1l0.1-0.1l0.1-0.2h0.1
			l0.5,0.3l0.5,0.4l0.5,0.4l0.5,0.5l0.9,0.9l0.8,1l-0.3-0.1l-0.2-0.2l-0.7-0.6L32,65l-0.3-0.2l-0.4-0.1L31,64.6l-0.4-0.1h-0.4
			l-0.4,0.1l0.2,0.3l0.5,0.5l0.3,0.2l0.6,0.4l0.6,0.3l0.6,0.2l0.6,0.1l0.5,0.1h0.4l0.1,0.1v0.1L34,67l-0.2,0.1h-0.2h-0.5l-0.5,0.1
			V67l-0.1-0.1l-0.1-0.1h-0.1L32,66.9L31.9,67l-0.1,0.1v0.1l0.1,0.2l0.1,0.1l0.1,0.1h0.2l0.1-0.1l0.1-0.1l0.1-0.1v-0.1h0.5h0.6h0.6
			l0.5,0.1l1.1,0.8l-0.1,0.1l-0.2,0.1l-0.4,0.1L35,68.3l-0.2-0.1L34.4,68l-0.2-0.1h-0.3L33.4,68l-0.5,0.2l0.1,0.1l0.2,0.1l0.4,0.3
			l0.5,0.3l0.3,0.1l0.3,0.1h0.2L35,69l0.2-0.2l0.2-0.3l0.1-0.1l0.1-0.1l0.4-0.1l0.4,0.2l0.1,0.1h0.1h0.1v-0.1l-0.1-0.2l-0.1-0.1
			l-0.4-0.3L36,67.6l-0.1-0.4V67v-0.2l0.1-0.2l0.1-0.2h0.1h0.2l0.1-0.1l0.1-0.1l0.1-0.2v-0.2l-0.1-0.1l-0.1-0.1l-0.2-0.1H36
			l-0.2,0.1l-0.1,0.1l-0.1,0.2V66l0.1,0.1l0.1,0.1l-0.2,0.3V67v0.3l0.1,0.3l-0.5-0.4L35,67v-0.3l-0.1-0.3v-0.3l0.1-0.5V65v-0.3
			l-0.1-0.3l-0.1-0.3l-0.2-0.2l-0.4-0.4l-0.1-0.1L34,63.2l-0.1,0.2l-0.1,0.3l-0.2,0.7v0.3l0.1,0.4l0.1,0.3l0.2,0.3l0.3,0.3l0.3,0.3
			l0.2,0.3l0.1,0.3l-0.4-0.3l-0.3-0.3l-0.9-1.1L33,64.9v-0.4v-0.4l0.1-0.4l0.1-0.5l-0.1-0.5L33,62.2l-0.2-0.4l-0.3-0.4L32.1,61
			l-0.4-0.2l-0.4-0.1l0.2,0.3l0.1,0.3v0.4L31.5,62.1"/>
	</g>
	<g>
		<path fill="#EFAE0E" d="M63.2,32.1l-1.5-1.2l1.9,0.1l0.7-1.7l0.5,1.8l1.9,0.1l-1.6,1.1l0.5,1.9L64,33l-1.6,1.1L63.2,32.1"/>
	</g>
	<g>
		<path fill="#EFAE0E" d="M71.8,45.3l-1.9-0.2l1.7-1l-0.4-1.8l1.5,1.2l1.7-1l-0.7,1.8l1.5,1.3l-2-0.2l-0.7,1.8L71.8,45.3"/>
	</g>
	<g>
		<path fill="#EFAE0E" d="M70,59.7l-1.4-1.3l1.9,0.3l0.8-1.7l0.4,1.9l1.9,0.3L71.9,60l0.4,1.9l-1.5-1.4l-1.7,0.9L70,59.7"/>
	</g>
	<g>
		<path fill="#EFAE0E" d="M60,69.9L59.6,68l1.4,1.4l1.7-0.9l-0.8,1.7l1.3,1.3l-1.9-0.3L60.5,73l-0.4-1.9l-1.9-0.3L60,69.9"/>
	</g>
	<g>
		<path fill="#EFAE0E" d="M54.3,28.2l0.2-0.1l0.2-0.1l0.5-0.1h0.5l0.4,0.1l0.5,0.1H57l-0.6-0.3l-0.7-0.4L55,26.9l-0.3-0.3l-0.2-0.2
			h-0.1h-0.1l-0.1-0.1l-0.1-0.1V26v-0.1l0.1-0.1l0.1-0.1h0.2h0.2l0.1,0.1l0.1,0.1v0.2v0.1l-0.1,0.1l-0.1,0.1l0,0l0.5,0.4l0.5,0.4
			l0.6,0.3l0.6,0.3l1.3,0.5l1.2,0.4l-0.2-0.2l-0.3-0.2l-0.8-0.4l-0.6-0.4l-0.3-0.2L56.6,27l-0.2-0.3l-0.2-0.3L56.1,26L56,25.6
			l0.3,0.1l0.3,0.1l0.3,0.1l0.3,0.2l0.6,0.4l0.5,0.5l0.4,0.5L59,28l0.3,0.5l0.2,0.4h0.1l0.1-0.1v-0.1v-0.1l-0.1-0.2l-0.2-0.5
			l-0.1-0.5h-0.1l-0.1-0.1L59,27.1L58.9,27v-0.1l0.1-0.1l0.1-0.1l0.2-0.1h0.1l0.1,0.1l0.1,0.1l0.1,0.1V27v0.1l-0.1,0.1l-0.1,0.1
			l0.1,0.5l0.2,0.5l0.2,0.5l0.3,0.4l1.2,0.7v-0.1v-0.1l-0.1-0.4l-0.1-0.2l-0.2-0.2l-0.4-0.3l-0.1-0.2l-0.1-0.3l-0.1-0.4v-0.5
			l0.1,0.1l0.1,0.1l0.4,0.3l0.5,0.3l0.2,0.2l0.1,0.3l0.1,0.2v0.2l-0.1,0.2l-0.2,0.3l-0.1,0.1v0.2l0.1,0.3l0.4,0.3l0.1,0.1v0.1v0.1
			H62h-0.2l-0.2-0.1l-0.4-0.3H61h-0.4l-0.2,0.1l-0.2,0.1L60,30.5l-0.1,0.2l0.1,0.1v0.1v0.2l-0.1,0.1l-0.1,0.1h-0.2h-0.2l-0.2-0.1
			l-0.1-0.1v-0.2v-0.2l0.1-0.2l0.1-0.1l0.1-0.1h0.1l0.2,0.1l0.2-0.3l0.3-0.2l0.3-0.1H61l-0.6-0.4h-0.3h-0.3l-0.3,0.1l-0.3,0.1
			l-0.5,0.3l-0.5,0.2l-0.3,0.1h-0.3h-0.3L57,30.3l-0.5-0.2L56.3,30h-0.2l0.1-0.2l0.3-0.3l0.5-0.4l0.3-0.1l0.4-0.1h0.4l0.3,0.1
			l0.4,0.2l0.4,0.1h0.4l0.3-0.1l-0.5-0.3L59,28.7l-1.3-0.5h-0.4L57,28.7l-0.3,0.2L56.4,29l-0.5,0.3l-0.5,0.1h-0.5h-0.5l-0.5-0.1
			l-0.4-0.2l-0.3-0.3l-0.3-0.3h0.4l0.3-0.1l0.4-0.1L54.3,28.2"/>
	</g>
	<g>
		<path fill="#EFAE0E" d="M66.6,35.2h0.3l0.2,0.1l0.4,0.2l0.3,0.3l0.2,0.3l0.3,0.4l0.3,0.2l-0.3-0.6L68,35.3l-0.3-0.8l-0.1-0.4v-0.3
			l-0.1-0.1l-0.1-0.1l-0.1-0.1v-0.1l0.1-0.2l0.1-0.1l0.1-0.1H68l0.2,0.1l0.1,0.1l0.1,0.2v0.2l-0.1,0.1l-0.1,0.1L68,33.9h-0.1V34
			l0.1,0.6l0.2,0.6l0.3,0.6l0.3,0.6l0.7,1.1l0.7,1.1L69.9,38l-0.4-0.9l-0.2-0.7L69.2,36l-0.1-0.4v-0.4l0.1-0.4l0.1-0.4l0.2-0.4
			l0.3,0.3l0.2,0.3l0.2,0.3l0.1,0.3l0.2,0.7l0.1,0.7v0.7L70.5,38l-0.1,0.5l-0.1,0.4l0.1,0.1h0.1l0.1-0.1l0.1-0.1l0.1-0.2l0.1-0.5
			l0.2-0.5L71,37.5v-0.1v-0.1l0.1-0.1l0.1-0.1l0.1-0.1h0.1h0.1l0.1,0.1l0.1,0.1v0.2v0.1l-0.1,0.1l-0.1,0.1l-0.1,0.1h-0.1l-0.2,0.5
			l-0.2,0.5l-0.1,0.6l-0.1,0.5l0.5,1.3l0.1-0.1l0.1-0.1l0.1-0.4v-0.2v-0.3l-0.1-0.5v-0.3l0.1-0.3l0.2-0.4l0.3-0.4v0.2l0.1,0.2
			l0.2,0.5l0.1,0.5v0.3v0.3l-0.1,0.2l-0.1,0.2L72,40.7l-0.3,0.1l-0.1,0.1L71.5,41l-0.2,0.3l0.1,0.5V42l0,0h-0.1l-0.1-0.1l-0.1-0.2
			l-0.2-0.5L70.7,41l-0.3-0.3l-0.2-0.1H70h-0.2l-0.2,0.1v0.1l-0.1,0.1L69.3,41l-0.2,0.1h-0.2L68.8,41l-0.1-0.1l-0.1-0.2v-0.2
			l0.1-0.2l0.1-0.1l0.2-0.1h0.2l0.1,0.1l0.1,0.1l0.1,0.1l0.4-0.1h0.3l0.3,0.1l0.3,0.2L70.5,40l-0.2-0.2L70,39.6l-0.3-0.1l-0.3-0.1
			l-0.5-0.1l-0.5-0.2L68.1,39h-0.2l-0.2-0.2l-0.2-0.3L67.2,38h-0.1l-0.2-0.1l0.2-0.1l0.4-0.1h0.7l0.4,0.1l0.3,0.2l0.3,0.3l0.2,0.3
			l0.2,0.4l0.2,0.3l0.3,0.3l0.3,0.2l-0.2-0.5L70,38.9l-0.8-1.2l-0.3-0.2l-0.4-0.1l-0.4-0.1h-0.4l-0.5-0.1L66.7,37l-0.4-0.3l-0.4-0.3
			L65.6,36l-0.2-0.4L65.3,35v-0.4l0.3,0.2l0.3,0.2l0.4,0.1L66.6,35.2"/>
	</g>
	<g>
		<path fill="#EFAE0E" d="M72.2,48.3l0.2,0.2l0.1,0.2l0.2,0.4l0.1,0.5V50v0.5l0.1,0.3l0.1-0.6l0.2-0.9l0.3-0.8l0.2-0.3l0.2-0.3
			l-0.1-0.1v-0.1l0.1-0.1l0.1-0.1l0.1-0.1h0.2l0.2,0.1l0.1,0.1l0.1,0.1v0.2v0.2l-0.1,0.1l-0.1,0.1h-0.1l-0.2-0.1L74,48.1l0,0
			l-0.3,0.6l-0.2,0.6l-0.2,0.6l-0.1,0.7L73,51.9l-0.1,1.3l0.1-0.3l0.1-0.3l0.2-0.9l0.2-0.7l0.1-0.3l0.2-0.3l0.3-0.3l0.3-0.3l0.3-0.2
			l0.4-0.2v0.4V50v0.3L75,50.7l-0.3,0.7L74.4,52L74,52.5L73.6,53l-0.4,0.4l-0.3,0.2v0.1l0.1,0.1h0.1l0.1-0.1l0.2-0.1l0.4-0.3
			l0.2-0.2l0.2-0.1l-0.1-0.1v-0.1l0.1-0.1l0.1-0.1l0.1-0.1h0.2l0.1,0.1l0.1,0.1v0.1v0.1l0.2,0.2l-0.1,0.1l-0.1,0.1h-0.1l-0.1-0.1
			l-0.1-0.1L74,53.4l-0.5,0.3l-0.4,0.4l-0.4,0.4l-0.4,1.4h0.1l0.1-0.1l0.3-0.2l0.1-0.2l0.1-0.2l0.2-0.5l0.2-0.2l0.3-0.2l0.4-0.2
			l0.5-0.1l-0.1,0.1l-0.1,0.2l-0.1,0.5l-0.2,0.5L74,55.6l-0.2,0.2l-0.1,0.1L73.5,56h-0.3l-0.3-0.1h-0.1h-0.2L72.2,56L72,56.5v0.1
			l-0.1,0.1h-0.1h-0.1l-0.1-0.1v-0.2l0.2-0.5v-0.3V55l-0.1-0.2l-0.1-0.2l-0.1-0.1l-0.2-0.1l-0.1,0.1l-0.1,0.1H71l-0.2-0.1l-0.1-0.1
			l-0.1-0.1v-0.2v-0.2l0.1-0.1l0.1-0.1H71h0.2l0.1,0.1l0.1,0.1l0.1,0.2v0.1l0.3,0.2l0.3,0.2L72,55l0.1,0.3l0.2-0.7l-0.1-0.3V54
			L72,53.8l-0.2-0.3l-0.3-0.3l-0.4-0.5L71,52.4l-0.1-0.3l-0.1-0.3v-0.3l0.1-0.5v-0.2l-0.1-0.2l0.2,0.1l0.3,0.2l0.5,0.4l0.2,0.3
			l0.2,0.3l0.1,0.4v0.3l-0.1,0.5v0.4l0.1,0.4l0.1,0.3l0.1-0.6l0.1-0.4l0.1-1.4l-0.1-0.3l-0.2-0.3l-0.3-0.3l-0.3-0.2l-0.4-0.4
			l-0.3-0.4L71,49.3l-0.1-0.5v-0.5l0.1-0.5l0.2-0.4l0.3-0.3l0.1,0.3l0.1,0.3l0.2,0.3L72.2,48.3"/>
	</g>
	<g>
		<path fill="#EFAE0E" d="M68.5,62.2v0.3v0.3l-0.1,0.5l-0.2,0.4L68,63.9l-0.3,0.4l-0.1,0.3l0.5-0.4l0.7-0.5l0.7-0.5l0.3-0.2l0.3-0.1
			l0.1-0.1l0.1-0.1l0.1-0.1h0.2h0.2l0.1,0.1l0.1,0.1V63v0.2l-0.1,0.1l-0.1,0.1h-0.1h-0.2l-0.1-0.1l-0.1-0.1L70.1,63l0,0l-0.5,0.3
			L69,63.7l-0.5,0.4L68,64.5l-0.9,1l-0.8,1l0.5-0.3l0.7-0.6l0.6-0.4l0.3-0.2l0.3-0.1l0.4-0.1l0.4-0.1h0.4l0.4,0.1L70,65l-0.2,0.3
			l-0.3,0.3l-0.3,0.2l-0.6,0.4L68,66.5l-0.6,0.2l-0.6,0.1l-0.5,0.1H66L65.9,67l0,0l0.1,0.1l0.1,0.1h0.7l0.5,0.1l0.1-0.1l0.1-0.1
			l0.1-0.1h0.1H68l0.1,0.1l0.1,0.1v0.1l-0.1,0.1L68,67.6l-0.1,0.1h-0.1h-0.1l-0.1-0.1l-0.1-0.1v-0.1L67,67.3h-0.6l-0.6,0.1l-0.5,0.1
			l-1.1,0.8l0.1,0.1l0.1,0.1h0.4H65l0.2-0.1l0.4-0.3l0.3-0.1h0.3l0.4,0.1l0.5,0.2H67l-0.2,0.1l-0.4,0.3L65.9,69l-0.3,0.1l-0.3,0.1
			h-0.2L65,69.1l-0.2-0.2l-0.2-0.3l-0.1-0.1l-0.2-0.1L64,68.3l-0.4,0.2l-0.1,0.1h-0.1h-0.1v-0.1v-0.2l0.1-0.1l0.4-0.3l0.2-0.3
			l0.1-0.4l0.1-0.2v-0.2l-0.1-0.2L64,66.4h-0.2h-0.1l-0.1-0.1l-0.1-0.1L63.4,66v-0.2l0.1-0.1l0.1-0.1h0.2H64l0.1,0.1l0.1,0.1
			l0.1,0.1v0.2l-0.1,0.1l-0.1,0.1l0.1,0.3l0.1,0.3v0.3l-0.1,0.3l0.5-0.4L65,67l0.1-0.3v-0.3v-0.3L65,65.6V65v-0.3l0.1-0.3l0.1-0.3
			l0.2-0.2l0.4-0.4l0.1-0.1l0.1-0.2l0.1,0.2l0.1,0.3l0.2,0.7v0.3l-0.1,0.4l-0.2,0.3L66,65.7L65.7,66l-0.3,0.3l-0.2,0.3v0.3l0.5-0.4
			l0.3-0.3l0.9-1.1l0.1-0.4v-0.4v-0.4l-0.1-0.4L66.8,63v-0.5L67,62l0.2-0.5l0.3-0.4l0.4-0.3l0.4-0.2l0.4-0.1L68.5,61l-0.1,0.4v0.4
			L68.5,62.2"/>
	</g>
	<polygon fill="#EFAE0E" points="59,72.4 58.9,72.3 58.7,72.3 58.6,72.3 58.5,72.4 58.4,72.5 58.1,72.4 57.7,72.4 56.8,72.4 
		55.9,72.5 55.3,72.6 55.6,72.4 56,72.2 56.4,72 56.9,71.7 57.2,71.4 57.3,71.2 57.4,71 57.5,70.6 57.7,70.3 58,70 58.4,69.8 
		58,69.7 57.5,69.7 57,69.8 56.5,70 56.1,70.3 55.7,70.6 55.4,71 55.2,71.5 55.1,71.9 54.9,72.2 54.7,72.5 54.4,72.8 53.1,73.2 
		52.7,73.3 52.1,73.4 52.3,73.1 52.6,72.9 53,72.8 53.7,72.9 54,72.8 54.3,72.6 54.6,72.3 54.8,72 55,71.3 55,71 55,70.7 54.8,70.8 
		54.6,70.9 54.1,71 53.8,71.1 53.5,71.2 53.3,71.4 53.1,71.6 52.8,72.1 52.6,72.6 52.4,72.9 52.2,73.2 52,73.4 51.7,73.5 51,73.6 
		51.1,73.5 51.2,73.3 51.4,72.8 51.5,72.3 51.5,71.8 51.6,71.8 51.7,71.7 51.8,71.6 51.8,71.4 51.8,71.2 51.7,71 51.6,70.9 
		51.4,70.8 51.2,70.8 51.1,70.9 51,71 51,71.2 51,71.4 51.2,71.4 51.3,71.5 51.4,71.6 51.4,71.8 51.3,72.1 51.1,72.6 50.8,73.1 
		50.7,73.3 50.5,73.4 50.2,73.5 50,73.6 49.8,73.5 49.5,73.4 49.4,73.3 49.2,73.1 48.9,72.6 48.7,72 48.7,71.7 48.7,71.5 48.8,71.4 
		48.9,71.3 49,71.2 49,71.1 49,71 48.9,70.9 48.8,70.8 48.6,70.8 48.4,70.9 48.3,71 48.2,71 48.2,71.2 48.2,71.4 48.3,71.5 
		48.4,71.6 48.5,71.6 48.5,72.1 48.6,72.7 48.8,73.2 48.9,73.4 49,73.5 48.3,73.4 48,73.3 47.9,73 47.7,72.8 47.6,72.5 47.4,72 
		47.1,71.5 46.9,71.3 46.7,71.1 46.5,70.9 46.2,70.8 45.7,70.7 45.6,70.6 45.4,70.5 45.4,70.8 45.5,71.1 45.6,71.8 45.8,72.1 
		46.1,72.4 46.4,72.6 46.7,72.7 47.1,72.8 47.5,73 47.8,73.2 48.1,73.5 47.5,73.4 47,73.1 45.6,72.7 45.3,72.5 45.1,72.2 45,71.8 
		44.9,71.5 44.6,71 44.3,70.6 43.9,70.3 43.5,70 43,69.8 42.5,69.7 42,69.7 41.6,69.8 42,70 42.3,70.3 42.5,70.6 42.6,71 42.7,71.3 
		42.8,71.5 43.1,71.8 43.5,72.1 43.8,72.2 44.2,72.4 44.5,72.6 44,72.4 43.2,72.3 42.3,72.3 41.9,72.3 41.6,72.4 41.5,72.3 
		41.4,72.2 41.3,72.2 41.2,72.3 41,72.4 40.9,72.5 40.9,72.7 41,72.8 41,73 41.1,73.1 41.3,73.1 41.5,73 41.6,72.9 41.7,72.8 
		41.7,72.6 41.6,72.5 41.7,72.5 42.3,72.5 42.9,72.5 43.6,72.6 44.3,72.7 45.6,73 46.8,73.4 46.2,73.4 45.3,73.2 44.6,73.1 
		44.2,73.1 43.8,73.2 43.4,73.3 43,73.4 42.7,73.6 42.4,73.9 42.7,74.1 43,74.2 43.3,74.3 43.6,74.4 44.3,74.4 45,74.3 45.7,74.1 
		46.3,73.9 46.8,73.7 47.2,73.5 47.3,73.5 47.4,73.6 47.4,73.7 47.3,73.8 47,74.1 46.5,74.4 46.3,74.5 46.1,74.7 46,74.6 45.9,74.6 
		45.7,74.6 45.6,74.7 45.5,74.8 45.4,74.9 45.4,75.1 45.5,75.2 45.6,75.3 45.7,75.3 45.9,75.3 46,75.2 46.1,75.1 46.2,75 46.2,74.9 
		46.2,74.8 46.6,74.5 47.1,74.2 47.6,73.9 48.1,73.7 48.5,73.7 48.9,73.8 49.2,73.9 49.3,73.9 49,74.1 48.6,74.3 48,74.5 47.6,74.6 
		47.5,74.7 47.5,74.8 47.8,75 48.2,75 48.5,75 48.8,75 49,74.7 49.5,74.4 50,74.1 50.4,74.4 50.8,74.7 51.2,75 51.8,75 52.1,74.9 
		52.4,74.7 52.4,74.6 52.3,74.5 52,74.5 51.4,74.3 51.1,74.1 50.7,73.9 51,73.8 51.4,73.7 51.8,73.7 52.3,73.9 52.8,74.2 53.3,74.5 
		53.7,74.8 53.7,74.9 53.7,75 53.7,75.1 53.8,75.2 53.9,75.3 54,75.3 54.1,75.2 54.2,75.1 54.3,75 54.3,74.9 54.3,74.7 54.2,74.6 
		54.1,74.5 54,74.5 53.9,74.5 53.8,74.6 53.6,74.4 53.4,74.3 53,74 52.8,73.9 52.7,73.8 52.7,73.7 52.8,73.6 52.9,73.6 53.2,73.8 
		53.7,74 54.3,74.2 54.9,74.4 55.6,74.5 56.3,74.5 56.6,74.4 56.9,74.3 57.2,74.2 57.5,74 57.2,73.7 56.9,73.5 56.6,73.3 56.2,73.2 
		55.8,73.1 55.4,73.1 54.7,73.2 53.8,73.4 53.2,73.4 54.4,73 55.6,72.8 56.3,72.7 57,72.6 57.7,72.6 58.3,72.6 58.3,72.7 58.3,72.9 
		58.4,73 58.5,73.1 58.7,73.2 58.9,73.2 59,73.1 59,72.9 59.1,72.8 59.1,72.6 	"/>
</g>
<g transform="matrix(.3583333 0 0 .3583333 57.81835 200.8481)">
	<g>
		<path fill="#EFAE0E" d="M-22.2-366.7c-30.1,0-54.7-24.5-54.7-54.7c0-30.1,24.5-54.7,54.7-54.7c30.1,0,54.7,24.5,54.7,54.7
			C32.4-391.2,7.9-366.7-22.2-366.7z"/>
	</g>
	<g>
		<path fill="#002A86" d="M-22.2-472.1c-28,0-50.7,22.7-50.7,50.7s22.7,50.7,50.7,50.7s50.7-22.7,50.7-50.7S5.8-472.1-22.2-472.1"/>
	</g>
	<g>
		<path fill="#FFFFFF" d="M-22.2-463.2c-23.1,0-41.9,18.7-41.9,41.9c0,23.1,18.7,41.9,41.9,41.9c23.1,0,41.8-18.7,41.8-41.9
			C19.6-444.5,0.9-463.2-22.2-463.2"/>
	</g>
	<g>
		<g>
			<polygon fill="#EFAE0E" points="-37.3,-378.4 -39.4,-379.3 -39.2,-381.5 -40.7,-379.8 -42.7,-380.6 -41.6,-378.8 -43,-377.1 
				-40.9,-377.6 -39.7,-375.6 -39.5,-377.9 			"/>
		</g>
		<g>
			<polygon fill="#EFAE0E" points="-7.1,-378.3 -5,-379.2 -5.2,-381.5 -3.7,-379.8 -1.7,-380.6 -2.8,-378.7 -1.3,-377 -3.5,-377.5 
				-4.7,-375.6 -4.9,-377.8 			"/>
		</g>
		<g>
			<g>
				<path fill="#EFAE0E" d="M-22.3-468.3c-0.5,0-0.8,0.4-0.8,0.8c0,0.5,0.4,0.8,0.8,0.8c0.5,0,0.8-0.4,0.8-0.8
					S-21.9-468.3-22.3-468.3"/>
			</g>
			<g>
				<path fill="#EFAE0E" d="M-57.1-452.2c-0.5,0-0.8,0.4-0.8,0.8c0,0.5,0.4,0.8,0.8,0.8s0.8-0.4,0.8-0.8
					C-56.3-451.9-56.6-452.2-57.1-452.2"/>
			</g>
			<g>
				<path fill="#EFAE0E" d="M-67.7-429.9c-0.5,0-0.8,0.4-0.8,0.8c0,0.5,0.4,0.8,0.8,0.8s0.8-0.4,0.8-0.8
					C-66.9-429.5-67.2-429.9-67.7-429.9"/>
			</g>
			<g>
				<path fill="#EFAE0E" d="M-66.4-408.8c-0.5,0-0.8,0.4-0.8,0.8c0,0.5,0.4,0.8,0.8,0.8c0.5,0,0.8-0.4,0.8-0.8
					C-65.6-408.5-66-408.8-66.4-408.8"/>
			</g>
			<g>
				<path fill="#EFAE0E" d="M-1-463.2c0.5,0,0.8,0.4,0.8,0.8c0,0.5-0.4,0.8-0.8,0.8c-0.5,0-0.8-0.4-0.8-0.8
					C-1.8-462.9-1.5-463.2-1-463.2"/>
			</g>
			<g>
				<path fill="#EFAE0E" d="M-33.8-377.6l-1-0.3l0.2-0.6c0.3,0.1,0.5,0.1,0.6,0.1c0.2,0,0.4,0,0.5-0.1s0.2-0.2,0.3-0.3
					c0-0.1,0.1-0.1,0.1-0.2l0.7,0.2l-1.2,4.5l-0.9-0.2L-33.8-377.6"/>
			</g>
			<g>
				<path fill="#EFAE0E" d="M-24.6-377.7v0.7c-0.1,0.1-0.3,0.4-0.6,0.7c-0.3,0.3-0.5,0.7-0.6,1s-0.3,0.6-0.4,1
					c-0.1,0.4-0.2,0.7-0.2,1h-0.9c0.1-0.8,0.4-1.7,0.9-2.6c0.4-0.5,0.7-0.9,0.9-1.1l-2.3-0.1v-0.8L-24.6-377.7"/>
			</g>
			<g>
				<path fill="#EFAE0E" d="M-17.4-377.6v0.7c-0.1,0.1-0.3,0.4-0.6,0.7c-0.2,0.3-0.4,0.7-0.6,1.1c-0.1,0.3-0.2,0.6-0.4,1.1
					c-0.1,0.4-0.2,0.8-0.2,1H-20c0-0.8,0.3-1.7,0.8-2.6c0.3-0.6,0.6-0.9,0.8-1.2h-2.3v-0.8L-17.4-377.6"/>
			</g>
			<g>
				<path fill="#EFAE0E" d="M-10.8-378.5c-0.3-0.2-0.6-0.3-1.1-0.2c-0.3,0-0.5,0.1-0.7,0.3c-0.2,0.2-0.4,0.4-0.5,0.6
					c-0.1,0.3-0.2,0.6-0.2,1c0,0.2,0,0.5,0,0.9c0.1,0.6,0.2,1.1,0.5,1.4c0.3,0.5,0.8,0.7,1.4,0.6c0.5-0.1,0.9-0.3,1.1-0.6
					c0.2-0.4,0.3-0.7,0.3-1.2c0-0.4-0.2-0.8-0.5-1c-0.3-0.3-0.6-0.4-1-0.3c-0.2,0-0.4,0.1-0.5,0.1c-0.1,0.1-0.3,0.2-0.4,0.3
					c0-0.4,0-0.6,0.1-0.8c0.1-0.3,0.3-0.5,0.6-0.6c0.2,0,0.4,0,0.5,0.2c0.1,0.1,0.1,0.2,0.1,0.2l0.9-0.1
					C-10.4-378-10.6-378.3-10.8-378.5"/>
			</g>
			<g>
				<path fill="#EFAE0E" d="M-51.8-386.6l-0.6-0.7c0.1-0.2,0.2-0.3,0.2-0.5s-0.1-0.5-0.3-0.8c-0.2-0.2-0.3-0.3-0.4-0.4
					c-0.3-0.1-0.5-0.1-0.7,0.1c-0.1,0.1-0.2,0.2-0.1,0.4c0,0.2,0.1,0.4,0.3,0.6l0.3,0.4c0.3,0.4,0.4,0.8,0.4,1c0,0.4-0.1,0.7-0.4,1
					c-0.3,0.3-0.7,0.4-1.1,0.4c-0.4,0-0.8-0.3-1.2-0.7c-0.3-0.4-0.5-0.8-0.6-1.2c0-0.4,0.1-0.8,0.5-1.2l0.6,0.7
					c-0.2,0.2-0.3,0.4-0.2,0.7c0,0.2,0.1,0.3,0.3,0.5s0.3,0.3,0.5,0.3s0.3,0,0.5-0.1c0.1-0.1,0.2-0.3,0.1-0.4c0-0.1-0.1-0.3-0.3-0.6
					l-0.4-0.7c-0.2-0.3-0.3-0.6-0.3-0.8c0-0.4,0.1-0.7,0.4-1c0.3-0.3,0.7-0.4,1.1-0.4c0.4,0.1,0.8,0.3,1.3,0.7
					c0.4,0.5,0.6,0.9,0.7,1.4C-51.3-387.4-51.5-387-51.8-386.6"/>
			</g>
		</g>
		<g>
			<polygon fill="#EFAE0E" points="-58.7,-393.6 -57.2,-391.8 -56.3,-392.6 -58,-394.6 -57.3,-395.2 -55,-392.4 -58.7,-389.4 
				-60.9,-392.1 -60.2,-392.6 -58.6,-390.7 -57.9,-391.3 -59.3,-393.1 			"/>
		</g>
		<g>
			<polygon fill="#EFAE0E" points="-63.9,-396.6 -63.3,-395.6 -58.5,-396.7 -59,-397.6 -60,-397.3 -60.9,-398.8 -60.3,-399.6 
				-60.8,-400.5 			"/>
		</g>
		<g>
			<polygon fill="#EFAE0E" points="-62.9,-405.3 -61.6,-402.3 -65.9,-400.4 -66.3,-401.3 -62.8,-402.8 -63.7,-405 			"/>
		</g>
		<g>
			<polygon fill="#EFAE0E" points="-64.4,-433 -68.1,-433.9 -68.5,-432.5 -69.3,-432.7 -68.4,-436.4 -67.6,-436.2 -67.9,-434.9 
				-64.1,-433.9 			"/>
		</g>
		<g>
			<polygon fill="#EFAE0E" points="-64.6,-441 -66.2,-441.7 -65.8,-442.6 -61.5,-440.7 -61.9,-439.8 -63.8,-440.6 -64.5,-438.9 
				-62.6,-438.1 -63,-437.2 -67.3,-439.1 -66.9,-440 -65.3,-439.3 			"/>
		</g>
		<g>
			<polygon fill="#EFAE0E" points="-60.3,-446.8 -61.5,-444.9 -60.5,-444.2 -59.1,-446.4 -58.4,-446 -60.3,-443 -64.3,-445.5 
				-62.4,-448.4 -61.7,-448 -63,-445.9 -62.2,-445.3 -61,-447.2 			"/>
		</g>
		<g>
			<path fill="#EFAE0E" d="M-53.1-454.2l0.7-0.6c0.2,0.1,0.3,0.2,0.5,0.2s0.5-0.1,0.8-0.4c0.2-0.2,0.3-0.3,0.4-0.4
				c0.1-0.3,0.1-0.5-0.1-0.7c-0.1-0.1-0.2-0.2-0.4-0.1c-0.2,0-0.4,0.1-0.6,0.3l-0.4,0.3c-0.4,0.3-0.8,0.4-1,0.4
				c-0.4,0.1-0.7-0.1-1-0.4s-0.4-0.7-0.4-1.1s0.3-0.8,0.7-1.2c0.4-0.3,0.8-0.5,1.2-0.6c0.4,0,0.8,0.1,1.2,0.5l-0.7,0.6
				c-0.2-0.2-0.4-0.3-0.7-0.2c-0.2,0-0.3,0.1-0.5,0.3c-0.2,0.2-0.3,0.3-0.3,0.5s0,0.3,0.1,0.5c0.1,0.1,0.3,0.2,0.4,0.1
				c0.1,0,0.3-0.1,0.6-0.3l0.7-0.4c0.3-0.2,0.6-0.3,0.8-0.3c0.4,0,0.7,0.1,1,0.4s0.4,0.7,0.4,1.1s-0.3,0.9-0.7,1.3s-0.9,0.7-1.3,0.7
				C-52.4-453.6-52.8-453.8-53.1-454.2"/>
		</g>
		<g>
			<polygon fill="#EFAE0E" points="-46,-458.1 -48.2,-461.4 -49.3,-460.6 -49.8,-461.3 -46.6,-463.4 -46.2,-462.7 -47.3,-461.9 
				-45.2,-458.6 			"/>
		</g>
		<g>
			<polygon fill="#EFAE0E" points="-42,-465.7 -43,-465.2 -42.6,-460.2 -41.7,-460.7 -41.8,-461.7 -40.2,-462.4 -39.5,-461.7 
				-38.5,-462.1 			"/>
		</g>
		<g>
			<polygon fill="#EFAE0E" points="-35.1,-463.2 -36.1,-467 -37.5,-466.6 -37.7,-467.4 -34,-468.4 -33.8,-467.6 -35.2,-467.2 
				-34.1,-463.5 			"/>
		</g>
		<g>
			<polygon fill="#EFAE0E" points="-27.7,-466.9 -29.9,-466.5 -29.8,-465.3 -27.2,-465.7 -27.1,-464.9 -30.6,-464.4 -31.3,-469 
				-27.9,-469.5 -27.8,-468.7 -30.2,-468.3 -30.1,-467.3 -27.8,-467.7 			"/>
		</g>
		<g>
			<path fill="#EFAE0E" d="M-15.2-469.4c-0.7,0-1.2,0.1-1.6,0.5c-0.5,0.4-0.7,1.1-0.8,1.9c0,0.8,0.2,1.5,0.7,2
				c0.3,0.4,0.8,0.6,1.5,0.6c0.7,0,1.2-0.1,1.6-0.5c0.5-0.4,0.7-1.1,0.8-1.9c0-0.9-0.2-1.5-0.6-2C-14-469.2-14.5-469.4-15.2-469.4z
				 M-15.2-468.6c0.4,0,0.7,0.2,0.9,0.5s0.3,0.7,0.3,1.2s-0.1,0.9-0.4,1.2c-0.2,0.3-0.5,0.4-0.9,0.4c-0.4,0-0.7-0.2-0.9-0.5
				c-0.2-0.3-0.3-0.7-0.3-1.2s0.1-0.9,0.4-1.2C-15.9-468.5-15.6-468.6-15.2-468.6L-15.2-468.6z"/>
		</g>
		<g>
			<polygon fill="#EFAE0E" points="-10.1,-463.4 -11.1,-463.8 -9.6,-468.2 -6.4,-467.2 -6.7,-466.4 -8.9,-467.1 -9.2,-466.1 
				-7.3,-465.4 -7.6,-464.7 -9.5,-465.3 			"/>
		</g>
		<g>
			<polygon fill="#EFAE0E" points="2.8,-457.4 2.1,-458 5.1,-461.6 5.9,-461 5.3,-457.2 7.4,-459.8 8.1,-459.2 5.1,-455.6 
				4.3,-456.2 4.9,-460 			"/>
		</g>
		<g>
			<polygon fill="#EFAE0E" points="11.7,-452.3 10.1,-454 9.2,-453.1 11,-451.3 10.4,-450.7 7.9,-453.2 11.2,-456.5 13.7,-454.1 
				13.1,-453.5 11.3,-455.3 10.6,-454.5 12.2,-452.9 			"/>
		</g>
		<g>
			<polygon fill="#EFAE0E" points="18.9,-446.9 19.5,-446.1 14.8,-444.5 14.3,-445.3 16.2,-447.3 16.9,-448 16.1,-447.6 
				13.5,-446.5 13,-447.3 16.1,-451 16.7,-450.2 14.8,-448.1 14.3,-447.6 14.9,-447.9 17.5,-449 18.1,-448.1 16.2,-446.2 
				15.6,-445.6 16.3,-445.9 			"/>
		</g>
		<g>
			<polygon fill="#EFAE0E" points="22.8,-433.5 24.5,-434 24.7,-433 20.2,-431.8 20,-432.7 22,-433.3 21.5,-435 19.5,-434.5 
				19.2,-435.4 23.7,-436.7 24,-435.7 22.3,-435.3 			"/>
		</g>
		<g>
			<g>
				<path fill="#EFAE0E" d="M20.8-429.7l0.2,1l1,0.2l0.3,1.7l-0.9,0.4l0.2,1.1l4.4-2.3l-0.2-1.1L20.8-429.7z M22.8-428.4l1.9,0.3
					l-1.7,0.9L22.8-428.4z"/>
			</g>
			<g>
				<path fill="#EFAE0E" d="M22.5-421.1l3.7,0.8v1.4h-4.7v-0.9h3.2c0.1,0,0.2,0,0.4,0c0.2,0,0.3,0,0.4,0l-3.9-0.9v-1l3.9-0.9
					c-0.1,0-0.2,0-0.4,0c-0.2,0-0.3,0-0.4,0h-3.2v-0.9h4.7v1.4L22.5-421.1"/>
			</g>
			<g>
				<path fill="#EFAE0E" d="M21.4-416.1l-0.1,1l1.7,0.2l-0.1,1c-0.1,0.5,0,0.9,0.2,1.2c0.2,0.3,0.6,0.5,1.1,0.6s0.9,0,1.2-0.3
					c0.3-0.2,0.4-0.6,0.5-1.1l0.3-2L21.4-416.1z M23.7-414.8l1.4,0.2l-0.1,0.9c0,0.2-0.1,0.4-0.2,0.5s-0.3,0.2-0.5,0.1
					c-0.2,0-0.4-0.1-0.5-0.3c-0.1-0.1-0.1-0.3-0.1-0.6L23.7-414.8z"/>
			</g>
			<g>
				<path fill="#EFAE0E" d="M21.7-410l-0.3,0.9c-0.2,0-0.4,0-0.5,0c-0.2,0.1-0.4,0.3-0.5,0.7c-0.1,0.2-0.1,0.4-0.1,0.6
					c0,0.3,0.1,0.5,0.4,0.6c0.2,0,0.3,0,0.4-0.1s0.3-0.3,0.4-0.5l0.3-0.4c0.3-0.4,0.5-0.7,0.6-0.9c0.3-0.2,0.7-0.3,1.1-0.1
					c0.4,0.1,0.7,0.4,0.9,0.8c0.2,0.4,0.2,0.8,0,1.4c-0.1,0.5-0.4,0.8-0.8,1.1c-0.4,0.3-0.8,0.3-1.3,0.2l0.3-0.9
					c0.3,0.1,0.5,0,0.7-0.2c0.1-0.1,0.2-0.3,0.3-0.5c0.1-0.2,0.1-0.5,0-0.6c-0.1-0.2-0.2-0.3-0.3-0.3c-0.2-0.1-0.3,0-0.4,0.1
					s-0.2,0.3-0.4,0.5l-0.4,0.7c-0.2,0.3-0.4,0.5-0.6,0.7c-0.3,0.2-0.6,0.2-1,0.1s-0.7-0.4-0.9-0.8c-0.2-0.4-0.2-0.9,0-1.5
					s0.5-1,0.8-1.3C20.8-410.1,21.3-410.2,21.7-410"/>
			</g>
		</g>
		<g>
			<polygon fill="#EFAE0E" points="19.8,-400.8 21.4,-400 21,-399.2 16.7,-401.1 17.1,-402 19,-401.1 19.8,-402.8 17.9,-403.7 
				18.3,-404.6 22.5,-402.6 22.1,-401.7 20.5,-402.5 			"/>
		</g>
		<g>
			<polygon fill="#EFAE0E" points="14.8,-398.1 15.3,-398.9 19.3,-396.5 18.8,-395.6 			"/>
		</g>
		<g>
			<path fill="#EFAE0E" d="M17.3-393l-3.7-2.9l-0.6,0.8l1.4,1.1l-0.6,0.8c-0.2,0.2-0.3,0.4-0.5,0.4c-0.1,0-0.3-0.1-0.6-0.2l-0.3-0.3
				c-0.1-0.1-0.2-0.2-0.3-0.2c-0.1,0-0.1-0.1-0.2-0.1l-0.7,0.9l0.1,0.1c0.1,0,0.2,0,0.3,0s0.2,0.1,0.4,0.3l0.2,0.2
				c0.3,0.2,0.5,0.3,0.7,0.4c0.2,0,0.4,0,0.6-0.1c-0.1,0.3-0.1,0.5,0,0.7s0.2,0.4,0.4,0.5c0.1,0.1,0.3,0.2,0.4,0.2
				c0.1,0,0.3,0.1,0.5,0.1s0.4-0.1,0.5-0.1c0.2-0.1,0.4-0.3,0.6-0.5L17.3-393"/>
		</g>
		<g>
			<polygon fill="#EFAE0E" points="8.7,-387.3 10.3,-388.8 9.5,-389.7 7.6,-387.9 7.1,-388.5 9.6,-391 12.9,-387.6 10.4,-385.2 
				9.8,-385.8 11.6,-387.5 10.9,-388.3 9.3,-386.7 			"/>
		</g>
		<g>
			<path fill="#EFAE0E" d="M-70-417.5c-0.4,0.4-0.5,0.9-0.5,1.6s0.2,1.2,0.6,1.5c0.4,0.5,1.1,0.7,2,0.7c0.8,0,1.5-0.3,1.9-0.8
				c0.4-0.4,0.5-0.9,0.5-1.6s-0.2-1.2-0.6-1.5c-0.5-0.5-1.1-0.7-2-0.7S-69.6-418-70-417.5"/>
		</g>
		<g>
			<polygon fill="#EFAE0E" points="-65.9,-421.9 -65.9,-421 -70.6,-421 -70.6,-424.3 -69.8,-424.3 -69.8,-422 -68.7,-422 
				-68.7,-424 -67.9,-424 -67.9,-421.9 			"/>
		</g>
	</g>
	<g>
		<g>
			<path fill="#002A86" d="M-12.1-376.1c0.1-0.1,0.2-0.2,0.4-0.2c0.2,0,0.4,0,0.5,0.2c0.1,0.1,0.2,0.3,0.3,0.6c0,0.2,0,0.4-0.1,0.6
				s-0.2,0.3-0.5,0.3c-0.2,0-0.4,0-0.5-0.2c-0.1-0.1-0.2-0.3-0.3-0.6C-12.3-375.8-12.3-376-12.1-376.1"/>
		</g>
		<g>
			<polygon fill="#002A86" points="-62.7,-396.7 -61.5,-398.1 -60.8,-397.1 			"/>
		</g>
		<g>
			<polygon fill="#002A86" points="-42.1,-464.5 -40.8,-463.1 -41.9,-462.5 			"/>
		</g>
		<g>
			<path fill="#002A86" d="M14.9-391.5c-0.2,0.1-0.4,0-0.6-0.1c-0.2-0.2-0.3-0.4-0.2-0.6c0-0.1,0.1-0.3,0.2-0.4l0.7-0.9l1,0.8
				l-0.7,0.9C15.2-391.6,15.1-391.5,14.9-391.5"/>
		</g>
		<g>
			<path fill="#002A86" d="M-66.8-415.1c-0.3,0.2-0.7,0.4-1.2,0.4s-0.9-0.1-1.2-0.3c-0.3-0.2-0.4-0.5-0.5-0.9c0-0.4,0.1-0.7,0.4-0.9
				c0.3-0.2,0.7-0.4,1.2-0.4s0.9,0.1,1.2,0.3c0.3,0.2,0.4,0.5,0.5,0.9C-66.4-415.7-66.5-415.4-66.8-415.1"/>
		</g>
	</g>
	<g>
		<path fill="#3F863F" d="M5.4-403.8c0,0.1,0,0.1-0.1,0.2c0.6-0.4,1-0.9,1.4-1.4C6.4-404.6,5.9-404.2,5.4-403.8z"/>
		<path fill="#3F863F" d="M16.2-422.1l-0.6,0.1c-0.1,0-0.2,0.1-0.4,0.1c0,0,0-0.1,0.1-0.1c-1.6,0.2-2.7,2.4-3.2,4.3
			c0.1-1.6,0.1-3.2,0.1-4.8c0.4-0.9,1.1-1.9,1.7-2.4c0.2,0.2,0.5,0.3,0.7,0.3c0.3,0,0.6-0.2,0.8-0.3c0.4-0.5,0.5-1.2,0.1-1.6
			c-0.2-0.2-0.6-0.4-1-0.4c-0.3,0-0.5,0.1-0.7,0.3c-0.1,0.2-0.3,0.4-0.3,0.6c0,0,0,0-0.1,0c-0.4,0.1-0.9,0.6-1.4,1
			c0-0.3-0.1-0.7-0.1-1c0.2-0.2,0.4-0.4,0.8-0.6c0.9-0.6,1.6-1.5,1.8-2.7c0.3-1.3-0.1-2.7-0.9-3.8c-1.1-1.5-1.8-2.7-1.4-3.8l0.2-0.5
			l-0.5,0.2c-0.1,0.1-0.2,0.2-0.3,0.3c0-0.2,0-0.4,0.1-0.6c-1.2,0.6-1.5,2.3-1.4,4c-0.3-0.9-0.6-1.7-1-2.5c0.1-1,0.3-2,0.5-2.6
			c0.1,0,0.2,0.1,0.3,0.1c0.2,0,0.3,0,0.3-0.1c0.3-0.1,0.5-0.4,0.7-0.7c0.2-0.5,0.1-1.2-0.5-1.5c-0.3-0.2-0.8-0.2-1.1,0
			c-0.3,0.2-0.4,0.4-0.5,0.6c0,0.3-0.1,0.5-0.1,0.7c0,0,0,0,0,0c-0.2,0.3-0.4,0.7-0.6,1.1c-0.2-0.4-0.4-0.8-0.7-1.2
			c0.1-0.2,0.2-0.5,0.5-0.8c0.7-0.9,0.9-2,0.7-3.2c-0.3-1.3-1.1-2.5-2.3-3.2c-1.6-0.9-2.7-1.8-2.7-3v-0.5l-0.3,0.4
			c-0.1,0.1-0.2,0.4-0.2,0.5c-0.1-0.2-0.2-0.5-0.2-0.7c-0.8,0.9-0.7,2.2-0.2,3.6c0.1,0.4,0.2,0.7,0.4,1.1c0.1,0.1,0.1,0.1,0.2,0.2
			c0.7,1.3,0.5,1.4-0.2-0.2c-0.6-0.6-1.2-1.2-1.8-1.8c-0.5-0.9-0.8-2.2-0.8-2.9c0.2,0,0.5-0.1,0.6-0.4c0.3-0.2,0.4-0.5,0.4-0.9
			c0-0.6-0.5-1.1-1.1-1.1c-0.4,0-0.8,0.2-1,0.5c-0.2,0.2-0.2,0.4-0.2,0.7c0,0.3,0.1,0.5,0.2,0.7c-0.1,0.5-1,1-1.6,0.7
			c0-0.3,0-0.6,0.1-1.4c0.3-1.1,0-2.2-0.7-3.2c-0.8-1.1-2.1-1.8-3.4-1.9c-1.8-0.2-3.2-0.5-3.7-1.6l-0.2-0.5l-0.1,0.5
			c0,0.1-0.1,0.2-0.1,0.4c-0.1-0.1-0.2-0.2-0.2-0.3c-0.7,2.2,2.6,4.6,4.6,5.4c0.6,0.3-1.2-0.4-3.1-1.1c-1.2-0.4-2.5-1.4-3-2.6
			c0,0,0,0,0,0c0.3-0.2,0.4-0.5,0.4-0.9c0-0.6-0.5-1.1-1.1-1.1c-0.4,0-0.8,0.2-1,0.5c-0.2,0.2-0.2,0.5-0.2,0.7
			c0,0.2-0.7-0.3-0.9-0.6c-0.6-1-2.2-1.8-3.6-1.9c-0.5-0.1-1-0.2-1.4-0.1c0.1,1,0.9,2.3,1.7,2.8c-1.2,0-2.5,0.1-3.6,0.8
			c0.1,0,0.2,0.1,0.3,0.2l-0.1,0l0.3,0.2c0.7,0.4,1.8,1.1,2.8,1.9c0.9,0.8,8.1,1,8.9,1.3c-0.3,0-0.7,0-1,0c-0.7-0.1-1.4,0-2,0.4
			c-0.7,0.4-1.4,0.5-2.3,0.7c0.1,0.1,0.2,0.1,0.3,0.2l0.2,0.2c0.5,0.4,1.2,0.7,1.9,0.9c0.8,0.3,1.6,0.6,2.1,1.1
			c0.3,0.2,0.5,0.5,0.8,0.7c1.5,1.1,3.7,1.4,4.9,1c0.2-0.1,0.3-0.2,0.5-0.3c-0.1,0.2-0.2,0.4-0.2,0.6c0.1,0.6,0.1,1.1,0.9,1.2h0.1
			c0.3,0,0.6-0.1,0.9-0.4c0.2-0.1,0.3-0.3,0.3-0.4c0.8-0.1,1.7-0.1,2.5,0.3c2,1.8,1.4,1.1-0.7,1c-0.3-0.1-0.7-0.1-1-0.1
			c-0.3,0-0.7,0-1-0.1c-0.2,0-0.4-0.1-0.6-0.1l-0.4-0.1l0,0.1c-0.1,0-0.3,0-0.4-0.1c0.4,1.2,2.4,2.1,2.9,3.6
			c0.2,0.9,0.8,1.7,1.5,2.3c1,1.1,2.4,1.9,3.3,1.9c-0.1,0.1-0.1,0.2-0.2,0.3c-0.1,0.6-0.3,1.1,0.4,1.5c0.3,0.1,0.5,0.2,0.7,0.2
			c0.1,0,0.2,0,0.3,0c0.2-0.1,0.3-0.2,0.4-0.3c0.8,0.3,1.6,0.7,2.3,1.4c1,2.6,0.7,1.5-1.2,0.6c-0.3-0.2-0.5-0.4-0.9-0.5
			c-0.2-0.1-0.4-0.2-0.6-0.3c-0.3-0.2-0.6-0.4-0.9-0.6l-0.3-0.2v0.1c-0.1-0.1-0.2-0.1-0.3-0.2c0,1.3,1.5,2.9,1.3,4.4
			c-0.1,1.1,0.3,2.2,0.8,3.2c0.6,1.2,1.4,2.2,2.2,2.5c0.7,0.4,1.3,0.2,1.8,0.1c0.1,0,0.1,0,0.2,0c0.2,1.8,0.3,3.6,0.2,5.6
			c-0.2-0.2-0.3-0.5-0.5-0.6c-0.5-0.4-0.8-0.9-1.2-1.5l-0.2-0.3l-0.2,0.4c-0.1-0.2-0.3-0.4-0.4-0.7c-0.5,1.1,0.2,2.9-0.6,4.3
			c-0.9,1.6-0.5,3.7,0.1,4.7c0.1,0.3,0.3,0.6,0.4,0.8c-0.4,0.3-0.8,0.5-0.8,1.1c0-0.2-0.1-0.3-0.1-0.5L7-412.9l-0.3,0.3
			c-0.1,0.1-0.2,0.3-0.3,0.5c0-0.1-0.1-0.3-0.1-0.4c-0.9,0.9-0.8,3.1-2,4.2c-1.5,1.3-2,4.1-1.5,5.4c0.3,0.7,1,1,1.5,1.3c0,0,0,0,0,0
			c0.2,0.1,0.3,0.2,0.4,0.4c-0.3,0.5-0.8,1.1-1.2,1.6c0-0.1,0-0.1,0-0.2c0.1-0.1,0.2-0.1,0.3-0.3c0.1-0.1,0.1-0.2,0.1-0.3
			c0,0,0,0,0,0c0.1-0.1,0.2-0.2,0.2-0.4c0.1-0.4-0.1-0.7-0.4-1C3.5-401.9,3.3-402,3-402c-0.6,0.1-1.1,0.1-1.2,0.9
			c0,0.4,0.1,0.8,0.3,1c0.1,0.1,0.2,0.2,0.3,0.2c0,0.6-0.1,1.3-0.5,2.2c-1.4,1.6-3.1,2.9-4.9,4.2c0-0.2,0-0.4,0.1-0.6
			c0.1-0.2,0.2-0.4,0.5-0.5c2.9-1,4.5-3.3,4-5.6c-0.2-0.8-0.2-1.4-0.1-2.3v-0.4l-0.3,0.2c-0.2,0.1-0.3,0.3-0.4,0.4
			c0-0.2,0-0.4,0-0.6c-1.1,0.6-1.6,2.8-3.1,3.5c-1.8,0.9-3,3.4-2.8,4.8c0,0.2,0.1,0.4,0.2,0.5c-0.2,0-0.4,0-0.6,0.2
			c-0.1,0.1-0.2,0.1-0.4,0.3c-0.1,0.1-0.1,0.3-0.1,0.4c0,0.1,0,0.2,0,0.4c-0.1,0.5-0.4,1.1-1,1.9c-0.7,0.4-1.4,0.7-2.1,1
			c0.6-0.5,1-1.2,1.1-2c0.2-0.9,0.5-1.4,0.9-2.2l0.2-0.3h-0.4c-0.2,0-0.5,0.2-0.8,0.3c0.1-0.2,0.2-0.4,0.3-0.6
			c-1.3,0.1-2.6,1.9-4.2,1.9c-0.6,0-1.1,0.2-1.7,0.4l0.1-0.3l-0.4,0.3c-0.5,0.4-1,0.4-1.4,0.5c-0.1,0-0.3,0.1-0.4,0.1h-0.1v0.1
			c-0.2,0.6-0.6,1.1-1.2,1.8l-0.1,0.1c-0.3-0.2-0.8-0.3-1.3-0.2c-0.1,0-0.2,0.1-0.3,0.2c-0.1-0.1-0.3-0.1-0.5-0.1h-0.1
			c-0.3,0.3-0.5,0.6-0.7,1.1c-0.6-0.3-1.4-0.5-2-0.5c-0.5,0-1,0.1-1.2,0.3c0-0.2-0.1-0.4-0.1-0.6v-0.3l-0.1,0c0-0.2-0.1-0.4-0.1-0.5
			c0-0.1-0.1-0.2-0.2-0.2c-0.1-0.1-0.1-0.2-0.2-0.3c-0.1-0.1-0.2-0.1-0.3-0.2c-0.1-0.1-0.3-0.1-0.5-0.1c-0.1,0-0.2-0.1-0.3-0.1
			c-0.4,0-0.8,0.2-1.1,0.4c0-0.3,0-0.6-0.1-0.8v-0.1h-0.1c-0.5-0.1-1.5-0.1-2.6-0.1h-0.2v0.2c0.2,0.7,0.2,1.4,0.2,2
			c-0.7-1.1-2.4-2.3-4-2.4c-0.9,0-1.8-0.6-2.5-1.1c-0.4-0.3-0.9-0.6-1.3-0.7c0,0.1,0.1,0.2,0.1,0.2c-0.2-0.1-0.5-0.2-0.7-0.2
			c0.3,0.4,0.4,0.8,0.6,1.2c-0.3-0.1-0.5-0.2-0.8-0.3h-0.4l0.2,0.3c0.5,0.8,0.7,1.4,0.9,2.2c0.1,0.4,0.3,0.7,0.5,1.1
			c2.3,1-1.1-0.5-1.7-0.8h-0.1c-0.2-0.3-0.4-0.6-0.6-0.8c0-0.1-0.1-0.2-0.2-0.3c-0.1-0.2-0.1-0.4-0.2-0.6c0.1,0,0.2,0,0.2-0.1
			c0.3-0.2,0.5-0.4,0.6-0.7s0-0.7-0.2-1c-0.4-0.6-0.9-0.5-1.5-0.3c0.1-1.3-0.9-3.7-2.7-4.6c-0.8-0.4-1.4-1.3-1.9-2
			c-0.5-0.6-0.7-1-1-1.3c0,0.1,0,0.2,0,0.3c-0.1-0.1-0.3-0.3-0.4-0.4c0,0.3,0,0.6,0,0.8c0,0-0.1-0.1-0.1-0.1l-0.3-0.2v0.2
			c-0.2-0.5-0.6-0.5-1.1-0.6c-0.2-0.1-0.3,0-0.4,0c0.1-0.3,0.1-0.7,0.1-1.1c0-0.6,0-1.2-0.2-1.8c-0.2-1-0.7-2-1.5-2.7
			c-0.7-0.6-1-1.6-1.3-2.5c-0.1-0.5-0.2-1-0.4-1.3c0,0.1,0,0.2-0.1,0.2c-0.1-0.2-0.1-0.3-0.2-0.4c0,0.2-0.1,0.3-0.1,0.4c0,0,0,0,0,0
			l-0.3-0.3c0.1-0.1,0.2-0.3,0.3-0.5c0.2-0.8-0.2-1-0.8-1.3c0.1-0.4,0.2-1,0.2-1.5c0.1-0.6,0.1-1.2,0-1.8c-0.1-0.6-0.2-1.1-0.5-1.6
			c-0.1-0.3-0.2-0.5-0.2-0.8c-0.1-0.9,0-1.8-0.2-2.6c0-0.1,0-0.3,0-0.4c0,0,0,0.1-0.1,0.1c0-0.1,0-0.1,0-0.2
			c-0.1,0.1-0.2,0.2-0.2,0.3l-0.1-0.1l-0.2,0.3c-0.3,0.6-0.7,1.1-1.2,1.5c0,0,0,0.1-0.1,0.1c0,0,0,0,0,0c-0.3,0.2-0.5,0.6-0.7,0.9
			c0.1,2.1,0.1,2.1,0,0c0,0,0,0,0,0c0-0.2,0-0.3,0-0.5c-0.1-1.9,0-3.8,0.2-5.5c0.1,0,0.3,0.1,0.5,0.1c0.5,0.1,1.2,0.2,1.8-0.1
			c1.2-0.5,2.7-2.5,2.7-4.5c0.1-0.4,0.1-0.8,0.1-1.2c0-0.1,0-0.3,0-0.4c0.1-0.5,0.4-1,0.6-1.5c0.3-0.7,0.6-1.4,0.6-2
			c0.1-0.2,0.1-0.4,0.1-0.6c-0.1,0.1-0.1,0.1-0.2,0.2c0,0,0,0,0-0.1c-0.6,0.4-1.1,0.7-1.8,1c-0.5,0.2-0.9,0.5-1.3,0.8
			c-0.1,0.1-0.3,0.3-0.4,0.4c-1.3,1.2-1.3,1.4-0.4-1.1c0.8-0.9,1.8-1.5,2.9-1.7c0.2,0,0.6-0.1,0.7-0.3c0,0,0,0,0.1,0
			c0.2,0,0.4-0.1,0.7-0.3c0.5-0.3,0.6-0.7,0.5-1.1c1.3-0.5,2.9-1.7,3.5-3.4c0.1-0.1,0.1-0.2,0.1-0.3c0.2-0.8,0.8-1.4,1.5-1.9
			c0.6-0.5,1.1-1,1.3-1.6l0-0.1c0.1-0.1,0.2-0.2,0.3-0.4c-0.3,0.1-0.5,0.1-0.7,0.2c0.1-0.1,0.2-0.2,0.3-0.4c-0.7,0.2-1.3,0.3-2,0.2
			c-1,0-2.1,0.8-1.7,0.7c-0.9,0.4-1-0.2-0.1-1.1c1.2-0.5,2.3-0.6,3.3-0.3c0.4,0.1,0.7,0,0.8-0.1c0.1,0,0.3,0.1,0.4,0.1
			c0,0,0.1,0,0.1,0.1c0.6-0.1,0.7-0.4,0.8-0.9c1.3,0.4,4.1,0,5.5-1.6c0.5-0.6,1.4-0.9,2.2-1.2c0.8-0.2,1.5-0.5,1.9-0.9l0.3-0.3
			l-0.1,0c0,0,0.1,0,0.1-0.1c-0.3,0-0.5-0.1-0.8-0.2c0.1,0,0.3-0.1,0.4-0.1c-0.7-0.1-1.3-0.3-1.9-0.6c-0.8-0.4-1.2-0.8-0.3-1
			l0.2-0.1l-0.1-0.2v0c0,0,0.1,0,0.1,0c2.7,1.2,5.2,0.7,6.2-0.1c1-0.8,2.2-1.5,2.8-1.9l0.3-0.2l-0.3-0.2c0,0,0,0,0,0
			c0.1-0.1,0.3-0.2,0.4-0.3c-1.1-0.6-2.1-0.8-3.2-0.8c0.3-0.3,0.6-0.7,0.7-1.1c0.3-0.5,0.6-1.1,0.6-1.7c-1-0.1-2.1,0.2-3,0.8
			c-0.8,0.4-1.6,0.9-1.9,1.5c-0.3,0.5-1.1,1.4-2,2.3c0.2-0.4,0.3-0.9,0.4-1.3c0,0,0,0,0.1,0c0.1,0,0.1,0,0.1,0.1
			c0.8-0.1,0.9-0.6,1-1.2c0.1-0.2,0-0.5-0.2-0.7c-0.3-0.3-0.6-0.5-1-0.5c-0.6,0-1.1,0.5-1.1,1.1c0,0.4,0.2,0.7,0.4,0.9
			c-0.1,0.1-0.2,0.1-0.3,0.3c-0.3,1.4-1.9,2.5-3.2,3c-1.9,0.6-1,0.1,0.4-1.6c0,0,0,0,0,0c0.1-0.1,0.1-0.1,0.2-0.2c0,0,0,0,0-0.1
			c0.7-0.8,1.1-1.8,0.8-2.6c-0.1,0.1-0.1,0.2-0.2,0.3c0,0,0-0.1,0-0.2l-0.1-0.5l-0.2,0.5c-0.5,1.1-1.8,1.4-3.7,1.6
			c-1.3,0.1-2.6,0.8-3.4,1.9c-0.7,1-0.9,2.1-0.7,3.2c0.1,0.5,0.2,0.8,0.2,1.1c-0.6,0.4-1.1,0.8-1.7,1.2c0.1-0.6,0-1.3-0.1-1.8
			c0.4-0.2,0.5-0.6,0.6-1.1c0.1-0.2,0-0.5-0.2-0.7c-0.3-0.3-0.7-0.5-1-0.5c-0.6,0-1.1,0.5-1.1,1.1c0,0.4,0.2,0.7,0.4,0.9
			c0.1,0.1,0.2,0.1,0.3,0.1c0,0,0,0.1,0,0.1c0.1,0.6-0.2,2.2-0.8,3.4c-0.8,0.8-1.6,1.5-2.4,2.4c1-1.7,1.7-3.8,0.6-5.1
			c0,0.1-0.1,0.2-0.1,0.3c0-0.1-0.1-0.1-0.1-0.2l-0.3-0.4v0.5c0,1.2-4.7,4.9-5,6.2c-0.2,1.2,0,2.3,0.7,3.2c0.2,0.3,0.4,0.6,0.5,0.8
			c-0.3,0.5-0.5,1-0.8,1.5c-0.2-0.4-0.4-0.8-0.7-1.2c0.7-0.4,0.6-0.9,0.4-1.5c-0.1-0.2-0.2-0.4-0.5-0.5c-0.4-0.1-0.8-0.1-1.1,0
			c-0.5,0.3-0.8,0.9-0.5,1.5c0.2,0.4,0.4,0.6,0.7,0.7c0,0,0,0,0.1,0c0,0,0,0.1,0,0.1c0.3,0.5,0.6,1.7,0.7,2.9
			c-0.4,0.8-0.8,1.8-1.1,2.8c0-0.6,0-1.2-0.1-1.8c0-0.3-0.5-1.3-0.5-1.4c0,0.1,0,0-0.1-0.1c0,0,0,0,0.1,0.1
			c-0.1-0.4-0.3-0.7-0.6-0.9c0,0.1,0,0.2,0,0.2c-0.1-0.1-0.2-0.3-0.4-0.3c0,0.1,0,0.1,0,0.2l-0.4-0.2l0.2,0.5
			c0.3,0.7,0.1,1.5-0.5,2.4c-0.2,0.3-0.5,0.7-0.7,1.1c0,0.1-0.1,0.1-0.1,0.2c0,0,0,0.1-0.1,0.1c0,0.1-0.1,0.1-0.1,0.2
			c-0.1,0.1-0.2,0.3-0.2,0.4c-0.5,1-0.8,2.2-0.6,3.3c0.2,1.1,0.8,2.1,1.8,2.7c0.4,0.3,0.6,0.5,0.8,0.6c-0.1,0.4-0.8,0.6-1.2,0.3
			c0.3-0.5,0.1-0.9-0.3-1.3c-0.2-0.2-0.4-0.3-0.7-0.3c-0.4,0-0.8,0.1-1,0.4c-0.2,0.2-0.3,0.5-0.3,0.8c0,0.2,0.2,0.5,0.4,0.7
			c0.2,0.2,0.5,0.3,0.8,0.3c0,0,0.1,0,0.1,0c0.5,0.4,1.4,1.5,1.9,2.6c-0.1,3.1-3.3,0.5-3.4,0.5l-0.6-0.1l0.4,0.4
			c0.8,0.9,0.8,2.1,0.4,3.7c-0.5,2.1,0.8,4.8,3.3,5.4c0.3,0.1,0.6,0.1,0.8,0.2c0.2,0.7,0.4,1.4,0.6,2.2c0,0,0,0,0,0c0,0,0,0,0,0
			c-0.4-0.2-1.6-1.1-2.1-1.4c-0.2-0.1-0.4-0.1-0.7,0c-0.4,0.2-0.7,0.5-0.8,0.8c0,0.3,0,0.6,0.1,0.8c0.1,0.3,0.4,0.5,0.7,0.6
			c0.1,0.1,0.3,0.1,0.4,0.1c0.1,0,0.3-0.1,0.5-0.2c0.1,0,0.1-0.1,0.2-0.2c0.6,0.2,1.5,0.7,2.3,1.4c0.3,0.9-3,0.1-3.3,0.2l-0.5,0.1
			l0.5,0.2c1,0.6,1.4,1.9,1.5,3.8c0.1,1.3,0.8,2.6,1.9,3.4c1,0.7,2.1,1,3.2,0.8c0.4,0,0.7-0.1,0.9-0.1c0.3,0.4,0.5,1.9,0.1,2
			c-0.1-0.2-1.6-0.7-1.8-0.5c-0.2,0.3-0.4,0.6-0.4,1c0,0.5,0.5,1,1.1,1c0.4,0,0.7-0.2,0.9-0.3c0.1-0.1,0.1-0.2,0.1-0.3
			c0.7,0,1.6,0.2,2.5,0.5c0.3,0.4-3.2,1.3-3.7,1.6l-0.4,0.3l0.5,0.1c0.3,0,0.6,0.1,0.8,0.1c0.9,0,1.4,0.1,1.9,1.4
			c0.4,1,1.3,1.8,2.4,2.3c1.3,0.5,2.7,0.5,3.7,0c0.4-0.2,0.6-0.3,0.8-0.4c0.5,0.3,1.1,0.7,1.7,1.1c0,0,0.1,0,0.1,0
			c0.1,0.1-2.3,1-2.4,1.3c-0.2,0.4,0.3,1.5,0.6,1.6c0.2,0.1,0.3,0.1,0.4,0.1c0.2,0,0.4,0,0.6-0.2c0.3-0.2,0.5-0.4,0.6-0.7
			c0.1-0.2,0-0.4,0-0.6c0.5-0.2,1.1-0.4,1.8-0.4c0.7,0.4,1.4,0.7,2.1,1c-0.5,0-1,0-1.4,0.1c-0.7,0.1-1.3,0.4-1.7,0.8
			c0.1,0.1,0.2,0.2,0.3,0.3c0.4-0.4,1-0.7,1.7-0.8c0.7-0.1,1.4-0.1,2.1,0c1.2,0.5-3.6,0.9-3.7,0.8c-0.2,0.2,10.4,4,10.8,4.3
			c0.4,0.3,0.9,0.4,1.5,0.4c0.6,0,1.4-0.2,2.1-0.2c0,0,0,0,0,0c0.2,0.2,0.4,0.4,0.7,0.4c0.1,0,0.2,0,0.5,0c0.4-0.2,1.2-1.2,1.7-2
			c0.2,0,0.4-0.1,0.5-0.1c0,0,0,0,0,0c0.5,0.8,1.4,1.6,1.8,1.8c0.1,0.1,0.3,0.1,0.4,0.1c0.4,0,0.6-0.2,0.9-0.4
			c0.5,0.3,1,0.4,1.3,0.4c1.1,0,1.9-0.7,2.1-2c0.1-0.1,0.2-0.3,0.3-0.5v-0.1c0-0.1,0-0.1,0-0.2c0.7,0.7,1.4,1.2,2.5,1.4
			c0.3,0,0.5,0,0.7,0c1,0,2-0.4,2.6-1.1c0.1-0.1,0.2-0.1,0.3-0.2c0.7-0.6,1.4-1.1,2-1.4c0.6-0.3,1.2-0.3,1.7-0.1l0.5,0.2l-0.2-0.4
			c-0.4-0.7-1.2-1.2-2.3-1.4c-0.8-0.2-1.7-0.1-2.6,0c1.2-0.5,2.2-0.9,3.3-1.5c1.1,0.1,2.2,0.4,2.7,0.7c0,0,0,0.1,0,0.1
			c-0.1,0.2-0.1,0.5-0.1,0.7c0.1,0.3,0.3,0.5,0.6,0.7c0.1,0.1,0.3,0.1,0.5,0.1c0.1,0,0.2,0,0.5,0c0.3-0.1,0.5-0.3,0.6-0.5
			c0.1-0.3,0.1-0.7,0-1.1c-0.1-0.2-0.3-0.4-0.5-0.5c-0.4-0.1-0.8-0.3-1.1-0.1c0,0,0,0,0,0c-0.5-0.4-1.2-0.8-1.7-1
			c0.7-0.4,2.5-1.1,2.9-0.9c1.1,0.5,2.5,0.5,3.7,0c0.4-0.2,0.6-0.4,0.4-0.3c-0.2,0.1,3.4-3.4,3.8-3.4c0.2,0,0.5,0,0.8-0.1l0.5-0.1
			l-0.4-0.3c-1.2-0.7-3-0.8-4.7-0.1c-0.4,0.1-0.6,0.3-0.9,0.4c0.7-0.6,1.2-1.2,1.8-1.9c1.1-0.4,2.3-0.6,3-0.6c0,0.3,0.1,0.6,0.3,0.7
			c0.2,0.3,0.5,0.4,0.9,0.4c0.3,0,0.6-0.1,0.8-0.4c0.1-0.1,0.1-0.2,0.1-0.3c0,0,0,0,0,0c0.1-0.1,0.2-0.2,0.2-0.4
			c0.1-0.4-0.1-0.7-0.4-1c-0.2-0.1-0.4-0.2-0.7-0.2c-0.4,0.1-0.8,0.1-1,0.4c-0.6-0.2-1.3-0.2-1.9-0.2c0.5-0.6,1-1.3,1.4-1.9
			c0.2,0,0.5,0,1,0.1c1.1,0.2,2.3-0.1,3.2-0.8c1.1-0.8,1.8-2.1,1.9-3.4c0.1-1.9,0.4-3.3,1.5-3.8l0.5-0.2l-0.5-0.1
			c-0.8-0.3-1.7-0.1-2.6,0.6c-0.7,0.6-1.4,1.3-1.9,2.1c0.5-0.9,0.9-1.9,1.2-2.8c0.8-0.6,1.8-1.1,2.4-1.4c0.1,0.2,0.3,0.5,0.5,0.7
			c0.1,0.1,0.3,0.1,0.5,0.1c0.1,0,0.3,0,0.4,0c0.6-0.2,1-0.8,0.8-1.4c-0.1-0.3-0.4-0.7-0.8-0.8c-0.2-0.1-0.5-0.1-0.7,0
			c-0.3,0.2-0.5,0.3-0.7,0.5c-0.6,0-1.2,0.2-1.8,0.5c0.3-0.9,0.5-1.6,0.6-2.3c0.2-0.1,0.5-0.1,0.8-0.2c2.4-0.6,3.8-3.3,3.3-5.4
			c-0.3-1.6-0.4-2.8,0.4-3.7L16.2-422.1z M-2.1-447.8c-0.2-0.2-0.5-0.4-0.8-0.4c-0.2,0-0.4,0.1-0.6,0.1c0.1-0.2,0.3-0.4,0.4-0.5
			c0.2-0.2,0.3-0.4,0.4-0.5c0,0,0,0,0,0c0.5,0.4,1.1,0.7,1.6,1.2C-1.4-447.9-1.7-447.9-2.1-447.8z M6.2-437.3c0-0.3-0.2-0.7-0.6-0.9
			c-0.1,0-0.2,0-0.2-0.1c0.2-0.1,0.4-0.2,0.5-0.3c0.1-0.1,0.2-0.2,0.4-0.2c0.3,0.6,0.6,1.3,1,1.9C7-437.1,6.6-437.2,6.2-437.3z
			 M-50.4-437.5c-0.1,0.3,0,0.6,0,0.8c-0.6,0.1-1.2,0.3-1.7,0.5c0.3-0.6,0.5-1.2,0.9-1.8c0.1,0,0.3,0.2,0.5,0.3
			C-50.6-437.6-50.5-437.6-50.4-437.5z M-48.7-448c-0.5,0.6-2.6,2-2.9,2.2C-51.3-446-49.2-447.4-48.7-448z M-57.9-425.1
			C-57.9-425.1-57.9-425.1-57.9-425.1C-57.8-425.1-57.8-425.1-57.9-425.1C-57.8-425.1-57.9-425.1-57.9-425.1z M-54.1-420.7
			C-54.1-420.7-54.1-420.7-54.1-420.7C-54.1-420.7-54.1-420.7-54.1-420.7C-54.1-420.7-54.1-420.7-54.1-420.7z M-53-406.6
			c0,0,0-0.1,0-0.1c-0.2-0.5-0.4-0.9-0.5-1.3c0,0,0,0.1,0,0.1c0,0,0-0.1,0-0.1c0,0,0-0.1,0-0.1c0,0,0,0.1,0,0.1
			c0-0.9,0.2-1.8,0.7-2.4c0-0.1,0.1-0.3,0.2-0.4c0,0,0.1,0,0.1,0c0.2,0,0.4-0.1,0.5-0.2c0.1,0,0.2-0.1,0.3-0.2l-0.1,0.3
			c-0.2,0.8-0.3,1.5-0.7,2.2c-0.3,0.6-0.5,1.3-0.4,2.1C-52.6-405.7-52.6-405.7-53-406.6z M-47-396.9v-0.1c-0.2-0.4-0.3-0.8-0.3-1.2
			c0,0.1,0,0.2,0,0.3c-0.1-0.7,1-2.4,1.1-2.7C-46.2-400-46.7-396.5-47-396.9z M-23.3-388.7L-23.3-388.7
			C-23.3-388.7-23.3-388.7-23.3-388.7C-23.3-388.7-23.3-388.7-23.3-388.7z M7.8-411.1c0.1,0.1,0.3,0.1,0.5,0.1
			c0,0.1,0.1,0.2,0.1,0.3c0.1,0.5,0.2,1,0.1,1.6c-0.1,0.2-0.2,0.5-0.3,0.7c0-0.7-0.1-1.3-0.4-1.9c-0.3-0.5-0.5-1-0.6-1.6
			C7.3-411.6,7.5-411.3,7.8-411.1z"/>
	</g>
</g>
<g>
	<path opacity="0.2" enable-background="new    " d="M10.4,74.3V25.8c0-12.1,8.2-22.7,19.8-25.8H0v100h30.2
		C18.5,96.9,10.4,86.3,10.4,74.3z"/>
	<path opacity="0.1" fill="#FFFFFF" enable-background="new    " d="M89.6,25.8v48.5c0,12.1-8.2,22.7-19.8,25.8H100V0H69.8
		C81.5,3.1,89.6,13.7,89.6,25.8z"/>
</g>
<path fill="#002A86" d="M42,51.7c0,0-1.1-0.2-1.1-0.3s-1.8-2-1.8-2l2.5,0.7L42,51.7z"/>
<path fill="#803E2B" d="M59.9,51.1C59.9,51.1,59.9,51.1,59.9,51.1l0.7-3.9l-1.2,3.8c-0.1,0-0.3,0-0.5-0.1l-1.6-0.3l0-3.9h0l0.4-0.3
	v-0.3h-0.4l0-1.2h0.1l0-0.3l-0.4,0V45h0.2l-0.1,1.2h-0.5l0,0.3l0.4,0.2L56.8,51h-1.2l-1.4-5.6h0l0-0.6l-0.6,0l0.1-1.1l0.3,0l0.1-0.6
	l-0.4,0l0.1-2.2l0-0.1h0l0-0.1h-0.1l0,0l0,0h0l0,0.1c-0.6,0-0.9,0-1.4-0.4c-1.1-0.9-3-1.2-3.9-0.4c-0.1,0.1-0.1,0.2-0.1,0.3l-0.1,0
	l0,0.1c0,0,0.1,0.1,0.1,0.2c0,0,0,0,0,0.1c0,0,0,0,0.1,0.1c0,0.1,0,0.2,0,0.2c0,0.1-0.1,0.1-0.2,0.1c-0.3-0.1-0.7,0-0.8,0.3
	c0,0,0,0-0.1,0l0,0v0.1c0,0.1,0,0.3-0.3,0.3l-0.2,0l0.2,0.1c0.1,0,0.2,0.1,0.3,0.1c0.1,0,0.2,0,0.3,0c0.1,0,0.1-0.1,0.1-0.2
	c0-0.1,0.1-0.3,0.4-0.3c0,0,0,0,0,0v0c0,0,0,0,0.1,0c0.2,0,0.3,0,0.3-0.1c0.2-0.1,0.4-0.2,0.4-0.3c0.1-0.2,0-0.4-0.1-0.6
	c0,0-0.1-0.1-0.1-0.1c0.7-0.1,1.6,0,2.2,0.5c0.6,0.5,1.7,0.9,2.5,1l-0.1,1.2l-0.3,0l0,0.5l0.2,0l-0.1,1.1l-0.4,0l0.1,0.7H53
	l-0.8,6.3c-1.3-0.1-3.5-0.4-5.2-0.7c0,0,0-0.1,0-0.1l0,0l-0.7-5.3h0l0-0.4l-0.3,0l0.1-1.2l0.3,0l0-0.5l-0.3,0l0.2-2.5h-0.1l0,0.1
	l-0.1,0c-0.6-0.1-1.7-0.1-2.3,0.3c-0.2,0.1-0.4,0.4-0.4,0.6v0.2l0,0c0,0.4,0.2,0.7,0.4,0.9l0.1,0.1c0,0.1,0,0.1-0.2,0.2
	c-0.2,0.1-1,0.6-1.1,1.3l0,0.3l0.1-0.2c0.4-0.4,0.9-0.8,1.2-0.9c0.2-0.1,0.3-0.1,0.3-0.2l0,0.1l0.1-0.2c0.1-0.2,0.1-0.5-0.1-0.8
	c-0.3-0.3-0.2-0.6-0.1-0.7c0.1,0,0.3,0,0.4,0c0.4,0.1,1,0.1,1.3,0.1h0.1l-0.2,1.6l-0.3,0l0,0.5l0.2,0l-0.2,1.2l-0.5,0v0.5l0.3,0
	L40,49.4l0,0c-0.6-0.2-1.1-0.4-1.4-0.5l-0.1-0.1l-0.1,0.1l0,0l0,0c0.1,0.1,0.2,0.1,0.2,0.2l2.1,2.3h0l0,0l0.1,0.1l0,0c0,0,0,0,0,0
	l0,0c0.1,0.1,0.2,0.2,0.3,0.3l1.4,3l0.1,0v0l0.7,0.1c0,0,0.1,0,0.1,0.1c-0.3,0.5-0.6,1-0.6,1.1l-0.1,0.1l0.8,0v0
	c0.1-0.3,0.3-0.8,0.5-1.2l1.4,0.1c-0.2,0.6-0.4,1.2-0.4,1.2l0,0.1l0.8,0.1v-0.1c0,0,0.1-0.6,0.3-1.2l1.4,0.1
	c-0.1,0.7-0.3,1.3-0.3,1.3l0,0.1l0.9,0l0-0.1c0,0,0-0.6,0-1.3l1.3,0.1c0,0.4-0.1,0.8-0.1,1.2v0.1h0.8v-0.1c0,0,0-0.5-0.1-1.1
	l1.3,0.1c0,0.4,0,0.8,0,1.2v0.1l0.8,0v-0.1c0,0-0.1-0.5-0.1-1.1l1.3,0.1c0.1,0.4,0.1,0.7,0.1,1v0.1h0.7v-0.1c0,0-0.1-0.4-0.2-0.9
	l1.3,0.1c0.1,0.5,0.2,0.9,0.2,0.9v0.1l0.9,0l0-0.1c0,0-0.1-0.4-0.3-0.9l1.3,0.1c0.1,0.5,0.2,0.9,0.2,0.9V57h0.9l0-0.1
	c0,0-0.1-0.3-0.2-0.6c0.3,0,0.5,0,0.5-0.1c0,0,0-0.1,0.1-0.1c0,0,0-0.1,0-0.2c0-0.1,0.1-0.3,0.1-0.5l0,0v-0.1c0-0.2,0.1-0.5,0.1-0.7
	v-0.1h0c0-0.1,0-0.2,0-0.3h0.1v-0.1c0.1-0.3,0.3-0.6,0.4-1c0.1-0.1,0.3-0.1,0.5-0.1h0.2l0-0.1c-0.2-0.4-0.1-0.9,0-1.3
	c0.1-0.2,0.3-0.3,0.4-0.4l0-0.1c0,0,0,0,0,0c0,0,0.1,0,0.1-0.1C60.3,51.2,60.1,51.1,59.9,51.1z M48.3,40.6
	C48.3,40.6,48.3,40.6,48.3,40.6C48.3,40.6,48.3,40.6,48.3,40.6C48.3,40.6,48.3,40.6,48.3,40.6z M44.8,50.7c-0.2,0-0.4-0.1-0.7-0.2
	c-1.2-0.3-2.5-0.7-3.5-1c-0.1,0-0.3-0.1-0.4-0.1l5.3-3.5L44.8,50.7z"/>
</svg>
