<?xml version="1.0" encoding="utf-8"?>
<!-- Generator: Adobe Illustrator 23.0.0, SVG Export Plug-In . SVG Version: 6.00 Build 0)  -->
<svg version="1.0"
	 id="svg2" xmlns:cc="http://creativecommons.org/ns#" xmlns:dc="http://purl.org/dc/elements/1.1/" xmlns:rdf="http://www.w3.org/1999/02/22-rdf-syntax-ns#"
	 xmlns="http://www.w3.org/2000/svg" xmlns:xlink="http://www.w3.org/1999/xlink" x="0px" y="0px" width="100px" height="100px"
	 viewBox="0 0 100 100" enable-background="new 0 0 100 100" xml:space="preserve">
<g id="path20">
	<path fill="#002D72" d="M0,100h100V0H0V100z"/>
</g>
<path fill="#FFFFFF" d="M80,69.9C78.4,69,78,69,76.5,69c-0.3,0-0.6,0-1,0c-0.7,0-2.1-0.1-3.8-0.1V69c-2.9-0.1-6.4-0.1-8.6-0.1v-0.1
	c-0.8,0-1.4,0-1.8,0c-0.2,0-0.3,0-0.5,0c-1.2,0-2.7,0.1-3.1,0.7c-0.2,0.2-0.2,0.5-0.1,0.8c0,0.2,0,0.3,0.1,0.4
	c0.1,0.5,0.2,0.9,0.3,1.3c0.2,0.8,0.3,1.5,0.7,2.2c-0.8,0.2-1.4,0.3-1.9,0.4c-2.3,0.5-6.8,0.8-6.8,0.8c-3.1,0-4.1-0.3-6.1-0.7
	c-0.6-0.1-1.4-0.3-2.4-0.5c0.3-0.8,0.5-1.4,0.6-2.1c0.1-0.4,0.2-0.8,0.3-1.3c0-0.1,0.1-0.3,0.1-0.4c0.1-0.3,0.1-0.6-0.1-0.8
	C42,69.1,41,69,40.1,68.9V69c-0.5,0-1,0-1.4-0.1c-0.6,0-2.3,0-4.3,0v-0.1c-1,0-2.2,0.1-3.4,0.1c-1.2,0-2.3,0-3.4,0.1
	c-0.6,0-1.2,0-1.7,0c-0.7,0-1.2,0-1.6,0.1c-0.3,0-0.6,0-0.9,0c-1.1,0-1.6,0-2.4,0.4c-0.4,0.1-0.8,0.3-1.3,0.6c0.7,1,2,4.1,2.1,4.2
	c0.3,0.3,0.7,0.5,1.6,0.3l0.3,0.9c1.4-0.1,2.1-0.2,2.2-0.5c0.1-0.2,0-0.4-0.2-0.7c-0.5-0.7-0.7-1.2-0.8-1.4l8.2,0.1L32,74.8
	c0,0,0,0,0,0l0,0.1c0.1,0,6.5,4.2,18,4.2c-3.5,0,3.6,0,0,0c7.2,0,12.3-1.6,15.2-2.9c1.8-0.8,2.8-1.4,2.8-1.4L67.5,74l-0.6-1.1
	l8.1-0.1c0,0.2-0.2,0.7-0.8,1.4c-0.2,0.3-0.3,0.5-0.2,0.7c0.2,0.3,0.7,0.4,1.7,0.5c0,0,0,0,0,0c0.2,0,0.3,0,0.5,0l0,0
	c0,0,0.1,0,0.1,0l0.3-0.9c0.7,0.1,1,0.1,1.3-0.1c0.3-0.1,0.4-0.4,0.6-0.8c0.4-0.8,1.2-2.5,1.8-3.5C80.2,70,80.1,70,80,69.9z"/>
<g id="g6061">
	<g id="path56">
		<path fill="#0077C8" d="M49.7,38.3c-0.4-0.3-0.7-0.5-1.1-0.5c-0.3,0-0.6,0.2-0.9,0.3c0,0,0.1,0.1,0.2,0.1c0.4,0.3,0.4,0.9,1,1
			c0,0,0,0-0.1,0c0.6,0.1,2,0,2,0C50.1,39.2,50.1,38.6,49.7,38.3"/>
	</g>
	<g id="path58">
		<path fill="#0077C8" d="M53.6,38.3c-0.4-0.3-0.7-0.5-1.1-0.5c-0.3,0-0.6,0.2-0.9,0.3c0,0,0.1,0.1,0.2,0.1c0.4,0.3,0.4,0.9,1,1
			c0,0,0,0-0.1,0c0.6,0.1,2,0,2,0C54,39.2,53.9,38.6,53.6,38.3"/>
	</g>
	<path fill="#0077C8" d="M54.9,34.6L54.9,34.6c-0.1-0.2-0.2-0.5-0.3-0.8c0,0,0,0,0,0c0-0.1,0-0.2,0-0.3c-0.6-1.4-2-2.5-3.6-2.7
		c0,0,0,0.1,0,0.1c-0.2,0-0.5-0.1-0.7-0.1c-0.6,0-1.2,0.1-1.7,0.3v0c-0.3,0.1-0.6,0.3-0.8,0.4c-0.2,0.1-0.4,0.3-0.5,0.4c0,0,0,0,0,0
		c-0.4,0.3-0.7,0.7-0.9,1.1c0-0.1,0-0.1,0.1-0.2l-0.1,0.2c-0.4,0.7-0.6,1.5-0.6,2.3c0,0.9,0.3,1.8,0.7,2.5c0.1,0,0.1,0,0.2,0
		c0.4,0,0.7,0.1,1,0.3l-0.1,0.1c0,0,0.1,0,0.2-0.1h0c0.2-0.1,0.4-0.2,0.6-0.3c0.1,0,0.2,0,0.2,0c0.4,0,0.7,0.1,0.9,0.3h0.1
		c0.4-0.1,0.6-0.3,0.9-0.3c0.4,0,0.7,0.1,1,0.3c0.4-0.1,0.6-0.3,0.9-0.3c0.4,0,0.7,0.1,0.9,0.3h0.1c0.4-0.2,0.7-0.3,0.9-0.4
		c0.4-0.7,0.7-1.5,0.7-2.4c0,0,0-0.1,0-0.1C55,35,54.9,34.6,54.9,34.6z"/>
	<g id="path186">
		<path fill="#F2A900" d="M47.8,38.3c-0.4-0.3-0.7-0.5-1.1-0.5c-0.3,0-0.6,0.2-0.9,0.3c0,0,0.1,0.1,0.2,0.1c0.4,0.3,0.4,0.9,1,1
			c0,0,0,0-0.1,0c0.6,0.1,2,0,2,0C48.2,39.2,48.2,38.6,47.8,38.3"/>
	</g>
	<g id="path188">
		<path fill="#FFD90F" d="M51.7,38.3c-0.4-0.3-0.7-0.5-1.1-0.5c-0.3,0-0.6,0.2-0.9,0.3c0,0,0.1,0.1,0.2,0.1c0.4,0.3,0.4,0.9,1,1
			c0,0,0,0-0.1,0c0.6,0.1,2,0,2,0C52,39.2,52,38.6,51.7,38.3"/>
	</g>
	<g id="path190">
		<path fill="#F2A900" d="M54.3,37.8c-0.3,0-0.6,0.2-0.9,0.3c0,0,0.1,0.1,0.2,0.1c0.4,0.3,0.4,0.9,1,1c0,0,0,0-0.1,0
			c0.7,0,1.3,0.1,1.3-0.5C55.8,38.2,55.1,37.8,54.3,37.8"/>
	</g>
	<g id="path410">
		<path d="M41,75.9L41,75.9c0-0.5-0.4-0.8-0.8-0.9c-0.2-0.1-0.3,0-0.3,0.1l-0.1,0.5c0.3,0.1,0.6,0.1,0.8-0.2l0,0l-0.2,0.9l0,0
			c0-0.3-0.2-0.5-0.6-0.6l-0.2,0.9c0,0.2,0,0.2,0.2,0.3c0.4,0.1,0.9-0.1,1.2-0.5l-0.2,0.9l-2.1-0.5l0,0c0.2,0.1,0.4-0.3,0.5-0.4
			l0.4-1.4c0-0.2,0-0.4-0.2-0.4l0,0l2.1,0.5L41,75.9"/>
	</g>
	<g id="path412">
		<path d="M42.4,77.8L42.4,77.8c0.2-0.1,0.3-0.1,0.3-0.1c0-0.1,0-0.1,0-0.2l-0.2-0.6l-0.4,0.4c-0.1,0-0.1,0.1-0.1,0.1
			c0,0.1,0.1,0.1,0.3,0.2v0.1l-1-0.2l0,0c0.2,0,0.4-0.2,0.6-0.3l0.6-0.6l-0.4-1c-0.1-0.1-0.1-0.4-0.3-0.5l0,0l1.2,0.2l0,0
			c-0.2,0-0.3,0.1-0.3,0.2c0,0,0,0.1,0,0.2l0.2,0.5l0.4-0.4l0.1-0.1c0-0.1,0-0.3-0.2-0.3l0,0l0.9,0.2l0,0c-0.3,0-0.4,0.2-0.6,0.3
			L43,76.4l0.4,1.1c0,0.1,0.1,0.3,0.3,0.4l0,0L42.4,77.8"/>
	</g>
	<g id="path414">
		<path d="M46.4,76.8L46.4,76.8C46.3,76.3,46,76,45.6,76c-0.4-0.1-0.7,0.3-0.7,1c-0.1,0.7,0.1,1.1,0.6,1.1c0.5,0.1,0.8-0.2,0.9-0.7
			h0.1c-0.1,0.6-0.5,0.9-1.1,0.8c-0.8-0.1-1.2-0.7-1.1-1.4c0.1-0.7,0.7-1.1,1.4-1.1c0.3,0,0.5,0.2,0.6,0.3l0.3-0.1l0,0L46.4,76.8"/>
	</g>
	<g id="path416">
		<path d="M49.1,77L49.1,77c-0.1-0.4-0.5-0.7-0.9-0.7c-0.2,0-0.3,0-0.3,0.2V77c0.3,0,0.6-0.1,0.7-0.4l0,0v1l0,0
			c-0.1-0.3-0.3-0.4-0.7-0.4l-0.1,0.9c0,0.2,0.1,0.2,0.3,0.2c0.5,0,0.9-0.3,1-0.7l0,0L49,78.5l-2.2-0.1l0,0c0.3,0,0.3-0.2,0.4-0.3
			l0.1-1.6c0-0.2-0.1-0.4-0.3-0.4l0,0l2.1,0.1V77"/>
	</g>
	<g id="path418">
		<path d="M49.7,78.5L49.7,78.5c0.3,0,0.3-0.2,0.3-0.4v-1.6c0-0.2-0.1-0.4-0.3-0.4l0,0H51l0,0c-0.3,0-0.3,0.2-0.3,0.4v1.6
			c0,0.2,0.1,0.2,0.2,0.2c0.3,0,0.8-0.4,0.8-0.8l0,0v0.9L49.7,78.5"/>
	</g>
	<g id="path420">
		<path d="M52.2,77.5L52.2,77.5c0.1,0.4,0.6,0.7,1,0.7c0.2,0,0.4-0.2,0.4-0.4c0-0.5-1.4-0.2-1.4-1c0-0.5,0.3-0.8,0.7-0.9
			c0.4,0,0.5,0.1,0.6,0.1s0.2-0.1,0.3-0.2l0,0l0.1,0.8l0,0c-0.1-0.4-0.5-0.7-0.9-0.6c-0.2,0-0.4,0.2-0.4,0.4c0.1,0.5,1.4,0.1,1.5,1
			c0,0.5-0.4,0.8-0.8,0.9c-0.4,0-0.6-0.1-0.7-0.1c-0.1,0-0.2,0.1-0.3,0.2l0,0L52.2,77.5"/>
	</g>
	<g id="path422">
		<path d="M54.7,78.1L54.7,78.1c0.2,0,0.3-0.2,0.3-0.4l-0.3-1.6c0-0.2-0.1-0.3-0.4-0.3l0,0l1.2-0.2l0,0c-0.3,0-0.3,0.2-0.3,0.4
			l0.3,1.6c0,0.2,0.1,0.3,0.4,0.3l0,0L54.7,78.1"/>
	</g>
	<g id="path424">
		<path d="M57.1,75.2c0.6-0.1,1.3,0.3,1.5,0.9s-0.3,1.3-0.9,1.5c-0.6,0.1-1.3-0.3-1.5-0.9C56.1,76.1,56.5,75.4,57.1,75.2z
			 M57.6,77.5c0.4-0.1,0.5-0.5,0.3-1.2c-0.2-0.6-0.4-1-0.8-0.9c-0.4,0.1-0.5,0.5-0.3,1.2C57,77.2,57.2,77.6,57.6,77.5"/>
	</g>
	<g id="path426">
		<path d="M61.3,76.6c-0.1,0-0.2,0.1-0.2,0.1c-0.3,0.1-0.5,0-0.7-0.4c-0.1-0.4-0.2-0.5-0.6-0.4l0.2,0.7c0.1,0.2,0.2,0.4,0.4,0.3l0,0
			l-1.2,0.4l0,0c0.2-0.1,0.3-0.3,0.2-0.4l-0.5-1.6c0-0.2-0.2-0.3-0.4-0.2l0,0l1.2-0.4c0.6-0.2,0.9,0,1,0.3c0.1,0.4-0.3,0.7-0.6,0.8
			l0,0c0.4-0.1,0.6,0.1,0.7,0.3c0.2,0.3,0.2,0.4,0.3,0.4C61.6,76.3,61.6,76.5,61.3,76.6L61.3,76.6L61.3,76.6L61.3,76.6z M59.8,75.7
			c0.4-0.1,0.6-0.3,0.4-0.6c-0.1-0.3-0.3-0.4-0.5-0.3c-0.1,0-0.2,0.1-0.2,0.3L59.8,75.7"/>
	</g>
	<g>
		<path fill="#FFFFFF" d="M48.1,38c0.2-0.1,0.3-0.2,0.5-0.2c0.4,0,0.7,0.2,1.1,0.5c0.1,0.1,0.2,0.3,0.3,0.4c0.1,0.2,0.2,0.5,0.5,0.6
			c-0.4,0-1.2,0.1-1.6,0c-0.4-0.1-0.6-0.4-0.7-0.7c-0.1-0.1-0.2-0.3-0.3-0.4l-0.1-0.1C47.9,38.1,48,38,48.1,38z"/>
		<path fill="#FFFFFF" d="M54.7,37.3c0.5-0.7,0.7-1.5,0.7-2.4C55.4,35.7,55.2,36.6,54.7,37.3z"/>
		<path fill="#FFFFFF" d="M52.4,39.3L52.4,39.3C52.3,39.3,52.3,39.3,52.4,39.3C52.3,39.3,52.4,39.3,52.4,39.3z"/>
		<path fill="#FFFFFF" d="M52.7,30.7L52.7,30.7c1.7,0.8,2.7,2.4,2.7,4.2C55.4,33.1,54.4,31.4,52.7,30.7z"/>
		<path fill="#FFFFFF" d="M49.8,30.7L49.8,30.7c0.5,0.1,1,0.1,1.5,0.2v-0.1C50.9,30.7,50.3,30.6,49.8,30.7z"/>
	</g>
	<g>
		<path fill="#0077C8" d="M43.9,39C43.9,38.9,43.9,38.9,43.9,39c0-0.2-0.5-0.1-0.5-0.1c-0.2,0.1-0.5,0.1-1.1,0.3
			c-0.6,0.1-0.8,0.2-1.2,0.5c-0.4,0.3-3,2-3.9,2.5c0-0.1-0.1-0.6-0.1-0.6L34.9,38H35c0-0.1-2.2-5.6-2.4-6c-0.3-0.4-0.5-0.4-0.9-0.4
			h-0.1c-0.5,0-0.7,0.2-0.8,0.4c-0.1,0.2-0.3,0.7-0.3,0.7c0,0,0,0,0,0c0,0-0.1,0-0.1,0.1v0.1c-0.1,0.1-0.1,0.1-0.1,0.1s0,0-0.3,0.1
			c-0.3,0.1-0.2,0.2-0.3,0.4c-0.1,0.2,0,0.3-0.1,0.6c-0.1,0.4,0,1,0,1s-0.2,0.2-0.7,0.7s-1.5,2.5-1.7,2.8c-0.3,0.4-0.7,1.2-1,1.9
			c-0.2,0.3-0.3,0.6-0.4,0.8l-0.3-3.4h-0.1c0.2-0.1,0.3-0.2,0.3-0.2c0.1-0.1,0.2-0.1,0.2-0.2c0-0.1,0-0.1-0.1-0.2c0.1,0,0.1,0,0.1,0
			c0.1,0,0.1-0.1,0.1-0.1l-0.1-0.1c0.1,0,0.1-0.1,0.1-0.1c0-0.1-0.1-0.1-0.2-0.2l0.1-0.1c0.1-0.1,0-0.2,0-0.2c0,0-0.1-0.1-0.1-0.1
			c0,0,0,0,0,0c0.1-0.1-0.2-0.2-0.5-0.2l-0.1-0.8c0,0,0.1-0.1,0-0.2L25,34.3c0.6-0.4,0.9-0.7,1-1c0-0.1,0.1-0.2,0-0.3h-0.1
			c0-0.1-0.1-0.1-0.1-0.1h-0.4h-0.1c-0.4,0-0.4-0.1-0.4-0.1s0,0,0,0c0-0.1,0-0.2-0.1-0.3c0-0.1-0.2-0.8-0.3-0.8c0-0.1,0-0.3,0-0.5
			c0-0.1,0-0.1,0-0.2c0.1-0.1,0.2-0.2,0.3-0.3c0.1-0.1,0.1-0.2,0.2-0.3c0.1-0.3,0.1-0.2-0.2-0.2c0,0-0.1,0-0.1,0
			c-0.2-0.1-1.5,1.3-1.4,1.6c-0.2,0.4-0.1,1.6,0,1.8c-0.1,0.4-0.2,0.6-0.2,0.9h0.1c0,0.1,0.1,0.1,0.2,0.1h0.1c0,0.1,0.1,0.1,0.2,0.1
			c0.2,0,0.6-0.1,0.8-0.3l0.1,0.7c0,0-0.1,0.1-0.1,0.1c-0.2,0.3-0.2,0.6-0.3,0.9c-0.1,0.3-0.2,0.9-0.5,1.4c-0.3,0.5-0.1,1.7,0.2,3.6
			c0,0.1,0,0.2,0,0.3c0.1,0.9,0.6,2.3,0.6,2.3c0.3,0.6,0.6,1.1,1,1.3c0,0.1,0,0.2,0,0.3h0l-1.8,12.4c0,0,0,0,0,0l0,0.1
			c0,0.1,0,0.3,0.5,0.4c0,0.7-0.2,2.9-0.3,3.5c0,0,0,0,0,0c0,0,0,0.1,0,0.1c0,0,0,0.1,0.1,0.1c0.1,0.1,0.2,0.2,0.4,0.3
			c-0.1,0.3-0.4,2.3,0.2,3.5c-0.1-0.2-0.2-0.4-0.2-0.7c0,0,0,0,0,0c0.1,0.3,0.2,0.6,0.3,0.8c0,0-0.1-0.1-0.1-0.1
			c0.1,0.2,0.2,0.3,0.3,0.4c0.8,1,1.4,2.1,1.9,2.4c0,0,0,0,0,0c0.1,0.1,0.7,0.1,0.8,0.2c0,0.1,0.1,0.2,0.2,0.3H28
			c0.1,0,0.8,0.3,0.9,0.3c0.1,0,1-0.4,1.3-0.6c0.2-0.2,1-0.3,1.2-0.2c0.1,0.1,0.3,0.1,0.4,0.1c-0.1,0,3.5,1.2,4.3,1.2
			c0.2,0,0.4,0,0.5,0c0.1,0.1,0.4,1,0.7,1.6c0.2,0.5,0.6,0.5,0.6,0.5s0.3-0.2,0.8-0.2c0.6,0,1.1,0,1.1,0c0.3,0.1,0.5,0.1,0.7-0.2
			c0.1-0.1,0.1-0.1,0.2-0.2c0,0,0-0.1,0-0.1c0-0.1,0.2-1.4,0.2-1.5c0-0.1-1.3-1.2-1.4-1.2c0.1,0-1.5-1.5-1.7-1.4
			c-0.1,0-0.2,0.2-0.2,0.3c-0.1,0-0.9-0.3-1.1-1.9c0-0.2,0-0.5-0.1-0.7c0-0.9,0-1.9,0-2.9c0-0.7,0-1.5,0-2.2
			c0-2.4,0.3-15.6,0.3-15.7h-0.1c0-0.2,0-0.4,0-0.4l-0.1-0.1c0,0,0,0,0,0c0.2,0.1,0.5,0.3,0.7,0.4c0.2,0.1,0.3,0.1,0.4,0.1
			c0.1,0,0.2,0,0.4,0c0.1,0,0.1-0.1,0.2-0.1c1-0.5,2.1-1.8,2.7-2.7c0.2-0.3,0.4-0.6,0.5-0.7c0,0,0,0,0,0c0.2-0.2,0.3-0.2,0.5-0.2
			c0.1,0,0.2,0,0.3,0c0.1,0,0.9,0.2,1,0.1v-0.1c0.1-0.1-0.1-0.3-0.4-0.4c-0.1,0-0.2-0.1-0.2-0.1c0.2,0,0.5-0.1,0.7-0.2
			c0.1-0.1,0.2-0.1,0.3-0.1c-0.1,0.2-0.1,0.3,0,0.4c0.1,0,0.1,0,0.1,0c0.1,0,0.1,0,0.2-0.4c0.1,0,0.3,0.2,0.5,0.3c0,0,0.1,0.1,0.1,0
			c0.1,0,0.1,0,0.1-0.1c0-0.1-0.1-0.3-0.2-0.3C44.3,39.3,44,39.1,43.9,39z M24.3,58.2C24.1,58.1,24,58,24,58
			C24,58,24.1,58.1,24.3,58.2C24.3,58.1,24.3,58.1,24.3,58.2z M36.8,49.5c0,0.9-0.1,3.2-0.2,3.6C36.6,52.6,36.8,50.3,36.8,49.5z
			 M36.3,57c0,0.6,0,1.1,0,1.7C36.3,58.2,36.3,57.6,36.3,57z"/>
		<g>
			<polygon fill="#F2A900" points="56.4,39.1 56.4,39.1 56.4,39.1 			"/>
			<path fill="#F2A900" d="M65.4,68.9c0,0-0.1,0.1-0.4,0.4c0.3-0.2,0.4-0.3,0.4-0.3V68.9z"/>
		</g>
	</g>
</g>
<g>
	<path opacity="0.2" enable-background="new    " d="M10.4,74.3V25.8c0-12.1,8.2-22.7,19.8-25.8H0v100h30.2
		C18.5,96.9,10.4,86.3,10.4,74.3z"/>
	<path opacity="0.1" fill="#FFFFFF" enable-background="new    " d="M89.6,25.8v48.5c0,12.1-8.2,22.7-19.8,25.8H100V0H69.8
		C81.5,3.1,89.6,13.7,89.6,25.8z"/>
</g>
<g>
	<path fill="#FFD9EE" d="M61.2,21.7c-0.1,0-0.1,0-0.2,0h-0.1c0-0.1,0-0.1,0-0.1c-0.3,0.1-6.9,0.8-7.6,1c-0.4,0.1-0.4,0.3-0.5,0.6
		c-0.1,0.3-0.1,0.8-0.7,1.4c-0.3,0.3-1.4,0.1-1.6,0c0,0,0,0,0,0c-0.1,0-0.1,0-0.1,0c0,0-0.3-1-0.4-1.2h0.2h0.1v-0.1L50,22.8l0.2-0.1
		c0,0,0,0-0.1,0l0.2-0.1c0,0,0,0-0.1,0l0.1-0.1l-0.1-0.1c0,0-0.2-0.1-0.8-0.4c-0.3-0.1-0.5-0.3-0.6-0.3c0,0-0.2,0-0.3,0
		c-0.1,0-0.1,0-0.2,0c-0.1,0-0.2,0-0.2,0L47.7,22c-0.3,0-0.5,0.2-0.5,0.3l0.1,0.1c-0.1,0.1-0.1,0.2-0.1,0.2v0.1h0.1
		c-0.1,0.1-0.1,0.2-0.1,0.2s0.4-0.2,0.7-0.1c0.3,0.1,0.5-0.1,0.6,1.4c0,0.4-0.8,1-1.3,1c-0.1,0-0.1,0-0.2,0
		c-0.4-0.1-0.8-0.3-0.6-0.2c-0.2-0.1-0.3-0.3-0.4-0.7c-0.1-0.1-0.1-0.3-0.1-0.4c-0.1-0.3-0.1-0.5-0.3-0.8l0-0.1L45.4,23
		c0,0,0,0-0.1-0.1c0,0,0,0,0.1,0.1l-1.1-0.5l-7-1.7l0,0.1c-0.1,0-0.1,0-0.1,0H37V21c0.1,0,0.1,0.1,0.1,0.2c0,0,0,0.3,0.5,0.6
		c0.3,0.2,0.5,0.4,0.6,0.5c0,0,1.1,1.2,1.3,1.4c0.1,0.2,0.8,0.9,1,1.1c0.1,0.1,0.2,0.1,0.3,0.1c0,0.1,0,0.1,0,0.2
		c0,0.1,3.2,2.7,3.2,2.7l0.2,0.3l0.5,0.1c0,0,1,0.6,1.7,0.8c0.7,0.2,0.4,0.4,1.2,0.1c0.4-0.1,0.5-0.2,0.6-0.2c0,0,0,0,0.1,0V29
		c0.1,0.1,0.1,0.2,0.2,0.4c0,0.1,0.5,1.1,0.8,1.1c0,0.2,0,0.4-0.2,0.5c-0.3,0-0.5,0.1-0.5,0.4v0.2l0.8-0.1c0.2-0.1,0.2-0.2,0.3-0.1
		c0.1,0.1,0.3,0.1,0.3,0.1h0.1L50,31.4c0-0.1,0-0.1,0-0.2c0-0.1,0-0.1,0.1-0.1c0.2-0.1,0.7-0.1,0.7-0.1v-0.1c-0.2,0-0.4-0.1-0.4-0.2
		c-0.1-0.1-0.1-0.2-0.1-0.2s0.7,0.1,0.6,0.3c0,0,0.4-0.1,0.4,0.2c0,0.2,0,0.3,0,0.3s0.1-0.1,0.2-0.1c0,0,0.1,0,0.2,0.1
		c0,0,0,0,0.1,0c0.2,0.1,0.3,0.2,0.3,0.2s0.1-0.2-0.1-0.4c0,0,0-0.1-0.1-0.1c-0.2-0.3-0.3-0.4-0.4-0.4c0,0,0,0,0.1,0
		c0.1,0,0.2-1.1,0.2-1.2c0-0.1,0-0.1,0-0.1c0.1,0,0.4,0,0.6-0.1c0.2,0,0.4,0,0.5,0c0.3,0,2.6-1.6,2.6-1.6h0.1l0.1-0.2l0.9-1.1
		l0.3-0.1L56.8,26h0.3v-0.1L57,25.6c0,0,1.2-1.1,1.4-1.5c0.2-0.4,1.3-1.1,1.6-1.2c0.2,0,0.3-0.1,0.5-0.2
		C61.1,22.4,61.3,21.8,61.2,21.7L61.2,21.7L61.2,21.7z"/>
	<path fill="#FFD9EE" d="M52.6,31.4l0.1,0.1v-0.1c0,0,0.1-0.4-0.3-0.6c-0.3-0.1-0.6-0.2-0.6-0.2s0.1,0.1,0.4,0.2
		c0.2,0.1,0.2,0.3,0.2,0.4c-0.1,0-0.2-0.1-0.3-0.1H52c0,0,0.1,0,0.3,0.1C52.5,31.3,52.6,31.4,52.6,31.4z"/>
</g>
<path fill="#2C5234" d="M61,49.6c0-1.4,0.7-2.6,1.8-3.3l0.4-0.3l-1-1.7c-2.2-0.3-4-2.1-4.6-4H50h-7.7c-0.6,2.1-2.4,3.8-4.6,4
	L36.8,46l0.4,0.3c1.1,0.7,1.8,1.9,1.8,3.3c0,1.2-0.6,2.3-1.5,3.1l-0.4,0.4v11.3c0,0.7-0.1,1.5,1.2,2.2c1.2,0.7,11.7,6.8,11.7,6.8
	s10.5-6,11.7-6.7s1.2-1.5,1.2-2.2V53.1l-0.4-0.4C61.6,52,61,50.9,61,49.6z"/>
<path fill="#F2A900" d="M80.1,46.9L78.8,42l-0.1-0.3v-0.2c0,0-0.1,0-0.2,0v-0.1l0,0l0-0.1l0,0v-0.1c0,0-2-0.1-3.2-0.2
	c0-0.1,0-0.2,0-0.3c0.1-1,0-1.9-0.1-2.1c0-0.1-0.1-0.2-0.1-0.3c0,0,0,0,0,0c0-0.1,0-0.1-0.1-0.2c0,0,0,0,0,0C75,38,75,38,74.9,37.9
	c0,0,0,0-0.1-0.1c-0.1-0.1-0.1-0.2-0.2-0.2v-0.4c0.1,0,0.1-0.1,0.1-0.1c0,0,0,0,0-0.1c0-0.2-0.1-0.3-0.3-0.3c0,0-0.1,0-0.1,0
	c-0.1,0-0.1,0.1-0.1,0.1c0,0-0.1,0.1-0.1,0.2c0,0.1,0,0.2,0.1,0.2v0.3c-0.1,0-0.3,0-0.5,0c-0.1,0-0.2,0-0.2,0.1
	c-0.1,0.1,0,0.2,0.1,0.3V38c0,0.1,0.1,0.2,0.2,0.2c0,0.1,0.1,0.3,0.1,0.5c0.1,0,0.1,0.1,0.1,0.1l-0.1,2.1h0c0,0,0,0.1,0,0.1
	c-0.1,0-0.2,0-0.3,0c-0.2-0.3-0.3-0.6-0.4-0.9c-0.2-0.7-0.4-0.9-0.5-1.2c-0.1-0.3-0.7-0.5-1.2-0.7c0.2-0.1,0.1-0.2,0-0.6
	c0.1-0.1,0.1-0.2-0.1-0.6c-0.1-0.4-0.2-0.4-0.5-0.6c0,0-0.1-0.1-0.1-0.1c0,0,0-0.1,0-0.1c0,0,0-0.2,0-0.3c0-0.5-0.1-0.8-0.2-1.1
	c-0.1-0.2-0.2-0.4-0.3-0.7c0,0,0,0,0-0.1c0-0.1,0-0.1,0-0.1h-0.1c0-0.1,0-0.1,0-0.2h0v-0.1c0,0,0,0,0,0c0.1,0,0.1,0,0.1,0
	s0.1-0.2,0-0.4c0-0.1,0-0.1-0.1-0.1C70,33,69.8,33,69.7,32.9l0,0c0.2,0.1,0.3,0.1,0.5,0.2h0.1c-0.1-0.3-0.2-0.4-0.4-0.5
	c-0.1,0-0.1-0.1-0.2-0.1c-0.3-0.3-0.6-0.3-0.9-0.3c-0.4,0-0.6,0.3-0.8,0.5c-0.1,0.1-0.2,0.3-0.2,0.4c0,0,0,0,0,0s-0.1,0.1-0.2,0.1
	s-0.1,0.1-0.1,0.2c0,0.1,0,0.2,0,0.3c0,0,0,0,0,0c-0.2,0.1-0.3,0.3-0.5,0.6c-0.2,0.3-0.2,0.6,0,0.9c0,0.1,0,0.2,0.1,0.3
	c0,0.1-0.2,0.1-0.4,0.3c-0.3,0.2-0.4,0.8-0.6,1c-0.1,0.1,0,0.2,0.1,0.3c-0.1,0.1-0.1,0.2,0,0.2c0,0,0,0,0,0c0,0,0,0,0,0.1
	c0,0,0,0,0,0c0,0,0,0,0,0.1c0,0.1,0,0.1,0,0.2c0,0-0.1,0.1-0.1,0.1c-0.1,0.2-0.1,0.2,0,0.2l0,0.1c-0.4,0.1-0.7,0.3-0.9,0.5L64.6,39
	c-0.1,0.1-0.3,0.3-0.6,0.4c-0.3,0.1-0.3,0.4-0.4,0.9c0,0.1,0,0.2,0,0.3c0,0.1-0.1,0.2-0.1,0.3c-0.2,0.1-0.4,0-0.7,0.2
	c-0.4,0.3-0.5,0.6-0.5,0.6c0,0,0,0,0,0c-0.3-0.3-0.9-0.7-1.4-1.2c-0.1-0.1-0.2-0.2-0.3-0.2c-0.8-0.8-1.2-1-1.6-1.5
	c-0.2-0.2-0.5-0.4-0.8-0.5c0,0,0,0,0.1,0c0.2,0,0.3,0,0.4-0.1c0-0.1,0-0.1,0-0.2c-0.1-0.1-0.1-0.1-0.2-0.2c0,0,0,0,0,0
	c0,0,0,0,0-0.1c0,0-0.1-0.1-0.3-0.1h-0.7l-0.2-11v-0.1h-0.1l0-0.1h-0.1H57l-0.2,11.2H56c-0.3,0.1-0.5,0.3-0.2,0.4
	c0,0-0.1,0.1-0.1,0.1c0,0,0.1,0.2,0.4,0.2c0.1,0.1,0.1,0.2,0.1,0.4c0,0.2,0,0.4,0.2,0.4c0,0,0,0,0,0c0,0,0,0,0,0c0,0,0,0,0,0
	c0,0,0,0,0,0c0,0,0,0,0,0c0.1,0.1,0,0.1,0,0c0,0.2,0,0.4,0.2,0.4c0.1,0,0.2,0,0.3,0c0,0.1,0,0.4,0,0.5c0,0.1,0,0.1,0.1,0.1
	c0,0,0,0,0,0c0,0,0.1,0,0.1,0c0,0,0,0,0,0l0,0c0,0,0,0,0,0l0,0c0,0,0,0,0,0c0,0,0-0.1,0-0.1c0,0,0-0.1,0-0.1c0-0.2,0-0.4,0-0.4
	c0,0,0,0,0.1,0c0.1,0.1,0.3,0.1,0.4,0.2c0.3,0.1,0.4,0.1,0.5,0.1c0.2,0,0.2,0,0.4,0.2c0.1,0,0.2,0.2,0.4,0.5c0.7,1,2,2.8,2.8,3.3
	L62,44l0.4,0.1c0.1,0.1,0.2,0.1,0.4,0.2c0.1,0.5,0.4,1.4,0.4,1.4c0,0,0,0,0,0l0,0.1c0,0,0,0,0,0.1l0,0c0,0,0,0,0,0c0,0,0,0,0,0.1
	c0,0,0,0.1,0.1,0.2l0,0h-0.1c0,0,0.2,0.5,0.2,0.8c0,0.1,0,0.2,0,0.3c0.1,0.2,0.1,0.5,0,0.9c0,0.5,0,2.6,0,4.8l-0.2,9.7
	c0,0.8-0.1,1.5-0.1,1.8c-0.1,1.1-0.2,1.7-0.6,2.2v0.1c-0.4,0.5-0.5,0.6-0.6,1c-0.1,0.4-0.2,0.4-0.5,0.6c-0.3,0.2-0.5,0.4-0.4,0.5
	c0.6,0,1.6,0,1.9,0c0,0.1-0.1,0.3-0.1,0.4c0,0.1,0.1,0.2,0.2,0.3c0.1,0.1,0.1,0.1,0.2,0.2c0.1,0.1,0.3,0.2,0.4,0.3c0,0,0.1,0,0.1,0
	c0,0,0,0,0,0c0,0,0,0,0,0c0,0,0,0,0,0c0,0,0.1,0,0.1,0c0,0,0,0,0.1,0c0,0,0.1,0,0.1,0c0,0,0.1-0.1,0.2-0.2c0.2-0.1,0.3-0.2,0.4-0.3
	c0.3-0.2,0.7-0.5,0.9-0.6l3.3,0.2c0,0,0.2,0,0.3-0.1l0,0c0.1,0,0.1,0.1,0.3,0.2c0.6,0.5,0.9,0.6,1.4,0.6c0,0,0.1,0,0.2-0.1
	c0,0,0,0,0,0c0,0,0,0-0.1,0c0.1,0,0.1,0,0.2,0c0,0,0,0-0.1,0c0.4,0,0.6-0.1,0.6-0.1l0,0c0.2,0,0.3-0.1,0.3-0.1L72,69.4
	c0.1-0.1,0.3-0.2,0.5-0.4c0.9,0,2.4,0,3.1,0c0,0-0.2-0.4-0.6-0.8s-0.4-0.6-0.6-1.8c-0.1-1.2-0.4-8.7-0.3-9.6c0-0.9,0.4-0.9,0.9-1.3
	c0.3-0.2,0.2-0.5,0-0.8c0,0,0-0.1,0-0.1c0,0,0,0,0-0.1c0-0.1-0.1-0.2-0.1-0.2c-0.1-0.5,0.4,0,0.3-0.6c-0.1-0.6-1-8.5-1-8.5l0,0
	l0-0.3c0.4-0.7,0.8-2.2,1-3.2l1.2,0l1.7,0.1L76.5,47c0.1,0.6,0.8,1.1,1.7,1.1c0.1,0,0.4,0,0.4,0c0.9,0,1.6-0.6,1.6-1.2L80.1,46.9z
	 M63.5,47.6l0,0.2c0,0.1,0,0.2,0,0.3C63.5,47.9,63.5,47.7,63.5,47.6z M63.5,48.3c0,0.6,0,2.1,0,3.7l0,0
	C63.5,50.4,63.4,48.8,63.5,48.3z M63.3,69.8c0,0,0.1,0,0.1,0.1c0,0,0.1,0.1,0.1,0.1C63.5,70,63.4,69.9,63.3,69.8z M63.7,40.5
	C63.7,40.5,63.7,40.4,63.7,40.5c0-0.2,0-0.3,0.1-0.3C63.7,40.3,63.7,40.4,63.7,40.5z M73.9,41.3c0,0-0.1,0-0.1,0
	c-0.1-0.1-0.1-0.1-0.2-0.2c0.1,0,0.2,0,0.3,0C73.9,41.2,73.9,41.2,73.9,41.3z M77,46.9l1.6-4.8l0.2,4.8C78.3,46.9,77.6,46.9,77,46.9
	z M79.9,46.9c-0.1,0-0.2,0-0.3,0c-0.2,0-0.4,0-0.6,0l-0.3-4.4l0,0l1.2,4.3V46.9z"/>
</svg>
