<?xml version="1.0" encoding="utf-8"?>
<!-- Generator: Adobe Illustrator 23.0.0, SVG Export Plug-In . SVG Version: 6.00 Build 0)  -->
<svg version="1.0" id="NJ_State_Seal_Color" xmlns="http://www.w3.org/2000/svg" xmlns:xlink="http://www.w3.org/1999/xlink"
	 x="0px" y="0px" width="100px" height="100px" viewBox="0 0 100 100" enable-background="new 0 0 100 100" xml:space="preserve">
<rect fill="#FFCA66" width="100" height="100"/>
<g id="Scroll_1_">
	<g>
		<path fill="#9BA7B9" d="M69.6,71.2L69.6,71.2L69.6,71.2L69.6,71.2z"/>
	</g>
	<g>
		<path fill="#9BA7B9" d="M28.3,71.1L28.3,71.1L28.3,71.1z"/>
	</g>
	<path fill="#2178B5" d="M72.4,71.3c0-0.2-0.1-0.4-0.3-0.6c-0.3-0.4-1.9-1.7-6.9-1.7c-1.4-0.1-2.8,0-4,0c-0.1,0-0.2,0-0.4,0
		c-0.4,0-0.7,0.1-1.1,0.1c-0.3,0-0.7,0.1-1,0.1c-0.1,0-0.2,0-0.3,0c-2.2,0.3-3.9,0.9-5.3,1.6c-0.6,0.3-1.1,0.7-1.5,1
		c-0.1,0.1-0.2,0.2-0.4,0.3c0,0,0,0-0.1,0.1c-0.8,0.7-1,1.3-1,1.4c0,0.2,0.3,0.6,0.4,0.7c-0.1,0.1-0.5,0.3-2.2,0.3h-0.1
		c-1.2,0-1.7-0.1-2-0.2l0.2-0.2c0-0.1-0.1-0.2-0.1-0.3c0.1-0.1,0.1-0.2,0.1-0.3c0-0.3-0.5-1.5-2.9-2.7c-1.5-0.8-3.7-1.4-6.6-1.7
		c-0.1,0-0.2,0-0.4,0c-0.3,0-0.7-0.1-1.1-0.1c-1.2-0.1-2.4-0.1-3.8,0c-0.3,0-0.7,0-1,0c-0.1,0-0.2,0-0.3,0c-0.2,0-0.4,0-0.5,0
		s-0.3,0-0.4,0s-0.3,0-0.4,0s-0.3,0-0.4,0s-0.2,0-0.3,0.1c-0.1,0-0.3,0-0.4,0.1c-0.1,0-0.1,0-0.2,0c-0.2,0-0.4,0.1-0.6,0.1
		c-0.1,0-0.2,0-0.3,0.1c-0.1,0-0.1,0-0.2,0.1c-0.1,0-0.2,0.1-0.3,0.1h-0.1c-0.9,0.3-1.7,1.3-1.8,1.4c0,0.1,0,0.1,0,0.2
		c0,0.5,0.7,0.9,1.2,1.8c0.5,0.8,0.9,1.9,1,2c0,0,0.1,0,0.2,0.1l0,0c0.2,0.1,0.5,0,0.6,0c0.2-0.1,0.5-0.2,0.5-0.3l-0.3-0.6
		c0.2-0.1,1.2-0.7,4.7-0.7c4.1,0,7.9,0.7,9.8,1.9l0.2,0.5c0,0-0.2,0.2-0.2,0.4l0,0c0,0,0,0,0,0.1s0.5,3,6.6,3c1.8,0,3.3-0.3,4.3-0.8
		c1.8-0.8,2.2-2,2.2-2.2c0-0.3-0.2-0.5-0.2-0.5l-0.3-0.3l-0.2-0.3v-0.1c1.9-1.2,5.6-1.8,9.8-1.8c0.2,0,0.2,0,0,0l0,0
		c4.2,0,4.5,1.3,4.5,1.3c0.1,0.2,0.3,0.3,0.5,0.3c0.1,0.1,0.5,0.1,0.6,0c0,0,0.3-0.6,0.4-0.7c0-0.1,0.1-0.2,0.1-0.2
		c0,0.1,0.1,0.2,0.1,0.2c0.5-1.2,0.9-1.8,1.6-2.6c0-0.1,0-0.1,0-0.2C72.3,71.6,72.4,71.5,72.4,71.3z"/>
	<g>
		<path d="M69.3,69.2L69.3,69.2L69.3,69.2L69.3,69.2L69.3,69.2z"/>
	</g>
	<g>
		<path d="M69.6,69.1L69.6,69.1L69.6,69.1L69.6,69.1L69.6,69.1z"/>
	</g>
	<g>
		<path d="M69.8,68.9L69.8,68.9L69.8,68.9L69.8,68.9L69.8,68.9z"/>
	</g>
	<g>
		<path d="M69.9,68.7L69.9,68.7L69.9,68.7L69.9,68.7L69.9,68.7z"/>
	</g>
	<g>
		<path d="M58.8,68.9L58.8,68.9L58.8,68.9L58.8,68.9L58.8,68.9z"/>
	</g>
	<g>
		<path d="M58.7,68.7L58.7,68.7L58.7,68.7L58.7,68.7L58.7,68.7z"/>
	</g>
	<g id="Leaves">
	</g>
	<g>
		<path d="M36.6,69.6L36.6,69.6L36.6,69.6L36.6,69.6L36.6,69.6z"/>
	</g>
	<g>
		<path d="M26.7,69.5L26.7,69.5L26.7,69.5L26.7,69.5L26.7,69.5z"/>
	</g>
	<g>
		<path d="M26.6,69.3L26.6,69.3L26.6,69.3L26.6,69.3L26.6,69.3z"/>
	</g>
</g>
<g>
	<path fill="#2178B5" d="M48.7,72.3h-0.2v-0.1c-0.1-0.6-1.5-1.6-5-2.6c-3.6-1.1-5-3.3-5.8-5c-0.9-2.1-1-5-0.3-7.4
		c1.4-4.3,1.3-5.8,1.3-5.8c0.1-1.5-1.6-4.6-1.7-4.6v-0.1l3.6-3.3h0.1c0,0,1.6,0.8,2.9,0.8c1.3,0,4.8-0.9,4.8-0.9l0,0h0.4
		c0,0,3.5,0.9,4.8,0.9s2.9-0.8,2.9-0.8h0.1l3.6,3.3v0.1c0,0-1.7,3.1-1.7,4.6c0,0,0,1.6,1.3,5.8c0.8,2.4,0.7,5.3-0.3,7.4
		c-0.8,1.8-2.2,4-5.8,5C50.2,70.7,48.8,71.6,48.7,72.3L48.7,72.3z"/>
</g>
<g>
	<g>
		<path fill="#B58C58" d="M55.9,54.3L55.9,54.3L55.9,54.3z"/>
		<path d="M55.9,54.4C55.9,54.4,55.9,54.3,55.9,54.4L55.9,54.4C55.9,54.3,55.9,54.3,55.9,54.4L55.9,54.4L55.9,54.4L55.9,54.4
			L55.9,54.4z"/>
	</g>
</g>
<g>
	<path d="M52.2,65.7L52.2,65.7C52.2,65.7,52.3,65.6,52.2,65.7C52.2,65.6,52.2,65.7,52.2,65.7z"/>
</g>
<g>
	<g>
		<path fill="#B58C58" d="M55.9,61.3L55.9,61.3L55.9,61.3z"/>
		<path d="M55.9,61.3L55.9,61.3L55.9,61.3L55.9,61.3L55.9,61.3L55.9,61.3L55.9,61.3L55.9,61.3z"/>
	</g>
</g>
<g>
	<path d="M35.9,58.7l-0.1-0.1C35.8,58.7,35.9,58.7,35.9,58.7z"/>
</g>
<path fill="#5F2A2B" d="M54.5,26.7c-0.1,0.2,0,0.4-0.2,0.4c-0.1,0-0.1,0-0.2-0.3c-0.1-0.3,0.1-0.8,0-1.6c-0.1-0.8-0.5-1.1-0.5-1.1
	c0-0.2,0-0.3,0-0.5v-0.1c-0.1-0.5-0.2-0.7-0.3-0.9c0-0.1,0-0.1-0.1-0.1c0.2-0.2,0.2-0.6,0.1-0.6c0,0.1-0.1,0.1-0.3,0.1
	s-0.7-0.6-0.9-0.8c-0.2-0.2-1-0.7-1-0.7c0.3-0.3,0.1-0.7,0-0.8c-0.1-0.1-0.4-0.2-0.4-0.1c0,0,0,0.1,0.1,0.1c0,0.1-0.1,0.2-0.2,0.3
	c-0.2,0.1-0.6,0.1-0.7,0c0,0,0,0,0,0.1c-0.1,0-0.3-0.1-0.3-0.1c-0.3-0.1-0.6,0-0.8,0c-0.1,0-0.1,0-0.2-0.1c-0.1-0.3-0.3-0.5-0.3-0.6
	h-0.1c-0.2-0.3-0.4-0.6-0.5-0.8c-0.1-0.1-0.2-0.1-0.2,0s0,0.8-0.1,0.8C47.3,19,47,18.7,47,18.7l0,0c-0.1-0.1-0.2-0.2-0.2-0.2
	c-0.1,0-0.3,1-0.3,1.3c0.1,0.3,0.2,0.6,0.1,0.7c0,0-0.1,0-0.3,0c-0.1,0-0.1,0-0.2,0l0,0H46c-0.2,0-0.6,0.1-0.8,0.4s-0.3,0.3-0.5,0.2
	c-0.2-0.1-0.1-0.3-0.2-0.2c-0.1,0.1,0.1,0.3,0.2,0.4c0.1,0.1,0.6,0,0.6,0s0,0.1,0.1,0.1s0.2-0.2,0.3-0.2c0.1,0.1,0.3,0.1,0.3,0.1
	s-0.2,0.1-0.7,0.6c-0.6,0.4-0.5,0.5-1.1,1c-0.7,0.6-1.1,0.8-1.5,1.2c-0.4,0.5-0.7,0.8-0.6,1c0.1,0.2,0.4,0.3,0.4,0.4s0,0.1,0,0.2
	c0,0.2,0.2,0.5,0.4,0.5c0.4,0,0.6-0.3,0.7-0.4c0.1-0.1,0.6-0.3,0.7-0.3c0.1-0.1,0.3-0.1,0.1,0c-0.1,0-0.7,0.3-0.8,0.4
	s-0.1,0.4-0.1,0.5c0.1,0.3,0.2,0.1,0.4,0.1c0.1,0,0.1,0.1,0.6,0c0.3-0.1,0.4-0.5,0.4-0.5c0.1,0,1.6-0.7,1.8-0.7
	c0.1,0.1,0.4,0.1,0.7,0.2s0.9,0.1,0.9,0.1c0,0.3-1.5,1.3-1.7,1.5c-0.1,0.2-1,0.9-1.5,1.8s-0.5,2.2-0.5,2.2s0.1,0,0.2-0.1
	c0,0.1,0,0.1,0,0.1s0.3-0.1,0.4-0.1c0.1,0,0.1,0,0.5-0.2s0.8-0.1,0.8-0.1c0.4-0.1,0.4-0.2,0.7-0.2s0.8,0.1,0.8,0.1
	c0.2-0.1,0.6-0.3,0.8-0.2c0.2,0.1,0.6,0.2,0.6,0.2c0.1-0.1,0.2-0.1,0.6-0.1s0.9,0.4,0.9,0.4c0.3-0.3,0.9,0,1.1,0
	c0.1,0,0.2-0.1,0.2-0.1l0,0c0,0,0.2,0.5,0.7,0.5s0.8-0.3,0.9-0.4c0.1,0,0.2,0.2,0.2,0.2s0,0,0-0.3s-0.2-0.4-0.3-0.4
	s-0.4,0.1-0.5,0.1S53,30.2,53,30.2c0.4,0.1,0.5,0.1,0.8-0.1s0.4-0.7,0.4-0.8c0.1-0.1,0.2,0,0.2-0.1S54.3,29,54.2,29
	c0,0-0.2,0-0.5,0.2c-0.1,0.1-0.2,0.2-0.3,0.2c0,0-0.1,0-0.1-0.1c0,0,0,0,0-0.1l0,0c0-0.1,0-0.3,0.1-0.4c0,0,0-0.2,0.1-0.5
	c0-0.1,0.1-0.1,0.1-0.2s0.1-0.1,0.1-0.2v-0.1c0-0.1,0.1-0.1,0.1-0.2l0,0c0.1,0,0.2,0.1,0.4,0s0.4-0.3,0.4-0.4
	C54.5,27.1,54.5,26.9,54.5,26.7c0.1,0,0.2,0.1,0.2,0S54.6,26.6,54.5,26.7z M50.7,20.2c0.1,0,0.1-0.1,0.1-0.1l0,0L50.7,20.2z
	 M50.9,19.9L50.9,19.9L50.9,19.9L50.9,19.9z"/>
<g>
	<path opacity="0.2" enable-background="new    " d="M10.4,74.3V25.8c0-12.1,8.2-22.7,19.8-25.8H0v100h30.2
		C18.5,96.9,10.4,86.3,10.4,74.3z"/>
	<path opacity="0.1" fill="#FFFFFF" enable-background="new    " d="M89.6,25.8v48.5c0,12.1-8.2,22.7-19.8,25.8H100V0H69.8
		C81.5,3.1,89.6,13.7,89.6,25.8z"/>
</g>
<g>
	<g>
		<g>
			<path fill="#5C9243" d="M61,60.7L61,60.7C61,60.8,61,60.8,61,60.7C61,60.8,61,60.8,61,60.7z"/>
			<path fill="#D0202E" d="M77.8,38c0,0-0.5,0-0.6,0.1V38c0.1,0,0.1-0.1,0.1-0.2c0,0,0-0.1-0.1-0.1c0.4,0.1,0.5,0,0.5-0.2
				c0-0.1-0.1-0.2-0.2-0.3c0.1,0,0.1-0.1,0.1-0.2s0-0.2-0.1-0.2c0.1,0,0.1-0.1,0.1-0.2c0-0.2-0.1-0.3-0.3-0.3
				c-0.1,0-0.2,0.1-0.2,0.2l0,0L77,35.3c-0.1,0-0.4,0.2-0.4,0.2s-0.2,0.1-0.3,0.2c0-0.1-0.2-0.6-0.2-0.6c0-0.1-0.3,0.2-0.3,0.2
				L75.4,35c0,0-0.5,0.9-0.5,1l-0.2-0.8c0,0-0.2,0.2-0.5,0.4c-0.1-0.2-0.1-0.4-0.1-0.4s-0.3,0.3-0.4,0.4c0-0.1,0-0.2,0-0.2
				s0,0-0.1,0.1c0-0.1-0.2-0.7-0.2-0.7s-0.4,0.4-0.5,0.4l-0.3-0.4c0,0-0.1,0.3-0.3,0.6c-0.1-0.1-0.1-0.3-0.1-0.2
				c0,0-0.4,0.7-0.3,0.8c-0.1,0-0.4-0.1-0.5-0.2c-0.1-0.1-0.2-0.3-0.2-0.3v0.1v0.8c-0.2,0-0.5,0.3-0.5,0.3c-0.1,0.1,0.4,0.2,0.4,0.3
				c-0.1,0-0.7,0.1-0.7,0.1l0.5,0.6c-0.1,0-0.2,0.1-0.3,0.1c-0.1-0.1-0.2-0.2-0.4-0.2c-0.1-0.2-1.1-1.2-1.6-1.3c0,0-0.1-0.5-0.3-0.6
				c0,0-0.1-0.2,0-0.3c0.1-0.6,0.1-1,0-1.1c0,0,0.2-1.3,0.2-1.4c0,0.1,0,0.1,0,0v-0.1c0,0,0-0.1,0-0.2c0-0.1,0.1-0.1,0.1-0.2
				c0.1-0.1,0-0.2,0-0.3c0,0-0.1-0.1-0.1-0.2s0-0.1,0-0.2v-0.1c0,0,0,0,0-0.1c0,0.1,0,0.2-0.1,0.2c-0.1-0.2-0.1-0.5,0-0.7
				c0,0.1-0.1,0.2-0.1,0.3c0,0,0,0,0-0.1c0-0.2-0.1-0.5-0.1-0.8c0,0.3,0,0.6-0.1,0.7c0-0.1,0-0.2-0.1-0.3c0-0.1-0.2-0.7-0.2-0.8
				c0,0.2,0,0.4,0,0.6c0-0.1-0.1-0.2-0.2-0.3c-0.1,0-0.3-0.4-0.4-0.8c-0.1,0-0.1,0-0.1,0c0,0.1,0,0.1,0,0.1c0.1,0.2,0.1,0.6,0.1,0.8
				c-0.1-0.1-0.4-0.3-0.6-0.6c-0.1,0-0.1,0-0.1,0c0,0.1,0,0.1,0,0.1c0.1,0.1,0.2,0.4,0.2,0.3c0.1,0.1,0.1,0.2,0.2,0.3v0.1v0.1
				c-0.2-0.1-0.5-0.2-0.7-0.2s-0.3,0-0.5,0s-0.3,0.1-0.4,0.1c0-0.1,0.2-0.4,0.4-0.7c0-0.1,0-0.1,0-0.1C65.6,30,65.6,30,65.6,30
				c-0.2,0.3-0.5,0.6-0.6,0.6c0-0.1,0-0.6,0.1-0.8c0-0.1,0-0.1,0-0.1c-0.1,0-0.1,0-0.1,0c-0.1,0.3-0.3,0.7-0.4,0.8
				c-0.1,0.2-0.2,0.3-0.2,0.3c0-0.1-0.1-0.2-0.1-0.4c0,0.1-0.1-0.2-0.1-0.4c0,0.2-0.2,0.8-0.2,1c0-0.2-0.1-0.4-0.1-0.4
				c0,0.3-0.1,0.6-0.1,0.8l-0.1,0.2c0-0.1-0.1-0.3-0.1-0.5c0,0.3-0.1,0.8-0.1,0.9c0,0.1-0.1,0.2,0,0.4c0,0.2,0,0.3,0.1,0.4v0.1
				c0,0,0.1,0,0.2,0V33c-0.1,0.1-0.1,0.2-0.1,0.3v0.1c0,0.1,0,0.2,0.1,0.4c0,0.1,0,0.5,0.2,0.7c0,0.1,0,0.4,0.1,0.6
				c0,0.1-0.2,0.3-0.3,0.7c-0.1,0.1-0.2,0.2-0.3,0.3s-0.2,0.2-0.3,0.3c-0.4,0.1-0.9,0.5-1.2,0.9l0,0c-0.1,0.1-0.2,0.2-0.3,0.4l0,0
				c-0.2,0.2-0.3,0.4-0.4,0.5l0,0l0,0c0,0,0,0,0,0.1c0,0,0,0-0.1,0c-0.3,0.4-0.7,2.9-1,4.2c0,0,0,0-0.1,0.1c-0.1,0-0.2,0.1-0.2,0.1
				c-0.1,0-0.1,0-0.2,0.1c-0.1,0-0.3,0.1-0.4,0.2c0,0-0.2,0.1-0.3,0c0,0-2.9-0.3-3.1-0.3c-0.1,0-0.2,0-0.3,0c-0.3,0-0.6-0.1-0.7-0.1
				c0,0-0.4,0-0.7,0.1c-0.7,0.2-1.3,0.4-1.4,0.5c0,0-0.8,0.6-1.1,0.8l0,0c-0.1,0-0.1,0.1-0.1,0.1l0,0c0,0-0.1,0-0.1,0.1
				c0,0,0,0.1,0.1,0.2c0.1,0.1,0.2,0.1,0.3,0.1c0.3,0,0.5-0.2,0.7-0.3c0.1,0,0.1-0.1,0.2-0.1c0.1,0,0.3,0,0.4,0
				c-0.1,0.1-0.3,0.2-0.3,0.3c0,0,0,0.1,0.1,0.1l-0.1,0.1v0.1c0,0,0.1,0,0.2,0c0.1,0,0.1,0,0.1,0c0.1,0,0.5-0.3,0.7-0.4
				c0.1,0,1,0,1.6-0.4c0.2,0,1.3,0.4,2.4,0.7c0.4,0.1,0.8,0.2,1.1,0.3c0.2,0,0.4,0.1,0.6,0.1c0,0,0,0.1,0,0.2l0,0
				c0,0.3,0.1,0.6,0.1,0.9c0.1,1.3,0.3,3.2,0.4,3.8c0,0.1,0,0.2,0.1,0.3c0,0,0,0.1,0.1,0.1l0,0l0,0h0.1c0,0,0,0-0.1,0
				c0,0,0,0.1,0.1,0.1c0,0,0.1,0,0.2,0v0.1c-0.1,0.5-0.2,2,0.1,2.5l-0.1,1.2c0,0-0.3,0.1-0.2,0.5c0,0.1,0,0.1,0,0.2
				c0,0.1,0.1,0.4,0.2,0.7c0.2,0.7,0.5,1.8,0.6,2c0,0.2-0.4,0.8-0.4,1c0,0,0,0,0,0.1l0,0l0,0c0,0.3,0.3,1.3,0.3,1.3l0,0
				c0-0.3-0.2-0.9-0.3-1.2c0,0.3,0.2,0.8,0.3,1.2c0,0-0.1,0.1-0.1,0.2c0,0,0,0.1-0.1,0.1v0.1c0,0.1,0,0.2,0,0.2l0,0
				c0,0.1,0,0.1,0,0.1l0,0l0,0l0,0c0,0,0,0,0,0.1l0,0l-0.8,4.1c-0.1,0.1-0.6,0.4-0.6,0.8l-0.1,0.9c-0.1,0.1-0.3,0.4-0.3,0.6
				c-0.1,0.1-0.3,0.2-0.4,0.4c-0.1,0.1-0.1,0.3,0,0.4c0.1,0,0.1,0,0.1,0s0.7,0,1.1,0.2l-1.3,0.4c0,0.1-0.1,0.3,0,0.5
				c0,0.1,0.1,0.1,0.3,0.2s0.4,0.2,0.8,0.1c0.2-0.1,0.3-0.2,0.5-0.4c0,0.2,0,0.2,0.1,0.3c0.1,0.1,0.4,0.2,0.9,0.1
				c0.1,0,0.1,0,0.2-0.1c0.1,0.1,0.4,0.3,1.1,0.3c0.1,0,0.2,0,0.3,0c0.4,0,0.6,0,0.7-0.4c0.1,0,0.2,0,0.3,0c0,0,0,0,0,0.1
				s0,0.2,0,0.2c0.1,0.2,0.5,0.2,0.7,0.2c0.3,0,1.2,0,1.4-0.3L66,69c0,0,0.1,0,0.2,0s0.2,0,0.2,0v0.3c0,0,0,0,0.1,0v0.1
				c0,0,0.1,0,0.2-0.1c0.2,0,0.4,0,0.6-0.1c0.1,0.2,0.2,0.3,0.3,0.3c0.1,0,0.1,0,0.1,0s0-0.1,0.1-0.1c0,0,0.7,0.1,1.1,0.2
				s0.6-0.1,0.8-0.2c0.2-0.2,0.2-0.2,0.3-0.3c0.1-0.1,0-0.3,0-0.4s-0.1-0.2-0.1-0.2l0.1-0.1c0,0,0.1-0.2-0.1-0.5s-0.4-0.3-0.5-0.3
				c0-0.2-0.1-1.2,0.1-2.2c0.1,0,0.1,0,0.3,0l0,0l0,0l0,0c0,0,0.1,0,0.1-0.1l0,0c0.2-0.2,0.6-0.9,1-2.5c0-0.1,0.2-0.5,0.2-0.6
				c0.1-0.5,0.1-1.1,0.1-1.1l0.3-0.6l0.1-0.2c0-0.1-0.4-2.2-0.4-2.7c-0.1-0.2-0.1-0.6-0.1-0.8c0.1,0.1,0.1,0.1,0.1,0.1h0.1
				c0-0.1,0.3-0.3,0.2-0.9c0-0.6-0.1-1-0.1-1s0.1-1,0-2c0.1-0.1,0.1-0.2,0.1-0.3s-0.1-0.2-0.1-0.4c0-0.3-0.1-0.6-0.1-0.9
				c0.2-0.6,0.9-1.9,1.3-2.9c0.5-1.3,0.7-1.8,0.8-2.1c0-0.3-0.1-0.9-0.1-1.1l-0.5-0.1c0.2-0.1,0.4-0.4,0.4-0.6
				c0.4-0.3,0.7-0.6,0.7-0.9v-0.1c0-0.1,0-0.1,0-0.1c0.2-0.1,0.3-0.1,0.3-0.1c0.3-0.2,0.5-0.6,0.4-1c0.2-0.2,0.6-0.5,0.4-1.1v-0.1
				c0-0.1,0-0.1,0-0.1c-0.1,0-0.1,0-0.1,0c0.1,0,0.1-0.1,0.2-0.2c0,0,0-0.1,0.1-0.1s0.2,0,0.2,0l0.1,0.5c0,0,0.1,0,0.2-0.2
				c0,0.2,0.1,0.3,0.3,0.3c0.2,0,0.3-0.1,0.3-0.3c0.1,0,0.2-0.1,0.2-0.3l0.3,0.2c0,0,0.1-0.2,0.1-0.4c0-0.1,0-0.3-0.1-0.5l0,0
				c0.2,0,0.3-0.1,0.3-0.3c0-0.1-0.1-0.2-0.1-0.2s0,0,0-0.1l0,0c0.2-0.1,0.5-0.4,0.5-0.4c0.1,0-0.4-0.3-0.4-0.3s0.4-0.3,0.5-0.4
				C77.6,38.4,77.8,38,77.8,38z M64,31.2v-0.1l0,0C64,31.1,64,31.1,64,31.2z M64.1,35.1L64.1,35.1L64.1,35.1L64.1,35.1z"/>
		</g>
		<path fill="#5C9243" d="M60.9,58.8L60.9,58.8L60.9,58.8z"/>
		<path fill="#5C9243" d="M69.3,36.8L69.3,36.8C69.3,36.8,69.3,36.8,69.3,36.8L69.3,36.8z"/>
		<path fill="#5C9243" d="M68.5,34.6L68.5,34.6L68.5,34.6z"/>
		<path fill="#5C9243" d="M69.7,37c-0.1-0.1-0.2-0.2-0.3-0.2c0,0,0,0.1,0.1,0.1C69.5,36.9,69.6,37,69.7,37z"/>
		<path fill="#5C9243" d="M75.5,41.4l-0.1-0.5C75.4,41,75.5,41.4,75.5,41.4z"/>
	</g>
</g>
<g>
	<path fill="#2178B5" d="M69.6,27.3c0.1-0.4,0.1-0.6,0-1c0,0,0,0,0-0.1c-0.2-0.4-0.4-0.7-0.7-0.8c-0.1-0.1-0.2-0.1-0.4-0.2l-2.7-3
		c0-0.1,0.1-0.1,0.1-0.2c0-0.2-0.1-0.2-0.2-0.2s-0.1,0.1-0.4-0.2c-0.3-0.3-0.5-0.5-0.9-0.4c-0.2,0-0.4,0.1-0.5,0.2h-0.2
		c0.1,0,0.1-0.1,0.2-0.1c-0.1,0-0.2,0-0.4,0.1L59.7,21l-2.4,0.6l0.1-0.1c0.1-0.1,0-0.2,0-0.2s-0.3,0-0.4,0.1c-0.2,0-0.3,0-0.4,0.2
		c0,0.2-0.1,0.3-0.1,0.5v0.1c-0.3,0.1-0.5,0.1-0.7-0.1c-0.1,0.3,0.4,0.4,0.6,0.4l-0.1,0.3l0,0c-0.4,0.4-0.8,1-1,1.1
		s-0.6,0.3-0.8,0.2c0.1,0.1,0.3,0.3,0.6,0.2c0.1,0,0.1,0,0.2,0c0,0.1,0.1,0.2,0.2,0.3l-0.1,0.1c-0.1,0.3-0.2,0.6-0.2,0.9
		c0,0.1,0,0.2,0,0.3c0,0.2,0,0.4,0.1,0.6c0.1,0.4,0.3,0.9,0.7,1.4c0,0.1,0.1,0.2,0.2,0.3c0.1,0.2,0.3,0.5,0.4,0.8c0,0,0,0-0.1-0.1
		c0-0.1,0-0.1-0.1-0.1s-0.1,0.1-0.1,0.1l-0.1-0.1c-0.1,0.1-0.1,0.4-0.1,0.5c-0.4,0.2-0.7,0.5-0.6,0.9c0.1,0,0.1-0.1,0.2-0.1
		c0,0.1,0,0.2,0,0.3c0,0.3,0.2,0.2,0.2,0.2c0-0.1,0.2-0.2,0.3-0.2c0.1,0.1,0.2,0.1,0.4,0c0.1,0.2,0.2,0.2,0.4,0.4
		c0.1,0,0.2-0.1,0.2-0.1c0-0.1,0.1-0.3,0.4-0.5l0,0c0.1,0,0.1,0.1,0.2,0.1c-0.1,0.1-0.2,0.1-0.3,0.2s0,0.2,0.1,0.2
		c0.4,0.1,0.1,0.6-0.2,0.8c-0.1,0.1-0.2,0.1-0.3,0.2c-0.3,0.2-0.7,0.2-1.9,0.3c-0.5,0-1.5,0-2-0.1c0-0.1-0.1-0.1-0.2-0.2
		c0,0,0-0.1-0.1-0.1c-0.1-0.1-0.1-0.1-0.1-0.1c-0.1,0-0.3,0-0.5-0.1c0-0.1-0.1-0.1-0.1-0.2s-0.1-0.1-0.1-0.1s0,0-0.1-0.1
		c-0.1,0-0.2-0.1-0.2-0.1c-0.4-0.1-0.6-0.1-0.7,0c-0.1-0.1-0.3-0.3-0.5-0.4c-0.5-0.2-1-0.1-1.1,0c0,0.1,0,0.1,0,0.2
		c-0.1-0.1-0.2-0.1-0.3-0.2c-0.5-0.1-1.1,0.1-1.1,0.2c-0.1,0-0.2-0.1-0.3-0.1c-0.5-0.1-0.9,0.1-1.1,0.2c0,0,0,0-0.1,0.1l-0.1-0.1
		c-0.2,0-0.4,0-0.6,0.1c-0.2,0-0.4,0.1-0.5,0.2c-0.1,0-0.2-0.1-0.3-0.1c-0.4,0.1-0.8,0.2-0.9,0.4c-0.1,0.1-0.1,0.2-0.1,0.2
		c-0.3,0.1-0.5,0.1-0.8,0.1c-0.5,0.1-1,0.1-1.5,0.1l-2-2.4l0.2-0.2c0.1,0,0.2,0.1,0.2,0.1c0.4,0.1,0.5,0.1,0.6,0.4
		c0.1,0,0.2-0.1,0.3-0.3s0.1-0.2,0.1-0.3c0.1,0,0.2-0.1,0.3-0.2s0.1-0.1,0.3-0.1s0.3,0,0.4,0c0.1-0.2-0.2-0.4-0.3-0.5
		s-0.1-0.1-0.2-0.2c-0.3-0.3-0.4-0.2-0.6-0.2c-0.1-0.1-0.2-0.3-0.2-0.4c-0.1-0.1-0.1,0-0.2,0c0,0.1-0.2,0.3-0.4,0.3
		s-0.4-0.1-0.4-0.2c0.1-0.1,0.5-0.6,0.9-1.2l0.1-0.2c0,0,0.1,0,0.2,0c0.4,0,0.5-0.3,0.4-0.4c0,0-0.1-0.1-0.2-0.2c0,0,0-0.1,0-0.2
		c0-0.2,0-0.5,0-0.9c0-0.1,0-0.2,0-0.3c0-0.5-0.2-0.9-0.4-1.2v-0.1c0,0,0.1,0,0.1-0.1c0,0,0,0,0.1,0c0.3-0.1,0.4-0.1,0.7-0.5
		c0.2-0.5,0.1-0.7-0.1-0.8c0-0.2-0.1-0.4-0.2-0.4c-0.1,0-0.1,0.1-0.2,0.1L39.1,21c-0.6-0.2-1.1-0.3-1.6-0.2c-0.3,0-0.5,0.1-0.8,0.2
		H34c-0.2-0.2-0.4-0.2-0.6-0.2c-0.7-0.2-1.1,0.4-1.2,0.7c-0.1,0.1-0.2,0.1-0.2,0.1c-0.1-0.1,0,0,0,0.1c-0.5,0.3-1.1,0.7-1.5,0.9l0,0
		c-0.1,0-0.2,0-0.3,0.1c-0.1,0-0.3,0.2-0.2,0.3c0,0,0,0,0.1,0c-0.2,0.3-0.7,1-1,1.5c-0.3,0.1-0.5,0.3-0.7,0.5
		c-0.1,0.1-0.2,0.2-0.3,0.3c-0.2,0.2-0.3,0.4-0.4,0.5c-0.3,0.1-0.4,0-0.5,0C27,25.7,27,25.9,27.1,26c0,0.1,0,0.1,0.1,0.2l0.1,0.1
		l0.1,0.1c0,0,0.2,0.1,0.4,0.2c0.1,0,0.2,0,0.2,0c0,0.2,0.1,0.5,0.3,0.7c0,0.1,0.1,0.1,0.1,0.2c0,0,0,0.1,0.1,0.1
		c0,0.1,0,0.3-0.1,0.4s-0.2,0.2-0.3,0.2h0.1c-0.1,0.1,0,0.2,0.1,0.2c0.6,0.4,1,0,1.1-0.3V28c0.4,0.1,0.6,0.1,0.8,0l0.4,0.1
		c0,0.1-0.1,0.3-0.1,0.4c0,0,0,0,0.1,0c0,0.1,0.1,0.1,0.2,0.1c0.2,0,0.4-0.1,0.5-0.2l2.4,0.8c0.3,0.4,0.7,0.8,1.1,1.2l0.5,1.1l0,0
		l0,0l0.1,0.2c0,0,0,0,0,0.1s-0.1,0.1,0,0.2c0.1,0.2,0.2,0.4,0.3,0.4l0.8,1.8l0,0c-0.2,0.2-0.2,0.3-0.2,0.4s0,0.2-0.2,0.2
		C36,34.9,36,34.9,36,34.9c0,0.1,0,0.3,0.1,0.4c0,0.1,0.1,0.3,0.3,0.4c0.1,0.2,0.3,0.4,0.6,0.6c0.2,0.1,0.3,0.1,0.5,0.1l0.8,1.7l0,0
		c0,0,0,0,0.1,0l0.1,0.2l0,0l0.3,0.7l0,0c0,0.1,0,0.2,0,0.3c0,0.2,0,0.3,0.1,0.3c0.2,0.2,0.4,0.2,0.6,0.2l3.6,1.4
		c0.3,0.5,1.1,0.6,1.5,0.6c0,0,0,0,0.1,0l0.3,0.1c0,0.1,0.1,0.1,0.1,0.2c0-0.1-0.1-0.1-0.1-0.2l0.2,0.1v0.1c0.2,0.3,0.2,0.4,0.7,0.7
		c0.4,0.3,0.7,0.2,0.7,0.2c0.4,0.7,1.7,0.8,2.2,1.7c0.5-0.8,1.7-1,2.2-1.7c0,0,0.3,0,0.7-0.2c0.5-0.3,0.4-0.4,0.7-0.7
		c0-0.1,0.1-0.2,0.2-0.3l0.1-0.1c0.6,0,1.6-0.5,1.6-1l1-0.4h0.1c0.1,0,0.2,0,0.3,0c0.1,0.1,0.1,0.2,0.3,0.2
		c-0.1-0.1-0.1-0.2-0.1-0.3c0.1-0.1,0.2-0.2,0.2-0.3l0,0l0.9-0.4l0,0c0.2,0.5,0.4,0.7,0.7,0.6c0.1,0.3,0.3,0.5,0.6,0.5
		c-0.2-0.1-0.2-0.4-0.1-0.6h0.1c0.1-0.1,0.3-0.2,0.2-0.4h-0.2c0-0.1,0-0.1,0-0.2c0.1-0.1,0.2-0.2,0.3-0.4c0.1-0.1,0.1-0.2,0.1-0.4
		c0.2,0,0.4,0,0.6-0.1c-0.1,0-0.3,0-0.3-0.6l0.8-1c0.2,0.1,0.5,0.2,0.7,0c-0.1-0.1-0.3-0.1-0.5-0.2l0.2-0.2c0.3,0,0.5-0.2,0.6-0.3
		s0.3-0.3,0.5-0.4l-0.1-0.1c0-0.2-0.1-0.3-0.2-0.3l1.9-4.1c0.6-0.5,1.3-1.2,2.1-2.3l0,0l2.5-1c0,0.1,0,0.2,0,0.2
		c-0.3,0.7,0.2,1.2,0.4,1.2c0,0,0-0.1,0-0.2c0.1,0.1,0.2,0.1,0.3,0.1c0.1,0.1,0.1,0.1,0.2,0c0.1,0,0.1,0,0.2-0.1
		c0.2-0.1,0.3-0.4,0.2-0.6c-0.1-0.1-0.2,0-0.2,0c-0.1,0.1-0.2,0.1-0.2,0s0.1-0.2,0.2-0.3c0.2,0,0.3-0.1,0.4-0.2
		c0.2,0.2,0.3,0.2,0.3,0.1c0.2,0,0.2,0,0.3-0.1C69.5,27.8,69.5,27.5,69.6,27.3z"/>
	<path fill="#2178B5" d="M69.6,28.1v-0.2l0,0C69.6,28,69.6,28.1,69.6,28.1z"/>
	<path fill="#2178B5" d="M69.6,27.9L69.6,27.9L69.6,27.9z"/>
</g>
<path fill="#DC6026" d="M44.5,43.1c-0.3-0.2-1.1-0.4-1.5-0.5c-0.2-0.1-0.7-0.1-0.7-0.1c-0.2,0-0.5,0.1-0.7,0.1c-0.1,0-0.2,0-0.3,0
	c-0.1,0-0.1,0.1-0.1,0.1c0,0.1,0.1,0.1,0.1,0.1c0,0-0.1,0-0.1,0c0,0-0.1,0-0.1,0c-0.2,0-2.9,0.2-2.9,0.2c-0.1,0-0.3,0-0.5,0.1
	l0.1-0.1c0,0,0-0.1-0.1-0.2c-0.1-0.1-0.1-0.1-0.2-0.1c0,0-0.1,0-0.2,0c-0.1,0-0.1-0.1-0.2-0.2c0-0.1-0.1-0.2-0.3-0.2
	c-0.1-0.3-0.2-1.2-0.4-2c0-0.1-0.3-1.8-0.7-2.5c-0.1-0.2-0.2-0.3-0.3-0.3c-0.1-0.2-1.3-0.9-1.3-0.9c-0.2-0.7-0.5-0.9-0.5-0.9
	c0.2-0.2,0-0.7,0-0.7c0.3-0.1,0.8-2.3,0.8-2.3l0.1-0.1c0-0.1-0.1-0.2-0.1-0.4c0-0.3-0.1-0.5-0.1-0.5l-0.1,0.1l-0.1,0.1L33.9,31v-0.1
	L33.8,31c0,0,0,0,0,0.1c-0.2-0.3-0.5-0.6-0.5-0.6l-0.1-0.1c0,0-0.1,0.3-0.1,0.5c-0.2-0.2-0.4-0.4-0.4-0.4l-0.1-0.1v0.1
	c0,0,0,0.1,0,0.3c-0.2-0.1-0.5-0.2-0.9-0.2c-0.2,0-0.4,0.1-0.6,0.2c0-0.3,0-0.5,0-0.5L31,30.1c-0.1,0.1-0.5,0.3-0.7,0.5
	c0-0.2,0-0.3,0-0.3v-0.1l-0.1,0.1c-0.1,0-0.5,0.5-0.6,0.8c0,0.1-0.1,0.2-0.1,0.3c-0.1-0.1-0.1-0.2-0.1-0.2l-0.1-0.1v0.1
	c0,0-0.2,0.5-0.2,0.8c0,0.1,0,0.2,0,0.3c-0.1,0-0.1-0.1-0.1-0.1h-0.1v0.1c0,0,0.1,0.5,0.2,0.7c0.1,0.2,0.2,0.3,0.3,0.4
	c0,0.2,0,0.4,0,0.5c0,0.1,0,0.1,0,0.2c0,0.5,0.2,0.8,0.2,0.8c0,0.1,0,0.1,0,0.2c0,0.2,0.1,0.6,0.1,0.6c-0.1,0.1-0.1,0.1-0.1,0.1
	c-0.3,0.1-0.6,0.6-0.7,0.7c-0.6,0-0.7,0.6-0.7,0.6v0.1c-0.1,0.1-0.3,0.2-0.4,0.3c-0.1,0.1-0.2,0.2-0.2,0.2c0,0.1-0.1,0.1-0.1,0.2
	c-0.3,0.3-0.7,1.3-1,2.6L26,37.1l0.1-0.1c0.1-0.1,0.2-0.2,0.2-0.3c0-0.1,0-0.1,0-0.1l-0.1,0.1c0-0.1-0.1-0.2-0.1-0.2s0.1,0,0.1-0.1
	c0,0.1,0,0.1,0,0.1h0.1l0.1-0.3c0,0.1-0.1-0.1-0.3-0.2c0,0,0.1-0.8,0-0.8c0.1,0,0.3,0.1,0.3,0c0,0,0-0.1-0.1-0.1c-0.2,0-0.3,0-0.3,0
	c-0.1,0-0.1,0-0.1,0h-0.1l-0.2-1.6c0.1-0.1,1.9-1.5,1.9-2.3c0,0,0,0,0-0.1V31c0-0.1,0-0.1,0-0.1c0-0.1-0.1-0.3-0.2-0.5
	c-0.1-0.1-0.2-0.2-0.2-0.2C27,30.1,27,30.1,26.9,30c-0.1-0.1-0.3-0.2-0.4-0.3c-0.2-0.4-0.3-0.9-0.3-1.1c0.1-0.1,0.3-0.2,0.4-0.4
	c0-0.1,0.1-0.1,0.1-0.2c0-0.2-0.1-0.3-0.3-0.4c-0.1-0.2-0.2-0.4-0.4-0.4c-0.2-0.1-0.3-0.1-0.5-0.1s-0.3,0-0.5,0.2
	c-0.1,0-0.1,0.1-0.2,0.2c-0.2,0.3-0.4,0.9-0.5,1.6c0,0.1-0.1,0.1-0.1,0.1c0,0.1-0.2,0.3-0.3,0.6c-0.1,0.2-0.2,0.4-0.2,0.6
	c-0.1,0.3-0.2,0.7-0.3,0.9c0,0.2,0,0.6,0,1c0,0.2,0,0.4,0.1,0.6c-0.2,0.3-0.2,0.6-0.2,0.7c0,0.1,0.2,0.7,0.3,0.7l0.1,0.1
	c0,0.1,0.1,0.1,0.1,0.1c0.1,0.1,0.1,0.1,0.2,0.1c0.4,0,0.8-0.4,1.2-0.7l0.2,1.4l-0.1,0.1c-0.1,0-0.2,0.2-0.2,0.2
	c-0.1,0.1-0.3,0.6-0.6,1.2c-0.2,0.5-0.4,1-0.5,1.5c0,0.1,0,0.2-0.1,0.2c-0.1,0.6-0.1,1.2-0.1,1.7c0,0.6,0.1,1.2,0.2,1.8
	c0.1,1,0.1,1.1,0.4,1.8c0.1,0.3,0.3,0.8,0.4,1.2c0,0.1,0,0.2,0.1,0.3c0,0,0,0,0,0.1c0.2,1.1,0.7,3,1.1,3c0.2-0.1,0.4-0.2,0.5-0.3
	c0,0.1-0.2,0.4-0.6,0.4c0.1,0,0.1,0,0.2,0c0.2-0.1,0.4-0.2,0.5-0.3c0,0.4-0.1,0.9-0.2,1c0,0-0.1,0.2-0.1,0.4
	c-0.1,0.3-0.1,0.6-0.1,0.9l-0.1,0.1v0.1c0,0,0.3,0.3,0.3,1.5c-0.1,0.2-0.4,0.5-0.4,0.9c0,0.1,0,0.1,0,0.2c0.1,0.5,0.5,2,0.6,2.2
	l-0.1,2c-0.1,0.2-0.5,0.7-0.4,0.9v0.1l0.1,0.1c0.1,0.2,0.2,0.4,0.2,0.6v0.1c0,0,0,0,0,0.1c0,0.2,0.1,0.3,0.1,0.4c0,0.1,0,0.1,0,0.1
	c0,0.1-0.3,2.3-0.3,2.9c0,0.3-0.1,0.8-0.1,1.3c-0.1,0.5-0.1,1-0.1,1.1c0,0.6,0.4,2.4,0.2,2.9l0.4,1.8c0,0.1,0.1,0.2,0.3,0.3
	c0.2,0,0.3,0.1,0.5,0.1c0.1,0,0.2,0,0.4-0.2c0.3-0.1,0.5-0.3,0.7-0.5c0.1,0.1,0.1,0.1,0.2,0.2c0.1,0.1,0.3,0.1,0.5,0.1
	c0.3,0,0.5,0,0.6,0c0.2,0,0.7-0.2,1-0.4c0,0.1,0,0.1,0.1,0.2c0.1,0.1,0.7-0.3,0.7-0.3s0.2-0.2,0.4-0.1c0.3,0.1,1.6,0.3,1.6,0.2
	c0.1,0,0.4,0,0.3,0.1l0.3-0.1c0,0,0,0,0.1,0c0.1,0.1,0.2,0.2,0.3,0.2h0.2c0,0,0.3,0,0.4-0.1c0.1,0.1,0.5,0.5,0.9,0.5
	c0.4,0.1,0.6-0.1,0.8-0.2c0.2-0.2,0.2-0.2,0.3-0.3c0.1-0.1,0-0.2,0-0.3s0-0.1-0.1-0.2c-0.1-0.1-0.2-0.8-0.2-1s-0.2-0.3-0.3-0.3
	l-0.5-4.2c0,0,0-0.7,0-1.2c-0.1-0.5-0.3-3.5-0.3-3.5s0,0-0.1-0.1c0,0,0.1-0.1,0.1-0.2c0.1-0.2,0.2-0.7,0.1-1.4c0-0.1,0-0.1,0.1-0.1
	c0.1,0.9,0,1.4-0.1,1.6c0.1,0,0.1,0,0.1,0c0.1,0,0.1,0,0.1,0s0.5-0.5,0.2-2c0.1-0.1,0.3-0.6,0.3-0.8c0-0.2-0.1-0.3-0.2-0.4
	c0-0.1-0.1-0.2-0.1-0.2c0-0.2,0.1-1,0.2-1.3c0.2-0.4,0.2-0.8,0.1-1.1c-0.1-0.3,0-1.2,0-1.3c0.1-0.1,0.1-0.3,0.2-0.4
	c0.1-0.1,0-0.3,0-0.3s-0.1-0.1-0.2-0.2c0-0.2-0.1-0.4-0.2-0.8c-0.1-0.1-0.1-0.2-0.1-0.3v-0.1c0.1,0,0.2,0.1,0.4,0c0,0,0,0,0.1,0h0.1
	c0.5-0.2,0.5-0.7,0.5-0.9c0,0,0.4-2.8,0.4-3.7h0.1c0.3-0.1,0.7-0.2,1.1-0.3c1-0.3,2.1-0.6,2.3-0.7c0.6,0.5,1.5,0.4,1.6,0.4
	c0.1,0.1,0.6,0.4,0.7,0.4c0.1,0,0.1,0,0.1,0c0.1,0,0.1,0.1,0.2,0c0,0,0,0,0-0.1c0.1,0,0.1,0,0.1-0.1c0,0,0,0,0,0
	c0.1,0,0.2,0,0.2-0.1c0,0,0,0,0-0.1c0,0,0-0.1-0.1-0.1c0,0,0,0,0.1,0c0.2,0.1,0.5,0.3,0.7,0.3c0.1,0,0.2,0,0.3-0.1
	c0.1-0.1,0.1-0.1,0.1-0.1c0.2,0,0.2-0.2,0.2-0.2c0.1-0.1,0.1-0.2,0.1-0.2C45.4,43.8,44.5,43.1,44.5,43.1z M26,41.8l-0.1,0.1
	C25.9,41.8,25.9,41.8,26,41.8c-0.1,0-0.2,0.1-0.3-0.3c-0.1-0.3-0.1-0.5-0.3-0.8c-0.1-0.4-0.5-1.8-0.4-2.4c0-0.2,0.1-0.5,0.3-0.7
	c-0.1,0.2-0.2,0.4-0.2,0.6c0,0,0,0.1,0,0.1c0-0.4,0.3-0.9,0.4-0.9h0.1l0.5,4.2C26,41.7,26,41.7,26,41.8z M42.9,42.8
	c0.2,0.1,0.4,0.1,0.5,0.2C43.2,42.9,43,42.8,42.9,42.8c-0.3-0.1-0.7-0.1-0.7-0.1c0,0,0,0,0,0c0,0,0,0,0,0c0,0,0,0,0.1,0
	C42.2,42.7,42.7,42.7,42.9,42.8z M41.4,43.7c0.2,0.1,0.3,0.1,0.5,0.2C41.7,43.9,41.6,43.8,41.4,43.7z"/>
</svg>
