<?xml version="1.0" encoding="utf-8"?>
<!-- Generator: Adobe Illustrator 23.0.0, SVG Export Plug-In . SVG Version: 6.00 Build 0)  -->
<svg version="1.0" id="Layer_1" xmlns="http://www.w3.org/2000/svg" xmlns:xlink="http://www.w3.org/1999/xlink" x="0px" y="0px"
	 viewBox="0 0 100 100" enable-background="new 0 0 100 100" xml:space="preserve">
<g>
	<rect fill="#FFD700" width="100" height="100"/>
</g>
<path fill="#BF0A30" d="M73.9,50.5H58.7c0-0.2,0-0.4,0-0.5s0-0.4,0-0.5h15.2c0.6,0,1.1-0.5,1.1-1.1s-0.5-1.1-1.1-1.1H58.3
	c-0.1-0.4-0.3-0.7-0.4-1.1h11.8c0.6,0,1.1-0.5,1.1-1.1S70.3,44,69.7,44H56.4c-0.2-0.2-0.4-0.4-0.6-0.6V30.3c0-0.6-0.5-1.1-1.1-1.1
	s-1.1,0.5-1.1,1.1v11.8c-0.3-0.2-0.7-0.3-1.1-0.4V26.1c0-0.6-0.5-1.1-1.1-1.1s-1.1,0.5-1.1,1.1v15.2c-0.2,0-0.4,0-0.5,0
	s-0.4,0-0.5,0V26.1c0-0.6-0.5-1.1-1.1-1.1s-1.1,0.5-1.1,1.1v15.6c-0.4,0.1-0.7,0.3-1.1,0.4V30.3c0-0.6-0.5-1.1-1.1-1.1
	s-1.1,0.5-1.1,1.1v13.2c-0.2,0.2-0.4,0.4-0.6,0.6H30.3c-0.6,0-1.1,0.5-1.1,1.1s0.5,1.1,1.1,1.1h11.8c-0.2,0.3-0.3,0.7-0.4,1.1H26.1
	c-0.6,0-1.1,0.5-1.1,1.1s0.5,1.1,1.1,1.1h15.2c0,0.2,0,0.4,0,0.5s0,0.4,0,0.5H26.1c-0.6,0-1.1,0.5-1.1,1.1s0.5,1.1,1.1,1.1h15.6
	c0.1,0.4,0.3,0.7,0.4,1.1H30.3c-0.6,0-1.1,0.5-1.1,1.1s0.5,1.1,1.1,1.1h13.2c0.2,0.2,0.4,0.4,0.6,0.6v13.2c0,0.6,0.5,1.1,1.1,1.1
	s1.1-0.5,1.1-1.1v-12c0.3,0.2,0.7,0.3,1.1,0.4v15.6c0,0.6,0.5,1.1,1.1,1.1s1.1-0.5,1.1-1.1V58.7c0.2,0,0.4,0,0.5,0s0.4,0,0.5,0v15.2
	c0,0.6,0.5,1.1,1.1,1.1s1.1-0.5,1.1-1.1V58.3c0.4-0.1,0.7-0.3,1.1-0.4v11.8c0,0.6,0.5,1.1,1.1,1.1s1.1-0.5,1.1-1.1V56.4
	c0.2-0.2,0.4-0.4,0.6-0.6h13.2c0.6,0,1.1-0.5,1.1-1.1s-0.5-1.1-1.1-1.1h-12c0.2-0.3,0.3-0.7,0.4-1.1h15.6c0.6,0,1.1-0.5,1.1-1.1
	S74.5,50.5,73.9,50.5z"/>
<circle fill="#FFD700" cx="50" cy="50" r="8"/>
<g>
	<path opacity="0.2" enable-background="new    " d="M10.4,74.3V25.8c0-12.1,8.2-22.7,19.8-25.8H0v100h30.2
		C18.5,96.9,10.4,86.3,10.4,74.3z"/>
	<path opacity="0.1" fill="#FFFFFF" enable-background="new    " d="M89.6,25.8v48.5c0,12.1-8.2,22.7-19.8,25.8H100V0H69.8
		C81.5,3.1,89.6,13.7,89.6,25.8z"/>
</g>
</svg>
