<?xml version="1.0" encoding="utf-8"?>
<!-- Generator: Adobe Illustrator 23.0.0, SVG Export Plug-In . SVG Version: 6.00 Build 0)  -->
<svg version="1.0" id="Layer_1" xmlns="http://www.w3.org/2000/svg" xmlns:xlink="http://www.w3.org/1999/xlink" x="0px" y="0px"
	 viewBox="0 0 100 100" enable-background="new 0 0 100 100" xml:space="preserve">
<g>
	<path fill="#001C59" d="M0.3,100c-0.2,0-0.4,0.1-0.3-0.2c0-0.1,0-0.1,0-0.2C0,66.4,0,33.3,0,0.1h0.1c0.4,0.1,0.8,0.3,1.1,0.5
		c2.5,1.3,5.1,2.5,7.6,3.8c8.1,4,16.1,8,24.1,12c0.4,0.2,0.8,0.4,1.1,0.6c3.3,1.6,6.5,3.3,9.8,4.9c12,5.9,23.9,12,35.9,17.9
		c2.7,1.3,5.3,2.7,8,4c0.3,0.2,0.6,0.3,0.9,0.4c3.5,1.8,7.1,3.6,10.6,5.3c0.2,0.1,0.5,0.2,0.6,0.4c0,0.1,0,0.2,0,0.4
		c-0.1,0.2-0.3,0.3-0.4,0.4c-3.8,1.9-7.5,3.8-11.3,5.6c-0.1,0.1-0.3,0.1-0.4,0.2c-0.2,0.1-0.4,0.2-0.6,0.3
		c-12.6,6.2-25.4,12.7-38.2,19c-4.9,2.5-9.9,4.9-14.8,7.4c-0.3,0.2-0.7,0.3-1,0.5c-4.7,2.3-9.4,4.7-14.1,7c-6,3-11.9,5.9-17.8,8.9
		C0.9,99.7,0.6,99.8,0.3,100z"/>
	<path fill="#FEFEFE" d="M99.9,50.2c0-0.1,0-0.2,0-0.4c-0.2-0.2-0.2-0.5-0.2-0.7c0-1.5,0-3,0-4.5c0-0.6-0.1-0.6-0.6-0.6
		c-3.2,0-6.5,0-9.7,0c-0.5,0-1.1,0-1.6-0.2c-1.6-0.8-3.3-1.6-4.9-2.4c-16.5-8.2-33-16.4-49.4-24.6c-0.2-0.1-0.3-0.2-0.5-0.3
		c0.2-0.2,0.4-0.2,0.7-0.2c3.6,0.4,7.2,0.8,10.8,1.2c3.2,0.4,6.4,0.8,9.7,1.1c3.3,0.4,6.5,0.7,9.8,1.1c2.9,0.3,5.9,0.7,8.8,1
		c3,0.3,5.9,0.7,8.9,1c2.7,0.3,5.4,0.6,8,0.9c2.4,0.3,4.8,0.6,7.3,0.8c0.7,0.1,1.4,0.2,2.1,0.3c0.5,0.1,0.6,0,0.6-0.5
		c0-3.7,0-7.3,0-11c0-0.6,0-0.6-0.6-0.7c-3.5-0.4-7.1-0.8-10.6-1.2c-3.3-0.4-6.5-0.7-9.8-1.1c-3.3-0.2-6.5-0.6-9.7-1
		c-3-0.3-6-0.7-9-1s-5.9-0.7-8.9-1s-5.9-0.7-8.9-1c-2.4-0.3-4.8-0.6-7.2-0.8c-2.6-0.4-5.3-0.7-8-1s-5.4-0.6-8-0.9
		c-2.7-0.3-5.3-0.6-8-0.9S5.6,1,2.9,0.6C1.9,0.5,1,0.5,0.1,0.1H0V0c0.1,0,0.3,0,0.4,0c33,0,66.1,0,99.1,0c0.4,0,0.4,0.1,0.4,0.4
		c0,33,0,66.1,0,99.1c0,0.4-0.1,0.4-0.4,0.4c-32.9,0-65.9,0-98.8,0c0-0.3,0.3-0.3,0.5-0.3c1-0.1,2-0.2,2.9-0.4
		c1.8-0.2,3.7-0.4,5.5-0.6c2.2-0.2,4.4-0.5,6.5-0.7c2-0.2,4.1-0.5,6.1-0.7c2.2-0.3,4.4-0.5,6.5-0.7c1.8-0.2,3.6-0.4,5.4-0.6
		c2.2-0.2,4.3-0.5,6.5-0.7c2.4-0.3,4.7-0.5,7.1-0.8c2.2-0.2,4.3-0.5,6.5-0.7c1.8-0.2,3.5-0.4,5.3-0.6c2.1-0.3,4.3-0.5,6.4-0.7
		c2.5-0.3,4.9-0.6,7.4-0.8c2.7-0.3,5.4-0.6,8.1-0.9s5.3-0.6,8-0.9c2.1-0.2,4.3-0.5,6.4-0.7c1.1-0.1,2.2-0.3,3.3-0.4
		c0.3,0,0.4-0.2,0.4-0.4c0-0.1,0-0.3,0-0.4c0-3.6,0-7.2,0-10.7c0-0.7,0-0.7-0.7-0.6c-2.2,0.3-4.4,0.5-6.5,0.7
		c-2,0.2-4.1,0.5-6.1,0.7c-2.2,0.3-4.4,0.5-6.5,0.7c-1.8,0.2-3.6,0.4-5.4,0.6c-2.2,0.2-4.4,0.5-6.5,0.7c-2.3,0.3-4.7,0.5-7,0.8
		c-2.2,0.3-4.4,0.5-6.5,0.8c-2.4,0.3-4.7,0.5-7.1,0.8c-2.2,0.3-4.3,0.5-6.5,0.7c-1.8,0.2-3.6,0.4-5.4,0.6c-0.6,0.1-1.2,0.1-1.8,0.2
		c-0.2,0-0.4,0-0.6-0.2c2-1,4-2,6-3c16.1-8,32.2-16,48.2-24.1c0.2-0.1,0.4-0.2,0.6-0.3c0.5-0.2,1-0.2,1.6-0.2c3.2,0,6.4,0,9.6,0
		c0.7,0,0.7,0,0.7-0.7c0-1.5,0-2.9,0-4.4C99.7,50.7,99.7,50.4,99.9,50.2z"/>
	<path fill="#C0133D" d="M33,83.6c1.6-0.2,3.3-0.3,4.9-0.5c3-0.3,5.9-0.7,8.9-1c3.2-0.4,6.5-0.7,9.7-1.1c3-0.3,6-0.7,9-1
		c3.3-0.4,6.5-0.8,9.8-1.1c3-0.3,5.9-0.7,8.9-1c3.3-0.4,6.5-0.8,9.8-1.1c1.9-0.2,3.8-0.4,5.7-0.7c0.3,0,0.3,0.1,0.3,0.3
		c0,3.9,0,7.9,0,11.8c0,0.3-0.1,0.4-0.4,0.4c-2.9,0.3-5.8,0.7-8.8,1c-3.3,0.4-6.5,0.8-9.8,1.1c-3,0.3-5.9,0.7-8.9,1
		c-3.3,0.4-6.5,0.8-9.8,1.1c-3,0.3-5.9,0.7-8.9,1c-3.2,0.4-6.5,0.7-9.7,1.1c-3,0.3-5.9,0.7-8.9,1c-3.3,0.4-6.5,0.8-9.8,1.1
		c-3.2,0.4-6.5,0.7-9.7,1.1C12,98.6,8.8,99,5.5,99.4c-1.5,0.2-3,0.3-4.5,0.5c-0.1,0-0.2,0-0.3,0.1c-0.1,0-0.3,0-0.4,0
		c0-0.2,0.2-0.2,0.3-0.3C11.3,94.3,22.1,89,32.8,83.6C32.9,83.6,32.9,83.6,33,83.6z"/>
	<path fill="#C0133D" d="M0.1,0.1c2.4,0.3,4.7,0.5,7.1,0.8c3,0.3,6,0.7,9,1C19.5,2.3,22.7,2.7,26,3c3,0.3,5.9,0.7,8.9,1
		c3.3,0.4,6.5,0.8,9.8,1.1c3,0.3,5.9,0.7,8.9,1C56.7,6.6,60,7,63.2,7.4s6.5,0.7,9.7,1.1c3.3,0.4,6.5,0.8,9.8,1.1
		c3.2,0.4,6.4,0.7,9.6,1.1c2.4,0.3,4.7,0.5,7.1,0.8c0.3,0,0.4,0.1,0.4,0.4c0,3.9,0,7.9,0,11.8c0,0.3-0.1,0.4-0.4,0.3
		c-3.3-0.4-6.6-0.8-10-1.2c-3-0.3-5.9-0.7-8.9-1c-3.3-0.4-6.6-0.8-9.8-1.1c-3.2-0.4-6.5-0.7-9.7-1.1c-3.3-0.4-6.5-0.8-9.8-1.1
		c-3.2-0.4-6.5-0.7-9.7-1.1c-2.7-0.3-5.4-0.6-8-0.9c-0.2,0-0.4,0-0.6,0c-1.3-0.6-2.5-1.2-3.8-1.9c-9.5-4.7-19-9.5-28.5-14.2
		C0.4,0.3,0.3,0.2,0.1,0.1z"/>
	<path fill="#FEFEFE" d="M12.2,50c0-10.4,8.4-18.7,18.8-18.7c10.3,0,18.7,8.4,18.7,18.8c0,10.3-8.5,18.7-18.9,18.7
		C20.6,68.8,12.2,60.4,12.2,50z"/>
	<path fill="#C0133D" d="M87.8,43.8c3,0,6,0,9,0c0.9,0,1.9,0,2.8,0c0.2,0,0.3,0,0.3,0.3c0,1.9,0,3.8,0,5.7c-2.5-1.2-5-2.5-7.5-3.7
		C90.9,45.4,89.3,44.6,87.8,43.8z"/>
	<path fill="#C0133D" d="M99.9,50.2c0,1.9,0,3.8,0,5.7c0,0.2,0,0.3-0.3,0.3c-3.9,0-7.9,0-11.8,0c1.2-0.6,2.4-1.2,3.6-1.8
		c2.7-1.3,5.4-2.7,8.1-4C99.6,50.4,99.7,50.3,99.9,50.2z"/>
	<path fill="#FEFEFE" d="M77.5,47.8c0.8,0.3,1.5,0.5,2.2,0.7c0.4,0.1,0.6,0.1,0.8-0.3c0.4-0.6,0.8-1.2,1.4-1.7c0,0.8,0,1.5,0,2.3
		c0,0.3,0.1,0.5,0.4,0.5c0.7,0.2,1.4,0.5,2.3,0.7c-0.9,0.3-1.6,0.5-2.3,0.8c-0.3,0.1-0.4,0.2-0.4,0.5c0,0.8,0,1.5-0.1,2.3
		c-0.4-0.5-0.7-1-1.1-1.5c-0.5-0.7-0.5-0.7-1.3-0.4c-0.6,0.2-1.2,0.4-1.9,0.6c0.5-0.7,1-1.4,1.5-2c0.2-0.2,0.1-0.3,0-0.5
		C78.5,49.1,78.1,48.5,77.5,47.8z"/>
	<path fill="#FEFEFE" d="M52.5,47.8c0.8,0.3,1.6,0.5,2.3,0.7c0.3,0.1,0.5,0,0.6-0.2c0.4-0.6,0.9-1.2,1.4-2c0,0.9,0,1.7,0,2.4
		c0,0.3,0.1,0.4,0.4,0.5c0.7,0.2,1.4,0.5,2.3,0.7c-0.8,0.3-1.5,0.5-2.3,0.7c-0.3,0.1-0.4,0.2-0.4,0.6c0,0.8,0,1.5,0,2.4
		c-0.5-0.7-0.9-1.2-1.3-1.7c-0.3-0.4-0.5-0.6-1.1-0.4c-0.6,0.3-1.3,0.4-2.1,0.7c0.5-0.7,0.9-1.3,1.4-1.9c0.3-0.3,0.2-0.6,0-0.9
		C53.4,49,53,48.4,52.5,47.8z"/>
	<path fill="#FEFEFE" d="M32.2,28.4c-0.6-0.4-1.3-0.8-1.9-1.3c-0.2-0.2-0.4-0.2-0.6,0c-0.6,0.5-1.2,1-1.9,1.5
		c0.2-0.8,0.4-1.6,0.6-2.3c0.1-0.3,0-0.5-0.3-0.7c-0.6-0.4-1.3-0.8-2-1.3c0.8,0,1.5-0.1,2.2-0.1c0.5,0,0.7-0.2,0.8-0.6
		c0.1-0.7,0.4-1.3,0.6-2.1c0.3,0.8,0.6,1.4,0.8,2c0.1,0.5,0.4,0.7,0.9,0.6c0.7-0.1,1.3-0.1,2,0c-0.6,0.4-1.1,0.9-1.7,1.3
		c-0.3,0.2-0.4,0.5-0.2,0.9C31.8,27,32,27.7,32.2,28.4L32.2,28.4z"/>
	<path fill="#FEFEFE" d="M14.2,30c0.8-0.5,1.4-0.9,2.1-1.3c0.2-0.1,0.3-0.3,0.2-0.6c-0.2-0.7-0.4-1.5-0.6-2.2
		c0.1-0.1,0.2,0.1,0.3,0.1c0.5,0.4,1,0.8,1.5,1.3c0.2,0.2,0.4,0.2,0.6,0c0.6-0.4,1.3-0.8,2.1-1.3c-0.3,0.8-0.6,1.5-0.9,2.1
		c-0.2,0.4-0.2,0.6,0.2,0.8c0.6,0.4,1.1,0.9,1.7,1.4c-0.6,0.1-1.1,0-1.6-0.1c-1.2-0.1-1.2-0.1-1.6,1c-0.2,0.5-0.4,0.9-0.6,1.5
		c-0.2-0.8-0.4-1.6-0.6-2.3c-0.1-0.3-0.2-0.4-0.5-0.4C15.9,30.2,15.1,30.1,14.2,30z"/>
	<path fill="#FEFEFE" d="M21.5,69.6c-0.6,0.5-1.1,1-1.7,1.5c-0.3,0.2-0.3,0.4-0.1,0.6c0.3,0.7,0.6,1.4,0.9,2.2
		c-0.8-0.5-1.5-0.9-2.1-1.3c-0.2-0.1-0.3-0.1-0.5,0c-0.5,0.4-1,0.8-1.5,1.3c-0.1,0.1-0.2,0.3-0.4,0.2c0.2-0.8,0.4-1.6,0.6-2.3
		c0.1-0.2-0.1-0.3-0.2-0.4c-0.7-0.4-1.3-0.8-2.1-1.3c0.9-0.1,1.7-0.2,2.4-0.2c0.3,0,0.4-0.1,0.5-0.4c0.2-0.8,0.4-1.5,0.6-2.4
		c0.3,0.8,0.6,1.5,0.9,2.2c0.1,0.3,0.2,0.4,0.6,0.4C19.9,69.6,20.7,69.6,21.5,69.6C21.4,69.6,21.5,69.6,21.5,69.6z"/>
	<path fill="#FEFEFE" d="M29.7,78.5c-0.2-0.8-0.5-1.5-0.6-2.1c-0.1-0.5-0.3-0.6-0.8-0.6c-0.7,0-1.4-0.1-2.2-0.1
		c0.7-0.5,1.3-0.9,2-1.3c0.3-0.2,0.4-0.3,0.3-0.7c-0.2-0.7-0.4-1.5-0.6-2.3c0.7,0.6,1.3,1,1.9,1.5c0.2,0.2,0.4,0.2,0.6,0
		c0.6-0.4,1.3-0.8,2-1.2c-0.3,0.7-0.5,1.4-0.8,2.1c-0.1,0.3-0.1,0.5,0.2,0.7c0.6,0.4,1.2,0.9,1.8,1.4c-0.8,0.1-1.4,0-2.1-0.1
		c-0.5-0.1-0.8,0.1-0.9,0.6C30.3,77.2,30,77.8,29.7,78.5z"/>
	<path fill="#FEFEFE" d="M13.2,15.9c0.7-0.3,1.4-0.6,2.2-0.9c0.3-0.1,0.3-0.2,0.3-0.5c-0.1-0.8-0.1-1.6-0.2-2.5
		c0.5,0.6,0.9,1.1,1.3,1.6c0.5,0.6,0.5,0.6,1.2,0.3c0.6-0.2,1.2-0.5,1.9-0.8c-0.5,0.8-0.9,1.4-1.3,2.1c-0.2,0.3-0.2,0.4,0,0.7
		c0.5,0.6,1,1.2,1.6,1.8c-0.8-0.2-1.4-0.3-2.1-0.5c-0.5-0.2-0.8-0.1-1,0.4c-0.3,0.6-0.7,1.2-1.1,1.8c-0.1-0.8-0.1-1.5-0.1-2.2
		c0-0.4-0.1-0.7-0.6-0.7C14.6,16.4,13.9,16.1,13.2,15.9L13.2,15.9z"/>
	<path fill="#FEFEFE" d="M8.4,18.9c-0.2,0.8-0.3,1.6-0.5,2.2c-0.1,0.4-0.1,0.6,0.3,0.8c0.6,0.3,1.3,0.7,2,1.2
		c-0.7,0.1-1.3,0.1-1.8,0.2c-1,0.1-1,0.1-1.2,1c-0.1,0.5-0.2,1.1-0.4,1.6c0,0,0,0.1-0.1,0.1c-0.3-0.7-0.6-1.4-0.9-2.1
		c-0.1-0.3-0.2-0.4-0.5-0.3c-0.8,0.1-1.5,0.1-2.4,0.2c0.7-0.6,1.2-1.1,1.8-1.6C5,22,5,21.8,4.8,21.5c-0.3-0.7-0.6-1.3-0.9-2
		c0.2-0.1,0.3,0.1,0.4,0.1c0.6,0.3,1.1,0.6,1.7,1c0.2,0.1,0.3,0.1,0.5,0C7.1,20,7.7,19.5,8.4,18.9z"/>
	<path fill="#FEFEFE" d="M3,76.4c0.8,0.1,1.5,0.1,2.3,0.2c0.3,0,0.4-0.1,0.5-0.3c0.3-0.7,0.6-1.4,1-2.3c0.2,0.8,0.4,1.5,0.5,2.2
		c0.1,0.4,0.3,0.6,0.7,0.6c0.7,0,1.4,0.1,2.3,0.2c-0.7,0.4-1.3,0.8-2,1.2c-0.4,0.2-0.5,0.4-0.4,0.8c0.2,0.7,0.3,1.4,0.5,2.2
		c-0.7-0.6-1.3-1.1-1.8-1.6c-0.2-0.2-0.4-0.2-0.6-0.1c-0.5,0.3-1.1,0.6-1.6,0.9c-0.1,0.1-0.3,0.2-0.5,0.1c0.3-0.7,0.6-1.4,0.9-2.1
		c0.1-0.2,0.1-0.4-0.1-0.6C4.1,77.5,3.5,77,3,76.4C2.9,76.4,2.9,76.4,3,76.4z"/>
	<path fill="#FEFEFE" d="M16,80.7c0.5,0.8,0.9,1.4,1.3,2.1c0.1,0.2,0.3,0.3,0.5,0.2c0.7-0.2,1.5-0.4,2.4-0.6c-0.5,0.7-1,1.2-1.5,1.7
		c-0.3,0.3-0.3,0.6-0.1,0.9c0.4,0.6,0.8,1.2,1.2,1.9c-0.8-0.3-1.6-0.6-2.3-0.9c-0.3-0.1-0.4-0.1-0.6,0.2c-0.5,0.6-1,1.2-1.6,1.9
		c0.1-0.9,0.1-1.6,0.2-2.4c0-0.3,0-0.5-0.4-0.6c-0.7-0.3-1.4-0.6-2.3-0.9c0.9-0.2,1.6-0.4,2.4-0.6c0.3-0.1,0.4-0.2,0.4-0.5
		C15.9,82.3,16,81.6,16,80.7z"/>
	<path fill="#FEFEFE" d="M13.3,62.5c-0.9,0.2-1.6,0.3-2.3,0.5c-0.3,0.1-0.5,0.2-0.5,0.5c-0.1,0.7-0.2,1.5-0.3,2.3
		C9.8,65,9.4,64.4,9,63.7c-0.1-0.2-0.3-0.3-0.6-0.3c-0.8,0.2-1.5,0.3-2.4,0.5c0.6-0.7,1.1-1.2,1.7-1.8c0.2-0.2,0.2-0.4,0.1-0.7
		c-0.4-0.6-0.7-1.3-1.1-2c0.6,0.1,1,0.4,1.5,0.6c1,0.5,1,0.5,1.8-0.4c0.4-0.4,0.7-0.8,1.2-1.2c-0.1,0.9-0.2,1.6-0.3,2.4
		c0,0.3,0,0.5,0.4,0.6C11.8,61.8,12.5,62.1,13.3,62.5z"/>
	<path fill="#FEFEFE" d="M45.7,28.6c-0.7,0.1-1.4,0.2-2.1,0.3c-0.3,0-0.5,0.1-0.6,0.6c-0.1,0.7-0.2,1.5-0.4,2.3
		c-0.4-0.8-0.8-1.5-1.1-2.2c-0.1-0.2-0.2-0.3-0.5-0.3c-0.8,0.2-1.5,0.3-2.5,0.4c0.6-0.6,1.2-1.2,1.7-1.7c0.2-0.2,0.2-0.4,0.1-0.6
		c-0.4-0.7-0.7-1.4-1.1-2.1c0.1-0.1,0.2,0,0.3,0.1c0.6,0.3,1.3,0.6,1.9,0.9c0.2,0.1,0.4,0.1,0.6-0.1c0.5-0.6,1.1-1.1,1.7-1.7
		c-0.1,0.8-0.2,1.6-0.3,2.3c-0.1,0.3,0.1,0.4,0.3,0.5c0.7,0.3,1.4,0.7,2,1C45.7,28.6,45.7,28.6,45.7,28.6z"/>
	<path fill="#FEFEFE" d="M6.5,36.3c0.7,0.1,1.3,0.2,2,0.4c0.3,0.1,0.4,0,0.5-0.2c0.4-0.7,0.8-1.4,1.2-2.2c0.1,0.9,0.2,1.7,0.3,2.4
		c0,0.3,0.1,0.4,0.4,0.4c0.8,0.1,1.6,0.3,2.4,0.5c-0.8,0.4-1.5,0.7-2.2,1c-0.3,0.1-0.4,0.3-0.4,0.7c0.1,0.7,0.2,1.5,0.3,2.4
		c-0.5-0.6-1-1-1.4-1.5c-0.5-0.6-0.5-0.6-1.2-0.2c-0.6,0.3-1.1,0.5-1.8,0.7c0.4-0.7,0.7-1.4,1.1-2c0.1-0.2,0.1-0.4-0.1-0.5
		c-0.5-0.5-1-1-1.5-1.6C6.2,36.2,6.4,36.2,6.5,36.3z"/>
	<path fill="#FEFEFE" d="M39.2,74.8c0.4-0.8,0.8-1.6,1.2-2.3c0.1-0.2,0-0.3-0.2-0.4c-0.6-0.5-1.1-1.1-1.7-1.6l0.1-0.1
		c0.8,0.1,1.5,0.2,2.3,0.4c0.3,0.1,0.4,0,0.6-0.3c0.3-0.7,0.7-1.3,1.1-2.2c0.1,0.7,0.2,1.2,0.3,1.7c0.1,1.1,0.1,1.1,1.2,1.2
		c0.5,0.1,1,0.2,1.5,0.3c0,0,0,0,0.1,0.1c-0.7,0.4-1.4,0.7-2.1,1c-0.2,0.1-0.3,0.2-0.3,0.5c0.1,0.8,0.2,1.5,0.4,2.4
		c-0.6-0.6-1.2-1.1-1.7-1.7c-0.2-0.2-0.4-0.2-0.6-0.1C40.7,74.1,40,74.4,39.2,74.8z"/>
	<path fill="#FEFEFE" d="M69.3,47.3c-0.5-0.6-1.1-1.1-1.6-1.7c-0.2-0.2-0.4-0.2-0.6-0.1c-0.5,0.3-1,0.6-1.5,0.8
		c-0.1,0.1-0.3,0.2-0.5,0.1c0.3-0.7,0.6-1.3,1-1.9c0.2-0.3,0.1-0.5-0.1-0.7c-0.5-0.5-1-1.1-1.5-1.6c0.5,0,1.1,0.1,1.7,0.2
		c0.8,0.1,0.8,0.1,1.2-0.6c0.3-0.5,0.5-1.1,0.9-1.8c0.1,0.8,0.3,1.5,0.4,2.2c0.1,0.4,0.2,0.7,0.7,0.7c0.7,0,1.4,0.2,2.2,0.3
		c-0.7,0.4-1.3,0.7-1.9,1c-0.5,0.2-0.6,0.5-0.5,1c0.2,0.7,0.2,1.3,0.4,2C69.4,47.2,69.4,47.2,69.3,47.3z"/>
	<path fill="#FEFEFE" d="M64.4,58c0.5-0.5,1-1.2,1.6-1.7c0.2-0.2,0.2-0.3,0.1-0.5c-0.3-0.7-0.7-1.3-1-2c0.1-0.1,0.2-0.1,0.4,0
		c0.5,0.3,1.1,0.6,1.6,0.9c0.3,0.2,0.5,0.2,0.7-0.1c0.5-0.6,1-1.1,1.5-1.7c0.1,0,0.1,0.1,0.2,0.1c-0.1,0.8-0.2,1.5-0.4,2.3
		c-0.1,0.3,0,0.4,0.3,0.6c0.7,0.3,1.3,0.7,2.2,1.1c-0.9,0.1-1.6,0.3-2.3,0.3c-0.4,0-0.5,0.2-0.6,0.6c-0.1,0.7-0.2,1.4-0.4,2.3
		c-0.4-0.8-0.7-1.4-1-2c-0.2-0.4-0.4-0.5-0.8-0.4C65.7,57.8,65,57.9,64.4,58z"/>
	<path fill="#FEFEFE" d="M9.4,52.3C8.5,52,7.8,51.8,7,51.5c-0.3-0.1-0.4,0-0.6,0.2C6,52.3,5.5,53,5,53.7c0-0.9,0-1.7,0-2.4
		c0-0.3-0.1-0.4-0.4-0.5c-0.7-0.2-1.4-0.5-2.2-0.7c0.4-0.2,0.7-0.3,1.1-0.4c0.5-0.2,1.1-0.2,1.4-0.5s0.1-1,0.1-1.5
		c0-0.4,0-0.7,0-1.3c0.5,0.7,1,1.3,1.4,1.9c0.2,0.3,0.3,0.4,0.7,0.2c0.7-0.3,1.4-0.5,2.3-0.7c-0.5,0.7-0.9,1.3-1.4,1.9
		c-0.2,0.3-0.2,0.4,0,0.7C8.5,51,8.9,51.6,9.4,52.3z"/>
	<path fill="#CFD4E0" d="M6.5,36.3c-0.1,0-0.2,0.1-0.2,0.1c-0.1,0-0.2-0.1-0.1-0.2C6.2,36.1,6.4,36.2,6.5,36.3z"/>
	<path fill="#C0133D" d="M31,62.5c-6.9,0-12.5-5.6-12.5-12.5S24.1,37.5,31,37.5S43.5,43.1,43.5,50S37.9,62.5,31,62.5z"/>
</g>
<g>
	<path opacity="0.2" enable-background="new    " d="M10.4,74.3V25.8c0-12.1,8.2-22.7,19.8-25.8H0v100h30.2
		C18.5,96.9,10.4,86.3,10.4,74.3z"/>
	<path opacity="0.1" fill="#FFFFFF" enable-background="new    " d="M89.6,25.8v48.5c0,12.1-8.2,22.7-19.8,25.8H100V0H69.8
		C81.5,3.1,89.6,13.7,89.6,25.8z"/>
</g>
</svg>
