<?xml version="1.0" encoding="utf-8"?>
<!-- Generator: Adobe Illustrator 23.0.0, SVG Export Plug-In . SVG Version: 6.00 Build 0)  -->
<svg version="1.0" id="Layer_1" xmlns="http://www.w3.org/2000/svg" xmlns:xlink="http://www.w3.org/1999/xlink" x="0px" y="0px"
	 viewBox="0 0 100 100" enable-background="new 0 0 100 100" xml:space="preserve">
<g>
	<path fill="#002A86" d="M0,100h100V0H0V100z"/>
</g>
<g>
	<g>
		<path fill="#FFEA0F" d="M44.1,35.8c-0.8,0-1.7,0.4-2.3,0.9c0.1,0.2,0.2,0.2,0.4,0.1v-0.1c0.1,0,0.2-0.1,0.4-0.2l0,0l0,0
			c0.1-0.1,0.3,0,0.4-0.1c0,0,0,0,0-0.1c0.6-0.4,1.2-0.3,2-0.2v0.2c-0.5-0.1-1.5-0.2-2,0.3c0.5,0.4,1.1,0.6,1.7,0.5l0.5-0.2
			c0.2,0.9,1.2,1.3,2,1.6c0.1-0.2,0.2-0.4,0.2-0.6c-0.2-0.2-0.5-0.2-0.7-0.5c0.3,0,0.6,0.1,0.8,0.4c0.1,0.2,0,0.5-0.1,0.6
			c0.1,0.1,0.2,0.1,0.2,0l0,0l1.1-0.9l0,0c0.1,0,0.2,0,0.2,0.1l0,0c0.4,0.4,0.9,0.6,1.3,1v0.1l0,0c-0.1,0-0.2-0.1-0.3-0.2
			c-0.4-0.3-0.8-0.5-1.2-0.8c-0.3,0.4-0.8,0.5-1.1,0.9c-0.7,0-1.4-0.5-2-0.9c-0.1-0.2-0.3-0.4-0.4-0.7c-0.2,0-0.3,0.1-0.5,0.2
			c-0.6,0-1.3-0.1-1.8-0.6c-0.4,0.1-0.9,0.7-1.3,0.2h-0.1c-1.5,1.4-3.4,2.3-4.6,4c0.2,0.3,0.6-0.1,0.9-0.2c0.4-0.3,1-0.5,1.4-1v-0.1
			l0,0l0,0l0,0l0,0c-0.1,0-0.2,0-0.2,0l0,0l0,0l0,0l0,0l0,0l0,0l0,0l0,0l0,0l0,0l0,0c0.1-0.1,0.2-0.1,0.3-0.2l0,0l0,0l0,0l0,0l0,0
			l0,0c0.5-0.3,1.1-0.6,1.5-1l0.7-0.6l0,0l0,0l0,0l0,0h0.1l0,0l0,0l0,0l0,0l0,0l0,0l0,0l0,0c-0.8,0.6-1.3,1.2-2.1,1.6v0.2
			c0.2,0,0.4-0.2,0.6-0.2c0.4-0.3,0.8-0.6,1.3-0.8c0,0.1,0.1,0.1,0,0.2c-0.2,0.1-0.2,0.2-0.4,0.2l0,0l0,0l0,0l0,0
			c-0.1,0-0.1,0-0.1,0.1l0,0l0,0c-0.1,0.2-0.4,0.3-0.6,0.4c-0.2,0-0.3,0.2-0.4,0.2l0,0h-0.1l0,0l0,0l0,0l0,0l0,0
			c-0.2,0.8-1.1,0.9-1.6,1.3l0,0c0,0.1,0,0.2,0.1,0.2h0.3c0.6-0.4,1.3-0.9,1.9-1.4c0.1,0,0.2-0.1,0.3-0.1l0,0l0,0l0,0l0,0l0,0l0,0
			l0,0c0,0.1-0.2,0.1-0.3,0.2c-0.5,0.5-1.1,0.9-1.7,1.3l0,0l0,0l0,0l0,0l0,0l0,0l0,0c0,0,0.1,0,0.1,0.1c0.7-0.1,1.1-0.7,1.6-1
			c0.5-0.4,1-0.8,1.4-1.3c0,0,0.1,0,0.1,0.1l0,0l0,0l0,0l0,0l0,0l0,0l0,0l0,0l0,0c0,0,0,0-0.1,0l0,0l0,0l0,0l0,0l0,0l0,0l0,0l0,0
			l0,0c-0.4,0.2-0.8,0.7-1.2,1c-0.3,0.3-0.7,0.5-1,0.8c0.3,0.2,0.6-0.1,0.9-0.1c0-0.2,0.3-0.4,0.5-0.5v0.1c-0.1,0.1-0.2,0.3-0.3,0.4
			c0.2,0,0.4,0,0.5-0.2c0.6-0.5,0.7-1.3,1.4-1.7c0.1,0.3-0.3,0.3-0.3,0.6c-0.2,0.2-0.3,0.4-0.4,0.7l0,0l-0.2,0.3
			c0.1,0.1,0.2,0.2,0.3,0.2c0.3-0.3,0.5-0.7,0.8-1.1c0,0,0,0,0.1,0l0,0l0,0l0,0l0,0l0,0l0,0l0,0l0,0c0,0,0,0,0,0.1
			c-0.1,0.1-0.3,0.3-0.4,0.5c0.4,0.2,0.5-0.4,0.7-0.6c0.1-0.3,0.3-0.7,0.5-0.9l0,0l0,0c0,0,0,0,0.1,0l0,0l0,0l0,0l0,0l0,0l0,0l0,0
			l0,0l0,0l0,0l0,0l0,0l0,0l0,0l0,0l0,0l0,0l0,0l0,0l0,0l0,0c-0.2,0.3-0.4,0.6-0.5,0.9l0,0l0,0l0,0c0.1,0,0.1,0.1,0.1,0.2l0,0l0,0
			l0,0l0,0l0,0l0,0l0,0l0,0l0,0l0,0l0,0l0,0l0,0l0,0c0.1-0.1,0.2-0.3,0.3-0.4l0,0l0,0l0,0l0,0l0,0v0.1l0,0l0,0
			c0,0.1-0.1,0.1-0.1,0.2l0,0l0,0l0,0l0,0l0,0l0,0l0,0l0,0c0,0,0,0,0.1,0.1c0.2-0.1,0.4-0.2,0.5-0.4l0,0l0,0l0,0
			c0,0.1-0.1,0.3-0.1,0.4l0,0l0,0l0,0l0,0l0,0l0,0l0,0l0,0l0,0l0,0c0,0,0.1,0,0.2,0l0,0l0,0l0,0v-0.1l0,0l0,0l0,0l0,0l0,0l0,0v0.1
			l0,0c0.2,0.2,0.4,0.2,0.6,0.4c0-0.1,0.1-0.2,0.1-0.2h0.1l0,0c0,0,0,0,0,0.1l0,0l0,0l0,0l0,0l0,0l0,0l0,0l0,0c0,0,0,0.1-0.1,0.1
			l0,0l0,0l0,0c0,0.1,0.1,0.1,0.1,0.1l0,0c0.1,0,0.1,0,0.2-0.1l0,0l0,0l0,0l0,0l0,0v0.1l0.1,0.1h0.1c0.1-0.1,0.1-0.2,0.2-0.2l0,0
			l0,0l0,0c0,0.2,0,0.3,0,0.5h0.1l0,0H46l0,0l0,0l0,0l0,0l0,0l0,0l0,0l0,0l0,0c0,0,0,0,0.1,0l0,0l0.2,0.1c0.1-0.3,0.2-0.5,0.2-0.8
			c0.1-0.1,0.1-0.1,0.1-0.2l0,0l0,0l0,0l0,0l0,0l0,0c0.4,0.3,0,0.3-0.1,0.1l0,0c-0.6-0.3-1.2-1-1.7-1.6l0,0
			c-0.1-0.1-0.1-0.2-0.1-0.3c-0.4,0.6-1.1,0.4-1.6,0.4c-0.5-0.2-1.2-0.5-1.3-1.2v-0.2l0,0l0,0l0,0l0,0l0,0l0,0l0,0l0,0l0,0l0,0
			c0,0.1,0,0.2,0,0.2l0,0l0,0l0,0l0,0l0,0l0,0l0,0c0.1,0.1,0.1,0.2,0.2,0.3l0,0c0.1-0.1,0.2-0.2,0.3-0.3c0.2,0.2-0.5,0.4,0,0.6
			l0.3-0.4l0.1,0.1c-0.1,0.1-0.2,0.2-0.2,0.4c0.1,0.1,0.2,0.1,0.3,0.2c0-0.3,0.2-0.5,0.4-0.7c0.2,0.2-0.1,0.4-0.2,0.6L42.9,38l0,0
			l0,0l0,0l0,0l0,0c0.4,0,1,0.3,1.2-0.3l0,0l0,0l0,0l0,0v0.1L44,38.2c0.4,0.2,0.5-0.3,0.7-0.5c0.1,0.1,0.1,0.3,0.2,0.4
			c0.7,0.7,1.3,1.6,2.2,1.9c0.1-0.2,0.3-0.5,0.4-0.7c0.2-0.1,0.4-0.1,0.7-0.1c0.2,0.1,0.4,0.3,0.5,0.5c0.1,0.4,0,0.7,0,1
			c0.2,0.1,0.6,0,0.8-0.1c0-0.4-0.4-1.1,0.2-1.3c0.3-0.1,0.6-0.1,0.9,0c0.1-0.4-0.1-0.9-0.3-1.3c0-0.1,0-0.1,0-0.2l0,0
			c0.1-0.1,0.3,0,0.4-0.1l0,0c0.9-0.2,1.9-0.5,2.3-1.5h0.1c0,0.9-1.1,1.3-1.8,1.5c-0.3,0.1-0.6,0.1-0.8,0.2c0,0.2,0.1,0.3,0.2,0.5
			c0.4,0,0.9-0.4,1.3-0.6c0.1,0,0.2-0.1,0.3-0.2c0.5-0.1,0.9-0.8,1.4-0.8c0.2,0,0.3,0.3,0.5,0.2c0.4,0.1,0.8,0,1.1-0.3l0,0
			c0.1-0.1,0.2,0,0.3,0c0.3,0.3,0.7,0.5,1.1,0.6c0.1,0,0.1,0,0.1,0l0,0l0,0l0,0l0,0c-0.9-0.7-1.8-1.4-2.9-1.4
			c-1.3-0.3-1.8,1.6-3.1,1.3c-0.3,0-0.8,0-0.9-0.3c-0.3,0.3-0.7,0.5-1.1,0.3c-0.3-0.2-0.5-0.3-0.8-0.5c-0.3,0.2-0.5,0.4-0.9,0.3
			C45.9,36.8,45.2,35.8,44.1,35.8C44.2,35.8,44.1,35.8,44.1,35.8z M46.1,37.1L46.1,37.1c0.2,0.1,0.4,0.2,0.4,0.4c0,0,0,0-0.1,0l0,0
			l0,0l0,0c-0.1,0-0.2-0.2-0.3-0.2C46.1,37.2,46.1,37.2,46.1,37.1L46.1,37.1L46.1,37.1L46.1,37.1L46.1,37.1L46.1,37.1L46.1,37.1
			L46.1,37.1z"/>
	</g>
	<g>
		<path fill="#FFEA0F" d="M53.7,40.8L53.7,40.8c-0.7,0.6-1.5,1-2.1,1.3c-0.6,0.2-1.2,0.3-1.8,0.3l0,0l0,0l0,0l0,0v0.1l0,0l0,0l0,0
			c-0.2,0.3-0.5,0.2-0.8,0.1c-0.3-0.1-0.8,0.1-1-0.1l-0.1-0.1l-0.1-0.1c-0.4-0.1-0.8-0.1-1.2-0.3l-0.3-0.1c-0.2-0.1-0.5-0.2-0.4-0.5
			l0,0l0,0l0,0l0,0l0,0l0,0l0,0l0,0c-0.1,0-0.1,0.1-0.1,0.1l0,0l0,0l0,0l0,0l0,0l0,0l0,0l0,0l0,0l0,0l0,0l0,0l0,0l0,0
			c-0.1-0.1-0.1-0.3-0.2-0.4l0,0c0,0.1,0,0.2-0.1,0.3c-0.2-0.1-0.5-0.2-0.7-0.5V41c0,0.1,0,0.1,0,0.2c-0.3-0.1-0.3-0.4-0.6-0.4
			c0,0.1,0,0.2,0,0.3l0,0l0,0l0,0l0,0l0,0l0,0l0,0c-0.1,0-0.3-0.2-0.4-0.2l0,0l0,0c-0.1,0.1,0,0.2-0.1,0.3c-0.2-0.1-0.4-0.3-0.6-0.1
			c0,0.2,0.1,0.4-0.1,0.6h0.1l0,0l0,0l0,0l0,0l0,0l0,0c0.1,0,0.2-0.2,0.3-0.2s0.2-0.2,0.4-0.2c0,0,0.1,0,0.2,0c0,0.1,0,0.1,0,0.2
			c0,0.1-0.2,0.2-0.2,0.3l0,0l0,0l0,0c0.1,0.1,0.2,0.1,0.3,0l0,0l0,0l0,0l0,0c0.1-0.1,0.1-0.4,0.2-0.5l0,0l0,0l0,0l0,0l0,0
			c0.1,0,0.2,0,0.3,0.1l0,0l0,0l0,0c0,0.1-0.1,0.2-0.1,0.3l0,0l0,0l0,0l0,0l0,0l0,0l0,0h0.1c0.1-0.1,0.2-0.3,0.4-0.4
			c0.1,0.1,0.1,0.2,0,0.3c0,0,0,0,0,0.1l0,0l0,0l0,0l0,0l0,0l0,0l0,0l0,0l0,0l0,0l0,0l0,0c0.3,0.2,0.4-0.4,0.8-0.2
			c0,0.2,0,0.3,0,0.4c0.2,0,0.4-0.3,0.6-0.1l0,0l0,0c0.1,0.1,0.1,0.3,0.2,0.4l0,0c0,0,0.1,0,0.2-0.1c0.3,0,0.5,0.3,0.8,0.1
			c0.2-0.1,0.4,0,0.6,0.5l4.2,0.1c0.7-0.6,1.5-0.8,2.2-0.8l0,0l0,0l0,0l0,0l0,0l0,0l0,0l0,0l0,0c-0.8-0.3-1.3,0.2-2.1,0.2
			c0-0.1-0.1-0.1-0.1-0.1l0,0l0,0l0,0l0,0l0,0l0,0l0,0c0.6-0.2,1-0.7,1.7-0.7c0.3-0.1,0.6-0.2,0.9-0.4c-0.2-0.1-0.3-0.1-0.5,0
			c-0.2,0.2-0.6,0.5-0.8,0.3c0.1-0.2,0.4-0.3,0.6-0.5l0,0l0,0l0,0C53.8,40.8,53.8,40.8,53.7,40.8C53.8,40.8,53.8,40.8,53.7,40.8
			C53.8,40.8,53.8,40.8,53.7,40.8C53.8,40.8,53.8,40.8,53.7,40.8C53.8,40.8,53.8,40.8,53.7,40.8C53.8,40.8,53.8,40.8,53.7,40.8
			C53.8,40.8,53.8,40.8,53.7,40.8C53.8,40.8,53.8,40.8,53.7,40.8C53.8,40.8,53.8,40.8,53.7,40.8C53.8,40.8,53.8,40.8,53.7,40.8
			C53.8,40.8,53.7,40.8,53.7,40.8L53.7,40.8z M51.1,42.6L51.1,42.6L51.1,42.6L51.1,42.6L51.1,42.6C51.2,42.6,51.2,42.6,51.1,42.6
			c0,0.1-0.2,0.1-0.3,0.1l0,0l0,0l0,0l0,0c0,0,0,0,0-0.1C50.9,42.6,51,42.6,51.1,42.6z M50.3,42.6L50.3,42.6L50.3,42.6L50.3,42.6
			L50.3,42.6L50.3,42.6L50.3,42.6L50.3,42.6L50.3,42.6C50.4,42.6,50.4,42.6,50.3,42.6C50.4,42.6,50.4,42.6,50.3,42.6
			C50.4,42.7,50.4,42.7,50.3,42.6L50.3,42.6C50.4,42.7,50.4,42.7,50.3,42.6C50.4,42.7,50.4,42.7,50.3,42.6c0,0.2-0.1,0.1-0.2,0.1
			l0,0l0,0l0,0l0,0l0,0C50.1,42.7,50.2,42.6,50.3,42.6L50.3,42.6L50.3,42.6z"/>
	</g>
	<g>
		<path fill="#FFEA0F" d="M49,35c-0.2,0-0.3,0-0.4,0.1c-0.5,0.1-0.5,0.7-0.6,1.1c0,0.2-0.2,0.4-0.2,0.5l0,0l0,0l0,0h0.1l0,0l0,0l0,0
			l0,0l0,0c0.1,0.1,0.2,0.1,0.3,0.1l0,0l0,0l0,0l0.1-0.1h0.1l0,0c0,0.1,0,0.2-0.1,0.3l0,0l0,0l0,0l0,0l0,0l0,0l0,0c0,0,0,0,0.1,0
			l0,0l0,0l0,0l0,0c0.4,0.1,0.6-0.2,0.9-0.4c0.1-0.3-0.4-0.7-0.2-1.1c0.2-0.2,0.4-0.1,0.7-0.2c0,0,0,0.1,0.1,0.1l0,0H50
			c0.1-0.2,0-0.4-0.2-0.6c-0.2-0.1-0.4,0-0.5,0.1L49.2,35l0,0l0,0l0,0l0,0l0,0l0,0l0,0c-0.1-0.1-0.1-0.2-0.1-0.2l0,0
			c-0.1,0-0.1,0-0.2,0l0,0C49.1,35,49,35,49,35z M49,35.3c0.1,0,0.2,0.1,0.2,0.1c0,0.1-0.1,0.2-0.1,0.2C49,35.5,48.9,35.4,49,35.3
			C48.9,35.3,48.9,35.3,49,35.3C48.9,35.3,48.9,35.3,49,35.3C48.9,35.3,49,35.3,49,35.3L49,35.3L49,35.3L49,35.3L49,35.3L49,35.3z"
			/>
	</g>
	<g>
		<path fill="#FFEA0F" d="M55.5,37.2c0.4,0.2,0.8,0.5,1.3,0.4c0.8,0.5,1.6,1.1,2.4,1.5c0.4,0.4,1,0.6,1.3,1.1
			c-0.9-0.6-1.9-0.9-2.7-1.6c-0.4-0.1-0.7,0-1-0.2c-0.5-0.2-0.9-0.7-1.4-1c-0.1-0.1-0.2-0.3-0.1-0.4C55.3,36.8,55.3,37.1,55.5,37.2"
			/>
	</g>
	<g>
		<path fill="#FFEA0F" d="M53.6,37.2c-0.1,1.2-1.4,1.9-2.2,2.6c-0.2,0-0.3,0.2-0.6,0.2c-0.2-0.4-0.3-0.9-0.3-1.4
			c0.9-0.2,1.6-0.8,2.4-1.3c0.1-0.2,0.3-0.3,0.4-0.4C53.4,37.1,53.5,37.2,53.6,37.2"/>
	</g>
	<g>
		<path fill="#FFEA0F" d="M55.8,38.1c-0.2,0.2-0.4,0.2-0.7,0.1c0-0.1-0.1-0.1-0.1-0.2c-0.2,0-0.3,0.4-0.5,0.1
			c-0.3-0.1-0.4,0.3-0.7,0.1h-0.3c-0.1,0.4,0.4,0,0.5,0.2c0.2,0.2,0.4-0.5,0.6-0.1c0.2,0.1,0.3-0.1,0.4-0.1c0.1,0.2,0.3,0.1,0.5,0.1
			c0.1,0,0.1-0.1,0.2,0c0.2,0.4,0.5,0.7,0.9,1c0.1-0.2-0.3-0.4-0.4-0.6c-0.2-0.2-0.4-0.4-0.3-0.6H55.8c0.1,0.1,0.1,0,0.2,0.1l0,0
			l0,0c0.4,0.2,1,0.8,1.4,0.5c0,0,0,0,0,0.1c0.5-0.1,0.8,0.5,1.3,0.6c0.4,0.2,0.7,0.4,1.1,0.7c0.4,0.2,0.6,0.3,0.8,0.7
			c0,0.1,0,0.3-0.1,0.3h-0.1c-0.7-0.5-1.4-1-2.1-1.5c-0.1,0.1,0,0.2,0,0.2c0.6,0.4,1.3,0.9,1.9,1.4c-0.1,0.1-0.1,0.3-0.3,0.2
			c-0.5-0.1-1-0.5-1.4-0.8c-0.4-0.6-1.1-0.8-1.4-1.4c0,0-0.1,0-0.1,0.1v0.1c0.8,0.7,1.5,1.7,2.5,2.2c0,0.1,0,0.1,0,0.2
			c-0.2-0.1-0.4-0.3-0.7-0.3c-0.2,0.2-0.4,0.1-0.6,0c-0.4-0.4-0.9-0.9-1.2-1.3c0,0-0.1,0-0.1,0.1c0.1,0.4,0.6,0.8,0.9,1.1
			c-0.1,0.1-0.1,0.2-0.2,0.2l-0.5-0.5H57c-0.4-0.4-0.8-0.8-1-1.3h-0.1c0.2,0.6,0.7,1,1.1,1.5v0.1c-0.4-0.2-0.7-0.6-1.1-0.7
			c-0.1-0.4-0.4-0.7-0.5-1.1c-0.1,0-0.1,0-0.1,0.1c0,0.4,0.4,0.7,0.4,1l0,0c-0.3,0-0.4-0.3-0.7-0.5c0-0.2-0.1-0.6-0.2-0.8h-0.1
			c0,0.2,0.2,0.6,0.1,0.8c-0.1-0.1-0.2-0.4-0.4-0.4c-0.2,0.3-0.7,0.1-0.9,0.5l0,0l0,0c0-0.1,0-0.2-0.1-0.2c-0.1,0.1-0.1,0.3-0.2,0.5
			c-0.1-0.1-0.3,0-0.3-0.2c-0.2,0,0,0.3-0.2,0.4c-0.1,0-0.1-0.3-0.3-0.2V41c-0.1,0-0.3-0.1-0.4,0c-0.1,0.1-0.1,0.2-0.1,0.2
			c-0.1,0-0.2-0.2-0.3-0.1c-0.1,0.1-0.1,0.3-0.2,0.2c0-0.1-0.2-0.2-0.1-0.3c0-0.3-0.2-0.5-0.1-0.8c0.8-0.1,1.3-0.9,1.9-1.4
			c0.6-0.4,0.8-0.9,0.9-1.5c0.4,0.1,0.8,0,1.1-0.1C55,37.6,55.5,37.7,55.8,38.1"/>
	</g>
	<g>
		<path fill="#FFEA0F" d="M48.5,39.9c0,0.8-0.2,1.5-0.3,2.3H48c0-0.1,0.1-0.3,0-0.4c-0.3,0,0.1,0.8-0.4,0.5
			c-0.1-0.1,0.1-0.3-0.2-0.3c0,0.1-0.1,0.1,0,0.2c-0.1,0-0.2,0-0.3-0.1c0-0.2,0.4-0.5,0.2-0.7c-0.2,0.2-0.4,0.4-0.4,0.7h-0.1
			c0.3-0.6,0.1-1.2,0.4-1.8l0,0h0.1c0-0.1,0.1-0.3,0.1-0.4c0-0.1,0.2-0.2,0.3-0.3c0.1,0.1,0.2,0,0.2-0.1
			C48.2,39.4,48.4,39.6,48.5,39.9"/>
	</g>
	<g>
		<path fill="#FFEA0F" d="M49.9,39.5c-0.1,0-0.2,0-0.3,0c-0.2,0.1-0.2,0.2-0.2,0.4c0.2,0.8,0.1,1.5,0.3,2.3l0,0l0,0l0,0l0,0l0,0
			c0.1,0,0.2,0,0.3,0v-0.1c0-0.1-0.1-0.4-0.1-0.5l0,0H50c0.1,0.2,0.1,0.5,0.1,0.7l0.9-0.2c-0.1-0.2,0-0.4-0.1-0.6l0,0l0,0l0,0l0,0
			l0,0l0,0l0,0l0,0l0,0l0,0l0,0l0,0l0,0l0,0l0,0l0,0l0,0c-0.4-0.5-0.1-1.2-0.6-1.7C50.2,39.5,50,39.5,49.9,39.5z M50.6,41.7
			c0.1,0.1,0.1,0.2,0.1,0.4l0,0l0,0l0,0l0,0l0,0l0,0l0,0C50.6,42,50.5,41.8,50.6,41.7C50.5,41.7,50.5,41.7,50.6,41.7
			C50.5,41.7,50.5,41.7,50.6,41.7C50.5,41.7,50.6,41.7,50.6,41.7L50.6,41.7z"/>
	</g>
	<g>
		<path fill="#FFEA0F" d="M49.3,41c0,0.5,0,1,0.3,1.4c0,0.1-0.1,0.2-0.1,0.2c-0.2,0.1-0.4-0.2-0.6-0.1c0-0.1,0.1-0.2,0-0.3
			c-0.1,0-0.2,0.1-0.2,0.2v0.2h-0.2c-0.1-0.1,0.1-0.4-0.1-0.5c0-0.3,0-0.7,0.1-1.1C48.8,41.1,49.1,40.9,49.3,41"/>
	</g>
	<g>
		<path fill="#FFEA0F" d="M48.1,42.6v-0.3c0.1,0,0.1-0.1,0.2-0.1v0.4C48.3,42.6,48.1,42.6,48.1,42.6z"/>
	</g>
</g>
<g>
	<path fill="#FFEA0F" d="M49.2,64.3L49.2,64.3c-0.2-0.1-3.5-1.3-4.7-1.9c-1.9-1.1-3.8-3-5.8-5.7c-2.4-3.3-3-7.8-3.1-8
		c-0.1-1.1-0.1-2.1,0.4-4.1s1.5-2.5,1.9-2.8c0.5-0.3,1-0.3,1.6-0.2s1.1,0.7,1.3,1l15.8,0.1c0.2-0.2,0.6-0.6,1.1-0.8
		c0.6-0.2,1.4-0.4,2.7,0.5c1.4,0.9,1.8,3.9,2,4.8c0.2,1.7-0.1,3.5-0.8,5.4l-0.1,0.2c-0.9,2.1-1.4,3.5-4.7,6.9
		C53.7,63.2,49.4,64.3,49.2,64.3L49.2,64.3z M39.1,42.1c-0.3,0-0.6,0.1-0.8,0.2c-0.4,0.2-1.2,0.7-1.7,2.5c-0.5,1.9-0.5,2.8-0.4,3.9
		c0,0,0.6,4.6,3,7.8C41,59.1,43,61,44.8,62c1.1,0.6,4,1.7,4.5,1.8c0.6-0.1,4.4-1.3,7.4-4.4c3.2-3.3,3.7-4.6,4.6-6.8l0.1-0.2
		c0.7-1.8,1-3.5,0.8-5.1c-0.2-1.7-0.8-3.8-1.8-4.5c-1.1-0.7-1.8-0.7-2.3-0.4c-0.5,0.2-1,0.8-1,0.8L57,43.3h-0.1l-16.2-0.1L40.6,43
		c-0.1-0.2-0.5-0.8-1-0.9C39.4,42.1,39.2,42.1,39.1,42.1z"/>
</g>
<g>
	<path fill="#FFEA0F" d="M46.2,44.1L46.2,44.1L46.2,44.1L46.2,44.1C46.2,44.1,46.1,44.2,46.2,44.1c-0.1,0.2,0.1,0.4,0.1,0.4l0.2,3.7
		h-0.4V47l-0.6,0.1v1h-0.6l-0.4,0.4l-0.1-1.1l0.8-0.1L45.1,47l-0.7,0l-0.2-1.9h-0.3l0.1,3.4l-0.7-0.1l-0.5-2.3h-0.2l-0.1,0.1h-0.6
		V47l0.7,0.1l0.3,1.5c0,0-0.1,0-0.2,0.1l0,0l0,0l0,0l0,0l0,0l0,0l0,0l0,0l0,0l0,0l0,0l0,0l0,0l0,0l0,0l0,0c0.1,0.1,0.3,0.4,0.3,0.4
		l1.5-0.1l0.2-0.2L45,49h0.5l0.2-0.3L46,49c0,0,0.9-0.3,1.3-0.3s7.1,0.2,7.1,0.2l-0.2,0.4c0,0,0,0.2,0.3,0.3c0.2,0,4.2,0,4.2,0
		l-0.2,0.7l0.1,0.4L58,51.2h0.4l-0.6,0.9l0.4,0.1l-0.4,0.4h0.6V54h0.3v-0.5h0.4V54h0.4v-0.8h0.2V54H60l0.1-2.3l0.4,0.2l-0.1-0.6h0.2
		c0,0-0.4-0.6-0.4-0.8c0-0.3,0-0.6,0-0.6l0.3,0.1l0.2,0.3l-0.1,0.3l0.3-0.1L60.8,53l-0.4,0.5l0.3-0.2l0.1,0.2l0.4-0.8v-2.1l0.1-0.6
		h0.4v-0.2l-0.4-0.2l0.4-0.2L61.5,49l-0.1-0.6l0.4-0.3L61.4,48l-0.1-0.6l0.3-0.2c0,0-0.2-0.3-0.3-0.5c-0.1-0.1-0.1-0.4-0.1-0.4
		l0.5-0.2c0,0-0.6-0.5-1-0.7c-0.3-0.2-1-0.4-1.1-0.6l0,0c-0.1-0.1-0.4-0.4-0.4-0.4s-0.3-0.1-0.4,0l0,0l0,0l0,0l0,0
		c-0.2,0.1-1.8,1.5-1.9,1.6c-0.1,0.1-0.2,0.6-0.3,0.8c-0.1,0.1-0.3,0.5-0.5,0.7C56,47.6,56,47.8,56,47.8l0.1,0.1l0,0l0,0l0,0l0,0
		l0,0l0,0l0,0c0.1,0,0.4-0.2,0.5-0.1c0.1,0,0.2,0.1,0.2,0.2c0,0-0.1,0-0.3,0s-0.6,0.2-0.8,0.3s-0.5,0.3-0.5,0.3h-0.1L56,48l-0.2-0.1
		l0,0c-0.1,0-0.5,0.3-0.7,0.4c-0.2,0.1-0.4,0.3-0.4,0.3v0.1c0-0.1-0.7-1.1-1.6-1.2c-0.9,0-1.6,1.1-1.6,1.2l-2-0.3l0.1,0.2l-1.1-0.1
		l0.6-0.2l0.1,0.1l0.3-0.1l-1.8-0.5l-0.2,0.5H47l-0.4-3.7c0,0,0.1-0.2,0-0.3l0,0l0,0l0,0l0,0C46.4,44.1,46.3,44.1,46.2,44.1
		C46.3,44.1,46.3,44.1,46.2,44.1C46.3,44.1,46.3,44.1,46.2,44.1C46.3,44.1,46.3,44.1,46.2,44.1C46.3,44.1,46.2,44.1,46.2,44.1
		L46.2,44.1L46.2,44.1L46.2,44.1L46.2,44.1L46.2,44.1L46.2,44.1L46.2,44.1z M60.1,45.4c0,0,0.2,0.1,0.3,0.1c0.1,0.1,0.1,0.2,0.1,0.4
		s0,0.4-0.1,0.4l0.2,0.3l0.2-0.3h0.1L60.6,47l0,0l0,0l0,0l0,0l0,0h0.1l0,0l0,0l0,0c0.1,0,0.1,0.2,0.1,0.2s0,0.4,0,0.6
		c0,0.1,0,0.1,0,0.2l0,0l0,0l0,0h-0.1l0,0c0,0,0.1,0.1,0.2,0.2c0.1,0.1,0.1,0.3,0.1,0.9c0,0.5-0.4,0.7-0.4,0.7L60.2,49l0.3-0.2
		L60.1,48l0.4-0.2c0,0-0.1-0.2-0.3-0.4s0-0.6,0-0.6s0.1-0.2,0-0.4s0-0.3,0-0.4l0,0c0,0-0.1-0.2,0-0.4l0,0l0,0l0,0
		C60.3,45.6,60.2,45.5,60.1,45.4z M59.8,45.6l-0.1,0.2l0.2,0.3c0,0-0.1,0.4,0,0.6l0,0l0,0l0,0c0.1,0.1,0.4,0.3,0.2,0.8
		s-0.2,0.7-0.2,1c0,0.2,0,0.5,0,0.5h-0.1l-0.1-0.5l-0.1-0.2c0,0,0.1-0.4,0.1-0.6c0-0.2-0.2-0.6-0.2-0.6s-0.8,0.2-1,0.2
		c-0.2,0.1-0.5,0.2-0.5,0.2v-0.2c0,0,1.1-0.4,1.2-0.5c0.1-0.1,0.3,0,0.3,0l0.2-0.6c0,0-0.2-0.2-0.2-0.3l0,0l0,0l0,0l0,0
		C59.4,45.8,59.7,45.6,59.8,45.6z M58.6,47.6L58.6,47.6L58.6,47.6L58.6,47.6L58.6,47.6L58.6,47.6L58.6,47.6L58.6,47.6
		C58.6,47.6,58.7,47.6,58.6,47.6C58.7,47.6,58.7,47.6,58.6,47.6C58.7,47.6,58.7,47.6,58.6,47.6C58.7,47.6,58.7,47.6,58.6,47.6
		C58.7,47.6,58.7,47.6,58.6,47.6C58.7,47.6,58.7,47.6,58.6,47.6C58.7,47.6,58.7,47.6,58.6,47.6C58.7,47.6,58.7,47.6,58.6,47.6
		L58.6,47.6L58.6,47.6L58.6,47.6c0.1,0.1,0.1,0.2,0.1,0.2l-0.2,0.4l0.1,0.1l0.4,0.2l0.1-0.6l0.2-0.1c0,0,0.1,0.2,0.1,0.3
		s-0.2,0.5-0.3,0.7s0,0.4,0,0.4L59,49.5h-0.1v-0.2c0,0,0-0.2-0.1-0.3l0,0l0,0l0,0l0,0c-0.1-0.1-0.2,0-0.3,0l0,0l0,0l0,0
		c-0.1,0-0.3-0.2-0.3-0.2s-0.1,0-0.2,0.1l0,0l0,0l0,0l0,0l0,0c-0.1,0-0.2-0.1-0.3-0.3S57.5,48,57.5,48l-0.1,0.1L57.3,48l0.5-0.4v0.2
		L57.6,48c0,0,0,0.1,0,0.4c0,0.3,0.3,0.3,0.3,0.3l0.2-0.2l0.2,0.3h0.4l0.1-0.3c0,0-0.6-0.3-0.7-0.4c0,0,0,0,0-0.1
		c-0.1-0.1,0-0.3,0.1-0.4C58.4,47.7,58.5,47.6,58.6,47.6L58.6,47.6L58.6,47.6z M59.8,49.1v0.4l-0.2,0.4l-0.1-0.1l-0.1-0.6L59.8,49.1
		z M59,49.9l0.2,0.3L59,50.5l-0.2,0.1v-0.4L59,49.9z M59.6,50.6h0.2c0,0,0,0.3,0,0.4c0,0.1-0.2,0.6-0.2,0.6l-0.2-0.3L59.6,50.6z
		 M58.9,50.9l0.1,0.2l-0.1,0.4h-0.2v-0.4L58.9,50.9z M59,51.8l0.1,0.2L59,52.1h-0.3L59,51.8z M59.4,52.1h0.3l-0.1,0.8h-0.1v-0.8
		H59.4z M58.8,52.5l0.3,0.1v0.1l-0.4,0.4h-0.1v-0.4L58.8,52.5z"/>
</g>
<g>
	<path fill="#FFEA0F" d="M46.9,48.9c-0.2,0-0.4,0.2-0.6,0.3l0,0l0,0c-0.2,0.2,0.1,0.9,0.2,1.5c0.1,0.6,1.1,2,1.1,2l0.5,0.9
		c0,0-0.1,0.1-0.2,0.2c-0.1,0.1-0.3,0.6-0.2,1.2c0.1,0.6,0.6,0.8,0.8,1c0.2,0.1,0.8,0,0.8,0l0.2,0.2L46.3,56l0.2-0.9l0.2-0.4
		c0,0,0.1,0.6,0.1,0.7l0,0l0,0l0,0l0,0l0,0l0,0l0,0h0.1l0,0l0,0l0,0l0,0l0,0C47,55.3,47,55,47,54.6c0-0.4,0-1.6,0-1.9
		c0-0.3-0.3-0.4-0.3-0.4L46,52.5v-0.2l0,0l0,0l0,0c-0.1-0.1-0.3-0.2-0.5-0.2S44.3,52,44,52s-1.2,0.2-1.9,0.1c-0.7,0-1.9,0.2-1.9,0.2
		l-0.5-0.4L39.5,52h-0.3l0.1,0.4c0,0-0.2,1-0.3,1.2l0,0l0,0l0,0c0,0.2,0.2,0.4,0.3,0.4c0.2,0.1,0.4,0.1,0.4,0.1l0.3-0.2V54
		c0,0.1,0.1,0.3,0.1,0.3s0.3,0.1,0.5,0.1l0,0c0.1,0,0.5-0.1,0.5-0.1s0.2,0.5,0.3,0.8c0.1,0.2,0,1,0,1s-0.4,0.1-0.5,0.2l0,0l0,0l0,0
		l0,0l0,0l0,0l0,0l0,0l0,0l0,0l0,0l0,0l0,0l0,0l0,0c0.1,0.1,0.3,0.2,0.5,0.2c0.3,0,1.1,0,1.7,0c0.6,0,1.9-0.1,2.5-0.1
		s1.2-0.1,1.9-0.1c0.6,0,2.2,0.1,2.6,0.1c0.4,0,1.7,0.1,2,0.1c0.4,0,1.9,0,2.2,0.1c0.4,0,2.4,0.3,2.5,0.2h0.1l0,0l0,0l0,0l0,0l0,0
		l0,0l0,0l0,0l0,0l0,0l0,0l0,0l0,0l-0.6-0.2c0,0-1.1,0-1.2,0l0,0l0,0l0,0h0.1c0.6-0.1,1.2-0.6,1.3-0.9c0.1-0.3,0-1,0-1s0.3,0,0.4,0
		c0.1,0,0.5,0,0.7,0s0.4-0.1,0.5-0.2c0.2-0.1,0.3-0.2,0.3-0.2l-0.8-0.1l0.1-0.5v0.4L58,54v-1.1l-0.1-0.1l-0.3,0.3l0.1,0.1l-0.2,0.1
		L57.3,53l-0.4,0.7h0.2L57,54.1h-0.5c0,0,0-0.5,0-1s0.8-2.1,1.1-2.4c0.3-0.3,0.3-0.6,0.2-0.8l0,0l0,0l0,0l0,0
		c-0.1-0.1-0.6-0.2-0.8-0.2c-0.3,0-0.6,0.2-0.8,0.1c-0.2-0.1-0.8,0-0.9,0.1l0,0l0,0l0,0l0,0c-0.1,0.1-0.6,0.1-0.9-0.1
		c-0.4-0.2-0.7-0.1-1,0s-0.5,0-0.7-0.2c-0.3-0.2-0.7-0.1-0.8,0l0,0l0,0c-0.1,0.1-0.5,0.1-0.7-0.1c-0.2-0.2-0.4-0.1-0.9-0.1
		c-0.5,0.1-0.5-0.1-0.8-0.2c-0.3-0.1-1.1,0.1-1.5,0.2c-0.4,0-0.4-0.1-0.9-0.4C47.2,48.9,47.1,48.9,46.9,48.9L46.9,48.9L46.9,48.9
		L46.9,48.9L46.9,48.9L46.9,48.9L46.9,48.9L46.9,48.9L46.9,48.9z M39.8,53C39.9,53,39.9,53,39.8,53v0.2l0,0l0,0l0,0l0,0h-0.1l0,0
		l0,0l0,0c0,0,0,0,0-0.1C39.7,53.1,39.8,53.1,39.8,53z M40.8,53.3L40.8,53.3C40.9,53.3,40.9,53.3,40.8,53.3L40.8,53.3
		c0.1,0,0.1,0.1,0,0.2l0,0l0,0l0,0l0,0l0,0l0,0l0,0l0,0l0,0l0,0C40.7,53.6,40.6,53.4,40.8,53.3L40.8,53.3z M56.3,53.5l0.1,0.7
		c0,0-0.2-0.3-0.4-0.4c-0.2-0.1-0.5-0.1-1.1-0.1s-1,0.7-1,0.7h-0.1l0.2-0.7l-3.4,0.1c0,0,0.3,0.1,0.6,0.3s0.5,0.7,0.5,0.7L51.5,55
		h1.3c0,0-0.1,0.5,0,0.7s0.3,0.5,0.3,0.5h-2.2c0,0,0.4-0.5,0.5-0.6c0.1-0.2,0.1-0.6,0.1-0.6s-0.1-0.1-0.2-0.3
		c-0.1-0.2-0.2-0.3-0.5-0.5l0,0c-0.2-0.2-1.5-0.3-1.5-0.3L49,53.7L56.3,53.5z M52.2,53.8l0.1,0.2v0.3h-0.2V54L52.2,53.8z M55.2,54
		L55.2,54v0.5h-0.1L55.2,54z M41.8,54l0.1,0.3l-0.1,1.6c0-0.1-0.2-1.2-0.3-1.3l0,0c-0.1-0.1-0.2-0.4-0.2-0.4L41.8,54z M48.4,54
		l0.5,0.1l-0.3,0.2L48.4,54L48.4,54z M53.3,54h0.2l-0.1,0.4l-0.1-0.3L53.3,54z M55,54l0.1,0.5l-0.2,0.1l-0.2-0.5L55,54z M54.4,54.1
		l0.2,0.4v0.1l-0.3-0.2L54.4,54.1z M49.7,54.2h0.2v0.5l-0.3-0.3L49.7,54.2z M55.7,54.2l0.1,0.2l-0.2,0.3h-0.1L55.7,54.2z M50.3,54.2
		l0.2,0.2l-0.2,0.4h-0.2v-0.1L50.3,54.2z M45.3,54.3l0.1,0.4l0.5,0.3l-0.2,1.1h-0.9L45.3,54.3z M48.2,54.4l0.5,0.2l-0.1,0.1
		L48.2,54.4L48.2,54.4z M51.9,54.4h0.7v0.2H52L51.9,54.4z M49.4,54.6l0.2,0.2L49.5,55h-0.3L49.4,54.6z M54.1,54.6l0.4,0.2V55
		l-0.4,0.1V54.6z M42.3,54.7l0.6,0.5v0.9L42.2,56L42.3,54.7z M56,54.7v0.2L55.6,55v-0.3H56z M50.6,54.7h0.2v0.4h-0.3V55L50.6,54.7z
		 M48,54.8l0.5,0.1l-0.5,0V54.8z M55.1,54.9L55.1,54.9L55.1,54.9C55.2,54.9,55.2,54.9,55.1,54.9C55.2,54.9,55.2,54.9,55.1,54.9
		C55.2,54.9,55.2,54.9,55.1,54.9C55.2,54.9,55.2,54.9,55.1,54.9C55.2,54.9,55.2,54.9,55.1,54.9C55.2,54.9,55.2,54.9,55.1,54.9
		C55.2,54.9,55.2,54.9,55.1,54.9L55.1,54.9l0.1,0.2l0,0v0.1l0,0l0,0l0,0l0,0c0,0,0,0-0.1,0c0,0,0,0-0.1,0l0,0l0,0l0,0l0,0
		c0,0,0,0,0-0.1l0,0C55,55,55,55,55.1,54.9L55.1,54.9L55.1,54.9L55.1,54.9L55.1,54.9L55.1,54.9z M44.7,54.9l-0.5,1.2h-0.6
		c0,0-0.1-0.2-0.1-0.3s0-0.9,0-0.9H44.7z M49.9,55.1L49.9,55.1L49.9,55.1C49.9,55.1,50,55.1,49.9,55.1C50,55.1,50,55.1,49.9,55.1
		C50,55.1,50,55.1,49.9,55.1C50,55.1,50,55.1,49.9,55.1C50,55.1,50,55.1,49.9,55.1C50,55.1,50,55.1,49.9,55.1
		C50,55.1,50,55.1,49.9,55.1C50,55.1,50,55.1,49.9,55.1C50,55.1,50,55.1,49.9,55.1L49.9,55.1L49.9,55.1L49.9,55.1L49.9,55.1
		L49.9,55.1L49.9,55.1L49.9,55.1L49.9,55.1L49.9,55.1L49.9,55.1L49.9,55.1L49.9,55.1L49.9,55.1L49.9,55.1L49.9,55.1L49.9,55.1
		L49.9,55.1L49.9,55.1L49.9,55.1L49.9,55.1L49.9,55.1L49.9,55.1L49.9,55.1L49.9,55.1L49.9,55.1C50,55.1,50,55.1,49.9,55.1L49.9,55.1
		L49.9,55.1L49.9,55.1L49.9,55.1L49.9,55.1L49.9,55.1L49.9,55.1L49.9,55.1C49.9,55.2,49.9,55.2,49.9,55.1
		C49.9,55.2,49.9,55.2,49.9,55.1C49.9,55.2,49.9,55.2,49.9,55.1C49.9,55.2,49.9,55.2,49.9,55.1C49.9,55.2,49.9,55.1,49.9,55.1
		L49.9,55.1L49.9,55.1L49.9,55.1L49.9,55.1L49.9,55.1L49.9,55.1L49.9,55.1z M48.6,55.2L48.6,55.2l-0.3,0.3l-0.1-0.2L48.6,55.2z
		 M55.7,55.2H56v0.1L55.7,55.2L55.7,55.2L55.7,55.2z M49.2,55.2h0.4v0.2l-0.2,0.3L49.2,55.2z M53.4,55.2h0.2v0.2l-0.1,0.1v-0.3H53.4
		z M54.5,55.3v0.2l-0.3,0.2l-0.1-0.3L54.5,55.3z M50.5,55.3l0.4,0.1l-0.1,0.2l-0.3-0.1L50.5,55.3z M55.4,55.4l0.2,0.4L55.3,56v-0.5
		L55.4,55.4z M48.7,55.5L48.7,55.5v0.4l-0.3-0.1L48.7,55.5z M50.2,55.6L50.2,55.6l0.2,0.3L50.2,56V55.6z M49.8,55.6l0.2,0.2V56h-0.3
		L49.8,55.6z M54.6,55.8v0.3L54.4,56L54.6,55.8z M54.9,55.9L54.9,55.9l0.1,0.4h-0.2L54.9,55.9z"/>
</g>
<g>
	<g>
		<path fill="#002A86" d="M53.6,53.3C53.5,53.3,53.5,53.2,53.6,53.3c-0.1-0.1-0.1-0.4,0.1-0.6c0.1-0.1,0.2-0.1,0.3-0.1
			c0,0,0.1,0,0.1,0.1c0,0,0,0.1-0.1,0.1s-0.1,0-0.2,0.1C53.7,52.9,53.6,53.1,53.6,53.3C53.6,53.2,53.6,53.3,53.6,53.3z M51.1,53.3
			C51.1,53.3,51,53.2,51.1,53.3C51,53.2,51,53.1,51,52.8c0-0.2-0.1-0.2-0.4-0.2h-0.1c-0.3,0-0.3,0.2-0.3,0.2v0.4c0,0,0,0.1-0.1,0.1
			c0,0-0.1,0-0.1-0.1v-0.4l0,0l-0.1-0.1c0,0-0.1,0-0.1-0.1c-0.1-0.1-0.4-0.1-0.5-0.1c0,0-0.1,0-0.1-0.1s0-0.1,0.1-0.1
			c0,0,0.5,0.1,0.6,0.2c0,0,0.1,0,0.1,0.1c0,0,0.1,0,0.1,0.1c0.1-0.1,0.2-0.2,0.4-0.2h0.1c0.3,0,0.5,0,0.6,0.4
			C51.2,53.1,51.2,53.2,51.1,53.3C51.2,53.2,51.1,53.3,51.1,53.3L51.1,53.3z M51.4,53.2L51.4,53.2c-0.1-0.1-0.1-0.4,0-0.6
			c0.1-0.1,0.2-0.1,0.3-0.1c0.5,0,0.8,0,0.9,0.3c0,0.2,0.1,0.4,0.1,0.4h-0.2c0,0,0-0.2-0.1-0.4c0-0.1-0.1-0.1-0.7-0.1
			c-0.1,0-0.1,0-0.2,0.1C51.5,52.9,51.5,53.1,51.4,53.2C51.5,53.2,51.5,53.2,51.4,53.2L51.4,53.2z M54.9,53.2
			C54.8,53.2,54.8,53.2,54.9,53.2c-0.1-0.1-0.1-0.1-0.2-0.4c0-0.3,0.3-0.4,0.5-0.4c0,0,0.1,0,0.1,0.1c0,0,0,0.1-0.1,0.1
			s-0.4,0.1-0.4,0.3S54.9,53.2,54.9,53.2C54.9,53.1,54.9,53.2,54.9,53.2L54.9,53.2z M55.6,53.2L55.6,53.2
			C55.5,53.2,55.5,53.1,55.6,53.2c-0.1-0.2,0.1-0.6,0.3-0.6c0.2-0.1,0.4-0.1,0.4-0.1s0.1,0,0.1,0.1c0,0,0,0.1-0.1,0.1
			c0,0-0.2,0.1-0.4,0.1C55.8,52.7,55.7,53,55.6,53.2C55.7,53.2,55.6,53.2,55.6,53.2z M48,52.6L48,52.6C47.9,52.5,47.9,52.5,48,52.6
			l0.5-0.3h0.1v0.1L48,52.6L48,52.6z M51.1,52.4L51.1,52.4C51.1,52.4,51,52.4,51.1,52.4V51c0,0,0-0.1,0.1-0.1c0,0,0.1,0,0.1,0.1
			L51.1,52.4C51.2,52.4,51.2,52.4,51.1,52.4z M55.7,52.4L55.7,52.4C55.6,52.4,55.6,52.3,55.7,52.4l0.3-1.3c0,0,0.1-0.1,0.1,0
			c0,0,0.1,0.1,0,0.1L55.7,52.4L55.7,52.4z M54.2,52.2L54.2,52.2C54.1,52.2,54.1,52.1,54.2,52.2l0.1-1.4c0,0,0-0.1,0.1-0.1
			c0,0,0.1,0,0.1,0.1L54.2,52.2C54.2,52.1,54.2,52.2,54.2,52.2z M48.9,52.2C48.9,52.2,48.9,52.1,48.9,52.2c-0.1-0.1-0.1-0.6-0.3-1
			s-0.5-1.4-0.5-1.4l0.1-0.1c0,0,0.4,1,0.5,1.4C49,51.6,49,52.1,48.9,52.2C49,52.1,49,52.2,48.9,52.2L48.9,52.2z M49.5,52
			C49.4,52,49.4,52,49.5,52l-0.2-1.6c0,0,0-0.1,0.1-0.1c0,0,0.1,0,0.1,0.1L49.5,52C49.6,52,49.5,52,49.5,52L49.5,52z M52.8,51.8
			L52.8,51.8C52.7,51.8,52.7,51.8,52.8,51.8v-0.9c0,0,0-0.1,0.1-0.1c0,0,0.1,0,0.1,0.1L52.8,51.8L52.8,51.8z M47.3,51.3
			C47.3,51.3,47.2,51.3,47.3,51.3c-0.1-0.1-0.4-0.7-0.5-1c0-0.2,0-0.5,0.2-0.6c0.1,0,0.2,0,0.4,0.1c0.3,0.3,0.5,0.6,0.5,0.8
			c0,0.1,0,0.4,0,0.4s0,0.1-0.1,0.1c0,0-0.1,0-0.1-0.1c0,0,0-0.3,0-0.4c0-0.1,0-0.3-0.4-0.7c-0.1-0.1-0.1-0.1-0.2-0.1
			c-0.1,0-0.2,0.3-0.2,0.5S47.2,51,47.3,51.3C47.4,51.2,47.4,51.3,47.3,51.3L47.3,51.3z"/>
	</g>
	<g>
		<path fill="#FFEA0F" d="M58.2,56.3c-0.2,0-0.6-0.1-0.7-0.1l-0.1-0.1l0.1-0.1c0.3,0.1,0.7,0.1,0.8,0.1h0.1v0.1
			C58.3,56.3,58.3,56.3,58.2,56.3z M56.7,56C56.6,56,56.6,56,56.7,56c-0.1-0.1-0.1-0.1,0-0.2l0.8-0.2c0,0,0.1,0,0.1,0.1
			c0,0,0,0.1-0.1,0.1L56.7,56L56.7,56z M57.1,55.6L57.1,55.6c-0.1-0.1,0-0.2,0-0.2h0.4c0,0,0.1,0,0.1,0.1c0,0,0,0.1-0.1,0.1
			L57.1,55.6L57.1,55.6z M57.4,55.2h-0.3c0,0-0.1,0-0.1-0.1c0,0,0-0.1,0.1-0.1h0.3C57.4,55,57.4,55,57.4,55.2
			C57.4,55.1,57.4,55.2,57.4,55.2z M57.7,55.1C57.6,55.1,57.6,55.1,57.7,55.1c-0.1-0.1-0.1-0.1,0-0.2l1.5-0.3c0,0,0.1,0,0.1,0.1
			c0,0,0,0.1-0.1,0.1L57.7,55.1L57.7,55.1z"/>
	</g>
	<g>
		<g>
			<path fill="#002A86" d="M48.4,53.6L48.4,53.6C48.3,53.5,48.3,53.5,48.4,53.6l0.5-0.3H49v0.1L48.4,53.6
				C48.5,53.6,48.5,53.6,48.4,53.6z M48.4,53.4C48.3,53.4,48.3,53.3,48.4,53.4C48.3,53.3,48.3,53.3,48.4,53.4l0.5-0.3H49v0.1
				L48.4,53.4L48.4,53.4z M48.2,53.1L48.2,53.1C48.1,53,48.1,53,48.2,53.1l0.5-0.3h0.1v0.1L48.2,53.1L48.2,53.1z M48.1,52.9
				L48.1,52.9C48,52.8,48,52.8,48.1,52.9l0.5-0.3h0.1v0.1L48.1,52.9C48.2,52.9,48.2,52.9,48.1,52.9z"/>
		</g>
		<g>
			<path fill="#002A86" d="M43.6,54.6L43.6,54.6l-0.4-0.9v-0.1h0.1L43.6,54.6C43.7,54.6,43.7,54.6,43.6,54.6L43.6,54.6z M42.3,54
				L42.3,54c0,0-0.2,0-0.3-0.1c-0.1,0-0.1-0.1-0.1-0.1c0-0.1,0.1-0.2,0.1-0.3l0,0c0,0,0-0.1-0.1-0.3c-0.1-0.1,0.1-0.3,0.2-0.3h0.1
				V53c-0.1,0-0.2,0.1-0.2,0.1c0.1,0.2,0.1,0.4,0.1,0.5c0,0,0,0,0,0.1c0,0-0.1,0.1-0.1,0.2l0,0C42.1,54,42.3,54,42.3,54
				C42.3,53.9,42.4,53.9,42.3,54L42.3,54z M42.5,53.6C42.4,53.6,42.4,53.6,42.5,53.6c-0.1-0.1-0.2-0.5,0.1-0.6c0.2-0.1,0.4,0,0.4,0
				s0.1,0,0.1,0.1c0,0,0,0.1-0.1,0.1c0,0-0.2,0-0.3,0C42.5,53.2,42.5,53.4,42.5,53.6C42.5,53.5,42.5,53.6,42.5,53.6L42.5,53.6z
				 M40.5,52.7C40.4,52.7,40.4,52.7,40.5,52.7c-0.1-0.1-0.1-0.1,0-0.2c0,0,0.9-0.2,1.1-0.2c0.1,0,0.3,0.1,0.4,0.1h0.1
				c0.1,0,0.4-0.1,0.6-0.2c0.2-0.1,1.5,0.1,1.6,0.1c0,0,0.1,0,0.1,0.1c0,0,0,0.1-0.1,0.1c-0.5-0.1-1.4-0.1-1.6-0.1
				c-0.2,0.1-0.5,0.1-0.6,0.2c-0.1,0-0.1,0-0.2,0c-0.1,0-0.2-0.1-0.3-0.1C41.4,52.5,40.7,52.6,40.5,52.7L40.5,52.7z M45.5,52.6
				L45.5,52.6c-0.1-0.1,0-0.2,0-0.2h0.3c0,0,0.1,0,0.1,0.1c0,0,0,0.1-0.1,0.1L45.5,52.6L45.5,52.6z"/>
		</g>
	</g>
</g>
<g>
	<path fill="#FFEA0F" d="M38.3,44.2h-0.2v0.1l-0.4,0.2h0.4v0.2L37.8,45l-0.3,0.6v0.6l-1.1,1l1.3,1.5l3.7,0.1l0.1-0.4l0.3-0.3v-0.7
		h0.1v-0.1h-0.7l0,0l-0.1,0.4h0.2L41.2,48l-0.3,0.1l0.1-1.5l0.4-0.1v-0.2l-0.8-0.1v1.9h-0.7v-0.9h0.4v-1.3l-0.4-0.1v-0.3h0.3v-0.8
		h-0.3l-0.1-0.4h-0.3l0,0.7l-0.3,0.3v0.2l0.4,0.1v0.3l-0.7-0.1v0.7h-0.2v-1.3L39,45l-0.6-0.1L38.3,44.2z M38.1,46.7l0.1,1.4h-0.3
		v-1.4H38.1z M37.6,47v1l-0.3-0.3L37.6,47L37.6,47z M39.2,47h0.3v1.1h-1.1v-0.5h0.2v0.1h0.6V47z M37,47.3v0.2l-0.2-0.2H37z"/>
</g>
<g>
	<g>
		<path fill="#FFEA0F" d="M42.8,48.8l-1.6-0.1v-0.3l1.6,0.1V48.8z M37.6,48.7H36v-0.3l1.7,0.1L37.6,48.7z M50.6,48.5L49.3,48v0.1
			l-12.8-3.7l0.1-0.3l9,2.6l-8.7-2.9l0.1-0.3l12.8,4.3l-12.2-4.9l0.1-0.3L51,48l-0.1,0.2l0,0L50.6,48.5z M54.8,48.1l-0.1-0.2h-0.1
			l-0.1-0.3h0.1l-0.1-0.2l6.6-3.9l0.2,0.3l-5,2.9l0.3-0.2l4.7-2.4l0.1,0.3l-4.7,2.4l-1.6,0.9l1.2-0.5l0.1,0.3L54.8,48.1z M45.7,47.8
			L42.9,47l0.1-0.3l2.7,0.8V47.8z M51,47.8l-12.6-5.5l0.1-0.3l11.7,5.1l-6.8-3.9l0.2-0.3l6.6,3.8l-5.1-3.5l0.2-0.3l4.3,2.9l-2.8-2.6
			L47,43l4,3.7l-3.2-3.5L48,43l3.8,4.3l-0.2,0.2v-0.1l-0.2,0.2l-0.1-0.1l-0.1,0.1l0,0L51,47.8z M54.3,47.4L54,47.2l3.5-4.8l0.2,0.2
			l-2.4,3.3l3.8-3.7l0.2,0.2L55.7,46l4.5-3.4l0.2,0.2l-5.9,4.5L54.3,47.4L54.3,47.4z M54,47.3l-0.3-0.2l2.6-4l0.3,0.2L54,47.3z
			 M51.7,47.1l-3.1-4l0.2-0.2l3.1,4L51.7,47.1z M53.7,47h-0.2l0,0l-0.3-0.1l0.9-3.9l0.3,0.1l-0.6,2.8l1.1-2.9l0.3,0.1L53.7,47z
			 M52,46.9l-2.3-3.7L50,43l1.4,2.2l-0.8-2l0.3-0.1l1.5,3.6l-0.9-3.5l0.3-0.1l0.9,3.7l-0.3,0.1l0,0H52z M53.2,46.9h-0.3l0.3-3.8h0.3
			L53.2,46.9z M52.6,46.9l-0.1-3.8h0.3l0.1,3.8H52.6z M37.6,45.8l-1.4-0.3l0.1-0.3l1.4,0.3L37.6,45.8z"/>
	</g>
	<g>
		<g>
			<path fill="#FFEA0F" d="M37.4,49.1c0,0-0.3-0.2-0.4-0.2c-0.1,0-0.5,0.1-0.5,0.1s0.2,0.1,0.4,0.1C37.1,49.2,37.4,49.1,37.4,49.1"
				/>
			<path fill="#FFEA0F" d="M37,49.2C37,49.2,36.9,49.2,37,49.2c-0.3,0-0.5-0.1-0.5-0.1L36.4,49h0.2c0,0,0.3-0.1,0.5-0.1
				s0.4,0.2,0.4,0.2l0.1,0.1h-0.1C37.4,49.1,37.2,49.2,37,49.2z M36.7,49c0.1,0,0.1,0,0.2,0.1c0.1,0,0.2,0,0.3,0
				C37.1,49,37,49,37,49S36.8,49,36.7,49z"/>
		</g>
		<g>
			<path fill="#FFEA0F" d="M37.4,49.6c0,0-0.3-0.2-0.4-0.2c-0.1,0-0.5,0.1-0.5,0.1s0.2,0.1,0.4,0.1C37.1,49.7,37.4,49.6,37.4,49.6"
				/>
			<path fill="#FFEA0F" d="M37,49.7L37,49.7c-0.3,0-0.5-0.1-0.5-0.1l-0.1-0.1h0.2c0,0,0.3-0.1,0.5-0.1c0.1,0,0.4,0.2,0.4,0.2
				l0.1,0.1h-0.1C37.4,49.7,37.2,49.7,37,49.7z M36.8,49.6c0.1,0,0.1,0,0.2,0.1c0.1,0,0.2,0,0.3,0c-0.1-0.1-0.2-0.1-0.2-0.1
				C37,49.5,36.9,49.5,36.8,49.6z"/>
		</g>
		<g>
			<path fill="#FFEA0F" d="M38.2,49.6c0,0-0.3-0.2-0.4-0.2c-0.1,0-0.5,0.1-0.5,0.1s0.2,0.1,0.4,0.1C37.9,49.7,38.2,49.6,38.2,49.6"
				/>
			<path fill="#FFEA0F" d="M37.8,49.7C37.7,49.7,37.7,49.7,37.8,49.7c-0.3,0-0.5-0.1-0.5-0.1l-0.1-0.1h0.2c0,0,0.3-0.1,0.5-0.1
				s0.4,0.2,0.4,0.2l0.1,0.1h-0.1C38.2,49.7,38,49.7,37.8,49.7z M37.5,49.6c0.1,0,0.1,0,0.2,0.1c0.1,0,0.2,0,0.3,0
				c-0.1-0.1-0.2-0.1-0.2-0.1C37.7,49.5,37.6,49.5,37.5,49.6z"/>
		</g>
		<g>
			<path fill="#FFEA0F" d="M37.6,50.1c0,0-0.3-0.2-0.4-0.2c-0.1,0-0.5,0.1-0.5,0.1s0.2,0.1,0.4,0.1C37.3,50.2,37.6,50.1,37.6,50.1"
				/>
			<path fill="#FFEA0F" d="M37.2,50.2C37.2,50.2,37.1,50.2,37.2,50.2c-0.3,0-0.5-0.1-0.5-0.1L36.6,50h0.2c0,0,0.3-0.1,0.5-0.1
				s0.4,0.2,0.4,0.2l0.1,0.1h-0.1C37.6,50.1,37.4,50.2,37.2,50.2z M36.9,50c0.1,0,0.1,0,0.2,0.1c0.1,0,0.2,0,0.3,0
				C37.3,50,37.2,50,37.2,50S37,50,36.9,50z"/>
		</g>
		<g>
			<path fill="#FFEA0F" d="M38.2,49.3c0,0-0.3-0.2-0.4-0.2c-0.1,0-0.5,0.1-0.5,0.1s0.2,0.1,0.4,0.1C37.9,49.4,38.2,49.3,38.2,49.3"
				/>
			<path fill="#FFEA0F" d="M37.8,49.5C37.7,49.5,37.7,49.5,37.8,49.5c-0.3,0-0.5-0.1-0.5-0.1l-0.1-0.1h0.2c0,0,0.3-0.1,0.5-0.1
				s0.4,0.2,0.4,0.2l0.1,0.1h-0.1C38.2,49.4,38,49.5,37.8,49.5z M37.5,49.3c0.1,0,0.1,0,0.2,0.1c0.1,0,0.2,0,0.3,0
				c-0.1-0.1-0.2-0.1-0.2-0.1C37.7,49.2,37.6,49.3,37.5,49.3z"/>
		</g>
		<g>
			<path fill="#FFEA0F" d="M39.1,49.3c0,0-0.3-0.2-0.4-0.2c-0.1,0-0.5,0.1-0.5,0.1s0.2,0.1,0.4,0.1C38.8,49.4,39.1,49.3,39.1,49.3"
				/>
			<path fill="#FFEA0F" d="M38.7,49.4C38.6,49.4,38.6,49.4,38.7,49.4c-0.3,0-0.5-0.1-0.5-0.1L38,49.2h0.2c0,0,0.3-0.1,0.5-0.1
				s0.4,0.2,0.4,0.2l0.1,0.1h-0.1C39.1,49.3,38.8,49.4,38.7,49.4z M38.4,49.2c0.1,0,0.1,0,0.2,0.1c0.1,0,0.2,0,0.3,0
				c-0.1-0.1-0.2-0.1-0.2-0.1C38.6,49.2,38.5,49.2,38.4,49.2z"/>
		</g>
		<g>
			<path fill="#FFEA0F" d="M39.1,49.7c0,0-0.3-0.2-0.4-0.2c-0.1,0-0.5,0.1-0.5,0.1s0.2,0.1,0.4,0.1C38.8,49.8,39.1,49.7,39.1,49.7"
				/>
			<path fill="#FFEA0F" d="M38.7,49.9C38.6,49.9,38.6,49.9,38.7,49.9c-0.3,0-0.5-0.1-0.5-0.1L38,49.6h0.2c0,0,0.3-0.1,0.5-0.1
				s0.4,0.2,0.4,0.2l0.1,0.1h-0.1C39.1,49.8,38.9,49.9,38.7,49.9z M38.4,49.7c0.1,0,0.1,0,0.2,0.1c0.1,0,0.2,0,0.3,0
				c-0.1-0.1-0.2-0.1-0.2-0.1C38.6,49.6,38.5,49.6,38.4,49.7z"/>
		</g>
		<g>
			<path fill="#FFEA0F" d="M40,49.3c0,0-0.3-0.2-0.4-0.2c-0.1,0-0.5,0.1-0.5,0.1s0.2,0.1,0.4,0.1C39.7,49.4,40,49.3,40,49.3"/>
			<path fill="#FFEA0F" d="M39.6,49.4C39.6,49.4,39.5,49.4,39.6,49.4c-0.3,0-0.5-0.1-0.5-0.1L39,49.2h0.2c0,0,0.3-0.1,0.5-0.1
				s0.4,0.2,0.4,0.2l0.1,0.1h-0.1C40,49.3,39.8,49.4,39.6,49.4z M39.3,49.2c0.1,0,0.1,0,0.2,0.1c0.1,0,0.2,0,0.3,0
				c-0.1-0.1-0.2-0.1-0.2-0.1C39.6,49.1,39.4,49.2,39.3,49.2z"/>
		</g>
		<g>
			<path fill="#FFEA0F" d="M39,50c0,0-0.3-0.2-0.4-0.2c-0.1,0-0.5,0.1-0.5,0.1s0.2,0.1,0.4,0.1C38.7,50.1,39,50,39,50"/>
			<path fill="#FFEA0F" d="M38.6,50.2C38.5,50.2,38.5,50.2,38.6,50.2c-0.3,0-0.5-0.1-0.5-0.1L37.9,50h0.2c0,0,0.3-0.1,0.5-0.1
				s0.4,0.2,0.4,0.2l0.1,0.1H39C39,50.1,38.8,50.2,38.6,50.2z M38.3,50c0.1,0,0.1,0,0.2,0.1c0.1,0,0.2,0,0.3,0
				C38.7,50,38.6,50,38.6,50C38.5,49.9,38.4,49.9,38.3,50z"/>
		</g>
		<g>
			<path fill="#FFEA0F" d="M40,50.1c0,0-0.3-0.2-0.4-0.2c-0.1,0-0.5,0.1-0.5,0.1s0.2,0.1,0.4,0.1C39.7,50.2,40,50.1,40,50.1"/>
			<path fill="#FFEA0F" d="M39.6,50.3C39.6,50.3,39.5,50.3,39.6,50.3c-0.3,0-0.5-0.1-0.5-0.1L39,50.1h0.2c0,0,0.3-0.1,0.5-0.1
				s0.4,0.2,0.4,0.2l0.1,0.1h-0.1C40,50.2,39.8,50.3,39.6,50.3z M39.3,50.1c0.1,0,0.1,0,0.2,0.1c0.1,0,0.2,0,0.3,0
				c0-0.2-0.1-0.2-0.2-0.2C39.6,50,39.4,50.1,39.3,50.1z"/>
		</g>
		<g>
			<path fill="#FFEA0F" d="M39.7,50.6c0,0-0.3-0.2-0.4-0.2c-0.1,0-0.5,0.1-0.5,0.1s0.2,0.1,0.4,0.1C39.4,50.7,39.7,50.6,39.7,50.6"
				/>
			<path fill="#FFEA0F" d="M39.3,50.7C39.2,50.7,39.2,50.7,39.3,50.7c-0.3,0-0.5-0.1-0.5-0.1l-0.1-0.1h0.2c0,0,0.3-0.1,0.5-0.1
				s0.4,0.2,0.4,0.2l0.1,0.1h-0.1C39.7,50.6,39.4,50.7,39.3,50.7z M39,50.5c0.1,0,0.1,0,0.2,0.1c0.1,0,0.2,0,0.3,0
				c-0.1-0.1-0.2-0.1-0.2-0.1C39.2,50.5,39.1,50.5,39,50.5z"/>
		</g>
		<g>
			<path fill="#FFEA0F" d="M40.4,49.5c0,0-0.3-0.2-0.4-0.2c-0.1,0-0.5,0.1-0.5,0.1s0.2,0.1,0.4,0.1S40.4,49.5,40.4,49.5"/>
			<path fill="#FFEA0F" d="M40,49.7L40,49.7c-0.3,0-0.5-0.1-0.5-0.1l-0.1-0.1h0.2c0,0,0.3-0.1,0.5-0.1c0.1,0,0.4,0.2,0.4,0.2
				l0.1,0.1h-0.1C40.4,49.6,40.2,49.7,40,49.7z M39.8,49.5c0.1,0,0.1,0,0.2,0.1c0.1,0,0.2,0,0.3,0c-0.1-0.1-0.2-0.1-0.2-0.1
				C40,49.4,39.9,49.5,39.8,49.5z"/>
		</g>
		<g>
			<path fill="#FFEA0F" d="M41,49.7c0,0-0.3-0.2-0.4-0.2c-0.1,0-0.5,0.1-0.5,0.1s0.2,0.1,0.4,0.1C40.7,49.8,41,49.7,41,49.7"/>
			<path fill="#FFEA0F" d="M40.6,49.9C40.6,49.9,40.5,49.9,40.6,49.9c-0.3,0-0.5-0.1-0.5-0.1L40,49.6h0.2c0,0,0.3-0.1,0.5-0.1
				s0.4,0.2,0.4,0.2l0.1,0.1h-0.1C41,49.8,40.8,49.9,40.6,49.9z M40.3,49.7c0.1,0,0.1,0,0.2,0.1c0.1,0,0.2,0,0.3,0
				c-0.1-0.1-0.2-0.1-0.2-0.1C40.6,49.6,40.4,49.6,40.3,49.7z"/>
		</g>
		<g>
			<path fill="#FFEA0F" d="M41.4,49.4c0,0-0.3-0.2-0.4-0.2c-0.1,0-0.5,0.1-0.5,0.1s0.2,0.1,0.4,0.1C41.1,49.5,41.4,49.4,41.4,49.4"
				/>
			<path fill="#FFEA0F" d="M41,49.6L41,49.6c-0.3,0-0.5-0.1-0.5-0.1l-0.1-0.1h0.2c0,0,0.3-0.1,0.5-0.1c0.1,0,0.4,0.2,0.4,0.2
				l0.1,0.1h-0.1C41.4,49.5,41.2,49.6,41,49.6z M40.8,49.4c0.1,0,0.1,0,0.2,0.1c0.1,0,0.2,0,0.3,0c-0.1-0.1-0.2-0.1-0.2-0.1
				C41,49.3,40.9,49.4,40.8,49.4z"/>
		</g>
		<g>
			<path fill="#FFEA0F" d="M42.6,49.2c0,0-0.3-0.2-0.4-0.2c-0.1,0-0.5,0.1-0.5,0.1s0.2,0.1,0.4,0.1C42.3,49.3,42.6,49.2,42.6,49.2"
				/>
			<path fill="#FFEA0F" d="M42.2,49.3C42.1,49.3,42.1,49.3,42.2,49.3c-0.3,0-0.5-0.1-0.5-0.1l-0.1-0.1h0.2c0,0,0.3-0.1,0.5-0.1
				s0.4,0.2,0.4,0.2l0.1,0.1h-0.1C42.6,49.2,42.3,49.3,42.2,49.3z M41.9,49.1c0.1,0,0.1,0,0.2,0.1c0.1,0,0.2,0,0.3,0
				c-0.1-0.1-0.2-0.1-0.2-0.1C42.1,49.1,42,49.1,41.9,49.1z"/>
		</g>
		<g>
			<path fill="#FFEA0F" d="M42.4,49.6c0,0-0.3-0.2-0.4-0.2c-0.1,0-0.5,0.1-0.5,0.1s0.2,0.1,0.4,0.1C42.1,49.7,42.4,49.6,42.4,49.6"
				/>
			<path fill="#FFEA0F" d="M42,49.7L42,49.7c-0.3,0-0.5-0.1-0.5-0.1l-0.1-0.1h0.2c0,0,0.3-0.1,0.5-0.1s0.4,0.2,0.4,0.2l0.1,0.1h-0.1
				C42.4,49.7,42.2,49.7,42,49.7z M41.8,49.6c0.1,0,0.1,0,0.2,0.1c0.1,0,0.2,0,0.3,0c-0.1-0.1-0.2-0.1-0.2-0.1
				C42,49.5,41.9,49.5,41.8,49.6z"/>
		</g>
		<g>
			<path fill="#FFEA0F" d="M43.4,49.6c0,0-0.3-0.2-0.4-0.2c-0.1,0-0.5,0.1-0.5,0.1s0.2,0.1,0.4,0.1C43.1,49.7,43.4,49.6,43.4,49.6"
				/>
			<path fill="#FFEA0F" d="M43,49.8C42.9,49.8,42.9,49.8,43,49.8c-0.3,0-0.5-0.1-0.5-0.1l-0.2-0.1h0.2c0,0,0.3-0.1,0.5-0.1
				s0.4,0.2,0.4,0.2l0.1,0.1h-0.1C43.4,49.7,43.1,49.8,43,49.8z M42.7,49.6c0.1,0,0.1,0,0.2,0.1c0.1,0,0.2,0,0.3,0
				c-0.1-0.1-0.2-0.1-0.2-0.1C42.9,49.5,42.8,49.6,42.7,49.6z"/>
		</g>
		<g>
			<path fill="#FFEA0F" d="M41.8,50.2c0,0-0.3-0.2-0.4-0.2c-0.1,0-0.5,0.1-0.5,0.1s0.2,0.1,0.4,0.1C41.5,50.3,41.8,50.2,41.8,50.2"
				/>
			<path fill="#FFEA0F" d="M41.4,50.4L41.4,50.4c-0.3,0-0.5-0.1-0.5-0.1l-0.1-0.1H41c0,0,0.3-0.1,0.5-0.1s0.4,0.2,0.4,0.2l0.1,0.1
				h-0.1C41.8,50.3,41.6,50.4,41.4,50.4z M41.2,50.2c0.1,0,0.1,0,0.2,0.1c0.1,0,0.2,0,0.3,0c-0.1-0.1-0.2-0.1-0.2-0.1
				C41.4,50.1,41.3,50.2,41.2,50.2z"/>
		</g>
		<g>
			<path fill="#FFEA0F" d="M42.6,50.5c0,0-0.3-0.2-0.4-0.2c-0.1,0-0.5,0.1-0.5,0.1s0.2,0.1,0.4,0.1C42.3,50.6,42.6,50.5,42.6,50.5"
				/>
			<path fill="#FFEA0F" d="M42.2,50.6L42.2,50.6c-0.3,0-0.5-0.1-0.5-0.1l-0.1-0.1h0.2c0,0,0.3-0.1,0.5-0.1s0.4,0.2,0.4,0.2l0.1,0.1
				h-0.1C42.6,50.6,42.4,50.6,42.2,50.6z M42,50.5c0.1,0,0.1,0,0.2,0.1c0.1,0,0.2,0,0.3,0c-0.1-0.1-0.2-0.1-0.2-0.1
				C42.2,50.4,42.1,50.4,42,50.5z"/>
		</g>
		<g>
			<path fill="#FFEA0F" d="M43.9,50.4c0,0-0.3-0.2-0.4-0.2c-0.1,0-0.5,0.1-0.5,0.1s0.2,0.1,0.4,0.1C43.6,50.5,43.9,50.4,43.9,50.4"
				/>
			<path fill="#FFEA0F" d="M43.5,50.6C43.5,50.6,43.4,50.6,43.5,50.6c-0.3,0-0.5-0.1-0.5-0.1l-0.1-0.1h0.2c0,0,0.3-0.1,0.5-0.1
				s0.4,0.2,0.4,0.2l0.1,0.1H44C43.9,50.5,43.7,50.6,43.5,50.6z M43.2,50.4c0.1,0,0.1,0,0.2,0.1c0.1,0,0.2,0,0.3,0
				c-0.1-0.1-0.2-0.1-0.2-0.1C43.5,50.3,43.3,50.3,43.2,50.4z"/>
		</g>
		<g>
			<path fill="#FFEA0F" d="M38,54.7l1.5,0.1l-0.4,0.3l0.5-0.3l1.6-0.1"/>
			<polygon fill="#FFEA0F" points="39.2,55.2 39.1,55 38,54.9 38,54.6 39.5,54.7 39.6,54.6 41.2,54.5 41.3,54.8 39.7,54.9 			"/>
		</g>
		<g>
			<path fill="#FFEA0F" d="M40.8,55.4c0,0-0.3-0.2-0.4-0.2c-0.1,0-0.5,0.1-0.5,0.1s0.2,0.1,0.4,0.1C40.5,55.5,40.8,55.4,40.8,55.4"
				/>
			<path fill="#FFEA0F" d="M40.4,55.5C40.3,55.5,40.3,55.5,40.4,55.5c-0.3,0-0.5-0.1-0.5-0.1l-0.1-0.1H40c0,0,0.3-0.1,0.5-0.1
				s0.4,0.2,0.4,0.2l0.1,0.1h-0.1C40.8,55.4,40.5,55.5,40.4,55.5z M40.1,55.3c0.1,0,0.1,0,0.2,0.1c0.1,0,0.2,0,0.3,0
				c-0.1-0.1-0.2-0.1-0.2-0.1C40.3,55.3,40.2,55.3,40.1,55.3z"/>
		</g>
		<g>
			<path fill="#FFEA0F" d="M40.9,55.7c0,0-0.3-0.2-0.4-0.2c-0.1,0-0.5,0.1-0.5,0.1s0.2,0.1,0.4,0.1C40.6,55.8,40.9,55.7,40.9,55.7"
				/>
			<path fill="#FFEA0F" d="M40.5,55.9L40.5,55.9c-0.3,0-0.5-0.1-0.5-0.1l-0.1-0.1h0.2c0,0,0.3-0.1,0.5-0.1s0.4,0.2,0.4,0.2l0.1,0.1
				H41C40.9,55.8,40.7,55.9,40.5,55.9z M40.3,55.7c0.1,0,0.1,0,0.2,0.1c0.1,0,0.2,0,0.3,0c-0.1-0.1-0.2-0.1-0.2-0.1
				C40.5,55.6,40.4,55.7,40.3,55.7z"/>
		</g>
		<g>
			<path fill="#FFEA0F" d="M40,56.1c0,0-0.3-0.2-0.4-0.2c-0.1,0-0.5,0.1-0.5,0.1s0.2,0.1,0.4,0.1C39.7,56.2,40,56.1,40,56.1"/>
			<path fill="#FFEA0F" d="M39.6,56.3C39.6,56.3,39.5,56.3,39.6,56.3c-0.3,0-0.5-0.1-0.5-0.1L39,56.1h0.2c0,0,0.3-0.1,0.5-0.1
				s0.4,0.2,0.4,0.2l0.1,0.1h-0.1C40,56.2,39.8,56.3,39.6,56.3z M39.3,56.1c0.1,0,0.1,0,0.2,0.1c0.1,0,0.2,0,0.3,0
				c-0.1-0.1-0.2-0.1-0.2-0.1C39.6,56,39.4,56.1,39.3,56.1z"/>
		</g>
		<g>
			<path fill="#FFEA0F" d="M41.2,57.2c0,0-0.3-0.2-0.4-0.2c-0.1,0-0.5,0.1-0.5,0.1s0.2,0.1,0.4,0.1C40.9,57.3,41.2,57.2,41.2,57.2"
				/>
			<path fill="#FFEA0F" d="M40.8,57.4C40.7,57.4,40.7,57.4,40.8,57.4c-0.3,0-0.5-0.1-0.5-0.1l-0.1-0.1h0.2c0,0,0.3-0.1,0.5-0.1
				s0.4,0.2,0.4,0.2l0.1,0.1h-0.1C41.2,57.3,41,57.4,40.8,57.4z M40.5,57.2c0.1,0,0.1,0,0.2,0.1c0.1,0,0.2,0,0.3,0
				c-0.1-0.1-0.2-0.1-0.2-0.1C40.7,57.1,40.6,57.2,40.5,57.2z"/>
		</g>
	</g>
	<g>
		<g>
			<path fill="#FFEA0F" d="M43.1,59.3c-0.2,0-0.3,0-0.4-0.1c-0.1-0.1-0.1-0.2-0.1-0.4L41.2,59l0.1-0.6L40.5,58l0.3-0.1
				c0,0,0.8-0.5,1.4-0.5c0.1,0,0.1,0,0.2,0c0.2,0,0.4,0,0.5,0.1S43,57.8,43,58c0.2,0,0.4-0.1,0.6-0.1c0.4,0,0.5,0,0.8,0.2
				c0.3,0.1,0.3,0.3,0.2,0.4c0,0.1,0,0.1,0,0.2C44.6,59.1,43.9,59.3,43.1,59.3L43.1,59.3z M42.9,58.3c0,0.1,0,0.1,0,0.2
				c0,0.2,0,0.5,0,0.5s0.1,0,0.2,0c1.1-0.1,1.1-0.3,1.1-0.3c0-0.1,0-0.3,0-0.3l0,0c0,0,0,0-0.1,0c-0.3-0.2-0.4-0.2-0.6-0.2
				C43.4,58.2,43.1,58.2,42.9,58.3z M41.1,58l0.5,0.3l-0.1,0.4l1-0.1c0,0,0,0,0-0.1s0-0.1,0-0.2l0,0v-0.1c0-0.3,0-0.3,0-0.4
				c0,0-0.2,0-0.3,0s-0.1,0-0.2,0C41.8,57.7,41.4,57.8,41.1,58z"/>
		</g>
		<g>
			<path fill="#FFEA0F" d="M56.2,59.3L56,59.2c0,0-0.2-0.1-0.5-0.1c-0.4,0-0.5,0-0.5,0h-0.1V59c0,0-0.1-0.4-0.2-0.9
				c0-0.2,0-0.4,0.1-0.5c0.2-0.2,0.5-0.2,0.9-0.1c0.5,0.1,1.4,0.7,1.4,0.8l0.3,0.2l-1,0.2L56.2,59.3z M55.5,58.7
				c0.2,0,0.4,0,0.5,0.1v-0.5l0.5-0.1c-0.3-0.2-0.7-0.4-1-0.5c-0.2,0-0.5-0.1-0.6,0s0,0.2,0,0.3c0,0.3,0.1,0.6,0.1,0.7
				C55.2,58.7,55.3,58.7,55.5,58.7z M44.7,58.3c-0.4,0-0.7-0.1-0.8-0.3c-0.3-0.3-0.2-0.8-0.2-0.9c0-0.2,0-0.4,0.2-0.5
				c0.3-0.3,0.7-0.2,0.8-0.2c0.2,0,6.8,0,8.4,0.1c1.3,0.1,1.5,0.3,1.5,0.9c0,0.1,0,0.1,0,0.2c0,0.5-0.4,0.7-0.7,0.7l0,0
				C53.7,58.3,46,58.3,44.7,58.3L44.7,58.3z M44,57.2c0,0-0.1,0.4,0.1,0.6c0.1,0.2,0.4,0.2,0.7,0.2c1.2,0,8.7,0,9,0
				c0.1,0,0.4-0.1,0.4-0.4c0-0.1,0-0.1,0-0.2c0-0.3,0-0.5-1.2-0.6c-1.6-0.1-8.3-0.1-8.4-0.1l0,0c-0.1,0-0.4,0-0.6,0.1
				C44,56.9,43.9,57,44,57.2L44,57.2L44,57.2z"/>
		</g>
		<g>
			<path fill="#FFEA0F" d="M54.7,59.3c-0.2,0-0.4,0-0.7-0.2c-0.5-0.2-0.5-0.9-0.5-0.9c0-0.1,0.1-0.2,0.2-0.2l0,0
				c0.1,0,0.2,0.1,0.2,0.1s0,0.5,0.3,0.6c0.7,0.3,1,0,1,0c0.1-0.1,0.2-0.1,0.2,0c0.1,0.1,0.1,0.2,0,0.2
				C55.3,59.1,55.1,59.3,54.7,59.3z M54.3,58.1c-0.1,0-0.1,0-0.2-0.1c0-0.1,0-0.2,0.1-0.2l0.4-0.1c0.1,0,0.2,0,0.2,0.1
				s0,0.2-0.1,0.2L54.3,58.1L54.3,58.1z"/>
		</g>
	</g>
</g>
<g>
	<path fill="#FFEA0F" d="M47.8,58.3l0.3,0.6l-0.6-0.3l-0.2,0.2l0.4,0.4l-0.6-0.1l-0.3,0.5l1.3,0.2L48,60.7l-1.2-0.1l-0.4-1.2
		L46,59.5l0.3,1.1h-1.5l0.4,1.4h0.3l-0.2-1l1.2,0.1l0.1,0.5l-0.7-0.2v0.4l1.2,0.4l0.2,0.6c0,0,0.4,0.2,1.1,0.3
		c0.6,0.1,2.4-0.1,2.4-0.1l-0.1-0.6c0,0,0.2-0.1,0.5-0.3c0.4-0.2,0.7-1.1,0.7-1.1l0.4-0.2l-0.3,0l0.6-0.9h1.1v-0.3h-1.2l-0.4,0.3
		l0.3-0.5l1-0.1v-0.2h-1.2l-1.4,1.7l-0.3-0.1v-0.9l0.4,0.1l-0.2-0.3l0.3-0.1l0-0.2l0.2-0.3l-0.8-0.2l0.4-0.4l-0.3-0.2L50,58.6
		l0.1-0.4h-1v0.4l-0.2-0.4h-0.4v0.4l-0.1-0.3H47.8z M47.7,61.1v0.3l-0.5,0.4l-0.3-0.6L47.7,61.1z"/>
</g>
<g>
	<path fill="#002A86" d="M49.6,63L49.6,63c-0.1,0-0.2-0.1-0.1-0.2l0.1-0.3c0-0.1,0.1-0.1,0.2-0.1c0.1,0,0.1,0.1,0.1,0.2l-0.1,0.3
		C49.7,62.9,49.7,63,49.6,63z M48.8,62.9L48.8,62.9c-0.1-0.1-0.2-0.2-0.1-0.2l0.2-0.3c0-0.1,0.1-0.1,0.2-0.1c0.1,0,0.1,0.1,0.1,0.2
		L49,62.8C49,62.9,48.9,62.9,48.8,62.9z M47.8,62.6C47.7,62.6,47.7,62.6,47.8,62.6c-0.2-0.1-0.2-0.2-0.1-0.2L48,62
		c0-0.1,0.1-0.1,0.2,0c0.1,0,0.1,0.1,0,0.2l-0.3,0.4H47.8z M50.6,62.3h-1.1l0.8-1.2c0-0.1,0.1-0.1,0.2,0c0.1,0,0.1,0.1,0,0.2
		L50.1,62h0.6c0.1,0,0.2,0.1,0.2,0.2C50.8,62.2,50.7,62.3,50.6,62.3z M49.7,60.9h-1.2c-0.1,0-0.2-0.1-0.2-0.2c0-0.1,0.1-0.2,0.2-0.2
		h1.2c0.1,0,0.2,0.1,0.2,0.2C49.9,60.8,49.8,60.9,49.7,60.9z"/>
</g>
<g>
	<g>
		<path fill="#FFEA0F" d="M45.2,57.1h-0.3V57h0.9v0.2h-0.3v0.7h-0.3L45.2,57.1z"/>
		<path fill="#FFEA0F" d="M45.5,57.9h-0.4v-0.7h-0.3v-0.3h1v0.3h-0.3V57.9z M45.3,57.8L45.3,57.8l0.1-0.7h0.3l0,0H45l0,0h0.3V57.8z"
			/>
	</g>
	<g>
		<path fill="#FFEA0F" d="M45.9,57.9V57h0.3v0.4h0.3V57h0.3v0.9h-0.3v-0.4h-0.3v0.4H45.9z"/>
	</g>
	<g>
		<path fill="#FFEA0F" d="M46.9,57.9V57h0.7v0.2h-0.5v0.2h0.4v0.2h-0.4v0.2h0.5V58L46.9,57.9"/>
	</g>
	<g>
		<path fill="#FFEA0F" d="M49.2,57v0.6c0,0.2-0.2,0.3-0.5,0.3c-0.2,0-0.5-0.1-0.5-0.3V57h0.3v0.6c0,0.1,0.1,0.2,0.2,0.2
			c0.1,0,0.2-0.1,0.2-0.2V57H49.2"/>
	</g>
	<g>
		<path fill="#FFEA0F" d="M49.4,57h0.4l0.3,0.7l0,0V57h0.2v0.9H50l-0.3-0.7l0,0v0.7h-0.2L49.4,57z"/>
	</g>
	<g>
		<path fill="#FFEA0F" d="M50.5,57.9h0.3V57h-0.3V57.9z"/>
	</g>
	<g>
		<path fill="#FFEA0F" d="M51,57.4c0-0.3,0.2-0.5,0.5-0.5s0.5,0.2,0.5,0.5s-0.2,0.5-0.5,0.5S51,57.7,51,57.4z M51.5,57.1
			c-0.2,0-0.2,0.2-0.2,0.3s0,0.3,0.2,0.3s0.2-0.2,0.2-0.3S51.7,57.1,51.5,57.1"/>
	</g>
	<g>
		<path fill="#FFEA0F" d="M52.1,57h0.4l0.3,0.7l0,0V57H53v0.9h-0.4l-0.3-0.7l0,0v0.7h-0.2V57z"/>
	</g>
	<g>
		<path fill="#FFEA0F" d="M34.5,48l0.3,0.4l0.4,0.1l-0.3,0.4l0.1,0.5l-0.4-0.2l-0.5,0.2l0.1-0.4l-0.3-0.4l0.4-0.1L34.5,48z"/>
	</g>
	<g>
		<path fill="#FFEA0F" d="M34.5,46.2l0.3,0.4l0.4,0.1L34.9,47l0.1,0.5l-0.4-0.2l-0.5,0.2l0.1-0.4l-0.3-0.4l0.4-0.1L34.5,46.2z"/>
	</g>
	<g>
		<path fill="#FFEA0F" d="M35,44.2l0.2,0.4l0.4,0.1L35.3,45v0.5l-0.4-0.3l-0.5,0.1l0.2-0.4l-0.2-0.4h0.4L35,44.2"/>
	</g>
	<g>
		<path fill="#FFEA0F" d="M35.7,42.3l0.2,0.4l0.4,0.1L36,43.2v0.5l-0.4-0.3l-0.5,0.1l0.2-0.4L35,42.7h0.4L35.7,42.3z"/>
	</g>
	<g>
		<path fill="#FFEA0F" d="M34.6,49.7l0.3,0.4h0.4L35,50.5l0.1,0.5l-0.4-0.2L34.2,51l0.1-0.4L34,50.2l0.4-0.1L34.6,49.7z"/>
	</g>
	<g>
		<path fill="#FFEA0F" d="M34.8,51.6l0.3,0.4h0.4l-0.3,0.4l0.1,0.5l-0.4-0.2l-0.5,0.2l0.1-0.4L34.3,52l0.4-0.1L34.8,51.6z"/>
	</g>
	<g>
		<path fill="#FFEA0F" d="M35.5,53.3l0.3,0.4h0.4l-0.3,0.4l0.1,0.5l-0.4-0.2l-0.4,0.2l0.1-0.4L35,53.9l0.4-0.1L35.5,53.3z"/>
	</g>
	<g>
		<path fill="#FFEA0F" d="M36.1,54.8l0.3,0.4h0.4l-0.3,0.4l0.1,0.5l-0.4-0.2l-0.4,0.2l0.1-0.4l-0.3-0.3l0.4-0.1L36.1,54.8z"/>
	</g>
	<g>
		<path fill="#FFEA0F" d="M37,56.4l0.3,0.4h0.4l-0.2,0.4l0.1,0.5l-0.4-0.2l-0.4,0.2l0.1-0.4L36.6,57l0.4-0.1L37,56.4z"/>
	</g>
	<g>
		<path fill="#FFEA0F" d="M38,58l0.3,0.4h0.4l-0.2,0.4l0.1,0.5l-0.4-0.2l-0.4,0.2l0.1-0.4l-0.3-0.3l0.4-0.1L38,58z"/>
	</g>
	<g>
		<path fill="#FFEA0F" d="M39.1,59.4l0.3,0.4h0.4l-0.3,0.4l0.1,0.5l-0.4-0.2l-0.4,0.2l0.1-0.4L38.6,60l0.4-0.1L39.1,59.4z"/>
	</g>
	<g>
		<path fill="#FFEA0F" d="M40.5,60.7l0.3,0.4h0.4L41,61.5l0.1,0.5l-0.4-0.2L40.3,62l0.1-0.4L40,61.2l0.4-0.1L40.5,60.7z"/>
	</g>
	<g>
		<path fill="#FFEA0F" d="M42.1,61.7l0.3,0.4l0.4,0.1l-0.3,0.4l0.1,0.5l-0.4-0.2L41.7,63l0.1-0.4l-0.3-0.4h0.4L42.1,61.7z"/>
	</g>
	<g>
		<path fill="#FFEA0F" d="M43.5,62.7l0.3,0.4l0.4,0.1l-0.3,0.4L44,64l-0.4-0.2l-0.5,0.1l0.1-0.4l-0.3-0.4h0.4L43.5,62.7z"/>
	</g>
	<g>
		<path fill="#FFEA0F" d="M45.2,63.6l0.3,0.4l0.4,0.1l-0.3,0.4l0.1,0.5l-0.4-0.2l-0.5,0.1l0.1-0.4l-0.3-0.4H45L45.2,63.6"/>
	</g>
	<g>
		<path fill="#FFEA0F" d="M47.1,64.2l0.3,0.4l0.4,0.1L47.5,65l0.1,0.5l-0.4-0.2l-0.5,0.1l0.1-0.4l-0.3-0.4h0.4L47.1,64.2"/>
	</g>
	<g>
		<path fill="#FFEA0F" d="M49.1,64.6l0.3,0.4l0.4,0.1l-0.3,0.4l0.1,0.5l-0.4-0.2l-0.5,0.1l0.1-0.4L48.5,65h0.4L49.1,64.6"/>
	</g>
	<g>
		<path fill="#FFEA0F" d="M39,74.6h1.7v-5.9H39V74.6z"/>
	</g>
	<g>
		<path fill="#FFEA0F" d="M44.1,71.7c-0.7-0.1-1-0.6-1-1.3c0-1.2,1-1.5,1.9-1.5c1.1,0,1.9,0.3,1.9,1.5c0,0.7-0.2,1.2-0.8,1.3l0,0
			c0.8,0.1,1.3,0.8,1.3,1.7c0,1.4-1.4,1.5-2.5,1.5c-1,0-2.2-0.4-2.2-1.7C42.7,72.4,43.3,71.8,44.1,71.7L44.1,71.7z M46,73
			c0-0.6-0.4-0.8-0.9-0.8s-0.9,0.2-0.9,0.8c0,0.6,0.4,0.8,0.9,0.8S46,73.6,46,73z M44.3,70.5c0,0.5,0.3,0.7,0.8,0.7s0.8-0.3,0.8-0.7
			c0-0.5-0.3-0.7-0.8-0.7C44.6,69.7,44.3,70,44.3,70.5"/>
	</g>
	<g>
		<path fill="#FFEA0F" d="M49.6,73.1c0.2,0.1,0.7,0.4,1.1,0.4c0.6,0,0.8-0.2,0.8-0.7s-0.3-0.9-0.5-0.9c-0.3,0-1,0.1-1.1,0.4l-1-0.3
			l0.6-3h3.3v1.1h-2.1L50.5,71c0.1-0.2,0.1-0.1,0.7-0.1c1.1,0,1.9,0.7,1.9,1.8c0,1.4-0.8,2.1-2.2,2.1c-1.2,0-1.6-0.4-1.9-0.5
			L49.6,73.1z"/>
	</g>
	<g>
		<path fill="#FFEA0F" d="M55.7,73.5c0,0.2,0.6,0.1,0.8,0.2c0.1,0.1,0.3-0.1,0.5-0.1c0.4-0.1,0.8-0.3,0.9-1.1
			c-0.3,0.4-0.8,0.4-1.3,0.3c-0.8-0.1-1.5-0.8-1.5-2c0-1.4,0.8-2,2.1-2.1c1.7,0,2.4,1.5,2.3,3.3c0,0.8-0.4,1.7-0.7,2.1
			c-0.6,0.6-1.2,0.7-1.8,0.8c-1,0.1-1.7-0.2-1.7-0.2L55.7,73.5z M57.1,69.9c-0.6,0-0.9,0.3-0.9,0.9s0.4,0.9,0.9,0.9
			c0.6,0,0.9-0.5,0.9-0.9C58,70.2,57.6,69.9,57.1,69.9"/>
	</g>
	<g>
		<path fill="#FFEA0F" d="M18.4,29.1l-0.8,0.7c0,0-0.5-0.5-1-0.5s-1,0.6,0.1,1.3c1.1,0.7,1.3,1.6,1.2,2.3c0,0.9-0.8,1.5-1.5,1.5
			c-1.2,0-2.4-0.7-2.4-0.7l0.7-1.1l1.3,0.5c0,0,0.6,0,0.5-0.7s-1.3-1.9-1.6-2.4c-0.5-0.8,0.6-2.2,1.4-2.1c1.2,0.1,1.5,0.3,1.7,0.5
			C18.1,28.7,18.4,29.1,18.4,29.1"/>
	</g>
	<g>
		<path fill="#FFEA0F" d="M19.2,28.3v1.4l1.4-0.1v4.5L22,34v-4.5l1.2-0.2V28L19.2,28.3"/>
	</g>
	<g>
		<path fill="#FFEA0F" d="M27.3,27.5l-1.9,0.2l-1.3,6.2h1.4l0.3-1l1.6-0.2l0.3,0.7l1.3-0.3L27.3,27.5z M26.5,29.3l0.8,2.2L26,31.7
			L26.5,29.3z"/>
	</g>
	<g>
		<path fill="#FFEA0F" d="M29.3,27.1v1.3l1.6-0.2l0.1,4.7l1.7-0.3V28l1.1-0.3v-1.4L29.3,27.1z"/>
	</g>
	<g>
		<path fill="#FFEA0F" d="M35,26.1l0.2,5.9l3.7-0.5l-0.1-1.2l-2.2,0.2v-1l1-0.2v-1.1h-0.8L36.6,27l2.3-0.4l-0.1-1.2L35,26.1z"/>
	</g>
	<g>
		<path fill="#FFEA0F" d="M45.1,25c-1.3,0.1-2.6,0.8-2.4,2.8c0.2,2.9,1.4,3.6,2.7,3.6s2.4-1.8,2.3-3.3C47.5,26.6,46.9,25,45.1,25z
			 M45.1,26.2C45.1,26.2,45.2,26.2,45.1,26.2c1.2,0,1.2,1.2,1.2,1.9c0,0.7-0.2,1.9-1.2,1.9c-1.1,0-1-1.2-1.2-2
			C43.8,27.2,44.5,26.3,45.1,26.2z"/>
	</g>
	<g>
		<path fill="#FFEA0F" d="M51.6,25.2l-3.1-0.1v6.1H50v-2.6h0.7v-1.2H50v-1.2h1.7L51.6,25.2z"/>
	</g>
	<g>
		<path fill="#FFEA0F" d="M57.7,25.6c-1.3,0-2.6,0.7-2.5,2.7c0.1,2.9,1.2,3.7,2.5,3.7c1.3,0.1,2.4-1.7,2.4-3.2
			C60.1,27.2,59.6,25.6,57.7,25.6L57.7,25.6z M57.7,26.8C57.8,26.8,57.8,26.8,57.7,26.8c1.2,0.1,1.1,1.3,1.1,2s-0.2,1.9-1.3,1.8
			s-1-1.2-1.1-2.1C56.4,27.7,57.1,26.8,57.7,26.8z"/>
	</g>
	<g>
		<path fill="#FFEA0F" d="M61.4,26c-0.1,0-0.2,0-0.2,0L61,32.5l1.2,0.2l0.1-1.5l2.1,2l0.2-1.3l-1.1-1.1c0,0,1.5-0.8,1.5-1.7
			c0-0.9-0.3-2-1.6-2.6C62.5,26.1,61.7,26,61.4,26z M62.7,27.7c0.2,0,0.5,0,0.7,0.1c0.5,0.2,0.3,1.2,0.2,1.6
			c-0.2,0.5-1.4,0.5-1.4,0.5l0.1-2.2C62.3,27.7,62.5,27.7,62.7,27.7z"/>
	</g>
	<g>
		<path fill="#FFEA0F" d="M66.5,27.3l-0.4,6l3.2,0.7l0.1-1.3l-1.7-0.5v-1h0.9v-1.3l-0.8-0.2v-1l1.5,0.2l0.1-1.2L66.5,27.3"/>
	</g>
	<g>
		<path fill="#FFEA0F" d="M74.7,29.8l-0.9,0.7c0,0-0.5-1-1.5-0.5s-1,1.5-0.8,2.2s0.4,1.4,1,1.5c1.1,0.2,0.8-0.5,0.8-0.5l-0.7-0.1
			v-1.3l2.1,0.1c0,0,0.1,2.3-0.5,2.7c-0.7,0.5-2.2,0.9-3.1,0c-0.8-0.8-1.1-1.9-1-3.2c0.1-0.8,0.5-2,1.2-2.4s1.6-0.5,2.1-0.3
			C73.8,28.8,74.7,29.8,74.7,29.8"/>
	</g>
	<g>
		<path fill="#FFEA0F" d="M78,29.2c-1.3,0.1-2.6,0.8-2.4,2.8c0.2,2.9,1.4,3.6,2.7,3.6c1.3,0,2.4-1.8,2.3-3.3
			C80.4,30.8,79.9,29.1,78,29.2z M78,30.4C78.1,30.4,78.1,30.4,78,30.4c1.1,0,1.1,1.2,1.1,1.9c0,0.7-0.2,1.9-1.2,1.8
			c-1.1,0-1-1.2-1.2-2C76.7,31.4,77.4,30.4,78,30.4z"/>
	</g>
	<g>
		<path fill="#FFEA0F" d="M81.5,29.4l0.1,6h1.3v-2.5l1.7,2.3h1.5l-0.2-6.1l-1.4,0.1l0.2,3.2l-2.2-2.9L81.5,29.4"/>
	</g>
	<g>
		<path fill="#FFEA0F" d="M63.6,48.1l-0.3,0.4l-0.4,0.1l0.3,0.4l-0.1,0.5l0.4-0.2l0.5,0.2L63.9,49l0.3-0.4l-0.4-0.1L63.6,48.1"/>
	</g>
	<g>
		<path fill="#FFEA0F" d="M63.6,46.3l-0.3,0.4l-0.4,0.1l0.3,0.4l-0.1,0.5l0.4-0.2l0.5,0.2l-0.1-0.4l0.3-0.4l-0.4-0.1L63.6,46.3"/>
	</g>
	<g>
		<path fill="#FFEA0F" d="M63,44.3l-0.2,0.4l-0.4,0.1l0.3,0.3v0.5l0.4-0.3l0.5,0.1L63.4,45l0.2-0.4h-0.4L63,44.3z"/>
	</g>
	<g>
		<path fill="#FFEA0F" d="M62.4,42.5l-0.2,0.4L61.8,43l0.3,0.3v0.5l0.4-0.3l0.5,0.1l-0.2-0.4l0.2-0.4h-0.4L62.4,42.5z"/>
	</g>
	<g>
		<path fill="#FFEA0F" d="M63.4,49.9l-0.3,0.4h-0.4l0.3,0.4v0.4l0.4-0.2l0.5,0.2l-0.1-0.4l0.3-0.4l-0.4-0.1L63.4,49.9z"/>
	</g>
	<g>
		<path fill="#FFEA0F" d="M63.2,51.7L63,52.1h-0.4l0.3,0.4L62.7,53l0.4-0.2l0.5,0.2l-0.1-0.4l0.3-0.4l-0.4-0.1L63.2,51.7z"/>
	</g>
	<g>
		<path fill="#FFEA0F" d="M62.6,53.4l-0.3,0.4h-0.4l0.3,0.4l-0.1,0.5l0.4-0.2l0.4,0.2l-0.1-0.4l0.3-0.3l-0.4-0.1L62.6,53.4z"/>
	</g>
	<g>
		<path fill="#FFEA0F" d="M62,55l-0.3,0.4h-0.4l0.3,0.4l-0.1,0.5l0.4-0.2l0.4,0.2l-0.1-0.4l0.3-0.3l-0.4-0.1L62,55z"/>
	</g>
	<g>
		<path fill="#FFEA0F" d="M61.1,56.6L60.8,57h-0.4l0.2,0.4l-0.1,0.5l0.4-0.2l0.4,0.2l-0.1-0.4l0.3-0.3L61.2,57L61.1,56.6z"/>
	</g>
	<g>
		<path fill="#FFEA0F" d="M60.1,58.1l-0.3,0.4h-0.4l0.2,0.4l-0.1,0.5l0.4-0.2l0.4,0.2l0-0.4l0.3-0.3l-0.4-0.1L60.1,58.1z"/>
	</g>
	<g>
		<path fill="#FFEA0F" d="M59,59.5l-0.3,0.4h-0.4l0.3,0.4l-0.1,0.5l0.4-0.2l0.4,0.2l-0.1-0.4l0.3-0.3L59.1,60L59,59.5z"/>
	</g>
	<g>
		<path fill="#FFEA0F" d="M57.5,60.8l-0.3,0.4h-0.4l0.3,0.4L57,62.1l0.4-0.2l0.4,0.2l-0.1-0.4l0.3-0.3l-0.4-0.1L57.5,60.8z"/>
	</g>
	<g>
		<path fill="#FFEA0F" d="M55.9,61.8l-0.3,0.4l-0.4,0.1l0.3,0.4l-0.1,0.5l0.4-0.2l0.5,0.1l-0.1-0.4l0.3-0.4h-0.4L55.9,61.8z"/>
	</g>
	<g>
		<path fill="#FFEA0F" d="M54.5,62.9l-0.3,0.4l-0.4,0.1l0.3,0.4L54,64.3l0.4-0.2l0.5,0.1l-0.1-0.4l0.3-0.4h-0.4L54.5,62.9"/>
	</g>
	<g>
		<path fill="#FFEA0F" d="M52.9,63.8l-0.3,0.4l-0.4,0.1l0.3,0.4l-0.1,0.5l0.4-0.2l0.5,0.1l-0.1-0.4l0.3-0.4h-0.4L52.9,63.8"/>
	</g>
	<g>
		<path fill="#FFEA0F" d="M51,64.4l-0.3,0.4l-0.4,0.1l0.3,0.4l-0.1,0.5l0.4-0.2l0.5,0.1l-0.1-0.4l0.3-0.4h-0.4L51,64.4z"/>
	</g>
</g>
<g>
	<path opacity="0.2" enable-background="new    " d="M10.4,74.3V25.8c0-12.1,8.2-22.7,19.8-25.8H0v100h30.2
		C18.5,96.9,10.4,86.3,10.4,74.3z"/>
	<path opacity="0.1" fill="#FFFFFF" enable-background="new    " d="M89.6,25.8v48.5c0,12.1-8.2,22.7-19.8,25.8H100V0H69.8
		C81.5,3.1,89.6,13.7,89.6,25.8z"/>
</g>
</svg>
