<?xml version="1.0" encoding="utf-8"?>
<!-- Generator: Adobe Illustrator 23.0.0, SVG Export Plug-In . SVG Version: 6.00 Build 0)  -->
<svg version="1.0" id="svg2" xmlns:svg="http://www.w3.org/2000/svg"
	 xmlns="http://www.w3.org/2000/svg" xmlns:xlink="http://www.w3.org/1999/xlink" x="0px" y="0px" viewBox="0 0 100 100"
	 enable-background="new 0 0 100 100" xml:space="preserve">
<path id="path14" d="M-2464.3,1916.8L-2464.3,1916.8L-2464.3,1916.8z"/>
<path id="path82" fill="#0073CF" d="M0,100h100V0H0V100z"/>
<path id="path390" fill="#9A3B26" d="M56.6,51.7L56.6,51.7L56.6,51.7"/>
<path id="path84" d="M41.9,24.2c-0.1,0.1-0.1,0.1-0.2,0.1c0-1.5-0.6-2.7-1.3-3.9c-0.1-0.2-0.3-0.3-0.5-0.3c0.3,0.9,0.1,1.8,0.3,2.7
	c0,0,0.1,0.1,0,0.1c-0.1-0.3-0.3-0.6-0.4-0.9c-0.2-0.3-0.4-0.5-0.7-0.7c-0.5-0.2-0.8-0.6-1.2-0.9c-0.2,0-0.3-0.2-0.5-0.3h-0.2v0.2
	c0,0.1,0,0.2,0,0.3c0.6,0.8,1.4,1.4,1.7,2.4c-0.2,0-0.4-0.2-0.6-0.2c-0.1,0-0.1,0.1-0.1,0.1c0.1,0.4,0.4,0.8,0.6,1.1
	c-1-0.5-0.7-1.8-1.6-2.4c-0.1-0.1-0.2-0.3-0.4-0.2c0.1,0.3,0.2,0.6,0.3,0.8c0.1,0.2,0.1,0.4,0.1,0.6l0,0c-0.3-0.1-0.6-0.4-0.9-0.4
	l-0.1,0.1c0.6,0.6,0.9,1.3,1.4,2c0.3,0.8,0.6,1.5,1.3,2.1c-0.1,0.1-0.2,0.2-0.3,0.4l-0.3,0.3c-0.2-0.1-0.4-0.2-0.6-0.3
	c-0.1,0-0.1,0.1-0.1,0.2l0.4,0.6l-0.2,0.1l0,0L37.6,28c-0.7,1-1.4,2-1.7,3.1c-0.1,0-0.3-0.1-0.4,0c-0.2,0.3-0.1,0.5,0.1,0.8
	l-0.1,0.2c-0.1-0.1-0.1-0.2-0.2-0.2c-0.5,0.2-0.1,0.7,0,1c-0.4,1-0.6,2.2-0.8,3.2c-0.2,0.2-0.5,0.5-0.6,0.8l0,0
	c-0.1,0.1-0.1,0.2-0.1,0.4c-0.1,0.2-0.4,0.1-0.7,0.1c-0.2,0-0.1,0.2-0.1,0.3c0.1,0.2,0.4,0.1,0.6,0.1h0.1c0,0.4-0.5,0.3-0.7,0.4
	c-0.3,0.1-0.6,0-0.8,0.2c0.1,0,0.1,0.1,0.2,0.2c0.1,0.2-0.2,0.3-0.3,0.5c0,0.5,0,0.8,0,1.3c0.1,0.1,0,0.2,0,0.3
	c0,0.5-0.1,0.9-0.1,1.3c0,0.1,0.1,0.1,0.2,0.1v1.3c0,0.1,0.1,0,0.2,0.1c-0.1,0.6,0.1,1.2,0,1.9c0,0.1,0.1,0.1,0.2,0.1
	c-0.1,0.2-0.2,0.4-0.2,0.7c0,0.6-0.2,1.3-0.1,1.9l0,0h0.1v0.1c-0.2,0.7,0.2,1.4,0,2.1c0.1,0.1,0.3,0.1,0.4,0.1
	c-0.1,0.1-0.1,0.3-0.2,0.4c-0.3,0.5,0,0.9-0.1,1.4l0.2,0.1c0,0.1-0.1,0.1-0.1,0.2c0.1,0.3,0.1,0.8,0.4,1c0.2,0,0.2-0.2,0.2-0.3
	c0-0.2,0.1-0.3,0.2-0.5c0.5-0.4,0.4-0.8,0.4-1.3c-0.1-0.3,0.2-0.6,0.2-1s0.2-0.7,0.3-1.1c-0.1-0.4,0.2-0.7,0.2-1
	c-0.4-0.6,0.2-1.1,0-1.6c0.3-0.2,0.2-0.5,0.2-0.7c0.2-0.4-0.3-0.7,0.1-1c0.3-0.4-0.1-1.1,0.5-1.3l0.2,0.2l0,0l0.1,0.1
	c0.3,0.9,0.7,1.8,1.2,2.7c0.4,0.9,1.1,1.7,1.6,2.5c-0.4,0.4-0.8,0.9-1.3,1.3c-0.3-0.5-0.4-1-0.8-1.5l0,0l0,0c-0.3-0.1-0.6,0-0.8,0.2
	c-0.3,0.2-0.4,0.4-0.5,0.7c-0.3,0.6,0.6,0.9,0.9,1.3c0.1,0.1,0.4,0.1,0.4,0.3c-0.5,0.9-1.4,1.5-2.1,2.3c-0.4,0.6-1.3,1.1-1.4,1.9
	c0,0.1,0.2,0.2,0.3,0.1c1.6-1,2.8-2.5,4.3-3.8c0.1,0,0.1,0.1,0.1,0c0.1,0.1,0.2,0.1,0.3,0.1c0-0.1,0-0.3-0.1-0.5
	c0.5-0.5,1.1-1,1.7-1.5c0,0.4-0.2,0.8-0.4,1.2c-0.1,0.2-0.4,0.3-0.6,0.4c-0.2,0.1-0.4-0.1-0.5,0c-0.2,0.2,0,0.4,0,0.6
	c-0.1,0.1-0.3,0-0.4,0.1c-0.3,0.1-0.2,0.5-0.3,0.8c0.1,0.1,0.2,0.2,0.3,0.2c0,0.2-0.1,0.4-0.1,0.5c-0.1,0.2-0.3,0.3-0.3,0.5
	c0.1,0.4-0.1,0.7-0.1,1.1l0.1,0.1c0.1,0,0.3,0,0.4,0c0,0.3-0.2,0.4-0.4,0.5c-0.2,0.4-0.1,1-0.1,1.5c0,0.2,0,0.6,0.1,0.8
	c0,0.2-0.2,0.4-0.1,0.6c0,0.3,0.2,0.8,0.1,1.2c0,0.2-0.1,0.6,0.1,0.7c0,0.5,0.1,0.8,0.1,1.3c0.3,0.2-0.1,0.5,0,0.7
	c0,0.1,0.1,0.1,0.2,0.2c-0.1,0.4-0.1,0.8,0.1,1.1c0,0.3,0.2,0.6,0.3,0.9c0.2-0.1,0.2-0.3,0.2-0.4c0.3-0.4,0.5-1,0.3-1.6
	c0.4-0.3,0.2-0.8,0.2-1.2c0.2-0.3,0.2-0.7,0.1-1.1c0.2-0.3,0.2-0.5,0.1-0.9c0.3-0.4,0.1-0.9,0.3-1.3c0.1-0.2-0.1-0.4,0-0.5
	c0.2-0.1,0.2-0.3,0.2-0.5c-0.1-0.5,0.1-1,0-1.5c0.1-0.3,0.2-0.6,0.3-0.9c0.1-0.3-0.1-0.5-0.1-0.8c0.1-0.1,0.1-0.4,0.3-0.3
	c0.2,0,0.1-0.2,0.1-0.3c-0.1-0.3,0.2-0.5,0.1-0.8c-0.2-0.5-0.6-0.8-0.7-1.3c0.1-0.3,0.2-0.6,0.3-1l0.1,0.1l0.1,0.2
	c0,0.1-0.1,0.1-0.1,0.2c0.2,0.6,0.9,0.1,1.1,0.6c-0.1,0-0.1,0.1-0.1,0.2c0,0.3,0.3,0.4,0.6,0.4c0.2,0.1,0.4-0.1,0.5,0.1
	c0.7,0.3,1.3,0.9,2,1.2l0,0h-0.1c0,0.1-0.2,0.2-0.3,0.3c-0.2-0.1-0.5-0.2-0.7-0.2c0,0.1,0,0.1,0,0.2c0.1,0.1,0.2,0.2,0.3,0.3
	c0.2,0,0.5,0,0.6-0.1c-0.1,0.2-0.1,0.3-0.2,0.5c-0.3,0.4-0.8,0.7-1.3,0.8c0,0.1,0,0.3,0,0.4c0,0.1,0.1,0.2,0.2,0.2
	c0.1,0.1,0,0.2,0,0.3c0,0.3-0.1,0.6,0.2,0.8c0,0.2-0.1,0.3-0.1,0.5c0,0.1,0.1,0.2,0.2,0.2V58c0.1,0.4-0.1,0.8,0.2,1.1
	c-0.3,0.2,0,0.6-0.1,0.8c0,0.1,0.2,0.1,0.1,0.2c-0.1,0.1-0.1,0.3-0.1,0.5c0.3,0.3-0.1,0.6-0.1,1c0.3,0.5,0.3,1.1,0.1,1.6
	c0,0.1,0.2,0.1,0.2,0.1s0,0,0,0.1c0,0.4-0.2,0.9-0.1,1.3c0.2,0.8,0,1.8,0.6,2.5c0.1,0,0.2-0.1,0.2-0.2c0.3-0.6,0.4-1.1,0.5-1.7
	c0.3-0.3,0.3-0.7,0.4-1c0-0.6,0.2-1.1,0.2-1.7c0.2-0.6,0.5-1.5,0.2-2.1c-0.1,0-0.1-0.1-0.1-0.2c0.2-0.4,0.3-0.9,0.1-1.3
	c-0.1-0.1,0.1-0.1,0.1-0.1c0.1,0,0.1-0.1,0.1-0.2c0-0.1,0.1-0.2,0-0.3c-0.2-0.6,0.2-1.1,0.1-1.6c-0.4-0.4,0.1-1-0.1-1.5
	c-0.1-0.2-0.4-0.1-0.6-0.2c-0.5-0.2-0.1-0.8-0.1-1.1h0.2c0.6,0.5,1.4,0.5,2.2,0.7c0.1,0.1,0.3,0.1,0.3,0.2c0.1,0.1,0.2,0.2,0.4,0.2
	s0.4-0.3,0.6-0.2c0.2,0,0.2,0.1,0.3,0.2c0.2,0.1,0.5,0,0.8-0.1l0.1,0.3c0,0.3,0,0.6-0.1,0.9l0,0c-0.2-0.1-0.4-0.3-0.6-0.5
	c-0.2,0.1-0.2,0.3-0.4,0.4c0,0.2,0.2,0.3,0.3,0.4h-0.1c-0.2,0.1-0.6,0-0.7,0.2c0,0.4-0.1,0.8,0.1,1.1c0.1,0.1,0.2,0,0.3,0
	c0.1,0.2,0.1,0.3,0.1,0.5c-0.6,0.2-0.2,0.8-0.3,1.2c-0.1,0.3,0.3,0.2,0.4,0.3c-0.1,0.2,0,0.7-0.4,0.8c-0.1,0.1-0.1,0.2-0.1,0.4
	s0.2,0.2,0.3,0.2c-0.1,0.4-0.2,0.9-0.2,1.2c0,0.1,0.1,0.1,0.2,0.2c-0.1,0.2-0.1,0.5,0,0.7c-0.3,0.3-0.2,0.7-0.1,1
	c0,0.1,0.1,0,0.1,0.1v0.1c-0.1,0.3-0.3,0.6,0.1,0.9c-0.1,0.4-0.2,0.8-0.2,1.2c0.1,0.4,0.4,0.9,0.2,1.3c-0.1,0.7,0.3,1.3,0.3,2.1
	c0.3,0,0.3-0.4,0.4-0.6c0.1-0.4,0.3-0.8,0.3-1.3s0.3-1,0.5-1.5c0.2-0.3,0.1-0.6,0.1-0.9c0.2-0.3,0.2-0.6,0.2-0.9
	c0-0.1-0.1-0.2,0-0.3c0.3-0.5,0.3-1.2,0.3-1.8c0.2-0.4,0.2-0.9,0.2-1.4c0.2-0.6,0.2-1.3,0.3-1.9c0-0.2-0.3-0.4,0-0.6
	c0.1-0.4,0.2-0.8,0-1.2l0.2-0.2c0.1-0.1-0.1-0.3-0.1-0.4c-0.2-0.2-0.4-0.6-0.6-0.9c-0.1-0.2-0.3,0-0.4-0.1c0-0.4,0-0.7,0-1.2v-0.1
	c0.5,0,1,0,1.4-0.1c1.4,0,2.8-0.2,4.1-0.7c0.1,0.2,0.3,0.1,0.4,0.1c0,0.2-0.1,0.5-0.1,0.7l-0.1,0.1c-0.3,0.2-0.3-0.3-0.6-0.4
	c-0.1,0.1-0.2,0.3-0.3,0.4c0,0.2-0.2,0.4-0.1,0.5c-0.1,0.1-0.3,0.1-0.4,0.2C54,56,54,56.2,54.1,56.3c0,0.1,0.2,0.2,0.2,0.2
	c-0.1,0.1-0.2,0-0.3,0.1c-0.1,0.5,0,0.8,0.1,1.2c0,0.1,0.2,0.3,0,0.4c-0.2,0.2-0.1,0.5,0,0.7c0.1,0,0.2,0,0.3,0
	c-0.1,0.1-0.2,0.3-0.2,0.4c-0.1,0.7,0.2,1.5,0.2,2.2h0.3c-0.1,0.3-0.3,0.5-0.3,0.8c0.3,0.5,0.3,1.2,0.1,1.8c0.1,0.2,0.1,0.5,0.1,0.7
	c0,0.1,0.1,0,0.2,0.1v0.8c0,0.2,0,0.5,0.2,0.6l-0.1,0.1c-0.1,0.6-0.1,1,0,1.7c0,0.1,0.1,0.2,0.2,0.2c0.2-0.1,0.4-0.3,0.4-0.5
	s0-0.4,0.1-0.6l0,0c0.4-0.4,0.4-0.9,0.5-1.2c0.1-0.6,0.2-1.2,0.4-1.8c-0.1-0.8,0.3-1.5,0.1-2.2c0.3-0.3,0.2-0.6,0.4-0.9
	c0.1-0.3-0.1-0.7,0.1-1c0-0.3-0.2-0.5-0.2-0.8c0.1-0.5-0.3-0.8-0.3-1.2c0.2-0.1,0.6,0,0.7-0.3c0-0.2-0.1-0.3-0.1-0.5
	c0.1-0.1,0.1-0.1,0.2-0.1c0.3-0.1,0-0.3,0.1-0.4l0,0l-0.3-0.5c-0.1-0.1,0.1-0.2,0-0.3c-0.3-0.4-0.5-0.8-0.7-1.3
	c-0.4-0.2-0.3-0.6-0.3-0.9c0.5,0.2,1.1,0.2,1.6,0.2c0.6-0.1,1,0.6,1.7,0.4c0.2,0,0.4-0.1,0.6-0.1c0.2,0.3,0.3,0.6,0.5,0.9h-0.1
	c0,0.2,0,0.6-0.1,0.8c-0.1,0.1,0,0.4,0.2,0.4c-0.2,0.2-0.2,0.6-0.2,0.8c0,0.1,0.1,0,0.2,0.1c-0.4,0.3-0.2,0.9-0.5,1.3
	c-0.1,0.2,0,0.3,0.1,0.4c-0.2,0.4,0,0.9,0.2,1.3c-0.1,0.2-0.2,0.5-0.2,0.7c0.3,0.3-0.1,0.5-0.1,0.8c0.1,0.4,0.1,0.9-0.2,1.3
	c-0.2,0.3,0.1,0.5,0.1,0.8c-0.2,0.4,0.2,0.7,0.1,1.1c0,0.2,0.2,0.3,0.4,0.2c0.2-0.1,0.2-0.4,0.2-0.5c-0.2-0.5,0.6-0.8,0.5-1.4
	c0-0.6,0.4-1,0.5-1.5c0.2-0.2,0.3-0.4,0.3-0.7c-0.3-0.6,0.3-1,0.3-1.5c-0.1-0.5,0.2-0.8,0.2-1.3v-0.2c0.3,0.3,0.5,0.7,0.8,1.1
	c0.2,0.4,0.6,0.8,0.8,1.2c0.1,0,0.1,0,0.1-0.1c0.3,0.5,0.9,0.7,1.4,1c0.2-0.2-0.1-0.5-0.1-0.7c0-0.1-0.2-0.2-0.1-0.3
	c-0.1-0.2-0.3-0.3-0.3-0.5c-0.1-0.1-0.2-0.3-0.3-0.3c-0.3-0.5-0.5-1.1-0.9-1.7c-0.3-0.5-0.7-1-0.8-1.5l0.2-0.1c0-0.4,0-0.7-0.2-1
	c0-0.1-0.2-0.2-0.2-0.4c0.1,0.1,0.2,0.2,0.3,0.2c0.2-0.1,0.2-0.3,0.3-0.5c0.1-0.3-0.2-0.4-0.4-0.6c0.1,0,0.2,0,0.3,0
	c0.2-0.1,0.2-0.4,0.3-0.6c0-0.1-0.1-0.2-0.2-0.3c0.5-0.6-0.4-0.9-0.6-1.4c0.1-0.1,0.1-0.1,0.3-0.1c0.3,0,0.2-0.4,0.2-0.6
	c0-0.2-0.3-0.3-0.4-0.5c-0.6-0.5,0-1.2-0.1-1.8c0.5-0.3,0.5-0.8,0.4-1.3l0.1-0.1c0,0.1,0,0.2,0.1,0.3c0,0.1,0.1,0.1,0.2,0.1
	c0.2-0.2,0.2-0.5,0.1-0.8l0.1-0.1c0.2-0.3,0.3-0.5,0.4-0.8s0.3-0.6,0.4-1V45c0,0.4,0.1,0.7,0.1,1.1c0,0.1,0.2,0.1,0.3,0.2L64.8,47
	c-0.3,0.4,0,0.8-0.2,1.2c0.2,0.4-0.4,0.9,0,1.2c-0.1,0.1-0.2,0.1-0.2,0.2c-0.1,0.2,0.1,0.4,0.2,0.5c0,0.1-0.1,0.2-0.2,0.3
	c-0.2,0.3,0,0.6,0,0.9c-0.2,0.2-0.3,0.5-0.2,0.7c0.4,0.3,0,0.7,0.2,1.1c-0.4,0.5,0.1,1.1,0.2,1.6h0.1c0.2-0.3,0.5-0.6,0.6-0.9
	c0.2-0.3,0.3-0.6,0.5-1c0.4,0.2-0.1-0.1,0.1-0.2c-0.1-0.5,0.3-0.7,0.2-1.2c0-0.6,0.4-1.1,0.6-1.6c0-0.6,0.4-1.3,0.4-1.9
	c0.4-0.5,0.4-1.1,0.5-1.7c-0.1-0.6,0.2-1.1,0.1-1.7c0.5-0.5-0.1-1.2,0.2-1.8c-0.1-0.5,0.2-1,0.1-1.4l0.1-0.1
	c-0.1-0.2-0.3-0.1-0.5-0.1l-0.4-0.9c-0.1-0.2,0-0.3,0.1-0.4c0-0.1,0.1-0.3,0-0.4c-0.1-0.1-0.3,0-0.4,0.1c-0.3,0.3-0.3-0.1-0.4-0.3
	l-0.2-0.3c0-0.3-0.1-0.5-0.3-0.7c0.2-1.2-0.2-2.3-0.3-3.4c0-0.4-0.2-0.8-0.2-1.2c0,0,0,0,0.1,0s0.1-0.1,0.1-0.2
	c-0.1-0.3-0.4-0.5-0.6-0.7v-0.1c0-0.1-0.1-0.1-0.1-0.2c0.1-0.1,0.2,0,0.3-0.1c0.1-0.4-0.4-0.7-0.7-0.9c0-0.2-0.2-0.4-0.2-0.6
	c-0.5-0.9-0.9-1.8-1.6-2.6c0.7-0.7,1.4-1.4,2.2-2.1c0.2-0.2,0.5-0.5,0.5-0.8c-0.1-0.3-0.2-0.5-0.4-0.7l0.2-0.1
	c0.1-0.1,0.2-0.2,0.3-0.3c-0.1-0.2-0.4-0.4-0.5-0.5c-0.2,0.1-0.4,0.3-0.5,0.5c-0.1-0.1-0.2-0.3-0.4-0.4c-0.2,0-0.4,0-0.6,0.1
	c-0.6,0.6-1.2,1-1.7,1.7l-0.2,0.1c-0.4-0.2-0.4,0.3-0.6,0.4c-0.1-0.3-0.6-0.1-0.7-0.4l0,0c0.1-0.1,0.1-0.2,0-0.3
	c-0.2-0.1-0.5-0.1-0.7,0l-0.1-0.2c-0.1-0.1-0.3-0.2-0.3-0.3c-0.9-0.6-1.8-1.2-2.8-1.6c-1.1-0.5-2.3-0.9-3.5-1.1l0,0
	c0.1-0.1,0.1-0.2,0-0.3c-0.1-0.2-0.3,0-0.4,0c-0.2,0.2-0.6,0.1-1,0.2c0.1-0.1,0.3-0.3,0.2-0.5c-0.4,0.1-0.7,0.2-1,0.4
	c-0.6-0.1-1,0-1.6,0c-1.3,0.2-2.8,0.4-4,0.8c-0.2,0-0.7,0.2-0.7,0.2c0-0.2-0.2-0.1-0.3-0.2c-0.4,0.2-0.4,0.7-0.9,0.8
	c-0.1-0.3-0.3-0.6-0.5-0.9s-0.5-0.7-1-0.6c0,0.1-0.1,0.1,0,0.2c0.3,0.6,0.4,1.2,0.5,1.9"/>
<path id="path86" fill="#9A3B26" d="M64.4,50.8c0,0.1,0,0.2,0,0.2c0.3,0.1,0.7,0.1,0.8-0.2c0-0.1,0.1-0.2,0-0.3
	c-0.2,0.1-0.4,0.1-0.6,0.2L64.4,50.8"/>
<path id="path88" fill="#9A3B26" d="M66,51c-0.1-0.2-0.1-0.3-0.1-0.5H66c0.2,0.1,0.2-0.2,0.3-0.2c0.2,0.2-0.1,0.4-0.1,0.6
	C66.1,51,66.1,51,66,51L66,51"/>
<path id="path90" fill="#EFE8C7" d="M66.8,48.3c-0.1,0.1-0.2,0.3-0.3,0.4c-0.1,0-0.1-0.1-0.2-0.1c-0.2,0-0.2-0.1-0.2-0.3H66
	c-0.1,0.2,0.1,0.5-0.2,0.6c-0.2,0.5-0.8,0.6-1.2,0.6c-0.4-0.3,0.1-0.7-0.1-1.1c0.2-0.3,0.1-0.6,0.1-0.9c0-0.3,0.2-0.5,0.4-0.7
	c-0.1,0-0.2,0-0.3-0.1c0-0.2,0-0.6-0.1-0.9c0-0.1-0.1-0.2,0-0.3v-0.2c0.6-1.4,1.1-2.9,1.3-4.4c-0.1-0.2,0.1-0.1,0.2-0.3
	c0.1,0.2,0.1,0.5,0.1,0.8c0,0.2-0.2,0.4-0.2,0.6h0.1c0.4-0.4,0.3-1.1,0.1-1.6l-0.1-0.3c-0.1-0.2-0.3-0.5-0.2-0.7l0.1,0.2
	c0,0.1,0,0.3,0.1,0.4c0-0.2,0-0.4-0.1-0.5l0.1-0.1l0.2,0.2c0,0.1,0.1,0.2,0.1,0.3c0,0.9,0.1,1.9,0.1,2.9c0.1-0.2,0.1-0.6,0.1-0.9
	c0.1,0.1,0.1,0.3,0.3,0.4c0.1-0.2-0.1-0.3-0.1-0.5c-0.1,0-0.1,0-0.1,0c0-0.5-0.1-1.3-0.1-1.8c0.2,0.1,0.4-0.2,0.6-0.3
	c0.1,0.2-0.1,0.3-0.1,0.5s0.1,0.4,0.2,0.6c0.1,0.2,0.2,0.4,0.3,0.6c0.1-0.1,0.2-0.1,0.3,0c0.1,0.2,0,0.6,0,0.8
	c0.1,0.7-0.3,1.2-0.1,1.9c0.1,0.2-0.2,0.4-0.2,0.6c0.1,0.5-0.3,1.1-0.1,1.6c-0.1,0.4-0.1,0.8-0.2,1.2c-0.2-0.2-0.4-0.4-0.6-0.6
	c0,0,0-0.2-0.1-0.1c0,0.3,0.2,0.6,0.3,0.9c0,0.1,0.2,0.2,0.2,0.4c0,0.1-0.1,0.2-0.1,0.4L66.8,48.3"/>
<path id="path92" fill="#9A3B26" d="M66.9,48.4c-0.1,0.5-0.2,0.9-0.4,1.4l0,0c-0.2-0.2-0.2-0.6-0.5-0.6c0,0.2,0,0.6-0.2,0.8
	c-0.1,0-0.1-0.3-0.2-0.3c-0.2,0.2-0.5,0.3-0.8,0.4l-0.2,0.1c-0.1-0.1-0.2-0.2-0.2-0.3s0.1-0.2,0.2-0.3c0.3-0.1,0.7-0.1,1-0.3
	c0.2-0.2,0.5-0.4,0.6-0.7l0.3,0.2C66.7,48.9,66.8,48.6,66.9,48.4L66.9,48.4"/>
<path id="path94" fill="#EFE8C7" d="M64.6,50.1c0.1,0.1,0.1,0.2,0,0.3s-0.2,0.3-0.2,0.4l0.2-0.1c0.2-0.1,0.5-0.1,0.7-0.2
	c0,0.2,0,0.4-0.1,0.6c-0.3,0.1-0.5,0.2-0.8,0.1c0,0.1,0,0.2,0,0.3c-0.1,0.2-0.3,0.4-0.2,0.6l0.3-0.3c0.3,0.3,0.6,0,0.9,0
	c0.1,0,0.1,0.2,0.2,0.1c0.1-0.2,0.3-0.3,0.3-0.6v-0.1L66,51c-0.2-0.2-0.2-0.5-0.2-0.6c0.1-0.1,0.2,0.1,0.3,0.1
	c0.1-0.1,0.1-0.3,0.2-0.4c0.1,0,0.1,0.3,0.2,0.2v-0.1c0-0.1,0.1-0.2,0-0.3c-0.2-0.1-0.3-0.4-0.4-0.6c-0.1,0.1,0,0.2,0,0.4
	c-0.1,0-0.1,0.2-0.3,0.3c-0.1,0-0.1-0.1-0.2-0.2c0,0,0,0,0-0.1c-0.3,0.1-0.5,0.3-0.8,0.3L64.6,50.1"/>
<path id="path96" fill="#9A3B26" d="M62.1,58.4c-0.1-0.1-0.2-0.2-0.4-0.3c0,0.2,0.1,0.5,0.2,0.7h-0.1c0,0.1,0.1,0.1,0.1,0.2
	c0-0.1,0.1-0.2,0.1-0.3L62.1,58.4"/>
<path id="path98" fill="#EFE8C7" d="M49.8,63.7c0-0.1-0.1-0.1-0.1-0.2c-0.2,0,0,0.2-0.1,0.2c-0.1-0.1-0.1-0.2-0.2-0.1
	c-0.1,0-0.1,0.2-0.1,0.3c0.1,0.2,0.3,0.6,0.2,0.8c0,0-0.1-0.1-0.1,0v0.6c0,0,0,0.1-0.1,0c0,0-0.1,0-0.1-0.1c-0.1,0-0.2-0.1-0.3-0.1
	c0.1,0.5,0.6,0.7,0.7,1.2c0,0.4-0.3,0.6-0.4,0.9c-0.2-0.1-0.2-0.3-0.4-0.4c-0.2,0.2-0.1,0.4,0,0.6c0.2,0.4,0,1.1-0.2,1.5
	c-0.2-0.3,0-0.7-0.2-0.9L48,68.2c0-0.1,0-0.3,0.1-0.4h0.1c0.1,0,0.2,0,0.2-0.1c0.1-0.3-0.1-0.7-0.1-1.1c-0.1-0.1-0.2-0.2-0.4-0.2
	c0.1-0.3,0-0.6,0.2-0.9c0.2-0.1,0.5-0.2,0.7-0.4c0-0.1,0.2-0.3,0.1-0.5c-0.3,0-0.7,0.5-0.9,0.1c0-0.1,0-0.3,0.2-0.2
	c0.2-0.2,0.5-0.5,0.8-0.8c-0.2-0.3-0.6,0-0.9-0.2c0-0.3-0.1-0.6,0.1-0.8c-0.1,0-0.1,0-0.2-0.1c0-0.4,0.1-0.9,0.2-1.3
	c-0.1,0-0.2,0-0.3-0.1c-0.2-0.5,0.5-0.5,0.4-0.9c0.1-0.1-0.1-0.3,0.2-0.4c0.1-0.1,0.2-0.2,0.2-0.3C48.5,59.8,48.3,60,48,60l-0.1-1.1
	c0.1-0.1,0.3-0.2,0.4-0.3c0-0.2,0-0.4-0.1-0.6c-0.1,0-0.2,0.2-0.3,0.1c-0.1-0.1,0-0.2-0.1-0.3c0-0.2-0.1-0.6,0-0.8
	c0.3,0,0.6-0.2,0.9-0.2c-0.1-0.2-0.3-0.3-0.3-0.5c0.1-0.1,0.1-0.3,0.2-0.4c0.2,0.2,0.4,0.5,0.7,0.4c0.1-0.3,0-0.7,0-1v-0.2
	c0.1,0,0.3,0,0.4,0c0,0,0,0-0.1,0.1c0,0.2,0,0.5,0,0.7c0.1,0.6-0.3,1-0.2,1.5c0,0.4,0.4,0.7,0.5,1.1H50c-0.1-0.2-0.2-0.4-0.4-0.6
	c-0.1-0.3-0.1-0.5-0.1-0.8c0-0.2,0.1-0.4,0.1-0.6c0.2,0,0.4,0,0.4,0.2c0,0.4,0.5,0.6,0.6,0.9c0.1,0.2-0.1,0.2-0.2,0.3
	c-0.1,0.1,0,0.2,0,0.3c0,0.3,0.1,0.8-0.2,1.1c-0.1,0.2,0.1,0.3,0.1,0.5c-0.1,0.5-0.2,1-0.1,1.5c-0.1,0.1-0.1,0.2-0.1,0.4
	c-0.1-0.1-0.1-0.3-0.2-0.5c-0.1-0.1-0.1-0.3-0.3-0.3c-0.1,0.3,0,0.8,0.1,1.2l0,0c-0.1,0-0.1,0-0.2-0.1c0-0.2-0.1-0.3-0.2-0.5h-0.1
	c0,0.1,0.1,0.4,0.2,0.5v0.1c0.1,0.3,0.2,0.5,0.3,0.8C50,63.1,49.8,63.4,49.8,63.7L49.8,63.7"/>
<path id="path100" fill="#9A3B26" d="M49.7,63.7L49.7,63.7C49.6,63.7,49.6,63.8,49.7,63.7c-0.2,0.1-0.2,0-0.3,0
	c-0.1,0.2,0.1,0.4,0.2,0.6c0,0.1,0.1,0.3,0,0.5l-0.1,0.1h-0.1c0,0.2,0,0.4,0,0.6c-0.1,0.1-0.2,0-0.3,0c0-0.1-0.1-0.1-0.1-0.1l0,0
	c0.1,0.2,0.3,0.5,0.5,0.7c0.2-0.3,0.3-0.7,0.1-1.1c0.3-0.3,0.2-0.7,0.3-1L49.7,63.7"/>
<path id="path102" fill="#EFE8C7" d="M33.7,38c0-0.1,0-0.2,0-0.4c-0.2,0-0.4,0.1-0.7,0.1c0,0.1,0,0.1,0,0.2
	C33.2,38.1,33.4,37.9,33.7,38L33.7,38"/>
<path id="path104" fill="#9A3B26" d="M66.1,40.1C66,40,66,40,66,39.9c-0.1-0.3-0.2-0.5-0.4-0.8c-0.1,0-0.2-0.2-0.3-0.2
	c-0.1,0-0.2,0-0.2,0.1c0.1,0.3,0.3,0.5,0.4,0.7c0.2,0.3,0.3,0.6,0.6,0.9c0.1,0,0.1-0.2,0-0.2c0-0.1-0.1-0.1-0.1-0.2
	c0.1,0,0.1,0.1,0.2,0.2L66.1,40.1"/>
<path id="path106" fill="#9A3B26" d="M35.7,32.1c0,0.1,0.1,0.1,0.1,0.2c0.2,0.2,0.1,0.3,0,0.5c-0.2-0.1-0.2-0.3-0.3-0.5L35.7,32.1"
	/>
<path id="path108" fill="#9A3B26" d="M39.7,50.7c-0.1-0.2-0.3-0.3-0.5-0.5c0.1-0.1,0.2-0.1,0.3-0.3c0.3,0.3,0.5,0.5,0.8,0.8
	C40.2,50.7,39.9,50.8,39.7,50.7L39.7,50.7"/>
<path id="path110" fill="#9A3B26" d="M63.6,47.2c0-0.1-0.1-0.2-0.1-0.3c1-1.9,1.5-4,1.9-6.1c0-0.2,0.1-0.5,0.1-0.7
	c0.5,0.4,0.1,0.9,0.2,1.3c-0.2,0.9-0.4,1.8-0.7,2.6c0,0.2-0.2,0.5-0.2,0.7C64.3,45.5,64.2,46.4,63.6,47.2L63.6,47.2"/>
<path id="path112" fill="#9A3B26" d="M64.4,32.5c0.1,0.1,0.3,0.1,0.4,0.2v-0.2l0,0c0-0.1,0-0.3-0.2-0.3c-0.1-0.1-0.3-0.2-0.5-0.3
	c0,0.1,0,0.2,0.1,0.3L64.4,32.5"/>
<path id="path114" fill="#EFE8C7" d="M61.7,25.9c0.5,0.9,0.4,2,0.4,2.9c1-1,2-2,2.9-2.9c0.1-0.2,0.2-0.3,0.1-0.6l0,0l0,0
	c-0.1-0.5-0.6-0.8-1-1.2c-0.2-0.1-0.3-0.1-0.5,0C63,24.7,62.2,25.2,61.7,25.9L61.7,25.9"/>
<path id="path116" fill="#EFE8C7" d="M65,24.5c0.1-0.1,0.2-0.2,0.3-0.3c-0.1-0.2-0.3-0.3-0.4-0.4c-0.2,0.1-0.3,0.3-0.4,0.4
	c0.1,0.1,0.2,0.2,0.3,0.4L65,24.5"/>
<path id="path118" fill="#B3995D" d="M59,25.6C59,25.7,58.9,25.7,59,25.6C58.9,25.7,58.9,25.7,59,25.6C58.9,25.6,58.9,25.6,59,25.6
	l-0.1,0.2c0.3,0.1,0.8-0.2,0.9,0.3c-0.1,0-0.1,0.1-0.1,0.2c0.1,0.3,0.4,0,0.6,0.1l0.4,0.3v0.1c-0.4,0.2-0.7,0.6-1.1,0.9
	c-0.2,0.1-0.3,0.4-0.6,0.2c-0.1,0,0-0.1,0-0.2c0-0.3,0.1-0.6,0-0.8c-0.3-0.1-0.7-0.1-1.1-0.1c0,0.1-0.1,0.3-0.1,0.4
	c0,0.2-0.1,0.4-0.1,0.6h-0.9c-0.1,0.3-0.1,0.7-0.1,1C56.8,29,56.9,29,57,29c0.1,0.1,0.4,0,0.6,0.1c0,0.2-0.1,0.6,0.1,0.7
	c-1.7,1.8-3.6,3.5-5.2,5.3h-0.1c-0.1-0.5-0.1-1.1-0.1-1.6c-0.1-0.1,0-0.3-0.2-0.2c-0.2,0.3-0.3,0.6-0.5,1c-0.3,0.5-0.3,1-0.3,1.5
	c0,0.2,0.1,0.3,0,0.5c-0.1-1.4-0.2-2.8-1.1-3.9C50,32.1,50,32,49.8,32c-0.1,0.1-0.1,0.1-0.1,0.2c0.4,0.7,0.2,1.7,0,2.4
	c0-0.4,0-0.8,0-1.1c0.1-1.1-0.4-2-0.9-2.9c-0.1-0.1-0.2-0.1-0.3-0.1c-0.1,0.1,0,0.2,0,0.2c0.1,1.1,0.1,2.4-0.1,3.5
	c0,0.5,0.2,1.1,0.3,1.6c0,0.2,0.1,0.4,0,0.6c-0.1-0.1-0.1-0.2-0.2-0.2c-0.2-0.4-0.6-0.8-0.8-1.2c0.2-0.4,0.4-0.9,0.6-1.3
	c0.4-1.6,0.1-3.6-0.5-5.2c-0.2-0.3-0.3-0.7-0.7-0.7C47,27.8,47,28,47,28c0.5,1.1-0.3,2.1,0.1,3.3c0,1.1,0.4,2.2,0,3.4L47,34.8
	c-0.4-0.3-0.5-0.8-0.4-1.2c0.3-0.4,0.4-0.9,0.5-1.3c0-1.2,0.1-2.5-0.9-3.5c-0.3-0.1-0.5-0.5-0.8-0.5c-0.1,0.4-0.2,0.9-0.1,1.4
	c0.5,0.6,0.7,1.4,0.6,2.1l-0.4-0.3c-0.2,0-0.4,0.2-0.6,0.3c-0.1-0.2-0.3-0.4-0.4-0.7c0-0.1,0.1-0.2,0.2-0.2c0.3-1,0.7-2,0.3-3.1
	c-0.1-0.3,0.3-0.1,0.4-0.3v-1.1c-0.3-0.1-0.7-0.1-0.9-0.2c-0.1-0.3,0-0.6,0-0.9c-0.3-0.1-0.7-0.3-1-0.3c0-0.2,0-0.5-0.1-0.7
	c0-0.1-0.1-0.2,0-0.3c0.1,0.1,0,0.2,0.1,0.3c0.4-0.1,0.4-0.5,0.6-0.7c0.7-0.3,1.5-0.5,2.3-0.7c1.3-0.2,2.6-0.4,3.7-0.4h0.1
	c0,0.1-0.1,0.2,0,0.3c0.4,0.1,0.5-0.5,0.9-0.4c0.1,0,0.1,0,0.3,0.1c0.2,0,0,0.2,0.1,0.3c0.2,0.1,0.4-0.2,0.6-0.3
	c0.1,0.1,0.3,0,0.4,0.1c0.7,0.1,1.3,0.4,2,0.6c1.5,0.7,3,1.2,4.4,2.2L59,25.6"/>
<path id="path120" fill="#9A3B26" d="M59.5,25.3c-1.9-1.6-4.3-2.7-6.8-3.1l-0.5,0.4c0.4,0.2,0.9,0.2,1.3,0.4c1.6,0.4,3,1.2,4.5,1.9
	c0.3,0.2,0.7,0.5,1,0.7L59.5,25.3"/>
<path id="path122" fill="#1691FF" d="M58,53.1c0.5,0.3,0.9,0.7,1.5,0.7c0,0,0.1,0,0.1-0.1c-0.1,0,0-0.1,0-0.1L59,52.5
	C58.7,52.6,58.4,52.8,58,53.1L58,53.1"/>
<path id="path124" fill="#9A3B26" d="M57.8,53c-0.1,0-0.1-0.1-0.2-0.1l0.2-0.2c0.3-0.2,0.6-0.4,0.9-0.6c0.1,0.1,0.1,0.1,0.1,0.2
	C58.5,52.5,58.2,52.7,57.8,53L57.8,53"/>
<path id="path126" fill="#9A3B26" d="M55.3,53.9L55.3,53.9c0,0.2-0.1,0.2-0.1,0.3c-0.5,0.2-1.1,0.3-1.6,0.5
	c-0.9,0.2-1.9,0.1-2.7,0.3c-0.5,0-1.2,0.1-1.7,0l0.4-0.4c0.7,0.1,1.3,0,2.1-0.1C53,54.3,54.1,54.4,55.3,53.9L55.3,53.9"/>
<path id="path128" fill="#B3995D" d="M59.2,43.2L59.2,43.2c-0.7,0-1,0.5-1.3,0.9c-0.4,0.8-0.6,1.6-1.2,2.3c-0.1-0.2-0.3-0.4-0.4-0.7
	c0.3-0.3,0.5-0.6,0.8-1c0.7-1,0.4-2.4,0.5-3.5c0.1-0.5,0.2-1,0-1.5c0-0.1,0-0.2-0.1-0.2c0,0.1-0.1,0.1-0.1,0.2
	c-1.5,1.1-0.8,3-1.5,4.5c-0.2,0.3-0.1,0.7-0.2,1.1c-0.2-0.3-0.5-0.5-0.7-0.8v-0.1l0.5-0.8c0.3-0.5,0.5-1.2,0.7-1.8
	c0.2-1,0.6-1.9,0.6-2.9c-0.1-0.4,0-0.9-0.4-1.2c-0.2,0.4-0.5,0.7-0.8,1c-0.8,0.7-1.3,1.7-0.9,2.8v0.1c-0.1,0-0.1-0.1-0.1-0.1
	c-0.5,0.1-0.7,0.6-0.8,1.1c-0.2-0.2-0.3-0.5-0.3-0.7c0.5-0.6,0.7-1.3,0.7-2.1c-0.1-0.9-0.4-1.7-0.5-2.6c0.9-0.7,1.5-1.4,2.3-2.3
	l3.4-3.3c0.6-0.6,1.2-1.1,1.8-1.7c-0.1,0.5-0.2,0.9-0.3,1.4c0,0.3,0.3,0.6,0.3,0.9c-0.3,0.7-0.3,1.4-0.1,2.1
	c-0.2,0.5-0.3,1.2-0.2,1.8c-0.4,0.6-0.2,1.3-0.1,2c-0.3,0.5-0.2,1.3,0,1.9c-0.3,0.4-0.5,0.8-0.5,1.3c0,0.3,0.4,0.6,0.2,1
	c-0.1,0.3,0.1,0.5,0.1,0.7c-0.1,0.1-0.2,0.3-0.2,0.5s0.2,0.3,0.1,0.5c-0.2,0.2-0.1,0.5,0,0.7c-0.1,0-0.1,0.1-0.2,0.2
	c0,0.2,0,0.3,0.1,0.5c0,0.3,0,0.4,0,0.7c0.1,0.1,0.2,0,0.2-0.1s0.2-0.2,0.1-0.3c0.1-0.2,0.1-0.5,0.1-0.8c0.1-0.2,0.1-0.6,0.1-0.8
	l0,0L61,44v-0.9h0.1c0.1-0.1,0.1-0.2,0.1-0.3c0.1-0.3,0.2-0.7,0.1-1.1l0.1-0.1c0-0.4,0.2-0.6,0.2-1.1c0-0.2,0-0.3-0.1-0.4
	c0-0.2-0.2-0.5,0.1-0.6l0,0c0.2-0.4,0.2-0.8,0.2-1.1c0.1-0.2,0.2-0.5,0.2-0.7c-0.1-0.2,0.2-0.3,0.1-0.5c0.6-0.6,0.5-1.5,0.4-2.2
	c0.4-0.7,0.3-1.5,0.1-2.2c0.3-0.7,0.4-1.5,0.3-2.3c0-0.1-0.1-0.3-0.1-0.4c0.3,0.4,0.5,0.9,0.8,1.4l0,0h-0.1c-0.1,0,0,0.1-0.1,0.2
	c0.1,0.2,0.3,0.4,0.5,0.4c0,0.1,0.1,0.2,0.1,0.3v0.2c-0.1,0-0.2-0.1-0.3-0.1c0,0-0.1,0-0.2,0c0,0.5,0.6,0.5,0.9,0.9
	c0.5,1.4,0.6,3,0.7,4.6H65c-0.2,0.3,0.1,0.5,0.3,0.7c-0.1,0.1,0.1,0.3-0.1,0.2l0,0c-0.1,0-0.3-0.1-0.4,0c-0.1,0.4,0.4,0.6,0.5,1
	c-0.4,2.4-0.9,4.7-2,6.9l-0.1-0.2c0,0-0.1-0.1-0.2-0.1c-0.1,0.2-0.1,0.4-0.1,0.6l0.1,0.1c0,0,0,0,0-0.1L62.9,47
	c-0.1-0.1-0.2,0-0.3,0.1c-0.1,0,0.1-0.2-0.1-0.2c-0.3,0.3-0.7,0.7-0.8,1.2c0,0.4-0.2,0.9-0.4,1.2c-0.2-1.1,0.9-1.9,0.5-3
	c-0.1-0.3-0.2-0.6-0.3-0.9c-0.1-0.1,0-0.3-0.2-0.3c0,0.6-0.3,1.3-0.7,1.8c-0.2,0.4-0.4,0.7-0.5,1.1v-0.1c-0.1-1.3,0-3.1,0.2-4.4
	c0-0.3,0-0.7-0.1-0.9c-0.2,0.1-0.4,0.3-0.6,0.4L59.2,43.2"/>
<path id="path130" fill="#B3995D" d="M51.5,41.1c-0.2,0-0.5,0.1-0.7,0.2c-0.4,0.2-0.1,0.6-0.1,0.9c-0.2-0.1-0.5,0-0.8-0.1
	s-0.6-0.1-1-0.2c0.1-0.2,0.3-0.3,0.4-0.4l0.1-0.1c0.2-0.1,0.2-0.1,0.4-0.2C50.2,40.8,50.9,41,51.5,41.1C51.4,40.9,51.4,41,51.5,41.1
	L51.5,41.1"/>
<path id="path132" fill="#9A3B26" d="M55.7,51.7c0.4-0.1,0.7-0.2,1.1-0.3c0.1,0.2,0,0.4,0,0.7c-0.4,0-0.8,0-1.2,0V52L55.7,51.7"/>
<path id="path134" fill="#B3995D" d="M44.7,33c-0.3-0.6-0.6-1.2-1.1-1.7c-0.4,0.2-0.7,0.5-1.1,0.7c-1.4,0.4-2.6-0.6-4.1-0.3
	c-0.1-0.1-0.2,0-0.3-0.1c0.1-0.2,0.4-0.4,0.6-0.6c0.1-0.1,0.4-0.1,0.5-0.2c-0.4-0.6-0.5-1.4-1.2-1.8c0-0.1-0.1-0.2-0.1-0.3
	c0.1-0.1,0.2-0.1,0.3-0.1c1.1,0.1,1.5,1.3,2.4,1.8c0.4,0.1,0.9,0,1.3,0.1c0.5,0.1,0.8,0.4,1.3,0.3c-0.2-0.5-0.5-1-1.1-1.1
	c-0.6-0.2-1.4-0.3-2.1-0.3c0-0.1-0.2-0.1-0.3-0.1c-0.6-0.2-1.2-0.7-1.6-1.2l-0.2,0.2c-0.1,0.2-0.3,0.4-0.4,0.6
	c-0.6,0.9-1.4,1.9-1.7,3c0,0.3,0.3,0.6,0.2,0.9c-0.1-0.1-0.2-0.1-0.3-0.2l-0.2,0.3c0.1,0.2,0.2,0.4,0.2,0.7c0,0-0.1,0.1-0.2,0.1
	l-0.2-0.1l-0.1,0.1C35,34.4,34.6,36,34.6,36c-0.2,1.8-0.2,3.7,0.3,5.4c0.1,0.4,0.2,0.8,0.2,1.2c0.2,0.2,0.5,0.3,0.5,0.6
	c-0.1,0.1-0.3,0.1-0.4,0.1c0,0.1,0.1,0.3,0,0.4c0.3,0.2,0.6,0.3,0.8,0.6c0.1,0.1-0.1,0.2-0.2,0.2h-0.1c0,0.3,0.2,0.5,0.3,0.7
	c0.7,1.3,1.4,2.6,2.3,3.7l0.7-0.8l3.6-3.8c0.1,0,0-0.1,0.1-0.1s0.2,0.1,0.3,0.1c0-0.2-0.1-0.6,0-0.8c0.7-0.6,1.4-1.3,2.1-2
	c-0.1-0.1-0.3-0.2-0.4-0.3c0.1-0.1,0.3-0.2,0.4-0.3c-0.3,0-0.7,0.2-1.1,0c-0.3-0.1-0.5-0.1-0.7-0.2c-0.1,0-0.1-0.1-0.2-0.1v-0.1
	c0.2-0.1,0.3-0.2,0.6-0.3c-0.4-0.2-1-0.4-1-1c0-0.1,0.1-0.1,0.1-0.1c0.4,0,1,0.4,1.5,0.1c0.7-0.2,1.6,0,2.3-0.6
	c-0.9,0.1-1.7,0.5-2.6,0.4c-0.6-0.2-1.2-0.3-1.7-0.7c-0.3-0.1-0.6-0.3-0.8-0.5c0.7-0.6,1.5,0.1,2.3,0c0.6-0.1,1-0.5,1.5-0.5
	c0.6-0.1,1.3,0.3,1.8-0.2C47,37,47,36.9,46.9,36.8c0-0.1-0.1-0.2-0.2-0.3c-0.1-0.1-0.3-0.3-0.4-0.3c-0.2,0-0.4,0.1-0.6,0.2
	c-0.3,0.2-0.7,0.5-1.1,0.7c-0.3,0.1-0.8,0.2-1.2,0.1c-0.7-0.2-1.5-0.4-2-0.9c-0.3-0.4-0.4-0.8-0.7-1.1c0-0.1,0.1-0.1,0.1-0.2
	c0.3-0.1,0.5,0.2,0.7,0.1c0.7,0.3,1.4,0.8,2.2,0.6c0.5-0.2,1.1-0.1,1.6-0.4l-0.4-0.5c-0.4,0.1-0.7,0.4-1.2,0.5
	c-1,0.3-1.6-0.7-2.7-0.4c-0.2-0.1-0.5-0.1-0.8-0.2c-0.3,0-0.5-0.2-0.7-0.3s-0.4-0.3-0.5-0.5c-0.1-0.1-0.1-0.2-0.2-0.3l0,0
	c-0.1-0.2-0.4-0.4-0.5-0.6c0.1-0.2,0.3-0.1,0.5-0.1c0.4,0.1,0.8,0.3,1.2,0.4c0.4,0.1,0.8,0,1.2,0.2c0.4,0.1,0.8,0.3,1.2,0.6
	c0.1,0.1,0.3,0.1,0.5,0.1c0-0.1-0.1-0.2-0.1-0.3c0-0.2,0-0.5,0.1-0.6c0.3-0.1,0.7-0.1,1,0L44.7,33"/>
<path id="path136" fill="#9A3B26" d="M55.4,53.9c0.1,0,0.3,0.1,0.4,0.1c-0.1,0.2-0.3,0.3-0.5,0.3c-0.1-0.1,0-0.2,0-0.2L55.4,53.9"/>
<path id="path138" fill="#9A3B26" d="M63,47.4c0,0.1,0,0.1,0,0.2h0.1C63.1,47.5,63.1,47.4,63,47.4L63,47.4"/>
<path id="path140" fill="#9A3B26" d="M38.3,27.4c0.1,0.1,0.3,0.2,0.4,0.2c0.1-0.3,0.4-0.5,0.5-0.7c-0.1-0.1-0.2-0.1-0.4-0.2
	c-0.1,0.2-0.2,0.3-0.3,0.4L38.3,27.4"/>
<path id="path142" fill="#9A3B26" d="M50.3,22.4c0-0.1,0.1-0.1,0.1-0.2c0.1-0.1,0.2-0.2,0.2-0.3c-0.6-0.1-1.2-0.1-2,0
	c-1.4,0.2-2.7,0.4-4,0.9c-0.1,0-0.4,0.1-0.4,0.2c0,0-0.1,0.4-0.2,0.5c0.3-0.1,0.7-0.3,1.1-0.3c1.2-0.4,2.3-0.4,3.5-0.6
	c0.4,0,1-0.1,1.4-0.1L50.3,22.4"/>
<path id="path144" d="M41.9,24.2L41.9,24.2"/>
<path id="path146" fill="#B3995D" d="M41.7,25.1c0,0.3-0.1,0.6-0.1,0.9c0.1,0.1,0.1,0.3,0.2,0.4c0-0.6,0.4-1,0.3-1.5L42,25
	L41.7,25.1"/>
<path id="path148" fill="#9A3B26" d="M51.6,21.6c-0.1,0.3-0.5,0.5-0.8,0.8c-0.2,0.1-0.3,0.3-0.6,0.4c0-0.4,0.3-0.7,0.6-1
	C51.1,21.7,51.4,21.7,51.6,21.6"/>
<path id="path150" fill="#9A3B26" d="M52.8,21.8c0.1,0.3-0.3,0.3-0.4,0.5c-0.3,0.2-0.5,0.3-0.8,0.5c0-0.1,0.1-0.2,0.1-0.3
	C52.1,22.1,52.4,21.9,52.8,21.8"/>
<path id="path152" fill="#9A3B26" d="M52,22.1l-0.4,0.4h-0.3c0,0-0.1,0-0.3-0.1l0.4-0.4C51.6,22,51.8,22,52,22.1"/>
<path id="path154" fill="#9A3B26" d="M43.6,24c0,0.1-0.1,0.2-0.2,0.2c-0.1-0.5,0.1-1.1,0.6-1.3C44.4,23.2,43.8,23.6,43.6,24"/>
<path id="path156" fill="#395839" d="M39,23.3c0.2,0.3,0.5,0.4,0.8,0.6c0.2,0.3,0.6,0.5,0.6,0.9c-0.2,0-0.3-0.1-0.5-0.3
	c-0.3-0.2-0.7-0.1-0.9-0.4c-0.2-0.4-0.4-0.7-0.6-1.1C38.6,23.1,38.8,23.2,39,23.3"/>
<path id="path158" fill="#9A3B26" d="M43.4,23.5c-0.1,0.1,0,0.3-0.1,0.4c0-0.1,0-0.2-0.1-0.3C43.2,23.6,43.3,23.5,43.4,23.5"/>
<path id="path160" fill="#9A3B26" d="M44.3,25.3c0,0.4-0.1,0.6,0,1c0.3,0,0.7,0.1,0.9,0.2v1c-0.1,0.1-0.2,0-0.4,0.1
	c-0.2-0.5-0.4-0.8-0.7-1.2c-0.1,0-0.1-0.1-0.2,0c-0.2,0.6,0.1,1.1,0,1.7c-0.1,0.4-0.1,0.8-0.1,1.2c-0.1,0-0.3,0-0.4,0
	c0.5-1.1,0.6-2.6-0.1-3.6c0-0.1,0-0.3,0.1-0.4C43.7,25,44,25.1,44.3,25.3"/>
<path id="path162" fill="#1691FF" d="M39.8,25.7l-0.1,0.2l-0.5-0.4l0,0C39.4,25.5,39.6,25.6,39.8,25.7"/>
<path id="path164" fill="#9A3B26" d="M60.3,25.6c-0.4,0.3-0.8,0.3-1.3,0.2l0,0c0-0.2,0.3-0.2,0.4-0.3C59.7,25.4,60,25.4,60.3,25.6
	L60.3,25.6"/>
<path id="path166" fill="#9A3B26" d="M40.3,26c0,0.1-0.1,0.2-0.2,0.1l-0.4-0.2C39.9,25.6,40.1,25.9,40.3,26"/>
<path id="path168" fill="#9A3B26" d="M60.3,25.9c-0.2,0-0.4,0.3-0.6,0.1c0.1-0.1,0.4-0.1,0.5-0.2L60.3,25.9"/>
<path id="path170" d="M51.8,26.1v1c0.2,0,0.5,0.1,0.6,0.2c0.1,0.2,0,0.4,0,0.6c-0.1,0.2,0,0.6-0.3,0.5c-0.2,0-0.4-0.1-0.6-0.1
	c-0.1,0.6-0.1,1.2-0.2,1.7c-0.3,0.2-0.7,0.1-1,0s-0.1-0.4-0.1-0.6c0.1-0.4,0-0.8,0-1.2c-0.3-0.1-0.6,0-0.8-0.2
	c0-0.3,0.1-0.7,0.1-1.1c0.3-0.3,1,0.2,1-0.4c0-0.2,0-0.5,0.1-0.7C51,26,51.4,25.9,51.8,26.1"/>
<path id="path172" fill="#EFE8C7" d="M61.3,29.6L61.3,29.6c-0.1,0.2-0.2,0.3-0.3,0.3c-2.1,2-4.4,4.1-6.3,6.2c-0.3,0.3-0.6,0.6-1,0.9
	c-0.2-0.7-0.2-1.4-0.8-1.9h-0.1c0.2,0.6-0.1,1.1-0.1,1.7c0.1,0.4-0.1,0.8-0.1,1.2l-0.2,0.1c0.4-1,0.2-2,0-3.1v-0.1
	c1.9-2,3.8-3.7,5.7-5.7c0.8-0.8,1.7-1.7,2.6-2.5c0,0.9,0.4,1.6,0.7,2.3L61.3,29.6"/>
<path id="path174" fill="#EFE8C7" d="M61.5,28.1c-0.2-0.5-0.3-1.1-0.2-1.7c0.3,0.6,0.3,1.2,0.3,1.9L61.5,28.1"/>
<path id="path176" fill="#773141" d="M61.4,28.2c-0.2-0.5-0.3-1.1-0.2-1.7c0-0.1,0.1-0.2,0.2-0.2c0.2,0.1,0.2,0.3,0.3,0.5
	c0.1,0.8,0.2,1.6,0,2.4l-0.1,0.4l-0.1,0.1c-0.2,0.7-0.6,1.6-0.1,2.2h0.1V32c0.2,0.3,0.3,0.6,0.5,1c0.2,0.6,0.4,1.1,0.7,1.6
	c0.4-0.7,0.2-1.5,0-2.2c-0.7-0.7-0.9-1.7-1.1-2.6c0,0,0-0.1,0.1-0.1c0.2,0.6,0.4,1.3,0.6,1.9c0.2,0.3,0.4,0.6,0.6,0.8
	c0.2-0.6,0.4-1.3,0.3-2c-0.1-0.6-0.5-1.3-1.2-1.4h0.1v-0.2C62,28,62,27,61.7,26.1c-0.1-0.1-0.1-0.3-0.3-0.2
	c-0.1,0.2-0.4,0.3-0.5,0.6c-0.1,0.6,0.1,1.3,0.3,1.9c0,0.1,0.2,0.5,0.3,0.7l0,0c0-0.1,0-0.2,0-0.3c0-0.1,0-0.2,0-0.3L61.4,28.2"/>
<path id="path178" fill="#9A3B26" d="M51.7,26.1c0.1,0.3,0,0.7,0,1c0.1,0.1,0.2,0,0.4,0.1l0.3,0.1c0,0.3,0,0.6-0.1,0.9
	c-0.3,0.1-0.6-0.2-0.8,0.1c0,0.6-0.1,1.1-0.2,1.7c-0.2,0.1-0.4,0-0.6,0c-0.1,0-0.3,0-0.4-0.1c0.1-0.6,0.1-1.2,0.1-1.8
	c-0.2-0.1-0.4,0-0.6,0h-0.2c0-0.4,0-0.7,0.1-1c0.3-0.1,0.5,0,0.8-0.1c0.1-0.3,0.1-0.7,0.1-1L51.7,26.1"/>
<path id="path180" fill="#B3995D" d="M40.9,26.3c-0.2,0-0.4-0.1-0.6-0.2C40.5,25.9,40.7,26.3,40.9,26.3"/>
<path id="path182" fill="#9A3B26" d="M60.7,26.1l0.1,0.1c-0.2,0.1-0.3,0.1-0.5,0.1s-0.3,0.1-0.5,0c0-0.1,0.1-0.1,0.1-0.1
	c0.1,0,0.1-0.1,0.2-0.1C60.3,26,60.5,26,60.7,26.1"/>
<path id="path184" fill="#9A3B26" d="M60.7,26.6c-0.1,0-0.2-0.1-0.2-0.1c0.1,0,0.2,0,0.3-0.1C60.7,26.4,60.7,26.5,60.7,26.6"/>
<path id="path186" fill="#B3995D" d="M42.6,27.1c0.1,0,0.2,0.1,0.3,0.1c0,0.5-0.1,0.8-0.1,1.2c-0.2-0.2-0.2-0.5-0.4-0.7
	c0-0.2,0-0.4,0-0.6H42.6"/>
<path id="path188" fill="#9A3B26" d="M42.6,27c0.1,0,0.2,0.1,0.3,0.1c0-0.2-0.1-0.3-0.2-0.5c-0.1,0.1-0.2,0.3-0.2,0.5L42.6,27"/>
<path id="path190" fill="#B3995D" d="M41.4,27.4c0.2,0.6,0.7,1,0.9,1.6c-0.5-0.1-0.8-0.7-1.3-0.8c-0.7-0.1-1.5-0.2-2.2-0.6
	c0.1-0.2,0.3-0.4,0.5-0.6C40,27.2,40.7,27.4,41.4,27.4"/>
<path id="path192" fill="#9A3B26" d="M58.9,27L58.9,27c0.1,0.4,0.1,0.7,0,1c0.1,0.1,0.2,0.1,0.3,0.1c-0.4,0.5-1,1.1-1.6,1.5v-0.7
	c-0.3-0.1-0.5,0-0.8-0.1c0-0.2,0-0.6,0-0.8c0.2,0,0.7,0.1,1,0c0.1-0.3,0.1-0.7,0.2-1C58.3,27,58.6,27.1,58.9,27"/>
<path id="path194" fill="#9A3B26" d="M38,27.8c-0.3,0.4-0.6,0.6-0.7,0.8c-0.6,0.8-1,1.7-1.4,2.6c0.1,0.2,0.1,0.3,0.2,0.5
	c0.4-1.3,1.3-2.3,2.2-3.7L38,27.8"/>
<path id="path196" fill="#D1B881" d="M62.2,28.8c-0.1,0.1-0.1,0.2-0.1,0.3c0.2,0.1,0.5,0.2,0.6,0.4L62.2,29V28.8"/>
<path id="path198" fill="#9A3B26" d="M62.2,28.8c0.1-0.1,0.3-0.2,0.3-0.3l0,0c0.6,0.8,1.1,1.7,1.5,2.6l0.2,0.5
	c-0.7,0.1-0.6-0.8-0.9-1.1c-0.3-0.5-0.6-1-1-1.4L62.2,28.8"/>
<path id="path200" fill="#B3995D" d="M43.9,29.3c0,0.4,0.4,0.8,0.1,1.2c-0.2-0.4-0.8-0.7-0.6-1.3C43.5,29.3,43.7,29.2,43.9,29.3"/>
<path id="path202" fill="#9A3B26" d="M35.9,31.3c0.2,0.4,0.3,0.9,0.4,1.3c-0.4-0.3-0.5-0.7-0.8-1.1c-0.1-0.1,0-0.3,0.1-0.4
	C35.7,31.2,35.9,31.2,35.9,31.3"/>
<path id="path204" fill="#9A3B26" d="M65,32.2L65,32.2c-0.4-0.1-0.8-0.4-1.2-0.5c-0.1-0.1-0.2-0.1-0.2-0.2
	C64.2,31.5,64.8,31.7,65,32.2"/>
<path id="path206" fill="#9A3B26" d="M35.5,32.5c0.2,0.3,0.5,0.6,0.5,1c-0.3-0.1-0.6-0.4-0.6-0.7h-0.1c0-0.2-0.3-0.5-0.1-0.7
	C35.4,32.1,35.4,32.4,35.5,32.5"/>
<path id="path208" fill="#773141" d="M62.4,34.7c0.1,0.1,0,0.2,0.1,0.3c0.1,0.6,0.1,1.3-0.3,1.8c-0.1-0.3-0.1-0.6-0.2-0.9
	c-0.2-0.9-0.9-1.6-0.9-2.6c0-0.4,0.1-0.7,0.2-1C61.8,33.1,61.9,34,62.4,34.7"/>
<path id="path210" fill="#9A3B26" d="M65.5,33.7c-0.6,0-0.9-0.8-1.5-0.9c-0.1-0.1-0.2-0.2-0.2-0.3C64.5,32.6,65.2,33,65.5,33.7"/>
<path id="path212" fill="#9A3B26" d="M35.6,33.4c-0.4,1.3-0.7,2.7-0.7,4c0,0.8-0.1,1.5,0.1,2.3c0.1,1,0.4,1.8,0.5,2.8
	c-0.2-0.2-0.7-0.2-0.6-0.6c-0.3-1.1-0.2-2-0.4-3.1v-0.2l0,0c0,0,0-0.6,0-0.8c0.1-0.9-0.1-2,0.3-3c0.1-0.6,0.3-1.2,0.5-1.8
	C35.4,33.2,35.5,33.3,35.6,33.4"/>
<path id="path214" fill="#9A3B26" d="M65.4,34.1c0.3,0.9,0.2,2,0.5,2.9c0,0.4,0.1,0.9,0,1.3c-0.1-0.2-0.4-0.1-0.4-0.3
	c-0.1-1.1-0.1-2.4-0.4-3.4c0-0.4-0.2-0.7-0.3-1.1C64.9,33.7,65.5,33.6,65.4,34.1"/>
<path id="path216" d="M44.6,33.9c0.1,0,0.2,0,0.3,0c0.1,0.1,0.4,0.1,0.4,0.3c-0.1,0-0.2-0.2-0.3-0.2c-0.3-0.1-0.6-0.1-0.8,0v-0.1
	c0.1,0,0.1,0,0.1-0.1C44.2,33.9,44.5,33.8,44.6,33.9"/>
<path id="path218" fill="#773141" d="M62.1,37.1L62.1,37.1C62,37.4,62,37.7,62,38c-0.2-0.7-0.7-1.1-0.9-1.8c0-0.5-0.1-1.2,0.1-1.7
	C61.6,35.3,62,36.1,62.1,37.1"/>
<path id="path220" fill="#B3995D" d="M50,37.3c-0.1,0.1-0.2,0.2-0.3,0.3c-0.1-0.2-0.3-0.3-0.4-0.5c0-0.6,0.2-1,0.3-1.5l0.1-0.3
	C49.7,35.9,49.8,36.6,50,37.3"/>
<path id="path222" fill="#1691FF" d="M34.3,37.2c-0.2,0.3-0.2,0.6-0.3,1c0.1,0.1,0.2,0.1,0.3,0.2C34.3,38,34.4,37.6,34.3,37.2
	L34.3,37.2"/>
<path id="path224" fill="#EFE8C7" d="M34.4,37c0-0.2,0-0.4,0-0.7c-0.2,0.2-0.5,0.5-0.5,0.9c-0.3,0.6-0.1,1.4-0.2,2.1
	c-0.1,0.4,0,0.9-0.1,1.3c-0.1,0.2-0.2,0.4-0.5,0.4c-0.1-0.2,0.2-0.2,0.2-0.3c0.2-0.3,0.2-0.7,0.1-1.1l-0.2,0.2c-0.1,0.1-0.1,0-0.1,0
	c0.2-0.2,0.3-0.3,0.4-0.5c0-0.3,0.2-0.8,0.1-1c-0.3,0.3-0.9,0.3-1.3,0.4c0.1,0.1,0.1,0.2,0.1,0.4c-0.7,0.3-0.2,1-0.3,1.5
	c0,0.2,0.3,0.1,0.4,0.2c0,0.2-0.2,0-0.3,0.1c-0.1,0.4-0.1,1,0,1.4c0,0,0.1,0,0.1-0.1c0,0,0,0,0,0.1l0.5-0.1c0,0,0.1,0,0,0.1
	c-0.2,0.1-0.4,0-0.5,0.1c0,0.1-0.1,0.4,0.1,0.3c0.1,0.1,0.3,0.2,0.3,0.4c0.1,0.1,0.2,0,0.3,0c0.1,0.1,0,0.2,0,0.3
	c-0.2,0.1-0.3,0.5-0.6,0.3c0,0.7,0.1,1.2,0.1,1.9c0.1,0.1,0.2,0,0.3,0.1c-0.1,0.1-0.1,0-0.2,0.1c-0.1,0.3-0.3,0.7-0.2,1.1h0.2
	c0.2,0.1,0,0.5,0.1,0.7c0.2-0.1,0.4-0.3,0.5-0.5c0.2-0.1,0.1,0.2,0.2,0.3c0.2,0,0.1-0.2,0.3-0.2v0.1c0.1,0,0.2,0.2,0.3,0.2
	s0.1-0.1,0.1-0.2h0.1c0-0.1,0-0.2,0-0.2c-0.2-0.3,0.4-0.4,0.2-0.7c0.2-0.4,0-0.7,0-1c-0.1-0.3-0.4-0.7-0.2-1.1
	c0.2,0,0.2,0.3,0.2,0.3c0-0.4,0.3-0.6,0.4-1c0-0.1,0.1,0,0.1,0V44l0,0c0.1-0.1,0.1-0.3,0.1-0.4c0,0,0-0.1,0.1,0v-0.1c0,0,0,0,0-0.1
	c0.1-0.4-0.4-0.4-0.5-0.8c-0.1-0.1-0.1-0.3,0.1-0.4c-0.3-0.9-0.2-1.8-0.3-2.7c-0.2-0.3,0.2-0.9-0.3-1.1c-0.1-0.1-0.1,0-0.1,0.1
	c0-0.4,0-0.9,0.3-1.3L34.4,37"/>
<path id="path226" fill="#9A3B26" d="M35.3,43.5c0.3,0.3,0.8,0.4,1.1,0.7c0,0,0.1,0.1,0,0.1c-0.1,0.1-0.2,0.1-0.3,0
	c-0.3-0.2-0.6-0.2-0.8-0.5C35.3,43.7,35.3,43.7,35.3,43.5L35.3,43.5"/>
<path id="path228" fill="#EFE8C7" d="M51.1,39.2l-0.3-0.3c0.2-0.3,0-0.7,0.1-1.1c0.1-0.6,0.3-1.1,0.3-1.6
	C51.4,37.2,51.4,38.3,51.1,39.2"/>
<path id="path230" fill="#773141" d="M61.8,38.3c0,0.3,0,0.7-0.2,1c-0.4-0.8-1.1-1.7-0.8-2.7c0-0.1,0-0.2,0.1-0.2
	C61.1,37,61.8,37.5,61.8,38.3"/>
<path id="path232" fill="#EFE8C7" d="M50,37.4c0,0.2,0.1,0.5,0.1,0.7c-0.1-0.2-0.4-0.3-0.4-0.5C49.9,37.5,50,37.4,50,37.4"/>
<path id="path234" fill="#9A3B26" d="M65.8,38.5c0.2,0.1,0.3,0.4,0.3,0.6c0,0.1-0.1,0.1,0,0.2c-0.2-0.4-0.8-0.8-0.9-1.2V38
	C65.4,38.2,65.8,38.2,65.8,38.5"/>
<path id="path236" fill="#B3995D" d="M48.9,38.3c0,0.1-0.2,0.1-0.2,0.2c0-0.1,0.1-0.2,0.1-0.3C48.9,38.2,48.9,38.2,48.9,38.3"/>
<path id="path238" fill="#B3995D" d="M52.9,39.8C52.9,39.7,52.9,39.7,52.9,39.8c-0.3-0.1-0.6,0-0.7,0.2c-0.1,0.1-0.2,0.3-0.2,0.4
	c-0.1-0.2-0.3-0.3-0.4-0.5c0.1-0.3,0.4-0.6,0.5-0.9c0.1-0.2,0.2-0.5,0.5-0.7C52.7,38.8,53,39.2,52.9,39.8L52.9,39.8"/>
<path id="path240" fill="#1D5C42" d="M52.8,39.9C52.8,39.9,52.7,39.8,52.8,39.9c-0.3,0-0.5,0.2-0.6,0.4c-0.1,0.1,0,0.2-0.1,0.3
	c0.1,0.3,0.4,0.5,0.6,0.8c0.1-0.1,0.1-0.3,0.1-0.5C53,40.5,53,40.2,53,40L52.8,39.9"/>
<path id="path242" fill="#773141" d="M61.5,39.4c-0.2,0.4,0.1,0.8,0.1,1.2c0,0.3-0.1,0.5-0.1,0.7l0,0c-0.4-1-0.9-2-0.6-3.1
	C61.1,38.6,61.3,39,61.5,39.4"/>
<path id="path244" d="M34.2,38.8c0,0.2-0.1,0.5,0.1,0.6c0,0.1,0.1,0.1,0.1,0.2c0,0,0,0.1-0.1,0s-0.1-0.2-0.2-0.3
	c0,0.2-0.2,0.5,0,0.6c0,0.1,0.1,0.2,0.1,0.3C34,40.2,34,40.1,34,40c0,0.1,0,0.2-0.1,0.2l0,0C34,39.7,34.1,39.3,34.2,38.8L34.2,38.8
	C34.1,38.8,34.1,38.8,34.2,38.8"/>
<path id="path246" fill="#9A3B26" d="M65.9,39.4c0-0.2-0.4-0.3-0.3-0.6C65.7,39,66,39.2,65.9,39.4"/>
<path id="path248" fill="#1D5C42" d="M44.3,40.2c0-0.2-0.4-0.2-0.6-0.4c-0.2-0.1-0.3-0.3-0.3-0.6c0.4-0.1,0.8,0.2,1.2,0.1
	c0.3-0.1,0.7-0.2,1.1-0.2C45.3,39.5,44.9,39.9,44.3,40.2"/>
<path id="path250" fill="#EFE8C7" d="M50.3,39.8c-1,0-1.7,0.7-2.6,0.9c-0.4,0.1-0.9,0.1-1.3,0.1c0.1-0.1,0.3-0.2,0.3-0.4
	c0.2-0.1,0.5-0.3,0.5-0.3s0.9,0,1.4-0.1c0.4-0.2,0.9-0.4,1.3-0.6L50.3,39.8"/>
<path id="path252" fill="#773141" d="M61.3,41.3L61.3,41.3c0,0.6,0,1.1-0.2,1.6c-0.2-0.5-0.6-1-0.7-1.6c0-0.4,0.2-0.8,0.4-1.1
	C61,40.5,61.2,40.9,61.3,41.3"/>
<path id="path254" d="M52.6,40.4c-0.2,0.2,0.1,0.4,0.1,0.6c-0.1-0.1-0.1-0.2-0.2-0.4C52.4,40.6,52.4,40.4,52.6,40.4"/>
<path id="path256" fill="#B3995D" d="M46,40.9c0.2-0.1,0.5-0.2,0.6-0.3C46.5,40.7,46.3,40.9,46,40.9"/>
<path id="path260" d="M33.6,41.1c0,0.2,0,0.4-0.1,0.5C33.5,41.4,33.5,41.3,33.6,41.1C33.5,41,33.6,41,33.6,41.1"/>
<path id="path262" d="M66.9,41.2c0,0.2,0.2,0.4,0.2,0.6c-0.1-0.2-0.2-0.5-0.3-0.8C66.8,41,66.8,41.1,66.9,41.2"/>
<path id="path264" fill="#EFE8C7" d="M49.3,41.4c-0.2,0.1-0.3,0.7-0.7,0.4h-0.2C48.6,41.6,49,41.5,49.3,41.4"/>
<path id="path266" d="M33.8,41.6c0.1,0.3-0.2,0.7,0.2,1c0,0.1,0.1,0.1,0,0.2c-0.1-0.1-0.1-0.2-0.3-0.4c-0.1,0.3-0.1,0.5-0.3,0.8
	c0,0.1-0.1,0-0.1,0C33.8,42.8,33.6,42.1,33.8,41.6"/>
<path id="path268" d="M52.4,41.8c-0.1,0-0.3,0-0.4,0v-0.1C52.1,41.7,52.3,41.7,52.4,41.8"/>
<path id="path270" d="M33.5,42.6C33.5,42.6,33.4,42.7,33.5,42.6c-0.1-0.1-0.1-0.4,0-0.5V42.6"/>
<path id="path272" fill="#9A3B26" d="M36,43c0,0.1-0.1,0.1-0.2,0.1c-0.4-0.1-1-0.2-1.1-0.7c0,0,0-0.1,0-0.2h0.1
	C35.3,42.5,35.6,42.8,36,43"/>
<path id="path274" fill="#773141" d="M61.1,43C61,43,61,43,61.1,43L61,43.4c-0.2-0.3-0.5-0.8-0.4-1.2C60.8,42.4,60.9,42.8,61.1,43"
	/>
<path id="path276" d="M54.5,42.6c-0.1,0.2-0.1,0.5-0.3,0.7v-0.1c0.1-0.1,0.1-0.2,0.1-0.3C54.3,42.8,54.3,42.6,54.5,42.6"/>
<path id="path278" fill="#9A3B26" d="M32.5,43.1c0,0.1,0,0.2,0.1,0.2h0.2c0,0.2-0.2,0.2-0.3,0.4c-0.1,0-0.2,0.1-0.3,0
	c-0.1-0.2,0-0.5-0.1-0.8C32.3,43,32.4,43,32.5,43.1"/>
<path id="path280" d="M66.3,42.7c0,0.1-0.1,0.3-0.3,0.3C66.1,42.9,66.2,42.8,66.3,42.7"/>
<path id="path282" d="M67.8,42.9C67.7,42.9,67.8,43,67.8,42.9c-0.1,0-0.2,0-0.2-0.1C67.6,42.7,67.7,42.8,67.8,42.9"/>
<path id="path284" fill="#9A3B26" d="M59.8,51.7L59.8,51.7c0-0.1,0-0.1,0-0.2l0.3-0.2c0.1-0.1,0.2-0.2,0.2-0.2l0,0
	c0.2-0.2,0.3-0.4,0.5-0.6c0.2,0.6-0.5,0.7-0.9,1L59.8,51.7"/>
<path id="path286" fill="#1691FF" d="M60,51.7c0.2-0.2,0.5-0.3,0.7-0.5c0,0.5-0.4,1-0.6,1.4c-0.1-0.2-0.2-0.4-0.3-0.7L60,51.7"/>
<path id="path288" fill="#B3995D" d="M59.3,50.7c-0.1-0.2-0.1-0.3-0.2-0.5c0.3-0.2,0.7-0.4,0.8-0.8c0,0.5-0.1,0.9-0.2,1.3
	c0,0.1-0.1,0.2-0.2,0.3L59.3,50.7"/>
<path id="path290" fill="#1D5C42" d="M59.5,51.1c0.4-0.3,0.5-0.9,0.5-1.4c0-0.6,0-1.2,0.2-1.7c0.3-0.9,1.1-1.6,1.2-2.6
	c0.3,0.8,0.6,1.7,0.1,2.5c-0.4,0.9-0.2,2.1-0.9,2.9L60,51.3l-0.3,0.2l-0.1,0.1c0.1,0.4,0.3,0.8,0.5,1.2c0.2,0,0.1-0.2,0.2-0.2
	c0.5-0.7,0.7-1.5,0.7-2.3c0.1-0.8,0.8-1.5,0.8-2.3c0.1-0.4,0.4-0.6,0.6-0.9c0.2,1.4,0.3,2.8-0.3,4.1c-0.3,0.9-1,1.5-1.5,2.2
	c0.2,0.5,0.6,1.1,0.8,1.6c0.9,1.6,2,3.1,2.7,4.8c-0.2,0-0.5,0.2-0.6,0.4c-1.4-1.9-2.5-3.8-3.7-5.8c0.1-0.1,0.1,0,0.2-0.1v0.1
	c-0.5,0.3-1.3,0.4-1.9-0.1c-0.6-0.2-1.3-0.1-1.9-0.3c-0.6-0.1-1.1-0.4-1.7-0.4c-0.5-0.2-0.9-0.4-1.3-0.8c0-0.1,0-0.2,0.1-0.3
	c0.6-0.1,1.1,0.3,1.7,0.2c0.6,0,1.2-0.3,1.7,0l0.7,0.1c0.7,0.5,1.4,1,2.2,1v-0.1c-0.2-0.5-0.3-0.9-0.6-1.4c0,0-0.2-0.3-0.2-0.4
	c-0.3-0.5-0.8-0.5-1.2-0.6c-0.2-0.1-0.5,0-0.7-0.1c-0.7,0.1-1.4,0.5-2.1,0.5c-0.7,0-1.4,0.1-1.8-0.6c-0.1-0.2-0.2-0.3-0.2-0.5
	c1.1,0.2,2.2,0.1,3.2-0.1c0.4,0.1,0.7-0.1,1.1,0c0.4,0.1,0.7,0.3,1.1,0.5c0.2-0.1,0-0.2,0-0.4c-0.1-0.2-0.3-0.4-0.4-0.6
	c-0.6,0.4-1.5,0.2-2.2,0.3c-0.9-0.3-1.8-0.8-2.9-0.5c-0.2,0-0.6,0.2-0.8,0c0.2-0.2,0.3-0.6,0.7-0.6c0.5-0.2,1.1,0.1,1.7,0.1
	c0.6-0.1,1.1,0.2,1.6,0l0.7-0.1c0.2,0.1,0.3,0.3,0.5,0.3l0,0c0.1,0.1,0.3,0.1,0.4,0.1c0.1-0.1,0-0.1-0.1-0.2
	c-0.4,0.1-0.6-0.3-0.9-0.5c0-0.2,0.1-0.2,0.2-0.4c0.1,0,0.1,0.1,0.2,0.1c0.3-0.1,0.3,0.2,0.6,0.2c0.1,0.2,0.3,0.4,0.4,0.5H58
	c0-0.2-0.3-0.4-0.4-0.5c-0.1-0.2-0.1-0.6,0.1-0.8c-0.1-0.1,0.1-0.2,0.1-0.3c0.2-0.2,0.5,0,0.8-0.2c0,0.4,0.2,0.8,0.1,1.1
	c-0.1,0.2-0.3,0.3-0.3,0.6c0,0,0,0.1,0.1,0c0.2-0.2,0.5-0.5,0.4-0.8c-0.2-0.3,0-0.7-0.1-1c0.5-1.3-0.4-3.2,0.9-4.3l0.3-0.3
	c0.1,0.9-0.2,2-0.2,3c0,0.9-0.1,1.9,0.1,2.7c0,0.5-0.2,1.1-0.7,1.4c-0.1,0-0.2,0.1-0.3,0.2c0,0.2,0.2,0.4,0.3,0.6L59.5,51.1"/>
<path id="path292" d="M66.7,42.9c0,0.2,0.2,0.5-0.1,0.7L66.7,42.9L66.7,42.9"/>
<path id="path294" fill="#9A3B26" d="M35.6,43.3v0.4c-0.2,0-0.3-0.1-0.4-0.3v-0.2C35.4,43.1,35.5,43.2,35.6,43.3"/>
<path id="path296" fill="#773141" d="M60.9,44C60.9,44.1,60.9,44,60.9,44c-0.1,0-0.1,0.2-0.1,0.3c-0.2-0.3-0.5-0.8-0.2-1.2
	C60.8,43.4,61,43.7,60.9,44"/>
<path id="path298" d="M33.6,43.8c0,0.3,0.2,0.5,0.3,0.7l-0.1,0.1C33.6,44.4,33.5,44.1,33.6,43.8c-0.2,0.1-0.2,0.3-0.3,0.3
	c0.1-0.2,0.2-0.3,0.3-0.5C33.7,43.6,33.5,43.7,33.6,43.8"/>
<path id="path300" d="M65.9,43.8c0.1-0.1,0.2-0.2,0.4-0.2C66.2,43.7,66,43.8,65.9,43.8"/>
<path id="path302" fill="#B3995D" d="M44.4,45.1c0.1,0.2,0.3,0.4,0.5,0.4c1.2-0.7,2-1.8,3-2.8c0.1,0,0.1,0.1,0.2,0.1
	c0.7,0.2,1.3,0.6,2,0.9c0.9,0.1,1.7-0.6,2.4-1.1c0.2-0.1,0.4,0.2,0.6,0.4c0,0.1,0.2,0.2,0,0.3c-0.2-0.1-0.5,0-0.7,0
	c-0.1,0-0.2,0.2-0.2,0.3c0.1,0.4,0.3,0.7,0.6,0.9l-0.1,0.1l-0.4,0.1c-0.6,0-1.3-0.3-1.9-0.5c-0.2-0.1-0.4-0.1-0.5-0.2
	c-0.6,0-1.3-0.1-1.8,0c0,0.1,0,0.3,0.1,0.4c0.6,0.4,1.2,0.6,1.8,1s1.2,0,1.8-0.2H53c0.1,0,0.3,0,0.4,0.1c0.4,0.1,0.8,0,1-0.2
	l0.3,0.3c-0.1-0.1-0.3,0-0.5,0c-0.2,0.1-0.5,0-0.7,0.1c-0.1,0.1-0.3,0-0.5,0.1c-0.7,0.1-1.2,0.6-1.9,0.7c-0.5,0.1-1-0.3-1.4,0
	c0,0.4,0.3,0.7,0.6,0.9c0.4,0.3,1.1,0.2,1.5,0l0,0c0.2-0.1,0.3-0.2,0.5-0.3l-0.1,0.3c-0.4,0.6-1,0.9-1.8,1c-0.2,0-0.3,0.2-0.5,0.1
	c0-0.3,0.1-0.8-0.1-1c-0.1,0-0.2-0.1-0.3,0c-0.3-0.1-0.6,0-0.9,0.1c0.1,0.2,0,0.4,0,0.6c-0.3,0.1-0.6,0-0.9,0.1
	c0,0.1-0.1,0.3-0.1,0.4c-0.1,0.3-0.1,0.7,0,0.9c0.1,0.1,0.2,0,0.3,0s0.2,0,0.3,0c0,0.6-0.1,1.1-0.1,1.6c0.4,0.1,0.8,0.1,1.2,0.1
	c0.1-0.5,0.1-1,0.1-1.4l0.9-0.2c0.1-0.2,0.1-0.5,0.1-0.7v-0.1c0.4,0.1,0.8,0,1.2,0c-0.3,0.2-0.6,0.4-0.9,0.6l0.1,0.2
	c0.1,0.1,0.4,0.1,0.5,0.1l0,0c0.2,0,0.3-0.2,0.6-0.2c-0.1,0.2-0.3,0.3-0.4,0.5c0.1,0.3,0.5,0.2,0.7,0.2c0.4-0.1,1-0.2,1.4-0.1
	c0.6,0.2,1.1,0.3,1.7,0.6c-0.3,0.1-0.6,0.1-0.9,0.2c-0.7,0.1-1.4,0-2.1-0.1l0,0c0,0.3,0.3,0.6,0.5,0.9c0.4,0.4,0.9,0.4,1.4,0.3
	c0.3,0,0.7-0.1,1-0.1V52c0,0.1,0,0.1,0,0.2c0.4,0.1,0.9,0.1,1.3,0.1C57,52,57,51.7,57,51.5c0.1-0.1,0.2,0,0.3,0
	c0.5,0.2,1.2,0,1.4,0.6c-0.4,0.2-0.7,0.5-1.1,0.7l0,0c0,0,0,0,0.1,0h-0.2c-0.3-0.1-0.5-0.2-0.9-0.2c-0.4-0.2-1,0-1.5,0
	c-0.7,0.2-1.3-0.4-2-0.2c-0.1,0.1-0.2,0.1-0.1,0.3c0.4,0.8,1.3,0.9,2.1,1.2H55c-0.4,0.1-0.9,0.3-1.3,0.4c-1.4,0.1-2.8,0.3-4.1,0.3
	l-0.1-0.1c0.1-0.2,0.2-0.4,0.2-0.6c-0.1,0-0.1-0.2-0.2-0.1c-0.3,0.2-0.5,0.6-0.8,0.8c-0.2-0.1-0.3-0.1-0.5-0.1
	c0.1-0.3,0.7-0.4,0.4-0.8h-0.1c-0.1,0-0.2,0-0.2,0.1c-0.3,0.1-0.5,0.4-0.7,0.6h-0.1c-1.8-0.3-3.4-1.2-5-2.2c-0.2-0.1,0-0.3-0.1-0.5
	c-0.2-0.3-0.4-0.1-0.6-0.1c-0.2,0.1-0.3-0.1-0.4-0.2c0.1-0.1,0.1-0.1,0.2-0.2c0-0.1,0-0.2,0-0.4c-0.3-0.1-0.7-0.1-1-0.1
	c-0.2-0.2-0.4-0.4-0.7-0.7l0,0l-0.1-0.2c0.5-0.5,1.2-1.1,1.7-1.6c0,0.6,0,1.1,0,1.8l0.1,0.1c0.3-0.1,0.7,0,1-0.1
	c0.1-0.5,0.1-0.9,0.2-1.4c0.2-0.2,0.6,0,0.8-0.1v-1.4c-0.2-0.3-0.8,0.2-0.7-0.3c0.5-0.5,1.2-1,1.6-1.5c0.2-0.2-0.1-0.3-0.2-0.4
	c0,0,0.1,0,0.1-0.1L44.4,45.1"/>
<path id="path304" fill="#EFE8C7" d="M44.3,44.9L44.3,44.9c0.1-0.3-0.1-0.4-0.2-0.6c-0.2,0-0.3,0.3-0.4,0.2
	c-0.2-0.2-0.2-0.5-0.1-0.7c0.3,0,0.6,0.2,0.8,0.5c0.1,0.4,0.5,0.7,0.4,1.1c0,0,0.1,0,0.1-0.1c0-0.5-0.3-0.8-0.5-1.2
	c-0.2-0.3-0.5-0.4-0.8-0.5c0.8-0.7,1.5-1.4,2.2-2.1c0.4,0.3,0.7,0.2,1.1,0.4L46.8,42c-0.1,0.2,0,0.3,0.1,0.4c0.3,0,0.6,0.1,0.8,0.2
	c-0.7,0.8-1.5,1.6-2.2,2.3c-0.3,0.2-0.5,0.4-0.8,0.4c-0.1-0.1-0.2-0.2-0.3-0.3L44.3,44.9"/>
<path id="path306" fill="#1D5C42" d="M52.3,47c-0.3,0.7-1,1-1.7,1.1c-0.1,0.1-0.3,0-0.4,0.1c0.1,0.3,0.4,0.3,0.6,0.4
	c0.7,0.1,1.5,0,2-0.6c0.5-0.3,1-0.7,1.1-1.2c-0.5,0.1-1,0-1.5,0L52.3,47"/>
<path id="path308" fill="#1D5C42" d="M48.8,38.9c0.2,0,0.3,0.1,0.5,0c0.1,0,0.2-0.1,0.2-0.2c-0.2-0.3-0.4-0.4-0.6-0.7l-0.1,0.1
	c-0.2,1-1.2,1.8-2,2.3c-0.8,0.6-2,0.8-2.8,0.3c0.6-0.4,1.2-0.9,1.8-1.3c0.6-0.3,1.3-0.3,1.8-0.8c-0.1-0.1-0.3,0-0.4,0
	c-0.1,0-0.2,0.1-0.2,0l0,0c-0.6,0.2-1.3,0.3-2,0.4c-0.3,0-0.5-0.1-0.9-0.2c-0.6-0.2-1.1-0.5-1.6-0.9c0.5-0.4,1.1-0.1,1.6,0
	c0.7,0.2,1.1-0.3,1.7-0.5c0.8-0.1,1.7,0.3,2.3-0.2l0,0l0.1-0.1c-0.1-0.4-0.4-0.8-0.7-1c-0.2,0-0.3-0.1-0.5,0
	c-0.9,0.4-1.7,1.4-2.8,0.9c-0.6-0.1-1.2-0.4-1.6-0.9c-0.3-0.4-0.5-0.7-0.7-1.1H42c0.6,0.1,1.1,0.4,1.6,0.6c0.9,0.5,1.6-0.1,2.3-0.2
	c0.2,0,0.6-0.1,0.6-0.3l-0.4-0.5c-0.5,0-0.8,0.4-1.3,0.5c-0.7,0.3-1.3-0.3-1.9-0.5c-0.6,0-1.2,0-1.8-0.3c-0.7-0.1-0.9-0.8-1.3-1.3
	c0-0.1-0.2-0.1-0.2-0.2c0.4-0.1,0.8,0.1,1.1,0.3c0.4,0.2,0.9,0.2,1.4,0.2c0.8,0,1.2,0.8,2,0.8c0.1-0.1,0.2,0.1,0.4,0.1
	c0.2,0.1,0.4,0.1,0.7,0.1c0,0,0.1-0.1,0-0.1c-0.4,0-0.7,0-1-0.3c-0.2-0.2-0.1-0.4-0.1-0.6c0.2-0.3,0.7-0.1,1-0.1
	c0.4,0.1,0.5,0.5,0.7,0.7c0.1,0,0,0.1,0.1,0c0-0.1-0.2-0.2-0.3-0.3c-0.1-0.2-0.3-0.3-0.4-0.4L45.1,33c-0.2-0.7-0.6-1.3-1.1-1.9
	c-0.1-0.1-0.2,0.1-0.4,0.2c-0.8,1-2.1,0.6-3.1,0.4c-0.6-0.3-1.3,0-2-0.2c0.1-0.2,0.3-0.3,0.5-0.5c0.2,0,0.5-0.3,0.7-0.1
	c0.1-0.1,0-0.1,0-0.1c0.3-0.1,0.7-0.3,1-0.2c-0.4-0.1-0.8,0-1.1,0.2c-0.5-0.5-0.4-1.2-1-1.6c-0.1-0.1-0.3-0.2-0.3-0.4
	c1.1,0,1.5,1.1,2.3,1.6c0.4,0.2,0.9,0.2,1.4,0.2c0.5,0.1,1,0.3,1.5,0.3c0.1,0,0.2-0.1,0.1-0.2c-0.2-0.4-0.4-0.8-0.7-1
	c-0.4-0.1-0.8-0.3-1.2-0.3c-1,0-1.8-0.1-2.5-0.8c-0.3-0.3-0.6-0.6-0.9-0.9c-0.2-0.1-0.4-0.3-0.5-0.5c0-0.1-0.1-0.2-0.1-0.2
	c0.5,0.3,0.9,0.6,1.4,0.8c0.4,0.2,0.9,0.2,1.3,0.4c0.7,0,1.2,0.5,1.8,0.9h0.2c0.1-0.1,0.1-0.1,0.1-0.2c-0.3-0.5-0.7-1-0.9-1.6
	c-0.5-0.1-1.1-0.1-1.5-0.2c-0.8-0.2-1.5-0.8-1.9-1.6c-0.3-1-0.9-1.9-1.6-2.8l0,0c0.2,0.2,0.6,0.2,0.9,0.5c0.2,0.8,0.7,1.5,1.4,2
	c0.2,0.1,0.3,0.1,0.4,0.3c0.5,0.5,1.1,0.9,1.8,1c0.1,0,0.2,0.2,0.3,0.1c-0.3-0.5-0.8-0.6-1.2-0.9c0,0,0-0.1-0.1,0l-1.2-0.5
	c-1.2-0.8-1.4-2.2-1.8-3.4c0.1,0.1,0.3,0.2,0.4,0.4c0.1,0,0,0.1,0.1,0.1c0.5,0.5,0.4,1.3,1,1.8c0.4,0.4,0.9,0.4,1.3,0.5
	c0.2,0.2,0.4,0.4,0.7,0.3c0-0.6-0.7-1-1.1-1.4c-0.5-0.4-0.6-1.1-1.1-1.6c-0.3-0.5-1-0.8-1.1-1.4l0.2-0.1c0.3,0.2,0.7,0.5,1,0.8
	c0.5,0.3,1.1,0.5,1.3,1.1c0.2,0.8,0.9,1.5,1.1,2.3c0.3,0.3,0,0.7,0.1,1c0,0.1,0.1,0.3,0.2,0.2c0-0.1-0.1-0.1-0.1-0.2
	c0-0.6,0-1.1-0.3-1.6c-0.8-1.1-0.4-2.4-0.6-3.6v-0.1c0.9,1.1,1.4,2.4,1.5,3.8c0.2,0.9-0.4,1.8,0.2,2.5c0.1,0.1,0.1,0.3,0.2,0.3
	c-0.3-0.6,0.2-1.2,0.2-1.7c0.1-1-0.1-2.1-0.5-2.9c0-0.1,0.1-0.1,0.2-0.1c0.7,0.5,1,1.2,1.2,1.9c0.1,0.3,0.2,0.7,0.2,1
	c-0.2,0.8-0.7,1.4-1,2.2c-0.2,0.6,0.3,1,0.4,1.5c0,0.1,0,0.2,0,0.2c0.2-0.8,0.4-1.7,0-2.5c0-0.3,0.3-0.6,0.4-0.9
	c0.7,1.1,0.5,2.6,0,3.7c-0.2,0.6,0.4,0.9,0.6,1.4h0.1c0.1-0.2,0.2-0.3,0.2-0.5c-0.3-0.6-0.3-1.3-0.2-2c0.2-0.6-0.2-1.1,0-1.7
	c0.2,0.2,0.3,0.5,0.5,0.7c0.5,0.7,0.5,1.9,0.3,2.7c-0.2,0.4-0.1,1-0.4,1.3c-0.1,0.3,0.2,0.6,0.3,0.8h0.1v0.8c0,0.2,0.4,0.2,0.3,0.5
	c0.1,0.1,0.2,0.2,0.3,0.1c-0.2-0.3-0.1-0.8-0.1-1.2l-0.1-0.1c0,0.4-0.1,0.8,0.1,1.1l0,0c-0.2-0.1-0.1-0.4-0.4-0.5
	c0-0.3-0.1-0.6,0-0.8s0.3-0.3,0.5-0.4c0.8,0.3,0.1,1,0.2,1.5l0,0c0-0.1,0.1-0.2,0-0.2c0.3-0.7,0.4-1.6,0.2-2.3c0-0.6-0.8-1-0.5-1.6
	c0-0.2,0-0.4,0.1-0.6l0.5,0.4c1,0.8,1,2.2,1,3.3c0,0.6-0.3,1.1-0.5,1.7c0,0.5,0.2,1,0.6,1.2c0.1,0,0-0.1,0.1-0.2
	c0.2-0.7,0.3-1.6,0.1-2.4c0-1-0.3-2-0.1-3.1c0.1-0.5-0.1-0.9-0.1-1.4c0.1,0,0.2,0.2,0.3,0.3c0.8,1.4,1,3.3,0.9,4.9
	c0,0.8-0.4,1.4-0.7,2.1c0.1,0.4,0.5,0.7,0.7,1.1c0.1,0.1,0.2,0.5,0.5,0.4c0.2-0.7-0.2-1.3-0.2-1.9c-0.2-0.6,0.1-1.4,0.1-2
	c-0.1-0.7,0-1.6-0.1-2.1h0.1c0.6,0.6,0.7,1.4,1,2.1c0,0.9,0.1,1.9-0.1,2.9c-0.1,0.5-0.3,1-0.3,1.5l1.1,1.2h0.1
	c-0.1-0.9-0.4-1.7-0.5-2.6c-0.2-0.9,0.3-1.6,0.3-2.5c0-0.4-0.2-0.7-0.2-1.1c0.5,0.6,0.9,1.2,1,2c0.3,1.2,0.3,2.5-0.1,3.7
	c-0.1,0.4,0.1,0.8-0.1,1.2c0.1,0.1,0.2,0.2,0.4,0.4v0.1h0.1c0.3-0.9,0.4-1.8,0.2-2.7c0-0.2-0.1-0.5,0-0.7l0,0c-0.1-0.3,0-0.7,0-1.1
	c0.2-0.5,0.4-1.1,0.7-1.5v0.1c0,1.5,0.6,3,0.3,4.3c-0.1,0.8-0.5,1.5-0.8,2.2c0.1,0.2,0.3,0.4,0.4,0.5l0,0c0.1,0.3,0.4,0.6,0.7,0.9
	c0.1,0,0.1-0.1,0.2-0.1c0.1-0.5,0.3-1,0.2-1.5c0-0.8-0.6-1.5-0.3-2.2C52.7,37,53,36.2,53,35.5c0.1,0.1,0.1,0.2,0.2,0.3
	c0.3,0.8,0.4,1.7,0.7,2.6c0.3,1.3,0.5,2.6-0.5,3.6c0,0.1,0.1,0.2,0.1,0.3c0,0.2,0.3,0.4,0.4,0.7c0.1,0.1,0.1,0.2,0.3,0.3
	c0-0.2-0.2-0.3-0.2-0.5c0.2-0.3,0.1-0.8,0.5-1c0.1,0,0.2,0,0.3,0c-0.1,0.4-0.1,0.8-0.1,1.2c0.3,0.4-0.3,0.6-0.2,0.9
	c0.1-0.3,0.5-0.5,0.4-0.9c-0.1-0.6,0.2-1.1,0-1.7c-0.6-1.4,1-2.4,1.7-3.4c0.2,0.5,0.3,1.2,0.2,1.7c-0.4,1.3-0.6,2.7-1.2,3.9
	c-0.1,0.4-0.5,0.7-0.6,1.1l0.7,0.8c0.1,0,0.1,0.1,0.2,0c0-0.8,0.3-1.5,0.5-2.3c0.1-1.2,0.1-2.5,1.2-3.3c0.1,0.3,0.1,0.5,0.1,0.8
	c-0.3,1.5,0.3,3.2-0.8,4.4c-0.2,0.2-0.3,0.5-0.6,0.7c-0.1,0.1,0,0.2,0.1,0.3c0.1,0.2,0.2,0.4,0.3,0.6c0.3,0,0.4-0.4,0.6-0.6
	c0.5-1,0.7-2.5,2.1-2.7l0.1,0.1c-0.4,0.6-0.6,1.3-0.5,2c-0.4,0.7-1,1.3-1.8,1.4c0.1,0.1,0,0.2,0,0.3c0.1,0.2,0.3,0.5,0.5,0.7
	c0.2,0.3-0.2,0.6-0.1,0.9c-0.1-0.1-0.2-0.1-0.4-0.1c-0.1-0.3-0.3-0.6-0.6-0.8c-0.3-0.3-0.6-0.1-0.9,0C54.9,48.3,54,49,53,49.2
	c-0.6,0.1-1.1,0.4-1.6,0.4c-0.1,0-0.1-0.1-0.1-0.1c1.3-0.8,2.4-2.1,3.9-2.4c0.3,0,0.6,0,0.8-0.1c0-0.2-0.2-0.3-0.3-0.5h-0.1v0.1
	c-0.6,0.3-1.2,0.3-1.9,0.4c-0.6,0.2-1.3-0.2-1.9,0.2c-0.4,0.2-1,0.3-1.4,0.1c-0.3-0.2-0.7-0.5-0.7-0.9c0.1,0,0.2,0,0.4-0.1
	c0.7,0.2,1.5,0.1,2.1-0.3c0.5-0.3,1-0.4,1.5-0.5c0.4,0,0.7-0.1,1.1-0.1L54.4,45c-0.3,0.1-0.6,0.3-0.9,0.2c-0.4-0.2-1,0-1.6-0.1
	c-0.6,0-1.2,0.6-1.8,0.3c-0.5-0.3-1.1-0.6-1.7-0.9c-0.2-0.1-0.3-0.3-0.3-0.5c0.2-0.2,0.6-0.1,0.7-0.1c1-0.1,1.8,0.4,2.7,0.6
	c0.4,0.1,0.9,0.2,1.2,0l0.3-0.1c0.1,0.1,0.3,0.2,0.5,0.3v-0.1c0.2,0,0.4,0,0.6-0.1l0,0c-0.2-0.1-0.5,0.1-0.7,0.1
	c-0.5-0.2-1-0.7-1-1.3c0.2-0.1,0.4-0.1,0.6-0.1c0.3,0,0.4,0.2,0.6,0.4c0.1,0.1,0.3,0.3,0.1,0.4c-0.1-0.1-0.4-0.2-0.5-0.2
	c0.2,0.1,0.5,0.2,0.7,0.4l0,0c0,0,0-0.1,0.1-0.1c-0.1-0.3-0.2-0.6-0.5-0.8h0.1c0-0.1,0-0.3-0.2-0.3c-0.1-0.2-0.3-0.3-0.5-0.5
	c-0.1,0-0.2-0.1-0.4,0c-0.7,0.6-1.6,1.3-2.6,1c-0.7-0.5-1.5-0.7-2.3-1c-0.2-0.1-0.4,0-0.6-0.2c-0.1-0.1,0-0.3,0.1-0.3
	c0.8-0.4,1.6,0,2.5,0c0.8,0.2,1.7,0.3,2.4,0.2c0.1-0.1,0.4-0.1,0.4-0.3c-0.1,0.1-0.3,0.1-0.5,0.2c-0.3,0-0.7,0.1-0.9,0
	c-0.1-0.2-0.2-0.4-0.2-0.6c0.2-0.2,0.5-0.4,0.8-0.3c0,0,0.1,0,0,0.1c0.2,0.1,0.5,0.2,0.7,0.4c0,0,0,0,0-0.1s-0.1-0.1-0.2-0.2
	c-0.1-0.1-0.4-0.1-0.4-0.3l-0.1-0.2c-0.1-0.1-0.2-0.1-0.3-0.1c-0.5,0-0.8-0.2-1.2,0c-0.6,0.4-1.2,0.6-1.8,0.9c-0.4,0-0.8,0-1.2,0.1
	c-0.6-0.1-1.1-0.3-1.6-0.6c0.5-0.4,1.2-0.3,1.8-0.3c0.9-0.1,1.7-0.7,2.5-1c0.2,0,0.5,0,0.7-0.1c-0.1-0.2-0.3-0.3-0.4-0.5
	c-0.4-0.1-0.6,0.3-0.9,0.3c-0.5,0.4-0.9,0.3-1.4,0.3c-0.1,0-0.2,0.1-0.3,0l0.4-0.3c0.2-0.2,0.4-0.4,0.6-0.7c0-0.1,0.1-0.1,0.1-0.2
	L48.8,38.9"/>
<path id="path310" fill="#EFE8C7" d="M48.6,38.8c0.1-0.2,0.2-0.3,0.4-0.4c0.1,0.1,0.3,0.2,0.4,0.4l-0.1,0.1c-0.2,0.1-0.3,0-0.5,0
	L48.6,38.8"/>
<path id="path312" fill="#9A3B26" d="M34.7,44.3c0,0.3,0,0.6-0.2,0.9c-0.1-0.2-0.2-0.5-0.2-0.6c0,0.1,0.1,0.1,0.1,0.2
	c0.3-0.2,0.1-0.5,0.3-0.7C34.8,44.1,34.7,44.2,34.7,44.3"/>
<path id="path314" d="M67.4,44c0,0.2,0.2,0.3,0.2,0.5C67.4,44.5,67.4,44.2,67.4,44C67.3,44,67.3,44,67.4,44"/>
<path id="path316" fill="#9A3B26" d="M36.1,44.5c0.5,1.2,1.2,2.4,1.9,3.5l0,0l0.7,1c0,0.1-0.2,0.2-0.2,0.3c-1.2-1.5-2.1-3.2-2.8-5
	C35.8,44.3,35.9,44.4,36.1,44.5"/>
<path id="path318" fill="#773141" d="M60.7,44.8c-0.2-0.2-0.3-0.4-0.2-0.7l0,0C60.7,44.3,60.9,44.6,60.7,44.8"/>
<path id="path320" fill="#773141" d="M44,44.5L44,44.5l0.3,0.2c-0.1,0.1-0.3,0.2-0.2,0.3s0.3,0.3,0.1,0.4c-1.5,1.3-2.8,2.6-4.2,4
	c-0.8,0.7-1.7,1.5-2.6,2.2c-0.1-0.3-0.2-0.6-0.3-0.9c0.5-0.4,0.8-0.9,1.3-1.2c1.5-1.7,3.2-3.4,4.8-5.1h0.1
	C43.6,44.5,43.7,44.7,44,44.5"/>
<path id="path322" d="M66.7,44.3c0,0.1,0.1,0.3-0.1,0.4L66.7,44.3C66.7,44.2,66.7,44.2,66.7,44.3"/>
<path id="path324" d="M66.2,44.5c-0.1,0-0.1,0.1-0.2,0.1c0.1-0.1,0.2-0.2,0.4-0.3C66.4,44.4,66.3,44.5,66.2,44.5"/>
<path id="path326" d="M33.9,46.1L33.9,46.1c-0.1-0.3-0.2-0.5-0.3-0.8c-0.1,0-0.1,0.2-0.2,0.3v0.5l0,0c-0.2-0.5,0.3-0.8,0.2-1.2
	C33.5,45.3,33.9,45.6,33.9,46.1"/>
<path id="path328" fill="#773141" d="M60.7,45.4c-0.1,0-0.2-0.1-0.3-0.2c-0.1-0.1,0-0.3,0-0.5C60.7,44.9,60.8,45.1,60.7,45.4"/>
<path id="path330" d="M66.7,45.1c-0.1,0.2,0.1,0.5-0.1,0.7l0,0C66.5,45.6,66.5,45.3,66.7,45.1"/>
<path id="path332" fill="#773141" d="M60.7,45.7c-0.1,0.1-0.1,0.2-0.1,0.3c0-0.1,0-0.3,0-0.5C60.7,45.5,60.6,45.7,60.7,45.7"/>
<path id="path334" d="M66.2,45.8H66c0.1-0.1,0.3-0.1,0.4-0.2C66.4,45.6,66.3,45.7,66.2,45.8"/>
<path id="path336" fill="#B3995D" d="M58.6,47.4c-0.4,0-0.7,0-0.9,0.3c-0.1,0-0.1-0.2-0.1-0.2c-0.1-0.1-0.2-0.3-0.3-0.5
	c0.1-0.1-0.1-0.1,0-0.2c0.3-0.1,0.7-0.3,1-0.5c0.2-0.2,0.5-0.5,0.7-0.7C58.8,46.3,58.9,46.9,58.6,47.4"/>
<path id="path338" d="M33.8,46.9C33.7,46.9,33.7,46.9,33.8,46.9c-0.1-0.1-0.1-0.2-0.2-0.3c-0.1,0.1-0.1,0.3-0.3,0.3
	c0.1-0.3,0.4-0.6,0.3-0.9l0.1-0.2C33.7,46.1,33.6,46.5,33.8,46.9"/>
<path id="path340" d="M66.6,46.1c0,0.1,0,0.2,0,0.3h-0.1C66.5,46.3,66.4,46.2,66.6,46.1"/>
<path id="path342" fill="#B3995D" d="M55.8,46.8c-0.3,0.1-0.7,0-1,0.2c-0.3,0-0.7,0.3-1,0.4c0.1-0.2,0.2-0.3,0.2-0.5
	c0.1-0.1,0.4,0,0.6-0.1c0.4,0,0.7-0.2,1.1-0.3L55.8,46.8"/>
<path id="path344" fill="#9A3B26" d="M63.4,47L63.4,47c0.2,0.3,0.2,0.6,0.1,1l-0.1,0.1c-0.2-0.4-0.2-0.9-0.2-1.3
	C63.3,46.7,63.4,46.9,63.4,47"/>
<path id="path346" fill="#9A3B26" d="M32.6,47v0.6c0.2,0,0.5-0.2,0.6-0.4c0.1,0.2,0.2,0.4,0,0.6C33.1,48,33,48,32.8,48.1
	c-0.2,0-0.3,0.2-0.5,0.3c0-0.4,0-1,0.1-1.4C32.5,47,32.5,46.9,32.6,47"/>
<path id="path348" fill="#9A3B26" d="M42.8,47.3c0.2,0,0.4-0.1,0.6,0v1.2c-0.3,0.1-0.7-0.2-0.9,0.1c0,0.4-0.1,0.9-0.1,1.3
	c-0.3,0-0.6,0-0.9,0c0-0.6,0-1.3,0-1.8l0,0l1.2-1.2C42.7,47.1,42.6,47.3,42.8,47.3"/>
<path id="path350" fill="#9A3B26" d="M67.2,47.7L67.2,47.7c-0.2-0.2-0.3-0.5-0.4-0.8C66.9,47.2,67.4,47.4,67.2,47.7"/>
<path id="path352" fill="#9A3B26" d="M49.8,47.2c0.1,0.4,0,0.7,0,1.1h0.1c0.2-0.1,0.2,0.2,0.4,0.2l0.2,0.1c0,0.3,0,0.5-0.1,0.8
	c-0.3,0-0.6,0.1-0.9,0.2c0,0.5,0,0.9-0.1,1.4c-0.3,0-0.7,0-1,0c-0.1-0.5,0-1.1,0.1-1.6l0,0h-0.6c-0.1-0.4-0.1-0.9,0.1-1.2
	c0.3,0,0.5,0,0.8-0.1l0,0l0.1-0.7C49.2,47.1,49.5,47.3,49.8,47.2"/>
<path id="path354" fill="#9A3B26" d="M62.8,47.1c0.1,0.5,0.5,1.3-0.1,1.7c0-0.4,0-1-0.1-1.4C62.5,47.3,62.7,47.1,62.8,47.1"/>
<path id="path356" d="M66,47.1c-0.1,0.2-0.1,0.4-0.3,0.5C65.7,47.4,65.8,47.2,66,47.1"/>
<path id="path358" fill="#EFE8C7" d="M34.2,48.9c-0.2,0.3,0,0.7-0.2,0.9c0,0,0,0.1-0.1,0.1l0,0l0,0c0-0.1-0.3-0.1-0.2-0.3
	c-0.3-0.3-0.1-0.7-0.1-1.1l-0.1-0.1c-0.1,0.2,0,0.5-0.2,0.6c0,0.2-0.2,0.4-0.2,0.6c0.2,0,0.1-0.3,0.2-0.4c0.1,0.1,0.1,0.3,0.2,0.4
	c-0.1,0.2-0.1,0.4-0.2,0.5L33.2,50c-0.2,0.1-0.1,0.4-0.1,0.5c-0.2,0.2-0.2,0.6-0.6,0.5c0,0-0.1,0-0.1,0.1c0,0.2,0.2,0,0.3,0
	s0.2,0,0.3-0.1c0-0.1,0.1-0.2,0.2-0.3c0.1,0.1,0.1,0.4,0.3,0.4c-0.1,0.3,0,0.7-0.1,1c0,0.3-0.4,0.5-0.4,0.8c-0.1,0,0,0.1-0.1,0.2
	c-0.1-0.3-0.2-0.6-0.2-0.9c0.2-0.2,0.5-0.6,0.4-1c-0.2,0.1-0.2,0.3-0.4,0.3c0-0.1-0.1-0.2-0.2-0.2c-0.1,0,0,0.1-0.1,0.2
	c-0.1-0.2,0-0.5,0-0.6c0.3-0.1,0.2-0.5,0.4-0.8c0-0.2,0.2-0.4,0-0.5c-0.1-0.3-0.1-0.7-0.3-1c-0.1,0-0.2,0.1-0.2,0.2
	c0-0.2-0.2-0.5,0.1-0.7l0.3-0.3l0,0c0.2-0.1,0.4-0.2,0.6-0.4c0.1,0.2,0.1,0.4,0.2,0.6c0,0,0.1,0,0.1-0.1c0-0.2-0.2-0.5-0.2-0.7
	c0.1,0,0.2-0.2,0.2-0.3C33.8,47.9,33.9,48.4,34.2,48.9"/>
<path id="path360" fill="#9A3B26" d="M34.3,48.5c0,0.1,0,0.2,0,0.2c-0.2-0.4-0.3-0.8-0.4-1.3c0.1,0.1,0.2,0.2,0.3,0.1l0.1-0.1l0,0
	l0.1-0.1C34.2,47.8,34.1,48.2,34.3,48.5"/>
<path id="path362" fill="#EFE8C7" d="M33.5,47.5L33.5,47.5L33.5,47.5L33.5,47.5"/>
<path id="path364" d="M66.1,47.5c-0.1,0.2-0.2,0.3-0.3,0.4C65.7,47.8,65.9,47.6,66.1,47.5"/>
<path id="path366" fill="#B3995D" d="M56.6,47.9c-0.2,0-0.3,0-0.5,0.1c0,0-0.1,0-0.2,0c0,0.2-0.1,0.5-0.1,0.8c-0.3,0-0.7,0-1,0.2
	v0.2c-0.5,0.1-1-0.1-1.5-0.1c0.1-0.1,0.3-0.1,0.4-0.2c0.5-0.2,0.9-0.5,1.3-0.7c0.2-0.1,0.3-0.3,0.5-0.3c0.3-0.1,0.4-0.3,0.7-0.2
	C56.4,47.7,56.5,47.8,56.6,47.9"/>
<path id="path368" fill="#9A3B26" d="M56.9,48.3c-0.2,0.2-0.6,0.3-0.4,0.6c0,0.1,0.1,0.1,0.1,0.2c-0.5,0-1.1,0.3-1.6,0.1
	c0-0.1,0-0.3,0.2-0.3c0.3,0,0.5-0.1,0.8,0c0.2-0.3,0.1-0.5,0.1-0.8C56.3,48.1,56.8,47.8,56.9,48.3"/>
<path id="path370" d="M58.1,49.1L58.1,49.1c-0.1-0.2,0-0.5,0.1-0.7C58.2,48.6,58.2,48.9,58.1,49.1"/>
<path id="path372" d="M65.6,48.6c-0.2,0.1-0.3,0.2-0.5,0.1h0.1l0,0C65.3,48.7,65.4,48.6,65.6,48.6"/>
<path id="path374" fill="#9A3B26" d="M32.6,49.2c0.1,0.3,0.2,0.6,0.3,0.9c0.2,0.1,0,0.3,0,0.5c-0.1,0.1-0.2,0.2-0.4,0.1
	c0-0.4,0-0.9-0.1-1.3C32.4,49.3,32.5,49.2,32.6,49.2"/>
<path id="path376" fill="#773141" d="M36.4,49.6l0.5,1.1c-0.3,0.2-0.6,0.4-0.8,0.7c0,0.1-0.1,0.1,0,0.2c0,0,0,0-0.1,0
	c-0.3-0.4-1.2-0.7-1-1.3c0.2-0.4,0.6-0.8,1-0.9C36.1,49.2,36.3,49.4,36.4,49.6"/>
<path id="path378" d="M57.8,49.3c-0.1,0-0.3-0.1-0.4-0.1v-0.1C57.6,49.2,57.7,49.2,57.8,49.3"/>
<path id="path380" fill="#9A3B26" d="M33.9,50.1c0,0.3-0.1,0.8-0.3,1.2l0,0c-0.1-0.2-0.2-0.5-0.2-0.8c0.1,0.1,0.2,0,0.3-0.1l0.1-0.4
	C33.8,50,33.8,50.1,33.9,50.1"/>
<path id="path382" fill="#EFE8C7" d="M39.4,50.6c0,0.1,0,0.2-0.1,0.3c0,0.1-0.1,0.2-0.1,0.3c0,0.2-0.2,0.4-0.1,0.5
	c0.1,0.6,0.9,1,0.6,1.6c0,0.1,0,0.4,0,0.5c-0.1,0.1-0.2,0-0.3,0c-0.3,0.3-0.2,0.6-0.1,0.9c0.1,0.7-0.6,1.1-0.3,1.8
	c-0.2,0.4,0,0.7,0,1.2c-0.1,0.1-0.3,0.1-0.3,0.3c0.2,0.5-0.3,0.9-0.1,1.4c-0.4,0.3,0.2,0.8-0.2,1.1c0,0.2,0,0.4,0,0.6
	c-0.1-0.1-0.1-0.5-0.4-0.4c0,0.2,0,0.3,0,0.5c-0.1,0-0.2-0.1-0.2,0c0,0.4,0.2,0.7,0.3,1h0.1c0,0.2,0.1,0.4,0,0.6l-0.1,0.1l0,0
	c-0.1,0-0.1-0.2-0.2-0.2c-0.1,0-0.1,0-0.2,0.1c-0.1,0.1,0,0.3,0,0.4c-0.1,0-0.1,0-0.2,0c-0.3-0.3,0.2-0.6-0.1-0.8
	c-0.1,0-0.1,0-0.2,0c-0.1-0.1,0-0.3-0.2-0.4c0.3,0,0.4-0.4,0.5-0.6c0-0.1,0-0.3,0-0.4c0.2-0.1,0.3-0.4,0.4-0.5c0,0,0-0.1-0.1-0.1
	c-0.1,0.2-0.2,0.4-0.3,0.6c-0.1,0-0.1,0.1-0.2,0.2c0-0.2-0.2-0.3-0.3-0.5c0.2-0.1,0.3-0.4,0.6-0.5c0.2-0.2,0.2-0.5,0.2-0.8
	c-0.2-0.2-0.3,0.1-0.6,0.2c0-0.2,0.4-0.5,0.1-0.7c-0.1,0-0.2,0.1-0.3,0.2c0-0.2-0.1-0.3-0.1-0.5h-0.1c0.1-0.2,0.1-0.5,0.3-0.6
	c0-0.1,0.2-0.2,0.1-0.3c-0.2,0-0.2,0.2-0.3,0.3l-0.2,0.1c0-0.3,0-0.5,0-0.8c0-0.4-0.1-0.7,0.1-1.2c0.1-0.2,0.3-0.1,0.4-0.4
	c0-0.1,0.1-0.3,0-0.4c-0.1,0-0.2,0.1-0.4,0.1c-0.1-0.5,0.2-0.9,0-1.3c0.3-0.2,0.3-0.5,0.4-0.9c0.1,0,0.1,0.2,0.2,0.1
	c0-0.1-0.1-0.2-0.3-0.2c-0.1,0-0.2-0.1-0.2-0.1c0-0.2,0-0.5,0.2-0.6c0.2,0,0.4,0,0.5-0.1c-0.1-0.2-0.2-0.4-0.1-0.6
	c0.3,0.2,0.6,0,0.8-0.1c0.4-0.4,0.5-0.9,0.6-1.4C39.3,50.4,39.4,50.5,39.4,50.6"/>
<path id="path384" fill="#B3995D" d="M57.8,50.3c0.2,0.2,0.3,0.4,0.4,0.7c-0.2-0.1-0.5-0.1-0.7-0.3c-0.2,0-0.3-0.1-0.5-0.1
	C57.2,50.5,57.5,50.3,57.8,50.3"/>
<path id="path386" fill="#9A3B26" d="M56.6,50.5c-0.1,0-0.2,0.1-0.4,0C56.3,50.4,56.5,50.5,56.6,50.5"/>
<path id="path388" fill="#9A3B26" d="M56,50.5c-0.1,0.1-0.2,0-0.2,0C55.9,50.5,56,50.5,56,50.5"/>
<path id="path392" fill="#EFE8C7" d="M63,51.7L63,51.7c-0.1,0.1-0.3,0-0.4,0.2c0,0.4,0.4,0.6,0.6,0.8c0,0.1,0.2,0.2,0.1,0.4
	c-0.1,0.1-0.2,0.2-0.1,0.3c0.3,0.1,0.1,0.4,0.1,0.6c-0.1,0.3-0.7-0.1-0.5,0.4c0.1,0.2,0.4,0.3,0.3,0.5C63,55,63,55.3,62.9,55.3
	c-0.1-0.1-0.3-0.2-0.4-0.2c-0.1,0.1,0,0.3,0.1,0.4c0.2,0.3,0.3,0.7,0.3,1.1c-0.1,0-0.2,0-0.2,0.1c-0.6-1-1.2-1.9-1.7-2.9l-0.1-0.2
	c0.4-0.7,1.1-1.3,1.4-2.1c0,0.4-0.2,1-0.4,1.4H62c0.2-0.5,0.4-1,0.4-1.6h-0.1c0.1-0.2,0.2-0.5,0.2-0.7C62.6,51,63.4,51.2,63,51.7"/>
<path id="path394" fill="#773141" d="M37.1,51.3c0.1,0.2,0.2,0.5,0.2,0.6c0.1,0,0.1,0.2,0.1,0.3c-0.1,0-0.3,0-0.3-0.1
	c-0.4-0.1-0.7-0.3-1-0.6c0.1-0.4,0.5-0.5,0.8-0.8C37.1,50.9,37.1,51.1,37.1,51.3"/>
<path id="path396" fill="#9A3B26" d="M41.5,51.1c0.1,0.2-0.1,0.2-0.2,0.3c-0.5,0.1-1.1,0.2-1.5-0.2c0-0.1,0-0.2,0.1-0.2
	c0.5,0,1.1-0.1,1.6,0L41.5,51.1"/>
<path id="path398" fill="#9A3B26" d="M41.3,51.5c0.1,0.1,0.2,0.1,0.2,0.2c-0.1,0.1-0.3,0.1-0.4,0.1c0-0.1-0.2-0.1-0.3-0.2L41.3,51.5
	C41.2,51.4,41.3,51.5,41.3,51.5"/>
<path id="path400" fill="#9A3B26" d="M42.3,51.8c0,0.2-0.1,0.3-0.2,0.4c-0.3,0.1-0.7,0.1-1,0c-0.1-0.1-0.2-0.1-0.2-0.3
	c0.5,0.1,0.9-0.3,1.3-0.2L42.3,51.8"/>
<path id="path402" fill="#773141" d="M36.9,52.2c-1.4,1.3-2.6,2.7-4.2,3.8c-0.1,0-0.1-0.2-0.1-0.3l0.2-0.3c0.9-1,1.9-1.9,2.8-2.9
	c0.2-0.2,0.4-0.5,0.5-0.7C36.4,51.9,36.6,52,36.9,52.2"/>
<path id="path404" fill="#9A3B26" d="M32.6,52.6c-0.1,0-0.1-0.3-0.1-0.4c0.1,0,0.1-0.2,0.1-0.2c0,0.1,0.1,0.2,0.2,0.1l0.2-0.2
	C33,52.1,32.8,52.5,32.6,52.6"/>
<path id="path406" fill="#9A3B26" d="M65.8,52.3c-0.1-0.2-0.3-0.3-0.5-0.3c-0.3,0.1-0.5,0.2-0.8,0.4c0-0.1-0.1-0.2-0.1-0.3
	c0.1,0,0.2-0.2,0.3-0.3c0.3,0.2,0.5,0.1,0.8,0c0.1,0.1,0.1,0.1,0.2,0.1c0.1-0.1,0.1-0.1,0.2-0.2C66,51.9,66,52.2,65.8,52.3"/>
<path id="path408" fill="#9A3B26" d="M43.9,53.1c1.1,0.6,2.3,1,3.5,1.3c-0.1,0.2-0.3,0.2-0.4,0.4c0,0,0-0.1-0.1-0.1
	c-0.7-0.2-1.6-0.2-2.2-0.7l0,0c-0.3-0.1-0.5-0.2-0.8-0.3c-0.7-0.3-1.4-0.9-2.1-1.3c0.1-0.1,0.3-0.1,0.4-0.2
	C42.7,52.6,43.3,52.8,43.9,53.1"/>
<path id="path410" d="M33.3,52.5L33.3,52.5l-0.2-0.2C33.2,52.3,33.2,52.4,33.3,52.5"/>
<path id="path412" fill="#EFE8C7" d="M65.8,52.4c0.1,0.1,0,0.3,0,0.4c-0.2,0.1-0.3,0.2-0.4,0.4c0-0.1-0.1-0.1-0.3-0.1l0,0
	c0,0,0.2-0.5-0.2-0.3c0-0.1,0-0.1-0.1-0.2c-0.1,0-0.1,0.1-0.2,0.1c0,0,0-0.1,0-0.2c0.3-0.2,0.6-0.4,0.9-0.3
	C65.6,52.2,65.6,52.4,65.8,52.4"/>
<path id="path414" fill="#9A3B26" d="M32.9,53.6v0.2c-0.3-0.2-0.2-0.6-0.3-0.9c0-0.1,0-0.2,0.1-0.2C32.7,53,32.8,53.3,32.9,53.6"/>
<path id="path416" d="M62.2,52.6c-0.1,0.3-0.1,0.6-0.2,0.9h-0.1C62,53.1,62,52.8,62.2,52.6L62.2,52.6"/>
<path id="path418" d="M38.3,53.2c0,0.5-0.1,0.8-0.1,1.3c-0.1,0.1-0.1,0.2-0.2,0.2c-0.1,0-0.1,0-0.2,0c0.1-0.1,0.3-0.1,0.3-0.3
	c0-0.1,0.1-0.3,0-0.4H38c0,0,0-0.1-0.1-0.1C38.2,53.7,38.2,53.4,38.3,53.2c-0.2,0-0.2,0.1-0.3-0.1c0-0.1,0.1,0,0.2-0.1l0.3-0.2
	C38.6,53,38.4,53,38.3,53.2"/>
<path id="path420" fill="#9A3B26" d="M65,52.9c0,0.3-0.4,0.3-0.5,0.5l0,0h-0.1c0.1-0.1,0.1-0.4,0-0.6c0-0.2,0.2-0.1,0.3-0.2
	C64.8,52.9,64.9,53,65,52.9"/>
<path id="path422" d="M38.8,53.4c0,0.1,0.1,0.2,0,0.4l-0.1-0.1c-0.1,0.1,0,0.3-0.2,0.4V54c0-0.3,0.1-0.6,0.2-0.9
	C38.9,53.1,38.8,53.2,38.8,53.4"/>
<path id="path424" fill="#EFE8C7" d="M64.9,54c-0.1-0.2,0-0.5-0.2-0.6l0.3-0.2C64.8,53.5,65.5,53.8,64.9,54"/>
<path id="path426" fill="#9A3B26" d="M65.3,53.4L65.3,53.4c0.1,0.1,0,0.3-0.1,0.4c0-0.2-0.3-0.3-0.1-0.5
	C65.2,53.2,65.2,53.4,65.3,53.4"/>
<path id="path428" d="M62.4,53.3c-0.1,0.6,0,1.4-0.2,1.9h-0.1C62.3,54.6,62.2,54,62.4,53.3C62.3,53.3,62.4,53.2,62.4,53.3"/>
<path id="path430" fill="#9A3B26" d="M64.6,53.6c0.1,0.2,0,0.5,0.2,0.6c0.1,0,0.2-0.1,0.2-0.2h0.1c-0.1,0.3-0.3,0.5-0.4,0.8
	c0-0.4-0.4-0.8-0.2-1.2C64.5,53.6,64.6,53.6,64.6,53.6"/>
<path id="path432" fill="#9A3B26" d="M48.7,53.8c-0.3,0.3-0.6,0.6-0.9,1c-0.2,0.1-0.3,0.2-0.5,0.1l-0.1-0.1c0.4-0.3,0.9-0.7,1.2-1
	c0,0,0.2,0,0.1-0.1C48.5,53.7,48.6,53.7,48.7,53.8"/>
<path id="path434" fill="#EFE8C7" d="M44.3,54.1c-0.1,0.2,0,0.4-0.2,0.6c0,0.4,0.1,0.7,0.2,1c0.1,0,0,0.1,0.1,0.1
	c0.1-0.1,0-0.3-0.1-0.4V55c0.1,0.2,0.4,0.2,0.7,0.2c0.1,0.3,0,0.7-0.1,1c0,0.3,0.3,0.5,0.2,0.8c0,0.4-0.2,0.7-0.2,1.1
	c0,0.2,0.3,0.5,0,0.6h-0.2c-0.1,0.1,0,0.2,0.1,0.3c-0.3-0.2-0.2-0.7-0.5-0.9c-0.2-0.5-0.1-1.1-0.1-1.6l0,0v0.1c0,0.4-0.1,1,0.1,1.5
	c0,0.2-0.1,0.4-0.1,0.6c0,0.5-0.1,0.9-0.1,1.5c0.1,0.1,0.2,0,0.3,0.1c0.1,0.4,0.6,0.1,0.6,0.6c0.1,0.4,0,0.8-0.1,1.1
	c-0.1-0.3-0.1-0.7-0.3-0.8c-0.1,0.1-0.1,0.2-0.1,0.3v1c0-0.2-0.1-0.4-0.2-0.5c-0.1,0-0.1,0.1-0.1,0.1c-0.1,0.7,0.6,1.4,0.4,2.1
	c0,0.4-0.1,0.9-0.4,1.2c0,0.1,0,0.1,0,0.2c0-0.1-0.1-0.2-0.2-0.2c-0.1,0.1,0,0.3-0.1,0.4c-0.1,0.2-0.1,0.4-0.2,0.6
	c-0.1-0.3-0.1-0.8-0.2-1.2c0,0-0.1-0.1-0.2,0l-0.1,0.1c-0.1-0.4-0.2-1-0.1-1.4c0.1-0.1,0.1-0.2,0.1-0.3c0.4-0.4,0.6-0.8,0.8-1.4
	L43.9,62c-0.2,0.2-0.4,0.2-0.5,0.4c-0.1-0.3-0.2-0.6-0.5-0.7c0-0.3,0.1-0.4,0.2-0.7c0.3-0.2,0.7-0.4,0.9-0.8v-0.1
	c-0.3,0.1-0.6,0.3-0.9,0.2c0-0.2,0.1-0.3,0.4-0.3c0.1,0,0.3-0.1,0.4-0.2c0-0.1,0.1-0.4-0.1-0.4c-0.2,0.1-0.5,0.1-0.7,0.1l0,0
	l0.1-0.3c-0.4-0.3-0.2-0.7-0.3-1.1c0.1,0,0-0.1,0.1-0.1c-0.1-0.1-0.2-0.1-0.3-0.2c0-0.2,0.2-0.6-0.1-0.7c0-0.3,0.1-0.5,0.1-0.8
	c-0.1-0.1-0.2-0.1-0.3-0.2v-0.4c0.5,0,1-0.3,1.3-0.8c0.1-0.3,0.3-0.6,0.2-0.9c0.1,0,0.1-0.1,0.1-0.1C44,53.9,44.3,53.9,44.3,54.1"/>
<path id="path436" fill="#9A3B26" d="M49.7,53.9c-0.1,0.6-0.6,1-1.1,1.2c-0.1,0-0.2,0-0.2-0.1c0.3-0.2,0.6-0.3,0.8-0.7
	C49.3,54.2,49.4,54,49.7,53.9L49.7,53.9"/>
<path id="path438" fill="#EFE8C7" d="M43.7,54c0.1,0.3-0.2,0.2-0.3,0.3c-0.2,0-0.3,0-0.5-0.1c-0.1-0.1-0.1-0.1-0.1-0.2
	C43.1,53.9,43.4,54.4,43.7,54"/>
<path id="path440" d="M61.9,53.9c0,0.3-0.1,0.7-0.2,1l0,0c-0.1-0.1,0-0.3,0-0.4L61.9,53.9L61.9,53.9"/>
<path id="path442" fill="#9A3B26" d="M54.5,62.4c0.1,0.1,0.1,0.1,0.2,0.2c0.1,0.1,0.2,0.1,0.2,0c0.1-0.1,0.1-0.1,0.3-0.1
	c0,0.5-0.6,0.8-0.5,1.3c0.1,0.1,0.2,0.1,0.3,0.1l0.3-0.3c0,0.5-0.4,0.9-0.7,1.3c-0.2-0.8,0.2-1.6-0.2-2.3c0-0.1,0-0.1,0-0.2H54.5"/>
<path id="path444" fill="#EFE8C7" d="M54.5,62.2C54.5,62.2,54.5,62.1,54.5,62.2L54.5,62.2c0.2-0.7,0.9-0.8,0.7-1.5
	c-0.1-0.1-0.2,0-0.4-0.1c0.1-0.2,0.2-0.3,0.2-0.5c-0.1-0.2-0.3,0-0.4,0c-0.1,0.1-0.2,0.2-0.3,0.3c-0.1-0.4-0.3-1,0.1-1.4
	c-0.1-0.2-0.5,0.1-0.4-0.3c0-0.2,0.1-0.3,0.2-0.4c0.2-0.1,0-0.3-0.1-0.4c-0.1-0.4-0.2-0.7-0.1-1.1c0.2,0,0.3-0.1,0.4-0.3
	c-0.1-0.1-0.4-0.1-0.3-0.3v-0.1c0.2,0,0.4-0.2,0.6-0.2c0,0,0.1,0,0.1-0.1c-0.1-0.1-0.3-0.1-0.2-0.2l0.2-0.5c0.2,0.1,0.2,0.4,0.5,0.4
	l0.1-0.1c0.1,0.3,0.1,0.7,0.1,1c0,0,0,0,0.1,0c0.1-0.1,0-0.2,0-0.3c0-0.3-0.2-0.7,0-1c0-0.3,0.1-0.5,0.1-0.8l0.1-0.1
	c0,0.6,0.3,1.2,0,1.9c0,0.3,0.4,0.5,0.3,0.8c0,0,0.1,0,0.1-0.1c0.2-0.4-0.6-0.6-0.2-1c0-0.4-0.1-0.7-0.1-1c0.3,0.4,0.2,0.9,0.7,1.2
	c0,0.1,0.1,0.1,0.1,0.2c-0.2,0.4,0.3,0.6,0.4,0.9c-0.1,0.2-0.3,0-0.4,0.2c0,0.2,0.2,0.4,0,0.6c-0.1,0-0.3,0.1-0.4,0.1
	c-0.1,0.1-0.2,0-0.3,0.1c0.1,0.4,0.3,0.7,0.4,1c-0.1,0.2-0.1,0.3,0,0.5c0,0-0.1,0-0.1,0.1v0.1c0-0.1-0.1-0.1-0.2-0.1
	c0,0.1,0,0.1,0,0.1c-0.1-0.1-0.1-0.2-0.2-0.2v0.1c0.1,0.4,0.3,0.7,0.5,1h0.1c0.2,0.4-0.2,0.7-0.2,1.2c-0.1,0.1-0.1,0.2-0.1,0.4
	c0,0.3,0.1,0.7-0.1,0.9l0,0c-0.1-0.3-0.3-0.6-0.4-0.9c0,0-0.1-0.1-0.1,0c-0.1,0.2,0,0.4,0,0.6c0.1,0.3,0.2,0.6,0.4,0.9h0.1
	c0,0.1,0,0.2,0,0.4c-0.2-0.2-0.2-0.5-0.4-0.7c-0.1,0-0.1,0-0.1,0.1c0,0.5,0.2,0.9,0.1,1.3c-0.1,0.2-0.4,0.2-0.6,0.4
	C55,65.2,55,64.9,54.8,65l0,0v-0.1l0,0c0.2-0.2,0.3-0.3,0.4-0.6c0.2-0.2,0.2-0.5,0.3-0.8c0,0,0-0.1-0.1-0.1L55,63.8
	c-0.1-0.1-0.1-0.3-0.1-0.4c0.1-0.4,0.6-0.6,0.4-1c-0.2-0.1-0.3,0.1-0.5,0.1c-0.1-0.1-0.1-0.2-0.2-0.2L54.5,62.2"/>
<path id="path446" d="M38.6,55.1L38.6,55.1c-0.2-0.2-0.2-0.4-0.1-0.6l0.1-0.1C38.6,54.6,38.4,54.9,38.6,55.1"/>
<path id="path448" fill="#9A3B26" d="M48.7,54.6c-0.2,0.1-0.5,0.4-0.7,0.2l0.2-0.3C48.4,54.5,48.5,54.6,48.7,54.6"/>
<path id="path450" d="M43.9,55c0,0.3,0,0.6,0.1,0.9c-0.1,0-0.3,0.1-0.3,0.2c0-0.1,0.2-0.2,0.3-0.3c0-0.2,0-0.4-0.1-0.6
	c-0.1,0-0.1,0.1-0.1,0.2C43.6,55.2,43.8,55.1,43.9,55"/>
<path id="path452" d="M38.2,55.2l-0.1,0.5C37.9,55.6,38.1,55.3,38.2,55.2C38.1,55.1,38.2,55.1,38.2,55.2"/>
<path id="path454" d="M62,55.3C62,55.4,62,55.4,62,55.3c-0.1-0.1-0.1-0.2,0-0.4C62.1,55,62,55.3,62,55.3"/>
<path id="path456" fill="#9A3B26" d="M60,62.2c0.2,0.4,0,0.9-0.2,1.2c-0.1,0.1,0,0.1,0.1,0.2c0.4,0,0.4-0.5,0.7-0.7
	c0.2,0,0.2,0.1,0.4,0.2c0.2-0.3-0.2-0.5-0.2-0.8l0,0c-0.1,0.1-0.2,0.2-0.3,0.2C60.3,62.4,60.2,62.4,60,62.2L60,62.2"/>
<path id="path458" fill="#EFE8C7" d="M60,62.1L60,62.1c0.5-0.1,0.5-0.7,0.8-1.1c0-0.1,0.1-0.2,0-0.3c0-0.1-0.1,0-0.2,0
	c-0.1,0-0.1,0.2-0.2,0.2l-0.2-0.2c0.1-0.1,0-0.1,0.1-0.2c0.5-0.1,0.7-0.6,0.8-0.9c-0.2-0.2-0.4,0.3-0.5-0.1
	c-0.1-0.1-0.1-0.2-0.2-0.3c-0.2-0.1-0.4,0.3-0.5,0c0.6-0.2,1.1-0.6,1.5-1.1c0-0.1,0.1-0.2,0-0.3c-0.2-0.2-0.4,0.2-0.6,0.3
	c-0.2,0.1-0.4,0.3-0.7,0.4c0-0.3,0-0.6,0.3-0.8c0-0.1,0-0.1-0.1-0.1h-0.1c0.1-0.3,0-0.6,0.2-0.8c0-0.2-0.3-0.1-0.2-0.4
	c0.1-0.3,0.1-0.6,0.1-0.9c0.5,0.8,1,1.7,1.6,2.5c0,0-0.2-0.2-0.3,0c0,0.3,0.1,0.6,0.3,0.8c-0.1-0.1-0.2-0.2-0.3-0.2
	c-0.3,0.2,0,0.5,0,0.7c0.1,0.1,0.2,0.3,0.3,0.3c0,0.1,0,0.3,0,0.4c-0.2-0.2-0.3-0.6-0.6-0.7c-0.1,0.2,0,0.5,0,0.7
	c0.1,0.2,0.2,0.5,0.3,0.7c-0.1,0.3-0.1,0.6,0,0.8c-0.3-0.3-0.4-0.6-0.5-0.9H61v0.1h-0.1c-0.2,0.5,0,1,0.4,1.3c0,0.2-0.1,0.5-0.2,0.7
	c-0.2-0.2-0.2-0.5-0.3-0.6c-0.2,0-0.2,0.2-0.4,0.3c-0.1-0.1-0.2-0.1-0.3-0.2L60,62.1"/>
<path id="path460" d="M38.3,55.7c0,0.3,0.1,0.7,0,1h-0.1L38.3,55.7C38.2,55.7,38.3,55.7,38.3,55.7"/>
<path id="path462" d="M44.2,56.3L44.2,56.3c-0.1-0.1-0.1-0.3-0.1-0.5C44.2,56,44.1,56.2,44.2,56.3"/>
<path id="path464" d="M56.6,56.5L56.6,56.5c-0.2,0-0.3-0.2-0.3-0.4V56C56.5,56.1,56.5,56.4,56.6,56.5"/>
<path id="path466" d="M49.2,56.7L49.2,56.7c0.1,0.2-0.1,0.3,0,0.5c-0.2,0.4,0,0.9-0.1,1.3H49c0.1-0.5,0-1.1,0.1-1.6v-0.1L49,57
	c0,0-0.1,0-0.1-0.1L49.2,56.7L49.2,56.7"/>
<path id="path468" d="M43.9,57.1c0,0.4,0,0.8-0.2,1.1l0,0c0-0.1,0.1-0.2,0.1-0.3c0-0.4,0.1-0.7,0-1C43.9,56.9,43.9,57,43.9,57.1"/>
<path id="path470" d="M55.6,57.1c-0.1,0.5,0.1,1.1,0.1,1.6h-0.1C55.5,58.2,55.3,57.6,55.6,57.1L55.6,57.1"/>
<path id="path472" d="M38.3,57.2c-0.1,0.3,0,0.6-0.2,0.9c0,0.1,0.1,0.2-0.1,0.2l0,0C38.1,58,38.1,57.6,38.3,57.2L38.3,57.2"/>
<path id="path474" d="M55.8,57.7c-0.1,0.5,0.1,0.9,0.1,1.3l0,0l0,0C55.8,58.5,55.7,58.1,55.8,57.7C55.7,57.6,55.8,57.6,55.8,57.7
	C55.9,57.6,55.8,57.6,55.8,57.7"/>
<path id="path476" fill="#9A3B26" d="M61.3,58c-0.3,0.5-0.8,0.9-1.4,1c0.1-0.5,0.6-0.7,1-0.9l0.3-0.3C61.4,57.8,61.3,57.9,61.3,58"
	/>
<path id="path478" d="M37.9,58c0.1,0.2-0.1,0.4-0.2,0.6c0-0.1,0.1-0.2,0.1-0.4C37.8,58.1,37.8,58,37.9,58"/>
<path id="path480" d="M43.8,58.2c0,0.1-0.1,0.3-0.2,0.4C43.6,58.5,43.8,58.4,43.8,58.2L43.8,58.2"/>
<path id="path482" d="M43.9,58.4c0,0.2,0,0.4-0.1,0.6C43.8,58.8,43.8,58.6,43.9,58.4L43.9,58.4"/>
<path id="path484" fill="#9A3B26" d="M44.3,58.4c0.2,0.3,0.1,0.7,0.5,0.9c0.1,0.3,0,0.6-0.1,0.9c-0.1,0-0.1,0.1-0.1,0.2l0,0
	c-0.2,0-0.2-0.4-0.5-0.3C44.1,59.5,44.2,59,44.3,58.4L44.3,58.4"/>
<path id="path486" d="M49.6,58.5c0,0.3-0.1,0.6,0.1,0.9v0.1c-0.1,0-0.2-0.2-0.2-0.3C49.5,59,49.5,58.7,49.6,58.5L49.6,58.5"/>
<path id="path488" d="M48.4,58.6c-0.1,0.1-0.2,0.2-0.3,0.3c-0.1-0.1,0.1-0.1,0.1-0.2C48.2,58.6,48.3,58.6,48.4,58.6"/>
<path id="path490" fill="#9A3B26" d="M37.1,59.3c0.1,0,0.2-0.1,0.3-0.2c0,0.2-0.3,0.5-0.1,0.6c0.2,0,0.3-0.1,0.4-0.2
	c0,0.2,0,0.4-0.1,0.6c-0.3,0.2-0.4,0.5-0.7,0.6c0-0.7,0-1.3-0.1-1.9C37,59,36.9,59.2,37.1,59.3"/>
<path id="path492" fill="#9A3B26" d="M61.9,59.2c-0.1,0.1-0.1,0.2-0.1,0.3c-0.2-0.2-0.4-0.5-0.3-0.8C61.7,58.8,61.9,59,61.9,59.2"/>
<path id="path494" d="M50.4,59.1L50.4,59.1c-0.1,0-0.2,0-0.3-0.1v-0.1C50.2,59,50.3,59.1,50.4,59.1"/>
<path id="path496" d="M55.5,59.4L55.5,59.4c0,0.5,0.2,1.2-0.2,1.5l0,0C55.5,60.5,55.5,60,55.5,59.4c-0.1,0.2-0.1,0.4-0.2,0.4
	c0-0.1,0.1-0.2,0.1-0.3c0.1-0.2,0-0.4,0.2-0.6L55.5,59.4"/>
<path id="path498" fill="#9A3B26" d="M60.5,59.6c0.1,0.2,0.2,0.1,0.4,0.1c-0.1,0.3-0.4,0.6-0.7,0.7c-0.1-0.2-0.4-0.5-0.2-0.8
	c0-0.1,0.1-0.2,0.1-0.3c0.1,0,0.2-0.1,0.3-0.1L60.5,59.6"/>
<path id="path500" d="M55.9,59.8L55.9,59.8c-0.1,0-0.1-0.2-0.1-0.3v-0.1C55.8,59.5,55.8,59.7,55.9,59.8"/>
<path id="path502" fill="#9A3B26" d="M43.2,59.9c-0.1,0.1-0.2,0-0.4,0.1c-0.1-0.1,0-0.3,0-0.4c0.2,0,0.5,0,0.7-0.1
	C43.7,59.7,43.4,59.8,43.2,59.9"/>
<path id="path504" d="M49.3,60.2c0,0.3-0.1,0.5-0.3,0.7h-0.1c0-0.1,0.1-0.2,0.2-0.4c0.1-0.3,0.1-0.7,0.1-1.1
	C49.4,59.7,49.2,60,49.3,60.2"/>
<path id="path506" fill="#9A3B26" d="M61.8,60.2l-0.1,0.4c-0.2-0.3-0.3-0.7-0.3-1.1C61.5,59.7,61.6,59.9,61.8,60.2"/>
<path id="path508" fill="#9A3B26" d="M56.7,60.1c0.1,0.2-0.1,0.4-0.1,0.6c-0.1-0.2-0.4-0.5-0.4-0.7c0.1,0,0.1,0.1,0.2,0.1
	c0,0,0.1,0,0-0.1c0.1,0.1,0.1,0,0.2,0C56.6,60,56.6,60.1,56.7,60.1"/>
<path id="path510" fill="#1D5C42" d="M64.3,60.1c0,0.1,0.1,0.2,0.1,0.2c0.2-0.1,0.2,0.2,0.3,0.2c0.2,0.3,0.4,0.7,0.5,1.1
	c-0.5-0.3-1.1-0.6-1.5-1.1c-0.1-0.1,0.1-0.3,0.2-0.3C64.1,60.1,64.2,60,64.3,60.1"/>
<path id="path512" fill="#9A3B26" d="M54.7,60.3c0,0.2-0.3,0.4-0.1,0.5h0.3c0.1,0.4-0.2,0.6-0.4,0.8c0,0-0.1,0.1-0.1,0
	c0-0.4-0.1-0.7-0.1-1C54.5,60.6,54.5,60.3,54.7,60.3"/>
<path id="path514" fill="#9A3B26" d="M43.6,60.3c-0.1,0.2-0.4,0.3-0.6,0.4c-0.1,0-0.2,0-0.2-0.1v-0.2C43.1,60.5,43.4,60.5,43.6,60.3
	"/>
<path id="path516" d="M55.7,60.5c0,0.2,0.1,0.5,0,0.6C55.6,60.9,55.6,60.8,55.7,60.5L55.7,60.5"/>
<path id="path518" fill="#9A3B26" d="M61.6,61.7c0,0.1,0,0.2-0.1,0.2s-0.3-0.2-0.3-0.3C61,61.3,61,61.2,61,60.8
	C61.1,61.2,61.4,61.4,61.6,61.7"/>
<path id="path520" d="M43.9,60.9c-0.1,0.3,0,0.6,0,1l0,0c0-0.2,0-0.3,0-0.4c-0.1,0.1,0,0.2-0.1,0.2C43.7,61.4,43.8,61.2,43.9,60.9
	L43.9,60.9"/>
<path id="path522" fill="#9A3B26" d="M60.5,61l0.1-0.2v0.1c-0.2,0.3-0.3,0.7-0.6,0.9l0,0c0.4-0.3-0.1-0.7,0.1-1.1
	C60.2,60.9,60.3,61.1,60.5,61"/>
<path id="path524" fill="#9A3B26" d="M37.4,61.5L37.4,61.5c0.1,0.1,0.1,0.4-0.1,0.6c0,0-0.1,0-0.1,0.1c0.1-0.3,0-0.7-0.1-1
	C37.3,61.2,37.1,61.7,37.4,61.5"/>
<path id="path526" fill="#9A3B26" d="M50.2,61.8c0,0.4,0,0.8-0.1,1.2c-0.1-0.3-0.3-0.5-0.3-0.8c0.1,0,0.2,0,0.3-0.1
	c0-0.3-0.2-0.6-0.1-1C49.9,61.3,50,61.5,50.2,61.8"/>
<path id="path528" fill="#9A3B26" d="M38.4,61.6c-0.2,0.2,0,0.4-0.1,0.6C38.2,62,38,61.7,38,61.5c0.1,0,0.1,0,0.1,0
	c0.1-0.1,0.1-0.2,0.1-0.3C38.4,61.3,38.4,61.5,38.4,61.6"/>
<path id="path530" d="M49.1,61.2c0,0.1,0,0.2-0.1,0.3C49,61.4,49.1,61.3,49.1,61.2L49.1,61.2"/>
<path id="path532" fill="#9A3B26" d="M44.6,62.6v0.7l0,0c-0.1-0.4-0.4-0.8-0.3-1.3C44.4,62.1,44.3,62.4,44.6,62.6
	c0.1-0.2,0-0.4,0.1-0.5v-0.7C44.7,61.7,44.9,62.2,44.6,62.6"/>
<path id="path534" d="M37.9,61.8c0,0.1,0.2,0.3,0.1,0.4c-0.1,0-0.1-0.3-0.2-0.2c0.1,0,0,0.1,0,0.1h-0.1c0-0.2,0-0.5,0.1-0.6
	C37.9,61.6,37.8,61.7,37.9,61.8"/>
<path id="path536" d="M55.6,61.7c0,0.4,0.1,0.7,0,1.1h-0.1C55.5,62.4,55.5,62,55.6,61.7L55.6,61.7"/>
<path id="path538" fill="#9A3B26" d="M43.3,62.5L43.3,62.5c0.2-0.1,0.3-0.2,0.5-0.3c-0.1,0.4-0.3,0.8-0.6,1.1l0,0H43
	c0.1-0.5,0.1-0.9-0.1-1.4C43.1,62,43.3,62.2,43.3,62.5"/>
<path id="path540" d="M49.1,62.2L49.1,62.2c-0.1-0.1-0.1-0.2,0-0.3C49.2,62,49.1,62.1,49.1,62.2"/>
<path id="path542" fill="#9A3B26" d="M37.3,62.7h0.2c-0.1,0.3-0.1,0.6,0.1,0.8h0.1c-0.1,0.2-0.1,0.4-0.1,0.6c0.4,0.1,0,0.5,0.1,0.7
	c-0.3-0.3-0.1-0.8-0.4-1.1c-0.1-0.3,0.2-0.7-0.1-0.9c0-0.1-0.1-0.2,0-0.3C37.3,62.6,37.3,62.7,37.3,62.7"/>
<path id="path544" fill="#9A3B26" d="M56.2,63.7c-0.1-0.3-0.3-0.6-0.3-1C56,63,56.1,63.4,56.2,63.7"/>
<path id="path546" fill="#9A3B26" d="M38.1,64c0-0.2-0.1-0.4-0.2-0.6c0-0.2-0.1-0.3,0-0.5C38.2,63.2,38.3,63.7,38.1,64"/>
<path id="path548" d="M49.2,63.4c0.1,0.3-0.2,0.6-0.3,0.8h-0.1c0-0.2,0.2-0.3,0.3-0.4c0.1-0.3,0-0.6,0-0.8
	C49.2,63.1,49.1,63.3,49.2,63.4"/>
<path id="path550" fill="#EFE8C7" d="M60.8,63.9c0,0.4-0.6,0.6-0.5,1h-0.4c-0.2-0.3,0-0.7-0.1-1l-0.1-0.3c0.2,0.2,0.3-0.1,0.5,0
	c0.3-0.1,0.3-0.9,0.7-0.4L60.8,63.9"/>
<path id="path552" d="M43.6,64.1c-0.1-0.1,0.1-0.2,0.1-0.3s0-0.3,0.1-0.4C43.9,63.7,43.8,63.9,43.6,64.1"/>
<path id="path554" fill="#EFE8C7" d="M38,64.3l-0.1,0.2c0-0.1,0.1-0.3-0.1-0.4l0,0c0-0.1,0-0.2,0-0.3s0.1-0.2,0.1-0.3
	C38,63.7,37.9,64,38,64.3"/>
<path id="path556" fill="#9A3B26" d="M48.7,63.7c-0.3,0.2-0.5,0.6-0.8,0.7c-0.1-0.2,0-0.4,0-0.7l0.1-0.2
	C48.2,63.8,48.4,63.7,48.7,63.7"/>
<path id="path558" fill="#9A3B26" d="M56.1,64.2L56.1,64.2c-0.1,0.5-0.1,0.9-0.3,1.4c0-0.2-0.3-0.6,0.1-0.7c0.1-0.3,0-0.6,0-1
	C55.9,64,56,64.2,56.1,64.2"/>
<path id="path560" fill="#9A3B26" d="M48.4,65.3c-0.2,0-0.3,0.2-0.5,0.2c-0.2-0.2,0-0.4,0-0.7c0.1,0,0.1,0.1,0.2,0.2
	c0.2,0,0.4-0.2,0.6-0.2l0,0C48.7,65,48.6,65.2,48.4,65.3"/>
<path id="path562" fill="#9A3B26" d="M60.2,65L60.2,65L60.2,65c0.1,0.2,0,0.4-0.1,0.5c-0.2,0.1-0.1-0.2-0.2-0.3V65
	C60.1,65,60.1,65.1,60.2,65"/>
<path id="path564" fill="#9A3B26" d="M43.3,65.1c0.2,0.5,0,0.9,0.3,1.3c0.1,0,0.1-0.1,0.2-0.1c0.1-0.2,0.2-0.5,0.2-0.7
	c0.1,0.4-0.1,0.8-0.2,1.2c-0.1,0.1-0.1,0.3-0.2,0.4c-0.4-0.5-0.3-1.2-0.4-1.9C43.2,65.2,43.2,65.1,43.3,65.1"/>
<path id="path566" fill="#9A3B26" d="M55,65.3C55,65.3,55.1,65.4,55,65.3L55,65.3c0.2,0.2,0.3-0.1,0.4-0.1c0,0.4-0.2,0.8-0.5,1.1
	h-0.1c-0.1-0.3-0.1-0.8-0.1-1.2l0.1-0.1C55,65.1,55,65.2,55,65.3"/>
<path id="path568" fill="#EFE8C7" d="M55.8,65.8c0,0.4,0,0.8-0.2,1.2c-0.2-0.1-0.3,0.1-0.5,0.1c-0.1-0.1,0-0.4-0.2-0.4
	c0-0.2,0.2-0.4,0.4-0.6s0.3-0.5,0.3-0.8C55.7,65.5,55.7,65.7,55.8,65.8"/>
<path id="path570" fill="#9A3B26" d="M48.1,66.7c0.1,0.3,0.2,0.7,0.1,1.1c-0.2,0-0.2-0.1-0.2-0.3c-0.1-0.3-0.3-0.6-0.2-1
	C48,66.5,48,66.7,48.1,66.7"/>
<path id="path572" fill="#9A3B26" d="M55.1,67.3C55.1,67.2,55.2,67.2,55.1,67.3L55.1,67.3c0.2,0,0.2-0.2,0.3-0.2
	c-0.3,0.3,0,1-0.5,1.2c0-0.4-0.1-1,0-1.4C55,67,54.8,67.2,55.1,67.3"/>
<path id="path574" fill="#9A3B26" d="M49.1,67.4L49.1,67.4c-0.3,0.5-0.1,1.2-0.4,1.7c-0.1,0.3-0.3,0.7-0.4,1c0-0.1,0-0.4-0.1-0.6
	c-0.1-0.4-0.3-0.8-0.2-1.3l0.1-0.1c0.1,0.1,0.1,0.2,0.1,0.3c0,0.2,0,0.5,0.1,0.7c0.1,0,0.2-0.1,0.2-0.2c0.2-0.5,0.4-1.1,0.1-1.6
	v-0.2C48.8,67.1,48.9,67.4,49.1,67.4"/>
<path id="path592" fill="#9A3B26" d="M42,24.2c-0.1,0.1-0.2,0.1-0.3,0.2c0,0.1,0,0.3,0,0.4h0.2c0.1-0.1,0.2-0.1,0.2-0.2
	c0-0.2,0-0.3,0-0.5L42,24.2L42,24.2"/>
<path id="text9621" fill="#FFFFFF" d="M24.8,72.9c0.5,0,0.8,0,1.1,0.1c0.3,0,0.5,0.1,0.7,0.2c0.6,0.3,1,0.8,1.2,1.5
	c0.1,0.3,0.1,0.9,0.1,1.8c0,0.8,0,1.3-0.1,1.5c-0.1,0.8-0.5,1.3-1.1,1.6c-0.2,0.1-0.5,0.2-0.9,0.2c-0.3,0-0.8,0.1-1.3,0.1
	s-1,0-1.3-0.1s-0.6-0.2-0.8-0.3c-0.5-0.3-0.8-0.8-1-1.4c-0.1-0.3-0.1-0.7-0.1-1.3c0-1.2,0.1-2,0.2-2.4c0.2-0.6,0.6-1,1.3-1.3
	C23.4,73,24,72.9,24.8,72.9 M24.8,74.5c-0.4,0-0.7,0-0.9,0.1c-0.2,0.1-0.3,0.2-0.4,0.5c-0.1,0.2-0.1,0.7-0.1,1.5
	c0,0.7,0,1.2,0.1,1.4c0.1,0.2,0.2,0.3,0.3,0.3c0.2,0.1,0.5,0.1,0.9,0.1s0.6,0,0.8-0.1c0.2-0.1,0.3-0.2,0.3-0.4
	c0.1-0.2,0.1-0.7,0.1-1.5c0-0.5,0-0.8,0-1s0-0.3-0.1-0.5s-0.2-0.3-0.3-0.3C25.4,74.5,25.2,74.5,24.8,74.5 M30.7,73v2.6h0.6L33,73
	h2.2l-2.4,3.4l2.6,3.5h-2.3l-1.9-2.7h-0.6v2.7h-1.9V73H30.7 M37.8,73v5.3h2.9v1.6h-4.8V73H37.8 M45.4,78.7H43l-0.3,1.2h-1.9l2.1-6.9
	h2.8l2.1,6.9h-1.9L45.4,78.7 M45.1,77.3l-0.9-3l-0.8,3H45.1 M54.3,73v6.9h-1.9v-2.7H50v2.7h-1.9V73H50v2.6h2.4V73H54.3 M58.5,72.9
	c0.5,0,0.8,0,1.1,0.1c0.3,0,0.5,0.1,0.7,0.2c0.6,0.3,1,0.8,1.2,1.5c0.1,0.3,0.1,0.9,0.1,1.8c0,0.8,0,1.3-0.1,1.5
	c-0.1,0.8-0.5,1.3-1.1,1.6c-0.2,0.1-0.5,0.2-0.9,0.2c-0.3,0-0.8,0.1-1.3,0.1s-1,0-1.3-0.1s-0.6-0.2-0.8-0.3c-0.5-0.3-0.8-0.8-1-1.4
	C55,77.8,55,77.4,55,76.8c0-1.2,0.1-2,0.2-2.4c0.2-0.6,0.6-1,1.3-1.3C57,73,57.6,72.9,58.5,72.9 M58.4,74.5c-0.4,0-0.7,0-0.9,0.1
	s-0.3,0.2-0.4,0.5C57,75.3,57,75.8,57,76.6c0,0.7,0,1.2,0.1,1.4c0.1,0.2,0.2,0.3,0.3,0.3c0.2,0.1,0.5,0.1,0.9,0.1s0.6,0,0.8-0.1
	s0.3-0.2,0.3-0.4c0.1-0.2,0.1-0.7,0.1-1.5c0-0.5,0-0.8,0-1s0-0.3-0.1-0.5s-0.2-0.3-0.3-0.3C59.1,74.5,58.8,74.5,58.4,74.5 M71,73
	v6.9h-1.8v-2.1c0-0.5,0-1.3,0.1-2.4v-0.8h-0.1L69,75.4l-0.2,0.8l-0.5,1.6l-0.7,2.1H66l-0.7-2.1c-0.4-1.1-0.7-2.1-1-3.1h-0.1v0.8
	c0.1,1.2,0.1,2,0.1,2.4V80h-1.8v-7h2.9l0.6,2c0.2,0.6,0.4,1.4,0.7,2.4h0.1l0.2-0.6c0.2-0.6,0.3-1.2,0.5-1.8l0.6-2H71 M76.3,78.7
	h-2.5l-0.3,1.2h-1.9l2.1-6.9h2.8l2.1,6.9h-1.9L76.3,78.7 M75.9,77.3l-0.9-3l-0.8,3H75.9"/>
<g>
	<path opacity="0.2" enable-background="new    " d="M10.4,74.3V25.8c0-12.1,8.2-22.7,19.8-25.8H0v100h30.2
		C18.5,96.9,10.4,86.3,10.4,74.3z"/>
	<path opacity="0.1" fill="#FFFFFF" enable-background="new    " d="M89.6,25.8v48.5c0,12.1-8.2,22.7-19.8,25.8H100V0H69.8
		C81.5,3.1,89.6,13.7,89.6,25.8z"/>
</g>
</svg>
