<?xml version="1.0" encoding="utf-8"?>
<!-- Generator: Adobe Illustrator 23.0.0, SVG Export Plug-In . SVG Version: 6.00 Build 0)  -->
<svg version="1.0"
	 id="svg2" xmlns:cc="http://creativecommons.org/ns#" xmlns:dc="http://purl.org/dc/elements/1.1/" xmlns:inkscape="http://www.inkscape.org/namespaces/inkscape" xmlns:rdf="http://www.w3.org/1999/02/22-rdf-syntax-ns#" xmlns:sodipodi="http://sodipodi.sourceforge.net/DTD/sodipodi-0.dtd" xmlns:svg="http://www.w3.org/2000/svg"
	 xmlns="http://www.w3.org/2000/svg" xmlns:xlink="http://www.w3.org/1999/xlink" x="0px" y="0px" viewBox="0 0 100 100"
	 enable-background="new 0 0 100 100" xml:space="preserve">
<defs>
	
	
		<inkscape:perspective  id="perspective10" inkscape:persp3d-origin="372.04724 : 350.78739 : 1" inkscape:vp_x="0 : 526.18109 : 1" inkscape:vp_y="0 : 1000 : 0" inkscape:vp_z="744.09448 : 526.18109 : 1" sodipodi:type="inkscape:persp3d">
		</inkscape:perspective>
	
		<inkscape:perspective  id="perspective2902" inkscape:persp3d-origin="0.5 : 0.33333333 : 1" inkscape:vp_x="0 : 0.5 : 1" inkscape:vp_y="0 : 1000 : 0" inkscape:vp_z="1 : 0.5 : 1" sodipodi:type="inkscape:persp3d">
		</inkscape:perspective>
	
		<inkscape:perspective  id="perspective3068" inkscape:persp3d-origin="0.5 : 0.33333333 : 1" inkscape:vp_x="0 : 0.5 : 1" inkscape:vp_y="0 : 1000 : 0" inkscape:vp_z="1 : 0.5 : 1" sodipodi:type="inkscape:persp3d">
		</inkscape:perspective>
	
		<inkscape:perspective  id="perspective3146" inkscape:persp3d-origin="0.5 : 0.33333333 : 1" inkscape:vp_x="0 : 0.5 : 1" inkscape:vp_y="0 : 1000 : 0" inkscape:vp_z="1 : 0.5 : 1" sodipodi:type="inkscape:persp3d">
		</inkscape:perspective>
	
		<inkscape:perspective  id="perspective3232" inkscape:persp3d-origin="0.5 : 0.33333333 : 1" inkscape:vp_x="0 : 0.5 : 1" inkscape:vp_y="0 : 1000 : 0" inkscape:vp_z="1 : 0.5 : 1" sodipodi:type="inkscape:persp3d">
		</inkscape:perspective>
	
		<inkscape:perspective  id="perspective3310" inkscape:persp3d-origin="0.5 : 0.33333333 : 1" inkscape:vp_x="0 : 0.5 : 1" inkscape:vp_y="0 : 1000 : 0" inkscape:vp_z="1 : 0.5 : 1" sodipodi:type="inkscape:persp3d">
		</inkscape:perspective>
	
		<inkscape:perspective  id="perspective3428" inkscape:persp3d-origin="0.5 : 0.33333333 : 1" inkscape:vp_x="0 : 0.5 : 1" inkscape:vp_y="0 : 1000 : 0" inkscape:vp_z="1 : 0.5 : 1" sodipodi:type="inkscape:persp3d">
		</inkscape:perspective>
	
		<inkscape:perspective  id="perspective3524" inkscape:persp3d-origin="0.5 : 0.33333333 : 1" inkscape:vp_x="0 : 0.5 : 1" inkscape:vp_y="0 : 1000 : 0" inkscape:vp_z="1 : 0.5 : 1" sodipodi:type="inkscape:persp3d">
		</inkscape:perspective>
	
		<inkscape:perspective  id="perspective3621" inkscape:persp3d-origin="0.5 : 0.33333333 : 1" inkscape:vp_x="0 : 0.5 : 1" inkscape:vp_y="0 : 1000 : 0" inkscape:vp_z="1 : 0.5 : 1" sodipodi:type="inkscape:persp3d">
		</inkscape:perspective>
	
		<inkscape:perspective  id="perspective4505" inkscape:persp3d-origin="0.5 : 0.33333333 : 1" inkscape:vp_x="0 : 0.5 : 1" inkscape:vp_y="0 : 1000 : 0" inkscape:vp_z="1 : 0.5 : 1" sodipodi:type="inkscape:persp3d">
		</inkscape:perspective>
	
		<inkscape:perspective  id="perspective4599" inkscape:persp3d-origin="0.5 : 0.33333333 : 1" inkscape:vp_x="0 : 0.5 : 1" inkscape:vp_y="0 : 1000 : 0" inkscape:vp_z="1 : 0.5 : 1" sodipodi:type="inkscape:persp3d">
		</inkscape:perspective>
	
		<inkscape:perspective  id="perspective4675" inkscape:persp3d-origin="0.5 : 0.33333333 : 1" inkscape:vp_x="0 : 0.5 : 1" inkscape:vp_y="0 : 1000 : 0" inkscape:vp_z="1 : 0.5 : 1" sodipodi:type="inkscape:persp3d">
		</inkscape:perspective>
	
		<inkscape:perspective  id="perspective4751" inkscape:persp3d-origin="0.5 : 0.33333333 : 1" inkscape:vp_x="0 : 0.5 : 1" inkscape:vp_y="0 : 1000 : 0" inkscape:vp_z="1 : 0.5 : 1" sodipodi:type="inkscape:persp3d">
		</inkscape:perspective>
	
		<inkscape:perspective  id="perspective4863" inkscape:persp3d-origin="0.5 : 0.33333333 : 1" inkscape:vp_x="0 : 0.5 : 1" inkscape:vp_y="0 : 1000 : 0" inkscape:vp_z="1 : 0.5 : 1" sodipodi:type="inkscape:persp3d">
		</inkscape:perspective>
	
		<inkscape:perspective  id="perspective5362" inkscape:persp3d-origin="0.5 : 0.33333333 : 1" inkscape:vp_x="0 : 0.5 : 1" inkscape:vp_y="0 : 1000 : 0" inkscape:vp_z="1 : 0.5 : 1" sodipodi:type="inkscape:persp3d">
		</inkscape:perspective>
	
		<inkscape:perspective  id="perspective5438" inkscape:persp3d-origin="0.5 : 0.33333333 : 1" inkscape:vp_x="0 : 0.5 : 1" inkscape:vp_y="0 : 1000 : 0" inkscape:vp_z="1 : 0.5 : 1" sodipodi:type="inkscape:persp3d">
		</inkscape:perspective>
	
		<inkscape:perspective  id="perspective5568" inkscape:persp3d-origin="0.5 : 0.33333333 : 1" inkscape:vp_x="0 : 0.5 : 1" inkscape:vp_y="0 : 1000 : 0" inkscape:vp_z="1 : 0.5 : 1" sodipodi:type="inkscape:persp3d">
		</inkscape:perspective>
	
		<inkscape:perspective  id="perspective5662" inkscape:persp3d-origin="0.5 : 0.33333333 : 1" inkscape:vp_x="0 : 0.5 : 1" inkscape:vp_y="0 : 1000 : 0" inkscape:vp_z="1 : 0.5 : 1" sodipodi:type="inkscape:persp3d">
		</inkscape:perspective>
	
		<inkscape:perspective  id="perspective5738" inkscape:persp3d-origin="0.5 : 0.33333333 : 1" inkscape:vp_x="0 : 0.5 : 1" inkscape:vp_y="0 : 1000 : 0" inkscape:vp_z="1 : 0.5 : 1" sodipodi:type="inkscape:persp3d">
		</inkscape:perspective>
	
		<inkscape:perspective  id="perspective5814" inkscape:persp3d-origin="0.5 : 0.33333333 : 1" inkscape:vp_x="0 : 0.5 : 1" inkscape:vp_y="0 : 1000 : 0" inkscape:vp_z="1 : 0.5 : 1" sodipodi:type="inkscape:persp3d">
		</inkscape:perspective>
	
		<inkscape:perspective  id="perspective2965" inkscape:persp3d-origin="0.5 : 0.33333333 : 1" inkscape:vp_x="0 : 0.5 : 1" inkscape:vp_y="0 : 1000 : 0" inkscape:vp_z="1 : 0.5 : 1" sodipodi:type="inkscape:persp3d">
		</inkscape:perspective>
</defs>
<sodipodi:namedview  bordercolor="#666666" borderopacity="1.0" id="base" inkscape:current-layer="layer1" inkscape:cx="451.07006" inkscape:cy="260.32322" inkscape:document-units="px" inkscape:pageopacity="0.0" inkscape:pageshadow="2" inkscape:window-height="670" inkscape:window-maximized="0" inkscape:window-width="1228" inkscape:window-x="0" inkscape:window-y="1" inkscape:zoom="0.82731493" pagecolor="#ffffff" showgrid="false">
	</sodipodi:namedview>
<g id="layer1" transform="translate(766.43375,-142.67784)" inkscape:groupmode="layer" inkscape:label="Layer 1">
	<g id="path136">
		<path fill="#002A86" d="M-766.4,242.7h100v-100h-100V242.7z"/>
	</g>
</g>
<g>
	<path opacity="0.2" enable-background="new    " d="M10.4,74.3V25.8c0-12.1,8.2-22.7,19.8-25.8H0v100h30.2
		C18.5,96.9,10.4,86.3,10.4,74.3z"/>
	<path opacity="0.1" fill="#FFFFFF" enable-background="new    " d="M89.6,25.8v48.5c0,12.1-8.2,22.7-19.8,25.8H100V0H69.8
		C81.5,3.1,89.6,13.7,89.6,25.8z"/>
</g>
<g>
	<path fill="#DAA80D" d="M31.7,61.6c1.1,1.7-0.4,1.6-1.8,1.9c-0.4-1.3-2.1,0.9-1.8-0.6c-0.5-0.2-2.1,0.8-2.4,0
		c0.6-0.6-0.5-0.7-0.3-1.6c0.3-1.1,0.8,0.3,1.2,0.5C28.1,62.4,30.4,60.3,31.7,61.6z"/>
	<path fill="#D9A70D" d="M67.9,62.6c1.3-1.9,2.6,0.2,4.2,0c0.8-0.1,1.8-1.7,2.4-1.1c1.2,0.9-1.4,2.6-2.3,2.1c0,0.2,0.1,0.3,0,0.5
		c-0.8-0.8-2.2-0.5-3-1.3c0,0,0,1-0.4,0.8C68.5,63.5,67.7,63.1,67.9,62.6z"/>
	<path fill="#1F212B" d="M69.7,63.6c-0.2,0-0.4-0.2-0.7-0.1c0-0.2,0-0.4,0-0.6C69.4,62.5,69.7,63.5,69.7,63.6z"/>
	<path fill="#2F1511" d="M57.1,63.8C57,63.8,57,63.9,57,64c-0.2-0.2-0.4,0-0.6,0.1c0.1-0.2,0.2-0.5,0.6-0.6
		C57,63.6,57.3,63.7,57.1,63.8z"/>
	<path fill="#A58312" d="M49.6,40.2"/>
	<path fill="#463C10" d="M51.6,40.7C51.6,40.7,51.6,40.8,51.6,40.7c0.1,0.8-0.6,0.5-0.4,0c0.1,0,0.2,0,0.3,0
		C51.5,40.6,51.5,40.7,51.6,40.7z"/>
	<path fill="#0C0B0A" d="M42,63.6c0.3,0,0.5,0,0.8,0c-0.2,0.2-0.5,0.3-0.7,0.5c0-0.1,0.2-0.3-0.1-0.3C42,63.6,42,63.6,42,63.6z"/>
	<path fill="#0E0407" d="M31.6,63.2c-0.3,0-0.3,0.3-0.6,0.3c0-0.1,0-0.2-0.1-0.2C31.1,63.3,31.4,63.2,31.6,63.2z"/>
	<path fill="#221F0D" d="M74.6,62.2c0-0.2,0-0.5-0.1-0.7C74.9,61.7,74.7,62,74.6,62.2z"/>
	<path fill="#070C0E" d="M44.9,62.3c-0.2,0.2-0.9,0.2-0.9-0.2C44.3,61.8,45,62.3,44.9,62.3z"/>
	<path fill="#0B0911" d="M44.2,62.1c0,0.1,0,0.1,0,0.2c-0.6,0-1,0.2-1.5,0.2C43.1,62.3,43.6,62.1,44.2,62.1z"/>
	<path fill="#340304" d="M53.5,65.3c0.2,0,0.2,0.2,0.3,0.2C53.6,65.7,53.4,66.4,53.5,65.3z"/>
	<g>
		<path fill="#CB0B10" d="M53,64.5c-2.2,1.2-3.5,1-5.6-0.3c-0.9-0.6-2.1-1.9-3.3-2c-1.9-0.1-0.8,1,0,1.8c0.1,0.3,0.3,0.5,0.5,0.5
			c0,0,0,0,0,0c1.4,1.3,2.9,2,4.7,2.9c0.7,0.2,1.4,0.2,2.1,0c0,0,2.1-0.7,2.2-0.8c1.5-0.6,2.8-1.6,3.3-2.7C58,61.1,53.8,64,53,64.5z
			"/>
	</g>
	<path fill="#150102" d="M32.5,62c-0.1-0.5,0-0.8,0.3-0.9C33.1,61.2,32.6,61.9,32.5,62z"/>
	<path fill="#43320B" d="M41,63.7c-0.2,0.2-0.5,0.1-0.8,0.1C40.2,63.5,40.9,63.5,41,63.7z"/>
	<path fill="#342B0B" d="M42,63.6L42,63.6C42,63.7,40.9,63.6,42,63.6z"/>
	<path fill="#2F0904" d="M31.7,61.6c-0.2-0.1-0.4-0.2-0.6-0.4C31.4,61.2,31.6,61.2,31.7,61.6z"/>
	<path fill="#5A3807" d="M32.8,60.4c0.1-0.1,0.1-0.2,0.2-0.2c0.1,0.2,0,0.3,0,0.5C32.9,60.6,32.8,60.6,32.8,60.4z"/>
	<path fill="#544611" d="M41.6,63.6L41.6,63.6c-0.3,0.2-0.5,0.1-0.7,0C41.1,63.5,41.3,63.5,41.6,63.6z"/>
	<path fill="#0B0A06" d="M40.4,63.6c0,0.1-0.1,0.1-0.1,0.2c0,0-0.1,0-0.1,0.1c-0.1-0.1-0.2-0.2-0.3-0.3
		C40.1,63.4,40.2,63.4,40.4,63.6z"/>
	<path fill="#C00A0F" d="M67,61.3c0.9,0,0.9,1.5,0.2,1.2C66.8,62.4,66.5,61.5,67,61.3z"/>
	<path fill="#281705" d="M60.8,63.9c-0.7,0.5-2.3,0.3-3-0.1C58.8,63.8,59.9,63.7,60.8,63.9z"/>
	<path fill="#250203" d="M67.9,62c-0.3,0-0.4-0.4-0.5-0.5C67.5,61.4,68.3,61.5,67.9,62L67.9,62z"/>
	<path fill="#361A0A" d="M69.7,61.7c-0.3,0-0.5,0.1-0.8,0.2C69.1,61.5,69.4,61.7,69.7,61.7C69.7,61.6,69.7,61.6,69.7,61.7z"/>
	<path fill="#1A180D" d="M69.2,62.8C69.1,62.9,69.1,63,69,63C68.9,62.5,69,62.4,69.2,62.8z"/>
	<path fill="#171511" d="M43.7,44.2c-0.1,0-0.2,0.1-0.2,0.2c-0.1-0.2-0.2-0.3,0-0.5C43.4,44.1,43.7,44,43.7,44.2z"/>
	<path fill="#0E0A01" d="M44.4,44.4c-0.1,0-0.2-0.1-0.3-0.1c0.1-0.1,0.3,0,0.4-0.1c0,0.1,0,0.1,0,0.2C44.6,44.4,44.5,44.4,44.4,44.4
		z"/>
	<path fill="#020304" d="M49.9,40.5"/>
	<path fill="#C19711" d="M51.1,40.7"/>
	<path fill="#1B190C" d="M43.5,53.7c0.6,0.3,1.1,0.3,0.7,1.2C44.2,54.7,43.5,53.7,43.5,53.7z"/>
	<path fill="#15140A" d="M43.7,55.5c0,0.3,0.2,0.4,0.4,0.5C44.1,56.3,43.4,55.9,43.7,55.5z"/>
	<path fill="#1C1502" d="M57.5,52.5c0-0.2,0-0.3,0-0.5h0.1c0,0.2,0,0.4,0.3,0.3C57.9,52.6,57.7,52.6,57.5,52.5
		C57.5,52.6,57.5,52.6,57.5,52.5z"/>
	<path fill="#0F1B26" d="M49.7,59.7c0.3,0,0.6,0,0.9,0C50.3,59.9,50,59.9,49.7,59.7z"/>
	<path fill="#1D1808" d="M42.5,52L42.5,52c-0.1,0-0.2-0.1-0.2-0.3c0.1,0,0.2-0.1,0.2-0.1C42.5,51.8,42.5,51.9,42.5,52z"/>
	<path fill="#161D1D" d="M44.9,62.2c0.5,0,1.1-0.1,1.6,0.1C46,62.3,45.5,62.3,44.9,62.2C44.9,62.3,44.9,62.2,44.9,62.2z"/>
	<g>
		<path fill="#DAA80D" d="M54.2,62.7c-0.6,0-3.6,0.3-4.4,1.2c-1.5-1.3-5.4-3.2-5.4-1.6c0.4,0.4,0.9,0.6,1.5,0.6
			c0,0.6,0.9,1.7,1.4,1.7c0.1-0.1,0.7-1.2,0.7-1.2c0.1,0,0.2,0.1,0.3,0.1c0,0-0.1,0-0.1,0c-0.2-0.1-0.3,0-0.3,0.3c0.1,0,0.3,0,0.4,0
			c0.2,0.4,0.8,0.9,1.3,1.1c0,0.1,0,0.1,0,0.2c0.1,0.1,0.2,0.1,0.3-0.1c0,0,0,0,0,0c0.1,0,0.2,0,0.2,0c0.7,0.4,1.3-0.9,2.1-1
			c0.2,0,0.2,0.9,0.6,0.8c0.7-0.1,1.3-1.1,0.5-1.6c0,0,0,0,0,0c0.6,0.3,1.4,0.1,2-0.2c0,0,0,0-0.1-0.1c0.1,0,0.2-0.1,0.4-0.1
			c-0.2,0-0.3,0-0.5,0C54.8,62.6,54.6,62.7,54.2,62.7z"/>
		<path fill="#DAA80D" d="M55.6,62.8c0.5-0.1,0.9,0,1.4,0C56.5,62.6,56.1,62.6,55.6,62.8z"/>
	</g>
	<path fill="#080A09" d="M52.5,64.8L52.5,64.8c-0.1-0.2-0.1-0.5-0.2-0.7C52.7,64.2,52.4,64.6,52.5,64.8z"/>
	<g>
		<path fill="#CB0B10" d="M42.2,63.6c-3.7,0.6-5.7-0.5-8.5-2.6c-0.5-0.4-2.5-1.7-2.7-0.3c-0.1,0.6,0.5,1.2,1.2,1.4
			c0,0.1,0,0.2,0,0.3c0,0,0.1,0.1,0.1,0.1c0,0,0,0,0,0c-0.1,0-0.6,0.7-0.5,0.9c-0.4-0.4-1.4,0.6-2,1.2c-0.2,0-0.4,0-0.6,0
			c0.1,0.2,0.2,0.2,0.3,0.3c0.1-0.1,0.1-0.1,0.2-0.1c-0.1,0.1-0.2,0.2-0.2,0.2c0.6,0.2,1.5,0,2-0.6c0.2,0.3,1,0.9,1.6,0.9
			c0.2,0.1,0.3,0.2,0.4,0.4c0.2-0.2,0.1-0.3,0.1-0.5c0,0-0.1,0-0.1,0c0.1-0.2,0-0.4-0.2-0.5c0,0.1,0,0.1,0,0.1
			c-0.2-0.3-0.5-0.7-0.7-0.6c0.2-0.2,0.2,0,0.4-0.3c0,0,0,0-0.1-0.1c0,0,0.1,0,0.1,0c0,0,0,0,0,0c0,0,0,0,0,0c0,0,0,0,0.1,0
			c0,0,0-0.1,0-0.1c0.1-0.2,0-0.4,0.2-0.5l0,0c0.2,0,0.5-0.1,0.7-0.2c-0.1,0.1-0.2,0.2-0.4,0.3c-0.1-0.1-0.2-0.1-0.3-0.1
			c0.4,0.4,0.9,0.8,1.4,1.2c-0.1-0.2-0.4-0.6-0.8-0.9c0.1-0.2,0.1-0.3,0.4-0.4c0,0,0,0,0.1,0c0,0,0,0,0,0c0,0-0.1,0-0.1,0.1h-0.1
			c0,0.2-0.1,0.4,0.2,0.7c0-0.1,0-0.2,0-0.3c0.5,0.6,2,1.6,2.8,2.1c-0.9-0.4-1.7-0.7-2.5-1.3c0.3,0.3,2.6,1.5,2.8,1.4
			c0.1,0,0.1,0.1,0.2,0.1c0,0-0.1,0-0.1,0c0.1,0,0.1,0,0.2,0c0.1,0,0.1,0,0.2,0c0.3,0.1,0.5,0.2,0.8,0c0.2,0,0.4,0,0.6-0.1
			c0.2,0,0.3,0,0.4-0.1c0.2-0.1,0.4-0.2,0.6-0.3c0,0,0,0,0,0c0.2-0.1,0.3-0.2,0.5-0.3c0,0-0.1,0-0.1,0c0.1-0.1,0.3-0.2,0.5-0.4
			c0.3,0,0.4-0.3,0.5-0.5c0,0,0,0,0,0C42.1,64,42.4,63.6,42.2,63.6z M31.9,63.7c0-0.1,0-0.2,0-0.3c0.1,0,0.1,0.1,0.1,0.2h0.1
			C32,63.6,31.9,63.7,31.9,63.7z M32.8,62.3c0.2,0,0.4,0.1,0.5,0.1c-0.1,0.1-0.2,0.1-0.2,0.2c0,0,0,0,0,0c-0.1,0.1-0.1,0.1-0.2,0.2
			c0,0,0,0,0,0c0,0,0,0,0,0c0,0,0,0,0,0C33,62.7,32.9,62.5,32.8,62.3z M33.2,63.4c0-0.1,0-0.1,0-0.2c0,0,0,0,0,0
			C33.2,63.3,33.2,63.4,33.2,63.4z M33.3,63c-0.1-0.1-0.1-0.2-0.2-0.2c0.2-0.1,0.3-0.2,0.3-0.3c0.1,0,0.1,0,0.2-0.1
			c0.1,0,0.2,0,0.3-0.1C33.5,62.7,33.4,62.9,33.3,63z M34.7,63.2C34.7,63.2,34.7,63.2,34.7,63.2c0,0,0.1-0.1,0.2-0.1
			C34.9,63.1,34.8,63.2,34.7,63.2z"/>
		<path fill="#CB0B10" d="M33,63.9C33,63.9,33,63.9,33,63.9C33,63.9,33,63.9,33,63.9z"/>
		<path fill="#CB0B10" d="M30.9,64.9c-0.2,0.1-0.3,0.1-0.5,0.2C30.6,65.1,30.8,65.2,30.9,64.9z"/>
	</g>
	<g>
		<path fill="#CB0B10" d="M70.3,64.2c-0.4-0.4-0.9-0.7-1.3-0.6c-0.1,0-0.1,0-0.2-0.1c-0.5,0,0.2-1.1,0.4-1.5c0.3-0.6,0.7-0.4,0.3-1
			c-0.3-0.4-1.6-0.4-1.8-0.1c-0.4,0.5,0.2,0.6,0.3,0.8c-0.1,0-0.1,0-0.2-0.1c0.1,0.1,0.1,0.2,0.1,0.3c-0.3,0.3-0.9,0.6-0.8,0.5
			c0,0.1,0,0.1,0,0.1c0,0,0-0.1-0.1-0.1c-0.1,0.2-1.1,0.6-2.4,0.9c-1.3,0.3-1.7,1-3.2,0.9c-1.5-0.1-2.9-0.7-4.4-0.5
			c-0.3,0.7,1,1.4,2.2,1.8c0.1,0.1,0.3,0.2,0.5,0.2c0.4,0.1,0.8,0.2,1,0.2c1,0.2,5.9-1.2,5.9-0.7l0,0c0.3,0.2,0.5,0,0.6-0.1
			c0,0,0,0,0.1,0c0.2,0,0.4,0.1,0.5-0.1c0.4-0.1,0.8-0.2,1-0.3c0,0,0-0.1,0-0.1c0.1,0,0.2-0.2,0.3-0.2c0.4,0.3,1.1,0.5,1.5,0.6
			c-0.3,0-0.5,0-0.8-0.2c0.3,0.4,0.5,0.4,0.9,0.2c0,0,0.1,0,0.1,0C71,64.6,70.8,64.3,70.3,64.2z"/>
		<path fill="#CB0B10" d="M67,62.3"/>
	</g>
	<path fill="#131005" d="M67,61.3c-0.1,0.3-0.2,0.3-0.3,0c0-0.2,0.1-0.3,0.3-0.2C67,61.2,67,61.2,67,61.3z"/>
	<path fill="#CC9D0C" d="M56.9,45.3C56.6,45,57.7,45,57.6,45C57.8,44.9,57.4,46.5,56.9,45.3L56.9,45.3z"/>
	<path fill="#1B1502" d="M56.9,45.3"/>
	<path fill="#1E1E1E" d="M40.8,50.2c0,0.1-0.1,0.2-0.1,0.3c-0.2-0.1-0.6-0.5-0.1-0.7C40.7,49.9,40.7,50.1,40.8,50.2z"/>
	<path fill="#343434" d="M40.8,53c-0.3-0.1-0.3-0.1-0.3-0.6C40.7,52.5,40.7,52.8,40.8,53z"/>
	<path fill="#090909" d="M40.5,49.8c0,0.2-0.1,0.3-0.1,0.5c-0.1-0.4-0.1-0.6,0.1-0.7C40.5,49.7,40.5,49.7,40.5,49.8z"/>
	<path fill="#0A0A0A" d="M40.3,52.2c-0.2,0-0.2-0.1-0.2-0.2C40.5,51.8,40.5,51.9,40.3,52.2z"/>
	<path fill="#3E3E3E" d="M59.2,50.7c0,0.2,0.3,1.8-0.4,1.5C58.7,51.6,59.2,51,59.2,50.7z"/>
	<path fill="#26241F" d="M59.2,50.7c-0.1,0-0.1-0.1-0.2-0.1c0.1-0.2,0.1-0.5,0.3-0.7C59.4,50.2,59.8,50.5,59.2,50.7z"/>
	<path fill="#634C06" d="M57.6,52.1c-0.1,0-0.2,0-0.3-0.2C57.5,51.8,57.6,51.8,57.6,52.1z"/>
	<g>
		<path fill="#DAA80D" d="M41.3,62.6c0,0,0,0.1,0.1,0.1c-0.3,0-0.6-0.1-0.9-0.3c-0.1-0.1-0.2-0.2-0.3-0.1c0,0.1,0,0.3,0.1,0.4
			c0,0.1,0,0.1-0.1,0.1c-0.5-0.1-1.2-0.3-1.4-0.2c0,0,0,0,0,0c-0.6-0.6-1.6-1.4-0.9-2.4c-0.1,0.1-0.1,0.3,0,0.6
			c0.1,1,1.5,1.2,2.1,0.7c1.2-0.9-0.1-4.6-1.2-3.5c0,0.8,2.9,2.8,0.4,3c-0.2,0-0.4-0.1-0.3-0.2c0.2-0.1,0.3-0.2,0.5-0.3
			c0-0.1,0-0.2-0.2-0.3c0-0.1-0.1-0.2-0.2-0.3c0,0,0.1,0,0.1,0c-0.8-0.8-2.4,0.6-2.4,1.5c0,0.2,0.1,0.5,0.3,0.7
			c0.1,0.9,0.8,1.4,2,1.5c0,0,0.1,0,0.1-0.1c0,0,0.1,0,0.1,0c0.2,0.1,0.4,0.1,0.6,0.1c0.9,0.1,1.2,0.1,1.5,0c0,0,0.1,0,0.1,0
			c0.6,0.1,1.6-0.1,1.9-0.1c0-0.1,0-0.1,0,0c0.1,0,0.2,0,0.4,0C43.2,62.5,42.3,62.1,41.3,62.6z M38.9,59.8c0,0,0,0.1,0,0.1
			c-0.2-0.1-0.4-0.1-0.5-0.1C38.5,59.9,38.7,59.9,38.9,59.8z"/>
		<path fill="#DAA80D" d="M36.9,58.3C36.9,58.3,37,58.3,36.9,58.3C37,58.3,37,58.3,36.9,58.3c0.7,0,1.3,0,1.9,0v-0.1
			c0,0,0,0-0.1-0.1c0,0,0,0,0.1,0c0-3-7.7,1.6-6.1,2.3c0.1,0,0.2-0.1,0.3-0.2c-0.1,0.1-0.1,0.3,0,0.4c0.1,0.1,0.1,0.2,0.2,0.3
			c0-0.1,0.1-0.2,0.1-0.3c0,0.1,0,0.1,0,0.2c0,0,0.1,0,0.1,0c0.1,0.4,0.7-0.8,0.7-0.8c-0.1,1.2,1,1.7,1,0.3c0.3-0.1,0.7,0.2,0.9-0.2
			c-0.5-0.5-0.4-1.1,0-1.6c0.1-0.1,0.2-0.1,0.3-0.1C36.5,58.4,36.8,58.5,36.9,58.3C36.9,58.3,36.9,58.3,36.9,58.3z M33.4,60.3
			C33.4,60.3,33.4,60.3,33.4,60.3C33.4,60.3,33.4,60.3,33.4,60.3C33.4,60.3,33.4,60.3,33.4,60.3z"/>
	</g>
	<g>
		<path fill="#DAA80D" d="M57.3,63C57.3,62.9,57.4,62.9,57.3,63C57.3,62.9,57.3,62.9,57.3,63z"/>
		<path fill="#DAA80D" d="M67.1,59.7c-0.4-0.7-2.2-1.5-2.9-1.8c-1.9-0.8-3.8-0.4-4.7,1.6c-0.3,0.8,0,1.9,0.6,2.4c0,0,0,0,0,0
			c0,0.1,0.1,0.1,0.3,0.2c0.1,0,0.1,0.1,0.2,0.1c0.3,0.1,0.4,0.1,0.6,0v0c0.2-0.1,0.3-0.2,0.5-0.4c0.2-0.2,0.2-0.3,0.2-0.5
			c0.1,0,0.1,0,0.2,0c0,0.1,0,0.1,0,0.2c0.1,0,0.1,0,0.1-0.1c0,0.1,0,0.3,0,0.6c0,0.5-0.6,0.9-1,1.1c0-0.3-0.1-0.4-0.4-0.2
			c-0.7-0.2-2.2,0-3.1,0.3c-0.1,0-0.3-0.1-0.4-0.1c-0.1,0.1-0.1,0.2-0.1,0.2c0.1,0,0.1,0,0.2,0c-0.1,0-0.1,0.1-0.2,0.1
			c0-0.1,0-0.1,0-0.2c-0.1,0.1-0.3,0.1-0.2,0.3c-0.1,0.1-0.1,0.1-0.2,0.2c0.1,0.1,0.1,0.1,0.2,0.1c0,0,0,0,0,0.1
			c0.6,0.3,2.2-0.3,2.6-0.1c-0.2,0-0.3,0-0.2,0.2c1.3,0.3,3-0.5,3.5-1.6c-0.1,0.2-0.1,0.4-0.1,0.4c0.4-0.2,0.4-0.5,0.5-0.8
			c0-0.3,0.1-0.6-0.1-0.8c0,0.2,0,0.4-0.1,0.7c0.1-0.6-0.2-1.1-0.9-1.7c-0.2-0.1-0.3-0.2-0.4-0.2c0.1,0,0.2,0,0.3,0
			c-0.2-0.2-0.4-0.2-0.5-0.1c-0.4-0.1-0.3,0.1-0.2,0.4c-0.1,0-0.2,0-0.3,0c0,0.1,0,0.1,0,0.1c-0.2,0.1-0.4,0.2-0.5,0.6
			c0,0,0.1,0.1,0.2,0.1c-0.1,0-0.1,0-0.2,0c0,0-0.1,0.1-0.1,0.1c-1-0.4-0.4-1.9,0.4-2.4c0.3-0.2,0.5-0.3,0.7-0.4
			c0.3,0.1,0.6,0.1,1,0.1c0.1,0,0.1,0,0.2,0.1c0.5,0.2,0.8,0.4,0.9,0.6c-0.1,0.6,0,1.2,0.2,1.7c0,0,0,0,0,0c0.1,0.3,0.4,0.2,0.6,0.3
			c-0.1,0.1-0.3,0.3-0.3,0.4c0.2,0.9,1.4-0.2,1.6-0.4c0,0.1,0,0.1,0.1,0.2c0,0,0.1,0.1,0.1,0.2c0,0,0-0.1,0-0.1
			c0.2,0.1,0.4-0.2,0.6,0c0.1-0.1,0.1-0.1,0.1-0.2c0,0.1,0.1,0.2,0.1,0.3C67.1,61.6,67.4,60.1,67.1,59.7z M61,62.8
			c0,0-0.1,0-0.2-0.1C60.9,62.8,60.9,62.8,61,62.8z M63.2,61.9c-0.1,0-0.1,0.1-0.2,0.2C63.1,62,63.1,62,63.2,61.9
			C63.1,61.9,63.2,61.9,63.2,61.9z"/>
		<path fill="#DAA80D" d="M62.2,63.2c-0.1,0.1-0.2,0.2-0.3,0.2C62.1,63.5,62.2,63.4,62.2,63.2z"/>
	</g>
	<path fill="#312503" d="M42.9,45.5c0.1-0.3,0.3-0.4,0.6-0.4C43.4,45.4,43.2,45.6,42.9,45.5z"/>
	<path fill="#CD9E0C" d="M43.4,45c-0.3,0.2-0.4,0.1-0.5-0.2C43.1,44.8,43.3,44.9,43.4,45z"/>
	<g>
		<path fill="#076320" d="M42,61.1c0-0.2,0-0.4-0.1-0.6"/>
		<path fill="#076320" d="M45.6,60.9L45.6,60.9C45.5,60.9,45.5,60.9,45.6,60.9c-0.1,0-0.1,0-0.2,0c0,0,0,0,0,0
			c-0.1-0.1-0.2-0.1-0.4-0.1c0,0.2-0.4,0.2-0.2,0.5c0.3,0,0.6,0.1,0.8-0.2c0,0,0-0.1-0.1-0.1c0,0,0,0,0,0c0,0,0,0.1,0,0.1
			c0,0,0.1,0,0.1,0C45.7,61.1,45.6,61,45.6,60.9L45.6,60.9z"/>
		<path fill="#076320" d="M45.1,60.6c0,0,0.4,0.3,0.5,0.3c0-0.3,0-0.3-0.2-0.5C45.4,60.5,45.3,60.6,45.1,60.6z"/>
	</g>
	<g>
		<path fill="#404040" d="M66.5,40.1c0,0.1-0.1,0.2-0.2,0.2C66.3,40.3,67,40.6,66.5,40.1z"/>
		<path fill="#404040" d="M73.5,50.8c-0.1,0.1-0.1,0.2,0,0.3C73.7,50.8,73.7,50.8,73.5,50.8z"/>
		<path fill="#404040" d="M59.5,43.9c-0.2,0-0.4,0-0.6,0.1C59,44,59.5,44.1,59.5,43.9z"/>
		<path fill="#404040" d="M79.1,56.8c-0.3-0.3-0.7-0.3-1,0C78.4,57,78.7,57,79.1,56.8z"/>
		<path fill="#404040" d="M74,52.9c-0.1,0.2-0.1,0.4-0.1,0.6L74,52.9z"/>
		<path fill="#404040" d="M76.6,56.9c0.1,0,0.1,0,0.2,0C76.8,56.9,76.7,56.6,76.6,56.9z"/>
		<path fill="#404040" d="M71.8,40.4"/>
		<path fill="#404040" d="M76.8,56.7C76.8,56.8,76.9,56.8,76.8,56.7L76.8,56.7z"/>
		<path fill="#404040" d="M61.1,45.8C60.6,45.8,61.1,46.4,61.1,45.8L61.1,45.8z"/>
	</g>
	<g>
		<path fill="#404040" d="M29.8,48c0,0-0.1-0.1-0.1-0.2c0-0.1-0.1-0.1-0.1-0.2C29.6,47.7,29.7,47.9,29.8,48z"/>
		<path fill="#404040" d="M28.3,39.6C28.3,39.6,28.3,39.6,28.3,39.6c-0.1-0.1-0.2-0.3-0.3-0.3C28.1,39.3,28.1,39.4,28.3,39.6z"/>
		<path fill="#404040" d="M28,39.3C28,39.3,28,39.3,28,39.3L28,39.3z"/>
		<path fill="#404040" d="M26.7,51.3C26.8,51.3,26.8,51.2,26.7,51.3L26.7,51.3z"/>
		<path fill="#404040" d="M33.2,39.8c0-0.1,0-0.3,0.1-0.5c-0.1,0-0.1,0.1-0.2,0.2C33.2,39.6,33.2,39.7,33.2,39.8z"/>
		<path fill="#404040" d="M23.6,55.5C23.7,55.5,23.7,55.4,23.6,55.5L23.6,55.5z"/>
		<path fill="#404040" d="M35.6,55.7C35.5,55.7,35.5,55.8,35.6,55.7L35.6,55.7z"/>
	</g>
	<g>
		<path fill="#DAA80D" d="M56.9,45.3c0-1,1.1-0.8-0.5-0.8c-0.1-0.1-0.1-0.2-0.2-0.2c0,0,0-0.1,0-0.1c-0.1,0-0.8-1.2-0.9-1.3
			c-0.4-0.5-1-0.7-1.4-1.1c0-0.1-0.1-0.2-0.1-0.2c0,0,0,0-0.1,0c0.1-0.1,0.1-0.2,0.1-0.3c0-0.1-0.1-0.2-0.2-0.3
			c-0.3-0.2-0.7-0.3-0.9-0.2c0.1,0.2,0.1-0.1-0.6-0.2c-0.2-0.1-0.5-0.1-0.7,0c0.1,0,0.1,0,0.2,0c0,0,0.1,0,0.1,0
			c-0.1,0-0.1,0.1-0.2,0.1c0,0,0,0,0,0c0,0,0,0,0,0c0,0-1.7-0.2-2-0.5c-1.5-0.1-1.6,0-1.3,0.2c-0.1,0-0.2,0.1-0.2,0.1
			c-0.2,0-0.4,0.1-0.5,0.2c0,0,0,0,0,0c-0.1,0.2-1.2,0.3-1.2,0.6c0,0,0,0,0,0c0,0.2,0,0.3,0,0.3c-1,0.4-2.1,1.2-2.7,2.1
			c0.6,0,0.8,0.5,1.3,0.3c-0.1,0.1-0.2,0.1-0.2,0.1c0,0,0.1,0.1,0.2,0.1c-0.2,0-0.4,0-0.5,0.1c-0.1,0.3-0.2,0.4-0.4,0.5
			c0,0-0.8,0.1-0.9,0.2c-0.9-1.7-4.2,4.4-2,4.3c-0.4,0.8,0,2.6,1.3,2.4c0.1,0.1,0.1,0.2,0.2,0.2c-0.1,0.3,0,0.4,0.3,0.3
			c0.1,0.1,0.2,0.2,0.2,0.2c0.8,0.1,0.3,0.6,0.5,1c-0.1-0.3,0.3,1.2,0.3,0.9c0,0.4-0.4,1.3,0.3,1.7c-0.9,0.4,1.5,2.8,2.2,2.8v-0.1
			c2.5,0.1,4.3,2,6.9,0.3c0-0.1,0-0.1-0.1-0.1c0.6,0.1,1.7-0.4,1.9-0.8c-0.1-0.1-0.1-0.3-0.2-0.3c-0.1,0,0-0.1,0.1-0.2
			c0.4,0.5,1.2,0.7,1.2-1.2c0.1,0,0.1-0.1,0-0.2c0,0,0.1,0,0.1,0c0.1-0.1,0.1-0.1,0.1-0.1c0.1-0.1,0.2-0.1,0.2-0.3
			c-0.2-0.3-0.4-0.6-0.6-0.9c0-0.2,0.2-0.4,0.3-0.5c0.1,0.3,0.2-0.2,0.2-0.7c0.2,0.2,0.5,0.3,0.1,0.6c0.9,0,0.3-0.5,0-0.8
			c0-0.2,0-0.3-0.1-0.1c0.1-0.2,0-0.9,0.2-1.2c0.2,0.2,0.7,0.4,0.8,0.2c-0.1-0.1-0.2-0.2-0.3-0.3c0.1,0,0.2,0.1,0.4,0.2
			c0.1-0.1,0.1-0.2,0.1-0.3c0.1,0.1,0.3,0.1,0.3,0.1c1-0.1,1.6-3.6,1.4-4.2c-0.1-0.3-0.5-0.9-0.8-1.1c0-0.1,0-0.1,0-0.2
			c0.1-0.6-0.4-1.2-0.9-1.4 M50.2,44.1C50.2,44.1,50.2,44.1,50.2,44.1C50.2,44,50.2,44,50.2,44.1z M48.7,40.7
			c-0.1-0.1-0.3-0.1-0.4-0.1c0,0,0.1,0,0.1,0C48.4,40.6,48.6,40.7,48.7,40.7z M42.7,45.6C42.7,45.6,42.7,45.6,42.7,45.6
			C42.7,45.6,42.7,45.7,42.7,45.6C42.7,45.6,42.7,45.6,42.7,45.6z"/>
	</g>
</g>
<path fill="#404040" d="M43.8,44.2C43.8,44.3,43.7,44.2,43.8,44.2c-0.4-0.3-0.4-0.1-0.5-0.1c0.1,0,0,0,0,0c0.1-0.1,0-0.1,0,0
	c-0.1,0-2.7-0.3-3-0.3c-0.1,0-0.1-0.1-0.2-0.1c0,0,0,0,0,0c0,0,0,0,0,0c-0.2-0.1-0.4-0.1-0.5,0c-0.1,0-0.1,0-0.2,0c0,0,0.1,0,0.1,0
	c-0.3,0.2-0.4,0.5-0.5,0.4c-0.6,0.3-1.2,1-1.7,1.5c-0.2-0.2-0.3-0.4-0.5-0.5c-0.1,0-0.2,0-0.3,0c0,0,0,0.1,0,0.1
	c-0.3-0.3-0.5-0.4-0.7-0.4c0,0.1-0.1,0.2-0.2,0.2c0.1-0.6-0.4-0.6-0.4-0.8c-0.2-0.6-1-0.9-1.6-0.8c0-0.1,0-0.2-0.1-0.4
	c-0.1,0.1-0.1,0.1-0.2,0.2c0-0.1,0-0.2-0.1-0.2c0.1,0,0.3,0,0.3,0c0.8,0,0.6,0.1,0.6-0.4c0.1,0,0.1,0,0.2,0c0-0.1-0.1-0.1-0.1-0.2
	c0,0,0,0,0,0c0.1,0.2,0.3,0.2,0.6,0.2c0-0.2,0-0.4-0.1-0.6c0.2,0.1,0.1-0.1,0.2-0.1c0-0.2-0.2-0.3-0.3-0.3c0-0.1,0-0.2,0-0.3
	c-0.1,0-0.2,0-0.3-0.1c-0.2-0.1-0.3-0.1-0.4-0.1c0,0,0,0,0,0c-0.2,0-0.3-0.1-0.5-0.2c0,0,0.1-0.1,0.1-0.1c-0.1,0-0.3,0-0.4-0.1
	c0.1-0.2,0.1-0.3,0-0.5c0.1,0,0.2,0,0.3-0.1c-0.2-0.1-0.3-0.2-0.3-0.4c0,0.1,0,0.2-0.1,0.3c-0.1-0.1-0.1-0.2-0.2-0.2
	c0,0,0.1-0.1,0.1-0.2c0,0-0.1,0-0.1,0c0.1-0.2,0.1-0.3,0.2-0.4c-0.3,0-0.5-0.1-0.7,0.1c0.1,0.1,0.2,0.2,0.3,0.3
	c0,0.1-0.6-0.3-0.6-0.3c-0.1-0.1-0.2-0.2-0.3-0.2c0-0.1,0.1-0.3,0.1-0.4c-0.5,0-0.8,0.3-0.8,0.9c0,0-0.1,0-0.1,0
	c0-0.2,0-0.4,0.1-0.6c-0.2-0.2,0.3-0.4-0.2-0.4c-0.4,0.3-0.8,1-0.9,1c0.1,0,0.2-0.2,0.2-0.4c-0.4-0.4-0.7-0.4-1.1,0c0,0-0.1,0-0.1,0
	c-0.2,0.3-0.4,0.4-0.7,0.3c0,0.1,0.1,0.2,0.3,0.2c0,0,0,0.1,0,0.1c0,0,0,0,0,0c0,0,0-0.1-0.1-0.1c-0.1,0-0.1-0.1-0.2-0.1
	c0.1,0.1,0.1,0.1,0.2,0.2c-0.2,0-0.3-0.1-0.5-0.1c0,0.1,0.1,0.2,0.2,0.3c0,0,0,0,0,0c-0.3-0.1-0.5-0.1-0.7,0
	c-0.1,0.1-0.3,0.1-0.3,0.3c-0.3,0.3,0,0.2,0,0.4c0.1,0,0.1,0,0.2,0c-0.1,0.1-0.2,0.1-0.3,0.2c0,0-0.1,0-0.1,0c0,0.2,0,0.3,0.1,0.4
	c-0.3,0.2-0.4,0.5-0.1,0.8c0,0,0.1,0.1,0,0.1c0,0.1-0.2,0.2-0.1,0.4c0,1.6,0,0.2,0.4,0.6c0-0.1,0,0.9-0.1,1.1c0-0.1,0.2-0.2,0.3-0.2
	c0,0,0,0,0,0c0.1-0.1,0.5,2.7,0.8,2.6c0.1-0.1,0.4,0,0.4-0.1c0,0.3,0.1,0.5,0.2,0.6c0-0.1,0-0.1,0-0.2c0,0,0,0,0,0
	c0,0.2,0,0.3,0,0.4c0.1-0.1,0.2,0.1,0.4,0.1c0-0.1,0-0.1,0-0.2c0,0.1,0,0.2,0.1,0.3c0.1,0.1,0.2,0.1,0.3,0.2c0,0,0,0.1,0,0.1
	c0.1,0.1,0.2,0.3,0.4,0.4c0.4-0.2,0.2,0,0.2-0.9c0,0,0,0,0,0c0-0.2,0-0.3,0-0.5c0.1-0.3,0.2-0.7-0.3-0.8c0,0,0-0.1,0-0.1
	c0,0,0,0-0.1,0c0.1-0.2-0.1-0.8-0.4-0.4c0,0,0,0,0-0.1c-0.1,0-0.1,0.1-0.2,0.1c0-0.2,0-0.3-0.1-0.4c-0.2,0.3-0.1-0.3-0.3-0.3
	c0,0,0,0,0,0c0,0,0.3-0.2,0.2-0.3c0.2-0.3-0.1-0.3-0.2-0.3c0,0,0-0.2-0.1-0.2c0,0,0,0,0,0c0,0,0,0,0,0c-0.1-0.2-0.1-0.3-0.3-0.3
	c0-0.1,0-0.2,0.1-0.3c-0.1-0.1-0.2-0.2-0.2-0.2c0-0.1,0-0.2,0-0.2c0,0,0,0,0,0c0-0.2,0-0.5,0.2-0.6c0.2,0.4,1,2.5,1.8,3.6
	c-0.1,0.2,0,0.8,0.1,1.3c0,0.1,0,0.2,0,0.3c0-0.1,0-0.1,0-0.2c0,0.2,0.1,0.3,0.2,0.4c0,0,0.1,0.1,0,0.1c0,0.2,0.2,0.3,0.4,0.4
	c0-0.2-0.1-0.5-0.1-0.7c0-0.1,0.1-0.3,0.1-0.5c0,0,0,0,0,0c0.1,0,0.1,0,0,0.1l0.1,0.1c0.1,0.1-0.1,0.8,0,1c-0.1,0.1-0.1,0.3-0.2,0.4
	c0.1,0.2,0.2,0.3,0.2,0.4c-0.2-0.1-0.3-0.2-0.4-0.2c-0.2,0.2-0.2,0.4-0.2,0.7c-0.8-0.5-2.6,0.5-2.8,1.5c0.1,0.1-0.4,0-0.5,0.1
	c0,0,0,0,0,0c-0.1,0.1-0.2,0.3-0.2,0.4c-0.2,0-0.3-0.1-0.3-0.3c-0.1,0-0.2,0.1-0.1,0c0-0.1-0.1-0.1-0.1-0.1c0-0.3-0.1-0.4-0.3-0.5
	c0,0.1,0,0.1,0,0.2c0-0.1-0.1-0.2-0.1-0.3c0,0,0,0,0,0c0-0.1,0-0.2-0.1-0.4c-0.1,0-0.2,0-0.3,0c0,0,0,0,0,0
	c-0.4-0.4-0.6-0.1-0.7-0.2c-0.1,0-0.2,0-0.3,0.1c0,0,0,0,0-0.1c-0.4,0.1-0.6,0.3-0.8,0.6c0.1,0.1,0.2,0.1,0.4,0
	c0,0.1-0.1,0.1-0.1,0.2c-0.1,0-0.3,0.1-0.4,0.3l0.1,0.1c0,0.1,0,0.2,0.1,0.2c-0.1,0.4-0.1,0.7,0,0.9c-0.1,0.1-0.2,0.1-0.2,0.2
	c0-0.1-0.2,0-0.2,0c0,0,0,0.1,0,0.1c-0.7,0.1-1.2,0.7-1.5,1.4c0,0,0,0,0,0c-0.2,0.2-0.6,1.8-0.4,2.3c0,0,0.1,0,0.1,0
	c0,0.1-0.1,0.2-0.1,0.2c0,0.1-0.1,0.1-0.1,0.2c-0.2,0.1-0.5,0.2-0.8,0.2c0.1,0,0.1,0,0.1,0.2c0.1-0.1,0.2,0,0.3,0.2c0,0,0,0,0,0
	c0.1,0.2-0.1,0.6,0.2,0.7c0.1-0.1,1.3-0.8,1.3-0.8c0,0,0.1,0,0.1,0c0,0,0,0,0,0c0.2,0,1-0.4,1-0.7c0.1,0.1,0.1,0,0.2-0.2
	c0.1-0.3,0.1-1.7,0.1-1.8l0.3-0.3c0,0.2,0,0.4,0.1,0.4l0.1,0.1c0,0,0,0,0-0.1c0,0.1,0,0.1,0,0.2c0.1,0.1,0.1,0.5,0.3,0.6
	c0.5-0.1,0.5-0.4,0.3-0.5c0,0,0,0,0.1,0c0.1-0.1,0.1-0.1,0.1-0.2c0,0,0,0,0,0c0.4-0.3,0.2-0.7,0.4-0.6c0.2-0.1,0.2-0.3,0.2-0.5
	c0-0.2,0-0.4,0-0.5c0-0.1,0-0.2-0.2-0.4c0,0,0,0,0,0c0-0.1-0.1-0.2-0.2-0.2c0,0-0.1,0.1-0.1,0.1c0-0.3-0.1-0.6-0.1-0.7c0,0,0,0,0,0
	c0.1,0.1,0.2,0.1,0.3,0c0,0,0,0,0,0c0.1,0.1,0.3,0.1,0.5,0c0,0,0,0.1-0.1,0.2c0.3,0,0.4,0.5,0.8,0.1l0.1,0.1
	c0.1-0.1-0.1,0.1-0.1,0.3c0,0,0,0,0,0c-0.1,0.8,0,1.6,0.5,2.3c0,0,0,0.3,0.1,0.4c0.2,0,0.1,0.4,0.1,0.7c-0.1,0.2-0.2,0.5-0.2,0.7
	c-0.1,0.1-0.1,0.1-0.2,0.2c-0.2,0-0.4,0.1-0.6,0.4c0,0,0,0-0.1,0c-0.4,0.4,0,2-0.1,2.6c0.1,0,0,0.6,0,0.7c0,0.7,0.8,0.2,0.6,0.9
	c0.1-0.1-0.1,0.3-0.2,0.4c0.7,0.6,1.3,0.7,1.8,0.2c-0.1-0.2-0.3-0.4-0.3-0.7c-0.1-0.1-0.2-0.2-0.3-0.3c0,0,0-0.1,0-0.1
	c0,0-0.1-0.1-0.1-0.1c-0.1-0.5-0.2-1.3-0.4-1.5c-0.1,0-0.1-0.3-0.1-0.4c0-0.1,0-0.2,0-0.2c0-0.1,0.1-0.2,0.1-0.4c0,0,0,0,0.1-0.1
	c0.4-0.2,2.2-1.8,2.2-2.5c0.2,0.1,0.4-0.1,0.4-0.2c0.2-0.1,0.3-0.4,0.6-0.5c0,0.1,0,0.1,0,0.2c0.1,0.1,1.4-0.4,1.4-0.4
	c0.1-0.1,0.1-0.1,0.2-0.3c0.4,0.2,1,0.5,1,1.5c0.3,0.2,0.4,0.2,0.5,0.1c0,0,0,0.1,0,0.1c0.4,0,0.7,0,1.1-0.1c0,0.3,0.3,0.4,0.7,0.2
	c0,0,0-0.1,0-0.1c0.2,0,0.6,0.3,1.3,0.6c0.2,0.3,0.4,0.4,0.5,0.5c0,0,1,0.4,1,0.4c0,0,0.1,0,0.1,0c0,0.1,0.1,0.3,0.2,0.4
	c0.3-0.1,0.6,0.1,0.8-0.2c-0.2-0.6-0.6-0.8-0.8-0.7c-0.1-0.3,0.2-0.1,0.3-0.2c-0.3-0.1-0.4-0.5-0.7-0.6c0,0,0,0.1-0.1,0.2
	c0,0-0.1-0.1-0.1-0.1c0-0.6-0.5-1.3-1.3-0.9c0,0,0,0.1,0,0.1c-0.3-0.2-0.5-0.2-0.6-0.1c-0.1,0-0.2-0.1-0.3-0.1
	c-0.2-0.7-1-3.5-1.7-3.7c0.3,0,1.1-0.8,1.3-1c0.5,0.2,1.1-1.2,1.4-1.3c-1.5,0-1.2-0.1-1-0.2c0-0.1,3.2,0.2,3.5,0.5
	c0.7,0.3,0.5,1.9,0.8,2.8c-0.3,0.3-0.6,1.2,0.1,1.3c0.9,0.2,1-0.8,0.7-1.4c-0.1,0,0-1.6,0-1.5c-0.1-0.1-0.2-0.4-0.3-0.5
	c-0.1,0.1-0.2-1.5-0.3-1.7c-0.1,0-0.2,0-0.3,0c-0.1-0.4-0.7-0.3-0.7-0.4c-0.7-0.1-0.9,0-1.3,0c0.1-0.1,0.3-0.3,0.5-0.3
	c-0.1-0.2-0.2-0.3-0.4-0.5c0.3-0.7,1.2-2.3,1.2-2.2c0.1,0,0.2-0.2,0.3-0.3c0,0,0.2-0.1,0.3-0.3v0c0,0,2.8,0.2,2.8,0.2
	c0.1,0,1,0.1,1,0.1c0.2,0,0.3-0.1,0.3-0.2c0.2,0,0.3-0.1,0.3-0.5C44.2,44.2,44,44.2,43.8,44.2z M29.7,45.9
	C29.7,45.9,29.7,45.9,29.7,45.9C29.7,45.9,29.7,45.9,29.7,45.9C29.7,46,29.7,45.9,29.7,45.9z"/>
<path fill="#404040" d="M79.1,56.9c-0.2,0-0.4,0-0.6,0.1l0.1-0.2c0,0-0.3,0-0.5-0.1c0-0.1,0-0.2,0-0.3c0,0,0,0,0,0
	c0.1-0.2,0.1-0.4,0.1-0.6c0,0,0,0,0,0c0.1-0.3-0.1-0.6-0.2-0.8c0.2-0.6,0.1-0.9-0.3-0.9c-0.1,0-0.1,0.1-0.1,0.3c0-0.1,0-0.1,0-0.2
	c0,0,0.1,0,0.1-0.1c0-0.1-0.1-0.2-0.1-0.3c0,0,0,0,0,0c-0.2-0.5-0.8-1-1.2-1.4c0,0-0.1,0.1-0.1,0.1l-0.1-0.1l0-0.1c0,0,0,0,0,0
	c0-0.7,0.1-1.4-0.6-1.9c0,0,0,0.1,0,0.2l-0.1-0.1c0,0,0.1,0,0.1,0c0-0.1-0.2-0.2-0.4-0.3l0,0l0,0c-0.1-0.1-0.2-0.1-0.3,0l-0.6,0l0,0
	c0-0.1,0-0.1,0-0.2c-0.4,0.1-0.7,0.3-0.9,0.7c0,0,0.1,0.1,0.1,0.1c-0.1,0.1-0.1,0.1-0.1,0.1l0,0.1c-0.1-0.1-0.2,0-0.2,0.2
	c0,0,0,0,0,0c-0.1,0.1-0.2,0.3-0.3,0.4l-0.1,0c0,0,0,0,0,0c-0.1-0.1-0.2-0.1-0.3-0.2c0,0,0-0.1,0-0.1c0,0-0.1,0-0.1,0
	C72.4,51.2,72.2,51,72,51c0,0,0,0.1,0,0.1c0-0.1-0.1-0.2-0.3-0.4c0,0,0,0,0,0c-0.1-0.1-0.2-0.2-0.6-0.4c-0.3-0.1-0.6-0.3-0.8-0.4
	c-0.1,0-0.1,0.1-0.2,0.1c0,0,0-0.1,0.1-0.1c-0.3-0.2-0.6-0.4-1-0.5c0-0.1,0-0.2-0.1-0.3c-0.1-0.2-0.1-0.4-0.3-0.4c0,0,0-0.1,0-0.1
	c0-0.1,0-0.1,0-0.2c0.2,0,0.3-0.3,0.4-0.3c0.1-0.2,0-0.3-0.2-0.4l0,0c0.1,0,0.2,0,0.3,0.2c0-0.1,0-0.1,0.1-0.2
	c-0.1,0.3-0.1,0.5,0,0.7c0.4,0,0.7-0.4,0.8-0.8c0,0,0,0.1,0,0.1c0,0,0.1-0.1,0.2-0.1c0,0,0-0.1,0-0.1c0.4-0.1,0.7-0.2,0.7-0.6
	c0.1,0,0-0.3,0.1-0.5c-0.1,0-0.1,0-0.1,0.1c0.1-0.3,0.4-0.2,0.4-0.2c0,0.3,0.1,0.5,0.1,0.6c0.2-0.1,1-3.9,1-4.2
	c-0.1,0,0.3-0.9-0.3-1.2c0.2,0.1,0.4,0.2,0.6,0.3c0.1-0.1-0.5-0.4,0-0.5c0-0.2-0.2-0.2-0.3-0.3c0,0,0.1,0,0.1,0c0,0-0.1,0-0.1,0
	c0-0.1,0.1-0.2,0.2-0.1c0-0.1,0-0.2-0.2-0.3c0,0,0.1-0.1,0.1-0.1c-0.1-0.1-0.2-0.2-0.3-0.3c-0.1,0.2-0.8,0-0.6-0.1
	c-0.2,0-0.4,0.1-0.5-0.1c-0.1,0-0.2,0-0.2,0c0.1,0,0.2,0,0.3-0.1c0,0,0,0,0,0c0.5,0.4,0.9-0.7,0.2-0.2c-0.3,0-0.4-0.1-0.6-0.3
	c-0.4-0.5-0.8-0.3-1.3-0.1c-0.1-0.2-0.3-0.5-0.4-0.5c0,0-0.1,0.1-0.1,0.1c0-0.1,0-0.1,0-0.1c-0.1,0-0.1-0.2-0.3-0.1
	c0,0.3,0.1,0.6,0.2,0.9c0,0,0,0-0.1,0c0,0.2-0.6-1.6-1.1-0.2c0,0,0,0.1,0.1,0.1c-0.1,0-0.2,0-0.3,0c-0.2-0.1-0.5-0.1-0.7-0.2
	c-0.1,0.2-0.1,0.2-0.1,0.3c-0.3,0.2-0.3,0.7,0.3,0.9c0,0.2-0.3,0.1-0.4,0.3C66,41,64.9,42,64.8,42.3c0.1,0.4,0.3,0.6,0.7,0.5
	c0,0,0,0,0.1,0c0.1,0.2,0.3,0.3,0.6,0.3c0,0,0-0.1,0-0.1c0,0,0,0,0-0.1c0,0,0,0,0,0c0,0,0,0,0.1,0c0,0.1,0,0.1,0,0.2
	c0.1,0.1,0.3,0,0.5-0.1c0.3,0.1,1.1,0.2,1.2,0.2c-0.3,0.3-0.7,0.3-1,0.4c0,0,0,0,0,0c0,0-0.1,0-0.1,0c0,0,0,0,0,0c0,0,0,0-0.1,0
	c0,0,0,0.1,0,0.1l0,0c0,0,0,0,0,0c0,0,0,0,0,0c0,0,0,0,0,0c-0.1,0-0.1,0-0.3,0c0,0,0,0,0,0c-0.6,0-1.2,0.2-1.7,0.5l0,0L64,44.6
	c0,0,0,0,0,0c0,0,0,0,0,0l-0.4,0.3l0,0c-0.2,0-0.3,0.1-0.4,0.2c-0.1,0.1-0.2,0.3-0.3,0.5c-0.2-0.3-1.8-1.3-2.2-1.5
	c0,0.1-0.3-0.5-1.2-0.2c0,0,0,0.1,0,0.1l-0.4,0l-0.4,0.1c-0.6,0-1.2,0-1.3,0c0,0-1.1,0-0.8,0.3c0.1,0.2,0.4,0.2,0.6,0.1
	c0,0.1,0,0.1,0.1,0.2c-0.1,0-0.3,0.1-0.4,0.2c0.2,0.1,0.5,0.1,0.8,0.1c0.7,0.2,2.7,0.8,2.9,0.7c0,0,0,0,0,0c0.1,0.1,0.2,0.2,0.2,0.3
	c0.1,0.3,0.1,0.1,0.3,0.1c0,0.5,0.2,1.4,0.5,1.8c-0.5,0.3-0.3,0.3-0.4,0.2c0,0-0.5,0.2-1,0.4c0,0,0,0,0,0c-0.3-0.1-0.5,0.1-0.7,0.2
	c0,0,0,0,0,0.1c-0.1,0-0.1,0-0.1,0c-0.3,0.4,0,1.8-0.4,2c0,0.9-0.6,1.4-0.3,2.4c0.1,0,0.2,0,0.2,0c-0.2,0.3-0.2,0.6,0.1,0.9
	c0.2,0.2,0.7,0.1,0.7-0.2c0.2-0.3,0.3-0.7,0.2-1c-0.1-0.1-0.3-0.2-0.5-0.1c0.3-0.6,0.1-1.9,0.4-2.4c0.6-1.2,1.5-0.8,2.4-0.8
	c0.1,0.1,0.2,0.1,0.4,0.1c0.2,0.1,0.4,0.2,0.5,0.4c0.5,0.4,1.1,0.8,1.6,1.2c0.1,0.1,0.8,0.2,0.8,0.5c-0.4,0.1-1.1,0.8-0.9,1.3
	c-0.2,1.1,0.8,1.7-0.8,2.3c-0.2,0.1-0.4,0.1-0.6,0.2c-0.1,0.1,0,0.1,0,0.2c0.1-0.1-1.3,0.2-1.7,0.7c0.1,0,0.1,0.1,0.1,0.1
	c-0.3,0-1.2,1-1.3,1.5c0.3,0,0.6-0.1,0.9-0.3c0.3,0,0.8-0.4,0.8-0.4c-0.1,0-0.1-0.1-0.2-0.1c0.1-0.1,0.2-0.2,0.3-0.3c0,0,0,0,0,0
	c0,0,0,0,0.1-0.1c0.2,0.1,1.9-0.4,2.7-0.7c0.3,0,0.6,0,0.8,0c0,0,0-0.1,0-0.1c0.3-0.1,0.5-0.3,0.8-0.4c-0.2-0.3-0.2-0.5,0-0.8
	c-0.3-0.6,0.9-0.2,1-0.2c0,0,0-0.1,0-0.1c0.3,0.3,0.7,0.4,1.1,0.6c0.3,0.2,0.5,0.5,0.5,0.5c0,0.5,0.7,0.8,1.1,1l0.3,0.2
	c0,0.1,0.1,0.2,0.1,0.4c0.3,0.5,0.6,0.7,0.9,0.7l0.2,0.2c0,0.1,0.1,0.2,0.2,0.3c0.3,0.2,0.7,2.9,0.8,2.9c0,0,0.1,0,0.1,0
	c0,0-0.1,0-0.1,0c-0.1,0-0.1,0-0.2,0c-0.6,0.3-0.6,1.5,0.1,1.5c0,0,0,0,0,0c0,0,0,0.1,0,0.1c0.4,0,0.7,0,1-0.3
	c-0.1-0.1-0.1-0.1-0.1-0.2c0,0,0,0,0,0c0-0.3-0.4-0.8,0.2-1.1c0,0-0.1,0-0.1,0c0,0,0.1,0,0.1,0c-0.2-0.3-0.3-2-0.2-1.9
	c0-0.3,0-0.5,0-0.8c-0.1,0.1-0.1-0.1-0.1-0.3c0.1-0.4-0.9-1.8-1.3-2.4c0-0.2,0-0.3,0.2-0.4c0.1-0.1,0-0.2-0.1-0.3l0,0l0.1-0.2
	c0,0,0,0,0,0c0,0.1,0,0.2,0,0.3c0.1-0.1,0.1-0.3,0.3-0.3c0-0.1,0-0.1,0-0.1c0,0,0,0-0.1,0c0.3-0.1,0.5-0.4,0.5-1
	c0.2-0.8,0-1.1-0.3-1.1c0-0.1,0-0.1,0-0.2c0-0.1,0.1-0.1,0.2-0.1c0-0.1,0-0.1,0-0.2c0.1,0,0.2,0,0.2,0c0.8,0,0.7-0.4,1.3-0.4
	c0,0-0.1-0.1-0.1-0.1c0.1,0,0.1,0,0.2,0c0-0.1-0.1-0.2-0.1-0.2c0,0,0,0,0-0.1l0.5-0.4c0,0-0.1,0.2-0.2,0.4c-0.1,0-0.1,0.1-0.2,0.2
	c0,0.1,0,0.1,0,0.2c0,0,0,0,0,0c0,0-0.1,0-0.1,0c0,0.1,0,0.2-0.1,0.3c0,0,0,0.1-0.1,0.2c0,0-0.1,0.1-0.1,0.2c0,0.1-0.1,0.1-0.1,0.2
	c0-0.1,0-0.1-0.1-0.2c0,0.3-0.2,0.7-0.2,1c0,0.5,0.2,0.6,0.4,0.5l0,0.1c0,0-0.1,0-0.1,0c0,0.2,0,0.3,0.1,0.4c0,0,0,0,0,0.1
	c0.5,0,0.3,0.7,0.8,0.7c0.1,0,0.4,0.1,0.6,0.1c0,0.2-0.1,0.4,0.2,0.5c0,0,0-0.1,0.1-0.1c0,0,0,0,0,0.1c-0.1,0.2-0.1,0.3,0,0.4
	c0-0.1,0.1-0.1,0.1-0.1c0,0.1,0.2,0.8,0.5,0.6l0.2,0.1c0.1,0.1,0.2,0.1,0.3,0.1c0.2,0.4,0.4,0.6,0.8,0.7c0.1,0.1,0.2,0.2,0.4,0.2
	c0.2-0.2-0.1-0.5,0.1-0.7C78.5,57.4,79.2,57,79.1,56.9z M72.1,40.9c0.1,0,0.2,0,0.3,0C72.3,41,72.2,41,72.1,40.9
	C72.1,41,72.1,40.9,72.1,40.9z M70.9,46.7C70.9,46.7,70.9,46.7,70.9,46.7C70.9,46.7,70.9,46.7,70.9,46.7
	C70.9,46.7,70.9,46.7,70.9,46.7z M57.4,44.2C57.4,44.2,57.4,44.2,57.4,44.2C57.4,44.2,57.5,44.2,57.4,44.2
	C57.5,44.2,57.5,44.2,57.4,44.2z M77.7,54.7C77.7,54.7,77.7,54.7,77.7,54.7C77.7,54.7,77.7,54.7,77.7,54.7
	C77.7,54.7,77.7,54.7,77.7,54.7z"/>
<g>
	<path fill="#076320" d="M60.2,54.8c-0.3,0.3-0.1,0.3-0.1,0.7C60.3,55.3,60.2,55.1,60.2,54.8z"/>
	<path fill="#076320" d="M58.9,56.4c-0.1-0.1-0.2-0.2-0.1-0.4c-0.1,0-0.1,0-0.2,0l0-0.1c0,0,0,0,0.1,0c0.1-0.2,0-0.3,0-0.3
		c0.2-0.5,0.1-1.5-0.3-1.9c0,0,0,0,0,0c0-0.3-0.3-0.4-0.7-0.6c0.2,0.3,0,0.6,0.2,0.8c0.1-0.2,0-0.3,0.1-0.5c0.1,0.1,0.2,0.1,0.3,0.2
		c-0.1,0-0.2-0.1-0.3-0.1c-0.1,0,0,0.3,0,0.7c0,0,0,0,0-0.1c0,0.2-0.1,0.5,0.1,0.8c0-0.1,0-0.3,0-0.4c0.1,0.4,0.2,0.7,0.3,0.9
		L58,55.9c-0.1-0.4-0.3-0.8-0.5-1.1c-0.4-0.1-0.4,0.1-0.2,0.7c0.1,0.4,0.2,0.8,0.4,0.9c0,0.1,0.1,0.1,0.2,0.2c0,0.2,0,0.4,0,0.4
		c0,0,0,0.1-0.1,0.2c-0.1,0-0.2-0.1-0.2-0.1c0,0.1,0,0.2,0.1,0.3c0,0.1-0.1,0.2-0.1,0.2c0,0,0,0-0.1,0c0.1-0.5-0.1-1.1-0.5-0.9
		c-0.1,0-0.1,0.1-0.1,0.2c0,0,0,0,0,0c0,0.3-0.1,0.7,0.1,1.1c0,0,0,0,0-0.1c0,0.2,0.1,0.3,0.1,0.4v0.1c0,0,0,0.1,0,0.1L56.8,59l0,0
		c-0.1-0.1-0.2-0.1-0.4-0.1c0-0.1,0-0.2,0-0.3c0-0.2,0-0.4-0.1-0.5c-0.7,0.5-0.9,1.2-1,2l-0.2,0.1c0,0,0,0,0,0
		C55,60,54.8,60,54.7,59.9c-0.1,0.1-0.1,0.1-0.1,0.2c0-0.1-0.1-0.2-0.1-0.3c-0.7-0.1-1.3,0.2-1.7,1c0,0,0,0,0,0l-0.6,0.3l-0.5,0.1
		c0.1-0.1,0.2-0.2,0.3-0.3c0.3-0.3,0.6-0.5,0.6-0.6c0.2-0.7-1.2,0.3-2,1c0,0,0,0,0,0c-0.1,0.1-0.2,0.2-0.3,0.3
		c-0.1,0.1-0.1,0.1-0.2,0.2c0,0,0,0,0,0.1l0,0c-0.3-0.1-0.4-0.3-0.7-0.4c-0.6-0.7-2.3-1.6-3-1.9c-0.6-0.5-1.3-1-1.6-1.2
		c-0.1,0.4-0.1,0.7,0.1,0.9c0,0,0,0.1-0.1,0.1c-0.5-0.1-0.9-0.3-0.9-0.3l-0.5-0.3l0,0c0.1,0,0.2-0.1,0.2-0.3c0,0,0,0,0,0
		c0,0,0,0,0,0.1c0.1,0,0.2,0,0.2,0c0.1,0.2,0.2,0.4,0.4,0.4c0-0.4-0.1-0.6-0.3-0.4c0,0,0.1-0.1,0.1-0.2C44,58.3,44,58.1,43.9,58
		c0,0,0,0,0,0c-0.1-0.1-0.1-0.3-0.2-0.4c-0.1-0.5-0.3-0.8-0.7-0.7c0,0,0,0,0,0.1c0,0-0.1,0-0.1,0.1c0,0,0,0,0,0c0-0.1,0-0.2-0.2-0.2
		c0,0,0,0,0,0c0,0,0,0,0,0c0,0,0,0,0,0c0,0,0,0,0,0c0-0.2,0-0.3,0-0.5c0-0.2,0-0.4,0-0.5c0,0.1,0.1,0.1,0.1,0.1c0,0,0,0,0-0.1
		c0.1,0.1,0.2,0.3,0.3,0.4c-0.1-0.4,0-0.8-0.4-1.1c0-0.1,0-0.2,0.1-0.2c-0.4-0.1-0.7,0.1-0.8,0.5c0,0,0,0.1,0,0.1
		c-0.1,0.1-0.2,0.3-0.2,0.6c-0.1,0-0.1-0.1-0.2-0.1c0-0.1,0.1-0.2,0.1-0.3c0,0,0.1,0.1,0.1,0.1c0-0.4,0-1.4,0-1.6
		c-0.1,0.1,0,0.5-0.3,0.5c0,0,0,0,0,0c0,0,0-0.1,0-0.1c0.1-0.5-0.1-1-0.2-1.4c-0.1,0.6-0.5,1.5-0.3,2c0,0,0.1,0,0.1-0.1
		c-0.1,0.3-0.1,0.6,0,0.9c-0.2-0.2-0.3-0.3-0.4-0.4c-0.1,0,0.3,1,0.3,1.1c0,0.2,0.3,0.4,0.2,0.6c-0.6-0.2-1.2-0.4-1.4-0.3
		c0.2,0.2,0.4,0.3,0.5,0.4c0.5,0.5,1.4,1.4,2.2,1.5c0,0,0,0,0,0c0,0,0.3,0.1,0.6,0.2l0.1,0.1c0,0,0,0,0,0c0,0-0.1,0-0.1,0
		c0,0,0,0.1,0,0.1c-0.1,0-0.1,0.1-0.2,0.1c-0.7,0-1.3,0.3-1,0.8c0,0.2-0.1,0.4-0.1,0.4c0.1,0,0.3,0.6,0.3,0.6s0-0.2,0-0.3
		c0,0,0.1,0,0.1,0c0-0.1,0.2-0.8,0.2-0.9c0,0,0,0,0,0c0.2,0,0.4,0,0.7,0c0,0,0,0,0,0c0,0,0.1,0,0.1,0c0,0,0,0,0,0
		c0.1,0.1,0.3,0.1,0.4,0.1c0,0,0,0,0.1,0c0,0,0.1,0,0.2,0c0,0.1,0.1,0.2,0.2,0.1c0.1,0.1,0.4,0,0.5,0c0.1,0,0.7,0.7,0.7,0.7
		c0,0,0.1,0,0.2,0.1c0,0.1,0,0.2,0,0.2c0.1,0,0.2,0,0.3,0c0,0,0,0,0,0c-0.6,0.1-1.1,0.4-1.2,0.6c0.4,0.2,2.5,0.6,3.9,0.6
		c0,0-0.1,0.1-0.1,0.1c0.3,0,0.5,0.1,0.7-0.2c0.1,0,0.2-0.1,0.3-0.1c0.4,0.1,0.7,0.4,1.2,0.4c0-0.1-0.1-0.1-0.1-0.1
		c0.2,0,0.3,0.1,0.3,0.1s0.1,0,0.1,0c0,0,0,0.1-0.1,0.1c0.3,0,0.5-0.1,0.7-0.3c0,0-0.1,0-0.1,0c0.1,0,0.1-0.1,0.2-0.1
		c0,0,0,0.1,0,0.1c0.7-0.2,1.5,0,2.3,0c-0.2-0.2-0.5-0.1-0.6-0.2c0.1,0,0.2,0,0.2-0.1c0.1-0.3-0.1-0.4-0.4-0.3
		c0.1-0.1,0.3-0.5,0.7-0.7c0,0,0.1,0,0.1,0c0.5,0.1,3,0.4,2.6-0.1c-0.3-0.1-0.5-0.1-0.8-0.2c0-0.1-0.1-0.1-0.1-0.1
		c0.2,0,0.4-0.1,0.5-0.1c0,0,0,0,0,0c0.2,0,0.4,0,0.4,0c0-0.3,1-0.3,1.2-0.8c-0.1,0-0.2-0.1-0.3-0.1c0-0.4-0.1-0.5-0.3-0.6
		c0.2,0,0.3-0.1,0.5-0.2c0,0-0.1-0.1-0.1-0.2c0.1-0.1,0.1-0.1,0.2-0.2c0.1,0,0.2,0.1,0.3,0.1c0,0,0,0,0,0c0.1,0.2,0.3,0.2,0.5-0.1
		c0.4-0.1,0.7-0.4,0.8-1c-0.1-0.2-0.2-0.1-0.4-0.1c0.3-0.6,0-0.3-0.2,0c-0.1,0-0.2,0-0.2,0.1c0-0.1-0.1-0.3-0.1-0.3c0,0,0,0.1,0,0.1
		c0-0.1,0-0.2,0-0.3c0.1,0,0.1-0.1,0.1-0.1c-0.1-0.1-0.1-0.1-0.2-0.1c0,0,0,0,0,0c0,0,0.1-0.1,0.1-0.3c0.1,0.1,0.2,0,0.4,0
		c0.7-0.1,1.3-1.2,1.1-1.8C59.6,55.5,59.3,56,58.9,56.4z M41.4,57.7C41.4,57.7,41.4,57.7,41.4,57.7C41.4,57.7,41.4,57.7,41.4,57.7
		C41.4,57.7,41.4,57.7,41.4,57.7z M42.6,60.3c0.1,0,0.2-0.1,0.2-0.1s0,0,0.1,0C42.8,60.2,42.7,60.3,42.6,60.3z M52.6,62.4
		c0,0,0-0.1,0-0.1c0.1,0,0.1,0.1,0.2,0.1C52.7,62.4,52.6,62.4,52.6,62.4z M54.2,60.4C54.3,60.4,54.3,60.4,54.2,60.4
		C54.3,60.4,54.3,60.4,54.2,60.4L54.2,60.4z M56.2,59.5C56.2,59.5,56.2,59.4,56.2,59.5C56.2,59.4,56.2,59.4,56.2,59.5L56.2,59.5z
		 M58.6,57.9C58.6,57.9,58.6,57.9,58.6,57.9C58.5,57.9,58.5,57.9,58.6,57.9C58.5,57.9,58.5,57.9,58.6,57.9
		C58.5,57.9,58.5,57.9,58.6,57.9C58.5,57.9,58.5,57.9,58.6,57.9C58.5,57.9,58.5,57.9,58.6,57.9z"/>
</g>
<g>
	<path fill="#1B1600" d="M49.3,33.3c0-0.1-0.1-0.2-0.1-0.3c0,0,0,0,0,0L49,32.9c0,0,0,0,0,0c0,0,0,0,0,0l-0.5-0.3c0,0-0.1,0-0.1-0.1
		c0,0,0,0,0,0c-0.2-0.1-0.3-0.1-0.5,0c0,0,0,0.1,0,0.1c-0.2-0.2-0.5-0.4-0.7-0.3c0,0.1,0.1,0.2,0.2,0.4c0,0,0,0,0,0
		c-0.1-0.1-0.2-0.1-0.2-0.2c-0.2,0.2-0.2,0.3,0.1,0.3c0,0,0,0,0.1,0c0,0.2,0.1,0.3,0.4,0.4c0,0,0-0.1,0-0.1c0.1,0.1,0.2,0.1,0.3,0.2
		c0,0,0,0,0,0c0,0,0,0,0,0c0,0,0,0,0,0c-0.1,0.4,0,0.9-0.6,1c-0.5,0-0.8,0.3-1,0.7c0,0,0-0.1-0.1-0.1c-0.2-0.2-0.2-0.4-0.5-0.5
		c0,0,0-0.1,0-0.1c-0.1,0-0.2-0.1-0.3-0.2l0.1-0.1c-0.1-0.3-0.1-0.5-0.4-0.6c0,0,0,0.1,0,0s0-0.2,0-0.2c-0.3-0.2-0.5-0.4-0.7,0.1
		c0.1,0.1-0.5,0.1-0.1,0.5c0,0,0.7,3.2,0.8,3.7c0,0.1,0,0.3,0.2,0.4h0c-0.2,0.2,0.2,1.5,0.2,1.5c0-0.1,0.1-0.2,0.1-0.4
		c0,0.2,0.1,0.3,0.2,0.4c-0.3,0.4-0.3,1.6,0.4,1.2c-0.1-0.2,0.1-1,0.1-1.2c0,0,0,0-0.1,0c0.2-0.3,0.2-0.5,0.1-0.9c0,0,0.1,0,0.1,0
		c0-0.1,0.1-0.8,0.1-1.2c0.2,0.4,0.8,1,1.7,1.1c0.1,0.2,0.1,0.3,0.2,0.5c0,0.3,0.1,0.6,0.3,0.8c0.1,0.2,0.3,0.3,0.5,0.2
		c0,0.2,0.2,0.4,0.3,0.4c0.1,0.1,0.1,0.2,0,0.2c0.3,0.3,0.7,0.1,0.9-0.2c0.1,0.3-0.1,0.4-0.4,0.4c0.1,0,0.4,0.9,0.5,0.1
		c0.1,0,0.2,0.1,0.3,0c0-0.2,0-0.3-0.1-0.5c0,0,0,0,0,0c0.2-0.1,0.3-0.2,0.5-0.4c0.3-0.1,0.6-0.2,0.9-0.3c-0.1,0-0.1,0.1-0.2,0.1
		c0.3,0.5,0.7,0.7,1.1,0.8c0,0-0.1,0-0.1,0c0.3,0.2,0.5,0,0.7-0.1c0.1,0,0.1,0,0.2,0c0,0,0-0.1,0-0.1c0.5,0.3,0.8,0.2,1.1-0.3
		c-0.3,0-0.5,0-0.7,0c0.1-0.1,0.1-0.1,0.2-0.2c0.1,0,0.2,0.2,0.2,0c-0.1-0.1-0.2-0.1-0.2-0.2c-0.1-0.4-1.1-0.9-1.2-0.9
		c0,0.2,0,0.3,0,0.4c0,0,0,0,0,0c0,0.1,0,0.1-0.1,0.1c0-0.1,0-0.3,0-0.4c-0.4-0.3-0.8-0.8-1.3-1c0,0.1,0.1,0.3,0.3,0.6
		c-0.1,0-0.2,0-0.2-0.1c0,0,0.1,0,0.1,0c-0.2-0.4-0.5-0.8-0.8-1.2c0.2-0.2,0.4-0.2,0.6,0c0-0.1,0-0.1,0-0.2c0,0,0.1,0.1,0.1,0.2
		c0.2,0.2,0.3,0.3,0.5,0.4c0.1,0.1,0.3,0.2,0.5,0.2c0,0,0,0,0,0c0,0,0,0.1,0,0.1c0.3,0.3,2.2,2.1,2.8,1.5c0,0,0,0,0-0.1c0,0,0,0,0,0
		c0,0,0,0-0.1,0c-0.1-0.2-0.6-0.5-0.9-0.7c0,0,0,0,0.1,0c0,0-0.1-0.1-0.1-0.2c0.3,0.1,0.5,0.1,0.7,0.1c0,0-0.1,0.1-0.1,0.1
		c0.3,0.1,0.4,0,0.2-0.2c0,0,0,0,0,0c-0.2-0.3-1-1-1.1-1c-0.3-0.4-0.7-0.7-1.1-1c0,0,0,0.1,0,0.1c-0.1,0-0.2-0.1-0.4-0.1
		c0,0,0.1,0,0.1,0c-0.1-0.1-0.2-0.3-0.3-0.4c0.1,0,0.1,0.1,0.2,0.1c-0.1-0.3-0.3-0.4-0.5-0.6c-0.5-0.7-1.1-1.5-1.6-1.7
		c-0.4-0.4-0.7-0.6-1.1-0.1c0,0,0,0,0,0c-0.2,0.2-0.2,0.6,0.1,1c-0.1,0.1-0.1,0.2-0.2,0.3c-0.1-0.2,0-0.3-0.1-0.5
		c-0.1,0.1-0.2,0.3-0.2,0.4C49.5,34.5,49.3,33.6,49.3,33.3C49.3,33.3,49.3,33.3,49.3,33.3"/>
	<path fill="#1B1600" d="M54.5,38.3c0.1,0,0.1,0,0.1,0C54.6,38.3,54.6,38.3,54.5,38.3z"/>
</g>
</svg>
