<?xml version="1.0" encoding="utf-8"?>
<!-- Generator: Adobe Illustrator 23.0.0, SVG Export Plug-In . SVG Version: 6.00 Build 0)  -->
<svg version="1.0" id="Layer_1" xmlns="http://www.w3.org/2000/svg" xmlns:xlink="http://www.w3.org/1999/xlink" x="0px" y="0px"
	 width="100px" height="100px" viewBox="0 0 100 100" enable-background="new 0 0 100 100" xml:space="preserve">
<g id="layer1" transform="translate(766.43375,-142.67784)">
	<g id="path136">
		<path fill="#002A86" d="M-766.4,242.7h100v-100h-100V242.7z"/>
	</g>
</g>
<g>
	<path opacity="0.2" enable-background="new    " d="M10.4,74.3V25.8c0-12.1,8.2-22.7,19.8-25.8H0v100h30.2
		C18.5,96.9,10.4,86.3,10.4,74.3z"/>
	<path opacity="0.1" fill="#FFFFFF" enable-background="new    " d="M89.6,25.8v48.5c0,12.1-8.2,22.7-19.8,25.8H100V0H69.8
		C81.5,3.1,89.6,13.7,89.6,25.8z"/>
</g>
<g>
	<path fill="#DAA80D" d="M31.7,61.6c1.1,1.7-0.4,1.6-1.8,1.9c-0.4-1.3-2.1,0.9-1.8-0.6c-0.5-0.2-2.1,0.8-2.4,0
		c0.6-0.6-0.5-0.7-0.3-1.6c0.3-1.1,0.8,0.3,1.2,0.5C28.1,62.4,30.4,60.3,31.7,61.6z"/>
	<path fill="#D9A70D" d="M67.9,62.6c1.3-1.9,2.6,0.2,4.2,0c0.8-0.1,1.8-1.7,2.4-1.1c1.2,0.9-1.4,2.6-2.3,2.1c0,0.2,0.1,0.3,0,0.5
		c-0.8-0.8-2.2-0.5-3-1.3c0,0,0,1-0.4,0.8C68.5,63.5,67.7,63.1,67.9,62.6z"/>
	<g>
		<path fill="#CB0B10" d="M53,64.5c-2.2,1.2-3.5,1-5.6-0.3c-0.9-0.6-2.1-1.9-3.3-2c-1.9-0.1-0.8,1,0,1.8c0.1,0.3,0.3,0.5,0.5,0.5
			l0,0c1.4,1.3,2.9,2,4.7,2.9c0.7,0.2,1.4,0.2,2.1,0c0,0,2.1-0.7,2.2-0.8c1.5-0.6,2.8-1.6,3.3-2.7C58,61.1,53.8,64,53,64.5z"/>
	</g>
	<path fill="#161D1D" d="M44.9,62.2c0.5,0,1.1-0.1,1.6,0.1C46,62.3,45.5,62.3,44.9,62.2C44.9,62.3,44.9,62.2,44.9,62.2z"/>
	<g>
		<path fill="#DAA80D" d="M54.2,62.7c-0.6,0-3.6,0.3-4.4,1.2c-1.5-1.3-5.4-3.2-5.4-1.6c0.4,0.4,0.9,0.6,1.5,0.6
			c0,0.6,0.9,1.7,1.4,1.7c0.1-0.1,0.7-1.2,0.7-1.2c0.1,0,0.2,0.1,0.3,0.1h-0.1c-0.2-0.1-0.3,0-0.3,0.3c0.1,0,0.3,0,0.4,0
			c0.2,0.4,0.8,0.9,1.3,1.1c0,0.1,0,0.1,0,0.2c0.1,0.1,0.2,0.1,0.3-0.1l0,0c0.1,0,0.2,0,0.2,0c0.7,0.4,1.3-0.9,2.1-1
			c0.2,0,0.2,0.9,0.6,0.8c0.7-0.1,1.3-1.1,0.5-1.6l0,0c0.6,0.3,1.4,0.1,2-0.2c0,0,0,0-0.1-0.1c0.1,0,0.2-0.1,0.4-0.1
			c-0.2,0-0.3,0-0.5,0C54.8,62.6,54.6,62.7,54.2,62.7z"/>
		<path fill="#DAA80D" d="M55.6,62.8c0.5-0.1,0.9,0,1.4,0C56.5,62.6,56.1,62.6,55.6,62.8z"/>
	</g>
	<g>
		<path fill="#CB0B10" d="M33,63.9L33,63.9L33,63.9z"/>
	</g>
	<g>
		<path fill="#CB0B10" d="M70.3,64.2c-0.4-0.4-0.9-0.7-1.3-0.6c-0.1,0-0.1,0-0.2-0.1c-0.5,0,0.2-1.1,0.4-1.5c0.3-0.6,0.7-0.4,0.3-1
			c-0.3-0.4-1.6-0.4-1.8-0.1c-0.4,0.5,0.2,0.6,0.3,0.8c-0.1,0-0.1,0-0.2-0.1c0.1,0.1,0.1,0.2,0.1,0.3c-0.3,0.3-0.9,0.6-0.8,0.5
			c0,0.1,0,0.1,0,0.1s0-0.1-0.1-0.1c-0.1,0.2-1.1,0.6-2.4,0.9c-1.3,0.3-1.7,1-3.2,0.9s-2.9-0.7-4.4-0.5c-0.3,0.7,1,1.4,2.2,1.8
			c0.1,0.1,0.3,0.2,0.5,0.2c0.4,0.1,0.8,0.2,1,0.2c1,0.2,5.9-1.2,5.9-0.7l0,0c0.3,0.2,0.5,0,0.6-0.1c0,0,0,0,0.1,0
			c0.2,0,0.4,0.1,0.5-0.1c0.4-0.1,0.8-0.2,1-0.3v-0.1c0.1,0,0.2-0.2,0.3-0.2c0.4,0.3,1.1,0.5,1.5,0.6c-0.3,0-0.5,0-0.8-0.2
			c0.3,0.4,0.5,0.4,0.9,0.2h0.1C71,64.6,70.8,64.3,70.3,64.2z"/>
	</g>
	<g>
		<path fill="#DAA80D" d="M41.3,62.6C41.3,62.6,41.3,62.7,41.3,62.6c-0.2,0.1-0.5,0-0.8-0.2c-0.1-0.1-0.2-0.2-0.3-0.1
			c0,0.1,0,0.3,0.1,0.4c0,0.1,0,0.1-0.1,0.1c-0.5-0.1-1.2-0.3-1.4-0.2l0,0c-0.6-0.6-1.6-1.4-0.9-2.4c-0.1,0.1-0.1,0.3,0,0.6
			c0.1,1,1.5,1.2,2.1,0.7c1.2-0.9-0.1-4.6-1.2-3.5c0,0.8,2.9,2.8,0.4,3c-0.2,0-0.4-0.1-0.3-0.2c0.2-0.1,0.3-0.2,0.5-0.3
			c0-0.1,0-0.2-0.2-0.3c0-0.1-0.1-0.2-0.2-0.3h0.1c-0.8-0.8-2.4,0.6-2.4,1.5c0,0.2,0.1,0.5,0.3,0.7c0.1,0.9,0.8,1.4,2,1.5
			c0,0,0.1,0,0.1-0.1h0.1c0.2,0.1,0.4,0.1,0.6,0.1c0.9,0.1,1.2,0.1,1.5,0h0.1c0.6,0.1,1.6-0.1,1.9-0.1c0-0.1,0-0.1,0,0
			c0.1,0,0.2,0,0.4,0C43.2,62.5,42.3,62.1,41.3,62.6z"/>
		<path fill="#DAA80D" d="M36.9,58.3C36.9,58.3,37,58.3,36.9,58.3C37,58.3,37,58.3,36.9,58.3c0.7,0,1.3,0,1.9,0v-0.1
			c0,0,0,0-0.1-0.1c0,0,0,0,0.1,0c0-3-7.7,1.6-6.1,2.3c0.1,0,0.2-0.1,0.3-0.2c-0.1,0.1-0.1,0.3,0,0.4c0.1,0.1,0.1,0.2,0.2,0.3
			c0-0.1,0.1-0.2,0.1-0.3c0,0.1,0,0.1,0,0.2h0.1c0.1,0.4,0.7-0.8,0.7-0.8c-0.1,1.2,1,1.7,1,0.3c0.3-0.1,0.7,0.2,0.9-0.2
			c-0.5-0.5-0.4-1.1,0-1.6c0.1-0.1,0.2-0.1,0.3-0.1C36.5,58.4,36.8,58.5,36.9,58.3L36.9,58.3z M33.4,60.3L33.4,60.3L33.4,60.3
			L33.4,60.3z"/>
	</g>
	<g>
		<path fill="#DAA80D" d="M67.1,59.7c-0.4-0.7-2.2-1.5-2.9-1.8c-1.9-0.8-3.8-0.4-4.7,1.6c-0.3,0.8,0,1.9,0.6,2.4l0,0
			c0,0.1,0.1,0.1,0.3,0.2c0.1,0,0.1,0.1,0.2,0.1c0.3,0.1,0.4,0.1,0.6,0l0,0c0.2-0.1,0.3-0.2,0.5-0.4s0.2-0.3,0.2-0.5
			c0.1,0,0.2,0.1,0.2,0.2c0.1,0,0.1,0.2,0.1,0.5c0,0.5-0.6,0.9-1,1.1c0-0.3-2.6-0.2-3.5,0.1c-0.1,0-0.4,0.2-0.5,0.2
			c0-0.1-0.3-0.1-0.2,0.1c-0.1,0.1-0.1,0.1-0.2,0.2c0.1,0.1,0.1,0.1,0.2,0.1c0,0,0,0,0,0.1c0.6,0.3,2.2-0.3,2.6-0.1
			c-0.2,0-0.3,0-0.2,0.2c1.3,0.3,3-0.5,3.5-1.6c-0.1,0.2-0.1,0.4-0.1,0.4c0.4-0.2,0.4-0.5,0.5-0.8c0-0.3,0.1-0.6-0.1-0.8
			c0,0.2,0,0.4-0.1,0.7c0.1-0.6-0.2-1.1-0.9-1.7C62,60.1,61.9,60,61.8,60c0.1,0,0.2,0,0.3,0c-0.2-0.2-0.4-0.2-0.5-0.1
			c-0.4-0.1-0.3,0.1-0.2,0.4c-0.1,0-0.2,0-0.3,0c0,0.1,0,0.1,0,0.1c-0.2,0.1-0.4,0.2-0.5,0.6c0,0,0.1,0.1,0.2,0.1
			c-0.1,0-0.1,0-0.2,0l-0.1,0.1c-1-0.4-0.4-1.9,0.4-2.4c0.3-0.2,0.5-0.3,0.7-0.4c0.3,0.1,0.6,0.1,1,0.1c0.1,0,0.1,0,0.2,0.1
			c0.5,0.2,0.8,0.4,0.9,0.6c-0.1,0.6,0,1.2,0.2,1.7l0,0c0.1,0.3,0.4,0.2,0.6,0.3c-0.1,0.1-0.3,0.3-0.3,0.4c0.2,0.9,1.4-0.2,1.6-0.4
			c0,0.1,0,0.1,0.1,0.2c0,0,0.1,0.1,0.1,0.2v-0.1c0.2,0.1,0.4-0.2,0.6,0c0.1-0.1,0.1-0.1,0.1-0.2c0,0.1,0.1,0.2,0.1,0.3
			C67.1,61.6,67.4,60.1,67.1,59.7z"/>
	</g>
	<g>
		<path fill="#076320" d="M42,61.1c0-0.2,0-0.4-0.1-0.6"/>
		<path fill="#076320" d="M45.6,60.9L45.6,60.9C45.5,60.9,45.5,60.9,45.6,60.9c-0.1,0-0.1,0-0.2,0l0,0c-0.1-0.1-0.2-0.1-0.4-0.1
			c0,0.2-0.4,0.2-0.2,0.5c0.3,0,0.6,0.1,0.8-0.2c0,0,0-0.1-0.1-0.1l0,0v0.1h0.1C45.7,61.1,45.6,61,45.6,60.9L45.6,60.9z"/>
		<path fill="#076320" d="M45.1,60.6c0,0,0.4,0.3,0.5,0.3c0-0.3,0-0.3-0.2-0.5C45.4,60.5,45.3,60.6,45.1,60.6z"/>
	</g>
	<g>
		<path fill="#404040" d="M74,52.9c-0.1,0.2-0.1,0.4-0.1,0.6L74,52.9z"/>
	</g>
	<g>
		<path fill="#404040" d="M28,39.3L28,39.3L28,39.3z"/>
	</g>
</g>
<path fill="#404040" d="M79.1,56.9c-0.2,0-0.4,0-0.6,0.1l0.1-0.2c0,0-0.3,0-0.5-0.1c0-0.1,0-0.2,0-0.3l0,0c0.1-0.2,0.1-0.4,0.1-0.6
	l0,0c0.1-0.3-0.1-0.6-0.2-0.8c0.2-0.6,0.1-0.9-0.3-0.9c-0.1,0-0.1,0.1-0.1,0.3c0-0.1,0-0.1,0-0.2c0,0,0.1,0,0.1-0.1
	s-0.1-0.2-0.1-0.3l0,0c-0.2-0.5-0.8-1-1.2-1.4l-0.1,0.1l-0.1-0.1v-0.1l0,0c0-0.7-0.8-2-1-2.1l0,0l0,0c-0.1-0.1-0.2-0.1-0.3,0h-0.6
	l0,0c0-0.1,0-0.1,0-0.2c-0.4,0.1-1.1,1-1.1,1.2l0,0c-0.1,0.1-0.2,0.3-0.3,0.4h-0.1l0,0c-0.1-0.1-0.2-0.1-0.3-0.2v-0.1h-0.1
	c0-0.1-0.2-0.3-0.4-0.3v0.1c0-0.1-0.1-0.2-0.3-0.4l0,0c-0.1-0.1-0.2-0.2-0.6-0.4c-0.3-0.1-1.5-0.8-1.9-0.9c0-0.1,0-0.2-0.1-0.3
	c-0.1-0.2-0.1-0.4-0.3-0.4v-0.1c0-0.1,0-0.1,0-0.2c0.2,0,0.3-0.3,0.4-0.3c0.1-0.2,0-0.3-0.2-0.4l0,0c0.1,0,0.2,0,0.3,0.2
	c0-0.1,0-0.1,0.1-0.2c-0.1,0.3-0.1,0.5,0,0.7c0.4,0,1.7-1.1,1.7-1.5c0.1,0,0-0.3,0.1-0.5c-0.1,0-0.1,0-0.1,0.1
	c0.1-0.3,0.4-0.2,0.4-0.2c0,0.3,0.1,0.5,0.1,0.6c0.2-0.1,1-3.9,1-4.2c-0.1,0,0.3-0.9-0.3-1.2c0.2,0.1,0.4,0.2,0.6,0.3
	c0.1-0.1-0.5-0.4,0-0.5c0-0.2-0.1-0.6-0.3-0.7l0.1-0.1c-0.1-0.1-0.2-0.2-0.3-0.3c-0.1,0.2-0.8,0-0.6-0.1c-0.2,0-0.4,0.1-0.5-0.1
	c-0.1,0-0.2,0-0.2,0c0.1,0,0.2,0,0.3-0.1l0,0c0.5,0.4,0.9-0.7,0.2-0.2c-0.3,0-0.4-0.1-0.6-0.3c-0.4-0.5-0.8-0.3-1.3-0.1
	c-0.1-0.2-0.3-0.5-0.4-0.5l-0.1,0.1c0-0.1,0-0.1,0-0.1c-0.1,0-0.1-0.2-0.3-0.1c0,0.3,0.1,0.6,0.2,0.9c0,0,0,0-0.1,0
	c0,0.2-0.6-1.6-1.1-0.2c0,0,0,0.1,0.1,0.1c-0.1,0-0.2,0-0.3,0c-0.2-0.1-0.5-0.1-0.7-0.2c-0.1,0.2-0.1,0.2-0.1,0.3
	c-0.3,0.2-0.3,0.7,0.3,0.9c0,0.2-0.3,0.1-0.4,0.3c-0.8,0.2-1.9,1.2-2,1.5c0.1,0.4,0.3,0.6,0.7,0.5c0,0,0,0,0.1,0
	c0.1,0.2,1,0.3,1.2,0.2c0.3,0.1,1.1,0.2,1.2,0.2c-0.3,0.3-0.7,0.3-1,0.4l0,0h-0.1l0,0c0,0-0.2,0.1-0.4,0.1l0,0
	c-0.6,0-1.2,0.2-1.7,0.5l0,0L64,44.6l0,0l0,0l-0.4,0.3l0,0c-0.2,0-0.3,0.1-0.4,0.2c-0.1,0.1-0.2,0.3-0.3,0.5
	c-0.2-0.3-1.8-1.3-2.2-1.5c0,0.1-2,0-2,0c-0.6,0-2.4,0-2.1,0.3c0.1,0.2,0.4,0.2,0.6,0.1c0,0.1,0,0.1,0.1,0.2c-0.1,0-0.3,0.1-0.4,0.2
	c0.2,0.1,0.5,0.1,0.8,0.1c0.7,0.2,2.7,0.8,2.9,0.7l0,0c0.1,0.1,0.2,0.2,0.2,0.3c0.1,0.3,0.1,0.1,0.3,0.1c0,0.5,0.2,1.4,0.5,1.8
	c-0.5,0.3-0.3,0.3-0.4,0.2c0,0-0.5,0.2-1,0.4l0,0c-0.3-0.1-0.5,0.1-0.7,0.2c0,0,0,0,0,0.1c-0.1,0-0.1,0-0.1,0c-0.3,0.4,0,1.8-0.4,2
	c0,0.9-0.6,1.4-0.3,2.4c0.1,0,0.2,0,0.2,0c-0.2,0.3-0.2,0.6,0.1,0.9c0.2,0.2,0.7,0.1,0.7-0.2c0.2-0.3,0.3-0.7,0.2-1
	c-0.1-0.1-0.3-0.2-0.5-0.1c0.3-0.6,0.1-1.9,0.4-2.4c0.6-1.2,1.5-0.8,2.4-0.8c0.1,0.1,0.2,0.1,0.4,0.1c0.2,0.1,0.4,0.2,0.5,0.4
	c0.5,0.4,1.1,0.8,1.6,1.2c0.1,0.1,0.8,0.2,0.8,0.5c-0.4,0.1-1.1,0.8-0.9,1.3c-0.2,1.1,0.8,1.7-0.8,2.3c-0.2,0.1-0.4,0.1-0.6,0.2
	c-0.1,0.1,0,0.1,0,0.2c0.1-0.1-1.3,0.2-1.7,0.7c0.1,0,0.1,0.1,0.1,0.1c-0.3,0-1.2,1-1.3,1.5c0.3,0,0.6-0.1,0.9-0.3
	c0.3,0,0.8-0.4,0.8-0.4c-0.1,0-0.1-0.1-0.2-0.1c0.1-0.1,0.2-0.2,0.3-0.3l0,0c0,0,0,0,0.1-0.1c0.2,0.1,1.9-0.4,2.7-0.7
	c0.3,0,0.6,0,0.8,0v-0.1c0.3-0.1,0.5-0.3,0.8-0.4c-0.2-0.3-0.2-0.5,0-0.8c-0.3-0.6,0.9-0.2,1-0.2v-0.1c0.3,0.3,0.7,0.4,1.1,0.6
	c0.3,0.2,0.5,0.5,0.5,0.5c0,0.5,0.7,0.8,1.1,1l0.3,0.2c0,0.1,0.1,0.2,0.1,0.4c0.3,0.5,0.6,0.7,0.9,0.7l0.2,0.2
	c0,0.1,0.1,0.2,0.2,0.3c0.3,0.2,0.7,2.9,0.8,2.9h0.1h-0.1c-0.1,0-0.1,0-0.2,0c-0.6,0.3-0.6,1.5,0.1,1.5l0,0V63c0.4,0,0.7,0,1-0.3
	c-0.1-0.1-0.1-0.1-0.1-0.2l0,0c0-0.3-0.4-0.8,0.2-1.1h-0.1h0.1c-0.2-0.3-0.3-2-0.2-1.9c0-0.3,0-0.5,0-0.8c-0.1,0.1-0.1-0.1-0.1-0.3
	c0.1-0.4-0.9-1.8-1.3-2.4c0-0.2,0-0.3,0.2-0.4c0.1-0.1,0-0.2-0.1-0.3l0,0l0.1-0.2l0,0c0,0.1,0,0.2,0,0.3c0.1-0.1,0.1-0.3,0.3-0.3
	c0-0.1,0-0.1,0-0.1s0,0-0.1,0c0.3-0.1,0.5-0.4,0.5-1c0.2-0.8,0-1.1-0.3-1.1c0-0.1,0-0.1,0-0.2c0-0.1,0.1-0.1,0.2-0.1
	c0-0.1,0-0.1,0-0.2c0.1,0,0.2,0,0.2,0c0.8,0,0.7-0.4,1.3-0.4l-0.1-0.1c0.1,0,0.1,0,0.2,0c0-0.1-0.1-0.2-0.1-0.2s0,0,0-0.1l0.5-0.4
	c0,0-0.1,0.2-0.2,0.4c-0.1,0-0.1,0.1-0.2,0.2c0,0.1,0,0.1,0,0.2l0,0h-0.1c0,0.1,0,0.2-0.1,0.3c0,0,0,0.1-0.1,0.2
	c0,0-0.1,0.1-0.1,0.2c0,0.1-0.1,0.1-0.1,0.2c0-0.1,0-0.1-0.1-0.2c0,0.3-0.2,0.7-0.2,1c0,0.5,0.2,0.6,0.4,0.5v0.1H74
	c0,0.2,0,0.3,0.1,0.4c0,0,0,0,0,0.1c0.5,0,0.3,0.7,0.8,0.7c0.1,0,0.4,0.1,0.6,0.1c0,0.2-0.1,0.4,0.2,0.5c0,0,0-0.1,0.1-0.1
	c0,0,0,0,0,0.1c-0.1,0.2-0.1,0.3,0,0.4c0-0.1,0.1-0.1,0.1-0.1c0,0.1,0.2,0.8,0.5,0.6l0.2,0.1c0.1,0.1,0.2,0.1,0.3,0.1
	c0.2,0.4,0.4,0.6,0.8,0.7c0.1,0.1,0.2,0.2,0.4,0.2c0.2-0.2-0.1-0.5,0.1-0.7C78.5,57.4,79.2,57,79.1,56.9z M70.9,46.7L70.9,46.7
	L70.9,46.7L70.9,46.7z M77.7,54.7L77.7,54.7L77.7,54.7L77.7,54.7z"/>
<g>
	<path fill="#076320" d="M58.9,56.4c-0.1-0.1-0.2-0.8-0.2-0.8c0.2-0.5,0.1-1.5-0.3-1.9l0,0c0-0.3-0.3-0.4-0.7-0.6
		c0.2,0.3,0,0.6,0.2,0.8c0.1-0.2,0.1-0.1,0.1,0.3c0,0,0,0,0-0.1c0,0.2-0.1,0.5,0.1,0.8c0-0.1,0-0.3,0-0.4c0.1,0.4,0.2,0.7,0.3,0.9
		L58,55.9c-0.1-0.4-0.3-0.8-0.5-1.1c-0.4-0.1-0.4,0.1-0.2,0.7c0.1,0.4,0.2,0.8,0.4,0.9c0,0.1,0.1,0.1,0.2,0.2c0,0.2,0,0.4,0,0.4
		s0,0.1-0.1,0.2c-0.1,0-0.2-0.1-0.2-0.1c0,0.1,0,0.2,0.1,0.3c0,0.1-0.1,0.2-0.1,0.2s0,0-0.1,0c0.1-0.5-0.1-1.1-0.5-0.9
		c-0.1,0-0.1,0.1-0.1,0.2l0,0c0,0.3-0.1,0.7,0.1,1.1c0,0,0,0,0-0.1c0,0.2-0.2,1.1-0.2,1.1l0,0c-0.1-0.1-0.3-0.2-0.5-0.2
		c0-0.1,0.1-0.1,0.1-0.2c0-0.2,0-0.4-0.1-0.5c-0.7,0.5-0.9,1.2-1,2l-0.2,0.1l0,0C55,60,54.8,60,54.7,59.9c-0.1,0.1-0.1,0.1-0.1,0.2
		c0-0.1-0.1-0.2-0.1-0.3c-0.7-0.1-1.3,0.2-1.7,1l0,0l-0.6,0.3l-0.5,0.1c0.1-0.1,0.2-0.2,0.3-0.3c0.3-0.3,0.6-0.5,0.6-0.6
		c0.2-0.7-1.2,0.3-2,1l0,0c-0.1,0.1-0.2,0.2-0.3,0.3s-0.1,0.1-0.2,0.2c0,0,0,0,0,0.1l0,0c-0.3-0.1-0.4-0.3-0.7-0.4
		c-0.6-0.7-2.3-1.6-3-1.9c-0.6-0.5-1.3-1-1.6-1.2c-0.1,0.4-0.1,0.7,0.1,0.9c0,0,0,0.1-0.1,0.1c-0.5-0.1-0.9-0.3-0.9-0.3l-0.5-0.3
		l0,0c0.1,0,0.2-0.1,0.2-0.3l0,0c0,0,0,0,0,0.1c0.1,0,0.2,0,0.2,0c0.1,0.2,0.2,0.4,0.4,0.4c0-0.4-0.1-0.6-0.3-0.4
		c0,0,0.1-0.1,0.1-0.2c0-0.1,0-0.3-0.1-0.4l0,0c-0.1-0.1-0.1-0.3-0.2-0.4c-0.1-0.5-0.3-0.8-0.7-0.7c0,0,0,0,0,0.1c0,0-0.1,0-0.1,0.1
		l0,0c0-0.1,0-0.2-0.2-0.2l0,0l0,0l0,0l0,0c0-0.2,0-0.3,0-0.5s0-0.4,0-0.5c0,0.1,0.1,0.1,0.1,0.1s0,0,0-0.1c0.1,0.1,0.2,0.3,0.3,0.4
		c-0.1-0.4,0-0.8-0.4-1.1c0-0.1,0-0.2,0.1-0.2c-0.4-0.1-0.7,0.1-0.8,0.5v0.1c-0.1,0.1-0.2,0.3-0.2,0.6c-0.1,0-0.1-0.1-0.2-0.1
		c0-0.1,0.1-0.2,0.1-0.3l0.1,0.1c0-0.4,0-1.4,0-1.6c-0.1,0.1,0,0.5-0.3,0.5l0,0v-0.1c0.1-0.5-0.1-1-0.2-1.4c-0.1,0.6-0.5,1.5-0.3,2
		c0,0,0.1,0,0.1-0.1c-0.1,0.3-0.1,0.6,0,0.9c-0.2-0.2-0.3-0.3-0.4-0.4c-0.1,0,0.3,1,0.3,1.1c0,0.2,0.3,0.4,0.2,0.6
		c-0.6-0.2-1.2-0.4-1.4-0.3c0.2,0.2,0.4,0.3,0.5,0.4c0.5,0.5,1.4,1.4,2.2,1.5l0,0c0,0,0.3,0.1,0.6,0.2l0.1,0.1l0,0h-0.1v0.1
		c-0.1,0-0.1,0.1-0.2,0.1c-0.7,0-1.3,0.3-1,0.8c0,0.2-0.1,0.4-0.1,0.4c0.1,0,0.3,0.6,0.3,0.6s0-0.2,0-0.3h0.1c0-0.1,0.2-0.8,0.2-0.9
		l0,0c0.2,0,0.4,0,0.7,0l0,0h0.1l0,0c0.1,0.1,0.3,0.1,0.4,0.1c0,0,0,0,0.1,0c0,0,0.1,0,0.2,0c0,0.1,0.1,0.2,0.2,0.1
		c0.1,0.1,0.4,0,0.5,0s0.7,0.7,0.7,0.7s0.1,0,0.2,0.1c0,0.1,0,0.2,0,0.2c0.1,0,0.2,0,0.3,0l0,0c-0.6,0.1-1.1,0.4-1.2,0.6
		c0.4,0.2,2.5,0.6,3.9,0.6l-0.1,0.1c0.3,0,0.5,0.1,0.7-0.2c0.1,0,0.2-0.1,0.3-0.1c0.4,0.1,0.7,0.4,1.2,0.4c0-0.1-0.1-0.1-0.1-0.1
		c0.2,0,0.3,0.1,0.3,0.1h0.1c0,0,0,0.1-0.1,0.1c0.3,0,0.5-0.1,0.7-0.3h-0.1c0.1,0,0.1-0.1,0.2-0.1v0.1c0.7-0.2,1.5,0,2.3,0
		c-0.2-0.2-0.5-0.1-0.6-0.2c0.1,0,0.2,0,0.2-0.1c0.1-0.3-0.1-0.4-0.4-0.3c0.1-0.1,0.3-0.5,0.7-0.7h0.1c0.5,0.1,3,0.4,2.6-0.1
		C56.2,61,56,61,55.7,60.9c0-0.1-0.1-0.1-0.1-0.1c0.2,0,0.4-0.1,0.5-0.1l0,0c0.2,0,0.4,0,0.4,0c0-0.3,1-0.3,1.2-0.8
		c-0.1,0-0.2-0.1-0.3-0.1c0-0.4-0.1-0.5-0.3-0.6c0.2,0,0.3-0.1,0.5-0.2c0,0-0.1-0.1-0.1-0.2c0.1-0.1,0.1-0.1,0.2-0.2
		c0.1,0,0.2,0.1,0.3,0.1l0,0c0.1,0.2,0.3,0.2,0.5-0.1c0.4-0.1,0.7-0.4,0.8-1c-0.1-0.2-0.2-0.1-0.4-0.1c0.3-0.6,0-0.3-0.2,0
		c-0.1,0-0.2,0-0.2,0.1c0-0.1-0.1-0.4-0.1-0.5c0.1,0,0.1-0.1,0.1-0.1c-0.1-0.1-0.1-0.1-0.2-0.1l0,0c0,0,0.1-0.1,0.1-0.3
		c0.1,0.1,0.2,0,0.4,0c0.7-0.1,1.3-1.2,1.1-1.8C59.6,55.5,59.3,56,58.9,56.4z M41.4,57.7L41.4,57.7L41.4,57.7L41.4,57.7z"/>
</g>
<g>
	<path fill="#1B1600" d="M49.3,33.3c0-0.1-0.1-0.2-0.1-0.3l0,0L49,32.9l0,0l0,0l-0.5-0.3c0,0-0.1,0-0.1-0.1l0,0
		c-0.2-0.1-0.3-0.1-0.5,0v0.1c-0.2-0.2-0.5-0.4-0.7-0.3c0,0.1,0.1,0.2,0.2,0.4l0,0c-0.1-0.1-0.2-0.1-0.2-0.2
		c-0.2,0.2-0.2,0.3,0.1,0.3c0,0,0,0,0.1,0c0,0.2,0.1,0.3,0.4,0.4v-0.1c0.1,0.1,0.2,0.1,0.3,0.2l0,0l0,0l0,0c-0.1,0.4,0,0.9-0.6,1
		c-0.5,0-0.8,0.3-1,0.7c0,0,0-0.1-0.1-0.1c-0.2-0.2-0.2-0.4-0.5-0.5v-0.1c-0.1,0-0.2-0.1-0.3-0.2l0.1-0.1c-0.1-0.3-0.1-0.5-0.4-0.6
		c0,0,0,0.1,0,0s0-0.2,0-0.2c-0.3-0.2-0.5-0.4-0.7,0.1c0.1,0.1-0.5,0.1-0.1,0.5c0,0,0.7,3.2,0.8,3.7c0,0.1,0,0.3,0.2,0.4l0,0
		c-0.2,0.2,0.2,1.5,0.2,1.5c0-0.1,0.1-0.2,0.1-0.4c0,0.2,0.1,0.3,0.2,0.4c-0.3,0.4-0.3,1.6,0.4,1.2c-0.1-0.2,0.1-1,0.1-1.2
		c0,0,0,0-0.1,0c0.2-0.3,0.2-0.5,0.1-0.9h0.1c0-0.1,0.1-0.8,0.1-1.2c0.2,0.4,0.8,1,1.7,1.1c0.1,0.2,0.1,0.3,0.2,0.5
		c0,0.3,0.1,0.6,0.3,0.8c0.1,0.2,0.3,0.3,0.5,0.2c0,0.2,0.2,0.4,0.3,0.4c0.1,0.1,0.1,0.2,0,0.2c0.3,0.3,0.7,0.1,0.9-0.2
		c0.1,0.3-0.1,0.4-0.4,0.4c0.1,0,0.4,0.9,0.5,0.1c0.1,0,0.2,0.1,0.3,0c0-0.2,0-0.3-0.1-0.5l0,0c0.2-0.1,0.3-0.2,0.5-0.4
		c0.3-0.1,0.6-0.2,0.9-0.3c-0.1,0-0.1,0.1-0.2,0.1c0.3,0.5,0.7,0.7,1.1,0.8h-0.1c0.3,0.2,0.5,0,0.7-0.1c0.1,0,0.1,0,0.2,0v-0.1
		c0.5,0.3,0.8,0.2,1.1-0.3c-0.3,0-0.5,0-0.7,0c0.1-0.1,0.1-0.1,0.2-0.2c0.1,0,0.2,0.2,0.2,0c-0.1-0.1-0.2-0.1-0.2-0.2
		c-0.1-0.4-2.1-1.6-2.6-1.8c0,0.1,0.1,0.3,0.3,0.6c-0.1,0-0.2,0-0.2-0.1h0.1c-0.2-0.4-0.5-0.8-0.8-1.2c0.2-0.2,0.4-0.2,0.6,0
		c0-0.1,0-0.1,0-0.2c0,0,0.1,0.1,0.1,0.2c0.2,0.2,0.3,0.3,0.5,0.4c0.1,0.1,0.3,0.2,0.5,0.2l0,0v0.1c0.3,0.3,2.2,2.1,2.8,1.5
		c0,0,0,0,0-0.1l0,0c0,0,0,0-0.1,0c-0.1-0.2-0.6-0.5-0.9-0.7c0,0,0,0,0.1,0c0,0-0.1-0.1-0.1-0.2c0.3,0.1,0.5,0.1,0.7,0.1l-0.1,0.1
		c0.3,0.1,0.4,0,0.2-0.2l0,0c-0.2-0.3-1-1-1.1-1c-0.3-0.4-0.7-0.7-1.1-1v0.1c-0.1,0-0.2-0.1-0.4-0.1h0.1c-0.1-0.1-0.2-0.3-0.3-0.4
		c0.1,0,0.1,0.1,0.2,0.1c-0.1-0.3-0.3-0.4-0.5-0.6c-0.5-0.7-1.1-1.5-1.6-1.7c-0.4-0.4-0.7-0.6-1.1-0.1l0,0c-0.2,0.2-0.2,0.6,0.1,1
		c-0.1,0.1-0.1,0.2-0.2,0.3c-0.1-0.2,0-0.3-0.1-0.5c-0.1,0.1-0.2,0.3-0.2,0.4C49.5,34.5,49.3,33.6,49.3,33.3L49.3,33.3"/>
</g>
<path fill="#CB0B10" d="M42.2,63.6c-0.4,0.1-0.8,0.1-1.1,0.1c-0.6,0-1.3,0-2.1-0.1c-1.9-0.3-3.4-1.2-5.3-2.6
	c-0.5-0.4-2.5-1.7-2.7-0.3c-0.1,0.6,0.5,1.2,1.2,1.4c0,0.1,0,0.2,0,0.3l0.1,0.1c-0.1,0-0.4,0.5-0.5,0.8l-0.3,0l0,0
	c-0.5,0.1-1.2,0.8-1.6,1.3c-0.2,0-0.4,0-0.6,0c0.1,0.2,0.2,0.2,0.2,0.2c0,0.1,0,0.3,0.1,0.3c0.1,0,1.2-0.1,1.2-0.1s0.1-0.1,0.1-0.2
	c0.2-0.1,0.4-0.2,0.5-0.3c0.1,0,0.2,0.1,0.4,0.1c0.3,0.3,0.9,0.7,1.4,0.7c0.2,0.1,0.3,0.2,0.4,0.4c0.2-0.2,0.1-0.3,0.1-0.5
	c0,0-0.1-0.6-0.2-0.6c0,0-0.3-0.1-0.5-0.3c-0.1-0.1-0.2-0.2-0.3-0.2c0,0,0,0,0,0l0.1-0.1c0.1,0,0.1,0,0.2-0.2c0,0,0,0,0,0l0.1-0.1
	v-0.1c0.1-0.1,0-0.3,0.1-0.4l0.5,0.2c0.1,0.1,0.3,0.2,0.4,0.4c0.2,0.3,0.7,0.8,0.9,1c0.4,0.3,2.3,1.1,3,1.2c0.6,0,1.8-0.2,2.3-0.4
	s1.6-1.1,1.6-1.1s0.1-0.2,0.2-0.4C42.2,63.9,42.4,63.6,42.2,63.6z"/>
<path fill="#404040" d="M44,44.2L43.7,44l-2.6-0.2c-0.4,0-0.7-0.1-0.8-0.1c-0.1,0-0.1-0.1-0.2-0.1c-0.2-0.1-0.4-0.1-0.5,0
	c0,0-0.1,0-0.1,0c-0.3,0.2-0.4,0.5-0.5,0.4c-0.6,0.3-1.2,1-1.7,1.5c-0.2-0.2-0.3-0.4-0.5-0.5c-0.1,0-0.2,0-0.3,0v0.1
	c-0.3-0.3-0.5-0.4-0.7-0.4c0,0.1-0.1,0.2-0.2,0.2c0.1-0.6-0.4-0.6-0.4-0.8c-0.2-0.6-1-0.9-1.6-0.8c0-0.1,0-0.2-0.1-0.4
	c-0.1,0.1-0.1,0.1-0.2,0.2c0-0.1,0-0.2-0.1-0.2c0.1,0,0.3,0,0.3,0c0.8,0,0.6,0.1,0.6-0.4c0.1,0,0.4,0,0.7,0c0-0.2,0-0.4-0.1-0.6
	c0.2,0.1,0.1-0.1,0.2-0.1c0-0.2-0.2-0.3-0.3-0.3c0-0.1,0-0.2,0-0.3c-0.1,0-0.2,0-0.3-0.1c-0.2-0.1-0.3-0.1-0.4-0.1
	c-0.2,0-0.3-0.1-0.5-0.2l0.1-0.1c-0.1,0-0.3,0-0.4-0.1c0.1-0.2,0.1-0.3,0-0.5c0.1,0,0.2,0,0.3-0.1C33.2,40,33.1,39.9,33,40
	c-0.1-0.1-1-0.7-1-0.7c-0.1-0.1-0.2-0.2-0.3-0.2c0-0.1,0.1-0.3,0.1-0.4c-0.5,0-0.9,0.5-0.8,0.3c-0.2-0.2,0.3-0.4-0.2-0.4
	c-0.3,0.2-0.7,0.7-0.7,0.6c-0.4-0.4-0.7-0.4-1.1,0h-0.1c-0.2,0.3-0.7,0.4-0.7,0.4c0.1,0.1-0.6,0.3-0.8,0.4c-0.1,0.1-0.3,0.1-0.3,0.3
	c-0.3,0.3,0,0.2,0,0.4c0.1,0,0.1,0,0.2,0c-0.1,0.1-0.2,0.1-0.3,0.2h-0.1c0,0.2,0,0.3,0.1,0.4c-0.3,0.2-0.4,0.5-0.1,0.8
	c0,0,0.1,0.1,0,0.1c0,0.1-0.2,0.2-0.1,0.4c0,1.6,0,0.2,0.4,0.6c0-0.1,0,0.9-0.1,1.1c0-0.1,0.2-0.2,0.3-0.2c0.1-0.1,0.5,2.7,0.8,2.6
	c0.1-0.1,0.4,0,0.4-0.1c0,0.3,0.2,0.7,0.2,0.8c0.1-0.1,0.4,0.1,0.5,0.2c0.1,0.1,0.5,0.6,0.7,0.7c0.4-0.2,0.2,0,0.2-0.9
	c0-0.2,0-0.3,0-0.5c0-0.1,0.1-0.2,0.1-0.4c0,0.3,0.1,0.6,0.1,0.9c0,0,0,0.1,0,0.1c0,0.2,0.1,0.3,0.2,0.4c0,0,0.1,0.1,0,0.1
	c0,0.2,0.2,0.3,0.4,0.4c0-0.2-0.1-0.5-0.1-0.7c0-0.1,0.1,0.5,0.2,0.7c-0.1,0.1-0.1,0.3-0.2,0.4c0.1,0.2,0.2,0.3,0.2,0.4
	c-0.2-0.1-0.3-0.2-0.4-0.2c-0.2,0.2-0.2,0.4-0.2,0.7c-0.8-0.5-2.6,0.5-2.8,1.5c0.1,0.1-0.4,0-0.5,0.1c-0.1,0.1-0.2,0.3-0.2,0.4
	c-0.2,0-0.6-0.8-0.8-0.9c0,0.1,0,0.1,0,0.2c0-0.1-0.1-0.2-0.1-0.3c0-0.1,0-0.2-0.1-0.4c-0.1,0-0.2,0-0.3,0c-0.4-0.4-0.6-0.1-0.7-0.2
	c-0.1,0-0.2,0-0.3,0.1c0,0,0,0,0-0.1c-0.4,0.1-0.6,0.3-0.8,0.6c0.1,0.1,0.2,0.1,0.4,0c0,0.1-0.1,0.1-0.1,0.2c-0.1,0-0.3,0.1-0.4,0.3
	l0.1,0.1c0,0.1,0,0.2,0.1,0.2c-0.1,0.4-0.1,0.7,0,0.9c-0.1,0.1-0.2,0.1-0.2,0.2c0-0.1-1.4,0.8-1.7,1.5c-0.2,0.2-0.6,1.8-0.4,2.3h0.1
	c0,0.1-0.1,0.2-0.1,0.2c0,0.1-0.1,0.1-0.1,0.2c-0.2,0.1-0.5,0.2-0.8,0.2c0.1,0,0.3,0.2,0.4,0.4c0.1,0.2-0.1,0.6,0.2,0.7
	c0.1-0.1,1.3-0.8,1.3-0.8h0.1c0.2,0,1-0.4,1-0.7c0.1,0.1,0.1,0,0.2-0.2c0.1-0.3,0.1-1.7,0.1-1.8l0.3-0.3c0,0.2,0,0.4,0.1,0.4
	l0.1,0.1c0,0,0,0,0,0.1c0.1,0.1,0.1,0.5,0.3,0.6c0.5-0.1,0.5-0.4,0.3-0.5c0,0,0,0,0.1,0c0.1-0.1,0.1-0.1,0.1-0.2
	c0.4-0.3,0.2-0.7,0.4-0.6c0.2-0.1,0.2-0.3,0.2-0.5s0-0.4,0-0.5s0-0.2-0.2-0.4c0-0.1-0.1-0.2-0.2-0.2l-0.1,0.1c0-0.3-0.1-0.6-0.1-0.7
	c0.1,0.1,0.2,0.1,0.3,0c0.1,0.1,0.3,0.1,0.5,0c0,0,0,0.1-0.1,0.2c0.3,0,0.4,0.5,0.8,0.1l0.1,0.1c0.1-0.1-0.1,0.1-0.1,0.3
	c-0.1,0.8,0,1.6,0.5,2.3c0,0,0,0.3,0.1,0.4c0.2,0,0.1,0.4,0.1,0.7c-0.1,0.2-0.2,0.5-0.2,0.7c-0.1,0.1-0.1,0.1-0.2,0.2
	c-0.2,0-0.4,0.1-0.6,0.4c0,0,0,0-0.1,0c-0.4,0.4,0,2-0.1,2.6c0.1,0,0,0.6,0,0.7c0,0.7,0.5,1.2,0.4,1.3c0.7,0.6,1.3,0.7,1.8,0.2
	c-0.1-0.2-0.3-0.4-0.3-0.7c-0.1-0.1-0.2-0.2-0.3-0.3c0,0-0.3-1.5-0.5-1.7c-0.1,0-0.1-0.3-0.1-0.4c0-0.1,0-0.2,0-0.2
	c0-0.1,2.4-2.3,2.4-3c0.2,0.1,0.4-0.1,0.4-0.2c0.2-0.1,0.3-0.4,0.6-0.5c0,0.1,0,0.1,0,0.2c0.1,0.1,1.4-0.4,1.4-0.4
	c0.1-0.1,0.1-0.1,0.2-0.3c0.4,0.2,1,0.5,1,1.5c0.3,0.2,0.4,0.2,0.5,0.1v0.1c0.4,0,0.7,0,1.1-0.1c0,0.3,0.3,0.4,0.7,0.2v-0.1
	c0.2,0,0.6,0.3,1.3,0.6c0.2,0.3,0.4,0.4,0.5,0.5l1,0.4h0.1c0,0.1,0.1,0.3,0.2,0.4c0.3-0.1,0.6,0.1,0.8-0.2c-0.2-0.6-0.6-0.8-0.8-0.7
	c-0.1-0.3,0.2-0.1,0.3-0.2c-0.3-0.1-0.4-0.5-0.7-0.6c0,0,0,0.1-0.1,0.2l-0.1-0.1c0-0.6-0.5-1.3-1.3-0.9v0.1
	c-0.3-0.2-0.5-0.2-0.6-0.1c-0.1,0-0.2-0.1-0.3-0.1c-0.2-0.7-1-3.5-1.7-3.7c0.3,0,1.1-0.8,1.3-1c0.5,0.2,1.1-1.2,1.4-1.3
	c-1.5,0-1.2-0.1-1-0.2c0-0.1,3.2,0.2,3.5,0.5c0.7,0.3,0.5,1.9,0.8,2.8c-0.3,0.3-0.6,1.2,0.1,1.3c0.9,0.2,1-0.8,0.7-1.4
	c-0.1,0,0-1.6,0-1.5c-0.1-0.1-0.2-0.4-0.3-0.5c-0.1,0.1-0.2-1.5-0.3-1.7c-0.1,0-0.2,0-0.3,0c-0.1-0.4-0.7-0.3-0.7-0.4
	c-0.7-0.1-0.9,0-1.3,0c0.1-0.1,0.3-0.3,0.5-0.3c-0.1-0.2-0.2-0.3-0.4-0.5c0.3-0.7,1.2-2.3,1.2-2.2c0.1,0,0.2-0.2,0.3-0.3
	c0,0,0.2-0.1,0.3-0.3l3.8,0.3c0.2,0,0.3-0.1,0.3-0.2c0.2,0,0.3-0.1,0.3-0.5C44.3,44.3,44.1,44.2,44,44.2z M30.3,46.4
	c0-0.1-0.1-0.3-0.4-0.3V46c0,0,0,0-0.1,0c0.1-0.2-0.1-0.8-0.4-0.4c0,0,0,0,0-0.1c-0.1,0-0.1,0.1-0.2,0.1c0-0.2,0-0.3-0.1-0.4
	c-0.2,0.3-0.1-0.3-0.3-0.3c0,0,0.3-0.2,0.2-0.3c0.2-0.3-0.1-0.3-0.2-0.3c0,0,0-0.2-0.1-0.2c-0.1-0.2-0.1-0.3-0.3-0.3
	c0-0.1,0-0.2,0.1-0.3c-0.1-0.1-0.2-0.2-0.2-0.2c0-0.1,0-0.2,0-0.2c0-0.2,0-0.5,0.2-0.6c0.2,0.4,1,2.5,1.8,3.6
	C30.3,46.2,30.3,46.3,30.3,46.4z"/>
<path fill="#DAA80D" d="M59.4,47.9c-0.1-0.3-0.5-0.9-0.8-1.1c0-0.1,0-0.1,0-0.2c0.1-0.6-0.4-1.2-0.9-1.4c0,0,0.3-0.7-1.3-0.7
	c-0.1-0.1-0.1-0.2-0.2-0.2v-0.1c-0.1,0-0.8-1.2-0.9-1.3c-0.4-0.5-1-0.7-1.4-1.1c0-0.1-0.1-0.2-0.1-0.2s0,0-0.1,0
	c0.1-0.1,0.1-0.2,0.1-0.3c0-0.1-0.1-0.2-0.2-0.3c-0.3-0.2-0.7-0.3-0.9-0.2c0,0,0,0,0,0c-0.1-0.1-0.2-0.2-0.6-0.2
	c-0.2-0.1-0.5-0.1-0.7,0c0.1,0,0.1,0,0.2,0h0.1c-0.1,0-0.1,0.1-0.2,0.1c0,0-1.7-0.2-2-0.5c-1.5-0.1-1.6,0-1.3,0.2
	c-0.1,0-0.2,0.1-0.2,0.1c-0.2,0-0.4,0.1-0.5,0.2c-0.1,0.2-1.2,0.3-1.2,0.6c0,0.2,0,0.3,0,0.3c-1,0.4-2.1,1.2-2.7,2.1l-1.1,1.1
	c-1.2,0.3-3.3,4.7-1.5,4.6c-0.4,0.8,0,2.6,1.3,2.4c0.1,0.1,0.1,0.2,0.2,0.2c-0.1,0.3,0,0.4,0.3,0.3c0.1,0.1,0.2,0.2,0.2,0.2
	c0.8,0.1,0.3,0.6,0.5,1c-0.1-0.3,0.3,1.2,0.3,0.9c0,0.4-0.4,1.3,0.3,1.7c-0.9,0.4,1.5,2.8,2.2,2.8v-0.1c2.5,0.1,4.3,2,6.9,0.3
	c0-0.1,0-0.1-0.1-0.1c0.6,0.1,1.7-0.4,1.9-0.8C55,58,55,57.8,54.9,57.8c-0.1,0,0-0.1,0.1-0.2c0.4,0.5,1.2,0.7,1.2-1.2
	c0.1,0,0.1-0.1,0-0.2h0.1c0.1-0.1,0.1-0.1,0.1-0.1c0.1-0.1,0.2-0.1,0.2-0.3c-0.2-0.3-0.4-0.6-0.6-0.9c0-0.2,0.2-0.4,0.3-0.5
	c0.1,0.3,0.2-0.2,0.2-0.7c0.2,0.2,0.5,0.3,0.1,0.6c0.9,0,0.3-0.5,0-0.8c0-0.2,0-0.3-0.1-0.1c0.1-0.2,0-0.9,0.2-1.2
	c0.2,0.2,0.7,0.4,0.8,0.2c-0.1-0.1-0.2-0.2-0.3-0.3c0.1,0,0.2,0.1,0.4,0.2c0.1-0.1,0.1-0.2,0.1-0.3c0.1,0.1,0.3,0.1,0.3,0.1
	C59,52,59.6,48.5,59.4,47.9z"/>
</svg>
