<?xml version="1.0" encoding="utf-8"?>
<!-- Generator: Adobe Illustrator 23.0.0, SVG Export Plug-In . SVG Version: 6.00 Build 0)  -->
<svg version="1.0" id="Layer_1" xmlns="http://www.w3.org/2000/svg" xmlns:xlink="http://www.w3.org/1999/xlink" x="0px" y="0px"
	 viewBox="0 0 100 100" enable-background="new 0 0 100 100" xml:space="preserve">
<rect fill="#FFFFFF" width="100" height="100"/>
<g>
	<g>
		<path fill="#FEC500" d="M49.5,37.6c0,0-0.1,14.6-0.1,15.6c0,1.1,0,2.5-1.2,2.3c-1.2-0.3-2.6-0.3-4.7-1.7c-2.1-1.5-2.1-1.7-2.1-1.7
			l2-0.7c0,0-2-0.4-3.3-1.3c-1.3-0.9-2.3-1.7-2.3-1.7s-0.1,2,0.5,3.4c0.7,1.5,2,2.8,2,2.8v-1.7c0,0,1.8,1.7,2.5,2.1
			c0.7,0.4,3.3,1.5,4.3,2.1c1,0.7,3.1,2.5,3.1,2.5s1.8-2.1,3.1-2.7c1.3-0.5,3-1.3,3.8-1.9c0.8-0.5,2.9-2.5,2.9-2.5v2.3
			c0,0,1.4-1.7,1.8-2.9c0.4-1.2,0.5-3.3,0.5-3.3s-1,0.8-2,1.2c-0.9,0.4-3.5,1.5-3.5,1.5l2.1,0.5c0,0-3.4,2.7-4.6,3.2
			c-1.2,0.5-3.6,0.8-3.6-0.5s0.1-16.8,0.1-16.8L49.5,37.6L49.5,37.6z M49.6,32.6h0.9v4h-0.9V32.6z"/>
		<path fill="#FEC500" d="M43.1,36.6c0,0,3.6-0.8,7-0.8s6.9,0.8,6.9,0.8v1.5c0,0-4.7,0.7-7.4,0.7S43,37.9,43,37.9L43.1,36.6z"/>
		<g>
			<path fill-rule="evenodd" clip-rule="evenodd" fill="#FEC500" d="M51.4,36c0,0.9-0.6,1.6-1.4,1.6c-0.8,0-1.4-0.7-1.4-1.6
				s0.6-1.6,1.4-1.6C50.8,34.4,51.4,35.1,51.4,36z M52.1,35.9c0,1.2-0.9,2.2-2.1,2.2s-2.1-1-2.1-2.2s0.9-2.2,2.1-2.2
				S52.1,34.7,52.1,35.9z"/>
			<path fill="#FFFFFF" d="M62.2,48.5c0,0-1,0.8-1.9,1.2s-3.5,1.4-3.5,1.5l-0.3,0.1l2.2,0.6c-0.7,0.5-3.4,2.6-4.4,3.1
				c-0.8,0.4-2.5,0.6-3.2,0.2c-0.2-0.1-0.3-0.4-0.3-0.6c0-1.1,0.1-11.9,0.1-15.6c2.7-0.1,6.1-0.6,6.2-0.6h0.1v-1.6h-0.1
				c0,0-2.3-0.5-4.9-0.7c0-1-0.7-1.8-1.6-2.1v-1.2h-1.1v1.1c-1,0.2-1.7,1.1-1.7,2.2c-2.5,0.2-4.7,0.7-4.7,0.7H43L42.9,38H43
				c0,0,3.7,0.8,6.4,0.8c0,3.6-0.1,13.5-0.1,14.4c0,0.7,0,1.7-0.4,2.1c-0.2,0.1-0.4,0.2-0.6,0.1c-0.2-0.1-0.5-0.1-0.7-0.1
				c-1-0.2-2.3-0.4-4-1.6c-1.5-1-1.9-1.4-2-1.6l2.2-0.7l-0.3-0.1c0,0-1.9-0.4-3.2-1.3C39,49.1,38,48.3,38,48.3l-0.1-0.1v0.2
				c0,0.1-0.1,2,0.5,3.5c0.7,1.5,2,2.8,2,2.8l0.2,0.2V53c0.5,0.4,1.8,1.7,2.3,2c0.3,0.2,0.9,0.5,1.6,0.8c1,0.4,2.1,1,2.7,1.3
				c1,0.6,3.1,2.5,3.1,2.5l0.1,0.1l0.1-0.1c0,0,1.8-2.1,3.1-2.6s3-1.3,3.8-1.9c0.7-0.4,2.2-1.9,2.7-2.4V55l0.2-0.2
				c0.1-0.1,1.4-1.8,1.8-2.9c0.4-1.2,0.5-3.3,0.5-3.3v-0.2L62.2,48.5z M56.9,38c-0.5,0.1-3.6,0.5-6.1,0.6c0-0.3,0-0.5,0-0.6
				c0.7-0.3,1.3-1.1,1.3-2c2.3,0.2,4.4,0.6,4.8,0.7V38z M48.6,36c0,0.6,0.3,1.2,0.8,1.5l0,0v0.1c0,0,0,0.1,0,0.3
				c-0.8-0.3-1.3-1-1.4-1.9C48.2,36,48.4,36,48.6,36z M50.1,34.5c0.1,0,0.2,0,0.4,0.1v1.2c-0.1,0-0.2,0-0.3,0s-0.3,0-0.4,0v-1.2
				C49.8,34.5,49.9,34.5,50.1,34.5z M49.7,34.3v-0.5c0.1,0,0.2,0,0.3,0s0.3,0,0.4,0v0.5c-0.1,0-0.2-0.1-0.4-0.1
				C49.9,34.3,49.8,34.3,49.7,34.3z M50.6,34.6c0.4,0.2,0.7,0.6,0.7,1.2c-0.2,0-0.5,0-0.7,0V34.6z M49.5,35.7c-0.2,0-0.5,0-0.7,0
				c0.1-0.5,0.3-0.9,0.7-1.2V35.7z M49.5,35.9h1.1c0.2,0,0.5,0,0.7,0l0,0c0,0.8-0.6,1.5-1.3,1.5s-1.3-0.7-1.3-1.5l0,0
				C49,35.9,49.3,35.9,49.5,35.9z M52,36c0,0.8-0.5,1.5-1.1,1.8c0-0.1,0-0.2,0-0.2v-0.1h-0.1c0.5-0.3,0.8-0.8,0.8-1.5
				C51.7,36,51.8,36,52,36z M52,35.8c-0.2,0-0.3,0-0.5,0c-0.1-0.6-0.4-1.1-0.9-1.4v-0.5C51.4,34.2,51.9,34.9,52,35.8z M49.7,32.7
				h0.7v0.9c-0.1,0-0.3,0-0.4,0c-0.1,0-0.2,0-0.3,0V32.7z M49.5,33.9v0.5c-0.5,0.2-0.8,0.8-0.9,1.4c-0.2,0-0.4,0-0.6,0
				C48,34.9,48.7,34.1,49.5,33.9z M43.1,37.9l0.1-1.2c0.4-0.1,2.4-0.5,4.6-0.7c0.1,1,0.7,1.8,1.6,2.1c0,0.2,0,0.4,0,0.6
				C46.9,38.6,43.6,38,43.1,37.9z M61.6,51.8c-0.3,0.9-1.3,2.2-1.6,2.7v-2.2l-0.2,0.1c0,0-2.1,2-2.8,2.5c-0.8,0.5-2.5,1.3-3.8,1.8
				c-1.2,0.5-2.8,2.2-3.1,2.6C49.7,59,48,57.4,47,56.8c-0.6-0.4-1.7-0.9-2.7-1.4c-0.7-0.3-1.3-0.6-1.6-0.8c-0.6-0.4-2.4-2.1-2.5-2.1
				L40,52.4v1.7c-0.4-0.4-1.3-1.5-1.8-2.6c-0.5-1.2-0.5-2.7-0.5-3.2c0.3,0.2,1.2,0.9,2.2,1.6c1,0.7,2.4,1.1,3,1.3l-1.7,0.6V52
				c0,0.2,0.8,0.9,2.1,1.8c1.7,1.2,3,1.4,4,1.6c0.2,0,0.5,0.1,0.7,0.1c0.3,0.1,0.6,0,0.8-0.1c0.5-0.4,0.5-1.4,0.5-2.2
				c0-0.9,0.1-10.8,0.1-14.4l0,0c0.3,0,0.7,0,1.1,0c0,3.7-0.1,14.5-0.1,15.6c0,0.3,0.1,0.6,0.4,0.8c0.8,0.5,2.5,0.2,3.3-0.2
				c1.2-0.5,4.4-3.1,4.6-3.2l0.1-0.1l-2-0.5c0.7-0.3,2.5-1,3.3-1.4c0.7-0.3,1.5-0.8,1.8-1.1C62.1,49.3,61.9,50.9,61.6,51.8z"/>
		</g>
	</g>
	<g>
		<g>
			<path fill="#003271" d="M62,61.3c0,0-1.7,1.6-3.4,1.8s-4.4,1-4.4,1s-0.1,2.4,0,2.6s0.1,0.3,0.4,0.3c0.8,0,2.7,0,4.8-0.5
				c2.7-0.6,5.4-2.3,5.4-2.3c-0.6-0.3-2.1-0.5-3.1-0.7L62,61.3z M57,65.1c0.2,0.5-2.7,0.9-2.7,1.7 M38,61.3c0,0,1.7,1.6,3.4,1.8
				s4.4,1,4.4,1s0.1,2.4,0,2.6S45.7,67,45.4,67c-0.8,0-2.7,0-4.8-0.5c-2.7-0.6-5.4-2.3-5.4-2.3c0.6-0.3,2.1-0.5,3.1-0.7L38,61.3z
				 M43,65.1c-0.2,0.5,2.7,0.9,2.7,1.7"/>
			<path fill="#FFFFFF" d="M55.2,67.2c-0.2,0-0.4,0-0.6,0c-0.3,0-0.3-0.1-0.4-0.3c-0.1-0.2,0-2.4,0-2.7c0,0,0,0,0-0.1
				c0,0,2.7-0.8,4.4-1s3.4-1.8,3.4-1.8s0,0,0.1,0c0,0,0,0,0,0.1l-0.3,2.2c0.4,0.1,0.8,0.2,1.2,0.3c0.7,0.1,1.5,0.3,1.9,0.5
				c0,0,0,0,0,0.1c0,0,0,0,0,0.1c0,0-2.7,1.7-5.4,2.3C57.8,67.1,56.2,67.2,55.2,67.2z M54.3,66.8c0.1,0.2,0.1,0.2,0.3,0.2
				c0.7,0,2.7,0,4.8-0.5c2.4-0.6,4.8-1.9,5.3-2.2c-0.4-0.1-1.1-0.3-1.7-0.4c-0.4-0.1-0.9-0.2-1.2-0.3c0,0-0.1,0,0-0.1l0.3-2.1
				c-0.4,0.4-1.9,1.5-3.3,1.7c-1.6,0.2-4,0.9-4.3,1c0,0.7,0,1.8,0,2.3c0.2-0.3,0.9-0.6,1.5-0.8c0.5-0.2,1.2-0.4,1.1-0.6h0.1
				c0.1,0.3-0.5,0.5-1.2,0.8C55.2,66.1,54.3,66.4,54.3,66.8z M44.8,67.2c-0.9,0-2.5-0.1-4.2-0.5c-2.7-0.6-5.4-2.3-5.4-2.3s0,0,0-0.1
				c0,0,0,0,0-0.1c0.4-0.2,1.2-0.3,1.9-0.5c0.4-0.1,0.8-0.2,1.2-0.3L38,61.2v-0.1h0.1c0,0,1.7,1.6,3.4,1.8s4.3,1,4.4,1
				c0,0,0,0,0,0.1c0,0.3,0.1,2.5,0,2.7S45.7,67,45.5,67C45.2,67.1,45,67.2,44.8,67.2z M35.3,64.4c0.5,0.3,2.9,1.7,5.3,2.2
				c2.1,0.5,4,0.5,4.8,0.5c0.2,0,0.2,0,0.3-0.2c0-0.4-0.8-0.7-1.5-0.9c-0.7-0.3-1.3-0.5-1.2-0.8h0.1c-0.1,0.2,0.6,0.4,1.1,0.6
				c0.6,0.2,1.3,0.5,1.5,0.8c0-0.5,0-1.6,0-2.3c-0.3-0.1-2.8-0.8-4.3-1c-1.4-0.2-2.9-1.4-3.3-1.7l0.3,2.1v0.1
				c-0.4,0.1-0.8,0.2-1.2,0.3C36.4,64.1,35.7,64.2,35.3,64.4z"/>
		</g>
		<g>
			<path fill="#003271" d="M43.5,65c-0.3-0.1-0.5,0.1-0.5,0.1v-4.2c0,0,0.2-0.2,0.5,0c1.1,0.5,4,1.5,6.5,1.5s5.4-1,6.5-1.5
				c0.3-0.1,0.5,0,0.5,0v4.2c0,0-0.2-0.2-0.5-0.1c-1.2,0.4-4.3,1.3-6.5,1.3S44.7,65.4,43.5,65L43.5,65z"/>
			<path fill="#FFFFFF" d="M50,66.3c-1.9,0-4.6-0.7-6.5-1.3l0,0c-0.3-0.1-0.4,0.1-0.4,0.1s0,0-0.1,0c0,0,0,0,0-0.1v-4.2l0,0
				c0,0,0.2-0.2,0.6,0c1.2,0.5,4,1.5,6.5,1.5c2.4,0,5.3-1,6.5-1.5c0.4-0.2,0.6,0,0.6,0l0,0V65c0,0,0,0,0,0.1h-0.1
				c0,0-0.2-0.2-0.4-0.1C54.6,65.6,51.9,66.3,50,66.3z M43.5,64.9c1.9,0.6,4.6,1.3,6.5,1.3c1.5,0,3.8-0.5,6.5-1.3
				c0.2-0.1,0.3,0,0.4,0v-4.1c-0.1,0-0.2-0.1-0.4,0c-1.2,0.5-4.1,1.5-6.5,1.5s-5.3-1-6.5-1.5c-0.2-0.1-0.4,0-0.4,0V65
				C43.2,64.9,43.3,64.9,43.5,64.9L43.5,64.9z"/>
		</g>
	</g>
	<g>
		<polygon fill="#FEC500" points="52.1,25.8 54.7,23.6 51.3,23.4 50,20.2 48.7,23.4 45.3,23.6 47.9,25.8 47.1,29.1 50,27.4 
			52.9,29.1 		"/>
		<polygon fill="#FEC500" points="60.7,30 62.5,32.9 63.3,29.6 66.6,28.9 63.7,27.1 64,23.7 61.4,25.9 58.3,24.5 59.6,27.7 
			57.3,30.2 		"/>
		<polygon fill="#FEC500" points="69,37.3 69.2,40.7 71.4,38.2 74.7,39.1 73,36.1 74.9,33.3 71.5,34 69.4,31.3 69,34.7 65.9,36 		
			"/>
		<polygon fill="#FEC500" points="70.8,45 72.9,47.7 71.5,50.8 74.7,49.6 77.2,51.9 77,48.5 80,46.8 76.7,45.9 76.1,42.6 74.2,45.4 
					"/>
		<polygon fill="#FEC500" points="76.7,55.6 73.8,57.2 70.9,55.3 71.6,58.6 68.9,60.7 72.3,61.1 73.4,64.3 74.9,61.3 78.3,61.2 
			75.8,58.8 		"/>
		<polygon fill="#FEC500" points="67.9,67.5 66.3,64.5 65.3,67.7 61.9,68.3 64.7,70.3 64.3,73.6 67,71.6 70,73.1 68.9,69.8 
			71.3,67.4 		"/>
		<polygon fill="#FEC500" points="57.9,70.4 55.5,72.8 52.3,71.8 53.8,74.8 51.9,77.6 55.2,77 57.2,79.8 57.8,76.4 61,75.3 
			57.9,73.8 		"/>
		<polygon fill="#FEC500" points="36.7,29.6 37.5,32.9 39.3,30 42.7,30.2 40.4,27.7 41.7,24.5 38.6,25.9 36,23.7 36.3,27.1 
			33.4,28.9 		"/>
		<polygon fill="#FEC500" points="25.3,39.1 28.6,38.2 30.8,40.7 31,37.3 34.1,36 31,34.7 30.6,31.3 28.5,34 25.1,33.3 27,36.1 		
			"/>
		<polygon fill="#FEC500" points="22.8,51.9 25.3,49.6 28.5,50.8 27.1,47.7 29.2,45 25.8,45.4 23.9,42.6 23.3,45.9 20,46.8 23,48.5 
					"/>
		<polygon fill="#FEC500" points="28.4,58.6 29.1,55.3 26.2,57.2 23.3,55.6 24.2,58.8 21.7,61.2 25.1,61.3 26.6,64.3 27.7,61.1 
			31.1,60.7 		"/>
		<polygon fill="#FEC500" points="34.7,67.7 33.7,64.5 32.1,67.5 28.7,67.4 31.1,69.8 30,73.1 33,71.6 35.7,73.6 35.3,70.3 
			38.1,68.3 		"/>
		<polygon fill="#FEC500" points="47.7,71.8 44.5,72.8 42.1,70.4 42.1,73.8 39,75.3 42.2,76.4 42.8,79.8 44.8,77 48.1,77.6 
			46.2,74.8 		"/>
	</g>
	<g>
		<path fill="#FEC500" d="M54,63.8v-1.4l1-0.3l1-0.3v0.6l-0.7,0.2l-0.7,0.2v0.6l0.5-0.1l0.5-0.1v0.6l-0.5,0.1L54.6,64v0.5l0.7-0.2
			l0.7-0.2v0.6L55,65l-1,0.3V63.8L54,63.8z M52,63.9c0.2-0.1,0.4-0.2,0.3-0.4c0-0.1-0.3-0.2-0.6-0.2h-0.2V64h0.2
			C51.9,63.9,52,63.9,52,63.9L52,63.9z M50.9,64.3v-1.4h0.5c0.6,0,0.7,0,1,0c0.4,0.1,0.7,0.3,0.7,0.7c0,0.2-0.1,0.4-0.3,0.6
			c-0.2,0.2-0.5,0.3-1,0.4h-0.2v1.1h-0.3H51v-1.4H50.9z M48.6,65.1c0.1,0,0.2-0.2,0.2-0.3c0.1-0.3,0.1-0.8,0-1.1
			c-0.1-0.2-0.3-0.3-0.5-0.2s-0.2,0.4-0.2,0.8c0,0.5,0.1,0.7,0.3,0.8C48.5,65.2,48.6,65.2,48.6,65.1L48.6,65.1z M48.3,65.7
			c-0.3-0.1-0.6-0.3-0.7-0.6c-0.1-0.2-0.2-0.5-0.2-0.9s0-0.6,0.2-0.9c0.2-0.4,0.6-0.5,1.1-0.5s0.8,0.4,0.9,0.9c0,0.2,0,0.6,0,0.8
			c-0.1,0.5-0.3,0.9-0.7,1C48.7,65.7,48.5,65.7,48.3,65.7L48.3,65.7z M44,63.3v-1.4l0.3,0.1l0.3,0.1v1.1l0.4,0.1l0.4,0.1v-1.1
			l0.3,0.1l0.3,0.1v2.8l-0.3-0.1l-0.3-0.1V64L45,63.9l-0.4-0.1v1.1l-0.3-0.1L44,64.7V63.3L44,63.3z"/>
	</g>
</g>
<g>
	<path opacity="0.2" enable-background="new    " d="M10.4,74.3V25.8c0-12.1,8.2-22.7,19.8-25.8H0v100h30.2
		C18.5,96.9,10.4,86.3,10.4,74.3z"/>
	<path opacity="0.1" fill="#FFFFFF" enable-background="new    " d="M89.6,25.8v48.5c0,12.1-8.2,22.7-19.8,25.8H100V0H69.8
		C81.5,3.1,89.6,13.7,89.6,25.8z"/>
</g>
</svg>
