<?xml version="1.0" encoding="utf-8"?>
<!-- Generator: Adobe Illustrator 23.0.0, SVG Export Plug-In . SVG Version: 6.00 Build 0)  -->
<svg version="1.0" id="Layer_1" xmlns="http://www.w3.org/2000/svg" xmlns:xlink="http://www.w3.org/1999/xlink" x="0px" y="0px"
	 viewBox="0 0 100 100" enable-background="new 0 0 100 100" xml:space="preserve">
<g>
	<rect fill="#0074A8" width="100" height="100"/>
</g>
<g id="text1">
	<g id="south_dakota">
		<g>
			<path fill="#FFC400" d="M33,38.4l0.4-0.6c0.2,0.1,0.3,0.1,0.5,0.1s0.3-0.2,0.5-0.4c0.1-0.2,0.2-0.3,0.2-0.4c0-0.1,0-0.2-0.2-0.3
				s-0.5,0-1,0.4l0,0c0,0,0,0-0.1,0c-0.3,0.2-0.5,0.3-0.6,0.4c-0.1,0-0.3,0.1-0.4,0c-0.1,0-0.3-0.1-0.4-0.2
				c-0.3-0.2-0.4-0.5-0.4-0.8s0.1-0.6,0.4-1c0.3-0.3,0.5-0.5,0.8-0.6c0.3-0.1,0.6,0,0.9,0.2l-0.4,0.5c-0.1-0.1-0.3-0.1-0.4-0.1
				s-0.3,0.1-0.4,0.3c-0.1,0.1-0.2,0.3-0.2,0.4c0,0.1,0,0.2,0.2,0.3c0.1,0.1,0.4,0,0.7-0.2c0.1-0.1,0.2-0.1,0.2-0.2
				c0.2-0.2,0.4-0.3,0.5-0.3c0.1-0.1,0.2-0.1,0.3-0.1C34,36,34.2,36,34.3,36s0.3,0.1,0.4,0.2c0.3,0.2,0.4,0.5,0.4,0.8
				s-0.1,0.6-0.4,1c-0.3,0.3-0.6,0.6-0.9,0.6C33.6,38.7,33.3,38.6,33,38.4"/>
		</g>
		<g>
			<path fill="#FFC400" d="M34.7,35.2c-0.4-0.4-0.6-0.9-0.5-1.3c0-0.5,0.2-0.9,0.6-1.2c0.4-0.3,0.8-0.5,1.3-0.5s0.9,0.3,1.2,0.7
				c0.4,0.4,0.6,0.9,0.5,1.3c0,0.5-0.2,0.9-0.6,1.2c-0.4,0.3-0.8,0.5-1.3,0.5C35.5,35.9,35.1,35.6,34.7,35.2 M35.2,34.7
				c0.3,0.3,0.5,0.5,0.8,0.5s0.5,0,0.7-0.2s0.3-0.4,0.3-0.7s-0.1-0.6-0.4-0.8c-0.3-0.3-0.5-0.5-0.8-0.5s-0.5,0-0.8,0.2
				c-0.2,0.2-0.3,0.4-0.3,0.7C34.8,34.1,35,34.4,35.2,34.7"/>
		</g>
		<g>
			<path fill="#FFC400" d="M37.1,30.9l0.6-0.4l1.1,1.9c0.1,0.2,0.3,0.4,0.4,0.4c0.2,0.1,0.3,0,0.5-0.1s0.3-0.3,0.3-0.4
				c0-0.2,0-0.4-0.2-0.6l-1.1-1.9l0.6-0.4l1.2,1.9c0.2,0.4,0.3,0.7,0.2,1s-0.3,0.6-0.7,0.8s-0.7,0.3-1.1,0.2
				c-0.3-0.1-0.6-0.3-0.8-0.7L37.1,30.9"/>
		</g>
		<g>
			<path fill="#FFC400" d="M42.6,31.9l-1.1-2.7l-1,0.4L40.3,29l2.6-1l0.2,0.6l-1,0.4l1.1,2.7L42.6,31.9"/>
		</g>
		<g>
			<path fill="#FFC400" d="M44.6,31.2l-0.7-3.4l0.7-0.2l0.3,1.3l1.4-0.3L46,27.3l0.7-0.2l0.7,3.4l-0.7,0.2l-0.3-1.5L45,29.5l0.3,1.5
				L44.6,31.2"/>
		</g>
		<g>
			<path fill="#FFC400" d="M49.6,30.4l0.1-3.5l1.4,0.1c0.5,0,0.9,0.2,1.2,0.5s0.4,0.7,0.3,1.3c0,0.3-0.1,0.6-0.2,0.8
				c-0.1,0.2-0.3,0.4-0.4,0.6c-0.1,0.1-0.3,0.2-0.5,0.2s-0.4,0.1-0.7,0H49.6 M50.3,29.8h0.6c0.3,0,0.6-0.1,0.7-0.2
				c0.2-0.2,0.2-0.4,0.3-0.8c0-0.4,0-0.7-0.2-0.9c-0.1-0.2-0.3-0.3-0.6-0.3h-0.7L50.3,29.8"/>
		</g>
		<g>
			<path fill="#FFC400" d="M54.7,27.4l0.8,0.2l0.5,3.7l-0.7-0.2l-0.1-0.8L53.9,30l-0.4,0.7l-0.7-0.2L54.7,27.4 M55,28.1l-0.8,1.3
				l0.9,0.2L55,28.1"/>
		</g>
		<g>
			<path fill="#FFC400" d="M56.3,31.4l1.3-3.2l0.7,0.3l-0.5,1.3l1.8-0.8l0.8,0.3L58.6,30l0.6,2.5l-0.8-0.3L58,30.3l-0.5,0.2L57,31.6
				L56.3,31.4"/>
		</g>
		<g>
			<path fill="#FFC400" d="M60.3,31.2c0.3-0.5,0.7-0.8,1.1-0.9c0.4-0.1,0.9,0,1.3,0.3c0.4,0.3,0.7,0.6,0.8,1.1
				c0.1,0.4,0,0.9-0.3,1.4s-0.7,0.8-1.1,0.9c-0.4,0.1-0.9,0-1.3-0.3C60.3,33.4,60,33,60,32.5C59.9,32.1,60,31.6,60.3,31.2
				 M60.9,31.6c-0.2,0.3-0.3,0.6-0.3,0.9s0.2,0.5,0.4,0.7c0.3,0.2,0.5,0.2,0.8,0.1c0.3-0.1,0.5-0.3,0.7-0.6s0.3-0.6,0.3-0.9
				c0-0.3-0.2-0.5-0.4-0.7c-0.3-0.2-0.5-0.2-0.8-0.1C61.4,31,61.1,31.2,60.9,31.6"/>
		</g>
		<g>
			<path fill="#FFC400" d="M63.2,35.4l2-2.1l-0.8-0.7l0.4-0.5l2,1.9l-0.4,0.5l-0.8-0.7l-2,2.1L63.2,35.4"/>
		</g>
		<g>
			<path fill="#FFC400" d="M68,35.4l0.5,0.7l-2,3.2L66,38.7l0.4-0.6L65.6,37L65,37.2l-0.5-0.6L68,35.4 M67.7,36.2l-1.5,0.5l0.6,0.8
				L67.7,36.2"/>
		</g>
	</g>
	<g id="the_mount_rushmore_state">
		<g>
			<path fill="#FFC400" d="M28.2,42.4l2.7,0.9l0.3-1l0.6,0.2L31,45.2L30.4,45l0.3-1L28,43.1L28.2,42.4"/>
		</g>
		<g>
			<path fill="#FFC400" d="M27.4,45.3l3.5,0.5l-0.1,0.7l-1.3-0.2l-0.2,1.4l1.3,0.2l-0.1,0.7L27,48.2l0.1-0.7l1.5,0.2l0.2-1.4
				L27.3,46L27.4,45.3"/>
		</g>
		<g>
			<path fill="#FFC400" d="M26.9,49.4l3.5-0.1l0.1,2.5h-0.6L29.8,50h-0.7v1.7h-0.6V50h-0.9l0.1,1.9L27,52L26.9,49.4"/>
		</g>
		<g>
			<path fill="#FFC400" d="M27.7,56.1l3.3-1.2l0.4,1l-2.3,1.5l2.7-0.2l0.4,1l-3.3,1.2l-0.2-0.6l2.7-0.9l-2.9,0.3l-0.2-0.7l2.4-1.6
				L28,56.8L27.7,56.1"/>
		</g>
		<g>
			<path fill="#FFC400" d="M31.2,60c-0.3,0.2-0.5,0.4-0.6,0.7s-0.1,0.5,0.1,0.8s0.4,0.4,0.6,0.5c0.3,0,0.6,0,0.9-0.2
				s0.5-0.4,0.6-0.7s0.1-0.5-0.1-0.8c-0.2-0.3-0.4-0.4-0.6-0.5C31.8,59.7,31.5,59.8,31.2,60 M30.8,59.4c0.5-0.3,0.9-0.4,1.4-0.3
				c0.4,0.1,0.8,0.4,1.1,0.8c0.3,0.4,0.3,0.9,0.2,1.3c-0.1,0.4-0.4,0.8-0.9,1.1s-0.9,0.4-1.4,0.3c-0.4-0.1-0.8-0.4-1.1-0.8
				c-0.3-0.4-0.3-0.9-0.2-1.3C30,60,30.3,59.7,30.8,59.4"/>
		</g>
		<g>
			<path fill="#FFC400" d="M34.3,61.6l0.5,0.6l-1.7,1.4c-0.2,0.2-0.3,0.3-0.3,0.5c0,0.2,0,0.3,0.2,0.5s0.3,0.3,0.5,0.3
				s0.4-0.1,0.6-0.3l1.7-1.4l0.5,0.5l-1.7,1.5c-0.3,0.3-0.7,0.4-1,0.4S33,65.4,32.7,65c-0.3-0.3-0.4-0.7-0.4-1
				c0-0.3,0.2-0.6,0.5-0.9L34.3,61.6"/>
		</g>
		<g>
			<path fill="#FFC400" d="M34.1,66.8l2.2-2.7l0.6,0.5l-0.4,2.8l1.5-1.8l0.5,0.5l-2.2,2.7l-0.6-0.5l0.4-2.8l-1.5,1.8L34.1,66.8"/>
		</g>
		<g>
			<path fill="#FFC400" d="M38.2,69.8l1.4-2.5l-0.9-0.5l0.3-0.5l2.4,1.4l-0.3,0.5l-0.9-0.5l-1.4,2.5L38.2,69.8"/>
		</g>
		<g>
			<path fill="#FFC400" d="M44.6,70.4l0.8,0.2c0.2,0,0.3,0,0.4,0c0.1-0.1,0.2-0.2,0.2-0.3c0-0.1,0-0.3,0-0.4
				c-0.1-0.1-0.2-0.2-0.3-0.2l-0.9-0.2L44.6,70.4 M43.5,72.2l0.8-3.4l1.7,0.4c0.4,0.1,0.6,0.2,0.8,0.4c0.1,0.2,0.2,0.5,0.1,0.8
				c0,0.2-0.1,0.4-0.3,0.5c-0.1,0.1-0.3,0.2-0.4,0.2c0.1,0.1,0.2,0.2,0.3,0.3c0,0.1,0,0.3,0,0.5l-0.1,0.4l0,0c0,0.2,0,0.3,0,0.4v0.1
				l-0.8-0.2c0-0.1,0-0.1,0-0.2s0-0.2,0-0.3l0.1-0.4c0-0.2,0-0.4,0-0.5c-0.1-0.1-0.2-0.2-0.4-0.2h-0.8l-0.3,1.3L43.5,72.2"/>
		</g>
		<g>
			<path fill="#FFC400" d="M47.4,69.4h0.7L48,71.6c0,0.3,0,0.5,0.1,0.6s0.3,0.2,0.5,0.2s0.4,0,0.5-0.2c0.1-0.1,0.2-0.3,0.2-0.6
				l0.1-2.2h0.7L50,71.7c0,0.4-0.2,0.7-0.4,1C49.3,72.9,49,73,48.5,73s-0.8-0.2-1-0.4c-0.2-0.2-0.3-0.6-0.3-1L47.4,69.4"/>
		</g>
		<g>
			<path fill="#FFC400" d="M50.9,72l0.7-0.1c0,0.2,0.1,0.3,0.3,0.4c0.1,0.1,0.3,0.1,0.6,0.1c0.2,0,0.4-0.1,0.5-0.2s0.1-0.2,0.1-0.3
				c0-0.2-0.3-0.4-1-0.4l0,0c0,0,0,0-0.1,0c-0.3,0-0.6-0.1-0.7-0.2c-0.2,0-0.3-0.1-0.3-0.3c-0.1-0.1-0.1-0.3-0.1-0.5
				c0-0.3,0.1-0.6,0.3-0.8c0.2-0.2,0.5-0.3,1-0.4c0.4,0,0.7,0,1,0.2s0.4,0.4,0.4,0.8l-0.7,0.1c0-0.2-0.1-0.3-0.2-0.4
				c-0.3,0-0.5-0.1-0.7,0c-0.2,0-0.3,0.1-0.4,0.2c-0.1,0.1-0.1,0.2-0.1,0.3c0,0.2,0.2,0.3,0.6,0.4c0.1,0,0.2,0,0.3,0
				c0.3,0,0.4,0.1,0.6,0.1c0.1,0,0.2,0.1,0.3,0.1c0.2,0.1,0.3,0.2,0.4,0.3c0.1,0.1,0.1,0.3,0.2,0.5c0,0.4-0.1,0.7-0.3,0.9
				c-0.2,0.2-0.6,0.4-1,0.4s-0.8,0-1.1-0.2C51.1,72.7,51,72.4,50.9,72"/>
		</g>
		<g>
			<path fill="#FFC400" d="M54.8,72.6l-0.9-3.4l0.7-0.2l0.4,1.3l1.4-0.4L56,68.7l0.7-0.2l0.9,3.4L56.9,72l-0.4-1.5l-1.4,0.4l0.4,1.5
				L54.8,72.6"/>
		</g>
		<g>
			<path fill="#FFC400" d="M58.8,71.4l-1.6-3.1l1-0.5l1.8,2.1l-0.6-2.7l1-0.5l1.6,3.1l-0.6,0.3l-1.3-2.5l0.6,2.8L60,70.8l-1.9-2.2
				l1.3,2.5L58.8,71.4"/>
		</g>
		<g>
			<path fill="#FFC400" d="M62.3,67.5c0.2,0.3,0.5,0.5,0.8,0.6s0.5,0,0.8-0.2c0.2-0.2,0.4-0.4,0.4-0.7c0-0.3-0.1-0.6-0.3-0.9
				s-0.5-0.5-0.8-0.6s-0.5,0-0.8,0.2c-0.2,0.2-0.4,0.4-0.4,0.7C61.9,66.9,62,67.2,62.3,67.5 M61.7,67.9c-0.3-0.4-0.5-0.9-0.5-1.3
				c0-0.5,0.3-0.8,0.7-1.2c0.4-0.3,0.8-0.4,1.3-0.4c0.4,0.1,0.8,0.3,1.2,0.8c0.3,0.4,0.5,0.9,0.5,1.3c0,0.5-0.3,0.8-0.7,1.2
				c-0.4,0.3-0.8,0.4-1.3,0.4C62.4,68.6,62,68.4,61.7,67.9"/>
		</g>
		<g>
			<path fill="#FFC400" d="M65.2,64.7l0.6-0.6c0.1-0.1,0.2-0.3,0.2-0.4c0-0.1-0.1-0.2-0.2-0.3s-0.2-0.1-0.3-0.1
				c-0.1,0-0.2,0.1-0.3,0.2l-0.6,0.7L65.2,64.7 M66.1,66.6l-2.6-2.3l1.1-1.3c0.3-0.3,0.5-0.4,0.8-0.5c0.2,0,0.5,0.1,0.7,0.3
				c0.2,0.1,0.3,0.3,0.3,0.5s0,0.3,0,0.5c0.1-0.1,0.3-0.1,0.4-0.1s0.3,0.1,0.5,0.3l0.3,0.3l0,0c0.2,0.1,0.3,0.2,0.4,0.2l0.1,0.1
				L67.5,65c-0.1,0-0.1,0-0.2-0.1c-0.1,0-0.1-0.1-0.2-0.2l-0.3-0.2c-0.2-0.1-0.3-0.2-0.4-0.2s-0.2,0.1-0.4,0.2l-0.5,0.6l1,0.9
				L66.1,66.6"/>
		</g>
		<g>
			<path fill="#FFC400" d="M68.7,63.6l-2.9-1.9l1.4-2.1l0.5,0.3l-1,1.5l0.6,0.4l0.9-1.4l0.5,0.3l-0.9,1.4l0.8,0.5l1-1.6l0.5,0.4
				L68.7,63.6"/>
		</g>
		<g>
			<path fill="#FFC400" d="M70.6,58l0.2-0.7c0.2,0,0.4,0,0.5-0.1s0.2-0.3,0.3-0.5c0.1-0.2,0.1-0.4,0-0.5c0-0.1-0.1-0.2-0.3-0.3
				c-0.2-0.1-0.5,0.2-0.8,0.7l0,0c0,0,0,0,0,0.1c-0.2,0.3-0.3,0.5-0.4,0.6s-0.2,0.2-0.4,0.2c-0.1,0-0.3,0-0.5,0
				c-0.3-0.1-0.5-0.3-0.6-0.6s-0.1-0.6,0-1s0.3-0.7,0.6-0.8c0.3-0.2,0.5-0.2,0.9-0.1l-0.2,0.7c-0.2,0-0.3,0-0.4,0.1
				s-0.2,0.2-0.3,0.4c-0.1,0.2-0.1,0.3,0,0.5c0,0.1,0.1,0.2,0.3,0.2c0.2,0.1,0.4-0.1,0.6-0.4c0.1-0.1,0.1-0.2,0.1-0.2
				c0.1-0.2,0.2-0.4,0.3-0.5c0.1-0.1,0.1-0.2,0.2-0.2c0.1-0.1,0.3-0.2,0.4-0.2s0.3,0,0.5,0c0.3,0.1,0.6,0.3,0.7,0.6s0.1,0.7,0,1.1
				c-0.1,0.4-0.3,0.7-0.6,0.9C71.2,58,70.9,58.1,70.6,58"/>
		</g>
		<g>
			<path fill="#FFC400" d="M72.8,53.6L70,53.2l-0.1,1l-0.6-0.1l0.4-2.8l0.6,0.1l-0.1,1l2.8,0.4L72.8,53.6"/>
		</g>
		<g>
			<path fill="#FFC400" d="M70.3,49.8l1.5,0.5v-1L70.3,49.8 M69.6,50.3v-0.8l3.5-1.3V49l-0.7,0.2v1.4l0.7,0.2v0.8L69.6,50.3"/>
		</g>
		<g>
			<path fill="#FFC400" d="M72.9,46.8L70,47.3l0.2,1l-0.6,0.1l-0.4-2.8l0.6-0.1l0.2,1l2.8-0.4L72.9,46.8"/>
		</g>
		<g>
			<path fill="#FFC400" d="M72.3,44L69,45.1l-0.8-2.4l0.6-0.2l0.6,1.7l0.7-0.2l-0.5-1.6l0.6-0.2l0.5,1.6l0.9-0.3L71,41.7l0.6-0.2
				L72.3,44"/>
		</g>
	</g>
</g>
<g id="sun">
	<path fill="#FFC400" d="M50,67.4l-1.8-3.6l-2.7,3l-0.8-3.9L41.3,65l0.2-4l-3.8,1.3l1.3-3.8l-4,0.2l2.2-3.4l-3.9-0.8l3-2.7L32.6,50
		l3.6-1.8l-3-2.7l3.9-0.8L35,41.3l4,0.2l-1.3-3.8l3.8,1.3l-0.2-4l3.4,2.2l0.8-3.9l2.7,3l1.8-3.6l1.8,3.6l2.7-3l0.8,3.9l3.4-2.2
		l-0.2,4l3.8-1.3L61,41.5l4-0.2l-2.2,3.4l3.9,0.8l-3,2.7l3.6,1.8l-3.6,1.8l3,2.7l-3.9,0.8l2.2,3.4l-4-0.2l1.3,3.8L58.5,61l0.2,4
		l-3.4-2.2l-0.8,3.9l-2.7-3L50,67.4L50,67.4z"/>
</g>
<g id="seal">
	<g>
		<path fill="#FFFFFF" d="M36.5,50c0-7.7,6-13.9,13.5-13.9c7.4,0,13.5,6.2,13.5,13.9s-6,13.9-13.5,13.9C42.6,63.9,36.5,57.7,36.5,50
			"/>
	</g>
	<g id="inner">
		<g>
			<path fill="#0074A8" d="M60.8,49.9L60.8,49.9L60.8,49.9L60.8,49.9z"/>
		</g>
		<g>
			<path fill="#0074A8" d="M60.2,46.6L60.2,46.6L60.2,46.6L60.2,46.6"/>
		</g>
		<g>
			<path fill="#0074A8" d="M46.4,60.8L46.4,60.8L46.4,60.8L46.4,60.8L46.4,60.8L46.4,60.8L46.4,60.8z M53,60.9L53,60.9L53,60.9
				L53,60.9L53,60.9L53,60.9z M46.5,61L46.5,61L46.5,61L46.5,61L46.5,61z M50.8,61.4L50.8,61.4L50.8,61.4L50.8,61.4L50.8,61.4z"/>
		</g>
		<g>
			<path fill="#0074A8" d="M40.1,55.6L40.1,55.6L40.1,55.6L40.1,55.6"/>
		</g>
	</g>
	<g id="outer">
		<g>
			<path fill="#0074A8" d="M50,63.9c-3.6,0-7-1.4-9.5-4.1c-2.5-2.6-3.9-6.1-3.9-9.8c0-3.8,1.5-7.3,4.1-10c2.5-2.5,5.8-3.9,9.4-3.9
				l0,0c3.5,0,6.8,1.4,9.4,3.9c2.6,2.6,4.1,6.2,4.1,10c0,3.7-1.4,7.2-4,9.8S53.6,63.9,50,63.9L50,63.9z M50,36.2
				c-3.5,0-6.8,1.4-9.3,3.9c-2.6,2.6-4.1,6.2-4.1,9.9c0,3.7,1.4,7.2,3.9,9.8s5.9,4.1,9.5,4.1l0,0c7.4,0,13.4-6.2,13.4-13.8
				c0-3.8-1.4-7.3-4.1-9.9C56.8,37.6,53.5,36.2,50,36.2L50,36.2z M50,61.6c-6.2,0-11.2-5.2-11.2-11.6l0,0l0,0c0-3.2,1.2-6.1,3.4-8.3
				c2.1-2.1,4.9-3.2,7.8-3.2c0,0,0,0,0.1,0c2.9,0,5.7,1.2,7.8,3.3c2.2,2.2,3.4,5.2,3.4,8.3c0,3.2-1.2,6.1-3.4,8.3
				C55.7,60.4,52.9,61.6,50,61.6z M38.8,50c0,6.3,5,11.5,11.2,11.5c2.9,0,5.7-1.2,7.8-3.3c2.2-2.2,3.4-5.1,3.4-8.3
				c0-3.1-1.2-6.1-3.4-8.3c-2.1-2.1-4.8-3.2-7.8-3.2c0,0,0,0-0.1,0c-2.9,0-5.7,1.1-7.7,3.2C40,43.9,38.8,46.8,38.8,50L38.8,50
				L38.8,50z"/>
		</g>
	</g>
</g>
<g>
	<path opacity="0.2" enable-background="new    " d="M10.4,74.3V25.8c0-12.1,8.2-22.7,19.8-25.8H0v100h30.2
		C18.5,96.9,10.4,86.3,10.4,74.3z"/>
	<path opacity="0.1" fill="#FFFFFF" enable-background="new    " d="M89.6,25.8v48.5c0,12.1-8.2,22.7-19.8,25.8H100V0H69.8
		C81.5,3.1,89.6,13.7,89.6,25.8z"/>
</g>
</svg>
