<?xml version="1.0" encoding="utf-8"?>
<!-- Generator: Adobe Illustrator 23.0.0, SVG Export Plug-In . SVG Version: 6.00 Build 0)  -->
<svg version="1.0"
	 id="svg548" xmlns:cc="http://creativecommons.org/ns#" xmlns:dc="http://purl.org/dc/elements/1.1/" xmlns:rdf="http://www.w3.org/1999/02/22-rdf-syntax-ns#" xmlns:svg="http://www.w3.org/2000/svg"
	 xmlns="http://www.w3.org/2000/svg" xmlns:xlink="http://www.w3.org/1999/xlink" x="0px" y="0px" viewBox="0 0 100 100"
	 enable-background="new 0 0 100 100" xml:space="preserve">
<rect id="rect552" fill="#003366" width="100" height="100"/>
<path id="path557" fill-rule="evenodd" clip-rule="evenodd" fill="#FFFFFF" d="M5.5,29.1c-2.8,9.4,8.5,17,16.2,10.2
	c8.1-8.5-0.9-20-10.3-16.3c6.9-1.2,10.9,6.7,6.3,11.7C13.3,39.2,5.2,36.2,5.5,29.1z"/>
<path id="path554" fill-rule="evenodd" clip-rule="evenodd" fill="#FFFFFF" d="M55,27.9c-0.4,0.2-0.6,0.7-0.8,1
	c-0.4,1.1-0.7,2.1-1.1,3.2c-0.2,0.5-0.4,1-0.6,1.4c-0.3,0,0.1-0.6,0.1-0.9c0.1-0.5,0.4-1,0.4-1.6c-0.1-0.4,0-0.9-0.2-1.2
	c-0.3,0.7-0.7,1.3-0.9,2c-0.2,0.8-0.4,1.7-0.6,2.5c-0.1,0.4-0.1,0.9-0.3,1.3c-0.4,0-0.3-0.7-0.5-0.9c-0.2-0.6-0.6-1.1-0.8-1.7
	c-0.1-0.1-0.5-1.1-0.5-0.6c0,0.4-0.1,0.8-0.1,1.2c-0.8-1.5-1.6-2.9-2.4-4.4c0.1,0.5,0,1,0.2,1.4c0.4,0.8,0.7,1.7,1.1,2.5
	c-0.2,0.2-0.2-0.1-0.3-0.2c-0.7-1.3-1.5-2.6-2.2-3.9c-0.3,0.2-0.1,0.6-0.1,0.9c0.1,0.4,0.4,0.8,0.6,1.2c0.3,0.6,0.7,1.3,1.1,1.9
	c-0.3,0.3-0.4-0.5-0.6-0.7c-0.7-1.1-1.3-2.3-2-3.4c-0.3,0.1-0.4,0.3-0.3,0.6c0,0.3,0.1,0.5,0.2,0.8c0.5,0.9,1,1.8,1.5,2.6
	c-0.2,0.2-0.2-0.1-0.3-0.2c-0.8-1.3-1.7-2.6-2.5-3.9c-0.2-0.1-0.5-0.3-0.4,0.1c-0.1,0.5,0.5,0.9,0.6,1.3c0.7,1.1,1.5,2.3,2.2,3.4
	c-0.2,0.2-0.2-0.1-0.3-0.2c-0.5-0.7-0.9-1.3-1.4-2c-0.2,0-0.4-0.2-0.3,0.1c0,0.2-0.1,0.4,0.1,0.5c0.7,1.1,1.5,2.2,2.2,3.4
	c0.2,0.5,0.5,1,0.7,1.5c0.4,0.4,0.9,0.9,1.3,1.3c-0.3,0.2-0.6-0.5-0.9-0.7c-0.3-0.4-0.8-0.7-0.9-1.1c-0.2-0.3-0.3-0.8-0.7-1
	c-0.4-0.3-0.7-0.8-1.1-0.9c-0.1,0.3,0,1,0.4,1.3c0,0.1,0.6,0.5,0.3,0.4c-0.6-0.1-1.2-0.3-1.8-0.5c-0.4,0.3,0.9,0.6,0.2,0.8
	c-0.5,0-0.9-0.4-1.3-0.6c-1.1-0.6-2.3-1.2-3.5-1.8C38.3,34,38,34,37.8,33.9c-0.1,0.4,0.6,0.5,0.8,0.8c0.9,0.5,1.8,0.9,2.7,1.4
	c0,0.3-0.3,0.1-0.4,0c-1.7-0.5-3.3-1.1-5-1.6c-0.3-0.1-0.2,0.1-0.1,0.3c0,0.2,0.2,0.2,0.4,0.3c1.3,0.4,2.6,0.9,3.9,1.3
	c0.1,0.2,0.1,0.4,0.1,0.6c-0.3-0.2-0.6-0.5-1-0.5c-0.8-0.2-1.7,0-2.6,0c-0.5-0.1-0.5,0.3-0.1,0.3c0.4,0.3,0.8,0.1,1.3,0.1
	c0.7,0,1.4,0,2.1-0.1c0.1,0.4-0.7,0.1-0.7,0.4c-0.1,0.4,0.6,0.4,0.9,0.3c0.4,0,0.7-0.6,1-0.5c-0.1,0.4-0.7,0.5-0.8,0.8
	c0,0.4,0.7,0.3,1,0.1s0.7-0.6,0.7,0c0.1,0.5,0.8,0.3,1.2,0.5c0.7,0.1,1.4,0.1,2.1,0.3c0.6,0.3,1.3,0.6,1.9,0.9
	c-0.1,0.4-0.7-0.2-1-0.2c-0.5-0.1-0.9-0.4-1.5-0.4c-0.4-0.1-0.9-0.1-1.4,0c-1.4,0.1-2.7,0.2-4.1,0.3c-1.3,0.2-2.5,0.4-3.8,0.6
	c-0.3,0.1-1,0.3-0.4,0.4c1.4-0.1,2.9-0.2,4.3-0.3c0.1,0.3-0.2,0.2-0.4,0.2c-1.2,0.1-2.4,0.2-3.6,0.4c-0.4,0.3-0.9,0.4-1.1,0.9
	c0.1,0.6,0.9,0.1,1.2,0.1c1-0.2,2.1-0.3,3.1-0.7c0.3,0,1-0.5,1.1-0.1c-1.1,0.3-2.3,0.7-3.4,1c-0.2,0.1-0.5,0.1-0.7,0.2
	c-0.1,0.6,0.8,0.2,1.2,0.3c0.8-0.2,1.5-0.5,2.3-0.7c0.4,0,1-0.5,1.3-0.3c-0.3,0.3-0.9,0.4-1.3,0.6c-0.8,0.4-1.6,0.7-2.4,1.1
	c-0.5,0.5,0.5,0.5,0.8,0.2c0.8-0.4,1.7-0.8,2.5-1.2c0.2,0.2-0.1,0.2-0.2,0.4c-0.5,0.4-0.9,0.7-1.4,1c-0.2,0.2-0.5,0.2-0.6,0.5
	c0.5,0.3,0.9-0.1,1.3-0.3c1.1-0.7,2.2-1.4,3.2-2c0.5-0.2,1-0.4,1.4-0.6c0.2,0.2-0.1,0.2-0.2,0.3c-0.5,0.4-1.1,0.7-1.6,1.1
	c-0.6,0.6-1.1,1.2-1.8,1.7c-0.3,0.3-0.6,0.5-0.9,0.8c-0.5,0.5-1,1-1.5,1.5c-0.2,0.5-0.5,1-0.4,1.5c0,0.6-0.1,1.2,0,1.8
	c0.1,0.2,0.2,0.8,0.2,0.2c0-0.3,0.2-1.1,0.4-0.5c0.1,0.2,0.2,0.9,0.3,0.8c0.2-0.4,0.2-0.8,0.5-1.1c0.3,0.1,0.5,0.5,0.7,0.1
	c0.3-0.4,0.3-0.9,0.4-1.3c0.1-0.6,0.3-1.1,0.4-1.7c0.2-0.1,0.2,0.2,0.2,0.4c0.1,0.4,0.2,0.7,0.2,1.1c0.5-0.2,0.3-0.9,0.5-1.4
	c0-0.3,0.1-1.2,0.5-0.6c0.2,0.5,0.8-0.1,0.8-0.5c0.1-0.6,0.2-1.2,0.4-1.8c0.2,0.3,0.3,0.6,0.5,0.8c0.6,0,0.7-0.6,1.1-0.9
	c0.3-0.3,0.6-0.7,1-1c0.4-0.2,0.8-0.5,1.2-0.7c0.4,0.4-0.2,0.9-0.4,1.2c-0.5,0.6-1.2,1.2-1.7,1.8c-0.2,0.2-0.5,0.5-0.5,0.8
	c0.3,0.1,0.6,0.2,0.8,0.4c-0.4,0.2-0.9,0.4-1.2,0.6c-0.4,0.3-0.8,0.6-1.2,0.9c-0.1,0.3-0.2,0.6,0.2,0.5c0.3-0.1,1.1,0.1,0.5,0.4
	c-0.6,0.4-1.3,0.6-1.9,1c-0.2,0.2-0.6,0.6-0.1,0.5c0.4-0.1,0.9-0.6,1.1-0.3c-0.4,0.4-0.9,0.8-1.3,1.2c-0.2,0.2-0.7,0.6-0.4,0.7
	C41,51,41.5,50.4,42,50c0.2-0.3,0.7-0.6,0.5,0c-0.6,0.8-1.3,1.6-1.9,2.4c0.1,0.8,0.6-0.2,0.8-0.4c0.4-0.5,0.7-0.9,1.2-1.3
	c0.2,0,0.6-0.7,0.7-0.4c0,0.2,0.1,0.5-0.1,0.6c-0.4,0.5-0.7,1.1-1,1.7c-0.1,0.2-0.1,1,0.3,0.6c0.4-0.8,1-1.6,1.3-2.4
	c0.3-0.7,0.6-1.5,0.9-2.3c0.2-0.4,0.4-0.2,0.3,0.1c0,0.4,0,1.1,0.3,1.2c0.4-1,1-2,1.5-3c0.2-0.5,0.4-1,0.6-1.4
	c0.3,0,0.1,0.3,0.2,0.4c0,0.3,0,0.7,0,1c-0.3,0.8-0.5,1.6-0.9,2.4c-0.2,0.5-0.6,0.9-0.8,1.4c-0.2,0.3-0.1,0.3,0.1,0.1
	c0.5-0.2,0.8-0.6,1.1-1c0.5-0.4,0.1,0.5,0,0.7c-0.3,0.8-0.4,1.6-0.7,2.3c0,0.2-0.1,0.7,0.2,0.3c0.5-0.4,0.7-1.1,1.1-1.7
	c0.2,0.3,0.6,0.5,0.7,0.1c0-0.4-0.2-0.9,0-1.3c0.2-0.7,0.4-1.4,0.5-2.2C49,47.5,49,47,49,46.6c0.2-0.1,0.1,0.3,0.2,0.4
	c0,0.3,0,0.7,0,1c0.2,0,0.7-0.4,0.8-0.1c-0.2,0.2-0.6,0.3-0.8,0.6c0,0.3,0,0.6,0,0.9c0.3-0.2,0.6-0.4,0.9-0.6
	c0.2,0.2-0.1,0.3-0.2,0.4c-0.2,0.2-0.5,0.5-0.7,0.7c0,0.2,0,0.4,0,0.6c0.2-0.1,0.4-0.1,0.6-0.2c0.2,0.2-0.1,0.2-0.2,0.3
	c-0.1,0.1-0.5,0.2-0.4,0.4c0,0.6,0,1.2-0.1,1.8c0.1-0.2,0.5-0.7,0.4-0.8c-0.1,0.3-0.6,0.3-0.3,0c0.1-0.2,0.9-0.7,0.6-0.2
	c-0.2,0.4-0.5,0.8-0.7,1.1c-0.1,0-0.2,0.5,0.1,0.4c0.2,0.1,0.8,0.2,0.4,0.4c-0.2,0.2-0.4,0.3-0.5,0.5c0,0.5-0.1,1.4,0,1.7
	c0.2-0.2,0.7-0.6,0.5-0.7c0.1,0.8-0.6,0.8-0.1,0.6c0.3-0.1,1-0.1,0.5,0.3c-0.3,0.5-0.9,0.6-0.8,1.1c0,0.4-0.2,0.6,0.3,0.5
	c0.5,0,0.6,0.5,0.1,0.6c-0.3,0.2-0.6,0.2-0.4,0.6c0.1,0.3,0.8,0.5,0.6,0.8c0-0.3-0.1,0.1-0.3-0.2c-0.2-0.2-0.5-0.6-0.4,0
	c0,1.1-0.1,2.1-0.1,3.2c0.2-0.1,0.6,0.2,0.6,0.4c-0.2,0.2-0.8-0.7-0.6,0c0,0.3-0.1,0.9,0,1.1c0.1-0.1,0.3,0.2,0.4,0.2
	c0.2,0.1,0.3,0.2,0.5,0.3c-0.1,0.3-0.3,0-0.4-0.1c-0.2-0.1-0.3-0.2-0.5-0.4c0,0.4-0.2,1.2,0,1.5c0.2,0.1,0.7,0.6,0.7,0.8
	c-0.3,0.1-0.6-0.7-0.8-0.7c0,0.6,0,1.3-0.1,1.9c0.3,0.1,0.8,0.4,1,0.7c-0.2,0.2-0.8-0.6-1-0.5c0,0.5,0,1.1-0.1,1.6
	c-0.1,0.4,0.9,0.3,0.7,0.7c-0.4-0.1-0.9-0.7-0.9,0c-0.1,0.6-0.6,1.1-0.2,1.7c0.2,0.4,0.6,0.6,1,0.8c0.4-0.1,0.9-0.3,1.3-0.3
	c0.7-0.1,1.3-0.1,2-0.2c0.3-0.2,0.6-0.4,0.2-0.7c-0.3-0.4-0.3-1-0.5-1.5c0-0.4-0.1-0.5-0.4-0.3c-0.3,0.1-0.7,0.6-0.8,0.3
	c0.4-0.2,0.8-0.4,1.2-0.6c0-0.5-0.1-1-0.1-1.5c-0.3,0.2-0.8,0.6-1.1,0.6c0.1-0.3,0.7-0.4,1-0.7c0.2,0,0.1-0.3,0.1-0.4
	c0-0.4,0-0.9,0-1.3c-0.3,0.3-0.6,0.6-1.1,0.6c-0.3-0.3,0.5-0.2,0.6-0.4c0.2-0.2,0.6-0.4,0.5-0.7c0-0.4,0-0.8,0-1.2
	c-0.3,0.2-0.7,0.8-1,0.5c0.3-0.2,0.9-0.5,1-0.8c0-0.5,0-1,0-1.5c-0.3,0.4-0.7,0.6-1.1,0.7c-0.2,0.2-0.7,0-0.2-0.1
	c0.4-0.1,0.9-0.3,1.1-0.7c0.2-0.1,0.2-0.4,0.2-0.6c0-0.4,0-0.7,0-1.1c-0.5,0.5-1,1-1.5,1.4c-0.3-0.3,0.5-0.5,0.6-0.8
	c0.3-0.3,0.7-0.6,0.9-0.9c0-0.4,0-0.8,0-1.2c-0.2,0.2-0.5,0.4-0.1,0.2c0.2,0.2-0.1,0.2-0.3,0.3s-0.4,0.2-0.6,0.3
	c-0.2-0.4,0.6-0.5,0.8-0.9c0.2,0.1,0.1-0.2,0.1-0.4c0-0.3,0-0.5,0-0.8c-0.3,0.5-0.8,0.2-1.2,0.1c-0.3,0,0-0.1,0.1-0.2
	c0.3-0.2,0.7-0.4,1-0.6c0.2,0.2-0.1,0.2-0.3,0.3s-0.4,0.2-0.6,0.3c0.4,0.2,0.8,0.1,1-0.3c0-0.7,0-1.3,0-2c-0.3,0.3-0.5,0.6-0.8,0.8
	c0.2-0.1,0.9,0,0.4,0.2c-0.3,0.1-1.2,0.1-0.6-0.3c0.3-0.1,0.5-0.4,0.8-0.7c0.3-0.1,0.2-0.2,0.2-0.5c0-0.4,0-0.8-0.1-1.2
	c-0.2,0.2-0.8,0.7-0.6,0.7c0.2-0.1,1-0.2,0.5,0.1c-0.3,0-0.9,0.4-1,0c0.4-0.2,0.7-0.6,1-0.9c0.2,0,0.1-0.3,0.1-0.4
	c0-1.2-0.1-2.4-0.1-3.6c-0.2,0.2-1,0.8-0.7,0.2c0.2-0.2,0.4-0.6,0.6-0.7c0.1-0.1,0-0.3,0-0.5c0-0.4-0.2-0.7-0.3-1
	c0-0.1-0.3-0.4,0-0.4c0.2,0.2,0.4,0.8,0.5,1.1c0.3,0.7,0.6,1.4,0.9,2.1c0.1,0.6,0.3,1.2,0.3,1.8c0.1-0.1,0.4,0,0.4-0.2
	s0.2-0.5,0.1-0.7c-0.6-1.8-1.4-3.5-2.1-5.3c0.2-0.2,0.2,0.1,0.3,0.2c0.4,0.8,0.7,1.7,1,2.5c0.3,0.9,0.7,1.8,1.1,2.7
	c0.6-0.4,0.1-1,0-1.5c-0.3-1-0.7-1.9-1-2.9c-0.1-0.2-0.3-0.2-0.5-0.4s-0.4-0.3-0.6-0.5c0.2-0.3,0.6,0.3,0.8,0.3
	c0.5,0.5,0.6-0.3,1-0.4c0.1,0.4-0.7,0.8-0.3,1.3c0.3,1,0.6,2.1,1,3.1c0.1,0.2,0.1,0.4,0.2,0.5c-0.1,0.2,0.1,1,0.3,0.8
	c0.1-0.4,0.4-0.9,0.1-1.3c-0.4-1.4-0.8-2.7-1.3-4c0-0.5,0.3,0.2,0.3,0.4c0.5,1.3,1,2.6,1.4,3.9c-0.1,0.4-0.1,1.2,0.4,0.7
	c0-0.5,0.1-1-0.2-1.5c-0.4-1.2-0.8-2.3-1.2-3.5c-0.2,0.2-0.6,0-0.7-0.3c0.1-0.6-0.4-0.6-0.8-0.5c-0.2,0,0.3-0.3,0.4-0.4
	c0.2-0.1,0.7-0.5,0.3-0.6c-0.2-0.1-0.3-0.1-0.5-0.2c0.2-0.4,0.5-0.8,0.8-1.1c0.2-0.3,0-1-0.3-1.2c-0.3-0.1-0.2-0.5-0.3-0.7
	c-0.1-0.1,0-0.4,0.1-0.2s0.1,0.5,0.2,0.7c0.4,0.2,0.6,0.6,0.6,1c0.2,0.4-0.3,0.7-0.5,1c-0.1,0.2-0.2,0.3-0.3,0.5
	c0.2,0.1,0.4,0.2,0.7,0.3c0,0.4-0.7,0.7-0.6,0.8c0.7-0.2,0.3,0.8,0.8,0.9c0.2,0,0.3-0.2,0.5-0.3c0.3,0.1-0.1,0.2-0.1,0.3
	c0.6,1.5,1.1,3.1,1.7,4.6c-0.1,0.6,0.5,0.6,0.8,0.9c0,0.3,0.2,0.9,0.5,0.7c0-0.8,0.1-1.6,0.1-2.4c0-0.3-0.4-0.9,0-1
	c0.2,0.6,0.5,1.2,0.6,1.9c0.1,0.4-0.1,1.1,0.5,1.2c0.3,0.1,0.1-0.8,0.3-0.6c0.2,0.1,0.3,0.2,0.5,0.4c0.6,0,0.2-0.7,0.2-1
	c-0.2-0.5-0.4-1-0.6-1.5c0.3-0.1-0.2,0-0.1-0.3c-0.1-0.5-0.4-0.9-0.7-1.2c-0.1-0.3-0.1-0.6-0.3-0.2c-0.3,0.2-0.1,0.6,0,0.8
	c0.3,0.5,0.3,1.1,0.7,1.5c0.2,0.3,0.4,0.6,0.3,0.9c0,0.2,0,0.5-0.2,0.3c0-0.3,0.1-0.6-0.1-0.8c-0.2-0.4-0.5-0.6-0.6-1.1
	c-0.1-0.4-0.3-0.8-0.5-1.2c0-0.1-0.6,0.1-0.6-0.2c0.2,0,0.2-0.1,0.5,0c0.2-0.2,0.2-0.6,0.1-0.8c-0.3-0.7-0.8-1.3-1.2-2
	c-0.1-0.4,0.1-1-0.3-1.3c-0.4-0.4-0.7-1-0.9-1.6c-0.3-0.4-0.7-0.6-1.1-1c-0.2,0.1-0.9,0.1-0.5-0.1c0.5-0.2,0.8,0.1,1.1,0.4
	c0.3,0.3,0.7,0.5,0.8,1c0.2,0.5,0.5,1,0.9,1.4c0.3,0.3,0.2,0.8,0.3,1.2c0.4,0.8,1,1.5,1.3,2.3c-0.1,0.4,0.1-0.1,0.3-0.1
	c0-0.4,0.1-1-0.1-1.4c-0.3-0.5-0.6-1-0.9-1.5c-0.2-0.4-0.4-0.9-0.6-1.3c-0.2-0.5-0.5-0.9-0.8-1.3c0.3-0.3,0.4,0.6,0.6,0.7
	c0.5,0.9,0.8,1.8,1.3,2.7c0.2,0.4,0.5,0.7,0.6,1.1c0.1,0.2-0.1,1,0.1,0.9c0.1-0.2,0.2-0.4,0.3-0.6c0.2-0.1,0.5,0,0.5-0.2
	c0.1-0.5-0.5-0.9-0.5-1.4c-0.1-0.7-0.4-1.3-0.8-2c-0.4-0.8-0.9-1.5-1.2-2.4c-0.1-0.5,0.3,0.1,0.3,0.4c0.3,0.6,0.7,1.2,1,1.9
	c0.3,0.5,0.5,1.1,0.7,1.6c0.1,0.5,0.3,1,0.6,1.5c0,0.2,0,0.4,0.2,0.4c0.1,0.2-0.3,0.1-0.2,0.4c0,0.2,0,0.9-0.2,0.5
	c0-0.3,0.2-0.9-0.3-0.6c-0.1,0.1-0.2,0.3-0.3,0.5s-0.4,0.2-0.2,0.5c0.3,0.4,0.6,0.8,0.7,1.3c0.1,0.4,0.4,0.8,0.7,1.1
	c0.2,0.3,0.5,1,0.8,0.9c0.1-0.5-0.3-0.8-0.5-1.2c-0.3-0.7-0.6-1.4-0.9-2.1c0.3,0.2,0.6,0.3,0.7,0.6c0.6,0.8,1.2,1.6,1.8,2.3
	c0.6,0.3,0.2-0.5,0.1-0.7c-0.5-1-1.1-1.8-1.7-2.7c-0.1-0.1-0.5-0.7-0.1-0.5c0.6,0.8,1.3,1.6,1.9,2.4c0.2,0.1,0.6,0.3,0.5-0.1
	c-0.6-1-1.3-1.9-1.9-2.9c-0.6-0.9-1.2-1.9-1.8-2.9c0.3-0.2,0.7,0.4,1,0.5c0.5,0.3,1,0.7,1.5,1.1c0.7,0.6,1.5,1.3,2.2,2
	c0.4,0.2,0.7,0.6,1.1,0.7c0-0.1-0.4-0.7-0.2-0.7c0.4,0.1,0.8,0.3,1.3,0.5c0.3,0.1,1.1,0.5,0.7-0.1c-0.1-0.3-0.8-0.4-0.7-0.7
	c0.1-0.1,0.3,0.1,0.5,0.2c0.3,0.2,0.7,0.3,1.1,0.4c0.6,0,0.2-0.6-0.2-0.6c-0.9-0.5-1.8-1-2.6-1.4c0.2-0.4,0.8,0.2,1.1,0.2
	c0.2-0.1,0.9,0.1,0.7-0.3c-0.1-0.1-0.3-0.1-0.5-0.2c-1.2-0.4-2.4-0.9-3.6-1.3c-0.5-0.3-1-0.7-1.5-1c0.1-0.3,0.6,0.1,0.9,0.1
	c0.4,0.1,0.9,0.2,1.4,0.2c0.3,0,0.9,0.1,1,0c-0.2-0.1-1.1-0.4-0.6-0.5c0.3,0,1,0,0.4-0.1c-0.5,0-1,0-1.4-0.2
	c0.1-0.2,0.3-0.1,0.6-0.1c0.3,0.1,1-0.1,1.2,0.2c0.3,0.1,0.9,0,1.4,0c0.6-0.1,1.3,0,1.8-0.1c0.2-0.3,0.8-0.4,0.8-0.8
	c0-0.4,0-0.7-0.1-1.1c-0.1-0.1-0.2-0.4-0.4-0.4c-0.6-0.1-1.1-0.2-1.6-0.4c-1.1,0-2.2,0-3.4-0.1c-0.4,0-0.8,0.3-1.2,0.3
	c-0.6,0.1-1.3,0-1.9,0.2c-0.2,0.2-0.6-0.1-0.2-0.1c0.5-0.1,1-0.2,1.5-0.2s1-0.1,1.5-0.3c0.3-0.2,0.4,0.1,0.4-0.2
	c0.3-0.1,1.1,0,0.9-0.3c-1,0-2.1,0-3.1,0.1c-0.4,0-0.9,0.2-1.2,0.4c-0.4,0.2-0.1-0.3,0.2-0.3c0.5-0.3,1-0.2,1.5-0.5
	c0.7-0.3,1.4-0.7,2-1.1c0.2-0.2,0.7-0.4,0.1-0.5c-0.4-0.1-0.8,0.1-1.3,0.1c-0.6,0.1,0-0.4,0.2-0.5c0.7-0.3,1.3-0.7,1.9-1.1
	c0.2-0.2,0.8-0.3,0.6-0.5c-0.5,0.2-1.1,0.4-1.6,0.6c-0.2,0-1,0.1-0.6-0.2c0.8-0.5,1.6-1.1,2.4-1.6c0.3-0.4,0.1-0.4-0.2-0.2
	c-0.4,0.1-0.6,0.4-1,0.6c-0.1,0.2-0.8,0.4-0.4,0c0.4-0.3,0.7-0.6,1.1-0.9c0.2-0.3,0.4-0.9-0.1-0.6c-0.3,0.2-0.7,0.2-1,0.5
	c-0.4,0.4-0.8,0.8-1.2,1.3c-0.3-0.3,0.5-0.6,0.6-0.9c0.3-0.4,0.7-0.7,1-1.1c0.1-0.3,0.1-0.6-0.3-0.3c-0.2,0.1-0.3,0.1-0.5,0.2
	c0,0.3-0.7,0.7-0.9,1c-0.4,0.3-0.9,0.5-1.3,0.9c-0.3-0.3,0.5-0.5,0.7-0.7c0.5-0.3,0.9-0.8,1.3-1.2c-0.5,0.1-1,0.1-1.3,0.6
	c-0.7,0.7-1.4,1.4-2.2,2.1c-0.9,0.6-1.8,1.2-2.7,1.8c-0.4,0.2-1,0-1.2,0.5c-0.4,0.5-0.8,0.9-1.2,1.4c0.4-0.1,0.8,0,1.2,0.2
	c0.4,0.1,0.7,0.4,1,0.5C56,39.8,55.5,40,55.2,40c-0.2,0-0.5-0.2-0.7-0.2c0-0.3,0.3-0.1,0.4,0c0.3,0.2,0.7,0.1,0.9-0.2
	c-0.1-0.2-0.7-0.5-1.1-0.6c-0.3-0.2-0.7-0.1-1.1-0.1c-0.4,0.1,0.1-0.3,0.2-0.4c0.5-0.5,0.9-1.1,1.3-1.6c0-0.4,0.4-0.7,0.6-1.1
	c0.5-0.7,0.7-1.5,1.1-2.2c0.2-0.3,0.1-0.7,0.1-1c0-0.2,0.1-0.4,0-0.5c-0.3,0.6-0.7,1.2-1,1.8c-0.4,0,0-0.6,0.1-0.8
	c0.3-0.6,0.6-1.2,0.9-1.8c0-0.3,0-0.5,0-0.8c-0.3-0.2-0.4,0.5-0.6,0.7c-0.4,0.7-0.8,1.5-1.3,2.2c0,0.2-0.5,0.4-0.3,0.1
	c0.7-1.2,1.3-2.4,2-3.6c0.3-0.5,0.2-1,0.2-1.6c-0.3-0.4-0.4,0.2-0.6,0.4c-0.3,0.3-0.4,0.8-0.6,1.1c-0.3,0.7-0.7,1.4-1,2.1
	c-0.4-0.2,0.2-0.7,0.2-1c0.3-0.8,0.6-1.7,1-2.5c-0.2-0.3-0.5,0.5-0.7,0.7c-0.3,0.7-0.7,1.3-1,2c-0.4-0.2,0.2-0.7,0.2-1
	c0.2-0.5,0.4-1,0.6-1.5C55,28.4,55.2,28,55,27.9z M57.3,37c0.1,0.3-0.4,0.5-0.6,0.7c-0.3,0.1-1.2,0.3-0.8,0.5
	c0.3-0.1,0.5-0.3,0.8-0.4c0.3,0.3,0.8,0.7,0.8,1.1c-0.3,0.1-0.2-0.6-0.6-0.7c-0.2-0.3-0.4-0.2-0.6-0.1c-0.2,0.1-0.4,0.2-0.6,0.3
	c-0.3-0.4,0-0.8,0.5-0.8C56.7,37.6,56.9,37.2,57.3,37L57.3,37L57.3,37z M59.7,37.9c0,0.4-0.6,0.2-0.8,0.5c-0.3,0.1-0.6,0.6-0.8,0.6
	c-0.3-0.1,0.3-0.3,0.4-0.5C58.9,38.2,59.2,38,59.7,37.9z M62.7,39.4L62.7,39.4z M54.1,39.7c0.4,0.1,0.8,0.2,1.1,0.5
	c0.4,0.2,0.4,0.6,0.6,1c0,0.2-0.2,1-0.4,0.8c0.1-0.3,0.4-0.8,0.1-1.2c0-0.4-0.5-0.6-0.8-0.8c-0.2-0.1-0.5-0.2-0.7-0.2
	C54.1,39.8,54.1,39.8,54.1,39.7z M65.1,39.8c0.8,0,1.6,0.1,2.4,0.1c0.1,0.1-0.2,0.1-0.1,0.1c-1,0-2-0.2-3.1-0.1
	c-0.5-0.1-0.9,0.3-1.4,0.2c-0.3,0.1-0.9-0.1-0.4-0.2c0.5,0.1,0.9,0.1,1.4-0.1C64.2,39.8,64.7,39.8,65.1,39.8z M63.9,40.4
	c0.8,0.1,1.6,0.2,2.5,0.2c0.5,0,1.1,0,1.6,0.1c-0.1,0.3-0.8,0-1.1,0.1c-0.9,0-1.8,0-2.7-0.2C63.9,40.6,63.9,40.6,63.9,40.4z
	 M64.8,41.3c0.3,0.4,0.8,0.4,1.3,0.3c0.6,0,1.2,0.1,1.7-0.1c0.5,0,0,0.3-0.3,0.2c-0.6,0.1-1.1,0-1.7,0c-0.5,0.2-0.8-0.2-1.1-0.3
	c-0.2,0.1-0.5,0.2-0.8,0.2c-0.4,0-0.8,0-1.2,0c-0.1-0.3,0.2-0.1,0.4-0.2c0.4,0,0.8,0,1.2,0C64.4,41.5,64.6,41.4,64.8,41.3z
	 M48.7,41.9c0.4,0.2-0.3,0.6-0.2,0.8c0,0.3,0.1,0.5,0.2,0.1c0.1-0.2,0.1-0.4,0.2-0.5c0.2,0.3,0.4,0.4,0.7,0.4
	c0.1,0.2,0.2,0.8,0.3,0.3c0.1-0.2,0.2-0.5,0.4-0.7c0.3,0.2,0,0.8,0,1.1c0,0.5,0.1,1,0,1.5c0,0.3-0.2,1.1,0.3,0.7
	c0.2-0.1,0.2-0.3,0.3-0.5c0.2-0.4,0.1-0.9,0.3-1.3c0.4-0.1,0,1.1,0.4,0.7c0.1-0.4-0.2-0.7-0.2-1.2c0-0.3,0-0.5,0-0.8
	c0.3-0.1,0.1,0.2,0.2,0.4c0,0.3,0,0.6,0.2,0.9c0.4,0.2,0.4-0.6,0.7-0.7c0.4-0.1,0.2-0.9,0.5-0.8c0,0.5-0.3,0.9-0.6,1.2
	c-0.1,0.2-0.2,0.8-0.6,0.6c0.3,0.3,0,0.9-0.4,0.8c-0.1-0.3-0.1-0.6-0.1-0.1c0,0.4-0.3,0.7-0.4,1c-0.3,0.2-0.9,0.4-0.7-0.2
	c0-0.6,0.1-1.3,0-1.9c0-0.2,0.1-0.9,0-0.7c-0.1,0.3-0.3,0.6-0.4,0.9c-0.2-0.3-0.1-0.9-0.5-0.8c-0.2,0-0.3-0.3-0.4,0.1
	c-0.1,0.1-0.2,0.7-0.4,0.5c0-0.3,0-0.9-0.4-0.5c-0.1-0.3-0.1-0.6-0.2-0.9c0.2-0.1,0.2,0.2,0.3,0.3c0,0.5,0.5,0,0.6-0.2
	C48.7,42,48.7,41.9,48.7,41.9z M55.3,44c0.4,0.9,0.9,1.8,1.4,2.7c0.3,0.6,0.6,1.3,0.7,1.9c-0.1,0.3,0.7,0.8,0.3,0.8
	c-0.4-0.3-0.5-0.8-0.6-1.3c-0.3-0.8-0.7-1.6-1.1-2.4c-0.3-0.6-0.6-1.1-0.9-1.7C55.2,44.1,55.3,44,55.3,44z M54.4,45
	c0.4,0-0.4,0.5,0.1,0.5c0.3,0,0.2,0.4,0.5,0.5c0.6,0-0.1,0.9,0.6,0.8c0.3,0.2,0,0.9,0.5,1c0.4,0.2,0.3,0.7,0.5,1
	c0,0.3,0.2,0.2,0.4,0.1c0.1-0.1,0.4-0.2,0.3,0c-0.2,0.1-0.5,0.2-0.7,0.3c-0.2-0.4-0.3-0.7-0.4-1.1c-0.4-0.3-0.7-0.6-0.6-1.1
	c0.1-0.4-0.6,0-0.4-0.5c0.2-0.5-0.3-0.4-0.4-0.7c0-0.3-0.5-0.3-0.5-0.6C54.2,45.3,54.3,45.1,54.4,45z M51.8,49.6
	c-0.1,0.2-0.7,0.8-0.2,0.4C51.8,49.9,51.9,50,51.8,49.6L51.8,49.6L51.8,49.6z M51.7,51.1c0.5,0.1-0.6,0.5-0.4,0.6
	c0.1-0.1,0.4-0.1,0.3,0.1c-0.2,0.1-0.5,0.1-0.7,0.2C50.8,51.6,51.5,51.4,51.7,51.1L51.7,51.1z M51.8,52.7c0.4,0-0.2,0.4-0.3,0.6
	c-0.4,0.4,0.5-0.4,0.4,0c-0.2,0.1-0.8,0.5-1.1,0.3C51.1,53.3,51.5,53.1,51.8,52.7z M49.4,54.2c0,0.3-0.1,0.7,0.2,0.3
	C49.9,54.3,49.6,54.3,49.4,54.2z M49.2,57.9c0,0.3-0.1,0.7,0.3,0.4c0.3-0.1,0.5-0.3,0-0.3C49.4,57.9,49.3,57.9,49.2,57.9z M49.2,61
	c0.3,0.2,0.9,0.2,0.9,0.5C49.9,61.5,49.2,61.3,49.2,61C49.2,61.1,49.2,61,49.2,61z M48,71.6c-1,0-2,0-3,0c-0.4,0.3-0.9,0.5-1.3,0.8
	c-0.3,0.4,0.4,0.7,0.8,0.6c0.2,0.1,0.8-0.1,0.7,0.2c-0.2,0.5-0.7,0.6-1.1,0.8c-0.2,0.5,0.3,1,0.7,0.6c0.2-0.2,0.4-0.2,0.6,0
	c0.3,0.2-0.2,0.8,0.4,0.7c0.4-0.2,0.7-0.5,1.1-0.8c0.2-0.3,0.6-0.6,0.8-0.1c0.4,0.3,0.8,0.2,1.2,0.2c0.5,0,1.1-0.1,1.4-0.6
	c0.5-0.2,0.9,0.2,1.2,0.6c0.3,0.2,0.9,0.2,0.7-0.3c-0.1-0.4,0-0.7,0.4-0.5c0.5,0.1,0.8,0.4,1.3,0.6c0-0.3,0-1,0.4-0.5
	c0.4,0.3,0.8,0.6,1.3,0.7c0-0.2,0-0.4,0-0.6c0.3-0.3,0.9,0.6,0.8-0.1c0.1-0.2-0.3-0.8,0.1-0.8c0.5,0.2,1,0.3,1.5,0.4
	c-0.3-0.6-0.9-0.9-1.4-1.2c-0.5-0.2-1-0.4-1.5-0.4c-0.6-0.1-1.2,0-1.7-0.1c-0.2-0.2-0.2,0-0.2,0c-0.3,0.5-1,0.4-1.5,0.5
	c-0.7,0.1-1.5,0.1-2.1,0.4c-0.5,0.1-0.9-0.4-1.2-0.6C48.2,72.1,48.1,71.8,48,71.6z"/>
<g>
	<path opacity="0.2" enable-background="new    " d="M10.4,74.3V25.8c0-12.1,8.2-22.7,19.8-25.8H0v100h30.2
		C18.5,96.9,10.4,86.3,10.4,74.3z"/>
	<path opacity="0.1" fill="#FFFFFF" enable-background="new    " d="M89.6,25.8v48.5c0,12.1-8.2,22.7-19.8,25.8H100V0H69.8
		C81.5,3.1,89.6,13.7,89.6,25.8z"/>
</g>
</svg>
