<?xml version="1.0" encoding="utf-8"?>
<!-- Generator: Adobe Illustrator 23.0.0, SVG Export Plug-In . SVG Version: 6.00 Build 0)  -->
<svg version="1.0" id="Layer_1" xmlns="http://www.w3.org/2000/svg" xmlns:xlink="http://www.w3.org/1999/xlink" x="0px" y="0px"
	 viewBox="0 0 100 100" enable-background="new 0 0 100 100" xml:space="preserve">
<desc>Flag of Tenessee, United States</desc>
<rect fill="#CC0000" width="87.5" height="100"/>
<rect x="87.5" fill="#FFFFFF" width="2.1" height="100"/>
<rect x="89.6" fill="#002D65" width="10.4" height="100"/>
<g transform="translate(111,72)">
	<circle fill="#FFFFFF" cx="-65.7" cy="-22" r="27.1"/>
	<circle fill="#002D65" cx="-65.7" cy="-22" r="25"/>
	<g>
		<polygon fill="#FFFFFF" points="-66,-12.4 -66,-21 -71,-14.1 -79.2,-16.7 -74.1,-9.8 -79.2,-2.8 -71,-5.5 -66,1.4 -66,-7.1 
			-57.8,-9.8 		"/>
		<polygon fill="#FFFFFF" points="-48.7,-25.6 -45.2,-33.4 -52.6,-29.2 -59,-34.9 -57.2,-26.5 -64.6,-22.2 -56.1,-21.3 -54.3,-12.9 
			-50.8,-20.8 -42.3,-19.9 		"/>
		<polygon fill="#FFFFFF" points="-73.8,-27.1 -66.4,-22.8 -69.9,-30.6 -63.5,-36.3 -72,-35.5 -75.5,-43.3 -77.3,-34.9 -85.8,-34 
			-78.4,-29.7 -80.2,-21.3 		"/>
	</g>
</g>
<g>
	<path opacity="0.2" enable-background="new    " d="M9.4,73.3V24.8C9.4,12.7,17.5,2.1,29.2-1H-1V99h30.2
		C17.5,95.9,9.4,85.3,9.4,73.3z"/>
	<path opacity="0.1" fill="#FFFFFF" enable-background="new    " d="M88.6,24.8v48.5c0,12.1-8.2,22.7-19.8,25.8H99V-1H68.8
		C80.5,2.1,88.6,12.7,88.6,24.8z"/>
</g>
</svg>
