<?xml version="1.0" encoding="utf-8"?>
<!-- Generator: Adobe Illustrator 23.0.0, SVG Export Plug-In . SVG Version: 6.00 Build 0)  -->
<svg version="1.0" id="Layer_1" xmlns="http://www.w3.org/2000/svg" xmlns:xlink="http://www.w3.org/1999/xlink" x="0px" y="0px"
	 viewBox="0 0 100 100" enable-background="new 0 0 100 100" xml:space="preserve">
<g>
	<g>
		<rect fill="#002868" width="100" height="100"/>
	</g>
</g>
<g>
	<path fill="#FEC224" d="M50,20c16.6,0,30,13.5,30,30c0,16.6-13.4,30-30,30S20,66.6,20,50S33.4,20,50,20z"/>
	<path fill="#012D6A" d="M50,79.2c-16.1,0-29.2-13.2-29.2-29.3S34,20.7,50,20.8c16.2,0,29.3,13.2,29.2,29.3
		C79.2,66.2,66.1,79.3,50,79.2z"/>
	<path fill="#010001" d="M31.8,36.4c1.1-1.5,2.3-2.9,3.6-4.2c2.6-2.4,5.7-4,9-5.1c0.6-0.2,1.3-0.2,1.9-0.2c0.8,0.1,1.3,0.6,1.6,1.3
		c0.2,0.4,0.2,0.9,0.3,1.3c0,0.4,0.2,0.6,0.6,0.5c0.5-0.1,1-0.1,1.6-0.1c0.4,0,0.5-0.1,0.5-0.5c0-0.2,0-0.3,0-0.5
		c0-1.4,0.7-2.1,2.1-2.2c1.7-0.1,3.3,0.6,4.9,1.2c1.5,0.7,3.1,1.4,4.4,2.4c2.4,1.6,4.5,3.5,5.9,6c-0.4,0.5-3.6,3.6-3.9,3.7
		c-0.7-0.2-1.3-0.7-1.9-1c-0.5-0.3-1-0.6-1.5-0.9c-0.8-0.5-1.6-0.9-2.5-1c-0.5-0.1-1-0.3-1.5-0.5c-0.3-0.2-0.6-0.2-0.7,0.2
		c-0.3,0.7-0.8,1.2-1.3,1.8c-0.6,0.6-0.6,0.6,0,1.2c0.1,0.1,0.2,0.2,0.2,0.3s0,0.2-0.1,0.3c-0.2,0.1-0.3,0.1-0.5,0.1
		c-0.2-0.1-0.4,0-0.6,0.1c-0.6-0.1-1.2,0-1.8,0.1c-0.2-0.2-0.3-0.2-0.6-0.1c-0.1,0-0.2,0-0.3,0c-1-0.2-1.9-0.1-2.9,0
		c-0.1,0-0.1,0-0.2,0c-0.2-0.1-0.4-0.1-0.6,0c-0.3,0-0.5,0-0.8,0c-0.2-0.1-0.3-0.1-0.5,0c-0.1,0-0.1,0-0.2,0c-0.1,0-0.3,0-0.4,0
		c-0.2-0.1-0.4,0-0.7-0.1c-0.1-0.1-0.2-0.2-0.2-0.3c0-0.4,0.3-0.5,0.6-0.7s0.3-0.3,0-0.5c-0.4-0.3-0.8-0.6-1.3-0.7
		c-0.3-0.1-0.5-0.1-0.8,0.1c-0.6,0.6-1.4,0.4-1.7-0.4c-0.2-0.6-0.6-0.7-1.1-0.5c-0.2,0.1-0.4,0.1-0.6,0.2c-1.3,0.8-2.7,1.4-3.9,2.5
		c-0.1,0.1-0.3,0.2-0.5,0.2c-0.3-0.2-0.6-0.4-0.8-0.8c-0.1-0.4,0.1-0.7,0.1-1c0.1-0.4-0.1-0.6-0.5-0.5c-0.6-0.1-1.2-0.3-1.7-0.7
		C32.4,37.3,32,36.9,31.8,36.4z"/>
	<path fill="#012D6A" d="M67.1,44.1c0.1,0.5,0,1,0.7,1.2c0.2,0,0.3,0.3,0.1,0.5c-0.3,0.4-0.2,0.7-0.1,1.2c0.3,0.9,0.6,1.8,0.9,2.7
		c0.2,0.7,0.5,1.3,0.7,2c-0.2,0.4-0.7,0.6-1.1,0.8s-0.6,0.4-0.8,0.8c-0.3,0-0.6-0.2-0.8,0.1c-0.6,0.4-1.3,0.7-1.9,1.2
		c-0.5,0.1-0.9,0.4-1.4,0.7c-0.1,0-0.2,0.1-0.3,0.1C62.8,55.6,62.5,56,62,56c-0.1-0.1-0.2-0.2-0.2-0.3c0-0.3,0-0.5-0.1-0.8
		c0-0.1,0-0.1,0-0.2c0-0.2,0-0.4-0.2-0.6c-0.1-0.1-0.1-0.3-0.1-0.4c-0.1-0.2-0.1-0.5-0.2-0.7c-0.1-0.2-0.1-0.5-0.2-0.7
		c0-0.1,0-0.1-0.1-0.2c-0.1-0.3-0.2-0.6-0.3-1c-0.1-0.2-0.1-0.4-0.1-0.7s0.1-0.5,0-0.8c0-0.1,0-0.1,0-0.2c0-0.4,0-0.8,0-1.2
		c0.1-0.3,0.1-0.6,0.1-0.8c0.1-0.9,0.3-1.7,0.9-2.3c0.4-0.3,0.7-0.5,0.9-0.9c0.2-0.3,0.6-0.5,0.8-0.7c0.2-0.1,0.3-0.2,0.5-0.4
		c0,0,0.1,0,0.1-0.1c0.2-0.1,0.3-0.2,0.4-0.4c0.5-0.7,0.8-1.4,1.2-2.2c0.2-0.3,0.5-0.4,0.9-0.3c0.3,0.1,0.3,0.4,0.3,0.6
		c0,0.3,0,0.7,0.1,1c0,0.1,0,0.2,0,0.3c0,0.2-0.1,0.4,0,0.6l0,0c0.2,0.1,0.1,0.3,0.1,0.5c0,0,0,0.1,0.1,0.1
		C67,43.7,66.9,44,67.1,44.1z"/>
	<path fill="#012D6A" d="M30.8,51.7c0.4-1,0.7-2,1-3.1c0.5-1.6,1.1-3.2,1.4-4.9c0-0.1,0.1-0.2,0.1-0.3c0.1-0.2,0-0.5,0-0.7
		c0-0.3,0-0.5,0.1-0.8c0.1-0.4,0-0.8,0.1-1.1c0-0.3,0.1-0.5,0.4-0.6c0.2,0,0.5,0,0.7,0.2c0.4,0.8,0.8,1.6,1.3,2.3
		c0.1,0.3,0.2,0.5,0.5,0.6c0.5,0.2,0.8,0.5,1.2,0.8c0.1,0.1,0.1,0.2,0.2,0.3c0.2,0.2,0.4,0.6,0.7,0.6c0.7,0.7,0.9,1.6,1.1,2.5
		c0,0.3,0,0.6,0.1,0.9c0,0.1,0,0.1,0,0.2c0,0.4,0,0.8,0,1.2c-0.1,0.2-0.1,0.5-0.1,0.7c0,0.3,0,0.5-0.1,0.7c-0.3,1-1,3.4-1,3.5
		c-0.1,0.3,0,0.6-0.1,0.9c0,0.1,0,0.1-0.1,0.2c-0.6,0.2-0.9-0.4-1.3-0.6c-0.1-0.1-0.2-0.1-0.3-0.1c-0.4-0.2-0.8-0.4-1.1-0.7
		c-0.1-0.1-0.3-0.2-0.5-0.2c-0.6-0.2-1-0.6-1.6-0.9c-0.1,0-0.1,0-0.1-0.1c-0.2-0.2-0.4-0.3-0.6-0.4c-0.1-0.1-0.2-0.1-0.2-0.2
		l-0.1-0.1c-0.2-0.1-0.3-0.2-0.5-0.2C31.6,52.3,31.1,52.1,30.8,51.7z"/>
	<path fill="#FEFEFE" d="M32.9,52.9c0.2,0.2,0.5,0.2,0.6,0.5c0.2,0.3,0,0.7,0,1c0,0.2,0,0.5,0.1,0.7c0,0.1,0,0.1,0,0.2
		c0,0.2,0,0.5,0.1,0.7c0,0.1,0,0.2,0,0.2c0,0.2,0.1,0.5,0.2,0.7c0.1,0.2,0.2,0.5,0.3,0.8c0.1,0.2,0.2,0.4,0.3,0.5
		c0.2,0.4,0.5,0.7,0.7,1.1c0.1,0.2,0.3,0.3,0.4,0.5c0.2,0.2,0.3,0.3,0.5,0.5c0.1,0.1,0.3,0.2,0.4,0.3c0.4,0.3,0.7,0.5,1.1,0.8
		c0.1,0.1,0.3,0.2,0.4,0.3c0.1,0,0.2,0.1,0.3,0.1c-0.1-0.1-0.2-0.1-0.3-0.2c-0.1-0.1-0.3-0.2-0.3-0.3c-0.2-0.3-0.4-0.5-0.7-0.7
		c-0.1-0.1-0.2-0.2-0.3-0.3c-0.1-0.2-0.2-0.4-0.4-0.5c-0.6-0.8-1-1.7-1.2-2.6c0-0.2,0-0.5-0.1-0.7c-0.1-0.5,0-0.9,0-1.4
		c0-0.1,0-0.1,0-0.2c0.1-0.2,0.1-0.4,0.4-0.5c0.1,0,0.2,0,0.2,0.1c0.3,0.2,0.7,0.4,1,0.6c0.3,0.4,0,0.9,0.2,1.3c0,0.1,0,0.1,0,0.2
		c0,0.3,0.1,0.5,0.2,0.7c0.2,0.7,0.6,1.3,1.1,1.9c0.3,0.4,0.6,0.7,0.9,0.9c0.5,0.4,1,0.7,1.5,1c0,0.1,0,0.2,0,0.2
		c-0.6,0.6-1.1,1.1-1.7,1.7c-0.1,0.1-0.2,0.2-0.3,0.2s-0.2,0-0.2,0c-1.1-0.4-2.1-0.9-2.9-1.7c-0.1-0.2-0.3-0.4-0.5-0.5l-0.1-0.1
		c-0.2-0.3-0.4-0.5-0.7-0.7c-0.8-0.9-1.3-1.9-1.6-3c0-0.3-0.1-0.6-0.2-0.9c0-0.1,0-0.2,0-0.3c-0.1-0.5-0.2-1.1,0-1.6
		c0-0.2,0-0.4,0-0.6c0.1-0.2,0.1-0.4,0.1-0.6C32.6,53.2,32.6,52.9,32.9,52.9z"/>
	<path fill="#FEFEFE" d="M63.5,55.2c0.4-0.2,0.7-0.4,1.1-0.6c0.1-0.1,0.2,0,0.3,0.1c0.1,0.1,0.1,0.1,0.2,0.2c0.1,0.6,0.2,1.2,0,1.8
		c-0.1,0.8-0.3,1.6-0.7,2.3c-0.1,0.2-0.2,0.3-0.3,0.5c-0.1,0.1-0.2,0.3-0.3,0.4c-0.1,0.1-0.3,0.1-0.3,0.4c-0.1,0.2-0.2,0.3-0.3,0.4
		c-0.2,0.2-0.4,0.4-0.7,0.7c-0.1,0.1-0.3,0.2-0.4,0.4L62,61.9c0.1,0,0.2-0.1,0.2-0.2c0.2-0.1,0.4-0.1,0.5-0.3
		c0.3-0.2,0.6-0.4,0.9-0.6c0.2-0.1,0.3-0.3,0.5-0.4c0.2-0.2,0.3-0.3,0.5-0.5s0.3-0.3,0.4-0.5c0.7-1,1.3-2.1,1.5-3.3
		c0.1-0.2,0.1-0.5,0.1-0.7c0.2-0.6,0-1.2,0-1.8c0-0.1,0.1-0.1,0.1-0.2c0.4-0.5,0.6-0.5,0.8,0c0,0,0,0,0.1,0.1s0.1,0.3,0.1,0.5
		c0,0.1,0,0.1,0,0.2c0,0.2,0,0.3,0,0.5s0,0.5,0.1,0.7c0.1,0.3,0,0.5-0.1,0.8c0,0.2,0,0.5,0,0.7c0,0.1,0,0.1,0,0.2
		c-0.1,0.2-0.1,0.4-0.2,0.6c0,0.1,0,0.2-0.1,0.2c-0.1,0.2-0.1,0.4-0.2,0.6C67,59,66.6,59.7,66,60.3c-0.2,0.2-0.4,0.4-0.6,0.6
		L65.3,61c-0.2,0.2-0.4,0.4-0.6,0.6c-0.8,0.8-1.8,1.3-2.8,1.7c-0.1,0-0.2,0-0.2,0c-0.4-0.1-0.6-0.5-0.9-0.8
		c-0.4-0.3-0.7-0.7-1.1-1.1c-0.1-0.1,0-0.2,0.1-0.3c0.2-0.2,0.5-0.4,0.8-0.5c0.2-0.1,0.3-0.2,0.4-0.3c0.1-0.1,0.2-0.2,0.3-0.2
		c0.4-0.2,0.6-0.5,0.9-0.9c0.6-0.9,1.2-1.8,1.2-2.9C63.3,55.9,63.2,55.5,63.5,55.2z"/>
	<path fill="#FCC224" d="M61.1,52.2C61.1,52.3,61.1,52.3,61.1,52.2c-0.1,0.4,0.1,0.6,0.2,0.9c0,0.3,0.1,0.7,0.2,1
		c0.2,1.2,0.3,2.4-0.1,3.6c-0.1,0.3-0.3,0.7-0.4,1c0,0.1-0.1,0.2-0.2,0.3c-0.2,0.2-0.4,0.3-0.5,0.6c0,0.1-0.1,0.1-0.2,0.2
		c-0.2,0.1-0.4,0.2-0.5,0.4s-0.3,0.3-0.5,0.4c-0.1,0-0.1,0-0.2,0c-2,0.6-4,1.1-5.8,2.1c-0.1,0.1-0.2,0.2-0.3,0.3s-0.3,0.2-0.4,0.2
		c0,0,0,0-0.1,0c-0.8,0.4-1.3,1-1.9,1.6c-0.3,0.3-0.4,0.4-0.7,0c-0.5-0.6-1-1.1-1.7-1.5c-0.2,0-0.4-0.1-0.5-0.3
		c-1-0.6-2-1.1-3.1-1.4c-1.1-0.4-2.1-0.7-3.2-1.1c-0.1,0.1-0.2,0.1-0.3,0.1c-0.9-0.4-1.6-1-1.9-1.9c-0.5-1.3-0.7-2.6-0.5-3.9
		c0.2-1.1,0.5-2.2,0.8-3.2c0.2-0.5,0.2-1,0.2-1.5c0.2-1.6,0.2-3.2-0.8-4.6c-0.2-0.2-0.4-0.4-0.6-0.6c-0.2-0.2-0.4-0.5-0.3-0.8
		c0-0.1,0.1-0.2,0.2-0.3c0.1-0.1,0.2-0.3,0.3-0.5s0.2-0.4,0.3-0.5c0.3-0.4,0.3-0.9,0.8-1.1c0.1,0,0.2,0,0.3,0s0.2,0.1,0.2,0.1
		c0.1,0.1,0.3,0.2,0.1,0.4c-0.8,0.4-1,1.2-1.3,2c-0.1,0.2,0,0.3,0.1,0.5c1.5,1.8,1.8,3.9,1.4,6.1c-0.2,1-0.5,2-0.8,3.1
		c-0.4,1.3-0.4,2.5-0.1,3.8c0.3,1.1,0.9,1.8,1.8,2.4c0.9,0.5,1.8,0.8,2.8,1.1c2,0.8,4.1,1.6,5.7,3.1c0.4,0.4,0.6,0.1,0.9-0.2
		c1.1-0.9,2.3-1.7,3.6-2.3c1.1-0.5,2.3-0.7,3.4-1.2c0.6-0.2,1.1-0.5,1.6-0.9c1.1-0.9,1.5-2,1.6-3.4C61,55,60.8,54,60.5,53
		c-0.5-1.3-0.7-2.7-0.8-4.1c0-1.5,0.4-3,1.4-4.2c0.4-0.4,0.4-0.8,0.1-1.2c-0.3-0.5-0.4-1.1-1.1-1.4C60,42.1,60,42,60,41.9
		c0.1-0.2,0.3-0.3,0.5-0.3c0.1,0,0.1,0,0.2,0c0.5,0.2,0.5,0.7,0.8,1c0.1,0.1,0.1,0.3,0.2,0.4c0.1,0.2,0.3,0.4,0.3,0.6
		c0.1,0.1,0.1,0.3,0.2,0.4c0.1,0.2,0.1,0.3,0,0.5c-0.9,0.9-1.5,1.9-1.7,3.1c-0.1,0.9-0.2,1.8,0.1,2.7c0,0.1,0,0.1,0,0.2
		c-0.1,0.3,0.1,0.6,0.1,1C60.9,51.7,60.8,52,61.1,52.2z"/>
	<path fill="#E41837" d="M61.8,63.3c0.8-0.4,1.6-0.7,2.3-1.3c0.2-0.2,0.3-0.4,0.6-0.5c0.3-0.1,0.5-0.4,0.6-0.6l0,0
		c0.2-0.2,0.5-0.4,0.6-0.6c0.5-0.6,0.9-1.3,1.3-2c0.1-0.2,0.3-1.3,0.4-1.5l0,0c0.2-0.2,0-0.5,0.1-0.7c0.2-0.5,0.1-1,0-1.5
		c0-0.1,0-0.1,0-0.2c0-0.2,0.1-0.4-0.1-0.6l0,0c-0.1-0.2,0-0.4-0.1-0.6l0,0c-0.1-0.4,0.1-0.6,0.4-0.8c0.5-0.2,1-0.5,1.4-0.8
		c0.1,0.2,0.2,0.4,0.2,0.7c0.1,0.2,0,0.4,0.1,0.6l0,0c0.1,0.2,0.1,0.5,0.1,0.7c0,0.4,0,0.9,0,1.3c0,0.3,0,0.5-0.1,0.8
		c-0.1,0.2,0,0.5-0.1,0.8c-0.3,1.2-0.8,2.2-1.6,3.2c-0.2,0.1-0.3,0.4-0.5,0.6c-0.2,0.2-0.5,0.4-0.7,0.6c-0.1,0.1-0.2,0.3-0.4,0.3
		c-1.3,0.9-2.7,1.7-4.2,2.1C62.1,63.4,61.9,63.5,61.8,63.3z"/>
	<path fill="#E41837" d="M32.5,56.2c0,0.1,0,0.1,0,0.2c-0.1,0.3,0.1,0.6,0.2,0.9c0.4,1.1,0.9,2,1.6,2.9c0.2,0.2,0.5,0.4,0.6,0.7l0,0
		c0.2,0.1,0.4,0.3,0.6,0.5c0.9,0.8,1.9,1.3,2.9,1.7c-0.1,0.3-0.3,0.2-0.5,0.1c-0.4,0-0.7-0.2-1-0.4c-0.2,0-0.3-0.1-0.5-0.1
		c-0.9-0.5-1.9-0.9-2.7-1.6c-0.4-0.4-0.8-0.7-1.2-1.2c-0.1-0.2-0.4-0.3-0.4-0.5c-0.7-0.9-1.2-2-1.4-3.2c-0.1-0.2,0-0.4-0.2-0.6
		c0-0.1,0-0.1,0-0.2c0-0.2,0.1-0.4,0-0.6c0-0.5-0.1-0.9,0-1.4c0-0.2,0-0.5,0-0.7c0.1-0.2,0-0.5,0.2-0.8c0-0.2,0-0.4,0.1-0.5
		c0.4,0.2,0.8,0.5,1.2,0.7c0.2,0.1,0.4,0.2,0.6,0.3l0,0c0.1,0.5-0.1,0.8-0.2,1.3c0,0.2,0,0.4,0,0.6C32.3,55.1,32.3,55.7,32.5,56.2z"
		/>
	<path fill="#FDFDFD" d="M57.1,64.1c0,0.3,0,0.5,0,0.8c0,0.2,0.1,0.4,0.1,0.6c0,0.4,0,0.7,0,1.1c0,0.1,0,0.3,0.2,0.2
		c0.3-0.1,0.6-0.3,0.9-0.4c0.1,0,0.3-0.2,0.3,0.1c-0.6,0.6-1.4,0.9-2.1,1.4c-0.5,0.3-1,0.5-1.5,0.8c0,0-0.1,0-0.1-0.1
		c-0.2-0.3-0.1-0.9-0.5-0.9c-0.3,0-0.6,0.3-0.9,0.5c-0.5,0.3-0.9,0.6-1.4,0.9L52,69c0-1.8,0-3.5,0-5.3c0-0.2,0.1-0.3,0.2-0.4l0,0
		c0.1-0.1,0.3-0.2,0.5-0.3c0.3-0.1,0.4-0.2,0.6-0.2c0.9-0.3,1.8-0.8,2.7-0.9c0.2,0,0.4,0,0.6,0.2c0.4,0.4,0.8,0.8,1.2,1.2
		c0.1,0.1,0,0.1-0.1,0.2c-0.2,0-0.3-0.1-0.4-0.1c-0.1,0-0.1,0-0.2,0"/>
	<path fill="#FDFDFD" d="M42.1,63.4c0.4-0.5,0.9-0.9,1.3-1.4c0.2-0.2,0.4-0.2,0.6-0.2c1.2,0.2,2.3,0.7,3.4,1.2
		c0.3,0.1,0.4,0.2,0.4,0.5c0,1.7,0,3.5,0,5.2c0,0.1,0,0.2-0.1,0.2c-0.7-0.5-1.4-0.9-2.1-1.4c-0.3-0.2-0.4-0.2-0.5,0.2
		c0,0.2-0.1,0.3-0.1,0.4c-0.1,0.2-0.1,0.3-0.3,0.2c-1.1-0.7-2.4-1.2-3.4-2.1l0.1-0.1c0.1,0,0.3,0,0.4,0.1c0.2,0.1,0.4,0.2,0.6,0.3
		h0.1c0.3-0.2,0.1-0.5,0.1-0.7s0-0.3,0-0.5c0.1-0.3,0.1-0.7,0.1-1c0-0.2,0-0.3,0-0.5s0.1-0.5-0.1-0.7c0,0-0.1,0-0.1,0.1
		C42.3,63.3,42.2,63.5,42.1,63.4C42.2,63.6,42.1,63.5,42.1,63.4z"/>
	<path fill="#020102" d="M69,37.7c1.1,1.8,1.8,3.8,2.2,5.9c0.2,1.3,0.4,2.6,0.1,3.9c0,0.2,0,0.4-0.2,0.5s-0.3-0.1-0.5-0.2
		c-0.7-0.6-0.9-1.5-1.4-2.2c-0.6-0.7-1.3-1.2-1.5-2.1c-0.1-0.5-0.4-0.9-0.9-1c-0.1-0.1-0.1-0.2-0.1-0.3c0-0.2,0.3-1.5,0.5-2
		C67.3,40.2,68.6,37.7,69,37.7z"/>
	<path fill="#030203" d="M33.4,42.8c-0.7,0.5-1.3,1-1.4,1.9c-0.1,0.7-0.5,1.3-1,1.8c-0.2,0.2-0.3,0.5-0.5,0.8
		c-0.2,0.5-0.5,1.1-0.9,1.5c-0.2,0.2-0.3,0.4-0.6,0.3c-0.2-0.1-0.2-0.4-0.3-0.6c-0.3-2.1,0-4.1,0.5-6.2c0.4-1.4,1-2.8,1.6-4.1
		c0.1-0.2,0.1-0.4,0.2-0.6c0.4,0.1,0.5,1.4,0.8,1.3c0.1,0,1.3,3.4,1.8,3.4c0.1,0.1,0.1,0.3,0.1,0.4C33.4,42.7,33.4,42.8,33.4,42.8z"
		/>
	<path fill="#904A2E" d="M57.6,61.7c0.3-0.2,0.6-0.3,1-0.4c2,1.9,3.9,3.8,5.9,5.7c0.1,0.1,0.2,0.2,0.2,0.3c-0.1,0.4-0.2,0.7-0.4,0.9
		c-0.2,0-0.3-0.2-0.5-0.3C61.9,66,59.9,64,58,62.1C57.8,62,57.6,61.9,57.6,61.7z"/>
	<path fill="#904A2E" d="M41.7,61.3c0.3,0.1,0.7,0.2,1,0.4c-0.8,0.9-1.7,1.7-2.5,2.5c-1.2,1.2-2.4,2.4-3.6,3.6
		c-0.2,0.2-0.3,0.4-0.6,0.4c-0.2-0.2-0.3-0.5-0.4-0.8c0.1-0.2,0.2-0.4,0.4-0.5c1.7-1.8,3.6-3.4,5.4-5.2
		C41.4,61.4,41.5,61.3,41.7,61.3z"/>
	<path fill="#BA7F3B" d="M33.2,38.7c-0.1-0.2-0.3-0.3-0.5-0.5c0-0.1-0.1-0.2,0-0.3s0.2,0,0.3,0c0.2,0.1,0.3,0.2,0.5,0.3
		c0.3,0.2,0.4,0.1,0.6-0.1c0.2-0.3,0-0.4-0.2-0.5c-0.9-0.5-1.8-0.8-2.7-1.3c-0.2-0.1-0.5-0.1-0.4-0.4c0.4,0,0.7,0.3,1.1,0.4
		c0.3,0.1,0.6,0.3,0.9,0.4c0.2-0.1,0.3,0,0.4,0.1c0.5,0.3,1.1,0.6,1.6,0.7c0.3,0.1,0.3,0.4,0.3,0.6c0,0.4,0.1,0.7,0.2,1.1
		c0.2,0.2,0.5,0.5,0.7,0.7c0.6,0.4,1.1,0.9,1.6,1.4c0.4,0.4,0.9,0.8,1.3,1.3c-0.1,0.2-0.2,0.3-0.3,0.5c-1.2-1.1-2.4-2.2-3.6-3.3
		c-0.3-0.2-0.4-0.6-0.5-1c-0.3,0.2-0.5,0.5-0.8,0.7c0.4,0.2,0.8,0.2,1.1,0.5c0,0.1,0,0.2,0,0.2s-0.1,0.1-0.2,0
		C34.4,40.1,34.2,40,34,40c-0.2-0.1-0.3,0-0.5,0c-0.1,0-0.1,0-0.2,0c-0.3,0-0.5,0-0.8,0c-0.6-0.3-0.6-0.8-0.7-1.3l0,0
		c-0.2,0.3-0.3,0-0.4-0.3c0-0.3-0.2-0.5-0.3-0.7c-0.3-0.6-0.6-1.2-1-1.9c0.3,0,0.4,0.1,0.6,0.2c0.1,0.5,0.5,0.8,0.7,1.3
		c0.4,0.7,0.8,1.3,1.2,1.9"/>
	<path fill="#BA7F3B" d="M67.6,40.3c-0.1,0-0.1,0-0.2,0c-0.2,0.1-0.3,0.1-0.5,0.1c-0.1,0-0.1,0-0.2,0s-0.3-0.1-0.4,0
		c-0.3,0-0.6,0-0.7,0.3c-0.2,0.1-0.3-0.1-0.4-0.1c-0.2-0.3,0.1-0.4,0.3-0.5c0.3-0.2,0.6-0.2,0.9-0.3c-0.2-0.3-0.5-0.5-0.7-0.8
		c-0.3,1.3-1.5,1.7-2.2,2.6c-0.4,0.4-0.9,0.8-1.3,1.2c-0.1,0.1-0.2,0.3-0.5,0.2c-0.1-0.1-0.2-0.2-0.2-0.4s0.2-0.3,0.3-0.4
		c0.8-0.6,1.5-1.4,2.2-2.1c0.1-0.1,0.3-0.2,0.4-0.2c0.2-0.2,0.5-0.3,0.6-0.6c-0.1-0.5,0.3-0.9,0.3-1.4c0.1,0,0.2-0.1,0.3-0.1
		c0.3-0.4,0.7-0.5,1.2-0.5c0.5-0.2,1-0.5,1.5-0.7s1-0.4,1.6-0.6c-0.3,0.7-0.7,1.3-1,1.9c-0.1,0.1-0.2,0.3-0.3,0.5
		c-0.1,0.4-0.2,0.8-0.6,1c0-0.1,0,0,0,0.1C68,39.8,67.9,40.1,67.6,40.3z"/>
	<path fill="#BA7F3D" d="M57.6,61.7c1.6,1.6,3.2,3.1,4.7,4.7c0.6,0.6,1.2,1.3,1.9,1.9c-0.1,0.3-0.2,0.4-0.5,0.1
		c-2.2-2.2-4.3-4.3-6.5-6.5C57.3,61.8,57.4,61.7,57.6,61.7z"/>
	<path fill="#BB803D" d="M35.9,68.1c0.4-0.2,0.6-0.5,0.9-0.8c1.8-1.7,3.5-3.5,5.2-5.2c0.2-0.2,0.3-0.4,0.6-0.4
		c0.2,0.1,0.4,0.1,0.2,0.4c-2.1,2.1-4.2,4.2-6.4,6.3C36,68.8,36.1,68.3,35.9,68.1z"/>
	<path fill="#E31837" d="M58.7,66.4c-0.5,0-0.8,0.3-1.2,0.5c-0.3,0.1-0.3-0.1-0.3-0.3c0-0.3,0-0.7,0-1s-0.1-0.6-0.1-0.9
		c0-0.2,0-0.5,0-0.7s0-0.4,0-0.6c0-0.1,0.1-0.2,0.2-0.1c0,0,0.1,0,0,0.1c0.2,0,0.2,0.2,0.4,0.2c0.2,0.1,0.4,0.3,0.5,0.4
		c0.1,0.1,0.3,0.3,0.5,0.4c0.1,0.1,0.2,0.2,0.3,0.3c0,0.1,0,0.2-0.1,0.2c-0.1,0.4,0,0.8-0.1,1.2c0,0.1-0.1,0.1-0.1,0.2
		C58.8,66.3,58.7,66.3,58.7,66.4z"/>
	<path fill="#FCFCFD" d="M48.9,70.1c0.4,0,0.7,0.1,0.9,0.4s0.1,0.6-0.2,0.8c-0.2,0.2,0,0.2,0,0.4c0.3,0.4,0.2,0.9-0.2,1.2
		c-0.4,0.3-1.1,0.2-1.5-0.2c-0.3-0.4-0.3-0.8,0.1-1.2c0.1-0.1,0.2-0.1,0.1-0.3C47.8,70.7,48.1,70.1,48.9,70.1z"/>
	<path fill="#FCFCFD" d="M51.8,72c-0.7,0.3-1.2,0.1-1.4-0.4c-0.2-0.6,0.1-1.2,0.6-1.4c0.6-0.2,1.1,0.1,1.3,0.7
		c0.2,0.5,0.2,1,0.1,1.5c-0.1,0.4-0.4,0.7-0.8,0.8c-0.3,0.1-0.6,0-0.9-0.2c-0.1-0.1-0.3-0.3-0.1-0.4c0.1-0.1,0.3-0.1,0.5-0.1
		C51.6,72.8,51.7,72.7,51.8,72z"/>
	<path fill="#FBFCFC" d="M53.4,71c0.7-0.4,1.1-0.3,1.4,0.2c0.3,0.5,0.1,1.2-0.4,1.4c-0.5,0.3-1.1,0.1-1.4-0.5
		c-0.2-0.5-0.4-1-0.3-1.5c0.1-0.7,1-1.1,1.5-0.7c0.1,0.1,0.3,0.2,0.2,0.4c-0.1,0.1-0.3,0.2-0.4,0.1C53.4,70.2,53.3,70.3,53.4,71z"/>
	<path fill="#B87D3D" d="M64.6,67.3c-0.4-0.3-0.7-0.7-1.1-1c-1.5-1.5-3.1-3-4.6-4.5c-0.1-0.1-0.3-0.3-0.4-0.5
		c0.2-0.1,0.4,0.1,0.5,0.2c1.8,1.8,3.6,3.5,5.4,5.3C64.6,66.9,64.8,67,64.6,67.3z"/>
	<path fill="#B87D3D" d="M41.7,61.3c-1.5,1.7-3.3,3.2-4.9,4.8c-0.4,0.4-0.8,0.8-1.3,1.2c-0.1-0.3,0.1-0.4,0.2-0.5
		c1.8-1.8,3.6-3.5,5.4-5.3C41.3,61.3,41.4,61.1,41.7,61.3z"/>
	<path fill="#FAFBFC" d="M46.3,70.6c-0.3,0.1-0.5,0.2-0.8,0.1c0-0.2,0-0.5,0.3-0.5s0.5-0.1,0.7-0.3c0.2-0.2,0.3-0.1,0.5,0
		s0,0.2,0,0.4c-0.2,0.7-0.3,1.5-0.5,2.2c0,0.2-0.1,0.3-0.4,0.3c-0.3-0.1-0.3-0.2-0.2-0.4C46,71.8,46.1,71.2,46.3,70.6z"/>
	<path fill="#F9F9FA" d="M58.8,66.3L58.8,66.3c0.2-0.6-0.1-1.1,0.1-1.5c0,0,0,0,0.1-0.1c0-0.1,0-0.1,0-0.2c0.1,0.1,0.2,0.1,0.3,0.2
		c0.2,0.3,0.7,0.4,0.6,0.8C59.7,65.8,59.3,66.2,58.8,66.3z"/>
	<path fill="#F9FAFA" d="M41.3,66.3c-0.1,0-0.1,0-0.2,0C40,65.5,40,65.5,41,64.6c0.5,0.1,0.2,0.6,0.4,0.8c0,0.2,0.1,0.4,0,0.6
		C41.4,66.1,41.3,66.2,41.3,66.3z"/>
	<path fill="#EBECEE" d="M41.2,65.5c-0.2-0.2,0-0.6-0.2-0.8c0.4-0.4,0.8-0.8,1.2-1.2l0.1,0.1v0.1c-0.1,0.2-0.3,0.3-0.4,0.4
		c-0.1,0.1-0.3,0.2-0.4,0.3c0,0.1-0.1,0.1-0.1,0.2c-0.1,0.2,0,0.4-0.1,0.6C41.3,65.3,41.3,65.4,41.2,65.5z"/>
	<path fill="#EFF0F1" d="M59,64.5c0,0.1,0,0.1,0,0.2c-0.1-0.1-0.2-0.2-0.3-0.2c-0.2-0.1-0.3-0.3-0.5-0.4c-0.1-0.1-0.3-0.3-0.4-0.4
		c-0.1-0.1-0.1-0.1,0-0.2l0.1-0.1C58.3,63.7,58.7,64.1,59,64.5z"/>
	<path fill="#B7BDC7" d="M41.1,60.5c0.1,0,0.2,0,0.2,0c-0.2,0.4-0.5,0.7-0.8,0.9c0-0.1,0-0.1,0-0.2C40.6,60.9,40.9,60.7,41.1,60.5z"
		/>
	<path fill="#182435" d="M33.4,42.8L33.4,42.8C33.4,42.7,33.5,42.7,33.4,42.8c0.1-0.1,0.1-0.1,0.2-0.1c0,0.2,0.1,0.5-0.1,0.7
		C33.4,43.2,33.4,43,33.4,42.8z"/>
	<path fill="#012D6A" d="M64.3,39.8c-1,1-1.9,1.9-3,2.8c-0.2-0.3-0.3-0.8-0.7-1c0-0.1,0-0.2,0.2-0.3c-0.6,0.1-1.2,0-1.7,0.1
		c-0.1,0-0.1,0-0.2,0c-0.4-0.1-0.8-0.1-1.1-0.6c0.2-0.4,0.6-0.4,1-0.6c0.2,0,0.3,0.1,0.5,0.1c0.3-0.1,0.5-0.4,0.6-0.6
		c0.1-0.1,0.1-0.1,0.2-0.2l0,0c0,0,0-0.1,0,0c-0.4,0.1-0.8,0.1-1.1,0.2c-0.2,0.1-0.1,0.4-0.3,0.5c-0.5,0.3-0.9,0.5-1.5,0.6
		c-0.1-0.1-0.3-0.2-0.3-0.3c0-0.4,0.3-0.4,0.6-0.5c0.2-0.1,0.3,0.1,0.5-0.1c0.2-0.2,0.4-0.5,0.7-0.7c-0.3-0.1-0.5,0.1-0.7,0.1
		c-0.3,0-0.3,0.2-0.5,0.4c-0.3,0.3-0.7,0.5-1.1,0.5c-0.4-0.2-0.9,0-1.2-0.2c-1.1-0.9-1.1-0.9-0.1-1.9c0.5-0.5,0.8-1,1.1-1.6
		c0.1-0.4,0.3-0.5,0.7-0.3c0.6,0.4,1.4,0.6,2.1,0.7c1.1,0.2,1.9,0.9,2.8,1.4C62.6,38.8,63.5,39.4,64.3,39.8z"/>
	<path fill="#012D6A" d="M38.9,42.7c-0.2,0-0.3-0.2-0.4-0.3c-0.8-0.8-1.7-1.6-2.5-2.4c0.5-0.2,0.8-0.7,1.2-1c0.9-0.7,1.9-1,2.8-1.7
		c0.3-0.2,0.7-0.2,1-0.3c0.5-0.1,0.9-0.2,1.1,0.5c0.2,0.8,1,0.9,1.5,0.4c0.2-0.2,0.4-0.3,0.6-0.2c0.7,0.2,1.3,0.6,1.9,1.1
		c0.2,0.2,0.2,0.4-0.1,0.5c-0.3,0.2-0.7,0.3-0.8,0.7c-0.4,0.2-0.9,0.1-1.3,0.1c-0.4,0-0.7-0.1-1-0.4c-0.2-0.2-0.2-0.5-0.6-0.5
		c-0.3-0.1-0.5-0.1-0.8-0.2c0.1,0.2,0.3,0.3,0.4,0.4c0.1,0.1,0.2,0.3,0.4,0.4c0.2,0.2,0.3,0,0.5,0c0.3,0.1,0.6,0.2,0.7,0.5
		c0,0.1-0.1,0.2-0.2,0.3c-0.7,0.2-1.1-0.3-1.7-0.5c-0.2-0.1-0.1-0.4-0.4-0.5c-0.4-0.1-0.8-0.1-1.3-0.2c0.3,0.3,0.5,0.5,0.8,0.7
		c0.1,0,0.1,0.1,0.2,0.1c0.2,0.1,0.3,0,0.5,0c0.3,0,0.6,0.2,0.9,0.3c0.2,0.1,0.3,0.2,0.1,0.4c-0.3,0.2-0.7,0.4-1.1,0.4
		c-0.6-0.1-1.2,0.1-1.7-0.1c0.1,0.1,0.2,0.1,0.1,0.3C39.2,41.9,39.1,42.3,38.9,42.7z"/>
	<path fill="#FEFEFE" d="M45.5,36.2c-0.2-0.1-0.4-0.2-0.6-0.3c-0.2-0.1-0.5-0.1-0.4-0.4c0.1-0.3,0.3-0.5,0.6-0.6
		c0.4-0.1,0.8-0.1,1.2-0.1c0.7,0.1,1.4,0.1,2.2,0.2c0.4,0,0.7,0,1-0.2c0.2-0.1,0.3-0.5,0.6-0.1c0.1,0.1,0.3-0.2,0.3-0.3
		c0.1-0.3,0.2-0.7,0.5-1c0.2-0.2,0.4-0.4,0.7-0.2c0.2,0.2,0,0.4-0.1,0.6c-0.2,0.3-0.4,0.5-0.7,0.8c0.4-0.1,0.7,0,0.6,0.5
		c0,0.2,0.2,0.2,0.3,0.2c0.2-0.1,0.3-0.1,0.5-0.2c0.2,0,0.4-0.1,0.5,0.1c0.1,0.2-0.1,0.4-0.3,0.5s-0.5,0.1-0.7,0.2
		c0,0.2,0.1,0.3,0.3,0.4c0.4,0.3,0.4,0.5,0,0.8s-0.9,0.1-1.4,0.4c0.5,0.3,1.1,0.2,1.7,0.3c-0.6,0.6-1.4,0.5-2.1,0.7
		c0.4,0.1,0.8,0.2,1.3,0.3C50.6,39,49.9,39,49.1,39c0.4,0.4,0.9,0.3,1.4,0.7c-1.5,0.3-2.7-0.1-3.8-1c-0.2-0.1-0.3-0.3,0-0.4
		c0.1-0.2,0.4-0.3,0.3-0.5c-0.1-0.3-0.3-0.4-0.5-0.7C46.1,36.7,45.8,36.5,45.5,36.2z"/>
	<path fill="#FDFDFC" d="M48.2,40.3C48.3,40.3,48.3,40.3,48.2,40.3c1.1,0,2.1-0.1,3.2,0c0.2,0,0.3,0.2,0.5,0.2s0.3-0.1,0.4-0.1
		c0.2-0.1,0.4,0,0.6,0.1c0.2,0.2,0.3,0,0.4-0.1c0.2-0.1,0.4-0.1,0.6,0c0.2,0,0.3,0.3,0.5,0.1c0.1-0.1,0.1-0.2,0.2-0.2
		c0.1,0,0.1,0,0.2,0c0.3,0,0.6-0.2,0.9,0.2c0,0.2-0.2,0.3-0.3,0.4c-0.9,0.5-1.8,1-2.7,1.5c-0.2,0.1-0.4,0.2-0.7,0.2
		c-1.2-0.6-2.4-0.5-3.6,0c-0.5,0-0.9-0.4-1.3-0.6c-0.6-0.3-1.3-0.7-1.9-1c-0.2-0.1-0.5-0.2-0.5-0.5c0.2-0.1,0.4-0.1,0.6-0.1
		c0.1,0,0.2,0.1,0.3,0.2c0.1,0.1,0.1,0.1,0.2,0l0.1-0.1c0.2-0.1,0.3-0.1,0.5,0c0.2,0.2,0.4,0.4,0.6,0c0.2-0.1,0.5-0.1,0.7,0
		c0.1,0,0.2,0.1,0.3,0.1c0.1,0.1,0.2,0,0.2-0.1C48.2,40.3,48.2,40.3,48.2,40.3z"/>
	<path fill="#FCC124" d="M46.5,38.2c-0.2,0.1-0.4,0.1-0.6,0c-0.5-0.3-0.9-0.5-1.5-0.8c0.4-0.1,0.7,0.2,1.1,0.1
		c-0.5-0.3-1-0.6-1.6-0.6c-0.5,0-0.7,0.4-0.8,0.8c0,0.1-0.1,0.3-0.1,0.3c-0.2,0.1-0.2-0.1-0.3-0.2c-0.6-0.7-0.5-1.5,0.4-1.8
		c0.7-0.3,1.4-0.3,2,0.3c0.1,0.1,0.1,0.1,0.2,0.1c0.6-0.2,0.8,0.4,1.1,0.7c0.1,0.3,0.4,0.4,0.5,0.7C47,38.2,46.7,38.1,46.5,38.2z"/>
	<path fill="#EBBA28" d="M51.6,40.4c-0.9,0-1.8,0-2.7,0c-0.2,0-0.4,0.1-0.5-0.1c0.9-0.3,1.8-0.3,2.7-0.2c0.2,0,0.3,0.1,0.5,0.1
		C51.6,40.3,51.7,40.3,51.6,40.4z"/>
	<path fill="#E0B32C" d="M55.7,40.5c-0.3-0.1-0.7,0-1-0.1c0-0.3,0.4-0.1,0.5-0.2c0-0.1,0-0.1,0-0.2c0.4,0.1,0.9-0.1,1.3,0.1
		C56.3,40.3,56,40.6,55.7,40.5z"/>
	<path fill="#E4B62C" d="M45.3,40.4c-0.2,0-0.5,0-0.7,0c-0.4,0.1-0.7,0-0.8-0.5c0.5,0,0.9,0,1.4,0c0,0.1,0,0.2,0.2,0.2
		C45.4,40.3,45.4,40.3,45.3,40.4z"/>
	<path fill="#13100C" d="M46.4,37.1c-0.3-0.3-0.5-0.8-1.1-0.7c0.1-0.1,0.1-0.1,0.2-0.2c0.5,0.1,0.7,0.4,0.9,0.8
		C46.5,37.1,46.5,37.1,46.4,37.1z"/>
	<path fill="#30260C" d="M46.5,38.2c0.2-0.1,0.4-0.2,0.4-0.5H47C47.2,38.2,46.9,38.2,46.5,38.2C46.6,38.2,46.5,38.2,46.5,38.2z"/>
	<path fill="#E31837" d="M63.7,59.8c0.1-0.1,0.1-0.2,0.2-0.3c0.2-0.1,0.2-0.3,0.3-0.4c0.4-0.8,0.7-1.5,0.7-2.4
		c0.3-0.6,0.1-1.2,0-1.9c0-0.1,0-0.1,0-0.2c0-0.2,0.2-0.3,0.3-0.4c0.5-0.3,1-0.7,1.6-0.9l0,0c-0.1,0.6,0.1,1.3,0,1.9
		c0,0.2,0,0.5,0,0.7c-0.1,1.1-0.7,2-1.2,2.9c-0.1,0.2-0.2,0.3-0.4,0.5c-0.2,0.1-0.4,0.3-0.4,0.5c-0.1,0.1-0.3,0.3-0.4,0.4
		c-0.2,0.1-0.4,0.3-0.5,0.4c-0.2,0.3-0.6,0.4-0.9,0.6c-0.1,0-0.2,0.1-0.3,0c0.1-0.4,0.5-0.5,0.6-0.8c0.1-0.2,0.2-0.2,0.3-0.3
		C63.5,60.1,63.7,60,63.7,59.8z"/>
	<path fill="#E41837" d="M59.9,61.3c-0.4-0.1-0.6-0.4-0.8-0.7c0.2-0.1,0.3-0.2,0.5-0.3c0.2-0.2,0.4-0.3,0.6-0.5l0.1-0.1
		c0.1-0.2,0.4-0.4,0.5-0.6c0.1-0.1,0.1-0.1,0.2-0.2c0.2-0.3,0.3-0.6,0.4-0.9c0-0.1,0.1-0.2,0.2-0.3c0.1-0.2,0.2-0.3,0.2-0.5
		c0-0.1,0-0.1,0-0.2c0.1-0.2,0.1-0.4,0.1-0.5s0.1-0.3,0.2-0.3c0.4-0.2,0.8-0.5,1.2-0.7c0.2-0.1,0.2,0.1,0.2,0.2c0,0.3,0,0.6,0,0.9
		c0,0.8-0.4,1.4-0.8,2.1c-0.2,0.3-0.3,0.5-0.5,0.8c-0.4,0.2-0.6,0.7-1,0.8c0,0.1,0,0.2-0.1,0.2c-0.2,0-0.3,0.2-0.4,0.3
		C60.4,60.9,60.1,61.1,59.9,61.3z"/>
	<path fill="#173C6A" d="M61.6,57.6c-0.1,0.1-0.1,0.2-0.2,0.4c-0.1,0.1-0.3,0.1-0.2-0.1c0.4-1.3,0.3-2.6,0.1-3.8
		c0-0.2,0-0.3,0.3-0.2c0,0.2,0,0.3,0,0.5c0.3,0.1,0.1,0.4,0.2,0.6v0.1v0.1c0,0.2,0,0.4,0,0.7s0,0.5,0,0.8c0,0.1,0.1,0.3,0,0.4v0.1
		C61.7,57.2,61.7,57.4,61.6,57.6z"/>
	<path fill="#C5CFDD" d="M63.5,51.5c-0.4,0.2-0.2-0.2-0.3-0.3c-0.1-0.2,0.2-0.2,0.3-0.3c0.1,0.1,0.4,0.1,0.3,0.3
		C63.7,51.3,63.8,51.8,63.5,51.5z"/>
	<path fill="#C7D1DE" d="M63.1,49.9c-0.3,0.1-0.2-0.3-0.3-0.3c0.1-0.2,0.2-0.2,0.4-0.3c0,0.2,0.4,0.1,0.3,0.3
		C63.3,49.7,63.4,50,63.1,49.9z"/>
	<path fill="#CAD3E0" d="M64.9,50.9c0.1,0.2,0.3,0.2,0.4,0.4c-0.2,0,0.1,0.4-0.2,0.3c-0.2,0-0.3-0.1-0.4-0.3
		C64.6,51,64.9,51.1,64.9,50.9z"/>
	<path fill="#C9D2DF" d="M68,51.6c-0.4,0-0.3-0.3-0.3-0.4c0-0.2,0.3-0.2,0.3-0.3c0,0.2,0.4,0.1,0.3,0.3C68.2,51.4,68.2,51.7,68,51.6
		z"/>
	<path fill="#CAD3E0" d="M62.9,48c-0.2,0.1,0,0.4-0.3,0.3c-0.3,0-0.3-0.3-0.4-0.4c0.1-0.1,0.2-0.3,0.3-0.3
		C62.6,47.7,62.7,47.9,62.9,48z"/>
	<path fill="#C6D0DD" d="M63.9,46.4c-0.2,0.1,0.1,0.3-0.3,0.3c-0.3,0-0.3-0.3-0.4-0.4c0.1-0.1,0.2-0.2,0.3-0.3
		C63.6,46.2,63.9,46.2,63.9,46.4z"/>
	<path fill="#C7D0DE" d="M66.4,49.5c-0.2,0.1-0.1,0.4-0.4,0.4s-0.2-0.2-0.3-0.3c0-0.2,0.2-0.2,0.3-0.3
		C66.2,49.3,66.3,49.4,66.4,49.5z"/>
	<path fill="#C1CCDA" d="M65.2,47.9c0.1-0.1,0.2-0.2,0.4-0.3c0.1,0.1,0.4,0.1,0.3,0.3c0,0.2,0,0.3-0.3,0.3
		C65.2,48.2,65.4,48,65.2,47.9z"/>
	<path fill="#CDD6E1" d="M66.6,45.9c0,0.2,0.4,0.2,0.3,0.3c0,0.1,0,0.4-0.3,0.3c-0.3,0-0.3-0.1-0.3-0.3C66.3,46,66.6,46.2,66.6,45.9
		z"/>
	<path fill="#CBD4E0" d="M64.1,48.3c-0.4,0.1-0.3-0.2-0.3-0.3c0-0.2,0.2-0.2,0.3-0.3c0,0.2,0.4,0.1,0.3,0.3
		C64.3,48.1,64.4,48.5,64.1,48.3z"/>
	<path fill="#CAD3DF" d="M67.5,49.2c0.1,0.1,0.2,0.2,0.4,0.3c-0.2,0,0.1,0.4-0.3,0.4c-0.3,0-0.3-0.2-0.4-0.4
		C67.1,49.4,67.5,49.5,67.5,49.2z"/>
	<path fill="#C8D2DF" d="M61.8,51.5c-0.2,0-0.1-0.2-0.2-0.3c0-0.2,0.4-0.1,0.4-0.3c0,0.2,0.4,0.1,0.3,0.3
		C62.2,51.4,62.2,51.7,61.8,51.5z"/>
	<path fill="#CFD8E3" d="M64.9,49.5c-0.2,0.2-0.1,0.4-0.4,0.4c-0.4,0-0.2-0.2-0.2-0.3c-0.1-0.2,0.3-0.2,0.3-0.3
		C64.6,49.4,64.8,49.4,64.9,49.5z"/>
	<path fill="#CFD7E2" d="M66.1,43c-0.2,0,0.1,0.4-0.3,0.3c-0.3,0-0.2-0.3-0.3-0.4c0.1-0.1,0.2-0.2,0.4-0.3
		C65.8,42.9,66.1,42.8,66.1,43z"/>
	<path fill="#CFD7E2" d="M67.5,47.9c-0.2,0.1-0.1,0.4-0.4,0.4c-0.4,0-0.2-0.2-0.2-0.3c-0.1-0.3,0.3-0.2,0.3-0.4
		C67.2,47.7,67.4,47.8,67.5,47.9z"/>
	<path fill="#CFD7E3" d="M66.4,50.9c0.1,0.1,0.3,0.2,0.4,0.3c-0.1,0.1-0.1,0.3-0.3,0.3c-0.2,0-0.2,0-0.3-0.2
		C66,51,66.5,51.1,66.4,50.9z"/>
	<path fill="#D0D8E3" d="M61.6,46.3c0.1-0.1,0.3-0.1,0.3-0.3c0.1,0.1,0.3,0.2,0.4,0.3c-0.2,0,0.1,0.4-0.3,0.4
		C61.8,46.7,61.8,46.5,61.6,46.3z"/>
	<path fill="#DEE4EB" d="M62.7,52.9c-0.1,0.1,0,0.3-0.4,0.3s-0.1-0.3-0.3-0.3c0.1-0.1,0.2-0.2,0.3-0.2
		C62.5,52.7,62.6,52.8,62.7,52.9z"/>
	<path fill="#DEE4EB" d="M63.9,52.6c0,0.2,0.4,0.1,0.3,0.3c0,0.1,0,0.3-0.3,0.3c-0.4,0-0.1-0.4-0.3-0.4
		C63.7,52.8,63.8,52.7,63.9,52.6z"/>
	<path fill="#E0E5EC" d="M64.5,45c-0.3,0.2-0.3-0.1-0.3-0.3c-0.1-0.2,0.2-0.3,0.3-0.3c0.1,0,0.3,0.1,0.3,0.3
		C64.7,44.7,64.9,45.1,64.5,45z"/>
	<path fill="#CFD7E2" d="M62,49.5c-0.2,0.1-0.1,0.4-0.4,0.4c-0.3,0-0.2-0.2-0.2-0.3c-0.1-0.2,0.3-0.2,0.3-0.3
		C61.7,49.4,61.9,49.4,62,49.5z"/>
	<path fill="#D4DBE5" d="M66.1,44.3c0.1,0.2,0.4,0.1,0.3,0.4c0,0.1,0.1,0.3-0.3,0.3c-0.3,0-0.3-0.2-0.3-0.3
		C65.8,44.4,66.1,44.5,66.1,44.3z"/>
	<path fill="#E1E6ED" d="M64.8,46.3c0-0.1,0.2-0.3,0.3-0.3c0.1,0,0.4,0.1,0.3,0.3c0,0.1,0,0.3-0.3,0.3
		C64.8,46.7,64.9,46.4,64.8,46.3z"/>
	<path fill="#0D366E" d="M61.4,53L61.4,53c-0.3-0.2-0.5-0.4-0.2-0.7C61.2,52.6,61.3,52.8,61.4,53z"/>
	<path fill="#E41837" d="M35.1,59.3c-0.3-0.3-0.5-0.7-0.7-1.1c-0.1-0.2-0.1-0.4-0.3-0.5c-0.1-0.3-0.2-0.5-0.3-0.8s-0.1-0.5-0.2-0.8
		c0-0.1,0-0.1,0-0.2c-0.1-0.2,0-0.5-0.1-0.8l0,0l0,0c-0.1-0.6,0-1.2,0.1-1.8c0.6,0.1,1,0.6,1.6,0.8c0.1,0,0.2,0.1,0.2,0.2
		c-0.1,0.1,0,0.3-0.1,0.5v0.1c0,0.5-0.1,1.1,0,1.6c0.1,0.2,0,0.4,0.1,0.7c0.3,0.9,0.6,1.7,1.2,2.5c0.1,0.2,0.3,0.3,0.3,0.5
		c0.1,0.1,0.1,0.1,0.2,0.2c0.2,0.2,0.5,0.4,0.7,0.7c0,0.1,0,0.2-0.2,0.2c-0.4-0.3-0.8-0.5-1.1-0.8c-0.1-0.1-0.2-0.3-0.4-0.3
		c-0.1-0.1-0.3-0.3-0.4-0.4C35.5,59.6,35.3,59.5,35.1,59.3z"/>
	<path fill="#E31837" d="M41.1,60.5c-0.1,0.4-0.4,0.5-0.6,0.7c-0.6-0.2-1-0.6-1.5-1c-0.3-0.3-0.6-0.7-1-1c-0.5-0.6-0.9-1.1-1.1-1.9
		c0-0.3-0.1-0.5-0.2-0.8v-0.1c0.1-0.4-0.1-0.7,0-1.1c0-0.1,0-0.3,0.2-0.2c0.4,0.2,0.9,0.5,1.3,0.7c0.1,0.1,0.1,0.1,0.1,0.2
		c0,0.2,0,0.5,0.1,0.7c0.3,0.6,0.4,1.3,0.8,1.8C39.7,59.6,40.4,60.1,41.1,60.5z"/>
	<path fill="#CBD4E0" d="M36.5,48c-0.2,0.1,0,0.4-0.3,0.3c-0.3,0-0.2-0.3-0.4-0.4c0.1-0.1,0.2-0.2,0.4-0.2
		C36.3,47.8,36.4,47.9,36.5,48z"/>
	<path fill="#C6CFDD" d="M36.4,51.1c0-0.1,0.2-0.1,0.3-0.2c0.1,0.1,0.4,0.1,0.3,0.3c0,0.1,0.1,0.3-0.2,0.3
		C36.6,51.5,36.5,51.5,36.4,51.1z"/>
	<path fill="#C4CEDC" d="M35,47.9c-0.1,0.1,0,0.3-0.3,0.4c-0.4,0-0.2-0.3-0.3-0.4c-0.1-0.1,0.2-0.2,0.3-0.3
		C34.8,47.8,35,47.7,35,47.9z"/>
	<path fill="#C6CFDD" d="M36.6,46.7c-0.3,0.1-0.2-0.2-0.3-0.3c-0.1-0.2,0.2-0.2,0.3-0.4c0.1,0.1,0.2,0.2,0.3,0.3
		C36.9,46.4,37,46.8,36.6,46.7z"/>
	<path fill="#C1CBDA" d="M35.6,51.3c-0.1,0.2-0.2,0.3-0.4,0.3c-0.3,0-0.2-0.3-0.2-0.3c-0.1-0.2,0.2-0.2,0.3-0.3
		C35.3,51.1,35.6,51,35.6,51.3z"/>
	<path fill="#CAD3DF" d="M32.3,50.9c0,0.2,0.4,0.1,0.3,0.4c-0.1,0.1,0.1,0.3-0.3,0.3c-0.3,0-0.3-0.2-0.3-0.4
		C31.9,51,32.3,51.1,32.3,50.9z"/>
	<path fill="#C0CBDA" d="M34.2,49.9c-0.3,0.1-0.3-0.2-0.3-0.3c-0.1-0.2,0.3-0.1,0.3-0.3c0.1,0.1,0.4,0.1,0.3,0.3
		C34.4,49.7,34.6,50,34.2,49.9z"/>
	<path fill="#CAD3DF" d="M32.7,49.9c-0.3,0.1-0.2-0.2-0.3-0.3c-0.1-0.2,0.3-0.2,0.3-0.3c0.1,0.1,0.2,0.2,0.3,0.3
		C32.9,49.7,33,50,32.7,49.9z"/>
	<path fill="#D0D8E3" d="M33.9,46.2c-0.2,0.1,0,0.4-0.3,0.4s-0.3-0.2-0.3-0.3c-0.1-0.2,0.3-0.1,0.3-0.3
		C33.7,46.1,33.8,46.2,33.9,46.2z"/>
	<path fill="#C3CDDB" d="M37.1,49.9c-0.4,0.1-0.2-0.2-0.3-0.3s0.2-0.2,0.3-0.3c0.1,0.1,0.4,0.1,0.3,0.3C37.4,49.7,37.4,50,37.1,49.9
		z"/>
	<path fill="#C5CFDD" d="M38.1,48c-0.1,0.2-0.1,0.4-0.4,0.4c-0.3,0-0.2-0.3-0.3-0.3c0-0.2,0.2-0.2,0.3-0.3
		C37.8,47.9,38,47.9,38.1,48z"/>
	<path fill="#CFD7E2" d="M36,49.6c-0.2,0,0.1,0.4-0.3,0.3c-0.3,0-0.2-0.3-0.3-0.4c0.1-0.1,0.2-0.2,0.4-0.3
		C35.7,49.4,36,49.3,36,49.6z"/>
	<path fill="#CDD6E1" d="M38.6,46.3c-0.2,0.1-0.1,0.4-0.4,0.4c-0.3,0-0.2-0.2-0.2-0.3c0-0.2,0.2-0.2,0.3-0.3
		C38.3,46.2,38.5,46.2,38.6,46.3z"/>
	<path fill="#C8D1DE" d="M38.6,51.2c-0.3,0,0,0.3-0.3,0.3s-0.3-0.2-0.4-0.4c0-0.1,0.2-0.3,0.3-0.3C38.4,50.9,38.5,51.1,38.6,51.2z"
		/>
	<path fill="#D3DBE5" d="M33.1,48.2c-0.4,0.1-0.2-0.3-0.3-0.3c0.1-0.1,0.2-0.2,0.4-0.3c0,0.2,0.4,0.1,0.3,0.3
		C33.3,48,33.5,48.5,33.1,48.2z"/>
	<path fill="#CFD7E2" d="M34.8,43c-0.2,0.1,0,0.3-0.3,0.4c-0.3,0-0.2-0.2-0.3-0.3c-0.1-0.3,0.3-0.2,0.3-0.4
		C34.6,42.8,34.7,42.9,34.8,43z"/>
	<path fill="#D1D9E4" d="M34.2,51.1c-0.2,0.1-0.2,0.4-0.4,0.4c-0.4,0.1-0.2-0.2-0.3-0.3c-0.1-0.2,0.3-0.1,0.3-0.3
		C33.9,51,34,51.1,34.2,51.1z"/>
	<path fill="#E1E6ED" d="M35.1,46.6c-0.3,0.2-0.3-0.2-0.3-0.3c0-0.2,0.2-0.3,0.3-0.3s0.3,0.1,0.3,0.3C35.4,46.5,35.4,46.8,35.1,46.6
		z"/>
	<path fill="#CED7E2" d="M39,49.5c-0.2,0.1,0,0.4-0.3,0.3c-0.3,0-0.2-0.3-0.3-0.3c0.1-0.1,0.2-0.2,0.3-0.3
		C38.6,49.4,38.9,49.3,39,49.5z"/>
	<path fill="#DDE2EB" d="M34.5,44.6c-0.2,0.1,0,0.4-0.4,0.4s-0.2-0.3-0.3-0.3c0.1-0.1,0.2-0.2,0.3-0.2
		C34.2,44.4,34.3,44.5,34.5,44.6z"/>
	<path fill="#DFE4EC" d="M36,52.9c0,0,0.2-0.2,0.3-0.2s0.2,0.1,0.3,0.2c-0.2,0,0,0.4-0.3,0.4C36,53.2,36.1,53.1,36,52.9z"/>
	<path fill="#DAE0E9" d="M35.7,45c-0.3,0.1-0.1-0.3-0.3-0.3c0-0.2,0.2-0.2,0.3-0.3c0,0.2,0.3,0.1,0.3,0.3C35.9,44.9,36,45.2,35.7,45
		z"/>
	<path fill="#E9EDF2" d="M37.8,53.2c-0.4,0.2-0.2-0.3-0.3-0.3c0-0.2,0.2-0.1,0.3-0.3c0.1,0.1,0.3,0.1,0.3,0.3
		C38.1,53,38.2,53.4,37.8,53.2z"/>
	<path fill="#11223A" d="M33.6,40.3c0.2,0,0.3,0,0.5,0.1c-0.3,0-0.3,0.2-0.4,0.5c0,0.4,0.1,0.8-0.1,1.2c0,0,0,0-0.1-0.1
		c-0.1-0.2-0.1-0.3-0.1-0.5C33.5,41.1,33.3,40.7,33.6,40.3z"/>
	<path fill="#1F2D40" d="M35.8,42.8c0.2,0.2,0.4,0.4,0.6,0.6C36.1,43.4,35.9,43.2,35.8,42.8z"/>
	<path fill="#142134" d="M33.6,42c0,0.2,0.1,0.5-0.1,0.7l0,0c-0.1-0.2,0-0.4-0.1-0.5C33.4,42.1,33.5,42,33.6,42L33.6,42z"/>
	<path fill="#A72135" d="M62.5,61.2c0.1,0.1,0.2,0.1,0.3,0.1c-0.1,0.2-0.4,0.3-0.6,0.3c-0.1,0-0.1,0-0.2,0
		C62.1,61.5,62.2,61.4,62.5,61.2C62.4,61.2,62.5,61.2,62.5,61.2z"/>
	<path fill="#FDFDFD" d="M60.1,41.9c0.4,0,0.6,0.2,0.8,0.5c0.2,0.5,0.7,1,0.8,1.6s-0.6,0.9-0.9,1.4c-0.8,1.5-1,3.1-0.8,4.8
		c0.2,1.5,0.8,2.9,1.1,4.4c0.2,0.9,0.1,1.9-0.1,2.8c-0.3,1.4-1.3,2.4-2.6,3c-0.6,0.3-1.2,0.4-1.8,0.6c-2.3,0.6-4.3,1.8-6.1,3.3
		c-0.2,0.2-0.3,0.4-0.6,0.1c-1.4-1.4-3.2-2.3-5-3c-0.8-0.3-1.6-0.6-2.4-0.9c-2.6-0.9-3.6-2.6-3.3-5.6c0.1-1.3,0.7-2.5,0.9-3.8
		c0.3-1.6,0.4-3.1-0.2-4.6c-0.3-0.7-0.6-1.4-1.2-1.9c-0.2-0.2-0.3-0.4-0.1-0.7c0.2-0.4,0.5-0.9,0.7-1.3c0.2-0.3,0.4-0.6,0.8-0.6h0.1
		c0.2,0,0.3,0.2,0.5,0.2c0.2,0.1,0.2-0.1,0.3-0.1c0.2-0.1,0.4-0.1,0.6,0c2.1,0.5,4.2,0.9,6.2,1.4c0.3,0.1,0.5,0.4,0.8,0.5
		c0.2,0.1,0.4,0.1,0.5,0.2c0.1,0,0.3,0,0.4,0c0.3,0,0.5,0,0.8,0c0.2,0,0.4,0,0.6-0.1c0.1-0.1,0.3-0.1,0.4-0.2
		c0.4-0.1,0.6-0.4,0.9-0.5c1.8-0.5,3.7-0.9,5.5-1.3c0.4-0.1,0.8-0.3,1.2-0.2c0.2,0.1,0.4,0.2,0.6,0C59.8,41.9,60,41.8,60.1,41.9z"/>
	<path fill="#914C2D" d="M34.8,40.3c-0.4-0.2-0.8-0.4-1.3-0.4c0.4-0.4,0.8-0.7,1.1-1.1c0,1.2,1.1,1.6,1.8,2.3s1.6,1.2,2.1,2.1
		c-0.1,0.2-0.1,0.3-0.3,0.4c-0.2,0.1-0.3-0.1-0.4-0.2C36.8,42.5,35.8,41.4,34.8,40.3z"/>
	<path fill="#914C2D" d="M65.2,40.5c-0.1,0.1-0.1,0.1-0.2,0.2c-0.4,0.2-0.6,0.6-0.9,0.9c-0.7,0.6-1.4,1.4-2.1,2
		c-0.2-0.2-0.3-0.4-0.3-0.6c1.1-1,2.2-2,3.3-3c0.4-0.3,0.4-0.7,0.4-1.1c0.4,0.4,0.7,0.8,1,1.2C66.1,40.1,65.5,39.9,65.2,40.5z"/>
	<path fill="#B2793B" d="M61.9,43.6c0.6-0.8,1.4-1.4,2.1-2v0.1l0,0c-0.5,0.6-1.1,1.1-1.6,1.7c-0.1,0.2-0.3,0.3-0.4,0.5
		C61.9,43.8,61.9,43.7,61.9,43.6z"/>
	<path fill="#0E1117" d="M59.8,42c-0.2,0.1-0.4,0.7-0.5,0c-0.1-0.2-0.2-0.5-0.2-0.7c0.5-0.2,1.1-0.1,1.6-0.1c0.4,0,0,0.2,0,0.3l0,0
		l0,0c0,0-0.1,0-0.2,0c-0.1,0-0.1-0.1-0.2-0.1C59.6,41.4,59.5,41.5,59.8,42z"/>
	<path fill="#090C11" d="M41,42.1c0,0.2-0.1,0.2-0.2,0.1c-0.2-0.4-0.2-0.4,0.1-0.8c-0.3,0-0.6,0-0.9,0c-0.1,0-0.3-0.1-0.2,0.1
		c-0.1,0-0.1,0-0.2,0c-0.1-0.1-0.4-0.4,0.1-0.3c0.5,0,1-0.1,1.5,0.1c0,0,0,0.1,0.1,0.1C41.2,41.7,41.1,41.9,41,42.1z"/>
	<path fill="#38526B" d="M61.2,57.8c0,0.1,0.1,0.1,0.2,0.1c-0.1,0.3-0.2,0.7-0.6,0.8C60.9,58.4,61.1,58.1,61.2,57.8z"/>
	<path fill="#342D18" d="M40.1,41.7L40.1,41.7l-0.2-0.1c0-0.1-0.1-0.3,0.1-0.2C40,41.4,40.1,41.5,40.1,41.7z"/>
	<path fill="#E41837" d="M54.1,67.4c-0.4,0.2-0.8,0.5-1.1,0.7c-0.2,0.1-0.3,0-0.3-0.2c0-1.4,0-2.9,0-4.3c0-0.1,0.1-0.2,0.2-0.2
		c0.3-0.2,0.6-0.3,0.9-0.5c0.3-0.1,0.4,0.1,0.3,0.3c0,0.8,0.1,1.5,0.1,2.3c0,0.1,0,0.3,0,0.4C54.1,66.5,54.2,67,54.1,67.4z"/>
	<path fill="#E41837" d="M54.9,62.5c0.1-0.2,0.4-0.1,0.6-0.2c0.3-0.1,0.5-0.1,0.8,0c0.1,1.3,0,2.6,0,3.9c0,0.1-0.1,0.2-0.1,0.2
		c-0.3,0.1-0.5,0.5-0.9,0.5C55,67,55,66.8,55,66.6c0-0.4,0-0.9,0-1.3c0-0.7-0.1-1.4-0.1-2.1C54.8,62.9,54.6,62.7,54.9,62.5z"/>
	<path fill="#DD1735" d="M56.2,67.6c-0.2,0.1-0.4,0.2-0.6,0.3c-0.4-0.1-0.4-0.1-0.2-0.7c0.3-0.2,0.5-0.4,0.9-0.4
		C56.8,67.2,56.4,67.4,56.2,67.6z"/>
	<path fill="#E41837" d="M46.4,63c0.3,0.1,0.5,0.4,0.9,0.5c0.2,0.1,0.2,0.2,0.2,0.4c0,1.3,0,2.6,0,4c0,0.2,0,0.4-0.3,0.3
		c-0.4-0.3-0.8-0.5-1.2-0.8c-0.1-0.3,0-0.5,0-0.8c0.1-0.6,0-1.2,0.1-1.8c0-0.3,0-0.6,0-1c0-0.2,0-0.5,0-0.7
		C46.1,62.9,46.2,62.9,46.4,63z"/>
	<path fill="#E41837" d="M44.9,66.9c-0.3-0.1-0.6-0.3-0.9-0.4c-0.1-0.1-0.1-0.2-0.1-0.4c0-1.3-0.1-2.6,0-3.8c0.3-0.1,0.5-0.1,0.8,0
		c0.3-0.1,0.4,0.3,0.6,0.2c0.2,0.2,0.1,0.5,0.1,0.7c0,0.7-0.1,1.3-0.1,2c0,0.4,0,0.9,0,1.3C45.3,66.8,45.3,67,44.9,66.9z"/>
	<path fill="#E31837" d="M41.6,66.4c0-0.2-0.2-0.2-0.2-0.3c-0.1-0.3,0-0.6-0.1-0.8c0-0.2-0.1-0.5,0.1-0.7l0.1-0.1
		c0.2-0.1,0.3-0.2,0.4-0.3c0.1-0.1,0.3-0.3,0.4-0.4c0.2-0.1,0.4-0.3,0.5-0.4c0,0,0-0.1,0.1,0c0.2-0.1,0.2,0.1,0.2,0.2
		c0,0.2,0,0.4,0,0.6c0,0.1-0.1,0.2,0,0.3c-0.1,0.1,0,0.3-0.1,0.5c0,0.5-0.1,0.9-0.1,1.4c-0.1,0.2,0.3,0.7-0.3,0.7h-0.1
		c-0.1-0.2-0.4-0.2-0.6-0.3C41.8,66.5,41.7,66.4,41.6,66.4z"/>
	<path fill="#DD1836" d="M44.5,67.9c-0.2-0.1-0.5-0.3-0.7-0.4c-0.2-0.2-0.3-0.4-0.1-0.7c0.4,0,0.6,0.3,1,0.4
		C44.9,67.8,44.8,67.9,44.5,67.9z"/>
	<path fill="#B9B9BB" d="M33.4,42.3L33.4,42.3c0.1,0.1,0.1,0.3,0.1,0.5h-0.1C33.4,42.6,33.4,42.4,33.4,42.3z"/>
	<path fill="#FEC223" d="M30.7,36.1c0.6,0.5,2.8,1.4,3.2,1.6c0.2,0.1,0.7,0.1,0.3,0.6c-0.2,0.3-0.4,0.7-0.9,0.3
		c-0.2-0.2-0.4-0.3-0.6-0.4c0.2,0.2,0.4,0.4,0.6,0.7c0.4,0.4,0,0.5-0.2,0.6s-0.3,0.5-0.6,0c-0.6-1-1.2-2-1.8-3
		C30.6,36.3,30.5,36.2,30.7,36.1L30.7,36.1z"/>
	<path fill="#CAC8C6" d="M33.6,41.6c-0.2-0.4-0.1-0.9-0.1-1.3h0.1C33.6,40.7,33.6,41.1,33.6,41.6z"/>
	<path fill="#FEC223" d="M67,38.3c-0.1,0-0.1,0.1-0.2,0.1c-0.6,0.5-0.8,0.4-1.1-0.3c-0.1-0.2,0.1-0.3,0.2-0.3
		c1.1-0.5,2.3-1.1,3.5-1.6c-0.3,0.7-0.7,1.3-1.1,1.9c-0.2,0.4-0.5,0.9-0.8,1.3c-0.1,0.2-0.2,0.6-0.6,0.3c-0.3-0.2-0.6-0.5-0.2-0.9
		c0.1-0.1,0.2-0.2,0.3-0.3c0-0.1,0.1-0.1,0.1-0.2C67.1,38.2,67,38.2,67,38.3z"/>
	<path fill="#0E3871" d="M49.3,72.2c0,0.3-0.1,0.5-0.4,0.5c-0.3,0-0.4-0.2-0.4-0.4c0-0.3,0.1-0.5,0.4-0.5
		C49.1,71.8,49.2,71.9,49.3,72.2z"/>
	<path fill="#0E3771" d="M48.9,70.6c0.2,0,0.4,0.1,0.4,0.3c0,0.2-0.1,0.4-0.4,0.4c-0.2,0-0.3-0.1-0.3-0.3
		C48.6,70.7,48.7,70.6,48.9,70.6z"/>
	<path fill="#042F6B" d="M51.7,71.1c0,0.3-0.1,0.5-0.4,0.5c-0.4,0-0.4-0.3-0.4-0.6c0-0.2,0-0.5,0.4-0.5
		C51.6,70.6,51.7,70.9,51.7,71.1z"/>
	<path fill="#0B3570" d="M54,71.2c0.4,0.1,0.4,0.4,0.5,0.6c0,0.2-0.1,0.4-0.4,0.4c-0.4,0-0.5-0.3-0.5-0.6
		C53.6,71.4,53.7,71.2,54,71.2z"/>
	<path fill="#8D4B2E" d="M41,42.1c-0.1-0.3,0-0.5,0.2-0.7c0.2-0.1,0.4,0,0.6,0c1.5,0.4,2.9,0.6,4.4,1.1c0.1,0,0.3,0.1,0.5,0.2
		c-0.2-0.2-0.3-0.1-0.4-0.2c-1.3-0.3-2.4-1-3.6-1.4c-0.2-0.1-0.4-0.1-0.5-0.2c-0.2-0.5-0.7-0.4-1-0.6C41,40.2,41,40.1,41,40
		c0.1-0.1,0.2-0.1,0.4,0c0.5,0.2,1,0.6,1.6,0.5c0.1,0.1,0.3,0.1,0.5,0.1c0.5,0.2,1.1,0.5,1.6,0.7c0,0,0.1,0.1,0.1,0
		c-0.1,0-0.1,0-0.2-0.1c-0.5-0.2-1.1-0.5-1.6-0.8c-0.1-0.1-0.2-0.1-0.2-0.2c-0.1-0.3-0.4-0.4-0.7-0.5c-0.1-0.1-0.2-0.2-0.1-0.3
		c0.1-0.1,0.2-0.1,0.4,0c0.3,0.2,0.6,0.4,0.9,0.4c0.2,0.3,0.5,0.4,0.8,0.5c1.2,0.7,2.4,1.3,3.6,2c0.5,0.1,1,0.5,1.4,0.7s0.7,0.2,1,0
		c0.2-0.2,0.5-0.3,0.8-0.4c0.3,0,0.6-0.1,0.9-0.2c0.2,0,0.4-0.1,0.5-0.2c0.1-0.1,0.3,0,0.4-0.1c0.3-0.1,0.6-0.2,0.8-0.3
		c0.1,0,0.2-0.1,0.3-0.1c0.2-0.1,0.3-0.2,0.5-0.2c0.6-0.3,1.3-0.5,1.9-0.8c0.1-0.1,0.3-0.1,0.4,0c0.5-0.1,1-0.4,1.5-0.6
		c0.1-0.1,0.3-0.1,0.4,0c0.1,0.1,0,0.3-0.1,0.3c-0.4,0.1-0.8,0.2-1.1,0.5c-0.1,0.2-0.4,0.2-0.6,0.3c-1.1,0.4-2.2,0.9-3.3,1.3
		c1.4-0.5,2.9-0.7,4.4-1.1c0.2-0.1,0.4,0,0.6-0.1l0,0c0.2,0.2,0.3,0.4,0.2,0.7c-1.4,0.2-2.8,0.6-4.2,0.9c-0.9,0.2-4.5,1.2-5,1.3
		c-0.1-0.1-6.4-1.6-8.5-2.1C41.3,42,41.1,42,41,42.1z"/>
	<path fill="#8C4C30" d="M54.5,41.8c0,0.1-0.1,0.1-0.2,0.1c-0.4,0-0.6,0.2-0.9,0.4c-0.1,0-0.2,0.1-0.2,0.1c-0.2,0.1-0.4,0.1-0.6,0.2
		c-0.3,0.1-0.6,0.4-1,0.2c0-0.3,0.3-0.3,0.5-0.4c1.2-0.6,2.4-1.3,3.6-1.9c0.3-0.1,0.5-0.3,0.8-0.4c0.4-0.1,0.7-0.3,1.1-0.5
		c0.1-0.1,0.3-0.1,0.3,0c0.1,0.2-0.1,0.2-0.2,0.3c-0.2,0.1-0.5,0.1-0.6,0.4c0,0.1-0.1,0.2-0.2,0.2c-0.6,0.3-1.2,0.6-1.8,0.9
		C54.8,41.6,54.6,41.6,54.5,41.8z"/>
	<path fill="#F1BE2D" d="M57.4,41.1c0.2-0.1,0.4-0.1,0.5-0.2c0.3,0.2,0.7,0.3,1.1,0.5c-0.1,0.3-0.3,0.2-0.5,0.2
		C58.1,41.5,57.7,41.4,57.4,41.1z"/>
	<path fill="#101926" d="M60.2,39.7c-0.4-0.2-0.7,0-1.1,0c-0.1,0-0.2,0-0.2-0.1c0.5-0.2,1.1-0.2,1.7-0.3
		C60.6,39.6,60.4,39.6,60.2,39.7z"/>
	<path fill="#121013" d="M59,39.6c0.1,0,0.1,0.1,0.2,0.1c0.2,0.2,0.3,0.4,0.2,0.7c0.1,0.1,0.1,0.2,0,0.3c-0.1-0.1-0.2-0.2-0.3-0.2
		c0.2-0.3,0.1-0.4-0.2-0.4C59,39.9,58.7,39.6,59,39.6z"/>
	<path fill="#0A0E16" d="M58,39.2c-0.2,0.3,0.1,0.4,0.1,0.7c-0.1,0.5-0.3,0-0.5,0.1c0.1-0.2,0.3-0.4-0.1-0.4
		C57.4,39.2,57.6,39.1,58,39.2C58,39.1,58,39.2,58,39.2L58,39.2z"/>
	<path fill="#111924" d="M58,39.2C58,39.2,58,39.1,58,39.2c0.3-0.2,0.7-0.3,1.1-0.4c0,0.3-0.1,0.3-0.3,0.4
		C58.5,39,58.2,39.3,58,39.2z"/>
	<path fill="#151E2B" d="M59.4,40.6c0-0.1,0-0.2,0-0.3c0.2-0.2,0.5-0.4,0.7-0.5C60,40.2,59.6,40.4,59.4,40.6z"/>
	<path fill="#F6C22F" d="M56.7,40.5c0.1,0,0.2-0.1,0.3-0.1c0.1,0.1,0.2,0.1,0.2,0.2c-0.1,0-0.2,0.1-0.3,0.1
		C56.8,40.7,56.7,40.6,56.7,40.5z"/>
	<path fill="#0E1825" d="M40.6,40.3c-0.4-0.2-0.7-0.5-1.1-0.9c0.6,0,1.2,0.1,1.7,0.2c0.1,0.1,0.1,0.2-0.1,0.3
		c-0.3,0-0.5-0.1-0.7-0.1C40.5,40,40.8,40,40.6,40.3z"/>
	<path fill="#F6C02B" d="M41.8,41.6c-0.2,0-0.4,0-0.5-0.1v-0.1c0.3-0.1,0.7-0.2,1-0.4c0.2,0,0.3,0,0.5,0.1
		C42.5,41.5,42.2,41.6,41.8,41.6z"/>
	<path fill="#0D1016" d="M42.2,39.9c0.2-0.1,0.1-0.4,0.3-0.6c0.1-0.1-0.1-0.1-0.2-0.1v-0.1c0.4-0.1,0.6,0.1,0.6,0.5
		c-0.3,0-0.4,0-0.2,0.3C42.5,40,42.3,40.3,42.2,39.9z"/>
	<path fill="#0F0E11" d="M40.7,40.4c0.2-0.1,0-0.5,0.3-0.6c0.1,0,0.1-0.1,0.1-0.2c0.4,0,0.1,0.3,0.2,0.4c-0.3,0-0.4,0.1-0.2,0.4
		C41.1,40.5,40.9,40.8,40.7,40.4z"/>
	<path fill="#071323" d="M42.3,39.1C42.3,39.1,42.3,39.2,42.3,39.1c-0.2,0.1-0.4-0.1-0.7,0.1c0.1,0.1,0.2,0.3,0.3,0.4
		c-0.3-0.1-0.5-0.4-0.8-0.7C41.6,38.9,41.9,39,42.3,39.1z"/>
	<path fill="#F3BF2E" d="M43.4,40.7c-0.2,0-0.3-0.1-0.3-0.2c0.1,0,0.2-0.1,0.2-0.1c0.1,0.1,0.2,0.1,0.3,0.2
		C43.6,40.7,43.5,40.7,43.4,40.7z"/>
	<path fill="#1D1919" d="M48.4,35.8c-0.2,0.3-0.5,0.3-0.8,0.3c-0.2,0-0.5-0.2-0.6,0.1l0,0c-0.3-0.3-0.7-0.2-1.1-0.2
		c0,0-0.1-0.1-0.1-0.2c0-0.1,0.1-0.2,0.2-0.2c0.3-0.1,0.7-0.1,1,0c0.2,0,0.4,0.1,0.6,0.1C48,35.8,48.2,35.8,48.4,35.8z"/>
	<path fill="#372C13" d="M47,37.7L47,37.7c-0.3-0.1-0.5-0.4-0.6-0.6l0.1-0.1C46.7,37.2,46.9,37.4,47,37.7z"/>
	<path fill="#032D69" d="M52,42.4c-0.1,0.3-0.4,0.2-0.5,0.4h-0.1c-1.2,1.1-2.2,0.2-3.2-0.5C49.5,41.8,50.8,41.7,52,42.4z"/>
	<path fill="#997042" d="M64,41.7L64,41.7c0.3-0.4,0.5-0.8,0.9-0.9C64.7,41.1,64.4,41.4,64,41.7z"/>
	<path fill="#032F6B" d="M52.3,60.3c-0.4,0.1-0.6,0.1-0.8-0.3c-0.2-0.4-1.1-0.4-1.4,0c-0.2,0.3-0.2,0.3-0.7,0.3
		c0.3-0.8,0.7-1.6,1-2.4c0.1-0.3,0.7-0.3,0.8,0.1C51.6,58.7,52,59.5,52.3,60.3z"/>
	<path fill="#05306C" d="M55,59c0,0.3,0,0.7,0,1c0,0.2-0.1,0.3-0.3,0.3s-0.3-0.1-0.3-0.3c0-0.1,0-0.2,0-0.2c0-0.5-0.6-0.9-1-0.6
		c-0.2,0.1-0.1,0.4-0.1,0.6c0,0.2,0.1,0.5-0.3,0.5c-0.4,0-0.3-0.3-0.3-0.5c0-0.6,0-1.2,0-1.8c0-0.2,0-0.4,0.3-0.4s0.3,0.2,0.3,0.4
		c0,0.6,0.3,0.8,0.9,0.7c0.3-0.1,0.2-0.3,0.2-0.5s-0.1-0.5,0.3-0.5c0.5,0,0.3,0.3,0.3,0.5C55,58.5,55,58.7,55,59z"/>
	<path fill="#04306C" d="M46.9,58.7c0,0.1,0,0.3,0,0.4c0,1.1-0.8,1.5-1.7,1.1c-0.3-0.1-0.5-0.3-0.5-0.6c0-0.6,0-1.2,0-1.8
		c0-0.3,0.2-0.2,0.3-0.2c0.2,0,0.3,0.1,0.3,0.3c0,0.4,0,0.9,0,1.3c0,0.4,0.2,0.6,0.5,0.6c0.4,0,0.6-0.2,0.6-0.6c0-0.4,0-0.9,0-1.3
		c0-0.2,0-0.3,0.3-0.3c0.2,0,0.3,0.1,0.3,0.3C46.9,58.2,46.9,58.5,46.9,58.7L46.9,58.7z"/>
	<path fill="#0D3771" d="M48.5,57.7c0.3,0,0.6,0,0.9,0c0.1,0,0.3,0,0.3,0.2s-0.1,0.3-0.2,0.3c-0.7-0.1-0.7,0.3-0.6,0.8
		c0,0.4,0,0.7,0,1.1c0,0.2-0.1,0.3-0.3,0.3s-0.3-0.1-0.3-0.3c0-0.4,0-0.9,0-1.3c0-0.3,0-0.6-0.5-0.5c-0.2,0-0.4,0.1-0.4-0.3
		c0-0.3,0.3-0.2,0.4-0.2C48,57.7,48.2,57.7,48.5,57.7z"/>
	<path fill="#07326D" d="M55.3,45.7C55.3,45.8,55.3,45.8,55.3,45.7c-0.4,0.5-0.5,1-0.3,1.5c0,0.1,0,0.2-0.1,0.1
		c-0.1,0-0.3,0-0.3-0.2s0-0.3,0-0.5c0-0.3-0.2-0.4-0.4-0.4c-0.3-0.1-0.2,0.2-0.3,0.3s0,0.4-0.3,0.4c-0.4-0.1-0.2-0.3-0.1-0.5
		c0.1-0.3,0.1-0.7,0.2-1c0.1-0.2,0-0.7,0.3-0.7c0.5,0.1,1,0.1,1.4,0.6C55.5,45.4,55.5,45.5,55.3,45.7z"/>
	<path fill="#06316D" d="M45,46.5c-0.1-0.5-0.2-0.8-0.3-1.1c0-0.1,0-0.2,0.1-0.3c0.2-0.1,0.2,0,0.3,0.2c0.1,0.5,0.3,1,0.4,1.4
		c0,0.1,0.1,0.3-0.1,0.4c-0.2,0.1-0.3,0-0.4-0.1c-0.3-0.2-0.5-0.6-1-0.7c0.1,0.3,0.2,0.6,0.3,0.9c0.1,0.2,0,0.3-0.1,0.3
		S44,47.4,44,47.3c-0.2-0.5-0.3-1-0.5-1.6c0-0.1-0.1-0.2,0.1-0.3c0.2-0.1,0.3,0,0.4,0.1C44.3,45.8,44.6,46.1,45,46.5z"/>
	<path fill="#07326D" d="M46.4,44.8c0.6,0,1,0.3,1.1,0.9c0.1,0.6-0.2,1-0.8,1.1c-0.8,0.2-0.8,0.2-0.9-0.6c0-0.2,0-0.3-0.1-0.5
		C45.6,44.9,45.6,44.9,46.4,44.8z"/>
	<path fill="#07316D" d="M50.6,46.7c-0.3,0-0.6-0.1-0.8-0.4c0-0.1-0.1-0.2,0-0.3s0.3-0.1,0.4,0c0.1,0.1,0.1,0.2,0.2,0.2
		c0.2,0.1,0.3,0.1,0.5,0C51,46.1,51,46.1,51,46c0-0.2-0.2-0.2-0.3-0.3c-0.1,0-0.2,0-0.2-0.1c-0.3-0.1-0.6-0.2-0.6-0.6
		c0-0.3,0.2-0.5,0.4-0.6c0.4-0.1,0.7-0.1,1,0.2c0.1,0.1,0.2,0.3,0.1,0.4c-0.1,0.1-0.3,0.1-0.4,0c-0.1-0.1-0.2-0.2-0.4-0.2
		c-0.1,0-0.2,0-0.3,0.2c0,0.1,0.1,0.2,0.2,0.2c0.1,0,0.3,0.1,0.4,0.1c0.4,0.1,0.6,0.3,0.6,0.7C51.3,46.6,51,46.7,50.6,46.7z"/>
	<path fill="#0B3570" d="M49.5,45.5c0,1-0.3,1.4-1.1,1.3c-0.3-0.1-0.5-0.2-0.6-0.6c0-0.4,0-0.8-0.1-1.2c0-0.2,0.1-0.3,0.3-0.3
		s0.2,0.2,0.2,0.3c0,0.3,0,0.5,0,0.8s0,0.7,0.4,0.7c0.5,0,0.4-0.4,0.4-0.7c0-0.2,0-0.5,0-0.7s-0.1-0.4,0.2-0.4s0.2,0.2,0.2,0.4
		C49.5,45.2,49.5,45.3,49.5,45.5z"/>
	<path fill="#08336E" d="M57.5,46.3c-0.6,0.4-1.3,0.6-1.5,1.4c0,0.1-0.2,0.1-0.3,0.1c-0.1-0.1-0.2-0.1-0.1-0.3
		c0.5-0.6,0.2-1.3,0.2-2c0.3,0.1,0.3,0.1,0.6,1C56.7,46.5,57,45.9,57.5,46.3z"/>
	<path fill="#A55416" d="M45.8,52.2c0.3-0.4,0.1-0.8,0.2-1.2c0-0.2,0.2-0.3,0.2-0.5s0-0.3,0.1-0.4c0.1-0.2,0.3-0.2,0.5-0.3
		s0.4-0.1,0.6,0.1c0.7,0.4,1.5,0.4,2.2,0.8c0,0.3-0.2,0.3-0.3,0.3c-0.6-0.1-1.2-0.3-1.8-0.5c-0.2-0.1-0.3-0.2-0.5-0.2
		c-0.1,0-0.1,0.1-0.2,0.1c-0.1,0.3,0.1,0.4,0.3,0.5s0.4,0.1,0.5,0.4c0,0.1-0.1,0.1-0.2,0.2c-0.2,0-0.3-0.1-0.5-0.2
		c-0.1-0.1-0.3-0.3-0.5-0.1c-0.1,0.1-0.1,0.3,0,0.5c0,0.1,0.1,0.1,0.1,0.2c0,0.1,0,0.2-0.1,0.2c-0.4,0.2-0.1,0.7-0.3,1
		c-0.1,0.1-0.3,0-0.4-0.1c-0.1-0.2-0.1-0.4-0.1-0.5S45.6,52.3,45.8,52.2z"/>
	<path fill="#0A346F" d="M52.4,44.7c0.2,0,0.5,0,0.7,0.1c0.1,0,0.2,0,0.2,0.2s-0.1,0.2-0.3,0.2c-0.4-0.1-0.4,0.1-0.4,0.4
		c0,0.3-0.1,0.7-0.1,1c0,0.1,0,0.3-0.2,0.3s-0.3-0.1-0.2-0.3c0-0.3,0.1-0.5,0.1-0.8s0.2-0.7-0.4-0.7c-0.1,0-0.2-0.1-0.1-0.2
		c0-0.1,0.1-0.2,0.2-0.1C52,44.7,52.2,44.7,52.4,44.7L52.4,44.7z"/>
	<path fill="#F2F8F5" d="M51.6,56c-0.5-0.5-0.5-0.5-1.2,0.1c-0.2,0-0.2-0.1-0.3-0.3c0-0.3,0.1-0.5,0.3-0.6c0.7-0.2,1.4-0.1,2.1,0
		c0.3,0.1,0.2,0.3,0.1,0.5c-0.1,0.2-0.2,0.5-0.3,0.7c-0.3,0.2-0.2-0.1-0.4-0.2C51.9,56,51.8,56,51.6,56z"/>
	<path fill="#AC5C1D" d="M53.3,49.3c0.2,0.1,0.2,0.3,0.2,0.5s0.2,0.3,0.3,0.3c0.4,0.1,0.3,0.6,0.5,0.8c0.1,0.1,0.1,0.2,0,0.3
		c-0.2,0.1-0.4-0.1-0.5,0.1c-0.3,0.2-0.6,0.4-1,0.4c-0.1,0-0.1-0.1-0.2-0.2c0.1-0.3,0.5-0.3,0.7-0.5s0.5-0.3,0.3-0.6
		c-0.4-0.1-0.7,0.2-1,0.3c-0.1,0.1-0.3,0.1-0.4,0.1c-0.1,0-0.1,0-0.2-0.1c0,0,0-0.1-0.1-0.2c0-0.1,0-0.1,0.1-0.2
		c0.2-0.2,0.4-0.2,0.6-0.3C53.1,50,53.3,49.8,53.3,49.3L53.3,49.3z"/>
	<path fill="#F8FAF8" d="M54.3,50.9c-0.4-0.2-0.1-0.7-0.5-0.9l0.1-0.1c0.4,0.1,0.9,0.2,1.2,0.5c0,0.1,0.1,0.1,0.2,0.2
		c0.1,0.1,0.4,0.2,0.2,0.5s-0.4,0.1-0.7,0C54.7,51.1,54.6,50.8,54.3,50.9z"/>
	<path fill="#0D3771" d="M42.7,45.8c0.2-0.1,0.2,0,0.3,0.1c0.2,0.5,0.5,1,0.7,1.5c0.1,0.1,0.1,0.3-0.1,0.3c-0.2,0.1-0.3,0-0.3-0.2
		c-0.2-0.5-0.4-0.9-0.6-1.4C42.5,46,42.6,45.9,42.7,45.8z"/>
	<path fill="#1C4379" d="M49.9,61.2c-0.1,0.1,0,0.2,0,0.3c0.2,0.2,0,0.4-0.2,0.5s-0.4,0.1-0.5,0C49,61.9,49,61.7,49,61.5
		c0-0.1,0.1-0.2,0.1-0.3c-0.2-0.4,0-0.5,0.3-0.6C49.8,60.7,50,60.9,49.9,61.2z"/>
	<path fill="#0B8A46" d="M54.5,49c0.2,0,0.3,0,0.5,0.2c0,0.1,0.1,0.2,0.2,0.3c0,0.1,0,0.1,0,0.2c0,0.2,0.1,0.5-0.1,0.8
		c-0.4-0.2-0.8-0.4-1.1-0.6"/>
	<path fill="#113A73" d="M51.1,61.7C51,61.8,51,62,50.9,62.1s-0.1,0-0.2-0.1c-0.1-0.2-0.2-0.1-0.4-0.1c-0.1,0-0.2-0.1-0.2-0.2
		c0.1-0.3,0.4-0.6,0.6-0.9c0.1-0.1,0.2-0.1,0.2,0.1C51,61.1,50.8,61.4,51.1,61.7z"/>
	<path fill="#21477C" d="M51.7,61c-0.1,0-0.2,0-0.3,0s-0.2,0-0.2-0.1s0.1-0.1,0.2-0.1c0.2,0,0.3,0,0.5,0s0.3,0.1,0.2,0.3
		c-0.3,0.3-0.3,0.8-0.6,1.2C51.3,61.7,51.6,61.4,51.7,61z"/>
	<path fill="#07326D" d="M48.7,61.4L48.7,61.4c-0.1,0.3,0.1,0.7-0.1,0.7c-0.2,0-0.1-0.3-0.1-0.5c0-0.1,0-0.2,0-0.3S48,61.4,48.3,61
		c0.1-0.1,0.2-0.3,0.4-0.3c0.2,0.1,0.1,0.3,0.1,0.5C48.7,61.3,48.7,61.3,48.7,61.4z"/>
	<path fill="#1B9252" d="M43.2,54.2c0.1,0,0.3,0,0.4,0c0.2-0.1,0.4-0.1,0.6,0v0.1c-0.3,0-0.2,0.2-0.3,0.3c-0.2,0.3-0.3,0.5-0.7,0.6
		c0-0.2,0.1-0.4,0.2-0.5C43.7,54.3,43.4,54.3,43.2,54.2z"/>
	<path fill="#AA5A1C" d="M48.4,48.1c-0.1,0.2-0.1,0.4,0.2,0.5s0.6,0.2,0.9,0.3c0,0,0.1,0,0,0.1l0,0c-0.4,0.1-0.8-0.2-1.1-0.4
		c-0.2-0.1-0.3-0.3-0.5-0.1c-0.1,0-0.1-0.1-0.1-0.1c0-0.1,0-0.1,0.1-0.1C48,48.4,48.1,48.1,48.4,48.1z"/>
	<path fill="#AC5C1D" d="M51.9,49.6c0.4-0.3,1.1-0.2,1.1-1c0.2,0.2,0.1,0.5,0.4,0.6l0,0c-0.1,0.1-0.1,0.1-0.2,0.1
		c-0.3,0.1-0.5,0.2-0.8,0.3C52.3,49.6,52.2,49.7,51.9,49.6C51.9,49.7,51.9,49.7,51.9,49.6C51.8,49.7,51.8,49.7,51.9,49.6z"/>
	<path fill="#FAE7CA" d="M51.5,48.8c0.3,0.1,0.4-0.1,0.6-0.3c0.2,0,0.3-0.2,0.5-0.1l0.1,0.1c0,0.3-0.1,0.4-0.4,0.4
		C52.1,48.9,51.8,48.9,51.5,48.8C51.5,48.9,51.5,48.9,51.5,48.8z"/>
	<path fill="#A75819" d="M47.5,49.4c-0.1-0.1-0.2-0.1-0.3-0.2c0-0.1,0-0.2,0-0.2c0.1-0.1,0.2-0.2,0.3-0.1c0.2,0.2,0.5,0.4,0.7,0.5
		s0.4,0.2,0.2,0.4C48.1,49.9,47.8,49.7,47.5,49.4z"/>
	<path fill="#9B4B17" d="M49.9,47.7c-0.1,0-0.3,0-0.4-0.1c0.5-0.2,0.9-0.2,1.4,0c0,0.2-0.1,0.2-0.2,0.2c-0.2,0-0.3,0-0.5,0
		C50.1,47.8,50,47.7,49.9,47.7z"/>
	<path fill="#6F6F6F" d="M46.2,49.4c0-0.5-0.4-0.7-0.8-0.8c0.3,0,0.7,0,0.9,0.3c0.1,0.1,0.1,0.2,0.1,0.3
		C46.3,49.2,46.3,49.3,46.2,49.4z"/>
	<path fill="#155835" d="M55.1,49.4c-0.2,0-0.2-0.1-0.2-0.3c0.1,0,0.2,0.1,0.3,0s-0.1-0.4,0.2-0.4c0.2,0-0.1,0.4,0.2,0.4
		C55.5,49.5,55.2,49.2,55.1,49.4z"/>
	<path fill="#868686" d="M58.7,52.8c-0.1-0.5-0.5-0.5-0.8-0.6c0-0.1,0-0.2,0.1-0.2s0.1,0,0.1,0.1C58.3,52.3,58.9,52.2,58.7,52.8z"/>
	<path fill="#727272" d="M42.9,51.6c0,0.2,0,0.4,0.2,0.6c-0.3-0.2-0.7-0.1-1-0.1C42.3,51.8,42.8,52.2,42.9,51.6z"/>
	<path fill="#A14E13" d="M52.1,48.1c-0.2,0-0.4-0.1-0.6,0.1c-0.1,0.2-0.3,0.1-0.4,0.2c-0.1,0-0.1-0.1-0.1-0.2c0-0.1,0.1-0.2,0.2-0.3
		c0,0,0,0,0.1,0C51.5,48.1,51.9,47.8,52.1,48.1z"/>
	<path fill="#99440B" d="M49.1,48c0.1,0.1,0.2,0.2,0.2,0.3v0.1c-0.1,0-0.2-0.1-0.4-0.1c-0.1,0-0.2,0-0.2-0.1c-0.1,0-0.2,0-0.4,0
		C48.5,47.9,48.8,48,49.1,48z"/>
	<path fill="#727272" d="M45.3,48.6c0,0.4-0.1,0.7,0.1,1h-0.1C45.1,49.3,45.1,48.9,45.3,48.6z"/>
	<path fill="#6C6C6C" d="M57.5,54.1c-0.1-0.7,0.5-0.2,0.7-0.4C58,54,57.6,53.8,57.5,54.1z"/>
	<path fill="#645D22" d="M54.1,47.8c0,0.1,0,0.2,0,0.3c-0.2-0.1-0.4-0.1-0.4-0.3C53.8,47.7,54,47.7,54.1,47.8z"/>
	<path fill="#A5A5A5" d="M56.4,49.3c-0.2-0.1-0.5,0.1-0.7-0.1C56,49,56.3,48.9,56.4,49.3z"/>
	<path fill="#B8733C" d="M50.7,47.7c0.1,0,0.2-0.1,0.2-0.1c0.2,0.1,0.3,0.1,0.4,0.3l0,0c-0.2,0.1-0.3,0-0.5,0c-0.1,0-0.1,0-0.1-0.1
		C50.7,47.8,50.7,47.7,50.7,47.7z"/>
	<path fill="#54AD7E" d="M58.1,51.3c0.1-0.1,0-0.4,0.2-0.4c0,0.3,0,0.5-0.1,0.7"/>
	<path fill="#A34F14" d="M52.6,48.5c-0.2,0-0.3,0.1-0.5,0.1c0-0.1,0.1-0.2,0.1-0.3C52.4,48.3,52.5,48.3,52.6,48.5z"/>
	<path fill="#225E3E" d="M45.6,50.7c-0.1,0.1-0.2,0.3-0.3,0.1c0,0,0,0,0-0.1C45.3,50.6,45.4,50.6,45.6,50.7z"/>
	<path fill="#2B995F" d="M46.4,49.2c0-0.1,0-0.2-0.1-0.3c0.2,0,0.2,0.3,0.4,0.3C46.6,49.2,46.5,49.2,46.4,49.2z"/>
	<path fill="#FCFCFB" d="M57.4,41.1c0.4,0.1,0.8,0.3,1.1,0.5c-1.5,0.5-3.1,0.7-4.6,1.1c0,0,0-0.1-0.1-0.1C55,42,56.2,41.6,57.4,41.1
		z"/>
	<path fill="#FBFBFB" d="M41.8,41.6c0.3-0.2,0.7-0.3,1-0.5c1.3,0.4,2.5,1,3.7,1.5c0,0.1,0,0.2-0.1,0.1C44.8,42.3,43.3,42,41.8,41.6z
		"/>
	<path fill="#F5F4F3" d="M56.7,40.5c0.1,0.1,0.1,0.2,0.2,0.2c-0.7,0.3-1.3,0.6-2,0.8v-0.1l0,0C55.5,41.1,56.1,40.7,56.7,40.5z"/>
	<path fill="#F5F4F3" d="M43.4,40.7c0.1-0.1,0.1-0.1,0.2-0.2c0.6,0.2,1.1,0.5,1.6,0.8v0.1l0,0C44.6,41.3,44,41,43.4,40.7z"/>
	<path fill="#68331E" d="M45.6,56c0-0.8,0-0.8-0.7-0.7c-0.3-0.3-0.1-0.7-0.1-1.1c0-0.1,0.1-0.2,0.1-0.3c0.1-0.2,0.2-0.4,0.3-0.6
		c0.1-0.1,0.2-0.3,0.4-0.3c0.1,0,0.2,0.1,0.3,0.1c0.4-0.1,0.8,0.3,1.2,0.3c0.3,0.1,0.7,0.2,1,0.2l0.1,0.1c0,0.1,0.1,0.2,0.2,0.1
		c0.1,0,0.2,0,0.3,0c0.2,0.1,0.4,0.1,0.6,0.1c1.2,0,2.4,0.1,3.5-0.2c0.4-0.1,0.9-0.2,1.2-0.5c0.1-0.1,0.1-0.2,0.2-0.3
		c0,0,0.1-0.1,0.2-0.1c0.1,0,0.1,0,0.2,0c0.2,0.2,0.4,0.4,0.4,0.7c0.1,0.4,0.5,0.7,0.4,1.2c0,0.2,0,0.4-0.4,0.4s-0.5,0.3-0.5,0.6
		c0.1,0.3,0,0.6-0.4,0.8c-0.2,0.2-0.5,0.2-0.7,0c-0.3-0.2,0-0.6-0.2-0.8c0-0.2-0.6-0.5-0.7-0.5c-0.7,0-1.5,0-2.2,0
		c-0.1,0.1-0.3,0.1-0.5,0.1c-0.8-0.2-1.5-0.1-2.3-0.2c-0.5,0-0.7,0.2-0.8,0.7c0,0.2,0,0.3,0,0.5c0,0,0,0.1-0.1,0.1
		c-0.6,0.1-0.6,0-0.6-0.8c-0.1,0.3,0,0.5-0.1,0.8l-0.1,0.1C45.7,56.6,45.6,56.3,45.6,56z"/>
	<path fill="#F5F5F3" d="M55.1,53.7c-0.2-0.2-0.3-0.4-0.5-0.6c-0.2-0.2-0.1-0.5-0.2-0.7c-0.1-0.4-0.3-0.8-0.1-1.2
		c0.4-0.1,0.6,0.2,0.8,0.4c0.1,0.1,0.2,0.3,0.4,0.4l0,0c0.2,0.1,0.2,0.4,0.4,0.4c0.1,0,0.1,0.2,0.2,0.2c0,0.1,0.1,0.1,0.1,0.2
		c0,0.1,0,0.2-0.2,0.3C55.7,53.1,55.4,53.3,55.1,53.7z"/>
	<path fill="#29342E" d="M56.2,53c0.1-0.1,0.1-0.2,0.2-0.3c0.1,0.1,0.2,0.2,0.3,0.3l0,0C56.6,53,56.5,53,56.2,53
		C56.3,53.1,56.2,53,56.2,53z"/>
	<path fill="#FCB13A" d="M43.5,49.8c0,0.1-0.1,0.1-0.1,0.2c-0.1,0.2,0,0.5-0.4,0.5s-0.3-0.4-0.4-0.5c-0.2-0.3-0.1-0.6,0.3-0.5
		c0.2,0,0.4-0.1,0.5,0.1C43.1,49.6,43.6,49.7,43.5,49.8z"/>
	<path fill="#777777" d="M43.9,51.1c0.1,0.3-0.2,0.2-0.3,0.3C43.6,51.2,43.6,51,43.9,51.1z"/>
	<path fill="#F37632" d="M43.5,49.8c-0.1,0-0.2-0.1-0.2-0.2c0,0,0.1,0,0.1-0.1C43.5,49.6,43.6,49.7,43.5,49.8z"/>
	<path fill="#646464" d="M43.6,51.4c-0.1,0.1,0.1,0.3-0.1,0.4c0,0-0.1-0.1-0.2-0.2C43.4,51.6,43.5,51.5,43.6,51.4z"/>
	<path fill="#FCB13D" d="M44,53c0,0.2-0.1,0.4-0.3,0.3c-0.3-0.1-0.7-0.2-0.7-0.6c0-0.3,0.4-0.5,0.6-0.5C44.2,52.3,43.8,52.8,44,53z"
		/>
	<path fill="#F7F8F7" d="M45.7,53c-0.1,0.1-0.2,0.3-0.3,0.4c-0.2,0.1-0.3,0-0.4-0.2c-0.1-0.1-0.2-0.1-0.2-0.3
		c0.1-0.2,0.2-0.3,0.3-0.5c0.2-0.2,0.4-0.1,0.6,0.1C45.7,52.7,45.7,52.9,45.7,53z"/>
	<path fill="#FDB139" d="M56,50.9c0.2-0.2-0.1-0.7,0.4-0.6c0.2,0,0.6,0.1,0.6,0.5c-0.1,0.3-0.4,0.5-0.7,0.5C56,51.3,56,51.1,56,50.9
		z"/>
	<path fill="#838383" d="M57.9,51.7L57.9,51.7c-0.1,0.1-0.1,0.1-0.2,0.1c-0.3-0.3-0.7-0.3-0.9,0.2c-0.1-0.5,0.1-0.8,0.6-0.9
		c0.1,0.2-0.2,0.2-0.3,0.4C57.5,51.3,57.7,51.7,57.9,51.7z"/>
	<path fill="#F8AD40" d="M54.4,52.9c-0.5-0.4-1.1-0.2-1.6-0.1c-0.2,0.1-0.4,0-0.5,0c0,0,0,0,0,0c0.1,0,0.1,0,0.2,0
		c0.5-0.1,0.9-0.3,1.3-0.5c0.5-0.2,0.7-0.6,0.5-1.1c-0.2,0-0.3-0.3-0.5,0c0.1,0.1,0.2,0.3-0.2,0.2c-0.3,0.1-0.5,0.1-0.8,0.2
		c-0.1,0-0.2,0-0.4,0c0.1,0,0.1-0.1,0.2-0.1c0.4-0.2,0.7-0.3,1-0.5c0.3-0.2,0.6-0.5,0.1-0.8c-0.1,0.3-0.3,0.4-0.6,0.4
		c-0.3,0-0.6,0.2-1,0.1c0,0.5-0.3,0.2-0.5,0.1c-0.1,0-0.1,0-0.2,0c0,0,0.1-0.1,0.2-0.1c0.1-0.1,0.2-0.3,0.4-0.2
		c0.3-0.1,0.5-0.2,0.8-0.3c0.4-0.2,0.6-0.4,0.4-0.9c0,0-0.1,0-0.2,0c0.1,0.4-0.3,0.3-0.5,0.4c-0.2,0.1-0.4,0.2-0.6,0.1
		c-0.2,0-0.4,0.1-0.6,0.1c0.2,0,0.3,0,0.5-0.1c0.2-0.1,0.5-0.2,0.7-0.3c0.3-0.1,0.6-0.4,0.4-0.8c0,0-0.1-0.1-0.2-0.1
		c-0.4,0.3-0.8,0.2-1.2,0.2c-0.1,0-0.1,0-0.2,0c0,0,0,0,0.1,0c0.2,0,0.5,0,0.7-0.2c0.1-0.1,0.2-0.2,0-0.5c-0.2,0-0.4-0.1-0.7,0
		c0.1,0.1,0.2,0.1,0.3,0.1c0.1,0,0.1,0,0.1,0c-0.5,0.1-0.7,0-1.1,0v0c-0.4-0.3-0.7-0.1-1.1,0c-0.1,0-0.2,0-0.3-0.1
		c-0.1,0-0.3-0.1-0.4,0c-0.2,0.2-0.1,0.2,0,0.3c-0.2,0-0.1-0.3-0.3-0.4c-0.1-0.1-0.2-0.1-0.3,0c-0.2,0.2-0.2,0.4,0.1,0.5
		c0.4,0.2,0.7,0.4,1.1,0.4c-0.4,0-0.8-0.2-1.1-0.4c-0.2-0.1-0.4-0.2-0.6,0c-0.1,0.1,0,0.2,0,0.3c0,0,0,0,0,0c-0.1,0-0.2-0.1-0.3,0
		c0,0.4,0.3,0.5,0.6,0.6c0.2,0.1,0.5,0,0.5,0.3l0.2-0.1c0,0.1,0.1,0.2,0.2,0.2c0.5,0.1,0.9,0.1,1.4,0.1c-0.6,0-1.1,0-1.8-0.1
		c-0.4-0.1-0.7-0.3-1.1-0.3l0.6,0.7c-0.3,0.1-0.6-0.3-0.9-0.1c0.6,0.4,1.4,0.6,2.1,0.7c0,0-0.1,0-0.1,0c-0.8-0.2-1.5-0.3-2.2-0.7
		c-0.2,0-0.3,0-0.4,0.1c0.1,0.2,0.3,0.4,0.6,0.6c-0.3-0.1-0.5-0.3-0.7-0.5c-0.2,0.2-0.1,0.4,0.1,0.6c0.2,0.2,0.5,0.4,0.7,0.5
		c-0.2-0.1-0.4-0.2-0.6-0.3c-0.1,0-0.2-0.2-0.4-0.1c-0.2,0.2-0.2,0.3-0.2,0.5s0,0.4,0.2,0.5c0.1,0.2,0.3,0.3,0.5,0.4
		c-0.1-0.1-0.3-0.1-0.4-0.2v0c-0.1-0.1-0.1-0.1-0.1-0.1c-0.2-0.1-0.2,0-0.3,0.1c-0.2,0.3-0.1,0.6,0,0.9c0.4,0.3,0.8,0.5,1.2,0.5
		c0,0,0,0,0,0c0,0,0,0.1,0,0.1v0.1c0.3,0.1,0.6,0.3,1,0.1c0.1-0.1,0.1-0.1,0.1-0.1c0-0.1,0-0.1,0-0.1c0-0.2,0-0.3,0.2-0.2
		s0.5,0.1,0.5,0.4c0,0.2,0.1,0.3,0.3,0.3c0.6,0.1,0.7-0.5,0.9-0.8c0.1-0.2,0.2-0.3,0-0.4c0.3,0,0.5,0,0.8,0c0,0-0.1,0-0.1,0
		c-0.2,0-0.4,0-0.5,0.3c0.2,0.7,0.3,0.8,1,0.8c0.4,0,0.7,0,1-0.1c0.7-0.1,1.5-0.2,2-0.7c0-0.1,0.1-0.1,0.1-0.2
		C54.5,53,54.5,52.9,54.4,52.9z M47.4,52.6c-0.2-0.1-0.4-0.2-0.6-0.2C47,52.5,47.2,52.5,47.4,52.6z M48.4,52.9
		c0.4,0.1,0.8,0.1,1.3,0.1C49.3,53,48.8,53,48.4,52.9z"/>
	<path fill="#6C6C6C" d="M56.2,52.6c-0.2,0.3-0.1-0.2-0.2-0.1c0-0.1-0.1-0.1,0-0.2c0.2-0.1,0.3-0.3,0.5-0.2
		C56.4,52.3,56.1,52.4,56.2,52.6z"/>
	<path fill="#7E8882" d="M56,52.3c0,0.1,0,0.1,0,0.2c-0.3-0.1-0.2-0.4-0.4-0.5C55.9,51.9,55.8,52.2,56,52.3z"/>
	<path fill="#FDB138" d="M56.7,53c0.1,0,0.2,0,0.2-0.1c0-0.2,0.1-0.4,0.4-0.3c0.2,0.1,0.5,0.3,0.5,0.5s-0.2,0.3-0.4,0.3
		C56.9,53.6,56.6,53.6,56.7,53L56.7,53z"/>
	<path fill="#485950" d="M57.8,51.8L57.8,51.8c0.1,0.1,0.2,0.2,0.2,0.3s-0.1,0.1-0.1,0.2C57.6,52.1,57.8,51.9,57.8,51.8z"/>
	<path fill="#E3F1EA" d="M48.9,56.2c0-0.2,0.1-0.3,0.2-0.3c0-0.1,0-0.2,0-0.2c0.3-0.2,0.7-0.1,1,0.3c0,0.2-0.3,0.1-0.4,0.2
		C49.5,56.3,49.4,57,48.9,56.2C49,56.4,48.9,56.3,48.9,56.2z"/>
	<path fill="#D7EBE0" d="M48.9,56.2c0.1,0,0.1,0.1,0.2,0.1c-0.1,0.1-0.3,0.2-0.4,0.1C48.6,56.3,48.9,56.3,48.9,56.2z"/>
	<path fill="#D1E8DB" d="M49,55.3c0.1,0,0.1,0,0.2,0c0.1,0.1,0.1,0.2,0,0.3c0,0.1,0,0.2,0,0.3C49.1,55.7,49,55.5,49,55.3z"/>
	<path fill="#F1F3F6" d="M50.5,59.2c0.1-0.3,0.2-0.5,0.4-0.9c0.2,0.4,0.4,0.6,0.3,0.9C51.1,59.4,50.7,59.3,50.5,59.2z"/>
	<path fill="#9B450A" d="M51.9,49.6L51.9,49.6C51.7,50,51.4,50,51.2,50c-0.7,0.1-1.3,0-2,0c-0.2,0-0.4,0-0.5-0.2
		c0-0.1,0-0.2,0.2-0.2C49.8,49.9,50.9,49.8,51.9,49.6z"/>
	<path fill="#A04B0D" d="M51.5,48.8C51.5,48.9,51.5,48.9,51.5,48.8c-0.7,0.3-1.4,0.3-2.1,0.2v-0.1C50.1,49,50.8,48.9,51.5,48.8z"/>
	<path fill="#F0F2F5" d="M54,45.7c0.1-0.2,0-0.4,0.3-0.4c0.2,0.1,0.6,0,0.6,0.4c0,0.2-0.2,0.3-0.4,0.3C54.2,46,54,46,54,45.7z"/>
	<path fill="#F9FAFB" d="M47.1,45.9c0,0.3-0.1,0.5-0.4,0.6c-0.3,0.1-0.5,0.1-0.4-0.3c0-0.2-0.1-0.3-0.1-0.5s-0.3-0.6,0.2-0.6
		c0.4,0,0.6,0.1,0.7,0.5C47.1,45.8,47.1,45.9,47.1,45.9z"/>
	<path fill="#A14B0E" d="M47.4,51.4c1.7,0.5,3.5,0.5,5.2,0.1l0.1,0.1v0.1c-0.2,0.1-0.4,0.3-0.7,0.2c-1.2,0.1-2.4,0.2-3.5,0
		c-0.4-0.1-0.9-0.2-1.3-0.4C47.4,51.5,47.4,51.4,47.4,51.4z"/>
	<path fill="#A75414" d="M49.5,50.7c0.7,0.1,1.3,0,2-0.1c0,0.1,0,0.1,0,0.2c-0.1,0.1-0.2,0.2-0.3,0.1c-0.7,0-1.3,0-2,0
		C49.3,50.8,49.4,50.8,49.5,50.7z"/>
	<path fill="#B7641A" d="M46.3,52.2L46.3,52.2l0.1-0.2c0.3,0.2,0.7,0.4,1.1,0.5c0.1,0,0.3,0.1,0.3,0.3
		C47.2,52.9,46.7,52.6,46.3,52.2z"/>
	<path fill="#2A5930" d="M46.4,50.7c-0.1-0.1-0.2-0.2-0.2-0.2c0-0.1-0.1-0.4,0.3-0.3C46.4,50.3,46.4,50.5,46.4,50.7z"/>
	<path fill="#FAAE49" d="M45.6,49.8c0.1-0.3,0.3-0.5,0.7-0.2c0.1,0.3-0.1,0.3-0.3,0.4C45.7,50.1,45.6,50,45.6,49.8z"/>
	<path fill="#D1D9E3" d="M49.7,61.7c0,0.2-0.1,0.3-0.2,0.2c-0.1,0-0.2-0.1-0.1-0.3c0-0.1,0.1-0.2,0.2-0.2
		C49.7,61.5,49.7,61.6,49.7,61.7z"/>
	<path fill="#DDE3EB" d="M49.7,61.1c0,0.1,0,0.1-0.1,0.2c-0.1,0-0.1,0-0.2-0.1c0-0.1,0-0.2,0.1-0.2C49.6,60.9,49.6,61,49.7,61.1z"/>
	<path fill="#DEE3EB" d="M50.7,61.4c0,0.1,0,0.2-0.2,0.2l-0.1-0.1C50.4,61.4,50.5,61.3,50.7,61.4C50.6,61.3,50.7,61.4,50.7,61.4z"/>
	<path fill="#434134" d="M45,52.2c-0.1,0-0.1,0-0.2,0c-0.2-0.4,0.2-0.3,0.3-0.4c0,0.1,0,0.1,0,0.2C45.1,52,45.2,52.2,45,52.2z"/>
	<path fill="#FBEFDC" d="M53,49.3c0.1,0.1,0.2,0.3,0.1,0.4c-0.1,0.2-0.2,0-0.4,0c-0.1,0-0.2,0-0.3,0s-0.2,0.1-0.2-0.1
		C52.5,49.6,52.8,49.4,53,49.3z"/>
	<path fill="#F4AC46" d="M51.1,48.1c-0.1,0-0.1,0-0.2,0c-0.1-0.1-0.2-0.2-0.1-0.3c0.2,0,0.3,0.1,0.5,0.1
		C51.3,48.1,51.2,48.1,51.1,48.1z"/>
	<path fill="#943F08" d="M49.3,54.1c0.6,0.1,0.5-0.5,0.8-0.8c0.1-0.1,0.2-0.1,0.4,0c0.4,0.8,0.4,0.8,1.5,0.6
		c0.8-0.1,1.6-0.3,2.4-0.7c-0.5,0.7-1.3,0.7-1.9,0.8c-1,0.2-2,0.1-3.1,0.1C49.2,54.2,49.2,54.1,49.3,54.1z"/>
	<path fill="#B0601E" d="M54.5,53.1c0-0.1,0-0.1,0-0.2c-0.2-0.2-0.1-0.4-0.2-0.6c-0.4,0.3-0.9,0.5-1.4,0.6c-0.1,0-0.2,0-0.3-0.2
		c0.4-0.1,0.8-0.3,1.1-0.4c0.5-0.2,0.8-0.5,0.7-1.1h0.1c0.1,0.3,0,0.7,0.2,1c-0.1,0.3,0.1,0.6-0.1,0.8C54.5,53,54.5,53,54.5,53.1z"
		/>
	<path fill="#943F08" d="M54.6,53c0.1-0.3-0.1-0.6,0.1-0.8C54.8,52.5,54.8,52.7,54.6,53C54.7,53,54.6,53,54.6,53L54.6,53z"/>
	<path fill="#A85412" d="M50.5,53.3c-0.1,0-0.2,0-0.4,0c-0.1,0,0.5-0.2,0-0.2c-0.6,0-1.2,0-1.8-0.1c-0.1,0-0.3-0.1-0.3-0.2
		c1.5,0.3,3,0.3,4.5,0c0,0.1,0.1,0.3-0.1,0.2C51.7,53.1,51,52.9,50.5,53.3z"/>
	<path fill="#8F4B2E" d="M47.8,30c-0.2,0.8-0.5,1.5-0.9,2.3c-0.1,0.2-0.2,0.4-0.5,0.3c-0.2-0.1-0.1-0.3-0.1-0.5
		c0.2-0.5,0.3-1,0.4-1.5c0.3-1.4-0.5-2.2-1.9-2c-0.7,0.1-1.4,0.3-2,0.6c-2.4,1-4.5,2.4-6.5,4c-0.1,0.1-0.2,0.2-0.4,0.3
		c-0.2,0.1-0.5,0.4-0.7,0.2s0.1-0.5,0.3-0.7c1.2-1.1,2.4-2.1,3.8-2.9c1.8-1.1,3.8-2,5.9-2.4c0.2-0.3,0.4-0.3,0.5-0.3
		C47.4,27.4,48.1,28.3,47.8,30z M63.4,31.5c-2.1-1.6-4.3-2.9-6.8-3.7c-1.1-0.4-2.3-0.7-3.6-0.7c-1.3,0.1-1.9,0.7-1.8,2
		c0.1,1,0.7,1.9,1.2,2.8c0.1,0.2,0.2,0.4,0.5,0.3c0.3-0.1,0.2-0.4,0.1-0.6c-0.2-0.4-0.4-0.9-0.5-1.3c-0.3-1.4,0.3-2.1,2-2.1
		c0.5,0,1.4,0.3,2,0.4c2.4,0.8,4.5,2.1,6.5,3.5c0.3,0.2,0.7,0.7,1,0.3C64.2,32.1,63.7,31.7,63.4,31.5z M70.8,44.3
		c-0.4-2.1-1.1-4.2-2.1-6.1c-0.2,0.3-0.4,0.7-0.6,1c0.1,0.1,0.1,0.1,0.1,0.2c0.7,1.7,1.2,3.4,1.4,5.3c0.1,0.8,0.2,1.6,0.7,2.3
		c0.2,0.2,0.3,0.4,0.5,0.3c0.3,0,0.3-0.3,0.3-0.5C71.1,46,70.9,45.1,70.8,44.3z M31.4,38.4c-0.6,1-1,2.1-1.3,3.1
		c-0.6,2.1-1,4.2-0.9,6.4c0,0.2,0,0.4,0.2,0.5c0.3,0.1,0.4-0.1,0.5-0.3c0.2-0.3,0.4-0.7,0.4-1.1c0.1-1.6,0.3-3.2,0.7-4.8
		c0.2-1.1,0.3-2.1,0.9-3.1C31.7,38.9,31.7,38.6,31.4,38.4z M57.3,35.8c0.1,0.1,0.2,0.3,0.4,0.2c0.1-0.1,0.1-0.2,0.1-0.3
		c-0.1-0.5-0.3-0.9-0.6-1.3c-0.3-0.3-0.6,0-0.9-0.1C56.5,34.8,56.8,35.2,57.3,35.8z M55,33c0-0.5-0.6-1.1-1.1-1.1
		c-0.2,0-0.3,0-0.3,0.2c-0.1,0.4,0.6,1.2,1.2,1.2C54.9,33.3,55,33.2,55,33z M45.5,32.4c0-0.1,0.1-0.3-0.1-0.3c-0.4,0-0.8,0.3-1,0.7
		c0,0.1-0.1,0.2-0.1,0.3c-0.1,0.3,0,0.4,0.3,0.4C45.1,33.5,45.5,33,45.5,32.4z M34.4,34.9c0.1-0.2,0.2-0.3,0.3-0.5
		c0.1-0.2,0-0.3-0.1-0.4c-0.1,0-0.2-0.1-0.3,0c-0.7,0.8-1.7,1.6-1.6,2.9c0.2,0,0.3,0.1,0.4,0.1C33.7,36.3,34.1,35.5,34.4,34.9z
		 M62.1,33.8c-0.2-0.5-0.5-0.8-1-0.9c-0.1,0-0.3-0.1-0.4,0.2c-0.1,0.5,0.9,1.9,1.4,2c0.2,0,0.3-0.1,0.3-0.3
		C62.3,34.5,62.3,34.1,62.1,33.8z M37.2,35.9c0.1,0.1,0.3,0,0.4-0.1c0.5-0.4,0.8-1,1-1.6c0.1-0.2,0.2-0.4,0-0.5
		c-0.1-0.2-0.3-0.1-0.5,0c-0.7,0.4-0.9,1-1,1.8C37.1,35.6,37,35.8,37.2,35.9z M57.4,34.1c0.3,0.7,0.7,1.4,1.1,2.1
		c0.1,0.2,0.3,0.2,0.5,0.1c0.2-0.2,0.1-0.3,0-0.5c-0.3-0.6-0.6-1.1-0.8-1.7c-0.1-0.2-0.3-0.3-0.5-0.3C57.5,33.9,57.2,33.8,57.4,34.1
		z M-465.4-3075c-2.8-0.3-3.9,0.6-2.3,3.4c1,1.7,2,3.5,3,5.2c8.5,15.2,17.1,30.4,26.6,45.1c0.8,1.2,1.1,3.8,3.5,2.1
		c2.2-1.6,0.1-2.9-0.6-4.2c-1.6-2.9-3.3-5.7-5-8.6l0,0c-2.8-2.5-3.7-6.2-5.8-9.1C-453-3052.1-459.6-3063.3-465.4-3075 M-375-3039
		c-4.5,2.1-4.6,4.9-2.8,8.4c2.4,4.7,4.7,9.6,7.1,14.3c0.6,1.1,0.6,3.5,2.8,2.3c1.6-0.9,3.7-2.3,2.5-4.8
		C-368.6-3025.6-371.8-3032.3-375-3039 M-1141.3-3054.2c3.8-5.8,7.6-11.6,11.5-17.2c1.1-1.7,0.3-2.7-0.9-3.8c-1.9-1.7-2.6,0-3.4,1.2
		c-2.8,4.1-5.3,8.4-8.3,12.3C-1144.6-3058.9-1144.2-3056.7-1141.3-3054.2 M-986.2-3104c0.7-0.1,1.3-0.4,1.6-1c0.5-1,0.7-2.2,1.4-3.1
		c2.8-3.7,0.8-5.4-2.4-7c-4.2-2.1-3.4,2.2-4.8,3.6c-0.7,0.8-1,2-1.6,3c-1.6,2.4-0.7,3.5,1.9,3.9
		C-988.8-3104.4-987.5-3104.2-986.2-3104 M62.1,33.2c0.5,0.9,1,1.7,1.5,2.6c0.1,0.2,0.3,0.3,0.5,0.2c0.2-0.1,0.2-0.3,0.1-0.5
		c-0.4-0.8-0.7-1.7-1.4-2.3c-0.2-0.1-0.4-0.3-0.6-0.3S61.9,33,62.1,33.2z M64.6,33.2c-0.1,0.2,0,0.3,0.1,0.5
		c0.4,0.5,0.8,1.1,1.2,1.7c0.1,0.3,0.3,0.6,0.7,0.4c0.3-0.2,0.2-0.5,0-0.8c-0.4-0.8-1-1.3-1.6-1.9c0,0-0.1,0-0.2-0.1
		C64.7,33,64.6,33.1,64.6,33.2z M64.4,35.5c0.1,0.2,0.2,0.5,0.4,0.6s0.3,0.2,0.5,0.1s0.3-0.3,0.2-0.5c-0.5-1-1-2-2.1-2.6
		C63.8,33.9,64.2,34.7,64.4,35.5z M59.6,34.6c-0.1-0.6-0.5-0.7-0.9-0.8c-0.2,0-0.3,0.1-0.2,0.3c0.4,1.1,0.9,2.1,1.9,2.7
		C60,36.1,59.8,35.4,59.6,34.6z M63.7,37.1c-0.1-0.7-0.5-0.9-1.1-1.2c0.1,1.2,0.7,2.2,1.5,3C64,38.3,63.8,37.7,63.7,37.1z M60.8,35
		c0-0.3-0.2-0.4-0.5-0.4c-0.2,0-0.2,0.2-0.2,0.3c0.2,0.9,0.5,1.8,1.3,2.3C61.1,36.4,60.9,35.7,60.8,35z M55.4,31.8
		c-0.2,0-0.4,0-0.4,0.3c0,0.4,0.7,1.2,1.1,1.3c0.2,0,0.4,0,0.4-0.2C56.5,32.6,55.9,31.8,55.4,31.8z M57.1,33
		c0.2,0.1,0.3,0.2,0.5,0.1c0.1-0.1,0.1-0.3,0-0.5c-0.3-0.7-0.8-1.1-1.5-1.3C56.2,32,56.4,32.6,57.1,33z M65,38.3
		c0-0.5-0.1-0.9-0.2-1.3c0-0.3-0.2-0.4-0.5-0.3c-0.3,0.1-0.2,0.3-0.2,0.5c0.2,0.7,0.4,1.4,0.8,2c0.2-0.4,0.4-0.9,0.3-1.4
		C65,37.9,65.2,38.2,65,38.3z M62.3,36.6c0-0.7-0.5-0.9-1-1.2c0.1,1.1,0.5,1.9,1.3,2.7C62.5,37.5,62.3,37.1,62.3,36.6z M55.8,29
		c0,0.2,0.1,0.3,0.2,0.4c0.3,0.4,0.7,0.7,1.3,0.7c0.3,0,0.3-0.1,0.2-0.3c-0.3-0.6-0.7-0.9-1.3-0.9C56.1,28.9,55.9,28.8,55.8,29z
		 M53.9,28.9c0,0.5,0.5,1,1.1,1c0.2,0,0.4,0,0.4-0.3c-0.1-0.5-0.5-0.9-1.1-0.9C54.2,28.7,53.9,28.6,53.9,28.9z M59.3,32.3
		c-0.1,0-0.3,0-0.2,0.2c0.1,0.6,0.4,1.1,1,1.4c0.3,0.1,0.3-0.1,0.3-0.3C60.4,33,59.9,32.4,59.3,32.3z M66.7,37.1
		c-0.1-0.6-0.4-0.6-0.9-0.6c-0.5,0.2-0.4,0.5-0.3,0.8c0,0.1,0,0.2,0,0.3C65.9,37.5,66.3,37.3,66.7,37.1L66.7,37.1z M58.3,32
		c-0.2,0-0.3,0.1-0.3,0.3c0,0.4,0.5,1,0.8,1c0.1,0,0.2,0,0.2-0.2C59,32.7,58.6,32.1,58.3,32z M57.4,31.5c0.1,0.1,0.3,0.2,0.5,0
		s0-0.4-0.1-0.6c-0.3-0.4-0.8-0.3-1.3-0.4C56.8,30.9,57.1,31.2,57.4,31.5z M60.3,32.2c0.2,0.1,0.4,0.1,0.3-0.2
		c-0.2-0.6-0.7-0.8-1.3-0.5C59.6,31.8,59.9,32,60.3,32.2z M52.9,29.3c0,0.5,0.3,0.6,0.6,0.7c0.2,0,0.3-0.1,0.3-0.3
		c-0.1-0.3-0.2-0.5-0.6-0.6C53,29,52.9,29.1,52.9,29.3z M54.6,30.7c0,0.3,0.3,0.5,0.6,0.5s0.5-0.1,0.5-0.4c0-0.4-0.3-0.3-0.6-0.3
		C54.9,30.6,54.6,30.3,54.6,30.7z M59.5,31c-0.2-0.6-0.6-0.9-1.1-0.9C58.7,30.3,59.1,30.6,59.5,31z M60.8,31.2
		c0.4,0.4,0.6,0.6,0.9,0.8C61.6,31.6,61.4,31.4,60.8,31.2z M67.1,42.1c0.2,0.1,0.3,0.2,0.4,0.1s0-0.2,0-0.3c0-0.5-0.1-1.1-0.2-1.6
		c-0.2,0-0.4,0-0.6,0c-0.2,0.5,0,1-0.1,1.5c0,0.1,0,0.1,0,0.2c0,0.1,0,0.1,0,0.2c0.1,0,0.1,0,0.2,0C66.9,41.7,67.1,42.1,67.1,42.1z
		 M68.5,43.5c0,0.3,0.1,0.6,0.3,0.9c0.1,0.2,0.2,0.4,0.4,0.3c0.1-0.1,0.1-0.2,0.1-0.4c-0.1-1.7-0.5-3.3-1.2-4.8
		c-0.3,0.2-0.3,0.5-0.5,0.8C67.8,41.4,68.1,42.4,68.5,43.5z M37.1,33.8c-0.3,0.1-0.5,0.3-0.7,0.6c-0.5,0.6-0.8,1.3-1,2
		c-0.1,0.2-0.2,0.5,0.1,0.6s0.5-0.2,0.6-0.4c0.4-0.9,0.8-1.7,1.2-2.5c0-0.1,0.1-0.1,0.1-0.2C37.3,33.6,37.2,33.7,37.1,33.8z
		 M34,36.5c-0.1,0.3,0,0.5,0.2,0.6s0.4,0,0.5-0.2c0.1-0.1,0.2-0.3,0.2-0.4c0.3-0.9,0.7-1.8,1.1-2.7C34.9,34.5,34.4,35.5,34,36.5z
		 M40.7,35.1c0.1-0.2,0.3-0.4,0.1-0.6s-0.5-0.1-0.7,0.1c-0.1,0.1-0.3,0.2-0.3,0.4c-0.2,0.9-0.4,1.7-0.7,2.5
		C40,36.9,40.5,36,40.7,35.1z M41.3,34.7c-0.2,0.5-0.4,1-0.6,1.5c-0.1,0.2-0.3,0.5,0,0.6s0.5-0.1,0.6-0.4c0.3-0.5,0.5-1.1,0.8-1.7
		c0.2-0.4,0-0.4-0.3-0.4S41.3,34.4,41.3,34.7z M39.3,35.7c0-0.2,0.2-0.5-0.2-0.5c-0.3,0-0.5,0.1-0.5,0.4c0,0.5-0.1,0.9-0.2,1.4
		c-0.1,0.3-0.2,0.6-0.2,1C38.9,37.3,39.3,36.5,39.3,35.7z M43.3,33.7c0.5-0.3,0.8-0.7,1-1.3c0.1-0.3,0-0.4-0.3-0.3
		c-0.6,0.1-1.1,0.8-1.1,1.4C42.8,33.8,43,33.9,43.3,33.7z M53.8,36.2c0.4-0.7,0.9-0.2,1.3-0.2c0.1,0,0.2,0.1,0.3-0.1
		c0-0.2,0.2-0.4,0-0.5c-0.4-0.2-0.7-0.5-1.1-0.5c-0.4,0-0.5,0.5-0.6,0.8c0,0.1-0.1,0.3-0.1,0.4C53.7,36.2,53.7,36.2,53.8,36.2z
		 M41.7,33c-0.1,0.2-0.1,0.4,0.1,0.5c0.2,0.1,0.4,0,0.5-0.1c0.6-0.4,0.8-1,0.9-1.8C42.5,32,41.9,32.3,41.7,33z M45.2,29.1
		c0-0.2-0.2-0.2-0.4-0.2c-0.6,0-1,0.4-1.1,1c0,0.3,0.2,0.3,0.4,0.3C44.6,30.2,45.2,29.7,45.2,29.1z M38.1,36.2
		c-0.3,0.2-0.8,0.2-0.8,0.6c-0.1,0.7-0.2,1.3-0.2,1.9C37.7,38,38.1,37.2,38.1,36.2z M43.3,29.6c0-0.1,0.1-0.3-0.2-0.3
		c-0.5-0.1-1.2,0.4-1.4,0.9c-0.1,0.3-0.1,0.4,0.2,0.4C42.4,30.6,43.1,30.1,43.3,29.6z M40.2,32.9c0-0.2-0.2-0.1-0.3-0.1
		c-0.5,0.1-1,0.9-1,1.4c0,0.2,0,0.3,0.2,0.3C39.5,34.5,40.3,33.3,40.2,32.9z M42,35.2c0,0.3-0.1,0.5-0.2,0.7c0,0.2-0.1,0.4,0.1,0.5
		c0.3,0.1,0.4-0.1,0.5-0.3c0.3-0.5,0.5-0.9,0.7-1.4C42.5,34.5,42.2,34.7,42,35.2z M56.2,35c-0.1-0.5-0.3-0.8-0.7-1.1
		c-0.2-0.1-0.6,0.1-0.6,0.3c0,0.2,0.8,1.1,1.1,1.1C56.2,35.2,56.3,35.1,56.2,35z M43.8,34.2c-0.3,0.3-0.6,0.7-0.6,1.2
		c0,0.2,0.1,0.3,0.3,0.2c0.3-0.1,1-1,1-1.2S44,34,43.8,34.2z M35.7,39.4c0.5-0.7,0.9-1.4,1-2.4C35.6,37.5,36.1,38.6,35.7,39.4z
		 M41,32.7c-0.3,0-0.7,0.6-0.7,1c0,0.1,0,0.2,0.2,0.2c0.4,0,0.8-0.5,0.8-0.9C41.3,32.8,41.2,32.6,41,32.7z M46.1,33.2
		c-0.3,0-0.7,0.5-0.7,0.8c0,0.2,0.1,0.3,0.3,0.3c0.4,0,0.6-0.3,0.6-0.7C46.2,33.4,46.3,33.2,46.1,33.2z M50.6,30.8
		c-0.4,0-0.5,0.3-0.5,0.6c0,0.2,0,0.5,0.3,0.5s0.5-0.3,0.5-0.6C51,31.1,50.9,30.8,50.6,30.8z M39.9,32.1c-0.3-0.2-0.5-0.4-0.7-0.1
		c-0.2,0.2-0.5,0.4-0.5,0.8c0,0.1,0.1,0.1,0.1,0.1C39,32.9,39.9,32.3,39.9,32.1C39.9,32.1,39.9,32,39.9,32.1z M43.5,31.2
		c0,0.2,0.2,0.3,0.4,0.3c0.4,0,0.6-0.3,0.7-0.6c0.1-0.1,0-0.1-0.2-0.1C44.1,31,43.6,30.6,43.5,31.2z M46.2,30.8
		c0-0.2-0.1-0.2-0.2-0.2c-0.4,0-0.8,0.4-0.8,0.7c0,0.1,0,0.2,0.2,0.2C45.7,31.5,46.2,31,46.2,30.8z M53.1,30.3c-0.1,0-0.2,0-0.2,0.2
		c0.1,0.3,0.6,0.7,0.9,0.7c0.2,0,0.2,0,0.2-0.2C54,30.6,53.5,30.3,53.1,30.3z M45.9,29.4c-0.4,0-0.6,0.3-0.6,0.6
		c0,0.2,0.1,0.3,0.3,0.3c0.4-0.1,0.5-0.4,0.6-0.7C46.2,29.4,46.1,29.3,45.9,29.4z M53.5,38.2c0,0.2,0.1,0.3,0.3,0.3
		c0.4,0,0.6-0.3,0.7-0.6c0.1-0.3-0.2-0.2-0.3-0.2C53.8,37.7,53.6,37.9,53.5,38.2z M49.2,31.4c-0.3,0-0.5,0.2-0.5,0.5
		c0,0.2,0,0.4,0.2,0.4c0.4,0,0.5-0.3,0.6-0.6C49.5,31.5,49.4,31.4,49.2,31.4z M54.6,36.9c-0.1,0-0.3,0.2-0.2,0.4
		c0.1,0.2,0.3,0.2,0.5,0.1c0.3-0.2,0.5-0.4,0.6-0.7C55.2,36.6,55,36.7,54.6,36.9z M52.2,39.3c0,0.1-0.1,0.2,0,0.3s0.2,0,0.3,0
		c0.4-0.2,0.5-0.5,0.5-0.9C52.7,38.8,52.4,38.9,52.2,39.3z M54,36.5c-0.3,0-0.5,0.1-0.5,0.4c0,0.2,0.1,0.3,0.3,0.3
		c0.2-0.1,0.4-0.3,0.5-0.5C54.3,36.4,54.1,36.4,54,36.5z M49.9,30.7c0-0.1-0.1-0.4-0.3-0.3c-0.2,0-0.3,0.2-0.3,0.4
		c0,0.2,0.2,0.4,0.4,0.4C49.9,31.1,50,30.9,49.9,30.7z M48.6,32.7C48.2,32.8,48,33,48,33.3c0,0.2,0,0.4,0.2,0.3
		c0.3-0.1,0.5-0.3,0.5-0.6C48.7,32.9,48.8,32.7,48.6,32.7z M49.8,32.4c0-0.1-0.1-0.1-0.2-0.1c-0.4,0.2-0.4,0.5-0.3,0.9
		C49.8,33.1,49.9,32.8,49.8,32.4z M53.2,34.5c0.1,0.1,0.2,0,0.3-0.1c0.3-0.3,0.2-0.6-0.1-0.9C53.3,33.9,53.1,34.2,53.2,34.5z
		 M50.5,32.7c-0.3,0.1-0.4,0.2-0.4,0.5c0,0.1,0,0.2,0.2,0.2s0.3-0.2,0.4-0.4C50.7,32.9,50.6,32.7,50.5,32.7z M48.7,30.8
		c-0.2,0.1-0.4,0.2-0.4,0.5c0,0.1,0.1,0.2,0.2,0.2c0.2-0.1,0.3-0.3,0.4-0.5C48.9,30.9,48.8,30.8,48.7,30.8z M39.8,31.4
		c0.5-0.3,0.8-0.5,1-0.9C40.4,30.6,39.9,30.8,39.8,31.4z M52.6,38.2c-0.1,0.1,0.1,0.1,0.2,0.1c0.3-0.1,0.5-0.3,0.4-0.7
		C52.9,37.7,52.7,37.9,52.6,38.2z M52.7,33.8c-0.1-0.1-0.2-0.2-0.3-0.1c-0.3,0.2-0.2,0.5-0.2,0.8C52.5,34.3,52.7,34.2,52.7,33.8z
		 M52.5,33.2c0.1-0.2,0.1-0.4,0-0.6c0-0.1-0.2-0.1-0.2-0.1c-0.2,0.1-0.1,0.3-0.1,0.5c0,0.1,0,0.2,0.1,0.3
		C52.4,33.3,52.4,33.2,52.5,33.2z M51,32.2c0,0.2,0.2,0.2,0.3,0.2c0.2-0.1,0.3-0.2,0.3-0.4c0-0.1,0-0.2-0.2-0.2S51.1,32,51,32.2z
		 M47.6,32.5c0,0.1,0.1,0.2,0.2,0.1c0.2-0.2,0.2-0.4,0.1-0.7C47.5,32.1,47.4,32.3,47.6,32.5z M46.9,33.3c0,0.1,0,0.4,0.2,0.4
		s0.2-0.2,0.2-0.3c0-0.1,0-0.3-0.2-0.4C47,33,46.9,33.2,46.9,33.3z M54,33.8C54,33.7,53.9,33.8,54,33.8c0,0.4,0.1,0.6,0.5,0.6
		c0,0.1,0,0.1,0,0C54.4,34.1,54.4,33.9,54,33.8z M49.4,33.9c0.1-0.2-0.1-0.2-0.2-0.2c-0.2,0.1-0.3,0.2-0.3,0.4
		c0,0.1,0.1,0.2,0.2,0.2C49.3,34.2,49.4,34.1,49.4,33.9z M37.6,32.8c0.2-0.3,0.5-0.5,0.7-0.7C37.8,32.1,37.6,32.3,37.6,32.8z
		 M53.2,36.6L53.2,36.6c-0.3-0.1-0.5,0-0.5,0.3C53,36.9,53.2,36.8,53.2,36.6z M46.7,33.9c-0.2,0-0.2,0.1-0.2,0.2
		c0,0.1,0,0.2,0.1,0.2c0.1,0,0.2-0.1,0.2-0.2S46.8,33.9,46.7,33.9z M41.3,31.5c-0.1,0.1-0.1,0.3,0,0.4c0.1,0.1,0.3,0.1,0.4,0
		c0.4-0.2,0.7-0.5,0.9-1C42.1,31.1,41.5,30.9,41.3,31.5z M31.8,39.6c-0.3,0.8-0.4,1.6-0.6,2.5c-0.2,1.2-0.4,2.3-0.5,3.5
		c-0.1,0.1-0.1,0.3,0.1,0.4s0.4,0,0.5-0.2c0.2-0.3,0.3-0.6,0.4-1c0.2-1,0.4-2.1,0.6-3.1c0.3-0.3,0.2-0.7,0.4-1
		c0.1-0.1,0.1-0.3-0.1-0.4c-0.4-0.3-0.4-0.8-0.7-1.2C31.8,39.3,31.9,39.5,31.8,39.6z M32.4,41.9c0,0.3-0.1,0.7-0.1,1
		c0,0.2,0,0.3,0.1,0.4c0.1,0.1,0.2,0,0.3-0.1c0.3-0.3,0.5-0.6,0.7-0.9c0.1,0,0.1-0.1,0.1-0.1l0.1-0.1c0-0.2,0-0.3,0-0.5
		c-0.1-0.4,0-0.9-0.1-1.3c-0.3,0-0.6,0-0.9,0c0.1,0.1,0.1,0.2,0,0.3C32.4,41.1,32.4,41.5,32.4,41.9z"/>
	<path fill="#1C9253" d="M57.5,55.7c0.1,0.3,0.4,0.3,0.5,0.5c-0.2,0.1-0.4,0-0.6,0.1c-0.2,0-0.4-0.1-0.4,0.2c0,0.2-0.2,0.1-0.2,0.1
		c-0.2-0.1-0.4-0.2-0.5-0.3c-0.2,0.2,0,0.6-0.3,0.8c-0.1-0.1-0.1-0.1-0.2-0.2c-0.3-0.4-0.6-0.9-1.1-0.2c0,0.1-0.2,0-0.3,0.1v-0.1
		c0-0.1,0-0.1,0-0.2c0.1-0.2,0.2-0.3,0.2-0.5c0-0.5,0-0.8,0.6-0.9c0.4-0.1,0.2-0.5,0.1-0.8c-0.1-0.2-0.2-0.4-0.2-0.7
		c0.2-0.5,0.6-0.7,1.1-0.7c0.1,0,0.1,0,0.2,0.1c0.1,0.1,0,0.2-0.1,0.3c-0.2,0.2-0.1,0.4,0,0.6c0.1,0.2,0.2,0.3,0.4,0.4v0.1
		c0,0.1-0.1,0.2-0.2,0.3c0.2-0.1,0.4-0.3,0.6-0.4c0,0.1,0.1,0.1,0.2,0.1c0.1,0.4-0.4,0.6-0.5,0.9c0.6,0,1.2-0.2,2-0.3
		C58.4,55.5,58,55.6,57.5,55.7z M51.7,56.1c-0.6-0.6-0.7-0.6-1.2-0.1c-0.1,0-0.2,0.1-0.2,0.2c0,0.1,0,0.2-0.2,0.1
		c-0.1-0.1-0.2-0.2-0.4-0.1c-0.2,0-0.3,0.3-0.6,0.1H49c-0.1,0,0-0.1,0-0.1c0.1-0.1,0.2-0.2,0.2-0.4s0-0.5-0.2-0.6
		c-0.3-0.1-0.6-0.1-0.8,0.1c-0.1,0.2,0,0.4-0.1,0.5c-0.2-0.1-0.1-0.5-0.3-0.5c-0.1-0.1-0.3-0.1-0.4,0c-0.2,0.1-0.4,0.3-0.5,0.4
		c-0.2,0.2-0.2,0.5-0.2,0.7c0,0.1,0,0.1-0.1,0.2c-0.2,0.1-0.4,0-0.6,0c-0.3-0.1-0.3-0.4-0.4-0.6c-0.4-0.3-0.5-0.3-0.6,0.2
		c0,0.1,0.3,0.1,0.2,0.2c-0.2,0.4,0.1,0.7,0.3,1c0,0.1,0.1,0.3,0.3,0.2c0.2-0.1-0.1-0.3,0.1-0.4c0.2,0.1,0.4,0.2,0.5,0.2
		c0.4-0.1,0.8-0.2,1.2-0.2c0.2-0.1,0.5-0.3,0.3-0.4c-0.5-0.5,0.1-0.4,0.2-0.6c0.1,0.1,0.2,0.3,0.3,0.5c0.1,0.1,0.2,0.4,0.4,0.2
		c0.2-0.2,0.3-0.1,0.4,0c0.6,0.5,1.3,0.2,2,0.3c0.1,0,0.4-0.2,0.2-0.5c-0.2-0.3,0.2,0,0.2-0.2c0.1-0.1,0.2-0.2,0.3-0.3
		C51.9,56.1,51.8,56,51.7,56.1z M45.1,55.3c-0.1-0.4,0-0.8-0.2-1.1c-0.2-0.1-0.5,0-0.7,0c-0.1,0.1-0.1,0.1-0.1,0.2
		c0.4,0.1,0.4,0.3,0.1,0.6c-0.4,0.4-0.8,0.6-1.2,0.9c0.3,0.2,0.5,0.2,0.8,0.1c0.2-0.1,0.2-0.1,0.3,0.1c0.2,0.6,0.2,0.6,0.7,0.1
		C45.1,55.9,45.2,55.6,45.1,55.3z M43.6,54.2c0-0.1,0.1-0.1,0-0.2c-0.4-0.5-1-0.2-1.5-0.5c-0.1,0.2-0.4,0.2-0.5,0.4
		c0.4,0,0.7,0,1.1,0c-0.2,0.3-0.3,0.5-0.5,0.7c-0.1,0.2-0.2,0.3-0.1,0.4c0.1,0.2,0.3,0.1,0.4,0c0.4-0.2,0.5-0.6,0.7-0.8
		C43.3,54.2,43.5,54.2,43.6,54.2z M54.5,49L54,49.9c0.2-0.1,0.4-0.1,0.6-0.1C54.5,49.5,54.3,49.3,54.5,49z M53.7,56.8
		C53.7,56.8,53.7,56.8,53.7,56.8c0-0.1,0-0.1,0-0.2c0-0.3,0-0.6-0.2-0.8c-0.1-0.1-0.3-0.2-0.4-0.3c-0.1-0.1,0-0.4-0.3-0.4l-0.1,0.1
		c-0.1,0.3-0.2,0.5-0.4,0.7c-0.1,0.2-0.1,0.4,0.1,0.5c0.1,0,0.3,0,0.5,0c0.4-0.1,0.4,0.3,0.6,0.4c0,0,0,0-0.1,0
		c-0.2-0.1-0.4-0.1-0.6,0.1c0.1,0.2,0.2,0.3,0.3,0.4c0.2,0.2,0.5,0.4,0.8,0.2c0.2-0.2,0.6-0.3,0.4-0.7C54.1,56.8,53.9,57,53.7,56.8z
		 M57.1,49.7c0,0,0.1,0,0.2,0c-0.1-0.5,0-0.9,0.2-1.3c-0.6,0.1-0.7,0.7-1.1,0.9c0.1,0.2,0.1,0.3,0.2,0.4
		C56.8,49.7,56.9,49.7,57.1,49.7z M46,50.9c0.1-0.1,0.4-0.1,0.4-0.3c0,0,0-0.3-0.2-0.2c-0.2,0.1-0.4,0.2-0.6,0.3
		c-0.2,0.1-0.3,0.1-0.4,0c-0.1,0-0.3,0.1-0.3,0.3C45.3,51.1,45.6,50.9,46,50.9z M42.5,48.7c0.4,0.5,0.5-0.2,0.7-0.2
		c-0.5-0.2-0.6-0.6-0.7-1c-0.1,0-0.1,0.1-0.1,0.2c0.1,0.2,0.1,0.4,0.1,0.6S42.4,48.6,42.5,48.7z M52,56.8c0.1,0.2-0.4,0.5,0.1,0.7
		c0.1,0.1,0.3,0.2,0.4,0C52.8,57,52.2,57.1,52,56.8z M58.1,52c0-0.1,0.1-0.3,0.1-0.4l0,0c0,0,0,0,0-0.1c0,0,0,0,0,0
		c0-0.1,0.1-0.3-0.1-0.3c-0.1,0.2-0.1,0.3-0.2,0.4c0,0.1-0.1,0.1-0.1,0.2C57.9,51.9,57.9,52,58.1,52z M45.1,52.5
		C45.1,52.4,45,52.3,45.1,52.5L45.1,52.5z M44.5,52.8c0.2,0,0.3,0.1,0.3,0.2c0.1-0.1,0.4-0.2,0.3-0.5c-0.2-0.1-0.2-0.1-0.3-0.1
		c-0.1,0-0.2,0-0.3,0l-0.1,0.1C44.4,52.6,44.1,52.8,44.5,52.8z M44.8,54c0.1,0,0.2,0.2,0.3,0.1c0.1-0.2,0.2-0.4,0.3-0.6
		c-0.1-0.1-0.3-0.1-0.4-0.2C44.8,53.4,44.7,53.6,44.8,54z M54.2,51c0.1,0,0,0.1,0,0.2c0.1,0,0.1,0,0.1,0c0.1,0,0.1,0,0.1,0
		c0.5,0.2,0.7,0.6,1.2,0.8c-0.1-0.3-0.2-0.6-0.2-0.9c-0.4,0.1-0.6,0-0.9-0.2C54.3,50.8,54.2,50.7,54.2,51z M50.3,55.9
		c0-0.2,0.1-0.4,0.1-0.6c-0.1,0-0.3,0-0.4,0c-0.3,0-0.5,0-0.8,0c0,0.1,0,0.2,0,0.3c0.3,0.1,0.6,0.2,0.9,0.4
		C50.2,56,50.2,55.9,50.3,55.9z"/>
</g>
<g>
	<path opacity="0.2" enable-background="new    " d="M10.4,74.3V25.8c0-12.1,8.2-22.7,19.8-25.8H0v100h30.2
		C18.5,96.9,10.4,86.3,10.4,74.3z"/>
	<path opacity="0.1" fill="#FFFFFF" enable-background="new    " d="M89.6,25.8v48.5c0,12.1-8.2,22.7-19.8,25.8H100V0H69.8
		C81.5,3.1,89.6,13.7,89.6,25.8z"/>
</g>
</svg>
