<?xml version="1.0" encoding="utf-8"?>
<!-- Generator: Adobe Illustrator 23.0.0, SVG Export Plug-In . SVG Version: 6.00 Build 0)  -->
<svg version="1.0" id="Layer_1" xmlns="http://www.w3.org/2000/svg" xmlns:xlink="http://www.w3.org/1999/xlink" x="0px" y="0px"
	 viewBox="0 0 100 100" enable-background="new 0 0 100 100" xml:space="preserve">
<g>
	<path fill="#003366" d="M-0.1,99.9h100v-100h-100C-0.1-0.1-0.1,99.9-0.1,99.9z"/>
</g>
<path fill="#FDCA33" d="M69.4,54.3C69.3,54.2,69.3,54.2,69.4,54.3C69.3,54.2,69.3,54.2,69.4,54.3C69.3,54.2,69.3,54.2,69.4,54.3
	c-0.1-0.2-0.2-0.4-0.2-0.6h0.1c-0.1,0-0.1-0.1-0.1-0.2l0,0c0-0.2-0.1-0.3-0.1-0.3c0.1-0.1,0.1-0.3,0.2-0.4c0.2-0.2,0.4-0.3,0.2-0.7
	c0.1-0.1,0.1-0.2,0.1-0.3c-0.1,0.1-0.1,0.2-0.1,0.2l-0.1-0.1c-0.2-0.4,0.8-1.4,0.3-2.3c-0.2-0.4-1.3-0.7-1.4-1s0.6-1.2,0.7-1.5
	c0.6-2.1-0.7-5.5-1.6-7.7c0,0,0-0.1,0-0.2c0,0,0,0-0.1,0v-0.1c0-0.1-0.1-0.3-0.1-0.5v-0.1c-0.2-1-0.4-2.3-1.6-2.2
	c-1.2,0-1.3,2.3-3.3,1.6c-0.8-0.3-2.7-3.2-4-1.6c-0.8,1,0.8,1.9,0.8,0.8c0,0,0,0,0-0.1c0.7,0.5,0.1,1.5-0.5,1.7
	c0.5-0.6-0.1-0.9-0.6-1c0.1,0-1.4,0.4-1.3,0.4c-0.6,0-1.6-0.4-1.8-1c-0.3-0.8,1-1.6-0.6-1.8c0.4,0.1-1.2,0.5-1.1,0.5
	c-0.4-0.3-0.7-0.4-1.1-0.3c-0.4,0-0.7,0.2-1,0.5c-0.3,0-0.7-0.2-0.9-0.2s-2,0-2,0c-0.7-0.1-0.9-1.2-1.8-0.2C46,36,47,36,46.9,36.2
	c-0.2,0.4-0.4,0.7-0.7,1C46,37.4,45.5,37.7,45,38c-0.7,0.2-1.4,0.2-1.9,0.1c0,0-0.1,0-0.1-0.1c-0.1-0.1,0.3-1,0.2-1.2
	c-0.4-0.8-0.9-0.7-1.7-0.7c-0.6,0-1.1,0.3-1.5,0.7h-0.1l0,0l0,0l0,0c-0.3,0.1-0.4,0.2-0.6,0.4c-0.1,0.1-0.2,0.1-0.3,0.1
	c-0.4,0.1-2.2,0.1-2.6-0.3c-0.4,0,0-0.7-0.3-1c-0.5-0.5-1.1-0.6-1.7-0.3c-1,0.5-0.7,1.9-1.1,2.8c-0.5,1-0.9,1.8-1.2,2.8
	c-0.4,1.3-1.4,3-1.2,4.5c0.1,0.4,1.2,1.6,1,2.1s-1.4,0.7-1.6,1.6c-0.5,1,0.9,1.4,0.7,2.1c0,0-0.1,0.1-0.1,0.2c0,0.2-0.5,0.2-0.5,0.4
	c0,0.3,0.1,0.7,0,1c-0.1,0.2-0.3,0.5-0.4,0.7c0,0.3,0.1,0.5,0.3,0.7c-0.1,0-0.4,0.9-0.4,0.9c-0.1,1.3-0.4,0.4,0.3,1
	c0.1,0.1,0.7,0.4,1.1,0.6c-1.3,1.5,0.3,4.1,2.1,2.2c0.6,0.8,0.8,2.2,0.2,3.1c-0.3,0.5-0.8,0-1.1,0.8c-0.2,0.7,0.9,2.1,1.4,2.5
	c0.6,0.4,1.9,1.1,2.6,0.7c0.2-0.2,0.4-1.1,0.6-1.2c0.4-0.2,0.9,0.3,1.1,0.8l0,0c-0.1,0.2-0.1,0.3-0.2,0.4l0,0
	c-0.8,0.1-0.8,0.5-0.4,1.1c0,0,0,0.1,0.1,0.1c0.1,0.1,0.1,0.1,0.2,0.2l0,0c0.2,0.3,0.4,0.4,0.6,0.5l0,0c0,0.2,0.2,0.3,0.4,0.2
	c0.6,0.3,1.3,0.5,1.7,0.2c0.1,0.7,0.4,1.5,0.7,1.6c1.4,0.9,1.7-0.7,2.7-0.7c0.4,0.4-0.9,0.9-1,1.3c-0.3,1.3,1,1.1,1.8,1.3
	c1.2,0.3,2.4,0.8,3.7,1.1c0.1,0,0.3,0,0.4,0c0,0-0.1,0-0.1,0.1c0.2,0,0.3,0,0.3,0s0,0-0.1,0c1.4,0.1,2.6-0.3,4-0.8
	c1-0.3,3.7-0.3,3.7-1.7c1.6,0.5,3-0.7,2.8-2.4c0.6,0.7,2.6,0.4,2.9-0.6c0.3-0.9-1-1.3-0.3-2.1c0.1-0.1,0.2-0.2,0.3-0.3l0,0
	c0.3-0.1,0.5,0.1,0.8,0.4c0.1,0.2,0.2,0.2,0.3,0.2c0.2,0.1,0.4,0.2,0.6,0.2c0,0,0.1,0,0.2,0l0,0c0,0,0,0,0.1,0
	c0.5-0.1,1.1-0.4,1.4-0.7c0.6-0.5,0.8-0.8,0.9-1.6c0.1-0.3,0.4-0.4,0.2-0.8c-0.1-0.3-0.8-0.4-0.8-0.4c-0.6-1.6,0-2.8,1.4-3h0.1
	c0.1,0,0.2,0,0.3,0c0-0.5,0.9-0.8,0.6-1.7c-0.1-0.2-1.4-1-1.1-1.2s0.8,0.2,1.2-0.2c0.2-0.3,0.2-0.7,0.3-0.9
	c-0.1,0.1,0.2-0.5,0.4-0.8c0.2,0.1,0.4,0,0.4-0.3C69.7,54.7,69.5,54.5,69.4,54.3z"/>
<path fill="#CDAA8C" d="M65.9,45.9c0-0.4-0.4-0.7-0.9-0.8c0.7-0.2,1.2-0.4,1.2-0.7c0.2-0.1,0.2-0.2,0.3-0.3c0-0.1,0-0.2,0.1-0.2
	c-0.2,0-0.5,0-0.7,0c-0.1,0-0.1,0-0.2,0c0.3,0,0.6-0.1,0.8-0.3l0,0l0.1-0.1c0,0.1,0,0.1,0,0.2c0-0.1,0-0.2,0.1-0.3
	c0.1-0.2,0.1-0.3-0.1-0.4l0,0l0,0c-0.4-0.2-1.6,0-1.7-0.1c-0.1-0.2-0.2-0.3-0.4-0.4h0.1c0-0.1,0-0.2,0-0.2c-0.1,0-0.3,0-0.5,0
	c-0.2-0.1-0.4-0.1-0.6-0.1c0.2,0,0.3-0.1,0.4-0.2c0-0.1-0.2-0.1-0.4-0.2h0.1c-0.3-0.1-0.6-0.2-0.9-0.2c0,0.1,0.3-0.1-0.5-0.6
	c-0.2-0.1-0.4,0-0.4,0.2c-0.3,0.4-0.6,0.4-1,0c-0.1-0.1-0.1-0.3-0.2-0.4l-0.1-0.1c0.1,0,0.2,0.1,0.2,0.1c0-0.2-0.3-0.4-0.8-0.5
	c0,0,0,0,0.1,0c-0.2-0.3-0.3-0.7-0.4-1c0.1,0.1-2.9,0.5-3.2,0.5c-0.1,0-0.4,0-0.8,0c0.4,0,0.6,0,0.8-0.1c-0.3-0.1-0.7-0.2-1.3-0.3
	c0,0,0.1,0,0.1-0.1c-0.3-0.2-0.7-0.4-1.2-0.5c0.1,0,0.2,0,0.3-0.1c-0.6-0.6-1,0.1-1.7-0.3c0-0.1,0.1-0.2,0.1-0.3
	c0.2,0.8,1.5-0.6,0.4-1.5c0.5,0.9-0.2,1.1-0.4,1.3c0-0.7-0.7-1.6-1-1.1c-0.4,0.6,0.3,0.6-0.5,1.1c-0.2,0-1.4,0.2-1.5,0.1
	c-0.2-0.1-0.5-1-0.5-1c-0.7,0-1.1,0.8-1.1,1.4c-0.4,0.8-1.5-0.4-2.2,0.3c0.2,0.1,0.5,0.2,0.9,0.2c-0.4,0.1-0.8,0.2-1.1,0.3
	c-0.2,0-0.3,0-0.5,0c-1,0-1.9,0.3-2.9,0.3c-0.4,0-0.6-0.1-0.7-0.1l0,0c-0.5-0.3-0.5-0.3-0.6,0c-0.1,0.1-0.2,0.2-0.4,0.4
	c0.1,0,0.3,0,0.6,0c-0.4,0.1-0.7,0.3-0.9,0.5c-0.1,0.1-0.1,0.2-0.1,0.3c0.1-0.1,0.2-0.1,0.4-0.1c0.2,0.1-0.3,0.3-0.3,0.3
	c-0.2,0-0.3,0.1-0.3,0.2c-0.1,0-0.2,0.1-0.4,0.1s-0.4,0-0.5,0c0.1-0.1,0.3-0.2,0.1-0.3c0.4-1.7-1.1-0.2-1.3,0c0.1,0,0.2,0,0.2,0
	c-0.5,0-1.1,0.1-1.4,0.5c0.1,0,0.2,0,0.2,0.1c-0.4,0.1-0.6,0.2-0.7,0.4c0-0.2,0.2,0.2,0,0.1c-0.3-0.1-0.5,0.1-0.5,0.4
	c0.1,0.1,0.2,0.1,0.3,0.2c-0.3,0.1-0.6,0.2-0.8,0.3l0,0c-0.6-0.1-1.1-0.3-1.2-0.7c-0.3,0.5-0.3,1-0.1,1.5c0,0.2,0.3,0.3,0.8,0.4
	c-0.2,0.1-0.4,0.1-0.5,0.2c0.1,0.1,0.3,0.1,0.3,0.3c0.7-0.3,0-0.1,0,0.2c0.1,0.1,0.2,0.1,0.3,0.2c-0.2,0.2-0.5,0.3-0.6,0.6
	c-0.1,0.1-0.3,0.3-0.4,0.4c-0.1,0-0.1,0-0.2,0c0,0,0,0.1,0.1,0.1l-0.1,0.1c0.1,0.2,0.4,0.3,0.9,0.4c0,0,0,0-0.1,0
	c0.1,0,0.2,0,0.2,0.1c-0.2,0.1-0.4,0.2-0.5,0.3c0,0.3,0.2,0.5,0.3,0.7c-0.1,0.3,0,0.5,0.2,0.6c-0.1,0-0.1,0-0.2,0
	c-0.1,0.4-0.8,0.8-0.4,1.2l0.1-0.1c0.3,0.1,2.4-0.9,2.4-1c0,0,0,0-0.1,0c0.6-0.1,1.2-0.3,1.3-0.6c0.5-0.1,0.9-0.2,1.2-0.2
	c1.2,1.1,3.8,0.6,5.2,0.5c0.5,0,1.5-0.1,2,0c0.2,0.1,1.4,0.7,1.3,0.6c0,0,6.3,0.7,6.5,1c0.1,0.2,0.6,0.1,0.6,0.4c0.1,0,0.1,0,0.2,0
	c0.6-0.6,3-0.6,3.9-1.1c-0.1,0-0.1-0.1-0.1-0.1s0,0-0.1,0c0.5-0.1,0.9-0.3,1.2-0.4c0.8,0,1.5-0.1,2.2,0h0.1c0.2,0.2,0.4,0.3,0.6,0.5
	c0.2,0.2,0.6,0.4,1,0.6c-0.1,0-0.2,0.1-0.2,0.1c0.8,0.6,1.7,0.8,2.6,1.1c0-0.1,0.2-0.7,0.3-1.1l0.1-0.1c-0.1-0.2-0.2-0.3-0.5-0.4
	c0,0,0,0,0.1,0c0-0.4-0.1-0.6-0.2-0.8c0.3-0.1,0.6-0.4,0.6-0.7c0,0,0,0-0.1-0.1s-0.3-0.1-0.5-0.2c0.2-0.1-1.4-0.6,0.5-0.3
	c-0.2-0.5,0.6-0.3,0.6-0.7c0-0.2,0-0.2,0-0.5c-0.3,0-0.6,0-0.9,0C65.5,46,65.6,45.9,65.9,45.9z M65.2,44.1c0.1,0,0.2,0,0.3,0
	c-0.2,0-0.4,0-0.6,0C65,44.1,65.1,44.1,65.2,44.1z"/>
<g>
	<path fill="#3C674C" d="M71.1,69.3c0.7,0.3,1.4,0.5,1.5,0.5c0.1-0.1,0-0.3-0.2-0.5c0.1,0,1.6-0.2,1.6-0.2c0-0.2-0.1-0.4,0-0.5
		c1.1-0.8,0.8-2.2,0.6-3.2c-0.3-1.3-0.6-1.5-1.4-2.3c0.3-0.1,0.6-0.6,0.9-1.2c0.1,0,0.3-0.1,0.4-0.1c-0.1,0-0.2,0-0.4,0
		c0.1-0.2,0.2-0.4,0.2-0.5c0.1-0.1,0.1-0.1,0.2-0.2c0,0,0,0-0.1-0.1l0,0c0.1,0,0.1,0,0.2,0c0-0.1,0-0.2,0-0.4c0,0-0.1,0-0.1,0.1l0,0
		c0,0,0-0.1,0-0.2l0,0c0,0,0-0.1-0.1-0.1c0,0,0,0.1-0.1,0.1l0,0l0.1-0.1c0-0.3,0.1-1.3-0.3-1.9c-0.1-0.2-0.3-0.3-0.6-0.3
		c0.4-0.2,0.7-0.3,1-0.4c0.2,0,0.3,0,0.3-0.1c0,0,0,0,0-0.1c0.4-0.3,0.4-0.7,0.2-2c-0.2-1.8-0.4-2.4-2.1-2.1
		c0.2-0.2,0.4-0.5,0.4-0.7s-0.1-0.4-0.1-0.7c0.1-0.2,0.1-0.4-0.1-0.7c0,0-0.3,0.4-0.3,0.3c0.4-0.7,0.3-1.4-0.8-2
		c0,0.2,0,0.3-0.1,0.5c0-0.1-0.2-0.4-0.3-0.4c0-0.2,0-0.3,0.2-0.3c-0.6-0.8-1.7-0.8-2.4-0.1c0.3,0.4,0.4,1.2,0.5,1.9
		c-0.1-0.1-0.4,0.5-0.4,0.4h-0.1c-0.2,0.1-0.1,1.3-0.1,1.3c-0.1,0-0.1,0.1-0.2,0.2h0.1c0,0.1-0.1,0.2-0.1,0.3
		C69,53.6,69,55,68.9,55.4c0.1,0,0.2,0.1,0.3,0.2c0,0.2,0.1,0.4,0.2,0.6c-0.1,0.2-0.4,0.5-0.6,0.5c0.1,0.1-0.1,0.7-0.3,0.9
		c-0.4,0.3-0.8-0.7-0.4,0.4c0.1,0.2,0.8,0.9,1,1.2c0.5,0.9-0.1,1,0,0.7c-0.3,0.1-0.4,0.9-0.3,1c0,0.1-0.8-0.9-0.8-1.1
		c-0.1,0-0.2,0.1-0.3,0.1c0.1,0.1-2.3,1.7-2.2,2.2c0,0.4,1.3,0.8,1.3,0.6c0.2,0.2,0.7,1.2,0.7,1.6c0,0-0.3-0.1-0.4-0.1
		c0,0.1-0.3,0.7-0.3,0.7c-0.1,0.2-0.7,0.7-0.6,0.6c-0.1,0.1-0.4-0.3-0.4,0.2C66,65.8,66,66,66,66.2c-0.1,0.3-0.2,0.5-0.3,1v-0.1
		c0.1-0.1,0.1-0.2,0.1-0.3c-0.1,0.1-0.2,0.1-0.2,0.2c-0.1,0-0.1-0.1-0.3-0.1c0-0.2,0-0.5,0-0.7c-0.4,0-0.5,0-0.5,0.1
		c0-0.1,0-0.1-0.1-0.2c-0.1,0.2-2,0.6-1.8,0.5c-0.2-0.3-0.3-0.6-0.4-0.9c-0.8-0.2-1.1,0.8-1.1,1.4s1.5,0.8,0,1.5c0,1-0.6,2.1-0.7,3
		l-0.1,0.1C60.1,72,56,73.1,56,74c0.1,0.1,0.8,4.2,0.6,4.2c0.2,0,0.6,0.2,1,0.4l0,0l0,0c0.9,0.3,1.9,0.7,2.4,0.3
		c0.2-0.2,1.4-0.8,1.4-0.8s0.4-0.3,0.4-0.5c-0.3,0,0.2-1.9,0.2-2.4c0.2,0,3,0.7,3.2,0.8c0.2,0.1,1.2,0.7,1.4,0.8
		c0.2-0.1,0.4-0.6,0.6-0.7c0,0,0-0.1,0-0.2c0.3-0.2,0.4-0.3,0.6-0.5l0,0v-0.1c0.1-0.1,0.2-0.2,0.3-0.3c0.3,0.4,0.7,0.8,0.9,0.6
		c0-0.1,0-0.1,0-0.2c0.1-0.1,0-0.3-0.1-0.5c0,0,0,0,0.1,0c0.3,0.4,0.6,0.7,0.9,0.6c0.1-0.1,0-0.4-0.1-0.7c0,0,0,0,0.1,0
		c-0.1-0.1,0.1,0,0.2,0c0.2,0.1,0.3,0.2,0.4,0.1c0,0,0-0.1,0-0.2c0.3-0.2,0.6-0.5,0.9-0.9c0.1,0,0.2,0,0.3-0.1c0-0.1,0-0.2,0-0.2
		c0.5,0,0.7-0.9,0.6-1.1c-0.1,0-0.1,0-0.2,0c0,0.1,0,0,0,0c0.1-0.2,0.2-0.5,0.2-0.6s0.1-0.8,0.1-0.9 M63.3,71.2L63.3,71.2L63.3,71.2
		L63.3,71.2z M72.7,52.3L72.7,52.3L72.7,52.3L72.7,52.3z"/>
	<path fill="#3C674C" d="M43.5,74c0-0.6-3.3-2.5-4.2-2.4c-0.1-1.7-2-3-1.8-4.6c0-0.5,0.9-0.3,0.8-0.9c0-0.3-0.8-1.5-1.3-1.2
		c-0.1,0.1-0.4,1-0.6,1.2c-0.2,0.2-2.4-0.4-2.5-0.6c-0.1-0.3-0.3-1.2-0.8-0.7c0-0.1,0-0.2,0-0.2c-0.5-0.5-0.3-0.9-0.3-1.4
		c-0.2-0.2,1-2.5,1.3-2.7c0-0.3-0.3-1.3-0.8-1.3c-0.1,0-2.6-0.9-2.6-0.9h-0.1c0-0.1,0.1-0.1,0.1,0c0.2-0.1,0.5-0.2,0.7-0.3
		c0-0.1,0-0.2,0.1-0.3h-0.1c0-0.1,0.1-0.1,0.2-0.1c0.1-0.2,0.2-0.3,0.3-0.4c0.2-0.1,0.3-0.2,0.3-0.3c-0.2,0-0.3,0-0.4,0.1
		c-0.3-0.1-0.6-0.3-0.7-0.7c0,0-0.6-1.5-0.6-1.9c0.1-0.4,0.2-0.8,0.3-1.2c0.2-0.3,0.3-1.8,0.3-1.9c-0.2-0.1-0.7-2-0.9-2
		c0,0-2.3-0.1-2.7,0.3c-0.3,0.4-0.4,1.3-0.4,1.3c-0.2,0.2,0.6,1.8,0.8,2.3c0,0.1,0,0.1,0,0.2c-0.1-0.2-0.2-0.3-0.4-0.3
		c-0.4-0.2-1.7,0-1.8,0c-0.5,0.1-0.2-0.1-0.3,0.9c-0.1,0.9,0.1,1.8,0.7,2.7c0,0,0.8,1.3,0.2,1.6c-0.8,0.4-1,0.3-1.2,1.3
		c0,0.2,0.9,2.2,1.1,2.2c0.3,0.1,0.7,0,1.1,0.1c0.3,0.1-1.2,1.7-1.3,1.8c0,0.1,0,0.2,0,0.2c-0.2-0.1-0.2,0.2-0.4,0.3
		c0,0.2,0,0.6-0.1,0.7c-0.3-0.1-0.6-0.2-0.6,0.2c0,0.1,0.4,2.3,1.1,3c1,0.9,1.9,0.5,2.9,0c0-0.1-2,1.3-2.1,2.5c0,1,1.1,2.1,2,2.5
		c0,0,1.8,0,2.3-0.2c0,0.1,1,1.3,1.1,1.7c0.1,0,1.8-0.1,1.8-0.3c0,0,1.3,0.5,1.3,0.7c0.1,0,0.2,0,0.3,0c0.2,0.7,0.8,2.4,0.5,2.4
		c0,2.3,4.1,1.5,4.9,0.2C40.6,77.6,43.4,74,43.5,74z"/>
	<path fill="#3C674C" d="M53.8,76.5c0.4-0.4-1-0.4-1.1-0.4c-1.1,0.3-1.9,1.7-3.1,1.6c-1.2-0.2-1.9-1.6-3.2-1.6l0,0
		C46.2,76,46.1,76,46,76c0,0.1,0.1,0.2,0.1,0.2c-0.1-0.1-0.2-0.1-0.2-0.1c-0.1,0.1-0.6-0.2-0.3,0.3c0.3,0.2,3,2.1,3,2.3
		c0,0.1,0,0.1,0,0.2c-0.2,0.1-0.3,0.2-0.5,0.3c-0.6,0.2-1.3,0.4-1.3,0.8c0,0.1,0.2,0,0.6-0.2c-0.1,0.1-0.1,0.1-0.2,0.2
		c0.3,0.1,0.5,0.1,0.7,0c0.4,0.1,1.7-0.7,1.5-0.7c0.6,0,1,0.4,1.5,0.7c0.2-0.3-0.6-1-1.6-1.8c0.1,0,0.1,0.1,0.2,0.1
		c0.8,0.5,1.5,1,1.5,1.5c0.2,0.5,0.6,0.3,0.9,0.2c0,0,0-0.1-0.1-0.2c0.1,0.1,0.1,0.2,0.2,0.3c0.2,0.1,0.4,0.1,0.6,0
		c0-0.8-2-1.2-2-1.7C50.5,77.8,53.8,76.6,53.8,76.5z"/>
</g>
<g>
	<path opacity="0.2" enable-background="new    " d="M10.4,74.3V25.8c0-12.1,8.2-22.7,19.8-25.8H0v100h30.2
		C18.5,96.9,10.4,86.3,10.4,74.3z"/>
	<path opacity="0.1" fill="#FFFFFF" enable-background="new    " d="M89.6,25.8v48.5c0,12.1-8.2,22.7-19.8,25.8H100V0H69.8
		C81.5,3.1,89.6,13.7,89.6,25.8z"/>
</g>
<path fill="#B2081B" d="M67.3,78.5c0.4-0.8,4.2-0.3,5.1-0.5c-0.8-0.6-1.8-0.3-2.7-0.4c-0.3,0-3,0.1-3.2-0.1c-0.2-0.5,0.5-0.7,0-1.5
	c-0.4-0.6-1.6-0.7-2.3-0.9c-2.1-0.4-4.2,0.1-6.3,0.1c0,0-0.1-0.6-0.3-0.7c-0.6-0.3-1.2-0.4-1.8-0.6c-2.3-0.6-4.4-0.5-6.7-0.5
	c-0.7,0-8.5,0.3-8,1.8c-1.4,0-2.8-0.4-4.3-0.4c-1.3,0-3.6,0-4.6,0.9s-0.2,0.7,0.3,1.9c-0.4-0.1-5.7-0.2-5.7,0.4s5.1-0.3,5.1,0.4
	c-0.4,0-2.6-0.4-2.8,0.3c-0.2,0-3.2-0.4-3.2,0.4c1.7,0.9,4.3,0.2,6.1,0.4c0.8,0,3.9,0.9,4.3-0.3c0.2-0.7-0.8-1.2-0.6-1.7
	s3.7,0,4.3,0.1c1.2,0.1,4.2,1.1,5.3,0.4c1-0.6-0.1-0.8,0.2-1.3c0.3-0.4,0.2-0.3,0.8-0.6c1.4-0.5,4.6-0.1,6.1,0.1
	c2.3,0.4,0.2,0.1,0.7,1.4s3.2,0.4,4.4,0.4c0.4,0,0.8-0.2,1.3-0.2c0.1,0,0,0.8,0.3,0.8c0,0,0.7-0.8,0.9-0.9c0.4-0.2,1.4,0,1.9-0.1
	c0,0,1.4-0.1,1.5,0.1c0.4,0.9-1.7,1.3,0.3,2c0.9,0.3,2.5-0.3,3.4-0.4c0.8-0.1,6.1,0.5,6.1-0.2C73.2,78.6,67.8,78.5,67.3,78.5z"/>
<g>
	<path fill="#7DB96C" d="M64.5,58.4c0,0-0.1,0-0.2,0c0.4-0.5,0-1-0.1-1.7c-0.1-0.2-0.3-0.2-0.7-0.4c-1.4,0.7-4.3,0-6,0.1
		c-0.3,0.1-0.7,0.1-1.1,0.1c-0.5,0-0.8,0.2-0.9,0.7c-0.3,0.1-2,0.3-2.1,0.5c-0.1,0.3,0.5,0.6,1.4,0.7c-0.1,0-0.1,0.1-0.1,0.1
		c0,0.2,0.3,0.4,0.7,0.5c-1.1-0.1-2.1-0.1-2.3,0.1c0,0.8,2,1,4.4,1c0.2,0.1,0.4,0.2,0.6,0.2c0,0-0.1,0-0.1,0.1c0,0.2,0,0.3,0,0.5
		h0.1c0.1,0,0.2,0,0.4,0.1c-0.3,0.1-0.4,0.1-0.4,0.2c0,0.1,0.1,0.1,0.1,0.2c-0.2,0.2,0.2,0.2,0.8,0.3c0,0,0,0,0.1,0
		c-0.6,0.1-1,0.2-1,0.4c0,0,0.3,0.1,0.7,0.1c-0.5,0.1-0.9,0.2-0.5,0.6c0.5-0.2,1.1-0.3,1.8-0.2c-1,0.1-1.9,0.3-1.8,0.6h-0.1
		c-0.6,0-0.7,0.1-0.7,0.6h-0.1c0.1-0.2,0.1-0.3,0-0.5c0.1,0.1-0.4,0.2-1,0.2c0.1-0.3,0.3-0.2,0-0.5c0.1,0,0.1,0.1,0.2,0.1
		c0.5-0.5-2.3-1.2-2.3-0.1c0.1,0,0.3,0,0.5,0c-0.3,0.2-0.5,0.5-0.5,0.7c-0.3,0.1-0.6,0.1-0.9,0.2c0-0.4-0.2-0.7-0.4-0.8
		c0.3,0,0.5,0.1,0.6,0.3c0.1-0.3,0.1-0.6,0-0.9c-0.2,0-0.6-0.1-1-0.1c0.4,0,0.8,0,0.9,0c0-0.2-0.1-0.4-0.3-0.6l0,0
		c0-0.2-0.1-0.3-0.2-0.5c-0.2-0.4-0.9-0.7-1.4-0.7c-0.1-0.4,0.3-0.3-0.3-0.5c0,0,0,0-0.1,0c0.3,0,0.7,0.1,0.7-0.6
		c0-0.1,0-0.3-0.1-0.5h-0.1c0-0.9,0.9,0.9,1.2,0.4c0.1-0.2-0.1-0.4,0.2-0.4c-0.9-0.5-1.5-0.8-2.6-0.8c0,0.3,0,0.5,0,0.8h0.1
		c0,0.2,0,0.4,0,0.6c0.1,0,0.1,0,0.2,0c-0.3,0.3-0.2,1.1-0.2,1.7l0.1,0.1h-0.1c0,0.1,0,0.3,0,0.5c0.1-0.1,0.2-0.1,0.3-0.1
		c-0.1,0.2-0.2,0.4-0.1,0.6c0,0,0.2,0,0.4,0c-0.3,0.1-0.4,0.3-0.1,0.8c-0.4,0.1-0.8,0.1-1.1,0.1c0-0.1-0.3-0.1-0.7-0.1
		c0.1-0.1,0.2-0.2,0.2-0.4c0,0-0.1,0-0.3-0.1c0.4-0.1,0.5-0.3,0.3-0.5c0-0.2-0.1-0.4-0.2-0.5c0.1,0,0.2,0.1,0.2,0.2
		c0.1-0.2,0.1-0.5,0.1-0.7c0.1,0,0.1,0,0.1,0c0-0.9-0.1-1.3-0.3-1.4c0.1,0,0.3,0,0.3,0c0-0.3,0-0.6,0-0.9c-0.5,0.5-1.2,0.6-1.8,0.8
		c0,0,0.1,0,0.1,0.1c-0.2,0-0.5,0-0.7,0s-0.4,0-0.7,0c-0.2-0.1-0.3-0.2,0.1-0.3c0,0.1-1-0.2-1.8-0.3c0.1,0,0.2,0,0.2,0
		c-0.3-0.1-0.5-0.2-0.2-0.3c-0.2,0-0.4-0.1-0.7-0.1c0.4-0.1,0.8-0.2,1-0.4c0.1,0,0.2,0,0.3,0c0.4-0.1,1.3-0.3,1.2-0.9
		c-0.1-0.4-1.8,0-2,0c-0.7-0.1-1-0.6-1.5-0.8c-1-0.3-2.2,0-3.3,0c-1.8,0-4.2-0.9-4.3,1.3c0,0.2,0,0.3,0,0.5c0.1,0,0.1,0,0.2,0
		c-0.2,0.1-0.2,0.4-0.1,0.7c0-0.1,0.1-0.1,0.2-0.2c-0.1,0.2-0.1,0.4,0.1,0.8c0.3,0,0.5,0,0.7,0c-0.1,0-0.1,0-0.2,0.1
		c-0.2,0-0.4,0-0.4,0V60l0,0c0,0,0,0,0.1,0c0.1,0.2,0.3,0.4,0.5,0.7l0.1-0.1c0.1,0,0.2,0,0.4,0.1c-0.3,0.1-0.6,0.1-0.6,0
		c0.2,0.2,0.3,0.3,0.5,0.5c0.1,0.2,0.5,0.5,0.4,0.7c-0.5,0.5-1.2,0.9,0,0.9c0.6,0.1,1.1,0.3,1.6,0.6c0.2,0.1,0.8,0.3,1.5,0.5
		c-0.4,0-0.8,0-0.9,0c0.2,0.2,0.5,0.3,0.8,0.4c-0.2,0-0.3,0.1-0.3,0.2c0.1,0.1,0.2,0.2,0.2,0.4l0,0h0.1c0,0,0,0,0,0.1
		c0,0,0.2,0.1,0.5,0.1c-0.4,0.2-0.1,0.3,0.5,0.3c-0.8,0.2-0.8,0.2,0.3,0.5c0.1,0,0.3,0,0.4,0.1c-0.1,0-0.3,0.1-0.4,0.1
		c0.5,0.5,1.2,1,1.2-0.1c0.7,0,1.5-0.1,2.2,0c0.4,0,0.8,0.1,1.1,0.1c-0.8,0-1.6,0-2.4,0c0.1,0.2,0.6,0.4,1.2,0.5
		c-0.5,0-0.7,0.1-0.7,0.1c0.3,0.6,4.2,0.4,4.8,0.4c2.2,0,4.3,0,6.4-0.5c0,0,0,0-0.1,0c0.4-0.1,0.6-0.2,0.7-0.4
		c-0.3-0.1-0.6-0.2-1-0.2c0.6-0.1,1.2-0.3,1.5-0.2c0.2,0.1,0.4,0.3,0.6,0.5c-0.1,0-0.1,0-0.2,0c-0.3,0.8,0.7,1.1,0.7,0.5
		c-0.2,0-0.2-0.2-0.2-0.3l0.1,0.1c0-1.3,1.4-0.3,1.4-0.9c0-0.1,0.1-0.3,0.2-0.4c0,0,0,0-0.1,0c0,0,0.1-0.1,0.1-0.2
		c0.1,0,0.1,0,0.1,0h0.1c0-0.1,0-0.1-0.1-0.1c0-0.1-0.1-0.1-0.1-0.1c0.2,0,0.3-0.1,0.4-0.1c0.1-0.1,0.1-0.2,0.2-0.3
		c0.3-0.1,0.5-0.2,0.7-0.4c0.3-0.2,0.6-0.4,0.9-0.6c0,0,0,0-0.1-0.1c0.9-0.2,1.7-0.4,1.6-0.6c-0.1-0.2-0.3-0.4-0.5-0.4
		c0.1,0,0.1,0,0.1-0.1s-0.1-0.2-0.3-0.3c0.2,0,0.3,0.1,0.3,0.2c0-0.1,0.5-0.4,0.6-0.5l-0.1-0.1c0.3-0.1,0.5-0.2,0.5-0.3
		c0.1-0.1,0.1-0.2,0.2-0.4c-0.1,0-0.4,0-0.8,0c0.6-0.1,1-0.2,1-0.5h-0.1c0.2-0.1,0.2-0.2,0.1-0.3c0,0-0.2-0.1-0.3-0.1
		c0.2,0,0.4,0,0.5,0c0.1-0.2,0.2-0.4,0.2-0.6c-1.9,0-3.8,0-5.7,0c-0.1,0-0.3,0-0.6-0.1c2.5,0,6,0,6.4,0c0-0.1-0.1-0.2-0.3-0.2
		c0.1,0,0.2,0,0.3,0C64.5,58.8,64.5,58.6,64.5,58.4z M50.7,60.9c0-0.1,0-0.1,0-0.2c0.1,0,0.1,0,0.2,0C50.8,60.7,50.8,60.8,50.7,60.9
		z M40.9,61.4C40.8,61.3,40.9,61.3,40.9,61.4c0.1-0.4,0-0.7-0.2-0.8c0.2,0,0.3-0.1,0.3-0.3c0-0.3-0.2-0.6-0.5-0.6
		c0.1,0.4-0.3,0.5-0.6,0.6v-0.1c-0.6,0-1.5,0.2-1.7-0.6c0,0,0,0-0.1,0c0.3-0.2,0-0.4-0.4-0.5c0.3,0,0.6,0.1,0.6,0.1
		c0.3-0.2,0-0.4-0.4-0.6c0.1,0,0.1,0,0.2,0c0.2-0.2-0.1-0.3-0.5-0.4c0.5-0.2,0.9-0.5,1.3-0.5c0.3-0.1,0.5-0.2,0.8-0.1
		c0.3,0,0.6,0.2,0.6,0.6c0.1,0,0,0.3,0.1,0.5c-0.4,0.6,0.4,1.4,0.8,0.3c0.5,0.1,1.2,0.1,1.8,0c0.2,0.2,0.4,0.4,0.5,0.5
		c0-0.3,0.6-0.3,1-0.3c-0.5,0-0.9,0.2-0.9,0.7c0.1,0,0.2,0,0.3,0c-0.2,0.1-0.3,0.2-0.5,0.3c-0.4,0.3,0,0.5,0,0.8s0.1,0.4,0,0.7
		c-0.3,0.1-0.6,0.2-0.9,0.3C42,61.8,41.3,62.3,40.9,61.4C40.8,61.4,40.8,61.3,40.9,61.4z M41,64.7L41,64.7c0.1-0.1,0.3-0.1,0.5-0.1
		C41.4,64.7,41.2,64.7,41,64.7z M41.6,63.1c1.4-0.1,2.9,0,3.2,0.5C44.5,63.4,43,63.2,41.6,63.1z M46,64.6L46,64.6L46,64.6L46,64.6z
		 M47.6,64.1c0.1-0.1,0.2,0,0.3,0.1C47.8,64.1,47.7,64.1,47.6,64.1z M48,62.1c-0.6,0.1-1,0.4-0.6,0.8c0,0.1,0,0.2,0.1,0.3h-0.1
		c0.1,0.2,0.1,0.4,0.1,0.6c0.1,0,0.2,0,0.4,0c-0.2,0.1-0.3,0.2-0.4,0.2h-0.1c-0.5,0-0.7,0.2-0.6,0.5l0,0h-0.1
		c-0.3-0.1-0.4,0-0.5,0.1h-0.1c0.2-0.1,0.4-0.2,0.6-0.3c-0.6,0-1.4,0.1-1.7-0.5l0,0c0.3-0.9-0.1-1.3-0.6-1.4c0.2,0,0.5,0,0.7,0
		c-0.1-0.4-0.3-0.6-0.5-0.7c-0.1-0.3,0-0.5,0.1-0.7c0,0,0,0-0.1,0c0.4-0.2,0.7-0.4,1.1-0.6c0,0,0,0-0.1,0c0.4-0.1,0.8-0.2,1-0.2
		l-0.1,0.1c0.3,0.1,0.5,0.3,0.7,0.4c0,0,0.1-0.1,0.2-0.1l-0.1,0.1c0.2,0.2,0.4,0.4,0.5,0.6l0,0c-0.1,0.1-0.1,0.2-0.1,0.4
		c0.1,0,0.2,0,0.4,0c-0.2,0.1-0.5,0.2-0.6,0.4C47.6,62.1,47.8,62.1,48,62.1z M50.4,63.5c1.2-0.1,2.3,0,2.8,0.3
		C52.9,63.7,51.7,63.6,50.4,63.5z"/>
	<path fill="#7DB96C" d="M46.3,67.3c0.3,0.1,0.5,0.2,0.8,0.2c0.9,0.8,4.4,0.9,5.1,0.2H51c0.7-0.1,1.4-0.2,2.1-0.4
		C53.1,67.1,46.9,67.3,46.3,67.3z"/>
</g>
<path fill="#A7B7D2" d="M47.2,48.9c-0.1-0.2-0.3-0.3-0.4-0.4c-0.1-0.1-0.2-0.2-0.4-0.2l0.1-0.1C45.7,47.7,44,48,43,48
	c-1.4,0.2-2.5-0.2-3.8-0.3c-1.1,0-1.4,0.3-2.4,0.6c0,0,0.6,0.1,0.2,0.1c-0.1,0-0.2-0.1-0.2-0.1c-0.4-0.1-0.7,0.1-1,0.3h-0.1
	c-0.8,0.1-1.6,1.9-1.8,1.9c0,0.1-0.3,0.5-0.1,0.7s0.5,0.8,0.5,0.9c0.1,0,0.3,0.1,0.4,0.1c0,0,0.5,0.2,0.8,0h0.1l3.7,0.1
	c0.8,0.1,4,0.3,3.8,0.3c0.5,0.5,1.5,0.8,2.2,0.8c0.1-0.3,1-0.2,1-0.4c0-0.4-0.7-0.5-0.7-0.6c-0.3-0.3-0.7-0.8-0.6-1
	c-0.1,0,0.5-0.6,0.5-0.7c0,0,1.4-0.5,1.6-0.7C47.6,49.5,46.7,49,47.2,48.9L47.2,48.9z"/>
<g>
	<g>
		<path fill="#A7B7D2" d="M53.8,51.2c0.3,0,0.9-0.3,1.4-0.4c-0.4,0-0.7-0.1-0.9-0.3C54.1,50.8,53.9,51.1,53.8,51.2z"/>
	</g>
	<path fill="#0F463C" d="M45.7,50.1L45.7,50.1"/>
	<path fill="#0E443A" d="M45.1,56.1C45.6,56.1,45.1,56.1,45.1,56.1L45.1,56.1z"/>
	<g>
		<path fill="#0B0604" d="M43.7,56.2L43.7,56.2L43.7,56.2z"/>
		<path fill="#0B0604" d="M47.1,49.8L47.1,49.8L47.1,49.8L47.1,49.8z"/>
		<path fill="#0B0604" d="M46.1,52.9L46.1,52.9L46.1,52.9L46.1,52.9z"/>
		<path fill="#0B0604" d="M55.2,55.7L55.2,55.7L55.2,55.7z"/>
		<path fill="#0B0604" d="M46,58.1c-0.4,0.1-0.7,0.3-0.7,0.6l0,0C45.5,58.5,45.7,58.3,46,58.1z"/>
		<g>
			<path fill="#0B0604" d="M54.7,55.4L54.7,55.4L54.7,55.4z"/>
			<path fill="#0B0604" d="M54.1,58.6c-0.4,0.6-1.5-0.7-1.8-0.8c-0.4-0.1-6.6,1.7-7,0.9c-0.1,0.1-0.2,0.3-0.1,0.4
				c0.1,0.3,0.9,0.2,1.4,0.2c-0.2,0.1,0.5,0.5,0.6,0.5c0.6,0.2,2-0.4,2.5-0.8c0,0.2-0.4,4-0.4,4c0.1,0.1,1.7,0,1.8-0.1
				c0-0.5-0.1-1-0.2-1.5c-0.2,0-0.3-2.8-0.1-3s2,0.3,2.3,0.6c0.7,0.3,1.3,0.4,2,0.1C55.2,58.9,54.1,58.5,54.1,58.6z"/>
			<path fill="#0B0604" d="M49,49.4C49,49.4,49,49.4,49,49.4C49,49.4,49,49.4,49,49.4z"/>
			<path fill="#0B0604" d="M55.2,52.9c-0.5,0.3-0.5,0.2-0.9,0.2c0.6,0,0.8-1.1,0.9-1.7c0.1,0,0.1,0,0.1,0c0-0.2,0-0.3,0-0.4
				c-0.5-0.3-0.9-0.2-1.5,0.4c0.7-1.2,0.2-0.9,0.2-1.7c0.1-0.5,0.5-0.7,0.5-1.2c0-0.1-0.2-0.6-0.2-0.7c0.1-0.1,0.1-0.3,0-0.4
				c-0.2,0-0.4-0.1-0.6,0.1c0.2-0.5,0.6-1.1-0.1-1.1c0-0.2-0.3-0.9-0.7-0.8c0.4-0.4,0.7-0.8,0.9-1.3c0.2-0.3,0.2-0.6,0-0.7
				c-0.2,0.2-0.4,0.3-0.7,0.4c0-0.9-0.1-0.6-0.8-0.6c0.2-0.2,0.5-1-0.1-0.7c0.7-1.4,0.5-0.7-0.7-0.7c0.9-0.4,1.1-1.6-0.1-1.2
				c0.1-0.2,0.1-0.3-0.1-0.5c-0.1,0-0.2,0.1-0.3,0.2c0-1.6-1.1-0.4-1.1,0.3c-0.1,0-0.2,0.1-0.3,0.1c0,0.1-0.6,0.5-0.7,0.6
				c-0.1,0.5-0.4,0.2-0.8,0.4c0,0.7,0.3,0.5,0,1.2c-0.2,0.4-0.9,0.1-0.9,0.9c0,0,0.9,1.9-0.6,1.9c0,0.1,0.3,2.1,0.6,2.5
				c-0.4,0-0.7,0.1-0.7,0.1c-0.2,0.1-0.1,0.4,0.1,0.7c0,0-0.1,0-0.1-0.1c0.1,0.2,0.2,0.3,0.3,0.4c0,0,0.1,0.1,0.1,0.1
				c-1.3-0.4-2-0.9-2.2,0.5c0,0,0.7,0.3,0.7,0.6c0,0.1-0.2,0.2-0.3,0.4c0,0-0.1,0.1-0.1,0.1c-0.9,0.3,0.3,1.1,0.9,1.5
				c-0.4,0.3-0.4,0.7-0.4,0.9c-0.3-0.1-1.1,0.1-1.2,0.4c-0.2,0.7,0.9,0.9,0.9,1.2c-0.5,0-1,0.3-1.4,0.7c0.5-0.4,9.2,1.7,9.7,2
				c0.7-0.1,2.3,0,2.3-1c-0.2-0.2-0.4-0.2-0.6-0.2c0.1-0.2,0-0.5-0.1-0.8c0,0,0.1-0.1,0.1-0.2c0,0-0.1,0-0.1,0.1
				c-0.1-0.2-0.4-0.3-0.5-0.4c0.1,0,0.1,0,0.1-0.1C54.5,55.2,54.2,55,54,55c0.4,0,1.9-0.7,2.2-0.9C57.4,53.2,56.1,52.9,55.2,52.9z"
				/>
		</g>
		<path fill="#0B0604" d="M46.9,57.6c-0.2,0.1-0.6,0.3-0.9,0.5C46.4,58,46.8,57.9,46.9,57.6z"/>
	</g>
	<g>
		<path fill="#012C24" d="M55.2,53.2c0-0.2-1.9,0.5-2.4,0.6c-0.1,0-0.2-0.1-0.2-0.1c-0.4-0.1,1.1-0.5,1.1-0.8
			c0.1-0.7,0.4-2.4,0.5-2.4c-0.3-0.1-0.6-0.2-0.8-0.3c0-0.1,0.6-1.3,0.5-1.6c-0.3,0-0.3-1-0.4-1.2c-0.1-0.1-0.1-0.6-0.3-0.8
			c-0.2-0.2-0.6,0.5-0.6,0.4c-0.3,0.1-0.7,0.2-1,0.4c0-0.8,0.8-1,0.7-1.2s2.3-1.5,1.5-1.9c0,0.2-0.1,0.3-0.2,0.4
			c-0.6,0.4-1.1,0.9-1.7,0.7c-0.2-0.2,0.6-0.8,0.7-1c-0.2-0.2-0.9,0.2-0.9,0.4c-0.1-0.2-0.1-1.6-0.6-1.3c0.2-0.5,1-1.7,1-2.2
			c-0.2-0.2-0.7,0.6-0.7,0.5c-0.1,0-0.2,0-0.3,0.1c-0.1-0.5,0.3-0.8,0.4-1.2c-0.1,0-0.2,0-0.2,0.1c-0.4,0,0-0.2-0.4-0.4
			c-0.2,0.3-0.2,0.2-0.3,0.2c0,0,0-0.1,0-0.2c0-0.2-0.1-0.2-0.2-0.2c0,0.3-0.5,0.4-0.1,0.6c0,0,0,0,0.1,0c-0.1,0.2-0.2,0.4-0.3,0.4
			c0,0,0,0,0-0.1c0,0,0,0-0.1,0c-0.1,0.1-0.2,0.1-0.1,0.2c0.1,0.2,0.5,0.4,0.3,0.6c-0.1,0.1-0.6-0.4-0.7-0.3c0,0.1,0.2,0.8,0.2,0.8
			c-0.1,0-1.1-0.5-1-0.2c0.1,0.3,0.6,0.8,0.8,0.9c-0.4,0.3-0.8-0.5-1,0c-0.1,0,0.4,1,0.6,0.9c0,0.2,0.1,0.4,0.2,0.5
			c-0.3-0.3-0.7-0.7-1.1-0.7c-1-0.1-0.7,1-0.1,1.2c0.1,0,0.8,1,1.3,1.6c-0.3-0.2-0.5-0.3-0.7-0.5c-0.2,0-1.5,0.2-1.7,0.4
			c0.3,0.3,0.2,0.6,0.2,0.7c0.2,0.1,0.2,0.2,0.2,0.4c0.1,0.3,0.3,0.8,0.3,1.1c0.1,0,0.3,0.4,0.2,0.4c-0.1,0.3-0.2,0.3-0.5,0.5
			c0,0.4-0.2,0.2-0.3,0.4c-0.1,0.3-0.2,0.5-0.5,0.5c0,0-1.4-0.1-1.5-0.2c0,0,0,0.2,0.4,0.2c-0.1,0.1,0.6,1.5,0.3,1.2
			c-0.7,0.3-0.4,0.6,0.1,0.9c0,0,0.1-0.1,0.1,0.1c-0.1,0,0.2,0.3,0.5,0.7c-0.3,0.1-0.7,0.2-0.7,0.3s-1,0.5-1.2,0.7
			c0.3,0.3-0.1,0.5-0.2,0.5c0.3,0.2,0.2,0.7,0.7,0.7c0.2-0.1,0.2,0.4,0,0.5c-0.2,0-0.3-0.1-0.5-0.1c0.1,0.1-0.9,0.9-1.1,0.9
			c0.2,0.2,0.5,0.5,0.6,0.6c0,0.9,3.1,1.7,3.1,2.1c1.5,0.2,2.5-1.3,3.6-1.4c0,0,0.8,0.3,1,0.3c0.3,0,0.6-0.2,0.9-0.3
			c0.2,0.5,1.5,1.3,2,0.8c-0.3-0.1-1.4-1.1-1.4-1.3s1.2,0.1,1.4-0.5c0,0,0.4-0.8,0.7-0.8c0,0,0-0.1-0.1-0.2c-0.1,0-0.1-0.1,0-0.2
			c-0.1,0-0.3-0.1-0.5-0.1c0,0.1-1.1-0.1-1-0.1c0,0.1,0.4-0.4,0.2-1.2c0.1-0.3,1.7-0.6,1.9-1.1c0.2-0.1,0.4-0.2,0.5-0.3
			C55.9,53.1,55.6,53.4,55.2,53.2z"/>
	</g>
</g>
<g>
	<path d="M55.8,33.3c-0.4-0.8-1.5-0.2-2.1-0.6c-0.6-0.4-0.8-1.2-0.9-1.8c-0.4-2.1,0.4-2.6,1-4.1c0.2-0.6,0.5-0.9,0.2-1.5
		c-0.2,0-0.5,0-0.8,0C53.1,25,53,24.8,53,24.6c-0.3-0.4-0.3-1.5-0.8-1.5c0.1-0.4,1.1-2.9,0.1-2.8c-0.2,0-0.3,2.2-0.9,2.4
		c-1.4,0.4-0.8-2.3-1.3-2.3c-0.7,0,0.2,1.9-1,1.5c-0.4-0.1-1-2.2-1.5-1.7c0,0,0.4,1,0.1,1.6c-0.1-0.1-2.7,1.8-1.2,1.8
		c0.2,0,0.4-0.7,0.9-0.8c0.4-0.1,1.1-0.1,1.5,0c0.8,0.1,3.2,0.7,2.2,1.9c-0.2-0.1-0.2-0.6-0.4-0.6c-0.1,0-0.8,2-1.3,2.1
		c-1.1,0.3-0.2-0.3-1-1c-0.2-0.1-0.6-0.8-0.9-0.5c-0.3,0.4,0.7,0.7,0.5,1.1c-0.3,0.8,0,0-0.9,0.4c-0.1,0-0.5-0.4-0.7-0.3
		c-1.2,0.4,2,1.2,1.9,1.2c-0.6,0.6-2.6,1-2.6,2c0,1.1,2.2,0.8,3.1,1c0,0.3-1.4,2.5-1.7,2.7c-0.6,0.4-1.1-0.2-1.7,0.2
		c-2.1,1.4,2.2,1.5,2.8,1.5C49.4,34.4,56.8,35.3,55.8,33.3z"/>
	<g>
		<g>
			<path fill="#950100" d="M50.8,22.8c1.2,1,0.5,1.7-0.5,2.7c1.3,1.3,2.2-3.6,2.2-4.4c-0.7,1.5-2.5,1.5-2.5-0.4c0,1.6-1.7,1-1.7-0.2
				c0,1.5-1.8,0.7-1.8,2.1C47.2,21.5,50,22.1,50.8,22.8z"/>
			<path fill="#950100" d="M46.6,26c0,0.8,3.9,1.4,1.5-1C48.5,26.2,47.9,26.8,46.6,26z"/>
		</g>
		<path fill="#950100" d="M53.3,26.7c-0.1,0.1,1.1-1.1,0.6-1.1c-0.2,0-0.3,0.1-0.5,0.1c0.2,1.1-0.9,0.6-1.5,1.2
			C52.4,26.7,52.9,27,53.3,26.7z"/>
	</g>
	<path fill="#991107" d="M52.6,28.9c0,0.6-0.4,1.4-0.5,2c0-1,0.8-1.7,0.2-2.8c0-0.2-0.1-0.3-0.2-0.5c0.1,0.1,0.2,0.2,0.5,0.3
		c0.1,0,0.2,0,0.3-0.1l-0.1-0.1c0.3-0.3,0.9-0.8,0.6-0.8c0,0-1.5,0.2-1.4,0.6c-0.1-0.2-0.2-0.3-0.3-0.5c-0.1,0.2-0.1,0.4,0,0.6
		c-0.2-0.2-0.3-0.4-0.3-0.8c-0.6,0-0.2-0.6-0.1-0.8c-0.2,0-0.4,0.1-0.5,0.1c-0.1-0.1-0.2-0.2-0.3-0.3c-0.1,0.2-0.1,0.4-0.1,0.6
		c-0.1,0.1-0.3,0.1-0.4,0.1c-0.1,0,0-1-0.5-0.9c-0.2,0-0.6,0.8-0.7,0.9c0.2,0,0.3,0.1,0.4,0.3c0,0.1-3.4,1.7-3.7,2.1
		c0.5-0.2,1-0.2,1.5-0.2c-0.3,0.3-1.1,0-1.3,0.4c0.1,0.2,0.4,0.3,0.8,0.2c0.8,0.3,2.7,0.3,3.1-0.3c0.2,0.5-1.3,1.7-1.7,2.6
		c-0.2,0.3-0.4,0.6-0.6,0.9c0.2,0.1,0.4,0,0.6,0c0,0,0-0.1,0.1-0.1c0.1,0.1,0.1,0.2,0.2,0.2c0.3,0.2,0.5,0.1,0.8,0.1
		c0.5,0,1.3,0,1.8,0c0.6,0,2.2,0.1,2.7-0.1l0.1,0.1C52.9,31.4,53,30.4,52.6,28.9z"/>
</g>
<path fill="#5C240E" d="M58.1,60.9c0-0.2,0-0.3-0.1-0.2c-0.1-0.2-0.3-0.3-0.5-0.4c-0.2-0.3-0.6-0.2-1.2-0.3c-0.7-0.1-1.4,0-1.9,0.2
	c-2.3-0.4-0.4,0-1.3-0.9c0,0.4-0.9-0.3-0.9-0.3c-0.8,0.3,0-0.1-0.4,0.5c-0.9,1.6,0.8,1.5,1.4,2.4c0.2,0.3,0,1.6,0.2,1.8
	c0.7,0.8,0.5-0.1,1-0.4c0.3-0.2,1.2-1,1.8-0.4c0.4,0.4-0.3,0.5,0,1c0.6-0.2,0.5-0.5,0.9-0.9c0.3,0-0.2,0.8-0.1,0.8
	c0.5-0.2,0.7-0.4,0.9-0.8c0,0,0,0,0,0.1C58,63,58,62.9,58,62.8C58.2,62.3,58.1,61.6,58.1,60.9z"/>
<g>
	<path fill="#5A8470" d="M43.3,52.5c-0.5-0.1-1-0.2-1.4-0.2c0.1,0,0.1-0.1,0.1-0.1c-0.1-0.2-5-0.7-5.3-0.4c0.1,0.2,0.1,0.2,0.4,0.2
		c-0.7-0.1-1.9,0.2-2.3,0.5c-0.3,0.1-0.7-0.4-0.8,0.3v0.1c0,0,0,0,0,0.1v0.1l0,0l0,0l0,0c0.1,0.1,0.3,0.3,0.6,0.4
		c0.1,0.1,0.1,0.3,0.2,0.4c-0.1,0-0.2,0.1-0.2,0.2c-0.1,0.2-0.2,0.2-0.3,0.4c0.1,0.1,0.5,0.7,0.8,1.1c0,0.2,0.7,1.3,0.7,1.4
		c2.5,0,5-0.1,7.5-0.1c0.2-0.1,1.8-1.1,1.8-1.4c-0.6-0.2-0.1-1.6-0.2-1.5c0,0.2,1.1,0.2,0.6-0.5C45.3,53.1,43.7,52.6,43.3,52.5z
		 M38,56.5L38,56.5L38,56.5L38,56.5z M38.3,56.3L38.3,56.3L38.3,56.3L38.3,56.3z"/>
	<path fill="#5A8470" d="M65.9,53.1c-0.2,0-0.2-0.3-0.3-0.4c0.1-0.1,0.1-0.3,0.2-0.4c0-0.8-10.2-0.5-11,0.3c0.5,0.6,1.5,0.1,1.5,0.7
		c0.1,0.1,0.2,0.2,0.2,0.2c-0.1,0-0.1,0.1-0.1,0.2c0,0.1,0,0.1,0,0.1c-0.2,0-0.4,0.1-0.7,0.1c0,0.2-2.1-0.1-1,1.3
		c0,0,0.1,0.1,0.2,0.1c-0.7,2.7,8,0.7,9.3,1.4c0.8-0.5,1.6,0.6,1.5-0.5c0.1-0.1-0.1-0.2,0-0.3c0,0,0-0.1-0.1-0.3c0,0,0-0.1,0.1-0.1
		l-0.1-0.1c-0.1-0.5-0.7-1.7,0.2-1.7c0-0.1-0.2-0.4-0.2-0.4c0,0.1,0.2,0.2,0.2,0.3C66.2,53.6,65.9,53.4,65.9,53.1z"/>
</g>
<g>
	<path fill="#D8CCAE" d="M39.7,57.9c-0.1-0.1-0.2-0.2-0.3-0.2c-0.7-0.3-1.4-0.2-1.4,0.9c0.7,0.2-0.3,1.2,0.1,1.7
		c0.4,0.5,1.8,0.3,2.1-0.2C40.8,59.3,40.4,58.4,39.7,57.9z"/>
	<path fill="#D8CCAE" d="M46.4,60.2c-2.8-0.5-1.5,2.3-1.5,3.5c0,1.1,1.8,0.7,2.4,0.4C47.3,62.8,48.3,60.5,46.4,60.2z"/>
	<path fill="#D8CCAE" d="M43.4,59.2c-0.7-0.9-2.2-0.5-2.6,0.4c-0.3,0.7-0.1,1.6,0.3,2.2c0,0.1,0,0.1,0.1,0.1l0,0
		c0.5,0.6,1.3,0.8,2.2-0.1c0.2-0.2,0.2-0.5,0-0.7C43.4,60.5,43.8,59.8,43.4,59.2z"/>
</g>
<g>
	<path fill="#A7B7D2" d="M65.8,51.4C65.9,51.3,65.9,51.3,65.8,51.4c-0.2-0.3-0.5-0.5-0.9-0.6c0.1,0,0.2,0,0.2,0s-0.1,0-0.4,0
		c-0.1,0-0.7-0.4-0.7-0.4c-0.2-0.1-3.1-2.1-3.5-2.2c-0.6-0.1-6.2,2-6.2,2.3c0,0.1-0.3,2,0,2.4c0.1,0.1,0.2,0.1,0.4,0.1
		c0.1-0.1,0.3-0.2,0.5-0.3c1.4-0.7,3.8-0.2,5.3-0.4c1.4-0.1,2-0.1,3.4,0c0.5,0.1,2-0.3,2.4,0.1c0.1-0.2,0.2-0.3,0.6-0.6
		C66.6,51.5,66.2,51.4,65.8,51.4z"/>
</g>
<g>
	<path fill="#474747" d="M65.8,50.9c-0.3-0.1-0.5-0.1-0.8-0.2c-0.9,0.9-3.5-2.4-4.7-2.3c-1.1,0.1-2.3,1-3.3,1.4c0,0-3,0.7-2.7,0.1
		c0.1-0.1,5.2-1.7,5.1-1.8c1.6-0.8,2.4,0.5,3.6,1.3C63.6,49.8,65.8,50.1,65.8,50.9z"/>
	<path fill="#474747" d="M38.8,47.4c1.7,0.6,3.8,0.7,5.5,0.4c0.6,0.2,1.1,0.2,1.7,0c0.5,0.2,1,0.5,1.3,1c-0.1,0.1-1.8-0.6-2.2-0.7
		c-1.1-0.2-2.4,0-3.5,0c-0.7,0-1.4-0.2-2.1-0.2c-1-0.1-1.2,0-2.2,0.3c-0.8,0.2-1.9,0.8-2.8,0.8C35.3,48.4,37.9,47.2,38.8,47.4z"/>
</g>
</svg>
