<?xml version="1.0" encoding="utf-8"?>
<!-- Generator: Adobe Illustrator 23.0.0, SVG Export Plug-In . SVG Version: 6.00 Build 0)  -->
<svg version="1.0" id="Layer_1" xmlns="http://www.w3.org/2000/svg" xmlns:xlink="http://www.w3.org/1999/xlink" x="0px" y="0px"
	 viewBox="0 0 100 100" enable-background="new 0 0 100 100" xml:space="preserve">
<g>
	<path fill="#00297B" d="M0,100h100V0H0V100z"/>
</g>
<g>
	<path fill="#FFFFFF" d="M50.2,79.9C66.8,80.3,80,66.7,80,50S66.7,20.1,50.1,20.1c-16.7,0-30.1,13-30.1,29.7S32.7,79.6,50.2,79.9"/>
</g>
<g>
	<path fill="#FF350F" d="M50.3,77.6c14.3-0.1,27.5-13.1,27.5-27.7c-0.1-16.6-14.4-27.6-27.7-27.7c-16-0.1-27.6,12.1-27.6,27.5
		C22.5,65.1,33.7,77.7,50.3,77.6"/>
</g>
<g>
	<path fill="#FFFFFF" d="M35.2,66.9c4,3.5,9.3,5.5,15,5.5c10.8,0,19.2-7.4,21.4-17.5c0.4-1.6,0.7-3.4,0.7-5.1
		c0-6.3-3.1-11.6-6.8-15.9c-2.6-3-6.3-4.2-8.4-5c-1.8-0.8-5-1.4-6.8-1.4c-4.5,0.1-9,1.5-12.5,3.7C31.4,35,27.3,42.3,27.3,49.8
		C27.3,56.7,30.4,62.8,35.2,66.9"/>
</g>
<g>
	<path d="M54.6,59.3c0.1-0.3,0.1-0.5,0.2-0.8c0.4-1.1,0.7-2.5,0.7-3.7c0-0.5-0.1-1.1-0.1-1.6c0.2-0.6,0.1-1.3,0.1-2
		c0.2-0.5-0.3-0.9-0.4-1.3c-0.1-0.1-0.4-0.7-0.4-0.7c0.2-0.4,0-0.7,0-1.1l0.4-0.6c0.1-0.6,0.4-1.4,0.5-2.1c0.2-0.8,0.1-1.8-0.5-2.3
		c0.1-1.5,0.6-3.3,0.8-4.9c-0.1-0.4,0-0.8-0.2-1c-0.1-0.4-0.5-0.3-0.7-0.3c-0.3,0.2-0.5,0.6-0.6,0.9c-0.1,1-0.3,1.9-0.4,2.8
		l-0.1-0.1v-0.1c-0.2-0.4-0.3-0.8-0.5-1.1c-0.5-0.6-1.1-1.1-1.8-1.3c-0.4-0.4-0.9-0.3-1.4-0.5v-0.3v-0.3c0.2,0,0.4-0.1,0.6-0.3
		c0.1-0.1-0.1-0.3,0-0.3v-0.1c0-0.2,0-0.5,0.2-0.6c-0.1-0.2-0.2-0.4-0.2-0.6l0.2-0.1c0.2-0.1,0.4-0.2,0.4-0.5
		c-0.1-0.4-0.5-0.8-0.7-1.1c-0.1-0.1-0.3-0.3-0.2-0.4c-0.3-0.4-0.5-0.8-0.8-1.2c-0.3-0.3-0.7-0.5-1.2-0.4c-0.3,0.1-0.6,0-0.9,0.3
		h0.1c-0.4,0.4-0.9,0.8-1,1.4c-0.1,0.8,0,1.7,0.8,2.2c0.2,0,0.1,0.2,0.2,0.3c-0.1,0.1-0.2,0.2-0.2,0.3c0,0.2,0,0.4,0.1,0.5
		c0.3,0.1,0.2,0.4,0.5,0.5c0,0.2-0.1,0.4-0.3,0.6c-0.4,0.3-0.8,0.1-1.3,0.2c-0.8-0.2-1.2,0.6-1.8,0.9c-0.4,0.2-0.7,0.4-1,0.6
		c-0.1-1,0-2.2,0-3.3l0.2-0.4c0.1,0,0.1-0.1,0.2-0.1c0.1-0.3,0-0.5-0.2-0.8c0.2-0.1,0-0.4,0-0.6c0-0.1-0.2-0.1-0.1-0.2v-0.1
		c0-0.1,0-0.1,0-0.2C43.7,33,43.3,33,43,33c-0.2,0.1-0.3,0.4-0.4,0.7c-0.1,0.3-0.4,0.4-0.4,0.7c0,0.7-0.1,1.5-0.7,1.9
		c0,0.8-0.4,1.4-0.5,2.2c-0.4,0.8-0.2,1.8-0.1,2.6c0,0.4,0.3,0.6,0.6,0.7c0.2,0.1,0.4,0,0.6,0c0.2,0,0.3-0.2,0.5-0.1
		c-0.1,1.6-0.2,3.4-0.3,5.1c0.1,1.8-0.1,3.7-0.1,5.4c0,1.1-0.2,2.4-0.2,3.6c-0.1,0.2-0.3,0.4-0.4,0.6c-0.2-0.1-0.5-0.1-0.8-0.1
		c-0.6,0-1.1,0.1-1.5,0.3c-1.3,0.2-2.4,1.2-3.7,1.2c-0.3,0.1-0.6,0-0.9-0.2c-0.3-0.1-0.6-0.2-1-0.3c-0.3-0.2-0.6-0.2-0.9-0.3
		c-0.4-0.2-0.4-0.6-0.7-0.9c-0.1-0.2-0.4,0-0.6,0c-0.3-0.1-0.2,0.3-0.5,0.4c-0.1,0.9,1,1.4,1.2,2.2c0.5,0.7,0.7,1.7,1.5,2.2
		c0.2,0,0.5,0,0.6-0.1c0-0.2,0.3-0.1,0.4-0.2c0.4-0.4,0.8-0.9,1.4-1c0.6,0,1.2-0.1,1.8-0.1c0.8,0.1,1.6,0.1,2.3-0.1
		c-0.3,0.8-0.9,1.4-1.6,2c-0.6,0-1.4,0.2-1.8-0.5c-0.4-0.1-0.5-0.6-1-0.6c-0.2,0.1-0.3,0.3-0.4,0.4c0,0.1,0,0.1-0.1,0.2
		c-0.2,0.4-0.2,0.9,0.1,1.2c0.3,0.4,0.4,0.8,0.8,1.1c0.9,0.5,1.8,1.2,2.8,1.4c0.3,0,0.4-0.2,0.5-0.4c0.5-0.2,0.6-0.8,0.8-1.2
		c0-0.1,0.1-0.2,0.1-0.3c0.3-0.9,1-1.5,1.6-2.3v0.4c-0.1,0.8-0.1,1.7,0,2.5c-0.1,0.2,0,0.5,0.1,0.6c-0.2,0.1-0.4,0.4-0.6,0.5
		c-0.4,0.6,0.1,1.2,0.1,1.7c-0.2,0,0.2,0.8,0.1,0.7c0-0.2-0.2-0.3-0.1-0.4c0.4,0.4,0.2,1.1,0.6,1.5h0.1c0.4-0.4,0.4-1,0.7-1.5
		c0.1,0,0.1,0.2,0.1,0.2c0,0.1,0.1,0.1,0.2,0.1c0.2,0,0.1-0.2,0.2-0.3c0.1,0,0,0.2,0.1,0.2v-0.1c0.1,0.3,0.2,0.6,0.2,0.9
		c0.2,0.3,0.6,0.4,0.9,0.4c0.5,0,0.8,0.4,1.2,0.1c0,0,0.1-0.1,0.1,0c0.1-0.1,0.4-0.1,0.4-0.3c0.3,0.2,0.7,0.2,1,0.3
		c1,0.5,2.3,0.9,3.3,0.7c0.6,0,1.1,0,1.5-0.3c0.1-0.5,0.7-0.4,1.1-0.5c0.4-0.2,0.9-0.3,1.4-0.4l0,0c0.2-0.1,0.4-0.1,0.6-0.2
		c0.3-0.1,0.6,0.1,0.9,0.1c0.3,0,0.6-0.3,0.7-0.6c0.3-0.6,0.9-1,1-1.7c0.3-0.2,0.7-0.2,1-0.2s0.5,0.3,0.7,0.5
		c0.7,0.1,1.6,0.1,2.3,0.1c0.3,0,0.6-0.1,0.8-0.3c0,0,0.1,0,0.1-0.1c0.3-0.2,0.6-0.3,0.9-0.5c0.1-0.2-0.1-0.3-0.1-0.5
		c0.3-0.8-0.2-1.7-0.8-2.3c-0.3-0.5-1.1,0-1.4-0.7c-0.1-0.1-0.3,0-0.4,0c-0.5,0-0.9-0.4-1.4-0.4c-0.1,0-0.3,0.2-0.3,0.3
		c-0.2,0.4,0.1,0.6-0.2,1c-0.2,0-0.4,0-0.6,0L57.8,61l0.1-0.1c0.1-0.4-0.1-0.8-0.1-1.2c-0.1-0.1-0.3-0.1-0.4-0.1
		c-0.1,0-0.1,0.2-0.1,0.3c-0.1,0-0.1-0.1-0.1-0.2c-0.1-0.1-0.3,0-0.4,0c-0.1,0,0,0.2-0.1,0.2l-0.1-0.1c-0.2-0.1-0.2,0-0.3,0.1
		c-0.1,0-0.1,0.2-0.1,0.2c-0.1,0-0.1-0.1-0.1-0.1c-0.4-0.2-0.7-0.4-1.1-0.5L54.6,59.3"/>
</g>
<path fill="#4696E6" d="M54.1,49.7C54,49.7,54.1,49.7,54.1,49.7c-0.4,0.6-1.1,0.1-1.3,0.7c-0.3,0.3-0.7,0.2-1.1,0.3
	c-0.1-0.1-0.1-0.3-0.1-0.4c0-0.1,0.7-0.7,0.8-0.8c0.1,0,0.2-0.1,0.4-0.5c0.1-0.2,0.2-0.5,0.2-0.5s-0.2,0.1-0.4,0.3
	C52.1,49.4,52,49.4,52,49c0-0.2,0-0.4,0.1-0.5c0.1-0.1,0.2-0.3,0.2-0.3c0.1-0.2,0.3-0.3,0.3-0.3c0.1,0,0.1-0.2,0-0.4
	c-0.1-0.2-0.1-0.2-0.5-0.2h-0.4l-0.1-0.2c0-0.1-0.1-0.2,0-0.2c0.6-0.3,1-0.3,1.2-0.6l-0.2-0.2c0.1-0.3,0.2-0.5,0.1-0.8
	c-0.2-0.4-0.8-0.6-0.4-1.1c0.1-0.2-0.1-0.4-0.3-0.5c-0.5-0.1-1-0.3-1.5-0.5c-0.4-0.2-1.1-0.5-1.1-1.1c-0.1-0.4-0.4-0.8-0.5-1.3
	c-0.6-1-1.4-1.9-2.1-2.9c0-0.1-0.1-0.2-0.1-0.2c-0.3-0.1-0.7-0.1-1.1,0c0-0.1,0-0.1-0.1,0c0,0-0.1,0-0.1,0l-0.1,0.1
	c0.1,1.2-0.2,2.3-0.4,3.5c0,0.4-0.3,1,0.2,1.2c0.1,0,0,0.5,0,0.6c0,0.3,0.4,0.5,0.4,0.8c0.1,0.1,0.2,0.2,0.4,0.2
	c0.1-0.1,0.4-0.2,0.4-0.4c0.1,0,0.3,0.3,0.1,0.2c-0.1,0.1,0,0.2,0.1,0.2c0.1,0.1,0.2,0.3,0.2,0.3l-0.3,0.4c-0.1,0.4-0.4,0.7-0.5,1.1
	c-0.5,1-0.7,2.1-0.7,3.2c-0.1,0.8-0.1,1.8-0.2,2.6c-0.1,1-0.4,2.1-0.5,3.1c-0.1,0.5-0.3,0.8-0.2,1.3c0.4,0.4,1-0.1,1.5,0
	c0.2,0,0.3,0,0.5-0.1c0.1,0,0.2,0.1,0.3,0.1c0,0,0-0.1,0-0.1c0.3-0.1,0.7-0.2,1-0.1c0.3,0.1,0.7,0.1,1.1,0.1c0,0.1,0,0.3,0,0.4
	c0.1,0.1,0.1,0,0.1,0c0.7,0,1.2-0.6,2-0.4l0.6-0.5c0.5-0.1,0.9-0.5,1.1-0.9c0.2-0.3,0.2-0.7,0.4-0.9c0.5-0.1,0.1-0.7,0.2-1.1
	c-0.2,0.4-0.4-0.8-0.1-1.2c0.3-0.5,1-0.2,1.5-0.2c0.2,0,0.4,0.2,0.5,0.3C55.1,50.8,54.4,50.3,54.1,49.7z"/>
<g>
	<path fill="#FFD9C5" d="M54.2,64.2c-0.1,0.1-0.4,0.2-0.2,0.3c0.1,0.4,0.7,0.5,0.7,0.9c0.2,0.2,0.3,0.5,0.5,0.7c0,0.1,0,0.2,0.1,0.2
		h-0.2c0-0.1-0.1-0.1-0.2-0.1c-0.9,0.2-1.8,0.4-2.7,0.7c-0.2,0-0.3,0-0.5,0.2c-0.2,0.5-0.7,0.5-1.2,0.6c-1.3,0.1-2.7-0.1-3.7-0.7
		c-0.4-0.2-0.9-0.1-1.2-0.5h-0.1c0,0.2,0.3,0.2,0.1,0.4c-0.3,0.2-0.7,0.3-1.1,0.1c-0.4-0.1-0.9,0-1.2-0.3l-0.1-0.4
		c0.2-0.1,0.4-0.2,0.5-0.4c-0.1,0-0.2,0.1-0.2,0.1c-0.1,0.1-0.2,0.2-0.3,0.2c-0.1-0.3-0.1-0.5-0.2-0.8c0.2,0,0.4-0.2,0.6-0.1
		c0.1,0,0.2-0.1,0.2,0c0.2-0.1,0.4,0,0.6,0c0.4,0,0.9,0.2,1.3,0.4c0.3,0,0.7-0.1,1,0.2c0.1-0.2,0.2,0.2,0.3,0.2
		c0.2,0,0.3,0.1,0.4-0.1c0.2,0,0.4,0.2,0.5,0c0.2,0.1,0.4,0.1,0.6,0l0,0c1-0.2,1.9,0.3,2.9-0.2c0.1-0.1,0.2-0.1,0.2-0.3
		c0.7-0.5,1.4-1.2,2.4-1C54.1,64.2,54.1,64.2,54.2,64.2L54.2,64.2"/>
</g>
<g>
	<path d="M49.8,37.1L49.8,37.1C49.9,36.9,49.9,37.1,49.8,37.1"/>
</g>
<g>
	<path fill="#FFD9C5" d="M49.8,37.1c0,0.3-0.1,0.6-0.2,0.9c0.2-0.1,0.2-0.3,0.3-0.5c0.2,0,0.3,0.1,0.4,0.1c0.5,0,0.8,0.4,1.3,0.6
		c1,0.3,1.8,1.3,2,2.3l0.2,0.3c-0.1,0.8-0.2,1.6-0.4,2.4h-0.1c-0.7-0.8-1-1.7-1.5-2.6c0,0.3,0.3,0.5,0.3,0.8
		c-0.2,0.4-0.3,0.8-0.5,1.2l-0.2,0.2c-0.3-0.3-0.7-0.4-1.1-0.6c-1.1-1.5-2.1-3-3.3-4.5c-0.1-0.1,0-0.2,0-0.2
		c0.3-0.1,0.6-0.2,0.8-0.5c0.2,0.1,0.2,0.4,0.5,0.4c0-0.5-0.2-1,0.1-1.5c0.1-0.2-0.2-0.2-0.2-0.3c-0.1-0.3,0.3,0,0.4-0.2
		c0.1-0.1,0.2-0.3,0.2-0.4v-0.4c0.3-0.2,0.7-0.2,1-0.2c-0.2,0.1-0.4,0.3-0.6,0.2c0.2,0.2,0.4,0.4,0.6,0.4l0,0
		c-0.1-0.2,0.1-0.4,0.3-0.4c-0.1-0.1-0.1,0-0.2,0.1c-0.1-0.1,0.1-0.2,0.1-0.3c0.2,0,0.5-0.1,0.7,0v0.1l-0.3,0.2
		c0,0.3,0.1,0.5,0.2,0.7c-0.1,0.1-0.2,0.1-0.3,0.1l-0.1-0.1h-0.1c0,0.1,0.1,0.1,0.1,0.2c0.1,0,0.2,0.1,0.2,0h0.1
		c0,0.2-0.3,0.2-0.4,0.2l0.1,0.1c0.1,0,0.1,0,0.2,0c0.1,0.2-0.2,0.2-0.2,0.3c0.1,0.1,0.2,0,0.3,0.1c0,0.1,0,0.1,0,0.1
		c-0.3,0.6-0.8,0-1.3,0.1c-0.2-0.1-0.4-0.1-0.4-0.3v0.1c0,0.1,0.2,0.2,0.3,0.3c0.2,0,0.5,0.1,0.7,0.1L49.8,37.1"/>
</g>
<g>
	<path d="M42.5,36.1c0,0.1,0,0.2,0,0.3v0.3l0.1,0.3v0.3 M43.3,35.5c0-0.1,0-0.1,0-0.2h0.1C43.4,35.4,43.4,35.5,43.3,35.5"/>
</g>
<g>
	<path fill="#965A46" d="M43.3,35.2L43.3,35.2c-0.4,0.2-0.4,0.6-0.8,0.9l0.1,1.2v0.5l0,0c-0.2,2.7-0.4,5.3-0.4,7.9
		C42,46.8,42.1,48,42,49c0,0.9-0.1,1.8-0.1,2.7c0,1.2-0.3,2.8-0.2,4.2c0,1.5-0.3,3.1-0.2,4.4v1.5c0.2,0,0.4,0,0.6,0l0.1-0.1
		c0-1.2,0.1-2.3,0.2-3.4c0.1-1,0.2-2,0.1-3l-0.1-0.1c0-1.3,0.2-2.5,0.3-3.7c0-0.7,0.1-1.9,0.1-2.8c0.1-1.4,0.3-2.7,0.2-4.1v-0.1
		c0.1-1.2,0.1-2.8,0.2-3.9c0.1-1.4-0.1-2.4,0-3.6c0.1-0.5,0-1.1,0-1.6L43.3,35.2"/>
</g>
<g>
	<path fill="#FFFFFF" d="M42.5,36.8c-0.1,0.7-0.4,1.4-0.1,2.1c0.1-0.7,0.2-1.2,0.2-1.9L42.5,36.8"/>
</g>
<g>
	<path d="M51.5,42.6L51.5,42.6L51.5,42.6C51.5,42.7,51.5,42.6,51.5,42.6"/>
</g>
<g>
	<path fill="#FFD9C5" d="M54.1,46.6c0.3-1.2,0.5-2.2,0.8-3.4c0.3,0.3,0.5,0.7,0.6,1.2c0,1.1-0.5,2.1-0.6,3.2c-0.5,0.4-0.3,1-0.3,1.5
		c0,0.1-0.1,0.1-0.1,0.2c-0.2,0.4-0.6,0.3-1,0.4c-0.2,0.5-0.8,0.5-1.2,0.6c-0.1-0.1,0-0.2-0.1-0.3c0.1-0.2,0.3,0,0.5-0.2
		c0.1-0.4,0.7-0.8,0.4-1.3c0-0.1-0.1,0-0.1,0l0,0c-0.2,0.3-0.4,0.6-0.7,0.8c-0.1-0.6,0.4-1,0.8-1.3l0,0c0.1-0.1,0.2-0.1,0.3-0.2
		c0.4-0.2,0.6-0.5,0.7-0.9L54.1,46.6"/>
</g>
<g>
	<path fill="#C8C8C8" d="M54,46.6c0.8-2.6,0.9-5.2,1.5-7.8c0.1-0.5,0.1-1,0-1.5c-0.1-0.3-0.4-0.3-0.6-0.4c-0.2,0-0.3,0.2-0.4,0.3
		c-0.4,0.7-0.3,1.7-0.5,2.5c-0.2,2.1-0.6,4.2-1,6.3c0,0,0,0.1,0,0.2v0.1l-0.2,0.1c-0.3,0.2-0.6,0.1-0.9,0.1c0,0.2,0,0.4,0,0.5
		c0.3,0.3,0.8-0.2,0.9,0.3l0.1,0.3l0,0c0,0,0,0.1,0.1,0c0.4-0.2,0.7-0.4,0.8-0.9L54,46.6"/>
</g>
<g>
	<path d="M38.5,28.6C38.5,28.6,38.4,28.5,38.5,28.6L38.5,28.6"/>
</g>
<g>
	<path d="M44.7,40.3C44.8,40.3,44.8,40.3,44.7,40.3 M46.5,44.3c0-0.1,0.1-0.2,0.2-0.2C46.7,44.1,46.6,44.2,46.5,44.3"/>
</g>
<g>
	<path fill="#FFFFFF" d="M46.7,43.9c-0.1,0-0.1-0.1-0.2-0.2l-0.1-0.1c-0.2,0.2-0.4,0.4-0.7,0.3c-0.4-0.1-0.2-0.6-0.6-0.7
		c-0.1-0.2,0-0.5-0.1-0.7l0,0c0.1,0.1,0.1,0.3,0.2,0.4c0.1-0.1,0.1-0.2,0.1-0.3c-0.1-0.2-0.4-0.2-0.5-0.5c0-0.6,0.1-1.2,0.2-1.8
		h-0.3c0,0,0.1,0,0.1-0.1c-0.3,0.3-0.8,0.3-1.2,0.4c-0.1,0.1-0.4,0-0.4,0.2c0,1.7-0.2,3.5-0.2,5.4c-0.2,1.5-0.2,3.3-0.2,4.8
		c0,1.1-0.2,2-0.3,3.2c0.1,0,0.2-0.2,0.3-0.2c0.2-0.1,0.4-0.4,0.8-0.2c0.4,0.2,0.7,0.3,1,0.6c0.2-1.7,0.7-3.2,0.6-5
		c0-0.4,0.1-0.8,0.1-1.4c0-0.3,0.1-0.7,0.2-1c0-0.8,0.6-1.6,0.9-2.4c0.1-0.1,0.1-0.2,0.2-0.3L46.7,43.9"/>
</g>
<g>
	<path fill="#FFD9C5" d="M45.1,40.1c0.1-0.6,0.2-1.2,0.3-1.8v-0.5c-0.1,0-0.2,0.1-0.3,0.2c-0.5,0.4-1,0.8-1.6,1l0,0v0.2
		c0,0.5,0,1.1,0,1.6l0,0c0.4-0.2,0.9-0.3,1.4-0.4L45.1,40.1"/>
</g>
<g>
	<path fill="#FFD9C5" d="M43.3,33.5c-0.3,0.1,0,0.5,0,0.7c-0.2,0-0.4,0-0.6,0.1c0.2,0.2,0.6-0.1,0.7,0.2c0,0.1,0.1,0.3,0,0.4
		l-0.2,0.2C43.1,35,43,34.9,42.9,35c-0.3,0.3-0.4,0.6-0.6,0.9c-0.2,0-0.2,1-0.3,1.4c-0.2,0.7,0.1,1.9,0.2,1.8c0,0.6-0.1,1.3-0.1,1.9
		c-0.3,0.2-0.6,0.3-1,0.2c-0.2-0.1-0.4-0.2-0.5-0.4c-0.1-0.5-0.2-1.1-0.2-1.6c0.1-1.2,0.6-2.2,0.7-3.3c0.6-0.4,0.8-1.2,0.7-1.9
		c0.1-0.2,0.1-0.4,0.3-0.4c0.2-0.3,0.2-0.7,0.5-0.8c0.3,0.2,0.6,0.1,0.7,0.4"/>
</g>
<g>
	<path fill="#FFFFFF" d="M49.7,34.8L49.7,34.8L49.7,34.8"/>
</g>
<path fill="#6EB4F0" d="M50.9,34.5L50.9,34.5c-0.1-0.6-1.5-2.7-1.8-3.1c-0.4-0.3-1.4,0.1-1.5,0.2c-0.2,0.1-0.3,0.2-0.4,0.3L47,32.1
	c-0.1,0.2-0.2,0.3-0.3,0.5c0,0,0,0.1,0,0.1c0,0.1,0,0.1-0.1,0.2c-0.1,0.3-0.1,0.7-0.1,1.1c0,0,0,0.1,0,0.1c0,0.2,0.1,0.4,0.4,0.6
	c0.2,0.2,0.6,0.6,0.6,0.7l0.3-0.1c0.1,0,0.7-0.3,0.7-0.4c0.1-0.1,0.5-0.2,0.8-0.2c0.1,0,0.4,0,0.6-0.1c0.4-0.1,0.6,0,0.7,0.1
	c0,0,0,0.1,0,0.1l0.1-0.1c0,0,0,0,0,0.1c0,0.1,0,0.1,0.1,0.1C51,34.7,50.9,34.7,50.9,34.5z"/>
<g>
	<path fill="#FFFFFF" d="M49.6,35L49.6,35L49.6,35L49.6,35"/>
</g>
<g>
	<path fill="#4F4036" d="M47.6,36.3L47.6,36.3L47.6,36.3"/>
</g>
<g>
	<path fill="#1846E2" d="M55.4,51c0-0.2-0.1-0.3-0.1-0.5C55.3,50.7,55.4,50.9,55.4,51"/>
</g>
<g>
	<path fill="#FFD9C5" d="M55.3,51.3c0.1,0.7,0.1,1.4-0.1,2c0,0.4,0.2,0.8,0.2,1.1c0,1.4-0.2,2.6-0.6,3.9c-0.1,0.5-0.4,1.2-0.2,1.7
		c0.1,0,0.1,0,0.1-0.1l0,0l0,0c0.5,0.2,0.6,1.1,1.3,1.1c0.1,0.1,0.2,0.3,0.2,0.4c-0.1,0-0.3,0-0.4,0c0.1,0.2,0.3,0.1,0.4,0.2
		c0.1,0,0.1,0.2,0.1,0.2c-0.1,0-0.2-0.1-0.3-0.1c0,0.1-0.2-0.1-0.2,0.1c0.1,0.1,0.2,0.2,0.3,0.2c0,0,0,0.1,0.1,0.1
		c0,0.1-0.1,0.1-0.2,0.1l0,0c0-0.1-0.2-0.2-0.3-0.4c-0.1-0.1-0.2-0.2-0.3-0.2c0,0.1,0.1,0.3,0.3,0.4c0.1,0,0.1,0.1,0.2,0.2
		c-0.1,0-0.1,0-0.2-0.1V62l0,0c-0.1,0-0.1,0-0.2-0.1c0,0.2,0.2,0.2,0.2,0.4c-0.5,0.1-0.5-0.6-1-0.4c-0.4-0.5-1-0.6-1.6-0.8
		c-0.1-0.1-0.2-0.2-0.2-0.3c0.1-0.5,0.3-1,0.2-1.5v-0.1c0.1-1.1,0.1-2.3-0.3-3.4c0-0.6,0.3-1.1,0.4-1.7c0,0,0-0.3,0-0.4
		c-0.2-0.4,0-0.8-0.1-1.2s0-0.8,0.2-1.1c0.1-0.1,0.3-0.2,0.5-0.3C54.3,50.8,55,50.7,55.3,51.3"/>
</g>
<g>
	<path fill="#FFFFFF" d="M53.2,53.9c-0.1,0.6-0.4,1.2-0.3,1.9c0.4,1.1,0.3,2.2,0.2,3.2c-0.3,0-0.6,0.2-0.8,0.2
		c-0.4-0.4-1-0.6-1.5-0.4c-0.5,0.2-1.2,0.1-1.6,0.5c-0.3,0.3-0.4,0.9-0.3,1.2c-0.1,0.1-0.3-0.1-0.4,0c0-0.2,0.2-0.4,0.1-0.6
		c0.1-0.2,0.2-0.5,0.2-0.7c0.1-0.9-0.4-1.9-0.1-2.9c0.4,0,0.7-0.1,1-0.3l0,0c0.2-0.1,0.4-0.1,0.6-0.2c0.2,0,0.4,0,0.6,0
		c0.5-0.7,1.4-0.6,1.7-1.4c0.3-0.3,0.1-0.8,0.6-1C53.1,53.8,53.2,53.8,53.2,53.9"/>
</g>
<g>
	<path fill="#FFD9C5" d="M46.3,59.3c-0.2,0.2-0.6,0.3-0.7,0.6c-0.1-0.1,0-0.2,0-0.3c0,0,0.1,0,0-0.1c0,0,0,0-0.1,0
		c-0.2,0.2-0.5,0.2-0.6,0.4c-0.3,0.3-0.6,0.6-0.4,1V61c-0.3,0-0.6-0.2-0.9,0c-0.1,0.1-0.2,0.3-0.3,0.5c-0.1-0.2-0.1-0.5-0.1-0.7
		c0.1-0.6-0.2-1.3,0-2c0-0.3,0.1-0.6,0.1-0.9c0.2-0.4,0.2-1,0.1-1.6h-0.1c0,0.5,0.1,1.2-0.2,1.6c-0.1,0.3-0.4,0.6-0.7,0.8
		c0.2-1.1,0.2-2.2,0.1-3.4l0,0v-0.8c0.2-0.3,0.4-0.5,0.7-0.6c0.5,0,0.8,0.4,1.2,0.6c0,0.5-0.2,0.9-0.2,1.3c0.3,0.4,0.8,0.4,1.3,0.4
		c0.2,0.5,0.6,1,0.6,1.6C46.3,58.3,46.3,58.8,46.3,59.3L46.3,59.3"/>
</g>
<g>
	<path fill="#A839A8" d="M46.2,59.6c-0.2,0.1-0.6,0.7-0.7,0.1c-0.4,0.2-0.8,0.5-0.9,0.9c0,0.1,0.1,0.4-0.7,0.4
		c-0.3,0.2,0.3,0.8-0.6,1.1c-0.1,0.1-0.2,0.2-0.2,0.4c-0.1,0.1,0,0.3-0.1,0.4c0,0.1,0,0.1,0,0.2c0,0,0,0.4,0,0.6
		c0.3,0.2,0.1,0.5,0.3,0.8c0.1,0.1,0.3,0.6,0.4,0.7c0.4-0.2,0.6-0.1,1,0c0.2-0.4,0.5,0.1,0.8,0.2c0.6-0.2,1.3-0.3,2-0.5
		c0.1-0.2,0.3-0.5,0.3-0.7c-0.1-0.3,0.1-0.5,0.1-0.8c-0.2-0.9-0.9-1.7-1-2.7c0-0.3,0-0.6,0-0.9L46.2,59.6"/>
</g>
<g>
	<path fill="#FFFFFF" d="M26.9,55.3L26.9,55.3L26.9,55.3L26.9,55.3"/>
</g>
<g>
	<path fill="#FFFFFF" d="M46.6,56.3c-0.2,0-0.5-0.2-0.7-0.2c0.1,0.3,0.4,0.6,0.5,1c0-0.2,0.1-0.3,0.1-0.5L46.6,56.3
		c0,0.1,0,0.2,0,0.3 M46.6,56.6c0,0.3,0.1,0.5,0.2,0.8c0.1-0.2-0.1-0.3-0.1-0.5s0-0.3,0-0.5"/>
</g>
<g>
	<path fill="#FFD9C5" d="M46.7,56.4c0-0.2,0-0.5,0-0.8l0.6-0.2c0.4,0.1,1.1,0.2,1.1,0.2c0.1,0,0,0.1,0.1,0.1c0.1,0.5,0,1.1,0,1.6
		c0.1,0.9,0.5,1.8,0.1,2.7c-0.5,1.2,0.1,2.6,0.1,3.8c-0.2,0.3,0.5,0.8-0.1,1c-0.2,0.2,0.1,0.5,0,0.7c0,0.2-0.2,0-0.3,0.1h-0.6
		c-0.1-0.1,0-0.2-0.1-0.2c-0.1,0.1,0,0.1-0.1,0.2c-0.1,0-0.2-0.1-0.3,0c0-0.1,0.4-0.3,0.1-0.3L47,65.5c0,0,0-0.1,0-0.2
		s0.2-0.2,0.1-0.2c-0.1,0-0.1,0.1-0.2,0.1l0,0l0,0c0-0.3,0.4-0.5,0.4-0.9c0.3-0.3,0-0.6,0.2-0.9v-0.3c0.1,0.1-0.1,0.4,0.2,0.3
		c0-0.9-0.8-1.5-1-2.3c-0.3-0.8-0.1-1.6-0.3-2.4c-0.1-0.7-0.1-1.4,0.1-2.1L46.7,56.4 M41.5,58.3c-0.2,0.5,0.2,1.3-0.4,1.7
		c-0.1,0.2-0.3,0.3-0.3,0.5c-0.1-0.1-0.2-0.2-0.3-0.3c-0.3-0.3-0.6-0.6-0.9-0.8c0.1-0.3,0.3-0.5,0.4-0.7c0.1,0,0.1-0.2,0.1-0.2l0,0
		c0.2-0.5,0.5-1,0.8-1.5c0.2-0.5,0.5-1,0.8-1.5C41.7,56.4,41.5,57.3,41.5,58.3"/>
</g>
<g>
	<path fill="#FFD9C5" d="M41.2,55.9c-0.6,0.8-0.8,1.8-1.4,2.6c-0.4,0-0.8,0.3-1.3,0.3l-1.3-0.1c-0.1-0.1-0.1-0.2,0-0.3
		c-0.2-0.4-0.3-0.9-0.4-1.3c0-0.1-0.1,0-0.1-0.1c0.5-0.2,1-0.5,1.5-0.7c0.4-0.2,0.9-0.2,1.3-0.4l0,0C40,56,40.6,55.9,41.2,55.9"/>
</g>
<g>
	<path d="M65.1,57.1c0.1-0.1,0.2,0,0.3,0c0.1,0.2,0.3,0,0.4,0c0.1-0.1,0.2-0.2,0.4-0.2c0.2,0,0.2,0.4,0.3,0.2c0.2,0,0.2,0.2,0.3,0.1
		l0.4-0.3c0.2-0.1,0.1,0.1,0.2,0.2c0,0,0,0.1,0,0.2c0.2-0.1,0.3-0.2,0.6-0.3c-0.1,0.3-0.3,0.6-0.4,1c-0.2,0.3-0.2,0.8-0.5,1.2
		c-0.3,0-0.4,0.1-0.7,0c-1.1,0.1-2.2,0.3-3.2-0.1c-0.1-0.8,0-1.6-0.6-2.1h0.1c0,0,0.1,0.1,0.1,0l0.5,0.3c0.2-0.1,0.3-0.3,0.5-0.4
		c0.1,0.3,0.4,0.2,0.5,0.3c0.2-0.1,0.3-0.3,0.4-0.4C64.8,56.8,64.9,57.1,65.1,57.1"/>
</g>
<g>
	<path fill="#FFD93C" d="M66,57.6c0.2-0.1,0.3-0.4,0.5-0.3c0.2,0.1,0.2,0.6,0.6,0.4c0-0.1,0.5-0.4,0.6-0.4c0,0.1-0.7,1.4-0.7,1.6
		s-0.2,0.1-0.4,0.2c-1,0-2.2,0.4-3.1,0h-0.4c0-0.2,0-0.3,0-0.5c0,0-0.2-1.1-0.4-1.5c0.2,0.2,0.5,0.2,0.7,0.5
		c0.2-0.1,0.3-0.2,0.4-0.3c0,0,0,0.1,0.1,0l0.1-0.1c0.4,0,0.4,0.6,0.8,0.3c0.1-0.1,0.2-0.3,0.4-0.4C65.4,57.2,65.6,57.7,66,57.6"/>
</g>
<g>
	<path d="M67.3,58.2C67.3,58.2,67.2,58.2,67.3,58.2L67.3,58.2L67.3,58.2C67.2,58.4,67.3,58.3,67.3,58.2L67.3,58.2L67.3,58.2"/>
</g>
<g>
	<path fill="#A839A8" d="M49,60.8c-0.1,0-0.2,0-0.3,0l-0.1-0.1c0,0.1-0.1,0-0.1,0c0,0.3,0,0.6,0,0.9C48.7,61.3,48.9,61.1,49,60.8
		L49,60.8"/>
</g>
<g>
	<path fill="#C5C5C5" d="M42.1,62.8c0.2,0.2,0,0.6,0.3,0.8c0,0,0,0.2,0.1,0.2l0,0c0.4,1.2-0.7,3.2-0.8,3.2c-0.2-0.2-0.2-0.5-0.3-0.7
		c-0.2-0.6-0.4-1.3-0.6-1.9c0-0.2,0.1-0.5,0.3-0.7c0.1-0.1,0.2-0.2,0.4-0.3c0.2-0.2,0-0.4,0-0.6C41.7,62.7,41.9,62.8,42.1,62.8"/>
</g>
<path fill="#A839A8" d="M57.5,60.8c-0.2-0.2-0.4-0.4-0.6-0.4c-0.2,0-0.4,0.1-0.6,0.1c-0.3-0.5-0.9-0.6-1.3-1c0,0-0.1,0-0.2,0
	l-0.2-0.1c0,0.1,0,0.1,0,0.2c0.4,0.3,0.7,0.6,1,1c0.1,0.2,0.4,0,0.5,0.1c0.3,0.2,0.2,0.6,0.5,0.8c0.1,0.2-0.8,0.8-1,0.7
	C55.3,62.1,55,62,54.8,62c-0.4-0.5-1.1-0.6-1.7-0.8c-0.6-0.5,0-1.1,0-1.6c0-0.1,0-0.2,0-0.3c0,0,0,0-0.1,0c-0.2,0.2-0.5,0.2-0.8,0.3
	c0,0.1-1,0.3-1,0.6C51,60.6,50.6,61,50.1,61C50,61,50,60.9,50,60.9c-0.3,0.3-0.7,0.8-1,1.2c0,0.1,0.2,0.1,0.2,0.2
	c0.4,0.6,1.7,0.8,1.3,1.7c-0.1,0.4-0.4,0.6-0.7,0.9c0,0-0.6,0.1-0.8,0.1l-0.4-0.1c-0.2,0.2,0.1,0.5-0.1,0.7c0.2,0.1,0.4,0,0.6,0
	c0.7-0.1,2.4-0.3,2.4-0.3c0.3-0.1,0.4-0.5,0.7-0.6c0.4-0.3,0.7-0.5,1.2-0.6c-0.1-0.1,0.7,0.1,0.5,0.3c0.1,0.2,1.8,1.2,2.2,1.1
	c0.2,0,0.4-0.1,0.4-0.1c0.1,0,0.1,0,0.1,0S56.5,63,56.8,62c0-0.2,0.1-0.6,0.4-0.7c0.1,0,0.2-0.1,0.3-0.1l0.1-0.2
	C57.6,60.9,57.6,60.9,57.5,60.8z"/>
<g>
	<path fill="#A839A8" d="M56.4,65.6c-0.1,0.2-0.3,0.4-0.4,0.6c-0.2,0.1-0.4,0.1-0.6,0.1c0-0.1,0-0.1-0.1-0.2
		C55.7,65.9,56.1,65.9,56.4,65.6"/>
</g>
<g>
	<path fill="#3F863F" d="M61.4,72.9L61.4,72.9L61.4,72.9L61.4,72.9"/>
</g>
<g>
	<path fill="#FFFFFF" d="M52.9,46.3c0.1-0.4,0.2-0.9,0.2-1.3c0.1-0.5,0.2-1,0.2-1.5l-0.2-0.3c-0.4-0.5-0.8-1.1-1-1.7
		c-0.1,0.4-0.3,0.8-0.5,1.2V43c0.2,0.1,0.5-0.1,0.6,0.2c0,0.2-0.1,0.5,0.2,0.7c0.1,0.2-0.2,0.5-0.1,0.7c0.4,0.3,0.6,0.8,0.5,1.2
		c-0.1,0.1-0.1,0.2-0.1,0.3L52.9,46.3"/>
</g>
<g>
	<path fill="#FFD9C5" d="M62.7,61.6c-0.2-0.3-0.4-0.6-0.7-0.9c-0.1-0.1-0.2,0.2-0.3,0.2c-0.1-0.1,0.2-0.2,0-0.3
		c-0.4,0.1-0.8-0.2-1.1-0.5c-0.6,0.3-1.2-0.4-1.8-0.2c-0.2,0.3-0.1,0.8-0.2,1.1c-0.3,0-0.6,0.1-0.9,0.2l-0.1-0.1
		c-0.2,0.1-0.3,0.1-0.4,0.2c-0.3,0.3-0.2,0.8-0.2,1.1c0,0.5,0.3,1,0.4,1.5l0.2-0.1c0.4-0.2,0.9-0.2,1.3-0.3c0.4-0.2,0.6,0.4,1,0.4
		c0.1,0.1,0.2-0.1,0.3-0.1c0-0.1-0.2-0.2-0.3-0.2s-0.2-0.1-0.2-0.2c0-0.1-0.1-0.2,0-0.4c0.3-0.2,0.6,0,0.8,0H61
		c-0.1-0.3,0.2-0.6,0.4-0.8s0.5,0.1,0.6-0.2c0.2-0.1,0.4,0,0.6,0c0.1-0.1,0.1-0.2,0.1-0.3L62.7,61.6"/>
</g>
<g>
	<path d="M57.8,61.1c-0.1,0-0.1,0.1-0.1,0.2 M54.8,59.4L54.8,59.4L54.8,59.4L54.8,59.4 M48.9,62.2L48.9,62.2L48.9,62.2L48.9,62.2"/>
</g>
<g>
	<path fill="#A85F39" d="M41.6,29.8L41.6,29.8l-1,0.4l0.1,0.1c0.3-0.1,0.3,0.1,0.3,0.2v1.3l-1.2-0.9c-0.1-0.1-0.2-0.2,0-0.3
		l-0.1-0.1l-1.2,0.7l0.1,0.1c0.2-0.1,0.3,0,0.4,0.1l2.2,1.7l0.4,0.2l-0.1-3.1C41.5,30.1,41.4,29.9,41.6,29.8z"/>
	<path fill="#A85F39" d="M44.4,31.2l-0.6-1.7c-0.1-0.2-0.1-0.3,0.1-0.4V29l-1.2,0.3v0.1c0.2-0.1,0.2,0,0.3,0.2l0.6,1.7
		c0.1,0.2,0.1,0.3-0.1,0.4v0.1l1.2-0.3v-0.1C44.5,31.5,44.5,31.4,44.4,31.2z"/>
	<path fill="#A85F39" d="M62,31.3L62,31.3l-2.7,1.4c-0.2,0-0.3,0.1-0.5,0l-0.1,0.1l1.1,0.7l0.1-0.1c-0.2-0.2-0.2-0.2,0-0.3l0.5-0.3
		l0.6,0.4v0.6c0,0.1-0.1,0.2-0.3,0.1L60.6,34l0.9,0.9l0.1-0.1c-0.1-0.1-0.1-0.2-0.1-0.3L62,31.3z M61.2,33l-0.6-0.4l0.8-0.5L61.2,33
		z"/>
	<path fill="#A85F39" d="M58.4,32.3l0.8-1.7c0.1-0.1,0.2-0.2,0.4-0.2l0.1-0.1l-1.1-0.4L58.5,30c0.2,0.1,0.2,0.2,0.1,0.4l-0.8,1.7
		c-0.1,0.1-0.2,0.3-0.4,0.2l-0.1,0.1l1.1,0.4l0.1-0.1C58.3,32.6,58.3,32.5,58.4,32.3z"/>
	<path fill="#A85F39" d="M52.5,28.4c0.2,0,0.2,0.1,0.2,0.3l-0.3,1.8c0,0.2-0.1,0.3-0.3,0.3v0.1l1.2,0.1v-0.1c-0.2,0-0.2-0.1-0.2-0.3
		l0.3-1.8c0-0.2,0.1-0.3,0.3-0.3v-0.1l-1.2-0.1V28.4z"/>
	<path fill="#A85F39" d="M50.9,29l0.5-0.6c-0.3-0.4-0.8-0.7-1.3-0.7c-0.9,0-1.5,0.7-1.5,1.4c0,0.7,0.4,1.5,2,1.6c0.3,0,0.5,0,0.8,0
		v-0.1c-0.2,0-0.2-0.1-0.2-0.2v-0.7c0-0.2,0-0.3,0.2-0.3v-0.1h-1v0.1c0.2,0,0.2,0.1,0.2,0.3v0.6l-0.2,0.1c-0.8-0.1-1-0.4-1-1.1
		c0-0.6,0.2-1,0.8-1c0.2,0,0.4,0.2,0.6,0.4c0,0.1,0,0.1-0.1,0.2L50.9,29z"/>
	<path fill="#A85F39" d="M56.7,31.6l0.6-1.7c0-0.1,0.1-0.2,0.3-0.2v-0.1l-1-0.3v0.1c0.2,0.1,0.2,0.2,0.1,0.4l-0.4,0.9l-0.7-1.6
		l-0.9-0.4v0.1c0.2,0.1,0.2,0.2,0.1,0.4l-0.6,1.7c0,0.1-0.1,0.2-0.3,0.2v0.1l1,0.3v-0.1c-0.2-0.1-0.2-0.2-0.1-0.4l0.5-1.3l0.7,1.9
		c0,0,0,0.1-0.2,0.1v0.1l1,0.3V32C56.6,31.9,56.6,31.8,56.7,31.6z"/>
	<path fill="#A85F39" d="M47.8,30.4l-0.9-0.6c0.5-0.3,0.4-0.5,0.3-0.9c0-0.5-0.7-0.6-1.2-0.5l-0.8,0.2v0.1c0.2,0,0.2,0.1,0.2,0.3
		l0.2,1.8c0.1,0.1,0.1,0.2-0.1,0.3v0.1l1-0.1V31c-0.2,0-0.2-0.1-0.2-0.3L46.2,30l0.3,0.1l0.9,0.7l1.1-0.2l-0.4-0.1
		C47.9,30.5,47.9,30.5,47.8,30.4z M46.5,29.6l-0.4,0.1l-0.2-0.9l0.3-0.1c0,0,0.5,0.1,0.5,0.2C46.7,29.3,46.8,29.5,46.5,29.6z"/>
	<path fill="#A85F39" d="M34.2,61.5c-0.2-0.2-0.4-0.2-0.8,0c-0.1,0.1-0.2,0.1-0.3,0.3c-0.2,0.3-0.1,0.6,0,0.8
		c0.1,0.1,0.1,0.4,0.1,0.5c-0.1,0.1-0.3,0.1-0.4,0c-0.2-0.4,0-0.8,0.1-0.8l-0.5-0.1c-0.2,0.5-0.2,0.7,0,1c0,0,0.3,0.4,0.6,0.4
		c0.2,0,0.4-0.1,0.5,0c0.3-0.3,0.2-1.6,0.2-1.6c0.1-0.1,0.1-0.1,0.2-0.1c0.1,0,0.2,0.1,0.2,0.1l0,0c0,0.1-0.1,0.6-0.1,0.6h0.5
		c0.1-0.4,0-0.7-0.1-0.9C34.3,61.6,34.3,61.5,34.2,61.5z"/>
</g>
<g>
	<path fill="#A85F39" d="M35.4,63.1l0.2-0.2l-0.5-0.6l-0.2,0.2c0,0.1,0,0.1-0.1,0.2l-1.2,1.1c-0.1,0.1-0.1,0.2-0.2,0.1L33.3,64l0,0
		l-0.1,0.1l0.5,0.6l0.2-0.2c0-0.1,0-0.1,0.1-0.2l1.2-1.1C35.3,63.1,35.3,63.1,35.4,63.1z"/>
	<path fill="#A85F39" d="M35.5,64.3c0.3-0.3,0.6-0.4,0.9-0.2v0.4h-0.1v0.4L37,65c0.1-0.2,0-0.5-0.1-0.7c0-0.2-0.1-0.5-0.2-0.6
		c-0.4-0.4-1.1-0.4-1.6,0.1c0,0,0,0.1-0.1,0.1l0,0c-0.4,0.4-0.8,1.2,0,2c0.1,0.1,0.2,0.2,0.4,0.3l0.5-0.5l-0.2-0.2
		c-0.2,0.1-0.2,0.1-0.4-0.1S35.2,64.6,35.5,64.3z"/>
</g>
<g>
	<path fill="#A85F39" d="M40.9,69.7L40.9,69.7L40.9,69.7L40.9,69.7z"/>
	<path fill="#A85F39" d="M42.4,69l-0.5,1.3l0.7,0.3l0.1-0.2c0-0.1,0-0.1,0-0.2l0.7-2l-0.6-0.3h-0.1l-0.6,0.8l0.1-1l-0.7-0.3
		l-0.1,0.2v0.1l-0.9,1.5c-0.1,0.1-0.1,0.1-0.2,0.1l-0.1,0.2l0.7,0.4v-0.1v-0.1l0,0l0,0l0,0l0.7-1.1l-0.2,1l0.4,0.2L42.4,69L42.4,69"
		/>
	<path fill="#A85F39" d="M45.3,69.4c0-0.3-0.1-0.6-0.6-0.8l-1-0.3L43,70.7l0.8,0.2v-0.1c-0.1-0.1-0.1-0.2,0-0.3l0.1-0.3l0.2,0.1
		c0.2-0.1,0.4-0.1,0.6-0.2C45,70.1,45.3,69.5,45.3,69.4 M44.1,69.3l0.1-0.5l0.2,0.1c0.2,0.1,0.4,0.2,0.3,0.5
		c-0.1,0.3-0.5,0.4-0.8,0.4L44.1,69.3z"/>
	<path fill="#A85F39" d="M46,70.3c0,0,0.6,0.2,0.6,0.3c0,0,0-0.6-0.1-0.6L46,69.9l0.1-0.4l0.8,0.2l0.1,0.1h0.1l0.2-0.6l-1.9-0.4V69
		c0.1,0,0.1,0,0.1,0.2l-0.3,1.9v0.2l1.8,0.3l0.1-0.6H47c0,0,0,0.1-0.1,0.1c0,0-0.2,0.1-0.3,0.1l-0.8-0.1L46,70.3L46,70.3"/>
	<path fill="#A85F39" d="M49.6,71.7l-0.5-0.3l-0.4-0.6l0,0c0.1-0.1,0.3-0.3,0.3-0.3c0.2-0.1,0.3-0.3,0.3-0.6c0-0.4-0.3-0.6-0.6-0.6
		l-1.3-0.1l-0.1,0.1v0.2c0.1,0,0.1,0,0.1,0.2l-0.1,1.6c0,0.1,0,0.2-0.1,0.2v0.2H48v-0.2c0,0,0-0.1-0.1-0.1v-0.3v-0.3v-0.2H48
		l0.7,1.2L49.6,71.7z M48,69.6h0.3c0.3,0,0.4,0.2,0.4,0.4c0,0.1,0,0.1,0,0.2c-0.1,0.1-0.2,0.1-0.4,0.1H48V69.6z"/>
</g>
<g>
	<path fill="#A85F39" d="M52.5,69.2v0.5h-0.2c0-0.2-0.1-0.2-0.2-0.2h-0.3l0.1,1.7c0,0.1,0,0.2,0.1,0.3v0.1h-0.7v-0.1
		c0.1,0,0.1-0.1,0.1-0.3l-0.1-1.7H51c-0.1,0-0.2,0-0.2,0.2h-0.2v-0.5H52.5"/>
</g>
<g>
	<path fill="#A85F39" d="M52.9,69.5c-0.1-0.1-0.2-0.2-0.3-0.2v-0.1l0.7-0.2v0.1c-0.1,0-0.1,0.1,0,0.2l0.5,0.7l0.2-0.8
		c0-0.1,0-0.3-0.1-0.3v-0.1l0.6-0.1v0.1c-0.1,0.1-0.1,0.1-0.1,0.3l-0.3,1.2l0.1,0.5c0,0.1,0.1,0.2,0.2,0.2v0.1l-0.7,0.2v-0.1
		c0.1-0.1,0.1-0.2,0.1-0.3l-0.1-0.5L52.9,69.5"/>
</g>
<g>
	<path fill="#A85F39" d="M53.8,71.3L53.8,71.3l0.6-0.1l0,0c-0.1,0-0.2-0.1-0.2-0.3L54,70.4l0.3-1.3c0-0.1,0-0.2,0.1-0.2l0,0L53.9,69
		l0,0H54c0.1,0.1,0,0.2,0,0.3l-0.2,0.9l-0.6-0.8c-0.1-0.1-0.1-0.1-0.1-0.2c0,0,0,0,0.1-0.1l0,0l-0.6,0.1l0,0c0.1,0,0.2,0.1,0.2,0.2
		l0,0l0.8,0.9l0.1,0.5C53.9,71.1,53.9,71.2,53.8,71.3z"/>
</g>
<g>
	<path fill="#A85F39" d="M59.2,69.2c0.1,0.1,0.1,0.1,0.2,0.1v0.1l-0.7,0.2v-0.1c0.1-0.1,0.1-0.2,0-0.3l-0.3-0.4l-0.7,0.3v0.5
		c0,0.1,0,0.2,0.2,0.2v0.1l-0.6,0.2V70c0.1,0,0.1-0.2,0.1-0.3v-2.2v-0.2l0.2,0.2L59.2,69.2L59.2,69.2z M58.2,68.6L57.6,68v0.8
		L58.2,68.6"/>
</g>
<g>
	<path fill="#A85F39" d="M61.6,66.7l0.5,0.8c0.1,0.1,0.1,0.2,0.3,0.1l0.1,0.1L62,68.1L61.9,68c0.1-0.1,0-0.2-0.1-0.3l-1-1.3
		c-0.1-0.1-0.1-0.2-0.3-0.1l-0.1-0.1l0.4-0.3l1.6,0.6l-0.4-1c-0.1-0.1-0.1-0.2-0.3-0.1l-0.1-0.1l0.5-0.3l0.1,0.1
		c-0.1,0.1,0,0.2,0.1,0.3l1,1.3c0.1,0.1,0.1,0.2,0.3,0.1l0.1,0.1l-0.5,0.3l-0.1-0.1c0.1-0.1,0-0.2-0.1-0.3l0.1,0.2L61.6,66.7"/>
</g>
<g>
	<path fill="#A85F39" d="M64,66.7l-0.1-0.2l0,0c0.1-0.1,0-0.1-0.1-0.2l-1-1.3c-0.1-0.1-0.1-0.2-0.2-0.1l0,0l-0.1-0.2l0.6-0.5
		l0.1,0.2l0,0c-0.1,0.1,0,0.1,0.1,0.2l1,1.3c0.1,0.1,0.1,0.2,0.2,0.1l0,0l0.1,0.2L64,66.7z"/>
</g>
<path fill="#A85F39" d="M41,67.1l-1.6-0.8v0.1c0-0.1-0.1-0.2-0.2-0.3c-0.1,0-0.4-0.3-0.6-0.3h-0.1c-0.2,0-0.3,0.1-0.5,0.3
	c-0.6,0.6,0.4,1,0,1.5l-0.1,0.1l-0.1,0.1c-0.1,0-0.1,0-0.2,0l0,0l0.2-0.7L37.2,67c0,0.1,0,0.2-0.1,0.3c-0.1,0.3-0.1,0.5,0.2,0.8
	c0.1,0.1,0.3,0.2,0.5,0.2c0.2-0.1,0.4-0.2,0.5-0.2c0.2-0.3,0.2-0.6,0.2-0.8c0,0-0.1-0.3-0.1-0.4c0,0-0.1-0.3,0-0.4s0.1-0.1,0.2-0.1
	c0.1,0,0.1,0,0.2,0.1c0,0.1,0.1,0.2-0.1,0.3c0,0.1-0.1,0.1-0.1,0.1V67l0.5,0.1l-0.5,1.1c-0.1,0.2-0.1,0.2-0.2,0.2l-0.1,0.2l1.7,0.9
	l0.3-0.6l-0.2-0.1C40,69,39.9,69,39.8,68.9l-0.6-0.2l0.4-0.7l0.3,0.2c0.1,0.1,0.3,0.3,0.3,0.3l0.1,0.1l0.3-0.6l-0.1-0.1h-0.3
	l-0.5-0.2l0.2-0.5l0.8,0.6v-0.1L41,67.1z"/>
<g>
	<path fill="#A85F39" d="M64.6,64.8L64.6,64.8c0.1,0.1,0.1,0.1,0.2,0.2c0.2,0.2,0.4,0.1,0.5,0.1c0.1-0.1,0.2-0.3,0-0.5
		c-0.4-0.5-0.9,0.5-1.5-0.2c-0.3-0.4-0.2-0.7,0-0.9s0.5-0.2,0.8-0.1v0.4h-0.1c0,0,0-0.1-0.1-0.1c-0.2-0.2-0.4-0.1-0.5,0
		s-0.2,0.2-0.1,0.4c0.3,0.4,0.9-0.5,1.5,0.2c0.4,0.4,0.2,0.8,0,1c-0.3,0.2-0.5,0.2-1,0L64.6,64.8"/>
</g>
<g>
	<path fill="#A85F39" d="M59.6,69.4l-0.1-0.2l0,0c0.1-0.1,0.1-0.1,0-0.2l-0.8-1.4c-0.1-0.1-0.1-0.2-0.2-0.2l0,0l-0.1-0.2l0.5-0.3
		l1.4,0.7L60,66.8c-0.1-0.1-0.1-0.2-0.2-0.1l0,0l-0.1-0.2l0.6-0.3l0.1,0.2l0,0c-0.1,0.1-0.1,0.1,0,0.2l0.8,1.4
		c0.1,0.1,0.1,0.2,0.2,0.2l0,0l0.1,0.2l-0.6,0.3l-0.1-0.2l0,0l0,0l0,0L59.6,68l0.3,0.7c0.1,0.1,0.1,0.2,0.2,0.1l0,0l0.1,0.2
		L59.6,69.4z"/>
</g>
<g>
	<path fill="#A85F39" d="M57,70c0.1,0.1,0.5,0.1,0.6,0.1l-0.8,0.3l-1.1-0.6h-0.1l0.2,0.6c0.1,0.1,0.1,0.2,0.2,0.2v0.1L55.4,71v-0.1
		c0.1-0.1,0.1-0.2,0-0.3L54.9,69c-0.1-0.1-0.1-0.2-0.2-0.2v-0.1l1-0.4c0.3-0.1,0.7-0.1,0.9,0.3c0.1,0.3,0.1,0.7-0.3,0.9L57,70L57,70
		z M55.9,69.4c0.2-0.1,0.4-0.3,0.3-0.5c-0.1-0.3-0.4-0.3-0.6-0.2l-0.3,0.1l0.3,0.7L55.9,69.4"/>
</g>
<g>
	<g>
		<path fill="#3F863F" d="M28.9,38.7L28.9,38.7L28.9,38.7L28.9,38.7z"/>
	</g>
</g>
<g>
	<path opacity="0.2" enable-background="new    " d="M10.4,74.3V25.8c0-12.1,8.2-22.7,19.8-25.8H0v100h30.2
		C18.5,96.9,10.4,86.3,10.4,74.3z"/>
	<path opacity="0.1" fill="#FFFFFF" enable-background="new    " d="M89.6,25.8v48.5c0,12.1-8.2,22.7-19.8,25.8H100V0H69.8
		C81.5,3.1,89.6,13.7,89.6,25.8z"/>
</g>
</svg>
