<?xml version="1.0" encoding="utf-8"?>
<!-- Generator: Adobe Illustrator 23.0.0, SVG Export Plug-In . SVG Version: 6.00 Build 0)  -->
<svg version="1.0" id="Layer_1" xmlns="http://www.w3.org/2000/svg" xmlns:xlink="http://www.w3.org/1999/xlink" x="0px" y="0px"
	 width="100px" height="100px" viewBox="0 0 100 100" enable-background="new 0 0 100 100" xml:space="preserve">
<path id="path154" fill="#002986" d="M0,100h100V0H0V100z"/>
<path d="M35.3,54.9c0,0.2,0,1.2,0,1.4c0,0.1,0.1,0.8,0.3,1.1c0,0,0,0.2,0,0.4v0.1c0,0.4,0,1,0.1,1.2c0,0.1,0.1,0.2,0.2,0.2
	c0.1,0,0.2-0.1,0.2-0.1c0-0.1-0.1-1.2-0.1-1.3s0-0.1,0.1,0c0,0,0.1,0.1,0.2,0.1c0.3,0,0.6-0.5,0.6-0.6c0,0-0.1,1.2,0,1.4
	c0,0.1,0,0.2,0,0.2s0.1,0.4,0.1,0.5s-0.2,1,0,1.7c0,0-0.2,0-0.2-0.2c0-0.1,0.1-0.1,0.1-0.2c0-0.1-0.1-0.2-0.3-0.3v-0.1
	c0,0,0.1-0.2-0.1-0.4c-0.1-0.1-0.5-0.2-0.7,0c-0.1,0.1-0.4,0.4-0.2,0.9c0,0.1,0.3,0.5,0.7,0.8c0.1,0,0.5,0.2,1,0.2
	c0.1,0,1.3,0,1.7-0.1c0.1,0,0.5-0.1,0.7-0.1c0.2,0.1,0.2,0.1,0.2,0.2c0,0.1-0.1,0-0.2,0.1c0,0-0.3,0-0.3,0.5c0,0.3,0.3,0.6,0.7,0.7
	c0.4,0,0.6-0.4,0.6-0.4s0,0,0.1,0c0,0,0.2,0.4,0.4,0.5c0.2,0.2,0.4,0.2,0.5,0.2s0.1,0.1,0.1,0.1s-0.2,0-0.3,0
	c-0.2,0-0.4,0.1-0.5,0.2c0,0.1,0.2,0.1,0.2,0.1c0.2,0.1,0.7,0.5,0.8,0.6c0.2,0.2,0.8,0.5,1.1,0.6c0.7,0.2,1.5,0.1,1.5,0
	c0,0-0.2,0.2-0.2,0.4c0,0.3,0.2,0.3,0.3,0.3s0.2-0.2,0.3-0.2c0,0,0,0.6,0.8,0.7c0.7,0,0.8-0.7,0.7-0.8h-0.1c0,0-0.2-0.1-0.1-0.3
	c0-0.1,0.3-0.1,0.4-0.1c0.1,0,0.8,0.2,1,0.2c0.4,0,0.6-0.1,0.7-0.2c0.1,0,0.1,0.1,0.2,0.2c0.1,0,0.2,0,0.2,0s0.2,0.4,0.3,0.4
	s0.3-0.4,0.4-0.4c0.4,0,0.4-0.2,0.4-0.2c0-0.1,0.3,0.2,0.6,0.2c0.6,0.1,1,0,1.1-0.1c0.1,0,0.4,0,0.5,0.1S52,65.5,52,65.5
	s-0.1,0-0.1-0.1s-0.1,0.2,0,0.5c0.1,0.1,0.3,0.4,0.7,0.4c0.5,0,0.7-0.6,0.7-0.6s0.2,0.3,0.5,0.1c0.2-0.1,0.1-0.4,0-0.5v-0.1
	c0,0,0.6,0,0.8,0c0.6,0,1.3-0.3,1.5-0.5c0.1-0.1,0.9-0.6,1-0.7s0.5-0.2,0.5-0.3c0,0-0.2-0.2-0.5-0.2s-0.5,0.1-0.5,0.1s0-0.2,0.1-0.2
	s0.3-0.1,0.4-0.2c0.2-0.1,0.5-0.5,0.5-0.5c0-0.1,0.2,0.5,0.7,0.4c0.5,0,0.6-0.3,0.7-0.5c0-0.1,0-0.3,0-0.3c-0.1,0-0.2,0.2-0.3,0.2
	s-0.3,0-0.3,0c0-0.1,0.3,0,0.5-0.2C59,62.2,59.1,62,59,62s-0.2,0-0.2-0.1s0.1-0.2,0.3-0.1c0.3,0,1.5,0.2,2.2,0.2
	c0.2,0,1-0.1,1.5-0.5c0.1-0.1,0.4-0.4,0.4-0.8S63,60.2,63,60.2s0.7-0.1,1.2-0.4c0.3-0.2,1.2-0.9,1.1-1s-0.5,0.3-1.2,0.4
	c-0.6,0.1-1,0.2-1.1,0.1c0,0,0.1-0.5,0-0.6v-0.1c0-0.1,0.3-3.1,0.3-3.5c0.1-0.4,0.2-1.8,0.2-1.8c0-0.1,0.4-0.6,0.4-0.7
	c0-0.1,0.2-0.4,0.2-0.5s0-0.6-0.1-0.7c0-0.1-0.2-0.4-0.2-0.5s0.3-1.1,0.3-1.8c0-0.1,0.2-0.2,0.2-0.3s0-0.2,0-0.3s0.1-0.3-0.1-0.6
	c-0.1-0.1,0-0.4-0.3-0.5c0,0-0.1-0.6-0.5-1.2l-0.2-0.8c0-0.1-0.1-0.7-0.9-1.3c-0.1,0-0.7-0.3-0.8-0.3s-0.7-0.3-0.9-0.6
	c-0.1-0.1,0-0.5,0-0.6s0.2-0.2,0.2-0.4c0-0.1,0.2-0.2,0.1-0.4c0,0,0.1-0.1,0.1-0.3c0,0,0.5,0,0.6-0.4c0-0.4-0.7-0.5-0.8-0.5V40
	c0-0.1-0.3-0.2-0.5-0.3c-0.2,0-1.8,0.2-1.8,0.3s0,0.6-0.1,0.7c0,0-0.7,0.1-0.7,0.4c0,0.2,0.7,0.3,0.7,0.4c0,0,0,0.2,0.1,0.3V42
	c0,0-0.1,0.2,0.1,0.5c0,0,0,0.4,0.1,0.5c0,0,0.1,0.2,0.1,0.3c0,0,0,0.3,0.2,0.4c0,0,0,0,0,0.1c-0.2,0.2-1.2,0.4-1.5,0.6
	c-0.5,0.3-0.7,0.6-0.7,0.7h-0.1c0,0-0.6-1.4-0.8-1.5s-0.9-0.2-2.3,0.6c-0.1,0.1-0.1,0-0.2,0L53.2,44c0,0,0-0.1,0.1-0.1
	s0.3,0,0.2-0.1c0-0.1-0.2-0.1-0.2-0.1c-0.1,0-0.3-0.2-0.6-0.2s-0.6,0-0.7,0c0,0,0-0.3-0.2-0.3c-0.2-0.1-0.4-0.1-0.4,0
	c0,0,0,0.2-0.2,0.2c-0.1,0-0.6,0.1-1.2-0.2c-0.1-0.1,0-0.4-0.4-0.4c0,0,0-0.1-0.3-0.1c0,0-0.1-0.2-0.2-0.1l0,0l0,0H49
	c-0.1,0-0.3,0-0.3,0.3c0,0-0.2,0.3-0.7,0.3c-0.1,0-0.6,0-0.7-0.1c0-0.1,0-0.3-0.4-0.2c-0.1,0-0.3,0.1-0.3,0.3c0,0-0.4,0-0.7,0.1
	c-0.2,0.1-0.6,0.2-0.5,0.3c0,0.1,0.2,0.1,0.2,0.1c0,0.1-0.2,0-0.4,0.2c0,0-0.7-0.3-1-0.5c-0.3-0.1-1.1-0.3-1.3-0.2
	c-0.1,0.1-1,1.4-1,1.5c0,0,0-0.1-0.1-0.3c-0.1-0.1-0.2-0.2-0.2-0.3c0,0,0-0.3-0.1-0.4c-0.1-0.1-0.3-0.3-0.5-0.3
	c-0.1,0-0.6-0.3-0.7-0.4c-0.1,0,0-0.1,0-0.1c0-0.1,0.1-0.2,0-0.2v-0.1c0,0,0.1-0.1,0-0.2v-0.1c0,0,0.1-0.1,0-0.2v-0.2
	c0,0,0-0.3,0-0.4v-0.3c0,0,0.9-0.4,0.8-0.8c-0.1-0.4-1-0.3-1-0.3s0,0-0.1,0c0,0,0-0.3-0.2-0.4c-0.2-0.1-0.7,0-1,0.1
	s-0.9,0.3-1.1,0.6c-0.1,0.1,0,0.4,0,0.4s-0.6,0.4-0.7,0.7c0,0.1-0.1,0.3,0.2,0.4c0.1,0,0.7,0,0.7,0s0,0.1,0.4,0.5c0,0,0,0.1,0,0.2
	c0,0-0.2,0-0.5,0.5c0,0-0.3,0.2-0.4,0.4c0,0-0.3,0.2-0.4,0.2c-0.1,0-0.3,0-0.5,0.2c0,0-0.2,0.2-0.3,0.2s-0.1,0.1-0.2,0.1
	c0,0-0.4,0.2-0.5,1.2c0,0.1-0.3,0.5-0.5,1.6c0,0.1-0.2,0.4-0.1,0.6c0,0.1-0.1,0.1,0,0.4c0,0.1,0.1,0.8,0.1,1s0.1,0.8,0.1,0.8
	c0.1,0.1,0,0.2,0.1,0.2s-0.1,0.4-0.1,0.5c0,0,0.1,0.5,0.1,0.6s0,0.3,0,0.4s0.1,0.1,0.1,0.1s0.2,0.1,0.2,0.3c0,0.1-0.2,0.4-0.2,0.7
	s0.2,0.6,0.2,0.7C35.5,53.3,35.3,54.7,35.3,54.9"/>
<g id="g9792">
	<g id="g9786">
		<g id="path616">
			<path fill="#002986" d="M50.1,64.3h4.8c0,0-0.2,0.2-0.5,0.1c-0.1,0-1.6-0.1-1.7,0c0,0-0.3-0.1-1-0.1c-0.2,0-0.8,0.1-0.9,0.1
				C50.3,64.4,50.1,64.3,50.1,64.3"/>
		</g>
		<g id="path618">
			<path fill="#002986" d="M50,64C50.1,63.9,50.1,63.9,50,64l0.1,0.3c0,0-0.1,0-0.1-0.1C49.9,64.1,49.9,64,50,64L50,64"/>
		</g>
		<g id="path692">
			<path fill="#002986" d="M45.6,65.3c0.1,0.1,0.3,0.2,0.3,0.2S45.7,65.5,45.6,65.3c-0.2-0.1-0.1-0.2-0.1-0.2
				C45.6,65,45.6,65.2,45.6,65.3"/>
		</g>
		<g id="path786">
			<path fill="#002986" d="M52.4,65.5c-0.2,0.1-0.5-0.1-0.5-0.1S52.2,65.5,52.4,65.5c0.3-0.2,0.1-0.6,0.1-0.6S52.9,65.2,52.4,65.5"
				/>
		</g>
	</g>
	<g id="g9758">
		<g id="g9704">
			<g id="path676">
				<path fill="#002986" d="M38.8,61v-0.2c0,0,0.1-0.2,0.2-0.2c0.1,0,0,0.1,0.2,0.2c0.2,0,0.5,0,0.5,0s0-0.1,0.1-0.1
					s0.2,0.2,0.5,0.3c0.4,0.2,0.9,0.1,0.9,0.2c0,0.2-0.8-0.1-0.9-0.2C39.7,61,38.8,61,38.8,61"/>
			</g>
			<g id="g9688">
				<g id="path658">
					<path fill="#002986" d="M39,55.4c0,0.1,0.1,0.1,0.1,0.2c0,0.1-0.1,0.2-0.1,0.3s0.1,0.2,0.1,0.2c-0.2,0.4-0.2,3.7-0.3,3.7
						l-0.2-0.6c0.2-0.9-0.1-2.4-0.1-2.5c0.2-0.5,0-0.8,0.1-0.8c0.1-0.1,0.2-0.7,0.2-0.7C39,55.1,39,55.3,39,55.4"/>
				</g>
				<g id="g9683">
					<g id="path680">
						<path fill="#002986" d="M41.6,61.8c0.1-0.1,0.2-0.3,0.2-0.2s0.2,0.1,0.2,0.2c0,0.3,0.3,0.6,0.3,0.6s-0.3,0-0.5,0
							c-0.2,0.1-0.2,0.4-0.3,0.4l0,0c0-0.1-0.3-0.7-0.3-0.8S41.4,62,41.6,61.8"/>
					</g>
					<g id="path684">
						<path fill="#002986" d="M42.5,62.9c0-0.2-0.1-0.3-0.1-0.3v-0.1c0,0,0.1,0,0.1,0.1c0.3,0.7,0.5,0.5,0.6,0.6
							c0.3,0.5,0.7,0.5,0.7,0.5c0.5,0.6,0.6,0.4,0.6,0.4c0,0.1,0.2,0.3,0.2,0.3s-0.5,0.2-1.3-0.1c-0.4-0.1-0.6-0.4-0.5-0.7
							c0-0.1,0.1-0.2,0.1-0.2s0-0.1-0.3-0.2c-0.2,0-0.4,0.3-0.5,0.2c-0.1,0-0.1-0.2-0.1-0.2S42.4,63.2,42.5,62.9"/>
					</g>
					<g id="path722">
						<path fill="#002986" d="M46.3,59.2c0,0,0.2,0.2,0.1,0.3c0,0.1-0.3-0.1-0.9,0.1c-0.1,0-0.3,0-0.6,0.1c0,0-0.4-0.1-0.6,0
							c-0.1,0-0.2-0.1-0.5,0c-0.1,0-0.1-0.2-0.4-0.2c0,0-0.1-0.1-0.4-0.2c0,0,0-0.2-0.2-0.2c0,0,0-0.2-0.2-0.3c0,0,0-0.2-0.1-0.3
							c0,0,0-0.2-0.1-0.3c0,0,0-0.2-0.1-0.3c0,0-0.1-0.2,0-0.2c0,0,0.3,0.1,0.3,0.2c0.1,0-0.2,0.2-0.2,0.2c0,0.1,0.1,0,0.1,0.1
							c0.1,0,0.3,0.2,0.5,0.3c0.2,0.1,0.7,0.1,0.7,0.1s-0.2,0.1-0.1,0.2c0,0.1,0.1,0.1,0.2,0.1c0,0,0.2,0.1,0.4,0.1
							c0.3,0.1,0.8,0,0.8,0s0.1,0.1,0,0.1c0,0-0.1,0.1,0,0.2c0.1,0,0.3-0.1,0.4-0.1c0.1,0,0.3,0,0.5,0C46,59.3,46.2,59.2,46.3,59.2"
							/>
					</g>
				</g>
			</g>
		</g>
		<g id="g9741">
			<g id="g9726">
				<g id="path720">
					<path fill="#002986" d="M47,59.7c0,0,0.2-0.1,0.2-0.3c0,0,0-0.1,0.2-0.1c0.4,0,0.6,0.3,0.6,0.4c0,0.1,0,0.2,0,0.4
						c0,0.1,0,0.1,0,0.2c0,0,0,0-0.1,0s-0.1,0.1-0.1,0.1s-0.1-0.3-0.3-0.3c-0.1,0-0.1,0-0.1-0.1c0,0,0-0.1-0.1-0.2
						c0-0.1-0.1,0-0.2,0C47,59.8,47,59.7,47,59.7"/>
				</g>
				<g id="g9715">
					<g id="path588">
						<path fill="#002986" d="M60.9,59.2L60.9,59.2c0-0.1,0.1-0.2,0.1-0.4c0-0.1,0.5-1.3,0.6-2.2c0-0.2,0.4-0.3,0.2-0.5l0.2-0.5
							c0-0.1-0.1-0.3-0.1-0.4c0-0.2,0.1-0.2,0.1-0.3s-0.1-0.2-0.2-0.4c0-0.2,0.1-0.7,0.1-1c0-0.2-0.1-0.2-0.1-0.3
							c0-0.1,0.2-1.1,0.3-1.5c0.1-0.7,0-1.1,0-1.1c0-0.1,0.1-0.2,0.1-0.3s-0.1-0.2-0.1-0.3s0-0.2,0-0.3c0-0.1-0.1-0.1-0.1-0.2
							c0-0.2,0.2-0.3,0.2-0.4c0-0.1,0-0.5,0.1-0.7c0.1-0.1,0.1,0.3,0.3,0.5c0,0-0.1,0.5,0.2,0.8c0.1,0.1,0.1,1,0,1.1
							c0,0.2-0.2,0.4-0.2,0.5c0,0.1,0,0.5,0,0.6s0.1,0.3,0.1,0.4c0,0.1,0,0.2,0,0.2c0.1,0.1,0.2,0,0.2,0s-0.7,5.1-0.7,5.3
							c0,0.3-0.1,0.3-0.2,0.4c0,0.1-0.1,0.6-0.1,0.6s-0.1,0.1-0.6,0.1C61.3,59.3,60.9,59.2,60.9,59.2"/>
					</g>
					<g id="path590">
						<path fill="#002986" d="M57.2,61.1c0.1,0,0.5-0.3,0.6-0.3l0.1,0.1c0.3,0,0.6-0.2,0.6-0.3v-0.2c0.2-0.4-0.1-0.5,0-0.7
							c0.1-0.2,0-0.5,0-0.6c0-0.1,0.1-0.2,0.1-0.3c0-0.1,0-0.2-0.1-0.2c0,0,0-0.1,0-0.2c0.2-0.5,0.1-2,0.1-2.1s0.3-0.5,0.3-0.6
							c0-0.1-0.1-0.4-0.1-0.5c0.3-0.3,0.4-1.5,0.5-1.6c0.2-0.1,0.2-0.5,0.2-0.4c0,0,0.1,0.8,0.1,0.9c0,0.1-0.1,0.4-0.2,0.6
							c0,0.2,0.1,0.4,0.1,0.5s0,0.4,0,0.6c0,0.2,0.2,0.3,0.2,0.4s0,0.1,0,0.1c-0.2,0.4-0.1,1.3-0.1,1.4c0,0.2-0.1,0.8-0.1,0.9
							c0,0.1,0.1,0.1,0.1,0.2s-0.1,0.2-0.2,0.3c0,0.1-0.2,0.9-0.1,1.1c0.1,0.3,0.3,0.2,0.4,0.3c0.1,0.1,0.2,0.5,0.2,0.6
							c0,0.1,0.3,0.3,0.3,0.3s-1-0.2-1.7-0.1c-0.9,0-1.4,0.3-1.4,0.3s0-0.1-0.1-0.2s-0.2-0.1-0.2-0.1S57,61.1,57.2,61.1"/>
					</g>
					<g id="path592">
						<path fill="#002986" d="M56.7,62.8c0,0,0-0.2-0.2-0.3c-0.2-0.1-0.5,0-0.5,0v-0.2h-0.3l-0.6-0.9h0.1v-0.6h-0.4L54.3,60h0.1
							v-0.7h-0.5l-0.1-0.2c0,0,0.6-0.1,0.7-0.2c0.1-0.1,0.2,0,0.2-0.1c0-0.1-0.2-0.2-0.2-0.2s0.4,0,0.6,0c0.2,0,0.6-0.2,0.7-0.2
							c0.1,0,0.3,0,0.3,0s-0.1-0.2-0.2-0.3c-0.1-0.1-0.4-0.2-0.4-0.2s0.6-0.2,0.9-0.4c0.3-0.3,0.6-0.9,0.6-0.9s0.1,2.2,0.1,2.3
							c0.1,0.1,0,0.3,0.1,0.4c0,0,0,0.2,0,0.3c0,0.3-0.4,0.5-0.4,0.6S56,60.7,56,60.9c0,0.1,0,0.2,0,0.2c0.1,0.1,0.7,0.1,0.7,0.1
							s-0.2,0.1-0.2,0.4c0,0.4,0.6,0.4,0.6,0.4s-0.1,0.3-0.2,0.4C56.8,62.7,56.7,62.8,56.7,62.8"/>
					</g>
					<g id="path620">
						<path fill="#002986" d="M51.3,59.9c0.3,0,0.4-0.2,0.4-0.3c0.1-0.1,0-0.4,0-0.4s0.3,0.1,0.6,0c0.1,0,0.3,0,0.3,0v0.1H52V60h0.2
							l-0.4,0.8h-0.6v0.6h0.3L51,62.3h-0.5v0.6h0.2l-0.5,0.8H50c0,0,0.1-0.2-0.1-0.3c-0.1-0.1-0.3-0.2-0.3-0.2s0.2-0.3,0.3-0.4
							c0.1-0.2,0.5-0.3,0.5-0.3s0-0.3-0.2-0.4c-0.1,0-0.3,0-0.3,0s0-0.1,0-0.2c0-0.1-0.1-0.2-0.2-0.2l-0.2,0.1c0,0,0-0.3-0.1-0.4
							c0-0.1-0.2-0.2-0.2-0.2s0.1-0.1,0.2-0.1c0.1-0.1,0.1-0.2,0.1-0.2s0.2,0.2,0.5,0.2s0.4-0.2,0.5-0.3c0.1-0.2,0-0.4-0.1-0.4
							s-0.2,0-0.2,0s-0.1,0,0,0c0.1-0.1,0.1-0.2,0.1-0.2c-0.1-0.2-0.1-0.3,0-0.5c0.2-0.2,0.6-0.2,0.6-0.2S51,59.9,51.3,59.9"/>
					</g>
					<g id="path686">
						<path fill="#002986" d="M41.5,47.9c0.1,0.1,0.2,0.1,0.2,0.1c0.5,0.6,0.9,0.3,0.9,0.3c-0.1,0.4-0.3,0.5-0.4,0.5
							c-0.1,0-0.2-0.1-0.2-0.1s-0.1,0.1-0.2,0.3c0,0.2,0.2,0.4,0.2,0.4c-0.3,0.1-0.4-0.4-0.4-0.4c-0.1,0-0.2,0.4-0.2,0.6
							c0.1,0.4,0.4,0.4,0.4,0.5c0,0-0.1,0.1-0.2,0.3c-0.3,0.4-0.2,0.7-0.2,0.7c0.1,0,0.2-0.1,0.2-0.1c0,0.1-0.2,0.3-0.3,0.4
							c-0.2,0.5-0.2,0.7-0.1,0.7c0,0,0.1,0,0.2-0.1c0.1-0.1,0.3-0.2,0.3-0.2s-0.5,1.4-0.5,2.2c0,1.4,0.4,2.3,0.3,2.3
							c-0.3,0-0.5,0.1-0.5,0.2c0,0,0.1,0.1,0.3,0.3c0.1,0.1,0.3,0.3,0.2,0.3c-0.2,0.3-0.2,0.4-0.2,0.5c-0.1,0.2-0.1,0.3-0.1,0.4
							c-0.1,0.3,0,0.4,0,0.4c-0.1,0.4,0,0.4,0,0.5c-0.1,0.5,0,0.5,0,0.5c-0.1,0.7,0.1,0.6,0.1,0.7c0,0.3,0.2,0.4,0.2,0.5
							c0,0.4,0.2,0.4,0.2,0.5c0,0,0,0.2,0,0.1c-0.1-0.1-0.2-0.1-0.2-0.1c0.1-0.5-0.3-0.5-0.4-0.7c0-0.7-0.2-0.9-0.2-1
							c0-0.2-0.1-0.8-0.1-1c0.1-0.4,0.2-1.8,0.2-1.9c0.2-1,0.2-2.2,0.2-2.3c0-0.1-0.3-3.1-0.2-3.3c0.6-1.6,0.1-2.8,0.3-3.1
							C41.2,47.6,41.4,47.8,41.5,47.9"/>
					</g>
					<g id="path746">
						<path fill="#002986" d="M57.6,47.5c0,0.2,0.1,0.3,0.1,0.4s-0.1,0.2,0,0.4c0,0.2,0.1,0.3,0.1,0.3c0,0.1-0.1,0.2-0.1,0.4
							c0,0.1,0.3,0.4,0.3,0.5s-0.1,0.3-0.1,0.4c0,0.1,0,0.3,0,0.3s-0.1,0.2-0.2,0.5c-0.1,0.2,0,0.4,0,0.5c0,0.1-0.1,0.1-0.1,0.2
							c0,0.1,0,0.2,0,0.3c0,0.1-0.1,0.3-0.2,0.5c0,0.2,0,0.7-0.1,0.8l-0.1,0.4c0,0-0.1-0.4-0.2-0.6c0-0.2-0.2-0.7-0.2-0.7
							s0.4,0.3,0.5,0.2c0.1-0.2-0.3-1-0.3-1s0.3,0.1,0.3,0c0-0.3-0.5-0.9-0.5-0.9s0.4-0.1,0.5-0.5s-0.1-0.7-0.1-0.7
							s-0.1,0.2-0.2,0.4c-0.3-0.1-0.5-0.1-0.5-0.1s0.2-0.1,0.2-0.3c0-0.1,0-0.4,0-0.4s-0.1,0-0.3,0.1c-0.1,0-0.3-0.2-0.3-0.2
							s0.7-0.3,0.8-0.5c0.1-0.4,0.5-0.7,0.5-0.7c0-0.2,0.2-0.3,0.2-0.3S57.6,47.2,57.6,47.5"/>
					</g>
					<g id="path758">
						<path fill="#002986" d="M61.7,60c0.2,0,0.6,0.1,0.6,0.1s-0.1,0-0.1,0.1s0,0.2,0,0.2s0.3,0.2,0.2,0.3c0,0-0.1-0.2-0.5-0.2
							c-0.2,0-0.3,0.2-0.3,0.2s0.2,0.1,0.1,0.3c-0.1,0.3-0.5,0.4-0.5,0.4v-0.1c0,0,0.1-0.2,0.1-0.3c0-0.1-0.1-0.3-0.1-0.4
							S61,59.8,61,59.8S61.5,59.9,61.7,60"/>
					</g>
				</g>
			</g>
		</g>
	</g>
</g>
<g id="path1346">
	<path d="M47.5,45.6L47.5,45.6L47.5,45.6z"/>
</g>
<g id="path392">
	<path fill="#FFCC18" d="M47,59.2c0,0,0.1,0.1,0.1,0.2c0,0.1-0.2,0.2-0.3,0.2s-0.3-0.1-0.2-0.3c0-0.1,0.1-0.5,0.7-0.5
		c0.2,0,0.7,0,1,0.3c0.3,0.3,0.6,0.8,0.5,1.3c-0.1,0.3-0.3,0.4-0.5,0.4c-0.1,0-0.3-0.1-0.3-0.3c0-0.1,0.2-0.2,0.2-0.2
		c0.1,0,0.2-0.1,0.2-0.1c0.1-0.3,0.1-0.7-0.3-1c-0.2-0.2-0.5-0.3-0.9-0.3C47,59.1,47,59.2,47,59.2"/>
</g>
<g id="g9480">
	<g id="g8958">
		<g id="path318">
			<path fill="#FFCC18" d="M50,60.9c-0.2,0-0.4-0.2-0.5-0.5c-0.1-0.4,0.1-1,0.5-1.2c0.3-0.2,0.7-0.3,1-0.3c0.4,0,0.7,0.2,0.7,0.5
				c0,0.2-0.1,0.3-0.2,0.3c-0.1,0-0.3,0-0.3-0.2c0-0.1,0.1-0.2,0.1-0.2s0-0.1-0.3-0.2c-0.1,0-0.4-0.1-0.9,0.2
				c-0.3,0.2-0.4,0.7-0.3,0.9c0.1,0.3,0.5,0.3,0.5,0.3C50.4,60.5,50.4,60.9,50,60.9"/>
		</g>
		<g id="g6555">
			<g id="g6134">
				<g id="g5825">
					<g id="g5670">
						<g id="g8002" transform="translate(0.890955,-3.649227)">
							<path id="path1502" fill="#FFFFFF" d="M41.4,74.3v7.8h-1.8v-5.8c-0.5,0.4-1,0.7-1.6,1v-1.7c0.7-0.3,1.3-0.7,1.8-1.3H41.4"/>
							<path id="path1504" fill="#FFFFFF" d="M44.8,74.2c-1.1,0-2.6,0.4-2.6,1.9c0,1,0.5,1.7,1.3,1.9l0,0c-0.9,0.1-1.2,0.8-1.2,2
								c0,1.6,1.5,2.3,2.6,2.3c1.2,0,3-0.4,3-2.3c0-1.2-0.3-2-1.2-2.1c0.7-0.1,1.1-0.8,1.1-1.8c0-1.6-1.6-1.9-2.7-1.9
								C45,74.2,44.9,74.2,44.8,74.2z M44.9,75.4C44.9,75.4,45,75.4,44.9,75.4c0.6,0,1.1,0.3,1.1,1.1s-0.4,1.1-1,1.1
								c-0.5,0-1-0.3-1-1.1C44,75.8,44.4,75.4,44.9,75.4z M44.9,78.7C45,78.7,45,78.7,44.9,78.7c0.6,0,1.1,0.3,1.1,1.1
								c0,0.7-0.4,1.1-1,1.1c-0.5,0-1-0.3-1-1.1C44,79,44.4,78.7,44.9,78.7z"/>
							<path id="path1506" fill="#FFFFFF" d="M48.2,79.2l2.7-4.8H53v4.8h1v1.5h-1v1.5h-1.8v-1.5h-3V79.2z M51.3,79.2v-2.9l0,0
								l-1.5,2.9H51.3"/>
							<path id="path1510" fill="#FFFFFF" d="M57.3,74.3c-1.1,0-2.8,0.4-2.8,2c0,1,0.5,1.7,1.3,1.9l0,0c-0.9,0.1-1.2,0.8-1.2,2
								c0,1.6,1.5,2.3,2.6,2.3c1.2,0,3-0.4,3-2.3c0-1.2-0.3-2-1.2-2.1c0.7-0.1,1.1-0.8,1.1-1.8C60.1,74.7,58.5,74.3,57.3,74.3
								L57.3,74.3z M57.2,75.6L57.2,75.6c0.6,0,1.1,0.3,1.1,1.1c0,0.7-0.4,1.1-1,1.1c-0.5,0-1-0.3-1-1.1S56.7,75.6,57.2,75.6z
								 M57.3,78.8L57.3,78.8c0.6,0,1.1,0.3,1.1,1.1c0,0.7-0.4,1.1-1,1.1c-0.5,0-1-0.3-1-1.1C56.4,79.2,56.8,78.9,57.3,78.8z"/>
						</g>
						<g id="path168">
							<path fill="#FFCC18" d="M56.1,63.8c0,0,0.5-0.2,0.5-0.9c0-0.2-0.2-0.4-0.4-0.4c-0.1,0-0.3,0.1-0.3,0.3c0,0.1,0.1,0.2,0.2,0.2
								c0.1,0,0.2-0.1,0.2-0.1s0.1,0.1,0,0.3C56.3,63.6,56.1,63.8,56.1,63.8"/>
						</g>
						<g id="path322">
							<path fill="#FFCC18" d="M41.4,63.4c0,0,1.1,0.9,1.5,1.1c0.2,0.1,0.7,0.2,1,0.2s1.3-0.2,1.4-0.1c0.1,0.1-0.2,0.1-0.4,0.2
								c-0.2,0.1-0.3,0.4-0.2,0.4s0.3-0.3,0.4-0.4c0.3-0.3,0.5-0.3,0.5-0.3s-0.2,0.1-0.3,0.4c-0.2,0.3,0.1,0.6,0.2,0.7
								c0.6,0.3,0.8,0,0.8,0s-0.4,0.2-0.7-0.2c-0.1-0.1-0.1-0.3,0-0.4c0.3-0.5,0.8-0.5,0.8-0.5S46,64.7,46,64.9
								c0,0.2,0.2,0.5,0.3,0.4s-0.1-0.2-0.1-0.4s0.3-0.3,0.3-0.3c0.2-0.1,0.6,0,0.7,0c0.1,0,0.4,0.1,0.5,0.1c0,0,0,0.1-0.5,0
								c-0.1,0-0.4-0.1-0.6,0c0,0,0.8,0.3,1.3,0.2c0.1,0,0.6-0.2,0.9-0.5c0.1-0.1,0.2-0.3,0.2-0.6c0-0.2-0.1-0.4-0.4-0.4
								c-0.4,0.1-0.3,0.5-0.1,0.6h0.2c0,0-0.1,0.4-0.5,0.6c-0.1,0-0.4,0.2-1.2,0c-0.1,0-0.7-0.1-1.2,0c-0.1,0-0.7,0-0.8,0
								s-0.8,0.1-1.1,0.1c-0.2,0-0.8-0.1-1.1-0.6c-0.1-0.1-0.1-0.4,0-0.5c0,0,0-0.1-0.2-0.1c-0.2,0.1-0.2,0.3-0.2,0.4
								c0.1,0.3,0.5,0.5,0.4,0.5c0,0-0.4-0.2-0.6-0.6c-0.1-0.1-0.3-0.6-0.1-0.7c0.1-0.1,0.1,0.1,0.2,0.1c0.2,0,0.2-0.3,0.1-0.4
								c-0.1-0.1-0.3-0.2-0.5,0c-0.1,0.1-0.1,0.4-0.1,0.5c0,0.3,0.4,0.5,0.4,0.5l-0.1,0.1c0,0-0.1-0.1-0.3-0.2
								C41.6,63.4,41.4,63.3,41.4,63.4"/>
						</g>
						<g id="path352">
							<path fill="#FFCC18" d="M45.5,64.2c0,0.1-0.8,0.2-1.1-1.2c-0.1-0.4-0.1-1.3,0-1.7c0.3-0.7,0.7-1.3,1.1-1.5
								c0.2-0.1,0.6-0.2,0.9-0.2c0.3,0,0.6,0.2,0.5,0.3c0,0.1-0.3-0.1-0.5-0.1s-0.2,0-0.3,0s-0.1-0.1-0.2-0.1c0,0,0,0.1-0.1,0.1
								c0,0-0.4,0.2-0.5,0.3S45,60.3,45,60.4c-0.1,0.1,0,0.1-0.1,0.2c0,0.1-0.4,0.6-0.4,1.9c0,0.1-0.1,0.2,0,0.3
								c0,0.1,0.1,0,0.1,0.1c0,0.1,0.2,0.6,0.3,0.8C45.3,64.2,45.5,64.1,45.5,64.2"/>
						</g>
						<g id="path378">
							<path fill="#FFCC18" d="M48.7,64.6c0,0,0.2-0.8,0.4-0.8c0.3,0,0.5,0.8,0.5,0.8s-0.1,0.1-0.3-0.1v0.2c0,0.1-0.1,0.2-0.1,0.2
								s-0.2,0-0.2-0.1c0-0.1-0.1-0.2-0.1-0.2C48.8,64.7,48.7,64.6,48.7,64.6"/>
						</g>
						<g id="path382">
							<path fill="#FFCC18" d="M49.2,61.3c0,0-0.2,0.2-0.3,0.5c0,0.1-0.3-0.1-0.3-0.1s-0.1,0.1,0,0.4c0,0.1,0,0,0,0S48.4,62,48.3,62
								c-0.2,0-0.2,0.1-0.2,0.1s0.2,0.2,0.3,0.3c0,0.1,0.3,0.6,0.5,0.6s0.3-0.2,0.3-0.2s0.1,0.2,0.2,0.2c0.4,0,0.5-0.5,0.6-0.6
								c0.1-0.2,0.4-0.4,0.4-0.4s-0.1-0.2-0.3-0.1c-0.1,0-0.3,0.1-0.3,0.2c0,0-0.1,0-0.1-0.1c0.1-0.3,0-0.4,0-0.4s-0.3,0.2-0.3,0.1
								C49.4,61.4,49.2,61.3,49.2,61.3"/>
						</g>
						<g id="path384">
							<path fill="#FFCC18" d="M49.8,63.3c-0.2,0-0.4,0.1-0.4,0.5c0,0.4,0.5,0.8,0.6,0.8c0.2,0.1,0.5,0.2,0.7,0.2
								c0.3,0,0.8-0.1,0.9-0.1c0.1,0,0-0.1-0.8,0c-0.3,0-0.4-0.1-0.4-0.1s0.3,0.1,0.4,0c0.1,0,0.8-0.1,0.9-0.1
								c0.2,0,0.4,0.1,0.4,0.3S52,65.1,52,65.1s0.3,0.1,0.4-0.2c0-0.2-0.3-0.4-0.3-0.4s0,0,0-0.1c0,0,0.5,0.2,0.6,0.5
								c0,0.1,0,0.5-0.4,0.6c-0.3,0.1-0.5-0.1-0.5-0.1s0,0.3,0.5,0.3c0.4,0,0.6-0.4,0.6-0.5c0-0.2-0.2-0.5-0.2-0.5l0,0
								c0,0,0.2,0.1,0.5,0.5c0,0,0.1,0.1,0.2,0.1c0.1,0,0-0.2,0-0.3c-0.1-0.2-0.5-0.4-0.5-0.4s0,0,0-0.1c0,0,0.3,0.1,0.6,0.1
								s1.5,0.1,2.1-0.2c1.2-0.8,1.2-0.8,1.5-0.9c0.1,0,0-0.1-0.6,0.1C56.2,63.7,56,64,55.9,64c0,0-0.1,0.1-0.1,0
								c0,0-0.3,0.3-0.4,0.3h-0.1c0,0,0.4-0.2,0.4-0.5c0-0.3-0.3-0.4-0.3-0.4s0,0.3,0,0.4c-0.1,0.1-0.2,0.4-0.4,0.5
								c-0.3,0.2-0.6,0.3-1,0.3c-0.1,0-1.2-0.1-1.4-0.1c-0.1,0-0.2,0-0.2,0s-0.9,0-1.2,0c-0.1,0-0.5,0.1-0.7,0.1
								c-0.3,0-0.5-0.1-0.6-0.2c-0.4-0.2-0.4-0.6-0.4-0.6s0.2,0.1,0.3,0C50.1,63.6,50.1,63.3,49.8,63.3"/>
						</g>
						<g id="path394">
							<path fill="#FFCC18" d="M49.2,60.2c0,0-0.2,0.2-0.2,0.4c0,0.2,0,0.4,0.2,0.4c0.3,0,0.3-0.3,0.2-0.4
								C49.4,60.3,49.2,60.2,49.2,60.2"/>
						</g>
						<g id="path1108">
							<path fill="#BCBCBC" d="M50.7,63.4L50.7,63.4"/>
						</g>
					</g>
					<g id="g5312">
						<g id="path182">
							<path fill="#FFCC18" d="M56.9,61.3c-0.1,0-0.2,0.1-0.2,0.2s0.1,0.3,0.2,0.3c0.4,0.1,0.5-0.1,0.6-0.1s0.3-0.1,0.3-0.1
								s-0.2,0.1-0.3,0.2c-0.2,0.3-0.3,0.3-0.5,0.8c-0.1,0.1-0.1,0.3-0.1,0.3s0.2-0.1,0.3-0.2c0.1-0.1,0.4-0.4,0.5-0.8
								c0.1-0.3,0.3-0.4,0.3-0.3c0,0.1-0.2,0.3-0.2,0.3c-0.1,0.3-0.1,0.7,0.3,0.8c0.4,0.1,0.6-0.2,0.6-0.2s-0.4,0-0.5,0
								C58.1,62.4,58,62.2,58,62c0-0.1,0.2-0.4,0.3-0.4s0,0.1,0,0.3c0,0.1,0.1,0.3,0.3,0.3c0.1,0,0.2-0.1,0.2-0.2c0,0-0.2,0-0.2-0.2
								c0-0.2,0.1-0.3,0.2-0.3c0.2-0.1,1.1,0,1.3,0c0.8,0.1,1.5,0.1,1.8,0c0.5-0.1,1-0.5,1-0.8c0-0.2,0-0.5-0.2-0.6
								c-0.3-0.1-0.4,0.1-0.4,0.1s0.2,0.1,0.2,0.3s-0.1,0.4-0.4,0.6c-0.1,0.1-0.3,0.1-0.3,0.1s0.1-0.1,0.2-0.2
								c0.1-0.1,0.2-0.2,0.1-0.3c0-0.3-0.4-0.2-0.4-0.2s0.1,0.1,0.1,0.2s-0.1,0.3-0.3,0.4c-0.1,0.1-0.3,0.2-0.5,0.2s-1,0-1.1,0
								s-1.2-0.1-1.4-0.1c-0.6,0-1.1,0.2-1.3,0.3c-0.4,0.2-0.4,0.1-0.4,0.1s0.1-0.1,0-0.2C57.1,61.4,57,61.3,56.9,61.3"/>
						</g>
						<g id="path456">
							<path fill="#FFCC18" d="M59.6,39.4L59.6,39.4L59.6,39.4L59.6,39.4z"/>
						</g>
						<g>
							<path fill="#F3334B" d="M59.7,43.9C59.6,43.8,59.6,43.9,59.7,43.9L59.7,43.9z"/>
							<path fill="#F3334B" d="M62.5,44.8L62.5,44.8L62.5,44.8L62.5,44.8z"/>
							<path fill="#F3334B" d="M63.7,46.9c-0.1-0.1-0.2-0.9-0.3-1c-0.1-0.3-0.3-0.7-0.5-0.8c-0.1-0.1-0.2-0.2-0.4-0.3
								c0.1,0.1-0.5,0.3-0.5,0.8c0,0.1,0,1,0,1.1c0,0.1,0,0,0.1,0.2c0,0.1,0.6,1.3,0.6,1.3c0,0.1,0,0.6,0.2,0.8c0,0,0-0.1,0.1-0.1
								s1.1-0.2,1.1-0.3v-0.1c0.1,0,0.2,0.1,0.2,0.3c0,0.1,0.1,0,0.1,0.2c0,0,0.1-0.2,0.1-0.3C64.5,48.6,64.1,47.4,63.7,46.9z"/>
						</g>
						<g id="path1290">
							<path fill="#F4D3B0" d="M59.6,43.8c0,0-0.1-0.1-0.1-0.2c0-0.1,0-0.1,0.1-0.1c0.4-0.1,0.6-0.4,0.6-0.4c-0.1,0-0.2,0.2-0.6,0.2
								c-0.2,0-0.3-0.1-0.3-0.2c0-0.1,0-0.2,0-0.2c0.1,0-0.1-0.3-0.1-0.3s0.1-0.2,0-0.2c-0.2-0.1-0.2-0.2-0.1-0.2
								c0,0-0.2-0.6-0.2-0.7v-0.1c0,0,0.2,0.1,0.4,0c0.1-0.1,1.1-0.2,1.1-0.1c0,0.3,0,0.2,0,0.3s0.1,0.1,0.1,0.2
								c0,0.1,0.1,0.1,0.1,0.1l0.1-0.1c0.1,0.1,0.1,0,0.1,0s0,0,0,0.1c-0.1,0.1,0,0.2-0.1,0.2s-0.1,0.1,0,0.2c0,0.1,0.2,0,0.2,0
								s0,0.2-0.1,0.2c0,0-0.1-0.1-0.1,0c0,0.2,0,0.1,0,0.2c0,0.2,0.1,0.6,0.1,0.7c0,0.2-0.2,0.3-0.3,0.4c-0.2,0.2-0.5,0.3-0.6,0.3
								C59.8,43.9,59.7,43.9,59.6,43.8C59.6,43.9,59.6,43.8,59.6,43.8"/>
						</g>
						<g id="path1294">
							<path fill="#F4D3B0" d="M63.6,52.4c0-0.1-0.1-0.3-0.2-0.5c-0.1-0.1-0.1-0.3-0.2-0.3c0,0-0.1,0.1-0.1,0.3c0,0.2,0,0.6,0,0.6
								H63c0-0.2-0.1-0.4-0.1-0.5c0-0.1,0-0.6,0.1-0.7c0-0.1,0.3-2.8,0.3-2.8c0.1-0.1,0.5-0.1,0.7,0c0.2,0.1,0.1,0.8,0.1,1.1
								s-0.2,1.3-0.3,1.4c0,0.1,0.2,0.4,0.2,0.6c0,0.1,0.1,0.5,0.1,0.6s-0.1,0.3-0.2,0.2v-0.1c0.1-0.2,0-0.2,0-0.2
								c-0.2,0.2-0.1,0.3-0.1,0.5c0,0.1-0.2,0.4-0.2,0.3C63.5,52.7,63.5,52.5,63.6,52.4"/>
						</g>
					</g>
				</g>
				<g id="g5558">
					<g id="path14">
						<path d="M34.8,66.2L34.8,66.2L34.8,66.2L34.8,66.2"/>
					</g>
					<g id="path320">
						<path fill="#FFCC18" d="M35.9,59.8c-0.4,0.1-0.5,0.4-0.4,0.6c0,0.4,0.4,0.7,0.5,0.7c0.9,0.4,1.6,0.3,1.7,0.3
							c0.3,0,1.6-0.2,1.8-0.2c0.4,0.1,0.5,0.3,0.5,0.4c0,0.2-0.2,0.2-0.2,0.2s0,0.3,0.2,0.3c0.1,0,0.2-0.1,0.2-0.3
							c0-0.3-0.2-0.3-0.1-0.4c0,0,0.3,0.1,0.3,0.3c0,0.1,0.1,0.5-0.4,0.6c-0.3,0.1-0.5-0.2-0.5-0.2s0,0.4,0.5,0.5
							c0.1,0,0.4,0,0.5-0.4c0.1-0.3-0.1-0.6-0.1-0.6s0.1-0.1,0.3,0.5c0,0.1,0.4,0.9,0.7,0.9c0.1,0-0.3-0.9-0.4-1
							c-0.2-0.3-0.7-0.5-0.7-0.6c-0.1-0.1,0.4,0.1,0.5,0.1c0.1,0.1,0.4,0.3,0.6,0.2c0.1,0,0.3-0.1,0.3-0.3c0-0.1-0.1-0.2-0.2-0.2
							c-0.2,0-0.1,0.2-0.1,0.2s0,0.1-0.3,0c0,0-0.6-0.2-0.9-0.3c-0.8-0.1-1,0-1.3,0s-1,0.2-1.9,0c-0.1,0-0.4-0.2-0.4-0.5
							c0-0.2,0.2-0.3,0-0.4c-0.1,0-0.2,0-0.2,0.2c-0.1,0.3,0.1,0.4,0.1,0.5c0.1,0-0.2,0.2-0.5-0.4c0-0.1,0-0.3,0.1-0.4h0.2"/>
					</g>
					<g id="path634">
						<path fill="#FFFFFF" d="M38.2,43.4c0.2,0.4,0.6,0.5,0.6,0.6c0,0,0.2,0.2,0.3,0.2s0.2-0.3,0.3-0.4c0.3-0.2,0.3-0.5,0.3-0.6
							s0.3-0.3,0.3-0.3s0.3,0.2,0.5,0.3c0.1,0.1,0.7,0.3,0.7,0.3s0,0-0.1,0c0,0-0.3-0.2-0.8,0c-0.1,0-0.4,0.3-0.5,0.3s-0.4,0-0.4,0
							c-0.1,0-0.2,0.4-0.3,0.4S38.9,44,38.7,44c0,0-0.3-0.2-0.4-0.2c-0.1,0-0.7,0-0.9-0.1c-0.1,0-0.2-0.2-0.5-0.2
							c-0.1,0-0.4,0.1-0.4,0s0.2-0.2,0.3-0.2c0.3,0,0.5-0.2,0.6-0.2s0.1,0.2,0.2,0.2c0.1,0,0.1-0.3,0.1-0.4c0.1-0.1,0.3,0.3,0.3,0.3
							V43c0,0-0.1,0-0.1-0.1c0-0.4,0.2-0.6,0.3-0.6C38.2,42.7,38.1,43.2,38.2,43.4"/>
					</g>
					<g id="path636">
						<path fill="#FFFFFF" d="M38.6,45c0,0.1,0.3,0.1,0.3,0.2c0,0.1-0.3,0.3-0.4,0.4c0,0.1,0,0.2,0,0.2c0,0.1-0.1,0.2-0.2,0.1
							c0,0-0.2-1.1-0.1-1.1C38.3,44.8,38.5,44.9,38.6,45"/>
					</g>
					<g id="path638">
						<path fill="#FFFFFF" d="M35.3,51.5c0,0,0.2-0.2,0.3-0.2s0.5-0.2,0.6-0.2s0.2,0,0.2,0.1c0,0.1-0.3,0-0.5,0.1
							C35.8,51.4,35.5,51.6,35.3,51.5"/>
					</g>
					<g id="path640">
						<path fill="#FFFFFF" d="M35.6,51.7c0,0-0.1,0.1,0,0.2c0,0,0.2-0.2,0.3-0.2c0,0,0,0,0-0.1c0-0.1,0.2-0.2,0.4-0.1
							c0.1,0,0.3,0.4,0.3,0.4c0,0.2,0.1,0.5,0.1,0.5c0,0.1,0,0.2-0.1,0.2s-0.1-0.3-0.1-0.3h-0.1c-0.1,0.2,0.1,0.8-0.1,0.8
							c-0.1,0-0.1-0.1-0.2-0.3c-0.1-0.1-0.2-0.3-0.2-0.3c-0.1,0,0,0.1,0,0.1S36.1,53,36,53c-0.2,0.1-0.3-0.3-0.3-0.3s0-0.2-0.1-0.2
							v0.2c0,0.1,0.2,0.2,0.2,0.3s-0.1,0.1-0.1,0c-0.1-0.1-0.2-0.2-0.2-0.2c-0.1-0.1-0.1-0.5-0.1-0.5C35.3,52.2,35.5,51.7,35.6,51.7
							L35.6,51.7"/>
					</g>
					<g id="path644">
						<path fill="#FFFFFF" d="M39.4,46c0,0,0.1,0.4,0.1,0.5c-0.1,0.3-0.1,0.4-0.1,0.4c0,0.1-0.1,0.5-0.1,0.6
							c0.1,0.5,0.3,0.6,0.4,0.7c0,0,0.1,0,0.1-0.1c0-0.4,0.2-0.9,0.2-0.9c0.1,0,0.2,0.9,0.2,1c0,0.1-0.1,0.2-0.1,0.2s0,0-0.1,0
							c0,0,0,0.1-0.1,0c0,0,0.1-0.1,0-0.2c-0.1,0-0.2,0.3-0.3,0.4c0,0,0-0.1-0.1-0.1s-0.1,0.1-0.1,0.1v-0.2c0,0-0.1,0.2-0.2,0.2
							l0.1-0.3l-0.2,0.3c0,0,0,0-0.1,0l-0.1,0.1c0,0,0.1-0.3,0.1-0.4l-0.1,0.1l0.1-0.3c-0.1,0-0.2,0.6-0.4,0.7c-0.1,0-0.1,0-0.2-0.1
							c0,0,0.1-0.7,0-0.8c0-0.1-0.1-0.1-0.1-0.1c0-0.2-0.1-1.1,0-1.2c0,0,0.2,0.2,0.2,0.1c0,0,0-0.1,0-0.2c0-0.1,0.1-0.2,0.2-0.3
							C39.1,46.2,39.2,45.9,39.4,46C39.4,45.9,39.4,45.9,39.4,46"/>
					</g>
					<g id="path646">
						<path fill="#FFFFFF" d="M38.8,49.4C38.8,49.4,38.8,49.5,38.8,49.4C39,49.5,38.9,49.4,38.8,49.4h0.3c0,0.1,0.1,0.1,0.1,0.1h0.2
							L38.7,54c0,0.1,0.1,0.1,0.1,0.1l-0.1,0.1c0,0.1,0.1,0.1,0.1,0.1c0,0.1,0,0.1,0,0.1l-0.2,0.7c0,0.1-0.1,0.1-0.1,0.1v0.1v0.1
							c-0.1,0,0,0.6,0,0.6l0.1,0.2c-0.1,0.1,0,0.2,0,0.3c-0.1,0.1-0.1,0.3-0.1,0.3c-0.1,0.1,0,0.2,0.1,0.2l0.2,2.9
							c-0.1,0.1,0.1,0.2,0,0.3c-0.1,0.2,0,0.2,0,0.3c-0.1,0.2,0.1,0.3,0.1,0.3s0,0.1-0.1,0.1c0,0-0.3-0.3-0.7-0.3
							c-0.5,0-0.8,0.5-1,0.5c-0.1,0-0.2-0.2-0.2-0.3c0,0,0.1,0.2,0.2,0.1c0,0-0.3-0.4-0.2-0.5c0,0,0.1-0.1,0-0.1L36.8,60
							c0,0,0-1.4,0.1-1.5c0,0-0.2-0.3-0.1-0.4c0,0-0.1-0.3,0-0.4c0,0-0.2-0.3,0-0.4V57c0,0-0.1-0.4,0-0.5c0,0,0-0.3,0.1-0.4
							c0,0-0.2-2-0.1-2.1c0,0-0.2-0.5-0.1-0.5c0,0-0.1-0.4-0.1-0.5v-0.2c0.1-0.1-0.1-0.5-0.1-0.5s0.2,0.2,0.2,0.1
							c0.1-0.1-0.5-0.6-0.4-0.7l0.3,0.2l-0.3-0.4c0,0,0-0.1,0-0.2c0,0,0-0.2,0.1-0.3C36.4,51,38.7,49.4,38.8,49.4"/>
					</g>
					<g id="path648">
						<path fill="#FFFFFF" d="M39.7,49.6C39.7,49.6,39.6,49.7,39.7,49.6c0.1,0.1,0.2-0.2,0.2-0.2c0.1,0.1,0.8,1.3,0.8,1.3l-0.1,0.7
							c0,0.1,0,0.1,0,0.1c0,0.1,0.1,0.3,0.1,0.3c0,0.1,0,0.2,0,0.3v0.2l-0.1,4.2v0.8l0.1,2v0.1c0,0,0.1,0,0.1,0.1l-0.1,0.1
							c0,0,0.1,0.1,0.1,0.2c-0.1,0.1-0.2,0-0.6,0c-0.2,0-0.6,0.4-0.8,0.4c-0.1,0-0.3,0-0.3-0.1s-0.2-0.2-0.1-0.3c0,0,0.3,0.1,0-0.3
							c0,0-0.1-2.7,0-2.7c0.1,0,0-0.2,0.1-0.3c0-0.1,0.5-5.4,0.5-5.5c0-0.1,0.1-1.6,0.1-1.7C39.6,49.5,39.7,49.5,39.7,49.6"/>
					</g>
					<g id="path1284">
						<path fill="#F4D3B0" d="M38.8,40.9c0.3,0,0.4-0.1,0.5-0.1s0.3-0.1,0.5-0.1c0.1,0,0.2,0.2,0.2,0.2c-0.2,0.1,0.1,0.5,0.1,0.5
							c0.1,0.1,0,0.4,0,0.4v0.1c0,0,0.1,0.3,0,0.4v0.1v0.1c0,0,0,0.1-0.1,0.1l-0.1,0.1c-0.4,0-0.3,0.1-0.3,0.1h-0.2
							c0-0.1-0.2-0.1-0.2-0.2c0-0.1-0.1,0-0.1-0.1c0-0.1-0.3-0.2-0.2-0.3c0.1-0.1,0-0.1,0-0.1V42l-0.2-0.1c0-0.1,0-0.1,0-0.1
							c0-0.1-0.1-0.1-0.1-0.1s0-0.1-0.1-0.1c0-0.1,0-0.1,0-0.2c0,0-0.1-0.1,0-0.2C38.4,41,38.7,40.9,38.8,40.9"/>
					</g>
					<g id="path1296">
						<path fill="#F4D3B0" d="M35.6,51.7c0,0-0.1,0.1,0,0.2c0,0,0.2-0.2,0.3-0.2c0,0,0,0,0-0.1c0-0.1,0.2-0.2,0.4-0.1
							c0.1,0,0.3,0.4,0.3,0.4c0,0.2,0.1,0.5,0.1,0.5c0,0.1,0,0.2-0.1,0.2s-0.1-0.3-0.1-0.3h-0.1c-0.1,0.2,0.1,0.8-0.1,0.8
							c-0.1,0-0.1-0.1-0.2-0.3c-0.1-0.1-0.2-0.3-0.2-0.3c-0.1,0,0,0.1,0,0.1S36.1,53,36,53c-0.2,0.1-0.3-0.3-0.3-0.3s0-0.2-0.1-0.2
							v0.2c0,0.1,0.2,0.2,0.2,0.3s-0.1,0.1-0.1,0c-0.1-0.1-0.2-0.2-0.2-0.2c-0.1-0.1-0.1-0.5-0.1-0.5C35.3,52.2,35.5,51.7,35.6,51.7
							L35.6,51.7"/>
					</g>
				</g>
			</g>
			<g id="g5466">
				<g id="g2693" transform="translate(6.4411,-3.852503)">
					<path id="path1514" fill="#FFFFFF" d="M17.9,33.3l-1-8.1h1.7l0.6,5.9l0,0l1-5.9h2.1l0.9,5.9l0,0l0.6-5.9h1.5l-1,8.1h-2l-1-6
						l0,0l-1.1,6H17.9"/>
					<path id="path1516" fill="#FFFFFF" d="M25.8,33.3h1.8v-8.2h-1.8V33.3z"/>
					<path id="path1518" fill="#FFFFFF" d="M31.9,27.5c0-0.3-0.1-0.6-0.2-0.7c-0.1-0.2-0.4-0.3-0.6-0.3c-0.4,0-0.7,0.3-0.7,0.7
						c0,0.6,0.5,0.8,1,0.9c1,0.3,2.5,0.5,2.5,2.7c0,1.7-1.3,2.5-2.7,2.5c-1.4,0-2.7-0.6-2.7-2.8h1.7c0,0.8,0.4,1.2,1,1.2
						c0.4,0,0.9-0.3,0.9-0.8c0-1.1-1.2-0.9-2.6-1.6c-0.6-0.4-0.9-1.1-0.9-2c0.1-1.9,1.3-2.5,2.6-2.5s2.6,0.6,2.4,2.6L31.9,27.5"/>
					<path id="path1520" fill="#FFFFFF" d="M38.6,27.7c0-0.7-0.5-1.1-1.1-1.1c-1,0-1.1,1.5-1.1,2.7c0,1.2,0.2,2.6,1.1,2.6
						c0.7,0,1.1-0.4,1.1-1.2h1.8c0,2-1.4,2.8-2.9,2.8c-1.9,0-2.9-1.5-2.9-4.2s1-4.2,2.9-4.2c1.5,0,2.9,0.7,2.9,2.7L38.6,27.7"/>
					<path id="path1522" fill="#FFFFFF" d="M41.1,29.2c0-2.7,1.1-4.2,3.2-4.2s3.2,1.6,3.2,4.2c0,2.7-1.1,4.2-3.2,4.2
						S41.1,31.9,41.1,29.2z M44.3,26.5c-1.1,0-1.4,1.4-1.4,2.7c0,1.2,0.2,2.6,1.4,2.6c1.1,0,1.4-1.4,1.4-2.6
						C45.7,28,45.4,26.5,44.3,26.5"/>
					<path id="path1524" fill="#FFFFFF" d="M48.3,25.1h2.4l2,6.1l0,0v-6h1.5v8.1h-2.3l-2-6.3l0,0v6.2h-1.5L48.3,25.1"/>
					<path id="path1526" fill="#FFFFFF" d="M58.6,27.5c0-0.3-0.1-0.6-0.2-0.7c-0.1-0.2-0.4-0.3-0.6-0.3c-0.4,0-0.7,0.3-0.7,0.7
						c0,0.6,0.5,0.8,1,0.9c1,0.3,2.5,0.5,2.5,2.7c0,1.7-1.3,2.5-2.7,2.5s-2.7-0.6-2.7-2.8h1.7c0,0.8,0.4,1.2,1,1.2
						c0.4,0,0.9-0.3,0.9-0.8c0-1.1-1.2-0.9-2.6-1.6c-0.6-0.4-0.9-1.1-0.9-2c0.1-1.9,1.3-2.5,2.6-2.5s2.6,0.6,2.4,2.6L58.6,27.5"/>
					<path id="path1528" fill="#FFFFFF" d="M61.4,33.3h1.8v-8.2h-1.8V33.3z"/>
					<path id="path1530" fill="#FFFFFF" d="M64.3,25.1h2.4l2,6.1l0,0v-6h1.5v8.1h-2.3L65.8,27l0,0v6.2h-1.5V25.1"/>
				</g>
				<g>
					<path fill="#753C28" d="M54.4,40.5L54.4,40.5c-0.2-0.1-0.2-0.2-0.2-0.2c-0.1,0-0.1,0-0.1,0c-0.1,0-0.1-0.1-0.1-0.1l-0.1,0.1
						l-0.1-0.1c0,0-0.1,0.1-0.2,0.1l0,0c-0.1,0-0.1,0-0.1,0h-0.1c0,0,0,0.1-0.1,0.1l-0.1,0.1c0,0.1-0.1,0.1-0.1,0.1
						c-0.1,0-0.1,0-0.1,0h-0.1v-0.1c0.2-0.2,0-0.3,0-0.3c0.1-0.1,0-0.1,0-0.2c0-0.1-0.1-0.3-0.1-0.3c0.1-0.1,0-0.2,0-0.2
						c0-0.1-0.2-0.2-0.2-0.2c0.1-0.1-0.1-0.2-0.1-0.2c0.1-0.1-0.1-0.2-0.1-0.2c0-0.2-0.2-0.1-0.2-0.2c-0.1-0.2-0.3-0.2-0.3-0.2
						c0-0.1-0.2-0.1-0.2-0.1c0-0.2-0.2-0.2-0.2-0.2c-0.1-0.1-0.2-0.1-0.3-0.1C51.2,38,51,38,51,38c-0.1,0-0.2,0-0.2,0
						c-0.1,0-0.2-0.1-0.5-0.1C50.2,38,49.9,38,49.9,38c-0.1-0.1-0.3,0-0.3,0c-0.3,0-0.4,0.2-0.4,0.2c-0.1,0-0.2,0-0.2,0
						c-0.1,0.1-0.1,0.1-0.2,0.1l0,0c-0.1,0-0.1,0.1-0.1,0.1h-0.1c-0.1,0.1-0.1,0.1-0.1,0.1s-0.1,0-0.2,0.1l0,0c-0.1,0,0,0-0.1,0
						c0,0,0,0.1-0.1,0.1c-0.2,0-0.2,0.1-0.2,0.1l0,0l0,0c-0.2,0-0.4,0.1-0.4,0.1h-0.1l0,0C47.2,38.9,47,39,47,39
						c-0.1,0-0.3,0.1-0.5,0.2l0,0c-0.2,0.1-0.3,0.2-0.4,0.2c-0.2,0-0.6,0.2-0.6,0.2c0,0.1,0.2,0.1,0.2,0.2c0.1,0.1,0.2,0.1,0.2,0.1
						C46,39.9,46,40,46,40c-0.1,0-0.2,0-0.2,0.1c0.1,0.2,0.4,0.1,0.7,0.5c0.1,0.1,0.3,0.2,0.3,0.2c0.4,0.3,0.5,0.3,0.6,0.3l0,0
						c0,0,0,0.1,0.1,0.1h0.1l0.1,0.1c0,0-0.3,0.1-0.4,0.1S47,41.6,47,41.6s-0.1,0-0.2,0c-0.1,0-0.1-0.1-0.2,0l0,0
						c-0.1,0-0.1,0-0.2,0l0,0c-0.1-0.1-0.3-0.2-0.4,0c0,0,0.1,0.1,0.1,0.2c-0.1,0.2,0.1,0.3,0.1,0.3c-0.1,0.3,0.2,0.4,0.2,0.4
						s0.9,0,1,0s0.2-0.1,0.2-0.1s0.1,0.1,0.2,0.1s0.6,0,0.6,0s0.1-0.1,0.2-0.1c0.1,0,0.2,0.1,0.2,0.1h0.3c0,0,0.1,0.3,0.1,0.4
						c0,0.1,0.1,0.1,0.1,0.1c0.1,0,0.1-0.1,0.1-0.1c0-0.1,0.1-0.4,0.1-0.4c0.1,0,0.2-0.1,0.2-0.1c0.1,0,0.2,0.1,0.2,0.1h0.6l0.2-0.1
						l0.3,0.1c0.2,0,0.6,0,0.7,0c0.1,0,0.2-0.1,0.2-0.1l0.1,0.1c0.3,0.1,0.9,0,0.9,0c0.2-0.1,0-0.5-0.1-0.6
						c-0.1-0.1-0.2-0.1-0.3-0.1l0,0l0,0c-0.1,0-0.2,0-0.3,0v-0.1c0.1-0.1,0.3-0.2,0.4-0.4h0.1c0.1,0.1,0.3,0.1,0.3,0.1
						c0.2,0.1,0.4,0,0.4,0c0.2,0.1,0.3,0,0.3,0c0.2,0,0.2-0.2,0.3-0.2c0.3-0.2,0.3-0.3,0.3-0.3c0.2-0.1,0.1-0.2,0.1-0.2
						C54.3,40.6,54.4,40.5,54.4,40.5z"/>
				</g>
				<g id="path1282">
					<path fill="#F4D3B0" d="M38.1,41.6c0,0-0.1,0-0.1,0.2c0,0,0.1,0.2,0.2,0.2c0,0,0.2,0.1,0.1,0.2c0,0-0.3-0.1-0.4-0.3
						c0,0,0-0.2,0-0.3C38,41.6,38.1,41.6,38.1,41.6"/>
				</g>
				<g id="path1286">
					<path fill="#F8B8DE" d="M39.9,41.1"/>
				</g>
				<path fill="#FFFFFF" d="M56.3,37.4C56.3,37.4,56.3,37.4,56.3,37.4c0.1,0,0.1,0,0.1,0c0,0,0.3,0,0.6,0s0.5,0.2,0.6,0.2
					c0.1,0,0-0.2,0-0.3c-0.1-0.3-0.5-0.5-0.7-0.6c-0.2-0.1-0.8-0.2-0.9-0.2s-0.3-0.2-0.6-0.3c-0.3-0.1-0.8,0-0.9-0.1
					c0-0.1,0.2-0.3,0.2-0.6c0-0.2-0.4-0.4-0.6-0.5c-0.2-0.1-0.8-0.2-1-0.2c-0.2,0-0.6-0.2-1-0.3c-0.4-0.1-0.9,0-1.1-0.1
					c-0.2-0.1-0.9-0.4-1.7-0.4c-0.5,0-1.1,0.3-1.3,0.3c-0.2,0.1-0.7,0.1-1,0.1s-0.8,0.3-1.1,0.4c-0.2,0-0.8,0-1.2,0.2
					c-0.5,0.2-0.8,0.5-0.8,0.7c0,0.2,0.1,0.3,0.1,0.4c0,0-0.4,0-0.6,0c-0.2,0.1-0.7,0.4-0.8,0.5c-0.2,0.1-0.2,0-0.7,0.1
					c-0.5,0.1-0.7,0.8-0.6,0.8c0,0,0.1-0.1,0.5-0.5c0,0,0.1,0,0.1,0c-0.1,0.1-0.2,0.2-0.2,0.2s0.3,0,0.4,0c0.1,0,0.2,0,0.4,0.1
					c-0.1,0.1-0.3,0.2-0.5,0.3c-0.2,0.1-0.4,0.5-0.3,0.6c0,0.1,0.1,0,0.2,0c0,0,0,0,0,0c0,0,0.4-0.1,0.5-0.1c0.1,0,0.4,0.1,0.8,0
					c0,0,0,0,0.1-0.1c0.3-0.1,0.5-0.3,0.8-0.3c0.1,0,0.9,0.2,1.3,0.1c0.2-0.1,0.5-0.2,0.6-0.3c0.1-0.1,0.2-0.2,0.3-0.3
					c0.1-0.2,0-0.4-0.1-0.5c0.3-0.1,0.6-0.3,0.8-0.3c0.1,0,0.7-0.1,1-0.1c0.1,0,1-0.3,1.7-0.3c0.8,0,1.3,0.3,1.5,0.3
					c0,0,0.2,0,0.4,0c0.3,0.1,0.8,0.1,1,0.3c0,0.1-0.2,0.5-0.2,0.7c0,0.2,0.4,0.5,0.7,0.5c0,0,0.1,0,0.1,0c0.1,0,0.1,0,0.2,0
					c0,0,0.1,0,0.2,0c0.3,0,0.6-0.1,0.9-0.1c0.4,0.1,1,0.5,1.1,0.5c0.2,0.1,0.6,0,1,0c0.2,0,0.6,0.2,0.7,0.1
					c0.2-0.3-0.3-0.6-0.5-0.7c-0.2,0-0.6,0-0.7-0.1c-0.1-0.1-0.2-0.1-0.2-0.2c0,0,0.2,0,0.3,0.1C56.2,37.4,56.3,37.4,56.3,37.4z"/>
			</g>
		</g>
	</g>
</g>
<g>
	<path opacity="0.2" enable-background="new    " d="M10.4,74.3V25.8c0-12.1,8.2-22.7,19.8-25.8H0v100h30.2
		C18.5,96.9,10.4,86.3,10.4,74.3z"/>
	<path opacity="0.1" fill="#FFFFFF" enable-background="new    " d="M89.6,25.8v48.4c0,12.1-8.2,22.7-19.8,25.8H100V0H69.8
		C81.5,3.1,89.6,13.7,89.6,25.8z"/>
</g>
<path fill="#FFCC18" d="M44,63.4c0,0-1.5-1-2-2.5c-0.6-1.5-0.5-3.5-0.3-3.5s0.4,0.6,0.7,1.2s0.3,0.9,0.8,1.1
	c0.4,0.1,1.5,0.3,1.7,0.2c0.2,0,0.2,0,0.2,0s-0.7,0.6-0.9,1.5C43.9,62.2,44,63.4,44,63.4z"/>
<path fill="#F3334B" d="M61.9,48L61.9,48c0-0.2-0.1-0.2-0.1-0.2s0-0.2-0.1-0.4c0-0.6,0.1-1.6,0.1-1.7c0.1-0.5,0.3-0.7,0.5-0.9
	c-0.1,0-0.1,0-0.2,0c-0.2,0-0.8-0.4-0.9-0.4c0,0,0,0-0.1,0s-0.1,0-0.2,0l0,0l-0.1-0.2c0,0-0.1,0.2-0.3,0.4c-0.2,0.2-0.4,0.3-0.8,0.4
	v-0.1c0-0.9-0.1-0.9-0.1-0.9c0,0.1-0.1,0.1-0.2,0.1l0,0L58,44.5c0,0-0.1-0.1-0.1,0v0.1c0,0.1-0.2,0.8-0.3,0.8c0,0.1,0,0,0,0.4
	c0,0.1,0,0.1,0,0.3c0,0.1,0,0.1,0.1,0.1c0,0.1,0,0.1,0,0.2l0,0v0.1c0,0,0.1-0.2,0,0.4c0,0,0,0,0,0.1l0,0c0,0.3,0.1,0.5,0.3,0.8
	c0.2,0.4,0.2,0.5,0.3,0.9c0.1,0.3,0.1,0.4,0.1,0.4v0.1c0,0,0,0.1,0.1,0.1l0,0c0,0.1,0.1,0.1,0.1,0.2l0,0l0.2,0.1h0.1
	c0.1,0,0.2,0.1,0.3,0.1c0.5,0.2,1.6-0.2,2.1-0.3c0.4-0.1,0.6-0.8,0.6-1.2C61.9,48.1,61.9,48,61.9,48L61.9,48z M60,45L60,45L60,45z
	 M59.7,44.3L59.7,44.3L59.7,44.3L59.7,44.3z"/>
<g>
	<path fill="#FFCC18" d="M55.6,50.9c0,0-0.3-1.2-0.5-2c0,0,0,0.1-0.1,0.1L55,48.1c0,0,0,0,0,0.1c0,0,0-0.1,0-0.1
		c0-0.3-0.1-1.9,0.6-2.6c0.4-0.4,0.8-0.6,0.8-0.6l-0.6-1.2c0,0-0.7,0-1.3,0.3c-0.8,0.3-1.4,0.8-1.4,0.8s-0.7-0.4-1.6-0.8
		c-1-0.4-2-0.4-2-0.4l-0.2-0.1c0,0-1.1,0.1-1.6,0.3C47,44,46,44.7,46,44.7s-0.7-0.5-1.2-0.7c-1.1-0.3-1.8-0.4-1.8-0.4l-0.7,1.2
		c0,0,0.8,0.2,1.1,1c0.2,0.5,0.2,1,0.2,1.4l0,1.1c0,0.2-0.1,0.4-0.1,0.6c-0.1,0.3-0.5,1.9-0.5,1.9l-0.3,0.5c0,0-0.7,2.1-0.5,3.3
		c0.2,1.3,0.7,2.5,2.3,3.2c0.4,0.2,2.5,0.4,2.9,0.4c0.9,0.1,1.5,0.8,1.5,0.8v-1.2l0.5,0v1.3c0,0,0.4-0.7,2.1-0.6c0.7,0,2.3,0,3.5-1
		c0.8-0.6,1.1-1.3,1.3-3.2c0.1-1.3-0.5-2.8-0.5-2.8L55.6,50.9z"/>
</g>
</svg>
