<?xml version="1.0" encoding="utf-8"?>
<!-- Generator: Adobe Illustrator 23.0.0, SVG Export Plug-In . SVG Version: 6.00 Build 0)  -->
<svg version="1.1" id="Layer_1" xmlns="http://www.w3.org/2000/svg" xmlns:xlink="http://www.w3.org/1999/xlink" x="0px" y="0px"
	 viewBox="0 0 100 100" style="enable-background:new 0 0 100 100;" xml:space="preserve">
<style type="text/css">
	.st0{fill:#008457;}
	.st1{fill-rule:evenodd;clip-rule:evenodd;fill:#FFD520;}
	.st2{fill:#34C2DE;}
	.st3{fill-rule:evenodd;clip-rule:evenodd;fill:#FFFFFF;}
	.st4{fill-rule:evenodd;clip-rule:evenodd;fill:#FDD6C6;}
	.st5{fill-rule:evenodd;clip-rule:evenodd;}
	.st6{fill:none;}
	.st7{fill:#FDD6C6;}
	.st8{opacity:0.2;enable-background:new    ;}
	.st9{opacity:0.1;fill:#FFFFFF;enable-background:new    ;}
</style>
<rect class="st0" width="100" height="100"/>
<g>
	<path class="st1" d="M49.8,81.6c-17.6,0-31.9-14.3-31.9-31.9s14.3-31.9,31.9-31.9s31.9,14.3,31.9,31.9S67.4,81.6,49.8,81.6
		L49.8,81.6z"/>
</g>
<path class="st2" d="M49.7,25.9c13.1,0,23.8,10.7,23.8,23.8S62.8,73.5,49.7,73.5S25.9,62.8,25.9,49.7S36.6,25.9,49.7,25.9L49.7,25.9
	z"/>
<g>
	<path class="st3" d="M40.3,71.5c4.9,2.3,10,2,10.1,2c6.1-0.2,13-2.1,18.1-9.1l-0.8-0.7C66,62,64.2,59.9,62.9,59l-1.8-1.9
		c-0.2-0.1-1.4-0.8-1.5-1c0-0.1-0.3-1.3-0.3-1.3c0.2,0.2,0.3-0.5,0-0.8v-1.7l0.7-0.2l0.7-0.3l0.8-0.6c0.4,0,1-0.3,1.5-0.4l0.3-0.8
		c0.4-0.7,1-1.1,1.6-1.6l0.3-0.4c-0.1-0.2,0.2-0.6,0.2-0.6c0-0.1-0.6-0.1-0.6-0.2v-0.6c-0.1-0.6-0.2-0.1-0.3-1
		c-0.1-0.8-0.4-0.7-0.5-0.9l-0.1-0.2c0-0.1-0.3-0.6-0.3-0.6l-0.7-0.3l-0.4-0.3l0.8-1.6c0.2-0.6,0.2-0.7,0-0.7s0-0.2,0.1-0.2
		s0.1-0.2,0.1-0.3s-0.2,0-0.2-0.1l0.1-0.4c0,0,0-0.3,0-0.5s-0.1-0.3-0.1-0.3c0-0.1-0.6-0.7-0.6-0.9H62c0,0-0.3-0.6-0.8-1.3l-1.1-1
		c-0.2,0-1.4-2-2.6-2c-0.1-0.4-1.4-1.1-1.7-1.3c-0.2-0.1-0.9-0.3-1.4-0.6c-0.5-0.5-3.3-1-4.5-1.1c-1.4,0.3-0.8,0-1.9,0.4
		c-1.6,0.1-2.7,0.5-3.9,1.2c-0.8,0.6-1.1,1-1.8,1.7c-0.2,0.2-0.8,1.1-0.8,1.1c-0.1,0.2-0.6,1-0.6,1.1c-1.4,2-1.6,4.3-1.6,4.3
		c-0.7,0.5-1.4,1.8-1.4,2c-0.1,0.2-0.5,1.7-0.6,1.7c0,0.2-0.2,0.5-0.4,0.7c-0.1,0.1-1.2,2.8-1.2,2.8c0.2,0.9,0.7,2,1.8,2.6
		c0,0,0,0.5,0.2,0.6c0.3,0.2,1.4,0.8,1.6,0.9c0.8,0.4,0.7,0.9,0.8,1.1c0.7,3.2,2.7,3.8,2.7,3.8l0.7,1c0,0-2.8,0.6-2.8,1.2
		c0,1,0.4,2,0,3s-0.7,1.6-0.6,2.6c-1.7,1-3.6,2.2-5.4,3.3C36.4,69.4,38.5,70.7,40.3,71.5L40.3,71.5z"/>
</g>
<g>
	<path class="st4" d="M50.5,34.3c0,0-0.5-0.5-2.1-0.6c-1-0.1-1.3-0.1-1.9-0.1c-0.6,0-2.4,0.4-3.1,0.6c-0.7,0.2-0.9,0.6-1.4,1.2
		c-0.4,0.5-0.8,1.1-1.1,1.5s-1.3,2.8-1.4,3.7c-0.1,1.1-0.1,2.6-0.1,3s0.2,2.3,0.2,2.8s-0.2,2-0.1,2.4c0.1,0.4,0.1,1.3,0.2,2.1
		c0,0.5,0.2,1.3,0.2,1.3s0.2,0.6,0.2,0.9c0,0.3,0.5,1.6,0.8,2.2c0.4,0.6,1.3,1.3,1.8,1.6c0.7,0.4,2.4,1.5,5.8,0.4
		c3.4-1.1,4.5-2.2,5.3-3.3c0.7-1.1,1.3-3.9,1.3-4.3s0.1-3.3,0-3.6s-0.3-1.1-0.4-1.4c-0.2-0.3-0.3-1-0.5-1.2c-0.3-0.4-0.8-1-0.8-1.5
		c0-0.7-0.2-1.1-0.1-1.9c0.1-0.6,0.3-1.7,0.3-2.1c0.1-0.3,0-1.2-0.2-1.7c-0.1-0.2-0.7-1-1.1-1.4C51.7,34.5,50.5,34.3,50.5,34.3z"/>
</g>
<g>
	<path d="M49.8,82.5C31.7,82.5,17,67.8,17,49.7s14.7-32.8,32.8-32.8s32.8,14.7,32.8,32.8S67.9,82.5,49.8,82.5z M49.8,17.7
		c-17.6,0-32,14.4-32,32c0,17.7,14.4,32,32,32s32-14.4,32-32C81.8,32,67.5,17.7,49.8,17.7z"/>
</g>
<g>
	<path class="st5" d="M45,78.5l0.7-3.5h-0.1c-0.3,0.2-0.8,0.3-1.3,0.2v0.3l0.5,0.1c0.2,0,0.3,0.1,0.2,0.2l-0.6,2.7
		c-0.1,0.2-0.2,0.3-0.5,0.2l-0.4-0.1l-0.1,0.3l2.2,0.5l0.1-0.3L45.3,79C45,78.8,44.9,78.7,45,78.5L45,78.5z"/>
</g>
<g>
	<path class="st5" d="M47.6,77.3c-0.5-0.2-0.7-0.6-0.7-1c0-0.7,0.6-1.1,1.3-1.1s1.1,0.4,1.1,1c0,0.4-0.2,0.7-0.7,0.9
		c0.6,0.2,0.8,0.6,0.8,1.1c0,0.8-0.6,1.3-1.6,1.3c-0.8,0-1.3-0.5-1.3-1.2C46.7,77.8,47,77.4,47.6,77.3L47.6,77.3z M47.8,77.4
		c-0.4,0.2-0.7,0.5-0.7,0.9c0,0.5,0.3,0.9,0.9,0.9c0.6,0,0.9-0.3,1-0.8C49,77.8,48.6,77.7,47.8,77.4L47.8,77.4z M48.4,76.9
		c0.3-0.2,0.5-0.5,0.5-0.8c0-0.5-0.3-0.7-0.8-0.8c-0.5,0-0.8,0.2-0.8,0.6C47.3,76.4,47.7,76.7,48.4,76.9L48.4,76.9z"/>
</g>
<g>
	<path class="st5" d="M51,77.4c-0.5-0.2-0.7-0.5-0.7-1c0-0.7,0.5-1.2,1.2-1.2s1.2,0.3,1.2,0.9c0,0.4-0.2,0.7-0.6,0.9
		c0.6,0.2,0.9,0.6,0.9,1.1c0,0.8-0.5,1.3-1.5,1.4c-0.8,0-1.3-0.4-1.3-1.1C50.1,77.9,50.4,77.6,51,77.4L51,77.4z M51.2,77.5
		c-0.4,0.2-0.6,0.5-0.6,1s0.3,0.8,0.9,0.8c0.6,0,0.9-0.4,0.9-0.9C52.4,77.8,52,77.7,51.2,77.5L51.2,77.5z M51.8,77
		c0.3-0.2,0.4-0.5,0.4-0.8c0-0.5-0.3-0.7-0.8-0.7s-0.7,0.3-0.7,0.7C50.7,76.6,51,76.8,51.8,77L51.8,77z"/>
</g>
<g>
	<path class="st5" d="M55.4,75.9c0.1,0.6-0.1,1-0.6,1.1c-0.4,0.1-0.7-0.2-0.9-0.8c-0.1-0.7,0.1-1.1,0.5-1.2
		C55,75,55.3,75.3,55.4,75.9L55.4,75.9z M55.6,76.7c0.2,1.2,0,2-0.6,2.1c-0.2,0-0.4,0-0.4-0.1s0.1-0.2,0.1-0.4
		c0-0.2-0.2-0.3-0.4-0.3S54,78.2,54,78.5c0.1,0.4,0.5,0.6,1.1,0.5c1-0.2,1.5-1.3,1.2-2.6c-0.2-1.2-1-1.8-1.8-1.6
		c-0.8,0.2-1.2,0.9-1,1.7c0.2,0.7,0.7,1.1,1.4,1C55.2,77.4,55.5,77.1,55.6,76.7L55.6,76.7z"/>
</g>
<g>
	<path class="st5" d="M37.4,72.7L36,75.5c-0.1,0.2-0.2,0.3-0.4,0.2C35,75.4,35,75,35.3,74l-0.2-0.1l-0.6,1.5l3.1,1.6l0.8-1.4
		l-0.2-0.1c-0.5,0.8-0.9,1.1-1.4,0.9c-0.3-0.1-0.3-0.2-0.2-0.5L38,73c0.1-0.2,0.2-0.2,0.4-0.1l0.3,0.2l0.1-0.3L37,71.9l-0.1,0.3
		l0.3,0.2C37.5,72.4,37.5,72.5,37.4,72.7L37.4,72.7z"/>
</g>
<g>
	<path class="st5" d="M35.9,71.4l-1.5-1.1l-0.1,0.2l0.2,0.2c0.2,0.1,0.2,0.2,0.1,0.4l-0.9,1.2l-1.6-1.1l0.8-1.3
		c0.1-0.2,0.2-0.2,0.4,0l0.2,0.2l0.2-0.2l-1.5-1.1L32,69l0.3,0.2c0.2,0.1,0.2,0.3,0.1,0.4l-1.8,2.6c-0.1,0.2-0.2,0.2-0.4,0L30,72.1
		l-0.2,0.2l1.5,1.1l0.2-0.2L31.3,73c-0.2-0.1-0.2-0.3-0.1-0.4l0.8-1.1l1.6,1.2l-0.7,1.1c-0.1,0.2-0.2,0.2-0.4,0.1l-0.3-0.2L32,73.8
		l1.5,1.1l0.1-0.2l-0.2-0.2c-0.2-0.1-0.2-0.2-0.1-0.4l1.8-2.6c0.1-0.2,0.2-0.2,0.4-0.1l0.3,0.2L35.9,71.4L35.9,71.4z"/>
</g>
<g>
	<path class="st5" d="M32,68.5l-2.5-2.6L28.4,67l0.1,0.1c0.6-0.4,1-0.5,1.2-0.4s0.5,0.3,0.9,0.7c0.3,0.3,0.3,0.4,0.1,0.6l-1.1,1.1
		l0,0c-0.4-0.5-0.4-0.8,0-1.2l-0.2-0.2L28.1,69l0.2,0.2c0.5-0.4,0.8-0.4,1.2,0.1l0,0l-1,0.9c-0.2,0.2-0.3,0.1-0.5-0.2
		c-0.4-0.4-0.6-0.7-0.6-0.9c0-0.2,0.1-0.6,0.4-1l-0.2-0.2l-1,1.1l2.3,2.5l0.2-0.2L29,71c-0.1-0.2-0.2-0.3,0-0.4l2.2-2.2
		c0.2-0.1,0.3-0.1,0.4,0l0.2,0.2L32,68.5L32,68.5z"/>
</g>
<g>
	<path class="st5" d="M26.8,62.4c0.1-0.4,0.1-0.8-0.1-1.3c-0.4-0.8-1.1-1.1-1.8-0.7c-0.3,0.2-0.5,0.4-0.6,0.8
		c-0.1,0.3,0,0.7,0.1,1.1c0.2,0.8,0.3,1.2-0.1,1.5c-0.4,0.2-0.8,0.1-1-0.4c-0.3-0.6-0.2-1.2,0.5-1.8l-0.1-0.2l-1.3,0.8l0.1,0.2
		l0.4,0.1c-0.1,0.4-0.1,0.8,0.1,1.2c0.4,0.7,1,0.9,1.6,0.6c0.7-0.4,0.7-0.9,0.5-1.8c-0.1-0.4-0.2-0.8-0.2-1s0.1-0.4,0.4-0.5
		c0.4-0.2,0.9-0.1,1.2,0.5c0.3,0.7,0.1,1.3-0.6,2l0.1,0.2l1.5-0.8l-0.1-0.2L26.8,62.4L26.8,62.4z"/>
</g>
<g>
	<path class="st5" d="M25.9,59.6l-1.1-3.4l-1.5,0.5l0.1,0.2c0.7-0.1,1.1-0.1,1.3,0.1c0.2,0.2,0.3,0.5,0.5,1c0.1,0.4,0.2,0.5-0.1,0.6
		L23.5,59v-0.1c-0.2-0.6-0.1-0.9,0.5-1.1l-0.1-0.3l-1.7,0.6l0.1,0.2c0.6-0.2,0.8,0,1,0.6V59l-1.2,0.4c-0.3,0.1-0.3,0-0.4-0.4
		c-0.2-0.5-0.2-0.9-0.2-1.1c0.1-0.2,0.4-0.5,0.8-0.7L22.2,57l-1.4,0.6l1.1,3.3l0.3-0.1l-0.1-0.3c-0.1-0.2,0-0.3,0.2-0.4l2.9-1
		c0.2-0.1,0.3,0,0.4,0.2l0.1,0.3H25.9L25.9,59.6z"/>
</g>
<g>
	<path class="st5" d="M20.2,54.6v-0.2l3.3-2.2c0.2-0.2,0.3-0.2,0.2-0.5v-0.1l0.3-0.1l0.3,1.7L24,53.4v-0.2c-0.1-0.3-0.1-0.3-0.2-0.3
		c0,0-0.1,0.1-0.2,0.1l-0.7,0.4l0.3,1.6l0.5,0.1c0.1,0,0.3,0,0.4,0c0.2,0,0.2-0.2,0.2-0.5v-0.1l0.3-0.1l0.3,1.5L24.6,56v-0.1
		c-0.1-0.3-0.2-0.4-0.6-0.5L20.2,54.6L20.2,54.6z M22.6,53.5l-1.5,1l1.8,0.3L22.6,53.5L22.6,53.5z"/>
</g>
<g>
	<path class="st5" d="M24,51.3l0.1-3.4l-1.6-0.1V48c0.6,0.1,1,0.3,1.1,0.5c0.2,0.2,0.2,0.6,0.2,1.1c0,0.4,0,0.5-0.3,0.5L20.4,50
		c-0.2,0-0.3-0.1-0.3-0.3v-0.3h-0.3v1.9h0.3V51c0-0.2,0.1-0.3,0.3-0.3l3.1,0.1c0.2,0,0.3,0.1,0.3,0.3v0.3L24,51.3L24,51.3z"/>
</g>
<g>
	<path class="st5" d="M22.6,43.5c-0.6-0.2-1-0.5-1.3-1s-0.4-1-0.2-1.6c0.2-0.6,0.5-1,1-1.2s1-0.3,1.6-0.1s1,0.5,1.3,0.9
		c0.4,0.5,0.4,1.1,0.3,1.6c-0.2,0.6-0.5,1-1.1,1.2C23.7,43.6,23.2,43.6,22.6,43.5L22.6,43.5z M22.9,42.8c1.2,0.4,2,0.1,2.2-0.7
		s-0.3-1.4-1.5-1.8c-1.2-0.4-2-0.2-2.2,0.7C21.1,41.8,21.6,42.4,22.9,42.8L22.9,42.8z"/>
</g>
<g>
	<path class="st5" d="M26,39.8l0.9-1.7L26.7,38l-0.2,0.3c-0.1,0.2-0.2,0.2-0.4,0.2l-1.3-0.7l0,0c0.3-0.6,0.6-0.7,1.1-0.4L26,37
		l-1.6-0.9l-0.1,0.2c0.5,0.3,0.6,0.6,0.3,1.2v0.1L23.3,37c-0.2-0.1-0.2-0.2,0-0.6c0.3-0.5,0.5-0.8,0.7-0.9c0.2-0.1,0.6-0.1,1.1,0.1
		l0.1-0.2l-1.3-0.6l-1.5,3.1l0.2,0.1l0.1-0.3c0.1-0.2,0.2-0.2,0.4-0.1l2.8,1.4c0.2,0.1,0.2,0.2,0.1,0.4L26,39.8L26,39.8L26,39.8z"/>
</g>
<g>
	<path class="st5" d="M31,31.6l-2.2-2.2c-0.2-0.2-0.2-0.3,0-0.4c0.5-0.5,0.8-0.4,1.7,0.3l0.2-0.2L29.4,28L27,30.5l1.1,1.2l0.2-0.2
		c-0.6-0.8-0.7-1.2-0.4-1.7c0.2-0.2,0.3-0.3,0.5,0l2.2,2.2c0.1,0.2,0.1,0.3,0,0.4l-0.3,0.3l0.2,0.2l1.4-1.4l-0.2-0.2l-0.3,0.3
		C31.2,31.8,31.1,31.8,31,31.6L31,31.6z"/>
</g>
<g>
	<path class="st5" d="M32.2,30.8l1.5-1.1l-0.2-0.2l-0.2,0.2c-0.2,0.1-0.3,0.1-0.4,0L32,28.4l1.6-1.2l0.9,1.2
		c0.1,0.2,0.1,0.3-0.1,0.4L34.1,29l0.2,0.2l1.5-1.1l-0.2-0.2l-0.2,0.2c-0.2,0.2-0.3,0.1-0.4,0l-2-2.6c-0.1-0.2-0.1-0.3,0.1-0.4
		l0.2-0.2l-0.2-0.2l-1.5,1.1l0.1,0.2l0.3-0.2c0.2-0.2,0.3-0.2,0.4,0l0.8,1L31.6,28l-0.8-1c-0.1-0.2-0.1-0.3,0.1-0.4l0.2-0.2L31,26.2
		l-1.5,1.1l0.2,0.2l0.2-0.2c0.2-0.1,0.3-0.1,0.4,0.1l1.9,2.5c0.1,0.2,0.1,0.3-0.1,0.4L32,30.6L32.2,30.8L32.2,30.8z"/>
</g>
<g>
	<path class="st5" d="M36.2,27.9l3.1-1.6l-0.7-1.5l-0.2,0.1c0.2,0.7,0.2,1.1,0.1,1.4c-0.2,0.2-0.5,0.4-0.9,0.6s-0.5,0.2-0.6,0
		l-0.7-1.4h0.1c0.5-0.3,0.8-0.2,1.1,0.3l0.2-0.1L37,23.9L36.7,24c0.2,0.6,0.1,0.8-0.4,1.1h-0.1L35.6,24c-0.1-0.2,0-0.3,0.3-0.5
		c0.5-0.2,0.8-0.3,1.1-0.3c0.2,0.1,0.5,0.3,0.8,0.7l0.2-0.1l-0.7-1.3l-3,1.6l0.1,0.2l0.3-0.1c0.2-0.1,0.3-0.1,0.4,0.1l1.4,2.8
		c0.1,0.2,0,0.3-0.2,0.4L36,27.6L36.2,27.9L36.2,27.9z"/>
</g>
<g>
	<path class="st5" d="M43.6,24.5c0.3,0.2,0.8,0.3,1.2,0.2c0.9-0.2,1.3-0.7,1.2-1.6c-0.1-0.4-0.2-0.7-0.5-0.8
		c-0.3-0.2-0.7-0.2-1.1-0.3c-0.8-0.1-1.2,0-1.3-0.6c-0.1-0.4,0.1-0.7,0.7-0.8c0.7-0.1,1.2,0.2,1.6,1h0.2l-0.3-1.5h-0.2l-0.2,0.4
		c-0.3-0.2-0.7-0.3-1.1-0.2c-0.8,0.1-1.1,0.7-1,1.4c0.1,0.8,0.6,0.9,1.6,1c0.4,0.1,0.8,0.1,1,0.2s0.3,0.3,0.4,0.5
		c0.1,0.5-0.2,0.9-0.8,1c-0.7,0.1-1.3-0.3-1.6-1.2L43,23.3l0.3,1.7h0.2L43.6,24.5L43.6,24.5z"/>
</g>
<g>
	<path class="st5" d="M49,23.6l-0.2-3.2c0-0.3,0-0.3,0.2-0.3c0.7,0,0.9,0.3,1.1,1.4h0.2l-0.2-1.6L46.8,20v1.7H47
		c0.1-1,0.3-1.4,0.8-1.5c0.3,0,0.4,0,0.4,0.3l0.2,3.2c0,0.2-0.1,0.3-0.3,0.3h-0.4v0.3l2-0.1v-0.3h-0.4C49.1,23.9,49,23.8,49,23.6
		L49,23.6z"/>
</g>
<g>
	<path class="st5" d="M52.3,19.9h0.2l1.2,3.8c0.1,0.3,0.1,0.3,0.4,0.3h0.1v0.3l-1.7-0.1v-0.3h0.2c0.2,0,0.3,0,0.3-0.1s0-0.1,0-0.2
		l-0.2-0.8l-1.5-0.1l-0.2,0.4C51,23.3,51,23.5,51,23.6c0,0.2,0.1,0.3,0.4,0.3h0.2v0.3L50,24.1v-0.3l0,0c0.3,0,0.5-0.1,0.6-0.4
		L52.3,19.9L52.3,19.9z M52.8,22.6l-0.6-1.8l-0.8,1.7L52.8,22.6L52.8,22.6z"/>
</g>
<g>
	<path class="st5" d="M56.3,24.4l0.7-3.1c0-0.3,0.1-0.3,0.3-0.3c0.6,0.2,0.8,0.5,0.7,1.6h0.2l0.3-1.6l-3.4-0.8l-0.4,1.6h0.2
		c0.3-0.9,0.7-1.3,1.2-1.2c0.3,0.1,0.4,0.1,0.3,0.4l-0.7,3.1c-0.1,0.2-0.2,0.3-0.4,0.2L55,24.4l-0.1,0.3l1.9,0.5l0.1-0.3l-0.4-0.1
		C56.3,24.7,56.3,24.6,56.3,24.4L56.3,24.4z"/>
</g>
<g>
	<path class="st5" d="M57.6,25.4l3.3,1.3l0.7-1.5l-0.2-0.1c-0.4,0.6-0.7,0.9-1,0.9c-0.2,0-0.6-0.1-1-0.2c-0.4-0.2-0.5-0.2-0.4-0.5
		l0.5-1.4h0.1c0.6,0.2,0.7,0.5,0.5,1.1l0.2,0.1l0.6-1.8l-0.2-0.1c-0.2,0.6-0.5,0.7-1.1,0.4h-0.1l0.5-1.2c0.1-0.3,0.2-0.2,0.5-0.1
		c0.5,0.2,0.8,0.4,0.9,0.6c0.1,0.2,0.1,0.6,0,1.1l0.2,0.1l0.4-1.4l-3.2-1.2l0.2,0.2l0.3,0.1c0.2,0.1,0.3,0.2,0.2,0.4l-1.1,2.9
		c-0.1,0.2-0.2,0.2-0.4,0.2l-0.3-0.1L57.6,25.4L57.6,25.4z"/>
</g>
<g>
	<path class="st5" d="M65.9,27.2c0.4-0.5,0.9-0.8,1.4-0.9s1.1,0.1,1.5,0.5s0.7,0.8,0.7,1.4s-0.2,1.1-0.6,1.6s-0.8,0.8-1.3,0.9
		c-0.6,0.1-1.1,0-1.6-0.4s-0.7-0.9-0.7-1.5C65.3,28.1,65.5,27.6,65.9,27.2L65.9,27.2z M66.4,27.6c-0.8,1-0.9,1.8-0.3,2.3
		s1.3,0.3,2.2-0.7c0.8-1,0.9-1.7,0.3-2.3C68,26.4,67.3,26.6,66.4,27.6L66.4,27.6z"/>
</g>
<g>
	<path class="st5" d="M67.9,31.7l1.3,1.5l0.2-0.2l-0.3-0.3c-0.2-0.2-0.2-0.3,0-0.4l1.1-1v0.1c0.4,0.5,0.4,0.8,0,1.2l0.2,0.2l1.4-1.3
		l-0.2-0.2c-0.5,0.4-0.8,0.3-1.2-0.1v-0.1l1-0.9c0.2-0.2,0.3-0.1,0.5,0.2c0.3,0.4,0.5,0.7,0.6,1c0,0.2-0.1,0.6-0.5,1l0.2,0.2
		l1.1-1.1L71,28.8L70.8,29l0.2,0.2c0.2,0.2,0.2,0.3,0,0.4l-2.3,2.1c-0.1,0.2-0.3,0.1-0.4,0l-0.2-0.2L67.9,31.7L67.9,31.7z"/>
</g>
<g>
	<path class="st5" d="M77,37.4l-0.2,0.1l0.1,0.1c0.1,0.2,0.1,0.3-0.1,0.4l-0.3,0.3l-2.3,0.2l2-1.7c0.1-0.1,0.1-0.1,0.2-0.1
		s0.2,0,0.3,0.3l0.1,0.2l0.2-0.1l-0.6-1.5L76,35.7v0.2c0.1,0.2,0,0.3-0.1,0.4l-3,2.6L73,39l3-0.3l-2.4,2l0.1,0.2l3.7-0.4
		c0.4,0,0.5,0,0.7,0.3l0.2-0.1l-0.5-1.3l-0.2,0.1v0.1c0.1,0.3,0.1,0.4-0.1,0.5c-0.1,0-0.2,0.1-0.3,0.1l-2.3,0.2l2-1.7
		c0.1,0,0.1-0.1,0.2-0.1s0.2,0,0.3,0.2v0.1l0.3-0.1L77,37.4L77,37.4z"/>
</g>
<g>
	<path class="st5" d="M78.9,42.8V43l-3.3,2.3c-0.2,0.2-0.2,0.2-0.2,0.5v0.1L75.2,46l-0.4-1.7l0.3-0.1l0.1,0.2
		c0.1,0.2,0.1,0.3,0.2,0.3c0,0,0.1,0,0.2-0.1l0.6-0.4l-0.3-1.5l-0.5-0.1c-0.1,0-0.3,0-0.4,0c-0.2,0-0.2,0.2-0.2,0.5v0.2l-0.3,0.1
		l-0.3-1.5l0.3-0.1v0.1c0.1,0.4,0.2,0.4,0.6,0.5L78.9,42.8L78.9,42.8z M76.5,44l1.5-1l-1.8-0.3L76.5,44L76.5,44z"/>
</g>
<g>
	<path class="st5" d="M75.7,47c-0.3,0.3-0.4,0.7-0.4,1.2c0,0.9,0.5,1.5,1.4,1.4c0.4,0,0.7-0.2,0.9-0.4c0.2-0.3,0.3-0.6,0.4-1.1
		c0.1-0.8,0.2-1.2,0.7-1.3c0.4,0,0.7,0.3,0.7,0.8c0,0.7-0.4,1.2-1.2,1.5v0.2l1.5-0.1V49l-0.4-0.2c0.3-0.3,0.4-0.7,0.4-1.1
		c0-0.8-0.5-1.2-1.2-1.2c-0.8,0-1,0.5-1.2,1.5c-0.1,0.4-0.1,0.8-0.3,1c-0.1,0.2-0.3,0.3-0.5,0.3c-0.5,0-0.9-0.3-0.9-1
		c0-0.8,0.4-1.3,1.4-1.5v-0.2l-1.7,0.1v0.2L75.7,47L75.7,47z"/>
</g>
<g>
	<path class="st5" d="M75.8,50.1L75.6,52h0.3v-0.3c0-0.2,0.1-0.3,0.3-0.3l1.5,0.2l-0.3,2l-1.5-0.2c-0.2,0-0.3-0.1-0.2-0.4v-0.3h-0.2
		l-0.3,1.9h0.3v-0.3c0-0.2,0.1-0.3,0.3-0.3l3.1,0.4c0.2,0,0.3,0.1,0.2,0.4v0.3h0.3l0.3-1.9h-0.3v0.3c0,0.2-0.1,0.3-0.3,0.3l-1.3-0.2
		l0.3-2l1.3,0.2c0.2,0,0.3,0.1,0.2,0.3v0.3h0.3l0.3-1.9h-0.3v0.3c0,0.2-0.1,0.3-0.3,0.3l-3.1-0.4c-0.2,0-0.3-0.1-0.2-0.4V50
		L75.8,50.1L75.8,50.1z"/>
</g>
<g>
	<path class="st5" d="M75.1,55l-0.4,1.9l0.2,0.1l0.1-0.3c0-0.2,0.1-0.3,0.3-0.2l3,0.7c0.2,0,0.3,0.1,0.2,0.4l-0.1,0.3h0.2L79,56
		l-0.3-0.1l-0.1,0.3c0,0.3-0.1,0.3-0.3,0.3l-3-0.7c-0.2,0-0.3-0.1-0.2-0.4V55L75.1,55L75.1,55z"/>
</g>
<g>
	<path class="st5" d="M74.6,57.6l-0.7,1.5l0.2,0.1c0.2-0.5,0.5-0.6,1-0.3l2.2,1L73,60.8V61l3,1.4c0.5,0.2,0.6,0.4,0.4,0.9l0.2,0.1
		l0.7-1.5L77,61.8c-0.2,0.5-0.5,0.6-1,0.3l-2-0.9l3.8-0.8l0.5-1l-0.2-0.1v0.1c-0.1,0.3-0.2,0.4-0.4,0.4l-2.5-1.2
		c-0.5-0.2-0.6-0.4-0.4-0.9L74.6,57.6L74.6,57.6z"/>
</g>
<g>
	<path class="st5" d="M72.8,64.6l-0.2,0.3c-0.1,0.2-0.2,0.2-0.4,0.1L72,64.9c-0.5-0.3-0.6-0.8-0.2-1.3c0.5-0.7,1.2-0.7,2.3,0
		c1.1,0.7,1.4,1.4,1,2.1c-0.4,0.6-1,0.7-1.9,0.4l-0.1,0.2l1.4,0.9l0.1-0.2l-0.2-0.4c0.4-0.1,0.7-0.3,0.9-0.7
		c0.6-0.9,0.3-2.1-0.8-2.9c-1.1-0.7-2.3-0.5-2.9,0.5c-0.3,0.5-0.3,0.9-0.2,1.3l-0.6-0.1l-0.1,0.2l1.2,0.8c0.2,0.1,0.2,0.2,0.1,0.4
		l-0.2,0.3l0.2,0.2l1-1.6L72.8,64.6L72.8,64.6z"/>
</g>
<g>
	<path class="st5" d="M69.2,67.5l2.2,2.2c0.2,0.2,0.2,0.3,0,0.4c-0.5,0.5-0.8,0.4-1.7-0.3L69.6,70l1.2,1.1l2.4-2.5l-1.1-1.2L72,67.5
		c0.6,0.8,0.8,1.3,0.4,1.7c-0.2,0.2-0.3,0.3-0.5,0.1L69.6,67c-0.2-0.2-0.1-0.3,0-0.4l0.3-0.3l-0.2-0.2l-1.4,1.5l0.2,0.2l0.2-0.3
		C68.9,67.3,69,67.3,69.2,67.5L69.2,67.5z"/>
</g>
<g>
	<path class="st5" d="M68.7,70.1c0.4,0.5,0.6,1,0.5,1.6c0,0.6-0.3,1-0.7,1.4c-0.5,0.4-0.9,0.5-1.5,0.4c-0.5-0.1-1-0.4-1.4-0.9
		s-0.6-1-0.5-1.5c0-0.6,0.3-1.1,0.7-1.5c0.5-0.4,1-0.5,1.6-0.4C67.9,69.3,68.3,69.6,68.7,70.1L68.7,70.1z M68.1,70.5
		c-0.8-1-1.5-1.3-2.2-0.8c-0.6,0.5-0.6,1.3,0.2,2.3c0.8,1,1.5,1.3,2.2,0.8C68.9,72.3,68.9,71.6,68.1,70.5L68.1,70.5z"/>
</g>
<g>
	<path class="st5" d="M63.9,71.2l-1.4,0.7l0.1,0.2c0.5-0.3,0.7-0.1,1,0.4l1.1,2.2l-3.9-2.1l-0.2,0.1l1.4,3c0.2,0.5,0.2,0.7-0.2,1
		l0.1,0.2l1.5-0.7L63.2,76c-0.5,0.3-0.7,0.2-1-0.4l-0.9-2l3.5,1.9l1-0.5l-0.1-0.2l-0.1,0.1c-0.2,0.1-0.4,0.1-0.5,0l-1.2-2.5
		c-0.2-0.5-0.2-0.7,0.2-1L63.9,71.2L63.9,71.2z"/>
</g>
<g>
	<path class="st6" d="M62.2,38.9c0,0-0.4-1-1.1-1.6l-1-1.3c-0.2,0-1.4-2-2.6-2c-0.1-0.4-1.4-1.1-1.7-1.3c-0.2-0.1-0.9-0.3-1.4-0.6
		c-0.5-0.5-3.3-1-4.5-1.1c-1.4,0.3-0.8,0-1.9,0.4c-1.6,0.1-2.7,0.5-3.9,1.2c-0.8,0.6-1.1,1.2-1.9,1.9c-0.2,0.2-0.4,0.5-0.6,0.7
		c-0.5,0.7-0.3,0.5-0.8,1.2c-1,1.3-0.8,2.6-1.4,3.6l-0.1,0.9"/>
</g>
<g>
	<path d="M49.9,73.6c-1.4,0-5.6-0.2-9.6-2.1c-1.9-0.9-4-2.1-5.5-3.4h-0.1h0.1c0.3-0.2,0.6-0.4,1-0.6c1.5-0.9,3-1.8,4.4-2.6
		c0-0.8,0.2-1.3,0.4-2c0.1-0.2,0.1-0.4,0.2-0.6c0.2-0.6,0.1-1.3,0.1-2c0-0.3-0.1-0.7-0.1-1c0-0.6,2.3-1.2,2.8-1.3
		c-0.2-0.4-0.5-0.9-0.7-0.9c-1.7-0.5-2.4-2.5-2.7-3.7c-0.2-0.8-0.2-0.9-0.3-1c0,0,0-0.1-0.1-0.1c0,0-0.2-0.1-0.3-0.1
		c-0.5-0.2-1.3-0.4-1.7-0.9c-0.1-0.1-0.1-0.4-0.2-0.6v-0.1c-1.1-0.6-1.9-2.3-1.8-2.6c0-0.2,0.4-0.9,0.8-1.8l0.1-0.1
		c0.1-0.1,0.2-0.3,0.2-0.4l0,0l0,0c0,0,0-0.1,0.1-0.2c0-0.1,0.1-0.2,0.1-0.3c0.1-0.2,0.2-0.3,0.3-0.4c0.1-0.1,0.2-0.2,0.2-0.2l0,0
		l0,0c0,0,0-0.1,0.1-0.2c0.1-0.3,0.2-0.6,0.3-0.7c0,0,0.1-0.3,0.1-0.5s0.1-0.3,0.1-0.3c0.5-0.9,0.9-1.4,1.2-1.7
		c0.1-0.1,0.2-0.3,0.2-0.3c0.4-2.1,1.4-3.9,1.6-4l0.1,0.1c-0.2,0.1-1.1,1.9-1.6,4c0,0.1-0.1,0.2-0.2,0.3c-0.2,0.3-0.6,0.8-1.2,1.7
		c0,0,0,0.1-0.1,0.2c-0.1,0.4-0.1,0.5-0.2,0.5c-0.1,0-0.2,0.4-0.2,0.6c-0.1,0.2-0.1,0.2-0.1,0.3s-0.1,0.1-0.2,0.3
		c-0.1,0.1-0.2,0.3-0.3,0.4c0,0.1-0.1,0.2-0.1,0.3s0,0.2-0.1,0.2c0,0-0.1,0.2-0.2,0.4l-0.1,0.1c-0.3,0.6-0.8,1.5-0.8,1.7
		c0,0.3,0.7,2,1.8,2.5c0,0,0,0,0.1,0.2c0,0.1,0.1,0.4,0.1,0.5c0.3,0.4,1.2,0.7,1.7,0.9c0.2,0.1,0.3,0.1,0.4,0.2l0,0
		c0,0.1,0,0.1,0.1,0.1c0.1,0.1,0.2,0.2,0.3,1c0.3,1.1,1,3.1,2.6,3.6c0.3,0.1,0.7,0.9,0.8,1v0.1h-0.1c-0.8,0.2-2.8,0.7-2.8,1.2
		c0,0.3,0,0.7,0.1,1c0.1,0.7,0.2,1.4-0.1,2c-0.1,0.2-0.1,0.4-0.2,0.6c-0.3,0.7-0.5,1.2-0.4,2l0,0l0,0c-1.4,0.8-2.9,1.8-4.4,2.7
		c-0.3,0.2-0.6,0.4-0.9,0.6c1.5,1.2,3.6,2.5,5.5,3.3c4.8,2.3,10,2,10,2c7.8-0.3,13.9-3.4,18.1-9l-0.7-0.6c-0.5-0.5-1.1-1.1-1.6-1.6
		C65,61,63.9,59.8,63,59.2l0,0l-1.6-1.8c-0.2-0.1-1.4-0.7-1.5-0.9c0-0.1-0.4-0.6-0.4-0.8c0,0,0-0.1,0-0.4c0-0.2,0-0.6,0-0.6l0,0l0,0
		l-0.1-1.3l0.1-0.9l0.6-0.1l1.4-0.9l0,0c0.2,0,0.5-0.1,0.8-0.2c0.2-0.1,0.5-0.2,0.7-0.2l0.2-0.7c0.3-0.5,0.6-0.8,1-1.1
		c0.2-0.2,0.4-0.3,0.6-0.5c0,0,0.2-0.3,0.3-0.4c-0.1-0.1,0-0.3,0.2-0.6c-0.1,0-0.2,0-0.3-0.1c-0.3,0-0.4-0.1-0.4-0.2v-0.6
		c0-0.3-0.1-0.3-0.1-0.4c0-0.1-0.1-0.1-0.2-0.6s-0.2-0.6-0.4-0.7c-0.1,0-0.1-0.1-0.1-0.1l-0.1-0.3c0-0.1-0.1-0.1-0.2-0.2
		c0,0-0.1,0-0.1-0.1l0,0v-0.2L62.6,44l-0.4-0.4L63,42v-0.1c0.1-0.3,0.1-0.5,0.1-0.5s0,0-0.1,0s-0.1-0.1-0.1-0.1
		c0-0.1,0.1-0.2,0.2-0.2l0,0c0,0,0-0.1,0-0.2H63c0,0-0.1,0-0.1-0.1c0,0,0,0,0-0.1l0.1-0.4c0,0,0-0.3,0-0.5s0-0.2-0.1-0.3l0,0
		c0-0.1-0.4-0.7-0.6-0.8c-0.1-0.1-0.5,0-0.6,0.1v-0.1c0.1,0,0.5-0.2,0.7,0s0.5,0.8,0.6,0.9l0,0c0,0.1,0.1,0.1,0.1,0.3s0,0.5,0,0.5
		l0,0L63,40.8c0,0,0,0,0.1,0s0.1,0,0.1,0.1s0,0.2,0,0.2l-0.1,0.1L63,41.3l0,0c0,0,0.1,0,0.1,0.1c0.1,0.1,0,0.2-0.1,0.6v0.1l-0.8,1.6
		l0.3,0.3l0.7,0.2v0.3h0.1c0.1,0.1,0.2,0.1,0.3,0.2l0.1,0.3c0,0,0,0,0.1,0.1s0.3,0.2,0.4,0.8c0.1,0.4,0.1,0.5,0.1,0.5
		c0.1,0.1,0.1,0.1,0.1,0.4v0.6c0,0,0.2,0.1,0.3,0.1c0.2,0,0.3,0.1,0.4,0.1c0,0,0,0,0,0.1l0,0c-0.2,0.2-0.3,0.4-0.2,0.5
		c0,0,0,0-0.1,0.2c-0.1,0.1-0.2,0.2-0.2,0.2c-0.2,0.2-0.4,0.4-0.6,0.5c-0.4,0.3-0.8,0.6-1,1.1L62.9,51l0,0c-0.2,0-0.5,0.1-0.7,0.2
		c-0.3,0.1-0.6,0.2-0.8,0.2l-1.4,1l-0.5,0.1l-0.1,0.9l0.1,1.3c0,0.1,0,0.2,0,0.7c0,0.1,0,0.3,0,0.4c0.1,0.3,0.4,0.7,0.4,0.8
		c0.1,0.2,1.3,0.8,1.5,0.9l0,0l1.7,1.8c1,0.6,2,1.7,3.2,2.9c0.5,0.5,1,1.1,1.6,1.6l0.8,0.7l0,0c-2.3,3.2-5.3,5.6-8.7,7.1
		c-2.8,1.2-5.9,1.9-9.4,2C50.4,73.6,50.2,73.6,49.9,73.6z"/>
</g>
<path class="st5" d="M50,73.5L50,73.5L50,73.5c0.3,0.1,0.5-0.3,0.5,0"/>
<g>
	<path class="st5" d="M56.6,34.9c-0.1,0.2-0.3,0.5-0.5,0.5c-0.1-0.1-0.1-0.3-0.2-0.3c-0.2-0.1-0.3-0.3-0.3-0.6
		c0.1,0,0.1,0.1,0.2,0.2c0.2,0.2,0.4-0.1,0.6-0.2c0.6,0-0.2-0.9-0.2-1.1c0.2,0,0.6,0.8,0.6,1.1c0.1,0.1,0.6,0.2,0.6,0.4l0,0l0,0l0,0
		l0,0c-0.1,0-0.3,0.1-0.3,0.1v0.1c0-0.2-0.5-0.2-0.6-0.2H56.6L56.6,34.9z"/>
</g>
<g>
	<path class="st5" d="M42.2,52.9L42.2,52.9L42,53v-0.1h-0.1l0.7-0.3l0,0c0.1,0,0.9-0.2,1-0.2c0.2,0.2,0.3,0.1,0.7,0.1v0.1
		c0.3,0,1.3-0.3,1.5-0.1c0.1,0.1,0-0.2,0.3-0.1v0.1c0.1,0.1,0.3,0,0.5,0.1c0.1,0-0.1,0.1,0,0.1c0.7,0,1,0.1,1.7,0.1l-0.4,0.1l0,0
		v-0.1c-0.2,0-0.3,0.2-0.5,0.1c-0.2-0.1,0.1-0.2-0.1,0.1c-0.3,0.4-0.3,0-0.4,0.3c0,0.1-0.1-0.1-0.1-0.1c-0.1,0-0.2,0.2-0.3,0.1
		c-0.1-0.1,0-0.3-0.3-0.2c-0.1,0,0.2,0.2,0.1,0.3c-0.1,0.1-0.2-0.2-0.2-0.2H46c0-0.1,0.1-0.4-0.2-0.2c-0.2,0.1,0.1,0.2,0.1,0.2
		c0.1,0.3,0,0.3-0.1,0.1c0,0-0.1,0-0.1-0.1V53c-0.1-0.2-1.1,0.1-1.3,0.1c0,0,0-0.1-0.1,0s-0.5,0-0.5,0.2c0,0.1,0.2-0.1,0.2-0.1
		c0.1,0,0,0.1,0,0.1c0.1,0,0.2-0.2,0.3-0.1c0.4,0.1-0.4,0.4-0.5,0.3c0,0-0.1-0.3-0.2-0.2v0.1c-0.4,0.3,0.1-0.3,0-0.4
		c-0.2-0.3-0.2,0.5-0.5,0.3s0.3-0.1-0.2-0.1c-0.1,0,0-0.3-0.2-0.2c0.1,0.2,0.3,0,0.2,0L42.2,52.9L42.2,52.9z"/>
</g>
<g>
	<path class="st5" d="M42.5,50L42.5,50L42.5,50v-0.3c0.1,0.2,0.5,0.2,0.6,0.2s0,0,0,0.1l0.2,0.1c0,0,0,0.1,0.1,0.1
		c0.6,0.1,1.2-0.3,1.9-0.3c0.1,0-0.1,0.1,0.1,0.1c0.2-0.1,0.5,0,0.7,0c0.7-0.1,0.8-0.8,0.5-1.3c0-0.1,0,0-0.1,0
		c0-0.1-0.1-0.3-0.1-0.4h0.1c0,0.1,0.1,0.1,0.1,0.1c0.2,0.5,0.6,1,0.6,1.6l-0.1,0.1c-0.1,0.1-1.2,0.6-1.3,0.5c0,0,0.1,0,0-0.1
		c-0.2-0.1-1.1,0.5-1.2,0.4c0,0,0.1-0.1,0-0.1c-0.5-0.1-0.6-0.2-1.2-0.5l-0.1-0.1C43,50.4,42.9,50,42.5,50L42.5,50z"/>
</g>
<g>
	<path class="st5" d="M50.1,45.6l0.4-0.3c0.2-0.1,0.3-0.6-0.1-0.2c-0.1,0.1-1,0.2-0.4,0l0.4-0.3h-0.1c0,0,0.1-0.1,0-0.1
		C50.1,44.6,50,45,49.8,45c-0.3,0.1-1.2,0.2-1.3-0.3c-0.1-0.2,0.1-0.8-0.4-0.3L48,44.5c-0.4,0.1,0.2,0.3,0,0.4
		c-0.2,0.1-0.2-0.1-0.2-0.1c-0.2-0.1-0.8,0.1-0.7-0.2c0.1-0.1,1.7-0.8,1.9-0.7c0,0-0.1,0.1,0,0.1s0.3,0,0.4,0c0.1,0,0,0.1,0,0.1
		c0.3,0.1,0.7,0.2,0.9,0.3v0.1c0.1,0,0.2,0,0.3,0.1c0,0,0,0.1,0.1,0.1l0.3,0.1v0.1c0.4,0.2,0.1,0.1,0.1,0.4h0.1
		c0.1,0.2-0.2,0-0.2,0.1C50.8,45.4,50.4,45.7,50.1,45.6L50.1,45.6z"/>
</g>
<g>
	<path class="st5" d="M41.2,45.3C41.2,45.3,41.3,45.3,41.2,45.3c-0.1-0.1-0.2-0.1-0.3-0.1c0,0,0.1-0.1,0-0.1c-0.2,0-0.5,0.1-0.3-0.3
		c0.3-0.5-0.3,0.1-0.5,0s1-0.6,1.1-0.7c0.1,0,0.3-0.2,0.3-0.2c0.5-0.1,0.9-0.1,1.3,0V44h0.1v0.1c0,0,0.2,0,0.2,0.1
		c0,0,0,0.1,0.1,0.1s0.6,0.2,0.4,0.4c-0.3,0.3-0.2-0.4-0.5-0.1c-0.4,0.4-1.4,0.5-1.5-0.1c0-0.1,0.1-0.6-0.2-0.3
		c-0.6,0.6,0.6,0.7,0.3,0.8s-0.6-0.4-0.7-0.3c-0.2,0.2,0.2,0.2,0.2,0.2s0,0.1,0.1,0.1h0.2v0.1C41.8,45.3,41.6,45.4,41.2,45.3
		L41.2,45.3z"/>
</g>
<g>
	<path class="st5" d="M61.7,46.9v-0.2l0,0v-0.3h-0.1v-0.1h-0.1v-0.1h-0.1v-0.1h-0.1V46h-0.1h0.1v0.1h0.1v0.1h0.1v0.1h0.1v0.1h0.1
		v0.2h0.1C61.9,46.6,61.9,46.9,61.7,46.9L61.7,46.9z"/>
</g>
<g>
	<polygon class="st5" points="43.8,57.1 43.8,57 43.9,57 43.9,56.9 44,56.9 	"/>
</g>
<g>
	<path class="st5" d="M55.5,45.6c0-0.4-0.5-0.9-0.6-1.1c-0.4-0.5-0.1,0-0.1-0.1l-0.2-0.3h-0.1c0,0-0.2-0.2-0.2-0.3
		c-0.1,0-0.6-0.3-0.7-0.3c-0.1,0-0.2-0.5,0.1,0.1c0.2,0.6-0.2,0-0.3-0.1s-0.4-0.1-0.5-0.2c-0.1-0.1,0-0.1-0.1-0.1s-0.7-0.4-0.6-0.4
		c0.1-0.1,0.1,0.1,0.2,0.1c0.3,0.2,0.7,0.3,0.9,0.4c1,0.3-1.2-0.7-1-0.9c0.1-0.1,0.8,0.4,0.8,0.4c0.1,0,0,0,0,0.1
		c0.1,0.1,0.2,0.1,0.3,0.1s0.3,0.4,0.4,0.5c0.5,0.3,0.8,0.3,1.1,0.9c0,0,0.3,0.1,0.4,0.3C55.4,44.9,55.6,45.3,55.5,45.6L55.5,45.6
		L55.5,45.6z"/>
</g>
<g>
	<path class="st5" d="M53.6,44.4c-0.1-0.3-1.2-1.1-1.2-1.1c0.1-0.1-0.1,0,0,0.1c0.1,0,0.4,0.1,0.5,0.1c0.1,0.1-0.1,0.1,0.1,0.1
		C53.6,43.9,53.6,44.5,53.6,44.4L53.6,44.4z"/>
</g>
<g>
	<path class="st5" d="M53.4,44.6C53.3,44.5,53.4,44.5,53.4,44.6c-0.1-0.1-0.3-0.2-0.4-0.2l-0.1-0.2h-0.1c0,0-0.2-0.4,0.1-0.3
		c0.3,0.1,0,0.1,0.1,0.1l0.5,0.3C53.4,44.4,53.4,44.7,53.4,44.6L53.4,44.6z"/>
</g>
<g>
	<path class="st5" d="M53.6,41.6c0,0-0.9-0.7-1-0.7c-0.1-0.1-0.2-0.3,0.1-0.1c0.2,0.2,0.6,0.4,0.8,0.6c0.1,0.1,1.2,1,0.6,0.8
		C54.1,42.1,53.6,41.6,53.6,41.6L53.6,41.6z"/>
</g>
<g>
	<path class="st5" d="M52.8,41.5l-0.5-0.3c0,0-0.3-0.3-0.1-0.2c0.6,0.4,1.1,0.7,1.7,1.2c0.3,0.3,0.8,0.5,1.1,0.8
		c0.3,0.4-0.8-0.4-0.7-0.2c0,0.1,0.2,0.1,0.3,0.3s0.7,1.2,1.4,1.5c0.8,0.3,1.7,0.6,2.8,0.4c0.6-0.1,1.1-0.2,1.2,0.5
		c0.1,0.4-0.1,0.2-0.1,0.4c0,0.3-0.5-0.4-1.2-0.4c-0.6,0,0.4-0.2-0.2-0.2c-1.7,0-2.7-0.2-3.8-1.6c-0.8-1-1.9-1.6-2.3-1.9
		c-1.2-0.9,0.4,0.1,0.7,0.3c0.2,0.1,0.5,0.4,0.5,0.4c0.1,0,0.2,0.1,0-0.2C53.4,41.9,52.8,41.5,52.8,41.5L52.8,41.5z"/>
</g>
<g>
	<path class="st5" d="M53.4,42.9C53.4,42.9,53.4,42.8,53.4,42.9c-0.2-0.6-1.5-0.6-1.5-1.2c0.1,0,0.3,0.2,0.3,0.3
		c0.1,0,0.4,0.2,0.6,0.2c0,0,0.8,0.7,0.9,0.7c0.1,0.1,0.4,0.2,0.6,0.3c0.1,0.1,0.3,0.4,0.4,0.5l0,0c0.1,0.1,0.2,0.1,0.2,0.3
		C54.4,43.9,53.9,42.9,53.4,42.9L53.4,42.9L53.4,42.9z"/>
</g>
<g>
	<path class="st5" d="M59.5,46.3h-0.4L59,46.2v-0.1c0.1,0,0.3,0,0.4,0V46c-0.1-0.1-0.4-0.1-0.5-0.1c0-0.4,0.9,0.2,0.9,0.2v0.1
		c-0.1,0-0.2-0.1-0.3-0.1C59.5,46.1,59.5,46.2,59.5,46.3L59.5,46.3z"/>
</g>
<g>
	<path class="st5" d="M42.5,57c0.2,0.1,0.8,0.2,0.3,0H42.5L42.5,57z"/>
</g>
<g>
	<path class="st5" d="M43.3,53.1L43.3,53.1L43.3,53.1z"/>
</g>
<g>
	<path class="st5" d="M44.8,53.4c-0.4-0.2,0.5,0,0.2,0H44.8L44.8,53.4z"/>
</g>
<g>
	<path class="st5" d="M45.6,53.5c-0.1-0.1-0.2-0.3,0.1-0.2C45.7,53.4,45.6,53.6,45.6,53.5L45.6,53.5z"/>
</g>
<g>
	<path class="st5" d="M48.1,56.3L48.1,56.3L48.1,56.3z"/>
</g>
<g>
	<path class="st5" d="M43.3,53.1L43.3,53.1L43.3,53.1z"/>
</g>
<g>
	<path class="st5" d="M45.6,73.2C45.6,73,45.9,73,45.6,73.2C45.7,73.2,45.6,73.2,45.6,73.2L45.6,73.2z"/>
</g>
<g>
	<path class="st5" d="M43.9,45L43.9,45L43.9,45L43.9,45L43.9,45z"/>
</g>
<g>
	<path class="st5" d="M47.2,46.5c0-0.2-0.6-0.5-0.4-0.8c0,0,0,0,0.1,0c0,0.4,0.6,0.7,0.6,1C47.4,46.7,47.3,46.6,47.2,46.5L47.2,46.5
		z"/>
</g>
<g>
	<path class="st5" d="M47.1,46.9l-0.2-0.3c0.3,0,0.4,0.5,0.4,0.7h-0.1C47.3,47.2,47.2,46.9,47.1,46.9L47.1,46.9z"/>
</g>
<g>
	<path class="st5" d="M46.7,47.1c0,0,0-0.1,0-0.2l0,0v-0.1c0.2,0,0.7,0.8,0.5,0.8C47.1,47.6,46.7,47.1,46.7,47.1L46.7,47.1
		L46.7,47.1z"/>
</g>
<g>
	<path class="st5" d="M46.9,48c-0.1-0.1-0.2-0.2-0.2-0.4C47,47.7,47,47.9,46.9,48C47,48,46.9,48,46.9,48L46.9,48z"/>
</g>
<g>
	<path class="st5" d="M45.3,47.9c-0.1-0.1-0.3-0.1-0.3-0.3c0.1,0,1,0.4,0.8,0.7L45.3,47.9L45.3,47.9L45.3,47.9z"/>
</g>
<g>
	<path class="st5" d="M45.3,46.9c-0.1-0.1-0.4-0.1-0.4-0.3H45l0.1,0.1l0,0h0.2c0,0.3,1,0.9,0.8,1c-0.1,0-0.2-0.1-0.3-0.2
		c-0.2,0,0.1,0.2,0,0.3l0,0l0,0h-0.1c0-0.2-1-1-0.9-1c0.2-0.1,0.7,0.4,0.9,0.4C45.8,47.4,45.3,46.9,45.3,46.9L45.3,46.9z"/>
</g>
<g>
	<path class="st5" d="M45.7,46.9L45,46.3c0.3-0.3,1.4,0.9,1.4,1.4C46.3,47.7,45.8,47,45.7,46.9L45.7,46.9z"/>
</g>
<g>
	<path class="st5" d="M45.6,46.4c-0.2-0.2-0.4-0.3-0.4-0.3s-0.1-0.3,0-0.2c0.4,0.3,1.1,0.8,1.1,1.4c0,0.2-0.2-0.2-0.2-0.3
		C46.1,46.8,45.6,46.4,45.6,46.4L45.6,46.4z"/>
</g>
<g>
	<path class="st5" d="M45.8,46l-0.4-0.3c0,0-0.2-0.4,0-0.2c0.4,0.3,0.8,0.6,1.1,1.1C46.6,46.9,45.8,46.1,45.8,46L45.8,46z"/>
</g>
<g>
	<path class="st5" d="M45.8,45.5c0,0-0.5-0.2-0.5-0.4c0.4,0,0.8,0.6,1.1,0.6c0,0,0-0.1,0-0.2l0,0c-0.1-0.1-0.2-0.1-0.2-0.3h0.1
		c0.2,0.2,0.3,0.4,0.4,0.6l0,0c0,0,0,0,0,0.1c-0.1,0-0.1-0.2-0.3-0.2c0,0.1,0.2,0.3,0.3,0.4l0,0c0,0,0.1,0.1,0.1,0.2
		c-0.1,0.1-0.1-0.2-0.2-0.2C46.5,46.1,45.9,45.7,45.8,45.5L45.8,45.5C45.9,45.6,45.8,45.5,45.8,45.5L45.8,45.5z"/>
</g>
<g>
	<path class="st5" d="M48.2,44.9c-0.2-0.2,0.3,0,0.2,0C48.3,44.9,48.2,44.9,48.2,44.9L48.2,44.9z"/>
</g>
<g>
	<path class="st5" d="M51.2,45.9C51.1,45.9,51.2,45.8,51.2,45.9c-0.4-0.2-0.2-0.1-0.1-0.5h0.2C51.3,45.7,51.4,45.7,51.2,45.9
		L51.2,45.9z"/>
</g>
<g>
	<path class="st5" d="M45,43.3L45,43.3L45,43.3z"/>
</g>
<g>
	<path class="st5" d="M39.8,45.2C39.8,45.4,39.6,45.1,39.8,45.2L39.8,45.2z"/>
</g>
<g>
	<path class="st5" d="M36.9,46.5c0-0.2,0.2-0.5,0.3-0.6l0,0c0,0.1,0,0.2,0,0.3c0.1,0,0.2,0,0.2,0c0,0.1-0.1,0.1-0.1,0.3
		C37.1,46.4,37.1,46.5,36.9,46.5L36.9,46.5z"/>
</g>
<g>
	<path class="st5" d="M36.4,49.1C36.4,49.1,36.4,49.1,36.4,49.1C36.4,49.1,36.4,49.1,36.4,49.1C36.4,49.1,36.3,49.1,36.4,49.1z"/>
	<path class="st5" d="M36.4,49C36.4,49,36.4,49,36.4,49C36.3,49,36.3,49,36.4,49z"/>
	<path class="st5" d="M39.8,49.6c-0.1-0.2,0.3-0.8,0.2-0.9l-0.3,0.5c-0.2,0.1,0.1-0.5,0-0.6c0-0.1-0.2,0.1-0.2,0l0.1-0.5h0.1
		c0.1-0.2-0.1-0.2-0.1-0.2c0-0.2,0.1-0.5,0.2-0.6c0.2-0.3,0-0.3-0.2-0.1c-0.2,0.2-0.2-0.1-0.3,0.1c-0.1,0.1,0-0.3,0-0.4
		c0.1-0.3,0-0.1,0.1,0c0.1,0.1,0.4-0.4,0.4-0.4c-0.1-0.2-0.3,0-0.3,0c-0.1-0.2,0.4-0.2,0.2-0.4C39.6,45.9,39.1,47,39,47
		c-0.2,0.1,0.3-0.8,0.3-0.8c0.1-0.3,0-0.2,0.3-0.3c0.1,0,0.1-0.5,0.1-0.6c-0.1-0.3-0.6,0.9-0.6,0.9c-0.4,0.8,0.1-0.6,0.1-0.7
		s0.2-0.4,0.2-0.4c0-0.3,0-0.3-0.1-0.2v0c-0.3,0-0.6,0-0.6,0.3c-0.3,0.4-0.4,1.1-1,1.1l-0.1,0.1h0.3c0.7,0,1-1.3,1.4-1.4
		c0,0,0,0.1-0.1,0.1c-0.4,0.2-0.4,0.9-0.6,1.2c-0.1,0.3-0.7,0.5-1,0.6c-0.7,0.2,0.1-0.1-0.1-0.2c-0.3-0.1-1.7,0.9-1.6,1.3
		c0,0,0.2-0.3,0.3-0.4c0.2-0.2,0.4-0.2,0.6-0.3c0-0.1-0.1-0.1,0-0.1c0.1,0,0.7-0.1,0.6,0c-0.1,0.3-1.4,0.4-1.3,0.9l0.6-0.4
		c0.4,0,0.6-0.1,0.9-0.2c0-0.1,0.7-0.5,0.7-0.5c0.1,0.4-1.3,1-1.4,1c-0.2,0.1-0.5,0.4,0,0.2l-0.2,0.2c0,0-0.4,0.1-0.2,0.2
		c0.4,0.2,1.2-0.5,1.4-0.7c0.1-0.1,0.4-0.2,0.5-0.3c0.1-0.2,0-0.2,0.3-0.3c0,0,0.2-0.3,0.2-0.2c0.1,0.5-2.2,1.8-2.5,2
		c0,0.1,0.1,0.1,0.1,0.1c0.1-0.2,0.1,0,0.1,0c0.1,0,0.3,0,0.4,0c0.4,0.2-0.5,0.1-0.3,0.4h0.1v0.1l0.3,0.1c0.1-0.2,0.3,0,0.5,0.1
		c0.1,0,0.1,0.1,0.1,0.1s0.5,0.1,0.3,0.1c-0.1,0-0.3,0-0.4,0c0-0.1,0-0.1,0-0.1l-0.3,0.4c0.2-0.1,0.1,0,0.5,0.2l-0.1,0.2
		c0.1,0.1,0.2,0.4,0.3,0.6c0.1,0.1,0.6,0.4,0.8,0.4c0.2,0.1,0.3,0.2,0.3,0.2h0.3c0.3,0.2,0.2,0.1,0.4,0.3c0.1,0.1,0.1-0.2,0.1-0.3
		c0.2-0.3-0.2-0.2-0.2-0.2c0-0.1,0.2-0.5,0.2-0.5c0.2-0.5-0.2,0.2-0.1-0.3c0.1-0.3-0.1-0.1-0.1-0.2c-0.1-0.2,0.5-0.8,0.1-0.6
		c-0.2,0.1,0-0.4,0.1-0.5C40.1,49.6,39.8,49.6,39.8,49.6z"/>
	<path class="st5" d="M39.2,44.8c0-0.2,0.1-0.2,0.1-0.3c0,0-0.1,0-0.2,0c0-0.1,0-0.2,0-0.3c-0.1,0.1-0.3,0.4-0.3,0.6
		C38.9,44.8,38.9,44.7,39.2,44.8z"/>
</g>
<g>
	<path class="st5" d="M37.5,45.3c0,0,0-0.2,0.2-0.5c0.8-0.9,0.5-1.9,1-3c0,0,0.6-0.6,0.3-0.1c-0.4,0.8-0.4,1.7-0.7,2.6
		c0,0.1-0.1,0.2-0.1,0.2c0.6-1,0.7-2,1.2-3c0,0-0.3,0.1-0.4,0.2c-0.4,0.8-0.1,1.7-0.5,2.5c-0.1,0.3-0.4,0.6-0.4,0.9
		c0,0.1-0.2,0.9-0.3,1c-0.3,0.2,0.4-1.2-0.1-0.5V46c0-0.2,0-0.6,0.1-0.8c0.1-0.1,0-0.2-0.1-0.1c-0.1,0.2-0.1,0.3-0.2,0.5V45.3
		L37.5,45.3z"/>
</g>
<g>
	<polygon class="st5" points="35.9,47.7 35.9,47.5 36,47.5 36,47.6 	"/>
</g>
<g>
	<path class="st5" d="M60.7,38.8c0-0.3-0.4-0.9-0.6-1c-0.2-0.1,0,0-0.1-0.1s-0.6-0.2-0.8-0.3s0.4-0.1,0.5-0.1c0,0,0,0.1,0.1,0.1H60
		c0,0,0,0,0,0.1c0,0,0.2,0,0.3,0.1s0.3,0.4,0.5,0.6C60.9,38.4,60.7,39.1,60.7,38.8L60.7,38.8z"/>
</g>
<g>
	<path class="st5" d="M58.8,35.9c0-0.2-0.3-0.6,0.1-0.2c0.1,0.1,0.2,1,0.1,1.1c0,0.2-0.5,0-0.3,0.3s0.7,1.1,0.5,1.4
		c-0.1,0.1-0.2,0.2-0.3,0.2s0.1-0.9,0-1.1c0-0.1-0.1,0-0.1,0c-0.1-0.2-0.3-0.7-0.3-0.8v-0.7C58.6,35.7,58.9,36.3,58.8,35.9
		L58.8,35.9z"/>
</g>
<g>
	<path class="st5" d="M58.3,36c-0.1-0.3-0.1,0.5-0.2,0.5c-0.3,0-0.1-0.4-0.2-0.7l-0.2-0.6c0-0.1,0.1-0.2,0.1-0.3H58
		c0.2,0.4,0.6,0.9,0.6,1.3c0,0.1,0,0.4-0.1,0.4C58.2,36.7,58.4,36.2,58.3,36L58.3,36z"/>
</g>
<g>
	<path class="st5" d="M59.2,35.6c-0.1-0.1-0.2-0.1-0.3-0.2c0-0.1,0-0.2,0.1-0.2c0.3,0.2,0.6,1.5,0.6,1.5c0-0.5-0.2,0.5-0.2-0.1
		C59.5,36.2,59.4,36,59.2,35.6L59.2,35.6z"/>
</g>
<g>
	<path class="st5" d="M58.7,35.1c-0.1,0-0.2,0-0.2,0c0-0.1,0-0.3-0.1-0.3s-0.3,0.1-0.4,0c0,0,0.4-0.1,0.5-0.1
		C58.4,34.7,58.6,34.9,58.7,35.1L58.7,35.1z"/>
</g>
<g>
	<path class="st5" d="M59.4,41.8L59.4,41.8c-0.8-0.3,0.2-0.3,0.3-0.2C60,41.8,59.5,41.8,59.4,41.8L59.4,41.8z"/>
</g>
<g>
	<path class="st5" d="M55,40.8c-0.1-0.1-0.4-0.4,0-0.2c0.3,0.2,0.7,0.1,0.9,0.4c0.1,0,1.2-0.1,0.5,0.1C55.8,41.3,55.4,41.3,55,40.8
		L55,40.8z"/>
</g>
<g>
	<polygon class="st5" points="57.6,37 57.6,36.8 57.6,36.7 57.6,36.7 57.7,36.7 57.7,37 	"/>
</g>
<g>
	<path class="st5" d="M57.2,35c0.4,0.5,0.5,1.4,0.7,2H58c0.1,0,0,0.2,0,0.3c0,0,0.1,0,0.1,0.1c0.1,0.2,0.2,0.8-0.2,0.7
		c-0.1,0,0.1-0.6,0-0.6c-0.3,0-0.4,0.4-0.6,0.3c-0.1-0.1,0.4-0.5,0.1-0.6c-0.2-0.1-0.2,0.6-0.4,0.4c-0.1,0,0-0.2,0-0.2
		c0.4-0.1,0.3-1.6,0.2-1.9c-0.1-0.2-0.3-0.2-0.3-0.4l0,0l0,0L57.2,35L57.2,35z"/>
</g>
<g>
	<path class="st5" d="M55,33.1c-0.1-0.1-0.3-0.3-0.3-0.4l0,0l0,0c0.1-0.1,0.3,0.1,0.4,0.1l0,0l0,0V33c0.1,0.2,0.5,0.3,0.5,0.7l0,0
		c0,0.1,0,0.4-0.1,0.4c-0.1-0.1,0-0.6-0.2-0.7C55.2,33.3,55,33.4,55,33.1L55,33.1z"/>
</g>
<g>
	<path class="st5" d="M55.4,34.3l-0.8-1C55,33.3,55.4,33.9,55.4,34.3L55.4,34.3z"/>
</g>
<g>
	<path class="st5" d="M39.8,41.9l0.2-0.5c-0.3-0.1,0-0.6,0.4-0.6s-0.4,0.3-0.3,0.6c0.1,0.3,0.1-0.1,0.4-0.2
		C40.4,41.1,39.7,42.1,39.8,41.9L39.8,41.9z"/>
</g>
<g>
	<path class="st5" d="M54.7,41.7C54.7,41.7,54.7,41.6,54.7,41.7c-0.1-0.1-0.2-0.1-0.3-0.1l-0.1-0.1c-0.5-0.5-1.1-0.9-1.6-1.4
		l0.3,0.1v0.1c0.4,0.1,1.5,1.1,1.7,1.3L54.7,41.7L54.7,41.7L54.7,41.7C55.2,41.7,55,41.7,54.7,41.7L54.7,41.7z"/>
</g>
<g>
	<path class="st5" d="M53.9,41.5c-0.5-0.3-0.7-0.7-1.4-1.1c0,0-0.2-0.3,0-0.2v0.1C53.1,40.4,53.9,41.5,53.9,41.5L53.9,41.5z"/>
</g>
<g>
	<path class="st5" d="M40,41.4L40,41.4L40,41.4z"/>
</g>
<g>
	<path class="st5" d="M53.4,40L53.4,40l-0.2-0.1v-0.1c-0.2,0-1-0.6-1-0.6c0.2-0.1,0.6,0.4,0.9,0.4v0.1l0.3,0.1V40
		c0.1-0.1,1.8,1.3,1.7,1.4C54.5,41.4,54,40.2,53.4,40L53.4,40z"/>
</g>
<g>
	<path class="st5" d="M53.4,39.5L53.4,39.5L53.4,39.5L53.4,39.5c-0.4-0.1-0.9-0.4-1.2-0.6c-0.2-0.1,1,0.3,1.1,0.3v0.1
		c0.5,0,1.1,0.6,1.8,0.7v0.1c0,0,0.2,0,0.1,0C54.5,40.2,54.1,39.8,53.4,39.5L53.4,39.5z"/>
</g>
<g>
	<path class="st5" d="M52.6,40C52.9,40,52.5,40,52.6,40L52.6,40z"/>
</g>
<g>
	<path class="st5" d="M53.8,39.1c0,0-0.1,0-0.1-0.2c0.1-0.2,0-0.1,0-0.1c0.1-0.5,0.5,0.3,0.6,0.3s0.2,0,0.3,0.1c0,0,0.4,0.5,0.3,0.5
		C54.3,39.8,54.2,39.4,53.8,39.1L53.8,39.1z"/>
</g>
<g>
	<path class="st5" d="M52.5,38.6H53v0.1l0.5,0.3l-0.1,0.1c-0.3-0.1-0.3-0.3-0.7-0.4C52.7,38.5,52.4,38.6,52.5,38.6L52.5,38.6z"/>
</g>
<g>
	<path class="st5" d="M39.5,41.4c0-0.1,0.1-0.4,0.3-0.4L39.5,41.4L39.5,41.4z"/>
</g>
<g>
	<path class="st5" d="M53.6,36.8L53.6,36.8L53.6,36.8z"/>
</g>
<g>
	<path class="st5" d="M52.9,35.6L52.9,35.6L52.9,35.6z"/>
</g>
<g>
	<path class="st5" d="M45.1,34.1L45.1,34.1L45.1,34.1z"/>
</g>
<g>
	<path class="st5" d="M54.3,32.9l-0.4-0.5c-0.4,0,0.4,0,0.4,0.2C54.3,32.9,54.5,33.1,54.3,32.9L54.3,32.9z"/>
</g>
<g>
	<path class="st5" d="M56.6,37.4c0,0,0-0.1,0.1-0.2c0.4-0.4,0.5-1,0.5-1.5l0,0l0,0C57.6,36.2,57.2,37.4,56.6,37.4L56.6,37.4z"/>
</g>
<g>
	<path class="st5" d="M56.4,37.1c0.3-0.2,0.2-1.1,0.2-1.5c0,0,0,0,0.1,0c0.3,0.4,0.2,1,0,1.4S56.3,37.2,56.4,37.1L56.4,37.1z"/>
</g>
<g>
	<path class="st5" d="M55.7,40.3c0.1-0.2,0.7-0.1,1-0.4c0.3-0.4,0.4-0.4,0.5-0.9c0,0,0.7-0.2,0.8-0.3c0.2-0.1,0.2-0.4,0.4-0.4
		c0,0-0.1,0.5-0.5,0.6c-0.3,0.1-0.5,0.1-0.7,0.4c-0.3,0.5-0.5,1-1.2,1C55.6,40.3,55.7,40.3,55.7,40.3L55.7,40.3z"/>
</g>
<g>
	<path class="st5" d="M56,39.8L56,39.8c-0.1-0.1,0.5-0.2,0.8-0.5C57,39,57,38.9,57,38.9c0.1,0.4-0.3,0.8-0.7,0.8
		C56.1,39.8,56,39.8,56,39.8L56,39.8z"/>
</g>
<g>
	<path class="st5" d="M55.8,46.9c0-0.2-0.3-0.9-0.2-0.2C55.6,46.8,55.7,47.2,55.8,46.9L55.8,46.9z"/>
</g>
<g>
	<path class="st5" d="M56.9,34.2c0,0.2,0.4,0.4,0.6,0.4C57.5,34.4,56.9,34.4,56.9,34.2L56.9,34.2z"/>
</g>
<g>
	<path class="st5" d="M62.9,40.3c0.1-0.1,0-0.6-0.1-0.7C62.6,39.7,63.1,40.1,62.9,40.3L62.9,40.3z"/>
</g>
<g>
	<path class="st5" d="M59.6,36.1c0,0.2,0.4,0.4,0.6,0.4C60.2,36.3,59.6,36.3,59.6,36.1L59.6,36.1z"/>
</g>
<g>
	<path d="M58.8,43.9C58.8,43.9,58.7,43.9,58.8,43.9C58.7,43.8,58.7,43.9,58.8,43.9C58.7,43.9,58.8,43.9,58.8,43.9z"/>
	<path d="M56.1,41.9L56.1,41.9C56.1,42,56.1,41.9,56.1,41.9z"/>
	<path d="M62.8,41.6c0.1,0.1,0-0.3,0-0.6c0,0,0,0,0,0.1C62.7,41.2,62.6,41.4,62.8,41.6z"/>
	<path d="M57.3,44.6C57.1,44.6,57.4,44.5,57.3,44.6c-0.1-0.1-0.4-0.1-0.5-0.1s0.1,0,0-0.1c-0.1,0-0.8-0.2-0.5-0.3
		c-0.1,0.1,1.9,0,2.1,0c-0.1,0-0.1,0-0.1,0V44l-0.1-0.1c0,0,0.2,0-0.1-0.1s-1.3-0.1-1.6-0.1c0.1-0.1-0.7-0.2-0.9-0.3s0.1,0,0-0.1
		c-0.1,0-0.4-0.1-0.5-0.2C55,43,55,42.9,54.9,43s0.8,0.6,0.9,0.7c0.3,0.1,1.6,0.2,2,0.2s0,0.1,0,0.1s0.5,0,0.1,0.1
		c-0.5,0-1.6,0-1.8-0.1s0.2,0,0-0.1s-0.4,0.2-0.6,0.1s0-0.1-0.1-0.1s-0.2,0-0.3-0.1c0,0,0-0.1-0.1-0.1s-0.4-0.2-0.3-0.1
		c0,0.1,0.6,0.4,0.7,0.5c0.1,0,0,0.2,0.1,0.2c0.2,0.1,1.4,0.3,1.1,0.4c-0.2,0-0.5-0.2-0.7-0.1c-0.2,0.1,0.7,0.3,0.7,0.4
		c0.1,0.1,0.9-0.1,0.9-0.1v-0.1c0.4,0,1.6-0.5,1.6-1c0-0.4-0.1,0-0.1,0C59,44.2,57.6,44.6,57.3,44.6z"/>
	<path d="M59,43.7L59,43.7C59,43.7,59,43.8,59,43.7L59,43.7z"/>
	<path d="M59.2,47.1C59.2,47,59.2,47,59.2,47.1C59.2,47,59.2,47,59.2,47.1C59.2,47,59.2,47,59.2,47.1z"/>
	<path d="M50.2,62.3L50.2,62.3L50.2,62.3L50.2,62.3z"/>
	<path d="M59,46.9c0,0-0.1,0-0.3,0C58.8,46.9,58.9,46.9,59,46.9z"/>
	<path d="M60.3,47.3L60.3,47.3C60.3,47.3,60.3,47.2,60.3,47.3L60.3,47.3z"/>
	<path d="M57,47.5c-0.1-0.2-0.2-0.4-0.2-0.7h-0.1c-0.1-0.1,0.7,0,1.3,0h-0.1c-0.3,0,0.1-0.1,0-0.1s-0.4,0-0.5,0s0-0.1,0-0.1
		s-0.6-0.1-0.4-0.1c0.2-0.1,0.2,0.2,0.5,0s-0.2-0.1-0.3-0.1s0.1,0,0-0.1c-0.1,0-0.2,0-0.5-0.1s0.9-0.1,1.1-0.1h-0.1
		c0,0,0.1-0.1,0-0.1s-0.3,0-0.3,0c-0.1,0,0.3,0,0-0.1c-0.7-0.1-0.9-0.1-1.5-0.2c-0.1,0,0.1,0,0-0.1c-0.6-0.1-0.2,0.5,0,0.4
		s0.4,0.1,0.2,0.2c-0.2,0.1,0.1,0.5,0.2,0.6c0.1,0,0.1,0.1,0.1,0.1l0,0c0.3,0.1,0.2,0,0.3,0.3c0.1,0.1,0.1-0.2,0.1,0s0,0.4,0.1,0.5
		c0,0,0,0,0,0.1C57,48,56.9,47.6,57,47.5z"/>
	<path d="M59.1,46.9L59.1,46.9L59.1,46.9L59.1,46.9c0,0.1,0,0.1,0.1,0.1C59.2,47,59.2,46.9,59.1,46.9z"/>
	<path d="M58.4,47.1C58.6,47.1,59.2,47.2,58.4,47.1l0.1-0.2c-0.2,0-0.4,0.1-0.5,0.3C58.2,47.2,58.3,47.1,58.4,47.1z"/>
	<path d="M58.5,46.9L58.5,46.9c0.1,0,0.2,0,0.2,0C58.6,46.9,58.5,46.9,58.5,46.9L58.5,46.9z"/>
	<path d="M57.6,47.2c0,0.9,1.5,1.1,2.1,0.6v-0.1c-0.2,0-0.8,0.4-0.9,0.3v-0.1c-0.2,0-0.9-0.2-0.7-0.3c0.3-0.2,0.7,0,1,0l0.1-0.1
		c-0.2-0.1-0.4,0.1-0.5,0v-0.1c-0.1,0-0.6-0.1-0.7-0.1c0-0.1,0-0.1,0-0.1C57.9,47.2,57.7,47.2,57.6,47.2L57.6,47.2z"/>
	<path d="M73.8,49.7c0-13.3-10.8-24-24-24c-13.3,0-24,10.8-24,24c0,0.4,0,0.8,0,1.2c0.6,12.7,11.2,22.8,24,22.8
		c2.5,0,4.9-0.4,7.2-1.1c0.3-0.1,0.7-0.2,1-0.3c0.4-0.2,0.8-0.3,1.2-0.5c0.3-0.1,0.6-0.2,1-0.4l0.8-0.5c1-0.5,1.9-1.1,2.8-1.7l1-0.6
		c0.2,0,1.7-1.3,1.7-1.5c0.2,0,0.6-0.4,0.6-0.6c0.4,0,0.5-0.7,0.8-0.7c0-0.1,0.9-1.2,1-1.2v-0.2l0,0C71.9,60.3,73.8,55.2,73.8,49.7z
		 M73.3,51.5c0,0.1,0,0.2,0,0.3c-0.1,0.6-0.1,1.2-0.2,1.8l0,0c-0.7,3.9-2.3,7.4-4.6,10.4c-1.3-1.2-7.2-7.8-8.3-7.8v-0.1h-0.1
		c0-0.6-0.8-1.1-0.2-2.1h-0.1c0-0.2,0.1-0.7-0.3-0.7c0-0.3,0.1-0.5,0.1-0.8h0.1c0,0.4,0.2,0.3,0.3,0.5c0.2-0.3,0.3-0.6,0.7-0.7v0.1
		c0.1,0,0.4-0.5,0.4-0.6c0.3-0.1,0.6-0.2,0.9-0.3v0.1c0.5,0,0.6-0.1,1.1-0.2v-0.3v-0.3c0.1-0.6,0.8-0.5,0.8-0.8
		c-0.2,0,0.2-0.2,0.2-0.3c0.3-0.1,0.5-0.7,0.6-0.9s0.1,0.1,0.2,0c0.1-0.2,0.3-0.6,0.3-0.8v-0.1v-0.1c-0.3,0-0.4,0-0.6-0.1
		s0-0.4,0-0.5s-0.1,0.1-0.1,0c0-0.3,0.1-0.9-0.3-1c-0.1,0,0.1-0.2-0.1-0.1c0.5,1.2,0.3,1.5-0.4,2.3c-0.2,0.2,0.3-0.5,0.4-0.7
		s0.1-0.9,0-1.1H64c0-0.2,0-0.3-0.1-0.4c0.1-0.3,0.1-0.4,0.3-0.4c0-0.1,0.1-0.4,0.1-0.5s-0.5-0.3-0.5-0.4c0-0.1,0-0.6-0.1-0.6
		s-0.3,0.1-0.3,0.1c-0.1-0.1,0-0.2,0-0.2c-0.3-0.6-0.8,0.3-1-0.8c-0.1-0.4-0.1-0.3,0-0.5s-0.2,0.2-0.2,0s0.4-0.5,0.3-0.6
		c0-0.2-0.2,0.1-0.2,0.1c-0.1,0,0.1-0.6,0.2-0.7c0.2-0.3-0.1-0.3-0.1-0.3c0-0.3,0-0.5,0.2-0.7c0.1-0.1,0.2-0.1,0.2,0
		c0-0.2-0.1-0.3-0.1-0.3c-0.1,0-0.2,0.3-0.3,0.3s0.1-0.4,0.1-0.5c0-0.2-0.3,0.2-0.3,0.1c-0.1-0.1,0.2-0.3,0.2-0.4
		c0-0.1-0.1-1-0.2-1.1c-0.2-0.3-0.3,1.3-0.5,1.1s0.5-1.1-0.1-1.7c0,0-0.1,0-0.1-0.1c-0.1-0.3,0-0.4-0.3-0.5c-0.2-0.1,0-0.1-0.1-0.1
		c0,0-0.3-0.1-0.4-0.2c-0.1-0.1-0.1-0.4-0.3-0.2c-0.1,0.1-0.2,0.1-0.2,0.1c0.1,0.1-0.1,0.1,0,0l0,0c0,0-0.2,0-0.2-0.1
		c0,0,0.1-0.2,0-0.1c-0.2,0.1,0,0.2,0,0.3c0.1,0-0.2,0,0,0.1c0.7,0.3,1,0.7,1.1,1.4c0,0.1,0.1-0.1,0.1,0s-0.7,1.1-0.9,1
		s0.1-0.3,0.2-0.4c0.2-0.6,0-1-0.5-1.2v-0.1c-0.1,0.1,0.2,0.3,0.3,0.4c0.1,0.1,0.2,0.5,0.1,0.7c-0.1,0.2-1.6,1.2-1.9,1.2
		c-0.1,0,0,0-0.3-0.1c-0.2-0.1,0.5-0.2,0.5-0.2c0.2,0,1.7-1.1,1-1.3c-0.2-0.1-0.2,0.5-0.5,0.8C58.9,40.1,58,40,57.8,40
		c-0.3-0.1-0.3,0-0.1,0.1c1,0.5-0.8,0.6-0.6,1c0.2,0.3,0.5-0.4,0.7-0.4c0.3,0-0.3,0.3,0.1,0.2c0.2-0.1,0.2,0,0.5,0s1.1-0.2,1.4-0.5
		c0.1-0.1,0.1-0.1,0.1-0.1l0,0c0.1,0,0.2,0,0.6-0.2c0.4-0.1,1.2,0,1.4,0.2c0.1,0.1,0.1,0.1,0.1,0.1s0,0,0,0.1c0.1,0.1,0.2,1.1,0,0.7
		c0,0-0.1-0.3-0.1-0.4l-0.3-0.1v-0.1c0,0-0.4-0.1-0.5-0.1c0,0,0.5,0,0-0.1c-0.5,0-1.5,0.5-2,0.6c-0.4,0.1-0.5,0-0.6,0.1
		s-0.1,0.1-0.3,0.2s-0.2-0.1-0.3,0c-0.2,0.1-0.9,0.1-0.8,0.2c0.3,0.3,1.8,0,2.1-0.1c0.4-0.1,0.2,0.1,0.3,0.1s0.6-0.1,0.7-0.1
		c0.1,0-0.1,0,0,0.1c0.2,0.1,0.8,0.3,0.7-0.2c0-0.1-0.1-0.1-0.1-0.1c0.1,0.1,0,0.1,0,0.1v-0.1l0,0c-0.4-0.4-1.1,0.1-1.4-0.1
		c-0.1,0,1.9-0.9,2.3-0.1c0,0,0,0.2,0.1,0.3c0,0,0.1-0.1,0.1,0c0.5,2.1-0.3-0.3-0.4-0.1c0,0.1-0.1,0.3-0.1,0.4
		c-0.3,0.8-2.2,0.8-2.6,0.6c-0.1,0,0.2,0,0-0.1c-0.2,0-0.7,0-0.9-0.1c-0.2,0,0.4,0,0-0.1c-0.4,0-1.5,0.2-1.8,0.1
		c-0.2-0.1-0.1-0.1-0.1-0.1l0,0c-0.1-0.1,0.4-0.2,0.3-0.2c-0.1-0.1-0.4,0.1-0.5,0c-0.1,0,0.1-0.1,0-0.1s-0.3,0-0.4,0
		c-0.1,0,0-0.2-0.2-0.1s0.1,0.2,0.2,0.3c0.1,0.1,0,0.6,0.1,0.7s0.1,0,0.1,0l0.1,0.2c0.1,0.1,0.4,0.2,0.5,0.3c0,0.1-0.1,0.2,0,0.3
		c0.2,0.2,0.6-0.1,0.8-0.1c0.3,0.1,0.6-0.1,1.1,0.1c0.2,0.1-0.1,0,0,0.1c0.1,0,0.2,0,0.3,0.1c0.1,0,0.2,0.2,0.3,0.3
		c0-0.2-0.1-0.5,0.1-0.3c0,0,0,0.1,0.1,0.2H59v-0.1c0,0,0,0,0,0.1l0,0c0-0.1,0-0.1,0-0.1s0,0,0.1,0l0.4,1c0.1,0.1,0.2-0.3,0.2-0.4
		c0,0,0,0,0-0.1c0,0,0,0-0.1,0c0-0.1,0-0.3-0.1-0.4c0-0.1-0.1,0-0.1-0.1s0.2,0.1,0.2,0.1c0,0.1,0.1,0.2,0.1,0.4c0,0,0-0.1,0,0
		c0,0,0,0,0,0.1s0,0.3,0,0.4c0,0.2-0.3,0.5-0.3,0.6s0.1,0,0.2,0.1c0.1,0-0.1,0.1,0.1,0.1c0.4,0.2,0.5,0.5,0.6,0.9c0,0.1,0-0.1,0.1,0
		s-1,0.4-1.2,0.7l0,0c0.4,0,0.6,0.1,0.7-0.3c0-0.1,0.2,0,0.2,0s-0.1,0.2,0,0.2c0,0,0.4,0,0.5,0.1v0.1c0.1,0,0.8,0.1,0.9-0.1
		c0-0.2-0.4,0-0.5,0v-0.1c-0.2,0-0.5,0-0.7-0.1v-0.1h-0.1c-0.2-0.1,0.9-0.1,0.8-0.1c-0.9-0.2-0.1-0.4,0.1-0.2
		c0.1,0.1,0.2,0.4,0.2,0.3c0.2-0.3-0.1-0.3-0.3-0.4v-0.1c-0.2-0.1-0.4,0.1-0.3-0.3c0-0.1,0.6-0.1,0.7-0.1v-0.1
		c0.6-0.1,1.4-0.7,1.3-1.3h-0.1c-0.1-0.5,0.4-0.1,0.3,0.3l-0.2,0.5c0.1,0,0.3-0.4,0.3,0.1c-0.1,0.3-0.8,0.4-1.1,0.4
		c-0.3,0.1,0.3,0.4,0.3,0.5s0,0.2,0.1,0.2c0,0,0.1,0,0.1,0.1s0,0.2,0.1,0.3h0.1c0,0.1,0,0.1,0,0.2h0.1c0,1.2-0.8,1-1.8,1v-0.1
		c-0.1,0-0.2,0-0.3,0v-0.1c0,0-0.4-0.1-0.2-0.2c0.2-0.1,0.3,0.1,0.3,0.1c0.1,0,0.2,0,0.3,0v0.1c0.2,0,0.4,0,0.7,0l0,0
		c0,0,0,0,0.1-0.1s0.6-0.1,0.4-0.3c0,0-0.3,0.2-0.1-0.3c0.1-0.2,0-0.4,0-0.5H62v-0.1l-0.2-0.1c-0.1,0.2,0.1,0.2,0.1,0.2
		c0,0.1,0,0.2,0.1,0.3h0.1c0,0.9-1.3,0.7-1.8,0.4c0,0.3,0.1,0.9-0.1,1.1c-0.3,0.3-0.2,0-0.2-0.1c-0.1,0-0.2,0.1-0.2,0.1
		c-0.8,0.1-1.8-0.1-2.3-0.8c-0.1,0.1-0.2,0.1,0,0.2c0.4,0.1-0.2,0.4-0.4,0.3c-0.3,0,0-0.1,0-0.1s0,0-0.1,0c-0.1-0.1-0.1-0.2-0.1-0.3
		c-0.1-0.1-0.1,0-0.1,0l0,0l0,0c-0.1,0-0.1-0.2-0.1-0.3c-0.1-0.1-0.1,0.1-0.1,0c-0.1-0.1-0.1-0.4-0.1-0.5s-0.1,0-0.1,0
		c-0.1,0,0,0,0-0.1c-0.1,0-0.3-0.4-0.5-0.3c-0.2,0.1,0.2,0.1,0.2,0.1s0,0.2,0.1,0.3h0.1V47c0,0,0.1,0,0.1,0.1
		c0.1,0.3,0.1,0.4,0.2,0.7c0,0.1,0.2,0.1,0.1,0.2c-0.1,0.2-0.4-0.4-0.4-0.5c0,0-0.1,0-0.1-0.1c-0.1-0.2-0.1-0.3-0.3-0.5s0,0.4,0,0.4
		s0,0,0.1,0c0.2,0.4-0.5,0-0.3-0.1c0.1-0.1,0-0.4,0-0.5c0,0-0.1,0.1-0.1,0s0-0.8-0.1-0.8s-0.1,0.5-0.1,0.7S55.3,46,55.3,46
		s-0.1,0.1-0.1,0s0-0.3,0-0.3c0-0.1-0.1,0-0.1,0c0-0.1,0-0.2-0.1-0.3h-0.1c0,0-0.1-0.2-0.1-0.3c0,0-0.1,0-0.1-0.1
		c-0.1-0.1-0.6-0.7-0.7-0.5c-0.1,0.1,0.4,0.2,0.2,0.4s-0.4-0.1-0.4,0c0,0.2,0.6,0.4,0.4,0.4s-0.4-0.2-0.6-0.2
		c-0.1-0.1,0.2,0.4,0.4,0.5c0.2,0-0.1,0.3-0.1,0.2c-0.1-0.1,0.2-0.2-0.2-0.2c-0.5,0.2-0.1,0.1,0.1,0.2c0.2,0.1,0.8,0.3,0.4,0.5
		s-0.5,0.2-0.5,0.7c0,0.1,0,0.1,0,0.2c0.2-0.5,0.3-0.7,0.4-0.7c0.1,0.1,0.1,0.2,0.1,0.3s0.3,0.1,0.1,0.3c-0.1,0-0.3-0.3-0.4,0.1H54
		l-0.1,0.1v0.1c-0.2,0-0.3-0.1-0.5,0.2s-0.4,0.2-0.5,0.5h0.2l0.2,0.1c-0.6,0.2,0,0,0.2,0.2s-0.1,0.3-0.3,0.3v-0.1H53v-0.1
		c-0.2,0.2,0.4,0.3-0.2,0.5c-0.1,0,0,0.4,0,0.5c0.1,0,0-0.2,0.2-0.1c0.2,0,0.1,0.3,0.4,0.5c0.3,0.1,0,0.2-0.2,0.2
		c0-0.2-0.7-0.6-0.8-0.7c0,0.2-0.1,0.2-0.2,0.3h0.1c0.1,0,0.6,0.4,0.5,0.5c0,0.1,0.1,0.2,0.2,0.2c0,0.2,0,0.2-0.2,0.2v-0.1
		c0,0-0.7-0.3-0.3-0.1l0.3,0.6c-0.1,0-0.1,0.1-0.2,0.1c0-0.1-0.1-0.1-0.3-0.1c0,0.4,0.2,0.2,0.1,0.6c0.2,0,0.1,0.1,0.3,0.1
		c0,0.3-0.3,0.4-0.4,0.7h0.1c0.1,0,0.4,0.4,0,0.4c0-0.2-0.5-0.7-0.7-0.7v0.3c0.3,0,0.3,0.5,0.5,0.5V53v0.2l0,0h0.3v0.1h0.1v0.2v0.2
		c0-0.1-0.2-0.3-0.4-0.5l0,0l0,0c-0.2-0.2-0.3-0.3-0.4-0.3c0,0.1,0.3,0.6,0.4,0.6c0,0.8-0.5-0.4-0.7-0.4c0,0.4,0.3,0.6,0.3,1l0,0
		c-0.1-0.1-0.2-0.2-0.2-0.3c-0.1,0,0-0.1-0.3,0h0.1c0,1.1-0.1,0.3-0.5,0.3c0,0.2,0.3,0.4,0,0.4c0,0.1,0.3,0.5,0.5,0.5
		c0,0.5-0.2,0.1-0.4,0.2c-0.1,0.2-0.1,0.3-0.2,0.4c0-0.1-0.2-0.2-0.3-0.2l-0.1,0.2c0.1,0,0.3,0.2,0.3,0.2v0.1v0.2
		c-0.1-0.2-0.4-0.6-0.6-0.7c0.2,0.2,0.3,0.8,0.4,0.8c-0.1,0.4-0.3-0.3-0.5-0.3c0,0.2,0.2,0.5,0.2,0.7c-0.2,0-0.4-0.3-0.5-0.5
		c0,0.2,0,0.3,0,0.6h-0.1c0-0.2-0.3-0.5-0.4-0.7c0,0.2,0.1,0.7,0.3,0.7c0,0.1-0.1,0.1-0.2,0.1c0-0.1-0.4-0.7-0.5-0.7
		c0,0.4,0.3,0.5,0.3,0.9h-0.2c0-0.2-0.4-0.8-0.5-0.8c0,0.3,0.3,0.5,0.3,0.9h-0.1c0-0.3-0.5-0.7-0.6-0.9c0,0.4,0.3,0.6,0.3,1.1h-0.2
		c0-0.5-0.3-0.5-0.4-0.7c0,0.3,0.2,0.4,0.2,0.8h-0.1c0-0.1-0.3-0.5-0.5-0.5c0.1,0.1,0.1,0.3,0.1,0.4h-0.1c0-0.1-0.2-0.2-0.2-0.3
		L47,57.3h-0.2c0-0.2,0-0.2-0.1-0.4L46.5,57v0.2h-0.3V57c-0.1,0-0.2,0.1-0.3,0.1v0.2c-0.4,0-0.5,0.5-0.5-0.1h-0.1
		c-0.4,0-0.6,0.1-0.9,0.1V57c-0.2,0.1-0.2,0.1-0.4,0.1l0.1,0.1c-0.3,0.1-0.2,0-0.2-0.3H43c0,0.4,0.1,0.3,0.1,0.5h0.1l0.1,0.2
		c0.7,0.6,2.9,2.5,3.2,2.6l0.5,0.1c0.7,0,3.6-0.6,4.7-1.5l0.1-0.1c0,0,0.1,0,0.2-0.1c0.1-0.1,0.2-0.3,0.2-0.4c0.2,0,0.8-0.5,0.8-0.6
		c0.3-0.1,0.6-0.6,0.9-0.7v-0.1c0.4,0,1.1-1.3,1.6-1.4c0.1-0.5,0.9-0.8,1-1.3c0.3-0.1,1.1-1.7,1.3-1.9v-0.1v0.1l0,0
		c-0.1,0.4-0.5,1.1-0.7,1.2c-0.1,0.4-0.6,0.7-0.7,1.1h-0.1c0,0.3-1.3,1.6-1.5,1.7l-0.3,0.3c0,0.1-1,1-1.2,1c0,0.1-0.9,0.9-1.3,1.1
		c-0.1,0.1-0.1,0.1-0.2,0.2c-0.7,1.1-4.9,1.6-5.3,1.7h0.1v0.1h0.2c0,0,2,1.6,2.3,1.6c0,0,0.9,0.1,0,0.1v0.1c0.5,0,0.8-0.1,1.2-0.1
		h-0.1h0.1c0.8-0.3,0.7-0.3,0.9-0.4v-0.1c0.5,0,0.9-0.5,1.4-0.7c0.1-0.2,1.5-0.6,1.6-1.1c0.1,0,0.8-0.5,0.8-0.6
		c0.3-0.1,0.6-0.6,0.9-0.7c0,0.3-1.1,1.3-1.5,1.4c-0.2,0.5-1.4,0.9-1.4,1c-0.9,0.2-1.7,1.1-2.7,1.2c1.2,0,2-1.1,3.1-1.3
		c0,0,0.9-0.6,1-0.6v0.1c0,0-0.2,0.2-0.2,0.3c-0.3,0.1-2.5,1.4-2.7,1.7c0.5,0.1,1.6-1,2.2-1c0,0.3-0.3,0.4-0.4,0.7H53
		c0,0.3,0,0.1,0,0.5v0.7h0v0.4v0.3c0,0.3,0.1,0.7-0.3,0.8l-0.8,0.6c-0.1,0.3-1.1,0.7-1.5,0.7c-0.2,0.8-0.7,2-0.8,2.7h0.1
		c-0.1,0.5-0.4,0.4-0.4,0.7c0.1-0.1,0.2-0.1,0.3-0.1c0,0.5-1,0.9-0.4,0.8h0.2c0,0.3-0.3,0.4-0.3,0.6h0.2c0,0.3-0.2,0.4-0.2,0.7h0.1
		v0.3c0,0.3-0.2,0.6-0.5,0.8h0.2H49c0,0.3-0.2,0.4-0.3,0.6c-3-0.1-5.9-0.8-8.5-2c0.1-0.1,0.3-0.3,0.4-0.3c0.1-0.2,0.1-0.4,0.1-0.7
		h0.1v0.2H41c-0.5-0.2,0.6-0.8,0.5-1c0-0.2-0.3,0.3-0.5,0c0.1-0.8,1.5-2.1,1.5-2.1c-0.2,0,0.5-0.5,0.5-0.6l0.1-0.1V67
		c0.1,0,0.2-0.2,0.2-0.3l0.6-0.3c0.1-0.3,0.8-0.4,0.2-0.4c0,0-0.1,0-0.2,0c0-0.3,0.6-0.6,0.8-0.6v-0.1c-0.3,0,0.1-0.3,0.1-0.3h-0.1
		l0.9-0.3c-0.1,0-0.7-0.3-0.7-0.3v-0.1c-0.6,0,0.2-0.6,0.2-0.6l0.2,0.2c0.1,0,0.2-0.1,0.4-0.1L45,63.5c-0.2-0.3-0.5-1.1-0.9-1v-0.2
		v-0.2h0.2V62c-0.3,0-1.1-0.7-0.5-0.5c0.9-0.2-0.4-1.8-0.5-1.4c-0.1,1-0.1,1.9-0.4,2.9h-0.1c0.1-1.1,0.2-2.1,0.2-3h-0.1v-0.1h-0.1
		c0,1.7-0.5,3.5-0.7,5.2v0.5H42v-0.7c0.1-1.6,0.6-3.3,0.6-5h-0.1v-0.1h-0.1c0,1.8-0.6,3.7-0.7,5.6h-0.1c0-1.9,0.6-3.7,0.6-5.5h-0.1
		v-0.1c-0.1,1.8-0.7,3.6-0.8,5.3h-0.1V65h-0.1c0.1-1.7,0.9-3.3,0.6-5c-0.1,0.5-0.2,1.1-0.2,1.6h-0.1c0-0.6,0-1,0-1.5h-0.1V60
		c-0.2,0.4-0.1,1.1-0.1,1.6c-0.2,1-0.6,1.9-0.7,2.9v0.4v1.2v0.5c0,0.6-0.1,1.1-0.3,1.5c0.1-0.3,0.1-0.5,0.2-0.8v-1.1v-0.6h-0.1v-0.7
		h-0.1c0-0.1-4.7,2.8-5.3,3.1c-5.3-4.3-8.7-10.9-8.7-18.3c0-13,10.6-23.6,23.6-23.6c6.5,0,12.4,2.6,16.7,6.9s6.9,10.2,6.9,16.7
		C73.4,50.3,73.4,50.9,73.3,51.5z M35,68.1c1,0.6,3,2.1,4.4,2.5l0.1-0.2c0.1-0.8,0.5-1.5,0.7-2.3c-0.2,0.9-0.6,1.7-0.8,2.7v0.1
		C37.8,70.1,36.4,69.2,35,68.1z M51.3,73.2c0.1-0.6,0.3-1.1,0.3-1.5h0.1c0,0.6-0.1,1-0.2,1.5C51.4,73.2,51.4,73.2,51.3,73.2z
		 M49,73.3c0.9-0.7,1-4.3,1-4.1c0.4,1.2-0.4,2.8-0.5,3.9v0.2C49.3,73.3,49.2,73.3,49,73.3z M59.6,40.3c0.1,0,0.2-0.1,0.3-0.1
		s0,0,0,0.1C59.8,40.3,59.7,40.4,59.6,40.3c-0.1,0.2-1.4,0.6-1.5,0.4s0.3-0.1,0.5-0.2C58.8,40.5,59.4,40.1,59.6,40.3
		C59.8,40.3,59.5,40.2,59.6,40.3z"/>
</g>
<g>
	<path class="st5" d="M53,46l0.5-0.2c-0.3,0.1-0.4,0.2-0.2,0.3v0.1C53,46.2,52.8,46,53,46L53,46z"/>
</g>
<g>
	<polygon class="st5" points="37.1,50.3 37.1,50.1 36.9,50 37.3,50 37.3,50.1 37.3,50.2 	"/>
</g>
<g>
	<path class="st3" d="M40.7,67.4c0,0,0.1-1.4,0.1-1.7c0-0.3,0-1.3,0-1.4s0.1-0.4,0.1-0.1c-0.1,1.8,0.5,4.4-0.8,5.9
		C40,70.5,40.8,68.9,40.7,67.4L40.7,67.4z"/>
</g>
<g>
	<polygon class="st3" points="40.9,70.2 40.9,70.2 40.9,70 41,70 41,70.2 	"/>
</g>
<g>
	<path class="st3" d="M61.9,39.9c-0.2-0.1,0-0.6,0.2-0.7C62.3,39,62.3,40,61.9,39.9L61.9,39.9z"/>
</g>
<g>
	<path class="st3" d="M53.4,58L53.4,58c0-0.1,0.2-0.3,0.2-0.3c0.5-0.1,1.1-1.1,1.7-1.5c0.3-0.3,0.7-0.7,0.8-1c0.2-0.1,1.8-2.2,2-3
		l0,0l0,0h0.1v0.2h-0.1v0.1l0,0c-0.2,0.7-1,1.5-1.3,2.1c-0.3,0.1-0.4,0.8-0.7,0.9c-0.2,0.4-0.7,0.7-1,1.1c-0.5,0.2-1,1.1-1.4,1.2
		C53.8,57.8,53.5,58,53.4,58L53.4,58z"/>
</g>
<g>
	<path class="st3" d="M52.9,58.9L52.9,58.9c0.3-0.3,0.9-0.8,1.2-1.1c0.1-0.1,0.3-0.2,0.4-0.3c0.2-0.2,0.5-0.5,0.7-0.7
		c0.2-0.1,0.4-0.5,0.5-0.6c0.4-0.4,0.7-0.7,0.9-1.1c0.1-0.1,1.1-1.4,1.1-1.3c0,0.1-1.1,1.7-1.3,1.9s-0.4,0.4-0.5,0.7
		c-0.1,0.2-0.7,0.5-0.8,0.7C55,57.3,53.2,58.9,52.9,58.9L52.9,58.9z"/>
</g>
<g>
	<path class="st3" d="M52.3,59.7c0.1-0.4,0.9-0.6,1-0.9c0.4-0.1,0.9-0.9,1.1-1c0.1-0.2,1.2-0.8,1.3-1.2c0.1-0.1,0.2-0.3,0.4-0.4
		c0-0.1,1.1-1.5,1.1-1.5c0-0.1,0.1-0.1,0.2-0.2c0.4,0.2-3.8,4.8-4.8,5C52.7,59.6,52.4,59.7,52.3,59.7L52.3,59.7z"/>
</g>
<g>
	<path class="st3" d="M52.3,60.3v-0.2l0,0l0,0c0.6-0.3,3.9-3.2,4.1-3.8h0.1l0,0h0.1c-0.2,1.1-3.3,3-3.3,3.4L52.3,60.3L52.3,60.3z"/>
</g>
<g>
	<path class="st3" d="M53.7,59.6c0.9-0.9,2.3-1.7,2.9-2.9l0,0c0,0.1-0.5,0.8-0.6,0.9c-0.2,0.2-0.7,0.5-0.8,0.7s-2.3,2-2.5,2l0,0
		c0.1,0,0.1-0.1,0.1-0.2C53.1,60.1,53.6,59.7,53.7,59.6L53.7,59.6z"/>
</g>
<g>
	<path class="st3" d="M50.9,61.8L50.9,61.8l1.5-0.9c0.3-0.1,0.7-0.3,0.9-0.5c0.5-0.5,1.1-0.8,1.6-1.2c0.3-0.3,0.9-1.1,1.3-1.1l0,0
		c-0.1,0.1-0.2,0.2-0.2,0.3L55.4,59c-0.2,0.5-1,0.7-1.4,1.1c-0.7,0.7-1.3,0.9-2.2,1.4C51.5,61.5,51.2,61.8,50.9,61.8L50.9,61.8z"/>
</g>
<g>
	<path class="st3" d="M59.2,48.7C59.1,48.7,59.2,48.6,59.2,48.7c-0.2-0.1-0.3-0.1-0.5-0.1c0,0,0-0.1-0.1-0.1h-0.1v-0.1
		c-0.1-0.1-0.5-0.2-0.4-0.4c0-0.1,0.1,0.1,0.1,0.1c0.1,0,0.2,0.1,0.3,0.1v0.1h0.1v0.1c0.3,0.1,0.9,0.2,1.2-0.1
		c0.2-0.2,0.2,0.1,0.1,0.1C59.6,48.6,59.5,48.8,59.2,48.7L59.2,48.7z"/>
</g>
<g>
	<path class="st3" d="M55.6,47.2c-0.1,0-0.2-0.2-0.3-0.3c0-0.3,0-0.7,0-1.1l0,0C55.4,46,55.4,47.1,55.6,47.2c0.1,0,0.4,0.5,0.6,0.4
		c0.2-0.1,0.1,0.1,0.2,0.2c0.1,0,0.3,0.1,0.3,0.2c0.2,0.6,0.2,0.1,0.2,0.1c0.3-0.1,0.5,0.6,0.3,0.5c-0.1,0,0-0.2-0.1-0.2
		c-0.4,0,0.1,0.1-0.1,0.2c-0.2,0.2-0.5-0.6-0.7-0.6c-0.1,0,0.3,0.7,0.1,0.7s-0.2-0.8-0.3-0.8c0,0-0.1-0.1-0.2-0.1
		c-0.1,0.1,0.4,1.4,0.5,1.5s0.5,0.4,0.4,0.5C56,49.9,56,48,55.7,48c-0.2,0,0.2,0.5,0.1,0.6c-0.2,0.2-0.3-0.9-0.3-1.1
		c0,0,0.4,0.2,0.3-0.1C55.7,47.3,55.6,47.3,55.6,47.2L55.6,47.2z"/>
</g>
<g>
	<path class="st3" d="M56.2,42.2C56,42,55.9,42,55.9,42c0.1-0.2,0.8,0.1,1,0.1s1.4-0.3,2,0.2c0.7,0.5,1.2,0.9,0.5,0.7
		c-0.5-0.2-1.2-0.1-1.5-0.1c-0.9,0.2-1.5,0-2.2-0.6c0,0-0.1-0.2,0-0.1c0.3,0.2,1,0.6,1.4,0.6c0.1,0,0.4-0.1,0.1-0.2
		C57.2,42.6,56.4,42.4,56.2,42.2L56.2,42.2z"/>
</g>
<g>
	<path class="st3" d="M53.6,70.8c-0.2,0-0.2-0.2-0.2-0.4c0.2-0.1,0.1-0.3,0.6-0.3c0.9-0.4,1.8-1.1,2.6-1.6c0.4-0.4,0.2-0.7,1-0.6
		c0.2,0.5-0.3,0.7-0.7,0.7c-0.7,0.4-2.1,1.1-2.7,1.7C54.2,70.5,54.1,70.9,53.6,70.8L53.6,70.8z"/>
</g>
<g>
	<path class="st3" d="M61.4,38.9c0.1-0.1-0.2-0.9,0-0.6c0.3,0.4,0.4,0.9-0.1,1.3c0,0-0.1,0-0.1-0.1C61.3,39.4,61.4,38.9,61.4,38.9
		L61.4,38.9z"/>
</g>
<g>
	<path class="st3" d="M60.7,39.7c-0.2,0,0.2-0.4,0.3-0.3C61.3,39.5,60.8,39.7,60.7,39.7L60.7,39.7z"/>
</g>
<g>
	<path class="st3" d="M54,39.1L54,39.1c0-0.1-0.2-0.1-0.1-0.2c0.1,0,0.3,0.2,0.3,0.2C54.7,39.5,54.2,39.3,54,39.1L54,39.1z"/>
</g>
<g>
	<path class="st3" d="M50.7,42.6c-0.3-0.1,0.5-0.1,0.2,0C50.9,42.6,50.8,42.6,50.7,42.6L50.7,42.6z"/>
</g>
<g>
	<path class="st3" d="M50.8,43.6c-0.3-0.1,0.5-0.1,0.2,0C50.9,43.6,50.9,43.6,50.8,43.6L50.8,43.6z"/>
</g>
<g>
	<path class="st5" d="M40.2,44.5C40.1,44.4,40.1,44.5,40.2,44.5l-0.1-0.2c0,0-0.2,0-0.2-0.1c-0.7-0.7,0.3-1-0.1-1.5
		c-0.1-0.2,0.2-0.6,0.3-0.8c0-0.1,0.5,0,0.6,0s0,0.1,0,0.1s0.4,0.1,0.5,0.1c0.2,0-0.2-0.1-0.3-0.1c-0.2-0.1,0.1-0.2,0.2-0.2v0.1
		c0.1,0,0.4,0.1,0.5,0.1s0-0.1,0-0.1c0.3-0.1,0.3,0.1,0.3,0.1h0.2v0.1c0.1,0.1,0.3,0,0.4,0.1c0,0,0,0.1,0.1,0.1h0.2
		c0,0,0,0.1,0.1,0.1h0.2v0.1l0.2,0.1v0.1c0.3,0.1,0-0.2,0.1,0.1c0.1,0.1,0.2,0.1,0.3,0.1c0,0.1,0,0.2,0.1,0.3l0.1,0.1
		c0,0.1,0,0.2,0.1,0.3c0,0,0.3,0.1,0.1,0.3H44c-0.1,0.1,0.1,0.2,0.1,0.2s0.1,0.5,0,0.4s-0.1-0.3-0.2-0.2l-0.1-0.1
		c-0.1,0-0.2,0-0.3-0.1c-0.2-0.1-0.2-0.5-0.4-0.5c-0.1-0.1-0.6-0.5-0.6-0.5c0.2-0.3-0.8,0.1-0.9,0.2C40.9,43.6,40.7,44.2,40.2,44.5
		C40.2,44.4,40.2,44.5,40.2,44.5L40.2,44.5z M45.9,42.6c0.2,0.1,0,0.3-0.1,0.4c-0.2,0.1,0.1,0,0.1,0.1c0,0.2-0.2,0.2-0.2,0.4
		s0.1,0,0.1,0c0,0.1-0.2,0.4-0.2,0.5s0.1,0,0.1,0c0.1,0.1-0.1,0.1,0,0.2c0.1,0.1-0.1,0.2-0.1,0.4c0,0,0.5,0,0.3,0.2
		c-0.3,0.2-0.1-0.3-0.4,0c-0.1,0.1,0.3,0.1,0.3,0.1s-0.1,0.1,0,0.1s0.2,0.3,0.4,0.2c0,0,0-0.1,0-0.2c0.1,0,0.5,0.4,0.5,0.5
		s0,0.2,0,0s-0.2-0.4,0.1-0.4s-0.2,0-0.3-0.4c0-0.1-0.1,0.2-0.1,0c0-0.4,0.2,0.1,0.3-0.1c0-0.1,0-0.4-0.1-0.4
		c-0.2,0,0.1-0.3,0.1-0.4c0,0-0.1,0.1-0.1,0s0.5-0.5,0.5-0.6c0.1-0.1,0,0.1,0.1,0s-0.1-0.1,0.1-0.1c0.2,0.1,0.6-0.7,0.7-0.5
		c0,0.2,0.3-0.1,0.4,0c0.1,0.1,0,0,0.1-0.1c0.1,0,0.6,0,0.6,0.1v0.1h0.1c0.1,0.1-0.4,0.1-0.5,0l-1.2,0.6c-0.1,0-0.1,0-0.2,0
		c-0.1,0-0.1,0.2-0.2,0.2c-0.1,0,0,0,0,0c-0.3,0.3,0.4-0.1,0,0.3c-0.1,0.1-0.3,0.1-0.2,0.3c0,0,0.6-0.4,0.6-0.5s-0.1,0-0.1,0
		s0.2-0.3,0.2-0.4c0,0,0.8-0.3,1-0.3s0,0,0,0c0.3-0.1,0,0,0.1,0c0.3,0,0.9-0.1,0.9-0.1s-0.2,0.1,0,0.1s0.7,0.6,0.7,0.6
		c0.1,0,0,0.1,0,0.1h0.1v0.1c0.1,0.1,0.2,0,0.2,0.1c0,0,0,0.2,0,0.3c0.1,0.1,0.1-0.2,0.1-0.2c0.1-0.1,0.6,0.5,0.7,0.6
		c0.2,0.2,0.6,0.2,0.9,0.2c0.1,0,0.5-0.3-0.1-0.2c-0.4,0.1-0.2,0-0.6-0.1c-0.2,0,0.5-0.2,0.5-0.2c0.3-0.1,0.3-0.4-0.1-0.2
		c0,0,0.4,0,0,0s-0.4-0.2,0.1-0.2c0.4-0.1,0,0,0,0s0.2-0.1,0.1-0.1c-0.4-0.1-0.6,0.3-1.1,0c-0.1-0.1,0.7-0.1,0.8-0.2
		c0.4-0.1-0.1-0.8-0.4-0.9c-0.1,0,0.1-0.1,0-0.1c-0.2,0-0.4,0.1-0.7,0.1c-0.1,0,0.1-0.1,0-0.1s-0.4,0-0.5,0s0.1-0.1,0-0.1
		s-0.5,0.1-0.4-0.1c0.1-0.1,0.1,0.1,0.1,0.1c0.1,0,0.2-0.1,0.3-0.1c0,0-0.1,0.1,0,0.1s0.4,0,0.5,0s-0.1,0.1,0,0.1s0.3,0,0.4,0
		c0.2-0.1-0.9-0.8-1-0.8s0-0.1,0-0.1c-0.5-0.2-1-0.4-1.3-0.5c0,0,0.2-0.1,0-0.1c-0.1,0-0.4,0.1-0.8,0.3c-0.1,0-0.4,0.1-0.3,0
		c0.1,0-0.2,0.2-0.5,0.3c-0.1,0-0.1-0.1-0.2-0.1c-0.2,0.1-0.2,0.1-0.3,0.2c-0.1,0-0.1-0.1-0.2,0c-0.1,0-0.1-0.1-0.2-0.1
		c-0.1,0-0.4,0.3-0.4,0.4C46.1,42.5,45.9,42.6,45.9,42.6L45.9,42.6z M48.3,41.8c-0.3-0.1,0.6-0.3,0.7-0.3
		C49.2,41.6,48.5,41.9,48.3,41.8L48.3,41.8z M51.1,43.3c0.2,0,0.4,0,0.7,0c0,0,0.1-0.1,0-0.1c-0.3,0-0.6,0-0.9,0v-0.1
		c0,0-0.7,0-0.5,0.1S50.9,43.2,51.1,43.3C51.2,43.3,51.1,43.3,51.1,43.3L51.1,43.3z M42.5,43.1C42.7,43.3,42.6,42.8,42.5,43.1
		C42.4,43,42.4,43.1,42.5,43.1L42.5,43.1z M48.6,42.1c-0.2-0.1,0.8-0.3,1.1-0.3C49.8,41.8,48.9,42.2,48.6,42.1L48.6,42.1z
		 M51.1,43.7C51.1,43.7,51.1,43.6,51.1,43.7c0.2-0.1,0.7-0.1,0.9-0.2c0.1,0,0.2,0.1,0.1,0.1C52,43.7,51.4,43.7,51.1,43.7L51.1,43.7z
		 M46.2,44.9L46.2,44.9L46.2,44.9L46.2,44.9L46.2,44.9L46.2,44.9L46.2,44.9L46.2,44.9L46.2,44.9L46.2,44.9z M46.4,45L46.4,45
		L46.4,45L46.4,45L46.4,45L46.4,45z M47.5,43L47.5,43L47.5,43L47.5,43L47.5,43L47.5,43z"/>
</g>
<g>
	<path class="st3" d="M54.8,45.1C54.8,45.1,54.9,45,54.8,45.1C55,45.1,54.9,45.2,54.8,45.1L54.8,45.1z"/>
</g>
<g>
	<path class="st3" d="M53,70.2c0.4,0-0.1,0.4-0.1,0.3C52.7,70.3,52.6,70.2,53,70.2L53,70.2z"/>
</g>
<g>
	<path class="st3" d="M52.3,58.8c-0.1,0,0.8-0.9,1-0.8C53.6,58,52.5,58.8,52.3,58.8L52.3,58.8z"/>
</g>
<g>
	<path class="st3" d="M54.9,52.5c-0.1-0.1-0.1-0.3-0.1-0.4c0.1,0,0.2,0.4,0.2,0.5l0,0v0.1h-0.1C54.9,52.6,54.9,52.5,54.9,52.5
		L54.9,52.5z"/>
</g>
<g>
	<path class="st3" d="M61.6,45.3c0,0,0.3-0.4,0-0.2c-0.4,0.2,0.2-0.3,0.2-0.4c0-0.4-0.2,0.2-0.3,0s0-0.4-0.1-0.5h-0.1
		c-0.1-0.3,0-0.1-0.3-0.3v-0.1h-0.2c0,0,0.1-0.1,0-0.1s-0.5,0-0.6-0.1c0,0-0.1-0.3,0-0.3c0.8-0.1,1.3-0.2,1.8,0.3
		c0.1,0.1,0.1,0.4,0.1,0.6c0,0.1,0.1-0.1,0.1,0c0.1,0.2,0,0.6,0.1,0.2c0.4-1.1,0.1,0.9-0.2,0.5c0-0.1,0.1-0.4-0.1-0.1
		C62,44.9,61.8,45.4,61.6,45.3L61.6,45.3z"/>
</g>
<g>
	<path class="st3" d="M62.7,45.5c0.4-0.2,0.6-0.1,0.8-0.6c0.1-0.4,0.1,0.3,0,0.4c-0.1,0.2-0.7,0.3-0.7,0.4
		C62.5,45.7,62.2,45.7,62.7,45.5L62.7,45.5z"/>
</g>
<g>
	<path class="st3" d="M63.6,45.3C63.6,45.2,63.7,45.3,63.6,45.3c0.1,0.6-0.6,0.6-0.6,0.6C63.3,45.8,63.6,45.5,63.6,45.3L63.6,45.3z"
		/>
</g>
<g>
	<path class="st3" d="M63.9,45.4c0.2-0.3,0.2,0.1,0.2,0.2c0,0-0.9,0.8-1.1,0.7c0,0-0.1-0.2,0-0.2C63.5,46,63.6,45.9,63.9,45.4
		L63.9,45.4z"/>
</g>
<g>
	<path class="st3" d="M62.7,47.7c0.3-0.6,0.3-0.5,0.3-1.2h0.1v0.1h0.1v0.3l0,0v0.3L62.7,47.7L62.7,47.7z"/>
</g>
<g>
	<path class="st3" d="M63.3,47.7C63.2,47.7,63.3,47.7,63.3,47.7C63.2,47.6,63.2,47.7,63.3,47.7c-0.1-0.1,0.1-0.6,0.1-0.6v-0.7l0,0
		l0,0h0.2v0.3h0.1v0.1l0,0v0.4l0,0v0.3l0,0L63.3,47.7L63.3,47.7z"/>
</g>
<g>
	<path class="st3" d="M63.6,47.9c-0.1,0.1,0.2-0.4,0.2-0.5c0.1-0.4,0.1-0.8,0.1-1.2c0-0.2,0.2,0.3,0.3,0.3
		C64.1,47.1,63.9,47.4,63.6,47.9L63.6,47.9z"/>
</g>
<g>
	<path class="st3" d="M61,44c-0.1,0-0.3-0.1-0.4-0.1l0,0c-0.1,0-0.1,0-0.2,0c-0.1-0.3,0.9,0,0.9,0.4C61.3,44.3,61,44.1,61,44L61,44z
		"/>
</g>
<g>
	<path class="st3" d="M60.8,44.7C60.5,44.7,60.9,44.7,60.8,44.7L60.8,44.7c-0.2-0.3-0.1-0.2-0.3-0.3c0,0,0-0.1-0.1-0.1
		c0,0-0.4-0.1-0.2-0.1C61,44,61.2,44.8,60.8,44.7L60.8,44.7z"/>
</g>
<g>
	<path class="st3" d="M60.6,45.1C60.2,45,60.6,45,60.6,45.1c-0.1-0.2,0.1-0.1,0.3-0.2C61.1,44.8,60.9,45.1,60.6,45.1L60.6,45.1z"/>
</g>
<g>
	<path class="st3" d="M55.1,45.7L55.1,45.7L55.1,45.7C55,45.5,55.1,45.6,55.1,45.7C55.2,45.5,55.2,45.6,55.1,45.7L55.1,45.7
		L55.1,45.7C55.2,45.6,55.1,45.7,55.1,45.7L55.1,45.7z"/>
</g>
<g>
	<path class="st3" d="M54,64.4L54,64.4c-0.7-0.7,0.5-1,0.8-1.2c0.6-0.6,1.5-1.2,1.8-1.9c0.1-0.2,0.6-0.4,0.7-0.3
		c0.5,0.5-0.4,0.7-0.7,0.8c-0.2,0.1-0.1,0.1-0.2,0.2c-0.1,0.1-0.3,0.1-0.4,0.2c-0.3,0.3-0.6,0.6-0.9,0.9c-0.1,0.3,0-0.1-0.1,0.3
		c-0.1,0.3-0.2,0.1-0.4,0.2C54.4,63.7,54.7,64.5,54,64.4L54,64.4z"/>
</g>
<g>
	<path class="st3" d="M56.9,61.5c-0.1-0.1,0.1-0.2,0.2-0.3C57.5,60.9,57.1,61.7,56.9,61.5L56.9,61.5z"/>
</g>
<g>
	<path class="st3" d="M53.2,69.8v-0.2l0,0l0,0h0.1l0,0h0.1C53.5,69.7,53.1,70,53.2,69.8L53.2,69.8z"/>
</g>
<g>
	<path class="st3" d="M53.3,69.2c-0.1-0.1,0.1-0.2,0.2-0.3C53.6,68.9,53.4,69.3,53.3,69.2L53.3,69.2z"/>
</g>
<g>
	<path class="st3" d="M53.4,68.6L53.4,68.6L53.4,68.6v-0.2C53.8,68.3,53.3,68.7,53.4,68.6L53.4,68.6z"/>
</g>
<g>
	<path class="st3" d="M53.4,67.9c-0.2-0.1,0.2-0.5,0.3-0.3C53.8,67.7,53.6,68,53.4,67.9L53.4,67.9z"/>
</g>
<g>
	<path class="st3" d="M53.4,67.4L53.4,67.4c0-0.1,0.4-0.7,0.4-0.2C53.7,67.6,53.3,67.6,53.4,67.4L53.4,67.4z"/>
</g>
<g>
	<path class="st3" d="M53.4,66.7L53.4,66.7L53.4,66.7L53.4,66.7C53.9,66.5,53.4,66.9,53.4,66.7L53.4,66.7z"/>
</g>
<g>
	<path class="st3" d="M53.3,64.5v-0.3l0,0l0,0h0.1l0,0C53.9,64,53.3,64.6,53.3,64.5L53.3,64.5z"/>
</g>
<g>
	<path class="st3" d="M53.2,63.9c-0.2-0.2,0.1-0.3,0.3-0.3C53.7,63.5,53.4,64,53.2,63.9L53.2,63.9z"/>
</g>
<g>
	<path class="st3" d="M53.2,63.4v-0.2h0.1l0,0C53.7,63,53.2,63.5,53.2,63.4L53.2,63.4z"/>
</g>
<g>
	<path class="st3" d="M53.4,65c0-0.2,0.3-0.5,0.4-0.5v0.2C53.7,64.8,53.3,65.2,53.4,65L53.4,65z"/>
</g>
<g>
	<path class="st3" d="M53.3,65.7c-0.1-0.1,0.3-0.6,0.5-0.6C53.9,65.3,53.4,65.9,53.3,65.7L53.3,65.7z"/>
</g>
<g>
	<path class="st3" d="M53.3,66.3c0-0.2,0.3-0.7,0.4-0.5C53.9,66,53.2,66.5,53.3,66.3L53.3,66.3z"/>
</g>
<g>
	<path class="st3" d="M53.2,70.7c0,0.4-0.3,0.2-0.3,0.4c0,0.2-0.4,0.5-0.5,0.2C52.3,71.1,53.3,70.3,53.2,70.7L53.2,70.7z"/>
</g>
<g>
	<path class="st3" d="M53,71.4c0,0.3-0.3,0.3-0.6,0.5C52,72.1,53.1,71,53,71.4L53,71.4z"/>
</g>
<g>
	<path class="st3" d="M51.9,72.6c0-0.3,0.3-0.4,0.7-0.5C52.9,72,51.9,72.9,51.9,72.6L51.9,72.6z"/>
</g>
<g>
	<path class="st3" d="M51.7,73.2c-0.3-0.2,0.8-0.4,1-0.4C52.9,72.7,52,73.4,51.7,73.2L51.7,73.2z"/>
</g>
<g>
	<path class="st3" d="M51.6,71.5l0.2-1.1C53.3,70.4,51.2,73.5,51.6,71.5L51.6,71.5z"/>
</g>
<g>
	<path class="st3" d="M55.4,51.9c0-0.2-0.2-0.3-0.3-0.4c0-0.1,0-0.2,0-0.3l0,0l0,0c0.1,0,0.8,1.2,0.5,1.2
		C55.5,52.2,55.4,52,55.4,51.9L55.4,51.9z"/>
</g>
<g>
	<path class="st3" d="M55.3,52.1c0-0.1-0.2-0.4-0.3-0.4c0,0.1,0.1,0.2,0.1,0.3c0.1,0.1,0.1,0.4,0.2,0.5l0,0
		C55.3,52.4,55.3,52.1,55.3,52.1L55.3,52.1z"/>
</g>
<g>
	<path class="st3" d="M56.2,51.2c0-0.1-0.1-0.2-0.1-0.2c0.1-0.1,0.3,0.3,0.3,0.4h-0.1C56.3,51.3,56.2,51.2,56.2,51.2L56.2,51.2z"/>
</g>
<g>
	<path class="st3" d="M55.7,51.1c0-0.1-0.6-0.7-0.3-0.7c0.5,0,0.8,0.6,0.8,1.1h-0.1C55.9,51.4,55.7,51.1,55.7,51.1
		S55.7,51,55.7,51.1L55.7,51.1z"/>
</g>
<g>
	<path class="st3" d="M56.9,49.3c0-0.1-0.7-0.4-0.4-0.5c0.2-0.1,0.3,0.3,0.4,0.3c0.2,0.1,0.2,0,0.2,0.2C57,49.4,56.9,49.4,56.9,49.3
		L56.9,49.3z"/>
</g>
<g>
	<path class="st3" d="M56.6,49.9C56.6,49.9,56.5,49.9,56.6,49.9c-0.4-0.3,0.5,0,0.5-0.3c0-0.1,0-0.3,0-0.4c0-0.2,0.4-0.1,0.3,0.1
		c0,0.1-0.2,0.2-0.2,0.2c0,0.1,0,0.3-0.1,0.4C57,50.1,56.7,50.2,56.6,49.9L56.6,49.9L56.6,49.9L56.6,49.9L56.6,49.9L56.6,49.9z"/>
</g>
<g>
	<path class="st3" d="M55.8,49.5c-0.1-0.2-0.2-0.8-0.4-0.8c-0.1,0,0.4,1.2,0.5,1.1C56.1,49.6,55.8,49.5,55.8,49.5L55.8,49.5z"/>
</g>
<g>
	<path class="st3" d="M55.8,50c-0.4-0.1-0.3-1-0.5-0.8c-0.5,0.5,0.9,1.6,1,1.5c0,0,0.1-0.1,0-0.2C56,50.4,56,50,55.8,50L55.8,50z"/>
</g>
<g>
	<path class="st3" d="M61.4,42.6c-0.1,0,0.8-1,0.8-0.9C62.2,42.1,61.8,42.7,61.4,42.6L61.4,42.6z"/>
</g>
<g>
	<path class="st3" d="M61.5,43.2L61.5,43.2L61.5,43.2c-0.1-0.5,0.5-0.9,0.5-0.4l-0.3,0.3c0.1-0.1,0.4-0.5,0.5-0.2
		C62.4,43.3,62,43.2,61.5,43.2L61.5,43.2z"/>
</g>
<g>
	<path class="st3" d="M62.7,51.3C62.6,51.2,62.7,51.1,62.7,51.3C62.8,51.2,62.7,51.3,62.7,51.3L62.7,51.3z"/>
</g>
<g>
	<path class="st3" d="M38.3,50.6c0,0,0.4-0.1,0.5-0.2c0.2-0.1,0.2-0.2,0.2-0.2c0.4-0.2-0.4,0.6-0.8,0.6C38,50.7,38.3,50.6,38.3,50.6
		L38.3,50.6z"/>
</g>
<g>
	<path class="st3" d="M38.2,48.7c0,0,0.6-0.6,0.7-0.8c0.1-0.2,0.2-0.3,0.2-0.3c0.4-0.4-0.4,1-0.8,1.2C38.2,48.8,37.7,49.2,38.2,48.7
		L38.2,48.7z"/>
</g>
<g>
	<path class="st3" d="M37.9,49.4c0,0,0.1,0.1,0.3,0.1c0.7,0.2-0.4,0.3-0.4,0C37.8,49.3,37.9,49.4,37.9,49.4L37.9,49.4z"/>
</g>
<g>
	<path class="st3" d="M37.6,49.6c0,0,0,0.1,0.2,0.2c0.6,0.2-0.4,0.3-0.4-0.2H37.6L37.6,49.6z"/>
</g>
<g>
	<path class="st3" d="M38.7,49c0,0,0.3-0.3,0.4-0.4c0,0,0.2-0.5,0.2-0.1c0,0.6-0.7,0.9-0.7,0.7C38.7,49.1,38.7,49,38.7,49L38.7,49z"
		/>
</g>
<g>
	<rect x="16.4" y="16.5" class="st6" width="67.2" height="66.7"/>
</g>
<g>
	<path class="st7" d="M41.1,36.9c-0.4,0.4-1.3,2.5-1.4,3.4l0,0C39.8,39.5,40.6,37.3,41.1,36.9"/>
</g>
<g>
	<path class="st7" d="M40.8,37.3L40.8,37.3c0-0.1,0-0.2,0.1-0.2c0-0.1,0.1-0.1,0.1-0.2V37c-0.1,0-0.1,0.1-0.1,0.1
		C40.9,37.2,40.8,37.3,40.8,37.3z"/>
</g>
<g>
	<path class="st8" d="M10.4,74.3V25.8c0-12.1,8.2-22.7,19.8-25.8H0v100h30.2C18.5,96.9,10.4,86.3,10.4,74.3z"/>
	<path class="st9" d="M89.6,25.8v48.5c0,12.1-8.2,22.7-19.8,25.8H100V0H69.8C81.5,3.1,89.6,13.7,89.6,25.8z"/>
</g>
</svg>
