<?xml version="1.0" encoding="utf-8"?>
<!-- Generator: Adobe Illustrator 23.0.0, SVG Export Plug-In . SVG Version: 6.00 Build 0)  -->
<svg version="1.0" id="Layer_1" xmlns="http://www.w3.org/2000/svg" xmlns:xlink="http://www.w3.org/1999/xlink" x="0px" y="0px"
	 width="100px" height="100px" viewBox="0 0 100 100" enable-background="new 0 0 100 100" xml:space="preserve">
<path fill="#003776" d="M0,100h100V0H0V100z"/>
<path fill="#FFFFFF" d="M15,85h70V15H15V85z"/>
<g>
	<path fill="#8A4B28" d="M46.1,40.4L46.1,40.4c-0.1,0.2-0.4,0.1-0.5,0.1s-0.2,0-0.3-0.1c0-0.1,0.1-0.1,0.1-0.1
		c0.1-0.1,0.2-0.2,0.3-0.3C45.8,40.2,46.1,40.2,46.1,40.4"/>
</g>
<g>
	<path fill="#FFFFFF" d="M41.4,53.9L41.4,53.9L41.4,53.9L41.4,53.9"/>
</g>
<g>
	<g>
		<path fill="#FFFFFF" d="M49.1,57.6C49.1,57.7,49.1,57.7,49.1,57.6c-0.1,0.1-0.2,0.1-0.2,0.2s0,0.2,0.1,0.2c0,0,0.1,0,0.1,0.1
			c-0.1,0.1-0.2,0.1-0.3,0.1c0.1-0.1,0.1-0.2,0-0.2c0-0.1-0.1,0-0.1-0.1c0-0.2,0-0.3,0.1-0.4C48.9,57.5,48.9,57.6,49.1,57.6
			L49.1,57.6z"/>
	</g>
	<g>
		<path fill="#FFFFFF" d="M51.4,57.8L51.4,57.8L51.4,57.8C51.4,57.8,51.5,57.8,51.4,57.8"/>
	</g>
</g>
<g>
	<g>
		<path fill="#FF3516" d="M75,32.8c0,0-1.1,0.4-2.5-0.1c-1.3-0.5-4.6-1.6-6.3-1.9c-1.1-0.2-1.4,0-1.3,0.3l-0.4,1.4
			c-4.8-1.7-8.1-2.4-14.5-2.5c-6.8,0.1-10.1,0.9-15.4,2.8l0.8-0.4L35,31.1c0.2-0.3-0.1-0.6-1.2-0.4c-1.7,0.3-5,1.4-6.3,1.9
			S25,32.7,25,32.7l2.4,2.1l-1.6,2.3c2.7-0.3,6.8-1.7,6.8-1.7s0,0.3,0.3,1.3s0.7,0.8,2.8,0.3c4.5-1.2,9.8-2.8,14.3-2.8
			c4.6,0,9.8,1.6,14.3,2.8c2,0.5,2.5,0.7,2.8-0.3s0.3-1.3,0.3-1.3s4.1,1.4,6.8,1.7l-1.6-2.3L75,32.8z"/>
	</g>
	<g>
		<path fill="#FF3516" d="M40.4,61.3l0.5-0.8l-0.5-0.8c0,0,0.3,0,0.7,0c0.4,0.1,1.3,0.2,1.3,0.2s-0.6-0.4-0.6-0.7s0.2-0.6,0.1-1.2
			c0,0,0.4-0.4,1.5-0.2c1.2,0.3,1.9,0.6,2.9,1.3c0,0,0.3-0.3,0.4-0.6c0.1-0.3,0.3-0.5,0.7-0.4s1.4,0.6,2.2,1s2,1,2,1
			s0.1-0.1,0.1-0.6s0.3-0.5,0.8-0.6s2.3-0.1,3-0.2c0.7-0.1,1.3-0.5,1.7-0.6c0.4-0.2,1-0.3,1.1,0.2s0.2,0.5,0.2,0.5s0.6-0.5,1.5-0.2
			L59.4,59c0,0,0.4,0.5,0.6,0.8c0,0-0.6-0.1-1.5,0.4c-0.8,0.5-1.9,1.2-1.8-0.2c0,0-1.8,0.6-2.2,0.7c-0.3,0-0.7,0.1-0.7,0.1
			s-0.4,0.6-0.5,0.9c-0.1,0.3-0.2,0.7-0.7,0.6c-0.4-0.1-2.5-0.6-3.5-1.3c-0.5,0.6-0.2,1.6-0.9,1.2c-0.6-0.4-3.1-1.7-3.4-1.9
			C44.4,60,44,59.9,44,59.9s0.2,0.5,0,0.8c-0.1,0.3,0,0.8-0.3,0.9c-0.5,0.1-1.1,0-2-0.2C41.2,61.3,41.1,61.2,40.4,61.3"/>
	</g>
</g>
<g>
	<path d="M34.8,34.4c-0.1-0.1-0.2-0.1-0.4-0.1c-0.1,0-0.2,0.1-0.2,0.3c0.1,0.4,0.8,0.3,1,0.9c0.1,0.4-0.1,0.8-0.5,0.9
		c-0.1,0-0.3,0-0.4,0L34.2,36c0.1,0,0.2,0.1,0.4,0c0.2,0,0.2-0.2,0.2-0.3c0-0.2-0.2-0.2-0.4-0.3c-0.3-0.1-0.5-0.3-0.6-0.6
		c-0.1-0.4,0.1-0.8,0.5-0.8c0.2,0,0.3,0,0.4,0L34.8,34.4z"/>
</g>
<g>
	<path d="M36.3,33.5l0.1,0.4L36.1,34l0.5,1.9L36.1,36l-0.5-1.9l-0.4,0.1l-0.1-0.4L36.3,33.5z"/>
</g>
<g>
	<path d="M37.4,33.2l1.2,2.2L38,35.6l-0.2-0.4l-0.5,0.1v0.4l-0.5,0.1v-2.5L37.4,33.2z"/>
</g>
<g>
	<path d="M39.1,32.8l0.1,0.4l-0.4,0.1l0.5,1.9l-0.5,0.1l-0.5-1.9l-0.4,0.1l-0.1-0.4L39.1,32.8"/>
</g>
<g>
	<path d="M40.4,32.4l0.1,0.4L40,33l0.1,0.5l0.4-0.1l0.1,0.4l-0.4,0.1l0.1,0.5l0.5-0.1l0.1,0.4L40.1,35l-0.6-2.4L40.4,32.4"/>
</g>
<g>
	<path d="M43.6,32.8c0.2,0.9-0.1,1.3-0.5,1.4c-0.4,0.1-0.9-0.1-1.2-1c-0.2-0.9,0.1-1.3,0.5-1.4S43.3,31.9,43.6,32.8"/>
</g>
<g>
	<path d="M44.8,31.4l0.1,0.4l-0.5,0.1l0.1,0.5l0.4-0.1l0.1,0.5l-0.4,0.1l0.2,1L44.2,34l-0.4-2.4L44.8,31.4z"/>
</g>
<g>
	<path d="M46.6,31.2l0.3,1.2c0,0.2,0.1,0.3,0.1,0.5l0,0c0-0.2,0-0.4,0-0.5l0.2-1.2h0.4l0.4,1.7l0,0c0-0.2,0-0.3,0-0.5l0.1-1.2h0.5
		l-0.3,2.5h-0.4l-0.3-1.3c0-0.1-0.1-0.3-0.1-0.4l0,0c0,0.2,0,0.3,0,0.5l-0.2,1.3h-0.4l-0.6-2.4L46.6,31.2"/>
</g>
<g>
	<path d="M50,31.1v0.5h-0.5v0.5h0.4v0.5h-0.4v0.6H50v0.5h-1v-2.5L50,31.1"/>
</g>
<g>
	<path d="M51.5,31.6c-0.1-0.1-0.2-0.2-0.3-0.2S51,31.5,51,31.6c0,0.4,0.7,0.4,0.7,1.1c0,0.4-0.3,0.8-0.7,0.7c-0.1,0-0.3,0-0.4-0.1
		v-0.5c0.1,0.1,0.2,0.1,0.4,0.1s0.3-0.1,0.3-0.3s-0.1-0.3-0.3-0.4c-0.3-0.2-0.4-0.4-0.4-0.7c0-0.4,0.2-0.7,0.7-0.7
		c0.2,0,0.3,0,0.4,0.1L51.5,31.6"/>
</g>
<g>
	<path d="M53.2,31.2v0.5h-0.4l-0.1,2h-0.5l0.1-2h-0.4v-0.5H53.2z"/>
</g>
<g>
	<path d="M55,31.4l0.1,1.2c0,0.1,0,0.3,0,0.4l0,0c0-0.1,0.1-0.3,0.1-0.4l0.4-1.1l0.5,0.1l-1,2.3l-0.4-0.1l-0.4-2.5L55,31.4"/>
</g>
<g>
	<path d="M57.1,31.7l-0.5,2.4L56.1,34l0.5-2.4L57.1,31.7z"/>
</g>
<g>
	<path d="M57,34.2l0.6-2.4l0.5,0.1c0.3,0.1,0.8,0.3,0.6,0.9c-0.1,0.3-0.2,0.5-0.5,0.5l0.1,1.2l-0.5-0.1l-0.1-1.2l0,0l-0.3,1.1
		L57,34.2z"/>
</g>
<g>
	<path d="M60.7,33.8V34c-0.1,0.5-0.4,1.1-1.1,1c-0.6-0.2-0.7-0.9-0.5-1.4c0.1-0.5,0.5-1.2,1.2-1c0.4,0.1,0.5,0.4,0.5,0.7l-0.5,0.1
		c0-0.1,0-0.3-0.2-0.4c-0.3-0.1-0.5,0.5-0.6,0.7s-0.2,0.8,0.2,0.9c0.2,0.1,0.4-0.2,0.4-0.4L59.8,34l0.1-0.4L60.7,33.8z"/>
</g>
<g>
	<path d="M61.8,33l-0.6,2.4l-0.5-0.1l0.6-2.4L61.8,33z"/>
</g>
<g>
	<path d="M62.6,33.2l0.2,1.6l0,0c0-0.1,0-0.2,0.1-0.4l0.3-1.1l0.5,0.1l-0.6,2.4l-0.4-0.1l-0.2-1.6l0,0v0.2v0.1l-0.3,1.1l-0.5-0.1
		l0.6-2.4L62.6,33.2z"/>
</g>
<g>
	<path d="M64.6,33.7L64,36l-0.5-0.1l0.6-2.4L64.6,33.7z"/>
</g>
<g>
	<path d="M65.9,34v2.5l-0.5-0.1V36l-0.5-0.1l-0.2,0.4l-0.5-0.1l1.1-2.3L65.9,34"/>
</g>
<g>
	<path d="M43.4,59.2h-0.2l0.1-0.7l0,0L43,59.2h-0.2v-0.7l0,0L42.7,59h-0.2l0.2-0.9l0.3,0.1v0.7l0,0l0.3-0.6l0.3,0.1L43.4,59.2"/>
</g>
<g>
	<path d="M44.3,58.6c0.1,0,0.4,0.2,0.2,0.6c-0.2,0.4-0.5,0.3-0.6,0.3s-0.4-0.2-0.2-0.6C43.9,58.4,44.2,58.5,44.3,58.6"/>
</g>
<g>
	<path d="M45.5,59.2L45.5,59.2L45.2,60L45,59.9v-0.7l0,0l-0.3,0.5l-0.1-0.1l0.4-0.8l0.2,0.1v0.7l0,0L45.5,59.2z"/>
</g>
<g>
	<path d="M45.8,60.4l-0.2-0.1l0.4-0.6l-0.2-0.1l0.1-0.1l0.6,0.4L46.4,60l-0.2-0.1L45.8,60.4z"/>
</g>
<g>
	<path d="M46.2,60.6L46,60.5l0.7-0.6l0.2,0.1l-0.2,0.9l-0.2-0.1v-0.2l-0.3-0.2V60.6z"/>
</g>
<g>
	<path d="M47.9,60.5L47.9,60.5l-0.3,0.9l-0.2-0.1v-0.7l0,0l-0.3,0.5L47,61l0.4-0.8l0.2,0.1V61l0,0L47.9,60.5z"/>
</g>
<g>
	<path d="M48,61.6l-0.2-0.1l0.4-0.8l0.2,0.1L48,61.6z"/>
</g>
<g>
	<path d="M47.4,59.2c0,0,0,0.1,0.1,0.2c0.1,0,0.2,0.1,0.2,0s0-0.1-0.1-0.2l-0.1-0.1c-0.1-0.1-0.2-0.2-0.1-0.4c0-0.1,0.2-0.2,0.4-0.1
		C48,58.7,48,58.9,48,59l-0.2-0.1c0,0,0-0.1-0.1-0.2c-0.1,0-0.1,0-0.2,0c0,0.1,0,0.1,0,0.1l0.2,0.1c0.1,0.1,0.2,0.2,0.1,0.3
		C47.7,59.4,47.4,59.3,47.4,59.2c-0.3,0-0.2-0.2-0.2-0.3L47.4,59.2"/>
</g>
<g>
	<path d="M48.9,59.6l-0.4-0.2l-0.1,0.2l0.4,0.2l-0.1,0.1l-0.4-0.2l-0.1,0.2l0.4,0.2l-0.1,0.1L48,59.9l0.4-0.8l0.6,0.3L48.9,59.6"/>
</g>
<g>
	<path d="M49.6,60.8L49.6,60.8l0.2-0.7l0,0l-0.5,0.6l-0.2-0.1l0.2-0.7l0,0L49,60.5l-0.1-0.1l0.4-0.8l0.2,0.1l-0.2,0.7l0,0l0.5-0.5
		L50,60L49.6,60.8z"/>
</g>
<g>
	<path d="M50.2,61L50,60.9l0.4-0.8l0.4,0.2c0.2,0.1,0.2,0.2,0.1,0.4c0,0.1-0.2,0.2-0.4,0.1l-0.2-0.1L50.2,61z"/>
</g>
<g>
	<path d="M51.8,60.9l-0.4-0.2l-0.1,0.2l0.4,0.2l-0.1,0.1L51.2,61l-0.1,0.2l0.4,0.2l-0.1,0.1l-0.6-0.3l0.3-0.8l0.6,0.2L51.8,60.9z"/>
</g>
<g>
	<path d="M52.2,60.9l0.4,0.2c0.2,0.1,0.2,0.3,0.2,0.3c0,0.1-0.1,0.1-0.2,0.1c0.1,0.1,0.1,0.1,0,0.2c0,0.1-0.1,0.1,0,0.2l0,0
		l-0.2-0.1c0,0,0-0.1,0-0.2c0-0.1,0.1-0.2-0.1-0.2l-0.2-0.1L52,61.8l-0.2-0.1L52.2,60.9z"/>
</g>
<g>
	<path d="M53.7,60h0.4v0.2h-0.6l-0.1-0.9h0.2L53.7,60z"/>
</g>
<g>
	<path d="M54.5,60.1h-0.2l-0.1-0.9h0.2L54.5,60.1z"/>
</g>
<g>
	<path d="M54.7,59.2h0.4c0.2,0,0.3,0.1,0.3,0.2c0,0.1-0.1,0.2-0.1,0.2c0.1,0,0.1,0.1,0.2,0.2c0,0.1,0,0.1-0.1,0.2
		c0,0.1-0.1,0.1-0.3,0.1h-0.4L54.7,59.2z"/>
</g>
<g>
	<path d="M56.3,59.1l-0.4,0.1v0.2l0.4-0.1v0.2H56l0.1,0.2l0.5-0.1v0.2L56,60l-0.2-0.9H56.3L56.3,59.1z"/>
</g>
<g>
	<path d="M56.5,58.8l0.4-0.2c0.2-0.1,0.3,0,0.4,0.1c0,0.1,0,0.2,0,0.2c0.1,0,0.1,0,0.2,0.2c0.1,0.1,0.1,0.1,0.1,0.1l0,0l-0.2,0.1
		c0,0-0.1-0.1-0.1-0.2C57.2,59,57.2,59,57.1,59l-0.2,0.1l0.1,0.3l-0.2,0.1L56.5,58.8z"/>
</g>
<g>
	<path d="M57.9,59.2l-0.2,0.1l-0.3-0.8l0.2-0.1L57.9,59.2z"/>
</g>
<g>
	<g>
		<path fill="#FF3516" d="M44,59.3c0.1,0,0.2,0,0.3-0.2s0-0.3-0.1-0.4c-0.1,0-0.2,0-0.3,0.2C43.8,59.1,43.9,59.2,44,59.3"/>
	</g>
	<g>
		<path fill="#FF3516" d="M46.5,60.4l0.2,0.1l0.1-0.4l0,0L46.5,60.4z"/>
	</g>
	<g>
		<path fill="#FF3516" d="M50.5,60.7c0.1,0.1,0.2,0,0.2-0.1s0-0.1-0.1-0.2l-0.1-0.1l-0.1,0.2L50.5,60.7z"/>
	</g>
	<g>
		<path fill="#FF3516" d="M52.4,61.4c0.1,0,0.1,0,0.2-0.1c0,0,0-0.1-0.1-0.2L52.3,61l-0.1,0.2L52.4,61.4z"/>
	</g>
	<g>
		<path fill="#FF3516" d="M55,59.9h0.2c0.1,0,0.1-0.1,0.1-0.1c0-0.1-0.1-0.1-0.1-0.1H55V59.9z"/>
	</g>
	<g>
		<path fill="#FF3516" d="M54.9,59.5h0.2c0.1,0,0.1,0,0.1-0.1s-0.1-0.1-0.1-0.1h-0.2V59.5z"/>
	</g>
	<g>
		<path fill="#FF3516" d="M57,59c0.1,0,0.1-0.1,0.1-0.2c0,0-0.1-0.1-0.2,0l-0.2,0.1l0.1,0.2L57,59"/>
	</g>
	<g>
		<path fill="#FF3516" d="M42.9,33.8c0.3-0.1,0.2-0.7,0.1-0.9c-0.1-0.2-0.2-0.8-0.5-0.7s-0.2,0.7-0.1,0.9
			C42.5,33.3,42.6,33.9,42.9,33.8"/>
	</g>
	<g>
		<path fill="#FF3516" d="M57.8,33L57.8,33c0.3,0.1,0.4,0,0.5-0.2c0-0.2,0-0.3-0.2-0.4H58L57.8,33z"/>
	</g>
	<g>
		<path fill="#FF3516" d="M65.5,34.9v-0.4l0,0l-0.1,0.3l-0.2,0.6l0.3,0.1L65.5,34.9z"/>
	</g>
	<g>
		<path fill="#FF3516" d="M37.4,34.2l-0.1-0.3l0,0v0.4l0.1,0.7l0.3-0.1L37.4,34.2z"/>
	</g>
</g>
<g>
	<g>
		<polygon points="32.5,35.5 32,33.5 32.1,33.5 32.6,35.5 		"/>
	</g>
	<g>
		<polygon points="35.5,32.6 35,30.9 35.1,30.9 35.6,32.5 		"/>
	</g>
	<g>
		<path d="M33.7,37.6c-0.2,0-0.3,0-0.4-0.1c-0.2-0.1-0.3-0.3-0.4-0.7c-0.2-0.8-0.3-1.1-0.3-1.2c-0.5,0.2-4.3,1.4-6.8,1.7h-0.1
			l1.6-2.4l-2.3-2v-0.1c0,0,1.1,0.4,2.5-0.1c1.3-0.5,4.5-1.6,6.3-1.9c0.8-0.2,1.3-0.1,1.4,0.2c0.1,0.3-0.3,0.6-0.9,0.8
			c-1.4,0.4-2.3,1.4-2.2,1.7c0,0.2,0.3,0.2,0.7,0.1c6.3-2.4,9.6-3.4,17.2-3.5c7.6,0.1,10.9,1.1,17.2,3.5c0.4,0.1,0.7,0.1,0.7-0.1
			c0.1-0.3-0.7-1.3-2.2-1.7c-0.6-0.2-1-0.5-0.9-0.8s0.6-0.3,1.4-0.2c1.8,0.3,5,1.4,6.3,1.9s2.4,0.1,2.5,0.1v0.1L72.6,35l1.6,2.4
			h-0.1c-2.5-0.3-6.3-1.5-6.8-1.7c0,0.1-0.1,0.5-0.3,1.2c-0.1,0.4-0.2,0.6-0.4,0.7c-0.3,0.2-0.9,0-2-0.3l-0.4-0.1
			c-0.4-0.1-0.8-0.2-1.2-0.3c-4.2-1.1-8.9-2.4-13.1-2.4l0,0c-4.2,0-8.9,1.3-13.1,2.4c-0.4,0.1-0.8,0.2-1.2,0.3l-0.4,0.1
			C34.5,37.4,34,37.6,33.7,37.6z M32.7,35.5L32.7,35.5c0,0.1,0,0.3,0.3,1.3c0.1,0.3,0.2,0.5,0.4,0.6c0.3,0.2,0.9,0,2-0.3l0.4-0.1
			c0.4-0.1,0.8-0.2,1.2-0.3c4.2-1.1,9-2.4,13.1-2.4l0,0c4.2,0,8.9,1.3,13.1,2.4c0.4,0.1,0.8,0.2,1.2,0.3l0.4,0.1
			c1.1,0.3,1.7,0.4,2,0.3c0.2-0.1,0.3-0.3,0.4-0.6c0.3-1,0.3-1.3,0.3-1.3v-0.1h0.1c0,0,4,1.4,6.7,1.7l-1.6-2.3l2.3-2
			c-0.4,0.1-1.3,0.2-2.3-0.2c-1.3-0.5-4.5-1.5-6.3-1.9c-0.9-0.2-1.2,0-1.2,0.1c0,0.2,0.3,0.5,0.9,0.7c1.4,0.4,2.4,1.4,2.2,1.9
			c0,0.1-0.2,0.3-0.8,0.1c-6.3-2.4-9.6-3.4-17.2-3.5c-7.6,0.1-10.9,1.1-17.1,3.5c-0.7,0.2-0.8,0-0.9-0.1c-0.1-0.4,0.8-1.4,2.2-1.9
			c0.6-0.2,0.9-0.5,0.9-0.7s-0.4-0.3-1.2-0.1c-1.8,0.3-5,1.4-6.3,1.9c-1,0.4-1.9,0.3-2.3,0.2l2.3,2l-1.6,2.3
			C28.6,36.9,32.6,35.5,32.7,35.5L32.7,35.5z"/>
	</g>
	<g>
		<polygon points="67.5,35.5 67.4,35.5 67.9,33.5 68,33.5 		"/>
	</g>
	<g>
		<polygon points="64.5,32.6 64.4,32.5 64.9,30.9 65,30.9 		"/>
	</g>
	<g>
		<path d="M52.9,62.3C52.8,62.3,52.8,62.3,52.9,62.3c-0.6-0.1-2.6-0.6-3.6-1.3c-0.2,0.2-0.2,0.5-0.3,0.8s-0.1,0.5-0.3,0.5
			c-0.1,0-0.2,0-0.3-0.1c-0.2-0.1-0.5-0.3-0.8-0.5c-1-0.6-2.3-1.3-2.6-1.5s-0.5-0.3-0.7-0.3c0,0.2,0.1,0.5,0,0.8
			c0,0.1-0.1,0.2-0.1,0.4s0,0.5-0.3,0.5c-0.4,0.1-1.1,0-2-0.2c-0.2,0-0.3-0.1-0.4-0.1c-0.4-0.1-0.6-0.1-1.1-0.1h-0.1l0.5-0.9
			l-0.5-0.8h0.1c0,0,0.3,0,0.7,0c0.3,0,0.8,0.1,1.1,0.2c-0.2-0.2-0.5-0.4-0.4-0.6c0-0.1,0-0.2,0.1-0.3c0-0.2,0.1-0.5,0-0.8l0,0l0,0
			c0,0,0.4-0.4,1.6-0.2c1.1,0.3,1.9,0.6,2.9,1.2c0.1-0.1,0.3-0.3,0.3-0.6c0.1-0.2,0.1-0.3,0.3-0.4c0.1-0.1,0.3-0.1,0.4,0
			c0.4,0.1,1.4,0.6,2.2,1c0.7,0.4,1.7,0.9,2,1c0-0.1,0.1-0.2,0.1-0.5c0-0.2,0-0.3,0.1-0.4c0.1-0.2,0.4-0.2,0.7-0.2
			c0.2,0,0.5,0,0.9-0.1c0.7,0,1.6-0.1,2.1-0.2c0.5-0.1,0.9-0.3,1.3-0.4c0.2-0.1,0.3-0.1,0.5-0.2c0.3-0.1,0.7-0.2,1-0.1
			c0.1,0.1,0.2,0.2,0.2,0.3c0,0.3,0.1,0.4,0.1,0.4c0.1-0.1,0.7-0.4,1.6-0.2h0.1L59.5,59c0.1,0.1,0.4,0.5,0.6,0.7l0.1,0.1h-0.1
			c0,0-0.6-0.1-1.4,0.4c-0.6,0.4-1.3,0.8-1.6,0.5c-0.2-0.1-0.2-0.3-0.2-0.7c-0.3,0.1-1.8,0.6-2.1,0.6s-0.6,0.1-0.7,0.1
			c-0.1,0.1-0.4,0.6-0.5,0.9v0.1C53.3,62,53.2,62.3,52.9,62.3z M49.3,60.9L49.3,60.9c1,0.8,3,1.3,3.5,1.3c0.4,0,0.5-0.2,0.6-0.5
			v-0.1c0.1-0.3,0.5-0.9,0.5-0.9l0,0l0,0c0,0,0.4,0,0.7-0.1c0.3,0,2.1-0.6,2.2-0.7h0.1V60c-0.1,0.4,0,0.6,0.1,0.7
			c0.3,0.2,1.1-0.3,1.5-0.5c0.6-0.4,1.2-0.4,1.4-0.4c-0.2-0.3-0.6-0.7-0.6-0.7l0,0l0.5-0.4c-0.8-0.2-1.4,0.2-1.4,0.2s0,0-0.1,0
			c0,0-0.1,0-0.2-0.5c0-0.1-0.1-0.2-0.2-0.3c-0.2-0.1-0.6,0-0.9,0.1c-0.1,0-0.3,0.1-0.5,0.2c-0.3,0.2-0.8,0.4-1.3,0.4
			c-0.5,0.1-1.4,0.1-2.1,0.2c-0.4,0-0.7,0-0.9,0.1c-0.3,0-0.6,0.1-0.7,0.2c-0.1,0.1-0.1,0.2-0.1,0.3c0.1,0.5-0.1,0.6-0.1,0.6l0,0
			l0,0c0,0-1.2-0.6-2-1s-1.8-0.8-2.2-1c-0.2,0-0.3,0-0.4,0c-0.1,0.1-0.2,0.2-0.2,0.3c-0.1,0.3-0.4,0.6-0.4,0.6l0,0l0,0
			c-1-0.6-1.8-1-2.9-1.2c-1-0.2-1.4,0.1-1.5,0.1c0.1,0.4,0,0.6,0,0.9c0,0.1,0,0.2,0,0.3c0,0.2,0.4,0.6,0.5,0.7V60
			c0,0-0.9-0.2-1.3-0.2c-0.3,0-0.5,0-0.6,0l0.4,0.7l-0.4,0.7c0.4-0.1,0.7,0,1.1,0.1c0.1,0,0.2,0.1,0.4,0.1c0.9,0.2,1.5,0.2,1.9,0.2
			c0.2,0,0.2-0.2,0.2-0.4c0-0.1,0-0.3,0.1-0.4c0.1-0.3,0-0.8,0-0.8v-0.1h0.1c0,0,0.4,0.1,0.8,0.4c0.3,0.2,1.7,1,2.6,1.5
			c0.4,0.2,0.6,0.4,0.8,0.5c0.1,0.1,0.2,0.1,0.2,0.1c0.1,0,0.2-0.2,0.2-0.5C48.9,61.5,49,61.1,49.3,60.9L49.3,60.9z M58.4,58.7
			C58.4,58.8,58.3,58.8,58.4,58.7C58.3,58.8,58.4,58.8,58.4,58.7z"/>
	</g>
	<g>
		<path d="M44.2,59.9c-1.2-0.5-1.7-0.6-2.3-0.5v-0.1C42.4,59.2,43,59.3,44.2,59.9L44.2,59.9z"/>
	</g>
	<g>
		<path d="M43.4,60.2c-0.5,0-1.1-0.1-1.1-0.1V60c0.5,0.1,1.7,0.3,1.8-0.1h0.1C44.1,60.1,43.8,60.2,43.4,60.2z"/>
	</g>
	<g>
		<path d="M49.2,61c0,0-1.4-0.9-2.1-1.3c-0.7-0.4-0.8-0.4-0.8-0.4l0,0l0,0l0,0l0,0c0,0,0,0,0.8,0.4C47.9,60.1,49.2,60.9,49.2,61
			L49.2,61z"/>
	</g>
	<g>
		<path d="M53.4,60.9c-0.8,0-1.8-0.6-1.9-0.7v-0.1c0,0,1.6,1,2.3,0.6c0.1,0,0.1-0.1,0.1-0.2c0-0.1-0.2-0.2-0.6-0.3
			c-0.7-0.1-1.7-0.4-1.8-0.9h0.1c0,0.4,0.9,0.7,1.7,0.8c0.4,0,0.7,0.2,0.7,0.3s0,0.2-0.2,0.3C53.7,60.9,53.6,60.9,53.4,60.9z"/>
	</g>
	<g>
		<path d="M57.1,60.8c-0.1,0-0.1,0-0.2-0.1c0-0.1,0.2-0.4,0.3-0.4c0.2-0.2,0.6-0.4,1.1-0.7c0.3-0.1,0.3-0.2,0.3-0.2
			c0-0.1-0.3-0.1-0.6,0c-0.4,0.1-1.2,0.5-1.3,0.5v-0.1c0,0,0.8-0.4,1.3-0.5c0.3-0.1,0.6-0.1,0.7,0c0,0.1-0.1,0.2-0.3,0.3
			c-0.6,0.3-0.9,0.5-1.1,0.6c-0.2,0.1-0.3,0.3-0.3,0.3C57.1,60.7,57.1,60.7,57.1,60.8L57.1,60.8z"/>
	</g>
	<g>
		<path d="M58.6,59.4c0,0-0.2-0.3-0.3-0.6h0.1C58.5,59.1,58.7,59.3,58.6,59.4L58.6,59.4z"/>
	</g>
	<g>
		<path d="M37.9,42.4c-0.1,0-0.1,0-0.2-0.1c0,0,0,0.1,0,0.1C37.7,42.4,37.8,42.4,37.9,42.4C37.8,42.4,37.9,42.4,37.9,42.4z"/>
		<path d="M47.3,38.2c-0.2,0.2-0.3,0.4-0.3,0.7c0,0.5,0.4,0.9,0.9,0.9s0.9-0.4,0.9-0.9v0c0,0.5-0.4,0.8-0.8,0.8
			c-0.5,0-0.8-0.4-0.8-0.8c0-0.3,0.2-0.6,0.4-0.7c-0.1,0-1.1-0.7-2.1-0.5C46.3,37.6,47.1,38.1,47.3,38.2z"/>
		<path d="M48.8,38.8L48.8,38.8c0-0.8-0.2-1.3-0.6-1.7c-0.3-0.3-0.8-0.5-1.3-0.6c0.5,0.1,0.9,0.4,1.2,0.6
			C48.5,37.5,48.8,38.1,48.8,38.8z"/>
		<path d="M45.2,36.3c0.7,0,1.2,0.1,1.7,0.2C46.4,36.3,45.9,36.3,45.2,36.3z"/>
		<path d="M45.2,36.3C45.2,36.3,45.2,36.3,45.2,36.3C45.2,36.3,45.2,36.3,45.2,36.3C45.2,36.3,45.2,36.3,45.2,36.3z"/>
		<path d="M40.1,41c0.6-0.2,1.1-0.5,1.4-0.8c-0.3,0.2-0.6,0.4-1.1,0.6c-0.8,0.3-1.5,0.2-1.9,0c-0.1,0-0.1,0-0.2,0
			c-0.2-0.1-0.3-0.2-0.4-0.3c-0.2-0.1-0.4-0.4-0.4-0.7c0-0.5,0.4-0.9,0.8-0.9c0,0,0,0,0,0c-0.5,0-0.9,0.5-0.9,1
			c0,0.3,0.2,0.6,0.5,0.8c0.1,0,0.1,0.1,0.2,0.1c0.1,0,0.1,0,0.3,0.2c0,0.1,0.1,0.1,0.1,0.1c0,0,0,0,0,0
			C38.9,41.2,39.5,41.2,40.1,41z"/>
		<path d="M39.2,39.9L39.2,39.9c0.3,0.1,0.5,0,0.7-0.1C39.7,39.9,39.5,39.9,39.2,39.9l0.1-0.1c0-0.5-0.4-0.9-0.9-0.9c0,0,0,0-0.1,0
			C38.8,38.9,39.2,39.3,39.2,39.9z"/>
		<path d="M38.8,41.7c0-0.3-0.1-0.5-0.3-0.6c0,0-0.1,0-0.1,0c0.1,0.1,0.2,0.3,0.2,0.5c0,0.5-0.3,0.7-0.7,0.8c0.1,0,0.2,0,0.2,0
			C38.5,42.4,38.8,42.1,38.8,41.7z"/>
		<path d="M38.5,56.5c0.1,0,0.2,0,0.3-0.1C38.7,56.4,38.5,56.4,38.5,56.5L38.5,56.5L38.5,56.5z"/>
		<path d="M62.7,53c0.2,0.4,0.3,0.9,0.3,1.3C63,53.8,62.9,53.3,62.7,53L62.7,53z"/>
		<path d="M59.6,38.8C59.6,38.8,59.6,38.8,59.6,38.8c0-0.5-0.4-0.9-0.9-0.9C59.2,37.9,59.6,38.3,59.6,38.8z"/>
		<g>
			<path fill="#E6CB01" d="M49.1,39.8C49.1,39.8,49.1,39.8,49.1,39.8L49.1,39.8c0.3,0.2,0.8,0.6,0.9,1.2c0-0.1,0-0.1,0.1-0.1
				c0,0,0,0.1,0,0.1c0-0.4,0.2-0.7,0.3-0.9c-0.1,0.1-0.2,0.2-0.2,0.4c0.1-0.2,0.2-0.4,0.3-0.5c0,0,0,0.1-0.1,0.1
				c0.1-0.1,0.2-0.3,0.3-0.3c0,0,0,0,0,0c0.1-0.1,0.1-0.1,0.1-0.1c-0.5-0.4-0.4-1.2-0.3-1.6c0-0.1,0.1-0.2,0.1-0.3c0,0,0,0,0,0
				c0,0,0-0.1,0-0.1c-0.2-0.2-0.4-0.6-0.6-0.9c0,0,0-0.1,0-0.1c0,0,0,0,0,0c-0.1-0.1-0.1-0.2-0.1-0.2s0,0.1-0.1,0.2c0,0,0,0,0,0
				c0,0,0,0,0,0c-0.1,0.3-0.4,0.8-0.6,1c0,0,0,0.1,0,0.1c0,0,0,0,0,0.1c0,0,0.1,0.3,0.2,0.7c0,0.4,0,0.9-0.4,1.1
				C49,39.7,49.1,39.7,49.1,39.8z"/>
			<path fill="#E6CB01" d="M64.1,53.8c-0.2-1.6-0.6-2.2-0.9-2.5c-0.1-0.1-0.2-0.1-0.3-0.2c0.3,0,0.5-0.2,0.7-0.4
				c0.1-0.2,0.2-0.4,0.2-0.6c0-0.5-0.4-0.9-0.9-0.9c0,0,0,0,0,0c0,0,0,0-0.1,0c0,0,0,0,0.1,0c-0.1,0-0.2,0.1-0.3,0.1c0,0,0,0,0,0
				c0,0,0.1,0,0.1,0c0,0-0.1,0-0.1,0c-0.2-0.5-0.3-1.4-0.1-1.9c0,0,0.1,0,0.1,0c0.2,0,0.4-0.1,0.5-0.2c0.3-0.1,0.5-0.4,0.5-0.8
				c0-0.3-0.1-0.5-0.3-0.7c-0.1-0.2-0.3-0.3-0.6-0.3c0.6-0.2,1-0.6,1.1-1.2c0.1-0.3,0.1-0.8,0.1-1.3c-0.2-1.4-0.9-1.9-1.6-2.1
				c-0.1,0-0.1,0-0.2,0c0,0,0,0,0,0H62c0,0,0,0,0,0c0.1,0,0.1-0.1,0.1-0.1c0.2-0.2,0.4-0.5,0.4-0.8c0,0,0,0,0,0c0,0,0,0,0-0.1
				c0-0.5-0.4-0.9-0.9-0.9c0,0,0,0-0.1,0c0.2,0,0.5,0.1,0.6,0.3c-0.2-0.1-0.3-0.2-0.6-0.2c-0.5,0-0.9,0.4-0.9,0.9v0.1
				c0,0-0.1,0-0.1,0v-0.1c0,0,0,0,0,0c-0.4,0-0.8-0.2-1.1-0.4c0,0,0,0,0,0c0.2,0.2,0.5,0.3,0.7,0.4c-0.3-0.1-0.6-0.2-0.8-0.4
				c0,0,0,0,0-0.1c0,0,0,0,0.1,0c0-0.1,0.1-0.3,0.1-0.5c0,0,0,0,0-0.1c0,0,0,0,0,0c0-0.5-0.4-0.8-0.9-0.8c-0.2,0-0.3,0.1-0.5,0.2
				c0.1-0.1,0.3-0.2,0.5-0.3c-0.4,0-0.8,0.2-0.9,0.6c0-0.4-0.2-0.9-0.5-1.3c0,0-0.1-0.1-0.1-0.1c0,0-0.1-0.1-0.1-0.1
				c-0.1-0.1-0.2-0.2-0.3-0.3c-0.1,0-0.1-0.1-0.2-0.1c-0.2-0.1-0.4-0.2-0.6-0.2c0,0,0,0,0,0c-0.1,0-0.3-0.1-0.4-0.1
				c-0.2,0-0.4,0-0.6-0.1c-1.4-0.1-2.5,0.2-3.1,0.8c-0.5,0.4-0.7,1-0.7,1.7v0.1c0,0.5,0.4,0.9,0.9,0.9c0,0,0,0,0.1,0
				c-0.3,0-0.5-0.2-0.6-0.3c0.1,0.1,0.3,0.2,0.5,0.2c0.4,0,0.8-0.4,0.8-0.8c0-0.2-0.1-0.4-0.2-0.5c0.1,0.1,0.2,0.3,0.3,0.4
				c0-0.2-0.1-0.4-0.3-0.6c0.2-0.1,1-0.6,1.8-0.5c0.4,0.1,0.8,0.3,1.1,0.8c0,0,0.2,0.6,0.4,0.5c0,0,0.1,0,0.2,0c0,0-0.1,0-0.1,0
				c0.3-0.2,0.5-0.6,0.5-0.6l0,0c-0.1,0.2-0.3,0.4-0.4,0.6c0.2-0.1,0.4-0.4,0.5-0.5l0.1,0.2c-0.3,0.2-0.5,0.5-0.5,0.8
				c0,0.5,0.4,0.9,0.9,0.9c0.4,0,0.7-0.2,0.8-0.5v-0.1c0.1-0.1,0.1-0.2,0.1-0.4c0,0.2,0.1,0.4,0.3,0.6c0.1,0.1,0.1,0.2,0.2,0.3
				c0,0,0.1,0.1,0.1,0.1c0.1,0.1,0.3,0.2,0.4,0.3c0,0,0.1,0,0.1,0.1c0.2,0.1,0.4,0.2,0.6,0.2c0.5,0.2,0.9,0.2,1.2,0.2
				c0.2,0,0.3,0,0.4-0.1c-0.1,0.1-0.2,0.3-0.2,0.5c0,0.4,0.3,0.8,0.8,0.8c0.1,0,0.3,0,0.4-0.1c0.3,0.4,0.1,1.1,0.1,1.4
				c0,0-0.1,0-0.1,0c-0.3,0-0.5,0.1-0.6,0.3c-0.2,0.1-0.3,0.3-0.3,0.6c0,0.4,0.3,0.8,0.7,0.9c-0.2,0.1-0.4,0.2-0.6,0.4
				c0.2-0.2,0.5-0.3,0.7-0.4c0.1,0,0.1,0,0.2,0c-0.5,0.1-1,0.4-1.3,1.1c0.1-0.3,0.2-0.5,0.4-0.7c-0.4,0.4-0.8,1.2-0.7,2.6
				c0.2,1.6,0.6,2.3,1.4,2.6h0.1c-0.2,0-0.4,0.1-0.6,0.3c0.1-0.1,0.3-0.2,0.5-0.2h0.1h0.1c-0.5,0-0.9,0.4-0.9,0.9c0,0,0,0,0-0.1
				c0-0.3,0.1-0.5,0.2-0.6c-0.2,0.2-0.4,0.4-0.4,0.7c0,0.5,0.4,0.9,0.9,0.9c0.1,0,0.1,0,0.2,0s0.1,0,0.2,0c0,0,0.1,0,0.1,0
				c0.6,1.1,0.2,2.8-0.4,3.9c0,0,0,0,0,0c0.3-0.7,0.6-1.6,0.6-2.5c0,0.8-0.3,1.7-0.7,2.4c0,0,0,0,0,0c0-0.1-0.1-0.3,0-0.6
				c0-0.1,0-0.1,0-0.2c0,0,0,0,0,0c0,0,0-0.1,0-0.1v-0.1h-0.1c-0.3,0-0.6,0.1-0.7,0.8c-0.4-0.2-0.8-0.1-1,0.1
				c-0.1,0.1-0.2,0.3-0.2,0.6c0,0.1,0,0.2,0,0.3c0,0.1,0,0.3,0,0.4c0.3-0.2,0.6-0.2,0.7,0c0.2,0.2,0.3,0.6,0.3,0.9
				c0-0.2,0-0.4,0-0.6c0,0.2,0,0.5,0,0.7c0,0,0-0.1,0-0.1c0,0.2,0,0.3,0,0.3c-0.2,1.4-2.4,2.8-3.6,3.4c-0.3,0.1-0.5,0.2-0.8,0.2
				c-0.3,0-0.7-0.1-0.9-0.4s-0.3-0.5-0.4-0.5c-0.1,0-0.1,0.1-0.1,0.1c0,0-0.1,0-0.1,0.1c0,0.1-0.2,0.3-0.3,0.5
				c-0.2,0.1-0.4,0.2-0.6,0.1c-0.4,0-0.7-0.1-0.7-0.1c-2.2-0.1-2.7,0.7-2.8,1.5c-0.1,0.2-0.1,0.3-0.1,0.5c0,0,0,0.1,0,0.1
				c0,0.1,0,0.1,0,0.2c0,0.5,0.4,0.9,0.9,0.9c0.4,0,0.7-0.3,0.8-0.6c0.1-0.1,0.2-0.3,0.2-0.5c0-0.2,0-0.3-0.1-0.4
				c0.7-0.4,1.5-0.1,2,0.2c0.2,0.2,0.4,0.4,0.5,0.5c0.1,0.2,0.2,0.3,0.3,0.3c0.2,0.3,0.3,0,0.4-0.2c0.1-0.2,0.1-0.6,0.1-0.6
				c1.2-0.1,2.4-0.5,2.4-0.5l-0.1-0.2h0l-0.1-0.1c0.1-0.1,1.3-0.6,2.5-1.3c2.3-1.3,3.4-4.9,3.4-7.5C64.2,54.5,64.1,54.1,64.1,53.8z
				 M52.4,38.1L52.4,38.1c-0.1,0-0.1,0-0.1,0c0,0,0.7-0.6,1.6-0.5C53.1,37.6,52.4,38.1,52.4,38.1z M61.6,44.4c0,0.2,0.1,0.4,0.2,0.5
				C61.7,44.8,61.6,44.6,61.6,44.4z M62.6,43.3c0,0.2,0,0.3,0,0.3c0,0,0,0-0.1,0C62.6,43.5,62.6,43.4,62.6,43.3z M62.3,45.2
				C62.3,45.2,62.4,45.2,62.3,45.2l0.2,0c0.4,0,0.8-0.2,1-0.5c-0.2,0.3-0.6,0.5-1,0.6C62.4,45.3,62.3,45.3,62.3,45.2z M62.8,51
				C62.8,51,62.7,51,62.8,51C62.8,51,62.8,51,62.8,51C62.8,51,62.8,51,62.8,51z M60.4,57.6h-0.1c0.2-0.1,0.3-0.2,0.5-0.2
				C60.7,57.5,60.5,57.5,60.4,57.6z"/>
			<path d="M62.7,49.2c0,0,0.1,0,0.1,0C62.8,49.2,62.7,49.2,62.7,49.2z"/>
			<path fill="#E6CB01" d="M50.5,64.5C50.5,64.5,50.5,64.5,50.5,64.5c0-0.1,0-0.1,0-0.2c0.1-0.5,0.4-0.8,0.4-0.8s0,0,0,0
				c0,0,0-0.1,0-0.1s-0.3-0.2-0.6-0.3C50.2,63,50.1,63,50,63c-0.1,0-0.2,0-0.3,0.1c-0.3,0.1-0.5,0.3-0.5,0.3c0,0,0,0,0,0
				c0,0,0,0,0,0c0,0,0.1,0.1,0.1,0.3c-0.1-0.1-0.1-0.2-0.1-0.3c-0.1,0-0.1,0.1-0.1,0.1s0.5,0.8,0.4,1.4c0,0.1,0,0.1-0.1,0.1
				c-0.1,0.1-0.2,0.3-0.3,0.4c0,0,0,0,0.1,0c0,0,0,0.1-0.1,0.1c0.3,0.1,0.6,0.3,0.8,0.6c0,0.1,0.1,0.1,0.1,0.2c0,0,0,0,0,0
				c0,0,0.1,0.1,0.1,0.1c0.1-0.5,0.4-0.7,0.8-0.9c0,0,0,0-0.1-0.1c0,0,0,0,0.1,0C50.6,65.2,50.5,64.8,50.5,64.5z"/>
			<path fill="#E6CB01" d="M49.1,64.1c-0.1-0.6-0.3-1-1.1-1.3c0,0,0,0,0.1,0c-0.1,0-0.2-0.1-0.3-0.1c0.1,0,0.2,0,0.3,0.1
				c-0.4-0.2-1-0.3-2-0.3c0,0-0.2,0-0.6,0.1c-0.1,0-0.2,0-0.3,0c0.2,0.1,0.4,0.2,0.6,0.1c0,0,0,0,0,0c-0.3,0-0.5,0-0.7-0.2
				c0,0,0.1,0,0.1,0c-0.3-0.2-0.5-0.4-0.5-0.6c0-0.1,0-0.1,0-0.1c0,0,0,0,0,0c-0.1-0.1-0.1,0-0.2,0.1c0,0,0-0.1-0.1-0.1
				c0,0,0-0.1-0.1-0.1c-0.2,0-0.3,0.2-0.5,0.5s-0.6,0.4-0.9,0.4c-0.1,0-0.1,0-0.2,0c0.2,0.1,0.4,0.1,0.6,0.1c0,0,0,0-0.1,0
				c-0.2,0-0.4-0.1-0.7-0.2c0,0,0.1,0,0.1,0c-0.1,0-0.1,0-0.2-0.1c-1.3-0.6-3.4-2-3.7-3.5c0-0.1-0.1-0.6,0-1c0,0,0-0.1,0-0.1
				c0,0,0,0,0,0c0.1-0.2,0.2-0.4,0.3-0.4c0.1,0,0.2,0.1,0.3,0.1h0.1v-0.1c0,0,0,0,0,0c0.1,0,0.2,0.1,0.3,0.1c0-0.2,0-0.4,0-0.5
				c0-0.2-0.1-0.3-0.2-0.5c-0.1-0.1-0.4-0.2-0.7-0.2c0.2,0,0.3,0.1,0.4,0.2c0,0,0,0,0.1,0c-0.2-0.1-0.6-0.1-0.9,0.1
				c0-0.1,0-0.2-0.1-0.2c0,0,0,0,0.1,0v-0.1c-0.1-0.6-0.3-0.7-0.6-0.8c0,0.1,0,0.1,0,0.2c0.1,0,0.2,0.1,0.3,0.2
				c-0.1-0.1-0.2-0.1-0.3-0.1c0,0,0-0.1,0-0.1c-0.1,0-0.2-0.1-0.3-0.1h-0.1v0.1c0,0,0,0,0,0c0.1,0.2,0.2,0.5,0.3,0.7
				c0,0,0,0,0.1-0.1c0,0.4-0.2,0.4-0.2,0.4c0-0.1-0.1-0.2-0.1-0.3c0-0.1,0-0.3-0.1-0.7c-0.3-0.8-0.5-1.8-0.3-2.6
				c0-0.1,0.1-0.2,0.1-0.3c0.1,0,0.2,0,0.3,0c0.5,0,0.9-0.4,0.9-0.8c0.1-0.2,0.2-0.3,0.2-0.6c0-0.5-0.7-0.5-1.2-0.5
				c0,0,0.1,0,0.1-0.1c0,0,0.1,0,0.2,0c0.7-0.2,1.2-0.8,1.4-2.5c0.1-2-0.7-2.8-1.5-3c0,0-0.1,0-0.1,0c0.1,0,0.3,0,0.4-0.1
				c0,0-0.1,0-0.1,0h-0.1h-0.1c-0.3-0.1-0.5-0.1-0.7-0.3c0.2,0.1,0.4,0.1,0.6,0.2h0.1c0.3,0,0.5-0.2,0.7-0.4
				c-0.1,0.2-0.2,0.4-0.4,0.5c0.3,0,0.6-0.3,0.6-0.7c0-0.2-0.1-0.3-0.1-0.4c-0.1-0.3-0.3-0.6-0.8-0.6c0,0,0,0,0,0
				c0-0.3-0.1-0.8,0.1-1.2c0,0-0.1,0-0.1,0c0-0.1,0-0.1,0.1-0.2c0.1,0.1,0.3,0.1,0.4,0.1c0.4,0,0.8-0.4,0.8-0.8
				c0-0.2-0.1-0.4-0.2-0.5c0.4,0.1,1,0.2,1.7-0.1c1.1-0.3,1.5-0.8,1.7-1.3c0,0.1,0,0.1,0,0.2v0.1c0.1,0.3,0.4,0.5,0.8,0.5
				c0.3,0,0.5-0.1,0.7-0.3c0.3-0.1,0.4-0.4,0.4-0.7c0-0.1,0-0.3-0.1-0.4c0,0,0,0,0,0c0,0,0.1,0,0.2,0c-0.3-0.2-0.4-0.5-0.5-0.6
				l0.1-0.1c0,0,0.2,0.4,0.5,0.6c0,0,0,0,0,0c0,0-0.1,0.1-0.1,0.1c0.1,0,0.1,0,0.2,0c0,0,0,0,0.1-0.1c0.2-0.1,0.3-0.5,0.3-0.5
				c0.2-0.3,0.4-0.5,0.7-0.6c0.1,0,0.2-0.1,0.2-0.1c-0.1,0-0.1,0-0.2,0.1c1.2-0.6,2.4,0.3,2.4,0.3c-0.2,0.1-0.4,0.4-0.4,0.7
				c0,0.4,0.4,0.8,0.8,0.8c0.4,0,0.8-0.4,0.8-0.8c0,0,0,0,0-0.1c0-1.2-0.7-2.6-3.7-2.5c-0.7,0-1.2,0.2-1.6,0.4
				c-0.4,0.2-0.8,0.4-1.1,0.7c-0.3,0.3-0.4,0.7-0.5,1.1c-0.1-0.1-0.1-0.2-0.2-0.2c0,0-0.1,0-0.1-0.1c0,0-0.1,0-0.1,0
				c-0.1,0-0.2-0.1-0.3-0.1c0,0-0.1,0-0.1,0h0c0,0,0,0,0,0c0,0,0,0,0,0c0,0-0.1,0-0.1,0c-0.5,0-0.9,0.5-0.9,1c0,0.2,0,0.3,0.1,0.5
				c-0.1,0.1-0.2,0.2-0.4,0.3c-0.2,0.1-0.4,0.1-0.6,0.1v-0.1c0-0.5-0.4-0.9-0.9-0.9s-0.9,0.4-0.9,0.9c0,0.3,0.2,0.6,0.4,0.8
				c0,0,0.1,0.1,0.2,0.1c0,0,0,0-0.1,0h-0.1c-0.1,0-0.1,0-0.2,0c-0.7,0.2-1.4,0.7-1.6,2.1c0,0.3,0,0.5,0,0.8c0,1,0.4,1.6,1.1,1.8
				c-0.5,0.1-0.9,0.5-0.9,1c0,0.6,0.4,1,0.9,1c0.1,0,0.1,0,0.2,0c0.2,0.5,0.1,1.3-0.1,1.8c0,0-0.1,0-0.1,0c-0.5,0-0.9,0.4-0.9,0.9
				s0.4,0.9,0.9,0.9c0.1,0,0.2,0,0.3,0c0,0-0.1,0-0.2,0c0.1,0,0.2,0.1,0.3,0.1c0,0-0.1,0-0.1,0c-0.3,0-0.5,0.1-0.7,0.3
				c-0.3,0.3-0.7,0.9-0.9,2.5c-0.2,1.9,0.3,4.8,1.7,6.8c-1.4-1.9-2-5-1.8-6.9c0.2-1.5,0.6-2.1,0.9-2.4c0,0,0,0-0.1,0
				c-0.3,0.3-0.7,0.9-0.9,2.5c-0.3,2.6,0.9,7,3.5,8.5c0.5,0.2,0.9,0.4,1.3,0.6c0.5,0.3,0.9,0.5,1.1,0.6l-0.1,0.2c0,0,0,0,0.1,0
				l0.1-0.2c0.1,0,0.1,0.1,0.1,0.1l-0.1,0.2c-0.1,0-0.1,0-0.1,0l-0.1,0.1h0.1c0,0,0,0,0.1,0L41.6,64c0,0,1.1,0.4,2.2,0.5
				c0,0.1,0,0.3,0.1,0.4V65c0,0.1,0.1,0.2,0.1,0.2s0,0,0.1-0.1c0.1,0.2,0.2,0.5,0.5,0.1c0.3-0.5,1.5-1.6,2.7-0.9c0,0.1,0,0.1,0,0.2
				c0,0,0,0,0,0.1c0,0.1,0,0.2,0,0.2c0,0.5,0.4,0.9,0.9,0.9c0.5,0,0.8-0.3,0.9-0.8c0.1-0.1,0.1-0.3,0.1-0.4
				C49.2,64.4,49.2,64.2,49.1,64.1z M40.3,39.6c0.1-0.1,0.2-0.1,0.3-0.2C40.5,39.5,40.4,39.6,40.3,39.6z M42.3,39.6
				c0.1,0.3,0.4,0.6,0.7,0.6c0,0,0,0,0,0C42.7,40.2,42.4,40,42.3,39.6z M42.2,38.9c0-0.1,0-0.2-0.1-0.3
				C42.2,38.7,42.2,38.8,42.2,38.9z M40.6,38.3C40.6,38.3,40.6,38.3,40.6,38.3C40.6,38.3,40.6,38.3,40.6,38.3z M40.5,38.6
				c0,0.1-0.1,0.2-0.1,0.3C40.4,38.8,40.4,38.7,40.5,38.6z M40.3,39.6c-0.1,0.1-0.2,0.1-0.3,0.2C40.1,39.7,40.2,39.7,40.3,39.6z
				 M37.4,47.3c-0.5,0-0.9-0.4-0.9-0.9c0,0,0,0,0-0.1C36.5,46.8,36.9,47.2,37.4,47.3c0.1-0.1,0.2-0.1,0.2-0.1
				c0.1,0.3,0.1,0.7,0.1,1.1c0-0.3,0-0.7-0.1-1C37.6,47.3,37.5,47.3,37.4,47.3z M44.1,62.4c-0.2,0.3-0.5,0.4-0.9,0.4
				C43.5,62.7,43.9,62.6,44.1,62.4C44.1,62.4,44.1,62.4,44.1,62.4z M46.4,62.6C46.4,62.6,46.4,62.6,46.4,62.6
				C46.4,62.6,46.4,62.6,46.4,62.6C46.4,62.6,46.4,62.6,46.4,62.6z"/>
			<path d="M60.7,39.7c0-0.5,0.4-0.9,0.8-0.9c0,0,0,0,0,0C61,38.8,60.6,39.3,60.7,39.7C60.6,39.8,60.7,39.8,60.7,39.7L60.7,39.7z"/>
			<path d="M52.8,38.9C52.8,38.9,52.8,38.9,52.8,38.9c0,0.4-0.4,0.8-0.8,0.8c0,0,0,0,0,0C52.5,39.7,52.8,39.4,52.8,38.9z"/>
		</g>
		<path d="M52.8,38.8c0,0,0-0.1,0-0.1C52.8,38.7,52.8,38.8,52.8,38.8C52.8,38.8,52.8,38.8,52.8,38.8z"/>
		<path d="M52.8,38.7C52.8,38.7,52.8,38.7,52.8,38.7C52.8,38.7,52.8,38.7,52.8,38.7z"/>
	</g>
	<g>
		<path fill="#06884F" d="M38.5,63.5c0.1-0.2,0.3-0.3,0.4-0.4l0,0C38.8,63.2,38.6,63.3,38.5,63.5z"/>
		<path fill="#06884F" d="M50.4,68.7c-0.1,0-0.2,0.1-0.4,0.1C50.2,68.8,50.4,68.7,50.4,68.7z"/>
		<path fill="#06884F" d="M71.3,58.5"/>
		<path fill="#06884F" d="M69.4,61.5c0-0.1,0-0.2,0-0.3C69.3,61.2,69.2,61.5,69.4,61.5z"/>
		<path fill="#06884F" d="M68.5,66C68.6,66,68.6,66,68.5,66C68.5,65.9,68.4,65.9,68.5,66z"/>
		<path fill="#06884F" d="M69.7,64.4c0.1-0.1,0.2-0.1,0.3-0.2C69.4,64,69.5,64.2,69.7,64.4z"/>
		<path fill="#06884F" d="M64.7,58.9c0-0.1,0-0.1,0-0.2c0,0.1,0,0.3,0,0.4c0,0,0,0,0.1,0L64.7,58.9L64.7,58.9z"/>
	</g>
	<g>
		<g>
			<path fill="#06884F" d="M73.1,48.8"/>
			<path fill="#06884F" d="M69.4,42.2c0,0.1-0.2-1-0.2-1.5c-0.3,0.2-0.6,0-0.6,0l-1-1.6l-2.5-1.3L65,37.7v0.1c0,0,0,0.2,0,0.4
				c-0.1-0.1-0.1-0.1-0.1-0.1s0.1,0.7,0.1,1.3c0,0.2-0.6,0.5-0.6,0.5V40c0,0.1,0,0.2,0,0.2h-0.1c0.2,1.5,0.9,2.7,0.9,2.7V43
				c0,0,0.1,0.1,0.1,0.2l-0.2-0.1c0,0,1,2,1.4,2.5c0.2,0.2,0.4,0.3,0.6,0.5C66.8,46,66.4,46,66,46c-0.2,0-0.3,0-0.5,0h-0.1l0.1,0.1
				v0.1c-0.1,0-0.2,0-0.3,0c0.3,0.2,0.2,0.8,0.6,1.2c-0.3,0.1-0.6,0.4-1,0.7c-0.2,0.2-0.4,0.3-0.5,0.4l-0.1,0.1l0,0l-0.1,0.1
				c0.4,0,0.4,0.4,1.7,0.8c-0.4,0.5-0.2,1.2-0.4,1.9c0.1-0.1,0.1-0.1,0.1-0.1c0.2-0.2,0.4-0.2,0.6-0.3c0.2,0,0.3,1-0.3,0.7h-0.1v0.1
				v0.1l0,0c-0.1,0.7,0,1.1,0.2,1.7c0,0,0,0,0,0.1c0,0,0,0,0,0.1c0.1,0.2,0.2,0.4,0.3,0.6l0,0c0,0.1,0.1,0.1,0.1,0.2
				c0-0.1-0.1-0.2-0.1-0.2c-0.8-0.2-1.5-0.1-1.5-0.1c0,0.1,0,0.1,0,0.2l0,0v0.1l0,0c0.2,1,0.3,1.3,1,1.8c0,0,0,0,0.1,0
				c0.1,0.1,0.2,0.1,0.3,0.2c0,0,0,0-0.1,0l0,0c-0.1-0.1-0.2-0.1-0.3-0.2c-0.9,0.5-1.2,1.6-1.1,2.4c0-0.6,0.1,0.3,0.1,0.3l0,0
				C64.9,59,65,59,65,58.9c0,0,0.1,0,0.1-0.1c0,0,0,0.1-0.1,0.3c-0.3,0.4-0.8,0.9-0.9,1.2H64l0,0l0,0l0,0L63.7,60
				c-0.7,0.5-0.8,1.1-0.6,2.6C62.2,62.4,61,63,61,63l-0.1,0.1H61c0.2,0.1,0.3,1.3,0.3,1.3c-0.1,0-0.2,0-0.4,0
				c-0.4,0-0.9,0.1-1.3,0.4c-0.4,0.3-1.1,0.7-1.2,0.8c0,0-0.1,0-1.3,0l0,0l0,0c-0.2,0-0.3,0-0.5,0l0,0c-0.8,0.1-1.1,0.5-1.9,1.3
				c-0.1,0.2-0.2,0.3-0.4,0.5c0-0.4,0.1-0.8,0.1-0.8s-0.1-0.3-0.6-0.6c-0.2-0.1-0.3-0.3-0.6-0.4c-0.7-0.3-1-0.1-1.5,0.2
				s-1.2,1-1.3,1.1c0,0-0.2-0.1-0.4-0.1c-0.1,0-0.1,0-0.1,0c-0.2,0-0.3,0.1-0.4,0.1c-0.2-0.1-0.9-0.8-1.3-1.1s-0.7-0.6-1.5-0.2
				c-0.5,0.2-0.7,0.5-0.9,0.7s-0.2,0.3-0.2,0.3s0.1,0.3,0.1,0.6c-0.2-0.1-0.3-0.2-0.4-0.4c-0.9-0.9-1.2-1.3-2.4-1.3
				c-0.6,0-0.9,0-1.1,0l0.4-0.1v-0.1l-0.8,0.1c-0.3-0.2-0.7-0.5-1-0.7s-0.8-0.3-1.2-0.4l0,0h-0.1l0,0c-0.1,0-0.3,0-0.4,0l-0.5-0.4
				c0.1-0.1,0.2-0.3,0.3-0.4c-0.1,0.2-0.3,0.3-0.3,0.4l0,0c0,0,0.4-0.6,0.8-0.8l0,0l0.1-0.1l0.2-0.3l-0.1-0.1c0,0-1.2-0.6-2.1-0.4
				c0.2-1.5,0.1-2.1-0.6-2.6L36.1,60c-0.2-0.2-0.5-0.6-0.8-1c0-0.1,0-0.2,0-0.4l0.1,0.1l0.1,0.1v-0.1c0.1-0.8-0.2-2-1.1-2.5
				c0.5-0.4,0.7-0.7,0.8-1.4c0.1-0.2,0.1-0.5,0.2-0.8c-0.1,0-0.7-0.1-1.5,0.1c0.3-0.6,0.4-0.9,0.5-1.3c0.1-0.4,0.1-0.7,0.1-1.2v-0.1
				h-0.1c-0.5,0.2-0.9,0.4-1.3,0.6c0-0.1,0.1-0.6,0.1-1.1c0.7,0.1,0.9-0.2,1.5,0.4c0-0.1-0.1-0.3-0.1-0.4l0.1,0.1V51
				c-0.1-0.2-0.1-0.5-0.1-0.7c0-0.3-0.1-0.6-0.2-0.8c1.2-0.4,1.2-0.8,1.6-0.8c-0.1-0.1-0.2-0.2-0.3-0.2c0,0,0.1-0.1,0.2-0.1H36
				l-0.1-0.1c-0.1-0.2-0.2-0.3-0.4-0.4c-0.4-0.2-0.8-0.5-1-0.7c0.2-0.4,0.2-0.9,0.4-1c-0.1,0-0.2,0-0.4,0c0-0.1,0.1-0.2,0.2-0.3
				l0.1-0.1h-0.1c-0.2,0-0.3,0-0.5,0c-0.3,0-0.6,0-0.9,0c0.1-0.1,0.2-0.1,0.3-0.2c0.4-0.5,1.4-2.5,1.4-2.5l-0.5,0.2
				c0.2-0.3,0.3-0.5,0.3-0.6l0,0c0.4-0.5,0.8-1.3,1-2.5l-0.3,0.1c0-0.2,0.1-0.4,0.1-0.6v-0.1l-0.5,0.2c0-0.1,0-0.2,0-0.4
				c0-0.6,0.1-1.3,0.1-1.3s-0.1,0.1-0.3,0.2c0-0.4,0.1-0.8,0.1-0.8v-0.1l-0.1,0.1c0,0-1.6,1.2-2,1.9l-0.6-1.1l-0.9,2
				c-0.1,0-0.3-0.1-0.7-0.3h-0.1v0.1c0,0.2,0,0.4,0,0.6c0,0.7-0.1,1.5,0.3,2.2c-0.6-0.6-0.8-0.7-0.8-0.7H30v0.1c0,0,0,0.3,0.1,1.5
				c0.1,0.9,0.2,1.4,0.4,1.8c0.1,0.4,0.3,0.7,0.6,1c0,0,0,0,0.1,0.1c-0.3,0.1-0.6,0.2-0.8,0.4c-0.2,0-0.5,0-0.8,0h-0.1
				c-0.1,0-0.1-0.1-0.2-0.1v0.1l0,0c-0.5,0.1-1,0.1-1.3,0.1c-0.2-0.4-0.5-0.7-0.7-0.8c0.4,0,1.2,0,2.1-0.1c1.1-0.2,1.4,0.2,1.4,0.2
				l0.1-0.1c0,0-0.4-0.4-1.5-0.2s-2.2,0.2-2.2,0.2h-0.1l0.1,0.1c0,0,0.5,0.3,0.7,0.7c-0.3,0-0.5,0-0.5,0s0.6,0.4,0.8,0.8l0,0L27,49
				h0.1c0,0,0.3,0.2,0.7,0.3l-0.5,0.4c0,0,0.8,0.4,1.6,0.5c-0.1,0.4-0.3,0.8-0.3,0.8v0.1h0.1c0,0,0.2,0,0.4,0
				c-0.1,0.2-0.1,0.3-0.2,0.5l0,0h-0.1v0.1v0.1v0.1l0,0c0,0.2,0.1,0.5,0.1,1c0,0.2,0,0.5,0.1,0.7l0,0c0,0.4,0.1,0.9,0.3,1.2
				c-0.7,0.2-1.4,0.3-1.7,0.3c-0.2-0.1-0.3,0-0.3,0c0,0.1,0,0.1,0,0.1s0.1,0.3,0.4,0.6h-0.1c-0.3-0.1-0.2,0-0.2,0s0.5,1.1,1.7,1.5
				c-0.1,0.3-0.2,0.5-0.3,0.8c0,0.3-0.1,0.6-0.2,0.9v0h0.1c0.1,0,0.1,0,0.2,0c0-0.1,0-0.1,0.1-0.2c0,0.1,0,0.1,0,0.2l0,0l0,0l0,0
				c0,0.2-0.1,0.3-0.1,0.5c0.8-0.1,1.6-0.4,2.1-0.8l0,0c0.1,0.8,0.5,1,0.7,1.4v0.1l0,0c0.1,0.1,0.2,0.3,0.2,0.5l0.6-0.5l0.1,0.5
				v-0.1l0.2,0.6l0.3-0.4l0.1,0.5c-0.3-0.1-1.6-0.2-1.9-0.2c-0.4,0-0.7-0.1-0.7-0.1h-0.1v0.1c0,0,0.1,0.8,0.7,1.5
				c0.1,0.2,0.2,0.3,0.3,0.5c-0.2,0.1-0.3,0.2-0.4,0.3c-0.2,0.3-0.5,0.5-1.1,0.7h-0.1l0.1,0.1c0.2,0.2,0.4,0.3,0.6,0.4
				c-0.1,0-0.1,0-0.2,0.1c0.5,0.5,0.9,0.7,1.3,0.8c-0.2,0.3-0.3,0.6-0.3,0.6v0.1h0.1c0,0,0.2,0,0.5-0.1c-0.1,0.3-0.2,0.5-0.2,0.5
				s0.8-0.1,1.5-0.2c0,0.2,0,0.5-0.1,0.8c0.1-0.2,0.1-0.5,0.1-0.8c0.1,0,0.2,0,0.3,0c0,0,0,0.3,0,0.6c-0.1,0.1-0.2,0.1-0.4,0.2v0.1
				h0.1c0.1,0,0.2-0.1,0.2-0.1c0,0.2-0.1,0.4-0.1,0.5c0.7-0.2,1.5-1,1.5-1s0.1,0.2,0.3,0.5c0.1,0.2,0.2,0.5,0.3,0.7V68
				c0,0,0-0.1,0.1-0.1c0.1,0.2,0.2,0.3,0.2,0.5c0.7-0.6,1.1-1.6,1.1-1.6s0.3,0.1,0.7,0.3c-0.3,0.2-0.7,0.6-1,0.8
				c0.3-0.2,0.7-0.6,1-0.8c0.2,0.1,0.4,0.1,0.6,0.2c-0.1,0.1-0.2,0.1-0.4,0.2v0.1c0,0,0.1,0,0.1-0.1c-0.2,0.1-0.4,0.3-0.6,0.5
				c-0.3-0.1-0.6-0.2-0.8-0.2L36.4,68h0.1c0.2,0,0.5,0.1,0.8,0.1c-0.2,0.1-0.3,0.3-0.5,0.4c1.2,0.2,2.9,0.8,4,0.3c0,0,1.2-1.1,2-0.8
				c0,0,0.1,0.3,0.5,0.6c-0.4,0-0.7,0.1-0.7,0.1l0.6,0.4L42.5,70c0,0,0.1,0,0.1-0.1V70c0,0,0.1-0.1,0.3-0.1v-0.1c0,0,0.1,0,0.2,0
				c-0.1,0-0.1,0-0.2,0.1c0.1,0,0.3,0,0.5,0c0.6,0,2.8,0,3.5,0.1c0.7,0,2.6-1.2,2.7-1.3c0.1,0,0.2,0.1,0.4,0.1s0.4-0.2,0.4-0.2l0,0
				v0.1c0.1,0.1,0.6,0.6,1,0.9c0.4,0.4,1,0.5,1.7,0.4c0.8,0,6.2-1.2,6.2-1.2c0.3,0.1,0.7,0.2,1.1,0.2c0.7,0,1.4-0.1,2.1-0.3
				c0.4-0.1,1.2-0.2,1.2-0.2s-0.5-1.4-0.3-1.5c0.2,0.3,1.2,1.4,1.3,1.5v-0.1c0.2-0.6,0.6-1.3,0.8-1.5c0.1,0.1,0.3,0.2,0.5,0.4
				c0.3,0.2,0.6,0.5,1,0.6h0v-0.1c-0.1-0.3-0.1-1-0.1-1.2c0.7,0.1,1.8,0.2,1.8,0.2h0.1v-0.1c0,0-0.2-0.3-0.3-0.6
				c-0.1,0,1.1-0.6,1.7-1.3l0.1-0.1h-0.1c-0.2-0.1-0.3-0.1-0.5-0.2c-0.1,0.1,0-2.8,0-2.8v-0.1h-0.1c0,0-0.1,0-0.2,0
				c0,0.1,0,0.1-0.1,0.2c0,0-0.7-1.6-0.5-1.8c0.2-0.3,0.4-0.6,0.5-1.1c0.5,0.4,1.3,0.6,2,0.7l0,0h0.1h0.1v-0.1
				c-0.1-0.2,0.2-2.5,0.5-2.8c0.5-0.5,0.8-1,0.8-1v-0.1c-0.1,0-0.1,0-0.2,0c0,0.1-0.1,0.1-0.2,0.2c-0.1,0-0.1-0.1,0.1-0.2h0.1
				c0.1-0.2,0.2-0.3,0.2-0.3s-0.1,0-0.2,0c-0.3,0.1-1.4-1.5-1.4-1.9c0-0.8,0.3-1.8,0.3-1.8s-0.1-0.3-0.2-0.7c-0.1,0,0-0.2,0,0
				c0.1,0,0.2,0,0.2,0c-0.1-0.1-0.1-0.3-0.2-0.6c0.8-0.1,1.5-0.5,1.5-0.5l-0.1-0.1c0.2-0.1,0.3-0.1,0.3-0.1h0.1c0,0-0.7-1.9-0.5-2.1
				c0.1-0.1,0.1-0.1,0.1-0.1l0,0c0.1-0.1,0.2-0.2,0.2-0.2L73,47h-0.2c0,0-0.1,0-0.3,0c-0.1,0.1-3-1.1-2.9-1.2c0-0.1,0.1-0.2,0.1-0.2
				s0,0-0.1,0.1c0.1-0.3,0.2-0.7,0.2-1.2c0.1-1.2,0.1-1.5,0.1-1.5 M28.3,49h-0.1v0.1L28,49.2c-0.4-0.1-0.7-0.2-0.8-0.3l1-0.7
				c0.2,0.4,0.5,0.5,0.5,0.5L28.3,49z M35.1,54.3C35.1,54.3,35.1,54.4,35.1,54.3c-0.3,0.1-0.8,0.1-1.4,0.2c0-0.1,0.1-0.1,0.1-0.2
				C34.4,54.2,34.9,54.3,35.1,54.3z M34.2,56.6c-0.1,0-0.2-0.1-0.3-0.1c0,0,0,0,0.1,0C34,56.5,34.1,56.6,34.2,56.6z M34.2,43.4
				l-0.3,0.1c0,0,0.2-0.1,0.4-0.3C34.3,43.3,34.2,43.3,34.2,43.4z M35,39.9l0.4-0.1c0,0.2-0.1,0.4-0.1,0.6l-0.5,0.1
				C34.8,40.5,34.9,40.2,35,39.9z M32.8,39.6c0.4-0.6,1.6-1.6,2-1.9c0,0.1,0,0.5-0.1,0.8l-0.1,0.1l-0.1-0.1c0,0.1-0.1,0.1-0.1,0.3
				c-0.5,0.4-1.1,1-1.3,1.3l0,0c0-0.2,0-0.4-0.1-0.5l-0.1,0.1c0,0,0.1,0.1,0.1,0.2L32.8,39.6L32.8,39.6z M30.2,51.5
				C30.2,51.6,30.2,51.6,30.2,51.5c0.1,0.1,0.1,0.1,0.1,0.1s0,0,0.1,0c-0.1,0.3-0.1,0.7-0.1,0.7c0.1,0,0.4-0.1,0.6-0.2
				c0,0.2-0.1,0.4-0.1,0.5c-0.2-0.1-0.8-0.4-1.1-0.6c-0.1-0.1-0.3-0.2-0.4-0.3C29.6,51.6,29.9,51.6,30.2,51.5z M28.8,50.9
				c0.1-0.1,0.1-0.4,0.2-0.7c0.1,0,0.2,0,0.3,0c0,0.2-0.1,0.4-0.1,0.7C29,50.9,28.9,50.9,28.8,50.9z M29.2,57.8
				c0.1-0.2,0.1-0.4,0.2-0.5h0.1C29.4,57.5,29.3,57.7,29.2,57.8z M29.1,55.5L29.1,55.5L29.1,55.5c-0.2,0.1-0.4,0.1-0.6,0.1
				c-0.1,0-0.2,0-0.3,0v0.1c-0.2,0-0.3,0-0.5,0c-0.1-0.2-0.2-0.3-0.2-0.4c0.1,0,0.1,0,0.2,0c0.2,0.1,0.9-0.1,1.7-0.2
				c0.1,0.2,0.2,0.3,0.2,0.3C29.4,55.4,29.2,55.5,29.1,55.5z M30.8,53.4L30.8,53.4c-0.1-0.1-0.1-0.2-0.1-0.3V53h-0.1v0.1
				c0,0.1,0,0.1,0,0.2c-0.3-0.1-0.7-0.4-0.9-0.5c-0.2-0.1-0.4-0.2-0.5-0.3c0-0.3-0.1-0.5-0.1-0.7c0.1,0.1,0.5,0.2,0.7,0.4
				c0.3,0.2,1.1,0.6,1.1,0.6l0,0C30.9,53,30.8,53.3,30.8,53.4z M30.7,47.1L30.7,47.1c0.2-0.1,0.4-0.2,0.7-0.3l0,0
				C31.1,46.9,30.9,47,30.7,47.1z M30.2,42.9c0,0,0,0.3,0.1,1.5c0,0.3,0.1,0.6,0.1,0.8c-0.1-0.3-0.2-0.7-0.2-1.3
				c-0.1-0.8-0.1-1.2-0.1-1.4c0.1,0.1,0.4,0.3,1,0.9c0.1,0.1,0.1,0.3,0.2,0.4c0,0.1,0.1,0.1,0.1,0.2C30.4,43,30.2,42.9,30.2,42.9z
				 M31.6,41.1c0-0.2,0-0.4,0-0.5h-0.1C31.5,40.6,31.5,40.8,31.6,41.1c-0.2-0.1-0.4-0.2-0.7-0.4c0,0.6-0.2,1.4,0,2.1
				c-0.3-0.6-0.3-1.3-0.2-2c0-0.1,0-0.3,0-0.5c0.4,0.2,0.7,0.3,0.7,0.3l0.8-1.9l0.3,0.5l-0.3,0.6l0,0c0,0,0,0,0,0.1L31.6,41.1
				C31.7,41.1,31.7,41.1,31.6,41.1z M31.7,52.4c0-0.1,0-0.1,0.1-0.2l0,0l0.1-0.2l0.3-0.2l0.1,0.3L31.7,52.4z M31.9,51.9l0.1-0.5
				c0,0,0.1,0.1,0.3,0.2L31.9,51.9z M32.3,46.7c0.2-0.3,0.5-0.5,0.7-0.7c0.3,0,0.7,0,1.1,0c0.1,0,0.3,0,0.4,0c0,0-0.1,0.1-0.1,0.2
				C33.4,46.2,32.8,46.2,32.3,46.7z M32.5,52.6L32.5,52.6C32.5,52.5,32.5,52.5,32.5,52.6C32.5,52.5,32.5,52.6,32.5,52.6z M32.5,51.7
				c0.2,0.1,0.4,0.3,0.6,0.4c-0.2,0.1-0.4,0.2-0.5,0.2L32.5,51.7z M32.6,52.8L32.6,52.8l0.1-0.2l-0.1-0.1c0.3-0.2,1-0.5,1.6-0.7
				c0,0.1,0,0.1,0,0.2C33.4,52.4,32.6,52.8,32.6,52.8z M31.5,63.9h-0.1V64L31.5,63.9c-0.2,0.2-0.3,0.2-0.4,0.3
				c-0.1,0.1-0.3,0.1-0.4,0.1c0.1,0,0.2-0.1,0.3-0.1c-0.1,0.1-0.3,0.2-0.5,0.3c-0.1-0.1-0.2-0.2-0.4-0.3c0.6-0.2,0.8-0.5,1.1-0.7
				C31.3,63.4,31.7,63.8,31.5,63.9z M32,66c-0.1,0-0.3,0-0.3,0c0.1-0.1,0.2-0.2,0.3-0.4c0.1,0,0.2,0,0.2,0
				C32.1,65.7,32.1,65.9,32,66z M32.3,61.9L32.3,61.9L32.3,61.9c-0.2,0-0.3,0-0.4,0c-0.1-0.1-0.2-0.2-0.3-0.3l-0.1,0.1
				c0.1,0.1,0.1,0.1,0.2,0.1c-0.1,0-0.1,0-0.2,0c-0.2-0.1-0.4-0.1-0.5-0.1c-0.1-0.2-0.1-0.3-0.1-0.4c0.1,0,0.3,0.1,0.6,0.1
				c0.3,0.1,1.4,0.2,1.8,0.2l0.1,0.4C33.4,62,32.8,62,32.3,61.9z M33.8,61.5L33.4,60l0,0L33.8,61.5L33.8,61.5z M34.3,59.5
				C34.1,60,34,60.6,33.9,61l-0.3-1.3c0.1-0.1,0.1-0.2,0.2-0.3c0.2-0.2,0.4-0.5,0.5-0.9c0.1,0,0.2,0,0.4,0.1
				C34.6,58.8,34.5,59.1,34.3,59.5z M34.8,58.9c0.1,0,0.1,0.1,0.2,0.2C34.9,59,34.9,58.9,34.8,58.9z M36,60.4L36,60.4L36,60.4
				l0.3-0.4c0,0,0,0,0,0.1L36,60.4z M43.2,69.8L43.2,69.8h0.2C43.3,69.8,43.3,69.8,43.2,69.8z M46.8,65.7c0.1-0.1,0.2-0.1,0.3-0.1
				c-0.1,0-0.3,0.1-0.4,0.2C46.7,65.8,46.7,65.7,46.8,65.7z M46.5,67c0.3-0.2,1.1-0.1,1.4,0.1c0.2,0.1,0.5,0.3,0.8,0.5
				c-0.1,0-0.3,0-0.4,0.1c-0.4,0.1-0.9,0-1.4-0.3C46.5,67.2,46.5,67.1,46.5,67C46.5,67.1,46.5,67,46.5,67z M46.8,67.6
				c-0.4-0.2-0.4-0.3-0.4-0.4C46.4,67.3,46.5,67.4,46.8,67.6c0.4,0.2,0.9,0.3,1.3,0.2c0.2-0.1,0.6-0.1,0.7-0.1
				c0.1,0.1,0.2,0.1,0.2,0.1s-0.4,0-0.8,0.1C47.8,68,47.3,67.9,46.8,67.6z M49.4,67.1c0,0-0.8-0.8-1.3-1.1c-0.4-0.3-0.6-0.5-1-0.4
				c0.5-0.1,0.7,0,1.1,0.3C48.6,66.2,49.2,66.8,49.4,67.1C49.4,67,49.4,67.1,49.4,67.1z M50.6,67.1c0.2-0.3,0.8-0.7,1.1-1
				c0.2-0.1,0.3-0.2,0.4-0.3C52,65.9,52,65.9,51.9,66C51.4,66.3,50.6,67.1,50.6,67.1L50.6,67.1z M51,67.8L51,67.8
				c0.1,0,0.5,0,0.9,0.1c0.1,0,0.2,0,0.3,0c-0.1,0-0.3,0-0.4,0C51.4,67.8,51,67.8,51,67.8z M53.1,69.9c-0.5,0-0.9,0-1.3-0.2
				C52.1,69.9,52.6,69.9,53.1,69.9L53.1,69.9z M51.8,67.8c-0.3-0.1-0.5-0.1-0.6-0.1c0.2-0.1,0.5-0.3,0.7-0.5
				c0.1-0.1,0.2-0.1,0.3-0.1c0.2-0.2,0.9-0.2,1.2-0.1c0.1,0.1,0.2,0.1,0.2,0.2c0,0-0.1,0.1-0.4,0.3C52.7,67.8,52.2,67.9,51.8,67.8z
				 M64.1,60.4L64.1,60.4L64.1,60.4L64.1,60.4L64.1,60.4z M64.1,60.4C64.1,60.3,64.1,60.3,64.1,60.4c0.2-0.3,0.6-0.8,0.8-1.1
				C65,59.2,64.3,60.2,64.1,60.4z M69.2,58.7L69.2,58.7L69.2,58.7L69.2,58.7z"/>
		</g>
	</g>
</g>
<g>
	<path opacity="0.2" enable-background="new    " d="M10.4,74.3V25.8c0-12.1,8.2-22.7,19.8-25.8H0v100h30.2
		C18.5,96.9,10.4,86.3,10.4,74.3z"/>
	<path opacity="0.1" fill="#FFFFFF" enable-background="new    " d="M89.6,25.8v48.5c0,12.1-8.2,22.7-19.8,25.8H100V0H69.8
		C81.5,3.1,89.6,13.7,89.6,25.8z"/>
</g>
<g>
	<g>
		<g>
			<path fill="#AE5939" d="M40.5,50.5C40.5,50.5,40.4,50.6,40.5,50.5C40.5,50.6,40.5,50.5,40.5,50.5z"/>
			<path fill="#AE5939" d="M40.3,50.7c0,0,0.1-0.1,0.1-0.1C40.4,50.6,40.3,50.6,40.3,50.7z"/>
			<path fill="#AE5939" d="M40.1,51c0.1-0.1,0.1-0.2,0.2-0.3C40.2,50.8,40.2,50.8,40.1,51L40.1,51z"/>
			<polygon fill="#AE5939" points="41.6,46.1 41.6,46.1 41.6,46.1 			"/>
			<path fill="#AE5939" d="M40.7,45.9c0.3,0,0.6,0.1,0.9,0.2c-0.2-0.1-0.4-0.2-0.5-0.2C40.9,45.9,40.8,45.8,40.7,45.9z"/>
			<path fill="#AE5939" d="M45.2,42.1l-0.1-0.2c0,0-0.1,0-0.2,0c0,0.1,0,0.2,0.1,0.2C45,42.1,45.1,42.2,45.2,42.1z"/>
		</g>
	</g>
</g>
<path d="M60.7,51c-0.1-0.1-0.1-0.2-0.2-0.2c0,0,0,0,0,0l-0.1-0.1c0,0,0,0,0,0c0.1-0.1,0-0.3,0-0.4c-0.1-0.2-0.1-0.4-0.1-0.6
	c-0.1-0.2-0.3-0.2-0.4-0.2l-0.3-0.7c-0.1,0-0.1-0.1-0.2-0.1c0,0,0,0,0,0.1l-0.1,0c0,0,0,0,0,0c-0.1-0.1-0.3,0-0.5-0.1c0,0,0,0,0,0
	l-0.9-0.2L57.8,48c0.1,0,0.2,0,0.3,0c0.1-0.1,0.2-0.3,0.2-0.4c0-0.1-0.1-0.1-0.1-0.1c-0.1-0.3-0.2-0.2-0.4-0.3l0-0.2
	c0-0.1,0.1-0.2,0.1-0.2c0.8,0.3,1.4,0.6,2.1,1c0.2,0.1,0.3,0.3,0.5,0.1c0,0,0-0.1,0-0.1c0,0,0,0,0.1,0c0-0.1,0-0.1-0.1-0.2
	c0,0,0-0.1,0-0.1c-0.8-0.4-1.6-0.7-2.4-1.1c-0.2,0-0.2-0.2-0.2-0.4c-0.1-0.3-0.1-0.6-0.3-0.7l-0.9-0.3l-0.2,1.4l0.1,0.2c0,0,0,0,0,0
	c0,0.1,0.1,0.2,0,0.3c-0.4,0-0.7,0-1.1-0.1c-0.2-0.1-0.3-0.3-0.3-0.6l0.8-2.4c0.1,0,0.2,0,0.3,0l0.6,0.3c0.3,0,0.5,0.2,0.7,0.1
	c0.1,0,0.1-0.2,0.2-0.3c0.1-0.3,0-0.6-0.1-0.8c-0.1-0.3-0.4-0.4-0.6-0.5c-0.3-0.2-0.7-0.4-1-0.6c-0.2,0-0.5,0-0.7-0.1
	c0-0.1,0.1-0.1,0.1-0.2c0-0.3,0.3-0.2,0.4-0.3c0.1-0.1,0.1-0.2,0.1-0.3c-0.1-0.2-0.3-0.1-0.5-0.2c0,0,0-0.1,0-0.1l0.1-0.3
	c0,0-0.2-0.1-0.3-0.2c0,0,0,0-0.1-0.1h-0.1c-0.1,0-0.3,0.1-0.4,0.1c0,0,0,0,0,0c0-0.1,0.2,0,0.3-0.1c-0.1-0.2-0.4,0-0.5-0.1
	c-0.1-0.1-0.2-0.2-0.1-0.3c0.3-0.1,0.7-0.1,1.1-0.2c0.1-0.1,0.1-0.1,0.1-0.2c-0.6-0.1-1.2-0.1-1.5,0.1c-0.2,0-0.3,0.1-0.4,0.2
	c-0.4,0.3-0.7,0.6-0.8,1c0,0.1,0.1,0.1,0.1,0.1c0.3-0.2,0.6-0.5,0.9-0.7c0.3-0.1,0.2,0.3,0.4,0.4c0,0.3-0.3,0.1-0.4,0.2
	c0,0-0.1,0.1-0.1,0.2s0,0.2,0.1,0.2c0.1,0.1,0.3,0.1,0.3,0.2c-0.1,0.3-0.2,0.5-0.2,0.6c-0.1,0-0.1,0-0.2,0c-0.2,0-0.4,0-0.6,0.1
	c0,0,0,0,0,0c-0.1,0-0.1,0-0.1,0s-0.2,0.4-0.4,0.7c-0.1,0.1-0.2,0.2-0.2,0.3c0,0-0.2,0.7-0.3,1.2c-0.2,0-0.4-0.1-0.6,0
	c0,0-0.1-0.1-0.1-0.1c-0.2-0.1-0.4,0-0.6,0c-0.2,0-0.4,0-0.6,0c-0.3,0-0.5,0-0.8,0l-0.3-0.4c0,0,0,0,0,0c-0.1-0.1-0.2-0.3-0.2-0.4
	c0,0,0,0-0.1,0c0-0.1-0.1-0.1-0.1-0.2c0-0.2,0-0.3,0-0.4c-0.1-0.1-0.2-0.3-0.4-0.3L48,42.8c-0.1,0-0.2,0-0.2,0.1
	c-0.1,0-0.1,0.1-0.1,0.1l-0.2,0c0-0.1-0.1-0.2-0.1-0.3c-0.1-0.1-0.2-0.3-0.3-0.4c-0.1-0.1,0-0.3-0.1-0.4c-0.1-0.1-0.2-0.1-0.4-0.2
	l-0.1-0.4l0.5-0.5c0-0.1-0.1-0.2-0.1-0.2c-0.1-0.1-0.2-0.1-0.3-0.1c-0.1-0.1-0.2-0.2-0.3-0.2c0,0,0,0-0.1-0.1
	c-0.1-0.2-0.2-0.3-0.4-0.3c-0.1,0-0.1,0-0.1,0l-0.3,0.1L45,41c-0.1-0.1-0.3-0.1-0.4,0c0,0.3,0.2,0.4,0.4,0.5
	c0.1,0.3,0.2,0.7,0.2,0.8c0,0,0,0,0,0c-0.1,0-0.3,0.1-0.3,0.1c0,0.1-0.1,0.1-0.1,0.1c-0.1,0-0.2,0.1-0.2,0.1l0,0.1c0,0,0,0-0.1,0
	c0,0,0,0.1,0,0.1l0,0c-0.1,0.1-0.3,0.2-0.3,0.4c0,0.1,0,0.2-0.1,0.3c-0.2,0.1-0.3,0.4-0.4,0.6c0,0,0,0.1,0,0.1l-0.8,1.3
	c0-0.2-0.2-0.3-0.4-0.4c-0.1,0-0.2,0.2-0.3,0.3c-0.1,0.1-0.1,0.1-0.1,0.2l-0.2-0.5c0-0.1,0.1-0.3,0.1-0.4v-0.1
	c-0.1,0.1-0.1,0.2-0.2,0.3l-0.2-0.6c0-0.2,0.2-0.3,0.1-0.4c-0.1,0-0.1,0.1-0.1,0.1h-0.1c0-0.1-0.1-0.3,0.1-0.4
	c0.1-0.2,0.2-0.4,0.2-0.6c0,0,0,0,0,0c0,0,0-0.1,0.1-0.1c0.1,0,0.2,0,0.2,0c0.2-0.1,0.1-0.2,0.1-0.3c-0.1,0-0.1,0-0.1,0c0,0,0,0,0,0
	c0-0.1,0.1-0.1,0.1-0.1c0.1,0-0.2-0.2-0.3-0.4c0,0,0,0,0,0c0.1,0,0.3,0,0.3-0.1c-0.2-0.1-0.4,0-0.5,0c-0.1,0.2-0.3,0.3-0.4,0.5
	c0-0.1,0-0.1,0-0.1c0.1-0.1,0.1-0.2,0.2-0.3v-0.1c-0.2,0.1-0.2,0.3-0.3,0.4c-0.1,0.1,0,0.2-0.1,0.3c-0.1,0.1,0,0.1,0,0.2
	c-0.1,0.2,0,0.4,0.1,0.5l0,0.3c0,0,0,0,0,0c-0.1,0-0.1,0-0.2,0.1c0,0.2-0.2,0.3-0.2,0.4c0,0.1-0.1,0.2,0,0.2c0-0.1,0-0.2,0.1-0.3
	c0.1-0.1,0.2-0.2,0.3-0.2l-0.1,1c-0.3,0.2-0.5,0.5-0.6,0.8c-0.1,0.3-0.3,0.4-0.4,0.7c0.1,0.1,0.2-0.2,0.3-0.2
	c0.3-0.3,0.5-0.6,0.8-0.9c0.1,0,0.1-0.1,0.2-0.1c0,0,0,0,0,0c0,0.1,0.1,0.2,0.1,0.3c0.1,0.1,0.2,0.2,0.2,0.3c0,0.1,0,0.1,0,0.2
	C41.2,46,41,45.9,40.8,46c-0.1,0-0.2,0.2-0.2,0.3c0,0,0.1,0,0.2,0c0.2,0.1,0.4,0.1,0.6,0.1c0,0-0.1,0.1-0.1,0.1c-0.1,0-0.1,0-0.2,0
	c-0.2,0-0.3,0.1-0.4,0.3c-0.3,0-0.7-0.1-1,0c0,0-0.1,0.2-0.2,0.1c-0.1,0-0.1,0.1-0.1,0.2c0,0.1,0,0.1,0.1,0.1c0.3-0.1,0.6-0.1,0.9,0
	c0,0.1,0,0.2-0.1,0.4c0,0.1-0.1,0.3-0.1,0.5c0,0.1-0.1,0.1-0.1,0.2c-0.1,0.1-0.2,0.2-0.3,0.3c-0.1,0.1-0.2,0.2-0.1,0.3
	c0.1,0,0.1,0,0.1,0c0.1-0.2,0.2-0.4,0.4-0.5c0,0.1,0,0.2,0,0.4c0,0,0,0.1,0,0.1c-0.2,0.2-0.2,0.5-0.4,0.7c-0.2,0.1-0.4,0.4-0.6,0.5
	c0,0.1,0,0.1,0,0.1c0.1,0,0.3,0,0.4,0c0,0.2,0,0.4,0,0.6c-0.1,0.2-0.2,0.4-0.2,0.6c0,0.1-0.1,0.1-0.1,0.2c0.2,0,0.1,0.2,0.1,0.7
	c0,0.1-0.1,0.3-0.1,0.4c0,0,0.1,0,0.1,0c0,0.2,0,0.5,0.1,0.8c0.1,0.7,0.9,1.4,1.9,2v0.1h0.1c0.6,0.4,1.3,0.7,2.1,1c0,0,0,0,0,0
	c0,0,0,0,0,0c0.2,0.1,0.4,0.2,0.6,0.2c0.1,0,0.2,0.1,0.3,0.1c0.4,0.3,0.8,0.5,1.1,0.6c0.4,0.2,1.9,0.5,3,0.7c0,0,0,0,0,0
	c0.1,0,0,0.1,0,0.1c0,0.1,0.1,0,0.1,0c0,0,0-0.1,0-0.1c0.5,0.1,0.9,0.2,1,0.2c0.2,0,2.3-0.4,3.3-0.9c0.8-0.4,3.1-0.3,2.9-0.8
	c4-1,3.7-2.6,4.5-3.4c0.9-0.9,0.4-1.1,0.6-1.5C61.2,51.4,60.7,51,60.7,51z M41,43.3L41,43.3c0.1-0.3,0.2-0.5,0.2-0.7
	c0-0.1,0.1-0.1,0.2-0.2L41,43.3z"/>
<path fill="#06884F" d="M58.2,51.4c-0.1,0.1-1.3,0.7-1.3,0.7s-0.8,0.2-1.9,0.5c-1.2,0.2-3,0.6-3.7,0.7c-1,0.2-2-0.3-3.4-0.7
	c-0.1,0-0.1,0-0.1,0c0-0.1,0.1-0.2,0.1-0.2h-0.1c0,0.1-0.1,0.1-0.1,0.2c-1-0.2-0.8,0.1-1.7-0.1c0,0-0.1,0-0.1,0c0-0.1,0-0.1,0-0.2
	h-0.1c0,0.1,0,0.1-0.1,0.2c-0.1,0-0.2,0-0.3,0c0-0.1-0.1-0.2-0.4-0.3c0,0.1,0,0.2,0,0.3c-0.2,0-0.6,0-1.4-0.1
	c-1.7-0.1-1,0.3-1.4,0.7c-0.3,0.2-0.4,0.7-0.3,1.1l0,0.1c0,0,0.1,0.1,0.2,0.2c0,0,0,0,0,0.1c0.1,0.2,0.3,0.3,0.5,0.4
	c0.1,0.1,0.2,0.2,0.2,0.2c0.1,0.1,0.2,0.2,0.2,0.2l5,1c0,0,2,0.8,2.6,0.7s1.8-0.2,2.1-0.3c0.4-0.1,3.6-1,3.6-1l1.6-1.7l1.9-1.3
	l0.2-1.6C60.2,51.2,58.3,51.3,58.2,51.4z"/>
<path fill="#AE5939" d="M47.4,52.4c-0.5-2,0.1-2.3,0.1-3c0-0.7,0-1.3,0-1.7c0-0.4,0-2,0.1-2.1c0.1-0.1,0.2-0.7,0.2-0.7
	s2.1-0.8,2.6-0.7s1.6,0.7,2.2,1c0.5,0.3,0.7,0.2,0.9,1.4c0.3,1.2,0.5,2.2,0.3,3c-0.2,0.8-0.1,1.5-0.1,2.2c0,0.7,0.3,0.9-0.1,1
	c-0.3,0.1-1.5-0.4-2.3,0c-0.8,0.4-0.4,0.7-1.8,0.4S47.4,52.4,47.4,52.4z"/>
<path fill="#E6CB01" d="M47.5,43.3c-0.2-0.5-0.4-0.9-0.5-1.3c-0.1-0.4-0.5-0.1-0.7-0.4c-0.2-0.3-0.6-0.8-0.7-0.8s-0.3,0.1-0.3,0.9
	c0,0.7-0.1,0.4-0.4,0.5c0,0,0-0.1,0.1-0.1c-0.2,0-0.3-0.1-0.5,0c-0.1,0.2-0.3,0.5-0.5,0.6c0,0.1-0.2,0.2-0.2,0.4
	c0,0.1-0.1,0.2,0,0.3c-0.3,0.4-0.6,0.8-0.8,1.2c-0.1,0.1-0.1,0.2-0.2,0.2c-0.2,0.1-0.1,0.2-0.1,0.3c0,0.1-0.1,0.1-0.1,0.1
	c-0.1,0-0.1,0-0.1,0c0,0,0,0,0,0.1c-0.2,0.1-0.3,0.1-0.6,0.4c-0.5,0.5-0.1,0.7,0.6,0.4c0.7-0.3,0.7-0.6,1.3-1.4
	c0.6-0.7,0.5-0.3,0.5-0.3s-0.1,0.8-0.4,1.4c-0.3,0.6-0.2,1.7-0.3,2.9c-0.1,1.2,0.2,1.6,0.3,2.6s-0.5,0.7-0.7,0.8
	c-0.2,0.1,0.4,0.2,0.9,0.1c0.5-0.1,0.3,0,0.9,0l0-0.1c0,0,0.3-0.7,0.5-0.9c0.2-0.3,0.5-1.4,0.7-2.8c0-0.1,0-0.2,0.1-0.3
	c0,0,0,0,0-0.1c0-0.1,0-0.1,0-0.2c0.1,0,0.1,0.2,0.2,0.2c0.1-0.1,0.2-0.3,0.2-0.4c-0.1-0.1-0.2,0-0.3,0c0,0,0,0-0.1,0
	c0-0.1,0-0.1,0-0.2c0,0,0.1,0,0.1,0c0.1-0.1,0.2-0.1,0.2-0.2c-0.1-0.2-0.1-0.5-0.1-0.7c0-0.1,0.1-0.2,0.1-0.3c0,0,0,0.1,0,0.1
	c0-0.1,0-0.1,0-0.2c0-0.1,0-0.1,0-0.1c0.5-1.5,0.6-0.6,0.9-1C47.9,44.5,47.7,43.9,47.5,43.3z M44.8,42.3
	C44.8,42.3,44.7,42.3,44.8,42.3C44.7,42.3,44.8,42.3,44.8,42.3z M44.2,42.7L44.2,42.7c0.1,0,0.1,0.1,0.1,0.1
	c-0.1,0.1-0.3,0.3-0.4,0.4C44,43,44.1,42.9,44.2,42.7z"/>
<path fill="#0476E1" d="M56,48.5c0.1-0.2,0.1-0.4,0-0.6c-0.1-0.4-0.2-0.7-0.4-1c0,0,0-0.1,0-0.1c0-0.1,0-0.3-0.1-0.4
	c0-0.1-0.1-0.2-0.1-0.3c0-0.1,0.1-0.1,0.1-0.2c0-0.1-0.1-0.1-0.1-0.1c0,0-0.1,0-0.1,0c0-0.1-0.1-0.1-0.1-0.2c0,0-1.6,0.1-1.6,0.3
	c0,0.2,0.1,0.5,0.2,0.9c0,0.1,0,0.1,0,0.2c0.1,0.4,0.2,0.7,0.2,1.1c0.1,0.1,0.1,0.2,0.1,0.3c0,0.1,0,0.3,0,0.4c0,0,0,0-0.1,0
	c0,0.1,0,0.1,0.1,0.1c0,0.1,0,0.2,0,0.3c0,0,0-0.1-0.1-0.1c0,0.1,0,0.1,0,0.2c0,0.1,0,0.1,0.1,0.1c0,1.1,0,2.2,0,2.2l0.1,0.3
	c0,0,0.3,0.3,0.4,0.4s0.8-0.4,0.8-0.4s-0.3-0.4-0.4-0.6c-0.1-0.2,0.2-0.5,0.3-1.4C55.5,49,55.8,48.9,56,48.5z"/>
<path fill="#FF3516" d="M57.4,43.4c-0.1,0-0.3-0.4-0.4-0.6s-0.5-0.4-1-0.4s-0.4-0.6-0.4-0.9c0-0.4-0.4-0.3-0.4-0.3s-0.3-0.4-0.5-0.3
	c-0.2,0.1-0.4,0.5-0.4,0.6c0,0.1,0.2,0.5,0.3,0.6c0,0.1,0,0.2,0,0.2s-0.7,0.1-1,0.3c-0.3,0.2-0.3,0.3-0.4,0.5
	c-0.2,0.2,0.2,0.3,0.2,0.4s0,0.1-0.2,0.8c-0.1,0.3-0.1,0.4,0,0.4c0,0,0,0.1,0,0.1c0,0.1,0.8,0.6,0.9,0.7c0.1,0,1,0,1,0l0.3-0.1
	c0.1,0.1,0.2,0.2,0.4,0.1c0.2-0.2,0.2-0.5,0.3-0.8c0-0.2,0.1-0.4,0.1-0.5c0,0,0,0,0.1,0.1c0.4,0.4,1.3-0.2,1.6-0.4
	C57.9,43.6,57.5,43.4,57.4,43.4z"/>
</svg>
