<?xml version="1.0" encoding="utf-8"?>
<!-- Generator: Adobe Illustrator 23.0.0, SVG Export Plug-In . SVG Version: 6.00 Build 0)  -->
<svg version="1.0"
	 id="svg2" xmlns:cc="http://creativecommons.org/ns#" xmlns:dc="http://purl.org/dc/elements/1.1/" xmlns:inkscape="http://www.inkscape.org/namespaces/inkscape" xmlns:rdf="http://www.w3.org/1999/02/22-rdf-syntax-ns#" xmlns:sodipodi="http://sodipodi.sourceforge.net/DTD/sodipodi-0.dtd" xmlns:svg="http://www.w3.org/2000/svg"
	 xmlns="http://www.w3.org/2000/svg" xmlns:xlink="http://www.w3.org/1999/xlink" x="0px" y="0px" viewBox="0 0 100 100"
	 enable-background="new 0 0 100 100" xml:space="preserve">
<sodipodi:namedview  bordercolor="#666666" borderopacity="1" fit-margin-bottom="0" fit-margin-left="0" fit-margin-right="0" fit-margin-top="0" gridtolerance="10" guidetolerance="10" id="namedview732" inkscape:current-layer="svg2" inkscape:cx="92.260216" inkscape:cy="358.50059" inkscape:guide-bbox="true" inkscape:pageopacity="0" inkscape:pageshadow="2" inkscape:window-height="1004" inkscape:window-maximized="1" inkscape:window-width="1280" inkscape:window-x="-8" inkscape:window-y="-8" inkscape:zoom="2.7287678" objecttolerance="10" pagecolor="#ffffff" showgrid="false" showguides="true">
	</sodipodi:namedview>
<path id="path154" inkscape:connector-curvature="0" fill="#002986" d="M0,100h100V0H0V100z"/>
<g>
	<path d="M35.3,54.9c0,0.2,0,1.2,0,1.4c0,0.1,0.1,0.8,0.3,1.1c0,0,0,0.2,0,0.4v0.1c0,0.4,0,1,0.1,1.2c0,0.1,0.1,0.2,0.2,0.2
		c0.1,0,0.2-0.1,0.2-0.1c0-0.1-0.1-1.2-0.1-1.3s0-0.1,0.1,0c0,0,0.1,0.1,0.2,0.1c0.3,0,0.6-0.5,0.6-0.6c0,0-0.1,1.2,0,1.4
		c0,0.1,0,0.2,0,0.2s0.1,0.4,0.1,0.5s-0.2,1,0,1.7c0,0-0.2,0-0.2-0.2c0-0.1,0.1-0.1,0.1-0.2c0-0.1-0.1-0.2-0.3-0.3v-0.1
		c0,0,0.1-0.2-0.1-0.4c-0.1-0.1-0.5-0.2-0.7,0c-0.1,0.1-0.4,0.4-0.2,0.9c0,0.1,0.3,0.5,0.7,0.8c0.1,0,0.5,0.2,1,0.2
		c0.1,0,1.3,0,1.7-0.1c0.1,0,0.5-0.1,0.7-0.1c0.2,0.1,0.2,0.1,0.2,0.2c0,0.1-0.1,0-0.2,0.1c0,0-0.3,0-0.3,0.5c0,0.3,0.3,0.6,0.7,0.7
		c0.4,0,0.6-0.4,0.6-0.4s0,0,0.1,0c0,0,0.2,0.4,0.4,0.5c0.2,0.2,0.4,0.2,0.5,0.2s0.1,0.1,0.1,0.1s-0.2,0-0.3,0
		c-0.2,0-0.4,0.1-0.5,0.2c0,0.1,0.2,0.1,0.2,0.1c0.2,0.1,0.7,0.5,0.8,0.6c0.2,0.2,0.8,0.5,1.1,0.6c0.7,0.2,1.5,0.1,1.5,0
		c0,0-0.2,0.2-0.2,0.4c0,0.3,0.2,0.3,0.3,0.3s0.2-0.2,0.3-0.2c0,0,0,0.6,0.8,0.7c0.7,0,0.8-0.7,0.7-0.8h-0.1c0,0-0.2-0.1-0.1-0.3
		c0-0.1,0.3-0.1,0.4-0.1c0.1,0,0.8,0.2,1,0.2c0.4,0,0.6-0.1,0.7-0.2c0.1,0,0.1,0.1,0.2,0.2c0.1,0,0.2,0,0.2,0s0.2,0.4,0.3,0.4
		s0.3-0.4,0.4-0.4c0.4,0,0.4-0.2,0.4-0.2c0-0.1,0.3,0.2,0.6,0.2c0.6,0.1,1,0,1.1-0.1c0.1,0,0.4,0,0.5,0.1S52,65.5,52,65.5
		s-0.1,0-0.1-0.1s-0.1,0.2,0,0.5c0.1,0.1,0.3,0.4,0.7,0.4c0.5,0,0.7-0.6,0.7-0.6s0.2,0.3,0.5,0.1c0.2-0.1,0.1-0.4,0-0.5v-0.1
		c0,0,0.6,0,0.8,0c0.6,0,1.3-0.3,1.5-0.5c0.1-0.1,0.9-0.6,1-0.7s0.5-0.2,0.5-0.3c0,0-0.2-0.2-0.5-0.2s-0.5,0.1-0.5,0.1
		s0-0.2,0.1-0.2s0.3-0.1,0.4-0.2c0.2-0.1,0.5-0.5,0.5-0.5c0-0.1,0.2,0.5,0.7,0.4c0.5,0,0.6-0.3,0.7-0.5c0-0.1,0-0.3,0-0.3
		c-0.1,0-0.2,0.2-0.3,0.2s-0.3,0-0.3,0c0-0.1,0.3,0,0.5-0.2C59,62.2,59.1,62,59,62s-0.2,0-0.2-0.1s0.1-0.2,0.3-0.1
		c0.3,0,1.5,0.2,2.2,0.2c0.2,0,1-0.1,1.5-0.5c0.1-0.1,0.4-0.4,0.4-0.8S63,60.2,63,60.2s0.7-0.1,1.2-0.4c0.3-0.2,1.2-0.9,1.1-1
		s-0.5,0.3-1.2,0.4c-0.6,0.1-1,0.2-1.1,0.1c0,0,0.1-0.5,0-0.6v-0.1c0-0.1,0.3-3.1,0.3-3.5c0.1-0.4,0.2-1.8,0.2-1.8
		c0-0.1,0.4-0.6,0.4-0.7c0-0.1,0.2-0.4,0.2-0.5s0-0.6-0.1-0.7c0-0.1-0.2-0.4-0.2-0.5s0.3-1.1,0.3-1.8c0-0.1,0.2-0.2,0.2-0.3
		s0-0.2,0-0.3s0.1-0.3-0.1-0.6c-0.1-0.1,0-0.4-0.3-0.5c0,0-0.1-0.6-0.5-1.2l-0.2-0.8c0-0.1-0.1-0.7-0.9-1.3c-0.1,0-0.7-0.3-0.8-0.3
		s-0.7-0.3-0.9-0.6c-0.1-0.1,0-0.5,0-0.6s0.2-0.2,0.2-0.4c0-0.1,0.2-0.2,0.1-0.4c0,0,0.1-0.1,0.1-0.3c0,0,0.5,0,0.6-0.4
		c0-0.4-0.7-0.5-0.8-0.5V40c0-0.1-0.3-0.2-0.5-0.3c-0.2,0-1.8,0.2-1.8,0.3s0,0.6-0.1,0.7c0,0-0.7,0.1-0.7,0.4c0,0.2,0.7,0.3,0.7,0.4
		c0,0,0,0.2,0.1,0.3V42c0,0-0.1,0.2,0.1,0.5c0,0,0,0.4,0.1,0.5c0,0,0.1,0.2,0.1,0.3c0,0,0,0.3,0.2,0.4c0,0,0,0,0,0.1
		c-0.2,0.2-1.2,0.4-1.5,0.6c-0.5,0.3-0.7,0.6-0.7,0.7h-0.1c0,0-0.6-1.4-0.8-1.5s-0.9-0.2-2.3,0.6c-0.1,0.1-0.1,0-0.2,0L53.2,44
		c0,0,0-0.1,0.1-0.1s0.3,0,0.2-0.1c0-0.1-0.2-0.1-0.2-0.1c-0.1,0-0.3-0.2-0.6-0.2s-0.6,0-0.7,0c0,0,0-0.3-0.2-0.3
		c-0.2-0.1-0.4-0.1-0.4,0c0,0,0,0.2-0.2,0.2c-0.1,0-0.6,0.1-1.2-0.2c-0.1-0.1,0-0.4-0.4-0.4c0,0,0-0.1-0.3-0.1c0,0-0.1-0.2-0.2-0.1
		l0,0l0,0H49c-0.1,0-0.3,0-0.3,0.3c0,0-0.2,0.3-0.7,0.3c-0.1,0-0.6,0-0.7-0.1c0-0.1,0-0.3-0.4-0.2c-0.1,0-0.3,0.1-0.3,0.3
		c0,0-0.4,0-0.7,0.1c-0.2,0.1-0.6,0.2-0.5,0.3c0,0.1,0.2,0.1,0.2,0.1c0,0.1-0.2,0-0.4,0.2c0,0-0.7-0.3-1-0.5
		c-0.3-0.1-1.1-0.3-1.3-0.2c-0.1,0.1-1,1.4-1,1.5c0,0,0-0.1-0.1-0.3c-0.1-0.1-0.2-0.2-0.2-0.3c0,0,0-0.3-0.1-0.4
		c-0.1-0.1-0.3-0.3-0.5-0.3c-0.1,0-0.6-0.3-0.7-0.4c-0.1,0,0-0.1,0-0.1c0-0.1,0.1-0.2,0-0.2v-0.1c0,0,0.1-0.1,0-0.2v-0.1
		c0,0,0.1-0.1,0-0.2v-0.2c0,0,0-0.3,0-0.4v-0.3c0,0,0.9-0.4,0.8-0.8c-0.1-0.4-1-0.3-1-0.3s0,0-0.1,0c0,0,0-0.3-0.2-0.4
		c-0.2-0.1-0.7,0-1,0.1s-0.9,0.3-1.1,0.6c-0.1,0.1,0,0.4,0,0.4s-0.6,0.4-0.7,0.7c0,0.1-0.1,0.3,0.2,0.4c0.1,0,0.7,0,0.7,0
		s0,0.1,0.4,0.5c0,0,0,0.1,0,0.2c0,0-0.2,0-0.5,0.5c0,0-0.3,0.2-0.4,0.4c0,0-0.3,0.2-0.4,0.2c-0.1,0-0.3,0-0.5,0.2
		c0,0-0.2,0.2-0.3,0.2s-0.1,0.1-0.2,0.1c0,0-0.4,0.2-0.5,1.2c0,0.1-0.3,0.5-0.5,1.6c0,0.1-0.2,0.4-0.1,0.6c0,0.1-0.1,0.1,0,0.4
		c0,0.1,0.1,0.8,0.1,1s0.1,0.8,0.1,0.8c0.1,0.1,0,0.2,0.1,0.2s-0.1,0.4-0.1,0.5c0,0,0.1,0.5,0.1,0.6s0,0.3,0,0.4s0.1,0.1,0.1,0.1
		s0.2,0.1,0.2,0.3c0,0.1-0.2,0.4-0.2,0.7s0.2,0.6,0.2,0.7C35.5,53.3,35.3,54.7,35.3,54.9"/>
	<path d="M49.1,42.5C49.2,42.5,49.1,42.5,49.1,42.5L49.1,42.5z"/>
	<path d="M49.1,42.5L49.1,42.5C49.1,42.6,49.1,42.5,49.1,42.5L49.1,42.5z"/>
</g>
<g id="path80">
	<path inkscape:connector-curvature="0" fill="#BE0A2F" d="M47.3,50.7h0.4V53c0,0-0.1-0.1-0.2-0.1c-0.1-0.1-0.2-0.2-0.2-0.2V50.7"/>
</g>
<g id="path82">
	<path inkscape:connector-curvature="0" fill="#BE0A2F" d="M48,50.7h0.4v2.5c0,0-0.2,0-0.2-0.1c-0.1,0-0.2,0-0.2,0V50.7"/>
</g>
<g id="path84">
	<path inkscape:connector-curvature="0" fill="#BE0A2F" d="M48.7,50.7h0.4v2.7c0,0-0.1,0-0.2-0.1c-0.1-0.1-0.2-0.1-0.2-0.1V50.7"/>
</g>
<g id="path86">
	<path inkscape:connector-curvature="0" fill="#BE0A2F" d="M49.4,50.7h0.4v2.6c0,0-0.1,0-0.2,0c-0.1,0-0.2,0.1-0.2,0.1V50.7"/>
</g>
<g id="path292">
	<path inkscape:connector-curvature="0" fill="#FFCC18" d="M42.7,51.3c0,0-0.7,2.1-0.5,3.3c0.2,1.3,0.7,2.5,2.3,3.2
		c0.4,0.2,2.5,0.4,2.9,0.4c0.9,0.1,1.5,0.8,1.5,0.8v-3.8c0,0-0.2,0-0.3-0.1s-0.2-0.3-0.2-0.3l-0.2-0.1c0,0-0.2,0.1-0.4,0
		s-0.3-0.3-0.3-0.3s-0.8-0.6-1.2-1c-0.7-0.8-0.8-2.3-0.8-2.3L42.7,51.3"/>
</g>
<g id="path294">
	<path inkscape:connector-curvature="0" fill="#FFCC18" d="M43,43.6l-0.7,1.2c0,0,0.8,0.2,1.1,1c0.4,1.2,0.2,2.4,0.1,3.1
		c-0.1,0.3-0.5,1.9-0.5,1.9h2.7c0,0,0.1-1.2,1-2.1c1.2-1.2,2.6-1.3,2.6-1.3v-3.9c0,0-1.1,0.1-1.6,0.3C47,44,46,44.7,46,44.7
		s-0.7-0.5-1.2-0.7C43.7,43.7,43,43.6,43,43.6"/>
</g>
<g id="path398">
	<path inkscape:connector-curvature="0" fill="#FFCC18" d="M48,49.1c0,0,0.5-0.4,1.2-0.4s1.2,0.4,1.2,0.4s-0.2,0-0.3-0.1
		c-0.1,0-0.2,0-0.4,0s-0.5,0.2-0.5,0.2S49,49,48.8,49s-0.5,0.1-0.6,0.1C48.1,49.2,48,49.1,48,49.1"/>
</g>
<g id="path400">
	<path inkscape:connector-curvature="0" fill="#FFCC18" d="M47.1,50.1c0,0-0.3,0.5-0.3,0.9c0,0.9,0.1,1.1,0.1,1.1s-0.1-0.5,0.2-1.2
		c0-0.1,0.1-0.5,0-0.5C47.2,50.3,47.1,50.1,47.1,50.1"/>
</g>
<g id="path402">
	<path inkscape:connector-curvature="0" fill="#FFCC18" d="M47.5,53l0.2,0.2c0.1,0.1,0.2,0.2,0.2,0.2s0.2-0.1,0.3-0.1l-0.1-0.1
		c0,0-0.3,0-0.3-0.1C47.5,53,47.5,53,47.5,53"/>
</g>
<g id="path404">
	<path inkscape:connector-curvature="0" fill="#FFCC18" d="M48.8,53.4c0,0,0.1,0.2,0.1,0.3c0,0,0.5,0.1,0.8,0
		c0.2-0.1,0.6-0.3,0.8-0.3c0.1,0,0.5-0.3,0.5-0.3s-0.3,0.1-0.5,0.1s-0.6,0.2-0.8,0.2c-0.2,0.1-0.4,0.2-0.4,0.2s-0.1-0.1-0.2-0.2
		C48.9,53.5,48.8,53.4,48.8,53.4"/>
</g>
<g id="path420">
	<path inkscape:connector-curvature="0" fill="#FFCC18" d="M48.7,42.6c-0.1,0.1,0,0.2,0,0.2s-0.1,0.3-0.7,0.4c-1,0.2-1-0.3-1-0.3
		s-0.3,0-0.3,0.1c-0.1,0.2,0.2,0.3,0.3,0.4c0.4,0.1,0.6,0,1.2-0.1c0.5-0.1,0.9-0.3,0.9-0.5C49,42.7,48.9,42.6,48.7,42.6"/>
</g>
<g id="path536">
	<path inkscape:connector-curvature="0" fill="#FFFFFF" d="M47.3,50.7v2c0,0-0.3-0.3-0.3-0.7s0.1-0.7,0.2-0.9
		C47.3,50.9,47.3,50.7,47.3,50.7L47.3,50.7"/>
</g>
<g id="path538">
	<path inkscape:connector-curvature="0" fill="#FFFFFF" d="M47.7,52.9v-2.3H48V53h-0.1C47.7,53,47.7,52.9,47.7,52.9"/>
</g>
<g id="path540">
	<path inkscape:connector-curvature="0" fill="#FFFFFF" d="M48.4,53.1v-2.4h0.3v2.6c0,0-0.1,0-0.2,0C48.4,53.2,48.4,53.1,48.4,53.1"
		/>
</g>
<g id="path542">
	<path inkscape:connector-curvature="0" fill="#FFFFFF" d="M49.1,53.4v-2.7h0.3v2.7c0,0,0,0-0.1,0.1l-0.1,0.1
		C49.2,53.6,49.2,53.4,49.1,53.4L49.1,53.4"/>
</g>
<g id="path552">
	<path inkscape:connector-curvature="0" fill="#FFFFFF" d="M50.8,54.5c0,0-0.4,0.2-0.6,0.3C50,54.9,49.4,55,49.4,55s0-0.1-0.1-0.1
		c0,0-0.8,0-0.8-0.1c0,0,0.3,0,0.4,0l-0.2-0.1H49l-0.2-0.1H49c0,0-0.1,0-0.1-0.1H49c0,0-0.3-0.1-0.2-0.2c0.1-0.1,0.6,0.2,0.9,0.2
		C50.3,54.4,50.8,54.5,50.8,54.5"/>
</g>
<g id="path556">
	<path inkscape:connector-curvature="0" fill="#FFFFFF" d="M48.7,54.9L48.7,54.9L48.7,54.9C48.7,55,48.7,55,48.7,54.9"/>
</g>
<g id="path562">
	<path inkscape:connector-curvature="0" fill="#FFFFFF" d="M47.7,54.1c0.2,0,0,0.5,0.2,0.6c0.2,0,0.4-0.4,0.5-0.4
		c0.1-0.1,0.1-0.6-0.1-0.7c-0.2-0.1-0.4,0.2-0.5,0.2c-0.1-0.1,0.3-0.5,0.6-0.3c0,0,0.4,0.2,0.1,0.9c-0.1,0.2-0.3,0.5-0.6,0.5
		C47.6,54.8,47.7,54.1,47.7,54.1"/>
</g>
<g id="path564">
	<path inkscape:connector-curvature="0" fill="#FFFFFF" d="M52.7,51.1c0,2.1-1.5,3.1-1.5,3.1l0.1-0.2c0,0-0.2,0.1-0.3,0.2
		c-0.1,0-0.3,0.1-0.4,0.1L51,54c-0.1-0.1-0.6,0.4-0.8,0.3c-0.1,0,0.5-0.3,0.5-0.4c0,0-0.7,0.4-0.7,0.3c0-0.1,0.6-0.3,0.5-0.4
		c0-0.1-0.4,0.2-0.4,0.1c0-0.1,0.7-0.4,0.7-0.4c0-0.1-0.4,0.3-0.5,0.2l0.1-0.1c0,0,1.4-0.7,1.4-2.5c0-0.8-0.8-2.5-2.6-2.5
		c-1.5,0-2.6,1.4-2.6,2.4c0,1.9,1.1,2.4,1.1,2.5l-0.2-0.1c0,0,0.2,0.2,0.1,0.2l-0.2-0.1c-0.1,0,0.2,0.2,0.1,0.2l-0.2-0.1
		c-0.1,0.1,0.2,0.2,0.2,0.3c0,0-0.2-0.1-0.3-0.1c0,0,0.2,0.2,0.1,0.2l-0.2-0.1l0.2,0.2l0,0c0,0-1.6-0.7-1.6-3.2
		c0-1.5,1.5-3.4,3.5-3.4C51.5,47.7,52.7,49.9,52.7,51.1"/>
</g>
<g id="path566">
	<path inkscape:connector-curvature="0" d="M47.2,54.8c0.1,0.1,0.7,0.9,0.8,1s0,0.7-0.1,0.8s-0.2,0.2-0.3,0.2s-0.1,0.2-0.3,0.3
		c-0.1,0.1-0.4,0.1-0.5,0.2c-0.1,0-0.1,0.1-0.2,0.1c-0.1,0-0.2-0.1-0.3-0.1s-0.8,0.4-0.9,0.4c-0.2-0.1-0.4-0.4-0.5-0.5
		c-0.3-0.1-0.8-0.9-0.9-1c-0.1-0.2-0.3-0.9-0.5-0.9c-0.1,0-0.3-0.2-0.3-0.2S43,55.1,43,55c-0.1-0.1,0-0.4,0-0.4
		c-0.1-0.2,0.1-0.3,0.1-0.3c0-0.1,0.2-0.2,0.2-0.3c0.1-0.2,0.2-0.1,0.2-0.1s0.1-0.2,0.3-0.2c0.1,0,0.3,0.1,0.3,0.1l0.6-0.5
		c0,0,0.1-0.2,0-0.2c0-0.1-0.1-0.2-0.1-0.2l-0.2-0.3c0,0-0.1-0.2,0.2-0.4c0.2-0.1,0.4,0,0.4,0l0.2,0.2c0,0,0.2,0.2,0.3,0.3
		s0.2,0.3,0.2,0.3c0,0.1,0,0.1,0,0.1l0.3,0.4c0,0-0.1,0.2-0.2,0.3c-0.1,0.1-0.3,0.1-0.3,0.1l-0.3-0.4H45c0,0-0.7,0.5-0.7,0.6
		c0.1,0.3,0.1,0.7,0.1,0.7c0.1,0.1,0.2,0.4,0.4,0.5c0.1,0.1,0.7,0.5,0.7,0.5s0.1,0,0.1-0.1c0-0.3,0.2-0.6,0.3-0.6
		c0.2-0.3,0.7-0.3,0.7-0.3S47,54.6,47.2,54.8"/>
</g>
<g id="path760">
	<path inkscape:connector-curvature="0" d="M48.4,44.9c0,0.1-0.2,0.2-0.4,0.3s-0.3,0.3-0.3,0.3l0.3,0.1c0,0,0.3-0.3,0.5-0.4
		c0.3-0.2,0.4-0.2,0.4-0.2v0.5c0,0-0.5,0.3-0.8,0.6c-0.5,0.4-0.8,1-0.8,1.1s0.3,0.1,0.2,0.3c0,0.3-0.3,0.5-0.4,0.5
		c-0.1,0.1-0.3,0.1-0.4,0.1c-0.1,0.1-0.3,0.4-0.3,0.4h-2.2c0,0,0.4-0.3,0.6-0.4c0.2-0.1,0.5-0.6,0.6-0.6c0.1-0.1,0.1,0,0.1,0v-0.1
		c0,0-0.8,0-0.9,0c-0.1,0,0,0.2,0,0.2s0.2,0,0.3,0.2c0,0.1-0.1,0.3-0.3,0.3s-0.3-0.1-0.4-0.3c-0.1-0.2,0.1-0.3,0-0.4
		c0,0-0.1,0-0.2,0c-0.1,0-0.1,0.3-0.2,0.3c-0.1,0.1-0.2,0-0.2-0.1v-0.2c0,0-0.2-0.1-0.2-0.3c0-0.1,0.1-0.2,0.1-0.2h0.2
		c0,0,0.1-0.1,0.2-0.1c0.1,0,0.2,0.1,0.2,0.1h0.4c0,0,0.1-0.1,0.2-0.1c0.1,0,0.2,0.1,0.2,0.1h0.3c0,0,0-0.1,0.2-0.1
		c0.1,0,0.2,0.1,0.2,0.1h0.1c0,0,0-0.1,0.2-0.1c0.1,0,0.2,0.1,0.2,0.1h0.2c0,0,0.8-1.2,0.9-1.5c0.4-0.6,0.9-0.7,0.9-0.7
		S48.5,44.7,48.4,44.9"/>
</g>
<g id="g9792">
	<g id="g9786">
		<g id="path616">
			<path inkscape:connector-curvature="0" fill="#002986" d="M50.1,64.3h4.8c0,0-0.2,0.2-0.5,0.1c-0.1,0-1.6-0.1-1.7,0
				c0,0-0.3-0.1-1-0.1c-0.2,0-0.8,0.1-0.9,0.1C50.3,64.4,50.1,64.3,50.1,64.3"/>
		</g>
		<g id="path618">
			<path inkscape:connector-curvature="0" fill="#002986" d="M50,64C50.1,63.9,50.1,63.9,50,64l0.1,0.3c0,0-0.1,0-0.1-0.1
				C49.9,64.1,49.9,64,50,64L50,64"/>
		</g>
		<g id="path692">
			<path inkscape:connector-curvature="0" fill="#002986" d="M45.6,65.3c0.1,0.1,0.3,0.2,0.3,0.2S45.7,65.5,45.6,65.3
				c-0.2-0.1-0.1-0.2-0.1-0.2C45.6,65,45.6,65.2,45.6,65.3"/>
		</g>
		<g id="path786">
			<path inkscape:connector-curvature="0" fill="#002986" d="M52.4,65.5c-0.2,0.1-0.5-0.1-0.5-0.1S52.2,65.5,52.4,65.5
				c0.3-0.2,0.1-0.6,0.1-0.6S52.9,65.2,52.4,65.5"/>
		</g>
	</g>
	<g id="g9758">
		<g id="g9704">
			<g id="path676">
				<path inkscape:connector-curvature="0" fill="#002986" d="M38.8,61v-0.2c0,0,0.1-0.2,0.2-0.2c0.1,0,0,0.1,0.2,0.2
					c0.2,0,0.5,0,0.5,0s0-0.1,0.1-0.1s0.2,0.2,0.5,0.3c0.4,0.2,0.9,0.1,0.9,0.2c0,0.2-0.8-0.1-0.9-0.2C39.7,61,38.8,61,38.8,61"/>
			</g>
			<g id="g9688">
				<g id="path658">
					<path inkscape:connector-curvature="0" fill="#002986" d="M39,55.4c0,0.1,0.1,0.1,0.1,0.2c0,0.1-0.1,0.2-0.1,0.3
						s0.1,0.2,0.1,0.2c-0.2,0.4-0.2,0.7-0.3,1.1c0,0.1,0.1,2.6,0,2.6l-0.2-0.6c0.2-0.9-0.1-2.4-0.1-2.5c0.2-0.5,0-0.8,0.1-0.8
						c0.1-0.1,0.2-0.7,0.2-0.7C39,55.1,39,55.3,39,55.4"/>
				</g>
				<g id="g9683">
					<g id="path680">
						<path inkscape:connector-curvature="0" fill="#002986" d="M41.6,61.8c0.1-0.1,0.2-0.3,0.2-0.2s0.2,0.1,0.2,0.2
							c0,0.3,0.3,0.6,0.3,0.6s-0.3,0-0.5,0c-0.2,0.1-0.2,0.4-0.3,0.4l0,0c0-0.1-0.3-0.7-0.3-0.8S41.4,62,41.6,61.8"/>
					</g>
					<g id="path684">
						<path inkscape:connector-curvature="0" fill="#002986" d="M42.5,62.9c0-0.2-0.1-0.3-0.1-0.3v-0.1c0,0,0.1,0,0.1,0.1
							c0.3,0.7,0.5,0.5,0.6,0.6c0.3,0.5,0.7,0.5,0.7,0.5c0.5,0.6,0.6,0.4,0.6,0.4c0,0.1,0.2,0.3,0.2,0.3s-0.5,0.2-1.3-0.1
							c-0.4-0.1-0.6-0.4-0.5-0.7c0-0.1,0.1-0.2,0.1-0.2s0-0.1-0.3-0.2c-0.2,0-0.4,0.3-0.5,0.2c-0.1,0-0.1-0.2-0.1-0.2
							S42.4,63.2,42.5,62.9"/>
					</g>
					<g id="path722">
						<path inkscape:connector-curvature="0" fill="#002986" d="M46.3,59.2c0,0,0.2,0.2,0.1,0.3c0,0.1-0.3-0.1-0.9,0.1
							c-0.1,0-0.3,0-0.6,0.1c0,0-0.4-0.1-0.6,0c-0.1,0-0.2-0.1-0.5,0c-0.1,0-0.1-0.2-0.4-0.2c0,0-0.1-0.1-0.4-0.2c0,0,0-0.2-0.2-0.2
							c0,0,0-0.2-0.2-0.3c0,0,0-0.2-0.1-0.3c0,0,0-0.2-0.1-0.3c0,0,0-0.2-0.1-0.3c0,0-0.1-0.2,0-0.2c0,0,0.3,0.1,0.3,0.2
							c0.1,0-0.2,0.2-0.2,0.2c0,0.1,0.1,0,0.1,0.1c0.1,0,0.3,0.2,0.5,0.3s0.7,0.1,0.7,0.1s-0.2,0.1-0.1,0.2c0,0.1,0.1,0.1,0.2,0.1
							c0,0,0.2,0.1,0.4,0.1c0.3,0.1,0.8,0,0.8,0s0.1,0.1,0,0.1c0,0-0.1,0.1,0,0.2c0.1,0,0.3-0.1,0.4-0.1c0.1,0,0.3,0,0.5,0
							C46,59.3,46.2,59.2,46.3,59.2"/>
					</g>
				</g>
			</g>
		</g>
		<g id="g9741">
			<g id="g9726">
				<g id="path720">
					<path inkscape:connector-curvature="0" fill="#002986" d="M47,59.7c0,0,0.2-0.1,0.2-0.3c0,0,0-0.1,0.2-0.1
						c0.4,0,0.6,0.3,0.6,0.4c0,0.1,0,0.2,0,0.4c0,0.1,0,0.1,0,0.2c0,0,0,0-0.1,0s-0.1,0.1-0.1,0.1s-0.1-0.3-0.3-0.3
						c-0.1,0-0.1,0-0.1-0.1c0,0,0-0.1-0.1-0.2c0-0.1-0.1,0-0.2,0C47,59.8,47,59.7,47,59.7"/>
				</g>
				<g id="g9715">
					<g id="path588">
						<path inkscape:connector-curvature="0" fill="#002986" d="M60.9,59.2L60.9,59.2c0-0.1,0.1-0.2,0.1-0.4c0-0.1,0.5-1.3,0.6-2.2
							c0-0.2,0.4-0.3,0.2-0.5l0.2-0.5c0-0.1-0.1-0.3-0.1-0.4c0-0.2,0.1-0.2,0.1-0.3s-0.1-0.2-0.2-0.4c0-0.2,0.1-0.7,0.1-1
							c0-0.2-0.1-0.2-0.1-0.3s0.2-1.1,0.3-1.5c0.1-0.7,0-1.1,0-1.1c0-0.1,0.1-0.2,0.1-0.3s-0.1-0.2-0.1-0.3s0-0.2,0-0.3
							S62,49.6,62,49.5c0-0.2,0.2-0.3,0.2-0.4c0-0.1,0-0.5,0.1-0.7c0.1-0.1,0.1,0.3,0.3,0.5c0,0-0.1,0.5,0.2,0.8
							c0.1,0.1,0.1,1,0,1.1c0,0.2-0.2,0.4-0.2,0.5s0,0.5,0,0.6s0.1,0.3,0.1,0.4c0,0.1,0,0.2,0,0.2c0.1,0.1,0.2,0,0.2,0
							s-0.7,5.1-0.7,5.3c0,0.3-0.1,0.3-0.2,0.4c0,0.1-0.1,0.6-0.1,0.6s-0.1,0.1-0.6,0.1C61.3,59.3,60.9,59.2,60.9,59.2"/>
					</g>
					<g id="path590">
						<path inkscape:connector-curvature="0" fill="#002986" d="M57.2,61.1c0.1,0,0.5-0.3,0.6-0.3l0.1,0.1c0.3,0,0.6-0.2,0.6-0.3
							v-0.2c0.2-0.4-0.1-0.5,0-0.7s0-0.5,0-0.6s0.1-0.2,0.1-0.3s0-0.2-0.1-0.2c0,0,0-0.1,0-0.2c0.2-0.5,0.1-2,0.1-2.1
							s0.3-0.5,0.3-0.6s-0.1-0.4-0.1-0.5c0.3-0.3,0.4-1.5,0.5-1.6c0.2-0.1,0.2-0.5,0.2-0.4c0,0,0.1,0.8,0.1,0.9
							c0,0.1-0.1,0.4-0.2,0.6c0,0.2,0.1,0.4,0.1,0.5s0,0.4,0,0.6c0,0.2,0.2,0.3,0.2,0.4c0,0.1,0,0.1,0,0.1c-0.2,0.4-0.1,1.3-0.1,1.4
							c0,0.2-0.1,0.8-0.1,0.9c0,0.1,0.1,0.1,0.1,0.2c0,0.1-0.1,0.2-0.2,0.3c0,0.1-0.2,0.9-0.1,1.1c0.1,0.3,0.3,0.2,0.4,0.3
							c0.1,0.1,0.2,0.5,0.2,0.6s0.3,0.3,0.3,0.3s-1-0.2-1.7-0.1c-0.9,0-1.4,0.3-1.4,0.3s0-0.1-0.1-0.2c-0.1-0.1-0.2-0.1-0.2-0.1
							S57,61.1,57.2,61.1"/>
					</g>
					<g id="path592">
						<path inkscape:connector-curvature="0" fill="#002986" d="M56.7,62.8c0,0,0-0.2-0.2-0.3s-0.5,0-0.5,0v-0.2h-0.3l-0.6-0.9h0.1
							v-0.6h-0.4L54.3,60h0.1v-0.7h-0.5l-0.1-0.2c0,0,0.6-0.1,0.7-0.2c0.1-0.1,0.2,0,0.2-0.1s-0.2-0.2-0.2-0.2s0.4,0,0.6,0
							c0.2,0,0.6-0.2,0.7-0.2c0.1,0,0.3,0,0.3,0s-0.1-0.2-0.2-0.3c-0.1-0.1-0.4-0.2-0.4-0.2s0.6-0.2,0.9-0.4
							c0.3-0.3,0.6-0.9,0.6-0.9s0.1,2.2,0.1,2.3c0.1,0.1,0,0.3,0.1,0.4c0,0,0,0.2,0,0.3c0,0.3-0.4,0.5-0.4,0.6S56,60.7,56,60.9
							c0,0.1,0,0.2,0,0.2c0.1,0.1,0.7,0.1,0.7,0.1s-0.2,0.1-0.2,0.4c0,0.4,0.6,0.4,0.6,0.4s-0.1,0.3-0.2,0.4
							C56.8,62.7,56.7,62.8,56.7,62.8"/>
					</g>
					<g id="path594">
						<path inkscape:connector-curvature="0" fill="#002986" d="M55.8,46.6c0-0.1,0-0.3,0.2-0.6c0.2-0.2,0.4-0.4,0.5-0.4
							c0,0-0.2,0.6-0.3,0.7C56,46.6,55.8,46.6,55.8,46.6"/>
					</g>
					<g id="path620">
						<path inkscape:connector-curvature="0" fill="#002986" d="M51.3,59.9c0.3,0,0.4-0.2,0.4-0.3c0.1-0.1,0-0.4,0-0.4
							s0.3,0.1,0.6,0c0.1,0,0.3,0,0.3,0v0.1H52V60h0.2l-0.4,0.8h-0.6v0.6h0.3L51,62.3h-0.5v0.6h0.2l-0.5,0.8H50c0,0,0.1-0.2-0.1-0.3
							c-0.1-0.1-0.3-0.2-0.3-0.2s0.2-0.3,0.3-0.4c0.1-0.2,0.5-0.3,0.5-0.3s0-0.3-0.2-0.4c-0.1,0-0.3,0-0.3,0s0-0.1,0-0.2
							c0-0.1-0.1-0.2-0.2-0.2l-0.2,0.1c0,0,0-0.3-0.1-0.4c0-0.1-0.2-0.2-0.2-0.2s0.1-0.1,0.2-0.1c0.1-0.1,0.1-0.2,0.1-0.2
							s0.2,0.2,0.5,0.2s0.4-0.2,0.5-0.3c0.1-0.2,0-0.4-0.1-0.4s-0.2,0-0.2,0s-0.1,0,0,0c0.1-0.1,0.1-0.2,0.1-0.2
							c-0.1-0.2-0.1-0.3,0-0.5c0.2-0.2,0.6-0.2,0.6-0.2S51,59.9,51.3,59.9"/>
					</g>
					<g id="path686">
						<path inkscape:connector-curvature="0" fill="#002986" d="M41.5,47.9c0.1,0.1,0.2,0.1,0.2,0.1c0.5,0.6,0.9,0.3,0.9,0.3
							c-0.1,0.4-0.3,0.5-0.4,0.5c-0.1,0-0.2-0.1-0.2-0.1s-0.1,0.1-0.2,0.3c0,0.2,0.2,0.4,0.2,0.4c-0.3,0.1-0.4-0.4-0.4-0.4
							c-0.1,0-0.2,0.4-0.2,0.6c0.1,0.4,0.4,0.4,0.4,0.5c0,0-0.1,0.1-0.2,0.3c-0.3,0.4-0.2,0.7-0.2,0.7c0.1,0,0.2-0.1,0.2-0.1
							c0,0.1-0.2,0.3-0.3,0.4c-0.2,0.5-0.2,0.7-0.1,0.7c0,0,0.1,0,0.2-0.1c0.1-0.1,0.3-0.2,0.3-0.2s-0.5,1.4-0.5,2.2
							c0,1.4,0.4,2.3,0.3,2.3c-0.3,0-0.5,0.1-0.5,0.2c0,0,0.1,0.1,0.3,0.3c0.1,0.1,0.3,0.3,0.2,0.3c-0.2,0.3-0.2,0.4-0.2,0.5
							c-0.1,0.2-0.1,0.3-0.1,0.4c-0.1,0.3,0,0.4,0,0.4c-0.1,0.4,0,0.4,0,0.5c-0.1,0.5,0,0.5,0,0.5c-0.1,0.7,0.1,0.6,0.1,0.7
							c0,0.3,0.2,0.4,0.2,0.5c0,0.4,0.2,0.4,0.2,0.5c0,0,0,0.2,0,0.1c-0.1-0.1-0.2-0.1-0.2-0.1c0.1-0.5-0.3-0.5-0.4-0.7
							c0-0.7-0.2-0.9-0.2-1c0-0.2-0.1-0.8-0.1-1c0.1-0.4,0.2-1.8,0.2-1.9c0.2-1,0.2-2.2,0.2-2.3s-0.3-3.1-0.2-3.3
							c0.6-1.6,0.1-2.8,0.3-3.1C41.2,47.6,41.4,47.8,41.5,47.9"/>
					</g>
					<g id="path746">
						<path inkscape:connector-curvature="0" fill="#002986" d="M57.6,47.5c0,0.2,0.1,0.3,0.1,0.4c0,0.1-0.1,0.2,0,0.4
							c0,0.2,0.1,0.3,0.1,0.3c0,0.1-0.1,0.2-0.1,0.4c0,0.1,0.3,0.4,0.3,0.5s-0.1,0.3-0.1,0.4c0,0.1,0,0.3,0,0.3s-0.1,0.2-0.2,0.5
							c-0.1,0.2,0,0.4,0,0.5s-0.1,0.1-0.1,0.2c0,0.1,0,0.2,0,0.3s-0.1,0.3-0.2,0.5c0,0.2,0,0.7-0.1,0.8l-0.1,0.4
							c0,0-0.1-0.4-0.2-0.6c0-0.2-0.2-0.7-0.2-0.7s0.4,0.3,0.5,0.2c0.1-0.2-0.3-1-0.3-1s0.3,0.1,0.3,0c0-0.3-0.5-0.9-0.5-0.9
							s0.4-0.1,0.5-0.5s-0.1-0.7-0.1-0.7s-0.1,0.2-0.2,0.4c-0.3-0.1-0.5-0.1-0.5-0.1s0.2-0.1,0.2-0.3c0-0.1,0-0.4,0-0.4
							s-0.1,0-0.3,0.1c-0.1,0-0.3-0.2-0.3-0.2s0.7-0.3,0.8-0.5c0.1-0.4,0.5-0.7,0.5-0.7c0-0.2,0.2-0.3,0.2-0.3S57.6,47.2,57.6,47.5"
							/>
					</g>
					<g id="path758">
						<path inkscape:connector-curvature="0" fill="#002986" d="M61.7,60c0.2,0,0.6,0.1,0.6,0.1s-0.1,0-0.1,0.1s0,0.2,0,0.2
							s0.3,0.2,0.2,0.3c0,0-0.1-0.2-0.5-0.2c-0.2,0-0.3,0.2-0.3,0.2s0.2,0.1,0.1,0.3c-0.1,0.3-0.5,0.4-0.5,0.4v-0.1
							c0,0,0.1-0.2,0.1-0.3s-0.1-0.3-0.1-0.4c0-0.1-0.2-0.8-0.2-0.8S61.5,59.9,61.7,60"/>
					</g>
				</g>
			</g>
		</g>
	</g>
</g>
<g id="path948">
	<path inkscape:connector-curvature="0" fill="#002986" d="M47.3,50.5h3.8c0,0,0,0,0-0.1v-0.1h-3.8C47.3,50.3,47.3,50.3,47.3,50.5
		L47.3,50.5"/>
</g>
<g id="path950">
	<path inkscape:connector-curvature="0" fill="#002986" d="M47.3,50.2h3.9c0,0,0,0,0-0.1V50h-3.9V50.2"/>
</g>
<g id="path952">
	<path inkscape:connector-curvature="0" fill="#002986" d="M47.2,50h4c0,0,0,0,0-0.1v-0.1h-3.9C47.3,49.9,47.3,49.9,47.2,50
		C47.2,49.9,47.2,50,47.2,50"/>
</g>
<g id="path954">
	<path inkscape:connector-curvature="0" fill="#002986" d="M47.4,49.7h3.7c0,0,0,0,0-0.1v-0.1h-3.5C47.6,49.6,47.5,49.6,47.4,49.7
		L47.4,49.7"/>
</g>
<g id="path956">
	<path inkscape:connector-curvature="0" fill="#002986" d="M47.6,49.5h3.3c0,0,0,0,0-0.1v-0.1h-3.1C47.7,49.4,47.7,49.4,47.6,49.5
		C47.6,49.4,47.6,49.5,47.6,49.5"/>
</g>
<g id="path958">
	<path inkscape:connector-curvature="0" fill="#002986" d="M49.3,49.3h0.9c0,0-0.2-0.2-0.5-0.2C49.5,49.1,49.3,49.3,49.3,49.3"/>
</g>
<g id="path960">
	<path inkscape:connector-curvature="0" fill="#002986" d="M48.2,49.3h1.1c0,0-0.1-0.2-0.5-0.2C48.2,49.1,48.2,49.3,48.2,49.3"/>
</g>
<g id="path1310">
	<path inkscape:connector-curvature="0" fill="#66180B" d="M43,54.7L43,54.7C43.1,54.8,43.1,54.8,43,54.7L43,54.7"/>
</g>
<g id="path1346">
	<path d="M47.5,45.6L47.5,45.6L47.5,45.6z"/>
</g>
<g id="path304">
	<path inkscape:connector-curvature="0" fill="#FFCC18" d="M42.2,45.3c0,0,0.6,0.3,0.8,1.1c0,0.2,0.2,0.6,0,1.6
		c0,0.2-0.1,0.5-0.6,0.9c-0.1,0.1-0.3,0-0.3,0s0,0.3,0.2,0.3c0.6,0.1,0.9-1.1,1-1.2c0.1-0.5,0-1.5-0.1-1.7
		C42.8,45.4,42.3,45.3,42.2,45.3C42.2,45.2,42.2,45.3,42.2,45.3"/>
</g>
<g id="path306">
	<path inkscape:connector-curvature="0" fill="#FFCC18" d="M41.6,49.3c0,0-0.1,0.7,0.4,0.7s0.9-0.8,0.8-0.8
		c-0.1-0.1-0.3,0.4-0.7,0.4C41.7,49.6,41.6,49.3,41.6,49.3"/>
</g>
<g id="path314">
	<path inkscape:connector-curvature="0" fill="#FFCC18" d="M42.1,51.6c0,0-0.5,0.8-0.6,2.5c-0.1,1.5,0.5,2.3,0.6,2.3
		c0.2,0-0.4-0.6-0.5-2.4C41.6,53.3,42,51.7,42.1,51.6C42.1,51.8,42.1,51.6,42.1,51.6"/>
</g>
<g id="path386">
	<path inkscape:connector-curvature="0" fill="#FFCC18" d="M42.2,56.8c-0.3-0.3-0.9-0.5-0.8-0.3c0.1,0.1,0.1,0.2,0.5,0.7
		c0.1,0.2,0.8,0.6,1,0.5c0.1,0-0.5-0.3-0.9-0.8v-0.1c0,0,0.6,0.6,0.7,0.5C42.8,57.4,42.5,57.1,42.2,56.8"/>
</g>
<g id="path392">
	<path inkscape:connector-curvature="0" fill="#FFCC18" d="M47,59.2c0,0,0.1,0.1,0.1,0.2c0,0.1-0.2,0.2-0.3,0.2s-0.3-0.1-0.2-0.3
		c0-0.1,0.1-0.5,0.7-0.5c0.2,0,0.7,0,1,0.3s0.6,0.8,0.5,1.3c-0.1,0.3-0.3,0.4-0.5,0.4c-0.1,0-0.3-0.1-0.3-0.3c0-0.1,0.2-0.2,0.2-0.2
		c0.1,0,0.2-0.1,0.2-0.1c0.1-0.3,0.1-0.7-0.3-1c-0.2-0.2-0.5-0.3-0.9-0.3C47,59.1,47,59.2,47,59.2"/>
</g>
<g id="g9480">
	<g id="path88">
		<path inkscape:connector-curvature="0" fill="#BE0A2F" d="M50,50.7h0.4v2.5c0,0,0,0-0.2,0c-0.1,0-0.2,0-0.2,0V50.7"/>
	</g>
	<g id="path90">
		<path inkscape:connector-curvature="0" fill="#BE0A2F" d="M50.7,50.7h0.4v2.1c0,0-0.1,0.2-0.2,0.2c-0.1,0-0.2,0.1-0.2,0.1V50.7"/>
	</g>
	<g id="path166">
		<path inkscape:connector-curvature="0" fill="#FFCC18" d="M49.4,59.1v-4c0,0,0.1-0.1,0.2-0.1c0.1,0,1.1-0.2,1.8-0.8s1-1.1,1-1.1
			l0.1,0.1c0.1,0,0.4,0,0.4,0v1.1c0,0-0.4,0.5-0.4,0.9s0.4,0.9,0.4,0.9v0.1c0,0-0.2,0-0.4-0.1s-0.3-0.3-0.3-0.3s0.2,0,0.2-0.1
			c0.1-0.1-0.3-0.3-0.4-0.5c-0.2-0.2-0.4-0.6-0.5-0.6s-0.2,1.1,0.2,1.6c0,0.1,0.2-0.2,0.2-0.2s0.3,0.4,0.5,0.6
			c0.2,0.2,0.5,0.3,0.6,0.4c0,0.1,0.2,0.4,0.4,0.5c0.3,0,0.4-0.5,0.4-0.5s0.1-0.1,0.1,0.4c0,0.1,0.1,0.1,0.1,0.1
			c0.3-0.1,0.1-0.7,0.1-0.7s0.2-0.1,0.4-0.4c0.2-0.3,0.3-0.4,0.3-0.4s0.1,0.1,0.2,0.1c0.1,0,0.2-0.4,0.3-0.7s0.1-0.8,0-0.8
			S55,55,54.8,55.1c-0.1,0.1-0.6,0.5-0.6,0.5c0,0.1,0.2,0.1,0.2,0.1S54.1,56,54,56.1s-0.3,0.2-0.3,0.2l-0.1-0.1
			c0-0.1-0.1-0.1-0.1-0.1v-1.6c0,0,0.3-0.5,0.3-0.6s0.1-0.5,0.1-0.5s0.4,0,0.4-0.3s-0.5-0.3-0.5-0.3s0-0.7-0.5-0.6
			c-0.4,0-0.5,0.2-0.5,0.4c0,0.1,0,0.3,0,0.3h-0.2c0,0,0.1-0.3,0.2-0.6c0.1-0.3,0.1-0.8,0.1-0.8h2.9c0,0,0.6,1.5,0.5,2.8
			c-0.2,1.9-0.5,2.6-1.3,3.2c-1.2,1-2.8,1-3.5,1C49.8,58.4,49.4,59.1,49.4,59.1"/>
	</g>
	<g id="path396">
		<path inkscape:connector-curvature="0" fill="#FFCC18" d="M51.4,50.2c0,0,0.3,0.5,0.3,1c0,0.6-0.2,1.1-0.2,1.1s0.1-0.7,0-0.9
			c-0.1-0.1-0.1-0.5-0.1-0.7C51.3,50.4,51.4,50.2,51.4,50.2"/>
	</g>
	<g id="path406">
		<path inkscape:connector-curvature="0" fill="#FFCC18" d="M49.5,43.6v3.9c0,0,0.6,0.1,1.1,0.3s1,0.5,1,0.5s-0.3-0.4-0.4-0.7
			C51,47.1,51,46.7,51,46.7s0.4,0.6,0.5,0.8s0.4,0.4,0.4,0.4l0.2-0.2h0.1l0.7-0.7l-1-1.1h-0.2c-0.1,0-0.4-0.3-0.4-0.4
			c0-0.1,0.5-0.6,0.7-0.6c0.1,0,0.3,0.3,0.4,0.4c0,0.1,0,0.4,0,0.4l0.9,1l1-1c0,0,0.1-0.1,0.3,0c0.1,0.1,0,0.3,0,0.3l-1,1l0.5,0.6
			c0,0,0.2-0.2,0.3-0.2s0.9,1.2,0.9,1.2s-0.1,0.3-0.3,0.5s-0.3,0.2-0.4,0.3c-0.1,0-1-0.9-1.1-1s0-0.1,0-0.1l0.2-0.3L53,47.3L52.3,48
			v0.1l-0.2,0.2c0,0,0.3,0.5,0.6,0.6c0.2,0.1,0.6,0.5,0.6,0.5c-0.1,0.1-0.7-0.1-0.8-0.2c-0.1-0.1-0.4-0.2-0.4-0.2s0.4,0.6,0.6,1
			c0.2,0.6,0.2,0.9,0.2,0.9h2.7c0,0-0.6-2.5-0.6-2.8s-0.1-1.9,0.6-2.6c0.4-0.4,0.8-0.6,0.8-0.6l-0.6-1.2c0,0-0.7,0-1.3,0.3
			c-0.8,0.3-1.4,0.8-1.4,0.8s-0.7-0.4-1.6-0.8C50.5,43.6,49.5,43.6,49.5,43.6"/>
	</g>
	<g id="path440">
		<path inkscape:connector-curvature="0" fill="#FFCC18" d="M49.8,42.7c-0.1,0-0.1,0.1-0.1,0.2s0.2,0.4,0.8,0.5
			c0.4,0.1,1,0.1,1.2,0.1c0.2-0.1,0.3-0.2,0.3-0.3c0-0.2-0.3-0.2-0.3-0.2s0,0.1-0.1,0.2c-0.1,0-0.4,0.2-1.1,0.1
			c-0.1,0-0.5-0.1-0.6-0.3C49.9,42.9,50,42.7,49.8,42.7"/>
	</g>
	<g id="path544">
		<path inkscape:connector-curvature="0" fill="#FFFFFF" d="M49.7,53.3v-2.6H50v2.5h-0.1C49.8,53.2,49.7,53.3,49.7,53.3"/>
	</g>
	<g id="path546">
		<path inkscape:connector-curvature="0" fill="#FFFFFF" d="M50.4,50.7h0.3V53c0,0-0.1,0-0.1,0.1l-0.2,0.1V50.7"/>
	</g>
	<g id="path548">
		<path inkscape:connector-curvature="0" fill="#FFFFFF" d="M51.2,50.7c0,0,0,0.2,0,0.4c0,0.3,0.2,0.3,0.1,0.8
			c0,0.5-0.3,0.9-0.3,0.9L51.2,50.7L51.2,50.7"/>
	</g>
	<g id="path1354">
		<path inkscape:connector-curvature="0" d="M53.4,52.5c0,0-0.2,0-0.2,0.1s0.1,0,0.1,0.1l-0.1,0.1c-0.1,0-0.2-0.1-0.2-0.2
			c0-0.1,0.1-0.2,0.2-0.2C53.4,52.3,53.4,52.5,53.4,52.5"/>
	</g>
	<g id="path170">
		<path inkscape:connector-curvature="0" fill="#FFCC18" d="M56.5,51.8C56.5,51.8,56.6,51.8,56.5,51.8c0.1,0.2,0.5,1.4,0.5,2.6
			c0,0.6-0.1,1.5-0.5,2.1c-0.1,0.1-0.2,0.1-0.2,0.1c0-0.1,0.5-0.9,0.5-2.1C56.9,53.7,56.5,51.8,56.5,51.8"/>
	</g>
	<g id="path172">
		<path inkscape:connector-curvature="0" fill="#FFCC18" d="M55.5,57.6c0,0,0.4-0.3,0.5-0.4c0.2-0.1,0.4-0.3,0.4-0.3
			S56,57.2,56,57.1c0,0,0.1-0.3,0.4-0.4c0.2-0.1,0.5-0.2,0.5-0.2s-0.3,0.6-0.4,0.7C56.4,57.3,55.8,57.8,55.5,57.6"/>
	</g>
	<g id="path408">
		<path inkscape:connector-curvature="0" fill="#FFCC18" d="M56.4,45.4c-0.1,0-0.8,0.3-0.9,1.9c0,0.3,0.1,1.3,0.3,1.6
			c0.1,0.2,0.3,0.4,0.6,0.4s0.3-0.5,0.3-0.5S56.5,49,56.3,49c-0.4-0.1-0.7-0.8-0.7-1.6c0-0.9,0.2-1.3,0.8-1.8
			C56.4,45.5,56.4,45.4,56.4,45.4"/>
	</g>
	<g id="path410">
		<path inkscape:connector-curvature="0" fill="#FFCC18" d="M55.7,49.2c0,0,0.1,0.8,0.8,0.8c0.5,0,0.5-0.6,0.5-0.6s-0.2,0.3-0.5,0.3
			C56.1,49.6,55.8,49.2,55.7,49.2"/>
	</g>
	<g id="g8958">
		<g id="path318">
			<path inkscape:connector-curvature="0" fill="#FFCC18" d="M50,60.9c-0.2,0-0.4-0.2-0.5-0.5c-0.1-0.4,0.1-1,0.5-1.2
				c0.3-0.2,0.7-0.3,1-0.3c0.4,0,0.7,0.2,0.7,0.5c0,0.2-0.1,0.3-0.2,0.3c-0.1,0-0.3,0-0.3-0.2c0-0.1,0.1-0.2,0.1-0.2s0-0.1-0.3-0.2
				c-0.1,0-0.4-0.1-0.9,0.2c-0.3,0.2-0.4,0.7-0.3,0.9c0.1,0.3,0.5,0.3,0.5,0.3C50.4,60.5,50.4,60.9,50,60.9"/>
		</g>
		<g id="g6555">
			<g id="g6134">
				<g id="g5825">
					<g id="g5670">
						<g id="g8002" transform="translate(0.890955,-3.649227)">
							<path id="path1502" inkscape:connector-curvature="0" fill="#FFFFFF" d="M41.4,74.4v7.8h-1.8v-5.8c-0.5,0.4-1,0.7-1.6,1v-1.7
								c0.7-0.3,1.3-0.7,1.8-1.3H41.4"/>
							<path id="path1504" inkscape:connector-curvature="0" fill="#FFFFFF" d="M44.8,74.3c-1.1,0-2.6,0.4-2.6,1.9
								c0,1,0.5,1.7,1.3,1.9l0,0c-0.9,0.1-1.2,0.8-1.2,2c0,1.6,1.5,2.3,2.6,2.3c1.2,0,3-0.4,3-2.3c0-1.2-0.3-2-1.2-2.1
								c0.7-0.1,1.1-0.8,1.1-1.8c0-1.6-1.6-1.9-2.7-1.9C45,74.3,44.9,74.3,44.8,74.3z M44.9,75.5C44.9,75.5,45,75.5,44.9,75.5
								c0.6,0,1.1,0.3,1.1,1.1s-0.4,1.1-1,1.1c-0.5,0-1-0.3-1-1.1C44,75.9,44.4,75.5,44.9,75.5z M44.9,78.8
								C45,78.8,45,78.8,44.9,78.8c0.6,0,1.1,0.3,1.1,1.1c0,0.7-0.4,1.1-1,1.1c-0.5,0-1-0.3-1-1.1C44,79.1,44.4,78.8,44.9,78.8z"/>
							<path id="path1506" inkscape:connector-curvature="0" fill="#FFFFFF" d="M48.2,79.3l2.7-4.8H53v4.8h1v1.5h-1v1.5h-1.8v-1.5
								h-3V79.3z M51.3,79.3v-2.9l0,0l-1.5,2.9H51.3"/>
							<path id="path1510" inkscape:connector-curvature="0" fill="#FFFFFF" d="M57.3,74.4c-1.1,0-2.8,0.4-2.8,2
								c0,1,0.5,1.7,1.3,1.9l0,0c-0.9,0.1-1.2,0.8-1.2,2c0,1.6,1.5,2.3,2.6,2.3c1.2,0,3-0.4,3-2.3c0-1.2-0.3-2-1.2-2.1
								c0.7-0.1,1.1-0.8,1.1-1.8C60.1,74.8,58.5,74.4,57.3,74.4L57.3,74.4z M57.2,75.7L57.2,75.7c0.6,0,1.1,0.3,1.1,1.1
								c0,0.7-0.4,1.1-1,1.1c-0.5,0-1-0.3-1-1.1S56.7,75.7,57.2,75.7z M57.3,78.9L57.3,78.9c0.6,0,1.1,0.3,1.1,1.1
								c0,0.7-0.4,1.1-1,1.1c-0.5,0-1-0.3-1-1.1C56.4,79.3,56.8,79,57.3,78.9z"/>
						</g>
						<g id="path152">
							<path inkscape:connector-curvature="0" fill="#F3334B" d="M44.8,62c0,0,0-0.7,0.2-0.7s0.5,0.1,0.5,0.5c0,0.3-0.3,0.4-0.3,0.4
								l0,0C45.2,62.2,44.9,62,44.8,62C44.9,62.1,44.8,62,44.8,62"/>
						</g>
						<g id="path156">
							<path inkscape:connector-curvature="0" fill="#F3334B" d="M46.4,61.6c0,0-0.1-0.2-0.4-0.2c-0.3,0-0.4,0.3-0.4,0.5
								c0,0.3,0.2,0.4,0.5,0.4s0.4-0.4,0.4-0.4L46.4,61.6"/>
						</g>
						<g id="path158">
							<path inkscape:connector-curvature="0" fill="#F3334B" d="M46.4,60.7c-0.2,0-0.3-0.3-0.1-0.5c0.1-0.1,0.4-0.2,0.5,0
								c0,0.1,0.1,0.2,0,0.3c-0.1,0-0.2,0-0.2,0.1C46.5,60.6,46.6,60.7,46.4,60.7"/>
						</g>
						<g id="path160">
							<path inkscape:connector-curvature="0" fill="#F3334B" d="M48.2,61.6c0,0,0-0.2-0.2-0.4c-0.2-0.1-0.4-0.1-0.5,0.1
								c-0.1,0.1-0.1,0.4,0.1,0.5c0.1,0.1,0.3,0.1,0.3,0.1S48.1,61.6,48.2,61.6C48.1,61.6,48.2,61.6,48.2,61.6"/>
						</g>
						<g id="path162">
							<path inkscape:connector-curvature="0" fill="#F3334B" d="M47.2,62.2c-0.2,0-0.4,0.1-0.4,0.4c0,0.3,0.2,0.5,0.4,0.5
								s0.3-0.2,0.3-0.2l0.1-0.5C47.6,62.4,47.5,62.2,47.2,62.2"/>
						</g>
						<g id="path168">
							<path inkscape:connector-curvature="0" fill="#FFCC18" d="M56.1,63.8c0,0,0.5-0.2,0.5-0.9c0-0.2-0.2-0.4-0.4-0.4
								c-0.1,0-0.3,0.1-0.3,0.3c0,0.1,0.1,0.2,0.2,0.2c0.1,0,0.2-0.1,0.2-0.1s0.1,0.1,0,0.3C56.3,63.6,56.1,63.8,56.1,63.8"/>
						</g>
						<g id="path322">
							<path inkscape:connector-curvature="0" fill="#FFCC18" d="M41.4,63.4c0,0,1.1,0.9,1.5,1.1c0.2,0.1,0.7,0.2,1,0.2
								s1.3-0.2,1.4-0.1c0.1,0.1-0.2,0.1-0.4,0.2s-0.3,0.4-0.2,0.4s0.3-0.3,0.4-0.4c0.3-0.3,0.5-0.3,0.5-0.3s-0.2,0.1-0.3,0.4
								c-0.2,0.3,0.1,0.6,0.2,0.7c0.6,0.3,0.8,0,0.8,0s-0.4,0.2-0.7-0.2c-0.1-0.1-0.1-0.3,0-0.4c0.3-0.5,0.8-0.5,0.8-0.5
								S46,64.7,46,64.9c0,0.2,0.2,0.5,0.3,0.4s-0.1-0.2-0.1-0.4c0-0.2,0.3-0.3,0.3-0.3c0.2-0.1,0.6,0,0.7,0c0.1,0,0.4,0.1,0.5,0.1
								c0,0,0,0.1-0.5,0c-0.1,0-0.4-0.1-0.6,0c0,0,0.8,0.3,1.3,0.2c0.1,0,0.6-0.2,0.9-0.5c0.1-0.1,0.2-0.3,0.2-0.6
								c0-0.2-0.1-0.4-0.4-0.4c-0.4,0.1-0.3,0.5-0.1,0.6h0.2c0,0-0.1,0.4-0.5,0.6c-0.1,0-0.4,0.2-1.2,0c-0.1,0-0.7-0.1-1.2,0
								c-0.1,0-0.7,0-0.8,0s-0.8,0.1-1.1,0.1c-0.2,0-0.8-0.1-1.1-0.6c-0.1-0.1-0.1-0.4,0-0.5c0,0,0-0.1-0.2-0.1
								c-0.2,0.1-0.2,0.3-0.2,0.4c0.1,0.3,0.5,0.5,0.4,0.5c0,0-0.4-0.2-0.6-0.6c-0.1-0.1-0.3-0.6-0.1-0.7c0.1-0.1,0.1,0.1,0.2,0.1
								c0.2,0,0.2-0.3,0.1-0.4c-0.1-0.1-0.3-0.2-0.5,0c-0.1,0.1-0.1,0.4-0.1,0.5c0,0.3,0.4,0.5,0.4,0.5l-0.1,0.1
								c0,0-0.1-0.1-0.3-0.2C41.6,63.4,41.4,63.3,41.4,63.4"/>
						</g>
						<g id="path352">
							<path inkscape:connector-curvature="0" fill="#FFCC18" d="M45.5,64.2c0,0.1-0.8,0.2-1.1-1.2c-0.1-0.4-0.1-1.3,0-1.7
								c0.3-0.7,0.7-1.3,1.1-1.5c0.2-0.1,0.6-0.2,0.9-0.2c0.3,0,0.6,0.2,0.5,0.3c0,0.1-0.3-0.1-0.5-0.1s-0.2,0-0.3,0
								s-0.1-0.1-0.2-0.1c0,0,0,0.1-0.1,0.1c0,0-0.4,0.2-0.5,0.3S45,60.3,45,60.4c-0.1,0.1,0,0.1-0.1,0.2c0,0.1-0.4,0.6-0.4,1.9
								c0,0.1-0.1,0.2,0,0.3c0,0.1,0.1,0,0.1,0.1s0.2,0.6,0.3,0.8C45.3,64.2,45.5,64.1,45.5,64.2"/>
						</g>
						<g id="path362">
							<path inkscape:connector-curvature="0" fill="#FFCC18" d="M45.7,60.1c0.2,0.1,0.1,0.3,0.2,0.4c0.1,0,0.4,0.3,0.3,0.6
								c0,0.2-0.3,0.5-0.6,0.2c-0.2-0.2,0-0.6,0-0.6s-0.1-0.4,0-0.5C45.7,60.2,45.7,60.1,45.7,60.1"/>
						</g>
						<g id="path364">
							<path inkscape:connector-curvature="0" fill="#FFCC18" d="M46.9,61.1c-0.1-0.1-0.1-0.2,0-0.2s0.2-0.2,0.2-0.3s0-0.3,0.2-0.4
								c0.2-0.1,0.3-0.1,0.5,0.1c0.1,0.1,0.1,0.4,0,0.5s-0.3,0.1-0.3,0.1c-0.1,0-0.2,0.2-0.3,0.2C47,61.2,47,61.2,46.9,61.1"/>
						</g>
						<g id="path366">
							<path inkscape:connector-curvature="0" fill="#FFCC18" d="M46.1,62.5c0,0-0.1,0.2,0.1,0.3c0.1,0,0.2,0,0.2,0s0,0,0,0.1
								s0,0.3,0,0.4c0,0.1-0.2,0.4-0.1,0.6c0.1,0.2,0.3,0.4,0.7,0.3c0.2,0,0.4-0.3,0.3-0.6c-0.1-0.2-0.4-0.3-0.4-0.4
								c0-0.1-0.2-0.5-0.4-0.5h-0.1c0,0,0-0.1-0.1-0.1C46.3,62.4,46.1,62.5,46.1,62.5"/>
						</g>
						<g id="path378">
							<path inkscape:connector-curvature="0" fill="#FFCC18" d="M48.7,64.6c0,0,0.2-0.8,0.4-0.8c0.3,0,0.5,0.8,0.5,0.8
								s-0.1,0.1-0.3-0.1v0.2c0,0.1-0.1,0.2-0.1,0.2s-0.2,0-0.2-0.1s-0.1-0.2-0.1-0.2C48.8,64.7,48.7,64.6,48.7,64.6"/>
						</g>
						<g id="path382">
							<path inkscape:connector-curvature="0" fill="#FFCC18" d="M49.2,61.3c0,0-0.2,0.2-0.3,0.5c0,0.1-0.3-0.1-0.3-0.1
								s-0.1,0.1,0,0.4c0,0.1,0,0,0,0S48.4,62,48.3,62c-0.2,0-0.2,0.1-0.2,0.1s0.2,0.2,0.3,0.3c0,0.1,0.3,0.6,0.5,0.6
								s0.3-0.2,0.3-0.2s0.1,0.2,0.2,0.2c0.4,0,0.5-0.5,0.6-0.6c0.1-0.2,0.4-0.4,0.4-0.4s-0.1-0.2-0.3-0.1c-0.1,0-0.3,0.1-0.3,0.2
								c0,0-0.1,0-0.1-0.1c0.1-0.3,0-0.4,0-0.4s-0.3,0.2-0.3,0.1C49.4,61.4,49.2,61.3,49.2,61.3"/>
						</g>
						<g id="path384">
							<path inkscape:connector-curvature="0" fill="#FFCC18" d="M49.8,63.3c-0.2,0-0.4,0.1-0.4,0.5c0,0.4,0.5,0.8,0.6,0.8
								c0.2,0.1,0.5,0.2,0.7,0.2c0.3,0,0.8-0.1,0.9-0.1c0.1,0,0-0.1-0.8,0c-0.3,0-0.4-0.1-0.4-0.1s0.3,0.1,0.4,0
								c0.1,0,0.8-0.1,0.9-0.1c0.2,0,0.4,0.1,0.4,0.3c0,0.2-0.1,0.3-0.1,0.3s0.3,0.1,0.4-0.2c0-0.2-0.3-0.4-0.3-0.4s0,0,0-0.1
								c0,0,0.5,0.2,0.6,0.5c0,0.1,0,0.5-0.4,0.6c-0.3,0.1-0.5-0.1-0.5-0.1s0,0.3,0.5,0.3c0.4,0,0.6-0.4,0.6-0.5
								c0-0.2-0.2-0.5-0.2-0.5l0,0c0,0,0.2,0.1,0.5,0.5c0,0,0.1,0.1,0.2,0.1c0.1,0,0-0.2,0-0.3c-0.1-0.2-0.5-0.4-0.5-0.4s0,0,0-0.1
								c0,0,0.3,0.1,0.6,0.1s1.5,0.1,2.1-0.2c1.2-0.8,1.2-0.8,1.5-0.9c0.1,0,0-0.1-0.6,0.1C56.2,63.7,56,64,55.9,64
								c0,0-0.1,0.1-0.1,0c0,0-0.3,0.3-0.4,0.3h-0.1c0,0,0.4-0.2,0.4-0.5c0-0.3-0.3-0.4-0.3-0.4s0,0.3,0,0.4
								c-0.1,0.1-0.2,0.4-0.4,0.5c-0.3,0.2-0.6,0.3-1,0.3c-0.1,0-1.2-0.1-1.4-0.1c-0.1,0-0.2,0-0.2,0s-0.9,0-1.2,0
								c-0.1,0-0.5,0.1-0.7,0.1c-0.3,0-0.5-0.1-0.6-0.2c-0.4-0.2-0.4-0.6-0.4-0.6s0.2,0.1,0.3,0C50.1,63.6,50.1,63.3,49.8,63.3"/>
						</g>
						<g id="path394">
							<path inkscape:connector-curvature="0" fill="#FFCC18" d="M49.2,60.2c0,0-0.2,0.2-0.2,0.4s0,0.4,0.2,0.4
								c0.3,0,0.3-0.3,0.2-0.4C49.4,60.3,49.2,60.2,49.2,60.2"/>
						</g>
						<g id="path484">
							<path inkscape:connector-curvature="0" fill="#18B318" d="M44.7,62.7c0,0,0-0.2,0.2-0.3c0.1,0,0.1,0,0.1,0.1
								s-0.1,0.2-0.1,0.2C44.8,62.7,44.7,62.7,44.7,62.7"/>
						</g>
						<g id="path492">
							<path inkscape:connector-curvature="0" fill="#18B318" d="M46.8,61.3c0,0-0.2,0-0.2,0.3s0.2,0.4,0.3,0.4
								c0.2,0,0.4-0.1,0.4-0.2c0-0.1-0.1-0.3,0-0.4c0.1-0.1,0-0.2,0-0.2s-0.2,0.1-0.3,0.1c0,0,0,0.1-0.1,0.1
								C46.8,61.4,46.8,61.3,46.8,61.3"/>
						</g>
						<g id="path598">
							<path inkscape:connector-curvature="0" fill="#002986" d="M53.5,60H54l-0.2,0.6L53.5,60"/>
						</g>
						<g id="path600">
							<path inkscape:connector-curvature="0" fill="#002986" d="M52.6,60h0.5l-0.2,0.6L52.6,60"/>
						</g>
						<g id="path602">
							<path inkscape:connector-curvature="0" fill="#002986" d="M54.1,61.4h0.8L54.4,62L54.1,61.4"/>
						</g>
						<g id="path604">
							<path inkscape:connector-curvature="0" fill="#002986" d="M52.9,61.4h0.8L53.3,62L52.9,61.4"/>
						</g>
						<g id="path606">
							<path inkscape:connector-curvature="0" fill="#002986" d="M51.8,61.4h0.8L52.2,62L51.8,61.4"/>
						</g>
						<g id="path608">
							<path inkscape:connector-curvature="0" fill="#002986" d="M54.7,62.8h0.9l-0.4,0.6L54.7,62.8"/>
						</g>
						<g id="path610">
							<path inkscape:connector-curvature="0" fill="#002986" d="M53.5,62.8h0.9L54,63.4L53.5,62.8"/>
						</g>
						<g id="path612">
							<path inkscape:connector-curvature="0" fill="#002986" d="M52.3,62.8h0.8l-0.4,0.6L52.3,62.8"/>
						</g>
						<g id="path614">
							<path inkscape:connector-curvature="0" fill="#002986" d="M51.2,62.8H52l-0.4,0.6L51.2,62.8"/>
						</g>
						<g id="path704">
							<path inkscape:connector-curvature="0" d="M47.3,61.5L47.3,61.5c0,0.1,0,0.1,0,0.2"/>
						</g>
						<g id="path724">
							<path inkscape:connector-curvature="0" d="M49.1,64L49.1,64c0-0.1,0.3,0,0.2,0.4c0,0.1-0.1,0-0.1-0.2
								C49.2,64.1,49.1,64,49.1,64"/>
						</g>
						<g id="path988">
							<path inkscape:connector-curvature="0" fill="#002986" d="M45.6,64c0,0-0.1,0.3,0.2,0.3c0.2,0,0.2-0.2,0.2-0.2s-0.1,0-0.2,0
								C45.7,64.1,45.6,64,45.6,64"/>
						</g>
						<g id="path990">
							<path inkscape:connector-curvature="0" fill="#002986" d="M45.9,63.6c0.1,0,0.2,0.1,0.2,0.2c0,0.1-0.1,0.2-0.2,0.2
								c-0.1,0-0.2-0.1-0.2-0.2C45.7,63.7,45.8,63.6,45.9,63.6"/>
						</g>
						<g id="path994">
							<path inkscape:connector-curvature="0" fill="#002986" d="M45.7,63c0.1,0,0.2,0.1,0.2,0.2c0,0.1-0.1,0.2-0.2,0.2
								c-0.1,0-0.2-0.1-0.2-0.2S45.5,63,45.7,63"/>
						</g>
						<g id="path996">
							<path inkscape:connector-curvature="0" fill="#002986" d="M46,63.1c0,0,0,0.1,0,0.2c0,0.1-0.1,0.2-0.1,0.2s0.3,0,0.3-0.2
								S46,63.1,46,63.1"/>
						</g>
						<g id="path998">
							<path inkscape:connector-curvature="0" fill="#002986" d="M44.9,63.1c0,0-0.3,0.3,0,0.4c0.2,0.1,0.2-0.2,0.2-0.2
								S45,63.1,44.9,63.1"/>
						</g>
						<g id="path1004">
							<path inkscape:connector-curvature="0" fill="#002986" d="M45.7,62.9c0,0,0-0.2,0.2-0.2S46.1,63,46,63
								C46,63,45.9,63,45.7,62.9L45.7,62.9"/>
						</g>
						<g id="path1006">
							<path inkscape:connector-curvature="0" fill="#002986" d="M45.4,62.5c0.1,0,0.2,0.1,0.2,0.2c0,0.1-0.1,0.2-0.2,0.2
								c-0.1,0-0.2-0.1-0.2-0.2C45.2,62.5,45.3,62.5,45.4,62.5"/>
						</g>
						<g id="path1108">
							<path inkscape:connector-curvature="0" fill="#BCBCBC" d="M50.7,63.4L50.7,63.4"/>
						</g>
						<g id="path1300">
							<path inkscape:connector-curvature="0" fill="#66180B" d="M52.3,59.8h2v-0.4h-2V59.8z"/>
						</g>
						<g id="path1302">
							<path inkscape:connector-curvature="0" fill="#66180B" d="M51.5,61.2h3.6v-0.3h-3.6V61.2z"/>
						</g>
						<g id="path1304">
							<path inkscape:connector-curvature="0" fill="#66180B" d="M50.8,62.7v-0.3H56v0.1c0,0,0,0-0.1,0.1v0.1L50.8,62.7"/>
						</g>
						<g id="path1306">
							<path inkscape:connector-curvature="0" fill="#66180B" d="M50.3,64.1v-0.3h5.2c0,0-0.1,0.1-0.1,0.2c-0.1,0.1-0.1,0.1-0.1,0.1
								H50.3"/>
						</g>
					</g>
					<g id="g5312">
						<g id="path182">
							<path inkscape:connector-curvature="0" fill="#FFCC18" d="M56.9,61.3c-0.1,0-0.2,0.1-0.2,0.2c0,0.1,0.1,0.3,0.2,0.3
								c0.4,0.1,0.5-0.1,0.6-0.1s0.3-0.1,0.3-0.1s-0.2,0.1-0.3,0.2c-0.2,0.3-0.3,0.3-0.5,0.8c-0.1,0.1-0.1,0.3-0.1,0.3
								s0.2-0.1,0.3-0.2c0.1-0.1,0.4-0.4,0.5-0.8c0.1-0.3,0.3-0.4,0.3-0.3c0,0.1-0.2,0.3-0.2,0.3c-0.1,0.3-0.1,0.7,0.3,0.8
								c0.4,0.1,0.6-0.2,0.6-0.2s-0.4,0-0.5,0C58.1,62.4,58,62.2,58,62c0-0.1,0.2-0.4,0.3-0.4s0,0.1,0,0.3c0,0.1,0.1,0.3,0.3,0.3
								c0.1,0,0.2-0.1,0.2-0.2c0,0-0.2,0-0.2-0.2s0.1-0.3,0.2-0.3c0.2-0.1,1.1,0,1.3,0c0.8,0.1,1.5,0.1,1.8,0c0.5-0.1,1-0.5,1-0.8
								c0-0.2,0-0.5-0.2-0.6c-0.3-0.1-0.4,0.1-0.4,0.1s0.2,0.1,0.2,0.3s-0.1,0.4-0.4,0.6c-0.1,0.1-0.3,0.1-0.3,0.1s0.1-0.1,0.2-0.2
								c0.1-0.1,0.2-0.2,0.1-0.3c0-0.3-0.4-0.2-0.4-0.2s0.1,0.1,0.1,0.2c0,0.1-0.1,0.3-0.3,0.4c-0.1,0.1-0.3,0.2-0.5,0.2s-1,0-1.1,0
								s-1.2-0.1-1.4-0.1c-0.6,0-1.1,0.2-1.3,0.3c-0.4,0.2-0.4,0.1-0.4,0.1s0.1-0.1,0-0.2C57.1,61.4,57,61.3,56.9,61.3"/>
						</g>
						<g id="path456">
							<path fill="#FFCC18" d="M59.6,39.4L59.6,39.4L59.6,39.4L59.6,39.4z"/>
						</g>
						<g>
							<path fill="#F3334B" d="M59.7,43.9C59.6,43.8,59.6,43.9,59.7,43.9L59.7,43.9z"/>
							<path fill="#F3334B" d="M62.5,44.8L62.5,44.8L62.5,44.8L62.5,44.8z"/>
							<path fill="#F3334B" d="M63.7,46.9c-0.1-0.1-0.2-0.9-0.3-1c-0.1-0.3-0.3-0.7-0.5-0.8c-0.1-0.1-0.2-0.2-0.4-0.3
								c0.1,0.1-0.5,0.3-0.5,0.8c0,0.1,0,1,0,1.1s0,0,0.1,0.2c0,0.1,0.6,1.3,0.6,1.3c0,0.1,0,0.6,0.2,0.8c0,0,0-0.1,0.1-0.1
								s1.1-0.2,1.1-0.3v-0.1c0.1,0,0.2,0.1,0.2,0.3c0,0.1,0.1,0,0.1,0.2c0,0,0.1-0.2,0.1-0.3C64.5,48.6,64.1,47.4,63.7,46.9z"/>
						</g>
						<g id="path1290">
							<path inkscape:connector-curvature="0" fill="#F4D3B0" d="M59.6,43.8c0,0-0.1-0.1-0.1-0.2c0-0.1,0-0.1,0.1-0.1
								c0.4-0.1,0.6-0.4,0.6-0.4c-0.1,0-0.2,0.2-0.6,0.2c-0.2,0-0.3-0.1-0.3-0.2c0-0.1,0-0.2,0-0.2c0.1,0,0.3,0,0.3,0s0.1-0.1,0-0.2
								c0-0.1-0.2,0-0.3,0v-0.1h0.3c0.1,0,0.2,0.1,0.2,0.1s0-0.2-0.1-0.2s-0.2,0-0.2,0h-0.1c-0.1,0-0.2,0.1-0.2,0.1s0.1-0.2,0-0.2
								c-0.2-0.1-0.2-0.2-0.1-0.2c0,0,0.1-0.2,0.1-0.4s-0.3-0.2-0.3-0.3v-0.1c0,0,0.2,0.1,0.4,0c0.1-0.1,1.1-0.2,1.1-0.1
								c0,0.3,0,0.2,0,0.3s0.1,0.1,0.1,0.2c0,0.1,0.1,0.1,0.1,0.1l0.1-0.1c0.1,0.1,0.1,0,0.1,0s0,0,0,0.1c-0.1,0.1,0,0.2-0.1,0.2
								s-0.1,0.1,0,0.2c0,0.1,0.2,0,0.2,0s0,0.2-0.1,0.2c0,0-0.1-0.1-0.1,0c0,0.2,0,0.1,0,0.2c0,0.2,0.1,0.6,0.1,0.7
								c0,0.2-0.2,0.3-0.3,0.4c-0.2,0.2-0.5,0.3-0.6,0.3C59.8,43.9,59.7,43.9,59.6,43.8C59.6,43.9,59.6,43.8,59.6,43.8"/>
						</g>
						<g id="path1292">
							<path inkscape:connector-curvature="0" fill="#F4D3B0" d="M59,41.8C59.1,41.8,59.1,41.7,59,41.8L59,41.8
								C59.1,41.7,59.1,41.8,59,41.8c0.1,0.2,0,0.4,0,0.4c-0.1,0-0.1-0.1-0.1-0.2C58.9,41.9,58.9,41.8,59,41.8L59,41.8"/>
						</g>
						<g id="path1294">
							<path inkscape:connector-curvature="0" fill="#F4D3B0" d="M63.6,52.4c0-0.1-0.1-0.3-0.2-0.5c-0.1-0.1-0.1-0.3-0.2-0.3
								c0,0-0.1,0.1-0.1,0.3s0,0.6,0,0.6H63c0-0.2-0.1-0.4-0.1-0.5s0-0.6,0.1-0.7c0-0.1,0.3-2.8,0.3-2.8c0.1-0.1,0.5-0.1,0.7,0
								c0.2,0.1,0.1,0.8,0.1,1.1s-0.2,1.3-0.3,1.4c0,0.1,0.2,0.4,0.2,0.6c0,0.1,0.1,0.5,0.1,0.6s-0.1,0.3-0.2,0.2v-0.1
								c0.1-0.2,0-0.2,0-0.2c-0.2,0.2-0.1,0.3-0.1,0.5c0,0.1-0.2,0.4-0.2,0.3C63.5,52.7,63.5,52.5,63.6,52.4"/>
						</g>
						<g id="path1338">
							<path inkscape:connector-curvature="0" d="M59.4,42.3L59.4,42.3l0.2-0.1v-0.1l0.3,0.3c0,0-0.2-0.2-0.2-0.1
								c-0.1,0-0.1,0-0.1,0C59.5,42.4,59.3,42.4,59.4,42.3"/>
						</g>
						<g id="path1340">
							<path inkscape:connector-curvature="0" d="M60.1,41.4c0.2,0,0.2,0.2,0.1,0.2c-0.2-0.1-0.4,0-0.4,0s0.3,0,0.3,0.1s0,0.1,0,0.1
								H60c-0.1,0-0.1,0.1-0.2,0.1c-0.1,0-0.1-0.1-0.2-0.1c-0.2,0-0.1-0.1-0.2-0.2c0-0.1,0-0.1,0.1-0.1h0.3
								C59.8,41.5,60,41.4,60.1,41.4"/>
						</g>
					</g>
				</g>
				<g id="g5558">
					<g id="path14">
						<path inkscape:connector-curvature="0" d="M34.8,66.2L34.8,66.2L34.8,66.2L34.8,66.2"/>
					</g>
					<g id="path320">
						<path inkscape:connector-curvature="0" fill="#FFCC18" d="M35.9,59.8c-0.4,0.1-0.5,0.4-0.4,0.6c0,0.4,0.4,0.7,0.5,0.7
							c0.9,0.4,1.6,0.3,1.7,0.3c0.3,0,1.6-0.2,1.8-0.2c0.4,0.1,0.5,0.3,0.5,0.4c0,0.2-0.2,0.2-0.2,0.2s0,0.3,0.2,0.3
							c0.1,0,0.2-0.1,0.2-0.3c0-0.3-0.2-0.3-0.1-0.4c0,0,0.3,0.1,0.3,0.3c0,0.1,0.1,0.5-0.4,0.6c-0.3,0.1-0.5-0.2-0.5-0.2
							s0,0.4,0.5,0.5c0.1,0,0.4,0,0.5-0.4c0.1-0.3-0.1-0.6-0.1-0.6s0.1-0.1,0.3,0.5c0,0.1,0.4,0.9,0.7,0.9c0.1,0-0.3-0.9-0.4-1
							c-0.2-0.3-0.7-0.5-0.7-0.6c-0.1-0.1,0.4,0.1,0.5,0.1c0.1,0.1,0.4,0.3,0.6,0.2c0.1,0,0.3-0.1,0.3-0.3c0-0.1-0.1-0.2-0.2-0.2
							c-0.2,0-0.1,0.2-0.1,0.2s0,0.1-0.3,0c0,0-0.6-0.2-0.9-0.3c-0.8-0.1-1,0-1.3,0s-1,0.2-1.9,0c-0.1,0-0.4-0.2-0.4-0.5
							c0-0.2,0.2-0.3,0-0.4c-0.1,0-0.2,0-0.2,0.2c-0.1,0.3,0.1,0.4,0.1,0.5c0.1,0-0.2,0.2-0.5-0.4c0-0.1,0-0.3,0.1-0.4
							c0,0,0.2,0,0.2,0"/>
					</g>
					<g id="path634">
						<path inkscape:connector-curvature="0" fill="#FFFFFF" d="M38.2,43.4c0.2,0.4,0.6,0.5,0.6,0.6c0,0,0.2,0.2,0.3,0.2
							s0.2-0.3,0.3-0.4c0.3-0.2,0.3-0.5,0.3-0.6s0.3-0.3,0.3-0.3s0.3,0.2,0.5,0.3c0.1,0.1,0.7,0.3,0.7,0.3s0,0-0.1,0
							c0,0-0.3-0.2-0.8,0c-0.1,0-0.4,0.3-0.5,0.3s-0.4,0-0.4,0c-0.1,0-0.2,0.4-0.3,0.4S38.9,44,38.7,44c0,0-0.3-0.2-0.4-0.2
							c-0.1,0-0.7,0-0.9-0.1c-0.1,0-0.2-0.2-0.5-0.2c-0.1,0-0.4,0.1-0.4,0s0.2-0.2,0.3-0.2c0.3,0,0.5-0.2,0.6-0.2s0.1,0.2,0.2,0.2
							c0.1,0,0.1-0.3,0.1-0.4c0.1-0.1,0.3,0.3,0.3,0.3V43c0,0-0.1,0-0.1-0.1c0-0.4,0.2-0.6,0.3-0.6C38.2,42.7,38.1,43.2,38.2,43.4"
							/>
					</g>
					<g id="path636">
						<path inkscape:connector-curvature="0" fill="#FFFFFF" d="M38.6,45c0,0.1,0.3,0.1,0.3,0.2c0,0.1-0.3,0.3-0.4,0.4
							c0,0.1,0,0.2,0,0.2c0,0.1-0.1,0.2-0.2,0.1c0,0-0.2-1.1-0.1-1.1C38.3,44.8,38.5,44.9,38.6,45"/>
					</g>
					<g id="path638">
						<path inkscape:connector-curvature="0" fill="#FFFFFF" d="M35.3,51.5c0,0,0.2-0.2,0.3-0.2s0.5-0.2,0.6-0.2s0.2,0,0.2,0.1
							s-0.3,0-0.5,0.1C35.8,51.4,35.5,51.6,35.3,51.5"/>
					</g>
					<g id="path640">
						<path inkscape:connector-curvature="0" fill="#FFFFFF" d="M35.6,51.7c0,0-0.1,0.1,0,0.2c0,0,0.2-0.2,0.3-0.2c0,0,0,0,0-0.1
							s0.2-0.2,0.4-0.1c0.1,0,0.3,0.4,0.3,0.4c0,0.2,0.1,0.5,0.1,0.5c0,0.1,0,0.2-0.1,0.2s-0.1-0.3-0.1-0.3h-0.1
							c-0.1,0.2,0.1,0.8-0.1,0.8c-0.1,0-0.1-0.1-0.2-0.3c-0.1-0.1-0.2-0.3-0.2-0.3c-0.1,0,0,0.1,0,0.1S36.1,53,36,53
							c-0.2,0.1-0.3-0.3-0.3-0.3s0-0.2-0.1-0.2v0.2c0,0.1,0.2,0.2,0.2,0.3s-0.1,0.1-0.1,0c-0.1-0.1-0.2-0.2-0.2-0.2
							c-0.1-0.1-0.1-0.5-0.1-0.5C35.3,52.2,35.5,51.7,35.6,51.7L35.6,51.7"/>
					</g>
					<g id="path644">
						<path inkscape:connector-curvature="0" fill="#FFFFFF" d="M39.4,46c0,0,0.1,0.4,0.1,0.5c-0.1,0.3-0.1,0.4-0.1,0.4
							c0,0.1-0.1,0.5-0.1,0.6c0.1,0.5,0.3,0.6,0.4,0.7c0,0,0.1,0,0.1-0.1c0-0.4,0.2-0.9,0.2-0.9c0.1,0,0.2,0.9,0.2,1
							s-0.1,0.2-0.1,0.2s0,0-0.1,0c0,0,0,0.1-0.1,0c0,0,0.1-0.1,0-0.2c-0.1,0-0.2,0.3-0.3,0.4c0,0,0-0.1-0.1-0.1s-0.1,0.1-0.1,0.1
							v-0.2c0,0-0.1,0.2-0.2,0.2l0.1-0.3l-0.2,0.3c0,0,0,0-0.1,0l-0.1,0.1c0,0,0.1-0.3,0.1-0.4l-0.1,0.1l0.1-0.3
							c-0.1,0-0.2,0.6-0.4,0.7c-0.1,0-0.1,0-0.2-0.1c0,0,0.1-0.7,0-0.8c0-0.1-0.1-0.1-0.1-0.1c0-0.2-0.1-1.1,0-1.2
							c0,0,0.2,0.2,0.2,0.1c0,0,0-0.1,0-0.2c0-0.1,0.1-0.2,0.2-0.3C39.1,46.2,39.2,45.9,39.4,46C39.4,45.9,39.4,45.9,39.4,46"/>
					</g>
					<g id="path646">
						<path inkscape:connector-curvature="0" fill="#FFFFFF" d="M38.8,49.4C38.8,49.4,38.8,49.5,38.8,49.4
							C39,49.5,38.9,49.4,38.8,49.4h0.3c0,0.1,0.1,0.1,0.1,0.1h0.2c0,0-0.1,1.4-0.1,1.5c-0.1,0.1,0,0.1,0,0.2l-0.1,0.1
							c0,0,0,0.1,0,0.2c0,0-0.1,0-0.1,0.1v0.1c0,0-0.1,0-0.1,0.1c0,0,0,0.1,0,0.2c0,0-0.1,0-0.1,0.1v0.1l-0.1,0.1v0.1
							c0,0-0.1,0.1-0.1,0.2l0.1,0.1c0,0,0,0.1-0.1,0.1c0,0.1,0.1,0.1,0.1,0.2c0,0.1,0,0.1-0.1,0.1c0,0.1,0.1,0.1,0.1,0.2
							c0,0.1-0.1,0-0.1,0.1s0.1,0.1,0.1,0.1l-0.1,0.1c0,0.1,0.1,0.1,0.1,0.1l-0.1,0.1c0,0.1,0.1,0.1,0.1,0.1L38.7,54
							c0,0.1,0.1,0.1,0.1,0.1l-0.1,0.1c0,0.1,0.1,0.1,0.1,0.1c0,0.1,0,0.1,0,0.1v0.2c0,0.1-0.1,0.1-0.1,0.1c0,0.1,0,0.1,0,0.1
							c0,0.1-0.1,0.1-0.1,0.2c0,0.1,0,0.1,0,0.1c0,0.1-0.1,0.1-0.1,0.1v0.1v0.1c-0.1,0-0.1,0.1-0.2,0.2c-0.1,0-0.1,0.2-0.2,0.1
							c-0.1,0-0.1,0.2-0.2,0.2C38,56,38,56.3,38,56.3c0.1,0,0.1-0.1,0.1-0.1c0.1,0.1,0.2-0.1,0.2-0.1c0.1,0,0.2-0.1,0.2-0.1l0.1,0.2
							c-0.1,0.1,0,0.2,0,0.3c-0.1,0.1-0.1,0.3-0.1,0.3c-0.1,0.1-0.1,0.3-0.1,0.3c0.1,0,0.1-0.1,0.2-0.1c0,0,0,0.1,0,0.2
							c-0.1,0.2,0,0.3,0,0.3c-0.1,0.1,0,0.3,0,0.3c-0.1,0.2,0,0.2,0,0.3c-0.1,0.1,0.1,0.2,0,0.2c-0.1,0.1,0,0.2,0,0.3
							c-0.1,0.1,0,0.1,0,0.2l0.2,1.1c-0.1,0.1,0.1,0.2,0,0.3c-0.1,0.2,0,0.2,0,0.3c-0.1,0.2,0.1,0.3,0.1,0.3s0,0.1-0.1,0.1
							c0,0-0.3-0.3-0.7-0.3c-0.5,0-0.8,0.5-1,0.5c-0.1,0-0.2-0.2-0.2-0.3c0,0,0.1,0.2,0.2,0.1c0,0-0.3-0.4-0.2-0.5
							c0,0,0.1-0.1,0-0.1L36.8,60c0,0,0-0.1,0.1-0.2l0.1-0.5c0,0-0.1-0.2,0-0.3c0,0-0.2-0.4-0.1-0.5c0,0-0.2-0.3-0.1-0.4
							c0,0-0.1-0.3,0-0.4c0,0-0.2-0.3,0-0.4V57c0,0-0.1-0.4,0-0.5c0,0,0-0.3,0.1-0.4c0,0,0-0.3,0-0.4c0,0,0-0.2,0-0.3
							c0.1-0.1,0-0.4,0-0.4s0-0.3,0-0.4c0,0-0.2-0.5-0.1-0.6c0,0-0.2-0.5-0.1-0.5c0,0-0.1-0.4-0.1-0.5v-0.2c0.1-0.1-0.1-0.5-0.1-0.5
							s0.2,0.2,0.2,0.1c0.1-0.1-0.5-0.6-0.4-0.7l0.3,0.2l-0.3-0.4c0,0,0-0.1,0-0.2c0,0,0-0.2,0.1-0.3C36.4,51,38.7,49.4,38.8,49.4"
							/>
					</g>
					<g id="path648">
						<path inkscape:connector-curvature="0" fill="#FFFFFF" d="M39.7,49.6C39.7,49.6,39.6,49.7,39.7,49.6c0.1,0.1,0.2-0.2,0.2-0.2
							c0.1,0.1,0.8,1.3,0.8,1.3l-0.1,0.7c0,0.1,0,0.1,0,0.1c0,0.1,0.1,0.3,0.1,0.3c0,0.1,0,0.2,0,0.3v0.2l-0.1,4.2v0.8l0.1,2v0.1
							c0,0,0.1,0,0.1,0.1l-0.1,0.1c0,0,0.1,0.1,0.1,0.2c-0.1,0.1-0.2,0-0.6,0c-0.2,0-0.6,0.4-0.8,0.4c-0.1,0-0.3,0-0.3-0.1
							s-0.2-0.2-0.1-0.3c0,0,0.3,0.1,0-0.3c0,0,0.1-0.6,0.1-0.8c0,0,0,0-0.1-0.4c0,0-0.1-0.2,0-0.4c0,0-0.1-0.3,0-0.4
							c0,0,0.1-0.1,0.1-0.2s-0.2-0.5-0.1-0.5c0.1,0,0-0.2,0.1-0.3c0-0.1,0-2.7,0.1-2.9c0.1-0.1,0.1-1.3,0.1-1.4c0,0,0.3-1.1,0.3-1.2
							c0-0.1,0.1-1.6,0.1-1.7C39.6,49.5,39.7,49.5,39.7,49.6"/>
					</g>
					<g id="path650">
						<path inkscape:connector-curvature="0" d="M39.4,52.1C39.4,52.1,39.3,52.2,39.4,52.1"/>
					</g>
					<g id="path1284">
						<path inkscape:connector-curvature="0" fill="#F4D3B0" d="M38.8,40.9c0.3,0,0.4-0.1,0.5-0.1s0.3-0.1,0.5-0.1
							c0.1,0,0.2,0.2,0.2,0.2c-0.2,0.1-0.3,0.2-0.3,0.2c-0.1,0.1,0,0.3,0,0.3c0.1,0.2,0.1,0.5,0.1,0.5s-0.1,0.1-0.2,0h-0.1
							c0,0-0.1-0.1-0.1,0l-0.1,0.2c0.1,0,0.1,0,0.2,0c0.3,0,0.3-0.1,0.4-0.1c0.1-0.2-0.1-0.5,0-0.5s0.2-0.1,0.2-0.1
							c0.1,0.1,0,0.4,0,0.4v0.1c0,0,0.1,0.3,0,0.4v0.1v0.1c0,0,0,0.1-0.1,0.1l-0.1,0.1c-0.4,0-0.3,0.1-0.3,0.1h-0.2
							c0-0.1-0.2-0.1-0.2-0.2c0-0.1-0.1,0-0.1-0.1s-0.3-0.2-0.2-0.3s0-0.1,0-0.1V42l-0.2-0.1c0-0.1,0-0.1,0-0.1
							c0-0.1-0.1-0.1-0.1-0.1s0-0.1-0.1-0.1c0-0.1,0-0.1,0-0.2c0,0-0.1-0.1,0-0.2C38.4,41,38.7,40.9,38.8,40.9"/>
					</g>
					<g id="path1296">
						<path inkscape:connector-curvature="0" fill="#F4D3B0" d="M35.6,51.7c0,0-0.1,0.1,0,0.2c0,0,0.2-0.2,0.3-0.2c0,0,0,0,0-0.1
							s0.2-0.2,0.4-0.1c0.1,0,0.3,0.4,0.3,0.4c0,0.2,0.1,0.5,0.1,0.5c0,0.1,0,0.2-0.1,0.2s-0.1-0.3-0.1-0.3h-0.1
							c-0.1,0.2,0.1,0.8-0.1,0.8c-0.1,0-0.1-0.1-0.2-0.3c-0.1-0.1-0.2-0.3-0.2-0.3c-0.1,0,0,0.1,0,0.1S36.1,53,36,53
							c-0.2,0.1-0.3-0.3-0.3-0.3s0-0.2-0.1-0.2v0.2c0,0.1,0.2,0.2,0.2,0.3s-0.1,0.1-0.1,0c-0.1-0.1-0.2-0.2-0.2-0.2
							c-0.1-0.1-0.1-0.5-0.1-0.5C35.3,52.2,35.5,51.7,35.6,51.7L35.6,51.7"/>
					</g>
				</g>
			</g>
			<g id="g5466">
				<g id="g2693" transform="translate(6.4411,-3.852503)">
					<path id="path1514" inkscape:connector-curvature="0" fill="#FFFFFF" d="M17.9,33.3l-1-8.1h1.7l0.6,5.9l0,0l1-5.9h2.1l0.9,5.9
						l0,0l0.6-5.9h1.5l-1,8.1h-2l-1-6l0,0l-1.1,6H17.9"/>
					<path id="path1516" inkscape:connector-curvature="0" fill="#FFFFFF" d="M25.8,33.3h1.8v-8.2h-1.8V33.3z"/>
					<path id="path1518" inkscape:connector-curvature="0" fill="#FFFFFF" d="M31.9,27.5c0-0.3-0.1-0.6-0.2-0.7
						c-0.1-0.2-0.4-0.3-0.6-0.3c-0.4,0-0.7,0.3-0.7,0.7c0,0.6,0.5,0.8,1,0.9c1,0.3,2.5,0.5,2.5,2.7c0,1.7-1.3,2.5-2.7,2.5
						c-1.4,0-2.7-0.6-2.7-2.8h1.7c0,0.8,0.4,1.2,1,1.2c0.4,0,0.9-0.3,0.9-0.8c0-1.1-1.2-0.9-2.6-1.6c-0.6-0.4-0.9-1.1-0.9-2
						c0.1-1.9,1.3-2.5,2.6-2.5s2.6,0.6,2.4,2.6L31.9,27.5"/>
					<path id="path1520" inkscape:connector-curvature="0" fill="#FFFFFF" d="M38.6,27.7c0-0.7-0.5-1.1-1.1-1.1
						c-1,0-1.1,1.5-1.1,2.7s0.2,2.6,1.1,2.6c0.7,0,1.1-0.4,1.1-1.2h1.8c0,2-1.4,2.8-2.9,2.8c-1.9,0-2.9-1.5-2.9-4.2s1-4.2,2.9-4.2
						c1.5,0,2.9,0.7,2.9,2.7L38.6,27.7"/>
					<path id="path1522" inkscape:connector-curvature="0" fill="#FFFFFF" d="M41.1,29.2c0-2.7,1.1-4.2,3.2-4.2s3.2,1.6,3.2,4.2
						c0,2.7-1.1,4.2-3.2,4.2S41.1,31.9,41.1,29.2z M44.3,26.5c-1.1,0-1.4,1.4-1.4,2.7c0,1.2,0.2,2.6,1.4,2.6c1.1,0,1.4-1.4,1.4-2.6
						S45.4,26.5,44.3,26.5"/>
					<path id="path1524" inkscape:connector-curvature="0" fill="#FFFFFF" d="M48.3,25.1h2.4l2,6.1l0,0v-6h1.5v8.1h-2.3l-2-6.3l0,0
						v6.2h-1.5L48.3,25.1"/>
					<path id="path1526" inkscape:connector-curvature="0" fill="#FFFFFF" d="M58.6,27.5c0-0.3-0.1-0.6-0.2-0.7
						c-0.1-0.2-0.4-0.3-0.6-0.3c-0.4,0-0.7,0.3-0.7,0.7c0,0.6,0.5,0.8,1,0.9c1,0.3,2.5,0.5,2.5,2.7c0,1.7-1.3,2.5-2.7,2.5
						s-2.7-0.6-2.7-2.8h1.7c0,0.8,0.4,1.2,1,1.2c0.4,0,0.9-0.3,0.9-0.8c0-1.1-1.2-0.9-2.6-1.6c-0.6-0.4-0.9-1.1-0.9-2
						c0.1-1.9,1.3-2.5,2.6-2.5s2.6,0.6,2.4,2.6L58.6,27.5"/>
					<path id="path1528" inkscape:connector-curvature="0" fill="#FFFFFF" d="M61.4,33.3h1.8v-8.2h-1.8V33.3z"/>
					<path id="path1530" inkscape:connector-curvature="0" fill="#FFFFFF" d="M64.3,25.1h2.4l2,6.1l0,0v-6h1.5v8.1h-2.3L65.8,27l0,0
						v6.2h-1.5V25.1"/>
				</g>
				<g id="path18">
					<path inkscape:connector-curvature="0" d="M41.3,37.5c-0.1,0,0.1-0.7,0.6-0.8s0.5,0,0.7-0.1c0.1-0.1,0.6-0.4,0.8-0.5
						c0.2,0,0.6,0,0.6,0c0-0.1-0.1-0.2-0.1-0.4s0.3-0.5,0.8-0.7c0.4-0.2,1-0.2,1.2-0.2c0.3-0.1,0.8-0.4,1.1-0.4s0.8,0,1-0.1
						c0.2,0,0.8-0.3,1.3-0.3c0.8,0,1.5,0.3,1.7,0.4c0.2,0.1,0.7,0,1.1,0.1c0.4,0.1,0.8,0.3,1,0.3s0.8,0.1,1,0.2
						c0.2,0.1,0.6,0.3,0.6,0.5c0,0.3-0.2,0.5-0.2,0.6c0.1,0.1,0.6,0,0.9,0.1c0.3,0.1,0.5,0.3,0.6,0.3s0.7,0.1,0.9,0.2
						c0.2,0.1,0.6,0.3,0.7,0.6c0,0.1,0.1,0.3,0,0.3s-0.3-0.2-0.6-0.2s-0.6,0-0.6,0c-0.1,0-0.5-0.1-0.5-0.1c0,0.1,0.1,0.1,0.2,0.2
						c0.1,0.1,0.5,0.1,0.7,0.1c0.2,0.1,0.7,0.4,0.5,0.7c-0.1,0.1-0.5-0.1-0.7-0.1c-0.4,0-0.8,0.1-1,0c-0.1,0-0.7-0.4-1.1-0.5
						c-0.4,0-1.1,0.1-1.4,0.1c-0.3,0-0.7-0.3-0.7-0.5s0.2-0.6,0.2-0.7c-0.2-0.2-0.9-0.2-1.2-0.3c-0.6-0.1-0.8-0.4-1.8-0.4
						c-0.6,0-1.2,0.2-1.3,0.2c-0.2,0-0.8,0-1,0.1c-0.2,0-1.1,0.3-1.1,0.4c0,0.1,0.2,0.4,0.1,0.6c-0.2,0.4-0.9,0.6-1.1,0.6
						c-0.4,0.1-0.9-0.2-1.1-0.1c-0.4,0.1-0.6,0.3-1,0.4c-0.2,0-0.7,0-0.9,0c-0.4,0-0.5,0.2-0.5,0.1c-0.1-0.1,0.1-0.5,0.3-0.6
						s0.5-0.3,0.5-0.4c0-0.1-0.2,0-0.3-0.1c-0.1,0-0.3-0.1-0.4-0.1C41.4,37.4,41.3,37.5,41.3,37.5"/>
				</g>
				<g>
					<path fill="#753C28" d="M54.4,40.5L54.4,40.5c-0.2-0.1-0.2-0.2-0.2-0.2c-0.1,0-0.1,0-0.1,0c-0.1,0-0.1-0.1-0.1-0.1l-0.1,0.1
						l-0.1-0.1c0,0-0.1,0.1-0.2,0.1l0,0c-0.1,0-0.1,0-0.1,0h-0.1c0,0,0,0.1-0.1,0.1l-0.1,0.1c0,0.1-0.1,0.1-0.1,0.1
						c-0.1,0-0.1,0-0.1,0h-0.1v-0.1c0.2-0.2,0-0.3,0-0.3c0.1-0.1,0-0.1,0-0.2s-0.1-0.3-0.1-0.3c0.1-0.1,0-0.2,0-0.2
						c0-0.1-0.2-0.2-0.2-0.2c0.1-0.1-0.1-0.2-0.1-0.2c0.1-0.1-0.1-0.2-0.1-0.2c0-0.2-0.2-0.1-0.2-0.2c-0.1-0.2-0.3-0.2-0.3-0.2
						c0-0.1-0.2-0.1-0.2-0.1c0-0.2-0.2-0.2-0.2-0.2c-0.1-0.1-0.2-0.1-0.3-0.1C51.2,38,51,38,51,38c-0.1,0-0.2,0-0.2,0
						c-0.1,0-0.2-0.1-0.5-0.1C50.2,38,49.9,38,49.9,38c-0.1-0.1-0.3,0-0.3,0c-0.3,0-0.4,0.2-0.4,0.2c-0.1,0-0.2,0-0.2,0
						c-0.1,0.1-0.1,0.1-0.2,0.1l0,0c-0.1,0-0.1,0.1-0.1,0.1h-0.1c-0.1,0.1-0.1,0.1-0.1,0.1s-0.1,0-0.2,0.1l0,0c-0.1,0,0,0-0.1,0
						c0,0,0,0.1-0.1,0.1c-0.2,0-0.2,0.1-0.2,0.1l0,0l0,0c-0.2,0-0.4,0.1-0.4,0.1h-0.1l0,0C47.2,38.9,47,39,47,39
						c-0.1,0-0.3,0.1-0.5,0.2l0,0c-0.2,0.1-0.3,0.2-0.4,0.2c-0.2,0-0.6,0.2-0.6,0.2c0,0.1,0.2,0.1,0.2,0.2c0.1,0.1,0.2,0.1,0.2,0.1
						C46,39.9,46,40,46,40c-0.1,0-0.2,0-0.2,0.1c0.1,0.2,0.4,0.1,0.7,0.5c0.1,0.1,0.3,0.2,0.3,0.2c0.4,0.3,0.5,0.3,0.6,0.3l0,0
						c0,0,0,0.1,0.1,0.1h0.1l0.1,0.1c0,0-0.3,0.1-0.4,0.1S47,41.6,47,41.6s-0.1,0-0.2,0c-0.1,0-0.1-0.1-0.2,0l0,0
						c-0.1,0-0.1,0-0.2,0l0,0c-0.1-0.1-0.3-0.2-0.4,0c0,0,0.1,0.1,0.1,0.2c-0.1,0.2,0.1,0.3,0.1,0.3c-0.1,0.3,0.2,0.4,0.2,0.4
						s0.9,0,1,0s0.2-0.1,0.2-0.1s0.1,0.1,0.2,0.1s0.6,0,0.6,0s0.1-0.1,0.2-0.1c0.1,0,0.2,0.1,0.2,0.1h0.3c0,0,0.1,0.3,0.1,0.4
						c0,0.1,0.1,0.1,0.1,0.1c0.1,0,0.1-0.1,0.1-0.1c0-0.1,0.1-0.4,0.1-0.4c0.1,0,0.2-0.1,0.2-0.1c0.1,0,0.2,0.1,0.2,0.1h0.6l0.2-0.1
						l0.3,0.1c0.2,0,0.6,0,0.7,0c0.1,0,0.2-0.1,0.2-0.1l0.1,0.1c0.3,0.1,0.9,0,0.9,0c0.2-0.1,0-0.5-0.1-0.6s-0.2-0.1-0.3-0.1l0,0
						l0,0c-0.1,0-0.2,0-0.3,0v-0.1c0.1-0.1,0.3-0.2,0.4-0.4h0.1c0.1,0.1,0.3,0.1,0.3,0.1c0.2,0.1,0.4,0,0.4,0c0.2,0.1,0.3,0,0.3,0
						c0.2,0,0.2-0.2,0.3-0.2c0.3-0.2,0.3-0.3,0.3-0.3c0.2-0.1,0.1-0.2,0.1-0.2C54.3,40.6,54.4,40.5,54.4,40.5z"/>
				</g>
				<g id="path1282">
					<path inkscape:connector-curvature="0" fill="#F4D3B0" d="M38.1,41.6c0,0-0.1,0-0.1,0.2c0,0,0.1,0.2,0.2,0.2
						c0,0,0.2,0.1,0.1,0.2c0,0-0.3-0.1-0.4-0.3c0,0,0-0.2,0-0.3C38,41.6,38.1,41.6,38.1,41.6"/>
				</g>
				<g id="path1286">
					<path inkscape:connector-curvature="0" fill="#F8B8DE" d="M39.7,41.1L39.7,41.1c0.2-0.1,0.2,0,0.2,0S39.9,41.1,39.7,41.1
						C39.8,41.1,39.7,41.1,39.7,41.1"/>
				</g>
				<g id="path1324">
					<path inkscape:connector-curvature="0" fill="#FFFFFF" d="M46.1,37.4c0,0.1-0.4,0.3-0.7,0.4c-0.4,0.1-1.2-0.1-1.3-0.1
						c-0.5,0-0.8,0.3-0.9,0.4c-0.4,0.1-0.7,0-0.8,0s-0.5,0.1-0.5,0.1c-0.1-0.1,0.5-0.6,0.7-0.6c0.2-0.1,0.5-0.1,0.6-0.1
						s0.2-0.2,0.3-0.2s0.2,0,0.2-0.1s-0.2-0.1-0.5-0.1c-0.1,0-0.4,0.2-0.6,0.2c-0.1,0-0.4-0.1-0.5-0.1s-0.4,0-0.4,0s0.2-0.3,0.5-0.3
						c0.1,0,0.4,0,0.5-0.1c0.2,0,0.5-0.4,0.7-0.5c0.1,0,0.8-0.1,0.8,0c0.2,0.1,0.4,0.6,0.4,0.7c0,0.1,0,0.2,0.2,0.4s0.7,0,0.8,0
						C45.7,37.4,46,37.3,46.1,37.4"/>
				</g>
				<g id="path1326">
					<path inkscape:connector-curvature="0" fill="#FFFFFF" d="M44.8,37.1c0,0.1-0.2-0.6-0.3-0.8c-0.1-0.1-0.4-0.4-0.3-0.7
						c0-0.2,0.6-0.5,0.8-0.6c0.3-0.1,0.7-0.1,0.9-0.1c0.3,0,1-0.4,1.2-0.4s0.9,0,0.9,0c0.1,0,1-0.3,1.5-0.3c0.4,0,1.1,0.2,1.1,0.2
						c0.4,0.2,1.4,0.1,1.7,0.2c0.2,0.1,0.9,0.3,1,0.3c0.2,0,0.6,0.1,0.7,0.1c0.3,0.1,0.6,0.4,0.6,0.5c0,0.2-0.2,0.5-0.2,0.6
						c-0.4,0.4-0.3,0.9-0.4,1c-0.1,0-0.2-0.2-0.5-0.3s-0.6-0.1-0.8-0.2c-0.1,0-0.4-0.2-0.6-0.2c-0.1,0-0.8-0.1-0.9-0.1
						c-0.2,0-0.7-0.3-1.5-0.3c-0.7,0-1.6,0.3-1.7,0.3c-0.3,0-0.9,0.1-1,0.1c-0.2,0-0.8,0.3-1,0.3c-0.1,0-0.4,0-0.7,0.1
						C45,36.9,44.8,37.1,44.8,37.1"/>
				</g>
				<g id="path1328">
					<path inkscape:connector-curvature="0" fill="#FFFFFF" d="M52.6,37.5c0,0,0.1-0.2,0.4-0.2c0.1,0,0.6,0.2,0.9,0.2
						c0.1,0,0.2-0.1,0.3-0.4c0-0.1,0.1-0.7,0.2-0.8c0.1,0,0.8,0,0.8,0c0.2,0.1,0.6,0.3,0.7,0.4c0.2,0.1,0.6,0.1,0.6,0.1
						c0.1,0.1,0.3,0.1,0.5,0.2c0.2,0.1,0.4,0.3,0.4,0.4c0,0-0.3-0.1-0.6-0.1s-0.4,0.1-0.5,0.1s-0.6-0.3-0.8-0.1
						c-0.1,0.1,0.2,0.2,0.2,0.2s0.1,0.2,0.3,0.2c0.2,0.1,0.7,0.1,0.7,0.1c0.1,0.1,0.5,0.3,0.4,0.4c0,0-0.4-0.1-0.6-0.1
						c-0.2,0-0.7,0-0.8,0c-0.3-0.1-0.8-0.4-1-0.4c-0.4-0.1-1.2,0.1-1.3,0.1C53.2,37.8,52.7,37.8,52.6,37.5"/>
				</g>
				<g id="path1334">
					<path inkscape:connector-curvature="0" d="M38.6,41.4c0,0,0.1-0.3,0.2-0.3c0.1,0,0.2,0,0.2,0s0.1,0,0.2,0c0,0,0.2,0.2,0.2,0.3
						c0,0,0,0,0.1,0c0,0,0,0.2-0.1,0.2c0,0-0.1,0-0.1-0.1h-0.1c0,0-0.1,0.1-0.2,0h-0.1c0,0-0.1,0-0.1-0.1s0.2-0.2,0.2-0.2
						c0.1,0,0-0.1-0.1-0.1C38.6,41.4,38.6,41.4,38.6,41.4"/>
				</g>
				<g id="path1336">
					<path inkscape:connector-curvature="0" d="M39.2,42.3c0,0,0.4-0.2,0.6-0.1c0.2,0,0.1,0.2,0.1,0.2s0,0.2-0.3,0.2v-0.1l0.2-0.1
						c0-0.1-0.4,0.1-0.4,0.1C39.2,42.5,39.2,42.4,39.2,42.3"/>
				</g>
				<g id="path1362">
					<path inkscape:connector-curvature="0" d="M45.7,36.4h-0.2l-0.2-1.1l0.8-0.1v0.2l-0.5,0.1v0.2l0.5-0.1v0.2L45.6,36L45.7,36.4"
						/>
				</g>
				<g id="path1364">
					<path inkscape:connector-curvature="0" d="M46.8,34.9c0.1,0,0.5,0,0.6,0.5S47.1,36,46.9,36c-0.1,0-0.5,0-0.6-0.5
						S46.6,34.9,46.8,34.9"/>
				</g>
				<g id="path1366">
					<path inkscape:connector-curvature="0" d="M47.5,34.9l0.6-0.1c0.3,0,0.4,0.2,0.4,0.3s0,0.2-0.1,0.3c0.1,0,0.1,0.1,0.2,0.3
						c0,0.2,0,0.2,0.1,0.2l0,0h-0.3c0,0,0-0.1-0.1-0.2c0-0.1,0-0.2-0.2-0.2h-0.2l0.1,0.4h-0.2L47.5,34.9"/>
				</g>
				<g id="path1368">
					<path inkscape:connector-curvature="0" d="M48.6,34.6h0.2c0.1,0.6,0.2,0.7,0.2,0.8l0,0c0-0.1,0-0.2,0.2-0.8h0.2
						c0.1,0.6,0.1,0.7,0.2,0.8l0,0c0-0.1,0-0.2,0.2-0.8H50l-0.3,1.1h-0.2c-0.1-0.5-0.1-0.7-0.2-0.9l0,0c0,0.2-0.1,0.3-0.2,0.9h-0.2
						L48.6,34.6"/>
				</g>
				<g id="path1370">
					<path inkscape:connector-curvature="0" d="M50.6,35L50.6,35l0.1,0.5l-0.3-0.1L50.6,35L50.6,35L50.6,35z M50.3,35.6l0.4,0.1v0.2
						h0.2l-0.2-1.2h-0.3l-0.6,1H50L50.3,35.6"/>
				</g>
				<g id="path1372">
					<path inkscape:connector-curvature="0" d="M51.4,35.4v-0.3h0.3c0.1,0,0.2,0.1,0.1,0.2c0,0.1-0.1,0.1-0.2,0.1H51.4L51.4,35.4
						L51.4,35.4z M51.2,36h0.2v-0.4h0.2c0.2,0,0.2,0.1,0.2,0.2c0,0.1,0,0.2,0,0.2h0.3l0,0c0,0,0-0.1,0-0.2c0-0.2,0-0.2-0.1-0.3
						c0.1,0,0.2-0.1,0.2-0.2c0-0.1,0-0.3-0.3-0.3l-0.6-0.1L51.2,36"/>
				</g>
				<g id="path1374">
					<path inkscape:connector-curvature="0" d="M52.6,35.4h0.2c0.1,0,0.2,0.1,0.2,0.4c0,0.2-0.1,0.4-0.3,0.3h-0.2L52.6,35.4
						L52.6,35.4L52.6,35.4z M52.2,36.2l0.5,0.1c0.4,0.1,0.5-0.2,0.6-0.5c0-0.2,0-0.5-0.3-0.6l-0.5-0.1L52.2,36.2"/>
				</g>
				<g id="path1376">
					<path inkscape:connector-curvature="0" fill="#FFFFFF" d="M46.5,35.5c0-0.3,0.1-0.4,0.3-0.4c0.1,0,0.3,0.1,0.3,0.4
						c0,0.3-0.1,0.4-0.3,0.4C46.7,35.9,46.5,35.8,46.5,35.5"/>
				</g>
				<g id="path1378">
					<path inkscape:connector-curvature="0" fill="#FFFFFF" d="M47.8,35.3V35h0.3c0.1,0,0.2,0.1,0.2,0.1c0,0.1,0,0.2-0.2,0.2H47.8"
						/>
				</g>
			</g>
		</g>
	</g>
</g>
<g>
	<path opacity="0.2" enable-background="new    " d="M10.4,74.3V25.8c0-12.1,8.2-22.7,19.8-25.8H0v100h30.2
		C18.5,96.9,10.4,86.3,10.4,74.3z"/>
	<path opacity="0.1" fill="#FFFFFF" enable-background="new    " d="M89.6,25.8v48.5c0,12.1-8.2,22.7-19.8,25.8H100V0H69.8
		C81.5,3.1,89.6,13.7,89.6,25.8z"/>
</g>
<path fill="#FFCC18" d="M44,63.4c0,0-1.5-1-2-2.5c-0.6-1.5-0.5-3.5-0.3-3.5s0.4,0.6,0.7,1.2s0.3,0.9,0.8,1.1
	c0.4,0.1,1.5,0.3,1.7,0.2c0.2,0,0.2,0,0.2,0s-0.7,0.6-0.9,1.5C43.9,62.2,44,63.4,44,63.4z"/>
<path fill="#F3334B" d="M61.9,48L61.9,48c0-0.2-0.1-0.2-0.1-0.2s0-0.2-0.1-0.4c0-0.6,0.1-1.6,0.1-1.7c0.1-0.5,0.3-0.7,0.5-0.9
	c-0.1,0-0.1,0-0.2,0c-0.2,0-0.8-0.4-0.9-0.4c0,0,0,0-0.1,0s-0.1,0-0.2,0l0,0l-0.1-0.2c0,0-0.1,0.2-0.3,0.4s-0.4,0.3-0.8,0.4v-0.1
	c0-0.9-0.1-0.9-0.1-0.9c0,0.1-0.1,0.1-0.2,0.1l0,0L58,44.5c0,0-0.1-0.1-0.1,0v0.1c0,0.1-0.2,0.8-0.3,0.8c0,0.1,0,0,0,0.4
	c0,0.1,0,0.1,0,0.3c0,0.1,0,0.1,0.1,0.1c0,0.1,0,0.1,0,0.2l0,0v0.1c0,0,0.1-0.2,0,0.4c0,0,0,0,0,0.1l0,0c0,0.3,0.1,0.5,0.3,0.8
	c0.2,0.4,0.2,0.5,0.3,0.9c0.1,0.3,0.1,0.4,0.1,0.4v0.1c0,0,0,0.1,0.1,0.1l0,0c0,0.1,0.1,0.1,0.1,0.2l0,0l0.2,0.1h0.1
	c0.1,0,0.2,0.1,0.3,0.1c0.5,0.2,1.6-0.2,2.1-0.3c0.4-0.1,0.6-0.8,0.6-1.2C61.9,48.1,61.9,48,61.9,48L61.9,48z M60,45L60,45L60,45z
	 M59.7,44.3L59.7,44.3L59.7,44.3L59.7,44.3z"/>
</svg>
