<?xml version="1.0" encoding="utf-8"?>
<!-- Generator: Adobe Illustrator 23.0.0, SVG Export Plug-In . SVG Version: 6.00 Build 0)  -->
<svg version="1.0" id="Layer_1" shape-rendering="geometricprecision" xmlns:v="https://vecta.io/nano"
	 xmlns="http://www.w3.org/2000/svg" xmlns:xlink="http://www.w3.org/1999/xlink" x="0px" y="0px" viewBox="0 0 100 100"
	 enable-background="new 0 0 100 100" xml:space="preserve">
<g>
	<path fill-rule="evenodd" clip-rule="evenodd" fill="#BF0A30" d="M0,0h100v100H0V0z"/>
</g>
<g>
	<path fill-rule="evenodd" clip-rule="evenodd" fill="#FFFFFF" d="M5,5h90v90H5V5z"/>
</g>
<g>
	<path fill-rule="evenodd" clip-rule="evenodd" fill="#002868" d="M7.5,7.5h85v85h-85V7.5z"/>
</g>
<g>
	<path fill-rule="evenodd" clip-rule="evenodd" fill="#FFFFFF" d="M33.6,55c-0.3-1.7-1.4-3-1.7-3.1c-0.3-0.1-0.9-0.3-0.9-0.3
		s0.4-0.3,0.2-0.9s-1.2-2.3-1.3-3.2s0.2-2.2,0-2.9c-0.2-0.8-1-1.4-1.1-2.9s2.3-3.4,3.7-3.5c1.4-0.1,2.6,0.4,3.4,0.4
		c0.8-0.1,1.7-1,2.3-1.3c0.6-0.2,0.9,0.1,1.3-0.1c0.4-0.2,3.5-2.8,6.7-2.8s5.5,1.2,6.2,1.2c0.7,0,2-0.3,3,0c1,0.3,2.2,1.8,3.6,2.2
		s9.7,1.9,10.7,3.4c0.9,1.5,1.5,3.6,1.5,4.7S71,49.8,71,50.3c0,0.6,0.3,1.3,0.2,2c-0.1,0.7-0.4,1-0.4,1s-0.2-1.2-0.3-1.9
		c-0.1-0.7,0.4-2.7,0.4-3.9c-0.1-1.2-0.6-2.6-0.6-2.6s-0.3,1.7-0.6,2.7c-0.3,1-1.1,4-1.1,5.7s0.5,4.2,0.5,4.2s-1.4,2.4-1.5,3.3
		c-0.1,0.9-0.3,3.1-0.3,3.4c0.1,0.3-0.3-0.1-0.4,0.2c-0.1,0.3-0.1,0.8-0.1,0.8l-1.3-0.1c0,0,0.1-0.6,0.3-0.9
		c0.2-0.4,0.6-0.7,0.5-1.2c-0.1-0.5,0.1-2.6,0.1-2.6s-0.9,1.6-1.2,2.2s-0.3,1.4-0.4,1.7c-0.1,0.3-0.3,0.3-0.4,0.6
		c-0.1,0.3-0.3,0.3-0.3,0.3l-1,0.1c0,0,1.9-4.7,2-6c0.1-1.2-1.2-3.7-1.5-4.5C63.3,54,63.3,53.3,63,53s-1.2-0.7-1.5-0.6
		c-0.3,0.2-2.2,1.9-2.5,2.4c-0.4,0.5-1.4,1.4-1.4,1.4s-2.2-1.2-3.4-1.5c-1.2-0.3-4-0.5-4-0.5s0.2,4.2,0.1,4.9s-0.7,0.9-0.7,1.3v1.4
		c0,0.3-0.9,0.4-1.1,0.7c-0.2,0.3,0,0.5-0.3,0.9c-0.3,0.4-0.7,0.3-0.8,0.5c-0.2,0.2-0.1,1.5-0.1,1.5l-2.2-0.1c0,0,0.9-1.8,0.8-2.9
		c-0.1-1-0.9-2.6-1.1-3.4c-0.2-0.8-0.7-2.1-1.3-2.1s-1.2,0.3-1.2,0.3s0.2-2.8-0.8-3.9c-0.9-1.2-3.2-1-3.9-0.9s-1.5,1.2-1.8,1.3
		c-0.3,0.1-0.5,0-0.9,0.2C34.5,54.2,33.9,54.7,33.6,55L33.6,55z"/>
</g>
<g transform="matrix(.469443 0 0 .469443 1083.8779 575.82702)">
	<g>
		<circle fill-rule="evenodd" clip-rule="evenodd" fill="#002868" cx="-2209" cy="-1131.3" r="21.2"/>
	</g>
	<g>
		<path fill-rule="evenodd" clip-rule="evenodd" fill="#FEFEFE" d="M-2210.5-1115.4c-2.3-0.2-4.8-0.9-6.7-2.2c0.6,0,5.8-0.4,6,0
			c-0.2-0.4-4.8,0.5-4.9,0.1c0.4,1.4,4.5,1,5.5,1c0,0,0,0.1,0,0.1c-0.5,0-2-0.2-2.4,0c0,0,2.9,0.5,3.1,0.9
			C-2210.1-1115.4-2210.3-1115.4-2210.5-1115.4L-2210.5-1115.4z M-2208.6-1115.5c0.2-0.1,3.5-0.7,3.4-0.8c-0.1-0.1-2.4,0-2.4-0.1
			c0.1-0.1,3.4-0.1,3.8-0.2c-0.1,0,1.8-0.7,1.7-0.8c-0.7-0.7-4.7,0.8-5.1-0.1c0.2,0.3,5.6-0.1,6.4-0.1c-2.3,1.5-5.2,2.1-7.8,2.3
			C-2208.6-1115.4-2208.6-1115.5-2208.6-1115.5z M-2209.6-1115.6c-1.6-1.6-2.2-4.1-2.1-6.3c0.1,0,1.2-0.1,1.2,0.1
			c0,0.3-0.5,0.1-0.5,0.2c-0.1,0-0.3,0-0.4,0c0,0.2,0,0.4,0,0.6c-0.2,0.5,0.1,1.5,0.2,2c1.2,0,2.4,0,3.6,0c0.2-0.9,0.3-1.7,0.2-2.6
			c-0.2,0-1-0.1-0.9-0.2c0.3-0.1,0.9,0,1.2,0c0.1,1.4-0.2,3-0.8,4.3C-2208-1117.1-2209-1115.1-2209.6-1115.6L-2209.6-1115.6z
			 M-2209.4-1115.9c0.3-0.3,0.2-3.1-0.2-2.8C-2210.1-1118.4-2209.2-1116.1-2209.4-1115.9L-2209.4-1115.9z M-2208.8-1116.5
			c0.2-0.5,0-2.6-0.1-2.3C-2209.2-1118.3-2208.7-1116.7-2208.8-1116.5z M-2209.9-1116.6c0.1-0.4,0.3-1.8,0-2.2c-0.1,0-0.2,0-0.2,0
			C-2210.4-1118.5-2210.3-1116.7-2209.9-1116.6z M-2208.1-1117.6c0-0.1,0.2-1.3-0.1-1.2c-0.2,0-0.2,1.5-0.1,1.6
			C-2208.3-1117.3-2208.2-1117.4-2208.1-1117.6L-2208.1-1117.6z M-2210.5-1118.8c-0.3-0.3-0.2,1.3,0,1.5
			C-2210.5-1117.7-2210.5-1118.3-2210.5-1118.8L-2210.5-1118.8z M-2207.7-1118.6c0.1-0.2,0.1-0.3-0.1-0.2
			C-2207.9-1118.8-2207.9-1118-2207.7-1118.6L-2207.7-1118.6z M-2211-1118.7c0-0.2-0.2,0,0,0.3
			C-2211-1118.5-2210.9-1118.6-2211-1118.7z M-2217.6-1117.8c0.1,0-0.4-0.2-0.3-0.2c0.4-0.4,6.5,0,6.5,0.2
			C-2211.4-1117.9-2217-1117.4-2217.6-1117.8L-2217.6-1117.8z M-2207.4-1118c0.3-0.5,2.9-0.2,3.6-0.2c1.3,0,2.7,0,4,0
			c-0.8,0.7-2.9,0.3-4,0.3C-2205-1118-2206.3-1117.9-2207.4-1118L-2207.4-1118z M-2218.4-1118.3c-0.2,0-0.4-0.3-0.5-0.4
			c0.3-0.8,0.1-1.4,0-2.2c0-0.1-0.2-1.6,0.1-1.3c0.3,0.4,0.5,2.6,0.4,3.1c1.1-0.7,0.8-0.7,1.8-0.4c0.5,0.1,1.5,0.2,1.4,0.8
			c1.2,0,2.4,0,3.6,0c0,0.1,0.1,0.2,0.1,0.3C-2213.7-1118.2-2216.2-1118-2218.4-1118.3L-2218.4-1118.3z M-2216.3-1118.5
			c-0.1,0,1.1-0.1,0.7-0.4c-0.2-0.2-2.4-0.5-2.6-0.3C-2219-1118.6-2216.7-1118.5-2216.3-1118.5L-2216.3-1118.5z M-2205.4-1118.5
			l-1.9,0c0.3-0.8,3.3-0.2,4.1-0.3c1-0.1,1.8-0.4,2.2-1.4c0.3-0.7,0-6.7-0.8-6.7c-0.1,0-0.4,0.5-0.5,0.6c-0.5,0.7-0.4,0.4-0.1,1
			c0.2,0.5,0.9,1,1.1,1.6c0.3,1.1-0.6,0.7-0.6,0.7c0-0.7-1.7-1.1-1.7-1.8c0-0.1,1.7-2.5,2-2.7c-0.2,0.1,0.9,2,0.9,2.2
			c-0.1,0-0.2,0-0.3,0c0,0,0,0.8,0,0.8c0.1,0.1,1.6,0.1,1.6,0.1c0.1-0.4-1.3-0.2-1.3-0.6c0-0.2,0.4-0.1,0.4-0.2
			c0.1-0.5-1-1.2-0.4-1.5c-0.2-0.2-0.4-0.4-0.2-0.5c-0.2-0.3-0.3-0.7-0.2-1c-0.1,0-0.8-0.2-0.6-0.3c0.3-0.3,1.4,0.2,1.7-0.1
			c0-0.1-2-0.5-2-0.4c-0.1-0.4,1-0.2,1-0.4c0-0.2-1.1-0.1-1.1-0.3c0-0.2,0.9,0,1-0.1c0.1-0.1-0.6-0.3-0.6-0.3
			c0.1-0.2,1.4-0.1,1.4-0.3c0-0.4-1.4-0.5-1.5-0.6c0.4-0.1,2.8-0.5,2.8-0.8c0-0.5-2.5,0.6-2.5,0.2c0-0.3,0.9-0.1,1.1-0.3
			c0.2-0.1-0.2-0.2-0.2-0.2c0-0.1,1.3-0.2,1-0.4c-0.9-0.6-1.8,0.7-1.8-0.5c0.1,0,0.2,0.1,0.3,0.2c-0.5,0,0.2-1.7,0.3-1.8
			c0.1-0.3,1.1-2,1.4-2c-0.7,0-1,1.4-1.5,1.7c-0.2,0.1-0.2-0.9-0.2-1c-0.2,0.4,1.6-0.6,1-0.6c-0.2,0-0.1-0.4-0.3-0.4
			c0,0.1,0,0.2-0.1,0.3c0.1,0-1-0.6-1-0.6c-0.2-0.2,0.6-0.7,0.5-0.3c-0.1,0.2,0.3-0.2,0.3-0.2c0,0-0.4-0.3-0.4-0.3
			c0.1-0.1,0.4,0.1,0.5,0.1c0.4-0.1-0.6-0.4-0.6-0.3c-0.4-0.6,1.3,0.3,1,0.3c0.8,0-1.6-1.2-1.2-0.5c-0.3-0.6,2.2-1.1,2.6,0.2
			c0.2,0.6,0,1.3-0.2,1.8c-0.4,1.1-0.4,0.4-1.1,1c-0.1,0.1-0.9,1.8-0.9,1.8c-0.2,0,1.1-1.2,1.1-1.2c0.2-0.2,1-1.1,1.1-1.1
			c0.8-0.3,2.3,1.3,2.9,2c0.7,0.9,0.6,1.5,0.4,2.6c0,0.3-0.8,2.9-1.1,2.7c-0.1-0.2-0.1-0.3-0.1-0.5c0,0-0.2,0.6-0.1,0.6
			c-0.1-0.2-0.2-0.3-0.2-0.5c0,0-0.1,0.5-0.1,0.5c-0.2,0-0.2-0.6-0.3-0.6c-0.1,0,0,0.7-0.1,0.6c-0.7-0.8,1.1-1.9,0.9-2.9
			c-0.1-0.5-0.8-1.7-1.6-1.7c0.4,0-0.4,2-0.4,2c-0.1,0.8,0.3,1.4,0.3,2.2c0.1,1-0.3,1.9-0.3,2.9c0,0.5,0.2,1,0.2,1.5
			c0,1-0.4,2.2-0.6,3.3c-0.1,0.5,0,1.4-0.3,1.8c0,0-1.1,0.2-0.9,0.3c0.4,0.3,1.3-0.2,1.7-0.2
			C-2199.8-1117.8-2204.1-1118.5-2205.4-1118.5L-2205.4-1118.5z M-2201.5-1118.6c0.2-0.2-0.7-0.3-0.7-0.3
			C-2202.6-1118.8-2201.7-1118.5-2201.5-1118.6L-2201.5-1118.6z M-2200.9-1119.4c0.3-0.2-0.1-0.2-0.2-0.1
			C-2201.1-1119.4-2201.1-1119.3-2200.9-1119.4L-2200.9-1119.4z M-2200.1-1119.7c0.1-0.2-0.5-0.4-0.5-0.2
			C-2200.7-1119.9-2200.2-1119.5-2200.1-1119.7L-2200.1-1119.7z M-2200.3-1120.4c0.2-0.1-0.3-0.5-0.4-0.5c-0.1,0-0.1,0.4-0.1,0.6
			C-2200.7-1120.3-2200.4-1120.3-2200.3-1120.4L-2200.3-1120.4z M-2200.2-1121.1c0-0.1-0.1-0.2-0.2-0.3c0.2-0.2,0.1-1.1-0.1-1.1
			c0.1,0.1,0.3,0.2,0.4,0.3c0.2,0-0.1-1.2-0.1-1.2c0.1-0.4,0.6,0,0.8-0.2c0.1-0.1-0.9-0.3-1.1-0.1c-0.3,0.2-0.2,0.9-0.2,1.2
			c0,0.7,0.1,1.2,0.5,1.7C-2200.2-1120.9-2200.2-1121-2200.2-1121.1L-2200.2-1121.1z M-2196.8-1130.6c0.1-0.3-0.1-2.5,0.5-2.5
			C-2197.6-1133.2-2196.7-1130.9-2196.8-1130.6L-2196.8-1130.6z M-2197.2-1132.4c0.1-0.1,0.5-0.7,0.5-0.8c-0.1-0.2-0.8,0.8-0.8,0.9
			C-2197.4-1132.2-2197.3-1132.2-2197.2-1132.4L-2197.2-1132.4z M-2197.6-1132.9c0-0.3,0-0.9-0.2-1.2c0-0.1-0.2,1.2,0.1,1.4
			C-2197.6-1132.6-2197.5-1132.7-2197.6-1132.9L-2197.6-1132.9z M-2198-1132.8c0-0.1-0.6-1.4-0.6-1.4c0,0,0.1,0.8,0.1,0.8
			c0-0.4-1.5-1.2-0.7-0.2C-2199.2-1133.5-2198-1132.9-2198-1132.8L-2198-1132.8z M-2199.7-1132.8c0.2,0,0.5-0.1,0.7-0.1
			c0.1-0.1-1.3-0.5-1.3,0.1C-2200.3-1132.7-2199.5-1132.9-2199.7-1132.8L-2199.7-1132.8z M-2197.4-1133.1
			C-2197.4-1133.3-2197.4-1133.1-2197.4-1133.1z M-2197.1-1133.3c0.1-0.1,0.1-0.2,0-0.3C-2197.5-1133.8-2197.1-1133.1-2197.1-1133.3
			z M-2199.8-1136.6c0.2-0.2,0.2-0.5,0.1-0.7C-2200.1-1137.4-2200.1-1136.7-2199.8-1136.6z M-2200-1137.1c0.1-0.2,0-0.8-0.1-0.9
			C-2200.3-1138.2-2200.2-1136.8-2200-1137.1L-2200-1137.1z M-2199.7-1137.9c0-0.1,0.1-0.7-0.2-0.5
			C-2199.9-1138.4-2199.8-1137.7-2199.7-1137.9L-2199.7-1137.9z M-2212.7-1118.9c-0.2-0.2,0.9-0.3,1-0.2
			C-2211.6-1118.8-2212.6-1118.8-2212.7-1118.9L-2212.7-1118.9z M-2207.1-1119c0.1-0.4,0.9-0.1,1,0.1c-0.3,0-0.7,0-1,0L-2207.1-1119
			z M-2214.9-1118.9c-0.2-0.1-0.4-0.4-0.6-0.5c-0.2-0.1-0.6,0-0.8-0.1c-0.2-0.1-0.7-0.3-0.6-0.7c0.1-0.2,2.7,0,3.1,0
			c0.9,0,1.3,0,1.1,0.9c-0.1,0-0.2,0-0.3,0.1c0,0.1,0,0.2-0.1,0.3C-2213.5-1118.9-2214.4-1118.8-2214.9-1118.9L-2214.9-1118.9z
			 M-2205.9-1119.1c0-0.4-0.5-0.8-0.5-1.3c1.7,0,3.4,0,5.2,0C-2201.6-1118.5-2204.5-1119-2205.9-1119.1
			C-2205.9-1119-2205.9-1119-2205.9-1119.1z M-2199.2-1119.1c-0.1,0-0.1-0.1-0.2-0.1c0-0.5-0.1-1,0.2-1.2c0.1-0.1,1.7,0,1.7,0.1
			C-2197.2-1120-2198.8-1119-2199.2-1119.1L-2199.2-1119.1z M-2208.5-1119.4c-0.2-0.6,0.7-0.7,0.6-1.1c0,0.2-1.9-0.9-1.4-1
			c0.1,0-1.4,1.5-1.4,1c0,0.6,1,0.5,0.5,1.3c-0.9,0.2-1.3-1.1-0.9-1.8c0.3-0.6,0.8-0.4,1.2-0.4c0.4,0,0.8-0.2,1.3-0.1
			c0.3,0,0.7,0.2,1.1,0.1c0.1,0.7,0.3,2.5-0.9,2.2L-2208.5-1119.4z M-2212.5-1119.3c-0.3-0.1,0.6-0.9,0.6-0.1
			C-2211.8-1119.2-2212.4-1119.2-2212.5-1119.3L-2212.5-1119.3z M-2206.8-1119.3c-0.7-0.1,0.3-0.4,0.2-0.3
			C-2206.5-1119.6-2206.2-1119.2-2206.8-1119.3L-2206.8-1119.3z M-2220-1119.6c-0.2-0.2-0.3-0.3-0.4-0.5c0,0,0.6,0,0.6,0
			C-2219.8-1119.9-2219.7-1119.3-2220-1119.6L-2220-1119.6z M-2218.2-1119.6c-0.1-0.1,0.2-0.1,0.2-0.2c0-0.3-0.3-0.3,0-0.2
			c-0.3-0.5-0.2-1.1-0.2-1.2c0-0.1-0.2-0.9-0.3-0.8c0.1,0,0.2,0,0.2,0c-0.1-0.1-0.1-0.2-0.2-0.4c0.1,0.3,0.1-1.1-0.1-1
			c0.1-0.1,0.4,0.6,0.4,0.6c-0.3,0-0.7-4.4-0.5-4.6c0.1,0,0.1,0,0.2,0.1c-0.2,0,0-0.9,0-1c0.3-0.2,0-0.5,0.3-0.8
			c0-0.7,1.3-0.9,1.3-1.2c0,0.2-1,0-1.1-0.1c-0.7-0.6,1.1,0.1,0.7,0c0,0,0.4-0.6,0.7-0.6c0.4,0-0.2,0.6-0.2,0.6
			c0-0.4,0.5,1.4,0.5,1.1c0.1,0.4,0.1,0.9,0.3,1.3c0.2,0.8,0.9,1.9,0.9,2.7c0,1.7-3.5,2.6-1.1,3.6c0.7,0.3,0.9,0.4,1.9,0.4
			c0.5,0,1.5-0.2,1.9,0.1c0.1,0.1-4.3,0.7-4.4,0.2c0,0,1-0.3,0.8-0.4c-0.2-0.1-0.8-0.3-1.1-0.4c-0.1,0,0.3,1.5,0.2,1.7
			C-2217.3-1119.8-2218-1119.7-2218.2-1119.6z M-2217.4-1122.7c0.1-0.7,0.2-1.1,0.5-1.4c-0.1,0.1,0.9-0.3,0.7-0.4
			c0.1,0-1.1-0.1-0.8-0.3c0,0,0.7,0.1,0.6-0.1c-0.1-0.1-0.7-0.4-0.6-0.7c0,0,0.9,0.5,0.9,0.3c-0.1-0.1-0.2-0.3-0.4-0.4
			c0.1,0.1,0.2,0.1,0.3,0.1c0-0.5-0.7-1-0.7-1.5c0,0-0.2-2.2-0.1-2.1C-2217.4-1129.3-2217.3-1123-2217.4-1122.7L-2217.4-1122.7z
			 M-2219.6-1119.6c-0.3-0.7,0.1-0.4-0.4-0.7c-0.3-0.2-0.6,0-0.9-0.2c0.4,0,0.8,0,1.2,0c-0.2-0.5-1-0.1-1.4-0.3
			c-0.6-0.2-1.1-1.2-1.4-1.6c-0.7-1.1-1.3-2.2-1.7-3.4c-1-2.7-1.1-5.8-0.6-8.6c0.4-2.1,1.3-4.1,2.5-5.9c0.6-1,1.4-1.9,2.3-2.6
			c0.2-0.2,2.3-2,2.6-1.8c-0.2-0.2-3.4,3-3.6,3.3c-0.8,0.9-1.4,1.9-2,2.9c-1.6,3.2-2.2,6.8-1.5,10.3c0.1,0.8,2.8,8.8,4.6,7.1
			c0.3-0.3-0.4-4-0.6-4.4c-0.5-0.9-0.7-1-0.7-2.2c0-0.8-0.2-1.9,0-2.7c0,0.1,0.1,1.5,0.2,1.6c-0.1-0.1,0-1.3,0.1-1.4
			c-0.2,0.3,0,2.5,0.1,2.8c0,0,0.8,2.4,0.9,1.7c0,0.2-0.7-1-0.7-1c-0.1-0.5,0.1-0.9,0.2-1.4c0-0.6,0-1.3-0.1-1.9
			c0-0.2-0.3-0.8-0.2-1c0.2-0.8,1.7-1,1.5-0.3c0,0.2-0.6-0.2-0.6,0.1c0,0.3,0.3,0.6,0.3,1c-0.2-0.1-0.3-0.2-0.5-0.3
			c0.1,0.1,0.1,0.3,0.2,0.4c0,0-0.4-0.4-0.4-0.4c0.1,0.1,0.1,0.2,0.1,0.4c-0.1-0.1-0.2-0.2-0.3-0.3c0,0.7,0.1,1.4,0.1,2.1
			c0,0.1,0,2.2,0.2,2c0.1-0.1,0.1-1.8,0-1.9c0.2,0.3,0.1,3,0.5,1.9c0.4-1.3-0.1-3.5-0.1-4.8c0,0.1,0.5,0.9,0.5,0.9
			c0.2-0.1-0.2-0.6-0.1-0.7c0.2-0.2,0.4,2.5,0.2,2.3c-0.1-0.1-0.1-0.8-0.1-0.9c0.2,0.5,0.3,2.7,0,3.3c-0.3,0.6-0.9,0.6-1,1
			c-0.1,0.4,0.1,1.5,0.2,1.9c0.1,0.7,0.3,1.4,0.4,2C-2219.5-1120.9-2219.7-1120-2219.6-1119.6L-2219.6-1119.6z M-2212.3-1119.7
			c-0.6-0.5-0.1-4.3-0.2-5.2c0.3,0,0.6,0,0.9,0c0,0.9,0.1,1.9-0.1,2.8C-2211.7-1121.9-2212-1119.5-2212.3-1119.7z M-2206.8-1119.7
			c-0.5-0.1-0.1-1.4-0.1-1.8c-0.1-0.4-0.3-0.6-0.4-0.9c-0.1-0.6-0.3-2.8,0.7-2.5C-2206.6-1124.5-2206.5-1119.7-2206.8-1119.7
			L-2206.8-1119.7z M-2217-1120.4c-0.4-0.2,1.9-0.2,1.9-0.2c0.2,0,2.3-0.2,2.5,0C-2212.6-1120.7-2216.4-1120-2217-1120.4z
			 M-2206.3-1120.5c0.1,0.2,4.8-0.8,5.3-0.2C-2201.2-1120.9-2206-1119.9-2206.3-1120.5z M-2199.3-1120.7c0.1-0.5,2.3,0,2.3-0.2
			C-2197-1120.4-2198.9-1120.6-2199.3-1120.7L-2199.3-1120.7z M-2206.3-1121c-0.4-0.4,1.8-0.2,2.1-0.3c0.7-0.2,1.1-0.2,1.5-0.8
			c0.6-0.8,0.3-0.8-0.6-1.5c-0.3-0.2-1.6-0.9-1.6-1.2c0,0,1.9,1.2,2.1,1.4c0.6,0.5,1.1,0.4,1.7,0.8c0,0-0.5,0.7-0.5,0.6
			c0,0.1,0.6,0.3,0.4,0.4c0.1-0.1-1.1,0.2-1,0.2c2.2,0.1,0.2,0.4-0.7,0.4C-2204-1121-2205.2-1120.9-2206.3-1121z M-2194.1-1137.2
			c1.2,3.3,1.5,7,0.4,10.4c-0.4,1.4-1,2.8-1.8,4c-1,1.5-1.8,1.9-3.7,1.6l0,0c-0.4-0.1,0.9-1,1-1.1c0.3-0.1,2-0.2,2-0.7
			c0,0.6-1.9,1.8-2.5,1.4c2.8,1.5,4.7-4.8,5-6.5c0.7-3.2,0.4-6.6-0.9-9.7c-0.9-2.2-2.4-4.1-4.2-5.7c-0.9-0.8-2-1.5-3.1-2.1
			c-0.2-0.1-3.3-1.1-3.3-1.3c0-0.1,4,1.5,4.4,1.7c0.9,0.5,1.6,1.1,2.4,1.7 M-2215.5-1121.4c-0.7-0.7,2.5-1,2.5-0.4
			C-2213.1-1121.1-2215.3-1121.1-2215.5-1121.4L-2215.5-1121.4z M-2205.7-1121.8v-0.3c0.2,0,2.1,0,2.1,0c0,0.9-1.5,0.5-2.1,0.5
			V-1121.8z M-2209.9-1121.7c0-0.1,0-0.2,0-0.3c-0.1,0-0.1,0.1-0.2,0.1c0,0,0.4-0.3,0.3-0.4c-0.2-0.1-1-0.1-0.7,0.2
			c-0.1-0.1-0.1-0.2-0.2-0.3c0,0.1-0.1,0.3-0.1,0.4c-0.3,0-0.5-1.3-0.5-1.6c-0.1-0.9-0.1-1.2,0.7-1.4c0.4-0.1,0.7,0.6,0.9,0
			c0.2-0.6-0.4-0.7-0.8-0.6c0.1-0.2,0.9-0.6,1.3-0.5c0.8,0.3,0,0.8,0.4,1.3c0,0,0.9-0.4,1.1-0.2c0.4,0.2,0.2,0.9,0.2,1.2
			c0,0.1-0.3,1.7-0.5,1.7c-0.1-0.1-0.1-0.2-0.1-0.4c0.1,0-0.3,0.3-0.3,0.3c0-0.1,0-0.4,0-0.4c-0.1,0-0.6,0.4-0.6,0.3
			c0.1,0.1,0.2,0.3,0.3,0.4c0-0.4-0.4,0.3-0.2,0.2c0.3-0.1-0.5-0.3-0.4-0.3c0.1-0.1,0.1-0.2,0.1-0.3c-0.1-0.1-0.3-0.1-0.4,0
			c0,0.1,0.1,0.2,0.1,0.3C-2209.7-1122.1-2209.9-1121.8-2209.9-1121.7L-2209.9-1121.7z M-2210.4-1123c0.1-0.7,0.2,0.2,0.2,0
			c0.3-0.5,0.1-1.3-0.5-1.5c-1.1-0.5-0.2,1.3-0.3,1.6c0-0.1-0.1-0.7,0-0.8c0,0,0.3,0.6,0.3,0.7c0-0.2,0-0.4,0.1-0.6
			C-2210.6-1123.5-2210.3-1122.5-2210.4-1123z M-2208.3-1123.5c0.1-0.4,0.1,0.4,0.1,0.5c0.1-0.2,0.2-0.4,0.2-0.7
			c0.1-0.1,0.1,0.8,0.1,0.7c0.4-0.4,0.5-2.1-0.5-1.5c-0.5,0.3-0.5,0.9-0.3,1.4c0,0.1,0.2-0.3,0.2-0.2c0,0.1,0,0.3,0.1,0.4
			C-2208.3-1123.1-2208.3-1123.3-2208.3-1123.5L-2208.3-1123.5z M-2219.5-1121.8c-0.1-0.3-0.5-3.6-0.4-3.6c0.3,0,0.4,3.4,0.5,3.7
			L-2219.5-1121.8z M-2215.3-1123.1c0-0.6-0.1-0.9,0.3-1.4c0,0.2-0.1,2.1,0.1,2.1c0.1,0,0.1-2.2,0.1-2.5c0.6,0.6-0.3,2,0.3,2.5
			c0.1,0.1,0.3-2.1,0.2-2.1c0.6,0.3-0.3,1.9,0.3,2.2c0-0.5-0.2-1.5,0-1.9c-0.1,0.1,0.1,1.7,0.3,1.8c0-0.2-0.1-1.3,0-1.5
			c0.2-0.2,0.3,1.6,0.3,1.7c-0.7,0-1.3,0-2,0L-2215.3-1123.1L-2215.3-1123.1z M-2205.4-1122.6c0-0.6-0.5-0.5-0.7-1
			c-0.3-0.7,0.1-1.7,0.2-2.4c0.1-1.1,0.1-1.6,0.7-2.6c0.3-0.4,1-1.5,1.3-1.6c0.6-0.2-0.4,3.1-0.5,3.3c-0.2,0.4-1.7,3.6-1.1,3.6
			c-0.2,0,0.3-1.2,0.4-1.3c0,0.7,0,1.4,0,2c0,0,0.1,0,0.1,0c0-0.7,0-1.4,0-2c0,0,0.1,0,0.1,0.1c0,0.7,0,1.3,0,2
			c0.2,0.3,0.2-1.7,0.3-1.8c0,0,0.2,1.7,0.3,1.8c0-0.2,0-1.5,0.1-1.5c0.3,0-0.1,1.6,0.2,1.6c0.4,0,0-1.3,0.2-1.3
			c0.2-0.1,0.2,1.4,0.2,1.6c-0.6,0-1.2,0-1.8,0V-1122.6z M-2198-1122.3c0.1,0,0.2-5,0.4-5.5c0,0.1-0.1,0.8,0,0.8
			c0,0,0.3-1.1,0.4-1.1c0.3,0.5-0.2,2.4-0.2,3C-2197.5-1124.3-2197.3-1122.4-2198-1122.3L-2198-1122.3z M-2219.1-1122.9
			c0-0.5,0.1-2.4-0.2-2.6c0.2,0.2,0,0.9,0.2,1.1c-0.1-0.1,0-1.7,0-1.7c0.1,0,0.5,3.6-0.1,3.6
			C-2219.1-1122.6-2219.1-1122.8-2219.1-1122.9L-2219.1-1122.9z M-2213.1-1123c0.2-1.3-1.3-1.6-1.9-2.4c-0.3-0.4-1.4-3.5-1.2-3.7
			c0.2-0.2,3,2.5,3.1,2.7c0.2,0.3,0.4,1,0.4,1.4C-2212.4-1123.9-2213-1123.5-2213.1-1123L-2213.1-1123z M-2204.4-1124.9
			c-0.7-0.5,0.8-2.9,1.4-3c0.8-0.1,1.1,0.7,0.7,1c-0.2,0.2-0.8,0-1.1,0.4c-0.3,0.4,0.4,0.2,0.4,0.4
			C-2203-1125.6-2204-1124.9-2204.4-1124.9z M-2211.5-1125.1l-0.9,0c0.2-0.8,0.3-0.4,0.7-0.4c0.2,0,1.6,0.2,1.8,0.3
			C-2210-1125.2-2211.3-1125.1-2211.5-1125.1L-2211.5-1125.1z M-2208.7-1125.2c0.5,0.5,1.6-0.7,1.9-0.7c0,0,0.4,0.7,0.3,0.7
			C-2206.7-1125.1-2208.5-1124.9-2208.7-1125.2z M-2212.7-1125.6c-0.8-0.5,1-0.7,1.3-0.6c0.8,0.5-0.7,0.6-0.2,0.3
			c0.2-0.2,0.1,0.2,0.1,0.2c-0.1-0.1,0.4-0.4-0.3-0.3c-0.5,0.1-0.6,0.3-0.6,0.4c0,0-0.1-0.3,0.1-0.2
			C-2212.2-1125.7-2212.5-1125.5-2212.7-1125.6L-2212.7-1125.6z M-2207.6-1125.6c-0.8-0.5,0.7-0.6,0.9-0.6c0.4,0.1,0.3,0.1,0.5,0.3
			c0.5,0.3-0.8,0.5-0.4,0.1c0.2-0.2,0,0.2,0.2,0.2c0.1,0,0.1-0.1,0.1-0.2c0-0.4-0.8-0.2-1-0.2c-0.5,0-0.2,0.4-0.1,0.4
			c0,0-0.1-0.4,0.1-0.2C-2207.3-1125.6-2207.4-1125.5-2207.6-1125.6L-2207.6-1125.6z M-2212.8-1126.7v-0.3c2.2,0,4.4,0,6.5,0
			c0,0.2,0,0.4,0,0.6c-2.2,0-4.4,0-6.5,0V-1126.7z M-2211.4-1127c-0.2,0-1.3,0.1-1.5-0.1c-0.2-0.3,0.3-0.2,0.4-0.3
			c0.2-0.2,0.6,0.1,0.8-0.1c0.2-0.3-0.1-1-0.1-1.3c-0.2-1.5-0.5-3-0.8-4.5c-0.2-0.9-1.7-9.2-1.4-9.2c0.2,0,2.2,13.6,2.7,15.1
			c1.7,0,3.4,0,5.1,0C-2206.2-1126.6-2210.8-1127-2211.4-1127L-2211.4-1127z M-2213.5-1127.3c-0.6-0.3-0.2-4.5-0.2-5.3
			C-2213.1-1132.6-2213.4-1127.9-2213.5-1127.3L-2213.5-1127.3z M-2204-1127.5c0-0.7,0.3-1.3,0.3-2.1c0-0.5-0.2-1-0.3-1.4
			c-0.1-0.8,1.1-4.4,2.3-4.4c0.5,0,0,1.9,0,1.9c-0.3-0.3,0.3-1-0.1-1.3c-0.2-0.2-1,3.2-1.2,3.1c0.7,0.1,0.4,0.8,0.3,1.5
			c-0.1,0.5-0.2,1-0.1,1.5c0,0.2,0.6,0.5,0.5,0.7C-2202.2-1128.2-2204-1128.2-2204-1127.5z M-2203.4-1129.1c0.1-0.1,0.3-2.2,0.3-2.4
			c-0.1-0.7-0.7,1.1-0.6,0.9C-2203.8-1130.4-2203.4-1129-2203.4-1129.1L-2203.4-1129.1z M-2203.6-1131.8c0.1,0,0.7-0.4,0.4-0.6
			C-2203.6-1132.6-2204.1-1131.5-2203.6-1131.8z M-2202.8-1132.9c0.1-0.3,0.3-1.9,0.4-1.9c-0.3,0.1-0.5,1.1-0.5,1.3
			C-2202.9-1133.4-2203-1132.5-2202.8-1132.9L-2202.8-1132.9z M-2209.5-1127.6c0-0.4,0.9-0.3,0.9,0
			C-2208.7-1127.5-2209.5-1127.6-2209.5-1127.6z M-2207.8-1127.6C-2208-1127.6-2207.5-1127.7-2207.8-1127.6z M-2207.2-1127.6
			c-0.7-0.2-1.5-0.5-2.2-0.5c0.1,0-0.3-0.3-0.2,0.1c0-0.2,0.2-3.3,0-3.3c0.2,0,0.2,1.1,0.5,1.1c0.2,0-0.3-2.2,0.5-1
			c0.4,0.5-0.6,2.8,0.2,3.1c-0.2-0.1-0.1-3.6,0.4-3.8c-0.1,1.2-0.5,3.7,0.9,4.2c-1-0.4-0.3-1.4-0.6-1.8c0.1,0.2-0.1,0.6,0.1,0.8
			c-0.1-0.1-0.2-3.5,0.2-3.4c0,0,0.5,4,0.8,4.6C-2206.9-1127.6-2207-1127.5-2207.2-1127.6L-2207.2-1127.6z M-2212.4-1127.6
			c-0.1-0.2,0.6-0.4,0.5,0C-2212-1127.5-2212.3-1127.6-2212.4-1127.6z M-2210.5-1127.8c-0.7-0.5-0.9-0.4-1-1.4c0-0.2-0.2-1.6,0-1.7
			c-0.1,0.1-0.1,0.2-0.2,0.2c-0.2-0.4,0.6-2.7,0.7-3.1c0.2-1,1-2.3,1-3.4c0,0.3-0.5,0.7-0.6,0.9c-0.4,0.8-0.6,1.5-0.8,2.3
			c0.2-0.6,0.2-1.2,0.5-1.9c0.2-0.5,0.9-2.1,1.4-2.4c-0.8,0.4-2.2,2.9-2.1,3.8c-0.9-0.3,0.2-4.5-0.6-5.6c0,0-0.8,0.2-0.9,0.1
			c-0.2-0.1-0.2-1.1-0.2-1.3c0,0,0.4-0.8,0.2-1c0.3,0.3,0.4,1,0.5,1.5c0-0.3,0.7-2.5,1.1-2.5c-0.5,0-0.2,2.8-0.1,3.1
			c-0.1-0.3,0.1-1.6,0.2-2c0.1-1.1,0.4-1.3,1.4-1.4c-0.2,0.8,0.9,0.9,0.9,0.8c0-0.4-0.8-0.2-0.6-0.8c-0.1,0.3,1.2-0.4,0.8-0.6
			c-0.2-0.1-0.6,0.5-0.8,0.1c0,0,0.2-0.3,0.2-0.4c-0.1,0-0.1,0-0.2,0c0.1-0.1,0.1-0.9,0-1c-0.1-0.1-0.4,0.1-0.4-0.1
			c0.1-1,1.8,0.3,1.8,0.4c0-0.9-1.9-1.4-1.9-0.8c0-1.3,3.5-0.2,2,1.4c-0.1,0-0.2-0.1-0.2-0.3c0,0,0.5,2.1,0.4,2.2
			c0.5-0.3,0.3-0.6,0.9-0.1c0.3,0.2,0.4,0.6,0.5,0.9c0.3,0.8,0.4,1.7,0.6,2.5c0.1,0.4,0.7,1.6,0.6,2c0,0-0.1,0.7-0.3,0.5
			c-0.3-0.4-1-1.3-1-1.8c0,0.1,0.4,0.8,0.5,0.7c0.2-0.1-1.7-4.4-1-4.8c-0.2,0.1-0.5,2.3-0.5,2.8c-0.1,0.8,0,1.1,0.2,1.8
			c0.4,1.6,0.4,3.3,0.5,4.9c-0.1-0.1,0.2-1.3,0.2-1.6c0-0.7,0-1.4-0.1-2.2c-0.1-0.8-0.4-1.5-0.4-2.3c0-0.2,0.2-1.7,0.1-1.8
			c0.5,0.6,0.2,2.7,0.3,3.4c0.2,1.2,0.4,2.3,0.4,3.5c0,1.4-0.4,1.4-1.6,1.9c-0.3,0.1-0.8,0.4-1.1,0.5c-0.1,0-1,0-1.1,0.1
			c-0.3,0.2-0.5,2.3-0.3,2.7c0.6,1,0.6-0.3,0.7-0.8C-2210.2-1134-2209.5-1127.1-2210.5-1127.8L-2210.5-1127.8z M-2211.2-1131.5
			c0.7-0.3,0.6-2.1,0.8-2.6c-0.1,0.2-0.3,1.7-0.1,1.9c-0.1-0.1,0.9-4.4,0.9-4.5c-0.4,0.2-0.8,1.8-0.9,2.1
			C-2210.7-1134.1-2211.2-1131.5-2211.2-1131.5L-2211.2-1131.5z M-2210-1131.7c0.6-0.8,0.4-2.3,0.6-3.2c-0.1,0.3-0.3,2.9-0.3,3
			c0.3,0,0.7-5,0.6-5.3c0.1,0.4-0.6,2.1-0.7,2.7c0,0.3-0.1,0.7-0.1,1C-2209.9-1133.6-2210.2-1131.5-2210-1131.7L-2210-1131.7z
			 M-2209-1132.1c0.5-0.2-0.1-2.5,0-2.8c-0.4,0.7-0.3,2-0.2,2.8C-2209.1-1132.1-2209-1132.1-2209-1132.1L-2209-1132.1z
			 M-2208.1-1132.5c0.1-0.1,0-0.6,0-0.5C-2208.4-1132.8-2208.1-1132.5-2208.1-1132.5z M-2211.5-1135.9c0.3-0.3,2.5-3.2,2.4-3.4
			c0.1,0.1-1.6,1.4-1.7,1.5c-0.3,0.4-0.5,0.8-0.7,1.2C-2211.5-1136.5-2211.8-1135.6-2211.5-1135.9L-2211.5-1135.9z M-2211.5-1137.1
			c0.1,0,0.1-0.1,0.2-0.2c0-0.1-0.5-0.7-0.5-0.5C-2211.8-1137.5-2211.7-1136.9-2211.5-1137.1L-2211.5-1137.1z M-2211.1-1137.8
			c0.3-0.1,1.3-1.4,1.2-1.4c-0.1,0-1.8,2-2,0.7C-2211.9-1138.3-2211.4-1137.7-2211.1-1137.8L-2211.1-1137.8z M-2209.3-1138.4
			C-2209.1-1138.7-2209.4-1138.2-2209.3-1138.4z M-2211.2-1138.4c0.4-0.1,0.6-0.4,0.6-0.8c0,0,0.3-0.4,0.4-0.6
			c-0.1,0.7-1.7-1.5-1-1.5c0.3,0,0.2,0.5,0.3,0.6c0,0,0.3,0.7,0.3,0.6c0.2,0.2,0.8-0.3,0.6-0.4c-0.1-0.1-0.8,0-0.6-0.5
			c-0.1,0.2,1.6,0,1.2-0.4c0.2,0.1-0.9,0.2-1,0.2c-0.8-0.3-0.4-1.1-0.6-1.7c0,0.1-0.7,4.4,0.3,4c-1.2,0.5-1-1.3-1.3-1.7
			C-2212-1140.5-2212.2-1138.1-2211.2-1138.4L-2211.2-1138.4z M-2209.6-1139c0,0,0.2-0.4,0.2-0.5
			C-2209.4-1139.7-2209.9-1138.8-2209.6-1139z M-2209.8-1139.7c0.1-0.1,0.3-0.8,0.2-0.8C-2209.7-1140.4-2209.9-1139.6-2209.8-1139.7
			L-2209.8-1139.7z M-2209.3-1139.7C-2209.1-1139.8-2209.6-1139.5-2209.3-1139.7z M-2209.1-1140.2c0.2-0.4,0.7-0.3,0.8-0.5
			c0.1-0.2-0.7,0-0.8,0.2C-2209.2-1140.4-2209.4-1139.8-2209.1-1140.2L-2209.1-1140.2z M-2212.2-1141.2c0-0.2,0-0.3-0.2-0.4
			C-2212.7-1141.4-2212.1-1140.9-2212.2-1141.2z M-2208.9-1141.1c0,0-0.3-0.6-0.3-0.6C-2209.4-1141.4-2208.9-1141-2208.9-1141.1
			L-2208.9-1141.1z M-2208.5-1141.6c0.3-0.1-0.5-0.5-0.5-0.1C-2209-1141.5-2208.6-1141.6-2208.5-1141.6z M-2209.5-1145.5
			c-0.1,0-0.2,0-0.3,0c-0.6,0.2,0.9,0.4,0.6,0.1C-2209.3-1145.4-2209.4-1145.4-2209.5-1145.5z M-2209.1-1146c0.1,0-0.3-0.1-0.2-0.1
			C-2209.3-1146-2209.2-1146-2209.1-1146z M-2214-1127.8c-0.3-0.4-0.1-1.9-0.1-2.4c0-0.9,0-1.8,0-2.7
			C-2214.1-1132.9-2214-1127.8-2214-1127.8z M-2212.6-1127.9c0,0,0.4-0.8,0.5-0.8C-2211.9-1128.8-2212.1-1127.4-2212.6-1127.9
			L-2212.6-1127.9z M-2214.4-1128.1c-0.6-0.8-0.1-3.9-0.1-4.9c0.3,0.9,0.2,2,0.2,3C-2214.3-1129.8-2214.4-1128.1-2214.4-1128.1
			L-2214.4-1128.1z M-2219.7-1128.3c-0.1-0.1-0.3-2,0.1-2C-2219.8-1130.2-2219.6-1128.1-2219.7-1128.3L-2219.7-1128.3z
			 M-2214.8-1128.4c-0.3-1.5-0.1-3.4-0.1-4.9C-2215.1-1133.1-2214.7-1128.9-2214.8-1128.4
			C-2214.8-1128.3-2214.8-1128.3-2214.8-1128.4z M-2215.2-1128.6c-0.6-0.4-0.2-4.1-0.2-4.9c0.3-0.3,0.3,1.9,0.3,1.8
			C-2215.1-1130.7-2215.1-1129.7-2215.2-1128.6C-2215.1-1128.6-2215.2-1128.6-2215.2-1128.6L-2215.2-1128.6z M-2205.5-1130.7
			c0-0.8-0.4-2.6,0.3-3c0,0.7,0.5,4.8-0.2,5C-2205.4-1128.8-2205.5-1130.7-2205.5-1130.7L-2205.5-1130.7z M-2205-1131.6
			c0-0.6-0.2-1.9,0.2-2.4c0,1,0.4,3.9-0.2,4.6C-2205-1129.4-2205-1131.6-2205-1131.6z M-2218.8-1129.4c0-0.6,0.2-1.3,0.1-1.7
			c-0.1-0.3-0.6-0.5-0.4-0.9c0.4-0.7,0.6,0.8,0.6,0.9c0,0.1,0.3,0.2,0.3,0.6C-2218.3-1130.3-2218.8-1129.5-2218.8-1129.4
			L-2218.8-1129.4z M-2204.6-1129.9c-0.1-1.3-0.2-2.9,0.1-4.1c0.1-0.1,0.1,1.9,0.1,2.1c0,0.5,0.1,1.1,0,1.5
			C-2204.4-1130.5-2204.6-1129.4-2204.6-1129.9z M-2204.2-1130.7c-0.1-0.2,0-0.3,0.1-0.2c0.2,0.1,0.2,0.3,0,0.4
			C-2204.2-1130.4-2204.3-1130.5-2204.2-1130.7z M-2221.2-1130.8c-0.5-0.2-1.5-1.2-1.6-1.7c0,0.1,1.2,0.8,1.2,0.8
			c0.3-0.3-1.2-1.1-1.3-1.2c-0.5-0.7,1.8-3,2.6-3.1c0.4-0.1,0.6,0.2,0.9,0.3c0.1,0.2,0.2,0.4,0.4,0.6c0.2-0.1,0.4-0.2,0.6-0.2
			c0.1,0,1,0.4,1,0.4c0.3-0.1-0.5-0.6-0.6-0.7c-0.4-0.1-0.7,0.2-0.9,0.1c-0.3-0.1-1.1-0.8-1.3-1c-2,0.2-0.7-1.8,0.3-2.4
			c0.5-0.3,2.2-0.7,2.8-0.4c0.4,0.2,1,1.2,0.1,1.2c0,0-0.1-0.2-0.1-0.3c0.5-1.2-2.2-0.4-2.6-0.1c-0.1,0.1-1.6,1.9-0.6,1.9
			c-0.4,0,1.2-1.9,1.4-2c0.5-0.2,1.1-0.2,1.5,0.1c-0.1-0.1,0.2,1.2,0.2,1.1c0,0-0.6,0-0.6,0.1c0.1,0.1,0.3,0.1,0.4,0.2
			c0,0-1.2-0.2-1.3-0.2c-0.4-0.2,0-0.6-0.2-0.7c-0.2-0.2-1.2,1.4-1.2,1.4c0.6,0.6,1-0.4,1.2-0.5c0,0,0.9,0.4,0.8,0.4
			c0.3,0.1,0.4-0.2,0.6,0.1c0.1,0.1,0,0.5-0.1,0.5c-0.2,0-0.7-0.4-0.9-0.5c0,0-0.5-0.3-0.6-0.3c-0.1,0.3,0.6,1.4,0.9,1.2
			c0-0.1-0.1-0.2-0.1-0.3c0.3-0.5,1.3,2,1.4,2.2c0.2,0.6,0.8,2.1,0.3,2.7c-0.5,0.6-1.6,0-1.5,0c0.3-0.1,0.5,0.4,0.6,0.3
			c0.6-0.3-2.2-2-2.3-2c0.1,0.1,0.2,0.2,0.3,0.2c0.2,0-0.1-0.4-0.1-0.4c0,0,1,0.5,1,0.3c0,0.2-1.3-1.1-1.1-1.1c-0.1,0-1,0.3-1.1,0.6
			c-0.6,0.8,0.2,0.3,0.3,1.3C-2220.4-1131.8-2221-1130.9-2221.2-1130.8z M-2221.9-1133.2c0.1-0.1-0.3-0.3-0.3-0.2
			C-2222.1-1133.2-2222-1133.2-2221.9-1133.2z M-2222.2-1133.4C-2222.2-1133.7-2222.2-1133.3-2222.2-1133.4z M-2221.5-1133.4
			c0.1-0.1-0.1-0.2-0.2-0.1C-2221.7-1133.3-2221.7-1133.3-2221.5-1133.4z M-2218.7-1133.6c0,0-0.3-0.5-0.3-0.3
			C-2219-1133.7-2218.8-1133.7-2218.7-1133.6z M-2217.3-1133.7c0.1-0.3-0.7-1.4-0.7-1.4C-2218.2-1134.7-2217.3-1133.6-2217.3-1133.7
			L-2217.3-1133.7z M-2221.2-1133.8c0.2-0.1-0.6-0.3-0.6-0.2C-2221.7-1133.8-2221.5-1133.7-2221.2-1133.8z M-2218.1-1133.9
			C-2218.2-1134.2-2217.9-1133.7-2218.1-1133.9L-2218.1-1133.9z M-2220.9-1133.9c0,0-0.5-0.3-0.5-0.1
			C-2221.4-1133.9-2220.8-1133.9-2220.9-1133.9L-2220.9-1133.9z M-2220.6-1134c0.2-0.2,0.3,0,0.3-0.3c0.4,0,0.2-0.1,0-0.2
			c-0.2-0.3-0.2,0.1-0.3,0.1c-0.1,0-0.3,0-0.4,0c0.1,0.1,0.2,0.1,0.3,0.2c-0.1,0-0.2,0-0.3,0
			C-2221.2-1134.1-2220.6-1134-2220.6-1134z M-2218.7-1134.1c-0.1-0.1-0.1-0.3-0.2-0.4c0.1,0.1,0.3,0.2,0.4,0.4c0,0-0.2-0.5-0.3-0.5
			c0.1,0.1,0.3,0.3,0.4,0.4c0.1-0.8-0.7-0.3-0.9-0.8c0-0.1,0.3,0.4,0.2,0.4c0.2,0-1-0.9-1-0.8c0-0.1,1.1,1.2,1,1.3
			c0-0.2,0-0.3-0.1-0.4C-2219.1-1134.5-2218.7-1134.2-2218.7-1134.1L-2218.7-1134.1z M-2219.5-1135.3
			C-2219.6-1135.6-2219.4-1135.2-2219.5-1135.3L-2219.5-1135.3z M-2218.9-1136.4c0.1-0.1-0.2-0.3-0.2-0.1
			C-2219.1-1136.4-2219.1-1136.3-2218.9-1136.4z M-2220.7-1136.8c0,0-0.3-0.4-0.3-0.4C-2221.5-1137.1-2220.8-1136.6-2220.7-1136.8
			L-2220.7-1136.8z M-2217.7-1137.9c0.2-0.4-0.5-0.1-0.4,0C-2217.7-1137.5-2217.9-1138-2217.7-1137.9z M-2217.8-1138.3
			c0.3-0.2-0.2-0.1-0.4,0.1C-2218.1-1138.2-2218-1138.2-2217.8-1138.3z M-2212.1-1132.7c-0.1-0.6-0.2-1.2-0.4-1.8
			c0.9,1,1.3,1.9,0.6,3.1C-2211.9-1131.8-2212-1132.2-2212.1-1132.7L-2212.1-1132.7z M-2204.2-1132.5c0-0.5,0-1.1,0-1.6
			c0.4,0.1,0.3,2.1,0.1,2.1C-2204.2-1132.2-2204.2-1132.4-2204.2-1132.5z M-2219.4-1132.2c-0.1,0-0.2-0.1-0.2-0.2
			C-2219.5-1132.5-2219.3-1131.9-2219.4-1132.2z M-2216.4-1137.5c-0.3,1.1,2.2,1.7,2.8,2.3c0.5,0.5,1.2,2.3,0.9,3.1
			c0-0.1-2.8-1.8-3-1.9c-1.7-1.2-2.4-3.1,0-4.2c0,0.2-0.1,1.2-0.3,1.2C-2215.9-1137.1-2216.6-1137.8-2216.4-1137.5z M-2203.9-1133.6
			c0-0.1-0.2-0.9,0.2-0.9c-0.1,0,0.2,1.6-0.2,1.6C-2203.8-1133.1-2203.9-1133.3-2203.9-1133.6L-2203.9-1133.6z M-2206.7-1133.4
			c0-0.8-0.5-2.1,0.4-2.5c0,0.1,0,0.3,0.2,0.2c0.1-0.1,0-0.2,0-0.3c0.3-0.1,0.9,0.1,0.9,0.1c0.5-0.4-0.8-0.6-0.8-0.5
			c-0.2-0.2,0.3-0.4,0.4-0.4c0.1,0.2,0.4,0.5,0.5,0.6c-0.1-0.1,2.5-1.2,2.8-1.1c0.3,0.1,0.3,1.4,0.1,1.7c-0.3,0.5-1.7,0.7-2.2,0.9
			C-2205.1-1134.3-2205.9-1133.9-2206.7-1133.4z M-2213.3-1135.3c-0.2-0.3-0.1-1.4-0.1-1.8
			C-2213.4-1136.8-2213.3-1135.3-2213.3-1135.3L-2213.3-1135.3z M-2213.7-1135.6c-0.3-0.7,0.1-1.7-0.3-2.4c-0.2,0.4,0.2,1.8-0.1,2.1
			c0,0-0.1-1.7-0.1-2c-0.5,0.4,0.1,1.4-0.2,1.8c-0.1,0.1,0-1.7-0.1-1.7c-0.6-0.4-0.1,1.5-0.3,1.5c-0.1,0-0.2-1.7-0.3-1.6
			c-0.2,0.2-0.1,1.1-0.1,1.4c-0.4-0.2-0.5-0.9-0.3-1.4c0.2-0.6,0-0.5,1-0.5c1,0,0.8-0.1,1,0.7c0.2,0.6,0,1.6,0,2.2
			C-2213.6-1135.5-2213.7-1135.5-2213.7-1135.6L-2213.7-1135.6z M-2206.1-1135.9C-2206.1-1136.2-2206.1-1135.5-2206.1-1135.9
			L-2206.1-1135.9z M-2201.6-1135.8C-2202.6-1137.7-2199.6-1135.8-2201.6-1135.8z M-2206.1-1136.2c-0.1-0.1,0.1-0.2,0.1-0.2
			C-2206-1136.4-2206-1136.1-2206.1-1136.2L-2206.1-1136.2z M-2205.9-1136.6C-2205.9-1136.8-2205.9-1136.8-2205.9-1136.6
			L-2205.9-1136.6z M-2205-1136.8c-0.1-0.4,0-0.8,0-1.2c-0.4,0.2,0.1,0.6-0.2,0.9c-0.2,0.2-0.3-1.2-0.3-1.3c0.6,0,1.3,0,1.9,0
			c0,0.2,0.1,1.3,0,1.4c-0.3,0.2-0.3-1.2-0.4-0.9c0,0-0.1,1.1-0.1,1.1c-0.1-0.1,0.1-1.1-0.2-1.1c-0.1,0,0,1.3-0.2,1.2
			c0,0,0-1.5-0.2-1.2C-2205-1137.9-2205-1136.8-2205-1136.8z M-2205.6-1136.9C-2205.5-1137-2205.5-1137.1-2205.6-1136.9
			L-2205.6-1136.9z M-2215.7-1138.6c-0.4-0.1,0.9-0.3,1-0.3c0.5,0,0.7-0.1,1,0.3C-2214.3-1138.6-2215.1-1138.5-2215.7-1138.6
			L-2215.7-1138.6z M-2205.7-1138.7c-0.1-0.1,2.4-0.6,2.3,0C-2203.4-1138.6-2205.6-1138.5-2205.7-1138.7z M-2220.8-1139
			c0.2-1.4,2.3-0.4,2.7-0.7C-2218.5-1139.4-2220.7-1139.1-2220.8-1139z M-2215.4-1139.1c0,0,0-0.1,0-0.1c0.5,0,1.1,0,1.6,0
			C-2214-1139.1-2215.1-1138.9-2215.4-1139.1L-2215.4-1139.1z M-2205.4-1139.1c-0.1-0.1,1.4-0.3,1.6,0
			C-2204.3-1139.1-2204.8-1139.1-2205.4-1139.1z M-2204.7-1139.5c0.1,0,0.3,0,0.4,0C-2204.4-1139.5-2204.6-1139.5-2204.7-1139.5z
			 M-2215.1-1139.7c-0.6-0.4-0.5-0.2-1-0.2c-0.5,0,0.5-0.4,0.5-0.4c0.5-0.1,1,0,1.5,0C-2213.9-1139.8-2214.6-1139.4-2215.1-1139.7
			L-2215.1-1139.7z M-2205-1139.8c-0.2-0.2-1.1-0.3-1-0.2c-0.3-0.4,3.2-0.6,3,0C-2203.1-1140.1-2204.6-1139.6-2205-1139.8
			L-2205-1139.8z M-2213.6-1141.4c0-0.1-0.3-1.3,0-1.3C-2213.3-1142.7-2213.6-1141.6-2213.6-1141.4L-2213.6-1141.4z M-2204-1142.1
			c-0.6-0.6-0.9-1.2-1.8-1.6c-0.4-0.2-2-0.5-2.3-0.8c-0.5-0.5,0.3-1.3-0.6-1.9c-0.8-0.5-1.9-0.1-2,0.7c-0.1,0.8,0.7,0.9,0,1.5
			c-0.6,0.5-2,0.7-2.8,1c-0.8,0.3-1.8,0.9-2.7,0.4c-0.3-0.2-1.4-2.4-0.8-2.4c0.4,0,0.6,0.3,1.2,0.2c0.4-0.1,0.8-0.3,1.1-0.5
			c2.2-0.9,4.2-1.6,6.6-1.4c1.8,0.2,3.8,0.8,5.1,2c0.4,0.4,0.9,0.8,0.8,1.4C-2202.1-1143.1-2203.7-1141.8-2204-1142.1L-2204-1142.1z
			 M-2202.8-1142.9c0.5-0.3-0.1-1,0.3-1.1c0.3-0.1,0.3,0.4,0.3,0.5c0.3-0.4-0.1-0.8-0.5-0.4c-0.3,0.2,0.1,0.7-0.2,1
			c-0.3,0.3-0.4-0.6-0.2-0.6C-2203.5-1143.5-2203.3-1142.8-2202.8-1142.9z M-2215.5-1143c0.2,0,0.5-0.5,0.3-0.5
			c-0.5,0-0.1,0.8-0.6-0.1c-0.1-0.2,0.3-0.2,0.4,0c0-0.2-0.1-0.3-0.1-0.5c0,0.1-0.2,0.3-0.3,0.2c-0.6-0.6,0.5-0.5,0.4-0.4
			c0.3-0.3-0.7-0.3-0.9-0.1C-2216.5-1144.3-2216-1142.9-2215.5-1143L-2215.5-1143z M-2214.8-1143c-0.1-0.4,0.8,0.1,0.9-0.5
			c-0.1,0.1-0.2,0.2-0.4,0.1c0,0,0.1-2.2-0.9-1.3C-2215.7-1144.1-2214.8-1143.2-2214.8-1143L-2214.8-1143z M-2214.7-1143.4
			c-0.4-0.2-0.7-1.5,0-1.2C-2214.3-1144.4-2214.1-1143.1-2214.7-1143.4L-2214.7-1143.4z M-2203.5-1143.2c0.4-0.4,0.1-1.4,0.7-0.8
			c0,0,0.1-0.3-0.2-0.5c-0.2-0.1-0.8-0.2-0.6,0c-0.1-0.1,0.4-0.2,0.4-0.1c0-0.1-0.2,0.6-0.2,0.6
			C-2203.4-1143.5-2204.3-1143.5-2203.5-1143.2z M-2204.2-1143.6c0-0.4,0.7-1,0.7-1.2c0,0-0.4-0.3-0.4-0.3c-0.2,0,0.1,0.8-0.6,0.3
			c-0.1,0,0.8-0.7,0-0.7c0.2,0-0.7,1.4-0.8,1.2c0,0.1,0.4,0.2,0.4,0.2c0-0.4,0.1-0.8,0.6-0.4
			C-2204.6-1144.8-2204.2-1143.3-2204.2-1143.6L-2204.2-1143.6z M-2213.4-1143.7c0.4-0.2,0.3-1.6,0.1-1.7c-0.1,0-0.2,0.1-0.3,0.1
			c0,0,1.1,1.5,0.2,1.4c-0.4,0-0.5-1.2-0.6-1.2C-2214.8-1145.2-2213.9-1143.5-2213.4-1143.7L-2213.4-1143.7z M-2212.7-1144.1
			c0.4-0.1-0.3-1,0.5-0.2c0.1,0.1,0.4-0.2,0.4-0.2c-0.5-0.1-0.7-1.2-1.1-1.2C-2212.7-1145.7-2213-1144-2212.7-1144.1L-2212.7-1144.1
			z M-2212.7-1144.8c0-0.1,0-0.4,0-0.5c0,0,0.3,0.4,0.3,0.4C-2212.5-1144.8-2212.7-1144.8-2212.7-1144.8z M-2205.4-1144.4
			c0.1,0,0.5-0.5,0.4-0.5c-0.1-0.1-0.3-0.1-0.4-0.1c0.2-0.1-0.2,1.2-0.4,0.3c-0.1-0.4,0-0.8,0.4-1.1c0.3-0.1,0.3,0.6,0.4,0.6
			c0.1,0,0.2-0.9-0.4-0.7C-2206-1145.6-2206.4-1144.3-2205.4-1144.4L-2205.4-1144.4z M-2211.3-1144.5c0.3-0.1,0.5-0.6,0.5-0.6
			c-0.3,0.2-0.1,0.7-0.6,0.1c-0.2-0.3-0.3-0.7-0.3-1c-0.1,0-0.3,0.1-0.4,0.1C-2211.7-1146-2211.5-1144.4-2211.3-1144.5
			L-2211.3-1144.5z M-2206.2-1144.6c0,0,0-1.6,0.3-1.4c0,0-0.5-0.1-0.5-0.1c0,0.3-0.3,1.1-0.3,1.4
			C-2206.7-1144.8-2206.2-1144.6-2206.2-1144.6L-2206.2-1144.6z M-2206.7-1144.9L-2206.7-1144.9c-0.8-0.6,0.7-1.5-0.9-1.6
			c0.4,0-0.2,1.5-0.3,1.4c0,0,0.6,0.1,0.6,0.1c0-0.2-0.2-0.4,0-0.7C-2207.1-1145.9-2207.1-1144.6-2206.7-1144.9L-2206.7-1144.9z
			 M-2207.2-1145.7c-0.4-0.1,0.2-0.5,0.2-0.6C-2207.1-1146.2-2206.5-1145.6-2207.2-1145.7z M-2204.5-1142.2c-0.1,0-1.6-0.9-1.3-1.2
			C-2205.7-1143.4-2203.7-1142.5-2204.5-1142.2z M-2216.5-1145.2c-0.4-0.1,2-1.5,2.4-0.9C-2214-1145.9-2216.3-1145.1-2216.5-1145.2z
			"/>
	</g>
	<g>
		<path fill-rule="evenodd" clip-rule="evenodd" fill="#FFFFFF" d="M-2212.6-1123.3c-0.1,0.2-0.3,0.3-0.4,0.5
			c-0.1,0.1-0.2,0.2-0.2,0.2l0,0.5c0,0,0.1,0,0.1,0.1c0,0,0.1,0.1,0.1,0.1c0,0.1,0,0.2,0.1,0.2c0,0.1,0,0.3,0,0.3l0.4,0h0.1l0-2.1
			C-2212.5-1123.5-2212.6-1123.3-2212.6-1123.3L-2212.6-1123.3z M-2215.6-1124c-0.2,0.3-0.5,0.5-0.7,0.8c-0.2,0.2-0.5,0.4-0.7,0.7
			c-0.1,0.1-0.1,0.1-0.2,0.2c0,0,0,0.1,0,0.1c0,0,0.1,0.1,0.1,0.1c0.1,0.1,0.3,0.1,0.4,0.2c0.2,0.1,0.3,0.1,0.5,0.2
			c0.1,0.1,0.2,0.1,0.3,0.2c0,0,0,0.1,0,0.1l0,0.1l0.3,0c0,0,0-0.4,0-0.5c0,0,0-0.1,0.1-0.1c0,0,0.1-0.1,0.1-0.1l0-2.2
			C-2215.4-1124.3-2215.5-1124.1-2215.6-1124L-2215.6-1124z M-2206.4-1123.6c0.1,0.1,0.1,0.2,0.1,0.3c0.1,0.1,0.2,0.2,0.3,0.2
			c0.1,0.1,0.3,0.2,0.3,0.2l0,0.5c0,0,0,0.1-0.1,0.1s-0.1,0-0.1,0.1c0,0,0,0,0,0.1c0,0.1,0,0.6,0,0.6h-0.4l-0.2,0l0-2.3
			C-2206.4-1123.8-2206.4-1123.7-2206.4-1123.6L-2206.4-1123.6z M-2203.4-1123.6c0.3,0.2,0.6,0.4,0.8,0.6c0.1,0.1,0.1,0.1,0.2,0.2
			c0,0,0.1,0.1,0.1,0.1c0,0.1-0.2,0.2-0.3,0.2c-0.2,0.1-0.4,0.3-0.6,0.3c-0.1,0-0.1,0-0.2-0.1c0,0,0-0.2,0-0.2v-1.4
			C-2203.5-1123.7-2203.4-1123.6-2203.4-1123.6L-2203.4-1123.6z M-2201.8-1126.8c0,0-0.3,0.5-0.5,0.7c-0.1,0.1-0.2,0.2-0.3,0.3
			c0,0,0,0.1,0,0.1c0.1,0.2,0.3,0.1,0.5,0.3c0.1,0.1,0.2,0.2,0.2,0.4c0.1,0.2,0.2,0.3,0.3,0.5c0.1,0.1,0.2,0.4,0.2,0.4s0-0.2,0-0.3
			c0-0.3,0-0.7-0.1-1c0-0.2-0.1-0.5-0.1-0.7c0-0.2-0.1-0.4-0.1-0.5C-2201.7-1126.7-2201.8-1126.8-2201.8-1126.8L-2201.8-1126.8z"/>
	</g>
	<g>
		<path fill-rule="evenodd" clip-rule="evenodd" fill="#FEFEFE" d="M-2198.6-1132.7c0,0,0.1,0.1,0.1,0.2c0,0.1,0,0.1,0,0.2
			c0,0.1-0.1,0.3-0.1,0.4c-0.1,0.3-0.2,0.5-0.3,0.8c-0.1,0.2-0.1,0.3-0.1,0.5c0,0.1-0.1,0.3,0,0.4c0,0.1,0.1,0.2,0.2,0.3
			c0,0.1,0.1,0.2,0.1,0.2c0,0.1,0.1,0.2,0.1,0.2c0,0.1,0,0.2,0,0.3c0,0.2,0,0.3,0,0.5c0,0.3,0,0.6-0.1,0.8c0,0.3-0.1,0.7-0.1,1
			l-0.2,1c0,0.2-0.1,0.4-0.1,0.5c0,0.1,0,0.1,0,0.2c0,0.1,0.1,0.2,0.1,0.3c0,0.1,0.1,0.2,0.1,0.3c0,0.1,0,0.2,0,0.4
			c0,0.1,0,0.2-0.1,0.3c0,0.1-0.1,0.2-0.1,0.2c0,0-0.1,0.1-0.1,0.1s0.1,0.2,0.1,0.2c0,0.2,0,0.4,0,0.6c0,0.2,0,0.5-0.1,0.7
			c0,0.1,0,0.2,0,0.2s0.2-0.1,0.3-0.1c0.1,0,0.2,0,0.3-0.1c0.1-0.1,0.1-0.2,0.2-0.2c0.1-0.1,0.2-0.2,0.2-0.2s0-0.2,0-0.3
			c0-0.3,0-0.6,0-0.9c0-0.6,0.1-1.3,0.1-1.9l0.2-1.8c0-0.3,0.1-0.6,0.1-0.9c0,0,0-0.1,0-0.1s-0.1,0-0.1,0.1c0,0-0.1,0-0.1,0
			c-0.1,0-0.1-0.1-0.1-0.1c-0.1-0.2-0.1-0.4-0.1-0.6c0-0.1,0-0.1,0-0.2c0-0.1,0-0.2,0.1-0.3c0-0.1,0.1-0.2,0.2-0.2
			c0.1-0.1,0.2-0.1,0.3-0.1c0.1,0,0.2-0.1,0.3-0.1c0.1-0.1,0.1-0.1,0.1-0.2c0.1-0.1,0.1-0.2,0.1-0.3c0-0.3,0-0.6,0-0.9
			c0-0.1,0-0.3,0-0.3s-0.1,0-0.2-0.1c0,0-0.1,0-0.1-0.1c-0.1,0-0.1-0.1-0.2-0.1c-0.1-0.1-0.1-0.1-0.1-0.2c-0.1-0.1-0.1-0.2-0.1-0.3
			c0-0.1-0.1-0.1-0.2-0.2c-0.1,0-0.1-0.1-0.2-0.1c0,0-0.1,0-0.1-0.1C-2198.5-1132.7-2198.6-1132.7-2198.6-1132.7L-2198.6-1132.7z
			 M-2215.4-1128.9c0,0-0.3-0.1-0.5-0.2c-0.1-0.1-0.2-0.1-0.2-0.2c-0.1-0.1-0.1-0.2,0-0.3c0-0.1,0.1-0.3,0.2-0.4
			c0.1-0.1,0.2-0.2,0.3-0.3c0.1-0.1,0.2-0.1,0.2-0.1L-2215.4-1128.9z M-2216.9-1134.7c0.1,0.1,0.1,0.2,0.2,0.3c0,0.1,0,0.2,0.1,0.4
			c0,0.1,0,0.3,0,0.4c0,0.2,0.1,0.3,0.2,0.5c0.1,0.2,0.2,0.3,0.2,0.5c0,0.1,0,0.3,0,0.4c0,0.1,0,0.3,0,0.4c0,0.2,0,0.3-0.1,0.5
			c0,0.1-0.1,0.1-0.2,0.2c-0.1,0.2,0,0.4,0.1,0.6c0,0.1,0.1,0.4,0.1,0.4s0.1-0.1,0.1-0.2c0.1-0.1,0.1-0.2,0.2-0.2
			c0.1-0.1,0.3-0.1,0.4-0.2c0,0,0.1,0,0.1,0l-0.1-3c0,0-0.5-0.4-0.7-0.6C-2216.5-1134.5-2216.7-1134.6-2216.9-1134.7
			c0-0.1-0.1-0.2-0.1-0.2S-2216.9-1134.8-2216.9-1134.7L-2216.9-1134.7z M-2213.2-1131.2c0,0,0.2,0,0.3-0.1c0.1,0,0.2-0.1,0.3-0.2
			c0.1-0.1,0-0.2,0-0.3c0-0.1-0.1-0.2-0.2-0.2c-0.1-0.1-0.2-0.2-0.4-0.2c0,0-0.1-0.1-0.1-0.1V-1131.2z M-2212.4-1131.4
			c0,0-0.1,0.1-0.2,0.2c-0.1,0-0.2,0.1-0.2,0.1c-0.1,0-0.3,0-0.3,0l-0.1,1.8c0,0,0.2,0,0.2-0.1c0.2-0.1,0.3-0.2,0.4-0.3
			c0.1-0.1,0.2-0.2,0.3-0.3c0-0.1,0.1-0.3,0.1-0.3L-2212.4-1131.4z M-2213.2-1129.1c0,0,0.3-0.1,0.4-0.2c0.1-0.1,0.3-0.2,0.4-0.3
			c0.1-0.1,0.2-0.4,0.2-0.4l0.1,1c0,0-0.1,0.2-0.2,0.3c0,0.1,0,0.1-0.1,0.2c-0.1,0.1-0.2,0.2-0.3,0.2c-0.1,0-0.1,0.1-0.2,0.1
			c0,0.1,0,0.1,0,0.2c0,0.1,0.1,0.1,0.1,0.2c0,0.1,0,0.2,0,0.2s-0.3,0-0.4,0.1c0,0,0,0.1,0,0.2c0,0.1,0,0.3,0,0.3l0.1,0.2v0.1
			l-0.4-0.5L-2213.2-1129.1z M-2213.2-1139.5c0.1,0,0.1,0,0.2,0c0.1,0,0.2-0.1,0.2-0.1c0.1,0,0.2-0.1,0.3-0.1l0.1,0l0,0.2
			c0,0.1,0,0.2,0,0.3c0,0.1,0,0.2,0,0.4c0,0.2,0.1,0.3,0.1,0.5c0.1,0.2,0.1,0.4,0.1,0.6c0,0.1,0.1,0.3,0.1,0.4c0,0.1,0,0.3,0,0.4
			c0,0.2,0,0.4,0,0.5c0,0.2,0,0.3-0.1,0.5c0,0.1-0.1,0.3-0.1,0.4c0,0.2-0.1,0.4-0.1,0.5c0,0.1-0.1,0.3-0.1,0.3l-0.1-0.1l-0.9-4.9
			C-2213.3-1139.7-2213.3-1139.6-2213.2-1139.5L-2213.2-1139.5z M-2207.2-1138.4c0,0.2,0,0.4,0,0.5c0,0.2,0,0.3,0.1,0.5
			c0,0.2,0.1,0.4,0.2,0.6c0,0.2,0.1,0.4,0.1,0.6c0,0.2,0.1,0.5,0.1,0.5s0.1-0.1,0.2-0.1c0.1,0,0.2-0.1,0.3-0.1c0,0,0.1,0,0.1,0
			c0,0,0-0.1,0-0.1s0-0.1,0-0.1c0,0,0-0.1,0-0.1c0,0,0-0.1,0-0.1c0,0,0.1,0,0.1,0s0-0.1,0-0.1c0,0,0-0.1,0-0.1l-0.3-0.4l-0.3-0.4
			c-0.1-0.1-0.2-0.3-0.3-0.4c-0.1-0.1-0.1-0.2-0.2-0.3c0-0.1-0.1-0.3-0.1-0.3S-2207.2-1138.4-2207.2-1138.4L-2207.2-1138.4z
			 M-2205.7-1133.7c-0.2,0.1-0.4,0.2-0.6,0.3c-0.1,0.1-0.2,0.2-0.3,0.3c-0.1,0.1-0.1,0.1-0.2,0.2c0,0.1,0,0.2,0,0.2
			c0,0.1,0.1,0.3,0.2,0.4c0.1,0.1,0.2,0.2,0.3,0.4c0.1,0.1,0.3,0.3,0.5,0.4c0,0,0.1,0.1,0.1,0.1l0-2.3
			C-2205.6-1133.8-2205.7-1133.8-2205.7-1133.7L-2205.7-1133.7z M-2206.9-1132.7c0,0,0,0.1,0,0.1c0,0.1,0.1,0.2,0.1,0.3
			c0.1,0.1,0.2,0.2,0.3,0.3c0.1,0.2,0.3,0.3,0.4,0.4c0.1,0.1,0.4,0.3,0.4,0.3l0,1.4c0,0-0.4-0.1-0.5-0.2c-0.2-0.1-0.4-0.3-0.6-0.5
			c-0.2-0.2-0.4-0.7-0.4-0.7s0-0.1,0-0.2c0-0.3,0-0.6,0-0.9c0-0.1,0.1-0.1,0.1-0.1C-2207-1132.5-2206.9-1132.7-2206.9-1132.7
			L-2206.9-1132.7z M-2207.3-1131c0,0,0.1,0.3,0.2,0.4c0.1,0.1,0.2,0.2,0.3,0.3c0.1,0.1,0.3,0.2,0.5,0.3c0.2,0.1,0.6,0.2,0.6,0.2
			l0,1.2l-0.1,0.3l-0.2,0.4c0,0.1-0.1,0.2-0.1,0.3l0,0.1c0,0,0,0-0.1-0.1c0,0-0.1,0-0.2-0.1c-0.1,0-0.2,0-0.2,0s-0.1-0.1-0.2-0.2
			c-0.1-0.2-0.2-0.4-0.3-0.5c-0.1-0.2-0.2-0.4-0.2-0.7c-0.1-0.3-0.1-0.5-0.1-0.8c0-0.4,0-0.7,0-1.1
			C-2207.3-1130.9-2207.3-1131-2207.3-1131L-2207.3-1131z M-2210.4-1144.1l-0.6,0.2c-0.3,0.1-0.6,0.2-0.9,0.3
			c-0.2,0.1-0.5,0.2-0.7,0.3c-0.2,0.1-0.6,0.3-0.6,0.3s0,0-0.1,0.1c0,0,0,0.1,0,0.1l0,0.1c0,0,0,0.1,0,0.1c0,0.1-0.1,0.2-0.1,0.2
			s0,0,0,0.1c0,0,0,0.1,0,0.1c0,0,0,0.1,0,0.1c0,0,0,0,0,0.1c0,0.1,0,0.1,0.1,0.1c0,0.1,0.1,0.2,0.1,0.3c0,0.1,0.1,0.1,0.1,0.2
			c0,0.1,0,0.2,0.1,0.3l0,0.2c0,0,0-0.2,0.1-0.3c0-0.1,0.1-0.2,0.1-0.3c0.1-0.1,0.1-0.3,0.2-0.4c0.1-0.2,0.2-0.3,0.3-0.5
			c0.1-0.1,0.1-0.2,0.2-0.4c0-0.1,0.1-0.2,0.1-0.3c0.1-0.1,0.2-0.1,0.3-0.1c0.1,0,0.3-0.1,0.4-0.1l0.4-0.1c0.1,0,0.3-0.1,0.4-0.1
			c0.1,0,0.1,0,0.2,0c0,0,0.1,0,0.1,0l0.1-0.2c0,0-0.1,0-0.1-0.1c0,0-0.1-0.1-0.1-0.1c0,0,0-0.1,0-0.1S-2210.4-1144.1-2210.4-1144.1
			z M-2208.3-1144.4c0,0-0.1,0.1-0.1,0.1c0,0-0.1,0-0.2,0c0,0-0.1,0-0.1,0l0,0.3c0,0.1,0,0.2,0,0.3c0,0.1,0.1,0.2,0.1,0.2
			c0,0,0.1,0.1,0.1,0.1c0.1,0.1,0.2,0.1,0.3,0.2c0.2,0.1,0.4,0.2,0.6,0.3c0.1,0.1,0.3,0.2,0.4,0.3c0.1,0.1,0.2,0.3,0.3,0.4
			c0.1,0.2,0.1,0.4,0.2,0.6c0,0.2,0.1,0.5,0.1,0.7c0,0.2,0,0.3,0,0.5c0,0.2,0.1,0.4,0.2,0.6c0.1,0.3,0.2,0.6,0.3,0.8
			c0.1,0.4,0.3,1.4,0.3,1.4v-0.8c0,0-0.1-0.2-0.1-0.3c0-0.1-0.1-0.1-0.1-0.2c0,0,0-0.1,0.1-0.1c0,0,0.1-0.1,0.1-0.1l0.2,0
			c0,0,0-0.1,0-0.1c0-0.1,0-0.1,0-0.2c0,0,0.1-0.1,0.1-0.1l0.4,0c0,0-0.1-0.1-0.1-0.1c0,0,0-0.1,0-0.1l-0.4-0.3
			c-0.1-0.1-0.3-0.2-0.3-0.2s-0.1,0.1-0.1,0.1c-0.1,0-0.1,0.1-0.2,0.1c-0.1,0-0.1,0-0.2-0.1c0,0-0.1-0.1-0.1-0.2c0-0.1,0-0.1,0-0.2
			c0-0.1,0.1-0.1,0.1-0.1c0,0,0.1,0,0.1,0l0.8,0l0.1,0c0,0,0-0.1,0.1-0.2c0-0.1,0.1-0.1,0.1-0.2c0,0,0.1-0.1,0.1-0.1
			s-0.1-0.1-0.1-0.2c0-0.1,0-0.2,0-0.3c0-0.1,0.1-0.2,0.1-0.3c0-0.1,0.1-0.1,0.1-0.2c0,0,0-0.1,0-0.1s-0.2-0.1-0.3-0.1
			c-0.1-0.1-0.3-0.1-0.4-0.2c-0.1-0.1-0.3-0.2-0.4-0.4c-0.1-0.1-0.1-0.3-0.2-0.4c0-0.1-0.1-0.3-0.1-0.3s-0.5-0.2-0.8-0.4
			c-0.3-0.1-0.6-0.2-0.9-0.3c-0.2-0.1-0.4-0.1-0.5-0.2C-2208.2-1144.4-2208.3-1144.4-2208.3-1144.4L-2208.3-1144.4z M-2203.5-1137
			l0.4-0.1c0.2-0.1,0.5-0.1,0.7-0.2c0.1,0,0.3-0.1,0.3-0.1s-0.1-0.1-0.1-0.2c-0.1-0.1-0.3-0.1-0.4-0.2c-0.2,0-0.4-0.1-0.5-0.1
			c-0.1,0-0.4,0-0.4,0V-1137z M-2203.5-1134.8l0.6-0.3l0.4-0.2c0,0-0.2,0.2-0.2,0.3c-0.1,0.1-0.2,0.3-0.2,0.4
			c-0.1,0.2-0.1,0.4-0.2,0.6c-0.1,0.1-0.2,0.3-0.3,0.4c0,0-0.1,0.1-0.1,0.1L-2203.5-1134.8z M-2197.3-1125.2l-0.2,2.8
			c0,0,0.1,0,0.1,0c0.1,0,0.2,0,0.3-0.1c0.1-0.1,0.2-0.2,0.4-0.2c0.2-0.1,0.4-0.2,0.5-0.3c0.1,0,0.1,0,0.2-0.1c0.1,0,0,0.3,0.1,0.2
			c0.1-0.1,0.2-0.3,0.3-0.5c0.2-0.3,0.3-0.5,0.5-0.8c0.2-0.4,0.4-0.8,0.6-1.3c0.2-0.4,0.3-0.8,0.4-1.2c0.1-0.5,0.3-0.9,0.4-1.4
			c0.1-0.5,0.2-0.9,0.2-1.4c0.1-0.4,0.1-0.8,0.1-1.2c0-0.4,0.1-0.9,0-1.3c0-0.4-0.1-0.9-0.1-1.3c0-0.4-0.1-0.8-0.2-1.2
			c-0.1-0.4-0.2-0.8-0.3-1.2c-0.2-0.5-0.3-1-0.5-1.5c-0.2-0.5-0.4-1-0.6-1.4c-0.3-0.5-0.6-1-0.9-1.4c-0.3-0.4-0.5-0.8-0.9-1.2
			c-0.4-0.4-0.8-0.9-1.2-1.3c-0.4-0.4-0.9-0.8-1.4-1.2c-0.5-0.4-0.9-0.7-1.4-1c-0.5-0.3-1-0.5-1.5-0.8c-0.4-0.2-0.9-0.4-1.3-0.5
			c-0.3-0.1-0.8-0.3-0.8-0.3l0.7,0.4c0.2,0.1,0.3,0.2,0.5,0.3c0.2,0.1,0.3,0.3,0.5,0.4c0.2,0.2,0.3,0.3,0.5,0.5
			c0.1,0.1,0.3,0.3,0.3,0.4c0.1,0.1,0.1,0.2,0.1,0.4c0,0.1,0,0.2,0,0.2c0,0.1,0,0.1-0.1,0.1c-0.2,0.3-0.6,0.6-0.9,0.9
			c-0.2,0.1-0.3,0.3-0.5,0.4c-0.2,0.1-0.3,0.2-0.5,0.2c-0.1,0-0.3,0-0.4,0c-0.1,0-0.4-0.1-0.4-0.1s0.1,0.1,0.1,0.2
			c0,0.1,0.1,0.1,0.1,0.2c0,0.1,0.1,0.2,0.1,0.3c0,0.1,0,0.2-0.1,0.2c0,0-0.1,0.1-0.1,0.1s0.1,0.1,0.1,0.2c0,0.1,0.1,0.2,0.1,0.2
			c0,0,0.1,0.1,0.1,0.1l1,0c0.1,0,0.1,0.1,0.2,0.1c0,0,0,0.1,0,0.2c0,0,0,0.1,0,0.1c0,0.1,0,0.1-0.1,0.1c0,0-0.1,0.1-0.1,0.1
			c-0.1,0-0.2,0-0.2-0.1c0,0-0.1-0.2-0.1-0.2s-0.1,0-0.2,0.1c-0.1,0.1-0.2,0.2-0.3,0.3c-0.1,0-0.2,0.1-0.2,0.1s0.1,0,0.1,0.1
			c0,0.1-0.1,0.1-0.1,0.1s0.2,0,0.2,0c0.1,0,0.1,0,0.2,0c0,0,0.1,0,0.1,0.1c0,0,0,0.1,0,0.1c0,0,0,0.1,0,0.1c0,0,0,0,0,0
			s0.1,0,0.2,0c0,0,0.1,0,0.1,0c0,0,0.1,0.1,0.1,0.1c0,0,0,0.1,0,0.1c0,0,0,0.1,0,0.1c0,0,0,0.1-0.1,0.1c0,0-0.1,0.1-0.1,0.1l0,0
			l0,0.5c0,0,0.3,0,0.4,0c0.1,0,0.2,0,0.4,0c0.1,0,0.2,0.1,0.3,0.1c0.1,0,0.2,0.1,0.3,0.1c0.1,0.1,0.1,0.1,0.2,0.2
			c0,0,0.1,0.1,0.1,0.1s0.2-0.2,0.2-0.3c0,0,0.1-0.1,0.1-0.2c0,0,0-0.1-0.1-0.1c0,0,0-0.1,0-0.1c0,0-0.1,0-0.1-0.1
			c0-0.1,0-0.1,0-0.2c0-0.1,0-0.2,0-0.2c0.1-0.1,0.2-0.2,0.3-0.2c0.2-0.1,0.4-0.2,0.6-0.2c0.1,0,0.3,0,0.4,0c0.2,0,0.4,0,0.6,0
			c0.1,0,0.3,0,0.4,0.1c0.1,0,0.2,0.1,0.3,0.2c0.1,0.1,0.1,0.2,0.2,0.3c0.1,0.1,0.1,0.2,0.1,0.4c0.1,0.1,0.1,0.3,0.2,0.4
			c0,0.1,0,0.2,0,0.3c0,0.1,0,0.2-0.1,0.3c0,0.1-0.1,0.1-0.1,0.2c-0.1,0.1-0.1,0.2-0.2,0.2c0,0.1-0.1,0.1-0.1,0.2c0,0.1,0,0.4,0,0.4
			s0.2,0.1,0.3,0.2c0.2,0.1,0.5,0.2,0.7,0.4c0.2,0.1,0.4,0.2,0.5,0.3c0.1,0.1,0.2,0.2,0.3,0.3c0.2,0.1,0.3,0.3,0.4,0.5
			c0.1,0.2,0.2,0.4,0.4,0.5c0.1,0.1,0.2,0.1,0.2,0.2c0.1,0,0.2,0.1,0.2,0.1c0.1,0.1,0.1,0.2,0.1,0.3c0,0.1,0,0.1,0.1,0.2
			c0,0.1,0.1,0.2,0.2,0.2c0,0.1,0,0.2,0,0.3c0,0.2,0,0.4,0,0.6c0,0.2,0,0.4-0.1,0.7c0,0.2-0.1,0.5-0.2,0.7c0,0.2-0.1,0.3-0.1,0.5
			c0,0.1,0,0.3,0,0.4c0,0.1,0,0.2,0,0.3c0,0.1-0.1,0.1-0.2,0.2c-0.1,0.1-0.2,0.2-0.2,0.3c-0.1,0.1-0.1,0.1-0.2,0.2
			c0,0.1,0,0.2,0,0.2c0,0.1,0,0.1-0.1,0.2c0,0.1-0.1,0.1-0.1,0.2c0,0-0.1,0-0.1,0l0,0.1L-2197.3-1125.2L-2197.3-1125.2z
			 M-2217.2-1144.7c0,0,0.1,0.4,0.1,0.6c0.1,0.3,0.2,0.5,0.3,0.8c0.1,0.2,0.2,0.4,0.4,0.6c0.1,0.1,0.2,0.2,0.4,0.3
			c0.2,0.1,0.4,0.1,0.6,0.1c0.2,0,0.4,0,0.5,0c0.2,0,0.5-0.1,0.5-0.1l0.1,0.8l0.2,1.3h-0.3c0,0-0.1-0.2-0.1-0.3
			c-0.1-0.1-0.2-0.3-0.2-0.3s0.1-0.1,0.1-0.2c0-0.1,0-0.1,0-0.2c0-0.1,0-0.2,0-0.3c0-0.1-0.1-0.2-0.1-0.3c0-0.1-0.2-0.2-0.2-0.2
			s-0.1,0.1-0.1,0.1c0,0.1-0.1,0.1-0.1,0.2c0,0.1-0.1,0.2-0.1,0.2c0,0.1,0,0.1,0,0.2c0,0.1,0,0.2,0.1,0.3c0,0.1,0.1,0.2,0.1,0.2
			l-0.1,0.2c0,0.1-0.1,0.1-0.1,0.2c0,0-0.1,0.1-0.1,0.1l-0.8,0c0,0-0.2,0-0.3,0.1c0,0-0.1,0.1-0.1,0.1c0,0.1-0.1,0.2,0,0.2
			c0,0.1,0.1,0.1,0.1,0.2c0.1,0,0.1,0.1,0.2,0.1c0.1,0,0.1-0.1,0.2-0.1c0,0,0.1-0.1,0.1-0.1s0.1,0.1,0.2,0.1c0.1,0,0.1,0.1,0.2,0.2
			c0.1,0,0.2,0.1,0.2,0.1s-0.1,0-0.1,0.1c0,0,0.1,0.1,0.1,0.1c0,0,0,0.1,0,0.1l-0.3,0c0,0-0.1,0-0.1,0c0,0-0.1,0-0.1,0.1
			c0,0,0,0.1,0,0.1c0,0,0.1,0.1,0.1,0.1s-0.1,0-0.2,0c-0.1,0-0.1,0-0.2,0.1c0,0,0,0.1-0.1,0.1c0,0.1,0,0.1,0,0.2
			c0,0.1,0.1,0.1,0.1,0.1l0.1,0c0,0-0.3,0.1-0.4,0.2c-0.2,0.1-0.4,0.3-0.6,0.4c-0.1,0.1-0.4,0.3-0.4,0.3s-0.1-0.2-0.1-0.3
			c0,0-0.1-0.1-0.1-0.1s0.1-0.1,0.2-0.2c0.1-0.1,0.2-0.1,0.3-0.2c0.1-0.1,0.1-0.1,0.2-0.2c0-0.1,0.1-0.2,0.1-0.3
			c0-0.1,0-0.2-0.1-0.2c-0.1-0.1-0.2-0.2-0.3-0.3c-0.1-0.1-0.3-0.1-0.4-0.1c-0.2,0-0.6,0-0.6,0s0-0.2-0.1-0.3
			c-0.1-0.1-0.2-0.1-0.3-0.1c-0.2,0-0.3-0.1-0.5-0.1c-0.2,0-0.4,0-0.6,0.1c-0.2,0-0.4,0-0.6,0.1c-0.2,0-0.4,0.1-0.5,0.2
			c-0.2,0.1-0.3,0.2-0.4,0.3c-0.1,0.1-0.1,0.2-0.1,0.3c0,0.1,0,0.2,0,0.4c0,0.1,0,0.2,0,0.2l-0.3,0.3c-0.1,0.1-0.2,0.2-0.2,0.3
			c-0.1,0.1-0.1,0.2-0.2,0.3c0,0.1-0.1,0.2-0.1,0.4c0,0.1,0,0.2,0,0.3c0,0.1,0.1,0.2,0.2,0.3c0.1,0.1,0.2,0.1,0.3,0.1
			c0.1,0,0.3,0,0.4,0c0.1,0,0.2,0,0.4,0h0.1l0,0.2c0,0-0.4,0.1-0.5,0.2c-0.1,0.1-0.2,0.1-0.3,0.2c-0.1,0.1-0.2,0.2-0.3,0.3
			c-0.2,0.2-0.4,0.4-0.6,0.6c-0.2,0.2-0.3,0.3-0.5,0.5c-0.1,0.1-0.2,0.2-0.3,0.4c-0.1,0.1-0.1,0.2-0.2,0.4c0,0.1-0.1,0.3-0.1,0.5
			c0,0.1,0,0.3,0,0.4c0,0.2,0.1,0.4,0.2,0.5c0.1,0.1,0.1,0.2,0.2,0.3c0.1,0.2,0.3,0.3,0.5,0.5l0.5,0.6l0.3,0.3l0,0.8
			c0,0.4,0,0.7,0,1.1c0,0.3,0,0.5,0,0.8c0,0.4,0,0.8,0.1,1.1c0,0.2,0,0.4,0.1,0.7c0,0.1,0.1,0.3,0.2,0.4c0.1,0.1,0.1,0.2,0.2,0.2
			c0.1,0.1,0.2,0.1,0.3,0.1c0,0,0.1,0.1,0.1,0.1l0.1,0.7c0,0.2,0,0.5,0,0.7c0,0.2,0.1,0.4,0.1,0.7c0,0.1,0,0.3,0,0.4
			c0,0.2,0,0.3,0,0.5c0,0.2,0,0.3,0.1,0.5c0,0.1,0.1,0.2,0.2,0.3c0,0.1,0.1,0.1,0.1,0.2c0,0-0.1,0.1-0.1,0.1h-0.9
			c0,0-0.5-0.5-0.7-0.8c-0.3-0.4-0.6-0.9-0.9-1.4c-0.3-0.5-0.5-0.9-0.7-1.4c-0.2-0.5-0.4-1-0.6-1.5c-0.2-0.6-0.3-1.2-0.4-1.8
			c-0.1-0.5-0.2-1.1-0.2-1.6c0-0.6-0.1-1.1-0.1-1.7c0-0.6,0-1.3,0.1-1.9c0.1-0.5,0.1-0.9,0.2-1.3c0.1-0.5,0.2-1,0.4-1.5
			c0.3-0.8,0.7-1.6,1.1-2.4c0.3-0.5,0.5-1,0.9-1.5c0.5-0.7,1.1-1.5,1.7-2.1c0.6-0.6,1.3-1.1,1.9-1.7
			C-2217.9-1144.1-2217.2-1144.7-2217.2-1144.7L-2217.2-1144.7z M-2213.9-1139.8l-0.3,0.2c0,0,0,0.1,0,0.1c0,0.1-0.1,0.1-0.1,0.1
			c0,0,0,0.1,0,0.1h0.4L-2213.9-1139.8z"/>
	</g>
	<g>
		<g>
			<path fill-rule="evenodd" clip-rule="evenodd" fill="#FFFFFF" d="M-2212.5-1150.2C-2212.5-1150.2-2212.5-1150.2-2212.5-1150.2
				c-0.1,0.1-0.3,0.1-0.4,0.1c-0.3,0-0.5,0.1-0.7,0.1c-0.2,0-0.4,0.1-0.7,0.2c-0.2,0.1-0.5,0.2-0.6,0.4c-0.1,0.1-0.2,0.2-0.2,0.4
				c-0.1,0.2-0.1,0.4,0,0.7c0.1,0.2,0.2,0.4,0.3,0.6c0.1,0.1,0.2,0.2,0.3,0.2c0.1,0,0.2,0.1,0.3,0.1c0.2,0,0.5,0,0.7,0
				c0.1,0,0.1,0,0.2,0c0.2,0,0.3-0.1,0.5-0.1c0.1,0,0.1,0,0.2-0.1c0.1,0,0.2-0.1,0.3-0.1c0.1,0,0.1,0,0.2-0.1c0.1,0,0.2-0.1,0.2-0.1
				c0,0,0.1,0,0.1,0s-0.2-0.9-0.2-0.9c0-0.1,0.1-0.1,0.1-0.1c0,0,0-0.1-0.1-0.1c0,0-1.3,0.3-1.4,0.3c-0.1,0-0.1,0.1,0,0.1
				c0,0,0.1,0,0.1,0.1c0,0,0.2,0.6,0.2,0.7c0,0.1,0,0.1-0.1,0.1c0,0-0.2,0.1-0.2,0.1c-0.1,0-0.1,0-0.2-0.1c-0.1-0.1-0.2-0.1-0.2-0.2
				c-0.1-0.2-0.2-0.4-0.2-0.5c0-0.2,0-0.3,0-0.5c0-0.1,0-0.1,0.1-0.2c0.1-0.1,0.2-0.2,0.4-0.3c0.1-0.1,0.2-0.1,0.4-0.1
				c0.2,0,0.4,0,0.6,0.1c0,0,0.1,0.1,0.1,0.1c0,0,0.1,0.1,0.1,0c0,0,0,0,0-0.1C-2212.3-1149.8-2212.4-1150.2-2212.5-1150.2
				C-2212.5-1150.2-2212.5-1150.2-2212.5-1150.2L-2212.5-1150.2z M-2205.1-1150.2c-0.2,0-0.4,0-0.6,0.1c-0.1,0-0.3,0.1-0.4,0.2
				c-0.1,0.2-0.3,0.4-0.3,0.6c-0.1,0.2,0,0.4,0,0.6c0,0.1,0.1,0.2,0.2,0.3c0.1,0.1,0.2,0.2,0.3,0.2c0.2,0.1,0.4,0.2,0.6,0.3
				c0.1,0,0.1,0,0.2,0.1c0.1,0,0.3,0.1,0.5,0.1c0.1,0,0.1,0,0.2,0c0.1,0,0.2,0,0.3,0c0.1,0,0.1,0,0.2,0c0.1,0,0.2,0,0.3,0
				c0,0,0.1,0,0.1,0s0.2-0.9,0.3-0.9c0,0,0.1-0.1,0.2-0.1c0,0,0.1-0.1,0-0.1c0,0-1.3-0.4-1.3-0.4c-0.1,0-0.1,0.1-0.1,0.1
				c0,0,0,0.1,0.1,0.1c0,0-0.1,0.6-0.2,0.7c0,0.1-0.1,0.1-0.1,0.1c0,0-0.2,0-0.2-0.1c-0.1,0-0.1-0.1-0.1-0.1
				c-0.1-0.1-0.1-0.2-0.1-0.3c0-0.2,0-0.4,0.1-0.6c0.1-0.2,0.1-0.3,0.2-0.4c0-0.1,0.1-0.1,0.2-0.1c0.1-0.1,0.3-0.1,0.5-0.1
				c0.1,0,0.3,0.1,0.4,0.1c0.2,0.1,0.3,0.2,0.5,0.3c0,0,0.1,0.1,0.1,0.1c0,0,0,0.1,0.1,0.1c0,0,0,0,0.1-0.1c0,0,0.1-0.5,0.1-0.5
				c0,0,0,0-0.1,0c-0.1,0-0.2-0.1-0.3-0.1c-0.2-0.1-0.5-0.2-0.7-0.3c-0.2-0.1-0.4-0.1-0.7-0.1
				C-2205-1150.2-2205-1150.2-2205.1-1150.2L-2205.1-1150.2z M-2209.1-1149.8c-0.1,0-0.1,0-0.2,0c-0.1,0-0.2,0.1-0.2,0.2
				c-0.1,0.1-0.1,0.3,0,0.4c0,0.1,0.1,0.2,0.2,0.3c0.1,0.1,0.3,0.1,0.4,0c0.1,0,0.2-0.2,0.2-0.3c0-0.1,0-0.3,0-0.4
				c0-0.1-0.1-0.2-0.3-0.3C-2209-1149.8-2209-1149.8-2209.1-1149.8z M-2216-1149.3C-2216-1149.3-2216-1149.3-2216-1149.3l-0.6,0.3
				c0,0-0.1,0.1-0.1,0.1c0,0,0,0,0.1,0c0.1,0,0.1,0,0.1,0c0,0,0.4,0.8,0.4,0.8l-1.3-0.5c-0.1,0-0.1,0-0.2,0l-1,0.5
				c-0.1,0,0,0.1,0.1,0.1c0.1,0,0.1,0,0.1,0c0,0,0.8,1.7,0.8,1.7c0.1,0.1,0,0.1-0.1,0.2c-0.1,0,0,0.1,0.1,0.1c0,0,0.6-0.3,0.6-0.3
				c0.1,0,0.1-0.1,0-0.1c-0.1,0-0.1,0-0.1,0c0-0.1-0.5-1.1-0.5-1.1l1.5,0.7c0.1,0,0.1,0,0.1,0c0,0,0,0,0.1,0l0.9-0.4
				c0.1,0,0-0.2-0.1-0.1c0,0-0.1,0-0.1-0.1c0,0-0.8-1.7-0.8-1.7c0,0,0-0.1,0-0.1C-2215.9-1149.2-2215.9-1149.3-2216-1149.3
				C-2215.9-1149.3-2216-1149.3-2216-1149.3L-2216-1149.3z M-2202-1149.3c-0.1,0-0.1,0.1,0,0.1c0.1,0,0.1,0.1,0,0.2
				c0,0-0.8,1.7-0.8,1.7c0,0,0,0-0.1,0c-0.1-0.1-0.2,0.1-0.1,0.1c0,0,1.1,0.5,1.2,0.5c0.1,0,0.1-0.1,0-0.1c0,0,0,0,0-0.1
				s0.2-0.5,0.2-0.6c0,0,0,0,0.1,0c0,0,0.1,0.1,0.2,0.1c0.1,0,0,0.2,0,0.3c0,0.1,0,0.2,0,0.3c0,0.1,0.1,0.2,0.1,0.4
				c0.1,0.1,0.1,0.2,0.2,0.3c0.1,0.1,0.2,0.2,0.3,0.2c0.1,0.1,0.2,0.1,0.3,0.2c0.1,0,0.2,0.1,0.3,0c0.1,0,0.4,0,0.4-0.1
				c0-0.1-0.1-0.1-0.2-0.1c-0.1,0-0.2,0-0.2-0.1c-0.1-0.1-0.2-0.5-0.2-0.6c0-0.1,0-0.1-0.1-0.2c0,0,0-0.1,0-0.1c0,0,0-0.1,0,0
				c0,0,0.2,0,0.3,0c0.1,0,0.1,0,0.2-0.1c0.1-0.1,0.2-0.2,0.2-0.3c0.1-0.1,0.1-0.2,0.1-0.4c0-0.1-0.1-0.2-0.1-0.3
				c-0.1-0.1-0.2-0.2-0.3-0.3c-0.1-0.1-0.2-0.1-0.3-0.2C-2200.6-1148.7-2201.9-1149.2-2202-1149.3
				C-2201.9-1149.3-2201.9-1149.3-2202-1149.3L-2202-1149.3z M-2200.8-1148.5c0.1,0,0.1,0,0.1,0c0.1,0,0.2,0.1,0.2,0.2
				c0,0.1,0,0.2,0,0.3c0,0.1,0,0.1-0.1,0.1c-0.1,0.1-0.1,0.2-0.2,0.2c-0.1,0-0.2,0-0.3,0c0,0-0.1-0.1-0.1-0.1c0,0,0,0,0-0.1
				c0,0,0.2-0.5,0.3-0.6C-2200.9-1148.5-2200.9-1148.5-2200.8-1148.5L-2200.8-1148.5z M-2219.4-1147.5
				C-2219.4-1147.5-2219.5-1147.5-2219.4-1147.5l-1.1,0.8c-0.1,0,0,0.2,0.1,0.1c0,0,0,0,0.1,0c0,0,1.1,1.5,1.1,1.6
				c0.1,0.1,0,0.1,0,0.2c-0.1,0.1,0,0.1,0.1,0.1c0,0,1.1-0.8,1.1-0.8c0.1,0,0-0.1-0.1-0.1c0,0-0.1,0-0.1,0c0,0-1.1-1.5-1.1-1.5
				c-0.1-0.1-0.1-0.1,0-0.1C-2219.3-1147.4-2219.4-1147.5-2219.4-1147.5L-2219.4-1147.5z M-2198-1147.1
				C-2198.1-1147.1-2198.1-1147.1-2198-1147.1c0,0.1,0,0.2,0,0.2c0,0-1.2,1.5-1.2,1.5c0,0,0,0,0,0c0,0-0.1,0-0.1,0
				c-0.1-0.1-0.1,0,0,0.1c0,0,1.9,1.5,1.9,1.5c0,0,0,0,0.1,0c0,0,0.5-0.2,0.6-0.2c0,0,0,0,0-0.1c0,0-0.1,0-0.2,0
				c-0.1,0-0.2,0-0.3-0.1c-0.3-0.1-0.5-0.3-0.7-0.5c0,0-0.1-0.1-0.1-0.1c0,0,0.3-0.5,0.3-0.5c0,0,0.1-0.1,0.1,0c0,0,0.2,0.1,0.2,0.2
				c0,0,0,0.1,0,0.1c0,0.1,0,0.1,0.1,0.1c0.1,0.1,0.1,0.1,0.1,0c0,0,0.3-0.5,0.4-0.5c0,0-0.1-0.1-0.1-0.1c0,0-0.1,0-0.1,0
				c-0.1,0-0.3-0.1-0.3-0.1c0,0-0.1-0.1,0-0.1c0,0,0.3-0.4,0.4-0.5c0,0,0.1-0.1,0.1,0c0,0,0.3,0.2,0.4,0.4c0,0,0.1,0.2,0.2,0.3
				c0,0,0.1,0.1,0.1,0.1c0,0.1,0.1,0.2,0.1,0.4c0,0.2,0,0.2,0,0.2c0.1,0.1,0.1,0.1,0.1,0c0,0,0.2-0.6,0.2-0.6s0-0.1,0-0.1
				c0-0.1,0-0.1,0-0.1c0,0-0.8-0.6-0.8-0.6c0,0-1.1-0.8-1.1-0.9C-2197.9-1147.1-2198-1147.1-2198-1147.1L-2198-1147.1z
				 M-2221.4-1146.2C-2221.4-1146.2-2221.4-1146.2-2221.4-1146.2c-0.1,0-1.1,1-1.1,1v0.1c0,0.1,0.2,1.1,0.2,1.1l-1.5,0.1
				c0,0-0.7,0.8-0.7,0.8c-0.1,0.1,0,0.1,0.1,0.1c0.1,0,0.1,0,0.2,0c0.1,0,1.3,1,1.3,1.1c0.1,0.1,0.1,0.1,0.1,0.2c0,0,0,0,0,0.1
				c0,0.1,0,0.1,0.1,0.1c0,0,0.4-0.4,0.5-0.5c0.1-0.1,0.1-0.2,0-0.2c0,0-0.1,0-0.1,0c0,0-0.1,0-0.1,0c-0.1,0-0.7-0.6-0.7-0.6
				c0,0,1.4-0.1,1.4-0.1l-0.1-1.8c0,0,1,0.9,1,0.9c0,0,0,0.1,0,0.1c0,0,0,0.1,0,0.1c0,0,1-0.8,1-0.9c0,0,0.1-0.1,0.1-0.1
				c0,0,0,0-0.1,0c-0.1,0-1.7-1.4-1.7-1.4c0,0,0-0.1,0-0.1L-2221.4-1146.2C-2221.3-1146.2-2221.3-1146.2-2221.4-1146.2
				L-2221.4-1146.2z M-2194.6-1144.1c-0.1,0-1.8,0.5-1.9,0.5c-0.1,0-0.5,0.1-0.5,0.1c0,0-0.1-0.1-0.1,0c-0.1,0-0.1,0.1,0,0.1
				c0,0,0.5,0.6,0.5,0.6c0,0,0.1-0.1,0.1-0.1c0,0,0-0.1,0.1-0.2c0,0,0.3-0.1,0.4-0.1c0.1,0,0.1,0,0.1,0l0.5,0.6c0.1,0.1,0,0.1,0,0.1
				c0,0-0.1,0.3-0.2,0.4c0,0-0.1,0-0.1,0c-0.1,0-0.1,0-0.1,0c0,0,0,0,0,0.1c0,0,0.9,1.1,0.9,1.1c0,0,0.1-0.1,0-0.1c0,0,0-0.1,0-0.2
				c0.1-0.4,0.6-1.5,0.8-1.9c0-0.1,0.1-0.2,0.1-0.2c0,0-0.1-0.2-0.3-0.4C-2194.5-1143.9-2194.6-1144.1-2194.6-1144.1L-2194.6-1144.1
				z M-2195-1143.6c0,0-0.4,0.9-0.4,0.9c0,0-0.5-0.6-0.5-0.6C-2195.9-1143.4-2195-1143.6-2195-1143.6z M-2193.1-1142.3
				c0,0-0.6,0.2-0.6,0.2c0,0-0.1,0-0.1,0c0,0,0.1,0.1,0.1,0.1c0,0,0.2,0,0.3,0c0.1,0,0.2,0,0.2,0c0.1,0.1,0.3,0.6,0.3,0.6l-1.6,1
				c0,0-0.1,0-0.1,0c0-0.1-0.1,0-0.1,0c0,0,0.7,1.1,0.7,1.1c0.1,0.1,0.2,0,0.1,0c0-0.1,0-0.1,0.1-0.1c0,0,1.5-0.9,1.5-0.9
				c0,0,0.1,0,0.1,0s0.3,0.5,0.3,0.6c0,0,0,0.1-0.1,0.2c-0.1,0.1-0.2,0.2-0.2,0.2c0,0,0,0.1,0,0.1c0,0,0.1,0.1,0.1,0.1
				c0,0,0.5-0.5,0.5-0.5C-2191.6-1139.7-2193.1-1142.3-2193.1-1142.3L-2193.1-1142.3z M-2224.3-1142c-0.1,0-0.2,0-0.3,0
				c-0.1,0-0.2,0.1-0.3,0.1c-0.2,0.1-0.3,0.2-0.4,0.4c-0.1,0.1-0.2,0.3-0.3,0.4c-0.1,0.1-0.1,0.2-0.1,0.3c0,0.1-0.1,0.2-0.1,0.3
				c0,0.1,0,0.3,0,0.4c0,0.1,0.1,0.2,0.2,0.3c0,0.1,0.1,0.1,0.2,0.2c0.1,0.1,0.1,0.1,0.2,0.1c0.2,0.1,0.3,0.2,0.5,0.2
				c0.1,0,0.3,0,0.4,0c0,0,0.1,0,0.1,0c0.1,0,0.2-0.1,0.3-0.2c0.1-0.1,0.2-0.2,0.3-0.3c0-0.1,0.1-0.1,0.1-0.2
				c0.1-0.1,0.1-0.2,0.2-0.3c0-0.1,0.1-0.2,0.1-0.2c0-0.2,0.1-0.5,0-0.7c0-0.1-0.1-0.2-0.1-0.3c-0.1-0.1-0.2-0.2-0.3-0.3
				c-0.1-0.1-0.2-0.2-0.4-0.2C-2224.1-1142-2224.2-1142-2224.3-1142L-2224.3-1142z M-2225-1141.3c0,0,0.1,0,0.1,0
				c0.1,0,0.2,0,0.2,0.1c0.1,0,0.2,0.1,0.3,0.1c0.1,0,0.1,0.1,0.2,0.1c0.1,0,0.1,0.1,0.2,0.2c0.1,0.1,0.2,0.2,0.3,0.3
				c0,0.1,0,0.2,0,0.2c0,0.1,0,0.1-0.1,0.2c-0.1,0.1-0.1,0.1-0.2,0.1c0,0-0.1,0-0.2,0c-0.1,0-0.1,0-0.2-0.1c-0.1,0-0.2-0.1-0.2-0.1
				c-0.1,0-0.2-0.1-0.2-0.1c-0.1,0-0.1-0.1-0.2-0.1c-0.1,0-0.1-0.1-0.2-0.1c-0.1-0.1-0.2-0.2-0.2-0.3c0-0.1,0-0.2,0.1-0.3
				c0-0.1,0.1-0.1,0.2-0.1C-2225.1-1141.3-2225-1141.3-2225-1141.3L-2225-1141.3z M-2226.4-1139.6
				C-2226.4-1139.6-2226.4-1139.6-2226.4-1139.6c-0.1,0.1-0.3,0.6-0.3,0.7c0,0-0.1,0.1,0,0.2c0,0,0.1,0,0.1,0c0,0,0-0.1,0.1-0.1
				c0,0,0.1,0,0.1,0c0.1,0,0.7,0.9,0.7,0.9l-1.2,0.3l0-0.1c0-0.1,0-0.1-0.1-0.1c0,0-0.1,0-0.1,0c0,0.1-0.4,1.1-0.4,1.1
				c0,0.1,0,0.1,0,0.1c0.1,0,0.1,0,0.1,0c0,0,0.1-0.1,0.1-0.1c0,0,1.3-0.3,1.3-0.3c0.2-0.1,0.8,0.2,0.8,0.3c0,0,0,0,0,0.1
				c0,0,0,0.1,0,0.1c0,0,0,0,0.1,0c0,0,0.1,0,0.1-0.1c0-0.1,0.5-1.1,0.5-1.2c0-0.1,0-0.1,0-0.1c0,0-0.1,0-0.1,0.1
				c0,0-0.6-0.2-0.7-0.2l-1-1.2c0,0,0-0.1,0-0.1C-2226.3-1139.6-2226.3-1139.6-2226.4-1139.6L-2226.4-1139.6z M-2227.6-1136.5
				C-2227.7-1136.5-2227.7-1136.5-2227.6-1136.5c-0.1,0.2-0.1,0.6-0.1,0.7c0,0.2,0,0.2,0,0.2c0,0,0.1,0,0.1-0.1c0,0,0-0.1,0.1-0.1
				c0,0,0.1,0,0.1,0c0,0,0.7,0.5,0.7,0.5l-1.1,0.4l-0.1,0.6l0.8,0.6c0,0-0.7,0.3-0.7,0.3c-0.1,0-0.1,0-0.1,0c0,0,0,0-0.1,0
				c-0.1,0-0.3,1.6-0.3,1.6c0,0,0,0,0,0c0,0,0.1-0.1,0.1-0.1c0,0,0,0,0,0c0,0,2.3-0.9,2.3-0.9l0.1-0.8c0,0-0.7-0.4-0.7-0.5
				c0,0,0.8-0.3,0.8-0.3l0.1-0.6l-2-1.3C-2227.5-1136.3-2227.6-1136.3-2227.6-1136.5C-2227.6-1136.4-2227.6-1136.5-2227.6-1136.5
				L-2227.6-1136.5z M-2190.9-1136.2c-0.1,0-0.3,0-0.4,0.1c-0.1,0.1-0.2,0.1-0.2,0.2c0,0.1-0.1,0.1-0.1,0.2c0,0.1-0.1,0.3-0.1,0.4
				c0,0.2,0,0.4-0.1,0.7c0,0.1-0.1,0.3-0.2,0.3c-0.1,0-0.1-0.1-0.2-0.2c-0.1-0.3,0-0.6,0-0.8c0-0.1,0.1-0.2,0.1-0.3
				c0.1-0.1,0.1-0.2,0.2-0.3c0-0.1,0.1,0,0-0.2c0,0,0,0-0.1,0c0,0-0.6,0.3-0.6,0.3c0,0,0,0.3,0,0.5c0,0.2,0,0.3,0,0.5
				c0,0.2,0.1,0.4,0.1,0.6c0,0.2,0.1,0.3,0.2,0.5c0.1,0.2,0.2,0.3,0.3,0.5c0.1,0.1,0.2,0.1,0.4,0.2c0.1,0,0.2,0,0.4-0.1
				c0.1,0,0.2-0.1,0.2-0.1c0.1-0.1,0.1-0.2,0.2-0.3c0.1-0.2,0.1-0.4,0.1-0.6c0-0.1,0-0.2,0-0.4c0-0.1,0-0.2,0-0.3c0,0,0-0.1,0-0.1
				c0,0,0.1-0.1,0.1,0c0.1,0,0.1,0.2,0.2,0.3c0.1,0.2,0,0.4,0,0.6c0,0.1,0,0.2-0.1,0.3c0,0.1-0.1,0.2-0.1,0.2c0,0-0.1,0.1-0.1,0.1
				c0,0,0,0.2,0.1,0.2c0,0,0.5-0.2,0.5-0.2c0.1,0,0.1,0,0.1-0.2c0-0.1,0-0.3,0-0.5c0-0.2,0-0.3-0.1-0.5c0-0.2-0.1-0.3-0.1-0.5
				c0-0.1-0.1-0.2-0.1-0.3c-0.1-0.2-0.2-0.4-0.4-0.6C-2190.6-1136.2-2190.8-1136.2-2190.9-1136.2L-2190.9-1136.2z M-2189.8-1132.7
				C-2189.8-1132.7-2189.8-1132.7-2189.8-1132.7c-0.1,0.1-0.1,0.1-0.2,0.1c0,0-1.9,0-1.9,0c0,0,0,0,0,0c0,0,0-0.1,0-0.1
				c0-0.1-0.1-0.1-0.1,0c0,0,0,2.4,0,2.4c0,0,0,0,0.1,0.1c0,0,0.5,0.3,0.5,0.3c0,0,0,0,0-0.1c0,0,0-0.1-0.1-0.2
				c-0.1-0.1-0.1-0.2-0.2-0.3c-0.1-0.3-0.1-0.6,0-0.9c0,0,0-0.1,0-0.1c0,0,0.6,0,0.6,0c0,0,0.1,0,0.1,0.1c0,0,0,0.2,0,0.3
				c0,0,0,0.1-0.1,0.1c-0.1,0-0.1,0.1-0.1,0.1c0,0.1,0,0.1,0.1,0.1c0,0,0.6,0,0.6,0c0,0,0.1-0.2,0-0.2c0,0-0.1,0-0.1-0.1
				c-0.1-0.1-0.1-0.3-0.1-0.3c0-0.1,0-0.1,0.1-0.1c0,0,0.5,0,0.6,0c0.1,0,0.1,0,0.1,0.1c0,0.1,0,0.4,0,0.6c0,0,0,0.2-0.1,0.3
				c0,0.1,0,0.1-0.1,0.1c-0.1,0.1-0.1,0.2-0.3,0.3c-0.1,0.1-0.1,0.1-0.2,0.2c0,0.1,0,0.1,0.1,0.1c0,0,0.6-0.2,0.6-0.3
				c0,0,0.1,0,0.1-0.1c0,0,0-0.1,0-0.1c0-0.1,0-1,0-1c0,0,0-1.3,0-1.4C-2189.7-1132.6-2189.7-1132.7-2189.8-1132.7L-2189.8-1132.7z
				 M-2192-1129.7C-2192-1129.7-2192-1129.7-2192-1129.7c-0.1,0.1-0.2,0.8-0.2,0.9c0,0,0.1,0,0.1,0c0,0,0.1-0.1,0.2,0
				c0,0,0.3,0.2,0.3,0.2c0,0,0,0.1,0,0.1l-0.1,0.8c0,0.1,0,0.1-0.1,0.1c0,0-0.3,0.1-0.4,0.1c-0.1,0-0.1,0-0.1-0.1
				c0-0.1-0.1-0.1-0.1-0.1c0,0,0,0,0,0c0,0-0.3,1.4-0.2,1.4c0,0,0.1,0,0.1-0.1c0,0,0,0,0.2-0.1c0.4-0.2,1.6-0.5,2-0.6
				c0.1,0,0.2,0,0.2,0l0.1-0.5c0-0.2,0.1-0.4,0.1-0.4c0,0-1.5-1.1-1.6-1.2c-0.1,0-0.4-0.4-0.4-0.4
				C-2191.9-1129.6-2191.9-1129.7-2192-1129.7C-2192-1129.7-2192-1129.7-2192-1129.7L-2192-1129.7z M-2227.5-1129.6
				C-2227.5-1129.6-2227.5-1129.6-2227.5-1129.6c0,0-0.5,0.4-0.6,0.4c0,0-0.1,0.1-0.1,0.1c0,0,0,0.1,0,0.1c0,0.1,0.2,1,0.2,1
				c0,0,0.3,1.3,0.3,1.4c0,0.2,0.1,0.2,0.1,0.1c0,0,0-0.1,0.1-0.1c0,0,1.8-0.4,1.9-0.4c0,0,0.1,0,0.1,0c0,0,0,0,0,0.1
				c0,0.1,0.1,0.1,0.1,0c0-0.1-0.1-0.6-0.2-1.2c0-0.2-0.1-0.1-0.1,0c0,0,0,0.1-0.1,0.1c0,0-0.7,0.1-0.7,0.1c0,0-0.1,0-0.1,0
				c0,0,0-0.2,0-0.3c0,0,0-0.1,0.1-0.1c0-0.1,0.1-0.1,0-0.1c0-0.1,0-0.1-0.1-0.1c0,0-0.6,0.1-0.6,0.1c0,0,0,0.2,0,0.2
				c0,0,0.1,0,0.1,0c0.1,0.1,0.1,0.2,0.1,0.3c0,0.1,0,0.1,0,0.1c0,0-0.5,0.1-0.6,0.1c-0.1,0-0.1,0-0.1-0.1c0-0.1-0.1-0.4-0.1-0.6
				c0,0,0-0.2,0-0.3c0-0.1,0-0.1,0-0.2c0.1-0.1,0.1-0.2,0.2-0.3C-2227.5-1129.4-2227.4-1129.5-2227.5-1129.6
				C-2227.4-1129.6-2227.5-1129.6-2227.5-1129.6L-2227.5-1129.6z M-2191.3-1128.6c0,0,0.8,0.6,0.8,0.6s-0.9,0.2-0.9,0.2
				C-2191.5-1127.8-2191.4-1128.6-2191.3-1128.6z M-2225.8-1126.1c-0.1,0-0.1,0-0.2,0c-0.1,0-0.2,0-0.2,0v0
				c-0.2,0.1-0.4,0.1-0.5,0.2c-0.1,0.1-0.2,0.2-0.3,0.3c0,0,0,0.1-0.1,0.1c0,0.1-0.1,0.2-0.1,0.3c0,0.1,0,0.3,0,0.4
				c0,0.1,0,0.1,0,0.2c0,0.1,0.1,0.2,0.1,0.4c0,0.1,0.1,0.2,0.1,0.2c0.1,0.2,0.3,0.4,0.5,0.5c0.1,0.1,0.2,0.1,0.3,0.1
				c0.2,0,0.3,0,0.5,0c0.1,0,0.3-0.1,0.4-0.2c0.2-0.1,0.4-0.3,0.5-0.5c0.1-0.1,0.1-0.2,0.1-0.3c0-0.2,0-0.4,0-0.6
				c0-0.2-0.1-0.3-0.1-0.5c0-0.1-0.1-0.2-0.1-0.3c-0.1-0.1-0.1-0.2-0.2-0.3c-0.1-0.1-0.2-0.2-0.3-0.2
				C-2225.5-1126.1-2225.6-1126.1-2225.8-1126.1C-2225.8-1126.1-2225.8-1126.1-2225.8-1126.1L-2225.8-1126.1z M-2192.8-1126.1
				C-2192.8-1126.1-2192.8-1126.1-2192.8-1126.1c-0.1,0.1-1,2.3-1,2.3c0,0,0,0,0,0.1c0.1,0.2,0.4,0.4,0.4,0.5c0,0,0.1,0,0.1-0.1
				c0-0.1,0-0.1,0-0.1c0,0,0-0.1-0.1-0.2c0-0.1,0-0.1,0-0.2c0-0.1,0-0.1,0-0.2c0-0.1,0.1-0.2,0.1-0.3c0-0.1,0.1-0.2,0.1-0.4
				c0-0.1,0.1-0.1,0.1-0.1c0,0,0,0,0.1,0c0,0,0.1,0,0.1,0c0.5,0.2,1.5,0.6,1.5,0.6c0,0,0.1,0.1,0.1,0.1c0,0.1,0,0.1,0,0.1
				c0,0,0.1,0,0.1-0.1c0,0,0.4-1.1,0.5-1.2c0-0.1,0-0.1-0.1-0.1c0,0-0.1,0-0.1,0c0,0-1.8-0.7-1.9-0.7
				C-2192.7-1126-2192.7-1126-2192.8-1126.1C-2192.7-1126.1-2192.7-1126.1-2192.8-1126.1L-2192.8-1126.1z M-2225.4-1125.2
				c0.1,0,0.2,0,0.3,0.1c0.1,0,0.1,0.1,0.2,0.2c0,0.1,0,0.1,0,0.2c0,0.1-0.1,0.1-0.1,0.2c-0.1,0.1-0.1,0.1-0.2,0.1
				c-0.1,0-0.2,0.1-0.3,0.1c-0.1,0-0.1,0-0.2,0.1c-0.1,0-0.2,0-0.2,0.1c-0.1,0-0.3,0.1-0.5,0c-0.1,0-0.1-0.1-0.2-0.2
				c0,0-0.1-0.1-0.1-0.2c0-0.1,0-0.2,0-0.2c0,0,0.1-0.1,0.1-0.1c0,0,0.1-0.1,0.2-0.1c0.1,0,0.2-0.1,0.2-0.1c0.1,0,0.2-0.1,0.2-0.1
				c0.1,0,0.2,0,0.2-0.1C-2225.6-1125.2-2225.5-1125.2-2225.4-1125.2L-2225.4-1125.2L-2225.4-1125.2z M-2194.3-1122
				C-2194.4-1122-2194.4-1122-2194.3-1122c-0.2,0-0.3,0.1-0.4,0.1c-0.2,0.1-0.3,0.2-0.4,0.4c-0.1,0.1-0.2,0.2-0.3,0.4
				c-0.1,0.1-0.1,0.2-0.2,0.3c0,0.1-0.1,0.2-0.1,0.3c0,0.1,0,0.3,0,0.4c0,0.1,0.1,0.2,0.2,0.4c0,0.1,0.1,0.1,0.2,0.2
				c0.1,0.1,0.1,0.1,0.2,0.2c0.2,0.1,0.3,0.2,0.5,0.3c0.1,0,0.3,0,0.4,0c0,0,0.1,0,0.1,0c0.1,0,0.2-0.1,0.3-0.1
				c0.1-0.1,0.2-0.2,0.3-0.3c0.1,0,0.1-0.1,0.1-0.2c0.1-0.1,0.2-0.2,0.2-0.3c0-0.1,0.1-0.2,0.1-0.2c0.1-0.2,0.1-0.5,0.1-0.7
				c0-0.1-0.1-0.2-0.1-0.3c-0.1-0.1-0.2-0.2-0.3-0.3c-0.1-0.1-0.2-0.2-0.4-0.2C-2193.9-1122-2194.1-1122-2194.3-1122L-2194.3-1122z
				 M-2223.2-1121.9C-2223.2-1121.9-2223.2-1121.9-2223.2-1121.9c-0.1,0-0.6,0.1-0.6,0.1c0,0,0,0,0,0.1c0,0,0.1,0,0.2,0.1
				c0.1,0,0.2,0.1,0.3,0.1c0.2,0.2,0.4,0.4,0.6,0.6c0,0,0,0.1,0,0.1c0,0-0.4,0.4-0.4,0.4c0,0-0.1,0-0.1,0c0,0-0.1-0.2-0.1-0.2
				c0,0,0-0.1,0-0.1c0-0.1,0-0.1,0-0.1c0-0.1-0.1-0.1-0.1,0c0,0-0.4,0.4-0.5,0.4c0,0,0.1,0.2,0.1,0.2c0,0,0.1,0,0.1,0
				c0.1,0,0.2,0.2,0.2,0.2c0,0,0,0.1,0,0.1c0,0-0.4,0.3-0.5,0.4c-0.1,0-0.1,0-0.1,0c0,0-0.2-0.3-0.3-0.5c0,0-0.1-0.2-0.1-0.3
				c0-0.1,0-0.1,0-0.2c0-0.1,0-0.2,0-0.4c0-0.2,0-0.2,0-0.2c0-0.1-0.1-0.1-0.1,0c0,0-0.3,0.5-0.3,0.6c0,0,0,0.1-0.1,0.1
				c0,0.1,0,0.1,0,0.1c0,0.1,0.6,0.8,0.6,0.8c0,0,0.8,1,0.9,1.1c0.1,0.1,0.2,0.1,0.2,0c0,0,0-0.1,0-0.2c0,0,1.5-1.2,1.5-1.2
				c0,0,0,0,0,0c0,0,0.1,0,0.1,0c0.1,0.1,0.1,0,0.1-0.1C-2221.6-1120-2223.1-1121.9-2223.2-1121.9
				C-2223.1-1121.9-2223.2-1121.9-2223.2-1121.9L-2223.2-1121.9z M-2194.8-1121.3c0,0,0.1,0,0.1,0c0.1,0,0.2,0.1,0.2,0.1
				c0.1,0,0.2,0.1,0.3,0.2c0.1,0,0.1,0.1,0.2,0.1c0.1,0.1,0.1,0.1,0.2,0.2c0.1,0.1,0.2,0.2,0.3,0.4c0,0.1,0,0.2,0,0.2
				c0,0.1-0.1,0.1-0.1,0.1c-0.1,0-0.1,0.1-0.2,0.1c-0.1,0-0.1,0-0.2,0c-0.1,0-0.1,0-0.2-0.1c-0.1,0-0.1-0.1-0.2-0.1
				c-0.1,0-0.1-0.1-0.2-0.2c-0.1-0.1-0.1-0.1-0.2-0.2c-0.1-0.1-0.1-0.1-0.2-0.2c-0.1-0.1-0.2-0.2-0.2-0.3c0-0.1,0-0.2,0.1-0.3
				c0-0.1,0.1-0.1,0.2-0.1C-2194.9-1121.3-2194.8-1121.3-2194.8-1121.3L-2194.8-1121.3z M-2196.4-1119.9
				C-2196.4-1119.9-2196.4-1119.9-2196.4-1119.9c-0.1,0.1-0.5,0.5-0.9,0.9c-0.1,0.1,0,0.2,0.1,0.1c0,0,0.1,0,0.1,0
				c0,0,0.5,0.5,0.5,0.5c0,0,0.1,0.1,0,0.1c0,0-0.2,0.1-0.2,0.2c0,0-0.1,0-0.1,0c-0.1,0-0.1,0-0.1,0c-0.1,0.1-0.1,0.1,0,0.1
				c0,0,0.4,0.4,0.4,0.4c0,0,0.2-0.1,0.2-0.1c0,0,0-0.1,0-0.1c0-0.1,0.1-0.2,0.2-0.3c0,0,0.1,0,0.1,0c0,0,0.4,0.3,0.4,0.4
				c0,0.1,0.1,0.1,0,0.1c0,0-0.3,0.3-0.4,0.4c0,0-0.2,0.1-0.3,0.2c0,0-0.1,0-0.2,0.1c-0.1,0-0.2,0-0.4,0c-0.2,0-0.2,0-0.2,0
				c-0.1,0-0.1,0.1,0,0.1c0,0,0.6,0.2,0.6,0.2c0,0,0.1,0,0.1,0c0.1,0,0.1,0,0.1,0c0,0,0.7-0.7,0.7-0.7c0,0,0.9-1,1-1
				c0.1-0.1,0.1-0.2,0-0.2c0,0-0.1,0-0.2,0c0,0-1.3-1.3-1.4-1.3c0,0,0,0,0-0.1C-2196.4-1119.8-2196.4-1119.8-2196.4-1119.9
				C-2196.3-1119.9-2196.3-1119.9-2196.4-1119.9L-2196.4-1119.9z M-2220.9-1119.1c-0.1,0-0.1,0.1,0,0.1c0.1,0,0,0.1,0,0.2
				c0,0-1.2,1.3-1.2,1.4c0,0,0,0,0,0s-0.4-0.4-0.5-0.4c0,0,0-0.1,0-0.2c0-0.1,0.1-0.3,0.1-0.3c0,0,0-0.1,0-0.1c0,0-0.1-0.1-0.1-0.1
				c0,0-0.3,0.6-0.3,0.7c0,0,2.2,2,2.3,2c0,0,0.5-0.3,0.5-0.4c0,0,0.1,0,0.1-0.1c0,0-0.1-0.1-0.1-0.1c0,0-0.2,0.1-0.3,0.1
				c-0.1,0-0.2,0.1-0.2,0.1c-0.1,0-0.5-0.4-0.5-0.4l1.2-1.4c0,0,0.1-0.1,0.1,0c0,0,0.1,0,0.1-0.1
				C-2219.9-1118.3-2220.8-1119.1-2220.9-1119.1C-2220.9-1119.1-2220.9-1119.1-2220.9-1119.1L-2220.9-1119.1z M-2219.5-1117.9
				c0,0,0,0.1,0,0.1c0,0,0,0,0,0.2c0,0.5-0.1,1.6-0.2,2.1c0,0.1,0,0.2,0,0.2l0.4,0.3c0.2,0.1,0.3,0.2,0.4,0.2c0.1,0,1.6-1,1.7-1
				c0.1,0,0.5-0.2,0.5-0.2c0,0,0.1,0,0.1,0c0,0,0-0.1,0-0.1c0,0-0.6-0.4-0.7-0.4c0,0,0,0.1,0,0.1c0,0,0,0.1-0.1,0.2
				c0,0-0.3,0.2-0.3,0.2c0,0-0.1,0-0.1,0l-0.6-0.4c-0.1-0.1-0.1-0.1-0.1-0.1c0,0,0-0.3,0.1-0.4c0-0.1,0.1-0.1,0.1-0.1
				c0.1,0,0.1,0,0.1-0.1c0,0,0,0,0-0.1l0,0C-2218.3-1117.1-2219.5-1117.9-2219.5-1117.9L-2219.5-1117.9z M-2200.1-1116.8
				C-2200.1-1116.8-2200.1-1116.8-2200.1-1116.8c0,0-1.1,0.6-1.2,0.6c-0.1,0.1,0,0.2,0,0.1c0.1,0,0.1,0,0.1,0.1c0,0,0.9,1.5,0.9,1.6
				c0,0,0,0.1,0,0.1s-0.5,0.3-0.6,0.3c0,0-0.1,0-0.2-0.1c-0.1-0.1-0.2-0.2-0.2-0.2c0,0-0.1,0-0.1,0c0,0-0.1,0.1-0.1,0.1
				c0,0,0.5,0.5,0.5,0.5c0,0,2.6-1.4,2.6-1.5c0,0-0.1-0.6-0.1-0.6c0,0,0-0.1,0-0.1c0,0-0.1,0-0.1,0.1c0,0,0,0.2,0,0.3
				c0,0.1,0,0.2,0,0.2c-0.1,0.1-0.6,0.3-0.6,0.3l-0.9-1.6c0,0,0-0.1,0-0.1C-2200-1116.8-2200-1116.8-2200.1-1116.8L-2200.1-1116.8z
				 M-2218.6-1116.2c0,0,0.7,0.4,0.6,0.4c0,0-0.8,0.5-0.8,0.5S-2218.6-1116.2-2218.6-1116.2L-2218.6-1116.2z M-2216-1115.8
				c-0.1,0-0.1,0.1,0,0.1c0.1,0,0,0.1,0,0.2c0,0-0.7,1.6-0.7,1.7c0,0,0,0,0,0s-0.5-0.2-0.6-0.3c0,0-0.1-0.1-0.1-0.2
				c0-0.1,0-0.3,0-0.3c0,0,0-0.1,0-0.1c0,0-0.1-0.1-0.2,0c0,0-0.1,0.7-0.1,0.7c0,0,2.7,1.1,2.8,1.1c0,0,0.4-0.5,0.4-0.5
				c0,0,0,0,0-0.1c0,0-0.1-0.1-0.1-0.1c0,0-0.1,0.1-0.2,0.2c-0.1,0.1-0.1,0.1-0.2,0.1c-0.1,0-0.6-0.3-0.6-0.3l0.7-1.7
				c0,0,0.1-0.1,0.1-0.1c0.1,0,0.1-0.1,0.1-0.1C-2214.7-1115.3-2215.9-1115.8-2216-1115.8C-2215.9-1115.8-2215.9-1115.8-2216-1115.8
				L-2216-1115.8z M-2202.2-1115.6C-2202.2-1115.6-2202.2-1115.6-2202.2-1115.6c-0.1,0-1.3,0.4-1.3,0.4c-0.1,0,0,0.1,0,0.1
				c0,0,0.1,0,0.1,0.1c0,0,0.3,0.7,0.3,0.7c0,0.1,0,0.1-0.1,0.1c0,0-0.8,0.2-0.8,0.2c0,0,0,0-0.1-0.1c0,0-0.2-0.7-0.2-0.8
				c0,0,0-0.1,0-0.1c0.1,0,0.1-0.2,0-0.1c0,0-1.2,0.3-1.3,0.3c-0.1,0-0.1,0.1,0,0.1c0.1,0,0.1,0.1,0.1,0.2c0,0,0.5,1.7,0.5,1.8
				c0,0.1,0.1,0.1,0,0.2c-0.1,0-0.1,0.1,0.1,0.1l1.4-0.4c0.1,0,0.1-0.1,0-0.1c-0.1,0-0.1,0-0.1-0.1c0-0.1-0.2-0.6-0.2-0.6
				c0-0.1,0-0.1,0.1-0.1c0,0,0.7-0.2,0.8-0.2c0,0,0.1,0,0.1,0l0.2,0.7c0,0.1,0,0.1-0.1,0.1c-0.1,0-0.1,0.1,0.1,0.1
				c0,0,0.4-0.1,0.7-0.2c0.3-0.1,0.6-0.2,0.6-0.2c0.1,0,0.1-0.2,0-0.1c-0.1,0-0.1,0-0.1,0c0,0-0.8-1.8-0.8-1.8c0-0.1,0-0.1,0-0.1
				C-2202.2-1115.5-2202.2-1115.6-2202.2-1115.6L-2202.2-1115.6z M-2213-1114.9c0,0-0.1,0-0.1,0c-0.2,0-0.4,0-0.5,0.1
				c-0.1,0.1-0.2,0.2-0.3,0.3c-0.1,0.1-0.1,0.2-0.1,0.4c0,0.1,0,0.2,0,0.3c0,0.1,0.1,0.2,0.2,0.3c0.2,0.1,0.3,0.2,0.5,0.3
				c0.1,0.1,0.2,0.1,0.3,0.2c0.1,0,0.2,0.1,0.3,0.1c0,0,0.1,0.1,0.1,0.1c0,0,0,0.1,0,0.1c-0.1,0.1-0.2,0.1-0.3,0
				c-0.2,0-0.4-0.1-0.6-0.2c-0.1,0-0.2-0.1-0.2-0.2c-0.1-0.1-0.1-0.1-0.2-0.2c0,0-0.1-0.1-0.1-0.1c0-0.1-0.2-0.1-0.2,0
				c0,0,0,0.5,0,0.5c0,0.1,0,0.1,0.2,0.2c0.1,0,0.3,0.1,0.5,0.1c0.2,0,0.3,0.1,0.5,0.1c0.2,0,0.3,0.1,0.5,0.1c0.1,0,0.2,0,0.3,0
				c0.2,0,0.5,0,0.7-0.1c0.1-0.1,0.2-0.2,0.2-0.3c0.1-0.1,0.1-0.2,0.1-0.4c0-0.1-0.1-0.2-0.1-0.3c0-0.1-0.1-0.1-0.2-0.2
				c-0.1-0.1-0.2-0.2-0.3-0.2c-0.2-0.1-0.3-0.2-0.6-0.3c-0.1-0.1-0.3-0.2-0.2-0.3c0-0.1,0.2-0.1,0.2-0.1c0.3,0,0.5,0.2,0.8,0.3
				c0.1,0.1,0.1,0.1,0.2,0.2c0.1,0.1,0.1,0.2,0.2,0.3c0,0.1,0,0.1,0.2,0.1c0,0,0.1,0,0.1-0.1c0,0,0-0.7,0-0.7c0,0-0.3-0.2-0.4-0.2
				c-0.1-0.1-0.3-0.1-0.4-0.2c-0.2-0.1-0.4-0.1-0.6-0.1C-2212.7-1114.9-2212.9-1114.9-2213-1114.9L-2213-1114.9z M-2206.1-1114.6
				c0,0-2.4,0.3-2.4,0.3c0,0,0,0,0,0.1c0,0-0.2,0.5-0.2,0.6c0,0,0,0,0.1,0c0,0,0.1,0,0.2-0.1c0.1-0.1,0.2-0.1,0.3-0.2
				c0.3-0.1,0.6-0.1,0.9-0.1c0,0,0.1,0,0.1,0c0,0,0.1,0.6,0.1,0.6c0,0,0,0.1-0.1,0.1c0,0-0.2,0-0.3,0c0,0-0.1,0-0.1-0.1
				c-0.1-0.1-0.1-0.1-0.1-0.1c-0.1,0-0.1,0-0.1,0.1c0,0,0.1,0.6,0.1,0.6c0,0,0.2,0,0.2,0c0,0,0-0.1,0.1-0.1c0.1-0.1,0.3-0.1,0.3-0.1
				c0.1,0,0.1,0,0.1,0.1c0,0,0.1,0.5,0.1,0.6c0,0.1,0,0.1-0.1,0.1c-0.1,0-0.4,0-0.6,0c0,0-0.2,0-0.3-0.1c-0.1,0-0.1,0-0.2-0.1
				c-0.1-0.1-0.2-0.1-0.3-0.2c-0.1-0.1-0.1-0.1-0.2-0.1c-0.1,0-0.1,0-0.1,0.1c0,0,0.3,0.5,0.3,0.6s0.1,0.1,0.1,0.1c0,0,0.1,0,0.1,0
				c0.1,0,1-0.1,1-0.1c0,0,1.3-0.1,1.4-0.2c0.2,0,0.2-0.1,0.1-0.1c0,0-0.1-0.1-0.1-0.1c0,0-0.2-1.9-0.2-1.9c0,0,0,0,0-0.1
				c0,0,0,0,0.1,0C-2205.9-1114.5-2206-1114.6-2206.1-1114.6L-2206.1-1114.6z"/>
		</g>
	</g>
	<g>
		<g>
			<path fill-rule="evenodd" clip-rule="evenodd" fill="#002868" d="M-2215.1-1127.2L-2215.1-1127.2l0,0.2l-0.1,0.1c0,0,0,0-0.1,0
				c-0.1-0.1-0.1-0.2,0-0.3c0.1-0.1,0.3-0.1,0.4,0c0,0,0.1,0.1,0.1,0.1l0.1-0.1c0,0-0.1-0.1-0.1-0.1c-0.2-0.1-0.4-0.2-0.5,0
				c-0.1,0.1-0.1,0.2-0.1,0.3c0,0.1,0,0.2,0.1,0.2c0.1,0.1,0.1,0.1,0.2,0.1l0.3-0.3L-2215.1-1127.2z M-2215-1126.5l0.1,0.1l0.2-0.2
				l0,0c0,0,0,0.1,0,0.2c-0.1,0.1-0.1,0.1-0.1,0.2l0.1,0.1c0,0,0.1-0.1,0.1-0.2c0-0.1,0.1-0.1,0-0.2l0,0c0.1,0,0.2,0,0.2,0
				c0.1-0.1,0-0.3,0-0.4c-0.1-0.1-0.1-0.1-0.1-0.1L-2215-1126.5z M-2214.4-1126.9C-2214.4-1126.9-2214.4-1126.9-2214.4-1126.9
				c0.1,0.1,0.1,0.1,0.1,0.2c-0.1,0-0.1,0-0.2,0l0,0L-2214.4-1126.9z M-2213.9-1126.4l-0.7,0.3l0.1,0.1l0.2-0.1l0.1,0.2l-0.1,0.2
				l0.1,0.1l0.4-0.6L-2213.9-1126.4z M-2214-1126.2l0.1-0.1l0,0L-2214-1126.2l-0.1,0.2l-0.1-0.1L-2214-1126.2z M-2214-1125.4
				l0.5-0.5l-0.1-0.1l-0.5,0.5L-2214-1125.4z M-2213-1125.4l-0.2,0.2l-0.2,0.2l0,0c0-0.1,0.1-0.2,0.1-0.3l0.1-0.3l-0.1-0.1l-0.5,0.5
				l0.1,0.1l0.2-0.2l0.2-0.2l0,0c0,0.1-0.1,0.2-0.1,0.3l-0.1,0.3l0.1,0.1L-2213-1125.4L-2213-1125.4z"/>
		</g>
		<g>
			<path fill-rule="evenodd" clip-rule="evenodd" fill="#002868" d="M-2216.7-1135.6l0.3-0.5l-0.1-0.1l-0.4,0.6l0.3,0.2l0.1-0.1
				L-2216.7-1135.6z M-2216.2-1135.1l0.4-0.6l-0.1-0.1l-0.4,0.6L-2216.2-1135.1z M-2215.6-1135.2l-0.2,0.2l0,0
				c0-0.1,0.1-0.2,0.1-0.3l0.1-0.3l-0.1-0.1l-0.3,0.7l0.1,0.1l0.6-0.5l-0.1-0.1L-2215.6-1135.2z M-2215.3-1134.6l0.1-0.2l0.2,0.1
				l0.1-0.1l-0.2-0.1l0.1-0.1l0.2,0.2l0.1-0.1l-0.3-0.2l-0.5,0.6l0.3,0.3l0.1-0.1L-2215.3-1134.6z M-2215-1134.3
				c0,0,0.1,0.1,0.1,0.1c0.1,0.1,0.3,0.1,0.4,0c0.1-0.1,0.1-0.2,0-0.3c0-0.1-0.1-0.1,0-0.2c0,0,0.1,0,0.1,0c0,0,0.1,0.1,0.1,0.1
				l0.1-0.1c0,0-0.1-0.1-0.1-0.1c-0.1-0.1-0.3-0.1-0.3,0c-0.1,0.1,0,0.2,0,0.3c0,0.1,0.1,0.1,0,0.2c0,0-0.1,0-0.2,0
				C-2214.9-1134.3-2214.9-1134.3-2215-1134.3L-2215-1134.3z M-2214.1-1134.5l-0.1,0.1l0.1,0.1l-0.4,0.5l0.1,0.1l0.4-0.5l0.2,0.1
				l0.1-0.1L-2214.1-1134.5z M-2213.3-1133.9c-0.2-0.1-0.4-0.1-0.5,0.1c-0.1,0.2-0.1,0.4,0,0.5c0.1,0.1,0.3,0.1,0.5-0.1
				C-2213.2-1133.6-2213.2-1133.8-2213.3-1133.9L-2213.3-1133.9z M-2213.4-1133.8c0.1,0.1,0.1,0.2,0,0.3c-0.1,0.1-0.2,0.2-0.3,0.1
				c-0.1-0.1-0.1-0.2,0-0.3C-2213.6-1133.8-2213.5-1133.9-2213.4-1133.8z M-2212.6-1133.3c0,0,0-0.1-0.1-0.1
				c-0.2-0.1-0.4-0.1-0.5,0.1c-0.1,0.2-0.1,0.4,0.1,0.5c0.1,0,0.1,0.1,0.2,0.1l0-0.1c0,0-0.1,0-0.1-0.1c-0.1-0.1-0.1-0.2,0-0.3
				c0.1-0.1,0.2-0.2,0.3-0.1C-2212.7-1133.3-2212.7-1133.3-2212.6-1133.3L-2212.6-1133.3z M-2212-1133l-0.1-0.1l-0.3,0.1l-0.1,0l0,0
				l0.2-0.3l-0.1-0.1l-0.4,0.6l0.1,0.1l0.1-0.2l0.1,0l0,0.4l0.1,0.1l0-0.5L-2212-1133z"/>
		</g>
	</g>
	<g>
		<path fill-rule="evenodd" clip-rule="evenodd" fill="#FEFEFE" d="M-2212.3-1131.4l-0.1-0.8l-0.1-0.8c0-0.1-0.1-0.4-0.1-0.7
			l-0.1-0.4c-0.1-0.4,0.2,0.1,0.2,0.2c0,0.1,0.3,1.5,0.3,1.8"/>
	</g>
	<g>
		<g>
			<path fill-rule="evenodd" clip-rule="evenodd" fill="#002868" d="M-2205.6-1135.5l0,0.3l0,0.3l0,0l-0.2-0.2l-0.2-0.2l-0.2,0.1
				l0.2,0.7l0.1-0.1l-0.1-0.3l-0.1-0.3l0,0l0.2,0.2l0.2,0.2l0.1,0l0-0.3l0-0.3l0,0l0.1,0.3l0.1,0.3l0.1-0.1l-0.3-0.7L-2205.6-1135.5
				z M-2204.7-1135l-0.3-0.7l-0.1,0.1l0.3,0.7L-2204.7-1135z M-2204.3-1136l0.1,0.2l0.1,0.3l0,0c-0.1-0.1-0.1-0.1-0.2-0.2l-0.3-0.2
				l-0.1,0.1l0.3,0.7l0.1,0l-0.1-0.2l-0.1-0.3l0,0c0.1,0.1,0.1,0.1,0.2,0.2l0.3,0.2l0.1-0.1l-0.3-0.7L-2204.3-1136z M-2203.6-1135.6
				l-0.1-0.2l0.2-0.1l0-0.1l-0.2,0.1l-0.1-0.2l0.2-0.1l0-0.1l-0.4,0.2l0.3,0.7l0.4-0.2l0-0.1L-2203.6-1135.6z M-2203.1-1135.7
				c0,0,0.1,0,0.2,0c0.2-0.1,0.2-0.2,0.2-0.3c0-0.1-0.1-0.1-0.2-0.1c-0.1,0-0.1,0-0.2-0.1c0,0,0-0.1,0.1-0.1c0,0,0.1,0,0.1,0l0-0.1
				c0,0-0.1,0-0.2,0c-0.2,0.1-0.2,0.2-0.2,0.3c0,0.1,0.1,0.1,0.3,0.1c0.1,0,0.1,0,0.2,0.1c0,0.1,0,0.1-0.1,0.1c-0.1,0-0.1,0-0.2,0
				L-2203.1-1135.7z"/>
		</g>
		<g>
			<path fill="#002868" d="M-2205.3-1126.7c-0.1,0-0.2,0-0.3-0.1c-0.1-0.1-0.2-0.2-0.2-0.2c0-0.1,0-0.2,0.1-0.3l0,0
				c0.1-0.1,0.1-0.1,0.2-0.1c0,0,0,0,0,0c0.1,0,0.2,0,0.3,0.1c0.1,0.1,0.2,0.2,0.2,0.3c0,0.1,0,0.2-0.1,0.3
				C-2205.1-1126.8-2205.2-1126.7-2205.3-1126.7C-2205.3-1126.7-2205.3-1126.7-2205.3-1126.7z M-2205.6-1127.2
				c-0.1,0.1,0,0.2,0.1,0.3c0.1,0,0.1,0.1,0.2,0.1c0.1,0,0.1,0,0.1,0c0,0,0-0.1,0-0.1c0,0-0.1-0.1-0.1-0.1c-0.1,0-0.1-0.1-0.2-0.1
				C-2205.5-1127.3-2205.5-1127.3-2205.6-1127.2L-2205.6-1127.2z M-2204.7-1127.3C-2204.7-1127.3-2204.7-1127.3-2204.7-1127.3
				l-0.6-0.4c0,0,0,0,0,0c0,0,0,0,0,0l0.1-0.1c0,0,0,0,0,0l0.6,0.4c0,0,0,0,0,0c0,0,0,0,0,0L-2204.7-1127.3
				C-2204.7-1127.3-2204.7-1127.3-2204.7-1127.3z M-2204.5-1127.6C-2204.5-1127.6-2204.5-1127.6-2204.5-1127.6l-0.6-0.4c0,0,0,0,0,0
				l0.1-0.1c0,0,0,0,0,0c0,0,0,0,0,0l0.5,0.4l0.1-0.2c0,0,0,0,0,0c0,0,0,0,0,0l0.1,0.1c0,0,0,0,0,0L-2204.5-1127.6
				C-2204.5-1127.6-2204.5-1127.6-2204.5-1127.6C-2204.5-1127.6-2204.5-1127.6-2204.5-1127.6z"/>
		</g>
	</g>
</g>
</svg>
