<?xml version="1.0" encoding="utf-8"?>
<!-- Generator: Adobe Illustrator 23.0.0, SVG Export Plug-In . SVG Version: 6.00 Build 0)  -->
<svg version="1.0" id="Layer_1" xmlns="http://www.w3.org/2000/svg" xmlns:xlink="http://www.w3.org/1999/xlink" x="0px" y="0px"
	 viewBox="0 0 50 50" enable-background="new 0 0 50 50" xml:space="preserve">
<path fill="#FFFFFF" d="M43.1,25c-1.7-1.4-3.5-1.4-4.7-0.2c-1,0.9-2,1.8-3.1,2.8c-0.2-0.8-0.3-1.5-0.5-2.3c-0.3-1.5-0.5-2.9-0.6-4.8
	c-0.1-0.4,0.2-0.8,0.6-0.9c0.1,0,0.1,0,0.2,0h1.4c1.5,0.1,2.7-1,2.9-2.5c0-0.1,0-0.1,0-0.2v-1c-0.1-0.9-0.6-1.7-1.4-2.1
	c-5.3-3-6.7-4.3-11.4-8.3c-0.7-0.7-1.8-0.7-2.5,0c0,0,0,0,0,0c-4.7,4-6,5.3-11.4,8.3c-0.9,0.3-1.6,1.2-1.6,2.1v1
	c0,1.5,1.1,2.7,2.6,2.7c0.1,0,0.2,0,0.2,0h1.4c0.6,0,1,0.4,0.9,0.7c-0.2,2.6-0.6,5.2-1.2,7.8c-0.1,0.6-0.3,1.3-0.4,2
	c-1.5,0-2.9,0.1-4.4,0c-0.6,0-0.9,0.2-1,0.9c-1.1,4.7-2.3,8.5-3.5,13c-0.2,0.7,0,0.9,0.8,0.9C8,45,9.8,45,11.5,45
	c1.5,0,1.5,0,1.8-1.2H14c5.7,0,11.4-0.4,17.1-0.6c2.1,0.1,4.1-0.9,5.3-2.7c1.3-1.8,2.5-3.6,3.6-5.2c1.6-2.4,3.1-4.1,4.4-6.2
	C45,28,44.4,26.2,43.1,25z M16,31c0,0,0.3-1.8,0.4-2.4c0.5-2.6,0.9-5.3,1.1-7.9c0.1-1.4-1-2.4-2.6-2.4h-1.4c-0.5,0-0.9-0.4-1-0.9v-1
	c0-0.3,0.2-0.6,0.4-0.7c5.4-3,6.7-4.3,11.3-8.1c0.2-0.2,0.4-0.2,0.6,0c4.6,3.7,5.9,5,11.3,8c0.6,0.4,1,1,1.1,1.7
	c0,0.6-0.4,0.9-1,0.9h-1.4c-1.3-0.1-2.5,0.9-2.6,2.2c0,0.1,0,0.2,0,0.4c0.2,2.4,0.4,4.1,0.8,6.1c0.1,0.7,0.3,1.5,0.4,2.4l-1.5,1.4
	l0,0h-0.1c-0.5-0.3-1-0.5-1.6-0.5c-0.1-0.8-0.2-1.5-0.3-2.1c-0.2-1.7-0.3-3-0.5-5c-1.7,0-2.6-0.1-4.3-0.1v7.4h-0.5
	c-1.4-0.5-2.8-0.6-4.2-0.5c-1,0.1-2,0.3-3,0.6c-0.7,0.2-1.3,0.5-1.9,0.8C15.6,31.1,15.8,31.1,16,31z M11.7,43.7c-1.5,0-3,0-4.6-0.1
	c1-3.8,2-7.3,3-11.8c1.3,0.1,2.6,0.1,3.9,0c-0.1,0.5-0.1,0.9-0.2,1.4l0,0C13.1,37.3,12.4,40.5,11.7,43.7z M43.1,28
	c-2,3.3-4.5,6.5-7.5,10.7c-0.3,0.3-0.5,0.7-0.8,1c-0.9,1.1-2.2,1.7-3.6,1.8c-5.8,0.3-11.6,1-17.5,1h-0.3c0-0.1,0.1-0.3,0.1-0.4
	c0.5-2.6,1-5.3,1.5-8.7c0-0.1,0-0.2,0.1-0.3c0.1-0.2,0.2-0.3,0.4-0.4c3.2-1.6,6-2,8.9-1c0.3,0.1,0.7,0.1,1,0.1
	c1.2-0.2,2.4-0.4,3.6-0.6c1.4-0.2,2.8,0.5,3.3,1.9c0.1,0.3,0.2,0.5,0.3,0.8c0.2,0.8-0.1,1.2-0.9,1.3c-2.6,0.3-5.2,0.7-7.8,1.2
	l-0.4,0.1c-0.4,0.1-0.7,0.4-0.7,0.8c0,0.3,0.2,0.6,0.5,0.6c0.1,0,0.1,0,0.2,0c0.2,0,0.5-0.1,0.7-0.1c2.5-0.5,5.1-0.9,7.7-1.1
	c1.6-0.1,2.4-1.3,2.1-3c0-0.2-0.1-0.3-0.1-0.5c-0.2-0.7-0.6-1.3-1-1.9c0.9-0.9,1.8-1.6,2.6-2.4l1.2-1.1c0.9-0.8,1.8-1.5,2.6-2.3
	c0.9-0.8,2.3-0.7,3.1,0.1C43.2,26.6,43.5,27.4,43.1,28z"/>
</svg>
