<?xml version="1.0" encoding="utf-8"?>
<!-- Generator: Adobe Illustrator 23.0.0, SVG Export Plug-In . SVG Version: 6.00 Build 0)  -->
<svg version="1.0" id="Layer_1" xmlns="http://www.w3.org/2000/svg" xmlns:xlink="http://www.w3.org/1999/xlink" x="0px" y="0px"
	 width="50px" height="50px" viewBox="0 0 50 50" enable-background="new 0 0 50 50" xml:space="preserve">
<path fill="#FFFFFF" d="M38.2,30.9c0.5,0,0.9-0.2,1-0.6s-0.3-0.7-0.9-0.7c-1.1-0.1-2.2-0.1-3.3-0.2c-0.3,0-0.5-0.1-0.6-0.3
	c-0.2-0.5-4.6-9.5-5.1-10.5c-0.1-0.2-0.1-0.3,0-0.5c0.5-1.7,0-3.5-1.4-4.5c-0.2-0.1-0.3-0.3-0.3-0.5c0-1.6,0.1-3.1,0.1-4.6
	c0-0.6-0.3-0.9-1-0.9h-3.7c-0.7,0-1,0.3-1,0.9c0,1.5,0.1,3.1,0.1,4.5c0,0.2-0.1,0.3-0.3,0.5c-1.3,1-1.9,2.9-1.4,4.5
	c0.1,0.2,0,0.3,0,0.5c-1.7,3.6-3.5,7.1-5.1,10.6c-0.1,0.2-0.3,0.3-0.4,0.3c-1.2,0-2.4,0.1-3.6,0.2c-0.3,0-0.7,0.3-0.7,0.7
	c0,0,0,0,0,0.1c0.1,0.3,0.4,0.7,0.8,0.6l0,0l2.8-0.2h0.3c-0.1,0.2-0.1,0.3-0.2,0.3c-0.7,1.5-1.3,3-1.8,4.5c-0.3,0.5-0.3,1.2,0,1.7
	c0.3,0.4,0.5,0.9,0.9,1.3c-0.3,0.9-0.6,1.8-0.8,2.8c-0.2,0.6,0,0.8,0.5,1.1l0.3-0.1c0.2-0.2,0.3-0.4,0.3-0.6
	c0.3-0.9,0.5-1.7,0.8-2.6c0.1-0.2,0.1-0.3,0.3-0.3c1,0,2-0.6,2.4-1.6c0.9-2.2,1.9-4.3,3-6.5c0.1-0.2,0.3-0.3,0.5-0.3
	c1,0,2.2,0,3.2,0c0,0.3,0,0.7,0,1c0,0.3,0.3,0.7,0.7,0.7s0.7-0.3,0.7-0.7l0,0c0-0.3,0-0.7,0-1c0.9,0,1.7,0,2.5,0
	c0.3,0,0.8-0.1,1,0.1c0.3,0.2,0.3,0.6,0.4,0.9c0.7,1.4,1.3,2.7,1.9,4.1c0.2,0.3,0.4,0.7,0.6,1.1c-0.4,0.4-0.6,1.1-0.5,1.7
	c0.1,0.4,0.3,0.9,0.6,1.1c0.8,0.7,1.7,0.7,2.9,0c0.3,0.7,0.4,1.5,0.7,2.2c0.1,0.2,0.2,0.4,0.3,0.6l0.3,0.1c0.5-0.3,0.7-0.5,0.5-1.1
	c-0.3-1.5-0.9-2.9-1.4-4.3c-0.1-0.1-0.1-0.3,0.1-0.4c0.9-0.7,1.2-1.8,0.7-2.9c-0.3-0.9-0.8-1.7-1.1-2.7c-0.1-0.1-0.1-0.3-0.2-0.3
	C36.2,30.8,37.2,30.8,38.2,30.9z M25.6,29.1c0-0.3,0-0.4,0-0.7c0-0.8-0.2-1.1-0.7-1.1c-0.5,0-0.7,0.3-0.7,1.1c0,0.3,0,0.4,0,0.7
	c-1,0-1.9,0-3,0c1.1-2.4,2.4-4.8,3.7-7.2c1.3,2.4,2.4,4.9,3.7,7.2C27.6,29.1,26.6,29.1,25.6,29.1L25.6,29.1z"/>
</svg>
