<?xml version="1.0" encoding="utf-8"?>
<!-- Generator: Adobe Illustrator 23.0.0, SVG Export Plug-In . SVG Version: 6.00 Build 0)  -->
<svg version="1.0" id="Layer_1" xmlns="http://www.w3.org/2000/svg" xmlns:xlink="http://www.w3.org/1999/xlink" x="0px" y="0px"
	 width="50px" height="50px" viewBox="0 0 50 50" enable-background="new 0 0 50 50" xml:space="preserve">
<g>
	<path fill="#FFFFFF" d="M35.1,42.5c-0.4,0-0.7,0-1.1-0.1c-2.3-0.3-4.2-2-4.8-4.3c-0.3-1-0.3-2,0-2.9c0-0.1,0-0.2-0.1-0.2
		c-0.4-0.3-0.9-0.6-1.3-0.9c-0.2-0.1-0.3-0.3-0.3-0.5c-0.1-0.2-0.1-0.5-0.2-0.7c-0.1-0.5-0.5-0.7-0.9-0.6c-0.2,0-0.4,0.1-0.6,0.1
		c-0.6,0-1.1-0.5-1.2-1.2c0-0.2,0-0.3,0-0.5c-0.1-0.3-0.4-0.5-0.7-0.6c-0.3,0-0.5,0-0.8,0c-0.2,0-0.4-0.1-0.6-0.2
		c-0.3-0.2-0.6-0.5-0.6-0.9c-0.1-0.3-0.1-0.6-0.1-0.9c0-0.3-0.1-0.6-0.1-1c0-0.4,0.2-0.7,0.6-0.8c0.5-0.1,1.1-0.2,1.6-0.3
		c0.4-0.1,0.7,0,1.1,0.2c2.3,1.6,4.5,3.3,6.6,5.2c0.1,0.1,0.2,0.1,0.4,0c3.2-1.7,7.2-0.1,8.3,3.4c0.1,0.2,0.1,0.4,0.2,0.6
		c0,0.3,0.1,0.6,0.1,0.9c0,0,0,0.1,0,0.1c0.1,2.5-1.4,4.7-3.7,5.6c-0.3,0.1-0.6,0.2-0.9,0.3C35.6,42.4,35.4,42.5,35.1,42.5z
		 M34.8,38.1c0.1,0.9,0.9,1.5,1.8,1.4c0.9-0.1,1.5-0.9,1.4-1.8c-0.1-0.9-0.9-1.5-1.8-1.4C35.3,36.5,34.7,37.3,34.8,38.1z"/>
</g>
<g>
	<g>
		<g>
			<path fill="#FFFFFF" d="M21.1,31.5c-0.4-0.3-1.1-1-1.3-2.1c-0.1-0.3-0.1-0.6-0.1-0.9l0-0.2c0-0.3-0.1-0.7-0.1-1
				c-0.1-1.4,0.9-2.7,2.3-2.9c0.5-0.1,0.9-0.2,1.4-0.3l0.3,0c0.2,0,0.4-0.1,0.6-0.1c0.7,0,1.4,0.2,2,0.6c2.1,1.5,4.1,3,6,4.6
				c0.8-0.3,1.7-0.4,2.6-0.4c0.6,0,1.2,0.1,1.8,0.2c0.1-2,0.2-3.9,0.2-5.5c0-0.1,0-0.3,0-0.4c0.1,0,0.2,0,0.3,0c0.6,0,1.1,0,1.8,0
				c0.8,0,1.3-0.3,1.7-0.9c0.3-0.6,0.1-1.2-0.4-1.8C35.6,16.2,31,12,26.3,8c-0.8-0.6-1.7-0.6-2.5,0C19,12,14.4,16.1,10,20.4
				c-0.3,0.2-0.4,0.6-0.6,0.9c0,0.2,0,0.4,0,0.6c0.1,0.2,0.2,0.4,0.4,0.7c0.3,0.5,0.8,0.6,1.4,0.6c0.7-0.1,1.3-0.1,2.1-0.1
				c0,0.2,0,0.3,0,0.4c0.1,3.9,0.4,9.9,0.5,13.9c0.1,0.7,0.4,1,1.1,1c2.3-0.1,4.6-0.1,6.8-0.1c0.7,0,1-0.3,1-1.1c0-1.6,0-3.2,0-4.7
				c0-0.1-0.1-0.2-0.1-0.3C22.1,32.2,21.6,31.9,21.1,31.5z"/>
		</g>
	</g>
</g>
</svg>
