<?xml version="1.0" encoding="utf-8"?>
<!-- Generator: Adobe Illustrator 23.0.0, SVG Export Plug-In . SVG Version: 6.00 Build 0)  -->
<svg version="1.0" id="Layer_1" xmlns="http://www.w3.org/2000/svg" xmlns:xlink="http://www.w3.org/1999/xlink" x="0px" y="0px"
	 width="50px" height="50px" viewBox="0 0 50 50" enable-background="new 0 0 50 50" xml:space="preserve">
<g>
	<path fill="#FFFFFF" d="M21.8,12.3c0.9-0.3,1.2-0.4,1.7-0.4c0.4,0,0.9,0,1.7,0.1c-0.1-0.8-0.2-1.6-0.2-2.4c0-0.5-0.1-1-0.4-1.5
		c-0.1-0.1-0.3-0.2-0.4-0.4c0,0-0.1,0-0.1,0c-0.3-0.2-0.6-0.2-0.9-0.2c-0.9,0.1-1.7,0.9-1.6,2.1c0.1,0.7,0.1,1.4,0.2,2.1
		C21.8,11.9,21.8,12.1,21.8,12.3z"/>
	<path fill="#FFFFFF" d="M24.4,21.3c1-0.1,2-0.6,2.6-1.4c1.4-1.6,1.1-4.1-0.5-5.5c-0.8-0.7-1.9-1-2.8-0.9c-1,0.1-1.9,0.6-2.6,1.4
		c-1.4,1.6-1.2,4.1,0.5,5.5C22.4,21.1,23.4,21.4,24.4,21.3z M23.4,16.9c0.2-0.2,0.4-0.3,0.6-0.3c0.2,0,0.5,0,0.6,0.2
		c0.4,0.3,0.4,0.8,0.1,1.2c-0.2,0.2-0.4,0.3-0.6,0.3c-0.2,0-0.4,0-0.6-0.2C23.1,17.8,23.1,17.3,23.4,16.9z"/>
	<path fill="#FFFFFF" d="M35.6,33.6c-0.8-1.4-5.9-10.7-7.2-13c-0.7,1.1-1.6,1.7-2.8,2.1c1.3,2.3,7.7,14,9.2,16.6
		c0.4,0.7,0.8,0.8,1.5,0.4c0.1-0.1,0.2-0.3,0.2-0.4c0-0.4-0.1-0.7-0.3-1c-0.3-0.5-0.5-1-0.8-1.5c0-0.1-0.1-0.2,0-0.3
		C36.1,35.7,36.2,34.7,35.6,33.6z"/>
	<path fill="#FFFFFF" d="M20.4,21.8c-0.5,2.6-2.8,13-3.1,14.6c-0.2,1.1,0.1,2,1,2.7c0.2,0.1,0.2,0.2,0.1,0.4
		c-0.1,0.6-0.3,1.3-0.4,1.9c-0.1,0.4,0,0.7,0.4,0.9c0.3,0.2,0.6,0.2,1,0c0.3-0.2,0.4-0.4,0.4-0.7c0.6-2.9,3.4-16.1,4-18.6
		C22.4,23,21.3,22.6,20.4,21.8z"/>
	<path fill="#FFFFFF" d="M25.1,29.5c-0.3,0-0.6,0-0.9,0c-0.3,0-0.5,0.2-0.5,0.4c-0.1,0.3-0.1,0.6-0.2,0.9c-0.1,0.3,0.2,0.7,0.5,0.7
		c0.4,0,0.8,0,1.3,0c0.8-0.1,1.6-0.2,2.4-0.4c0.3-0.1,0.5-0.5,0.3-0.8l-0.4-0.8c-0.1-0.2-0.4-0.3-0.6-0.3
		C26.4,29.4,25.8,29.5,25.1,29.5z"/>
	<path fill="#FFFFFF" d="M33.4,25.2c-0.2,0.2-0.3,0.3-0.5,0.5c0.3,0.6,0.7,1.2,1,1.8c0.3-0.3,0.7-0.7,1-1.1c0.7-0.8,1.2-1.6,1.7-2.5
		c0.1-0.3,0.1-0.6,0-0.9c0,0,0,0,0,0c-0.4-0.7-1.4-0.7-1.7,0C34.4,23.8,34,24.5,33.4,25.2z"/>
	<path fill="#FFFFFF" d="M17.1,29.8c0.1-0.7,0.3-1.4,0.4-2.1c-0.5-0.3-0.9-0.6-1.4-1c-0.4-0.4-0.8-0.7-1.2-1.1
		c-0.5-0.6-1.5-0.3-1.7,0.5l0,0c-0.1,0.3,0,0.6,0.2,0.9c0.4,0.5,0.9,0.9,1.4,1.3C15.6,28.9,16.4,29.4,17.1,29.8z"/>
</g>
</svg>
