<?xml version="1.0" encoding="utf-8"?>
<!-- Generator: Adobe Illustrator 23.0.0, SVG Export Plug-In . SVG Version: 6.00 Build 0)  -->
<svg version="1.0" id="Layer_1" xmlns="http://www.w3.org/2000/svg" xmlns:xlink="http://www.w3.org/1999/xlink" x="0px" y="0px"
	 viewBox="0 0 50 50" enable-background="new 0 0 50 50" xml:space="preserve">
<path fill="#FFFFFF" d="M12.7,37.5c-0.5,1.2-1.6,2-2.9,2.2c-0.8,0.1-1.6-0.5-1.7-1.3c0-0.2,0-0.5,0.1-0.7c0.5-1.2,1.7-2.1,3-2.2
	c0.9,0,1.6,0.7,1.6,1.6C12.8,37.2,12.8,37.4,12.7,37.5z M28.8,39.9c1.2,0,2.2-0.7,2.6-1.8c0.1-1-0.7-1.9-1.8-2c0,0,0,0,0,0
	c-1.2-0.1-2.3,0.6-2.7,1.8c-0.1,1,0.6,1.9,1.6,2C28.6,39.9,28.7,39.9,28.8,39.9z M45,35.2c0.2,2.1-1.8,4.2-4.5,4.3
	c-1.4,0.1-2.8,0-4.2,0c-0.6,0-0.8-0.4-0.4-0.8c1.4-1.7,4.1-5.5,3.9-7.7c-0.1-0.2-0.1-0.4-0.1-0.7c0-0.6,0-1.3,0-1.9
	c-0.1-0.3,0.2-0.7,0.5-0.7c-0.1-0.7-0.2-1.4-0.4-2.1c-0.7-2.3-2-4.7-2.7-7.2c-0.3-1.1-0.6-2.2-1-3.3C36,15.1,35.9,15,35.7,15
	c-2.1,0.2-4.2,0.2-6.4,0.2l-2.3-0.1c-0.1,0-0.2,0-0.3,0.1c-0.8,0.9-1.6,1.9-2.5,2.8l0.3,0.2c1.5,0.9,2.4,5.1,2.6,6.8
	c0.1,1.6,0.1,3.1,0,4.7c0,0.7-0.1,2.5-0.2,3.2c-0.1,0.5-0.3,0.7-0.8,0.6l-1.7-0.2c0,0.2,0,0.3-0.1,0.6l5.8,0.5
	c2.1,0.2,3.7,1.4,3.8,3.2s-2.3,4.4-4.8,4.5h-1.5c-6.4,0-13.3,0-19.6,0.4C6.4,42.7,5,41.4,5,39.7c0-0.2,0-0.4,0-0.6
	c0.3-2.7,2.8-5.5,5.8-5.5c1.9,0-0.4,0,1.4-0.1h0.4c0.2-0.6,0.2-0.6-0.4-0.6c-1.4,0-2.8,0.1-4.2,0.3c-0.9,0.1-1,0-0.8-0.9
	s0.4-4.5,0.6-5.2c0.2-1.7,1.6-3,3.3-3.1c1.7-0.1,3.4-0.1,5.1-0.1h0.4c0-0.1,0-0.3,0-0.4c0.1-1.2,0.2-3.3,0.2-4.5
	c-0.1-0.9,0.5-1.6,1.3-1.8c0.1,0,0.2-0.1,0.3-0.2c2.1-2,4-4.1,5.7-6.4c0.2-0.3,0.5-0.4,0.8-0.4c3.3,0.1,6.6,0.3,9.9,0.2
	c0.2,0,0.3-0.1,0.3-0.4c0-0.8,0.1-1.5,0.1-2.2c0-0.4,0.1-0.6,0.5-0.5s0.5,0,0.7,0S37,7.5,37.3,8c1.1,1.8,2.2,3.5,3.3,5.2
	c0.4,0.6,0.7,1.1,1.1,1.7c0,0.1,0.1,0.2,0.1,0.3c0.1,0.6,0.2,1.2,0.3,1.8c0.7,3.2,1.6,5.8,1.8,9.6v0.7c0.6,0,0.7,0.4,0.7,0.8
	c0,0.6,0.1,1.3,0.1,1.9c0,0.2,0,0.4-0.2,0.5c-0.2,0.2-0.2,0.3-0.1,0.5C44.6,32.4,44.9,33.8,45,35.2z M13.6,34.7c-1,0-1.9,0-2.9,0.1
	c-2.1,0.1-3.8,1.8-4,3.8c0,1,0.8,1.7,2.2,1.7c3.3,0,6.7-0.1,10,0l5.4,0.1c1.6,0,3.2,0.1,4.7,0.1c2.4,0,4.2-1.9,3.2-3.6
	c-0.5-0.8-1.5-1.3-2.5-1.3C24.5,35.2,19.1,34.7,13.6,34.7L13.6,34.7z M25.9,30.3c0-0.2-0.1-0.3-0.3-0.4c-1.3-0.6-2.6-1.3-4-1.9
	c-1.3-0.5-2.2-1.9-2-3.3c0-1,0.1-4.9,0.1-5.9v-0.4l-0.9-0.1c-0.7,0-0.8,0.1-0.9,0.8c0,1.3-0.1,3.7-0.2,5.1c-0.1,0.7-0.2,0.9-1,0.9
	s-1.6,0-2.3,0h-1.6c-0.8,0-1.6,0.1-2.4,0.1c-0.7,0.1-1.2,0.6-1.3,1.3c-0.1,0.4-0.5,5-0.6,5.4c5.7-0.4,11.4-0.3,17.1,0.5
	C25.8,32,25.9,30.7,25.9,30.3L25.9,30.3z M23.7,19c-0.9-0.2-1.8-0.3-2.8-0.4c0,0.1,0,0.1,0,0.2c0,1.1,0,5.2,0,6.3
	c0,0.8,0.4,1.6,1.1,1.9c1.2,0.6,2.4,1.2,3.6,1.7l0.3,0.1c0.1-1.2,0.1-2.4,0.1-3.5c0-0.2,0-0.4,0-0.6C25.8,23.5,24.8,19.3,23.7,19z
	 M35.5,13.7c-0.2-0.7-0.3-1.3-0.5-1.9h-0.1c-3.2,0-6.3-0.1-9.5-0.3c-0.1,0-0.3,0.1-0.3,0.2c-1.5,1.9-3.1,3.8-4.9,5.5L20,17.4
	l2.7,0.3c0.2,0,0.4,0,0.5-0.2c1-1,1.9-2.1,2.7-3.2c0.2-0.2,0.4-0.4,0.7-0.3c2.7,0.1,5.3,0.1,8-0.1L35.5,13.7z M40.9,25.1
	c0.2,0.8,0.4,1.7,0.5,2.5c0.5,0,0.9-0.1,1.3-0.2c0-1.3-0.1-2.7-0.3-4c-0.5-2.8-1-4.2-1.5-7c-0.1-0.5-0.2-1-0.4-1.5
	c-1.1-2-2.4-4-3.6-6c-0.1-0.1-0.2-0.3-0.3-0.3c-0.1,0-0.2,0.1-0.2,0.2c-0.1,1.1-0.1,2.2-0.2,3.2c0,0.2,0,0.4,0.1,0.6
	c0.6,1.8,1.2,3.5,1.8,5.3C38.8,20.5,40,22.8,40.9,25.1L40.9,25.1z M43.5,33.3c-0.1-0.5-0.3-2.2-0.7-2.4s-0.9,0-1.3,0
	c-0.2,0-0.4,0.1-0.5,0.3c-0.6,2.5-1.7,4.8-3.3,6.8c1,0,2,0,3,0c1.5-0.1,2.4-0.6,2.8-1.8C43.8,35.3,43.7,34.3,43.5,33.3L43.5,33.3z"
	/>
</svg>
