<?xml version="1.0" encoding="utf-8"?>
<!-- Generator: Adobe Illustrator 23.0.0, SVG Export Plug-In . SVG Version: 6.00 Build 0)  -->
<svg version="1.0" id="Layer_1" xmlns="http://www.w3.org/2000/svg" xmlns:xlink="http://www.w3.org/1999/xlink" x="0px" y="0px"
	 width="50px" height="50px" viewBox="0 0 50 50" enable-background="new 0 0 50 50" xml:space="preserve">
<path fill="#FFFFFF" d="M8,28.1c0.2-0.4,0.5-0.7,0.9-0.9c4.7-2.5,9.6-4.9,14.5-7c1-0.4,1.6,0,1.6,1.1c0,1.5,0,3,0,4.6
	c0.1,0,0.3-0.1,0.4-0.1c5-1.8,10.1-3.4,15.1-4.4c0.2,0,0.4-0.1,0.6-0.1c0.5,0,1,0.5,1,1c0,0.1,0,0.2,0,0.3
	c-0.2,4.9-0.5,13.6-0.6,18.6c0,0.9-0.4,1.2-1.2,1.2c-1.5,0-1.7,0-3.3,0c0-0.1,0-0.2,0-0.3c0-0.9,0.1-4.1,0.1-5c0-0.7-0.4-1.1-1-1.1
	c-1.3,0-5.3-0.1-6.6-0.1c-0.6,0-1,0.4-1,1.1c0,1,0,4.4,0,5.4c-0.6,0-17.2,0-18.6,0c-0.6,0-1-0.2-1.3-0.7C8.4,38.5,8.1,31.4,8,28.1z"
	/>
<path fill="#FFFFFF" d="M20.8,8.6c0-0.5-0.5-0.9-1-0.9c-2.1,0.2-4.1,0.4-6.2,0.7c-0.6,0.1-1,0.6-1,1.1c0,1,0.3,9.7,0.3,12H13
	c2.6-1.3,5.1-2.5,7.7-3.7c0.2-0.1,0.2-0.2,0.2-0.4C20.9,16.4,20.8,9.7,20.8,8.6z"/>
</svg>
