<?xml version="1.0" encoding="utf-8"?>
<!-- Generator: Adobe Illustrator 23.0.0, SVG Export Plug-In . SVG Version: 6.00 Build 0)  -->
<svg version="1.0" id="Layer_1" xmlns="http://www.w3.org/2000/svg" xmlns:xlink="http://www.w3.org/1999/xlink" x="0px" y="0px"
	 viewBox="0 0 50 50" enable-background="new 0 0 50 50" xml:space="preserve">
<path fill="#FFFFFF" d="M35.8,21.2c-4.7-2.7-5.9-3.8-10.1-7.3c-0.6-0.6-1.6-0.6-2.3,0c0,0,0,0,0,0c-4.2,3.5-5.3,4.7-10.1,7.3
	c-0.8,0.3-1.4,1-1.4,1.9V24c0,1.3,1,2.4,2.3,2.4c0.1,0,0.2,0,0.2,0h1.3c0.5,0,0.9,0.4,0.8,0.6c-0.4,3.8-1.1,7.6-1.9,11.4
	c6.7-0.6,13.4-0.5,20,0.3c-0.9-4.9-1.7-7.2-2-11.5c-0.1-0.4,0.2-0.7,0.6-0.8c0.1,0,0.1,0,0.2,0h1.2c1.3,0.1,2.4-0.9,2.5-2.2
	c0-0.1,0-0.1,0-0.2v-0.9C36.9,22.3,36.5,21.6,35.8,21.2z M35.3,24.2c0,0.5-0.4,0.8-0.9,0.8h-1.3c-1.2-0.1-2.2,0.8-2.3,2
	c0,0.1,0,0.2,0,0.3c0.3,3.3,0.6,5.1,1.3,8.8c-1.3-0.1-1.8-0.1-3-0.3c-0.4-2.9-0.5-4.2-0.8-6.6c-1.5,0-2.3-0.1-3.8-0.1v6.6
	c-3.2,0-4.7,0-8,0.3c0.6-2.9,1-5.8,1.3-8.7c0.1-1.2-0.9-2.1-2.3-2.1h-1.3c-0.4,0-0.8-0.3-0.9-0.8v-0.9c0-0.3,0.1-0.5,0.4-0.6
	c4.8-2.6,5.9-3.8,10-7.2c0.1-0.1,0.4-0.1,0.5,0c4,3.3,5.2,4.4,10,7.1C34.8,23.1,35.2,23.6,35.3,24.2L35.3,24.2z M14.3,28.3
	c-0.1,0.5-0.1,1-0.2,1.5c-2.1,0-4.3,0.1-7,0.3c0.7-2.9,1.1-5.8,1.5-8.8c0.1-0.2-0.2-0.5-0.6-0.5H7c-1,0.1-1.9-0.6-2-1.6
	c0-0.1,0-0.1,0-0.2v-0.7c0-0.7,0.4-1.3,1.1-1.5c2.8-1.5,5.5-3.5,7.8-5.7c0.5-0.5,1.3-0.5,1.8,0c0,0,0,0,0,0c1.7,1.5,2.8,2.4,4,3.3
	c-0.5,0.4-0.9,0.8-1.3,1.1c-1.1-0.8-2.1-1.7-3.7-3c-0.1-0.1-0.3-0.1-0.4,0c-2.3,2.2-4.9,4.1-7.7,5.6c-0.2,0.1-0.3,0.3-0.3,0.5v0.7
	c0,0.3,0.3,0.6,0.7,0.6h1c0.9-0.1,1.7,0.5,1.8,1.4c0,0.1,0,0.2,0,0.3c-0.2,2.3-0.6,4.5-1,6.8c1.8-0.1,2.9-0.2,4.3-0.2
	C13.3,28.3,13.8,28.4,14.3,28.3L14.3,28.3z M45,18.3V19c0,1-0.8,1.8-1.8,1.9c-0.1,0-0.2,0-0.2,0h-1c-0.3,0-0.5,0.2-0.6,0.4
	c0,0.1,0,0.1,0,0.2c0.4,3,0.9,6,1.6,8.9c-3.3-0.3-5.7-0.5-8.2-0.5c-0.1-0.5-0.2-1-0.2-1.5c1.3,0,2.5-0.5,3.4-1.5
	c0.2-0.3,0.4-0.5,0.6-0.9c0.1,0.6,0.2,1.3,0.3,2.2c1,0.1,1.4,0.1,2.3,0.2c-0.5-2.3-0.8-4.6-1-6.9c-0.1-0.9,0.6-1.7,1.5-1.8
	c0.1,0,0.2,0,0.3,0h1c0.4,0,0.7-0.2,0.7-0.6c-0.1-0.5-0.4-1-0.8-1.2c-2.8-1.5-5.4-3.4-7.7-5.5c-0.1-0.1-0.3-0.1-0.4,0
	c-1.6,1.4-2.7,2.3-3.8,3.1l-1-0.8c1.4-1,2.5-2,4.5-3.7c0.5-0.5,1.3-0.5,1.8,0c0,0,0,0,0,0c2.4,2.2,5,4.1,7.8,5.7
	C44.6,17.1,44.9,17.7,45,18.3z"/>
</svg>
