<?xml version="1.0" encoding="utf-8"?>
<!-- Generator: Adobe Illustrator 23.0.0, SVG Export Plug-In . SVG Version: 6.00 Build 0)  -->
<svg version="1.0" id="Layer_1" xmlns="http://www.w3.org/2000/svg" xmlns:xlink="http://www.w3.org/1999/xlink" x="0px" y="0px"
	 viewBox="0 0 50 50" enable-background="new 0 0 50 50" xml:space="preserve">
<path fill="#FFFFFF" d="M38.1,9.7C37.2,8.6,36,8,34.6,7.9C28.2,7.7,21.7,8,15.3,9c-1.3,0.3-2.5,0.9-3.4,1.9c-3,3.7-4.6,7.3-4.3,10.1
	c0.3,1.9,0.6,3.4,2.1,4.4l0.5,0.3c1.1,3.9,1.8,7.9,2.1,12c0.2,1.6,1.3,2.9,2.8,3.3c6.3,1.6,13.1,1.4,19.6,0.7
	c1.3-0.2,2.6-1.9,2.9-3.7c0.6-4.4,1.5-8.7,2.7-13c2.1-0.9,2.3-3,2.3-5.2C42.5,17.7,41,13.8,38.1,9.7z M36.2,37.6
	c-0.4,1.2-1.7,1.1-2.6,1.3S31.3,39,30,39.2c0.4-1.4,0.7-2.8,0.8-4.3c0.1-1.8-0.1-3.4-0.7-4.1c-0.8-1.1-3.8-1.4-4.5-0.3
	s0.2,4.8,0.2,6.4c0,0.9-0.1,1.7-0.3,2.5c-3.3,0.1-6.6-0.3-9.8-1.3c-0.4-0.2-2-0.3-2.1-1.5c-0.4-3.6-1.1-7.2-2-10.8
	c1.2,0.4,2.5-0.2,2.9-1.4c1.7,2.5,5.4,4.2,8.4,2.3c0.9-0.6,1.6-1.4,2-2.3c1.7,3.1,6.1,3.6,8.8,1.6c0.7-0.6,1.4-1.2,1.9-2
	c0.6,1.2,1.9,1.7,3.1,1.3C37.6,29.3,36.7,33.4,36.2,37.6z M39,24.4c-0.9,0.3-1.8-0.2-2.1-1l-0.6-1.3c-0.1-0.2-0.4-0.3-0.6-0.2
	c-0.1,0-0.1,0.1-0.2,0.1l-0.9,1.2c-0.5,0.7-1,1.2-1.7,1.7c-0.9,0.7-2,1-3,1c-1.6,0.1-3.1-0.7-3.9-2.1l-0.7-1.3
	c-0.1-0.3-0.5-0.4-0.7-0.2c-0.1,0-0.2,0.1-0.2,0.2l-0.7,1.3c-0.4,0.7-0.9,1.4-1.6,1.8c-0.6,0.4-1.3,0.6-2,0.6
	c-1.8-0.1-3.5-1-4.5-2.5l-0.7-1c-0.2-0.3-0.6-0.4-0.9-0.2c-0.1,0.1-0.2,0.1-0.2,0.2l-0.5,0.9c-0.9,1.9-3,0.4-3,0.4
	c-1-0.7-1.1-2.2-1-3.8s1.7-5.2,4.4-8.7c0.7-0.7,1.7-1.3,2.7-1.5c4.5-0.7,9-1,13.5-1c1.3,0,1.9-0.1,3.3,0c0.9,0.1,1.8,0.5,2.4,1.3
	c2.6,3.6,4.7,7.4,4.7,9.7C40.4,23,40.2,24,39,24.4z"/>
</svg>
