<?xml version="1.0" encoding="utf-8"?>
<!-- Generator: Adobe Illustrator 23.0.0, SVG Export Plug-In . SVG Version: 6.00 Build 0)  -->
<svg version="1.0" id="Layer_1" xmlns="http://www.w3.org/2000/svg" xmlns:xlink="http://www.w3.org/1999/xlink" x="0px" y="0px"
	 viewBox="0 0 50 50" enable-background="new 0 0 50 50" xml:space="preserve">
<path fill="#FFFFFF" d="M40.2,31.8c0.6,0,1-0.2,1.1-0.7s-0.3-0.8-1-0.8c-1.3-0.1-2.5-0.1-3.8-0.2c-0.3,0-0.6-0.1-0.7-0.4
	c-0.2-0.6-5.3-10.9-5.8-12c-0.1-0.2-0.1-0.4,0-0.6c0.6-1.9,0-4-1.6-5.2c-0.2-0.1-0.3-0.3-0.3-0.6c0-1.8,0.1-3.5,0.1-5.3
	c0-0.7-0.3-1-1.1-1h-4.2c-0.8,0-1.1,0.3-1.1,1c0,1.7,0.1,3.5,0.1,5.2c0,0.2-0.1,0.4-0.3,0.6C20.1,13,19.4,15.1,20,17
	c0.1,0.2,0,0.4,0,0.6c-2,4.1-4,8.1-5.8,12.1c-0.1,0.2-0.3,0.3-0.5,0.3c-1.4,0-2.7,0.1-4.1,0.2c-0.4,0-0.8,0.3-0.8,0.8c0,0,0,0,0,0.1
	c0.1,0.4,0.5,0.8,0.9,0.7c0,0,0,0,0,0l3.2-0.2h0.4c-0.1,0.2-0.1,0.3-0.2,0.4c-0.8,1.7-1.5,3.4-2.1,5.1c-0.3,0.6-0.3,1.4,0,2
	c0.3,0.5,0.6,1,1,1.5c-0.3,1-0.7,2.1-0.9,3.2c-0.2,0.7,0,0.9,0.6,1.3l0.4-0.1c0.2-0.2,0.3-0.5,0.4-0.7c0.3-1,0.6-2,0.9-3
	c0.1-0.2,0.1-0.3,0.4-0.3c1.2,0,2.3-0.7,2.7-1.8c1-2.5,2.2-4.9,3.4-7.5c0.1-0.2,0.3-0.4,0.6-0.4c1.2,0,2.5,0,3.7,0
	c0,0.4,0,0.8,0,1.2c0,0.4,0.3,0.8,0.8,0.8s0.8-0.3,0.8-0.8c0,0,0,0,0,0c0-0.4,0-0.8,0-1.2c1,0,1.9,0,2.9,0c0.4,0,0.9-0.1,1.2,0.1
	s0.4,0.7,0.5,1c0.8,1.6,1.5,3.1,2.2,4.7c0.2,0.4,0.5,0.8,0.7,1.3c-0.5,0.5-0.7,1.3-0.6,2c0.1,0.5,0.3,1,0.7,1.3c0.9,0.8,2,0.8,3.3,0
	c0.3,0.8,0.5,1.7,0.8,2.5c0.1,0.2,0.2,0.5,0.4,0.7l0.4,0.1c0.6-0.3,0.8-0.6,0.6-1.3c-0.4-1.7-1-3.3-1.6-4.9
	c-0.1-0.1-0.1-0.3,0.1-0.5c1-0.8,1.4-2.1,0.8-3.3c-0.4-1-0.9-2-1.3-3.1c-0.1-0.1-0.1-0.3-0.2-0.4C37.9,31.7,39,31.7,40.2,31.8z
	 M23.6,6.6h2.8c0,1.4,0,2.8,0,4.1h-2.7C23.6,9.4,23.6,8,23.6,6.6z M25,12.3c2,0,3.5,1.1,3.5,2.9s-1.6,2.6-3.5,2.6s-3.5-0.8-3.5-2.6
	S23,12.3,25,12.3z M15.6,37.3c-0.1,0.5-0.6,0.9-1.1,1c-0.8,0.1-1.5-0.4-1.6-1.1c0-0.2,0-0.5,0.1-0.7c0.6-1.6,0.8-1.9,1.6-3.5
	c2-4.5,4.2-9,6.5-13.6l0.2-0.4c0.4,0.3,0.8,0.6,1.2,0.8s0.9,0.4,1.3,0.6c0,0.1-0.1,0.2-0.1,0.3C20.5,26.8,17.9,31.4,15.6,37.3
	L15.6,37.3z M25.8,29.8c0-0.3,0-0.5,0-0.8c0-0.9-0.2-1.3-0.8-1.3S24.2,28,24.2,29c0,0.3,0,0.5,0,0.8c-1.1,0-2.2,0-3.4,0
	c1.3-2.7,2.7-5.5,4.2-8.3c1.5,2.8,2.8,5.6,4.2,8.3C28,29.8,26.9,29.8,25.8,29.8L25.8,29.8z M35,40.9c-0.5,0-0.8-0.4-0.8-0.9
	c0,0,0,0,0,0c0.1-0.5,0.5-0.8,1-0.8c0.5,0,0.8,0.4,0.8,0.9c0,0,0,0,0,0C36,40.5,35.5,40.9,35,40.9C35,40.9,35,40.9,35,40.9z
	 M36.4,34.9c0.2,0.5,0.1,1-0.3,1.4c-0.4,0.4-0.9,0.5-1.4,0.4c-0.5-0.1-0.9-0.5-1-1c-2.2-5.2-4.5-9.6-7.2-15
	c-0.1-0.1-0.1-0.3-0.2-0.4c1-0.2,1.8-0.7,2.5-1.4l0.2,0.4c0.4,0.8,5.7,11.7,6.2,12.9S35.9,33.7,36.4,34.9L36.4,34.9z"/>
</svg>
