<?xml version="1.0" encoding="utf-8"?>
<!-- Generator: Adobe Illustrator 23.0.0, SVG Export Plug-In . SVG Version: 6.00 Build 0)  -->
<svg version="1.0" id="Layer_1" xmlns="http://www.w3.org/2000/svg" xmlns:xlink="http://www.w3.org/1999/xlink" x="0px" y="0px"
	 viewBox="0 0 50 50" style="enable-background:new 0 0 50 50;" xml:space="preserve">
<style type="text/css">
	.st0{fill:#FFFFFF;}
</style>
<path class="st0" d="M5,13v-0.8c-0.1-0.5,0.2-0.9,0.7-1.1c0.5-0.2,1,0,1.3,0.3c1.2,1.1,2.4,2.2,3.5,3.3c0.5,0.4,0.8,0.4,1.2,0
	c0.8-0.8,1.6-1.6,2.4-2.3c0.4-0.4,0.5-0.7,0-1.1c-1.2-1-2.4-2-3.6-3.1C10.1,8,9.9,7.6,10.1,7.1s0.7-0.6,1.3-0.6
	c5.1-0.2,9.7,2,10.4,6.2c0.2,1.1,0.1,2.3-0.4,3.4c-0.2,0.4-0.1,0.9,0.3,1.1c1.1,0.9,2.2,1.9,3.3,2.9c0.1,0.1,0.2,0.1,0.3,0.3
	l0.3-0.2c3.6-3.3,7.2-6.2,10.5-8.8c0.1-0.1,0.3-0.3,0.3-0.5c0.1-0.4,0.2-0.9,0.3-1.3c0.1-0.2,0.3-0.4,0.5-0.5
	c1.7-0.6,3.4-1.2,5.2-1.9c0.3-0.2,0.7-0.1,0.9,0.1c0.5,0.5,1.1,0.9,1.6,1.4c0.2,0.2,0.3,0.6,0,0.9c-0.9,1.5-1.8,2.9-2.5,4.3
	c-0.1,0.3-0.4,0.4-0.7,0.4l-1.6,0.2c-0.1,0-0.3,0.1-0.4,0.2c-3.3,2.8-6.8,6-10.5,9.4c-0.1,0.1-0.1,0.1-0.2,0.2
	c0.2,0.1,0.3,0.1,0.4,0.2c4,4,7.7,8.2,11.2,12.7c0.8,1.3,0.9,2.9,0.4,4.3c-0.4,1-1.3,1.6-2.3,1.7h-0.3h-0.3
	c-0.9-0.2-1.7-0.6-2.2-1.4c-2.8-3.3-6-7.4-10.1-11.4l-0.3-0.3c-0.3,0.4-0.8,1.3-1.2,1.6c-3.6,3.4-6.9,7-10.1,10.7
	c-0.3,0.4-0.9,1.3-1.8,1.2s-4.7-4.2-4.9-4.8v-0.4c0.2-0.8,0.5-1.5,0.9-2.1c2.8-4.1,5.9-7.9,9.3-11.5c0.3-0.4,0.7-0.7,1.1-1
	c-0.6-0.6-1.4-1.3-2-2c-0.3-0.3-0.8-0.4-1.1-0.3c-4.3,1.5-8.1-0.7-9.8-4.8c-0.3-0.7-0.4-1.4-0.7-2L5,13z M11.3,7.5l0.4,0.3l3.4,2.8
	c0.7,0.5,0.9,1.4,0.5,2.2c-0.1,0.2-0.3,0.3-0.5,0.5c-0.9,0.8-1.7,1.6-2.5,2.4c-0.6,0.8-1.8,1-2.6,0.3c-0.1-0.1-0.2-0.2-0.3-0.3
	l-3.2-3.1c-0.1-0.1-0.1-0.2-0.2-0.4l-0.1,0.1c-0.3,3.1,1.3,6.1,4.1,7.5c1.6,0.8,3.4,0.8,5.1,0.2c0.8-0.3,1.8-0.1,2.4,0.5
	c0.3,0.3,0.7,0.6,1,1l1.9,1.7c0.3,0.3,0.9,0.5,1,0.3c0.9-0.8,1.7-1.7,2.6-2.5C23,20.1,21.9,19,20.7,18c-0.8-0.5-1.1-1.6-0.7-2.4
	c1.1-3-0.3-5.8-3.3-7.2C15,7.6,13.2,7.3,11.3,7.5z M28.2,25c-0.9,0.9-1.8,1.7-2.6,2.6c-0.1,0.1-0.1,0.1,0,0.2
	c0.1,0.3,0.3,0.6,0.5,0.8c4.6,4.5,8.1,8.1,11.2,11.8c0.1,0.1,0.2,0.2,0.2,0.3c0.7,0.6,1.8,0.4,2.4-0.3c0.1-0.2,0.3-0.4,0.3-0.6
	c0.2-0.6,0.1-1.3-0.3-1.8c-2.4-3.1-4.9-6-8.3-9.5C30.5,27.3,29.4,26.2,28.2,25z M16.7,37.5L16.7,37.5c2.1-2.3,4.6-4.8,7.3-7.5
	c0.6-0.5,0.6-1.3,0.2-1.8C24.1,28.1,24,28,24,28c-0.9-0.9-1.8-1.7-2.7-2.6c-0.5-0.6-1.4-0.8-2-0.3c-0.1,0.1-0.2,0.2-0.3,0.3
	c-2.3,2.4-4.6,5-6.6,7.6l-0.2,0.2C13.7,34.7,15.2,36.1,16.7,37.5z M24.6,26.6c0.1-0.1,0.2-0.3,0.3-0.4c4.4-4.3,9-8.3,13-11.9
	c0.9-0.9,2-1.4,3.2-1.4c0.1,0,0.3-0.1,0.4-0.2c0.6-1.1,1.3-2.2,2-3.4c0.1-0.2,0.1-0.3,0-0.4s-0.5-0.5-0.8-0.7
	c-0.1-0.1-0.3-0.2-0.5-0.1c-1.4,0.5-2.7,1-4,1.5C38.1,9.8,38,9.9,37.9,10c-0.1,0.4-0.2,0.8-0.3,1.2c-0.1,0.3-0.2,0.5-0.5,0.7
	c-4.5,3.6-9.5,7.9-14.2,12.5c-0.1,0.1-0.3,0.2-0.4,0.2L24.6,26.6z M14.1,40.4c-1.5-1.3-3-2.6-4.3-4.1C9.6,36.7,9.3,37,9,37.4
	c-0.2,0.3-0.2,0.7,0.1,1c0,0,0,0,0,0c0.3,0.3,0.6,0.6,0.8,0.8c0.8,0.8,1.6,1.5,2.5,2.2c0.3,0.3,0.6,0.3,0.8,0.1S13.9,40.8,14.1,40.4
	z"/>
</svg>
