<?xml version="1.0" encoding="utf-8"?>
<!-- Generator: Adobe Illustrator 23.0.0, SVG Export Plug-In . SVG Version: 6.00 Build 0)  -->
<svg version="1.0" id="Layer_1" xmlns="http://www.w3.org/2000/svg" xmlns:xlink="http://www.w3.org/1999/xlink" x="0px" y="0px"
	 viewBox="0 0 50 50" enable-background="new 0 0 50 50" xml:space="preserve">
<path fill="#FFFFFF" d="M12.3,33.8h5.1c1.1,0,2-0.9,2-2c0-1.1-0.1-2.5-0.1-3.6c0-1.1-0.9-2-2-2h-5c-1.2,0-2.2,1-2.2,2.2
	c0,0.1,0,0.1,0,0.2c0.1,1,0.2,2.3,0.2,3.3C10.3,33,11.2,33.8,12.3,33.8z M11.9,27.5l5.4,0c0.5,0,0.8,0.4,0.9,0.8c0,1,0.1,2,0.1,3
	c0,0.5-0.4,0.9-0.9,0.9c0,0,0,0,0,0h-5c-0.6,0-1-0.4-1-1c0-1-0.1-2-0.2-3C11.2,27.8,11.5,27.5,11.9,27.5z M22.2,33.9h5.1
	c1.1,0,2-0.9,2-2c0-1.1,0-2.4,0.1-3.6c0-1.1-0.8-2-1.9-2.1c0,0,0,0-0.1,0c-1.9,0-3.3,0-5.2,0c-1.1,0-2,0.9-2,2c0,0,0,0,0,0.1
	c0,1.1,0,2.4,0.1,3.6C20.3,33,21.1,33.8,22.2,33.9z M22.3,27.5h5c0.6,0,1,0.4,1,1c0,0.9,0,1.9,0,2.8c0,0.6-0.4,1-1,1h0h-4.9
	c-0.6,0-1-0.4-1-1c0-0.9,0-1.9,0-2.8C21.3,28,21.7,27.5,22.3,27.5z M41.7,30.7c0-3.8,0.3-7.6,0.8-11.4c0.6-4.3,1.4-8.7,2.5-12.9
	c0.2-0.7-0.2-0.8-1.5-0.5c-2.4,0.5-4.8,0.5-7.1,0.1c-1.4-0.2-1.8-0.2-2,0.6c-0.5,2-0.9,4-1.3,6.1c-0.5,3-1,6-1.4,9.1h-2.4
	c0-0.1,0-0.3,0-0.4c0.1-2.1,0.2-4.2,0.4-6.2c0-0.3,0-0.6-0.3-0.8s-0.6,0-0.8,0.1c-3.5,2-6.8,4-9.9,6l-0.4,0.3c0-0.2,0-0.3,0-0.5
	c-0.1-1.8-0.2-3.5-0.4-5.2c0-0.2-0.1-0.5-0.2-0.7c-0.3-0.3-0.6-0.1-0.9,0c-2.7,1.6-5.3,3.2-7.8,4.8c-1.2,0.8-2.4,1.6-3.6,2.4
	C5.3,21.7,5.1,21.8,5,22c1.2,7.1,1.5,14.4,0.9,21.6C6.1,43.9,6.4,44,6.7,44c11.7,0.1,23.4,0.2,35.1,0c0.6,0,0.8-0.2,0.7-0.9
	C41.9,39,41.7,34.9,41.7,30.7z M7.6,41.5c0.5-8-0.1-10.7-1.3-18.8c0.8-0.6,1.7-1.1,2.6-1.7c3.1-1.8,4.5-2.4,8.1-4.1
	c0.1,1,0.1,1.1,0.2,2.1c0,0.5,0.1,0.8,0.1,1.4c0,0.1,0,0.2,0,0.4c0.1,0.9,0.1,1.3,0.2,2.2l2-1.3c3.5-2.1,5.2-2.9,9-4.9
	c-0.1,2.8-0.2,3.5-0.3,6.3h4.5c0,0,2.5-14.5,2.9-15.9h3.9h3.9c-1,4-1.7,8-2.3,12.1c-0.5,4.6-1.1,7.1-1.1,11.6c0,4.9-0.1,6,0.2,10.8
	C28.8,41.8,19,41.7,7.6,41.5z"/>
</svg>
