<?xml version="1.0" encoding="utf-8"?>
<!-- Generator: Adobe Illustrator 23.0.0, SVG Export Plug-In . SVG Version: 6.00 Build 0)  -->
<svg version="1.0" id="Layer_1" xmlns="http://www.w3.org/2000/svg" xmlns:xlink="http://www.w3.org/1999/xlink" x="0px" y="0px"
	 width="50px" height="50px" viewBox="0 0 50 50" enable-background="new 0 0 50 50" xml:space="preserve">
<path fill="#FFFFFF" d="M7.5,14.6v-0.7c-0.1-0.4,0.2-0.8,0.6-0.9c0.4-0.2,0.9,0,1.1,0.3c1,0.9,2.1,1.9,3.1,2.8c0.4,0.3,0.7,0.3,1,0
	c0.7-0.7,1.4-1.4,2.1-2c0.3-0.3,0.4-0.6,0-0.9c-1-0.9-2.1-1.7-3.1-2.7C12,10.3,11.8,10,12,9.5S12.6,9,13.1,9
	c4.5-0.2,8.5,1.7,9.1,5.3c0.2,0.9,0.1,2-0.3,2.9c-0.2,0.3-0.1,0.8,0.3,0.9c1,0.8,1.9,1.6,2.9,2.5c0.1,0.1,0.2,0.1,0.3,0.3l0.3-0.2
	c3.1-2.8,6.3-5.3,9.2-7.6c0.1-0.1,0.3-0.3,0.3-0.4c0.1-0.3,0.2-0.8,0.3-1.1c0.1-0.2,0.3-0.3,0.4-0.4c1.5-0.5,3-1,4.5-1.6
	c0.3-0.2,0.6-0.1,0.8,0.1c0.4,0.4,1,0.8,1.4,1.2c0.2,0.2,0.3,0.5,0,0.8c-0.8,1.3-1.6,2.5-2.2,3.7c-0.1,0.3-0.3,0.3-0.6,0.3l-1.4,0.2
	c-0.1,0-0.3,0.1-0.3,0.2c-2.9,2.4-5.9,5.2-9.2,8.1c-0.1,0.1-0.1,0.1-0.2,0.2c0.2,0.1,0.3,0.1,0.3,0.2c3.5,3.4,6.7,7.1,9.8,10.9
	c0.7,1.1,0.8,2.5,0.3,3.7c-0.3,0.9-1.1,1.4-2,1.5h-0.3h-0.3c-0.8-0.2-1.5-0.5-1.9-1.2c-2.4-2.8-5.2-6.4-8.8-9.8l-0.3-0.3
	c-0.3,0.3-0.7,1.1-1,1.4c-3.1,2.9-6,6-8.8,9.2c-0.3,0.3-0.8,1.1-1.6,1c-0.8-0.1-4.1-3.6-4.3-4.1v-0.3c0.2-0.7,0.4-1.3,0.8-1.8
	c2.4-3.5,5.1-6.8,8.1-9.9c0.3-0.3,0.6-0.6,1-0.9c-0.5-0.5-1.2-1.1-1.7-1.7c-0.3-0.3-0.7-0.3-1-0.3c-3.8,1.3-7.1-0.6-8.6-4.1
	C8,17.2,8,16.6,7.7,16.1L7.5,14.6z"/>
</svg>
