<?xml version="1.0" encoding="utf-8"?>
<!-- Generator: Adobe Illustrator 23.0.0, SVG Export Plug-In . SVG Version: 6.00 Build 0)  -->
<svg version="1.0" id="Layer_1" xmlns="http://www.w3.org/2000/svg" xmlns:xlink="http://www.w3.org/1999/xlink" x="0px" y="0px"
	 width="50px" height="50px" viewBox="0 0 50 50" enable-background="new 0 0 50 50" xml:space="preserve">
<path fill="#FFFFFF" d="M9.3,24c0-0.2,0-0.4,0-0.6c0.2-0.3,0.3-0.7,0.6-0.9c4.2-4.1,8.7-8.1,13.3-12c0.8-0.6,1.6-0.6,2.4,0
	c4.6,3.9,9,8,13.3,12c0.5,0.5,0.7,1.1,0.4,1.7c-0.3,0.6-0.8,0.9-1.6,0.9c-0.6,0-1.1,0-1.7,0c-0.1,0-0.2,0-0.3,0c0,0.1,0,0.3,0,0.4
	c-0.1,3.8-0.4,9.7-0.5,13.5c0,0.7-0.3,1-1,1c-2.2,0-4.5-0.1-6.7-0.1c-0.7,0-1-0.3-1-1c0-2.3,0-4.5,0-6.8c0-0.1,0-0.2,0-0.3
	c-1.4,0-2.8,0-4.2,0c0,0.1,0,0.2,0,0.3c0,2.2,0,4.5,0,6.7c0,0.8-0.3,1.1-1,1.1c-2.2,0-4.4,0-6.6,0.1c-0.7,0-1-0.3-1.1-1
	c-0.1-3.8-0.4-9.6-0.5-13.4c0-0.1,0-0.2,0-0.4c-0.7,0-1.3,0-2,0.1c-0.6,0-1.1-0.1-1.4-0.6C9.5,24.4,9.4,24.2,9.3,24z"/>
<path fill="#FFFFFF" d="M45.7,20.8c-3-2.9-6.1-5.7-9.4-8.5c-0.5-0.5-1.1-0.5-1.7,0c-0.8,0.7-1.5,1.3-2.3,2c2.6,2.3,5.1,4.7,7.6,7
	c1.1,1,1.4,2.4,0.8,3.7c-0.5,1.2-1.7,1.9-3.1,1.9l-0.1,0c-0.1,0-0.2,0-0.3,0l-0.1,1.7L37,32.7c0.1,0.2,0.3,0.4,0.6,0.4
	c1.6,0,3.1,0,4.7,0.1c0.5,0,0.7-0.2,0.7-0.7c0.1-2.7,0.3-6.8,0.4-9.5c0-0.1,0-0.2,0-0.3c0.1,0,0.2,0,0.2,0c0.4,0,0.8,0,1.2,0
	c0.5,0,0.9-0.2,1.1-0.7C46.2,21.6,46.1,21.1,45.7,20.8z"/>
<path fill="#FFFFFF" d="M11.4,26.9c-0.1,0-0.2,0-0.3,0l-0.1,0c-1.4,0-2.3-0.7-2.7-1.3c-0.2-0.2-0.3-0.5-0.4-0.7c0,0,0-0.1-0.1-0.1
	l-0.2-0.3l0-0.4l0-0.3l0-0.3l0-0.5l0.3-0.4c0-0.1,0.1-0.1,0.1-0.2c0.2-0.3,0.4-0.7,0.7-1c2.1-2,4.2-4,6.4-5.9
	c-0.4-0.3-0.8-0.7-1.2-1c-0.5-0.4-1-0.4-1.5,0c-2.8,2.4-5.6,4.9-8.2,7.4c-0.2,0.1-0.2,0.4-0.3,0.6c0,0.1,0,0.2,0,0.4
	C4,22.8,4,22.9,4.1,23c0.2,0.3,0.5,0.4,0.9,0.4c0.4,0,0.8,0,1.2,0c0,0.1,0,0.2,0,0.2c0.1,2.3,0.2,5.9,0.3,8.3c0,0.5,0.2,0.7,0.7,0.6
	c1.3,0,2.7,0,4-0.1c0.2,0,0.3,0,0.4-0.1l-0.1-3.5L11.4,26.9z"/>
</svg>
