<?xml version="1.0" encoding="utf-8"?>
<!-- Generator: Adobe Illustrator 23.0.0, SVG Export Plug-In . SVG Version: 6.00 Build 0)  -->
<svg version="1.0" id="Layer_1" xmlns="http://www.w3.org/2000/svg" xmlns:xlink="http://www.w3.org/1999/xlink" x="0px" y="0px"
	 width="50px" height="50px" viewBox="0 0 50 50" enable-background="new 0 0 50 50" xml:space="preserve">
<path fill="#FFFFFF" d="M25,10.5l1.1-1.9c0.7-1.2,2.2-1.6,3.4-0.9c1.2,0.7,1.6,2.2,0.9,3.4L19.7,29.6h7.7c2.5,0,4,3,2.9,4.9H7.5
	c-1.4,0-2.5-1.1-2.5-2.5c0-1.4,1.1-2.5,2.5-2.5h6.4l8.2-14.1l-2.5-4.4c-0.7-1.2-0.3-2.7,0.9-3.4c1.2-0.7,2.7-0.3,3.4,0.9L25,10.5
	L25,10.5z M15.3,37.2l-2.4,4.2c-0.7,1.2-2.2,1.6-3.4,0.9c-1.2-0.7-1.6-2.2-0.9-3.4l1.8-3.1C12.4,35.1,14,35.7,15.3,37.2L15.3,37.2z
	 M36,29.6h6.5c1.4,0,2.5,1.1,2.5,2.5c0,1.4-1.1,2.5-2.5,2.5h-3.6l2.4,4.2c0.7,1.2,0.3,2.7-0.9,3.4c-1.2,0.7-2.7,0.3-3.4-0.9
	c-4.1-7.1-7.1-12.4-9.2-16s-0.5-7.3,0.9-8.5C30.3,19.8,32.8,24,36,29.6L36,29.6z"/>
</svg>
