<?xml version="1.0" encoding="utf-8"?>
<!-- Generator: Adobe Illustrator 23.0.0, SVG Export Plug-In . SVG Version: 6.00 Build 0)  -->
<svg version="1.0" id="Layer_1" xmlns="http://www.w3.org/2000/svg" xmlns:xlink="http://www.w3.org/1999/xlink" x="0px" y="0px"
	 viewBox="0 0 50 50" enable-background="new 0 0 50 50" xml:space="preserve">
<rect fill="#2CA7E0" width="50" height="50"/>
<path id="_3asfoora" fill="#FFFAF0" d="M32.8,17.4l1.8-1.3c0.1-0.1,0.2-0.1,0.3,0s0.1,0.2,0,0.4l-1.7,2.3c0,0.1,0,0.2,0.1,0.3
	l2.4-0.9c0.1,0,0.2,0,0.3,0.1s0.1,0.3,0,0.3l-2.4,2.2c0.3,3-0.5,6-2.1,8.6c-3.5,5.7-11,7.5-16.7,4c-0.2-0.1-0.5-0.3-0.7-0.5
	c2.1,0,4.2-0.6,6-1.7c-1.8-0.4-3.3-1.6-4.1-3.2c1.2,0.2,2.4,0.2,3.5-0.1c-2.7-0.8-4.7-3-5.4-5.7c0.8,0.7,1.8,1,2.8,0.8
	c-0.1,0-0.2-0.1-0.2-0.1c-2-1.3-2.8-3.9-1.6-6c2.4,2.9,6.2,4.3,9.9,3.8c-0.4-1.9,0.5-3.8,2.2-4.8C29.2,14.8,31.7,15.5,32.8,17.4
	C32.7,17.2,32.8,17.3,32.8,17.4z"/>
</svg>
