<?xml version="1.0" encoding="utf-8"?>
<!-- Generator: Adobe Illustrator 23.0.0, SVG Export Plug-In . SVG Version: 6.00 Build 0)  -->
<svg version="1.0" id="Layer_1" xmlns="http://www.w3.org/2000/svg" xmlns:xlink="http://www.w3.org/1999/xlink" x="0px" y="0px"
	 width="50px" height="50px" viewBox="0 0 50 50" enable-background="new 0 0 50 50" xml:space="preserve">
<path id="insta1" fill="#FFFFFF" d="M21.4,9.1c-3.8,0-4.2,0-5.7,0.1c-1.1,0-2.2,0.2-3.3,0.6C10.5,10.6,9,12.1,8.2,14
	c-0.4,1-0.6,2.2-0.6,3.3c-0.1,1.6-0.1,1.9-0.1,5.7s0,4.2,0.1,5.7c0,1.1,0.2,2.2,0.6,3.3c0.7,1.8,2.2,3.3,4.1,4.1
	c1,0.4,2.2,0.6,3.3,0.6c1.6,0.1,1.9,0.1,5.7,0.1s4.2,0,5.7-0.1c1.1,0,2.2-0.2,3.3-0.6c1.8-0.7,3.3-2.2,4.1-4.1
	c0.4-1,0.6-2.2,0.6-3.3c0.1-1.6,0.1-1.9,0.1-5.7s0-4.2-0.1-5.7c0-1.1-0.2-2.2-0.6-3.3c-0.7-1.8-2.2-3.3-4.1-4.1
	c-1-0.4-2.2-0.6-3.3-0.6C25.5,9.2,25.2,9.1,21.4,9.1L21.4,9.1z M27,11.8c0.9,0,1.8,0.2,2.6,0.5c1.2,0.5,2.2,1.4,2.6,2.6
	c0.3,0.8,0.5,1.8,0.5,2.6c0.1,1.4,0.1,9.8,0,11.3c0,0.9-0.2,1.8-0.5,2.6c-0.5,1.2-1.4,2.2-2.6,2.6c-0.8,0.3-1.8,0.5-2.6,0.5
	c-1.4,0.1-9.8,0.1-11.3,0c-0.9,0-1.8-0.2-2.6-0.5c-1.2-0.5-2.2-1.4-2.6-2.6c-0.3-0.8-0.5-1.8-0.5-2.6c-0.1-1.4-0.1-9.8,0-11.3
	c0-0.9,0.2-1.8,0.5-2.6c0.5-1.2,1.4-2.2,2.6-2.6c0.8-0.3,1.8-0.5,2.6-0.5C17,11.7,25.5,11.7,27,11.8z M28.7,14
	c-0.9,0-1.7,0.7-1.7,1.7c0,1,1,1.8,2.1,1.6c0.6-0.2,1.2-0.8,1.2-1.5C30.4,14.8,29.7,14,28.7,14L28.7,14z M21.4,15.9
	c-3.9,0-7.1,3.1-7.1,7.1c0,3.9,3.1,7.1,7.1,7.1c3.9,0,7.1-3.1,7.1-7.1l0,0C28.5,19.1,25.3,15.9,21.4,15.9z M21.4,18.4
	c3.1,0,5.3,2.9,4.4,5.9c-0.4,1.4-1.4,2.4-2.7,3c-3.1,1.3-6.4-1.2-6.4-4.3l0,0C16.7,20.4,18.8,18.4,21.4,18.4z"/>
<path opacity="0.5" enable-background="new    " d="M42.4,34.1c-0.1-0.2-0.4-0.7-1.3-0.7h0c-0.4,0-0.5,0-0.9,0h0l0,0
	c-0.3,0-0.7-0.3-0.7-0.8c-0.2-1.5-0.3-2.2-0.5-3.6V29c-0.2-1.1-1.1-2-2.2-2h-0.2c-0.4,0-0.6,0-1,0H35h-0.6c-0.5,0-1.1,0-1.6,0h-0.2
	h-0.7c-0.2,0-0.5,0-0.7,0h-0.3c-1.1,0-2,0.9-2.2,2l0,0.1c-0.2,1.3-0.4,2.1-0.5,3.5c0,0.4-0.4,0.8-0.7,0.8l0,0c-0.4,0-0.6,0-0.9,0h0
	c-0.9,0-1.2,0.5-1.3,0.7c-0.1,0.3-0.2,0.8,0.4,1.4c1.9,1.9,4.1,3.6,6.6,5c0.5,0.3,1.1,0.4,1.7,0.4s1.2-0.2,1.7-0.4
	c2.5-1.4,4.8-3.1,6.6-5C42.6,34.9,42.5,34.4,42.4,34.1z"/>
<path d="M42.4,33.4c-0.1-0.2-0.4-0.7-1.3-0.7h0c-0.4,0-0.5,0-0.9,0l0,0c-0.3,0-0.7-0.3-0.7-0.8c-0.2-1.5-0.3-2.2-0.5-3.6v-0.1
	c-0.2-1.1-1.1-2-2.2-2h-0.3c-0.4,0-0.6,0-0.9,0H35h-0.5c-0.5,0-1.1,0-1.6,0h-0.3h-0.7h-0.7h-0.3c-1.1,0-2,0.9-2.2,2l0,0.1
	c-0.2,1.3-0.4,2.1-0.5,3.5c0,0.4-0.4,0.8-0.7,0.8l0,0c-0.4,0-0.6,0-0.9,0c0,0,0,0,0,0c-0.9,0-1.2,0.5-1.3,0.7
	c-0.1,0.3-0.2,0.8,0.4,1.4c1.9,1.9,4.1,3.6,6.6,5c0.5,0.3,1.1,0.4,1.7,0.4s1.2-0.2,1.7-0.4c2.5-1.4,4.8-3.1,6.6-5
	C42.6,34.1,42.5,33.6,42.4,33.4z"/>
<path fill="#FFFFFF" d="M41.1,33c-0.4,0-0.5,0-0.9,0c-0.7,0-1.4-0.6-1.5-1.4c-0.2-1.5-0.3-2.2-0.5-3.6c-0.1-0.7-0.8-1.3-1.4-1.3
	s-1,0-1.7,0c-0.7,0-1.8,0-2.4,0s-1,0-1.7,0c-0.7,0-1.3,0.6-1.4,1.3c-0.2,1.4-0.4,2.1-0.5,3.6c-0.1,0.8-0.8,1.4-1.5,1.4
	c-0.4,0-0.6,0-0.9,0c-0.7,0-0.9,0.4-0.4,0.8c1.9,1.9,4.1,3.5,6.5,4.9c0.7,0.4,1.9,0.4,2.6,0c2.3-1.4,4.6-3,6.5-4.9
	C41.9,33.4,41.7,33,41.1,33z"/>
<path opacity="0.5" enable-background="new    " d="M35.4,26.8c0.3,0,0.6,0,1,0h0.2c0.6,0,1.2,0.5,1.2,1.2v0.1
	c0.2,1.3,0.4,2.1,0.5,3.5c0.1,0.9,0.9,1.6,1.7,1.6h0c0.4,0,0.6,0,0.9,0h0c0.3,0,0.4,0.1,0.4,0.1c0,0.1,0,0.2-0.2,0.4
	c-1.8,1.8-4,3.4-6.4,4.8c-0.3,0.2-0.7,0.3-1.2,0.3c-0.5,0-0.9-0.1-1.2-0.3c-2.5-1.4-4.6-3-6.4-4.8c-0.2-0.2-0.2-0.3-0.2-0.4
	c0,0,0.2-0.1,0.4-0.1h0c0.4,0,0.5,0,0.9,0h0c0.8,0,1.6-0.7,1.7-1.6c0.2-1.4,0.3-2.1,0.5-3.5l0-0.1c0.1-0.7,0.7-1.2,1.2-1.2H31
	c0.3,0,0.5,0,0.7,0h0.7h0.2c0.5,0,1.1,0,1.7,0h0.6L35.4,26.8 M35.4,26.6c-0.2,0-0.3,0-0.5,0c-0.6,0-1.6,0-2.2,0c-0.1,0-0.1,0-0.2,0
	c-0.6,0-0.9,0-1.4,0c-0.1,0-0.2,0-0.3,0c-0.7,0-1.3,0.6-1.4,1.3c-0.2,1.4-0.4,2.1-0.5,3.6c-0.1,0.8-0.8,1.4-1.5,1.4c0,0,0,0,0,0
	c-0.4,0-0.6,0-0.9,0h0c-0.7,0-0.8,0.4-0.4,0.8c1.9,1.9,4.1,3.5,6.5,4.9c0.4,0.2,0.8,0.3,1.3,0.3c0.5,0,0.9-0.1,1.3-0.3
	c2.3-1.4,4.6-3,6.5-4.9c0.5-0.5,0.3-0.8-0.4-0.8h0c-0.4,0-0.5,0-0.9,0c0,0,0,0,0,0c-0.7,0-1.4-0.7-1.5-1.4c-0.2-1.5-0.3-2.2-0.5-3.6
	c-0.1-0.7-0.8-1.3-1.4-1.3C36.1,26.6,35.8,26.6,35.4,26.6L35.4,26.6z"/>
</svg>
