<?xml version="1.0" encoding="utf-8"?>
<!-- Generator: Adobe Illustrator 23.0.0, SVG Export Plug-In . SVG Version: 6.00 Build 0)  -->
<svg version="1.0" id="Layer_1" xmlns="http://www.w3.org/2000/svg" xmlns:xlink="http://www.w3.org/1999/xlink" x="0px" y="0px"
	 width="50px" height="50px" viewBox="0 0 50 50" enable-background="new 0 0 50 50" xml:space="preserve">
<linearGradient id="SVGID_1_" gradientUnits="userSpaceOnUse" x1="25" y1="-298.7686" x2="25" y2="-248.7749" gradientTransform="matrix(1 0 0 1 0 298.7717)">
	<stop  offset="0" style="stop-color:#18BFFB"/>
	<stop  offset="1" style="stop-color:#2072F3"/>
</linearGradient>
<path fill="url(#SVGID_1_)" d="M0,0v50h50V0H0z"/>
<path fill="#FFFFFF" d="M24.8,11.5l1-1.7c0.6-1.1,2-1.5,3.1-0.8c1.1,0.6,1.5,2,0.8,3.1L20,28.9H27c2.3,0,3.6,2.7,2.6,4.5H8.9
	c-1.3,0-2.3-1-2.3-2.3c0-1.3,1-2.3,2.3-2.3h5.8L22.2,16l-2.3-4c-0.6-1.1-0.3-2.5,0.8-3.1c1.1-0.6,2.5-0.3,3.1,0.8L24.8,11.5
	L24.8,11.5z M16,35.8l-2.2,3.8c-0.6,1.1-2,1.5-3.1,0.8c-1.1-0.6-1.5-2-0.8-3.1l1.6-2.8C13.3,33.9,14.8,34.4,16,35.8L16,35.8z
	 M34.8,28.9h5.9c1.3,0,2.3,1,2.3,2.3s-1,2.3-2.3,2.3h-3.3l2.2,3.8c0.6,1.1,0.3,2.5-0.8,3.1c-1.1,0.6-2.5,0.3-3.1-0.8
	C32,33.1,29.2,28.3,27.3,25c-1.9-3.3-0.5-6.6,0.8-7.7C29.6,19.9,31.9,23.8,34.8,28.9L34.8,28.9z"/>
</svg>
