<?xml version="1.0" encoding="utf-8"?>
<!-- Generator: Adobe Illustrator 23.0.0, SVG Export Plug-In . SVG Version: 6.00 Build 0)  -->
<svg version="1.0" id="Layer_1" xmlns="http://www.w3.org/2000/svg" xmlns:xlink="http://www.w3.org/1999/xlink" x="0px" y="0px"
	 viewBox="0 0 50 50" enable-background="new 0 0 50 50" xml:space="preserve">
<path fill="#FFFFFF" d="M10.7,25.1l6.3,2.4l2.4,7.9c0.2,0.5,0.8,0.7,1.2,0.4l3.5-2.9c0.4-0.3,0.9-0.3,1.3,0l6.4,4.7
	c0.4,0.3,1.1,0.1,1.2-0.5l4.7-22.6c0.1-0.6-0.4-1.1-1-0.9L10.7,23.7C10,23.9,10,24.8,10.7,25.1z M19.1,26.2l12.4-7.7
	c0.2-0.1,0.5,0.2,0.3,0.3l-10.2,9.6c-0.4,0.3-0.6,0.8-0.7,1.3l-0.3,2.6c0,0.3-0.5,0.4-0.6,0l-1.3-4.7C18.4,27.1,18.6,26.5,19.1,26.2
	z"/>
</svg>
