<?xml version="1.0" encoding="utf-8"?>
<!-- Generator: Adobe Illustrator 23.0.0, SVG Export Plug-In . SVG Version: 6.00 Build 0)  -->
<svg version="1.0" id="Layer_1" xmlns="http://www.w3.org/2000/svg" xmlns:xlink="http://www.w3.org/1999/xlink" x="0px" y="0px"
	 width="50px" height="50px" viewBox="0 0 50 50" enable-background="new 0 0 50 50" xml:space="preserve">
<g id="ic_ag" transform="translate(-2,-2)">
	<g id="编组" transform="translate(2,2)">
		
			<linearGradient id="Fill-1_1_" gradientUnits="userSpaceOnUse" x1="25" y1="52" x2="25" y2="2" gradientTransform="matrix(1 0 0 -1 0 52)">
			<stop  offset="0" style="stop-color:#FB6361"/>
			<stop  offset="1" style="stop-color:#ED3E45"/>
		</linearGradient>
		<path id="Fill-1" fill-rule="evenodd" clip-rule="evenodd" fill="url(#Fill-1_1_)" d="M0,0v50h50V0H0z"/>
		<path id="path14" fill-rule="evenodd" clip-rule="evenodd" fill="#FFFFFF" d="M21.8,29h2l-1-2.3L21.8,29z M21.3,30.2l-0.6,1.4
			h-1.4l2.9-6.5h1.2l2.9,6.5h-1.4l-0.6-1.4H21.3z M43.1,31.5h1.3V25h-1.3V31.5z M37.9,28.7h2.4v-1.2h-2.4v-1.3h3.5V25h-4.8v6.5h4.9
			v-1.2h-3.6V28.7z M32.7,29.5L31.2,25h-1.1l-1.5,4.5L27.2,25h-1.4l2.3,6.5h1.1l1.5-4.3l1.5,4.3h1.1l2.3-6.5h-1.4L32.7,29.5z
			 M17.4,28.7c0,1.1-0.5,1.6-1.5,1.6c-1,0-1.5-0.6-1.5-1.7V25h-1.3v3.7c0,1.8,1,2.9,2.8,2.9c1.8,0,2.8-1.1,2.8-3V25h-1.3V28.7z
			 M9.9,25h1.3v6.5H9.9v-2.7h-3v2.7H5.6V25h1.3v2.6h3V25z"/>
		<path id="Fill-3" fill-rule="evenodd" clip-rule="evenodd" fill="#FFFFFF" d="M25,16.7c-4.6,0-8.3-3.7-8.3-8.3h1.2
			c0,3.9,3.2,7.2,7.2,7.2s7.2-3.2,7.2-7.2h1.2C33.3,12.9,29.6,16.7,25,16.7"/>
	</g>
</g>
</svg>
