<?xml version="1.0" encoding="utf-8"?>
<!-- Generator: Adobe Illustrator 23.0.0, SVG Export Plug-In . SVG Version: 6.00 Build 0)  -->
<svg version="1.0" id="Layer_1" xmlns="http://www.w3.org/2000/svg" xmlns:xlink="http://www.w3.org/1999/xlink" x="0px" y="0px"
	 width="50px" height="50px" viewBox="0 0 50 50" enable-background="new 0 0 50 50" xml:space="preserve">
<path id="in" fill="#FFFFFF" d="M10.1,19.8h6.3v20.1h-6.3C10.1,39.8,10.1,19.8,10.1,19.8z M37.1,20.7c-3.1-2.5-7.7-2-10.3,1.2
	c0,0.1-0.1,0.1-0.1,0.2s-0.1,0.1-0.1,0.2v-2.5h-6.3v20.1h6.3V29.6c-0.2-2.2,1.3-4.3,3.3-4.8c0.2,0,0.3-0.1,0.6-0.1
	c1.7,0,3.1,1.3,3.1,3l0,0v12.2H40V26C39.7,23.9,38.7,21.9,37.1,20.7L37.1,20.7z M13.3,10.2c-1.8,0-3.3,1.4-3.3,3.1
	c0,1.8,1.4,3.3,3.1,3.3c1.8,0,3.3-1.4,3.3-3.1v-0.1C16.6,11.7,15.1,10.2,13.3,10.2z"/>
</svg>
