<?xml version="1.0" encoding="utf-8"?>
<!-- Generator: Adobe Illustrator 23.0.0, SVG Export Plug-In . SVG Version: 6.00 Build 0)  -->
<svg version="1.0" id="Layer_1" xmlns="http://www.w3.org/2000/svg" xmlns:xlink="http://www.w3.org/1999/xlink" x="0px" y="0px"
	 width="50px" height="50px" viewBox="0 0 50 50" enable-background="new 0 0 50 50" xml:space="preserve">
<path fill="#FFFFFF" d="M32.6,17.9L10.8,5.3C9.8,4.8,8.7,5,7.9,5.6l18.9,18L32.6,17.9z"/>
<path fill="#FFFFFF" d="M7.2,6.8C7.1,7,7.1,7.2,7.1,7.4v6.9v28.3c0,0.2,0,0.4,0.1,0.6L25.4,25L7.2,6.8z"/>
<path fill="#FFFFFF" d="M7.9,44.3c0.2,0.2,0.4,0.3,0.6,0.4c0.6,0.3,1.4,0.3,2.1,0c0.1,0,17.5-10.1,22-12.7l-5.7-5.7L7.9,44.3z"/>
<path fill="#FFFFFF" d="M41.9,23.2L34.6,19l-6.3,6l6.3,5.9l7.4-4.2C43.3,25.9,43.3,24.1,41.9,23.2z"/>
</svg>
