<?xml version="1.0" encoding="utf-8"?>
<!-- Generator: Adobe Illustrator 23.0.0, SVG Export Plug-In . SVG Version: 6.00 Build 0)  -->
<svg version="1.0" id="Layer_1" xmlns="http://www.w3.org/2000/svg" xmlns:xlink="http://www.w3.org/1999/xlink" x="0px" y="0px"
	 viewBox="0 0 50 50" enable-background="new 0 0 50 50" xml:space="preserve">
<rect width="50" height="50"/>
<path fill="#25F4EE" d="M22.1,21.8v-1.2c-0.4-0.1-0.8-0.1-1.2-0.1c-3.9,0-7.5,2.5-8.6,6.3s0.2,7.9,3.5,10.1
	c-3.5-3.6-3.2-9.3,0.4-12.8C17.7,22.7,19.9,21.8,22.1,21.8L22.1,21.8z"/>
<path fill="#25F4EE" d="M22.3,35c2.2,0,4-1.8,4.2-3.9V11.2h3.6C30,10.8,30,10.5,30,10h-4.9v19.8c-0.1,2.2-1.9,4-4.2,4
	c-0.7,0-1.3-0.2-1.9-0.5C19.7,34.4,21,35,22.3,35L22.3,35z M36.8,18v-1.1c-1.3,0-2.6-0.4-3.7-1.2C34.1,16.9,35.4,17.6,36.8,18z"/>
<path fill="#FE2C55" d="M33.1,15.7c-1.1-1.2-1.7-2.9-1.7-4.5h-1.3C30.5,13.1,31.5,14.7,33.1,15.7L33.1,15.7z M20.9,25.4
	c-2.3,0-4.2,1.9-4.1,4.2c0,1.5,0.8,2.9,2.2,3.6c-1.3-1.9-0.9-4.5,0.9-5.8c0.7-0.5,1.5-0.8,2.5-0.8c0.4,0,0.8,0.1,1.2,0.2v-5
	c-0.4-0.1-0.8-0.1-1.2-0.1h-0.2v3.9C21.7,25.5,21.3,25.4,20.9,25.4L20.9,25.4z"/>
<path fill="#FE2C55" d="M36.8,18v3.9c-2.5,0-4.9-0.8-6.9-2.2v10c0,5-4.1,9.1-9.1,9.1c-1.9,0-3.7-0.5-5.2-1.6
	c3.4,3.7,9.2,3.9,12.8,0.5c1.9-1.7,2.9-4.1,2.9-6.6v-10c2,1.5,4.4,2.2,6.9,2.2v-4.9C37.8,18.1,37.3,18.1,36.8,18L36.8,18z"/>
<path fill="#FFFFFF" d="M30,29.6v-10c2,1.5,4.4,2.2,6.9,2.2v-3.9c-1.5-0.3-2.8-1.1-3.8-2.2c-1.5-1-2.7-2.6-3-4.5h-3.6V31
	c-0.1,2.3-2,4.1-4.3,4c-1.2-0.1-2.5-0.7-3.2-1.7c-2-1.1-2.8-3.6-1.8-5.6c0.7-1.4,2.1-2.2,3.6-2.2c0.4,0,0.8,0.1,1.2,0.2v-3.9
	c-5,0.1-9,4.2-8.9,9.3c0,2.2,0.9,4.4,2.5,6.1c1.5,1,3.3,1.5,5.2,1.5C25.9,38.7,30,34.6,30,29.6z"/>
</svg>
