<?xml version="1.0" encoding="utf-8"?>
<!-- Generator: Adobe Illustrator 23.0.0, SVG Export Plug-In . SVG Version: 6.00 Build 0)  -->
<svg version="1.0" id="Capa_1" xmlns="http://www.w3.org/2000/svg" xmlns:xlink="http://www.w3.org/1999/xlink" x="0px" y="0px"
	 viewBox="0 0 50 50" enable-background="new 0 0 50 50" xml:space="preserve">
<path fill="#FFFFFF" d="M19,38.7c-6.6-2.8-10.9-10.6-8.2-18.6c2.8-8,11.5-12.1,19.4-9.1c7.9,2.9,11.8,11.6,8.7,19.4
	c-3.2,8.1-11.7,10.9-18.1,8.9c0.5-1.2,1.1-2.3,1.4-3.6c0.4-1.2,0.6-2.5,1-3.6c0.2,0.2,0.5,0.5,0.8,0.6c1.4,1.1,3,1.2,4.7,0.8
	c1.8-0.4,3.2-1.5,4.2-2.9c1.8-2.5,2.3-5.3,1.9-8.3c-0.4-3.1-2.3-5.3-5.1-6.4c-4.3-1.7-8.4-1.1-11.9,1.9c-2.8,2.3-3.6,6.4-2.3,9.6
	c0.5,1.1,1.1,1.9,2.3,2.4c0.6,0.2,0.8,0.2,1-0.4c0-0.1,0-0.1,0.1-0.2c0.3-0.8,0.2-1.5-0.3-2.3c-1-1.4-0.8-3.1-0.3-4.6
	c0.9-3,3.6-4.9,6.6-5c0.8,0,1.7,0.1,2.5,0.2c2.4,0.6,4,2.4,4.1,4.9c0.2,1.9-0.2,3.9-1.1,5.7c-0.4,0.9-1,1.7-1.9,2.3
	c-0.8,0.6-1.6,0.7-2.6,0.5c-1.3-0.3-2-1.5-1.7-2.8s0.8-2.7,1.1-4c0.2-0.6,0.2-1.2,0.2-1.8c-0.2-1.5-1.6-2.3-3-1.5
	c-1,0.6-1.5,1.5-1.6,2.4c-0.2,1.1-0.1,2.1,0.2,3.2c0.1,0.2,0.1,0.5,0,0.6c-0.6,2.8-1.3,5.4-1.9,8.2C19,36,19,36.8,19,37.7
	C19,38.4,19,38.5,19,38.7z"/>
</svg>
