<?xml version="1.0" encoding="utf-8"?>
<!-- Generator: Adobe Illustrator 23.0.0, SVG Export Plug-In . SVG Version: 6.00 Build 0)  -->
<svg version="1.0" id="Layer_1" xmlns="http://www.w3.org/2000/svg" xmlns:xlink="http://www.w3.org/1999/xlink" x="0px" y="0px"
	 width="50px" height="50px" viewBox="0 0 50 50" enable-background="new 0 0 50 50" xml:space="preserve">
<path fill="#00C1FF" d="M5.7,3.1c-0.6,0.5-1,1.4-1,2.6V5.4v38.9V44c0,1.1,0.3,1.9,0.8,2.5l0.1,0.1l0,0C6,47,6.5,47.2,7.1,47.2
	s1.3-0.2,2-0.6l25.5-14.5l8.7-5c1.1-0.6,1.7-1.4,1.8-2.3l0,0c-0.1-0.8-0.7-1.6-1.8-2.3l-8.7-5L9.2,3.1c-0.7-0.4-1.4-0.6-2-0.6
	S6.1,2.7,5.7,3.1L5.7,3.1z"/>
<linearGradient id="SVGID_1_" gradientUnits="userSpaceOnUse" x1="1344.2319" y1="-441.995" x2="1308.2849" y2="-372.8625" gradientTransform="matrix(0.2221 0 0 0.4265 -279.7951 193.6648)">
	<stop  offset="0" style="stop-color:#00A0FF"/>
	<stop  offset="6.569999e-03" style="stop-color:#00A1FF"/>
	<stop  offset="0.2601" style="stop-color:#00BEFF"/>
	<stop  offset="0.5122" style="stop-color:#00D2FF"/>
	<stop  offset="0.7604" style="stop-color:#00DFFF"/>
	<stop  offset="1" style="stop-color:#00E3FF"/>
</linearGradient>
<path fill="url(#SVGID_1_)" d="M5.7,46.6L5.7,46.6C5.1,46,4.8,45.1,4.8,44v0.3V5.4v0.3c0-1.2,0.4-2.1,0.9-2.6l21.7,21.8L5.7,46.6"/>
<linearGradient id="SVGID_2_" gradientUnits="userSpaceOnUse" x1="681.8632" y1="-432.3198" x2="557.444" y2="-432.3198" gradientTransform="matrix(0.3411 0 0 0.2777 -185.9969 144.8552)">
	<stop  offset="0" style="stop-color:#FFE000"/>
	<stop  offset="0.4087" style="stop-color:#FFBD00"/>
	<stop  offset="0.7754" style="stop-color:#FFA500"/>
	<stop  offset="1" style="stop-color:#FF9C00"/>
</linearGradient>
<path fill="url(#SVGID_2_)" d="M34.7,32.1l-7.2-7.3l7.2-7.3l8.7,5c1.1,0.6,1.7,1.4,1.8,2.3l0,0c-0.1,0.8-0.7,1.6-1.8,2.3L34.7,32.1"
	/>
<linearGradient id="SVGID_3_" gradientUnits="userSpaceOnUse" x1="852.8411" y1="-644.3054" x2="739.4348" y2="-557.3801" gradientTransform="matrix(0.3506 0 0 0.2702 -270.1827 203.8271)">
	<stop  offset="0" style="stop-color:#FF3A44"/>
	<stop  offset="1" style="stop-color:#C31162"/>
</linearGradient>
<path fill="url(#SVGID_3_)" d="M7.2,47.2c-0.6,0-1.1-0.2-1.5-0.6l0,0l21.7-21.8l7.2,7.3L9.2,46.6C8.5,47,7.8,47.2,7.2,47.2"/>
<linearGradient id="SVGID_4_" gradientUnits="userSpaceOnUse" x1="765.3432" y1="-426.203" x2="815.9053" y2="-387.3885" gradientTransform="matrix(0.3506 0 0 0.2702 -270.1147 116.934)">
	<stop  offset="0" style="stop-color:#32A071"/>
	<stop  offset="6.850000e-02" style="stop-color:#2DA771"/>
	<stop  offset="0.4762" style="stop-color:#15CF74"/>
	<stop  offset="0.8009" style="stop-color:#06E775"/>
	<stop  offset="1" style="stop-color:#00F076"/>
</linearGradient>
<path fill="url(#SVGID_4_)" d="M27.4,24.8L5.7,3.1c0.4-0.4,0.9-0.6,1.5-0.6s1.3,0.2,2,0.6l25.5,14.5L27.4,24.8"/>
<linearGradient id="SVGID_5_" gradientUnits="userSpaceOnUse" x1="786.1229" y1="-256.9726" x2="786.1229" y2="-256.9726" gradientTransform="matrix(0.3506 0 0 0.2702 -270.1147 116.934)">
	<stop  offset="0" style="stop-color:#32A071"/>
	<stop  offset="6.850000e-02" style="stop-color:#2DA771"/>
	<stop  offset="0.4762" style="stop-color:#15CF74"/>
	<stop  offset="0.8009" style="stop-color:#06E775"/>
	<stop  offset="1" style="stop-color:#00F076"/>
</linearGradient>
<path fill="url(#SVGID_5_)" d="M5.5,47.5"/>
<linearGradient id="SVGID_6_" gradientUnits="userSpaceOnUse" x1="1610.662" y1="-348.1935" x2="1591.2158" y2="-291.8633" gradientTransform="matrix(0.181 0 0 0.5234 -281.7268 189.4061)">
	<stop  offset="0" style="stop-color:#008DE0"/>
	<stop  offset="6.569999e-03" style="stop-color:#008DE0"/>
	<stop  offset="0.2601" style="stop-color:#00A7E0"/>
	<stop  offset="0.5122" style="stop-color:#00B8E0"/>
	<stop  offset="0.7604" style="stop-color:#00C4E0"/>
	<stop  offset="1" style="stop-color:#00C7E0"/>
</linearGradient>
<path fill="url(#SVGID_6_)" d="M5.6,46.7c-0.5-0.5-0.8-1.4-0.8-2.5V44c0,1.1,0.3,1.9,0.8,2.5l0.1,0.1L5.6,46.7"/>
<linearGradient id="SVGID_7_" gradientUnits="userSpaceOnUse" x1="552.4536" y1="-457.0745" x2="437.0051" y2="-457.0745" gradientTransform="matrix(0.3676 0 0 0.2577 -156.4952 146.3381)">
	<stop  offset="0" style="stop-color:#E0C500"/>
	<stop  offset="0.4087" style="stop-color:#E0A600"/>
	<stop  offset="0.7754" style="stop-color:#E09100"/>
	<stop  offset="1" style="stop-color:#E08900"/>
</linearGradient>
<path fill="url(#SVGID_7_)" d="M34.8,32.3l-0.2-0.2l8.7-5c1.1-0.6,1.7-1.4,1.8-2.3c0,0.3-0.1,0.6-0.2,0.9c-0.3,0.6-0.8,1.2-1.6,1.6
	L34.8,32.3"/>
<linearGradient id="SVGID_8_" gradientUnits="userSpaceOnUse" x1="552.4614" y1="-374.5588" x2="437.0114" y2="-374.5588" gradientTransform="matrix(0.3676 0 0 0.2577 -156.4952 117.5738)">
	<stop  offset="0" style="stop-color:#FFE840"/>
	<stop  offset="0.4087" style="stop-color:#FFCE40"/>
	<stop  offset="0.7754" style="stop-color:#FFBC40"/>
	<stop  offset="1" style="stop-color:#FFB540"/>
</linearGradient>
<path fill="url(#SVGID_8_)" d="M45.3,24.8c-0.1-0.8-0.7-1.6-1.8-2.3l-8.7-5l0.2-0.2l0,0l8.6,4.9C44.6,23,45.3,23.9,45.3,24.8"/>
<linearGradient id="SVGID_9_" gradientUnits="userSpaceOnUse" x1="1588.6034" y1="-50.4225" x2="1569.2662" y2="3.3124" gradientTransform="matrix(0.1807 0 0 0.5242 -281.741 29.1104)">
	<stop  offset="0" style="stop-color:#40B8FF"/>
	<stop  offset="6.569999e-03" style="stop-color:#40B9FF"/>
	<stop  offset="0.2601" style="stop-color:#40CEFF"/>
	<stop  offset="0.5122" style="stop-color:#40DDFF"/>
	<stop  offset="0.7604" style="stop-color:#40E7FF"/>
	<stop  offset="1" style="stop-color:#40EAFF"/>
</linearGradient>
<path fill="url(#SVGID_9_)" d="M4.7,5.7V5.4c0-0.1,0-0.2,0-0.3l0,0l0,0l0,0C4.8,4.2,5,3.4,5.5,2.9L5.6,3C5.1,3.6,4.7,4.5,4.7,5.7"/>
<linearGradient id="SVGID_10_" gradientUnits="userSpaceOnUse" x1="1589.6014" y1="-21.958" x2="1589.6014" y2="-21.958" gradientTransform="matrix(0.1807 0 0 0.5242 -281.741 29.1104)">
	<stop  offset="0" style="stop-color:#40B8FF"/>
	<stop  offset="6.569999e-03" style="stop-color:#40B9FF"/>
	<stop  offset="0.2601" style="stop-color:#40CEFF"/>
	<stop  offset="0.5122" style="stop-color:#40DDFF"/>
	<stop  offset="0.7604" style="stop-color:#40E7FF"/>
	<stop  offset="1" style="stop-color:#40EAFF"/>
</linearGradient>
<path fill="url(#SVGID_10_)" d="M5.5,17.6"/>
</svg>
