<?xml version="1.0" encoding="utf-8"?>
<!-- Generator: Adobe Illustrator 23.0.0, SVG Export Plug-In . SVG Version: 6.00 Build 0)  -->
<svg version="1.0" id="Layer_1" xmlns="http://www.w3.org/2000/svg" xmlns:xlink="http://www.w3.org/1999/xlink" x="0px" y="0px"
	 viewBox="0 0 50 50" enable-background="new 0 0 50 50" xml:space="preserve">
<rect fill="#FFFFFF" width="50" height="50"/>
<path id="in" fill="#0073B0" d="M11.7,20.1h5.5v17.4h-5.5C11.7,37.5,11.7,20.1,11.7,20.1z M35.1,20.9c-2.7-2.2-6.7-1.7-8.9,1
	c0,0.1-0.1,0.1-0.1,0.2S26,22.2,26,22.3v-2.2h-5.5v17.4H26v-8.9c-0.2-1.9,1.1-3.7,2.9-4.2c0.2,0,0.3-0.1,0.5-0.1
	c1.5,0,2.7,1.1,2.7,2.6l0,0v10.6h5.5v-12C37.3,23.7,36.5,22,35.1,20.9L35.1,20.9z M14.5,11.8c-1.6,0-2.9,1.2-2.9,2.7
	c0,1.6,1.2,2.9,2.7,2.9c1.6,0,2.9-1.2,2.9-2.7v-0.1C17.3,13.1,16,11.8,14.5,11.8z"/>
</svg>
