<?xml version="1.0" encoding="utf-8"?>
<!-- Generator: Adobe Illustrator 23.0.0, SVG Export Plug-In . SVG Version: 6.00 Build 0)  -->
<svg version="1.0" id="Layer_1" xmlns="http://www.w3.org/2000/svg" xmlns:xlink="http://www.w3.org/1999/xlink" x="0px" y="0px"
	 width="50px" height="50px" viewBox="0 0 50 50" enable-background="new 0 0 50 50" xml:space="preserve">
<rect fill="#053EFF" width="50" height="50"/>
<g>
	<path fill="#FFFFFF" d="M21.8,23.7c-0.1,0-0.2,0.1-0.3-0.1c0.1-0.1,0.3-0.2,0.5-0.2c1.7-0.6,2.6-1.8,2.9-3.5c0.1-0.6,0.1-1.3,0-1.9
		c-0.3-2.4-1.4-4.1-3.6-5.1c-1.2-0.5-2.5-0.7-3.8-0.7c-3.9,0-7.8,0-11.8,0C5.2,12.3,5,12.4,5,13c0,7.8,0,15.6,0,23.4
		c0,0.6,0.1,0.7,0.7,0.7c3.9,0,7.8,0,11.7,0c0.9,0,1.9-0.1,2.8-0.3c2.1-0.5,3.9-1.5,4.8-3.6c1.1-2.3,1-4.7,0.1-7.1
		C24.5,24.8,23.4,23.9,21.8,23.7z M11.2,16.7c1.1,0,2.2,0,3.3,0c1,0,2,0,3,0c1.2,0,1.9,0.6,2.1,1.7c0.1,0.8,0.1,1.5-0.1,2.3
		c-0.2,1-0.7,1.5-1.7,1.5c-2.2,0.1-4.5,0-6.7,0c-0.3,0-0.4-0.1-0.4-0.4c0-1.6,0-3.2,0-4.8C10.7,16.7,10.9,16.7,11.2,16.7z
		 M20.4,30.5c-0.3,1.3-1,1.9-2.3,2.2c-0.6,0.1-1.2,0.1-1.8,0.1c-1.7,0-3.4,0-5.1,0c-0.3,0-0.6,0-0.6-0.5c0-1.9,0-3.8,0-5.7
		c0-0.4,0.2-0.5,0.5-0.5c1.1,0,2.2,0,3.3,0c1,0,2,0,3,0c1.4,0,2.4,0.7,2.8,2.1C20.6,29,20.6,29.7,20.4,30.5z"/>
	<path fill="#FFFFFF" d="M32.7,29.4c2,0,3.9,0,5.9,0c2,0,3.9,0,5.9,0c0.4,0,0.6-0.1,0.6-0.6c0-1.6-0.1-3.1-0.5-4.6
		c-0.7-2.3-2.1-4-4.4-4.9c-1.9-0.8-3.9-0.8-6-0.4c-1.7,0.3-3.2,1-4.4,2.2c-2.5,2.7-3.3,5.9-2.6,9.5c0.5,2.8,2,5,4.6,6.1
		c3,1.3,6.2,1.3,9.2,0.1c2.4-0.9,3.7-2.7,3.9-5.3c0-0.4,0-0.5-0.4-0.5c-1.2,0-2.3,0-3.5,0c-0.3,0-0.4,0.1-0.5,0.4
		c-0.2,1-0.9,1.6-1.8,1.9c-1,0.4-2,0.4-3,0.3c-2-0.3-3.3-1.6-3.5-3.6C32.1,29.5,32.2,29.4,32.7,29.4z M32.2,25.5
		c0.7-2.5,3.1-3.8,5.6-3.1c1.3,0.4,2.4,1.8,2.4,3.2c0,0.4-0.2,0.4-0.5,0.4c-1.2,0-2.4,0-3.5,0c-1.2,0-2.4,0-3.5,0
		C32.2,26.1,32,26,32.2,25.5z"/>
	<path fill="#FFFFFF" d="M31.6,16.8c1.5,0,3,0,4.5,0c1.5,0,3.1,0,4.6,0c0.4,0,0.5-0.1,0.5-0.5c0-0.7,0-1.4,0-2.1
		c0-0.3-0.1-0.5-0.5-0.5c-3.1,0-6.2,0-9.3,0c-0.4,0-0.5,0.2-0.5,0.5c0,0.6,0,1.3,0,1.9C30.9,16.7,31.1,16.8,31.6,16.8z"/>
</g>
</svg>
