<?xml version="1.0" encoding="utf-8"?>
<!-- Generator: Adobe Illustrator 23.0.0, SVG Export Plug-In . SVG Version: 6.00 Build 0)  -->
<svg version="1.0" id="Layer_1" xmlns="http://www.w3.org/2000/svg" xmlns:xlink="http://www.w3.org/1999/xlink" x="0px" y="0px"
	 viewBox="0 0 50 50" enable-background="new 0 0 50 50" xml:space="preserve">
<path fill="#FFFFFF" d="M25.7,9.7c1.7,0,3.2,0,4.9,0c0.5,4.7,3,7.3,7.8,7.7c0,1.6,0,3.2,0,4.9c-2.8-0.1-5.4-1-7.8-2.6
	c0,0.3,0,0.6,0,0.8c0,3.7,0.1,7.3-0.1,11c-0.2,4.6-4.1,8.4-8.7,8.7c-4.8,0.3-9.1-2.9-10-7.5c-1.2-6,3.2-11.4,9.3-11.5
	c0.5,0,1,0,1.5,0c0,1.6,0,3.2,0,4.9c-0.5,0-1,0-1.5,0c-2.5,0-4.4,1.8-4.6,4.3c-0.2,2.3,1.5,4.4,3.8,4.8c2.5,0.5,5.1-1.4,5.3-4
	c0-0.4,0-0.8,0-1.2c0-6.5,0-13.1,0-19.6C25.7,10.3,25.7,10,25.7,9.7z"/>
</svg>
