<?xml version="1.0" encoding="utf-8"?>
<!-- Generator: Adobe Illustrator 23.0.0, SVG Export Plug-In . SVG Version: 6.00 Build 0)  -->
<svg version="1.0" id="Layer_1" xmlns="http://www.w3.org/2000/svg" xmlns:xlink="http://www.w3.org/1999/xlink" x="0px" y="0px"
	 viewBox="0 0 50 50" enable-background="new 0 0 50 50" xml:space="preserve">
<linearGradient id="SVGID_1_" gradientUnits="userSpaceOnUse" x1="25" y1="50" x2="25" y2="-9.094947e-13">
	<stop  offset="0" style="stop-color:#1D93D2"/>
	<stop  offset="1" style="stop-color:#38B0E3"/>
</linearGradient>
<rect fill="url(#SVGID_1_)" width="50" height="50"/>
<path fill="#C8DAEA" d="M16.9,26.8l3,8.2c0,0,0.4,0.8,0.8,0.8s6.3-6.1,6.3-6.1L33.5,17L17,24.7L16.9,26.8z"/>
<path fill="#A9C6D8" d="M20.9,28.9L20.3,35c0,0-0.2,1.9,1.6,0c1.9-1.9,3.6-3.3,3.6-3.3"/>
<path fill="#FFFFFF" d="M17,27.1l-6.1-2c0,0-0.7-0.3-0.5-1c0-0.1,0.1-0.3,0.4-0.5c1.4-0.9,25-9.4,25-9.4s0.7-0.2,1.1-0.1
	c0.2,0.1,0.3,0.2,0.4,0.4c0,0.2,0.1,0.4,0.1,0.5c0,0.2,0,0.3,0,0.5c-0.1,2.3-4.5,19.7-4.5,19.7s-0.3,1-1.2,1.1
	c-0.5,0-0.9-0.2-1.2-0.5c-1.8-1.6-8.1-5.8-9.5-6.7c-0.1,0-0.1-0.1-0.1-0.2c0-0.1,0.1-0.2,0.1-0.2s10.9-9.7,11.2-10.7
	c0-0.1-0.1-0.1-0.2-0.1c-0.7,0.3-13.3,8.2-14.7,9.1C17.2,27.1,17.1,27.1,17,27.1z"/>
</svg>
