<?xml version="1.0" encoding="utf-8"?>
<!-- Generator: Adobe Illustrator 23.0.0, SVG Export Plug-In . SVG Version: 6.00 Build 0)  -->
<svg version="1.0" id="Layer_1" xmlns="http://www.w3.org/2000/svg" xmlns:xlink="http://www.w3.org/1999/xlink" x="0px" y="0px"
	 width="50px" height="50px" viewBox="0 0 50 50" enable-background="new 0 0 50 50" xml:space="preserve">
<path fill="#34A853" d="M33.6,18.5L10.8,5.3c-1-0.6-2.2-0.4-3,0.4L27,25.1L33.6,18.5z"/>
<path fill="#4285F4" d="M7.8,5.7c-0.4,0.4-0.7,1-0.7,1.7v6.9v28.3c0,0.7,0.3,1.2,0.7,1.7l15.6-15.5l3.6-3.7L7.8,5.7z"/>
<path fill="#EA4335" d="M27,25.1L7.8,44.3c0.2,0.2,0.4,0.4,0.7,0.5c0.6,0.3,1.4,0.3,2.1,0c0.1,0,22.9-13.3,22.9-13.3L27,25.1z"/>
<path fill="#FBBC05" d="M41.9,23.2l-8.3-4.7L27,25.1l6.5,6.4l8.3-4.8C43.3,25.9,43.3,24.1,41.9,23.2z"/>
</svg>
