<?xml version="1.0" encoding="utf-8"?>
<!-- Generator: Adobe Illustrator 23.0.0, SVG Export Plug-In . SVG Version: 6.00 Build 0)  -->
<svg version="1.0" id="Layer_1" xmlns="http://www.w3.org/2000/svg" xmlns:xlink="http://www.w3.org/1999/xlink" x="0px" y="0px"
	 viewBox="0 0 50 50" enable-background="new 0 0 50 50" xml:space="preserve">
<radialGradient id="insta3_1_" cx="-1187.2869" cy="-544.0035" r="0.9917" gradientTransform="matrix(3.061434e-15 -50.004 -46.5472 -2.850594e-15 -25308.2383 -59314.9883)" gradientUnits="userSpaceOnUse">
	<stop  offset="0" style="stop-color:#FFDD55"/>
	<stop  offset="0.1" style="stop-color:#FFDD55"/>
	<stop  offset="0.5" style="stop-color:#FF543E"/>
	<stop  offset="1" style="stop-color:#C837AB"/>
</radialGradient>
<path id="insta3" fill="url(#insta3_1_)" d="M0,0v50h50V0H0z"/>
<radialGradient id="insta2_1_" cx="-1128.5187" cy="-513.863" r="0.4764" gradientTransform="matrix(9.7994 49.0539 202.1879 -40.5032 114951.5 34546.6406)" gradientUnits="userSpaceOnUse">
	<stop  offset="0" style="stop-color:#3771C8"/>
	<stop  offset="0.128" style="stop-color:#3771C8"/>
	<stop  offset="1" style="stop-color:#6600FF;stop-opacity:0"/>
</radialGradient>
<path id="insta2" fill="url(#insta2_1_)" d="M0,0v50h50L49.9,0H0z"/>
<path id="insta1" fill="#FFFFFF" d="M25,10c-4.1,0-4.5,0-6.2,0.1c-1.2,0-2.4,0.2-3.6,0.7c-2,0.8-3.6,2.4-4.4,4.4
	c-0.4,1.1-0.6,2.4-0.7,3.6C10,20.5,10,20.9,10,25s0,4.5,0.1,6.2c0,1.2,0.2,2.4,0.7,3.6c0.8,2,2.4,3.6,4.4,4.4
	c1.1,0.4,2.4,0.6,3.6,0.7C20.5,40,20.9,40,25,40s4.5,0,6.2-0.1c1.2,0,2.4-0.2,3.6-0.7c2-0.8,3.6-2.4,4.4-4.4
	c0.4-1.1,0.6-2.4,0.7-3.6C40,29.5,40,29.1,40,25s0-4.5-0.1-6.2c0-1.2-0.2-2.4-0.7-3.6c-0.8-2-2.4-3.6-4.4-4.4
	c-1.1-0.4-2.4-0.6-3.6-0.7C29.5,10.1,29.1,10,25,10L25,10z M23.6,12.8H25c4,0,4.5,0,6.1,0.1c1,0,1.9,0.2,2.8,0.5
	c1.3,0.5,2.4,1.5,2.8,2.8c0.3,0.9,0.5,1.9,0.5,2.8c0.1,1.5,0.1,2,0.1,6.1s0,4.5-0.1,6.1c0,1-0.2,1.9-0.5,2.8
	c-0.5,1.3-1.5,2.4-2.8,2.8c-0.9,0.3-1.9,0.5-2.8,0.5c-1.5,0.1-2,0.1-6.1,0.1s-4.5,0-6.1-0.1c-1,0-1.9-0.2-2.8-0.5
	c-1.3-0.5-2.4-1.5-2.8-2.8c-0.3-0.9-0.5-1.9-0.5-2.8c-0.1-1.5-0.1-2-0.1-6.1s0-4.5,0.1-6.1c0-1,0.2-1.9,0.5-2.8
	c0.5-1.3,1.5-2.4,2.8-2.8c0.9-0.3,1.9-0.5,2.8-0.5C20.3,12.8,20.9,12.8,23.6,12.8L23.6,12.8z M32.9,15.2c-1,0-1.8,0.8-1.8,1.8
	s0.8,1.8,1.8,1.8c1,0,1.8-0.8,1.8-1.8S34,15.2,32.9,15.2L32.9,15.2z M25,17.3c-4.2,0-7.7,3.4-7.7,7.7c0,4.2,3.4,7.7,7.7,7.7
	c4.2,0,7.7-3.4,7.7-7.7l0,0C32.7,20.8,29.2,17.3,25,17.3z M25,20c2.8,0,5,2.3,5,5s-2.3,5-5,5s-5-2.3-5-5l0,0C20,22.2,22.2,20,25,20z
	"/>
</svg>
