<?xml version="1.0" encoding="utf-8"?>
<!-- Generator: Adobe Illustrator 23.0.0, SVG Export Plug-In . SVG Version: 6.00 Build 0)  -->
<svg version="1.0" id="Layer_1" xmlns="http://www.w3.org/2000/svg" xmlns:xlink="http://www.w3.org/1999/xlink" x="0px" y="0px"
	 width="50px" height="50px" viewBox="0 0 50 50" enable-background="new 0 0 50 50" xml:space="preserve">
<g>
	<g>
		<path fill="#FFFFFF" d="M27.6,47.5c-1.3,0-2.7,0-4,0c-0.4,0-0.8-0.1-1.2-0.1c-6.2-0.7-11.4-3.3-15.3-8.3C3.2,34,2,28.3,2.7,22
			c0.6-5,2.5-9.4,6.1-13.1c3.4-3.4,7.6-5.4,12.4-6.1c0.8-0.1,1.6-0.2,2.4-0.3c0.9,0,1.9,0,2.8,0c0.8,0.1,1.5,0.2,2.3,0.3
			c4.2,0.6,8.1,2.2,11.3,5.1c4,3.5,6.3,8,7.1,13.2c0.1,0.8,0.2,1.7,0.3,2.5c0,0.8,0,1.7,0,2.5c0,0.4-0.1,0.8-0.1,1.2
			c-0.1,1.4-1.1,2.3-2.3,2.1c-1.1-0.1-1.9-1.3-1.8-2.6c0-0.4,0.1-0.8,0.1-1.2c0.1-1.8-0.1-3.5-0.5-5.2c-2.7-0.1-5.6-0.1-8.6-0.1
			c0.1,0.8,0.1,1.5,0.2,2.3c0,0.8,0,1.5,0,2.3c0,1.4-1,2.5-2.3,2.5c-1.3,0-2.3-1-2.4-2.5c-0.1-1.4-0.1-2.8-0.2-4.2
			c0-0.4-0.1-0.5-0.5-0.5c-2.7,0-5.5,0-8.2,0c-0.1,0-0.3,0-0.4,0c-0.3,3.2-0.3,6.4,0,9.5c1.5,0,3,0,4.4,0c1.4,0,2.5,1,2.5,2.4
			c0,1.3-1.1,2.3-2.5,2.3c-1,0-2.1,0-3.1,0c-0.2,0-0.3,0-0.5,0c0,0.1,0,0.1,0,0.2c0.8,3.1,1.9,6,3.5,8.5c0.1,0.1,0.3,0.2,0.5,0.3
			c0.7,0,1.3,0,2,0c1.5,0,2.6,1.4,2.1,2.7C29.1,46.9,28.5,47.3,27.6,47.5z M15.6,20.3c0,0-0.1,0-0.1,0c-2.8,0-5.4,0.1-8,0.1
			c-0.3,0-0.3,0.1-0.4,0.4c-0.6,2.8-0.6,5.6,0,8.4c0.1,0.4,0.2,0.5,0.5,0.5c2.4,0,5,0.1,7.6,0.1c0.1,0,0.3,0,0.4,0
			C15.6,26.6,15.6,23.4,15.6,20.3z M41,15.8c-2.4-4.1-5.8-6.9-10.3-8.3c0,0.1,0.1,0.2,0.1,0.2c1.2,2.3,2.1,4.9,2.7,7.6
			c0.1,0.3,0.3,0.3,0.5,0.3c1.9,0,3.7,0.1,5.5,0.1C39.9,15.7,40.4,15.7,41,15.8z M9,15.7c0.2,0,0.2,0,0.3,0c2.2-0.1,4.5-0.1,6.8-0.2
			c0.3,0,0.4-0.1,0.4-0.4c0.6-2,1.2-4,1.9-5.9c0.2-0.6,0.5-1.2,0.8-1.9C14.8,8.9,11.4,11.7,9,15.7z M9,34.3c2.4,4,5.8,6.8,10.3,8.3
			c-1.3-2.6-2.2-5.2-2.8-8.1C13.9,34.4,11.5,34.3,9,34.3z M28.7,15.5c-0.8-3.3-2-6.2-3.7-8.8c-1.7,2.6-2.9,5.6-3.7,8.8
			C23.8,15.5,26.2,15.5,28.7,15.5z"/>
		<path fill="#FFFFFF" d="M45.9,37.6c0,0.5-0.3,0.9-0.7,1.1c-1.1,0.6-2.2,1.2-3.4,1.8c-0.5,0.2-0.8,0.6-1.1,1.1
			c-0.6,1.1-1.2,2.2-1.8,3.3c-0.2,0.5-0.6,0.8-1.1,0.8c-0.6,0-0.9-0.3-1.1-0.7c-1.7-3.8-3.5-7.8-5.4-12.1c-0.3-0.6-0.2-1.1,0.2-1.5
			c0.4-0.4,0.9-0.5,1.5-0.2c4.2,1.9,8.3,3.7,12.1,5.4C45.6,36.7,45.9,37,45.9,37.6z"/>
	</g>
</g>
</svg>
