<?xml version="1.0" encoding="utf-8"?>
<!-- Generator: Adobe Illustrator 23.0.0, SVG Export Plug-In . SVG Version: 6.00 Build 0)  -->
<svg version="1.0" id="Layer_1" xmlns="http://www.w3.org/2000/svg" xmlns:xlink="http://www.w3.org/1999/xlink" x="0px" y="0px"
	 width="50px" height="50px" viewBox="0 0 50 50" enable-background="new 0 0 50 50" xml:space="preserve">
<path fill="#FFFFFF" d="M25.2,42.2c-0.1,0-0.2,0-0.3,0c-0.1,0-0.1,0-0.2,0c-2.2,0-3.6-1-4.9-1.9C18.9,39.6,18,39,17,38.8
	c-0.5-0.1-1-0.1-1.5-0.1c-0.9,0-1.6,0.1-2.1,0.2C13.2,39,12.9,39,12.7,39c-0.2,0-0.5,0-0.6-0.4C12,38.3,12,38,11.9,37.8
	c-0.1-0.7-0.3-1.1-0.5-1.1c-2.7-0.4-4.4-1-4.7-1.8c0-0.1-0.1-0.2-0.1-0.2c0-0.2,0.1-0.4,0.4-0.5c2.2-0.4,4.1-1.5,5.7-3.4
	c1.3-1.5,1.9-2.9,2-3c0,0,0,0,0,0c0.3-0.6,0.4-1.2,0.2-1.6c-0.4-0.8-1.5-1.2-2.3-1.4c-0.2-0.1-0.4-0.1-0.5-0.2
	c-0.7-0.3-1.8-0.8-1.7-1.6c0.1-0.6,0.9-1,1.5-1c0.2,0,0.3,0,0.4,0.1c0.7,0.3,1.3,0.5,1.9,0.5c0.7,0,1-0.3,1.1-0.3
	c0-0.4,0-0.7-0.1-1.1c0,0,0,0,0,0c-0.2-2.5-0.4-5.6,0.4-7.4c2.4-5.3,7.4-5.7,8.9-5.7c0,0,0.6,0,0.6,0c0,0,0.1,0,0.1,0
	c1.5,0,6.5,0.4,8.9,5.8c0.8,1.8,0.6,4.9,0.4,7.4l0,0.1c0,0.3,0,0.7-0.1,1c0.1,0.1,0.4,0.3,1,0.3c0.5,0,1.1-0.2,1.7-0.5
	c0.2-0.1,0.4-0.1,0.6-0.1c0.2,0,0.5,0,0.7,0.1l0,0c0.6,0.2,0.9,0.6,0.9,1c0,0.4-0.3,1-1.7,1.5c-0.1,0.1-0.3,0.1-0.5,0.2
	c-0.8,0.2-1.9,0.6-2.3,1.4c-0.2,0.5-0.1,1,0.2,1.6c0,0,0,0,0,0c0.1,0.2,2.5,5.6,7.7,6.5c0.2,0,0.4,0.2,0.4,0.5c0,0.1,0,0.2-0.1,0.2
	c-0.3,0.7-1.9,1.4-4.7,1.8c-0.3,0-0.4,0.5-0.5,1.1c-0.1,0.3-0.1,0.6-0.2,0.8c-0.1,0.3-0.3,0.4-0.5,0.4h0c-0.2,0-0.4,0-0.8-0.1
	c-0.6-0.1-1.2-0.2-2.1-0.2c-0.5,0-1,0-1.5,0.1c-1,0.2-1.9,0.8-2.8,1.4C28.9,41.2,27.4,42.2,25.2,42.2"/>
</svg>
