<?xml version="1.0" encoding="utf-8"?>
<!-- Generator: Adobe Illustrator 23.0.0, SVG Export Plug-In . SVG Version: 6.00 Build 0)  -->
<svg version="1.0" id="Layer_1" xmlns="http://www.w3.org/2000/svg" xmlns:xlink="http://www.w3.org/1999/xlink" x="0px" y="0px"
	 width="50px" height="50px" viewBox="0 0 50 50" enable-background="new 0 0 50 50" xml:space="preserve">
<g>
	<path fill="#1AB7EA" d="M50,0.2c0,16.5,0,33.1,0,49.6c-0.3,0.1-0.5,0.1-0.8,0.1c-16.1,0-32.1,0-48.2,0c-0.3,0-0.6,0-0.8-0.1
		c-0.1-0.3-0.1-0.5-0.1-0.8c0-16,0-32,0-48c0-0.3,0-0.6,0.1-0.8c0.3-0.1,0.6-0.1,0.9-0.1c16,0,32,0,48,0C49.4,0.1,49.7,0.1,50,0.2z"
		/>
	<path fill="#FEFEFE" d="M27,17.6c0.7-2.2,1.5-4.1,3-5.6c2.3-2.5,5.3-3.2,8.5-2.6c2.2,0.4,3.5,2.3,3.8,5c0.2,2.4-0.3,4.7-1.3,6.9
		c-2.3,4.9-5.5,9-9,13c-1.3,1.5-2.8,2.9-4.4,4c-1.1,0.8-2.3,1.4-3.6,1.8c-1.9,0.5-3.4,0-4.6-1.5c-1.1-1.4-1.9-3-2.4-4.8
		c-1-3.4-1.9-6.9-2.8-10.3c-0.4-1.4-0.9-2.9-1.7-4.2c-0.9-1.5-1.5-1.6-3-0.7c0,0-0.1,0.1-0.1,0.1c-0.5,0.3-1.1,1-1.4,0.8
		c-0.6-0.4-1-1.2-1.5-1.8c-0.2-0.2,0-0.4,0.2-0.5c2.5-2.1,4.8-4.5,7.5-6.4c0.5-0.3,1-0.7,1.6-0.9c2-0.9,4-0.3,5.2,1.6
		c0.8,1.3,1.1,2.8,1.3,4.3c0.5,3.2,1,6.5,1.8,9.6c0.3,1,0.6,2,1.1,2.8c0.6,1,1.3,1.1,2.1,0.3c2.2-2.3,3.9-4.9,4.7-7.9
		c0.7-2.7-0.6-4-3.4-3.5C28.1,17.3,27.6,17.4,27,17.6z"/>
</g>
</svg>
