<?xml version="1.0" encoding="utf-8"?>
<!-- Generator: Adobe Illustrator 23.0.0, SVG Export Plug-In . SVG Version: 6.00 Build 0)  -->
<svg version="1.0" id="globes" xmlns="http://www.w3.org/2000/svg" xmlns:xlink="http://www.w3.org/1999/xlink" x="0px" y="0px"
	 viewBox="0 0 400 400" enable-background="new 0 0 400 400" xml:space="preserve">
<path id="path11833_1_" opacity="0.5" fill="#86CAD9" enable-background="new    " d="M400,200c0.5-68.8-37.3-136.1-96.4-171.2
	C244.1-8,165.1-9.7,104,24.6C43.2,57.3,2,123.8,0.5,193.1c-3.5,73,37.4,145.8,101.2,181c60.6,35.2,139.8,34.5,199.8-1.8
	C361.9,337.6,400.5,269.6,400,200L400,200z"/>
<g id="Land">
	
		<path id="path10237" opacity="0.5" fill="#FFFFFF" stroke="#000000" stroke-width="0.25" stroke-linecap="round" stroke-linejoin="round" enable-background="new    " d="
		M193.5,0C191.9-0.1,198.3,0.4,193.5,0L193.5,0z"/>
	
		<path id="path10235" opacity="0.5" fill="#FFFFFF" stroke="#000000" stroke-width="0.25" stroke-linecap="round" stroke-linejoin="round" enable-background="new    " d="
		M193.1,0.3c-7.8,0.1-19.1,1.2-24.9,2.3c-2.1,0.4-4.2,0.8-6.3,1.2c3-0.3,3.9-0.4,2.5-0.4c1.5-0.1,1.5-0.2,4.9-0.4
		c-2.7-0.6,3.1,0-0.2,0.2c8.3,0,17-1,27.7-1.6c-0.1-0.6-0.9-0.2-2-0.6c0.8-0.1,1.6-0.3,2.4-0.4C195.8,0.5,194.5,0.4,193.1,0.3z"/>
	
		<path id="path10233" opacity="0.5" fill="#FFFFFF" stroke="#000000" stroke-width="0.25" stroke-linecap="round" stroke-linejoin="round" enable-background="new    " d="
		M161.8,3.8c5.3-0.5-5.9,1-3.2,0.5c-2.5,0.7-1.3,0.4-3.8,1C157.2,5,159.3,4.2,161.8,3.8z"/>
	
		<path id="path10231" opacity="0.5" fill="#FFFFFF" stroke="#000000" stroke-width="0.25" stroke-linecap="round" stroke-linejoin="round" enable-background="new    " d="
		M154.7,5.2c-0.4,0.1-0.7,0.2-1.1,0.3C154,5.4,154.3,5.3,154.7,5.2z"/>
	
		<path id="path10229" opacity="0.5" fill="#FFFFFF" stroke="#000000" stroke-width="0.25" stroke-linecap="round" stroke-linejoin="round" enable-background="new    " d="
		M153.7,5.5L150.9,6C151.9,6,152.8,5.8,153.7,5.5z"/>
	
		<path id="path10227" opacity="0.5" fill="#FFFFFF" stroke="#000000" stroke-width="0.25" stroke-linecap="round" stroke-linejoin="round" enable-background="new    " d="
		M150.9,6C145.6,7.3,152.3,5.6,150.9,6L150.9,6z"/>
	
		<path id="path10225" opacity="0.5" fill="#FFFFFF" stroke="#000000" stroke-width="0.25" stroke-linecap="round" stroke-linejoin="round" enable-background="new    " d="
		M150.1,6.3C148.3,6.4,152.2,6.2,150.1,6.3z"/>
	
		<path id="path10223" opacity="0.5" fill="#FFFFFF" stroke="#000000" stroke-width="0.25" stroke-linecap="round" stroke-linejoin="round" enable-background="new    " d="
		M167.5,2.7h-0.4C167.2,2.7,167.4,2.7,167.5,2.7z"/>
	
		<path id="path10221" opacity="0.5" fill="#FFFFFF" stroke="#000000" stroke-width="0.25" stroke-linecap="round" stroke-linejoin="round" enable-background="new    " d="
		M167.1,2.7c-0.5,0-1,0-1.5,0.2C166.1,2.8,166.6,2.8,167.1,2.7z"/>
	
		<path id="path10217" opacity="0.5" fill="#FFFFFF" stroke="#000000" stroke-width="0.25" stroke-linecap="round" stroke-linejoin="round" enable-background="new    " d="
		M206.7,0.1c1.2,0,2.3,0.1,3.5,0.1C209,0.2,207.9,0.1,206.7,0.1z"/>
	
		<path id="path10215" opacity="0.5" fill="#FFFFFF" stroke="#000000" stroke-width="0.25" stroke-linecap="round" stroke-linejoin="round" enable-background="new    " d="
		M210.3,0.3C212.3,0.6,212.3,0.6,210.3,0.3z"/>
	
		<path id="path10211" opacity="0.5" fill="#FFFFFF" stroke="#000000" stroke-width="0.25" stroke-linecap="round" stroke-linejoin="round" enable-background="new    " d="
		M212.1,0.5c4.9,0.5,9.7,1.1,14.5,1.9c-12.1,3.9-4-0.3-10,0.4c2.8,0.1,3.4,0.3,1.9,0.6c0.8,0.1,1.7,0.3,2.5,0.4
		c-10.9-0.3-14.4-0.4-10.6-0.4c-5,1.3,2.7,1.3-6.1,0.3c4.6,1,3.6,1.4-3,1c0.6,0.3,1.2,0.6,1.8,0.9c-2.7,2.3,0.5-0.9-1.8,0.6
		c4.7,0.1,10.5-1.5,14.1,1.1c-2.7,2.7,0.1,1.7,3.1,1.9c-1-0.2-0.8-0.4,0.5-0.8c-1-0.3-1.9-0.6-2.9-0.9c4.2,1.8,0.7-0.7,0.6-0.8
		c2,0.2,3.2-0.3,4.8-0.3c-1.3,1.1-1,0.6-0.8,0.7c-0.6,0,4.4,0.5,2.5,0c-1.2,0.3-1.4,0.1-0.7-0.4c7.6,2.1,7.4,3.1,13.1,4
		c-4.7-3.5-1.4-0.9,1.6-1c-3.7-0.1-1.7,0.9,6.2,3.2c-7.4,3.7,9.7,2.5,3.9,5.4c1.6,0.5,4.2-1.3,2.1,1.8c1.3-1.5,3.1-1.2,5.3,1.1
		c-1,0-2.3-0.2-3.3-0.4c2,0.3,7,4.5,4.8,2.6c4.8,3.6,6.1,10.5,7.6,13c-0.8-0.6-1.5-0.6-2,0c4.9,3.9,12.4,11.5,16.7,5.7
		c1,1.2,1.6,0.5,0.5,3.1c3.1,3.5,2.9,2.8,6.4,3.7c-0.2-0.9-1.3-5.5-1.4-5c6.6,2.6,10.2,9.2,15.8,8.5c-0.7,0.2,3.1-2,0.3-4.6
		c0.5-1,2.2,0.8-0.3-1.8c3.6,2.4,7.1,5,10.6,7.6c-0.7-0.5-0.5-0.6,0.5-0.4c-7.4-6.7-15.7-9.7-22.2-16.7c0.8,1.4,6,3.1,8,4.4
		c-2.2-2.9-7.4-6.4-7.4-6.4c-0.7-1.4-1.9-4.3-3.6-5.2c1.8,0.8,2.1,0.1,1-2.3c-0.8-0.2-3.6-2-2.7-2c1.3,0.7,2.1-0.2,5.1,0.2
		c-0.9-0.4-1.8-0.9-2.7-1.3c3.3,0,3-0.2,1.9-1.1c2,0.7,2.7,0.6,3.9,1.2c-1-0.5-0.9-0.5,0.2,0c-2.1-1.9-3.2-2.3-3.5-2.5
		C274,14.1,258.3,8,242.1,4.7C235.3,3,221.8,1,212.1,0.5L212.1,0.5z"/>
	
		<path id="path10201" opacity="0.5" fill="#FFFFFF" stroke="#000000" stroke-width="0.25" stroke-linecap="round" stroke-linejoin="round" enable-background="new    " d="
		M290.4,23.4C289.8,23.1,293,24.7,290.4,23.4z"/>
	
		<path id="path10199" opacity="0.5" fill="#FFFFFF" stroke="#000000" stroke-width="0.25" stroke-linecap="round" stroke-linejoin="round" enable-background="new    " d="
		M310.6,53.6c1.2,1.6,2.4,3.3,3.6,4.9C312.4,57.9,311.5,54.9,310.6,53.6z"/>
	
		<path id="path10197" opacity="0.5" fill="#FFFFFF" stroke="#000000" stroke-width="0.25" stroke-linecap="round" stroke-linejoin="round" enable-background="new    " d="
		M203.3,7.1c-7.1-0.9,4.2,1.3-5.1-0.4c0.5,0.4-20.7,4.3-1.3-3.9c-9.1,0.3-9.8-0.2-19.9,0.4c1.9,0.1,3.9,0.1,5.8,0.2
		c0,0-5.2,0.2-7.1,0.2c2.1,0.4,2.1,0.5,0,0.4c2,0.8,4.6,0.6,7.6,0.8c-2,0.1-2.1,0.2-0.3,0.4c-5,0.5-3.1,0.2-7.2-0.2
		c1.4,0.8,1.2,1-0.7,0.7c0.2-0.1-0.3-0.3,1,0.3c-1.2,0.3-1.8,0.1-1.8,0.4c5.6-0.3,11.8,1.8,9,0.7c8.8,2.3,1.9,0.2,3,0.9
		c2.2,1,2.3-0.1,3.6-0.7c0.9,0.4,0-0.2-0.6,0.9c2.6-0.2,1.1-0.9,0.9,0.3c2.3,0.9,2.6-0.4,4.1-0.4c0-0.1,0.8,1.3-0.6,0.8
		c2.8-0.1,1.3-0.8,0.9,0.5c4.1,0.1,4.8-0.1,2-0.5c1.6,0.8,6.5,0.6,8.6,1c-1.5-0.9-9.1,4,5.1-1.5c-1.3-0.5-2.6-1-3.9-1.5
		C206.4,6.9,200.3,7.6,203.3,7.1z"/>
	
		<path id="path10195" opacity="0.5" fill="#FFFFFF" stroke="#000000" stroke-width="0.25" stroke-linecap="round" stroke-linejoin="round" enable-background="new    " d="
		M187.8,7.1l-3.3,0.4C185.6,8,186.7,7.8,187.8,7.1z"/>
	
		<path id="path10191" opacity="0.5" fill="#FFFFFF" stroke="#000000" stroke-width="0.25" stroke-linecap="round" stroke-linejoin="round" enable-background="new    " d="
		M199.7,1.4C197.5,2.1,199.2,1.6,199.7,1.4z"/>
	
		<path id="path10187" opacity="0.5" fill="#FFFFFF" stroke="#000000" stroke-width="0.25" stroke-linecap="round" stroke-linejoin="round" enable-background="new    " d="
		M172.3,2c-0.1,0-0.3,0-0.4,0C172,2,172.2,2,172.3,2z"/>
	
		<path id="path10185" opacity="0.5" fill="#FFFFFF" stroke="#000000" stroke-width="0.25" stroke-linecap="round" stroke-linejoin="round" enable-background="new    " d="
		M196.6,2C196.4,1.5,197,3.1,196.6,2z"/>
	
		<path id="path10183" opacity="0.5" fill="#FFFFFF" stroke="#000000" stroke-width="0.25" stroke-linecap="round" stroke-linejoin="round" enable-background="new    " d="
		M170.7,2.2c-0.1,0-0.2,0-0.3,0C170.5,2.2,170.6,2.2,170.7,2.2z"/>
	
		<path id="path10181" opacity="0.5" fill="#FFFFFF" stroke="#000000" stroke-width="0.25" stroke-linecap="round" stroke-linejoin="round" enable-background="new    " d="
		M201.3,2.3c0.2,0.9,4.9-0.4,9.7,0.4C207.8,2.1,204.6,2,201.3,2.3L201.3,2.3z"/>
	
		<path id="path10179" opacity="0.5" fill="#FFFFFF" stroke="#000000" stroke-width="0.25" stroke-linecap="round" stroke-linejoin="round" enable-background="new    " d="
		M174.9,3.1C174,2.8,177.5,4.1,174.9,3.1z"/>
	
		<path id="path10177" opacity="0.5" fill="#FFFFFF" stroke="#000000" stroke-width="0.25" stroke-linecap="round" stroke-linejoin="round" enable-background="new    " d="
		M187.5,3.4C186.7,3.5,183.8,4,187.5,3.4z"/>
	
		<path id="path10165" opacity="0.5" fill="#FFFFFF" stroke="#000000" stroke-width="0.25" stroke-linecap="round" stroke-linejoin="round" enable-background="new    " d="
		M193.5,4.7C194,4.8,197.6,5.8,193.5,4.7L193.5,4.7z"/>
	
		<path id="path10139" opacity="0.5" fill="#FFFFFF" stroke="#000000" stroke-width="0.25" stroke-linecap="round" stroke-linejoin="round" enable-background="new    " d="
		M199.7,6.5C198.2,5.5,201.6,7.9,199.7,6.5L199.7,6.5z"/>
	
		<path id="path10123" opacity="0.5" fill="#FFFFFF" stroke="#000000" stroke-width="0.25" stroke-linecap="round" stroke-linejoin="round" enable-background="new    " d="
		M156.4,8.5c-1.9,1.3-5,0.7-6.2,0.9c0.3-0.2,0.6-0.3,0.9-0.4c-5.4,1.2-6.3,0.9-11.1,3.1c0.7-0.2,1.5-0.5,2.2-0.7
		c-0.6,0.3-1.2,0.6-1.8,0.9c1.5-0.7,1.7-0.7,0.7,0c4.1,0.1-2.1,0.1,1.5-0.2c-0.8-0.2-0.7,1.4,2.2-0.1c-1.9,1.5-1.1-0.2-1.8,1.1
		c1.1,0.9,1.2-0.4,1.2,0.1c-1.1,0,1.6-0.9-1,0.7c4.7,0.5-1-0.4,3.8-0.2c-1.5,1.2-2.5,2.2-2.3,2.1c-2.8,0-0.1,0.7-2.2,1.5
		c2.8,1.2,0.5,1.1,3.5,1.6c-5-0.4-3.1,3.8-4.1,6c1.2-1.7,2.8-2.9,4.7-3.5c-0.1,0.3-0.3,2-0.9,2c2-0.7,0.5-0.7,2.2-2.2
		c1.6,0.7-0.1,1.3-0.4,2.2c0.9-0.5,1.8-1.1,2.7-1.6c-0.8,1-0.4,1.1,1.1,0.3c-3.3,2.1-6.9,1.4-8.4,3.3c4.6-2.8,9.6-2.2,11-2.5
		c-0.7,1-0.4,1,0.9,0.2c-2.1,1.6-3.9,2.2-4.2,3.3c4.1,0.5,2.2-2.3,2.2,0.9c3-1.2,6.3-1.4,2.3-0.1c5,1.5,1.6-1.3,6-0.9
		c-0.9,1.3,8.1,3.6,10.5,2.4c-1.9,4.5,1.7,1.7,2.9,1.9c-0.8-0.9-1.1-0.9-2-2.9c6.1,0,1.4,1.2,6.6-1.1c0.2,0.3-1.3,3.3-1.4,3.4
		c-1.5,1.6,5.1-3.3,4.5-2.9c1.8,1.1-1.8,1.8-1.4,2.5c4.6-3.6,4.7-1.7,2.1-3.5c1-0.2,1.9-0.3,2.9-0.5c-0.8,0-1.7,0-2.5,0
		c0.9-0.5,1.8-0.6,2.8-0.2c-0.2-0.1-2.1-0.3-2.2-0.4c0.6,0.4,0.4,0.3-0.7-0.2c1.3,0,2.5,0,3.8,0c-0.7-0.4-1.3-0.7-2-1.1
		c4.2-0.1,5.9-1,7-3.6c-0.5-0.7-1.3-0.7-2.2,0c0-2.5,1.6-3.7,4.7-3.6c-2.5,1-4.4,0.8-5.7-0.7c0.8-0.1,1.7-0.1,2.5-0.2
		c-0.7,0-1.5,0-2.2,0c1.3-0.1,2.5-0.3,3.8-0.4c-3.1-1-1.4-1.2-4.7-0.9c-4.3,1-9.7-0.1-14.9-1.3c0.5-1.5-0.1,0.4,0.4-1.4
		c-2.2,0.9-1.9-0.7-1.1,1.1c-2.3-1.3-2.7-0.3-4.6-0.3c2.5-1.4-6.6,5,3.1-1.3c-6.8,0-5.6,0.1-7.5-0.3c1.1-0.6-0.6-0.1-1.1-0.2
		c1.3-0.3,2.5-0.6,3.8-0.9c-2.1,0.4-2.3,0.4-0.4,0.1c-0.5-1.4-1.7-1.1-3.5,0.9c1.1-0.5,2.2-1.1,3.3-1.6c-1,0.3-1.9,0.6-2.9,0.9
		c0.9-0.3,1.8-0.6,2.7-0.9c-5.1,0.9,2.1-2.5-4.8,1c0.9-0.5,1.8-1.1,2.7-1.6c-3.2-0.2,0.3-1.1-4.4,0.9c0.7-0.3,1.5-0.6,2.2-0.9
		c-0.3,0.1-8.1,0.4-5.3,0.9c0.7-0.1,1.3-0.3,2-0.4c-1.6,0.4-1.5,0.2,0.4-0.7c-0.5,0.1-1.9,0.8-2.4,0.5C157,9.2,153.6,9.1,156.4,8.5z
		"/>
	
		<path id="path10121" opacity="0.5" fill="#FFFFFF" stroke="#000000" stroke-width="0.25" stroke-linecap="round" stroke-linejoin="round" enable-background="new    " d="
		M157.2,8.8C158.5,8.3,158.5,8.3,157.2,8.8z"/>
	
		<path id="path10119" opacity="0.5" fill="#FFFFFF" stroke="#000000" stroke-width="0.25" stroke-linecap="round" stroke-linejoin="round" enable-background="new    " d="
		M158,9.2C160.4,8.3,160.4,8.3,158,9.2z"/>
	
		<path id="path10117" opacity="0.5" fill="#FFFFFF" stroke="#000000" stroke-width="0.25" stroke-linecap="round" stroke-linejoin="round" enable-background="new    " d="
		M163.4,8.9l0.3-0.2C163.6,8.8,163.5,8.8,163.4,8.9L163.4,8.9z"/>
	
		<path id="path10115" opacity="0.5" fill="#FFFFFF" stroke="#000000" stroke-width="0.25" stroke-linecap="round" stroke-linejoin="round" enable-background="new    " d="
		M164,10.9L164,10.9h0.2H164L164,10.9z"/>
	
		<path id="path10113" opacity="0.5" fill="#FFFFFF" stroke="#000000" stroke-width="0.25" stroke-linecap="round" stroke-linejoin="round" enable-background="new    " d="
		M164.2,10.8C167.1,10.8,167,9.7,164.2,10.8z"/>
	
		<path id="path10109" opacity="0.5" fill="#FFFFFF" stroke="#000000" stroke-width="0.25" stroke-linecap="round" stroke-linejoin="round" enable-background="new    " d="
		M226.5,8.9c3.7-0.4-2.4,0.7-2.4,0.7c2.4,3.7,1.6-0.4,0.9,3.4c2.5,3.9,2.5-0.6,4.3-0.5c1.1,3-0.8,1,3,1.9c-0.3,0.4,1,3.2,7.4,2.1
		c-1.5-0.4-1.5-0.5,0-0.4c-1-0.4-2.1-0.7-3.1-1.1c3.5-1,8.3,4.5-1.3-2.1C243.8,18.8,239.2,12.3,226.5,8.9z"/>
	
		<path id="path10095" opacity="0.5" fill="#FFFFFF" stroke="#000000" stroke-width="0.25" stroke-linecap="round" stroke-linejoin="round" enable-background="new    " d="
		M218,10c-0.6,1.7,0.8,1.7-1.9,2c2.4,0.4,5.8-0.1,3.3-0.1c1.4-0.5,1.8,0.4,3.3,0.1C220.7,8.7,220.1,10.9,218,10z"/>
	
		<path id="path10093" opacity="0.5" fill="#FFFFFF" stroke="#000000" stroke-width="0.25" stroke-linecap="round" stroke-linejoin="round" enable-background="new    " d="
		M168.6,10.3C168.3,9.7,170,13.1,168.6,10.3z"/>
	
		<path id="path10087" opacity="0.5" fill="#FFFFFF" stroke="#000000" stroke-width="0.25" stroke-linecap="round" stroke-linejoin="round" enable-background="new    " d="
		M201.3,11.6c-4.1,0-0.9,0-1.9,1C233.2,11.3,205.3,11.8,201.3,11.6z"/>
	
		<path id="path10085" opacity="0.5" fill="#FFFFFF" stroke="#000000" stroke-width="0.25" stroke-linecap="round" stroke-linejoin="round" enable-background="new    " d="
		M210.9,14.5C211.4,14.8,214.4,16.5,210.9,14.5z"/>
	
		<path id="path10079" opacity="0.5" fill="#FFFFFF" stroke="#000000" stroke-width="0.25" stroke-linecap="round" stroke-linejoin="round" enable-background="new    " d="
		M224.5,12.9C224.4,14.7,225.4,12.8,224.5,12.9z"/>
	
		<path id="path10075" opacity="0.5" fill="#FFFFFF" stroke="#000000" stroke-width="0.25" stroke-linecap="round" stroke-linejoin="round" enable-background="new    " d="
		M199.7,13.6c-0.2,1.2-2.9,1,1.5,2c-3-0.8-3.9,0.6-5,0.8c1.5,0.2,1.5,0.3-0.2,0.4c1,0.1,2.1,0.3,3.1,0.4c-1,0-2.1,0-3.1,0
		c0.8,0.1,1.6,0.3,2.4,0.4c-1.5,0.3-4,0.3-4.6,1.3c0.4,0.7,0.9-0.1-2.2,2.4c0.9-0.3,1.8-0.6,2.7-0.9c-0.8,0.6-2.2,0.4-3.3,2.4
		c2.1,1.7,13.5-0.8,14.4-1.5c-1.2,0-1.4-0.1-0.7-0.4c-2.1,0.2-2.1,0-0.1-0.7c-1,0.1-1.9,0.1-2.9,0.2c0.9-0.1,1.8-0.1,2.7-0.2
		c-3.2-1.2-4,1.7-1.5-0.8c-2.6,0.6-0.2-1.2-2.3-2.2c1.5,0,1.7-0.2,0.6-0.6c2.5,1.8,6.1,5.7,8.4,2.6c-1.4,0-1.5-0.3-0.2-0.9
		c-1-0.1-2.1-0.3-3.1-0.4c0.9,0,1.8,0,2.7,0c-1.6-0.8-1.8-1.1-0.4-0.9c-0.7-1-6.7-0.8-7.3-1c1.2-1,4.6-1.1,6.3-1.5
		C205,14.3,201.4,13.4,199.7,13.6z"/>
	
		<path id="path10073" opacity="0.5" fill="#FFFFFF" stroke="#000000" stroke-width="0.25" stroke-linecap="round" stroke-linejoin="round" enable-background="new    " d="
		M215.8,13.6c0.3,1.1-1.1,2.2,1.6,2.2c-0.3-1.2,0.3-1.5,1.8-0.7C216.7,15.8,218.5,14.5,215.8,13.6z"/>
	
		<path id="path10071" opacity="0.5" fill="#FFFFFF" stroke="#000000" stroke-width="0.25" stroke-linecap="round" stroke-linejoin="round" enable-background="new    " d="
		M222.5,15.2c-0.6,1.4-1.6,0.7-0.5,2.4c2.4,0.5,2,0.4,5.5,1.4c-2,0.2,3.2-1.8,0-0.6c0.8,0.1,1.7,0.3,2.5,0.4
		c-0.6-0.2-1.2-0.4-1.8-0.6c0.9,0.1,1.8,0.3,2.7,0.4c-1.1-1.8-3.1-1.1-4.9-1.7c1.2,0.1,2.3,0.3,3.5,0.4
		C227.2,16.6,224.8,15.9,222.5,15.2z"/>
	
		<path id="path10065" opacity="0.5" fill="#FFFFFF" stroke="#000000" stroke-width="0.25" stroke-linecap="round" stroke-linejoin="round" enable-background="new    " d="
		M232.5,16.5c4,4.1,7.1,0.7,11.7,3.1c-0.9-0.2-1-0.8-0.3-1.7C240.1,17.1,236.3,16.6,232.5,16.5z"/>
	
		<path id="path10063" opacity="0.5" fill="#FFFFFF" stroke="#000000" stroke-width="0.25" stroke-linecap="round" stroke-linejoin="round" enable-background="new    " d="
		M211.4,16.7C211.5,17.3,211.6,18.9,211.4,16.7z"/>
	
		<path id="path10059" opacity="0.5" fill="#FFFFFF" stroke="#000000" stroke-width="0.25" stroke-linecap="round" stroke-linejoin="round" enable-background="new    " d="
		M213.4,17.2c1,0.9,0,2.1,2.4,2.6c1.1-1.8-0.6,0.7,0.8-1.3C215.5,18.1,214.5,17.6,213.4,17.2z"/>
	
		<path id="path10053" opacity="0.5" fill="#FFFFFF" stroke="#000000" stroke-width="0.25" stroke-linecap="round" stroke-linejoin="round" enable-background="new    " d="
		M222.3,18.7C220.9,21.3,222.7,18,222.3,18.7z"/>
	
		<path id="path10051" opacity="0.5" fill="#FFFFFF" stroke="#000000" stroke-width="0.25" stroke-linecap="round" stroke-linejoin="round" enable-background="new    " d="
		M230.3,18.9C230.3,18.9,230.3,19.8,230.3,18.9z"/>
	
		<path id="path10049" opacity="0.5" fill="#FFFFFF" stroke="#000000" stroke-width="0.25" stroke-linecap="round" stroke-linejoin="round" enable-background="new    " d="
		M228.3,19.2c-0.6-1.6-17.3,7.1,4.4,1.5c-1.4,0.3-2-0.1-1.8-1.1C230.3,19.7,227.1,20.4,228.3,19.2z"/>
	
		<path id="path10045" opacity="0.5" fill="#FFFFFF" stroke="#000000" stroke-width="0.25" stroke-linecap="round" stroke-linejoin="round" enable-background="new    " d="
		M219.4,19.6C220.1,20.5,223.6,20.2,219.4,19.6z"/>
	
		<path id="path10025" opacity="0.5" fill="#FFFFFF" stroke="#000000" stroke-width="0.25" stroke-linecap="round" stroke-linejoin="round" enable-background="new    " d="
		M152.9,23.8C150.6,25.7,151.5,25,152.9,23.8z"/>
	
		<path id="path10023" opacity="0.5" fill="#FFFFFF" stroke="#000000" stroke-width="0.25" stroke-linecap="round" stroke-linejoin="round" enable-background="new    " d="
		M131.6,24.1l-0.7,0.4C131.2,24.5,131.4,24.4,131.6,24.1z"/>
	
		<path id="path10021" opacity="0.5" fill="#FFFFFF" stroke="#000000" stroke-width="0.25" stroke-linecap="round" stroke-linejoin="round" enable-background="new    " d="
		M131.1,24.5c-1.4-0.1-1.9,1.5-3.1,1.6c0.5-0.5,1-1.1,1.5-1.6c-3.3,0.9-7.5,2.8-8.5,6.8c2.1,0,1.4,0.5,1.5,0.9
		c3.1-1.3,3.8-1.4,6-2.7c-1.9-1.6,0.7,0.8-1.6-1.1c1.6-1.6,1.1-0.6,2.9-1.7c0.7-0.6-10.9,8.3,3.1-1.9c-0.7,0.2-1.5,0.4-2.2,0.6
		c0.6-0.2,1.2-0.4,1.8-0.6C127.9,24.7,134,24.9,131.1,24.5z"/>
	
		<path id="path10019" opacity="0.5" fill="#FFFFFF" stroke="#000000" stroke-width="0.25" stroke-linecap="round" stroke-linejoin="round" enable-background="new    " d="
		M151.1,24.3c-1.1,0.4-1.7,1.4-1.7,1.4C152,26,150.5,24.7,151.1,24.3z"/>
	
		<path id="path10001" opacity="0.5" fill="#FFFFFF" stroke="#000000" stroke-width="0.25" stroke-linecap="round" stroke-linejoin="round" enable-background="new    " d="
		M153.8,25.8C151.8,28.1,153.5,26.1,153.8,25.8z"/>
	
		<path id="path9995" opacity="0.5" fill="#FFFFFF" stroke="#000000" stroke-width="0.25" stroke-linecap="round" stroke-linejoin="round" enable-background="new    " d="
		M154.4,27.6C154.5,28.2,154.5,28.2,154.4,27.6z"/>
	
		<path id="path9975" opacity="0.5" fill="#FFFFFF" stroke="#000000" stroke-width="0.25" stroke-linecap="round" stroke-linejoin="round" enable-background="new    " d="
		M163.5,39.2c-1.5,0.6-3.1,1.2-4.6,1.8c0.8,0.2,1.6,0.3,2.4,0.5c-1.6,0-1.7,0.2-0.4,0.6c-3.4-0.2-1.7-0.1-2.7,0.7
		c-2.8,0.1-0.1-2.7-4.4,1.1c5.1-2.5,8.7-0.5,11.8-3c-1.3,0.3-2.7,0.6-4,0.9c0.8-0.3,5.2-1.7,1.1-1.3C165.1,40.4,165.3,40,163.5,39.2
		z"/>
	
		<path id="path9973" opacity="0.5" fill="#FFFFFF" stroke="#000000" stroke-width="0.25" stroke-linecap="round" stroke-linejoin="round" enable-background="new    " d="
		M165.8,41.4c-0.2,1.4-1.6,1.1-2.4,2.9c2.5-0.2,2-0.2,4-0.9c0.1,0.1-1.4-1.6-1.6-0.4C168.8,40.6,166.6,42.5,165.8,41.4z"/>
	
		<path id="path9967" opacity="0.5" fill="#FFFFFF" stroke="#000000" stroke-width="0.25" stroke-linecap="round" stroke-linejoin="round" enable-background="new    " d="
		M98.3,43.4C98.3,43.3,98.9,44.9,98.3,43.4z"/>
	
		<path id="path9965" opacity="0.5" fill="#FFFFFF" stroke="#000000" stroke-width="0.25" stroke-linecap="round" stroke-linejoin="round" enable-background="new    " d="
		M160.4,43.6C159.9,45,160.5,43.4,160.4,43.6z"/>
	
		<path id="path9963" opacity="0.5" fill="#FFFFFF" stroke="#000000" stroke-width="0.25" stroke-linecap="round" stroke-linejoin="round" enable-background="new    " d="
		M90.1,44.1c-2,0.4-4.2,2.6-5.2,3.5c0.2,0-2.9-2.1-2.4,3.2c4-1.3,6.9-2.6,9.1-4.9c-1.2,0.4-1.2,0.2,0-0.5
		C87.9,46.9,90.7,44.6,90.1,44.1z"/>
	
		<path id="path9961" opacity="0.5" fill="#FFFFFF" stroke="#000000" stroke-width="0.25" stroke-linecap="round" stroke-linejoin="round" enable-background="new    " d="
		M97.2,44.1l-2,1.3C96,45.3,96.7,44.8,97.2,44.1z"/>
	
		<path id="path9959" opacity="0.5" fill="#FFFFFF" stroke="#000000" stroke-width="0.25" stroke-linecap="round" stroke-linejoin="round" enable-background="new    " d="
		M159.3,44.3c-2.1,1.3-1.6,0-2.6,1.6C160.2,46,161.1,45.4,159.3,44.3z"/>
	
		<path id="path9957" opacity="0.5" fill="#FFFFFF" stroke="#000000" stroke-width="0.25" stroke-linecap="round" stroke-linejoin="round" enable-background="new    " d="
		M97.4,44.7c-1.3,0.7-6.4,2.9-7.1,2.8c2.3-1,1.7,0.5,1.3,0.3c-1.5,0.6-7.4,3.8-8.2,5.8c-1.1,0-1.6-2-4.4,2.5
		c-1.3-1.1-0.8-0.3-2.7-1.6c-0.5,1.8-1.9,4.5-0.5,7.1c4.1-3.8,10.9-6.8,15.6-12.8c2.1,0.2,4.2-1.3,7.7-4
		C96.7,46.2,97.7,45,97.4,44.7z"/>
	
		<path id="path9953" opacity="0.5" fill="#FFFFFF" stroke="#000000" stroke-width="0.25" stroke-linecap="round" stroke-linejoin="round" enable-background="new    " d="
		M93.2,45.9C93.3,46,94.6,46.7,93.2,45.9L93.2,45.9z"/>
	
		<path id="path9949" opacity="0.5" fill="#FFFFFF" stroke="#000000" stroke-width="0.25" stroke-linecap="round" stroke-linejoin="round" enable-background="new    " d="
		M176,50.1l-3.6,0.4C173.7,51.1,174.9,50.9,176,50.1z"/>
	
		<path id="path10249" opacity="0.5" fill="#FFFFFF" stroke="#000000" stroke-width="0.25" stroke-linecap="round" stroke-linejoin="round" enable-background="new    " d="
		M44.1,155.2c-7.6-7-5.1-30.6-15-22.3c-0.2-13.9,9.4-22.1,11.7-32.6c2.1-9.6-2.6-12.3,3.1-21.7c-2.4,1.5-6.8,5.3-6.7,5.2
		c-16.1,20.1-27.6,48.9-33.5,77.6c-9.5,44.4-1.4,106,28.9,149.3c-0.8-1.1-0.4-1.1,1.2,0.2c-0.5-0.8-6.7-12.2-6-10.8
		c6.1,1.6-11.4-8.8,5.8,0.9c1.8-8-7.1-17.9-7.2-26.1c-0.2-14.9,1.2-5.4,9.6-13c4.8-4.3,15.6-13.3,15.2-17.3
		c-1.1-9.8,7.5,7.3-6.1-6.9c-1.5-1.6-9.5-9.5-10.7-9.9c2.5-4-2-25.4-1.3-34.5c0.9-11,2.5-23.7,6.3-37c-4.8,14.3-0.6,9.6,2.5,5.3"/>
	
		<path id="path9945" opacity="0.5" fill="#FFFFFF" stroke="#000000" stroke-width="0.25" stroke-linecap="round" stroke-linejoin="round" enable-background="new    " d="
		M34.1,312C34.6,312.8,34.6,312.8,34.1,312z"/>
	
		<path id="path9943" opacity="0.5" fill="#FFFFFF" stroke="#000000" stroke-width="0.25" stroke-linecap="round" stroke-linejoin="round" enable-background="new    " d="
		M34.5,312.7c0.6,0.9,1.3,1.9,1.9,2.8C36.3,315.3,34.2,312.2,34.5,312.7L34.5,312.7z"/>
	
		<path id="path9941" opacity="0.5" fill="#FFFFFF" stroke="#000000" stroke-width="0.25" stroke-linecap="round" stroke-linejoin="round" enable-background="new    " d="
		M36.5,315.5C37.6,317.2,37.6,317.2,36.5,315.5z"/>
	
		<path id="path9939" opacity="0.5" fill="#FFFFFF" stroke="#000000" stroke-width="0.25" stroke-linecap="round" stroke-linejoin="round" enable-background="new    " d="
		M130.2,52.3C130.2,52.3,127.6,51.3,130.2,52.3z"/>
	
		<path id="path9937" opacity="0.5" fill="#FFFFFF" stroke="#000000" stroke-width="0.25" stroke-linecap="round" stroke-linejoin="round" enable-background="new    " d="
		M127.3,50.5C127.4,50.6,128.8,52,127.3,50.5z"/>
	
		<path id="path9935" opacity="0.5" fill="#FFFFFF" stroke="#000000" stroke-width="0.25" stroke-linecap="round" stroke-linejoin="round" enable-background="new    " d="
		M128.2,51.2l-2,0.4C126.9,52,127.6,51.8,128.2,51.2z"/>
	
		<path id="path9903" opacity="0.5" fill="#FFFFFF" stroke="#000000" stroke-width="0.25" stroke-linecap="round" stroke-linejoin="round" enable-background="new    " d="
		M170,62.1c-6.3,1-7,2.3-10.6,2.8c1.7,1.2,1.4,1.5-0.7,1.1c2.9,0.5,11.7-0.1,17.4-3.5C174.1,62.4,172,62.2,170,62.1z"/>
	
		<path id="path9893" opacity="0.5" fill="#FFFFFF" stroke="#000000" stroke-width="0.25" stroke-linecap="round" stroke-linejoin="round" enable-background="new    " d="
		M86.7,65C84.6,67.4,85.8,66,86.7,65z"/>
	
		<path id="path9891" opacity="0.5" fill="#FFFFFF" stroke="#000000" stroke-width="0.25" stroke-linecap="round" stroke-linejoin="round" enable-background="new    " d="
		M87.2,65.6c-1.1,1.1-2.3,2.3-3.4,3.4C93.6,65,85.8,68.6,87.2,65.6z"/>
	
		<path id="path9889" opacity="0.5" fill="#FFFFFF" stroke="#000000" stroke-width="0.25" stroke-linecap="round" stroke-linejoin="round" enable-background="new    " d="
		M157.5,66.1c-0.1,0-5,2.9-5.1,3.2c0.1,1.9,0,2.1,2.8,4.2C155,70.2,161.6,66.5,157.5,66.1z"/>
	
		<path id="path9869" opacity="0.5" fill="#FFFFFF" stroke="#000000" stroke-width="0.25" stroke-linecap="round" stroke-linejoin="round" enable-background="new    " d="
		M93.6,70.5C92,73.9,94.2,69.2,93.6,70.5z"/>
	
		<path id="path9867" opacity="0.5" fill="#FFFFFF" stroke="#000000" stroke-width="0.25" stroke-linecap="round" stroke-linejoin="round" enable-background="new    " d="
		M83.4,70.8C84,71.5,83.7,71.1,83.4,70.8L83.4,70.8z"/>
	
		<path id="path9813" opacity="0.5" fill="#FFFFFF" stroke="#000000" stroke-width="0.25" stroke-linecap="round" stroke-linejoin="round" enable-background="new    " d="
		M48.7,90.1c-2.1,2.3-3.9,3-3.6,5.7C49.9,93.8,51.1,91.9,48.7,90.1z"/>
	
		<path id="path9797" opacity="0.5" fill="#FFFFFF" stroke="#000000" stroke-width="0.25" stroke-linecap="round" stroke-linejoin="round" enable-background="new    " d="
		M42.5,103.2c-0.8,2.3-1.6,4.6-2.4,6.9C44.9,108,42.1,106.7,42.5,103.2z"/>
	
		<path id="path9773" opacity="0.5" fill="#FFFFFF" stroke="#000000" stroke-width="0.25" stroke-linecap="round" stroke-linejoin="round" enable-background="new    " d="
		M51,120.8C50.2,122.3,51.5,122.9,51,120.8z"/>
	
		<path id="path9667" opacity="0.5" fill="#FFFFFF" stroke="#000000" stroke-width="0.25" stroke-linecap="round" stroke-linejoin="round" enable-background="new    " d="
		M33.2,210.4C33.9,212.8,33.9,212.8,33.2,210.4z"/>
	
		<path id="path9665" opacity="0.5" fill="#FFFFFF" stroke="#000000" stroke-width="0.25" stroke-linecap="round" stroke-linejoin="round" enable-background="new    " d="
		M15,210.6C15.4,211.4,15.4,211.4,15,210.6z"/>
	
		<path id="path9643" opacity="0.5" fill="#FFFFFF" stroke="#000000" stroke-width="0.25" stroke-linecap="round" stroke-linejoin="round" enable-background="new    " d="
		M20.6,218.4C21.5,219.6,21.5,219.6,20.6,218.4z"/>
	
		<path id="path9639" opacity="0.5" fill="#FFFFFF" stroke="#000000" stroke-width="0.25" stroke-linecap="round" stroke-linejoin="round" enable-background="new    " d="
		M21.9,219.9C22.4,220.8,22.4,220.8,21.9,219.9z"/>
	
		<path id="path9633" opacity="0.5" fill="#FFFFFF" stroke="#000000" stroke-width="0.25" stroke-linecap="round" stroke-linejoin="round" enable-background="new    " d="
		M29.2,228.2C30.4,229,30.4,229,29.2,228.2z"/>
	
		<path id="path9629" opacity="0.5" fill="#FFFFFF" stroke="#000000" stroke-width="0.25" stroke-linecap="round" stroke-linejoin="round" enable-background="new    " d="
		M31,229.7C31.5,230.6,31.5,230.6,31,229.7z"/>
	
		<path id="path9617" opacity="0.5" fill="#FFFFFF" stroke="#000000" stroke-width="0.25" stroke-linecap="round" stroke-linejoin="round" enable-background="new    " d="
		M337.1,240.6C336.6,241.7,336.2,242.6,337.1,240.6z"/>
	
		<path id="path9585" opacity="0.5" fill="#FFFFFF" stroke="#000000" stroke-width="0.25" stroke-linecap="round" stroke-linejoin="round" enable-background="new    " d="
		M26.3,272.4C27.2,275.7,27.2,275.7,26.3,272.4z"/>
	<path id="path9537" fill="#FEC010" stroke="#000000" stroke-linecap="round" stroke-linejoin="round" d="M324.9,310
		c-1.5,1.3-3,2.7-4.5,4C321.9,312.7,323.4,311.3,324.9,310z"/>
	
		<path id="path9531" opacity="0.5" fill="#FFFFFF" stroke="#000000" stroke-width="0.25" stroke-linecap="round" stroke-linejoin="round" enable-background="new    " d="
		M36.1,294.4C37,296.5,37,296.5,36.1,294.4z"/>
	<path id="path9525" fill="#FEC010" stroke="#000000" stroke-linecap="round" stroke-linejoin="round" d="M319.7,297.1l-4.2,1.1
		C317,298.5,318.4,298.1,319.7,297.1z"/>
	
		<path id="path9523" opacity="0.5" fill="#FFFFFF" stroke="#000000" stroke-width="0.25" stroke-linecap="round" stroke-linejoin="round" enable-background="new    " d="
		M38.1,297.8C39.3,299.3,39.3,299.3,38.1,297.8z"/>
	<path id="path9519" fill="#FEC010" stroke="#000000" stroke-linecap="round" stroke-linejoin="round" d="M303.8,298.7l-3.3,1.3
		C301.9,300.2,303,299.7,303.8,298.7z"/>
	
		<path id="path9507" opacity="0.5" fill="#FFFFFF" stroke="#000000" stroke-width="0.25" stroke-linecap="round" stroke-linejoin="round" enable-background="new    " d="
		M48.3,305.1c-0.5,1-1.2,1.2,0,2.9c-0.9,0.8-1.5,0.5-1.8-0.9c0.7,2.5,0.5,0.9,0,3.2c-0.2-1.7-0.3-1.5-0.2,0.7
		c-3.8-0.8,3.9-0.8-4.9-2.7c1.4,9.3,6.2,18.1,13.6,24c-1.1-6.3-1.6-12.1-3.7-17.5c0.9,0.3,0.8,1,1.5,1.8
		C52.1,313.5,49.5,307.4,48.3,305.1z"/>
	<path id="path9493" fill="#FEC010" stroke="#000000" stroke-linecap="round" stroke-linejoin="round" d="M312.9,309.8
		c-1.7,0.9-2.2,2.4-1.5,4.5C311.9,312.8,312.4,311.3,312.9,309.8z"/>
	
		<path id="path9483" opacity="0.5" fill="#FFFFFF" stroke="#000000" stroke-width="0.25" stroke-linecap="round" stroke-linejoin="round" enable-background="new    " d="
		M332.6,313.8c-4.5,8.2-4.8,23.4-20.9,19.1c1.7-1,3.3-6.9,5.6-8.1c-2.1,0.3-0.4-0.3-2.7,1.3c0.4,0.1-1.4-0.6-0.2-1.1
		c-3.6,2.6-7,2.3-11.3,3c0.9-0.1,1.8-0.1,2.7-0.2c-7.7,4.3-8.5,10.9-14.4,13.5c-4.4-3.8-9.1-0.2-9.3,3.1c-1.3-0.6-2.3-0.3-2.9,0.9
		c0.2,1,0.7,1,1.3,0c-3,1.4,0.6,1.2,0.5,1.2c-6.1,4.3-3.1-0.9-4.9,3.8c-4-1-35.9,13.6-32.2,22.6c-1.2-0.5,2.1,9-0.8,11.9
		c17.6-4,35-9.3,51.8-15.9c-0.3,1.8,48.5-26.2,47.9-39.1c-0.6,0.4-1,1.3-1.5,1.6c-0.3-0.4-0.6-0.3-0.9,0.5c0.1-1.3,0.3-2.7,0.4-4
		c-1.5,0.2-2.9,0.3-4.4,0.5c0.3-3.2,0.1-4.7,0.9-7.7c2.3-0.4-5.5,0.2-3.5,0.7C333.4,318.9,333,316.3,332.6,313.8z"/>
	
		<path id="path9437" opacity="0.5" fill="#FFFFFF" stroke="#000000" stroke-width="0.25" stroke-linecap="round" stroke-linejoin="round" enable-background="new    " d="
		M68.5,335.1C71,337.1,69.6,335.1,68.5,335.1L68.5,335.1z"/>
	
		<path id="path9435" opacity="0.5" fill="#FFFFFF" stroke="#000000" stroke-width="0.25" stroke-linecap="round" stroke-linejoin="round" enable-background="new    " d="
		M72.9,335.8C73.3,336.5,74.1,337.7,72.9,335.8z"/>
	
		<path opacity="0.5" fill="#FFFFFF" stroke="#000000" stroke-width="0.25" stroke-linecap="round" stroke-linejoin="round" enable-background="new    " d="
		M158.9,80c-3.5-0.7-3.8-3.7-6.9,0.1c0.7,0.3-5.3-2.1-6.4-2.9c3.5-5.6,3.2,1.3-0.5-0.7c-1.4-0.2-5.6-0.9-9.1-0.4
		c-0.6,0.6,6.1-6.3,4-2.7c-0.4-1-0.7-2.1-1.1-3.1c-0.9,3.5-3.2,5.6-6.7,6.4c-1.4-1.6-3.1-5.4-6.6,0.5c0.1-1.6-0.4-2.3-1.6-2
		c1.2,0,1.5-0.6,0.9-2c-1.5,1.5-2,2-3.6,3.3c-0.4-3.3,4.7-8.4,6.5-10.9c0.2,2.5,0.9,4.9,1.1,7.4c6.8-1.4,7.7-5.7,4.7-9.6
		c0.7-1.6,1.9-1.2,2.4-1.3c0-1.4-1-1.6-1.8-2.3c1.7-2.6,0.9-0.4,2.9-0.2c0.5-2.5-1.1-2-1.1-2.2c0.4-3.5,5.4,4-0.7-0.7
		c0.7-0.3,1.3-0.5,2-0.8c-1.1,0.1-2.2,0.3-3.3,0.4c2.1-1.4,1.4-0.1,2.7-1.8c-5.2,0.2-2.1-0.7-6.7-0.7c2.2-0.4,0.3,0.4,1.8-0.8
		c-2.9,0-4.2-0.4-7.1,0.2c0.1-1.5-2.5-0.7-4.9,0.2c-5-0.2-5.2-0.2-11.3-0.2c0.9-1.2,0.8-1.2-0.5,0c0.3-0.6,0.6-1.2,0.9-1.8
		c-1,0-0.9,0.1-2.4,0.7c-0.7-1.1-1.1-0.8-0.9,0.4c-1.5-0.4-1.5-2-5.1,0.9c-0.3,0.3,0.8-0.1,0.9,1.3c-1.6-1.2-4.4,0.2-4.2,0.3
		c-8.5,4.2,1,4.3,2.4,4.2c-6.4,4.1-8.3,4.6-13.1,10.9c3.3,0.1,6.6-1,9.8-3.6c2.3,3.1,1.1-1.3,0.9,1.6c3.6-1.7,7.4-5,12.6-7.1
		c2,0.2,9,0,10.4-0.3c0.2,0.6,0.3,1.2,0.5,1.8c-7.3,1-14.7,5.3-18.9,8.9c1.8,1.3,3.5,2.5,5.3,3.8c-0.4,0.4-2.2,2-1.3,3.1
		c-5.6-8.9-5.7,1.1-12-0.9c3-4.5,0.5-5.2-6.6,1.3c-0.3,0.1,0.8-1.5,1.9-1.4c-1,0.6-2.1,0.8-3.3,0.6c0.2,0.5,1.4,1.3-1.3,0.2
		c-0.2-3.5,0.9-0.9-2.9-4.5c0.4-4.7,4.9-12,11.6-11.3c-4.9-0.9-9,1.8-12.3,5.8c1.3-3.1-0.6-2.2-0.6-2.2c0.2-0.8,0.4-1.5,0.6-2.3
		c-1,0.4-2.1,0.8-2.9,0.9c0.6-0.5,1.2-1,1.8-1.5c-2.7-0.5-3.5,1.5-4.2,2c-0.2-0.9-0.5-1.8-0.7-2.7c-2.6,0,0.2,2.9-3.5,0.4
		c0.7-1,1.3-2.1,2-3.1c-1,0.9-2.1,1.8-3.1,2.7c1.4-1.2,1.8-2.6,1.3-4.2c-1.1,1.3-1.2,1.5-0.4,0.4c-3.7,5-8.2,9.1-13.6,12.3
		c4.7-3.4,6.1-6.8,4.2-10.3c-7.9,6.3-16.1,12.4-18.6,22.2c1.1-0.8,1.4-0.6,0.9,0.5c3.8-2,7.8-4.9,11.1-5.1
		c2.3,9.7-6.3,19.7-12.2,30.9c1.9-1.2,9.2-7.4,4.9-0.9c2.5-7.3,7-18.8,12.8-20.5c-2.1,2.6-17.9,26-13.9,31.8
		c-0.7-0.4-1.1-0.9-0.9-2.9c-8.1,3.5,0.1,3.5-3.1,6.3c1.1-1.2,1.2-0.9,0.4,1.1c0.7-1.2,1.3-2.4,2-3.6c1,2-0.1,1.5,0.9-0.4
		c1.7-0.1-0.2,1.8,0.2,2.2c1.4-2,2.4,1.4,2.4-4.7c0.5-0.6-2.1,3.4-1.3,3c1.6-5.4,0.9-2.8,4-7.6c0-0.1-0.4,3.2-0.4,3.3
		c0.8-1.8,1.1-1.7,0.8,0.2c0.3-0.8,0.6-1.6,0.9-2.4c11.4,6.7,0.2,3.8,0,5.3c7-0.6,0.9-0.1,4.5,1.6c1.4-8.2,4.8-3.9,8.6-10.3
		c0.4,0,0,1.4,2.7-1.1c-1.4,2,0.2,2.1,4.7,0.5c-0.4,1.9-0.9,2-1.4,0.2c-0.6,4.3,1.8,1.9-1.7,4.2c1.7,1.1,1.4,2.6-0.9,4.5
		c1.7,0.3,3.4,0.6,5.1,0.9c-8.4-4.2,0.7-4.2,1.1-4.9c-3.6,1.8-1.6,2.9,6,3.1c-2.9,0-0.1,0.8-2.9-0.5c-0.2,1-0.5,1.9-0.7,2.9
		c0.3,0.1-2.5-0.3-4-0.2c-0.2,7.9,4.5,24.8,9.9,30.5c-2.4-6.4,0.5-14.2,3.6-17.9c2-2.4,3.2,0.6,3.9-0.1c2.1-0.4,4.1-0.8,6.2-1.2
		c0.5-3.8,2.1-6.7,5-8.8c8.1-2.9,13.1,4.4,18.5,7.3c3.4-2.8-1.9-6-1.6-8c1.9-0.4,3.3-1.6,4.4-3.5c-2.4,0.2-4.3-0.5-5.7-2.2
		c-1.2-5.5,1.3-7.3,7.6-5.3C120.3,99.3,160.9,87.4,158.9,80z"/>
</g>
<g id="Asia_1_">
	<path id="path9951_1_" fill="#FEC010" stroke="#000000" stroke-linecap="round" stroke-linejoin="round" d="M263.6,49.6
		C263,51.7,264.6,54.2,263.6,49.6z"/>
	<path id="path9925_1_" fill="#FEC010" stroke="#000000" stroke-linecap="round" stroke-linejoin="round" d="M197.5,55.4
		c-1,0.8-1.9,1.7-2.9,2.5C200.6,63.3,197.5,55.3,197.5,55.4z"/>
	<path id="path9923_1_" fill="#FEC010" stroke="#000000" stroke-linecap="round" stroke-linejoin="round" d="M194.4,58.3
		C194.4,58.3,197,60.4,194.4,58.3z"/>
	<path id="path9921_1_" fill="#FEC010" stroke="#000000" stroke-linecap="round" stroke-linejoin="round" d="M198.4,58.3
		c-1,0.4-2.1,0.9-3.1,1.3C201.9,69.2,199,56.6,198.4,58.3L198.4,58.3z"/>
	<path id="path9913_1_" fill="#FEC010" stroke="#000000" stroke-linecap="round" stroke-linejoin="round" d="M201.3,60.1
		c-0.4,1.2-0.9,2.4-1.3,3.6c1.2-0.4,2.3-0.9,3.5-1.3C201.7,61.3,201.7,61.7,201.3,60.1z"/>
	<path id="path9911_1_" fill="#FEC010" stroke="#000000" stroke-linecap="round" stroke-linejoin="round" d="M264.2,60.1
		C263.9,61.4,264,61.1,264.2,60.1z"/>
	<path id="path9909_1_" fill="#FEC010" stroke="#000000" stroke-linecap="round" stroke-linejoin="round" d="M239.6,60.3
		c-1.3,0.2-2.5,0.4-3.8,0.6C238.8,62.9,240.1,62.7,239.6,60.3z"/>
	<path id="path9905_1_" fill="#FEC010" stroke="#000000" stroke-linecap="round" stroke-linejoin="round" d="M231.4,61.6
		c1.6,1.7,1,2-1.8,0.7c3.2,1.9-1.3,5.6,6.1,1.3c-0.8-0.4-0.8-1.1-0.2-2.1C234.1,61.5,232.8,61.6,231.4,61.6z"/>
	<path id="path9885_1_" fill="#FEC010" stroke="#000000" stroke-linecap="round" stroke-linejoin="round" d="M236.9,66.3
		C236.4,67.5,240.1,69.4,236.9,66.3z"/>
	<path id="path9825_1_" fill="#FEC010" stroke="#000000" stroke-linecap="round" stroke-linejoin="round" d="M292.9,84.8
		C293,87,293.1,87.9,292.9,84.8z"/>
	<path id="path9787_1_" fill="#FEC010" stroke="#000000" stroke-linecap="round" stroke-linejoin="round" d="M304.6,113.7
		C305.7,118.2,305.8,114.5,304.6,113.7z"/>
	<path id="path9781_1_" fill="#FEC010" stroke="#000000" stroke-linecap="round" stroke-linejoin="round" d="M278.7,115.9
		C279.5,117,280.8,119,278.7,115.9z"/>
	<path id="path9779_1_" fill="#FEC010" stroke="#000000" stroke-linecap="round" stroke-linejoin="round" d="M280.2,117.9
		c0.6,6.9,9.1,16.5,12.6,23.7c2.9-2.9-0.4-0.7,2.5-1.5c-2.9-2.4-4.9-5.3-6.1-8.8c3-0.4,0.6-0.5,3.7-0.2
		C288,127.4,283.7,123,280.2,117.9z"/>
	<path id="path9775_1_" fill="#FEC010" stroke="#000000" stroke-linecap="round" stroke-linejoin="round" d="M269.6,117.4
		C270.6,119.6,270.1,118.6,269.6,117.4z"/>
	<path id="path9751_1_" fill="#FEC010" stroke="#000000" stroke-linecap="round" stroke-linejoin="round" d="M305.3,136.1
		c-0.4,1.7-0.7,3.4-1.1,5.1C304.6,139.5,304.9,137.8,305.3,136.1z"/>
	<path id="path9747_1_" fill="#FEC010" stroke="#000000" stroke-linecap="round" stroke-linejoin="round" d="M48.5,141.5
		c1.1,1.6-1.5,3.1,1.8,3.1c-0.1-1.2,0.4-1.6,1.7-1.3C50.8,142.7,49.7,142.1,48.5,141.5z"/>
	<path id="path9745_1_" fill="#FEC010" stroke="#000000" stroke-linecap="round" stroke-linejoin="round" d="M303.5,141.7
		c-1.7,0.1-1.9,1.2-0.5,3.5C303.2,144,303.3,142.9,303.5,141.7z"/>
	<path id="path9743_1_" fill="#FEC010" stroke="#000000" stroke-linecap="round" stroke-linejoin="round" d="M293.3,143
		c3.4,6.2,1.4,8.5,2.7,14.1c0.7-0.7,1.3-1.3,2-2c-1.9-1.3-1.8,0.9-2.6-1.7c5.6,0,3.9-4,8.6-7.7c-2.2-0.2-0.5-0.1-2.5-2.4
		C299.9,146.5,296.4,146.6,293.3,143z"/>
	<path id="path9719_1_" fill="#FEC010" stroke="#000000" stroke-linecap="round" stroke-linejoin="round" d="M299.1,156.1
		c-0.9,1-1.7,1.1,0.2,2.3c-2,1-6-5.4-1.5,4.3c1.9,2.3,2,8.5-1,12.7c-0.7-2.1-1.5-1.4-2-1.6c3.1,9.2-8.9,7.4-9.8,16.7
		c3.1-1.5,1.5-1.1,3.1-2.9c1.7,2.8,3.9,1.6,6.7-3.7c1,1.7,1.4,2.4,2.4,3.8c0.5-7.5,1-1.3,0.2-6.3c1.4,0.6,1.7-0.6,1.4,1.3
		c1.9-4.2,3.3-4.8,4.3-1.9c0.9-1,0.6-3,0.7-4.4c1.4-0.3,1.7,0.5,1.1,2.4C307,175,303.1,159.3,299.1,156.1z"/>
	<path id="path9703_1_" fill="#FEC010" stroke="#000000" stroke-linecap="round" stroke-linejoin="round" d="M293.5,185.9
		c-2.6,1.8-4.2,1.6-5.1,5.3c2,0.5,0.1-0.8,2,1.5C293.4,188.9,293.8,189.9,293.5,185.9z"/>
	<path id="path9701_1_" fill="#FEC010" stroke="#000000" stroke-linecap="round" stroke-linejoin="round" d="M285.3,190.6
		c-1.3,2.2-3,4.4-2.7,3.5c0.2,0.6,0.5,1.2,0.7,1.8c0.4-1,0.4-2.1,1.1-3.1c-1.5,4.4-0.7,6.8,2.4,7.1c0-0.7,0-1.3,0-2
		c0.1,0.8,0.3,1.7,0.4,2.5C295.1,192.1,288,193.4,285.3,190.6z"/>
	<path id="path9693_1_" fill="#FEC010" stroke="#000000" stroke-linecap="round" stroke-linejoin="round" d="M73.8,199.7
		C75.7,200.9,77.8,199.7,73.8,199.7L73.8,199.7z"/>
	<path id="path9671_1_" fill="#FEC010" stroke="#000000" stroke-linecap="round" stroke-linejoin="round" d="M286.9,209.5
		C285.2,211.9,285.9,210.9,286.9,209.5z"/>
	<path id="path9635_1_" fill="#FEC010" stroke="#000000" stroke-linecap="round" stroke-linejoin="round" d="M266.2,226.6
		c-4.4,3.9-4.6,7.8-0.4,11.6C267.6,233.9,266.7,229.2,266.2,226.6z"/>
	<path id="path9615_1_" fill="#FEC010" stroke="#000000" stroke-linecap="round" stroke-linejoin="round" d="M57.9,241.5
		C58.4,243,62.3,244,57.9,241.5z"/>
	<path id="path9607_1_" fill="#FEC010" stroke="#000000" stroke-linecap="round" stroke-linejoin="round" d="M271.8,249.3
		c-4,1.4-10.2,10.6-4.2,14.3c-0.2-0.2,0-1.8,0.6,1.8c3.5-1,3.2,0.4,6.4,0.6c-0.1-0.8-0.3-1.7-0.4-2.5c2.5,2,2.7,1.2,4.9,2
		c1,2.8-0.6-2.9-0.5-2.6c-2.3-1.3-4.1-0.1-5.3,0.9C269.6,262.4,270.9,252.1,271.8,249.3z"/>
	<path id="path9605_1_" fill="#FEC010" stroke="#000000" stroke-linecap="round" stroke-linejoin="round" d="M235.4,250
		c-3.3-0.7-5.7,0.4-7.3,3.3C232.8,261.3,234.4,251.7,235.4,250z"/>
	<path id="path9597_1_" fill="#FEC010" stroke="#000000" stroke-linecap="round" stroke-linejoin="round" d="M282.7,265.7
		c-0.9,0.8-3,6.2,0.4,8.5c-0.6-1-0.3-1.4,0.7-1.3c0.9-4,0-0.5,1.4-2.7C284.4,268.7,283.5,267.2,282.7,265.7z"/>
	<path id="path9595_1_" fill="#FEC010" stroke="#000000" stroke-linecap="round" stroke-linejoin="round" d="M267.3,266.4
		c0.7,2.9,1.9,4,3.8,3.3c0.1-1,0.1-1.9,0.2-2.9C270,266.7,268.6,266.5,267.3,266.4z"/>
	<path id="path9593_1_" fill="#FEC010" stroke="#000000" stroke-linecap="round" stroke-linejoin="round" d="M276.7,267.3
		C278,269,279.3,270.8,276.7,267.3z"/>
	<path id="path9589_1_" fill="#FEC010" stroke="#000000" stroke-linecap="round" stroke-linejoin="round" d="M272.7,270.6
		c0.3,1.5,0.6,2.9,0.9,4.4C278.5,270.9,278.2,269.5,272.7,270.6z"/>
	<path id="path9587_1_" fill="#FEC010" stroke="#000000" stroke-linecap="round" stroke-linejoin="round" d="M279.8,270.9"/>
	<path id="path9583_1_" fill="#FEC010" stroke="#000000" stroke-linecap="round" stroke-linejoin="round" d="M277.1,272.4
		c0.2,4-4,3.8-0.2,6.2C278.7,276.2,277,273.5,277.1,272.4z"/>
	<path id="path9579_1_" fill="#FEC010" stroke="#000000" stroke-linecap="round" stroke-linejoin="round" d="M265.1,273.8
		c-0.3,2.8-2.8,8-6.9,11.1C261.8,280.4,265.7,279.1,265.1,273.8z"/>
	<path id="path9577_1_" fill="#FEC010" stroke="#000000" stroke-linecap="round" stroke-linejoin="round" d="M284.4,274.2
		c-0.7,3.3-1.6,5.2-5.1,7.5c-0.2,0-4.9-3.6-5.7,4c4.7-4.6,8.4-1.6,11.4,2.1c0.2-1.8,0.7-3.6,0.7-5.6c0.6,0.9,1.2,1.8,1.8,2.7
		C285.5,279.9,289.7,277.6,284.4,274.2z"/>
	<path id="path9575_1_" fill="#FEC010" stroke="#000000" stroke-linecap="round" stroke-linejoin="round" d="M280.2,274.4
		C279.4,275.2,281.7,277.5,280.2,274.4L280.2,274.4z"/>
	<path id="path9573_1_" fill="#FEC010" stroke="#000000" stroke-linecap="round" stroke-linejoin="round" d="M175.7,274.6
		C175.3,275.7,174.5,277.6,175.7,274.6z"/>
	<path id="path9571_1_" fill="#FEC010" stroke="#000000" stroke-linecap="round" stroke-linejoin="round" d="M132,278.6
		c2.1,1-0.7,4.5-0.9,4.7C132.4,298.7,143.6,285.2,132,278.6z"/>
	<path id="path9545_1_" fill="#FEC010" stroke="#000000" stroke-linecap="round" stroke-linejoin="round" d="M274.2,286.6
		C274.5,286.9,275.3,287.6,274.2,286.6L274.2,286.6z"/>
	<path id="path9541_1_" fill="#FEC010" stroke="#000000" stroke-linecap="round" stroke-linejoin="round" d="M256.9,289.1
		c-0.9,9.5-15.6,10.2-18.6,19.8c-7.1,1.6-8.2,4.7-6.1,8.3c4.3,3.9,14.8,2.1,17.6,5.7c6.6-3.3,10.5-12.2,15-17.1
		c-3.9-0.2-3.9-4.2-6.7-6.4c2.4-1.8,0.8-1.7,5.1-3.1c-0.5-0.4-1.1-0.9-1.6-1.3c1.3-0.7,2.5-1.5,3.8-2.2
		C261.1,289.9,258.8,292,256.9,289.1z"/>
	<path id="path9535_1_" fill="#FEC010" stroke="#000000" stroke-linecap="round" stroke-linejoin="round" d="M178,292.9
		C179.2,294.7,178.6,293.8,178,292.9z"/>
	<path id="path9533_1_" fill="#FEC010" stroke="#000000" stroke-linecap="round" stroke-linejoin="round" d="M295.3,293.3
		C294.6,295.8,294.6,296,295.3,293.3z"/>
	<path id="path9529_1_" fill="#FEC010" stroke="#000000" stroke-linecap="round" stroke-linejoin="round" d="M293.5,295.1
		c-2.7,3.5-2.2,6.4,1.5,8.6C287.5,299.1,293.6,297.1,293.5,295.1z"/>
	<path id="path9521_1_" fill="#FEC010" stroke="#000000" stroke-linecap="round" stroke-linejoin="round" d="M183.1,298
		c8.3,10.4,25.8,33,36.3,32.8c3.3-5.1,1.2-9.9-3.4-8.8c-1.5-3.2-0.2-2.9-5-5.1C212.3,313.1,192.2,297.2,183.1,298z"/>
	<path id="path9517_1_" fill="#FEC010" stroke="#000000" stroke-linecap="round" stroke-linejoin="round" d="M284.9,299.1
		c-10.6,10.6-20.5,1.9-20.5,19.6c2.1,4.1,5.2-17.3,1.6,5.2c7.2-0.7-0.9-9.9,5.8-8.8c0.3,2.9,0.5,2.5,1.1,5.3c1.8,0.3,3.2-0.4,4.4-2
		c-2.9-2.5-0.8-3.2-4.9-6c3.5,0.5,5.8-1.1,6.9-4.7c-3.2,3-6.9,3.7-10.9,2.2C272.2,304.8,280.3,306.1,284.9,299.1z"/>
	<path id="path9515_1_" fill="#FEC010" stroke="#000000" stroke-linecap="round" stroke-linejoin="round" d="M228.3,301.3
		C228.4,302.9,228.4,303.2,228.3,301.3z"/>
	<path id="path9503_1_" fill="#FEC010" stroke="#000000" stroke-linecap="round" stroke-linejoin="round" d="M184.6,306.4
		C188.5,307.8,186.9,307.3,184.6,306.4L184.6,306.4z"/>
	<path id="path9501_1_" fill="#FEC010" stroke="#000000" stroke-linecap="round" stroke-linejoin="round" d="M194.6,306.4
		C196.7,308.6,196.6,308.5,194.6,306.4z"/>
	<path id="path9499_1_" fill="#FEC010" stroke="#000000" stroke-linecap="round" stroke-linejoin="round" d="M300.6,307.6
		c-3.2,0-5.7,1.3-7.5,4C295.7,311.2,301,307.3,300.6,307.6z"/>
	<path id="path9497_1_" fill="#FEC010" stroke="#000000" stroke-linecap="round" stroke-linejoin="round" d="M285.3,308.9
		c-1.7,0.4-2.4-0.5-3.1,1.5C283.2,309.9,284.3,309.4,285.3,308.9z"/>
	<path id="path9491_1_" fill="#FEC010" stroke="#000000" stroke-linecap="round" stroke-linejoin="round" d="M190.4,310.4
		c-2,0.2-1.4,1.1,1.8,2.6C192.7,310.9,191.6,311.6,190.4,310.4z"/>
	<path id="path9489_1_" fill="#FEC010" stroke="#000000" stroke-linecap="round" stroke-linejoin="round" d="M207.5,310.7
		C208.5,312.6,207.9,311.6,207.5,310.7z"/>
	<path id="path9487_1_" fill="#FEC010" stroke="#000000" stroke-linecap="round" stroke-linejoin="round" d="M215.8,311.1
		C214.4,312.7,215.2,311.8,215.8,311.1L215.8,311.1z"/>
	<path id="path9485_1_" fill="#FEC010" stroke="#000000" stroke-linecap="round" stroke-linejoin="round" d="M289.8,311.3
		c-0.7,1-3.8,0.7-1.5,1.8C291.5,314.5,290,310.9,289.8,311.3z"/>
	<path id="path9481_1_" fill="#FEC010" stroke="#000000" stroke-linecap="round" stroke-linejoin="round" d="M215.6,314.7
		C215.5,314.7,218.6,317.2,215.6,314.7z"/>
	<path id="path9479_1_" fill="#FEC010" stroke="#000000" stroke-linecap="round" stroke-linejoin="round" d="M196,317.8
		C196.1,318.5,196.9,321.9,196,317.8z"/>
	<path id="path9475_1_" fill="#FEC010" stroke="#000000" stroke-linecap="round" stroke-linejoin="round" d="M220.9,318.9
		c-1.1,0.5-2.3,1-3.4,1.5c1.8,1,3.3,1.6,5.6,2.3C222.8,322.1,220.6,320.6,220.9,318.9z"/>
	<path id="path9471_1_" fill="#FEC010" stroke="#000000" stroke-linecap="round" stroke-linejoin="round" d="M226.5,321.1
		C227.8,322.4,228.7,323.2,226.5,321.1z"/>
	<path id="path9469_1_" fill="#FEC010" stroke="#000000" stroke-linecap="round" stroke-linejoin="round" d="M200.4,322.9
		C202.6,325.1,201,323.5,200.4,322.9z"/>
	<path id="path9465_1_" fill="#FEC010" stroke="#000000" stroke-linecap="round" stroke-linejoin="round" d="M290.4,325.1
		c-5.2,0.8-9.9,3.7-12.5,8C282.3,331.2,286.7,328.3,290.4,325.1z"/>
	<path id="path9459_1_" fill="#FEC010" stroke="#000000" stroke-linecap="round" stroke-linejoin="round" d="M276.7,327.8
		c-3.3,1.3-6.6,2.7-9.9,4C271.8,331.8,274.1,329.2,276.7,327.8z"/>
	<path id="path9451_1_" fill="#FEC010" stroke="#000000" stroke-linecap="round" stroke-linejoin="round" d="M220.7,330.5
		c-1,0.8-1.9,1.7-2.9,2.5c9.5,2.2,20.4,2.1,31.8,2c-0.1-0.8-0.3-1.7-0.4-2.5C239.7,331.7,230.2,331,220.7,330.5z"/>
	<path id="path9441_1_" fill="#FEC010" stroke="#000000" stroke-linecap="round" stroke-linejoin="round" d="M251.1,333.1
		c0.1,0.6-3.1-0.1,0.2,1.8C255.1,332.7,251.2,333.8,251.1,333.1z"/>
	<path fill="#FEC010" stroke="#000000" stroke-linecap="round" stroke-linejoin="round" d="M304.2,107.2c-1.8-3.9-2.4-9.5-5.3-13.9
		c-3.3-5-10.3-6.3-8.8-13c0.6,0.4,1.2,0.9,1.8,1.3c0.8-4.5-2.1-1.7,2.4-4c-2.9-3.4-6.8-22.8-10.7-13.5c-0.5-0.8-1-0.6-1.3,0.4
		c-1.3-3.4-0.4-3.2-3.1-7.8c3.7,0.2,5.1-1.3,7.6-1.5c-0.9-1.1-3.6-1.8-4.7-2c0.3,0.8-3.7-7.5-4.4-0.5c0.9,0.2,1.9,0.5,2.8,0.7
		c-7.6-1.6-11.9,1.8-16.4,5.6c2.2-0.2,3.5,0.5,4,2.2c-4.4,2.8-3.2,2.1-6,5.5c-3.2-1.3-16-0.3-17.8,0.9c0.2,0.8,0.5,1.7,0.7,2.5
		c-0.5-0.5-1-1.1-1.5-1.6c1.2,1.1,1.5,0.9,0.8-0.6c-0.6,0.4-1.3,0.9-1.9,1.3c0.6-0.5,1.1-1.1,1.7-1.6c-1.8,0.5-3.7,0.9-5.5,1.4
		c1.3,0.5,1.3,1.2-0.2,2.2c1.1-0.9,2-0.4,2.6,1.5c-2.1-0.2-2.6,0.4-1.3,1.8c-2.1,0.5-4.3,0-6.2-0.2c0.1,1.2,0.3,2.4,0.4,3.6
		c-8-7.9-14.8-2.4-24.5-4.3c2.3-2.4-6.9,10.4-3.8,3.8c1.4-4,6.6-8.5,6.1-8c-3.8-1.8-4.8-2.9-8.5-3.3c-0.7-1.7,1.3,0.6-0.3-1.8
		c-4.2,1.6-15,6.7-15.3,9.6c-10.9-1.2-6.7,6.1-5.8,5.1c-4.3-0.8-7.6-0.5-7.1-4.7c-1.5,9.5-8.5,2.3-2.2,11.1
		c-2.4,1.8-2.6,3.2-0.4,4.2c-0.1-0.9-0.5-3-0.7-4.6c-3.4,3-7.5,7.3-12.2,3.7c9.5,3.2,12.3-15.2,13.3-17.1c-6.6,1.9-10,8.1-11.8,12.7
		c-0.4-1.2-0.7-2.3-1.1-3.5c0.9,0.8,0.7,0.5-0.6-0.8c0.4,1.7-39.6,30-40.6,31.4c-4.1,5.8,4,5.1,5.3,6.9c-1.1,2-2.5,3.2-4.4,3.6
		c0,2.6,5.2,5.1,1.7,8c-13-6.8-20.5-13.4-23.5,8.9c-5.2-2.8-2.3,0-4.3,0.6c-0.6-0.6-1.1-1.2-1.7-1.8c-0.3,4.3-2,9.2-2,13.6
		c-2.3,0,4.9-3.5,3.1-2.2c0.1,1.5,0.1,2.9,0.2,4.4c0.2,0-5-1.8-3.3-1.9c-1.8,4.7-2.4,5.7-1.8,3.1c1.3,0.4,1.5,1.2,0.7,2.4
		c-0.6-1.3-1.1-1.2-1.6,0.4c4.7,17.5-20.1-4.3-2.9-6.8c-4.9-5.2-9.5-19.9-9.9-27.3c-0.8,19.9-11.3,7.9-16-2.8
		c-1,0.6-1.2,1.4-0.5,2.3c-0.7-1.4-1.3-1.5-1.8-0.2c-0.5-1.2-1-2.4-1.5-3.6c-1.5,0-4.5,5.4-4.5,5.3c-0.4,0.4-4.2,7.7-1.1,11.4
		c0.5-0.5,1.1-1.1,1.6-1.6c3.2,6.1,0.7,6.6,6,8.2c-4.5,6.8-8,13.2-14.9,10.2c-6.8,13.9-6,46.8-4,63.3c2,16.7,9.8,14.5,24.3,13.3
		c4.2-0.4,6.5-0.5,10.1-2.1c12.6-5.7,0.6-12.7,4.9-25c-7.5,7.1-15.9,2.1-12.4-6c-0.6,1.3-1.2,2.5-1.8,3.8c0-6.1,0.4-13.4-0.5-18.9
		c1.5,0.7,2.1,0.1,1.6-1.8c4,0.9,1.7,2.4,4.1,6c-0.5,3,0,5.8,1.5,8.6c2,3.3,5,5.3,8.9,5.9c4,4.7,4.6,9,10.5,13
		c3.3,2.3,9.8,2.9,11.9,4.4c0.3,0.2,1,3.2,1.4,3.7c1.7,1.6,0.7,2.5,3.5,2.8c1.5,2.6-0.9,2.4,3.8,4.7c-1.8,0.1-1.9,1.3-4.6,0.6
		c2.8,7.9,8,7.6,11.3,3.8c-7.1,9.5,2.1,38,8.6,49.6c-3.7,0.5,6.4-3.3,5.4-2.7c1.7-3.3,1.6-14.3,5.1-19.5c-0.3,0.5,16.5-9.1,15.3-8.1
		c6.7-5.3,10.2-10.9,14.4-7.3c1.1-0.7,1.5-0.7,2.9-2.4c0.3,0.7,0.6,1.3,0.9,2c0.4-0.8,0.7-1.7,1.1-2.5c0.1,0.7,0.1,1.3,0.2,2
		c0.8-1.3,0.2-0.9,0.5-2.6c2.3,2,9.8,9.9,10.2,12.4c-0.7-0.1-1.3-0.1-2-0.2c0.5,0.7,1.1,1.3,1.6,2c0.2-0.6,0.4-1.2,0.6-1.8
		c1.8,3.8,1.8,7.6,0,11.4c1.6-1.3,1.7-1.2,0.5,0.4c1.5,0.2,9.8-1.3,8.4-5.1c6.5,7.7,7.3,21,4.4,30.2c6.2,4.8,11.5,19.5,21,20.3
		c-1.3-10.9-30.5-29.3-11.6-37.2c2.5,8.1,13.5,6.2,13.2,14.7c12.5,1.9,3.4-2.5,3.5-4c0.8,0.4,1.7,0.7,2.5,1.1
		c-2-2.1-1.9-2.4,0.2-0.7c-2.1-2.1,2.4-1.1-0.7-1.5c21.6,1.4-3.4-27.4-0.1-34.9c3.4-7.6,8.7-0.5,10.6,1.2c0.6-1.4,1.5-1.2,1.1-4
		c4.7-1.6,5.7-1.8,7.7-4.9c2,1-0.2,1.4,2,0.9c-0.3-1-0.5-1.9-0.8-2.9c1.1,0.8,2.2,1.7,3.3,2.5c2.7-2.8,9.4-5.3,9.7-9.6
		c3.9-1.5,2.8-2.7,5.4-3.8c-1.2-3.4-0.2-3.1-1.1-4.9c2.6,0.9,10.3-18.9-0.3-12c1-0.9,12.1-8.3-1.3-6c1.8-0.1,3.6-0.1,5.4-0.2
		c-4.9-2.1-5.4-6.4-9.6-8.7c0.3-4.7,4.5-9,7.3-11.3c-3.7-1.1-6.7-0.1-8.9,3.1c-1.6-0.9-3.1-2.5-4.9-3.5c1.6-4.6,5.5-6.7,8.7-11.4
		c-0.1,2.2,0.8,2.6-0.2,6c1.4,2,1.8-2,0.2,2.2c1.9-4.6,5.3-6.5,10.2-5.7c-0.4,1.2-0.9,5.4-0.9,5.7c1.7-0.6,2-0.4,1.1,0.5
		c2.1,0.4,4.1-6.1,5.8,2.4c-2.9,0.3-1.1-0.7-0.9,1.8c-0.3-1.3,2.1,5.6,2.3,6.9c0.9-0.5,5.7-4.2,5.7-4.4c-0.1-4.3-2.8-6.4-3.3-9.9
		c-4-0.3-5.6-1.9-4.7-4.8c-0.3-1.6,0.4-2.8,1.9-3.6c-0.1-3.4,2.5-8.3,3.2-11.4c16.3,1.4,6.9-45.6-3.7-39.2c0,1.3,0.3,1.9-0.9,3.2
		c-0.2-0.9-0.5-1.8-0.7-2.7c-0.1,0.8-0.3,1.6-0.4,2.4c0.9,0.5-7.1-4.4-4.7-2.4c1.1-9.2,8.9-28.2,14.7-22.9c1.1-1.3,2.2-2.7,3.3-4
		c-3.6-1.1-6.5-6-2.4-10.9c1.3,3.2,1.9,2.1,3.5,3.3c-1.2-3.7-1.2-5.5-2.4-8.2c1.9,1.1,3.8,4.5,5.2,7.8c5,12,4.9,19.3,17.4,27.8
		C304.9,110.9,304.6,109.1,304.2,107.2z"/>
</g>
</svg>
