<?xml version="1.0" encoding="utf-8"?>
<!-- Generator: Adobe Illustrator 23.0.0, SVG Export Plug-In . SVG Version: 6.00 Build 0)  -->
<svg version="1.0" id="globes" xmlns="http://www.w3.org/2000/svg" xmlns:xlink="http://www.w3.org/1999/xlink" x="0px" y="0px"
	 viewBox="0 0 400.1 400" enable-background="new 0 0 400.1 400" xml:space="preserve">
<path id="Shadow_Sea" opacity="0.5" fill="#86CAD9" enable-background="new    " d="M400,200c0.3-58.3-26.6-116.1-71.6-153.3
	C283.7,8.9,221.7-7.7,164.2,3.4C102.9,13.9,48.1,55.3,20.9,111.1c-25.3,50.2-27.8,111.2-6.4,163.3c22.3,56.9,72.4,101.9,131.3,118
	c56.7,16.5,120.4,5.6,168.7-28.4c48.6-33.4,80.7-89.6,84.9-148.4c0.5-4.8,0.7-9.6,0.7-14.4"/>
<path id="land" opacity="0.5" fill="#FFFFFF" stroke="#000000" stroke-width="0.25" stroke-linecap="round" stroke-linejoin="round" enable-background="new    " d="
	M176.5,0.7l-0.9,0.2C175.9,1,176.2,0.9,176.5,0.7z M175.6,0.9c-0.4-0.1-0.9-0.1-1.3,0.2L175.6,0.9z M147.4,6.9
	c3.4-0.1,1.3,0.6-6.2,2.2c0.4-0.2,0.9-0.2,1.3-0.2c-1.7-0.4-2.6-0.1-2.5,0.9c0.5-0.3,1.1-0.5,1.7-0.4c-1.9,0.3-2.1,0.5-0.7,0.4
	c-5.2,1.3-8.2,3.6-12.6,4.5c1.9-0.5,2.3-0.5,1-0.2c1.8-1.2-2.3,0.9-4,1.6c-0.2,0.1,2.6-0.5,2.3-0.2c-2.7,0.5-6.5,2.2-8.7,3.8
	c5.9-2-1.1,0.7-3.6,2c2-1.8-1,0.8-1.8,1.4c0.5-0.3,0.6,0.6,0.7,0c-1.7,1.2-0.7,0.1-2,0.8c1.1-0.1,1,0.2-0.4,0.9
	c1-0.2,1.9-0.4,2.9-0.6c-0.7,0.3-1.3,0.6-2,0.9c1.4-1.4,0.5-0.5-0.5,0.3c0.5-1.3,0.1,1.1,1.1,0.1c-0.5,0.4-1.1,0.7-1.6,1.1
	c3.9-1.8,20.4-7.7,21.6-9.3c1.4,0.4,20-4.4,23.5-5.4c-2,0.7-3.9,0.7-5.7,0c0.9-0.1,1.8-0.3,2.7-0.4c-0.7,0-1.5,0-2.2,0
	c8.5-3.7,2.8,1.1,4.3-2c1.9,0.2,2.1,0.8,0.7,1.8c2.1-0.6,2.4-0.6,0.9,0c2-0.8,1.9-1.2,3-1.5c-0.2-0.1-1.1-0.9-1.9-0.3
	c1.7-1.4,2.1-0.4-0.1-0.9c0.8-0.1,1.6-0.1,2.4-0.2c0-1.9,0.3,1.5,5.3-0.6c-2.1-1.1,2.6-0.5,4.6-1.7c-1.9-0.2-1.7-0.3,0.5-0.4
	c1.4-1.2-8.8,3.8,3.3-0.9c-2.4,1.1,2.3-3.1-1.4-0.4c11.4-3.6,8-2.5,5.1-1.6c10.4-1.7-5.9,2.7,7.3-1.2c-13.7,0.2-6.9,1.1-3.2,0.1
	c-1.1,0.1-2.2,0.1-3.3,0.2c0.7-0.1,1.3-0.1,2-0.2c-1.1,0-2.1,0-3.2,0c22.2-2-0.1,0.2,5.7-0.6c-1.3,0.1-2.7,0.1-4,0.2
	c2.1,0.5-8.1,0.3-5,0.2c-5,0.6,1.3-0.3-3.9,0.5 M162.2,7.6C159,9.3,163.4,6.9,162.2,7.6z M152.9,10.9c1.1,0.6,2.4,0.3,3.2-0.7
	L152.9,10.9z M134.1,16.6l0.1-0.1L134.1,16.6z M134,16.6C133.4,16.9,132.6,17.4,134,16.6z M125.5,16l-0.2,0.1L125.5,16z M125.3,16
	c-0.2-0.1-0.5,0-0.6,0.2L125.3,16z M124.8,16.2l-0.9,0.3L124.8,16.2z M217.6,1.8C217.1,1.4,219.1,3.2,217.6,1.8z M222.7,1.8
	C220.7,2.8,223,1.6,222.7,1.8z M201.6,2c-0.9-0.2,1.9,1.6,4.6,0.4C204,1.9,203.3,2.3,201.6,2z M198.3,2.5c0-0.2-2.2,0.6,1.5,0.7
	C197.4,2.8,198.3,2.8,198.3,2.5z M199.8,3.1c0.8-0.5-0.9,0.5-2.2,0.6c0.7,0.8,3.5,0.5,0.2,0.3c1.2,0,5.1-0.9,5.3-0.9
	C201.8,2.6,199.8,2.2,199.8,3.1z M202.2,3.4c0.3,0.3,0.8,0.3,1.1,0H202.2z M202.9,3.6C205.4,4.6,205,3.1,202.9,3.6z M243.8,14.5
	c0.3,0.6-0.3-2.1,0-1.8c-0.5,0.4-4.8,1.7-4.5,1.4c0,0.2,1.1,0.7,0.7,1.3c-7.1,2.4,1.2-3.5-7.8-2.2c12.3,1.5-2.3,2.6,2,5.6
	c-3-1-3.3-0.3-5.9-1c0.9,0.6,2,1.7,2.3,2.2c-3.3,0.2-8.3-3.9-10.7-4.8c4,1.4,8,1.4,12,0c-4.5-2.2-8.4-2.2-12.1-2.1
	c-2.1-1.4-5.6-0.4-3.7-2c-2.3-1.4-10.3,0-10,0.7c-3.6-0.3-4.1,0.5-8.4,1.8c0-0.2,0.7,0.8,0.7,0.6c-2.1,0.4-2.1-0.3-0.4,0.6
	c-3.9,1.1-3.9,1.3-4,2.4c-0.8,0.2-1.6,0.5-2.4,0.7c2-2.8-5.1,5.8-0.3,1.1c0.5-1.4-7,4.3-4.9,2.4c-2.5-0.6-4.9,0.7-6.3,1.7
	c1.5-0.1,1.5,0-0.2,0.2c1.4-0.1,1.5,0,0.2,0.4c2,1,3.3,0.8,3.9-0.7c2.2-0.5-8.9,3.4-4.4,0.9c1.3,0.2,1.2,0.3-0.2,0.2
	c0.3,0.6,0.7,0.7,1.3,0.3c-0.1-0.3-0.7,2.1-0.7,2.1c1-0.4,2.1-0.7,3.1-1.1c-1.3,0.5-2.7,1.1-4,1.6c-0.3,1.6,2.4-0.1,2.5,0
	c-2.1,0.8-2.2,1.1-0.3,0.9c-0.8,0.5-1.4,0.5-1.8,0c3.3,0.1,5,0.5,9.4-1.5c0.2,4.5,2.2,3.3,2.8,8.5c6.4-1,7.8-3.7,6.9-6
	c2.3-0.2,2.9-0.7,4.5-1.3c-1.7-0.2-1.5-0.4,0.7-0.6c-3.5-5.6-1.1-6.9,3.2-9.8c1.3,0,4.5-0.2,5.8,1.1c-2,1.2-4,2.4-6,3.6
	c2.8,7.9,9.5,2.2,16.7,4.7c-2.5,0-10.4,0.9-11.5,1.4c1.1,1.5,1.2,2.5,2.2,3.6c-1.7,0.4-10.4-2.7-5.3,4.4c-1.9,0.5-2.2-0.1-0.7-1.6
	c2.3-15.9-3.8,8.2-1.2,1.8c-2.5,0.7-15.3-0.9-19.2,1.3c-0.1-0.2-2.2-1.1-2.6-1.8c0.3-1.3,2.5-4.5,3.3-5.6c-5.4,2.4-6.7,5.6-3.1,8.3
	c-5.5-0.9-10.8,1.3-11.6,3.9c-3.7,0-1.2,0-1.1,0.6c-3.1,1.5-11,5.6-14.4,3.7c-2.3,3.4-1,2.4-7,2.9c1.5,0.7,1.5,0.8,0,0.4
	c4.5,1.5,6.9,4.6,3.9,9.2c-4.1,6.4-11.8-0.6-17.4,2.6c-2.9,1.6-3.5,8.4-7.1,12.2c0.1-1.1,0.2,2-0.4,4.9c2.1,0.5,7,2.8,7.8,2.9
	c12.1,1.6,13.1-9,19.2-13.1c10.4-7,40.5-11.7,38.6,7.5c0.3-0.8,4.3-9.6,7.4-4.8c-3.7-4.4-14-7.2-15.7-14.5c8.6-1.3,18,9.8,23,16.6
	c0.6,0.4-0.1,4.6,5.8,2.4c-1.6,0.2-2.6,0.6-4.8-0.2c1.8,3.6,1.7,4.2,5.3,5.1c-0.5-1-1.1-2.1-1.6-3.1c0.7,0.1,1.5,0.1,2.2,0.2
	c-0.5-0.4-1.1-0.7-1.6-1.1c1.4-0.5,2.3-0.4,2.9,0.5c-1.5-1.4-1.6-1.8-4.4-3.1c0.1-0.6,1.7-1.9,2.2-0.9c-0.8-1.2-1.7-2.3-2.5-3.5
	c1,0.2,2.5,1,3.8,1.3c-1.1-1.9-0.1-0.9,1.1-0.4c-0.6-0.5-1.2-1.1-1.8-1.6c25.7-10.1,5.6,0.7,6.6,1.8c1.7-2.5,4-3.3,6.9-2.5
	c-2-5.3-4-7.9-0.8-12.2c2.4-1.8,3-1.8,6.2-1.8c-0.7-0.1-1.5-0.1-2.2-0.2c1.4,0,1.7,0.3,0.9,0.8c2.5,0.2,3,0.1,4.6,1.1
	c-0.8,0.3-1.7,0.6-2.5,0.9c4,1.6,5.2,4.6,9.9,0.2c-2.1,0.6-3.8-0.1-4.9-2c0.7,0.7,1.5,1.5,2.2,2.2c-5.2,0.3-2.5-1.8-1.8-3.1
	c-0.6,0.1,7.2-2,8.7-1.8c-1.7,1.2-1.3,0.7-3.1,1.4c0.9,0.5,1.8,1.1,2.7,1.6c-0.7,0.3-2.5,1.3-3.8,2.2c5.7,1.7,10.7,4.5,15.1,8.5
	c-10.2,1-20.5,1.5-30.8,1.5c0.5,0.4,1.8,0.9,2.4,1.3c-2.6,0.2-8.8-0.3-9.8,3.3c2.2,1.6,1.2,0.9,3.4,3c-1,0.5-1.6,0.3-2-0.7
	c1.5,1.2,2.3,3.6,3,4.7c1-0.1,1.9-0.1,2.9-0.2c-0.8,0.4-1.6,0.7-2.4,1.1c1.3-0.1,21.6-0.4,21.5-0.5c11,9-3.1,14-6.7,15.3
	c-10.6,3.9-24.9-1.7-34.7-1.9c-1,0,2.5,6-3.3,5.6c-7.6-0.5-19-8.8-25.9-11.7c3.9-4.3,1-3.7,3.6-8.3c-11.8,0.1-31.1,1.7-42.5,5.1
	c-15.8,4.8-35.6,31-45.1,43.3c2.3,10.8-8.4,21.8-2.8,28.7c-0.7,0.2-1.3,0.3-2,0.5c3.6,1.4,1.2,0.4,5.1,2.6
	c-2.1,0.4,4.4,8.8,3.8,11.1c11.3,16.7,37.9,14.4,54.4,6.2c-3.1-1.4,5.7,2.6,5.3,2.4c-1.7,2,0.1,0.9,1,1.3c1.9,6.1,4.3,3.9,8.6,2.3
	c1.6,0.6,4.2,2.5,5.5,3.9c-0.5,3.2-0.3,9.8-1.8,11.6c0.7,0.4,1.5,0.7,2.2,1.1c-1.1,0.8-1.9,0.6-2.3-0.5c-1.3,3.3,0.3,2.1-2.3,3.6
	c7.4,10.8,14.1,16.9,15.7,28c2.9,20.2-0.9,37.5,7.9,58.3c3.5,8.1,6.7,21.7,12.7,24.2c16.1,6.8,36.3-11.7,42.5-25.1
	c-0.4,1-0.8,0.8-1.3-0.5c10.7-2.8,11.4-10.3,8.9-20.2c25.3-4.4,18.1-29.2,18.5-43.6c0.2-10.8,4-13,10.1-19.7
	c11.6-12.9,17.1-26.9,25.8-40.2c0-0.3-1.1-4.6-2.5-5.4c-5.8,2.2-11.8,4.1-17.8,5.6c-1.2-3.3-3.4-4.6-6.7-4
	c1.7-2.9-17.3-23.8-19.6-31.9c-7.3-8.4-12.7-17.3-18.4-28c1.4,2.9,3.4,5.1,6.2,6.7c0.4-1.8,0.9-3.5,1.3-5.3
	c0.6,7.7,6,10.3,11.3,16.7c7.5,9.1,11.2,20.5,18.2,29.6c7.6,9.9,3.3,11.1,17.7,3.2c9.5-5.2,8.1-4.6,13.6-8.7
	c3.4-2.6,5.4-3.7,7.7-7.1c7.5-10.9-4.4-11.6-8.3-23.9c-2.7,9.7-12.1,8.7-13.7,1.2c0.1,1.3,0.3,2.7,0.4,4
	c-3.4-2.1-8.6-11.7-11.9-14.4c1.5-0.4,1.5-1.1,0-2.1c6-2.6,7.6,4.1,14,7.8c10,5.8,26.9,4.2,35.5,8.2c5,2.4,3.6,4.3,9.5,5.9
	c-1,2.1-1,0.5-2.2,2.2c1.8,1.7,3.5,3.4,5.3,5.1c0.6-2.6,1.6-1.6,1.1-5.4c8.8,9.5,14,34.8,20.6,48.3c5.5-4,0.8-17,0.6-21.6
	c-0.3-8.1,3.2-16.1,2.3-26.2c2.5,1.5,0.5-0.1,1.8,2c-0.5-2-0.5-2.1,0-0.5c0,0,0.5-2.4,0-2.2c0.3,0.7,0.6,1.3,0.9,2
	c-0.2-0.9-0.4-1.8-0.6-2.7c-1.1,1.1,4.5,4.2,0-0.2c0.7,1.1,5.5,8.7,4.6,7.1c2.8,4.8,4.7,9.9,5.7,15.3c0-1.6,0-1.5,0.2,0.5
	c-0.2-1.3,0.1-1.2,0.7,0.2c-0.3-1.7-0.3-1.7,0.2,0c0.1-2.2,0.4-4-0.9-6c8.4,17.9,8.4,32.7,11.9,55.7c-0.1-1.7,0-1.7,0.2-0.2
	c-0.5-14-6.7-28.3-6.3-42c1.1,4,2,4.8,2.9,10.3c-0.1-0.2,1.3,7-0.4-3.4c0.2,0.9,0.4,1.8,0.6,2.7c-0.6-3.4-4.3-17.7-4.6-18.8
	c-2.9-9.9-6.7-17.9-7.7-22.1c0.6,0-6.3-13.6-9.9-20.2c1,1.6-1.1-1.9-2.4-4c-9.8-17.4-26.5-36.9-42.7-50.7c-3.6-3.1-9.3-7.1-9.3-7.1
	c-3-2.6-8.9-5.7-9.1-6.2c0.5,0.3,1.1,0.7,1.6,1c-1.1-0.8-14.6-8.7-10.5-6.8c-11-7.3-36.7-14.7-44.2-19.5c-2.9-1,2.1,0.5-2.7-0.6
	c0.5-0.8,0.9,0.5,1.2,0.1c-3.8-0.3-9.5-2.4-13.6-3.3c2.4,0.5,3.7,1,5.4,1.3c-3.9-1.6,4.9,2.6,1,0.9c7.7,2.7-4.2,0.2,8.2,3.1
	c-6.3-1-0.7,2.2-7.3-1.1c5.7,2.4,11.6,4.5,17.5,6.4c-8.1-2.9-5.7,0.5-2.3,1.5c-3.2-1-1.4,0.4-1-0.9c-5.4-3.4-11.2-5.8-17.5-7
	c3.7,2.1,7.6,4,11.6,5.5c0,0-6.3-2.3-4-1.3c-2.2-0.3-4.3-0.6-6.5-0.9c-0.3-0.1,2.8,1.5,2.7,1.4c-1.1-0.2-1.2,0-0.3,0.6
	C246.8,12,246.2,13.6,243.8,14.5z M256.4,7.4C256,7.3,257.6,7.7,256.4,7.4z M257.8,7.8c-0.4-0.3-0.8-0.4-1.3-0.4L257.8,7.8z
	 M258.7,8.1C259.9,8.9,257,6.7,258.7,8.1z M312.7,34c2,1.4,3.9,2.8,5.9,4.2C316.6,36.9,314.6,35.4,312.7,34z M319.3,38.7
	C320.5,39.6,318.8,38.4,319.3,38.7z M320.5,39.5C321.7,40.4,320,39.2,320.5,39.5z M386,125.1c0,0.4,0.1,0.8,0.4,1.1L386,125.1z
	 M386.1,125.3C385.7,124.4,386.2,125.6,386.1,125.3z M395.1,154.6C395.4,159.5,394.6,148.4,395.1,154.6z M396.7,162.2
	C397.4,164.2,396.9,162.9,396.7,162.2z M397.1,164.7c0-0.3,0-0.6-0.2-0.9L397.1,164.7z M397.1,164.7l0.6,3.7
	C397.6,167.1,397.4,165.9,397.1,164.7z M397.7,168.3L397.7,168.3z M384,133.1C383.9,132.5,384.7,137.4,384,133.1z M100.7,118.3
	C101.8,117.8,98.8,119.2,100.7,118.3z M185.4,21.6C186.9,21.9,181.1,20.8,185.4,21.6z M235.6,4.5c-0.9,0.8-2.2,0.9-3.4,1.5
	c4.5,2.4,0.1,0.2,1.2,1.2c2.5,0.4,0.7,0.2,3.5,0.4c-1.7-0.5-1.7-0.5-0.2-0.2c-1.5-0.5-1.5-0.5,0-0.2c-2.7-2.4,1.7,1.5-1.5-0.7
	C237.4,5.6,235.7,5.5,235.6,4.5z M235.4,7.8c0.2,0.2-2.9,1.8,7.6,2.8C248.4,10.2,236.5,8.1,235.4,7.8z M171.1,5.8
	C168.5,7.3,170.7,6,171.1,5.8z M251.6,6c1.3,0.3,2.6,0.7,3.9,1.3C254.1,6.8,252.9,6.5,251.6,6z M166.9,6.7
	C164.5,7.7,167.4,6.5,166.9,6.7z M163.3,7.4l1.1,0.2L163.3,7.4z M246.5,7.6C246.5,7.6,246.5,8.5,246.5,7.6z M162.9,8
	C160,7.7,161,8.7,162.9,8z M260.8,8.8l0.4,0.1C261,8.9,260.9,8.9,260.8,8.8z M254.1,9.5c1.2,0.3,2.3,0.6,3.5,0.9
	C256.4,9.8,255.3,9.5,254.1,9.5z M258.3,9.7c2.3,1.5,4.8,2.3,7.5,2.4C266.2,12.1,258.3,10.5,258.3,9.7z M244.7,10.9
	C248.1,12.6,248.4,11.3,244.7,10.9z M135.8,11.1c-5.2,1.2,0.8,0.2-2.5,1.1C136.6,11.4,137.5,11,135.8,11.1z M264.7,11.3
	c0.7,0,1.4,0.2,2,0.7C265.7,12.2,265,12,264.7,11.3z M200.7,12C198.4,14.5,201.5,11.1,200.7,12z M237.3,12
	C237.3,12,241.1,13.9,237.3,12z M266.9,12l1.1,0.2C267.6,12.3,267.2,12.2,266.9,12z M197.8,12.7C195.3,13.6,197.3,12.9,197.8,12.7z
	 M198.3,12.7C198.2,12.6,199.4,14.4,198.3,12.7z M270.5,13.4C272.2,13.6,271,13.5,270.5,13.4z M262,15.6
	C262.6,15.4,257.9,16.8,262,15.6z M156.5,15.8c-4,1-4.3,0.9-8.1,2.1c1.7-0.7,1.7-1.3,0.2-1.8c-0.6,0.4-1.5,1.4-2.4,1.5
	c0.7,0,1.3,0,2,0c-1.4,0.4-2-0.3-3.8,0.8c0.7,0.3,1.5,0.6,2.2,0.9c-1,0.3-1.9,0.6-2.9,0.9C151.8,21.2,158.2,19.3,156.5,15.8z
	 M274.5,15.8c0.8,0,7.2,2.5,7.3,2.6c-10.7-5.9,5.7,3.5,6.7,3.9C283.8,20.1,279.2,17.9,274.5,15.8z M124,16.9
	C123.6,17,120,18.3,124,16.9z M262.9,18L262.9,18 M221.4,24l1.3-0.9 M102.2,25.6l-0.6,0.3C101.8,25.9,102,25.8,102.2,25.6z
	 M101.6,25.9c-0.2,0.1-0.4,0.2-0.6,0.4L101.6,25.9z M101,26.3c-2.1,1.2-4.1,2.3-6.2,3.5c0.6-0.4,1.2-0.7,1.8-1.1
	c-0.7,0.4-1.3,0.7-2,1.1c0.8-0.5,1.7-1.1,2.5-1.6C88.7,32.8,83.5,37,76.9,42c-2.3,1.7-3.6,5.5-0.2-0.1c-6.1,5.6-17.5,10.9-20.1,18.6
	c2.3-2.4,2.4-2.1,6.1-4.9c-1.8,1.9-0.8,0.4-2.2,2.4c1.9-2.8,0.5-1.5-4.4,3.8c3.8-2.9,7.4-5.1,10.8-8.9c-7.5,4.3-1.9,1.6-4.4,3.4
	c3.6-5.6,4.4-3.5,8.2-8.1c-1.4-1.5-2.9-0.5-4.6,3.1c5.2-6.6,15.7-7.2,20.8-13.2c-2.2,1.2-2.2,0.9,0.2-0.8c-2,2,0.5,0-1.3,0.4
	c1.3-0.9,2.3-1.4,3.4-2.1c-0.2,0.1,0,0.8-1.4,0.4c1.9-1.3,2-1.5,0.2-0.4C92.7,32,98.8,30.1,101,26.3z M64.3,54
	c0.3,0.8-1.7,2.5,0.7,0.5C65.2,53.6,63.9,52.8,64.3,54z M65.4,54.7C63,57.8,65.2,55.2,65.4,54.7z M64.1,55.9l-0.5,0.3
	C63.8,56.2,64,56.1,64.1,55.9z M56.7,60.2C55.7,60.7,55,62,56.7,60.2z M58,58.7l0.3-0.3L58,58.7z M60,56.8
	C60.1,56.7,58.6,58.1,60,56.8z M73,45C73.3,44.6,73.1,44.8,73,45z M96.7,28.2C97.6,27.8,98.3,25.9,96.7,28.2z M208.9,28
	C209.8,29.1,211.7,28.5,208.9,28z M160.9,28.7c-0.1,0.8-3.4,2.9-4.2,3.5c0.7,0,1.3,0,2,0c-1,0.9-1.9,1.8-2.9,2.7
	c2.9-2.3,0.8-0.8,4.7,0.7c-1.6,4.3-1.4-0.8-0.2,1.6c3.3-1.7-12.8,10.4-5.1,2.8c2.2,1.2,0.4,1-2.3,2c9-0.6,8.1,0.8-2.7,4
	c5.4-0.6,10.7-1.5,15.9-2.8c-0.7-0.1-1.5-0.1-2.2-0.2c11.8,0-0.2-3.4,0.4-3.1c1.2-1.2,1-1.7-0.6-1.5c-0.1-1.8,0.4-2.1-3.5-4.8
	c0.8-0.1,1.7-0.1,2.5-0.2c-2.8-0.1-1.9-1,2.7-2.7c-1.6,0.1-3.1,0.1-4.7,0.2c1.2-0.7,2.4-1.3,3.6-2C163.3,29,161.6,28.9,160.9,28.7z
	 M158.7,28.9c-0.9-0.1-1.8,0.4-2.2,1.3C157.3,30,158.1,29.6,158.7,28.9z M208.7,28.9C210.1,29.1,212.5,29.4,208.7,28.9z M203.6,30
	C201.4,31.8,201.9,31.4,203.6,30z M156.9,30.5C157.9,32.4,157.2,31.2,156.9,30.5z M184.9,31.3C185.6,32.7,185.1,31.7,184.9,31.3z
	 M156.9,32.5C155.8,34.5,156.9,32.5,156.9,32.5z M90,33.4L89.1,34C89.2,33.6,89.6,33.3,90,33.4z M190.7,33.4
	c-0.5,0.7-1.2,0.7-2.8,0.7c0.7,0.8,1.3,1.6,2,2.4C190.5,35.9,190.8,33.2,190.7,33.4z M187.4,34.2C185.7,35.9,186.5,35.1,187.4,34.2z
	 M309.8,34.5c1.5,1.2,3,2.4,4.5,3.6C312.3,37.4,310.8,36.2,309.8,34.5z M312.9,34.5c0.6,0.2,1.1,0.6,1.5,1.1L312.9,34.5z
	 M152.9,34.7c-3.3,1.3-4,2.1-7.5,4.1c0.7,0.1,1.5,0.3,2.2,0.4c-1,0.5-1.9,1.1-2.9,1.6c0.9-0.1,1.8-0.1,2.7-0.2
	c-1.3,0.3-2.5,0.6-3.8,0.9c0.4-0.5,1.4,0.1-0.7,0.7c2.3-0.2,2.4,0,0.2,0.7c1.9-0.4,2.1-0.3,0.7,0.3c6.1-1.6,10-2.7,11.4-7.9
	C152.7,36.3,153.8,35.4,152.9,34.7z M86.2,35.3l-1.8,1.5C85,36.3,85.6,35.8,86.2,35.3z M315.1,35.6l0.6,0.4
	C315.6,35.7,315.3,35.6,315.1,35.6z M86,36c-1.2,0.8-1.5,1.3-2.5,1.7c1.4-0.8,0.9-0.5-1.3,0.9c1.2-1.2,2.1-1.6,3.3-2.5
	C83.7,37.3,83.9,37.3,86,36z M193.1,36.5C191.8,37.8,192.8,36.8,193.1,36.5z M80.9,39.8C78.5,41.5,80.2,40.3,80.9,39.8z M323.5,41.9
	l0.5,0.4C323.8,42.1,323.7,42,323.5,41.9z M81.6,42.5c-3.4,2-10.8,6.6-12.5,9.3c1.1,0.3,1.7-1,3.1-0.9c-2.3,2.8,0.8-1.2-2.6,2.3
	c9.2,0.9-2.4-0.5,2.4-0.7c-0.5,0.5-1,1-1.5,1.5c6.4-2.7,1.3-1,4.4-3.8c-0.7,0.5-1.5,1.1-2.2,1.6c3.1-4,1-1,4.4-4
	c-1.2,0.2-1.2,0,0-0.7c-0.7,0.4-1.3,0.7-2,1.1c0.6-0.7,2.8-1.2,0.5-0.9c2.2-1.5,1.3-1.2,1.3-1.1C78.2,44.5,79.7,43.3,81.6,42.5z
	 M323.8,42.9c1,0.7,2,1.4,2.9,2.2L323.8,42.9z M74.7,43.7c-0.2,0.1-0.3,0.2-0.4,0.3L74.7,43.7z M74.3,44c-0.3,0-0.5,0.2-0.5,0.5
	L74.3,44z M72.7,46.5C72.2,47.3,70.2,50.5,72.7,46.5z M276.5,52.9c2.9-0.6,5.5,2.4,6.7,4.2c-1.3-0.1-2.5-0.1-3.8-0.2
	c-0.6,1.3-0.1,2,1.4,2.2c-0.9-0.1-1.8-0.1-2.7-0.2c3.1,1.5,7.8,8.2,10.2,9.2c-0.4-0.8-0.7-1.6-1.1-2.4c1.5,0.5,3.4,1.9,5.1,2.5
	c-2.3,1.1-1.8-0.2-4,0c0.3,2.8,4.3,4.5,2.6,3.8c1.4,1.2,4.4,3.8,5.3,7.7c-7.8,1.7-16.5-4.2-12.7-9.9c-3.9-1.4-14.1-9.7-13.1-13.6
	C273.8,55.1,272.6,54.2,276.5,52.9z M63,53.9c-0.3,0-0.5,0.2-0.6,0.5L63,53.9z M55.4,61.6c-0.3,0-0.6,0.3-0.6,0.6L55.4,61.6z
	 M180.5,62.9c-1.3,1.8-3.4,1.3-1.6,4C180.5,65.6,181.1,64.2,180.5,62.9z M179.4,67.6c-1.4,2.1-4.5,0.9-2.7,6
	C181.7,72.5,179.4,70.7,179.4,67.6z M163.1,70.9C160.2,73.9,162.2,71.8,163.1,70.9z M224.9,72.5C224.6,73.6,224.5,73.8,224.9,72.5z
	 M216.9,73.4c0-0.1-0.2,1.6,3.1,2.9C218.9,75.3,217.9,74.4,216.9,73.4z M209.4,74.9C209.5,75.8,209.8,77,209.4,74.9z M196,75.6
	c-2.9,0.1-5.8,0.5-8.7,0.7C189.1,83.8,193.7,77.8,196,75.6z M358.5,78.5C359.9,80.8,359.9,80,358.5,78.5z M231.1,80.5
	C229.3,82.5,229.9,81.7,231.1,80.5z M248.9,82.7c-2,0.6-4,1.2-6,1.8C247.2,87.4,246.3,84.5,248.9,82.7z M218.5,82.9
	c1.5,0.4,5.1,2.1,7.5,0.8C223.3,85.3,220.8,85,218.5,82.9z M368.5,91.2l1.1,1.7C369.2,92.3,368.8,91.8,368.5,91.2z M369.6,93
	l0.2,0.4C369.6,93.3,369.6,93.1,369.6,93z M372.5,97.7C372.6,97.9,372.5,97.8,372.5,97.7z M372.7,98.1
	C372.8,98.3,372.7,98.2,372.7,98.1z M111.4,101.8C110.7,102.3,107.8,104.2,111.4,101.8z M109.8,103.1
	C106.2,106.6,109.8,104.8,109.8,103.1z M103.8,103.8C101.3,105.3,101,105.6,103.8,103.8z M104.5,104.9
	C104.7,106,104.7,106.1,104.5,104.9z M312.7,108.7l-2.2,1.3C311.4,110.1,312.3,109.5,312.7,108.7z M372.2,110.9
	c-0.2,2.6,0.6,5.1,2.2,7.1C372.4,116.2,371.6,113.5,372.2,110.9z M371.1,114.7l3.1,3.6C372.9,117.3,371.9,116.1,371.1,114.7z
	 M12.2,131.1c-0.6,3.3-1.6,4.8-2.6,7.9C10.4,136.1,11.2,134.5,12.2,131.1z M12,136.2C11.4,136.8,9.3,139.1,12,136.2z M389.6,136.2
	c0.3,0.2,0.4,0.6,0.2,0.9L389.6,136.2z M12.2,142.4c-0.4,0.5-0.6,1.1-0.6,1.8C12.1,143.8,12.4,143.1,12.2,142.4z M274.7,144.7
	C275.3,145.3,277.3,147.5,274.7,144.7z M73.8,146.4C74.1,147.6,74.3,148.3,73.8,146.4z M393.3,147.6c0.1,1.2,0.5,2.5,1,3.6
	L393.3,147.6z M389.1,154.7c-0.2,0.7,0,1.4,0.4,2L389.1,154.7z M315.4,156C316.3,157,321.5,156.1,315.4,156z M4.9,156.2
	c-0.4,1.3-0.7,2.6-0.9,4C4.3,158.9,4.6,157.5,4.9,156.2z M17.6,204.7c0.2-1.4,0.5-2.8,0.7-4.2c-1-0.2-1.9-0.5-2.9-0.7
	c-0.1,1-0.3,2.1-0.4,3.1c-0.4,0.1-0.5-3-1,0c0.1-6.7,1-11.5,0.7-18.7c-2-1.5-6.3-7.1-7.1-7.1c1-4.6-3.2-11.9-0.1-15.1
	c-1.7-0.3-2.5,0.6-2.3,2.5c-0.2-2.3-0.3-2.2-0.7-5.4c-3.1,13.1-4.7,32.7-3.6,53.5c1,19.2,9.7,55.2,22.3,79.3
	c3.7,7.1,28.8,52.4,37.7,50.8c0.6,0.6,0.7,0.7,2.1,2.1c0.8,0.6,9.9,8.6,13.9,12c-0.3-0.2,5.4,4.7,8.8,5.8
	c-10.3-7.4-21.2-16.2-31.6-28.6c1.5,1.5,1.2,1.2-0.8-1.1c2,2.5,0.8,1.3-3.5-3.6c0.5,0.4,1.1,0.7,1.6,1.1c0.2-2.5-3.5-4.2-4.6-5.8
	c0.8-3.3-4.8-12-9.2-16.2c1.7,5.1,3.9,6.6,6.6,4.6c-1.6-4.7-3.4-9.3-5.4-13.8c2.4,1.5,3.3,3.6,2.7,6.4c-1.7-13.7-4.7-18.9-2.6-28.3
	c0.4-2,2.5,1.6,3.4-1.6c2.5-8.9-2.1-24.3-3.7-33c17.7-9.2-9.8-41.8-14.6-31.6c-0.5-1.7,0.9-5.4-0.5-7c-2,0.2-0.3-0.4-3.6-2.9
	c0,1.2-0.3,1.2-1.1,0.2c-0.4,3-1.2,3.3-0.9,2.7c-0.9,3.7,0,3.8-0.9,1.1 M4.5,159.6C4.3,160.1,4.9,157.5,4.5,159.6z M4.6,158.9
	C5.1,154.4,4.6,158.8,4.6,158.9z M84.8,362.5C84.1,361.9,84.6,362.3,84.8,362.5z M84.5,362.3l-0.6-0.5L84.5,362.3z M80.6,359.7
	c0.2,0.1,0.3,0.2,0.5,0.3L80.6,359.7z M79.6,358.9C76.7,356.5,81.3,360,79.6,358.9z M2.5,169C3.4,167.8,1.4,170.5,2.5,169z M8,161.8
	C7.1,164.6,7,165.1,8,161.8z M375.8,165.1c0,2.9,1.1,8.6,1.9,13.4C380.3,174.6,379.2,169.4,375.8,165.1z M6.5,165.6
	c-1,4.4-4.8,8.4-4.3,12.2C2.5,161.9,4.8,183.7,6.5,165.6z M5.1,172.4C4.9,173.8,4.2,179.3,5.1,172.4z M393.1,174.4
	C394,177.3,393.2,175,393.1,174.4z M399.8,197.3c-0.9-4.9,0.1-10-4.9-17.5c3.5,13,5.2,33,3.9,42.1c0-2.1-0.2-0.3-0.6,5.4
	c0.7-5.5,2.9-18.8,1.5-21 M398.3,227.4l-0.5,2.5C398,229.1,398.2,228.2,398.3,227.4z M10.5,182C10.3,182.9,9.9,185.6,10.5,182z
	 M171.6,186.2C169.6,188.3,169.7,188.2,171.6,186.2z M396,189.6C397.6,193.3,396.1,189.9,396,189.6z M397.1,194
	c0.1,1.1,0.2,2.2,0.4,3.3C397.6,196.2,397.5,195,397.1,194z M399.4,194.4l0.2,1.3C399.6,195.2,399.6,194.8,399.4,194.4z
	 M399.6,195.8c-0.1,0.4,0,0.8,0.2,1.1L399.6,195.8z M256,197.5c2.3,0.7,2.6,2.7,4.9,2.9c-1.8,2-3.1,4-5.6,6c0.7,0.2,1.5,0.5,2.2,0.7
	c1.2-2.2-5.1,3.9-3.9,3c-3.5-2,1-1.6-3.1-0.7C248,202.9,251.2,198.6,256,197.5z M16.5,198.2C15.6,199,14.8,199.8,16.5,198.2z
	 M398.2,202.9c-0.4,0.8-0.4,1.8,0,2.6V202.9z M398.4,209.1C398.4,210,398.4,213.5,398.4,209.1z M1.4,211.1
	C1.1,211.4,1,211.6,1.4,211.1z M242.2,211.1c1.8,3.8,5.9,14.8,5.8,18.6c-4.7-3.2-6.4-13-6.9-15.3
	C241.4,213.3,241.8,212.2,242.2,211.1z M275.1,219.3C275.2,220.7,275.6,224.9,275.1,219.3z M257.3,232.4c2.2,5.4,3.2,10.9,2.9,16.7
	C255.8,245.7,256.6,237.4,257.3,232.4z M286.7,238.9C286.7,239.9,286.6,242.5,286.7,238.9z M304.2,240.9c-3.8,5-4.2,5.8-6.7,10.5
	c-0.3,0,0.1-1-1,1.4c-6.8-1.4-15.2,20.6-14.8,31.3c13.9-4.9,18.5-19.5,22.3-31.3c0.2,0.6,0.3,1.2,0.5,1.8
	C306.3,250.6,304.9,243.8,304.2,240.9z M289.8,241.1C289.6,241.7,289.3,242.9,289.8,241.1z M322,267.8
	C321.1,270.2,321.4,269.5,322,267.8z M316.5,270.7C316,271.6,315.4,272.7,316.5,270.7z M28,290.9c2.6,0,2.9,0.9,0,0.7
	c2.5,5.9,5.3,11.7,8.5,17.3C33.1,303.3,30.1,296.9,28,290.9z M30.9,301.1C31.3,303.8,30.9,301.1,30.9,301.1z M41.4,305.7
	c0.7,2,0.9,2,1.5,4.2C42.4,308.5,41.9,307.1,41.4,305.7z M39.1,306.4C38.7,307.7,39,309.6,39.1,306.4z M61.1,342.9
	c0,0,0.1,0.1,0.1,0.1L61.1,342.9z M61.8,343.6l0.7,0.6L61.8,343.6z M304,349.5c-0.3,1.9-3.9,2.4-0.4,2.4c0.7-1,0.1-0.5,1.8-1.6
	C302.7,351,303.8,350.4,304,349.5z M78.7,355.3C81.2,356.6,80.1,356,78.7,355.3z M80.2,356.4C81.2,358.7,81.3,357.6,80.2,356.4z
	 M78,355.5C78.6,355.7,82.8,359.3,78,355.5z M79.7,358.8l0.5,0.3C80,359,79.8,358.9,79.7,358.8z M103.8,361.1l4.2,1.8
	C106.9,361.7,105.4,361,103.8,361.1z M86,363.3c0.4,0.6,1,1,1.7,1.1L86,363.3z M113.8,377.8C114.4,378.1,115.1,378.3,113.8,377.8z
	 M113.3,378c3.1,2.5,6.5,4.4,10.2,5.7c-5.4-1.4-1.4-0.9-1-0.2c43.9,21.5,110.7,20.5,156-0.8c-3.5,1.7,3-1.5,3-1.5
	c-2.5,1.2-0.6,0.3-3.1,1.4c0.6-0.4,1.2-0.9,1.8-1.3c-5.3,2.7-4,1.6-7.7,2.5c0.7-0.4,1.3-0.7,2-1.1c-3.5,0.5-3.2,1.8-2.7-0.2
	c-5.9,2.8-11.7,4.3-16.4,4.9c1.4-1.4,0.7-0.7,2.2-2.4c-8.3,1.3-30.9-5.8-40.7,2.2c-5.4,0.8-30.6,2.1-39.7-0.6
	c1.4-1-9.4,3.7-12.6,4.2c1.6,1.1,1.9,4.1,2.4,4.9c-14.3-0.2-35.8-7.2-51.3-15.8C118,381.2,114.3,378.9,113.3,378z M142.7,390.8
	c0.2,0.1,0.4,0.1,0.6,0.2L142.7,390.8z M131.8,387.3c-0.3-0.3-0.7-0.5-1.1-0.5L131.8,387.3z M129.1,386.2c0.1,0,0.1,0.1,0.2,0.1
	L129.1,386.2z M129.4,386.4c0.2,0.2,0.4,0.3,0.7,0.3L129.4,386.4z M129.1,386.2C126.2,385.1,128.5,386,129.1,386.2z M115.5,379.7
	C112.1,378.4,114.8,379.4,115.5,379.7z M114.5,379.5C116.9,380.5,115.6,380,114.5,379.5z M140,390c0.7,0.1,1.4,0.3,2,0.6L140,390z"
	/>
<path id="africa" fill="#FEC010" stroke="#000000" stroke-linecap="round" stroke-linejoin="round" d="M94.3,158.5
	c0.2,2.3,6.2,8.2,5.3,11.5c11.3,16.7,37.9,14.4,54.4,6.2c-3.3-1.6,5.6,2.6,5.2,2.4c-1.7,2,0.1,0.9,1,1.3c2.7,8.4,7.6-0.3,14.1,6.1
	c-0.6,3.3-0.3,9.9-1.7,11.6c0.7,0.4,1.5,0.7,2.2,1.1c-1,0.8-1.8,0.6-2.2-0.5c-1.2,3.2,0.2,2.1-2.2,3.6c7.3,10.6,14.2,16.9,15.7,27.9
	c0.7,4.9-2.2,15.1-2.1,20.2c0.4,13.2,4.3,26.1,9.4,38.2c3.4,8.1,6.7,21.7,12.8,24.3c16.2,6.9,36.4-11.6,42.6-25.1
	c-0.4,1-0.8,0.8-1.3-0.5c10.7-2.8,11.4-10.3,8.9-20.2c25.3-4.4,18.1-29.2,18.5-43.6c0.3-10.8,4-12.9,10.1-19.6
	c11.7-13,17.2-26.5,25.7-40.2c0-0.3-1.1-4.5-2.5-5.3c-5.8,2.2-11.7,4-17.7,5.5c-1.2-3.3-3.4-4.6-6.7-4c1.4-2.6-14.4-21.5-18.6-28.7
	c-5.4-9.2-12.8-19.1-19.3-31.1c1.4,2.9,3.4,5.1,6.2,6.7c7.5-13.9-27.5-13.7-34.2-13.2c-2.4,0.2-11.8,4-9.4,3.9
	c-9.6,0.4-19.5-5.8-29.2-10c3.9-4.5,1.2-3.7,3.8-8.4c-11.7,0.1-31.1,1.6-42.5,5.1c-16,4.9-34.6,31.5-45.1,43.1
	c1.6,4.3,2.1,2.9,0.5,9.7c-0.8,2.1-1.6,4.1-2.3,6.2c-4.4,3.2-4.8,6.6-1.4,10.2 M92.6,153.6c-0.8,0.8-1.5,2.4-1.6,2.9
	c3.1,0.1,0.9,0.9,2,2.2 M100.6,118.3C101.7,117.8,98.7,119.2,100.6,118.3z M111.2,101.8C110.5,102.3,107.6,104.2,111.2,101.8z
	 M109.7,103.1C106.1,106.6,109.7,104.8,109.7,103.1z M103.7,103.8C101.2,105.3,100.9,105.6,103.7,103.8z M104.3,104.9
	C104.5,106,104.5,106.1,104.3,104.9z M274.6,144.7C275.2,145.3,277.2,147.5,274.6,144.7z M141.7,178c0.3-0.4,0.2-1-0.2-1.3
	 M171.5,186.2C169.5,188.3,169.6,188.2,171.5,186.2z M255.9,197.5c2.3,0.7,2.6,2.7,4.9,2.9c-1.8,2-3.1,4-5.6,6
	c0.7,0.2,1.5,0.5,2.2,0.7c1.3-2.3-5.1,3.8-3.9,2.9c-3.5-2,1-1.6-3.1-0.7C247.9,202.7,251.2,198.5,255.9,197.5z M242.1,211.1
	c1.8,3.9,5.9,14.8,5.8,18.6c-4.7-3.2-6.4-13-6.9-15.3C241.3,213.3,241.7,212.2,242.1,211.1z M275,219.3
	C275.2,221.7,276.5,222.9,275,219.3z M257.2,232.4c2,5.4,3,10.9,2.9,16.7C256,245.6,256.7,237.6,257.2,232.4z M286.5,238.9
	C286.5,239.9,286.4,242.5,286.5,238.9z M304.1,240.9c-3.8,4.8-4.3,5.7-6.7,10.3c1.2-0.3-3,1.8-2.4,1c-5.9,8.2-13.8,17.1-13.3,31.6
	c14.1-3.3,20.4-19.8,22.5-31.2c0.2,0.6,0.3,1.2,0.5,1.8C306.6,250.3,305.4,244.3,304.1,240.9z M289.7,241.1
	C289.5,241.7,289.2,242.9,289.7,241.1z M321.9,267.8C321,270.2,321.3,269.5,321.9,267.8z M316.3,270.7
	C315.8,271.6,315.2,272.7,316.3,270.7z"/>
</svg>
