<?xml version="1.0" encoding="utf-8"?>
<!-- Generator: Adobe Illustrator 23.0.0, SVG Export Plug-In . SVG Version: 6.00 Build 0)  -->
<svg version="1.0" id="Layer_1" xmlns="http://www.w3.org/2000/svg" xmlns:xlink="http://www.w3.org/1999/xlink" x="0px" y="0px"
	 viewBox="0 0 50 50" enable-background="new 0 0 50 50" xml:space="preserve">
<path d="M32.3,27.7L32.3,27.7L32.3,27.7c-0.2-0.2-0.3-0.3-0.5-0.4c-0.2-0.1-0.4-0.1-0.6-0.2C30.7,27,30.3,27,29.8,27
	c-0.2,0-0.4,0-0.7,0c-0.1,0-0.2,0-0.3,0c-0.1,0-0.2,0-0.3,0.1c-0.1,0-0.2,0.1-0.3,0.1c-0.1,0-0.2,0.1-0.3,0.2
	c-0.2,0.1-0.4,0.3-0.5,0.4h0c0,0,0,0,0,0c0.2-0.2,0.3-0.3,0.5-0.5c0.1-0.1,0.2-0.1,0.3-0.2c0.1-0.1,0.2-0.1,0.3-0.1
	c0.2-0.1,0.4-0.1,0.7-0.1c0.2,0,0.4,0,0.7,0c0.2,0,0.4,0,0.7,0c0.2,0,0.4,0,0.7,0.1c0.2,0,0.4,0.1,0.6,0.2
	C32,27.3,32.2,27.5,32.3,27.7z M19.7,27c0.2,0,0.4,0,0.7,0c0.1,0,0.2,0,0.3,0c0.1,0,0.2,0,0.3,0.1c0.1,0,0.2,0.1,0.3,0.1
	c0.1,0.1,0.2,0.1,0.3,0.2c0.2,0.1,0.4,0.3,0.5,0.4c0,0,0,0,0,0v0c-0.2-0.2-0.3-0.3-0.5-0.5c-0.1-0.1-0.2-0.1-0.3-0.2
	C21.2,27.1,21.1,27,21,27c-0.2-0.1-0.4-0.1-0.7-0.1S19.9,26.9,19.7,27c-0.2-0.1-0.4-0.1-0.7,0c-0.2,0-0.4,0-0.7,0.1
	c-0.2,0-0.4,0.1-0.6,0.2c-0.2,0.1-0.3,0.3-0.5,0.5v0h0c0.2-0.2,0.3-0.3,0.5-0.4c0.2-0.1,0.4-0.1,0.6-0.2C18.8,27,19.2,27,19.7,27z
	 M26.7,29.1c0.1,0.1,0.1,0.1,0.2,0.2s0.1,0.1,0.2,0.2c0.1,0.1,0.1,0.1,0.2,0.2c0.1,0.1,0.2,0.1,0.2,0.2c0.2,0.1,0.4,0.2,0.5,0.2
	c0,0,0,0,0,0c0,0,0,0,0,0c-0.2-0.1-0.3-0.2-0.5-0.3c-0.1,0-0.2-0.1-0.2-0.1c-0.1-0.1-0.2-0.1-0.2-0.2c-0.1-0.1-0.2-0.1-0.2-0.2
	C26.9,29.2,26.9,29.1,26.7,29.1c0-0.1,0-0.2-0.1-0.3c-0.1-0.1-0.1-0.2-0.2-0.2c0,0,0,0,0,0c0,0,0,0,0,0c0,0.1,0.1,0.2,0.1,0.3
	C26.6,28.9,26.7,29,26.7,29.1z M25.9,29.9C25.9,29.9,25.9,30,25.9,29.9C26,30,26.2,30,26.2,30c0,0,0-0.1,0-0.2
	c0-0.1-0.1-0.2-0.1-0.2c-0.2-0.3-0.3-0.7-0.2-1c0-0.2,0.1-0.4,0.2-0.5c-0.1,0.1-0.1,0.1-0.2,0.2c-0.2,0.3-0.3,0.8-0.2,1.2
	C25.8,29.6,25.8,29.7,25.9,29.9z M27.7,33.2c0,0.1,0,0.2,0,0.3s0,0.2-0.1,0.3c0,0.1-0.1,0.2-0.2,0.3c-0.1,0.1-0.2,0.1-0.3,0.1
	c-0.2,0.1-0.4,0.1-0.6,0.2c-0.2,0.1-0.3,0.3-0.5,0.5c-0.1,0.2-0.3,0.4-0.4,0.5c-0.2,0.1-0.4,0.3-0.6,0.3c-0.1,0-0.2,0-0.3,0
	c-0.1,0-0.1,0-0.2-0.1s-0.1-0.1-0.1-0.1c-0.1-0.1-0.1-0.2-0.2-0.3c-0.1-0.1-0.2-0.2-0.2-0.2c-0.1-0.1-0.2-0.1-0.3-0.2
	c-0.1-0.1-0.2-0.1-0.3-0.2c-0.1-0.1-0.2-0.1-0.3-0.1c-0.1,0-0.2,0-0.3,0c-0.1,0-0.2,0-0.3,0c-0.1,0-0.2,0-0.3-0.1s-0.2-0.2-0.2-0.3
	c0-0.1-0.1-0.2-0.1-0.3c0-0.1,0-0.2,0-0.3c0-0.1,0-0.2,0-0.3c0-0.1,0.1-0.2,0.1-0.3s0.1-0.2,0.1-0.3c0,0,0,0,0,0c0,0,0,0,0,0
	c0,0.1-0.1,0.2-0.1,0.3c0,0.1-0.1,0.2-0.1,0.3c0,0.1,0,0.2,0,0.3c0,0.1,0,0.2,0,0.3c0,0.1,0,0.2,0.1,0.3c0,0.1,0.1,0.1,0.2,0.2
	c0.1,0,0.1,0.1,0.2,0.1c0.1,0,0.2,0,0.3,0c0.1,0,0.1,0,0.2,0c0.1,0,0.1,0,0.2,0c0.1,0,0.2,0.1,0.4,0.1c0.1,0.1,0.2,0.1,0.3,0.2
	c0.1,0.1,0.2,0.1,0.3,0.2c0.1,0.1,0.2,0.2,0.3,0.2c0.1,0.1,0.1,0.2,0.2,0.2c0,0,0.1,0,0.1,0.1c0,0,0.1,0,0.1,0c0.1,0,0.2,0,0.2,0
	c0.2,0,0.3-0.1,0.5-0.2c0.1-0.1,0.3-0.3,0.4-0.5c0.1-0.1,0.1-0.2,0.2-0.3c0.1-0.1,0.2-0.2,0.3-0.2c0.1-0.1,0.2-0.1,0.4-0.1
	c0.1,0,0.2-0.1,0.3-0.1s0.2-0.1,0.2-0.1c0.1,0,0.1-0.1,0.1-0.2c0,0,0,0,0-0.1L27,32.6c0.1,0.1,0.2,0.3,0.3,0.4
	c0.1,0.1,0.2,0.2,0.2,0.3c0,0,0,0,0,0c-0.1-0.1-0.1-0.2-0.2-0.3c-0.1-0.1-0.2-0.3-0.3-0.4l0,0c0,0,0-0.1-0.1-0.1
	c0-0.1-0.1-0.2-0.1-0.3c0,0,0,0,0,0c0,0,0,0,0,0c0,0,0,0,0,0c0.1,0.1,0.2,0.1,0.3,0.2c0.1,0.1,0.2,0.2,0.2,0.2
	c0.1,0.1,0.1,0.2,0.2,0.3C27.6,32.9,27.6,33,27.7,33.2z M26.9,32.2C26.9,32.2,26.9,32.1,26.9,32.2C26.9,32.1,26.9,32.1,26.9,32.2
	L26.9,32.2z M28.8,32.1c0-0.1-0.1-0.2-0.2-0.3c0,0-0.1-0.1-0.1-0.1c0.1,0,0.2,0.1,0.3,0.1c0.2,0.1,0.4,0.2,0.5,0.3
	c0.2,0.1,0.4,0.2,0.6,0.3c-0.7-0.7-1.7-1.1-2.7-1.1C27.8,31.5,28.4,31.7,28.8,32.1z M38.4,25.5c0,0.3-0.1,0.5-0.1,0.8
	c0,0.3-0.1,0.5-0.2,0.8c-0.1,0.3-0.1,0.5-0.2,0.7c-0.2,0.5-0.4,1-0.5,1.5c-0.1,0.2-0.2,0.5-0.2,0.7s-0.1,0.5-0.2,0.8
	c-0.1,0.3-0.2,0.5-0.3,0.7c-0.1,0.2-0.3,0.5-0.5,0.7c-0.2,0.2-0.4,0.4-0.6,0.5c-0.2,0.1-0.4,0.3-0.7,0.4c0,0,0,0,0,0
	c0,0.1,0,0.3,0,0.4c0,0.1-0.1,0.2-0.2,0.4c0,0,0,0.1,0,0.1c0,0.1,0,0.2,0,0.3c0,0.1,0,0.2-0.1,0.2c-0.1,0.1-0.1,0.2-0.1,0.3
	c0,0.1,0.1,0.1,0.1,0.2c0.2,0.3,0,0.6-0.1,1c-0.1,0.2-0.1,0.3-0.2,0.5c0-0.1,0-0.3,0-0.4c0-0.1,0-0.2,0-0.3
	c-0.1,0.1-0.1,0.3-0.2,0.4c0,0.1,0,0.2,0,0.3c0,0.1,0,0.2,0,0.2c0,0.1-0.1,0.2-0.2,0.2c0,0,0.1-0.1,0.1-0.1c0,0,0-0.1,0-0.1
	c-0.1,0.1-0.1,0.2-0.1,0.3c0,0.1,0,0.2,0,0.3c0,0.1,0,0.2-0.1,0.3c-0.1,0.2-0.2,0.3-0.3,0.5c-0.1,0.2-0.1,0.4-0.3,0.4
	c0,0-0.1,0-0.1,0c0,0.1,0,0.2-0.1,0.2c0,0.1-0.1,0.2-0.2,0.3c-0.1,0.1-0.1,0.1-0.2,0.2c0,0.1,0,0.1-0.1,0.2c0,0.2-0.1,0.3-0.3,0.4
	c-0.1,0.1-0.2,0.1-0.3,0.1c-0.1,0.1-0.1,0.3-0.1,0.5c0,0.2-0.1,0.3-0.2,0.4c0,0-0.1,0.1-0.1,0.1c-0.1,0.1-0.1,0.1-0.2,0.1
	c0.1-0.1,0.1-0.2,0.2-0.3c0.1-0.1,0.1-0.2,0.1-0.3c-0.1,0.1-0.1,0.2-0.2,0.3c-0.1,0.1-0.3,0.2-0.4,0.4c0,0.1-0.1,0.1-0.1,0.2
	c0,0.1,0,0.2-0.1,0.3c0,0.1-0.1,0.3-0.2,0.4c0-0.1,0-0.2,0-0.3c0-0.1,0-0.2,0-0.3c-0.1,0-0.1,0.1-0.1,0.1c0,0,0,0.1,0,0.2
	c0,0.1,0,0.2,0,0.2c0,0.2-0.1,0.3-0.1,0.5c0.1-0.2,0.1-0.3,0.1-0.5c0-0.1,0-0.2-0.1-0.2c0,0-0.1,0-0.1,0.1c-0.1,0.1-0.1,0.2-0.1,0.3
	c0,0.1,0,0.1-0.1,0.2c0,0,0,0-0.1,0.1c0-0.1,0.1-0.2,0-0.2c0,0-0.1,0-0.1,0c-0.1,0-0.1,0.1-0.1,0.2c0,0.1,0,0.1,0,0.2
	c0,0.1,0,0.2-0.1,0.2c0,0-0.1-0.1-0.1-0.1c0-0.1-0.1-0.1-0.1-0.2c0,0-0.1,0.1-0.1,0.1c0,0.1,0,0.2-0.1,0.3c0,0.1-0.1,0.2-0.1,0.3
	c0-0.1,0-0.1,0-0.2c0,0,0-0.1-0.1-0.1c0,0-0.1,0.1-0.1,0.2c0,0.1,0,0.2,0,0.3c0,0.1,0,0.1,0,0.2c0-0.1,0-0.1-0.1-0.2
	c0,0,0-0.1-0.1-0.1c0,0-0.1,0.1-0.1,0.1c-0.1,0.1-0.1,0.3-0.1,0.4c0,0.1,0,0.1,0,0.2c-0.1,0-0.1-0.1-0.2-0.1
	c-0.1-0.1-0.1-0.2-0.1-0.3c0,0.1-0.1,0.2-0.1,0.2c0,0.1-0.1,0.1-0.2,0.2c0,0,0-0.1,0-0.1c0-0.1,0-0.1,0-0.2c0,0,0-0.1,0-0.1
	c-0.1,0-0.1,0-0.2,0.1c-0.1,0.1-0.1,0.2-0.1,0.3c0,0.1-0.1,0.2-0.2,0.3c-0.1,0.1-0.2,0.1-0.3,0.2c-0.1,0-0.1,0.1-0.2,0.1
	c0.1-0.1,0.2-0.2,0.3-0.3c0.1-0.1,0.2-0.2,0.2-0.3c0,0,0-0.1,0-0.1c-0.1,0-0.3,0.1-0.4,0.2c-0.1,0.1-0.1,0.2-0.2,0.3
	c0-0.1,0-0.1,0-0.2c0,0,0-0.1,0-0.1c-0.1,0-0.1,0-0.2,0.1c-0.1,0.1-0.2,0.2-0.2,0.2c0,0-0.1,0.1-0.1,0.1c0,0-0.1,0-0.1-0.1
	c0,0,0-0.1,0-0.1c-0.1,0-0.2,0.1-0.3,0.1c-0.1,0.1-0.2,0.1-0.2,0.2c0,0,0,0.1,0,0.1c0-0.1-0.1-0.1-0.1-0.2c0,0,0-0.1,0-0.1
	c-0.1,0.1-0.2,0.1-0.2,0.2c-0.1,0.1-0.1,0.2-0.2,0.4c0-0.1-0.1-0.1-0.1-0.2c0-0.1,0-0.2,0-0.3c0-0.1,0.1-0.2,0.1-0.2
	c-0.1,0.1-0.2,0.1-0.3,0.2c-0.1,0.1-0.2,0.1-0.3,0.2c0,0,0,0-0.1,0c0.1,0,0.1,0,0.2,0c-0.1,0-0.2,0-0.3,0c-0.1,0-0.2,0-0.3,0
	c0.1,0,0.1,0,0.2,0c0,0,0,0-0.1,0c-0.1,0-0.2-0.1-0.3-0.2c-0.1-0.1-0.2-0.1-0.3-0.2c0,0.1,0.1,0.1,0.1,0.2c0,0.1,0.1,0.2,0,0.3
	c0,0.1-0.1,0.1-0.1,0.2c0-0.1-0.1-0.3-0.2-0.4c-0.1-0.1-0.1-0.1-0.2-0.2c0,0,0,0.1,0,0.1c0,0.1,0,0.1-0.1,0.2c0,0,0-0.1,0-0.1
	c0-0.1-0.1-0.2-0.2-0.2c-0.1,0-0.2-0.1-0.3-0.1c0,0.1,0,0.1,0,0.1c0,0-0.1,0.1-0.1,0.1c0,0-0.1-0.1-0.1-0.1
	c-0.1-0.1-0.1-0.2-0.2-0.2c-0.1,0-0.1-0.1-0.2-0.1c0,0,0,0.1,0,0.1c0,0.1,0,0.1,0,0.2c-0.1-0.1-0.1-0.2-0.2-0.3
	c-0.1-0.1-0.3-0.1-0.4-0.2c0,0,0,0.1,0,0.1c0,0.1,0.1,0.2,0.2,0.3c0.1,0.1,0.2,0.2,0.3,0.3c-0.1,0-0.1-0.1-0.2-0.1
	c-0.1,0-0.2-0.1-0.3-0.2c-0.1-0.1-0.1-0.2-0.2-0.3c0-0.1-0.1-0.2-0.1-0.3c-0.1,0-0.1-0.1-0.2-0.1c0,0,0,0.1,0,0.1c0,0.1,0,0.1,0,0.2
	c0,0,0,0.1,0,0.1c-0.1-0.1-0.1-0.1-0.2-0.2c-0.1-0.1-0.1-0.2-0.1-0.2c0,0.1,0,0.2-0.1,0.3c0,0.1-0.1,0.1-0.2,0.1c0-0.1,0-0.1,0-0.2
	c0-0.1-0.1-0.3-0.1-0.4c0-0.1-0.1-0.1-0.1-0.1c0,0,0,0.1-0.1,0.1c0,0-0.1,0.1-0.1,0.2c0-0.1,0-0.1,0-0.2c0-0.1,0-0.2,0-0.3
	c0-0.1-0.1-0.1-0.1-0.2c0,0,0,0.1-0.1,0.1c0,0.1,0,0.1,0,0.2c-0.1-0.1-0.1-0.2-0.1-0.3c0-0.1,0-0.2-0.1-0.3c0-0.1-0.1-0.1-0.1-0.1
	c0,0.1-0.1,0.1-0.1,0.2c0,0-0.1,0.1-0.1,0.1c0-0.1-0.1-0.2-0.1-0.2c0-0.1,0-0.1,0-0.2c0-0.1,0-0.1-0.1-0.2c0,0-0.1,0-0.1,0
	c0,0,0,0.1,0,0.2c0,0,0,0-0.1-0.1c0-0.1-0.1-0.1-0.1-0.2c0-0.1,0-0.2-0.1-0.3c0,0-0.1,0-0.1-0.1c0,0.1-0.1,0.2-0.1,0.2
	c0,0.2,0,0.3,0.1,0.5c-0.1-0.2-0.1-0.3-0.1-0.5c0-0.1,0-0.2,0-0.2c0-0.1,0-0.1,0-0.2c0-0.1-0.1-0.1-0.1-0.1c0,0.1,0,0.2,0,0.3
	c0,0.1,0,0.2,0,0.3c-0.1-0.1-0.2-0.2-0.2-0.4c0-0.1,0-0.2-0.1-0.3c0-0.1-0.1-0.1-0.1-0.2c-0.1-0.1-0.3-0.2-0.4-0.4
	c-0.1-0.1-0.2-0.2-0.2-0.3c0,0.1,0.1,0.2,0.1,0.3c0,0.1,0.1,0.2,0.2,0.3c-0.1,0-0.2-0.1-0.2-0.1c0,0-0.1-0.1-0.1-0.1
	c-0.1-0.1-0.2-0.3-0.2-0.4c0-0.2,0-0.4-0.1-0.5c-0.1-0.1-0.2-0.1-0.3-0.1c-0.1-0.1-0.2-0.2-0.3-0.4c0-0.1,0-0.2-0.1-0.2
	c0-0.1-0.1-0.1-0.2-0.2c-0.1-0.1-0.1-0.2-0.2-0.3c0-0.1,0-0.1-0.1-0.2c0,0-0.1,0-0.1,0c-0.2-0.1-0.2-0.3-0.3-0.4
	c-0.1-0.2-0.2-0.3-0.3-0.5c0-0.1-0.1-0.2-0.1-0.3c0-0.1,0-0.2,0-0.3c0-0.1-0.1-0.2-0.1-0.3c0,0,0,0.1,0,0.1c0,0.1,0,0.1,0.1,0.1
	c-0.1-0.1-0.2-0.1-0.2-0.2c0-0.1,0-0.1,0-0.2c0-0.1,0-0.2,0-0.3c0-0.1-0.1-0.3-0.2-0.4c0,0.1,0,0.2,0,0.3c0,0.1,0,0.3,0,0.4
	c-0.1-0.2-0.1-0.3-0.2-0.5c-0.1-0.3-0.3-0.7-0.1-1c0-0.1,0.1-0.1,0.1-0.2c0-0.1,0-0.2-0.1-0.3c0-0.1-0.1-0.2-0.1-0.2
	c0-0.1,0-0.2,0-0.3c0-0.1,0-0.1,0-0.1c-0.1-0.1-0.1-0.2-0.2-0.4c0-0.1,0-0.3,0-0.5c0-0.1,0-0.2,0-0.2c0,0,0,0,0,0
	c-0.2-0.2-0.4-0.3-0.5-0.5c-0.2-0.2-0.3-0.4-0.5-0.5c-0.2-0.2-0.3-0.4-0.4-0.6c-0.1-0.2-0.2-0.4-0.3-0.7c-0.1-0.2-0.1-0.5-0.2-0.7
	c-0.1-0.2-0.1-0.5-0.2-0.7c-0.1-0.5-0.2-0.9-0.3-1.4c0-0.2-0.1-0.5-0.1-0.7s-0.1-0.5-0.2-0.7c-0.1-0.5-0.2-0.9-0.3-1.4
	c0-0.1,0-0.1,0-0.2c0-0.1,0-0.2,0-0.2c0-0.1,0.1-0.2,0.1-0.2c0.1-0.1,0.1-0.1,0.2-0.1c0.1,0,0.1,0,0.2-0.1c0,0,0.1,0,0.1,0
	c0,0,0,0,0.1,0l0,0l0,0l0,0c0,0,0,0,0,0c0,0,0,0,0,0c0,0,0,0,0,0c0,0,0.1,0,0.1,0c0.1,0,0.1,0.1,0.2,0.1c0,0,0,0,0,0
	c0-0.1-0.1-0.2-0.1-0.2c0.1,0.1,0.2,0.3,0.4,0.4c0.1,0,0.1,0.1,0.2,0.1c0-0.1-0.1-0.2-0.1-0.3c0-0.1-0.1-0.1-0.2-0.2
	c0.1,0,0.1,0.1,0.2,0.1c0-0.1-0.1-0.2-0.2-0.3c-0.1-0.1-0.2-0.2-0.3-0.4c-0.1-0.1-0.2-0.2-0.2-0.3c0-0.1-0.1-0.2-0.1-0.3
	c0.1,0.1,0.2,0.2,0.3,0.2c-0.1-0.1-0.1-0.3-0.2-0.4c-0.1-0.1-0.1-0.2-0.2-0.2c0,0,0.1,0,0.1-0.1c0.1-0.1-0.1-0.3-0.2-0.4
	c0-0.1-0.1-0.2-0.1-0.3c0-0.1-0.1-0.3-0.1-0.4c0-0.1,0-0.2,0-0.3c0-0.1-0.1-0.2-0.1-0.4c0-0.2,0.1-0.3,0.1-0.5
	c0-0.2-0.1-0.4-0.2-0.6c0-0.1,0-0.2,0-0.4c0-0.2-0.1-0.3,0-0.5c0-0.1,0.1-0.3,0.2-0.4c0.1-0.2,0.1-0.5,0.1-0.7c0-0.2,0-0.3,0-0.5
	c0-0.1,0-0.3,0-0.4c0-0.1,0.1-0.2,0.1-0.4c0-0.2-0.1-0.4,0-0.5c0-0.1,0.1-0.2,0.2-0.3c0.2-0.2,0.2-0.4,0.3-0.7
	c0.1-0.3,0.2-0.5,0.3-0.8c0.3-0.4,0.7-0.7,1-1.1c0,0,0,0,0,0c-0.5,0.3-0.9,0.8-1.4,1.2c-0.2,0.4-0.4,0.9-0.5,1.4
	c0.1-0.5,0.2-1,0.4-1.5c0.3-0.6,0.7-1.1,1.3-1.5c0,0,0,0,0,0c0,0,0-0.1,0-0.1c-0.1,0.1-0.1,0.1-0.2,0.2c0.1-0.1,0.1-0.1,0.2-0.2
	c0-0.1,0-0.3-0.1-0.4c-0.1,0.2-0.2,0.4-0.3,0.6c0.1-0.2,0.2-0.4,0.3-0.6c0,0,0,0,0-0.1c-0.3,0.2-0.6,0.6-0.8,0.9
	c-0.2,0.4-0.4,0.9-0.5,1.3c0.1-0.5,0.2-1,0.4-1.4c0.2-0.4,0.5-0.8,0.9-1.1c0-0.2,0.1-0.4,0.2-0.6c0.4-0.6,1.1-0.9,1.8-1.1
	c0,0,0.1,0,0.1,0c-0.1,0-0.1-0.1-0.2-0.2c-0.1-0.2-0.2-0.4-0.1-0.7c0-0.3,0.1-0.6,0.4-0.8c0.2-0.2,0.6-0.3,0.9-0.4
	c0.4,0,0.8,0.1,1.1,0.2c0.1-0.2,0.2-0.3,0.3-0.5c0-0.1,0-0.3,0-0.4c0-0.3,0.1-0.6,0.2-0.9c0.3-0.5,1.2-0.5,1.9-0.5
	c0.4,0,0.8,0.1,1.1,0.1c0.1-0.1,0.2-0.1,0.3-0.1c0.4-0.2,0.9-0.2,1.4-0.3c0.1,0,0.2,0,0.3,0c0.2,0,0.4-0.1,0.5-0.1
	c0.2,0,0.5-0.1,0.7,0c0.2,0.1,0.5,0.2,0.7,0.3c0.3,0.1,0.6,0,0.9,0c0.4,0,0.7,0.2,1.1,0.3c0.3,0.1,0.7,0.1,1,0.2
	c0.5,0.1,1,0.4,1.3,0.7c0.3,0.3,0.6,0.8,1,1c0.2,0.1,0.4,0.1,0.6,0.2c0.5,0.1,1,0.2,1.4,0.5C33.2,8.5,33.5,9,34,9.4
	c0.3,0.3,0.6,0.5,0.9,0.7c0.5,0.5,0.9,1.1,1.2,1.7c0.2,0.4,0.3,0.7,0.4,1.1c0.1,0.2,0.1,0.4,0.2,0.7c0.1,0.3,0.3,0.6,0.3,0.9
	c0,0.2-0.1,0.5-0.1,0.7c0,0.3,0.1,0.6,0.2,0.9c0.1,0.2,0.1,0.3,0.2,0.5c0.1,0.3,0.2,0.7,0.3,1c0,0.3,0.1,0.5,0.1,0.8
	c0,0.2,0,0.4,0,0.5c0,0.1,0,0.1,0,0.2c0,0.1,0.2,0.3,0.2,0.4c0.1,0.2-0.1,0.5-0.1,0.7c0,0.2,0.1,0.3,0.2,0.5c0,0.2,0,0.4,0,0.6
	c0,0.3,0,0.5-0.1,0.7c-0.1,0.2-0.2,0.4-0.2,0.6c0,0.1,0,0.3,0,0.4c0,0.3-0.1,0.5-0.3,0.7c-0.1,0.1-0.2,0.2-0.2,0.3
	c0,0.1,0,0.1,0,0.2c0.1,0,0.1,0,0.2,0c0.1,0,0.1,0,0.2,0c0,0,0,0,0.1,0s0,0,0.1,0c0,0,0,0,0,0l0,0l0,0c0,0,0,0,0.1,0
	c0.1,0.1,0.3,0.2,0.4,0.3c0,0.1,0.1,0.1,0.1,0.2c0,0.1,0,0.2,0,0.2C38.4,25.2,38.4,25.3,38.4,25.5z M18.5,7.1
	c0.1-0.1,0.3-0.3,0.4-0.4c0-0.2,0.1-0.4,0.2-0.5C19.3,6.1,19.5,6,19.8,6c0.3,0,0.5-0.1,0.8,0c0.2,0,0.3,0,0.5,0.1
	c0.2-0.1,0.3-0.3,0.5-0.4c-0.3,0-0.6,0-0.9-0.1c-0.5,0-1.1,0-1.4,0.1C18.7,5.9,18.5,6.4,18.5,7.1z M20.7,6.3
	c0.1-0.1,0.2-0.2,0.3-0.2c-0.2,0-0.4,0-0.7,0c-0.4,0-0.7,0.1-1,0.2c-0.1,0.1-0.2,0.2-0.2,0.4c0,0,0.1,0,0.1-0.1
	C19.6,6.3,20.2,6.3,20.7,6.3z M19.9,6.6C19.6,6.7,19.3,6.8,19,7c0,0.1,0,0.3,0,0.5c0,0.2,0.1,0.4,0.1,0.6c0.2-0.3,0.5-0.7,0.7-1
	c0.2-0.2,0.4-0.4,0.5-0.6C20.2,6.6,20.1,6.6,19.9,6.6z M18.4,7.5c0,0.2,0,0.3,0,0.5c0.1,0.1,0.2,0.2,0.3,0.3
	c0.1,0.1,0.1,0.2,0.2,0.3c0.1-0.1,0.1-0.2,0.2-0.4c0,0,0,0,0,0C19.1,8,19,7.8,19,7.7c0-0.2-0.1-0.4-0.1-0.6
	C18.7,7.2,18.6,7.3,18.4,7.5C18.5,7.5,18.4,7.5,18.4,7.5z M17.2,19.5c0.1-0.2,0.2-0.4,0.3-0.7c0-0.1,0-0.3,0-0.4c0,0,0,0,0-0.1
	c-0.1,0.1-0.1,0.3-0.2,0.4c-0.1,0.1-0.1,0.2-0.1,0.3c0,0.1,0,0.1,0,0.2C17.2,19.4,17.2,19.5,17.2,19.5z M18.1,9.7
	c-0.1,0-0.2-0.1-0.3-0.1c-0.4-0.1-0.8-0.1-1.2,0c0,0.1-0.1,0.1-0.1,0.2c0,0,0,0,0,0c0,0,0,0,0,0c0,0.1-0.1,0.1-0.1,0.2
	c0.2,0,0.5,0,0.7,0c0.2-0.1,0.3-0.2,0.5-0.3C17.7,9.7,17.9,9.7,18.1,9.7z M16.3,9.7C16.3,9.7,16.3,9.6,16.3,9.7
	C16.3,9.6,16.3,9.6,16.3,9.7C16.3,9.6,16.3,9.7,16.3,9.7z M17.7,9.3c0,0,0.1,0,0.1,0c0-0.1,0-0.2,0-0.4c-0.3,0-0.7,0.1-1,0.3
	c0,0-0.1,0.1-0.1,0.1C17,9.4,17.3,9.3,17.7,9.3z M18.4,9.3c0.1,0,0.1,0,0.2,0c0,0,0,0,0,0c0-0.1,0-0.2-0.1-0.2
	c-0.1,0-0.2-0.1-0.3-0.1C18.2,9,18,9,17.9,8.9c0,0.1,0,0.2-0.1,0.4C18,9.3,18.2,9.3,18.4,9.3z M18.5,8.7C18.6,8.7,18.6,8.8,18.5,8.7
	C18.6,8.7,18.6,8.7,18.5,8.7c0-0.1,0-0.1,0-0.1C18.5,8.7,18.5,8.7,18.5,8.7z M18.6,9.3c0-0.1,0.1-0.1,0.1-0.2c0,0-0.1,0-0.1,0
	C18.6,9.2,18.6,9.2,18.6,9.3z M18.2,7.8c0,0,0.1,0.1,0.1,0.1c0-0.1,0-0.2,0-0.3C18.3,7.7,18.3,7.8,18.2,7.8z M17.9,8.7
	c0.2,0,0.3,0,0.5,0c0,0,0,0,0,0c0-0.1,0-0.1,0-0.2c-0.1-0.1-0.2-0.2-0.3-0.4c0,0,0,0,0,0C18,8.3,18,8.5,17.9,8.7z M16.1,9.3
	c0,0.1,0.1,0.1,0.1,0.2c0.1,0,0.2,0,0.2-0.1c0.1-0.1,0.2-0.2,0.3-0.3c0.2-0.2,0.5-0.3,0.8-0.4c0.1,0,0.2,0,0.3,0c0-0.1,0-0.2,0-0.3
	c0-0.1,0.1-0.3,0.1-0.4c-0.1-0.1-0.2-0.2-0.4-0.2c-0.2-0.1-0.4-0.1-0.6-0.1c-0.2,0-0.3,0-0.5,0.1C16.3,7.9,16.1,8,16,8.2
	c-0.1,0.2-0.1,0.4-0.1,0.5C15.9,8.9,16,9.1,16.1,9.3z M15.5,10.1c0.2,0,0.4-0.1,0.7-0.1c0,0,0,0,0,0c0,0,0-0.1,0-0.1
	c0,0,0-0.1,0-0.1c0,0-0.1,0-0.1-0.1c-0.1,0-0.2,0.1-0.3,0.1C15.7,9.9,15.6,10,15.5,10.1z M14.8,10.8c0.2-0.1,0.5-0.2,0.8-0.2
	c0.3-0.1,0.6-0.1,0.9-0.1c0.1-0.1,0.2-0.2,0.3-0.2c0,0,0.1,0,0.1-0.1c-0.1,0-0.3,0-0.4,0c-0.1,0-0.1,0-0.2,0c0,0,0,0.1-0.1,0.1
	c0,0,0-0.1,0-0.1c-0.4,0.1-0.8,0.2-1.2,0.4c0,0,0,0,0,0C14.9,10.6,14.9,10.7,14.8,10.8z M14.3,12.3c0,0.1,0,0.1,0,0.2c0,0,0,0,0,0
	c0-0.1,0.1-0.2,0.1-0.3C14.4,12.3,14.3,12.3,14.3,12.3z M14.5,12.1c0.1-0.2,0.3-0.5,0.5-0.7c0.1-0.1,0.2-0.2,0.4-0.3
	c0,0,0.1,0,0.1-0.1c-0.2,0.1-0.3,0.2-0.5,0.3c-0.2,0.1-0.4,0.2-0.6,0.4c0,0.2-0.1,0.3-0.1,0.5C14.4,12.1,14.4,12.1,14.5,12.1z
	 M14.3,12.6C14.3,12.6,14.3,12.6,14.3,12.6C14.3,12.6,14.3,12.6,14.3,12.6C14.3,12.6,14.3,12.6,14.3,12.6z M14.6,12.4
	c0.1-0.1,0.1-0.1,0.2-0.2c0,0,0.1-0.1,0.1-0.1c-0.1,0.1-0.2,0.1-0.3,0.2c-0.1,0.1-0.2,0.2-0.2,0.3C14.4,12.4,14.5,12.4,14.6,12.4z
	 M15,11.9c0.1-0.1,0.2-0.3,0.4-0.4c0.2-0.1,0.4-0.2,0.6-0.3c0.1,0,0.1,0,0.2,0c0-0.1,0-0.2,0-0.3c-0.1,0-0.2,0.1-0.4,0.1
	c-0.3,0.1-0.5,0.3-0.8,0.5c-0.1,0.1-0.2,0.3-0.4,0.4C14.7,12,14.8,12,15,11.9z M16.3,10.6C16.3,10.6,16.3,10.6,16.3,10.6
	c-0.1,0-0.3,0.1-0.4,0.1c-0.5,0.1-0.9,0.3-1.3,0.5c0,0,0,0.1-0.1,0.1c0,0.1-0.1,0.2-0.1,0.3c0.1-0.1,0.2-0.2,0.3-0.3
	c0.2-0.2,0.5-0.3,0.8-0.5C15.8,10.8,16.1,10.7,16.3,10.6z M14.4,11C14.4,11,14.4,10.9,14.4,11C14.4,11,14.4,11,14.4,11
	C14.4,11,14.4,11,14.4,11C14.4,11,14.4,11,14.4,11z M14,11.2c0,0,0.1-0.1,0.1-0.1c0.1-0.1,0.2-0.3,0.3-0.4c0.1-0.1,0.2-0.3,0.4-0.4
	c-0.2,0.1-0.4,0.3-0.6,0.5C14.1,10.9,14,11.1,14,11.2z M13.9,12.1C13.9,12.1,13.9,12.1,13.9,12.1C14,12.1,14,12.1,13.9,12.1
	c0.1-0.1,0.2-0.2,0.2-0.2c0-0.1,0-0.1,0-0.2c0-0.1,0-0.2,0.1-0.4c-0.1,0-0.1,0.1-0.2,0.1c0,0-0.1,0.1-0.1,0.1c0,0,0,0,0,0
	C13.9,11.8,13.9,11.9,13.9,12.1z M14.2,12.7c0,0-0.1,0.1-0.1,0.1c0,0,0,0,0,0C14.1,12.8,14.2,12.7,14.2,12.7
	C14.2,12.7,14.2,12.7,14.2,12.7C14.2,12.7,14.2,12.7,14.2,12.7z M14.2,11.9C14.1,12,14,12,13.9,12.1c0,0.1,0,0.1,0,0.2
	c0.1,0,0.1-0.1,0.2-0.1C14.2,12.1,14.2,12,14.2,11.9z M14,12.7c0-0.1,0-0.1-0.1-0.2c-0.2,0.1-0.5,0.3-0.6,0.5
	c-0.3,0.3-0.5,0.6-0.6,0.9c0.2-0.3,0.5-0.6,0.8-0.9C13.6,12.9,13.8,12.8,14,12.7z M14.2,12.5c0-0.1,0-0.1,0-0.2
	c-0.1,0-0.1,0.1-0.2,0.1c0,0.1,0,0.1,0.1,0.2C14.1,12.6,14.2,12.6,14.2,12.5z M14.6,32.6c0,0,0-0.1,0-0.1c0-0.2,0-0.3,0-0.5
	c0-0.1,0-0.3-0.1-0.4c0-0.2-0.1-0.4-0.1-0.6c-0.1-0.2-0.1-0.4-0.1-0.7c0-0.2,0-0.4,0-0.6c0-0.2-0.1-0.5-0.2-0.7
	c0-0.1-0.1-0.2-0.1-0.2c0-0.1,0-0.3,0-0.4c0-0.3-0.1-0.5-0.2-0.8c0-0.2,0-0.4,0-0.7c0-0.2-0.1-0.3-0.1-0.5c0-0.2,0-0.3,0-0.5
	c0-0.2,0-0.4,0-0.6c0,0-0.1,0-0.1,0c-0.1,0-0.2,0-0.3,0c-0.1,0-0.2-0.1-0.3-0.1c0.1,0,0.3,0,0.4,0c0.1,0,0.2-0.1,0.3-0.1
	c-0.1,0-0.1-0.1-0.2-0.1c-0.2-0.1-0.3-0.2-0.4-0.3c-0.1-0.2-0.2-0.3-0.3-0.5c-0.1,0-0.1-0.1-0.2-0.1c-0.1,0-0.1,0-0.2-0.1
	c0,0-0.1,0-0.1,0c0,0,0,0,0,0c0,0,0,0,0,0c0,0,0,0,0,0c0,0,0,0,0,0l0,0c0,0,0,0,0,0c0,0,0,0-0.1,0c0,0-0.1,0-0.1,0.1
	c0,0-0.1,0.1-0.1,0.1c0,0,0,0.1,0,0.1c0,0.1,0,0.2,0,0.3c0.1,0.4,0.3,0.9,0.4,1.4c0.1,0.2,0.1,0.5,0.1,0.7c0,0.2,0,0.5,0.1,0.7
	c0,0.5,0,1,0.1,1.4c0,0.2,0.1,0.5,0.2,0.7c0.1,0.2,0.2,0.4,0.3,0.6l0.4,0.6c0.1,0.2,0.2,0.4,0.4,0.6c0.1,0.2,0.3,0.4,0.4,0.6
	C14.4,32.2,14.5,32.4,14.6,32.6z M29.6,39.8c0-0.1,0-0.3-0.1-0.4c-0.1-0.1-0.2-0.2-0.2-0.4c0-0.1,0-0.3,0.1-0.4c0,0,0,0,0,0
	c0-0.1,0-0.1,0-0.2c0,0,0-0.1,0-0.1c0-0.1,0.1-0.2,0.1-0.3c0-0.2-0.1-0.4-0.2-0.5c-0.1-0.1-0.2-0.2-0.3-0.2c0,0.1,0,0.1,0,0.2
	c0,0.1,0,0.1-0.1,0.2c0-0.1,0-0.1-0.1-0.2c-0.1-0.1-0.3-0.2-0.4-0.1c-0.1,0-0.2,0.1-0.3,0.2c0.2,0,0.3,0,0.5-0.1c0,0,0,0,0,0
	c0,0,0,0,0,0c0,0,0,0,0,0l0,0c0,0,0,0,0,0c-0.1,0-0.2,0.1-0.2,0.1c0,0-0.1,0-0.1,0.1s-0.1,0.1-0.1,0.1c0,0.1-0.1,0.2-0.1,0.2
	c-0.1,0.1-0.1,0.2-0.2,0.2c-0.1,0.1-0.3,0.3-0.4,0.4c-0.1,0.1-0.3,0.2-0.5,0.3c-0.3,0.1-0.7,0.3-1,0.3c-0.2,0-0.4,0.1-0.5,0.1
	c-0.2,0-0.4,0-0.5,0c-0.2,0-0.4,0-0.5,0c-0.2,0-0.4,0-0.6,0c-0.2,0-0.4,0-0.5-0.1c-0.2,0-0.4-0.1-0.5-0.2c-0.2-0.1-0.3-0.2-0.5-0.3
	c-0.1-0.1-0.3-0.2-0.4-0.3c-0.1-0.1-0.3-0.3-0.3-0.4c0-0.1-0.1-0.2-0.1-0.2c0,0,0-0.1-0.1-0.1c0,0,0-0.1,0-0.1c0,0,0,0,0,0
	c0,0,0,0,0,0c0,0,0,0,0,0l0.2,0.1c0.1,0,0.1,0,0.2,0.1c0.2,0,0.3,0.1,0.5,0.1c0.3,0,0.6,0,0.9,0c0.3,0,0.6,0,0.9,0
	c0.2,0,0.3,0.1,0.5,0.1c0.1,0,0.1,0.1,0.2,0.1c0,0,0.1,0,0.1,0c0,0,0.1,0,0.1,0c0.1,0,0.1-0.1,0.2-0.1c0.1,0,0.1-0.1,0.2-0.1
	c0,0,0.1,0,0.2-0.1c0-0.1,0-0.2-0.1-0.2c0,0-0.1,0-0.2,0.1c-0.2,0.1-0.3,0.2-0.4,0.1c-0.1,0.1-0.3-0.1-0.4-0.1
	c-0.1,0-0.1-0.1-0.2-0.1c-0.1,0-0.1,0.1-0.1,0.2c-0.1-0.1-0.1-0.1-0.2-0.2c0-0.1-0.1-0.1-0.1-0.2c0,0.1-0.1,0.1-0.1,0.2
	c0,0,0,0.1,0,0.1c-0.1,0-0.2-0.1-0.3-0.2c0,0,0-0.1-0.1-0.1c0,0.1,0,0.1,0,0.2c0,0,0,0,0,0.1c-0.1-0.1-0.2-0.1-0.2-0.2
	c0,0,0-0.1,0-0.1c-0.1,0-0.1,0.1-0.1,0.2c0,0,0,0.1,0,0.1c-0.1-0.1-0.1-0.1-0.2-0.2c-0.1,0-0.1-0.1-0.2-0.1c0,0.1,0,0.1,0.1,0.2
	c0,0,0,0.1,0,0.1c-0.1-0.1-0.2-0.1-0.2-0.1c-0.1,0-0.1,0-0.2,0c0,0-0.1,0.1-0.1,0.1c0,0,0-0.1-0.1-0.1c0,0,0-0.1,0-0.2
	c-0.1,0.1-0.1,0.2-0.2,0.2c-0.1,0.1-0.3,0.1-0.4,0.1c-0.1,0-0.3-0.2-0.4-0.2c-0.2,0-0.4,0-0.4,0.1c0,0.1-0.1,0.1-0.1,0.2
	c0-0.1-0.1-0.1-0.1-0.2c0-0.1,0-0.1,0-0.2c-0.1,0.1-0.2,0.1-0.3,0.2c-0.1,0.1-0.2,0.3-0.2,0.5c0,0.1,0.1,0.2,0.1,0.3
	c0,0,0,0.1,0,0.1c0,0.1,0,0.2,0,0.3c0,0,0,0,0,0c0,0.1,0.1,0.3,0,0.4c0,0.1-0.1,0.2-0.2,0.4c-0.1,0.1-0.1,0.3-0.1,0.4
	c0,0.1,0,0.1,0,0.2c0,0,0.1-0.1,0.1-0.1c0.1-0.1,0.1-0.2,0.2-0.2h0C20.1,39.9,20,40,20,40.2c0,0.2,0,0.4,0.1,0.5
	c0-0.1,0-0.3,0.1-0.4c0-0.1,0.1-0.1,0.2-0.2c0,0.2,0,0.3,0,0.6c0,0.1,0,0.2,0,0.2c0,0,0.1,0,0.1-0.1c0.1-0.1,0.2-0.2,0.2-0.2
	c0,0,0,0.2-0.1,0.3c0,0.1-0.1,0.2-0.1,0.2c0,0,0.1,0.1,0.1,0.1c0.1,0.1,0.1,0.2,0.2,0.2c0.1,0,0.2,0,0.2,0c0.2,0,0.3-0.1,0.5-0.2
	c0.1-0.1,0.2-0.2,0.2-0.3c0,0.1,0,0.1,0,0.1c0,0.1,0,0.2,0.1,0.2c0,0,0.1,0,0.1,0c0-0.1,0.1-0.1,0.1-0.2c0.1-0.1,0.1-0.2,0.2-0.5
	c0,0.1,0,0.3,0.1,0.4c0,0.2,0.1,0.3,0.2,0.4c0.1,0,0.2,0,0.3-0.1c0,0.1,0,0.2,0,0.2c0,0,0.1,0,0.1,0c0.1,0,0.2-0.2,0.3-0.3
	c0,0.1,0,0.2,0.1,0.3c0.1,0,0.2,0,0.2-0.1c0-0.1,0-0.1,0-0.2c0.1,0.1,0.1,0.2,0.2,0.2c0.1,0,0.2-0.1,0.3-0.2
	c0.1-0.1,0.1-0.2,0.1-0.2c0,0,0,0.1,0,0.2c0,0,0.1,0.1,0.1,0.1c0.1,0,0.1,0.1,0.2,0.1c0.1,0,0.2-0.1,0.2-0.3c0-0.1,0.1-0.3,0.1-0.3
	c0,0,0,0.2,0.1,0.3c0,0.1,0.1,0.1,0.1,0.1c0,0,0.1-0.1,0.1-0.1c0,0,0,0.2,0.1,0.3c0,0,0.1,0,0.1,0c0.1,0,0.1,0,0.1-0.1
	c0-0.1,0-0.2,0-0.2c0,0,0.1,0.1,0.1,0.2c0.1,0.1,0.2,0.2,0.3,0.2c0.1,0,0.1-0.1,0.2-0.2c0,0.1,0,0.1,0,0.2c0.1,0.1,0.2,0.1,0.2,0.1
	c0.1,0,0.1-0.1,0.1-0.3c0.1,0.2,0.1,0.3,0.3,0.3c0,0,0.1,0,0.1,0c0.1,0,0-0.1,0-0.2c0.1,0.1,0.2,0.1,0.3,0.1c0.1,0,0.2-0.2,0.2-0.4
	c0-0.2,0-0.3,0.1-0.4c0.1,0.3,0.1,0.4,0.2,0.5c0,0.1,0.1,0.2,0.1,0.2c0,0,0.1,0,0.1-0.1c0-0.1,0-0.2,0-0.3c0,0,0,0,0,0
	c0.1,0.1,0.2,0.2,0.3,0.3c0.1,0.1,0.3,0.1,0.5,0.2c0.1,0,0.2,0,0.2,0c0.1,0,0.1-0.1,0.2-0.2c0,0,0.1-0.1,0.1-0.1
	c0-0.1,0-0.1-0.1-0.2c-0.1-0.1-0.1-0.3-0.1-0.3c0,0,0.1,0.1,0.2,0.2c0,0,0.1,0.1,0.1,0.1c0,0,0-0.1,0-0.2c0-0.2,0-0.4,0-0.6
	c0.1,0.1,0.1,0.1,0.2,0.2c0.1,0.1,0.1,0.3,0.1,0.4c0-0.2,0.1-0.4,0.1-0.5c0-0.2-0.1-0.3-0.1-0.5c0.1,0,0.1,0.1,0.1,0.1
	c0.1,0.1,0.1,0.2,0.2,0.2C29.6,40,29.6,39.9,29.6,39.8z M25.3,37.7c-0.1,0-0.1,0.1-0.2,0.1c-0.1,0-0.1,0.1-0.2,0.1c0,0-0.1,0-0.1,0
	c0,0-0.1,0-0.1,0c-0.1,0-0.1-0.1-0.2-0.1c-0.1-0.1-0.3-0.1-0.4-0.1c-0.3-0.1-0.6,0-0.9,0c-0.3,0-0.6,0-0.9,0c-0.2,0-0.3,0-0.5-0.1
	c-0.1,0-0.2,0-0.2-0.1l-0.2-0.1c0.1,0,0.1,0.1,0.2,0.1c0.1,0,0.1,0.1,0.2,0.1c0.1,0.1,0.3,0.1,0.4,0.1c0.2,0,0.3,0,0.5,0
	c0.2,0,0.3,0,0.5,0.1c0.2,0,0.3,0,0.5,0.1c0.2,0,0.3,0,0.5,0c0.2,0,0.3,0,0.5,0c0.2,0,0.3,0,0.5,0c0.1,0,0.3-0.1,0.5-0.1
	c0.2,0,0.3,0,0.5,0c0.1,0,0.3-0.1,0.4-0.1c0.1,0,0.2,0,0.2-0.1s0.2,0,0.2,0c0.2,0,0.3,0,0.5,0c0.1,0,0.2,0,0.2,0c0.1,0,0.2,0,0.2,0
	c0.2,0,0.3-0.1,0.5-0.1l0.2-0.1c-0.2,0-0.5,0.1-0.7,0.1c-0.3,0-0.6,0-0.9,0c-0.3,0-0.6,0-0.9,0C25.6,37.6,25.4,37.6,25.3,37.7z
	 M25.7,37.5C25.7,37.4,25.7,37.4,25.7,37.5c0-0.2,0-0.2,0-0.3c0,0.1,0,0.1-0.1,0.2c0,0.1-0.1,0.1-0.1,0.1
	C25.5,37.5,25.6,37.5,25.7,37.5z M26,37.4C26,37.4,26,37.4,26,37.4c0-0.1,0-0.2,0-0.2C26,37.2,26,37.3,26,37.4c-0.1,0-0.2,0-0.3,0
	c0.2,0,0.3,0,0.5,0l0.5,0c0.3,0,0.6,0,0.9,0c0,0,0.1,0,0.1,0c-0.1,0-0.1,0-0.2-0.1c-0.1-0.1-0.1-0.1-0.2-0.2c0,0.1,0,0.1,0,0.2
	c0,0,0,0.1-0.1,0.1c0,0-0.1-0.1-0.1-0.1c-0.1,0-0.1,0-0.2,0c-0.1,0-0.2,0.1-0.2,0.1c0,0,0-0.1,0-0.1c0-0.1,0-0.1,0.1-0.2
	c-0.1,0-0.1,0.1-0.2,0.1c-0.1,0-0.1,0.1-0.2,0.2c0,0,0-0.1,0-0.1c0-0.1-0.1-0.1-0.1-0.2c0,0,0,0.1,0,0.1
	C26.2,37.3,26.1,37.4,26,37.4z M27.7,37.6c-0.3,0.1-0.6,0.1-0.9,0.1c-0.2,0-0.3,0.1-0.5,0.1C26.1,37.9,26,38,25.8,38
	c-0.2,0-0.3,0-0.5,0c-0.2,0-0.3,0.1-0.5,0.1c-0.2,0-0.3,0-0.5,0c-0.2,0-0.3,0-0.5,0c-0.2,0-0.3,0-0.5,0c-0.2,0-0.3,0-0.5-0.1
	c-0.2,0-0.3-0.1-0.5-0.1c-0.2,0-0.3,0-0.5,0c-0.2,0-0.3-0.1-0.5-0.1c-0.1-0.1-0.3-0.2-0.4-0.3c0,0,0,0.1,0.1,0.1l0.1,0.1
	c0,0.1,0.1,0.2,0.1,0.2c0.1,0.2,0.2,0.3,0.4,0.4c0.1,0.1,0.3,0.2,0.4,0.3c0.1,0.1,0.3,0.2,0.5,0.3c0.2,0.1,0.3,0.1,0.5,0.2
	c0.2,0,0.4,0.1,0.5,0.1c0.2,0,0.4,0,0.5,0c0.2,0,0.4,0,0.6,0c0.2,0,0.4,0,0.5,0.1c0.2,0,0.4,0,0.5-0.1c0.4-0.1,0.7-0.2,1-0.3
	c0.3-0.1,0.6-0.4,0.9-0.6c0.1-0.1,0.1-0.1,0.2-0.2c0-0.1,0.1-0.2,0.1-0.2c0,0,0.1-0.1,0.1-0.1c0,0,0,0,0.1-0.1
	C28.1,37.5,27.9,37.6,27.7,37.6z M34.9,30.6c0-0.1,0.1-0.2,0.1-0.3c0-0.1,0-0.1,0-0.1c0-0.2,0-0.5,0-0.7c0-0.2,0-0.3,0-0.5
	c0-0.3,0-0.6-0.1-0.8c-0.1-0.3-0.3-0.7-0.3-1c0-0.3,0.1-0.7,0-1c-0.1-0.1-0.1-0.2-0.2-0.3c-0.1-0.1-0.1-0.1-0.2-0.2
	c0,0,0.1-0.1,0.1-0.1c0.1-0.1-0.1-0.2-0.2-0.4c-0.1-0.2-0.2-0.4-0.3-0.3c0,0,0,0.1,0,0.1c0,0.1,0,0.1-0.1,0.2c0-0.2,0-0.4,0-0.7
	c0-0.2,0-0.3-0.1-0.5c0-0.1,0-0.1-0.1-0.1c0,0-0.1,0-0.1,0c0,0,0.1,0,0.1-0.1c0.1-0.1,0.2-0.3,0.3-0.4c0-0.1,0-0.3,0-0.4
	c0-0.2-0.1-0.3-0.1-0.5c0-0.1,0.1-0.2,0.1-0.3c0-0.1-0.1-0.2-0.1-0.2c-0.1-0.1-0.2-0.2-0.3-0.3c-0.1-0.1-0.2-0.3-0.2-0.4
	c0,0.1,0.1,0.2,0.1,0.3c0,0.1,0,0.2,0,0.3c0,0.1,0.1,0.1,0.1,0.2c-0.1-0.1-0.1-0.1-0.2-0.2c-0.1-0.2-0.1-0.4-0.1-0.6
	c-0.1-0.2-0.2-0.3-0.3-0.4c0.1,0,0.1,0.1,0.2,0.1c0,0,0,0,0.1,0c0-0.1-0.1-0.2-0.1-0.2c0-0.1,0-0.3,0-0.4c0,0,0,0.1,0,0.1
	c0,0,0.1,0.1,0.1,0.1c0-0.1,0-0.1-0.1-0.2c0,0,0-0.1,0-0.1c0,0,0,0.1,0.1,0.1c0,0,0.1,0.1,0.1,0.1c0-0.1-0.1-0.1-0.1-0.2
	c-0.1-0.1-0.1-0.2-0.2-0.3c-0.1-0.2-0.2-0.4-0.3-0.5c-0.1,0.3-0.1,0.6-0.3,0.8c-0.2,0.3-0.5,0.6-0.8,0.8c0.1-0.1,0.3-0.2,0.4-0.4
	c0.2-0.2,0.3-0.5,0.4-0.7c0.1-0.3,0.1-0.5,0.1-0.8c-0.1,0-0.2-0.1-0.3-0.1c-0.3-0.1-0.6-0.2-0.8-0.4c-0.3-0.2-0.4-0.6-0.5-0.9
	c-0.1-0.2-0.1-0.3-0.2-0.4c-0.1-0.1-0.1-0.1-0.2-0.2c0,0.1,0.1,0.3,0.1,0.4c0,0.1,0,0.2,0,0.3c0,0,0-0.1,0-0.1
	c0-0.1-0.1-0.3-0.2-0.4c-0.1-0.2-0.2-0.4-0.3-0.6c0,0.2,0,0.3,0.1,0.5c0,0.3,0,0.6,0.1,0.9c0.1,0.2,0.2,0.4,0.4,0.5
	c-0.1-0.1-0.3-0.2-0.4-0.3c-0.1-0.1-0.2-0.3-0.3-0.5c-0.2-0.4-0.4-0.8-0.7-1.1c-0.1-0.1-0.3-0.2-0.4-0.4c0.1,0.1,0.1,0.2,0.1,0.3
	c0.1,0.3,0.2,0.6,0.2,0.9c0.1,0.4,0.1,0.7,0.1,1.1c-0.1-0.6-0.3-1.3-0.6-1.9c-0.1-0.2-0.2-0.3-0.3-0.5c0,0.1,0,0.3,0,0.4
	c0,0.3-0.2,0.6-0.4,0.8c0.1-0.4,0.3-0.9,0.1-1.2c-0.1-0.1-0.1-0.2-0.2-0.4c0,0.1,0,0.2,0,0.3c0,0.2-0.1,0.4-0.2,0.5
	c-0.2,0.3-0.3,0.5-0.5,0.7c0.1,0.1,0.1,0.1,0.2,0.2c-0.1-0.1-0.2-0.1-0.3-0.2c0,0,0,0,0,0c0,0,0,0,0,0c0.1-0.1,0.2-0.3,0.2-0.4
	c0.1-0.2,0.2-0.4,0.2-0.5c0-0.1,0-0.2-0.1-0.3c0,0,0,0.1,0,0.1c0,0.1,0,0.2-0.1,0.3c0,0,0-0.1,0-0.1c0-0.1-0.1-0.1-0.2-0.1
	c0,0.1,0,0.2,0,0.2c0,0.2,0,0.3,0.1,0.5c-0.1-0.2-0.3-0.5-0.5-0.6c-0.1-0.1-0.2-0.1-0.4-0.2c0,0.1,0,0.2,0,0.3
	c0,0.1,0.1,0.3,0.3,0.4c0.1,0.2,0.3,0.3,0.4,0.5c0,0,0,0,0,0.1c-0.4-0.2-0.7-0.4-1.2-0.5c-0.1,0-0.3-0.1-0.4-0.1
	c0.1,0.2,0.2,0.3,0.4,0.5c0.1,0.1,0.2,0.2,0.3,0.3c-0.2-0.1-0.5-0.2-0.7-0.3c-0.5-0.2-1-0.4-1.5-0.5c-0.2,0-0.3-0.1-0.5-0.1
	c-0.3,0-0.6-0.1-0.9-0.1c0.1,0.1,0.3,0.2,0.4,0.3c0,0,0,0.1,0.1,0.2c-0.1,0-0.3-0.1-0.4-0.1c-0.1,0-0.2,0-0.3,0
	c0.1,0,0.1,0.1,0.2,0.1c0,0,0.1,0.1,0.1,0.1c0,0.1,0.1,0.1,0.1,0.2c-0.1,0-0.1-0.1-0.2-0.1c-0.3-0.1-0.6-0.1-0.8-0.1
	c-0.4,0-0.7-0.2-1-0.2c-0.2,0-0.3,0-0.5,0c-0.3,0-0.5,0.1-0.8,0.2c-0.3,0.1-0.5,0.1-0.8,0.2c-0.2,0.1-0.4,0.2-0.5,0.3
	c-0.2,0.1-0.3,0.3-0.4,0.5c0,0,0,0,0,0.1c-0.1,0.3-0.1,0.7-0.2,1c-0.1,0.3-0.2,0.5-0.4,0.7c0,0.1,0,0.1-0.1,0.2
	c-0.1,0.2-0.2,0.4-0.3,0.5c-0.1,0.1-0.3,0.2-0.5,0.3c0.1,0,0.2,0,0.3,0c0.1,0,0.2,0,0.4-0.1c-0.3,0.1-0.5,0.3-0.8,0.5
	c-0.1,0.1-0.2,0.2-0.4,0.2c0.2-0.1,0.4-0.1,0.6-0.2c0.2,0,0.4-0.1,0.5-0.1c-0.2,0.1-0.5,0.2-0.7,0.3c-0.1,0.1-0.2,0.1-0.3,0.2
	c-0.1,0.1-0.3,0.2-0.4,0.3c0.1,0,0.3-0.1,0.4-0.1c0.1-0.1,0.3-0.1,0.4-0.2c-0.2,0.1-0.4,0.2-0.5,0.4c-0.1,0.1-0.2,0.2-0.3,0.3
	c-0.1,0.1-0.1,0.1-0.2,0.2c0.1-0.1,0.2-0.1,0.4-0.2c0.2-0.1,0.4-0.1,0.5-0.2c0.1,0,0.2-0.1,0.3-0.2c-0.2,0.1-0.4,0.3-0.6,0.4
	c-0.2,0.2-0.3,0.4-0.5,0.5c-0.1,0.1-0.2,0.1-0.4,0.2c0.1,0,0.3,0,0.4-0.1c0.1,0,0.1-0.1,0.2-0.1c-0.1,0.1-0.2,0.2-0.3,0.3
	c-0.1,0.1-0.2,0.2-0.3,0.3c-0.2,0.2-0.3,0.4-0.4,0.6c0.1-0.1,0.2-0.3,0.3-0.4c0.1-0.1,0.2-0.2,0.4-0.3c0,0,0.1,0,0.1-0.1
	c-0.1,0.1-0.2,0.2-0.2,0.3C15,23.5,15,23.6,15,23.7c0,0,0,0,0,0c0,0,0,0,0,0c0,0.1-0.1,0.2-0.1,0.2c0.1-0.1,0.1-0.2,0.2-0.2
	c0.1-0.1,0.1-0.1,0.2-0.1c-0.1,0.1-0.1,0.1-0.1,0.2c0,0.2,0.1,0.4,0,0.6c0,0.1-0.1,0.1-0.1,0.2c0,0,0.1-0.1,0.1-0.1
	c0,0,0.1,0.1,0,0.2c-0.1,0.1-0.2,0.1-0.1,0.2c0,0,0,0,0,0c0,0,0,0,0.1,0c0,0,0,0.1-0.1,0.2c0,0-0.1,0.1-0.1,0.1c0,0,0,0.1,0,0.1
	c0,0,0.1,0,0.1,0c0,0,0,0.1-0.1,0.1c0,0.1,0,0.1,0,0.2c0,0.1-0.1,0.3-0.1,0.4c-0.1,0.2,0,0.5,0,0.7c0,0.2-0.2,0.4-0.2,0.5
	c0,0.1,0,0.2,0,0.2c0,0.2,0,0.5,0,0.7c0,0.3,0,0.5-0.1,0.8c0,0.2,0,0.9,0,1c0,0,0,0.1,0,0.1c0,0,0,0,0,0l0,0.1
	c0.1,0.3,0.2,1,0.3,1.3c0.1,0.4,0.1,0.7,0.1,1.1c0,0.4,0,0.8,0.2,1.1c0.1,0.2,0.2,0.4,0.3,0.5c0.1,0.2,0.1,0.4,0.2,0.6
	c0,0.2,0,0.3,0.1,0.4c0,0.1,0.1,0.1,0.1,0.2c0,0.1,0,0.2,0.1,0.3c0,0.1,0.1,0.1,0.1,0.2c0,0,0,0.1,0,0.1c0,0.1,0.1,0.1,0.2,0.1
	c0,0,0.1,0,0.1,0c0,0-0.1,0.1-0.1,0.1c0.1,0,0.1,0.1,0.2,0.1c0.1,0,0.2,0,0.3,0c0,0.1-0.1,0.1-0.1,0.2c0,0,0,0.1,0,0.1
	c0,0,0.1,0,0.1-0.1c0.1,0,0.1-0.1,0.2,0l0,0c0,0,0,0.1,0,0.1c0,0,0,0.1,0,0.1c0.1,0,0.2-0.1,0.3-0.1c0,0-0.1,0.1-0.1,0.1
	c0,0.1,0,0.1,0,0.2c0,0,0.1,0,0.1,0c0.1,0,0.1,0,0.2-0.1c0,0,0,0.1,0,0.1c0,0,0,0.1,0,0.1c0.1-0.1,0.2-0.1,0.4-0.2
	c-0.1,0.1-0.1,0.3-0.1,0.4c0,0.1,0.1,0.2,0.1,0.3c0,0,0-0.1,0.1-0.1c0.1-0.1,0.2-0.2,0.4-0.3c-0.1,0.2-0.2,0.4-0.2,0.6
	c0,0.1,0,0.3,0,0.4c0.3-0.1,0.5-0.2,0.7-0.3c0.2-0.1,0.3-0.3,0.4-0.6c0,0,0,0.1,0.1,0.1c-0.1-0.2-0.1-0.5-0.1-0.8
	c0-0.1,0-0.2,0.1-0.3c0-0.1,0.1-0.1,0.1-0.1c0,0,0,0,0.1-0.1c-0.1,0.1-0.1,0.2-0.1,0.3c0,0.1,0,0.1-0.1,0.2c0.1,0,0.1-0.1,0.2-0.1
	c0.1-0.1,0.2-0.1,0.3-0.2c0.1-0.1,0.2-0.2,0.3-0.3c0.1-0.1,0.1-0.2,0.2-0.3c0,0.1,0,0.2-0.1,0.3c0,0.1-0.1,0.2-0.1,0.3
	c0.1-0.1,0.3-0.2,0.4-0.4c0.1-0.1,0.1-0.2,0.2-0.3c0.1-0.1,0.1-0.2,0.2-0.3c0,0.1,0,0.2,0,0.3c0,0.1,0,0.2,0,0.2
	c0-0.1,0-0.1,0.1-0.2c0.1-0.1,0.1-0.2,0.2-0.3c0,0.1,0,0.1-0.1,0.2c0,0,0,0.1,0,0.1c0-0.1,0.1-0.1,0.1-0.2c0,0,0.1-0.1,0.1-0.1
	c0,0.1,0,0.1-0.1,0.2c0,0,0,0.1,0,0.1c0.1,0,0.1-0.1,0.2-0.1c0.1-0.1,0.1-0.1,0.2-0.2c-0.1,0.1-0.2,0.2-0.2,0.3
	c0,0.1-0.1,0.1-0.1,0.2c0.1-0.1,0.2-0.2,0.3-0.3c0,0,0,0,0.1,0c0,0.1-0.1,0.1-0.1,0.2c0,0-0.1,0.1-0.1,0.1c0,0,0.1,0,0.1-0.1
	c0.1-0.1,0.1-0.1,0.2-0.2c0.1-0.1,0.1-0.1,0.2-0.2c0,0.1-0.1,0.2-0.1,0.2c0,0.1,0,0.1,0,0.2c0-0.1,0.1-0.1,0.1-0.2
	c0.1-0.1,0.1-0.2,0.2-0.2c0,0.1-0.1,0.2-0.1,0.3c0,0.1-0.1,0.1-0.1,0.2c0.1-0.1,0.1-0.1,0.2-0.2c0,0,0.1-0.1,0.1-0.1
	C22,36,22,36,22,36.1c0,0.1-0.1,0.1-0.1,0.1c0.1-0.1,0.1-0.1,0.2-0.2c0.1-0.1,0.1-0.2,0.2-0.3c0,0.1,0,0.2-0.1,0.3c0,0,0,0,0,0.1
	c0,0,0.1-0.1,0.1-0.1c0,0,0,0,0.1,0c0,0-0.1,0.1-0.1,0.1c0,0-0.1,0.1-0.1,0.1c0,0.1,0,0.1-0.1,0.2c0,0-0.1,0.1-0.1,0.1
	c0.1-0.1,0.3-0.1,0.3-0.3c0.1-0.1,0.1-0.1,0.1-0.2c0-0.1,0.1-0.2,0.1-0.3c0-0.1,0.1-0.1,0.2-0.2c0,0.1-0.1,0.1-0.1,0.2
	c0,0.1-0.1,0.2-0.1,0.3c0,0,0.1-0.1,0.1-0.1c0.1-0.1,0.1-0.1,0.1-0.2c0,0,0.1-0.1,0.1-0.1c0,0.1-0.1,0.1-0.1,0.2
	c0,0.1,0.1,0.2,0.1,0.3c0-0.1,0-0.2,0-0.2c0-0.1,0-0.3,0.1-0.4c0-0.1,0.1-0.1,0.1-0.1c0,0-0.1,0.1-0.1,0.2c0,0,0,0.1,0,0.1
	c0,0,0-0.1,0.1-0.1c0,0,0.1,0,0.1-0.1c0,0.1,0,0.1,0,0.2c0,0.1,0.1,0.2,0.2,0.4c0-0.1-0.1-0.1-0.1-0.2c0-0.1,0-0.2,0.1-0.3
	c0,0,0-0.1,0-0.1c0,0,0-0.1,0-0.1c0-0.1,0-0.1,0.1-0.2c0,0.1,0.1,0.1,0.1,0.2c0,0.1,0.1,0.1,0.1,0.2c0,0,0-0.1,0-0.1
	c0-0.1,0-0.1,0.1-0.2c0,0.1,0,0.1,0,0.2c0,0.1,0,0.1,0.1,0.2c0,0,0.1,0,0.1-0.1c0,0,0-0.1,0-0.1c0,0.1,0,0.1,0,0.2
	c0,0.1,0,0.1,0,0.1c0,0,0-0.1,0.1-0.1c0,0,0-0.1,0.1-0.1c0,0.1,0,0.2,0,0.2c0,0,0,0.1,0,0.1c0,0,0-0.1,0.1-0.1c0,0,0-0.1,0-0.1
	c0,0.1,0,0.1,0,0.1c0,0,0,0,0,0.1c0,0,0.1,0,0.1-0.1c0,0,0-0.1,0.1-0.1c0,0,0,0.1,0,0.1c0,0.1,0,0.1,0,0.2c0,0,0,0,0,0
	c0,0,0.1,0,0.1-0.1c0.1-0.1,0.1-0.2,0.1-0.3c0,0.1,0,0.2,0,0.2c0,0,0,0,0,0.1c0,0,0.1-0.1,0.1-0.1c0,0,0.1-0.1,0.1-0.1
	c0,0,0,0.1,0,0.1c0,0.1,0,0.1,0,0.2c0,0,0.1,0,0.1-0.1c0,0,0,0,0,0c0,0,0,0,0,0c0,0,0,0.1,0,0.1c0,0,0.1,0,0.1-0.1
	c0,0,0.1-0.1,0.1-0.1c0,0.1,0,0.2,0.1,0.2c0,0,0-0.1,0-0.2c0,0.1,0.1,0.1,0.1,0.1c0,0,0.1,0,0.1,0.1c0,0,0-0.1,0-0.1c0,0,0,0,0,0
	c0,0,0.1,0,0.1,0.1c0-0.1,0-0.1,0-0.2c0,0,0-0.1,0-0.1c0,0.1,0,0.1,0.1,0.1c0,0,0.1,0.1,0.1,0.1c0,0,0,0,0-0.1c0-0.1,0-0.2,0-0.2
	c0,0.1,0.1,0.2,0.1,0.3c0,0,0.1,0.1,0.1,0.1c0,0,0,0,0,0c0-0.1,0-0.1,0-0.2c0,0,0-0.1,0-0.1c0,0.1,0,0.1,0.1,0.1
	c0,0,0.1,0.1,0.1,0.1c0,0,0,0,0-0.1c0,0,0-0.1,0-0.1c0,0,0,0.1,0,0.1c0,0,0,0.1,0.1,0.1c0,0,0-0.1,0-0.1c0-0.1,0-0.2,0-0.2
	c0,0,0,0.1,0.1,0.1c0,0,0,0.1,0.1,0.1c0-0.1,0-0.1,0-0.1c0-0.1,0-0.1,0-0.2c0,0,0,0.1,0,0.1c0,0,0,0.1,0.1,0.1
	c0-0.1,0.1-0.1,0.1-0.2c0-0.1,0-0.1,0-0.2c0,0.1,0.1,0.1,0.1,0.2c0,0,0,0.1,0,0.1c0-0.1,0.1-0.1,0.1-0.2c0-0.1,0.1-0.1,0.1-0.2
	c0,0.1,0.1,0.1,0.1,0.2c0,0,0,0.1,0,0.1c0,0,0,0.1,0,0.1c0,0.1,0.1,0.2,0.1,0.3c0,0.1,0,0.2-0.1,0.2c0.1-0.1,0.2-0.2,0.2-0.4
	c0-0.1,0-0.1,0-0.2c0,0,0.1,0,0.1,0.1c0,0,0,0.1,0.1,0.1c0,0,0-0.1,0-0.1c0-0.1-0.1-0.2-0.1-0.2c0,0,0.1,0.1,0.1,0.1
	c0.1,0.2,0.1,0.3,0.1,0.4c0,0.1,0,0.1,0,0.2c0.1-0.1,0.1-0.2,0.1-0.3c0-0.1,0-0.1-0.1-0.2c0,0,0.1,0.1,0.1,0.1
	c0.1,0.1,0.1,0.1,0.1,0.2c0,0,0.1,0.1,0.1,0.1c0-0.1,0-0.2-0.1-0.3c0-0.1-0.1-0.1-0.1-0.2c0.1,0.1,0.1,0.1,0.2,0.2
	c0.1,0.1,0.1,0.2,0.1,0.3c0,0.1,0.1,0.2,0.1,0.2c0.1,0.1,0.2,0.2,0.3,0.3c0,0-0.1-0.1-0.1-0.1c0-0.1,0-0.1-0.1-0.2
	c0-0.1-0.1-0.1-0.1-0.1c0,0-0.1-0.1-0.1-0.1c0,0,0,0,0.1,0c0,0,0.1,0.1,0.1,0.1c0,0,0,0,0-0.1c0-0.1-0.1-0.2-0.1-0.3
	c0.1,0.1,0.1,0.2,0.2,0.3c0.1,0.1,0.1,0.1,0.2,0.2c0,0-0.1-0.1-0.1-0.1c0-0.1-0.1-0.1-0.1-0.2c0,0,0.1,0.1,0.1,0.1
	c0.1,0.1,0.1,0.1,0.2,0.2c0-0.1,0-0.1-0.1-0.2c0-0.1-0.1-0.2-0.1-0.3c0.1,0.1,0.2,0.2,0.2,0.2c0,0.1,0.1,0.1,0.1,0.2
	c0-0.1,0-0.1,0-0.2c0-0.1-0.1-0.2-0.1-0.2c0.1,0.1,0.1,0.1,0.2,0.2C27.9,36,28,36,28,36.1c0,0,0.1,0,0.1,0.1c0-0.1,0-0.1-0.1-0.1
	c0-0.1-0.1-0.1-0.1-0.2c0,0,0,0,0.1,0c0.1,0.1,0.2,0.2,0.3,0.3c0-0.1-0.1-0.2-0.1-0.2c-0.1-0.1-0.1-0.2-0.2-0.3
	c0.1,0.1,0.1,0.1,0.2,0.2c0,0,0.1,0.1,0.2,0.1c0,0,0-0.1,0-0.1c0-0.1,0-0.1-0.1-0.2c0,0,0.1,0.1,0.1,0.1c0,0.1,0.1,0.1,0.1,0.2
	c0,0,0-0.1,0-0.1c0-0.1,0-0.1-0.1-0.2c0.1,0.1,0.1,0.2,0.2,0.3c0,0.1,0.1,0.1,0.1,0.2c0-0.1,0-0.2,0-0.2c0-0.1,0-0.2,0-0.3
	c0.1,0.1,0.1,0.2,0.2,0.3c0.1,0.1,0.1,0.2,0.2,0.3c0.1,0.1,0.3,0.2,0.4,0.4c0-0.1-0.1-0.2-0.1-0.3c0-0.1,0-0.2-0.1-0.3
	c0.1,0.1,0.1,0.2,0.2,0.3c0.1,0.1,0.2,0.2,0.3,0.3c0.1,0.1,0.2,0.1,0.3,0.2c0.1,0,0.1,0.1,0.2,0.1c0-0.1,0-0.1-0.1-0.2
	c0-0.1-0.1-0.2-0.1-0.3c0,0,0,0,0.1,0.1c0,0,0.1,0.1,0.1,0.1c0.1,0.1,0.1,0.2,0.1,0.3c0,0.2,0,0.5,0,0.7c0,0,0,0,0,0
	c-0.1,0.4-0.2,0.7-0.2,1.1c0,0.2,0.1,0.5,0.1,0.7c0.1-0.1,0.3-0.1,0.3-0.3c0.1-0.2,0-0.7,0.1-0.7c0.1,0,0.2,0.1,0.3,0.1
	c0.1,0,0.2-0.1,0.3-0.2c0.1-0.2,0.1-0.5,0-0.7c0-0.1-0.1-0.1-0.1-0.2c0.1,0.1,0.3,0.2,0.4,0.3c0,0,0.1,0.1,0.1,0.1
	c0.1-0.1,0.1-0.2,0.1-0.3c0-0.1-0.1-0.3-0.1-0.4c0.1,0.1,0.2,0.1,0.4,0.2c0,0,0-0.1,0-0.1c0,0,0-0.1,0-0.1c0.1,0,0.1,0.1,0.2,0.1
	c0,0,0.1,0,0.1,0c0-0.1,0-0.1,0-0.2c0,0-0.1-0.1-0.1-0.1c0.1,0,0.2,0.1,0.3,0.1c0,0,0-0.1,0-0.1c0,0,0-0.1,0-0.1c0.1,0,0.2,0,0.2,0
	c0,0,0.1,0,0.1,0.1c0,0,0-0.1,0-0.1c0-0.1-0.1-0.1-0.1-0.2c0.1,0,0.2,0,0.3,0c0.1,0,0.1,0,0.2-0.1c0,0-0.1-0.1-0.1-0.1
	c0,0,0.1,0,0.1,0c0.1,0,0.2-0.1,0.2-0.1c0,0,0-0.1,0-0.1c0-0.1,0.1-0.1,0.1-0.2c0.1-0.1,0-0.2,0.1-0.3c0-0.1,0.1-0.1,0.1-0.2
	c0.1-0.1,0.1-0.3,0.1-0.4c0-0.2,0.1-0.4,0.2-0.6c0.1-0.2,0.2-0.3,0.3-0.5c0.1-0.3,0.1-0.7,0.2-1.1c0-0.4,0.1-0.7,0.1-1.1
	C34.7,31.1,34.8,30.9,34.9,30.6z M38,24.9c0,0,0-0.1,0-0.1c0,0,0-0.1-0.1-0.1c0,0-0.1-0.1-0.1-0.1c0,0,0,0,0,0l0,0l0,0h0
	c0,0,0,0,0,0s0,0,0,0c-0.1,0-0.1,0-0.2,0c-0.1,0-0.2,0-0.3,0c0,0,0,0,0,0c0,0,0,0-0.1,0c-0.1,0-0.2,0.1-0.3,0.2c0,0-0.1,0.1-0.1,0.1
	c0,0.1,0.1,0.2,0.1,0.3c0,0.1-0.1,0.3-0.1,0.4c0-0.1,0-0.1,0-0.2c0-0.1,0-0.1-0.1-0.2c-0.1,0.1-0.1,0.1-0.2,0.2
	c-0.1,0.2-0.1,0.4,0,0.6c0,0.2,0,0.4-0.1,0.6c-0.1,0.1-0.1,0.3-0.2,0.4c0,0.1-0.1,0.1-0.1,0.2c0,0.1-0.1,0.3-0.1,0.4
	c0,0.1-0.1,0.2-0.1,0.3c0-0.1,0-0.2,0-0.3c0-0.1,0-0.1,0-0.2c0,0.1,0,0.2,0,0.2c0,0.2,0.1,0.4,0.1,0.7c0,0.2,0,0.4,0,0.6
	c-0.1,0.2-0.1,0.4-0.2,0.7c-0.1,0.3-0.1,0.5-0.1,0.8c0,0.3-0.1,0.6-0.3,0.8c-0.1,0.1-0.2,0.2-0.2,0.3c0,0.1,0,0.2,0,0.3
	c0.1,0.2,0.1,0.4,0,0.6c0,0.1-0.1,0.2-0.1,0.2c0,0.1,0,0.3,0,0.4c0,0,0,0,0,0c0.2-0.2,0.3-0.4,0.5-0.5c0.2-0.2,0.3-0.4,0.5-0.6
	c0.1-0.2,0.3-0.4,0.4-0.6c0.1-0.2,0.3-0.4,0.4-0.6c0.1-0.2,0.2-0.5,0.3-0.7c0.1-0.2,0.2-0.5,0.2-0.7c0.1-0.3,0.1-0.5,0.1-0.8
	c0-0.3,0.1-0.5,0.1-0.8c0.1-0.5,0.2-1,0.3-1.5c0.1-0.2,0.1-0.5,0.2-0.7c0-0.1,0.1-0.2,0.1-0.3C38,25,38,24.9,38,24.9z M24.5,36
	C24.6,36,24.6,36,24.5,36C24.6,35.9,24.6,36,24.5,36z M24.9,35.9C24.9,36,24.9,36,24.9,35.9C25,36,25,36,24.9,35.9
	C25,36,24.9,35.9,24.9,35.9z M13,23.7C13,23.7,13,23.7,13,23.7C13,23.7,13,23.7,13,23.7C13,23.7,13,23.7,13,23.7z M12.3,22.4
	c0,0,0,0.1,0.1,0.1C12.4,22.5,12.4,22.5,12.3,22.4z M26.9,17.7c0.1-0.1,0.1-0.2,0.2-0.3c0,0,0,0,0,0C27,17.5,26.9,17.6,26.9,17.7z
	 M33.1,25.7L33.1,25.7C33.1,25.7,33.1,25.7,33.1,25.7z M17.7,25.8C17.7,25.8,17.8,25.7,17.7,25.8c0-0.1,0-0.1,0-0.1c0,0,0,0,0.1,0
	c0.1,0,0.2,0,0.3,0.1c0.1,0,0.2,0,0.3,0.1c0.1,0,0.2,0.1,0.2,0.1c0.1,0,0.1,0.1,0.2,0.1c0.1,0.1,0.3,0.1,0.5,0.2
	c0.2,0.1,0.3,0.1,0.5,0.1c0,0,0.1,0,0.1,0c0.3,0.1,0.6,0.2,0.9,0.2c0.3,0,0.6,0.1,0.9,0.1l0,0c0.1,0,0.2,0.1,0.2,0c0,0,0,0,0.1-0.1
	c0.1,0,0.1-0.1,0.1-0.1c0.1,0,0.1,0,0.2,0.1c0-0.1-0.1-0.1-0.1-0.1c0,0,0-0.1,0-0.1c-0.1-0.1-0.1-0.1-0.2-0.1
	c-0.2-0.1-0.4-0.2-0.7-0.2c-0.1,0-0.3-0.1-0.4-0.1c-0.2,0-0.3-0.1-0.5-0.1c0,0-0.1,0-0.1,0c0,0,0,0,0,0c0,0,0,0,0,0
	c-0.2-0.1-0.4-0.1-0.7-0.2c-0.3-0.1-0.6-0.2-0.9-0.3c-0.2-0.1-0.5-0.2-0.7-0.3c0,0,0,0,0,0c0,0,0,0,0,0c0,0,0,0,0,0
	c-0.2,0-0.3,0-0.5,0.1c-0.1,0-0.1,0-0.2,0c-0.2,0-0.4,0.1-0.6,0.2c0,0,0,0,0,0c0,0,0,0,0,0c0,0-0.1,0.1-0.1,0.1
	c-0.1,0.1-0.2,0.3-0.3,0.4c0,0,0,0,0,0c0,0.1,0.1,0,0.2-0.1c0.1,0,0.1,0,0.2,0c0.1,0,0.2,0.1,0.3,0.1c0.1,0,0.2,0,0.3,0
	C17.6,25.8,17.7,25.8,17.7,25.8z M31.8,25.9C31.8,25.9,31.8,25.9,31.8,25.9c-0.2,0-0.3,0-0.4,0c-0.1,0-0.2,0.1-0.3,0.1
	c0.1,0,0.3,0,0.4-0.1C31.6,25.9,31.7,25.9,31.8,25.9z M31.8,25.9c0.1,0,0.1,0,0.2,0C32,25.9,31.9,25.9,31.8,25.9z M32.9,25.5
	C32.9,25.4,32.9,25.4,32.9,25.5c0-0.1-0.1-0.1-0.1-0.2c0,0,0,0,0-0.1c0,0,0,0,0,0c-0.2-0.2-0.4-0.3-0.6-0.3c-0.1,0-0.1,0-0.2,0
	c-0.2,0-0.3-0.1-0.5-0.1c0,0,0,0,0,0c0,0,0,0,0,0c0,0,0,0,0,0c-0.3,0-0.5,0.2-0.7,0.3c-0.3,0.1-0.6,0.2-0.9,0.3
	c-0.2,0.1-0.4,0.1-0.7,0.2c0,0,0,0,0,0c0,0,0,0,0,0c-0.1,0-0.1,0-0.2,0c-0.2,0-0.3,0.1-0.5,0.1c-0.1,0-0.3,0.1-0.4,0.1
	c-0.2,0.1-0.5,0.1-0.7,0.2c-0.1,0-0.1,0.1-0.2,0.1c0,0,0,0.1,0,0.1c0,0.1,0,0.1-0.1,0.1c0.1,0,0.1-0.1,0.2-0.1
	c0.1,0,0.1,0.1,0.1,0.1c0,0,0,0,0.1,0.1c0.1,0,0.1,0,0.2,0l0,0c0.3,0,0.6,0,0.9-0.1c0.3,0,0.6-0.1,0.9-0.2c0.1,0,0.1,0,0.1,0
	c0.2,0,0.3-0.1,0.5-0.1c0.2-0.1,0.3-0.1,0.5-0.2c0.1,0,0.1-0.1,0.2-0.1c0.1,0,0.2-0.1,0.2-0.1c0.1,0,0.2,0,0.3-0.1
	c0.1,0,0.2,0,0.3-0.1c0,0,0.1,0,0.1,0c0,0,0,0,0,0.1c0,0,0,0.1,0,0.1c0.1,0.1,0.2,0,0.3,0c0.1,0,0.2,0,0.3,0c0.1,0,0.2-0.1,0.3-0.1
	c0.1,0,0.1,0,0.2,0c0.1,0.1,0.2,0.2,0.2,0.1C33,25.6,33,25.5,32.9,25.5C32.9,25.5,32.9,25.5,32.9,25.5z M17.7,25.9
	C17.7,25.9,17.7,25.9,17.7,25.9c0.1,0,0.2,0,0.4,0c0.1,0,0.3,0,0.4,0.1c-0.1,0-0.2-0.1-0.3-0.1C18,25.8,17.8,25.9,17.7,25.9z
	 M17.7,25.9c-0.1,0-0.1,0-0.2,0C17.5,25.9,17.6,25.9,17.7,25.9z M31.6,27.8C31.6,27.8,31.6,27.8,31.6,27.8
	C31.6,27.8,31.6,27.8,31.6,27.8L31.6,27.8C31.5,27.9,31.5,27.9,31.6,27.8c-0.3,0.2-0.6,0.4-0.9,0.5c-0.2,0.1-0.3,0.1-0.5,0.1
	c-0.2,0-0.4,0-0.5,0c-0.2,0-0.4-0.1-0.5-0.1c-0.2-0.1-0.3-0.1-0.5-0.1c-0.1,0-0.2,0-0.2,0c0,0,0,0,0,0c0,0,0,0,0,0c0,0,0,0,0,0
	c-0.1,0-0.2,0-0.3,0l-0.5,0.1c0,0,0,0,0,0c0,0,0,0,0,0c0,0,0,0,0,0c0,0,0,0,0,0c0,0,0,0,0,0c0,0,0,0,0,0c0,0,0,0,0.1-0.1l0.1,0
	l0.3-0.2c0.1-0.1,0.2-0.1,0.3-0.2c0,0,0,0,0,0c0,0,0,0,0,0c0,0,0,0,0,0c0,0,0.1-0.1,0.1-0.1c0.2-0.1,0.3-0.3,0.5-0.4
	c0.2-0.1,0.4-0.1,0.6-0.2c0,0,0,0,0,0c0,0,0,0,0,0c0,0,0.1,0,0.1,0c0,0,0.1,0,0.1,0c0.2,0,0.3,0,0.5,0c0.2,0,0.3,0.1,0.5,0.1
	c0,0,0,0,0,0c0.2,0.1,0.4,0.1,0.5,0.2c0.1,0,0.2,0.1,0.3,0.2C31.4,27.7,31.5,27.7,31.6,27.8C31.5,27.8,31.5,27.8,31.6,27.8
	L31.6,27.8C31.6,27.8,31.6,27.8,31.6,27.8z M28.2,28.2C28.2,28.2,28.2,28.1,28.2,28.2c-0.1-0.1-0.2-0.2-0.1-0.3
	c-0.1,0-0.2,0.1-0.3,0.1l-0.3,0.1c0,0-0.1,0-0.1,0.1c0,0,0,0,0,0.1c0,0,0,0,0.1,0c0,0,0,0,0,0c0.2,0,0.3-0.1,0.5-0.1
	C28.1,28.2,28.1,28.2,28.2,28.2z M29.3,28.3c0,0-0.1-0.1-0.1-0.1C29.1,28.1,29,28.1,29,28c0-0.1-0.1-0.2-0.1-0.3
	c0-0.1,0-0.2,0.1-0.3c0,0,0.1-0.1,0.1-0.1c-0.1,0-0.2,0.1-0.3,0.1c-0.2,0.1-0.3,0.2-0.5,0.4c-0.1,0-0.1,0.1-0.2,0.1
	c0,0.1,0,0.2,0,0.3c0,0,0.1,0.1,0.1,0.1c0.1,0,0.2,0,0.3,0c0.2,0,0.4,0.1,0.5,0.1C29.1,28.3,29.2,28.3,29.3,28.3z M31.5,27.8
	c0,0-0.1-0.1-0.1-0.1c-0.1-0.1-0.2-0.1-0.2-0.2c-0.1-0.1-0.3-0.1-0.5-0.2c0,0.1,0,0.1,0.1,0.2c0,0.1,0,0.2,0,0.3
	c0,0.1,0,0.2-0.1,0.3c0,0.1-0.1,0.1-0.2,0.2c0,0-0.1,0.1-0.1,0.1c0.1,0,0.2-0.1,0.3-0.1C30.9,28.1,31.2,28,31.5,27.8z M22,28.3
	c-0.2,0-0.3-0.1-0.5-0.1c-0.2,0-0.4-0.1-0.5,0c-0.2,0-0.3,0.1-0.5,0.2c-0.2,0.1-0.4,0.1-0.5,0.1c-0.2,0-0.4,0-0.6,0
	c-0.2,0-0.4-0.1-0.5-0.1c-0.3-0.1-0.6-0.3-1-0.5c0,0,0-0.1,0-0.1c0,0,0,0,0,0c0.1-0.1,0.1-0.1,0.2-0.2c0.1-0.1,0.2-0.1,0.3-0.2
	c0.2-0.1,0.4-0.2,0.6-0.2c0.2-0.1,0.4-0.1,0.6-0.1c0.1,0,0.2,0,0.3,0c0.1,0,0.2,0,0.3,0c0.1,0,0.2,0,0.3,0.1c0.1,0,0.2,0.1,0.3,0.1
	c0.2,0.1,0.3,0.3,0.5,0.4c0.2,0.1,0.3,0.2,0.5,0.3l0.3,0.2l0.1,0c0,0,0,0,0.1,0.1C22.1,28.2,22.1,28.3,22,28.3
	C22.1,28.3,22.1,28.3,22,28.3C22.1,28.3,22.1,28.3,22,28.3C22,28.3,22,28.3,22,28.3C22,28.3,22,28.3,22,28.3z M19.3,28.4
	c-0.1-0.1-0.2-0.1-0.3-0.2c-0.1,0-0.1-0.1-0.2-0.2c0-0.1-0.1-0.2-0.1-0.3c0-0.1,0-0.2,0-0.3c0,0,0.1-0.1,0.1-0.3c0,0,0,0,0,0
	c-0.2,0.1-0.4,0.1-0.6,0.2c-0.1,0-0.2,0.1-0.3,0.2c-0.1,0.1-0.1,0.1-0.2,0.2c0.3,0.2,0.6,0.4,0.9,0.5C19,28.4,19.2,28.4,19.3,28.4z
	 M21.2,28.2c0.1,0,0.2-0.2,0.2-0.3c0-0.1,0-0.1-0.1-0.1c0,0,0,0,0,0c0,0-0.1-0.1-0.1-0.1c-0.2-0.1-0.3-0.3-0.5-0.4
	c-0.1-0.1-0.2-0.1-0.3-0.1c0.1,0.1,0.1,0.1,0.1,0.2c0,0.1,0.1,0.2,0.1,0.3c0,0.1,0,0.2-0.1,0.3c0,0.1-0.1,0.2-0.1,0.2
	c0,0-0.1,0.1-0.2,0.2c0.1,0,0.2,0,0.3-0.1c0.2-0.1,0.3-0.1,0.5-0.1C21,28.2,21.1,28.2,21.2,28.2C21.2,28.2,21.2,28.2,21.2,28.2z
	 M22,28.3C22,28.3,22,28.3,22,28.3C22,28.3,22,28.3,22,28.3c0.1-0.1,0.1-0.1,0.1-0.1c0,0,0,0-0.1,0l-0.1,0L21.7,28
	c-0.1-0.1-0.2-0.1-0.3-0.2c0,0,0,0,0,0.1c0,0.1,0,0.3-0.2,0.3c0.1,0,0.2,0,0.2,0L22,28.3z"/>
</svg>
