<?xml version="1.0" encoding="utf-8"?>
<!-- Generator: Adobe Illustrator 23.0.0, SVG Export Plug-In . SVG Version: 6.00 Build 0)  -->
<svg version="1.0" id="Layer_1" xmlns="http://www.w3.org/2000/svg" xmlns:xlink="http://www.w3.org/1999/xlink" x="0px" y="0px"
	 width="40px" height="40px" viewBox="0 0 40 40" enable-background="new 0 0 40 40" xml:space="preserve">
<path fill="#FFFFFF" d="M29.5,12.4c-0.1,0.1-0.1,0.2-0.2,0.2c-1.1,1.1-2.9-0.7-1.8-1.8c0.1-0.1,0.1-0.1,0.2-0.2
	C27,9.9,26,9.8,25.2,10.5c-1.4,1.4-12.4,12.3-13.1,13.1c-0.1,0.1-0.1,0.1-0.2,0.2c-0.2,0.2-0.2,0.4,0,0.6c0.1,0.1,0.2,0.2,0.3,0.3
	c-0.1,0.1-0.2,0.2-0.3,0.3c-0.6,0.6-0.7,0.6-1.3,1.3c-0.3,0.3-0.3,0.7,0,1l0.1,0.1c-0.3,0.3-0.3,0.3-0.7,0.7
	c-0.8,0.7,1.1,2.6,1.8,1.8c0.3-0.3,0.3-0.3,0.7-0.7c0.1,0,0.1,0.1,0.1,0.1c0.5,0.4,0.8,0.4,1.3,0c0.4-0.4,0.4-0.3,0.9-0.9
	c0.2-0.2,0.3-0.3,0.5-0.5c0.5,0.4,0.6,0.4,1,0c1.2-1.2,12.3-12.3,13.1-13.1c0.1-0.1,0.2-0.2,0.3-0.3C30.2,13.8,30.2,13,29.5,12.4z
	 M13.5,28.5c-0.6-0.6-1.3-1.3-1.9-1.9c0.6-0.6,0.8-0.7,1.4-1.3c0.6,0.6,1.3,1.3,1.9,1.9C14.3,27.8,14.1,27.9,13.5,28.5z"/>
</svg>
