<?xml version="1.0" encoding="utf-8"?>
<!-- Generator: Adobe Illustrator 23.0.0, SVG Export Plug-In . SVG Version: 6.00 Build 0)  -->
<svg version="1.0" id="Layer_1" xmlns="http://www.w3.org/2000/svg" xmlns:xlink="http://www.w3.org/1999/xlink" x="0px" y="0px"
	 width="40px" height="40px" viewBox="0 0 40 40" enable-background="new 0 0 40 40" xml:space="preserve">
<path id="boxy_40" fill="#FFC71A" d="M12,0h16c6.6,0,12,5.4,12,12v16c0,6.6-5.4,12-12,12H12C5.4,40,0,34.6,0,28V12C0,5.4,5.4,0,12,0
	z"/>
<path id="designs_shape_1_" fill="#030303" d="M26.6,9.4c0.2,0,0.5,0.2,0.8,0.4c0.6,0.6,1.2,1.4,1.6,2.1c0.5,0.6,0.5,1.7,0.1,2.3
	c-3.6,4.7-5.6,7.3-10.6,13.1c-1.6-1.8-2.3-2.7-3.5-4.5c4.9-5.3,7-8.1,10.7-13C25.9,9.6,26.3,9.5,26.6,9.4 M14,21.6
	c-0.1,0.1-0.2,0.3-0.3,0.4c-0.1,0.3-0.1,0.3-0.2,0.5c-0.9,2.3-1.4,3.7-2.5,5.9c-0.6,1.2-0.8,1.7-1.4,2.7c1.3,0.1,2,0,3.3-0.2
	c2.6-0.4,3.7-0.9,6-1.6c0.2,0,0.3,0,0.5-0.2c0.2-0.2,0.2-0.3,0.4-0.4c5-6,7-8.5,10.6-13.2c0.7-1.1,0.7-2.8-0.1-4.2
	c-0.6-1-1.2-2-2.1-2.6c-0.5-0.4-0.9-0.7-1.3-0.8c-0.6,0-1.2,0.3-1.9,0.9C20.9,13.5,18.8,16.3,14,21.6z"/>
</svg>
