<?xml version="1.0" encoding="utf-8"?>
<!-- Generator: Adobe Illustrator 23.0.0, SVG Export Plug-In . SVG Version: 6.00 Build 0)  -->
<svg version="1.1" id="Layer_1" xmlns="http://www.w3.org/2000/svg" xmlns:xlink="http://www.w3.org/1999/xlink" x="0px" y="0px"
	 viewBox="0 0 40 40" style="enable-background:new 0 0 40 40;" xml:space="preserve">
<style type="text/css">
	.st0{fill:#FFC71A;}
	.st1{fill:#030303;}
</style>
<path id="boxy_40" class="st0" d="M12,0h16c6.6,0,12,5.4,12,12v16c0,6.6-5.4,12-12,12H12C5.4,40,0,34.6,0,28V12C0,5.4,5.4,0,12,0z"
	/>
<path id="designs_shape_2_" class="st1" d="M26.3,9.8c0.2,0,0.5,0.2,0.8,0.4c0.6,0.6,1.2,1.4,1.6,2.1c0.5,0.6,0.5,1.6,0.1,2.2
	c-3.4,4.5-5.3,7-10.3,13c-1.6-1.8-2.3-2.7-3.4-4.5c4.9-5.5,6.9-8.2,10.4-12.8C25.7,9.9,26,9.8,26.3,9.8 M14.1,21.7
	c-0.1,0.1-0.2,0.3-0.3,0.4c-0.1,0.3-0.1,0.3-0.2,0.5c-0.9,2.4-1.4,3.8-2.6,6.2c-0.6,1.3-0.8,1.8-1.5,2.9c1.3,0,2-0.1,3.3-0.3
	c2.6-0.5,3.7-1.1,6.1-1.9c0.2,0,0.3,0,0.5-0.2s0.2-0.3,0.4-0.4c5-6.2,6.9-8.6,10.3-13.1c0.7-1,0.6-2.7-0.2-4c-0.6-1-1.2-1.9-2.1-2.6
	c-0.5-0.4-0.9-0.7-1.3-0.8c-0.6,0-1.1,0.2-1.8,0.8C20.9,13.5,18.9,16.3,14.1,21.7z"/>
</svg>
