<?xml version="1.0" encoding="utf-8"?>
<!-- Generator: Adobe Illustrator 23.0.0, SVG Export Plug-In . SVG Version: 6.00 Build 0)  -->
<svg version="1.0" id="Layer_1" xmlns="http://www.w3.org/2000/svg" xmlns:xlink="http://www.w3.org/1999/xlink" x="0px" y="0px"
	 width="40px" height="40px" viewBox="0 0 40 40" enable-background="new 0 0 40 40" xml:space="preserve">
<path id="equipment_shape_1_" fill="#FFFFFF" d="M19.1,29.9c-1.8,0.1-3.1-1.2-3.1-3c0-1.8,1.2-3.2,2.9-3.3c0.1,0,0.2,0,0.3,0
	c3.9,0,7.4,0.1,11.3,0.1c1.6-0.1,3,1.3,3.4,3.2c0.4,1.9-0.5,3.3-2.2,3.3c-0.1,0-0.2,0-0.3,0C27.1,30,23.4,30,19.1,29.9z M7.4,23.7
	c-0.2-0.1-0.6-0.8-0.5-1c-0.2-1.1-0.1-2.1-0.3-3.5C6,18.9,6,18.3,6,17.6c0-0.7,0.6-0.8,1-0.7c1.8-2.1,2.7-3.1,4.5-5.1
	c-0.2-0.4-0.1-0.8,0.4-1.5c0.6-0.7,1.5-0.7,2.3-0.1c0.8,0.6,1.5,1.1,0.9,1.8L15,12.1c1.4,3.2,2.3,4.5,3.3,7.9c0.1,0.4-0.1,0.8-0.4,1
	l-0.4,0.5c-0.4,0.1-0.7,0-0.8-0.4c-1-3.4-2.1-5.1-3.4-7.9c-0.1,0-0.2,0-0.3-0.1c-2,2.1-2.8,3.1-4.7,5.2c0,0.3,0,0.5-0.1,0.7
	c1.1,1.9,3.3,2.6,5.1,1.6c0.2-0.1,0.4-0.1,0.5-0.1c0.4,0.1,0.6,0.5,0.5,0.9l0,0c-0.2,0.5-0.4,1-0.6,1.4c-0.8,1.1-2.2,1.9-3.5,1.9
	C9,24.7,8.1,24.4,7.4,23.7L7.4,23.7z M22.4,21.9c-0.3,0-0.5-0.1-0.7-0.1c-0.9-0.4-1.4-1.6-1.1-2.7V19c0.8-2.3,1.2-3.4,2.3-5.8
	c0.3-0.8,1.1-1.2,2-1.3c2,0,3-0.1,5-0.1c0.1,0,0.2,0,0.2,0c1,0.1,1.7,1.1,1.3,2.4l0,0c-0.6,2.4-0.8,3.6-1.1,6c-0.2,1.1-0.9,2-2,1.9
	C25.8,22,22.4,22,22.4,21.9z"/>
</svg>
