<?xml version="1.0" encoding="utf-8"?>
<!-- Generator: Adobe Illustrator 23.0.0, SVG Export Plug-In . SVG Version: 6.00 Build 0)  -->
<svg version="1.0" id="Layer_1" xmlns="http://www.w3.org/2000/svg" xmlns:xlink="http://www.w3.org/1999/xlink" x="0px" y="0px"
	 width="40px" height="40px" viewBox="0 0 40 40" enable-background="new 0 0 40 40" xml:space="preserve">
<g>
	<path fill="#FFFFFF" d="M19.7,29.7c-0.7,0-1.5,0-2.1,0c-0.1,0-0.2,0-0.3,0c0-0.2,0-0.2,0-0.3c-0.2-6.5-0.5-13-0.7-19.6
		c0-0.4-0.2-0.7-0.5-0.8c-0.7,0-1.6,0.1-2.2,0.1c-0.4,0.3-0.5,0.5-0.5,0.9c0.3,6.5,0.6,13,0.9,19.5c0,0.2,0,0.3,0,0.3
		c-0.2,0-0.3,0-0.3,0c-0.6,0-1.4,0-2,0c-0.4,0-0.4,0.2-0.4,0.5c0,0.1,0,0.3,0,0.3c0,0.4,0.1,0.4,0.4,0.4c1.7,0,3.4,0,5.2,0
		c0.8,0,1.6,0,2.5,0c0.3,0,0.4-0.2,0.4-0.4s0-0.3,0-0.5C20.2,29.9,20.1,29.7,19.7,29.7z"/>
	<path fill="#FFFFFF" d="M12.7,15.5c-0.1-1.2-0.2-2.5-0.3-3.7c0,0-0.1,0.1-0.2,0.1c-0.9,0.5-1.8,1-2.7,1.5c-0.3,0.2-0.4,0.3-0.6,0.6
		c0,0.4,0.1,0.9,0.1,1.2c0.3,0.4,0.5,0.5,0.9,0.4c0.8-0.1,1.6-0.1,2.5-0.2C12.6,15.5,12.7,15.5,12.7,15.5z"/>
	<path fill="#FFFFFF" d="M30.5,13.6c-0.2-0.1-0.3-0.2-0.4-0.2c-1.8-0.3-3.5-0.7-5.4-1.1c-1.9-0.3-3.8-0.6-5.8-0.9
		c-0.4-0.1-0.7-0.1-1.1-0.2c0.1,1.3,0.1,2.7,0.1,4c2.4,0,4.9,0,7.3,0.1c0,0.6,0.1,1.1,0.1,1.8c-0.1,0-0.1-0.1-0.2-0.1
		c-0.2-0.1-0.4-0.1-0.5,0.2c-0.8,1.1-1.6,2.2-2.2,3.3c-0.1,0.1-0.1,0.2-0.1,0.2c0,0.1,0,0.1,0,0.2c0,0.1,0.1,0.1,0.2,0.2
		s0.3,0.1,0.4,0.1c0.2-0.1,0.3-0.1,0.4-0.2c0,0.1,0,0.1,0,0.1c0.2,0.8,0.6,2,0.9,2.9c0.1,0.2,0.2,0.2,0.3,0.2c0.4-0.2,1-0.3,1.4-0.4
		c0.2-0.1,0.2-0.2,0.2-0.3c-0.2-0.4-0.3-1-0.4-1.5V22c0.3-0.1,0.6-0.2,0.9-0.2v0.1c0.2,0.5,0.3,1,0.4,1.5c0.1,0.2,0.2,0.2,0.3,0.2
		c0.4-0.2,1-0.2,1.5-0.4c0.2-0.1,0.2-0.2,0.2-0.3c-0.2-0.8-0.4-2.1-0.7-2.9V20h0.1c0.2,0,0.3-0.1,0.4-0.1c0.2-0.1,0.3-0.2,0.3-0.3
		c0-0.2-0.1-0.3-0.3-0.4c-0.7-0.4-1.5-0.7-2.2-1.1c0-0.8,0-1.6,0-2.4c0.1,0,0.3,0,0.3,0c1.1,0.1,2.3,0.2,3.3,0.3c0.1,0,0.3,0,0.3,0
		c0.3,0,0.6-0.3,0.6-0.6c0-0.4,0-0.6,0-1C31.1,13.8,30.7,13.6,30.5,13.6z"/>
</g>
</svg>
