<?xml version="1.0" encoding="utf-8"?>
<!-- Generator: Adobe Illustrator 23.0.0, SVG Export Plug-In . SVG Version: 6.00 Build 0)  -->
<svg version="1.0" id="Layer_1" xmlns="http://www.w3.org/2000/svg" xmlns:xlink="http://www.w3.org/1999/xlink" x="0px" y="0px"
	 width="40px" height="40px" viewBox="0 0 40 40" enable-background="new 0 0 40 40" xml:space="preserve">
<path id="project_shape_1_" fill="#FFFFFF" d="M31,14.8c0-0.3,0.1-0.7,0.1-0.9c-1.7-1.4-2.7-1.8-4.4-3.1c-2.2-0.1-4.6-0.2-7.3-0.2
	c0-0.3,0-0.3,0-0.6c-2.7,0.1-4.1,0-6.7,0.1c0,0.4-0.1,0.5-0.1,0.8c-0.3,0.1-0.5,0.1-0.7,0c-1.3,1.2-1.9,1.8-3.1,3c0,0.1,0,0.4,0,0.6
	c0.1,0,0.3,0,0.4,0c-0.1,0.6-0.1,1.6-0.1,2.2c0.7,0,1.5,0,2.5-0.1c0-0.6,0-1.4,0.1-2.1c0.2,0,0.4,0,0.6,0c0,0.3-0.1,0.9,0,1.3
	c0.6,0,1.1,0,1.7,0C14,21,14,23.6,13.9,28.5c-0.6,0-1,0-1.5,0c-0.1,0.6-0.1,0.8-0.1,1.4c3,0.1,4.7,0.1,7.6,0.1c0-0.6,0-0.8-0.1-1.5
	c-0.7,0-0.9,0-1.5-0.1c0-5,0.2-7.3,0.1-12.6c0.6,0,0.5,0,1.1,0c0-0.3,0-0.8,0-1.2c1.9-0.1,3.3-0.1,5.4,0c0,0.3,0,0.4,0,0.7
	c-0.3,0-0.4,0-0.5,0.1c0,0.1,0.7,1,1,1.4c0.1,0.1,0.1,0.2,0.1,0.5c0,0.1,0,0.2-0.2,0.2c-0.9,0.2-1.4,1.1-1.2,2.2
	c0.1,0.5,0.3,0.7,0.6,0.9c-3.2,2.9-3.4,3.7-2.2,3.9l0.3,0c0.2,0,0.3,0.1,0.3,0.3c-0.1,1.3,0,1.8,0,3.2c1.3,0.1,1.9,0,3.1,0
	c0-1,0-1.5,0.1-2.6c0.5,0,0.8-0.1,1.3,0c0,1,0,1.5-0.1,2.6c0.7,0,0.9,0,1.5,0c0.2-1.2,0.1-1.9,0.2-3.2c0-0.2,0.1-0.3,0.3-0.3l0,0
	c0.8,0,1.4-0.3,0.9-1.3c-0.3-0.6-2.3-2.3-4-3.4c-0.3-0.2-0.5-0.2-0.8,0c-0.2,0.1-0.2,0.2-0.4,0.3c-0.1-0.1-0.2-0.2-0.4-0.4
	c-0.4-0.5-0.2-1,0.4-1.5c0.3-0.2,0.7-0.3,0.6-0.5c0-0.3,0-0.3,0-0.6c0-0.2,0.1-0.4,0.1-0.5c0.4-0.6,0.4-0.5,0.8-1
	c0.1-0.1,0.1-0.2,0-0.2c-0.1,0-0.3,0-0.3,0c0-0.3,0-0.4,0.1-0.7C28.4,14.6,29.5,14.7,31,14.8z M12.4,13.8c-0.7,0-1.4,0-2,0
	c0.6-0.7,2.1-2,2.2-2C12.5,12.4,12.5,13.1,12.4,13.8z M16.9,28.5c-0.7,0-1.3,0-2,0c0-1.6,0.1-2.7,0.1-3.8c0.7-1,1.4-2.4,2-3.3
	C16.9,23.9,16.9,25.9,16.9,28.5z M17,19.4c-0.6,0.9-1.4,1.7-2,2.6c0-2.4,0-3.8,0.1-6c0.6,0,1.3-0.1,1.9,0C17,17.4,17,17.8,17,19.4z
	 M18.5,14.8c-2,0-3.1-0.1-5.1,0c0.1-1.5,0.2-2.4,0.3-3.7c1.9-0.1,2.9-0.1,4.8,0C18.5,12.5,18.4,13.3,18.5,14.8z M19.5,13.6
	c0-0.7,0-1.4,0-2.1c0.9,0.6,2,1.4,2.9,2.1C21.5,13.6,20.3,13.6,19.5,13.6z M24.4,13.6c-0.9-0.7-2.1-1.4-3.1-2.1c1.7,0,3.7,0,4.9,0.1
	c0.8,0.6,1.7,1.3,2.6,2.1C27.2,13.6,26.1,13.7,24.4,13.6z"/>
</svg>
