<?xml version="1.0" encoding="utf-8"?>
<!-- Generator: Adobe Illustrator 23.0.0, SVG Export Plug-In . SVG Version: 6.00 Build 0)  -->
<svg version="1.0" id="Layer_1" xmlns="http://www.w3.org/2000/svg" xmlns:xlink="http://www.w3.org/1999/xlink" x="0px" y="0px"
	 width="40px" height="40px" viewBox="0 0 40 40" enable-background="new 0 0 40 40" xml:space="preserve">
<path id="boxy_40" fill="#FFC71A" d="M12,0h16c6.6,0,12,5.4,12,12v16c0,6.6-5.4,12-12,12H12C5.4,40,0,34.6,0,28V12C0,5.4,5.4,0,12,0
	z"/>
<path d="M29.5,16.1c-0.1-1.5-0.7-2.6-2-3.3c-2-1.1-4.1-1.9-6.2-2.7c-0.6-0.2-1.3-0.3-2-0.1c-0.7,0.2-1.3,0.4-2,0.6
	c-0.1,0-0.3,0.1-0.4,0.2c0.1,0,0.2,0.1,0.2,0.1c1,0.4,2.1,0.7,3.1,1.1c1.8,0.7,3.6,1.4,5.4,2.3c0.7,0.3,1,0.9,1.1,1.6
	c0,0.2,0,0.5,0,0.7c0,1.2,0.1,2.1,0.1,3.3c0,0.4-0.3,0.7-0.5,0.7c-0.5,0.1-1.2,0.5-1.5,0.6c-0.3,0-0.5-0.2-0.5-0.5
	c0-1.4,0-2.6,0-3.9c0-0.8-0.4-1.3-1.1-1.6c-2.8-1.2-5.6-2.3-8.5-3.2c-0.1,0-0.2,0-0.3,0c-0.6,0.3-1.1,0.5-1.7,0.8
	c-1.4,0.7-2.1,1.9-2.1,3.4c0,2.2,0,4.4,0,6.7c0,0.4,0,0.9,0.1,1.3c0.2,1.4,0.9,2.4,2.2,3c2.2,1.1,4.5,2.2,6.9,2.8c0.3,0,0.5,0,0.8,0
	c0.3-0.1,0.6-0.1,0.9-0.2c2.1-0.7,4.2-1.6,6.2-2.6c1.3-0.7,2-1.8,2-3.3C29.6,21.3,29.6,18.7,29.5,16.1z M16.3,21.5
	C16.3,21.5,16.3,21.5,16.3,21.5c0,0.3-0.2,0.2-0.5,0.1l-2.3-1c-0.2-0.1-0.3-0.3-0.3-0.5l0-0.8c0-0.2,0-0.5,0.2-0.4l2.5,1.1
	c0.2,0.1,0.3,0.3,0.3,0.5L16.3,21.5z"/>
</svg>
