<?xml version="1.0" encoding="utf-8"?>
<!-- Generator: Adobe Illustrator 23.0.0, SVG Export Plug-In . SVG Version: 6.00 Build 0)  -->
<svg version="1.0" id="Layer_1" xmlns="http://www.w3.org/2000/svg" xmlns:xlink="http://www.w3.org/1999/xlink" x="0px" y="0px"
	 viewBox="0 0 40 40" enable-background="new 0 0 40 40" xml:space="preserve">
<path id="boxy_40" fill="#FFC71A" d="M12,0h16c6.6,0,12,5.4,12,12v16c0,6.6-5.4,12-12,12H12C5.4,40,0,34.6,0,28V12C0,5.4,5.4,0,12,0
	z"/>
<path id="project_shape_2_" d="M32.2,15.7c0.1-0.6,0.1-0.9,0.3-1.4c-1.7-1.3-2.9-1.8-4.7-3.1c-3.3-0.3-4.9-0.5-8.3-0.6
	c0-0.3,0-0.4,0-0.7c-3.3-0.1-4.9-0.4-8-0.8c0.1,0.4,0,0.5,0,0.9c-0.4,0-0.6,0-0.9-0.1c-1.4,1.1-2,1.7-3.1,3c0.1,0.8,0.1,1.1,0.3,1.7
	c0.3,0,0.4-0.1,0.7,0c0,0.7,0,1,0.2,1.7c0.8,0,1.3,0,2.4,0c-0.1-0.7-0.1-1-0.1-1.7c0.3,0,0.5,0.1,0.8,0c0,0.3,0.1,0.5,0.1,0.9
	c0.7,0.1,1,0,1.7,0.1c0.4,5.5,0.6,8.3,0.9,13.5c-0.6,0.1-0.9,0.1-1.4,0c0,0.7,0.1,1,0.2,1.6c2.7-0.1,4-0.3,6.6-0.4
	c0-0.6,0-0.9,0-1.6c-0.6,0.2-0.8,0-1.4,0.1c-0.1-5.1,0.1-7.7-0.2-13.2c0.7,0,1,0,1.6,0.1c0-0.3,0-0.5,0-1c2.2,0.2,3.3,0.1,5.6,0.1
	c0,0.3-0.1,0.4-0.1,0.8c-0.1,0-0.2,0-0.3,0s-0.2,0.1-0.2,0.1c0,0,0,0.1,0,0.1c0.4,0.4,0.7,0.8,1,1.2C26,17,26,17.2,26,17.5
	c0,0.1,0,0.2-0.1,0.2c-1,0.1-1.6,1.1-1.5,2.1c0.1,0.5,0.3,0.8,0.6,0.9c-1.1,0.7-1.7,1.1-2.8,1.7c-0.2,0.2-0.4,0.4-0.4,0.7
	c0,0.1,0,0.2,0,0.3c0,0.4,0.4,0.8,0.8,0.8l0,0c0.2,0,0.3,0,0.3,0c0.2,0,0.3,0.1,0.3,0.3c-0.1,1.3,0,2.2-0.1,3.5
	c1.2,0,1.8-0.2,2.9-0.3c0.1-1,0.1-1.4,0.3-2.4c0.6-0.1,0.8,0,1.3-0.1c-0.1,1-0.1,1.4-0.3,2.4c0.6-0.1,0.8-0.1,1.4,0
	c0.3-1.2,0.3-1.8,0.5-3.1c0-0.2,0.1-0.3,0.3-0.3l0,0c0.1,0,0.2,0,0.3-0.1c0.5-0.1,0.8-0.5,0.8-0.8l0,0c0-0.1,0-0.2,0-0.3
	c0-0.3,0-0.5-0.3-0.7c-1.2-1-1.9-1.4-3.5-2.4c-0.3-0.2-0.6-0.2-0.8,0c-0.2,0.1-0.3,0.2-0.5,0.2c-0.1-0.1-0.2-0.2-0.3-0.3
	c-0.3-0.6,0-1,0.5-1.4c0.1,0,0.1-0.1,0.2-0.1c0.1-0.1,0.2-0.2,0.2-0.4c0-0.3,0-0.3,0-0.6c0-0.2,0.1-0.4,0.2-0.5
	c0.6-0.5,0.8-0.7,1.3-1.2c0.1-0.1,0.1-0.2,0-0.2l0,0c0,0-0.1,0-0.1,0c-0.1,0-0.2,0-0.3,0c0-0.3,0.1-0.5,0.1-0.8
	C29.5,15.5,30.6,15.6,32.2,15.7z M11.5,13.2c-0.8-0.1-1.2,0-1.9-0.1c0.6-0.7,0.9-0.9,1.6-1.5c0.1,0,0.1,0,0.2,0
	C11.5,12.2,11.6,12.5,11.5,13.2z M16.7,29.4c-0.6,0-0.8-0.1-1.4-0.1c-0.1-1.7,0-2.6-0.1-4.3c0.6-1.1,0.8-1.5,1.4-2.5
	C16.7,25.2,16.6,26.7,16.7,29.4z M16.7,19.8c-0.6,0.9-0.9,1.4-1.4,2.3c-0.1-2.5-0.2-3.7-0.5-6.4c0.7,0.1,0.9,0.1,1.6,0.2
	C16.5,17.5,16.6,18.2,16.7,19.8z M18.4,14.8c-2.2-0.1-3.4-0.3-5.7-0.4c-0.1-1.6-0.1-2.4-0.1-3.8c2.2,0.2,3.4,0.2,5.7,0.3
	C18.4,12.3,18.3,13.3,18.4,14.8z M19.5,13.7c0-0.7,0-0.9,0-1.6c1,0.8,1.5,1,2.5,1.7C21,13.7,20.5,13.6,19.5,13.7z M24.9,13.9
	c-1-0.7-1.5-1-2.4-1.8c1.9,0.2,2.9,0.2,4.8,0.4c0.9,0.6,1.5,1,2.4,1.7C27.9,14,26.8,14,24.9,13.9z"/>
</svg>
