<?xml version="1.0" encoding="utf-8"?>
<!-- Generator: Adobe Illustrator 23.0.0, SVG Export Plug-In . SVG Version: 6.00 Build 0)  -->
<svg version="1.0" id="Layer_1" xmlns="http://www.w3.org/2000/svg" xmlns:xlink="http://www.w3.org/1999/xlink" x="0px" y="0px"
	 width="40px" height="40px" viewBox="0 0 40 40" enable-background="new 0 0 40 40" xml:space="preserve">
<path id="boxy_40" fill="#FFC71A" d="M12,0h16c6.6,0,12,5.4,12,12v16c0,6.6-5.4,12-12,12H12C5.4,40,0,34.6,0,28V12C0,5.4,5.4,0,12,0
	z"/>
<g>
	<path d="M19.7,30.2c-0.7,0-1.5,0-2.2,0c-0.1,0-0.1,0-0.3,0c0-0.1,0-0.2,0-0.3c-0.1-6.9-0.5-13.7-0.7-20.6c0-0.4-0.1-0.7-0.5-0.9
		c-0.8,0-1.6,0.1-2.3,0.1c-0.4,0.2-0.5,0.5-0.5,0.9c0.2,6.9,0.7,13.6,0.9,20.4c0,0.1,0,0.2,0,0.3c-0.1,0-0.2,0-0.3,0
		c-0.7,0-1.4,0-2.2,0c-0.4,0-0.5,0.1-0.5,0.5c0,0.1,0,0.2,0,0.3c0,0.4,0.1,0.5,0.5,0.5c1.8,0,3.6,0,5.5,0c0.9,0,1.7,0,2.6,0
		c0.3,0,0.4-0.1,0.4-0.4c0-0.2,0-0.3,0-0.5C20.1,30.3,20,30.2,19.7,30.2z"/>
	<path d="M12.3,15.4c-0.1-1.3-0.1-2.6-0.2-3.8c-0.1,0-0.1,0.1-0.2,0.1c-0.9,0.5-1.9,1-2.8,1.5c-0.3,0.1-0.5,0.3-0.6,0.6
		c0,0.5,0.1,0.9,0.1,1.3c0.2,0.4,0.5,0.5,0.9,0.5c0.9-0.1,1.7-0.1,2.6-0.1C12.2,15.4,12.3,15.4,12.3,15.4z"/>
	<path d="M30.9,13.3c-0.1-0.1-0.3-0.1-0.5-0.1c-1.8-0.3-3.7-0.7-5.6-1.1c-2-0.3-4-0.7-6.1-0.9c-0.4-0.1-0.8-0.1-1.2-0.1
		c0.1,1.4,0.1,2.8,0.1,4.2c2.6,0,5.1,0,7.7,0.1c0,0.6,0,1.2,0.1,1.8c0,0-0.1,0-0.1-0.1c-0.2-0.1-0.4,0-0.5,0.1
		c-0.8,1.2-1.6,2.3-2.3,3.5c-0.1,0.1-0.1,0.2-0.1,0.2c0,0,0,0.1,0,0.1c0,0,0.1,0.1,0.1,0.1c0.1,0.1,0.2,0.1,0.4,0.1
		c0.2-0.1,0.3-0.1,0.4-0.1c0,0,0,0.1,0,0.1c0.3,0.9,0.7,2.2,0.9,3c0.1,0.2,0.2,0.2,0.3,0.2c0.5-0.2,1-0.3,1.5-0.4
		c0.2,0,0.2-0.1,0.2-0.3c-0.1-0.5-0.3-1-0.4-1.5c0,0,0,0,0-0.1c0.3-0.1,0.6-0.2,1-0.3c0,0,0,0,0,0.1c0.1,0.5,0.3,1,0.4,1.5
		c0,0.2,0.1,0.2,0.3,0.2c0.5-0.1,1-0.2,1.5-0.4c0.2,0,0.2-0.1,0.2-0.3c-0.2-0.9-0.5-2.2-0.7-3.1c0,0,0-0.1,0-0.1c0,0,0,0,0.1,0
		c0.1,0,0.2-0.1,0.4-0.1c0.2,0,0.3-0.1,0.3-0.3c0-0.2,0-0.3-0.2-0.4c-0.7-0.4-1.5-0.8-2.3-1.2c0-0.8,0-1.6,0-2.4c0.1,0,0.2,0,0.3,0
		c1.2,0.1,2.4,0.1,3.6,0.2c0.1,0,0.2,0,0.3,0c0.3,0,0.6-0.3,0.6-0.6s0-0.7,0-1C31.5,13.6,31.2,13.3,30.9,13.3z"/>
</g>
</svg>
