<?xml version="1.0" encoding="utf-8"?>
<!-- Generator: Adobe Illustrator 23.0.0, SVG Export Plug-In . SVG Version: 6.00 Build 0)  -->
<svg version="1.0" id="Layer_1" xmlns="http://www.w3.org/2000/svg" xmlns:xlink="http://www.w3.org/1999/xlink" x="0px" y="0px"
	 width="40px" height="40px" viewBox="0 0 40 40" enable-background="new 0 0 40 40" xml:space="preserve">
<g>
	<path fill="#FFFFFF" d="M19.6,33.3c-0.9,0-2,0-2.9,0c-0.1,0-0.2,0-0.3,0c0-0.2,0-0.3,0-0.4c-0.2-8.9-0.7-17.8-0.9-26.7
		c0-0.5-0.2-0.9-0.7-1.1c-1,0-2.1,0.1-3,0.1c-0.5,0.3-0.7,0.7-0.7,1.2c0.3,8.9,0.9,17.7,1.2,26.6c0,0.2,0,0.3,0,0.4
		c-0.2,0-0.3,0-0.3,0c-0.9,0-1.9,0-2.8,0c-0.5,0-0.6,0.2-0.6,0.7c0,0.1,0,0.3,0,0.4c0,0.5,0.1,0.6,0.6,0.6c2.3,0,4.7,0,7.1,0
		c1.1,0,2.2,0,3.3,0c0.3,0,0.5-0.2,0.5-0.5s0-0.4,0-0.7C20.1,33.5,20,33.3,19.6,33.3z"/>
	<path fill="#FFFFFF" d="M10,14c-0.1-1.7-0.2-3.3-0.3-5c0,0-0.1,0.1-0.2,0.1c-1.2,0.7-2.5,1.3-3.7,2c-0.3,0.2-0.6,0.4-0.8,0.8
		c0,0.6,0.1,1.2,0.1,1.7c0.3,0.5,0.7,0.7,1.2,0.6c1.1-0.1,2.2-0.1,3.3-0.2C9.8,14,9.9,14,10,14z"/>
	<path fill="#FFFFFF" d="M34.2,11.3c-0.2-0.1-0.4-0.2-0.6-0.2c-2.4-0.4-4.8-0.9-7.3-1.4c-2.6-0.4-5.2-0.9-7.9-1.2
		c-0.5-0.1-1-0.1-1.5-0.2C17,10.1,17,12,17,13.8c3.3,0,6.7,0,10,0.1c0,0.8,0.1,1.6,0.1,2.4c-0.1,0-0.1-0.1-0.2-0.1
		c-0.3-0.1-0.5-0.1-0.7,0.2c-1.1,1.5-2.1,3-3,4.6c-0.1,0.1-0.1,0.2-0.1,0.3c0,0.1,0,0.1,0,0.2s0.1,0.1,0.2,0.2s0.3,0.1,0.5,0.1
		c0.2-0.1,0.4-0.1,0.6-0.2c0,0.1,0,0.1,0,0.1c0.3,1.1,0.9,2.8,1.2,3.9c0.1,0.2,0.2,0.3,0.4,0.2c0.6-0.2,1.3-0.4,1.9-0.5
		c0.2-0.1,0.3-0.2,0.2-0.4c-0.2-0.6-0.4-1.3-0.5-2v-0.1c0.4-0.1,0.8-0.2,1.2-0.3v0.1c0.2,0.7,0.4,1.3,0.5,2c0.1,0.2,0.2,0.3,0.4,0.2
		c0.6-0.2,1.3-0.3,2-0.5c0.2-0.1,0.3-0.2,0.2-0.4c-0.3-1.1-0.6-2.9-0.9-4v-0.1h0.1c0.2,0,0.3-0.1,0.5-0.1c0.2-0.1,0.4-0.2,0.4-0.4
		c0-0.2-0.1-0.4-0.3-0.5c-1-0.5-2-1-3-1.6c0-1.1,0-2.1,0-3.2c0.1,0,0.3,0,0.3,0c1.5,0.1,3.1,0.2,4.6,0.3c0.1,0,0.3,0,0.3,0
		c0.4,0,0.8-0.3,0.8-0.8s0-0.9,0-1.3C35,11.7,34.6,11.3,34.2,11.3z"/>
</g>
</svg>
