<?xml version="1.0" encoding="utf-8"?>
<!-- Generator: Adobe Illustrator 23.0.0, SVG Export Plug-In . SVG Version: 6.00 Build 0)  -->
<svg version="1.0" id="Layer_1" xmlns="http://www.w3.org/2000/svg" xmlns:xlink="http://www.w3.org/1999/xlink" x="0px" y="0px"
	 viewBox="0 0 40 40" enable-background="new 0 0 40 40" xml:space="preserve">
<path id="boxy_40" fill="#FFC71A" d="M12,0h16c6.6,0,12,5.4,12,12v16c0,6.6-5.4,12-12,12H12C5.4,40,0,34.6,0,28V12C0,5.4,5.4,0,12,0
	z"/>
<path id="products_shape_1_" fill="#030303" d="M30.1,15.2c-3.3-2.5-5.1-3.4-8.8-4.8c-0.7-0.3-1.9-0.4-2.8-0.1
	c-3.7,1.4-5.4,2.1-8.8,4.7c-0.8,0.6-1.2,1.5-1,2.2c0.6,3,1.1,4.5,1.5,7.8c0.1,0.7,0.5,1.4,1.3,1.9c2.9,1.8,4.2,2.8,7.5,4.8
	c0.6,0.4,1.8,0.4,2.5,0c3.2-2,4.5-3,7.5-4.8c0.8-0.6,1.2-1.2,1.2-1.9c0.2-3.1,0.9-4.5,1.4-7.5C31.3,16.6,30.8,15.8,30.1,15.2z
	 M19.6,11c0.2-0.1,0.4-0.1,0.5,0c3.3,1.4,5.1,2.2,8.1,4.3c0.1,0,0.1,0.1,0.2,0.3c0.1,0.3,0,0.6-0.3,0.6l0,0c-0.8,0.2-1.2,0.5-2,0.6
	c-3.5-2.1-5.5-2.8-9.4-4.4C17.9,11.9,18.4,11.6,19.6,11z M19.3,29.5c0,0.1,0,0.1-0.1,0.3c-0.1,0.3-0.4,0.3-0.6,0.3
	c-2.9-1.6-4.1-2.7-6.9-4.3c-0.1-0.1-0.3-0.3-0.2-0.4c-0.1-3.1-0.7-4.6-1.2-7.6c0-0.1,0-0.1,0.1-0.2c0.1-0.3,0.5-0.4,0.8-0.4
	c3.5,0.9,5.1,1.9,8,3.3c0.1,0.1,0.2,0.3,0.2,0.4C19.3,24.3,19.4,26,19.3,29.5z M19.7,19.4c-2.9-1.6-4.5-2.4-8-3.4
	c-0.1,0-0.2-0.1-0.3-0.2c-0.2-0.2,0-0.5,0.2-0.8l0,0c0.9-0.6,1.3-0.8,2.2-1.3c4,1.2,6,2.2,9.5,4c-1.2,0.5-1.9,0.9-3,1.4
	C20,19.6,19.9,19.6,19.7,19.4L19.7,19.4z M28.4,25.2c0,0.2-0.2,0.4-0.2,0.4c-2.8,1.7-4.1,2.5-7,4.4c-0.1,0-0.1,0.1-0.2,0.2
	c-0.2,0-0.4-0.3-0.4-0.4l0,0c0-3.5,0-5.2,0-8.6c0-0.3,0.1-0.3,0.2-0.4c1.1-0.7,1.8-0.8,2.9-1.5c0,1.3-0.1,2-0.2,3.5
	c1-0.6,1.6-0.9,2.8-1.4c0.1-1.3,0.3-2,0.4-3.3c0.8-0.2,1.2-0.3,2-0.5c0.1,0,0.2-0.1,0.3-0.1c0.3,0.1,0.5,0.3,0.4,0.5l0,0
	C29,20.8,28.5,22.2,28.4,25.2z M16.9,22.1c-0.1,0.3-0.3,0.3-0.6,0.3c-1.1-0.6-1.7-0.9-2.8-1.4c-0.4-0.3-0.9-0.6-0.8-1.1
	c0.1-0.5,0.5-0.5,0.7-0.4s2.4,0.9,2.9,1.3C16.9,21.1,17.1,21.7,16.9,22.1z"/>
</svg>
