<?xml version="1.0" encoding="utf-8"?>
<!-- Generator: Adobe Illustrator 23.0.0, SVG Export Plug-In . SVG Version: 6.00 Build 0)  -->
<svg version="1.0" id="Layer_1" xmlns="http://www.w3.org/2000/svg" xmlns:xlink="http://www.w3.org/1999/xlink" x="0px" y="0px"
	 width="40px" height="40px" viewBox="0 0 40 40" enable-background="new 0 0 40 40" xml:space="preserve">
<g>
	<path fill="#FFFFFF" d="M28.6,18.5c-2.5-2.3-5.1-4.7-7.9-7.1c-0.5-0.3-1-0.3-1.5,0c-0.2,0.2-0.5,0.4-0.7,0.6c0,0.2,0,0.3,0,0.5
		c0.1,3.1-2.6,5.9-5.7,6.2c-0.5,0.1-1.1,0-1.6-0.1c-0.1,0.2-0.2,0.3-0.2,0.5c0,0.1,0,0.2,0,0.3c0.1,0.2,0.2,0.2,0.2,0.5
		c0.2,0.2,0.5,0.3,0.8,0.3c0.4-0.1,0.8-0.1,1.2-0.1c0,0.1,0,0.1,0,0.2c0.1,2.1,0.2,5.6,0.3,7.9c0,0.4,0.2,0.6,0.6,0.6
		c1.3-0.1,2.6-0.1,3.9-0.1c0.4,0,0.6-0.1,0.6-0.6c0-1.3,0-2.7,0-4c0-0.1,0-0.1,0-0.2c0.8,0,1.7,0,2.5,0c0,0.1,0,0.1,0,0.2
		c0,1.4,0,2.7,0,4.1c0,0.4,0.2,0.6,0.6,0.6c1.3,0,2.7,0.1,4,0.1c0.4,0,0.6-0.2,0.6-0.6c0.1-2.2,0.2-5.7,0.3-8c0,0,0-0.1,0-0.2
		c0.1,0,0.1,0,0.2,0c0.4,0,0.7,0,1,0c0.5,0,0.8-0.3,1-0.6C29,19.1,28.9,18.8,28.6,18.5z"/>
</g>
<path fill="#FFFFFF" d="M12.8,6.2c-3.4,0-6.7,3.3-6.7,6.7c0,1.4,0.4,2.6,1,3.6c-0.7-0.1-2.1,0-2.1,0v1c0,0,0.5-0.2,0.7-0.2
	c0.6-0.1,1.4-0.1,1.8-0.1s0.6,0.1,0.6,0.1s0-0.1,0-0.2s0-0.2,0-0.3v-0.1c0.1-0.4,0.3-1.2,0.5-1.7C8.7,14.8,9,14.3,9,14.3L8.1,14
	c0,0-0.3,1-0.5,1.8C7.2,15.1,7,14.2,7,13.3c0-3.1,2.7-5.9,5.7-6.2c1.4-0.2,2.6,0.2,3.6,1c0.2-0.2,0.4-0.3,0.7-0.5
	C16,6.8,14.5,6.2,12.8,6.2z"/>
<path fill="#FFFFFF" d="M20.5,8.6c0,0-0.5,0.1-0.7,0.2c-0.5,0.1-1.3,0-1.6-0.1h-0.1c-0.2,0-0.4-0.1-0.5-0.1s-0.1,0-0.1,0s0,0,0,0.1
	s0,0.2-0.1,0.4v0.1c-0.1,0.4-0.3,1.2-0.6,1.6c-0.1,0.2-0.5,0.6-0.5,0.6l0.9,0.4c0,0,0.5-1.2,0.7-1.8c0.4,0.8,0.7,1.7,0.7,2.6
	c0,3.1-2.7,5.9-5.7,6.2c-1.4,0.1-2.7-0.3-3.7-1c-0.2,0-0.5,0.2-0.8,0.4c1.2,1,2.7,1.5,4.4,1.5c3.4,0,6.7-3.3,6.7-6.7
	c0-1.3-0.4-2.6-0.9-3.6c0.7,0.1,1.8,0.1,1.8,0.1L20.5,8.6z"/>
</svg>
