<?xml version="1.0" encoding="utf-8"?>
<!-- Generator: Adobe Illustrator 23.0.0, SVG Export Plug-In . SVG Version: 6.00 Build 0)  -->
<svg version="1.0" id="Layer_1" xmlns="http://www.w3.org/2000/svg" xmlns:xlink="http://www.w3.org/1999/xlink" x="0px" y="0px"
	 width="40px" height="40px" viewBox="0 0 40 40" enable-background="new 0 0 40 40" xml:space="preserve">
<path id="boxy_40" fill="#FFC71A" d="M12,0h16c6.6,0,12,5.4,12,12v16c0,6.6-5.4,12-12,12H12C5.4,40,0,34.6,0,28V12C0,5.4,5.4,0,12,0
	z"/>
<path id="products_shape_1_" fill="#030303" d="M29.1,13.6c-3-2-4.5-2.3-8-3.4c-0.7-0.2-1.8-0.3-2.6,0c-3.5,1.2-4.9,1.5-8,3.5
	c-0.7,0.5-1.1,1.3-0.9,2.1c0.4,3.2,0.7,4.7,0.5,7.9c0,0.7,0.2,1.4,1,1.8c2.7,1.6,3.9,2.3,7.8,4.1c0.7,0.4,2.2,0.4,3,0.1
	c3.7-1.6,4.9-2.3,7.7-3.8c0.7-0.5,1-1.1,0.8-1.9c-0.4-3.3,0-4.8,0.4-8.3C30.2,14.9,29.8,14.1,29.1,13.6z M19.5,10.8
	c0.2-0.1,0.4-0.1,0.5,0c3.1,1.2,4.7,1.6,7.4,3.2c0.1,0,0.1,0.1,0.2,0.3c0.1,0.3,0,0.6-0.3,0.7l0,0c-0.7,0.3-1.1,0.7-1.8,0.8
	c-3.2-1.7-5-2.1-8.6-3.8C17.9,11.7,18.4,11.4,19.5,10.8z M19.1,27.7c0,0.1,0,0.1-0.1,0.3c-0.1,0.3-0.5,0.3-0.7,0.3
	c-3.2-1.5-4.3-2.3-6.9-3.8c-0.1-0.1-0.3-0.3-0.1-0.4c0.5-3,0.1-4.4-0.3-7.5c0-0.1,0-0.1,0.1-0.2c0.1-0.3,0.5-0.3,0.8-0.3
	c3.2,1.3,4.6,2.2,7.3,3.5c0.1,0.1,0.2,0.3,0.2,0.4C19.2,23,19.3,24.6,19.1,27.7z M19.6,18.6c-2.7-1.5-4.1-2.2-7.3-3.6
	c-0.1,0-0.2-0.1-0.3-0.2c-0.2-0.2,0-0.5,0.2-0.8l0,0c0.8-0.5,1.2-0.6,2-1c3.7,1.6,5.5,2.4,8.7,3.9c-1.1,0.5-1.7,0.9-2.8,1.4
	C19.9,18.7,19.8,18.7,19.6,18.6L19.6,18.6z M28.4,24.2c0,0.2-0.1,0.4-0.1,0.4c-2.6,1.5-3.8,2.1-7,3.7c-0.1,0-0.1,0.1-0.2,0.2
	c-0.2,0-0.5-0.3-0.5-0.4l0,0c-0.1-3.2-0.1-4.7-0.1-7.8c0-0.3,0.1-0.3,0.2-0.4c1-0.6,1.7-0.7,2.7-1.4c0,1.2,0,1.9,0,3.3
	c0.9-0.6,1.5-0.8,2.6-1.4c0-1.3,0.1-2,0.2-3.3c0.7-0.3,1.1-0.4,1.8-0.7c0.1,0,0.2-0.1,0.3-0.1c0.3,0.1,0.5,0.3,0.4,0.5l0,0
	C28.3,19.7,28,21.1,28.4,24.2z M16.9,21c-0.1,0.3-0.3,0.3-0.6,0.3c-1-0.6-1.6-0.8-2.6-1.4c-0.4-0.3-0.8-0.6-0.7-1.1
	c0.1-0.5,0.5-0.4,0.7-0.3c0.2,0.1,2.2,0.9,2.7,1.3C16.9,20.1,17.1,20.6,16.9,21z"/>
</svg>
