<?xml version="1.0" encoding="utf-8"?>
<!-- Generator: Adobe Illustrator 23.0.0, SVG Export Plug-In . SVG Version: 6.00 Build 0)  -->
<svg version="1.0" id="Layer_1" xmlns="http://www.w3.org/2000/svg" xmlns:xlink="http://www.w3.org/1999/xlink" x="0px" y="0px"
	 width="40px" height="40px" viewBox="0 0 40 40" enable-background="new 0 0 40 40" xml:space="preserve">
<path id="boxy_40" fill="#FFC71A" d="M12,0h16c6.6,0,12,5.4,12,12v16c0,6.6-5.4,12-12,12H12C5.4,40,0,34.6,0,28V12C0,5.4,5.4,0,12,0
	z"/>
<path d="M8.9,19.2c0-0.1,0-0.3,0-0.4c0.1-0.2,0.2-0.5,0.4-0.7c3.1-3,6.4-5.9,9.8-8.8c0.6-0.4,1.2-0.4,1.8,0c3.4,2.9,6.6,5.9,9.8,8.8
	c0.4,0.4,0.5,0.8,0.3,1.2c-0.2,0.4-0.6,0.7-1.2,0.7c-0.4,0-0.8,0-1.2,0c-0.1,0-0.1,0-0.2,0c0,0.1,0,0.2,0,0.3
	c-0.1,2.8-0.3,7.1-0.4,9.9c0,0.5-0.2,0.7-0.7,0.7c-1.6,0-3.3-0.1-4.9-0.1c-0.5,0-0.7-0.2-0.7-0.7c0-1.7,0-3.3,0-5c0-0.1,0-0.1,0-0.2
	c-1,0-2.1,0-3.1,0c0,0.1,0,0.1,0,0.2c0,1.6,0,3.3,0,4.9c0,0.6-0.2,0.8-0.7,0.8c-1.6,0-3.2,0-4.8,0.1c-0.5,0-0.7-0.2-0.8-0.7
	c-0.1-2.8-0.3-7.1-0.4-9.8c0-0.1,0-0.1,0-0.3c-0.5,0-1,0-1.5,0.1c-0.4,0-0.8-0.1-1-0.4C9.1,19.5,9,19.4,8.9,19.2z"/>
</svg>
