<?xml version="1.0" encoding="utf-8"?>
<!-- Generator: Adobe Illustrator 23.0.0, SVG Export Plug-In . SVG Version: 6.00 Build 0)  -->
<svg version="1.0" id="Layer_1" xmlns="http://www.w3.org/2000/svg" xmlns:xlink="http://www.w3.org/1999/xlink" x="0px" y="0px"
	 width="40px" height="40px" viewBox="0 0 40 40" enable-background="new 0 0 40 40" xml:space="preserve">
<g>
	<g>
		<path id="crafts_shape_1_" fill="#FFFFFF" d="M24.9,10.9c2,0,1.7,1.6,1.7,1.5c1.4-0.1,2,0.7,1.7,1.6c-0.1,0.4,0,0.6-0.1,1.1
			c0,0.6-0.6,1.1-1.3,1.2c-2.7,0.5-4.2,0.8-6.9,1.4c-0.1,0-0.2,0.2-0.2,0.3c0,0.2,0,0.4,0,0.6c2.4-0.1,0.6,1.8,0.6,2.6
			c0,0.2,0,0.3,0,0.6c0.8,0,1.1,0,1.7,0c0.6,0,1,0.4,1,1c0,0.7,0,0.9-0.6,0.9c0,0-0.1,0.3,0,0.3c0.4,0,0.1,0,0.4,0
			c0.6,0,0.8,0.4,0.7,0.9c-0.1,0.6-0.1,0.9-0.6,0.9c-0.3,0-0.2,0-0.4,0c0,0-0.1,0.2-0.1,0.3c0.5,0,0.8,0.3,0.7,0.8
			c-0.1,0.5-0.3,0.8-0.8,0.8c-0.1,0-0.1,0-0.2,0c0,0-0.2,0.2,0,0.2c0.1,0,0.2,0,0.4,0.1c0.3,0.2,0.2,0.7-0.2,0.9
			c-0.3,0.1-0.5,0.2-0.8,0.2c-1.1,0-1.5,0-2.5,0.1c-0.9,0-2-0.1-2.7-0.5c-0.9-0.4-1.8-0.7-2.8-1c-0.4-0.1-0.7-0.4-0.8-0.8
			c0-1.1-0.1-1.6-0.4-2.6c-0.1-0.5,0.2-0.9,0.6-0.9c0.6-0.1,1.1-0.3,1.6-0.6c0.8-0.5,3.3-0.9,3.5-1c0.2,0-0.6-2-0.6-2.1
			c-0.3-0.7,0.1-1.2,1.4-1.2c0-0.2,0,0,0-0.2c0-0.7,0.5-1.4,1.3-1.5c2.8-0.7,4.3-1,7-1.4c0.1,0,0.2-0.2,0.2-0.3
			c0-0.4,0.1-0.6,0.1-1.1c0-0.2-0.1-0.3-0.3-0.3c-0.1,0-0.2,0-0.3,0c-0.2,1.4-0.6,1.5-1.9,1.4c-4.4-0.3-6.9-0.2-11.1,0
			c-1,0.1-1.8-0.7-1.8-1.6l0,0c0-0.3-0.1-0.6-0.1-1c-0.1-0.9,0.6-1.7,1.6-1.7l0,0C18,10.7,20.4,10.7,24.9,10.9 M25.2,10
			c-1.1,0-7.3,0.1-12,0.2c-2,0.1-2.4,1.5-2.2,3.2c0.2,1.9,1,2.4,2.8,2.4c1.5,0,5,0,6.6,0c-2,0-2.4,1.4-2.3,2c-0.8,0.1-2,0.3-1.7,1.7
			c0,0.1,0.4,1.6,0.4,1.7c-0.9,0.3-2.2,0.6-2.8,0.7c-0.5,0.1-0.8,0.4-1.4,0.5c-1,0.2-1.5,0.9-1.3,2c0.2,1.1,0.2,1,0.3,2
			c0.1,0.9,0.3,1.5,1.3,1.7c0.9,0.2,1.6,0.5,2.4,0.9c1,0.6,2.5,0.8,3.7,0.8c0.9,0,1.5,0,2.4-0.1c1.3,0,1.9-0.6,2-1.2
			c0.1-0.4-0.1-0.8-0.1-0.8c0.4-0.1,0.8-0.3,0.8-1c0-0.4,0-0.8-0.1-0.9c0.4-0.2,0.8-2.3-0.2-2.5c0,0,0.1-0.5,0.2-1.2
			c0.1-0.9-1-1.4-2.5-1.3c0.2-0.6,1.4-2.7,0.3-2.8c2-0.5,4.4-1,5.5-1.2s1.7-0.8,1.8-1.9c0.3-2.4-0.4-2.9-1.7-3.5
			C27.3,10.8,26.9,10.1,25.2,10z"/>
	</g>
</g>
</svg>
