<?xml version="1.0" encoding="utf-8"?>
<!-- Generator: Adobe Illustrator 23.0.0, SVG Export Plug-In . SVG Version: 6.00 Build 0)  -->
<svg version="1.0" id="Layer_1" xmlns="http://www.w3.org/2000/svg" xmlns:xlink="http://www.w3.org/1999/xlink" x="0px" y="0px"
	 width="40px" height="40px" viewBox="0 0 40 40" enable-background="new 0 0 40 40" xml:space="preserve">
<path fill="#FFFFFF" d="M18.1,17c-2.3,0-4.6,0.2-6.9,0.4c-1.3,0.1-2.2-0.6-2.1-1.8c0.1-1,0.1-1.9,0.2-2.9c0.1-1.2,1-2.2,2.3-2.3
	c4.4-0.4,8.8-0.5,13.2-0.3c1.2,0.1,2.2,1,2.2,2.2c0.1,1,0.1,2,0.2,2.9c0.1,1.2-0.8,2-2.1,1.9C22.7,17,20.4,17,18.1,17z M20.6,22.5
	c0-0.5-0.4-0.9-0.9-0.9c-0.8,0-1.7,0-2.5,0c-0.3,0-0.5,0.1-0.6,0.3c-0.1,0.2-0.2,0.5-0.2,0.7c-0.1,1.5-0.1,3.1-0.1,4.6
	c0,0.6,0,1.2,0,1.9c0,0.6,0.4,0.9,1.1,0.9c0.8,0,1.6,0,2.4,0c0.4,0,0.7-0.2,0.9-0.5c0.1-0.2,0.1-0.3,0.1-0.5c0-1.1,0-2.1,0-3.2
	C20.6,24.7,20.6,23.6,20.6,22.5z M28.5,14.7c0.4,0,0.4,0.1,0.4,0.4c0.1,1.1,0.1,2.2,0.2,3.3c0,0.4,0,0.4-0.4,0.3c-3-0.3-6-0.4-9-0.5
	c-1.2,0-2.4,0.9-2.1,2.4c0.6,0,1.2,0,1.8,0c0-0.1,0-0.2,0-0.3c0-0.5,0-0.5,0.5-0.5c3,0,6,0.2,9,0.5c1.3,0.1,2-0.5,2-1.7
	c-0.1-1.2-0.2-2.3-0.3-3.5c-0.1-1.1-1-2.3-2.7-2.1c0,0.5,0.1,1,0.1,1.6C28.2,14.7,28.3,14.7,28.5,14.7z"/>
</svg>
