<?xml version="1.0" encoding="utf-8"?>
<!-- Generator: Adobe Illustrator 23.0.0, SVG Export Plug-In . SVG Version: 6.00 Build 0)  -->
<svg version="1.0" id="follow_x5F_icon" xmlns="http://www.w3.org/2000/svg" xmlns:xlink="http://www.w3.org/1999/xlink" x="0px"
	 y="0px" viewBox="0 0 50 50" enable-background="new 0 0 50 50" xml:space="preserve">
<path id="head_right_1_" fill="#FFFFFF" d="M25.2,26.4c-5.3,0.1-9.6-4.2-9.7-9.5c-0.1-5.3,4.5-9.6,10.3-9.7c5.8-0.1,10.1,4,9.6,9.4
	v0.1C35,22,30.5,26.3,25.2,26.4z"/>
<path id="body_right_1_" fill="#FFFFFF" d="M24.9,42.9c-4.2-0.1-8.3-1.2-12-3.3c-0.1-0.1-0.2-0.1-0.3-0.2c-1.4-1-1.8-2.9-0.8-4.4
	c1.1-1.7,2.5-3.2,4.1-4.3c2.7-1.9,6-3,9.3-3c5.4,0,10.3,2.8,13.1,7.5c0.1,0.1,0.1,0.2,0.2,0.3c0.3,0.8,0.4,1.6,0.1,2.5
	c-0.3,0.8-0.8,1.5-1.5,1.9C33.3,41.9,29.1,42.9,24.9,42.9L24.9,42.9z"/>
<path fill="#6B6B6B" d="M18.9,41c-0.7,0.1-1.4,0.2-2.2,0.3c-0.7-0.2-1.3-0.5-2-0.8c0.5-0.1,0.9-0.1,1.4-0.2c1.5-0.2,3-0.5,4.5-0.7
	c0.4-0.1,0.6,0.1,0.7,0.4c0.1,0.4-0.1,0.6-0.5,0.7C20.2,40.8,19.5,40.9,18.9,41z M38.7,36.2c-6.6-0.8-18.3-2.3-25.1-3.1
	c4.2-0.7,8.1-1.4,8.2-1.4c0.9-0.2,1.7-0.3,2.6-0.4c0.7,0,1.3,0,2,0.1c0.6,0.1,5.3,0.7,10,1.3c-0.4-0.5-0.8-0.9-1.3-1.3
	c-3.3-0.4-5.8-0.7-6-0.7c0,0,0,0,0-0.1c0.2,0,2-0.3,4-0.6c-0.5-0.3-1.1-0.6-1.7-0.9c-3.7,0.6-7.2,1.1-8.3,1.3
	c-0.3,0.1-4.1,0.5-8.3,1.1c-0.6,0.5-1.2,1.1-1.7,1.7c0,0-0.1,0.1-0.1,0.1c-0.3,0.3-0.5,0.6-0.7,0.9c3.3,0.4,7.5,0.9,8.3,1
	c0,0,0,0.1,0,0.1c-1.1,0.2-5.4,0.8-9.5,1.4c0,0.4,0,0.8,0.2,1.2c4.3-0.7,8.4-1.3,9.4-1.5c1.4-0.2,2.7-0.5,4.1-0.6
	c0.6-0.1,1.3,0.1,2,0.2c1.4,0.2,5.9,0.7,9.8,1.2c-5.4,0.9-11,1.8-11.8,1.9c-0.6,0.1-1.1,0.2-1.7,0.3c-0.1,0-0.2,0-0.3,0
	c-0.3,0.1-0.5,0.3-0.5,0.6c0,0.3,0.3,0.5,0.7,0.5c1.1-0.2,2.2-0.3,3.3-0.5c0.6-0.1,6.8-1.1,12.2-1.9c0.1-0.2,0.1-0.4,0.1-0.6
	c0-0.2,0-0.4,0-0.6C38.7,36.6,38.7,36.4,38.7,36.2z M16.9,18.9c-0.4,0.1-0.7,0.1-1.1,0.2c-0.1-0.4-0.2-0.7-0.2-1.1
	c6.6-1,13.2-2,19.8-3.1c0,0.4,0,0.7,0,1.1c-2.5,0.4-5,0.8-7.5,1.2c0,0,0,0,0,0.1c2.4,0.3,4.8,0.6,7.3,0.9c-0.1,0.4-0.2,0.7-0.3,1.1
	c0,0-0.1,0-0.1,0c-3.3-0.4-6.6-0.8-10-1.2c-0.5-0.1-1-0.2-1.4-0.1C21.2,18.2,19,18.5,16.9,18.9z M29.6,22.9c0,0.3,0.2,0.6,0.5,0.6
	c0.6,0.1,1.2,0.1,1.8,0.2c0.3-0.3,0.7-0.6,1-1c-0.9-0.1-1.8-0.2-2.6-0.3C29.9,22.4,29.6,22.6,29.6,22.9z M24.1,8.3
	c0-0.3-0.2-0.5-0.5-0.6c-0.1,0-0.2,0-0.3,0c-0.1,0-0.2,0-0.2,0c-0.8,0.2-1.6,0.5-2.3,0.8c0.9,0.1,1.8,0.2,2.6,0.3
	C23.8,8.8,24.1,8.6,24.1,8.3z M25.8,7.9c-0.4,0-0.6,0.1-0.7,0.5c0,0.4,0.2,0.6,0.6,0.6c2.4,0.3,4.9,0.6,7.3,0.9
	c-0.5-0.5-1.1-1-1.7-1.3c-1.2-0.1-2.3-0.3-3.5-0.4C27.2,8.1,26.5,8,25.8,7.9z M24.3,13.3c0.6-0.1,1.3,0.1,2,0.2
	c2.7,0.3,5.5,0.7,8.2,1c0.3,0,0.6,0.1,0.9,0.1c-0.1-0.4-0.1-0.8-0.2-1.2c-5.9-0.7-11.8-1.4-17.7-2.2c-0.3,0.3-0.5,0.7-0.7,1.1
	c0.2,0,0.4,0,0.8,0c0.9,0.1,1.8,0.2,2.7,0.4c-1.3,0.2-2.7,0.4-4,0.6c-0.2,0.4-0.3,0.8-0.4,1.2c0.3-0.1,0.7-0.1,1.1-0.2
	C19.3,14.1,21.8,13.7,24.3,13.3z M24.4,22.9c1.1,0.1,2.2,0.3,3.3,0.4c0.4,0.1,0.7-0.1,0.7-0.5c0-0.3-0.2-0.6-0.6-0.6
	c-1.7-0.2-3.4-0.4-5.1-0.6c-2.1-0.3-4.3-0.5-6.4-0.8c0.2,0.4,0.4,0.8,0.7,1.2c0.2,0,0.3,0,0.5,0.1C19.8,22.3,22.1,22.6,24.4,22.9z"
	/>
</svg>
