<?xml version="1.0" encoding="utf-8"?>
<!-- Generator: Adobe Illustrator 23.0.0, SVG Export Plug-In . SVG Version: 6.00 Build 0)  -->
<svg version="1.0" id="Layer_1" xmlns="http://www.w3.org/2000/svg" xmlns:xlink="http://www.w3.org/1999/xlink" x="0px" y="0px"
	 viewBox="0 0 50 50" enable-background="new 0 0 50 50" xml:space="preserve">
<path opacity="0.5" enable-background="new    " d="M2.7,23.7c0.2,0.5,1,1.8,3.3,1.8c0,0,0.1,0,0.1,0c0.9,0,1.4,0,2.3,0l0.1,0l0,0
	c0.8,0,1.8,0.8,1.9,2c0.4,3.8,0.7,5.7,1.3,9.1l0,0.2c0.5,2.8,2.9,5,5.6,5l0.6,0c0.9,0,1.6,0,2.5,0l1.3,0l1.5,0c1.3,0,2.8,0,4,0h0.6
	l1.7,0c0.6,0,1.2,0,1.9,0h0.7c2.7,0,5.1-2.2,5.6-5l0.1-0.3c0.6-3.4,0.9-5.3,1.3-9c0.1-1.1,1.1-2,1.9-2l0,0c1,0,1.5,0,2.4,0.1
	c0,0,0.1,0,0.1,0c2.3,0,3.1-1.3,3.3-1.8c0.3-0.7,0.5-2-1.1-3.6c-4.8-4.8-10.5-9.1-17-12.8c-1.2-0.7-2.7-1-4.3-1
	c-1.6,0-3.1,0.4-4.3,1.1c-6.5,3.7-12.2,8-17,12.8C2.2,21.7,2.4,23,2.7,23.7z"/>
<path d="M2.7,25.6c0.2,0.5,1,1.8,3.3,1.8c0,0,0.1,0,0.1,0c1,0,1.4,0,2.4-0.1l0,0c0.8,0,1.8,0.8,1.9,2c0.4,3.8,0.7,5.7,1.3,9.1l0,0.2
	c0.5,2.8,2.9,5,5.6,5l0.7,0c0.9,0,1.5,0,2.3,0l1.3,0l1.3,0c1.3,0,2.9,0,4.2,0h0.7l1.8,0l1.8,0h0.8c2.7,0,5.1-2.2,5.6-5l0.1-0.3
	c0.6-3.4,0.9-5.3,1.3-9c0.1-1.1,1.1-2,1.9-2l0,0c1,0,1.5,0,2.4,0.1c0.1,0,0.1,0,0.1,0c2.3,0,3.1-1.3,3.3-1.8c0.3-0.7,0.5-2-1.1-3.6
	c-4.8-4.8-10.5-9.1-17-12.8c-1.2-0.7-2.7-1-4.3-1c-1.6,0-3.1,0.4-4.3,1.1c-6.5,3.7-12.2,8-17,12.8C2.2,23.6,2.4,25,2.7,25.6z"/>
<path fill="#FFFFFF" d="M6.1,26.5c1,0,1.4,0,2.4-0.1c1.9,0,3.7,1.6,3.9,3.7c0.4,3.8,0.7,5.7,1.3,9.2c0.3,1.9,2,3.4,3.7,3.4
	c1.7,0,2.6,0,4.4,0c1.7,0,4.5,0,6.2,0c1.7,0,2.6,0,4.4,0c1.7,0,3.4-1.5,3.7-3.4c0.6-3.5,0.9-5.4,1.3-9.2c0.2-2.1,2-3.7,3.9-3.7
	c1,0,1.5,0,2.4,0.1c1.8,0,2.2-0.9,1-2.1c-4.9-4.9-10.6-9-16.6-12.5c-1.8-1.1-4.8-1.1-6.6,0c-6,3.5-11.7,7.6-16.6,12.5
	C3.9,25.6,4.4,26.5,6.1,26.5z"/>
<linearGradient id="SVGID_1_" gradientUnits="userSpaceOnUse" x1="25.0009" y1="38.9174" x2="25.0009" y2="7.2154" gradientTransform="matrix(-1 0 0 -1 50 50)">
	<stop  offset="0" style="stop-color:#FFFFFF;stop-opacity:0.8"/>
	<stop  offset="7.370000e-02" style="stop-color:#DEDEDE;stop-opacity:0.7705"/>
	<stop  offset="0.2168" style="stop-color:#A4A4A4;stop-opacity:0.7133"/>
	<stop  offset="0.36" style="stop-color:#727272;stop-opacity:0.656"/>
	<stop  offset="0.4999" style="stop-color:#494949;stop-opacity:0.6"/>
	<stop  offset="0.6359" style="stop-color:#292929;stop-opacity:0.5456"/>
	<stop  offset="0.7669" style="stop-color:#121212;stop-opacity:0.4932"/>
	<stop  offset="0.8907" style="stop-color:#050505;stop-opacity:0.4437"/>
	<stop  offset="1" style="stop-color:#000000;stop-opacity:0.4"/>
</linearGradient>
<path fill="url(#SVGID_1_)" d="M20.6,42.3c-0.8,0-1.5,0-2.5,0l-0.6,0c-1.5,0-3-1.4-3.2-3l0-0.2c-0.6-3.4-0.9-5.3-1.3-9
	c-0.3-2.3-2.2-4.1-4.3-4.1l-0.1,0c-1,0-1.5,0-2.4,0.1c0,0-0.1,0-0.1,0c-0.7,0-1-0.2-1.1-0.3c-0.1-0.2,0.1-0.5,0.5-1
	c4.7-4.6,10.2-8.8,16.5-12.4c0.8-0.5,1.9-0.7,3-0.7c1.2,0,2.2,0.3,3.1,0.7c6.3,3.6,11.8,7.8,16.5,12.4c0.5,0.5,0.6,0.8,0.5,1
	C45,25.8,44.6,26,44,26c0,0-0.1,0-0.1,0c-1,0-1.4,0-2.4-0.1l-0.1,0c-2.1,0-4.1,1.9-4.3,4.1c-0.4,3.7-0.7,5.5-1.3,8.9l-0.1,0.3
	c-0.3,1.7-1.7,3-3.2,3h-0.7c-0.7,0-1.3,0-1.9,0l-1.7,0h-0.5c-1.2,0-2.9,0-4.3,0l-1.5,0L20.6,42.3 M20.6,42.8c0.4,0,0.8,0,1.3,0
	c1.6,0,4,0,5.7,0c0.2,0,0.3,0,0.5,0c1.5,0,2.3,0,3.6,0c0.2,0,0.5,0,0.7,0c1.7,0,3.4-1.5,3.7-3.4c0.6-3.5,0.9-5.4,1.3-9.2
	c0.2-2,2-3.7,3.9-3.7c0,0,0,0,0.1,0c1,0,1.5,0,2.4,0.1c0,0,0.1,0,0.1,0c1.7,0,2.1-0.9,0.9-2.1c-4.9-4.9-10.6-9-16.6-12.5
	c-0.9-0.5-2.1-0.8-3.3-0.8c-1.2,0-2.4,0.3-3.3,0.8c-6,3.5-11.7,7.6-16.6,12.5c-1.2,1.2-0.8,2.1,0.9,2.1c0,0,0.1,0,0.1,0
	c1,0,1.4,0,2.4-0.1c0,0,0,0,0.1,0c1.9,0,3.6,1.7,3.8,3.7c0.4,3.8,0.7,5.7,1.3,9.2c0.3,1.9,2,3.4,3.7,3.4
	C18.8,42.8,19.6,42.8,20.6,42.8L20.6,42.8z"/>
</svg>
