<?xml version="1.0" encoding="utf-8"?>
<!-- Generator: Adobe Illustrator 23.0.0, SVG Export Plug-In . SVG Version: 6.00 Build 0)  -->
<svg version="1.0" id="follow_x5F_icon" xmlns="http://www.w3.org/2000/svg" xmlns:xlink="http://www.w3.org/1999/xlink" x="0px"
	 y="0px" width="50px" height="50px" viewBox="0 0 50 50" enable-background="new 0 0 50 50" xml:space="preserve">
<path id="head_right_1_" fill="#FFFFFF" d="M25.2,26.1c-4.2,0.1-7.6-3.3-7.7-7.5s3.6-7.6,8.2-7.7s8,3.2,7.6,7.5v0.1
	C33,22.6,29.4,26,25.2,26.1z"/>
<path id="body_right_1_" fill="#FFFFFF" d="M25,39.2c-3.3-0.1-6.6-1-9.5-2.6c-0.1-0.1-0.2-0.1-0.2-0.2c-1.1-0.8-1.4-2.3-0.6-3.5
	c0.9-1.3,2-2.5,3.2-3.4c2.1-1.5,4.8-2.4,7.4-2.4c4.3,0,8.2,2.2,10.4,5.9c0.1,0.1,0.1,0.2,0.2,0.2c0.2,0.6,0.3,1.3,0.1,2
	c-0.2,0.6-0.6,1.2-1.2,1.5C31.6,38.4,28.3,39.2,25,39.2L25,39.2z"/>
<g>
	<path fill="#6B6B6B" d="M20,37.6c-0.6,0-1.8,0-2.4,0.1c-0.6-0.1-0.8-0.3-1.4-0.6c0.4,0,1.1,0,1.5,0c1.2,0,2.4,0,3.6,0
		c0.3,0,0.5,0.1,0.6,0.2c0.1,0.2,0,0.2-0.4,0.3C21.1,37.6,20.5,37.6,20,37.6z M36.1,34.1c-4,0.3-16.5-0.6-20.9-2.5
		c2.6,0.2,6.6-0.1,6.7-0.1c0.9-0.1,1.7-0.2,2.6-0.3c0.7,0,1.3,0,2,0.1c0.6,0.1,5.5,0.5,8.3,0.2c-0.2-0.3-0.4-0.6-0.8-0.9
		c-2.2,0.1-4.7,0-4.9,0c0,0,0,0,0-0.1c0.2,0,2.4-0.6,3.9-1c-0.4-0.2-0.9-0.5-1.4-0.7c-3.2,0.8-7.4,1.4-8.5,1.6
		c-0.3,0.1-4.4,0.3-7.2,0.1c-0.4,0.3-0.7,0.7-1,1c0,0,0,0-0.1,0.1c-0.2,0.2-0.3,0.4-0.4,0.6c2,1,5.7,2,6.4,2.1c0,0,0,0,0,0.1
		c-1,0.1-4.6-0.2-7.2-0.5c0,0.3,0,0.6,0.1,1c2.9,0.1,6.3,0.4,7.2,0.3c1.3-0.1,2.5-0.2,3.8-0.3c0.6-0.1,1.2,0.1,1.9,0.2
		c1.3,0.2,5.3,0.2,8,0.1c-3.9,1.3-9.2,1.7-9.9,1.7c-0.5,0-1,0.1-1.5,0.1c-0.1,0-0.2,0-0.3,0c-0.3,0-0.4,0.1-0.4,0.3
		c0,0.1,0.3,0.2,0.6,0.2c0.9,0,1.8-0.1,2.8-0.1c0.5,0,6.2-0.5,9.9-1.7c0.1-0.2,0.1-0.3,0.1-0.5c0-0.2,0-0.3,0-0.5
		C36.1,34.5,36.1,34.3,36.1,34.1z M17.6,19.4c-0.3,0.1-0.5,0.2-0.8,0.3c-0.1-0.3-0.1-0.6-0.1-0.9c4.8-1.7,12.9-2.7,17.1-2.6
		c0,0.3,0.1,0.6,0.1,0.9c-1.6,0-3.7,0-6,0.3c0,0,0,0,0,0.1c2.3,0.3,4.4,0.8,6.1,1.4c0,0.3-0.1,0.6-0.1,0.9c0,0,0,0-0.1,0
		c-2.2-0.7-5.5-1.3-8.9-1.6c-0.5-0.1-1-0.2-1.4-0.1C21.4,18.4,19.2,18.8,17.6,19.4z M29.7,23c0,0.3,0.2,0.6,0.5,0.6
		c0.5,0.1,1.1,0.1,1.6,0.2c0.2-0.3,0.6-0.6,0.8-1c-0.7-0.1-1.5-0.2-2.2-0.4C30,22.5,29.7,22.7,29.7,23z M24.3,11.5
		c0-0.1-0.1-0.2-0.4-0.2c-0.1,0-0.2,0-0.2,0c-0.1,0-0.2,0-0.2,0c-0.6,0.1-1.3,0.2-1.9,0.4c0.7,0,1.4,0,2,0.1
		C24.1,11.7,24.3,11.6,24.3,11.5z M25.7,11.3c-0.3,0-0.5,0-0.5,0.2c0,0.2,0.2,0.3,0.5,0.2c1.9,0.1,4,0.2,5.9,0.5
		c-0.4-0.3-1-0.6-1.5-0.8c-0.9-0.1-1.8-0.1-2.8-0.1C26.8,11.3,26.2,11.3,25.7,11.3z M24.4,14.3c0.5-0.1,1.2,0,1.8,0.1
		c2.5,0.2,4.9,0.7,6.9,1.4c0.2,0,0.4,0.2,0.6,0.2c-0.1-0.3-0.1-0.6-0.3-1c-4.1-1.3-10.2-1.8-14.7-1.6c-0.3,0.2-0.5,0.5-0.7,0.8
		c0.2,0,0.3-0.1,0.6-0.1c0.7-0.1,1.4-0.1,2.1-0.1c-1.1,0.3-2.2,0.7-3.2,1c-0.2,0.3-0.3,0.6-0.4,1c0.2-0.1,0.5-0.2,0.8-0.3
		C19.9,15.2,22.2,14.6,24.4,14.3z M24.5,23c1.1,0.1,2.3,0.3,3.4,0.4c0.4,0.1,0.7-0.1,0.7-0.5c0-0.3-0.2-0.6-0.6-0.6
		c-1.7-0.2-3.5-0.4-5.2-0.6c-2.1-0.3-4.2-0.4-5.7-0.5c0.1,0.3,0.3,0.7,0.5,1.1c0.2,0,0.2,0,0.4,0.1C19.8,22.4,22.1,22.7,24.5,23z"/>
</g>
</svg>
