<?xml version="1.0" encoding="utf-8"?>
<!-- Generator: Adobe Illustrator 23.0.0, SVG Export Plug-In . SVG Version: 6.00 Build 0)  -->
<svg version="1.0" id="Layer_1" xmlns="http://www.w3.org/2000/svg" xmlns:xlink="http://www.w3.org/1999/xlink" x="0px" y="0px"
	 width="50px" height="50px" viewBox="0 0 50 50" enable-background="new 0 0 50 50" xml:space="preserve">
<g id="backbutton">
	<path d="M1.8,28.4C0.7,29.4,0,31,0,32.5c0,2.9,2,5,4.3,5h41.5c0.9,0,2.9,0,3.8-2c0.9-2.3,0.2-4.7-1.1-5.7L29.2,14.3
		c-2.9-2.3-6.7-2.3-9.6,0L1.8,28.4z"/>
	<path fill="#FFFFFF" d="M1.5,30.7c0,1.6,1.1,3.1,2.7,3.1h39c0.9,0,1.8-0.5,2.2-1.3c0.9-1.3,0.7-3.4-0.7-4.5L28.2,14.8
		c-2.7-2-6.3-2-9,0L2.7,28.2C1.8,28.9,1.3,29.7,1.5,30.7z"/>
</g>
</svg>
