<?xml version="1.0" encoding="utf-8"?>
<!-- Generator: Adobe Illustrator 23.0.0, SVG Export Plug-In . SVG Version: 6.00 Build 0)  -->
<svg version="1.0" id="Layer_1" xmlns="http://www.w3.org/2000/svg" xmlns:xlink="http://www.w3.org/1999/xlink" x="0px" y="0px"
	 width="50px" height="50px" viewBox="0 0 50 50" enable-background="new 0 0 50 50" xml:space="preserve">
<path opacity="0.5" enable-background="new    " d="M2.7,23.7c0.2,0.5,1,1.8,3.3,1.8h0.1c0.9,0,1.4,0,2.3,0h0.1l0,0
	c0.8,0,1.8,0.8,1.9,2c0.4,3.8,0.7,5.7,1.3,9.1v0.2c0.5,2.8,2.9,5,5.6,5h0.6c0.9,0,1.6,0,2.5,0h1.3h1.5c1.3,0,2.8,0,4,0h0.6h1.7
	c0.6,0,1.2,0,1.9,0h0.7c2.7,0,5.1-2.2,5.6-5l0.1-0.3c0.6-3.4,0.9-5.3,1.3-9c0.1-1.1,1.1-2,1.9-2l0,0c1,0,1.5,0,2.4,0.1h0.1
	c2.3,0,3.1-1.3,3.3-1.8c0.3-0.7,0.5-2-1.1-3.6c-4.8-4.8-10.5-9.1-17-12.8c-1.2-0.7-2.7-1-4.3-1c-1.6,0-3.1,0.4-4.3,1.1
	c-6.5,3.7-12.2,8-17,12.8C2.2,21.7,2.4,23,2.7,23.7z"/>
<path d="M2.7,25.6c0.2,0.5,1,1.8,3.3,1.8h0.1c1,0,1.4,0,2.4-0.1l0,0c0.8,0,1.8,0.8,1.9,2c0.4,3.8,0.7,5.7,1.3,9.1v0.2
	c0.5,2.8,2.9,5,5.6,5H18c0.9,0,1.5,0,2.3,0h1.3h1.3c1.3,0,2.9,0,4.2,0h0.7h1.8h1.8h0.8c2.7,0,5.1-2.2,5.6-5l0.1-0.3
	c0.6-3.4,0.9-5.3,1.3-9c0.1-1.1,1.1-2,1.9-2l0,0c1,0,1.5,0,2.4,0.1c0.1,0,0.1,0,0.1,0c2.3,0,3.1-1.3,3.3-1.8c0.3-0.7,0.5-2-1.1-3.6
	c-4.8-4.8-10.5-9.1-17-12.8c-1.2-0.7-2.7-1-4.3-1c-1.6,0-3.1,0.4-4.3,1.1c-6.5,3.7-12.2,8-17,12.8C2.2,23.6,2.4,25,2.7,25.6z"/>
</svg>
