<?xml version="1.0" encoding="utf-8"?>
<!-- Generator: Adobe Illustrator 23.0.0, SVG Export Plug-In . SVG Version: 6.00 Build 0)  -->
<svg version="1.0" id="follow_x5F_icon" xmlns="http://www.w3.org/2000/svg" xmlns:xlink="http://www.w3.org/1999/xlink" x="0px"
	 y="0px" width="50px" height="50px" viewBox="0 0 50 50" enable-background="new 0 0 50 50" xml:space="preserve">
<path fill="#FFFFFF" d="M24.6,26c-2.9-0.1-4.8-3-5-6.6c-0.4-3.5,1.8-6.9,5.3-7c3.5,0,5.6,2.9,5.4,6.6C29.9,23.1,27.5,26,24.6,26z
	 M24.5,37.5c-8.9-1.3-8.6-3.4-8.5-4.9c0.1-1.4,2.3-2.5,4.3-3.9c3.3-2.3,9.5-0.1,13.3,3.6c0.3,0.3,0.8,1.3,0.6,1.8s-0.4,1-0.8,1.3
	C30.9,36.8,27.8,37.8,24.5,37.5L24.5,37.5z"/>
<path fill="#6B6B6B" d="M20.6,36.1c-0.5,0-1.6,0-2.1,0.1c-0.5-0.1-0.7-0.3-1.2-0.5c0.4,0,1,0,1.3,0c1.1,0,2.1,0,3.2,0
	c0.3,0,0.4,0.1,0.5,0.2c0.1,0.2,0,0.2-0.4,0.3C21.6,36.1,21.1,36.1,20.6,36.1z M34,33c-3.3,0.3-13.1-0.4-16.3-2.1
	c2.1,0.2,4.8-0.2,4.9-0.2c0.7-0.1,1.4-0.2,2.1-0.3c0.6,0,1,0,1.6,0.1c0.5,0.1,3.5,0.5,5.7,0.3c-0.2-0.3-1-0.6-1.4-0.8
	c-1.7,0.1-2.1,0-2.3,0c0,0,0,0,0-0.1c0.2,0,0.2,0,1.3-0.4c-0.3-0.2-1-0.5-1.4-0.6c-2.4,0.7-3.8,0.8-4.7,0.9
	c-0.2,0.1-2.9,0.3-5.1,0.1c-0.3,0.3-0.9,0.6-1.2,0.9c0,0-0.6,0.5-0.7,0.7c1.5,0.9,4.4,1.7,4.9,1.8c0,0,0,0,0,0.1
	c-0.8,0.1-3.5-0.1-5.6-0.4c0,0.3,0,0.5,0,0.9c2.4,0.1,4.9,0.3,5.7,0.3c1.1-0.1,2.1-0.2,3.2-0.3c0.5-0.1,1,0.1,1.6,0.2
	c1.1,0.2,4.5,0.2,6.8,0.1c-3.1,1.2-7.8,1.5-8.4,1.5c-0.4,0-0.9,0.1-1.3,0.1c-0.1,0-0.2,0-0.3,0c-0.3,0-0.4,0.1-0.4,0.3
	c0,0.1,0.3,0.2,0.5,0.2c0.8,0,1.6-0.1,2.5-0.1c0.4,0,5.3-0.4,8.2-1.4c0.1-0.2,0.2-0.5,0.1-0.7C34.2,33.6,34.1,33.2,34,33z
	 M20.2,19.9c-0.2,0.1-0.3,0.2-0.6,0.3c0-0.3-0.1-0.5-0.1-0.8c3.3-1.5,8.1-2.4,10.7-2.3c0,0.3,0,0.5,0.1,0.8c-1,0-2,0-3.5,0.3
	c0,0,0,0,0,0.1c1.5,0.3,2.3,0.5,3.4,1c0,0.3-0.1,0.6-0.1,0.8c0,0-3.1-0.9-5.2-1.2c-0.3-0.1-0.6-0.2-0.9-0.1
	C22.7,19,21.3,19.4,20.2,19.9z M28.3,23.1c0,0.3,0.2,0.5,0.4,0.5c0.4,0.1-0.3-0.1,0.1,0c0.1-0.3,0.5-0.6,0.6-0.9
	c-0.5-0.1-0.1,0-0.6-0.2C28.5,22.7,28.3,22.9,28.3,23.1z M24.6,12.9c0-0.1-0.1-0.2-0.2-0.2c-0.1,0-0.1,0-0.1,0
	c-0.1,0-0.7-0.2-0.7-0.2c-0.3,0.1-0.8,0.3-1.2,0.5c0.4,0,1.5,0.1,1.9,0.2C24.5,13.1,24.6,13,24.6,12.9z M25.4,12.7
	c-0.2,0-0.3,0-0.3,0.2c0,0.2,0.1,0.3,0.3,0.2c1.1,0.1,1.8,0.1,2.9,0.3c-0.3-0.3-0.7-0.5-1-0.7c-0.5-0.1-0.4,0-1,0
	C26,12.7,25.7,12.7,25.4,12.7z M24.6,15.4c0.3-0.1,0.7,0,1.1,0.1c1.5,0.2,4.4,1.4,4.5,1.4c-0.1-0.3-0.1-0.5-0.3-0.9
	c-2.6-1.2-6.6-1.5-9.3-1.3c-0.2,0.2-0.4,0.6-0.5,0.9c0.1,0,0.9-0.3,1-0.3c0.4-0.1,0.8-0.1,1.3-0.1c-0.7,0.3-1.9,0.8-2.5,1.1
	c-0.1,0.3-0.2,0.6-0.3,1c0.1-0.1,0.9-0.5,1-0.5C21.9,16.2,23.3,15.7,24.6,15.4z M24.7,23.1c0.8,0.1,1.6,0.3,2.4,0.4
	c0.3,0.1,0.5-0.1,0.5-0.4c0-0.3-0.2-0.5-0.4-0.5c-1.2-0.2-2.4-0.4-3.6-0.5c-1.4-0.3-2.7-0.3-3.7-0.4c0,0.3,0.2,0.6,0.3,1
	C20.3,22.5,23,22.9,24.7,23.1z"/>
</svg>
