<?xml version="1.0" encoding="utf-8"?>
<!-- Generator: Adobe Illustrator 23.0.0, SVG Export Plug-In . SVG Version: 6.00 Build 0)  -->
<svg version="1.0" id="Layer_1" xmlns="http://www.w3.org/2000/svg" xmlns:xlink="http://www.w3.org/1999/xlink" x="0px" y="0px"
	 width="50px" height="50px" viewBox="0 0 50 50" enable-background="new 0 0 50 50" xml:space="preserve">
<g id="backbutton">
	<path d="M48.2,21.7c1.1-1.1,1.8-2.6,1.8-4.2c0-2.9-2-5-4.3-5H4.2c-0.9,0-2.9,0-3.8,2.1c-0.9,2.3-0.2,4.7,1.1,5.8l19.3,15.4
		c2.9,2.3,6.7,2.3,9.6,0L48.2,21.7z"/>
	<path fill="#FFFFFF" d="M47.2,19.3c0-1.6-1.1-3.1-2.7-3.1h-39c-0.9,0-1.8,0.5-2.2,1.3C2.4,18.7,2.6,20.9,4,22l16.5,13.4
		c2.7,2.1,6.3,2.1,9,0L46.1,22C47,21.2,47.5,20.4,47.2,19.3z"/>
</g>
</svg>
