<?xml version="1.0" encoding="utf-8"?>
<!-- Generator: Adobe Illustrator 23.0.0, SVG Export Plug-In . SVG Version: 6.00 Build 0)  -->
<svg version="1.0" id="Layer_1" xmlns="http://www.w3.org/2000/svg" xmlns:xlink="http://www.w3.org/1999/xlink" x="0px" y="0px"
	 width="50px" height="50px" viewBox="0 0 50 50" enable-background="new 0 0 50 50" xml:space="preserve">
<path opacity="0.5" enable-background="new    " d="M26.1,2.9c-0.5,0.2-1.8,1-1.8,3.3v0.1c0,0.9,0,1.4,0,2.3v0.1l0,0
	c0,0.8-0.8,1.8-2,1.9c-3.8,0.4-5.7,0.7-9.1,1.3H13c-2.8,0.5-5,2.9-5,5.6v0.6c0,0.9,0,1.6,0,2.5v1.3v1.5c0,1.3,0,2.8,0,4V28v1.7
	c0,0.6,0,1.2,0,1.9v0.7c0,2.7,2.2,5.1,5,5.6l0.3,0.1c3.4,0.6,5.3,0.9,9,1.3c1.1,0.1,2,1.1,2,1.9l0,0c0,1,0,1.5-0.1,2.4v0.1
	c0,2.3,1.3,3.1,1.8,3.3c0.7,0.3,2,0.5,3.6-1.1c4.8-4.8,9.1-10.5,12.8-17c0.7-1.2,1-2.7,1-4.3c0-1.6-0.4-3.1-1.1-4.3
	c-3.7-6.5-8-12.2-12.8-17C28.1,2.4,26.8,2.6,26.1,2.9z"/>
<path d="M24.2,2.9c-0.5,0.2-1.8,1-1.8,3.3v0.1c0,1,0,1.4,0.1,2.4l0,0c0,0.8-0.8,1.8-2,1.9c-3.8,0.4-5.7,0.7-9.1,1.3h-0.2
	c-2.8,0.5-5,2.9-5,5.6v0.7c0,0.9,0,1.5,0,2.3v1.3v1.3c0,1.3,0,2.9,0,4.2V28v1.8v1.8v0.8c0,2.7,2.2,5.1,5,5.6l0.3,0.1
	c3.4,0.6,5.3,0.9,9,1.3c1.1,0.1,2,1.1,2,1.9l0,0c0,1,0,1.5-0.1,2.4c0,0.1,0,0.1,0,0.1c0,2.3,1.3,3.1,1.8,3.3c0.7,0.3,2,0.5,3.6-1.1
	c4.8-4.8,9.1-10.5,12.8-17c0.7-1.2,1-2.7,1-4.3c0-1.6-0.4-3.1-1.1-4.3c-3.7-6.5-8-12.2-12.8-17C26.2,2.4,24.8,2.6,24.2,2.9z"/>
<path fill="#F9BF00" d="M23.3,6.3c0,1,0,1.4,0.1,2.4c0,1.9-1.6,3.7-3.7,3.9c-3.8,0.4-5.7,0.7-9.2,1.3c-1.9,0.3-3.4,2-3.4,3.7
	s0,2.6,0,4.4c0,1.7,0,4.5,0,6.2s0,2.6,0,4.4c0,1.7,1.5,3.4,3.4,3.7c3.5,0.6,5.4,0.9,9.2,1.3c2.1,0.2,3.7,2,3.7,3.9
	c0,1,0,1.5-0.1,2.4c0,1.8,0.9,2.2,2.1,1c4.9-4.9,9-10.6,12.5-16.6c1.1-1.8,1.1-4.8,0-6.6c-3.5-6-7.6-11.7-12.5-16.6
	C24.2,4.1,23.3,4.6,23.3,6.3z"/>
</svg>
