<?xml version="1.0" encoding="utf-8"?>
<!-- Generator: Adobe Illustrator 23.0.0, SVG Export Plug-In . SVG Version: 6.00 Build 0)  -->
<svg version="1.0" id="Layer_1" xmlns="http://www.w3.org/2000/svg" xmlns:xlink="http://www.w3.org/1999/xlink" x="0px" y="0px"
	 width="50px" height="50px" viewBox="0 0 50 50" enable-background="new 0 0 50 50" xml:space="preserve">
<g id="backbutton">
	<path d="M21.7,1.8C20.6,0.7,19,0,17.5,0c-2.9,0-5,2-5,4.3v41.5c0,0.9,0,2.9,2.1,3.8c2.3,0.9,4.7,0.2,5.8-1.1l15.4-19.3
		c2.3-2.9,2.3-6.7,0-9.6L21.7,1.8z"/>
	<path fill="#FFFFFF" d="M19.3,1.7c-1.6,0-3.1,1.1-3.1,2.7v39c0,0.9,0.5,1.8,1.3,2.2c1.3,0.9,3.4,0.7,4.5-0.7l13.3-16.5
		c2.1-2.7,2.1-6.3,0-9L21.9,2.8C21.1,1.9,20.3,1.5,19.3,1.7z"/>
</g>
</svg>
