<?xml version="1.0" encoding="utf-8"?>
<!-- Generator: Adobe Illustrator 23.0.0, SVG Export Plug-In . SVG Version: 6.00 Build 0)  -->
<svg version="1.0" id="Layer_1" xmlns="http://www.w3.org/2000/svg" xmlns:xlink="http://www.w3.org/1999/xlink" x="0px" y="0px"
	 width="50px" height="50px" viewBox="0 0 50 50" enable-background="new 0 0 50 50" xml:space="preserve">
<path opacity="0.5" enable-background="new    " d="M46.9,26.3c-0.2-0.5-1-1.8-3.3-1.8h-0.1c-0.9,0-1.4,0-2.3,0h-0.1l0,0
	c-0.8,0-1.8-0.8-1.9-2c-0.4-3.8-0.7-5.7-1.3-9.1v-0.2c-0.5-2.8-2.9-5-5.6-5h-0.6c-0.9,0-1.6,0-2.5,0h-1.3h-1.5c-1.3,0-2.8,0-4,0
	h-0.6h-1.7c-0.6,0-1.2,0-1.9,0h-0.7c-2.7,0-5.1,2.2-5.6,5l-0.1,0.3c-0.6,3.4-0.9,5.3-1.3,9c-0.1,1.1-1.1,2-1.9,2l0,0
	c-1,0-1.5,0-2.4-0.1H6.1c-2.3,0-3.1,1.3-3.3,1.8c-0.3,0.7-0.5,2,1.1,3.6c4.8,4.8,10.5,9.1,17,12.8c1.2,0.7,2.7,1,4.3,1
	s3.1-0.4,4.3-1.1c6.5-3.7,12.2-8,17-12.8C47.4,28.3,47.2,27,46.9,26.3z"/>
<path d="M46.9,24.4c-0.2-0.5-1-1.8-3.3-1.8h-0.1c-1,0-1.4,0-2.4,0.1l0,0c-0.8,0-1.8-0.8-1.9-2c-0.4-3.8-0.7-5.7-1.3-9.1v-0.2
	c-0.5-2.8-2.9-5-5.6-5h-0.7c-0.9,0-1.5,0-2.3,0H28h-1.3c-1.3,0-2.9,0-4.2,0h-0.7H20h-1.8h-0.8c-2.7,0-5.1,2.2-5.6,5l-0.1,0.3
	c-0.6,3.4-0.9,5.3-1.3,9c-0.1,1.1-1.1,2-1.9,2l0,0c-1,0-1.5,0-2.4-0.1c-0.1,0-0.1,0-0.1,0c-2.3,0-3.1,1.3-3.3,1.8
	c-0.3,0.7-0.5,2,1.1,3.6c4.8,4.8,10.5,9.1,17,12.8c1.2,0.7,2.7,1,4.3,1s3.1-0.4,4.3-1.1c6.5-3.7,12.2-8,17-12.8
	C47.4,26.4,47.2,25,46.9,24.4z"/>
</svg>
