<?xml version="1.0" encoding="utf-8"?>
<!-- Generator: Adobe Illustrator 23.0.0, SVG Export Plug-In . SVG Version: 6.00 Build 0)  -->
<svg version="1.0" id="Layer_1" xmlns="http://www.w3.org/2000/svg" xmlns:xlink="http://www.w3.org/1999/xlink" x="0px" y="0px"
	 viewBox="0 0 50 50" enable-background="new 0 0 50 50" xml:space="preserve">
<path fill="#FF9201" d="M25.1,44.1c-6.9-0.2-10.5-1.2-15.3-3.6c-2.5-1.3-4.9-2.9-7-4.8c-0.2-0.2-0.3-0.4-0.2-0.6
	c0.2-0.2,0.4-0.1,0.6,0c1.6,0.8,3.2,1.6,4.8,2.4c2.9,1.3,7.5,3.3,15,3.6s12.4-1,16.3-2.3c1.1-0.4,2.1-0.8,3.1-1.2
	c0.5-0.2,1.1,0.1,1,0.6c0,0.2-0.2,0.4-0.4,0.6C38.3,42.2,32.1,44.3,25.1,44.1z"/>
<path fill="#FF9201" d="M42.4,35.7c-1,0-3.1,0.4-3.3,0.2s2-1.4,3-1.6c1.5-0.3,3-0.3,4.4,0c0.8,0.2,1,0.4,0.9,1.2
	c-0.1,2.1-0.8,4-2,5.6c-0.3,0.4-0.6,0.7-1,1c-0.1,0.1-0.3,0.1-0.5,0.1c0-0.1-0.1-0.3,0-0.4c0.4-1.3,0.8-2.5,1.3-3.9s0.1-1.9-0.8-2.1
	C44,35.7,43.5,35.7,42.4,35.7z"/>
<path d="M37.3,30.5c-0.1-0.4-0.4-0.8-0.6-1.1c-0.9-1.2-1.5-2.5-1.5-4c0-1.9,0-3.7,0-5.6l0,0c0-0.3,0-0.6,0-0.8c0-2,0-4-0.2-6.1
	c-0.2-2.8-1.8-4.8-4.4-5.8C27,5.6,23.3,5.7,19.6,7c-3.2,1.1-5.3,3.4-5.9,6.8c-0.1,0.5,0.3,1,0.8,1.1c1.5,0.2,3,0.3,4.5,0.5
	c0.7,0.1,1.1-0.2,1.3-0.9c0.2-0.7,0.5-1.4,1-1.9c1-0.9,2.2-1.2,3.6-1.1c1.5,0.1,2.6,1,2.9,2.4c0.2,1,0.1,2.1,0.2,3.2l-0.1,0.1
	c-1.4,0.2-2.8,0.3-4.2,0.5c-1.7,0.2-3.4,0.5-5,1.1c-2.2,0.9-4,2.3-5,4.5c-0.9,1.8-1,3.7-0.7,5.7c0.3,1.7,1,3.2,2.3,4.4
	c1.5,1.3,3.3,1.8,5.3,1.8c1.7,0,3.3-0.2,4.8-0.9c1.4-0.7,2.5-1.6,3.5-2.7h0.2c0.8,1.2,1.6,2.2,2.7,3.1c0.5,0.4,1,0.4,1.4,0
	c1.3-1.1,2.6-2.2,3.9-3.4C37.2,31,37.4,30.7,37.3,30.5z M27.4,26.6c-0.5,1.3-1.3,2.5-2.7,3c-2.1,0.9-4.1-0.3-4.4-2.5
	c-0.2-1.3-0.1-2.6,0.8-3.8c0.7-1,1.8-1.5,2.9-1.8c1.2-0.3,2.5-0.4,3.8-0.4l0.1,0.1c0,0.5,0,1,0,1.5C27.9,24,27.9,25.3,27.4,26.6z"/>
</svg>
