<?xml version="1.0" encoding="utf-8"?>
<!-- Generator: Adobe Illustrator 23.0.0, SVG Export Plug-In . SVG Version: 6.00 Build 0)  -->
<svg version="1.0" id="Layer_1" xmlns="http://www.w3.org/2000/svg" xmlns:xlink="http://www.w3.org/1999/xlink" x="0px" y="0px"
	 width="50px" height="50px" viewBox="0 0 50 50" enable-background="new 0 0 50 50" xml:space="preserve">
<g id="backbutton">
	<path d="M28.4,48.2c1.1,1.1,2.6,1.8,4.2,1.8c2.9,0,5-2,5-4.3V4.2c0-0.9,0-2.9-2-3.8c-2.3-0.9-4.7-0.2-5.7,1.1L14.3,20.8
		c-2.3,2.9-2.3,6.7,0,9.6L28.4,48.2z"/>
	<path fill="#FFFFFF" d="M30.7,48.1c1.6,0,3.1-1.1,3.1-2.7v-39c0-0.9-0.5-1.8-1.3-2.2c-1.3-0.9-3.4-0.7-4.5,0.7L14.7,21.4
		c-2,2.7-2,6.3,0,9L28.1,47C28.8,47.9,29.6,48.3,30.7,48.1z"/>
</g>
</svg>
