<?xml version="1.0" encoding="utf-8"?>
<!-- Generator: Adobe Illustrator 23.0.0, SVG Export Plug-In . SVG Version: 6.00 Build 0)  -->
<svg version="1.0" id="Layer_1" xmlns="http://www.w3.org/2000/svg" xmlns:xlink="http://www.w3.org/1999/xlink" x="0px" y="0px"
	 width="50px" height="50px" viewBox="0 0 50 50" enable-background="new 0 0 50 50" xml:space="preserve">
<path opacity="0.5" enable-background="new    " d="M46.9,26.3c-0.2-0.5-1-1.8-3.3-1.8h-0.1c-0.9,0-1.4,0-2.3,0h-0.1l0,0
	c-0.8,0-1.8-0.8-1.9-2c-0.4-3.8-0.7-5.7-1.3-9.1v-0.2c-0.5-2.8-2.9-5-5.6-5h-0.6c-0.9,0-1.6,0-2.5,0h-1.3h-1.5c-1.3,0-2.8,0-4,0
	h-0.6h-1.7c-0.6,0-1.2,0-1.9,0h-0.7c-2.7,0-5.1,2.2-5.6,5l-0.1,0.3c-0.6,3.4-0.9,5.3-1.3,9c-0.1,1.1-1.1,2-1.9,2l0,0
	c-1,0-1.5,0-2.4-0.1H6.1c-2.3,0-3.1,1.3-3.3,1.8c-0.3,0.7-0.5,2,1.1,3.6c4.8,4.8,10.5,9.1,17,12.8c1.2,0.7,2.7,1,4.3,1
	s3.1-0.4,4.3-1.1c6.5-3.7,12.2-8,17-12.8C47.4,28.3,47.2,27,46.9,26.3z"/>
<path d="M46.9,24.4c-0.2-0.5-1-1.8-3.3-1.8h-0.1c-1,0-1.4,0-2.4,0.1l0,0c-0.8,0-1.8-0.8-1.9-2c-0.4-3.8-0.7-5.7-1.3-9.1v-0.2
	c-0.5-2.8-2.9-5-5.6-5h-0.7c-0.9,0-1.5,0-2.3,0H28h-1.3c-1.3,0-2.9,0-4.2,0h-0.7H20h-1.8h-0.8c-2.7,0-5.1,2.2-5.6,5l-0.1,0.3
	c-0.6,3.4-0.9,5.3-1.3,9c-0.1,1.1-1.1,2-1.9,2l0,0c-1,0-1.5,0-2.4-0.1c-0.1,0-0.1,0-0.1,0c-2.3,0-3.1,1.3-3.3,1.8
	c-0.3,0.7-0.5,2,1.1,3.6c4.8,4.8,10.5,9.1,17,12.8c1.2,0.7,2.7,1,4.3,1s3.1-0.4,4.3-1.1c6.5-3.7,12.2-8,17-12.8
	C47.4,26.4,47.2,25,46.9,24.4z"/>
<path fill="#FFFFFF" d="M43.5,23.5c-1,0-1.4,0-2.4,0.1c-1.9,0-3.7-1.6-3.9-3.7c-0.4-3.8-0.7-5.7-1.3-9.2c-0.3-1.9-2-3.4-3.7-3.4
	s-2.6,0-4.4,0c-1.7,0-4.5,0-6.2,0s-2.6,0-4.4,0c-1.7,0-3.4,1.5-3.7,3.4c-0.6,3.5-0.9,5.4-1.3,9.2c-0.2,2.1-2,3.7-3.9,3.7
	c-1,0-1.5,0-2.4-0.1c-1.8,0-2.2,0.9-1,2.1c4.9,4.9,10.6,9,16.6,12.5c1.8,1.1,4.8,1.1,6.6,0c6-3.5,11.7-7.6,16.6-12.5
	C45.7,24.4,45.2,23.5,43.5,23.5z"/>
<path opacity="0.5" enable-background="new    " d="M29,7.7c0.8,0,1.5,0,2.5,0h0.6c1.5,0,3,1.4,3.2,3v0.2c0.6,3.4,0.9,5.3,1.3,9
	c0.3,2.3,2.2,4.1,4.3,4.1H41c1,0,1.5,0,2.4-0.1h0.1c0.7,0,1,0.2,1.1,0.3c0.1,0.2-0.1,0.5-0.5,1c-4.7,4.6-10.2,8.8-16.5,12.4
	c-0.8,0.5-1.9,0.7-3,0.7c-1.2,0-2.2-0.3-3.1-0.7C15.2,34,9.7,29.8,5,25.2c-0.5-0.5-0.6-0.8-0.5-1C4.6,24.2,5,24,5.6,24h0.1
	c1,0,1.4,0,2.4,0.1h0.1c2.1,0,4.1-1.9,4.3-4.1c0.4-3.7,0.7-5.5,1.3-8.9l0.1-0.3c0.3-1.7,1.7-3,3.2-3h0.7c0.7,0,1.3,0,1.9,0h1.7h0.5
	c1.2,0,2.9,0,4.3,0h1.5L29,7.7 M29,7.2c-0.4,0-0.8,0-1.3,0c-1.6,0-4,0-5.7,0c-0.2,0-0.3,0-0.5,0c-1.5,0-2.3,0-3.6,0
	c-0.2,0-0.5,0-0.7,0c-1.7,0-3.4,1.5-3.7,3.4c-0.6,3.5-0.9,5.4-1.3,9.2c-0.2,2-2,3.7-3.9,3.7c0,0,0,0-0.1,0c-1,0-1.5,0-2.4-0.1H5.7
	c-1.7,0-2.1,0.9-0.9,2.1c4.9,4.9,10.6,9,16.6,12.5c0.9,0.5,2.1,0.8,3.3,0.8c1.2,0,2.4-0.3,3.3-0.8c6-3.5,11.7-7.6,16.6-12.5
	c1.2-1.2,0.8-2.1-0.9-2.1h-0.1c-1,0-1.4,0-2.4,0.1c0,0,0,0-0.1,0c-1.9,0-3.6-1.7-3.8-3.7c-0.4-3.8-0.7-5.7-1.3-9.2
	c-0.3-1.9-2-3.4-3.7-3.4C30.8,7.2,30,7.2,29,7.2L29,7.2z"/>
</svg>
