<?xml version="1.0" encoding="utf-8"?>
<!-- Generator: Adobe Illustrator 23.0.0, SVG Export Plug-In . SVG Version: 6.00 Build 0)  -->
<svg version="1.0" id="Layer_1" xmlns="http://www.w3.org/2000/svg" xmlns:xlink="http://www.w3.org/1999/xlink" x="0px" y="0px"
	 viewBox="0 0 50 50" enable-background="new 0 0 50 50" xml:space="preserve">
<path opacity="0.5" enable-background="new    " d="M23.5,47.1c0.5-0.2,1.8-1,1.8-3.3v-0.1c0-0.9,0-1.4,0-2.3v-0.1l0,0
	c0-0.8,0.8-1.8,2-1.9c3.8-0.4,5.7-0.7,9.1-1.3h0.2c2.8-0.5,5-2.9,5-5.6v-0.6c0-0.9,0-1.6,0-2.5v-1.3v-1.5c0-1.3,0-2.8,0-4V22v-1.7
	c0-0.6,0-1.2,0-1.9v-0.7c0-2.7-2.2-5.1-5-5.6L36.3,12c-3.4-0.6-5.3-0.9-9-1.3c-1.1-0.1-2-1.1-2-1.9l0,0c0-1,0-1.5,0.1-2.4V6.3
	c0-2.3-1.3-3.1-1.8-3.3c-0.7-0.3-2-0.5-3.6,1.1c-4.8,4.8-9.1,10.5-12.8,17c-0.7,1.2-1,2.7-1,4.3c0,1.6,0.4,3.1,1.1,4.3
	c3.7,6.5,8,12.2,12.8,17C21.5,47.6,22.8,47.4,23.5,47.1z"/>
<path d="M25.4,47.1c0.5-0.2,1.8-1,1.8-3.3v-0.1c0-1,0-1.4-0.1-2.4l0,0c0-0.8,0.8-1.8,2-1.9c3.8-0.4,5.7-0.7,9.1-1.3h0.2
	c2.8-0.5,5-2.9,5-5.6v-0.7c0-0.9,0-1.5,0-2.3v-1.3v-1.3c0-1.3,0-2.9,0-4.2V22v-1.8v-1.8v-0.8c0-2.7-2.2-5.1-5-5.6l-0.3-0.1
	c-3.4-0.6-5.3-0.9-9-1.3c-1.1-0.1-2-1.1-2-1.9l0,0c0-1,0-1.5,0.1-2.4c0-0.1,0-0.1,0-0.1c0-2.3-1.3-3.1-1.8-3.3
	c-0.7-0.3-2-0.5-3.6,1.1C17,8.8,12.7,14.5,9,21c-0.7,1.2-1,2.7-1,4.3c0,1.6,0.4,3.1,1.1,4.3c3.7,6.5,8,12.2,12.8,17
	C23.4,47.6,24.8,47.4,25.4,47.1z"/>
<path fill="#FFFFFF" d="M26.3,43.7c0-1,0-1.4-0.1-2.4c0-1.9,1.6-3.7,3.7-3.9c3.8-0.4,5.7-0.7,9.2-1.3c1.9-0.3,3.4-2,3.4-3.7
	s0-2.6,0-4.4c0-1.7,0-4.5,0-6.2s0-2.6,0-4.4c0-1.7-1.5-3.4-3.4-3.7c-3.5-0.6-5.4-0.9-9.2-1.3c-2.1-0.2-3.7-2-3.7-3.9
	c0-1,0-1.5,0.1-2.4c0-1.8-0.9-2.2-2.1-1c-4.9,4.9-9,10.6-12.5,16.6c-1.1,1.8-1.1,4.8,0,6.6c3.5,6,7.6,11.7,12.5,16.6
	C25.4,45.9,26.3,45.4,26.3,43.7z"/>
<linearGradient id="SVGID_1_" gradientUnits="userSpaceOnUse" x1="24.9" y1="11.0826" x2="24.9" y2="42.7846" gradientTransform="matrix(-6.123234e-17 -1 1 -6.123234e-17 -0.2237 49.7763)">
	<stop  offset="0" style="stop-color:#FFFFFF;stop-opacity:0.8"/>
	<stop  offset="7.370000e-02" style="stop-color:#DEDEDE;stop-opacity:0.7705"/>
	<stop  offset="0.2168" style="stop-color:#A4A4A4;stop-opacity:0.7133"/>
	<stop  offset="0.36" style="stop-color:#727272;stop-opacity:0.656"/>
	<stop  offset="0.4999" style="stop-color:#494949;stop-opacity:0.6"/>
	<stop  offset="0.6359" style="stop-color:#292929;stop-opacity:0.5456"/>
	<stop  offset="0.7669" style="stop-color:#121212;stop-opacity:0.4932"/>
	<stop  offset="0.8907" style="stop-color:#050505;stop-opacity:0.4437"/>
	<stop  offset="1" style="stop-color:#000000;stop-opacity:0.4"/>
</linearGradient>
<path fill="url(#SVGID_1_)" d="M42.1,29.2c0,0.8,0,1.5,0,2.5v0.6c0,1.5-1.4,3-3,3.2h-0.2c-3.4,0.6-5.3,0.9-9,1.3
	c-2.3,0.3-4.1,2.2-4.1,4.3v0.1c0,1,0,1.5,0.1,2.4v0.1c0,0.7-0.2,1-0.3,1.1c-0.2,0.1-0.5-0.1-1-0.5c-4.6-4.7-8.8-10.2-12.4-16.5
	c-0.5-0.8-0.7-1.9-0.7-3c0-1.2,0.3-2.2,0.7-3.1C15.8,15.4,20,9.9,24.6,5.2c0.5-0.5,0.8-0.6,1-0.5c0,0.1,0.2,0.5,0.2,1.1v0.1
	c0,1,0,1.4-0.1,2.4v0.1c0,2.1,1.9,4.1,4.1,4.3c3.7,0.4,5.5,0.7,8.9,1.3l0.3,0.1c1.7,0.3,3,1.7,3,3.2V18c0,0.7,0,1.3,0,1.9v1.7v0.5
	c0,1.2,0,2.9,0,4.3v1.5L42.1,29.2 M42.6,29.2c0-0.4,0-0.8,0-1.3c0-1.6,0-4,0-5.7c0-0.2,0-0.3,0-0.5c0-1.5,0-2.3,0-3.6
	c0-0.2,0-0.5,0-0.7c0-1.7-1.5-3.4-3.4-3.7c-3.5-0.6-5.4-0.9-9.2-1.3c-2-0.2-3.7-2-3.7-3.9c0,0,0,0,0-0.1c0-1,0-1.5,0.1-2.4V5.9
	c0-1.7-0.9-2.1-2.1-0.9c-4.9,4.9-9,10.6-12.5,16.6c-0.5,0.9-0.8,2.1-0.8,3.3c0,1.2,0.3,2.4,0.8,3.3c3.5,6,7.6,11.7,12.5,16.6
	c1.2,1.2,2.1,0.8,2.1-0.9v-0.1c0-1,0-1.4-0.1-2.4c0,0,0,0,0-0.1c0-1.9,1.7-3.6,3.7-3.8c3.8-0.4,5.7-0.7,9.2-1.3
	c1.9-0.3,3.4-2,3.4-3.7C42.6,31,42.6,30.2,42.6,29.2L42.6,29.2z"/>
</svg>
