<?xml version="1.0" encoding="utf-8"?>
<!-- Generator: Adobe Illustrator 23.0.0, SVG Export Plug-In . SVG Version: 6.00 Build 0)  -->
<svg version="1.0" id="follow_x5F_icon" xmlns="http://www.w3.org/2000/svg" xmlns:xlink="http://www.w3.org/1999/xlink" x="0px"
	 y="0px" width="50px" height="50px" viewBox="0 0 50 50" enable-background="new 0 0 50 50" xml:space="preserve">
<g>
	<path opacity="0.25" enable-background="new    " d="M40.9,10.5C40.5,10,40,9.9,39.3,9.8s-1.2-0.1-2-0.2c0-0.2-0.1-0.9-0.1-1.1
		c0-0.4-0.1-0.9-0.1-1.5c0-0.5-0.4-1-0.7-1.2c-0.4-0.3-1-0.4-1.5-0.4c-1.6,0-2.5,0-4.1,0c-0.5,0-1.1,0.1-1.5,0.4
		c-0.4,0.4-0.7,0.7-0.7,1.2c0,0.6-0.1,1.1-0.1,1.5c0,0.2-0.1,0.8-0.1,1.1c-0.8,0-1.4,0-1.9,0s-0.9,0.2-1.2,0.4s-0.5,0.4-0.9,0.8
		S24,11.9,24,12.4l0,0c0,1.6,0,2.4,0,3.9l0,0l0,0c0,0.5,0.1,1.1,0.4,1.4c0.3,0.4,0.7,0.7,1.2,0.8c1,0.1,1.5,0.2,2.7,0.3
		c0,0.1,0.2,2.1,0.3,2.7c0,0.4,0.3,0.9,0.7,1.2c0.4,0.4,1,0.4,1.5,0.4c1.8,0,2.4,0,4.1,0c0.6,0,1.2-0.2,1.5-0.4
		c0.4-0.4,0.6-0.7,0.7-1.2c0.1-0.7,0.3-2.7,0.3-2.7c1.2-0.1,1.8-0.1,2.7-0.3c0.5,0,1-0.4,1.2-0.8c0.3-0.4,0.4-0.9,0.4-1.4l0,0l0,0
		c0-1.6,0-2.4,0-3.9l0,0C41.7,11.5,41.6,11.3,40.9,10.5z"/>
	<path fill="#FFFFFF" d="M31,21.2c-0.4,0-0.7-0.1-0.9-0.3c-0.3-0.2-0.4-0.4-0.4-0.7c-0.1-1.1-0.2-1.8-0.2-3.2l0,0l0,0
		c-1.3,0-2-0.1-3.1-0.2c-0.4,0-0.6-0.2-0.8-0.4c-0.2-0.3-0.3-0.6-0.3-0.9c0-1.4,0-2.1,0-3.6c0-0.4,0.1-0.7,0.4-1
		c0.2-0.3,0.4-0.4,0.7-0.4c1.1-0.1,1.8-0.2,3.1-0.2l0,0l0,0c0.1-1.4,0.1-2,0.2-3.2c0-0.4,0.2-0.6,0.4-0.8C30.4,6.1,30.6,6,31,6
		c1.5,0,2.3,0,3.8,0c0.4,0,0.7,0.2,1,0.3c0.2,0,0.3,0.3,0.4,0.7c0.1,1.2,0.2,1.8,0.2,3.2l0,0c1.3,0,2,0.1,3.1,0.2
		c0.4,0,0.6,0.3,0.7,0.4c0.1,0.2,0.3,0.4,0.3,1c0,1.4,0,2.1,0,3.6c0,0.4-0.1,0.6-0.3,0.9s-0.4,0.4-0.8,0.4c-1.1,0.1-1.8,0.2-3.1,0.2
		l0,0l-0.2,3.2c0,0.3-0.2,0.5-0.4,0.7c-0.3,0.2-0.6,0.4-1,0.4C33.2,21.2,32.5,21.2,31,21.2z"/>
</g>
<g>
	<path opacity="0.25" enable-background="new    " d="M28.3,23.8c-0.7-0.6-1.2-1.4-1.2-2.2c0-0.3-0.1-0.9-0.2-1.5
		c-0.2,0-0.3,0-0.4-0.1c-0.3,0-0.6-0.1-1-0.1l-0.1,0c-0.8-0.2-1.5-0.6-2-1.3c-0.6-0.7-0.8-1.7-0.8-2.4v-3.9c0-0.6,0-1.7,0.8-2.6
		c0.1-0.1,0.1-0.1,0.2-0.2l0,0l0.1-0.1c0.2-0.2,0.4-0.5,1-0.8c0.7-0.4,1.2-0.5,1.7-0.5c0.2,0,0.6-0.1,0.7-0.1c0-0.1,0-0.3,0-0.5
		c0-0.2,0-0.5,0-0.8c0,0,0,0,0,0c-0.5-0.5-1.2-0.7-1.8-0.6c-1.4,0.2-11.8,2.4-13.5,2.9s-2.3,1.6-2.3,3.1c0,3.3,3.1,18,6.5,29.4
		c0.7,2.5,3.3,4,5.6,2.9c2.3-1.1,8.8-3.6,11.1-4.7s3.9-3.6,3.2-5.3c-1.2-3.7-2.2-7.1-3.2-10.1h-1.9C30.2,24.6,29.1,24.6,28.3,23.8z"
		/>
</g>
<g>
	<path fill="none" d="M28.9,32.4c-1.9,0.8-3.1,2.8-2.7,4.4c0.4,1.6,2.6,2.6,4.4,1.8c1.8-0.8,3.2-2.7,2.7-4.4
		C32.9,32.5,30.8,31.6,28.9,32.4z"/>
	<path fill="#FFFFFF" d="M28.3,23.8c-0.7-0.6-1.2-1.4-1.2-2.2c0-0.3-0.1-0.9-0.2-1.5c-0.2,0-0.3,0-0.4-0.1c-0.3,0-0.6-0.1-1-0.1
		l-0.1,0c-0.8-0.2-1.5-0.6-2-1.3c-0.6-0.7-0.8-1.7-0.8-2.4v-3.9c0-0.6,0-1.7,0.8-2.6c0.1-0.1,0.1-0.1,0.2-0.2l0,0l0.1-0.1
		c0.2-0.2,0.4-0.5,1-0.8c0.7-0.4,1.2-0.5,1.7-0.5c0.2,0,0.6-0.1,0.7-0.1c0,0,0,0,0-0.1c0-0.1-0.1-0.3-0.1-0.4
		C26.6,6.2,25.4,4.8,24,5c-5.1,0.7-12.3,2.4-13.5,2.9s-2.2,1.7-2.2,3.5c0,5.1,4.9,26.2,6.2,29.4s3.4,3.8,5.6,3.1
		c4.4-1.5,6.7-2.7,11.1-4.4c2.1-1.1,3.4-3.1,2.7-5.6c-0.3-1.2-1.3-4.7-2.5-9.3h-0.6C30.2,24.6,29.1,24.6,28.3,23.8z M33.3,34.2
		c0.5,1.7-0.9,3.6-2.7,4.4c-1.8,0.8-4-0.2-4.4-1.8c-0.4-1.6,0.8-3.6,2.7-4.4C30.8,31.6,32.9,32.5,33.3,34.2z"/>
</g>
</svg>
