<?xml version="1.0" encoding="utf-8"?>
<!-- Generator: Adobe Illustrator 23.0.0, SVG Export Plug-In . SVG Version: 6.00 Build 0)  -->
<svg version="1.0" id="i_back" xmlns="http://www.w3.org/2000/svg" xmlns:xlink="http://www.w3.org/1999/xlink" x="0px" y="0px"
	 width="50px" height="50px" viewBox="0 0 50 50" enable-background="new 0 0 50 50" xml:space="preserve">
<g id="backbutton">
	<path d="M23,14.7c-0.5-0.5-1.4-0.8-2.2-0.8c-1.5,0-2.6,0.9-2.6,1.9v18.5c0,0.4,0,1.3,1.1,1.7c1.2,0.4,2.4,0.1,3-0.5l8-8.6
		c1.2-1.3,1.2-3,0-4.3L23,14.7z"/>
	<path fill="#FFFFFF" d="M21.3,14.3c-0.9,0-1.9,0.5-1.9,1.2v17.4c0,0.4,0.3,0.8,0.8,1c0.8,0.4,2,0.3,2.7-0.3l8-7.4
		c1.3-1.2,1.3-2.8,0-4l-8-7.4C22.4,14.4,21.9,14.2,21.3,14.3z"/>
</g>
</svg>
