<?xml version="1.0" encoding="utf-8"?>
<!-- Generator: Adobe Illustrator 23.0.0, SVG Export Plug-In . SVG Version: 6.00 Build 0)  -->
<svg version="1.0" id="i_back" xmlns="http://www.w3.org/2000/svg" xmlns:xlink="http://www.w3.org/1999/xlink" x="0px" y="0px"
	 width="50px" height="50px" viewBox="0 0 50 50" enable-background="new 0 0 50 50" xml:space="preserve">
<g id="backbutton">
	<path d="M19.7,22.6c-1.2,1.3-1.2,3,0,4.3l8,8.6c0.5,0.6,1.8,0.9,3,0.5c1.1-0.4,1.1-1.3,1.1-1.7V15.8c0-1-1.1-1.9-2.6-1.9
		c-0.8,0-1.6,0.3-2.2,0.8L19.7,22.6z"/>
	<path fill="#FFFFFF" d="M27.1,14.8l-8,7.4c-1.3,1.2-1.3,2.8,0,4l8,7.4c0.6,0.6,1.9,0.7,2.7,0.3c0.5-0.2,0.8-0.6,0.8-1V15.5
		c0-0.7-0.9-1.2-1.9-1.2C28.1,14.2,27.6,14.4,27.1,14.8z"/>
</g>
</svg>
