<?xml version="1.0" encoding="utf-8"?>
<!-- Generator: Adobe Illustrator 23.0.0, SVG Export Plug-In . SVG Version: 6.00 Build 0)  -->
<svg version="1.0" id="Layer_1" xmlns="http://www.w3.org/2000/svg" xmlns:xlink="http://www.w3.org/1999/xlink" x="0px" y="0px"
	 width="50px" height="50px" viewBox="0 0 50 50" enable-background="new 0 0 50 50" xml:space="preserve">
<path fill="#FFFFFF" d="M26.2,5c2.4,0,4.8,0.4,7,1.2c1.9,0.7,3.6,1.6,5.2,2.9c2.4,1.9,4.2,4.3,5.3,7.2c0.7,1.9,0.9,3.8,0.6,5.8
	c-0.3,2.1-1.2,3.9-2.5,5.5c-1.4,1.6-3.1,2.7-5.1,3.3c-1.3,0.4-2.7,0.8-4,1.3c-1.2,0.4-1.9,1.4-2.1,2.7c-0.1,1.2,0.3,2.2,1.2,2.9
	c0.7,0.5,1.3,1,1.7,1.9c0.5,1.3,0.2,3.1-1.2,4c-0.9,0.6-1.9,0.8-2.9,1c-1.8,0.4-3.6,0.5-5.5,0.3c-1.6-0.1-3.2-0.4-4.7-1
	c-1.9-0.7-3.7-1.6-5.4-2.7c-1.8-1.2-3.3-2.7-4.5-4.5c-2.1-3-3.4-6.4-3.7-10.2c-0.1-1.7,0-3.4,0.3-5.1c0.4-2.4,1.3-4.6,2.5-6.7
	c1.2-2,2.7-3.8,4.6-5.2c2.4-1.9,5-3.2,8-3.9C22.7,5.2,24.5,5,26.2,5z M30.5,11.8c0-1.8-1.3-3.3-3.2-3.3c-1.9,0-3.2,1.3-3.3,2.9
	c-0.2,2.1,1.4,3.7,3.2,3.7C28.9,15.1,30.6,13.7,30.5,11.8z M16.7,11.7c-1.6-0.1-3.3,1.2-3.3,3c-0.1,2.1,1.4,3.4,3,3.6
	c2.1,0.2,3.5-1.4,3.6-3.2C20,13.4,18.7,11.7,16.7,11.7z M39.5,18.4c0.1-1.7-1.3-3.3-3.2-3.4c-1.8-0.1-3.2,1.2-3.4,3
	c-0.2,1.9,1.2,3.6,3,3.7C37.8,21.7,39.4,20.4,39.5,18.4z M12.9,22.1c-1.8,0-3.2,1.4-3.3,3.2c-0.1,2.1,1.6,3.4,3.3,3.5
	c1.8,0,3.3-1.5,3.3-3.2C16.2,23.8,14.8,22.1,12.9,22.1z"/>
</svg>
