<?xml version="1.0" encoding="utf-8"?>
<!-- Generator: Adobe Illustrator 23.0.0, SVG Export Plug-In . SVG Version: 6.00 Build 0)  -->
<svg version="1.0" id="Layer_1" xmlns="http://www.w3.org/2000/svg" xmlns:xlink="http://www.w3.org/1999/xlink" x="0px" y="0px"
	 width="50px" height="50px" viewBox="0 0 50 50" enable-background="new 0 0 50 50" xml:space="preserve">
<path fill="#FFFFFF" d="M19.2,29.7c-1.4,0.2-2.2,0.2-3.9,0.2c-0.4,0.1-0.8-0.5-0.8-1.1c0-0.6,0.5-1.1,0.9-1.1c1.7,0,2.5-0.1,3.9-0.1
	c0.4-0.1,0.7,0.4,0.7,1.1C19.8,29.2,19.5,29.6,19.2,29.7z M19.3,36.9c-1.6,0.1-2.4,0.1-4.1-0.1c-0.4,0-0.9-0.7-0.9-1.4
	c0-0.7,0.5-1.1,0.9-1.1c1.8,0.2,2.5,0.1,4,0c0.4,0,0.8,0.5,0.8,1.2C20,36.3,19.7,36.8,19.3,36.9z M26.6,29.7c-1.4-0.1-2,0-3.3-0.1
	c-0.3-0.1-0.7-0.6-0.6-1.1c0.1-0.6,0.3-1.1,0.7-1c1.3,0.1,2,0,3.3,0.1c0.3,0.1,0.7,0.6,0.7,1.1C27.3,29.3,26.9,29.7,26.6,29.7z
	 M27.2,36.8c-1.5,0-2.2,0-3.6,0c-0.4,0-0.8-0.6-0.8-1.3c0-0.7,0.2-1.3,0.6-1.2c1.4,0.1,2.1,0.1,3.5,0c0.4,0.1,0.8,0.6,0.8,1.3
	C27.9,36.2,27.6,36.7,27.2,36.8z M34.6,29.8c-1.8,0.1-2.6,0.1-4.1,0.1c-0.4-0.1-0.7-0.6-0.7-1.2c0-0.6,0.3-1.1,0.7-1.2
	c1.6,0,2.3-0.1,4.2,0c0.5,0,0.9,0.5,0.9,1.1C35.5,29.3,35,29.7,34.6,29.8z M35.4,36.4c-1.8,0.2-2.6,0-4.2,0.1
	c-0.5,0-0.8-0.6-0.9-1.1c-0.1-0.7,0.2-1.2,0.6-1.2c1.6-0.1,2.4,0.1,4.2-0.1c0.5-0.1,0.9,0.4,1.1,1C36.2,35.9,35.9,36.5,35.4,36.4z"
	/>
<path fill="#FFFFFF" d="M15.5,44.9c-2.1,0.1-4.4-0.5-5.7-1.9C9,42,8.2,40.9,8.2,38.2s0.1-9,0.7-15.5c-0.5-0.2-1.2-0.4-1.5-0.7
	c-0.5-0.5-0.7-1.1-0.7-1.7c0.1-2,0.1-2.9-0.2-4.9c-1-5.1,2.7-5.8,6-5.8c0.2,0,0.2,0.1,0-0.6c-0.5-1.3-1-3.8,1.8-3.8c3.7,0,3.4,1,4,3
	c0.1,0.3,0.2,1.1,0.3,1.3c0.6,0,7.6-0.1,10.8-0.1c0-0.3,0-0.5,0-1.2c0-0.7-0.1-2,0.5-2.6C30.3,5,30.7,5,31.5,5c0.1,0,1.3,0,1.4,0
	c2,0,2.3,0.5,2.3,3c0,0.4,0,0.6,0,1.1c6-0.2,7.4,1.1,7.8,3.8c0.3,2.2,0.5,3.8,0.5,6.1c0.1,1.3-0.5,2.4-2,2.9
	c-0.3,6.6,0.3,12.1,1.4,18.5c0.3,1.3,0.1,2.5-0.5,3.5c-0.7,1.1-2.3,0.9-3.6,1C30.9,44.8,21.1,44.7,15.5,44.9z M11.3,22.8
	c-0.4,3.5-0.5,15.1-0.5,16.8c0,1.7,1.9,2.9,3.4,2.9s23.6,0,24.4,0c1.1,0,1.8-0.9,1.6-1.9c-0.2-1.1-1.7-11.7-1.5-18.1
	c-1.2-0.2-10.8,0-14,0.1C21.3,22.7,15.3,22.8,11.3,22.8z M32.2,20.4c3.1,0,7.8,0.4,8.2-1c0.2-0.8-0.1-3.5-0.1-5.6
	c0-1.2-1.1-1.9-2.2-1.9c-1.2,0-1.9,0.1-2.6,0.1c0,0.9,0,0.9-0.1,1.9c-0.1,1.7-1.7,1.8-3.4,1.7c-1.7,0-2.6-0.1-2.6-1.2
	c0-0.9-0.1-1.5,0-2.4c-3.3,0-5.4-0.1-8.3,0c-0.5,0-1.7,0-2.2,0c0.1,0.8,0.2,1.3,0.3,2.1c0.3,2-5.4,1.7-5.5,0.5
	c-0.1-0.8-0.3-1.7-0.4-2.6c-4.8-0.1-3.7,2.3-3.5,3.5c0.3,2.1,0.5,3.3,0.4,5.1C10,20.7,27.8,20.4,32.2,20.4z"/>
</svg>
