<?xml version="1.0" encoding="utf-8"?>
<!-- Generator: Adobe Illustrator 23.0.0, SVG Export Plug-In . SVG Version: 6.00 Build 0)  -->
<svg version="1.0" id="Layer_1" xmlns="http://www.w3.org/2000/svg" xmlns:xlink="http://www.w3.org/1999/xlink" x="0px" y="0px"
	 width="50px" height="50px" viewBox="0 0 50 50" enable-background="new 0 0 50 50" xml:space="preserve">
<path fill="#FFFFFF" d="M22.3,9.3c-0.4-0.4-0.8-0.8-1.2-1.1c-0.6-0.5-1.4-0.4-1.9,0.1c-0.7,0.7-1.3,1.4-2,2
	c-0.5,0.5-1.2,0.5-1.8,0.1c-0.6-0.4-0.8-1.1-0.5-1.7c0.1-0.2,0.2-0.4,0.4-0.5c0.6-0.6,1.3-1.3,1.9-1.9c1.8-1.7,4.3-1.8,6.1,0
	c4.4,4.3,8.7,8.7,13.1,13.1c1.8,1.8,1.7,4.3,0,6.1c-3.7,3.7-7.3,7.4-11,11c-1.8,1.8-4.4,1.7-6.2,0c-3-2.9-5.9-5.9-8.9-8.9
	c-1.9-1.9-1.9-4.5,0-6.3c3.9-3.9,7.7-7.7,11.6-11.6C22,9.6,22.1,9.5,22.3,9.3z M18.6,17.1c1.4,0.3,2.8,0.9,4,1.7c1,0.6,2,1.3,3,1.9
	c2.6,1.7,5.2,1.1,7.7-0.2c-3-3-6.1-6.1-9.1-9C22.4,13.3,20.5,15.2,18.6,17.1z"/>
<path fill="#FFFFFF" d="M41.1,39.8c0,3-2.5,5.4-5.4,5.2c-2.9-0.2-5.1-2.9-4.7-5.8c0.3-2.4,1.4-4.4,2.8-6.4c0.4-0.5,0.7-1,1.2-1.5
	c0.6-0.7,1.6-0.7,2.1,0c1.8,2.2,3.3,4.6,3.9,7.4c0.1,0.3,0.1,0.5,0.1,0.8C41.1,39.6,41.1,39.7,41.1,39.8z"/>
</svg>
