<?xml version="1.0" encoding="utf-8"?>
<!-- Generator: Adobe Illustrator 23.0.0, SVG Export Plug-In . SVG Version: 6.00 Build 0)  -->
<svg version="1.0" id="Layer_1" xmlns="http://www.w3.org/2000/svg" xmlns:xlink="http://www.w3.org/1999/xlink" x="0px" y="0px"
	 width="50px" height="50px" viewBox="0 0 50 50" enable-background="new 0 0 50 50" xml:space="preserve">
<path fill="#FFFFFF" d="M30,38.7H13.7C8.9,38.7,5,34.8,5,30V13.7C5,8.9,8.9,5,13.7,5H30c4.8,0,8.7,3.9,8.7,8.7V30
	C38.7,34.8,34.8,38.7,30,38.7z M45,30.9v-9.5c0-2-1.6-3.6-3.6-3.6h-0.8v13.1c0,5.4-4.4,9.7-9.7,9.7H17.8v0.1c0,2.4,1.9,4.3,4.3,4.3
	h8.8C38.7,45,45,38.7,45,30.9z"/>
</svg>
