<?xml version="1.0" encoding="utf-8"?>
<!-- Generator: Adobe Illustrator 23.0.0, SVG Export Plug-In . SVG Version: 6.00 Build 0)  -->
<svg version="1.0" id="Layer_1" xmlns="http://www.w3.org/2000/svg" xmlns:xlink="http://www.w3.org/1999/xlink" x="0px" y="0px"
	 viewBox="0 0 50 50" enable-background="new 0 0 50 50" xml:space="preserve">
<circle cx="25" cy="25" r="25"/>
<g>
	<polygon fill="#5EFF00" points="49.8,28.5 49.7,28.9 25,25 	"/>
	<polygon fill="#59FF00" points="49.6,29.3 49.7,28.9 25,25 	"/>
	<polygon fill="#51FF00" points="49.5,30.2 49.5,29.8 25,25 	"/>
	<polygon fill="#55FF00" points="49.6,29.3 49.5,29.8 25,25 	"/>
	<polygon fill="#84FF00" points="50,25 50,24.6 25,25 	"/>
	<polygon fill="#88FF00" points="50,24.1 50,24.6 25,25 	"/>
	<polygon fill="#80FF00" points="50,25 50,25.4 25,25 	"/>
	<polygon fill="#7BFF00" points="50,25.9 50,25.4 25,25 	"/>
	<polygon fill="#73FF00" points="49.9,26.7 50,26.3 25,25 	"/>
	<polygon fill="#77FF00" points="50,25.9 50,26.3 25,25 	"/>
	<polygon fill="#6FFF00" points="49.9,26.7 49.9,27.2 25,25 	"/>
	<polygon fill="#6AFF00" points="49.9,27.6 49.9,27.2 25,25 	"/>
	<polygon fill="#91FF00" points="49.9,23.3 50,23.7 25,25 	"/>
	<polygon fill="#8CFF00" points="50,24.1 50,23.7 25,25 	"/>
	<polygon fill="#A2FF00" points="49.8,21.5 49.8,22 25,25 	"/>
	<polygon fill="#9EFF00" points="49.9,22.4 49.8,22 25,25 	"/>
	<polygon fill="#95FF00" points="49.9,23.3 49.9,22.8 25,25 	"/>
	<polygon fill="#99FF00" points="49.9,22.4 49.9,22.8 25,25 	"/>
	<polygon fill="#A6FF00" points="49.8,21.5 49.7,21.1 25,25 	"/>
	<polygon fill="#AAFF00" points="49.6,20.7 49.7,21.1 25,25 	"/>
	<polygon fill="#C4FF00" points="49,18.1 49.2,18.5 25,25 	"/>
	<polygon fill="#BFFF00" points="49.3,19 49.2,18.5 25,25 	"/>
	<polygon fill="#B7FF00" points="49.5,19.8 49.4,19.4 25,25 	"/>
	<polygon fill="#BBFF00" points="49.3,19 49.4,19.4 25,25 	"/>
	<polygon fill="#B3FF00" points="49.5,19.8 49.5,20.2 25,25 	"/>
	<polygon fill="#AEFF00" points="49.6,20.7 49.5,20.2 25,25 	"/>
	<polygon fill="#C8FF00" points="49,18.1 48.9,17.7 25,25 	"/>
	<polygon fill="#CCFF00" points="48.8,17.3 48.9,17.7 25,25 	"/>
	<polygon fill="#EAFF00" points="47.8,14.8 47.7,14.4 25,25 	"/>
	<polygon fill="#EEFF00" points="47.5,14 47.7,14.4 25,25 	"/>
	<polygon fill="#D5FF00" points="48.5,16.5 48.6,16.9 25,25 	"/>
	<polygon fill="#D0FF00" points="48.8,17.3 48.6,16.9 25,25 	"/>
	<polygon fill="#E6FF00" points="47.8,14.8 48,15.2 25,25 	"/>
	<polygon fill="#E1FF00" points="48.2,15.6 48,15.2 25,25 	"/>
	<polygon fill="#D9FF00" points="48.5,16.5 48.3,16 25,25 	"/>
	<polygon fill="#DDFF00" points="48.2,15.6 48.3,16 25,25 	"/>
	<polygon fill="#FBFF00" points="47.1,13.3 46.9,12.9 25,25 	"/>
	<polygon fill="#FFFF00" points="46.7,12.5 46.9,12.9 25,25 	"/>
	<polygon fill="#F7FF00" points="47.1,13.3 47.3,13.7 25,25 	"/>
	<polygon fill="#F2FF00" points="47.5,14 47.3,13.7 25,25 	"/>
	<polygon fill="#00FF26" points="44.2,41.1 44.4,40.7 25,25 	"/>
	<polygon fill="#00FF22" points="44.7,40.4 44.4,40.7 25,25 	"/>
	<polygon fill="#00FF1A" points="45.2,39.7 45,40 25,25 	"/>
	<polygon fill="#00FF1E" points="44.7,40.4 45,40 25,25 	"/>
	<polygon fill="#00FF3C" points="43,42.4 42.7,42.7 25,25 	"/>
	<polygon fill="#00FF40" points="42.4,43 42.7,42.7 25,25 	"/>
	<polygon fill="#00FF2B" points="44.2,41.1 43.9,41.4 25,25 	"/>
	<polygon fill="#00FF2F" points="43.6,41.7 43.9,41.4 25,25 	"/>
	<polygon fill="#00FF37" points="43,42.4 43.3,42 25,25 	"/>
	<polygon fill="#00FF33" points="43.6,41.7 43.3,42 25,25 	"/>
	<polygon fill="#00FF04" points="46.2,38.3 46.4,37.9 25,25 	"/>
	<polygon fill="#00FF00" points="46.7,37.5 46.4,37.9 25,25 	"/>
	<polygon fill="#04FF00" points="46.7,37.5 46.9,37.1 25,25 	"/>
	<polygon fill="#1AFF00" points="47.8,35.2 47.7,35.6 25,25 	"/>
	<polygon fill="#15FF00" points="47.5,36 47.7,35.6 25,25 	"/>
	<polygon fill="#0DFF00" points="47.1,36.7 47.3,36.4 25,25 	"/>
	<polygon fill="#11FF00" points="47.5,36 47.3,36.4 25,25 	"/>
	<polygon fill="#00FF09" points="46.2,38.3 46,38.6 25,25 	"/>
	<polygon fill="#00FF15" points="45.2,39.7 45.5,39.3 25,25 	"/>
	<polygon fill="#00FF0D" points="45.7,39 46,38.6 25,25 	"/>
	<polygon fill="#00FF11" points="45.7,39 45.5,39.3 25,25 	"/>
	<polygon fill="#00FF91" points="36,47.5 35.6,47.7 25,25 	"/>
	<polygon fill="#00FF95" points="35.2,47.8 35.6,47.7 25,25 	"/>
	<polygon fill="#00FF9D" points="34.4,48.2 34.8,48 25,25 	"/>
	<polygon fill="#00FF99" points="35.2,47.8 34.8,48 25,25 	"/>
	<polygon fill="#00FFAE" points="32.7,48.8 33.1,48.6 25,25 	"/>
	<polygon fill="#00FFAA" points="33.5,48.5 33.1,48.6 25,25 	"/>
	<polygon fill="#09FF00" points="47.1,36.7 46.9,37.1 25,25 	"/>
	<polygon fill="#00FFA2" points="34.4,48.2 34,48.3 25,25 	"/>
	<polygon fill="#00FFA6" points="33.5,48.5 34,48.3 25,25 	"/>
	<polygon fill="#00FF8C" points="36,47.5 36.4,47.3 25,25 	"/>
	<polygon fill="#00FF88" points="36.7,47.1 36.4,47.3 25,25 	"/>
	<polygon fill="#00FF80" points="37.5,46.7 37.1,46.9 25,25 	"/>
	<polygon fill="#00FF84" points="36.7,47.1 37.1,46.9 25,25 	"/>
	<polygon fill="#8400FF" points="0,25 0,24.6 25,25 	"/>
	<polygon fill="#9100FF" points="0.1,23.3 0,23.7 25,25 	"/>
	<polygon fill="#8C00FF" points="0,24.1 0,23.7 25,25 	"/>
	<polygon fill="#8800FF" points="0,24.1 0,24.6 25,25 	"/>
	<polygon fill="#9500FF" points="0.1,23.3 0.1,22.8 25,25 	"/>
	<polygon fill="#9900FF" points="0.1,22.4 0.1,22.8 25,25 	"/>
	<polygon fill="#A200FF" points="0.2,21.5 0.2,22 25,25 	"/>
	<polygon fill="#9D00FF" points="0.1,22.4 0.2,22 25,25 	"/>
	<polygon fill="#AE00FF" points="0.4,20.7 0.5,20.2 25,25 	"/>
	<polygon fill="#A600FF" points="0.2,21.5 0.3,21.1 25,25 	"/>
	<polygon fill="#AA00FF" points="0.4,20.7 0.3,21.1 25,25 	"/>
	<polygon fill="#B700FF" points="0.5,19.8 0.6,19.4 25,25 	"/>
	<polygon fill="#BB00FF" points="0.7,19 0.6,19.4 25,25 	"/>
	<polygon fill="#B300FF" points="0.5,19.8 0.5,20.2 25,25 	"/>
	<polygon fill="#D900FF" points="1.5,16.5 1.7,16 25,25 	"/>
	<polygon fill="#DD00FF" points="1.8,15.6 1.7,16 25,25 	"/>
	<polygon fill="#E600FF" points="2.2,14.8 2,15.2 25,25 	"/>
	<polygon fill="#E100FF" points="1.8,15.6 2,15.2 25,25 	"/>
	<polygon fill="#EA00FF" points="2.2,14.8 2.3,14.4 25,25 	"/>
	<polygon fill="#EE00FF" points="2.5,14 2.3,14.4 25,25 	"/>
	<polygon fill="#D500FF" points="1.5,16.5 1.4,16.9 25,25 	"/>
	<polygon fill="#D000FF" points="1.2,17.3 1.4,16.9 25,25 	"/>
	<polygon fill="#C800FF" points="1,18.1 1.1,17.7 25,25 	"/>
	<polygon fill="#CC00FF" points="1.2,17.3 1.1,17.7 25,25 	"/>
	<polygon fill="#C400FF" points="1,18.1 0.8,18.5 25,25 	"/>
	<polygon fill="#BF00FF" points="0.7,19 0.8,18.5 25,25 	"/>
	<polygon fill="#F700FF" points="2.9,13.3 2.7,13.7 25,25 	"/>
	<polygon fill="#F200FF" points="2.5,14 2.7,13.7 25,25 	"/>
	<polygon fill="#FB00FF" points="2.9,13.3 3.1,12.9 25,25 	"/>
	<polygon fill="#FF00FF" points="3.3,12.5 3.1,12.9 25,25 	"/>
	<polygon fill="#FF00E1" points="4.8,10.3 5,10 25,25 	"/>
	<polygon fill="#FF00DD" points="5.3,9.6 5,10 25,25 	"/>
	<polygon fill="#FF00D5" points="5.8,8.9 5.6,9.3 25,25 	"/>
	<polygon fill="#FF00D9" points="5.3,9.6 5.6,9.3 25,25 	"/>
	<polygon fill="#FF00E6" points="4.8,10.3 4.5,10.7 25,25 	"/>
	<polygon fill="#FF00EA" points="4.3,11 4.5,10.7 25,25 	"/>
	<polygon fill="#FF00F2" points="3.8,11.8 4,11.4 25,25 	"/>
	<polygon fill="#FF00EE" points="4.3,11 4,11.4 25,25 	"/>
	<polygon fill="#FF00F7" points="3.8,11.8 3.6,12.1 25,25 	"/>
	<polygon fill="#FF00A6" points="8.9,5.8 9.3,5.6 25,25 	"/>
	<polygon fill="#FF00FB" points="3.3,12.5 3.6,12.1 25,25 	"/>
	<polygon fill="#FF00A2" points="9.6,5.3 9.3,5.6 25,25 	"/>
	<polygon fill="#FF00AE" points="8.3,6.4 8.6,6.1 25,25 	"/>
	<polygon fill="#FF00AA" points="8.9,5.8 8.6,6.1 25,25 	"/>
	<polygon fill="#FF00BF" points="7,7.6 7.3,7.3 25,25 	"/>
	<polygon fill="#FF00BB" points="7.6,7 7.3,7.3 25,25 	"/>
	<polygon fill="#FF00CC" points="6.4,8.3 6.1,8.6 25,25 	"/>
	<polygon fill="#FF00D0" points="5.8,8.9 6.1,8.6 25,25 	"/>
	<polygon fill="#FF009D" points="9.6,5.3 9.9,5 25,25 	"/>
	<polygon fill="#FF0099" points="10.3,4.8 9.9,5 25,25 	"/>
	<polygon fill="#FF0091" points="11,4.3 10.7,4.5 25,25 	"/>
	<polygon fill="#FF0095" points="10.3,4.8 10.7,4.5 25,25 	"/>
	<polygon fill="#FF0080" points="12.5,3.3 12.1,3.6 25,25 	"/>
	<polygon fill="#FF0084" points="11.8,3.8 12.1,3.6 25,25 	"/>
	<polygon fill="#FF0088" points="11.8,3.8 11.4,4 25,25 	"/>
	<polygon fill="#FF008C" points="11,4.3 11.4,4 25,25 	"/>
	<polygon fill="#FF006A" points="14,2.5 14.4,2.3 25,25 	"/>
	<polygon fill="#FF0066" points="14.8,2.2 14.4,2.3 25,25 	"/>
	<polygon fill="#FF007B" points="12.5,3.3 12.9,3.1 25,25 	"/>
	<polygon fill="#FF0077" points="13.3,2.9 12.9,3.1 25,25 	"/>
	<polygon fill="#FF006F" points="14,2.5 13.6,2.7 25,25 	"/>
	<polygon fill="#FF0073" points="13.3,2.9 13.6,2.7 25,25 	"/>
	<polygon fill="#FF005E" points="15.6,1.8 15.2,2 25,25 	"/>
	<polygon fill="#FF0062" points="14.8,2.2 15.2,2 25,25 	"/>
	<polygon fill="#FF0059" points="15.6,1.8 16,1.7 25,25 	"/>
	<polygon fill="#FF004D" points="17.3,1.2 16.9,1.4 25,25 	"/>
	<polygon fill="#FF0055" points="16.4,1.5 16,1.7 25,25 	"/>
	<polygon fill="#FF0051" points="16.4,1.5 16.9,1.4 25,25 	"/>
	<polygon fill="#FF0037" points="18.9,0.7 19.4,0.6 25,25 	"/>
	<polygon fill="#FF0033" points="19.8,0.5 19.4,0.6 25,25 	"/>
	<polygon fill="#FF002B" points="20.7,0.4 20.2,0.5 25,25 	"/>
	<polygon fill="#FF002F" points="19.8,0.5 20.2,0.5 25,25 	"/>
	<polygon fill="#FF003C" points="18.9,0.7 18.5,0.8 25,25 	"/>
	<polygon fill="#FF0040" points="18.1,1 18.5,0.8 25,25 	"/>
	<polygon fill="#FF0048" points="17.3,1.2 17.7,1.1 25,25 	"/>
	<polygon fill="#FF0044" points="18.1,1 17.7,1.1 25,25 	"/>
	<polygon fill="#FF001A" points="22.4,0.1 21.9,0.2 25,25 	"/>
	<polygon fill="#FF001E" points="21.5,0.2 21.9,0.2 25,25 	"/>
	<polygon fill="#FF0026" points="20.7,0.4 21.1,0.3 25,25 	"/>
	<polygon fill="#FF0022" points="21.5,0.2 21.1,0.3 25,25 	"/>
	<polygon fill="#FF0015" points="22.4,0.1 22.8,0.1 25,25 	"/>
	<polygon fill="#FF0011" points="23.3,0.1 22.8,0.1 25,25 	"/>
	<polygon fill="#FF0009" points="24.1,0 23.7,0 25,25 	"/>
	<polygon fill="#FF000D" points="23.3,0.1 23.7,0 25,25 	"/>
	<polygon fill="#FF0900" points="25.9,0 25.4,0 25,25 	"/>
	<polygon fill="#FF0400" points="25,0 25.4,0 25,25 	"/>
	<polygon fill="#FF0004" points="24.1,0 24.6,0 25,25 	"/>
	<polygon fill="#FF0000" points="25,0 24.6,0 25,25 	"/>
	<polygon fill="#FF0D00" points="25.9,0 26.3,0 25,25 	"/>
	<polygon fill="#FF1100" points="26.7,0.1 26.3,0 25,25 	"/>
	<polygon fill="#FF5100" points="32.7,1.2 33.1,1.4 25,25 	"/>
	<polygon fill="#FF5500" points="33.5,1.5 33.1,1.4 25,25 	"/>
	<polygon fill="#FF5E00" points="34.4,1.8 34,1.7 25,25 	"/>
	<polygon fill="#FF5900" points="33.5,1.5 34,1.7 25,25 	"/>
	<polygon fill="#FF2F00" points="29.3,0.4 29.8,0.5 25,25 	"/>
	<polygon fill="#FF3300" points="30.2,0.5 29.8,0.5 25,25 	"/>
	<polygon fill="#FF3C00" points="31.1,0.7 30.6,0.6 25,25 	"/>
	<polygon fill="#FF3700" points="30.2,0.5 30.6,0.6 25,25 	"/>
	<polygon fill="#FF4D00" points="32.7,1.2 32.3,1.1 25,25 	"/>
	<polygon fill="#FF4800" points="31.9,1 32.3,1.1 25,25 	"/>
	<polygon fill="#FF4000" points="31.1,0.7 31.5,0.8 25,25 	"/>
	<polygon fill="#FF4400" points="31.9,1 31.5,0.8 25,25 	"/>
	<polygon fill="#FF2B00" points="29.3,0.4 28.9,0.3 25,25 	"/>
	<polygon fill="#FF2600" points="28.5,0.2 28.9,0.3 25,25 	"/>
	<polygon fill="#FF2200" points="28.5,0.2 28,0.2 25,25 	"/>
	<polygon fill="#FF1A00" points="27.6,0.1 27.2,0.1 25,25 	"/>
	<polygon fill="#FF1E00" points="27.6,0.1 28,0.2 25,25 	"/>
	<polygon fill="#FF1500" points="26.7,0.1 27.2,0.1 25,25 	"/>
	<polygon fill="#FF7700" points="36.7,2.9 36.4,2.7 25,25 	"/>
	<polygon fill="#FF7300" points="36,2.5 36.4,2.7 25,25 	"/>
	<polygon fill="#FF8000" points="37.5,3.3 37.1,3.1 25,25 	"/>
	<polygon fill="#FF7B00" points="36.7,2.9 37.1,3.1 25,25 	"/>
	<polygon fill="#FF8400" points="37.5,3.3 37.9,3.6 25,25 	"/>
	<polygon fill="#FF8800" points="38.3,3.8 37.9,3.6 25,25 	"/>
	<polygon fill="#FF6F00" points="36,2.5 35.6,2.3 25,25 	"/>
	<polygon fill="#FF6A00" points="35.2,2.2 35.6,2.3 25,25 	"/>
	<polygon fill="#FF6200" points="34.4,1.8 34.8,2 25,25 	"/>
	<polygon fill="#FF6600" points="35.2,2.2 34.8,2 25,25 	"/>
	<polygon fill="#FF9100" points="39,4.3 38.6,4 25,25 	"/>
	<polygon fill="#FF8C00" points="38.3,3.8 38.6,4 25,25 	"/>
	<polygon fill="#FFB300" points="41.7,6.4 41.4,6.1 25,25 	"/>
	<polygon fill="#FFAE00" points="41.1,5.8 41.4,6.1 25,25 	"/>
	<polygon fill="#FFA600" points="40.4,5.3 40.7,5.6 25,25 	"/>
	<polygon fill="#FFAA00" points="41.1,5.8 40.7,5.6 25,25 	"/>
	<polygon fill="#FF9500" points="39,4.3 39.3,4.5 25,25 	"/>
	<polygon fill="#FF9900" points="39.7,4.8 39.3,4.5 25,25 	"/>
	<polygon fill="#FFA200" points="40.4,5.3 40,5 25,25 	"/>
	<polygon fill="#FF9D00" points="39.7,4.8 40,5 25,25 	"/>
	<polygon fill="#FFF700" points="46.2,11.8 46.4,12.1 25,25 	"/>
	<polygon fill="#FFFB00" points="46.7,12.5 46.4,12.1 25,25 	"/>
	<polygon fill="#FFF200" points="46.2,11.8 46,11.4 25,25 	"/>
	<polygon fill="#FFEE00" points="45.7,11 46,11.4 25,25 	"/>
	<polygon fill="#FFE600" points="45.2,10.3 45.5,10.7 25,25 	"/>
	<polygon fill="#FFEA00" points="45.7,11 45.5,10.7 25,25 	"/>
	<polygon fill="#FFD500" points="44.2,8.9 44.4,9.3 25,25 	"/>
	<polygon fill="#FFD900" points="44.7,9.6 44.4,9.3 25,25 	"/>
	<polygon fill="#FFE100" points="45.2,10.3 45,10 25,25 	"/>
	<polygon fill="#FFDD00" points="44.7,9.6 45,10 25,25 	"/>
	<polygon fill="#FFB700" points="41.7,6.4 42,6.7 25,25 	"/>
	<polygon fill="#FFBB00" points="42.4,7 42,6.7 25,25 	"/>
	<polygon fill="#FFBF00" points="43,7.6 42.7,7.3 25,25 	"/>
	<polygon fill="#FFBB00" points="42.4,7 42.7,7.3 25,25 	"/>
	<polygon fill="#FFD000" points="44.2,8.9 43.9,8.6 25,25 	"/>
	<polygon fill="#FFC400" points="43,7.6 43.3,8 25,25 	"/>
	<polygon fill="#FFCC00" points="43.6,8.3 43.9,8.6 25,25 	"/>
	<polygon fill="#FFC800" points="43.6,8.3 43.3,8 25,25 	"/>
	<polygon fill="#3CFF00" points="49,31.9 48.9,32.3 25,25 	"/>
	<polygon fill="#37FF00" points="48.8,32.7 48.9,32.3 25,25 	"/>
	<polygon fill="#2FFF00" points="48.5,33.5 48.6,33.1 25,25 	"/>
	<polygon fill="#33FF00" points="48.8,32.7 48.6,33.1 25,25 	"/>
	<polygon fill="#1EFF00" points="47.8,35.2 48,34.8 25,25 	"/>
	<polygon fill="#22FF00" points="48.2,34.4 48,34.8 25,25 	"/>
	<polygon fill="#2BFF00" points="48.5,33.5 48.3,34 25,25 	"/>
	<polygon fill="#26FF00" points="48.2,34.4 48.3,34 25,25 	"/>
	<polygon fill="#62FF00" points="49.8,28.5 49.8,28.1 25,25 	"/>
	<polygon fill="#66FF00" points="49.9,27.6 49.8,28.1 25,25 	"/>
	<polygon fill="#40FF00" points="49,31.9 49.2,31.5 25,25 	"/>
	<polygon fill="#44FF00" points="49.3,31.1 49.2,31.5 25,25 	"/>
	<polygon fill="#4DFF00" points="49.5,30.2 49.4,30.6 25,25 	"/>
	<polygon fill="#48FF00" points="49.3,31.1 49.4,30.6 25,25 	"/>
	<polygon fill="#0048FF" points="7.6,43 7.3,42.7 25,25 	"/>
	<polygon fill="#0051FF" points="8.3,43.6 7.9,43.3 25,25 	"/>
	<polygon fill="#004DFF" points="7.6,43 7.9,43.3 25,25 	"/>
	<polygon fill="#002FFF" points="5.8,41.1 5.6,40.7 25,25 	"/>
	<polygon fill="#002BFF" points="5.3,40.4 5.6,40.7 25,25 	"/>
	<polygon fill="#0040FF" points="7,42.4 6.7,42 25,25 	"/>
	<polygon fill="#003CFF" points="6.4,41.7 6.7,42 25,25 	"/>
	<polygon fill="#0033FF" points="5.8,41.1 6.1,41.4 25,25 	"/>
	<polygon fill="#0037FF" points="6.4,41.7 6.1,41.4 25,25 	"/>
	<polygon fill="#0022FF" points="4.8,39.7 5,40 25,25 	"/>
	<polygon fill="#0026FF" points="5.3,40.4 5,40 25,25 	"/>
	<polygon fill="#001EFF" points="4.8,39.7 4.5,39.3 25,25 	"/>
	<polygon fill="#001AFF" points="4.3,39 4.5,39.3 25,25 	"/>
	<polygon fill="#0011FF" points="3.8,38.3 4,38.6 25,25 	"/>
	<polygon fill="#0015FF" points="4.3,39 4,38.6 25,25 	"/>
	<polygon fill="#0000FF" points="2.9,36.7 3.1,37.1 25,25 	"/>
	<polygon fill="#0004FF" points="3.3,37.5 3.1,37.1 25,25 	"/>
	<polygon fill="#000DFF" points="3.8,38.3 3.6,37.9 25,25 	"/>
	<polygon fill="#0009FF" points="3.3,37.5 3.6,37.9 25,25 	"/>
	<polygon fill="#2200FF" points="1.5,33.5 1.7,34 25,25 	"/>
	<polygon fill="#1E00FF" points="1.8,34.4 1.7,34 25,25 	"/>
	<polygon fill="#1500FF" points="2.2,35.2 2,34.8 25,25 	"/>
	<polygon fill="#1A00FF" points="1.8,34.4 2,34.8 25,25 	"/>
	<polygon fill="#0400FF" points="2.9,36.7 2.7,36.4 25,25 	"/>
	<polygon fill="#0900FF" points="2.5,36 2.7,36.4 25,25 	"/>
	<polygon fill="#1100FF" points="2.2,35.2 2.3,35.6 25,25 	"/>
	<polygon fill="#0D00FF" points="2.5,36 2.3,35.6 25,25 	"/>
	<polygon fill="#6A00FF" points="0.1,26.7 0,26.3 25,25 	"/>
	<polygon fill="#6F00FF" points="0,25.9 0,26.3 25,25 	"/>
	<polygon fill="#7700FF" points="0,25.9 0,25.4 25,25 	"/>
	<polygon fill="#2600FF" points="1.5,33.5 1.4,33.1 25,25 	"/>
	<polygon fill="#2B00FF" points="1.2,32.7 1.4,33.1 25,25 	"/>
	<polygon fill="#3300FF" points="1,31.9 1.1,32.3 25,25 	"/>
	<polygon fill="#2F00FF" points="1.2,32.7 1.1,32.3 25,25 	"/>
	<polygon fill="#4400FF" points="0.5,30.2 0.6,30.6 25,25 	"/>
	<polygon fill="#4000FF" points="0.7,31.1 0.6,30.6 25,25 	"/>
	<polygon fill="#3700FF" points="1,31.9 0.8,31.5 25,25 	"/>
	<polygon fill="#3C00FF" points="0.7,31.1 0.8,31.5 25,25 	"/>
	<polygon fill="#6600FF" points="0.1,26.7 0.1,27.2 25,25 	"/>
	<polygon fill="#6200FF" points="0.1,27.6 0.1,27.2 25,25 	"/>
	<polygon fill="#5900FF" points="0.2,28.5 0.2,28.1 25,25 	"/>
	<polygon fill="#5E00FF" points="0.1,27.6 0.2,28.1 25,25 	"/>
	<polygon fill="#4800FF" points="0.5,30.2 0.5,29.8 25,25 	"/>
	<polygon fill="#4D00FF" points="0.4,29.3 0.5,29.8 25,25 	"/>
	<polygon fill="#5500FF" points="0.2,28.5 0.3,28.9 25,25 	"/>
	<polygon fill="#5100FF" points="0.4,29.3 0.3,28.9 25,25 	"/>
	<polygon fill="#7B00FF" points="0,25 0,25.4 25,25 	"/>
	<polygon fill="#00FF6F" points="39,45.7 38.6,46 25,25 	"/>
	<polygon fill="#00FF73" points="38.3,46.2 38.6,46 25,25 	"/>
	<polygon fill="#00FF7B" points="37.5,46.7 37.9,46.4 25,25 	"/>
	<polygon fill="#00FF77" points="38.3,46.2 37.9,46.4 25,25 	"/>
	<polygon fill="#00FF4D" points="41.7,43.6 41.4,43.9 25,25 	"/>
	<polygon fill="#00FF51" points="41.1,44.2 41.4,43.9 25,25 	"/>
	<polygon fill="#00FF59" points="40.4,44.7 40.7,44.4 25,25 	"/>
	<polygon fill="#00FF55" points="41.1,44.2 40.7,44.4 25,25 	"/>
	<polygon fill="#00FF6A" points="39,45.7 39.3,45.5 25,25 	"/>
	<polygon fill="#00FF66" points="39.7,45.2 39.3,45.5 25,25 	"/>
	<polygon fill="#00FF5E" points="40.4,44.7 40,45 25,25 	"/>
	<polygon fill="#00FF62" points="39.7,45.2 40,45 25,25 	"/>
	<polygon fill="#00FF44" points="42.4,43 42,43.3 25,25 	"/>
	<polygon fill="#00FF48" points="41.7,43.6 42,43.3 25,25 	"/>
	<polygon fill="#00FFD0" points="29.3,49.6 29.8,49.5 25,25 	"/>
	<polygon fill="#00FFCC" points="30.2,49.5 29.8,49.5 25,25 	"/>
	<polygon fill="#00FFC4" points="31.1,49.3 30.6,49.4 25,25 	"/>
	<polygon fill="#00FFC8" points="30.2,49.5 30.6,49.4 25,25 	"/>
	<polygon fill="#00FFB3" points="32.7,48.8 32.3,48.9 25,25 	"/>
	<polygon fill="#00FFB7" points="31.9,49 32.3,48.9 25,25 	"/>
	<polygon fill="#00FFBF" points="31.1,49.3 31.5,49.2 25,25 	"/>
	<polygon fill="#00FFBB" points="31.9,49 31.5,49.2 25,25 	"/>
	<polygon fill="#00FFF2" points="25.9,50 25.4,50 25,25 	"/>
	<polygon fill="#00FFF7" points="25,50 25.4,50 25,25 	"/>
	<polygon fill="#00FFD5" points="29.3,49.6 28.9,49.7 25,25 	"/>
	<polygon fill="#00FFD9" points="28.5,49.8 28.9,49.7 25,25 	"/>
	<polygon fill="#00FFDD" points="27.6,49.9 28,49.8 25,25 	"/>
	<polygon fill="#00FFDD" points="28.5,49.8 28,49.8 25,25 	"/>
	<polygon fill="#00FFEE" points="25.9,50 26.3,50 25,25 	"/>
	<polygon fill="#00FFEA" points="26.7,49.9 26.3,50 25,25 	"/>
	<polygon fill="#00FFE1" points="27.6,49.9 27.2,49.9 25,25 	"/>
	<polygon fill="#00FFE6" points="26.7,49.9 27.2,49.9 25,25 	"/>
	<polygon fill="#00EAFF" points="22.4,49.9 21.9,49.8 25,25 	"/>
	<polygon fill="#00E6FF" points="21.5,49.8 21.9,49.8 25,25 	"/>
	<polygon fill="#00DDFF" points="20.7,49.6 21.1,49.7 25,25 	"/>
	<polygon fill="#00E1FF" points="21.5,49.8 21.1,49.7 25,25 	"/>
	<polygon fill="#00D9FF" points="20.7,49.6 20.2,49.5 25,25 	"/>
	<polygon fill="#00D5FF" points="19.8,49.5 20.2,49.5 25,25 	"/>
	<polygon fill="#00EEFF" points="22.4,49.9 22.8,49.9 25,25 	"/>
	<polygon fill="#00F2FF" points="23.3,49.9 22.8,49.9 25,25 	"/>
	<polygon fill="#00FBFF" points="24.1,50 23.7,50 25,25 	"/>
	<polygon fill="#00F7FF" points="23.3,49.9 23.7,50 25,25 	"/>
	<polygon fill="#00FFFF" points="24.1,50 24.6,50 25,25 	"/>
	<polygon fill="#00FFFB" points="25,50 24.6,50 25,25 	"/>
	<polygon fill="#00A6FF" points="15.6,48.2 15.2,48 25,25 	"/>
	<polygon fill="#00A2FF" points="14.8,47.8 15.2,48 25,25 	"/>
	<polygon fill="#0099FF" points="14,47.5 14.4,47.7 25,25 	"/>
	<polygon fill="#009DFF" points="14.8,47.8 14.4,47.7 25,25 	"/>
	<polygon fill="#00CCFF" points="18.9,49.3 19.4,49.4 25,25 	"/>
	<polygon fill="#00D0FF" points="19.8,49.5 19.4,49.4 25,25 	"/>
	<polygon fill="#00AAFF" points="15.6,48.2 16,48.3 25,25 	"/>
	<polygon fill="#00AEFF" points="16.4,48.5 16,48.3 25,25 	"/>
	<polygon fill="#00B7FF" points="17.3,48.8 16.9,48.6 25,25 	"/>
	<polygon fill="#00B3FF" points="16.4,48.5 16.9,48.6 25,25 	"/>
	<polygon fill="#00C8FF" points="18.9,49.3 18.5,49.2 25,25 	"/>
	<polygon fill="#00C4FF" points="18.1,49 18.5,49.2 25,25 	"/>
	<polygon fill="#00BBFF" points="17.3,48.8 17.7,48.9 25,25 	"/>
	<polygon fill="#00BFFF" points="18.1,49 17.7,48.9 25,25 	"/>
	<polygon fill="#0066FF" points="9.6,44.7 9.9,45 25,25 	"/>
	<polygon fill="#006AFF" points="10.3,45.2 9.9,45 25,25 	"/>
	<polygon fill="#0072FF" points="11,45.7 10.7,45.5 25,25 	"/>
	<polygon fill="#006FFF" points="10.3,45.2 10.7,45.5 25,25 	"/>
	<polygon fill="#0084FF" points="12.5,46.7 12.1,46.4 25,25 	"/>
	<polygon fill="#0080FF" points="11.8,46.2 12.1,46.4 25,25 	"/>
	<polygon fill="#0077FF" points="11,45.7 11.4,46 25,25 	"/>
	<polygon fill="#007BFF" points="11.8,46.2 11.4,46 25,25 	"/>
	<polygon fill="#0088FF" points="12.5,46.7 12.9,46.9 25,25 	"/>
	<polygon fill="#008CFF" points="13.3,47.1 12.9,46.9 25,25 	"/>
	<polygon fill="#0095FF" points="14,47.5 13.6,47.3 25,25 	"/>
	<polygon fill="#0091FF" points="13.3,47.1 13.6,47.3 25,25 	"/>
	<polygon fill="#0062FF" points="9.6,44.7 9.3,44.4 25,25 	"/>
	<polygon fill="#005EFF" points="8.9,44.2 9.3,44.4 25,25 	"/>
	<polygon fill="#0055FF" points="8.3,43.6 8.6,43.9 25,25 	"/>
	<polygon fill="#0059FF" points="8.9,44.2 8.6,43.9 25,25 	"/>
	<polygon fill="#0044FF" points="7,42.4 7.3,42.7 25,25 	"/>
	<polygon fill="#FF00B3" points="8.3,6.4 7.9,6.7 25,25 	"/>
	<polygon fill="#FF00B7" points="7.6,7 7.9,6.7 25,25 	"/>
	<polygon fill="#FF00C8" points="6.4,8.3 6.7,8 25,25 	"/>
	<polygon fill="#FF00C4" points="7,7.6 6.7,8 25,25 	"/>
</g>
<radialGradient id="SVGID_1_" cx="675.2053" cy="1135.249" r="6.6146" gradientTransform="matrix(3.7795 1.231154e-04 1.231154e-04 -3.7795 -2527.0781 4315.5903)" gradientUnits="userSpaceOnUse">
	<stop  offset="0.1138" style="stop-color:#FFFFFF"/>
	<stop  offset="1" style="stop-color:#FFFFFF;stop-opacity:0"/>
</radialGradient>
<circle fill="url(#SVGID_1_)" cx="25" cy="25" r="25"/>
</svg>
