<?xml version="1.0" encoding="utf-8"?>
<!-- Generator: Adobe Illustrator 23.0.0, SVG Export Plug-In . SVG Version: 6.00 Build 0)  -->
<svg version="1.0" id="Layer_1" xmlns="http://www.w3.org/2000/svg" xmlns:xlink="http://www.w3.org/1999/xlink" x="0px" y="0px"
	 width="100px" height="100px" viewBox="0 0 100 100" enable-background="new 0 0 100 100" xml:space="preserve">
<path fill="#FFFFFF" d="M78.3,12.9c-18.9,0-37.7,0-56.6,0c-3.5,0-6.3,2.8-6.3,6.3c0,18.8,0,37.7,0,56.5c0,3.5,2.8,6.3,6.3,6.3
	c18.8,0,37.7,0,56.5,0c3.5,0,6.3-2.8,6.3-6.3c0-18.8,0-37.7,0-56.5C84.6,15.7,81.7,12.9,78.3,12.9z M78.3,73.1
	c-0.1,1.5-1.3,2.8-2.9,2.9c-16.8,1.3-34,1.1-50.8,0c-1.5-0.1-2.8-1.3-2.9-2.9c-1.2-16.8-1.4-34.1,0-50.9c0.1-1.5,1.3-2.8,2.9-2.9
	c16.8-1.2,34.1-1.4,50.9,0c1.5,0.1,2.8,1.3,2.9,2.9C79.7,39.1,79.4,56.3,78.3,73.1L78.3,73.1z"/>
<path fill="#FFFFFF" d="M67.3,38.7c-1,0-1.5,0-2.4-0.1c-0.1-5-0.2-7.4-0.4-11.9c-0.1-0.9-0.8-1.6-1.8-1.7c-0.9-0.1-1.7,0.7-1.6,1.6
	c0.2,4.5,0.3,7,0.4,12c-0.9,0-1.4,0-2.3,0c-1,0-1.8,0.8-1.8,1.8c0,2.3,0,3.5,0,5.8c0,1,0.8,1.8,1.8,1.8c1,0,1.6,0,2.6,0
	c0,1.6,0,2.4,0,4c0,1,0.8,1.8,1.7,1.8c1,0,1.7-0.8,1.7-1.8c0-1.6,0-2.4,0-3.9c1,0,1.5,0,2.4,0c0.9,0,1.7-0.8,1.7-1.8
	c0-2.3,0-3.4,0-5.6C69,39.5,68.3,38.7,67.3,38.7z"/>
<path fill="#FFFFFF" d="M43.4,30.2c-1,0-1.5,0-2.5,0c0-1.5,0.1-2.2,0.1-3.6c0-0.9-0.7-1.6-1.7-1.6c-1,0-1.8,0.7-1.8,1.6
	c-0.1,1.4-0.1,2.1-0.2,3.6c-1,0-1.5,0.1-2.4,0.1c-0.9,0-1.7,0.8-1.8,1.8c-0.1,2.1-0.1,3.3-0.2,5.5c0,1,0.7,1.7,1.7,1.7
	c1,0,1.5,0,2.5-0.1c-0.1,5-0.1,7.6,0,12.6c0,1,0.8,1.8,1.8,1.8c1,0,1.8-0.8,1.8-1.8c0-5.1,0-7.8,0-12.8c1,0,1.5,0,2.6,0
	c1,0,1.8-0.8,1.8-1.8c0-2.3,0-3.4,0.1-5.6C45.2,31,44.3,30.2,43.4,30.2z"/>
<path fill="#FFFFFF" d="M63.2,58.7c-3.3,0.1-6,2.8-6.1,5.9c-0.1,3.1,2.5,5.6,5.6,5.4c3.1-0.2,5.7-2.7,5.9-5.8
	C68.9,61.1,66.5,58.6,63.2,58.7z"/>
<path fill="#FFFFFF" d="M39,58.8c-3.3-0.1-5.8,2.5-5.6,5.6c0.2,3.1,2.8,5.7,6,5.7c3.2,0,5.8-2.3,5.7-5.4C45,61.5,42.3,58.8,39,58.8z
	"/>
</svg>
