<?xml version="1.0" encoding="utf-8"?>
<!-- Generator: Adobe Illustrator 23.0.0, SVG Export Plug-In . SVG Version: 6.00 Build 0)  -->
<svg version="1.0" id="Layer_1" xmlns="http://www.w3.org/2000/svg" xmlns:xlink="http://www.w3.org/1999/xlink" x="0px" y="0px"
	 width="50px" height="50px" viewBox="0 0 50 50" enable-background="new 0 0 50 50" xml:space="preserve">
<g>
	<path fill="#FFFFFF" d="M25.5,22.9l0.9-0.9l-0.9-0.9c-0.1-0.1-0.3-0.3-0.4-0.4c-0.1,0-0.2,0-0.3,0c-5.2,0-7.8,0.1-12.9,0.5
		c-1.4,0.1-2.8,1.4-3.2,2.9c-0.3,1.6,0.8,2.8,2.3,2.7c5.3-0.2,8.1-0.2,13.2-0.2C24.1,25.2,24.5,23.9,25.5,22.9z"/>
	<path fill="#FFFFFF" d="M35.5,31l-0.9-0.9L33.7,31c-0.9,0.9-2,1.3-3.3,1.3c-1.2,0-2.4-0.5-3.3-1.3l-1.6-1.6c0,0,0,0,0,0
		c-0.3,0-0.6,0-0.9,0c-1.5,0-2.8,1.4-2.8,3c-0.1,1.7,1.2,3,2.8,3c5.2,0,7.7,0,12.8-0.1c1.6-0.1,2.8-1.4,2.8-3c0-0.1,0-0.1,0-0.1
		c-0.5,0.2-0.9,0.2-1.4,0.2C37.5,32.3,36.4,31.8,35.5,31z"/>
	<path fill="#FFFFFF" d="M15.7,29.3c-1.9,0.1-2.8,0.1-4.6,0.1c-1.6,0-2.9,1.3-3,2.8c-0.1,1.6,1.2,2.9,2.8,2.9
		c1.8,0.1,2.7,0.1,4.6,0.1c1.5,0,2.8-1.3,2.9-3C18.5,30.6,17.3,29.3,15.7,29.3z"/>
</g>
<path fill="#FFFFFF" d="M38.7,21.8l2.8-2.8c0.6-0.6,0.6-1.6,0-2.2l-1.6-1.6c-0.6-0.6-1.6-0.6-2.3,0l-2.8,2.8c-0.1,0.1-0.4,0.1-0.5,0
	l-2.8-2.8c-0.6-0.6-1.6-0.6-2.3,0l-1.6,1.6c-0.6,0.6-0.6,1.6,0,2.2l2.8,2.8c0.1,0.1,0.1,0.4,0,0.5L27.7,25c-0.6,0.6-0.6,1.6,0,2.2
	l1.6,1.6c0.6,0.6,1.6,0.6,2.3,0l2.8-2.8c0.1-0.1,0.4-0.1,0.5,0l2.8,2.8c0.6,0.6,1.6,0.6,2.3,0l1.6-1.6c0.6-0.6,0.6-1.6,0-2.2
	l-2.8-2.8C38.6,22.1,38.6,21.9,38.7,21.8z"/>
</svg>
