<?xml version="1.0" encoding="utf-8"?>
<!-- Generator: Adobe Illustrator 23.0.0, SVG Export Plug-In . SVG Version: 6.00 Build 0)  -->
<svg version="1.0" id="Layer_1" xmlns="http://www.w3.org/2000/svg" xmlns:xlink="http://www.w3.org/1999/xlink" x="0px" y="0px"
	 width="50px" height="50px" viewBox="0 0 50 50" enable-background="new 0 0 50 50" xml:space="preserve">
<path fill="#FFFFFF" d="M40.2,24.5c-0.4-1.2-0.6-2.1-1.6-3.1c-0.6-0.7-1.6-1.3-2.7-1.8c-1.1-0.5-2.8-0.7-4-0.7
	c-1.3-0.1-2.7,0.1-4,0.5c-0.2,0-0.9,0.2-1.8,0.4c-1,0.2-2,0.4-3.2,0.5c-1.1,0.1-2.2,0.1-3.1,0.1c-0.9-0.1-1.5-0.4-1.5-0.7
	c-0.1-0.5,0-0.9,0.2-1.2c0.2-0.4,0.6-0.6,1.1-1c0.5-0.2,1-0.5,1.6-0.7c0.6-0.2,1.1-0.4,1.5-0.5c1.5-0.5,3.1-0.7,4.6-0.9
	c1.6,0,3.3,0.1,4.9,1c0.2,0.1,0.5,0.1,0.7,0.1c0.2,0,0.4-0.1,0.5-0.4c0.7-1.5,1.3-2.8,2-3.9c0.1-0.1,0.1-0.2,0-0.5
	c-0.1-0.1-0.2-0.4-0.5-0.5c-2.8-2-5.4-2.8-7.9-3.4c-0.2,0-0.6-0.1-0.9-0.4c-0.2-0.2-0.5-0.4-0.5-0.6c-0.1-0.4-0.1-0.6-0.2-1
	c0-0.2-0.2-0.4-0.5-0.6C24.6,5.1,24.4,5,24,5c-2.9,0.1-5.1,0.6-7.7,1.5c-0.2,0.1-0.5,0.2-0.7,0.5c-0.1,0.2-0.2,0.5-0.2,0.7
	c0,0.5,0.1,0.7,0.1,1.2c0,0.2,0,0.6-0.1,0.9c-0.1,0.2-0.4,0.5-0.6,0.7c-0.7,0.6-1.5,1.3-2.2,2.2c-0.6,0.7-1.2,1.6-1.7,2.6
	s-0.9,1.8-1.1,2.9c-0.2,1.1-0.4,2.2-0.1,3.7c0.2,1.5,0.6,2.7,1.3,3.7s1.6,1.8,2.6,2.6c1,0.6,2,1.1,3.1,1.2c1.1,0.2,2.1,0.4,3.3,0.4
	c1.1,0.1,2.6,0,3.8-0.4c1.2-0.2,2.3-0.6,3.1-0.9c0.9-0.2,1.7-0.5,2.4-0.9c0.7-0.2,1.5-0.5,2-0.7c0.6-0.1,1-0.2,1.3-0.2
	s0.6,0.2,0.7,0.5c0.2,0.6,0,1.3-0.5,2.2c-0.6,0.9-1.5,1.7-2.9,2.4c-1.5,0.9-3.4,1.5-5.7,1.7c-2.4,0.2-4.5-0.4-6.5-0.9
	c-0.2-0.1-0.6,0-0.9,0.1c-0.2,0.1-0.5,0.4-0.6,0.7c-0.9,2.4-1.3,3.8-2.9,5.7c-0.2,0.2-0.2,0.5-0.1,0.9c0.1,0.4,0.5,0.6,0.9,0.7
	c1.7,0.7,3.5,1.2,5.1,1.5c1.7,0.2,3.3,0.1,5.1-0.1c0.4,0,0.7,0,1.1,0.1c0.4,0.1,0.6,0.4,0.7,0.6c0.2,0.6,0.5,1,0.7,1.6
	c0.1,0.2,0.4,0.4,0.7,0.5c0.4,0.1,0.9,0,1.2-0.1c3.7-1.2,4.5-2.2,6.5-4.5c0.2-0.2,0.4-0.6,0.5-0.9c0.1-0.4,0.1-0.6,0.1-0.9
	c-0.1-0.4-0.1-0.6-0.2-1c-0.1-0.2,0-0.5,0.1-0.9c0.1-0.4,0.4-0.7,0.6-1c2.3-2.8,3.3-3.8,3.9-5.7C40.6,28.7,40.6,26.5,40.2,24.5z"/>
</svg>
