<?xml version="1.0" encoding="utf-8"?>
<!-- Generator: Adobe Illustrator 23.0.0, SVG Export Plug-In . SVG Version: 6.00 Build 0)  -->
<svg version="1.0" id="follow_x5F_icon" xmlns="http://www.w3.org/2000/svg" xmlns:xlink="http://www.w3.org/1999/xlink" x="0px"
	 y="0px" width="50px" height="50px" viewBox="0 0 50 50" enable-background="new 0 0 50 50" xml:space="preserve">
<path fill="none" d="M30.8,34.5c-1.9,0.2-3.6,1.8-3.5,3.3c0,1.6,1.8,3.1,3.6,2.9c1.8-0.2,3.6-1.6,3.6-3.3S32.7,34.3,30.8,34.5z"/>
<path fill="#FFFFFF" d="M31.8,28.3L31,27.4l-0.9,0.9c-0.9,0.9-2,1.3-3.2,1.3c-1.2,0-2.4-0.5-3.2-1.3L22,26.7c-1.8-1.8-1.8-4.7,0-6.5
	l0.9-0.9L22,18.5c-1.8-1.8-1.8-4.7,0-6.5l1.6-1.6c0.9-0.9,2-1.3,3.2-1.3c1.2,0,2.4,0.5,3.2,1.3l0.9,0.9l0.9-0.9
	c0.2-0.2,0.4-0.4,0.7-0.6c-0.2-1.1-1.1-2.1-2.2-2.1c-5.3-0.3-13-0.2-14.3,0.1C14.8,8.1,13.4,9,13,10.6c-1.8,8.5-1.5,19-0.2,27.6
	c0.5,3,2.4,4.3,4.5,4.3c4.3-0.1,6.5-0.5,11-0.8c2.2-0.4,3.9-1.9,3.9-4.4c0-2.9,0.1-5.7,0.1-8.6C32.2,28.6,32,28.5,31.8,28.3z
	 M28.1,40.7c-1.8,0.2-3.6-1.3-3.6-2.9c0-1.6,1.6-3.1,3.5-3.3c1.9-0.2,3.7,1.2,3.6,2.9C31.6,39.1,29.8,40.5,28.1,40.7z"/>
<path fill="#FFFFFF" d="M35,19.1l2.8-2.8c0.6-0.6,0.6-1.6,0-2.2l-1.6-1.6c-0.6-0.6-1.6-0.6-2.2,0l-2.8,2.8c-0.1,0.1-0.4,0.1-0.5,0
	l-2.8-2.8c-0.6-0.6-1.6-0.6-2.2,0l-1.6,1.6c-0.6,0.6-0.6,1.6,0,2.2l2.8,2.8c0.1,0.1,0.1,0.4,0,0.5l-2.8,2.8c-0.6,0.6-0.6,1.6,0,2.2
	l1.6,1.6c0.6,0.6,1.6,0.6,2.2,0l2.8-2.8c0.1-0.1,0.4-0.1,0.5,0l2.8,2.8c0.6,0.6,1.6,0.6,2.2,0l1.6-1.6c0.6-0.6,0.6-1.6,0-2.2
	L35,19.6C34.9,19.5,34.9,19.2,35,19.1z"/>
</svg>
