<?xml version="1.0" encoding="utf-8"?>
<!-- Generator: Adobe Illustrator 23.0.0, SVG Export Plug-In . SVG Version: 6.00 Build 0)  -->
<svg version="1.0" id="follow_x5F_icon" xmlns="http://www.w3.org/2000/svg" xmlns:xlink="http://www.w3.org/1999/xlink" x="0px"
	 y="0px" width="50px" height="50px" viewBox="0 0 50 50" enable-background="new 0 0 50 50" xml:space="preserve">
<path opacity="0.25" fill="#FFFFFF" enable-background="new    " d="M40.5,34.7L40.1,16c0-1.5-0.7-2.7-1.7-3.5
	c-0.1,6.1-0.2,9.4-0.3,15.4c0,2.7,0,8.4,0,11.1C39.6,38.4,40.6,36.7,40.5,34.7z"/>
<path opacity="0.25" fill="#FFFFFF" enable-background="new    " d="M12.4,12.6C10.6,13,9.2,14.9,9.2,17l0.4,18.9
	c0,1.7,1.6,3.4,3.1,4C11.9,30.4,11.4,20.6,12.4,12.6z"/>
<g>
	<g>
		<path fill="#FFFFFF" d="M33.2,7.7c-5.3-0.3-13-0.2-14.3,0.1c-1.3,0.3-2.7,1.2-3.1,2.8c-0.4,2-0.7,4.1-0.9,6.3
			c0.5-0.3,1-0.5,1.7-0.5c1.7,0,3,1.3,3,3s-1.3,3-3,3c-0.8,0-1.4-0.3-1.9-0.7c-0.1,2.3,0,4.7,0.1,7l3.7-3.9l2.8,2.6l8.5-8.5l5.5,5.8
			c0.1-4.7,0.2-9.4,0.2-14.1C35.6,9.3,34.6,7.7,33.2,7.7z"/>
	</g>
	<g>
		<path fill="#FFFFFF" d="M15,33.2c0.2,1.7,0.4,3.4,0.6,5c0.5,3,2.4,4.3,4.5,4.3c4.3-0.1,6.5-0.5,11-0.8c2.2-0.4,3.9-1.9,3.9-4.4
			c0-1.4,0-2.7,0.1-4.1H15z M30.8,40.7c-1.8,0.2-3.6-1.3-3.6-2.9c0-1.5,1.7-3,3.6-3.3c1.9-0.2,3.7,1.2,3.6,2.9
			C34.4,39.1,32.6,40.5,30.8,40.7z"/>
	</g>
</g>
<path opacity="0.75" fill="#FFFFFF" enable-background="new    " d="M29.7,19.1l-8.5,8.5l-2.8-2.6l-3.7,3.9c0.1,1.5,0.2,3,0.3,4.4
	h20.1c0-2.8,0.1-5.6,0.1-8.3L29.7,19.1z"/>
<g opacity="0.75" enable-background="new    ">
	<path fill="#FFFFFF" d="M19.5,19.5c0-1.7-1.3-3-3-3c-0.6,0-1.2,0.2-1.7,0.5c-0.1,1.6-0.2,3.2-0.3,4.8c0.5,0.4,1.2,0.7,1.9,0.7
		C18.2,22.5,19.5,21.1,19.5,19.5z"/>
</g>
</svg>
