<?xml version="1.0" encoding="utf-8"?>
<!-- Generator: Adobe Illustrator 23.0.0, SVG Export Plug-In . SVG Version: 6.00 Build 0)  -->
<svg version="1.0" id="Layer_1" xmlns="http://www.w3.org/2000/svg" xmlns:xlink="http://www.w3.org/1999/xlink" x="0px" y="0px"
	 width="50px" height="50px" viewBox="0 0 50 50" enable-background="new 0 0 50 50" xml:space="preserve">
<path fill="#FFFFFF" d="M44.7,30.3c-0.1-0.1-0.2-0.2-0.3-0.4c-0.9-1.3-1.6-2.7-1.8-4.3c-0.3-2.4,0.7-4.3,2-6.1
	c0.3-0.5,0.6-0.9,0.2-1.4c-0.3-0.5-0.9-0.5-1.4-0.4c-2.4,0.5-4.3,1.6-5.9,3.5c-0.4,0.5-0.7,0.5-1.2,0.1c-1.5-1-3.1-2-4.6-2.9
	c-0.2-0.1-0.4-0.3-0.5-0.5c-0.9-1.7-1.7-3.4-2.7-5.1c-0.7-1.1-0.9-1.2-2.2-0.9c-3,0.7-5.5,2.2-7.8,4.1c-0.3,0.2-0.6,0.4-0.9,0.5
	c-1.8,0.5-3.6,0.9-5.3,1.5c-2.9,1.2-5.3,3.1-7.1,5.8c-0.5,0.7-0.5,1.3,0,2c0.9,1,1.7,2.1,2.7,3c2.6,2.3,5.8,3.5,9.2,4.2
	c0.2,0,0.5,0.2,0.7,0.3c2.9,2.8,6.4,4.3,10.4,4.9c1.3,0.2,1.8-0.4,1.4-1.6c-0.4-1.4-0.7-2.7-1.1-4.1c0.2-0.1,0.4-0.2,0.6-0.2
	c2.6-0.9,4.9-2.1,7.1-3.9c0.8-0.6,0.8-0.6,1.5,0.2c1.6,1.8,3.6,3,6,3.4c0.5,0.1,0.9,0,1.2-0.5C45.1,31.1,45,30.6,44.7,30.3z
	 M15.3,25.2c-0.2,0-0.4,0-0.5,0c-0.2,0-0.4,0-0.5,0c-0.9-0.1-1.6-0.9-1.5-2.1c0-1.1,0.6-1.8,1.5-1.9c0.3,0,0.7,0,1,0
	c0.9,0,1.5,0.8,1.5,1.9C16.8,24.3,16.2,25.1,15.3,25.2z"/>
</svg>
