<?xml version="1.0" encoding="utf-8"?>
<!-- Generator: Adobe Illustrator 23.0.0, SVG Export Plug-In . SVG Version: 6.00 Build 0)  -->
<svg version="1.0" id="follow_x5F_icon" xmlns="http://www.w3.org/2000/svg" xmlns:xlink="http://www.w3.org/1999/xlink" x="0px"
	 y="0px" width="50px" height="50px" viewBox="0 0 50 50" enable-background="new 0 0 50 50" xml:space="preserve">
<path fill="none" d="M30.8,34.5c-1.9,0.2-3.6,1.8-3.5,3.3c0,1.6,1.8,3.1,3.6,2.9c1.8-0.2,3.6-1.6,3.6-3.3
	C34.5,35.7,32.7,34.3,30.8,34.5z"/>
<g>
	<path fill="none" d="M30.8,34.5c-1.9,0.2-3.6,1.8-3.5,3.3c0,1.6,1.8,3.1,3.6,2.9c1.8-0.2,3.6-1.6,3.6-3.3
		C34.5,35.7,32.7,34.3,30.8,34.5z"/>
</g>
<path fill="#FFFFFF" d="M11.5,33.3c0-0.4,0-0.6,0-1.1c0-0.8,0.7-1.6,1.7-1.7c1.8-0.2,2.7-0.3,4.3-0.6c0.9-0.1,1.6-0.9,1.6-1.6
	c0-0.8,0-1.2,0-1.9c0-0.8,0-2,0-2.7c0-0.8,0-1.2,0-1.9c0-0.8-0.7-1.5-1.6-1.6c-1.6-0.3-2.5-0.4-4.3-0.6c-1-0.1-1.7-0.9-1.7-1.7
	c0-0.4,0-0.7,0-1.1c0-0.8-0.4-1-1-0.4c-2.3,2.2-4.2,4.7-5.8,7.4c-0.5,0.8-0.5,2.1,0,2.9c1.6,2.7,3.6,5.2,5.8,7.4
	C11.1,34.3,11.5,34,11.5,33.3z"/>
<path fill="#FFFFFF" d="M28.1,28.3v-6.6c0-2.2,1.8-4.3,4.1-4.6c1.2-0.2,2.1-0.3,3.2-0.5c0-2,0.1-3.9,0.1-5.9
	c0.1-1.5-0.8-3.1-2.2-3.1c-5.3-0.3-13-0.2-14.3,0.1c-1.3,0.3-2.7,1.2-3.1,2.8c-0.4,1.9-0.7,4-0.9,6.1c1.1,0.1,1.9,0.2,3.1,0.5
	c2.4,0.3,4.1,2.3,4.1,4.6v6.6c0,2.2-1.8,4.3-4.1,4.6c-1.2,0.2-2,0.3-3,0.5c0.2,1.7,0.4,3.3,0.6,4.9c0.5,3,2.4,4.3,4.5,4.3
	c4.3-0.1,6.5-0.5,11-0.8c2.2-0.4,3.9-1.9,3.9-4.4c0-1.3,0-2.7,0.1-4c-1-0.1-1.8-0.2-2.9-0.4C29.8,32.5,28.1,30.6,28.1,28.3z
	 M34.4,37.4c0,1.7-1.8,3.1-3.6,3.3c-1.8,0.2-3.6-1.3-3.6-2.9c0-1.6,1.6-3.1,3.5-3.3C32.7,34.3,34.5,35.7,34.4,37.4z"/>
<path fill="#FFFFFF" d="M38.7,16.7c0,0.4,0,0.6,0,1.1c0,0.8-0.7,1.6-1.7,1.7c-1.8,0.2-2.7,0.3-4.3,0.6c-0.9,0.1-1.6,0.9-1.6,1.6
	c0,0.7,0,1.2,0,1.9c0,0.8,0,2,0,2.7c0,0.8,0,1.2,0,1.9c0,0.8,0.7,1.5,1.6,1.6c1.6,0.3,2.5,0.4,4.3,0.6c1,0.1,1.7,0.9,1.7,1.7
	c0,0.4,0,0.7,0,1.1c0,0.8,0.4,1,1,0.4c2.3-2.2,4.2-4.7,5.8-7.4c0.5-0.8,0.5-2.1,0-2.9c-1.6-2.7-3.6-5.2-5.8-7.4
	C39.1,15.7,38.7,16,38.7,16.7z"/>
</svg>
