<?xml version="1.0" encoding="utf-8"?>
<!-- Generator: Adobe Illustrator 23.0.0, SVG Export Plug-In . SVG Version: 6.00 Build 0)  -->
<svg version="1.0" id="Layer_1" xmlns="http://www.w3.org/2000/svg" xmlns:xlink="http://www.w3.org/1999/xlink" x="0px" y="0px"
	 width="50px" height="50px" viewBox="0 0 50 50" enable-background="new 0 0 50 50" xml:space="preserve">
<path fill="#FFFFFF" d="M36,28.4c-0.1-0.1-0.1-0.2-0.2-0.2c-0.5-0.8-0.9-1.5-1-2.4c-0.2-1.3,0.4-2.4,1.1-3.4
	c0.2-0.3,0.3-0.5,0.1-0.8c-0.2-0.3-0.5-0.3-0.8-0.3c-1.3,0.3-2.4,0.9-3.3,1.9c-0.3,0.3-0.4,0.3-0.7,0.1c-0.8-0.6-1.7-1.1-2.5-1.6
	c-0.1-0.1-0.3-0.2-0.3-0.3c-0.5-0.9-0.9-1.9-1.5-2.8c-0.3-0.7-0.5-0.7-1.2-0.5c-1.7,0.3-3,1.3-4.3,2.3c-0.2,0.1-0.3,0.3-0.5,0.3
	c-1,0.3-2,0.5-2.9,0.8c-1.6,0.7-2.9,1.7-3.9,3.2c-0.3,0.4-0.3,0.8,0,1.1c0.5,0.6,0.9,1.2,1.4,1.7c1.4,1.3,3.2,1.9,5.1,2.3
	c0.2,0,0.3,0.1,0.4,0.2c1.6,1.5,3.5,2.4,5.7,2.7c0.7,0.1,1-0.2,0.8-0.9c-0.2-0.8-0.4-1.5-0.6-2.3c0.1-0.1,0.3-0.1,0.3-0.1
	c1.4-0.5,2.8-1.2,4-2.1c0.4-0.3,0.4-0.3,0.8,0.1c0.9,1,2,1.7,3.3,1.9c0.3,0.1,0.5,0,0.7-0.3C36.1,28.9,36.1,28.7,36,28.4z
	 M19.6,25.6c-0.1,0-0.2,0-0.3,0c-0.1,0-0.2,0-0.3,0c-0.5-0.1-0.8-0.5-0.8-1.2c0-0.6,0.3-1,0.8-1c0.2,0,0.3,0,0.5,0
	c0.5,0,0.8,0.4,0.8,1.1C20.5,25.1,20.1,25.6,19.6,25.6z"/>
<path fill="#FFFFFF" d="M44.7,21.3c-0.6-3.3-1.9-6.3-3.9-8.9c-0.1-0.1-0.1-0.2-0.2-0.3c0.1,0,0.2-0.1,0.3-0.1
	c1.2-0.3,1.9-1.5,1.8-2.6c-0.2-1.2-1.2-2.2-2.4-2.2c-0.5,0-1,0-1.4,0c-4.6,0-9.2,0-13.8,0c-4.6,0-9.2,0-13.8,0c-0.5,0-1,0-1.4,0
	c-1.2,0-2.2,0.9-2.4,2.2C7.2,10.5,8,11.7,9.1,12c0.1,0,0.2,0.1,0.3,0.1c-0.1,0.1-0.2,0.2-0.2,0.3c-2,2.6-3.3,5.6-3.9,8.9
	C5.2,22,5.1,22.7,5,23.4c0,0.8,0,1.6,0,2.4c0.1,0.8,0.2,1.5,0.3,2.3c1.3,6.7,5.1,11.5,11.2,14.6c0.2,0.1,0.3,0.1,0.5,0.1
	c2.7,0,13.3,0,15.9,0c0.2,0,0.4,0,0.5-0.1c6.1-3,9.9-7.9,11.2-14.6c0.1-0.8,0.2-1.5,0.3-2.3c0-0.8,0-1.6,0-2.4
	C44.9,22.7,44.8,22,44.7,21.3z M8.5,9.6c0-0.7,0.6-1.2,1.2-1.2c0.1,0,0.2,0,0.3,0c5,0,24.9,0,29.9,0c0.1,0,0.2,0,0.3,0
	c0.7,0,1.2,0.6,1.2,1.2c0,0.6-0.4,1.2-1.1,1.3c-0.2,0-0.3,0-0.5,0c-5,0-24.8,0-29.8,0c-0.2,0-0.3,0-0.5,0C8.9,10.8,8.5,10.2,8.5,9.6
	z M43.6,27.2c-1,6.5-4.5,11.2-10.3,14.3c-0.2,0.1-0.4,0.2-0.7,0.2c-2.6,0-12.8,0-15.4,0c-0.2,0-0.5-0.1-0.7-0.2
	c-5.8-3-9.3-7.8-10.3-14.3c-0.4-2.8-0.1-5.6,0.7-8.3c0.5-1.4,1.4-3,1.8-3.7c0.6-1,1.3-1.9,2-2.8c0.2-0.2,0.4-0.3,0.7-0.3
	c4.5,0,22.6,0,27.2,0c0.3,0,0.5,0.1,0.7,0.3c0.7,1,1.4,1.9,2,2.8c0.4,0.7,1,1.9,1.5,3.7C43.8,21.6,44.1,24.4,43.6,27.2z"/>
</svg>
