<?xml version="1.0" encoding="utf-8"?>
<!-- Generator: Adobe Illustrator 23.0.0, SVG Export Plug-In . SVG Version: 6.00 Build 0)  -->
<svg version="1.0" id="follow_x5F_icon" xmlns="http://www.w3.org/2000/svg" xmlns:xlink="http://www.w3.org/1999/xlink" x="0px"
	 y="0px" width="50px" height="50px" viewBox="0 0 50 50" enable-background="new 0 0 50 50" xml:space="preserve">
<g>
	<path opacity="0.25" enable-background="new    " d="M23.5,5.2c-0.8,0.2-2,0.6-2.5,0.8c-1.1,0.5-2.2,1-3.2,1.9
		c-0.2,0.1-0.3,0.1-0.5,0c-0.7-0.6-1.3-0.9-2-1.4c-0.3-0.2-0.7-0.5-1-0.3c-0.3,0.1-0.4,0.5-0.3,0.9c0.6,2.9,1.3,6.4,1.7,9.3
		c0.1,0.8,0.6,1.3,1.2,1.1c2.2-0.7,4.9-1.7,7.2-2.3c0.3-0.1,1.1-0.4,1.2-0.8c0.1-0.6-0.3-1.2-0.7-1.5c-0.6-0.5-1.5-1.1-2.1-1.5
		c0.5-0.4,0.4-0.4,1-0.6c2.4-0.8,4.7-0.7,6.6,0.8c1.8,1.3,2.2,2.9,2.7,5.6c0.1,0.5,0.2,1,0.3,1.7c0.1,0.8,0.5,1,0.9,0.8
		c0.9-0.3,2.7-1.1,3.7-1.5c0.3-0.1,0.4-0.5,0.5-0.8c0-0.2,0-0.1-0.1-0.6c0-0.1-0.1-0.2-0.1-0.3c-0.3-2.4-1.3-4.6-2.1-6.5
		c-2.2-4.1-5.3-5.3-8.3-5.2C26,4.9,24.3,5,23.5,5.2z"/>
	<path fill="#FFFFFF" d="M23.3,5.6c-0.6,0.2-1.1,0.4-1.6,0.6c-1.4,0.6-2.6,1.2-3.6,2.1c-0.2,0.1-0.3,0.1-0.5,0
		c-0.5-0.5-1.2-0.8-1.8-1.2c-0.3-0.2-0.7-0.4-1-0.2c-0.3,0.1-0.4,0.4-0.3,0.8c0.7,2.6,1.3,5.2,1.7,7.8c0.1,0.6,0.6,1,1.1,0.9
		c2.1-0.7,4.2-1.5,6.3-2.2c0.3-0.1,0.5-0.3,0.5-0.7s-0.1-0.6-0.5-0.8c-0.6-0.4-1.4-1-2-1.5c0.5-0.4,1.4-0.9,2-1.2
		c2.2-0.8,4.9-1,6.7,0.2c1.7,1,2.4,3.4,3,5.8c0.2,0.5,0.2,0.9,0.3,1.4c0.1,0.6,0.5,0.9,0.9,0.7c0.8-0.3,1.6-0.7,2.5-1
		c0.3-0.1,0.4-0.4,0.4-0.8c0-0.2,0-0.5-0.1-0.9c0-0.1-0.1-0.2-0.1-0.3c-0.4-2.1-1.1-4.2-2-5.7c-2.1-3.6-5.1-4.6-9.2-4.3
		c-0.5,0-1,0.1-1.5,0.2C24,5.4,23.7,5.5,23.3,5.6z"/>
</g>
<g>
	<path opacity="0.25" enable-background="new    " d="M43.9,18.1c0-1-0.8-2.3-1.7-2.3c-0.4,0-1.4-0.1-2.7-0.2c0,0.2,0.1,0.3,0.1,0.5
		c0,0.1,0.1,0.3,0.1,0.4l0.1,0.2c0.1,0.2,0.1,0.3,0.1,0.6l-0.1,0.5c-0.2,0.5-0.5,1.4-1.4,1.8c-0.3,0.1-0.7,0.3-1.1,0.5
		c-0.9,0.4-1.8,0.8-2.5,1c-0.3,0.1-0.5,0.2-0.8,0.2c-0.8,0-1.9-0.6-2.1-2.2c-0.1-0.6-0.2-1.1-0.3-1.6c-0.2-0.8-0.3-1.5-0.4-2
		c-0.7,0.3-1.1,0.9-1.3,1.5c-0.5,2.2-1.1,12.7-0.8,20.7c0.1,1.8,1.5,3.4,3.4,3.1c1.9-0.3,6.9-0.8,8.8-1.1c1.9-0.3,3.4-1.7,3.4-3.1
		C43.9,28.3,43.7,22.3,43.9,18.1z"/>
	<path fill="#FFFFFF" d="M43,17.2c0.2-1.1-0.6-2.3-1.6-2.3c-0.7-0.1-1.4-0.2-2.1-0.2c0.1,0.5,0.2,1,0.3,1.5c0,0.1,0.1,0.3,0.1,0.4
		l0.1,0.2c0.1,0.2,0.1,0.3,0.1,0.6l-0.1,0.5c-0.2,0.5-0.5,1.4-1.4,1.8c-0.3,0.1-0.7,0.3-1.1,0.5c-0.9,0.4-1.8,0.8-2.5,1
		c-0.3,0.1-0.5,0.2-0.8,0.2c-0.8,0-1.9-0.6-2.1-2.2c-0.1-0.6-0.2-1.1-0.3-1.6c-0.2-1.3-0.4-2.3-0.7-3c-0.7,0.2-1.5,0.7-1.8,1.8
		c-0.8,3.4-1.6,18.3-1.1,20.7c0.5,2.3,1.7,3.1,3.4,3.1c3.3-0.2,5.2-0.6,8.8-0.9c1.9-0.5,3.1-1.6,3.1-3.1C43,34.3,43,25.2,43,17.2z
		 M39.8,38.5c-1.4,0.2-2.8-0.8-2.8-2s1.3-2.2,2.8-2.5c1.4-0.2,2.8,0.8,2.8,2C42.8,37.2,41.3,38.2,39.8,38.5z"/>
</g>
<g>
	<path opacity="0.25" enable-background="new    " d="M24.6,16.7c-1.5,0.4-3.2,1-4.8,1.5c-0.8,0.3-1.6,0.5-2.3,0.8
		C17.2,19,17,19,16.7,19c-1.2,0-2.2-1-2.4-2.5c-0.2-1.4-0.5-3-0.8-4.6c-1.7,0-3,0-3.5,0c-1.6,0-2.5,0.9-2.6,2.2
		C6.7,17,6.5,30.5,7.3,41.3c0.1,2.3,2.3,4.3,4.4,3.7c2.1-0.6,8.5-1.5,10.8-2c2.3-0.6,4.2-2.4,4-4c-1-9.8-1.5-17.2-1.6-22.5
		C24.8,16.6,24.8,16.6,24.6,16.7L24.6,16.7z"/>
	<path fill="#FFFFFF" d="M17.5,18.9C17.2,19,17,19,16.7,19c-1.2,0-2.2-1-2.4-2.5c-0.3-2-0.7-4.2-1.1-6.4c-2.1,0-3.7,0.1-4.2,0.2
		c-1.1,0.2-2.3,1.1-2.7,2.7c-0.9,4.4-1.1,23.6-0.5,26.8c0.5,3.2,2.1,4.1,4.4,3.9c4.3-0.5,6.4-1.1,10.8-1.8c2.1-0.7,3.7-2.1,3.6-4.3
		c0-1.8-0.3-11.5-0.6-20.9c-1.3,0.4-2.8,0.9-4.2,1.3C19,18.4,18.2,18.7,17.5,18.9z M24.3,37.8c0.1,1.6-1.7,3-3.4,3.6
		c-1.8,0.4-3.6-0.9-3.6-2.5c0-1.6,1.4-3,3.4-3.6C22.7,35.1,24.3,36.2,24.3,37.8z"/>
</g>
</svg>
