<?xml version="1.0" encoding="utf-8"?>
<!-- Generator: Adobe Illustrator 23.0.0, SVG Export Plug-In . SVG Version: 6.00 Build 0)  -->
<svg version="1.0" id="follow_x5F_icon" xmlns="http://www.w3.org/2000/svg" xmlns:xlink="http://www.w3.org/1999/xlink" x="0px"
	 y="0px" width="50px" height="50px" viewBox="0 0 50 50" style="enable-background:new 0 0 50 50;" xml:space="preserve">
<style type="text/css">
	.st0{fill:none;}
	.st1{opacity:0.75;fill:#FFFFFF;}
	.st2{fill:#FFFFFF;}
</style>
<g>
	<path class="st0" d="M30.8,34.5c-1.9,0.2-3.6,1.8-3.5,3.3c0,1.6,1.8,3.1,3.6,2.9c1.8-0.2,3.6-1.6,3.6-3.3
		C34.5,35.7,32.7,34.3,30.8,34.5z"/>
	<path class="st1" d="M20.5,23.7c0.9,0,1.6-0.7,1.6-1.6c0-0.9-0.7-1.6-1.6-1.6c-0.9,0-1.6,0.7-1.6,1.6C18.9,23,19.6,23.7,20.5,23.7z
		"/>
	<polygon class="st1" points="23,26.4 21.5,25 18.9,27.7 18.9,29.4 31.1,29.4 31.1,25.7 27.5,21.9 	"/>
	<path class="st2" d="M33.2,7.7c-5.3-0.3-13-0.2-14.3,0.1c-1.3,0.3-2.7,1.2-3.1,2.8c-1.8,8.5-1.5,19-0.2,27.6c0.5,3,2.4,4.3,4.5,4.3
		c4.3-0.1,6.5-0.5,11-0.8c2.2-0.4,3.9-1.9,3.9-4.4c0.1-8.8,0.3-17.7,0.4-26.5C35.6,9.3,34.6,7.7,33.2,7.7z M22,22.2
		c0,0.9-0.7,1.6-1.6,1.6c-0.9,0-1.6-0.7-1.6-1.6c0-0.9,0.7-1.6,1.6-1.6C21.3,20.6,22,21.3,22,22.2z M18.9,27.7l2.7-2.7l1.4,1.4
		l4.6-4.5l3.6,3.7l0,3.7l-12.3,0L18.9,27.7z M30.9,40.7c-1.8,0.2-3.6-1.3-3.6-2.9c0-1.6,1.6-3.1,3.5-3.3c1.9-0.2,3.7,1.2,3.6,2.9
		C34.4,39.1,32.6,40.5,30.9,40.7z"/>
</g>
</svg>
