<?xml version="1.0" encoding="utf-8"?>
<!-- Generator: Adobe Illustrator 23.0.0, SVG Export Plug-In . SVG Version: 6.00 Build 0)  -->
<svg version="1.0" id="follow_x5F_icon" xmlns="http://www.w3.org/2000/svg" xmlns:xlink="http://www.w3.org/1999/xlink" x="0px"
	 y="0px" width="50px" height="50px" viewBox="0 0 50 50" enable-background="new 0 0 50 50" xml:space="preserve">
<path fill="none" d="M30.8,34.5c-1.9,0.2-3.6,1.8-3.5,3.3c0,1.6,1.8,3.1,3.6,2.9c1.8-0.2,3.6-1.6,3.6-3.3
	C34.5,35.7,32.7,34.3,30.8,34.5z"/>
<g>
	<path fill="none" d="M32.2,36.9c0,0.7-0.2,1.5-0.7,2.2l-0.1,0.2l-0.2,0.2c-0.4,0.4-0.8,0.8-1.2,1.2c0.3,0,0.6,0.1,0.9,0
		c1.8-0.2,3.6-1.6,3.6-3.3c0-1.6-1.4-2.9-3.2-2.9C31.9,35.2,32.2,36,32.2,36.9z"/>
</g>
<path fill="#FFFFFF" d="M28.5,36.4c-0.4,0-0.6,0-1.1,0c-0.8,0-1.6-0.7-1.7-1.7c-0.2-1.8-0.3-2.7-0.6-4.3c-0.1-0.9-0.9-1.6-1.6-1.6
	c-0.8,0-1.2,0-1.9,0c-0.8,0-2,0-2.7,0c-0.8,0-1.2,0-1.9,0c-0.8,0-1.5,0.7-1.6,1.6c-0.3,1.6-0.4,2.5-0.6,4.3c-0.1,1-0.9,1.7-1.7,1.7
	c-0.4,0-0.7,0-1.1,0c-0.8,0-1,0.4-0.4,1c2.2,2.3,4.7,4.2,7.4,5.8c0.8,0.5,2.1,0.5,2.9,0c2.7-1.6,5.2-3.6,7.4-5.8
	C29.5,36.8,29.2,36.4,28.5,36.4z"/>
<path fill="#FFFFFF" d="M33.2,7.7c-1.6-0.1-3.4-0.2-5.2-0.2c1.1,0.9,2.1,1.8,3,2.8c1,1,1.2,2,1.2,2.7c0,0,0,0,0,0
	c0,1.7-1.3,3.4-3.7,3.4c-0.1,1.3-0.3,2.2-0.5,3.5c-0.3,2.4-2.3,4.1-4.6,4.1h-6.6c-0.8,0-1.6-0.3-2.3-0.7c0,1,0,2,0,3
	c0.7-0.4,1.4-0.6,2.3-0.6h6.6c2.2,0,4.3,1.8,4.6,4.1c0.3,1.4,0.4,2.3,0.5,3.5c0.8,0,1.6,0.2,2.2,0.6c0.2,0.1,0.4,0.3,0.6,0.5
	c1.7,0,3.2,1.3,3.2,2.9c0,1.7-1.8,3.1-3.6,3.3c-0.3,0-0.6,0-0.9,0c-0.4,0.4-0.9,0.8-1.3,1.2c0.8-0.1,1.6-0.1,2.5-0.2
	c2.2-0.4,3.9-1.9,3.9-4.4c0.1-8.8,0.3-17.7,0.4-26.5C35.6,9.3,34.6,7.7,33.2,7.7z"/>
<path fill="#FFFFFF" d="M11.8,13.4c0.4,0,0.6,0,1.1,0c0.8,0,1.6,0.7,1.7,1.7c0.2,1.8,0.3,2.7,0.6,4.3c0.1,0.9,0.9,1.6,1.6,1.6
	c0.7,0,1.2,0,1.9,0c0.8,0,2,0,2.7,0c0.8,0,1.2,0,1.9,0c0.8,0,1.5-0.7,1.6-1.6c0.3-1.6,0.4-2.5,0.6-4.3c0.1-1,0.9-1.7,1.7-1.7
	c0.4,0,0.7,0,1.1,0c0.8,0,1-0.4,0.4-1c-2.2-2.3-4.7-4.2-7.4-5.8c-0.8-0.5-2.1-0.5-2.9,0c-2.7,1.6-5.2,3.6-7.4,5.8
	C10.8,13,11.1,13.4,11.8,13.4z"/>
</svg>
