<?xml version="1.0" encoding="utf-8"?>
<!-- Generator: Adobe Illustrator 23.0.0, SVG Export Plug-In . SVG Version: 6.00 Build 0)  -->
<svg version="1.0" id="follow_x5F_icon" xmlns="http://www.w3.org/2000/svg" xmlns:xlink="http://www.w3.org/1999/xlink" x="0px"
	 y="0px" width="50px" height="50px" viewBox="0 0 50 50" enable-background="new 0 0 50 50" xml:space="preserve">
<g>
	<path fill="none" d="M41.4,21.2l-3.1-2.7c0,2.1-0.1,4.2-0.1,6.4L41.4,21.2z"/>
	<path fill="none" d="M10.8,26.2c-1.3,1.4-1.1,3.7,0.3,5c0.2,0.2,0.5,0.3,0.7,0.5c-0.2-2-0.3-4.1-0.3-6.1
		C11.3,25.7,11,25.9,10.8,26.2z"/>
	<path fill="#FFFFFF" d="M30.1,4.6l-0.4-0.4c-1.9-1.7-4.9-1.6-6.6,0.4c1.4,0,2.7,0,3.2,0C27.3,4.5,28.6,4.5,30.1,4.6z"/>
	<path fill="#FFFFFF" d="M20.2,45.5L20.2,45.5c-0.2,0-0.3,0-0.4,0l0.5,0.4c2,1.7,5,1.6,6.7-0.4l0.4-0.4
		C25.1,45.3,23.1,45.5,20.2,45.5L20.2,45.5z"/>
	<path fill="#FFFFFF" d="M11.9,31.6c-0.3-0.1-0.5-0.3-0.7-0.5c-1.4-1.3-1.6-3.5-0.3-5c0.2-0.3,0.5-0.5,0.8-0.6
		c0-2.9,0.1-5.6,0.3-8.3l-7.4,8.5c-1.7,2-1.6,5,0.4,6.7l8,7c-0.1-0.3-0.1-0.5-0.2-0.8C12.3,36.3,12,34,11.9,31.6z"/>
	<path fill="#FFFFFF" d="M44.9,17.6l-6.5-5.7c0,2.2,0,4.4-0.1,6.6l3.1,2.7l-3.2,3.7c0,0.8,0,1.5,0,2.3c0,1.9-0.1,3.7-0.1,5.6
		l7.4-8.4C47.2,22.4,47,19.3,44.9,17.6z"/>
	<path opacity="0.75" fill="#FFFFFF" d="M35.1,15.7l-11.7,0.6l0.8,14.3l-4.5,0.3l0.6,8.6l2.8,2.5l4-4.6c0.2-1,1-1.9,2.1-2.4l5.8-6.6
		c0.1-4.2,0.1-8.3,0.2-12.5L35.1,15.7z"/>
	<path opacity="0.75" fill="#FFFFFF" d="M15.8,25.9c-0.4-0.3-0.8-0.5-1.2-0.7c0,2.2,0.1,4.4,0.3,6.5c0.5-0.2,0.9-0.5,1.2-0.9
		C17.4,29.4,17.2,27.1,15.8,25.9z"/>
	<path fill="#FFFFFF" d="M33.8,7.8L35,8.9C34.7,8.4,34.3,8,33.8,7.8z"/>
	<path fill="#FFFFFF" d="M35,8.9l-1.2-1.1c-0.2-0.1-0.4-0.1-0.6-0.1c-4.3-0.3-10.2-0.2-13-0.1c-0.6,0-1.1,0.1-1.4,0.1
		c-1.3,0.3-2.7,1.2-3.1,2.8c-0.2,0.9-0.3,1.8-0.5,2.7c-0.6,3.8-0.8,7.9-0.8,11.9c0.4,0.1,0.8,0.4,1.2,0.7c1.4,1.3,1.6,3.5,0.3,5
		c-0.3,0.4-0.8,0.7-1.2,0.9c0.2,2.2,0.4,4.4,0.8,6.5c0.5,3,2.4,4.3,4.5,4.3c4-0.1,6.2-0.4,10-0.7c0.3,0,0.6,0,0.9-0.1
		c2.2-0.4,3.9-1.9,3.9-4.4c0-0.4,0-0.7,0-1.1c0-2.6,0.1-5.3,0.1-7.9l-5.8,6.6c0.4-0.2,0.9-0.3,1.4-0.4c1.8-0.2,3.4,1,3.6,2.5
		c0,0.1,0,0.3,0,0.4c0,1.6-1.6,2.9-3.2,3.3c-0.1,0-0.2,0.1-0.3,0.1c-1.8,0.2-3.6-1.3-3.6-2.9c0-0.2,0-0.4,0.1-0.5l-4,4.6l-2.8-2.5
		l-0.6-8.6l4.5-0.3l-0.8-14.3l11.7-0.6l0.2,0.2c0-1.7,0.1-3.4,0.1-5C35.5,10.1,35.3,9.4,35,8.9z"/>
</g>
</svg>
