<?xml version="1.0" encoding="utf-8"?>
<!-- Generator: Adobe Illustrator 23.0.0, SVG Export Plug-In . SVG Version: 6.00 Build 0)  -->
<svg version="1.0" id="follow_x5F_icon" xmlns="http://www.w3.org/2000/svg" xmlns:xlink="http://www.w3.org/1999/xlink" x="0px"
	 y="0px" width="50px" height="50px" viewBox="0 0 50 50" enable-background="new 0 0 50 50" xml:space="preserve">
<g>
	<path opacity="0.25" fill="#FFFFFF" d="M40.5,30.3l-0.4-15c0-1.2-0.7-2.2-1.7-2.8c-0.1,4.9-0.1,9.8-0.2,14.6c0,2.2-0.1,4.4-0.1,6.6
		C39.6,33.2,40.6,31.9,40.5,30.3z"/>
	<path opacity="0.25" fill="#FFFFFF" d="M12.4,12.6c-1.8,0.3-3.2,1.8-3.2,3.5l0.4,15.1c0,1.4,1,2.7,2.5,3.2
		C11.3,26.8,11.4,19,12.4,12.6z"/>
	<path fill="#FFFFFF" d="M15.6,38.2c0.5,3,2.4,4.3,4.5,4.3c4.3-0.1,6.5-0.5,11-0.8c2.2-0.4,3.9-1.9,3.9-4.4c0-1.1,0-2.2,0.1-3.3
		l-19.9,0.5C15.3,35.8,15.5,37,15.6,38.2z M30.8,34.5c1.9-0.2,3.7,1.2,3.6,2.9c0,1.7-1.8,3.1-3.6,3.3c-1.8,0.2-3.6-1.3-3.6-2.9
		C27.2,36.3,28.9,34.8,30.8,34.5z"/>
	<path opacity="0.75" fill="#FFFFFF" d="M19.3,18.7c0-1.5-1.4-2.6-3-2.5c-0.5,0-1,0.2-1.4,0.4c-0.1,1.4-0.3,2.8-0.3,4.2
		c0.5,0.4,1.2,0.6,1.9,0.6C18.1,21.3,19.3,20.1,19.3,18.7z"/>
	<path opacity="0.75" fill="#FFFFFF" d="M21.2,25.7l-2.7-2.3l-3.9,3.7c0,1.2,0.1,2.4,0.2,3.6l20.4-0.5c0-2.3,0.1-4.7,0.1-7l-5.9-5.2
		L21.2,25.7z"/>
	<path fill="#FFFFFF" d="M15.2,34.6l19.9-0.5c0-1.3,0-2.5,0.1-3.8l-20.4,0.5C14.9,32.1,15,33.3,15.2,34.6z"/>
	<path fill="#FFFFFF" d="M33.2,7.7c-5.3-0.3-13-0.2-14.3,0.1c-1.3,0.3-2.7,1.2-3.1,2.8c-0.1,0.6-0.2,1.2-0.3,1.9
		c-0.2,1.3-0.4,2.7-0.6,4.1c0.4-0.2,0.9-0.4,1.4-0.4c1.6,0,2.9,1,3,2.5c0,1.4-1.2,2.6-2.8,2.7c-0.7,0-1.3-0.2-1.9-0.6
		c-0.1,2.1-0.1,4.2,0,6.4l3.9-3.7l2.7,2.3l8.2-7.6l5.9,5.2c0.1-3.8,0.1-7.6,0.2-11.3c0-0.4,0-0.7,0-1.1C35.6,9.3,34.6,7.7,33.2,7.7z
		"/>
</g>
</svg>
