<?xml version="1.0" encoding="utf-8"?>
<!-- Generator: Adobe Illustrator 23.0.0, SVG Export Plug-In . SVG Version: 6.00 Build 0)  -->
<svg version="1.0" id="Layer_1" xmlns="http://www.w3.org/2000/svg" xmlns:xlink="http://www.w3.org/1999/xlink" x="0px" y="0px"
	 viewBox="0 0 50 50" enable-background="new 0 0 50 50" xml:space="preserve">
<g id="New_Symbol_41">
	<g id="New_Symbol_27">
	</g>
	<g>
		<g id="New_Symbol_17_2_">
			<g>
				<g>
					<g>
						<path fill="#FFFFFF" d="M8.1,32.3c-1.5-0.2-2.7,0.1-3.7,0.9C3.3,34,2.7,35,2.5,36.4s0.2,2.6,1.3,3.7c1.1,1.1,2.5,1.7,4.3,1.9
							s3.2-0.1,4.3-0.8c1.2-0.7,1.7-1.7,1.7-3s-0.7-2.6-1.9-3.8S9.7,32.5,8.1,32.3z"/>
						<path fill="#FFFFFF" d="M22.5,25.6c-2.5-2.4-5.1-4.4-8.2-5.9c-2.6-1.1-5.1-1.9-7.9-1.9H6.2c-0.4,0-0.7,0.2-1,0.6
							s-0.5,0.8-0.6,1.3c-0.2,1.4-0.3,2.1-0.5,3.4c-0.1,0.4,0,0.8,0.2,1.2c0.2,0.3,0.5,0.5,0.9,0.6c4.3,0.8,7.7,3.3,11,6.3
							c2.9,3.1,5.6,6.7,6.3,11c0,0.4,0.3,0.7,0.7,1c0.4,0.3,0.9,0.4,1.4,0.5c1.8,0.2,2.6,0.3,4.4,0.4c0.6,0.1,1.2,0,1.6-0.3
							s0.7-0.6,0.7-1.1c-0.2-3-1.2-5.8-2.5-8.6C27,31,24.9,28.3,22.5,25.6z"/>
						<path fill="#FFFFFF" d="M43.1,27.7c-2.4-5.3-5.2-10-9.2-14.2c-3.8-3.6-8-6.3-12.9-7.9C16.8,4.3,12.6,4,8.2,4.1c0,0,0,0-0.1,0
							c-0.5,0-0.9,0.2-1.2,0.6C6.5,5.1,6.3,5.5,6.2,6C6,7.6,5.9,8.4,5.8,9.8c-0.1,0.5,0,0.8,0.3,1.1c0.2,0.3,0.5,0.4,0.9,0.3
							c3.7-0.2,7,0.3,10.6,1.5c4,1.7,7.6,4,10.7,7.2c3.3,3.3,5.9,7.3,7.8,11.5c1.6,3.9,2.7,7.9,2.8,12.3c0,0.5,0.2,0.9,0.6,1.2
							c0.4,0.4,0.9,0.6,1.5,0.6c1.9,0.2,2.7,0.3,4.6,0.5c0.6,0.1,1.1-0.1,1.5-0.5s0.5-0.9,0.4-1.5C46.5,38.3,45.1,32.9,43.1,27.7z"
							/>
					</g>
				</g>
			</g>
		</g>
	</g>
	<g id="New_Symbol_29">
	</g>
	<g id="New_Symbol_16">
		<g id="New_Symbol_55">
			<g id="New_Symbol_56">
			</g>
		</g>
	</g>
	<g id="New_Symbol_23">
	</g>
	<g id="New_Symbol_24">
		<g id="New_Symbol_55_3_">
			<g id="New_Symbol_56_3_">
			</g>
		</g>
	</g>
</g>
</svg>
