<?xml version="1.0" encoding="utf-8"?>
<!-- Generator: Adobe Illustrator 23.0.0, SVG Export Plug-In . SVG Version: 6.00 Build 0)  -->
<svg version="1.0" id="follow_x5F_icon" xmlns="http://www.w3.org/2000/svg" xmlns:xlink="http://www.w3.org/1999/xlink" x="0px"
	 y="0px" width="50px" height="50px" viewBox="0 0 50 50" enable-background="new 0 0 50 50" xml:space="preserve">
<g>
	<path opacity="0.25" fill="#FFFFFF" d="M12.3,36L10.7,36l-0.1-4l1.2-1.3c-0.2-3.1-0.3-6.2-0.2-9.1c-0.8-0.7-1.4-1.7-1.4-2.8
		c-0.1-1.4,0.7-2.7,1.9-3.4c0.2-1.9,0.5-3.8,0.9-5.5c0-0.2,0.1-0.3,0.1-0.5L9.5,9.6c-2.8,0.1-5,2.4-4.9,5.3l0.8,21.7
		c0.1,2.8,2.4,5,5.3,4.9l2.9-0.1c-0.4-0.8-0.7-1.7-0.9-2.7C12.5,37.8,12.4,36.9,12.3,36z"/>
	<path opacity="0.25" fill="#FFFFFF" d="M45.3,35l-0.8-21.6c-0.1-2.8-2.4-5-5.3-4.9l-1.1,0c0.3,0.8,0.4,1.6,0.3,2.4
		c0,4.6-0.1,9.2-0.2,13.7l1.4,1.3L40,35L38.1,35c0,0.8,0,1.6,0,2.3c0,1.1-0.3,2.2-0.7,3.1l3.2-0.1C43.3,40.3,45.5,37.9,45.3,35z"/>
	<path opacity="0.75" fill="#FFFFFF" d="M17.6,18.5c-0.1-1.6-1.1-2.9-2.5-3.4c-0.3,2.3-0.5,4.7-0.5,7.2
		C16.4,21.9,17.7,20.3,17.6,18.5z"/>
	<path fill="#FFFFFF" d="M30.9,40.7c0,0-0.1,0-0.1,0l-13.6,0.5c0.8,0.8,1.9,1.2,3.1,1.3c4.3-0.1,6.5-0.5,11-0.8
		c0.9-0.2,1.7-0.5,2.4-1.1L30.9,40.7C30.9,40.7,30.9,40.7,30.9,40.7z"/>
	<path fill="#FFFFFF" d="M33.2,7.7c-5.3-0.3-13-0.2-14.3,0.1C18,8,17,8.5,16.4,9.4l18.5-0.7C34.5,8.1,33.9,7.7,33.2,7.7z"/>
	<path opacity="0.75" fill="#FFFFFF" d="M30.7,17.5L20.2,28.6l-3.5-3.3l-2.1,2.3c0.1,2.8,0.4,5.6,0.7,8.3l13.4-0.5
		c0.6-0.4,1.3-0.8,2.1-0.9c0.9-0.1,1.8,0.2,2.5,0.7l1.8-0.1c0.1-4.4,0.1-8.8,0.2-13.3L30.7,17.5z"/>
	<path fill="#FFFFFF" d="M34.4,37.4c0,1.7-1.7,3.1-3.5,3.3l2.6-0.1c0.9-0.7,1.5-1.8,1.6-3.3c0-0.7,0-1.5,0-2.2l-1.8,0.1
		C34,35.7,34.4,36.5,34.4,37.4z"/>
	<path fill="#FFFFFF" d="M27.3,37.9c0-0.9,0.6-1.8,1.4-2.5l-13.4,0.5c0.1,0.8,0.2,1.6,0.3,2.3c0.2,1.4,0.7,2.4,1.4,3.1l13.6-0.5
		C29,40.9,27.3,39.4,27.3,37.9z"/>
	<path fill="#FFFFFF" d="M17.6,18.5c0.1,1.9-1.3,3.5-3,3.8c0,1.8,0,3.5,0,5.3l2.1-2.3l3.5,3.3l10.5-11.1l4.6,4.4
		c0.1-3.7,0.1-7.4,0.1-11c0.1-0.8-0.1-1.6-0.6-2.2L16.4,9.4c-0.2,0.3-0.4,0.7-0.5,1.2c-0.3,1.5-0.5,3-0.7,4.5
		C16.5,15.6,17.6,16.9,17.6,18.5z"/>
</g>
</svg>
