<?xml version="1.0" encoding="utf-8"?>
<!-- Generator: Adobe Illustrator 23.0.0, SVG Export Plug-In . SVG Version: 6.00 Build 0)  -->
<svg version="1.0" id="follow_x5F_icon" xmlns="http://www.w3.org/2000/svg" xmlns:xlink="http://www.w3.org/1999/xlink" x="0px"
	 y="0px" width="50px" height="50px" viewBox="0 0 50 50" enable-background="new 0 0 50 50" xml:space="preserve">
<path fill="#FFFFFF" d="M19.4,17.3c0.2,2.7,1,5.1,2.2,7c-1.3,1.1-2.8,1.7-4.5,1.7c-4-0.2-6.7-3.9-7-8.6c-0.5-4.5,2.5-8.9,7.4-9.1
	c1.4,0,2.7,0.3,3.8,0.9C19.8,11.6,19.1,14.5,19.4,17.3z M13.9,35.7c0.3-3,3.1-4.8,6.1-6.6c-3.4-0.9-6.6-0.8-8.9,0.6
	c-2.8,1.8-5.8,3.2-6,5c-0.2,1.9-0.5,4.5,10.3,6.1C14.2,39.4,13.7,37.7,13.9,35.7z M30.4,26.5c4.4,0,8-4.2,8.6-9.9
	c0.2-2.9-0.6-5.4-2.4-7.2c-1.5-1.4-3.5-2.2-5.8-2.2l-0.1,0c-2.2,0.1-4.3,1-5.7,2.5c-1.8,1.9-2.6,4.6-2.3,7.4
	c0.4,5.4,3.5,9.2,7.6,9.4L30.4,26.5z M43.8,39.8L43.8,39.8c0.5-0.3,0.9-1,1.2-1.8c0.2-0.7-0.5-2.1-1-2.5c-4.2-3.9-10.3-6.5-15.2-6.5
	c-2.1,0-3.8,0.4-5.1,1.3c-0.5,0.3-1,0.6-1.6,1c-3,1.8-4.8,3-4.9,4.6c-0.2,2-0.5,5.1,13.1,6.9h0c0.5,0,1,0.1,1.5,0.1
	C36.7,42.9,41.1,41.2,43.8,39.8z"/>
</svg>
