<?xml version="1.0" encoding="utf-8"?>
<!-- Generator: Adobe Illustrator 23.0.0, SVG Export Plug-In . SVG Version: 6.00 Build 0)  -->
<svg version="1.0" id="follow_x5F_icon" xmlns="http://www.w3.org/2000/svg" xmlns:xlink="http://www.w3.org/1999/xlink" x="0px"
	 y="0px" width="50px" height="50px" viewBox="0 0 50 50" enable-background="new 0 0 50 50" xml:space="preserve">
<g id="front_x5F_flyer_3_">
	<path id="shawod1_4_" opacity="0.25" enable-background="new    " d="M41.1,39.7c-1.9,0.3-6.9,0.8-8.8,1.1
		c-1.9,0.3-3.3-1.3-3.4-3.1c-0.3-8,0.3-18.5,0.8-20.7c0.3-0.9,0.9-1.7,2.2-1.7c1.3-0.2,9.2,0.5,10.3,0.5c0.9,0,1.7,1.3,1.7,2.3
		c-0.2,4.2,0,10.2,0.6,18.5C44.5,38,43,39.4,41.1,39.7z"/>
	<path fill="#FFFFFF" d="M43,17.2c0.2-1.1-0.6-2.3-1.6-2.3c-3.8-0.5-9.4-0.6-10.3-0.5c-0.8,0.2-1.9,0.6-2.2,1.9
		c-0.8,3.4-1.6,18.3-1.1,20.7c0.5,2.3,1.7,3.1,3.4,3.1c3.3-0.2,5.2-0.6,8.8-0.9c1.9-0.5,3.1-1.6,3.1-3.1C43,34.3,43,25.2,43,17.2z
		 M39.8,38.5c-1.4,0.2-2.8-0.8-2.8-2s1.3-2.2,2.8-2.5c1.4-0.2,2.8,0.8,2.8,2C42.8,37.2,41.3,38.2,39.8,38.5z"/>
</g>
<g id="front_x5F_flyer">
	<path id="shawod1_1_" opacity="0.25" enable-background="new    " d="M22.5,43c-2.3,0.5-8.7,1.4-10.8,2s-4.3-1.4-4.4-3.7
		C6.5,30.5,6.7,17,7.4,14.2C7.5,12.9,8.4,12,10,12c1.6-0.2,11.4,0.2,12.8,0.2c1.2,0,2.1,1.6,2.1,3c0,5.3,0.5,13.2,1.6,23.8
		C26.7,40.6,24.8,42.4,22.5,43z"/>
	<path fill="#FFFFFF" d="M23.9,13.6c0.2-1.4-0.7-3-2.1-3C17,10.1,10,10.1,9,10.4c-1.1,0.2-2.3,1.1-2.7,2.7
		c-0.9,4.4-1.1,23.6-0.5,26.8c0.5,3.2,2.1,4.1,4.4,3.9c4.3-0.5,6.4-1.1,10.8-1.8c2.1-0.7,3.7-2.1,3.6-4.3
		C24.6,35.7,24.2,23.9,23.9,13.6z M20.9,41.4c-1.8,0.4-3.6-0.9-3.6-2.5s1.4-3,3.4-3.6c2-0.2,3.6,0.9,3.6,2.5
		C24.4,39.4,22.6,40.8,20.9,41.4z"/>
</g>
<g>
	<path opacity="0.25" enable-background="new    " d="M22.8,6c-0.6,0.2-1.1,0.4-1.6,0.6c-1.4,0.6-2.6,1.2-3.6,2.2
		c-0.2,0.1-0.3,0.1-0.5,0c-0.5-0.5-1.2-0.9-1.8-1.3c-0.3-0.2-0.7-0.4-1-0.2c-0.3,0.1-0.4,0.5-0.3,0.8c0.7,2.7,1.3,5.4,1.8,8.1
		c0.1,0.7,0.6,1.1,1.1,0.9c2.1-0.7,4.1-1.5,6.2-2.2c0.3-0.1,0.5-0.3,0.5-0.7s-0.1-0.7-0.5-0.8c-0.6-0.4-1.1-0.8-1.7-1.2
		c0.5-0.4,1.1-0.8,1.7-1c2.2-0.8,4.4-0.8,6.3,0.5c1.7,1.1,2.8,2.8,3.4,5.3c0.2,0.5,0.2,0.9,0.3,1.5c0.1,0.7,0.5,0.9,0.9,0.7
		c0.8-0.3,1.6-0.7,2.5-1.1c0.3-0.1,0.4-0.5,0.4-0.8c0-0.2,0-0.5-0.1-0.9c0-0.1,0-0.2-0.1-0.3c-0.4-2.2-1.1-4.3-2-6
		c-2.2-3.7-5.1-4.9-9.2-4.6c-0.5,0-1,0.1-1.5,0.2C23.8,5.8,23.3,5.9,22.8,6z"/>
	<path fill="#FFFFFF" d="M23.3,5.6c-0.6,0.2-1.1,0.4-1.6,0.6c-1.4,0.6-2.6,1.2-3.6,2.1c-0.2,0.1-0.3,0.1-0.5,0
		c-0.5-0.5-1.2-0.8-1.8-1.2c-0.3-0.2-0.7-0.4-1-0.2c-0.3,0.1-0.4,0.4-0.3,0.8c0.7,2.6,1.3,5.2,1.7,7.8c0.1,0.6,0.6,1,1.1,0.9
		c2.1-0.7,4.2-1.5,6.3-2.2c0.3-0.1,0.5-0.3,0.5-0.7c0-0.4-0.1-0.6-0.5-0.8c-0.6-0.4-1.4-1-2-1.5c0.5-0.4,1.4-0.9,2-1.2
		c2.2-0.8,4.9-1,6.7,0.2c1.7,1,2.4,3.4,3,5.8c0.2,0.5,0.2,0.9,0.3,1.4c0.1,0.6,0.5,0.9,0.9,0.7c0.8-0.3,1.6-0.7,2.5-1
		c0.3-0.1,0.4-0.4,0.4-0.8c0-0.2,0-0.5-0.1-0.9c0-0.1,0-0.2-0.1-0.3c-0.4-2.1-1.1-4.2-2-5.7c-2.1-3.6-5.1-4.6-9.2-4.3
		c-0.5,0-1,0.1-1.5,0.2C24.4,5.4,23.8,5.5,23.3,5.6z"/>
</g>
</svg>
