<?xml version="1.0" encoding="utf-8"?>
<!-- Generator: Adobe Illustrator 23.0.0, SVG Export Plug-In . SVG Version: 6.00 Build 0)  -->
<svg version="1.0" id="follow_x5F_icon" xmlns="http://www.w3.org/2000/svg" xmlns:xlink="http://www.w3.org/1999/xlink" x="0px"
	 y="0px" width="50px" height="50px" viewBox="0 0 50 50" enable-background="new 0 0 50 50" xml:space="preserve">
<g>
	<path fill="#FFFFFF" d="M11.7,19.1l-1.3,0.7c-1.7,0.9-2.5,3.1-1.5,4.8l2.9,5.6C11.5,26.5,11.5,22.7,11.7,19.1z"/>
	<path fill="#FFFFFF" d="M41,25.3L38.3,20c0,2.4-0.1,4.8-0.1,7.1c0,1.2,0,2.5-0.1,3.7l1.4-0.7C41.3,29.2,42,27,41,25.3z"/>
	<path opacity="0.75" fill="#FFFFFF" d="M17.2,26.6c1.3-0.7,1.8-2.3,1.1-3.6c-0.7-1.3-2.3-1.8-3.6-1.1c0,0-0.1,0.1-0.1,0.1
		c0,1.5,0,3,0,4.5C15.4,27,16.3,27,17.2,26.6z"/>
	<path opacity="0.75" fill="#FFFFFF" d="M26.4,18.4L23,28.7l-3.2-1l-1.9,6.2l1.3,2.5l16-8.3c0-1.9,0.1-3.8,0.1-5.7l-0.6-1.1
		L26.4,18.4z"/>
	<path fill="#FFFFFF" d="M33.2,7.7c-5.3-0.3-13-0.2-14.3,0.1c-1.3,0.3-2.7,1.2-3.1,2.8c-0.5,2.2-0.8,4.5-1,7c-0.1,1.5-0.2,3-0.2,4.5
		c0,0,0.1-0.1,0.1-0.1c1.3-0.7,2.9-0.2,3.6,1.1c0.7,1.3,0.2,2.9-1.1,3.6c-0.8,0.4-1.8,0.4-2.6-0.1c0.1,3.9,0.4,7.7,1,11.2
		c0,0.2,0,0.3,0.1,0.5c0.5,3,2.4,4.3,4.5,4.3c4.3-0.1,6.5-0.5,11-0.8c2.2-0.4,3.9-1.9,3.9-4.4c0-1.6,0.1-3.3,0.1-4.9
		c0-1.5,0-2.9,0.1-4.4l-16,8.3l-1.3-2.5l1.9-6.2l3.2,1l3.4-10.3l8.3,2.8l0.6,1.1c0-2.7,0.1-5.4,0.1-8c0-1.2,0-2.3,0-3.5
		C35.6,9.3,34.6,7.7,33.2,7.7z M30.8,34.5c0.1,0,0.2,0,0.3,0c1.8,0,3.3,1.3,3.3,2.9c0,1.7-1.8,3.1-3.6,3.3c-1.8,0.2-3.6-1.3-3.6-2.9
		c0-0.6,0.2-1.1,0.6-1.6C28.5,35.3,29.6,34.7,30.8,34.5z"/>
</g>
</svg>
