<?xml version="1.0" encoding="utf-8"?>
<!-- Generator: Adobe Illustrator 23.0.0, SVG Export Plug-In . SVG Version: 6.00 Build 0)  -->
<svg version="1.0" id="Layer_1" xmlns="http://www.w3.org/2000/svg" xmlns:xlink="http://www.w3.org/1999/xlink" x="0px" y="0px"
	 width="943.9px" height="943.9px" viewBox="0 0 943.9 943.9" enable-background="new 0 0 943.9 943.9" xml:space="preserve">
<g id="gtinsta">
	<g>
		<path fill="#FFFFFF" d="M230.6,557.7c-11.5,0-23.3-0.1-35.1-0.4c-18.1-0.4-27.4-10.1-27.4-28.9v-16.5c0-21,0-42.7,0.1-64.1
			c-0.7,0-1.4,0-2.2,0c-1.2,0-2.5,0-3.7-0.1c-1.2,0-2.3-0.1-3.6-0.1c-4.4,0-8-3.6-8-8v-36.7c0-2.4,1-4.5,2.7-6
			c-2.9,0.9-6.1,1.5-9.6,1.6c-3.9,0.2-7.7,0.2-11.2,0.2h-6.2c-10.2,0-20.5,0-30.7,0h-42c-4.4,0-8-3.6-8-8V354c0-4.4,3.6-8,8-8h0.8
			c-6-4.6-9.1-12.1-9.1-21.8c0.1-45.1,0.3-82.1,0.5-116.5c0.1-23.1,14.7-28.3,26.9-28.5c11.1-0.2,23.1-0.3,37.9-0.3
			c8.6,0,17.3,0,26,0.1c8.8,0,17.7,0.1,26.6,0.1c2.8,0,5.2,1.4,6.6,3.5c1.4-2,3.6-3.3,6.2-3.4c0.6,0,1.2-0.1,1.8-0.1
			c1.3-0.1,2.5-0.2,3.9-0.2c13,0,26.1,0,39.1,0c13.3,0,41,0,41,0c1.6,0,3.3,0,5.2,0.2c13.3,1.3,21.3,6.7,24.6,16.7
			c3.8-10.9,12.9-16.6,27.4-16.8c7.6-0.1,15.6-0.2,24.6-0.2c9.5,0,18.9,0.1,26.1,0.1h2.6c7.1,0,14.5,0.1,21.9,1.2
			c8.2,1.2,14.4,5.3,17.9,11.4v-4.3c0-4.4,3.6-8,8-8h48c3.2,0,6,1.9,7.3,4.7c8.2-3.4,17.1-5.1,26.5-5.1c4.6,0,9.4,0.4,14.3,1.2
			c9.8,1.7,16.7,7.1,19.6,15.1c4-10.5,13.1-15.9,27.6-16.2c4.1-0.1,8.5-0.1,14-0.1c3,0,6,0,9,0c2.9,0,5.7,0,8.6,0v-31.7
			c0-4.4,3.6-8,8-8h48.4c4.1,0,7.6,3.1,8,7.3c0,0.3,0.1,0.7,0.1,1c0.1,1.1,0.3,2.4,0.3,3.9c-0.4,61-0.8,121.9-1.2,182.9
			c0,5-0.1,9-3.3,12.3c-3.3,3.3-7.4,3.3-12.2,3.3c-6.2,0-12.4,0-18.6,0c-6.7,0-13.3,0-20,0c-14.8,0-26.2,0-37-0.1
			c-6.4,0-11.5-0.6-16.1-1.6c-6.4-1.5-11.3-4.8-14.4-9.7c0,0.4,0,0.8,0,1.3c0,1.6-0.4,2.8-0.6,3.5c0,0.1-0.1,0.2-0.1,0.4
			c-1,3.5-4.1,5.9-7.7,5.9h-48.1c-2.5,0-4.7-1.1-6.2-2.9c-1.5,1.8-3.7,3-6.2,3h-48c-2.8,0-5.3-1.5-6.7-3.7c-1.4,2.1-3.7,3.5-6.3,3.7
			c-0.5,0-1,0.1-1.6,0.1c-1.2,0.1-2.5,0.2-3.9,0.2c-5.8,0-11.5,0-17.3,0c-7.8,0-15.6,0-23.4,0c-2.6,0-5.1,0-7.5,0
			c0.8,1.2,1.2,2.7,1.2,4.2v31.1c3.1,0,6.3,0.1,9.4,0.1c8.7,0.1,17.8,0.1,26.8,0.7c11.7,0.8,19.7,6.4,23,15.8
			c3.3-10.3,11.4-15.2,25.5-16c7.1-0.4,14.7-0.6,24.7-0.6c4.1,0,8.2,0,12.2,0.1c3.7,0,7.4,0.1,11.1,0.1h0.4c8.2,0,16.8,0,25.3,0.8
			c11.3,1,19,6.5,22.4,15.5c3.2-8.7,10.5-13.9,22-15.7c0.3-0.1,0.7-0.1,1-0.2c1.5-0.3,3.2-0.5,5.1-0.6c29.6-0.1,59.7-0.2,85.5-0.3
			c1.2,0,2.1,0.2,2.9,0.3c0.3,0.1,0.7,0.1,1.1,0.2c3.9,0.6,6.8,4,6.8,7.9v3c1.4-0.8,2.9-1.3,4.2-1.4c0.5-0.1,0.9-0.1,1.4-0.2v-7.3
			c0-4.4,3.6-8,8-8h48.7c4.4,0,8,3.6,8,8c0,1,0,2,0,3c0,1.4,0.1,2.9,0,4.3c3.8,0,7.6,0,11.3,0c2.7,0,13.7,0,16.4,0
			c5.4,0,12.5,0,19.7-0.1h0.4c1.6,0,6.6,0,10.2,3.7c3.2,3.4,3.5,7.6,3.4,10.5c-0.3,7.4-0.3,15.6,0,25c0,1.5,0.2,6.3-3.3,9.8
			c-0.1,0.1-0.2,0.2-0.4,0.4c0.2,0.2,0.4,0.3,0.6,0.5c3.3,3.3,3.3,7.8,3.3,9.4c0,11.5,0,23.1,0,34.4c0,13.5,0,27.4-0.1,41.1
			c-0.1,16.7-9.8,26.9-26.1,27.2c-12.4,0.2-24.8,0.3-36.9,0.3c-12.5,0-25.1-0.1-37.3-0.4c-16.2-0.3-25.8-10.6-25.8-27.4
			c0-19.9,0-40.2,0-59.8V447l-4.4-0.2c-0.7,0-1.4-0.2-2.1-0.4v23.7c0,4.5,0,8.1-2.7,11.3c-3.3,3.8-7.9,3.8-11.7,3.8l-46.6-0.1v64.1
			c0,4.4-3.6,8-8,8h-48.5c-4.2,0-7.8-3.3-8-7.6c0-0.4-0.1-0.9-0.1-1.4c-0.1-0.7-0.1-1.5-0.1-2.3c-3.2,5-8.8,8.6-16.1,10.3
			c-3.9,0.9-8.2,1.3-12.6,1.4c-8.6,0-17.8,0.1-29.1,0.1c-6.9,0-13.9,0-20.8,0h-10.3c-2.1,0-4.4,0-6.9-0.3
			c-11.2-1.5-18.3-5.5-22.1-12.7v0.9c0,1.4-0.2,2.5-0.3,3.6c-0.1,0.4-0.1,0.7-0.2,1.2c-0.5,4-3.9,7-7.9,7h-47.8
			c-2.5,0-4.8-1.2-6.3-3c-1.5,1.9-3.7,3.1-6.3,3.1h-48.4c-4.4,0-8-3.6-8-8v-6.8c-4.8,11.6-15.6,14.7-25,14.9
			C254,557.6,242.3,557.7,230.6,557.7z M168.1,384.1c-2.1,4.8-5.4,8.4-9.9,10.8c0.2,0,0.4,0,0.5,0c1.3,0,2.6,0,3.8,0
			c1.3,0,2.7,0,4,0c0.6,0,1.1,0,1.6,0C168.1,391.3,168.1,387.7,168.1,384.1z M241.7,394.7c-4.1-2-7.2-4.8-9.4-8.3v8.3H241.7z
			 M170.8,366.2c0.1-0.1,0.2-0.1,0.3-0.2c-0.1-0.1-0.2-0.2-0.3-0.2V366.2z M293.3,338.4c0,2.6-0.1,5.1-0.1,7.7
			c2.9,0,5.9-0.1,9.1-0.1C298.6,344.3,295.5,341.7,293.3,338.4z M289.6,261.6c0.1,0.2,0.3,0.4,0.4,0.6c0-0.4,0-0.8,0-1.2
			C289.9,261.1,289.8,261.4,289.6,261.6z M293.4,238.1c0,2.6,0,5.2,0.1,7.8c0,0.4,0,0.9,0,1.5c1.5-2.6,3.5-4.8,5.9-6.6
			C297,240.5,295,239.6,293.4,238.1z"/>
		<path d="M651.3,147.2c0.1,1.3,0.4,2.8,0.4,4.2c-0.4,61-0.8,121.9-1.2,182.9c-0.1,7.6-0.1,7.6-7.6,7.6c-12.8,0-25.6,0-38.5,0
			c-12.3,0-24.7,0-37-0.1c-4.8,0-9.7-0.3-14.3-1.4c-7.9-1.9-11.6-7-12-15.1c-0.1-1.7-0.1-3.3-0.1-5c0.1-37,0.3-73.9,0.4-110.9
			c0.1-15.6,6.4-22.1,22.1-22.5c4.6-0.1,9.2-0.1,13.8-0.1c6,0,12,0,18,0c0.4,0,0.8,0,1.1,0c0.6,0,1.3,0,1.9,0c1.2,0,2.6,0,4.5,0
			c0-13.7,0-26.5,0-39.7C619.4,147.2,635.1,147.2,651.3,147.2 M590.5,299.6c4,0,7.6,0,11.7,0c0-25.4,0-50.3,0-75.3
			c-4.2,0-7.9,0-11.7,0C590.5,249.6,590.5,274.5,590.5,299.6 M343.6,186.7c8.7,0,17.3,0.1,26,0.1c7.8,0.1,15.7,0,23.4,1.1
			c9.5,1.4,14.3,7.4,14.3,17c0,45-0.2,89.9-0.3,134.9c0,0.3-0.1,0.6-0.4,1.7c-1.8,0.1-3.4,0.3-5,0.3c-13.6,0-27.1,0-40.7,0
			c-12.7,0-25.5,0-38.2-0.1c-4.9,0-10-0.7-14.7-2.1c-6.8-2-10.4-7.3-10.4-14.3c0-21.5,0.1-43,0.6-64.4c0.2-10.2,6-16.3,16.6-16.9
			c9.6-0.6,19.2-0.7,28.8-0.7c3.2,0,6.4,0,9.6,0c0.1,0,0.1,0,0.2,0c4.4,0,6.3-1.2,5.8-5.8c-0.2-2,0-4,0-6c0-7.9,0-7.7-7.9-7.8h-0.1
			c-3.5,0-5.3,1.1-4.7,4.8c0.5,3.5-1.1,4.6-4.4,4.6c-0.1,0-0.1,0-0.2,0c-6.6-0.1-13.2-0.1-19.8-0.1c-6.5,0-13.1,0-19.6,0.1
			c-0.1,0-0.1,0-0.2,0c-3.4,0-4.5-1.3-4.4-4.7c0.2-6.5,0-13,0.1-19.5c0-15,6.4-21.7,21.5-22C327.3,186.8,335.5,186.7,343.6,186.7
			 M351.4,305.1c1.2,0,2.4,0,3.6-0.2c1.1-0.1,2.8-1.5,2.9-2.4c0.2-6.9,0.1-13.8,0.1-20.8c-4.4,0-8,0-11.8,0c0,7.7,0,15.1,0,23.3
			C348.1,305.1,349.8,305.1,351.4,305.1 M501.8,186.8c4.3,0,8.6,0.4,13,1.1c9.4,1.6,14.5,7.2,14.5,16.3c0,45.2-0.2,90.3-0.3,135.5
			c0,0.5-0.2,0.9-0.5,1.8c-15.7,0-31.5,0-48.1,0c0-1.9,0-3.9,0-5.8c0.3-35.2,0.5-70.3,0.7-105.5c0-2-0.5-5.6-1.3-5.7
			c-1.6-0.3-3.2-0.4-4.9-0.4c-1.8,0-3.7,0.2-5.4,0.5c-0.7,0.1-1.1,3.5-1.2,5.4c-0.2,30-0.2,60-0.3,90c0,7,0,14,0,21.6
			c-16.4,0-32.2,0-48,0c0-51.5,0-102.7,0-154.3c16.3,0,32,0,48,0c0.3,2.8,0.5,5.3,0.8,8.5c1.2-0.5,2.1-0.7,2.8-1.2
			C481.3,189.1,491.4,186.8,501.8,186.8 M110.6,186.8c17.4,0,34.9,0.1,52.7,0.1c0,2.3,0,4.1,0,5.9c-0.2,58.3-0.3,116.6-0.5,174.9
			c0,1,0,2,0,3c-0.3,12.9-6.2,19.1-19.3,19.8c-3.6,0.2-7.2,0.2-10.8,0.2c-1.9,0-3.8,0-5.6,0c-0.2,0-0.3,0-0.5,0
			c-10.1,0-20.2,0-30.4,0c-12,0-24.1,0-36.1,0c-2,0-3.9,0-6.2,0c0-12.4,0-24.3,0-36.8c20.1,0,40,0,60.2,0c0-3.5,0-6.3,0-9.9
			c-3.8,0-7.5,0-11.2,0c-2.3,0-4.6,0-6.9,0c-8.2-0.1-16.3,0-24.5-0.5c-12.3-0.8-18-7.2-18-19.4c0.1-38.8,0.3-77.6,0.5-116.5
			c0.1-13.4,5.6-20.3,19-20.6C85.5,186.9,98,186.8,110.6,186.8 M102.4,304.9c3.9,0,7.6,0,12,0c0-2.1,0-3.6,0-5
			c0.2-22.8,0.3-45.7,0.5-68.5c0.1-7.1,0.1-7.7-5.8-7.7c-0.7,0-1.4,0-2.2,0c-3.2,0-4.8,0.8-4.8,4.5c0.1,24.7-0.1,49.3-0.1,74
			C102,303,102.2,303.8,102.4,304.9 M221,186.9c13.2,0,26.5,0,39.7,0h0.1c0.3,0,0.7,0,1,0c1.5,0,2.9,0,4.4,0.2
			c13.7,1.4,19.1,7.3,19.2,21.1c0,12.7-0.2,25.3,0.1,38c0.1,7.3-1.1,13.4-10.2,15.6c10.9,2.7,10.7,10.6,10.6,18.7
			c-0.3,22.7-0.3,45.3-0.7,68c-0.1,4.2,1,5.7,5.3,5.7c0.1,0,0.2,0,0.2,0c8.5-0.1,17.1-0.1,25.7-0.1c10,0,20.1,0,30.3,0
			c0,13.4,0,25.8,0,39c1.5,0,2.8,0,4.1,0c0.7,0,1.4,0,2.1,0c12.5,0.2,25,0,37.4,0.8c11.6,0.8,17.2,7,17.3,18.5
			c0.2,44.3,0.1,88.7,0,133c0,1.1-0.3,2.3-0.4,3.8c-15.7,0-31.3,0-47.8,0c0-1.8,0-3.7,0-5.6c0-35.7-0.1-71.3-0.2-107
			c0-2-0.6-5.5-1.4-5.6c-1.5-0.3-3.1-0.4-4.6-0.4c-1.9,0-3.8,0.2-5.7,0.5c-0.7,0.1-1,3.5-1,5.4c0.1,35.5,0.2,71,0.3,106.5
			c0,2,0,3.9,0,6.2c-16.3,0-32,0-48.4,0c0-2.1,0-4,0-5.9c-0.1-48.7-0.1-97.3-0.2-146c0-6.6,0-6.6-6.5-6.6c-10.5,0-21,0-31.5-0.1
			c-2.8,0-5.7-0.3-8.4-0.8c-10.8-2.1-15.4-7.6-15.3-18.8c0.2-25.2,0.4-50.3,0.7-75.5c0-2.7-0.2-5.4,0.1-8c0.4-3.7-1-5-4-5
			c-0.4,0-0.8,0-1.2,0.1c-0.9,0.1-1.7,0.1-2.7,0.1c-1.5,0-3.1-0.1-4.9-0.1c0,26,0,51.6,0,77.6c-16.3,0-32,0-48.1,0
			c0-57.9,0-115.3,0-173c2-0.1,3.6-0.2,5.2-0.3C194.8,186.9,207.9,186.9,221,186.9 M225.2,246.5c4.2,0,8,0,12.2,0
			c0-4.6,0-8.8,0-12.9c0-7.8-0.2-10.2-4.5-10.2c-1.8,0-4.3,0.4-7.7,1C225.2,231.9,225.2,239.1,225.2,246.5 M224.3,372.1
			c0,10,0,20.1,0,30.6c20.6,0,40.4,0,60.7,0c0,12.3,0,24.2,0,36.6c-19.9,0-39.8,0-60.2,0c-0.2,2.5-0.4,3.9-0.4,5.4
			c0,20.5,0,41,0,61.5c0,5.6,0.1,5.3,8.1,5.6c0.2,0,0.4,0,0.6,0c4.1,0,4.9-1.9,4.8-5.8c-0.4-16.8-0.4-33.7-0.6-50.5
			c0-1.6,0-3.3,0-5.3c15.9,0,31.5,0,47.7,0c0.1,1.6,0.4,3.4,0.4,5.1c-0.1,24.3-0.3,48.7-0.5,73c-0.1,13.9-5.7,20.6-19.7,21
			c-11.5,0.3-23.1,0.4-34.6,0.4c-11.6,0-23.3-0.1-34.9-0.4c-14-0.3-19.5-6.9-19.5-20.9c0-27.7-0.1-55.3,0.1-83c0-4-0.8-5.9-4.4-5.9
			c-0.4,0-0.9,0-1.4,0.1c-1.4,0.2-2.9,0.2-4.4,0.2c-2.4,0-4.8-0.1-7.3-0.1c0-12.2,0-23.9,0-36.7c2.6,0,5.2-0.1,7.8-0.1
			c1.7,0,3.4,0,5.1,0.1c0.2,0,0.4,0,0.6,0c3,0,4-1.3,3.9-4.6c-0.2-8.6-0.1-17.3-0.1-26.2C192.3,372.1,207.9,372.1,224.3,372.1
			 M722.1,387.2c0,3.4,0.2,6.8-0.1,10.2c-0.3,3.9,1.3,5.1,5,5.1c0.1,0,0.1,0,0.2,0c4.7,0,9.5-0.1,14.2-0.1c5.5,0,11,0,16.4,0
			c6.6,0,13.2,0,19.8-0.1c0.1,0,0.2,0,0.3,0c4.4,0,5.7,1.6,5.6,6c-0.3,8.5-0.2,17,0,25.5c0.1,3.9-1.2,5.1-5,5.1c-0.1,0-0.1,0-0.2,0
			c-5.1-0.1-10.2-0.1-15.3-0.1c-5.3,0-10.6,0-15.9,0c-6.4,0-12.8,0-19.3-0.1c-0.1,0-0.2,0-0.3,0c-4.4,0-5.6,1.5-5.6,6
			c0.1,20.5-0.1,41-0.2,61.5c0,1.3,0,2.6,0,4.7c2.9,0.2,5.6,0.6,8.2,0.6c0.8,0,1.5,0,2.3-0.1c1.1-0.1,2.7-2.9,2.7-4.5
			c0.2-16.8,0.2-33.7,0.2-50.5c0-2.2,0-4.3,0-6.8c1.6-0.2,2.8-0.5,4.1-0.5c1.9,0,3.8,0,5.7,0c5.3,0,10.7,0,16,0
			c6.1,0,12.2,0,18.3-0.1c0.1,0,0.1,0,0.2,0c3.5,0,4.3,1.5,4.3,4.7c-0.1,25.2,0,50.3-0.1,75.5c-0.1,12.2-6.1,19-18.2,19.2
			c-12.3,0.2-24.5,0.3-36.8,0.3c-12.4,0-24.8-0.1-37.2-0.4c-12.1-0.2-18-7.3-18-19.4c0-27.8,0-55.6,0-83.5c0-2,0-3.9,0-6.3
			c-4.2-0.2-7.8-0.4-12-0.6c0-11.4-0.1-22.5,0.2-33.6c0-0.9,2.1-2.2,3.4-2.4c1.1-0.2,2.2-0.2,3.3-0.2c1.6,0,3.2,0.1,5,0.1
			c0-5.5,0-10.2,0-15.3C689.6,387.2,705.3,387.2,722.1,387.2 M649,392.7c0.6,0,1.3,0.2,2.8,0.4c0,5,0,10.1,0,15.2
			c0,5.5-0.2,11,0.1,16.5c0.2,3.9-1.2,5.2-5.1,5.2c0,0,0,0-0.1,0c-1.8,0-3.6,0-5.4,0c-15,0-30.1,0.2-45.1,0.3c-0.7,0-1.3,0-2,0
			c-1.2,0-2.5,0-3.9,0c0,3.5,0,6.3,0,9.4c20.2,0,40.1,0,60.8,0c0,4.5,0,8.6,0,12.7c0,5.8,0,11.7,0,17.5c0,6.8,0,7.2-6.4,7.2
			c-0.3,0-0.7,0-1,0c-15.5,0-31-0.1-46.5-0.1c-0.8,0-1.6,0-2.4,0c-1.4,0-2.9,0-4.6,0c0,24.3,0,48,0,72.1c-16.4,0-32.1,0-48.5,0
			c-0.1-1.5-0.3-3.3-0.3-5c0-43.5,0-87,0.1-130.5c0-12.2,5.1-18,17.1-19.9c1.6-0.3,3.3-0.6,4.9-0.6C592,392.9,620.5,392.8,649,392.7
			L649,392.7 M464,393c7.8,0,15.5,0.1,23.3,0.1c8.3,0,16.7,0,24.9,0.8c11.5,1.1,16.9,7.4,17,18.8c0,24.8-0.1,49.6-0.1,74.5
			c0,1.3-0.2,2.6-0.3,4.7c-8.4,0-16.7,0-24.8,0c-4.1,0-8.1,0-12.2,0c-3.6,0-7.2,0.1-10.9,0.1c-2.4,0-4.7,0-7.1-0.2c-0.3,0-0.7,0-1,0
			c-4,0-5.3,1.9-4.8,6.1c0.2,2.1,0,4.3,0,6.5c0,7.3,0,7.1,7.4,7.3c0.2,0,0.3,0,0.5,0c3.7,0,5.4-1.3,5-5.3c-0.1-1.3,0.3-2.6,0.4-4.1
			c15.8,0,31.4,0,47.4,0c0,11.3,0.6,22.4-0.2,33.4c-0.5,7.3-6.2,11.2-13,12.7c-3.5,0.8-7.2,1.2-10.9,1.2c-9.7,0.1-19.3,0.1-29,0.1
			c-10.3,0-20.6,0-31,0c-2,0-4,0-6-0.3c-13.8-1.9-18.4-7.2-18.5-21.1c-0.1-37.5-0.2-75-0.3-112.4c0-15.5,4.4-21.2,19.9-22.1
			C447.9,393.1,456,393,464,393 M472.9,452.5c1.5,0,3.6-0.2,6.3-0.5c0.3,0,0.6-0.3,1.3-0.6c0-6.7,0-13.6,0-20.4
			c-3.4-0.7-5.9-1.1-7.7-1.1c-4.3,0-4.6,2.5-4.6,10.3c0,0.7,0,1.3,0,2C468.2,450.4,468.2,452.5,472.9,452.5 M651.3,131.2H603
			c-8.8,0-16,7.2-16,16v23.7c-0.2,0-0.3,0-0.5,0c-3,0-6,0-9.1,0c-5.5,0-10,0-14.1,0.1c-12,0.2-21,3.5-27.5,9.8
			c-4.7-4.4-10.9-7.4-18.3-8.6c-5.3-0.9-10.6-1.4-15.6-1.4l0,0l0,0c-8.4,0-16.4,1.2-24,3.7c-2.7-2.1-6.1-3.3-9.7-3.3h-48
			c-4.7,0-9,2.1-11.9,5.3c-3.7-2.2-8-3.6-12.8-4.4c-8-1.2-15.6-1.2-23-1.3c-0.9,0-1.7,0-2.6,0c-7.2-0.1-16.6-0.1-26.1-0.1
			c-9,0-17.1,0.1-24.7,0.2c-11.7,0.2-20.9,3.5-27.3,10c-5.6-5.5-13.6-8.8-23.8-9.8c-2.2-0.2-4.2-0.2-6-0.2h-0.5H261h-0.1
			c-13.2,0-26.5,0-39.7,0c-13.1,0-26.2,0-39.3,0c-1.6,0-3,0.1-4.3,0.2c-0.5,0-1.1,0.1-1.7,0.1c-2,0.1-3.9,0.6-5.7,1.3
			c-2.1-1-4.3-1.5-6.7-1.5c-8.9,0-17.9,0-26.6-0.1c-8.6,0-17.4-0.1-26.1-0.1c-14.8,0-26.9,0.1-38,0.3c-11.2,0.2-20,3.8-26.1,10.7
			c-5.7,6.4-8.5,14.8-8.6,25.8c-0.2,34.5-0.4,71.5-0.5,116.5c0,7.4,1.5,13.8,4.5,19.1c-2.6,2.8-4.1,6.6-4.1,10.7v36.8
			c0,8.8,7.2,16,16,16h6h17.7h18.4c10.1,0,20.3,0,30.4,0h0.5c0.9,0,1.9,0,2.8,0c1,0,1.9,0,2.9,0c3.2,0,6.6,0,10.2-0.2v33
			c0,8.8,7.2,16,16,16c0.5,0,0.9,0,1.4,0c-0.1,18.8-0.1,37.7,0,56c0,5.6,0,11.1,0,16.7c0,11.3,2.8,20,8.7,26.4
			c6.1,6.7,15,10.3,26.5,10.5c11.8,0.3,23.7,0.4,35.2,0.4c11.7,0,23.5-0.1,35-0.4c8.2-0.2,15.1-2.1,20.7-5.7
			c2.9,3.4,7.3,5.6,12.2,5.6H347c2.2,0,4.4-0.5,6.3-1.3c1.9,0.8,4,1.3,6.2,1.3h47.8c4.8,0,9.2-2.2,12.2-5.6
			c4.7,2.8,10.4,4.6,17.3,5.6c3,0.4,5.7,0.4,7.9,0.4h0.2h10c7,0,14,0,21,0c11.3,0,20.5,0,29.1-0.1c5,0,9.8-0.6,14.3-1.6
			c4-0.9,7.6-2.3,10.7-4.1c2.9,3.2,7.1,5.2,11.8,5.2h48.5c8.8,0,16-7.2,16-16V493h18.6h18.9h0.1h1c3.3,0,8.2,0,12.8-2.6
			c0,12.8,0,25.7,0,38.5c0,21.1,13.2,35,33.7,35.4c12.3,0.2,24.9,0.4,37.5,0.4c12.2,0,24.6-0.1,37.1-0.3c13.1-0.2,20.8-5.7,25-10.3
			c5.8-6.3,8.8-14.6,8.9-24.9c0.1-13.7,0.1-27.7,0.1-41.1c0-11.3,0-22.9,0-34.4c0-3.8-0.7-7.2-2.1-10.1c1.4-3,2-6.4,1.9-10.2
			c-0.2-9.2-0.2-17.2,0-24.5c0.2-6.8-1.7-12.3-5.6-16.4c-3.9-4.1-9.3-6.2-16-6.2c-0.2,0-0.4,0-0.5,0c-7.1,0.1-14.2,0.1-19.6,0.1
			c-2.7,0-5.5,0-8.2,0s-5.5,0-8.2,0c-1.2,0-2.3,0-3.4,0c-0.4-8.5-7.4-15.3-16-15.3h-48.7c-5.9,0-11.1,3.2-13.8,8
			c-1.6-0.9-3.4-1.5-5.3-1.8c-0.4-0.1-0.7-0.1-0.9-0.2c-1-0.2-2.5-0.5-4.4-0.5l0,0c-25.9,0.1-55.9,0.2-85.6,0.3
			c-2.6,0-4.8,0.4-6.4,0.7c-0.3,0.1-0.6,0.1-0.9,0.2c-8.8,1.4-15.6,4.4-20.7,9.3c-5.4-5.3-12.7-8.4-21.7-9.2
			c-8.9-0.8-17.6-0.8-26-0.8h-0.4c-3.7,0-7.4,0-11-0.1c-4,0-8.2-0.1-12.3-0.1c-10.1,0-17.9,0.2-25.2,0.7c-7.3,0.5-17.5,1.9-25.2,9.4
			c-5.5-5.3-13.1-8.5-22.3-9.1c-9.2-0.6-18.4-0.7-27.2-0.7c-0.5,0-1,0-1.5,0v-19.3c7.2,0,14.4,0,21.6,0c5.8,0,11.6,0,17.3,0
			c1.6,0,3.1-0.1,4.4-0.2c0.5,0,0.9-0.1,1.4-0.1c2.1-0.1,4-0.6,5.8-1.4c2.1,1,4.4,1.5,6.8,1.5h48c2.2,0,4.3-0.5,6.3-1.3
			c1.9,0.8,3.9,1.2,6.1,1.2h48.1c4.6,0,8.8-1.9,11.7-5.1c2.8,1.6,5.9,2.8,9.3,3.6c5.2,1.2,10.9,1.8,17.9,1.8
			c10.8,0.1,22.2,0.1,37.1,0.1c6.6,0,13.3,0,19.9,0c6.2,0,12.4,0,18.6,0c5.5,0,12.3,0,17.9-5.7c5.6-5.6,5.6-12.4,5.6-17.8
			c0.5-70.6,0.8-128.8,1.2-182.9c0-2-0.2-3.7-0.3-5c0-0.3-0.1-0.5-0.1-0.8C666.5,137.5,659.6,131.2,651.3,131.2L651.3,131.2z"/>
	</g>
	<g>
		<path d="M656.4,558.2c-7.2-5.7-16.9-8.6-29-8.6h-61.5c-12.1,0-21.8,2.9-29,8.6c-0.8,0.6-1.5,1.3-2.3,2c-1.7-0.6-3.5-0.9-5.3-0.9
			h-39.1c-2.7-5.8-8.6-9.8-15.4-9.8H431c-7.1,0-13.2,4.3-15.7,10.5c-0.2,0.1-0.4,0.1-0.6,0.2c-0.8-0.7-1.5-1.4-2.3-2
			c-7.1-5.8-16.8-8.7-28.9-8.7h-60.8c-12,0-21.7,2.9-28.9,8.7c-0.4,0.3-0.8,0.7-1.2,1c-0.7-0.5-1.4-1.1-2.2-1.6
			c-0.1-0.1-0.2-0.1-0.3-0.2c-8.1-5.3-16.8-8-25.9-8c-10.4,0-19.6,1.1-27.6,3.3c-2.8-2.1-6.3-3.3-10.1-3.3h-50.6
			c-2.2,0-4.3,0.4-6.3,1.2c-1.9-0.8-4.1-1.2-6.3-1.2h-50.6c-9.4,0-17,7.6-17,17v155.5c0,9.4,7.6,17,17,17h50.6
			c2.2,0,4.3-0.4,6.3-1.2c1.9,0.8,4.1,1.2,6.3,1.2h50.6c2.2,0,4.2-0.4,6.1-1.1c1.9,0.7,4,1.1,6.1,1.1h50.6c4.3,0,8.3-1.6,11.3-4.3
			c6.1,2.9,13.4,4.3,21.9,4.3h60.7c0.3,0,0.6,0,0.8,0c11.8,0,21.4-2.9,28.4-8.7c2.2-1.8,4.5-4.2,6.6-7.4c6.3,10.2,18,16.1,33.5,16.1
			h54.6c0.3,0,0.5,0,0.8,0c11.6,0,21.1-3.4,27.6-9.5c0.4,0.4,0.8,0.7,1.3,1c7.1,5.6,16.9,8.5,28.9,8.5h86c9.4,0,17-7.6,17-17V586.2
			C668.9,571.3,662.1,562.8,656.4,558.2z"/>
		<path fill="#FFFFFF" d="M163.3,566.6v155.5h-4.4h-46.2V566.6h46.2H163.3z M283.2,573.7c-0.8-0.7-1.6-1.3-2.5-1.9
			c-5.3-3.5-10.8-5.2-16.6-5.2c-16.8,0-29.3,3.3-37.7,9.8v-9.8h-46.2h-4.4v155.5h4.4h46.2V605.5h12.3v116.6h47.7h3V586.2
			C289.3,581.4,287.3,577.2,283.2,573.7z M403,615h4.6v-28.8c0-5.5-1.5-9.9-4.3-13c-3.9-4.4-10.6-6.6-19.9-6.6h-60.8
			c-8.9,0-15.3,2-19.3,5.9c-3.3,3.2-4.9,7.8-4.9,13.7v58c0,7.5,2.7,12.8,8,16c3.9,2.4,9.4,3.6,16.2,3.6h36.3v19.6h-11.8v-9.8h-40.8
			h-8v29.1c0,7.4,2.7,12.6,8,15.8c3.9,2.3,9.4,3.5,16.2,3.5h60.8c0.2,0,0.5,0,0.7,0c15.7,0,23.5-6.4,23.5-19.3v-58.6
			c0-12.9-8.1-19.3-24.2-19.3H347v-19.3h11.8v9.5L403,615L403,615z M651.9,586.2v135.9h-86c-10.3,0-17.3-2.6-21.1-7.7
			c-2.2-3-3.3-6.9-3.3-11.6v-58.6c0-5.6,1.6-10,4.8-13.2c4-4,10.6-6,19.7-6.1h36.7v-19.3h-11.9v9.5h-44.4h-4.8v-28.8
			c0-5.6,1.5-10,4.5-13.2c4-4.3,10.7-6.4,20-6.4h61.5C643.7,566.6,651.9,573.1,651.9,586.2z M602.6,663.8h-11.9v19.6h11.9V663.8z
			 M524.4,615h4.8v-38.7h-3.7h-50.7v-9.8H431v9.8h-7.4H420V615h4.6h6.3v87.7c0,12.9,7.3,19.3,21.8,19.3h54.7c0.2,0,0.4,0,0.7,0
			c8.7,0,14.7-2.5,18-7.4c2.1-3,3.1-7,3.1-12v-77.9h-1.7h-41.9v58.6h-10.9V615H524.4z"/>
	</g>
	<g id="insta1">
		<path d="M771.7,550.6c-28.8,0-32.1,0-44.1,0.7c-10.7,0.1-20.6,2.1-30.1,6.2c-17.3,7.2-31.2,21.7-38.1,39.6c0,0.1-0.1,0.3-0.1,0.4
			c-2.8,8-4.7,18-5.6,29.7c0,0.1,0,0.2,0,0.3c-0.7,12.8-0.7,16-0.7,46.2c0,29.9,0,33.3,0.7,45.9c0,11,2,21.1,5.8,30.8
			c6.9,17.9,20.8,32.3,38.2,39.6c0.1,0.1,0.3,0.1,0.4,0.2c7.8,2.9,17.5,4.9,28.9,5.9c0.1,0,0.2,0,0.3,0c12.4,0.8,15.4,0.8,44.5,0.8
			c28.8,0,32.1,0,44.1-0.7c10.7-0.1,20.6-2.1,30.1-6.2c17.3-7.2,31.2-21.7,38.1-39.6c0-0.1,0.1-0.3,0.1-0.4c2.8-8,4.7-18,5.6-29.7
			c0-0.1,0-0.2,0-0.3c0.7-12.8,0.7-16,0.7-46.2c0-29.9,0-33.3-0.7-45.9c0-11-2-21.1-5.8-30.8c-6.9-17.9-20.8-32.3-38.2-39.6
			c-0.1-0.1-0.3-0.1-0.4-0.2c-7.8-2.9-17.5-4.9-28.9-5.9c-0.4,0-0.8,0-1.1,0c-4.5,0-7.6-0.1-11.5-0.2
			C797.5,550.9,789.5,550.6,771.7,550.6L771.7,550.6z"/>
		<g>
			<g>
				<defs>
					<path id="SVGID_1_" d="M857.7,718.4c0,7.3-1.4,13.9-3.5,20.5c-3.5,9.5-10.6,17.6-19.7,20.5c-6.3,2.2-13.4,3.7-19.7,3.7
						c-5.3,0.4-24,0.6-42.8,0.6s-37.6-0.2-43.3-0.6c-7.1,0-13.4-1.5-19.7-3.7c-9.2-3.7-16.9-11-19.7-20.5
						c-2.1-6.6-3.5-13.9-3.5-20.5c-0.7-11-0.7-77.8,0-89.5c0-7.3,1.4-13.9,3.5-20.5c3.5-9.5,10.6-17.6,19.7-20.5
						c6.3-2.2,13.4-3.7,19.7-3.7c4.9-0.4,23.6-0.6,42.5-0.6s37.9,0.2,43.6,0.6c7.1,0,13.4,1.5,19.7,3.7c9.2,3.7,16.9,11,19.7,20.5
						c2.1,6.6,3.5,13.9,3.5,20.5C858.4,639.9,858.4,706.7,857.7,718.4z"/>
				</defs>
				<clipPath id="SVGID_2_">
					<use xlink:href="#SVGID_1_"  overflow="visible"/>
				</clipPath>
				
					<radialGradient id="insta3_1_" cx="1736.1821" cy="2126.6875" r="3.2418" gradientTransform="matrix(0 -50.004 44.7486 0 -94442.2188 87589.7344)" gradientUnits="userSpaceOnUse">
					<stop  offset="0" style="stop-color:#FFDD55"/>
					<stop  offset="0.12" style="stop-color:#FFDD55"/>
					<stop  offset="0.55" style="stop-color:#FF543E"/>
					<stop  offset="1" style="stop-color:#C837AB"/>
				</radialGradient>
				<path id="insta3" clip-path="url(#SVGID_2_)" fill="url(#insta3_1_)" d="M685.1,583.6v180.1h173.1V583.6H685.1z"/>
			</g>
			<g>
				<defs>
					<path id="SVGID_3_" d="M857.7,718.4c0,7.3-1.4,13.9-3.5,20.5c-3.5,9.5-10.6,17.6-19.7,20.5c-6.3,2.2-13.4,3.7-19.7,3.7
						c-5.3,0.4-24,0.6-42.8,0.6s-37.6-0.2-43.3-0.6c-7.1,0-13.4-1.5-19.7-3.7c-9.2-3.7-16.9-11-19.7-20.5
						c-2.1-6.6-3.5-13.9-3.5-20.5c-0.7-11-0.7-77.8,0-89.5c0-7.3,1.4-13.9,3.5-20.5c3.5-9.5,10.6-17.6,19.7-20.5
						c6.3-2.2,13.4-3.7,19.7-3.7c4.9-0.4,23.6-0.6,42.5-0.6s37.9,0.2,43.6,0.6c7.1,0,13.4,1.5,19.7,3.7c9.2,3.7,16.9,11,19.7,20.5
						c2.1,6.6,3.5,13.9,3.5,20.5C858.4,639.9,858.4,706.7,857.7,718.4z"/>
				</defs>
				<clipPath id="SVGID_4_">
					<use xlink:href="#SVGID_3_"  overflow="visible"/>
				</clipPath>
				
					<radialGradient id="insta2_1_" cx="1858.4114" cy="2160.2898" r="1.716" gradientTransform="matrix(9.4207 49.0539 -194.3745 40.5032 403068.2188 -178071.9375)" gradientUnits="userSpaceOnUse">
					<stop  offset="0" style="stop-color:#3771C8"/>
					<stop  offset="0.15" style="stop-color:#3771C8"/>
					<stop  offset="1" style="stop-color:#6600FF;stop-opacity:0"/>
				</radialGradient>
				<path id="insta2" clip-path="url(#SVGID_4_)" fill="url(#insta2_1_)" d="M685.1,583.6v180.1h173.1l-0.3-180.1H685.1z"/>
			</g>
		</g>
		<path fill="#FFFFFF" d="M876.8,628.2c0-8.8-1.4-17.6-4.9-26.4c-5.6-14.7-16.9-26.4-31-32.3c-7.8-2.9-16.9-4.4-25.4-5.1
			c-12,0-14.8-0.7-43.7-0.7s-31.7,0-43.7,0.7c-8.5,0-16.9,1.5-25.4,5.1c-14.1,5.9-25.4,17.6-31,32.3c-2.8,8.1-4.2,17.6-4.9,26.4
			c-0.7,12.5-0.7,15.4-0.7,45.5s0,33,0.7,45.5c0,8.8,1.4,17.6,4.9,26.4c5.6,14.7,16.9,26.4,31,32.3c7.8,2.9,16.9,4.4,25.4,5.1
			c12,0.7,14.8,0.7,43.7,0.7s31.7,0,43.7-0.7c8.5,0,16.9-1.5,25.4-5.1c14.1-5.9,25.4-17.6,31-32.3c2.8-8.1,4.2-17.6,4.9-26.4
			c0.7-12.5,0.7-15.4,0.7-45.5S877.5,640.7,876.8,628.2z M857.7,719.2c0,7.3-1.4,13.9-3.5,20.5c-3.5,9.5-10.6,17.6-19.7,20.5
			c-6.3,2.2-13.4,3.7-19.7,3.7c-5.3,0.4-24,0.6-42.8,0.6s-37.6-0.2-43.3-0.6c-7.1,0-13.4-1.5-19.7-3.7c-9.2-3.7-16.9-11-19.7-20.5
			c-2.1-6.6-3.5-13.9-3.5-20.5c-0.7-11-0.7-77.8,0-89.5c0-7.3,1.4-13.9,3.5-20.5c3.5-9.5,10.6-17.6,19.7-20.5
			c6.3-2.2,13.4-3.7,19.7-3.7c4.9-0.4,23.6-0.6,42.5-0.6s37.9,0.2,43.6,0.6c7.1,0,13.4,1.5,19.7,3.7c9.2,3.7,16.9,11,19.7,20.5
			c2.1,6.6,3.5,13.9,3.5,20.5C858.4,640.7,858.4,707.4,857.7,719.2z"/>
		<path fill="#FFFFFF" d="M827.4,601.8c8.1,0,13.2,6.5,12.7,14.2c-0.4,5.5-4.2,10.4-9.4,11.7c-1.1,0.3-2.3,0.4-3.3,0.4
			c-7.1,0-12.7-5.9-12.7-13.2C814.7,607.7,820.4,601.8,827.4,601.8"/>
		<path fill="#FFFFFF" d="M771.7,617.2c-29.6,0-54.3,24.9-54.3,56.5c0,30.8,24,56.5,54.3,56.5c29.6,0,54.3-24.9,54.3-56.5
			C826,642.9,801.3,617.2,771.7,617.2z M805.6,683.7c-2.9,10.6-10.6,19.4-20.3,23.7c-4.6,2-9.2,2.9-13.6,2.9
			c-19,0-35.3-16.9-35.3-36.7c0-20.5,15.5-36.7,35.3-36.7C794.8,637,812,660,805.6,683.7z"/>
	</g>
</g>
</svg>
