<?xml version="1.0" encoding="utf-8"?>
<!-- Generator: Adobe Illustrator 23.0.0, SVG Export Plug-In . SVG Version: 6.00 Build 0)  -->
<svg version="1.0" id="Layer_1" xmlns="http://www.w3.org/2000/svg" xmlns:xlink="http://www.w3.org/1999/xlink" x="0px" y="0px"
	 viewBox="0 0 50 50" enable-background="new 0 0 50 50" xml:space="preserve">
<path d="M46.7,28.8C46.7,28.8,46.7,28.8,46.7,28.8c-0.4-0.2-0.8-0.4-1.2-0.4c0.2-0.3,0.2-0.6,0.2-1c0-0.7,0-1.5,0-2.2
	c0-0.6,0-1.2,0-1.9c0-0.2,0-0.4-0.1-0.5c0.1-0.2,0.1-0.3,0.1-0.6c0-0.5,0-0.9,0-1.3c0-0.4-0.1-0.7-0.3-0.9c-0.2-0.2-0.5-0.3-0.9-0.3
	c0,0,0,0,0,0c-0.4,0-0.8,0-1.1,0c-0.1,0-0.3,0-0.4,0c-0.1,0-0.3,0-0.4,0c-0.1,0-0.1,0-0.2,0c0-0.5-0.4-0.8-0.9-0.8h-2.6
	c-0.3,0-0.6,0.2-0.7,0.4c-0.1,0-0.2-0.1-0.3-0.1c0,0,0,0-0.1,0c-0.1,0-0.1,0-0.2,0h0c-1.4,0-3,0-4.6,0c-0.1,0-0.3,0-0.3,0
	c0,0,0,0,0,0c-0.5,0.1-0.8,0.2-1.1,0.5c-0.3-0.3-0.7-0.5-1.2-0.5c-0.5,0-1,0-1.4,0l0,0c-0.2,0-0.4,0-0.6,0c-0.2,0-0.4,0-0.7,0
	c-0.5,0-1,0-1.4,0c-0.4,0-0.9,0.1-1.4,0.5c-0.3-0.3-0.7-0.5-1.2-0.5c-0.5,0-1,0-1.5,0c0,0-0.1,0-0.1,0v-1c0.4,0,0.8,0,1.2,0
	c0.3,0,0.6,0,0.9,0c0.1,0,0.2,0,0.2,0c0,0,0.1,0,0.1,0c0.1,0,0.2,0,0.3-0.1c0.1,0.1,0.2,0.1,0.4,0.1h2.6c0.1,0,0.2,0,0.3-0.1
	c0.1,0,0.2,0.1,0.3,0.1h2.6c0.2,0,0.5-0.1,0.6-0.3c0.1,0.1,0.3,0.2,0.5,0.2c0.3,0.1,0.6,0.1,1,0.1c0.6,0,1.2,0,2,0
	c0.4,0,0.7,0,1.1,0c0.3,0,0.7,0,1,0c0.3,0,0.7,0,1-0.3c0.3-0.3,0.3-0.7,0.3-1c0-3.8,0-7,0.1-9.9c0-0.1,0-0.2,0-0.3c0,0,0,0,0,0
	c0-0.4-0.4-0.8-0.9-0.8h-2.6c-0.5,0-0.9,0.4-0.9,0.9V8c0,0,0,0,0,0c-0.2,0-0.3,0-0.5,0c-0.3,0-0.5,0-0.8,0c-0.6,0-1.1,0.2-1.5,0.5
	c-0.3-0.2-0.6-0.4-1-0.5C30.2,8,29.9,8,29.6,8c0,0,0,0,0,0c-0.5,0-0.9,0.1-1.3,0.2C28.2,8.1,28,8,27.8,8h-2.6
	c-0.3,0-0.5,0.1-0.6,0.3c-0.2-0.1-0.4-0.2-0.7-0.2C23.4,8,23,8,22.6,8c0,0-0.1,0-0.1,0c-0.4,0-0.9,0-1.4,0v0.4c0,0,0,0,0,0L21,8
	c-0.5,0-0.9,0-1.3,0c-0.6,0-1.1,0.2-1.5,0.5C17.9,8.2,17.5,8,16.9,8c-0.1,0-0.2,0-0.3,0l0,0l0,0h0c-0.7,0-1.4,0-2.2,0
	c-0.7,0-1.4,0-2.1,0c-0.1,0-0.2,0-0.2,0C12,8,12,8,12,8c-0.1,0-0.2,0-0.3,0.1C11.5,8,11.4,8,11.3,8c-0.5,0-1,0-1.4,0
	C9.4,8,8.9,8,8.4,8C7.6,8,7,8,6.4,8C5.8,8,5.3,8.2,5,8.6C4.7,8.9,4.5,9.4,4.5,10c0,1.9,0,3.9,0,6.3c0,0.4,0.1,0.7,0.2,1
	c-0.1,0.2-0.2,0.4-0.2,0.6v2c0,0.5,0.4,0.9,0.9,0.9h0.3l1,0l1,0c0.5,0,1.1,0,1.6,0l0,0c0,0,0.1,0,0.1,0c0.1,0,0.1,0,0.2,0
	c0.2,0,0.4,0,0.6,0v1.8c0,0.5,0.4,0.9,0.9,0.9c0,0,0.1,0,0.1,0c0,1,0,2,0,3c0,0.3,0,0.6,0,0.9c0,0.4,0.1,0.8,0.2,1.1h-1.2
	c-0.3,0-0.5,0.1-0.7,0.3c-0.4-0.2-0.8-0.3-1.4-0.3H4.7c-0.6,0-1.2,0.1-1.5,0.4c-0.3,0.2-0.7,0.7-0.7,1.5v1.5c0,0.2,0.1,0.4,0.2,0.6
	c-0.1,0.2-0.2,0.6-0.2,1v3.1c0,0.8,0.4,1.2,0.7,1.5c0.4,0.3,0.9,0.4,1.5,0.4h4.7c0.1,0,0.2,0,0.3-0.1c0.1,0,0.2,0.1,0.3,0.1h2.7
	c0.1,0,0.2,0,0.3-0.1c0.1,0,0.2,0.1,0.3,0.1h2.7c0.1,0,0.2,0,0.3-0.1c0.1,0,0.2,0.1,0.3,0.1h2.7c0.3,0,0.5-0.1,0.7-0.3
	c0.4,0.2,0.8,0.3,1.4,0.3h4.7c0.1,0,0.2,0,0.3-0.1c0.1,0,0.2,0.1,0.3,0.1h6.1c0.3,0,0.5-0.1,0.7-0.3c0.4,0.2,0.8,0.3,1.4,0.3h3.4
	c0.6,0,1-0.1,1.4-0.3c0.2,0.2,0.4,0.3,0.7,0.3h2.7c0.1,0,0.2,0,0.3-0.1c0.1,0,0.2,0.1,0.3,0.1h2.7c0.5,0,0.9-0.4,0.9-0.9v-7.3
	C47.5,29.7,47.2,29.2,46.7,28.8z M27.2,33.7v-1.5h1L27.2,33.7z M32.9,34.6h-1l1-1.5V34.6z M35.3,28.4v-3l1,0l1,0l0.1,0
	c0.2,0,0.4,0,0.7-0.1c0,0.7,0,1.4,0,2.1c0,0.4,0.1,0.7,0.2,1H35.3z"/>
<path fill="#FFFFFF" d="M38.3,22.5c0-0.6,0-1.2,0-1.8c0,0,0.1-0.1,0.2-0.1c0.1,0,0.1,0,0.2,0c0.1,0,0.2,0,0.3,0c0-0.3,0-0.6,0-0.8
	c0.9,0,1.7,0,2.6,0c0,0.2,0,0.4,0,0.6c0,0.2,0.1,0.3,0.3,0.3c0,0,0,0,0,0c0.3,0,0.5,0,0.8,0c0.3,0,0.6,0,0.9,0c0.4,0,0.7,0,1.1,0
	c0,0,0,0,0,0c0.2,0,0.3,0.1,0.3,0.3c0,0.5,0,0.9,0,1.4c0,0.2-0.1,0.3-0.3,0.3c0,0,0,0,0,0c-0.3,0-0.6,0-0.8,0c-0.3,0-0.6,0-0.9,0
	c-0.3,0-0.7,0-1,0c0,0,0,0,0,0c-0.2,0-0.3,0.1-0.3,0.3c0,1.1,0,2.2,0,3.3c0,0.1,0,0.1,0,0.3c0.2,0,0.3,0,0.4,0c0,0,0.1,0,0.1,0
	c0.1,0,0.1-0.2,0.1-0.2c0-0.9,0-1.8,0-2.7c0-0.1,0-0.2,0-0.4c0.1,0,0.2,0,0.2,0c0.1,0,0.2,0,0.3,0c0.3,0,0.6,0,0.9,0
	c0.3,0,0.7,0,1,0c0,0,0,0,0,0c0.2,0,0.2,0.1,0.2,0.3c0,1.4,0,2.7,0,4.1c0,0.7-0.3,1-1,1c-0.7,0-1.3,0-2,0c-0.7,0-1.3,0-2,0
	c-0.7,0-1-0.4-1-1.1c0-1.5,0-3,0-4.5c0-0.1,0-0.2,0-0.3C38.7,22.5,38.5,22.5,38.3,22.5z M34.4,28.4c0-1.3,0-2.6,0-3.9
	c0.1,0,0.2,0,0.2,0c0,0,0.1,0,0.1,0c0.8,0,1.7,0,2.5,0c0,0,0,0,0.1,0c0.3,0,0.3,0,0.3-0.4c0-0.3,0-0.6,0-0.9c0-0.2,0-0.4,0-0.7
	c-1.1,0-2.2,0-3.3,0c0-0.2,0-0.3,0-0.5c0.1,0,0.1,0,0.2,0c0,0,0.1,0,0.1,0c0.8,0,1.6,0,2.4,0c0.1,0,0.2,0,0.3,0c0,0,0,0,0,0
	c0.2,0,0.3-0.1,0.3-0.3c0-0.3,0-0.6,0-0.9c0-0.3,0-0.6,0-0.8c-0.1,0-0.1,0-0.2,0c0,0,0,0,0,0c-1.5,0-3.1,0-4.6,0c-0.1,0-0.2,0-0.3,0
	c-0.7,0.1-0.9,0.4-0.9,1.1c0,2.4,0,4.7,0,7.1c0,0.1,0,0.2,0,0.3C32.7,28.4,33.5,28.4,34.4,28.4z M27,31.3h2.8L27,35.5v2.1h6.1v-2.1
	h-2.8l2.8-4.2v-2.1H27V31.3z M19.1,29.5c-0.3-0.2-0.6-0.3-0.9-0.3c-0.6,0-1,0-1.2,0.1c-0.4,0.1-0.7,0.3-1,0.6
	c-0.3-0.4-0.7-0.6-1.2-0.6c-1,0-1.7,0.2-2,0.5v-0.5h-2.7v8.3h2.7v-6.2h0.7v6.2h2.7v-6.2h0.7v6.2h2.7v-7.3
	C19.6,30,19.4,29.7,19.1,29.5z M11.3,18.8c0,0.7-0.3,1-1,1.1c-0.2,0-0.4,0-0.6,0c-0.1,0-0.2,0-0.3,0c0,0,0,0,0,0c-0.5,0-1.1,0-1.6,0
	c-0.7,0-1.3,0-2,0c-0.1,0-0.2,0-0.3,0c0-0.7,0-1.3,0-2c1.1,0,2.2,0,3.3,0c0-0.2,0-0.3,0-0.5c-0.2,0-0.4,0-0.6,0c-0.1,0-0.2,0-0.4,0
	c-0.4,0-0.9,0-1.3,0c-0.7,0-1-0.4-1-1c0-2.1,0-4.2,0-6.3c0-0.7,0.3-1.1,1-1.1c0.7,0,1.4,0,2,0c0.9,0,1.9,0,2.9,0c0,0.1,0,0.2,0,0.3
	c0,3.2,0,6.3,0,9.5C11.3,18.7,11.3,18.7,11.3,18.8z M8.4,10.8c0,0-0.1,0-0.1,0c-0.2,0-0.3,0-0.3,0.2c0,1.3,0,2.7,0,4
	c0,0,0,0.1,0,0.1c0.2,0,0.4,0,0.7,0c0-0.1,0-0.2,0-0.3c0-1.2,0-2.5,0-3.7C8.7,10.9,8.7,10.8,8.4,10.8z M14.9,28.5c0.6,0,1.2,0,1.9,0
	c0.8,0,1.1-0.4,1.1-1.1c0-1.3,0-2.6,0-4c0-0.1,0-0.2,0-0.3c-0.9,0-1.7,0-2.6,0c0,0.1,0,0.2,0,0.3c0,0.9,0,1.8,0,2.7
	c0,0.2,0,0.3-0.3,0.3c0,0,0,0,0,0c-0.4,0-0.4,0-0.4-0.3c0-1.1,0-2.2,0-3.3c0-0.1,0-0.2,0-0.3c1.1,0,2.2,0,3.3,0c0-0.7,0-1.3,0-2
	c-1.1,0-2.2,0-3.3,0c0-0.6,0-1.1,0-1.7c-0.9,0-1.7,0-2.6,0c0,0.5,0,1,0,1.4c0,0.2-0.1,0.2-0.2,0.2c0,0,0,0,0,0c-0.1,0-0.2,0-0.3,0
	c-0.1,0-0.3,0-0.4,0c0,0.7,0,1.3,0,2c0.1,0,0.3,0,0.4,0c0.1,0,0.2,0,0.2,0c0,0,0.1,0,0.1,0c0.2,0,0.2,0.1,0.2,0.3c0,1.5,0,3,0,4.5
	c0,0.8,0.3,1.1,1.1,1.1C13.7,28.5,14.3,28.5,14.9,28.5z M43.3,29.2h-2.7v8.3h2.7v-6.2h0.7v6.2h2.7v-7.3c0-0.3-0.2-0.6-0.5-0.8
	c-0.3-0.2-0.6-0.3-0.9-0.3c-0.9,0-1.6,0.2-2,0.5V29.2z M39.9,30.3v6.2c0,0.7-0.4,1-1.3,1h-3.4c-0.9,0-1.3-0.3-1.3-1v-6.2
	c0-0.7,0.4-1,1.3-1h3.4C39.4,29.2,39.9,29.6,39.9,30.3z M37.2,31.3h-0.7v4.2h0.7V31.3z M25.2,27.3c0-2,0-4.1,0-6.1
	c0-0.8,0.2-1.1,1.1-1.2c0.4,0,0.9,0,1.3,0c0.4,0,0.8,0,1.3,0c0.5,0,0.9,0,1.3,0c0.6,0.1,0.9,0.4,0.9,1c0,1.3,0,2.7,0,4
	c0,0.1,0,0.1,0,0.3c-0.5,0-0.9,0-1.3,0c-0.2,0-0.4,0-0.7,0c-0.2,0-0.4,0-0.6,0c-0.1,0-0.3,0-0.4,0c0,0,0,0-0.1,0
	c-0.2,0-0.3,0.1-0.3,0.3c0,0.1,0,0.2,0,0.4c0,0.4,0,0.4,0.4,0.4c0,0,0,0,0,0c0.2,0,0.3-0.1,0.3-0.3c0-0.1,0-0.1,0-0.2
	c0.9,0,1.7,0,2.6,0c0,0.6,0,1.2,0,1.8c0,0.4-0.3,0.6-0.7,0.7c-0.2,0-0.4,0.1-0.6,0.1c-0.5,0-1,0-1.6,0c-0.6,0-1.1,0-1.7,0
	c-0.1,0-0.2,0-0.3,0C25.4,28.4,25.2,28.1,25.2,27.3z M27.8,22.5c0,0,0,0.1,0,0.1c0,0.4,0,0.6,0.3,0.6c0.1,0,0.2,0,0.3,0
	c0,0,0,0,0.1,0c0-0.4,0-0.7,0-1.1C28.3,22,28.1,22,28,22C27.8,22,27.8,22.1,27.8,22.5z M31.7,16.3c0-0.1,0-0.2,0-0.3c0-2,0-4,0-6
	c0-0.8,0.3-1.2,1.2-1.2c0.2,0,0.5,0,0.7,0c0.3,0,0.7,0,1,0c0,0,0,0,0.1,0c0,0,0.1,0,0.1,0c0.1,0,0.1,0,0.2,0c0-0.7,0-1.4,0-2.1
	c0.9,0,1.7,0,2.6,0c0,0.1,0,0.1,0,0.2c0,3.3,0,6.6-0.1,9.9c0,0.4,0,0.4-0.4,0.4c-0.7,0-1.4,0-2.1,0c-0.7,0-1.3,0-2,0
	c-0.3,0-0.5,0-0.8-0.1C32,17,31.8,16.8,31.7,16.3z M34.4,14.9c0.2,0,0.4,0,0.6,0c0-1.4,0-2.7,0-4.1c-0.2,0-0.4,0-0.6,0
	C34.4,12.2,34.4,13.6,34.4,14.9z M21.5,20c0.7,0,1.4,0,2,0c0.6,0,0.9,0.4,0.9,1c0,2.4,0,4.8,0,7.2c0,0.1,0,0.1,0,0.2
	c-0.9,0-1.7,0-2.6,0c0-0.1,0-0.2,0-0.3c0-1.9,0-3.9,0-5.8c0-0.1,0-0.3-0.1-0.3c-0.1,0-0.2,0-0.2,0c-0.1,0-0.2,0-0.3,0
	c0,0-0.1,0.2-0.1,0.3c0,1.9,0,3.8,0,5.8c0,0.1,0,0.2,0,0.3c-0.9,0-1.7,0-2.6,0c0-0.1,0-0.2,0-0.3c0-2.6,0-5.3,0-7.9
	c0-0.4,0-0.4-0.4-0.4c-0.6,0-1.1,0-1.7,0c-0.2,0-0.3,0-0.5,0c-0.6-0.1-0.8-0.4-0.8-1c0-1.4,0-2.7,0-4.1c0-0.1,0-0.3,0-0.4
	c0-0.2-0.1-0.3-0.2-0.3c0,0,0,0-0.1,0c0,0-0.1,0-0.1,0c-0.1,0-0.2,0-0.3,0c0,1.4,0,2.8,0,4.2c-0.9,0-1.7,0-2.6,0c0-3.1,0-6.2,0-9.4
	c0.1,0,0.2,0,0.3,0c0.7,0,1.4,0,2.1,0c0.7,0,1.4,0,2.2,0c0,0,0,0,0,0c0,0,0,0,0.1,0c0.1,0,0.2,0,0.2,0c0.7,0.1,1,0.4,1,1.1
	c0,0.7,0,1.4,0,2.1c0,0.4-0.1,0.7-0.6,0.8c0.6,0.1,0.6,0.6,0.6,1c0,1.2,0,2.5,0,3.7c0,0.2,0.1,0.3,0.3,0.3c0,0,0,0,0,0
	c0.5,0,0.9,0,1.4,0c0.5,0,1.1,0,1.6,0c0,0.7,0,1.4,0,2.1c0.1,0,0.2,0,0.2,0C21.5,20,21.5,20,21.5,20z M15.3,11.4
	c0-0.4,0-0.6-0.2-0.6c-0.1,0-0.2,0-0.4,0.1c0,0.4,0,0.8,0,1.2c0.2,0,0.4,0,0.7,0C15.3,11.8,15.3,11.6,15.3,11.4z M19.7,8.8
	c0.4,0,0.9,0,1.3,0c0.5,0,0.9,0,1.4,0c0.4,0,0.8,0,1.3,0.1c0.5,0.1,0.8,0.4,0.8,0.9c0,2.4,0,4.9,0,7.3c0,0,0,0,0,0.1
	c-0.1,0-0.2,0-0.3,0c-0.7,0-1.5,0-2.2,0c-0.7,0-1.4,0-2.1,0c-0.3,0-0.5,0-0.8-0.1c-0.4-0.1-0.6-0.4-0.6-0.8c0-1.2,0-2.3,0-3.5
	c0-0.6,0.3-0.9,0.9-0.9c0.5,0,1,0,1.6,0c0.2,0,0.3,0,0.5,0c0,0,0,0,0,0c0.2,0,0.3-0.1,0.3-0.3c0-0.1,0-0.2,0-0.3
	c0-0.4,0-0.4-0.4-0.4c0,0,0,0,0,0c-0.2,0-0.3,0.1-0.3,0.3c0,0.2-0.1,0.2-0.2,0.2c0,0,0,0,0,0c-0.4,0-0.7,0-1.1,0c-0.4,0-0.7,0-1.1,0
	c0,0,0,0,0,0c-0.2,0-0.2-0.1-0.2-0.3c0-0.4,0-0.7,0-1.1C18.6,9.2,18.9,8.9,19.7,8.8z M21.8,14c-0.2,0-0.4,0-0.6,0c0,0.4,0,0.8,0,1.3
	c0.1,0,0.2,0,0.3,0c0.1,0,0.1,0,0.2,0c0.1,0,0.2-0.1,0.2-0.1C21.8,14.7,21.8,14.4,21.8,14z M9.4,30.3v7.3H4.7c-0.9,0-1.3-0.3-1.3-1
	v-3.1c0-0.7,0.4-1,1.3-1h2v-1H6.1v0.5H3.4v-1.5c0-0.7,0.4-1,1.3-1h3.4C9,29.2,9.4,29.6,9.4,30.3z M6.7,34.4H6.1v1.1h0.7V34.4z
	 M21.6,29.2H25c0.9,0,1.3,0.3,1.3,1v7.3h-4.7c-0.9,0-1.3-0.3-1.3-1v-3.1c0-0.7,0.4-1,1.3-1h2v-1H23v0.5h-2.7v-1.5
	C20.3,29.6,20.7,29.2,21.6,29.2z M23.6,34.4H23v1.1h0.7V34.4z M27.8,16c0-1.6,0-3.2,0-4.9c0-0.1,0-0.3,0.1-0.3c0.1,0,0.2,0,0.3,0
	c0.1,0,0.2,0,0.3,0c0,0,0.1,0.2,0.1,0.3c0,1.9,0,3.8,0,5.7c0,0.1,0,0.2,0,0.3c0.9,0,1.7,0,2.6,0c0,0,0-0.1,0-0.1c0-2.4,0-4.9,0-7.3
	c0-0.5-0.3-0.8-0.8-0.9c-0.2,0-0.5-0.1-0.7-0.1C29,8.8,28.5,9,28,9.2c0,0-0.1,0-0.2,0.1c0-0.2,0-0.3,0-0.5c-0.9,0-1.7,0-2.6,0
	c0,2.8,0,5.6,0,8.4c0.9,0,1.7,0,2.6,0C27.8,16.8,27.8,16.4,27.8,16z"/>
<path fill="#FF9201" d="M26,43.9c-1,0-2-0.1-3-0.2c-5.1-0.6-8-1.6-11.8-4.1c-2-1.3-3.7-2.8-5.2-4.5c-0.3-0.4-0.2-0.6-0.1-0.8
	c0.2-0.2,0.3-0.2,0.4-0.2c0.2,0,0.3,0.1,0.4,0.2l3.6,2.3c2.1,1.2,4.4,2.2,6.7,2.8c1.3,0.4,2.6,0.7,3.9,0.9c1.4,0.2,2.8,0.4,4.2,0.5
	c0.5,0,1,0,1.6,0c2.7,0,5.3-0.3,7.9-0.9c0.9-0.2,1.7-0.5,2.5-0.7c0.1,0,0.2-0.1,0.3-0.1c0.3,0,0.5,0.1,0.7,0.3
	c0.1,0.2,0.2,0.4,0.1,0.6c0,0.2-0.2,0.4-0.4,0.6C34.1,42.8,30.1,43.9,26,43.9z M38.4,43.5c0.4-0.2,0.6-0.5,0.9-0.8
	c1.1-1.3,1.8-2.8,2.1-4.5c0.2-0.8-0.1-1.1-0.8-1.3c-0.8-0.3-1.7-0.4-2.5-0.4c-0.3,0-0.7,0-1,0.1c-0.8,0.1-1.6,0.3-2.4,0.8
	c-0.1,0.1-0.1,0.2-0.2,0.3c-0.1,0.1-0.1,0.2-0.1,0.3c0,0.1,0.1,0.2,0.2,0.2c0.1,0,0.1,0,0.2,0.1c0.1,0,0.1,0.1,0.2,0.1
	c0.6,0,1.3,0,1.9,0l0.8,0c0.5,0,0.8,0.1,1,0.2c0.5,0.1,0.5,0.3,0.5,0.5c0,0.3-0.1,0.7-0.2,1c-0.2,0.5-0.4,1-0.7,1.5
	c-0.2,0.5-0.4,1-0.6,1.5c-0.1,0.1-0.1,0.3-0.1,0.4c0,0.1,0,0.1,0.1,0.2c0,0.1,0.1,0.1,0.2,0.1c0.1,0,0.1,0,0.2,0
	C38.1,43.6,38.3,43.6,38.4,43.5z"/>
<path d="M6.2,34.4c0.1,0,0.2,0.1,0.3,0.1c1.2,0.8,2.4,1.5,3.6,2.3c2.2,1.3,4.5,2.2,6.8,2.9c1.3,0.4,2.6,0.7,3.9,0.9
	c1.4,0.2,2.8,0.4,4.2,0.5c0.5,0,1,0,1.6,0c2.7,0,5.3-0.3,7.9-1c0.9-0.2,1.7-0.5,2.5-0.8c0.1,0,0.1,0,0.2,0c0.3,0,0.6,0.3,0.5,0.6
	c0,0.2-0.2,0.3-0.4,0.5c-3.2,2-7.1,3.2-11.5,3.2c-1,0-2-0.1-3-0.2c-5.4-0.7-8.1-1.8-11.7-4.1c-1.9-1.2-3.6-2.7-5.1-4.4
	C6,34.8,6,34.6,6.1,34.5C6.1,34.4,6.2,34.4,6.2,34.4 M6.2,33.9c-0.1,0-0.3,0-0.5,0.2c0,0-0.1,0.1-0.1,0.1c-0.1,0.2-0.2,0.6,0.1,1.1
	C7.2,37,9,38.5,11,39.8c3.8,2.5,6.7,3.5,11.9,4.1c1,0.1,2,0.2,3,0.2c4.2,0,8.2-1.1,11.7-3.3c0,0,0,0,0.1,0c0.2-0.2,0.5-0.4,0.5-0.7
	c0.1-0.3,0-0.5-0.2-0.8c-0.2-0.3-0.5-0.4-0.9-0.4c-0.1,0-0.2,0-0.3,0.1c-0.8,0.2-1.6,0.5-2.5,0.7c-2.6,0.6-5.1,0.9-7.8,0.9
	c-0.5,0-1,0-1.5,0c-1.4-0.1-2.8-0.3-4.2-0.5c-1.3-0.2-2.6-0.6-3.9-0.9c-2.3-0.6-4.5-1.6-6.6-2.8l-1.8-1.1l-1.8-1.2
	C6.7,34,6.5,33.9,6.2,33.9L6.2,33.9z M38,36.7c0.9,0,1.7,0.1,2.5,0.4c0.6,0.2,0.8,0.4,0.6,1c-0.2,1.7-0.9,3.2-2,4.4
	c-0.3,0.3-0.5,0.5-0.9,0.7c-0.1,0-0.1,0.1-0.2,0.1c-0.1,0-0.1,0-0.2,0c0-0.1-0.1-0.3,0-0.3c0.4-1,0.9-2.1,1.3-3.1
	c0.1-0.3,0.1-0.7,0.2-1.1c0-0.4-0.2-0.6-0.6-0.7C38.4,38,38.1,38,37.7,38c-0.3,0-0.5,0-0.8,0c-0.6,0-1.2,0-1.9,0
	c-0.1,0-0.2-0.1-0.4-0.1c0.1-0.1,0.1-0.2,0.2-0.3c0.7-0.5,1.5-0.7,2.3-0.8C37.4,36.7,37.7,36.7,38,36.7 M38,36.2c-0.3,0-0.7,0-1,0.1
	c-0.8,0.1-1.7,0.3-2.5,0.9c-0.2,0.1-0.2,0.3-0.3,0.4c0,0,0,0,0,0c0,0,0,0,0,0c-0.1,0.1-0.2,0.3-0.1,0.5c0.1,0.2,0.2,0.3,0.4,0.3
	c0,0,0.1,0,0.1,0c0.1,0,0.2,0.1,0.3,0.1c0.7,0,1.3,0,1.9,0c0.3,0,0.5,0,0.8,0c0.4,0,0.7,0.1,0.9,0.2c0.3,0.1,0.3,0.1,0.3,0.1
	c0,0,0,0,0,0.1c0,0.3-0.1,0.7-0.2,0.9c-0.2,0.5-0.4,1-0.6,1.5c-0.2,0.5-0.4,1-0.6,1.5c-0.1,0.2-0.1,0.4-0.1,0.5c0,0.1,0,0.3,0.1,0.4
	c0.1,0.1,0.2,0.2,0.3,0.2c0.1,0,0.2,0,0.2,0c0.1,0,0.3,0,0.5-0.1c0.4-0.2,0.7-0.5,0.9-0.8c1.2-1.3,1.9-2.9,2.1-4.7
	c0.2-1-0.2-1.3-0.9-1.6C39.8,36.3,39,36.2,38,36.2L38,36.2z"/>
</svg>
