<?xml version="1.0" encoding="utf-8"?>
<!-- Generator: Adobe Illustrator 23.0.0, SVG Export Plug-In . SVG Version: 6.00 Build 0)  -->
<svg version="1.0" id="Layer_1" xmlns="http://www.w3.org/2000/svg" xmlns:xlink="http://www.w3.org/1999/xlink" x="0px" y="0px"
	 viewBox="0 0 50 50" enable-background="new 0 0 50 50" xml:space="preserve">
<g id="ALIBABA">
	<path d="M35.9,13.2c-0.2,0-0.4,0-0.7,0c0-1.5,0-2.9,0-4.4c0.2,0,0.4,0,0.7,0C35.9,10.3,35.9,11.7,35.9,13.2z M6.4,36h0.7v-1.1H6.4
		V36z M14.3,8.7c-0.1,0-0.2,0-0.5,0.1c0,0.4,0,0.9,0,1.3c0.2,0,0.5,0,0.7,0c0-0.3,0-0.5,0-0.8C14.6,8.9,14.6,8.7,14.3,8.7z M28,36
		h0.7v-1.1H28V36z M35.2,36h0.7v-4.5h-0.7V36z M42.4,36h0.7v-1.1h-0.7V36z M21,36h0.7v-4.3H21V36z M28.3,22.1c0.1,0,0.2,0,0.4,0
		c0,0,0,0,0.1,0c0-0.4,0-0.8,0-1.2c-0.2,0-0.3-0.1-0.5-0.1c-0.3,0-0.3,0.1-0.3,0.6c0,0,0,0.1,0,0.1C28.1,22,28.1,22.1,28.3,22.1z
		 M20.9,12.2c0,0.5,0,0.9,0,1.4c0.1,0,0.2,0,0.3,0c0.1,0,0.1,0,0.2,0c0.1,0,0.2-0.1,0.2-0.1c0-0.4,0-0.8,0-1.2
		C21.4,12.2,21.1,12.2,20.9,12.2z M7.1,8.8c0,0-0.1,0-0.1,0c-0.2,0-0.3,0-0.3,0.3c0,1.4,0,2.9,0,4.3c0,0,0,0.1,0,0.2
		c0.2,0,0.4,0,0.7,0c0-0.1,0-0.2,0-0.3c0-1.3,0-2.7,0-4C7.4,8.8,7.4,8.8,7.1,8.8z M47.5,24.2c0,0.8,0,1.6,0,2.4c0,1-0.6,1.8-1.4,2
		c0.1,0,0.1,0.1,0.2,0.1c0.3,0.3,0.7,0.8,0.7,1.6v7.8c0,0.5-0.4,1-1,1h-5.1c-0.7,0-1.3-0.2-1.7-0.5c0,0-0.1,0-0.1-0.1
		c0,0-0.1,0-0.1,0.1c-0.4,0.3-1,0.5-1.7,0.5h-5c-0.1,0-0.3,0-0.4-0.1c-0.1,0-0.2,0.1-0.4,0.1h-4.9c-0.7,0-1.3-0.2-1.7-0.5
		c0,0,0,0,0,0c0,0,0,0,0,0c-0.4,0.3-1,0.5-1.7,0.5h-5.1c-0.1,0-0.3,0-0.4-0.1c-0.1,0-0.2,0.1-0.4,0.1h-2.9c-0.1,0-0.3,0-0.4-0.1
		c-0.1,0-0.2,0.1-0.4,0.1h-2.9c-0.1,0-0.3,0-0.4-0.1c-0.1,0-0.2,0.1-0.4,0.1H4.9c-0.7,0-1.3-0.2-1.7-0.5c-0.3-0.3-0.8-0.8-0.8-1.6
		v-3.4c0-0.4,0.1-0.8,0.2-1c-0.2-0.2-0.2-0.4-0.2-0.7v-1.7c0-0.9,0.4-1.4,0.7-1.6c0.4-0.3,1-0.5,1.7-0.5h3.6c0.6,0,1.1,0.1,1.5,0.3
		c0.2-0.2,0.4-0.3,0.6-0.3c-0.1,0-0.1-0.1-0.2-0.2c-0.4-0.4-0.5-0.9-0.5-1.6c0-0.3,0-0.7,0-1c0-1.1,0-2.1,0-3.2c0,0,0,0,0,0
		c-0.5,0-1-0.4-1-1v-1.9c-0.2,0-0.4,0-0.5,0c-0.1,0-0.1,0-0.2,0c-0.1,0-0.1,0-0.2,0l0,0c-0.6,0-1.2,0-1.8,0l-1.1,0l-1,0H3.8
		c-0.5,0-1-0.4-1-1v-2.2c0-0.2,0.1-0.5,0.2-0.6c-0.2-0.3-0.3-0.7-0.2-1.1c0-2.6,0-4.8,0-6.8c0-0.6,0.2-1.2,0.5-1.5
		c0.4-0.4,0.9-0.6,1.6-0.6c0.7,0,1.4,0,2.2,0h0c0.5,0,1,0,1.5,0c0.5,0,1,0,1.6,0c0.1,0,0.3,0,0.4,0.1c0.1,0,0.2-0.1,0.3-0.1
		c0,0,0.1,0,0.1,0c0.1,0,0.2,0,0.3,0c0.8,0,1.5,0,2.3,0c0.8,0,1.5,0,2.3,0h0l0,0l0,0c0.1,0,0.2,0,0.4,0c0.6,0.1,1.1,0.2,1.4,0.5
		c0.4-0.4,0.9-0.5,1.6-0.6c0.4,0,0.9,0,1.4,0c0.6,0,1.1,0,1.5,0c0,0,0.1,0,0.1,0c0.4,0,0.9,0,1.4,0.1c0.3,0,0.5,0.1,0.7,0.2
		c0.2-0.2,0.4-0.3,0.7-0.3H28c0.2,0,0.4,0.1,0.6,0.2c0.4-0.1,0.9-0.2,1.4-0.2c0.3,0,0.6,0,0.9,0.1c0.4,0.1,0.8,0.2,1.1,0.5
		c0.4-0.3,0.9-0.5,1.6-0.6c0.2,0,0.5,0,0.8,0c0.2,0,0.3,0,0.5,0V4.3c0-0.5,0.4-1,1-1h2.8c0.5,0,0.9,0.4,1,0.9c0,0,0,0,0,0
		c0,0.1,0,0.2,0,0.3c0,3.2,0,6.6-0.1,10.7c0,0.3,0,0.7-0.3,1.1c-0.3,0.3-0.8,0.3-1.1,0.3c-0.4,0-0.7,0-1.1,0c-0.4,0-0.8,0-1.2,0
		c-0.9,0-1.5,0-2.2,0c-0.4,0-0.8,0-1.1-0.1c-0.2,0-0.4-0.1-0.5-0.2c-0.2,0.2-0.4,0.3-0.7,0.3h-2.8c-0.1,0-0.2,0-0.4-0.1
		c-0.1,0-0.2,0.1-0.4,0.1h-2.8c-0.1,0-0.3,0-0.4-0.1c-0.1,0-0.2,0.1-0.3,0.1c0,0-0.1,0-0.1,0c-0.1,0-0.2,0-0.3,0c-0.3,0-0.7,0-1,0
		c-0.4,0-0.8,0-1.2,0v1c0,0,0,0,0,0c0.5,0,1.1,0,1.6,0c0.5,0,1,0.2,1.3,0.5c0.5-0.4,1-0.5,1.5-0.5c0.4,0,0.9,0,1.5,0
		c0.2,0,0.5,0,0.7,0c0.2,0,0.4,0,0.6,0l0,0c0.5,0,1,0,1.5,0c0.5,0,0.9,0.2,1.3,0.5c0.3-0.3,0.7-0.4,1.2-0.5c0,0,0,0,0.1,0
		c0.1,0,0.2,0,0.4,0c1.7,0,3.5,0,5,0h0c0.1,0,0.2,0,0.3,0c0,0,0,0,0.1,0c0.1,0,0.2,0,0.3,0.1c0.2-0.3,0.5-0.4,0.8-0.4h2.8
		c0.5,0,0.9,0.4,1,0.9c0,0,0.1,0,0.1,0c0.2,0,0.3,0,0.5,0c0.2,0,0.3,0,0.5,0c0.3,0,0.7,0,1.1,0c0,0,0,0,0,0c0.4,0,0.7,0.1,1,0.4
		c0.2,0.3,0.4,0.6,0.3,1c0,0.4,0,0.9,0,1.4c0,0.2,0,0.4-0.1,0.6c0.1,0.2,0.1,0.4,0.1,0.6C47.5,22.9,47.5,23.6,47.5,24.2z M32.3,14.4
		c0,0.1,0,0.2,0,0.3c0,0.5,0.2,0.8,0.7,0.9c0.3,0.1,0.6,0.1,0.8,0.1c0.7,0,1.4,0,2.2,0c0.7,0,1.5,0,2.2,0c0.4,0,0.4,0,0.4-0.4
		c0-3.6,0-7.1,0.1-10.7c0-0.1,0-0.2,0-0.2c-0.9,0-1.9,0-2.8,0c0,0.8,0,1.5,0,2.3c-0.1,0-0.2,0-0.3,0c0,0-0.1,0-0.1,0c0,0,0,0-0.1,0
		c-0.4,0-0.7,0-1.1,0c-0.3,0-0.5,0-0.8,0c-0.9,0-1.3,0.4-1.3,1.3C32.3,10.1,32.3,12.2,32.3,14.4z M25.2,15.7c0.9,0,1.8,0,2.8,0
		c0-0.4,0-0.9,0-1.3c0-1.8,0-3.5,0-5.3c0-0.1,0-0.3,0.1-0.3c0.1,0,0.2,0,0.3,0c0.1,0,0.2,0,0.3,0c0,0,0.1,0.2,0.1,0.3
		c0,2.1,0,4.1,0,6.2c0,0.1,0,0.2,0,0.3c1,0,1.9,0,2.8,0c0,0,0-0.1,0-0.1c0-2.6,0-5.3,0-7.9c0-0.5-0.3-0.9-0.8-1
		c-0.3,0-0.5-0.1-0.8-0.1c-0.6,0-1.2,0.1-1.8,0.4c0,0-0.1,0-0.2,0.1c0-0.2,0-0.3,0-0.5c-0.9,0-1.9,0-2.8,0
		C25.2,9.6,25.2,12.6,25.2,15.7z M10,30.4c0-0.8-0.5-1.1-1.5-1.1H4.9c-1,0-1.5,0.4-1.5,1.1v1.7h2.9v-0.5h0.7v1.1H4.9
		c-1,0-1.5,0.4-1.5,1.1v3.4c0,0.7,0.5,1.1,1.5,1.1H10V30.4z M21.3,9.9C21.3,9.9,21.3,9.9,21.3,9.9c-0.2,0-0.4,0-0.6,0
		c-0.6,0-1.1,0-1.7,0c-0.6,0-1,0.4-1,1c0,1.3,0,2.5,0,3.8c0,0.4,0.2,0.7,0.6,0.8c0.3,0.1,0.6,0.1,0.9,0.1c0.7,0,1.5,0,2.2,0
		c0.8,0,1.6,0,2.4,0c0.1,0,0.2,0,0.3,0c0-0.1,0-0.1,0-0.1c0-2.6,0-5.3,0-7.9c0-0.6-0.3-0.9-0.8-1c-0.4-0.1-0.9-0.1-1.4-0.1
		c-0.5,0-1,0-1.5,0c-0.5,0-1,0-1.4,0c-0.9,0-1.3,0.4-1.3,1.3c0,0.4,0,0.8,0,1.1c0,0.2,0.1,0.3,0.3,0.3c0,0,0,0,0,0
		c0.4,0,0.8,0,1.1,0c0.4,0,0.8,0,1.2,0c0,0,0,0,0,0c0.2,0,0.3-0.1,0.3-0.3c0-0.2,0.1-0.3,0.3-0.3c0,0,0,0,0,0c0.5,0,0.5,0,0.5,0.5
		c0,0.1,0,0.2,0,0.4C21.7,9.8,21.6,9.9,21.3,9.9z M10.2,17.4c0-0.1,0-0.1,0-0.2c0-3.4,0-6.8,0-10.2c0-0.1,0-0.2,0-0.3
		c-1,0-2.1,0-3.1,0c-0.7,0-1.5,0-2.2,0C4.2,6.6,3.8,7,3.8,7.8c0,2.3,0,4.5,0,6.8c0,0.7,0.3,1.1,1.1,1.1c0.5,0,1,0,1.4,0
		c0.1,0,0.3,0,0.4,0c0.2,0,0.4,0,0.7,0c0,0.2,0,0.4,0,0.6c-1.2,0-2.3,0-3.5,0c0,0.7,0,1.4,0,2.2c0.1,0,0.2,0,0.4,0
		c0.7,0,1.4,0,2.1,0c0.6,0,1.2,0,1.8,0c0,0,0,0,0,0c0.1,0,0.2,0,0.3,0c0.2,0,0.4,0,0.6,0C9.8,18.5,10.2,18.1,10.2,17.4z M13.7,36
		L13.7,36l0-6.7h-2.9v9h2.9V36z M16.2,27.8c0.8,0,1.1-0.4,1.2-1.2c0-1.4,0-2.8,0-4.3c0-0.1,0-0.2,0-0.3c-0.9,0-1.9,0-2.8,0
		c0,0.1,0,0.2,0,0.3c0,1,0,2,0,3c0,0.2,0,0.3-0.3,0.3c0,0,0,0,0,0c-0.5,0-0.5,0-0.5-0.3c0-1.2,0-2.4,0-3.6c0-0.1,0-0.2,0-0.3
		c1.2,0,2.4,0,3.5,0c0-0.7,0-1.4,0-2.1c-1.2,0-2.3,0-3.5,0c0-0.6,0-1.2,0-1.8c-1,0-1.9,0-2.8,0c0,0.5,0,1,0,1.5
		c0,0.2-0.1,0.3-0.2,0.3c0,0,0,0,0,0c-0.1,0-0.2,0-0.3,0c-0.2,0-0.3,0-0.5,0c0,0.7,0,1.4,0,2.1c0.1,0,0.3,0,0.4,0c0.1,0,0.2,0,0.3,0
		c0,0,0.1,0,0.1,0c0.2,0,0.3,0.1,0.3,0.3c0,1.6,0,3.2,0,4.9c0,0.8,0.3,1.2,1.1,1.2c0.7,0,1.4,0,2,0C14.8,27.8,15.5,27.8,16.2,27.8z
		 M17.4,32.1h-2.9v6.2h2.9V32.1z M17.4,29.3h-2.9v2.2h2.9V29.3z M18.1,27.2H21c0,0,0-3.9,0-6c0-0.1,0-0.3,0.1-0.3c0.1,0,0.2,0,0.3,0
		c0.1,0,0.2,0,0.3,0c0,0,0.1,0.2,0.1,0.3c0,2.1,0,6.6,0,6.6h2.8c0,0,0-5.4,0-8c0-0.7-0.3-1-1-1.1c-0.7,0-1.5,0-2.2,0
		c0,0-0.1,0-0.1,0c-0.1,0-0.2,0-0.2,0c0-0.8,0-1.5,0-2.3c-0.6,0-1.2,0-1.8,0c-0.5,0-1,0-1.5,0c0,0,0,0,0,0c-0.3,0-0.3-0.1-0.3-0.3
		c0-1.3,0-2.6,0-4c0-0.5,0-0.9-0.6-1.1c0.5-0.1,0.6-0.5,0.6-0.9c0-0.7,0-1.5,0-2.2c0-0.8-0.3-1.2-1.1-1.2c-0.1,0-0.2,0-0.3,0
		c0,0,0,0-0.1,0c0,0,0,0,0,0c-0.8,0-1.5,0-2.3,0c-0.8,0-1.5,0-2.3,0c-0.1,0-0.2,0-0.3,0c0,3.4,0,6.7,0,10.1c0.9,0,1.9,0,2.8,0
		c0-1.5,0-3,0-4.5c0.1,0,0.2,0,0.3,0c0.1,0,0.1,0,0.2,0c0,0,0,0,0.1,0c0.2,0,0.3,0.1,0.2,0.3c0,0.2,0,0.3,0,0.5c0,1.5,0,2.9,0,4.4
		c0,0.7,0.3,1,0.9,1.1c0.2,0,0.3,0,0.5,0c0.6,0,1.2,0,1.8,0c0.4,0,0.4,0,0.4,0.4C18.1,21.8,18.1,27.2,18.1,27.2z M24.7,30.6
		c0-0.8-0.5-1.1-1.5-1.1H21v-1.7h-2.8v10.5h5.1c1,0,1.5-0.4,1.5-1.1V30.6z M31.6,30.4c0-0.8-0.3-1.1-1.3-1.1h-3.6
		c-1,0-1.5,0.4-1.5,1.1v1.7H28v-0.5h0.7v1.1h-2c-1,0-1.5,0.4-1.5,1.1v3.4c0,0.7,0.5,1.1,1.5,1.1h4.9V30.4z M31.6,19.8
		c0-0.7-0.3-1-1-1.1c-0.5,0-1,0-1.5,0c-0.5,0-0.9,0-1.4,0c-0.5,0-0.9,0-1.4,0c-0.9,0.1-1.2,0.4-1.2,1.3c0,2.2,0,4.4,0,6.6
		c0,0.8,0.3,1.1,1.1,1.2c0.1,0,0.2,0,0.3,0c0.6,0,1.2,0,1.8,0c0.6,0,1.1,0,1.7,0c0.2,0,0.4,0,0.6-0.1c0.4-0.1,0.7-0.3,0.8-0.7
		c0-0.6,0-1.3,0-2c-0.9,0-1.8,0-2.8,0c0,0.1,0,0.2,0,0.2c0,0.2-0.1,0.3-0.3,0.3c0,0,0,0,0,0c-0.4,0-0.4,0-0.4-0.4c0-0.1,0-0.3,0-0.4
		c0-0.2,0-0.4,0.3-0.4c0,0,0,0,0.1,0c0.1,0,0.3,0,0.4,0c0.2,0,0.4,0,0.6,0c0.2,0,0.5,0,0.7,0c0.5,0,1,0,1.4,0c0-0.1,0-0.2,0-0.3
		C31.6,22.7,31.6,21.3,31.6,19.8z M35.2,26.4c0,0,0-1.5,0-2.9c0.2,0,2.2,0,3.1,0c0,0,0,0,0.1,0c0.4,0,0.4,0,0.4-0.4
		c0-0.3,0-1.5,0-1.8c-1.2,0-2.4,0-3.6,0c0-0.2,0-0.3,0-0.6c0.1,0,2,0,3.1,0c0.1,0,0.2,0,0.2,0c0,0,0,0,0,0c0.2,0,0.3-0.1,0.3-0.3
		c0-0.3,0-0.6,0-1c0-0.3,0-0.6,0-0.9c-0.1,0-0.1,0-0.2,0c0,0,0,0,0,0c-1.7,0-3.3,0-5,0c-0.1,0-0.2,0-0.3,0c-0.7,0.1-1,0.4-1,1.2
		c0,2.5,0,6.6,0,6.6H35.2z M38.8,30.4c0-0.8-0.5-1.1-1.5-1.1h-2.2v-2.2h-2.8v11.2h5c1,0,1.5-0.4,1.5-1.1V30.4z M40,28.4
		c-0.6-0.4-0.9-1-0.9-1.8c0-0.7,0-1.4,0-2.2c-0.3,0.1-0.5,0.1-0.7,0.1l-0.1,0l0,0c-0.5,0-1.4,0-2.1,0v1.9c0,0.1,0,0.2,0,0.3
		c0,0.1,0.1,0.2,0.1,0.3v1.3h1.2c0.7,0,1.3,0.2,1.7,0.5c0,0,0.1,0,0.1,0.1c0,0,0.1,0,0.1-0.1C39.4,28.6,39.7,28.5,40,28.4z M46,30.4
		c0-0.8-0.5-1.1-1.5-1.1h-3.6c-1,0-1.5,0.4-1.5,1.1v1.7h2.9v-0.5h0.7v1.1h-2.2c-1,0-1.5,0.4-1.5,1.1v3.4c0,0.7,0.5,1.1,1.5,1.1H46
		V30.4z M46.5,22.2c0-0.2,0-0.3-0.3-0.3c0,0,0,0,0,0c-0.4,0-0.7,0-1.1,0c-0.3,0-0.6,0-0.9,0c-0.1,0-0.2,0-0.3,0c-0.1,0-0.1,0-0.2,0
		c0,0.1,0,0.3,0,0.4c0,1,0,2,0,3c0,0.1-0.1,0.3-0.2,0.3c0,0-0.1,0-0.1,0c-0.2,0-0.3,0-0.5,0c0-0.1,0-0.2,0-0.3c0-1.2,0-2.4,0-3.6
		c0-0.3,0.1-0.3,0.3-0.3c0,0,0,0,0,0c0.4,0,0.8,0,1.1,0c0.3,0,0.6,0,0.9,0c0.3,0,0.6,0,0.9,0c0,0,0,0,0,0c0.2,0,0.3-0.1,0.3-0.3
		c0-0.5,0-1,0-1.5c0-0.3-0.1-0.3-0.3-0.3c0,0,0,0,0,0c-0.4,0-0.8,0-1.2,0c-0.3,0-0.6,0-1,0c-0.3,0-0.6,0-0.8,0c0,0,0,0,0,0
		c-0.2,0-0.3-0.1-0.3-0.3c0-0.2,0-0.4,0-0.6c-1,0-1.9,0-2.8,0c0,0.3,0,0.6,0,0.9c-0.1,0-0.2,0-0.3,0c-0.1,0-0.1,0-0.2,0
		c-0.1,0-0.2,0.1-0.2,0.1c0,0.6,0,1.3,0,2c0.2,0,0.5,0,0.7,0c0,0.1,0,0.3,0,0.4c0,1.6,0,3.3,0,4.9c0,0.7,0.3,1.1,1.1,1.1
		c0.7,0,1.4,0,2.2,0c0.7,0,1.4,0,2.1,0c0.7,0,1.1-0.4,1.1-1.1C46.5,25.2,46.5,23.7,46.5,22.2z"/>
	<path fill="#FFFFFF" d="M30.3,29.3h-3.6c-1,0-1.5,0.4-1.5,1.1v1.7H28v-0.5h0.7v1.1h-2c-1,0-1.5,0.4-1.5,1.1v3.4
		c0,0.7,0.5,1.1,1.5,1.1h4.9v-7.8C31.6,29.7,31.3,29.3,30.3,29.3z M28.7,36H28v-1.1h0.7V36z M17.3,22c0,0.1,0,0.2,0,0.3
		c0,1.4,0,2.8,0,4.3c0,0.8-0.3,1.2-1.2,1.2c-0.7,0-1.3,0-2,0c-0.7,0-1.4,0-2,0c-0.8,0-1.1-0.4-1.1-1.2c0-1.6,0-3.2,0-4.9
		c0-0.2,0-0.3-0.3-0.3c0,0-0.1,0-0.1,0c-0.1,0-0.2,0-0.3,0c-0.1,0-0.3,0-0.4,0c0-0.7,0-1.4,0-2.1c0.2,0,0.3,0,0.5,0
		c0.1,0,0.2,0,0.3,0c0,0,0,0,0,0c0.2,0,0.2-0.1,0.2-0.3c0-0.5,0-1,0-1.5c0.9,0,1.9,0,2.8,0c0,0.6,0,1.2,0,1.8c1.2,0,2.4,0,3.5,0
		c0,0.7,0,1.4,0,2.1c-1.2,0-2.3,0-3.5,0c0,0.1,0,0.2,0,0.3c0,1.2,0,2.4,0,3.6c0,0.3,0,0.3,0.5,0.3c0,0,0,0,0,0
		c0.2,0,0.3-0.1,0.3-0.3c0-1,0-2,0-3c0-0.1,0-0.2,0-0.3C15.5,22,16.4,22,17.3,22z M23.2,29.5H21v-1.7h-2.8v10.5h5.1
		c1,0,1.5-0.4,1.5-1.1v-6.6C24.7,29.9,24.2,29.5,23.2,29.5z M21.8,36H21v-4.3h0.7V36z M8.6,29.3H4.9c-1,0-1.5,0.4-1.5,1.1v1.7h2.9
		v-0.5h0.7v1.1H4.9c-1,0-1.5,0.4-1.5,1.1v3.4c0,0.7,0.5,1.1,1.5,1.1H10v-7.8C10,29.7,9.6,29.3,8.6,29.3z M7.1,36H6.4v-1.1h0.7V36z
		 M21,27.2c0,0,0-3.9,0-6c0-0.1,0-0.3,0.1-0.3c0.1,0,0.2,0,0.3,0c0.1,0,0.2,0,0.3,0c0,0,0.1,0.2,0.1,0.3c0,2.1,0,6.6,0,6.6h2.8
		c0,0,0-5.4,0-8c0-0.7-0.3-1-1-1.1c-0.7,0-1.5,0-2.2,0c0,0-0.1,0-0.1,0c-0.1,0-0.2,0-0.2,0c0-0.8,0-1.5,0-2.3c-0.6,0-1.2,0-1.8,0
		c-0.5,0-1,0-1.5,0c0,0,0,0,0,0c-0.3,0-0.3-0.1-0.3-0.3c0-1.3,0-2.6,0-4c0-0.5,0-0.9-0.6-1.1c0.5-0.1,0.6-0.5,0.6-0.9
		c0-0.7,0-1.5,0-2.2c0-0.8-0.3-1.2-1.1-1.2c-0.1,0-0.2,0-0.3,0c0,0,0,0-0.1,0c0,0,0,0,0,0c-0.8,0-1.5,0-2.3,0c-0.8,0-1.5,0-2.3,0
		c-0.1,0-0.2,0-0.3,0c0,3.4,0,6.7,0,10.1c0.9,0,1.9,0,2.8,0c0-1.5,0-3,0-4.5c0.1,0,0.2,0,0.3,0c0.1,0,0.1,0,0.2,0c0,0,0,0,0.1,0
		c0.2,0,0.3,0.1,0.2,0.3c0,0.2,0,0.3,0,0.5c0,1.5,0,2.9,0,4.4c0,0.7,0.3,1,0.9,1.1c0.2,0,0.3,0,0.5,0c0.6,0,1.2,0,1.8,0
		c0.4,0,0.4,0,0.4,0.4c0,2.8,0,8.3,0,8.3H21z M14.6,10.1c-0.2,0-0.5,0-0.7,0c0-0.4,0-0.9,0-1.3c0.2,0,0.3-0.1,0.5-0.1
		c0.3,0,0.3,0.1,0.3,0.6C14.6,9.6,14.6,9.8,14.6,10.1z M10.2,17.2c0-3.4,0-6.8,0-10.2c0-0.1,0-0.2,0-0.3c-1,0-2.1,0-3.1,0
		c-0.7,0-1.5,0-2.2,0C4.2,6.6,3.8,7,3.8,7.8c0,2.3,0,4.5,0,6.8c0,0.7,0.3,1.1,1.1,1.1c0.5,0,1,0,1.4,0c0.1,0,0.3,0,0.4,0
		c0.2,0,0.4,0,0.7,0c0,0.2,0,0.4,0,0.6c-1.2,0-2.3,0-3.5,0c0,0.7,0,1.4,0,2.2c0.1,0,0.2,0,0.4,0c0.7,0,1.4,0,2.1,0
		c0.6,0,1.2,0,1.8,0c0,0,0,0,0,0c0.1,0,0.2,0,0.3,0c0.2,0,0.4,0,0.6,0c0.8,0,1.1-0.4,1.1-1.2C10.2,17.3,10.2,17.2,10.2,17.2z
		 M7.4,9.2c0,1.3,0,2.7,0,4c0,0.1,0,0.2,0,0.3c-0.3,0-0.5,0-0.7,0c0-0.1,0-0.1,0-0.2c0-1.4,0-2.9,0-4.3c0-0.2,0.1-0.3,0.3-0.3
		c0,0,0.1,0,0.1,0C7.4,8.8,7.4,8.8,7.4,9.2z M14.5,32.1h2.9v6.2h-2.9V32.1z M26.3,27.8c0.1,0,0.2,0,0.3,0c0.6,0,1.2,0,1.8,0
		c0.6,0,1.1,0,1.7,0c0.2,0,0.4,0,0.6-0.1c0.4-0.1,0.7-0.3,0.8-0.7c0-0.6,0-1.3,0-2c-0.9,0-1.8,0-2.8,0c0,0.1,0,0.2,0,0.2
		c0,0.2-0.1,0.3-0.3,0.3c0,0,0,0,0,0c-0.4,0-0.4,0-0.4-0.4c0-0.1,0-0.3,0-0.4c0-0.2,0-0.4,0.3-0.4c0,0,0,0,0.1,0c0.1,0,0.3,0,0.4,0
		c0.2,0,0.4,0,0.6,0c0.2,0,0.5,0,0.7,0c0.5,0,1,0,1.4,0c0-0.1,0-0.2,0-0.3c0-1.5,0-2.9,0-4.4c0-0.7-0.3-1-1-1.1c-0.5,0-1,0-1.5,0
		c-0.5,0-0.9,0-1.4,0c-0.5,0-0.9,0-1.4,0c-0.9,0.1-1.2,0.4-1.2,1.3c0,2.2,0,4.4,0,6.6C25.3,27.4,25.5,27.7,26.3,27.8z M28.3,20.8
		c0.1,0,0.3,0,0.5,0.1c0,0.4,0,0.8,0,1.2c0,0-0.1,0-0.1,0c-0.2,0-0.3,0-0.4,0c-0.3,0-0.3-0.1-0.3-0.6c0,0,0-0.1,0-0.1
		C28.1,21,28.1,20.8,28.3,20.8z M14.5,29.3h2.9v2.2h-2.9V29.3z M18.3,9.3C18.3,9.3,18.3,9.3,18.3,9.3c0.4,0,0.8,0,1.2,0
		c0.4,0,0.8,0,1.2,0c0,0,0,0,0,0c0.2,0,0.3-0.1,0.3-0.3c0-0.2,0.1-0.3,0.3-0.3c0,0,0,0,0,0c0.5,0,0.5,0,0.5,0.5c0,0.1,0,0.2,0,0.4
		c0,0.3-0.1,0.3-0.3,0.3c0,0,0,0,0,0c-0.2,0-0.4,0-0.6,0c-0.6,0-1.1,0-1.7,0c-0.6,0-1,0.4-1,1c0,1.3,0,2.5,0,3.8
		c0,0.4,0.2,0.7,0.6,0.8c0.3,0.1,0.6,0.1,0.9,0.1c0.7,0,1.5,0,2.2,0c0.8,0,1.6,0,2.4,0c0.1,0,0.2,0,0.3,0c0-0.1,0-0.1,0-0.1
		c0-2.6,0-5.3,0-7.9c0-0.6-0.3-0.9-0.8-1c-0.4-0.1-0.9-0.1-1.4-0.1c-0.5,0-1,0-1.5,0c-0.5,0-1,0-1.4,0c-0.9,0-1.3,0.4-1.3,1.3
		c0,0.4,0,0.8,0,1.1C18.1,9.2,18.1,9.3,18.3,9.3z M21.6,13.4c0,0.1-0.1,0.1-0.2,0.1c-0.1,0-0.1,0-0.2,0c-0.1,0-0.2,0-0.3,0
		c0-0.5,0-0.9,0-1.4c0.2,0,0.4,0,0.7,0C21.6,12.6,21.6,13,21.6,13.4z M13.7,36L13.7,36l0,2.2h-2.9v-9h2.9V36z M42.4,31.6h0.7v1.1
		h-2.2c-1,0-1.5,0.4-1.5,1.1v3.4c0,0.7,0.5,1.1,1.5,1.1H46v-7.8c0-0.8-0.5-1.1-1.5-1.1h-3.6c-1,0-1.5,0.4-1.5,1.1v1.7h2.9V31.6z
		 M43.1,36h-0.7v-1.1h0.7V36z M28,15.7c-1,0-1.9,0-2.8,0c0-3,0-6,0-9c1,0,1.9,0,2.8,0c0,0.2,0,0.3,0,0.5c0.1,0,0.1,0,0.2-0.1
		c0.6-0.3,1.2-0.4,1.8-0.4c0.3,0,0.5,0,0.8,0.1c0.5,0.1,0.8,0.4,0.8,1c0,2.6,0,5.3,0,7.9c0,0,0,0.1,0,0.1c-0.9,0-1.8,0-2.8,0
		c0-0.1,0-0.2,0-0.3c0-2.1,0-4.1,0-6.2c0-0.1,0-0.3-0.1-0.3c-0.1,0-0.2,0-0.3,0c-0.1,0-0.2,0-0.3,0c0,0-0.1,0.2-0.1,0.3
		c0,1.8,0,3.5,0,5.3C28,14.8,28,15.2,28,15.7z M33,15.6c0.3,0.1,0.6,0.1,0.8,0.1c0.7,0,1.4,0,2.2,0c0.7,0,1.5,0,2.2,0
		c0.4,0,0.4,0,0.4-0.4c0-3.6,0-7.1,0.1-10.7c0-0.1,0-0.2,0-0.2c-0.9,0-1.9,0-2.8,0c0,0.8,0,1.5,0,2.3c-0.1,0-0.2,0-0.3,0
		c0,0-0.1,0-0.1,0c0,0,0,0-0.1,0c-0.4,0-0.7,0-1.1,0c-0.3,0-0.5,0-0.8,0c-0.9,0-1.3,0.4-1.3,1.3c0,2.2,0,4.3,0,6.5
		c0,0.1,0,0.2,0,0.3C32.3,15.2,32.6,15.5,33,15.6z M35.2,8.8c0.2,0,0.4,0,0.7,0c0,1.5,0,2.9,0,4.4c-0.2,0-0.4,0-0.7,0
		C35.2,11.7,35.2,10.3,35.2,8.8z M46.5,22.2c0,1.5,0,2.9,0,4.4c0,0.7-0.4,1.1-1.1,1.1c-0.7,0-1.4,0-2.1,0c-0.7,0-1.4,0-2.2,0
		c-0.7,0-1.1-0.4-1.1-1.1c0-1.6,0-3.3,0-4.9c0-0.1,0-0.2,0-0.4c-0.2,0-0.5,0-0.7,0c0-0.7,0-1.3,0-2c0,0,0.1-0.1,0.2-0.1
		c0.1,0,0.1,0,0.2,0c0.1,0,0.2,0,0.3,0c0-0.3,0-0.6,0-0.9c0.9,0,1.9,0,2.8,0c0,0.2,0,0.4,0,0.6c0,0.2,0.1,0.3,0.3,0.3c0,0,0,0,0,0
		c0.3,0,0.6,0,0.8,0c0.3,0,0.6,0,1,0c0.4,0,0.8,0,1.2,0c0,0,0,0,0,0c0.3,0,0.3,0.1,0.3,0.3c0,0.5,0,1,0,1.5c0,0.2-0.1,0.3-0.3,0.3
		c0,0,0,0,0,0c-0.3,0-0.6,0-0.9,0c-0.3,0-0.6,0-0.9,0c-0.4,0-0.8,0-1.1,0c0,0,0,0,0,0c-0.3,0-0.3,0.1-0.3,0.3c0,1.2,0,2.4,0,3.6
		c0,0.1,0,0.2,0,0.3c0.2,0,0.3,0,0.5,0c0,0,0.1,0,0.1,0c0.1,0,0.2-0.2,0.2-0.3c0-1,0-2,0-3c0-0.1,0-0.3,0-0.4c0.1,0,0.2,0,0.2,0
		c0.1,0,0.2,0,0.3,0c0.3,0,0.6,0,0.9,0c0.4,0,0.7,0,1.1,0c0,0,0,0,0,0C46.5,21.9,46.5,22,46.5,22.2z M35.2,20.8c0,0.2,0,0.4,0,0.6
		c1.2,0,2.3,0,3.6,0c0,0.3,0,1.4,0,1.8c0,0.4,0,0.4-0.4,0.4c0,0,0,0-0.1,0c-0.9,0-3,0-3.1,0c0,1.4,0,2.9,0,2.9h-2.9c0,0,0-4,0-6.6
		c0-0.7,0.3-1.1,1-1.2c0.1,0,0.2,0,0.3,0c1.7,0,3.3,0,5,0c0,0,0,0,0,0c0,0,0.1,0,0.2,0c0,0.3,0,0.6,0,0.9c0,0.3,0,0.6,0,1
		c0,0.2-0.1,0.3-0.3,0.3c0,0,0,0,0,0c-0.1,0-0.2,0-0.2,0C37.2,20.8,35.3,20.8,35.2,20.8z M35.2,27.1h-2.8v11.2h5
		c1,0,1.5-0.4,1.5-1.1v-6.7c0-0.8-0.5-1.1-1.5-1.1h-2.2V27.1z M35.9,31.6V36h-0.7v-4.5H35.9z"/>
	<path d="M33.5,43.1c0,0-0.1,0-0.2,0l-0.2,0.1c-0.8,0.3-1.5,0.5-2.4,0.7l-0.1,0c-0.3,0-0.6,0.1-0.8,0.1c0,0,0,0,0,0
		c-0.1,0-0.3,0-0.4-0.1c0,0,0,0,0-0.1c0,0,0-0.1,0.1-0.2c0.2-0.3,0.4-0.5,0.6-0.8c0.2-0.3,0.4-0.5,0.6-0.8c0.6-0.8,1-1.4,1.3-2.1
		c0.2-0.4,0.4-0.8,0.5-1.2c0.2-0.7,0.2-1.3,0.1-1.9c-0.2-0.6-0.5-1.1-0.9-1.6c-0.4-0.4-1-0.7-1.6-0.8c-0.5-0.2-1.2-0.3-2-0.3
		c-0.1,0-0.2,0-0.3,0c-0.1,0-0.3,0-0.4,0c-0.1,0-0.2,0-0.3,0c0,0,0,0,0,0c-0.4,0-0.8,0.1-1.2,0.2c-0.8,0.1-1.6,0.4-2.3,0.6
		c-1,0.3-2,0.8-2.9,1.4c-0.9,0.5-1.7,1.1-2.5,2c-0.9,1-1.7,2.1-2.4,3.4c-0.3,0.5-0.4,1-0.5,1.5c0,0.1,0,0.3,0,0.3l0,0.1l0,0.1
		c0,0.1,0,0.1,0,0.2c0,0,0,0,0,0c0,0,0,0,0,0c0.1,0.5,0.2,0.9,0.5,1.3c0.3,0.5,0.8,0.8,1.4,1.1c0.3,0.2,0.7,0.3,1.2,0.3
		c0.2,0,0.5,0,0.7,0l0.3,0l0.1,0c0.5,0,0.9-0.1,1.4-0.2c0.7-0.1,1.3-0.3,1.9-0.5c0.6-0.2,1.3-0.5,1.9-0.9c0,0,0.1,0,0.1-0.1
		c0.2-0.2,0.2-0.4,0.2-0.4c0-0.1,0-0.1-0.1-0.2c-0.1-0.2-0.3-0.3-0.5-0.3c0,0-0.1,0-0.1,0c0,0,0,0,0,0c-0.5,0.1-0.9,0.2-1.4,0.3
		l-0.2,0.1c-0.6,0.1-1.2,0.2-1.8,0.2c-0.2,0-0.3,0-0.4,0c-0.3,0-0.6,0-1-0.1c-0.3,0-0.6-0.1-0.8-0.3c-0.1-0.1-0.3-0.2-0.2-0.4
		c0.1-0.3,0.3-0.4,0.5-0.6c0.3-0.3,0.7-0.5,1.1-0.7c0.2-0.1,0.3-0.2,0.3-0.5c0-0.1,0-0.2,0-0.3c0,0,0-0.1,0-0.1c0,0,0-0.1,0-0.1
		c0-0.1,0-0.2,0-0.3c0.3,0.1,0.7,0.1,1.1,0.1c0.1,0,0.2,0,0.3,0c0.3,0,0.7,0,1.1-0.1c0.7-0.1,1.3-0.4,1.9-0.8
		c0.1,0.1,0.2,0.1,0.3,0.1c0,0,0,0,0,0l0.3,0c0.1,0,0.2-0.1,0.3-0.1c0.1-0.1,0.1-0.2,0.1-0.3c0-1-0.9-1.6-1.6-1.6
		c-0.2,0-0.4,0.1-0.4,0.3c-0.1,0.2,0,0.4,0.1,0.5l0.1,0c-0.4,0.3-0.9,0.5-1.5,0.6c-0.2,0-0.4,0-0.7,0c-0.2,0-0.4,0-0.5,0
		c0,0,0.1-0.1,0.1-0.1c0.1-0.1,0.2-0.2,0.3-0.3c0.1-0.1,0.1-0.1,0.1-0.2c0.1-0.2,0-0.3-0.1-0.4l-0.2-0.3c2.5-0.9,4.6-1.5,6.7-1.9
		c0.2,0,0.3-0.2,0.4-0.3c0-0.1,0-0.1,0-0.2c0.4,0.1,0.8,0.2,1.2,0.4l0.1,0c0.2,0.1,0.4,0.2,0.5,0.3c0.3,0.3,0.3,0.5,0.2,0.6
		c0,0,0,0,0,0c0,0.2-0.1,0.4-0.2,0.6c-0.3,0.5-0.6,1-0.9,1.5c-0.3,0.4-0.6,0.8-0.8,1.1c-0.3,0.4-0.6,0.7-0.8,1.1
		c-0.3,0.4-0.6,0.8-0.9,1.3c-0.3,0.5-0.4,1.1-0.3,1.6c0,0.2,0.1,0.4,0.2,0.6c0.2,0.4,0.5,0.7,1,0.8c0.2,0,0.3,0.1,0.5,0.1
		c0.2,0,0.5,0,0.7-0.1c0.4,0,0.9-0.2,1.4-0.4c0.8-0.3,1.8-0.8,2.7-1.3c0.3-0.2,0.5-0.3,0.8-0.5c0,0,0,0,0.1-0.1l0,0
		c0.1-0.1,0.1-0.2,0.1-0.3C34.1,43.4,33.9,43.1,33.5,43.1z M33.6,43.7c-0.2,0.2-0.5,0.3-0.8,0.5c-0.8,0.5-1.7,0.9-2.7,1.3
		c-0.4,0.2-0.8,0.3-1.2,0.3c-0.2,0-0.4,0.1-0.7,0.1c-0.1,0-0.3,0-0.4,0c-0.3-0.1-0.6-0.2-0.7-0.6C27.1,45.2,27,45,27,44.8
		c0-0.5,0.1-0.9,0.3-1.3c0.2-0.4,0.5-0.9,0.8-1.3c0.6-0.8,1.1-1.5,1.7-2.3c0.4-0.5,0.7-1,0.9-1.5c0.1-0.2,0.2-0.5,0.3-0.7
		c0.1-0.4,0-0.8-0.4-1.1c-0.2-0.2-0.5-0.3-0.7-0.4c-0.6-0.3-1.2-0.4-1.9-0.6c-0.1,0-0.2,0-0.3-0.1c0,0,0,0-0.1,0c0,0,0,0-0.1,0
		c-0.1,0-0.2,0.1-0.3,0.2c0.2,0.2,0.5,0.4,0.8,0.6c-2.5,0.4-4.9,1.2-7.3,2.1c0,0,0,0,0,0.1c0.1,0.2,0.2,0.5,0.4,0.7c0,0,0,0.1,0,0.1
		c-0.3,0.3-0.6,0.6-0.9,1l0,0c0.5,0.1,0.9,0.2,1.4,0.2c0.2,0,0.5,0,0.7,0c0.8-0.1,1.5-0.5,2.1-1c-0.1-0.2-0.3-0.3-0.5-0.4
		c0,0,0,0,0,0c0.5,0,1.2,0.5,1.2,1.2c-0.1,0-0.2,0-0.3,0l0,0c0-0.1,0-0.2-0.1-0.3c0,0,0,0,0-0.1l0,0c-0.6,0.5-1.3,0.9-2.1,1.1
		c-0.3,0.1-0.7,0.1-1,0.1c-0.1,0-0.2,0-0.3,0c-0.5,0-1-0.1-1.6-0.3c0,0,0,0,0,0c0,0,0,0-0.1,0c0,0.1,0,0.2,0,0.3
		c0,0.2,0,0.5,0.1,0.7c0,0.1,0,0.3,0,0.4c0,0,0,0.1,0,0.1c-0.5,0.2-0.9,0.4-1.3,0.8c-0.2,0.2-0.5,0.4-0.6,0.8c-0.2,0.4,0,0.9,0.4,1
		c0.3,0.2,0.6,0.3,1,0.3c0.4,0.1,0.7,0.1,1.1,0.1c0.2,0,0.3,0,0.5,0c0.6,0,1.3-0.1,1.9-0.2c0.6-0.1,1.1-0.3,1.6-0.3c0,0,0,0,0.1,0
		c0,0,0,0,0.1,0c0,0,0,0.1,0,0.1c-0.6,0.3-1.2,0.6-1.9,0.8c-0.6,0.2-1.2,0.4-1.8,0.5c-0.5,0.1-1,0.1-1.5,0.2c-0.1,0-0.2,0-0.3,0
		c-0.2,0-0.4,0-0.6,0c-0.4,0-0.7-0.1-1-0.3c-0.5-0.2-0.9-0.5-1.2-0.9c-0.2-0.3-0.4-0.7-0.4-1.1c0-0.1,0-0.2,0-0.2c0-0.1,0-0.2,0-0.2
		c0-0.1,0-0.2,0-0.2c0-0.5,0.2-1,0.4-1.4c0.6-1.2,1.3-2.3,2.3-3.3c0.8-0.7,1.5-1.4,2.5-1.9c0.9-0.5,1.8-1,2.8-1.3
		c0.7-0.2,1.5-0.5,2.2-0.6c0.4-0.1,0.8-0.1,1.2-0.2c0.3,0,0.5,0,0.8,0c0.1,0,0.2,0,0.3,0c0.6,0,1.3,0.1,1.9,0.3
		c0.5,0.2,1,0.4,1.4,0.7c0.4,0.4,0.6,0.8,0.8,1.3c0.1,0.6,0.1,1.1-0.1,1.7c-0.1,0.4-0.3,0.8-0.5,1.1c-0.4,0.7-0.8,1.4-1.3,2
		c-0.4,0.5-0.7,1-1.1,1.6C29,43.5,29,43.7,29,43.8c0,0.2,0.1,0.4,0.3,0.5c0.2,0.1,0.4,0.1,0.6,0.1c0,0,0,0,0,0c0.3,0,0.6,0,1-0.1
		c0.9-0.2,1.8-0.5,2.6-0.7c0,0,0,0,0,0C33.5,43.6,33.6,43.6,33.6,43.7L33.6,43.7z"/>
	<path fill="#FF5A00" d="M33.5,43.6C33.5,43.6,33.5,43.6,33.5,43.6c-0.9,0.3-1.7,0.6-2.6,0.7c-0.4,0-0.7,0.1-1,0.1c0,0,0,0,0,0
		c-0.2,0-0.4,0-0.6-0.1C29,44.2,28.9,44,29,43.8c0-0.2,0.1-0.3,0.2-0.5c0.4-0.5,0.7-1,1.1-1.6c0.5-0.6,0.9-1.3,1.3-2
		c0.2-0.4,0.4-0.7,0.5-1.1c0.2-0.6,0.2-1.1,0.1-1.7c-0.1-0.5-0.4-1-0.8-1.3c-0.4-0.4-0.9-0.6-1.4-0.7c-0.6-0.2-1.2-0.3-1.9-0.3
		c-0.1,0-0.2,0-0.3,0c-0.2,0-0.5,0-0.8,0c-0.4,0-0.8,0.1-1.2,0.2c-0.8,0.1-1.5,0.4-2.2,0.6c-1,0.3-1.9,0.8-2.8,1.3
		c-0.9,0.5-1.7,1.2-2.5,1.9c-0.9,1-1.7,2.1-2.3,3.3c-0.2,0.4-0.4,0.9-0.4,1.4c0,0,0,0.1,0,0.2c0,0,0,0.1,0,0.2c0,0,0,0.1,0,0.2
		c0,0.4,0.2,0.8,0.4,1.1c0.3,0.4,0.7,0.7,1.2,0.9c0.3,0.2,0.7,0.2,1,0.3c0.2,0,0.4,0,0.6,0c0.1,0,0.2,0,0.3,0c0.5,0,1-0.1,1.5-0.2
		c0.6-0.1,1.2-0.3,1.8-0.5c0.6-0.2,1.3-0.5,1.9-0.8c0,0,0-0.1,0-0.1c0,0,0,0-0.1,0c0,0,0,0-0.1,0c-0.6,0.1-1.1,0.2-1.6,0.3
		c-0.6,0.1-1.3,0.2-1.9,0.2c-0.2,0-0.3,0-0.5,0c-0.4,0-0.7,0-1.1-0.1c-0.3,0-0.7-0.2-1-0.3c-0.3-0.2-0.6-0.6-0.4-1
		c0.1-0.3,0.4-0.6,0.6-0.8c0.4-0.4,0.8-0.6,1.3-0.8c0,0,0,0,0-0.1c0-0.1,0-0.3,0-0.4c0-0.2,0-0.5-0.1-0.7c0-0.1,0-0.2,0-0.3
		c0,0,0,0,0.1,0c0,0,0,0,0,0c0.5,0.2,1,0.3,1.6,0.3c0.1,0,0.2,0,0.3,0c0.3,0,0.7,0,1-0.1c0.8-0.2,1.5-0.5,2.1-1.1l0,0c0,0,0,0,0,0.1
		c0,0.1,0,0.2,0.1,0.3l0,0c0.1,0,0.2,0,0.3,0c0-0.7-0.6-1.2-1.2-1.2c0,0,0,0,0,0c0.2,0.2,0.4,0.3,0.5,0.4c-0.6,0.6-1.3,0.9-2.1,1
		c-0.2,0-0.5,0-0.7,0c-0.5,0-0.9-0.1-1.4-0.2l0,0c0.3-0.4,0.6-0.7,0.9-1c0,0,0-0.1,0-0.1c-0.1-0.2-0.2-0.5-0.4-0.7c0,0,0,0,0-0.1
		c2.4-0.9,4.8-1.7,7.3-2.1c-0.2-0.2-0.5-0.4-0.8-0.6c0.1,0,0.2-0.1,0.3-0.2c0,0,0,0,0.1,0c0,0,0.1,0,0.1,0c0.1,0,0.2,0,0.3,0.1
		c0.7,0.2,1.3,0.3,1.9,0.6c0.2,0.1,0.5,0.2,0.7,0.4c0.3,0.3,0.5,0.6,0.4,1.1c0,0.2-0.2,0.5-0.3,0.7c-0.3,0.5-0.6,1-0.9,1.5
		c-0.6,0.8-1.1,1.5-1.7,2.3c-0.3,0.4-0.6,0.8-0.8,1.3c-0.2,0.4-0.3,0.8-0.3,1.3c0,0.2,0,0.3,0.1,0.4c0.1,0.3,0.4,0.5,0.7,0.6
		c0.1,0,0.3,0,0.4,0c0.2,0,0.4,0,0.7-0.1c0.4,0,0.8-0.2,1.2-0.3c0.9-0.4,1.8-0.8,2.7-1.3c0.3-0.2,0.5-0.3,0.8-0.5l0,0
		C33.6,43.6,33.5,43.6,33.5,43.6z"/>
</g>
</svg>
