<?xml version="1.0" encoding="utf-8"?>
<!-- Generator: Adobe Illustrator 23.0.0, SVG Export Plug-In . SVG Version: 6.00 Build 0)  -->
<svg version="1.0" id="Layer_1" xmlns="http://www.w3.org/2000/svg" xmlns:xlink="http://www.w3.org/1999/xlink" x="0px" y="0px"
	 viewBox="0 0 50 50" enable-background="new 0 0 50 50" xml:space="preserve">
<g id="New_Symbol_68">
	<g id="XMLID_9_">
		<g id="Shopper_icon_2_">
			<path opacity="0.5" fill="#262626" enable-background="new    " d="M47,20.2c-5.8-4.6-11.8-8.5-18.6-12c-1.9-0.9-4.7-0.9-6.5,0.1
				c-6.7,3.4-12.8,7-18.8,11.1c-0.7,0.5-0.8,1.4-0.2,2.3C3.6,22.5,4.7,23,5.7,23c0.9,0,1.9,0,2.7,0.1c1.3,4.6,2,9.2,1.9,14
				c0,2.3,1.6,4.4,3.7,4.7c7.4,0.8,14.4,0.9,21.8,0.5c2.2-0.2,3.7-2.3,3.7-4.6c-0.1-4.6,0.6-9.2,1.9-13.8c0.9,0,1.9,0.1,2.9,0.1
				c1,0.1,2-0.5,2.6-1.4C47.7,21.7,47.7,20.8,47,20.2z M37.3,37.9c0,0.9-0.6,1.7-1.5,1.8c-0.3,0-0.7,0-1,0.1c-0.2-3.5,0-7,0.4-10.5
				c0.1-0.9-0.5-1.6-1.4-1.6c-1.2,0-1.9,0-3.2,0c-0.9,0-1.6,0.8-1.7,1.7c-0.2,3.5-0.2,7.1-0.1,10.6c-4.8,0-9.6-0.2-14.5-0.6
				c-0.9-0.1-1.6-0.9-1.6-1.9c0-4.7-0.5-9.6-1.6-14.2c9.2,0.2,18.5,0.4,27.7,0.7C37.8,28.5,37.2,33.1,37.3,37.9z"/>
			<path fill="#FFFFFF" d="M46,19.6c-5.4-4.4-11.3-8.1-17.7-11.5c-1.8-0.9-4.4-0.9-6.2,0.1c-6.4,3.3-12.3,6.7-18,10.6
				C3.4,19.3,3.4,20.2,4,21c0.6,0.8,1.6,1.3,2.6,1.3c0.9,0,1.7,0,2.6,0.1c1.2,4.4,1.9,8.9,1.9,13.3c0,2.2,1.5,4.3,3.6,4.5
				c7.1,0.7,13.7,0.9,20.7,0.4c2.1-0.2,3.6-2.3,3.5-4.4c-0.1-4.4,0.6-8.8,1.8-13.1c0.9,0,1.9,0.1,2.7,0.1c0.9,0,1.9-0.5,2.6-1.3
				C46.6,21,46.6,20.2,46,19.6z M36.7,36.5c0,0.9-0.6,1.6-1.5,1.7c-0.3,0-0.6,0-0.9,0.1c-0.2-3.3,0-6.7,0.4-9.9
				c0.1-0.9-0.5-1.6-1.3-1.6c-1.2,0-1.9,0-3,0c-0.9,0-1.6,0.7-1.6,1.6c-0.2,3.3-0.2,6.8-0.1,10.1c-4.6,0-9.2-0.2-13.8-0.6
				c-0.9-0.1-1.5-0.9-1.5-1.8c0-4.6-0.5-9.1-1.6-13.5c8.8,0.2,17.6,0.4,26.4,0.7C37.2,27.5,36.6,32,36.7,36.5z"/>
			<path opacity="0.2" fill="#FFFFFF" enable-background="new    " d="M36.7,36.5c0,0.9-0.6,1.6-1.5,1.7c-0.3,0-0.6,0-0.9,0.1
				c-0.2-3.3,0-6.7,0.4-9.9c0.1-0.9-0.5-1.6-1.3-1.6c-1.2,0-1.9,0-3,0c-0.9,0-1.6,0.7-1.6,1.6c-0.2,3.3-0.2,6.8-0.1,10.1
				c-4.6,0-9.2-0.2-13.8-0.6c-0.9-0.1-1.5-0.9-1.5-1.8c0-4.6-0.5-9.1-1.6-13.5c8.8,0.2,17.6,0.4,26.4,0.7
				C37.2,27.5,36.6,32,36.7,36.5z"/>
		</g>
	</g>
</g>
</svg>
