<?xml version="1.0" encoding="utf-8"?>
<!-- Generator: Adobe Illustrator 23.0.0, SVG Export Plug-In . SVG Version: 6.00 Build 0)  -->
<svg version="1.0" id="Layer_1" xmlns="http://www.w3.org/2000/svg" xmlns:xlink="http://www.w3.org/1999/xlink" x="0px" y="0px"
	 width="50px" height="50px" viewBox="0 0 50 50" enable-background="new 0 0 50 50" xml:space="preserve">
<path fill="#FFFFFF" d="M46.6,22.4C40,15.8,32.2,9.7,27,5.8c-1.5-1-3.2-1-4.6,0.1c-5.1,3.7-12.4,9.7-18.9,16.2
	c-0.8,0.8-1.2,1.7-0.9,2.6s1.1,1.1,2,0.9c0.9-0.2,1.7-0.3,2.6-0.3c0.1,4.8,0.4,9.3,0.5,14.5c0,2.6,2.1,5.1,4.6,5.1
	C21,44.9,29.3,45,37.8,45c2.6-0.1,4.5-2.6,4.4-5.1c-0.1-5.3,0.2-9.6,0.4-14.3c0.9,0.1,2,0.3,2.7,0.4c0.9,0.1,1.8,0,2.1-1
	C47.7,24.1,47.3,23.3,46.6,22.4z M39.6,40.1c0,1.1-0.7,2-1.9,2c-0.6,0-1.4,0-1.8,0c-0.1-4.1-0.1-7,0.1-10.1c0-0.9-0.7-1.6-1.7-1.6
	c-1.4,0-2.8-0.1-4.1-0.1c-1.1,0-1.9,0.7-1.9,1.4c-0.1,2.9,0,6.3,0.1,10.3c-5.8-0.1-10.4-0.1-16-0.1c-1.1,0-1.9-0.9-1.9-2
	c-0.2-5.5-0.4-9.8-0.6-14.7c9.3-0.5,21-0.4,30.1,0.4C39.8,30.3,39.5,34.6,39.6,40.1z"/>
</svg>
