<?xml version="1.0" encoding="utf-8"?>
<!-- Generator: Adobe Illustrator 23.0.0, SVG Export Plug-In . SVG Version: 6.00 Build 0)  -->
<svg version="1.0" id="icon" xmlns="http://www.w3.org/2000/svg" xmlns:xlink="http://www.w3.org/1999/xlink" x="0px" y="0px"
	 width="50px" height="50px" viewBox="0 0 50 50" enable-background="new 0 0 50 50" xml:space="preserve">
<g>
	<path fill="#FFFFFF" d="M42.4,34.6c-0.1-0.2-0.3-0.2-0.6-0.2c-0.5,0-0.9,0-1.5,0c-0.2,0-0.2,0-0.3-0.2c-0.3-1.1-0.8-2.1-1.5-3
		c-0.1-0.2-0.3-0.3-0.4-0.5c-0.2,0.2-0.5,0.4-0.8,0.5l-1.9,1c0.3,0.3,0.6,0.6,0.9,1c0.2,0.3,0.5,0.8,0.6,1.2c0,0,0,0,0,0
		c-0.5,0-0.9,0-1.3,0c-0.3,0-0.4,0-0.5,0.2c-0.1,0.2-0.1,0.4,0,0.6c0,0,0,0,0.1,0.1c0.3,0.5,0.7,1,1,1.4c0.6,0.9,1.2,1.6,1.7,2.5
		c0.2,0.3,0.6,0.2,0.8,0c0.1-0.1,0.1-0.1,0.2-0.2c0.3-0.4,0.8-0.9,1.1-1.3c0.8-0.9,1.6-1.7,2.4-2.5C42.5,35,42.6,34.8,42.4,34.6z"/>
</g>
<path id="phone_x5F_gallery_1_" fill="#FFFFFF" d="M36.7,29.9L19,38.9c-1.7,0.9-3.7,0.2-4.5-1.5L7.9,24.7C7,23,7.7,21,9.3,20.1
	L27,11.1c1.7-0.9,3.7-0.2,4.5,1.5l6.6,12.8C39,27,38.3,29,36.7,29.9z M18.1,27.5L18.1,27.5l-1.8,5.8l1.2,2.4l17.3-8.9l-2.7-5.3
	l-7.8-2.6l-3.2,9.6L18.1,27.5z M13.4,22.1c-1.2,0.6-1.7,2.1-1.1,3.3c0.6,1.2,2.1,1.7,3.3,1.1c1.2-0.6,1.7-2.1,1.1-3.3l0,0
	C16.1,21.9,14.6,21.5,13.4,22.1z"/>
</svg>
