<?xml version="1.0" encoding="utf-8"?>
<!-- Generator: Adobe Illustrator 23.0.0, SVG Export Plug-In . SVG Version: 6.00 Build 0)  -->
<svg version="1.0" id="Layer_1" xmlns="http://www.w3.org/2000/svg" xmlns:xlink="http://www.w3.org/1999/xlink" x="0px" y="0px"
	 width="50px" height="50px" viewBox="0 0 50 50" enable-background="new 0 0 50 50" xml:space="preserve">
<path opacity="0.5" fill="#FFFFFF" d="M38.2,8c-7.2-7.3-19-7.4-26.4-0.1c-7.3,7.2-7.4,19-0.1,26.4l13.1,13.2L38,34.4
	C45.4,27.1,45.5,15.3,38.2,8z M24.9,30.8c-5.1,0-9.2-4.1-9.2-9.2s4.1-9.2,9.2-9.2s9.2,4.1,9.2,9.2S29.9,30.8,24.9,30.8z"/>
<path fill="#FFFFFF" enable-background="new    " d="M37.4,8.4c-6.8-6.8-17.8-6.9-24.6-0.1S5.9,26.1,12.6,33l12.3,12.4l12.4-12.3
	C44.1,26.3,44.1,15.3,37.4,8.4z M24.9,30.8c-5.5,0-10-4.5-10-10s4.5-10,10-10s10,4.5,10,10S30.4,30.8,24.9,30.8z"/>
<path opacity="0.5" fill="#7C7C7C" enable-background="new    " d="M37.4,8.4c-6.8-6.8-17.8-6.9-24.6-0.1S5.9,26.1,12.6,33
	l12.3,12.4l12.4-12.3C44.1,26.3,44.1,15.3,37.4,8.4z M36.6,32.5L24.9,44.1L13.2,32.3c-3.1-3.1-4.8-7.3-4.8-11.7s1.8-8.6,4.9-11.7
	S20.6,4.1,25,4.1S33.6,5.9,36.7,9c3.1,3.1,4.8,7.3,4.8,11.7S39.8,29.3,36.6,32.5z"/>
<path opacity="0.5" fill="#CECECE" enable-background="new    " d="M37.7,15.2C37.7,10,32,5.7,25,5.7s-12.7,4.2-12.8,9.4
	c0,2.1,0.9,4.1,2.6,5.7v-0.1c0-5.5,4.5-10,10-10s10,4.5,10,10c0,0.1,0,0.3,0,0.4C36.7,19.5,37.7,17.5,37.7,15.2z"/>
</svg>
