<?xml version="1.0" encoding="utf-8"?>
<!-- Generator: Adobe Illustrator 23.0.0, SVG Export Plug-In . SVG Version: 6.00 Build 0)  -->
<svg version="1.0" id="Layer_1" xmlns="http://www.w3.org/2000/svg" xmlns:xlink="http://www.w3.org/1999/xlink" x="0px" y="0px"
	 viewBox="0 0 50 50" enable-background="new 0 0 50 50" xml:space="preserve">
<path fill="#FFFFFF" d="M37.7,5.4C32.9,4.3,28.5,5.6,25,8.8c-3.5-3.2-7.9-4.5-12.7-3.4C5.5,7,1.5,13,2.7,19.4c0.6,2.9,2,5.2,4.2,7.3
	C13.2,32.4,20.9,39.1,25,45c4.1-6,11.7-12.4,18.1-18.3c2.3-2.1,3.6-4.5,4.2-7.3C48.5,13,44.4,7,37.7,5.4z"/>
<path opacity="0.5" enable-background="new    " d="M37.7,5.4C32.9,4.3,28.5,5.6,25,8.8c-3.5-3.2-7.9-4.5-12.7-3.4
	C5.5,7,1.5,13,2.7,19.4c0.6,2.9,2,5.2,4.2,7.3C13.2,32.4,20.9,39.1,25,45c4.1-6,11.7-12.4,18.1-18.3c2.3-2.1,3.6-4.5,4.2-7.3
	C48.5,13,44.4,7,37.7,5.4z"/>
<linearGradient id="SVGID_1_" gradientUnits="userSpaceOnUse" x1="46.7627" y1="476.0729" x2="0.4093" y2="465.3714" gradientTransform="matrix(1 0 0 1 0 -448)">
	<stop  offset="4.360664e-02" style="stop-color:#8F8F8F"/>
	<stop  offset="9.148702e-02" style="stop-color:#999999"/>
	<stop  offset="0.2873" style="stop-color:#C0C0C0"/>
	<stop  offset="0.3897" style="stop-color:#CFCFCF"/>
	<stop  offset="0.4004" style="stop-color:#CCCCCC"/>
	<stop  offset="0.5787" style="stop-color:#A1A1A1"/>
	<stop  offset="0.6693" style="stop-color:#909090"/>
	<stop  offset="0.7201" style="stop-color:#969696"/>
	<stop  offset="0.7898" style="stop-color:#A8A8A8"/>
	<stop  offset="0.8703" style="stop-color:#C5C5C5"/>
	<stop  offset="0.8945" style="stop-color:#CFCFCF"/>
</linearGradient>
<path fill="url(#SVGID_1_)" d="M36.7,6.2c-4.4-1-8.4,0.2-11.7,3.1c-3.3-3-7.3-4.1-11.7-3.1c-6.2,1.5-9.9,7-8.8,12.9
	c0.6,2.6,1.8,4.9,3.8,6.7c5.7,5.2,12.9,11.3,16.7,16.8c3.7-5.5,10.8-11.4,16.7-16.8c2-1.8,3.3-4.1,3.8-6.7
	C46.6,13.2,42.9,7.6,36.7,6.2z"/>
<linearGradient id="SVGID_2_" gradientUnits="userSpaceOnUse" x1="8.2157" y1="480.4532" x2="43.7483" y2="451.6795" gradientTransform="matrix(1 0 0 1 0 -448)">
	<stop  offset="2.694207e-02" style="stop-color:#FFFFFF"/>
	<stop  offset="0.3416" style="stop-color:#969696"/>
	<stop  offset="0.5765" style="stop-color:#C2C2C2"/>
	<stop  offset="0.8286" style="stop-color:#A3A3A3"/>
	<stop  offset="0.9618" style="stop-color:#FFFFFF"/>
</linearGradient>
<path fill="url(#SVGID_2_)" d="M36.7,6.2c-4.4-1-8.4,0.2-11.7,3.1c-3.3-3-7.3-4.1-11.7-3.1c-6.2,1.5-9.9,7-8.8,12.9
	c0.6,2.6,1.8,4.9,3.8,6.7c5.7,5.2,12.9,11.3,16.7,16.8c3.7-5.5,10.8-11.4,16.7-16.8c2-1.8,3.3-4.1,3.8-6.7
	C46.6,13.2,42.9,7.6,36.7,6.2z M43.9,19.3c-0.6,2.3-1.7,4.5-3.6,6C34.9,30.3,28.4,35.6,25,40.7c-3.4-5-10-10.5-15.3-15.3
	c-1.9-1.7-3-3.8-3.6-6C5.1,14,8.6,8.9,14.2,7.7C18.2,6.8,22,7.8,25,10.5c2.9-2.6,6.8-3.8,10.8-2.9C41.4,8.9,44.9,14,43.9,19.3z"/>
</svg>
