<?xml version="1.0" encoding="utf-8"?>
<!-- Generator: Adobe Illustrator 23.0.0, SVG Export Plug-In . SVG Version: 6.00 Build 0)  -->
<svg version="1.0" id="Layer_1" xmlns="http://www.w3.org/2000/svg" xmlns:xlink="http://www.w3.org/1999/xlink" x="0px" y="0px"
	 width="50px" height="50px" viewBox="0 0 50 50" enable-background="new 0 0 50 50" xml:space="preserve">
<path id="_3months_1_" fill="#FFFFFF" d="M16.4,19.8c0,5.6,0,4.9,0,10.4c0,1.9,1.4,3.2,3.2,3.2c1.9,0,3.2-1.4,3.2-3.2l0,0
	c0-5.6,0-4.9,0-10.4c0-1.9-1.4-3.2-3.2-3.2S16.4,17.9,16.4,19.8z"/>
<path id="_3months_2_" fill="#FFFFFF" d="M27.2,19.8c0,5.6,0,4.9,0,10.4c0,1.9,1.4,3.2,3.2,3.2c1.9,0,3.2-1.4,3.2-3.2l0,0
	c0-5.6,0-4.9,0-10.4c0-1.9-1.4-3.2-3.2-3.2C28.5,16.5,27.2,17.9,27.2,19.8z"/>
</svg>
