<?xml version="1.0" encoding="utf-8"?>
<!-- Generator: Adobe Illustrator 23.0.0, SVG Export Plug-In . SVG Version: 6.00 Build 0)  -->
<svg version="1.0" id="Layer_1" xmlns="http://www.w3.org/2000/svg" xmlns:xlink="http://www.w3.org/1999/xlink" x="0px" y="0px"
	 viewBox="0 0 50 50" enable-background="new 0 0 50 50" xml:space="preserve">
<path id="path2997" fill-rule="evenodd" clip-rule="evenodd" fill="#F79F1A" d="M47.5,25c0,7.7-6.2,13.9-13.9,13.9
	S19.7,32.7,19.7,25s6.2-13.9,13.9-13.9S47.5,17.3,47.5,25L47.5,25z"/>
<path id="path2995" fill-rule="evenodd" clip-rule="evenodd" fill="#EA001B" d="M30.3,25c0,7.7-6.2,13.9-13.9,13.9S2.5,32.7,2.5,25
	s6.2-13.9,13.9-13.9S30.3,17.3,30.3,25L30.3,25z"/>
<path id="path2999" fill-rule="evenodd" clip-rule="evenodd" fill="#FF5F01" d="M25,14c-3.2,2.6-5.3,6.5-5.3,11s2.1,8.4,5.3,11
	c3.2-2.6,5.3-6.5,5.3-11S28.2,16.6,25,14z"/>
</svg>
