<?xml version="1.0" encoding="utf-8"?>
<!-- Generator: Adobe Illustrator 23.0.0, SVG Export Plug-In . SVG Version: 6.00 Build 0)  -->
<svg version="1.0" id="Layer_1" xmlns="http://www.w3.org/2000/svg" xmlns:xlink="http://www.w3.org/1999/xlink" x="0px" y="0px"
	 width="50px" height="50px" viewBox="0 0 50 50" enable-background="new 0 0 50 50" xml:space="preserve">
<path fill="#FFFFFF" d="M45,16.5c-0.1-1.2-0.6-2.2-1.5-2.9c-0.6-0.5-1.4-0.8-2.3-0.8H18.4c-0.8,0-1.6,0.3-2.2,0.7
	c1.3,1.2,2.5,2.6,3.6,4c0.5-0.4,1.1-0.6,1.7-0.6c1.6,0,2.9,1.2,2.9,2.9c0,1-0.6,1.9-1.4,2.4c0.4,0.8,0.6,1.8,0.6,2.8l2.5,2.5
	l8.3-8.2l2.5,2.5l2.4,2.4l1.8,1.8v2.6V33h-0.8h-21c-1,1.2-2,2.3-3,3.3c0,0-0.1,0-0.1,0.1c0.6,0.5,1.4,0.8,2.3,0.8h22.8
	c0.8,0,1.5-0.3,2.2-0.7c0.9-0.6,1.5-1.7,1.6-2.8c0-0.1,0-0.3,0-0.4V16.7C45,16.6,45,16.6,45,16.5z"/>
<path fill="#FFFFFF" d="M20,23.4c-1.5-2.6-3.4-5-5.5-7.1c-0.2-0.2-0.4-0.4-0.6-0.6c-0.6-0.4-1-0.1-1,0.6c0,0.4,0,0.6,0,1.1
	c0,0.8-0.7,1.7-1.8,1.8c-1.9,0.2-2.8,0.3-4.5,0.6C5.7,20.1,5,20.9,5,21.6s0,1.3,0,2c0,0.8,0,2.1,0,2.8c0,0.8,0,1.3,0,2
	c0,0.8,0.7,1.6,1.7,1.7c1.7,0.3,2.6,0.4,4.5,0.6c1,0.1,1.8,0.9,1.8,1.8c0,0.4,0,0.7,0,1.1c0,0.8,0.4,1,1,0.4
	c0.2-0.2,0.4-0.4,0.5-0.6c2.2-2.2,4-4.6,5.5-7.1C20.6,25.6,20.6,24.2,20,23.4z"/>
</svg>
