<?xml version="1.0" encoding="utf-8"?>
<!-- Generator: Adobe Illustrator 23.0.0, SVG Export Plug-In . SVG Version: 6.00 Build 0)  -->
<svg version="1.0" id="follow_x5F_icon" xmlns="http://www.w3.org/2000/svg" xmlns:xlink="http://www.w3.org/1999/xlink" x="0px"
	 y="0px" width="50px" height="50px" viewBox="0 0 50 50" enable-background="new 0 0 50 50" xml:space="preserve">
<g>
	<g>
		<g>
			<g>
				<path fill="#FFFFFF" d="M23.6,27.9c-0.2-0.5-0.4-0.9-0.6-1.3c-0.3-0.6-0.5-1-0.8-1.7c-0.8-1.6-0.4-3.4,1.1-4.2
					c0,0,0.1,0,0.1-0.1c0.5-0.2,1-0.3,1.6-0.3c1.2,0.1,2.3,0.6,3,1.6c0.5,0.7,1,1.4,1.4,2.1c0.1,0.2,0.2,0.3,0.3,0.5l0,0
					c0.4-0.8,0.6-1.8,0.6-2.7c0-3.4-3.1-5.8-6.9-6.1s-6.4,2.1-5.9,5.6C17.9,24.7,20.5,27.6,23.6,27.9z"/>
				<path fill="#FFFFFF" d="M42.7,40.8c0.3,0.6,0.2,1.2-0.3,1.5c-1.9,1-2.9,1.5-4.9,2.5c-0.8,0.4-2.1,0.1-2.9-0.7
					c-2.5-2.5-5.5-3.5-5.5-3.5l0,0c-0.8-0.3-1.4-0.6-2.1-1.1c-0.5-0.4-1.1-0.8-1.5-1.1c-1.1-0.9-2.3-1.7-3.6-2.2
					c-0.6-0.3-0.6-0.6-0.4-1.2c0.1-0.3,0.5-0.6,0.8-0.8c0.7-0.3,1.4-0.2,2.1,0c0.4,0.1,2.1,1.2,2.9,1.6c0.7,0.3,0.9-0.3,0.9-1
					c0-0.4-0.1-0.7-0.2-1.1c-1.3-3.1-2.6-6.2-4.2-9.3c-0.3-0.7-0.1-1.4,0.5-1.7c0.6-0.3,1.4-0.1,1.8,0.5c0.6,0.8,1.2,1.7,1.8,2.6
					c0.5,0.8,1,1.6,1.6,2.4c0.3,0.4,0.4,0.6,0.6,1c0,0,4.5-1.4,9.1,0.4c0.3,0.1,0.5,0.3,0.5,0.6c0.4,1.2,1.5,4.5,1.8,7.6
					c0.2,0.8,0.5,1.6,0.6,2C42.4,40,42.5,40.3,42.7,40.8z"/>
			</g>
		</g>
	</g>
	<path fill="#FFFFFF" d="M11.4,26.6c0-0.2,0-0.4,0-0.7c0-0.5,0.4-1,1-1c1.1-0.1,1.6-0.2,2.6-0.4c0.5-0.1,1-0.5,1-1
		c0-0.5,0-0.7,0-1.1c0-0.5,0-1.2,0-1.6c0-0.5,0-0.7,0-1.1c0-0.5-0.4-0.9-1-1c-1-0.2-1.5-0.2-2.6-0.4c-0.6-0.1-1-0.5-1-1
		c0-0.2,0-0.4,0-0.7c0-0.5-0.2-0.6-0.6-0.2c-1.4,1.3-2.5,2.8-3.4,4.4c-0.3,0.5-0.3,1.2,0,1.7c1,1.6,2.1,3.1,3.4,4.4
		C11.2,27.2,11.4,27,11.4,26.6z"/>
	<path fill="#FFFFFF" d="M36.6,16.9c0,0.2,0,0.4,0,0.7c0,0.5-0.4,1-1,1c-1.1,0.1-1.6,0.2-2.6,0.4c-0.5,0.1-1,0.5-1,1
		c0,0.4,0,0.7,0,1.1c0,0.5,0,1.2,0,1.6c0,0.5,0,0.7,0,1.1c0,0.5,0.4,0.9,1,1c1,0.2,1.5,0.2,2.6,0.4c0.6,0.1,1,0.5,1,1
		c0,0.2,0,0.4,0,0.7c0,0.5,0.2,0.6,0.6,0.2c1.4-1.3,2.5-2.8,3.4-4.4c0.3-0.5,0.3-1.2,0-1.7c-1-1.6-2.1-3.1-3.4-4.4
		C36.9,16.3,36.6,16.5,36.6,16.9z"/>
</g>
</svg>
