<?xml version="1.0" encoding="utf-8"?>
<!-- Generator: Adobe Illustrator 23.0.0, SVG Export Plug-In . SVG Version: 6.00 Build 0)  -->
<svg version="1.0" id="Layer_1" xmlns="http://www.w3.org/2000/svg" xmlns:xlink="http://www.w3.org/1999/xlink" x="0px" y="0px"
	 width="50px" height="50px" viewBox="0 0 50 50" enable-background="new 0 0 50 50" xml:space="preserve">
<path fill="#FFFFFF" d="M43.3,19.9c-1.7-0.3-2.6-0.4-4.5-0.6c-1-0.1-1.8-0.9-1.8-1.8c0-0.4,0-0.7,0-1.1c0-0.8-0.4-1-1-0.4
	c-0.2,0.2-0.4,0.4-0.5,0.6c-2.2,2.2-4,4.6-5.5,7.1c-0.1,0.2-0.2,0.5-0.3,0.8c-0.2,0.7-0.1,1.6,0.3,2.2c0.5,0.8,0.9,1.5,1.5,2.2
	c1.2,1.7,2.6,3.3,4,4.8c0.2,0.2,0.4,0.4,0.6,0.6c0.6,0.4,1,0.1,1-0.6c0-0.4,0-0.6,0-1.1c0-0.8,0.7-1.7,1.8-1.8
	c1.9-0.2,2.8-0.3,4.5-0.6c0.9-0.1,1.7-0.9,1.7-1.7c0-0.8,0-1.3,0-2c0-0.8,0-2.1,0-2.8c0-0.8,0-1.3,0-2C45,20.8,44.3,20,43.3,19.9z"
	/>
<path fill="#FFFFFF" d="M9.7,33H9.1V30l4.9-5l0.1,0.1l2.5,2.5l8.3-8.2l2.5,2.5c0,0,0,0,0,0c1.9-3.2,4.1-5.9,6.5-8.2
	c0,0,0.1,0,0.1-0.1c-0.6-0.5-1.4-0.8-2.3-0.8H8.9c-0.8,0-1.6,0.3-2.2,0.7c-0.9,0.6-1.5,1.6-1.6,2.8c0,0.1,0,0.2,0,0.4v16.6
	c0,0.1,0,0.1,0,0.2c0.1,1.2,0.6,2.2,1.5,2.9c0.6,0.5,1.4,0.8,2.3,0.8h22.8c0.8,0,1.5-0.3,2.2-0.7c-1.1-1.1-2.2-2.2-3.2-3.5H9.7z
	 M12,17c1.6,0,2.9,1.2,2.9,2.9c0,1-0.6,1.9-1.4,2.4c-0.4,0.3-0.9,0.4-1.5,0.4c-1.6,0-2.9-1.3-2.9-2.9c0-0.9,0.5-1.8,1.2-2.3
	C10.8,17.2,11.4,17,12,17z"/>
</svg>
