<?xml version="1.0" encoding="utf-8"?>
<!-- Generator: Adobe Illustrator 23.0.0, SVG Export Plug-In . SVG Version: 6.00 Build 0)  -->
<svg version="1.0" id="Layer_1" xmlns="http://www.w3.org/2000/svg" xmlns:xlink="http://www.w3.org/1999/xlink" x="0px" y="0px"
	 width="50px" height="50px" viewBox="0 0 50 50" enable-background="new 0 0 50 50" xml:space="preserve">
<path fill="#FFFFFF" d="M15.1,6c5.3,0,10.6,0,15.9,0c0.1,0.1,0.2,0.2,0.3,0.3c3,3,5.9,5.9,8.9,8.9c0.2,0.2,0.4,0.5,0.4,0.8
	c0,7.8,0,15.7,0,23.5c0,0.2,0,0.4,0,0.7c-0.1,1.8-1.5,3.4-3.3,3.7c-0.3,0.1-0.6,0.1-1,0.1c-6.8,0-13.6,0-20.4,0
	c-0.9,0-1.8-0.2-2.5-0.8c-1.1-0.8-1.7-1.9-1.7-3.2c0-0.6,0-1.2,0-1.8c-1.5,0-2.1-0.9-2-2.2c0.1-2.5,0-5.1,0-7.6c0-0.6,0-1.2,0-1.8
	c0-0.8,0.7-1.4,1.5-1.5c0.2,0,0.3,0,0.5,0c0-0.2,0-0.3,0-0.5c0-4.8,0-9.6,0-14.4c0-1.9,1.1-3.4,2.8-4C14.6,6.1,14.8,6.1,15.1,6z
	 M14,25c0.2,0,0.3,0,0.5,0c6.2,0,12.4,0,18.6,0c1.3,0,1.9,0.6,1.9,1.9c0,3.1,0,6.2,0,9.2c0,1.2-0.7,2-2,2c-6.2,0-12.4,0-18.6,0
	c-0.1,0-0.3,0-0.5,0c0,0.6,0,1.1,0,1.6c0,1.2,0.6,1.8,1.8,1.8c6.8,0,13.5,0,20.3,0c1.2,0,1.8-0.6,1.8-1.8c0-7.6,0-15.2-0.1-22.7
	c0-0.1,0-0.3,0-0.4c-0.2,0-0.4,0-0.5,0c-1.6,0-3.3,0-4.9,0c-1.3,0-2.5-1.2-2.5-2.5c-0.1-1.7,0-3.4,0-5.1c0-0.2,0-0.3,0-0.5
	c-0.1,0-0.2,0-0.2,0c-4.7,0-9.3,0-14,0c-0.4,0-0.8,0.1-1.1,0.4C14.2,9.2,14,9.7,14,10.3c0,4.8,0,9.5,0,14.3C14,24.7,14,24.8,14,25z
	 M19.8,28.4c0,2.3,0,4.5,0,6.8c0.9,0,1.8,0.1,2.7,0c2.1-0.2,3.2-1.4,3.3-3.5c0.1-1.8-0.9-3-2.6-3.3C22,28.2,20.9,28.3,19.8,28.4z
	 M13.8,35.1c0.5,0,1,0,1.5,0c0-0.8,0-1.6,0-2.4c0.2,0,0.3,0,0.4,0c0.6,0,1.2-0.1,1.8-0.3c0.8-0.4,1.2-1.1,1.2-2
	c0-0.9-0.4-1.5-1.2-1.8c-1.2-0.5-2.5-0.3-3.7-0.1C13.8,30.7,13.8,32.9,13.8,35.1z M28.4,29.6c0.9,0,1.7,0,2.6,0c0-0.4,0-0.8,0-1.2
	c-1.4,0-2.8,0-4.2,0c0,2.3,0,4.5,0,6.8c0.5,0,1,0,1.6,0c0-0.9,0-1.8,0-2.7c0.8,0,1.6,0,2.4,0c0-0.4,0-0.8,0-1.2c-0.4,0-0.8,0-1.2,0
	c-0.4,0-0.8,0-1.2,0C28.4,30.6,28.4,30.1,28.4,29.6z M23.8,33.1c0.5-0.8,0.4-2.2-0.1-2.9c-0.5-0.6-1.6-0.9-2.4-0.6
	c0,1.5,0,2.9,0,4.4C22.4,34.2,23.4,33.8,23.8,33.1z M16.5,31.4c0.5-0.1,0.7-0.6,0.7-1.1c0-0.5-0.3-0.8-0.8-0.9c-0.3,0-0.5,0-0.8,0
	c-0.1,0-0.2,0.1-0.2,0.2c0,0.6,0,1.2,0,1.9C15.8,31.5,16.2,31.5,16.5,31.4z"/>
</svg>
