<?xml version="1.0" encoding="utf-8"?>
<!-- Generator: Adobe Illustrator 23.0.0, SVG Export Plug-In . SVG Version: 6.00 Build 0)  -->
<svg version="1.0" id="Layer_1" xmlns="http://www.w3.org/2000/svg" xmlns:xlink="http://www.w3.org/1999/xlink" x="0px" y="0px"
	 viewBox="0 0 50 50" enable-background="new 0 0 50 50" xml:space="preserve">
<path fill="#263B80" d="M37,8c-1.8-2-5-3-9.5-3H15c-0.8,0-1.5,0.7-1.8,1.5l-5,32.8c0,0.7,0.5,1.3,1,1.3H17l2-12.3v0.5
	c0.3-0.7,1-1.5,1.8-1.5h3.8c7.3,0,12.8-3,14.5-11.3c0-0.3,0-0.5,0-0.7c-0.3,0-0.3,0,0,0C39.3,12,38.8,10,37,8"/>
<path fill="#139AD6" d="M38.8,15.3L38.8,15.3c0,0.3,0,0.5,0,0.7c-1.8,8.5-7.3,11.3-14.5,11.3h-3.8c-0.8,0-1.5,0.7-1.8,1.5L16.3,44
	c0,0.5,0.3,1,1,1h6.5c0.8,0,1.5-0.5,1.5-1.3v-0.2l1.3-7.7v-0.5c0-0.7,0.8-1.3,1.5-1.3h1c6.3,0,11.3-2.5,12.5-10
	c0.5-3-0.3-6.1-0.6-6.6C40.5,16.7,39.5,15.5,38.8,15.3"/>
<path fill="#232C65" d="M32.3,13.8c-1.7,0-9.8,0-9.8,0c-0.2,0-0.5,0-0.8,0.3c-0.5,0.3-0.8,0.7-0.8,1.3l-2,12.4l-0.2,1.1
	c0.3-0.7,1.3-1.5,2-1.5h3.8c7.3,0,12.6-2.9,14.3-11.2c0-0.2,0.1-0.4,0.2-0.7c-0.5-0.3-1-0.6-2-0.8C36,14.2,34,13.8,32.3,13.8z"/>
</svg>
