<?xml version="1.0" encoding="utf-8"?>
<!-- Generator: Adobe Illustrator 23.0.0, SVG Export Plug-In . SVG Version: 6.00 Build 0)  -->
<svg version="1.0" id="follow_x5F_icon" xmlns="http://www.w3.org/2000/svg" xmlns:xlink="http://www.w3.org/1999/xlink" x="0px"
	 y="0px" width="50px" height="50px" viewBox="0 0 50 50" enable-background="new 0 0 50 50" xml:space="preserve">
<g>
	<path id="shawod1_1_" opacity="0.25" enable-background="new    " d="M32.1,44.2c-2.6,0.7-9.8,2.4-12.4,3.2c-2.6,0.7-5.1-1.3-5.4-4
		c-1.7-12.6-2.6-28.4-2.1-31.9c0.2-1.6,1.1-2.6,2.9-2.9C17,8.3,28.3,7.7,29.8,7.7c1.5-0.1,2.7,1.7,2.8,3.3
		c0.5,6.5,1.7,15.4,3.8,28.2C36.8,41.1,34.7,43.4,32.1,44.2z"/>
	<path fill="#FFFFFF" d="M34.4,38.1c-0.3-2.7-1.9-16.4-3.1-28.7c0-1.6-1.2-3.3-2.6-3.3C23.2,6,15.3,6.6,14,7s-2.6,1.4-2.9,3.4
		c-0.8,5.3,0.9,28.4,1.8,31.9c0.9,3.5,2.9,4.6,5.4,4.2c4.9-0.9,7.4-1.7,12.4-2.9C33,42.6,34.7,40.8,34.4,38.1z M30.2,42.5
		c-2,0.6-4.2-0.8-4.4-2.6c-0.2-1.7,1.4-3.7,3.5-4.2s4.2,0.7,4.4,2.6C34,40.1,32.2,41.9,30.2,42.5z"/>
</g>
<path opacity="0.5" enable-background="new    " d="M19.8,6.8c-0.1-1,0.7-1.9,1.7-2.1c3.3-0.3,17.6,16,18.2,21.1
	c0.1,1.2-0.5,2.2-1.7,2.4c-4.3,0.7-8.5,1.3-12.7,1.9c-0.9,0.2-2.1-0.7-2.2-1.8C21.7,21.2,20.6,14.1,19.8,6.8z"/>
<g>
	<g>
		<path fill="#E9E9E3" d="M20.6,5.9c-0.1-1,0.7-1.9,1.7-2.1c3.3-0.3,6.5-0.5,9.7-0.7c0.1,0,0.2,0,0.3,0c0.1,0.9,0.1,1.7,0.2,2.6
			c0,0.6,0.1,1.3,0.1,2c0.1,1.2,0.8,1.8,2,1.7c1.3-0.1,2.5-0.2,3.8-0.3c0.3,0,0.6-0.1,0.8,0c0.1,0.1,0.1,0.2,0.1,0.3
			c0.2,5.2,0.6,10.4,1.2,15.5c0.1,1.2-0.5,2.2-1.7,2.4c-4.3,0.7-8.5,1.3-12.7,1.9c-0.9,0.2-2.1-0.7-2.2-1.8
			C22.5,20.3,21.4,13.2,20.6,5.9z"/>
		<path fill="#B9B9B8" d="M39.1,9.2c-0.1,0.1-0.2,0.1-0.4,0.1c-1.4,0.2-2.9,0.2-4.3,0.4c-1.1,0.1-2-0.8-2.1-1.8
			c0-1.5-0.1-2.9-0.2-4.4c0-0.1-0.1-0.2,0.1-0.4c0.6,0.6,1.4,1.2,2,1.8c1.5,1.4,3.1,2.7,4.6,4C38.9,9,39,9.1,39.1,9.2z"/>
	</g>
	<g>
		<path fill="#CB0606" d="M22.1,16.1c0.1,0,0.3,0,0.4,0c3.2-0.4,6.5-1,9.8-1.3c0.9,0,1.2,0.3,1.3,1.1c0.1,2.4,0.3,4.8,0.5,7.2
			c0,0.9-0.2,1.2-1,1.3c-3,0.5-6.2,0.5-9.2,0.9c-0.1,0-0.3,0-0.4,0c-1,0.1-2,0.2-3,0.4c-0.6,0.1-1.1-0.3-1.1-0.8
			c-0.1-0.6-0.2-1.1-0.3-1.7c-0.3-1.9-0.6-3.8-0.9-5.7c-0.1-0.8,0.1-1.1,1-1.1C20,16.4,21.1,16.2,22.1,16.1z"/>
		<path fill="#FEFBED" d="M29,20.1c-0.1-0.6-0.1-1.1-0.2-1.7c0-0.2,0-0.3,0.2-0.3c0.8-0.1,1.7-0.2,2.5-0.3c0.4,0,0.2,0.2,0.2,0.4
			c0,0.2,0,0.3-0.2,0.3c-0.5,0.1-1,0.1-1.6,0.2c-0.2,0-0.3,0.1-0.3,0.4c0.1,0.7,0,0.6,0.6,0.5c0.4,0,0.8-0.1,1.1-0.1
			c0.2,0,0.3,0,0.3,0.2c0.1,0.5,0.1,0.5-0.4,0.6c-0.4,0-0.8,0.1-1.2,0.1c-0.2,0-0.2,0.1-0.2,0.3c0,0.3,0.1,0.6,0.1,1
			c0,0.3,0,0.3-0.3,0.4c-0.5,0.1-0.5,0.1-0.6-0.5C29,21,29,20.6,29,20.1z M28.1,20.2c0.1,1-0.5,1.7-1.5,2c-0.6,0.1-1.1,0.1-1.6,0.2
			c-0.2,0-0.2-0.1-0.2-0.2c-0.1-0.6-0.1-1.1-0.2-1.7c-0.1-0.5-0.1-1.1-0.2-1.6c0-0.2,0-0.3,0.3-0.4c0.6-0.1,1.1-0.2,1.7-0.1
			C27.2,18.6,27.9,19.3,28.1,20.2z M27.2,20.3c-0.1-0.6-0.5-1-1.1-1c-0.3,0-0.4,0-0.7,0.1c-0.2,0-0.2,0.1-0.2,0.3
			c0,0.3,0.1,0.6,0.1,0.9c0,0.1,0,0.3,0,0.4c0.1,0.8,0.2,0.9,1,0.7C27,21.4,27.3,20.9,27.2,20.3z M23.6,20.2c0,0.6-0.5,1.1-1.1,1.3
			c-0.3,0-0.6,0.1-0.8,0.1c-0.2,0-0.2,0.1-0.2,0.3c0,0.3,0,0.4,0.1,0.7c0,0.2,0,0.3-0.2,0.3c-0.7,0.1-0.6,0.1-0.6-0.4
			c-0.2-0.9-0.3-2-0.4-2.9c0-0.2,0-0.3,0.2-0.3c0.3,0,0.5-0.1,0.8-0.1s0.6-0.1,1,0C23.1,19,23.6,19.5,23.6,20.2z M22.8,20.1
			c0-0.3-0.2-0.4-0.5-0.4c-0.2,0-0.3,0-0.5,0c-0.6,0.1-0.6,0.1-0.4,0.6c0,0.1,0,0.3,0,0.4s0,0.2,0.1,0.2c0.3,0,0.6,0,0.9-0.2
			C22.7,20.6,22.8,20.4,22.8,20.1z"/>
	</g>
</g>
</svg>
