<?xml version="1.0" encoding="utf-8"?>
<!-- Generator: Adobe Illustrator 23.0.0, SVG Export Plug-In . SVG Version: 6.00 Build 0)  -->
<svg version="1.0" id="Layer_1" xmlns="http://www.w3.org/2000/svg" xmlns:xlink="http://www.w3.org/1999/xlink" x="0px" y="0px"
	 viewBox="0 0 50 50" enable-background="new 0 0 50 50" xml:space="preserve">
<g>
	<path fill="#E9E9E3" d="M13.8,7.9c0-1.6,1.4-2.9,3-2.9C21.9,5.1,26.9,5.3,32,5.5c0.2,0,0.3,0,0.4,0.1c0,1.4-0.2,2.7-0.2,4.1
		c-0.1,1-0.1,2.1-0.2,3.1c-0.1,1.8,1,3,2.8,3c2,0,3.9,0.1,5.9,0.1c0.4,0,0.9,0,1.3,0.1c0.2,0.2,0.1,0.4,0.1,0.5
		c-0.6,8.1-0.8,16.2-0.7,24.3c0,1.9-1.1,3.3-3,3.4C31.6,44.5,25,44.7,18.3,45c-1.5,0.1-3.1-1.4-3.1-3.1
		C14.4,30.5,13.9,19.3,13.8,7.9z"/>
	<path fill="#B9B9B8" d="M42,16.1c-0.2,0.2-0.4,0.1-0.6,0.1c-2.2,0-4.5-0.1-6.7-0.1c-1.7,0-3-1.6-2.9-3.1c0.2-2.3,0.3-4.5,0.4-6.8
		c0-0.2-0.1-0.4,0.2-0.6c0.9,1,1.9,2.1,2.8,3.1c2.1,2.4,4.3,4.7,6.4,7C41.7,15.8,41.8,16,42,16.1z"/>
</g>
<g>
	<path fill="#CB0606" d="M14.5,24c0.2,0,0.4,0,0.6,0c5.1-0.1,10.3-0.5,15.4-0.3c1.4,0.1,1.8,0.6,1.8,1.9c-0.2,3.8-0.4,7.5-0.5,11.3
		c-0.1,1.4-0.5,1.9-1.8,1.9c-4.8,0.2-9.7-0.2-14.5-0.2c-0.2,0-0.4,0-0.6,0c-1.6,0-3.2-0.1-4.7,0.1c-0.9,0.1-1.6-0.6-1.6-1.5
		c0-0.9-0.1-1.8-0.1-2.7c-0.1-3-0.3-6-0.4-9c-0.1-1.2,0.4-1.7,1.7-1.6C11.2,24,12.9,24,14.5,24z"/>
	<path fill="#FEFBED" d="M24.5,31.3c0-0.9,0-1.8,0-2.7c0-0.3,0.1-0.4,0.4-0.4c1.3,0,2.6,0,4,0c0.6,0,0.3,0.4,0.3,0.7
		c0,0.3,0,0.5-0.4,0.5c-0.8,0-1.6,0-2.5,0c-0.3,0-0.5,0.1-0.5,0.5c0,1.1-0.1,0.9,0.9,0.9c0.6,0,1.2,0,1.8,0c0.3,0,0.4,0.1,0.4,0.4
		c0,0.8,0,0.8-0.7,0.8c-0.6,0-1.3,0-1.9,0c-0.3,0-0.4,0.1-0.4,0.4c0,0.5,0,1,0,1.5c0,0.4-0.1,0.5-0.5,0.5c-0.8,0-0.8,0-0.8-0.9
		C24.4,32.8,24.4,32.1,24.5,31.3z M23,31.4c0,1.5-1.1,2.6-2.6,2.9c-0.9,0.1-1.7,0-2.6,0.1c-0.3,0-0.3-0.2-0.3-0.4c0-0.9,0-1.7,0-2.6
		c0-0.8,0-1.7,0-2.5c0-0.3,0.1-0.5,0.5-0.5c0.9,0,1.7-0.1,2.6,0.1C22,28.7,23,29.9,23,31.4z M21.7,31.4c0-0.9-0.6-1.7-1.5-1.8
		c-0.4-0.1-0.7,0-1.1,0c-0.3,0-0.4,0.1-0.4,0.4c0,0.5,0,1,0,1.4c0,0.2,0,0.4,0,0.7c0,1.3,0.1,1.4,1.5,1.2
		C21.1,33,21.7,32.3,21.7,31.4z M16.1,30.6c-0.1,1-0.9,1.7-2,1.8c-0.4,0-0.9,0-1.3,0c-0.3,0-0.4,0.1-0.4,0.4c0,0.4,0,0.7,0,1.1
		c0,0.3-0.1,0.4-0.4,0.4c-1.1,0-0.9,0.1-0.9-0.8c-0.1-1.5-0.1-3.1-0.2-4.6c0-0.3,0-0.5,0.4-0.4c0.4,0,0.8,0,1.3,0
		c0.5,0,1-0.1,1.6,0.1C15.5,28.7,16.2,29.5,16.1,30.6z M14.8,30.3c0-0.4-0.3-0.6-0.7-0.7c-0.3-0.1-0.5-0.1-0.8-0.1
		c-0.9,0-0.9,0-0.8,0.9c0,0.2,0,0.4,0,0.6c0,0.1,0,0.3,0.2,0.3c0.5,0,1,0.1,1.5-0.1C14.6,31,14.8,30.8,14.8,30.3z"/>
</g>
</svg>
