<?xml version="1.0" encoding="utf-8"?>
<!-- Generator: Adobe Illustrator 23.0.0, SVG Export Plug-In . SVG Version: 6.00 Build 0)  -->
<svg version="1.0" id="follow_x5F_icon" xmlns="http://www.w3.org/2000/svg" xmlns:xlink="http://www.w3.org/1999/xlink" x="0px"
	 y="0px" width="50px" height="50px" viewBox="0 0 50 50" enable-background="new 0 0 50 50" xml:space="preserve">
<path fill="#FFFFFF" d="M26.8,19.6c0.1,0.5-0.1,1-0.5,1.1c-0.4,0.1-0.7,0.2-1.2,0.3c-0.1-0.7-0.1-1.3-0.2-1.9c0-0.1,0.1-0.2,0.2-0.2
	c0.3,0,0.5-0.1,0.8-0.1C26.4,18.8,26.7,19.1,26.8,19.6z M45.2,23.6c0.1,1.2-0.5,2.1-1.8,2.2C37.2,26.4,22,27.9,22,27.9
	c-1.5,0.2-2.1-0.7-2.2-2c-0.2-2.5-0.5-5.1-0.7-7.6c-0.1-0.6-0.1-1.2-0.2-1.8c0-0.8,0.5-1.6,1.4-1.6c0.9-0.1,15.8-1.6,22-2.2
	c1.3-0.1,2,0.4,2.1,1.7C44.6,17.5,44.9,20.5,45.2,23.6z M28.3,19.5c-0.1-0.8-0.5-1.5-1.4-1.7c-1.3-0.4-2.5,0-3.7,0.2
	c0.2,2.3,0.4,4.5,0.7,6.7c0.5-0.1,1-0.1,1.5-0.2c-0.1-0.8-0.2-1.6-0.2-2.4c0.2,0,0.3,0,0.4,0c0.6-0.1,1.2-0.2,1.7-0.5
	C28.1,21.1,28.4,20.4,28.3,19.5z M35.5,20.1c-0.1-1.8-1.2-2.9-3-3c-1.1-0.1-2.2,0.1-3.3,0.4c0.2,2.3,0.4,4.5,0.7,6.7
	c0.9-0.1,1.8-0.1,2.7-0.3C34.7,23.4,35.6,22.1,35.5,20.1z M40.3,16.2c-1.4,0.1-2.8,0.3-4.1,0.4c0.2,2.3,0.4,4.5,0.7,6.8
	c0.5-0.1,1-0.1,1.5-0.2c-0.1-0.9-0.2-1.8-0.3-2.7c0.8-0.1,1.6-0.2,2.4-0.2c0-0.4-0.1-0.8-0.1-1.2c-0.4,0-0.8,0.1-1.2,0.1
	c-0.4,0-0.8,0.1-1.2,0.1c-0.1-0.5-0.1-1-0.2-1.6c0.9-0.1,1.7-0.2,2.6-0.3C40.4,17,40.4,16.6,40.3,16.2z M30.8,18.4
	c0.1,1.5,0.3,2.9,0.4,4.4c1.1,0.1,2-0.4,2.4-1.1c0.4-0.9,0.2-2.3-0.4-2.9C32.7,18.2,31.6,18,30.8,18.4z"/>
<g>
	<g>
		<g>
			<path opacity="0.25" enable-background="new    " d="M21.6,29.9c-1.7,0-3.6-1-3.9-3.9c-0.1-1.7-0.3-3.5-0.5-5.2
				c-0.1-0.8-0.3-2.7-0.3-2.7c-0.1-0.5-0.1-1-0.1-1.5c-0.1-1.9,1.3-3.5,3.1-3.7c0.5-0.1,6.7-0.7,12.7-1.3c0-0.2,0-0.4,0-0.6
				c-0.1-1.6-1.3-3.4-2.8-3.3c-1.5,0-12.8,0.6-14.7,0.9c-1.8,0.3-2.7,1.3-2.9,2.9c-0.5,3.5,0.4,19.3,2.1,31.9c0.3,2.7,2.8,4.7,5.4,4
				c2.6-0.8,9.8-2.5,12.4-3.2c2.6-0.8,4.7-3.1,4.3-5c-0.6-3.9-1.2-7.4-1.7-10.6c-0.5,0-0.9,0.1-1.4,0.1l0,0
				c-5.7,0.6-11.1,1.1-11.2,1.1C22,29.9,21.8,29.9,21.6,29.9z"/>
		</g>
	</g>
	<path fill="none" d="M30.2,42.5c2-0.6,3.8-2.4,3.5-4.2c-0.2-1.9-2.3-3.1-4.4-2.6c-2.1,0.5-3.7,2.5-3.5,4.2
		C26,41.7,28.2,43.1,30.2,42.5z"/>
	<path fill="#FFFFFF" d="M21.6,29.9c-1.7,0-3.6-1-3.9-3.9c-0.1-1.7-0.3-3.5-0.5-5.2c-0.1-0.8-0.3-2.7-0.3-2.7
		c-0.1-0.5-0.1-1-0.1-1.5c-0.1-1.9,1.3-3.5,3.1-3.7c0.5-0.1,5.9-0.6,11.6-1.1c-0.1-0.8-0.2-1.6-0.2-2.3c0-1.6-1.2-3.3-2.6-3.3
		C23.2,6,15.3,6.6,14,7s-2.6,1.4-2.9,3.4c-0.8,5.3,0.9,28.4,1.8,31.9c0.9,3.5,2.9,4.6,5.4,4.2c4.9-0.9,7.4-1.7,12.4-2.9
		c2.3-1,4-2.8,3.7-5.5c-0.1-1.2-0.5-4.7-1.1-9.3c-5.7,0.6-11.1,1.1-11.2,1.1C22,29.9,21.8,29.9,21.6,29.9z M29.3,35.7
		c2.1-0.5,4.2,0.7,4.4,2.6c0.3,1.8-1.5,3.6-3.5,4.2s-4.2-0.8-4.4-2.6C25.6,38.2,27.2,36.2,29.3,35.7z"/>
</g>
</svg>
