<?xml version="1.0" encoding="utf-8"?>
<!-- Generator: Adobe Illustrator 23.0.0, SVG Export Plug-In . SVG Version: 6.00 Build 0)  -->
<svg version="1.0" id="icon" xmlns="http://www.w3.org/2000/svg" xmlns:xlink="http://www.w3.org/1999/xlink" x="0px" y="0px"
	 width="50px" height="50px" viewBox="0 0 50 50" enable-background="new 0 0 50 50" xml:space="preserve">
<path fill="#FFFFFF" d="M23,44.5c-0.3,0-0.7,0-1,0c-1.2-0.2-2.1-0.8-2.9-1.6c-1.6-1.4-3.1-2.8-4.6-4.2c-3.1-3-6-6-8.7-9
	c-1.3-1.5-1-3.4,0.7-4.7C13.7,19.1,20,13.2,25.3,7c0.7-0.8,1.5-1.2,2.5-1.2c3.8-0.1,7.7-0.2,11.5-0.3c1,0,1.8,0.4,2.5,1.3
	c0.3,0.4,0.5,1,0.8,1.5c0.8,4.8,1.6,9.5,2.3,14.3c0,0,0,0.1,0,0.1c-0.1,1-0.4,1.8-1,2.5c-5.2,6-11.2,12-18.1,17.8
	C25,43.7,24.2,44.3,23,44.5z M37.7,15.4c-0.1-1.7-1.6-3.2-3.3-3.2c-1.6,0-2.9,1.4-2.8,3.2c0.1,1.7,1.4,3.2,3.3,3.2
	C36.5,18.7,37.8,17.2,37.7,15.4z"/>
</svg>
