<?xml version="1.0" encoding="utf-8"?>
<!-- Generator: Adobe Illustrator 23.0.0, SVG Export Plug-In . SVG Version: 6.00 Build 0)  -->
<svg version="1.0" id="Layer_1" xmlns="http://www.w3.org/2000/svg" xmlns:xlink="http://www.w3.org/1999/xlink" x="0px" y="0px"
	 width="50px" height="50px" viewBox="0 0 50 50" enable-background="new 0 0 50 50" xml:space="preserve">
<path fill="#FFFFFF" d="M40,22.8c0-1.6,0-3.2-0.2-4.7c-0.4-3.2-1.9-6-4.2-8.3c-2.3-2.3-5.2-3.8-8.4-4.3c-0.4-0.1-0.8-0.1-1.2-0.2
	c-0.6,0-1.2,0-1.8,0c-0.4,0.1-0.8,0.1-1.2,0.2c-3.3,0.5-6.2,1.9-8.6,4.3c-3.7,3.8-5,8.4-4,13.6c0.7,3.5,2.5,6.4,5.2,8.6
	c1.3,1.1,2.8,1.9,4.4,2.5c1.1,0.4,1.4,0.8,1.4,2c0,0.8,0,5.5,0,5.6c0,0,0,0.7,0,1.1c0,0.8,0.3,1.4,1.1,1.7c1.7,0,3.5,0,5.2,0
	c0.6-0.3,1-0.7,1-1.4c0-2.5,0-5,0-7.6c0-2.1-0.8-4-2.2-5.6c-1.1-1.3-2.6-2.1-4.2-2.7c-3.1-1.2-5-4.3-4.8-7.7
	c0.2-3.3,2.6-6.1,5.8-6.9c4.8-1.2,9.4,2.3,9.5,7.3c0.1,2.1,0,4.2,0,6.2c0,0.5,0.1,1.1,0.2,1.5c0.6,1.5,1.7,2.3,3.3,2.4
	c1.4,0.1,2.5-0.6,3.2-1.8C40.1,27.5,40,24.1,40,22.8z"/>
</svg>
