<?xml version="1.0" encoding="utf-8"?>
<!-- Generator: Adobe Illustrator 23.0.0, SVG Export Plug-In . SVG Version: 6.00 Build 0)  -->
<svg version="1.0" id="follow_x5F_icon" xmlns="http://www.w3.org/2000/svg" xmlns:xlink="http://www.w3.org/1999/xlink" x="0px"
	 y="0px" width="50px" height="50px" viewBox="0 0 50 50" enable-background="new 0 0 50 50" xml:space="preserve">
<path fill="#FFFFFF" d="M35.5,10c0.4,0.1,0.9,0.2,1.3,0.3c1.9,0.7,3.2,2.6,3.2,4.6c0,1.2,0,2.4,0,3.6c0,2.8-1.9,4.9-4.7,5.1
	c-1.4,0.1-2.9,0.1-4.3,0c-2.6-0.2-4.5-2.1-4.7-4.7c-0.1-1.5-0.1-3,0-4.5c0.1-2.3,2-4.1,4.2-4.5c0.1,0,0.1,0,0.2-0.1
	C32.3,10,33.9,10,35.5,10z M36.2,16.9c0-0.6,0-1.2,0-1.8c0-0.8-0.5-1.3-1.3-1.3c-1.2,0-2.4,0-3.6,0c-0.8,0-1.3,0.5-1.3,1.3
	c0,1.2,0,2.4,0,3.6c0,0.8,0.5,1.3,1.3,1.3c1.2,0,2.4,0,3.7,0c0.8,0,1.3-0.5,1.3-1.3C36.2,18.1,36.2,17.5,36.2,16.9z M10,30.7
	c0.1-0.2,0.1-0.4,0.2-0.6c0.5-2.2,2.4-3.7,4.6-3.8c1.5-0.1,3-0.1,4.5,0c2.3,0.1,4.3,2.1,4.4,4.4c0.1,1.6,0.1,3.2,0,4.8
	c-0.1,2.2-2,4.2-4.2,4.4C18.7,40,17.8,40,17,40c-0.9,0-1.8,0-2.7-0.1c-2.2-0.2-4-2-4.3-4.2c0-0.1,0-0.1-0.1-0.2
	C10,33.9,10,32.3,10,30.7z M16.9,36.2c0.6,0,1.2,0,1.8,0c0.8,0,1.3-0.5,1.3-1.3c0-1.2,0-2.4,0-3.7c0-0.8-0.5-1.3-1.3-1.3
	c-1.2,0-2.5,0-3.7,0c-0.7,0-1.3,0.6-1.3,1.3c0,1.2,0,2.4,0,3.6c0,0.8,0.5,1.3,1.3,1.3C15.7,36.2,16.3,36.2,16.9,36.2z M19.3,10
	c0.4,0.1,0.8,0.2,1.2,0.3c2,0.8,3.1,2.3,3.2,4.5c0.1,1.5,0.1,3,0,4.5c-0.1,2.3-2.1,4.3-4.4,4.4c-1.6,0.1-3.2,0.1-4.8,0
	c-2.2-0.1-4.1-1.9-4.5-4.2c0-0.1,0-0.1-0.1-0.2c0-1.6,0-3.2,0-4.9c0-0.1,0-0.1,0.1-0.2c0.3-1.8,1.3-3.1,3-3.9c0.5-0.2,1-0.3,1.4-0.4
	C16.1,10,17.7,10,19.3,10z M13.8,16.9c0,0.6,0,1.2,0,1.8c0,0.8,0.5,1.3,1.3,1.3c1.2,0,2.5,0,3.7,0c0.7,0,1.3-0.5,1.3-1.3
	c0-1.2,0-2.5,0-3.7c0-0.7-0.6-1.3-1.3-1.3c-1.2,0-2.4,0-3.7,0c-0.8,0-1.3,0.5-1.3,1.3C13.7,15.7,13.8,16.3,13.8,16.9z M26.2,29.4
	c0,1,0.7,1.8,1.7,1.9c0.5,0,1.1,0,1.6,0c0.9-0.1,1.6-0.8,1.7-1.7c0-0.5,0-1.1,0-1.6c-0.1-1-0.8-1.6-1.7-1.7c-0.5,0-1,0-1.5,0
	c-1,0.1-1.7,0.8-1.7,1.9c0,0.2,0,0.4,0,0.6C26.2,28.9,26.2,29.2,26.2,29.4z M35,28.7c0,0.2,0,0.5,0,0.7c0,0.9,0.7,1.6,1.6,1.7
	c0.6,0.1,1.2,0.1,1.8,0c1-0.1,1.7-0.9,1.7-1.9c0-0.4,0-0.9,0-1.3c0-0.9-0.7-1.7-1.6-1.8c-0.6-0.1-1.2-0.1-1.8,0
	c-0.8,0.1-1.4,0.7-1.6,1.5C35,28.1,35,28.4,35,28.7C35,28.7,35,28.7,35,28.7z M28.7,40c0.2,0,0.4,0,0.7,0c0.9,0,1.7-0.7,1.8-1.6
	c0.1-0.6,0.1-1.1,0-1.7c-0.1-1-0.9-1.7-1.9-1.7c-0.4,0-0.8,0-1.3,0c-1,0-1.7,0.7-1.8,1.6c-0.1,0.6-0.1,1.2,0,1.7
	c0.1,0.9,0.8,1.5,1.6,1.6C28.2,40,28.5,40,28.7,40C28.7,40,28.7,40,28.7,40z M31.3,33.1c0,1,0.8,1.9,1.9,1.9c1,0,1.9-0.9,1.9-1.9
	c0-1-0.8-1.9-1.9-1.9C32.1,31.3,31.2,32.1,31.3,33.1z"/>
</svg>
