<?xml version="1.0" encoding="utf-8"?>
<!-- Generator: Adobe Illustrator 23.0.0, SVG Export Plug-In . SVG Version: 6.00 Build 0)  -->
<svg version="1.0" id="Layer_1" xmlns="http://www.w3.org/2000/svg" xmlns:xlink="http://www.w3.org/1999/xlink" x="0px" y="0px"
	 width="50px" height="50px" viewBox="0 0 50 50" enable-background="new 0 0 50 50" xml:space="preserve">
<path fill="#FFFFFF" d="M17.2,27.4c0-0.4,0-0.6,0-1.1c0-0.8,0.7-1.6,1.7-1.7c1.8-0.2,2.7-0.3,4.3-0.6c0.9-0.1,1.6-0.9,1.6-1.6
	c0-0.8,0-1.2,0-1.9c0-0.8,0-2,0-2.7c0-0.8,0-1.2,0-1.9c0-0.8-0.7-1.5-1.6-1.6c-1.6-0.3-2.5-0.4-4.3-0.6c-1-0.1-1.7-0.9-1.7-1.7
	c0-0.4,0-0.7,0-1.1c0-0.8-0.4-1-1-0.4c-2.3,2.2-4.2,4.7-5.8,7.3c-0.5,0.8-0.5,2.1,0,2.9c1.6,2.7,3.6,5.2,5.8,7.3
	C16.8,28.4,17.2,28.1,17.2,27.4z"/>
<path fill="#FFFFFF" d="M32.8,22.6c0,0.4,0,0.6,0,1.1c0,0.8-0.7,1.6-1.7,1.7c-1.8,0.2-2.7,0.3-4.3,0.6c-0.9,0.1-1.6,0.9-1.6,1.6
	s0,1.2,0,1.9c0,0.8,0,2,0,2.7c0,0.8,0,1.2,0,1.9c0,0.8,0.7,1.5,1.6,1.6c1.6,0.3,2.5,0.4,4.3,0.6c1,0.1,1.7,0.9,1.7,1.7
	c0,0.4,0,0.7,0,1.1c0,0.8,0.4,1,1,0.4c2.3-2.2,4.2-4.7,5.8-7.3c0.5-0.8,0.5-2.1,0-2.9C38,26.6,36,24.1,33.8,22
	C33.2,21.6,32.8,21.9,32.8,22.6z"/>
</svg>
