<?xml version="1.0" encoding="utf-8"?>
<!-- Generator: Adobe Illustrator 23.0.0, SVG Export Plug-In . SVG Version: 6.00 Build 0)  -->
<svg version="1.0" id="Layer_1" xmlns="http://www.w3.org/2000/svg" xmlns:xlink="http://www.w3.org/1999/xlink" x="0px" y="0px"
	 width="50px" height="50px" viewBox="0 0 50 50" enable-background="new 0 0 50 50" xml:space="preserve">
<path fill="#FFFFFF" d="M35,25c0,2.9,0,5.8,0,8.7c0,3.2-2.7,5.7-5.9,5.3c-0.2,0-0.4,0-0.6,0c-5.7,0-11.4,0-17.1,0
	C10.6,39,9.8,39,9,38.8c-2.6-0.6-4.3-3.1-4-5.7c0-0.2,0-0.4,0-0.6c0-4.9,0-9.8,0-14.7C5,16.9,5,15.9,5.1,15c0.6-2.7,3.1-4.3,5.8-4
	c0.2,0,0.3,0,0.5,0c5.7,0,11.5,0,17.2,0c0.8,0,1.6-0.1,2.4,0.1c2.5,0.5,4.1,2.7,4.1,5.2C35,19.2,35,22.1,35,25z"/>
<path fill="#FFFFFF" d="M45,25c0,2.9,0,5.8,0,8.7c0,0.9-0.4,1.5-1.2,1.6c-0.4,0-0.8,0-1.1-0.3c-1.5-1.1-2.9-2.3-4.3-3.5
	C38.1,31.5,38,31.2,38,31c0-4,0-8,0-12c0-0.2,0.2-0.5,0.4-0.7c1.3-1.1,2.7-2.2,4-3.2c0.5-0.4,1.1-0.6,1.7-0.3
	c0.6,0.3,0.9,0.8,0.9,1.5C45,19.2,45,22.1,45,25z"/>
</svg>
