<?xml version="1.0" encoding="utf-8"?>
<!-- Generator: Adobe Illustrator 23.0.0, SVG Export Plug-In . SVG Version: 6.00 Build 0)  -->
<svg version="1.0" id="Layer_1" xmlns="http://www.w3.org/2000/svg" xmlns:xlink="http://www.w3.org/1999/xlink" x="0px" y="0px"
	 width="50px" height="50px" viewBox="0 0 50 50" enable-background="new 0 0 50 50" xml:space="preserve">
<g>
	<path fill="#FFFFFF" d="M5,17.8c0,5.7,0,11.4,0,17C5,40.6,9.4,45,15.1,45c6.6,0,13.1,0,19.7,0c0.6,0,1.3,0,1.9-0.1
		c4.9-0.9,8.3-5,8.3-10c0-5.7,0-11.4,0-17c0-0.2,0-0.4,0-0.6c-13.3,0-26.6,0-40,0C5,17.5,5,17.6,5,17.8z M21.4,24.2
		c3,1.8,6.1,3.4,9.2,5.1c0.1,0.1,0.2,0.1,0.3,0.1c1,0.6,1,1.6,0,2.1c-2.9,1.6-5.8,3.2-8.7,4.8c-0.4,0.2-0.7,0.4-1.1,0.6
		c-0.2,0.1-0.4,0.1-0.5,0.2c-0.7,0-1.2-0.4-1.2-1c0-0.3,0-0.7,0-1c0-3.3,0.1-6.5,0-9.8C19.4,24,20.4,23.6,21.4,24.2z"/>
	<path fill="#FFFFFF" d="M20.8,14.6c0.2,0.3,0.5,0.4,0.8,0.4c3.5,0,7.1,0,10.6,0c0.2,0,0.3,0,0.6,0c-0.1-0.1-0.1-0.2-0.1-0.2
		c-2.1-3.2-4.2-6.3-6.3-9.5C26.3,5.1,26,5,25.8,5c-3.6,0-7.1,0-10.7,0c-0.2,0-0.3,0-0.6,0c0.1,0.2,0.3,0.5,0.3,0.5L20.8,14.6z"/>
	<path fill="#FFFFFF" d="M35.4,14.8c0.1,0.1,0.3,0.2,0.4,0.2c3,0,6,0,9.2,0c-0.1-0.6-0.1-1.2-0.2-1.7c-0.9-4.9-5-8.3-10-8.3
		C33,5,29.1,5,29,5c0,0.1,0,0.1,0,0.1C31.1,8.3,33.3,11.6,35.4,14.8z"/>
	<path fill="#FFFFFF" d="M18.3,14.8c-2-3-4-6.1-6-9.1c-0.2-0.3-0.4-0.2-0.6-0.1C9.8,6.2,8.2,7.4,7,9c-1.3,1.8-2,3.7-2,6
		c4.5,0,8.9,0,13.4,0C18.4,14.9,18.4,14.8,18.3,14.8z"/>
</g>
</svg>
