<?xml version="1.0" encoding="utf-8"?>
<!-- Generator: Adobe Illustrator 23.0.0, SVG Export Plug-In . SVG Version: 6.00 Build 0)  -->
<svg version="1.0" id="Layer_1" xmlns="http://www.w3.org/2000/svg" xmlns:xlink="http://www.w3.org/1999/xlink" x="0px" y="0px"
	 width="50px" height="50px" viewBox="0 0 50 50" enable-background="new 0 0 50 50" xml:space="preserve">
<path fill="#FFFFFF" d="M23.7,38.7c-4.2,0-8.3,0-12.5,0c-1.1,0-1.5-0.6-1.3-1.6c1.1-3.9,2.2-7.8,3.3-11.7c0.5-1.8,2-2.9,3.8-2.9
	c7.2,0,14.5,0,21.7,0c2.4,0,4.2,2.3,3.6,4.6c-0.8,2.9-1.7,5.9-2.5,8.8c-0.5,1.7-2,2.8-3.8,2.8C31.9,38.7,27.8,38.7,23.7,38.7z
	 M40.1,18.7c-0.1-1.2-0.7-2.2-1.7-2.9c-0.7-0.5-1.6-0.7-2.5-0.7c-3.9,0-7.9,0-11.8,0c-0.3,0-0.7-0.1-1-0.3c-0.9-0.8-1.8-1.6-2.6-2.4
	c-0.8-0.7-1.7-1-2.7-1.1c-2.1,0-4.2,0-6.3,0c-2.3,0-4,1.7-4,4c0,6.5,0,13.1,0,19.6c0,0.2,0,0.5,0.1,0.7c0.1-0.1,0.1-0.2,0.2-0.2
	c0.7-2.5,1.5-5.1,2.2-7.6c0.1-0.2,0.1-0.4,0.1-0.6c0-1.9,0-3.9,0-5.8c0-2.9,2.2-5.1,5.1-5.1c2.4,0,4.8,0,7.1,0c3.4,0,6.8,0,10.1,0
	c1.3,0,2.5,0.4,3.5,1.3c0.7,0.7,1.1,1.5,1.4,2.4c0.9,0,1.8,0,2.7,0C40.1,19.6,40.1,19.1,40.1,18.7z M12.6,21.6
	c1.3-1.2,2.8-1.6,4.6-1.6c5.7,0,11.3,0,17,0c0.2,0,0.3,0,0.5,0c-0.6-0.8-1.3-1.3-2.3-1.3c-5.7,0-11.5,0-17.2,0
	C13.8,18.7,12.3,19.9,12.6,21.6C12.6,21.7,12.6,21.7,12.6,21.6z"/>
</svg>
