<?xml version="1.0" encoding="utf-8"?>
<!-- Generator: Adobe Illustrator 23.0.0, SVG Export Plug-In . SVG Version: 6.00 Build 0)  -->
<svg version="1.0" id="Layer_1" xmlns="http://www.w3.org/2000/svg" xmlns:xlink="http://www.w3.org/1999/xlink" x="0px" y="0px"
	 width="50px" height="50px" viewBox="0 0 50 50" enable-background="new 0 0 50 50" xml:space="preserve">
<path fill="#FFFFFF" d="M38.8,9.3c-0.9-1.2-2.3-1.8-3.6-1.9c-7-0.3-13.5,0.1-20.4,1.1c-1.3,0.3-2.7,1-3.6,2
	C8,14.4,6.3,18.2,6.5,21.2c0.3,2,0.6,3.6,2.3,4.7C9,26,9.1,26,9.3,26.1c1,3.3,1.9,6.6,2.2,11.7c0.1,1.6,1.4,3.1,3,3.6
	c6.7,1.7,13.9,1.5,20.7,0.7c1.4-0.2,2.8-2,3-3.9c0.9-6.3,2-9.7,2.9-12.8c1.9-1,2.2-2.3,2.3-4.2c0-0.2,0-0.3,0.1-0.5
	C43.6,17.9,41.9,13.6,38.8,9.3z M35.7,38.8c-0.3,0.8-1,1-1.6,1.1c-1.5,0.3-2.3,0.3-3.7,0.5c0.5-1.6,0.8-3.3,0.9-4.5
	c0.1-1.9-0.1-3.6-0.8-4.3c-0.9-1.1-4-1.5-4.8-0.3c-0.9,1.2,0.2,5.1,0.2,6.8c0,0.7-0.1,1.9-0.3,2.7c-5.1,0-6.7-0.3-10.3-1.4
	c-0.4-0.2-0.9-0.3-1-1.6c-0.7-5.8-1.3-7.6-2.2-11.1c1-0.1,1.4-0.7,1.9-1.8c1.8,2.7,5.7,4.4,8.9,2.4c0.9-0.6,1.6-1.4,2.2-2.4
	c1.8,3.3,6.5,3.8,9.4,1.6c0.9-0.6,1.5-1.4,2-2.1c0.5,1.1,1,1.6,2,1.7C37.1,30.2,36.4,34,35.7,38.8z"/>
</svg>
