<?xml version="1.0" encoding="utf-8"?>
<!-- Generator: Adobe Illustrator 23.0.0, SVG Export Plug-In . SVG Version: 6.00 Build 0)  -->
<svg version="1.0" id="Layer_1" xmlns="http://www.w3.org/2000/svg" xmlns:xlink="http://www.w3.org/1999/xlink" x="0px" y="0px"
	 viewBox="0 0 50 50" enable-background="new 0 0 50 50" xml:space="preserve">
<path fill-opacity="0.5" d="M41.8,7c-1.1-1.4-2.9-2.1-4.4-2.2C28.8,4.5,21,4.9,12.5,6C11,6.3,9.2,7.1,8.1,8.4
	C4.3,13,2.2,17.4,2.5,20.9c0.3,2.3,0.7,4.2,2.7,5.5c0.2,0.1,0.4,0.2,0.6,0.3c1.2,3.9,2.3,7.8,2.7,13.7c0.1,1.8,1.7,3.7,3.6,4.2
	c8.2,2,17,1.7,25.3,0.8c1.7-0.2,3.4-2.3,3.7-4.6c1.1-7.4,2.4-11.5,3.4-15.1c2.3-1.1,2.6-2.8,2.9-4.9c0-0.2,0-0.4,0.1-0.6
	C47.6,17.1,45.6,12.1,41.8,7z M38,41.7c-0.3,0.9-1.3,1.2-2,1.4c-1.8,0.4-2.9,0.4-4.6,0.6c0.6-2,0.9-3.9,1-5.3
	c0.1-2.2-0.1-4.2-0.9-5.1c-1-1.3-4.9-1.7-5.8-0.5c-1,1.4,0.3,6,0.3,8c0,0.9-0.1,2.2-0.3,3.1c-6.2,0-8.2-0.4-12.6-1.7
	c-0.6-0.2-1.1-0.3-1.3-1.8c-0.9-6.8-1.5-8.8-2.6-13c1.1-0.1,1.7-0.8,2.3-2.2c2.2,3.1,7,5.2,10.7,2.8c1.1-0.7,2-1.7,2.7-2.8
	c2.2,3.9,7.9,4.5,11.4,1.9c1-0.7,1.8-1.6,2.5-2.5c0.7,1.3,1.2,2,2.4,2C39.7,31.6,38.9,36.1,38,41.7z"/>
<path opacity="0.2" fill="#FFFFFF" enable-background="new    " d="M37.3,40c-0.3,0.9-1.2,1.2-1.9,1.3c-1.7,0.4-2.7,0.4-4.3,0.6
	c0.6-1.9,0.9-3.8,1-5.2c0.1-2.2-0.1-4.1-0.9-5c-1-1.3-4.6-1.7-5.5-0.4c-1,1.4,0.2,5.9,0.2,7.8c0,0.8-0.1,2.2-0.3,3.1
	c-5.9,0-7.7-0.4-11.9-1.6c-0.5-0.2-1-0.3-1.2-1.8c-0.8-6.7-1.5-8.7-2.5-12.8c1.1-0.1,1.6-0.8,2.2-2.1c2.1,3.1,6.6,5.1,10.2,2.8
	c1-0.7,1.9-1.6,2.5-2.8c2.1,3.8,7.5,4.4,10.8,1.9c1-0.7,1.7-1.6,2.3-2.4c0.6,1.3,1.1,1.9,2.3,2C38.9,30.1,38.1,34.5,37.3,40z"/>
<path d="M40.9,6c-1-1.4-2.7-2.1-4.2-2.2c-8.1-0.3-15.5,0.1-23.5,1.3c-1.5,0.3-3.1,1.1-4.2,2.3c-3.6,4.5-5.6,8.9-5.3,12.3
	c0.3,2.3,0.7,4.1,2.6,5.4c0.2,0.1,0.4,0.2,0.6,0.3C8,29.2,9.1,33,9.4,38.9c0.1,1.8,1.6,3.6,3.4,4.1c7.7,2,16,1.7,23.9,0.8
	c1.6-0.2,3.2-2.3,3.5-4.5c1-7.3,2.3-11.2,3.3-14.8c2.2-1.1,2.5-2.7,2.7-4.8c0-0.2,0-0.4,0.1-0.6C46.4,15.9,44.5,11,40.9,6z M37.3,40
	c-0.3,0.9-1.2,1.2-1.9,1.3c-1.7,0.4-2.7,0.4-4.3,0.6c0.6-1.9,0.9-3.8,1-5.2c0.1-2.2-0.1-4.1-0.9-5c-1-1.3-4.6-1.7-5.5-0.4
	c-1,1.4,0.2,5.9,0.2,7.8c0,0.8-0.1,2.2-0.3,3.1c-5.9,0-7.7-0.4-11.9-1.6c-0.5-0.2-1-0.3-1.2-1.8c-0.8-6.7-1.5-8.7-2.5-12.8
	c1.1-0.1,1.6-0.8,2.2-2.1c2.1,3.1,6.6,5.1,10.2,2.8c1-0.7,1.9-1.6,2.5-2.8c2.1,3.8,7.5,4.4,10.8,1.9c1-0.7,1.7-1.6,2.3-2.4
	c0.6,1.3,1.1,1.9,2.3,2C38.9,30.1,38.1,34.5,37.3,40z"/>
</svg>
