<?xml version="1.0" encoding="utf-8"?>
<!-- Generator: Adobe Illustrator 23.0.0, SVG Export Plug-In . SVG Version: 6.00 Build 0)  -->
<svg version="1.0" id="follow_x5F_icon" xmlns="http://www.w3.org/2000/svg" xmlns:xlink="http://www.w3.org/1999/xlink" x="0px"
	 y="0px" width="50px" height="50px" viewBox="0 0 50 50" enable-background="new 0 0 50 50" xml:space="preserve">
<path fill="#FFFFFF" d="M30,14.5c-3.2-0.2-7.9-0.1-8.7,0.1c-0.8,0.2-1.6,0.7-1.9,1.7c-1.1,5.2-0.9,11.6-0.1,16.8
	c0.3,1.8,1.5,2.6,2.7,2.6c2.6-0.1,4-0.3,6.7-0.5c1.3-0.2,2.4-1.2,2.4-2.7c0.1-5.4,0.2-10.8,0.2-16.1C31.5,15.5,30.8,14.5,30,14.5z
	 M28.6,34.5c-1.1,0.1-2.2-0.8-2.2-1.8c0-1,1-1.9,2.1-2c1.2-0.1,2.2,0.7,2.2,1.8C30.7,33.6,29.6,34.4,28.6,34.5z"/>
<path fill="#FFFFFF" d="M43.6,14.5c-3.2-0.2-7.9-0.1-8.7,0.1c-0.8,0.2-1.6,0.7-1.9,1.7C32,21.4,32.2,27.8,32.9,33
	c0.3,1.8,1.5,2.6,2.7,2.6c2.6-0.1,4-0.3,6.7-0.5c1.3-0.2,2.4-1.2,2.4-2.7c0.1-5.4,0.2-10.8,0.2-16.1C45.1,15.5,44.5,14.5,43.6,14.5z
	 M42.2,34.5c-1.1,0.1-2.2-0.8-2.2-1.8c0-1,1-1.9,2.1-2c1.2-0.1,2.2,0.7,2.2,1.8C44.4,33.6,43.3,34.4,42.2,34.5z"/>
<path fill="#FFFFFF" d="M16.3,14.5c-3.2-0.2-7.9-0.1-8.7,0.1c-0.8,0.2-1.6,0.7-1.9,1.7C4.7,21.4,4.9,27.8,5.6,33
	c0.3,1.8,1.5,2.6,2.7,2.6c2.6-0.1,4-0.3,6.7-0.5c1.3-0.2,2.4-1.2,2.4-2.7c0.1-5.4,0.2-10.8,0.2-16.1C17.8,15.5,17.2,14.5,16.3,14.5z
	 M14.9,34.5c-1.1,0.1-2.2-0.8-2.2-1.8c0-1,1-1.9,2.1-2c1.2-0.1,2.2,0.7,2.2,1.8C17.1,33.6,16,34.4,14.9,34.5z"/>
</svg>
