<?xml version="1.0" encoding="utf-8"?>
<!-- Generator: Adobe Illustrator 23.0.0, SVG Export Plug-In . SVG Version: 6.00 Build 0)  -->
<svg version="1.0" id="Layer_1" xmlns="http://www.w3.org/2000/svg" xmlns:xlink="http://www.w3.org/1999/xlink" x="0px" y="0px"
	 viewBox="0 0 50 50" enable-background="new 0 0 50 50" xml:space="preserve">
<g opacity="0.33">
	<path fill="#FFFFFF" d="M35.9,13.4c-3.3,0.4-5.7,2.2-7.2,5c-2.9-1.2-5.9-1-8.7,0.7c-3.9,2.5-5.1,7.2-2.9,10.8
		c1,1.6,2.4,2.8,4.2,3.6c5.2,2.1,11.6,4.5,15.4,7.2c1.2-4.7,4.6-10.3,7.3-15.4c1-1.8,1.3-3.6,1-5.5C44.4,15.7,40.4,12.9,35.9,13.4z"
		/>
	<path opacity="0.75" enable-background="new    " d="M35.9,13.4c-3.3,0.4-5.7,2.2-7.2,5c-2.9-1.2-5.9-1-8.7,0.7
		c-3.9,2.5-5.1,7.2-2.9,10.8c1,1.6,2.4,2.8,4.2,3.6c5.2,2.1,11.6,4.5,15.4,7.2c1.2-4.7,4.6-10.3,7.3-15.4c1-1.8,1.3-3.6,1-5.5
		C44.4,15.7,40.4,12.9,35.9,13.4z"/>
	
		<linearGradient id="SVGID_1_" gradientUnits="userSpaceOnUse" x1="-8144.5283" y1="8214.7705" x2="-8185.7065" y2="8224.2764" gradientTransform="matrix(0.7072 -0.2525 -0.2525 -0.7072 7882.4419 3778.0159)">
		<stop  offset="2.153341e-02" style="stop-color:#CE8014"/>
		<stop  offset="0.2472" style="stop-color:#FBBF0C"/>
		<stop  offset="0.4602" style="stop-color:#FFE067"/>
		<stop  offset="0.7392" style="stop-color:#FBBE0A"/>
		<stop  offset="0.9695" style="stop-color:#CE8014"/>
	</linearGradient>
	<path fill="url(#SVGID_1_)" d="M35.5,14.1c-3,0.3-5.3,2-6.7,4.5c-2.7-1.1-5.5-0.9-8,0.7c-3.6,2.3-4.7,6.5-2.7,10
		c0.9,1.5,2.2,2.6,3.9,3.3c4.8,2,10.6,4.1,14.2,6.7c1.1-4.2,4.3-9.5,6.8-14.1c0.9-1.6,1.1-3.3,0.9-5C43.2,16.2,39.7,13.5,35.5,14.1z
		"/>
	
		<linearGradient id="SVGID_2_" gradientUnits="userSpaceOnUse" x1="-8177.9688" y1="8213.7695" x2="-8150.3779" y2="8236.1123" gradientTransform="matrix(0.7072 -0.2525 -0.2525 -0.7072 7882.4419 3778.0159)">
		<stop  offset="2.694207e-02" style="stop-color:#FFF0C5"/>
		<stop  offset="0.4285" style="stop-color:#FBBE0A"/>
		<stop  offset="0.5765" style="stop-color:#FFF0C5"/>
		<stop  offset="0.8286" style="stop-color:#FBBE0A"/>
		<stop  offset="0.9618" style="stop-color:#FEE9AA"/>
	</linearGradient>
	<path fill="url(#SVGID_2_)" d="M35.5,14.1c-3,0.3-5.3,2-6.7,4.5c-2.7-1.1-5.5-0.9-8,0.7c-3.6,2.3-4.7,6.5-2.7,10
		c0.9,1.5,2.2,2.6,3.9,3.3c4.8,2,10.6,4.1,14.2,6.7c1.1-4.2,4.3-9.5,6.8-14.1c0.9-1.6,1.1-3.3,0.9-5C43.2,16.2,39.7,13.5,35.5,14.1z
		 M42.9,20.6c0.2,1.5-0.1,3.1-0.9,4.6c-2.3,4.3-5.2,9-6.2,12.9c-3.2-2.4-8.6-4.3-13-6c-1.6-0.6-2.7-1.7-3.6-2.9
		c-1.8-3.1-0.7-7,2.5-9c2.3-1.5,4.9-1.7,7.4-0.7c1.3-2.3,3.4-3.8,6.2-4.2C39,14.7,42.3,17,42.9,20.6z"/>
</g>
<g opacity="0.66">
	<path fill="#FFFFFF" d="M32.1,14.3c-3-0.8-5.8,0-8,1.9c-2.1-2-4.8-2.9-7.9-2.3c-4.2,0.9-6.9,4.5-6.2,8.5c0.3,1.8,1.2,3.3,2.5,4.6
		c3.8,3.6,8.6,7.8,11,11.5c2.6-3.7,7.5-7.5,11.6-10.9c1.4-1.2,2.3-2.7,2.7-4.4C38.7,19.1,36.2,15.3,32.1,14.3z"/>
	<path opacity="0.75" enable-background="new    " d="M32.1,14.3c-3-0.8-5.8,0-8,1.9c-2.1-2-4.8-2.9-7.9-2.3
		c-4.2,0.9-6.9,4.5-6.2,8.5c0.3,1.8,1.2,3.3,2.5,4.6c3.8,3.6,8.6,7.8,11,11.5c2.6-3.7,7.5-7.5,11.6-10.9c1.4-1.2,2.3-2.7,2.7-4.4
		C38.7,19.1,36.2,15.3,32.1,14.3z"/>
	
		<linearGradient id="SVGID_3_" gradientUnits="userSpaceOnUse" x1="-8144.5283" y1="8214.7705" x2="-8185.7065" y2="8224.2764" gradientTransform="matrix(0.7016 1.734175e-02 1.734175e-02 -0.7016 5610.7886 5933.6553)">
		<stop  offset="2.153341e-02" style="stop-color:#CE8014"/>
		<stop  offset="0.2472" style="stop-color:#FBBF0C"/>
		<stop  offset="0.4602" style="stop-color:#FFE067"/>
		<stop  offset="0.7392" style="stop-color:#FBBE0A"/>
		<stop  offset="0.9695" style="stop-color:#CE8014"/>
	</linearGradient>
	<path fill="url(#SVGID_3_)" d="M31.4,14.7c-2.7-0.7-5.3,0-7.3,1.7c-2-1.9-4.5-2.6-7.3-2.1c-3.9,0.8-6.3,4.1-5.7,7.8
		c0.3,1.6,1,3,2.3,4.2c3.5,3.3,7.9,7.1,10.1,10.6c2.4-3.3,6.9-6.8,10.6-10.1c1.3-1.1,2.1-2.5,2.5-4.1C37.5,19.2,35.3,15.7,31.4,14.7
		z"/>
	
		<linearGradient id="SVGID_4_" gradientUnits="userSpaceOnUse" x1="-8177.9688" y1="8213.7695" x2="-8150.3779" y2="8236.1123" gradientTransform="matrix(0.7016 1.734175e-02 1.734175e-02 -0.7016 5610.7886 5933.6553)">
		<stop  offset="2.694207e-02" style="stop-color:#FFF0C5"/>
		<stop  offset="0.4285" style="stop-color:#FBBE0A"/>
		<stop  offset="0.5765" style="stop-color:#FFF0C5"/>
		<stop  offset="0.8286" style="stop-color:#FBBE0A"/>
		<stop  offset="0.9618" style="stop-color:#FEE9AA"/>
	</linearGradient>
	<path fill="url(#SVGID_4_)" d="M31.4,14.7c-2.7-0.7-5.3,0-7.3,1.7c-2-1.9-4.5-2.6-7.3-2.1c-3.9,0.8-6.3,4.1-5.7,7.8
		c0.3,1.6,1,3,2.3,4.2c3.5,3.3,7.9,7.1,10.1,10.6c2.4-3.3,6.9-6.8,10.6-10.1c1.3-1.1,2.1-2.5,2.5-4.1C37.5,19.2,35.3,15.7,31.4,14.7
		z M35.7,22.9c-0.4,1.4-1.1,2.7-2.3,3.7c-3.4,2.9-7.6,6.1-9.8,9.2c-2-3.1-6.1-6.6-9.3-9.6c-1.2-1.1-1.8-2.4-2.2-3.8
		c-0.5-3.3,1.7-6.3,5.2-7c2.5-0.5,4.8,0.2,6.7,1.9c1.9-1.6,4.3-2.2,6.8-1.6C34.4,16.5,36.4,19.6,35.7,22.9z"/>
</g>
<g id="XMLID_1_">
	<path fill="#FFFFFF" d="M25.5,14.6c-2.2-1.6-4.7-1.8-7.1-0.9c-1.1-2.3-3.1-3.8-5.7-4.3c-3.7-0.6-7,1.6-7.7,5c-0.3,1.5,0,3,0.6,4.5
		c2,4.1,4.6,9.1,5.4,12.9c3.3-2.2,8.5-3.8,12.9-5.4c1.6-0.6,2.7-1.5,3.6-2.8C29.5,20.6,28.6,16.8,25.5,14.6z"/>
	<path opacity="0.75" enable-background="new    " d="M25.5,14.6c-2.2-1.6-4.7-1.8-7.1-0.9c-1.1-2.3-3.1-3.8-5.7-4.3
		c-3.7-0.6-7,1.6-7.7,5c-0.3,1.5,0,3,0.6,4.5c2,4.1,4.6,9.1,5.4,12.9c3.3-2.2,8.5-3.8,12.9-5.4c1.6-0.6,2.7-1.5,3.6-2.8
		C29.5,20.6,28.6,16.8,25.5,14.6z"/>
	
		<linearGradient id="SVGID_5_" gradientUnits="userSpaceOnUse" x1="-8144.5283" y1="8214.7705" x2="-8185.7065" y2="8224.2764" gradientTransform="matrix(0.5693 0.2324 0.2324 -0.5693 2754.7524 6598.0298)">
		<stop  offset="2.153341e-02" style="stop-color:#CE8014"/>
		<stop  offset="0.2472" style="stop-color:#FBBF0C"/>
		<stop  offset="0.4602" style="stop-color:#FFE067"/>
		<stop  offset="0.7392" style="stop-color:#FBBE0A"/>
		<stop  offset="0.9695" style="stop-color:#CE8014"/>
	</linearGradient>
	<path fill="url(#SVGID_5_)" d="M24.9,14.8c-2-1.4-4.3-1.6-6.5-0.9c-1-2.2-2.9-3.6-5.3-4C9.6,9.4,6.6,11.4,6,14.6
		c-0.2,1.4-0.1,2.8,0.6,4.1c1.8,3.8,4.2,8.3,5,11.8c3-2,7.8-3.5,11.8-4.9c1.4-0.5,2.5-1.4,3.3-2.6C28.5,20.3,27.7,16.7,24.9,14.8z"
		/>
	
		<linearGradient id="SVGID_6_" gradientUnits="userSpaceOnUse" x1="-8177.9688" y1="8213.7695" x2="-8150.3779" y2="8236.1123" gradientTransform="matrix(0.5693 0.2324 0.2324 -0.5693 2754.7524 6598.0298)">
		<stop  offset="2.694207e-02" style="stop-color:#FFF0C5"/>
		<stop  offset="0.4285" style="stop-color:#FBBE0A"/>
		<stop  offset="0.5765" style="stop-color:#FFF0C5"/>
		<stop  offset="0.8286" style="stop-color:#FBBE0A"/>
		<stop  offset="0.9618" style="stop-color:#FEE9AA"/>
	</linearGradient>
	<path fill="url(#SVGID_6_)" d="M24.9,14.8c-2-1.4-4.3-1.6-6.5-0.9c-1-2.2-2.9-3.6-5.3-4C9.6,9.4,6.6,11.4,6,14.6
		c-0.2,1.4-0.1,2.8,0.6,4.1c1.8,3.8,4.2,8.3,5,11.8c3-2,7.8-3.5,11.8-4.9c1.4-0.5,2.5-1.4,3.3-2.6C28.5,20.3,27.7,16.7,24.9,14.8z
		 M25.8,22.8c-0.7,1-1.8,1.9-3.1,2.3c-3.7,1.3-8.1,2.7-10.9,4.5c-0.7-3.2-2.9-7.3-4.6-10.8c-0.6-1.2-0.8-2.5-0.6-3.8
		c0.6-2.9,3.4-4.7,6.5-4.1c2.2,0.4,3.9,1.7,4.9,3.7c2-0.7,4.2-0.5,6,0.8C26.7,17.1,27.5,20.4,25.8,22.8z"/>
</g>
</svg>
