<?xml version="1.0" encoding="utf-8"?>
<!-- Generator: Adobe Illustrator 23.0.0, SVG Export Plug-In . SVG Version: 6.00 Build 0)  -->
<svg version="1.0" id="Layer_1" xmlns="http://www.w3.org/2000/svg" xmlns:xlink="http://www.w3.org/1999/xlink" x="0px" y="0px"
	 width="50px" height="50px" viewBox="0 0 50 50" enable-background="new 0 0 50 50" xml:space="preserve">
<path fill="#FFFFFF" d="M47.5,19.9c-0.2,0.3-0.3,0.6-0.5,0.8c-2.6,3.2-5.6,6.8-9.2,9.9c-0.4,0.4-0.7,0.8-0.5,1.4
	c0.9,4.9,1.1,9.4,1.1,13.5c0,0.2-0.1,0.4-0.2,0.5c-0.2,0-0.4,0-0.5-0.1c-4-1.7-7.9-3.4-12.2-5.8c-0.4-0.2-0.6-0.2-1,0
	C21.1,42,18,43.5,15,44.9c-0.9,0.4-1.8,0.8-2.7,1.2c-0.5,0.2-0.7,0.1-0.7-0.4c0-3.7,0.1-7.6,0.9-11.9c0-0.2,0-0.5,0.1-0.7
	c0.5-1.3-0.1-2-1.1-3c-3.2-3.2-6-6.5-8.4-9.2c-0.2-0.2-0.4-0.5-0.6-0.9c0.8-0.3,1.6-0.7,2.6-0.9c3.4-0.8,7.4-1.5,11.6-2.1
	c0.3,0,0.6-0.3,0.7-0.6c0.9-1.9,1.7-3.7,2.7-5.4c1.5-2.6,3.1-4.9,4.5-6.9C24.7,4,24.9,3.9,25,3.8c0.2,0.1,0.4,0.2,0.5,0.3
	c1.5,2,3.1,4.4,4.7,7.1c0.9,1.6,1.7,3.3,2.5,5.1c0.2,0.4,0.5,0.6,0.9,0.7c3.4,0.5,6.6,1,9.3,1.6c1.6,0.4,3.1,0.9,4.4,1.3
	C47.3,19.8,47.4,19.8,47.5,19.9z"/>
</svg>
