<?xml version="1.0" encoding="utf-8"?>
<!-- Generator: Adobe Illustrator 23.0.0, SVG Export Plug-In . SVG Version: 6.00 Build 0)  -->
<svg version="1.0" id="follow_x5F_icon" xmlns="http://www.w3.org/2000/svg" xmlns:xlink="http://www.w3.org/1999/xlink" x="0px"
	 y="0px" width="50px" height="50px" viewBox="0 0 50 50" enable-background="new 0 0 50 50" xml:space="preserve">
<path fill="#FFFFFF" d="M23.6,26.3c-3.5-0.2-5.7-3.7-6.1-8c-0.4-4.3,2.1-8.4,6.3-8.4c4.3,0,6.8,3.5,6.5,8
	C30,22.8,27.1,26.3,23.6,26.3z M23.5,40.2c-10.8-1.5-10.4-4.1-10.3-5.9c0.2-1.7,2.7-3,5.1-4.7c3.9-2.7,11.5-0.2,16,4.4
	c0.3,0.3,0.9,1.5,0.8,2.1c-0.2,0.6-0.4,1.2-0.9,1.5C31.2,39.3,27.4,40.5,23.5,40.2L23.5,40.2z M44.3,33.9c-3.1-3.1-7.7-5.1-11.3-4.9
	c1.3,0.8,2.4,1.8,3.5,2.8c0.7,0.7,2.1,3,1.5,5c-0.1,0.4-0.5,1.7-1.5,2.6c2.8-0.1,5.5-1.1,7.7-2.3c0.5-0.3,0.7-0.8,0.8-1.4
	C45.1,35.3,44.6,34.2,44.3,33.9z M33.3,18c-0.2,2.7-1,5.1-2.3,7c0.9,1.2,2.1,2,3.6,2c3.1,0,5.7-3.1,6-7.6c0.3-4.1-2-7.2-5.8-7.2
	c-0.9,0-1.6,0.2-2.3,0.6C33.2,14.4,33.4,16.2,33.3,18z M14.9,14.6c-0.5-0.1-1-0.2-1.5-0.2c-3.3,0.1-5.2,3.3-4.9,6.6
	c0.3,3.4,2,6.1,4.7,6.2c1.4,0,2.7-0.7,3.7-2c-1.2-1.8-2-4.1-2.2-6.8C14.5,17.2,14.6,15.9,14.9,14.6z M10.2,34.2l0-0.3
	c0.2-2.2,1.8-3.6,3.5-4.9c-1.8-0.3-3.6-0.2-4.8,0.7c-1.9,1.3-3.9,2.3-4,3.7c-0.1,1.3-0.3,3,5.9,4.2C10.4,36.7,10.2,35.5,10.2,34.2z"
	/>
</svg>
