<?xml version="1.0" encoding="utf-8"?>
<!-- Generator: Adobe Illustrator 23.0.0, SVG Export Plug-In . SVG Version: 6.00 Build 0)  -->
<svg version="1.0" id="Layer_1" xmlns="http://www.w3.org/2000/svg" xmlns:xlink="http://www.w3.org/1999/xlink" x="0px" y="0px"
	 width="50px" height="50px" viewBox="0 0 50 50" enable-background="new 0 0 50 50" xml:space="preserve">
<path fill="#FFFFFF" d="M25,25c0,4.4,0,8.9,0,13.3c0,1.5-1,2.5-2.4,2.4c-0.6,0-1.1-0.4-1.5-0.8c-2.6-2.6-5.2-5.2-7.8-7.8
	c-0.2-0.2-0.5-0.3-0.8-0.3c-1.7,0-3.4,0-5.1,0c-1.5,0-2.4-0.9-2.4-2.5c0-2.8,0-5.7,0-8.5c0-1.6,0.9-2.5,2.5-2.5c1.7,0,3.4,0,5.1,0
	c0.3,0,0.5-0.1,0.7-0.3c2.6-2.6,5.2-5.3,7.9-7.9c1.1-1.1,2.7-1,3.5,0.2c0.3,0.4,0.4,0.9,0.4,1.5C25,16.2,25,20.6,25,25z"/>
<g>
	<path fill="#FFFFFF" d="M45,26.5c-0.1,4.6-2.2,9.9-6.4,14.3c-0.6,0.7-1.4,0.9-2.3,0.6c-0.8-0.3-1.4-0.9-1.5-1.7
		c-0.2-0.8,0.1-1.5,0.7-2.1c1.3-1.4,2.4-2.9,3.3-4.7c3.3-6.6,2-14.9-3-20.2c-0.5-0.5-0.9-1-1-1.7c-0.1-1,0.4-1.9,1.2-2.3
		c0.9-0.4,1.9-0.2,2.6,0.5c1.9,1.9,3.3,4,4.4,6.4C44.3,18.6,45,21.7,45,26.5z"/>
	<path fill="#FFFFFF" d="M36.1,25c-0.1,3.6-1.3,6.8-3.8,9.4c-0.9,1-2.3,1-3.2,0.2c-0.9-0.9-0.9-2.3,0-3.2c3.4-3.7,3.4-8.9,0-12.6
		c-0.9-1-0.9-2.4,0-3.3c0.9-0.9,2.3-0.8,3.2,0.2C34.8,18.3,36.1,21.4,36.1,25z"/>
</g>
</svg>
