<?xml version="1.0" encoding="utf-8"?>
<!-- Generator: Adobe Illustrator 23.0.0, SVG Export Plug-In . SVG Version: 6.00 Build 0)  -->
<svg version="1.0" id="Layer_1" xmlns="http://www.w3.org/2000/svg" xmlns:xlink="http://www.w3.org/1999/xlink" x="0px" y="0px"
	 viewBox="0 0 50 50" enable-background="new 0 0 50 50" xml:space="preserve">
<polygon fill="#3C58BF" points="19,31.5 21.3,18.6 24.9,18.6 22.6,31.5 "/>
<polygon fill="#293688" points="19,31.5 21.9,18.6 24.9,18.6 22.6,31.5 "/>
<path fill="#3C58BF" d="M35.6,18.8c-0.7-0.3-1.9-0.6-3.3-0.6c-3.6,0-6.1,1.8-6.1,4.4c0,1.9,1.8,2.9,3.2,3.6c1.4,0.6,1.9,1.1,1.9,1.6
	c0,0.9-1.1,1.3-2.1,1.3c-1.4,0-2.2-0.2-3.4-0.7l-0.5-0.2L24.6,31c0.9,0.4,2.4,0.7,4.1,0.7c3.8,0,6.3-1.8,6.3-4.5
	c0-1.5-0.9-2.6-3.1-3.6c-1.3-0.6-2.1-1-2.1-1.6c0-0.6,0.6-1.1,2.1-1.1c1.2,0,2.1,0.2,2.7,0.5l0.4,0.1L35.6,18.8L35.6,18.8z"/>
<path fill="#293688" d="M35.6,18.8c-0.7-0.3-1.9-0.6-3.3-0.6c-3.6,0-5.5,1.8-5.5,4.4c0,1.9,1.1,2.9,2.6,3.6c1.4,0.6,1.9,1.1,1.9,1.6
	c0,0.9-1.1,1.3-2.1,1.3c-1.4,0-2.2-0.2-3.4-0.7l-0.5-0.2L24.6,31c0.9,0.4,2.4,0.7,4.1,0.7c3.8,0,6.3-1.8,6.3-4.5
	c0-1.5-0.9-2.6-3.1-3.6c-1.3-0.6-2.1-1-2.1-1.6c0-0.6,0.6-1.1,2.1-1.1c1.2,0,2.1,0.2,2.7,0.5l0.4,0.1L35.6,18.8L35.6,18.8z"/>
<path fill="#3C58BF" d="M41.7,18.6c-0.9,0-1.5,0.1-1.9,0.9l-5.4,11.9h3.9l0.7-2.1h4.6l0.4,2.1h3.4l-3-12.9H41.7z M40.1,27.2
	c0.2-0.6,1.4-3.8,1.4-3.8s0.3-0.8,0.5-1.3l0.2,1.2c0,0,0.7,3.2,0.9,3.9L40.1,27.2L40.1,27.2z"/>
<path fill="#293688" d="M42.6,18.6c-0.9,0-1.5,0.1-1.9,0.9l-6.2,11.9h3.9l0.7-2.1h4.6l0.4,2.1h3.4l-3-12.9H42.6z M40.1,27.2
	c0.3-0.7,1.4-3.8,1.4-3.8s0.3-0.8,0.5-1.3l0.2,1.2c0,0,0.7,3.2,0.9,3.9L40.1,27.2L40.1,27.2z"/>
<path fill="#3C58BF" d="M12.4,27.6l-0.4-1.9c-0.6-2.1-2.7-4.5-5-5.6l3.2,11.4h3.9l5.8-12.9h-3.9L12.4,27.6z"/>
<path fill="#293688" d="M12.4,27.6l-0.4-1.9c-0.6-2.1-2.7-4.5-5-5.6l3.2,11.4h3.9l5.8-12.9h-3.1L12.4,27.6z"/>
<path fill="#FFBC00" d="M2.5,18.6l0.6,0.1c4.6,1.1,7.7,3.8,8.9,7l-1.3-6.1c-0.2-0.9-0.9-1.1-1.6-1.1H2.5z"/>
<path fill="#F7981D" d="M2.5,18.6L2.5,18.6c4.6,1.1,8.4,3.9,9.6,7.1l-1.2-5.1c-0.2-0.9-0.9-1.4-1.7-1.4L2.5,18.6z"/>
<path fill="#ED7C00" d="M2.5,18.6L2.5,18.6c4.6,1.1,8.4,3.9,9.6,7.1l-0.9-2.8c-0.2-0.9-0.5-1.7-1.5-2.1L2.5,18.6z"/>
<g>
	<path fill="#051244" d="M16,27.2l-2.4-2.4l-1.1,2.7l-0.3-1.8c-0.6-2.1-2.7-4.5-5-5.6l3.2,11.4h3.9L16,27.2z"/>
	<polygon fill="#051244" points="22.6,31.5 19.6,28.3 19,31.5 	"/>
	<path fill="#051244" d="M30.9,27L30.9,27c0.3,0.3,0.4,0.5,0.4,0.8c0,0.9-1.1,1.3-2.1,1.3c-1.4,0-2.2-0.2-3.4-0.7l-0.5-0.2l-0.5,2.9
		c0.9,0.4,2.4,0.7,4.1,0.7c2.3,0,4.1-0.6,5.2-1.8L30.9,27z"/>
	<path fill="#051244" d="M35,31.5h3.4l0.7-2.1h4.6l0.4,2.1h3.4l-1.2-5.2L42,22.1l0.2,1.1c0,0,0.7,3.2,0.9,3.9h-3
		c0.3-0.7,1.4-3.8,1.4-3.8s0.3-0.8,0.5-1.3"/>
</g>
</svg>
