<?xml version="1.0" encoding="utf-8"?>
<!-- Generator: Adobe Illustrator 23.0.0, SVG Export Plug-In . SVG Version: 6.00 Build 0)  -->
<svg version="1.0" id="Layer_1" xmlns="http://www.w3.org/2000/svg" xmlns:xlink="http://www.w3.org/1999/xlink" x="0px" y="0px"
	 width="50px" height="50px" viewBox="0 0 50 50" enable-background="new 0 0 50 50" xml:space="preserve">
<path fill="#FFFFFF" d="M25,25c0,4.4,0,8.9,0,13.3c0,1.5-1,2.5-2.4,2.4c-0.6,0-1.1-0.4-1.5-0.8c-2.6-2.6-5.2-5.2-7.8-7.8
	c-0.2-0.2-0.5-0.3-0.8-0.3c-1.7,0-3.4,0-5.1,0c-1.5,0-2.4-0.9-2.4-2.5c0-2.8,0-5.7,0-8.5c0-1.6,0.9-2.5,2.5-2.5c1.7,0,3.4,0,5.1,0
	c0.3,0,0.5-0.1,0.7-0.3c2.6-2.6,5.2-5.3,7.9-7.9c1.1-1.1,2.7-1,3.5,0.2c0.3,0.4,0.4,0.9,0.4,1.5C25,16.2,25,20.6,25,25z"/>
<path fill="#FFFFFF" d="M44.5,30.2L39.3,25l5.1-5.2c0.7-0.7,0.7-1.9,0-2.7c-0.7-0.7-1.9-0.7-2.6,0l-5.1,5.2l-5.1-5.2
	c-0.7-0.7-1.9-0.7-2.6,0c-0.7,0.7-0.7,1.9,0,2.7l5.1,5.2L29,30.2c-0.4,0.4-0.5,0.8-0.5,1.3s0.2,1,0.5,1.3c0.7,0.7,1.9,0.7,2.6,0
	l5.1-5.2l5.1,5.2c0.4,0.4,0.8,0.5,1.3,0.5s1-0.2,1.3-0.5C45.2,32.1,45.2,30.9,44.5,30.2z"/>
</svg>
