<?xml version="1.0" encoding="utf-8"?>
<!-- Generator: Adobe Illustrator 23.0.0, SVG Export Plug-In . SVG Version: 6.00 Build 0)  -->
<svg version="1.0" id="follow_x5F_icon" xmlns="http://www.w3.org/2000/svg" xmlns:xlink="http://www.w3.org/1999/xlink" x="0px"
	 y="0px" width="50px" height="50px" viewBox="0 0 50 50" enable-background="new 0 0 50 50" xml:space="preserve">
<g>
	<g id="sa7_icon_1_" transform="translate(6 7)">
		<path id="sa7_1_" fill="#2FBB06" d="M15.9,11.3c0.7-1.5,1.2-2.2,2-3.7c1.8,1.5,2.7,2.2,4.2,3.7c3-4.4,4.8-6.6,9.4-11.1
			c1.2,1.1,1.7,1.6,2.7,2.6c-4.3,4.3-8.7,9.5-11.7,14.8C20.3,15.1,19,13.9,15.9,11.3z"/>
	</g>
</g>
<g>
	<g id="sa7_icon_2_" transform="translate(6 7)">
		<g>
			<path opacity="0.25" enable-background="new    " d="M21.4,18.6c-0.8-0.9-5.8-5.6-6.4-6.1s-0.9-0.8-0.4-1.8
				c0.4-0.7,0.8-1.7,1.2-2.4c0.2-0.4,0.4-0.8,0.8-1.4c1-1.5,1.9-0.8,2.3-0.4s0.8,0.6,0.8,0.6c0.9,0.7,1.5,1.3,2.3,1.9
				c1-1.4,1.9-2.6,2.8-3.7c-0.3-1.1-0.6-2.2-0.8-3.2c-0.4-1.5-1.7-3-3.1-2.7C19.4-0.4,9,1.8,7.3,2.3S5,3.9,5,5.4
				c0,3.3,3.1,17.9,6.4,29.4c0.7,2.5,3.3,4,5.6,2.9c2.3-1.1,8.8-3.6,11.1-4.7c2.3-1.1,3.9-3.6,3.3-5.3c-1.8-5.5-3.2-10.2-4.4-14.2
				c-1.4,1.8-2.5,3.6-3.2,4.9C23.3,19.4,22.7,20.1,21.4,18.6z"/>
		</g>
		<path id="sa7_2_" fill="#2FBB06" d="M15.9,11.3c0.7-1.5,1.2-2.2,2-3.7c1.8,1.5,2.7,2.2,4.2,3.7c3-4.4,4.8-6.6,9.4-11.1
			c1.2,1.1,1.7,1.6,2.7,2.6c-4.3,4.3-8.7,9.5-11.7,14.8C20.3,15.1,19,13.9,15.9,11.3z"/>
	</g>
</g>
<g>
	<path fill="none" d="M27.6,36.8c0.4,1.6,2.6,2.6,4.4,1.8c1.8-0.8,3.2-2.7,2.7-4.4c-0.4-1.7-2.5-2.6-4.4-1.8
		C28.4,33.2,27.2,35.2,27.6,36.8z"/>
	<path fill="#FFFFFF" d="M27.4,25.6c-0.8-0.9-5.8-5.6-6.4-6.1s-0.9-0.8-0.4-1.8c0.4-0.7,0.8-1.7,1.2-2.4c0.2-0.4,0.4-0.8,0.8-1.4
		c1-1.5,1.9-0.8,2.3-0.4s0.8,0.6,0.8,0.6c0.9,0.7,1.5,1.3,2.3,1.9c0.7-0.9,1.3-1.8,1.9-2.6c-0.5-1.9-1-3.8-1.5-5.7
		C28,6.2,26.7,4.8,25.4,5c-5.1,0.7-12.3,2.4-13.5,3c-1.2,0.5-2.2,1.7-2.2,3.5c0,5.1,4.9,26.2,6.2,29.3c1.3,3.1,3.4,3.8,5.6,3.1
		c4.4-1.5,6.6-2.7,11.1-4.4c2.1-1.1,3.4-3.1,2.7-5.6c-0.4-1.4-1.7-6.2-3.3-12.1c-0.9,1.3-1.7,2.6-2.2,3.6
		C29.3,26.4,28.7,27.1,27.4,25.6z M34.7,34.2c0.5,1.7-0.9,3.6-2.7,4.4c-1.8,0.8-4-0.2-4.4-1.8c-0.4-1.6,0.8-3.6,2.7-4.4
		C32.2,31.6,34.3,32.5,34.7,34.2z"/>
</g>
</svg>
