<?xml version="1.0" encoding="utf-8"?>
<!-- Generator: Adobe Illustrator 23.0.0, SVG Export Plug-In . SVG Version: 6.00 Build 0)  -->
<svg version="1.0" id="Layer_1" xmlns="http://www.w3.org/2000/svg" xmlns:xlink="http://www.w3.org/1999/xlink" x="0px" y="0px"
	 width="50px" height="50px" viewBox="0 0 50 50" enable-background="new 0 0 50 50" xml:space="preserve">
<path fill="#FFFFFF" d="M28.9,6.5c0.5,0.2,1,0.5,1,1.2c0,1.1-0.1,2.3-0.7,3.3c-0.5,0.9-1.5,1.3-2.5,1.3c-1.1,0.1-2.3,0-3.4,0
	c-0.7,0-1.3-0.4-1.8-0.8c-0.4-0.3-0.6-0.7-0.7-1.2c-0.1-0.7-0.3-1.3-0.4-2c-0.1-0.9,0.1-1.3,1-1.7C23.8,6.5,26.3,6.5,28.9,6.5z"/>
<path fill="#FFFFFF" d="M30.8,9.7c1.4,0.6,2.3,1.6,2.7,3.1c0.3,0.9,0.1,1.8,0,2.7c-0.3,2.8-0.7,5.6-1,8.3c-0.1,0.8-0.5,1.3-1.1,1.7
	c-1,0.7-2.1,1.1-3.3,1.2c-2.1,0.2-4.2,0.2-6.3-0.1c-1.2-0.2-2.4-0.6-3.4-1.5c-0.4-0.4-0.7-0.9-0.7-1.4c-0.4-3.2-0.8-6.3-1.2-9.5
	c-0.2-1.9,1.1-4.1,2.9-4.6c0,0.1,0.1,0.2,0.1,0.3c0.3,1.8,1.4,2.7,3,3.2c0.5,0.1,1,0.2,1.6,0.2c1.1,0,2.2,0,3.3-0.1
	c0.9-0.1,1.8-0.6,2.4-1.3C30.4,11.3,30.7,10.6,30.8,9.7z"/>
<path fill="#FFFFFF" d="M35.9,25.4c-0.4,0.6-0.7,1.2-0.9,1.9c-0.2,0.7-0.2,1.3,0.2,2c0.3,0.5,0.5,1.1,0.6,1.7c0.2,1.2-0.7,2.5-2,2.7
	c-1,0.2-2,0.2-3,0.3c-4.2,0.2-8.4,0.2-12.6-0.1c-0.6,0-1.2-0.1-1.8-0.2c-1.5-0.3-2.4-1.7-2-3.2c0.1-0.5,0.3-0.9,0.5-1.4
	c0.2-0.5,0.3-0.9,0.2-1.5c-0.2-0.8-0.5-1.5-1-2.2c-0.1,0.1-0.2,0.1-0.2,0.1c-1.2,0.9-2.5,0.9-3.9,0.3c-0.9-0.4-1.2-1.4-0.9-2.3
	c0.2-0.4,0.5-0.6,1-0.6c1.1,0,2.2,0,3.4,0c0.4,0,0.7,0.2,0.9,0.5c0.9,1.3,1.9,2.7,2.8,4c0.1,0.1,0.3,0.3,0.5,0.3
	c2,0.3,3.9,0.6,5.9,0.8c1.8,0.2,3.6,0,5.4-0.3c1.1-0.2,2.2-0.4,3.2-0.5c0.3,0,0.4-0.1,0.6-0.4c0.9-1.3,1.9-2.6,2.8-3.9
	c0.3-0.4,0.6-0.5,1-0.5c1,0,2.1,0,3.1,0c0.8,0,1.1,0.4,1.1,1.2c0,1.4-0.8,2.1-2.4,2.2C37.6,26.3,36.7,26.1,35.9,25.4z"/>
<path fill="#FFFFFF" d="M31.4,41c-1.8-0.5-3.5-1-5.3-1.4C26,39.8,26,40,26.3,40.3c0.8,0.7,0.8,1.9,0.1,2.6c-0.7,0.7-1.9,0.7-2.6,0
	C23,42.2,23,41,23.8,40.3c0.3-0.2,0.3-0.5,0.2-0.8c-1.8,0.5-3.5,1-5.2,1.4c0,0.3,0,0.6,0,0.9c-0.1,0.9-0.9,1.6-1.7,1.7
	c-1.1,0-1.9-0.5-2.1-1.5c-0.2-0.9,0.3-1.8,1.2-2.2c1.9-0.8,3.8-1.5,5.7-2.3c0.6-0.2,1.1-0.5,1.7-0.7c0.2-0.1,0.2-0.2,0.2-0.3
	c0-0.4-0.1-0.8-0.1-1.3c0.9,0,1.8,0,2.7,0c0,0.4,0,0.8-0.1,1.2c0,0.3,0,0.4,0.3,0.5c2.4,1,4.8,1.9,7.3,2.9c0.9,0.4,1.4,1.3,1.2,2.2
	c-0.2,0.9-1,1.6-2,1.5c-1.1-0.1-1.9-1.1-1.8-2.2C31.3,41.2,31.3,41.1,31.4,41z"/>
</svg>
