<?xml version="1.0" encoding="utf-8"?>
<!-- Generator: Adobe Illustrator 23.0.0, SVG Export Plug-In . SVG Version: 6.00 Build 0)  -->
<svg version="1.0" id="Layer_1" xmlns="http://www.w3.org/2000/svg" xmlns:xlink="http://www.w3.org/1999/xlink" x="0px" y="0px"
	 width="50px" height="50px" viewBox="0 0 50 50" enable-background="new 0 0 50 50" xml:space="preserve">
<path fill="#FFFFFF" d="M25,45c-4.4,0-8.7,0-13.1,0c-3.2,0-5.9-2.1-6.7-5.2C5.1,39.2,5,38.6,5,38.1c0-8.7,0-17.4,0-26.1
	C5,8,8,5,11.9,5c8.7,0,17.4,0,26.1,0c3.9,0,6.9,3,6.9,6.9c0,8.7,0,17.4,0,26.1c0,3.9-3.1,6.9-6.9,6.9C33.7,45,29.3,45,25,45z M20,25
	c0,2,0,4,0,6.1c0,0.6,0.2,1,0.7,1.3c0.5,0.3,1,0.1,1.5-0.2c2.8-2,5.6-4,8.4-6c0.9-0.7,0.9-1.6,0-2.3c-2.8-2-5.6-4-8.4-6
	c-0.5-0.3-0.9-0.5-1.5-0.2c-0.5,0.3-0.7,0.7-0.7,1.3C20,21,20,23,20,25z M20.9,12.5c0.3,0,0.7,0,1,0c1,0,1.8-0.8,1.8-1.8
	c0-1-0.7-1.9-1.8-1.9c-0.7,0-1.4,0-2.1,0c-1,0.1-1.8,0.9-1.8,1.9c0,1,0.8,1.8,1.8,1.9C20.3,12.5,20.6,12.5,20.9,12.5z M29.1,37.5
	c-0.3,0-0.7,0-1,0c-1,0-1.8,0.8-1.8,1.9c0,1,0.8,1.8,1.8,1.9c0.7,0,1.3,0,2,0c1,0,1.8-0.9,1.8-1.9c0-1-0.8-1.8-1.9-1.8
	C29.7,37.5,29.4,37.5,29.1,37.5z M37.2,12.5c0.3,0,0.7,0,1,0c1,0,1.8-0.9,1.8-1.9c0-1-0.8-1.8-1.8-1.9c-0.7,0-1.3,0-2,0
	c-1,0-1.8,0.9-1.8,1.9c0,1,0.8,1.8,1.8,1.8C36.5,12.5,36.9,12.5,37.2,12.5z M21,37.5c-0.3,0-0.7,0-1,0c-1,0-1.8,0.8-1.8,1.9
	c0,1,0.8,1.8,1.8,1.9c0.7,0,1.3,0,2,0c1,0,1.8-0.9,1.8-1.9c0-1-0.8-1.8-1.8-1.9C21.6,37.5,21.3,37.5,21,37.5z M37.2,37.5
	c-0.3,0-0.6,0-1,0c-1.1,0-1.8,0.8-1.9,1.8c0,1,0.8,1.9,1.8,1.9c0.7,0,1.4,0,2,0c1,0,1.8-0.9,1.8-1.9c0-1-0.8-1.8-1.9-1.8
	C37.8,37.5,37.5,37.5,37.2,37.5z M12.8,12.5c0.3,0,0.6,0,1,0c1,0,1.8-0.8,1.8-1.9c0-1-0.8-1.8-1.8-1.9c-0.7,0-1.3,0-2,0
	c-1,0-1.8,0.9-1.8,1.9c0,1,0.8,1.8,1.8,1.8C12.2,12.5,12.5,12.5,12.8,12.5z M29.1,12.5c0.3,0,0.7,0,1,0c1,0,1.8-0.8,1.8-1.8
	c0-1-0.8-1.9-1.8-1.9c-0.7,0-1.4,0-2,0c-1,0-1.8,0.9-1.8,1.9c0,1,0.8,1.8,1.8,1.8C28.4,12.5,28.7,12.5,29.1,12.5z M12.8,41.3
	C12.8,41.3,12.8,41.3,12.8,41.3c0.3,0,0.7,0,1,0c1-0.1,1.8-0.9,1.8-1.9c0-1-0.8-1.8-1.8-1.9c-0.7,0-1.3,0-2,0c-1,0-1.7,0.8-1.8,1.8
	c-0.1,0.9,0.6,1.8,1.5,1.9C11.9,41.3,12.4,41.3,12.8,41.3z"/>
</svg>
