<?xml version="1.0" encoding="utf-8"?>
<!-- Generator: Adobe Illustrator 23.0.0, SVG Export Plug-In . SVG Version: 6.00 Build 0)  -->
<svg version="1.0" id="Layer_1" xmlns="http://www.w3.org/2000/svg" xmlns:xlink="http://www.w3.org/1999/xlink" x="0px" y="0px"
	 viewBox="0 0 50 50" enable-background="new 0 0 50 50" xml:space="preserve">
<path fill="#FFFFFF" d="M25,45c-3.1,0-6.2,0-9.3,0c-4.7,0-9-3.3-10.3-7.8C5.1,36.1,5,35,5,33.9C5,27.9,5,22,5,16
	c0-4.4,2.1-7.7,6-9.8C12.5,5.4,14.1,5,15.8,5C22,5,28.1,5,34.3,5c4.7,0,8.9,3.3,10.2,7.7c0.3,1,0.5,2.1,0.5,3.2c0,6.1,0,12.2,0,18.3
	c0,4.6-3.2,8.9-7.6,10.3c-1.1,0.3-2.2,0.5-3.3,0.5C31,45,28,45,25,45z M27.6,25.3c0-0.3,0-0.5,0-0.8c-0.2-3.2-2.1-5.1-5.1-5.3
	c-2.5-0.1-4.5,1.2-5.2,3.5c-0.5,1.6-0.5,3.3-0.1,4.9c0.6,2,1.9,3.2,4,3.6c2.2,0.4,4.3-0.4,5.4-2.2C27.4,27.9,27.7,26.6,27.6,25.3z
	 M36.5,22.5c0.6,0,1.1,0,1.7,0c-0.1-1.2-0.6-2.1-1.6-2.6c-1.7-0.9-3.5-0.9-5.2,0c-1.2,0.7-1.6,1.8-1.5,3.2c0.1,1.2,0.9,2,2,2.4
	c0.6,0.2,1.2,0.3,1.9,0.5s1.4,0.3,2,0.7c1.1,0.6,1.1,1.9,0.1,2.6c-1.5,1-3.8,0.4-4.6-1.3c-0.6,0-1.1,0-1.7,0
	c0.1,0.3,0.1,0.6,0.2,0.9c0.4,1.1,1.1,1.8,2.2,2.1c1.8,0.6,3.6,0.5,5.2-0.6c1.6-1.1,2-4.5-0.6-5.5c-0.5-0.2-1-0.3-1.5-0.5
	c-0.8-0.2-1.6-0.4-2.5-0.7c-0.5-0.2-0.9-0.6-0.9-1.2c0-0.7,0.3-1.1,0.8-1.4C34,20.3,35.9,20.9,36.5,22.5z M12,31c0.6,0,1.1,0,1.7,0
	c0-2.9,0-5.8,0-8.6c-0.6,0-1.1,0-1.7,0C12,25.2,12,28.1,12,31z M12.8,20.8c0.6,0,1.1-0.5,1.1-1c0-0.6-0.5-1-1.1-1s-1.1,0.5-1.1,1
	S12.2,20.8,12.8,20.8z"/>
<path fill="#FFFFFF" d="M25.9,25.3c-0.1,1-0.2,2-0.8,2.8c-0.7,1.2-1.8,1.6-3.1,1.6c-1.3-0.1-2.2-0.7-2.7-1.8c-0.8-1.7-0.8-3.4,0-5
	c0.7-1.4,1.8-2,3.3-1.9c1.4,0.1,2.4,0.9,2.8,2.2C25.7,23.8,25.8,24.5,25.9,25.3z"/>
</svg>
