<?xml version="1.0" encoding="utf-8"?>
<!-- Generator: Adobe Illustrator 23.0.0, SVG Export Plug-In . SVG Version: 6.00 Build 0)  -->
<svg version="1.0" id="Layer_1" xmlns="http://www.w3.org/2000/svg" xmlns:xlink="http://www.w3.org/1999/xlink" x="0px" y="0px"
	 viewBox="0 0 50 50" enable-background="new 0 0 50 50" xml:space="preserve">
<path fill="#FFFFFF" d="M20.5,45c-0.8-0.2-1.5-0.6-1.8-1.4c-0.2-0.4-0.3-0.9-0.3-1.4c0-1.7,0-3.4,0-5.1c0-0.2,0-0.3,0-0.5
	c-0.6,0-1.1,0-1.6,0c-1.1,0-1.7-0.6-1.7-1.7c0-5.5,0-10.9,0-16.4c0-0.1,0-0.1,0-0.2c6.7,0,13.3,0,20,0c0,0.1,0,0.3,0,0.4
	c0,5.4,0,10.7,0,16.1c0,0.4-0.1,0.9-0.3,1.2c-0.2,0.5-0.7,0.7-1.2,0.7c-0.6,0-1.1,0-1.8,0c0,0.2,0,0.3,0,0.5c0,1.6,0,3.2,0,4.8
	c0,1.5-0.5,2.6-2.2,3.1c-0.2,0-0.5,0-0.7,0c-1.7-0.5-2.2-1.6-2.2-3.1c0-1.6,0-3.2,0-4.8c0-0.1,0-0.3,0-0.4c-1.1,0-2.2,0-3.3,0
	c0,0.2,0,0.3,0,0.5c0,1.7,0,3.4,0,5c0,0.5-0.1,1-0.3,1.4c-0.3,0.8-1,1.2-1.8,1.4C20.9,45,20.7,45,20.5,45z M30.9,8.6
	c0.7-0.7,1.4-1.4,2-2c0.2-0.2,0.4-0.5,0.3-0.8C33.2,5.4,33,5.2,32.7,5c-0.4-0.1-0.6,0-0.9,0.3c-0.7,0.6-1.3,1.3-1.9,1.9
	c-0.3,0.3-0.5,0.3-0.8,0.2c-2.7-1.1-5.4-1.1-8.1,0c-0.3,0.1-0.5,0.1-0.8-0.2c-0.6-0.7-1.3-1.3-1.9-1.9c-0.4-0.4-0.9-0.5-1.3-0.1
	c-0.3,0.4-0.3,0.8,0.1,1.2c0.7,0.7,1.4,1.4,2.1,2.1c-1.3,0.9-2.3,2.1-3.1,3.5C15.4,13.5,15,15,15,16.6c6.7,0,13.3,0,20,0
	C34.9,13.2,33.6,10.6,30.9,8.6z M19.6,12.5c0-1,0.8-1.8,1.7-1.8c0.9,0,1.7,0.8,1.7,1.7c0,0.9-0.7,1.7-1.7,1.7
	C20.4,14.1,19.6,13.4,19.6,12.5z M27,12.5c0-1,0.8-1.8,1.7-1.7c0.9,0,1.7,0.8,1.7,1.7c0,0.9-0.8,1.7-1.7,1.7
	C27.8,14.1,27,13.4,27,12.5z M13.3,21.1c0-0.3,0-0.6-0.1-0.8c-0.3-1.2-1.5-2.1-2.7-1.9c-1.3,0.1-2.3,1.2-2.3,2.6c0,3.9,0,7.7,0,11.6
	c0,1.6,1.4,2.7,2.9,2.5c1.2-0.2,2.1-1.3,2.1-2.6c0-1.9,0-3.8,0-5.7C13.3,24.8,13.3,22.9,13.3,21.1z M36.7,26.6c0,2,0,4,0,6
	c0,1.3,1.1,2.3,2.4,2.4c1.2,0.1,2.4-0.9,2.5-2.2c0.1-1.3,0.1-2.5,0.1-3.8c0-2.7,0-5.4,0-8c0-1.9-1.7-3.1-3.3-2.5
	c-1,0.4-1.6,1.3-1.7,2.5C36.7,22.8,36.7,24.7,36.7,26.6C36.7,26.6,36.7,26.6,36.7,26.6z"/>
</svg>
