<?xml version="1.0" encoding="utf-8"?>
<!-- Generator: Adobe Illustrator 23.0.0, SVG Export Plug-In . SVG Version: 6.00 Build 0)  -->
<svg version="1.0" id="Layer_1" xmlns="http://www.w3.org/2000/svg" xmlns:xlink="http://www.w3.org/1999/xlink" x="0px" y="0px"
	 viewBox="0 0 50 50" enable-background="new 0 0 50 50" xml:space="preserve">
<path id="path2" fill="#FFFFFF" d="M23.6,29.3c0,3.4-1.8,5.5-4.6,5.5s-4.6-2.1-4.6-5.5c0-3.4,1.8-5.5,4.6-5.5S23.6,25.9,23.6,29.3z
	 M27.5,17.4l-1.2,0.1c-0.7,0-1,0.3-1,0.7c0,0.5,0.4,0.7,0.9,0.7c0.7,0,1.3-0.5,1.3-1.1L27.5,17.4z M45,25c0,11.2-8.8,20-20,20
	S5,36.2,5,25S13.8,5,25,5S45,13.8,45,25z M29.6,17.2c0,1.6,0.9,2.6,2.4,2.6c1.2,0,2-0.7,2.1-1.7h-1c-0.1,0.5-0.6,0.8-1.2,0.8
	c-0.8,0-1.3-0.7-1.3-1.8c0-1.1,0.5-1.7,1.3-1.7c0.7,0,1.1,0.4,1.2,0.9h1c-0.1-1-0.9-1.7-2.1-1.7C30.5,14.6,29.6,15.6,29.6,17.2z
	 M16.2,14.7v5h1v-3.1c0-0.6,0.5-1.2,1.1-1.2c0.6,0,1,0.4,1,0.9v3.3h1v-3.2c0-0.6,0.4-1.1,1.1-1.1s1,0.3,1,1v3.2h1v-3.4
	c0-1-0.6-1.6-1.6-1.6c-0.7,0-1.3,0.4-1.5,0.9H20c-0.2-0.5-0.7-0.9-1.4-0.9c-0.7,0-1.2,0.3-1.4,0.9h-0.1v-0.8L16.2,14.7z M25.3,29.3
	c0-4.3-2.4-7.1-6.3-7.1s-6.3,2.7-6.3,7.1s2.4,7.1,6.3,7.1S25.3,33.6,25.3,29.3z M26,19.8c0.7,0,1.2-0.3,1.5-0.8h0.1v0.7h1v-3.4
	c0-1-0.7-1.7-2-1.7c-1.1,0-1.9,0.6-2,1.4h1c0.1-0.4,0.5-0.6,1-0.6c0.7,0,1,0.3,1,0.9v0.4l-1.4,0.1c-1.2,0.1-1.9,0.6-1.9,1.5
	C24.3,19.2,25,19.8,26,19.8z M36.7,32.2c0-1.9-1.1-3.1-4-3.7l-1.5-0.3c-1.9-0.4-2.6-1.2-2.6-2.2c0-1.4,1.3-2.2,3-2.2
	c1.8,0,3,0.9,3.1,2.4h1.7c-0.1-2.3-2-4-4.8-4c-2.8,0-4.8,1.6-4.8,3.8c0,1.9,1.2,3.2,3.9,3.8l1.5,0.3c1.9,0.4,2.7,1.2,2.7,2.3
	c0,1.3-1.4,2.3-3.2,2.3c-2,0-3.3-0.9-3.5-2.4h-1.7c0.2,2.4,2.2,3.9,5.1,3.9C34.8,36.3,36.7,34.8,36.7,32.2z"/>
</svg>
