<?xml version="1.0" encoding="utf-8"?>
<!-- Generator: Adobe Illustrator 23.0.0, SVG Export Plug-In . SVG Version: 6.00 Build 0)  -->
<svg version="1.0" id="Layer_1" xmlns="http://www.w3.org/2000/svg" xmlns:xlink="http://www.w3.org/1999/xlink" x="0px" y="0px"
	 viewBox="0 0 50 50" enable-background="new 0 0 50 50" xml:space="preserve">
<path fill="#FFFFFF" d="M24.9,45C13.8,44.8,4.9,35.9,5,24.7C5.1,13.9,14.2,4.9,25.1,5C36.7,5.1,45,14.4,45,25
	C45,36.1,36.2,44.9,24.9,45z M25,30c1.8,0,3.6,0,5.4,0c0.3,0,0.4-0.1,0.4-0.4c0.1-0.8,0.2-1.5,0.2-2.3c0.1-2.3,0.1-4.6-0.2-6.9
	c0-0.4-0.2-0.5-0.6-0.5c-3.5,0-7,0-10.4,0c-0.6,0-0.6,0-0.6,0.6c-0.1,1.1-0.2,2.3-0.2,3.4c0,1.8,0.1,3.7,0.2,5.5
	c0,0.5,0.1,0.5,0.6,0.5C21.5,30,23.3,30,25,30z M16.7,20c-0.1,0-0.1,0-0.2,0c-2.7,0-5.3,0-8,0c-0.1,0-0.3,0.1-0.3,0.2
	c-0.2,0.5-0.4,1.1-0.4,1.7c-0.1,1.7-0.2,3.3-0.1,5c0,0.9,0.3,1.8,0.4,2.7C8.2,29.9,8.3,30,8.7,30c2.5,0,5.1,0,7.6,0
	c0.1,0,0.3,0,0.4,0C16.4,26.6,16.5,23.3,16.7,20z M33.3,20c0,0.2,0,0.3,0,0.4c0.2,3,0.2,6.1,0,9.1c0,0.4,0.1,0.5,0.4,0.4
	c2.3,0,4.6,0,6.9,0c1.2,0,1.2,0,1.4-1.2c0.4-2,0.4-4,0.2-6c-0.1-0.8-0.3-1.7-0.5-2.5C41.8,20,41.6,20,41.4,20c-2.5,0-5.1,0-7.6,0
	C33.6,20,33.5,20,33.3,20z M30.4,17.5c0-0.1,0-0.2,0-0.3c-0.4-2.2-1-4.4-1.9-6.4c-0.5-1.1-1.1-2.1-2.1-2.8c-0.9-0.7-1.9-0.7-2.7,0
	c-0.7,0.6-1.2,1.3-1.7,2.1c-1.2,2.1-1.7,4.4-2.3,6.7c0,0.2,0,0.4-0.1,0.7C23.2,17.5,26.8,17.5,30.4,17.5z M19.6,32.5
	c0,0.1,0,0.1,0,0.1c0.4,2.3,1,4.6,2.1,6.7c0.5,1,1.1,1.9,1.9,2.6c0.9,0.7,1.9,0.7,2.8,0c0.8-0.6,1.3-1.4,1.7-2.2
	c1.1-2.1,1.7-4.3,2.2-6.6c0-0.2,0-0.4,0.1-0.6C26.8,32.5,23.2,32.5,19.6,32.5z M29.8,8.2C29.9,8.4,30,8.5,30,8.6
	c0.2,0.5,0.5,0.9,0.7,1.4c1,2.2,1.7,4.6,2.2,7c0.1,0.4,0.2,0.5,0.6,0.5c2.3,0,4.6,0,6.9,0c0.1,0,0.2,0,0.3,0
	C39.8,14.1,33.3,8.5,29.8,8.2z M17,17.5c0.6-3.3,1.5-6.4,3.2-9.3c-3,0.9-5.5,2.4-7.7,4.6c-1.4,1.4-2.5,2.9-3.3,4.7
	C11.9,17.5,14.4,17.5,17,17.5z M29.9,41.8c2.8-0.8,5.2-2.2,7.3-4.2c1.5-1.5,2.7-3.1,3.6-5c-0.1,0-0.2-0.1-0.2-0.1
	c-2.4,0-4.7,0-7.1,0c-0.4,0-0.5,0.2-0.6,0.5c-0.4,1.9-0.8,3.8-1.6,5.7C30.9,39.7,30.4,40.7,29.9,41.8z M17,32.5c-2.6,0-5.2,0-7.8,0
	c1.4,2.9,3.4,5.1,5.9,6.9c1.5,1,3.1,1.8,4.9,2.3C18.4,38.8,17.6,35.7,17,32.5z"/>
</svg>
